<svg width="120" height="40" viewBox="0 0 120 40" xmlns="http://www.w3.org/2000/svg"><g transform="translate(12 5)" fill="none"><path d="M41.510273,16.840018 C41.510273,21.4438936 37.9164812,24.8364128 33.5060822,24.8364128 C29.0956831,24.8364128 25.5018914,21.4438936 25.5018914,16.840018 C25.5018914,12.2036954 29.0956831,8.84362325 33.5060822,8.84362325 C37.9164812,8.84362325 41.510273,12.2036954 41.510273,16.840018 Z M38.006416,16.840018 C38.006416,13.9630464 35.9235277,11.9945922 33.5060822,11.9945922 C31.0886367,11.9945922 29.0057484,13.9630464 29.0057484,16.840018 C29.0057484,19.6881478 31.0886367,21.6854439 33.5060822,21.6854439 C35.9235277,21.6854439 38.006416,19.6845426 38.006416,16.840018 Z" fill="#EA4335"/><path d="M58.7777407,16.840018 C58.7777407,21.4438936 55.183949,24.8364128 50.7735499,24.8364128 C46.3631509,24.8364128 42.7693591,21.4438936 42.7693591,16.840018 C42.7693591,12.2073006 46.3631509,8.84362325 50.7735499,8.84362325 C55.183949,8.84362325 58.7777407,12.2036954 58.7777407,16.840018 Z M55.2738837,16.840018 C55.2738837,13.9630464 53.1909954,11.9945922 50.7735499,11.9945922 C48.3561044,11.9945922 46.2732161,13.9630464 46.2732161,16.840018 C46.2732161,19.6881478 48.3561044,21.6854439 50.7735499,21.6854439 C53.1909954,21.6854439 55.2738837,19.6845426 55.2738837,16.840018 Z" fill="#FBBC05"/><path d="M75.3257306,9.32672375 L75.3257306,23.68274 C75.3257306,29.5881027 71.8506527,32 67.7424344,32 C63.8752411,32 61.5477303,29.4078414 60.6699674,27.2879676 L63.7205533,26.0153222 C64.2637591,27.3168094 65.5947931,28.8526363 67.738837,28.8526363 C70.3685284,28.8526363 71.9981457,27.2266787 71.9981457,24.1658405 L71.9981457,23.0157729 L71.8758344,23.0157729 C71.0916036,23.9855791 69.5807002,24.8328076 67.674084,24.8328076 C63.6845794,24.8328076 60.0296321,21.3501577 60.0296321,16.8688598 C60.0296321,12.3551149 63.6845794,8.84362325 67.674084,8.84362325 C69.5771028,8.84362325 71.0880062,9.69085174 71.8758344,10.6318161 L71.9981457,10.6318161 L71.9981457,9.33032898 L75.3257306,9.33032898 L75.3257306,9.32672375 Z M72.2463655,16.8688598 C72.2463655,14.0531771 70.3721258,11.9945922 67.9870568,11.9945922 C65.5696113,11.9945922 63.5442813,14.0531771 63.5442813,16.8688598 C63.5442813,19.6557008 65.5696113,21.6854439 67.9870568,21.6854439 C70.3721258,21.6854439 72.2463655,19.6557008 72.2463655,16.8688598 Z" fill="#4285F4"/><polygon fill="#34A853" points="80.811749 0.912122578 80.811749 24.3461018 77.3942293 24.3461018 77.3942293 0.912122578"/><path d="M94.1292835,19.4718342 L96.8489097,21.2888689 C95.9711467,22.590356 93.8558819,24.8328076 90.2009346,24.8328076 C85.6682243,24.8328076 82.2830811,21.3213159 82.2830811,16.8364128 C82.2830811,12.0811176 85.6970034,8.84001803 89.8088192,8.84001803 C93.949414,8.84001803 95.9747441,12.1424065 96.6366637,13.9269941 L97,14.8355115 L86.3337413,19.262731 C87.1503486,20.8670572 88.420227,21.6854439 90.2009346,21.6854439 C91.9852396,21.6854439 93.2227414,20.8057684 94.1292835,19.4718342 Z M85.758159,16.5948626 L92.8881842,13.6277603 C92.4960688,12.6291122 91.3161252,11.9333033 89.927533,11.9333033 C88.1468254,11.9333033 85.6682243,13.5087877 85.758159,16.5948626 L85.758159,16.5948626 Z" fill="#EA4335"/><path d="M12.5656802,14.7598017 L12.5656802,11.3672826 L23.973001,11.3672826 C24.0845201,11.9585399 24.1420783,12.657954 24.1420783,13.4150518 C24.1420783,15.9603425 23.4477822,19.1077062 21.2102062,21.3501577 C19.0337858,23.6214511 16.253004,24.8328076 12.5692776,24.8328076 C5.74143302,24.8328076 -5.1121974e-15,19.2591257 -5.1121974e-15,12.4164038 C-5.1121974e-15,5.57368184 5.74143302,0 12.5692776,0 C16.3465361,0 19.0373832,1.48535376 21.0591159,3.42136097 L18.6704495,5.81523209 C17.2207017,4.45245606 15.2565272,3.39251915 12.5656802,3.39251915 C7.57969886,3.39251915 3.68012906,7.41955836 3.68012906,12.4164038 C3.68012906,17.4132492 7.57969886,21.4402884 12.5656802,21.4402884 C15.799733,21.4402884 17.6415962,20.1388013 18.8215398,18.9562866 C19.7784453,17.9972961 20.4079884,16.6273096 20.6562083,14.7561965 L12.5656802,14.7598017 Z" fill="#4285F4"/></g></svg>