<svg xmlns="http://www.w3.org/2000/svg" viewBox="0 0 120 40"><g transform="translate(2 7)"><g transform="matrix(1 0 0 -1 4 23)"><path d="M5.03547774,11.5277644 L0.0371549814,11.5298944 C0.0165133251,11.5298944 0,11.5139195 0,11.4953885 L0,0.0355709736 C0,0.0172529872 0.0165133251,0 0.0371549814,0 L2.06286195,0 L2.09849597,0.0355709736 L2.10088605,10.2514694 L2.11283649,10.2685094 L4.43230681,10.2727694 C5.27687648,10.2727694 5.74077054,9.438449 5.74077054,7.92657612 C5.74077054,6.41385124 5.27687648,5.57761386 4.43230681,5.57761386 L3.03627901,5.57910486 C3.01542007,5.57910486 3.00129683,5.56355587 3.00129683,5.54395989 L3.00129683,4.35499477 C3.00129683,4.33177779 3.01542007,4.3177198 3.03627901,4.3177198 L5.03547774,4.3177198 C5.74077054,4.3177198 6.43150555,4.63807156 6.92994723,5.18867615 C7.52051588,5.84215967 7.83144441,6.78553597 7.83144441,7.91613913 C7.83144441,10.1070555 6.73982671,11.5277644 5.03547774,11.5277644" transform="translate(33.83 4.26)"/><path d="M2.06655572,11.5298944 L0.0395450679,11.5298944 C0.0165133251,11.5298944 0,11.5139195 0,11.4953885 L0,0.0355709736 C0,0.0170399874 0.0165133251,0 0.0395450679,0 L2.06655572,0 L2.1037107,0.0355709736 L2.1037107,11.4953885 L2.06655572,11.5298944" transform="translate(42.9 4.26)"/><path d="M7.29845512,8.74023551 C7.29845512,8.7604705 7.28020355,8.77580649 7.26021373,8.77580649 L3.65053124,8.77580649 C0.413702249,8.77580649 0,6.44665322 0,4.39972474 L0.00239008652,2.62948305 C0.00239008652,1.10610818 0.968854164,0 2.29752499,0 L4.26695628,0 L4.3025903,0.0353579738 L4.3025903,1.22304509 C4.3025903,1.24242808 4.28585969,1.25968107 4.26695628,1.25968107 L2.86028172,1.25733807 C2.53609908,1.26394106 2.09979965,1.39834396 2.09979965,2.49060715 L2.09979965,4.40185473 C2.09827869,5.67197279 2.21886941,6.48392819 2.48786279,6.94592485 C2.77923606,7.45584647 3.2379154,7.52421942 3.65053124,7.52421942 L5.18909512,7.52421942 L5.20213195,7.50632743 L5.20017643,0.0353579738 C5.20017643,0.0172529872 5.21582063,0 5.23733141,0 L7.26064829,0 C7.28063811,0 7.29845512,0.0172529872 7.29845512,0.0353579738" transform="translate(46.52 4.26)"/><path d="M4.3182345,6.73399 L3.32004746,6.80853995 C2.57151582,6.8718009 2.01484294,7.2782046 2.01484294,8.48058871 C2.01484294,9.88447067 2.65712437,10.2685094 3.51451359,10.2685094 L6.27723633,10.2685094 L6.31395675,10.3034414 L6.31395675,11.4951755 L6.27723633,11.5294684 L6.21943969,11.5294684 L3.22639952,11.5288294 C1.34083854,11.5288294 0,10.4431693 0,8.27951686 L0,8.18537093 C0,6.47817719 1.07162788,5.24597311 2.66864024,5.1262672 L3.66204711,5.05406025 C4.41992182,4.99782829 4.89185527,4.33348178 4.89185527,3.32535353 L4.89185527,3.04185074 C4.89185527,2.41158421 4.73106763,1.25840307 3.35220499,1.25840307 L0.481711074,1.25840307 C0.462373102,1.25840307 0.445642496,1.24200208 0.445642496,1.22176709 L0.445642496,0.0355709736 L0.481711074,0 L4.04554736,0 C5.14368348,0 6.98252913,0.435584677 6.98252913,3.3656105 C6.98252913,4.42720172 6.7365675,5.26386509 6.23790854,5.86857165 C5.8129077,6.38786526 5.18322854,6.66881205 4.3182345,6.73399" transform="translate(64.08 4.26)"/><path d="M7.3019316,8.74023551 C7.3019316,8.7604705 7.28476644,8.77580649 7.26564575,8.77580649 L3.64792387,8.77580649 C0.418047861,8.77580649 0,6.44665322 0,4.39972474 L0.00260736711,2.62948305 C0.00260736711,1.10610818 0.968202322,0 2.30382613,0 L4.26782541,0 L4.30432855,0.0353579738 L4.30432855,1.22304509 C4.30432855,1.24242808 4.28716338,1.25968107 4.26782541,1.25968107 L2.86028172,1.25733807 C2.53740276,1.26394106 2.10501438,1.39834396 2.1037107,2.49060715 L2.1037107,4.40185473 C2.1037107,5.67197279 2.22560511,6.48392819 2.48829735,6.94592485 C2.77988791,7.45584647 3.24160917,7.52421942 3.64727203,7.52421942 L5.19278889,7.52421942 L5.20799853,7.50632743 L5.20430476,0.0353579738 C5.20430476,0.0172529872 5.22103537,0 5.24124246,0 L7.26738399,0 C7.2873738,0 7.3019316,0.0172529872 7.3019316,0.0353579738" transform="translate(77.7 4.26)"/><path d="M4.30954328,8.77580649 L2.11066368,8.77580649 L2.09914781,8.78901248 L2.09914781,10.2331514 C2.09914781,10.2523214 2.08415545,10.2685094 2.06373107,10.2685094 L0.0386759455,10.2685094 C0.0180342892,10.2685094 0,10.2523214 0,10.2331514 L0,2.62863105 C0,1.10546918 0.968636883,0 2.30230516,0 L3.75265312,0 C3.77351206,0 3.78959082,0.0172529872 3.78959082,0.0355709736 L3.78959082,1.22198009 C3.78959082,1.24136308 3.77351206,1.25968107 3.75265312,1.25968107 L2.86223725,1.25968107 C2.63409263,1.26308906 2.09914781,1.27437805 2.096975,2.39667422 L2.096975,7.51612542 L2.10936,7.52762741 C2.78292983,7.52421942 4.30954328,7.52762741 4.30954328,7.52762741 L4.3451773,7.56021639 L4.3451773,8.74023551 C4.3451773,8.7602575 4.32844669,8.77580649 4.30954328,8.77580649" transform="translate(72.54 4.26)"/><path d="M4.30128662,8.77580649 L2.11479201,8.77580649 L2.10001693,8.78901248 L2.10001693,10.2331514 L2.06655572,10.2685094 L0.037372262,10.2685094 C0.0173824474,10.2685094 0,10.2523214 0,10.2331514 L0,2.62863105 C0,1.10546918 0.966898638,0 2.2996978,0 L3.74961119,0 C3.77133925,0 3.78546249,0.0172529872 3.78546249,0.0355709736 L3.78546249,1.22198009 C3.78546249,1.24136308 3.77133925,1.25968107 3.74961119,1.25968107 L2.8594126,1.25968107 C2.63061614,1.26308906 2.10001693,1.27437805 2.10001693,2.39667422 L2.10001693,7.51612542 L2.11218464,7.52762741 C2.78053975,7.52421942 4.30128662,7.52762741 4.30128662,7.52762741 L4.3373552,7.56021639 L4.3373552,8.74023551 C4.3373552,8.7602575 4.31910363,8.77580649 4.30128662,8.77580649" transform="translate(86.7 4.26)"/><path d="M2.06177555,8.77580649 L0.0369377008,8.77580649 C0.0180342892,8.77580649 0,8.7602575 0,8.74023551 L0,0.0355709736 L0.0369377008,0 L2.06177555,0 C2.08393817,0 2.09914781,0.0172529872 2.09914781,0.0355709736 L2.09914781,8.74023551 C2.09914781,8.7602575 2.08393817,8.77580649 2.06177555,8.77580649" transform="translate(92.28 4.26)"/><path d="M2.06177555,1.73381871 L0.0369377008,1.73381871 L0,1.69931274 L0,0.0351449739 C0,0.0149099889 0.0180342892,0 0.0369377008,0 L2.06177555,0 C2.08393817,0 2.09914781,0.0149099889 2.09914781,0.0351449739 L2.09914781,1.69931274 C2.09914781,1.71784373 2.08393817,1.73381871 2.06177555,1.73381871" transform="translate(92.28 14.05)"/><path d="M3.65074852,8.77580649 L0.0367204202,8.77580649 C0.0178170086,8.77580649 0.00108640296,8.7602575 0.00108640296,8.74023551 L0,0.0355709736 L0.0338957725,0 L2.06242739,0 L2.09675772,0.0355709736 L2.09393307,7.50867043 L2.10805631,7.52315442 L3.64901028,7.52421942 C4.06575445,7.52421942 4.52291282,7.45840247 4.8153725,6.98596882 C5.08284491,6.55911713 5.20408748,5.80871869 5.20408748,4.63104256 C5.20582572,4.5801356 5.20256652,0.0355709736 5.20256652,0.0355709736 C5.20256652,0.0172529872 5.21864528,0 5.23863509,0 L7.25847549,0 C7.28042083,0 7.29649959,0.0172529872 7.29649959,0.0355709736 L7.29649959,4.40100273 C7.29649959,6.44686622 6.87953813,8.77580649 3.65074852,8.77580649" transform="translate(104.7 4.26)"/><path d="M5.09892367,1.84244863 C4.78017304,1.32784101 4.27412654,1.25904207 3.81501265,1.25904207 C3.36046165,1.25904207 2.85289418,1.32784101 2.53066707,1.84244863 C2.24016291,2.30551029 2.10566623,3.11682669 2.10566623,4.39610374 L2.10566623,4.40632773 C2.10566623,5.91607061 2.2951349,6.77382097 2.71904934,7.18235467 C2.97261579,7.43028649 3.30136133,7.53082241 3.81501265,7.53082241 C4.33605151,7.53082241 4.66153784,7.43028649 4.91488701,7.18235467 C5.33510768,6.77382097 5.52501092,5.91244961 5.52501092,4.39610374 C5.52501092,3.11512269 5.39007967,2.30316729 5.09892367,1.84244863 M3.81501265,8.78219648 C0.43238838,8.78219648 0,6.44218022 0,4.39610374 C0,2.34768426 0.43238838,0 3.81501265,0 C7.1978542,0 7.62915618,2.34768426 7.62915618,4.39610374 C7.62915618,6.44218022 7.1978542,8.78219648 3.81501265,8.78219648" transform="translate(95.73 4.25)"/><path d="M0.023466304,13.0332473 L1.17599585e-16,12.9987414 L3.00455604,4.37373875 C3.00955349,4.35435577 3.00955349,4.32453579 3.00325235,4.30557881 L1.31150566,0.0351449739 C1.3043354,0.0149099889 1.31367846,0 1.33366828,0 L3.09537933,0 C3.11710739,0 3.13992185,0.0149099889 3.14709211,0.0351449739 L8.42136122,12.9987414 C8.42874876,13.0194023 8.41940569,13.0332473 8.39876404,13.0332473 L6.47669991,13.0332473 C6.45584098,13.0332473 6.43389564,13.0176983 6.42737722,12.9987414 L4.19438457,7.33102856 L4.1693973,7.33102856 L2.19801048,12.9987414 C2.19344759,13.0194023 2.1708504,13.0332473 2.15064331,13.0332473" transform="translate(54.93)"/></g><path fill="#DE0029" d="M17.2657222,4.99073423 L17.2447297,24 L12.0852341,22.3435641 L12.0852341,1.72189303e-14 L18.6710359,1.71879529 C22.8866578,2.83722118 25.4665014,5.0112644 25.4245184,8.82147021 C25.3825994,13.2530238 23.3061789,15.0336657 19.2582358,13.8740532 L19.2582358,5.1354057 C19.2582358,4.0792759 17.2657222,4.01742937 17.2657222,4.99073423 L17.2657222,4.99073423 Z"/><path fill="#F3C202" d="M9.71505187,18.6571776 L7.28202246,19.4649633 C5.70876878,20.003487 4.36662613,18.7403888 5.81379555,18.2223956 L6.98826033,17.8085274 L2.56271617,16.4208396 C1.19932058,16.8766022 -0.0801707952,17.8498438 0.00392847372,19.2166165 C0.0878327373,20.603856 3.29673271,20.935348 5.7718762,21.3288136 C8.0788855,21.7013659 10.1762989,21.494335 12.0851699,20.8316726 L12.0851699,19.4027314 L9.71505187,18.6571776 L9.71505187,18.6571776 Z M17.2866486,24 L21.7960964,22.4467899 L17.2447297,21.0181716 L17.2447297,23.8962613 L17.2866486,24 L17.2866486,24 Z"/><path fill="#326DB3" d="M29.2838549,19.8378992 L29.3676927,19.8170492 C31.3392825,19.1339204 32.178261,18.1810159 31.9686606,17.29092 C31.6330447,15.8000694 29.2210072,14.992286 25.5084876,14.7230232 C22.8448672,14.5367785 20.2231689,15.1164268 17.664315,15.9860572 L17.2447939,16.1311778 L21.8381463,17.5392669 L24.5227596,16.6487218 C27.3333252,16.1311778 28.4661295,17.0421874 25.7603304,17.8912894 L24.4179262,18.3466012 L29.2838549,19.8378992 L29.2838549,19.8378992 Z M12.0852341,13.2530238 L10.0505395,13.9361553 L12.0852341,14.557438 L12.0852341,13.2530238 L12.0852341,13.2530238 Z"/><path fill="#00AA9E" d="M21.7960964,22.4467899 L29.2838549,19.8378992 L24.4177979,18.3466012 L17.2447297,20.769377 L17.2447297,21.0181716 L21.7960964,22.4467899 L21.7960964,22.4467899 Z M12.0852341,17.870373 L9.71511648,18.6572436 L12.0852341,19.4027314 L12.0852341,17.870373 L12.0852341,17.870373 Z M17.2447297,19.0924752 L17.2447297,16.1311778 L21.8380821,17.5392669 L17.2447297,19.0924752 L17.2447297,19.0924752 Z M6.98832584,17.8085274 L12.0851699,16.0069701 L12.0851699,14.557438 L10.0505395,13.9361553 L2.66761318,16.400375 C2.6466203,16.400375 2.60470085,16.4208396 2.56278145,16.4208396 L6.98832584,17.8085274 L6.98832584,17.8085274 Z"/></g></svg>