<svg viewBox="0 0 75 25" xmlns="http://www.w3.org/2000/svg"><path d="M29.381 16.637v-.987a4 4 0 0 1-2.98 1.381c-1.826 0-2.738-1-2.738-2.775V8.225c0-.094.075-.175.168-.175h1.5c.094 0 .175.081.175.175v5.325c0 1.356.663 1.794 1.72 1.794.93 0 1.737-.563 2.155-1.144V8.225a.18.18 0 0 1 .175-.175h1.5c.094 0 .17.081.17.175v8.412a.173.173 0 0 1-.17.175h-1.5a.175.175 0 0 1-.175-.175Zm8.625-8.806c2.194 0 3.757 1.706 3.757 4.594 0 2.881-1.563 4.606-3.757 4.606a3.369 3.369 0 0 1-2.725-1.437v4.381a.173.173 0 0 1-.168.175h-1.5a.175.175 0 0 1-.175-.175V8.225c0-.094.08-.175.175-.175h1.5c.093 0 .168.081.168.175v1.019a3.35 3.35 0 0 1 2.725-1.413Zm-.543 1.694c-.871.019-1.68.45-2.182 1.162v3.457a2.75 2.75 0 0 0 2.182 1.2c1.456 0 2.406-1.219 2.406-2.919l-.004-.188c-.07-1.603-1.002-2.712-2.402-2.712Zm11.88 7.287a.175.175 0 0 1-.174-.175v-5.343c0-1.375-.663-1.775-1.7-1.775-.95 0-1.75.581-2.175 1.162v5.957a.179.179 0 0 1-.175.174h-1.5a.175.175 0 0 1-.169-.175V4.887c0-.1.075-.174.169-.174h1.5c.094 0 .175.074.175.175V9.23a3.95 3.95 0 0 1 2.981-1.4c1.825 0 2.738.981 2.738 2.775v6.031a.173.173 0 0 1-.17.175h-1.5Zm7.732-8.98c2.7 0 4.35 2.068 4.35 4.593 0 2.5-1.65 4.606-4.35 4.606-2.706 0-4.356-2.106-4.356-4.606 0-2.525 1.65-4.594 4.356-4.594Zm0 1.687c-1.562 0-2.437 1.362-2.437 2.906 0 1.556.875 2.919 2.437 2.919 1.581 0 2.438-1.356 2.438-2.919 0-1.544-.857-2.906-2.438-2.906Zm6.056 7.118V4.887c0-.1.075-.174.17-.174h1.5c.093 0 .174.074.174.175v11.75a.179.179 0 0 1-.175.174h-1.5a.175.175 0 0 1-.169-.175Zm11.7-11.93c.094 0 .17.08.17.187v11.743a.175.175 0 0 1-.176.175h-1.5a.175.175 0 0 1-.169-.175v-1.024a3.375 3.375 0 0 1-2.718 1.418c-2.163 0-3.763-1.706-3.763-4.606 0-2.831 1.581-4.594 3.763-4.594 1.062 0 2.05.488 2.718 1.438V4.894c0-.107.075-.188.175-.188h1.5Zm-3.85 4.812c-1.475 0-2.406 1.219-2.406 2.906 0 1.7.931 2.919 2.406 2.919a2.731 2.731 0 0 0 2.175-1.181V10.7c-.406-.656-1.318-1.181-2.175-1.181ZM6.306 22.994c.75.231 1.488.343 2.207.343h.106A7.51 7.51 0 0 0 10.806 23a.808.808 0 0 1 1 .563.838.838 0 0 1-.543 1.03A9.063 9.063 0 0 1 8.619 25h-.106a9.047 9.047 0 0 1-2.663-.413.831.831 0 0 1-.544-1.03.808.808 0 0 1 1-.563ZM8.556 0c3.72 0 6.982 2.438 8.125 6.081V6.1l.007.013c.762 2.293.487 5.375-.732 8.237-1.662 3.912-4.687 6.625-7.362 6.625h-.075c-2.675 0-5.7-2.713-7.363-6.625-1.218-2.869-1.493-5.944-.73-8.238A8.537 8.537 0 0 1 8.555 0Zm0 6.412a12.444 12.444 0 0 0-2.112 3.394c-1.738 4.082-1.275 8.45 1.006 9.538.346.163.724.248 1.106.25.383-.002.76-.087 1.107-.25 2.28-1.088 2.743-5.457 1.006-9.538-.55-1.293-1.275-2.456-2.113-3.393ZM13.72 4.4c-1.181-.563-2.713-.163-4.188 1.063a13.831 13.831 0 0 1 2.363 3.787c1.175 2.75 1.431 5.588.894 7.781a13.3 13.3 0 0 0 1.943-3.237c1.094-2.563 1.35-5.269.688-7.244-.35-1.044-.938-1.787-1.7-2.15ZM7.58 5.463C6.113 4.237 4.575 3.837 3.388 4.4c-.757.362-1.344 1.106-1.694 2.144-.663 1.981-.4 4.687.687 7.25a13.3 13.3 0 0 0 1.944 3.237C3.781 14.838 4.05 12 5.22 9.25a13.825 13.825 0 0 1 2.36-3.787Zm5.182-2.694a7.056 7.056 0 0 0-8.413 0c1.356-.057 2.831.543 4.206 1.737 1.382-1.194 2.85-1.794 4.207-1.737Z" fill="#3DD763"/></svg>