<svg xmlns="http://www.w3.org/2000/svg" viewBox="0 0 120 40"><path fill="#0061ff" d="M21.602 13.703l-5.802 3.703 5.802 3.703-5.802 3.703L10 21.08l5.802-3.703L10 13.703 15.802 10l5.799 3.703zm-5.83 12.284l5.802-3.703 5.802 3.703-5.802 3.7-5.802-3.703v.003zm5.83-4.907l5.802-3.703-5.802-3.674L27.377 10l5.802 3.703-5.802 3.703 5.802 3.703-5.802 3.703-5.771-3.734-.004.002z"/><path fill="#000" d="M37.716 13.703h4.688c2.994 0 5.463 1.729 5.463 5.679v.833c0 3.982-2.315 5.771-5.37 5.771h-4.78V13.703zm2.623 2.227v7.813h2.006c1.698 0 2.84-1.111 2.84-3.58v-.648c0-2.469-1.203-3.58-2.932-3.58h-1.914v-.004zm8.92.123h2.099l.34 2.315c.401-1.574 1.42-2.407 3.271-2.407h.648v2.654h-1.08c-2.13 0-2.654.741-2.654 2.84v4.568h-2.593v-9.969h-.031v-.001zm6.883 5.185v-.273c0-3.333 2.13-5.154 5.031-5.154 2.963 0 5.031 1.821 5.031 5.154v.273c0 3.271-2.006 5.031-5.031 5.031-3.21-.031-5.031-1.759-5.031-5.031zm7.407-.031v-.247c0-1.852-.926-2.963-2.407-2.963-1.451 0-2.407 1.018-2.407 2.963v.247c0 1.79.926 2.813 2.407 2.813 1.482-.031 2.407-1.018 2.407-2.812zm4.012-5.154h2.16l.247 1.883c.525-1.266 1.636-2.13 3.271-2.13 2.531 0 4.198 1.821 4.198 5.185v.273c0 3.271-1.852 5-4.198 5-1.574 0-2.654-.71-3.179-1.852v5.031H67.53l.031-13.398v.007zm7.253 5.154v-.216c0-1.975-1.018-2.963-2.377-2.963-1.451 0-2.407 1.111-2.407 2.963v.185c0 1.759.926 2.87 2.377 2.87 1.482-.031 2.407-.988 2.407-2.84h0zm6.451 2.963l-.216 1.821h-2.227V12.716h2.531v5.096c.555-1.297 1.667-2.006 3.241-2.006 2.377.031 4.136 1.667 4.136 4.969v.313c0 3.302-1.667 5.185-4.198 5.185-1.667-.031-2.747-.802-3.271-2.099l.004-.004zm4.815-3.086v-.247c0-1.821-.987-2.84-2.377-2.84-1.42 0-2.407 1.142-2.407 2.87v.216c0 1.852.957 2.932 2.377 2.932 1.512 0 2.407-.957 2.407-2.932h0zm3.766.154v-.273c0-3.333 2.13-5.154 5.031-5.154 2.963 0 5.031 1.821 5.031 5.154v.273c0 3.271-2.037 5.031-5.031 5.031-3.21-.031-5.031-1.759-5.031-5.031zm7.438-.031v-.247c0-1.852-.926-2.963-2.407-2.963-1.451 0-2.407 1.018-2.407 2.963v.247c0 1.79.926 2.813 2.407 2.813 1.482-.031 2.407-1.018 2.407-2.812zm6.018-.37l-3.487-4.784h2.994l2.006 2.994 2.037-2.994h2.963l-3.549 4.753L110 25.988h-2.932l-2.284-3.302-2.227 3.302h-3.055l3.797-5.154.004.004z"/></svg>