<?xml version="1.0" encoding="UTF-8"?>
<svg width="123px" height="30px" viewBox="0 0 123 30" version="1.1" xmlns="http://www.w3.org/2000/svg" xmlns:xlink="http://www.w3.org/1999/xlink">
    <title>logo/tesla</title>
    <g id="logo/tesla" stroke="none" stroke-width="1" fill="none" fill-rule="evenodd">
        <g id="image" transform="translate(0.000000, 9.000000)" fill="#F8002D" fill-rule="nonzero">
            <path d="M0,0.0360175695 C0.316032056,1.27429832 1.28294912,2.24121538 2.52122987,2.55724744 L6.48316252,2.55724744 L6.66325037,2.59326501 L6.66325037,12.5341142 L9.1124451,12.5341142 L9.1124451,2.62928258 L9.36456808,2.52122987 L13.3265007,2.52122987 C14.5608127,2.19825253 15.5247533,1.23431197 15.8477306,2.65283159e-16 L0,2.65283159e-16 L0,0.0360175695 Z M85.9379209,0.0360175695 L83.4887262,0.0360175695 L83.4887262,12.5701318 L94.7262079,12.5701318 C95.8073365,12.161454 96.6163799,11.2445381 96.8872621,10.120937 L85.9739385,10.120937 L85.9739385,2.65283159e-16 L85.9379209,0.0360175695 Z M67.1007321,2.4852123 C68.3973646,2.1250366 69.4778917,1.11654466 69.7660322,-6.22895261e-16 L56.0433382,0.0360175695 L56.0433382,7.4556369 L67.2448023,7.4556369 L67.2448023,10.0489019 L58.4565154,10.0489019 C57.0992439,10.4019849 55.9584113,11.3198962 55.3229868,12.5701318 L69.6939971,12.5701318 L69.6939971,5.00644217 L58.4565154,5.00644217 L58.4565154,2.4852123 L67.1007321,2.4852123 L67.1007321,2.4852123 Z M108.953148,12.5701318 L111.366325,12.5701318 L111.366325,7.52767204 L120.226647,7.52767204 L120.226647,12.5701318 L122.639824,12.5701318 L122.639824,5.00644217 L108.953148,5.00644217 L108.953148,12.5701318 Z M30.7229868,2.52122987 L40.0875549,2.52122987 C41.343776,2.2240702 42.3298547,1.25187994 42.6448023,7.09372369e-16 L28.201757,7.09372369e-16 C28.5106429,1.24233536 29.4806515,2.21234395 30.7229868,2.52122987 L30.7229868,2.52122987 Z M30.7229868,7.49165447 L40.0875549,7.49165447 C41.343776,7.1944948 42.3298547,6.22230454 42.6448023,4.9704246 L28.201757,4.9704246 C28.5106429,6.21275996 29.4806515,7.18276855 30.7229868,7.49165447 L30.7229868,7.49165447 Z M30.7229868,12.5701318 L40.0875549,12.5701318 C41.343776,12.2729721 42.3298547,11.3007818 42.6448023,10.0489019 L28.201757,10.0489019 C28.5106429,11.2912373 29.4806515,12.2612459 30.7229868,12.5701318 L30.7229868,12.5701318 Z M111.114202,2.52122987 L120.47877,2.52122987 C121.721105,2.21234395 122.691114,1.24233536 123,-2.3992521e-15 L108.592972,-2.3992521e-15 C108.901858,1.24233536 109.871867,2.21234395 111.114202,2.52122987 L111.114202,2.52122987 Z" id="Shape"></path>
        </g>
    </g>
</svg>