<svg xmlns="http://www.w3.org/2000/svg" viewBox="0 0 120 40"><path d="M4.93 10.842c2.033-.98 4.411-1.01 6.59-.569 1.65.392 3.402 1.317 4.026 2.978.623 1.914.488 3.956.49 5.937-1.978-.008-3.958 0-5.934-.003-.042-1.644.09-3.297-.081-4.936.036-1.134-1.994-1.126-1.966.008-.213 2.578-.05 5.173-.1 7.76.047 1.65-.121 3.322.142 4.958.163.656.994.706 1.52.484.404-.286.412-.812.454-1.253.065-1.228.014-2.456.03-3.684 1.983-.006 3.962-.003 5.944-.003-.059 1.864.11 3.848-.682 5.59-1.314 2.153-4.054 2.961-6.468 2.886-2.128-.02-4.565-.505-5.887-2.32-.947-1.466-.913-3.294-.989-4.972.014-2.976-.1-5.957.107-8.927.087-1.708 1.272-3.217 2.805-3.934Zm14.302-.469c2.875-.039 5.752-.036 8.627 0 1.092 6.74 2.26 13.468 3.372 20.206-1.85-.006-3.7 0-5.55-.006-.163-1.261-.284-2.528-.483-3.787-.66.011-1.323.011-1.983.009.118-1.128.248-2.256.371-3.384.407 0 .811-.003 1.218-.003-.37-2.886-.648-5.787-1.094-8.662-.579 5.284-1.275 10.554-1.91 15.833-1.855-.003-3.714-.003-5.57-.003.989-6.735 2.033-13.463 3.002-20.203Zm13.015-.019c1.968-.006 3.939-.003 5.91-.003.002 5.39 0 10.776.002 16.166 1.205.005 2.41.003 3.614.003.005 1.353.002 2.703.002 4.056-3.175.003-6.35-.003-9.525 0-.006-6.74 0-13.483-.003-20.222Zm10.933 0c1.973-.006 3.95-.003 5.926-.003.005 5.39 0 10.776.002 16.166 1.194.005 2.387.003 3.58.003.003 1.353.003 2.703.003 4.056h-9.51c-.005-6.74 0-13.483-.002-20.222Zm16.86 0c2.611-.02 5.225 0 7.833.113 1.373.098 2.81.192 4.035.878 1.103.656 1.78 1.898 1.79 3.167.18 3.518.077 7.046.088 10.566-.07 1.453.084 3.142-.98 4.3-1.185 1.073-2.886 1.126-4.405 1.187-2.785.03-5.573 0-8.36.01-.003-6.74 0-13.482 0-20.221m5.926 3.478c.003 4.44.003 8.876 0 13.316.564-.123 1.423-.009 1.673-.67.348-1.459.163-2.981.21-4.47-.047-2.434.105-4.879-.086-7.31-.082-.875-1.143-.838-1.797-.866Zm9.298-3.478c1.965-.006 3.93 0 5.896-.003.003 4.912 0 9.823 0 14.735.011.65-.003 1.306.12 1.948.09.736 1.401.702 1.458-.037.132-.633.118-1.283.126-1.925-.006-4.906.003-9.812-.006-14.718 1.966-.009 3.93 0 5.899-.003-.006 4.723.017 9.446-.011 14.166-.062 1.3.084 2.73-.697 3.861-.929 1.542-2.734 2.326-4.48 2.509-2.213.25-4.619-.008-6.471-1.325-1.166-.82-1.775-2.231-1.76-3.626-.141-5.192-.043-10.387-.074-15.582Zm14.765-.004h12.978c.003 1.354 0 2.704.003 4.057-1.173 0-2.347-.003-3.518.003v16.166c-1.982 0-3.964.003-5.946-.003V14.41a490.964 490.964 0 0 0-3.503 0c-.026-1.353-.012-2.706-.014-4.06Zm14.042 0c1.82.023 3.639-.046 5.458.037 1.117 3.63 2.339 7.229 3.495 10.849.267.894.705 1.77.677 2.722-.014 2.242-.003 4.484-.009 6.726-1.822.003-3.64.003-5.463 0 0-2.15-.008-4.3.006-6.454.005-.483-.026-.975-.18-1.439-1.336-4.142-2.653-8.292-3.984-12.44Zm8.504.004c1.808-.006 3.616 0 5.424-.003-1.275 3.828-2.532 7.662-3.807 11.49-.808-2.556-1.715-5.087-2.448-7.662.171-1.292.567-2.548.831-3.825Z"/><path d="M52.017 15.201c1.039-.452 2.594-.013 2.765 1.226a26.836 26.836 0 0 1-.011 4.506c-.314 1.72-3.22 1.8-3.678.133-.224-1.336-.098-2.711-.104-4.062-.033-.73.312-1.516 1.028-1.803m.707.956c-.123 1.653-.073 3.314-.03 4.97l.395-.128c.177-1.525.124-3.089.037-4.62l-.402-.222Zm2.673-.969c.896-.003 1.788-.006 2.681 0-.003.458-.005.92-.005 1.38l-1.087.009c0 .441-.003.883-.003 1.325.323.003.649.005.977.01 0 .423 0 .845.003 1.268l-.977.008c0 .98-.003 1.959 0 2.94-.53 0-1.058.002-1.586.005-.003-2.317 0-4.631-.003-6.945Z"/></svg>