<svg width="28" height="28" viewBox="0 0 28 28" fill="none" xmlns="http://www.w3.org/2000/svg">
<mask id="mask0_1117_24751" style="mask-type:alpha" maskUnits="userSpaceOnUse" x="0" y="0" width="28" height="28">
<rect width="28" height="28" rx="14" fill="#D9D9D9"/>
</mask>
<g mask="url(#mask0_1117_24751)">
<rect width="28" height="28" fill="#FF453A" fill-opacity="0.2"/>
<path d="M13.4185 19.5123C12.9001 19.5123 12.5389 19.4327 12.3348 19.2735C12.1307 19.1184 12.0287 18.8959 12.0287 18.6061C12.0287 18.2143 12.1491 17.8021 12.3899 17.3694C12.6307 16.9368 12.9776 16.5327 13.4307 16.1572C13.8838 15.7776 14.4287 15.4694 15.0654 15.2327C15.7062 14.9959 16.4225 14.8776 17.2144 14.8776C18.0062 14.8776 18.7205 14.9959 19.3572 15.2327C19.9981 15.4694 20.545 15.7776 20.9981 16.1572C21.4511 16.5327 21.7981 16.9368 22.0389 17.3694C22.2797 17.8021 22.4001 18.2143 22.4001 18.6061C22.4001 18.8959 22.2981 19.1184 22.094 19.2735C21.8899 19.4327 21.5266 19.5123 21.0042 19.5123H13.4185ZM17.2144 13.8C16.7613 13.8 16.347 13.6796 15.9715 13.4388C15.596 13.1939 15.294 12.8674 15.0654 12.4592C14.8409 12.047 14.7287 11.5857 14.7287 11.0755C14.7287 10.5817 14.843 10.1327 15.0715 9.7286C15.3001 9.32043 15.6021 8.99798 15.9776 8.76125C16.3532 8.52043 16.7654 8.40002 17.2144 8.40002C17.6674 8.40002 18.0817 8.51839 18.4572 8.75513C18.8327 8.99186 19.1327 9.31227 19.3572 9.71635C19.5858 10.1164 19.7001 10.5674 19.7001 11.0694C19.7001 11.5796 19.5858 12.0408 19.3572 12.4531C19.1327 12.8653 18.8327 13.1939 18.4572 13.4388C18.0817 13.6796 17.6674 13.8 17.2144 13.8ZM6.76949 19.5184C6.34091 19.5184 6.03887 19.4286 5.86336 19.249C5.68785 19.0735 5.6001 18.8245 5.6001 18.5021C5.6001 18.0939 5.70622 17.6776 5.91846 17.2531C6.13479 16.8245 6.44091 16.4306 6.83683 16.0715C7.23683 15.7123 7.71234 15.4204 8.26336 15.1959C8.81846 14.9715 9.43683 14.8592 10.1185 14.8592C10.6572 14.8592 11.145 14.9306 11.5817 15.0735C12.0225 15.2123 12.4083 15.3878 12.7389 15.6C12.3838 15.8817 12.0797 16.198 11.8266 16.549C11.5736 16.9 11.3797 17.2592 11.245 17.6266C11.1144 17.9898 11.0511 18.3347 11.0552 18.6612C11.0634 18.9919 11.1491 19.2776 11.3123 19.5184H6.76949ZM10.1185 13.9347C9.72663 13.9347 9.3654 13.8306 9.03479 13.6225C8.70826 13.4102 8.44704 13.1245 8.25112 12.7653C8.0552 12.4061 7.95724 12.0061 7.95724 11.5653C7.95724 11.1327 8.0552 10.7408 8.25112 10.3898C8.45112 10.0347 8.71438 9.75309 9.04091 9.54492C9.37153 9.33676 9.73071 9.23268 10.1185 9.23268C10.5062 9.23268 10.8634 9.33676 11.1899 9.54492C11.5205 9.749 11.7838 10.0266 11.9797 10.3776C12.1797 10.7286 12.2797 11.1225 12.2797 11.5592C12.2797 12 12.1817 12.4021 11.9858 12.7653C11.7899 13.1245 11.5287 13.4102 11.2021 13.6225C10.8756 13.8306 10.5144 13.9347 10.1185 13.9347Z" fill="#FF453A"/>
</g>
</svg>
