<svg width="28" height="28" viewBox="0 0 28 28" fill="none" xmlns="http://www.w3.org/2000/svg">
<mask id="mask0_1117_28648" style="mask-type:alpha" maskUnits="userSpaceOnUse" x="0" y="0" width="28" height="28">
<rect width="28" height="28" rx="14" fill="#D9D9D9"/>
</mask>
<g mask="url(#mask0_1117_28648)">
<rect width="28" height="28" fill="#A4AAB8" fill-opacity="0.2"/>
<path d="M5.6001 17.193V10.7942C5.6001 10.0651 5.794 9.51179 6.18182 9.13432C6.5748 8.75685 7.13583 8.56812 7.86492 8.56812H20.1275C20.8618 8.56812 21.4228 8.75685 21.8106 9.13432C22.2036 9.51179 22.4001 10.0651 22.4001 10.7942V17.193C22.4001 17.9273 22.2036 18.4858 21.8106 18.8684C21.4228 19.2459 20.8618 19.4346 20.1275 19.4346H7.86492C7.13583 19.4346 6.5748 19.2459 6.18182 18.8684C5.794 18.4858 5.6001 17.9273 5.6001 17.193ZM10.2771 15.1532C10.5977 15.1532 10.8718 15.0394 11.0993 14.8119C11.3268 14.5844 11.4405 14.3103 11.4405 13.9897C11.4405 13.6691 11.3242 13.3951 11.0915 13.1676C10.864 12.94 10.5925 12.8263 10.2771 12.8263C9.95651 12.8263 9.68246 12.94 9.45495 13.1676C9.22743 13.3951 9.11367 13.6691 9.11367 13.9897C9.11367 14.3103 9.22743 14.5844 9.45495 14.8119C9.68246 15.0394 9.95651 15.1532 10.2771 15.1532ZM14.0079 15.1532C14.3336 15.1532 14.6077 15.0394 14.83 14.8119C15.0575 14.5844 15.1713 14.3103 15.1713 13.9897C15.1713 13.6691 15.0575 13.3951 14.83 13.1676C14.6077 12.94 14.3336 12.8263 14.0079 12.8263C13.6873 12.8263 13.4132 12.94 13.1857 13.1676C12.9633 13.3951 12.8522 13.6691 12.8522 13.9897C12.8522 14.3103 12.9633 14.5844 13.1857 14.8119C13.4132 15.0394 13.6873 15.1532 14.0079 15.1532ZM17.7464 15.1532C18.0618 15.1532 18.3332 15.0394 18.5608 14.8119C18.7934 14.5844 18.9098 14.3103 18.9098 13.9897C18.9098 13.6691 18.7934 13.3951 18.5608 13.1676C18.3332 12.94 18.0618 12.8263 17.7464 12.8263C17.4258 12.8263 17.1517 12.94 16.9242 13.1676C16.6967 13.3951 16.5829 13.6691 16.5829 13.9897C16.5829 14.3103 16.6967 14.5844 16.9242 14.8119C17.1517 15.0394 17.4258 15.1532 17.7464 15.1532Z" fill="#A4AAB8"/>
</g>
</svg>
