<svg width="28" height="28" viewBox="0 0 28 28" fill="none" xmlns="http://www.w3.org/2000/svg">
<mask id="mask0_1117_28270" style="mask-type:alpha" maskUnits="userSpaceOnUse" x="0" y="0" width="28" height="28">
<rect width="28" height="28" rx="14" fill="#D9D9D9"/>
</mask>
<g mask="url(#mask0_1117_28270)">
<rect width="28" height="28" fill="#00D724" fill-opacity="0.2"/>
<path d="M14 22.4001C13.9315 22.4001 13.846 22.386 13.7433 22.3578C13.6463 22.3353 13.5436 22.2959 13.4352 22.2395C12.2429 21.5691 11.2331 20.9776 10.4059 20.4649C9.58435 19.9522 8.92258 19.4564 8.42054 18.9776C7.92421 18.4931 7.56194 17.9719 7.33374 17.4142C7.11125 16.8508 7 16.1888 7 15.4283V9.05644C7 8.62263 7.09413 8.30996 7.2824 8.11841C7.47066 7.92122 7.74165 7.75221 8.09535 7.61137C8.29503 7.53249 8.56887 7.42827 8.91687 7.29869C9.26487 7.16348 9.64711 7.01982 10.0636 6.8677C10.4857 6.70996 10.9051 6.55784 11.3215 6.41137C11.7437 6.25925 12.1288 6.12404 12.4768 6.00573C12.8248 5.88179 13.0986 5.78601 13.2983 5.71841C13.4124 5.6846 13.5265 5.65644 13.6406 5.6339C13.7604 5.61137 13.8802 5.6001 14 5.6001C14.1198 5.6001 14.2396 5.61137 14.3594 5.6339C14.4792 5.65644 14.5962 5.6846 14.7103 5.71841C14.9099 5.78601 15.1809 5.88179 15.5232 6.00573C15.8712 6.12404 16.2535 6.25925 16.6699 6.41137C17.0921 6.56348 17.5114 6.71559 17.9279 6.8677C18.35 7.01982 18.7351 7.16066 19.0831 7.29024C19.4311 7.41982 19.705 7.52686 19.9046 7.61137C20.2641 7.75784 20.535 7.92686 20.7176 8.11841C20.9059 8.30996 21 8.62263 21 9.05644V15.4283C21 16.1888 20.8916 16.8564 20.6748 17.4311C20.458 18.0001 20.1015 18.5325 19.6051 19.0283C19.1145 19.524 18.4556 20.0254 17.6284 20.5325C16.8068 21.0395 15.7857 21.6085 14.5648 22.2395C14.4564 22.2959 14.3509 22.3353 14.2482 22.3578C14.1512 22.386 14.0685 22.4001 14 22.4001ZM10.8166 17.1353C10.8166 17.7719 11.1161 18.0902 11.7152 18.0902H16.2848C16.8896 18.0902 17.1919 17.7719 17.1919 17.1353V13.6705C17.1919 13.0677 16.9324 12.7494 16.4132 12.7156V11.6931C16.4132 10.8874 16.1907 10.2395 15.7457 9.74939C15.3007 9.25925 14.7188 9.01418 14 9.01418C13.2812 9.01418 12.6993 9.25925 12.2543 9.74939C11.8093 10.2395 11.5868 10.8874 11.5868 11.6931V12.7156C11.0733 12.7494 10.8166 13.0677 10.8166 13.6705V17.1353ZM12.511 12.7071V11.5916C12.511 11.0846 12.6479 10.6762 12.9218 10.3663C13.1956 10.0508 13.555 9.89306 14 9.89306C14.4507 9.89306 14.8101 10.0508 15.0782 10.3663C15.3521 10.6762 15.489 11.0846 15.489 11.5916V12.7071H12.511Z" fill="#00D724"/>
</g>
</svg>
