<svg width="28" height="28" viewBox="0 0 28 28" fill="none" xmlns="http://www.w3.org/2000/svg">
<mask id="mask0_1117_25212" style="mask-type:alpha" maskUnits="userSpaceOnUse" x="0" y="0" width="28" height="28">
<rect width="28" height="28" rx="14" fill="#D9D9D9"/>
</mask>
<g mask="url(#mask0_1117_25212)">
<rect width="28" height="28" fill="#00D724" fill-opacity="0.2"/>
<path d="M18.2537 10.2824C17.2397 10.4042 16.2781 10.894 15.2102 11.833C14.9501 12.0608 14.7715 12.2298 14.3472 12.6502C14.045 12.9501 14.0004 12.9881 13.9781 12.9763C13.9636 12.9684 13.8467 12.8545 13.7167 12.7222C12.2139 11.1886 11.2393 10.543 10.1109 10.3361C9.3753 10.2012 8.61212 10.2863 7.91855 10.5796C6.75604 11.0721 5.90485 12.108 5.66709 13.3207C5.61323 13.5918 5.6001 13.7372 5.6001 14.0606C5.6001 14.574 5.67103 15.0023 5.83129 15.4554C6.27527 16.7179 7.33533 17.5862 8.67385 17.7852C9.50666 17.9096 10.4301 17.7512 11.2445 17.3465C11.5637 17.188 11.833 17.0191 12.168 16.769C12.5896 16.4559 12.8983 16.1796 13.5617 15.5248C13.7928 15.2956 13.9912 15.1083 14.0004 15.1083C14.0109 15.1083 14.1015 15.1948 14.2027 15.2995C14.4286 15.534 14.9803 16.0644 15.2141 16.2726C16.2913 17.2299 17.1083 17.6543 18.1381 17.7957C18.2143 17.8062 18.393 17.8114 18.5979 17.8114C18.8777 17.8114 18.9644 17.8062 19.1233 17.7813C19.9771 17.6503 20.7062 17.2849 21.3025 16.6917C21.9028 16.0932 22.2772 15.3231 22.3836 14.4666C22.4086 14.2636 22.4046 13.7293 22.3757 13.5237C22.2733 12.789 22.0145 12.1263 21.6296 11.6156C21.5048 11.4479 21.2434 11.1808 21.0713 11.0459C20.5932 10.6661 19.9719 10.4094 19.2612 10.2994C19.0353 10.2653 18.481 10.2549 18.2537 10.2824ZM9.93751 11.8526C10.3789 11.9456 10.8255 12.1577 11.2642 12.4825C11.4205 12.5978 11.6543 12.789 11.8067 12.9265C11.9985 13.1007 12.9627 14.0397 12.9627 14.0528C12.9627 14.0737 12.122 14.9027 11.9184 15.0848C11.2721 15.6584 10.6744 16.0212 10.1122 16.1835C9.84687 16.2595 9.69056 16.2805 9.37005 16.2805C9.12047 16.2805 9.06136 16.2765 8.93131 16.2503C8.15631 16.0945 7.58884 15.5903 7.34189 14.8399C7.13172 14.1995 7.17113 13.5918 7.46011 13.026C7.79113 12.3765 8.3875 11.9469 9.1231 11.8277C9.20585 11.8146 9.31488 11.8107 9.50797 11.8146C9.73391 11.8186 9.80353 11.8251 9.93751 11.8526ZM18.9526 11.8277C19.3821 11.888 19.7473 12.0517 20.0573 12.3228C20.6339 12.8257 20.9098 13.7149 20.7364 14.519C20.5604 15.3375 19.9285 16.0002 19.122 16.215C18.9276 16.2661 18.7555 16.287 18.5256 16.287C18.1184 16.287 17.7914 16.2058 17.3828 16.0054C16.9533 15.7959 16.5395 15.4934 16.0207 15.0088C15.6949 14.705 15.0447 14.0672 15.0407 14.0475C15.0368 14.0266 15.6529 13.3993 15.9182 13.1557C16.8141 12.3306 17.5221 11.9338 18.2826 11.8277C18.4534 11.8041 18.7844 11.8041 18.9526 11.8277Z" fill="#00D724"/>
</g>
</svg>
