<svg width="28" height="28" viewBox="0 0 28 28" fill="none" xmlns="http://www.w3.org/2000/svg">
<mask id="mask0_1117_22910" style="mask-type:alpha" maskUnits="userSpaceOnUse" x="0" y="0" width="28" height="28">
<rect width="28" height="28" rx="14" fill="#D9D9D9"/>
</mask>
<g mask="url(#mask0_1117_22910)">
<rect width="28" height="28" fill="#BF5AF2" fill-opacity="0.2"/>
<path fill-rule="evenodd" clip-rule="evenodd" d="M17.7042 10.1573C17.7042 7.89812 15.7983 6.06665 13.5424 6.06665C11.2865 6.06665 9.3806 7.89812 9.3806 10.1573C9.3806 12.4166 11.2865 14.248 13.5424 14.248C15.7983 14.248 17.7042 12.4166 17.7042 10.1573ZM20.4129 20.757L19.2407 21.9275C19.2013 21.9669 19.1551 21.9841 19.1021 21.9792C19.0491 21.9743 19.0065 21.9558 18.9745 21.9238L18.357 21.3035C18.3249 21.269 18.3009 21.2333 18.2849 21.1964C18.2688 21.1595 18.2608 21.1176 18.2608 21.0709V17.4265C17.9527 17.3083 17.6852 17.1391 17.4584 16.9188C17.2316 16.6985 17.056 16.4425 16.9315 16.1508C16.807 15.8591 16.7447 15.5483 16.7447 15.2185C16.7447 14.8911 16.8057 14.5852 16.9278 14.3009C17.0498 14.0166 17.2187 13.7667 17.4344 13.5514C17.6501 13.336 17.9003 13.168 18.185 13.0474C18.4697 12.9267 18.7773 12.8664 19.1076 12.8664C19.433 12.8664 19.7387 12.9273 20.0247 13.0492C20.3106 13.171 20.5615 13.3397 20.7772 13.5551C20.9929 13.7704 21.1617 14.0203 21.2838 14.3046C21.4058 14.5889 21.4668 14.8935 21.4668 15.2185C21.4668 15.7231 21.3133 16.1772 21.0064 16.5809C20.6995 16.9846 20.2601 17.2997 19.6882 17.5262L20.6755 18.5194C20.7149 18.5588 20.7353 18.6031 20.7365 18.6524C20.7377 18.7016 20.7198 18.7447 20.6829 18.7816L19.6845 19.7748L20.4129 20.4912C20.4499 20.5306 20.469 20.5749 20.4702 20.6241C20.4715 20.6733 20.4524 20.7176 20.4129 20.757ZM18.6694 14.8493C18.7889 14.9699 18.935 15.0302 19.1076 15.0302C19.2777 15.0302 19.4231 14.9699 19.5439 14.8493C19.6647 14.7286 19.7251 14.5834 19.7251 14.4136C19.7251 14.2412 19.6647 14.0954 19.5439 13.976C19.4231 13.8566 19.2777 13.7969 19.1076 13.7969C18.9325 13.7969 18.7858 13.8566 18.6675 13.976C18.5492 14.0954 18.49 14.2412 18.49 14.4136C18.49 14.5834 18.5498 14.7286 18.6694 14.8493ZM13.581 15.8689C14.4702 15.8689 15.2757 15.925 15.9975 16.0374C16.0368 16.1897 16.0876 16.3388 16.1497 16.4844C16.3184 16.8797 16.5585 17.2295 16.8662 17.5285L16.8945 17.5557C17.0466 17.6997 17.2116 17.8273 17.3889 17.9382L17.4108 17.9517L17.4109 21.0709C17.4109 21.1384 17.4163 21.2055 17.4274 21.2717L7.76132 21.2717C7.70807 21.2717 7.65487 21.2682 7.60207 21.2613C6.92973 21.1734 6.456 20.557 6.54396 19.8847C6.89419 17.2075 9.23986 15.8689 13.581 15.8689Z" fill="#BF5AF2"/>
</g>
</svg>
