<svg width="28" height="28" viewBox="0 0 28 28" fill="none" xmlns="http://www.w3.org/2000/svg">
<mask id="mask0_1117_28625" style="mask-type:alpha" maskUnits="userSpaceOnUse" x="0" y="0" width="28" height="28">
<rect width="28" height="28" rx="14" fill="#D9D9D9"/>
</mask>
<g mask="url(#mask0_1117_28625)">
<rect width="28" height="28" fill="#FFD60A" fill-opacity="0.2"/>
<path d="M15.016 22.4C14.9227 22.4 14.8417 22.3681 14.7729 22.3042C14.7091 22.2453 14.6698 22.1643 14.6551 22.0612C14.5421 21.2559 14.4194 20.5783 14.2868 20.0284C14.1591 19.4834 13.9873 19.0341 13.7712 18.6806C13.5552 18.327 13.2704 18.0447 12.9169 17.8336C12.5683 17.6224 12.1214 17.453 11.5764 17.3254C11.0363 17.1928 10.3685 17.0749 9.57309 16.9718C9.46507 16.962 9.37914 16.9227 9.31531 16.854C9.25148 16.7852 9.21956 16.7018 9.21956 16.6036C9.21956 16.5103 9.25148 16.4293 9.31531 16.3605C9.37914 16.2918 9.46507 16.2525 9.57309 16.2427C10.3685 16.1543 11.0388 16.0487 11.5838 15.926C12.1288 15.8032 12.5781 15.6338 12.9316 15.4178C13.2851 15.2017 13.5699 14.9145 13.786 14.556C14.002 14.1976 14.1739 13.7434 14.3015 13.1935C14.4341 12.6386 14.552 11.9561 14.6551 11.146C14.6698 11.0478 14.7091 10.9692 14.7729 10.9103C14.8417 10.8464 14.9227 10.8145 15.016 10.8145C15.1142 10.8145 15.1952 10.8464 15.259 10.9103C15.3228 10.9692 15.3646 11.0478 15.3842 11.146C15.4873 11.9561 15.6027 12.6386 15.7304 13.1935C15.863 13.7434 16.0348 14.1976 16.246 14.556C16.462 14.9145 16.7468 15.2017 17.1003 15.4178C17.4538 15.6338 17.9031 15.8032 18.4481 15.926C18.9932 16.0487 19.6659 16.1543 20.4662 16.2427C20.5693 16.2525 20.6528 16.2918 20.7166 16.3605C20.7805 16.4293 20.8124 16.5103 20.8124 16.6036C20.8124 16.7018 20.7805 16.7852 20.7166 16.854C20.6528 16.9227 20.5693 16.962 20.4662 16.9718C19.6659 17.0602 18.9932 17.1658 18.4481 17.2885C17.9031 17.4113 17.4538 17.5807 17.1003 17.7967C16.7468 18.0079 16.462 18.2927 16.246 18.6511C16.0348 19.0095 15.863 19.4662 15.7304 20.021C15.6027 20.5759 15.4873 21.2559 15.3842 22.0612C15.3646 22.1643 15.3228 22.2453 15.259 22.3042C15.1952 22.3681 15.1142 22.4 15.016 22.4ZM10.0224 14.2541C9.87506 14.2541 9.79159 14.1731 9.77195 14.011C9.71303 13.52 9.6492 13.1346 9.58045 12.8547C9.51662 12.5748 9.41106 12.3661 9.26375 12.2286C9.12136 12.0863 8.90531 11.9782 8.61561 11.9046C8.33083 11.8309 7.93802 11.7524 7.43718 11.6689C7.27024 11.6443 7.18677 11.5609 7.18677 11.4185C7.18677 11.281 7.26042 11.2 7.40772 11.1754C7.91347 11.0772 8.31119 10.9913 8.60088 10.9176C8.89058 10.8391 9.10908 10.7311 9.25639 10.5936C9.40369 10.4561 9.51171 10.2523 9.58045 9.98226C9.6492 9.7073 9.71303 9.32431 9.77195 8.83329C9.79159 8.67126 9.87506 8.59024 10.0224 8.59024C10.1697 8.59024 10.2531 8.6688 10.2728 8.82593C10.3366 9.32185 10.4004 9.71221 10.4643 9.99699C10.533 10.2818 10.6386 10.4978 10.781 10.6451C10.9283 10.7875 11.1468 10.8931 11.4365 10.9618C11.7262 11.0306 12.1264 11.1018 12.637 11.1754C12.7008 11.1803 12.7524 11.2049 12.7917 11.2491C12.8359 11.2933 12.858 11.3497 12.858 11.4185C12.858 11.556 12.7843 11.6394 12.637 11.6689C12.1264 11.7671 11.7262 11.8555 11.4365 11.934C11.1517 12.0077 10.9356 12.1157 10.7883 12.2581C10.646 12.3956 10.5404 12.6018 10.4716 12.8768C10.4029 13.1518 10.3366 13.5347 10.2728 14.0258C10.263 14.0896 10.236 14.1436 10.1918 14.1878C10.1476 14.232 10.0911 14.2541 10.0224 14.2541ZM13.5871 9.18682C13.4938 9.18682 13.4398 9.13772 13.4251 9.03952C13.3662 8.74 13.3146 8.50432 13.2704 8.33246C13.2311 8.16061 13.1673 8.03049 13.0789 7.94211C12.9954 7.84881 12.8653 7.77516 12.6886 7.72115C12.5118 7.66714 12.2638 7.61313 11.9447 7.55912C11.8465 7.53948 11.7974 7.48301 11.7974 7.38972C11.7974 7.30133 11.8465 7.24732 11.9447 7.22768C12.2638 7.16876 12.5118 7.11475 12.6886 7.06565C12.8653 7.01164 12.9954 6.94044 13.0789 6.85206C13.1673 6.75877 13.2311 6.62619 13.2704 6.45434C13.3146 6.28248 13.3662 6.0468 13.4251 5.74728C13.4398 5.64908 13.4938 5.59998 13.5871 5.59998C13.6755 5.59998 13.7295 5.64908 13.7492 5.74728C13.8032 6.0468 13.8523 6.28248 13.8965 6.45434C13.9406 6.62619 14.0045 6.75877 14.088 6.85206C14.1763 6.94044 14.3089 7.01164 14.4857 7.06565C14.6624 7.11475 14.9104 7.16876 15.2296 7.22768C15.3278 7.24732 15.3769 7.30133 15.3769 7.38972C15.3769 7.48301 15.3278 7.53948 15.2296 7.55912C14.9104 7.61313 14.6624 7.66714 14.4857 7.72115C14.3089 7.77516 14.1763 7.84881 14.088 7.94211C14.0045 8.03049 13.9406 8.16061 13.8965 8.33246C13.8523 8.50432 13.8032 8.74 13.7492 9.03952C13.7295 9.13772 13.6755 9.18682 13.5871 9.18682Z" fill="#FFD60A"/>
</g>
</svg>
