<svg width="28" height="28" viewBox="0 0 28 28" fill="none" xmlns="http://www.w3.org/2000/svg">
<mask id="mask0_1117_25855" style="mask-type:alpha" maskUnits="userSpaceOnUse" x="0" y="0" width="28" height="28">
<rect width="28" height="28" rx="14" fill="#D9D9D9"/>
</mask>
<g mask="url(#mask0_1117_25855)">
<rect width="28" height="28" fill="#40CBE0" fill-opacity="0.2"/>
<path d="M10.8906 18.2359C10.5011 18.2359 10.2271 18.1798 10.0687 18.0676C9.91355 17.9587 9.83598 17.7953 9.83598 17.5774C9.83598 17.2572 9.93171 16.9222 10.1232 16.5723C10.3146 16.2191 10.5919 15.889 10.955 15.582C11.3181 15.2717 11.7555 15.0208 12.2671 14.8294C12.782 14.6346 13.3597 14.5373 14.0001 14.5373C14.6438 14.5373 15.2214 14.6346 15.7331 14.8294C16.248 15.0208 16.6854 15.2717 17.0452 15.582C17.4083 15.889 17.6856 16.2191 17.877 16.5723C18.0718 16.9222 18.1691 17.2572 18.1691 17.5774C18.1691 17.7953 18.0899 17.9587 17.9315 18.0676C17.773 18.1798 17.4991 18.2359 17.1095 18.2359H10.8906ZM14.005 13.651C13.6518 13.651 13.325 13.5552 13.0247 13.3638C12.7243 13.169 12.4817 12.9083 12.2968 12.5815C12.1153 12.2514 12.0245 11.8817 12.0245 11.4724C12.0245 11.0697 12.1153 10.7066 12.2968 10.3831C12.4817 10.0596 12.7243 9.80375 13.0247 9.6156C13.325 9.42745 13.6518 9.33337 14.005 9.33337C14.3582 9.33337 14.685 9.4258 14.9854 9.61065C15.2858 9.7955 15.5268 10.0497 15.7083 10.3732C15.8932 10.6934 15.9856 11.0565 15.9856 11.4625C15.9856 11.8751 15.8932 12.2464 15.7083 12.5765C15.5268 12.9066 15.2858 13.169 14.9854 13.3638C14.685 13.5552 14.3582 13.651 14.005 13.651ZM5.53819 18.2359C5.2246 18.2359 5.00014 18.1749 4.8648 18.0527C4.73277 17.9339 4.66675 17.7623 4.66675 17.5378C4.66675 17.1978 4.75092 16.8512 4.91927 16.498C5.08761 16.1415 5.32858 15.8147 5.64217 15.5176C5.95906 15.2206 6.34031 14.9812 6.78593 14.7997C7.23486 14.6148 7.73825 14.5224 8.2961 14.5224C8.75823 14.5224 9.16754 14.5835 9.52404 14.7056C9.88384 14.8244 10.2024 14.9763 10.4797 15.1611C10.2123 15.3691 9.97627 15.6101 9.77161 15.884C9.57026 16.1547 9.41181 16.4353 9.29628 16.7258C9.18075 17.0163 9.11968 17.2935 9.11308 17.5576C9.10648 17.8217 9.16754 18.0478 9.29628 18.2359H5.53819ZM8.2961 13.7649C7.98912 13.7649 7.70359 13.6807 7.43952 13.5123C7.17874 13.344 6.96914 13.1162 6.81069 12.829C6.65225 12.5419 6.57303 12.2217 6.57303 11.8685C6.56972 11.5153 6.64895 11.1984 6.81069 10.9178C6.97244 10.6372 7.18369 10.4161 7.44447 10.2543C7.70854 10.0893 7.99242 10.0068 8.2961 10.0068C8.60309 10.0068 8.88697 10.0876 9.14774 10.2494C9.41181 10.4078 9.62307 10.6273 9.78151 10.9079C9.93996 11.1852 10.0192 11.5021 10.0192 11.8586C10.0192 12.2151 9.93996 12.5386 9.78151 12.829C9.62307 13.1162 9.41346 13.344 9.15269 13.5123C8.89192 13.6807 8.60639 13.7649 8.2961 13.7649ZM22.462 18.2359H18.6989C18.8277 18.0478 18.8887 17.8217 18.8821 17.5576C18.8788 17.2935 18.8194 17.0163 18.7039 16.7258C18.5884 16.4353 18.4283 16.1547 18.2236 15.884C18.0222 15.6101 17.7879 15.3691 17.5205 15.1611C17.7945 14.9763 18.1114 14.8244 18.4712 14.7056C18.831 14.5835 19.2419 14.5224 19.7041 14.5224C20.2619 14.5224 20.7637 14.6148 21.2093 14.7997C21.6582 14.9812 22.0395 15.2206 22.353 15.5176C22.6699 15.8147 22.9125 16.1415 23.0809 16.498C23.2492 16.8512 23.3334 17.1978 23.3334 17.5378C23.3334 17.7623 23.2657 17.9339 23.1304 18.0527C22.9984 18.1749 22.7756 18.2359 22.462 18.2359ZM19.6991 13.7649C19.3921 13.7649 19.1082 13.6807 18.8475 13.5123C18.5867 13.344 18.3754 13.1162 18.2137 12.829C18.0553 12.5386 17.976 12.2151 17.976 11.8586C17.976 11.5021 18.0553 11.1852 18.2137 10.9079C18.3754 10.6273 18.5867 10.4078 18.8475 10.2494C19.1115 10.0876 19.3954 10.0068 19.6991 10.0068C20.0061 10.0068 20.29 10.0893 20.5507 10.2543C20.8148 10.4161 21.0261 10.6372 21.1845 10.9178C21.3463 11.1984 21.4271 11.5153 21.4271 11.8685C21.4271 12.2217 21.3463 12.5419 21.1845 12.829C21.0261 13.1162 20.8165 13.344 20.5557 13.5123C20.2949 13.6807 20.0094 13.7649 19.6991 13.7649Z" fill="#40CBE0"/>
</g>
</svg>
