<svg width="28" height="28" viewBox="0 0 28 28" fill="none" xmlns="http://www.w3.org/2000/svg">
<mask id="mask0_1117_22910" style="mask-type:alpha" maskUnits="userSpaceOnUse" x="0" y="0" width="28" height="28">
<rect width="28" height="28" rx="14" fill="#D9D9D9"/>
</mask>
<g mask="url(#mask0_1117_22910)">
<rect width="28" height="28" fill="#00BD30" fill-opacity="0.2"/>
<g clip-path="url(#clip0_1117_22910)">
<path fill-rule="evenodd" clip-rule="evenodd" d="M7.51753 13.6938C7.565 13.6463 7.62138 13.6086 7.68344 13.5828C7.7455 13.5571 7.81203 13.5439 7.87921 13.5439C7.9464 13.5439 8.01292 13.5571 8.07498 13.5828C8.13704 13.6086 8.19342 13.6463 8.2409 13.6938L11.5841 17.037L19.7129 8.90899C19.7604 8.86145 19.8168 8.82374 19.8788 8.79801C19.9409 8.77228 20.0074 8.75903 20.0746 8.75903C20.1418 8.75903 20.2083 8.77228 20.2704 8.79801C20.3324 8.82374 20.3888 8.86145 20.4363 8.90899L20.7714 9.24499C20.8672 9.34083 20.921 9.47077 20.921 9.60625C20.921 9.74173 20.8672 9.87167 20.7714 9.96752L11.9672 18.7709C11.8714 18.8666 11.7414 18.9204 11.6059 18.9204C11.4705 18.9204 11.3405 18.8666 11.2447 18.7709L7.20342 14.7305C7.15589 14.683 7.11817 14.6266 7.09244 14.5645C7.06671 14.5025 7.05347 14.436 7.05347 14.3688C7.05347 14.3016 7.06671 14.2351 7.09244 14.173C7.11817 14.1109 7.15589 14.0546 7.20342 14.0071L7.51753 13.6938Z" fill="#00BD30" stroke="#00BD30"/>
</g>
</g>
<defs>
<clipPath id="clip0_1117_22910">
<rect width="16" height="11.7895" fill="white" transform="translate(6 8.20996)"/>
</clipPath>
</defs>
</svg>
