<svg width="28" height="28" viewBox="0 0 28 28" fill="none" xmlns="http://www.w3.org/2000/svg">
<mask id="mask0_1117_27959" style="mask-type:alpha" maskUnits="userSpaceOnUse" x="0" y="0" width="28" height="28">
<rect width="28" height="28" rx="14" fill="#D9D9D9"/>
</mask>
<g mask="url(#mask0_1117_27959)">
<rect width="28" height="28" fill="#0A84FF" fill-opacity="0.2"/>
<path d="M9.14085 21.228C8.88626 21.228 8.72385 21.1446 8.65361 20.9778C8.58777 20.8154 8.6185 20.6508 8.74579 20.484C8.82919 20.3742 8.94771 20.2272 9.10135 20.0428C9.25937 19.8628 9.42179 19.6653 9.58859 19.4502C9.7554 19.2351 9.90025 19.0266 10.0232 18.8247C10.0495 18.7764 10.0539 18.7303 10.0363 18.6864C10.0232 18.6381 9.99243 18.6008 9.94415 18.5745C9.24182 18.197 8.63386 17.7471 8.12028 17.2247C7.61109 16.6979 7.21822 16.1185 6.94168 15.4864C6.66952 14.8543 6.53345 14.1871 6.53345 13.4848C6.53345 12.6552 6.72439 11.8782 7.10629 11.1539C7.49257 10.4296 8.0259 9.79534 8.70629 9.25104C9.39106 8.70234 10.1856 8.27436 11.0898 7.96709C11.9941 7.65543 12.9642 7.4996 14.0001 7.4996C14.461 7.4996 14.911 7.53252 15.3499 7.59836C15.7889 7.66421 16.2125 7.75858 16.6207 7.88149C16.4232 8.14486 16.2695 8.43458 16.1598 8.75063C16.0544 9.06667 16.0018 9.39809 16.0018 9.74486C16.0018 10.3287 16.1444 10.862 16.4297 11.3449C16.7195 11.8277 17.1057 12.214 17.5886 12.5037C18.0714 12.789 18.6048 12.9317 19.1886 12.9317C19.5837 12.9317 19.959 12.8615 20.3145 12.721C20.6701 12.5805 20.9883 12.3874 21.2693 12.1416C21.4009 12.5893 21.4668 13.037 21.4668 13.4848C21.4668 14.1388 21.3461 14.7643 21.1046 15.3613C20.8632 15.9583 20.5142 16.507 20.0577 17.0074C19.6012 17.5034 19.0481 17.9358 18.3985 18.3045C17.7532 18.6733 17.0245 18.9586 16.2125 19.1605C15.4004 19.3624 14.5203 19.4634 13.5721 19.4634C13.5326 19.4634 13.4909 19.4612 13.447 19.4568C13.4031 19.4568 13.3592 19.4546 13.3153 19.4502C13.2714 19.4502 13.2254 19.459 13.1771 19.4766C13.1288 19.4941 13.0761 19.5226 13.019 19.5621C12.7381 19.7641 12.4155 19.9616 12.0511 20.1547C11.6912 20.3523 11.3247 20.5322 10.9516 20.6947C10.5828 20.8571 10.2382 20.9866 9.91781 21.0831C9.59737 21.1797 9.33839 21.228 9.14085 21.228ZM19.1886 12.0362C18.7672 12.0362 18.3831 11.9331 18.0363 11.7268C17.6939 11.5204 17.4196 11.2439 17.2133 10.8971C17.007 10.5504 16.9038 10.1685 16.9038 9.75145C16.9038 9.33444 17.007 8.95255 17.2133 8.60577C17.4196 8.25899 17.6939 7.98245 18.0363 7.77614C18.3831 7.56983 18.7672 7.46667 19.1886 7.46667C19.6012 7.46667 19.9809 7.56983 20.3277 7.77614C20.6745 7.98245 20.951 8.25899 21.1573 8.60577C21.3636 8.95255 21.4668 9.33444 21.4668 9.75145C21.4668 10.1685 21.3636 10.5504 21.1573 10.8971C20.951 11.2439 20.6745 11.5204 20.3277 11.7268C19.9809 11.9331 19.6012 12.0362 19.1886 12.0362Z" fill="#0A84FF"/>
</g>
</svg>
