<svg width="28" height="28" viewBox="0 0 28 28" fill="none" xmlns="http://www.w3.org/2000/svg">
<mask id="mask0_1117_22577" style="mask-type:alpha" maskUnits="userSpaceOnUse" x="0" y="0" width="28" height="28">
<rect width="28" height="28" rx="14" fill="#D9D9D9"/>
</mask>
<g mask="url(#mask0_1117_22577)">
<rect width="28" height="28" fill="#0A84FF" fill-opacity="0.2"/>
<path d="M14.0439 20.8036C14.79 20.8036 15.513 20.6844 16.2129 20.4459C16.9205 20.1998 17.532 19.8652 18.0473 19.4422C18.3319 19.2115 18.5049 18.9538 18.5665 18.6692C18.628 18.3846 18.5511 18.1347 18.3357 17.9193C18.1281 17.6962 17.8973 17.5924 17.6435 17.6078C17.3897 17.6232 17.1436 17.7193 16.9051 17.8962C16.4821 18.227 16.0437 18.4808 15.5899 18.6577C15.1361 18.8346 14.6208 18.923 14.0439 18.923C13.2594 18.923 12.5287 18.7615 11.8519 18.4385C11.1827 18.1154 10.6136 17.677 10.1444 17.1232C9.6829 16.5618 9.36371 15.9272 9.18681 15.2196H10.4444C10.7212 15.2196 10.8905 15.1158 10.952 14.9081C11.0135 14.6928 10.9674 14.4774 10.8135 14.262L8.88684 11.5854C8.72532 11.3624 8.52535 11.247 8.28691 11.2393C8.04848 11.2316 7.84466 11.347 7.67545 11.5854L5.76029 14.262C5.61415 14.4774 5.568 14.6928 5.62184 14.9081C5.68337 15.1158 5.85258 15.2196 6.12947 15.2196H7.38702C7.5793 16.3272 7.98695 17.3001 8.60995 18.1385C9.23296 18.9769 10.0098 19.6306 10.9404 20.0998C11.8788 20.569 12.9133 20.8036 14.0439 20.8036ZM14.0209 7.46667C13.2825 7.46667 12.5595 7.58974 11.8519 7.83586C11.1443 8.0743 10.5328 8.40887 10.0175 8.83959C9.7329 9.06264 9.55984 9.31646 9.49831 9.60104C9.44447 9.88562 9.52138 10.1356 9.72905 10.351C9.93672 10.574 10.1675 10.6778 10.4213 10.6625C10.6828 10.6471 10.9289 10.5509 11.1597 10.374C11.5904 10.0433 12.0288 9.79333 12.4749 9.62411C12.9287 9.44721 13.444 9.35876 14.0209 9.35876C14.8131 9.35876 15.5438 9.52028 16.2129 9.84332C16.8821 10.1664 17.4474 10.6086 17.9089 11.1701C18.378 11.7239 18.7011 12.3507 18.878 13.0506H17.5628C17.2782 13.0506 17.1051 13.1583 17.0436 13.3737C16.982 13.589 17.0282 13.8005 17.182 14.0082L19.1203 16.6964C19.2741 16.9117 19.4702 17.0232 19.7087 17.0309C19.9548 17.0386 20.1624 16.9271 20.3317 16.6964L22.2353 14.0082C22.3891 13.7929 22.4353 13.5813 22.3737 13.3737C22.3199 13.1583 22.1507 13.0506 21.8661 13.0506H20.6778C20.4855 11.9508 20.0778 10.9816 19.4548 10.1433C18.8318 9.30492 18.0512 8.65115 17.1128 8.18198C16.1821 7.70511 15.1515 7.46667 14.0209 7.46667Z" fill="#0A84FF"/>
</g>
</svg>
