<svg viewBox="0 0 90 90" xmlns="http://www.w3.org/2000/svg"><g fill="none"><path d="M84.438 14.449H69.452l-.513 1.537-.384 1.025c-.769 2.433-.769 2.433-5.124 3.33l-1.537.384-.384 2.05c-1.41-3.843-9.479-7.942-9.479-7.942l.129.128c-2.306-1.152-4.868-1.665-7.43-1.665-3.33 0-6.66.897-9.606 2.562-1.794 1.025-3.203 2.434-4.483 3.971l-4.1-5.38v-.128l-14.858.129-.513 1.409-.384 1.152c-.768 2.434-.768 2.434-5.124 3.33l-1.537.385-2.177 13.066 4.098 4.098-4.611 31.64-.384 2.433 4.483 4.996h16.012l1.92-12.553c.385.896.77 1.92 1.282 2.69.256.384.512.768.768 1.025 0 .128.128.256.128.256 1.794 2.05 3.715 3.97 5.637 5.764 1.28.768 2.562 1.409 3.97 1.793 1.41.513 2.819.769 4.356.897 2.946.128 5.764-.128 8.71-.897 4.483-1.152 8.07-4.355 9.736-8.71 1.025-2.306 2.177-10.12 2.177-10.12l2.306-15.37.513-3.843.896.897-4.867 32.92 5.124 5.123h16.14l8.326-56.489-4.23-5.893Z" fill="#92864F"/><path d="m13.987 17.652-.256.384c-1.152 3.458-1.665 4.099-6.789 5.38L5.79 30.717h4.74L4.764 68.76h10.248l7.813-51.237-8.839.129Z" fill="#FECD27"/><path d="M16.678 70.554H2.715l5.637-38.172h-4.74L5.406 21.75l.64-.128c4.995-1.153 5.124-1.28 6.148-4.227l.384-1.153.256-.64H25.26l-8.581 54.952ZM4.765 68.76h10.247l7.814-51.237-8.967.129-.128.384c-1.153 3.458-1.665 4.099-6.79 5.38L5.79 30.717h4.74L4.765 68.76Zm32.792 2.69a17.238 17.238 0 0 1-7.174-1.153c-1.92-.768-3.458-2.05-4.355-3.843-.897-1.665-1.537-3.33-1.794-5.251-.128-2.818 0-5.636.513-8.454l2.69-18.446c.513-3.842 1.41-7.557 2.818-11.143 1.153-2.562 3.202-4.868 5.636-6.277 2.69-1.537 5.764-2.433 8.839-2.305 2.433 0 4.867.512 7.173 1.665a10.332 10.332 0 0 1 4.355 4.099c.897 1.665 1.41 3.458 1.41 5.38 0 2.946-.256 6.02-.769 8.966l-2.562 17.677a53.248 53.248 0 0 1-1.92 8.967c-.77 2.05-1.922 3.843-3.331 5.38-1.41 1.665-3.202 2.817-5.252 3.714a14.42 14.42 0 0 1-6.277 1.024Zm7.301-54.952c-2.818 0-5.508.64-7.942 2.05-2.177 1.28-3.842 3.202-4.995 5.38a39.32 39.32 0 0 0-2.69 10.631l-2.69 18.574c-.513 2.562-.64 5.251-.513 7.942a13.99 13.99 0 0 0 1.537 4.611c.768 1.41 2.05 2.434 3.458 3.074 2.05.769 4.356 1.153 6.533 1.025 1.921 0 3.843-.384 5.636-1.025 1.794-.64 3.33-1.793 4.612-3.202a14.588 14.588 0 0 0 2.946-4.867c.896-2.818 1.537-5.636 1.793-8.582l2.562-17.677c.513-2.818.769-5.637.897-8.583 0-1.537-.513-3.202-1.153-4.483a9.915 9.915 0 0 0-3.586-3.33c-2.05-1.025-4.228-1.538-6.405-1.538Z" fill="#FFF"/><path d="M56.002 25.85c0-1.538-.513-3.203-1.153-4.484a9.915 9.915 0 0 0-3.586-3.33c-1.921-1.025-4.099-1.41-6.277-1.41-2.817 0-5.508.64-7.941 2.05-2.178 1.281-3.843 3.202-4.996 5.38a39.32 39.32 0 0 0-2.69 10.632L26.54 53.133c-.512 2.562-.64 5.251-.512 7.942a13.99 13.99 0 0 0 1.536 4.611c.769 1.41 2.05 2.434 3.46 3.074 2.049.769 4.354 1.153 6.532 1.025 1.92 0 3.842-.384 5.636-1.025 1.793-.64 3.33-1.793 4.611-3.202a14.588 14.588 0 0 0 2.946-4.867c.897-2.818 1.537-5.636 1.794-8.582l2.562-17.677c.64-2.819.896-5.765.896-8.583Zm-9.223-.897a38.07 38.07 0 0 1-.768 5.508l-4.227 26.258c-.256 1.794-.64 3.587-1.025 5.252-.769 2.306-2.178 2.69-2.946 2.69-.769 0-1.41-.256-1.922-.768-.64-.64-.896-1.537-.896-2.434.128-1.921.384-3.971.768-5.892L39.99 29.82c.256-1.794.64-3.715 1.025-5.508.769-2.434 2.178-2.69 2.946-2.69.769 0 1.41.255 1.921.768.769.641 1.025 1.538.897 2.563Z" fill="#FECD27"/><path d="M46.01 22.263c-.512-.513-1.152-.769-1.92-.769-.769 0-2.306.385-2.947 2.69-.512 1.794-.768 3.715-1.025 5.509l-4.227 25.874a46.422 46.422 0 0 0-.768 5.892c0 .897.256 1.794.897 2.434.512.513 1.152.769 1.92.769.77 0 2.307-.385 2.947-2.69.512-1.666.768-3.46 1.025-5.252l4.227-26.259c.384-1.793.64-3.714.768-5.508 0-1.025-.256-1.922-.896-2.69Zm-1.793 7.942L39.99 56.463c-.384 2.562-.768 4.227-1.025 4.996-.128.384-.384 1.41-1.28 1.41-.257 0-.385-.13-.64-.257-.13-.256-.257-.768-.257-1.153.128-1.92.384-3.714.769-5.636l4.227-25.874c.256-1.794.64-3.587 1.025-5.252.128-.384.384-1.41 1.28-1.41.257 0 .385.13.64.257.257.384.385.768.257 1.28 0 .77-.256 2.562-.769 5.38Z" fill="#FFF"/><path d="m71.757 17.652-.128.512c-1.153 3.459-1.794 4.099-6.79 5.38l-1.152 7.301h4.74L62.663 68.89H72.91l7.814-51.237h-8.967Z" fill="#FECD27"/><path d="M74.447 70.554H60.485l5.764-38.172h-4.867l1.793-10.632.64-.128c4.996-1.153 5.124-1.28 6.148-4.227l.385-1.153.256-.64h12.424l-8.58 54.952ZM62.663 68.76H72.91l7.814-51.237-8.967.129-.128.512c-1.153 3.459-1.666 4.099-6.79 5.38l-1.152 7.301h4.74L62.663 68.76Z" fill="#FFF"/></g></svg>