<svg viewBox="0 0 90 90" xmlns="http://www.w3.org/2000/svg"><g fill="none"><path d="M90.136 50.568c.013 6.26-5.005 11.362-11.249 11.439l-20.623.01v-3.931a3.755 3.755 0 0 1 3.749-3.758h16.874a3.754 3.754 0 0 0 3.73-3.414 3.758 3.758 0 0 0-3.043-4.041l5.632-5.645a11.274 11.274 0 0 1 4.936 9.335" fill="#0372F2"/><path d="M83.003 28.017a4.505 4.505 0 0 1 4.167 2.787 4.524 4.524 0 0 1-.98 4.925L75.136 46.81H64.637l11.25-11.276h-19.5v-7.517h26.616Z" fill="#068FF6"/><path fill="#FF9C00" d="M19.225 54.471h33.79v7.516h-33.79z"/><path d="M53.017 39.292c-.008 6.23-5.049 11.276-11.263 11.276H19.227V46.81a3.757 3.757 0 0 1 3.754-3.758h18.773a3.754 3.754 0 0 0 3.75-3.759 3.754 3.754 0 0 0-3.75-3.759H19.227v-7.517h22.527c6.214 0 11.255 5.046 11.263 11.275" fill="#FFAD00"/><path fill="#01A063" d="m5.766 43.426 7.498-3.758v22.178H5.766z"/><path d="M13.266 28.017v7.517L.142 42.112v-5.194c0-1.424.801-2.725 2.071-3.363l11.053-5.538Z" fill="#02B880"/></g></svg>