<svg viewBox="0 0 90 90" xmlns="http://www.w3.org/2000/svg"><g fill="none"><path fill="#0F5AA4" d="M0 0h90v90H0z"/><path d="M64.961 53.906h4.224l.002 11.55.01.849.016.746.025.643.02.37.024.325.027.278.03.23.034.184.018.074c.286 1.088 1.138 1.73 2.608 1.938.417.054.906.081 1.467.081 1.055 0 1.937-.14 2.646-.42.711-.28 1.238-.596 1.58-.943.334-.337.593-.88.769-1.632.183-.781.288-1.423.315-1.921l.016-.34.016-.63.01-.778V53.906H83v20.76h-3.924v-1.642l-.162.142c-1.319 1.098-3.046 1.702-5.173 1.815l-.38.014-.367.005c-1.107 0-2.086-.1-2.937-.3-.848-.2-1.553-.436-2.116-.71-.585-.285-1.084-.719-1.495-1.297-.394-.555-.687-1.034-.88-1.44-.201-.42-.343-1.024-.432-1.817l-.082-.796-.038-.449a17.96 17.96 0 0 1-.014-.2l-.017-.352-.018-.896-.003-.467v-12.37Zm-46.283-7.652v24.67h6.821v3.742H7.718v-3.743h6.778V51.63l-4.763 4.326L7 53.148l7.887-6.828.177-.066h3.614ZM58.699 45v29.666h-4.181V45h4.181Zm-25.437.522.001 11.2.627-.67.17-.167c1.28-1.188 3.288-1.79 6.034-1.79 1.769 0 3.214.237 4.335.71 1.103.464 1.907 1.181 2.421 2.158a9.937 9.937 0 0 1 1.046 3.118c.17 1.086.254 2.503.254 4.247 0 .277-.001.544-.005.8l-.016.739-.026.676a24.75 24.75 0 0 1-.059.899c-.07.815-.266 1.716-.589 2.701-.317.967-.76 1.733-1.33 2.301-.57.57-1.396 1.052-2.477 1.443-1.083.393-2.396.59-3.94.59-2.819 0-4.906-.74-6.28-2.214l-.465-.498v2.377H30.15v-28.62h3.112Zm6.403 11.917c-2.333 0-3.892.46-4.69 1.353-.804.902-1.22 2.736-1.22 5.494 0 2.758.423 4.606 1.243 5.536.812.921 2.364 1.394 4.667 1.394 1.976 0 3.247-.495 3.846-1.46.628-1.038.95-2.865.95-5.47 0-2.604-.322-4.41-.947-5.403-.601-.955-1.873-1.444-3.849-1.444Z" fill="#B4D700"/></g></svg>