<svg viewBox="0 0 90 90" xmlns="http://www.w3.org/2000/svg"><g fill="none"><path d="M52.07 41c.804-3.279-1.157-5.993-5.962-5.993H35.694l-3.902 16.04 2.265 3.946h7.408c4.854 0 8.615-2.299 9.582-6.294.486-2.048-.078-3.48-1.348-4.197v-.05a5.571 5.571 0 0 0 2.37-3.451Zm-6.35 7.57c-.198.837-.755 1.697-3.062 1.697H37.93l.826-3.437h4.706c2.279-.008 2.448.873 2.23 1.74h.028Zm.945-7.462c-.17.645-.656 1.432-2.646 1.432h-4.233l.706-2.792h4.233c2.01-.015 2.11.644 1.94 1.36Zm11.959 6.144h9.483l1.08-4.726h-9.42l.734-2.793h9.327l1.08-4.726h-15.31l-4.855 19.979h17.343l1.136-4.726H57.926zm13.61-12.245-1.086 4.726h5.665l-3.718 15.253h5.948l3.725-15.253h6.068L90 35.007z" fill="#14A0FF"/><path fill="#FFF" d="M6.223 54.986H.226l2.596-10.67.6-1.611-1.588 1.611-1.763 1.812L0 40.8l6.223-5.793h4.847z"/><path d="m27.876 46.708-1.912-3.287 9.278-8.414H26.6l-3.528 3.437L11.105 49.58l-5.743 5.407h8.178l6.145-5.564 2.067 3.58c.706.902 1.7 1.998 5.92 1.998h4.939l-4.728-8.3-.007.008Zm-5.468-9.366v-.043a5.397 5.397 0 0 0-4.685-2.292h-6.385l4.763 8.22 6.307-5.885Z" fill="#FFF"/></g></svg>