<svg viewBox="0 0 90 90" xmlns="http://www.w3.org/2000/svg" xmlns:xlink="http://www.w3.org/1999/xlink"><defs><path id="a" d="M0 0h21.145v28.593H0z"/></defs><g fill="none" fill-rule="evenodd"><path fill="#7B7B7B" fill-rule="nonzero" d="M7.794 33.401 0 38.62l2.576 4.542 3.897-2.372v15.89h6.574V33.4zm59.972 23.28h6.54v-17.52h-6.54zm3.321-26.093c-1.898 0-3.389 1.559-3.389 3.322 0 1.83 1.491 3.388 3.389 3.388 1.83 0 3.321-1.559 3.321-3.388 0-1.763-1.491-3.322-3.321-3.322m15.655 21.078c-.881 0-1.491-.746-1.491-1.796v-5.557h3.456V39.16h-3.456v-4.81h-6.236v4.81h-2.202v5.152h2.202v6.845c0 3.49 2.44 5.93 5.93 5.93 1.56 0 3.423-.746 4.507-1.796l-1.118-4.134c-.339.305-.982.508-1.592.508"/><g transform="translate(43.842 30.787)"><mask id="b" fill="#fff"><use xlink:href="#a"/></mask><path d="M11.928 20.371H6.54v-3.727h5.388c1.423 0 2.44.779 2.44 1.864 0 1.084-1.017 1.863-2.44 1.863ZM6.54 8.138h4.406c1.355 0 2.338.746 2.338 1.762 0 1.017-.983 1.762-2.338 1.762H6.54V8.138Zm10.302 5.557c2.033-.983 3.22-2.947 3.22-5.219 0-3.279-2.89-5.701-7.1-5.854V0H5.986v2.614H0v23.28h5.986v2.7h6.976v-2.7h.05c4.745 0 8.133-2.541 8.133-6.269 0-2.575-1.592-4.777-4.303-5.93Z" fill="#7B7B7B" fill-rule="nonzero" mask="url(#b)"/></g><path fill="#E07631" fill-rule="nonzero" d="m34.703 33.401-6.284 6.284-6.283-6.284-5.357 5.356 6.284 6.284-6.284 6.284 5.357 5.356 6.283-6.283 6.284 6.283 5.356-5.356-6.283-6.284 6.283-6.284z"/></g></svg>