<svg xmlns="http://www.w3.org/2000/svg" viewBox="0 0 250 59"><path d="M19.818 17.39c8.09 1.295 14.27 8.307 14.27 16.762 0 4.749-.021 16.951-.021 16.951s-12.326.025-16.952.025C7.742 51.128.143 43.527.143 34.152c0-8.714 6.261-15.895 15.17-16.864.215-4.784 3.708-9.506 9.968-10.277.642 3.934-1.98 9.05-5.463 10.38zm6.283 25.746l.006-8.982c0-4.967-4.026-8.995-8.992-8.995-4.966 0-8.992 4.028-8.992 8.995 0 4.965 4.026 8.993 8.992 8.993 2.423 0 8.986-.011 8.986-.011zM54.442 19.64l9.125 23.36h-3.435l-2.552-7.034H47.7l-2.616 7.034h-3.206l9.13-23.36h3.434zm-5.76 13.709h7.917l-3.893-10.895h-.066L48.682 33.35zm56.887-11.893l-.002-.001c1.224 1.212 1.833 2.907 1.833 5.09 0 2.18-.61 3.882-1.831 5.103-1.222 1.221-2.999 1.821-5.333 1.799h-7.131v9.555h-3.108v-23.36h10.24c2.332 0 4.11.605 5.332 1.814zm-2.5 8.294h.002c.818-.742 1.224-1.81 1.224-3.206s-.408-2.46-1.226-3.19c-.818-.731-2.11-1.097-3.877-1.097h-6.085v8.572h6.085c1.766.022 3.059-.337 3.877-1.08zm-20.17-8.294l-.002-.001c1.224 1.212 1.833 2.907 1.833 5.09 0 2.18-.61 3.882-1.831 5.103-1.222 1.221-3 1.821-5.333 1.799h-7.131v9.555h-3.108v-23.36h10.24c2.332 0 4.11.605 5.332 1.814zm-2.5 8.294h.002c.819-.742 1.225-1.81 1.225-3.206s-.41-2.46-1.227-3.19c-.818-.731-2.11-1.097-3.876-1.097h-6.085v8.572h6.085c1.766.022 3.058-.337 3.876-1.08zM112.669 43l-.001-23.36h3.107v20.743h12.366V43h-15.473zm19.661 0v-23.36h16.127v2.617h-13.02v7.427h12.137v2.618h-12.136v8.08h13.117v2.618H132.33zm36.035-16.765c-.043-1.001-.255-1.873-.637-2.613a5.47 5.47 0 00-1.551-1.862c-.653-.501-1.432-.877-2.335-1.127-.904-.25-1.89-.376-2.956-.376-.654 0-1.356.076-2.107.229a6.662 6.662 0 00-2.09.8 4.743 4.743 0 00-1.585 1.535c-.414.643-.62 1.443-.62 2.402 0 .936.228 1.699.685 2.287.458.588 1.057 1.061 1.797 1.42.74.36 1.59.649 2.548.867.958.217 1.927.424 2.907.62 1.001.196 1.976.43 2.923.703a10.02 10.02 0 012.548 1.11 5.494 5.494 0 011.813 1.83c.457.751.686 1.693.686 2.826 0 1.22-.262 2.243-.784 3.07a6.622 6.622 0 01-1.977 2.026 8.2 8.2 0 01-2.645 1.128c-.97.228-1.9.343-2.793.343a16.13 16.13 0 01-3.854-.441c-1.198-.294-2.243-.774-3.136-1.438a6.945 6.945 0 01-2.107-2.565c-.511-1.045-.756-2.32-.735-3.822h1.438c-.066 1.285.12 2.369.555 3.25a5.87 5.87 0 001.813 2.173c.773.567 1.682.975 2.727 1.225 1.045.25 2.145.376 3.299.376.697 0 1.443-.087 2.237-.261a6.897 6.897 0 002.189-.882 5.414 5.414 0 001.666-1.634c.446-.675.67-1.524.67-2.548 0-.98-.23-1.78-.687-2.401-.457-.621-1.061-1.122-1.812-1.503a11.67 11.67 0 00-2.548-.915 68.576 68.576 0 00-2.923-.637 43.366 43.366 0 01-2.908-.686c-.958-.261-1.807-.615-2.547-1.062a5.467 5.467 0 01-1.797-1.731c-.457-.708-.686-1.618-.686-2.728 0-1.111.234-2.064.703-2.859a5.746 5.746 0 011.829-1.927 8.118 8.118 0 012.531-1.079 11.67 11.67 0 012.777-.343c1.219 0 2.357.137 3.413.409 1.056.272 1.981.697 2.776 1.274a6.369 6.369 0 011.911 2.238c.48.915.751 2.014.817 3.3h-1.438zm5.976-6.664h14.633v1.241h-13.196v9.344h11.89v1.241h-11.89v11.5h-1.437V19.572zm17.407 0h15.679v1.241h-14.242v9.344h13.392v1.241h-13.392v10.259h14.405v1.241h-15.842V19.572zm18.91 0h9.734c1.023 0 1.982.103 2.874.31.893.207 1.677.545 2.352 1.013a4.835 4.835 0 011.584 1.846c.381.762.572 1.71.572 2.842 0 1.568-.441 2.891-1.323 3.97-.882 1.078-2.107 1.747-3.675 2.009v.065c1.067.13 1.911.414 2.532.85.62.435 1.083.969 1.388 1.6.305.632.5 1.329.588 2.091.087.762.13 1.525.13 2.287v1.34c0 .435.022.844.066 1.225.043.38.114.735.212 1.061.098.327.234.6.408.817h-1.6c-.305-.544-.474-1.181-.506-1.911a50.812 50.812 0 01-.05-2.27c0-.785-.032-1.563-.097-2.336-.066-.774-.272-1.465-.62-2.075-.35-.61-.9-1.1-1.65-1.47-.752-.37-1.813-.556-3.185-.556h-8.297v10.618h-1.437V19.572zm9.734 11.467c.85 0 1.639-.103 2.368-.31.73-.207 1.356-.529 1.878-.964a4.586 4.586 0 001.241-1.666c.305-.676.458-1.481.458-2.418 0-.871-.164-1.617-.49-2.238a4.317 4.317 0 00-1.307-1.519 5.369 5.369 0 00-1.894-.85 9.533 9.533 0 00-2.254-.26h-8.297v10.225h8.297zm18.387-11.467h1.568l9.211 23.326h-1.535l-2.94-7.481h-11.17l-2.973 7.481h-1.535l9.374-23.326zm5.847 14.603l-4.997-13.198h-.066l-5.193 13.198h10.256z"/></svg>