<svg xmlns="http://www.w3.org/2000/svg" viewBox="0 0 120 40"><path d="M7.92725024,4.15614588 C11.1630911,4.67398852 13.6352735,7.47871565 13.6350197,10.8609389 C13.6350197,12.7602029 13.6266447,17.6413776 13.6266447,17.6413776 C13.6266447,17.6413776 8.69649209,17.6512775 6.84609867,17.6512775 C3.09683769,17.6512775 0.0571775846,14.6107289 0.0571775846,10.8609389 C0.0571775846,7.37514715 2.56159154,4.50289735 6.12533096,4.11502306 C6.21111246,2.20179755 7.6082344,0.312941117 10.1123945,0.00426631838 C10.3692315,1.57810183 9.32005767,3.62408792 7.92725024,4.15614588 Z M10.4405469,14.4543607 C10.4405469,14.4543607 10.4425772,11.8786012 10.442831,10.8614466 C10.442831,8.87460623 8.83252429,7.2634556 6.84609867,7.2634556 C4.85967305,7.2634556 3.24936635,8.87460623 3.24936635,10.8614466 C3.24936635,12.8477793 4.85967305,14.4589299 6.84609867,14.4589299 C7.81507441,14.4589299 10.4405469,14.4543607 10.4405469,14.4543607 Z M21.776903,5.0565321 L25.4266778,14.4005457 L24.0526509,14.4005457 L23.0319017,11.586934 L19.080369,11.586934 L18.0334792,14.4005457 L16.7510711,14.4005457 L20.4028762,5.0565321 L21.776903,5.0565321 Z M19.4727305,10.5398257 L22.6395401,10.5398257 L21.0822758,6.18207829 L21.0561354,6.18207829 L19.4727305,10.5398257 Z M42.2274174,5.78278103 L42.2266561,5.78227332 C42.7164736,6.2671162 42.9601134,6.94538854 42.9601134,7.81810571 C42.9601134,8.69056902 42.7157122,9.37112593 42.2274174,9.85952259 C41.7388689,10.3481732 41.0279991,10.5880561 40.0945542,10.5791716 L37.2419383,10.5791716 L37.2419383,14.4010534 L35.9988679,14.4010534 L35.9988679,5.05703975 L40.0945542,5.05703975 C41.0277453,5.05703975 41.7386152,5.29920737 42.2274174,5.78278103 Z M41.2274792,9.1002739 L41.2282406,9.1002739 C41.5556315,8.80378363 41.718058,8.3763096 41.718058,7.81785185 C41.718058,7.2596479 41.5546163,6.83420464 41.2274792,6.54177587 C40.900342,6.2496009 40.3833688,6.10338651 39.6768135,6.10338651 L37.2429535,6.10338651 L37.2429535,9.53206328 L39.6768135,9.53206328 C40.3833688,9.54094782 40.900342,9.39701807 41.2274792,9.1002739 Z M33.1594492,5.78278103 L33.1586878,5.78227332 C33.6485053,6.2671162 33.8921451,6.94538854 33.8921451,7.81810571 C33.8921451,8.69056902 33.6479978,9.37112593 33.1594492,9.85952259 C32.6709007,10.3481732 31.9597771,10.5880561 31.0265859,10.5791716 L28.1739701,10.5791716 L28.1739701,14.4010534 L26.9308996,14.4010534 L26.9308996,5.05703975 L31.0265859,5.05703975 C31.9597771,5.05703975 32.6709007,5.29920737 33.1594492,5.78278103 Z M32.1595109,9.1002739 L32.1605261,9.1002739 C32.487917,8.80378363 32.6503436,8.3763096 32.6503436,7.81785185 C32.6503436,7.2596479 32.4866481,6.83420464 32.1595109,6.54177587 C31.8323738,6.2496009 31.3156544,6.10338651 30.609099,6.10338651 L28.1752391,6.10338651 L28.1752391,9.53206328 L30.609099,9.53206328 C31.3154006,9.54094782 31.8323738,9.39701807 32.1595109,9.1002739 Z M45.0673437,14.4005457 L45.0670899,5.0565321 L46.3101604,5.0565321 L46.3101604,13.3534374 L51.2563018,13.3534374 L51.2563018,14.4005457 L45.0673437,14.4005457 Z M52.9320867,14.4005457 L52.9320867,5.05627825 L59.3829576,5.05627825 L59.3829576,6.10338651 L54.1751572,6.10338651 L54.1751572,9.07412796 L59.0294261,9.07412796 L59.0294261,10.1212362 L54.1751572,10.1212362 L54.1751572,13.3534374 L59.4220415,13.3534374 L59.4220415,14.4005457 L52.9320867,14.4005457 Z M67.3461573,7.69459289 C67.3287366,7.29383853 67.2438134,6.94536174 67.0913841,6.64915201 C66.9389554,6.35294228 66.7320901,6.10465254 66.4707834,5.90427539 C66.2094766,5.70389818 65.8980899,5.55361756 65.5366155,5.45342895 C65.1751411,5.35324041 64.7810086,5.30314683 64.3542073,5.30314683 C64.0929006,5.30314683 63.8119999,5.33363857 63.5114968,5.39462291 C63.2109937,5.4556073 62.9322704,5.56232828 62.6753186,5.71478917 C62.4183667,5.86725012 62.2071465,6.07198023 62.0416526,6.32898575 C61.8761581,6.5859912 61.7934117,6.90615429 61.7934117,7.28948455 C61.7934117,7.66410276 61.8848678,7.96901997 62.0677831,8.20424531 C62.2506978,8.43947071 62.4902253,8.62895501 62.7863735,8.77270385 C63.0825211,8.91645269 63.4222151,9.0318856 63.8054658,9.11900614 C64.1887158,9.20612661 64.5763153,9.28888986 64.9682758,9.36729834 C65.3689465,9.44570677 65.7587235,9.53935993 66.1376187,9.64826058 C66.5165138,9.75716123 66.8562079,9.90526387 67.1567109,10.092573 C67.4572134,10.279882 67.698919,10.5238158 67.8818337,10.8243816 C68.0647489,11.1249473 68.156205,11.5017379 68.156205,11.9547646 C68.156205,12.4426394 68.0516837,12.8520997 67.8426379,13.1831576 C67.6335928,13.5142155 67.3701122,13.7842851 67.0521884,13.9933743 C66.7342652,14.2024635 66.3815059,14.3527441 65.9939004,14.4442206 C65.6062954,14.5356972 65.2339386,14.5814348 64.876819,14.5814348 C64.3280744,14.5814348 63.8141779,14.5226293 63.3351157,14.4050166 C62.8560528,14.287404 62.4379679,14.0957417 62.0808483,13.8300241 C61.7237288,13.5643066 61.4428281,13.2223637 61.2381372,12.8041853 C61.0334469,12.3860068 60.9354585,11.8763595 60.9441688,11.2752279 L61.5190409,11.2752279 C61.4929104,11.789239 61.5669464,12.222657 61.7411507,12.5754951 C61.9153556,12.9283331 62.1570606,13.2180045 62.466274,13.4445178 C62.7754875,13.6710312 63.139134,13.8343797 63.5572255,13.9345682 C63.9753164,14.0347568 64.4151763,14.0848503 64.876819,14.0848503 C65.1555465,14.0848503 65.4538673,14.0500027 65.7717906,13.9803063 C66.0897144,13.9106099 66.3815023,13.7929989 66.6471645,13.62747 C66.9128267,13.461941 67.1349341,13.244143 67.3134939,12.9740694 C67.4920537,12.7039958 67.5813324,12.3642309 67.5813324,11.9547646 C67.5813324,11.5627223 67.4898762,11.2425592 67.3069616,10.9942657 C67.1240463,10.7459723 66.8823414,10.5455981 66.5818383,10.3931372 C66.2813352,10.2406763 65.9416412,10.1187095 65.562746,10.0272329 C65.1838508,9.93575634 64.7940739,9.85081511 64.3934031,9.77240668 C64.0014427,9.6939982 63.6138431,9.60252308 63.2305931,9.49797845 C62.847343,9.39343383 62.507649,9.25186513 62.2115008,9.0732681 C61.9153532,8.89467101 61.6758251,8.66380512 61.4929104,8.38066346 C61.3099958,8.0975218 61.2185396,7.73379914 61.2185396,7.28948455 C61.2185396,6.84516995 61.3121732,6.46402344 61.4994433,6.14603359 C61.6867129,5.82804369 61.9305959,5.57104207 62.231099,5.37502089 C62.5316021,5.17899976 62.8691187,5.03525309 63.2436583,4.94377653 C63.6181986,4.85230003 63.9883774,4.80656241 64.3542073,4.80656241 C64.8419806,4.80656241 65.2970832,4.8610119 65.7195296,4.96991255 C66.141976,5.0788132 66.5121554,5.24869566 66.8300786,5.47956498 C67.1480024,5.71043435 67.4027726,6.00881762 67.5943976,6.37472378 C67.7860226,6.74062989 67.8948989,7.18058191 67.92103,7.69459289 L67.3461573,7.69459289 Z M69.7363122,5.0287186 L75.5895591,5.0287186 L75.5895591,5.52530301 L70.3111849,5.52530301 L70.3111849,9.26275426 L75.0669481,9.26275426 L75.0669481,9.75933867 L70.3111849,9.75933867 L70.3111849,14.3592786 L69.7363122,14.3592786 L69.7363122,5.0287186 Z M76.6993162,5.0287186 L82.9706523,5.0287186 L82.9706523,5.52530301 L77.2741889,5.52530301 L77.2741889,9.26275426 L82.6309552,9.26275426 L82.6309552,9.75933867 L77.2741889,9.75933867 L77.2741889,13.8626942 L83.0359785,13.8626942 L83.0359785,14.3592786 L76.6993162,14.3592786 L76.6993162,5.0287186 Z M84.2633234,5.0287186 L88.1567779,5.0287186 C88.566159,5.0287186 88.949403,5.07010025 89.3065226,5.1528647 C89.6636422,5.23562921 89.9772063,5.37066396 90.2472234,5.55797304 C90.5172405,5.74528218 90.7284601,5.99139394 90.8808894,6.29631572 C91.0333187,6.6012375 91.1095321,6.98020603 91.1095321,7.43323267 C91.1095321,8.06050032 90.9331522,8.58974953 90.5803881,9.02099605 C90.2276234,9.45224258 89.7376806,9.7201341 89.1105433,9.82467873 L89.1105433,9.85081475 C89.5373452,9.90308703 89.8748611,10.016342 90.1231032,10.190583 C90.3713447,10.364824 90.5564344,10.5782661 90.6783777,10.8309156 C90.8003211,11.0835651 90.8787119,11.3623465 90.9135528,11.6672683 C90.9483937,11.9721901 90.9658138,12.2771073 90.9658138,12.5820291 L90.9658138,13.1178175 C90.9658138,13.2920585 90.9745241,13.4554071 90.9919443,13.6078679 C91.009365,13.7603288 91.0376723,13.9018975 91.0768687,14.0325783 C91.1160644,14.1632591 91.1705029,14.2721581 91.2401846,14.3592786 L90.5999857,14.3592786 C90.4780424,14.1414773 90.4105393,13.8866536 90.397474,13.5947999 C90.3844088,13.3029462 90.3778759,13.000207 90.3778759,12.6865732 C90.3778759,12.3729394 90.3648106,12.0614882 90.3386801,11.7522104 C90.3125496,11.4429325 90.2298033,11.1663291 90.0904398,10.9223916 C89.9510758,10.6784543 89.7311458,10.482436 89.4306427,10.3343312 C89.1301403,10.1862263 88.7055224,10.112175 88.1567779,10.112175 L84.8381961,10.112175 L84.8381961,14.3592786 L84.2633234,14.3592786 L84.2633234,5.0287186 Z M88.1567779,9.61559055 C88.4964767,9.61559055 88.8122182,9.5742089 89.104011,9.49144445 C89.3958037,9.40867994 89.646219,9.28017913 89.8552648,9.10593813 C90.0643105,8.93169706 90.2298021,8.7095431 90.3517454,8.43946951 C90.4736887,8.16939598 90.5346594,7.84705492 90.5346594,7.4724367 C90.5346594,7.12395469 90.4693338,6.82557142 90.3386801,6.57727795 C90.2080264,6.32898448 90.0338246,6.12643236 89.816069,5.96961545 C89.5983129,5.81279847 89.3457201,5.69954354 89.0582823,5.6298471 C88.7708445,5.56015072 88.4703462,5.52530301 88.1567779,5.52530301 L84.8381961,5.52530301 L84.8381961,9.61559055 L88.1567779,9.61559055 Z M95.5117405,5.0287186 L96.1388741,5.0287186 L99.823284,14.3592786 L99.2092156,14.3592786 L98.0333404,11.366704 L93.5650132,11.366704 L92.3760728,14.3592786 L91.7620043,14.3592786 L95.5117405,5.0287186 Z M97.8504263,10.8701196 L95.8514381,5.59064307 L95.825307,5.59064307 L93.7479273,10.8701196 L97.8504263,10.8701196 Z" transform="translate(10 11)"/></svg>