<svg xmlns="http://www.w3.org/2000/svg" viewBox="0 0 250 59"><path fill-rule="evenodd" d="M120.822 57.66a.67.67 0 110 1.34H74.073a.67.67 0 110-1.34h46.75zM98.886 11.397a.67.67 0 01.66.557l7.118 41.568a.67.67 0 01-.66.784h-3.995a.67.67 0 01-.659-.544l-3.902-20.24-3.903 20.24a.67.67 0 01-.658.544h-3.983a.67.67 0 01-.659-.794l7.765-41.568a.67.67 0 01.659-.547h2.217zm-7.596 8.045a.67.67 0 01.658.8l-6.417 32.851a.67.67 0 01-.658.542h-4.32a.67.67 0 01-.631-.442l-2.512-6.933v6.705c0 .37-.3.67-.67.67h-2.667a.67.67 0 01-.67-.67V26.148c0-.37.3-.67.67-.67h2.823a.67.67 0 01.648.496l4.542 16.935 4.568-22.926a.67.67 0 01.657-.54h3.98zm16.294 0a.67.67 0 01.63.439l.028.1 4.568 22.927 4.542-16.935a.67.67 0 01.548-.49l.1-.007h2.822a.67.67 0 01.663.572l.008.099v26.818a.67.67 0 01-.572.663l-.099.007h-2.666a.67.67 0 01-.664-.571l-.007-.1v-6.704l-2.511 6.933a.67.67 0 01-.527.434l-.104.008h-4.32a.67.67 0 01-.63-.44l-.029-.102-6.417-32.852a.67.67 0 01.56-.792l.098-.007h3.98zm-63.572 6.034c.37 0 .67.3.67.67V29.5c0 .37-.3.67-.67.67h-3.334c-.37 0-.67.3-.67.67v3.353c0 .37.3.67.67.67h3.334c.37 0 .67.3.67.671v3.352c0 .37-.3.67-.67.67h-3.334c-.37 0-.67.301-.67.671v12.739c0 .37-.3.67-.671.67H36.67a.67.67 0 01-.67-.67V26.148c0-.37.3-.67.67-.67h7.342zm12.023 0c.37 0 .67.3.67.67V29.5c0 .37-.3.67-.67.67H52.7c-.37 0-.67.3-.67.67v3.353c0 .37.3.67.67.67h3.335c.37 0 .67.3.67.671v3.352c0 .37-.3.67-.67.67H52.7c-.37 0-.67.301-.67.671v8.046c0 .37.3.67.67.67h3.335c.37 0 .67.3.67.67v3.353c0 .37-.3.67-.67.67h-7.342a.67.67 0 01-.67-.67V26.148c0-.37.3-.67.67-.67h7.342zm129.577 0v22.796c0 .37.3.67.67.67h4.003c.37 0 .67.3.67.67v3.353c0 .37-.3.67-.67.67h-8.01a.67.67 0 01-.67-.67V26.148c0-.37.3-.67.67-.67h3.337zm-41.41 0c2.95 0 5.343 2.402 5.343 5.364v17.432c0 2.962-2.392 5.363-5.344 5.363-2.95 0-5.343-2.401-5.343-5.363V30.84c0-2.962 2.392-5.364 5.343-5.364zm21.373 0c2.95 0 5.343 2.402 5.343 5.364v2.682h-4.008V30.84c0-.74-.598-1.341-1.335-1.341-.685 0-1.25.518-1.327 1.185l-.01.156v6.251c0 .274.167.52.421.622l2.92 1.172a5.323 5.323 0 013.339 4.94v4.447c0 2.962-2.392 5.363-5.343 5.363s-5.344-2.401-5.344-5.363V45.59h4.008v2.682c0 .74.598 1.34 1.336 1.34.685 0 1.25-.517 1.326-1.184l.01-.156v-4.91a.67.67 0 00-.421-.623l-2.92-1.172a5.323 5.323 0 01-3.339-4.94v-5.787c0-2.962 2.393-5.364 5.344-5.364zm44.082 0c2.95 0 5.343 2.402 5.343 5.364v22.125c0 .37-.3.67-.67.67h-2.667a.67.67 0 01-.67-.67v-4.693c0-.37-.3-.67-.67-.67h-1.332c-.37 0-.67.3-.67.67v4.693c0 .37-.3.67-.67.67h-2.667a.67.67 0 01-.67-.67V30.84c0-2.962 2.392-5.364 5.343-5.364zm-15.218 0a.67.67 0 01.65.509l1.877 7.537 1.878-7.537a.67.67 0 01.65-.509h2.711a.67.67 0 01.664.765l-3.817 26.818a.67.67 0 01-.664.576h-2.844a.67.67 0 01-.663-.576l-3.926-27.583h3.484zm-63.596 0a5.343 5.343 0 015.344 5.344v17.472a5.343 5.343 0 01-5.344 5.343h-4.673a.67.67 0 01-.67-.67V26.148c0-.37.3-.67.67-.67h4.673zm-65.455 0a5.343 5.343 0 015.343 5.344v10.747c0 1.753-.285 2.933-.856 3.54a2.682 2.682 0 00-.649 2.486l1.298 5.21a.67.67 0 01-.65.832h-2.65a.67.67 0 01-.643-.478l-1.79-5.987a.335.335 0 00-.32-.24h-.085a.334.334 0 00-.334.335v5.7c0 .37-.3.67-.67.67h-2.667a.67.67 0 01-.67-.67V26.148c0-.37.3-.67.67-.67h4.673zm113.545 0v28.16h-4.008v-28.16h4.008zM144.2 29.5c-.685 0-1.25.518-1.326 1.185l-.01.156v17.432c0 .74.599 1.34 1.336 1.34.686 0 1.25-.517 1.327-1.184l.01-.156V30.84c0-.74-.599-1.341-1.337-1.341zm-14.033 0h-.66v20.114h.66c1.06 0 1.929-.82 2.006-1.862l.005-.15v-16.09c0-1.111-.9-2.012-2.011-2.012zm79.489 0c-.685 0-1.25.518-1.327 1.185l-.01.156v11.398c0 .37.301.67.671.67h1.331c.37 0 .67-.3.67-.67V30.84c0-.74-.598-1.341-1.335-1.341zm-144.944 0h-.66v13.41h.66c1.06 0 1.929-.821 2.005-1.862l.006-.15V31.51c0-1.11-.9-2.011-2.011-2.011zM97.448 0a3.34 3.34 0 013.34 3.34v.025a3.34 3.34 0 11-6.68 0V3.34A3.34 3.34 0 0197.448 0z"/></svg>