<svg xmlns="http://www.w3.org/2000/svg" width="217" height="73"  stroke="#000" stroke-linecap="round" stroke-linejoin="round" fill="#fff" fill-rule="evenodd"><path d="M102.3865 69.792c.444 0 .804.36.804.804a.804.804 0 0 1-.804.804H46.2876a.804.804 0 1 1 0-1.608h56.1zM76.0633 14.2765a.804.804 0 0 1 .7919.6683l8.5417 49.8816a.804.804 0 0 1-.792.9408h-4.7941a.804.804 0 0 1-.7908-.6528l-4.6823-24.288-4.6836 24.288a.804.804 0 0 1-.7897.6528h-4.7795a.804.804 0 0 1-.7908-.9528l9.318-49.8816a.804.804 0 0 1 .7908-.6563h2.6604zm-9.1153 9.6539a.804.804 0 0 1 .7897.96l-7.7004 39.4212c-.0737.3779-.4047.6506-.7896.6504h-5.1841a.804.804 0 0 1-.7572-.5304L50.292 56.112v8.046a.804.804 0 0 1-.8039.804h-3.2005a.804.804 0 0 1-.8039-.804V31.9776a.804.804 0 0 1 .8039-.804h3.3876c.3641-.0005.6831.2437.7777.5952l5.4503 20.322 5.4816-27.5112a.804.804 0 0 1 .7884-.648h4.776zm19.5529 0c.3375-.0005.6395.2099.756.5268l.0335.12 5.4816 27.5124 5.4504-20.322a.804.804 0 0 1 .6576-.5879l.12-.0085h3.3865a.804.804 0 0 1 .7955.6864l.0097.1188V64.158a.804.804 0 0 1-.6864.7956l-.1188.0084h-3.1992a.804.804 0 0 1-.7969-.6852l-.0083-.12V56.112l-3.0133 8.3196a.804.804 0 0 1-.6323.5208l-.1249.0096h-5.184a.804.804 0 0 1-.7559-.528l-.0348-.1224-7.7005-39.4224a.804.804 0 0 1 .672-.9504l.1177-.0084h4.776zm-76.2864 7.2408c.444 0 .804.36.804.804V36a.804.804 0 0 1-.804.804H6.2136a.804.804 0 0 0-.8039.804v4.0236a.804.804 0 0 0 .8039.804h4.0009c.444 0 .804.36.804.8052v4.0224c0 .444-.36.804-.804.804H6.2136c-.4439 0-.8039.3612-.8039.8052v15.2868c0 .444-.36.804-.8053.804H1.4041a.804.804 0 0 1-.5685-.2355C.6847 64.577.6 64.3725.6 64.1592V31.9776c0-.444.3601-.804.8041-.804h8.8104zm14.4275 0c.4441 0 .8041.36.8041.804V36a.804.804 0 0 1-.8041.804H20.64a.804.804 0 0 0-.8039.804v4.0236a.804.804 0 0 0 .8039.804h4.002c.4441 0 .8041.36.8041.8052v4.0224c0 .444-.36.804-.8041.804H20.64c-.4439 0-.8039.3612-.8039.8052v9.6552a.804.804 0 0 0 .8039.804h4.002c.4441 0 .8041.36.8041.804v4.0236c0 .444-.36.804-.8041.804h-8.8103a.804.804 0 0 1-.5686-.2355c-.1508-.1507-.2355-.3552-.2355-.5685V31.9776c0-.444.36-.804.8041-.804h8.8103zm155.4924 0v27.3553c0 .4439.36.8039.8041.8039h4.8036c.444 0 .8039.3601.8039.804v4.0236a.804.804 0 0 1-.8039.804H176.13a.804.804 0 0 1-.8039-.804V31.9776a.804.804 0 0 1 .8039-.804h4.0044zm-49.692 0c3.54 0 6.4116 2.8824 6.4116 6.4368v20.9185c0 3.5543-2.8703 6.4355-6.4127 6.4355s-6.4116-2.8812-6.4116-6.4355V37.608c0-3.5544 2.8703-6.4368 6.4116-6.4368zm25.6476 0c3.54 0 6.4116 2.8824 6.4116 6.4368v3.2184h-4.8096V37.608c0-.888-.7176-1.6092-1.602-1.6092-.8219 0-1.5.6216-1.5923 1.422l-.0121.1872v7.5012c0 .3288.2005.624.5053.7464l3.504 1.4064c2.4208.9724 4.0071 3.3192 4.0067 5.928v5.3365c0 3.5543-2.8703 6.4355-6.4116 6.4355s-6.4127-2.8812-6.4127-6.4355V55.308h4.8095v3.2185c0 .888.7177 1.6079 1.6032 1.6079.822 0 1.5-.6204 1.5913-1.4208l.012-.1871v-5.8921a.804.804 0 0 0-.5053-.7476l-3.5039-1.4064c-2.4209-.9723-4.0071-3.3192-4.0068-5.928V37.608c0-3.5544 2.8716-6.4368 6.4127-6.4368zm52.8984 0c3.5401 0 6.4116 2.8824 6.4116 6.4368v26.55a.804.804 0 0 1-.8039.804h-3.2004a.804.804 0 0 1-.804-.804v-5.6315c0-.4441-.3601-.8041-.8041-.8041h-1.5984c-.4439 0-.8039.36-.8039.8041v5.6315c0 .444-.36.804-.8041.804h-3.2003a.804.804 0 0 1-.8041-.804v-26.55c0-3.5544 2.8705-6.4368 6.4116-6.4368zm-18.2616 0a.804.804 0 0 1 .7801.6108l2.2524 9.0444 2.2535-9.0444a.804.804 0 0 1 .7801-.6108h3.2531a.805.805 0 0 1 .6082.277c.1528.1762.2217.4101.1886.641l-4.5803 32.1816a.804.804 0 0 1-.7969.6912h-3.4127c-.4003-.0002-.7395-.2949-.7957-.6912l-4.7112-33.0996h4.1808zm-76.3152 0a6.412 6.412 0 0 1 4.535 1.878c1.2026 1.2027 1.8781 2.8339 1.8779 4.5348v20.9664a6.412 6.412 0 0 1-1.8784 4.5342c-1.2027 1.2024-2.8338 1.8778-4.5345 1.8774h-5.6075a.804.804 0 0 1-.8041-.804V31.9776c0-.444.36-.804.8041-.804h5.6075zm-78.546 0a6.412 6.412 0 0 1 4.5342 1.8784 6.411 6.411 0 0 1 1.8774 4.5344v12.8964c0 2.1036-.342 3.5196-1.0272 4.248a3.219 3.219 0 0 0-.7788 2.9832l1.5576 6.252a.804.804 0 0 1-.78.9984h-3.1799a.804.804 0 0 1-.7716-.5735l-2.1481-7.1845a.402.402 0 0 0-.3839-.288h-.1021a.401.401 0 0 0-.2838.1178c-.0752.0755-.1173.1777-.1169.2842v6.84c0 .444-.36.804-.8041.804h-3.2003a.804.804 0 0 1-.8041-.804V31.9776c0-.444.3601-.804.8041-.804h5.6075zm136.2541 0v33.792h-4.8096v-33.792h4.8096zM130.4401 36c-.822 0-1.5.6216-1.5913 1.422l-.012.1872v20.9184c0 .888.7189 1.608 1.6033 1.608.8231 0 1.5-.6204 1.5924-1.4208l.012-.1872V37.608c0-.888-.7188-1.6092-1.6044-1.6092zm-16.8396 0h-.792v24.1368h.792c1.272 0 2.3147-.984 2.4072-2.2344l.006-.18V38.4145c0-1.3333-1.0801-2.4145-2.4132-2.4145zm95.3867 0c-.822 0-1.5.6216-1.5924 1.422l-.012.1872v13.6776c0 .444.3612.804.8052.804h1.5973c.444 0 .804-.36.804-.804V37.608c0-.888-.7177-1.6092-1.6021-1.6092zM35.0545 36h-.792v16.092h.792c1.2719 0 2.3148-.9852 2.406-2.2344l.0072-.18V38.412c0-1.332-1.0801-2.4132-2.4132-2.4132zM74.3377.6a4.008 4.008 0 0 1 4.0079 4.008v.03a4.008 4.008 0 0 1-6.012 3.471 4.008 4.008 0 0 1-2.004-3.471v-.03C70.3296 2.3945 72.124.6 74.3377.6z" stroke="none" fill="#000"/></svg>