<svg xmlns="http://www.w3.org/2000/svg" viewBox="0 0 120 40"><g fill="none" fill-rule="evenodd" transform="translate(10 9)"><g fill-rule="nonzero"><rect width="22" height="22" fill="#FF5800"/><path fill="#FFF" d="M9.57702211,12.0769826 L4.64135021,3.16455696 L6.89701928,3.16455696 L9.80035572,8.80478773 C9.84502262,8.90525031 9.89713335,9.00929933 9.95668926,9.11693794 C10.0162452,9.22457643 10.0683558,9.33580126 10.1130227,9.45061568 C10.1428007,9.49367105 10.1651339,9.53313793 10.1800228,9.5690175 C10.1949118,9.60489697 10.2098005,9.63718804 10.2246895,9.6658917 C10.2991345,9.80940966 10.3661339,9.94933771 10.4256898,10.0856799 C10.4852457,10.222022 10.5373563,10.3475984 10.5820232,10.4624128 C10.7011351,10.2184321 10.8314117,9.95651568 10.972857,9.67665546 C11.1143023,9.39679524 11.2594676,9.10617558 11.4083574,8.80478773 L14.3563606,3.16455696 L16.4556962,3.16455696 L11.4753575,12.1846207 L11.4753575,17.9324895 L9.57702211,17.9324895 L9.57702211,12.0769826 Z"/></g><text fill="#000" font-family="AvenirNext-Bold, Avenir Next" font-size="12" font-weight="bold"><tspan x="25" y="14.954">Hacker News</tspan></text></g></svg>