<svg xmlns="http://www.w3.org/2000/svg" viewBox="0 0 250 59"><g fill="none" fill-rule="evenodd"><g fill-rule="nonzero"><path fill="#FF5800" d="M6 5h50v50H6z"/><path fill="#FFF" d="M28.698 33.622L17 12.5h5.346l6.88 13.367c.107.238.23.485.371.74.142.255.265.519.37.791.071.102.124.196.16.28.035.086.07.162.106.23.176.34.335.672.476.995.141.323.265.62.37.893.283-.578.591-1.2.927-1.862.335-.664.679-1.352 1.032-2.067L40.025 12.5H45L33.197 33.878V47.5h-4.5V33.622z"/></g><text fill="#000" font-family="AvenirNext-Bold, Avenir Next" font-size="28" font-weight="bold"><tspan x="64" y="40">Hacker News</tspan></text></g></svg>