<svg width="120" height="40" viewBox="0 0 120 40" xmlns="http://www.w3.org/2000/svg"><g transform="translate(35 2)" fill="none"><path d="M21.6294073,3.93606817 C23.3095933,2.21513053 25.6506057,1.12807623 28.2320463,1.12807623 C31.6732641,1.12807623 34.6547156,3.02694603 36.2547588,5.83563302 C37.635464,5.22260112 39.1757517,4.88619812 40.7961821,4.88619812 C46.9988103,4.88619812 52,9.89054021 52,16.0625621 C52,22.234584 46.9784231,27.237536 40.7961821,27.237536 C40.0369349,27.237536 39.2959658,27.1583006 38.5957711,27.0199861 C37.1953818,29.4922701 34.5141142,31.1742851 31.4321328,31.1742851 C30.1526606,31.1742851 28.931538,30.8774998 27.8510167,30.3631647 C26.4309431,33.6667255 23.1092364,36 19.2476206,36 C15.2264222,36 11.7852044,33.4880983 10.4642548,29.9461362 C9.87832529,30.0650197 9.28167919,30.1246375 8.68353883,30.1240683 C3.88200303,30.1240683 4.99516308e-15,26.2470933 4.99516308e-15,21.4401447 C4.99516308e-15,18.2429262 1.7406446,15.4265936 4.34176941,13.9232059 C3.80186026,12.7166034 3.5016764,11.3723815 3.5016764,9.94753411 C3.48339823,4.47055971 8.02482154,-2.4693048e-15 13.5856046,-2.4693048e-15 C16.742049,-0.0052304391 19.7187711,1.45148893 21.6287043,3.93606817" fill="#00A1E0"/><path d="M7.52357776,18.6731606 L7.74361886,18.0997464 C7.78369024,18.0010496 7.84344581,18.0406673 7.8842202,18.0601287 L8.06418992,18.1782867 C8.68424183,18.5744638 9.26492537,18.5744638 9.44489509,18.5744638 C9.90536448,18.5744638 10.2041423,18.3367576 10.2041423,18.0010496 L10.2041423,17.9815883 C10.2041423,17.625724 9.76406013,17.4881046 9.24383517,17.3282436 L9.12432403,17.2886259 C8.42412935,17.0905374 7.6634761,16.7951422 7.6634761,15.9235526 L7.6634761,15.9040913 C7.6634761,15.0735095 8.34398659,14.4792439 9.32397794,14.4792439 L9.42380489,14.4792439 C10.0037854,14.4792439 10.5443976,14.6377147 10.9444084,14.8948823 C10.9844798,14.9143436 11.0245512,14.9539613 11.004164,15.0130404 L10.7841229,15.5864546 C10.7440515,15.6851513 10.6435215,15.6260723 10.6435215,15.6260723 C10.2835821,15.4279837 9.74367294,15.2896693 9.28320355,15.2896693 C8.86280554,15.2896693 8.60269306,15.5072192 8.60269306,15.8040044 L8.60269306,15.8234658 C8.60269306,16.1598688 9.06316245,16.3169495 9.58338741,16.4768104 L9.68321436,16.4962718 C10.383409,16.7138216 11.1243781,17.0106069 11.1243781,17.8613451 L11.1243781,17.8808064 C11.1243781,18.7913186 10.4635518,19.3445765 9.40341769,19.3445765 C8.88319273,19.3445765 8.38405797,19.2653411 7.84274281,18.9887121 C7.74291586,18.9296331 7.6423859,18.8900154 7.54255894,18.81078 C7.52287476,18.7711623 7.48280337,18.7517009 7.52287476,18.6717705 L7.52357776,18.6731606 Z M23.1303266,18.6731606 L23.3503677,18.0997464 C23.3904391,18.0010496 23.4698789,18.0406673 23.4909691,18.0601287 L23.6709388,18.1782867 C24.2909907,18.5744638 24.8716742,18.5744638 25.051644,18.5744638 C25.5121133,18.5744638 25.8108912,18.3367576 25.8108912,18.0010496 L25.8108912,17.9815883 C25.8108912,17.625724 25.370809,17.4881046 24.850584,17.3282436 L24.7310729,17.2886259 C24.0308782,17.0905374 23.270225,16.7951422 23.270225,15.9235526 L23.270225,15.9040913 C23.270225,15.0735095 23.9507355,14.4792439 24.9307268,14.4792439 L25.0305538,14.4792439 C25.6105343,14.4792439 26.1511464,14.6377147 26.5511573,14.8948823 C26.5912286,14.9143436 26.6313,14.9539613 26.6109128,15.0130404 L26.3908717,15.5864546 C26.3508003,15.6851513 26.2502704,15.6260723 26.2502704,15.6260723 C25.890331,15.4279837 25.3504218,15.2896693 24.8899524,15.2896693 C24.4695544,15.2896693 24.2094419,15.5072192 24.2094419,15.8040044 L24.2094419,15.8234658 C24.2094419,16.1598688 24.6699113,16.3169495 25.1901363,16.4768104 L25.2899632,16.4962718 C25.9901579,16.7138216 26.731127,17.0106069 26.731127,17.8613451 L26.731127,17.8808064 C26.731127,18.7913186 26.0703007,19.3445765 25.0101666,19.3445765 C24.4899416,19.3445765 23.9908068,19.2653411 23.4494917,18.9887121 C23.3496647,18.9296331 23.2491348,18.8900154 23.1493078,18.81078 C23.1493078,18.7711623 23.1092364,18.7517009 23.1296236,18.6717705 L23.1303266,18.6731606 Z M34.6947869,15.9624753 C34.7749297,16.2592606 34.8353883,16.5755072 34.8353883,16.9119102 C34.8353883,17.2483132 34.7953169,17.5652548 34.6947869,17.8613451 C34.6146442,18.1581304 34.4747458,18.4152979 34.2940731,18.6258973 C34.1089895,18.8454943 33.8764454,19.021253 33.6135626,19.1402325 C33.333766,19.2583906 33.0131949,19.3181647 32.6532555,19.3181647 C32.293316,19.3181647 31.972745,19.2590856 31.6929483,19.1402325 C31.4131516,19.0213794 31.1938135,18.8434472 31.0124378,18.6258973 C30.8310621,18.4083475 30.6925698,18.1511799 30.611724,17.8613451 C30.5308782,17.5715103 30.4711226,17.2483132 30.4711226,16.9119102 C30.4711226,16.5755072 30.511194,16.2585655 30.611724,15.9624753 C30.6918668,15.66569 30.8317651,15.4085224 31.0124378,15.197923 C31.1975214,14.978326 31.4300656,14.8025673 31.6929483,14.6835879 C31.9960014,14.553389 32.3228267,14.4859727 32.6532555,14.4854993 C33.0131949,14.4854993 33.333766,14.5445784 33.6135626,14.6835879 C33.8933593,14.8017459 34.1126974,14.9803731 34.2940731,15.197923 C34.4754488,15.4154729 34.6139412,15.6726405 34.6947869,15.9624753 L34.6947869,15.9624753 Z M33.7949384,16.8924488 C33.7949384,16.3781137 33.6951114,15.9819366 33.5151417,15.7053077 C33.335172,15.4286788 33.0349881,15.2896693 32.6546615,15.2896693 C32.2539477,15.2896693 31.974151,15.4286788 31.7941813,15.7053077 C31.6142116,15.9819366 31.5143846,16.3781137 31.5143846,16.8924488 C31.5143846,17.406784 31.6142116,17.8029611 31.7941813,18.0990513 C31.974151,18.3756802 32.2546507,18.5146897 32.6546615,18.5146897 C33.0546723,18.5146897 33.335172,18.3756802 33.5151417,18.0990513 C33.7154986,17.8224224 33.7949384,17.406784 33.7949384,16.8924488 Z M42.0180078,18.3756802 L42.2380489,18.9692508 C42.2577331,19.0484862 42.1979775,19.0679476 42.1979775,19.0679476 C41.8577223,19.2069571 41.3979559,19.2854974 40.9374865,19.2854974 C40.1641791,19.2854974 39.5771685,19.0679476 39.1771577,18.6321528 C38.7771469,18.196358 38.57679,17.6034825 38.57679,16.8715974 C38.57679,16.5351944 38.6168613,16.2182528 38.7173913,15.9221625 C38.8179213,15.6260723 38.9578196,15.3682097 39.1574735,15.1576103 C39.3574015,14.9368615 39.6032009,14.7614155 39.8780554,14.6432751 C40.1945718,14.5111597 40.5348686,14.4437764 40.8784339,14.4451649 C41.0990556,14.4460433 41.3194506,14.4592704 41.5385572,14.4848043 C41.7389141,14.524422 42.0187108,14.583501 42.1389249,14.6432751 C42.1586091,14.6432751 42.2190677,14.6828928 42.1986805,14.7419718 L41.9786394,15.3355424 C41.938568,15.4342392 41.8788125,15.3946215 41.8788125,15.3946215 C41.5786286,15.2959247 41.2988319,15.255612 40.9381895,15.255612 C40.4981073,15.255612 40.1648821,15.3946215 39.9574951,15.6907117 C39.737454,15.9673406 39.6172399,16.3440564 39.6172399,16.8583915 C39.6172399,17.4123444 39.7578412,17.8078264 39.9968635,18.064994 C40.2358858,18.3221616 40.576844,18.4403197 41.0162232,18.4403197 C41.1961929,18.4403197 41.3564785,18.4208583 41.4963768,18.4007019 C41.6362751,18.3805456 41.7761735,18.3416229 41.9167748,18.2825439 C41.8970906,18.3221616 41.9765304,18.3020052 42.0166018,18.3812406 L42.0180078,18.3756802 Z M46.5594311,15.7845431 C46.759788,16.4573491 46.6592581,17.0307633 46.6395739,17.070381 C46.6395739,17.1496164 46.5594311,17.1496164 46.5594311,17.1496164 L43.5386113,17.1496164 C43.5582955,17.6048725 43.6581224,17.9141687 43.8985507,18.138669 C44.1185918,18.3562189 44.4588471,18.4945334 44.9390006,18.4945334 C45.6595825,18.4945334 45.9583604,18.3555239 46.1798075,18.2769835 C46.1798075,18.2769835 46.2599502,18.2575222 46.2993186,18.3360625 L46.4996755,18.8900154 C46.5397469,18.9887121 46.4996755,19.0081735 46.4799913,19.0290249 C46.3000216,19.1277216 45.8402552,19.3258102 44.9593878,19.3258102 C44.5389898,19.3258102 44.1593662,19.2667311 43.8591823,19.147878 C43.5589985,19.0290249 43.298886,18.8712491 43.0999351,18.6543943 C42.9009842,18.4375395 42.7596799,18.1796768 42.6598529,17.903743 C42.560026,17.6069577 42.5192516,17.2907111 42.5192516,16.9543081 C42.5192516,16.6179051 42.559323,16.3009634 42.6598529,16.0048732 C42.7399957,15.7080879 42.879894,15.4509203 43.0605667,15.2403209 C43.2412395,15.0297215 43.4809647,14.8441438 43.7607614,14.7259858 C44.0405581,14.5869762 44.3808133,14.5278972 44.76114,14.5278972 C45.081008,14.5278972 45.3811919,14.5869762 45.6216202,14.7058294 C45.8015899,14.7850648 46.0012438,14.9233792 46.2016007,15.1409291 C46.3014276,15.2201645 46.4813974,15.5162548 46.5615401,15.7942738 L46.5594311,15.7845431 Z M43.5575925,16.4170363 L45.6982479,16.4170363 C45.6785637,16.1404074 45.6181051,15.9027012 45.497891,15.7046126 C45.3179213,15.4279837 45.0578088,15.2695129 44.657798,15.2695129 C44.2577872,15.2695129 43.9772875,15.4279837 43.7973178,15.7046126 C43.6778066,15.8825448 43.617348,16.1202511 43.5568895,16.4170363 L43.5575925,16.4170363 Z M22.4097448,15.7845431 C22.6101017,16.4573491 22.5095717,17.0307633 22.5095717,17.070381 C22.5095717,17.1496164 22.4294289,17.1496164 22.4294289,17.1496164 L19.4086091,17.1496164 C19.4282933,17.6048725 19.5281203,17.9141687 19.7685486,18.138669 C19.9885897,18.3562189 20.3288449,18.4945334 20.8089985,18.4945334 C21.5295804,18.4945334 21.8283582,18.3555239 22.0498053,18.2769835 C22.0498053,18.2769835 22.1299481,18.2575222 22.1693165,18.3360625 L22.3696734,18.8900154 C22.4097448,18.9887121 22.3696734,19.0081735 22.3499892,19.0290249 C22.1700195,19.1277216 21.7102531,19.3258102 20.8293857,19.3258102 C20.4089877,19.3258102 20.029364,19.2667311 19.7291802,19.147878 C19.4289963,19.0290249 19.1688838,18.8712491 18.9699329,18.6543943 C18.770982,18.4375395 18.6296777,18.1796768 18.5298507,17.903743 C18.4300238,17.6069577 18.3892494,17.2907111 18.3892494,16.9543081 C18.3892494,16.6179051 18.4293208,16.3009634 18.5298507,16.0048732 C18.6099935,15.7080879 18.7498918,15.4509203 18.9305646,15.2403209 C19.1112373,15.0297215 19.3509626,14.8441438 19.6307592,14.7259858 C19.9105559,14.5869762 20.2508112,14.5278972 20.6311378,14.5278972 C20.9510058,14.5278972 21.2511897,14.5869762 21.491618,14.7058294 C21.6715877,14.7850648 21.8712416,14.9233792 22.0715985,15.1409291 C22.1517413,15.2201645 22.3513952,15.5162548 22.4118538,15.7942738 L22.4097448,15.7845431 Z M19.4079061,16.4170363 L21.5689487,16.4170363 C21.5492645,16.1404074 21.488806,15.9027012 21.3685918,15.7046126 C21.1886221,15.4279837 20.9285096,15.2695129 20.5284988,15.2695129 C20.128488,15.2695129 19.8479883,15.4279837 19.6680186,15.7046126 C19.5274173,15.8825448 19.4676617,16.1202511 19.4079061,16.4170363 L19.4079061,16.4170363 Z M14.1058295,16.2585655 L14.6049643,16.3176446 L14.6049643,16.1994865 C14.6049643,15.8033094 14.5248215,15.6059159 14.364536,15.4870628 C14.2042505,15.3682097 13.944138,15.2889742 13.62427,15.2889742 C13.62427,15.2889742 12.8840039,15.2889742 12.3040234,15.5857595 C12.2843392,15.6052209 12.263952,15.6052209 12.263952,15.6052209 C12.263952,15.6052209 12.1838092,15.6246822 12.164125,15.5656031 L11.9440839,14.9921889 C11.9040125,14.9129535 11.9637681,14.8740309 11.9637681,14.8740309 C12.2435648,14.656481 12.8847069,14.5376279 12.8847069,14.5376279 C13.104748,14.4980102 13.4646874,14.4583925 13.6847285,14.4583925 C14.2850963,14.4583925 14.7448626,14.597402 15.0654337,14.8740309 C15.3860048,15.1506598 15.5455873,15.5864546 15.5455873,16.1994865 L15.5455873,18.9289381 C15.5455873,18.9289381 15.5455873,19.0081735 15.4858317,19.0276348 C15.4858317,19.0276348 15.3663206,19.0672525 15.2657906,19.0867138 L14.5065434,19.2257233 C14.2063595,19.2848024 13.9061756,19.3049588 13.5856046,19.3049588 C13.2854207,19.3049588 13.0253082,19.2854974 12.785583,19.2257233 C12.5458577,19.1659493 12.3455008,19.0867138 12.165531,18.9685558 C12.0052455,18.8503977 11.8653472,18.6919269 11.7648172,18.4938383 C11.6649903,18.3159062 11.6242159,18.0781999 11.6242159,17.8210323 C11.6242159,17.5638647 11.6839714,17.3275486 11.7845014,17.128765 C11.8850314,16.9299814 12.0446139,16.7729007 12.2245836,16.6352813 C12.4045533,16.4976619 12.6252974,16.4177314 12.8446355,16.338496 C13.0850638,16.2794169 13.3247891,16.2397992 13.5849016,16.2397992 L14.1051265,16.2592606 L14.1058295,16.2585655 Z M12.9050941,18.3555239 C12.9050941,18.3555239 13.1848908,18.5730737 13.7852585,18.533456 C14.2253407,18.5139947 14.6056673,18.4347593 14.6056673,18.4347593 L14.6056673,17.069686 C14.6056673,17.069686 14.2260437,17.0106069 13.7852585,17.0106069 C13.1652066,17.0106069 12.9050941,17.2281568 12.9050941,17.2281568 C12.7251244,17.3463149 12.6449816,17.5444034 12.6449816,17.801571 C12.6421383,17.9398245 12.6765952,18.0763317 12.7448086,18.197053 C12.7644928,18.2366707 12.7848799,18.2762884 12.9050941,18.3555239 L12.9050941,18.3555239 Z M38.4143954,14.7357164 C38.3947112,14.8149518 38.2344257,15.2292001 38.1943543,15.3682097 C38.1746701,15.4272887 38.1345987,15.4474451 38.0748432,15.4474451 C38.0748432,15.4474451 37.8948735,15.4078274 37.7345879,15.4078274 C37.5992755,15.4108904 37.4648875,15.4307386 37.3345771,15.4669064 C37.1939758,15.5065241 37.0744646,15.5850645 36.9549535,15.6844563 C36.8354424,15.7838481 36.7545966,15.9416238 36.694841,16.119556 C36.6350854,16.2974882 36.5950141,16.5942735 36.5950141,16.9105201 L36.5950141,19.1256365 C36.5950141,19.1847155 36.5549427,19.2243332 36.4951871,19.2243332 L35.6951655,19.2243332 C35.6354099,19.2243332 35.5953385,19.1847155 35.5953385,19.1256365 L35.5953385,14.6780275 C35.5953385,14.6189484 35.6354099,14.5793307 35.6754813,14.5793307 L36.4487887,14.5793307 C36.5085442,14.5793307 36.5289314,14.6189484 36.5289314,14.6780275 L36.5289314,15.0338918 C36.6484426,14.875421 36.8487995,14.7371065 37.0280662,14.6585661 C37.2073329,14.5800258 37.42878,14.5195566 37.8013736,14.5404081 C38.0017305,14.5598694 38.261843,14.5994871 38.3005083,14.6196435 C38.3806511,14.6391048 38.4200195,14.6592612 38.4003353,14.7378016 L38.4143954,14.7357164 Z M30.9906446,12.6783758 C31.0103288,12.6783758 31.0707874,12.7179935 31.0504002,12.7770725 L30.8099719,13.4095658 C30.7902877,13.4491835 30.7699005,13.4888012 30.6693705,13.4491835 C30.6496864,13.4491835 30.609615,13.4297221 30.509085,13.4095658 C30.4493294,13.3901044 30.3487995,13.3901044 30.2686567,13.3901044 C30.1491456,13.3901044 30.0486156,13.4095658 29.9487887,13.4297221 C29.8489617,13.4498785 29.7688189,13.5089576 29.6886762,13.588193 C29.6085334,13.6674284 29.5283907,13.7661251 29.4686351,13.9044396 C29.3491239,14.2206862 29.3083496,14.5577843 29.3083496,14.5772456 L30.2686567,14.5772456 C30.3487995,14.5772456 30.3684837,14.6168633 30.3684837,14.6759423 L30.2489725,15.2889742 C30.2292883,15.387671 30.1491456,15.3682097 30.1491456,15.3682097 L29.148767,15.3682097 L28.5090309,19.1861056 C28.4288882,19.5822827 28.3487454,19.9179907 28.2489185,20.1939245 C28.1490915,20.4698584 28.0288774,20.668642 27.8482046,20.8667305 C27.6879191,21.0446627 27.5079494,21.1829771 27.2879083,21.2420562 C27.0875514,21.3212916 26.8274389,21.3602143 26.5476422,21.3602143 C26.4070409,21.3602143 26.2678456,21.3602143 26.10756,21.3205965 C26.0112672,21.3060499 25.9172434,21.2794234 25.8277634,21.2413611 C25.787692,21.2218998 25.7680078,21.1822821 25.787692,21.1232031 L26.0077331,20.5101711 C26.0478045,20.4309357 26.10756,20.4705534 26.10756,20.4705534 L26.2678456,20.5296325 C26.3479883,20.5490938 26.4281311,20.5490938 26.5082738,20.5490938 C26.6488752,20.5490938 26.7683863,20.5296325 26.8682133,20.4900148 C26.9877244,20.4503971 27.0685702,20.3718567 27.14801,20.2724649 C27.2274497,20.1730731 27.2886113,20.0347586 27.368051,19.8568265 C27.4419603,19.6164175 27.5020463,19.372065 27.5480208,19.1249415 L28.2285313,15.3855858 L27.567705,15.3855858 C27.4875622,15.3855858 27.467878,15.3459681 27.467878,15.2868891 L27.5873891,14.6738572 C27.6070733,14.5751604 27.6872161,14.5946218 27.6872161,14.5946218 L28.3677266,14.5946218 L28.407798,14.3965332 C28.5076249,13.8029627 28.7079818,13.3484016 29.0081657,13.0516163 C29.3083496,12.754831 29.7484318,12.5963602 30.2876379,12.5963602 C30.4479234,12.5963602 30.5878218,12.6158215 30.7080359,12.6359779 C30.7881787,12.6165166 30.8880056,12.6359779 30.9878326,12.6755956 L30.9906446,12.6783758 Z M17.50557,19.1075653 C17.50557,19.1666443 17.4654986,19.206262 17.4254272,19.206262 L16.6254056,19.206262 C16.56565,19.206262 16.5452628,19.1666443 16.5452628,19.1075653 L16.5452628,12.7576112 C16.5452628,12.7179935 16.5853342,12.6589145 16.6254056,12.6589145 L17.4254272,12.6589145 C17.4851828,12.6589145 17.50557,12.6985322 17.50557,12.7576112 L17.50557,19.1075653 Z" fill="#FFF"/></g></svg>