<svg xmlns="http://www.w3.org/2000/svg" viewBox="0 0 601 144"><g fill="none"><path fill="#0082D7" d="M29.5,0.1 L29.5,22.4 L43.5,22.4 L43.5,14.1 L127.6,14.1 L127.6,98.3 L43.6,98.3 L43.6,53.1 L29.6,53.1 L29.6,112.4 L141.8,112.4 L141.8,0.1 L29.5,0.1 Z M0.4,31.7 L0.4,143.9 L112.6,143.9 L112.6,120.7 L98.6,120.7 L98.6,129.9 L14.4,129.9 L14.4,45.7 L98.5,45.7 L98.5,90 L112.5,90 L112.5,31.6 L0.4,31.6 L0.4,31.7 Z"/><path fill="#000" d="M214 73.5L196.5 73.5 196.5 46 214.7 46C224.3 46 230.4 51.6 230.4 60.1 230.3 68.4 224.3 73.5 214 73.5L214 73.5zM196.5 12.7L211.8 12.7C221.4 12.7 226.8 17.4 226.8 25 226.8 33.8 221.2 39.3 212.7 39.3L196.4 39.3 196.5 12.7C196.4 12.7 196.5 12.7 196.5 12.7zM223.2 41.9C231.2 39.5 235.5 33.2 235.5 24.3 235.5 12.5 226.7 5.5 211.8 5.5L188.1 5.5 188.1 80.4 214 80.4C229.7 80.4 239 72.8 239 59.9 239 51.1 233.1 44.3 223.2 41.9zM446.6 50.5C456.6 48.2 462.9 40.6 462.9 28.5 462.9 14.1 453.2 5.6 436.6 5.6L415 5.6 415 80.5 423.4 80.5 423.4 51.5 439.6 51.5 455.9 80.5 465.9 80.5 448.8 52.7 446.6 50.5 446.6 50.5zM524.2 46.3L492.7 46.3 492.7 73.5 527.8 73.5 527.8 80.6 484.3 80.6 484.3 5.6 527.5 5.6 527.5 12.7 492.7 12.7 492.7 39.5 524.2 39.5 524.2 46.3 524.2 46.3zM257.8 80.5L266.2 80.5 266.2 5.5 257.8 5.5 257.8 80.5zM305.4 12.7L284.3 12.7 284.3 5.6 334.8 5.6 334.8 12.7 313.8 12.7 313.8 80.5 305.4 80.5 305.4 12.7zM346.9 12.7L368.1 12.7 368.1 80.5 376.5 80.5 376.5 12.7 397.5 12.7 397.5 5.6 347 5.6 346.9 12.7C347 12.7 346.9 12.7 346.9 12.7L346.9 12.7zM554.7 5.7L571.4 35.4 572.1 38.3 572.8 35.4 589.5 5.7 599.7 5.7 577.4 42.3 577.4 42.3 600.5 80.6 590.2 80.6 572.9 49.8 572.2 46.9 571.5 49.8 554.3 80.6 544 80.6 566.9 42.3 544.6 5.7 554.7 5.7zM438.2 12.8C448.4 12.8 454.4 18.6 454.4 28.6 454.4 39.5 447.7 44.9 437.7 44.9L437.7 44.9 423.4 44.9 423.3 12.8zM213.9 115.7L226 115.7 226 132.3C222.2 133.5 218.3 134.1 214.4 134.1 209.4 134.1 205.6 132.6 202.8 129.7 200.1 126.7 198.7 122.6 198.7 117.2 198.7 111.9 200.2 107.7 203.3 104.7 206.4 101.7 210.6 100.2 215.9 100.2 219.3 100.2 222.6 100.9 225.7 102.2L223.8 106.7C221.3 105.5 218.5 104.9 215.8 104.9 212.3 104.9 209.5 106 207.4 108.2 205.4 110.4 204.3 113.4 204.3 117.3 204.3 121.3 205.2 124.4 207.1 126.5 208.9 128.6 211.6 129.6 215.1 129.6 216.8 129.6 218.7 129.4 220.7 128.9L220.7 120.4 213.9 120.4 213.9 115.7 213.9 115.7zM275.6 133.6L275.6 100.6 281 100.6 281 129 295 129 295 133.6 275.6 133.6 275.6 133.6zM371.6 117.1C371.6 122.5 370.3 126.6 367.6 129.6 364.9 132.6 361.1 134.1 356.2 134.1 351.2 134.1 347.4 132.6 344.7 129.7 342 126.7 340.7 122.5 340.7 117.1 340.7 111.7 342 107.5 344.7 104.6 347.4 101.7 351.2 100.2 356.2 100.2 361.1 100.2 364.9 101.7 367.6 104.6 370.3 107.5 371.6 111.7 371.6 117.1zM346.4 117.1C346.4 121.2 347.2 124.2 348.9 126.4 350.5 128.5 353 129.5 356.2 129.5 359.4 129.5 361.8 128.5 363.4 126.4 365 124.3 365.9 121.2 365.9 117.1 365.9 113.1 365.1 110 363.5 107.9 361.9 105.8 359.5 104.8 356.3 104.8 353.1 104.8 350.6 105.8 349 107.9 347.2 110 346.4 113 346.4 117.1zM420.3 100.6L430.1 100.6C434.6 100.6 437.9 101.3 439.9 102.6 441.9 103.9 442.9 106 442.9 108.9 442.9 110.8 442.4 112.4 441.4 113.7 440.4 115 439 115.8 437.1 116.1L437.1 116.3C439.4 116.7 441.1 117.6 442.2 118.9 443.3 120.2 443.8 121.9 443.8 124.1 443.8 127.1 442.8 129.4 440.7 131.1 438.6 132.8 435.8 133.6 432.1 133.6L420.2 133.6C420.3 133.6 420.3 100.6 420.3 100.6L420.3 100.6zM425.7 114.3L430.9 114.3C433.2 114.3 434.8 114 435.8 113.2 436.8 112.5 437.4 111.3 437.4 109.5 437.4 107.9 436.8 106.8 435.7 106.1 434.6 105.4 432.8 105.1 430.4 105.1L425.7 105.1 425.7 114.3zM425.7 118.6L425.7 129.1 431.4 129.1C433.7 129.1 435.4 128.7 436.5 127.8 437.7 126.9 438.2 125.6 438.2 123.7 438.2 122 437.6 120.7 436.4 119.9 435.2 119.1 433.4 118.7 431.1 118.7 431.1 118.6 425.7 118.6 425.7 118.6L425.7 118.6zM512.9 133.6L509.6 124.4 497 124.4 493.8 133.6 488 133.6 500.3 100.5 506.2 100.5 518.5 133.6 512.9 133.6 512.9 133.6zM508.2 119.8L505.1 110.8C504.4 108.9 503.8 107 503.3 105.1 502.8 107.2 502.2 109.2 501.5 111.2L498.5 119.8 508.2 119.8 508.2 119.8zM564.6 133.6L564.6 100.6 570 100.6 570 129 584 129 584 133.6 564.6 133.6 564.6 133.6z"/></g></svg>