<svg xmlns="http://www.w3.org/2000/svg" viewBox="0 0 120 40"><path fill="#0052FF" d="M22.2009005,5.3044362 C18.2048582,5.3044362 15.0825133,8.2376137 15.0825133,12.1642868 C15.0825133,16.0909599 18.1259758,18.9990345 22.2009005,18.9990345 C26.2758251,18.9990345 29.3722087,16.0407541 29.3722087,12.1391839 C29.3722087,8.2627166 26.3287462,5.3044362 22.2009005,5.3044362 Z M22.2278603,16.1691651 C19.952253,16.1691651 18.2847391,14.4602368 18.2847391,12.1652523 C18.2847391,9.8441994 19.9252932,8.1362366 22.2009005,8.1362366 C24.5034676,8.1362366 26.1699829,9.8702678 26.1699829,12.1652523 C26.1699829,14.4602368 24.5034676,16.1691651 22.2278603,16.1691651 Z M30.2449076,8.288785 L32.2299481,8.288785 L32.2299481,18.745109 L35.405214,18.745109 L35.405214,5.5593272 L30.2449076,5.5593272 L30.2449076,8.288785 Z M7.09142733,8.1352711 C8.75894121,8.1352711 10.0819687,9.1297322 10.5842199,10.6088724 L13.945209,10.6088724 C13.3361171,7.4468723 10.637141,5.3044362 7.11838713,5.3044362 C3.12234487,5.3044362 0,8.2376137 0,12.1652523 C0,16.0928909 3.04346247,19 7.11838713,19 C10.5582586,19 13.3101558,16.8575639 13.9192477,13.6694954 L10.5842199,13.6694954 C10.10793,15.1486356 8.78490251,16.1691651 7.11738862,16.1691651 C4.81482154,16.1691651 3.20122726,14.4602368 3.20122726,12.1652523 C3.20222577,9.8441994 4.78985876,8.1352711 7.09142733,8.1352711 Z M90.576958,10.8898318 L88.2484296,10.5586666 C87.1370865,10.4061182 86.34327,10.0488846 86.34327,9.2069719 C86.34327,8.288785 87.3757307,7.8301743 88.7776406,7.8301743 C90.3123525,7.8301743 91.2918921,8.4674018 91.5035765,9.5130342 L94.5730003,9.5130342 C94.2285139,6.8608161 92.1116699,5.3054017 88.8575215,5.3054017 C85.4965324,5.3054017 83.2738463,6.9631587 83.2738463,9.3093145 C83.2738463,11.5531277 84.7296758,12.8546166 87.6662975,13.262056 L89.9948259,13.5932212 C91.1331288,13.7457696 91.768182,14.1802429 91.768182,14.9960872 C91.768182,16.0417196 90.6568389,16.4752274 89.122127,16.4752274 C87.2429287,16.4752274 86.1845067,15.7356573 86.0257434,14.6137507 L82.9033986,14.6137507 C83.1949639,17.1896946 85.284848,19 89.0951672,19 C92.5619985,19 94.863567,17.4696885 94.863567,14.8425733 C94.863567,12.4964175 93.1970517,11.2721683 90.576958,10.8898318 Z M33.8175811,0.1274455 C32.6533169,0.1274455 31.7796195,0.943289801 31.7796195,2.0651964 C31.7796195,3.187103 32.6523184,4.0029473 33.8175811,4.0029473 C34.9818452,4.0029473 35.8555426,3.187103 35.8555426,2.0651964 C35.8555426,0.943289801 34.9818452,0.1274455 33.8175811,0.1274455 Z M80.4161069,10.0739875 C80.4161069,7.2180497 78.6167895,5.3054017 74.8064704,5.3054017 C71.2078356,5.3054017 69.1968338,7.0655013 68.7994263,9.7688907 L71.948731,9.7688907 C72.1074943,8.7232583 72.9542319,7.8562427 74.7535493,7.8562427 C76.368142,7.8562427 77.1619585,8.5446415 77.1619585,9.38655419 C77.1619585,10.4833579 75.706129,10.7633518 73.9068117,10.9419686 C71.4724411,11.1968596 68.4559384,12.0127039 68.4559384,15.0733269 C68.4559384,17.4455511 70.2822156,18.9748971 73.1928761,18.9748971 C75.4684834,18.9748971 76.897353,18.0567102 77.6122871,16.6026729 C77.7181293,17.9031963 78.7236302,18.745109 80.1265386,18.745109 L81.9787771,18.745109 L81.9787771,16.0166167 L80.4171054,16.0166167 L80.4171054,10.0739875 L80.4161069,10.0739875 Z M77.293762,13.3895015 C77.293762,15.1496011 75.706129,16.4501245 73.7740097,16.4501245 C72.5827857,16.4501245 71.5772848,15.9654454 71.5772848,14.9458814 C71.5772848,13.645358 73.1918776,13.2881244 74.6736683,13.135576 C76.102538,13.0081305 76.8963545,12.7020682 77.293762,12.1150465 L77.293762,13.3895015 Z M60.4378926,5.3044362 C58.6645365,5.3044362 57.1827457,6.0189034 56.1243237,7.2170842 L56.1243237,0 L52.9490578,0 L52.9490578,18.745109 L56.0714026,18.745109 L56.0714026,17.0110778 C57.1298246,18.2604299 58.6385752,19 60.4378926,19 C64.2482118,19 67.1329109,16.0928909 67.1329109,12.1652523 C67.1329109,8.2376137 64.1952907,5.3044362 60.4378926,5.3044362 Z M59.9616027,16.1691651 C57.6859954,16.1691651 56.0184815,14.4602368 56.0184815,12.1652523 C56.0184815,9.8702678 57.7119567,8.1362366 59.987564,8.1362366 C62.2901311,8.1362366 63.9037254,9.8451649 63.9037254,12.1652523 C63.9037254,14.4602368 62.23721,16.1691651 59.9616027,16.1691651 Z M45.3543807,5.3044362 C43.2904579,5.3044362 41.9404706,6.1202805 41.1466541,7.2682555 L41.1466541,5.5593272 L37.9973494,5.5593272 L37.9973494,18.7441435 L41.1726154,18.7441435 L41.1726154,11.5782306 C41.1726154,9.56324 42.4956429,8.1352711 44.4537235,8.1352711 C46.2800007,8.1352711 47.4173051,9.3846232 47.4173051,11.1958941 L47.4173051,18.745109 L50.5925715,18.745109 L50.5925715,10.9670715 C50.5935696,7.650592 48.821212,5.3044362 45.3543807,5.3044362 Z M110,11.7317445 C110,7.9576198 107.142261,5.3054017 103.304982,5.3054017 C99.230057,5.3054017 96.2395156,8.2636821 96.2395156,12.1652523 C96.2395156,16.2715077 99.4417414,19 103.357903,19 C106.665971,19 109.259105,17.1124549 109.920119,14.4351339 L106.612051,14.4351339 C106.135761,15.6082118 104.971497,16.2715077 103.409825,16.2715077 C101.371864,16.2715077 99.8371519,15.0472585 99.493664,12.9048224 L109.999001,12.9048224 L109.999001,11.7317445 L110,11.7317445 Z M99.6793871,10.711215 C100.182637,8.8748412 101.611506,7.9827227 103.252061,7.9827227 C105.051378,7.9827227 106.427327,8.9771838 106.744853,10.711215 L99.6793871,10.711215 Z" transform="translate(5 10)"/></svg>