<svg xmlns="http://www.w3.org/2000/svg" viewBox="0 0 120 40"  xmlns:v="https://vecta.io/nano"><defs><radialGradient id="A" cx="-16.694%" cy="161.775%" r="413.617%" fx="-16.694%" fy="161.775%" gradientTransform="scale(.99902 1) rotate(-9.531 -.167 1.619)"><stop offset="0%" stop-color="#fed576"/><stop offset="26.3%" stop-color="#f47133"/><stop offset="60.9%" stop-color="#bc3081"/><stop offset="100%" stop-color="#4c63d2"/></radialGradient><radialGradient id="B" cx="-448.523%" cy="733.485%" r="1735.124%" fx="-448.523%" fy="733.485%" gradientTransform="matrix(.9862 -.1645 .16558 .97975 -1.276 -.59)"><stop offset="0%" stop-color="#fed576"/><stop offset="26.3%" stop-color="#f47133"/><stop offset="60.9%" stop-color="#bc3081"/><stop offset="100%" stop-color="#4c63d2"/></radialGradient><radialGradient id="C" cx="15.932%" cy="107.29%" r="211.728%" fx="15.932%" fy="107.29%" gradientTransform="scale(.9982 1) rotate(-9.531 .16 1.071)"><stop offset="0%" stop-color="#fed576"/><stop offset="26.3%" stop-color="#f47133"/><stop offset="60.9%" stop-color="#bc3081"/><stop offset="100%" stop-color="#4c63d2"/></radialGradient></defs><g fill="none" transform="translate(10 4)"><path fill="#16375f" d="M36.158 10.816c1.228-1.205 1.989-1.242 1.989-1.242a2 2 0 0 1 .821.168c.582.202.614.519.614.519v8.833c.075 2.47-.54 3.418-1.275 4.079a1.56 1.56 0 0 1-.797.384c-.047.012-.097.002-.135-.028s-.061-.075-.062-.123a1.79 1.79 0 0 1 .109-.499c.371-.954.34-2.592.34-2.592l.035-9.509s.029-.175-.119-.104c-1.449 1.246-1.632 3.005-1.678 3.858-.024 1.278.519 1.939.519 1.939.085.079.13.191.125.306.006.062-.016.123-.06.166s-.105.066-.166.06c-.546-.053-1.416-.667-1.725-1.412-.162-.36-.251-.748-.26-1.143.137-1.384.749-2.677 1.732-3.661l-.007-.001zm63.281 8.432c0 2.837-1.719 2.792-1.719 2.792-1.637.057-2.054-1.67-2.156-3.426-.079-1.322 0-2.792 0-2.792s0-.068-.057 0c-.548.991-.919 2.5-1.102 3.665-.08.516-.129 1.037-.146 1.559a.26.26 0 0 1-.111.26c-.889.408-1.46-.171-1.662-.818-.26-.614-.426-4.302-.426-4.494s-.154-.06-.154-.06c-1.232 2.044-1.242 5.074-1.242 5.682s-1.039.421-1.039.421c-.889-.068-.854-.5-.854-.5l-.041-.732c-.309.57-.881 1.298-1.763 1.249-1.335-.086-1.592-1.468-1.614-1.702 0 0-.665 1.719-2.491 1.702-1.242-.021-1.74-1.298-1.74-1.298s-.5 1.342-1.719 1.298-2.228-1.456-2.151-3.286a11.98 11.98 0 0 1 .369-2.746s.099-.175-.068-.195-1.221.018-1.221.018-.596 2.392-3.118 5.367l.018 1.965c0 1.956-.244 4.579-2.895 4.793-2.291-.156-2.161-1.921-2.161-1.921-.054-.519.272-1.475 1.64-2.759l1.912-1.777-.054-.821c-.875 1.447-2.213 1.367-2.213 1.367s-1.039.211-1.904-1.327c-.26.519-.837 1.426-1.787 1.322-1.335-.149-1.6-1.478-1.621-1.715 0 0-.667 1.735-2.504 1.715-1.246-.021-1.748-1.311-1.748-1.311-.139-.285-.244-.585-.314-.894l-.054.161c-.283.725-.982 1.984-2.057 2-1.974 0-2.057-3.06-2.057-3.06-.576 1.368-1.691 3.096-3.769 3.086s-2.338-.761-2.338-.87c-.014-.21.059-.417.203-.572.239-.346.439-.489.614-.489.173.048.333.137.465.26.263.251.602.407.964.441.654-.024.798-.548.844-1.083s-.333-1.107-.857-1.584l-.925-.844-1.735 2.858c-1.011 1.645-2.013 1.899-2.4 1.847-.526-.073-1.039-.618-1.07-2.216l.119-4.465c0-.143-.13-.073-.13-.073-1.997 2.119-2.596 6.479-2.596 6.564-.071.127-.212.198-.356.179-.179 0 .06 0-.654-.035s-.665-1.375-.665-1.375l.046-6.494c0-.216.213-.309.891-.13s.654.389.654.389l-.024 3.772c1.748-5.156 3.068-4.348 3.866-3.954s.678.961.678.961l-.119 3.833c-.035 1 .105 1.392.333 1.43.567.135 2.556-3.704 2.556-3.704-.881-.954-.4-2.118.286-2.621a2.2 2.2 0 0 1 1.039-.382s.891-.046.868.704c.024.821-.891 1.818-.891 1.818 1.772 1.263 2.596 1.93 2.735 2.907a1.78 1.78 0 0 1-.052.772c1.26-1.096 1.356-2.322 1.356-2.322l.021-4.099-1.868-.024s-.143 0-.175-.36a1.19 1.19 0 0 1 .346-.93l1.782.024.07-2.143c.06-.43.333-.489 1.117-.286s.779.382.779.382l-.088 2.156 2.224.119c.263.024.346.088.286.526a.65.65 0 0 1-.322.548l-2.211.046-.154 4.754c0 .737.035 2.478.725 2.456.965.046 1.532-2.11 1.532-2.11v-.018c-.013-.398.002-.796.044-1.192.182-1.732.965-3.761 2.728-3.761.7.015 1.334.415 1.649 1.039l.029-.389s-.039-.47.706-.354 1 .411.982.646l-.06 4.801c.099 1.039.278 1.647.805 1.605.454-.068.779-.689.972-1.216-.66-5.486 2.338-6.152 2.338-6.152s1.33-.088 1.935 1.011l.018-.368s-.06-.486.644-.351a3.12 3.12 0 0 1 .605.156c.311.117.411.195.411.486l-.06 5.418s1.559-2.099 1.956-4.14a1.3 1.3 0 0 1-.519-.992c.039-.584.333-1.283 1.193-1.283s.93.761.803 1.281c0 0 .722-.088 1.348-.26s1.465-.26 1.525.719c.022.215-.018.431-.117.624 0 0-.496 2.167-.418 3.042s.311 2.197.997 2.042.919-1.127.919-1.127c-.171-.799-.218-1.619-.138-2.432.182-1.719.951-3.732 2.718-3.732.698.016 1.329.416 1.642 1.039l.021-.389s-.039-.468.704-.351.997.408.976.64l-.06 4.763c.099 1.039.275 1.637.8 1.595s.932-.87 1.197-1.559v-.26l.016-5.058a.34.34 0 0 1 .304-.306l.608.094c.851.127.732.452.732.452v2.858c.632-1.94.935-2.681 1.221-3.175.244-.421 1.039-.146 1.039-.146s.868.232.877 1.039c-.026 1.319.161 3.468.161 3.468s.033.044.049.029c.009-.014.013-.03.013-.046a17.78 17.78 0 0 1 1.273-4.245c.314-.589 1.224-.171 1.224-.171 1.091.374.943 1.021.943 1.021-.322 5.546.364 5.896.769 5.933s.618-.489.706-.737.202-.795.26-1.011c.039-.125.15-.215.281-.226a.31.31 0 0 1 .26.26l-.006.012zm-36.816-4.25c-.382.016-1.281.26-1.442 2.763s.502 3.146 1.06 3.219 1.559-.825 1.605-3.482-1.224-2.5-1.224-2.5h.001zm7.833 0c-.389.016-1.367.356-1.588 2.775-.164 2.53.519 3.184 1.075 3.261s1.559-.833 1.629-3.528-1.117-2.494-1.117-2.494v-.013zm1.298 7.76c-2.213 1.912-2.405 3.278-2.405 3.278s-.219 1.119.846 1.175c1.281.13 1.496-1.426 1.53-2.788l.041-1.652-.012-.014zm12.149-7.671c-.382.016-1.281.26-1.442 2.763s.502 3.146 1.06 3.219 1.559-.825 1.605-3.482-1.224-2.5-1.224-2.5h.001z"/><g transform="translate(.837 .042)"><path fill="url(#A)" d="M15.756 7.756a8.02 8.02 0 0 0-.817.042 7.99 7.99 0 0 0-.794.122c-.261.054-.517.12-.767.198l-.736.27-.701.338-.661.402-.618.462-.57.518-.519.57-.463.617-.403.661-.339.7c-.102.239-.192.485-.271.736a7.94 7.94 0 0 0-.198.767 7.97 7.97 0 0 0-.122.794 7.98 7.98 0 0 0-.042.817c0 .276.014.548.042.817a7.94 7.94 0 0 0 .122.794c.054.261.12.516.198.767s.169.496.271.736l.339.7.403.661.463.617.519.57.57.518.618.462.661.402.701.338.736.27.767.198a7.96 7.96 0 0 0 .794.122c.272.028.544.042.817.042a8.05 8.05 0 0 0 .817-.042 7.96 7.96 0 0 0 .794-.122l.767-.198.736-.27.701-.338.662-.402.618-.462.57-.518.519-.57.463-.617.403-.661.339-.7.271-.736a7.94 7.94 0 0 0 .198-.767l.122-.794a8.01 8.01 0 0 0 0-1.633c-.027-.266-.068-.531-.122-.794a7.87 7.87 0 0 0-.198-.767l-.271-.736-.339-.7-.403-.661-.463-.617-.519-.57-.57-.518-.618-.462-.662-.402-.701-.338-.736-.27-.767-.198-.794-.122c-.272-.028-.544-.042-.817-.042h0zm0 2.766c.182 0 .362.009.54.027l.523.079.505.129.483.176.46.22.432.262.404.301.372.338.338.372.301.404.262.433.22.459.176.483c.051.165.094.333.129.504s.06.346.079.523l.027.539a5.37 5.37 0 0 1-.027.539 5.28 5.28 0 0 1-.079.523l-.129.504-.176.483-.22.459-.262.433-.301.404-.338.372-.372.338-.404.301-.432.262-.46.22-.483.176-.505.129-.523.079c-.179.018-.359.027-.54.027s-.36-.009-.54-.027l-.523-.079a5.26 5.26 0 0 1-.505-.129l-.483-.176-.46-.22-.432-.262-.404-.301-.372-.338-.338-.372-.301-.404-.262-.433-.22-.459-.176-.483-.129-.504-.079-.523a5.4 5.4 0 0 1 0-1.079c.018-.177.044-.352.079-.523s.077-.338.129-.504l.176-.483.22-.459.262-.433.301-.404.338-.372.372-.338.404-.301.432-.262.46-.22a5.22 5.22 0 0 1 .483-.176l.505-.129a5.32 5.32 0 0 1 .523-.079c.179-.018.36-.027.54-.027h0z"/><path fill="url(#B)" d="M24.103 5.477c-.064 0-.127.003-.191.01l-.189.029-.185.048a1.9 1.9 0 0 0-.179.066l-.172.084-.163.1-.152.116c-.049.041-.095.085-.14.131a1.92 1.92 0 0 0-.126.144l-.111.156-.095.167a1.93 1.93 0 0 0-.078.175l-.06.182c-.017.062-.031.124-.042.188s-.019.127-.023.191l-.005.136c0 .064.003.128.01.192l.029.19c.013.063.028.125.047.186l.066.181a1.93 1.93 0 0 0 .083.173c.031.056.064.111.1.164l.116.153a1.92 1.92 0 0 0 .13.141c.046.045.094.087.143.127a1.91 1.91 0 0 0 .155.112l.166.096.174.079.181.061a1.9 1.9 0 0 0 .186.042l.19.023.135.005c.064 0 .127-.003.191-.01l.189-.029.185-.048.179-.066c.059-.025.116-.053.172-.084a1.91 1.91 0 0 0 .315-.217c.049-.041.095-.085.14-.131l.126-.144.111-.156c.034-.054.066-.11.095-.167l.078-.175a1.93 1.93 0 0 0 .06-.182l.042-.188c.011-.063.019-.127.023-.191l.005-.136-.01-.192c-.006-.064-.016-.127-.029-.19s-.028-.125-.047-.186a1.93 1.93 0 0 0-.066-.181l-.083-.173-.1-.164-.116-.153a1.92 1.92 0 0 0-.13-.141c-.046-.045-.094-.087-.143-.127l-.155-.112-.166-.096-.174-.079-.181-.061-.186-.042-.19-.023-.135-.005h0z"/><path fill="url(#C)" d="M14.235.092a154.65 154.65 0 0 0-2.35.012l-1.875.05-1.487.096-.625.068-.561.083L6.83.5l-.464.115-.433.132-.412.151-.804.361-.584.319-.526.356-.505.42-.521.512-.595.673-.245.323-.217.325-.195.336-.178.356c-.114.246-.221.51-.328.805l-.212.663-.171.726-.133.844-.1 1.014-.071 1.238-.045 1.517-.024 1.849-.007 2.235.021 3.249.064 2.462.05.962.062.797.074.643.088.499.225.868.284.81.344.753a8.1 8.1 0 0 0 .404.697 7.66 7.66 0 0 0 .465.642c.165.205.341.401.526.587a7.74 7.74 0 0 0 .588.534l.65.481.622.384.632.32.666.262.725.209.807.163.913.123 1.044.088 1.198.059 2.813.043 3.733-.008 3.535-.05 1.344-.038.876-.045.549-.055.523-.073.501-.092.483-.113.469-.134.46-.157.454-.181.453-.206.584-.296c.155-.085.303-.18.446-.284a5.18 5.18 0 0 0 .441-.369l.569-.552.51-.527.372-.434a4.61 4.61 0 0 0 .283-.402l.243-.433.323-.663.255-.618.196-.633.148-.707.109-.842.08-1.037.061-1.291.053-1.605.038-1.789.014-1.87-.034-3.673-.045-1.645-.061-1.413-.076-1.101-.089-.711-.118-.538-.139-.518-.161-.497-.181-.477-.203-.456-.225-.435-.246-.415-.267-.394-.288-.373-.31-.353-.331-.332-.352-.311-.373-.29-.395-.27-.416-.249-.437-.228-.695-.319-.669-.248c-.228-.072-.466-.133-.727-.187l-.869-.135-1.094-.093-1.404-.061-1.797-.04-2.275-.027-2.913-.018h-.001zm1.513 2.764l4.201.024 1.585.031.965.043.728.08.663.114.605.151.553.19.508.232a5.17 5.17 0 0 1 .469.277 5.29 5.29 0 0 1 .437.324l.411.374c.141.14.271.283.391.431s.23.3.331.46a4.66 4.66 0 0 1 .276.504c.083.177.158.364.225.562l.18.635.139.723.104.825.073.942.042 1.042.029 1.428.023 3.499-.026 3.496-.031 1.424-.042 1.036-.097 1.248-.061.496-.074.435-.091.392-.111.367-.136.361-.163.374-.161.321-.178.303-.196.286-.214.269-.232.251-.25.234-.269.217-.288.201-.307.184-.327.168-.347.152-.367.136a8.26 8.26 0 0 1-.795.226l-.879.165c-.114.017-.375.032-.748.047l-1.425.04-4.039.052-4.227.007-1.66-.018-1.078-.034-.795-.056-.691-.07-.604-.088-.532-.111-.476-.136-.437-.166-.413-.2-.405-.238-.296-.2-.275-.212-.255-.225-.236-.239-.217-.254-.198-.271-.181-.289-.163-.308-.147-.329-.131-.351a7.79 7.79 0 0 1-.218-.773l-.162-.876-.111-.99-.052-1.166-.027-1.801.01-4.592.079-4.388.06-1.546.034-.511.037-.298.126-.559.134-.489.149-.431.17-.386.197-.354.231-.335.272-.329.319-.337.417-.386c.136-.116.279-.225.426-.326s.294-.19.449-.272.316-.156.485-.223l.536-.181.6-.142.678-.11.77-.083.953-.044 1.577-.031 4.194-.026v.001z"/></g></g></svg>