<svg viewBox="0 0 123 30" xmlns="http://www.w3.org/2000/svg"><path d="m26.896 5-4.137 15.906L38.831 25l4.137-15.906L26.896 5Zm53.34 1.781v16.425h16.596V6.78H80.236Zm18.58 0 6.482 8.113-6.483 8.312h7.975l2.54-3.263 2.628 3.263H120l-6.683-8.356 6.282-8.069h-7.975l-2.339 3.02-2.45-3.02h-8.02ZM4 6.781v16.425h7.351v-6.084c1.983 0 2.918 1.719 3.23 6.084H22.2c-.335-3.152-1.426-5.864-3.208-7.87 1.225-.838 1.893-2.117 1.893-3.638 0-2.447-1.848-4.916-6.036-4.916H4Zm40.681 0v16.425h11.584c3.876 0 5.68-2.006 5.68-4.541 0-1.411-.512-2.668-2.606-3.77 1.67-.948 2.16-2.183 2.16-3.528 0-1.896-1.068-4.585-6.437-4.585h-10.38Zm19.516 0v16.425h13.79v-4.122h-6.439V6.782h-7.35ZM52.033 10.09h.445c1.493 0 1.938.683 1.938 1.587 0 1.168-.601 1.61-2.205 1.61h-.178V10.09Zm-40.682.066h.446c1.38 0 1.737.926 1.737 1.631 0 1.058-.646 1.543-1.982 1.543h-.2v-3.174Zm20.347 2.892 3.137.8-.807 3.104-3.137-.799.807-3.105Zm55.216.343h3.24v3.206h-3.24V13.39Zm-34.881 2.651h.512c1.537 0 2.049.772 2.049 1.852 0 1.235-.646 1.698-2.34 1.698h-.221v-3.55Z" fill="#E2231A"/></svg>