<svg width="120" height="40" viewBox="0 0 120 40" xmlns="http://www.w3.org/2000/svg"><g transform="translate(13 4)" fill="none" fill-rule="evenodd"><g transform="translate(38.866 7.714)"><ellipse fill="#FF4500" cx="46.014" cy="3.303" rx="2.048" ry="2.024"/><path d="M16.7672283 11.9331806C17.7718361 11.9331806 18.351196 11.1886469 18.312668 10.4629757 18.2935841 10.0810997 18.254696 9.83268457 18.216168 9.64192451 17.5979202 7.00722913 15.4345927 5.05941233 12.8651012 5.05941233 9.81310986 5.05941233 7.34047839 7.78984363 7.34047839 11.1502102 7.34047839 14.5105768 9.81310986 17.2410081 12.8651012 17.2410081 14.7778168 17.2410081 16.1493405 16.5537736 17.1345043 15.4654448 17.6173642 14.9308895 17.5208642 14.1098383 16.9411443 13.7087439 16.4582844 13.3841671 15.8594806 13.4987655 15.4151487 13.8614231 14.9902608 14.2244367 14.179013 14.949752 12.8651012 14.949752 11.3200216 14.949752 10.0064699 13.6322263 9.7166099 11.8947439L16.7672283 11.8947439 16.7672283 11.9331806ZM12.8460172 7.36988678C14.2366249 7.36988678 15.4345927 8.43899726 15.8789246 9.90920213L9.81310986 9.90920213C10.2574418 8.4201348 11.4550495 7.36988678 12.8460172 7.36988678ZM7.45642238 6.26233957C7.45642238 5.68970349 7.03153449 5.23130992 6.49070261 5.13592989 4.80987493 4.88787063 3.22590729 5.49858754 2.31815952 6.62535312L2.31815952 6.47231799C2.31815952 5.76586516 1.7384396 5.32704584 1.15907976 5.32704584.52138785 5.32704584 0 5.84238272 0 6.47231799L0 15.8281024C0 16.4391752.463415858 16.9737305 1.08166374 17.0118113 1.75788362 17.0498921 2.31815952 16.5345552 2.31815952 15.8661832L2.31815952 11.0356118C2.31815952 8.89739084 3.94065513 7.14068999 6.18139863 7.38910514 6.25881465 7.38910514 6.33587059 7.38910514 6.4132866 7.38910514 6.99264644 7.35066842 7.45642238 6.85419401 7.45642238 6.26233957ZM47.1726378 7.48448517C47.1726378 6.85419401 46.6512499 6.33885713 46.0139181 6.33885713 45.3762262 6.33885713 44.8548383 6.85419401 44.8548383 7.48448517 44.8548383 7.52256601 44.8548383 15.5035256 44.8548383 15.8661832 44.8548383 16.4964744 45.3762262 17.0118113 46.0139181 17.0118113 46.6512499 17.0118113 47.1726378 16.4964744 47.1726378 15.8661832 47.1726378 15.522744 47.1726378 7.54178437 47.1726378 7.48448517ZM29.9416335 1.14562804C29.9416335.515336877 29.4202456 0 28.7825537 0 28.1452219 0 27.623834.515336877 27.623834 1.14562804L27.623834 6.2434771C26.8316702 5.46050671 25.8465064 5.07863069 24.6679826 5.07863069 21.6159913 5.07863069 19.1433598 7.80906199 19.1433598 11.1694286 19.1433598 14.5297951 21.6159913 17.2602264 24.6679826 17.2602264 25.8465064 17.2602264 26.8511142 16.8591321 27.642918 16.0761617 27.739418 16.6110728 28.2226379 17.0118113 28.7825537 17.0118113 29.4202456 17.0118113 29.9416335 16.4964744 29.9416335 15.8661832L29.9416335 1.14562804ZM24.6874266 14.9878328C22.910099 14.9878328 21.4806033 13.2887871 21.4806033 11.1694286 21.4806033 9.06928843 22.910099 7.35066842 24.6874266 7.35066842 26.4647543 7.35066842 27.89425 9.05007007 27.89425 11.1694286 27.89425 13.2887871 26.4453103 14.9878328 24.6874266 14.9878328ZM42.0343749 1.14562804C42.0343749.515336877 41.512987 0 40.8752951 0 40.2379633 0 39.7162154.515336877 39.7162154 1.14562804L39.7162154 6.2434771C38.9244116 5.46050671 37.9392478 5.07863069 36.760724 5.07863069 33.7087327 5.07863069 31.2361012 7.80906199 31.2361012 11.1694286 31.2361012 14.5297951 33.7087327 17.2602264 36.760724 17.2602264 37.9392478 17.2602264 38.9434955 16.8591321 39.7356594 16.0761617 39.8321594 16.6110728 40.3150192 17.0118113 40.8752951 17.0118113 41.512987 17.0118113 42.0343749 16.4964744 42.0343749 15.8661832L42.0343749 1.14562804ZM36.760724 14.9878328C34.9833964 14.9878328 33.5542608 13.2887871 33.5542608 11.1694286 33.5542608 9.06928843 34.9833964 7.35066842 36.760724 7.35066842 38.5380517 7.35066842 39.9675474 9.05007007 39.9675474 11.1694286 39.9675474 13.2887871 38.5380517 14.9878328 36.760724 14.9878328ZM53.0450925 15.8854016 53.0450925 7.36988678 54.0691443 7.36988678C54.6099762 7.36988678 55.0928361 6.9687924 55.131364 6.4150188 55.1702521 5.82316436 54.6873922 5.32704584 54.1076723 5.32704584L53.0450925 5.32704584 53.0450925 3.72302422C53.0450925 3.11195142 52.5816766 2.57739618 51.9634287 2.53931535 51.2872089 2.50123451 50.727293 3.01657139 50.727293 3.68494339L50.727293 5.34590831 49.7612132 5.34590831C49.2203813 5.34590831 48.7375215 5.74700269 48.6989935 6.3007763 48.6601054 6.89263074 49.1433254 7.38910514 49.7226852 7.38910514L50.707849 7.38910514 50.707849 15.90462C50.707849 16.5345552 51.2295969 17.0498921 51.8669288 17.0498921 52.5431487 17.0118113 53.0450925 16.5153369 53.0450925 15.8854016Z" fill="#222" fill-rule="nonzero"/></g><ellipse fill="#FF4500" cx="16.188" cy="16" rx="16.188" ry="16"/><path d="M26.9861421,16 C26.9861421,14.7016927 25.9239224,13.6706631 24.6294547,13.6706631 C23.9921228,13.6706631 23.4124029,13.9187223 22.987515,14.3198167 C21.3650194,13.1741887 19.1433598,12.429655 16.6707284,12.334275 L17.7523921,7.33180595 L21.2681594,8.07633961 C21.3070474,8.95469004 22.0408792,9.66114287 22.948987,9.66114287 C23.8761788,9.66114287 24.6294547,8.9166092 24.6294547,7.99982205 C24.6294547,7.0833908 23.8761788,6.33885713 22.948987,6.33885713 C22.2922112,6.33885713 21.7124913,6.72073315 21.4420753,7.27450675 L17.5208642,6.45345552 C17.4049202,6.43423716 17.2889763,6.45345552 17.2115602,6.51075472 C17.1150603,6.56805392 17.0570883,6.66343395 17.0380043,6.77803234 L15.8400365,12.3531374 C13.3288771,12.429655 11.0686896,13.1741887 9.42674994,14.3390351 C9.00186205,13.9379407 8.42214214,13.6898814 7.7848103,13.6898814 C6.47125859,13.6898814 5.42812282,14.7397736 5.42812282,16.0192184 C5.42812282,16.9737305 6.00748266,17.7755633 6.81909054,18.1385769 C6.7802025,18.3674178 6.76111855,18.5966145 6.76111855,18.8450297 C6.76111855,22.4342372 10.9916336,25.3557844 16.2073125,25.3557844 C21.4229914,25.3557844 25.6535065,22.4534555 25.6535065,18.8450297 C25.6535065,18.6158329 25.6340625,18.3674178 25.5955345,18.1385769 C26.4067823,17.7755633 26.9861421,16.9545121 26.9861421,16 Z M10.7982736,17.6609649 C10.7982736,16.7445337 11.5515495,16 12.4791013,16 C13.4062931,16 14.1595689,16.7445337 14.1595689,17.6609649 C14.1595689,18.5773962 13.4062931,19.3222857 12.4791013,19.3222857 C11.5515495,19.3411482 10.7982736,18.5773962 10.7982736,17.6609649 Z M20.2059396,22.0715795 C19.0468599,23.2172076 16.8446443,23.2937251 16.2073125,23.2937251 C15.5505367,23.2937251 13.3483211,23.1979892 12.2083253,22.0715795 C12.0347694,21.8996819 12.0347694,21.6324043 12.2083253,21.4605067 C12.3822413,21.288965 12.6526572,21.288965 12.8265732,21.4605067 C13.5607651,22.1861779 15.1062047,22.4342372 16.2073125,22.4342372 C17.3084203,22.4342372 18.8729439,22.1861779 19.5876918,21.4605067 C19.7616077,21.288965 20.0320237,21.288965 20.2059396,21.4605067 C20.3604116,21.6324043 20.3604116,21.8996819 20.2059396,22.0715795 Z M19.8966357,19.3411482 C18.9694439,19.3411482 18.216168,18.5966145 18.216168,17.6801833 C18.216168,16.763752 18.9694439,16.0192184 19.8966357,16.0192184 C20.8241875,16.0192184 21.5774633,16.763752 21.5774633,17.6801833 C21.5774633,18.5773962 20.8241875,19.3411482 19.8966357,19.3411482 Z" fill="#FFF" fill-rule="nonzero"/></g></svg>