<svg xmlns="http://www.w3.org/2000/svg" viewBox="0 0 120 40"><path fill="#7289DA" d="M14.5949219,11.4664063 C13.8136719,11.4664063 13.1886719,12.1421875 13.1886719,12.9820313 C13.1886719,13.821875 13.8226562,14.4976563 14.5949219,14.4976563 C15.3761719,14.4976563 16.0011719,13.821875 16.0011719,12.9820313 C16.0011719,12.1421875 15.3671875,11.4664063 14.5949219,11.4664063 L14.5949219,11.4664063 Z M9.56445312,11.4664063 C8.78320312,11.4664063 8.15820312,12.1421875 8.15820312,12.9820313 C8.15820312,13.821875 8.7921875,14.4976563 9.56445312,14.4976563 C10.3457031,14.4976563 10.9707031,13.821875 10.9707031,12.9820313 C10.984375,12.1414063 10.3503906,11.4664063 9.56445312,11.4664063 L9.56445312,11.4664063 Z M21.2890625,0 L2.82539062,0 C1.26796875,0 0,1.26796875 0,2.82539063 L0,21.2890625 C0,22.8464844 1.26796875,24.1144531 2.82539062,24.1144531 L18.4503906,24.1144531 L17.7199219,21.5925781 L19.4839844,23.21875 L21.1519531,24.7484375 L24.1285156,27.3257812 L24.1285156,2.82539063 C24.1179687,1.26796875 22.85,0 21.2890625,0 Z M15.9765625,17.8515625 L15.0664062,16.7492188 C16.871875,16.2394531 17.5609375,15.1230469 17.5609375,15.1230469 C16.9957031,15.4953125 16.4585937,15.7570313 15.9761719,15.9363281 C15.2871094,16.2253906 14.6253906,16.4050781 13.9777344,16.5289063 C12.6546875,16.7769531 11.4417969,16.7085938 10.4082031,16.5152344 C9.62695312,16.3636719 8.94726562,16.1570313 8.38242187,15.9226563 C8.03676338,15.789406 7.70057051,15.6327944 7.37617187,15.4539063 C7.33476562,15.4265625 7.29335937,15.4125 7.25195312,15.3851563 C7.22460937,15.3714844 7.21054687,15.3578125 7.19726562,15.3578125 C6.94921875,15.2199219 6.81132812,15.1234375 6.81132812,15.1234375 C6.81132812,15.1234375 7.47265625,16.2121094 9.22304687,16.7359375 C8.80976562,17.259375 8.29960937,17.8660156 8.29960937,17.8660156 C5.25390625,17.7695313 4.09648437,15.7851563 4.09648437,15.7851563 C4.09648437,11.3886719 6.08085937,7.81953125 6.08085937,7.81953125 C8.06523437,6.34492188 9.94023437,6.3858236 9.94023437,6.3858236 L10.078125,6.55117188 C7.59765625,7.25429688 6.4671875,8.34296875 6.4671875,8.34296875 C6.4671875,8.34296875 6.7703125,8.17773438 7.28046875,7.95703125 C8.75507812,7.309375 9.9265625,7.14375 10.4054687,7.08867188 C10.4882812,7.075 10.5570312,7.06132813 10.6398437,7.06132813 C11.5634108,6.94098402 12.4980755,6.93180393 13.4238281,7.03398438 C14.7332031,7.18554688 16.1386719,7.57148438 17.5722656,8.34335938 C17.5722656,8.34335938 16.4835937,7.30976563 14.140625,6.60703125 L14.3335937,6.38632813 C14.3335937,6.38632813 16.221875,6.34492188 18.1929687,7.81992188 C18.1929687,7.81992188 20.1773437,11.3894531 20.1773437,15.7859375 C20.1773437,15.7722656 19.0195312,17.7566406 15.9742187,17.853125 L15.9765625,17.8515625 Z M36.7871094,5.8984375 L32.2078125,5.8984375 L32.2078125,11.0390625 L35.2535156,13.78125 L35.2535156,8.7890625 L36.8796875,8.7890625 C37.9132812,8.7890625 38.4226563,9.28515625 38.4226563,10.084375 L38.4226563,13.90625 C38.4226563,14.7054687 37.9402344,15.2429687 36.8796875,15.2429687 L32.1941406,15.2429687 L32.1941406,18.1508942 L36.7695312,18.1508942 C39.2226562,18.1644531 41.5242794,16.9378906 41.5242794,14.1265625 L41.5242794,10.0195312 C41.5378906,7.153125 39.2363281,5.8984375 36.7832031,5.8984375 L36.7871094,5.8984375 Z M60.7714844,14.1261719 L60.7714844,9.90898438 C60.7714844,8.39335938 63.5003906,8.0484375 64.3273437,9.56445312 L66.8492187,8.54882812 C65.8570312,6.37148438 64.0515625,5.7375 62.5492187,5.7375 C60.0960937,5.7375 57.6664062,7.15703125 57.6664062,9.9171875 L57.6664062,14.134375 C57.6664062,16.9183594 60.0882812,18.3140625 62.4898437,18.3140625 C64.0328125,18.3140625 65.8804687,17.55625 66.9039062,15.571875 L64.2027344,14.3316406 C63.5414062,16.0269531 60.7710937,15.6128906 60.7710937,14.1386719 L60.7714844,14.1261719 Z M52.421875,10.4882812 C51.4710937,10.28125 50.8371094,9.94140625 50.7957031,9.34453125 C50.8503906,7.925 53.0417969,7.86992187 54.3238281,9.234375 L56.3496094,7.67695312 C55.0816406,6.13398437 53.6484375,5.72382812 52.1699219,5.72382812 C49.9238281,5.72382812 47.7460938,6.99179687 47.7460938,9.38984375 C47.7460938,11.7191406 49.5378906,12.9730469 51.5085937,13.2765625 C52.5148437,13.4144531 53.6308594,13.8140625 53.6035156,14.503125 C53.5207031,15.8125 50.8195312,15.7433594 49.5929687,14.2550781 L47.6398437,16.0878906 C48.7835937,17.5625 50.3410156,18.3066406 51.8019531,18.3066406 C54.0480469,18.3066406 56.5429688,17.0113281 56.6394531,14.640625 C56.7773438,11.65 54.5996094,10.8921875 52.4222656,10.4921875 L52.421875,10.4882812 Z M43.1875,18.1367188 L46.2746094,18.1367188 L46.2746094,5.8984375 L43.1875,5.8984375 L43.1875,18.1367188 Z M95.2453125,5.8984375 L90.6699219,5.8984375 L90.6699219,11.0390625 L93.715625,13.78125 L93.715625,8.7890625 L95.3417969,8.7890625 C96.3753906,8.7890625 96.8847656,9.28515625 96.8847656,10.084375 L96.8847656,13.90625 C96.8847656,14.7054687 96.4023437,15.2429687 95.3417969,15.2429687 L90.65625,15.2429687 L90.65625,18.1508879 L95.2460938,18.1508879 C97.6984375,18.1640625 100,16.9375 100,14.1261719 L100,10.0195312 C100,7.153125 97.6984375,5.8984375 95.2453125,5.8984375 Z M72.7949219,5.73320312 C70.2589844,5.73320312 67.7371094,7.11132812 67.7371094,9.93632812 L67.7371094,14.1160156 C67.7371094,16.9136719 70.2730469,18.3191406 72.8230469,18.3191406 C75.3589844,18.3191406 77.8808594,16.9128906 77.8808594,14.1160156 L77.8808594,9.93632812 C77.8808594,7.125 75.33125,5.73320312 72.7949219,5.73320312 Z M74.7792969,14.1121094 C74.7792969,14.9941406 73.7871094,15.4488281 72.8085938,15.4488281 C71.8164063,15.4488281 70.8242188,15.0214844 70.8242188,14.1121094 L70.8242188,9.93242187 C70.8242188,9.03671875 71.7890625,8.55429687 72.7539063,8.55429687 C73.7601563,8.55429687 74.7796875,8.98164062 74.7796875,9.93242187 L74.7796875,14.1121094 L74.7792969,14.1121094 Z M88.9605469,9.93242187 C88.8917969,7.06601562 86.9347656,5.90820312 84.4125,5.90820312 L79.5195312,5.90820312 L79.5195312,18.1464844 L82.6445312,18.1464844 L82.6445312,14.2597656 L83.1914062,14.2597656 L86.0304687,18.1464844 L89.8898437,18.1464844 L86.5546875,13.9433594 C88.0292969,13.4746094 88.953125,12.1933594 88.953125,9.9328125 L88.9605469,9.93242187 Z M84.4675781,11.5863281 L82.6484375,11.5863281 L82.6484375,8.7890625 L84.4675781,8.7890625 C86.4109375,8.7890625 86.4109375,11.5867187 84.4675781,11.5867187 L84.4675781,11.5863281 Z" transform="translate(10 6)"/></svg>