<svg viewBox="0 0 123 30" xmlns="http://www.w3.org/2000/svg"><path d="M13.076 7.445c-1.366 0-1.76.594-1.76 1.903v2.17h3.642l-.365 3.508h-3.276v10.645H6.945V15.026H4V11.52h2.945V9.407C6.945 5.87 8.401 4 12.465 4c.851-.002 1.702.048 2.547.148V7.45l-1.936-.005Zm2.185 10.704c0-3.954 1.912-6.933 5.919-6.933 2.185 0 3.52 1.101 4.158 2.468V11.52h4.188v14.15h-4.188v-2.14c-.607 1.368-1.973 2.438-4.158 2.438-4.007 0-5.919-2.973-5.919-6.932v-.888Zm4.37.952c0 2.11.789 3.508 2.823 3.508 1.791 0 2.701-1.279 2.701-3.3v-1.421c0-2.021-.91-3.3-2.701-3.3-2.034 0-2.823 1.398-2.823 3.508V19.1Zm19-7.881c1.699 0 3.308.358 4.188.952l-.97 3.033a6.997 6.997 0 0 0-2.915-.654c-2.368 0-3.396 1.338-3.396 3.628v.832c0 2.29 1.031 3.628 3.396 3.628a6.997 6.997 0 0 0 2.914-.654l.971 3.032c-.88.595-2.488.952-4.188.952-5.13 0-7.467-2.706-7.467-7.047v-.654c0-4.341 2.337-7.047 7.467-7.047Zm4.764 7.916v-1.248c0-4.014 2.337-6.655 7.103-6.655 4.492 0 6.465 2.676 6.465 6.6v2.26h-9.2c.093 1.933.973 2.796 3.398 2.796 1.64 0 3.37-.327 4.644-.863l.8 2.933C55.452 25.555 53.084 26 50.991 26c-5.533-.001-7.596-2.705-7.596-6.864Zm4.37-1.844h5.282v-.357c0-1.545-.637-2.772-2.547-2.772-1.975.001-2.735 1.221-2.735 3.123v.006Zm25.399 1.749c0 3.955-1.942 6.933-5.945 6.933-2.185 0-3.702-1.07-4.309-2.44v2.142h-4.127V4.412l4.37-.388v9.455c.637-1.248 2.034-2.26 4.068-2.26 4.006 0 5.944 2.974 5.944 6.932l-.001.89Zm-4.37-.981c0-1.992-.79-3.479-2.884-3.479-1.791 0-2.762 1.248-2.762 3.27v1.487c0 2.022.97 3.27 2.762 3.27 2.095 0 2.883-1.485 2.883-3.478v-1.07Zm5.831.891v-.712c0-4.075 2.368-7.018 7.194-7.018 4.826 0 7.195 2.943 7.195 7.018v.712c0 4.074-2.367 7.018-7.193 7.018s-7.196-2.944-7.196-7.018Zm10.018-1.01c0-1.873-.79-3.36-2.83-3.36-2.042 0-2.824 1.487-2.824 3.36v1.308c0 1.874.79 3.36 2.823 3.36 2.034 0 2.83-1.486 2.83-3.36v-1.308Zm5.825 1.01v-.712c0-4.075 2.368-7.018 7.194-7.018 4.826 0 7.193 2.943 7.193 7.018v.712c0 4.074-2.367 7.018-7.193 7.018s-7.194-2.944-7.194-7.018Zm10.017-1.01c0-1.873-.79-3.36-2.823-3.36-2.034 0-2.822 1.487-2.822 3.36v1.308c0 1.874.788 3.36 2.822 3.36 2.033 0 2.823-1.486 2.823-3.36v-1.308Zm10.38.327 4.309-6.75h4.643l-4.521 6.988L120 25.671h-4.643l-4.492-6.932v6.932h-4.372V4.411l4.372-.387z" fill="#1877F2"/></svg>