<svg xmlns="http://www.w3.org/2000/svg" viewBox="0 0 512 512"><path d="M256 21c8.23 0 19.31 2.197 31.46 5.531l1.625.451 1.638.464 1.648.477c.551.16 1.104.323 1.658.488l1.667.5c.279.083.558.168.837.253l1.678.515 1.686.525 1.69.535 1.696.543 1.699.55 1.702.56 1.703.565 1.705.573 1.704.578 1.704.584 2.551.884 2.544.893 2.533.9 1.681.603 1.674.605 2.496.91 2.474.91 2.45.908 1.618.605 1.3.489 2 .761 1.367.526 2.101.818 2.163.851 2.224.885 1.516.609 1.544.623 2.366.964 1.611.66 2.468 1.02 3.385 1.412 3.494 1.471 2.691 1.143 2.753 1.177 2.814 1.21 3.846 1.666 2.956 1.288 4.036 1.77 2.059.908 3.139 1.39 4.28 1.905 4.389 1.965 3.362 1.513 4.579 2.07 4.687 2.13 4.795 2.189 4.904 2.249 3.75 1.726 2.533 1.17 5.148 2.383 5.27 2.45c13.64 6.353 22.49 19.922 22.816 34.987 1.72 79.306-13.25 152.91-44.91 220.812-27.378 58.72-74.004 106.18-139.878 142.375l-2.002 1.094A28.334 28.334 0 0 1 256 488V21Z" fill="#00B3FF"/><path d="M256 21c-8.23 0-19.31 2.197-31.46 5.531l-1.625.451-1.638.464-1.648.477c-.551.16-1.104.323-1.658.488l-1.667.5c-.279.083-.558.168-.837.253l-1.678.515-1.686.525-1.69.535-1.696.543-1.699.55-1.702.56-1.703.565-1.705.573-1.704.578-1.704.584-2.551.884-2.544.893-2.533.9-1.681.603-1.674.605-2.496.91-2.474.91-2.45.908-1.618.605-1.3.489-2 .761-1.367.526-2.101.818-2.163.851-2.224.885-1.516.609-1.544.623-2.366.964-1.611.66-2.468 1.02-3.385 1.412-3.494 1.471-2.691 1.143-2.753 1.177-2.814 1.21-3.846 1.666-2.956 1.288-4.036 1.77-2.059.908-3.139 1.39-4.28 1.905-4.389 1.965-3.362 1.513-4.579 2.07-4.687 2.13-4.795 2.189-4.904 2.249-3.75 1.726-2.533 1.17-5.148 2.383-5.27 2.45c-13.64 6.353-22.49 19.922-22.816 34.987-1.72 79.306 13.25 152.91 44.91 220.812 27.378 58.72 74.004 106.18 139.878 142.375l2.002 1.094A28.334 28.334 0 0 0 256 488V21Z" fill="#0091FF"/><path d="M372.171 173.6c4.205 4.21 4.41 10.968.468 15.417l-80.272 90.574-13.167 15.285c-12.148 14.1-33.424 15.658-47.522 3.48a33.777 33.777 0 0 1-3.61-3.632l-51.704-60.575c-3.517-4.121-3.281-10.254.543-14.083l10-10.012a10.356 10.356 0 0 1 13.4-1.067l48.916 35.38a8.66 8.66 0 0 0 10.798-.516l89.113-78.44c4.446-3.914 11.168-3.694 15.36.502l7.677 7.688Z" fill="#FFF"/></svg>