<svg xmlns="http://www.w3.org/2000/svg" viewBox="0 0 72 41"><path d="M53.97 35.18c2.76 0 5.18-.6 7.26-1.83a12.65 12.65 0 0 0 4.86-5.11 16.3 16.3 0 0 0 1.74-7.73c0-2.97-.58-5.55-1.74-7.75a12.55 12.55 0 0 0-4.86-5.11 14.19 14.19 0 0 0-7.26-1.82c-2.2 0-4.27.48-6.21 1.43-1.94.96-3.92 2.4-5.93 4.33l-5.79 5.61-5.84-5.6c-2.01-1.94-3.99-3.38-5.93-4.34-1.94-.95-4-1.43-6.2-1.43-2.77 0-5.19.6-7.27 1.82a12.63 12.63 0 0 0-4.87 5.11 16.29 16.29 0 0 0-1.75 7.75c0 2.96.58 5.54 1.75 7.73 1.16 2.19 2.79 3.9 4.87 5.11a14.11 14.11 0 0 0 7.26 1.83c2.2 0 4.27-.48 6.21-1.43 1.94-.96 3.92-2.4 5.93-4.33l5.84-5.61 5.79 5.6c2.01 1.94 3.99 3.38 5.93 4.34 1.94.95 4 1.43 6.2 1.43Zm-35.9-4.87c-1.78 0-3.35-.41-4.7-1.22a8.35 8.35 0 0 1-3.16-3.4 11.13 11.13 0 0 1-1.13-5.18c0-2 .37-3.73 1.13-5.18a8.35 8.35 0 0 1 3.16-3.4 8.95 8.95 0 0 1 4.7-1.22c1.5 0 2.95.36 4.34 1.1 1.38.74 2.84 1.82 4.36 3.26l5.82 5.44-5.84 5.43a20.04 20.04 0 0 1-4.34 3.26 9.14 9.14 0 0 1-4.35 1.1Zm35.9 0a9.1 9.1 0 0 1-4.32-1.1 21.07 21.07 0 0 1-4.4-3.27l-5.8-5.43 5.8-5.44c1.55-1.44 3.01-2.52 4.4-3.26a9.1 9.1 0 0 1 4.32-1.1 8.38 8.38 0 0 1 7.86 4.62 11.13 11.13 0 0 1 1.12 5.18c0 2-.37 3.72-1.13 5.18a8.38 8.38 0 0 1-7.85 4.62Z" fill="#198754"/></svg>