<svg width="126" height="40" viewBox="0 0 126 40" fill="none" xmlns="http://www.w3.org/2000/svg">
<g id="Custom Cell">
<rect width="126" height="40" rx="2" fill="black"/>
<g id="Frame 72">
<g id="Frame 18">
<path id="Title" d="M10.97 25.23L19.22 17.82C19.64 17.44 20.06 17.01 20.48 16.53C20.9 16.05 21.11 15.49 21.11 14.85C21.11 14.13 20.85 13.57 20.33 13.17C19.81 12.75 19.2 12.54 18.5 12.54C17.66 12.54 17 12.8 16.52 13.32C16.06 13.84 15.8 14.48 15.74 15.24L11.24 14.91C11.3 13.81 11.53 12.86 11.93 12.06C12.33 11.24 12.86 10.56 13.52 10.02C14.18 9.48 14.95 9.08 15.83 8.82C16.73 8.54 17.7 8.4 18.74 8.4C19.7 8.4 20.6 8.54 21.44 8.82C22.28 9.08 23.01 9.48 23.63 10.02C24.25 10.54 24.73 11.2 25.07 12C25.43 12.8 25.61 13.73 25.61 14.79C25.61 15.47 25.54 16.09 25.4 16.65C25.26 17.19 25.06 17.69 24.8 18.15C24.56 18.59 24.27 19 23.93 19.38C23.59 19.76 23.22 20.13 22.82 20.49L16.37 26.04H25.79V30H10.97V25.23ZM39.5139 13.95C39.1339 13.47 38.6139 13.12 37.9539 12.9C37.3139 12.66 36.7039 12.54 36.1239 12.54C35.7839 12.54 35.4339 12.58 35.0739 12.66C34.7139 12.74 34.3739 12.87 34.0539 13.05C33.7339 13.21 33.4739 13.43 33.2739 13.71C33.0739 13.99 32.9739 14.33 32.9739 14.73C32.9739 15.37 33.2139 15.86 33.6939 16.2C34.1739 16.54 34.7739 16.83 35.4939 17.07C36.2339 17.31 37.0239 17.55 37.8639 17.79C38.7039 18.03 39.4839 18.37 40.2039 18.81C40.9439 19.25 41.5539 19.84 42.0339 20.58C42.5139 21.32 42.7539 22.31 42.7539 23.55C42.7539 24.73 42.5339 25.76 42.0939 26.64C41.6539 27.52 41.0539 28.25 40.2939 28.83C39.5539 29.41 38.6839 29.84 37.6839 30.12C36.7039 30.4 35.6639 30.54 34.5639 30.54C33.1839 30.54 31.9039 30.33 30.7239 29.91C29.5439 29.49 28.4439 28.81 27.4239 27.87L30.7539 24.21C31.2339 24.85 31.8339 25.35 32.5539 25.71C33.2939 26.05 34.0539 26.22 34.8339 26.22C35.2139 26.22 35.5939 26.18 35.9739 26.1C36.3739 26 36.7239 25.86 37.0239 25.68C37.3439 25.5 37.5939 25.27 37.7739 24.99C37.9739 24.71 38.0739 24.38 38.0739 24C38.0739 23.36 37.8239 22.86 37.3239 22.5C36.8439 22.12 36.2339 21.8 35.4939 21.54C34.7539 21.28 33.9539 21.02 33.0939 20.76C32.2339 20.5 31.4339 20.15 30.6939 19.71C29.9539 19.27 29.3339 18.69 28.8339 17.97C28.3539 17.25 28.1139 16.3 28.1139 15.12C28.1139 13.98 28.3339 12.98 28.7739 12.12C29.2339 11.26 29.8339 10.54 30.5739 9.96C31.3339 9.38 32.2039 8.95 33.1839 8.67C34.1639 8.37 35.1739 8.22 36.2139 8.22C37.4139 8.22 38.5739 8.39 39.6939 8.73C40.8139 9.07 41.8239 9.64 42.7239 10.44L39.5139 13.95ZM75.1983 7.32H79.6983V16.98H79.7583C80.2783 16.28 80.9383 15.79 81.7383 15.51C82.5583 15.21 83.4383 15.06 84.3783 15.06C85.4183 15.06 86.3483 15.28 87.1683 15.72C87.9883 16.14 88.6783 16.71 89.2383 17.43C89.8183 18.15 90.2583 18.98 90.5583 19.92C90.8783 20.84 91.0383 21.81 91.0383 22.83C91.0383 23.93 90.8683 24.94 90.5283 25.86C90.1883 26.78 89.6983 27.58 89.0583 28.26C88.4383 28.92 87.6883 29.44 86.8083 29.82C85.9283 30.18 84.9483 30.36 83.8683 30.36C83.3483 30.36 82.8583 30.29 82.3983 30.15C81.9383 30.01 81.5083 29.83 81.1083 29.61C80.7283 29.39 80.3883 29.15 80.0883 28.89C79.8083 28.61 79.5783 28.34 79.3983 28.08H79.3383V30H75.1983V7.32ZM79.3383 22.71C79.3383 23.81 79.6483 24.7 80.2683 25.38C80.9083 26.06 81.7983 26.4 82.9383 26.4C84.0783 26.4 84.9583 26.06 85.5783 25.38C86.2183 24.7 86.5383 23.81 86.5383 22.71C86.5383 21.61 86.2183 20.72 85.5783 20.04C84.9583 19.36 84.0783 19.02 82.9383 19.02C81.7983 19.02 80.9083 19.36 80.2683 20.04C79.6483 20.72 79.3383 21.61 79.3383 22.71ZM93.3348 7.32H97.8348V30H93.3348V7.32ZM114.468 27.48C113.748 28.4 112.838 29.11 111.738 29.61C110.638 30.11 109.498 30.36 108.318 30.36C107.198 30.36 106.138 30.18 105.138 29.82C104.158 29.46 103.298 28.95 102.558 28.29C101.838 27.61 101.268 26.8 100.848 25.86C100.428 24.92 100.218 23.87 100.218 22.71C100.218 21.55 100.428 20.5 100.848 19.56C101.268 18.62 101.838 17.82 102.558 17.16C103.298 16.48 104.158 15.96 105.138 15.6C106.138 15.24 107.198 15.06 108.318 15.06C109.358 15.06 110.298 15.24 111.138 15.6C111.998 15.96 112.718 16.48 113.298 17.16C113.898 17.82 114.358 18.62 114.678 19.56C114.998 20.5 115.158 21.55 115.158 22.71V24.12H104.718C104.898 24.98 105.288 25.67 105.888 26.19C106.488 26.69 107.228 26.94 108.108 26.94C108.848 26.94 109.468 26.78 109.968 26.46C110.488 26.12 110.938 25.69 111.318 25.17L114.468 27.48ZM110.658 21.06C110.678 20.3 110.428 19.65 109.908 19.11C109.388 18.57 108.718 18.3 107.898 18.3C107.398 18.3 106.958 18.38 106.578 18.54C106.198 18.7 105.868 18.91 105.588 19.17C105.328 19.41 105.118 19.7 104.958 20.04C104.818 20.36 104.738 20.7 104.718 21.06H110.658Z" fill="white"/>
<path id="Title_2" d="M54.88 29.22C54.42 29.56 53.85 29.82 53.17 30C52.51 30.16 51.82 30.24 51.1 30.24C49.16 30.24 47.67 29.75 46.63 28.77C45.59 27.79 45.07 26.35 45.07 24.45V10.29H49.75V14.22H53.74V17.82H49.75V24.39C49.75 25.07 49.92 25.6 50.26 25.98C50.6 26.34 51.09 26.52 51.73 26.52C52.45 26.52 53.09 26.32 53.65 25.92L54.88 29.22ZM73.0052 13.86V30H68.5352V28.14C67.3752 29.54 65.6952 30.24 63.4952 30.24C61.9752 30.24 60.5952 29.9 59.3552 29.22C58.1352 28.54 57.1752 27.57 56.4752 26.31C55.7752 25.05 55.4252 23.59 55.4252 21.93C55.4252 20.27 55.7752 18.81 56.4752 17.55C57.1752 16.29 58.1352 15.32 59.3552 14.64C60.5952 13.96 61.9752 13.62 63.4952 13.62C65.5552 13.62 67.1652 14.27 68.3252 15.57V13.86H73.0052ZM64.3052 26.4C65.4852 26.4 66.4652 26 67.2452 25.2C68.0252 24.38 68.4152 23.29 68.4152 21.93C68.4152 20.57 68.0252 19.49 67.2452 18.69C66.4652 17.87 65.4852 17.46 64.3052 17.46C63.1052 17.46 62.1152 17.87 61.3352 18.69C60.5552 19.49 60.1652 20.57 60.1652 21.93C60.1652 23.29 60.5552 24.38 61.3352 25.2C62.1152 26 63.1052 26.4 64.3052 26.4Z" fill="white"/>
</g>
</g>
</g>
</svg>
