<svg width="40" height="40" viewBox="0 0 40 40" fill="none" xmlns="http://www.w3.org/2000/svg">
<rect width="40" height="40" fill="#A4AAB8"/>
<path d="M20 32.6013C19.0937 32.6013 18.2397 32.2875 17.4379 31.6601C16.6449 31.0326 15.9434 30.1525 15.3334 29.0196C14.732 27.8867 14.2571 26.5577 13.9085 25.0326C13.5686 23.4989 13.3987 21.83 13.3987 20.0261C13.3987 18.2222 13.5686 16.5533 13.9085 15.0196C14.2571 13.4771 14.732 12.1394 15.3334 11.0065C15.9347 9.86488 16.6318 8.98035 17.4249 8.3529C18.2266 7.72545 19.085 7.41172 20 7.41172C20.9151 7.41172 21.7691 7.72545 22.5621 8.3529C23.3639 8.98035 24.0654 9.86488 24.6667 11.0065C25.2767 12.1394 25.7517 13.4771 26.0915 15.0196C26.4314 16.5533 26.6013 18.2222 26.6013 20.0261C26.6013 21.83 26.427 23.4989 26.0785 25.0326C25.7386 26.5577 25.2636 27.8867 24.6536 29.0196C24.0523 30.1525 23.3508 31.0326 22.549 31.6601C21.756 32.2875 20.9063 32.6013 20 32.6013ZM20 8.99342C19.3639 8.99342 18.7538 9.28972 18.17 9.88231C17.5861 10.4662 17.0676 11.2679 16.6144 12.2875C16.1612 13.3071 15.8039 14.4836 15.5425 15.817C15.2811 17.1416 15.1503 18.5446 15.1503 20.0261C15.1503 21.4902 15.2811 22.8801 15.5425 24.196C15.8039 25.5119 16.1612 26.6841 16.6144 27.7124C17.0676 28.732 17.5861 29.5337 18.17 30.1176C18.7538 30.7102 19.3639 31.0065 20 31.0065C20.6362 31.0065 21.2462 30.7102 21.8301 30.1176C22.414 29.5337 22.9325 28.732 23.3856 27.7124C23.8388 26.6841 24.1961 25.5119 24.4575 24.196C24.719 22.8801 24.8497 21.4902 24.8497 20.0261C24.8497 18.5446 24.719 17.1416 24.4575 15.817C24.1961 14.4836 23.8388 13.3071 23.3856 12.2875C22.9325 11.2679 22.414 10.4662 21.8301 9.88231C21.2462 9.28972 20.6362 8.99342 20 8.99342ZM19.1503 7.59473H20.8628V32.3529H19.1503V7.59473ZM20 24.915C21.3421 24.915 22.6144 25.0283 23.817 25.2549C25.0196 25.4727 26.1002 25.7908 27.0588 26.2091C28.0262 26.6187 28.8148 27.1024 29.4249 27.6601L28.1046 28.7451C27.5294 28.2919 26.8366 27.9085 26.0262 27.5947C25.2244 27.2723 24.3137 27.0326 23.2941 26.8758C22.2832 26.7102 21.1852 26.6274 20 26.6274C18.8148 26.6274 17.7124 26.7102 16.6928 26.8758C15.6819 27.0326 14.7713 27.2723 13.9608 27.5947C13.1591 27.9085 12.4706 28.2919 11.8954 28.7451L10.5752 27.6601C11.1852 27.1024 11.9695 26.6187 12.9281 26.2091C13.8954 25.7908 14.9804 25.4727 16.183 25.2549C17.3856 25.0283 18.658 24.915 20 24.915ZM32.0654 19.1372V20.8496H7.93466V19.1372H32.0654ZM20 15.1503C18.658 15.1503 17.3856 15.0414 16.183 14.8235C14.9804 14.5969 13.8954 14.2788 12.9281 13.8692C11.9695 13.4509 11.1852 12.9629 10.5752 12.4052L11.8954 11.3202C12.4706 11.7734 13.1591 12.1612 13.9608 12.4836C14.7713 12.7973 15.6819 13.037 16.6928 13.2026C17.7124 13.3594 18.8148 13.4379 20 13.4379C21.1852 13.4379 22.2832 13.3594 23.2941 13.2026C24.3137 13.037 25.2244 12.7973 26.0262 12.4836C26.8366 12.1612 27.5294 11.7734 28.1046 11.3202L29.4249 12.4052C28.8148 12.9629 28.0262 13.4509 27.0588 13.8692C26.1002 14.2788 25.0196 14.5969 23.817 14.8235C22.6144 15.0414 21.3421 15.1503 20 15.1503ZM20 33.3333C18.1787 33.3333 16.4619 32.9847 14.8497 32.2875C13.2462 31.5904 11.8301 30.6274 10.6013 29.3987C9.37257 28.1699 8.40961 26.7538 7.71244 25.1503C7.01527 23.5381 6.66669 21.8213 6.66669 20C6.66669 18.1786 7.01527 16.4662 7.71244 14.8627C8.40961 13.2505 9.36821 11.83 10.5883 10.6013C11.817 9.37251 13.2331 8.40955 14.8366 7.71238C16.4488 7.01521 18.1656 6.66663 19.9869 6.66663C21.8083 6.66663 23.5251 7.01521 25.1373 7.71238C26.7495 8.40955 28.17 9.37251 29.3987 10.6013C30.6275 11.83 31.5904 13.2505 32.2876 14.8627C32.9848 16.4662 33.3334 18.1786 33.3334 20C33.3334 21.8213 32.9848 23.5381 32.2876 25.1503C31.5904 26.7538 30.6275 28.1699 29.3987 29.3987C28.17 30.6274 26.7495 31.5904 25.1373 32.2875C23.5338 32.9847 21.8214 33.3333 20 33.3333ZM20 31.5555C21.5774 31.5555 23.0632 31.2505 24.4575 30.6405C25.8519 30.0392 27.0806 29.2069 28.1438 28.1437C29.207 27.0806 30.0392 25.8518 30.6405 24.4575C31.2506 23.0631 31.5556 21.5773 31.5556 20C31.5556 18.4226 31.2506 16.9368 30.6405 15.5424C30.0392 14.1481 29.2026 12.9193 28.1307 11.8562C27.0676 10.793 25.8388 9.96074 24.4445 9.35944C23.0501 8.74941 21.5643 8.4444 19.9869 8.4444C18.4096 8.4444 16.9238 8.74941 15.5294 9.35944C14.1351 9.96074 12.9063 10.793 11.8432 11.8562C10.7887 12.9193 9.95645 14.1481 9.34643 15.5424C8.74512 16.9368 8.44446 18.4226 8.44446 20C8.44446 21.5773 8.74512 23.0631 9.34643 24.4575C9.95645 25.8518 10.793 27.0806 11.8562 28.1437C12.9194 29.2069 14.1482 30.0392 15.5425 30.6405C16.9368 31.2505 18.4227 31.5555 20 31.5555Z" fill="white"/>
</svg>
