<svg xmlns="http://www.w3.org/2000/svg" viewBox="0 0 120 40"><path d="M13.781 12a5.81 5.81 0 0 0-4.143 1.686c-1.09 1.088-1.68 2.563-1.634 4.084a5.46 5.46 0 0 0 1.588 4.022c1.064 1.076 2.53 1.684 4.061 1.686a3.28 3.28 0 0 0 1.541-.378h.064l-3.85 5.519h1.922l4.172-6.017c.967-1.443 1.992-2.885 1.992-4.769 0-3.263-2.309-5.834-5.713-5.834zm0 9.967c-2.373 0-4.043-1.946-4.043-4.197s1.611-4.197 4.043-4.197c2.309-.063 4.043 1.883 4.043 4.139s-1.605 4.254-4.043 4.254zm6.357-8.146h3.85v14.862h1.67V13.758h3.85v-1.443h-9.37zM39.522 12c-2.335-.024-4.583.863-6.246 2.464a8.47 8.47 0 0 0-2.614 6.065c0 4.643 4.172 8.394 8.86 8.394s8.86-3.761 8.86-8.467c-.077-4.717-4.031-8.492-8.86-8.456zm0 15.428c-3.911-.024-7.094-3.079-7.19-6.898-.011-2.51 1.348-4.834 3.567-6.099s4.96-1.277 7.19-.031 3.611 3.558 3.623 6.068c-.044 3.851-3.248 6.953-7.19 6.961h0zm16.307-9.91a6.29 6.29 0 0 0-2.824.776l.832-4.517h6.164v-1.464h-7.576l-1.541 8.079 1.289.441c.791-1.121 2.072-1.817 3.463-1.883 2.379 0 3.979 2.072 3.979 4.265s-1.665 4.197-3.979 4.197-3.85-1.82-4.043-3.95h-1.67c.322 2.319 1.477 4.265 3.786 5.078a5.27 5.27 0 0 0 1.928.378c3.204-.014 5.79-2.562 5.778-5.692.042-1.482-.525-2.92-1.574-3.992a5.75 5.75 0 0 0-4.011-1.716h0zm-16.436-3.136a.75.75 0 0 0-.568.211c-.15.146-.228.348-.216.555v4.763h-3.13c-.401.033-.709.36-.709.753s.308.72.709.753h3.914a.77.77 0 0 0 .773-.761v-5.508a.72.72 0 0 0-.214-.549c-.147-.146-.35-.224-.559-.217h0z" fill="#0a6dc6"/><path d="M72.394 26.238L66.23 12.315h-2.567v16.368h1.67V14.067h.059l6.229 14.553h1.412l6.293-14.553h.065V28.62h1.67V12.315h-2.572zm22.853-7.528h-.064c-1.071-1.575-2.898-2.5-4.833-2.445-2.373-.067-4.595 1.132-5.801 3.129a6.24 6.24 0 0 0 0 6.474c1.206 1.997 3.428 3.196 5.801 3.129 1.918.051 3.735-.844 4.833-2.382h.064v2.13h1.611V16.58h-1.611v2.13zm-4.881 8.845a4.97 4.97 0 0 1-3.595-1.392c-.953-.925-1.476-2.191-1.447-3.503-.07-1.785.862-3.465 2.429-4.384a5.11 5.11 0 0 1 5.103-.029c1.579.901 2.53 2.57 2.482 4.356a4.84 4.84 0 0 1-1.435 3.484c-.933.929-2.206 1.457-3.538 1.468h0zm15.534-.063c-1.851.059-3.588-.872-4.532-2.43a4.86 4.86 0 0 1 0-5.05c.943-1.557 2.68-2.489 4.532-2.43 1.833-.009 3.517.983 4.365 2.571H112c-1.25-2.82-4.341-4.41-7.428-3.821s-5.339 3.198-5.411 6.271c.007 1.711.719 3.348 1.976 4.539s2.953 1.838 4.704 1.793c2.889 0 4.876-1.38 6.159-3.824v-.063h-1.734c-.843 1.576-2.547 2.53-4.365 2.445h0z" fill="#4eacf2"/></svg>