<svg xmlns="http://www.w3.org/2000/svg" viewBox="0 0 120 40"><path d="M15.558 12a5.65 5.65 0 0 0-3.984 1.587c-1.048 1.024-1.615 2.412-1.571 3.844a5.08 5.08 0 0 0 1.527 3.785c1.023 1.012 2.432 1.585 3.905 1.587a3.21 3.21 0 0 0 1.482-.355h.062l-3.702 5.194h1.848l4.012-5.663c.929-1.358 1.915-2.716 1.915-4.488 0-3.071-2.22-5.49-5.493-5.49zm0 9.381c-2.282 0-3.888-1.832-3.888-3.95s1.549-3.95 3.888-3.95c2.22-.059 3.888 1.773 3.888 3.896s-1.544 4.004-3.888 4.004zm6.113-7.667h3.702v13.987h1.606V13.654h3.702v-1.357h-9.01zM40.31 12c-2.245-.022-4.407.812-6.006 2.319s-2.504 3.562-2.513 5.709c0 4.37 4.012 7.9 8.519 7.9s8.519-3.54 8.519-7.969c-.074-4.44-3.876-7.992-8.519-7.959zm0 14.521c-3.76-.023-6.821-2.898-6.913-6.493-.011-2.362 1.296-4.55 3.43-5.74a7.19 7.19 0 0 1 6.913-.03c2.145 1.172 3.472 3.349 3.483 5.711-.042 3.625-3.123 6.544-6.913 6.552h0zm15.68-9.327a6.15 6.15 0 0 0-2.716.731l.8-4.251h5.927v-1.378h-7.285L51.235 19.9l1.239.415c.761-1.055 1.992-1.71 3.33-1.773 2.287 0 3.826 1.95 3.826 4.014s-1.601 3.95-3.826 3.95-3.702-1.713-3.888-3.718H50.31c.31 2.182 1.42 4.014 3.64 4.779a5.14 5.14 0 0 0 1.854.355c3.08-.014 5.567-2.411 5.555-5.357.04-1.395-.505-2.748-1.513-3.757s-2.397-1.59-3.856-1.615h0zm-15.804-2.952a.73.73 0 0 0-.546.198c-.144.138-.22.328-.207.523v4.483h-3.01c-.385.031-.682.339-.682.709s.296.678.682.709h3.764c.411-.003.743-.322.743-.716v-5.184a.67.67 0 0 0-.206-.517c-.141-.137-.336-.211-.538-.204h0z" fill="#00396e"/><path d="M71.918 25.4l-5.927-13.103h-2.468v15.404h1.605V13.946h.057l5.989 13.696h1.358l6.051-13.696h.062v13.696h1.606V12.297h-2.473zm21.973-7.085h-.062c-1.03-1.483-2.786-2.352-4.647-2.301-2.281-.063-4.418 1.065-5.578 2.945a5.77 5.77 0 0 0 0 6.093c1.16 1.88 3.297 3.008 5.578 2.945 1.845.048 3.591-.794 4.647-2.242h.062v2.005h1.549V16.31h-1.549v2.005zm-4.693 8.324c-1.291.034-2.54-.439-3.456-1.31s-1.419-2.062-1.392-3.297c-.067-1.68.828-3.261 2.336-4.126a5.01 5.01 0 0 1 4.906-.028c1.518.848 2.433 2.419 2.387 4.099a4.51 4.51 0 0 1-1.379 3.279c-.896.875-2.121 1.372-3.401 1.382h0zm14.937-.059c-1.78.055-3.45-.821-4.357-2.287a4.49 4.49 0 0 1 0-4.753c.907-1.466 2.577-2.342 4.357-2.287 1.762-.008 3.382.925 4.198 2.419H110c-1.202-2.654-4.174-4.151-7.142-3.596s-5.133 3.01-5.202 5.902a5.86 5.86 0 0 0 1.9 4.272c1.209 1.122 2.839 1.73 4.523 1.687 2.778 0 4.688-1.299 5.922-3.599v-.059h-1.668c-.811 1.484-2.449 2.382-4.198 2.301h0z" fill="#007fff"/></svg>