<svg xmlns="http://www.w3.org/2000/svg" xmlns:xlink="http://www.w3.org/1999/xlink" viewBox="0 0 120 40"><defs><linearGradient id="A" x1="83.912%" x2="5.278%" y1="47.69%" y2="48.411%"><stop offset="0%" stop-color="#ff0080"/><stop offset="100%" stop-color="#ff4178"/></linearGradient><path id="B" d="M2.608 4.472L0 0h0 15.866l.852 1.41a3 3 0 0 1-2.568 4.551H5.199a3 3 0 0 1-2.592-1.489z"/><linearGradient id="C" x1="0%" x2="70.552%" y1="16.952%" y2="58.597%"><stop offset="0%" stop-opacity=".01"/><stop offset="86.454%" stop-opacity=".31"/><stop offset="100%" stop-opacity=".767"/></linearGradient><linearGradient id="D" x1="50%" x2="50%" y1="0%" y2="100%"><stop offset="0%" stop-color="#ff8878"/><stop offset="100%" stop-color="#ffd271"/></linearGradient><linearGradient id="E" x1="50%" x2="50%" y1="0%" y2="100%"><stop offset="0%" stop-color="#00adcb"/><stop offset="100%" stop-color="#00d066"/></linearGradient><path id="F" d="M1.468 2.902L3.5 0h0l10.505 17-3.505 6L1.29 7.212a4 4 0 0 1 .178-4.309z"/><linearGradient id="G" x1="27.704%" x2="52.22%" y1="30.159%" y2="58.053%"><stop offset="0%" stop-opacity=".01"/><stop offset="82.155%" stop-opacity=".31"/><stop offset="100%" stop-opacity=".767"/></linearGradient></defs><g fill="none" fill-rule="evenodd" transform="translate(9.5 8)"><g transform="matrix(1 0 0 -1 0 23)"><g transform="translate(7.02 1.998)"><mask id="H" fill="#fff"><use xlink:href="#B"/></mask><use fill="url(#A)" fill-rule="nonzero" xlink:href="#B"/><path fill="url(#C)" mask="url(#H)" opacity=".5" d="M15.866 0l-3.492 6.163H8.998z"/></g><path fill="url(#D)" fill-rule="nonzero" d="M14.005 17l8.88-15.002 2.359 3.904a4 4 0 0 1 .01 4.12l-6.59 11.03A4 4 0 0 1 15.23 23H10.5h0l3.505-6z"/><mask id="I" fill="#fff"><use xlink:href="#F"/></mask><use fill="url(#E)" fill-rule="nonzero" xlink:href="#F"/><path fill="url(#G)" mask="url(#I)" opacity=".5" d="M12.454 14.034l1.953 2.525L10.5 23z"/></g><path d="M35.04 11.706c.204-.025.342-.11.413-.256.041-.08.061-.19.061-.341 0-.301-.107-.521-.326-.657s-.525-.205-.933-.205c-.469 0-.8.125-.994.376-.107.135-.178.341-.214.616h-.836c.015-.647.229-1.098.637-1.353s.882-.381 1.422-.381c.627 0 1.137.115 1.524.351s.581.601.581 1.098v3.022c0 .09.02.165.056.221s.117.085.24.085l.133-.005.158-.02v.652l-.316.075c-.071.01-.173.015-.301.015-.311 0-.53-.105-.673-.321-.071-.115-.122-.276-.153-.486a2.24 2.24 0 0 1-.785.611c-.341.17-.719.261-1.132.261-.495 0-.897-.145-1.213-.441s-.469-.662-.469-1.108c0-.486.153-.862.464-1.128s.714-.431 1.213-.496l1.443-.185zm-1.886 2.381c.189.145.413.221.673.221a2.05 2.05 0 0 0 .918-.216c.5-.236.744-.626.744-1.168v-.707c-.107.07-.25.125-.423.17a3.91 3.91 0 0 1-.505.1l-.54.07c-.326.04-.571.11-.734.2a.78.78 0 0 0-.418.732c0 .251.097.451.286.596zm4.533-4.426h.877v.697a2.09 2.09 0 0 1 .591-.551c.301-.195.658-.296 1.071-.296.607 0 1.122.226 1.545.682s.632 1.108.632 1.95c0 1.143-.306 1.96-.913 2.446a2.09 2.09 0 0 1-1.351.466c-.403 0-.739-.085-1.015-.261-.158-.1-.336-.266-.535-.506v2.676h-.897l-.005-7.302h0zm3.375 4.11c.28-.346.418-.857.418-1.544 0-.416-.061-.777-.184-1.078-.235-.576-.658-.867-1.28-.867s-1.05.306-1.28.917c-.122.326-.184.742-.184 1.243 0 .406.061.747.184 1.032.235.541.658.812 1.28.812.418 0 .765-.175 1.045-.516zm2.243-4.11h.877v.697a2.09 2.09 0 0 1 .591-.551c.301-.195.658-.296 1.071-.296.607 0 1.122.226 1.545.682s.632 1.108.632 1.95c0 1.143-.306 1.96-.913 2.446a2.09 2.09 0 0 1-1.351.466c-.403 0-.739-.085-1.015-.261-.158-.1-.336-.266-.535-.506v2.676h-.897l-.005-7.302h0zm3.37 4.11c.28-.346.418-.857.418-1.544 0-.416-.061-.777-.184-1.078-.235-.576-.658-.867-1.28-.867s-1.05.306-1.28.917c-.122.326-.184.742-.184 1.243 0 .406.061.747.184 1.032.235.541.658.812 1.28.812.418 0 .77-.175 1.045-.516zm5.323-3.924c.168.115.342.281.515.501v-.662h.826v4.766c0 .667-.097 1.193-.296 1.574-.372.712-1.071 1.068-2.101 1.068-.571 0-1.055-.125-1.443-.381-.393-.251-.607-.647-.658-1.188h.913c.041.236.127.416.26.541.199.195.52.296.948.296.683 0 1.132-.241 1.341-.717.127-.281.184-.782.173-1.504a1.76 1.76 0 0 1-.642.596c-.25.13-.581.195-.999.195a2.12 2.12 0 0 1-1.509-.606c-.433-.401-.648-1.068-.648-2 0-.877.219-1.564.653-2.055s.959-.737 1.575-.737c.418.01.78.11 1.091.311zm.112.947c-.27-.311-.617-.471-1.035-.471a1.28 1.28 0 0 0-1.29.872c-.122.311-.184.717-.184 1.218 0 .591.122 1.042.362 1.348s.571.461.979.461c.642 0 1.091-.286 1.351-.857.148-.321.219-.702.219-1.133 0-.647-.133-1.128-.403-1.438zm5.761-1.012c.352.175.622.401.806.677.178.266.296.571.357.927.051.241.082.626.082 1.153h-3.88c.015.531.143.962.382 1.283s.607.481 1.101.481c.464 0 .836-.15 1.111-.456a1.57 1.57 0 0 0 .331-.616h.882c-.025.19-.102.406-.229.642-.133.236-.275.431-.438.581-.27.261-.607.436-1.004.526a3.16 3.16 0 0 1-.724.08 2.24 2.24 0 0 1-1.677-.712c-.459-.476-.688-1.138-.688-1.995 0-.842.229-1.524.693-2.05s1.066-.787 1.81-.787c.367.005.734.09 1.086.266zm.321 2.06c-.036-.381-.122-.687-.25-.917-.245-.426-.653-.637-1.219-.637-.408 0-.749.145-1.025.436s-.423.662-.438 1.113h2.932v.005zm2.233-3.804c.209-.301.612-.451 1.208-.451l.173.005.204.015v.802l-.204-.01h-.117c-.275 0-.438.07-.495.211s-.082.491-.082 1.058h.897v.697h-.897v4.521h-.887v-4.521h-.744v-.697h.744v-.822c.015-.371.082-.637.199-.807zm5.047 3.669c.204-.025.342-.11.413-.256.041-.08.061-.19.061-.341 0-.301-.107-.521-.326-.657s-.525-.205-.933-.205c-.469 0-.8.125-.994.376-.107.135-.178.341-.214.616h-.836c.015-.647.229-1.098.637-1.353s.882-.381 1.422-.381c.627 0 1.137.115 1.524.351s.581.601.581 1.098v3.022c0 .09.02.165.056.221s.117.085.24.085l.133-.005.158-.02v.652l-.316.075c-.071.01-.173.015-.301.015-.311 0-.53-.105-.673-.321-.071-.115-.122-.276-.153-.486a2.24 2.24 0 0 1-.785.611c-.341.17-.719.261-1.132.261-.495 0-.897-.145-1.213-.441s-.469-.662-.469-1.108c0-.486.153-.862.464-1.128s.714-.431 1.213-.496l1.443-.185zm-1.886 2.381c.189.145.413.221.673.221a2.05 2.05 0 0 0 .918-.216c.5-.236.744-.626.744-1.168v-.707c-.107.07-.25.125-.423.17a3.91 3.91 0 0 1-.505.1l-.54.07c-.326.04-.571.11-.734.2a.78.78 0 0 0-.418.732c0 .251.097.451.286.596zm4.568-6.42h.897v2.681c.214-.266.403-.451.571-.556.291-.185.648-.281 1.081-.281.775 0 1.3.266 1.575.797.148.291.224.692.224 1.208v3.363h-.923v-3.303c0-.386-.051-.667-.148-.847-.163-.286-.469-.431-.918-.431-.372 0-.709.125-1.009.376s-.454.727-.454 1.423v2.782h-.897V7.666h0zm5.547 1.97h.851v.907c.071-.175.24-.391.515-.642a1.35 1.35 0 0 1 .943-.381c.015 0 .046 0 .087.005l.204.02v.932c-.051-.01-.102-.015-.148-.02s-.092-.005-.148-.005c-.454 0-.8.14-1.04.426a1.47 1.47 0 0 0-.362.987v3.017h-.897l-.005-5.248h0zm6.501.145c.352.175.622.401.806.677.178.266.296.571.357.927.051.241.082.626.082 1.153h-3.88c.015.531.143.962.382 1.283s.607.481 1.101.481c.464 0 .836-.15 1.111-.456a1.57 1.57 0 0 0 .331-.616h.882c-.025.19-.102.406-.229.642-.133.236-.275.431-.438.581-.27.261-.607.436-1.004.526a3.16 3.16 0 0 1-.724.08 2.24 2.24 0 0 1-1.677-.712c-.459-.476-.688-1.138-.688-1.995 0-.842.229-1.524.693-2.05s1.066-.787 1.81-.787c.367.005.734.09 1.086.266zm.321 2.06c-.036-.381-.122-.687-.25-.917-.245-.426-.653-.637-1.219-.637-.408 0-.749.145-1.025.436s-.423.662-.438 1.113h2.932v.005zm1.907-2.205h.851v.747c.25-.306.52-.526.8-.662s.597-.2.943-.2c.755 0 1.27.261 1.535.777.148.286.219.692.219 1.218v3.363h-.913v-3.303c0-.321-.046-.576-.143-.772-.158-.326-.449-.491-.867-.491-.214 0-.387.02-.525.065-.245.07-.459.216-.648.431-.148.175-.245.351-.291.536s-.066.446-.066.792v2.747h-.897v-5.25h0zm5.649 4.173h1.041v1.067h-1.041zm5.252-4.015c.158.1.336.271.54.516V7.666h.862v7.212h-.806v-.732c-.209.321-.454.556-.739.702s-.612.216-.979.216c-.591 0-1.106-.246-1.54-.737s-.648-1.143-.648-1.96c0-.762.199-1.423.591-1.985.398-.561.959-.837 1.693-.837.408 0 .749.08 1.025.251zm-1.999 3.929c.24.381.627.566 1.157.566.413 0 .755-.175 1.02-.526s.398-.852.398-1.509c0-.662-.138-1.153-.413-1.469s-.612-.476-1.015-.476c-.449 0-.816.17-1.091.511-.28.341-.418.837-.418 1.499 0 .556.117 1.027.362 1.403zm7.923-3.944c.352.175.622.401.806.677.178.266.296.571.357.927.051.241.082.626.082 1.153h-3.88c.015.531.143.962.382 1.283s.607.481 1.101.481c.464 0 .836-.15 1.111-.456a1.57 1.57 0 0 0 .331-.616h.882c-.025.19-.102.406-.229.642-.133.236-.275.431-.438.581-.27.261-.607.436-1.004.526a3.16 3.16 0 0 1-.724.08 2.24 2.24 0 0 1-1.677-.712c-.459-.476-.688-1.138-.688-1.995 0-.842.229-1.524.693-2.05s1.066-.787 1.81-.787c.367.005.734.09 1.086.266zm.321 2.06c-.036-.381-.122-.687-.25-.917-.245-.426-.653-.637-1.219-.637-.408 0-.749.145-1.025.436s-.423.662-.438 1.113h2.932v.005z" fill="#333" fill-rule="nonzero" stroke="#333" stroke-width=".2"/></g></svg>