<svg xmlns="http://www.w3.org/2000/svg" viewBox="0 0 120 40"><path d="M72.211 31.407h4.744V8.297H72.21v23.11Zm11.266-9.777c2.74-.888 4.744-3.488 4.744-6.519 0-3.762-2.976-6.815-6.819-6.815h-3.261v4.741h3.854c1.16-.118 2.16.916 2.075 2.074.085 1.395-.916 2.43-2.075 2.37h-3.854v3.556l6.819 10.37H90l-6.523-9.777Zm-23.422.889h10.97v-4.741h-10.97v4.74ZM31 31.407h4.744V8.297H31v23.11Zm14.231-12.444c.542-.75 1.667-1.842 1.78-4.148-.113-3.67-3.036-6.519-6.524-6.519H36.93v4.741h3.557c1.4-.118 2.39.916 2.372 2.074.018 1.395-.972 2.43-2.372 2.37H36.93v4.741h4.447c1.39-.059 2.421.976 2.372 2.37.05 1.158-.982 2.193-2.372 2.075H36.93v4.74h4.447c3.809 0 6.819-2.941 6.819-6.814 0-2.444-1.206-4.495-2.965-5.63Zm8.302 1.185c.06-4.255 3.378-7.585 7.412-7.704 1.91.119 3.596.803 5.04 1.778l3.261-2.666C67.113 9.227 64.198 8 60.945 8c-6.493 0-11.86 5.383-11.86 12.148 0 6.469 5.367 11.852 11.86 11.852 3.253 0 6.168-1.227 8.301-3.556l.297-.296-3.558-2.667c-1.204 1.171-2.999 1.956-5.04 2.075-4.034-.12-7.353-3.449-7.412-7.408Z" fill="#0284FF"/></svg>