<svg xmlns="http://www.w3.org/2000/svg" viewBox="0 0 120 40"><path fill-rule="evenodd" d="M42.6479749,29.3186441 C42.8340084,29.3186441 42.9848464,29.4711864 42.9848464,29.659322 C42.9848464,29.7496754 42.9493547,29.8363282 42.886179,29.9002177 C42.8230033,29.9641072 42.7373187,30 42.6479749,30 L19.1428492,30 C18.9568002,30 18.8059777,29.8474733 18.8059777,29.659322 C18.8059777,29.4711708 18.9568002,29.3186441 19.1428492,29.3186441 L42.6484358,29.3186441 L42.6479749,29.3186441 Z M31.6187011,5.79512706 C31.7827217,5.79512706 31.9228193,5.91481083 31.9505028,6.07830508 L35.5294274,27.2145763 C35.5463313,27.3135812 35.5191602,27.4150835 35.4551789,27.4919443 C35.3911976,27.5688051 35.2969312,27.6132207 35.1975838,27.6132207 L33.1888827,27.6132207 C33.0270814,27.6134534 32.8879701,27.4973204 32.8575419,27.3366102 L30.8956844,17.0450847 L28.9332821,27.3366102 C28.9028864,27.4971479 28.7640301,27.6132207 28.6024022,27.6132207 L26.5998184,27.6132207 C26.4995067,27.6132207 26.4043749,27.5681804 26.34031,27.4901192 C26.2762451,27.412058 26.2499124,27.3091843 26.2684777,27.2094915 L30.1726676,6.07322034 C30.2024756,5.91192045 30.3417493,5.79512706 30.5040084,5.79512706 L31.6187011,5.79512706 Z M27.7994413,9.88576246 C27.9003121,9.88576246 27.9959298,9.93123321 28.0600112,10.0100141 C28.1240926,10.0887949 28.1498933,10.1924704 28.1303212,10.2925424 L24.9038966,26.9964407 C24.8730168,27.1565678 24.7343296,27.2720343 24.5730587,27.2720343 L22.4009497,27.2720343 C22.2589214,27.2722455 22.1320191,27.1823491 22.0836872,27.0472881 L20.8206704,23.5220339 L20.8206704,26.9313559 C20.8206704,27.1194906 20.6698734,27.2720343 20.4838408,27.2720343 L19.1428492,27.2720343 C18.9568165,27.2720343 18.8060196,27.1194906 18.8060196,26.9313559 L18.8060196,13.2955932 C18.8060196,13.1074585 18.9568165,12.9549387 19.1428492,12.9549153 L20.5622346,12.9549153 C20.7147905,12.9547034 20.8484497,13.058178 20.8880866,13.2071186 L23.1717318,21.8181356 L25.4684916,10.1608475 C25.4996915,10.0013217 25.6380276,9.88633601 25.7988268,9.88627119 L27.7999441,9.88627119 L27.7994413,9.88576246 Z M35.9919972,9.88576234 C36.1334078,9.88555085 36.2599441,9.97470339 36.308757,10.1089831 L36.3227933,10.1598305 L38.6195531,21.8176271 L40.9032402,13.2066102 C40.9378244,13.0754867 41.0460634,12.9776266 41.1787709,12.9575 L41.2290503,12.9538983 L42.6479749,12.9538983 C42.8150161,12.9538674 42.956852,13.0776339 42.9812849,13.2447458 L42.9853492,13.2950847 L42.9853492,26.9313559 C42.9853492,27.1003007 42.8630118,27.2437633 42.6977514,27.2684746 L42.6479749,27.2720347 L41.3075279,27.2720347 C41.1404288,27.2723965 40.9983217,27.1488277 40.9736313,26.9816949 L40.9701536,26.9308475 L40.9701536,23.5220339 L39.7075978,27.0472881 C39.6657416,27.1642398 39.5641897,27.2488292 39.4426676,27.2679661 L39.3903352,27.2720347 L37.2182682,27.2720347 C37.0766976,27.2720347 36.9501491,27.1827752 36.9015503,27.0483051 L36.8869693,26.9964407 L33.6605028,10.2920339 C33.6427439,10.2005917 33.6628002,10.1057841 33.716,10.0296941 C33.7691999,9.9536042 33.8508988,9.90287478 33.942067,9.88932203 L33.9913827,9.88576234 L35.9925,9.88576234 L35.9919972,9.88576234 Z M4.02842179,12.9538983 C4.21445531,12.9538983 4.3652933,13.1064407 4.3652933,13.2945763 L4.3652933,15 C4.3652933,15.1881512 4.21447078,15.340678 4.02842179,15.340678 L2.35206704,15.340678 C2.16603441,15.3407014 2.01523743,15.4932212 2.01523743,15.6813559 L2.01523743,17.3862712 C2.01523743,17.5744059 2.16603441,17.7269258 2.35206704,17.7269492 L4.02842179,17.7269492 C4.21445531,17.7269492 4.3652933,17.8794915 4.3652933,18.0681356 L4.3652933,19.7725424 C4.3652933,19.960678 4.21445531,20.1132203 4.02842179,20.1132203 L2.35206704,20.1132203 C2.16607542,20.1132203 2.01523743,20.2662712 2.01523743,20.4544068 L2.01523743,26.9318644 C2.01523743,27.12 1.86439944,27.2725424 1.67782123,27.2725424 L0.336913408,27.2725424 C0.247570707,27.2725424 0.161888374,27.2366445 0.0987150838,27.1727542 C0.0354888268,27.1088983 2.37240395e-15,27.0222458 2.37240395e-15,26.9318644 L2.37240395e-15,13.2955932 C2.37240395e-15,13.1074576 0.150879888,12.9549153 0.336913408,12.9549153 L4.02842179,12.9549153 L4.02842179,12.9538983 Z M10.0734637,12.9538983 C10.2595391,12.9538983 10.4103771,13.1064407 10.4103771,13.2945763 L10.4103771,15 C10.4103771,15.0903608 10.3748796,15.17702 10.3116949,15.2409107 C10.2485102,15.3048014 10.1628148,15.3406892 10.0734637,15.340678 L8.39664804,15.340678 C8.21061541,15.3407014 8.05981843,15.4932212 8.05981844,15.6813559 L8.05981844,17.3862712 C8.05981843,17.5744059 8.21061541,17.7269258 8.39664804,17.7269492 L10.0734637,17.7269492 C10.2595391,17.7269492 10.4103771,17.8794915 10.4103771,18.0681356 L10.4103771,19.7725424 C10.4103771,19.960678 10.2595391,20.1132203 10.0734637,20.1132203 L8.39664804,20.1132203 C8.21065642,20.1132203 8.05981844,20.2662712 8.05981844,20.4544068 L8.05981844,24.5455932 C8.05981843,24.7337279 8.21061541,24.8862478 8.39664804,24.8862712 L10.0734637,24.8862712 C10.2595391,24.8862712 10.4103771,25.0388136 10.4103771,25.2269492 L10.4103771,26.9318644 C10.4103771,27.12 10.2595391,27.2725424 10.0734637,27.2725424 L6.38199721,27.2725424 C6.29263999,27.2725424 6.20694054,27.2366548 6.14375698,27.1727542 C6.08057263,27.1088983 6.0450838,27.0222458 6.0450838,26.9318644 L6.0450838,13.2955932 C6.0450838,13.1074576 6.19592179,12.9549153 6.38199721,12.9549153 L10.0734637,12.9549153 L10.0734637,12.9538983 Z M75.2239106,12.9538983 L75.2239106,24.5451271 C75.2239106,24.7332203 75.3747486,24.8857627 75.560824,24.8857627 L77.5735056,24.8857627 C77.7595391,24.8857627 77.9103352,25.0383475 77.9103352,25.2264407 L77.9103352,26.9313559 C77.9103352,27.1194906 77.7595382,27.2720339 77.5735056,27.2720339 L73.5460894,27.2720339 C73.3600568,27.2720339 73.2092598,27.1194906 73.2092598,26.9313559 L73.2092598,13.2955932 C73.2092598,13.1074585 73.3600568,12.9549387 73.5460894,12.9549153 L75.2239106,12.9549153 L75.2239106,12.9538983 Z M54.4032402,12.9538983 C55.8864804,12.9538983 57.0896648,14.1752542 57.0896648,15.6813559 L57.0896648,24.5451271 C57.0896648,26.0511864 55.8870251,27.2720339 54.4027793,27.2720339 C52.9185335,27.2720339 51.7163547,26.0511864 51.7163547,24.5451271 L51.7163547,15.6813559 C51.7163547,14.1752542 52.9189944,12.9538983 54.4027793,12.9538983 L54.4032402,12.9538983 Z M65.1494413,12.9538983 C66.6326816,12.9538983 67.835866,14.1752542 67.835866,15.6813559 L67.835866,17.0450847 L65.8206704,17.0450847 L65.8206704,15.6813559 C65.8206704,15.3050847 65.52,14.9994915 65.1494413,14.9994915 C64.8050698,14.9994915 64.5209497,15.2628814 64.4822765,15.6020339 L64.4772067,15.6813559 L64.4772067,18.8598305 C64.4772067,18.9991525 64.5612151,19.1242373 64.6889246,19.1761017 L66.157081,19.7720339 C67.1713827,20.1840678 67.8360335,21.1784746 67.835866,22.2838983 L67.835866,24.5451271 C67.835866,26.0511864 66.6332263,27.2720339 65.1494413,27.2720339 C63.6656564,27.2720339 62.4625559,26.0511864 62.4625559,24.5451271 L62.4625559,23.1813559 L64.4777095,23.1813559 L64.4777095,24.5451271 C64.4777095,24.9213983 64.7784218,25.2264407 65.1494413,25.2264407 C65.4938547,25.2264407 65.777933,24.9635593 65.8161872,24.6244068 L65.8212151,24.5451271 L65.8212151,22.0484746 C65.8214115,21.9090098 65.7375334,21.7835084 65.6094972,21.7316949 L64.1413827,21.1357627 C63.1270391,20.7237712 62.4624302,19.729322 62.4625559,18.6238983 L62.4625559,15.6813559 C62.4625559,14.1752542 63.6657402,12.9538983 65.1494413,12.9538983 Z M87.3135754,12.9538983 C88.7968575,12.9538983 90,14.1752542 90,15.6813559 L90,26.9313559 C90,27.1194906 89.849203,27.2720339 89.6631704,27.2720339 L88.3222207,27.2720339 C88.1361717,27.2720339 87.9853492,27.1195072 87.9853492,26.9313559 L87.9853492,24.5451271 C87.9853492,24.3569492 87.8344693,24.2044068 87.6484358,24.2044068 L86.9787151,24.2044068 C86.7927235,24.2044068 86.6418855,24.3569492 86.6418855,24.5451271 L86.6418855,26.9313559 C86.6418855,27.1194915 86.4910475,27.2720339 86.3049721,27.2720339 L84.9640642,27.2720339 C84.8747131,27.2720339 84.7890178,27.2361573 84.725833,27.1722666 C84.6626483,27.1083759 84.6271508,27.0217167 84.6271508,26.9313559 L84.6271508,15.6813559 C84.6271508,14.1752542 85.8298743,12.9538983 87.3135754,12.9538983 L87.3135754,12.9538983 Z M79.662067,12.9538982 C79.8168826,12.9538982 79.9517226,13.0607345 79.9889246,13.2127119 L80.9326676,17.0450847 L81.8768715,13.2127119 C81.9140734,13.0607345 82.0489135,12.9538982 82.2037291,12.9538982 L83.5667598,12.9538982 C83.6645085,12.9538982 83.7574787,12.996652 83.8215922,13.0712712 C83.8856145,13.1459322 83.9144832,13.2450424 83.9006145,13.3428814 L81.9814944,26.9791525 C81.9579349,27.1472954 81.8155227,27.2722139 81.6475978,27.2720341 L80.2176955,27.2720341 C80.0499721,27.2720341 79.9078492,27.1470763 79.8843017,26.9791525 L77.9103352,12.9538982 L79.662067,12.9538982 L79.662067,12.9538982 Z M47.6864246,12.9538983 C48.399101,12.9538983 49.0826225,13.240032 49.5865642,13.749661 C50.0904469,14.2592797 50.3734777,14.9504661 50.3733939,15.6711864 L50.3733939,24.5552542 C50.3733939,25.2758903 50.0902689,25.9670002 49.5863547,26.4765254 C49.0824302,26.9860169 48.3990084,27.2722034 47.6864246,27.272034 L45.3369134,27.272034 C45.2475623,27.272034 45.1618669,27.2361573 45.0986822,27.1722666 C45.0354975,27.1083759 45,27.0217167 45,26.9313559 L45,13.2955932 C45,13.1074576 45.150838,12.9549153 45.3369134,12.9549153 L47.6864246,12.9549153 L47.6864246,12.9538983 Z M14.7760894,12.9538983 C15.4886737,12.9538983 16.1720616,13.2402224 16.6758939,13.7498305 C17.1797139,14.2594195 17.4626781,14.9505725 17.462514,15.6711864 L17.462514,21.1357627 C17.462514,22.0271186 17.3192179,22.6271186 17.0321229,22.9357627 C16.7179146,23.273609 16.5949952,23.7497731 16.7058101,24.1998305 L17.3584358,26.8489831 C17.3835043,26.9507221 17.3608519,27.0584678 17.2970227,27.1410923 C17.2331936,27.2237168 17.1352988,27.2720344 17.0316201,27.2720344 L15.6992598,27.2720344 C15.5502,27.2722869 15.4186977,27.1734419 15.3759637,27.0290254 L14.4759218,23.9847458 C14.4548295,23.9126128 14.3894495,23.8630109 14.3150698,23.8627119 L14.2722905,23.8627119 C14.2276723,23.862723 14.1848908,23.8806815 14.1533799,23.9126271 C14.1218715,23.9446186 14.1042318,23.9879237 14.1043994,24.0330508 L14.1043994,26.9313559 C14.1043994,27.1194915 13.9535615,27.2720344 13.767486,27.2720344 L12.4265782,27.2720344 C12.3372271,27.2720344 12.2515317,27.2361573 12.188347,27.1722666 C12.1251623,27.1083759 12.0896648,27.0217167 12.0896648,26.9313559 L12.0896648,13.2955932 C12.0896648,13.1074576 12.2405447,12.9549153 12.4265782,12.9549153 L14.7760894,12.9549153 L14.7760894,12.9538983 Z M71.8657961,12.9538983 L71.8657961,27.2725424 L69.8506006,27.2725424 L69.8506006,12.9538983 L71.8657961,12.9538983 Z M54.4022765,15 C54.0578631,15 53.7737849,15.2633898 53.7355307,15.6025424 L53.7305028,15.6818644 L53.7305028,24.5455932 C53.7305028,24.9218644 54.0317179,25.2269492 54.4022765,25.2269492 C54.7471508,25.2269492 55.0307682,24.9640678 55.0694832,24.6249153 L55.0745112,24.5455932 L55.0745112,15.6813559 C55.0745112,15.3050847 54.773338,14.9994915 54.4022765,14.9994915 L54.4022765,15 Z M47.3465782,15 L47.0147346,15 L47.0147346,25.2274576 L47.3465782,25.2274576 C47.8795391,25.2274576 48.3164246,24.8105085 48.3551816,24.280678 L48.3576955,24.2044068 L48.3576955,16.0230932 C48.3576955,15.4581356 47.9051397,15 47.3465782,15 Z M87.3130726,15 C86.9686592,15 86.684581,15.2633898 86.6458659,15.6025424 L86.640838,15.6818644 L86.640838,21.4774576 C86.640838,21.6655932 86.7921788,21.8181356 86.9782123,21.8181356 L87.6474721,21.8181356 C87.8335056,21.8181356 87.9843436,21.6655932 87.9843436,21.4774576 L87.9843436,15.6813559 C87.9843436,15.3050847 87.6836313,14.9994915 87.3130726,14.9994915 L87.3130726,15 Z M14.436243,15 L14.1043994,15 L14.1043994,21.8186441 L14.436243,21.8186441 C14.969162,21.8186441 15.4061313,21.4011864 15.4443436,20.8718644 L15.4473603,20.7955932 L15.4473603,16.0220339 C15.4473603,15.4576271 14.9948045,14.9994915 14.436243,14.9994915 L14.436243,15 Z M30.8956844,-6.11563531e-16 C31.8231361,-6.11563531e-16 32.5749721,0.760373633 32.5749721,1.69830508 L32.5749721,1.71101695 C32.5749721,2.31776066 32.2548874,2.87841292 31.7353019,3.18178282 C31.2157163,3.48515272 30.5755621,3.48515152 30.0559777,3.18177966 C29.5363951,2.87840893 29.2163128,2.3177584 29.2163128,1.71101695 L29.2163128,1.69830508 C29.2163128,0.760381356 29.9681564,-6.11563531e-16 30.8956844,-6.11563531e-16 Z" transform="translate(15 3)"/></svg>