<svg viewBox="0 0 120 40" xmlns="http://www.w3.org/2000/svg"><defs><linearGradient x1="0%" y1="0%" x2="100%" y2="100%" id="a"><stop stop-color="#30C3F9" offset="0%"/><stop stop-color="#128CDB" offset="64.155%"/><stop stop-color="#087FCD" offset="100%"/></linearGradient></defs><g fill="none" fill-rule="evenodd"><text font-family="PTSans-Bold, PT Sans" font-size="19" font-weight="bold" fill="#000" transform="translate(18 9)">
                <tspan x="27" y="17">ifun.de</tspan>
            </text><g transform="translate(18 9)"><rect fill="url(#a)" width="22" height="22" rx="5.5"/><path d="M12.152 5.5h-5.83c-.443 0-.822.334-.822.755v6.269c0 2.206 1.945 3.976 4.332 3.976h5.83c.459 0 .838-.334.838-.77V9.463C16.484 7.314 14.54 5.5 12.152 5.5Zm2.83 9.625H9.587C8.166 15.125 7 14.073 7 12.754V6.875h5.413C13.834 6.875 15 7.927 15 9.246v5.879h-.018Z" fill="#FAFCFD" fill-rule="nonzero"/></g></g></svg>