<svg xmlns="http://www.w3.org/2000/svg" viewBox="0 0 120 40"><g fill="none" fill-rule="evenodd" transform="translate(6 15)"><path fill="#0059A2" fill-rule="nonzero" d="M83 0L83 6C83 8.209139 81.209139 10 79 10L72 10 72 4C72 1.790861 73.790861 0 76 0L83 0zM81 2L76 2C74.9456382 2 74.0818349 2.81587779 74.0054857 3.85073766L74 4 74 8 79 8C80.0543618 8 80.9181651 7.18412221 80.9945143 6.14926234L81 6 81 2zM95 0L95 6C95 8.209139 93.209139 10 91 10L84 10 84 0 95 0zM93 2L84 2 84 4 86 4 86 8 91 8C92.0543618 8 92.9181651 7.18412221 92.9945143 6.14926234L93 6 93 2zM71 0L71 10 60 10 60 4C60 1.790861 61.790861 0 64 0L71 0zM71 2L64.5 2C63.1820478 2 62.1022936 2.81587779 62.0068572 3.85073766L62 4 62 8 71 8 71 2zM107 0L107 10 96 10 96 4C96 1.790861 97.790861 0 100 0L107 0zM107 2L100.5 2C99.1820478 2 98.1022936 2.81587779 98.0068572 3.85073766L98 4 107 4 107 6 98 6 98 8 107 8 107 2z"/><path fill="#000" fill-rule="nonzero" d="M35 10L35 0 24 0 24 6C24 8.209139 25.790861 10 28 10L35 10zM35 8L28.5 8C27.1820478 8 26.1022936 7.18412221 26.0068572 6.14926234L26 6 35 6 35 4 26 4 26 2 35 2 35 8zM45 10L44.8521777 9.70681895C44.7407324 9.48591621 44.6586371 9.3235505 44.6058917 9.2197218L44.3632036 8.75829193C43.85088 7.81392215 43.1954373 6.76561319 42.5025933 5.80895018 41.0692891 3.82987687 39.1910313 2.49429817 37.9965731 2.11235408L38 2.12204218 38 2.12204218 38 10 36 10 36 0 37.3836983 0C39.3724375 0 42.0461214 1.76894611 44.1224067 4.63583273L44.4429527 5.08794662 44.7565784 5.54878494 45 5.921 45 0 47 0 47 10 45 10z"/><path fill="#0059A2" d="M4,0 L11,0 L11,0 L11,6 C11,8.209139 9.209139,10 7,10 L0,10 L0,10 L0,4 C-2.705415e-16,1.790861 1.790861,4.05812251e-16 4,0 Z"/><path fill="#FFF" d="M6.75,4 L6.75,10 L4.25,10 L4.25,4 L6.75,4 Z M7.15318054,0.780653658 C7.10918421,1.4845014 6.81825067,2.17579923 6.28037995,2.71366996 C5.74241281,3.25163709 5.05096356,3.5425785 4.34698517,3.58649419 C4.39081123,2.88242617 4.68175264,2.19097692 5.21971978,1.65300978 C5.72182244,1.15090712 6.35762507,0.863991317 7.01252769,0.792262365 L7.15318054,0.780653658 Z"/><path fill="#000" fill-rule="nonzero" d="M23 0L23 6C23 8.209139 21.209139 10 19 10L12 10 12 4C12 1.790861 13.790861 0 16 0L23 0zM23 2L16 2C14.9456382 2 14.0818349 2.81587779 14.0054857 3.85073766L14 4 21 4 21 6 12 6 12 8 19 8C20.0543618 8 20.9181651 7.18412221 20.9945143 6.14926234L21 6 21 4 23 4 23 2zM59 0L59 10 48 10 48 4C48 1.790861 49.790861 0 52 0L59 0zM57 2L52 2C50.9456382 2 50.0818349 2.81587779 50.0054857 3.85073766L50 4 57 4 57 6 50 6 50 10 57 10 57 2z"/></g></svg>