<svg xmlns="http://www.w3.org/2000/svg" viewBox="0 0 120 40"><path d="M95.182 14.905h-4.504v.595l1.176.284v8.587c-.15.207-.4.44-.826.44-.775 0-1.226-.699-1.451-1.113L88.45 21.63c-.45-.879-.976-1.293-2.052-1.422v-.155c1.501-.026 2.853-1.138 2.853-2.638 0-1.785-1.577-2.483-3.378-2.483h-4.08v.595l1.327.284v8.716l-1.526.31L77.716 14c-.45.569-.95.983-1.376 1.216l.15.44-3.503 8.844-1.051.284v.595h3.178v-.595l-1.051-.284 1.176-3.233h3.253l1.126 3.207-1.226.31v.595h7.757v-.595l-1.301-.284v-4.06c.875.051 1.3.465 1.726 1.319l1.527 2.844c.525.931 1.276 1.397 2.227 1.397.725 0 1.3-.44 1.45-.62h3.48c2.952 0 5.354-2.354 5.354-5.225 0-3.077-2.277-5.25-5.43-5.25Zm-19.668 5.56 1.376-3.724 1.327 3.725h-2.703Zm10.034-.775h-.7v-3.906h.875c1.076 0 1.802.828 1.777 1.863-.05 1.034-.776 2.043-1.952 2.043Zm9.509 4.81h-1.451v-8.716h1.476c2.302 0 3.703 1.63 3.703 4.371.025 2.664-1.426 4.345-3.728 4.345Zm-73.792 0L17.51 14c-.45.569-.95.983-1.376 1.216l.15.44-3.503 8.844-.75.284-.2.595h3.102v-.595l-1.05-.284 1.175-3.233h3.253l1.126 3.207-1.226.31v.595h4.154v-.595l-1.101-.284Zm-5.956-4.034 1.377-3.725 1.326 3.725h-2.703Zm-2.977 2.25-.376-.207-2.177 2.043H7.903v-8.768l1.126-.284v-.595H5v.595l1.126.284V24.5L5 24.784v.595h6.33zm17.616-7.811v.595l1.2.284-2.627 7.01-2.802-7.01 1.326-.284v-.595h-4.504v.595l1.276.284 4.004 9.957h.425l3.979-9.957h.05l1.25-.284v-.595zm39.911 0v.595l1.201.284s.1 5.199.05 6.492c-.05 1.526-1.201 2.56-2.727 2.56-1.552 0-2.678-.957-2.728-2.69V15.76l1.176-.285v-.569h-4.078v.595l1.15.284v6.44c.076 2.224 1.802 3.673 4.03 3.673 2.226 0 3.953-1.345 4.028-3.673l.1-6.44 1.176-.284v-.595h-3.378Zm44.015 9.569L110.146 14c-.45.569-.951.983-1.377 1.216l.15.44-3.503 8.896-.6.258-.801-.258v-8.768l1.251-.284v-.595h-4.229v.595l1.226.31v8.716l-1.176.284v.57h6.481v-.596l-1.05-.284 1.175-3.233h3.253l1.126 3.207-1.226.31v.595H115v-.595l-1.126-.31Zm-5.93-4.008 1.376-3.725 1.326 3.725h-2.702Zm-59.83-5.561v.595l1.226.31.075 6.854-6.33-7.759h-2.703v.595l1.226.284.1.052-.1 8.664-1.25.31L36.527 14c-.45.569-.95.983-1.376 1.216l.15.44L31.8 24.5l-1.05.284v.595h3.177v-.595l-1.05-.284 1.175-3.233h3.253l1.126 3.207-1.226.31v.595h6.656v-.595l-1.3-.284-.076-7.578 7.257 8.82h.475l.1-9.958 1.226-.284v-.595h-3.428Zm-13.787 5.56 1.376-3.724 1.326 3.725h-2.702Zm24.447-.439v.595l1.15.284v3.362c-.55.466-1.425.776-2.276.776-2.302 0-3.779-2.017-3.779-4.784-.025-2.664 1.427-4.966 3.779-4.966 1.526 0 2.903 1.112 3.378 2.845l.325-.207v-3.284l-.3-.156-.626.802c-.65-.362-1.751-.724-2.802-.724-3.128 0-5.68 2.638-5.68 5.767 0 3.259 2.227 5.586 5.254 5.586 1.227 0 2.378-.388 3.278-1.112l.901.621h.3v-4.552l.951-.388V20h-3.853v.026Z" fill="#001C4C"/></svg>