<svg xmlns="http://www.w3.org/2000/svg" xmlns:xlink="http://www.w3.org/1999/xlink" viewBox="0 0 120 40"><defs><radialGradient id="macmagazine-a" cx="95.555%" cy="10.368%" r="147.237%" fx="95.555%" fy="10.368%" gradientTransform="matrix(-.61195 .57814 -.52982 -.99698 1.595 -.345)"><stop offset="0%" stop-color="#00EDDA"/><stop offset="100%" stop-color="#006DE9"/></radialGradient><filter id="macmagazine-b" width="125%" height="133.3%" x="-12.5%" y="-16.7%" filterUnits="objectBoundingBox"><feGaussianBlur in="SourceGraphic" stdDeviation="1"/></filter><linearGradient id="macmagazine-e" x1="50%" x2="50%" y1="0%" y2="100%"><stop offset="0%" stop-color="#FFF"/><stop offset="100%" stop-color="#A9DFF4"/></linearGradient><path id="macmagazine-d" d="M4.25,5.20404919 L8.79106168,5.20404919 C9.16966453,5.20404919 9.47658278,5.51096745 9.47658278,5.8895703 L9.47658278,6.07509141 C9.47658278,6.35123379 9.70044041,6.57509141 9.97658278,6.57509141 L10.25,6.57509141 C10.5261424,6.57509141 10.75,6.79894904 10.75,7.07509141 L10.75,13.7484632 C10.75,14.1635255 10.4135255,14.5 9.99846323,14.5 C9.58340094,14.5 9.24692646,14.1635255 9.24692646,13.7484632 L9.24692646,7.2183851 C9.24692646,6.94224273 9.02306884,6.7183851 8.74692646,6.7183851 L8.25,6.7183851 C7.97385763,6.7183851 7.75,6.94224273 7.75,7.2183851 L7.75,13.75 C7.75,14.1642136 7.41421356,14.5 7,14.5 C6.58578644,14.5 6.25,14.1642136 6.25,13.75 L6.25,7.2183851 C6.25,6.94224273 6.02614237,6.7183851 5.75,6.7183851 L5.25116303,6.7183851 C4.97502065,6.7183851 4.75116303,6.94224273 4.75116303,7.2183851 L4.75116303,13.7494185 C4.75116303,14.1639532 4.41511624,14.5 4.00058151,14.5 C3.58604679,14.5 3.25,14.1639532 3.25,13.7494185 L3.25,6.20404919 C3.25,5.65176444 3.69771525,5.20404919 4.25,5.20404919 Z"/><filter id="macmagazine-c" width="102.7%" height="104.3%" x="-1.3%" y="-1.1%" filterUnits="objectBoundingBox"><feOffset dy=".2" in="SourceAlpha" result="shadowOffsetOuter1"/><feColorMatrix in="shadowOffsetOuter1" values="0 0 0 0 0   0 0 0 0 0.352941176   0 0 0 0 0.658823529  0 0 0 1 0"/></filter><path id="macmagazine-g" d="M14.25,5.20404919 L18.7910617,5.20404919 C19.1696645,5.20404919 19.4765828,5.51096745 19.4765828,5.8895703 L19.4765828,6.07509141 C19.4765828,6.35123379 19.7004404,6.57509141 19.9765828,6.57509141 L20.25,6.57509141 C20.5261424,6.57509141 20.75,6.79894904 20.75,7.07509141 L20.75,13.7484632 C20.75,14.1635255 20.4135255,14.5 19.9984632,14.5 C19.5834009,14.5 19.2469265,14.1635255 19.2469265,13.7484632 L19.2469265,7.2183851 C19.2469265,6.94224273 19.0230688,6.7183851 18.7469265,6.7183851 L18.25,6.7183851 C17.9738576,6.7183851 17.75,6.94224273 17.75,7.2183851 L17.75,13.75 C17.75,14.1642136 17.4142136,14.5 17,14.5 C16.5857864,14.5 16.25,14.1642136 16.25,13.75 L16.25,7.2183851 C16.25,6.94224273 16.0261424,6.7183851 15.75,6.7183851 L15.251163,6.7183851 C14.9750207,6.7183851 14.751163,6.94224273 14.751163,7.2183851 L14.751163,13.7494185 C14.751163,14.1639532 14.4151162,14.5 14.0005815,14.5 C13.5860468,14.5 13.25,14.1639532 13.25,13.7494185 L13.25,6.20404919 C13.25,5.65176444 13.6977153,5.20404919 14.25,5.20404919 Z"/><filter id="macmagazine-f" width="102.7%" height="104.3%" x="-1.3%" y="-1.1%" filterUnits="objectBoundingBox"><feOffset dy=".2" in="SourceAlpha" result="shadowOffsetOuter1"/><feColorMatrix in="shadowOffsetOuter1" values="0 0 0 0 0   0 0 0 0 0.352941176   0 0 0 0 0.658823529  0 0 0 1 0"/></filter></defs><g fill="none" fill-rule="evenodd" transform="translate(12 10)"><text fill="#000" font-family="HelveticaNeue-Medium, Helvetica Neue" font-size="11" font-weight="400" letter-spacing="-.2"><tspan x="27" y="14">MacMagazine</tspan></text><path fill="url(#macmagazine-a)" d="M4,3 C6.14462478,3 8.28924955,3 10.4338743,3 C12.7168135,3 13.9372871,1 15.4780963,1 C16.9853975,1 18.4926988,1 20,1 C22.209139,1 24,2.790861 24,5 L24,15 C24,17.209139 22.209139,19 20,19 L4,19 C1.790861,19 2.705415e-16,17.209139 0,15 L0,7 C-2.705415e-16,4.790861 1.790861,3 4,3 Z" filter="url(#macmagazine-b)" opacity=".655"/><path fill="url(#macmagazine-a)" d="M4,2 C6.14462478,2 8.28924955,2 10.4338743,2 C12.7168135,2 13.25,0 15.4780963,0 C16.9853975,0 18.4926988,0 20,0 C22.209139,-4.05812251e-16 24,1.790861 24,4 L24,14 C24,16.209139 22.209139,18 20,18 L4,18 C1.790861,18 2.705415e-16,16.209139 0,14 L0,6 C-2.705415e-16,3.790861 1.790861,2 4,2 Z"/><use fill="#000" filter="url(#macmagazine-c)" xlink:href="#macmagazine-d"/><use fill="url(#macmagazine-e)" xlink:href="#macmagazine-d"/><use fill="#000" filter="url(#macmagazine-f)" xlink:href="#macmagazine-g"/><use fill="url(#macmagazine-e)" xlink:href="#macmagazine-g"/></g></svg>