<svg viewBox="0 0 172 57" xmlns="http://www.w3.org/2000/svg"><g fill="none" fill-rule="evenodd"><path d="m56.897 20.566 1.012 18.94h-4.132l-.253-7.252a195.628 195.628 0 0 1-.186-7.798h-.084c-.9 3.413-1.591 5.858-2.075 7.337l-2.277 7.388h-3.29l-2.024-7.32c-.404-1.49-.967-3.959-1.686-7.405h-.068l-.658 15.05h-3.913l1.18-18.94h5.635l1.838 6.313c.776 3.037 1.31 5.295 1.603 6.774h.067c.439-1.843.866-3.504 1.282-4.983.169-.648.332-1.25.49-1.808l2.023-6.296h5.516Zm23.817 4.965c.293.045.59.097.894.153.405.08.86.182 1.366.308l-.691 3.173c-.618-.273-1.406-.41-2.362-.41-.528 0-1.034.086-1.518.257a4.27 4.27 0 0 0-1.147.802 4.154 4.154 0 0 0-.725 1.229 4.838 4.838 0 0 0-.236 1.552c0 .615.101 1.172.304 1.672.18.467.438.865.775 1.195.327.318.72.563 1.181.733.45.17.934.256 1.45.256.9 0 1.71-.148 2.43-.443l.506 3.156c-1.45.41-2.71.614-3.779.614-1.09 0-2.086-.159-2.985-.477a6.445 6.445 0 0 1-2.26-1.416 6.04 6.04 0 0 1-1.451-2.201c-.326-.876-.49-1.849-.49-2.918 0-1.013.164-1.957.49-2.833a6.68 6.68 0 0 1 1.08-1.876 8.5 8.5 0 0 1 3.677-2.219 7.507 7.507 0 0 1 3.491-.307Zm-17.576 8.617c-.202.284-.304.626-.304 1.023 0 .524.158.928.473 1.212.303.285.697.426 1.18.426a2.279 2.279 0 0 0 2.193-1.57l.085-.733v-1.485c-1.395.069-2.328.217-2.8.444-.371.17-.647.398-.827.683Zm1.788-8.702c1.08 0 2.024.159 2.834.477a4.389 4.389 0 0 1 1.838 1.297c.439.5.776 1.126 1.012 1.877.18.671.27 1.428.27 2.27v4.777c0 1.536.068 2.656.203 3.361H67.27l-.236-1.382h-.085a4.186 4.186 0 0 1-1.67 1.246 5.442 5.442 0 0 1-2.21.444c-.685 0-1.304-.114-1.855-.342a4.399 4.399 0 0 1-1.4-.956 4.566 4.566 0 0 1-.86-1.33 4.454 4.454 0 0 1-.287-1.604c0-.876.191-1.644.574-2.304.36-.66.894-1.205 1.602-1.638.697-.455 1.535-.779 2.513-.973.979-.216 2.075-.323 3.29-.323v-.205c0-.478-.152-.86-.456-1.143a2.144 2.144 0 0 0-.759-.427 3.855 3.855 0 0 0-1.265-.188c-.675 0-1.366.108-2.075.324-.652.182-1.208.421-1.67.717l-.792-2.764c.584-.307 1.27-.58 2.057-.819a13.156 13.156 0 0 1 3.24-.392Zm27.36-1.178a2.196 2.196 0 0 0-.945-.478 5.032 5.032 0 0 0-1.316-.187c-.765 0-1.411.04-1.94.12v5.255h1.67c.54 0 1.018-.069 1.434-.206a3.242 3.242 0 0 0 1.063-.546 2.11 2.11 0 0 0 .64-.87c.158-.33.236-.7.236-1.109 0-.443-.073-.825-.219-1.143a2.066 2.066 0 0 0-.624-.836Zm-4.386-3.77a57.45 57.45 0 0 1 1.653-.086c1.416 0 2.603.12 3.559.358 1 .24 1.827.62 2.48 1.144a4.585 4.585 0 0 1 1.299 1.655c.292.682.438 1.456.438 2.32a4.71 4.71 0 0 1-.287 1.638c-.19.49-.444.95-.759 1.382a6.146 6.146 0 0 1-1.046.99 5.685 5.685 0 0 1-1.214.648v.086a3.33 3.33 0 0 1 1.535 1.296c.393.57.714 1.315.961 2.236a363.11 363.11 0 0 0 1.535 5.34h-4.352a48.706 48.706 0 0 1-1.299-4.419l-.438-1.45c-.17-.398-.371-.711-.608-.939-.427-.41-1.08-.625-1.956-.648h-1.316v7.456H83.92v-18.7c.72-.103 2.047-.205 3.98-.308Zm23.665 5.272.118 13.735h-3.677l-.169-1.928h-.1a5.118 5.118 0 0 1-1.4 1.434 5.855 5.855 0 0 1-1.215.563 5.524 5.524 0 0 1-1.636.239c-.71 0-1.339-.114-1.89-.342a3.913 3.913 0 0 1-1.518-1.075c-.427-.489-.76-1.103-.995-1.842-.236-.785-.354-1.695-.354-2.73V25.77h4.234v7.388c0 1.035.168 1.814.506 2.338.18.284.399.5.657.648.27.136.585.205.945.205a2.2 2.2 0 0 0 1.4-.478c.303-.273.54-.614.709-1.024.1-.193.151-.494.151-.904V25.77h4.234Zm9.75-.324c.877 0 1.647.216 2.31.648.642.41 1.12.973 1.435 1.69h.05a6.053 6.053 0 0 1 1.737-1.656 5.288 5.288 0 0 1 1.181-.512c.45-.113.917-.17 1.4-.17.663 0 1.27.119 1.821.358a3.785 3.785 0 0 1 1.451 1.092c.416.5.731 1.12.945 1.86.247.762.371 1.643.371 2.645v8.104H129.9v-7.473c0-1.012-.163-1.786-.489-2.32-.337-.558-.843-.837-1.518-.837-.46 0-.871.148-1.23.444a2.205 2.205 0 0 0-.71 1.041 3.332 3.332 0 0 0-.168 1.11v8.035h-4.116v-7.712c0-.899-.152-1.604-.455-2.116-.338-.534-.833-.802-1.485-.802-.483 0-.91.17-1.282.512a2.586 2.586 0 0 0-.691 1.058c-.113.262-.169.608-.169 1.04v8.02h-4.099l-.101-13.735h3.559l.186 1.86h.084c.382-.592.85-1.07 1.4-1.434.36-.239.742-.41 1.147-.512.484-.159 1-.238 1.552-.238Zm32.875 2.85a4.84 4.84 0 0 1 .708-1.28 3.77 3.77 0 0 1 .911-.888c.641-.455 1.333-.682 2.075-.682l.877.05v4.045l-1.147-.12c-.776 0-1.417.193-1.923.58-.494.376-.815.899-.961 1.57l-.085.956v6.978h-4.2l-.118-13.735h3.626l.135 2.525h.102Zm-11.942.187a2.4 2.4 0 0 0-1.3.358 2.96 2.96 0 0 0-.843.939 4.732 4.732 0 0 0-.489 1.33l-.135 1.502c0 .591.05 1.144.152 1.655.135.49.326.921.573 1.297.236.387.523.677.86.87.35.205.743.308 1.181.308a2.2 2.2 0 0 0 1.114-.29c.315-.206.601-.49.86-.854.236-.353.416-.785.54-1.297a6.748 6.748 0 0 0 .203-1.689l-.17-1.501a4.739 4.739 0 0 0-.488-1.331c-.225-.41-.495-.722-.81-.939a2.256 2.256 0 0 0-1.248-.358Zm2.968-2.508c.844.33 1.569.813 2.176 1.45a6.698 6.698 0 0 1 1.417 2.201c.337.888.506 1.837.506 2.85 0 .614-.056 1.2-.169 1.757a6.674 6.674 0 0 1-.455 1.502 6.197 6.197 0 0 1-1.586 2.303 6.802 6.802 0 0 1-2.31 1.33 7.848 7.848 0 0 1-2.65.445c-.99 0-1.91-.165-2.766-.495a6.076 6.076 0 0 1-2.243-1.382 6.177 6.177 0 0 1-1.5-2.219c-.338-.91-.507-1.905-.507-2.986 0-1.092.169-2.098.506-3.02a6.575 6.575 0 0 1 1.468-2.286 6.532 6.532 0 0 1 2.294-1.468c.9-.341 1.89-.512 2.969-.512a7.58 7.58 0 0 1 2.85.53Zm23.193.273-.759 2.934c-1.17-.523-2.142-.785-2.918-.785-.517 0-.922.108-1.214.325-.27.182-.405.455-.405.818 0 .307.157.575.472.803.292.216.866.472 1.72.767a8.571 8.571 0 0 1 1.67.75c.45.285.827.604 1.13.957.293.341.524.722.692 1.143.135.41.203.876.203 1.4 0 .625-.13 1.216-.388 1.774a3.521 3.521 0 0 1-1.113 1.382c-.506.41-1.119.717-1.839.921-.753.228-1.602.341-2.547.341-.865 0-1.692-.09-2.48-.273-.753-.148-1.388-.375-1.905-.682l.742-3.054c.438.25.99.483 1.652.7.743.227 1.406.34 1.99.34.608 0 1.069-.102 1.384-.306a.998.998 0 0 0 .422-.853.992.992 0 0 0-.405-.837c-.27-.216-.798-.46-1.585-.733a9.992 9.992 0 0 1-1.806-.802 5.772 5.772 0 0 1-1.214-1.007 3.536 3.536 0 0 1-.641-1.126 3.347 3.347 0 0 1-.219-1.194c0-.637.135-1.229.405-1.775a3.801 3.801 0 0 1 1.113-1.433 5.28 5.28 0 0 1 1.72-.956 7.565 7.565 0 0 1 2.295-.341c.753 0 1.49.08 2.21.239.64.147 1.18.335 1.618.563Z" fill="#152A44"/><path d="M34.109 14.935c.146.023.287.045.422.068l.438.034c.068.012.135.017.202.017h.422c.068 0 .135-.006.203-.017a5.08 5.08 0 0 0 .388-.051c.123-.023.253-.045.387-.068.124-.034.248-.074.372-.12h.033a5.2 5.2 0 0 0 .338-.136l.37-.205a3.1 3.1 0 0 0 .338-.239h.017a7.93 7.93 0 0 1-.455.58h-.017a6.86 6.86 0 0 1-.523.478c-.191.125-.382.245-.574.358a5.015 5.015 0 0 1-.64.256 1.986 1.986 0 0 0-.237.086l-.101.034c-.112.023-.23.045-.354.068a3.392 3.392 0 0 1-.354.085 4.69 4.69 0 0 0-.355.052 1.03 1.03 0 0 0-.253.034 1.57 1.57 0 0 0-.236.017c-.09 0-.174.006-.253.017-.09.011-.18.017-.27.017h-.253c-.09 0-.174.006-.253.017l-4.099-.085h-.27c-.09.011-.18.017-.27.017h-.286a6.06 6.06 0 0 0-.253.034 2.37 2.37 0 0 0-.287.017c-.079.011-.163.023-.253.034a3.94 3.94 0 0 0-.388.051c-.135.011-.27.028-.405.051-.124.034-.253.069-.388.103l-.37.102a5.73 5.73 0 0 0-.355.12 5.077 5.077 0 0 0-.371.153c-.112.046-.23.097-.354.154l-.338.204a6.874 6.874 0 0 0-.337.205l-.304.24c-.213.17-.41.363-.59.58a4.189 4.189 0 0 0-.557.699c-.09.125-.174.262-.253.41-.078.136-.157.278-.236.426-.078.16-.152.318-.22.478-.067.17-.128.34-.185.512l-.016.017a37.562 37.562 0 0 1-.641-.563 13.027 13.027 0 0 1-.557-.53 5.083 5.083 0 0 1-.472-.545 5.168 5.168 0 0 1-.388-.512 5.538 5.538 0 0 1-.32-.53 3.716 3.716 0 0 1-.22-.494 2.35 2.35 0 0 1-.169-.495 2.387 2.387 0 0 1-.084-.478 3.089 3.089 0 0 1 0-.904c.022-.148.056-.284.101-.41.045-.136.096-.273.152-.41.067-.136.135-.266.202-.392.079-.113.163-.233.253-.358a4.846 4.846 0 0 1 1.012-.904c.124-.091.26-.177.405-.256.135-.08.281-.154.439-.222.146-.068.298-.13.455-.188l.506-.136c.158-.046.32-.091.49-.137a7.25 7.25 0 0 1 .522-.085l.523-.034h.759c.079 0 .147.006.203.017.157.011.32.028.489.051.157.011.32.034.489.068.146.023.304.052.472.086.169.034.332.068.49.102.112.023.219.051.32.085.112.035.22.069.32.103.113.023.22.051.32.085.113.034.22.063.321.085.113.046.225.086.338.12a4.8 4.8 0 0 1 .303.102l2.851 1.024c.112.034.22.068.32.102l.304.103c.101.034.202.063.304.085.1.046.202.08.303.102.102.035.203.063.304.086.101.022.197.051.287.085l.438.103c.146.034.293.062.439.085Z" fill="#007D44"/><path d="m30.533 38.601-.337-.034a2.658 2.658 0 0 1-.321-.051 3.561 3.561 0 0 1-.557-.17 1.467 1.467 0 0 1-.118-.035h-.017a9.719 9.719 0 0 1-.354-.205h-.017a4.993 4.993 0 0 1-.388-.29 4.125 4.125 0 0 1-.303-.341 2.428 2.428 0 0 1-.253-.376c-.068-.148-.13-.29-.186-.426a.724.724 0 0 1-.067-.205 5.835 5.835 0 0 1-.068-.222 1.328 1.328 0 0 1-.05-.205l-.034-.222a1.61 1.61 0 0 1-.017-.221 1.267 1.267 0 0 1-.017-.205 1.61 1.61 0 0 1-.017-.222v-.221c0-.057.006-.12.017-.188.011-.068.017-.137.017-.205.012-.103.023-.21.034-.324.022-.114.045-.222.067-.325.023-.124.045-.238.068-.34.033-.114.062-.228.084-.342l.068-.239a1.7 1.7 0 0 0 .084-.205 2 2 0 0 1 .084-.239 3.13 3.13 0 0 0 .085-.221c.022-.08.056-.16.1-.239.035-.068.063-.142.085-.222l.101-.238a1.46 1.46 0 0 1 .118-.222c.034-.08.068-.154.102-.222l1.788-3.515a2.41 2.41 0 0 1 .118-.239 5.914 5.914 0 0 0 .202-.478c.034-.068.068-.142.101-.221l.101-.24a4.11 4.11 0 0 1 .102-.221l.067-.239c.034-.08.062-.16.084-.239.034-.068.062-.142.085-.222l.067-.239c.023-.079.04-.153.05-.221.023-.091.046-.177.068-.256l.068-.342c.022-.113.04-.227.05-.34l.034-.342v-.768a2.31 2.31 0 0 0-.034-.41c0-.136-.01-.272-.033-.409l-.068-.375a4.055 4.055 0 0 0-.084-.393 1.884 1.884 0 0 0-.101-.358 1.325 1.325 0 0 0-.118-.358 4.012 4.012 0 0 0-.118-.342 5.232 5.232 0 0 0-.304-.614 6.704 6.704 0 0 0-.388-.546 2.711 2.711 0 0 0-.439-.444 2.104 2.104 0 0 0-.506-.375 1.92 1.92 0 0 0-.556-.256 3.4 3.4 0 0 0-.607-.153 3.331 3.331 0 0 0-.473-.035l-.202.017c-.124 0-.242.011-.354.034a2.514 2.514 0 0 0-.388.069c-.18.034-.355.085-.523.153-.158.057-.31.13-.456.222a2.403 2.403 0 0 0-.405.239 4.559 4.559 0 0 0-.337.307 1.313 1.313 0 0 0-.287.324 3.29 3.29 0 0 0-.219.324 8.359 8.359 0 0 0-.152.359 1.496 1.496 0 0 0-.084.358 2.05 2.05 0 0 0-.034.358c.012.114.034.228.068.342.022.113.061.221.118.324.045.102.106.199.185.29.192.227.343.438.456.631.124.216.208.415.253.597.045.182.061.353.05.512-.01.16-.05.307-.118.444a.877.877 0 0 1-.253.324 1.663 1.663 0 0 1-.37.256.212.212 0 0 0-.102.051.374.374 0 0 0-.118.017.372.372 0 0 1-.118.017.374.374 0 0 1-.118.017h-.135a.187.187 0 0 1-.085-.017h-.118a.882.882 0 0 1-.236-.085 1.467 1.467 0 0 0-.118-.034l-.101-.068a1.055 1.055 0 0 1-.118-.069.258.258 0 0 1-.101-.085.396.396 0 0 1-.102-.068 1.116 1.116 0 0 1-.118-.103 2.726 2.726 0 0 0-.084-.119 2.464 2.464 0 0 1-.253-.358l-.067-.137a1.179 1.179 0 0 1-.051-.153l-.067-.171a.962.962 0 0 0-.051-.17v-.035a.5.5 0 0 0-.034-.153l-.034-.41a2.51 2.51 0 0 1 0-.41c0-.147.012-.284.034-.409 0-.136.017-.267.05-.392a2.53 2.53 0 0 1 .102-.359 1.86 1.86 0 0 1 .101-.358c.045-.125.096-.239.152-.341.067-.114.13-.222.186-.324a4.57 4.57 0 0 1 .421-.615c.169-.193.349-.375.54-.546.191-.17.394-.324.607-.46.101-.08.208-.149.32-.205a5.05 5.05 0 0 1 .338-.188l.371-.17.371-.137c.124-.057.253-.102.388-.136.124-.035.253-.069.388-.103.135-.034.276-.063.422-.085.135-.023.27-.04.405-.051a2.52 2.52 0 0 1 .421-.035c.135-.01.276-.017.422-.017.214 0 .427.006.641.017.202.023.41.052.624.086l.607.136c.192.057.383.12.574.188.19.068.377.154.557.256.18.08.354.17.522.273.17.102.338.216.506.341.147.114.298.24.456.376.146.136.28.278.405.426.135.148.264.301.388.46.112.16.219.33.32.513.101.17.191.353.27.546.09.193.163.392.22.597a5.904 5.904 0 0 1 .269 1.297c.023.227.034.46.034.7 0 .17-.006.346-.017.528 0 .17-.011.336-.034.495-.033.16-.061.318-.084.478l-.101.478-.135.443c-.045.148-.096.29-.152.427-.056.148-.118.29-.186.426a4.224 4.224 0 0 1-.185.393l-.202.41a9.613 9.613 0 0 0-.237.358 9.613 9.613 0 0 1-.236.358 7.07 7.07 0 0 0-.253.376l-.185.221c-.045.08-.102.154-.169.222a3.47 3.47 0 0 1-.186.239 25.66 25.66 0 0 1-.185.221l-.169.205-.185.222-1.653 1.843c-.068.068-.13.136-.186.205a2.908 2.908 0 0 1-.32.393 8.812 8.812 0 0 0-.422.63c-.146.206-.27.416-.371.632-.068.103-.124.21-.169.324a4.177 4.177 0 0 0-.118.341 1.535 1.535 0 0 0-.101.325 5.52 5.52 0 0 0-.084.358 4.082 4.082 0 0 0-.034.153.648.648 0 0 1-.017.154.808.808 0 0 1-.017.154v.512a.89.89 0 0 0 .017.17c.011.068.017.13.017.188.022.057.04.113.05.17.012.057.023.12.034.188.023.046.045.103.068.17a.534.534 0 0 0 .067.171l.068.171c.033.057.062.114.084.17.067.115.146.228.236.342a1.9 1.9 0 0 0 .287.324c.101.091.22.188.354.29.135.091.276.182.422.274.157.079.32.158.489.238Zm-9.412-16.55a10.388 10.388 0 0 0-.979-.12 8.63 8.63 0 0 0-.54-.017 4.161 4.161 0 0 0-.387-.018h-.034a9.35 9.35 0 0 0-.827.035c-.27.022-.534.05-.792.085-.248.045-.49.097-.726.153a7.009 7.009 0 0 0-.691.205 5.955 5.955 0 0 0-.624.24 4.627 4.627 0 0 0-.574.306c-.18.103-.354.21-.523.324a5.443 5.443 0 0 0-.472.393 7.8 7.8 0 0 0-.405.444 7.67 7.67 0 0 0-.388.46 4.06 4.06 0 0 0-.32.495c-.09.17-.186.347-.287.529a8.55 8.55 0 0 0-.22.563 5.37 5.37 0 0 0-.202.597 10.669 10.669 0 0 0-.27 1.245 6.538 6.538 0 0 0-.1.649l-.035.665a6.769 6.769 0 0 0 0 .683v.7l.068.716c.022.228.05.461.084.7.023.239.057.478.101.717.045.239.09.472.135.7.057.25.113.489.169.716.056.24.112.473.169.7.067.239.14.472.219.7.067.238.14.466.22.682.078.228.162.455.252.682l.27.649c.079.216.169.432.27.648.09.205.191.41.304.614.1.194.202.387.303.58.101.194.208.381.32.563.102.182.209.359.321.53.113.182.225.352.338.511.112.16.225.313.337.461.124.148.242.296.354.444.113.125.23.25.354.375.113.125.225.245.338.359.124.102.247.199.37.29a4 4 0 0 0 .71.46c.112.058.224.103.337.137.112.034.23.063.354.085.112.023.22.035.32.035h.439l.202-.035c.068 0 .135-.005.203-.017.056-.01.124-.017.202-.017l.169-.034a5.92 5.92 0 0 1 .185-.034.963.963 0 0 1 .169-.051.599.599 0 0 0 .152-.051c.09-.023.174-.046.253-.069.078-.034.152-.062.22-.085.067-.034.14-.068.218-.102.068-.035.13-.063.186-.086.067-.045.13-.085.186-.12.067-.033.129-.068.185-.102l.152-.12c.056-.034.112-.073.169-.119a.783.783 0 0 0 .151-.12c.045-.045.09-.085.135-.12a1.44 1.44 0 0 1 .135-.119c.045-.034.09-.074.135-.119l.54-.546a97135.716 97135.716 0 0 1 .185-.188.396.396 0 0 0 .102-.068l.1-.069a.543.543 0 0 0 .085-.067l.101-.052c.023-.01.045-.022.068-.034a.48.48 0 0 0 .118-.017h.169a.146.146 0 0 0 .067.017l.068.034.067.034c.022.023.045.04.068.052l.067.068c.023.022.04.045.05.068l.068.068a.208.208 0 0 0 .05.085.269.269 0 0 1 .068.103l.506.87a.46.46 0 0 1 .085.12c.022.034.05.068.084.102.022.046.05.085.084.12.034.045.062.085.085.12l.1.102c.023.034.051.074.085.12.045.034.084.062.118.085.034.045.068.08.101.102a.698.698 0 0 0 .135.103v.017a.272.272 0 0 1 .102.068c.044.022.095.046.151.068l.135.068c.045.023.096.046.152.069.045.01.096.028.152.05.034.012.079.023.135.035l.135.034a.81.81 0 0 1 .152.017.625.625 0 0 0 .151.017l.17.035h.371l.168-.035a1.331 1.331 0 0 0 .388-.068 2.796 2.796 0 0 0 .793-.375.265.265 0 0 0 .067-.05c.08-.064.156-.126.228-.189l.059-.05a.256.256 0 0 0-.05.067.122.122 0 0 1-.018.026l-.008.008a.103.103 0 0 1-.025.017 1.536 1.536 0 0 1-.118.17.575.575 0 0 1-.135.154 8.514 8.514 0 0 1-.135.171l-.152.154c-.045.045-.09.096-.135.153a3.8 3.8 0 0 1-.354.256 2.05 2.05 0 0 1-.371.239 3.468 3.468 0 0 1-.439.17c-.158.057-.32.097-.49.12a3.07 3.07 0 0 1-.573.051.784.784 0 0 1-.151-.017.554.554 0 0 1-.135-.017.554.554 0 0 1-.135-.017l-.135-.035a.66.66 0 0 1-.135-.05.376.376 0 0 1-.118-.052.66.66 0 0 1-.135-.05.384.384 0 0 1-.118-.052 1.11 1.11 0 0 1-.118-.068 2.37 2.37 0 0 1-.118-.085 1.173 1.173 0 0 0-.119-.069l-.1-.067a2.223 2.223 0 0 0-.119-.086.437.437 0 0 1-.101-.102l-.641-.495a.64.64 0 0 0-.101-.085l-.101-.069-.102-.068a1.046 1.046 0 0 1-.1-.085 13.7 13.7 0 0 1-.102-.051l-.101-.051a.93.93 0 0 0-.118-.051.426.426 0 0 1-.102-.051 1.563 1.563 0 0 0-.118-.035.318.318 0 0 0-.1-.017.461.461 0 0 0-.102-.017.495.495 0 0 0-.118-.017.374.374 0 0 0-.118.017.495.495 0 0 0-.118.017.498.498 0 0 0-.118.017 1.815 1.815 0 0 1-.22.069.441.441 0 0 1-.1.051.922.922 0 0 0-.119.051.428.428 0 0 1-.101.051 1.055 1.055 0 0 0-.118.068l-.101.068-.979.615a.843.843 0 0 0-.135.085 1.965 1.965 0 0 1-.151.068.843.843 0 0 1-.135.085 1.839 1.839 0 0 1-.152.069 1.96 1.96 0 0 1-.152.068.524.524 0 0 0-.169.068.597.597 0 0 1-.168.051.617.617 0 0 0-.152.051c-.068.023-.13.04-.186.051a5.04 5.04 0 0 0-.185.035 1.31 1.31 0 0 1-.186.017.637.637 0 0 1-.202.034c-.068 0-.14.006-.22.017h-.202c-.371 0-.742-.017-1.113-.051a16.11 16.11 0 0 1-1.063-.136 26.87 26.87 0 0 1-1.029-.256 9.617 9.617 0 0 1-1.012-.324 13.588 13.588 0 0 1-.928-.41 8.856 8.856 0 0 1-.91-.495 12.63 12.63 0 0 1-.86-.562 10.654 10.654 0 0 1-.827-.632 10.98 10.98 0 0 1-.776-.683 15.36 15.36 0 0 1-.725-.75 11.366 11.366 0 0 1-.692-.802 14.805 14.805 0 0 1-.64-.836c-.203-.296-.4-.592-.591-.888a19.492 19.492 0 0 1-.54-.921 12.55 12.55 0 0 1-.506-.956c-.158-.318-.31-.642-.455-.972a20.117 20.117 0 0 1-.726-2.014c-.112-.33-.213-.665-.303-1.006-.09-.353-.175-.694-.253-1.024a32.943 32.943 0 0 1-.338-2.048 15.57 15.57 0 0 1-.067-1.006c-.023-.33-.034-.66-.034-.99 0-.318.006-.637.017-.955.011-.32.04-.633.084-.94.022-.307.062-.609.118-.905.057-.296.124-.586.203-.87.067-.284.146-.557.236-.819a8.14 8.14 0 0 1 .303-.785c.113-.25.237-.495.372-.733a9.15 9.15 0 0 1 .421-.649c.146-.216.31-.42.49-.614.168-.182.348-.358.54-.53.19-.158.393-.312.606-.46a3.85 3.85 0 0 1 .675-.358 3.92 3.92 0 0 1 .709-.307c.258-.08.522-.148.792-.205a4.6 4.6 0 0 1 .692-.085 6.79 6.79 0 0 1 .691-.034h.405c.315.022.641.057.979.102.348.057.702.125 1.062.205.36.09.731.199 1.114.324.382.136.775.29 1.18.46.405.16.821.348 1.249.564.438.204.882.443 1.332.716a25.456 25.456 0 0 1 1.096.649c.09.057.186.12.287.187.236.137.467.285.692.444l.101.068c.034.023.073.046.118.069l.253.179c.102.07.203.147.304.23Zm7.05 16.823c.135.023.265.063.388.12.124.045.242.107.355.187.112.08.219.165.32.256.09.103.174.21.253.324.079.114.14.234.186.359.056.125.095.256.118.392.033.136.05.279.05.427 0 .193-.022.38-.067.562-.057.183-.13.353-.22.512-.09.148-.196.29-.32.427a2.77 2.77 0 0 1-.422.324 2.539 2.539 0 0 1-.506.222 2.266 2.266 0 0 1-1.113 0 2.559 2.559 0 0 1-.506-.222 2.792 2.792 0 0 1-.422-.324 2.785 2.785 0 0 1-.32-.427 2.582 2.582 0 0 1-.22-.512 2.342 2.342 0 0 1 0-1.125 2.6 2.6 0 0 1 .22-.512c.09-.148.197-.29.32-.427.135-.125.276-.233.422-.324.158-.091.326-.165.506-.222.18-.045.365-.068.557-.068.146 0 .286.017.421.051Z" fill="#C01D20"/><path d="m16.246 12.068.034.051.033.103.051.102a.37.37 0 0 1 .067.12l.068.102a.67.67 0 0 1 .084.154.532.532 0 0 0 .101.136c.034.045.068.097.102.154.033.045.073.09.118.136.034.046.073.091.118.137.078.09.169.176.27.256.1.08.202.142.303.187a3.021 3.021 0 0 0-.168.376 4.221 4.221 0 0 0-.118.443c-.023.17-.034.347-.034.53-.011.192-.006.398.017.614.01.204.045.42.1.648.024.114.052.228.085.341.023.125.057.245.101.358.034.114.08.234.135.359.045.113.096.233.152.358.057.125.118.244.186.358a9.281 9.281 0 0 0 .455.734l.27.376.32.358c.102.114.209.227.321.341.124.114.247.234.371.358l.405.342c.146.113.298.222.455.324.147.114.304.222.473.324-.338-.17-.664-.352-.979-.546a7.144 7.144 0 0 1-.86-.58 11.784 11.784 0 0 1-.793-.666 7.466 7.466 0 0 1-.658-.682 10.17 10.17 0 0 1-.573-.734 9.41 9.41 0 0 1-.455-.785 5.367 5.367 0 0 1-.372-.819 4.484 4.484 0 0 1-.253-.836 7.823 7.823 0 0 1-.202-1.757c0-.307.023-.614.068-.922.044-.295.106-.603.185-.921l.017.068Z" fill="#141754"/><path d="M21.34 30.53a.15.15 0 0 1 .067.017h.102c.045.012.084.023.118.035a.973.973 0 0 1 .236.085.11.11 0 0 1 .084.034.61.61 0 0 1 .085.034.56.56 0 0 0 .084.069.26.26 0 0 1 .067.05.26.26 0 0 0 .051.069l.067.068.051.051a.268.268 0 0 0 .05.068c0 .023.012.046.034.068a.217.217 0 0 1 .034.052l.034.05.017.035.017.051.016.035v.017l-.084.05-.236.052a.146.146 0 0 1-.068.017.188.188 0 0 0-.084.017h-.269a.28.28 0 0 0-.085-.017.31.31 0 0 1-.101-.017.61.61 0 0 1-.085-.035.369.369 0 0 1-.118-.05.426.426 0 0 0-.1-.052.396.396 0 0 1-.102-.068l-.101-.068a.21.21 0 0 0-.085-.05 6.399 6.399 0 0 0-.067-.07.262.262 0 0 1-.05-.067.27.27 0 0 0-.051-.069.155.155 0 0 0-.017-.068.153.153 0 0 1-.017-.068.212.212 0 0 1 0-.12.257.257 0 0 1 .084-.102c.011-.022.028-.034.05-.034l.068-.035a.28.28 0 0 1 .085-.017.188.188 0 0 1 .084-.017h.135Zm.405 1.553a.28.28 0 0 0 .067-.017.149.149 0 0 1 .068-.017.27.27 0 0 0 .084-.017.26.26 0 0 0 .084-.018h.152a.15.15 0 0 1 .068.018.12.12 0 0 1 .05.017h.05l.068.034c.012 0 .028.006.051.017l.05.035c.012.01.029.017.051.017l.068.068a.271.271 0 0 1 .067.05c.012 0 .023.007.034.018l.017.017-.017.017-.034.034a.486.486 0 0 1-.067.052l-.034.033-.034.017a.198.198 0 0 0-.05.035.192.192 0 0 1-.051.034l-.034.034a.15.15 0 0 0-.067.018.073.073 0 0 1-.05.017.15.15 0 0 0-.068.017.15.15 0 0 1-.068.017h-.219a.187.187 0 0 1-.084-.017.15.15 0 0 0-.068-.017.15.15 0 0 1-.067-.017.15.15 0 0 0-.068-.018.192.192 0 0 1-.05-.034.192.192 0 0 0-.051-.034.217.217 0 0 0-.05-.035c0-.01-.006-.022-.017-.034-.012-.011-.017-.028-.017-.05v-.069c0-.023.005-.035.017-.035a.132.132 0 0 0 .016-.05l.034-.035a.184.184 0 0 0 .05-.034l.068-.035a.201.201 0 0 1 .05-.033Zm.421 1.672a.195.195 0 0 1 .034-.051v-.051c.023-.023.034-.04.034-.051.022-.023.034-.046.034-.068a.11.11 0 0 0 .05-.051l.05-.051a.11.11 0 0 1 .052-.051.184.184 0 0 0 .05-.035 1.08 1.08 0 0 0 .034-.034.2.2 0 0 1 .05-.034c.023 0 .04-.006.051-.017.011-.012.028-.017.05-.017a.128.128 0 0 0 .051-.018l.085-.017h.05l.034-.017h.118v.17l-.05.137c0 .012-.006.023-.017.034a.132.132 0 0 0-.017.052.198.198 0 0 1-.034.05c0 .012-.011.03-.034.052 0 .01-.01.022-.034.034 0 .022-.01.034-.033.034a.26.26 0 0 0-.05.068.46.46 0 0 1-.068.051c-.011 0-.028.012-.05.034-.012 0-.029.012-.052.035a.15.15 0 0 0-.067.017c-.011.011-.023.017-.034.017-.033 0-.056.006-.067.017a.128.128 0 0 0-.05.017h-.018c-.01 0-.022-.005-.033-.017h-.017l-.034-.017c-.023 0-.034-.006-.034-.017-.022-.023-.034-.046-.034-.068v-.136Zm2.278-3.702.1.068c.023.034.04.068.051.102v.154a.653.653 0 0 0-.033.085.167.167 0 0 1-.034.085.705.705 0 0 0-.034.086.568.568 0 0 0-.067.085.21.21 0 0 1-.05.085.301.301 0 0 1-.085.086.56.56 0 0 1-.169.17.543.543 0 0 0-.084.069.82.82 0 0 0-.085.05l-.067.035a.61.61 0 0 0-.084.034 5.898 5.898 0 0 0-.102.034.15.15 0 0 0-.067.017.188.188 0 0 0-.084.018h-.085l-.067.017h-.27v-.103l.034-.17.033-.069c0-.034.006-.062.017-.085a.192.192 0 0 0 .017-.085.256.256 0 0 0 .05-.069.626.626 0 0 1 .034-.085.26.26 0 0 0 .051-.068.208.208 0 0 1 .05-.085l.068-.068.068-.069.1-.068.085-.085a.376.376 0 0 0 .118-.051l.101-.051a.688.688 0 0 1 .085-.034l.101-.035h.084a.188.188 0 0 1 .085-.017h.067a.17.17 0 0 0 .068.017Zm-1.03 1.91.051-.05a.2.2 0 0 1 .05-.035.192.192 0 0 1 .052-.034.207.207 0 0 1 .05-.034.21.21 0 0 1 .05-.035.149.149 0 0 1 .068-.017c.045-.011.085-.022.118-.034a.374.374 0 0 0 .118-.017h.169c.011 0 .028.006.05.017a.33.33 0 0 1 .152.034.153.153 0 0 1 .085.103v.084c0 .024-.006.04-.017.052-.011.011-.017.028-.017.051-.011 0-.023.011-.034.034a.19.19 0 0 0-.05.034.963.963 0 0 0-.05.052.2.2 0 0 1-.052.034.26.26 0 0 1-.067.051 6.256 6.256 0 0 0-.067.034.653.653 0 0 0-.085.035.183.183 0 0 1-.084.017c-.011.011-.028.017-.05.017a.187.187 0 0 1-.085.017H23.6a.149.149 0 0 0-.067-.017l-.101-.017-.051-.034h-.034c-.022-.023-.045-.035-.067-.035l-.05-.017-.018-.017.034-.068a.203.203 0 0 0 .034-.051l.033-.034.034-.051.034-.035.034-.033Zm-.151 1.178h.05l.068-.034h.084l.05-.017h.154c.01 0 .022.006.033.017h.068c.011 0 .028.006.05.017a.14.14 0 0 0 .051.017c.034.023.068.04.101.051a.21.21 0 0 1 .085.051.56.56 0 0 1 .084.068.24.24 0 0 1 .05.068.255.255 0 0 1 .068.24.112.112 0 0 1-.05.05c0 .012-.012.018-.034.018-.011.011-.023.017-.034.017a.132.132 0 0 1-.05.017h-.169a6.259 6.259 0 0 1-.068-.034h-.067a3.149 3.149 0 0 1-.068-.035c-.022 0-.045-.01-.067-.034a.132.132 0 0 1-.05-.017 3.28 3.28 0 0 1-.034-.034.19.19 0 0 1-.051-.034.19.19 0 0 1-.05-.034l-.034-.035a.132.132 0 0 1-.017-.05l-.068-.069-.017-.05-.017-.018-.033-.068-.017-.034v-.034Z" fill="#7F8080"/><path d="m29.52 43.242-.058.051a5.942 5.942 0 0 1-.228.188.265.265 0 0 1-.067.05 2.761 2.761 0 0 1-.793.376 1.331 1.331 0 0 1-.388.068l-.169.035h-.371a14.775 14.775 0 0 1-.169-.035.626.626 0 0 1-.151-.017.784.784 0 0 0-.152-.017l-.135-.034a1.14 1.14 0 0 1-.135-.035 1.21 1.21 0 0 0-.152-.05 2.167 2.167 0 0 1-.152-.069l-.135-.068a2.02 2.02 0 0 1-.151-.068.268.268 0 0 0-.102-.068v-.017a.698.698 0 0 1-.135-.103.43.43 0 0 1-.1-.102 2.436 2.436 0 0 1-.119-.086 2.714 2.714 0 0 1-.084-.12 3.243 3.243 0 0 1-.101-.102 2.726 2.726 0 0 0-.085-.12.454.454 0 0 1-.084-.119.647.647 0 0 1-.084-.102.46.46 0 0 0-.085-.12l-.506-.87a.273.273 0 0 0-.067-.103.208.208 0 0 1-.05-.085c-.024-.022-.046-.045-.068-.068a.256.256 0 0 0-.051-.068l-.067-.068a.265.265 0 0 1-.068-.052 6.259 6.259 0 0 1-.067-.034c-.023-.01-.045-.022-.068-.034a.146.146 0 0 1-.067-.017h-.169a.48.48 0 0 1-.118.017l-.068.034-.1.052a.543.543 0 0 1-.085.067l-.101.069a.396.396 0 0 1-.102.068 44478.743 44478.743 0 0 0-.185.188l-.54.546c-.045.045-.09.085-.135.12a1.2 1.2 0 0 0-.135.119c-.045.034-.09.074-.135.12a.793.793 0 0 1-.151.12 1.555 1.555 0 0 1-.17.119 6.114 6.114 0 0 0-.15.12 2.781 2.781 0 0 1-.186.102 4.737 4.737 0 0 0-.186.12c-.056.022-.118.05-.186.085a3.887 3.887 0 0 0-.219.102c-.067.023-.14.051-.22.085a8.605 8.605 0 0 1-.252.069.599.599 0 0 1-.152.05.963.963 0 0 0-.169.052 14.774 14.774 0 0 0-.354.069c-.078 0-.146.005-.202.016a1.228 1.228 0 0 1-.203.017l-.202.035h-.439c-.1 0-.208-.012-.32-.035a3.188 3.188 0 0 1-.354-.085 2.074 2.074 0 0 1-.338-.136 3.952 3.952 0 0 1-.708-.46 8.335 8.335 0 0 1-.371-.291 10.474 10.474 0 0 1-.338-.359 12.19 12.19 0 0 1-.354-.375c-.112-.148-.23-.296-.354-.444a16.358 16.358 0 0 1-.337-.46 9.808 9.808 0 0 1-.338-.513 8.305 8.305 0 0 1-.32-.529 9.171 9.171 0 0 1-.32-.562l-.304-.58a7.903 7.903 0 0 1-.304-.615 7.932 7.932 0 0 1-.27-.648l-.27-.649c-.09-.227-.174-.454-.253-.682a9.737 9.737 0 0 1-.219-.683c-.079-.227-.152-.46-.22-.7-.056-.226-.112-.46-.168-.699a34.474 34.474 0 0 1-.169-.716c-.045-.228-.09-.461-.135-.7a7.89 7.89 0 0 1-.1-.717 17.125 17.125 0 0 1-.085-.7l-.068-.717v-.7a6.769 6.769 0 0 1 0-.682l.034-.665a6.6 6.6 0 0 1 .101-.648 10.568 10.568 0 0 1 .27-1.246 5.37 5.37 0 0 1 .203-.597 8.42 8.42 0 0 1 .219-.563c.101-.182.197-.358.287-.529.1-.182.208-.347.32-.495.124-.16.253-.313.388-.46.135-.16.27-.308.405-.444.146-.137.304-.267.472-.393a8.83 8.83 0 0 1 .523-.324c.18-.113.371-.216.574-.307.202-.091.41-.17.624-.239.225-.08.455-.148.691-.205.236-.057.478-.108.726-.153.258-.034.523-.063.792-.085.26-.023.534-.035.827-.035h.034c.135 0 .264.006.388.018.18 0 .36.005.54.017.314.022.64.062.978.119l1.248.853v.034a.86.86 0 0 1 .05.17l.068.172c.011.045.028.096.05.153l.068.137a2.644 2.644 0 0 0 .169.256c.022.034.05.068.084.102.034.045.062.085.084.12.034.034.073.068.118.102a.396.396 0 0 0 .102.068.256.256 0 0 0 .1.085c.035.023.074.046.119.069l.101.068c.045.011.085.022.118.034a.93.93 0 0 0 .236.085h.118a.182.182 0 0 0 .085.017h.134a.374.374 0 0 0 .119-.017.374.374 0 0 0 .118-.017.374.374 0 0 1 .118-.017.212.212 0 0 1 .101-.051c.135-.068.259-.154.371-.256a.877.877 0 0 0 .253-.324c.068-.137.107-.284.118-.444.011-.16-.005-.33-.05-.512a2.356 2.356 0 0 0-.253-.597 4.55 4.55 0 0 0-.456-.631 1.152 1.152 0 0 1-.185-.29 1.123 1.123 0 0 1-.118-.324 1.823 1.823 0 0 1-.068-.342c0-.113.012-.233.034-.358a1.5 1.5 0 0 1 .084-.358c.045-.114.096-.234.152-.359a3.29 3.29 0 0 1 .22-.324c.078-.125.174-.233.286-.324.101-.102.214-.205.337-.307a2.38 2.38 0 0 1 .405-.24 2.42 2.42 0 0 1 .456-.22c.168-.07.343-.12.523-.155.135-.034.264-.056.388-.068.112-.023.23-.034.354-.034l.202-.017c.158 0 .315.011.473.034a3.4 3.4 0 0 1 .607.154c.202.057.388.142.556.256.191.102.36.227.506.375.158.125.304.273.439.444.135.17.264.352.388.546.112.193.213.398.304.614.044.114.084.228.118.341.056.114.095.234.118.359.045.113.078.233.1.358.035.125.063.256.085.392l.068.376c.022.136.033.273.033.41.023.124.034.261.034.409v.768c-.01.113-.022.227-.034.34a3.499 3.499 0 0 1-.05.342l-.068.341c-.022.08-.044.165-.067.256a2.064 2.064 0 0 1-.05.222l-.068.239c-.023.08-.05.154-.085.222-.022.08-.05.16-.084.239l-.067.239a4.236 4.236 0 0 0-.102.221l-.1.24a4.28 4.28 0 0 1-.102.221 5.914 5.914 0 0 1-.202.478c-.045.08-.085.16-.118.239l-1.788 3.515a4.236 4.236 0 0 0-.102.221 1.395 1.395 0 0 0-.118.222l-.1.239c-.023.08-.051.153-.085.222-.045.08-.079.159-.101.239a2.953 2.953 0 0 1-.085.221 2.04 2.04 0 0 0-.084.239 1.67 1.67 0 0 1-.084.205l-.068.239a3.44 3.44 0 0 1-.084.34 9.878 9.878 0 0 0-.068.342c-.022.103-.045.21-.067.324-.011.114-.022.222-.034.324 0 .069-.006.137-.017.205a1.177 1.177 0 0 0-.017.188v.222c0 .068.006.142.017.222 0 .068.006.136.017.204 0 .069.006.143.017.222l.034.222a4.819 4.819 0 0 0 .118.427.742.742 0 0 0 .067.204c.057.136.118.279.186.427.067.125.152.25.253.375.09.114.191.228.303.341.124.103.253.2.388.29h.017c.113.069.231.137.354.206h.017l.118.034c.17.068.355.125.557.17.101.023.208.04.32.052.113.01.226.022.338.034.39 1.429.052 2.976-1.012 4.642Zm-6.257-10.101v.034l.017.035.033.068.017.017.017.051.068.068c0 .012.005.029.017.051l.033.035a.2.2 0 0 0 .05.034.2.2 0 0 0 .052.034l.033.034c.023.012.04.017.05.017.023.023.046.035.068.035l.068.034h.067l.068.034h.168a.132.132 0 0 0 .051-.017c.011 0 .023-.006.034-.017.022 0 .033-.006.033-.017a.114.114 0 0 0 .051-.051.255.255 0 0 0-.067-.24.268.268 0 0 0-.051-.068.56.56 0 0 0-.084-.068.21.21 0 0 0-.085-.05.416.416 0 0 1-.1-.052.13.13 0 0 1-.051-.017.13.13 0 0 0-.051-.017H23.7c-.011-.011-.022-.017-.033-.017h-.151l-.05.017h-.085a6.257 6.257 0 0 0-.068.034h-.05v-.001Zm.152-1.177-.034.034-.034.034-.034.051-.033.034a.203.203 0 0 1-.034.051l-.034.069.017.017.05.017c.023 0 .046.011.068.034h.034l.05.034.102.017a.15.15 0 0 1 .067.017h.169a.187.187 0 0 0 .084-.017c.023 0 .04-.006.05-.017a.187.187 0 0 0 .085-.017.768.768 0 0 1 .085-.035 6.26 6.26 0 0 0 .067-.034.267.267 0 0 0 .067-.05.19.19 0 0 0 .051-.035l.05-.051a.2.2 0 0 1 .051-.034c.011-.023.023-.034.034-.034 0-.023.006-.04.017-.052.011-.01.017-.028.017-.05v-.086a.153.153 0 0 0-.085-.102.33.33 0 0 0-.151-.035.13.13 0 0 0-.051-.017h-.169a.374.374 0 0 1-.118.017 1.815 1.815 0 0 1-.118.035.192.192 0 0 0-.118.052.184.184 0 0 0-.05.033.182.182 0 0 0-.051.035.19.19 0 0 0-.05.034l-.051.05Zm1.029-1.911a.15.15 0 0 1-.068-.018h-.067a.188.188 0 0 0-.085.018h-.084c-.034.01-.067.022-.101.034a.594.594 0 0 0-.085.034l-.1.051a.376.376 0 0 1-.119.051l-.084.085-.101.069-.068.068-.067.068a.208.208 0 0 0-.05.086.269.269 0 0 1-.052.067.728.728 0 0 0-.033.086.264.264 0 0 1-.05.068.192.192 0 0 1-.018.085.193.193 0 0 0-.017.086l-.033.068-.034.17v.103h.27l.067-.017h.085a.188.188 0 0 1 .084-.017.15.15 0 0 1 .067-.017l.102-.034a.71.71 0 0 1 .084-.035c.023-.01.045-.022.067-.034a.82.82 0 0 1 .085-.05.543.543 0 0 1 .084-.07.56.56 0 0 0 .169-.17.301.301 0 0 0 .084-.085.214.214 0 0 0 .05-.085.528.528 0 0 1 .068-.086.705.705 0 0 1 .034-.085.167.167 0 0 0 .034-.085.653.653 0 0 1 .033-.086v-.153a.424.424 0 0 0-.05-.103l-.101-.067Zm-2.278 3.702v.136c0 .023.012.046.034.069 0 .01.011.017.034.017l.034.017h.017c.01.011.022.017.033.017h.017a.128.128 0 0 1 .05-.017c.012-.012.035-.017.068-.017.011 0 .023-.006.034-.017a.149.149 0 0 1 .067-.017c.023-.023.04-.035.051-.035.022-.022.04-.034.05-.034a.46.46 0 0 0 .068-.051.269.269 0 0 1 .05-.068c.023 0 .034-.012.034-.035.023-.01.034-.022.034-.034.023-.022.034-.04.034-.05a.198.198 0 0 0 .034-.052c0-.011.005-.028.017-.051.01-.011.016-.022.016-.034l.051-.136v-.17h-.118l-.034.016h-.05l-.085.017a.128.128 0 0 1-.05.018c-.023 0-.04.005-.05.017a.074.074 0 0 1-.052.017.19.19 0 0 0-.05.034l-.034.034a.2.2 0 0 1-.05.035.112.112 0 0 0-.051.05.963.963 0 0 0-.05.052.109.109 0 0 1-.051.05c0 .023-.012.046-.034.069 0 .011-.011.028-.034.05v.052a.195.195 0 0 0-.034.051Zm-.421-1.672a.19.19 0 0 0-.05.034l-.068.035a.2.2 0 0 1-.05.034l-.035.034a.132.132 0 0 1-.016.051c-.012 0-.017.011-.017.035v.068c0 .023.005.04.017.051.01.011.016.023.016.034.023.012.04.023.051.035a.19.19 0 0 1 .05.034.2.2 0 0 0 .051.034.15.15 0 0 1 .068.017.149.149 0 0 0 .067.017.15.15 0 0 1 .068.017c.022.012.05.017.084.017h.219a.15.15 0 0 0 .068-.017.149.149 0 0 1 .067-.017c.023 0 .04-.006.05-.017a.15.15 0 0 1 .068-.017l.034-.034a.19.19 0 0 0 .05-.034.2.2 0 0 1 .051-.035l.034-.018.034-.034a.486.486 0 0 0 .1-.085l.018-.017-.017-.017c-.011-.011-.022-.017-.034-.017a.26.26 0 0 0-.067-.051l-.068-.068c-.022 0-.04-.006-.05-.017l-.051-.035a.132.132 0 0 0-.05-.017 6.259 6.259 0 0 1-.068-.034h-.05a.128.128 0 0 0-.051-.017.15.15 0 0 0-.068-.018h-.152a.278.278 0 0 1-.084.018.27.27 0 0 1-.084.017.15.15 0 0 0-.068.017.28.28 0 0 1-.067.017Zm-.405-1.553h-.135a.188.188 0 0 0-.084.017.28.28 0 0 0-.085.017l-.067.035c-.023 0-.04.011-.05.034a.254.254 0 0 0-.085.102.212.212 0 0 0 0 .12c0 .023.006.046.017.068a.155.155 0 0 1 .017.068.25.25 0 0 1 .05.069.262.262 0 0 0 .05.068l.068.068a.21.21 0 0 1 .085.051l.1.068a.39.39 0 0 0 .102.068.426.426 0 0 1 .101.051.36.36 0 0 0 .118.051.71.71 0 0 0 .085.035.31.31 0 0 0 .1.017.28.28 0 0 1 .085.017h.27a.188.188 0 0 1 .084-.017.146.146 0 0 0 .068-.017l.236-.051.084-.051V31.4l-.016-.035-.017-.05-.017-.035-.034-.051a.198.198 0 0 0-.034-.051c-.022-.023-.033-.046-.033-.068a.268.268 0 0 1-.051-.068.963.963 0 0 1-.05-.052l-.068-.068a.26.26 0 0 1-.05-.068.26.26 0 0 0-.068-.051.56.56 0 0 1-.084-.068.71.71 0 0 0-.085-.034.115.115 0 0 0-.084-.035.922.922 0 0 0-.236-.085 1.755 1.755 0 0 0-.118-.034h-.102a.146.146 0 0 0-.067-.018Zm6.831 8.344a1.698 1.698 0 0 0-.421-.051 2.25 2.25 0 0 0-.557.068c-.18.057-.348.13-.506.222-.146.09-.287.199-.422.324-.123.136-.23.278-.32.426a2.6 2.6 0 0 0-.22.512 2.345 2.345 0 0 0 0 1.126c.057.182.13.353.22.512.09.148.197.29.32.427.135.125.276.233.422.324.158.09.326.165.506.222a2.268 2.268 0 0 0 1.113 0c.18-.057.349-.131.506-.222.146-.091.287-.2.422-.324.124-.137.23-.279.32-.427.09-.16.163-.33.22-.512.045-.182.067-.37.067-.563a1.8 1.8 0 0 0-.05-.426 1.582 1.582 0 0 0-.118-.393 1.538 1.538 0 0 0-.186-.358 3.592 3.592 0 0 0-.253-.324 3.505 3.505 0 0 0-.32-.256 1.527 1.527 0 0 0-.355-.188 1.55 1.55 0 0 0-.388-.119Z" fill="#FFF"/></g></svg>