<svg viewBox="0 0 120 40" xmlns="http://www.w3.org/2000/svg"><g fill="none"><path d="M8.07 11c-.863 0-1.583.305-2.183.915-.6.61-.887 1.338-.887 2.183v14.785c0 .094.024.117.12.117h.983c.864 0 1.607-.305 2.23-.915.624-.61.936-1.338.936-2.183V14.098c0-.563.144-1.056.48-1.479.336-.422.792-.657 1.391-.704v16.968c0 .094.024.117.12.117h.911c.888 0 1.631-.282 2.255-.892.6-.61.911-1.337.911-2.206V14.098c0-.563.168-1.056.528-1.479.36-.422.84-.657 1.44-.704v16.968c0 .094.023.117.12.117h.887c.887 0 1.63-.282 2.254-.892.6-.61.912-1.337.912-2.206V14.098c0-.869-.312-1.596-.912-2.206A3.17 3.17 0 0 0 18.312 11H8.07Zm18.134 5.844c-.911 0-1.703.328-2.374.985-.672.657-.984 1.408-.984 2.277v5.608c0 .892.312 1.643.984 2.3.671.657 1.463.986 2.374.986h7.531c.072 0 .12-.023.12-.117v-8.777c0-.869-.335-1.62-.983-2.277-.672-.657-1.44-.985-2.326-.985h-4.342Zm3.19 11.1c-.623 0-1.103-.211-1.463-.68-.36-.447-.528-.963-.528-1.55v-5.608c0-.564.168-1.056.552-1.526.36-.446.84-.68 1.44-.68v10.044Zm9.106-11.1c-.911 0-1.703.328-2.374.985-.672.657-.984 1.408-.984 2.3v5.585c0 .892.312 1.667.984 2.324.671.657 1.463.962 2.374.962h3.046c.072 0 .12-.023.12-.117v-.822c0-.07-.048-.117-.12-.117-.528 0-.96-.235-1.32-.704a2.306 2.306 0 0 1-.55-1.526V20.13c0-.54.167-1.056.55-1.525.36-.47.792-.704 1.32-.704.072 0 .12-.024.12-.118v-.821c0-.07-.048-.117-.12-.117H38.5Z" fill="#FA6128"/><path d="M52.797 29c.864 0 1.607-.305 2.23-.915.624-.61.936-1.314.936-2.16V14.099c0-.517.168-1.01.528-1.455a1.847 1.847 0 0 1 1.319-.704c.072 0 .12-.024.12-.118v-.704c0-.07-.048-.117-.12-.117h-2.95a3.17 3.17 0 0 0-2.255.892c-.623.61-.911 1.337-.911 2.206v11.828c0 .516-.192 1.009-.552 1.431-.36.423-.791.634-1.295.634-.096 0-.12.047-.12.117v.775c0 .094.024.117.12.117h2.95Zm8.236-12.156c-.911 0-1.703.328-2.374.985-.672.657-.984 1.408-.984 2.3v5.867c.024.845.336 1.572.936 2.136.575.586 1.32.868 2.206.868h4.462c.935 0 1.726-.305 2.374-.962.647-.634.983-1.408.983-2.324V20.13c0-.868-.336-1.643-.983-2.3-.672-.657-1.439-.985-2.303-.985h-4.317Zm3.166 8.87c0 .564-.216 1.08-.6 1.55-.383.469-.863.68-1.415.68v-7.815c0-.563.169-1.056.528-1.525.36-.446.864-.68 1.487-.68v7.79Zm16.783-8.753c0-.07-.048-.117-.12-.117h-1.08c-.911 0-1.702.328-2.326.985-.624.657-.935 1.408-.935 2.3v7.815c-.624 0-1.104-.211-1.463-.68-.36-.447-.528-.963-.528-1.55v-8.753c0-.07-.048-.117-.12-.117h-1.056c-.91 0-1.702.328-2.374.985-.671.657-.984 1.408-.984 2.3v5.585c0 .892.313 1.667.984 2.324.672.657 1.463.962 2.374.962h7.508c.072 0 .12-.023.12-.117V16.96ZM83.539 29c.912 0 1.68-.305 2.35-.962.672-.657 1.008-1.432 1.008-2.324V20.13c0-.563.168-1.056.552-1.525.384-.47.84-.704 1.415-.704.072 0 .12-.024.12-.118v-.821c0-.07-.048-.117-.12-.117h-3.142c-.912 0-1.703.328-2.375.985-.671.657-.983 1.408-.983 2.3v8.754c0 .094.024.117.12.117h1.055Zm9.325-12.156c-.912 0-1.703.328-2.375.985-.67.657-.983 1.408-.983 2.3v5.585c0 .892.312 1.667.983 2.324.672.657 1.463.962 2.375.962h3.046c.072 0 .12-.023.12-.117v-.822c0-.07-.048-.117-.12-.117-.527 0-.96-.235-1.32-.704a2.307 2.307 0 0 1-.55-1.526V20.13c0-.54.167-1.056.55-1.525.36-.47.793-.704 1.32-.704.072 0 .12-.024.12-.118v-.821c0-.07-.048-.117-.12-.117h-3.046Zm8.086 3.285c0-.563.168-1.056.528-1.525.335-.47.791-.704 1.367-.704v3.66c0 .564-.192 1.08-.552 1.55-.383.469-.815.727-1.343.75v-3.73Zm-4.533 5.585c0 .892.312 1.667.983 2.324.672.657 1.463.962 2.375.962h3.046c.072 0 .12-.023.12-.117v-.822s-.024-.047-.072-.094c-.024 0-.048-.023-.048-.023-.528 0-.96-.235-1.32-.704a2.304 2.304 0 0 1-.55-1.526v-.868h3.069c.864 0 1.607-.258 2.255-.821.623-.54 1.007-1.22 1.103-2.018v-1.995c0-1.972-1.127-3.028-3.358-3.168h-4.245c-.912 0-1.703.328-2.375.985-.671.657-.983 1.408-.983 2.3v5.585ZM109.531 29c.912 0 1.703-.305 2.375-.962.672-.657 1.007-1.432 1.007-2.324V20.13c0-.61.168-1.126.552-1.572.36-.446.84-.704 1.415-.751.072 0 .12-.024.12-.118v-.727c0-.07-.048-.117-.12-.117h-3.142c-.936 0-1.727.328-2.399.962-.671.633-.983 1.408-.983 2.323v5.585c0 .564-.192 1.08-.575 1.55-.384.469-.84.68-1.392.68-.095 0-.12.047-.12.117v.822c0 .094.025.117.12.117h3.142Z" fill="#000"/></g></svg>