<svg xmlns="http://www.w3.org/2000/svg" viewBox="0 0 120 40"><g fill="none" transform="translate(10 8)"><path fill="#DA552F" d="M24,12 C24,18.6270862 18.6270862,24 12,24 C5.37209302,24 0,18.6270862 0,12 C0,5.37209302 5.37250342,0 12,0 C18.6270862,0 24,5.37250342 24,12"/><path fill="#FFF" d="M13.2552,11.998 L9.9416,11.998 L9.9416,8.4892 L13.2552,8.4892 C13.8819868,8.4892 14.4611616,8.82358673 14.774555,9.36639998 C15.0879484,9.90921324 15.0879484,10.5779868 14.774555,11.1208 C14.4611616,11.6636133 13.8819868,11.998 13.2552,11.998 M13.2552,6.15 L7.6024,6.15 L7.6024,17.846 L9.9416,17.846 L9.9416,14.3372 L13.2552,14.3372 C15.516,14.3372 17.3488,12.5044 17.3488,10.2436 C17.3488,7.9828 15.516,6.15 13.2552,6.15"/><path fill="#DA552F" d="M35.6788,10.2664 C35.6788,9.6228 35.1844,9.2328 34.542,9.2328 L32.82,9.2328 L32.82,11.288 L34.5424,11.288 C35.1848,11.288 35.6792,10.898 35.6792,10.2664 L35.6788,10.2664 Z M31.1892,15.5944 L31.1892,7.7972 L34.7712,7.7972 C36.4368,7.7972 37.3432,8.9228 37.3432,10.2664 C37.3432,11.5984 36.4252,12.7236 34.7712,12.7236 L32.82,12.7236 L32.82,15.5944 L31.1896,15.5944 L31.1892,15.5944 Z M38.336,15.5944 L38.336,9.91 L39.7932,9.91 L39.7932,10.6564 C40.1952,10.174 40.8732,9.7724 41.5624,9.7724 L41.5624,11.196 C41.4584,11.1732 41.3324,11.162 41.1604,11.162 C40.678,11.162 40.0344,11.4372 39.7932,11.794 L39.7932,15.5944 L38.3356,15.5944 L38.336,15.5944 Z M46.468,12.6776 C46.468,11.8164 45.9616,11.07 45.0432,11.07 C44.1356,11.07 43.6312,11.8164 43.6312,12.678 C43.6312,13.5504 44.1356,14.2968 45.0432,14.2968 C45.9616,14.2968 46.4676,13.5504 46.4676,12.6776 M42.1148,12.6776 C42.1148,11.1048 43.2172,9.7724 45.0432,9.7724 C46.8808,9.7724 47.9832,11.1044 47.9832,12.6776 C47.9832,14.2508 46.8808,15.5944 45.0432,15.5944 C43.2172,15.5944 42.1148,14.2508 42.1148,12.6776 M52.8904,13.6652 L52.8904,11.7016 C52.6492,11.3336 52.1212,11.07 51.6384,11.07 C50.8008,11.07 50.2264,11.7244 50.2264,12.678 C50.2264,13.642 50.8008,14.2968 51.6384,14.2968 C52.1212,14.2968 52.6492,14.0328 52.8904,13.6648 L52.8904,13.6652 Z M52.8904,15.5944 L52.8904,14.7448 C52.4536,15.2956 51.8572,15.5944 51.1792,15.5944 C49.79,15.5944 48.722,14.5384 48.722,12.6776 C48.722,10.8752 49.7672,9.7724 51.1792,9.7724 C51.8336,9.7724 52.4536,10.0484 52.8904,10.622 L52.8904,7.7972 L54.36,7.7972 L54.36,15.5944 L52.8904,15.5944 Z M59.5544,15.5944 L59.5544,14.756 C59.176,15.1696 58.51,15.5944 57.6024,15.5944 C56.3856,15.5944 55.8116,14.9284 55.8116,13.8488 L55.8116,9.91 L57.2692,9.91 L57.2692,13.2748 C57.2692,14.0444 57.6712,14.2968 58.2912,14.2968 C58.8536,14.2968 59.302,13.9868 59.5544,13.6648 L59.5544,9.91 L61.0128,9.91 L61.0128,15.5944 L59.5544,15.5944 Z M62.108,12.6776 C62.108,10.9784 63.348,9.7724 65.048,9.7724 C66.1848,9.7724 66.8736,10.2664 67.2412,10.7716 L66.2876,11.6668 C66.024,11.2764 65.622,11.07 65.1168,11.07 C64.2324,11.07 63.6128,11.7132 63.6128,12.678 C63.6128,13.642 64.2324,14.2968 65.1168,14.2968 C65.622,14.2968 66.024,14.0672 66.2876,13.688 L67.2412,14.584 C66.8736,15.0892 66.1848,15.5944 65.048,15.5944 C63.348,15.5944 62.108,14.3888 62.108,12.6776 M68.4952,14.0672 L68.4952,11.1848 L67.5768,11.1848 L67.5768,9.91 L68.4952,9.91 L68.4952,8.394 L69.954,8.394 L69.954,9.91 L71.0784,9.91 L71.0784,11.1848 L69.954,11.1848 L69.954,13.6768 C69.954,14.0328 70.1368,14.2968 70.4588,14.2968 C70.6764,14.2968 70.8844,14.2164 70.9636,14.1248 L71.2744,15.238 C71.0564,15.434 70.6656,15.5944 70.0568,15.5944 C69.0348,15.5944 68.4952,15.0664 68.4952,14.0672 M80.42,15.5944 L80.42,12.2296 L76.8024,12.2296 L76.8024,15.5944 L75.1728,15.5944 L75.1728,7.7972 L76.8024,7.7972 L76.8024,10.8056 L80.42,10.8056 L80.42,7.7976 L82.062,7.7976 L82.062,15.5944 L80.42,15.5944 Z M87.2808,15.5944 L87.2808,14.756 C86.902,15.1696 86.236,15.5944 85.3288,15.5944 C84.1116,15.5944 83.5376,14.9284 83.5376,13.8488 L83.5376,9.91 L84.9952,9.91 L84.9952,13.2748 C84.9952,14.0444 85.3972,14.2968 86.0176,14.2968 C86.58,14.2968 87.0284,13.9868 87.2808,13.6648 L87.2808,9.91 L88.7392,9.91 L88.7392,15.5944 L87.2808,15.5944 Z M93.932,15.5944 L93.932,12.104 C93.932,11.3344 93.5312,11.0704 92.9104,11.0704 C92.3364,11.0704 91.9004,11.392 91.6472,11.7136 L91.6472,15.5948 L90.1896,15.5948 L90.1896,9.91 L91.6472,9.91 L91.6472,10.622 C92.0036,10.2088 92.6924,9.7724 93.588,9.7724 C94.8168,9.7724 95.4024,10.4612 95.4024,11.5404 L95.4024,15.5944 L93.9324,15.5944 L93.932,15.5944 Z M97.14,14.0672 L97.14,11.1848 L96.2224,11.1848 L96.2224,9.91 L97.1404,9.91 L97.1404,8.394 L98.5992,8.394 L98.5992,9.91 L99.724,9.91 L99.724,11.1848 L98.5992,11.1848 L98.5992,13.6768 C98.5992,14.0328 98.7824,14.2968 99.104,14.2968 C99.322,14.2968 99.5296,14.2164 99.6096,14.1248 L99.9192,15.238 C99.7016,15.434 99.3104,15.5944 98.702,15.5944 C97.68,15.5944 97.1404,15.0664 97.1404,14.0672"/></g></svg>