<svg viewBox="0 0 120 40" xmlns="http://www.w3.org/2000/svg"><g fill="none"><path d="M18.39 18.2h-2.417v5.466c0 .933.537 1.133 1.41 1.133.335 0 .67-.066 1.006-.066v2.866c-.738 0-1.476.134-2.147.134-3.356 0-4.229-1-4.229-4.267V18.2H10v-2.6h2.013V12h3.96v3.6h2.416v2.6Zm3.49 4.4c.066 1.666 1.006 2.733 2.684 2.733.94 0 1.879-.467 2.282-1.334h3.69c-.67 2.8-3.288 4-5.972 4-3.96 0-6.645-2.333-6.645-6.4 0-3.666 2.953-6.332 6.51-6.332 4.363 0 6.51 3.266 6.31 7.332h-8.86Zm4.899-2.2c-.068-1.334-1.007-2.467-2.35-2.467-1.409 0-2.348 1-2.55 2.467h4.9Zm12.684-.4c0-1-.94-1.734-1.946-1.734-2.215 0-2.55 1.867-2.55 3.534 0 1.533.67 3.133 2.348 3.133 1.41 0 2.081-.8 2.282-2.067h3.826C43.087 26.133 40.604 28 37.383 28c-3.625 0-6.376-2.466-6.376-6.133 0-3.8 2.416-6.533 6.376-6.533 3.02 0 5.704 1.6 5.973 4.733h-3.893V20Zm4.094-8h3.96v5.266h.067c.604-1.2 2.215-2 3.691-2 4.027 0 4.363 2.934 4.363 4.667v7.733h-3.96v-5.8c0-1.666.201-3.333-2.014-3.333-1.476 0-2.147 1.267-2.147 2.6v6.533h-3.96V12Zm12.416 3.6H59.8v2.133h.067C60.47 16.2 61.812 15.4 63.49 15.4c.336 0 .604 0 .94.066v3.6a6.132 6.132 0 0 0-1.544-.2c-1.946 0-2.953 1.334-2.953 2.867v5.933h-3.96V15.6Zm8.457 3.733c.067-1.6.805-2.6 1.879-3.2 1.074-.6 2.483-.866 3.825-.866 2.886 0 5.638.6 5.638 4v5.266c0 1 0 2.133.47 3.066h-3.96a3.366 3.366 0 0 1-.201-1.133c-1.074 1.133-2.55 1.533-4.027 1.533-2.282 0-4.161-1.133-4.161-3.666 0-3.933 4.295-3.6 7.047-4.2.67-.133 1.073-.4 1.073-1.133 0-.934-1.073-1.267-1.946-1.267-1.074 0-1.812.467-2.013 1.533H64.43v.067Zm5.1 6.266c1.88 0 2.55-1.066 2.416-3.533-.537.333-1.61.4-2.416.667-.872.2-1.61.6-1.61 1.533 0 .933.738 1.333 1.61 1.333Zm19.06 2.067h-3.758v-1.4h-.067a3.833 3.833 0 0 1-3.288 1.733c-3.826 0-5.437-3.266-5.437-6.6 0-3.133 1.678-6.066 5.1-6.066 1.477 0 2.618.533 3.424 1.667h.067v-5h3.96v15.666ZM80 21.533c0 1.666.604 3.466 2.416 3.466 1.946 0 2.35-1.8 2.35-3.333 0-1.733-.605-3.333-2.35-3.333C80.604 18.266 80 20 80 21.533Zm9.195-2.2c.067-1.6.805-2.6 1.879-3.2 1.074-.6 2.483-.866 3.825-.866 2.886 0 5.638.6 5.638 4v5.266c0 1 0 2.133.47 3.066h-3.96a3.366 3.366 0 0 1-.201-1.133c-1.074 1.133-2.618 1.533-4.027 1.533-2.282 0-4.161-1.133-4.161-3.666 0-3.933 4.295-3.6 7.047-4.2.67-.133 1.074-.4 1.074-1.133 0-.934-1.074-1.267-1.947-1.267-1.074 0-1.812.467-2.013 1.533h-3.624v.067Zm5.1 6.266c1.88 0 2.55-1.066 2.416-3.533-.537.333-1.61.4-2.416.667-.872.2-1.61.6-1.61 1.533-.068.933.738 1.333 1.61 1.333Zm6.846-10h3.825v2.134h.068c.604-1.533 1.946-2.333 3.624-2.333.335 0 1.006 0 1.342.066v3.6c-.537-.133-1.342-.2-1.88-.2-1.946 0-2.952 1.334-2.952 2.867v5.933h-3.96V15.6h-.067Z" fill="#000"/><path fill="#E6248A" d="M106.04 23.733H110v3.933h-3.96z"/></g></svg>