<svg viewBox="0 0 113 28" xmlns="http://www.w3.org/2000/svg"><g fill="none" fill-rule="evenodd"><path d="M29.7 9.9h11.43v2.15h-4.5v12.07h-2.47V12.06h-4.48V9.91h.01l.01-.01Zm10.94 3.93h2.12v1.98h.04c.07-.28.2-.55.39-.8.395-.563.943-1 1.58-1.26.33-.13.67-.2 1-.2a6.05 6.05 0 0 1 .7.03l.17.03v2.18a7.22 7.22 0 0 0-.98-.1 2.47 2.47 0 0 0-1.95.9c-.26.3-.46.67-.6 1.11-.15.44-.22.94-.22 1.52v4.9h-2.26v-10.3h.01v.01Zm14.14 10.3H57v-10.3h-2.26v5.98c0 .4-.04.77-.13 1.11a2.28 2.28 0 0 1-.42.89 2 2 0 0 1-.77.59c-.32.15-.71.22-1.19.22-.62 0-1.1-.2-1.45-.56-.34-.37-.51-1.02-.51-1.92v-6.31H48v6.53c0 1.35.3 2.37.9 3.04.6.67 1.58 1 2.92 1 .57 0 1.13-.16 1.68-.47a3.08 3.08 0 0 0 1.23-1.24h.04v1.43l.01.01Zm6.06-3.3c.07.65.32 1.12.75 1.39a3 3 0 0 0 1.56.4c.21 0 .45-.02.72-.05a3 3 0 0 0 .76-.2c.24-.08.43-.22.59-.4a1 1 0 0 0 .2-.7.97.97 0 0 0-.31-.72c-.2-.19-.45-.33-.76-.45-.31-.11-.66-.21-1.06-.29a51.47 51.47 0 0 1-.98-.21l-.22-.05a11.41 11.41 0 0 1-1.22-.34 3.7 3.7 0 0 1-1.05-.55 2.38 2.38 0 0 1-.74-.86 2.7 2.7 0 0 1-.28-1.3c0-.57.14-1.03.41-1.4.27-.39.62-.69 1.03-.92a4.74 4.74 0 0 1 1.39-.5c.5-.08 1-.13 1.45-.13.53 0 1.04.06 1.52.17.48.1.92.29 1.3.55a3.25 3.25 0 0 1 1.46 2.45h-2.35c-.11-.54-.35-.92-.74-1.1a3.01 3.01 0 0 0-1.34-.28c-.4.01-.798.077-1.18.2-.2.06-.35.17-.5.31a.78.78 0 0 0-.2.56c0 .28.1.5.3.67.19.17.44.31.74.43.31.11.66.21 1.06.3.32.05.63.12.96.2l.27.05c.4.1.8.21 1.2.34.4.13.75.31 1.06.55.31.23.56.5.75.85.2.34.3.77.3 1.27 0 .62-.15 1.13-.43 1.56-.28.42-.64.77-1.08 1.03-.43.26-.93.46-1.47.58-.54.12-1.08.18-1.6.18a6.77 6.77 0 0 1-1.8-.22 4.36 4.36 0 0 1-1.43-.66 3.28 3.28 0 0 1-.95-1.11 3.67 3.67 0 0 1-.37-1.59h2.28v-.02.01Zm9.14-7H68.3v1.71H70v6.08c.01.42.06.8.13 1.13.08.33.21.6.42.82.2.22.5.4.85.5.36.11.84.17 1.44.17.25 0 .49 0 .73-.04l.39-.04.33-.04v-1.75c-.16.04-.32.06-.48.07h-.47a1.6 1.6 0 0 1-.6-.08.64.64 0 0 1-.33-.27 1.17 1.17 0 0 1-.14-.44 5.64 5.64 0 0 1-.03-.63v-5.5h2.03v-1.7h-2.03v-3.08h-2.26v3.09Zm5.89 0H78v1.4h.04a2.8 2.8 0 0 1 1.33-1.3 4.35 4.35 0 0 1 1.83-.37c.81 0 1.51.14 2.1.43a4.12 4.12 0 0 1 1.5 1.17c.41.52.715 1.114.9 1.75.2.66.3 1.37.3 2.13a7.44 7.44 0 0 1-.28 2 5.39 5.39 0 0 1-.8 1.73 3.97 3.97 0 0 1-1.38 1.2c-.56.3-1.2.45-1.97.45a5.5 5.5 0 0 1-.98-.1 4.33 4.33 0 0 1-.95-.29c-.3-.13-.59-.3-.84-.5a3.17 3.17 0 0 1-.65-.73h-.04v5.14h-2.25v-14.1l.01-.01Zm7.7 3.8c.12.44.18.9.18 1.36 0 .45-.05.89-.14 1.32-.1.43-.27.81-.5 1.15a2.53 2.53 0 0 1-2.18 1.14c-.46 0-.87-.08-1.22-.27a2.7 2.7 0 0 1-.9-.76 3.2 3.2 0 0 1-.57-1.14 5.11 5.11 0 0 1-.19-1.44c0-1.1.24-2 .72-2.65.48-.67 1.2-1 2.15-1 .45 0 .86.11 1.22.31.35.2.65.48.89.82.24.34.42.72.54 1.16Zm4.16-7.73h2.25v2.15h-2.25V9.9Zm2.25 3.93h-2.25v10.3h2.25v-10.3ZM92 9.9h2.25v14.22H92V9.9ZM98.98 24c.64.26 1.36.4 2.18.4.82 0 1.55-.14 2.19-.4a4.6 4.6 0 0 0 1.62-1.13 4.91 4.91 0 0 0 1-1.72 6.67 6.67 0 0 0 .36-2.18c0-.79-.12-1.5-.35-2.17a4.91 4.91 0 0 0-1-1.72 4.83 4.83 0 0 0-1.63-1.12 5.57 5.57 0 0 0-2.19-.41c-.82 0-1.54.14-2.18.4a4.6 4.6 0 0 0-1.63 1.13 4.9 4.9 0 0 0-1 1.72 6.581 6.581 0 0 0-.36 2.17c0 .79.12 1.52.35 2.18a4.9 4.9 0 0 0 1.01 1.72c.45.47.99.85 1.63 1.12V24Zm2.18-1.4a2.6 2.6 0 0 0 2.22-1.15c.24-.34.4-.73.52-1.16a5.35 5.35 0 0 0 0-2.64 3.46 3.46 0 0 0-.52-1.16 2.77 2.77 0 0 0-.91-.83 2.6 2.6 0 0 0-1.3-.32 2.6 2.6 0 0 0-2.22 1.15c-.24.34-.41.72-.53 1.16a5.4 5.4 0 0 0 0 2.64c.1.43.29.82.53 1.16a2.5 2.5 0 0 0 2.21 1.15Zm7.53-8.77h-1.68v1.71h1.7v6.08c.01.42.06.8.13 1.13.08.33.21.6.42.82.2.22.49.4.85.5a5.81 5.81 0 0 0 2.16.13l.4-.04.33-.04v-1.75c-.16.04-.32.06-.48.07h-.48a1.6 1.6 0 0 1-.6-.08.64.64 0 0 1-.33-.27 1.16 1.16 0 0 1-.14-.44 5.64 5.64 0 0 1-.03-.63v-5.5h2.04v-1.7h-2.04v-3.08h-2.25v3.09Z" fill="#191919"/><path fill="#00B67A" fill-rule="nonzero" d="M27.06 9.9H16.73L13.53 0l-3.2 9.9H0l8.37 6.12-3.2 9.88 8.36-6.11 8.36 6.11-3.19-9.88z"/><path fill="#005128" fill-rule="nonzero" d="m19.42 18.26-.72-2.24-5.17 3.77 5.89-1.54z"/></g></svg>