<svg xmlns="http://www.w3.org/2000/svg" viewBox="0 0 120 40"><path fill="#f90" d="M70.032 26.88c-4.865 3.592-11.938 5.51-18.021 5.51-8.528 0-16.206-3.154-22.014-8.401-.456-.413-.048-.975.5-.654 6.269 3.648 14.019 5.842 22.025 5.842 5.4 0 11.339-1.117 16.801-3.435.825-.351 1.515.54.708 1.139m2.028-2.318c-.621-.797-4.11-.376-5.688-.19-.478.059-.551-.358-.121-.658 2.785-1.961 7.355-1.395 7.89-.738s-.138 5.242-2.756 7.429c-.403.335-.785.157-.606-.289.587-1.468 1.906-4.757 1.282-5.556"/><path fill="#221f1f" d="M66.48 9.874V7.969a.47.47 0 0 1 .482-.482h8.531c.273 0 .493.197.493.482V9.6c-.003.273-.235.632-.642 1.198l-4.42 6.312c1.644-.04 3.377.205 4.866 1.044.335.19.419.467.453.741v2.034c0 .277-.307.602-.629.434-2.625-1.375-6.112-1.526-9.014.014-.296.161-.606-.161-.606-.438v-1.932c0-.31.003-.839.314-1.311l5.122-7.345h-4.449c-.273 0-.493-.193-.493-.478M35.356 21.765h-2.595c-.248-.018-.445-.205-.464-.442V8.001c0-.267.223-.478.5-.478h2.421a.49.49 0 0 1 .471.445v1.741h.048c.632-1.683 1.818-2.468 3.417-2.468 1.625 0 2.639.785 3.37 2.468.629-1.683 2.055-2.468 3.585-2.468 1.088 0 2.278.449 3.004 1.457.822 1.121.654 2.749.654 4.177l-.006 8.409a.49.49 0 0 1-.5.482h-2.6a.5.5 0 0 1-.467-.482v-7.07c0-.562.05-1.964-.073-2.497-.193-.894-.774-1.147-1.526-1.147-.629 0-1.285.419-1.552 1.092s-.241 1.797-.241 2.552v7.062a.49.49 0 0 1-.5.482h-2.6c-.263-.018-.467-.226-.467-.482l-.003-7.062c0-1.486.245-3.674-1.599-3.674-1.865 0-1.792 2.132-1.792 3.674v7.062a.49.49 0 0 1-.5.482M83.332 7.252c3.851 0 5.936 3.308 5.936 7.513 0 4.064-2.304 7.287-5.936 7.287-3.774 0-5.842-3.308-5.842-7.429 0-4.147 2.085-7.381 5.842-7.381m.022 2.72c-1.912 0-2.034 2.607-2.034 4.231s-.025 5.104 2.011 5.104c2.011 0 2.107-2.804 2.107-4.512 0-1.124-.048-2.468-.386-3.534-.292-.928-.872-1.289-1.698-1.289m10.909 11.805h-2.585a.5.5 0 0 1-.467-.482l-.003-13.325c.022-.245.237-.434.5-.434h2.407c.226.011.413.164.464.372v2.038h.048c.726-1.822 1.745-2.691 3.538-2.691 1.174 0 2.3.419 3.03 1.57.671 1.065.671 2.858.671 4.147v8.387c-.029.235-.245.419-.5.419h-2.598c-.237-.018-.434-.193-.46-.419v-7.236c0-1.457.168-3.59-1.625-3.59-.632 0-1.212.424-1.51 1.065-.365.814-.413 1.625-.413 2.523v7.174a.5.5 0 0 1-.507.482m-34.576-6.374c0 1.011.025 1.845-.486 2.753-.413.73-1.069 1.179-1.797 1.179-.996 0-1.581-.759-1.581-1.88 0-2.213 1.983-2.614 3.862-2.614v.562m2.617 6.327a.54.54 0 0 1-.612.062c-.861-.715-1.018-1.048-1.49-1.73-1.424 1.453-2.435 1.887-4.279 1.887-2.187 0-3.885-1.347-3.885-4.045 0-2.107 1.139-3.541 2.768-4.242 1.409-.621 3.377-.73 4.881-.902v-.335c0-.617.048-1.347-.319-1.88-.314-.478-.92-.675-1.457-.675-.99 0-1.87.507-2.085 1.56-.044.235-.216.464-.453.475l-2.516-.27c-.211-.048-.449-.218-.386-.545.577-3.053 3.338-3.972 5.804-3.972 1.263 0 2.914.335 3.91 1.292 1.263 1.179 1.142 2.753 1.142 4.465v4.045c0 1.216.503 1.749.979 2.407.164.235.201.515-.011.69l-1.984 1.731-.003-.008m-36.648-6.326c0 1.011.025 1.845-.486 2.753-.413.73-1.065 1.179-1.797 1.179-.996 0-1.577-.759-1.577-1.88 0-2.213 1.983-2.614 3.858-2.614v.562m2.617 6.327a.54.54 0 0 1-.612.062c-.861-.715-1.006-1.048-1.49-1.73-1.424 1.453-2.432 1.887-4.279 1.887-2.182.001-3.883-1.346-3.883-4.043 0-2.107 1.142-3.541 2.768-4.242 1.409-.621 3.377-.73 4.881-.902v-.335c0-.617.048-1.347-.314-1.88-.319-.478-.923-.675-1.457-.675-.99 0-1.873.507-2.097 1.56-.044.235-.216.464-.449.475l-2.519-.27c-.211-.048-.445-.218-.386-.545.58-3.053 3.338-3.972 5.804-3.972 1.263 0 2.914.335 3.91 1.292 1.263 1.179 1.142 2.753 1.142 4.465v4.045c0 1.216.503 1.749.979 2.407.168.235.205.515-.008.69l-1.979 1.721-.008-.008"/></svg>