<svg xmlns="http://www.w3.org/2000/svg" viewBox="0 0 120 40"><g fill="none" fill-rule="evenodd"><path fill="#F90" d="M70.032 26.88c-4.865 3.592-11.938 5.51-18.02 5.51-8.529 0-16.207-3.153-22.015-8.4-.456-.413-.048-.975.5-.654 6.268 3.648 14.019 5.841 22.024 5.841 5.4 0 11.34-1.117 16.801-3.435.826-.35 1.515.54.708 1.139m2.028-2.318c-.62-.797-4.11-.376-5.688-.19-.478.059-.551-.358-.12-.658 2.784-1.96 7.355-1.394 7.889-.738.534.657-.138 5.242-2.756 7.43-.403.335-.785.157-.606-.289.587-1.468 1.905-4.757 1.281-5.556"/><path fill="#221F1F" d="M66.48 9.874V7.97a.47.47 0 0 1 .482-.483h8.532c.273 0 .493.198.493.483V 9.6c-.004.273-.235.632-.643 1.198l-4.42 6.312c1.644-.04 3.377.204 4.866 1.044.336.19.42.467.453.741v2.034c0 .277-.307.602-.629.435-2.625-1.376-6.111-1.527-9.013.014-.296.161-.607-.161-.607-.438v-1.93c0-.31.004-.84.314-1.311l5.122-7.346h-4.45c-.273 0-.493-.193-.493-.478m-31.13 11.891H32.76a.492.492 0 0 1-.464-.442V8.001c0-.266.224-.478.5-.478h2.42a.49.49 0 0 1 .472.445v1.741h.048c.632-1.683 1.818-2.468 3.417-2.468 1.625 0 2.64.785 3.37 2.468.629-1.683 2.055-2.468 3.585-2.468 1.088 0 2.278.448 3.005 1.457.822 1.12.654 2.749.654 4.176l-.006 8.41a.49.49 0 0 1-.5.481h-2.6a.5.5 0 0 1-.467-.482v-7.07c0-.562.05-1.964-.073-2.497-.193-.894-.774-1.146-1.527-1.146-.629 0-1.284.419-1.551 1.092-.267.672-.24 1.796-.24 2.552v7.062a.49.49 0 0 1-.5.482h-2.6a.491.491 0 0 1-.468-.482l-.003-7.062c0-1.486.245-3.674-1.6-3.674-1.865 0-1.792 2.132-1.792 3.674v7.062a.49.49 0 0 1-.5.482M83.332 7.252c3.851 0 5.937 3.307 5.937 7.513 0 4.063-2.304 7.286-5.937 7.286-3.774 0-5.841-3.307-5.841-7.429 0-4.147 2.085-7.38 5.841-7.38m.022 2.72c-1.912 0-2.034 2.606-2.034 4.23 0 1.625-.025 5.104 2.011 5.104 2.012 0 2.107-2.803 2.107-4.512 0-1.124-.048-2.468-.386-3.534-.292-.928-.872-1.29-1.697-1.29m10.909 11.805h-2.585a.5.5 0 0 1-.467-.482l-.004-13.325a.49.49 0 0 1 .5-.435h2.407a.497.497 0 0 1 .464.373v2.038h.048c.726-1.822 1.745-2.69 3.538-2.69 1.174 0 2.3.419 3.03 1.57.67 1.064.67 2.858.67 4.147v8.387a.497.497 0 0 1-.499.42h-2.598a.49.49 0 0 1-.46-.42v-7.236c0-1.457.168-3.59-1.624-3.59-.632 0-1.212.424-1.51 1.066-.365.813-.413 1.624-.413 2.523v7.174a.499.499 0 0 1-.507.482m-34.576-6.374c0 1.011.025 1.845-.486 2.753-.413.73-1.07 1.179-1.797 1.179-.996 0-1.58-.76-1.58-1.88 0-2.213 1.982-2.615 3.861-2.615v.562m2.617 6.327a.54.54 0 0 1-.612.062c-.862-.715-1.018-1.048-1.49-1.73-1.424 1.453-2.434 1.887-4.279 1.887-2.186 0-3.885-1.347-3.885-4.045 0-2.107 1.14-3.54 2.768-4.242 1.41-.62 3.377-.73 4.881-.902v-.335c0-.617.048-1.347-.318-1.88-.314-.479-.92-.676-1.457-.676-.99 0-1.87.508-2.085 1.56-.044.235-.216.464-.453.475l-2.516-.27c-.212-.048-.449-.218-.386-.545.577-3.053 3.338-3.972 5.804-3.972 1.263 0 2.913.335 3.91 1.291 1.263 1.18 1.142 2.753 1.142 4.466v4.045c0 1.216.503 1.748.979 2.407.164.235.201.515-.011.69l-1.984 1.731-.004-.008M25.65 15.4c0 1.012.025 1.846-.486 2.753-.413.73-1.066 1.18-1.797 1.18-.996 0-1.577-.76-1.577-1.881 0-2.213 1.983-2.614 3.858-2.614v.562m2.617 6.327a.54.54 0 0 1-.612.062c-.861-.716-1.007-1.049-1.49-1.73-1.424 1.452-2.432 1.887-4.279 1.887-2.182 0-3.883-1.346-3.883-4.044 0-2.107 1.142-3.54 2.768-4.242 1.409-.62 3.376-.73 4.881-.902v-.335c0-.617.048-1.347-.314-1.88-.318-.479-.922-.676-1.456-.676-.99 0-1.873.508-2.097 1.56-.044.235-.216.464-.449.475l-2.52-.27c-.21-.048-.444-.218-.385-.545.58-3.053 3.338-3.972 5.804-3.972 1.263 0 2.913.335 3.91 1.291 1.263 1.18 1.142 2.753 1.142 4.466v4.045c0 1.216.503 1.748.979 2.407.168.235.204.515-.009.69l-1.979 1.721-.008-.008"/></g></svg>