<svg xmlns="http://www.w3.org/2000/svg" viewBox="0 0 512 512"><path fill="#FFF" d="M0 0h512v512H0z"/><path d="M256 36.881c7.677 0 18.015 2.052 29.348 5.166l1.516.42 1.528.434 1.538.445c.514.15 1.03.302 1.547.456l1.555.466.78.237 1.566.481 1.572.49 1.578.5 1.581.507 1.585.515 1.588.521 1.59.529 1.59.534 1.59.54 1.589.545 2.38.826 2.373.834 2.363.84 1.568.564 1.562.565 2.328.849 2.308.85 2.286.848 1.51.565 1.211.456 1.866.711 1.275.492 1.961.763 2.018.795 2.074.827 1.415.568 1.44.582 2.207.9 1.503.617 2.302.952 3.158 1.319 3.26 1.374 2.51 1.067 2.568 1.099 2.625 1.13 3.588 1.555 2.757 1.204 3.766 1.653 1.92.848 2.929 1.298 3.993 1.779 4.094 1.835 3.137 1.413 4.271 1.932 4.372 1.989 4.474 2.044 4.575 2.1 3.497 1.613 2.364 1.092 4.802 2.226 4.916 2.287c12.726 5.933 20.98 18.605 21.285 32.673 1.605 74.06-12.36 142.795-41.895 206.205-25.54 54.835-69.037 99.154-130.49 132.956l-1.867 1.021a26.411 26.411 0 0 1-12.2 3.204V36.881Z" fill="#00B3FF"/><path d="M256 36.881c-7.677 0-18.015 2.052-29.348 5.166l-1.516.42-1.528.434-1.538.445c-.514.15-1.03.302-1.547.456l-1.555.466-.78.237-1.566.481-1.572.49-1.578.5-1.581.507-1.585.515-1.588.521-1.59.529-1.59.534-1.59.54-1.589.545-2.38.826-2.373.834-2.363.84-1.568.564-1.562.565-2.328.849-2.308.85-2.286.848-1.51.565-1.211.456-1.866.711-1.275.492-1.961.763-2.018.795-2.074.827-1.415.568-1.44.582-2.207.9-1.503.617-2.302.952-3.158 1.319-3.26 1.374-2.51 1.067-2.568 1.099-2.625 1.13-3.588 1.555-2.757 1.204-3.766 1.653-1.92.848-2.929 1.298-3.993 1.779-4.094 1.835-3.137 1.413-4.271 1.932-4.372 1.989-4.474 2.044-4.575 2.1-3.497 1.613-2.364 1.092-4.802 2.226-4.916 2.287c-12.726 5.933-20.98 18.605-21.285 32.673-1.605 74.06 12.36 142.795 41.895 206.205 25.54 54.835 69.037 99.154 130.49 132.956l1.867 1.021a26.411 26.411 0 0 0 12.2 3.204V36.881Z" fill="#0091FF"/><path d="M364.374 179.387c3.923 3.931 4.114 10.242.436 14.396l-74.884 84.583-12.283 14.273c-11.332 13.168-31.18 14.623-44.333 3.25a31.526 31.526 0 0 1-3.367-3.392l-48.234-56.567c-3.281-3.849-3.06-9.576.507-13.152l9.328-9.35a9.654 9.654 0 0 1 12.502-.996l45.628 33.037a8.08 8.08 0 0 0 10.08-.482l83.129-73.248c4.148-3.655 10.418-3.45 14.328.469l7.163 7.179Z" fill="#FFF"/></svg>