<svg xmlns="http://www.w3.org/2000/svg" viewBox="0 0 90 90"><path fill="#FFF" d="M0 0h90v90H0z"/><path d="m23.987 43.727 20.085 20.198a1.32 1.32 0 0 0 1.856 0l11.308-11.372a6.087 6.087 0 0 1 8.422-.178l.186.178a1.404 1.404 0 0 1 .169 2.037L46.097 74.618a1.32 1.32 0 0 1-1.856 0L15.38 45.594a1.338 1.338 0 0 1-.095-1.76l.095-.107a6.087 6.087 0 0 1 8.607 0ZM45 32.907c.992 0 1.94.415 2.616 1.145l10.127 10.184a1.338 1.338 0 0 1 0 1.867l-9.79 9.845a3.562 3.562 0 0 1-5.083.152l-.148-.152a3.603 3.603 0 0 1-1.14-2.631c0-.998.413-1.951 1.14-2.631l4.556-4.583a1.32 1.32 0 0 0-.168-1.697l-4.895-4.922a3.92 3.92 0 0 1 0-5.262l.169-.17A3.564 3.564 0 0 1 45 32.906Zm-8.27 8.147c.992 0 1.94.415 2.616 1.145l1.688 1.698a1.338 1.338 0 0 1 0 1.867l-1.688 1.697a3.564 3.564 0 0 1-2.616 1.146c-.992 0-1.94-.415-2.616-1.146l-.14-.163a3.92 3.92 0 0 1 .14-5.099l.149-.151a3.562 3.562 0 0 1 2.467-.994Zm9.198-25.672L74.62 44.406a1.338 1.338 0 0 1 0 1.867l-.168.17a6.087 6.087 0 0 1-8.608 0L45.591 26.075a1.32 1.32 0 0 0-1.857 0L32.426 37.447a6.087 6.087 0 0 1-8.608 0 2.177 2.177 0 0 1 .338-2.037l19.916-20.028a1.32 1.32 0 0 1 1.856 0Z" fill="#323A45"/></svg>