<svg xmlns="http://www.w3.org/2000/svg" viewBox="0 0 90 90"><path d="M0 0h90v90H0z"/><path fill="#fff" d="M0 0h90v90H0z"/><path fill="#323A45" d="M44.07 15.38 24.16 35.41a2.18 2.18 0 0 0-.34 2.04 6.09 6.09 0 0 0 8.6 0l11.31-11.38c.52-.5 1.35-.5 1.86 0l20.25 20.37a6.09 6.09 0 0 0 8.61 0l.17-.17c.5-.52.5-1.35 0-1.86l-28.7-29.03c-.5-.5-1.33-.5-1.85 0Zm2.03 59.24L66 54.59a1.4 1.4 0 0 0-.17-2.04 6.09 6.09 0 0 0-8.6 0l-11.3 11.38c-.52.5-1.34.5-1.86 0L24 43.73a6.09 6.09 0 0 0-8.61 0c-.5.52-.5 1.35 0 1.86l28.86 29.03c.52.5 1.34.5 1.86 0Zm1-30.22-4.9-4.93a3.92 3.92 0 0 1 0-5.26l.17-.17a3.56 3.56 0 0 1 5.24 0l10.12 10.19c.5.51.5 1.34 0 1.86l-9.79 9.85a3.56 3.56 0 0 1-5.23 0 3.6 3.6 0 0 1 0-5.26l4.56-4.59c.36-.53.3-1.25-.17-1.7Zm-7.76-2.21 1.68 1.7c.51.52.51 1.35 0 1.86l-1.68 1.7a3.56 3.56 0 0 1-5.24 0 3.92 3.92 0 0 1 0-5.26 3.56 3.56 0 0 1 5.24 0Z"/></svg>