<svg viewBox="0 0 90 90" xmlns="http://www.w3.org/2000/svg"><g fill="none"><path fill="#231F20" d="M0 0h90v90H0z"/><path d="M28.903 36.95H18.356a1.15 1.15 0 0 0-1.143 1.143V51.9a1.15 1.15 0 0 0 1.143 1.143h10.547a1.15 1.15 0 0 0 1.142-1.143V38.096a1.15 1.15 0 0 0-1.142-1.146Zm-1.907 12.476h-5.821v-1.372h2.269v-5.326c-.395.46-1.037.69-1.927.69h-.342v-1.477h.671c.983 0 1.644-.352 1.985-1.055h1.24v7.172h1.926v1.368ZM43.088 36.95H32.54a1.15 1.15 0 0 0-1.143 1.143V51.9a1.15 1.15 0 0 0 1.143 1.143h10.547A1.15 1.15 0 0 0 44.23 51.9V38.096a1.15 1.15 0 0 0-1.142-1.146Zm-2.762 11.528c-.645.74-1.506 1.11-2.584 1.11-.942 0-1.7-.247-2.273-.744-.573-.496-.88-1.157-.918-1.983h1.632c.01.37.164.722.428.982.266.265.658.397 1.175.397.6 0 1.048-.214 1.343-.642.295-.428.462-1.135.5-2.123-.531.484-1.236.726-2.115.726a3.508 3.508 0 0 1-1.299-.228 2.48 2.48 0 0 1-.93-.615 2.648 2.648 0 0 1-.537-.873 2.93 2.93 0 0 1-.183-1.038c0-.812.293-1.473.879-1.984.586-.51 1.338-.766 2.258-.766.378-.003.755.046 1.12.147.354.101.687.265.984.484.315.228.583.515.79.844.239.395.412.826.513 1.276.133.57.197 1.153.19 1.738-.004 1.454-.328 2.551-.973 3.292Zm-1.361-5.93c.312.342.52.924.622 1.745a3.065 3.065 0 0 1-1.815.565c-.483 0-.859-.127-1.128-.38-.269-.255-.403-.597-.402-1.028a1.35 1.35 0 0 1 .408-1.027c.283-.259.647-.388 1.091-.388.463-.017.91.17 1.224.513Zm11.453.717c0-.432.156-.754.468-.967a2.24 2.24 0 0 1 2.296 0c.311.211.467.533.467.967a1.05 1.05 0 0 1-.242.71 1.297 1.297 0 0 1-.593.397c-.253.08-.518.118-.784.115a2.06 2.06 0 0 1-1.142-.302c-.313-.201-.469-.508-.469-.92Zm3.422 3.691c.018.388-.177.755-.508.957-.339.215-.768.323-1.288.323s-.952-.108-1.299-.323a1.055 1.055 0 0 1-.518-.957c0-.441.17-.768.511-.979.341-.21.777-.316 1.306-.316.528 0 .96.105 1.295.316.336.211.503.538.502.981l-.001-.002Zm3.559-10.008H46.846a1.15 1.15 0 0 0-1.143 1.143v13.808a1.15 1.15 0 0 0 1.143 1.142h10.547a1.15 1.15 0 0 0 1.142-1.142V38.096A1.15 1.15 0 0 0 57.4 36.95v-.002Zm-2.156 11.247c-.194.322-.466.59-.791.78a4.143 4.143 0 0 1-1.115.449 5.596 5.596 0 0 1-2.612 0 4.143 4.143 0 0 1-1.114-.45 2.221 2.221 0 0 1-.791-.78 2.094 2.094 0 0 1-.291-1.095c0-.545.137-.976.412-1.295a2.672 2.672 0 0 1 1.067-.743c-.854-.41-1.28-1.033-1.28-1.869a2.36 2.36 0 0 1 .188-.96c.114-.272.284-.517.5-.718.22-.198.469-.36.739-.481.285-.13.585-.226.894-.283a5.425 5.425 0 0 1 1.95 0c.31.058.61.153.897.283a2.8 2.8 0 0 1 .744.481c.215.201.386.446.5.717.128.304.192.631.187.961 0 .834-.427 1.457-1.28 1.869a2.55 2.55 0 0 1 1.06.743c.279.314.419.746.419 1.295.008.384-.09.763-.283 1.096Zm8.949-2.123 2.512-3.021v3.021h-2.512Zm7.456-9.121H61.1a1.15 1.15 0 0 0-1.143 1.143V51.9a1.15 1.15 0 0 0 1.143 1.143h10.547A1.15 1.15 0 0 0 72.79 51.9V38.096a1.15 1.15 0 0 0-1.142-1.146v.001Zm-1.916 10.473h-1.441v2.04h-1.587v-2.04h-4.462v-1.05l4.616-5.562h1.433v5.26h1.441v1.352Z" fill="#FFF"/></g></svg>