<svg viewBox="0 0 90 90" xmlns="http://www.w3.org/2000/svg"><g fill="none"><path fill="#FFF" d="M0 0h90v90H0z"/><g fill="#2019F5"><path d="M69.152 17.521a5.78 5.78 0 0 0-3.3 1.042 5.73 5.73 0 0 0-1.027.744l-16.97 17.744c-2.357 2.177-2.519 5.904-.355 8.28 2.16 2.375 5.858 2.537 8.21.356l7.59-7.621v30.292c0 3.248 2.637 5.896 5.852 5.896 3.218 0 5.848-2.648 5.848-5.896V23.42c0-3.241-2.63-5.9-5.848-5.9M37.141 55.45c-2.501-2.008-4.11-4.38-4.847-7.41-.656-2.729-.382-4.996.514-7.742.125-.324.138-.364.033-.115a8.9 8.9 0 0 1 .237-.522c.118-.263.25-.512.382-.765.365-.667.77-1.321 1.23-1.928-.283.374.227-.259.264-.303.254-.29.51-.566.778-.835.27-.27.55-.53.835-.782.067-.06.69-.553.31-.266a14.597 14.597 0 0 1 1.944-1.24c.73-.391.88-.459 1.444-.657 1.521-.55 2.765-.769 4.192-.816 1.555-.047 2.87-1.29 2.87-2.888 0-1.523-1.308-2.941-2.87-2.887-5.99.195-11.372 3.096-14.878 7.992-3.36 4.69-4.27 11.12-2.427 16.595 1.13 3.377 3.164 6.423 5.936 8.653 1.21.974 2.874 1.19 4.053 0 .998-1.004 1.214-3.103 0-4.084m12.22 1.675c-2.17.758-4.31.984-6.581.708-1.545-.182-2.87 1.459-2.87 2.894 0 1.712 1.322 2.7 2.87 2.888 2.711.32 5.524-.02 8.106-.92 1.454-.509 2.428-1.978 1.995-3.555-.389-1.429-2.052-2.527-3.52-2.015"/><path d="M20.959 48.607c-.43-3.403-.284-6.392.446-9.35.186-.755.402-1.503.653-2.238.121-.367.25-.728.395-1.088l.213-.54c-.193.459.173-.363.173-.363a26.915 26.915 0 0 1 2.271-3.993c.217-.314.44-.63.666-.934-.216.287.325-.397.446-.539a26.53 26.53 0 0 1 1.745-1.9c1.25-1.233 2.035-1.874 3.31-2.736 2.805-1.894 5.161-2.905 8.45-3.633 4.361-.967 9.006-.593 13.33.93 1.46.512 3.133-.586 3.522-2.018.436-1.594-.537-3.04-2.001-3.555-8.242-2.898-17.612-1.944-25.1 2.588-6.264 3.794-10.997 9.906-13.17 16.939a29.64 29.64 0 0 0-1.072 12.433c.196 1.543 1.176 2.891 2.863 2.891 1.396 0 3.063-1.334 2.863-2.894m28.079 20.291c-5.034.924-10.46.135-14.885-2.112-4.682-2.373-8.214-5.874-10.682-10.493-.734-1.372-2.616-1.803-3.921-1.035-1.38.816-1.765 2.575-1.025 3.956 2.897 5.429 7.505 9.988 13.009 12.7 5.963 2.935 12.524 3.75 19.028 2.558 1.525-.28 2.384-2.144 2.002-3.555-.44-1.618-1.995-2.295-3.526-2.019"/></g></g></svg>