<svg viewBox="0 0 90 90" xmlns="http://www.w3.org/2000/svg"><g fill="none"><path d="M0 45c0 24.854 20.147 45 45 45s45-20.146 45-45C90 20.147 69.853 0 45 0S0 20.147 0 45Z" fill-opacity=".25" fill="#000"/><path d="M2.813 45C2.813 68.3 21.7 87.188 45 87.188 68.3 87.188 87.188 68.3 87.188 45S68.3 2.812 45 2.812 2.812 21.7 2.812 45Z" fill="#FFF"/><path d="M45 9.844c19.416 0 35.156 15.74 35.156 35.156 0 19.417-15.74 35.156-35.156 35.156-19.416 0-35.156-15.74-35.156-35.156C9.844 25.584 25.584 9.844 45 9.844Zm0 9.14c-14.368 0-26.016 11.648-26.016 26.016 0 14.368 11.648 26.016 26.016 26.016 14.368 0 26.016-11.648 26.016-26.016 0-14.368-11.648-26.016-26.016-26.016Z" fill="#198CFF"/><path d="M45.175 18.984c14.193 0 25.84 11.648 25.84 26.19 0 14.195-11.647 25.842-25.84 25.842-14.543 0-26.19-11.647-26.19-25.841a26.091 26.091 0 0 1 26.19-26.19Z" fill="#F7F7F7"/><path d="M39.375 37.367V27.49c0-1.203.975-2.177 2.177-2.177h6.896c1.202 0 2.177.974 2.177 2.177v18.315c0 .385-.153.754-.425 1.026l-1.361 1.361a1.452 1.452 0 0 0 0 2.053l1.36 1.361c.273.272.426.642.426 1.027v9.877a2.177 2.177 0 0 1-2.177 2.178h-6.896a2.177 2.177 0 0 1-2.177-2.178V44.195c0-.385.153-.754.425-1.026l1.361-1.361a1.452 1.452 0 0 0 0-2.053l-1.36-1.361a1.452 1.452 0 0 1-.426-1.027Z" fill="#666"/></g></svg>