<svg xmlns="http://www.w3.org/2000/svg" viewBox="0 0 90 90"><defs><linearGradient id="A" x1="65.137%" x2="15.728%" y1="93.116%" y2="-8.065%"><stop offset="0%" stop-color="#ffe500"/><stop offset="3%" stop-color="#fedd00"/><stop offset="11%" stop-color="#fcca00"/><stop offset="19%" stop-color="#fbbf00"/><stop offset="28%" stop-color="#fbbb00"/><stop offset="67%" stop-color="#ef8034"/><stop offset="89%" stop-color="#ea6033"/><stop offset="100%" stop-color="#e63430"/></linearGradient><linearGradient id="B" x1="84.005%" x2="35.164%" y1="-11.305%" y2="90.293%"><stop offset="0%" stop-color="#ffe500"/><stop offset="3%" stop-color="#fedd00"/><stop offset="11%" stop-color="#fcca00"/><stop offset="19%" stop-color="#fbbf00"/><stop offset="28%" stop-color="#fbbb00"/><stop offset="67%" stop-color="#ef8034"/><stop offset="89%" stop-color="#ea6033"/><stop offset="100%" stop-color="#e63430"/></linearGradient></defs><g fill="none" fill-rule="evenodd"><path fill="#000" opacity="0" d="M0 0h90v90H0z"/><g fill-rule="nonzero" transform="translate(3 4)"><path fill="url(#A)" d="M51.569 81.942a6.01 6.01 0 0 1-6.412-8.241 6.01 6.01 0 0 1 4.798-3.667 29.83 29.83 0 0 0 0-57.533 5.99 5.99 0 0 1-3.12-10.374A5.99 5.99 0 0 1 53.16 1.06C71.306 6.06 83.878 22.566 83.878 41.389S71.306 76.717 53.16 81.718a5.97 5.97 0 0 1-1.591.224h0z"/><path fill="url(#B)" d="M32.38 81.942c-.546 0-1.089-.075-1.614-.224C12.619 76.717.047 60.212.047 41.389S12.619 6.06 30.766 1.06a6 6 0 0 1 7.428 7.27 6 6 0 0 1-4.197 4.289 29.83 29.83 0 0 0 0 57.533 5.99 5.99 0 0 1-1.591 11.783l-.026.008z"/></g></g></svg>