<svg viewBox="0 0 90 90" xmlns="http://www.w3.org/2000/svg"><g fill="none" fill-rule="evenodd"><path d="M31.82 11.398a6.739 6.739 0 0 1 8.434 4.484L59.56 79.536a6.799 6.799 0 0 1-4.503 8.47 6.739 6.739 0 0 1-8.434-4.483L27.317 19.869a6.799 6.799 0 0 1 4.503-8.47Z" fill="#D91A62"/><path d="M63.92 2.989a6.817 6.817 0 0 1 3.13 9.086L38.11 71.881a6.732 6.732 0 0 1-9.03 3.11 6.817 6.817 0 0 1-3.13-9.088L54.89 6.098a6.732 6.732 0 0 1 9.03-3.11Z" fill="#7BC144"/><path fill="#49A848" d="m44.07 28.46 5.799 19.12-8.696 17.97-5.8-19.12 8.696-17.97z"/></g></svg>