<svg viewBox="0 0 90 90" xmlns="http://www.w3.org/2000/svg"><path d="M44.896 28.41C62.013 28.41 76 42.304 76 59.31 76 76.106 62.013 90 44.896 90 27.778 90 14 76.106 14 59.309 14 42.304 27.778 28.41 44.896 28.41Zm-23.38-17.004C21.515 6.014 25.69 0 33.831 0h22.963c7.515 0 11.481 6.429 11.481 11.198v7.258l-7.306-.207v-6.636c0-2.489-2.088-4.355-4.175-4.355H32.997c-2.297 0-4.175 1.866-4.175 3.94.208 2.281 0 17.212 0 17.212s-1.88 1.037-3.55 2.281c-1.67 1.244-3.548 2.903-3.548 2.903s-.209-16.59-.209-22.188Zm-.418 47.903c0 12.857 10.646 23.433 23.798 23.433 13.151 0 23.798-10.576 23.798-23.433 0-13.065-10.647-23.64-23.798-23.64-13.152 0-23.798 10.575-23.798 23.64Zm23.798-18.456c10.229 0 18.579 8.294 18.579 18.456 0 9.954-8.35 18.249-18.58 18.249-10.02 0-18.37-8.295-18.37-18.25 0-10.16 8.35-18.455 18.37-18.455ZM38.633 55.16c0 2.074 1.044 4.148 2.714 5.185v9.124h7.306v-9.124c1.461-1.037 2.714-3.111 2.714-5.185 0-3.525-2.923-6.22-6.471-6.22-3.34 0-6.263 2.695-6.263 6.22Z" fill="#3BBBBC"/></svg>