<svg xmlns="http://www.w3.org/2000/svg" viewBox="0 0 90 90"><path fill="#373737" d="M0 0h90v90H0z"/><path d="M18.65 42.05a5.752 5.752 0 0 0 1.804-.427 3.438 3.438 0 0 0 1.377-1.027c.357-.446.542-1.046.542-1.792 0-1.122-.37-1.976-1.116-2.576a3.968 3.968 0 0 0-2.563-.899c-1.34 0-2.347.44-3.029 1.32-.682.88-1.007 1.996-.982 3.335H9.64c.05-1.339.293-2.563.727-3.666a8.273 8.273 0 0 1 1.83-2.838c.784-.79 1.721-1.396 2.811-1.83 1.09-.433 2.309-.65 3.654-.65 1.046 0 2.085.153 3.13.465a8.935 8.935 0 0 1 2.813 1.397 7.424 7.424 0 0 1 2.027 2.27c.523.892.784 1.925.784 3.092 0 1.27-.306 2.385-.911 3.354-.606.97-1.511 1.626-2.723 1.977v.076c1.435.325 2.563 1.02 3.38 2.085.816 1.071 1.224 2.347 1.224 3.839 0 1.364-.268 2.582-.804 3.653a7.99 7.99 0 0 1-2.142 2.685 9.396 9.396 0 0 1-3.093 1.638 12.01 12.01 0 0 1-3.653.561c-1.467 0-2.806-.21-4.01-.63-1.206-.428-2.232-1.04-3.074-1.85-.848-.81-1.499-1.798-1.958-2.965-.459-1.167-.675-2.506-.65-4.023h5.044c.025.695.133 1.358.338 1.99.197.63.484 1.179.86 1.638.377.459.842.829 1.403 1.097.561.274 1.224.408 1.996.408 1.199 0 2.206-.364 3.029-1.097.822-.733 1.23-1.728 1.23-2.99 0-.989-.198-1.748-.593-2.27a3.413 3.413 0 0 0-1.486-1.135 6.18 6.18 0 0 0-1.957-.408 37.625 37.625 0 0 0-2.028-.058v-3.75c.555.052 1.167.052 1.811 0" fill="#009ADE"/><path d="M43.727 34.38c2.946 0 5.866 1.192 8.008 3.27l.574.555V33.73l-.14-.102c-2.449-1.722-5.152-2.55-8.257-2.55-7.958 0-14.43 6.089-14.43 13.574 0 7.371 6.472 13.371 14.43 13.371 2.9 0 5.834-.905 8.257-2.55l.147-.102v-4.464l-.568.536c-2.219 2.085-5.114 3.277-7.945 3.277-5.764 0-10.635-4.66-10.635-10.17 0-5.515 4.833-10.17 10.559-10.17" fill="#FFF"/><path fill="#009ADE" d="M52.354 39.442v10.4l4.552-5.414z"/><path fill="#FFF" d="M79.905 57.844 69.2 44.773l10.705-13.04h-5.68l-7.85 9.584-7.85-9.584h-5.674l10.7 13.04-10.706 13.07h5.624l7.906-9.634 7.907 9.635z"/></svg>