<svg viewBox="0 0 90 90" xmlns="http://www.w3.org/2000/svg"><g fill="none"><path fill="#FFF" d="M0 0h90v90H0z"/><path d="M56.089 33.242s4.292-1.396 7.742-4.747l.008 2.792c-1.858 1.54-4.348 2.363-4.348 2.363l-3.402-.408ZM71.9 15l-.008 1.734c.3 10.586.279 21.241-.07 31.828v-.229l-.013 4.976L74 51.816v-34.66L71.9 15Z" fill="#0D0D0D"/><path d="M71.9 16.72V15l-6.838.981c-.605 1.79-1.419 5.722-8.973 9.515v7.746s4.292-1.395 7.742-4.747v24.199l7.979.615.013-4.975a515.789 515.789 0 0 1 .077-31.613Z" fill="#414141"/><path d="M71.9 16.72a511.538 511.538 0 0 1-.077 31.84 511.538 511.538 0 0 1 .077-31.84Z" fill="#ACACAC"/><path fill="#820000" d="M52.473 71.434 49.76 62.05l-3.521.157 2.283 7.845zm-8.459-18.091L40.64 41.251l1.92-6.274 5.273 18.366z"/><path d="m47.833 23.741-11.06-2.08-3.228 9.232a1164.785 1164.785 0 0 1-12.013 34.84c7.659-2.287 12.744-6.993 16.64-12.39h-1.225l5.613-18.366 1.781 6.205c3.596-9.868 3.492-17.44 3.492-17.448v.007Z" fill="#FF3F36"/><path d="m48.007 23.769-.174-.028s.105 7.566-3.492 17.44l3.492 12.162h-9.662c-3.895 5.397-8.98 10.103-16.639 12.39A1213.817 1213.817 0 0 1 18.131 75l13.293-1.382 3.123-10.89 15.213-.677 2.713 9.384 9.515-1.03L48.007 23.77Z" fill="#EB140A"/><path d="M33.872 29.9c-.07.22-.146.435-.216.656l3.116-8.893-4.75 2.425L15 72.424 18.131 75a1161.068 1161.068 0 0 1 15.734-45.1h.007Z" fill="#B80000"/><path d="M33.872 29.898a1161.27 1161.27 0 0 1-15.741 45.101 1161.27 1161.27 0 0 1 15.741-45.101Z" fill="#FDC9C4"/></g></svg>