<svg viewBox="0 0 90 90" xmlns="http://www.w3.org/2000/svg"><g fill="none" fill-rule="evenodd"><path d="M45 0C20.147 0 0 20.147 0 45s20.147 45 45 45 45-20.147 45-45S69.853 0 45 0Z" fill="#FFF"/><path d="M45 0C20.147 0 0 20.147 0 45s20.147 45 45 45 45-20.147 45-45S69.853 0 45 0Zm0 .892C69.36.892 89.108 20.639 89.108 45c0 24.36-19.747 44.11-44.108 44.11C20.64 89.11.892 69.36.892 45S20.639.892 45 .892Zm0 3.119C22.362 4.01 4.01 22.36 4.01 45c0 22.638 18.352 40.99 40.99 40.99S85.99 67.639 85.99 45 67.637 4.01 45 4.01ZM23.854 24.747c5.074 0 9.702 1.91 13.206 5.047v-4.607h6.603v38.736L37.06 60.84v-1.525a19.735 19.735 0 0 1-13.206 5.048c-10.94 0-19.808-8.869-19.808-19.808 0-10.94 8.868-19.809 19.808-19.809Zm42.26 0c10.94 0 19.808 8.869 19.808 19.809 0 10.94-8.869 19.808-19.809 19.808a19.732 19.732 0 0 1-13.206-5.05v1.527l-6.602 3.082V25.187h6.602v4.609a19.73 19.73 0 0 1 13.206-5.049Zm-42.26 6.603c-7.293 0-13.204 5.912-13.204 13.206 0 7.293 5.911 13.204 13.204 13.204 7.293 0 13.206-5.911 13.206-13.204 0-7.294-5.913-13.206-13.206-13.206Zm42.26 0c-7.294 0-13.207 5.912-13.207 13.206 0 7.293 5.913 13.204 13.206 13.204 7.294 0 13.205-5.911 13.205-13.204 0-7.294-5.911-13.206-13.205-13.206Z" fill="navy" fill-rule="nonzero"/></g></svg>