<svg viewBox="0 0 90 90" xmlns="http://www.w3.org/2000/svg"><g fill="none" fill-rule="evenodd"><path fill="#000" d="M0 0h90v90H0z"/><g fill-rule="nonzero"><path d="M29.114 38.018h-1.361v.011l-.799.007L12 56l4.32-.036 11.433-13.735v13.753h3.485V38.044l.035-.044z" fill="#666"/><path d="M29.114 38.018h-1.361v.011l-.799.007L12 56l4.32-.036 11.433-13.735v13.753h3.485V38.044l.035-.044z" fill="#FFF"/><path d="m55.222 38-2.16.018h-1.36v.011l-.8.007L35.95 56l4.32-.036L51.7 42.229v13.753h3.485V38.044z" fill="#666"/><path d="m55.222 38-2.16.018h-1.36v.011l-.8.007L35.95 56l4.32-.036L51.7 42.229v13.753h3.485V38.044z" fill="#FFF"/><path d="M63.954 38.036 59.897 38l14.046 17.964L78 56z" fill="#666"/><path d="M63.954 38.036 59.897 38l14.046 17.964L78 56z" fill="#FFF"/><path fill="#0188FF" d="M73.943 38.036 78 38 63.954 55.964 59.898 56z"/></g></g></svg>