<svg xmlns="http://www.w3.org/2000/svg" viewBox="0 0 90 90"><path fill="#FFF" d="M0 0h90v90H0z"/><path d="M33.96 16.67c-2 4.74-3.6 8.68-3.56 8.76.08.08 2.32-.8 5-1.91 2.72-1.12 5.04-1.91 5.24-1.71.28.27 7.32 16.94 10 23.67l.76 1.9H38.72L36.6 42.3c-1.16-2.78-2.2-5.13-2.24-5.2-.08-.09-2.48.83-5.36 1.98l-5.2 2.15-1.16 2.79A4896.1 4896.1 0 007 81.8c0 .11 3.92.15 8.68.11l8.68-.12 3.88-9.15 3.88-9.15L45 63.38l12.84-.08 1.12 2.47c.6 1.39 2.44 5.6 4 9.35L65.88 82h8.56c5.16 0 8.56-.16 8.56-.4 0-.2-6.76-16.63-15.04-36.48A8119.15 8119.15 0 0152.72 8.48c-.16-.36-2.08-.48-7.68-.48H37.6l-3.64 8.67z"/><path fill="#ED0015" d="M32.84 28.85l-4.72 2.07-1 2.3c-.52 1.28-.88 2.4-.8 2.47.08.08 2.28-.72 4.92-1.83a86.6 86.6 0 015-1.99c.12 0 1.2 2.27 2.36 5.01 1.4 3.35 2.24 4.86 2.44 4.46.16-.28.64-1.43 1.08-2.5l.76-2-2.08-4.97c-1.16-2.74-2.36-5.01-2.64-5.05-.32-.04-2.68.87-5.32 2.03z"/></svg>