<svg viewBox="0 0 90 90" xmlns="http://www.w3.org/2000/svg"><g fill="#EB7824"><path d="M38.616 0C54.44 15.949 70.497 31.665 86 47.927c-1.493 1.844-3.215 3.487-4.855 5.2a2987.518 2987.518 0 0 1-31.267 31.317c-1.95 1.875-3.852 3.805-5.913 5.556-7.819-7.423-15.34-15.152-22.978-22.76C14.631 60.812 8.23 54.433 2 47.883c5.025-5.583 10.447-10.79 15.692-16.16.382-.364.721-.793 1.192-1.045 2.23-.089 4.461.008 6.692-.035C19.81 36.44 14.033 42.22 8.264 48.012 18.676 58.428 28.995 68.944 39.55 79.213c1.475 1.365 2.868 2.818 4.446 4.067 2.953-2.459 5.635-5.227 8.398-7.895 9.138-9.066 18.212-18.198 27.296-27.319-5.997-6.426-12.338-12.523-18.512-18.779-7.507-7.543-15.063-15.04-22.58-22.575.01-2.239.01-4.473.018-6.712Z"/><path d="M38.604 12.419c9.575 9.353 18.96 18.903 28.415 28.375 2.2 2.258 4.45 4.465 6.58 6.785-9.675 10.145-19.701 19.95-29.592 29.89-9.93-9.963-19.918-19.864-29.84-29.832 4.963-4.991 9.945-9.963 14.912-14.95.838-.805 1.563-1.756 2.528-2.413 2.034-.09 4.075-.074 6.102.104-5.276 5.583-10.868 10.864-16.059 16.529-.382.32-.644.83-.112 1.155 6.677 6.968 13.554 13.745 20.439 20.504a29.01 29.01 0 0 0 2.172 1.96c6.777-6.588 13.361-13.378 19.976-20.132.942-.97 1.918-1.918 2.709-3.02-9.13-9.731-18.771-18.972-28.099-28.506-.37-2.076-.046-4.31-.131-6.449Z"/><path d="M29.589 44.795c4.743-4.86 9.42-9.793 14.368-14.444 5.839 5.501 11.531 11.173 16.972 17.077a416.085 416.085 0 0 1-16.814 17.128c-4.315-3.94-8.406-8.115-12.527-12.26-1.498-1.597-3.115-3.09-4.47-4.81.73-.978 1.637-1.805 2.47-2.69Zm14.368-7.141s-4.041 3.932-5.747 5.695a16.72 16.72 0 0 0-1.818 1.953c-.744.773-1.466 1.573-2.099 2.443 3.196 3.232 6.271 6.612 9.702 9.589 3.42-3.028 6.557-6.376 9.702-9.685-2.057-2.59-4.438-4.899-6.773-7.234-.34-.31-2.967-2.761-2.967-2.761Z"/></g></svg>