<svg xmlns="http://www.w3.org/2000/svg" viewBox="0 0 90 90"><path fill="#6317C2" d="M0 0h90v90H0z"/><path d="M62.391 65.145a20.231 20.231 0 0 1-8.68 7.335 27.13 27.13 0 0 1-11.462 2.517 28.368 28.368 0 0 1-11.841-2.416 27.018 27.018 0 0 1-8.859-6.502 29.765 29.765 0 0 1-5.587-9.575A34.14 34.14 0 0 1 14 44.906c0-4.092.651-7.992 2.054-11.613a29.011 29.011 0 0 1 5.68-9.567 26.764 26.764 0 0 1 8.859-6.41C34.042 15.742 37.956 15 42.156 15c4.286 0 8.021.834 11.377 2.594a23.725 23.725 0 0 1 8.014 6.687h.279v-7.899H76V73.6H62.67v-8.355h-.279v-.1ZM28.176 44.906c0 2.417.372 4.741 1.116 7.058a17.765 17.765 0 0 0 3.262 5.853 15.473 15.473 0 0 0 5.41 3.992 16.69 16.69 0 0 0 7.269 1.49c2.612 0 4.944-.463 7.083-1.49a18 18 0 0 0 5.503-3.992 18.58 18.58 0 0 0 3.542-5.853 20.242 20.242 0 0 0 1.216-7.15c0-2.417-.372-4.742-1.216-7.058a18.58 18.58 0 0 0-3.542-5.853 15.83 15.83 0 0 0-5.503-4 16.139 16.139 0 0 0-7.083-1.483c-2.79 0-5.223.464-7.27 1.483a16.689 16.689 0 0 0-5.409 4 16.384 16.384 0 0 0-3.262 5.853 23.842 23.842 0 0 0-1.116 7.15" fill="#FFF"/></svg>