<svg viewBox="0 0 90 90" xmlns="http://www.w3.org/2000/svg"><g fill="none"><path fill="#CC2131" d="M0 0h90v90H0z"/><path d="M15.464 55C9.19 54.998 5 50.488 5 45.018S9.202 34.986 15.455 35h59.09C80.798 34.986 85 39.548 85 45.018c0 5.47-4.192 9.98-10.465 9.982H15.464Z" fill="#FFF"/><path d="M15.483 37.461c-4.966.009-8.014 3.377-8.014 7.544 0 4.166 3.029 7.561 8.014 7.542h59.032c4.986.019 8.016-3.376 8.016-7.542 0-4.167-3.049-7.535-8.016-7.544H15.483Z" fill="#CC2131"/><path d="M12.937 40.276h2.889l4 6.564-.002-6.564h2.867v9.415h-2.863l-4.02-6.565v6.565h-2.872v-9.415Zm25.348.969h2.792v1.267h1.51v.93h-1.51l.002 6.25h-2.794v-6.25H36.77v-.93h1.517l-.002-1.267ZM24.289 43.43h2.79v6.261h-2.79v-6.26Zm-.006-3.156h2.796v1.925h-2.796v-1.925ZM74.3 46.51l-.002 1.325c0 .998-.58 1.41-1.141 1.41-.558 0-1.143-.412-1.143-1.41l.002-1.349.003-1.306c0-.994.582-1.403 1.138-1.403.556 0 1.14.41 1.14 1.403 0 .38 0 1.081.003 1.334v-.004Zm-1.121-3.508c-2.251 0-4.076 1.574-4.076 3.516 0 1.941 1.825 3.515 4.076 3.515 2.253 0 4.078-1.574 4.078-3.515 0-1.942-1.825-3.516-4.078-3.516Zm-7.739-2.727h2.754v9.414h-2.758l-.002-.36c-1.066.68-2.273.677-3.212.234a3.341 3.341 0 0 1-1.908-3.103c0-1.655 1.537-3.458 3.547-3.28.662.06 1.132.305 1.579.559v-3.464Zm.02 6.253V45.41c0-.969-.658-1.216-1.092-1.216-.445 0-1.095.247-1.095 1.216l.001 1.116-.001 1.112c0 .968.65 1.22 1.095 1.22.434 0 1.092-.252 1.092-1.22v-1.11ZM33.61 43.14c1.042-.03 3.16.664 3.144 3.144-.003.439 0 3.405 0 3.405h-2.772v-4.112c0-.546-.515-1.153-1.274-1.153-.761 0-1.325.607-1.325 1.153l.003 4.112h-2.77l-.003-6.26 2.772-.003s-.003.505 0 .658a3.341 3.341 0 0 1 2.225-.944Zm22.674 0c1.041-.03 3.158.664 3.145 3.144-.004.439-.003 3.405-.003 3.405h-2.771v-4.112c0-.546-.514-1.153-1.274-1.153s-1.327.607-1.327 1.153l.005 4.112h-2.77l.002-6.26 2.768-.003s-.005.505 0 .658a3.34 3.34 0 0 1 2.225-.944Zm-11.097 2.471c-.005-.547.006-.914.183-1.229.22-.385.62-.569.983-.57h-.002c.366.001.764.185.982.57.177.315.187.682.183 1.23h-2.329Zm2.317 1.889s.002.028.002.38c0 1.146-.742 1.4-1.153 1.4-.412 0-1.168-.254-1.168-1.4 0-.344.004-1.293.004-1.293s5.254.002 5.254 0c0-1.942-1.846-3.55-4.115-3.55s-4.109 1.574-4.109 3.514c0 1.943 1.84 3.517 4.109 3.517 1.882 0 3.471-1.09 3.958-2.57l-2.782.002Zm29.947-4.985h-.322v-2.144h.806c.498 0 .746.187.746.61 0 .382-.237.55-.548.59l.6.944h-.358l-.558-.93h-.366v.93Zm.382-1.205c.272 0 .512-.02.512-.35 0-.264-.237-.314-.458-.314h-.436v.664h.382Z" fill="#FFF"/><path d="M75.977 41.438c0-1.067.853-1.853 1.86-1.853 1 0 1.85.787 1.85 1.853a1.84 1.84 0 0 1-1.85 1.864 1.844 1.844 0 0 1-1.86-1.864Zm1.86 1.554c.83 0 1.482-.659 1.482-1.554 0-.879-.652-1.544-1.481-1.544-.838 0-1.492.665-1.492 1.544 0 .896.654 1.554 1.492 1.554Z" fill="#FFF"/></g></svg>