<svg viewBox="0 0 90 90" xmlns="http://www.w3.org/2000/svg"><path d="M77.254 42.252c-7.6 1.881-17.94 3.301-32.253 3.301-14.652 0-24.652-1.42-32.252-3.3-5.546-1.375-5.513-28.708 27.515-31.134 1.912-2.662.856-7.886-.336-9.366-.257-.318.04-.806.435-.748a7.61 7.61 0 0 1 1.945.541c5.078 2.2 7.584 8.24 8.136 9.635 32.31 2.767 32.315 29.71 26.81 31.071Zm-3.51 5.483c-4.353.903-15.305 2.64-28.768 2.64-13.463 0-24.41-1.74-28.753-2.642a1.832 1.832 0 0 0-1.503.347 1.894 1.894 0 0 0-.514.61 1.931 1.931 0 0 0-.221.77c-.527 7.443-.145 30.851 26.375 35.495 1.419 1.232 3.772 4.058 4.629 4.045.857.013 3.21-2.81 4.628-4.045 26.323-5.151 26.852-28.1 26.365-35.478a1.931 1.931 0 0 0-.218-.775 1.894 1.894 0 0 0-.513-.614 1.85 1.85 0 0 0-1.508-.35v-.003Z" fill="#74C947"/></svg>