<svg viewBox="0 0 90 90" xmlns="http://www.w3.org/2000/svg"><g fill="none"><path fill="#004DFF" d="M0 0h90v90H0z"/><path d="M64.757 41.523C66.238 42.59 67 43.868 67 45.36v.746c-.021 1.152-.423 2.772-2.243 4.157L24.317 78.5v-6.045c0-1.833.212-2.728 2.244-4.093 1.692-1.108 28.716-19.975 32.292-22.469l-32.229-22.64c-1.354-.98-2.412-1.726-2.412-3.794V13l40.545 28.523Zm-23.362 7.29a5.054 5.054 0 0 1-2.815-.958L24 37.729v-4.157c0-.96.423-1.706 1.122-2.068.761-.405 1.714-.277 2.539.34 1.213.783 7.823 5.366 19.828 13.75l-2.899 1.983c-1.121.832-2.158 1.237-3.195 1.237Z" fill="#FFF"/></g></svg>