<svg xmlns="http://www.w3.org/2000/svg" viewBox="0 0 90 90"><path fill="#FFF" d="M0 0h90v90H0z"/><path d="M38.937 44.623 28.114 15.71c-.425-1.133-2.114-.83-2.114.38v57.823c0 1.21 1.69 1.514 2.114.379L38.938 45.38a1.073 1.073 0 0 0-.001-.757Z" fill="#FD570D"/><path d="M51.935 44.62 41.11 15.708c-.425-1.135-2.114-.83-2.114.38V73.91c0 1.21 1.689 1.513 2.114.379l10.825-28.913a1.071 1.071 0 0 0 0-.757Z" fill="#CC70EB"/><path d="M64.932 44.62 54.107 15.708c-.425-1.135-2.113-.83-2.113.38V73.91c0 1.21 1.688 1.513 2.113.379l10.825-28.913c.09-.244.09-.511 0-.757Z" fill="#1781FA"/></svg>