<svg xmlns="http://www.w3.org/2000/svg" viewBox="0 0 90 90" fill-rule="evenodd"><path fill="#fff" d="M0 0h90v90H0z"/><g fill="#2e2d2d"><path d="M63.679 57.507v3.09c0 4.162 1.555 6.242 4.789 6.242 2.923 0 4.914-2.018 4.914-5.044 0-2.648-1.742-5.233-5.038-7.756-5.038-3.783-9.703-6.999-13.311-10.467-3.421-3.342-5.163-7.819-5.163-12.989C49.871 20.242 56.837 14 69.029 14c12.067 0 18.163 5.297 18.163 15.827v5.486H73.258v-4.603c0-3.972-1.368-5.801-4.665-5.801-2.612 0-4.292 1.892-4.292 4.603 0 3.594 3.67 6.368 10.077 11.413 5.474 4.351 9.517 7.44 11.321 10.656C87.191 54.166 88 57.318 88 60.975 88 71.568 80.847 78 68.096 78 55.593 78 49 71.884 49 60.282v-2.774h14.679z"/><path fill-rule="nonzero" d="M27.917 54.896l-2.321-19.584L24.5 24.368c-.322 3.456-.774 7.104-1.225 11.008l-2.579 19.52h7.221 0zM14.378 14h20.372L47 78H30.818l-1.483-11.52H18.827L17.344 78H2l12.378-64z"/></g></svg>