<svg xmlns="http://www.w3.org/2000/svg" viewBox="0 0 90 90" fill-rule="evenodd"><path fill="#1a1819" d="M0 0h90v90H0z"/><g fill="#fff"><path opacity="0" d="M0 0h90v90H0z"/><path d="M34.387 28.019a7 7 0 0 1 .734-5.145c7.255-12.61 11.944-18.747 14.066-18.411 2.116.335 4.814 7.599 8.095 21.792a7 7 0 0 1-.936 5.368l-3.903 5.898a256.72 256.72 0 0 1 6.109-3.878 7 7 0 0 1 5.12-.892c14.235 3.003 21.52 5.566 21.856 7.689.335 2.116-5.739 6.927-18.223 14.433a7 7 0 0 1-5.394.769l-6.815-1.889a256.72 256.72 0 0 1 5.576 4.612 7 7 0 0 1 2.43 4.594c1.542 14.466 1.356 22.187-.558 23.163-1.909.972-8.361-3.318-19.358-12.871a7 7 0 0 1-2.398-4.893l-.309-7.065a256.72 256.72 0 0 1-2.663 6.728 7 7 0 0 1-3.618 3.731c-13.282 5.937-20.682 8.146-22.201 6.627s.572-8.977 6.26-22.388a7 7 0 0 1 3.912-3.793l6.624-2.477-7.222-.454a7 7 0 0 1-4.667-2.288C7.153 36.18 2.766 29.824 3.741 27.91c.972-1.909 8.715-2.23 23.227-.965a7 7 0 0 1 4.816 2.549l4.403 5.534a256.72 256.72 0 0 1-1.8-7.008zM42.93 43.97c1.636.259 2.889-2.262 3.408-5.535s.106-6.058-1.531-6.317-2.889 2.262-3.408 5.535-.106 6.058 1.531 6.317zm3.325 3.325c.259 1.636 3.044 2.049 6.317 1.531s5.794-1.771 5.535-3.408-3.044-2.049-6.317-1.531-5.794 1.771-5.535 3.408zm-2.135 4.19c-1.476.752-1.008 3.528.496 6.481s3.475 4.963 4.951 4.211 1.008-3.528-.496-6.481-3.475-4.963-4.951-4.211zm-4.644-.736c-1.172-1.172-3.667.132-6.01 2.475s-3.646 4.839-2.475 6.01 3.667-.132 6.01-2.475 3.646-4.839 2.475-6.01zm-.736-4.644c.752-1.476-1.259-3.447-4.211-4.951s-5.729-1.973-6.481-.496 1.259 3.447 4.211 4.951 5.729 1.973 6.481.496z"/></g></svg>