<svg viewBox="0 0 90 90" xmlns="http://www.w3.org/2000/svg"><defs><linearGradient x1="-60.22%" y1="-60.22%" x2="149.491%" y2="149.491%" id="a"><stop stop-color="#3AE7E1" offset="0%"/><stop stop-color="#1993D2" offset="94.81%"/></linearGradient><linearGradient x1="11.544%" y1="39.713%" x2="170.817%" y2="108.261%" id="b"><stop stop-color="#3AE7E1" offset="0%"/><stop stop-color="#1993D2" offset="94.81%"/></linearGradient><linearGradient x1="-5.119%" y1="-5.101%" x2="99.736%" y2="99.754%" id="c"><stop stop-color="#3AE7E1" offset="0%"/><stop stop-color="#1993D2" offset="94.81%"/></linearGradient></defs><g fill="none"><path fill="#19216C" d="M0 0h90v90H0z"/><path d="M60.5 48.75c0 2.777-1.512 5.191-3.75 6.492V60A3.746 3.746 0 0 1 53 63.75c2.637 0 5.098-.68 7.254-1.875A7.63 7.63 0 0 0 60.5 60V48.75Z" fill="#2D7AAE"/><path d="M18.75 0h-15A3.746 3.746 0 0 0 0 3.75v15a3.746 3.746 0 0 0 3.75 3.75h15a3.746 3.746 0 0 0 3.75-3.75v-15A3.746 3.746 0 0 0 18.75 0ZM15 15H7.5V7.5H15V15Z" fill="url(#a)" transform="translate(34.25 41.25)"/><path d="M8.52 11.25C9.82 9.012 12.234 7.5 15 7.5a7.481 7.481 0 0 1 6.48 3.75h1.02c2.508 0 5.004.516 7.313 1.5C28.723 5.543 22.5 0 15 0 7.5 0 1.277 5.543.187 12.75a18.682 18.682 0 0 1 7.313-1.5h1.02Z" fill="url(#b)" transform="translate(30.5 15)"/><path d="M30.5 32.027A14.932 14.932 0 0 1 38 30c0-1.371.375-2.648 1.02-3.75H38c-2.508 0-5.004.516-7.313 1.5A14.334 14.334 0 0 0 30.5 30v2.027Zm21.48-5.777A7.395 7.395 0 0 1 53 30c2.73 0 5.297.75 7.5 2.027V30c0-.762-.07-1.512-.188-2.25A18.682 18.682 0 0 0 53 26.25h-1.02Z" fill="#2D7AAE"/><path d="M37.5 45a7.63 7.63 0 0 1-.246 1.875C41.87 44.32 45 39.398 45 33.75V30c0-5.555-3.023-10.383-7.5-12.973A14.932 14.932 0 0 0 30 15H15c-2.73 0-5.297.75-7.5 2.027C3.023 19.617 0 24.445 0 30v15c0 8.285 6.715 15 15 15h15c0-4.137-3.363-7.5-7.5-7.5H15A7.507 7.507 0 0 1 7.5 45V30c0-4.137 3.363-7.5 7.5-7.5h15c4.137 0 7.5 3.363 7.5 7.5v15Z" fill="url(#c)" transform="translate(23 15)"/></g></svg>