<svg viewBox="0 0 90 90" xmlns="http://www.w3.org/2000/svg"><defs><radialGradient cx="80.672%" cy="0%" fx="80.672%" fy="0%" r="158.15%" gradientTransform="scale(-.55556 -1) rotate(-39.221 -.323 3.17)" id="a"><stop stop-color="#9D70FF" offset="0%"/><stop stop-color="#7D1EF5" offset="100%"/></radialGradient></defs><path d="M46.453.261a4.68 4.68 0 0 1 3.087 3.89l4.173 36.474H63.84c6.013 0 10.133-2.093 12.764-4.888 2.69-2.857 4.1-6.745 4.1-10.737s-1.41-7.88-4.1-10.737c-2.631-2.795-6.751-4.888-12.764-4.888h-6.506L56.095 0h7.746c8.329 0 14.964 2.985 19.504 7.808C87.825 12.568 90 18.836 90 25s-2.174 12.433-6.655 17.192C78.805 47.015 72.17 50 63.84 50H49.571c-2.36 0-4.346-1.785-4.617-4.15L41.41 14.86 15.867 40.625H37.15L38.39 50H4.646a4.647 4.647 0 0 1-4.293-2.894 4.717 4.717 0 0 1 1.007-5.108L41.638 1.373A4.619 4.619 0 0 1 46.453.261Z" transform="translate(0 20)" fill="url(#a)" fill-rule="evenodd"/></svg>