<svg width="90" height="90" viewBox="0 0 90 90" xmlns="http://www.w3.org/2000/svg"><g fill="none" fill-rule="evenodd"><rect fill="#FFF" opacity="0" width="90" height="90"/><g fill-rule="nonzero"><path d="M42.948,0.143999403 C44.244,0.0359998507 45.504,0 46.8,0 C70.236,0.863996416 89.064,19.6559185 90,43.0918212 L90,78.4796744 C89.964,84.8876479 84.744,90.0356265 78.372,89.9998143 C72.54,89.0996304 68.076,84.3476501 67.536,78.4796744 L67.536,43.0918212 C66.564,30.7438725 55.764,21.4919108 43.416,22.4639068 C43.272,22.4639068 43.128,22.4999067 42.984,22.4999067" fill="#FBBC04"/><path d="M90,78.7316734 C90,84.9236477 84.96,89.9636268 78.768,89.9636268 C72.576,89.9636268 67.536,84.9236477 67.536,78.7316734 C67.536,72.5396991 72.576,67.49972 78.768,67.49972 C84.96,67.49972 90,72.5396991 90,78.7316734 Z" fill="#4285F4"/><path d="M43.596,89.6036283 C49.968,89.675628 55.188,84.5996491 55.26,78.2276755 C55.26,78.1916756 55.26,78.1916756 55.26,78.1556758 C55.08,71.9637015 49.896,67.0677218 43.704,67.247721 C43.632,67.247721 43.524,67.247721 43.452,67.247721 C31.176,66.3117249 21.924,55.6557691 22.788,43.3438202 L22.788,43.1638209 C23.688,32.0758669 32.508,23.3279032 43.596,22.4999067 C49.788,22.7519056 55.008,17.9279256 55.26,11.7359513 C55.26,11.6639516 55.26,11.6279518 55.26,11.5559521 C55.188,5.1839785 49.968,0.0359998507 43.596,0.107253412 C43.596,0.107253412 43.596,0.107253412 43.596,0.107253412 L42.804,0.107253412 C18.936,1.22399492 0.144,20.8079137 0,44.7118145 L0,44.8918138 C0,72.9356974 24.588,89.6396282 42.912,89.6396282 L43.596,89.6396282 L43.596,89.6036283 Z" fill="#EA4335"/></g></g></svg>