<svg width="90" height="90" viewBox="0 0 90 90" xmlns="http://www.w3.org/2000/svg"><g fill="none" fill-rule="evenodd"><rect fill="#FFF" opacity="0" width="90" height="90"/><g transform="translate(0 5)"><path d="M56.8835756,21.9410705 C60.9549186,14.9442133 58.5375356,6.00209532 51.4850142,1.96076875 C44.429538,-2.07480993 35.4107192,0.317488772 31.3393761,7.31434598 C31.1599391,7.62782258 30.9911514,7.94741792 30.8333206,8.27245212 L17.0694235,31.9137923 C16.7649038,32.38376 16.4830984,32.8681901 16.2250538,33.365414 L1.93195598,58.1303132 L27.4732623,72.5043775 L41.6940313,47.948504 C42.0039064,47.4818738 42.2858965,46.9971346 42.5383395,46.4968823 L56.3022366,22.8526373 C56.5018641,22.5565279 56.7014301,22.2546089 56.8835756,21.9410705" fill="#FBBC04"/><path d="M27.5918816,72.428975 C23.5436838,79.5390596 14.412032,82.1549082 7.39995309,78.0526415 C0.384981062,73.9473464 -2.1046692,65.0458964 1.94642175,57.9387166 C5.99751269,50.8315369 15.0481562,48.204069 22.0631283,52.3063974 C29.0781003,56.4116307 31.6400178,65.3217335 27.59182,72.4260702" fill="#34A853"/><path d="M82.7082878,26.6211551 C75.7364668,22.586998 66.8281418,24.9759592 62.7881926,31.9631748 L48.2059026,57.2622574 C44.1882983,64.2351959 46.5612991,73.157907 53.5061584,77.1917552 C53.5187159,77.1990482 53.5312118,77.2062794 53.5437693,77.2135106 C60.5169446,81.2491511 69.4277319,78.858583 73.4667577,71.8685862 L88.046093,46.5724084 C92.0630817,39.5973067 89.6878649,30.6732358 82.7408511,26.6400058 C82.7300172,26.6337016 82.7191217,26.6273975 82.7082878,26.6211551" fill="#4285F4"/></g></g></svg>