<svg viewBox="0 0 90 90" xmlns="http://www.w3.org/2000/svg"><g fill="none"><path fill="#065FAA" d="M0 0h90v90H0z"/><path d="M33.332 55.713H27.37c.02-.081.02-.143.04-.225 1.358-6.937 3.537-15.144 6.066-22.082a.29.29 0 0 0 .041-.122H48.67c-.02.081-.041.143-.062.225-.35 1.31-.72 2.68-1.09 4.093-.02.04-.02.102-.04.143H38.02c-.453 1.514-.905 3.05-1.337 4.605h8.8l-.062.245-1.171 4.36c-.021.04-.021.102-.042.143H35.43c-.76 2.926-1.46 5.812-2.035 8.493-.041.04-.062.082-.062.122m-6.991 0h-6.025c0-.06-.02-.122-.02-.163a84.965 84.965 0 0 1-.514-4.155c-2.2-.02-4.4-.02-6.58-.04a830.37 830.37 0 0 1-2.22 4.256c-.02.041-.041.062-.041.102H5c.062-.102.123-.184.164-.286 4.215-7.204 8.04-14.858 13.262-22.041.02-.02.041-.061.062-.082H24.8v.164c-.206 6.978.308 15.083 1.5 22.061 0 .062.021.123.042.184m-10.795-8.881c1.296 0 2.612 0 3.927.02-.123-2.21-.185-4.4-.185-6.59-1.315 2.19-2.55 4.4-3.742 6.57m46.981 8.881h-6.045v-.163c.041-1.33.062-2.702.041-4.114-2.262 0-4.523 0-6.805.02a220.533 220.533 0 0 1-2.591 4.176c-.02.02-.041.061-.062.081h-5.983a1.78 1.78 0 0 0 .165-.266 854.506 854.506 0 0 0 13.384-22.082.155.155 0 0 0 .042-.081h6.312c0 .061.02.102.02.163 1.131 6.958 1.666 15.124 1.522 22.062v.204m-10.075-8.84h4.092c-.062-2.21-.144-4.441-.288-6.652a451.057 451.057 0 0 1-3.804 6.651M85 34.532a217.626 217.626 0 0 0-1.234 4.953h-.452a7.823 7.823 0 0 0-2.488-1.7c-2.302-1.022-4.461-1.043-6.024-.265-1.172.573-2.097 1.883-1.254 3.05.72 1.002 5.078 1.35 7.155 2.742 2.2 1.494 1.933 3.786 1.562 5.382-.657 2.17-1.994 3.95-4.132 5.28-2.138 1.392-4.77 2.026-7.71 2.026-3.824 0-6.415-1.167-7.34-1.617a97.112 97.112 0 0 0 1.747-5.218h.494c.822.941 1.768 1.719 2.92 2.148 1.953.758 6.949 1.638 8.141-1.637.37-1.023-.308-1.76-1.377-2.128-2.282-.778-6.312-1.085-7.402-3.766-.432-1.084-.493-2.312-.185-3.93.493-2.087 1.563-3.601 3.66-4.931 4.4-2.783 9.499-1.801 10.732-1.535 1.213.286 2.344.675 3.187 1.146" fill="#FFF"/></g></svg>