<svg viewBox="0 0 90 90" xmlns="http://www.w3.org/2000/svg"><g fill="none"><path d="M84.5 39.387a39.299 39.299 0 0 1-8.572 24.488A39.535 39.535 0 0 1 53.935 77.74L45 90l-8.935-12.26a39.534 39.534 0 0 1-21.993-13.865 39.298 39.298 0 0 1-8.429-27.86 39.316 39.316 0 0 1 12.642-25.646A39.575 39.575 0 0 1 45 0c9.894 0 19.428 3.7 26.715 10.37A39.317 39.317 0 0 1 84.5 39.386Z" fill="#FFA300"/><path d="m61.79 26.466-14.91 8.583a3.772 3.772 0 0 1-3.761 0L28.21 26.466a.939.939 0 0 1-.343-1.28.93.93 0 0 1 .343-.342l14.909-8.58a3.772 3.772 0 0 1 3.762 0l14.908 8.58a.936.936 0 0 1 0 1.622ZM42.179 43.17v16.394a.935.935 0 0 1-.47.813.942.942 0 0 1-.941 0l-14.578-8.39a3.756 3.756 0 0 1-1.88-3.237V32.344a.935.935 0 0 1 .47-.813.943.943 0 0 1 .94 0l14.578 8.39a3.753 3.753 0 0 1 1.88 3.249ZM65.69 32.344V48.75a3.741 3.741 0 0 1-1.88 3.248L49.232 60.39a.942.942 0 0 1-1.41-.813V43.17a3.741 3.741 0 0 1 1.88-3.249l14.578-8.39a.946.946 0 0 1 1.285.344.935.935 0 0 1 .125.469Z" fill="#FFF"/></g></svg>