<svg xmlns="http://www.w3.org/2000/svg" viewBox="0 0 90 90"><path d="M70.659 79.18a4.465 4.465 0 0 0 3.397-1.101C83.212 70.02 89 58.188 89 45.032c0-7.554-1.888-14.636-5.223-20.836a1.579 1.579 0 0 1-.158-.315c-.249-.44-.502-.881-.755-1.322-.124-.188-.22-.377-.344-.566C74.778 9.403 60.873 1 45.016 1A43.816 43.816 0 0 0 27.27 4.745c19.035 2.298 35.962 15.926 35.962 15.926l8.118-6.61-2.833 35.282L42.31 38.957l9.187-7.931C40.485 16.485 29.694 11.072 20.475 9.938c-1.196-.157-2.422.22-3.366 1.008C7.293 19.003 1 31.278 1 44.968c0 6.61 1.447 12.842 4.059 18.475 1.479 3.085 3.272 6.043 5.38 8.75C18.493 82.422 30.984 89 44.984 89a43.826 43.826 0 0 0 19.255-4.438c-20.073-1.951-38.1-16.586-38.1-16.586l-8.432 6.767 2.988-36.29 26.963 10.701-9.47 8.152c11.578 15.36 22.874 20.836 32.47 21.874Z" fill="#00E356"/></svg>