<svg viewBox="0 0 90 90" xmlns="http://www.w3.org/2000/svg"><g fill="none"><path fill="#005CEF" d="M0 0h90v90H0z"/><path d="M18.826 57.92a27.736 27.736 0 0 0 2.002 3.09c4.518 6.051 11.698 10.64 20.237 12.67l.716.164c.404.092.79.165 1.194.238 2.59.494 5.289.75 8.062.75 1.8 0 3.58-.11 5.307-.33 4.058-.493 7.896-1.554 11.367-3.071.11-.037.239-.091.35-.128a11.789 11.789 0 0 1-6.85 5.247c-5.18 1.481-10.909 2.34-17.006 2.45-4.058-.073-7.162-.256-10.798-.932-.238-.055-.477-.092-.734-.147a57.316 57.316 0 0 1-4.812-1.188l-.035-.012-.169-.05-.216-.06a13.73 13.73 0 0 1-3.234-1.432A13.061 13.061 0 0 1 18 64.063v-1.152c0-1.755.294-3.437.826-4.99ZM48.356 13c9.071 0 17.519 1.993 24.644 5.448-10.688 3.127-18.492 12.963-18.492 24.627 0 8.61 4.26 16.216 10.78 20.878a35.15 35.15 0 0 1-11.148 1.792c-19.539 0-35.369-15.778-35.405-35.23 0-3.547.532-6.984 1.524-10.22C28.045 15.725 37.778 13 48.356 13Z" fill="#FFF"/></g></svg>