<svg xmlns="http://www.w3.org/2000/svg" viewBox="0 0 90 90"><path d="M0 0h90v90H0z"/><path d="M23.725 63.827C26.772 70.791 31.827 75 38.008 75c5.823 0 9.767-4.85 9.767-9.463 0-5.249-3.668-8.679-7.989-8.679-4.622 0-5.6 3.804-5.6 4.767 0 2.197 1.68 4.244 3.822 4.244 3.375 0 3.63-2.938 3.63-2.938s1.04.704 1.04 2.599c0 1.801-1.414 4.095-4.668 4.095-2.597 0-6.428-1.49-9.066-7.587-3.108-7.13-3.322-9.25-3.322-9.25h40.9l2.331-5.682H17.406c0 .006 2.716 8.552 6.319 16.721Zm6.864-25.378s3.185-4.685 9.977-11.692c1.699-1.743 6.17-6.153 10.715-6.153 2.989 0 5.305 2.039 5.305 4.812 0 2.754-2.135 3.546-2.135 3.546.217-1.175-.46-4.383-3.285-4.383-2.915 0-4.153 2.443-4.153 4.082 0 3.374 2.787 5.796 6.043 5.796 6.255 0 9.166-4.863 9.166-9.58 0-4.758-4.182-9.877-10.94-9.877-6.206 0-11.961 4.807-15.236 8.311-11.628 12.42-17.764 20.8-17.764 20.8h51.8l2.324-5.668H30.584l.005.006Z" fill="#FFF"/></svg>