<svg viewBox="0 0 90 90" xmlns="http://www.w3.org/2000/svg"><g fill="none"><path fill="#FFF" d="M0 0h90v90H0z"/><path d="M29.56 60.575 44.14 29.55l8.02 17.042-22.6 13.984v-.001ZM75 72.249 64.74 50.448l9.996-6.186-5.125-8.471-9.113 5.64-9.986-21.224c-.61-1.3-1.544-2.379-2.696-3.12a6.781 6.781 0 0 0-3.855-1.085 6.818 6.818 0 0 0-3.804 1.288c-1.075.77-1.932 1.848-2.485 3.119L17.66 62.99l-.047.115c-1.332 3.234-.45 6.897 2.192 9.119 2.594 2.18 6.17 2.366 8.957.487l27.64-17.102 7.83 16.641H75v-.001Z" fill="#050505"/></g></svg>