<svg viewBox="0 0 90 90" xmlns="http://www.w3.org/2000/svg"><g fill="none"><path fill="#26C" d="M0 0h90v90H0z"/><path d="M44.427 27.555c4.04-1.29 8.86-.32 11.823 2.783 1.399 1.371 2.414 3.176 2.704 5.114.135.794-.01 1.588-.228 2.35.58-.154 1.16-.391 1.772-.402 1.171-.061 2.342.402 3.212 1.176 1.109.855 1.69 2.381 1.285 3.732-.145.608-.487 1.144-.767 1.7 2.974.094 6.031 1 8.238 3.063.912.98 1.751 2.072 2.166 3.36.373 1.238.425 2.547.321 3.826-.28 1.897-.922 3.825-2.238 5.268-.819.876-1.865 1.577-3.026 1.897-1.15.299-2.342.412-3.533.392-3.513.103-7.036-1.227-9.627-3.578a6.539 6.539 0 0 1-1.865 2.258c-1.533 1.175-3.15 1.31-3.979 1.371-.746.052-3.274.227-5.212-1.464a6.038 6.038 0 0 1-.974-1.103c-.259.536-.435 1.124-.808 1.598a5.26 5.26 0 0 1-3.233 1.959c-1.658.289-3.44.186-4.922-.67-.912-.546-1.7-1.31-2.218-2.237-1.005-1.547-1.378-3.454-1.191-5.269.207-2.206 1.088-4.391 2.663-5.99 1.326-1.422 3.16-2.288 5.036-2.752 3.399-.794 6.973-.3 10.227.835-.186-.32-.477-.567-.756-.794-1.524-1.268-3.41-2.02-5.347-2.423-1.886-.35-3.834-.453-5.71-.01-1.99.464-3.927 1.31-5.481 2.65-1.751 1.402-3.036 3.412-3.471 5.618-.28 1.33-.456 2.691-.425 4.052.103 1.495.197 3 .6 4.444-1.636.577-3.398.742-5.128.66-1.244 0-2.456-.351-3.617-.794-1.969-.805-3.492-2.434-4.466-4.279-1.42-2.588-1.751-5.887-.373-8.557.891-1.99 2.622-3.557 4.642-4.361 1.534-.619 3.285-.577 4.85-.041-.373-1.794-.01-3.774 1.108-5.248a6.697 6.697 0 0 1 3.099-2.423c1.44-.608 3.108-.453 4.549.103.549.196 1.015.567 1.554.774.922-2.031 2.145-3.97 3.782-5.506a11.802 11.802 0 0 1 4.964-3.082" fill="#FFF"/></g></svg>