<svg xmlns="http://www.w3.org/2000/svg" viewBox="0 0 90 90"><defs><linearGradient id="a" x1="0%" x2="100%" y1="0%" y2="100%"><stop offset="0%" stop-color="#FF4244"/><stop offset="100%" stop-color="#FF8E3C"/></linearGradient></defs><path fill="url(#a)" fill-rule="nonzero" d="M86.6 23.6c3.2 3 4.3 7.8 2.7 12l-5.9 15.9c-1.5 4.2-5 7.4-9.4 8.3-4.4.8-9-.8-11.8-4.3L26.9 13.3a.8.8 0 0 0-1.3.3l-11.4 31c-.3.6.3 1.2 1 1l14-5.8a6.2 6.2 0 0 1 8.3 3.9c1 3.2-.7 6.6-3.8 7.9L15.3 59A11.1 11.1 0 0 1 5 58C.7 55.4-1.1 50 .7 45.2L14.2 8.3A12.7 12.7 0 0 1 36 4.6l20.3 24.2 18.6-7.6c4-1.7 8.6-.8 11.8 2.4ZM76 35.8c.2-.7-.4-1.3-1-1l-10.3 4.1 6.2 7.4a.8.8 0 0 0 1.3-.2l3.8-10.3Z" transform="translate(0 15)"/></svg>