<svg viewBox="0 0 90 90" xmlns="http://www.w3.org/2000/svg"><g fill="none"><path fill="#FFF" d="M0 0h90v90H0z"/><g fill="#000"><path d="M12.014 31.374c.054.36.11.79.3 2.328.137 1.191.479 3.893.52 4.156.027.152.191 1.482.37 2.951l.314 2.674 1.928 1.011c1.052.568 2.72 1.441 3.691 1.954a299.25 299.25 0 0 1 3.282 1.732c.834.43 2.365 1.247 3.418 1.8 1.053.555 2.598 1.372 3.418 1.802.834.443 2.243 1.191 3.145 1.662.903.471 2.256 1.192 3.008 1.594.752.401 2.297 1.205 3.419 1.8 1.134.596 2.502 1.317 3.049 1.622.615.332.984.457.998.346.068-1.094 0-6.65-.096-6.733-.068-.07-.738-.388-1.49-.707a96.919 96.919 0 0 1-1.914-.831c-.301-.139-5.032-2.19-10.529-4.572-5.483-2.383-10.022-4.364-10.09-4.42-.124-.124-.178-.401-.288-1.538-.054-.498-.123-1.122-.15-1.385-.041-.263-.096-.734-.137-1.04-.082-.678-.15-1.288-.273-2.285-.137-1.316-.342-2.826-.383-2.854-.041-.042-5.346-1.441-5.47-1.441-.054 0-.068.166-.04.374Zm65.097-.18c-.3.097-1.49.416-2.625.707l-2.092.526-.027.43c0 .235-.028.484-.041.568-.014.069-.069.637-.123 1.246-.069.61-.137 1.261-.15 1.455-.028.194-.083.776-.138 1.316-.054.527-.109 1.123-.136 1.317-.11.79-.26 2.438-.233 2.576.041.18 1.49-.47-16.448 7.357-3.227 1.413-6.29 2.757-6.796 2.993l-.93.415V59l1.682-.887c.916-.498 2.256-1.205 2.967-1.58 4.471-2.382 5.51-2.936 6.495-3.463a50.36 50.36 0 0 1 1.299-.692c.11-.056 1.217-.638 2.46-1.289a925.694 925.694 0 0 1 4.171-2.217c1.053-.554 2.475-1.302 3.145-1.662.684-.36 2.092-1.109 3.145-1.663 3.158-1.662 3.897-2.092 3.897-2.258 0-.139.342-3.173.615-5.362.027-.263.096-.859.137-1.316.095-1.025.15-1.496.41-3.7.11-.955.205-1.786.205-1.828 0-.125-.273-.083-.889.111Z"/><path d="M21.599 33.66c.027.097.082.734.136 1.427.205 3.214.342 4.558.451 4.655.055.042.725.305 1.49.596 2.517.928 3.474 1.275 7.63 2.854 2.256.845 4.745 1.787 5.538 2.078.793.291 2.94 1.095 4.786 1.787 1.832.693 3.418 1.261 3.527 1.261.11 0 1.49-.499 3.077-1.094 1.6-.61 5.086-1.912 7.752-2.924 2.667-.997 4.977-1.87 5.128-1.94.15-.069 1.723-.664 3.514-1.33 1.777-.664 3.295-1.232 3.363-1.288.069-.041.178-.706.22-1.468.095-1.372.15-2.231.286-3.921.041-.471.055-.86.028-.86-.014 0-1.272.32-2.762.707-1.504.388-2.83.735-2.94.749-.11.027-.205.055-.205.069 0 .014-.096.041-.205.07-.11.013-1.532.387-3.145.803-1.614.43-4.417 1.15-6.221 1.62-1.805.472-3.87 1.012-4.58 1.206-.712.194-1.396.374-1.505.388-.11.028-.574.152-1.025.277-.739.208-.89.208-1.573.014-.82-.222-2.215-.596-10.391-2.716-2.967-.775-6.946-1.8-8.833-2.3-1.887-.484-3.473-.886-3.514-.886-.055 0-.069.083-.027.166Z"/></g></g></svg>