<svg viewBox="0 0 90 90" xmlns="http://www.w3.org/2000/svg"><g fill="#009BDE"><path d="M49.238 88.01c-18.33-5.649-31.704-22.756-31.704-42.983 0-20.496 13.64-37.765 32.29-43.198C51.742 1.291 51.209 0 48.918 0 24.14 0 4 20.173 4 45.027 4 69.88 24.088 90 48.918 90c2.291 0 2.398-1.345.32-1.99Z"/><path d="M26.06 55.517c-.107-1.183-.214-2.42-.214-3.658 0-19.743 15.825-35.72 35.38-35.72 18.49 0 24.031 8.338 24.724 7.8.746-.592-6.714-17.107-28.4-17.107-19.555 0-35.38 15.977-35.38 35.72 0 4.573.852 8.93 2.397 12.911.64 1.722 1.652 1.722 1.492.054Z"/><path d="M40.872 29.803c9.165-4.035 20.727-4.143 32.077-.162 7.62 2.69 12.042 6.51 12.415 6.348.586-.269-4.423-8.338-13.534-11.781-11.03-4.196-22.859-1.99-31.49 4.842-.96.753-.587 1.237.532.753Z"/></g></svg>