<svg viewBox="0 0 90 90" xmlns="http://www.w3.org/2000/svg"><g fill="none"><path d="M79.58 43.105c-4.716 0-9.587.602-15.298 2.573-2.77.954-5.744 2.237-8.993 3.93-.354.185-.7.36-1.057.553-10.498 6.325-10.498 6.325-20.833-.022-.72-.456-1.43-.874-2.13-1.275l-1.762 4.425c.883.638 14.252 11.188 14.252 11.188s5.362-4.505 5.68-4.753c2.44-1.9 4.78-3.625 7.083-5.173 6.687-4.887 14.793-9.346 23.99-9.346 6.407 0 7.94.811 7.94.811L90 44.196c-4.276-.937-6.527-1.091-10.42-1.091M0 44.197l1.576 1.302c1.184-.214 3.745-.61 7.396-.61 3.365 0 8.086.97 11.928 2.85l1.391-2.732c-3.283-1.476-9.945-1.902-11.87-1.902-2.83 0-6.145.151-10.421 1.092" fill="#1CB1D1"/><path d="m30.06 51.932 1.208-3.067L43.744 17.15l11.543 32.46c3.25-1.693 6.223-2.976 8.994-3.933L50.31 7H38.943l1.637 3.914-23.862 58.822c-3.891 10.515-4.442 11.227-12.346 11.347V84h28.093v-2.917h-1.944c-6.69 0-9.854-1.209-9.854-4.472 0-1.693 9.392-24.679 9.392-24.679m44.487 22.155-7.53-20.8c-2.55 1.152-5.195 2.653-8.085 4.59l-.57.386 5.117 14.373c.49 1.21 1.338 2.403 1.338 4.338 0 3.384-2.552 4.112-9.486 4.112h-3.16V84h33.444v-2.914c-6.082 0-8.637-.594-11.068-6.999" fill="#00254A"/></g></svg>