<svg viewBox="0 0 90 90" xmlns="http://www.w3.org/2000/svg"><g fill="none"><path fill="#003DFF" d="M0 0h90v90H0z"/><path d="M45 20.003c-13.663 0-24.8 11.008-24.997 24.615-.2 13.82 11.018 25.27 24.848 25.35a24.85 24.85 0 0 0 12.038-3.003.585.585 0 0 0 .108-.952l-2.339-2.072a1.65 1.65 0 0 0-1.737-.292 20.214 20.214 0 0 1-8.176 1.603c-11.175-.137-20.203-9.429-20.025-20.596.176-11.025 9.205-19.941 20.28-19.941h20.282V60.74L53.774 50.523a.85.85 0 0 0-1.243.131 9.425 9.425 0 0 1-8.198 3.733c-4.636-.32-8.392-4.049-8.74-8.68-.415-5.524 3.965-10.15 9.407-10.15 4.921 0 8.974 3.785 9.397 8.594.038.428.231.828.553 1.113l2.997 2.655c.34.3.88.117.963-.33.216-1.154.292-2.358.207-3.592-.483-7.035-6.184-12.693-13.226-13.126-8.073-.498-14.823 5.814-15.037 13.725-.209 7.71 6.112 14.356 13.828 14.526a14.08 14.08 0 0 0 8.62-2.695l15.036 13.32c.645.57 1.662.114 1.662-.748V20.95a.949.949 0 0 0-.949-.949h-24.05l-.002.003Z" fill="#FFF"/></g></svg>