<svg viewBox="0 0 90 90" xmlns="http://www.w3.org/2000/svg"><path d="M90 32.013C89.97 23.718 83.269 17 74.998 17H51.434l2.174 8.608 20.223 4.415a4.297 4.297 0 0 1 3.31 4.01c.01.05.01 21.833 0 21.883a4.297 4.297 0 0 1-3.31 4.01l-20.223 4.416-2.174 8.618h23.564c8.26 0 14.972-6.719 15.002-15.013V32.013ZM16.179 59.947a4.297 4.297 0 0 1-3.31-4.01c-.01-.061-.01-21.833 0-21.883a4.298 4.298 0 0 1 3.31-4.011l20.223-4.415 2.174-8.608H15.002C6.742 17.02.03 23.728 0 32.033v25.954C.03 66.282 6.741 73 15.002 73h23.564l-2.174-8.618-20.213-4.435Zm20.213-16.043h17.206v2.152H36.392v-2.152Z" fill="#FF5E00"/></svg>