<svg viewBox="0 0 90 90" xmlns="http://www.w3.org/2000/svg"><g fill="none"><path fill="#FFF" d="M0 0h90v90H0z"/><path d="M45.529 19.018c.632-.072 1.29.07 1.819.432.796.516 1.36 1.304 1.836 2.11 2.16 3.634 4.335 7.26 6.495 10.894 2.875 4.86 5.752 9.719 8.62 14.584a3103.63 3103.63 0 0 0 5.971 10.085c1.316 2.242 2.673 4.462 3.93 6.738.543.953.84 2.053.796 3.153-.032.85-.186 1.724-.63 2.46-.625 1.04-1.672 1.774-2.806 2.156-.606.219-1.24.367-1.886.368-7.044-.002-14.087.002-21.13.002-.606-.016-1.222-.085-1.79-.306-.416-.177-.825-.396-1.15-.716-.556-.551-.915-1.333-.82-2.128a5.05 5.05 0 0 1 .414-1.61c.22-.522.532-.998.802-1.494a142.766 142.766 0 0 1 3.695-6.23c.41-.644.768-1.34 1.337-1.863.604-.555 1.363-.99 2.194-1.047.668-.027 1.324.204 1.881.564.628.37 1.123.985 1.288 1.702.24.909-.018 1.863-.401 2.693-.431.943-1.045 1.799-1.374 2.787-.06.225-.142.509.025.707.17.16.406.223.627.279.638.142 1.297.105 1.947.11h7.186c.475-.008.95.016 1.424-.012.342-.04.715-.096.981-.335.176-.156.198-.42.131-.633-.145-.474-.397-.905-.645-1.33-6.387-10.944-12.738-21.91-19.192-32.814-.211-.35-.392-.731-.694-1.014-.149-.144-.37-.226-.573-.166-.173.062-.29.215-.405.35-.285.364-.54.752-.773 1.15-1.112 1.813-2.176 3.655-3.265 5.482C35.118 46.724 28.84 57.321 22.566 67.92c-.39.719-.804 1.424-1.255 2.106-.397.585-.878 1.134-1.498 1.486-.73.424-1.634.593-2.453.35-.598-.186-1.176-.487-1.604-.953-.541-.539-.782-1.326-.754-2.08.028-.794.292-1.567.691-2.248a3790.97 3790.97 0 0 1 11.494-19.446c1.98-3.354 3.951-6.713 5.943-10.06 2.014-3.392 4.033-6.78 6.038-10.177a221.853 221.853 0 0 1 3.422-5.701 5.283 5.283 0 0 1 1.392-1.54c.462-.317.98-.588 1.547-.639Z" fill="#70C6BE"/><path d="M45.208 44.12a3.765 3.765 0 0 1 2.741.63 3.043 3.043 0 0 1 1.132 1.904 3.39 3.39 0 0 1-.183 1.7c-.16.467-.391.905-.648 1.326L37.27 68.2c-.468.772-.895 1.573-1.435 2.3-.392.486-.882.9-1.448 1.169-1.196.64-2.757.25-3.667-.712a2.711 2.711 0 0 1-.766-1.754 3.731 3.731 0 0 1 .4-1.96c.268-.585.585-1.145.916-1.696 1.608-2.716 3.203-5.44 4.806-8.158 2.196-3.737 4.427-7.453 6.636-11.182.235-.424.528-.815.857-1.17.443-.452 1.006-.817 1.64-.916Z" fill="#1BA0D8"/></g></svg>