<svg viewBox="0 0 90 90" xmlns="http://www.w3.org/2000/svg"><g fill="none"><path fill="#28899C" d="M47.923 79.383h-13.78L21.871 38.606h13.645l12.407 40.777"/><path d="M47.806 79.383H34.072l.037-.114.034.114h13.663m.061-.186-6.644-21.833L54.408 16.77h13.713L47.867 79.197" fill="#84BF41"/><path fill="#007A38" d="M47.806 79.383H34.143l-.034-.114 7.114-21.905 6.644 21.833-.061.186"/><path d="M88.505 44.999h-1.497c0 11.652-4.714 22.182-12.325 29.803-7.614 7.62-18.099 12.315-29.687 12.316-11.592-.001-22.073-4.696-29.685-12.316C7.704 67.182 2.991 56.651 2.991 45c0-11.65 4.713-22.18 12.32-29.801C22.923 7.578 33.404 2.882 44.996 2.88c11.588.001 22.072 4.697 29.687 12.317 7.61 7.621 12.325 18.151 12.325 29.8H90c.001-12.403-5.025-23.652-13.161-31.797C68.706 5.054 57.436 0 44.996 0c-12.442-.001-23.71 5.054-31.841 13.201C5.022 21.347 0 32.595 0 45c0 12.406 5.022 23.655 13.155 31.8C21.285 84.946 32.554 90 44.996 90c12.44.001 23.71-5.054 31.843-13.201C84.975 68.654 90 57.405 90 44.999h-1.495" fill="#84BF41"/></g></svg>