<svg xmlns="http://www.w3.org/2000/svg" viewBox="0 0 90 90"><path fill="#34BAFF" d="M0 0h90v90H0z"/><path d="M46.495 12.081c-5.65 0-8.806 3.79-12.278 12.995l-8.13 21.499c-3.759-2.645-6.835-5.928-9.017-9.47-3.794 4.152-5.048 5.57-8.752 9.607 3.06 4.34 7.568 8.62 13.178 12.005-3.507 9.268-6.34 16.766-6.34 16.766h14.483l3.96-11.567a47.051 47.051 0 0 0 24.59.09c2.18 6.594 3.798 11.477 3.798 11.477H77.29S61.687 31.935 59.275 25.36c-2.997-8.185-5.552-13.279-12.78-13.279Zm-.44 40.81c-2.903 0-5.695-.36-8.337-1.015 3.857-11.273 7.66-22.403 7.747-22.684.175-.575.329-.802.619-.802.303 0 .466.304.61.799.07.243 3.764 11.423 7.5 22.735a34.53 34.53 0 0 1-8.139.968Z" fill="#FFF"/></svg>