<svg viewBox="0 0 90 90" xmlns="http://www.w3.org/2000/svg"><g fill="#763A3D"><path d="M37.97 46.513c-.93 3.604-1.394 8.379-1.394 12.04 0 2.415-.049 9.443 2.99 9.516 2.264.057 4.952-3.058 6.883-7.874 1.45-3.628 1.857-6.98 1.857-11.274 0-2.97 0-3.921-1.23-6.215-.635-1.188-2.053-2.359-4.325-2.359-3.535-.008-3.674 2.026-4.782 6.166Z"/><path d="M34.1 5.54 6.022 85.323h50.642L84.742 5.54H34.1Zm20.715 15.496a28.69 28.69 0 0 0-5.05 3.945c-1.842 1.798-3.422 3.75-5.727 7.19-1.564 2.327-3.73 6.818-3.73 6.818 1.4-.684 2.117-.855 2.72-1.042.603-.187 1.8-.455 2.908-.553 1.93-.17 3.633-.333 5.767 2.156 2.134 2.489 3.201 5.995 3.201 10.518 0 4.8-1.262 9.322-3.796 13.56-3.005 5.027-6.834 7.54-11.477 7.54-3.323 0-5.97-1.496-7.95-4.49-1.98-2.993-2.965-7.174-2.965-12.527 0-7.744 2.256-15.13 6.76-22.166 5.597-8.761 14.598-15.155 26.548-15.887l-.294 2.107c-.008-.008-3.73.87-6.915 2.83Z"/><path d="M89.23 1.96 58.936 88.048H1.761L32.055 1.96H89.23M92 0H30.67L-1 90h61.33L92 0Z"/></g></svg>