<svg viewBox="0 0 90 90" xmlns="http://www.w3.org/2000/svg"><g fill="none"><path fill="#FFF" d="M0 0h90v90H0z"/><path d="M24.293 49.007H48.18c.296 0 .562.16.695.41l2.218 4.617a.894.894 0 0 1 0 .82l-1.937 4.735c-.133.25-.4.41-.695.41H33.148l-8.855-10.992Z" fill="#F16027"/><path d="m29.275 68.574 3.873-8.618-8.855-10.95-9.225 18.88a.76.76 0 0 0 .414 1.025.604.604 0 0 0 .281.059h12.832c.28 0 .532-.161.68-.396Z" fill="#2DABE2"/><path d="m44.767 34.774-6.505-13.836a.439.439 0 0 1 0-.557l-.931 2.052-13.009 26.559h14.029l6.416-14.218Z" fill="#FAA548"/><path d="M74.967 67.885 51.774 20.41a.786.786 0 0 0-.695-.41H38.928a.759.759 0 0 0-.695.41c0 .132-.133.41 0 .557l6.504 13.837 15.566 33.785c.133.264.4.425.695.41h13.245c.577-.015.857-.572.724-1.114Z" fill="#F16027"/><path d="M38.248 20.953a.439.439 0 0 1 0-.557l-.932 2.052 7.436 12.312-6.504-13.807Z" fill="#F7A349" opacity=".46"/><path fill="#535353" opacity=".39" d="m24.322 49.007-.842 1.773 9.8 9.176z"/></g></svg>