<svg viewBox="0 0 90 90" xmlns="http://www.w3.org/2000/svg"><defs><linearGradient x1="50%" y1="0%" x2="50%" y2="100%" id="a"><stop stop-opacity="0" offset="0%"/><stop stop-opacity=".2" offset="100%"/></linearGradient></defs><g fill="none"><path fill="#FFF" d="M0 0h90v90H0z"/><path fill="url(#a)" d="M0 0h90v90H0z"/><g transform="translate(16.874 16.875)"><circle fill="#F8F8F8" transform="rotate(90 28.126 28.125)" cx="28.126" cy="28.125" r="28.125"/><path d="M56.247 27.911v19.59a8.779 8.779 0 0 1-2.63 6.088 8.76 8.76 0 0 1-12.267 0 8.779 8.779 0 0 1-2.63-6.087V24.337c0-4.85 17.527 3.574 17.527 3.574Z" fill="#017AFF"/><path d="M56.247 29.117v8.196c-3.725 8.483-10.918 9.479-10.918 9.479l6.532-16.075c1.645-.162 3.023-1.261 4.386-1.6Z" fill="#000" opacity=".01"/><path d="M56.25 28.113A28.104 28.104 0 0 1 45.67 50.11a27.52 27.52 0 0 1-3.173 2.206l-.408.243c-.257.146-.517.288-.779.426.143-.07.283-.148.419-.232-4.089 2.11-9.415 1.839-14.026-.717-5.455-3.022-9.918-9.236-10.146-18.49v-.787a5.981 5.981 0 0 0 1.75 4.216 5.97 5.97 0 0 0 4.212 1.751h9.254c9.676 0 16.164-4.556 19.26-10.17 2.62-4.74 2.836-10.222.548-14.34.14.243.272.485.4.736l.327.628.235.485.25.537c.184.42.367.839.529 1.261l.228.607.205.588.04.118c.067.19.13.367.188.58.254.798.463 1.611.64 2.431.04.195.08.368.117.58l.088.494.08.492.1.692.073.614c.01.053.017.107.019.161 0 .133.026.269.037.409.022.202.037.4.047.606a27.189 27.189 0 0 1 .067 1.879Z" fill="#01438D"/><path d="m41.717 52.752-.418.232-.794.408-1.631.735-.834.331-.764.276-.617.206-.673.198c-.085.033-.172.06-.26.081l-.485.129-.496.121a1.501 1.501 0 0 1-.235.06l-.676.146-.577.114-.701.125-.735.103-.64.074-.631.062-.665.052-.886.04h-1.656l-.493-.022a2.89 2.89 0 0 1-.312 0c-.143 0-.29 0-.43-.026-.268 0-.536-.04-.797-.066h-.037l-.826-.1-.518-.073-.661-.103-.702-.132-.669-.143-.474-.11-.558-.144-1.102-.32-.676-.224-2.435-.953-.46-.213-1.241-.618-.58-.32-.581-.334-.555-.364a27.225 27.225 0 0 1-2.7-1.927l-.459-.367-.43-.368-.463-.42-1.47-1.444-.583-.633-.58-.676-.387-.471a.152.152 0 0 0-.018-.033l-.26-.33-.434-.57-.577-.817-.437-.673a.454.454 0 0 1-.051-.077l-.42-.684-.267-.456c-2.289-4.13-2.072-9.611.547-14.34 3.02-5.46 9.228-9.927 18.474-10.155h.786a5.97 5.97 0 0 0-4.21 1.73 5.98 5.98 0 0 0-1.77 4.197v9.291c0 9.685 4.551 16.178 10.16 19.278 4.615 2.556 9.942 2.828 14.03.717Z" fill="#0156B3"/><path d="M38.735 23.464a5.981 5.981 0 0 0-1.75-4.216 5.97 5.97 0 0 0-4.212-1.751H23.49c-9.677 0-16.164 4.555-19.26 10.17-2.62 4.74-2.837 10.222-.548 14.34a16.34 16.34 0 0 1-.4-.735l-.328-.63-.235-.484-.25-.537a28.456 28.456 0 0 1-.757-1.868l-.205-.589-.026-.099c-.066-.191-.129-.367-.187-.58a26.193 26.193 0 0 1-.64-2.431c-.04-.195-.08-.368-.117-.581a24.82 24.82 0 0 1-.268-1.677 6.093 6.093 0 0 1-.088-.614l-.056-.57-.048-.606-.066-.993c-.025-.32 0-.592 0-.886v-.772c0-.17 0-.339.019-.511a2.9 2.9 0 0 1 .018-.313c0-.143 0-.29.026-.43 0-.269.04-.537.066-.798v-.037c.025-.28.058-.552.099-.827l.073-.519c.03-.224.066-.444.103-.661.037-.217.103-.497.147-.718l.143-.669.11-.474.144-.559c.099-.368.202-.735.32-1.103.066-.228.146-.456.223-.676a26.15 26.15 0 0 1 .952-2.438c.066-.154.14-.302.213-.46.194-.42.4-.834.617-1.242.103-.195.213-.39.32-.582l.334-.58c.11-.192.227-.368.345-.567a27.91 27.91 0 0 1 1.925-2.702l.367-.46a19.811 19.811 0 0 1 .786-.894c.206-.239.426-.47.654-.698l.334-.335c.147-.147.302-.298.456-.438.205-.2.416-.395.632-.584l.676-.581.47-.386.033-.019c.107-.09.218-.178.33-.26.188-.148.368-.295.57-.435.265-.194.537-.367.816-.577l.672-.438a.471.471 0 0 1 .077-.051l.684-.42.466-.271c4.125-2.29 9.603-2.074 14.327.548 5.455 3.018 9.919 9.232 10.146 18.487.026.257.03.518.03.787h.001Z" fill="#0068D9"/><path d="M52.033 28.551c-3.02 5.46-9.228 9.928-18.474 10.155h-.786a5.97 5.97 0 0 0 4.212-1.75 5.984 5.984 0 0 0 1.75-4.217v-9.273c0-9.685-4.552-16.178-10.161-19.274-4.735-2.622-10.213-2.839-14.327-.548.242-.14.485-.272.735-.4l.628-.328.485-.235.14-.063.396-.187c.412-.184.838-.368 1.26-.53l.606-.228c.199-.073.393-.14.588-.206a1.01 1.01 0 0 1 .103-.03c.187-.065.367-.128.577-.186a28.62 28.62 0 0 1 2.413-.644l.61-.129c.096-.02.193-.037.29-.05a6.17 6.17 0 0 1 .68-.119c.235-.026.459-.07.69-.099l.614-.073.161-.019c.133 0 .269-.025.408-.036a10.3 10.3 0 0 1 .606-.048h.302c.23 0 .47-.026.705-.033h.889c.68 0 1.348.025 2.02.073.269 0 .537.04.798.066h.14l.436.048.287.04a26.8 26.8 0 0 1 3.581.706l.552.155c.183.055.367.103.55.165l.342.11.335.115c.205.066.411.136.62.217l.654.246.562.232a27.548 27.548 0 0 1 6.058 3.485l.654.512c.217.176.345.272.518.423l.33.279.041.04.463.42c.511.459 1.002.94 1.47 1.444.102.103.194.206.293.313l.29.32c.101.11.2.223.294.338l.287.338.386.471c.099.114.183.232.279.368.147.187.294.368.433.57.368.507.735 1.03 1.065 1.566l.42.684c.09.15.18.302.267.456 2.311 4.129 2.094 9.611-.525 14.35Z" fill="#017AFF"/><path d="M38.72 22.678C35.844 5.396 20.11 2.823 10.596 6.106l.033-.018c.103-.089.216-.177.33-.262.188-.147.368-.294.57-.433.264-.195.536-.368.816-.578l.672-.437a.471.471 0 0 1 .077-.052l.684-.419.455-.264c4.126-2.291 9.603-2.074 14.327.547 5.47 3.02 9.926 9.233 10.161 18.488Zm13.313 5.873c-3.02 5.46-9.228 9.928-18.474 10.155 17.265-2.879 19.837-18.623 16.556-28.142.1.114.184.231.28.367.147.188.293.368.433.57a25.7 25.7 0 0 1 1.066 1.567l.418.683.269.456c2.288 4.122 2.071 9.604-.548 14.344ZM45.66 50.116a27.566 27.566 0 0 1-3.174 2.206l-.408.243-.78.426.42-.232c-4.089 2.11-9.416 1.839-14.026-.717-5.455-3.022-9.919-9.236-10.146-18.49 2.873 17.255 18.603 19.85 28.114 16.564ZM6.146 45.663a.152.152 0 0 0-.018-.033l-.261-.33-.433-.57-.577-.817-.437-.673a.454.454 0 0 1-.052-.077l-.418-.684-.269-.456c-2.288-4.13-2.071-9.611.548-14.34 3.02-5.46 9.228-9.927 18.474-10.155C5.453 20.392 2.863 36.14 6.147 45.663Z" fill="#000" opacity=".01"/></g></g></svg>