<svg viewBox="0 0 90 90" xmlns="http://www.w3.org/2000/svg"><g fill="none"><path fill="#FFF" d="M0 0h90v90H0z"/><path d="M56.255 18.352c-.314.756-.873 2.126-1.222 3.039l-.663 1.669-6.702.052-6.684.035-6.266 15.597a6060.157 6060.157 0 0 1-7.365 18.301C24.648 63.755 21 72.853 21 72.941c0 .052 2.984.07 6.65.052l6.65-.052 1.22-3.039 1.24-3.02h13.317l1.117-2.776c.61-1.51 1.728-4.303 2.478-6.182a817.11 817.11 0 0 0 2.409-5.972c6.51-16.141 13.84-34.408 13.91-34.653.087-.281-.315-.299-6.545-.299h-6.632l-.559 1.352Zm4.38 5.62c-.523 1.353-7.295 18.232-12.042 30l-2.6 6.498-3.369.088-3.35.088-1.257 3.074-1.257 3.073-3.333.053-3.351.035.331-.825c.541-1.388 8.866-22.06 10.053-24.994a294.65 294.65 0 0 0 1.553-3.864c.227-.632 1.013-2.6 1.746-4.39l1.309-3.25 3.368-.088 3.369-.088.994-2.458c.541-1.353 1.117-2.758 1.257-3.127l.28-.65h6.631l-.331.826Z" fill="#000"/></g></svg>