<svg xmlns="http://www.w3.org/2000/svg" viewBox="0 0 90 90" fill-rule="evenodd"><g fill="#fff"><path d="M0 0h90v90H0z"/><path opacity="0" d="M0 0h90v90H0z"/></g><g fill-rule="nonzero"><path fill="#000" d="M63.571 45.884c0 .83.179 1.688.536 2.571a10.76 10.76 0 0 0 1.271 2.33l1.49 1.848c.503.563.94.991 1.311 1.286l.516.442-9.017 9-3.138-3.033-2.304-2.35-.755-.804c-.291-.295-.622-.737-.993-1.326-1.006 1.58-2.297 2.953-3.873 4.118s-3.264 2.016-5.065 2.551-3.655.844-5.561.924-3.727-.201-5.462-.844-3.29-1.52-4.668-2.632-2.476-2.625-3.297-4.54-1.231-4.092-1.231-6.529c0-2.25.371-4.312 1.112-6.187s1.695-3.435 2.86-4.681 2.575-2.357 4.231-3.335 3.277-1.741 4.866-2.29 3.31-1.011 5.164-1.386l4.747-.743 3.953-.261v-5.103c0-1.741-.278-3.04-.834-3.897-.9-1.42-2.503-2.129-4.807-2.129-.159 0-.377.013-.655.04s-.814.188-1.609.482a9.37 9.37 0 0 0-2.225 1.185c-.689.496-1.43 1.292-2.225 2.391s-1.43 2.384-1.907 3.857l-11.679-1.085c0-1.607.291-3.201.874-4.781s1.47-3.094 2.661-4.54 2.622-2.719 4.29-3.817 3.674-1.975 6.018-2.632S43.034 9 45.735 9c2.648 0 5.045.335 7.19 1.004s3.86 1.493 5.144 2.471 2.357 2.089 3.218 3.335 1.457 2.397 1.788 3.455.497 2.042.497 2.953v23.665zm-26.694.844c0 2.304.927 4.085 2.781 5.344 1.748 1.179 3.588 1.473 5.522.884 2.225-.67 3.734-2.317 4.528-4.942.371-1.205.556-2.558.556-4.058v-6.509a28.15 28.15 0 0 0-4.409.482c-1.377.268-2.787.717-4.231 1.346s-2.595 1.58-3.456 2.853-1.291 2.806-1.291 4.6z"/><path fill="#f29700" d="M11.354 63.261a.81.81 0 0 1 .457.181c5.085 3.134 9.057 5.357 11.917 6.67 10.302 4.714 20.881 5.92 31.739 3.616 5.032-1.071 10.209-2.879 15.532-5.424.397-.161.742-.201 1.033-.121s.437.315.437.703-.199.837-.596 1.346c-.344.429-.927 1.011-1.748 1.748s-2.085 1.647-3.794 2.732-3.575 2.076-5.601 2.973-4.515 1.674-7.468 2.33-5.992.984-9.117.984c-3.151 0-6.303-.415-9.454-1.246s-5.919-1.855-8.302-3.074a53.66 53.66 0 0 1-6.852-4.179c-2.185-1.567-3.939-2.973-5.263-4.219s-2.436-2.417-3.337-3.516c-.212-.241-.344-.462-.397-.663s-.04-.362.04-.482a.81.81 0 0 1 .318-.281c.132-.067.285-.094.457-.08zm64.849-.542c1.642.161 2.648.482 3.019.964.291.429.324 1.359.099 2.792s-.602 2.806-1.132 4.118c-.9 2.223-2.026 3.884-3.377 4.982-.45.375-.794.496-1.033.362s-.238-.455 0-.964c.556-1.205 1.145-2.833 1.768-4.882s.708-3.368.258-3.958c-.132-.187-.338-.342-.616-.462s-.636-.201-1.073-.241l-1.172-.1c-.344-.027-.808-.027-1.39 0-.51.023-.893.047-1.149.07l-.102.01-1.231.121-.894.08a5.5 5.5 0 0 1-.516.06c-.185.013-.331.027-.437.04l-.338.04a2.66 2.66 0 0 1-.278.02h-.397l-.119-.02-.079-.06-.06-.121c-.159-.429.463-.964 1.867-1.607s2.767-1.045 4.092-1.205c1.218-.187 2.648-.201 4.29-.04z"/></g></svg>