<svg viewBox="0 0 90 90" xmlns="http://www.w3.org/2000/svg"><path d="M83.158 57.366 51.88 2.993C50.803 1.117 48.963 0 46.96 0c-1.999 0-3.84 1.12-4.919 2.994L31.18 21.88a4.25 4.25 0 0 0-.126.194l-22.47 38.94c-5.314 9.212-2.167 21.053 7.011 26.391A19.092 19.092 0 0 0 25.205 90c6.644 0 13.117-3.45 16.681-9.628l7.006-12.14c.06-.106.112-.213.162-.32l7.099-12.3a11.587 11.587 0 0 0 1.17-8.827 11.556 11.556 0 0 0-5.392-7.069c-5.54-3.21-12.622-1.315-15.834 4.238L21.868 68.61a4.51 4.51 0 0 0 1.636 6.15 4.476 4.476 0 0 0 6.128-1.64l14.227-24.66a2.614 2.614 0 0 1 3.553-.914 2.634 2.634 0 0 1 .979 3.548l-10.816 18.75c-.062.101-.112.208-.163.313l-3.287 5.7c-2.848 4.92-9.127 6.599-14.035 3.752-4.905-2.856-6.579-9.158-3.742-14.085l6.7-11.618c.135-.169.262-.345.374-.538L46.96 12.444l25.578 44.47H60.474a4.494 4.494 0 0 0-4.486 4.502 4.494 4.494 0 0 0 4.486 4.501h17.765c2.156 0 4.04-1.038 5.04-2.78 1.003-1.742.957-3.898-.121-5.773" fill="#00C377"/></svg>