<?xml version="1.0" encoding="UTF-8"?>
<svg width="90px" height="90px" viewBox="0 0 90 90" version="1.1" xmlns="http://www.w3.org/2000/svg" xmlns:xlink="http://www.w3.org/1999/xlink">
    <title>angel.co</title>
    <g id="angel" stroke="none" stroke-width="1" fill="none" fill-rule="evenodd">
        <rect id="Rectangle" fill="#FFFFFF" x="0" y="0" width="90" height="90"></rect>
        <g id="stripe.com-copy-2" fill="#000000">
            <rect id="Rectangle" opacity="0" x="0" y="0" width="90" height="90"></rect>
            <path d="M65.46875,38.6875 C69.125,39.25 71.65625,40.9375 73.0625,43.1875 C74.46875,45.4375 75.3125,49.375 75.3125,54.4375 C75.3125,64.5625 72.21875,73 66.03125,79.46875 C59.84375,85.9375 51.96875,89.3125 42.40625,89.3125 C38.75,89.3125 35.09375,88.75 31.4375,87.34375 C27.78125,85.9375 24.96875,83.96875 22.4375,81.71875 C19.625,79.1875 17.375,76.09375 15.96875,73.28125 C14.84375,70.1875 14,67.09375 14,64 C14,60.625 14.84375,57.8125 16.25,55.84375 C17.65625,53.875 20.1875,52.75 23.28125,51.90625 C22.71875,50.5 22.15625,49.375 21.875,48.25 C21.59375,47.40625 21.3125,46.5625 21.3125,46 C21.3125,44.3125 22.15625,42.34375 24.125,40.375 C26.09375,38.40625 27.78125,37.5625 29.46875,37.5625 C30.3125,37.5625 30.875,37.5625 31.71875,37.84375 C32.5625,38.125 33.40625,38.40625 34.53125,39.25 C32,30.8125 29.46875,23.78125 28.0625,19 C26.65625,14.21875 26.09375,11.125 26.09375,9.15625 C26.09375,6.625 26.65625,4.65625 28.0625,3.25 C29.1875,1.84375 31.15625,1 33.40625,1 C37.0625,1 41.84375,9.4375 47.75,26.59375 C48.875,29.40625 49.4375,31.65625 50,33.34375 C50.5625,32.21875 51.125,30.25 51.96875,28 C57.875,11.125 62.9375,2.6875 66.875,2.6875 C68.84375,2.6875 70.53125,3.25 71.9375,4.65625 C73.0625,6.0625 73.90625,8.03125 73.90625,10.28125 C73.90625,11.96875 73.34375,15.34375 71.9375,20.125 C70.25,24.90625 68.28125,31.09375 65.46875,38.6875 Z M22.15625,63.4375 C22.71875,64 23.5625,65.125 24.40625,66.53125 C26.9375,70.1875 29.46875,72.15625 31.71875,72.15625 C32.5625,72.15625 33.125,71.875 33.6875,71.3125 C34.25,70.75 34.53125,70.1875 34.53125,69.90625 C34.53125,69.34375 34.25,68.21875 33.40625,66.8125 C32.5625,65.40625 31.4375,63.71875 30.03125,62.03125 C28.34375,60.0625 26.9375,58.375 26.09375,57.53125 C24.96875,56.6875 24.125,56.125 23.5625,56.125 C22.15625,56.125 20.75,56.96875 19.625,58.375 C18.5,59.78125 17.9375,61.75 17.9375,63.71875 C17.9375,65.40625 18.21875,67.09375 19.0625,69.34375 C19.90625,71.3125 21.03125,73.5625 22.71875,75.53125 C25.25,78.34375 28.0625,80.875 31.71875,82.5625 C35.375,84.25 39.03125,85.09375 43.53125,85.09375 C51.40625,85.09375 57.875,82.28125 63.21875,76.375 C68.5625,70.46875 71.09375,63.15625 71.09375,54.15625 C71.09375,51.34375 70.8125,49.375 70.53125,47.6875 C70.25,46 69.40625,44.875 68.5625,44.3125 C66.875,42.90625 63.78125,41.78125 59,40.65625 C54.21875,39.53125 49.15625,38.96875 44.09375,38.96875 C42.6875,38.96875 41.5625,39.25 41,39.8125 C40.4375,40.375 40.15625,41.21875 40.15625,42.34375 C40.15625,45.15625 41.5625,47.125 44.65625,48.25 C47.75,49.375 52.8125,50.21875 59.5625,50.21875 L62.09375,50.21875 C62.65625,50.21875 63.21875,50.5 63.5,50.78125 C63.78125,51.34375 64.0625,51.90625 64.0625,52.75 C63.5,53.3125 62.09375,54.15625 59.84375,55 C57.59375,55.84375 56.1875,56.6875 55.0625,57.53125 C52.53125,59.21875 50.5625,61.46875 49.15625,64 C47.75,66.53125 46.90625,68.78125 46.90625,71.03125 C46.90625,72.4375 47.1875,73.84375 47.75,75.8125 C48.3125,77.78125 48.59375,78.90625 48.59375,79.1875 L48.59375,80.3125 C46.90625,80.3125 45.5,79.1875 44.375,77.21875 C43.25,75.25 42.96875,72.71875 42.96875,69.34375 L42.96875,68.78125 C42.6875,69.0625 42.40625,69.34375 42.125,69.34375 C41.84375,69.34375 41.5625,69.625 41,69.625 L39.875,69.625 C39.59375,69.625 39.3125,69.34375 38.75,69.34375 C38.75,69.90625 39.03125,70.1875 39.03125,70.75 L39.03125,71.875 C39.03125,73.28125 38.46875,74.6875 37.34375,75.8125 C36.21875,76.9375 34.8125,77.5 33.125,77.5 C30.59375,77.5 28.0625,76.375 25.25,73.84375 C22.71875,71.3125 21.3125,69.0625 21.3125,66.53125 C21.3125,65.96875 21.3125,65.6875 21.59375,65.40625 C21.59375,64 21.875,63.71875 22.15625,63.4375 L22.15625,63.4375 Z M40.4375,64.84375 C41,64.84375 41.84375,64.5625 42.40625,64 C42.96875,63.4375 43.25,62.59375 43.25,62.03125 C43.25,61.1875 42.6875,59.5 41.5625,56.6875 C40.4375,53.875 39.03125,51.0625 37.34375,48.53125 C36.21875,46.5625 34.8125,44.875 33.6875,44.03125 C32.5625,42.90625 31.4375,42.625 30.3125,42.625 C29.46875,42.625 28.625,43.1875 27.5,44.3125 C26.375,45.4375 26.09375,46.28125 26.09375,47.40625 C26.09375,48.25 26.65625,49.9375 27.5,51.90625 C28.625,53.875 29.75,55.84375 31.4375,58.09375 C33.125,60.34375 34.8125,62.3125 36.5,63.71875 C38.1875,64.28125 39.3125,64.84375 40.4375,64.84375 L40.4375,64.84375 Z M46.34375,35.59375 L39.59375,16.75 C37.90625,11.96875 36.78125,8.59375 35.65625,7.1875 C34.8125,5.78125 33.96875,4.9375 32.84375,4.9375 C32,4.9375 31.4375,5.21875 30.875,5.78125 C30.03125,6.625 29.75,7.46875 29.75,8.59375 C29.75,10.5625 30.59375,13.65625 32,18.15625 C33.40625,22.65625 35.65625,28.84375 38.46875,36.15625 C38.75,35.59375 39.03125,35.3125 39.59375,35.3125 C40.15625,35.03125 40.71875,35.03125 41.28125,35.03125 L42.6875,35.03125 C43.53125,35.3125 44.65625,35.3125 46.34375,35.59375 Z M53.09375,53.875 C51.40625,53.875 49.71875,53.59375 48.03125,53.3125 C46.34375,53.03125 44.9375,52.75 43.53125,52.1875 C44.09375,53.59375 44.65625,54.71875 45.21875,56.125 C45.78125,57.53125 46.0625,58.65625 46.34375,60.0625 C47.1875,58.9375 48.3125,57.8125 49.4375,56.6875 C50.84375,55.5625 51.96875,54.71875 53.09375,53.875 Z M61.25,37.5625 C64.0625,30.25 66.03125,24.0625 67.71875,19.28125 C69.125,14.5 69.96875,11.6875 69.96875,10.5625 C69.96875,9.4375 69.6875,8.59375 69.125,7.75 C68.5625,7.1875 68,6.90625 67.15625,6.90625 C66.03125,6.90625 64.90625,7.75 63.78125,9.71875 C62.65625,11.6875 61.25,14.5 59.84375,18.71875 L53.65625,36.15625 L61.25,37.5625 L61.25,37.5625 Z" id="Shape" fill-rule="nonzero"></path>
        </g>
    </g>
</svg>