<svg xmlns="http://www.w3.org/2000/svg" viewBox="0 0 90 90"><path fill="#171F70" d="M0 0h90v90H0z"/><path fill="#3AE7E1" d="M18.74 42.66a2.08 2.08 0 01-1.6-3.7l5.76-4.5a2.08 2.08 0 012.55 3.28l-5.76 4.5c-.28.23-.6.37-.95.42z"/><path fill="#F5F7FA" d="M13.15 47.05a2.1 2.1 0 01-1.96-.76c-.7-.9-.55-2.2.36-2.91l.54-.42a2.08 2.08 0 012.55 3.27l-.54.42c-.28.22-.6.36-.95.4z"/><path fill="#3AE7E1" d="M12.4 58.87a2.08 2.08 0 01-1.6-3.69l12.64-9.87a2.08 2.08 0 012.55 3.27l-12.64 9.89c-.3.21-.62.35-.95.4z"/><path fill="#F5F7FA" d="M30.42 44.85a2.08 2.08 0 01-1.6-3.69l2-1.57a2.08 2.08 0 012.56 3.27l-2.01 1.57c-.3.22-.62.36-.95.42z"/><path fill="#3AE7E1" d="M29.31 56.92a2.08 2.08 0 01-1.6-3.69l10.37-8.1a2.08 2.08 0 012.55 3.28l-10.37 8.1c-.28.23-.6.37-.95.41z"/><path fill="#F5F7FA" d="M23.64 61.42a2.08 2.08 0 01-1.6-3.69l.73-.57a2.08 2.08 0 012.55 3.27l-.73.57a2 2 0 01-.95.42z"/><path fill="#3AE7E1" d="M75.91 21H27.83c-1.79 0-3.46 1.1-3.99 2.82-.24.8-.23 1.6 0 2.33a4 4 0 001.36 1.95s18.42 14.31 22.94 17.42a3.5 3.5 0 004.12-.03l23.37-18.18v31.43c0 3.07-2.49 5.56-5.56 5.56H25.9c-1.14 0-2.06.92-2.06 2.06 0 1.15.94 2.08 2.1 2.08h44.12a9.7 9.7 0 009.7-9.7v-33.9A3.83 3.83 0 0075.91 21zM42.65 38.14l.02-.1.06.09-.08.01zm7.52 3.74l-21.4-16.74h42.9l-21.5 16.74z"/></svg>