<svg viewBox="0 0 90 90" xmlns="http://www.w3.org/2000/svg"><g fill="none"><path d="M90 45c0 24.862-20.138 45-45 45S0 69.862 0 45 20.138 0 45 0s45 20.138 45 45" fill="#2AB1EB"/><path d="M9.58 34.073h24.127v-1.877h3.834v-.88h41.98s.464 4.097-2.208 4.212c-2.4.115-13.283 1.991-17.504 5.4-4.299 3.408-5.344 10.033 0 13.825 4.918 3.485 6.041 3.446 6.041 3.446v4.29h-9.294s-1.936-4.71-9.41-4.673c-7.475.077-9.876 4.673-9.876 4.673h-8.403v-4.366s9.139-3.792 9.72-8.579c.58-4.825-4.957-5.208-6.351-5.4-1.394-.19-14.29.499-22.655-10.071" fill="#FFF"/></g></svg>