<svg xmlns="http://www.w3.org/2000/svg" viewBox="0 0 90 90" fill="none" fill-rule="evenodd" xmlns:v="https://vecta.io/nano"><path fill="#fff" d="M0 0h90v90H0z"/><g fill-rule="nonzero"><path fill="#000" d="M33.638 18.214c-9.242 1.342-16.898 6.863-20.893 15.113-2.852 5.887-3.492 12.322-1.845 18.728.793 3.081 2.227 6.131 4.102 8.8 1.312 1.876 4.56 5.124 6.436 6.436 9.257 6.512 21.595 6.649 30.882.351.808-.549 1.495-.991 1.54-.991.031 0 .061 1.266.061 2.821v2.821h10.37V57.895c0-15.784-.015-16.211-.9-19.658-1.967-7.58-7.275-14.015-14.427-17.492-3.736-1.815-6.893-2.577-11.133-2.669-1.845-.046-3.218 0-4.194.137zm6.939 10.538c8.296 1.723 14.107 9.654 13.222 18.026-.534 5.185-3.203 9.562-7.519 12.399-1.556 1.022-3.126 1.708-5.155 2.242-1.281.351-1.769.397-3.98.397s-2.699-.046-3.98-.397c-3.142-.824-5.688-2.272-7.854-4.438-5.643-5.643-6.512-14.458-2.089-21.122 2.562-3.858 6.725-6.512 11.392-7.275 1.54-.259 4.316-.168 5.963.168h0z"/><path fill="#3164e9" d="M72.268 18.229c-1.327.29-2.364.9-3.325 1.937-1.037 1.129-1.464 2.196-1.571 3.95-.076 1.51.168 2.486.915 3.675 2.12 3.37 6.939 3.919 9.791 1.083 3.66-3.645 1.617-9.882-3.508-10.721-1.083-.183-1.113-.183-2.303.076h0z"/></g></svg>