<svg viewBox="0 0 90 90" xmlns="http://www.w3.org/2000/svg"><g fill="none" fill-rule="evenodd"><path fill="#2F9AFF" d="M0 0h90v90H0z"/><path d="M49.5 34.5C43.71 34.5 39 39.21 39 45s4.71 10.5 10.5 10.5S60 50.79 60 45s-4.71-10.5-10.5-10.5ZM69 30v25.5h-6V30h6Zm6 19.5a3 3 0 1 1 0 6 3 3 0 0 1 0-6ZM28.963 30 39 55.5h-7.958l-1.382-3.825h-8.32L19.958 55.5H12L22.037 30h6.926ZM49.5 40.5c2.48 0 4.5 2.02 4.5 4.5s-2.02 4.5-4.5 4.5S45 47.48 45 45s2.02-4.5 4.5-4.5Zm-24-1.5-2.25 6h4.5l-2.25-6Z" fill="#FFF" fill-rule="nonzero"/></g></svg>