<svg viewBox="0 0 90 90" xmlns="http://www.w3.org/2000/svg"><g fill="none" fill-rule="evenodd"><path fill="#FFF" fill-rule="nonzero" d="M0 0h90v90H0z"/><g transform="translate(30 26)" fill="#00A0E2"><circle cx="6.5" cy="6.5" r="6.5"/><circle cx="25.5" cy="6.5" r="6.5"/><circle cx="25.5" cy="31.5" r="6.5"/><circle cx="6.5" cy="31.5" r="6.5"/></g><path d="M32.457 8.058c-12.223 3.921-20.887 13.01-24.98 26.2-1.959 6.178-1.959 14.733-.06 20.259 1.543 4.515 4.272 9.267 7.595 13.248 2.433 2.91 3.204 3.267 4.39 1.842.594-.773.594-1.13-.118-1.96-3.738-4.219-4.984-12.358-3.145-20.735 1.484-6.891 5.519-18.892 7.833-23.585 2.67-5.347 6.586-9.447 11.155-11.704 3.264-1.604 3.62-1.96 3.382-3.268-.296-1.723-1.483-1.782-6.052-.297Zm38.925 13.427c-1.068.832-1.068 1.01 1.068 5.168 2.79 5.526 3.264 10.16 1.899 16.932-1.246 6.238-6.468 21.447-8.841 26.022-2.611 4.812-7.299 9.446-11.096 10.812-2.077.713-2.967 1.367-2.967 2.139 0 1.663 1.543 1.842 5.518.772 15.843-4.396 25.93-17.17 26.94-34.042.415-6.653-.475-11.525-3.027-17.11-1.84-3.92-7.12-11.584-7.951-11.584-.237 0-.95.416-1.543.89Z" fill="#000" fill-rule="nonzero"/></g></svg>