<svg viewBox="0 0 90 90" xmlns="http://www.w3.org/2000/svg"><g fill="none" fill-rule="evenodd"><path fill="#0470DC" d="M0 0h90v90H0z"/><path d="M80 26.157v37.506C69.778 70.79 56.63 76.117 47.023 84v-6.299c8.885-5.795 18.276-11.158 27.559-16.99V35.408c-7.657 4.824-15.568 8.64-22.864 13.462v8.53l-4.695 2.304V45.09L80 26.157Zm-70-.144 5.346 3.167v31.388l22.9 13.965v-26.24l-7.622-4.355v-6.01l12.498 7.162v38.406L10 63.52V26.013ZM44.892 6c9.535 4.355 18.276 9.647 27.45 14.65a199.31 199.31 0 0 1 5.563 2.843l-5.31 3.168-5.454-2.988-21.997-11.878-22.213 11.878 22.213 12.67 1.662-.972 1.698-.9 3.792-2.159 5.563 2.808-2.42 1.403-8.777 5.076-1.662.935C34.02 36.2 23.111 29.864 12.131 23.565c11.053-6.119 21.6-11.95 32.76-17.565Z" fill="#FFF" fill-rule="nonzero"/></g></svg>