<svg viewBox="0 0 90 90" xmlns="http://www.w3.org/2000/svg"><g fill="none"><path d="M34.892 2.363a2.238 2.238 0 0 0-1.24 2.003v6.406a67.775 67.775 0 0 1 22.556 0V4.366a2.24 2.24 0 0 0-1.241-2.003A22.477 22.477 0 0 0 44.93 0c-3.44 0-6.879.787-10.038 2.363M85.5 64.704C78.175 79.681 62.76 90 44.93 90 25.905 90 9.631 78.254 3 61.637c3.382-2.989 7.355-5.387 13.733-5.387 8.46 0 12.689 4.219 16.918 8.437 4.23 4.219 8.459 8.438 16.918 8.438 7.049 0 11.983-2.11 16.917-4.219 4.934-2.11 9.869-4.219 16.918-4.219.372 0 .738.006 1.096.017" fill="#28AED4"/><path d="M44.93 33.75c-5.64 8.437 0 33.75 0 33.75s5.638-25.313 0-33.75M4.676 65.34c1.911-.408 4.013-.653 6.417-.653 7.05 0 11.983 2.11 16.918 4.219.62.265 1.24.53 1.864.79-2.695-8.998-6.834-20.434-12.417-29.209-.401-.63-.258-1.465.356-1.892 11.245-7.832 27.114-10.47 27.114-10.47s15.87 2.638 27.116 10.47c.614.427.757 1.262.356 1.892-4.671 7.34-8.33 16.544-10.98 24.625l.426-.425c4.23-4.219 8.459-8.438 16.917-8.438 3.808 0 6.757.855 9.236 2.18C82.274 76.721 65.156 90 44.93 90 27.351 90 12.122 79.972 4.676 65.34" fill="#046"/><path d="M23.177 19.386a1.236 1.236 0 0 0-.804 1.158v8.95c4.084-1.96 8.155-3.41 11.568-4.45a96.05 96.05 0 0 1 7.107-1.875 68.125 68.125 0 0 1 2.707-.55l1.174-.197 1.006.168.169.03a78.055 78.055 0 0 1 2.708.55 96.134 96.134 0 0 1 7.107 1.874c3.412 1.04 7.483 2.49 11.567 4.45v-8.95c0-.515-.32-.977-.803-1.158a62.1 62.1 0 0 0-43.506 0" fill="#046"/></g></svg>