<svg viewBox="0 0 90 90" xmlns="http://www.w3.org/2000/svg"><g fill="none" fill-rule="evenodd"><path fill="#FFF" d="M0 0h90v90H0z"/><g fill-rule="nonzero"><path d="m50.476 40.9-4.29-5.694-12.643-17.289c-.419-.605-.925-.9-1.64-.9H20.411c-1.238 0-1.552.796-.715 1.817L37.257 42.84c7.028 8.912 4.622 13.447 4.238 14.052l8.964-12.097a3.2 3.2 0 0 0 .017-3.894Z" fill="#00A1DE"/><path d="m37.257 42.856-19.95 27.327c-.61 1.004-.314 1.817.924 1.817H29.62c.715 0 1.238-.485 1.535-.9l10.289-14.122s.017-.017.052-.07c.384-.605 2.79-5.157-4.238-14.052Z" fill="#00549F"/><path d="M55.115 36.885c.488.658 1.5.658 1.988 0l13.22-18.068c.819-1.004.505-1.817-.716-1.817H58.115c-.715 0-1.239.294-1.64.9l-7.359 10.003a.722.722 0 0 0 0 .865l6 8.117Zm17.579 33.298-15.59-21.356a1.23 1.23 0 0 0-1.989 0l-5.999 8.168a.722.722 0 0 0 0 .866L58.83 71.1c.4.518.82.899 1.534.899h11.388c1.256 0 1.552-.813.942-1.817Z" fill="#333"/></g></g></svg>