<svg viewBox="0 0 90 90" xmlns="http://www.w3.org/2000/svg"><defs><linearGradient x1="50%" y1="0%" x2="50%" y2="100%" id="a"><stop stop-color="#FFBD59" offset="0%"/><stop stop-color="#FF780B" offset="100%"/></linearGradient></defs><g fill="none"><path fill="#0A1226" d="M0 0h90v90H0z"/><path d="M21.768 42.694c4.579 3.734 5.35 7.702 2.312 11.904-3.744 5.058-10.674 6.896-16.54 4.05l-.049-.024-.042-.02c-6.594-3.229-9.32-11.187-6.09-17.775l7.312-14.913 4.109-8.38 4.938-10.07C20.118 2.57 25.123-.2 30.246.01c4.95-.019 9.713 2.728 12.036 7.465l16.36 33.364c3.23 6.588.503 14.546-6.09 17.774l-.043.021-.05.024c-6.553 3.18-14.434.513-17.718-5.96-1.701-3.576-.566-6.951 3.405-10.126h-.001a13.122 13.122 0 0 0 4.897-10.235c0-7.263-5.893-13.151-13.162-13.151-7.268 0-13.161 5.888-13.161 13.15 0 4.206 1.975 7.95 5.049 10.357Zm8.124-3.464a6.913 6.913 0 0 1-6.915-6.91 6.913 6.913 0 0 1 6.915-6.91 6.913 6.913 0 0 1 6.916 6.91 6.913 6.913 0 0 1-6.916 6.91Z" transform="translate(15 15)" fill="url(#a)"/></g></svg>