<svg xmlns="http://www.w3.org/2000/svg" viewBox="0 0 90 90"><path fill="#FF4600" d="M0 0h90v90H0z"/><path fill="#fff" d="M73.386 65.187c2.273-3.785 2.135-8.186-.35-11.833l-21.26-30.842c-2.02-2.938-5.679-4.793-9.072-3.69-.194.064-.392.134-.593.21-1.45.55-2.585 1.674-3.486 2.938l-2.412 3.372a1.477 1.477 0 0 0 1.93 2.146l2.922-1.653a2.949 2.949 0 0 1 3.887.903L66.27 57.965a3.125 3.125 0 0 1 .097 3.367c-1.124 1.874-3.881 2.04-5.237.324l-19.976-25.33a7.971 7.971 0 0 0-12.801.377l-11.321 16.24a10.997 10.997 0 0 0-1.105 10.788c3.684 8.674 15.45 9.318 20.458 1.348.363-.584.703-1.16 1.02-1.725 1.336-2.4.889-5.464-1.014-7.445a1.233 1.233 0 0 0-1.803.035 148.28 148.28 0 0 1-5.149 5.472c-2.372 2.372-5.175 1.94-6.25-.431-.5-1.098-.076-2.445.563-3.362l10.493-15.057a.862.862 0 0 1 1.38-.046l19.079 23.85c4.9 6.216 14.61 5.604 18.685-1.186"/></svg>