<svg viewBox="0 0 90 90" xmlns="http://www.w3.org/2000/svg"><g fill="none"><path fill="#FFF" d="M0 0h90v90H0z"/><g fill="#0599C5"><path d="M68.16 56.36c-3.777 0-6.84 3.054-6.84 6.82 0 3.767 3.063 6.82 6.84 6.82 3.778 0 6.84-3.053 6.84-6.82-.004-3.764-3.064-6.815-6.84-6.82Zm4.045 6.82a4.032 4.032 0 0 1-2.486 3.737 4.053 4.053 0 0 1-4.413-.863 4.024 4.024 0 0 1-.884-4.397 4.045 4.045 0 0 1 3.738-2.493 4.063 4.063 0 0 1 4.045 4.016ZM21.84 56.36c-3.778 0-6.84 3.054-6.84 6.82 0 3.767 3.062 6.82 6.84 6.82 3.777 0 6.84-3.053 6.84-6.82-.005-3.764-3.065-6.815-6.84-6.82Zm4.069 6.82a4.039 4.039 0 0 1-4.027 4.049 4.039 4.039 0 0 1-4.062-4.014 4.038 4.038 0 0 1 4.024-4.051 4.063 4.063 0 0 1 4.044 4.016h.02ZM45 19c-3.778 0-6.84 3.053-6.84 6.82 0 3.766 3.062 6.82 6.84 6.82s6.84-3.054 6.84-6.82c-.005-3.765-3.064-6.816-6.84-6.82Zm4.044 6.82A4.039 4.039 0 0 1 45 29.852a4.039 4.039 0 0 1-4.044-4.032A4.039 4.039 0 0 1 45 21.787a4.063 4.063 0 0 1 4.044 4.033Z"/><path d="M65.63 57.135 50.525 29.998l-.127-.263-.187.235a6.075 6.075 0 0 1-1.88 1.554l-.183.097.102.179 13.37 24.009a77.937 77.937 0 0 0-16.401-1.623c-6.551 0-12.374.556-16.886 1.623L41.68 31.796l.102-.179-.184-.097a6.14 6.14 0 0 1-1.88-1.566l-.187-.236-.146.264L24.28 57.135l-.118.211.228.081c.74.26 1.42 1.177 2.034 1.704l.102.09.122-.057h.05c4.82-1.33 11.221-2.029 18.52-2.029 6.568 0 12.94.718 17.953 2.029l.101.195.196-.159.04-.032c.61-.536 1.29-1.457 2.035-1.716l.228-.077-.143-.24Z"/></g></g></svg>