<svg viewBox="0 0 90 90" xmlns="http://www.w3.org/2000/svg"><defs><linearGradient x1="50%" y1="0%" x2="50%" y2="100%" id="a"><stop stop-color="#7D7D7D" offset="0%"/><stop stop-color="#5E5E5E" offset="100%"/></linearGradient></defs><g fill="none" fill-rule="evenodd"><path fill="#F2F2F2" d="M0 0h90v90H0z"/><path d="M45.961 26.139c2.765 0 7.954-3.764 13.403-3.21 2.28.094 8.689.919 12.802 6.933-.037.024-.163.1-.357.228l-.183.123c-1.756 1.196-7.093 5.404-7.018 12.984.096 10.587 9.288 14.108 9.392 14.157-.013.038-.058.187-.138.431l-.066.201c-.5 1.49-1.93 5.357-4.645 9.324l-.381.556-.383.554c-2.691 3.863-5.59 7.406-9.945 7.486-4.69.09-6.196-2.78-11.557-2.78-5.361 0-7.034 2.694-11.47 2.87-4.6.174-8.107-4.606-11.048-8.855-6.016-8.692-10.61-24.563-4.437-35.273 3.06-5.321 8.539-8.69 14.483-8.779 4.519-.08 8.79 3.05 11.548 3.05ZM59.438 6c.45 4.098-1.204 8.214-3.644 11.176-2.448 2.957-6.455 5.26-10.383 4.956-.53-4.024 1.45-8.206 3.715-10.832 2.528-2.96 6.79-5.158 10.312-5.3Z" fill="url(#a)" fill-rule="nonzero"/></g></svg>