<svg viewBox="0 0 90 90" xmlns="http://www.w3.org/2000/svg"><g fill="none"><path fill="#FFF" d="M0 0h90v90H0z"/><g fill="#000"><path d="M36.298 33.774c-1.621 0-2.81.562-3.608 1.487V33.81h-3.632v18.31h3.632V40.18c.014-1.808 1.22-2.942 2.88-2.942s2.88 1.148 2.88 2.974c0 1.826-1.211 2.939-2.88 2.974-1.017.027-1.92-.77-2.294-1.005a.085.085 0 0 0-.095.002.087.087 0 0 0-.034.09l.082 3.117c.02.196.047.297.18.393a4.835 4.835 0 0 0 2.886.87c3.173 0 5.788-2.806 5.788-6.447 0-3.64-2.612-6.432-5.785-6.432Zm-14.325 0c-1.622 0-2.807.562-3.606 1.487V33.81h-3.632v18.31h3.632V40.18c.018-1.808 1.22-2.942 2.88-2.942s2.881 1.148 2.881 2.974c0 1.826-1.209 2.939-2.88 2.974-1.014.027-1.92-.77-2.291-1.005a.085.085 0 0 0-.096.002.087.087 0 0 0-.034.09l.083 3.117c.018.196.047.297.18.393a4.82 4.82 0 0 0 2.883.87c3.172 0 5.787-2.806 5.787-6.447 0-3.64-2.615-6.432-5.787-6.432ZM5.787 46.669c1.622 0 2.807-.562 3.606-1.487v1.487h3.63v-12.86H9.39v6.463c-.018 1.808-1.22 2.941-2.88 2.941s-2.88-1.148-2.88-2.974c0-1.826 1.208-2.938 2.88-2.974 1.014-.027 1.919.77 2.29 1.005.03.02.068.019.096-.001a.087.087 0 0 0 .034-.09l-.082-3.141c-.018-.196-.048-.298-.18-.393a4.8 4.8 0 0 0-2.88-.871C2.614 33.774 0 36.58 0 40.22s2.612 6.448 5.787 6.448Zm39.801-10.51v-2.335h-1.663V46.67h1.663v-6.977c0-3.533 2.53-4.22 5.602-4.22v-1.627c-1.887 0-4.128.182-5.602 2.314Zm38.802 0v-2.335h-1.654V46.67h1.662v-6.977c0-3.533 2.533-4.22 5.602-4.22v-1.627c-1.89 0-4.119.182-5.61 2.314Zm-9.367-2.352c-1.857 0-3.352.594-4.534 1.823a6.248 6.248 0 0 0-1.77 4.55 6.254 6.254 0 0 0 1.784 4.574c1.18 1.19 2.728 1.799 4.632 1.799 2.341 0 4.246-1.07 5.307-2.796l-1.4-.83c-.676 1.244-2.05 2.082-3.883 2.082-2.58 0-4.485-1.558-4.8-4.014h10.608c.023-.316.047-.595.047-.756a6.606 6.606 0 0 0-1.666-4.5c-1.094-1.299-2.538-1.932-4.325-1.932Zm-4.655 5.62c.315-2.409 2.146-4.065 4.655-4.065a4.297 4.297 0 0 1 2.872 1.07c.82.708 1.3 1.705 1.474 2.995h-9.001ZM52.835 33.81h1.663v12.859h-1.663zm9.481 10.97-4.41-10.956h-1.763L61.36 46.67h1.908l5.22-12.845h-1.762zM52.835 30h1.663v1.677h-1.663zm14.107 26.792a1.738 1.738 0 0 0-.657-.143c-.678 0-1.062.61-1.062 1.243 0 .634.319 1.246 1.1 1.246a1.25 1.25 0 0 0 .651-.19l.045.547c-.242.099-.5.145-.76.137a1.659 1.659 0 0 1-1.21-.508 1.688 1.688 0 0 1-.471-1.232 1.65 1.65 0 0 1 .458-1.244 1.62 1.62 0 0 1 1.222-.495c.251.002.5.046.737.13l-.053.509Zm1.975-.639c.458-.016.9.165 1.22.496.318.331.483.783.455 1.243a1.696 1.696 0 0 1-.817 1.525 1.665 1.665 0 0 1-1.718 0 1.696 1.696 0 0 1-.817-1.525 1.647 1.647 0 0 1 .457-1.244c.32-.332.762-.511 1.22-.495Zm0 2.973c.71 0 1.03-.654 1.03-1.246 0-.591-.381-1.243-1.03-1.243-.648 0-1.032.61-1.032 1.243 0 .634.316 1.258 1.032 1.258v-.012Zm2.223-2.896h.57v.482c.213-.374.62-.591 1.046-.56.417-.01.795.25.937.646a1.178 1.178 0 0 1 1.02-.645c.84 0 1.144.547 1.144 1.27v2.132h-.607v-1.98c0-.411-.097-.926-.59-.926-.622 0-.866.61-.866 1.231v1.675h-.608v-1.98c0-.411-.097-.926-.59-.926-.621 0-.866.61-.866 1.231v1.675h-.607l.017-3.325Zm5.49 0h.59v.47a1.317 1.317 0 0 1 1.117-.547c.955 0 1.42.788 1.42 1.68 0 .892-.418 1.784-1.414 1.784a1.176 1.176 0 0 1-1.097-.535v1.826h-.607l-.01-4.678Zm1.583.42c-.657 0-.976.63-.976 1.248 0 .553.295 1.24.97 1.24s.923-.737.911-1.258c.012-.6-.245-1.23-.905-1.23Zm2.261-.185a2.097 2.097 0 0 1 1.085-.298c.944 0 1.324.47 1.324 1.374v1.377a5.49 5.49 0 0 0 .027.652h-.57v-.432a1.217 1.217 0 0 1-1.02.509c-.71 0-1.208-.298-1.208-1.035 0-.836.905-1.094 1.53-1.094h.645c0-.574-.206-.866-.813-.866-.347 0-.683.12-.955.336l-.045-.523Zm1.802 1.505h-.387c-.33 0-1.143.05-1.143.639a.591.591 0 0 0 .613.541.827.827 0 0 0 .657-.224.842.842 0 0 0 .26-.65v-.306Zm1.377-1.74h.59v.53c.22-.387.636-.617 1.078-.596.852 0 1.233.536 1.233 1.428v1.975h-.608v-1.722c0-.774-.168-1.154-.699-1.19-.69 0-.999.56-.999 1.368v1.538h-.607l.012-3.331Zm3.443 4.223a.878.878 0 0 0 .295.053c.542 0 .722-.758.722-.82a1.795 1.795 0 0 0-.115-.354l-1.135-3.102h.666l.885 2.75.905-2.75h.613l-1.214 3.396c-.227.64-.466 1.374-1.265 1.374a2.155 2.155 0 0 1-.416-.045l.059-.502Zm-57.664-3.988a2.097 2.097 0 0 1 1.085-.298c.943 0 1.327.47 1.327 1.374v1.377c-.005.218.003.435.023.652h-.569v-.432c-.243.33-.634.515-1.04.494-.711 0-1.21-.297-1.21-1.035 0-.836.906-1.094 1.53-1.094h.65c0-.574-.21-.866-.817-.866-.347.001-.683.12-.955.336l-.024-.508Zm1.804 1.505h-.389c-.33 0-1.144.05-1.144.639a.591.591 0 0 0 .613.541.83.83 0 0 0 .659-.224.845.845 0 0 0 .261-.65v-.306Zm1.38-1.74h.59v.53c.22-.387.637-.617 1.079-.596.852 0 1.232.536 1.232 1.428v1.975h-.601v-1.722c0-.774-.168-1.154-.696-1.19-.693 0-1.003.56-1.003 1.368v1.538h-.601V56.23Zm9.399.259v-.256h-.961v4.377h.95v-1.34l.064.04a1.26 1.26 0 0 0 1.902-.317c.33-.578.392-1.273.168-1.9a1.291 1.291 0 0 0-.892-.91 1.277 1.277 0 0 0-1.231.306Zm1.159 2.001a.557.557 0 0 1-.564.336.573.573 0 0 1-.521-.401c-.16-.37-.153-.79.017-1.154a.59.59 0 0 1 .566-.363c.23-.007.44.132.525.348.189.391.18.85-.023 1.234Zm-4.933-2.254c-.701.202-1.085.815-1.079 1.618 0 .627.189 1.171.76 1.487.54.312 1.194.355 1.77.116 1.179-.452 1.262-2.082.557-2.796-.557-.577-1.277-.627-2.008-.425Zm1.12 2.46a.752.752 0 0 1-1.132-.316 1.28 1.28 0 0 1 .027-1.077.68.68 0 0 1 .693-.395c.295 0 .77.211.77.922a.977.977 0 0 1-.357.88v-.015Zm8.524-.634a2.832 2.832 0 0 0-.195-1.065 1.365 1.365 0 0 0-.979-.812 2.105 2.105 0 0 0-1.017.027 1.44 1.44 0 0 0-1.029.964 2.14 2.14 0 0 0-.112.933 1.45 1.45 0 0 0 .97 1.377c.578.213 1.22.159 1.754-.148a1.3 1.3 0 0 0 .56-.667l-.716-.377c-.362.53-.722.693-1.138.526a.715.715 0 0 1-.424-.758h2.326Zm-2.338-.622a.677.677 0 0 1 .705-.642.605.605 0 0 1 .444.188.616.616 0 0 1 .169.454h-1.318Zm10.416.85c-.271.557-.61.652-1.047.533a.688.688 0 0 1-.457-.764h2.332a2.565 2.565 0 0 0-.218-1.115 1.335 1.335 0 0 0-.958-.768 2.17 2.17 0 0 0-1.005.024c-.45.107-.82.429-.99.863-.18.425-.219.898-.11 1.347.105.578.553 1.03 1.126 1.136.308.06.624.06.932 0 .501-.08.925-.418 1.117-.892l-.722-.363Zm-.823-1.486a.61.61 0 0 1 .456.182.62.62 0 0 1 .178.46h-1.3c0-.176.072-.344.197-.466a.643.643 0 0 1 .47-.182v.006Zm-4.313-.512a1.276 1.276 0 0 0-.92-.13 1 1 0 0 0-.628.344v-.276h-.96v3.286h.957v-1.811c.002-.137.01-.274.027-.41a.398.398 0 0 1 .295-.36.475.475 0 0 1 .53.113.72.72 0 0 1 .136.401c.018.63 0 1.261.015 1.892v.178h.91a.099.099 0 0 0 .016-.036v-2.53a.763.763 0 0 0-.378-.66Z"/><path d="M59.79 56.22h-1.103l-.466.744-.2-.297a18.396 18.396 0 0 1-.295-.443h-1.112l1.065 1.58-1.08 1.727h1.077l.59-.892.61.892h1.123l-1.203-1.737.994-1.573Z"/><path d="M61.32 55.528h-.958v.681h-.154l-.468.717h.604v1.888a.664.664 0 0 0 .607.71c.307.028.616.028.923 0v-.772h-.395c-.16 0-.183-.087-.183-.202v-1.63h.646v-.684h-.634l.012-.708Zm-8.467 3.212a.185.185 0 0 1-.146-.059.188.188 0 0 1-.049-.15v-1.626h.572s.324-.518.44-.696h-1.006v-.684h-.952v3.295a.7.7 0 0 0 .2.525.687.687 0 0 0 .519.204c.262 0 .808-.024.808-.024v-.788l-.386.003Zm9.649-2.415h.224v.577h.1v-.577h.224v-.104h-.548zm1.212-.105h-.104l-.171.545-.174-.544h-.147v.681h.1v-.515l.163.515h.115l.165-.52v.52h.103v-.681z"/></g></g></svg>