<svg xmlns="http://www.w3.org/2000/svg" viewBox="0 0 90 90" fill-rule="evenodd"><path fill="#fff" d="M0 0h90v90H0z"/><path fill="#21375a" fill-rule="nonzero" d="M78.014 26.97c-6.532 0-11.203 5.718-16.017 12.093C59.006 25.526 55.692 12 45.126 12s-13.892 13.526-16.93 27.076c-4.803-6.387-9.474-12.105-16.005-12.105C8.036 26.97 1 29.776 1 40.305v19.101c0 10.326 5.547 12.857 8.873 13.729h0C15.613 74.615 29.433 76 44.994 76s29.381-1.385 35.121-2.865h0C83.441 72.263 89 69.733 89 59.406V40.305c0-10.529-7.036-13.335-11.191-13.335m-32.683-9.001c6.328 0 8.741 12.416 12.103 27.314-3.686 4.513-7.6 8.154-12.103 8.154s-8.405-3.641-12.103-8.154c3.146-13.932 5.571-27.314 12.103-27.314M7.1 59.466V40.365c0-6.65 3.602-7.366 5.187-7.366 4.611 0 9.606 7.64 14.276 13.777-3.338 13.92-6.868 22.396-15.201 20.653-2.173-.585-4.214-1.958-4.214-7.903m16.354 9.682C27.187 65.22 29.505 59 31.342 52.41c3.854 4.023 8.309 7.055 13.832 7.055s9.966-3.032 13.832-7.055c1.789 6.59 4.142 12.81 7.829 16.797-6.448.585-14.204.943-21.613.943s-15.225-.358-21.673-.943m59.699-9.682c0 5.969-2.041 7.318-4.214 7.903-8.345 1.755-11.863-6.733-15.201-20.653 4.719-6.136 9.606-13.777 14.276-13.777 1.561 0 5.187.716 5.187 7.366l-.048 19.161z"/></svg>