<svg xmlns="http://www.w3.org/2000/svg" viewBox="0 0 90 90"><path fill="#FFF" d="M0 0h90v90H0z"/><path d="m47.577 24.097.002 2.554c0 2.247 1.755 4.085 3.98 4.241l.306.01c2.266 0 4.12-1.74 4.277-3.947l.01-.304-.002-2.552 5.146.002c3.788 0 6.859 3.045 6.859 6.801v6.801l.002 5.592-.04-.024c4.64 2.859 7.279 8.051 6.835 13.451-.445 5.4-3.897 10.1-8.944 12.176A14.672 14.672 0 0 1 51 66.57l.046.038H21.86c-3.788 0-6.859-3.045-6.859-6.801V30.902c0-3.756 3.07-6.801 6.859-6.801l5.14-.002.002 2.552c0 2.247 1.755 4.085 3.98 4.241l.306.01c2.266 0 4.12-1.74 4.277-3.947l.01-.304-.002-2.552 12.003-.002Zm12.862 18.707c-4.595 0-8.84 2.431-11.137 6.377a12.66 12.66 0 0 0 0 12.752c2.297 3.946 6.542 6.376 11.137 6.376 7.102 0 12.86-5.71 12.86-12.752 0-7.043-5.758-12.753-12.86-12.753Zm6-5.103H16.714l.002 22.107c0 2.687 2.1 4.914 4.805 5.09l.339.01h27.467l-.26-.311a14.358 14.358 0 0 1-.151-17.905c4.133-5.284 11.381-7.066 17.525-4.31v-4.68ZM31.29 19a2.56 2.56 0 0 1 2.572 2.55v5.101a2.561 2.561 0 0 1-2.572 2.55 2.561 2.561 0 0 1-2.572-2.55v-5.1A2.56 2.56 0 0 1 31.29 19Zm20.576 0a2.56 2.56 0 0 1 2.572 2.55v5.101a2.561 2.561 0 0 1-2.572 2.55 2.561 2.561 0 0 1-2.572-2.55v-5.1A2.56 2.56 0 0 1 51.865 19Z" fill="#3C495A"/><path d="M59.581 47.055c-.42 0-.77.3-.843.698l-.014.152v9.052a.85.85 0 0 0 .704.836l.153.014h6.3a.855.855 0 0 0 .852-.774.851.851 0 0 0-.699-.912l-.153-.014h-5.44v-8.202a.853.853 0 0 0-.706-.836l-.154-.014Z" fill="#17C666"/></svg>