<svg xmlns="http://www.w3.org/2000/svg" viewBox="0 0 90 90"><path fill="#FFF" d="M0 0h90v90H0z"/><path d="M75 58.745V72H41.409a26.454 26.454 0 0 1-22.953-13.255A26.382 26.382 0 0 1 15 47.275v-3.57a26.24 26.24 0 0 1 .918-5.41C19.141 26.88 29.541 19 41.382 19c11.84 0 22.24 7.88 25.463 19.294H52.48a13.225 13.225 0 0 0-11.071-5.996 13.225 13.225 0 0 0-11.071 5.996 13.157 13.157 0 0 0-2.215 7.196c0 3.787 1.62 7.196 4.213 9.63a13.165 13.165 0 0 0 9.073 3.625H75Zm0-16.88V55.12H50.482a13.212 13.212 0 0 0 4.158-9.63c0-1.244-.216-2.489-.54-3.625H75Z" fill="#FD366E"/></svg>