<svg viewBox="0 0 90 90" xmlns="http://www.w3.org/2000/svg"><g fill="none"><path fill="#FFF" d="M0 0h90v90H0z"/><path d="M28.666 54h-2.072c-.33 0-.608-.008-.835-.024a1.776 1.776 0 0 1-.589-.131 1.207 1.207 0 0 1-.435-.322 2.717 2.717 0 0 1-.377-.595l-.988-1.952H13.25L11.742 54H8l8.639-16.834h3.388L28.666 54Zm-6.873-6.167-3.484-7-3.483 7h6.967ZM47.254 54h-2.895c-.55 0-.997-.072-1.341-.214a2.12 2.12 0 0 1-.872-.667l-3.633-4.477h-4.245V54h-3.484V37.333c.44-.015.92-.028 1.438-.036.519-.007 1.052-.019 1.603-.035a110.236 110.236 0 0 1 3.205-.047c2.012-.001 3.674.146 4.986.44 1.313.294 2.392.83 3.242 1.606.942.89 1.414 2.096 1.414 3.62 0 .761-.102 1.433-.306 2.012a4.551 4.551 0 0 1-.873 1.511 5.01 5.01 0 0 1-1.367 1.083 8.687 8.687 0 0 1-1.791.727L47.254 54Zm-10.209-8.43c.518 0 1.04-.004 1.565-.012a12.484 12.484 0 0 0 1.495-.107 6.71 6.71 0 0 0 1.294-.3c.393-.135.714-.33.965-.586.22-.239.39-.486.506-.74.118-.255.177-.583.177-.982a2.117 2.117 0 0 0-.565-1.435 2.472 2.472 0 0 0-.87-.562 5.31 5.31 0 0 0-1.189-.3 12.212 12.212 0 0 0-1.519-.107c-.564-.007-1.185-.011-1.859-.011h-1.342c-.533 0-1.012.007-1.435.023v5.096c.423.015.902.023 1.435.023h1.342Zm18.994-5.523a4.57 4.57 0 0 0-2.542.75 7.206 7.206 0 0 0-1.906 1.775l-2.73-1.834a11.136 11.136 0 0 1 3.212-2.69C53.32 37.347 54.689 37 56.18 37c1.003 0 1.922.13 2.753.392.832.263 1.546.632 2.143 1.108a4.971 4.971 0 0 1 1.388 1.738c.33.683.494 1.444.494 2.285 0 .795-.145 1.493-.435 2.096a6.375 6.375 0 0 1-1.154 1.655c-.478.5-1.023.964-1.635 1.393-.612.428-1.24.857-1.883 1.285l-2.896 1.93h7.932V54H49.355v-3.071l5.766-3.858a229.2 229.2 0 0 1 1.624-1.083c.518-.341.973-.69 1.365-1.047.393-.358.706-.735.942-1.132a2.52 2.52 0 0 0 .353-1.309c0-.349-.09-.674-.27-.976a2.65 2.65 0 0 0-.73-.786 3.454 3.454 0 0 0-1.071-.512c-.408-.12-.84-.18-1.295-.18ZM75.668 54v-3.453h-10.12v-3.524l9.862-9.69h3.648v10.262H82v2.952h-2.942V54h-3.39Zm-6.519-6.405h6.52v-6.5l-6.52 6.5Z" fill="#0607FF"/></g></svg>