<svg xmlns="http://www.w3.org/2000/svg" viewBox="0 0 90 90" fill-rule="evenodd"><path fill="#fff" opacity="0" d="M0 0h90v90H0z"/><path fill="#1793d1" d="M44.992 0c-4.007 9.821-6.423 16.245-10.884 25.775 2.735 2.899 6.092 6.274 11.544 10.086-5.861-2.411-9.86-4.833-12.847-7.345C27.095 40.427 18.151 57.393 0 90c14.266-8.234 25.325-13.311 35.631-15.248a26.11 26.11 0 0 1-.677-6.109l.017-.457c.226-9.138 4.981-16.165 10.613-15.688s10.01 8.276 9.784 17.414c-.043 1.72-.237 3.374-.576 4.908C64.987 76.813 75.927 81.877 90 90l-7.617-14.097c-3.726-2.887-7.612-6.645-15.539-10.713 5.449 1.415 9.35 3.049 12.39 4.874C55.186 25.298 53.238 19.349 44.992 0h0z"/></svg>