<svg viewBox="0 0 90 90" xmlns="http://www.w3.org/2000/svg"><g fill="none"><path d="M1.963 40.51v-4.96a113.71 113.71 0 0 1 8.998-3.316v1.921c2.406-.78 4.849-1.484 7.327-2.11V30.17c2.6-.64 5.24-1.187 7.919-1.642v1.85c2.416-.42 4.858-.758 7.328-1.017v-1.83c2.612-.267 5.25-.445 7.916-.532v1.82a103.728 103.728 0 0 1 7.334 0V27c2.664.086 5.304.263 7.918.532v1.83c2.471.26 4.914.599 7.328 1.016v-1.847a110.33 110.33 0 0 1 7.919 1.644v1.878c2.477.62 4.92 1.324 7.327 2.11v-1.922a109.49 109.49 0 0 1 8.998 3.315v4.954a108.052 108.052 0 0 0-86.306 0h-.006Zm43.153-6.63a104.992 104.992 0 0 0-43.153 9.203v7.77h8.998v-4.486a3.665 3.665 0 0 1 7.327 0v4.486h7.919v-6.22a3.664 3.664 0 1 1 7.328 0v6.222h7.918v-7.171a3.663 3.663 0 1 1 7.326 0v7.171h7.919v-6.221a3.665 3.665 0 0 1 7.327 0v6.22h7.919v-4.487a3.663 3.663 0 1 1 7.326 0v4.486h8.997v-7.77a104.982 104.982 0 0 0-43.153-9.214l.002.01Z" fill="#FE0000"/><path d="m7.436 54 4.804 9.63h-1.925l-.963-1.998H3.908l-.932 1.997H1L5.759 54h1.677Zm52.759.135 6.62 6.789v-6.79h1.267v9.403l-1.17.02-6.713-6.842v6.836l-1.348-.02.006-9.396h1.338ZM20.639 55.16c1.07 0 1.265.73 1.3.996l.007.07.001.025v2.403a1.118 1.118 0 0 1-1.187 1.12h-1.32l-.005.001 3.214 2.828h-2.256l-2.857-2.857h-1.54V62.6h-1.585v-7.44Zm57.83.045v1.256h-5.655v1.678h3.34v1.219h-3.34v1.983h5.71v1.262h-7.31l-.042-7.398h7.298Zm-25.783-.388 4.045 7.784h-1.95l-.7-1.482h-4.705l-.679 1.482H46.78l3.979-7.784h1.927Zm-15.065.353 5.37 4.958V55.17h1.263v7.431h-1.053l-5.506-5.07v5.07H36.44v-7.43h1.18Zm50.874.022v1.24h-3.224v6.17h-1.675v-6.17h-3.137v-1.24h8.036Zm-55.434-.022v1.274h-5.656v1.654h3.339v1.22h-3.34v1.951h5.72v1.33H25.77l-.017-7.429h7.308Zm-26.477.722-2.085 4.472h4.242l-2.157-4.472Zm45.11.172-1.721 3.758v.002h3.497l-1.775-3.76Zm-31.775.376h-3.92v2.085h3.871a.558.558 0 0 0 .585-.597v-.844c-.003-.086-.041-.644-.536-.644Z" fill="#FFF"/></g></svg>