<svg xmlns="http://www.w3.org/2000/svg" viewBox="0 0 90 90"><path d="M0 0h90v90H0z"/><path d="M67 32.887V50.24c0 4.81-.846 8.419-2.709 11.168-1.862 2.577-4.063 4.467-6.433 5.67-2.708 1.375-5.586 2.062-8.634 2.406L40.93 70c-4.57 0-8.634-1.203-12.02-3.436C25.693 64.33 24 60.722 24 55.395c0-4.81 1.354-8.247 4.402-10.31 3.047-2.233 7.28-3.607 12.189-4.295l5.755-.687c2.54-.344 10.327-1.374 10.327-6.357 0-2.406-1.354-4.296-4.232-5.155-2.034-.6-4.145-.89-6.264-.859a19.067 19.067 0 0 0-5.586.86c-1.693.343-3.048 1.202-3.894 2.576h-8.973c-1.693 0-1.693-1.202-1.354-1.718a11.63 11.63 0 0 1 4.232-5.326C33.988 21.374 38.898 20 45.331 20c7.28 0 12.866 1.203 16.421 3.436C65.307 25.67 67 28.763 67 32.886Zm-10.327 9.622-2.031 1.03c-1.862.86-4.402 1.719-7.618 2.406l-4.74 1.03c-2.71.688-4.571 1.547-5.926 2.75-1.693 1.546-1.862 3.608-1.862 5.327 0 2.405.847 4.295 2.37 5.67 1.524 1.202 3.555 1.89 6.264 1.89 4.232 0 7.449-1.203 9.988-3.437 2.54-2.233 3.725-5.498 3.725-9.45V42.51h-.17Z" fill="#FFF"/></svg>