<svg xmlns="http://www.w3.org/2000/svg" viewBox="0 0 90 90" fill-rule="evenodd"><path fill="#fff" opacity="0" d="M0 0h90v90H0z"/><path fill="#ff8400" d="M44.952 69.28h-.011c-2.091 0-4.113-.279-6.051-.754-10.853-2.657-18.903-12.223-18.903-23.634 0-.544.046-1.068.08-1.6.807-12.801 11.618-22.941 24.874-22.941 13.781 0 24.95 10.952 24.95 24.461 0 .85-.042 1.688-.13 2.515-1.249 12.315-11.877 21.954-24.81 21.954M45.011 1C20.147 1 0 20.707 0 45.002S20.147 89 45.011 89a45.29 45.29 0 0 0 27.285-9.08C76.957 87.542 90 89 90 89V45.002C90 20.707 69.846 1 45.011 1"/></svg>