<svg viewBox="0 0 90 90" xmlns="http://www.w3.org/2000/svg"><g fill="none" fill-rule="evenodd"><path fill="#FFF" d="M0 0h90v90H0z"/><g fill-rule="nonzero"><path d="M75.308 19.327a4.423 4.423 0 0 0-4.776.943L54.14 36.45v8.785L71.704 27.92v28.865H42.525l-3.365-5.378L27.414 63h46.222C76.046 63 78 61.071 78 58.693V23.334c0-1.757-1.064-3.321-2.692-4.007Z" fill="#8440C7"/><path d="m27.22 56.785 19.343-19.093v17.83h6.296V33.084a4.3 4.3 0 0 0-2.692-3.986 4.423 4.423 0 0 0-4.776.943L12 63h13.57l6.295-6.215H27.22Z" fill="#2C2236"/></g></g></svg>