<svg viewBox="0 0 90 90" xmlns="http://www.w3.org/2000/svg"><g fill="none"><circle fill="#007377" cx="45" cy="45" r="45"/><path d="M42.46 68.151v15.37A2.548 2.548 0 0 0 45 86.063a2.548 2.548 0 0 0 2.54-2.54V71.644l-5.08-3.493Z" fill="#FFF"/><path d="M30.868 52.94c0 2.73 2.636 5.049 3.747 5.938 0 0 .032.032 16.038 11.083v8.352c1.143-.317 8.51-2.826 8.51-7.78 0-2.954-3.048-5.43-3.969-6.13C55.1 64.34 42.27 55.48 39.38 53.48v-8.352c-.572.159-8.511 2.668-8.511 7.812Z" fill="#FFF"/><path fill="#FFF" d="M42.46 41.602v10.194l5.08 3.493V45.127z"/><path d="M30.868 26.39c0 2.731 2.636 5.05 3.747 5.939 0 0 .032.032 16.038 11.083v8.352c1.143-.317 8.51-2.826 8.51-7.78 0-2.954-3.048-5.43-3.969-6.13-.095-.063-12.925-8.923-15.815-10.924v-8.352c-.572.159-8.511 2.668-8.511 7.812Zm19.785-1.905c4.668-1.016 7.145-2.287 7.494-3.811.286-1.27-.603-2.287-2.223-3.62-1.143-.953-1.746-2.001-5.24-1.27v8.7h-.031Z" fill="#FFF"/><path d="M40.681 8.416a4.357 4.357 0 0 1 4.35-4.351 4.357 4.357 0 0 1 4.351 4.35c0 1.43-.698 2.732-1.778 3.494V28.74l-5.081-3.525V11.877a4.123 4.123 0 0 1-1.842-3.461Z" fill="#FFF"/></g></svg>