<svg xmlns="http://www.w3.org/2000/svg" viewBox="0 0 90 90"><path fill="#FFF" d="M0 0h90v90H0z"/><path fill="#263238" d="M74.26 19.94L51.52 6.66a13.05 13.05 0 00-6.82-1.65c-2.39-.06-4.75.5-6.86 1.65L15.45 19.94A14.69 14.69 0 009 31.74v26.52a14.69 14.69 0 006.5 11.8l22.55 13.28a12.93 12.93 0 006.68 1.65c2.33.08 4.64-.49 6.67-1.65L74.14 70.1A15.85 15.85 0 0081 58.3V31.78a14.4 14.4 0 00-6.74-11.84zM61.11 58.3c-.2.14-.46.2-.71.18a1.9 1.9 0 01-1.47-.9l-9.01-18.2-9.02 18.16c-.3.53-.86.87-1.47.9-.18 0-.57 0-.71-.18a1.67 1.67 0 01-.67-2.27L48.23 35.8l-3.44-6.87-14.25 28.71a1.61 1.61 0 11-2.87-1.46L43.3 24.65c.22-.6.83-.98 1.47-.9.61 0 1.17.35 1.46.9l3.7 7.67 1.82 3.42 10.18 20.4c.35.82-.01 1.77-.82 2.16z"/></svg>