<svg viewBox="0 0 90 90" xmlns="http://www.w3.org/2000/svg"><path d="M8.295 45.682H6.012c-.406 0-.81.154-1.203.432-.391.292-.608.64-.675 1.043l-.19 1.21c-.08.543.082 1.044.5 1.475.406.445.892.668 1.433.668h1.607l.81-4.828Zm4.35-2.615L11.037 53H3.931c-1.094 0-2.026-.39-2.783-1.182C.392 51.038 0 50.078 0 48.952c0-.167.014-.362.054-.598l.297-1.865c.581-2.142 1.865-3.2 3.837-3.2H8.74c.094-.611-.054-1.168-.46-1.683-.405-.514-.905-.765-1.513-.765h-4.35l.378-2.35h5.958c1.054 0 1.973.389 2.743 1.182.77.779 1.161 1.725 1.161 2.81.014.264 0 .459-.013.584m14.847-4.605-.406 2.351H20.9c-1.08 0-1.716.543-1.905 1.642l4.837 3.033c1.27.793 1.905 1.933 1.905 3.422 0 1.308-.473 2.365-1.405 3.144-.757.626-1.608.946-2.527.946h-8.416l.378-2.476h6.187c1.108 0 1.77-.585 1.973-1.753l-4.904-2.81c-1.256-.724-1.878-1.837-1.878-3.325 0-1.197.365-2.184 1.094-2.963.73-.78 1.676-1.183 2.824-1.183h8.43v-.028Zm14.077 0-1.851 11.24c-.162.905-.622 1.684-1.378 2.324-.757.64-1.594.974-2.486.974H32.03c-1.094 0-2.026-.39-2.77-1.14-.756-.766-1.12-1.712-1.12-2.839 0-.222.026-.459.053-.695l1.58-9.85h3.919l-1.527 9.683a1.65 1.65 0 0 0-.04.361c0 .585.189 1.058.58 1.433.392.376.865.557 1.432.557 1.054 0 1.676-.557 1.851-1.683l1.621-10.365h3.959Zm13.482 0-.405 2.351h-5.593c-1.08 0-1.716.543-1.905 1.642l4.836 3.033c1.27.793 1.905 1.933 1.905 3.422 0 1.308-.473 2.365-1.405 3.144-.756.626-1.607.946-2.526.946h-8.416l.378-2.476h6.187c1.108 0 1.77-.585 1.959-1.753l-4.904-2.81c-1.256-.724-1.878-1.837-1.878-3.325 0-1.197.365-2.184 1.108-2.963.73-.78 1.675-1.183 2.824-1.183h7.835v-.028Zm10.74 0-.405 2.351h-3.959l-1.161 7.332c0 .125-.014.236-.014.362 0 .542.19 1.015.595 1.405.391.39.85.584 1.378.584h1.58l-.378 2.476h-3.202c-1.094 0-2.026-.39-2.77-1.182-.756-.78-1.134-1.74-1.134-2.866 0-.25.027-.487.054-.724l2-12.2h3.863l-.392 2.448h3.945v.014Zm12.226 1.155c-.77-.765-1.689-1.155-2.77-1.155h-3.809c-.919 0-1.756.293-2.5.863a3.557 3.557 0 0 0-1.35 2.267L66.534 48.2c-.04.237-.054.487-.054.724 0 1.127.378 2.087 1.135 2.866.756.779 1.675 1.182 2.77 1.182h3.755c.932 0 1.783-.334 2.54-1.001.756-.668 1.202-1.475 1.364-2.421l1.08-6.427a3.95 3.95 0 0 0 .068-.724 3.856 3.856 0 0 0-1.175-2.782Zm-1.662 3.506-.932 5.648c-.189 1.168-.85 1.753-1.945 1.753-.554 0-1.013-.181-1.392-.543-.378-.362-.513-.807-.513-1.377 0-.125.04-.417.04-.417l.906-5.649c.175-1.112.783-1.669 1.81-1.669.608 0 1.392.097 1.824.529.419.445.297 1.099.202 1.725ZM90 38.463l-.392 2.35h-2.296c-1.122 0-1.77.57-1.946 1.712L83.772 53h-3.89l1.783-11.324a3.499 3.499 0 0 1 1.337-2.31c.757-.598 1.594-.904 2.513-.904H90Z" fill="#0052A4"/></svg>