<svg xmlns="http://www.w3.org/2000/svg" viewBox="0 0 90 90"><path fill="#FFF" d="M0 0h90v90H0z"/><circle cx="45" cy="45" r="39" fill="#252437"/><path fill="#656FFF" d="M42.07 45.82L27.1 66.15c-.26.35 0 .85.45.85h4.04c.17 0 .33-.08.44-.22l15.43-20.96a.53.53 0 000-.64L45 41.84 32.03 24.22a.55.55 0 00-.44-.22h-4.04c-.45 0-.7.5-.44.85l14.96 20.33c.14.2.14.45 0 .64z"/><path fill="#F55E6E" d="M49.94 41.24c.22.3.67.3.89 0l12.06-16.39a.54.54 0 00-.44-.85h-4.04a.55.55 0 00-.44.22L47.92 37.87a.53.53 0 000 .63l2.02 2.74zm.89 8.52a.55.55 0 00-.89 0l-2.02 2.74a.53.53 0 000 .63l10.05 13.65c.1.14.27.22.44.22h4.04c.45 0 .7-.5.44-.85l-12.06-16.4z"/></svg>