<svg viewBox="0 0 90 90" xmlns="http://www.w3.org/2000/svg"><g fill="none" fill-rule="evenodd"><path fill="#FF176B" d="M0 0h90v90H0z"/><path d="m55.582 58.028 6.396 11.136H51.926l-4.827-8.405a3.285 3.285 0 0 1 0-3.281l5.653-9.846a3.273 3.273 0 0 1 1.19-1.2 3.25 3.25 0 0 1 1.627-.442h9.705l5.024 8.75H57.463a2.182 2.182 0 0 0-1.871 1.106 2.211 2.211 0 0 0-.007 2.182h-.003ZM43.029 60.76l-4.827 8.405H28.144l6.398-11.136a2.211 2.211 0 0 0-.796-2.985 2.182 2.182 0 0 0-1.082-.303H19.83l5.028-8.75h9.704a3.256 3.256 0 0 1 2.818 1.642l5.653 9.846a3.284 3.284 0 0 1 0 3.281h-.003Zm-6.258-35.788 6.415 11.17a2.197 2.197 0 0 0 1.889 1.087 2.183 2.183 0 0 0 1.889-1.087l6.396-11.136 5.027 8.75-4.83 8.405a3.268 3.268 0 0 1-2.818 1.64H39.43a3.246 3.246 0 0 1-1.627-.441 3.267 3.267 0 0 1-1.19-1.199l-4.868-8.439 5.027-8.75ZM73.084 51.67 57.251 24.11a14.03 14.03 0 0 0-5.166-5.225A13.94 13.94 0 0 0 45.001 17a13.95 13.95 0 0 0-7.085 1.885 14.039 14.039 0 0 0-5.167 5.224l-15.83 27.56a14.133 14.133 0 0 0 0 14.222 14.042 14.042 0 0 0 5.168 5.225A13.958 13.958 0 0 0 29.174 73h31.658a13.95 13.95 0 0 0 7.085-1.885 14.037 14.037 0 0 0 5.167-5.224 14.147 14.147 0 0 0 0-14.222Z" fill="#FFF" fill-rule="nonzero"/></g></svg>