<svg xmlns="http://www.w3.org/2000/svg" viewBox="0 0 90 90" fill-rule="evenodd"><path fill="#fff" opacity="0" d="M0 0h90v90H0z"/><path fill="#006ebe" fill-rule="nonzero" d="M32.519 39.596s-20.955 4.147-20.06 13.802c.863 9.208 30.573 10.569 30.573 10.569s-1.015.029-2.725.033h-.673c-9.627-.015-36.442-.86-37.251-9.804-1.14-12.62 30.136-14.6 30.136-14.6zm56.686 2.042c-.001-.004 8.838 16.834-32.392 17.099-25.597.164-34.888-7.189-28.555-14.596l.197-.224s-.05.058-.13.167l-.075.105c-1.235 1.774-6.471 11.622 29.573 11.484 35.789-.129 31.57-13.487 31.387-14.022l-.004-.013zm-51.453-.892c-2.427 2.175-2.236 3.288-.567 4.197 1.768.956 6.841 1.132 6.841 1.132h0l2.312 4.433c-5.591.058-14.237-1.221-15.246-4.772-.923-3.254 6.661-4.99 6.661-4.99zm43.57-5.859c.409 10.215-25.218 10.728-28.808 10.749l-.201.001h-.137-.078 0s20.209-2.944 19.307-10.823c-.933-8.165-23.938-8.623-24.867-8.638h-.029 0s34.375-2.164 34.812 8.712zm-42.903 1.159c5.81.018 13.984.352 14.49 3.757.445 3.033-6.47 4.922-6.47 4.922 1.347-2.424 1.603-3.632.395-4.397-1.41-.914-7.288-.525-7.288-.525h0l-1.7-3.758h0zm16.776 5.128l.013-.012.015-.014.047-.045c.898-.89 9.067-9.768-23.446-8.837C6.576 32.986.128 41.29.002 41.456 0 41.458 6.485 30.207 32.843 29.521c36.515-.951 23.178 11.448 22.351 11.653z"/></svg>