<svg viewBox="0 0 90 90" xmlns="http://www.w3.org/2000/svg"><g fill="none" fill-rule="evenodd"><path d="M45 1C20.7 1 1 20.7 1 45s19.7 44 44 44 44-19.7 44-44S69.3 1 45 1Z" fill="#000" fill-rule="nonzero"/><path d="M45 3.378c22.987 0 41.622 18.635 41.622 41.622S67.987 86.622 45 86.622 3.378 67.987 3.378 45 22.013 3.378 45 3.378Z" fill="#FFF600" fill-rule="nonzero"/><path d="m50.992 55.274 12.586 21.574A36.695 36.695 0 0 1 45 81.865a36.695 36.695 0 0 1-18.578-5.016l12.585-21.575A11.837 11.837 0 0 0 45 56.892c2.185 0 4.233-.59 5.992-1.618ZM45 36.676a8.324 8.324 0 1 1 0 16.648 8.324 8.324 0 0 1 0-16.648Zm18.293-23.69C74.389 19.342 81.865 31.298 81.865 45v.165l-24.973-.112V45a11.89 11.89 0 0 0-5.99-10.327l12.39-21.686Zm-36.586 0L39.1 34.674A11.888 11.888 0 0 0 33.11 45v.052l-24.973.113V45c0-13.703 7.475-25.66 18.571-32.013Z" fill="#000"/></g></svg>