<svg viewBox="0 0 90 90" xmlns="http://www.w3.org/2000/svg"><path d="M15.971 45.952c0 1.299-.312 2.436-.946 3.412-.624.976-1.52 1.73-2.687 2.264-1.157.534-2.506.795-4.045.795H3.442l1.62.654-.664 3.402H0l3.1-15.518h6.56c2.013 0 3.563.432 4.66 1.308 1.097.876 1.65 2.103 1.65 3.683Zm-4.438.373c0-.634-.211-1.107-.634-1.43-.423-.321-1.026-.472-1.811-.472H4.116l2.456.996-.705 3.542h2.617c.976 0 1.72-.231 2.254-.684.533-.453.795-1.107.795-1.952Zm16.444 6.682-.714 3.482H15.478l3.11-15.528h4.388L20.772 52l-2.476 1.006zM45.72 56.49l-4.368-.011-.413-2.003 2.466-1.006-9.289-.01-1.801 3.019h-4.64l9.953-15.518h4.328l3.764 15.528Zm-5.656-6.26-1.047-5.032-2.969 5.031h4.016Zm21.626-9.27-7.96 10.024-1.087 5.505h-4.387l1.107-5.615-3.945-9.913h4.418l1.861 4.72-1.056 3.462 6.602-8.182h4.448zm12.721 3.392H63.905l2.475 1.007-.312 1.61h6.894l-.644 3.28h-8.675l1.62.655h.01l-.422 2.184h8.141l-.704 3.391H59.839l3.11-15.528h12.157zm11.302 7.478 2.637 4.66h-4.59l-1.942-3.473 1.62-.654h-4.206l-.825 4.126h-4.388l3.1-15.518h6.631c1.983 0 3.523.433 4.61 1.308 1.097.876 1.64 2.083 1.64 3.633 0 1.42-.372 2.647-1.127 3.673-.745 1.017-1.802 1.772-3.16 2.245Zm-.141-5.505c0-.634-.211-1.107-.644-1.43-.433-.321-1.027-.472-1.791-.472h-4.982l2.476 1.006-.725 3.542h2.617c.976 0 1.73-.231 2.264-.684.523-.463.795-1.117.785-1.962ZM28.48 62.235l-9.57 9.3h2.576v-.01h5.465l-.715 3.481H12.338l.554-2.747 7.85-7.638 4.085-1.66h-9.852l.684-3.483h13.375zm17.612 3.775c0 1.77-.413 3.37-1.228 4.79-.815 1.419-1.962 2.526-3.442 3.33-1.469.796-3.15 1.198-5.021 1.198-1.57 0-2.929-.291-4.096-.865-1.158-.574-2.053-1.379-2.687-2.415-.634-1.037-.946-2.214-.946-3.553 0-1.771.412-3.371 1.227-4.79.816-1.42 1.963-2.526 3.442-3.331 1.47-.795 3.15-1.198 5.022-1.198 1.57 0 2.929.292 4.096.866 1.157.573 2.053 1.378 2.687 2.415.624 1.036.946 2.224.946 3.552Zm-4.438.271c0-1.047-.322-1.892-.966-2.516-.644-.624-1.54-.946-2.697-.946-.977 0-1.832.242-2.577.735-.744.483-1.308 1.147-1.71 1.962-.403.815-.594 1.721-.594 2.717 0 1.047.322 1.892.966 2.516.644.634 1.54.946 2.697.946.976 0 1.831-.241 2.576-.734a4.843 4.843 0 0 0 1.711-1.963 6.248 6.248 0 0 0 .594-2.717Zm22.593-6.793-3.1 15.528h-3.613l-6.128-10.063.593 3.522-1.298 6.541h-4.297l3.1-15.528h3.612l5.123 8.514 1.71-8.514h4.298zm13.707 3.392H67.457l2.476 1.006-.312 1.61h6.894l-.644 3.28h-8.675l1.62.655h.01l-.423 2.184h8.142l-.705 3.391H63.381l3.11-15.528h12.157zM64.81 36.12l.987-4.74h6.49c6.633 0 9.582-3.03 10.699-8.826.523-2.697.503-8.554-8.162-8.554H58.682c.08.09.412.453.332 1.288-.04.413-.141.554-.292.835-.151.292-.171.353-.201.443-.01.03-.05.121-.03.191.03.07.14.101.15.272.01.212-.241.634-.312.755-.07.12-.231.362-.362.443-.231.13-.302.08-.382.201-.09.13-.121.13-.252.543-.05.151-.06.333-.07.463 0 .02.01.04.03.05.463.182 1.67.615 1.962 1.108L55.18 21.92c.574-.07 1.198-.14 1.752-.211.754-.09 1.992-.222 2.385-.222.392 0 .875.101 1.016.121.473.06.906.08 1.42.181.512.101.653.282.754.353.02.01.12.1.12.1.635-.04 1.6-.11 1.812-.12.1-.01.322-.02.362-.03 1.963-.252 3.04-1.188 3.976-1.762 1.036-.634 2.596-1.147 3.713-1.177 1.44-.04 2.476.2 3.17.835.695.624.956 1.46.685 2.717-.272 1.208-.655 1.761-1.55 2.325-.896.553-1.872.735-3.04.624-1.942-.181-3.673-1.389-4.357-1.781-.584-.343-1.399-.695-2.305-.775-.09-.01-.352-.01-.533 0-.06 0-.674.05-1.147.08-.06 0-.111.07-.091.131.03.12.191.533-.13.604-.403.08-.655-.121-1.027-.03-.302.07-.604.09-1.107.01-.524-.08-.795-.453-.987-.453-.09 0-.13.06-.1.201.11.393.251 1.57.292 2.365.04.745-.08 1.328-.08 1.63 0 .121 0 .222.07.222.241.01.291-.373.352-.554.07-.18.201-.443.221-.473l.302-.533s.1-.191.222-.161c0 0 .301.07.241.382-.12.584.08.826.433.564 0 0 .01 0 .15-.11.122-.091.212-.444.524-.333.13.06.383.302.13.634-.01.02-.01.05.031.07.423.272-.03.775.03 1.087.06.292.131 1.087-.513 1.107 0 0-.292.01-.483.04-.715.061-.956.323-.956.323-.493.443-1.057.704-1.44.754-.442.06-.673-.14-.935-.603-.423-.755-.584-1.45-.674-2.224-.01-.121-.192-.111-.212.01-.13.905-.292 1.57-.593 2.183-.534 1.067-.091 2.748.432 3.895.423.936.886 2.234.896 2.244l6.4-.04ZM26.055 14l-6.41 9.913 8.503.01-1.399-.513 1.208-2.023.574 2.858.684 3.19L7.417 31.37l7.397.01-3.07 4.74h7.387l2.838-4.74h8.061l.986 4.74H37.7L33.069 14h-7.014Zm31.127 9.842s-3.814 1.369-5.233 1.923c-1.419.553-1.842.895-2.244 1.288-.483.463-.554 1.187-.574 1.58-.05.795.232 1.49-.594 2.475-.744.886-.785 2.063-.996 2.768-.201.684-1.036 1.932-1.218 2.244h-6.33l2.053-9.973-5.867.01 12.399-2.244h-6.069l.886-4.307h-8.061L34.166 14h20.38c-.04.12-.232.513-.101.946.02.07.01.201 0 .242-.11.382-.131.442-.252.704-.11.242.04.463.02.694-.01.232-.322.534-.352.886-.03.282.02.664.11 1.077.02.1.031.332.031.392 0 .01-.01.01-.01.02-.161.06-.574.202-1.027.322-.815.161-1.79.252-2.596.715-.211.12-.715.483-.996 1.177-.202.473-.282 1.228.271 1.862l1.943 1.66 5.595-.855Z" fill="#219ED8"/></svg>