<svg xmlns="http://www.w3.org/2000/svg" viewBox="0 0 90 90" fill-rule="evenodd" xmlns:v="https://vecta.io/nano"><path fill="#fff" d="M0 0h90v90H0z"/><path fill="#000" fill-rule="nonzero" d="M10.286 77.368c1.76 0 3.253.615 4.484 1.848s1.845 2.713 1.845 4.445c0 1.761-.613 3.258-1.845 4.49S12.046 90 10.286 90c-1.73 0-3.209-.617-4.44-1.849A6.12 6.12 0 0 1 4 83.661a6.07 6.07 0 0 1 1.846-4.445c1.231-1.233 2.711-1.848 4.44-1.848zm69.385 0c1.76 0 3.253.615 4.484 1.848S86 81.929 86 83.661c0 1.761-.613 3.258-1.845 4.49S81.431 90 79.671 90c-1.73 0-3.209-.617-4.44-1.849a6.12 6.12 0 0 1-1.846-4.49 6.07 6.07 0 0 1 1.846-4.445c1.231-1.233 2.711-1.848 4.44-1.848zm-6.286 5.526v1.579H16.615v-1.579h56.769zM41.067 22.105c2.924 0 5.669.562 8.235 1.685s4.937 2.808 7.118 5.055V23.38h12.234v49.555H56.419v-5.237c-2.39 2.308-4.783 3.97-7.185 4.986s-5.006 1.527-7.809 1.527c-6.298 0-11.744-2.483-16.338-7.447s-6.894-11.137-6.894-18.515c0-7.65 2.225-13.921 6.672-18.812s9.844-7.331 16.203-7.331zm2.492 11.478c-3.78 0-6.925 1.359-9.424 4.077s-3.751 6.201-3.751 10.453c0 4.282 1.273 7.804 3.818 10.567s5.678 4.145 9.401 4.145c3.844 0 7.027-1.359 9.556-4.076s3.799-6.278 3.799-10.682c0-4.31-1.266-7.803-3.799-10.476s-5.728-4.008-9.599-4.008zM43.402 0c1.76 0 3.253.615 4.484 1.848s1.845 2.713 1.845 4.445c0 1.761-.613 3.258-1.845 4.49s-2.725 1.849-4.484 1.849c-1.73 0-3.209-.617-4.44-1.849a6.12 6.12 0 0 1-1.846-4.49 6.07 6.07 0 0 1 1.846-4.445C40.192.615 41.672 0 43.402 0z"/></svg>