<svg viewBox="0 0 90 90" xmlns="http://www.w3.org/2000/svg"><g fill="none"><path fill="#F7991C" d="M0 0h90v90H0z"/><path d="m45 60.995 35-22.227v6.003L45 67 10 44.771v-6.003l35 22.227Zm-.01-27.79c7.884 0 14.828 4.086 18.895 10.289h-.006l-5.152 3.274c-7.75-10.49-21.927-12.306-31.748-4.032-.288.242-.566.492-.84.746l-.033-.004c4.066-6.193 11.007-10.274 18.884-10.274Zm0 10.203c4.292 0 8.086 2.175 10.37 5.498h-.001l-4.97 3.158c-2.318-3.243-5.694-5.288-9.454-5.288-2.286 0-4.428.758-6.28 2.078 2.29-3.294 6.065-5.446 10.335-5.446Zm-23.656-8.963c-1.26 1.012-2.663 2.464-3.747 3.623C23.483 28.943 33.674 23 44.99 23c11.476 0 21.572 6.002 27.416 15.09v-.003l-5.335 3.377-.072-.112c-10.86-15.396-31.254-18.501-45.664-6.907Z" fill="#FFF"/></g></svg>