<svg viewBox="0 0 90 90" xmlns="http://www.w3.org/2000/svg"><g fill="none"><path fill="#509E2F" d="M0 0h90v90H0z"/><path d="M64.527 63.378a2.81 2.81 0 0 1 2.797 2.811A2.81 2.81 0 0 1 64.527 69a2.81 2.81 0 0 1-2.797-2.81 2.81 2.81 0 0 1 2.797-2.812Zm-16.683-42.25a2.013 2.013 0 0 1 2.591 1.188 2.027 2.027 0 0 1-1.181 2.604c-10.537 3.944-19.079 11.701-24.032 21.833a1.546 1.546 0 0 0-.065 1.242c.162.447.477.795.91.991.824.382 1.8.044 2.19-.74 6.19-12.595 18.135-21.005 31.967-22.487a5.77 5.77 0 0 1 4.444 1.449 5.777 5.777 0 0 1 1.897 4.27c0 2.953-2.179 5.394-5.051 5.699-6.721.708-13.04 3.802-17.778 8.705a1.75 1.75 0 0 0-.498 1.438c.032.294.173.838.747 1.209.673.436 1.54.349 2.07-.207 4.89-5.11 11.448-7.92 18.483-7.92 2.081 0 4.151.25 6.157.751a5.637 5.637 0 0 1 4.076 3.966c.574 2.015.054 4.107-1.388 5.6-1.409 1.47-3.48 2.08-5.387 1.601a14.266 14.266 0 0 0-3.469-.425c-2.298 0-4.477.534-6.504 1.58a1.63 1.63 0 0 0-.856 1.177 1.72 1.72 0 0 0 .412 1.449c.51.566 1.344.708 2.07.337 2.85-1.449 6.32-1.536 9.236-.25a2.025 2.025 0 0 1 1.04 2.67 2.007 2.007 0 0 1-2.656 1.045 6.8 6.8 0 0 0-5.799.152 5.867 5.867 0 0 1-2.645.632c-1.582 0-3.143-.642-4.238-1.874a5.748 5.748 0 0 1-1.377-4.891 5.684 5.684 0 0 1 2.981-4.042c3.892-2.016 8.553-2.55 12.791-1.482.52.13 1.095-.054 1.507-.49a1.683 1.683 0 0 0 .412-1.667 1.607 1.607 0 0 0-1.17-1.144 21.853 21.853 0 0 0-5.193-.632c-5.93 0-11.458 2.375-15.577 6.679-1.865 1.939-4.867 2.277-7.154.806a5.723 5.723 0 0 1-2.58-4.162 5.815 5.815 0 0 1 1.604-4.717c5.398-5.59 12.585-9.108 20.249-9.914.813-.088 1.442-.818 1.442-1.667a1.68 1.68 0 0 0-1.876-1.678c-12.455 1.34-23.208 8.912-28.78 20.253-1.365 2.778-4.65 3.933-7.479 2.637a5.851 5.851 0 0 1-3.035-3.323 5.615 5.615 0 0 1 .238-4.39c5.431-11.08 14.753-19.557 26.254-23.86Zm-25.517 9.294a2.014 2.014 0 0 1 2.84-.24 2.04 2.04 0 0 1 .239 2.855 51.905 51.905 0 0 0-6.59 10.001 2.01 2.01 0 0 1-2.71.893c-.998-.5-1.388-1.721-.89-2.723a56.341 56.341 0 0 1 7.111-10.786Z" fill="#FFF"/></g></svg>