<svg viewBox="0 0 90 90" xmlns="http://www.w3.org/2000/svg"><g fill="none"><path fill="#FC0A16" d="M0 0h90v90H0z"/><path d="M74.417 38.825c-.023-.105-.047-.198-.07-.303-.106-.43-.223-.873-.4-1.28-1.02-2.305-2.661-3.923-5.206-4.47-1.407-.303-2.756.081-4.046.64-2.673 1.153-5.23 2.55-7.845 3.83-2.04.99-4.069 2.014-6.098 3.038-.047.023-.094.047-.14.058l-1.853-1.303c0-.245.07-.57.176-1.071.621-2.782 1.254-5.553 1.876-8.335.457-2.06.973-4.11 1.337-6.181.398-2.258-.54-4.063-2.228-5.495-1.947-1.664-4.257-2.002-6.732-1.7-.727.094-1.419.234-2.099.467-2.04.71-3.436 2.747-3.623 4.865-.176 1.956.281 3.795.563 5.68.445 2.911.926 5.81 1.407 8.72.14.861.305 1.723.457 2.584.035.175.047.326.047.489l-1.677 1.49c-.211-.058-.48-.21-.891-.454a2647.021 2647.021 0 0 0-12.49-7.124c-4.631-2.62-9.357.745-10.178 4.994-.305 1.548-.258 3.096.375 4.586.786 1.863 2.299 2.91 4.128 3.597 1.665.629 3.436.78 5.172 1.036 3.74.57 7.481 1.13 11.234 1.688.023 0 .058.012.082.012l.82 2.072c-.152.232-.515.43-.75.64-1.29 1.164-2.627 2.281-3.905 3.457-2.38 2.2-4.902 4.237-7.212 6.53-.973.967-1.513 2.177-1.759 3.528-.281 1.56.059 3.003.856 4.295 1.572 2.526 3.882 3.923 6.907 4.016 2.1.07 3.694-.92 4.996-2.456.833-.978 1.478-2.084 2.064-3.225 1.947-3.806 3.928-7.601 5.863-11.42.059-.104.118-.197.188-.267l2.1-.105c.07.128.128.291.187.431 1.372 3.062 2.732 6.123 4.104 9.185.586 1.315 1.196 2.619 1.747 3.946.927 2.223 2.416 3.83 4.797 4.505 0 0 1.149.314 2.31 0 .68-.198 1.395-.28 2.052-.582 2.58-1.188 4.339-3.074 4.89-5.89.375-1.933-.399-3.586-1.548-5.11-1.208-1.607-2.779-2.864-4.186-4.285a554.015 554.015 0 0 0-5.887-5.832 58.742 58.742 0 0 0-1.536-1.431 1.162 1.162 0 0 1-.118-.128l.575-1.968 3.694-.454c1.22-.093 2.44-.197 3.659-.349 2.99-.372 6.027-.419 8.994-.966 2.451-.454 4.316-1.874 4.738-4.586l.035-.175c-.023.035.317-2.095.047-3.434Z" fill="#FFF"/></g></svg>