<?xml version="1.0" encoding="UTF-8"?>
<svg width="90px" height="90px" viewBox="0 0 90 90" version="1.1" xmlns="http://www.w3.org/2000/svg" xmlns:xlink="http://www.w3.org/1999/xlink">
    <title>automate.io</title>
    <g id="automate" stroke="none" stroke-width="1" fill="none" fill-rule="evenodd">
        <rect id="Rectangle" fill="#000000" fill-rule="nonzero" opacity="0" x="0" y="0" width="90" height="90"></rect>
        <g id="Group" transform="translate(0.000000, 5.000000)" fill="#5F84E0" fill-rule="nonzero">
            <path d="M46.5870205,60.8304019 C44.7317187,63.9819027 43.1152546,66.8270247 41.4076875,69.6165539 C32.840305,83.6099093 10.8007473,83.4344827 2.77013429,69.2422282 C-0.940469374,62.68597 -0.979865298,55.9283418 2.99419861,49.457326 C10.764224,36.8109665 18.6233006,24.217729 26.5714285,11.6776137 C31.9526656,3.23613781 42.6252678,-2.14155055 52.6712286,0.822169731 C58.5055188,2.54307942 62.5879215,6.31722092 65.4749042,11.5157765 C72.9121161,24.9210824 80.3604081,38.3239175 87.6929746,51.7897578 C92.7824356,61.1343098 89.1703218,72.2133609 79.6205034,76.9091094 C73.2186656,80.056904 66.7023334,81.1094633 60.0579645,77.6503484 C56.4126103,75.7527767 53.5970328,72.9311272 51.5065866,69.3991238 C49.8938159,66.6763062 48.3549126,63.917662 46.5870205,60.8304019 Z M29.2848228,18.8095675 C29.2602003,21.9511851 30.3054235,24.7753054 31.8258599,27.4573549 C39.3767455,40.7897723 46.9305037,54.1209543 54.4871345,67.4509008 C59.6233782,76.4767201 69.7530554,79.0809395 78.6060583,73.7131343 C85.5779059,69.4868371 88.3614742,60.9811205 84.5930078,54.1073649 C76.9071091,40.0868307 69.2741487,26.0205868 61.0650228,12.3064314 C52.8879062,-1.3546019 38.3852814,3.01129534 32.0720845,10.7004137 C30.1539954,13.0390225 29.2183422,15.7630756 29.2848228,18.8095675 Z" id="Shape"></path>
        </g>
    </g>
</svg>