<svg xmlns="http://www.w3.org/2000/svg" viewBox="0 0 90 90"><path fill="#FFF" d="M0 0h90v90H0z"/><path d="M64.433 76H75l-9.32-22.442a100.236 100.236 0 0 0-7.117 8.517L64.433 76Z" fill="#F60"/><path d="m40.06 55.36-2.588 6.144c3.722 5.577 6.182 10.378 7.535 12.677 2.636-4.496 9.072-17.848 22.41-30.34l-1.47-3.49c-8.66 6.435-16.034 14.665-20.926 20.942-.005.01-3.129-3.851-4.961-5.933Z" fill="#059BD2"/><path d="M49.665 15h-9.328L15 76h10.565l18.32-43.474.87-2.359h.491l.868 2.36 5.428 12.885c2.483-2.49 5.091-4.85 7.815-7.071L49.665 15Z" fill="#F60"/></svg>