<svg viewBox="0 0 90 90" xmlns="http://www.w3.org/2000/svg"><g fill="none"><path fill="#002520" d="M0 0h90v90H0z"/><path d="M39.718 33.041c.975-2.643 3.738-4.223 6.568-3.525 1.81.447 3.257 1.854 3.918 3.634l15.34 41.255a.439.439 0 0 1-.404.595h-7.443a.436.436 0 0 1-.403-.292L45.216 40.531a.487.487 0 0 0-.925 0l-6.787 19.57a20.901 20.901 0 0 1-6.098-4.521ZM27.522 66.108a26.825 26.825 0 0 0 6.614 3.702l-1.699 4.892a.429.429 0 0 1-.403.292h-7.168c-.303.006-.51-.303-.404-.59ZM45.002 15C59.923 15 72.013 27.342 72 42.562c0 8.028-3.357 15.25-8.72 20.29l-2.495-6.706a21.246 21.246 0 0 0 4.87-13.578c0-11.627-9.264-21.085-20.652-21.085-11.389 0-20.653 9.464-20.653 21.09 0 11.628 9.264 21.086 20.653 21.086a20.286 20.286 0 0 0 5.986-.91l2.157 6.112a26.653 26.653 0 0 1-8.143 1.275C30.089 70.136 18 57.794 18 42.568S30.083 15 45.003 15Z" fill="#FFF"/></g></svg>