<svg xmlns="http://www.w3.org/2000/svg" viewBox="0 0 90 90"><path fill="#FFF" d="M0 0h90v90H0z"/><path fill="#252F3E" d="M27.54 38.43c0 .99.11 1.8.3 2.38.21.59.48 1.23.85 1.92.13.21.19.43.19.61 0 .27-.16.54-.51.8l-1.68 1.13c-.24.16-.48.24-.69.24-.26 0-.53-.14-.8-.38-.37-.4-.69-.82-.95-1.25-.27-.46-.54-.96-.83-1.58A9.82 9.82 0 0115.6 46c-2.24 0-4.02-.64-5.32-1.92a6.87 6.87 0 01-1.97-5.13c0-2.27.8-4.11 2.42-5.5 1.62-1.39 3.78-2.08 6.52-2.08a21 21 0 012.82.21c.98.14 2 .35 3.06.59V30.2c0-2.03-.43-3.44-1.25-4.27-.85-.83-2.3-1.23-4.34-1.23-.93 0-1.89.1-2.87.35-.99.24-1.95.53-2.88.9-.42.2-.74.3-.93.35-.18.06-.32.08-.42.08-.38 0-.56-.26-.56-.82v-1.31c0-.43.05-.75.18-.94a2 2 0 01.75-.56c.93-.48 2.05-.88 3.35-1.2 1.3-.35 2.69-.5 4.15-.5 3.17 0 5.48.71 6.97 2.16 1.47 1.44 2.21 3.63 2.21 6.56v8.65h.05zm-10.8 4.06a8.6 8.6 0 002.74-.48c.96-.32 1.81-.9 2.53-1.7.43-.52.75-1.08.9-1.72.16-.64.27-1.41.27-2.32v-1.12a22.15 22.15 0 00-4.95-.61c-1.78 0-3.08.34-3.96 1.06-.88.72-1.3 1.74-1.3 3.07 0 1.26.31 2.2.98 2.83.64.67 1.57 1 2.8 1zm21.37 2.88c-.48 0-.8-.08-1.01-.26-.22-.16-.4-.54-.56-1.04l-6.25-20.64a4.69 4.69 0 01-.24-1.07c0-.43.2-.67.63-.67h2.61c.5 0 .85.08 1.04.27.21.16.37.53.53 1.04l4.47 17.68L43.48 23c.14-.53.3-.88.5-1.04.22-.16.6-.27 1.07-.27h2.13c.5 0 .85.08 1.07.27.2.16.4.53.5 1.04l4.2 17.89L57.55 23c.17-.53.35-.88.54-1.04.21-.16.56-.27 1.04-.27h2.47c.43 0 .67.22.67.67 0 .13-.03.27-.06.43a3.8 3.8 0 01-.18.67l-6.41 20.63c-.16.54-.35.88-.56 1.04a1.7 1.7 0 01-1.01.27h-2.3c-.5 0-.84-.08-1.06-.27-.21-.18-.4-.53-.5-1.06l-4.13-17.22-4.1 17.19c-.13.53-.29.88-.5 1.07-.21.18-.59.26-1.06.26h-2.3zm34.19.72c-1.39 0-2.77-.16-4.1-.48a12.08 12.08 0 01-3.06-1.06c-.43-.24-.72-.51-.82-.75-.11-.24-.16-.5-.16-.75V41.7c0-.56.2-.83.6-.83.17 0 .33.03.49.08l.66.27c.9.4 1.9.72 2.93.93 1.06.22 2.1.32 3.17.32 1.67 0 2.98-.29 3.88-.88a2.88 2.88 0 001.38-2.53 2.6 2.6 0 00-.71-1.87c-.48-.5-1.39-.96-2.7-1.39l-3.85-1.2c-1.94-.62-3.38-1.52-4.26-2.72a6.37 6.37 0 01-.6-6.84 6.86 6.86 0 011.9-2.19c.8-.61 1.7-1.07 2.77-1.39a13.31 13.31 0 015.14-.35c.61.09 1.17.2 1.73.3.53.13 1.04.27 1.51.43.48.16.86.32 1.12.48.37.21.64.43.8.67.16.2.24.5.24.88v1.25c0 .56-.21.86-.61.86-.21 0-.56-.11-1.01-.32a12.14 12.14 0 00-5.11-1.05c-1.52 0-2.72.24-3.54.75-.83.5-1.25 1.28-1.25 2.38 0 .74.27 1.39.8 1.9.53.5 1.51 1 2.92 1.46l3.78 1.2c1.92.62 3.3 1.47 4.13 2.57a6.05 6.05 0 011.22 3.73c0 1.15-.24 2.2-.7 3.1-.47.9-1.1 1.7-1.93 2.35a8.57 8.57 0 01-2.96 1.5c-1.2.37-2.45.55-3.8.55z"/><path fill="#F90" d="M77.33 59.07C68.57 65.56 55.85 69 44.92 69A58.52 58.52 0 015.35 53.86c-.82-.74-.08-1.76.9-1.17a79.59 79.59 0 0039.6 10.54c9.71 0 20.38-2.03 30.2-6.19 1.46-.67 2.71.96 1.28 2.03z"/><path fill="#F90" d="M80.97 54.9c-1.12-1.44-7.4-.69-10.24-.34-.85.1-.99-.64-.21-1.2 5-3.53 13.22-2.51 14.18-1.34.95 1.2-.27 9.45-4.95 13.4-.72.62-1.41.3-1.1-.5 1.07-2.65 3.44-8.6 2.32-10.02z"/></svg>