<svg xmlns="http://www.w3.org/2000/svg" viewBox="0 0 90 90"><path fill="#FFF" opacity=".935" d="M0 0h90v90H0z"/><path d="M61.114 39.738c.286-1.402.428-2.83.423-4.26l-.788.493c.317 1.229.44 2.5.365 3.767Zm-47.152 4.881c.26.532.557 1.075.893 1.627.23-.146.461-.262.692-.388-.058-.242-.116-.474-.164-.697-1.382-6.663 3.84-11.282 10.37-12.996 5.482-1.452 9.006 1.608 11.934 3.874a11.061 11.061 0 0 0 3.37 2.033 9.589 9.589 0 0 1-1.498-1.685 5.441 5.441 0 0 1-1.075-2.905 15.063 15.063 0 0 1 9.429-6.11c3.71-.599 7.47.717 10.014 3.505l2.611-1.636a13.007 13.007 0 0 0-6-7.67 13.692 13.692 0 0 0-9.275-1.259 11.575 11.575 0 0 0-3.755 1.608 14.906 14.906 0 0 0-5.712 7.892c-.279-.562-3.313-4.784-10.811-4.842a10.612 10.612 0 0 0-4.551 1.094c-.56.264-1.102.565-1.623.901-4.897 3.147-8.69 9.732-4.849 17.654Z" fill="#B8243C"/><path d="m75.996 26.423 2.103-1.269-3.044-4.939-13.653 8.513-.864.542-2.611 1.636-1.21.756-27.844 17.43c-3.418-3.737-8.343-5.21-12.414-3.66a7.158 7.158 0 0 0-.701.3l-.192.097c-.23.116-.461.242-.691.388-.183.116-.356.242-.529.358a8.36 8.36 0 0 0-.624.503c-3.091 2.712-4.157 7.34-2.88 11.844a4.418 4.418 0 0 0-.186 4.91 4.335 4.335 0 0 0 4.449 2.004c3.84 3.515 9.112 4.464 13.106 1.937a9.32 9.32 0 0 0 3.1-3.244 109.118 109.118 0 0 1-3.667-2.567 5.902 5.902 0 0 1-1.891 1.928 6.722 6.722 0 0 1-7.47-.552 4.41 4.41 0 0 0-.278-4.128 4.332 4.332 0 0 0-3.562-2.05 6.805 6.805 0 0 1 2.813-7.002c3.178-1.985 7.68-.523 9.985 3.263a9.207 9.207 0 0 1 1.373 4.416 50.81 50.81 0 0 0 4.07 1.704 13.656 13.656 0 0 0-.844-5.49l27.68-17.276.759-.475.47-.29.788-.494.883-.552 1.171-.736 4.062 6.575L80 33.056l-4.004-6.633Zm-1.21 8.008-2.88 1.85-1.469-2.344-2.362 1.482-1.834-2.905 2.324-1.55-1.47-2.353 2.881-1.85 1.47 2.354 2.323-1.491 1.843 2.905-2.323 1.481 1.498 2.421Z"/><path d="M18.389 51.407a56.196 56.196 0 0 0 7.517 7.06A94.04 94.04 0 0 0 44.38 70l.653-.813C59.194 51.514 60.74 41.423 60.74 41.423a21.026 21.026 0 0 1-1.652 3.496 46.793 46.793 0 0 1-4.33 6.159c-4.35 5.307-9.687 10.071-12.03 11.049a49.581 49.581 0 0 1-10.005-2.576 50.81 50.81 0 0 1-4.07-1.704 45.067 45.067 0 0 1-10.264-6.44Z" fill="#B8243C"/></svg>