<svg xmlns="http://www.w3.org/2000/svg" viewBox="0 0 90 90"><defs><linearGradient x1="89.987%" y1="10.852%" x2="53.494%" y2="100.075%" id="a"><stop stop-color="#00ADFF" offset="0%"/><stop stop-color="#00DBFF" offset="100%"/></linearGradient></defs><path fill="#FFF" d="M0 0h90v90H0z"/><path d="M54.8 12.676 63 60H45.293a2.291 2.291 0 0 1-2.259-1.933l-.13-.807-.067-.415-.488-3.032-1.5-9.392a26.005 26.005 0 0 0 2.347-1.721c4.636-3.815 7.71-9.083 9.678-14.635.05-.14.098-.279.146-.42l.057-.165c.001-.005.13-.463.163-.779a3.96 3.96 0 0 0-.417-2.221c-.23-.449-.583-.825-.931-1.189-.372-.388-.88-.552-1.354-.76l-.776-.165c-.773-.006-1.547.073-2.215.419a3.931 3.931 0 0 0-1.623 1.566c-.156.278-.316.729-.316.729-.749 2.552-1.74 5.021-3.101 7.29-2.165 3.602-5.397 6.606-9.297 7.966-2.68.923-5.483 1.067-7.95.013-2.929-1.252-5.208-3.319-7.063-5.752-.565-.74-.985-1.579-1.812-1.976-.452-.218-.92-.438-1.414-.515a3.911 3.911 0 0 0-2.234.3 6.006 6.006 0 0 0-.685.402c-.385.346-.816.663-1.048 1.149-.215.454-.434.923-.511 1.421a3.96 3.96 0 0 0 .298 2.243c.132.29.4.687.4.687 3.047 4.008 7.136 7.397 11.745 9.004l.587 3.677-20.872 7.79a1.96 1.96 0 0 1-1.955-.342 1.98 1.98 0 0 1-.661-1.878l1.14-6.003.12-.634 1.455-7.67 3.37-17.757.148-.782.074-.391.149-.783.148-.782.222-1.17.074-.388.147-.774.146-.768.774-4.083c1.236-6.51 6.503-11.479 13.049-12.311 5.136-.654 11.323-1.44 16.832-2.14 8.072-1.027 15.522 4.5 16.917 12.553Zm-26.528 4.372c-4.691 0-8.498 3.825-8.498 8.537 0 4.71 3.807 8.536 8.498 8.536 4.691 0 8.5-3.825 8.5-8.536 0-4.712-3.809-8.537-8.5-8.537Z" fill="url(#a)" transform="translate(14 15)"/><path d="m25.451 53.646.363.455c2.972 3.659 6.82 6.711 11.122 8.21l.587 3.678-1.534.571-.435-2.732-.134-.06c-1.228-.567-2.374-1.346-3.413-2.229-1.51-1.285-2.887-2.757-4.135-4.299l-.482-.607a27.247 27.247 0 0 1-1.939-2.987Z" fill="#27B9FF"/></svg>