<svg viewBox="0 0 90 90" xmlns="http://www.w3.org/2000/svg"><g fill="none" fill-rule="evenodd"><path fill="#FFF" d="M0 0h90v90H0z"/><path d="M28.273 51.026v6.393c0 5.481.91 9.491 2.734 12.029 1.822 2.554 4.683 3.822 8.607 3.822 4.303 0 7.625-1.725 9.995-5.159 2.37-3.433 3.56-8.289 3.56-14.564 0-6.004-1.178-10.774-3.52-14.293-2.34-3.52-5.495-5.278-9.462-5.278-3.701 0-6.602 1.507-8.734 4.533-2.114 3.029-3.18 7.19-3.18 12.517m.21 24.038c0 2.012-.239 3.299-.715 3.855-.477.56-1.486.846-3.043.846-1.01 0-1.725-.272-2.144-.812-.42-.557-.63-1.54-.63-2.96V23.725c0-3.315-.283-5.296-.842-5.938-.562-.642-1.71-.965-3.434-.965h-2.538c-1.289 0-2.241-.27-2.86-.813-.616-.526-.924-1.372-.924-2.504 0-1.014.265-1.778.813-2.301.547-.524 1.36-.777 2.452-.777.465 0 1.304.1 2.524.286 1.206.204 2.187.304 2.917.304.896 0 1.977-.102 3.223-.304 1.263-.187 2.076-.286 2.455-.286 1.12 0 1.905.355 2.355 1.047.448.694.673 1.912.673 3.654 0 1.133-.028 3.299-.1 6.495a74.09 74.09 0 0 0-.04 2.097l-.35 11.586c1.5-2.775 3.322-4.82 5.467-6.14 2.13-1.32 4.682-1.979 7.64-1.979 5.55 0 10.052 2.42 13.471 7.24 3.42 4.822 5.13 11.165 5.13 19.03 0 8.22-1.71 14.666-5.144 19.318-3.422 4.652-8.159 6.986-14.228 6.986-2.438 0-4.682-.474-6.715-1.422-2.045-.931-3.856-2.334-5.41-4.178v.903h-.003Z" fill="#002F87" fill-rule="nonzero"/><path d="M73.19 31.209V14.116L63.026 31.192l10.164.017Zm2.855 7.881h-2.727v-5.44H60.126v-2.458l12.763-20.268h3.156v20.268h3.06v2.457h-3.06v5.441Z" fill="#EA0029"/></g></svg>