<svg viewBox="0 0 90 90" xmlns="http://www.w3.org/2000/svg"><g fill="none" fill-rule="evenodd"><path fill="#FFF" d="M0 0h90v90H0z"/><g fill-rule="nonzero"><path fill="#42CE9F" d="M0 0h90v90H0z"/><path d="M33.768 66.6a4.338 4.338 0 0 1-3.168-1.278c-1.278-1.296-1.296-2.52-1.332-4.752V42.498c0-9.81.108-19.584.108-19.584h8.676v7.038c10.278 1.188 18 5.634 21.168 12.42a14.958 14.958 0 0 1-2.304 16.2C50.832 66.006 42.138 66.6 33.768 66.6Zm4.284-27.864v19.08c6.498-.36 9.72-1.674 12.276-4.734a6.3 6.3 0 0 0 1.098-6.984c-1.476-3.06-5.688-6.282-13.392-7.362h.018Z" fill="#FFF"/></g></g></svg>