<svg viewBox="0 0 90 90" xmlns="http://www.w3.org/2000/svg"><path d="m19.639 20.261-4.821-1.686c-2.15-.75-2.739-2.808-1.141-4.43C21.66 6.035 32.75 1 45 1c24.261 0 44 19.74 44 44 0 24.263-19.739 44-43.999 44-12.25 0-23.341-5.038-31.324-13.143-1.598-1.625-1.01-3.679 1.138-4.43l4.824-1.688c1.43-.5 3.481-.047 4.658.91C29.962 75.236 37.158 78 45.001 78 63.197 78 78 63.2 78 45c0-18.196-14.803-33-32.999-33-7.843 0-15.036 2.764-20.704 7.353-1.177.955-3.226 1.411-4.658.908ZM5.763 61.795a5.482 5.482 0 0 0 4.309.292l33.992-11.894a5.503 5.503 0 0 0 .003-10.384L10.075 27.912a5.498 5.498 0 0 0-7.084 3.603A46.622 46.622 0 0 0 1 45c0 4.565.668 9.1 1.99 13.48a5.49 5.49 0 0 0 2.773 3.314Z" fill="#5F42FF" fill-rule="evenodd"/></svg>