<svg viewBox="0 0 90 90" xmlns="http://www.w3.org/2000/svg"><g fill="none" fill-rule="evenodd"><path fill="#00215B" fill-rule="nonzero" d="M0 0h90v90H0z"/><g fill="#FFF"><path d="m74.835 64.429.026-.222.01-.127.016-.289.014-.526.004-.417v-.785l-.065-10.666a.941.941 0 0 1 .077-.33l-1.074.788.03 3.814.032 6.394v.78l-.004.414-.013.481-.283-.112-.478-.199c-.675-.293-1.164-.565-1.519-.837l-.113-.09c-.268-.22-.757-.545-1.181-.789l-.177-.099-1.181-.623-1.153.521c-.208.098-.536.18-.85.21l-.079.007-.233.009c-.036.001-.051.005-.038.013-.678-.384-1.64-.348-2.415.015-.273.114-.846.23-1.35.253-1.143.083-1.536.183-2.465.756l-.435.276c-.499.327-.75.334-1.089.1-.278-.205-.492-.347-.703-.425l-.077-.022-.217-.139c-.517-.38-.92-.482-1.646-.426l-.569.06-.012-.005c-1.014-.797-1.916-.588-2.735.442l-.159.209-.02-.037c-.39-.667-1.002-.825-1.805-.549l-.184.067-.06.012c-.05.004-.104-.01-.193-.053l-.125-.069-.275-.17-.12-.077c-1.268-.854-1.952-.972-2.894-.293l-.144.108a2.304 2.304 0 0 1-.224.155l-.137.078-.473-.51-.368-.39-.336-.342c-1.387-1.39-1.96-1.54-3.232-1.125l-.716.247-.12-.068c-.494-.278-.968-.392-1.601-.401h-.246c-.415 0-.696-.048-.828-.119a4.998 4.998 0 0 0-.793-.299l-.402-.112-.42-.102-.372-.076-.16-.038c-.132-.038-.188-.079-.246-.17l-.061-.111-.079-.155c-.649-1.276-2.199-1.587-4.367-1.51l-.274.013-.883.072-.598.062c-.163.028-.495-.13-.852-.505a10.06 10.06 0 0 0-1.025-.993l-.11-.087-.149-.105-.023-.183-.018-.228-.013-.291-.009-.359-.004-.407.005-1.081.007-.536c.003-.217.07-.503.217-.896l.098-.25.718-1.64c.762-1.771 1.158-3.228 1.194-4.946.016-.758-.394-1.014-1.056-1.203l-.19-.05a4.741 4.741 0 0 0-.103-.022l-.24-.046-.46-.077.012-.138.058-3.117.006-.704v-.495l-.008-.395c-.022-.72-.096-1.046-.34-1.374l-.064-.082-.067-.07-.132-.124-.12-.098-.082-.058a1.268 1.268 0 0 0-.044-.026l-.092-.05-.103-.043-.115-.04-.131-.035-.15-.03-.17-.028-.196-.024-.345-.032-.57-.033-.72-.028-5.438-.135-.872-.028-2.24-.095-9.14-.419-.985-.059.051-1.101.116-2.113.43.009.612.02.678.03.723.04 1.62.102 2.618.108 5.392.186 2.662.066 7.083.153 1.8.042 1.84.026 4.997.036 7.925.02 7.057-.008 5.166-.022 3.38-.029 2.067-.034 9.107-.237.544-.021.022.455.038 1.004.026.87.047 1.02.032.496.032.355.096.646.053.376.038.297.053.343c.009.053.017.104.026.15l.078.383.269 1.587.378 2.139.097.491-.07.196-.183.455 1.186-.29c.062-.177.095-.303.085-.355L74 42.654a45.202 45.202 0 0 0-.049-.244l-.442-2.51-.184-1.1-.053-.28-.041-.191-.056-.34-.038-.274a10.037 10.037 0 0 1-.017-.14l-.114-.801-.038-.22-.012-.106-.038-.57-.042-.887-.047-1.479-.055-1.24-.032-.484-.023-.213a.212.212 0 0 0-.015-.059c-.034-.057-.155-.085-.3-.077l-.332.032-.906.04-9.61.248-2.881.036-9.049.041-2.71.003-7.364-.008-8.353-.05-1.99-.034-10.07-.224-1.927-.056-4.653-.165-2.705-.116-.871-.058-1.01-.059-.632-.03-.845-.03-.474-.008h-.398l-.218.008-.152.013c-.059.008-.091.018-.093.031l-.024.2-.04.49-.14 2.531-.043.979-.006.414.004.148.01.115a.85.85 0 0 0 .007.046l.019.073a.25.25 0 0 0 .012.027l.029.041.017.014.04.018.047.009.639.048 1.445.084 4.232.196 6.385.286 1.522.05 2.091.053 2.512.059 1.168.04.565.031.33.027.26.033.14.024.168.042.089.032.073.035.061.04.052.043.063.064.035.053c.006.01.011.021.016.033l.029.085.023.116.019.155.014.201.012.408.003.62-.02 1.65-.044 2.15-.005.052-.05.266c-.045.248-.08.553.055.627.123.067.35.118.61.164l.647.11c.425.075.783.165.78.317-.037 1.784-.55 3.25-1.073 4.48l-.24.551-.343.769c-.322.735-.563 1.372-.571 1.94l-.012 1.23.002.634.007.41.012.345.018.286.024.234c.04.314.101.474.187.581l.061.064.069.056.207.143.098.076.111.093.265.24c.188.178.388.38.538.552.537.565 1.122.876 1.644.845l.415-.045 1.1-.092.477-.015h.356c1.1.017 2.452.2 2.843.968l.13.24c.268.465.483.607 1.14.762l.336.074c.425.095.944.243 1.244.37l.114.052c.305.164.748.232 1.288.232.61-.014.97.054 1.358.272l.512.286 1.166-.401.196-.059c.563-.15.908-.063 1.57.546l.232.223.261.264.453.478.541.583c.402.436.54.504.873.436.19-.035.512-.2.783-.392l.131-.098c.61-.477.845-.45 1.856.231.845.545 1.178.64 1.69.463.582-.231.707-.19.887.313.304.832.835.808 1.521-.072l.1-.132c.54-.735.858-.83 1.412-.395.265.198.45.239.949.193l.16-.016c.637-.068.817-.027 1.15.218l.185.122.163.099a.883.883 0 0 0 .116.057l.034.008c.016 0 .058.02.118.052l.136.081.161.107.084.06c.706.49 1.399.476 2.23-.068l.407-.26c.668-.415.954-.515 1.615-.579l.402-.033c.623-.027 1.302-.177 1.662-.327.499-.233 1.054-.267 1.422-.123l.116.055c.346.218 1.454.11 2.12-.204l.692-.313.748.395c.1.054.21.117.32.184l.333.209c.162.106.313.21.432.3l.106.083c.469.392 1.126.764 2.09 1.166l.834.338.31.13.132.047c.351.114.525.043.608-.525Z" fill-rule="nonzero"/><path d="M6.906 52.708h6.311c1.67 0 3.54-.226 4.809-.874 1.436-.745 2.504-1.88 2.504-3.596 0-2.041-1.703-2.981-3.306-3.24v-.033c1.57-.291 3.607-1.23 3.607-3.304 0-1.004-.468-1.782-1.236-2.236-.801-.485-1.97-.712-3.64-.712H9.778l-.167.68c1.837.13 1.937.292 1.436 2.624l-1.536 7.42c-.501 2.332-.735 2.494-2.505 2.623l-.1.648ZM14.22 40.43c.067-.357.134-.616.267-.713.167-.097.468-.097.902-.097 1.135 0 2.337.518 2.337 2.106 0 1.717-1.202 3.013-3.64 3.013h-.734l.868-4.31Zm-.334 5.119c1.703 0 3.373.68 3.373 2.689 0 2.073-1.536 3.53-3.673 3.53-1.136 0-1.67-.193-1.37-1.619l.969-4.6h.701Zm17.43 4.73.067.097-.234.907c-1.336 1.004-3.005 1.685-3.506 1.685-.368 0-1.069-.227-.702-1.912l.401-1.846h-.033c-.668.874-1.67 1.911-2.371 2.462-.635.518-1.77 1.296-2.538 1.296-.801 0-1.603-.843-1.603-2.527 0-1.977.969-4.31 2.438-5.605 1.068-.94 3.072-1.912 5.075-1.912.334 0 .902.065 1.436.162.568.098 1.035.162 1.403.098l.1.097c-.5 2.235-1.135 4.73-1.603 7.16-.1.42-.133.648.034.648.267.032 1.101-.422 1.636-.81Zm-3.807-2.69c-.568.875-1.269 1.782-1.836 2.366-.802.874-1.336 1.166-1.537 1.166-.233 0-.367-.389-.367-.94 0-.907.234-2.494.802-3.822.567-1.329 1.168-1.815 1.602-2.106.3-.227.735-.292 1.036-.292.434 0 .8.097 1.135.227-.067.745-.635 2.98-.835 3.402Z"/><path d="m34.187 52.384-2.905.584c.3-1.2.568-2.365.869-3.564l.834-3.564c.2-.777.2-1.004.034-1.004-.2 0-1.002.486-1.503.907l.267-1.102c1.236-.971 2.571-1.684 3.406-1.684.868 0 .969.745.668 2.04l-.334 1.33h.034c1.302-1.588 2.938-2.56 3.572-2.884.635-.324 1.17-.486 1.603-.486.635 0 1.57.324 1.102 2.3l-1.269 5.216c-.1.421-.133.648 0 .648.167 0 .902-.356 1.436-.745.034.291.067.55.167.777-1.369 1.07-3.172 1.815-3.74 1.815-.701 0-1.135-.454-.768-1.912l1.236-5.021c.2-.875.267-1.329-.167-1.329-.501 0-2.471 1.653-3.573 3.434-.234.616-.802 3.046-.969 4.244Zm15.594-2.3-.1.713c-.033.162-.066.292-.1.454-1.436 1.133-3.072 1.717-4.174 1.717-1.97 0-3.005-1.134-3.005-3.175 0-1.685.801-3.953 2.437-5.281 1.036-.842 2.672-1.555 4.007-1.555 1.17 0 2.271.55 2.271 1.263 0 .324-.267.68-.701 1.005-.501.356-.935.226-1.102.032-.801-.94-1.269-1.134-1.603-1.134-.367 0-.868.227-1.369 1.07-.601 1.036-1.035 2.753-1.035 4.081 0 1.426.534 2.041 1.436 2.041 1.369 0 2.504-.842 3.038-1.23Z"/><path d="M55.959 46.002c2.003 0 2.07.13 1.937 1.75h.567l.902-4.277h-.568c-.567 1.62-.668 1.717-2.671 1.717h-1.937l1.035-5.021c.167-.778.2-.778 1.102-.778h1.503c1.47.032 2.17.097 2.504.486.267.356.334.94.334 2.009l.568-.065c.167-1.199.334-2.786.4-3.143H51.519l-.1.519c1.936.13 2.103.291 1.602 2.624l-1.602 7.775c-.468 2.3-.702 2.495-2.605 2.624l-.1.486h6.411l.1-.486c-2.304-.13-2.504-.291-2.003-2.624l.734-3.596h2.004Z"/><path d="M61.803 51.38c.2 0 1.135-.583 1.903-1.166l-.2.842c-.969.778-2.638 1.912-3.206 1.912-.367 0-.735-.26-.434-1.296l1.57-5.994c.2-.81.2-1.004.033-1.004-.267 0-1.336.55-1.904 1.037l.167-.778c1.336-1.037 3.006-1.847 3.506-1.847.635 0 .368.746.167 1.588l-1.602 5.929c-.134.518-.167.777 0 .777Zm1.335-11.242c.735 0 1.27-.583 1.236-1.263-.034-.421-.334-.875-.969-.875-.868 0-1.335.745-1.269 1.328 0 .454.401.81 1.002.81Z"/><path d="M66.778 43.086c.534 0 .5.746.267 1.944l-.3 1.329h.033c1.135-1.977 2.605-3.273 3.239-3.273.5 0 .902.227 1.102.551a.743.743 0 0 1 0 .745c-.134.26-.367.486-.568.648-.234.13-.467.162-.668 0a1.453 1.453 0 0 0-.768-.259c-.233 0-.6.13-1.235.907a7.89 7.89 0 0 0-1.302 2.365c-.501 2.106-.835 3.532-.902 4.374L63.773 53c.3-1.134.567-2.268.801-3.402l.768-3.401c.267-1.134.3-1.523.1-1.523-.267 0-1.235.615-1.77 1.069l.167-.842c1.136-1.037 2.405-1.815 2.939-1.815Zm4.708 9.882c2.037 0 4.074-1.847 4.074-3.532 0-.745-.267-1.328-1.703-2.235-.735-.421-1.736-1.07-1.736-1.75 0-.81.667-1.328 1.302-1.328.768 0 1.369.389 1.736.842.134.162.401.162.735-.097.267-.227.367-.518.4-.81.034-.453-.868-1.004-1.636-1.004-1.068 0-2.17.648-2.738 1.134-1.102.94-1.202 1.782-1.202 2.235 0 1.07 1.202 1.555 2.204 2.268 1.102.778 1.269 1.296 1.269 1.847 0 .81-.735 1.328-1.436 1.328-.668 0-1.402-.162-2.104-.94-.2-.226-.4-.226-.7-.097-.368.162-.669.551-.669.875 0 .713 1.336 1.264 2.204 1.264Z"/><path d="M80.669 50.052c-.534.453-1.67 1.458-2.204 1.458-.234 0-.334-.486-.1-1.458l1.369-5.67 2.504-.097.668-.648h-3.005l.735-2.818-.2-.13-1.737 1.296-.434 1.652h-1.603l-.668.519.167.259h1.87l-1.402 6.123c-.401 1.652.033 2.43.467 2.43 1.102 0 3.206-1.717 3.94-2.625l-.367-.291Z"/></g></g></svg>