<svg viewBox="0 0 90 90" xmlns="http://www.w3.org/2000/svg"><g fill="none" fill-rule="evenodd"><path fill="#FFF" fill-rule="nonzero" d="M0 0h90v90H0z"/><path d="M74.4 19c0 6.66-29.054 7.386-29.054 14.551h-.642c0-7.165-29.054-7.892-29.054-14.551H15v6.948c0 8.302 29.106 7.522 29.678 15.504h.642c.595-7.982 29.678-7.224 29.678-15.504V19h-.648.05Zm0 15.77c0 6.66-29.054 7.387-29.054 14.552h-.642c0-7.165-29.052-7.892-29.052-14.551h-.65v6.95c0 8.302 29.107 7.522 29.678 15.504h.642C45.918 49.243 75 50 75 41.72v-6.95h-.648.048Zm0 15.776c0 6.66-29.054 7.384-29.054 14.551h-.642c0-7.167-29.052-7.892-29.052-14.551h-.65v6.95c0 8.32 29.107 7.522 29.678 15.504h.642C45.918 65.018 75 65.776 75 57.496v-6.95h-.648.048Z" fill="#00F"/></g></svg>