<svg viewBox="0 0 90 90" xmlns="http://www.w3.org/2000/svg"><g fill="none"><path fill="#FFF" d="M0 0h90v90H0z"/><g fill="#000" stroke="#000"><path d="M45.07 75c-11.57 0-20.984-9.35-20.984-20.843C24.086 42.802 33.169 15 45.07 15c11.903 0 20.986 27.802 20.986 39.157C66.057 65.65 56.643 75 45.071 75ZM45 16.27c-10.714 0-19.63 27.46-19.63 37.82 0 10.751 8.807 19.498 19.63 19.498 10.823 0 19.63-8.747 19.63-19.498 0-10.36-8.917-37.82-19.63-37.82Z" stroke-width="1.961"/><path d="M22.747 21.78c-.36.217-.62.603-.712 1.058-.091.456-.002.916.245 1.265.28.394.752.63 1.262.63.391 0 .754-.139 1.024-.393.309-.29.485-.723.482-1.19-.002-.464-.182-.896-.495-1.183a1.569 1.569 0 0 0-1.806-.188Zm44.506 0c-.552-.332-1.33-.25-1.807.186-.311.287-.491.72-.494 1.184-.003.465.173.899.483 1.19.27.254.633.393 1.024.393.51 0 .982-.236 1.262-.63.247-.348.335-.81.244-1.265-.092-.456-.351-.841-.712-1.059Z" stroke-width="1.798"/><path d="M52.587 51.599a.582.582 0 0 0-.585.58c0 1.756-1.439 3.185-3.208 3.185-1.77 0-3.21-1.429-3.21-3.185v-6.757c5.26-.38 9.432-5.773 9.432-8.158 0-2.473-4.484-4.476-10.017-4.476-5.53 0-10.016 2.003-10.016 4.476 0 2.385 4.173 7.777 9.432 8.158v6.757c0 1.756-1.439 3.185-3.209 3.185-1.769 0-3.208-1.429-3.208-3.185 0-.32-.261-.58-.584-.58a.582.582 0 0 0-.585.58c0 2.396 1.964 4.345 4.376 4.345A4.383 4.383 0 0 0 45 54.338a4.382 4.382 0 0 0 3.794 2.186c2.413 0 4.377-1.949 4.377-4.345a.58.58 0 0 0-.583-.58Z" stroke-width="1.634"/></g></g></svg>