<svg xmlns="http://www.w3.org/2000/svg" viewBox="0 0 90 90"><path fill="#152535" d="M0 0h90v90H0z"/><path fill="#FFF" d="M31 58.36V21h5.84v13.9a11.28 11.28 0 019.43-4.65c2.56 0 4.83.64 6.78 1.89 1.94 1.27 3.42 2.99 4.45 5.14 1 2.15 1.5 4.6 1.5 7.3 0 2.73-.5 5.17-1.53 7.35a12.37 12.37 0 01-4.45 5.18A12.03 12.03 0 0146.27 59c-3.9 0-7.02-1.57-9.43-4.68v4.04H31zm5.84-13.72c0 2.67.7 4.88 2.12 6.6 1.41 1.71 3.42 2.58 5.98 2.58 2.54 0 4.48-.84 5.84-2.55 1.35-1.72 2.03-3.93 2.03-6.6 0-2.68-.68-4.89-2.03-6.6-1.36-1.72-3.3-2.6-5.84-2.6-2.56 0-4.54.88-5.98 2.63a10 10 0 00-2.12 6.54z"/><path fill="#53B6E4" d="M31 64h28v6H31z"/></svg>