<svg viewBox="0 0 90 90" xmlns="http://www.w3.org/2000/svg"><g fill="none" fill-rule="evenodd"><path fill="#222" fill-rule="nonzero" d="M0 0h90v90H0z"/><path fill="#FF2616" d="m45.44 47.268 2.828-2.829 17.677 17.678-2.828 2.828z"/><path d="M22.105 21.105c7.225-7.225 18.938-7.225 26.163 0 5.607 5.607 6.862 13.918 3.766 20.735l12.144 12.145-2.829 2.829L49.918 45.38a18.668 18.668 0 0 1-3.536 3.536l22.745 22.746-2.828 2.828-23.458-23.457c-6.818 3.096-15.129 1.841-20.736-3.766-7.225-7.225-7.225-18.938 0-26.163Zm2.828 2.828c-5.662 5.663-5.662 14.844 0 20.506 5.663 5.663 14.844 5.663 20.506 0 5.663-5.662 5.663-14.843 0-20.506-5.662-5.662-14.843-5.662-20.506 0Z" fill="#FFF"/></g></svg>