<svg xmlns="http://www.w3.org/2000/svg" viewBox="0 0 90 90"><path fill="#148EFF" d="M0 0h90v90H0z"/><path d="M68.087 36.197c2.027-6.173 2.407-11.802 1.026-16.066l-.039-.12c-.084-.231-.29-.72-.55-.72-.2 0-.202.327-.19.493l.013.096c.44 3.81-.738 9.24-3.105 14.93-4.854-2.18-10.684-3.921-17.152-4.948-5.812-.925-11.377-1.129-16.42-.721.597-3.926 2.08-6.657 4.513-7.235 3.348-.791 6.999 1.387 10.48 5.35a79.4 79.4 0 0 1 6.867 1.237C47.182 16.681 38.668 10.06 32.193 12.504c-4.929 1.86-7.445 8.566-7.146 17.58-6.417 1.351-11.535 3.838-14.577 7.155l-.084.091c-.163.189-.487.61-.355.834.097.168.385.007.527-.085l.077-.058c3.115-2.281 8.46-3.989 14.622-4.807.52 5.25 1.91 11.114 4.243 17.168 2.097 5.443 4.702 10.311 7.582 14.43-3.737 1.452-6.871 1.546-8.59-.25-2.37-2.47-2.288-6.687-.557-11.655a77.038 77.038 0 0 1-2.351-6.5c-7.169 11.344-8.707 21.95-3.33 26.276 4.09 3.294 11.223 2.095 18.962-2.666 4.391 4.821 9.127 7.963 13.55 8.91l.125.027c.245.045.775.112.906-.112.1-.17-.185-.336-.337-.41a7.115 7.115 0 0 1-.09-.038c-3.554-1.526-7.722-5.252-11.518-10.123 4.335-3.07 8.774-7.192 12.908-12.22 3.714-4.517 6.674-9.182 8.842-13.71 3.137 2.478 4.786 5.113 4.077 7.483-.981 3.267-4.711 5.306-9.925 6.305a77.679 77.679 0 0 1-4.516 5.266c13.514.47 23.566-3.518 24.664-10.285.838-5.153-3.775-10.663-11.815-14.913Zm-11.74 13.502c-4.765 5.796-10.706 10.73-15.99 13.582a58.954 58.954 0 0 1-5.091-10.074c-2.69-6.981-4.04-14.539-3.896-20.492a60.477 60.477 0 0 1 11.366.674c7.456 1.188 14.746 3.81 19.885 6.908a59.101 59.101 0 0 1-6.273 9.402Z" fill="#FFF"/></svg>