<svg viewBox="0 0 90 90" xmlns="http://www.w3.org/2000/svg"><g fill="none"><path fill="#003087" d="M0 0h90v90H0z"/><path d="M49 36.49v-.37c1.81-.27 1.89-.56 1.91-2.47V23.32c0-1.03.02-1.34-1.2-2.23v-.24l2.4-1.08.27.1v13.78c0 2.01.1 2.2 1.91 2.47v.37H49Zm-14.61-7.9c0-1.89-.71-2.36-1.86-2.36-2.52 0-1.48 2.82-3.09 2.82-.47 0-.8-.24-.8-.74 0-1.01 2.46-2.74 4.57-2.74 1.83 0 2.73 1.3 2.73 3.65v5.99c0 .63.75.43 1.05.43.41 0 .69-.16.95-.41l.27.3c-.38.61-1.31 1.04-2.13 1.04-.85 0-1.64-.6-1.7-1.61-1.29 1.18-2.55 1.61-3.58 1.61-1.56 0-2.1-.93-2.1-2.13 0-1.89 1-2.44 4.21-3.26l1.47-.38v-2.21h.01Zm0 2.66-1.09.28c-2.05.52-3.12 1.15-3.12 2.3 0 1.01.57 1.84 1.8 1.84.87 0 1.67-.55 2.41-1.12v-3.3Zm-12.81-3.54c2.23.51 4.48 1.67 4.48 4.55 0 4.53-5.31 4.31-6.54 4.28l-5.65-.05v-.37c2.94-.39 2.55-1.13 2.62-3.65v-8.49c-.07-2.52.31-3.25-2.48-3.62V20l3.89-.19c2.74-.1 7.05.29 7.05 4.16 0 2.4-1.45 3.21-3.38 3.69v.05h.01Zm-3.6 4.55c0 1.91-.12 3.72 2.37 3.72 2.13 0 4.04-1.4 4.04-3.55 0-1.5-1.8-4.46-5.45-4.28l-.95.05v4.06h-.01Zm0-4.58c2.27-.03 5.51-.64 5.51-3.48 0-2.93-3.01-3.84-5.51-3.84v7.32Zm21.6-.09c-.44-1.11-.54-1.35-1.77-1.54v-.37h4.54v.37c-1.86.09-1.37 1.22-.88 2.47l2.4 6.22 1.52-4.41c1.1-3.18 1.3-4.04-.52-4.28v-.37h4.28v.37c-1.08.12-1.42.56-1.88 1.49l-1.03 2.37-3.16 7.75c-.9 2.28-1.54 3.03-2.52 3.03-.66 0-1.2-.54-1.2-1.22 0-.52.3-.98.79-1.15.24.15 1 .69 1.3.69.54 0 .98-1.32 1.15-1.69l.2-.58-3.22-9.15Zm21.3 9.14c-3.36 0-5.39-2.13-5.39-5.6 0-3.38 2.13-5.7 5.41-5.7 3.32 0 5.61 2.16 5.61 5.6.01 3.33-2.4 5.7-5.63 5.7m-.03-10.76c-2.64 0-3.72 2.74-3.72 5 0 2.27 1.27 5.24 3.92 5.24 2.47 0 3.57-2.82 3.57-4.92 0-2.27-1.1-5.32-3.77-5.32m10.68 7.68c.01 1.5-.19 2.26 1.73 2.47v.37h-5.04v-.37c1.69-.27 1.76-.56 1.78-2.47v-4.68c0-1.02.02-1.34-1.2-2.22v-.24l2.55-1.08.27.1-.1 2.89h.05c.54-1.3 1.91-2.99 3.46-2.99.68 0 1.25.44 1.25 1.13 0 .65-.71 1.27-1.28 1.54-.42-.31-1.03-.85-1.57-.8-2.08.19-1.91 3.52-1.91 3.89v2.46h.01ZM23.78 46h-.21c-.27-1.59-1.19-2.73-2.89-2.73-2.58 0-4.02 2.11-4.02 4.53 0 2.77 2.12 4.7 4.16 4.7 1.85 0 2.58-1.35 3.21-2.87l.2.09c-.17.86-.44 1.7-.78 2.51-.9.44-1.87.61-2.87.61-2.94 0-5.56-1.69-5.56-4.87 0-2.51 1.95-5.04 5.67-5.04 1.07 0 2.15.21 3.08.76V46h.01Zm4.98 6.81c-1.93 0-3.47-1.22-3.47-3.22 0-1.94 1.59-3.28 3.48-3.28 1.92 0 3.45 1.24 3.45 3.22 0 1.92-1.6 3.28-3.46 3.28m-.01-6.19c-1.52 0-2.14 1.57-2.14 2.87 0 1.31.73 3.01 2.25 3.01 1.42 0 2.06-1.62 2.06-2.83 0-1.3-.64-3.05-2.17-3.05m3.94 6.05v-.21c1.04-.16 1.09-.32 1.1-1.42v-6.18c0-.59.01-.77-.69-1.28v-.14l1.62-.62.15.05v8.17c0 1.15.06 1.27 1.1 1.42v.21h-3.28Zm3.8 0v-.21c1.04-.16 1.08-.32 1.09-1.42v-6.18c0-.59.02-.77-.69-1.28v-.14l1.62-.62.16.05v8.17c0 1.15.05 1.27 1.1 1.42v.21h-3.28Zm4.78-3.59c-.11 1.46.88 2.83 2.48 2.83.73 0 1.24-.33 1.66-.89l.21.16c-.54.91-1.49 1.63-2.59 1.63-1.74 0-2.95-1.44-2.95-3.12 0-1.82 1.26-3.38 3.16-3.38 1.27 0 2.11.8 2.17 2.07h-4.08l-.06.7ZM44.08 48c-.13-.65-.53-1.38-1.27-1.38-.8 0-1.28.79-1.43 1.49l2.7-.11Zm6.81 3.6c1.51-.05 2.34.57 2.34 1.52 0 1.38-1.87 2.96-4.38 2.96-1.68 0-2.37-.85-2.37-1.43 0-1.06 1.09-1.55 1.89-1.97-.54-.07-1.44-.42-1.44-1.07 0-.44.75-.99 1.07-1.24-.67-.38-1.15-1.01-1.15-1.8 0-1.45 1.33-2.25 2.65-2.25.69 0 1.22.17 1.84.45h2.01v.59l-1.72-.04c.2.35.28.68.28 1.1 0 1.44-1.3 2.25-2.62 2.25-.35 0-.71-.06-1.05-.19-.47.44-.45 1.26.84 1.19l1.81-.07Zm-2.07 1.07c-.51.22-1.31.78-1.31 1.4 0 1.03 1.49 1.31 2.28 1.31 1.01 0 2.59-.44 2.59-1.69 0-1.32-1.83-1.13-2.18-1.11l-1.38.09Zm1.9-4.06c0-.92-.41-1.99-1.46-1.99-.91 0-1.21.95-1.21 1.7 0 1.39.84 2.03 1.48 2.03.93 0 1.19-.96 1.19-1.74m4.63.47c-.11 1.46.89 2.83 2.48 2.83.73 0 1.24-.33 1.66-.89l.21.16c-.53.91-1.49 1.63-2.59 1.63-1.74 0-2.96-1.44-2.96-3.12 0-1.82 1.27-3.38 3.17-3.38 1.26 0 2.11.8 2.16 2.07H55.4l-.05.7Zm2.8-1.08c-.13-.65-.52-1.38-1.27-1.38-.8 0-1.28.79-1.44 1.49l2.71-.11Zm8.05 4.81c-1.93 0-3.46-1.22-3.46-3.22 0-1.94 1.59-3.28 3.48-3.28 1.92 0 3.45 1.24 3.45 3.22-.01 1.92-1.61 3.28-3.47 3.28m-.02-6.19c-1.52 0-2.14 1.57-2.14 2.87 0 1.31.73 3.01 2.25 3.01 1.42 0 2.06-1.62 2.06-2.83 0-1.3-.63-3.05-2.17-3.05m3.95.42 1.14-.66c.01-.83.11-1.59.56-2.31.53-.84 1.41-1.51 2.43-1.51.55 0 1.63.23 1.63.95 0 .45-.4.61-.78.6-.32-.48-.92-1.11-1.53-1.11-1.14 0-1.23 1.94-1.23 2.75v.84h1.83v.59h-1.83v3.86c0 1.15.06 1.27 1.35 1.42v.21h-3.56v-.21c1.07-.16 1.11-.32 1.12-1.42v-3.86h-1.14v-.14h.01ZM29.98 65.79c-.13 1.69 1.03 3.27 2.87 3.27.84 0 1.43-.37 1.92-1.02l.23.17c-.61 1.06-1.72 1.89-2.99 1.89-2.01 0-3.41-1.66-3.41-3.62 0-2.09 1.46-3.9 3.66-3.9 1.46 0 2.44.93 2.5 2.39h-4.72l-.06.82Zm3.24-1.26c-.15-.75-.6-1.59-1.46-1.59-.93 0-1.48.91-1.66 1.72l3.12-.13Zm14.27-4.27c0 .46-.38.83-.83.83-.45 0-.83-.38-.83-.83 0-.46.38-.83.83-.83.46 0 .83.37.83.83m11.88 0a.834.834 0 0 1-1.67 0c0-.46.37-.83.83-.83.46 0 .84.37.84.83m-17.65 9.97v-1.55c-.73.72-1.59 1.42-2.69 1.42-1.75 0-3.06-1.73-3.06-3.39 0-2.47 2-4.13 4.39-4.13.47 0 .92.05 1.35.16v-2.13c0-.68.01-.34-.8-.93v-.16l1.87-.71.18.07v8.98c0 1.5 0 1.69 1.36 1.5l.07.27-2.67.6Zm0-4.85c0-1.89-1.43-2.29-2.2-2.29-1.51 0-2.16 1.54-2.16 2.84 0 2.34 1.4 3.35 2.6 3.35.65 0 1.41-.57 1.76-1.13v-2.77Zm3.15 4.55v-.24c1.2-.18 1.25-.38 1.27-1.65v-3.1c0-.69.02-.89-.99-1.48v-.16l2.06-.72.18.07v5.4c0 1.33.07 1.47 1.27 1.65v.24h-3.79v-.01Zm10.83-1.18c-.73.83-1.74 1.35-2.86 1.35-1.98 0-3.35-1.66-3.35-3.57 0-2.28 1.98-3.95 4.18-3.95.52 0 1.77.07 1.77.81 0 .36-.39.75-.76.75-.58 0-1.15-1.05-1.97-1.05-1.3 0-1.92 1.51-1.92 2.61 0 2.1 1.43 3.43 3.04 3.43.67 0 1.14-.24 1.68-.63l.19.25Zm.84 1.18v-.24c1.21-.18 1.25-.38 1.27-1.65v-3.1c0-.69.02-.89-.99-1.48v-.16l2.06-.72.18.07v5.4c0 1.33.06 1.47 1.27 1.65v.24h-3.79v-.01Zm5.57-4.99c0-.69.02-.89-.79-1.48v-.16l1.93-.72.18.07-.13 1.19c.92-.68 1.82-1.25 2.86-1.25 1.96 0 2.05 1.62 2.05 2.57v2.89c0 1.33.06 1.47 1.27 1.65v.24h-3.79v-.24c1.21-.18 1.26-.38 1.27-1.65v-1.87c0-1.14.05-2.75-1.94-2.75-.67 0-1.12.21-1.66.7v3.91c0 1.33.06 1.47 1.27 1.65v.24h-3.79v-.24c1.2-.18 1.25-.38 1.27-1.65v-3.1Zm9.13.85c-.13 1.69 1.03 3.27 2.86 3.27.85 0 1.43-.37 1.92-1.02l.24.18c-.62 1.06-1.72 1.89-2.99 1.89-2.02 0-3.41-1.66-3.41-3.62 0-2.09 1.47-3.9 3.66-3.9 1.46 0 2.44.93 2.5 2.39H71.3l-.06.81Zm3.24-1.26c-.14-.75-.6-1.59-1.47-1.59-.93 0-1.48.91-1.66 1.72l3.13-.13Zm-50.74 5.06c1.25-.07 1.55-.28 1.53-1.01-.07-2.62-.07-5.3-.18-7.86h-.03c-1.4 3.02-2.97 6.15-4.14 9.05h-.24c-.31-.68-.78-2.03-1.34-3.14-.58-1.15-1.73-3.71-2.76-6.12h-.04c-.02 2.84-.14 5.51-.14 7.1 0 1.41.31 1.99 1.59 1.99v.35h-3.63v-.35c1-.18 1.36-.42 1.47-1.83.17-2.23.26-5.63.26-6.54 0-1.78-.24-1.92-1.57-1.99v-.35h2.87l3.1 7.04c.24.56.51 1.03.74 1.7l4.2-8.74h2.69v.35c-1.38.09-1.67.42-1.67 1.76 0 .68.12 4.51.17 7.67.02.7.42.86 1.5.93v.35h-4.39v-.36h.01Z" fill="#FFF"/></g></svg>