<svg viewBox="0 0 90 90" xmlns="http://www.w3.org/2000/svg"><g fill="none"><path fill="#FFF" d="M0 0h90v90H0z"/><path d="M18 10v69.775c25.173 2.282 55-12.881 55-41.113V10" fill="#231F20"/><path fill="#FFF" d="M23.47 48.94h.77v-5.228h1.67v-.708H21.8v.708h1.67m4.019 2.682c.008-.658.353-.97.918-.977.566.008.886.308.895.977v2.546h.738v-2.643c0-.466-.139-.857-.401-1.131-.263-.274-.644-.425-1.11-.425-.398 0-.754.12-1.04.376v-2.113h-.739v5.936h.739m5.163-3.548c.392 0 .717.217.86.552.078.194.096.296.111.559h-1.942c.015-.263.033-.365.111-.559a.912.912 0 0 1 .86-.552Zm.105 3.596h.013c.689 0 1.093-.228 1.5-.64l.059-.058-.514-.452-.051.051c-.312.309-.544.43-.99.432-.698-.006-1.065-.42-1.095-1.224h2.687v-.346c0-.605-.155-1.107-.45-1.46-.296-.354-.731-.55-1.264-.55-.525 0-.962.2-1.258.568-.297.368-.456.898-.456 1.556 0 .718.175 1.25.497 1.605.32.354.781.519 1.322.518m-6.493 6.191.016-.091h-.77l-.014.061c-.15.678-.624 1.105-1.309 1.108a1.31 1.31 0 0 1-.94-.383c-.341-.348-.383-.71-.384-1.926 0-1.215.043-1.578.383-1.926a1.31 1.31 0 0 1 .941-.383c.685.003 1.141.428 1.293 1.108l.013.061h.788l-.017-.091c-.196-1.12-1.007-1.789-2.077-1.785-.586 0-1.126.218-1.53.623-.567.569-.565 1.174-.564 2.393-.001 1.219-.003 1.824.565 2.393.403.404.943.623 1.53.623h.007c1.058 0 1.882-.667 2.07-1.785m3.587-.809v2.546h.74v-2.643c0-.466-.14-.857-.402-1.13-.263-.275-.645-.426-1.11-.425a1.513 1.513 0 0 0-1.04.375V50.98h-.74v5.936h.739V54.37c.007-.658.353-.97.918-.977.566.008.886.308.894.977m3.214 1.935c-.62-.013-.828-.184-.838-.603.01-.422.232-.618.814-.63h1.04v.354c0 .324-.065.528-.178.633-.23.222-.498.246-.838.246Zm-1.39-2.965-.043.057.514.473.05-.072c.228-.314.441-.417.942-.422.71.015.93.246.943.8v.303H32.96c-.458 0-.822.117-1.073.334-.252.215-.383.53-.382.897 0 .333.11.652.323.866.267.278.622.39 1.18.388h.022c.459 0 .764-.09 1.051-.33v.281h.738v-2.788c.002-.45-.138-.81-.424-1.051-.285-.24-.704-.358-1.249-.358-.655-.004-1.102.139-1.47.622m4.991 1.046c.004-.578.341-.99.878-.993.296.003.419.059.633.27l.056.055.055-.056.483-.494-.054-.054c-.296-.299-.62-.398-1.011-.396-.4 0-.785.144-1.04.397v-.349h-.739v4.15h.739m2.971-1.149c0 .31.09.597.275.809.185.211.465.34.823.34h.491v-.659h-.385c-.337-.01-.454-.165-.465-.507v-2.357h.85v-.602h-.85v-1.25h-.74v1.249h-.501v.603h.502m3.902-.025c.39 0 .716.217.859.553.078.193.096.295.111.558h-1.942c.015-.263.034-.365.111-.558a.913.913 0 0 1 .86-.553Zm1.676 2.898-.514-.452-.051.052c-.312.308-.545.429-.99.432-.699-.008-1.065-.422-1.095-1.225h2.687v-.345c0-.606-.155-1.108-.45-1.461-.296-.353-.731-.55-1.264-.55-.525 0-.961.2-1.258.568-.297.369-.456.898-.456 1.556 0 .718.175 1.251.496 1.605.321.354.782.52 1.323.519h.013c.689 0 1.093-.228 1.5-.64m1.797-1.939c.005-.578.342-.99.878-.993.296.003.42.059.634.27l.055.055.055-.056.483-.494-.054-.054c-.296-.299-.619-.398-1.01-.396-.4 0-.785.144-1.04.397v-.349h-.74v4.15h.74m4.999-2.437h-1.942c.016-.263.034-.365.112-.558a.913.913 0 0 1 .859-.553c.392 0 .718.217.86.553.078.193.096.295.111.558Zm-.971-1.761c-.525-.001-.961.198-1.258.567-.297.369-.456.898-.456 1.556 0 .718.175 1.251.497 1.605.32.354.782.52 1.323.519h.013c.688 0 1.092-.228 1.5-.64l.058-.06-.514-.451-.051.052c-.312.308-.544.429-.99.432-.698-.008-1.065-.422-1.095-1.225h2.687v-.345c0-.606-.155-1.108-.45-1.461-.295-.353-.731-.55-1.264-.55m5.14 2.124c0 .385-.034.758-.166 1.02-.133.262-.342.425-.753.429-.8-.002-.919-.665-.927-1.449.008-.784.127-1.447.927-1.448.41.003.62.166.753.427.132.263.166.636.166 1.021Zm0-3.86v2.12c-.307-.304-.661-.386-1.049-.383-.422 0-.797.142-1.027.371-.43.436-.507 1.121-.509 1.752.002.63.078 1.316.51 1.752.23.23.604.37 1.026.371h.016c.382 0 .736-.09 1.04-.397v.348h.731V50.98M23.252 64.892v-5.935h-.77v5.935h.077m2.548-2.537c.008-.668.346-.978.911-.986.565.008.893.308.902.986v2.537h.738v-2.634c.001-.478-.134-.876-.436-1.17-.259-.259-.63-.394-1.075-.394-.397 0-.757.125-1.04.376v-.328h-.738v4.15h.738m5.511-2.404-.64-.057c-.488-.05-.617-.203-.626-.507.004-.356.248-.57.813-.58.402 0 .748.095 1.014.301l.054.042.49-.491-.067-.055c-.376-.308-.904-.447-1.482-.447-.874 0-1.543.463-1.544 1.247-.007.697.467 1.092 1.262 1.149l.656.056c.445.05.584.196.593.507-.001.412-.338.622-.984.63-.481-.002-.885-.126-1.183-.44l-.055-.058-.5.502.056.055c.452.438 1.003.599 1.683.599h.007c.983-.002 1.696-.47 1.698-1.296.007-.79-.538-1.101-1.245-1.157m3.812 1.745h-.385c-.336-.01-.454-.164-.465-.507V61.37h.85v-.602h-.85v-1.25h-.738v1.25h-.503v.602h.502l.001 2.374c0 .31.09.598.275.809.183.211.464.34.82.34h.493m1.345-5.091a.448.448 0 0 0 0-.894.448.448 0 0 0 0 .894m.365.94h-.738v4.15h.738m2.956-3.522v-.603h-.85v-1.25h-.738v1.25h-.503v.602h.503v2.374c0 .31.089.598.274.809.185.211.464.34.82.34h.494v-.659h-.385c-.336-.01-.454-.164-.465-.507V61.37m4.34 1.91c-.008.667-.353.978-.918.985-.565-.008-.885-.307-.895-.985v-2.538h-.738v2.627c0 .476.126.882.429 1.177.26.26.638.395 1.082.395h.004c.396 0 .761-.132 1.045-.385v.336h.73v-4.15h-.739m2.837-1.225h-.738v1.25h-.502v.602h.502v2.374c0 .31.089.598.274.809.184.211.464.34.82.34h.494v-.659h-.385c-.336-.01-.454-.164-.465-.507V61.37h.85v-.602h-.85m4.15 1.687H47.63c.015-.263.033-.365.111-.558a.913.913 0 0 1 .86-.553.914.914 0 0 1 .86.554c.077.193.095.295.11.557Zm-.971-1.761c-.526-.001-.962.199-1.258.568-.298.368-.456.898-.456 1.556 0 .717.175 1.25.496 1.604.32.354.782.52 1.323.519h.013c.689 0 1.093-.228 1.5-.64l.059-.059-.514-.452-.052.052c-.311.308-.544.429-.99.432-.698-.007-1.064-.421-1.095-1.225h2.687v-.345c0-.606-.155-1.108-.45-1.461-.295-.353-.73-.55-1.263-.55m-25.818 6.564c-.184.211-.27.498-.27.809v.677h-.51v.602h.51v3.523h.738v-3.523h.85v-.602h-.85v-.661c.012-.345.121-.497.457-.507h.394v-.658h-.5c-.357-.001-.637.128-.82.34m4.469 3.536c.002.445-.03.92-.293 1.18a.946.946 0 0 1-.674.269.926.926 0 0 1-.666-.27c-.263-.259-.303-.735-.301-1.179-.002-.444.038-.92.3-1.178a.924.924 0 0 1 .667-.27.94.94 0 0 1 .674.27c.263.258.295.733.293 1.178Zm-.967-2.123c-.505 0-.909.187-1.197.477-.428.438-.509 1.025-.509 1.646 0 .622.08 1.208.509 1.646.288.29.692.478 1.197.478h.002c.504 0 .907-.188 1.195-.478l-.055-.055.056.055c.427-.438.508-1.024.508-1.646 0-.621-.08-1.208-.508-1.645a1.644 1.644 0 0 0-1.198-.478m4.383 0c-.4 0-.785.144-1.04.397v-.349h-.74v4.15h.74v-2.53c.004-.578.34-.99.878-.993.296.003.418.06.633.27l.055.055.056-.056.483-.494-.055-.054c-.296-.3-.619-.398-1.01-.396m3.583 4.198h.771v-5.935h-.77m1.692.707h1.669v5.228h.771V67.64h1.669v-.707h-4.109m15.752-50.388H43.4a5.273 5.273 0 0 0-3.546 1.36c-1.01.91-1.567 2.135-1.565 3.45v4.767c0 1.357.527 2.518 1.566 3.451a5.256 5.256 0 0 0 3.545 1.358h8.296c.569 0 .981-.408.981-.97v-.871c0-.562-.412-.97-.98-.97h-8.265c-1.332-.021-2.337-.88-2.337-1.998v-4.768c0-1.195 1.199-1.998 2.319-1.998h8.282c.56 0 .981-.417.981-.97v-.87c0-.563-.412-.97-.98-.97m16.068-.001h-9.821c-2.518 0-3.69 1.176-3.69 3.699v1.077c0 2.486 1.172 3.644 3.69 3.644h7.57c.505 0 .858.353.858.86v1.435a.83.83 0 0 1-.858.86H55.496c-.561 0-.968.408-.968.97v.871c0 .562.407.97.968.97h9.99c2.519 0 3.691-1.175 3.691-3.698v-1.381c0-2.523-1.172-3.698-3.69-3.698h-7.57a.83.83 0 0 1-.859-.86v-1.078c0-.498.36-.86.858-.86h9.849a.948.948 0 0 0 .968-.97v-.87c0-.563-.407-.97-.968-.97m-42.725 2.81h6.452c1.124 0 2.337.764 2.337 1.998v4.768c0 1.234-1.213 1.998-2.337 1.998H25.04v-8.764Zm0-9.356h-2.805v20.003c0 .52.431.928.981.928h8.297c1.316 0 2.546-.47 3.555-1.357a4.602 4.602 0 0 0 1.566-3.452v-4.768c0-1.316-.556-2.541-1.565-3.45a5.294 5.294 0 0 0-3.556-1.359H25.04"/></g></svg>