<svg viewBox="0 0 90 90" xmlns="http://www.w3.org/2000/svg"><g fill="none" fill-rule="evenodd"><path fill="#FFF" d="M0 0h90v90H0z"/><g stroke-linecap="round" stroke-linejoin="round"><path d="M44.58 6.432s-8.578 6.54-10.513 12.758c-1.93 6.183-.715 10.32 1.858 13.152 2.609 2.895 5.86 3.648 8.361 3.288 2.823-.393 6.005-2.752 7.112-6.144 1.108-3.432.787-7.363-.893-10.185-1.68-2.823-2.823-5.4-3.86-7.363-1.067-2.007-2.063-5.506-2.063-5.506h-.003ZM19.561 34.303s-.464 8.72 1.93 13.937c2.392 5.218 5.646 7.04 9.076 7.147 3.504.106 6.144-1.572 7.613-3.432 1.644-2.143 2.359-5.753 1.037-8.65-1.32-2.927-3.932-5.183-6.72-5.824-2.79-.641-6.47-.569-8.328-1.109-1.92-.576-4.608-2.074-4.608-2.074v.005Zm50.676-6.432s.463 8.434-1.92 13.44c-2.36 5.04-5.54 6.792-8.936 6.898-3.432.105-6.04-1.5-7.468-3.324-1.608-2.074-2.324-5.54-1.001-8.362 1.322-2.822 3.859-4.968 6.612-5.611 2.753-.643 6.36-.535 8.16-1.07 1.824-.48 4.502-1.968 4.502-1.968l.05-.003Z" fill="#71DD78"/><path d="M51.51 25.334c0 22.016-35.024 3.788-7.22-18.012 1.92 5.576 7.22 12.437 7.22 18.012Zm1.072 0c0-6.288-5.72-12.96-7.505-19.048L44.254 6c-31.344 23.8 8.328 42.991 8.328 19.334Z" fill="#2D9551"/><path d="M42.9 16.507s-1.789 4.608-1.789 8.076c0 3.468 1.392 7.008 1.392 7.008L42.04 24c-.108-2.966.857-7.469.857-7.469l.002-.024Z" fill="#349B6B"/><path d="M38.682 43.452c4.11 14.51-20.155 18.298-18.976-8.64 3.288 1.536 7.468 2.18 10.968 3 3.93.893 7.075 2.287 8.004 5.611l.004.029Zm1.037-.288c-2.179-7.68-14.832-6.072-20.62-9.326l-.073.463c-.964 31.627 24.84 23.479 20.693 8.863Z" fill="#2D9551"/><path d="M24.42 41.52s2.572 4.397 5.43 6.54c2.753 2.074 6.24 2.966 6.24 2.966l-6.127-4.106c-2.467-1.752-5.52-5.4-5.52-5.4h-.024Z" fill="#349B6B"/><path d="M50.44 36.413C46.365 50.53 71.74 58.5 70.775 27.869l-.787-.463c-5.611 3.108-17.405 1.572-19.548 9.004v.003Zm1.037.288c1.44-5.146 9.36-5.683 13.759-6.612 1.608-.36 3.18-.751 4.502-1.359.36 26.4-22.3 21.98-18.24 7.968l-.021.003Z" fill="#2D9551"/><path d="M54.405 43.848s3.252-1.2 6.11-3.324c3.288-2.465 5.218-6.48 5.218-6.48s-2.823 3.288-5.004 5.184c-2.287 2.074-6.327 4.646-6.327 4.646l.003-.026Z" fill="#349B6B"/><path d="M51.333 44.311s-2.88.607-3.6 2.143v5.386c.965-4.04 5.004-6.072 5.004-6.072l-1.404-1.457Zm-12.864 7.505s2.88.607 3.6 2.143v5.362c-.965-4.04-5.004-6.072-5.004-6.072l1.404-1.433Z" fill="#156C48"/><path d="M62.231 68.362c0 4.646-2.573 8.112-6.144 8.112-4.289 0-7.147-2.753-7.147-9.36 0-4.503 2.753-8.112 6.396-8.112 4.397-.036 6.898 2.359 6.898 9.36h-.003Zm7.469-1.248c0-8.506-5.647-14.51-12.972-14.51-3.895 0-6.36 2.322-7.824 4.396V41.455c0-3.396-1.93-5.004-4.718-5.004h-2.501v31.627c0 8.684 6.24 14.725 13.615 14.725 8.827.035 14.4-6.97 14.4-15.69Z" fill="#24723C"/></g></g></svg>