<svg xmlns="http://www.w3.org/2000/svg" viewBox="0 0 90 90"><path fill="#FFF" d="M0 0h90v90H0z"/><path d="M67.198 43.793H22.853a2.067 2.067 0 0 1-2.053-2.069V38.57c0-3.569 2.874-6.466 6.416-6.466h35.568c3.542 0 6.416 2.897 6.416 6.466v3.155c.051 1.138-.872 2.07-2.002 2.07ZM57.857 28.69H32.194a2.122 2.122 0 0 1-2.104-2.121c0-5.276 4.26-9.569 9.495-9.569h10.881c5.235 0 9.496 4.293 9.496 9.569 0 1.19-.924 2.12-2.105 2.12Zm11.394 18.517H20.8c-3.182 0-5.8 2.638-5.8 5.845s2.618 5.845 5.8 5.845h17.194c.616-3.31 3.49-5.845 6.98-5.845s6.416 2.534 7.032 5.845H69.2c3.182 0 5.8-2.638 5.8-5.845s-2.566-5.845-5.749-5.845ZM67.147 62.31H52.11V74H63.4c3.183 0 5.8-2.638 5.8-5.845v-3.724c.051-1.138-.872-2.12-2.053-2.12Zm-44.294 0c-1.13 0-2.104.931-2.104 2.121v3.724c0 3.207 2.617 5.845 5.8 5.845H37.84V62.31H22.853Z"/></svg>