<svg viewBox="0 0 90 90" xmlns="http://www.w3.org/2000/svg"><g fill="none"><path fill="#FFF" d="M0 0h90v90H0z"/><path d="M68.832 39.028c-4.516 0-7.942 3.206-7.942 7.527 0 4.292 3.288 7.445 7.942 7.445 4.653 0 8.025-3.206 8.025-7.5 0-4.295-3.315-7.472-8.025-7.472Zm.025 10.716c-1.93 0-3.294-1.36-3.294-3.212s1.422-3.248 3.294-3.248c1.948 0 3.331 1.36 3.331 3.229s-1.412 3.23-3.331 3.23ZM13.1 38.691c-4.516 0-7.942 3.212-7.942 7.533s3.288 7.446 7.944 7.446c4.624 0 8.03-3.203 8.03-7.501s-3.324-7.478-8.032-7.478Zm.023 10.716c-1.926.006-3.29-1.354-3.29-3.206 0-1.852 1.422-3.248 3.296-3.248 1.948 0 3.331 1.36 3.331 3.23 0 1.868-1.416 3.23-3.337 3.23v-.006Z" fill="#000"/><path fill="#F90E06" d="M60.434 39.38h-4.839l-4.151 14.267h4.058z"/><path d="M27.43 47.67c.108 1.238 1.326 2.294 3.003 2.294a3.693 3.693 0 0 0 2.97-1.478l2.977 2.243c-.405.817-2.353 3.06-6.039 3.06-4.675 0-7.55-3.14-7.55-7.229s2.82-7.299 6.993-7.299c4.52 0 6.982 2.823 6.982 7.544 0 .264 0 .555-.027.872l-9.31-.007Zm.136-2.798h4.599c-.055-1.108-.892-2.057-2.299-2.057-1.488 0-2.193 1.08-2.306 2.057h.006Z" fill="#000"/><path fill="#0663F9" d="M38.759 34h4.654v19.647h-4.654z"/><path fill="#000" d="M51.444 53.647h-1.35L45.078 39.38h4.989l2.758 9.455M5 34.015h4.621v19.647H5z"/><path d="M81.669 47.538c1.948 0 3.331 1.362 3.331 3.23 0 1.866-1.41 3.228-3.331 3.228-1.92 0-3.296-1.36-3.296-3.213 0-1.854 1.422-3.245 3.296-3.245Zm0 0c1.948 0 3.331 1.362 3.331 3.23 0 1.866-1.41 3.228-3.331 3.228-1.92 0-3.296-1.36-3.296-3.213 0-1.854 1.422-3.245 3.296-3.245Z" fill="#F9C806"/></g></svg>