<svg viewBox="0 0 90 90" xmlns="http://www.w3.org/2000/svg"><g fill="none" fill-rule="evenodd"><path fill="#0046BE" d="M0 0h90v90H0z"/><g fill-rule="nonzero"><path fill="#FFF200" d="M65.338 53.34h13.315v10.663h-13.32l-3.315-3.12v-4.398l3.32-3.145z"/><path d="M64.67 58.665a.657.657 0 0 1-.659.659.657.657 0 0 1-.658-.659c0-.365.293-.659.658-.659.362 0 .66.298.66.66Z" fill="#1D252C"/><path d="m23.947 33.429.259-.094c2.516-1.351 2.945-4.696.493-6.528-1.097-.875-2.588-1.313-4.484-1.313H12v16.834h8.7c2.231 0 6.85-.416 6.85-4.815-.003-3.362-3.523-4.055-3.603-4.084Zm-6.507-3.991h2.006c.74-.017 1.373.501 1.364 1.232.009.736-.629 1.25-1.364 1.233H17.44v-2.465Zm3.748 8.55c-.314.298-.71.443-1.181.443H17.44v-3.022h2.563c1.394-.076 2.24 1.615 1.185 2.58Zm7.345 13.98c2.515-1.352 2.945-4.697.492-6.529-1.096-.875-2.592-1.313-4.483-1.313h-8.203V60.96h8.683c2.231 0 6.851-.416 6.851-4.815 0-3.362-3.519-4.05-3.6-4.084l.26-.094Zm-4.76-3.898c.739-.017 1.372.501 1.368 1.232.004.736-.629 1.25-1.368 1.233h-1.99V48.07h1.99Zm.56 8.997h-2.55v-3.022h2.55c1.39-.076 2.236 1.615 1.182 2.58-.315.298-.71.442-1.181.442Zm9.015-18.827V35.6h6.642v-3.85h-6.642v-2.16h8.156v-4.1h-13.6v16.834h13.582V38.24h-8.138Zm22.057-12.75v4.097h4.45v12.737h5.41V29.587h4.45V25.49h-14.31Z" fill="#FFF"/><path d="M49.251 37.972c-1.19.99-3.434-.106-4.318-1.012l-3.213 3.052.204.204c2.852 2.813 8.866 3.65 11.892.94 2.482-1.96 2.563-6.172-.017-7.902-.974-.62-2.295-1.215-3.388-1.496-.556-.127-1.122-.31-1.5-.53-1.211-.651-.183-1.884.905-1.769 1.101 0 1.773.493 2.121.85l3.222-3.06-.06-.068c-2.596-2.592-8.177-2.988-10.888-.57-1.233 1.067-1.849 2.325-1.849 3.762-.068 3.544 3.039 4.773 5.878 5.606.603.255 1.394.412 1.462 1.05-.005.37-.153.684-.45.943ZM41.504 54.13c-.081 2.674-3.966 2.674-4.047 0v-10H32.01v9.745c-.013 4.148 3.485 7.455 7.616 7.276a7.273 7.273 0 0 0 7.276-7.276v-9.74h-5.398v9.995Zm14.709-4.27-3.57-5.726h-5.457l6.303 10.825v6.01h5.444v-6.014l6.303-10.82h-5.458l-3.565 5.724Z" fill="#FFF"/></g></g></svg>