<svg viewBox="0 0 90 90" xmlns="http://www.w3.org/2000/svg"><defs><linearGradient x1="50%" y1="0%" x2="50%" y2="100%" id="a"><stop stop-color="#2C2C2C" offset="0%"/><stop stop-color="#111" offset="100%"/></linearGradient></defs><g fill="none" fill-rule="evenodd"><path fill="url(#a)" d="M0 0h90v90H0z"/><g fill-rule="nonzero"><path d="M24.055 13.719c.461 0 .461 0 .476.455a2.054 2.054 0 0 1-.02.245c-.35 1.79-.7 3.581-1.053 5.372-.107.527-.2 1.056-.312 1.64.366-.222.672-.411.981-.595 1.368-.814 2.793-1.406 4.44-1.295 1.968.136 3.422 1.034 4.266 2.843.61 1.306.736 2.694.645 4.112l-.042.74c.172-.34.327-.69.464-1.048.394-.928.926-1.772 1.517-2.582l.257-.344a1.26 1.26 0 0 0 .107-.101 10.08 10.08 0 0 1 4.227-2.93 12.632 12.632 0 0 1 5.713-.752c1.007.108 1.948.425 2.859.85l.005.006c.716.413 1.406.86 1.973 1.473.895.973 1.276 2.149 1.345 3.438.05 1.104-.05 2.21-.296 3.288-.032.147-.046.316-.246.35a.259.259 0 0 0-.204-.049H40.662a1.37 1.37 0 0 0-.147.016l.011.06c-.26.066-.389.239-.436.499-.223 1.238-.485 2.47-.537 3.732a5.57 5.57 0 0 0 .155 1.749c.272.966.887 1.633 1.866 1.826 1.791.354 3.438.04 4.654-1.434.914-1.11 1.29-2.387.71-3.807-.06-.15-.094-.306.108-.346.654-.132 1.311-.323 1.975-.047.762.323 1.137.922 1.145 1.72.014 1.473-.644 2.65-1.769 3.55-1.36 1.093-2.937 1.73-4.654 2.032-1.22.215-2.448.183-3.67.056-1.736-.18-3.371-.671-4.767-1.781-1.504-1.191-2.212-2.793-2.345-4.66-.047-.652-.008-1.31-.082-1.978-.223.537-.44 1.074-.671 1.611-.794 1.831-1.849 3.473-3.445 4.723A8.436 8.436 0 0 1 25.203 38a1.851 1.851 0 0 1-.244.017c-.168-.082-.335.005-.504.005-3.395-.008-6.79-.008-10.183 0-.408 0-.815.009-1.272-.022.076-.113.148-.208.116-.323.977-1.622 1.315-3.444 1.67-5.264.538-2.778 1.102-5.553 1.65-8.33l.27-1.393.268-1.394c.019-.05.034-.1.045-.152.32-1.566.64-3.132.958-4.699a2.697 2.697 0 0 0 .009-1.596c-.052-.26-.108-.52-.156-.78-.048-.294.094-.352.365-.35 1.953.01 3.907 0 5.86 0Zm39.785-.707c.134.016.351-.006.364.15a.496.496 0 0 1-.223.48c-.15.09-.298.185-.44.286-1.225.86-1.89 2.094-2.331 3.477-.208.67-.38 1.352-.517 2.04-.067.326-.07.354.22.356h2.004c.314 0 .367.071.305.369-.09.43-.175.868-.265 1.3-.017.08-.027.168-.13.192h-2.22c-.091 0-.216-.061-.264.085-.203.17-.199.423-.244.645-.412 2.114-.82 4.226-1.224 6.338-.25 1.295-.474 2.595-.77 3.881-.065.28-.155.555-.216.837-.153.712.222 1.193.949 1.236.475.028.917-.117 1.36-.253.205-.062.304-.062.242.208-.53 2.294-2.601 3.943-4.925 3.855-1.423-.055-2.634-.565-3.386-1.866-.503-.87-.51-1.791-.322-2.756.644-3.318 1.254-6.64 1.876-9.963.007-.049.011-.098.012-.148l.027-.118c.108-.554.227-1.108.323-1.665.055-.314-.055-.43-.371-.394a4.225 4.225 0 0 1-.709.019c-.194-.013-.223-.098-.148-.263a.885.885 0 0 1 .246-.31c.454-.392.976-.688 1.454-1.047 1.06-.793 1.865-1.826 2.701-2.835 1.032-1.242 2.138-2.403 3.561-3.21.811-.46 1.653-.842 2.599-.926a2.23 2.23 0 0 1 .462 0Zm-23.122 14.27-.019.051c.026.01.054.017.082.02h4.022c.062 0 .124 0 .16-.066.34-.107.274-.422.33-.668.328-1.414.512-2.857.546-4.308.014-.83-.537-1.37-1.36-1.397-1.16-.041-1.962.505-2.483 1.504-.737 1.412-1.118 2.936-1.408 4.49-.028.15-.02.286.13.375Zm-19.832 9.106h.589a.95.95 0 0 0 .215-.037c1.852-.495 3.146-1.603 3.703-3.464.628-2.095 1.064-4.236 1.474-6.383a6.086 6.086 0 0 0-.228-3.106 1.182 1.182 0 0 0-1.034-.86c-.71-.096-1.32.134-1.84.618-.944.878-1.45 1.993-1.702 3.23-.399 1.95-.775 3.902-1.156 5.856-.252 1.289-.492 2.571-.752 3.855-.044.224 0 .31.236.297.164-.014.33-.006.495-.006Z" fill="#D42127"/><path d="M36.782 72.606c-1.084.074-2.16.15-3.245.076-1.96-.133-3.856-.51-5.597-1.464-.67-.367-1.278-.825-1.647-1.525-.562-1.066-.279-2.367.532-3.32 1.496-1.758 4.772-2.067 6.803-.509.242.18.461.39.651.625.212.266.2.418-.062.635-.261.217-.542.417-.759.693-.953 1.211-.443 2.868 1.037 3.293 1.292.37 2.369.053 3.288-.965 1.696-1.877 2.725-4.084 3.363-6.499.143-.542.253-1.094.363-1.644.036-.178.1-.42-.06-.524-.13-.084-.297.095-.434.189-1.322.933-2.751 1.64-4.338 1.983-1.926.415-3.84.434-5.718-.28-2.177-.823-3.762-3.06-3.822-5.382-.01-1.189.182-2.37.57-3.495.029-.087.047-.18.07-.27.04-.082.086-.163.12-.249a9.59 9.59 0 0 1 1.706-2.808c1.453-1.655 3.304-2.692 5.339-3.445a14.181 14.181 0 0 1 3.836-.794c1.621-.128 3.221-.042 4.798.388.766.228 1.507.533 2.212.91a.738.738 0 0 0 .108.101 9.405 9.405 0 0 1 2.225 1.939c.6.7 1.034 1.502 1.417 2.336.085.274.165.55.257.824.2.59.233 1.213.365 1.817l.021.672v.936c0 .209-.012.417-.018.625-.051.401-.089.805-.157 1.203-.102.603-.225 1.203-.339 1.804a.036.036 0 0 0-.008.047.772.772 0 0 0-.102.326l-.02.119-.746 2.132c-.177.318-.33.648-.46.987l.008-.007-.044.08a.03.03 0 0 0-.014.041 6.042 6.042 0 0 0-.488.898c-.15.19-.277.398-.377.618l-.882 1.248a3.74 3.74 0 0 0-.509.622l-.581.628a.03.03 0 0 0-.034.028 1.499 1.499 0 0 0-.325.344l-1.31 1.135a27.51 27.51 0 0 1-2.385 1.5l-1.126.503c-.406.13-.81.26-1.216.387-.73.224-1.503.326-2.266.488Zm6.634-19.472a10.998 10.998 0 0 0-.265-2.454c-.21-.94-.675-1.714-1.627-2.06-.75-.269-1.518-.218-2.271.021-1.118.348-1.858 1.143-2.478 2.084-.88 1.331-1.372 2.806-1.678 4.363-.288 1.464-.326 2.912.07 4.359.257.953.886 1.725 1.952 1.844 1.338.144 2.508-.262 3.447-1.193 1.934-1.91 2.82-4.268 2.85-6.968v.004Z" fill="#14B151"/><path d="m47.164 77.37-.181-.012a1.862 1.862 0 0 0-.57-.116l-.026-.014h-.028c-.108-.109-.348-.011-.376-.244l.068-.065.086-.065a.027.027 0 0 0 .036-.023l.254-.227a1.01 1.01 0 0 0 .381-.376.944.944 0 0 0 .318-.376h-.005a.068.068 0 0 0 .057-.073 3.17 3.17 0 0 0 .624-1.065 1.11 1.11 0 0 0 .096-.158c.486-1.193.651-2.466.894-3.72l.014-.116c.138-.495.241-.999.308-1.509.063-.048.049-.117.045-.183l.02-.184a15.44 15.44 0 0 0 .36-1.756l.007-.064a2.12 2.12 0 0 0 .131-.687 1.42 1.42 0 0 0 .127-.623c.204-.828.375-1.662.499-2.506l.014-.013-.008-.018c.197-.817.371-1.638.49-2.47a.04.04 0 0 0 .008-.053c.205-.808.369-1.626.49-2.45a.039.039 0 0 0 .01-.052c.078-.202.12-.417.124-.634.027-.087.06-.174.082-.264.205-.86.265-1.713-.084-2.553-.042-.316-.268-.564-.326-.876l.072-.082.627-.045h6.004c.253 0 .4.104.37.378-.108.229-.108.481-.162.723-.158.802-.303 1.606-.454 2.41a.043.043 0 0 0-.008.055c-.08.2-.122.414-.124.63-.243 1.015-.42 2.042-.61 3.067l-.016.185c-.12.39-.2.789-.243 1.193l-.006.062c-.072.18-.112.37-.116.564l-.013.109a15.61 15.61 0 0 0-.366 1.84c0 .023 0 .045-.008.068-.12.407-.202.824-.246 1.246a.042.042 0 0 0-.009.054 1.498 1.498 0 0 0-.115.572l-.006.061c-.25 1.013-.425 2.04-.613 3.067l-.013.123a8.35 8.35 0 0 0-.234 1.127l-.019.181c-.217.805-.325 1.627-.491 2.446a.037.037 0 0 0-.012.049.666.666 0 0 0-.108.325.033.033 0 0 0-.017.044c-.811 1.72-2.372 2.37-4.058 2.831-.434.118-.868.172-1.312.255l-.759.03h-.359l-.515-.023Zm28.584-19.894c0 .413.001.827.005 1.242-.3 2.236-.782 4.44-1.193 6.656-.183.976-.36 1.962-.542 2.942-.217 1.153-.078 2.301.017 3.45.031.388 0 .435-.398.435-1.697 0-3.394.002-5.09.006-.239 0-.478.013-.717.02-.414-.101-.472-.172-.514-.607a2.976 2.976 0 0 0-.055-.367c-.076-.338-.175-.396-.466-.217-.629.375-1.259.75-1.916 1.075l-.062.016-.247.108-1.193.37h-.029l-.025.013a2.81 2.81 0 0 0-.696.116l-.366.019h-.69l-.551-.022a2.784 2.784 0 0 0-.7-.116l-.025-.014-.028.005c-.488-.167-.987-.306-1.44-.566a4.42 4.42 0 0 1-2.009-2.432 1.757 1.757 0 0 0-.122-.562l-.01-.125c-.032-.569.05-1.13.129-1.689a.031.031 0 0 0 .01-.044c.174-.487.313-.986.552-1.45.424-.826 1.034-1.497 1.695-2.132l.077-.057.054-.054 1.256-.88.78-.384c.822-.406 1.698-.67 2.55-.998a.024.024 0 0 0 .037-.013.507.507 0 0 0 .122-.016c1.451-.507 2.904-1.01 4.326-1.597.541-.217.981-.63 1.233-1.157.348-.718.346-1.47.14-2.223-.086-.318-.325-.52-.636-.638a2.538 2.538 0 0 0-1.326-.1c-.83.135-1.267.683-1.245 1.527.007.249.06.495.08.743.033.394-.117.687-.487.856-.796.365-1.602.707-2.488.772-1.094.08-2.026-.24-2.627-1.211-.843-1.364-1.001-2.842-.666-4.39.048-.223.158-.278.351-.157.68.427 1.44.532 2.218.505a37.924 37.924 0 0 0 4.471-.453c1.418-.217 2.836-.274 4.26-.047.767.14 1.521.338 2.257.593.816.434 1.417 1.06 1.695 1.966.126.42.162.856.244 1.283Zm-6.865 3.828c-.596.235-1.16.418-1.66.744a10.645 10.645 0 0 0-2.974 2.936c-.726 1.055-1.158 2.178-.948 3.489.128.8.775 1.487 1.528 1.553.516.046.948-.205 1.376-.434.765-.417 1.323-1.014 1.464-1.904.238-1.501.572-2.984.855-4.477.115-.623.234-1.244.36-1.907Z" fill="#14B151"/><path d="M55.948 39.688a6.063 6.063 0 1 0 0 12.126 6.063 6.063 0 0 0 0-12.127Z" fill="#000"/><path d="M55.948 40.313a5.438 5.438 0 1 1 0 10.876 5.438 5.438 0 0 1 0-10.877Z" fill="#FFF"/><path d="M55.76 48.796a3.484 3.484 0 0 0 1.817 1.2l.217.053-.125.612a4.109 4.109 0 0 1-2.243-1.292l-.156-.185.49-.388Zm-2.752.171.46.424c-.14.15-.252.41-.36.816l-.047.183-.607-.146c.147-.611.302-1.003.554-1.277Zm7.563-2.338c.059.553-.014 1.051-.27 1.898l-.144.455-.176.524-.591-.202.164-.49.135-.424c.22-.723.297-1.16.27-1.581l-.01-.114.622-.066Zm-9.639-1.038c.16.377.413.574 1.012.831l.496.206-.248.574-.312-.129c-.8-.327-1.2-.584-1.46-1.102l-.063-.135.575-.245Zm7.691-.317.329.532c-.773.478-1.59.877-2.442 1.192l-.428.15-.198-.593a13.1 13.1 0 0 0 2.74-1.28Zm2.678-.19a1.3 1.3 0 0 1 .637.638l.05.123-.591.203a.681.681 0 0 0-.262-.342l-.097-.055.263-.567ZM54.07 42.39l.542.31c-.366.642-.465 1.502-.3 2.58l.047.275-.614.116c-.252-1.342-.157-2.44.325-3.28Zm-1.156-.832.147.608c-.558.135-1.083.482-1.542.96a4.308 4.308 0 0 0-.424.515l-.081.122-.026-.045-.23-.319-.12.614-.17-.235-.061-.092c-.037-.06-.04-.082-.023-.097l.027-.017.042-.085.078-.129.05-.074a4.93 4.93 0 0 1 .487-.59c.475-.496 1.02-.876 1.619-1.071l.227-.065Zm3.352.375.297-.55.393.212.208.116c.267.151.506.299.735.457.392.271.73.557 1.009.87l.16.19-.49.388c-.264-.333-.611-.641-1.034-.934a9.033 9.033 0 0 0-.688-.427l-.59-.322Zm3.764-.634c.357.62.566 1.103.65 1.59l.027.182-.621.068c-.044-.396-.196-.799-.483-1.325l-.114-.204.541-.311Zm-5.925-1.007.204.496-.578.238-.204-.496.578-.238Zm3.852-.222.259.058-.145.608c-.857-.204-1.534-.237-1.955-.109l-.109.04-.243-.576c.465-.197 1.126-.214 1.943-.07l.25.049Z" fill="#000"/><path d="M53.844 40.464a9.234 9.234 0 0 1 2.305-.179c.21.39.29.918.39 1.442-.897.355-1.755.711-2.311 1.04-.592-.304-.918-.375-1.606-.805.228-.541.64-1.04 1.222-1.498Zm6.552 2.541c.384.802.76 1.605.911 2.425-.36.542-.736 1.146-1.041 1.416-.493-.29-1.085-.766-1.66-1.193.014-.926.048-1.613.074-2.386.614-.154 1.205-.28 1.716-.262ZM50.31 46.847a5.748 5.748 0 0 1 .414-3.47l.138.037c-.188.817-.331 1.627-.143 2.365a1.87 1.87 0 0 0-.3 1.073l-.109-.005Zm3.706-1.44c.76.465 1.5.918 2.216 1.364-.064.843-.335 1.605-.556 2.386-.788.252-1.662.078-2.495.088-.617-.875-.713-1.614-.955-2.386a9.256 9.256 0 0 1 1.785-1.452h.005Zm6.148 4.25a5.748 5.748 0 0 1-3.115 1.736l-.256-.116c.304-.21.525-.564.707-.988.622-.04 1.461-.62 2.262-1.104.152.14.286.298.397.472h.005Zm-6.515 1.356a5.76 5.76 0 0 1-2.002-1.463c.38.346.694.65 1.142.678.045.216.268.46.854.785h.006Z" fill="#000"/></g></g></svg>