<svg viewBox="0 0 90 90" xmlns="http://www.w3.org/2000/svg"><defs><linearGradient x1="43.694%" y1="11.881%" x2="94.768%" y2="124.673%" id="a"><stop stop-color="#FFF" offset="0%"/><stop stop-color="#BCBECD" stop-opacity="0" offset="100%"/></linearGradient></defs><g fill="none" fill-rule="evenodd"><path fill="#0E153A" d="M0 0h90v90H0z"/><g fill-rule="nonzero"><path d="M30.023 33V2.508C30.023.15 27.04-.9 25.542.93L.57 31.422c-1.34 1.636-.167 4.08 1.957 4.08H27.5A2.513 2.513 0 0 0 30.023 33Z" fill="url(#a)" transform="translate(18 12)"/><path d="M70.472 42.497H45.5A2.513 2.513 0 0 0 42.977 45v30.492c0 2.357 2.983 3.407 4.48 1.578L72.43 46.578c1.34-1.635.167-4.08-1.958-4.08Z" fill="#FFF"/></g></g></svg>