<svg viewBox="0 0 90 90" xmlns="http://www.w3.org/2000/svg"><g fill="none" fill-rule="evenodd"><path fill="#F50" d="M0 0h90v90H0z"/><path d="m39.522 21 .034.01c.038.016.067.06.067.105v12.643c0 .127.105.232.231.232v.007H55.02c.06 0 .127.06.127.127l-.015 35.1a.118.118 0 0 1-.12.119H36.815c-5.41 0-9.814-4.414-9.814-9.843V33.908c0-.217.134-.553.29-.71l4.278-4.286a.112.112 0 0 1 .127-.023c.037.015.067.06.067.105v29.11c0 3.562 2.891 6.46 6.446 6.46h11.908a.232.232 0 0 0 .23-.232v-2.27a.599.599 0 0 0-.595-.598H38.208a3.362 3.362 0 0 1-3.354-3.36V41.988c0-.03.015-.06.038-.082a.12.12 0 0 1 .082-.037H49.75a.599.599 0 0 0 .596-.598v-2.263a.232.232 0 0 0-.231-.231H34.974a.118.118 0 0 1-.12-.12V26.03c0-.216.142-.552.298-.71l4.278-4.286a.112.112 0 0 1 .126-.022Zm18.783 15.507c.045-.023.09-.015.127.022l4.277 4.287c.157.156.291.492.291.717v20.252c0 .224-.134.553-.29.71l-4.278 4.286a.12.12 0 0 1-.082.038c-.015 0-.03 0-.045-.008a.117.117 0 0 1-.067-.104V36.61c0-.045.023-.09.067-.104Zm-8.547 10.141h-9.509a.599.599 0 0 0-.596.597v9.2c0 .128.105.232.231.232h9.867a.599.599 0 0 0 .596-.597v-8.835a.592.592 0 0 0-.589-.597Z" fill="#FFF" fill-rule="nonzero"/></g></svg>