<svg viewBox="0 0 90 90" xmlns="http://www.w3.org/2000/svg"><defs><linearGradient x1="50%" y1="0%" x2="50%" y2="100%" id="a"><stop stop-color="#C93D34" offset="0%"/><stop stop-color="#7A2629" offset="100%"/></linearGradient></defs><g fill="none" fill-rule="evenodd"><path d="M90 19.908C90 8.92 81.08 0 70.092 0H19.908C8.92 0 0 8.92 0 19.908v50.184C0 81.08 8.92 90 19.908 90h50.184C81.08 90 90 81.08 90 70.092V19.908Z" fill="url(#a)"/><path d="M20.675 85.2H60.4c9.2 0 15.15.35 20.651-5.2 4.725-4.725 4.326-12.676 4.625-18.976-5.324 8-15.1 7.726-22.65 7.726H14.503c-13.199.024-8.124 16.45 6.175 16.45h-.002Z" fill="#FEF5EB"/><path fill="#FF3D4D" fill-rule="nonzero" d="M16.525 70.85h14.1v10.575l-7.05-3.524-7.05 3.524z"/><path d="M38.547 30.74c.949.574 2.05.85 3.299.85 1.2 0 2.301-.3 3.25-.927.976-.623 1.7-1.499 2.226-2.6.55-1.124.8-2.399.8-3.8 0-1.448-.25-2.724-.776-3.798-.523-1.076-1.25-1.9-2.199-2.475-.95-.575-2.051-.851-3.277-.851-1.198 0-2.299.3-3.274.924-.95.626-1.7 1.502-2.224 2.6-.525 1.125-.775 2.402-.775 3.8 0 1.45.25 2.725.775 3.801.5 1.076 1.223 1.9 2.175 2.475Zm-.526-6.35c0-1.276.151-2.401.477-3.375.323-.976.773-1.726 1.35-2.225.574-.526 1.223-.776 1.949-.776.724 0 1.35.25 1.95.751.598.5 1.075 1.223 1.425 2.199.374.951.55 2.076.55 3.375 0 1.274-.176 2.4-.501 3.375-.325.976-.775 1.724-1.35 2.25-.55.501-1.199.775-1.95.775-.726 0-1.35-.25-1.949-.75-.601-.5-1.076-1.226-1.45-2.2-.325-1-.501-2.125-.501-3.399Zm33.774 25.648a21.384 21.384 0 0 1-.075-3.725l.026-.3h-.975l-.025.249c-.076.9-.225 1.55-.4 1.976a1.79 1.79 0 0 1-.776.875c-.35.174-.9.275-1.65.275h-1.375c-.45 0-.749-.025-.925-.074a.4.4 0 0 1-.25-.276c-.05-.174-.1-.475-.1-.95v-4.274h.976c.45 0 .775.124 1 .323.225.2.375.55.45 1.027.074.523.099.824.125.924l.025.225h.924l-.024-.276c-.076-1.15-.125-2.05-.125-2.673v-.9c0-.65.024-1.252.049-1.776l.025-.276h-.95l-.024.225-.051.376c-.05.424-.125.776-.199 1.025a1.032 1.032 0 0 1-.4.6c-.176.149-.45.249-.851.249h-.974v-4.2c0-.474.049-.774.1-.948.05-.152.125-.225.25-.252.174-.049.474-.1.924-.1h1.575c.65 0 1.1.1 1.375.251.251.15.45.375.575.724.126.35.251.952.325 1.751l.026.25h.974l-.05-.3a12.483 12.483 0 0 1-.05-1.15c0-.65.05-1.375.125-2.201l.026-.299H61.396v.9l.25.025c.45.024.749.075.9.124.15.052.225.125.274.277.051.174.1.474.1.949v9.35c0 .474-.049.775-.1.95a.38.38 0 0 1-.274.275c-.151.05-.45.1-.9.125l-.25.024v.9h10.4v-.274Zm-11.675-18.7-.025-.3c-.1-.9-.124-1.7-.124-2.4 0-.65.024-1.15.049-1.526l.024-.298h-.973l-.027.25c-.098.924-.223 1.599-.399 2.073-.176.45-.425.751-.8.952-.35.174-.9.3-1.65.3H54.82c-.45 0-.75-.026-.924-.075a.404.404 0 0 1-.252-.276c-.049-.174-.098-.475-.098-.95v-9.45c0-.474.049-.775.098-.949a.404.404 0 0 1 .252-.276c.174-.049.474-.1.924-.125l.25-.024v-.9h-5.376v.924l.252.025c.45.024.749.076.9.125a.38.38 0 0 1 .274.276c.05.174.1.474.1.949v9.376c0 .475-.05.773-.1.95a.38.38 0 0 1-.274.273c-.151.052-.45.1-.9.127l-.252.025v.9l10.426.024ZM28.47 43.99c-.498-.526-1.274-.9-2.25-1.125.627-.275 1.126-.65 1.475-1.1.502-.625.751-1.35.751-2.126 0-.974-.374-1.774-1.15-2.375-.75-.6-1.8-.875-3.125-.875-.3 0-5.451-.05-5.451-.05v.925l.252.027c.45.024.748.073.9.124a.38.38 0 0 1 .274.275c.049.175.1.474.1.95v9.4c0 .474-.051.775-.1.95a.38.38 0 0 1-.274.275c-.152.049-.45.1-.9.125l-.252.024v.927s5.527-.027 5.877-.027c.973 0 1.8-.15 2.524-.474a3.867 3.867 0 0 0 1.675-1.4c.4-.6.6-1.3.6-2.051.05-.95-.275-1.749-.925-2.4Zm-5.898-5.35c0-.45.049-.75.1-.95.049-.174.15-.25.25-.326.149-.073.398-.1.775-.1.9 0 1.474.225 1.824.601.35.4.55 1.025.55 1.95 0 .9-.2 1.575-.574 2.1-.326.45-.952.725-1.952.725h-1v-4.001h.027v.002Zm3.624 9.95c-.526.499-1.325.75-2.475.75-.374 0-.65-.026-.8-.1-.124-.05-.2-.151-.25-.3-.05-.174-.1-.475-.1-.925V43.49h1.324c1.152 0 1.927.25 2.377.7.474.45.724 1.125.724 2.074 0 1.1-.274 1.851-.8 2.326Zm21.274-4.6s-.024 0 0 0c-.024 0-.024 0 0 0-.498-.526-1.273-.9-2.25-1.125.627-.275 1.126-.65 1.476-1.1.5-.625.75-1.35.75-2.126 0-.974-.374-1.774-1.15-2.375-.75-.6-1.8-.875-3.125-.875-.3 0-5.45-.05-5.45-.05v.925l.25.027c.45.024.75.073.9.124a.38.38 0 0 1 .275.275c.049.175.1.474.1.95v9.4c0 .474-.051.775-.1.95a.38.38 0 0 1-.274.275c-.152.049-.45.1-.9.125l-.252.024v.927s5.525-.027 5.877-.027c.973 0 1.8-.15 2.524-.474a3.867 3.867 0 0 0 1.675-1.4c.399-.6.6-1.3.6-2.051.024-.95-.3-1.749-.925-2.4Zm-5.898-5.35c0-.45.049-.75.1-.95.05-.174.15-.25.25-.326.149-.073.398-.1.775-.1.9 0 1.475.225 1.824.601.35.4.55 1.025.55 1.95 0 .9-.2 1.575-.574 2.1-.325.45-.951.725-1.952.725h-1v-4.001h.027v.002Zm3.624 9.95c-.525.499-1.325.75-2.475.75-.4 0-.65-.026-.8-.1-.124-.05-.2-.151-.249-.3-.051-.174-.1-.475-.1-.925V43.49h1.323c1.152 0 1.925.25 2.377.7.475.45.724 1.125.724 2.074 0 1.1-.274 1.851-.8 2.326ZM30.87 36.34v.924l.25.027c.45.024.75.073.9.124.149.05.225.125.276.275.049.175.098.474.098.95v9.4c0 .474-.05.775-.098.95a.386.386 0 0 1-.276.275c-.15.049-.45.1-.9.125l-.25.024v.927h5.375v-.9l-.25-.027c-.45-.024-.75-.074-.926-.125-.124-.049-.198-.124-.25-.274-.048-.176-.1-.474-.1-.95v-9.4c0-.474.052-.775.1-.95.052-.15.126-.226.25-.275.176-.051.475-.1.927-.125l.25-.024v-.902l-5.376-.05Zm-4.774-5.002v-.9l-.25-.024c-.45-.025-.75-.076-.924-.125-.127-.051-.2-.125-.252-.276-.049-.174-.1-.475-.1-.95v-4.299h5.625v4.275c0 .475-.05.776-.098.95a.392.392 0 0 1-.276.276c-.15.049-.45.098-.9.124l-.25.025v.9h5.376v-.925l-.252-.026c-.45-.025-.749-.074-.925-.125a.393.393 0 0 1-.25-.274c-.048-.176-.1-.475-.1-.951v-9.375c0-.474.052-.775.1-.949a.397.397 0 0 1 .25-.276c.176-.049.475-.1.925-.125l.252-.024v-.925H28.67v.9l.25.025c.45.024.75.073.9.125a.385.385 0 0 1 .276.274c.049.176.098.476.098.95v4.2H24.57v-4.175c0-.474.051-.775.1-.949a.4.4 0 0 1 .252-.276c.174-.049.474-.1.924-.125l.25-.024v-.9H20.72v.924l.25.025c.45.024.75.076.9.125a.385.385 0 0 1 .276.276c.05.174.1.474.1.949v9.376c0 .475-.05.776-.1.95a.389.389 0 0 1-.276.276c-.15.049-.45.098-.9.124l-.25.025v.924h5.376Zm33.601-12.874c.149.125.325.35.55.774l3.825 7.05v2.751c0 .475-.051.773-.1.95a.38.38 0 0 1-.275.273c-.15.052-.45.1-.902.127l-.25.025v.924l5.076-.024.276.024v-.9l-.25-.024c-.45-.025-.75-.076-.926-.125a.401.401 0 0 1-.25-.276c-.049-.174-.1-.475-.1-.95V25.69l2.95-5.85c.276-.526.525-.9.726-1.125.225-.25.425-.377.599-.426l.2-.049v-.875h-3.85l-.275-.025v.9h.251c.55 0 .9.098 1.125.225.174.099.274.25.274.524 0 .35-.149.85-.474 1.501l-2.201 4.349-2.9-5.55a1.07 1.07 0 0 1-.15-.55.35.35 0 0 1 .051-.175.26.26 0 0 1 .15-.125c.149-.1.45-.15.875-.15h.274v-.949h-4.85v.974h.276c.025 0 .125.024.275.151Zm.398 29.175c0-.65.025-1.15.05-1.524l.026-.3h-.976l-.024.249c-.1.924-.225 1.6-.401 2.076-.174.45-.423.748-.775.949-.35.176-.9.3-1.649.3H54.97c-.448 0-.75-.026-.925-.075a.393.393 0 0 1-.25-.274c-.049-.176-.1-.477-.1-.951v-9.4c0-.476.051-.774.1-.95a.393.393 0 0 1 .25-.274c.176-.052.475-.1.925-.125l.251-.027v-.9h-5.375v.927l.25.024c.45.025.75.074.9.125.149.05.224.125.275.274.05.176.099.475.099.951v9.326c0 .474-.05.775-.099.949a.392.392 0 0 1-.276.276c-.15.049-.45.098-.9.125l-.25.024v.9h10.4l-.025-.3a28.333 28.333 0 0 1-.125-2.375Z" fill="#FEF5EB" fill-rule="nonzero"/></g></svg>