<svg viewBox="0 0 90 90" xmlns="http://www.w3.org/2000/svg"><defs><linearGradient x1="-1.41%" y1="4999.738%" x2="10005.336%" y2="4999.738%" id="a"><stop stop-color="#9588FF" offset="0%"/><stop stop-color="#6D3CFF" offset="100%"/></linearGradient><linearGradient x1="-2.809%" y1="4999.292%" x2="10005.347%" y2="4999.292%" id="b"><stop stop-color="#C188FF" offset="0%"/><stop stop-color="#8D50FF" offset="100%"/></linearGradient></defs><g fill="none"><path d="M56.702 30.895C62.968 35.726 67.031 43.331 67 51.85c0 14.535-11.732 26.348-26.175 26.348-14.443 0-26.164-11.813-26.164-26.348v-.768l.728-49.62c0-.56.29-1.07.81-1.298a1.477 1.477 0 0 1 1.496.187l38.852 30.44c.083.031.114.073.155.104Zm-39.007 8.56c4.437-8.3 13.124-13.983 23.13-13.983 1.684 0 3.305.156 4.874.447L18.215 4.413l-.52 35.043Zm23.13 35.823c12.864 0 23.317-10.514 23.276-23.428 0-12.945-10.485-23.459-23.307-23.459-12.614 0-22.911 10.14-23.275 22.763v.696c.031 12.914 10.484 23.428 23.306 23.428Z" fill="url(#a)" transform="translate(12)"/><path d="M18.028.641a1.49 1.49 0 0 1-.405 2.037L3.909 11.82 41.085 42s0 .042.031.042c6.785 4.758 11.253 12.685 11.222 21.62C52.338 78.198 40.608 90 26.164 90 11.72 90 0 78.198 0 63.663v-.706l.072-51.008a1.476 1.476 0 0 1 .624-1.49L16.012.236a1.473 1.473 0 0 1 2.016.405Zm-15.14 50.95c4.323-8.478 13.166-14.306 23.276-14.306 1.766 0 3.48.176 5.175.509L2.93 14.74l-.04 36.85Zm46.593 12.03c0-12.945-10.484-23.459-23.317-23.459-12.864 0-23.307 10.546-23.307 23.46 0 12.945 10.485 23.469 23.307 23.469 12.864 0 23.317-10.524 23.317-23.47Z" fill="url(#b)" transform="translate(12)"/></g></svg>