<svg viewBox="0 0 90 90" xmlns="http://www.w3.org/2000/svg"><g fill="none"><path fill="#FFF" d="M0 0h90v90H0z"/><path d="M51.151 89.712C68.845 79.572 78.46 74.078 79.994 73.23 82.295 71.958 87 67.94 87 61.937V28.923c0-3.001-.767-7.58-5.216-10.428-4.45-2.85-26.49-15.363-30.582-17.398-4.091-2.035-14.83-2.289-14.83 8.699v38.203c0 4.73 4.193 8.698 8.744 8.698 4.552 0 10.484-2.848 10.484-11.293 0-6.155-5.267-7.986-7.875-8.698-2.609-.712-4.859-1.475-6.137-1.73-1.279-.254-2.608-1.017-2.608-3.459v-5.189c0-1.322-.103-3.713 3.477-2.594 3.58 1.12 9.666 2.849 12.223 3.46 2.557.61 13.091 5.595 13.091 18.261.052 12.412-10.023 22.536-22.501 22.586h-.205c-12.529 0-20.967-10.275-20.967-19.991V25.464c0-4.477-5.932-9.564-9.614-9.564C10.802 15.9 4 22.462 4 27.193v33.88c0 4.883 2.046 9.257 7.006 12.157 4.96 2.9 24.905 13.887 27.923 15.617 2.011 1.153 6.085 1.441 12.222.865Z" fill="#5BD9FC"/></g></svg>