<svg viewBox="0 0 90 90" xmlns="http://www.w3.org/2000/svg"><g fill="none"><path fill="#FFF" d="M0 0h90v90H0z"/><path d="M69.565 43.413c-.964-2.631-2.24-4.851-3.843-6.647-1.596-1.794-3.455-3.18-5.563-4.14a15.828 15.828 0 0 0-6.626-1.44l-13.436 9.436V10H36.36L21 12.735l.382 3.326 5.28-.479v60.57c2.434 1.092 5.194 2.004 8.301 2.742C38.066 79.63 41.637 80 45.668 80 62.56 76.987 71 67.744 71 52.272c0-3.277-.478-6.229-1.435-8.859ZM53.776 71.238c-1.886 3.278-4.308 4.914-7.249 4.914-2.754 0-4.89-.996-6.43-2.986V44.374l1.824-1.253a27.97 27.97 0 0 1 3.31-1.92 7.69 7.69 0 0 1 3.413-.774c2.366 0 4.28 1.288 5.757 3.849 1.47 2.569 2.206 6.841 2.206 12.814 0 6.159-.943 10.877-2.83 14.148Z" fill="#171717"/></g></svg>