<svg viewBox="0 0 90 90" xmlns="http://www.w3.org/2000/svg"><g fill="none" fill-rule="evenodd"><path fill="#EF7E19" d="M0 0h90v90H0z"/><g fill-rule="nonzero"><path d="M40.835 30.023V13.66l16.759 12.338c3.497 2.573 5.872 6.268 6.796 10.49-3.761-4.486-8.842-6.4-12.272-6.465H40.835Z" fill="#F6B881"/><path d="M51.854 61.825c-.132 1.98-1.782 3.497-3.761 3.497H37.404V44.736h10.689c1.98 0 3.629 1.518 3.76 3.497v13.592ZM37.47 33.52V13.132H25v63.604h26.128a13.39 13.39 0 0 0 9.435-3.893 13.275 13.275 0 0 0 3.893-9.435v-16.56c0-7.324-5.938-13.262-13.328-13.262H37.47v-.066Z" fill="#FFF"/></g></g></svg>