<svg viewBox="0 0 90 90" xmlns="http://www.w3.org/2000/svg"><defs><radialGradient cx="50.004%" cy="50%" fx="50.004%" fy="50%" r="43.958%" gradientTransform="matrix(.79688 0 0 1 .102 0)" id="a"><stop stop-color="#2A54FF" offset="0%"/><stop stop-color="#2A54FF" stop-opacity="0" offset="100%"/></radialGradient></defs><g fill="none"><path fill="#2A54FF" d="M0 0h90v90H0z"/><path d="M77 19a43.928 43.928 0 0 0-21.13 5.414 44.107 44.107 0 0 0-16.886 16.51 30.384 30.384 0 0 1-1.819 2.794c-.085.118-.168.234-.26.349-5.72 7.58-14.432 11.927-23.905 11.927V70a43.928 43.928 0 0 0 21.13-5.414 44.25 44.25 0 0 0 11.401-9.003 44.207 44.207 0 0 0 5.482-7.504l.104-.174a30.522 30.522 0 0 1 1.715-2.62c.085-.115.17-.234.262-.355C58.813 37.352 67.527 33.003 77 33.003V19Z" fill="#FFF"/><path d="M64 0a43.928 43.928 0 0 0-21.13 5.414 44.107 44.107 0 0 0-16.886 16.51 30.384 30.384 0 0 1-1.819 2.794c-.085.118-.168.234-.26.349C18.186 32.647 9.474 36.994 0 36.994V51a43.928 43.928 0 0 0 21.13-5.414 44.25 44.25 0 0 0 11.401-9.003 44.207 44.207 0 0 0 5.482-7.504l.104-.174a30.522 30.522 0 0 1 1.715-2.62c.085-.115.17-.234.262-.355C45.813 18.352 54.527 14.003 64 14.003V0Z" fill="url(#a)" opacity=".2" transform="translate(13 19)"/><path d="M77 55.994c-9.473 0-18.187-4.346-23.908-11.927-.086-.115-.175-.23-.26-.355a29.4 29.4 0 0 1-1.816-2.791 44.36 44.36 0 0 0-5.487-7.504 45.887 45.887 0 0 0-1.94-2.002 43.912 43.912 0 0 0-9.458-6.998A43.928 43.928 0 0 0 13 19.003v14.006c9.473 0 18.187 4.346 23.908 11.927.09.115.175.234.26.35a30.09 30.09 0 0 1 1.712 2.613l.11.183a44.393 44.393 0 0 0 5.482 7.501 44.62 44.62 0 0 0 1.939 2.002 44.118 44.118 0 0 0 9.458 6.998A43.93 43.93 0 0 0 77 69.997V55.994Z" fill="#FFF"/></g></svg>