<svg viewBox="0 0 90 90" xmlns="http://www.w3.org/2000/svg"><defs><linearGradient x1="0%" y1="0%" x2="100%" y2="100%" id="a"><stop stop-color="#FF5858" offset="0%"/><stop stop-color="#EB588C" offset="43.393%"/><stop stop-color="#BF58FF" offset="100%"/></linearGradient></defs><g fill="none"><path fill="url(#a)" d="M0 0h90v90H0z"/><path d="M74.623 48.408 69.564 60.83l5.059 12.738h-6.086L63.676 60.83l4.86-12.422h6.087Zm-11.066 0v25.16h-5.611v-25.16h5.611Zm-43.3 0v21.007h7.232v4.153H14.645v-25.16h5.612Zm14.783 0v25.16h-5.61v-25.16h5.611Zm8.785 0 5.414 15.033V48.408h5.177v25.16h-5.059l-5.493-15.072v15.072h-5.137v-25.16h5.098Zm-18.77-30.84c3.346 0 5.02 1.451 5.02 4.352v4.43c0 1.953-.593 3.179-1.779 3.68 1.186.448 1.778 1.582 1.778 3.402v4.906c0 2.927-1.673 4.39-5.018 4.39H14.623v-25.16h10.433Zm14.092 0v25.16h-5.611v-25.16h5.611Zm13.843 0c3.32 0 4.98 1.451 4.98 4.352v16.418c0 2.927-1.66 4.39-4.98 4.39h-5.296c-3.345 0-5.018-1.463-5.018-4.39V21.92c0-2.901 1.673-4.352 5.018-4.352h5.296Zm11.909 18.05a3.41 3.41 0 0 1 3.408 3.412v.22a3.41 3.41 0 0 1-3.408 3.412 3.41 3.41 0 0 1-3.409-3.412v-.22a3.41 3.41 0 0 1 3.409-3.412Zm-41.464-3.61h-3.24v6.844h3.24c.712 0 1.067-.33 1.067-.99v-4.905c0-.342-.079-.58-.237-.712-.158-.158-.435-.237-.83-.237Zm27.856-10.286h-1.897c-.712 0-1.067.33-1.067.99v14.874c0 .66.355.989 1.067.989h1.897c.685 0 1.027-.33 1.027-.989V22.711c0-.66-.342-.989-1.027-.989Zm-27.856-.277h-3.24v6.686h3.24c.712 0 1.067-.33 1.067-.989v-4.708c0-.659-.355-.989-1.067-.989Z" fill="#FFF"/></g></svg>