<svg viewBox="0 0 90 90" xmlns="http://www.w3.org/2000/svg"><defs><linearGradient x1="50%" y1="0%" x2="50%" y2="100%" id="a"><stop stop-color="#4293FF" offset="0%"/><stop stop-color="#207FFF" offset="100%"/></linearGradient><linearGradient x1="71.896%" y1="8.824%" x2="25.703%" y2="63.807%" id="b"><stop stop-color="#FFF" offset="0%"/><stop stop-color="#FCFCFD" stop-opacity=".75" offset="100%"/></linearGradient><linearGradient x1="50%" y1="0%" x2="50%" y2="100%" id="c"><stop stop-color="#4293FF" offset="0%"/><stop stop-color="#207FFF" offset="100%"/></linearGradient><linearGradient x1="50%" y1="0%" x2="50%" y2="100%" id="d"><stop stop-color="#4092FF" offset="0%"/><stop stop-color="#0568EC" offset="100%"/></linearGradient></defs><g fill="none"><rect fill="url(#a)" x="2" y="2" width="86" height="86" rx="20"/><path d="M33.854 22.138a6.547 6.547 0 0 0-6.547 6.547V61.42a6.547 6.547 0 0 0 6.547 6.547h18.062c7.231 0 13.094-5.862 13.094-13.094 0-3.911-1.715-7.422-4.434-9.821a13.062 13.062 0 0 0 4.434-9.821c0-7.232-5.863-13.094-13.094-13.094H33.854Z" fill="url(#b)"/><path d="M36.219 32.61a2.489 2.489 0 0 1 2.489-2.49h3.699a6.257 6.257 0 1 1 0 12.514h-3.7a2.489 2.489 0 0 1-2.488-2.489V32.61Z" fill="url(#c)"/><path d="M68.226 0H21.774C9.75 0 0 9.749 0 21.774v46.452C0 80.25 9.749 90 21.774 90h46.452C80.25 90 90 80.251 90 68.226V21.774C90 9.75 80.251 0 68.226 0ZM21.924 4h46.152C77.975 4 86 12.025 86 21.924v46.152C86 77.975 77.975 86 68.076 86H21.924C12.025 86 4 77.975 4 68.076V21.924C4 12.025 12.025 4 21.924 4Z" fill="url(#d)"/></g></svg>