<svg viewBox="0 0 90 90" xmlns="http://www.w3.org/2000/svg"><g fill="none"><path d="M44.134 88a9.685 9.685 0 0 1-4.447-1.09L8.993 70.865a7.394 7.394 0 0 1-3.972-6.577L5 25.753a7.394 7.394 0 0 1 3.971-6.576L39.751 3.09A9.586 9.586 0 0 1 44.196 2c1.542 0 3.084.381 4.447 1.09l32.384 16.923A7.39 7.39 0 0 1 85 26.58v36.778a7.365 7.365 0 0 1-3.961 6.577L48.581 86.899a9.685 9.685 0 0 1-4.447 1.09V88Z" fill="#FFF"/><path d="M44.134 84.823a6.452 6.452 0 0 1-2.979-.73L10.461 68.048a4.247 4.247 0 0 1-2.271-3.76l-.021-38.536c0-1.578.876-3.029 2.27-3.76L41.22 5.909a6.517 6.517 0 0 1 2.978-.731c1.025 0 2.07.254 2.979.73L79.55 22.83a4.247 4.247 0 0 1 2.27 3.76v36.778a4.198 4.198 0 0 1-2.26 3.76L47.102 84.091a6.484 6.484 0 0 1-2.979.731h.01Z" fill="#0D1129"/><path d="M77.627 62.659c0 .391-.221.762-.57.942l-8.387 4.384-6.622-2.488v5.951l-11.07 5.782a14.732 14.732 0 0 1-13.678 0L12.985 64.522c-.359-.18-.57-.54-.57-.932l-.021-37.255c0-.391.222-.762.57-.942l24.4-12.75a14.732 14.732 0 0 1 13.678 0l11.048 5.771v5.952l6.623-2.489 8.323 4.353c.359.18.57.54.57.931l.021 35.498Z" fill="#03DDFF"/><path d="M76.149 27.585v34.703l-7.024 3.675V50.745a.534.534 0 0 0-.57-.53l-7.648.562a.53.53 0 0 0-.486.53v19.22l-8.946 4.67-2.852 1.493s1.531-2.203 1.722-6.248V54.388s.147-6.015-4.775-9.32c4.922-3.293 4.775-9.308 4.775-9.308V20.278c0-4.564-1.743-7.074-1.743-7.074l1.743.91 1.109.583 8.967 4.68v18.13a.53.53 0 0 0 .486.53l7.647.55a.534.534 0 0 0 .57-.529V23.932l7.025 3.664v-.011Zm-37.465 9.647v-8.43a.822.822 0 0 0-1.035-.793l-4.162 1.133-3.232.868-9.116 2.468-2.344.635-.951.254v7.593l.95-.117 2.345-.275 9.116-1.059 3.232-.381 2.155-.244 1.764-.211a1.452 1.452 0 0 0 1.278-1.44Zm-1.331-1.397-1.711.285-2.155.35-3.232.53-9.116 1.493-2.344.38v-3.896l2.344-.562 9.116-2.202 3.232-.773 2.155-.52 1.71-.412v5.327Z" fill="#0D1129"/><path fill="#0D1129" d="M30.255 33.748v1.769l-9.116 1.652V35.76zm5.387-1.186v1.98l-2.155.382v-1.885zm1.774 19.178-1.764-.211-2.155-.244-3.232-.381-9.115-1.06-2.345-.274-.95-.117v7.593l.95.254 2.345.635 9.115 2.468 3.232.868 4.162 1.133a.825.825 0 0 0 1.035-.794v-8.43c0-.74-.55-1.355-1.278-1.44Zm-.053 8.165-1.71-.413-2.156-.519-3.232-.773-9.115-2.202-2.345-.562V51.54l2.345.381 9.115 1.494 3.232.53 2.155.349 1.711.286v5.326Z"/><path fill="#0D1129" d="M30.265 56.665v-1.769l-9.115-1.652v1.409zm5.387 1.185v-1.98l-2.155-.38v1.884z"/></g></svg>