<svg xmlns="http://www.w3.org/2000/svg" viewBox="0 0 90 90"><path fill="#0046E1" d="M90 0H0v90h90z"/><g fill="#FFF"><path d="M54.277 16.471a29.952 29.952 0 0 0-26.455 3.948 5 5 0 0 0-1.462-.724 5.442 5.442 0 0 0-6.873 3.498 5.387 5.387 0 0 0 .763 4.86 29.991 29.991 0 0 0 14.37 45.091c.35.137.725.25 1.1.362a29.795 29.795 0 0 0 22.881-1.774 31.938 31.938 0 0 0 3.349-1.986l2.737 2.748c.237.25.524.188.65-.15l2.824-8.258A30.017 30.017 0 0 0 54.277 16.47Zm16.795 37.02a27.654 27.654 0 0 1-4.286 8.184l-9.047 3.048a.357.357 0 0 0-.15.637l2.512 2.524a29.88 29.88 0 0 1-2.675 1.562 27.428 27.428 0 0 1-32.971-6.233 27.416 27.416 0 0 1-2.256-33.473 6 6 0 0 0 .775.325 5.445 5.445 0 0 0 6.873-3.499 5.406 5.406 0 0 0-.338-4.173 27.333 27.333 0 0 1 23.98-3.473c.326.112.663.225.988.35a27.319 27.319 0 0 1 16.595 34.22Z"/><path d="M49.065 48.311a28.593 28.593 0 0 0 4.275-5.437 9.178 9.178 0 0 0 1.173-4.435 8.39 8.39 0 0 0-2.888-6.71 9.955 9.955 0 0 0-6.683-2.468 10.87 10.87 0 0 0-6.266 1.671 16.509 16.509 0 0 0-4.526 4.924l5.257 3.174c1.652-2.686 3.417-4.023 5.258-4.023a3.32 3.32 0 0 1 2.484 1.003 3.495 3.495 0 0 1 .971 2.506 5.452 5.452 0 0 1-1.11 3.098 37.22 37.22 0 0 1-3.72 4.306l-8.624 9.011v4.988h20.742v-6.003H43.795l5.27-5.605Z"/></g></svg>