<svg viewBox="0 0 90 90" xmlns="http://www.w3.org/2000/svg"><path d="M35.215 87.012c.51.055 1.02.097 1.535.122 12.442.667 24.066-6.178 29.47-17.355a30.615 30.615 0 0 0-4.76-33.754l-.162-.176c-6.61-7.243-17.814-7.922-25.257-1.53 6.615-11.202 20.043-16.484 32.564-12.808 12.52 3.677 20.92 15.366 20.37 28.35v.024c0 .113-.013.226-.013.352-.688 12.695-7.256 24.352-17.78 31.554a41.311 41.311 0 0 1-35.961 5.226l-.006-.005Zm-15.263-7.344-.297-.186C8.967 72.524 2.123 61.027 1.126 48.352a40.926 40.926 0 0 1 13.434-33.62c-.3.416-.595.832-.883 1.249a30.607 30.607 0 0 0 .32 34.095C21.01 60.334 33.532 65.385 45.74 62.88l.242-.051c9.608-2.081 15.802-11.403 13.966-21.02 6.426 11.307 4.3 25.516-5.157 34.468-9.457 8.951-23.82 10.35-34.84 3.391Zm-2.917-35.465c-7.35-13.658-2.32-30.66 11.293-38.172l.308-.176A41.33 41.33 0 0 1 64.964 4.61C76.612 9.83 85.166 20.134 88.12 32.505a35.666 35.666 0 0 0-.697-1.37c-5.882-10.929-17.79-17.263-30.186-16.056-12.395 1.207-22.845 9.717-26.49 21.573-.024.073-.046.158-.07.234-2.772 9.39 2.477 19.268 11.833 22.272h-.37c-10.497-.002-20.142-5.748-25.104-14.955Z" fill="#00DD90"/></svg>