<svg viewBox="0 0 90 90" xmlns="http://www.w3.org/2000/svg"><g fill="none"><path fill="#04051B" d="M0 0h90v90H0z"/><g fill="#10F48B"><path d="m71.815 46.164-1.805-1.278 1.805-1.278a12.27 12.27 0 0 0-.99-20.65l-.157-.098a12.272 12.272 0 0 0-11.104-.59l-1.964.876-.227-2.14a12.321 12.321 0 0 0-6.077-9.34l-.055-.024A12.165 12.165 0 0 0 45.121 10a12.309 12.309 0 0 0-6.356 1.775l-.31.178a12.366 12.366 0 0 0-5.817 9.073l-.255 2.116-1.94-.857a12.253 12.253 0 0 0-11.12.577l-.196.11A12.306 12.306 0 0 0 13 33.599v.218a12.31 12.31 0 0 0 5.178 10.011l1.799 1.278-1.799 1.278a12.268 12.268 0 0 0 .962 20.642l.177.11a12.32 12.32 0 0 0 11.116.584l1.964-.87.225 2.141a12.325 12.325 0 0 0 6.047 9.324l.08.043a12.25 12.25 0 0 0 12.489-.14l.303-.178a12.337 12.337 0 0 0 5.816-9.074l.249-2.116 1.95.87a12.295 12.295 0 0 0 11.14-.589l.177-.103A12.294 12.294 0 0 0 77 56.41v-.226a12.318 12.318 0 0 0-5.185-10.02Zm-1.738 10.237a5.372 5.372 0 0 1-2.675 4.635l-.177.11a5.394 5.394 0 0 1-5.355 0l-4.977-2.883-6.358 3.68v5.607a5.38 5.38 0 0 1-2.575 4.576l-.31.188a5.357 5.357 0 0 1-5.446.06l-.067-.042a5.375 5.375 0 0 1-2.68-4.644v-5.747l-6.358-3.68-4.977 2.883a5.371 5.371 0 0 1-5.343 0l-.188-.116a5.347 5.347 0 0 1-.055-9.23l5.187-3.08-.043-7.328-5.089-2.945a5.353 5.353 0 0 1-2.673-4.628V33.6a5.372 5.372 0 0 1 2.68-4.635l.178-.115a5.38 5.38 0 0 1 5.348 0l4.977 2.883 6.357-3.675V22.45a5.408 5.408 0 0 1 2.577-4.574l.31-.188a5.332 5.332 0 0 1 5.437-.055l.068.037a5.361 5.361 0 0 1 2.68 4.642v5.752l6.357 3.675 4.977-2.883a5.393 5.393 0 0 1 5.355 0l.178.115a5.354 5.354 0 0 1 .055 9.23l-5.197 3.071.042 7.33 5.1 2.942a5.354 5.354 0 0 1 2.675 4.628l.005.229Z"/><path d="m55.337 36.528-10.345 5.97-10.344-5.97 10.344-5.979zm-12.5 9.704v11.956L32.493 52.21V40.262zm14.657-5.97V52.21l-10.345 5.978V46.232z"/></g></g></svg>