<svg xmlns="http://www.w3.org/2000/svg" viewBox="0 0 90 90"><path fill="#1F1F1F" d="M0 0h90v90H0z"/><g fill="#F4A52D" transform="translate(23 17)"><path d="M35.96 20.55c2-3.48 2-7.75-.03-11.21a11.35 11.35 0 00-9.8-5.6H20a1.47 1.47 0 00-1.5 1.48c.01.82.68 1.48 1.5 1.48h6.18c3 0 5.77 1.61 7.24 4.2a8.17 8.17 0 01-.15 8.33c.7.27 1.39.58 2.06.92.2.14.42.28.63.4z"/><path d="M31.77 18.74l.75.23a7.4 7.4 0 00.27-7.6 7.53 7.53 0 00-6.61-3.88h-2.01c-.4 0-.78.16-1.06.44-.28.27-.44.65-.44 1.05 0 .81.67 1.48 1.5 1.48h2.01c1.84 0 3.5 1.11 4.19 2.8.69 1.7.27 3.63-1.05 4.9.81.16 1.66.35 2.45.58zm7.42 5.13l-.57-.51-.59-.5c-.59-.46-1.2-.9-1.85-1.3l-.63-.38c-.2-.14-.44-.26-.65-.38-.68-.36-1.39-.67-2.1-.93-.26-.1-.5-.19-.76-.25a18.78 18.78 0 00-5.62-.94h-1.47a1.47 1.47 0 00-1.5 1.48c.01.82.68 1.49 1.5 1.49h1.48c.83.02 1.65.1 2.47.23a16.96 16.96 0 014.6 1.56c.26.14.47.25.7.4.67.39 1.3.82 1.9 1.3l.6.48.53.5a15.6 15.6 0 013.57 17.15 15.83 15.83 0 01-14.66 9.76h-7.41a1.47 1.47 0 00-1.5 1.48c0 .82.67 1.48 1.5 1.49h7.41c7.7.02 14.63-4.62 17.5-11.7a18.54 18.54 0 00-4.47-20.44h.02z"/><path d="M13.76 3h12.4c6.66 0 12.06 5.35 12.07 11.96 0 2.1-.55 4.15-1.62 5.96a16.78 16.78 0 012.44 1.8 14.69 14.69 0 002.2-7.76C41.25 6.7 34.49 0 26.15 0h-12.4a1.47 1.47 0 00-1.5 1.48c0 .83.67 1.5 1.5 1.51zm-1.24 45.58h13.64c4.73 0 8.97-2.92 10.62-7.32 1.64-4.4.35-9.36-3.25-12.42-.21-.18-.42-.34-.63-.5-.21-.17-.47-.33-.73-.5a11.69 11.69 0 00-5.6-1.68H17.5c-.4 0-.78.16-1.06.44-.28.27-.44.65-.44 1.05 0 .81.68 1.48 1.5 1.48h9.08a8.55 8.55 0 013.57 1 8.2 8.2 0 01-4 15.45H12.52a1.47 1.47 0 00-1.5 1.48c0 .83.66 1.5 1.5 1.52z"/><path d="M13.76 52.32h12.4c6.13 0 11.65-3.68 13.97-9.3a14.86 14.86 0 00-3.42-16.35c-.2-.16-.38-.35-.57-.5l-.59-.5c-.6-.48-1.26-.92-1.94-1.3l-.73-.39a15.32 15.32 0 00-6.45-1.55h-2.7a1.47 1.47 0 00-1.5 1.48c0 .82.67 1.48 1.5 1.49h2.84a11.88 11.88 0 013.82.77c.89.34 1.74.78 2.55 1.3l.67.48a11.9 11.9 0 013.81 13.7 12.07 12.07 0 01-11.27 7.69h-12.4a1.47 1.47 0 00-1.5 1.48c.01.82.68 1.49 1.5 1.5zM5.66 3.13H9.5A1.47 1.47 0 0011 1.65 1.5 1.5 0 009.5.16H5.66c-.4 0-.78.16-1.06.44s-.44.65-.44 1.05c0 .82.68 1.48 1.5 1.48zm7.93 3.62h2.18a1.47 1.47 0 001.5-1.48 1.5 1.5 0 00-1.5-1.49h-2.18c-.82 0-1.5.67-1.5 1.49s.68 1.48 1.5 1.48zm-.09 18.6h6.01c.52 0 1-.28 1.26-.72.26-.45.26-1 0-1.44a1.45 1.45 0 00-1.26-.72H13.5c-.52 0-1 .28-1.26.72-.26.45-.26 1 0 1.44.26.44.74.72 1.26.72zm3.95-5.2c0 .8.65 1.44 1.45 1.44h1.85c.8 0 1.45-.64 1.45-1.44 0-.79-.65-1.43-1.45-1.43H18.9c-.8 0-1.44.64-1.45 1.43z"/><ellipse cx="1.45" cy="1.62" rx="1.45" ry="1.44"/><ellipse cx="9.4" cy="5.24" rx="1.45" ry="1.44"/><ellipse cx="5.66" cy="5.24" rx="1.03" ry="1.02"/><ellipse cx="19.93" cy="8.98" rx="1.45" ry="1.44"/><ellipse cx="14.74" cy="20.13" rx="1.45" ry="1.44"/><ellipse cx="9.36" cy="23.91" rx="1.45" ry="1.44"/><ellipse cx="16.19" cy="8.98" rx="1.03" ry="1.02"/><ellipse cx="11" cy="20.13" rx="1.03" ry="1.02"/><circle cx="13.08" cy="8.98" r="1"/><ellipse cx="8.28" cy="47.08" rx="1.45" ry="1.44"/><circle cx="4.75" cy="47.08" r="1"/><ellipse cx="13.73" cy="27.65" rx="1.03" ry="1.02"/><circle cx="10.62" cy="27.64" r="1"/><path d="M9.52 49.38c-.8 0-1.45.64-1.45 1.43 0 .8.65 1.44 1.45 1.44a1.44 1.44 0 001.03-2.46 1.45 1.45 0 00-1.03-.41zm-3.74.41a1.03 1.03 0 100 2.04 1.03 1.03 0 00.73-1.74c-.19-.2-.46-.3-.73-.3zm-2.27 1.05a.83.83 0 00-.84-.81.83.83 0 00-.82.83c0 .46.38.82.84.81.45-.02.8-.38.82-.83zm11 2.22H8.46c-.8 0-1.45.65-1.45 1.44 0 .8.65 1.44 1.45 1.44h6.03c.8 0 1.46-.65 1.46-1.44 0-.8-.65-1.44-1.46-1.44z"/><ellipse cx="4.28" cy="54.5" rx="1.45" ry="1.44"/></g></svg>