<svg viewBox="0 0 90 90" xmlns="http://www.w3.org/2000/svg"><defs><linearGradient x1="35.676%" y1="6.52%" x2="64.568%" y2="94.184%" id="a"><stop stop-color="#E5653C" offset="7.59%"/><stop stop-color="#E2A432" offset="100%"/></linearGradient></defs><g fill="none" fill-rule="evenodd"><path fill="#FFF" d="M0 0h90v90H0z"/><path d="M70 34.23C70 20.866 59.012 10 45.5 10S21 20.866 21 34.23v21.523c0 2.395.349 4.77 1.045 7.044 1.498 4.873 4.596 9.248 8.723 12.33C35.034 78.314 40.137 80 45.5 80 59.012 80 70 69.134 70 55.77c0-3.72-.888-7.44-2.56-10.762A23.977 23.977 0 0 0 70 34.228v.002Zm-24.5-2.721c-7.453.052-13.512 6.095-13.512 13.466 0 7.37 6.06 13.416 13.633 13.466 6.983-.033 13.496-2.944 18.128-8.06a18.37 18.37 0 0 1 .783 5.34c0 10.367-8.533 18.803-19.015 18.803-4.16 0-8.115-1.306-11.423-3.767-3.203-2.395-5.606-5.788-6.772-9.56a18.76 18.76 0 0 1-.82-5.475V34.228c0-10.365 8.532-18.803 19.015-18.803 10.484 0 19.015 8.438 19.015 18.803 0 1.826-.261 3.62-.783 5.34-4.65-5.115-11.162-8.024-18.249-8.06Zm15.585 13.485a18.99 18.99 0 0 1-15.497 8.04c-4.478 0-8.134-3.615-8.134-8.04 0-4.41 3.64-8.026 8.098-8.043 6.216.017 11.98 3.012 15.533 8.043Z" fill="url(#a)" fill-rule="nonzero"/></g></svg>