<svg viewBox="0 0 90 90" xmlns="http://www.w3.org/2000/svg"><g fill="#355FFF"><path d="M5.589 83.17c-1.233-.578-2.362-1.89-4.408-5.144-1.706-2.702-1.758-2.571 1.417-2.86 3.568-.34 12.122-1.47 16.976-2.256 21.28-3.438 38.808-8.607 55.26-16.269l4.644-2.151 6.035-3.359 1.39-.787 1.365-.787 1.575-.263-2.178 2.178-2.152 2.152c-4.058 3.236-6.105 4.854-6.14 4.854-.079 0-.97.577-2.046 1.26-2.782 1.836-5.563 3.384-10.312 5.772-13.487 6.744-28.05 11.65-46.181 15.534-4.592.997-13.277 2.624-13.88 2.624-.158 0-.762-.237-1.365-.499Z"/><path d="M13.356 69.446c0-.184.472-6.586 1.05-14.248.577-7.635 1.285-17.265 1.574-21.385.288-4.12.603-7.845.656-8.291.183-1.023.892-1.68 1.863-1.732 1.364-.079 9.918.604 10.889.84 1.81.472 1.784-.263.393 18.183-1.941 25.557-1.679 23.222-2.65 24.272-.918 1.023-1.05 1.05-7.95 2.02-5.484.76-5.825.76-5.825.341Zm28.548-7.137c-1.68-.157-3.123-.367-3.201-.446-.132-.131.55-10.233.708-10.39.105-.08 7.137.944 9.026 1.337 2.94.63 3.753 1.654 3.753 4.802 0 2.388-.683 3.779-2.205 4.513-1.26.63-3.017.656-8.081.184Zm21.595-5.431c-.709-3.936-3.228-7.295-6.718-8.922-.944-.446-1.705-.84-1.705-.892 0-.052.63-.446 1.417-.866 2.283-1.312 4.487-3.516 5.51-5.589 1.154-2.309 1.39-4.093.84-6.245-.578-2.256-1.522-3.752-3.884-6.192-1.128-1.155-2.125-2.362-2.23-2.703-.131-.55.76-14.536 1.154-18.078.158-1.365.158-1.391 1.05-1.391 1.023 0 10.863.708 12.883.945l1.365.13v1.26c0 .682-.473 7.478-1.05 15.114-.55 7.662-1.26 17.449-1.574 21.778-.289 4.33-.604 8.397-.682 9.027-.21 1.548-1.102 2.414-3.306 3.148-.971.315-1.89.761-2.047.971-.551.63-.682.42-1.023-1.495ZM41.09 43.076l-1.26-.105.158-1.496c.08-.813.263-3.096.42-5.038.131-1.941.289-3.542.315-3.542.026-.026 1.496.053 3.28.157 2.834.132 3.385.263 4.723.919.866.446 1.732 1.154 2.1 1.68.55.813.603 1.154.524 2.938-.079 1.81-.158 2.099-.866 2.834-1.443 1.522-2.414 1.836-5.432 1.784-1.495-.026-3.28-.079-3.962-.131Zm39.385-2.65c-1.994-1.234-1.941-4.933.079-5.957.97-.524 2.939-.498 3.936.027 2.02 1.05 1.994 4.959-.053 6.008-.997.525-3.07.499-3.962-.078ZM45.42 24.21c-4.225-.315-7.74-.63-7.793-.656-.105-.131.525-8.606.682-8.711.079-.08 14.851.997 15.429 1.102.13.026-.263 6.428-.473 7.766l-.157 1.05-7.688-.551Z"/></g></svg>