<svg viewBox="0 0 90 90" xmlns="http://www.w3.org/2000/svg"><defs><linearGradient x1="13.664%" y1="9.707%" x2="87.319%" y2="84.673%" id="a"><stop stop-color="#0096FF" offset="0%"/><stop stop-color="#00A7FA" offset="41.4%"/><stop stop-color="#03D2FD" offset="100%"/></linearGradient></defs><g fill="none"><path d="M8.886 79s38.69-38.603 43.75-43.573c5.058-4.97 14.354-6.264 19.14-1.362 4.784 4.902 5.946 13.276 2.05 17.702-3.896 4.425-5.469 6.195-6.836 7.489-1.367 1.294-3.896 3.54-7.382.613a63.62 63.62 0 0 1-2.051-1.77l-11.074 7.965s6.016 5.923 8.818 8.987c2.803 3.064 8.682 4.97 13.056 1.226 4.375-3.745 7.246-6.604 13.672-13.617 6.426-7.012 14.15-25.327 0-37.446-14.15-12.118-30.146-8.17-38.964.681-8.818 8.851-39.1 38.876-40.33 40.17-1.231 1.293-2.12 4.833 0 6.808C4.852 74.847 8.885 79 8.885 79Z" fill="#03D2FD"/><path d="M0 19.087s3.486-3.54 5.469-5.447c1.982-1.906 5.331-2.45 7.519 0 2.187 2.451 45.8 45.616 45.8 45.616L49.9 69.468 0 19.087Z" fill="#51B9F0"/><path d="M0 7.087s3.486-3.54 5.469-5.447c1.982-1.906 5.331-2.45 7.519 0 2.187 2.451 45.8 45.616 45.8 45.616L49.9 57.468 0 7.087Z" fill="url(#a)" opacity=".9" transform="translate(0 12)"/></g></svg>