<svg xmlns="http://www.w3.org/2000/svg" viewBox="0 0 90 90"><path fill="#162c40" d="M0 0h90v90H0z"/><g fill-rule="nonzero"><path fill="#98e35d" d="M71.543 17.449c-.197-.086-20.609-2.902-40.784 10.247-12.524 8.182-14.184 20.149-13.611 28.131 29.345-3.29 53.73-37.424 54.396-38.378zM19.138 64.694c2.521 4.498 21.587 14.697 38.465.631s15.462-39.657 13.94-47.876c-.532 1.192-18.957 42.094-52.405 47.239"/><path fill="#16b157" d="M71.543 17.45c-.197-.081-20.609-2.902-40.784 10.247-12.524 8.182-14.184 20.149-13.611 28.126 29.345-3.284 53.73-37.418 54.396-38.373z"/></g></svg>