<svg viewBox="0 0 90 90" xmlns="http://www.w3.org/2000/svg"><g fill="none" fill-rule="evenodd"><path fill="#171C62" d="M0 0h90v90H0z"/><path d="M54.502 29.571c1.3 0 2.541.559 3.428 1.542L76.74 51.98c1.679 1.862 1.679 4.75 0 6.611L57.93 79.458A4.616 4.616 0 0 1 54.502 81h-8.414c-1.062 0-1.613-1.31-.889-2.114l16.64-18.458h-9.196l-9.35-10.285H61.84L43.293 29.57h11.209ZM43.912 9c1.062 0 1.613 1.31.889 2.114L28.16 29.572h9.196l9.35 10.285H28.16L46.707 60.43H35.498c-1.3 0-2.541-.559-3.428-1.542L13.259 38.02c-1.679-1.862-1.679-4.75 0-6.611L32.07 10.542A4.616 4.616 0 0 1 35.498 9h8.414Z" fill="#1DA2B4" fill-rule="nonzero"/></g></svg>