<svg xmlns="http://www.w3.org/2000/svg" viewBox="0 0 90 90"><defs><linearGradient id="A" x1="92.068%" x2="24.005%" y1="110.103%" y2="22.805%"><stop offset="41%" stop-color="#f47320"/><stop offset="50%" stop-color="#f16d21"/><stop offset="62%" stop-color="#e95c22"/><stop offset="75%" stop-color="#dc4125"/><stop offset="81%" stop-color="#d53127"/></linearGradient></defs><g fill="none" fill-rule="evenodd"><path fill="#fff" d="M0 0h90v90H0z"/><g fill-rule="nonzero"><path fill="#d53127" d="M26.067 30.508h8.073l-6.277 15.354s-3.281-.054-4.285-2.921c-.281-.851-.305-1.767-.068-2.632l2.557-9.802z"/><path fill="#f47320" d="M57.379 30.836l-10.266-.179 2.31-7.62c.432-1.414.168-2.95-.71-4.14S46.446 17.005 44.967 17h-9.37L24.885 55.474s-3.839 16.454 10.712 17.943c0 0 23.002 4.703 30.383-23.092 0 0 3.896-16.811-8.602-19.489zm-7.016 19.082s-.411 7.099-5.767 8.345a3.47 3.47 0 0 1-2.36-.243c-.839-.428-1.707-1.318-1.685-3.181.014-.539.1-1.073.257-1.589l1.978-7.388h5.399s2.446.796 2.178 4.056h0z"/><path fill="url(#A)" d="M43.473 25.577c-.982-11.294-9.095-11.74-9.095-11.74l-10.266-.179-4.41 15.293h5.385c.989.054 2.792 1.685 2.207 4.574" transform="translate(23 17)"/></g></g></svg>