<svg viewBox="0 0 90 90" xmlns="http://www.w3.org/2000/svg"><path d="m28.794 16 20.429 20.656s-5.068 7.358-12.185.162L28.7 28.38 12.185 45.014l16.501 16.592C33.954 66.912 28.592 74 28.592 74L6.046 51.048 0 44.92l6.126-6.102L22.601 22.21 28.794 16Zm32.707.189L90 45l-.08.081.026.04-22.412 22.52-6.18 6.197-20.349-20.535s7.32-5.063 12.842.527l7.735 7.817 16.474-16.525L61.22 28.083c-4.96-5.009.281-11.894.281-11.894Zm4.066 24.734.029.03.089.09a5.782 5.782 0 0 1-.017 8.147l-.09.09a5.782 5.782 0 0 1-8.205-.018l-.09-.09a5.782 5.782 0 0 1 .018-8.148l.089-.09a5.782 5.782 0 0 1 8.177-.011Zm-32.962-.06.03.03.088.09a5.782 5.782 0 0 1-.017 8.147l-.089.09a5.782 5.782 0 0 1-8.206-.017l-.089-.09a5.782 5.782 0 0 1 .017-8.148l.09-.09a5.782 5.782 0 0 1 8.176-.012Z" fill="#02D767"/></svg>