<svg viewBox="0 0 90 90" xmlns="http://www.w3.org/2000/svg"><path d="M45 90c24.853 0 45-20.147 45-45S69.853 0 45 0 0 20.147 0 45s20.147 45 45 45Zm-3.892-15.731-3.856-7.716-1.233-.03c-.679 0-1.728-.063-2.314-.155a307.03 307.03 0 0 1-3.855-.432c-4.75-.556-8.358-1.667-9.376-2.901-2.375-2.84 5.706-25.555 14.033-39.35 2.653-4.414 4.904-7.315 7.063-9.044 2.344-1.882 3.27-2.098 5.244-1.203 5.335 2.407 14.465 18.641 20.263 35.986 2.622 7.84 3.485 12.006 2.714 13.425-.71 1.297-5.644 2.716-11.411 3.272-1.265.123-2.53.247-2.776.309-.247.03-.987.092-1.604.092l-1.172.031-3.732 7.469c-.284.577-.563 1.14-.834 1.684l-.267.537c-1.542 3.085-2.74 5.394-2.816 5.495-.124.123-1.974-3.241-4.071-7.47Zm1.974-49.165c-3.917 2.006-4.04 7.191-.216 9.074 4.256 2.068 8.728-2.408 6.662-6.728-1.018-2.192-4.41-3.426-6.446-2.346Z" fill="#007BFF"/></svg>