<svg viewBox="0 0 90 90" xmlns="http://www.w3.org/2000/svg"><g fill="none"><path fill="#FFF" d="M0 0h90v90H0z"/><path d="M5 45.004V40l4.556.034c4.05.034 4.598.06 5.017.188 1.136.366 1.538.92 1.606 2.208.052 1.065-.102 1.628-.59 2.063-.187.17-.333.324-.315.332.008.009.17.103.341.213.539.324.667.716.667 2.106 0 1.108-.017 1.228-.214 1.628-.239.47-.606.776-1.239 1.023-.35.137-.829.154-5.103.18L5 50v-4.996Zm8.846 3.334c.154-.069.325-.196.376-.29.052-.103.094-.571.094-1.066 0-.835-.008-.895-.222-1.091l-.222-.205-3.453-.025-3.453-.026v2.822h3.29c2.65 0 3.35-.026 3.59-.12Zm-.196-4.314c.487-.137.58-.341.58-1.22 0-.681-.016-.766-.213-.954l-.205-.213H6.965v2.472h3.189c1.923 0 3.308-.034 3.496-.085Zm4.769.98v-4.987h1.88v9.974h-1.88zm8.632.81v-4.177h-5.128v-1.62H34.06v1.62h-5.042v8.354H27.05zm8.564-.784.026-4.97.863-.026.872-.025 2.923 4.015c1.607 2.2 2.949 4.007 2.975 3.998.034 0 1.358-1.799 2.948-4.007l2.898-3.998h1.606v9.974h-1.794l-.017-3.367-.026-3.367-2.436 3.359-2.436 3.367h-.82l-.82.008-2.471-3.375-2.47-3.385-.026 3.385-.017 3.375h-1.795l.017-4.961Zm16.453 4.714c.086-.136 1.582-2.378 3.317-4.987l3.162-4.731.65-.009c.512 0 .675.034.777.154.154.17 6.479 9.727 6.479 9.786 0 .017-.487.034-1.085.026h-1.094l-2.488-3.896c-1.367-2.14-2.521-3.896-2.555-3.896-.026 0-1.197 1.756-2.59 3.896l-2.538 3.896-1.094.008h-1.103l.162-.247Zm15.667-4.74v-4.987h1.966v9.974h-1.966zm4.12.026.025-4.97.778-.026.786-.025 3.744 2.787c2.068 1.535 4.256 3.172 4.88 3.632.616.46 1.146.835 1.171.835.026 0 .06-1.62.069-3.597l.025-3.606.838-.026.829-.025v9.982h-.983l-5.214-3.802-5.213-3.793-.026 3.793-.017 3.802h-1.709l.017-4.961Z" fill="#1D1D1D"/></g></svg>