<svg xmlns="http://www.w3.org/2000/svg" viewBox="0 0 90 90" fill-rule="evenodd" xmlns:v="https://vecta.io/nano"><path fill="#2a3f90" d="M0 0h90v90H0z"/><path fill="#fff" fill-rule="nonzero" d="M50.29 34.709c2.076 0 3.905.398 5.438 1.143s2.768 1.74 3.806 3.033c.989 1.293 1.73 2.784 2.225 4.474s.742 3.53.742 5.518c0 3.033-.544 5.866-1.681 8.6-1.137 2.685-2.62 5.071-4.548 7.059a21.28 21.28 0 0 1-6.822 4.723c-2.62 1.143-5.438 1.74-8.503 1.74-.395 0-1.088 0-2.076-.05-.989 0-2.126-.099-3.362-.298l-4.004-.795c-1.434-.348-2.768-.845-4.004-1.442l11.321-47.824L48.955 19l-4.004 16.952c.89-.398 1.681-.696 2.571-.895.84-.249 1.78-.348 2.768-.348zm-8.503 28.138c1.532 0 2.966-.348 4.301-1.143a11.84 11.84 0 0 0 3.51-2.983c.989-1.243 1.78-2.685 2.323-4.226.544-1.591.84-3.231.84-4.922 0-2.088-.346-3.728-1.038-4.922s-2.126-1.74-4.004-1.74c-.593 0-1.236.05-2.225.298-.989.199-1.829.696-2.62 1.392l-4.251 18.046c1.285.199 2.669.199 3.164.199z"/></svg>