<svg width="90" height="90" viewBox="0 0 90 90" xmlns="http://www.w3.org/2000/svg"><defs><linearGradient x1="50%" y1="0%" x2="50%" y2="100%" id="a"><stop stop-color="#2CEA8E" offset="0%"/><stop stop-color="#25BD73" offset="100%"/></linearGradient></defs><g fill="none" fill-rule="evenodd"><rect fill="url(#a)" width="90" height="90"/><path d="M25.4480606,5.28181507 C33.3883864,2.78207371 38.3476203,9.75566832 38.3476203,14.0478741 L38.3476203,14.0478741 L38.3476203,16.8059934 C38.3476203,22.6853633 35.6198898,25.7293816 35.0850407,26.2697372 L35.0281182,26.3260472 C35.0062794,26.3471302 34.9946775,26.3576257 34.9946775,26.3576257 C34.9946775,26.3576257 40,28.9027789 40,34.344897 L40,34.344897 L40,37.8102933 C40,46.8101974 34.5133663,51.0491617 29.5557036,52.6208303 L29.5557036,52.6208303 L6.07148702,60 L0.782300946,56.1347704 L26.8516668,47.9434066 C31.6506381,46.4411606 34.7108139,41.5434632 34.7108139,38.0895503 L34.7108139,38.0895503 L34.7108139,34.6967085 C34.7108139,31.9422431 32.0696252,29.4654687 28.9010365,30.4509587 L28.9010365,30.4509587 L11.9011662,35.7923354 L11.9011662,44.3496043 L6.61198014,46.0115746 L6.61198014,11.2004969 Z M2.82674831e-13,7.18603443 L5.2897098,11.0512641 L5.29023354,47.808789 L24.4002267,41.8045031 C26.6130014,41.1092316 28.0993575,39.0886639 28.0993575,36.7768338 L28.0993575,36.7768338 L28.0993575,32.0853166 L29.2950413,31.7094943 C31.5324315,31.004305 33.3885436,32.78633 33.3885436,34.7009366 L33.3885436,34.7009366 L33.3885436,38.0896025 C33.3885436,41.1890939 30.6017567,45.3831683 26.4532627,46.6865414 L26.4532627,46.6865414 L2.82674831e-13,54.9984816 L2.82674831e-13,7.18603443 Z M33.0584342,14.4424876 C33.0584342,11.8399171 30.1988485,9.32295052 27.0386398,10.3089625 L27.0386398,10.3089625 L11.9011662,15.0657266 L11.9011662,30.2656574 L27.0491144,25.5057614 C30.6827784,24.3694205 33.0594817,21.2464402 33.0594817,16.9171742 L33.0594817,16.9171742 Z M27.6361596,11.5091449 C29.9044258,10.9284565 31.7400395,12.8025243 31.7400395,14.4442102 L31.7400395,14.4442102 L31.7400395,16.9173308 C31.7400395,20.5194847 29.8383626,23.2598569 26.6530147,24.2484787 L26.6530147,24.2484787 L13.2234365,28.4686518 L13.2234365,22.9414518 L23.4414799,19.7302575 C25.2106521,19.1743534 26.4466635,17.4784546 26.4466635,15.60665 L26.4466635,15.60665 L26.4466635,11.8776559 L27.4401863,11.5649925 Z M18.8173309,0.45568045 C22.9433046,-0.855000396 26.2894387,0.999057106 27.3866607,1.79141613 L27.3866607,1.79141613 L29.7670302,3.5238533 C28.7740312,3.40849667 27.1295075,3.37300233 25.0555223,4.02338398 L25.0555223,4.02338398 L6.07174888,9.98852166 L0.782039084,6.12329201 Z" transform="translate(27 15)" fill="#161616"/></g></svg>