<svg xmlns="http://www.w3.org/2000/svg" viewBox="0 0 90 90"><path fill="#6F2AA1" d="M0 0h90v90H0z"/><path fill="#FFF" d="M44.98 61.29a7.12 7.12 0 01-7.11-7.12H52.1a7.12 7.12 0 01-7.12 7.12zm-15.9-15.91a4.4 4.4 0 00-4.4 4.39h8.8a4.4 4.4 0 00-4.4-4.4m31.84 0a4.4 4.4 0 00-4.4 4.4h8.8a4.4 4.4 0 00-4.4-4.4M44.98 24.44a2.72 2.72 0 100-5.44 2.72 2.72 0 000 5.44m26.36 40.52a4.89 4.89 0 01-3.45 1.64c-5.49.25-13.92.56-22.9.56-8.97 0-17.41-.3-22.9-.56a4.9 4.9 0 01-4.68-5.24c.3-4.4.68-8.28 1.16-11.56.72-4.87 1.8-9.8 2.57-13.1a4.9 4.9 0 014.48-3.78c3.98-.24 10.58-.54 19.38-.54 8.8 0 15.4.3 19.38.54a4.88 4.88 0 014.48 3.78c.78 3.29 1.86 8.23 2.57 13.1.48 3.28.87 7.17 1.16 11.56a4.88 4.88 0 01-1.23 3.6m4.42-15.8c-.74-5.02-1.85-10.1-2.65-13.47-.92-4-4.38-6.9-8.48-7.14C60.61 28.3 53.91 28 45 28c-8.92 0-15.6.3-19.65.55a9.26 9.26 0 00-8.48 7.14c-.8 3.37-1.9 8.45-2.65 13.47-.5 3.4-.9 7.4-1.2 11.91a9.24 9.24 0 002.35 6.81 9.25 9.25 0 006.51 3.1c5.54.26 14.05.57 23.12.57 7.7 0 15.42-.2 23.12-.57a9.25 9.25 0 006.51-3.1 9.24 9.24 0 002.35-6.8c-.3-4.52-.7-8.53-1.2-11.92"/></svg>