<svg viewBox="0 0 90 90" xmlns="http://www.w3.org/2000/svg"><g fill="none" fill-rule="evenodd"><path fill="#002B28" d="M0 0h90v90H0z"/><path d="M24.018 36.444 35.5 27.87v36.867h14.05c5.3 0 8.987-3.434 8.987-8.41 0-4.975-3.687-8.408-8.987-8.408h-7.704l9.85-9.859c2.732-2.736 3.338-4.461 3.338-6.353 0-3.763-2.917-6.425-7.539-6.425H24.018V15h25.44c9.94 0 17.039 6.004 17.039 14.651 0 4.113-.862 7.197-3.944 10.282L60.5 41.989c5.575 2.735 9.5 8.317 9.5 15.44C70 67.804 61.691 75 50.045 75H24V36.444h.018Z" fill="#FFF" fill-rule="nonzero"/></g></svg>