<svg viewBox="0 0 90 90" xmlns="http://www.w3.org/2000/svg"><g fill="none" fill-rule="evenodd"><path fill="#FFF" fill-rule="nonzero" d="M0 0h90v90H0z"/><path d="M78.09 40.45h-4.184v-2.223H85v2.223h-4.228v12.323H78.09V40.45Zm-14.784-2.223v5.827h6.211v-5.827h2.681v14.546h-2.68v-6.41h-6.212v6.41h-2.681V38.227h2.68Zm-4.43 13.877c-.937.346-2.768.82-4.729.82-2.486 0-4.36-.626-5.755-1.943-1.307-1.23-2.07-3.15-2.049-5.352 0-4.597 3.314-7.553 8.174-7.553 1.81 0 3.226.366 3.902.69l-.589 2.137c-.807-.345-1.787-.626-3.335-.626-3.139 0-5.34 1.835-5.34 5.223 0 3.302 2.049 5.267 5.1 5.267.959 0 1.679-.13 2.027-.303v-3.626h-2.594v-2.093h5.188v7.36Zm-14.27-13.877v14.546h-2.681V38.227h2.68ZM31.403 49.892c.872.497 2.18.928 3.553.928 1.722 0 2.681-.799 2.681-1.986 0-1.101-.741-1.748-2.615-2.417-2.42-.863-3.967-2.137-3.967-4.23C31.054 39.813 33.06 38 36.242 38c1.59 0 2.769.345 3.53.734l-.653 2.137c-.523-.282-1.548-.691-2.921-.691-1.7 0-2.441.906-2.441 1.748 0 1.122.85 1.64 2.812 2.396 2.55.949 3.792 2.222 3.792 4.316 0 2.331-1.787 4.36-5.58 4.36-1.547 0-3.16-.432-3.967-.907l.589-2.2Z" fill="#1A345F"/><path d="M23.816 39.823h-4.469v-1.597h10.877v1.597h-4.49v12.95h-1.918v-12.95Zm-6.105-1.596v14.546h-1.897V38.227h1.897ZM5 38.41c.828-.173 2.136-.302 3.465-.302 1.897 0 3.118.324 4.033 1.058.763.561 1.22 1.424 1.22 2.569 0 1.402-.937 2.633-2.484 3.194v.043c1.395.345 3.03 1.488 3.03 3.647 0 1.252-.502 2.2-1.243 2.913-1.025.928-2.68 1.36-5.079 1.36-1.307 0-2.31-.086-2.942-.173V38.41Zm1.896 5.956h1.722c2.005 0 3.182-1.035 3.182-2.438 0-1.706-1.307-2.375-3.225-2.375-.873 0-1.373.065-1.679.13v4.683Zm0 6.971c.37.066.915.087 1.592.087 1.961 0 3.77-.712 3.77-2.828 0-1.985-1.722-2.806-3.793-2.806H6.896v5.547Z" fill="#04A2D1"/></g></svg>