<svg xmlns="http://www.w3.org/2000/svg" viewBox="0 0 90 90"><path fill="#121720" d="M0 0h90v90H0z"/><path d="m64.272 33.904 4.962-7.452 3.804 5.63-1.158 1.657h-7.773l.165.165ZM49.387 67.025h-8.27L19.12 33.905h7.773L38.967 51.79l2.15-3.312h7.939l-6.12 9.108 2.647 3.809 11.412-17.057H39.132l-7.277-10.434h7.939l2.977 4.14h26.463L49.387 67.026ZM24.08 22.975h42.341l-7.277 10.598H51.04l2.811-4.14H19.616l4.465-6.624v.166ZM69.07 19H21.766L13 32.248 39.132 71h12.736L78 32.083 69.069 19Z" fill="#FFF"/></svg>