<svg xmlns="http://www.w3.org/2000/svg" viewBox="0 0 90 90"><path fill="#003B2F" d="M0 0h90v90H0z"/><path d="M23 26.23V20c.485 0 18.85.03 27.577.03 4.667.06 8.758 1.625 11.91 5.267 3.818 4.395 4.12 13.755-3.213 17.698-.03.03-.424.271-.606.391 1.394.903 2.849 1.596 4 2.649 7.425 6.561 4.94 18.24-4.666 21.7-2.152.783-4.516 1.235-6.789 1.265H23.061v-6.23c4.788-1.144 7.151-3.552 7.242-7.374.152-4.937-1.515-6.953-7.303-8.79V41.13c4.727-1.053 7.243-3.582 7.303-7.314.091-3.822-2.272-6.29-7.303-7.585Zm14.425 35.607c4.394 0 8.667-.06 13.364-.06 3.97-.211 6.576-3.432 6.546-7.465-.03-3.762-2.758-6.832-6.637-7.043-4.273-.24-13.091-.15-13.243-.15-.03 4.875-.03 9.872-.03 14.718Zm0-21.16c4.06 0 8 .151 11.91-.06 3.697-.18 6.242-2.95 6.485-6.5.212-3.402-2.122-6.532-5.819-6.893-4.121-.362-8.334-.09-12.576-.09v13.544Z" fill="#14A049"/></svg>