<svg xmlns="http://www.w3.org/2000/svg" viewBox="0 0 90 90"><path fill="#FFF" d="M0 0h90v90H0z"/><path fill="#252C36" d="M30.92 12c.22 0 .44.22.44.44v32.78A13.7 13.7 0 0045 58.86c1.32 0 3.08-.22 4.4-.22.66 0 1.32.44 1.32 1.32v17.16c0 .22-.22.44-.44.44-1.76.22-3.52.44-5.28.44-18.26 0-33-14.74-33-33V12.22l.06-.06.1-.1.06-.06zM45 12c18.26 0 33 14.74 33 33a32.5 32.5 0 01-19.36 29.7s-.22 0-.22-.22V44.47a13.71 13.71 0 00-13.64-13.33s-3.74.22-4.4.22c-.66.22-1.32-.44-1.32-1.32V12.88c0-.22.22-.44.44-.44 1.76-.22 3.74-.44 5.5-.44z"/></svg>