<svg viewBox="0 0 90 90" xmlns="http://www.w3.org/2000/svg"><g fill="none"><path fill="#27AAE1" d="M0 0h90v90H0z"/><path d="M19.003 16c5.648.002 11.296 0 16.946 0 0 .806-.042 1.639.254 2.408.571 1.642 2.212 2.85 3.963 2.88 1.447.01 2.894 0 4.34.004 1.402.006 2.805-.03 4.203.088 25.137 2.215 34.444 33.707 14.445 49.061-11.634 9.035-29.206 6.796-38.216-4.82-3.784-4.723-5.913-10.726-5.934-16.767-.007-10.951-.003-21.903-.002-32.854m1.947 1.905c.259 6.471 4.036 12.647 9.72 15.815 5.28 3.089 10.2 2.485 16.008 2.53 6.031-.029 11.518 4.832 12.207 10.79.963 6.322-3.707 12.741-10.045 13.814-6.824 1.426-13.897-3.659-14.696-10.545-.145-1.02-.104-2.052-.11-3.077V37.207a21.197 21.197 0 0 1-5.584-2.655c-.003 4.886-.005 9.772.002 14.659-.014 6.048 3.314 11.928 8.476 15.11 9.381 5.987 22.328 1.74 26.365-8.577 2.735-6.6.988-14.667-4.233-19.566-2.854-2.759-6.647-4.54-10.607-4.949-1.16-.134-2.329-.1-3.494-.105-1.444 0-2.891.003-4.337 0-7.236.076-13.723-6.027-14.06-13.216-1.87-.002-3.743.002-5.613-.002m7.542 0c.355 6.157 5.929 11.351 12.127 11.305 1.99.005 3.983 0 5.973.003 5.978-.017 11.851 2.837 15.548 7.504 6.925 8.432 5.351 21.455-3.352 28.047-8.494 6.761-21.478 5.13-28.048-3.484-3.055-3.825-4.438-8.751-4.21-13.6V33.11a21.463 21.463 0 0 1-5.615-7.385c.007 7.38 0 14.76.003 22.139-.015 1.348.03 2.697.206 4.035a25.163 25.163 0 0 0 2.213 7.563c6.202 13.45 23.402 18.799 36.158 11.137 12.6-7.246 16.51-24.265 8.212-36.188-4.512-6.708-12.356-11.037-20.479-11.197-2.355-.028-4.71 0-7.065-.015-2.968-.013-5.655-2.374-6.063-5.293h-5.61m7.46 19.797c-.005 3.506 0 7.012-.003 10.518-.017 1.064.077 2.135.364 3.163 3.233 11.04 18.916 10.016 20.67-1.348.88-6.163-4.13-11.898-10.39-11.883-3.546-.082-7.145.277-10.643-.45h.001Z" fill="#FFF"/></g></svg>