<svg xmlns="http://www.w3.org/2000/svg" viewBox="0 0 90 90"><path fill="#0F1F04" d="M0 0h90v90H0z"/><path d="M51.397 53.282H38.734L49.819 79h2.524l6.678-15.622L65.699 79h2.576l7.784-19.554c.997-2.392 1.892-3.402 4.941-5.952v-.213h-8.781v.213l.242.207c1.962 1.683 3.177 2.724 3.177 4.257 0 .425-.106.957-.317 1.487l-4.68 12.063-5.573-13.18c-.263-.637-.42-1.168-.42-1.698 0-1.224.789-2.126 2.734-3.136v-.213H53.08v.213c1.788 1.169 2.683 2.232 3.366 3.825l2.208 5.208-3.838 9.246-5.68-13.443c-.314-.69-.472-1.275-.472-1.806 0-1.222.893-2.073 2.734-3.03v-.212ZM26.77 43H11v35.987h16.28c6.613 0 11.192-4.165 11.192-9.562 0-4.885-3.053-7.918-6.767-8.689 3.46-1.027 6.004-4.06 6.004-8.431 0-5.14-4.07-9.305-10.938-9.305h-.001Zm4.07 10.436c0 2.828-1.78 4.318-5.087 4.318h-7.885V49.17h7.885c3.306 0 5.088 1.44 5.088 4.267v-.001Zm.764 14.806c0 3.085-2.035 4.576-5.341 4.576h-8.395v-9.1h8.395c3.306 0 5.34 1.439 5.34 4.524Z" fill="#FFF"/></svg>