<svg xmlns="http://www.w3.org/2000/svg" viewBox="0 0 90 90"><g fill="none" fill-rule="evenodd"><path fill="#0071FF" d="M0 0h90v90H0z"/><path d="M68.56 47.39a4.1 4.1 0 013 4.9c-3.4 15.07-18.11 24.46-32.85 20.99a27.65 27.65 0 01-20.23-19.72 4.1 4.1 0 012.78-5.05 4 4 0 014.94 2.83A19.56 19.56 0 0040.5 65.3c10.44 2.46 20.84-4.18 23.25-14.83a4 4 0 014.8-3.07zm-18.1-29.62l.3.23 24.71 19.45a4.01 4.01 0 01-4.74 6.45l-.2-.15-24.7-19.45a1.33 1.33 0 00-1.5-.1l-.15.1-24.7 19.45a4 4 0 01-5.15-6.14l.2-.16L39.23 18a9.32 9.32 0 0111.23-.23z" fill="#FFF" fill-rule="nonzero"/></g></svg>