<svg xmlns="http://www.w3.org/2000/svg" viewBox="0 0 90 90" fill-rule="evenodd"><path fill="#000" d="M0 0h90v90H0z"/><path fill="#fff" d="M32.763 72l.856-1.954 1.264-1.956 2.73-3.042 2.323-2.563 1.077-1.569.819-1.621.445-1.863v-1.567l-.558-1.569-.947-1.291-2.137.831-1.468.147-1.524-.073-1.913-.426-1.896-.681-.966.442-.948.239-2.899.979-.724.569-.446 1.551-.39.664-.688.256-.705.093h-1.375l-1.747-.258-4.293-1.843-.781-.902-.482-1.329-.224-1.661L15 49.648l.166-.588 1.024-.997v-1.051l14.047-10.586v-1.087l.391-1.033 6.854-4.187-.222-.774.131-.533.927-1.956v-.332l-1.244-.59-1.3-.13-.873.075-1.655.46-.539-.204.281-.756.333-.57.874-1.216.613-.813.781-.59 1.374-.902 2.118-1.016 1.691-.479 1.599.939.65-1.327 1.97-.276L46.904 19l1.915.129 1.559.24 2.49 1.014-.185 1.898 1.505-1.401 1.859.775L58.5 22.78l1.653 1.014 2.341 1.753 2.491 2.728-.151 1.512 1.879-.091 1.207.884 2.267 2.214 1.208 1.512 1.021 1.735 1.264 2.82-1.672 1.771 2.005.516.54 1.992.241 2.101.206 2.951-.149 4.113-.41 3.891-1.745 1.051 1.429 1.088-.389 4.556-.873 2.821-1.952 2.672L67.083 72z"/></svg>