<svg viewBox="0 0 90 90" xmlns="http://www.w3.org/2000/svg"><g fill="none"><path d="M44.5 24.98a28.495 28.495 0 0 1 26.33 17.598 28.513 28.513 0 0 1-6.177 31.067 28.497 28.497 0 0 1-43.85-4.32A28.512 28.512 0 0 1 16 53.487V8h6.49c0 15.413.222 30.826.241 46.239.002.67.048 1.339.14 2.003a21.814 21.814 0 0 0 19.39 18.917 21.802 21.802 0 0 0 22.843-14.56 21.816 21.816 0 0 0-8.95-25.57 21.801 21.801 0 0 0-26.933 2.87v-8.486A28.365 28.365 0 0 1 44.5 24.98Z" fill="#7FBC03"/><path d="M69.755 66.703A28.503 28.503 0 0 1 44.5 82a28.494 28.494 0 0 1-25.255-15.297 29.726 29.726 0 0 1 4.802-5.638A21.821 21.821 0 0 0 44.5 75.295a21.811 21.811 0 0 0 20.452-14.23 29.718 29.718 0 0 1 4.803 5.638Z" fill="#C4DF9B"/><path d="M44.473 38.706a14.646 14.646 0 0 1 13.533 9.046A14.654 14.654 0 0 1 47.331 67.73a14.645 14.645 0 0 1-15.038-6.23 14.655 14.655 0 0 1 12.18-22.794Zm0 9.654a3.318 3.318 0 0 0-3.064 4.58 3.32 3.32 0 0 0 1.395 1.606v2.902c0 .501.64.928 1.437.928h.454c.798 0 1.447-.408 1.447-.928v-2.902a3.32 3.32 0 0 0-1.67-6.186Z" fill="#9C9FA1"/><path d="M58.75 56.65a14.653 14.653 0 0 1-14.273 11.357A14.647 14.647 0 0 1 30.204 56.65a30.098 30.098 0 0 1 11.338-3.44 3.229 3.229 0 0 0 1.261 1.307v2.903c0 .5.64.927 1.437.927h.455c.797 0 1.446-.408 1.446-.927v-2.903c.537-.31.975-.767 1.26-1.317a30.168 30.168 0 0 1 11.349 3.45Z" fill="#BCBEC0"/></g></svg>