<svg xmlns="http://www.w3.org/2000/svg" viewBox="0 0 90 90"><path fill="#2D2D2D" d="M0 0h90v90H0z"/><path d="M32.571 48.347v-6.694c-.002-2.458-1.969-4.45-4.396-4.453H21.58c-2.427.003-4.394 1.995-4.396 4.453v6.694c.002 2.458 1.97 4.45 4.396 4.453h6.595c2.427-.003 4.394-1.995 4.396-4.453Zm40.245 0v-6.694c-.002-2.458-1.97-4.45-4.396-4.453h-6.595c-2.427.003-4.394 1.995-4.396 4.453v6.694c.002 2.458 1.969 4.45 4.396 4.453h6.595c2.427-.003 4.394-1.995 4.396-4.453Z" fill="#4B4B4B"/><path d="M33.755 48.862c-.003 2.836-2.271 5.135-5.07 5.138H21.07c-2.799-.003-5.067-2.302-5.07-5.138v-7.724c.003-2.836 2.271-5.135 5.07-5.138h7.615c2.799.003 5.067 2.302 5.07 5.138Zm-1.184-.515v-6.694c-.002-2.458-1.969-4.45-4.396-4.453H21.58c-2.427.003-4.394 1.995-4.396 4.453v6.694c.002 2.458 1.97 4.45 4.396 4.453h6.595c2.427-.003 4.394-1.995 4.396-4.453ZM74 48.862c-.003 2.836-2.272 5.135-5.073 5.138h-7.61c-2.8-.003-5.07-2.302-5.072-5.138v-7.724c.003-2.836 2.272-5.135 5.073-5.138h7.61c2.8.003 5.069 2.302 5.072 5.138Zm-1.184-.515v-6.694c-.002-2.458-1.97-4.45-4.396-4.453h-6.595c-2.427.003-4.394 1.995-4.396 4.453v6.694c.002 2.458 1.969 4.45 4.396 4.453h6.595c2.427-.003 4.394-1.995 4.396-4.453Zm-23.954 7.898c2.836.003 5.135 2.271 5.138 5.07v7.615c-.003 2.799-2.302 5.067-5.138 5.07h-7.724c-2.836-.003-5.135-2.271-5.138-5.07v-7.615c.003-2.799 2.302-5.067 5.138-5.07Zm-.515 1.184h-6.694c-2.458.002-4.45 1.969-4.453 4.396v6.595c.003 2.427 1.995 4.394 4.453 4.396h6.694c2.458-.002 4.45-1.97 4.453-4.396v-6.595c-.003-2.427-1.995-4.394-4.453-4.396Zm.515-21.307c2.836.003 5.135 2.273 5.138 5.073v7.61c-.003 2.8-2.302 5.07-5.138 5.073h-7.724c-2.836-.003-5.135-2.273-5.138-5.073v-7.61c.003-2.8 2.302-5.07 5.138-5.073Zm-.515 1.184h-6.694c-2.458.003-4.45 1.97-4.453 4.397v6.594c.003 2.427 1.995 4.394 4.453 4.397h6.694c2.458-.003 4.45-1.97 4.453-4.397v-6.594c-.003-2.427-1.995-4.394-4.453-4.397ZM48.862 16c2.836.003 5.135 2.272 5.138 5.073v7.61c-.003 2.8-2.302 5.07-5.138 5.072h-7.724c-2.836-.003-5.135-2.272-5.138-5.073v-7.61c.003-2.8 2.302-5.069 5.138-5.072Zm-.515 1.184h-6.694c-2.458.002-4.45 1.97-4.453 4.396v6.595c.003 2.427 1.995 4.394 4.453 4.396h6.694c2.458-.002 4.45-1.969 4.453-4.396V21.58c-.003-2.427-1.995-4.394-4.453-4.396Z" fill="#E78B47"/></svg>