<svg xmlns="http://www.w3.org/2000/svg" viewBox="0 0 90 90"><defs><linearGradient x1="18.126%" y1="86.683%" x2="93.776%" y2="7.879%" id="a"><stop stop-color="#0CD973" offset="0%"/><stop stop-color="#00CFFF" offset="100%"/></linearGradient></defs><path d="M0 44c0 24.3 19.7 44 44 44s44-19.7 44-44S68.3 0 44 0 0 19.7 0 44Z" fill="url(#a)" transform="translate(1 1)"/><path d="M62.45 50.505c0-2.496-2.913-6.87-2.913-6.87-.694-1.042-.332-1.389.748-.751l10.792 6.79c1.08.694 1.08.957 0 1.622l-10.792 6.831c-1.08.694-1.386.291-.748-.749 2.913-4.376 2.913-6.873 2.913-6.873ZM39.21 65.437c9.555 0 15.506-6.887 15.5-14.875 0-8.281-5.805-15.256-15.646-14.883-2.773.111-5.208 1.436-7.066 2.69V24.635h-5.715v32.46s3.364 8.32 12.92 8.32l.006.023Zm-7.212-9.653V45.379a10.258 10.258 0 0 1 6.56-4.022c6.616-.83 10.658 4.445 10.658 9.349a9.435 9.435 0 0 1-10.478 9.153 10.02 10.02 0 0 1-6.74-4.077v.002Z" fill="#FFF"/></svg>