<svg viewBox="0 0 90 90" xmlns="http://www.w3.org/2000/svg"><defs><linearGradient x1="0%" y1="50%" x2="100%" y2="50%" id="a"><stop stop-color="#D42626" offset="0%"/><stop stop-color="#CC1D2E" offset="100%"/></linearGradient><linearGradient x1="0%" y1="50%" x2="100%" y2="50%" id="b"><stop stop-color="#D42626" offset="0%"/><stop stop-color="#CC1D2E" offset="100%"/></linearGradient><linearGradient x1="-.623%" y1="50%" x2="99.814%" y2="50%" id="c"><stop stop-color="#D42626" offset="0%"/><stop stop-color="#CC1D2E" offset="100%"/></linearGradient><linearGradient x1="-.243%" y1="50%" x2="99.881%" y2="50%" id="d"><stop stop-color="#D42626" offset="0%"/><stop stop-color="#CC1D2E" offset="100%"/></linearGradient></defs><g fill="none"><path d="M47.356 14.742c0-1.282-1.089-2.289-2.268-2.289H2.268C.908 12.453 0 13.552 0 14.743c0 1.281 1.089 2.288 2.268 2.288h42.73c1.27 0 2.358-1.007 2.358-2.289Z" fill="url(#a)" transform="translate(1 26)"/><path d="M52.255 6.684c0-1.282-1.089-2.289-2.268-2.289H23.678c-1.27 0-2.268 1.099-2.268 2.29 0 1.281 1.089 2.288 2.268 2.288h26.309c1.27-.091 2.268-1.007 2.268-2.289Z" fill="url(#b)" transform="translate(1 26)"/><path d="M43.274 31.316c0-1.282-1.09-2.29-2.268-2.29H30.3c-1.27.092-2.178 1.1-2.178 2.29 0 1.282 1.089 2.289 2.268 2.289h10.705c1.089 0 2.178-1.007 2.178-2.29Z" fill="url(#c)" transform="translate(1 26)"/><path d="M40.098 22.892c0-1.282-1.088-2.29-2.268-2.29H11.794c-1.27 0-2.268 1.1-2.268 2.29 0 1.281 1.088 2.289 2.268 2.289H37.92c1.089 0 2.177-1.1 2.177-2.29Z" fill="url(#d)" transform="translate(1 26)"/><path d="M75.935 26H62.78c-.907 0-1.451.458-1.542 1.282l-6.26 35.436c-.09.824.273 1.282 1.18 1.282h14.334c5.08 0 9.162-1.099 12.247-3.113 3.084-2.106 4.627-5.311 4.627-9.89 0-1.922-.454-3.57-1.452-4.76-.816-1.283-2.086-2.107-3.538-2.473 2.087-.733 3.72-1.923 4.899-3.663 1.18-1.648 1.724-3.662 1.724-5.952.09-5.402-4.174-8.149-13.064-8.149Zm-5.171 31.957-7.44-.092 1.906-10.713h7.62c2.45 0 4.355.275 5.444.915 1.088.733 1.633 1.649 1.633 3.114 0 4.486-2.994 6.776-9.163 6.776Zm2.812-16.3h-7.53l1.724-9.705h7.258c2.268 0 3.9.275 4.899.824 1.088.55 1.542 1.465 1.542 2.747.181 4.12-2.45 6.135-7.893 6.135Z" fill="#D42626"/></g></svg>