<svg viewBox="0 0 90 90" xmlns="http://www.w3.org/2000/svg"><g fill="none"><path d="M22.807 30.927h8.385c2.642 0 4.802-2.15 4.802-4.786v-8.36c0-2.633-2.16-4.781-4.802-4.781h-8.385C20.156 13 18 15.148 18 17.781v8.36c0 2.636 2.155 4.786 4.806 4.786Zm44.385 0c2.638 0 4.805-2.15 4.805-4.786v-8.36c0-2.633-2.167-4.781-4.805-4.781h-8.39c-2.641 0-4.81 2.148-4.81 4.781v8.36c0 2.635 2.169 4.786 4.81 4.786h8.39Z" fill="#0075B2"/><path d="M85.192 42.135h-8.389c-2.638 0-4.806 2.163-4.806 4.795v8.36c0 2.628-2.167 4.774-4.805 4.774H22.806c-2.65 0-4.805-2.145-4.805-4.774v-8.36c0-2.632-2.167-4.795-4.812-4.795H4.801C2.161 42.135 0 44.298 0 46.93v8.36c0 2.628 2.162 4.774 4.801 4.774h8.39c2.644 0 4.81 2.156 4.81 4.78v8.368c0 2.64 2.155 4.788 4.806 4.788h44.386c2.638 0 4.805-2.149 4.805-4.788v-8.368c0-2.624 2.168-4.78 4.806-4.78h8.388c2.639 0 4.808-2.145 4.808-4.774v-8.36c0-2.632-2.17-4.795-4.808-4.795Z" fill="#6AB31D"/></g></svg>