<svg xmlns="http://www.w3.org/2000/svg" viewBox="0 0 90 90" fill-rule="evenodd" xmlns:v="https://vecta.io/nano"><path fill="#fff" d="M0 0h90v90H0z"/><path fill="#0049f8" fill-rule="nonzero" d="M44.989 77a13.04 13.04 0 0 1-9.336-3.894L16.883 54.39A13.16 13.16 0 0 1 13 44.967c0-3.501 1.396-6.85 3.894-9.304L35.61 16.892c5.17-5.181 13.568-5.192 18.759-.022l.022.022 18.716 18.716A13.19 13.19 0 0 1 77 45.021c0 3.501-1.396 6.85-3.894 9.304L54.38 73.117A13.19 13.19 0 0 1 44.989 77zm0-47.99a6.54 6.54 0 0 0-4.679 1.931l-9.38 9.38a6.63 6.63 0 0 0 0 9.369l9.369 9.369a6.65 6.65 0 0 0 9.369 0l9.369-9.369a6.65 6.65 0 0 0 0-9.369l-9.369-9.38a6.54 6.54 0 0 0-4.679-1.931z"/></svg>