<svg viewBox="0 0 90 90" xmlns="http://www.w3.org/2000/svg"><g fill="none" fill-rule="evenodd"><path fill="#111214" d="M0 0h90v90H0z"/><path d="M48.417 75c3.589 0 6.7-.882 9.335-2.646 2.635-1.765 4.668-4.28 6.1-7.547C65.284 61.54 66 57.657 66 53.159v-.04c0-4.506-.72-8.388-2.162-11.646-1.441-3.258-3.47-5.765-6.086-7.521-2.616-1.756-5.709-2.634-9.278-2.634-3.008 0-5.669.716-7.982 2.148-2.313 1.431-4.082 3.398-5.307 5.9h-.211V17H25v57.158h9.974v-7.135h.21c1.217 2.479 2.962 4.428 5.233 5.847 2.272 1.42 4.938 2.13 8 2.13Zm-2.976-8.308c-2.065 0-3.885-.554-5.462-1.663-1.576-1.108-2.809-2.678-3.699-4.707-.89-2.03-1.334-4.414-1.334-7.15v-.04c0-2.745.45-5.129 1.348-7.15.899-2.02 2.134-3.585 3.705-4.693 1.572-1.11 3.386-1.663 5.442-1.663 2.13 0 3.973.545 5.531 1.635 1.558 1.09 2.76 2.642 3.603 4.654.844 2.012 1.266 4.413 1.266 7.204v.04c0 2.783-.42 5.19-1.26 7.219-.839 2.03-2.038 3.59-3.596 4.68-1.559 1.09-3.407 1.634-5.544 1.634Z" fill="#FFF" fill-rule="nonzero"/></g></svg>