<svg viewBox="0 0 90 90" xmlns="http://www.w3.org/2000/svg"><g fill="none"><path d="M71.58 25.299a34.302 34.302 0 0 1 4.25 8.057l3.777-1.227a38.615 38.615 0 0 0-4.873-9.219L71.58 25.3ZM45.682 7.393a39.47 39.47 0 0 0-3.035 0l.288 3.951a36.41 36.41 0 0 1 4.567.126 35.65 35.65 0 0 1 4.514.725l1.012-3.832a39.337 39.337 0 0 0-5.155-.832 38.768 38.768 0 0 0-2.19-.138ZM8.633 62.307A39.325 39.325 0 0 1 5.25 52.13l-4.148.652a43.581 43.581 0 0 0 3.813 11.5l3.718-1.975ZM6.484 22.401l3.675 2.042a39.355 39.355 0 0 1 6.687-8.381l-2.814-3.12a43.856 43.856 0 0 0-7.548 9.46ZM1.281 35.925l4.137.73A39.283 39.283 0 0 1 9.01 26.532l-3.676-2.035a43.7 43.7 0 0 0-4.053 11.428ZM28.214 3.85l1.652 3.86a39.319 39.319 0 0 1 10.435-2.52L40 1a43.276 43.276 0 0 0-11.787 2.85Zm-12.41 7.47 2.814 3.12a39.624 39.624 0 0 1 9.045-5.79l-1.646-3.86a43.779 43.779 0 0 0-10.213 6.53Zm62.265 61.774-3.287-2.616a39.648 39.648 0 0 1-7.98 7.184l2.263 3.556a43.64 43.64 0 0 0 9.004-8.124Zm-51.142 7.477a39.51 39.51 0 0 1-8.926-5.986l-2.873 3.065a43.7 43.7 0 0 0 10.075 6.734l1.724-3.813Zm61.265-31.68a43.7 43.7 0 0 0-1.676-16.81l-4 1.33a40.025 40.025 0 0 1-.233 23.574l3.957 1.407a44.114 44.114 0 0 0 1.952-9.5ZM63.684 76.848l-2.132-3.335a34.577 34.577 0 0 1-8.38 3.592l.933 3.85a38.618 38.618 0 0 0 9.579-4.107Zm-52.04-27.861a35.583 35.583 0 0 1-.096-7.447 32.16 32.16 0 0 1 .204-1.676l-3.898-.695a41.65 41.65 0 0 0-.245 2.006 38.804 38.804 0 0 0 .126 8.423l3.909-.611ZM55.692 6.621a39.193 39.193 0 0 1 9.793 4.412l2.335-3.496a43.347 43.347 0 0 0-11.057-4.975l-1.071 4.06Zm-17.085 81.78.395-4.19a39.51 39.51 0 0 1-9.866-2.658l-1.754 3.855a43.856 43.856 0 0 0 11.225 2.993ZM18.037 71.37l2.718-2.885a34.913 34.913 0 0 1-5.525-7.256l-3.514 1.85a38.834 38.834 0 0 0 6.321 8.291ZM69.808 8.866l-2.359 3.508a39.798 39.798 0 0 1 7.824 7.351l3.365-2.562a43.7 43.7 0 0 0-8.83-8.297ZM73.83 67.12a38.26 38.26 0 0 0 5.053-9.112l-3.73-1.335a34.721 34.721 0 0 1-4.423 7.974l3.1 2.473Z" fill="#00C3FF"/><path d="m76.937 35.236-3.753 1.245a29.752 29.752 0 0 1 1.036 11.081 30.124 30.124 0 0 1-1.198 6.112l3.736 1.323a34.541 34.541 0 0 0 1.425-7.064 33.685 33.685 0 0 0-1.246-12.697ZM39.546 78.368l.366-3.945a30.01 30.01 0 0 1-6.76-1.832l-1.627 3.592a33.757 33.757 0 0 0 8.021 2.185ZM66.73 36.386l3.545-1.198a29.22 29.22 0 0 0-3.365-6.351l-2.963 2.257a24.97 24.97 0 0 1 2.784 5.292ZM45.3 17.211h-1.952l.27 3.712a24.64 24.64 0 0 1 5.932.55l.951-3.591a29.118 29.118 0 0 0-3.555-.557c-.533-.054-1.09-.09-1.647-.114ZM15.29 27.286l3.466 1.922a29.812 29.812 0 0 1 4.669-5.867l-2.67-2.94a33.446 33.446 0 0 0-5.465 6.885Zm37.893-11.158a29.543 29.543 0 0 1 6.843 3.077l2.197-3.293a33.626 33.626 0 0 0-8.028-3.592l-1.012 3.808Zm14.266 9.548 3.149-2.395a33.524 33.524 0 0 0-6.412-6.04l-2.197 3.293a29.854 29.854 0 0 1 5.46 5.142ZM63.21 58.685l2.922 2.317a28.777 28.777 0 0 0 3.484-6.286l-3.514-1.245a25.215 25.215 0 0 1-2.891 5.214Zm-38.474 8.764-2.712 2.885a33.614 33.614 0 0 0 7.322 4.897l1.622-3.592a29.579 29.579 0 0 1-6.232-4.19Zm-3.592-19.953a25.562 25.562 0 0 1-.042-5.064c.03-.293.066-.599.102-.892l-3.67-.653a29.471 29.471 0 0 0-.078 7.184l3.688-.575Zm-6.184 3.101-3.915.599a33.781 33.781 0 0 0 2.778 8.38l3.502-1.849a29.932 29.932 0 0 1-2.365-7.13Zm46.55 18.792 2.132 3.334a33.71 33.71 0 0 0 6.543-5.873l-3.101-2.46a29.699 29.699 0 0 1-5.574 4.999ZM17.594 31.297l-3.46-1.916a33.452 33.452 0 0 0-2.957 8.304l3.897.688a29.722 29.722 0 0 1 2.52-7.076ZM50.903 67.76l.874 3.592a28.777 28.777 0 0 0 6.615-2.82L56.38 65.39a25.143 25.143 0 0 1-5.477 2.37ZM23.706 56.745l-3.292 1.724a28.687 28.687 0 0 0 4.352 5.717l2.574-2.723a25.275 25.275 0 0 1-3.634-4.718ZM43.282 74.74c-.33 0-.659-.041-.994-.065l-.365 3.945c3.106.227 6.228.026 9.279-.599l-.934-3.85a29.645 29.645 0 0 1-6.986.57ZM22.551 18.798l2.652 2.939a30.04 30.04 0 0 1 6.328-4.047l-1.557-3.64a33.919 33.919 0 0 0-7.423 4.748Zm9.614-5.688 1.557 3.646a29.752 29.752 0 0 1 7.291-1.796l-.281-3.945a33.656 33.656 0 0 0-8.567 2.095Z" fill="#7EE0FF"/><path d="M42.168 88.7c3.736.12 7.473-.181 11.141-.897l-.874-4.041a39.72 39.72 0 0 1-9.68.796c-.52 0-.898-.066-1.419-.108l-.365 4.233c.399.023.799.023 1.197 0v.018Z" fill="#00C3FF"/></g></svg>