<svg xmlns="http://www.w3.org/2000/svg" viewBox="0 0 90 90"><path fill="#249182" d="M0 0h90v90H0z"/><path d="M68.08 53.26H32.8a4.87 4.87 0 01-4.91-4.83c0-2.66 2.2-4.82 4.91-4.82h35.28A4.87 4.87 0 0173 48.43c0 2.67-2.2 4.83-4.92 4.83"/><path fill="#FFF" d="M15 48.43a4.83 4.83 0 109.66 0 4.83 4.83 0 00-9.66 0"/><path d="M68.08 66.13H32.8a4.87 4.87 0 01-4.91-4.83c0-2.66 2.2-4.82 4.91-4.82h35.28A4.87 4.87 0 0173 61.3c0 2.67-2.2 4.83-4.92 4.83"/><path fill="#FFF" d="M15 61.3a4.83 4.83 0 109.66 0 4.83 4.83 0 00-9.66 0"/><path d="M68.08 79H32.8a4.87 4.87 0 01-4.91-4.83c0-2.66 2.2-4.82 4.91-4.82h35.28A4.87 4.87 0 0173 74.17c0 2.67-2.2 4.83-4.92 4.83"/><path fill="#FFF" d="M15 74.17a4.83 4.83 0 109.66 0 4.83 4.83 0 00-9.66 0"/><path d="M68.4 37.17a4.5 4.5 0 01-4.6-4.4c0-10.45-8.88-18.96-19.8-18.96s-19.8 8.5-19.8 18.96a4.5 4.5 0 01-4.6 4.4 4.5 4.5 0 01-4.6-4.4C15 17.46 28 5 44 5s29 12.46 29 27.77a4.5 4.5 0 01-4.6 4.4"/></svg>