<svg viewBox="0 0 90 90" xmlns="http://www.w3.org/2000/svg"><g fill="#632D8E"><path d="M86.225 6.544 45.338 0 4.445 6.544C5.334 52.976-5.769 64.08 45.338 90 96.446 64.08 85.337 52.976 86.225 6.544ZM67.456 46.588h4.424a1.36 1.36 0 0 1 .547 2.622c-.296.09-.604.134-.914.13h-4.541v4.35h4.914a1.36 1.36 0 0 1 .534 2.623c-.294.096-.603.14-.913.13h-4.566a6.146 6.146 0 0 1-1.864 4.17 6.026 6.026 0 0 1-4.213 1.715v4.804a1.405 1.405 0 1 1-2.79 0v-4.766h-4.261v4.772a1.405 1.405 0 1 1-2.79 0V62.39H46.73v4.717a1.405 1.405 0 1 1-2.79 0v-4.741h-4.293v4.772a1.398 1.398 0 1 1-2.783 0v-4.785h-4.293v4.785a1.398 1.398 0 1 1-2.783 0v-4.766c-3.604-.354-5.592-2.33-6.095-5.941h-2.268c-.913 0-1.833 0-2.746-.044a1.342 1.342 0 0 1-1.243-1.391 1.38 1.38 0 0 1 1.404-1.33h4.884v-4.35h-4.635a1.596 1.596 0 0 1-1.243-.398 1.33 1.33 0 0 1-.348-1.454c.19-.564.729-.936 1.324-.914h4.896V42.2h-4.635a1.565 1.565 0 0 1-1.243-.397 1.367 1.367 0 0 1 .932-2.355h4.97v-4.35H18.71a1.367 1.367 0 0 1-.957-2.262c.29-.335.72-.513 1.162-.479h4.803v-4.35h-4.99a1.367 1.367 0 0 1-.956-2.262 1.39 1.39 0 0 1 1.162-.478h4.765c.31-3.729 2.317-5.817 6.1-6.252v-4.747a1.398 1.398 0 1 1 2.784 0v4.741h4.293v-4.766a1.398 1.398 0 1 1 2.784 0v4.779h4.293v-4.673a1.405 1.405 0 1 1 2.79 0v4.766h4.293V14.33a1.405 1.405 0 1 1 2.79 0v4.76h4.292v-4.729a1.405 1.405 0 1 1 2.79 0v4.717c3.728.403 5.734 2.448 6.07 6.251h4.939c.684.002 1.257.52 1.33 1.2a1.373 1.373 0 0 1-.876 1.435c-.267.077-.544.11-.82.1h-4.592v4.35h4.958a1.354 1.354 0 0 1 1.336 1.199 1.38 1.38 0 0 1-.882 1.435 2.584 2.584 0 0 1-.82.106H66.96v4.35h4.957a1.36 1.36 0 0 1 .454 2.634c-.28.085-.572.123-.864.112H66.96v4.35l.496-.012Z"/><path d="M56.366 42.294a6.756 6.756 0 0 1 1.305 4.207 6.215 6.215 0 0 1-2.746 5.437c-1.83 1.268-4.502 1.902-8.015 1.902H33V26.938h13.146c3.274 0 5.797.622 7.549 1.865a5.966 5.966 0 0 1 2.634 5.114 6.47 6.47 0 0 1-3.572 5.916 7.139 7.139 0 0 1 3.61 2.46ZM39.188 31.63v6.339H45.4a6.212 6.212 0 0 0 3.473-.79 2.678 2.678 0 0 0 1.186-2.38 2.635 2.635 0 0 0-1.186-2.361 6.355 6.355 0 0 0-3.498-.79l-6.188-.018ZM50.16 48.365a2.772 2.772 0 0 0 1.242-2.486c0-2.229-1.657-3.345-4.97-3.35h-7.244v6.65h7.262a6.939 6.939 0 0 0 3.71-.814Z"/></g></svg>