<svg xmlns="http://www.w3.org/2000/svg" viewBox="0 0 90 90"><defs><linearGradient id="a" x1="0%" x2="100%" y1="50%" y2="50%"><stop offset="0%" stop-color="#EC1C24"/><stop offset="20%" stop-color="#FFF100"/><stop offset="40%" stop-color="#00A551"/><stop offset="60%" stop-color="#00A8EA"/><stop offset="80%" stop-color="#2E3191"/><stop offset="100%" stop-color="#EB008B"/></linearGradient></defs><path fill="#1A1A1A" d="M0 0h90v90H0z"/><path fill="#FFF" d="M33.88 74.33l-1.55 1.19s13.55-37.2 16.3-44.95c2.73-7.75 5.4-16.57 5.4-16.57h3.8L33.88 74.33z"/><path fill="#FFF" d="M61.89 31.7c-3.1-3.89-8.02-5.87-13.95-5.56A31.22 31.22 0 0030.63 33a29 29 0 00-8.95 10.45h3.1a26.66 26.66 0 017.26-8.65 28.9 28.9 0 0115.98-6.38c5.22-.27 9.5 1.39 12.06 4.65 2.55 3.25 3.1 7.85 1.55 12.84a29.1 29.1 0 01-10.1 13.95c-10 7.9-22.87 8.39-28.65 1.77-1.3-1.4-2.2-3.13-2.62-5L19 55.45A13.44 13.44 0 0021.73 63a15.8 15.8 0 0012.77 5.57c6.73-.21 13.2-2.63 18.43-6.89a31.16 31.16 0 0011.02-15.14c1.67-5.66.98-10.96-2.06-14.85z"/><path fill="url(#a)" d="M57.27 34.68c-34.4 0-46.06 3.67-46.06 3.67l4.52-5.46 42.67.1-1.13 1.7z" transform="translate(19 14)"/></svg>