<svg viewBox="0 0 90 90" xmlns="http://www.w3.org/2000/svg"><g fill="none"><path fill="#1259EF" d="M0 0h90v90H0z"/><path d="M55.89 40.308c1.248-2.378 1.95-5.195 1.95-8.31C57.84 23.328 50.21 16 41.18 16H25v60h5.29c2.741 0 5.704-.026 8.576-.039 2.495-.013 4.86-.039 6.758-.039C56.306 75.922 65 67.277 65 56.655c0-6.888-3.639-12.936-9.11-16.347Zm-20.312-13.75 5.601-.039c3.821 0 6.095 2.623 6.095 5.492 0 5.092-3.262 5.389-4.21 5.544-1.65.284-4.913.737-7.486 2.068V26.558Zm10.046 38.845c-1.937 0-4.315.013-6.836.04-1.065.012-2.144.012-3.21.025v-8.826c0-4.497 4.887-8.762 10.046-8.762 4.86 0 8.81 3.929 8.81 8.762s-3.95 8.761-8.81 8.761Z" fill="#FFF"/></g></svg>