<svg viewBox="0 0 90 90" xmlns="http://www.w3.org/2000/svg"><path d="M61.719 13c1.994.008 5.197.081 5.697.154 2.754.421 4.798.885 6.58 1.48.87.29 3.001 1.19 3.639 1.538.275.145.768.42 1.087.58.319.175.638.363.725.421.072.058.695.508 1.362 1.001 1.957 1.422 3.74 3.337 5.059 5.427.87 1.392 2.16 4.468 2.406 5.76.03.188.13.623.217.986.406 1.828.522 3.134.508 6.021-.015 2.873-.218 4.208-1.102 6.82-.609 1.827-1.565 3.786-2.594 5.324-3.842 5.716-10.19 9.808-16.423 10.635-.273.035-.902.064-1.573.08l-.45.01a50.9 50.9 0 0 1-.65.008h-.39a6.678 6.678 0 0 1-.72-.026c-.334-.072-.493.015-.58.32-.16.536-1.464 3.075-2.044 3.99-2.29 3.597-5.61 7.109-8.378 8.85-1.333.841-2.986 1.581-4.16 1.886-1.13.275-3.972.116-4.392-.261-.101-.102.45-.944 1.015-1.538.087-.087.536-.74 1-1.451.464-.697.957-1.451 1.101-1.654.406-.61 1.696-3.25 2.175-4.454.58-1.437 1.217-3.511 1.536-4.89.45-2.017.565-5.295.203-6.122-.623-1.48-4.03-1.48-7.914 0-1.16.435-3.725 1.712-4.131 2.06a1.62 1.62 0 0 1-.363.232c-.087.029-.608.377-1.16.769-.753.508-1.13.9-1.434 1.45-.71 1.277-2.769 4.31-4.03 5.906-2.681 3.438-5.769 6.587-8.726 8.894-4.102 3.206-7.638 4.512-9.262 3.41-1.362-.93-2.58-3.265-2.812-5.37-.072-.783-.058-.855.55-1.77 1.624-2.422 6.016-6.296 12.67-11.142a94.95 94.95 0 0 1 2.305-1.63l.453-.31.454-.307c2.191-1.48 4.303-2.816 4.513-2.816.09 0 .585-.83 1.074-1.752l.183-.349c.24-.467.467-.934.628-1.309 1.826-4.193 1.608-7.878-.508-8.98-.58-.29-1.333-.29-2.435 0-3.435.884-7.58 4.265-11.118 9.067-1.072 1.451-1.84 2.67-3.203 5.078-.913 1.61-3.29 1.437-5.044-.362-.783-.798-1.725-2.496-1.725-3.12 0-.276.304-.696 1.102-1.538 1.435-1.509 2.29-2.829 3.594-5.499 2.812-5.774 4.421-11.563 4.508-16.264.058-3.714-.638-4.89-2.406-3.975-1.232.624-2.623 2.19-3.899 4.41-.406.697-.725 1.277-.725 1.306 0 .044-.246.566-.55 1.19-1.653 3.38-3.305 9.358-4.016 14.48-.043.319-.101.74-.145.943a27.35 27.35 0 0 0-.145 1.305c-.043.523-.116 1.132-.145 1.379-.362 2.8-.362 10.664 0 13.275l.027.199c.031.24.075.585.118.89.044.391.145 1.058.232 1.465.073.406.174.928.218 1.16.362 2.162 1.391 4.832 2.348 6.109.45.609.478.885.16 1.523-.189.363-.522.696-1.03.972-.681.392-.87.435-1.855.406-.87-.029-1.276-.13-2.03-.479-2.826-1.334-4.942-4.889-5.725-9.56-.16-1.045-.203-2.482-.16-7.037.015-3.149.088-5.89.131-6.094.058-.203.13-.696.174-1.088.493-4.541 2.189-10.969 4.19-15.858 3.159-7.719 7.594-13.406 12.03-15.408.812-.363 1.058-.45 2.116-.653.87-.174 2.32-.087 2.928.188 2.218.973 3.479 4.324 3.377 8.938-.043 1.958-.13 2.887-.463 4.802-.116.711-.247 1.48-.29 1.698-.03.217-.203 1.015-.392 1.77-.203.812-.275 1.349-.174 1.291l.096-.065c.152-.103.434-.298.716-.5 1.479-1.031 2.943-1.67 4.827-2.076 1.348-.29 3.537-.377 4.348-.145.261.058.653.145.885.189 1.014.174 2.594 1.103 3.55 2.09 2.421 2.466 3.103 6.296 2.03 11.272-.145.711-.275 1.335-.275 1.408 0 .058.637-.13 1.42-.407 1.493-.55 4.523-1.45 5.29-1.581.262-.043.697-.145.972-.218 1.551-.406 4.464-.464 5.668-.101 2.116.624 3.29 2.815 3.391 6.34.102 3.337-.826 7.153-2.58 10.562l-.536 1.06.84-.58c2.421-1.713 4.74-4.73 6.61-8.619.885-1.828 2.117-4.962 2.117-5.368 0-.145.217-.189.797-.174 3.957.116 9.378-2.931 12.364-6.935 2.218-3.004 3.218-5.949 3.29-9.823A16.235 16.235 0 0 0 77.2 23.934c-.609-.812-2.348-2.51-3.261-3.192-5.204-3.902-12.466-4.875-19.018-2.568-6 2.133-11.465 7.211-15.538 14.45-.841 1.51-.971 1.568-1.972 1.046-2-1.074-2.26-2.931-.84-5.934.449-.944 1.391-2.525 1.638-2.757.043-.044.26-.334.507-.653.623-.856 3.174-3.38 4.348-4.31 2.769-2.204 6.233-4.12 9.64-5.324 2.16-.769 4.247-1.233 7.464-1.668.117-.014.42-.021.841-.024Zm-7.957 23.034c.116-.145.68-.174 2.623-.101l.241.01.483.02c1.118.047 2.162.091 2.509.115.405.029 1.84.087 3.174.145l.474.02c1.177.051 2.258.1 2.526.125.32.03 1.421.087 2.48.145 2.565.145 2.594.145 2.652.305.087.305-.667 1.465-1.247 1.9-.493.392-1.71.857-2.899 1.132-.348.087-4.232.914-4.653 1.001-1.046.205-3.686.69-4.61.853l-.208.036-.067.01a42.68 42.68 0 0 0-1.811.349c-1.16.232-1.29.232-1.479.015-.899-1.016-1.029-4.977-.188-6.08Zm-2.334-9.827c.633.004 1.741.058 3.74.15 1.072.044 2.507.116 3.189.145 2.986.13 5.073.232 6.087.29.595.03 1.812.102 2.682.146 2.638.145 3.754.217 3.812.29.03.029-.101.406-.304.841-.653 1.422-1.363 1.915-3.812 2.626-.943.276-1.914.523-2.16.566-.232.044-1.377.276-2.537.522-1.16.233-3.594.697-5.435 1.03l-.331.06c-3.683.668-5.11.945-5.264 1.043-.189.116-.71-.696-.928-1.45-.609-2.191-.493-4.89.29-5.993.123-.177.12-.26.796-.266Z" fill="#FF0039"/></svg>