<svg viewBox="0 0 90 90" xmlns="http://www.w3.org/2000/svg"><g fill="none"><g stroke-linecap="round" stroke-linejoin="round"><path d="m52.263 22.443-50.37 28.93a1.17 1.17 0 0 0 0 2.03L37.871 74.07a1.18 1.18 0 0 0 1.17 0l50.37-28.931a1.17 1.17 0 0 0 0-2.03l-35.98-20.665a1.174 1.174 0 0 0-1.169 0Z" fill="#0288D1"/><path fill="#FFF" d="m52.848 24.808 33.627 19.315-48.019 27.58L4.827 52.388z"/><path d="M88.827 42.952c.607 0 1.106.461 1.166 1.051l.006.12v8.266c0 .373-.177.72-.472.939l-.116.076-50.37 28.93c-.322.185-.71.206-1.046.062l-.124-.061L1.891 61.67a1.17 1.17 0 0 1-.58-.877l-.007-.138v-8.266a1.172 1.172 0 0 1 2.339-.12l.006.12-.001 7.588 34.807 19.991 49.199-28.257v-7.588c0-.606.462-1.105 1.053-1.165l.12-.006Z" fill="#0288D1"/><path d="M88.243 45.863a1.173 1.173 0 0 1 1.752.899l.005.115V57.9c0 .372-.177.72-.472.938l-.116.076L39.04 87.845l-.053.029-.059.027c-.077.034-.157.06-.237.076l-.12.018-.122.005-.12-.007-.105-.016-.12-.031-.118-.045-.111-.056L1.892 67.18a1.172 1.172 0 0 1-.418-.408l-.068-.13-.12-.282a11.95 11.95 0 0 1-.065-.166l-.14-.378-.15-.438a21.002 21.002 0 0 1-.233-.761c-.581-2.033-.847-4.11-.614-6.088.176-1.487.633-2.845 1.414-4.029a1.174 1.174 0 0 1 1.454-.426l.11.055 35.394 20.33 49.787-28.595Z" fill="#0288D1"/><path d="M87.655 48.902 39.04 76.822a1.17 1.17 0 0 1-1.046.062l-.123-.061L2.939 56.758l-.056.133a7.335 7.335 0 0 0-.423 1.572l-.047.34c-.192 1.625.037 3.41.54 5.17.1.35.205.678.312.98l.106.292.04.106 35.045 20.127 49.199-28.257V48.9Z" fill="#FFF"/><path d="M52.263 3.156 1.892 32.086a1.17 1.17 0 0 0 0 2.029l35.98 20.665c.362.208.807.208 1.17 0l50.37-28.931a1.17 1.17 0 0 0 0-2.03L53.432 3.156a1.174 1.174 0 0 0-1.17 0Z" fill="#0288D1"/><path fill="#FFF" d="m52.847 5.52 33.628 19.314-48.019 27.58L4.827 33.1z"/><path d="M88.243 23.82 38.456 52.414 3.062 32.085a1.173 1.173 0 0 0-1.604.436C.737 33.787.362 35.295.27 36.986c-.094 1.763.12 3.624.535 5.46.12.538.25 1.034.381 1.478l.087.288.095.292c.092.267.278.491.523.632l35.98 20.665c.362.208.807.208 1.17 0l50.37-28.93A1.17 1.17 0 0 0 90 35.855v-11.02c0-.9-.975-1.464-1.757-1.015Z" fill="#0288D1"/><path d="M87.655 26.858v8.32L38.456 63.435 3.457 43.333l-.02-.068a21.627 21.627 0 0 1-.343-1.332c-.371-1.645-.562-3.302-.48-4.822l.022-.334a9.014 9.014 0 0 1 .328-1.829l.059-.184L37.872 54.78c.362.208.807.208 1.17 0l48.613-27.922Z" fill="#FFF"/><path d="M88.243 34.844a1.173 1.173 0 0 1 1.752.9l.005.115v11.02c0 .373-.177.72-.472.94l-.116.076L39.04 76.827l-.053.028-.059.027a1.02 1.02 0 0 1-.117.045l-.12.031-.12.018-.122.005-.12-.007-.118-.02-.107-.027-.059-.02-.06-.025-.11-.055L1.892 56.16a1.172 1.172 0 0 1-.418-.408l-.068-.13-.058-.133-.127-.315a13.88 13.88 0 0 1-.069-.18l-.145-.41c-.1-.292-.205-.623-.309-.987-.581-2.033-.847-4.11-.614-6.088.176-1.487.633-2.845 1.414-4.029a1.174 1.174 0 0 1 1.454-.426l.11.056 35.394 20.329 49.787-28.595Z" fill="#0288D1"/><path d="M87.655 37.883 39.04 65.804c-.322.185-.71.205-1.046.062l-.123-.062L2.939 45.74l-.056.132a7.335 7.335 0 0 0-.423 1.572l-.047.34c-.192 1.625.037 3.41.54 5.17.1.35.205.678.312.98l.106.292.04.106L38.456 74.46l49.199-28.258v-8.32Z" fill="#FFF"/></g><path d="m39.07 20.377-.102.065c-.87.614-.515 2.026.59 2.116l7.556.62.997 4.007a1.173 1.173 0 0 0 1.723.732l21.588-12.399a1.17 1.17 0 0 0 0-2.03l-9.595-5.51a1.174 1.174 0 0 0-1.17 0L39.07 20.377Z" fill="#0288D1"/><path d="m61.242 10.343 7.242 4.16-18.472 10.61-.824-3.315-.036-.119a1.172 1.172 0 0 0-1.006-.765l-4.644-.382 17.74-10.19Z" fill="#FFF"/></g></svg>