<svg width="90" height="90" viewBox="0 0 90 90" fill="none" xmlns="http://www.w3.org/2000/svg">
<g id="booking">
<rect width="90" height="90" fill="black"/>
<rect id="Path" width="90" height="90" fill="#003382"/>
<g id="if_booking_3069703">
<path id="Combined Shape" fill-rule="evenodd" clip-rule="evenodd" d="M48.252 43.3828C48.5067 43.5357 48.7615 43.6831 49.0139 43.8291L49.014 43.8291C49.5453 44.1365 50.0661 44.4378 50.5547 44.7715C53.0859 46.5645 54.5273 49.0606 55.0547 52.0664C55.6172 55.2129 55.248 58.2891 53.7012 61.1367C52.2773 63.7559 50.0977 65.5664 47.3906 66.7793C45.0703 67.8164 42.627 68.3789 40.1133 68.3965C35.9322 68.4467 31.7511 68.4521 27.57 68.4575C25.8976 68.4596 24.2252 68.4618 22.5527 68.4668C22.4693 68.4668 22.3748 68.4558 22.2607 68.4425H22.2606L22.2604 68.4425C22.2304 68.439 22.199 68.4353 22.166 68.4317V67.957V25.9102C22.166 23.3086 24.416 21.041 27.0176 21.041C27.5981 21.0385 28.179 21.0357 28.7602 21.0328C32.2614 21.0156 35.7719 20.9983 39.2695 21.0586C42.6973 21.1113 45.9668 21.8848 48.7969 23.959C51.6445 26.0508 53.1387 28.8984 53.3848 32.4141C53.5957 35.3145 52.998 38.0215 51.2578 40.3945C50.8292 40.979 50.3046 41.4963 49.7762 42.0173L49.7762 42.0174C49.5895 42.2015 49.4023 42.3861 49.2188 42.5742C49.0265 42.7552 48.8196 42.9216 48.6076 43.0922C48.4901 43.1867 48.371 43.2825 48.252 43.3828ZM31.377 60.3281C31.4101 60.3337 31.4397 60.3392 31.4664 60.3441L31.4665 60.3442C31.5249 60.355 31.5693 60.3633 31.6055 60.3633C32.4297 60.3633 33.2526 60.369 34.0748 60.3748H34.0751C36.1284 60.3891 38.1779 60.4034 40.2363 60.3281C42.3105 60.2402 44.0508 59.3086 45.0176 57.375C46.125 55.1426 46.1602 52.8223 45.0176 50.5899C43.9277 48.4629 41.9766 47.6367 39.6914 47.5664C38.124 47.5225 36.5566 47.5396 34.9893 47.5567C34.6758 47.5601 34.3623 47.5635 34.0488 47.5664C32.7305 47.584 31.7461 48.4277 31.5 49.7109C31.4297 50.1152 31.3945 50.5371 31.3945 50.9414V59.8711C31.377 60.0117 31.377 60.1699 31.377 60.3281ZM38.1621 40.1836H31.3945C31.3945 40.1385 31.3934 40.0957 31.3922 40.0541C31.389 39.9333 31.386 39.8221 31.4121 39.6914C31.3945 37.2129 31.3945 34.7168 31.4121 32.2207C31.4121 31.6582 31.4648 31.0781 31.6406 30.5508C32.0273 29.3379 33.0293 28.8809 34.1895 28.8457C35.9473 28.8106 37.7051 28.7754 39.4453 28.916C42.082 29.1094 43.8223 30.9902 44.0332 33.627C44.1387 35.1563 43.9277 36.6152 43.084 37.9336C42.1523 39.375 40.7812 40.0254 39.1113 40.166C38.874 40.1924 38.6367 40.1891 38.3994 40.1858C38.3203 40.1847 38.2412 40.1836 38.1621 40.1836Z" fill="#FFFFFE"/>
<path id="Shape" d="M59.959 63.2637C59.959 60.1523 62.4902 57.6387 65.6191 57.6211C68.8359 57.6211 71.3848 60.1523 71.3848 63.334C71.3848 66.3398 68.7832 68.959 65.7773 68.9766C62.5078 68.9766 59.959 66.4629 59.959 63.2637Z" fill="#2394C6"/>
</g>
</g>
</svg>
