<svg xmlns="http://www.w3.org/2000/svg" viewBox="0 0 90 90" fill="none" fill-rule="evenodd" xmlns:v="https://vecta.io/nano"><path fill="#033d58" d="M0 0h90v90H0z"/><g fill-rule="nonzero"><path fill="#fff" d="M48.796 34.389c-5.67-.079-11.1 1.969-15.252 5.749V11.945c0-.551-.399-.945-.958-.945-.16 0-.319.079-.479.157l-6.867 3.937c-.16.079-.24.236-.24.394v59.692c0 .472.399.945.958.945h6.708c.479 0 .958-.394.958-.945h0v-3.937c4.152 3.78 9.662 5.827 15.252 5.749 11.898.315 21.8-8.977 22.119-20.711.24-11.812-9.183-21.577-21.081-21.892h-1.118 0zm0 34.65c-7.267.157-13.336-5.512-13.495-12.757v-.63c0-7.324 5.989-13.309 13.495-13.309s13.495 5.906 13.495 13.309c.24 7.166-5.51 13.151-12.777 13.387h-.719z"/><circle cx="69" cy="30.4" r="5" fill="#ff7c66"/></g></svg>