<svg viewBox="0 0 90 90" xmlns="http://www.w3.org/2000/svg"><g fill="none"><path fill="#FFF" d="M0 0h90v90H0z"/><path d="M71.543 57.313c-1.125 1.285-3.258.935-6.83-1.066-2.063-1.143-4.32-2.694-6.706-4.333l-.917-.624c-1.46-.995-2.969-2.023-4.418-2.925a59.466 59.466 0 0 0-1.108-.664l-.738-.414a21.711 21.711 0 0 0-2.083-1.05 11.542 11.542 0 0 0-.38-.168v-.001a30.24 30.24 0 0 0-.672-.29l-.126-.076h-.059a31.95 31.95 0 0 0-12.163-2.384c-3.434 0-6.765.54-9.96 1.585 5.743-5.401 13.029-10.42 15.612-11.946 1.115-.66 2.493-1.009 3.985-1.009 1.5 0 2.948.36 4.08 1.016 6.212 3.595 21.956 15.825 22.982 22.197l.002.009c.147.888-.017 1.588-.501 2.143m-51.409.662c-.717 0-1.237-.21-1.631-.66-.516-.592-.696-1.337-.549-2.283a5.73 5.73 0 0 1 .345-1.217c.012-.033.03-.068.045-.1.076-.189.158-.381.255-.58.037-.077.085-.158.125-.236.083-.163.165-.323.26-.492l.09-.15c.007-.013.017-.026.024-.037.71-1.204 1.824-2.208 3.224-2.905a28.973 28.973 0 0 1 13.021-3.05c1.656 0 3.29.136 4.898.409-.065.03-.132.068-.197.1a32.033 32.033 0 0 0-1.626.87l-.322.182a53.108 53.108 0 0 0-1.047.624c-.302.184-.607.374-.912.567l-.414.265c-.199.128-.397.255-.597.386l-.466.304-.56.372-.473.314-.577.388-.468.315-.943.64c-4.35 2.938-8.846 5.974-11.505 5.974m54.774-3.293c-1.357-8.397-19.623-21.509-24.41-24.279C48.934 29.5 46.975 29 44.98 29c-2.004 0-3.889.487-5.446 1.41-3.698 2.182-15.628 10.496-21.353 17.98a23.8 23.8 0 0 0-1.51 2.2l-.104.17c-.82 1.404-1.305 2.652-1.483 3.817-.282 1.812.148 3.435 1.246 4.695.95 1.08 2.265 1.653 3.804 1.653 3.537 0 8.188-3.143 13.19-6.52 4.062-2.757 9.116-6.189 11.697-6.189.407 0 .927.108 1.548.32l.161.056c.139.049.278.103.42.16l.421.184c.53.225 1.136.53 1.908.964.09.05.183.103.21.115.055.031.111.06.177.093l.236.14c.352.205.713.423 1.062.638 1.389.862 2.871 1.874 4.306 2.851l.908.618c2.447 1.682 4.758 3.27 6.94 4.476C65.957 60.311 68 61 69.744 61c1.63 0 2.965-.581 3.97-1.73 1.075-1.23 1.487-2.816 1.193-4.588" fill="#1D1D1B"/></g></svg>