<svg viewBox="0 0 90 90" xmlns="http://www.w3.org/2000/svg"><g fill="none"><path fill="#FFF" d="M80.18 80.24H90V37.213l-9.82 4.592z"/><path d="M50.26 9.012v12.167l25.68 11.224-25.68 11.224v12.166l11.636-5.44c.143.906.222 1.837.222 2.787 0 9.836-7.843 17.842-17.488 17.842-9.644 0-17.488-8.006-17.488-17.842 0-1.089.1-2.151.29-3.182l12.344 5.85V43.63L14.648 32.403l25.128-11.23V9L0 27.852v9.104l18.373 8.71a27.203 27.203 0 0 0-1.057 7.474C17.316 68.5 29.566 81 44.63 81c15.057 0 27.308-12.497 27.308-27.86 0-2.443-.335-4.797-.938-7.044l18.995-8.882.005-.002v-9.616L50.26 9.012Z" fill="#0CC9AB"/></g></svg>