<svg viewBox="0 0 90 90" xmlns="http://www.w3.org/2000/svg"><g fill="none"><path fill="#FFF" d="M0 0h90v90H0z"/><path d="M78 50.5v11a5.5 5.5 0 0 1-5.5 5.5h-55a5.5 5.5 0 0 1-5.5-5.5v-11a5.5 5.5 0 0 1 5.5-5.5h55a5.5 5.5 0 0 1 5.5 5.5Zm-5.5-9.167c1.21 0 2.41.24 3.527.707l-11.06-16.59A5.5 5.5 0 0 0 60.39 23H29.61a5.5 5.5 0 0 0-4.576 2.45l-11.06 16.59a9.116 9.116 0 0 1 3.526-.707h55Z" fill="#515151"/><path d="M67 52.333a3.667 3.667 0 1 0 0 7.334 3.667 3.667 0 0 0 0-7.334Z" fill="#FF9700"/><path d="M56 52.333a3.667 3.667 0 1 0 0 7.334 3.667 3.667 0 0 0 0-7.334Z" fill="#E55100"/></g></svg>