<svg viewBox="0 0 90 90" xmlns="http://www.w3.org/2000/svg"><defs><linearGradient x1="12.444%" y1="0%" x2="87.556%" y2="100%" id="a"><stop stop-color="#03D4E9" offset="0%"/><stop stop-color="#393BB8" offset="100%"/></linearGradient></defs><g fill="none"><path fill="#222" d="M0 0h90v90H0z"/><path d="M50.075 68a3.03 3.03 0 0 1-1.916-.682 3.08 3.08 0 0 1-.46-4.316l9.327-11.619-9.331-11.686a3.08 3.08 0 0 1 .47-4.316 3.043 3.043 0 0 1 4.293.473l10.87 13.613a3.082 3.082 0 0 1-.005 3.849l-10.87 13.542A3.042 3.042 0 0 1 50.073 68h.002Zm-9.24-12.382a3.08 3.08 0 0 0 .47-4.315l-9.331-11.687L41.3 27.998a3.08 3.08 0 0 0-.459-4.317 3.043 3.043 0 0 0-4.294.461l-10.87 13.542a3.083 3.083 0 0 0-.005 3.85l10.87 13.613a3.04 3.04 0 0 0 4.293.472Z" fill="url(#a)"/></g></svg>