<svg xmlns="http://www.w3.org/2000/svg" viewBox="0 0 90 90"><path fill="#FFF" d="M0 0h90v90H0z"/><path d="M36.299 48.56v15.042h9.43c3.223 0 5.52-.651 6.895-1.956a7.338 7.338 0 0 0 2.063-5.565 7.313 7.313 0 0 0-2.063-5.557c-1.374-1.31-3.672-1.964-6.894-1.964h-9.431Zm0-21.757v12.161h9.43a7.688 7.688 0 0 0 4.795-1.321c1.135-.88 1.703-2.468 1.703-4.763 0-2.288-.568-3.875-1.703-4.76a8.153 8.153 0 0 0-5.033-1.317h-9.192Zm9.986-9.6a21.194 21.194 0 0 1 6.456.921 13.54 13.54 0 0 1 4.993 2.795 12.602 12.602 0 0 1 3.25 4.726 17.785 17.785 0 0 1 1.148 6.678 13.32 13.32 0 0 1-1.427 6.2 9.323 9.323 0 0 1-4.04 4.12 12.807 12.807 0 0 1 6.14 4.96 15.777 15.777 0 0 1 2.18 8.72c0 5.495-1.625 9.68-4.876 12.557-3.246 2.881-7.725 4.325-13.431 4.322H26V17.203h20.285Z"/></svg>