<svg viewBox="0 0 90 90" xmlns="http://www.w3.org/2000/svg"><defs><linearGradient x1="50%" y1="0%" x2="50%" y2="100%" id="a"><stop stop-color="#083C8F" offset="0%"/><stop stop-color="#05265D" offset="100%"/></linearGradient><linearGradient x1="100%" y1="50%" x2="0%" y2="50%" id="b"><stop stop-color="#8CA2C7" offset="0%"/><stop stop-color="#FFF" offset="100%"/></linearGradient><linearGradient x1="50%" y1="0%" x2="50%" y2="100%" id="c"><stop stop-color="#FFF" offset="0%"/><stop stop-color="#D8D8D8" stop-opacity="0" offset="100%"/></linearGradient><linearGradient x1="50%" y1="0%" x2="50%" y2="100%" id="d"><stop stop-color="#FFF" offset="0%"/><stop stop-color="#D8D8D8" stop-opacity="0" offset="100%"/></linearGradient><linearGradient x1="50%" y1="0%" x2="50%" y2="100%" id="e"><stop stop-color="#FFF" offset="0%"/><stop stop-color="#D8D8D8" stop-opacity="0" offset="100%"/></linearGradient><linearGradient x1="100%" y1="50%" x2="0%" y2="50%" id="f"><stop stop-color="#F6C91E" offset="0%"/><stop stop-color="#E9990D" offset="100%"/></linearGradient><linearGradient x1="100%" y1="50%" x2="0%" y2="50%" id="g"><stop stop-color="#8CA2C7" offset="0%"/><stop stop-color="#FFF" offset="100%"/></linearGradient></defs><g fill="none" fill-rule="evenodd"><path fill="url(#a)" fill-rule="nonzero" d="M0 0h90v90H0z"/><path d="M18.886 49v1.5h-11V49h11Zm-1-2.5v2h-9v-2h9Zm-1-25.5v25h-7V21h7Zm1-2.5v2h-9v-2h9Zm1-2V18h-11v-1.5h11Z" fill="url(#b)" transform="translate(6.114 20)"/><path fill="url(#c)" d="M0 4h7v24H0z" transform="translate(27 41)"/><path fill="url(#d)" d="M10 0h7v27h-7z" transform="translate(27 41)"/><path fill="url(#e)" d="M20 10h7v18h-7z" transform="translate(27 41)"/><path fill="url(#d)" d="M30 0h7v27h-7z" transform="translate(27 41)"/><path fill="url(#f)" fill-rule="nonzero" d="M77.7 15.954v6.251L65.596 36.618 54 35.166 43.604 47.732l-8.946-17.665-9.83 9.946-10.95-4.983-12.16 7.537L0 38.97l13.585-8.468 10.359 4.714 11.773-11.91 8.696 17.17 7.902-9.552 11.64 1.457z" transform="translate(6.114 20)"/><path d="M71.886 49v1.5h-11V49h11Zm-1-2.5v2h-9v-2h9Zm-1-25.5v25h-7V21h7Zm1-2.5v2h-9v-2h9Zm1-2V18h-11v-1.5h11Z" fill="url(#b)" transform="translate(6.114 20)"/><path fill="url(#g)" d="m39.386 0 33.5 11.004V15h-66v-4z" transform="translate(6.114 20)"/></g></svg>