<svg viewBox="0 0 90 90" xmlns="http://www.w3.org/2000/svg"><g fill="none" fill-rule="evenodd"><path d="M59.326 50.23c2.05-3.567 4.364-6.748 6.78-9.434l.56-.611c6.736-7.227 14.176-10.6 18.953-7.83 5.772 3.347 5.754 14.56.459 26.453l-.374.822a58.875 58.875 0 0 1-2.352 4.531C75.466 77.88 63.694 85.882 57.06 82.035c-6.635-3.847-5.62-18.087 2.266-31.805Z" fill="#EA5B0F"/><path d="M4.381 32.355c5.043-2.923 13.052.997 20.068 9.07l.552.646a56.526 56.526 0 0 1 5.673 8.159c7.886 13.718 8.9 27.958 2.266 31.805-6.634 3.847-18.406-4.155-26.292-17.874a58.875 58.875 0 0 1-2.352-4.531l-.374-.822c-5.295-11.892-5.313-23.106.46-26.453Z" fill="#0055A4"/><path d="M44.998 7c3.312 0 6.493.275 9.45.78l.84.152c10.688 2.014 18.269 7.075 18.269 13 0 5.924-7.581 10.985-18.27 13l-.838.15a56.262 56.262 0 0 1-9.451.781c-3.312 0-6.493-.275-9.45-.78l-.84-.152c-10.688-2.014-18.269-7.075-18.269-13 0-5.924 7.581-10.985 18.27-13l.838-.15A56.273 56.273 0 0 1 44.998 7Z" fill="#009DCC"/></g></svg>