<svg viewBox="0 0 90 90" xmlns="http://www.w3.org/2000/svg"><g fill="none" fill-rule="evenodd"><path fill="#0061D5" d="M0 0h90v90H0z"/><path d="M12.656 24c1.448 0 2.624 1.17 2.655 2.623h.001V37.9a13.138 13.138 0 0 1 7.962-2.676c5.083 0 9.496 2.882 11.726 7.113 2.23-4.231 6.644-7.113 11.726-7.113 7.33 0 13.274 5.993 13.274 13.388C60 56.005 54.057 62 46.726 62 41.643 62 37.23 59.118 35 54.886 32.77 59.117 28.356 62 23.274 62c-7.257 0-13.15-5.875-13.268-13.166H10V26.623C10.032 25.169 11.207 24 12.656 24ZM75.42 35.894a2.58 2.58 0 0 1 3.53-.354c1.147.884 1.388 2.542.556 3.731l.001.001-6.726 9.228 6.726 9.228c.83 1.19.59 2.848-.556 3.732a2.583 2.583 0 0 1-3.645-.492L69.5 53.003l-5.805 7.965a2.584 2.584 0 0 1-3.646.491c-1.146-.883-1.387-2.541-.555-3.73v-.001l6.725-9.228-6.726-9.228c-.83-1.19-.59-2.848.556-3.731a2.582 2.582 0 0 1 3.645.493l.001-.002 5.805 7.965 5.805-7.965ZM23.274 40.58c-4.397 0-7.962 3.596-7.962 8.03 0 4.436 3.565 8.031 7.962 8.031s7.962-3.595 7.962-8.03c0-4.435-3.565-8.03-7.962-8.03Zm23.452 0c-4.397 0-7.962 3.595-7.962 8.03 0 4.436 3.565 8.031 7.962 8.031s7.962-3.595 7.962-8.03c0-4.436-3.565-8.03-7.962-8.03Z" fill="#FFF" fill-rule="nonzero"/></g></svg>