<?xml version="1.0" encoding="UTF-8"?>
<svg width="90px" height="90px" viewBox="0 0 90 90" version="1.1" xmlns="http://www.w3.org/2000/svg" xmlns:xlink="http://www.w3.org/1999/xlink">
    <title>boxcryptor.com</title>
    <g id="boxcryptor" stroke="none" stroke-width="1" fill="none" fill-rule="evenodd">
        <rect id="Rectangle" fill="#009155" x="0" y="0" width="90" height="90"></rect>
        <g id="logo" transform="translate(8.000000, 8.000000)" fill="#FFFFFF" fill-rule="nonzero">
            <g id="Group" transform="translate(36.000000, 37.000000) scale(-1, 1) rotate(-180.000000) translate(-36.000000, -37.000000) ">
                <path d="M14.7109375,70.1347656 C14.5527344,69.9238281 13.8847656,69.1328125 13.234375,68.3769531 C8.55859375,62.9980469 5.60546875,55.6503906 5.09570312,48.1269531 L4.95507813,46.3164062 L2.70507812,46.3164062 L0.4375,46.3164062 L0.4375,47.6171875 C0.4375,50.7636719 1.47460938,55.984375 2.81054688,59.5878906 C4.39257812,63.8945312 6.95898438,68.21875 10.0175781,71.7695312 L11.7402344,73.7734375 L13.375,72.1386719 C14.9746094,70.5390625 15.0097656,70.5039062 14.7109375,70.1347656 Z M21.5136719,64 L27.2089844,58.3046875 L26.3125,57.2148438 C24.0625,54.4375 22.65625,51.0273438 22.3046875,47.4941406 L22.1992188,46.3164062 L14.078125,46.3515625 L5.97460938,46.4042969 L6.02734375,47.6347656 C6.25585938,53.9980469 8.62890625,60.7128906 12.4433594,65.8808594 C13.5859375,67.4453125 15.5195312,69.6953125 15.7128906,69.6953125 C15.765625,69.6953125 18.3847656,67.1289062 21.5136719,64 Z M44.1191406,67.8496094 C47.7402344,67.1992188 51.6601562,65.3007812 54.4375,62.875 L55.421875,62.0136719 L53.7871094,60.3789062 L52.1699219,58.7617188 L51.0976562,59.6054688 C48.25,61.9082031 44.1367188,63.5253906 41.1835938,63.5429688 L40.3398438,63.5429688 L40.3398438,65.9335938 L40.3398438,68.3242188 L41.5351562,68.21875 C42.1855469,68.1484375 43.3457031,67.9902344 44.1191406,67.8496094 Z M61.0996094,64.8261719 C65.1777344,60.4492188 67.8671875,54.1035156 68.2363281,48.0390625 L68.3417969,46.3164062 L62.9804688,46.3164062 L57.6191406,46.3164062 L57.5136719,47.6875 C57.3730469,49.4804688 56.8105469,51.5371094 55.984375,53.2949219 C55.2636719,54.8417969 53.8222656,57.0566406 53.0839844,57.7421875 L52.6269531,58.1640625 L56.3710938,61.9082031 C58.4277344,63.9648438 60.1679688,65.6523438 60.2207031,65.6523438 C60.2734375,65.6523438 60.6777344,65.2832031 61.0996094,64.8261719 Z M39.6367188,60.1328125 L39.6367188,57.6191406 L38.2832031,57.390625 C36.0859375,57.0390625 34.3457031,56.2832031 32.5878906,54.9121094 L31.9726562,54.4199219 L30.1621094,56.2304688 L28.3691406,58.0410156 L29.0898438,58.6914062 C31.4980469,60.8710938 35.7519531,62.5761719 38.8984375,62.6464844 L39.6367188,62.6640625 L39.6367188,60.1328125 Z M44.1191406,62.1367188 C46.5097656,61.5390625 49.4453125,59.9394531 51.3261719,58.234375 C51.4316406,58.1464844 50.78125,57.3730469 49.6738281,56.265625 L47.8457031,54.4375 L46.9667969,55.140625 C45.4550781,56.3359375 43.3105469,57.1972656 41.1835938,57.4785156 L40.3398438,57.5839844 L40.3398438,60.1503906 L40.3398438,62.7167969 L41.5351562,62.6113281 C42.1855469,62.5410156 43.3632812,62.3300781 44.1191406,62.1367188 Z M30.8300781,53.1015625 C29.7578125,51.7128906 28.9316406,49.9199219 28.6152344,48.25 C28.4570312,47.4238281 28.3164062,46.6503906 28.28125,46.5273437 C28.2285156,46.3515625 27.6308594,46.3164062 25.7148438,46.3515625 L23.2011719,46.4042969 L23.2539062,47.3710937 C23.4472656,50.5351562 25.0996094,54.4550781 27.2617188,56.8632812 L27.9121094,57.5839844 L29.7226562,55.7910156 L31.515625,54.015625 L30.8300781,53.1015625 Z M53.7871094,55.3339844 C55.2988281,53.1191406 56.3535156,50.2011719 56.6171875,47.5644531 L56.7402344,46.3164062 L54.1738281,46.3164062 L51.6074219,46.3164062 L51.5019531,46.984375 C51.1503906,49.4101562 50.359375,51.4316406 49.09375,53.0136719 L48.390625,53.9101562 L50.2011719,55.7382812 L52.0292969,57.5664062 L52.5917969,56.9160156 C52.9082031,56.546875 53.453125,55.84375 53.7871094,55.3339844 Z M28.421875,44.5058594 C28.6679687,42.4140625 29.3886719,40.65625 30.7773437,38.8457031 L31.4101562,38.0019531 L29.5820312,36.1738281 L27.7714844,34.3457031 L27.2792969,34.9257812 C25.8203125,36.6132812 24.625,38.7753906 23.9394531,40.9550781 C23.5,42.3789062 23.0429687,45.3496094 23.21875,45.6484375 C23.2714844,45.71875 24.4316406,45.7714844 25.8027344,45.7539063 L28.2988281,45.7011719 L28.421875,44.5058594 Z M56.6875,44.9628906 C56.6875,43.890625 56.0722656,41.2363281 55.4570312,39.6542969 C54.8945312,38.1953125 53.2246094,35.5058594 52.4335938,34.7675781 L52.0117188,34.3632812 L50.21875,36.1738281 L48.4257812,37.9667969 L49.0585938,38.7578125 C50.3066406,40.3222656 51.1855469,42.484375 51.5019531,44.7871094 L51.6074219,45.6132812 L54.15625,45.6132812 L56.6875,45.6132812 L56.6875,44.9628906 Z M68.2363281,43.7324219 C68.0253906,40.2871094 67.1113281,36.9472656 65.4765625,33.5722656 C64.2988281,31.1464844 63.296875,29.5996094 61.5566406,27.5253906 L60.3261719,26.0664062 L56.546875,29.8457031 L52.75,33.6425781 L53.2421875,34.2226562 C54.3320312,35.5585938 55.84375,38.0546875 56.3535156,39.3730469 C56.9863281,40.9902344 57.5664062,43.5566406 57.5664062,44.7871094 L57.5664062,45.6132812 L62.9628906,45.6132812 L68.3417969,45.6132812 L68.2363281,43.7324219 Z M33.8359375,36.0683594 C35.1191406,35.2597656 37.0703125,34.5742188 38.4941406,34.4335938 L39.6542969,34.3105469 L39.6015625,31.7441406 L39.5488281,29.1777344 L38.5820312,29.2304688 C35.4003906,29.4238281 31.515625,31.0410156 28.9140625,33.2910156 L28.2988281,33.8183594 L30.1445312,35.6640625 L31.9726562,37.5273438 L32.4296875,37.1054688 C32.6757812,36.8769531 33.3085938,36.4199219 33.8359375,36.0683594 Z M51.2734375,33.6074219 C50.1132812,32.3242188 47.1601562,30.6367188 44.734375,29.8984375 C43.3457031,29.4765625 40.5859375,29.0371094 40.3046875,29.2128906 C40.2167969,29.2480469 40.1640625,30.390625 40.1640625,31.7441406 C40.1640625,33.5546875 40.2167969,34.2226563 40.3925781,34.2578125 C40.4980469,34.2929688 41.1835938,34.4160156 41.9042969,34.5214844 C43.5917969,34.7851563 45.4199219,35.5585938 46.84375,36.6308594 L47.9863281,37.4921875 L49.7792969,35.7167969 C51.5019531,34.0117188 51.5722656,33.9238281 51.2734375,33.6074219 Z M28.2285156,32.6757812 C28.8613281,32.0078125 31.3398438,30.390625 32.7109375,29.7753906 C34.1699219,29.1074219 36.6308594,28.4746094 38.3710938,28.2988281 L39.6367188,28.1757812 L39.6367188,25.9082031 L39.6367188,23.640625 L38.6875,23.640625 C36.3144531,23.640625 32.21875,24.765625 29.5644531,26.1367188 C28.1230469,26.8925781 26.6289062,27.9121094 25.1875,29.1601562 L24.34375,29.8808594 L25.9609375,31.4980469 C26.8574219,32.3945312 27.6308594,33.1328125 27.7011719,33.1328125 C27.7539062,33.1328125 27.9824219,32.921875 28.2285156,32.6757812 Z M56.1425781,29.3710938 L59.8867188,25.6269531 L58.515625,24.4316406 C53.9277344,20.5292969 48.671875,18.2792969 42.5371094,17.6464844 C41.5175781,17.5410156 40.5859375,17.4882813 40.4277344,17.5410156 C40.1992188,17.6464844 40.1640625,18.3496094 40.1640625,22.9199219 L40.1640625,28.1757813 L41.359375,28.2988281 C45.0683594,28.6855469 48.1621094,29.8984375 50.8867188,32.0605469 C51.6074219,32.640625 52.2402344,33.1153705 52.2929688,33.1153705 C52.3457031,33.1328125 54.0683594,31.4453125 56.1425781,29.3710938 Z M62.2070312,23.3066406 C63.0683594,22.4453125 63.71875,21.6542969 63.6484375,21.5664062 C63.3671875,21.109375 60.1152344,18.5429687 58.4453125,17.453125 C53.734375,14.3769531 48.25,12.5136719 42.5371094,12.0566406 C41.3769531,11.96875 40.3574219,11.9511719 40.2871094,12.0214844 C40.2167969,12.0917969 40.1816406,13.1464844 40.1992187,14.3417969 L40.2519531,16.5214844 L40.9550781,16.5566406 C43.9960937,16.75 47.125,17.3476562 49.65625,18.2265625 C52.8554687,19.3515625 56.7753906,21.6367187 59.2011719,23.7988281 C59.8515625,24.3964844 60.4492187,24.8710937 60.5195312,24.8710937 C60.5898437,24.8710937 61.3457031,24.1679687 62.2070312,23.3066406 Z M68.2890625,17.2246094 C70.609375,14.9042969 71.9980469,13.3925781 71.8925781,13.3046875 C71.7871094,13.2167969 71.1191406,12.6015625 70.3984375,11.9511719 C64.2109375,6.30859375 56.2128906,2.44140625 47.6523438,0.947265625 C45.4550781,0.560546875 40.8496094,0.15625 40.4453125,0.314453125 C40.1992188,0.419921875 40.1640625,1.05273438 40.1640625,5.67578125 L40.1640625,10.9140625 L42.5019531,11.125 C47.1425781,11.5292969 51.1152344,12.5839844 55.0878906,14.5 C58.234375,16.0292969 62.0839844,18.6660156 63.7890625,20.4589844 C64.0878906,20.7578125 64.3515625,21.0039063 64.4042969,21.0039063 C64.4746094,21.0039063 66.2148438,19.2988281 68.2890625,17.2246094 Z" id="Shape"></path>
            </g>
        </g>
    </g>
</svg>