<svg xmlns="http://www.w3.org/2000/svg" viewBox="0 0 90 90" fill-rule="evenodd"><path fill="#202020" d="M0 0h90v90H0z"/><path fill="#fff" fill-rule="nonzero" d="M14 79.672V69.527h8.426V20.145H14V10h33.354c15.165 0 24.602 6.764 24.602 18.937 0 7.766-4.72 12.512-10.785 14.879C69.935 46.183 76 51.932 76 60.048 76.009 72.898 65.9 80 49.037 80H14v-.328zm19.882-59.516v18.938h12.47c9.436 0 14.155-3.382 14.155-9.469 0-6.425-5.055-9.469-14.492-9.469l-12.133-.001zm0 49.372h14.155c11.121 0 16.514-3.382 16.514-10.145s-5.729-10.145-17.187-10.145h-13.48l-.001 20.289z"/></svg>