<svg viewBox="0 0 90 90" xmlns="http://www.w3.org/2000/svg"><g fill="none" fill-rule="evenodd"><path fill="#FFF" fill-rule="nonzero" d="M0 0h90v90H0z"/><path d="M50.313 25.765c-1.574 1.592-5.822 6.687-11.958 8.597h-.315c5.822-1.592 13.06-3.184 21.556-3.82 0 0 .315 0 .787-.32 0 0 .787-2.706-.315-3.82-.314-.478-4.09-.956-9.755-.637Zm-3.147 50.63c-.944.477-3.776 1.75-4.406 1.591h-.157c.944-1.433 3.776-1.592 3.776-1.592s.787-.159 1.102-.159l-.315.16Zm.944-4.459c-1.101 1.115-2.045 2.07-2.517 2.866 0 0 .629.16.629-.16.315-.158 1.573-1.273 2.36-2.069-.315.319-.315.16-.157-.318.157-.16.157-.319-.315-.319Zm-5.822-6.846c-1.573.796-5.035 1.91-6.923 1.91h-.315c-.314 0-.786-.318 0-1.114.158 0 3.62 0 7.238-.796Zm-7.08.796v-.318.318Zm12.745-1.592c-.787 1.592-3.147 4.299-8.812 7.801h.315s.315 0 .315-.318c.786 0 1.573-.796 3.461-1.592 1.888-1.115 6.609-3.821 7.71-7.005l-.314.318c-.315.318-1.416.318-2.675.796Zm6.294-9.234c-1.102 1.114-3.62 3.98-8.182 6.846 1.101-.319 2.674-.319 3.933 0 1.102-.796 4.249-3.025 6.294-5.413-.315.318-1.259 1.433-.787-.478.158-.478-.314-.955-1.101-.955h-.157Zm-11.644 1.433c-.787.796-8.969 5.413-11.172 6.209H30.33c2.203-2.707 8.34-5.095 12.273-6.21Zm15.735-18.31c-1.889 1.115-9.126 6.369-15.42 10.827-.158 0 0 .159.157.159 3.776-1.433 8.969-2.388 15.735-3.184 0 0 2.045-.319 3.776-.319 2.36-1.114 6.609-3.82 6.137-7.005 0 0 0-1.115-2.675-1.115 0-.159-2.99-.159-7.71.637Z" fill="#86CE32"/><path d="M41.659 77.509c0-.319-1.574-2.07 7.395-3.503 2.36-.318-1.259 3.821-.944 2.388.315-.318-1.73 0-1.73 0s-3.148.319-3.777 1.592c-.157-.159-.472-.159-.944-.477ZM19 34.68s2.36-13.693 26.277-12.419c0 0 10.07.796 14.633 3.821-.157 0-21.4-3.82-40.91 8.598Zm2.99 7.005s13.06-9.394 37.448-11.304c0 0 5.35-1.115 7.71 2.706 0 0 1.574 1.593 1.574 5.414 0 0 0-1.115-2.675-1.115 0 0-25.805 0-43.586 14.33 1.102-3.344-7.395-5.732-.472-10.031Zm5.821 18.628s-1.101-3.821 2.675-5.413c3.777-1.115 7.71-6.687 28.165-8.916 0 0 10.07-2.389 4.249 3.82-5.822 6.21-6.609 7.006-6.609 7.006s-1.573 1.592-1.101-.796c.786-1.91-8.497-.318-8.497-.318s-13.06 2.388-16.522 7.005c0 0-1.573-.318-2.36-2.388Zm6.924 5.572s7.395-5.095 15.42-3.82c0 0 2.36 0 .314 1.591-1.888 1.433-15.734 2.23-15.734 2.23Zm4.248 7.802s-.315-1.115.787-1.911c1.101-.318 2.36-1.592 9.283-2.388 3.462-.319-1.573 5.095-.787 2.706 0-.318-3.147 0-3.147 0s-4.248.797-5.35 2.389c0-.16-.786-.16-.786-.796Z" fill="#0061A3"/><path d="M71.397 28.949c6.61 14.807-1.888 33.435-18.881 36.937.787 0 1.101-.318 1.573-.318 14.319-5.413 21.242-21.016 15.42-34.55-6.136-13.214-22.343-19.9-36.662-14.01-8.024 3.184-13.531 8.916-16.206 16.399C19 27.197 22.777 18.6 35.522 13.983c12.273-5.413 29.739.478 35.875 14.966Z" fill="#0061A3"/></g></svg>