<svg viewBox="0 0 90 90" xmlns="http://www.w3.org/2000/svg"><g fill="none"><path d="m4.045 50.948 27.677 13.064 28.31-29.788L41.491.503c-.588.18-1.176.452-1.764.768L8.975 18.945A9.673 9.673 0 0 0 4 27.308" fill="#57B7DD"/><path fill="#F99132" d="m31.722 64.012 33.375 15.73 15.196-8.724-20.26-36.794z"/><path d="M76.63 16.82 49.45 1.272a9.879 9.879 0 0 0-7.96-.768l18.542 33.72L76.63 16.822Z" fill="#A98BBC"/><path d="M80.293 71.018a9.672 9.672 0 0 0 4.839-8.362V27.308a9.66 9.66 0 0 0-4.84-8.408l-3.662-2.08-16.598 17.404 20.26 36.794Z" fill="#FF6D56"/><path d="M4.045 50.948v11.708c0 3.435 1.9 6.644 4.884 8.362l10.402 6.012 12.391-13.018L4.045 50.948Z" fill="#8AC539"/><path d="M39.727 88.692a9.772 9.772 0 0 0 9.768 0l15.602-8.95-33.375-15.73L19.331 77.03l20.396 11.662Z" fill="#FFBE0A"/></g></svg>