<svg viewBox="0 0 90 90" xmlns="http://www.w3.org/2000/svg"><defs><linearGradient x1=".033%" y1="50.004%" x2="99.967%" y2="50.004%" id="a"><stop stop-color="#F1562B" offset="0%"/><stop stop-color="#F1542B" offset="30%"/><stop stop-color="#F04D2A" offset="41%"/><stop stop-color="#EF4229" offset="49%"/><stop stop-color="#EF4029" offset="50%"/><stop stop-color="#E83E28" offset="56%"/><stop stop-color="#E13C26" offset="67%"/><stop stop-color="#DF3C26" offset="100%"/></linearGradient></defs><g fill="none"><path d="m77 29.115-2.785-7.537 1.937-4.327a1.479 1.479 0 0 0-.304-1.646L70.583 10.3a8.52 8.52 0 0 0-8.86-2.05l-1.475.511L52.205.076 38.56 0h-.088L24.738.107l-8.037 8.755-1.43-.505a8.545 8.545 0 0 0-8.917 2.07l-5.36 5.405c-.345.346-.44.867-.24 1.312l2.018 4.49L0 29.167l1.791 6.793 8.17 30.957a15.768 15.768 0 0 0 6.12 8.83s9.917 6.97 19.7 13.303a4.378 4.378 0 0 0 5.45 0 715.49 715.49 0 0 0 19.688-13.328 15.768 15.768 0 0 0 6.113-8.83l8.126-30.97L77 29.115Z" fill="url(#a)" transform="translate(7)"/><path d="M47.75 55.79a11.683 11.683 0 0 0-1.608-.58h-.968c-.55.153-1.087.347-1.607.58l-2.437 1.009c-.772.322-2.012.896-2.753 1.261l-4.48 2.328a.852.852 0 0 0-.108 1.577l3.892 2.737a30.87 30.87 0 0 1 2.392 1.892l1.095.94c.633.543 1.664 1.445 2.291 2l1.038.914a1.79 1.79 0 0 0 2.285 0l1.088-.946 2.291-1.993 1.101-.959a43.551 43.551 0 0 1 2.386-1.892l3.892-2.775a.845.845 0 0 0-.12-1.57l-4.474-2.265a43.69 43.69 0 0 0-2.766-1.262l-2.43-.996Z" fill="#FFF"/><path d="m75.342 30.8.127-.404c.008-.54-.026-1.08-.101-1.615a13.59 13.59 0 0 0-1.443-2.712l-2.532-3.703c-.468-.693-1.265-1.791-1.803-2.44l-3.392-4.233a11.83 11.83 0 0 0-1.007-1.173h-.07s-.683.12-1.505.277l-5.184.997-2.271.435a5.923 5.923 0 0 1-2.222-.322l-4.094-1.318a36.631 36.631 0 0 0-2.93-.807 12.287 12.287 0 0 0-2.589 0c-.816.19-2.133.555-2.93.814L37.3 15.92a5.923 5.923 0 0 1-2.221.322l-2.272-.43-5.19-.99c-.822-.157-1.5-.283-1.506-.277h-.07c-.36.369-.696.76-1.006 1.173l-3.385 4.233c-.52.63-1.336 1.753-1.804 2.44l-2.531 3.703a19.824 19.824 0 0 0-1.196 1.987 9.004 9.004 0 0 0-.342 2.346l.126.404c.061.26.14.514.234.763.526.63 1.424 1.678 2 2.29l8.86 9.385c.6.697.771 1.663.45 2.523l-1.45 3.425a4.433 4.433 0 0 0-.07 2.82l.292.794a7.664 7.664 0 0 0 2.36 3.3l1.393 1.128a2.64 2.64 0 0 0 2.531.303l4.95-2.353a12.585 12.585 0 0 0 2.53-1.671l3.962-3.564a1.581 1.581 0 0 0 .083-2.27l-8.943-6.005a1.725 1.725 0 0 1-.544-2.189l3.468-6.497c.398-.803.46-1.731.171-2.58a3.95 3.95 0 0 0-1.968-1.778L25.34 24.56c-.784-.296-.74-.63.089-.68l6.385-.632a9.885 9.885 0 0 1 2.981.265l5.557 1.546a1.696 1.696 0 0 1 1.19 1.892l-2.184 11.883a6.123 6.123 0 0 0-.107 2.006c.088.284.835.63 1.651.833l3.386.719c.983.18 1.991.18 2.975 0l3.044-.688c.816-.183 1.556-.568 1.651-.851a6.117 6.117 0 0 0-.114-2.006l-2.196-11.884a1.696 1.696 0 0 1 1.19-1.892l5.557-1.551a9.88 9.88 0 0 1 2.98-.265l6.386.593c.835.075.873.384.095.68L54.99 28.637a3.95 3.95 0 0 0-1.968 1.779 3.37 3.37 0 0 0 .17 2.58l3.475 6.496a1.725 1.725 0 0 1-.544 2.189l-8.936 6.017a1.58 1.58 0 0 0 .082 2.27l3.968 3.565a12.585 12.585 0 0 0 2.531 1.665l4.95 2.346a2.64 2.64 0 0 0 2.53-.309l1.393-1.135a7.658 7.658 0 0 0 2.36-3.305l.292-.795a4.433 4.433 0 0 0-.07-2.82l-1.456-3.425a2.516 2.516 0 0 1 .45-2.523l8.86-9.398c.576-.63 1.468-1.64 1.993-2.29.107-.241.198-.49.272-.744Z" fill="#FFF"/></g></svg>