<svg viewBox="0 0 90 90" xmlns="http://www.w3.org/2000/svg"><defs><linearGradient x1="-.237%" y1="60.631%" x2="94.734%" y2="34.92%" id="a"><stop stop-color="#3BCCDE" offset="13%"/><stop stop-color="#F7918F" offset="64%"/><stop stop-color="#F8918A" offset="70%"/><stop stop-color="#F9927B" offset="77%"/><stop stop-color="#FC9362" offset="84%"/><stop stop-color="#FF944A" offset="90%"/></linearGradient></defs><g fill="none" fill-rule="evenodd"><path d="M66.185 60.843c2.247-2.265 3.023-6.03 2.036-8.487-1.723 1.022-3.38 2.14-4.393 3.165-4.458 4.49-.639 8.343 2.357 5.323Zm-19.062-12.08c2.17 0 4.278-2.491 4.883-5.671.046-.413.098-.842.157-1.29.16-3.075-1.274-5.458-3.401-5.458-2.292 0-4.516 2.779-4.971 6.206-.456 3.428 1.042 6.213 3.332 6.213Zm30.187-4.23c3.086-1.802 5.641-4.122 5.641-6.27 0-2.2-2.495-2.87-4.747-.6-1.318 1.329-2.093 3.768-2.093 5.613a8.203 8.203 0 0 0 .186 1.806 22.68 22.68 0 0 0 1.013-.55ZM14.222 48.78c.924 0 1.843-.405 2.589-1.157 2.981-3.007 2.87-8.22.869-10.237-.622-.627-1.372-1.014-2.233-1.014-.956 0-1.89.447-2.667 1.23-2.736 2.757-2.915 8.016-.795 10.155.624.629 1.374 1.022 2.237 1.022Z"/><path d="M3.474.58c-.147.656-.252 1.32-.316 1.99-.021.433.277.602.628.602h4.026c-.643 3.982-1.87 11.7-2.24 13.638-.469 2.464-2.208 5.49-5.143 6.566-.362.133-.516.474-.38.867.231.58.496 1.144.793 1.691a.7.7 0 0 0 .814.341 10.828 10.828 0 0 0 4.02-2.522 9.49 9.49 0 0 0 .784-.914c1.308 2.985 3.996 4.067 6.742 4.067 3.102 0 6.449-1.09 8.8-3.46 2.747-2.769 3.891-7.337 4.377-10.573.728.106 1.462.162 2.197.168a15.612 15.612 0 0 0 3.468-.406s-1.902 5.085-1.902 8.836c0 4.235 2.008 5.43 4.23 5.43 2.288 0 3.894-1.732 5.04-3.872.298.659.742 1.463 1.345 2.071 1.034 1.053 2.313 1.804 4.172 1.804 2.114 0 3.936-1.23 5.233-3.127.233.792.587 1.461 1.072 1.951.655.66 1.853 1.178 3.353 1.178 2.583 0 4.077-1.956 8.102-1.956a4.11 4.11 0 0 1 1.381.224c-1.842 1.133-3.598 2.35-4.668 3.43-3.314 3.34-3.47 7.737-1.293 9.934 2.637 2.657 6.39 1.318 8.734-1.04 2.747-2.77 3.544-8 1.962-11.583 1.917-1.02 3.533-1.773 3.912-1.95 1.198 1.65 3.189 2.944 6.466 2.944a10.988 10.988 0 0 0 6.55-2.243.662.662 0 0 0 .139-.922s-.85-1.203-1.117-1.541c-.179-.226-.402-.493-.988-.098-1.294.873-2.748 1.668-4.54 1.668-1.372 0-2.569-.352-3.458-1.117.375-.17.769-.362 1.165-.577 2.113-1.154 3.888-2.62 4.738-3.478 4.123-4.156 2.833-10.352-2.195-10.352-4.743 0-8.492 4.66-8.492 9.84a11.73 11.73 0 0 0 .422 3.078 93.292 93.292 0 0 0-4.411 2.304c-2.119-1.602-5.418-.878-5.418-.878 3.064-4.39 7.681-11.243 8.074-11.805.282-.405.237-.808-.033-1.443-.348-.764-.702-.901-1.178-.901h-9.588a.611.611 0 0 0-.655.5 24.076 24.076 0 0 0-.326 1.997c-.04.414.348.68.753.68h6.946l-6.279 9.065a.766.766 0 0 0-.12.132c-.916 1.328-2.309 3.188-3.994 3.188-1.046 0-2.337-.753-2.337-3.218 0-2.42.965-7.524 1.676-11.502.075-.426-.069-.847-.747-.847h-1.701a.643.643 0 0 0-.672.576l-.302 1.783c-.837-1.618-2.181-2.539-4.127-2.539a6.924 6.924 0 0 0-4.993 2.122c-3.59 3.619-2.903 9.509-6.003 12.633-1.338 1.35-2.846.936-2.846-1.715 0-3.023 1.146-6.393 2.464-9.586.233-.566-.017-1.04-.261-1.404-.353-.516-.485-.784-1.112-.784-.982 0-2.539.622-5.669.622-.664 0-1.298-.028-1.867-.072.033-.469.045-.791.05-.911.021-.444-.131-.726-.605-.726h-1.6c-.575 0-.727.276-.785.734-.27 1.928-.785 9.004-4.318 12.555a3.1 3.1 0 0 1-.654.538c.877-1.732 1.352-4.001 1.352-5.803 0-5.06-2.975-8.204-6.704-8.204A6.554 6.554 0 0 0 9.943 9.34c.524-3.083 1.013-5.971 1.177-6.95.142-.827-.148-1.256-.367-1.594C10.407.246 10.093 0 9.62 0H4.098c-.318 0-.549.227-.625.58Zm72.733 12.081c2.25-2.27 4.747-1.6 4.747.6 0 2.148-2.555 4.468-5.642 6.27-.298.174-.654.368-1.01.55a8.238 8.238 0 0 1-.189-1.805c0-1.846.772-4.284 2.094-5.615ZM64.185 35.843c-2.996 3.02-6.815-.832-2.355-5.328 1.013-1.02 2.67-2.138 4.394-3.164.984 2.46.208 6.226-2.039 8.492ZM41.802 17.556c.454-3.428 2.678-6.206 4.971-6.206 2.12 0 3.555 2.383 3.401 5.459-.059.447-.111.877-.157 1.29-.604 3.173-2.713 5.67-4.882 5.67-2.302-.006-3.79-2.785-3.333-6.213ZM10.78 12.602c.777-.783 1.712-1.23 2.667-1.23.861 0 1.612.387 2.233 1.013 2.002 2.018 2.113 7.231-.868 10.238-.746.752-1.665 1.156-2.589 1.156-.863 0-1.614-.396-2.237-1.022-2.12-2.14-1.941-7.398.795-10.155h-.001Z" fill="url(#a)" fill-rule="nonzero" transform="translate(2 25)"/></g></svg>