<svg xmlns="http://www.w3.org/2000/svg" viewBox="0 0 90 90"><path fill="#FFF" d="M0 0h90v90H0z"/><path fill="#FF8F0C" d="M57.12 22.52c8.37 4.2 11.38 9.88 12.8 15.26l.15.59.13.58.13.58.11.58.07.36.07.48.04.38.03.3.03.34.03.6.02.66.01.49v.8l-.02.57-.02.6-.04.63-.05.66c-.7 7.86-4.57 21.25-21.25 31.7a1.9 1.9 0 01-2.87-1.07 1.9 1.9 0 01.82-2.15c14.8-9.27 18.54-21.08 19.36-28.16l.07-.62.03-.3.04-.58.03-.56.02-.52.01-.25V43.14l-.02-.55-.03-.47-.04-.5-.05-.38-.02-.12-.1-.56-.13-.56c-1.11-5.08-3.45-10.2-11.12-14.04l-.06-.04c-6.3-3.43-16.45-2.26-22.63 2.6a1.91 1.91 0 01-1.43.41 1.97 1.97 0 01-1.3-.71 1.94 1.94 0 01-.17-2.14c.12-.22.29-.41.49-.57 7.42-5.82 19.2-7.12 26.86-2.99zm-.7 33.28a1.93 1.93 0 011.34 2.88l-.08.13a42.63 42.63 0 01-9.9 10.78l-.64.49-.31.24-.63.46-.63.44-.62.42-.62.4-.61.4-.6.37-.6.36-.58.34-.57.32-.29.16-.55.3-.54.29-.53.27-.51.25-.5.24-.48.23-.69.31-.84.37-.58.24-.7.27-.58.22-.48.17-.7.24a1.93 1.93 0 01-1.82-.4 1.91 1.91 0 01.53-3.22l.88-.3.6-.23.75-.3.7-.3.59-.25.62-.29.67-.31.7-.35.48-.25.5-.26.51-.28.52-.29.81-.46.55-.33.56-.34.28-.18.56-.37.58-.38.29-.2.58-.4.58-.42.59-.44c.58-.45 1.17-.92 1.76-1.41l.59-.5.58-.53c.4-.35.78-.71 1.16-1.1l.57-.56.57-.6c1.5-1.6 2.92-3.38 4.19-5.38a1.93 1.93 0 011.98-.96zM71.8 23.08c.5.06.96.32 1.28.71 8.8 11.21 9.22 27.05 1.08 41.33a37.72 37.72 0 01-3.27 5.32 4.24 4.24 0 01-.64 5.24 4.28 4.28 0 01-7.07-4.37 4.25 4.25 0 014.43-2.9 33.98 33.98 0 002.75-4.31l.42-.8c7.39-12.96 7.1-27.17-.74-37.14a1.92 1.92 0 011.76-3.08zM44.64 57.5a1.95 1.95 0 011.37.63 1.9 1.9 0 01-.08 2.66l-1.25 1.12-.8.7-.64.53-.43.36-.23.18-.46.35-.23.19-.48.36-.5.36-.53.36-.54.36-.56.36-.3.18-.59.36-.3.18-.64.36a43.84 43.84 0 01-7.04 3.05l-.95.32c-1.45.46-3.03.9-4.76 1.32a1.93 1.93 0 01-2.39-1.64 1.92 1.92 0 011.47-2.1 56.8 56.8 0 007.19-2.18l.8-.32c1.42-.58 2.68-1.19 3.81-1.81l.6-.34.86-.51.55-.35.26-.17.51-.35.25-.17.49-.35.46-.35.45-.35.44-.35.43-.34.61-.53.8-.68.94-.85a1.93 1.93 0 011.4-.55zm.55-18.16a6.06 6.06 0 016.31 2.65 5.96 5.96 0 01-1.23 7.99 6.08 6.08 0 01-5.53 1.1l-.51.65-.38.44c-.32.38-.67.76-1.05 1.15l-.46.48-.5.48a39.76 39.76 0 01-23.66 10.61l-.58.05h-.33a1.93 1.93 0 01-1.32-3.22c.3-.33.72-.54 1.17-.6l.16-.02a35.79 35.79 0 0021.93-9.61l.47-.46c.45-.46.86-.9 1.23-1.34l.35-.42.32-.41a6 6 0 013.6-9.52zm-18 12.4a1.94 1.94 0 011.33 1.66 1.93 1.93 0 01-.45 1.4c-.16.2-.36.35-.58.47a22.9 22.9 0 01-10.07 2.21c-1.6 0-3.2-.15-4.78-.48a1.92 1.92 0 01.79-3.76c3.74.78 7.21.32 9.66-.38l.5-.15.46-.15.43-.16.4-.15.36-.16.32-.15.15-.08a1.93 1.93 0 011.47-.13zm20.94-22.61a16.02 16.02 0 0112.1 7.83 16.95 16.95 0 011.5 13.28 1.94 1.94 0 01-3.05 1 1.94 1.94 0 01-.66-2.03 13.03 13.03 0 00-1.14-10.37 12.08 12.08 0 00-9.2-5.9 1.92 1.92 0 11.45-3.81zm-6.5.97a1.93 1.93 0 01.99 2.54c-.2.46-.6.83-1.07 1.01-2.1.84-3.95 2.2-5.38 3.96-.42.56-.78 1.17-1.1 1.8l-.26.5c-3.6 6.59-8.97 9.05-13.43 9.86l-.55.1c-.09 0-.18.02-.26.03l-.53.07-.26.03-.5.05-.5.04-.49.02a23 23 0 01-.23 0l-.46.02h-.22c-1.37.01-2.73-.12-4.07-.39a1.93 1.93 0 01-1.36-2.3 1.91 1.91 0 012.09-1.46l.2.03.38.08.43.07.33.04.5.06.43.03.3.02.49.02H18.17l.39-.03h.2l.6-.06.42-.05c.07 0 .14-.02.2-.03l.44-.06.21-.04.44-.09c.23-.04.45-.1.68-.15l.45-.13.46-.14.23-.07.46-.17a15.14 15.14 0 008.07-7.23l.13-.24.13-.24c.42-.85.92-1.65 1.5-2.4a16.8 16.8 0 016.98-5.13c.48-.19 1.01-.17 1.48.03zm4.81 13.01a2.16 2.16 0 00-1.9 1.15 2.17 2.17 0 001.7 3.18 2.2 2.2 0 002.33-1.53l.05-.17h-.03a2.15 2.15 0 00-.91-2.25 2.17 2.17 0 00-1.24-.38zM26.93 31.5a1.92 1.92 0 011.42 2.87c-3.25 5.65-7.14 7.22-11 7.22-2-.06-3.98-.36-5.9-.91a1.93 1.93 0 01-1.39-2.34 1.91 1.91 0 012.35-1.38l.6.15.58.14.57.12.55.1c4.53.83 7.44-.06 10.3-5.02a1.93 1.93 0 011.92-.95zm-6.92-6.64a1.93 1.93 0 012.2 2.72l-.1.16-1 1.63-.23.38c-.34.52-.6.85-.98 1.24l-.28.28a5.05 5.05 0 01-3.65 1.44 9.38 9.38 0 01-1.65-.18l-.67-.15a1.94 1.94 0 01-1.26-.81 1.93 1.93 0 01.56-2.7 1.93 1.93 0 011.3-.29l.18.04.32.06c1.12.25 1.76.24 2.2-.19l.22-.2.09-.1.13-.16.09-.13.1-.16.28-.43.4-.66.56-.92c.27-.44.7-.75 1.2-.87zm44.06-9.16a1.93 1.93 0 01-2.09 3.24c-6.3-4-13.78-4.46-19.3-3.84l-.69.08c-.56.07-1.1.15-1.6.25l-.6.11-.3.06-.55.12-.53.13-.74.2-.45.13-.21.07c-2.3.75-4.53 1.74-6.63 2.95a4.33 4.33 0 01-1.22 3.7 4.3 4.3 0 01-7.3-3.08 4.25 4.25 0 012.68-3.92 4.3 4.3 0 013.59.17 38.72 38.72 0 017.7-3.47l.49-.15.51-.15.55-.15.56-.14.6-.13.62-.13.64-.13.67-.1c.11-.03.22-.05.34-.06l.7-.1c6.35-.85 15.08-.4 22.56 4.34z"/></svg>