<svg xmlns="http://www.w3.org/2000/svg" viewBox="0 0 90 90"><defs><linearGradient x1="100.978%" y1="11.727%" x2="47.709%" y2="51.777%" id="a"><stop stop-color="#F869D5" offset="0%"/><stop stop-color="#A472FF" offset="100%"/></linearGradient><linearGradient x1="104.896%" y1="17.168%" x2="33.834%" y2="68.465%" id="b"><stop stop-color="#FF7676" offset="0%"/><stop stop-color="#F966BE" offset="100%"/></linearGradient><linearGradient x1="115.286%" y1="-6.905%" x2="36.741%" y2="53.364%" id="c"><stop stop-color="#4AFFB1" offset="0%"/><stop stop-color="#2BD2FF" offset="100%"/></linearGradient></defs><path fill="#FFF" d="M0 0h90v90H0z"/><path fill="url(#a)" d="M.091 44.797 25.748 19.35l8.397 8.326 20.927-20.76 4.918 4.878L34.228 37.35l-8.488-8.417L4.92 49.585z" transform="translate(15 17)"/><path d="M23.263.883 0 23.628l5.247 5.28L25.402 9.216l8.42 8.48 5.32-5.209L27.643.915a3.116 3.116 0 0 0-4.38-.032Z" fill="url(#b)" transform="translate(15 17)"/><path d="m60 33.068-5.312-5.27-20.11 19.943-8.525-8.454-5.31 5.265 11.64 11.545a3.13 3.13 0 0 0 4.399 0L60 33.067Z" fill="url(#c)" transform="translate(15 17)"/></svg>