<svg viewBox="0 0 90 90" xmlns="http://www.w3.org/2000/svg"><g fill="none"><path fill="#0B996E" d="M0 0h90v90H0z"/><path d="M32.112 44.956V22.805h13.34c4.505 0 7.48 2.632 7.48 6.625 0 4.538-3.874 7.988-11.805 10.62-5.408 1.723-7.84 3.176-8.743 4.902l-.272.004Zm0 22.24v-9.258c0-4.085 3.426-8.08 8.203-9.623 4.237-1.453 7.75-2.906 10.726-4.446 3.965 2.362 6.397 6.443 6.397 10.71 0 7.261-6.85 12.616-16.134 12.616h-9.192ZM24 75h18.026C55.727 75 66 66.378 66 54.94c0-6.264-3.154-11.89-8.743-15.522 2.885-2.905 4.237-6.264 4.237-10.349 0-8.44-6.038-14.069-15.14-14.069H24v60Z" fill="#FFF"/></g></svg>