<svg xmlns="http://www.w3.org/2000/svg" viewBox="0 0 90 90" fill-rule="evenodd" xmlns:v="https://vecta.io/nano"><path fill="#f56a28" d="M0 0h90v90H0z"/><path fill="#fff" fill-rule="nonzero" d="M53.976 24.84C51.631 27.96 51.064 29 48.8 29H15V69h13.262c2.992 0 5.902-1.44 7.762-3.84 2.427-3.199 2.749-4.159 5.094-4.159H75V21H61.657c-2.992 0-5.902 1.44-7.682 3.84h.002zm10.511 25.841H50.336c-3.073 0-5.902 1.279-7.762 3.759-2.427 3.201-2.912 4.161-5.176 4.161H25.431v-19.2h14.151c3.072 0 5.902-1.44 7.762-3.84 2.427-3.12 3.073-4.08 5.256-4.08h11.887v19.2z"/></svg>