<svg viewBox="0 0 90 90" xmlns="http://www.w3.org/2000/svg"><defs><linearGradient x1="-2.25%" y1="99.045%" x2="-2.25%" y2="-116.659%" id="a"><stop stop-color="#0AF" offset="0%"/><stop stop-color="#FFF" offset="100%"/></linearGradient></defs><g fill="none"><path d="M5.001 36.677 1.04 50.775a.932.932 0 0 0 .42 1.072l3.984 2.61c.382.245.827.375 1.282.373h8.529c.448.001.88-.165 1.212-.466l.978-.886.886.863c.324.315.76.491 1.212.49h3.612a.816.816 0 0 0 .792-.7l.699-4.311 2.913 4.427c.244.367.655.586 1.095.583h3.775a.77.77 0 0 0 .77-.7l.163-1.84 1.607 2.004c.274.338.685.535 1.119.536h14.681a.862.862 0 0 0 .862-.7l.676-3.029-.373-8.808a.722.722 0 0 0-.699-.7h-3.169l-.023-2.563a.7.7 0 0 0-.7-.699h-4.427a.7.7 0 0 0-.7.7l-.046 2.563h-8.482l-.886-2.61a.979.979 0 0 0-.932-.653h-4.008a.792.792 0 0 0-.792.7l-.303 2.563h-6.991l-3.52-5.034a1.352 1.352 0 0 0-1.141-.56H5.91a.932.932 0 0 0-.885.677H5Zm50.336 0-1.002 3.775a4.055 4.055 0 0 0-.14 1.375l1.002 12.304c.024.393.351.7.746.699h3.821a1.21 1.21 0 0 0 1.049-.606l1.445-2.447.326 2.354c.047.4.389.702.792.699h20.111c.454.002.9-.128 1.282-.373l4.008-2.61a.932.932 0 0 0 .396-1.072l-2.493-8.948a2.447 2.447 0 0 0-.7-1.166l-2.05-1.84a1.794 1.794 0 0 0-1.212-.467h-1.351a1.59 1.59 0 0 0-1.166.513l-.885.979-1.049-1.002a1.748 1.748 0 0 0-1.212-.49h-8.319l-.256-1.63a.816.816 0 0 0-.816-.7h-3.868a1.072 1.072 0 0 0-.979.63l-1.445 3.262-.35-3.216a.769.769 0 0 0-.768-.7h-4.032a.932.932 0 0 0-.885.677Z" fill="#0AF"/><path d="M5.907 37.25 2.118 50.78a.177.177 0 0 0 .17.224h9.785c.15 0 .293-.056.403-.157l2.175-2.013a.72.72 0 0 0 .217-.387l.655-3.27a.583.583 0 0 0-.078-.426l-1.222-1.936a.13.13 0 0 1 .109-.198h1.473a.284.284 0 0 0 .278-.228l.56-2.806a.603.603 0 0 0-.074-.429l-1.158-1.93a.412.412 0 0 0-.353-.2H6.203a.307.307 0 0 0-.296.224Zm50.416.007 1.083 13.517c.01.132.12.233.251.233h3.635a.21.21 0 0 0 .208-.233l-.547-5.129a.21.21 0 0 1 .209-.232h3.484c.134 0 .247.099.264.231l.685 5.132c.018.132.13.231.264.231h3.634a.198.198 0 0 0 .196-.23l-2.162-13.522a.273.273 0 0 0-.27-.23h-3.266a.204.204 0 0 0-.201.23l.685 5.133a.204.204 0 0 1-.203.23H60.86a.258.258 0 0 1-.258-.231l-.546-5.13a.258.258 0 0 0-.258-.233h-3.26a.215.215 0 0 0-.214.233h-.001Zm-28.288 2.33-.282 2.336a.207.207 0 0 0 .206.231h3.398a.256.256 0 0 0 .254-.232l.217-2.335a.213.213 0 0 0-.212-.232h-3.32c-.133 0-.245.1-.261.232Zm15.185.001-.148 11.186a.23.23 0 0 0 .23.232h1.581a.511.511 0 0 0 .386-.176l1.716-1.977a.089.089 0 0 1 .155.057l.026 1.864a.236.236 0 0 0 .237.232h3.635a.224.224 0 0 0 .224-.232l-.092-2.334a.242.242 0 0 0-.242-.232h-1.55a.11.11 0 0 1-.084-.18l1.623-1.971a.61.61 0 0 0 .139-.413l-.113-2.797a.243.243 0 0 0-.242-.233h-1.473a.492.492 0 0 0-.38.181l-1.613 1.969a.085.085 0 0 1-.15-.052l-.067-5.124a.236.236 0 0 0-.236-.232h-3.325a.236.236 0 0 0-.237.232Zm26.578-.003.404 2.34a.276.276 0 0 0 .272.23h3.402a.191.191 0 0 0 .188-.23l-.469-2.342a.284.284 0 0 0-.278-.228h-3.326a.196.196 0 0 0-.193.23Zm5.693-.002L77.88 50.78a.288.288 0 0 0 .281.228h3.635a.183.183 0 0 0 .178-.227l-2.125-8.868a.787.787 0 0 0-.224-.387l-2.115-2.01a.584.584 0 0 0-.402-.16h-1.43a.189.189 0 0 0-.185.228h-.002Zm5.694-.002 2.84 11.2a.3.3 0 0 0 .29.226h3.634a.177.177 0 0 0 .171-.224l-2.482-8.873a.815.815 0 0 0-.235-.382l-2.206-2.016a.6.6 0 0 0-.404-.157h-1.431a.18.18 0 0 0-.176.226h-.001Zm-71.965.243h3.34a.186.186 0 0 1 .18.228l-.529 2.34a.292.292 0 0 1-.284.226H8.515a.18.18 0 0 1-.177-.225l.592-2.344a.299.299 0 0 1 .29-.226v.001Zm8.714 3.024-1.48 7.93a.194.194 0 0 0 .19.229h3.634a.273.273 0 0 0 .27-.23l.818-5.134a.273.273 0 0 1 .27-.23h3.49a.267.267 0 0 0 .264-.231l.311-2.333a.204.204 0 0 0-.202-.23h-3.41a.273.273 0 0 0-.271.23l-.3 1.87a.092.092 0 0 1-.167.036l-1.306-1.943a.438.438 0 0 0-.363-.194H18.21a.28.28 0 0 0-.276.23Zm9.705.002-.95 7.925a.207.207 0 0 0 .205.232h3.634c.133 0 .243-.1.255-.233l.526-5.593a.609.609 0 0 0-.117-.42l-1.447-1.955a.463.463 0 0 0-.373-.188H27.9c-.134 0-.246.1-.261.232Zm7.626-.06-1.81 1.988a.68.68 0 0 0-.175.405l-.26 3.262a.588.588 0 0 0 .128.414l1.574 1.967a.485.485 0 0 0 .38.181h5.681a.24.24 0 0 0 .24-.233l.065-2.328a.227.227 0 0 0-.227-.232h-3.562a.22.22 0 0 1-.22-.233l.125-2.334a.245.245 0 0 1 .245-.233h3.485a.24.24 0 0 0 .239-.232l.06-2.33a.228.228 0 0 0-.226-.232h-5.351a.528.528 0 0 0-.39.172l-.001-.001Zm35.098.058 1.376 7.929c.023.133.138.23.273.23h3.635a.191.191 0 0 0 .188-.228l-1.12-5.602a.748.748 0 0 0-.213-.39L72.43 42.78a.576.576 0 0 0-.4-.162h-1.473a.196.196 0 0 0-.193.23Zm-62.56 2.565h3.486a.186.186 0 0 1 .18.228l-.528 2.344a.292.292 0 0 1-.285.227H7.095a.18.18 0 0 1-.176-.226l.595-2.347a.3.3 0 0 1 .29-.226Z" fill="#FFF"/><path d="m1.974 15.614 3.192 2.074a.793.793 0 0 0 .42.117h8.762a.093.093 0 0 0 .07-.14l-2.377-2.05a.63.63 0 0 0-.42-.164H1.997a.07.07 0 1 0-.023.14v.023Zm14.075.023 2.05 2.004a.583.583 0 0 0 .42.164h3.216a.117.117 0 0 0 .07-.164l-1.724-1.98a.513.513 0 0 0-.397-.187H16.12a.093.093 0 0 0-.07.163Zm10.044.024 1.282 1.957c.085.12.225.19.372.187h3.216a.14.14 0 0 0 .14-.21l-1.002-1.911a.373.373 0 0 0-.326-.21h-3.566a.117.117 0 0 0-.116.187Zm8.016.023.7 1.91c.042.144.176.24.326.234h5.056a.21.21 0 0 0 .21-.233l-.28-1.888a.28.28 0 0 0-.28-.233H34.25a.163.163 0 0 0-.14.233v-.023Zm8.017.023.14 1.865a.233.233 0 0 0 .232.233h1.399a.233.233 0 0 0 .233-.233v-1.865a.233.233 0 0 0-.233-.233h-1.562a.233.233 0 0 0-.233.233h.024Zm3.985 0-.14 1.865c0 .128.104.233.233.233h3.216a.28.28 0 0 0 .28-.233l.419-1.865a.186.186 0 0 0-.187-.233H46.39a.233.233 0 0 0-.233.233h-.046Zm10.02 0-.839 1.865a.163.163 0 0 0 .14.233h3.216c.146 0 .28-.081.35-.21l1.141-1.911a.14.14 0 0 0-.116-.21h-3.566a.35.35 0 0 0-.326.233Zm8.016-.046-1.444 1.957a.117.117 0 0 0 .093.187h3.239a.515.515 0 0 0 .373-.164l1.748-1.98a.117.117 0 0 0-.07-.187H64.52a.466.466 0 0 0-.373.187Zm6.036 0-1.91 1.98a.093.093 0 0 0 .069.164h3.24a.606.606 0 0 0 .395-.164l2.214-2.004a.093.093 0 0 0-.07-.163h-3.565a.536.536 0 0 0-.373.163v.024Zm6.012-.024-2.377 2.028a.093.093 0 0 0 .07.14h3.216a.7.7 0 0 0 .42-.14l2.703-2.05a.074.074 0 0 0-.047-.14h-3.565a.63.63 0 0 0-.42.162Zm6.06-.023-2.89 2.05a.074.074 0 1 0 .046.14h3.24a.792.792 0 0 0 .419-.116l3.192-2.097a.07.07 0 0 0-.023-.117h-3.565a.722.722 0 0 0-.443.14h.023Z" fill="url(#a)" transform="translate(1 36)"/></g></svg>