<svg viewBox="0 0 90 90" xmlns="http://www.w3.org/2000/svg"><defs><radialGradient cx="94.108%" cy="108.231%" fx="94.108%" fy="108.231%" r="126.031%" gradientTransform="matrix(-.74636 -.61008 .66554 -.68416 .923 2.397)" id="a"><stop stop-color="#E2DBFF" offset="0%"/><stop stop-color="#6D4AFF" offset="100%"/></radialGradient><linearGradient x1="50.573%" y1="50.556%" x2="15.41%" y2="106.536%" id="b"><stop stop-color="#6D4AFF" offset="0%"/><stop stop-color="#28B0E8" offset="100%"/></linearGradient></defs><g fill="none" fill-rule="evenodd"><path fill="#FFF" fill-rule="nonzero" d="M0 0h90v90H0z"/><path d="M0 27.5C0 12.312 12.312 0 27.5 0S55 12.312 55 27.5v27.59A4.911 4.911 0 0 1 50.09 60h-6.876L5.893 53.036 0 29.464V27.5Zm43.214 0c0-8.679-7.035-15.714-15.714-15.714S11.786 18.82 11.786 27.5L23.62 37.855a5.893 5.893 0 0 0 7.76 0l7.882-1.25 3.952-9.105Z" fill="url(#a)" transform="translate(17.5 12.5)"/><path d="m0 29.464 16.762 14.368a5.893 5.893 0 0 0 7.702-.027L43.214 27.5V60H4.911A4.911 4.911 0 0 1 0 55.09V29.463Z" fill="url(#b)" fill-rule="nonzero" transform="translate(17.5 12.5)"/></g></svg>