<svg viewBox="0 0 90 90" xmlns="http://www.w3.org/2000/svg"><g fill="none"><path fill="#3D7FFC" d="M0 0h90v90H0z"/><g fill="#FFF"><path d="M37.862 23.332c.788 1.497.394 2.757-.157 4.096-.867 2.205-.63 4.332.945 6.143 1.575 1.89 3.78 2.127 6.065 1.654 3.15-.708 4.962-3.702 4.49-7.01-.237-1.575-1.182-3.15-.316-4.883-.787.394-.788.394-1.733 1.97-.866-1.025-1.654-2.127-2.599-3.23-.788-.867-1.575-1.654-1.103-3.072-.945.473-1.417 1.103-1.732 1.89-.237.788-.394 1.576-.552 2.363-.157.788-.551 1.497-1.339 1.97-.472-.867-.945-1.497-1.969-1.891ZM36 71.86v-3.853l4.174-.542V45.436l-3.849-1.248v-4.286l10.516-1.411 2.222-.22v29.14l4.12.596v3.853z"/><path d="M37.862 23.332c.788 1.497.394 2.757-.157 4.096-.867 2.205-.63 4.332.945 6.143 1.575 1.89 3.78 2.127 6.065 1.654 3.15-.708 4.962-3.702 4.49-7.01-.237-1.575-1.182-3.15-.316-4.883-.787.394-.788.394-1.733 1.97-.866-1.025-1.654-2.127-2.599-3.23-.788-.867-1.575-1.654-1.103-3.072-.945.473-1.417 1.103-1.732 1.89-.237.788-.394 1.576-.552 2.363-.157.788-.551 1.497-1.339 1.97-.472-.867-.945-1.497-1.969-1.891ZM36 71.86v-3.853l4.174-.542V45.436l-3.849-1.248v-4.286l10.516-1.411 2.222-.22v29.14l4.12.596v3.853z"/></g></g></svg>