<svg viewBox="0 0 90 90" xmlns="http://www.w3.org/2000/svg"><g fill="none"><path d="M18.742 38.27A231.04 231.04 0 0 0 .387 52.753c-.402.36-.507 1.01-.237 1.473 5.065 8.547 10.133 17.107 15.196 25.655.27.465.903.677 1.405.497a231.684 231.684 0 0 0 21.527-9.127 230.08 230.08 0 0 1-19.536-32.983Zm54.51-28.658a230.056 230.056 0 0 0-21.527 9.127 231.416 231.416 0 0 1 19.534 32.98 228.082 228.082 0 0 0 18.352-14.487c.403-.358.51-1.01.24-1.468-5.065-8.552-10.133-17.107-15.199-25.664-.265-.45-.895-.673-1.4-.488Z" fill="#2CE0DF"/><path d="M51.722 18.74A229.85 229.85 0 0 0 37.238.386c-.355-.4-1.01-.507-1.467-.24-8.554 5.07-17.112 10.133-25.665 15.198-.458.27-.68.902-.493 1.407a230.151 230.151 0 0 0 9.129 21.517 231.228 231.228 0 0 1 32.98-19.53ZM38.273 71.257a229.95 229.95 0 0 0 14.49 18.355c.352.402 1.007.507 1.465.242 8.558-5.062 17.109-10.132 25.662-15.195.458-.267.68-.895.5-1.405a232.89 232.89 0 0 0-9.128-21.525 231.481 231.481 0 0 1-32.989 19.528Z" fill="#A7F501"/><path d="M51.722 18.74A231.365 231.365 0 0 0 18.74 38.271a231.59 231.59 0 0 0 19.534 32.982 231.088 231.088 0 0 0 32.984-19.532 230.424 230.424 0 0 0-19.535-32.983Z" fill="#01CC00"/></g></svg>