<svg viewBox="0 0 90 90" xmlns="http://www.w3.org/2000/svg"><g fill="none"><path fill="#0F62FE" d="M0 0h90v90H0z"/><path d="M33.701 61h12.802c3.68 0 7.351-.267 9.242-2.222 1.414-1.455 1.916-3.108 1.916-6.32 0-4.874-3.074-6.846-4.395-7.475l-.085-.034v-.267l.077-.043c1.627-.896 3.5-2.463 3.5-6.665 0-2.747-.434-4.323-1.516-5.425-2.12-2.239-5.97-2.549-9.82-2.549h-11.72v31Zm12.53-4.977h-5.486v-8.319h5.486c1.729 0 2.478.138 3.228.913.596.655.894 1.748.894 3.238 0 1.464-.315 2.6-.894 3.195-.741.758-1.465.973-3.228.973Zm-.673-13.287h-4.813V35.02h4.813c1.601 0 2.283.078 3.05.861.536.5.894 1.688.894 2.963 0 1.248-.358 2.454-.895 3.005-.75.766-1.388.887-3.05.887ZM67.9 54.61c0 .146-.009.275-.017.413v.103c-.077 1.92-.46 3.1-1.286 3.953-1.031 1.076-2.522 1.636-4.225 1.92V30c1.703.284 3.194.844 4.225 1.92.902.922 1.277 2.23 1.303 4.47h-.017v18.22h.017Zm8.083.516H76c0 .147-.009.276-.017.414v.103c-.077 1.92-.46 3.1-1.286 3.952-.562.595-1.278 1.025-2.087 1.344V30.06c.81.319 1.516.75 2.087 1.344.903.921 1.277 2.23 1.303 4.469h-.017v19.254Zm-53.559-.516V36.389h-.017c.025-2.238.4-3.547 1.303-4.469 1.03-1.076 2.521-1.636 4.225-1.92v31c-1.704-.284-3.194-.844-4.225-1.92-.826-.844-1.21-2.032-1.286-3.953v-.103c-.009-.138-.009-.267-.017-.413h.017Zm-8.407-18.738H14c.026-2.24.4-3.548 1.303-4.47.562-.594 1.278-1.024 2.087-1.343v30.888c-.81-.318-1.516-.749-2.087-1.343-.826-.844-1.21-2.032-1.286-3.952v-.104c-.008-.146-.017-.275-.017-.422h.017V35.873Z" fill="#FFF"/></g></svg>