<svg xmlns="http://www.w3.org/2000/svg" viewBox="0 0 90 90"><defs><linearGradient id="a" x1="0%" x2="100%" y1="0%" y2="100%"><stop offset="0%" stop-color="#005BF8"/><stop offset="100%" stop-color="#5500A8"/></linearGradient></defs><path fill="url(#a)" d="M0 0h90v90H0z"/><path fill="#FFF" d="M46.83 59.19c4.15 0 6.54-1.65 6.54-4.58v-.14c0-2.71-2.11-4.5-6.68-4.5h-10.4v9.22h10.54zm-1.97-18.93c4.15 0 6.47-1.43 6.47-4.36v-.14c0-2.71-2.11-4.29-6.19-4.29H36.3v8.79h8.57zM23 20.33h25.23c6.19 0 10.55 1.57 13.43 4.5 1.97 2 3.16 4.64 3.16 8.07v.14c0 5.79-3.23 9.22-7.59 11.15 5.98 2 9.77 5.43 9.77 12.21v.14c0 8.57-6.89 13.79-18.63 13.79H23v-50z"/></svg>