<svg xmlns="http://www.w3.org/2000/svg" viewBox="0 0 90 90" fill-rule="evenodd" xmlns:v="https://vecta.io/nano"><path fill="#fff" d="M0 0h90v90H0z"/><path fill="#4f90ff" fill-rule="nonzero" d="M56.489 57.386l-11.208 6.227a.85.85 0 0 1-.819.001l-13.863-7.628a1.69 1.69 0 0 1-.876-1.481V39.953a1.69 1.69 0 0 1 .894-1.491l7.039-3.761c1.408-.753 3.111.267 3.111 1.864v9.234l15.714 8.627c1.166.641 1.17 2.314.007 2.961m16.766-10.553L53.855 36.101c-.018-.01-.03-.028-.03-.05V13.694c0-1.259-1.328-2.078-2.453-1.511L17.86 29.07c-1.14.576-1.86 1.744-1.86 3.021v30.577a1.69 1.69 0 0 0 .855 1.47l27.09 15.419a3.38 3.38 0 0 0 3.293.03l25.999-14.181A3.38 3.38 0 0 0 75 62.437V49.793a3.38 3.38 0 0 0-1.745-2.96"/></svg>