<svg viewBox="0 0 90 90" xmlns="http://www.w3.org/2000/svg"><g fill="none"><path d="M0 0h90v90H0z" fill="#84A7FF"/><g transform="translate(23.443 12.683)" fill="#173647"><circle cx="22.544" cy="41.422" r="3.388"/><path d="M20.747 19.412h1.858c12.516.017 21.35 8.245 22.42 19.47 1.229 12.878-8.32 24.49-22.002 24.38C8.352 63.262.013 52.922 0 41.004V28.69h9.381L9.356 6.439 4.396 8.92v15.162H.144V5.813L10.188 0l3.39 1.978.027 26.71h8.078c9.68-.07 13.55 6.289 13.635 12.843.117 8.842-9.308 15.356-18.732 10.935-4.15-1.946-7.33-6.817-7.33-11.4V41l-.011-7.963h-5.15v7.174c-.233 8.647 6.245 17.712 17.182 18.627 10.976.92 19.506-6.911 19.506-17.658 0-10.151-7.098-17.217-17.251-17.217h-2.786m-7.095 9.074v7.961c0 5.027 4.19 8.906 9.218 8.908 5.027 0 8.377-4.189 8.26-8.26.002-5.027-3.776-8.608-8.802-8.61h-8.675Z"/></g></g></svg>