<svg viewBox="0 0 90 90" xmlns="http://www.w3.org/2000/svg"><g fill="none" fill-rule="evenodd"><path d="M42.826 31.76c4.25-8.393 13.046-18.494 25.026-9.754m-26.268 10.65C45.784 19.914 47.48 4.319 35.75 2.5" stroke="#000" stroke-width=".947"/><path d="M60.87 44.661v-5.605h.629a7.108 7.108 0 0 0-3.02-.677h-36.5c-3.938 0-7.143 3.195-7.143 7.12v36.379c0 3.927 3.205 7.122 7.143 7.122h36.5c3.939 0 7.144-3.195 7.144-7.122V45.5c0-.285-.021-.563-.054-.839h-4.7Z" fill="#000" fill-rule="nonzero" opacity=".5"/><path d="M57.644 87.876h-36.5c-3.939 0-7.144-3.195-7.144-7.122V44.376c0-3.926 3.205-7.12 7.144-7.12h36.5c3.938 0 7.144 3.194 7.144 7.12v36.378c0 3.927-3.206 7.122-7.144 7.122" fill="#FFF" fill-rule="nonzero"/><path d="M62.644 80.753c0 2.754-2.239 4.985-5 4.985h-36.5c-2.763 0-5.002-2.231-5.002-4.985v-36.38c0-2.754 2.239-4.985 5.001-4.985h36.5c2.762 0 5.001 2.231 5.001 4.985v36.38Z" fill="#90449E" fill-rule="nonzero"/><path d="M67.353 44.947c-3.505-2.525-6.999-4.44-8.305-5.13 1.052 2.428 1.441 4.333 1.453 4.348-.008 0-1.062-2.325-2.599-5.165-1.535-2.845-3.983-6.048-7.588-7.584-1.223-.522-2.344-.732-3.37-.732-3.747-.014-6.395 2.886-7.475 4.366a8.62 8.62 0 0 0-.536.799l-.075.131-.138.062c-1.158.51-2.506 1.912-3.567 2.88-3.102 2.806-4.993 6.332-4.993 10.162 0 1.405.254 2.856.803 4.339 1 2.694 2.71 4.826 4.992 6.577 2.606 2.105 2.46 7.802 2.503 7.846v6.02c.06.062.113.122.18.19.197.194.425.403.688.613.988.788 2.41 1.562 4.186 1.562 1.129 0 2.412-.312 3.85-1.153l.083.01c.634-4.334 2.09-6.643 4.409-7.784 2.331-1.142 5.333-1.131 9.104-1.286 3.744-.145 7.39-.74 10.136-2.222 2.742-1.49 4.605-3.79 4.96-7.563.012-.135.015-.27.015-.406.052-3.513-4.279-7.714-8.719-10.879" fill="#F6BD6D" fill-rule="nonzero"/><path d="m30.403 85.768 5.694-10.334s-9.891-4.325-14.893 10.215v.12l9.199-.001Zm21.537-49.89c.148.362.255.752.34 1.153a6.739 6.739 0 0 0-.208-1.018c-.045-.043-.086-.092-.132-.135" fill="#000" fill-rule="nonzero"/><path d="M55.724 43.029c-.24-2.474-1.695-5.07-3.581-6.94 1.72 2.017 2.94 4.756 2.94 7.247 0 4.654-2.536 6.68-6.4 6.647-2.433-.019-4.02-.476-5.055-1.254 1.066 1.284 2.906 1.964 6.264 1.668 3.921-.348 6.292-2.649 5.832-7.369M45.69 33.62c-.01.003-.02.008-.029.01a4.792 4.792 0 0 0-.247.269c.092-.095.18-.193.279-.278" fill="#000" fill-rule="nonzero"/><path d="m52.065 35.992.004.021c.025.023.048.05.072.075a1.439 1.439 0 0 0-.078-.097" fill="#FFF" fill-rule="nonzero"/><path d="M52.144 36.088a2.627 2.627 0 0 0-.073-.074 6.9 6.9 0 0 1 .209 1.018c.037.285.063.575.063.873 0 2.967-1.865 5.371-4.167 5.371-2.302 0-4.168-2.405-4.168-5.37 0-1.597.545-3.023 1.404-4.007a4.223 4.223 0 0 1 .763-.705c-3.253.502-4.488 4.05-4.488 8.361 0 3.05-.026 5.695 1.941 7.173 1.035.779 2.622 1.234 5.055 1.254 3.864.033 6.4-1.992 6.4-6.647 0-2.49-1.22-5.23-2.94-7.246" fill="#FFF" fill-rule="nonzero"/><path d="M44.007 37.906c0 2.966 1.866 5.37 4.168 5.37s4.168-2.404 4.168-5.37c0-.676-.101-1.32-.278-1.914-1.48-1.7-3.316-2.864-5.08-2.864a5.26 5.26 0 0 0-.811.067c-1.291.912-2.167 2.68-2.167 4.71" fill="#000" fill-rule="nonzero"/><path d="M48.863 36.57c0 1.147-.774 2.077-1.728 2.077-.955 0-1.728-.93-1.728-2.078 0-1.147.773-2.078 1.728-2.078.954 0 1.728.93 1.728 2.078" fill="#FFF" fill-rule="nonzero"/><path d="M37.224 73.504v-.001.001Zm10.999 1.873.091-.057-.396-.59c-.188.126-.373.239-.556.347l.576.067s.105.084.284.233" fill="#231E1F" fill-rule="nonzero"/><path fill="#F6BD6D" fill-rule="nonzero" d="m37.816 73.957.824.097-.182-.02zm20.61-35.477c.442.224 2.282 1.17 4.583 2.538-.45-2.815-3.719-6.346-5.66-8.072-.68-.608-1.22-.774-1.643-.775a1.66 1.66 0 0 0-1.01.36 1.823 1.823 0 0 0-.335.322l-.038.08c1.83 1.652 3.157 3.674 4.103 5.547"/><path d="M55.143 66.538s-4.168-3.442-9.527-1.78c0 0 7.146-.238 7.98 2.373l1.547-.593Z" fill="#000" fill-rule="nonzero"/><path d="M35.733 2.265a1.13 1.13 0 0 1-1.131 1.128 1.13 1.13 0 0 1-1.131-1.128 1.13 1.13 0 0 1 1.131-1.127 1.13 1.13 0 0 1 1.131 1.127" fill="#9C61A4" fill-rule="nonzero"/><path d="M35.733 2.265a1.13 1.13 0 0 1-1.131 1.128 1.13 1.13 0 0 1-1.131-1.128 1.13 1.13 0 0 1 1.131-1.127 1.13 1.13 0 0 1 1.131 1.127Z" stroke="#000" stroke-width=".759" fill="#5A222F" fill-rule="nonzero"/><path d="M69.316 22.444a1.13 1.13 0 0 1-1.131 1.127 1.13 1.13 0 0 1-1.131-1.127 1.13 1.13 0 0 1 1.13-1.128 1.13 1.13 0 0 1 1.132 1.128" fill="#5F122B" fill-rule="nonzero"/><path d="M69.316 22.444a1.13 1.13 0 0 1-1.131 1.127 1.13 1.13 0 0 1-1.131-1.127 1.13 1.13 0 0 1 1.13-1.128 1.13 1.13 0 0 1 1.132 1.128Z" stroke="#000" stroke-width=".759" fill="#5A222F" fill-rule="nonzero"/><path d="M49.784 76.045c0-.583-.43-1.057-.96-1.057-.354 0-.66.213-.826.527-1.632 1.019-3.142 1.427-4.478 1.427h-.007c-2.886-.013-4.866-1.787-5.756-2.781l.037-.352-.58.222-.76.4-.246.157-.133.667.196.397-.021.027c.336.361.905.92 1.688 1.486 1.31.948 3.176 1.885 5.417 1.884 1.659-.002 3.536-.37 5.594-1.8.469-.071.837-.667.837-1.203" fill="#FFF" fill-rule="nonzero"/><path d="M76.055 56.231c-.355 3.773-2.219 6.073-4.96 7.564-2.745 1.482-6.392 2.076-10.137 2.222-3.77.154-6.772.144-9.103 1.286-2.319 1.14-3.775 3.449-4.41 7.784l-.083-.01c-1.436.84-2.72 1.151-3.849 1.153-1.776 0-3.198-.774-4.186-1.563a8.5 8.5 0 0 1-.687-.613l-.824-.097.643.076.181.02c-.068-.067-.12-.127-.181-.19v-6.019c-.043-.044.103-5.74-2.503-7.846-2.28-1.75-3.991-3.882-4.992-6.577-.55-1.483-.803-2.934-.803-4.339 0-3.83 1.89-7.356 4.993-10.161 1.061-.968 2.409-2.37 3.568-2.88l.137-.062.075-.131c0-.002.176-.31.536-.8 1.08-1.48 3.728-4.38 7.475-4.366 1.026 0 2.147.21 3.37.733 3.604 1.536 6.053 4.739 7.588 7.584 1.537 2.84 2.59 5.164 2.598 5.165-.01-.013-.4-1.92-1.452-4.348 1.306.69 4.8 2.605 8.304 5.13 4.44 3.164 8.771 7.366 8.719 10.879 0 .135-.004.27-.014.406M49.39 76.626a.955.955 0 0 1-.185.307c-.407.439-1.03.693-1.56.948-.915.44-1.809.863-2.82 1.033-.481.08-.981.133-1.471.134-2.241.002-4.107-.935-5.418-1.883a11.637 11.637 0 0 1-1.64-1.437l-.011-.05c-.29-1.115 1.055-1.487 1.426-1.568.867.985 2.869 2.818 5.81 2.832 1.302 0 2.619-.376 3.752-1.007.36-.2.754-.416 1.07-.678.064-.053.406.135.462.166.18.098.35.226.485.382.196.223.202.55.1.821m4.97-43.774c.046-.058.156-.186.336-.322a1.66 1.66 0 0 1 1.009-.36c.423.002.964.167 1.642.775 1.942 1.727 5.21 5.258 5.661 8.073a83.371 83.371 0 0 0-4.583-2.538c-.946-1.873-2.274-3.895-4.103-5.547l.037-.08Zm13.538 11.343a65.352 65.352 0 0 0-4.134-2.723c-.19-3.367-3.853-7.148-5.938-9.056-.768-.694-1.494-.961-2.121-.958-1.196.013-1.85.879-1.94.995a13.126 13.126 0 0 0-3.084-1.89c-1.328-.568-2.58-.808-3.736-.808-5.172.037-8.21 4.655-8.736 5.502-1.38.679-2.678 2.08-3.68 2.978-3.245 2.932-5.297 6.701-5.297 10.847 0 1.517.276 3.079.86 4.659 1.065 2.873 2.904 5.158 5.296 6.99.983.73 1.587 2.515 1.859 4.122.282 1.602.28 2.987.283 2.99v5.576c-2.583.284-1.921 2.593-1.921 2.593l.044.07-.004.001c.905.99 3.702 3.663 7.704 3.677h.008c1.935 0 4.133-.675 6.463-2.427.157-.085.301-.217.301-.217l.004-.008c.014-.01.03-.018.043-.033l-.014-.013.007-.013s.608-2.133-1.695-2.491c.671-3.755 1.931-5.493 3.796-6.424 2.015-1.01 4.937-1.05 8.728-1.19 3.816-.153 7.584-.744 10.54-2.334 2.96-1.58 5.086-4.236 5.444-8.295.015-.165.022-.327.022-.488-.05-4.226-4.63-8.378-9.102-11.63" fill="#000" fill-rule="nonzero"/><path d="M56.946 85.768c-.896-2.94-4.405-6.528-6.773-8.693-2.461 1.956-4.78 2.686-6.813 2.686h-.008c-4.002-.013-6.8-2.687-7.704-3.677-4.99 2.26-7.494 8.176-8.064 9.684h29.362Z" fill="#C7584D" fill-rule="nonzero"/><path d="M27.978 85.737c.266-.683.829-2 1.728-3.476 1.273-2.091 3.21-4.466 5.86-5.747 1.087 1.134 3.855 3.58 7.786 3.6h.008c2.05.002 4.37-.716 6.795-2.574 2.309 2.123 5.538 5.52 6.414 8.197h.738c-.92-3.115-4.494-6.717-6.892-8.926l-.225-.206-.24.19c-2.41 1.913-4.644 2.607-6.59 2.608h-.008c-3.832-.008-6.565-2.598-7.44-3.56l-.176-.192-.236.106c-5.27 2.41-7.777 8.611-8.285 9.98h.763Z" fill="#000" fill-rule="nonzero"/></g></svg>