<svg viewBox="0 0 90 90" xmlns="http://www.w3.org/2000/svg"><g fill="none" fill-rule="evenodd"><path fill="#003E89" d="M0 0h90v90H0z"/><path d="M43.25 11.01a.742.742 0 0 1 .657.222c.17.179.244.43.198.676v17.585c0 .417.222.63.68.63a24.57 24.57 0 0 0 3.052-.35 32.467 32.467 0 0 1 4.771-.352 29.722 29.722 0 0 1 9.148 1.211 12.806 12.806 0 0 1 6.001 3.951 16.572 16.572 0 0 1 3.256 7.15 47.27 47.27 0 0 1 .979 10.478 66.577 66.577 0 0 1-.941 11.942 21.074 21.074 0 0 1-3.282 8.357 13.577 13.577 0 0 1-6.425 4.899 29.253 29.253 0 0 1-10.386 1.578 54.122 54.122 0 0 1-7.91-.543 50.557 50.557 0 0 1-6.377-1.349c-.491-.18-.75-.481-.75-.607V12.209c0-.898.285-1.2.855-1.2ZM26.987 66.552c.57 0 .84.264.855.822v8.407c0 .543-.285.821-.855.821h-8.132c-.57 0-.855-.278-.855-.821v-8.407c0-.543.285-.822.855-.822Zm25.108-30.495-.59.005a27.394 27.394 0 0 0-3.998.264c-.916.13-1.825.312-2.723.542a1.21 1.21 0 0 0-.683 1.261v32.669c0 .531.196.871.593.986.941.286 1.914.452 2.896.493 1.252.088 2.355.137 3.32.137a20.475 20.475 0 0 0 6.683-.898 7.004 7.004 0 0 0 3.826-3.145 14.755 14.755 0 0 0 1.691-5.969c.267-2.483.375-5.579.405-9.3.045-2.801-.142-5.6-.559-8.37a12.844 12.844 0 0 0-1.92-5.3 6.84 6.84 0 0 0-3.702-2.651 20.125 20.125 0 0 0-5.829-.719Zm-25.108-5.761a.741.741 0 0 1 .622.2.77.77 0 0 1 .233.621v8.407c0 .543-.285.822-.855.822h-8.132c-.57 0-.855-.28-.855-.822v-8.407c0-.542.285-.821.855-.821Z" fill="#FFF" fill-rule="nonzero"/></g></svg>