<svg viewBox="0 0 90 90" xmlns="http://www.w3.org/2000/svg"><path d="m44.539.118-39.99 21.95a.95.95 0 0 0 .012 1.675l21.373 11.324c.29.154.64.148.924-.015L44.525 24.94a.958.958 0 0 1 .952 0l17.657 10.114a.958.958 0 0 0 .924.015l21.384-11.327a.95.95 0 0 0 .013-1.674L45.46.118a.958.958 0 0 0-.922 0ZM25.895 40.867 4.405 29.484a.955.955 0 0 0-1.403.84L3 68.442c0 .347.19.666.494.834L41.043 89.88a.955.955 0 0 0 1.416-.834V66.348a.951.951 0 0 0-.48-.825l-15.098-8.646a.951.951 0 0 1-.48-.825V41.707a.951.951 0 0 0-.506-.84Zm38.211 0 21.489-11.383a.955.955 0 0 1 1.403.84L87 68.442c0 .347-.19.666-.494.834L48.957 89.88a.955.955 0 0 1-1.416-.834V66.348a.95.95 0 0 1 .48-.825l15.098-8.646a.95.95 0 0 0 .48-.825V41.707a.95.95 0 0 1 .507-.84Z" fill="#2D87C3"/></svg>