<svg xmlns="http://www.w3.org/2000/svg" viewBox="0 0 90 90"><path fill="#FFF" d="M0 0h90v90H0z"/><g fill="#004500"><path d="M7.06 22.51c.06 12.92.1 13.64.7 15.5 2.8 8.54 12.3 12.43 20.7 8.48 3.32-1.55 6.3-4.99 7.42-8.46 2.54-8.07-2.1-16.62-10.16-18.71-1.6-.42-6.03-.7-6.33-.36-.12.09-.2 5.89-.15 9.83l.03 1.7 1.06-.44c2.02-.84 3.77-.3 4.82 1.46 1.24 2.1.3 4.82-1.99 5.72-2.05.8-3.86.12-4.82-1.83-.64-1.28-.67-1.67-.67-13.87V9H7l.06 13.51zm48.12 1.41c-.78.72-.93 1.1-.93 2.18.03 1.59.5 2.28 1.99 2.78a3.4 3.4 0 003.55-.71c.7-.7.9-2.93.4-3.65-1.3-1.68-3.53-1.95-5.01-.6zm7.42.54c-.1.2-.06 22.4.06 22.84.03.12 5.36.12 6.09 0 .09-.03.18-5.2.18-11.54V24.25h-3.1c-1.73 0-3.17.09-3.23.2zm7.6.75c-.16 6.42.03 14.95.33 16.08.93 3.41 2.98 5.32 6.48 6.13 2.56.57 2.56.57 2.56-3.14v-3.26l-1.08-.2c-.88-.16-1.18-.43-1.51-1.2-.75-1.77-.6-2.19.78-2.16.7 0 1.33-.08 1.45-.2.12-.1.21-1.59.21-3.32v-3.11l-.9-.03c-.49-.03-1.15-.03-1.42 0-.48.06-.54-.27-.54-3.23v-3.32h-6.33l-.03.96z"/><path d="M37.12 30.98c-.4.62-.09 10.31.36 11.9.97 3.26 3.53 5.08 7.09 5.08 2.35 0 3.77-.57 5.33-2.12a6.62 6.62 0 002.11-3.68c.16-.8.28-9.1.16-11.03-.03-.36-.58-.45-3.11-.42l-3.1.03-.19 5.35c-.09 2.93-.18 5.38-.2 5.41-.25.33-1.85 0-2-.39-.09-.27-.18-2.69-.18-5.38v-4.9h-.81c-.48-.03-1.84-.06-3.05-.1-1.23-.02-2.29.07-2.41.25zm17.07 1.1c-.06.87-.06 4.7 0 8.46l.09 6.91 3.13-.03h3.17V30.53H54.28l-.1 1.55zm-1.45 19.86c-1.2.47-1.72 1.16-1.96 2.5-.48 2.7 3.13 4.4 5.27 2.46 2.54-2.24-.15-6.28-3.31-4.96zm5.94 1.01c-.3.12-.36 2-.36 7.93.03 8.01.15 9.12 1.05 10.94 1.27 2.45 4.5 4.45 7.2 4.45h1.15v-3.25l.03-3.3-.9-.17a2.52 2.52 0 01-2.05-2.45c0-.96.03-1 1.36-1 1.53 0 1.35.49 1.44-4.09.03-1.37 0-2.48-.09-2.5-.09-.04-.66-.07-1.26-.1-.6 0-1.21-.12-1.3-.24-.12-.12-.21-1.55-.21-3.23 0-2.87-.03-2.99-.64-3.02-2.68-.12-5.12-.09-5.42.03zm11.03-.06l-.7.1V75.97l.85.03c2.17.06 5.28 0 5.4-.15.1-.1.18-2.4.21-5.12.03-4.03.12-4.99.48-5.23.6-.39.79-.36 1.27.1.3.32.4 1.6.4 5.37l-.04 5 1 .03h4.88c.57-.03.57-.3.51-6.55-.06-5.47-.15-6.67-.6-7.57a5 5 0 00-6.93-2.48c-.49.24-.94.42-1 .42-.06 0-.09-1.5-.06-3.29.03-1.82-.03-3.38-.12-3.47-.18-.2-4.46-.33-5.55-.18zm-52.8 8.5c.16 9.41.28 10.2 2.24 12.43a9.13 9.13 0 007.69 3.14 12.16 12.16 0 005.4-2.36l.87-.75 1.57 1.2c4.76 3.59 11.15 2 13.87-3.41.72-1.46.72-1.67.81-10.1l.1-8.59h-9.08v7c0 6.3-.06 7.06-.55 7.65-.66.81-1.71.6-1.99-.38-.09-.36-.18-3.71-.18-7.48v-6.79h-9.04v6.79c0 3.77-.1 7.12-.18 7.48-.27.98-1.33 1.2-2 .38-.48-.6-.54-1.34-.54-7.65v-7h-9.1l.12 8.43zm36.85-2.16l-3.04.15-.03 8.28v8.32l1.54.03c2.05.06 4.49-.03 4.7-.18.21-.12.24-16.5.03-16.66a24.5 24.5 0 00-3.2.06z"/></g></svg>