<svg viewBox="0 0 90 90" xmlns="http://www.w3.org/2000/svg"><path d="M90 0v90H0V0h90ZM19.776 44.052a4.776 4.776 0 0 0-3.377 8.153l21.38 21.38a4.77 4.77 0 0 0 5.211 1.052 4.668 4.668 0 0 0 1.544-1.053 4.744 4.744 0 0 0 0-6.754l-21.38-21.379a4.776 4.776 0 0 0-3.378-1.399Zm.317-28.874h-.244a4.788 4.788 0 0 0-3.451 7.966l50.434 50.4a4.717 4.717 0 0 0 6.022.6 4.786 4.786 0 0 0 .726-7.347l-50.41-50.4a4.788 4.788 0 0 0-3.321-1.219ZM48.829 15a4.777 4.777 0 0 0-3.377 8.153l21.38 21.38a4.768 4.768 0 0 0 5.211 1.052 4.67 4.67 0 0 0 1.544-1.053 4.743 4.743 0 0 0 0-6.754l-21.38-21.38A4.776 4.776 0 0 0 48.828 15Z" fill="#16CB3E" fill-rule="evenodd"/></svg>