<svg xmlns="http://www.w3.org/2000/svg" viewBox="0 0 90 90"><defs><linearGradient x1="50%" y1="0%" x2="50%" y2="100%" id="a"><stop stop-color="#67FF81" offset="0%"/><stop stop-color="#01B41F" offset="100%"/></linearGradient></defs><path fill="url(#a)" d="M0 0h90v90H0z"/><path d="M46 11.5c-17.95 0-32.5 14.55-32.5 32.5 0 4.249.819 8.393 2.39 12.252l.284.675a32.402 32.402 0 0 0 1.64 3.262l.131.223-4.422 16.563 16.967-4.41.14.077a32.316 32.316 0 0 0 8.121 3.045A32.56 32.56 0 0 0 46 76.5c17.95 0 32.5-14.55 32.5-32.5S63.95 11.5 46 11.5Zm0 5.5c14.912 0 27 12.088 27 27S60.912 71 46 71c-2.072 0-4.089-.233-6.026-.675a26.84 26.84 0 0 1-8.158-3.347l-.493-.312-10.052 2.613 2.613-9.786a26.942 26.942 0 0 1-2.9-5.315A26.923 26.923 0 0 1 19 44c0-14.912 12.088-27 27-27Z" fill="#FFF"/><path d="M35.5 30a2.5 2.5 0 0 1 2.5-2.5h10.227c5.226 0 9.455 4.257 9.455 9.5a9.494 9.494 0 0 1-2.678 6.624A9.499 9.499 0 0 1 58.5 51c0 5.243-4.23 9.5-9.455 9.5H38a2.5 2.5 0 0 1-2.5-2.5Zm13.545 16.5H40.5v9h8.545c2.457 0 4.455-2.011 4.455-4.5s-1.998-4.5-4.455-4.5Zm-.818-14H40.5v9h7.727c2.457 0 4.455-2.011 4.455-4.5s-1.998-4.5-4.455-4.5Z" fill="#FFF"/></svg>