<svg xmlns="http://www.w3.org/2000/svg" viewBox="0 0 90 90"><path fill="#F0D722" d="M0 0h90v90H0z"/><path fill="#252424" d="M66.94 60.9c-8.95 0-11.2-4.93-11.2-15.23C55.75 34.93 60.23 30 67.4 30c1.34 0 4.92.45 6.71 1.8.45.44.9.89.9 1.78 0 1.35-1.34 2.24-2.24 2.24-1.34 0-2.69-.9-4.92-.9-3.59 0-5.83 2.24-5.83 11.2 0 8.5 1.8 10.3 5.83 10.3.9 0 1.79 0 1.79-.45v-8.5h-1.8c-1.34 0-2.23-.9-2.23-2.25 0-1.34.9-2.23 2.24-2.23h4.92c1.8 0 2.24.9 2.24 2.68v8.96c0 4.47-2.69 6.27-8.06 6.27Zm-18.8-3.59c-.45 2.69-1.8 3.59-4.04 3.59-2.68 0-3.58-1.35-4.47-3.59l-5.38-22.83c-.44-2.24.45-4.03 2.69-4.03 1.34 0 2.69.9 3.13 2.68l3.59 17.02c.44 1.79.44 3.58.9 4.92 0-1.34.44-3.13.89-4.92l3.13-17.02c.45-1.79 1.35-2.68 2.69-2.68 1.79 0 3.13 1.34 2.69 4.03L48.13 57.3Zm-26.42-10.3h-1.8v9.4h2.24c3.14 0 3.59-2.23 3.59-4.92.44-2.68 0-4.48-4.03-4.48Zm.44-12.53h-1.79v8.5h1.35c4.03 0 4.03-2.23 4.03-4.47 0-2.69-.45-4.03-3.59-4.03Zm.45 25.97h-5.37C15.9 60.45 15 60 15 58.2V32.24c0-1.34.9-2.24 2.24-2.24h5.82c7.16 0 8.06 3.58 8.06 7.61 0 3.14-.9 5.82-4.93 6.72 4.48.45 5.82 3.58 5.82 6.71 0 5.38-1.79 9.4-9.4 9.4Z"/></svg>