<svg xmlns="http://www.w3.org/2000/svg" viewBox="0 0 90 90"><defs><linearGradient id="a" x1="72.29%" x2="61.29%" y1="50.16%" y2="40.9%"><stop offset="0%" stop-color="#FF3148"/><stop offset="100%" stop-color="#FF5B6D"/><stop offset="100%" stop-color="#FF3148"/></linearGradient></defs><path fill="#FFF" d="M0 0h90v90H0z"/><path fill="url(#a)" d="M.66 38.4l21.06 3.08 9.39 19.03v.19a.68.68 0 001.13 0v-.19L51.5 1.5v-.2c0-.37-.3-.66-.66-.66a.47.47 0 00-.28 0l-.1.1L.34 37.17l-.17.12a.74.74 0 00-.18.47c0 .3.2.55.47.64h.19z" transform="translate(13 15)"/><path fill="#FF3148" d="M24.76 15.73L27.71 33v.47a2.05 2.05 0 001.89 1.4c.34 0 .67-.09.96-.25l.4-.27 10.48-7.63.31-.23c.41-.38.65-.91.66-1.47 0-.6-.27-1.16-.72-1.54l-.43-.25-15.45-8.2h-.12a.51.51 0 00-.25 0 .66.66 0 00-.68.71zm33.75 40.25l.62-.1 17.25-2.5h.15a.66.66 0 00.47-.64.66.66 0 00-.18-.47L64.23 39.94l-.33-.3a1.88 1.88 0 00-1.2-.44c-.75.03-1.43.46-1.77 1.13l-.16.5-4 12.3-.18.58v.3c.04 1.06.87 1.91 1.92 1.97z"/></svg>