<svg viewBox="0 0 90 90" xmlns="http://www.w3.org/2000/svg"><g fill="none" fill-rule="evenodd"><path fill="#15192B" d="M0 0h90v90H0z"/><g fill-rule="nonzero"><path fill="#F7A600" d="M60.317 49.503V31h3.72v18.503z"/><path d="M16.973 54.999H9V36.496h7.652c3.72 0 5.887 2.027 5.887 5.198 0 2.052-1.392 3.378-2.355 3.82 1.15.52 2.621 1.688 2.621 4.158 0 3.455-2.433 5.327-5.832 5.327Zm-.615-15.28H12.72v4.262h3.64c1.577 0 2.46-.858 2.46-2.132 0-1.272-.883-2.13-2.46-2.13Zm.24 7.51H12.72v4.548h3.88c1.686 0 2.487-1.039 2.487-2.287 0-1.247-.803-2.26-2.487-2.26Zm17.551.181V55h-3.693v-7.59L24.73 36.496h4.04l3.559 7.458 3.505-7.458h4.04zm16.268 7.589h-7.973V36.496h7.653c3.719 0 5.886 2.027 5.886 5.198 0 2.052-1.392 3.378-2.355 3.82 1.15.52 2.622 1.688 2.622 4.158 0 3.455-2.434 5.327-5.833 5.327Zm-.615-15.28h-3.639v4.262h3.64c1.578 0 2.46-.858 2.46-2.132 0-1.272-.882-2.13-2.46-2.13Zm.24 7.51h-3.879v4.548h3.88c1.686 0 2.487-1.039 2.487-2.287 0-1.247-.801-2.26-2.487-2.26Zm25.981-7.51V55h-3.719V39.719h-4.977v-3.223H81v3.223z" fill="#FFF"/></g></g></svg>