<svg xmlns="http://www.w3.org/2000/svg" viewBox="0 0 90 90" fill="none" fill-rule="evenodd" xmlns:v="https://vecta.io/nano"><path fill="#7bd500" d="M0 0h90v90H0z"/><path stroke="#fff" stroke-width="2.958" d="M59.113 16.505l1.025-1.04C55.24 12.624 49.567 11 43.521 11 25.008 11 10 26.222 10 45s15.008 34 33.521 34 33.521-15.222 33.521-34a34.36 34.36 0 0 0-2.095-11.858h0l-1.091 1.107c1.159 3.366 1.79 6.984 1.79 10.751 0 17.995-14.382 32.583-32.124 32.583S11.397 62.995 11.397 45s14.382-32.583 32.124-32.583c5.658 0 10.975 1.484 15.592 4.089h0z"/><path fill="#fff" fill-rule="nonzero" d="M35.49 53.338l.2-.203 39.706-40.274 1.535-1.556L80 14.418l-1.535 1.557-39.706 40.273-.2.203-3.069 3.114-1.535-1.557L22.876 46.77l-1.535-1.556L24.41 42.1l1.535 1.557z"/></svg>