<svg viewBox="0 0 90 90" xmlns="http://www.w3.org/2000/svg"><path d="M73.94 41.723h14.054v6.255H73.941v7.142H90v6.254H66.926V28.43H90v6.254H73.94v7.039ZM16.983 61.81c5.441 0 10.44-2.274 13.548-6.616l-5.324-4.213c-1.566 2.308-4.296 4.364-8.035 4.364-5.555 0-9.906-4.595-9.906-10.44s4.351-10.44 9.906-10.44c3.739 0 6.469 2.056 8.035 4.364l5.324-4.214C27.42 30.275 22.423 28 16.982 28 7.756 28 0 35.497 0 44.905 0 54.312 7.756 61.81 16.982 61.81ZM50.93 28.43h-7.285l12.824 32.944h7.343L50.929 28.43Zm2.391 25.382H41.024l-2.957 7.562H30.8l7.522-19.433L53.32 53.812Z" fill="#2969F2"/></svg>