<svg xmlns="http://www.w3.org/2000/svg" viewBox="0 0 90 90"><path fill="#fff" d="M0 0h90v90H0z"/><path fill="#000" d="M67.99 28.92c-.04.18-.03 30.93.01 31.5.01.19.39.21 2.88.21h2.88l-.01-15.95-.01-15.94-2.86-.02c-2.48 0-2.85.03-2.9.2ZM26.99 29.5a6 6 0 0 1-.93.14c-.49.03-1.46.25-2.18.46-6.68 1.97-11.01 7.83-11.06 14.96-.03 3.05.42 5.12 1.64 7.55 2.25 4.49 6.3 7.5 11.32 8.38 1.04.2 4.95.2 5.78.02 3.3-.71 4.98-1.55 6.86-3.42.58-.58 1.05-1.1 1.05-1.15 0-.05-.38-.45-.86-.86-2.38-2.1-3.27-2.87-3.36-2.87-.05.02-.4.3-.8.66a10.6 10.6 0 0 1-3.66 1.92c-.96.24-3.1.25-4.25.05a9.27 9.27 0 0 1-7.05-6.87c-1-3.93-.05-8.2 2.37-10.66a8.6 8.6 0 0 1 6.25-2.63c2.55-.1 5 .8 6.62 2.4l.45.46.38-.33.94-.78c3.06-2.54 2.98-2.46 2.78-2.77-.31-.46-2-2.06-2.69-2.5a13.24 13.24 0 0 0-3.93-1.75l-1.03-.21c-.7-.14-4.53-.32-4.64-.2ZM49.76 37.56c-4.73.56-8.39 4.15-9.58 9.37-.2.86-.2 4.2-.01 4.88l.15.63c.15.74.62 1.95 1.1 2.85a10.8 10.8 0 0 0 9.62 5.95c3 .01 5.17-1.02 6.5-3.04.25-.4.48-.73.5-.73.01 0 .02.7.01 1.54-.01 1.47 0 1.56.26 1.61.14.04 1.44.05 2.89.03l2.64-.03V37.93h-5.8l.01 1.67c.01.91 0 1.67-.01 1.67-.02 0-.17-.22-.32-.49a7.11 7.11 0 0 0-4.3-3.04c-.89-.22-2.62-.31-3.66-.18Zm3.92 5.52c3.8 1.02 5.64 5.53 3.84 9.34a6.18 6.18 0 0 1-7.38 3.19 5.82 5.82 0 0 1-1.48-.72c-1.83-1.25-2.77-3.13-2.77-5.58-.02-3.83 2.8-6.62 6.44-6.4.46.02 1.07.11 1.35.17Z"/></svg>