<svg xmlns="http://www.w3.org/2000/svg" viewBox="0 0 90 90"><path fill="#313639" d="M0 0h90v90H0z"/><path fill="#BFD730" d="M56.174 16.752H33.76v7.415h22.413v-7.415z"/><path d="M45.597 29.103c-13.545 0-17.847 6.773-17.847 22.071 0 15.936 4.94 22.071 17.767 22.071 9.005 0 15.858-1.595 15.858-1.595l-.158-8.367s-6.216.878-13.865.878c-6.295 0-8.527-2.151-8.605-9.163h23.107s.398-3.107.398-7.091c-.002-12.27-3.587-18.804-16.655-18.804m6.534 19.362H38.427c0-9.482 2.072-10.916 7.251-10.916 4.461 0 6.532 1.276 6.532 8.446 0 .796 0 1.753-.079 2.47" fill="#FFF"/></svg>