<svg viewBox="0 0 90 90" xmlns="http://www.w3.org/2000/svg"><defs><linearGradient x1="84.011%" y1="61.326%" x2="25.682%" y2="-5.258%" id="a"><stop stop-color="#BFE8FF" offset="0%"/><stop stop-color="#BFABFF" offset="30.7%"/><stop stop-color="#7341FF" offset="100%"/></linearGradient><linearGradient x1="94.262%" y1="17.175%" x2="6.124%" y2="87.293%" id="b"><stop stop-color="#6D4AFF" offset="0%"/><stop stop-color="#57A9FF" offset="100%"/></linearGradient></defs><g fill="none"><path fill="#FFF" d="M0 0h90v90H0z"/><path d="M6 0a6 6 0 0 0-6 6v2l2 2v34l40-20 2 2h12V6a6 6 0 0 0-6-6H6Z" fill="url(#a)" transform="translate(17 23)"/><path d="M39.286 8H0v32.238A5.76 5.76 0 0 0 5.762 46H26l10.502-15.754A6.822 6.822 0 0 1 42.82 26H44V12.714A4.714 4.714 0 0 0 39.286 8Z" fill="url(#b)" transform="translate(17 23)"/><path d="M43 69v-2.15a5 5 0 0 1 1.204-3.254L54.31 51.802a6.84 6.84 0 0 1 .69-.806l-.69.806A6.788 6.788 0 0 0 53 55.82V69H43Z" fill="#B8D7FF"/><path d="M58.2 61.772h2.04c.182.73.853 1.229 1.604 1.192.924-.002 1.532-.506 1.532-1.246s-.632-1.15-1.886-1.15h-.81v-1.666h.704c1.212 0 1.708-.446 1.708-1.11 0-.662-.538-1.12-1.284-1.12-.331-.02-.658.09-.91.306-.252.215-.41.52-.438.85h-1.97c.07-1.16.994-2.828 3.308-2.828 1.856 0 3.14 1.05 3.14 2.528a2.2 2.2 0 0 1-.432 1.32c-.284.382-.68.67-1.134.81v.03a2.234 2.234 0 0 1 1.844 2.27c0 1.602-1.48 2.66-3.39 2.66-2.028.01-3.48-1.134-3.626-2.848v.002Zm10.584-6.612h1.486v9.322h-1.918V57.33l-1.846 1.244V56.69l2.28-1.53h-.002Z" fill="#8F69FF"/></g></svg>