<svg xmlns="http://www.w3.org/2000/svg" viewBox="0 0 90 90"><path d="M0 0h90v90H0z"/><path fill="#FFF" d="M77.54 27.84a9.63 9.63 0 00-4.74-2.35c-3.95-.6-7.95-.84-11.94-.7h-9.13v41.28H67.1c2.19.05 4.38-.09 6.54-.41a9.13 9.13 0 003.66-1.5c.99-.7 1.72-1.74 2.06-2.92.52-2.44.71-4.94.6-7.44V39.34c.07-2.62-.06-5.24-.4-7.84-.3-1.4-1-2.67-2.03-3.66zm-9.76 25.18c0 2.75-.21 4.44-.61 5.06-.4.63-1.48.93-3.25.93V31.84a6.7 6.7 0 012.72.37c.47.22.81.65.93 1.16.19 1.2.26 2.4.2 3.6v16.05zM48.56 38.37c-.35-.5-.82-.88-1.37-1.12a4.72 4.72 0 00-1.91-.37 4.58 4.58 0 00-1.97.4 3.47 3.47 0 00-1.89 2.75l-.08 3.04v2.43l.09 3.07c.07.58.29 1.14.62 1.63.34.5.82.88 1.37 1.1.6.27 1.25.4 1.9.39.68.01 1.35-.12 1.97-.4a3.5 3.5 0 001.89-2.77l.09-3.02v-2.4l-.1-3.08a3.42 3.42 0 00-.61-1.65zm-2.74 9c.02.52-.01 1.05-.1 1.58a.43.43 0 01-.46.34.43.43 0 01-.44-.3 8 8 0 01-.14-1.48v-6.66c-.03-.44.01-.88.14-1.3a.48.48 0 01.42-.23.4.4 0 01.42.28c.1.43.13.87.1 1.3l.06 6.47zM33.09 25.84A19.2 19.2 0 0024.25 24c-2.4-.05-4.78.36-7.03 1.19a11.4 11.4 0 00-4.78 3.24 8.77 8.77 0 00-2.06 4.3c-.28 2.2-.4 4.43-.35 6.66v12.03a27.6 27.6 0 001.12 9.13 8.73 8.73 0 004.61 4.72 20.02 20.02 0 008.83 1.7c3.02.1 6-.59 8.67-2a9.67 9.67 0 004.53-4.74 27.96 27.96 0 001.04-9.08v-1.6H26.65v5.22a13 13 0 01-.43 4.3 1.74 1.74 0 01-1.78.94c-.74.1-1.46-.26-1.82-.92-.35-1.27-.49-2.6-.4-3.91v-19.2c-.09-1.37.05-2.74.4-4.07.27-.62.9-.94 1.91-.94.68-.1 1.35.2 1.73.77.35 1.28.48 2.6.39 3.92v7.17h12.19v-3.92c.16-2.88-.2-5.76-1.05-8.51a9.19 9.19 0 00-4.66-4.57h-.04z"/></svg>