<svg viewBox="0 0 90 90" xmlns="http://www.w3.org/2000/svg"><g fill="none" fill-rule="evenodd"><path fill="#FFF" fill-rule="nonzero" d="M0 0h90v90H0z"/><g fill-rule="nonzero"><path d="M78.826 33.395a6312.039 6312.039 0 0 1-5.43 9.38 1.228 1.228 0 0 1-1.117.628c-1.056-.014-2.115.033-3.17-.024-2.57-.026-5.14 0-7.709-.015a1.11 1.11 0 0 1-.977-.598 9260.111 9260.111 0 0 1-5.436-9.388 1.127 1.127 0 0 1 .024-1.232c1.792-3.099 3.587-6.198 5.385-9.298.18-.385.566-.634.992-.64 2.654-.011 5.309 0 7.964 0 1.016-.014 2.034 0 3.05-.007.434-.04.828.268 1.017.636l5.376 9.295c.263.377.274.875.027 1.263h.004Z" fill="#FE4342"/><path d="m73.42 22.837 5.375 9.295c.263.377.274.875.027 1.263h.004a6312.039 6312.039 0 0 1-5.43 9.38 1.228 1.228 0 0 1-1.117.628c-.946-.012-1.895.024-2.84-.01.376-.055.71-.28.899-.617 1.813-3.127 3.623-6.254 5.43-9.38a1.147 1.147 0 0 0-.031-1.264l-5.376-9.295c-.162-.315-.473-.585-.832-.632l-.177.002c1.016-.013 2.034 0 3.05-.006.434-.04.828.268 1.017.636Z" fill="#D81C4E"/><path d="M69.846 26.639c-.847.07-1.314 1.206-.722 1.833.478.658 1.613.5 1.91-.247.379-.762-.346-1.742-1.193-1.586h.005Z" fill="#D81C4E"/></g><path d="M57.418 45.593a6312.039 6312.039 0 0 1-5.43 9.38 1.228 1.228 0 0 1-1.116.627c-1.057-.013-2.116.033-3.17-.024-2.57-.026-5.141 0-7.71-.015a1.11 1.11 0 0 1-.977-.598c-1.812-3.126-3.624-6.256-5.436-9.388a1.127 1.127 0 0 1 .024-1.231c1.792-3.1 3.587-6.199 5.385-9.299.181-.385.566-.633.992-.64 2.655-.011 5.309 0 7.965 0 1.016-.014 2.033 0 3.049-.007.434-.039.828.268 1.017.636l5.376 9.295c.264.377.274.875.027 1.264h.004Z" fill="#0396FD" fill-rule="nonzero"/><path d="m52.011 35.034 5.376 9.295c.264.377.274.875.027 1.264h.004a6312.039 6312.039 0 0 1-5.43 9.38 1.228 1.228 0 0 1-1.116.627c-.947-.012-1.895.024-2.841-.01.376-.055.71-.28.9-.617 1.813-3.127 3.623-6.254 5.429-9.38a1.147 1.147 0 0 0-.031-1.264l-5.376-9.295c-.162-.315-.473-.585-.831-.632l-.177.003c1.016-.014 2.033 0 3.049-.007.434-.039.828.268 1.017.636Z" fill="#0077F4" fill-rule="nonzero"/><path d="M49.89 45.687c-.971.294-.905 1.788 0 2.107.724.304 1.547-.307 1.558-1.063.038-.78-.85-1.36-1.558-1.044Zm-.982-2.534c.699.549 1.822-.048 1.78-.927.036-.753-.807-1.328-1.5-1.058-.875.225-1.031 1.523-.284 1.985h.004Z" fill="#0183F7"/><g fill-rule="nonzero"><path d="M57.418 21.198a6312.039 6312.039 0 0 1-5.43 9.38 1.228 1.228 0 0 1-1.116.627c-1.057-.013-2.116.034-3.17-.024-2.57-.025-5.141 0-7.71-.014a1.11 1.11 0 0 1-.977-.598c-1.812-3.127-3.624-6.256-5.436-9.388a1.127 1.127 0 0 1 .024-1.232c1.792-3.099 3.587-6.198 5.385-9.298.181-.385.566-.634.992-.641 2.655-.01 5.309 0 7.965 0 1.016-.013 2.033 0 3.049-.007.434-.039.828.268 1.017.637 1.792 3.096 3.584 6.194 5.376 9.294.264.378.274.876.027 1.264h.004Z" fill="#BDF7E8"/><path d="M52.011 10.64c1.792 3.096 3.584 6.194 5.376 9.294.264.378.274.876.027 1.264h.004a6312.039 6312.039 0 0 1-5.43 9.38 1.228 1.228 0 0 1-1.116.627c-.947-.012-1.895.025-2.841-.009.376-.055.71-.28.9-.618 1.813-3.127 3.623-6.253 5.429-9.38a1.147 1.147 0 0 0-.031-1.264c-1.792-3.1-3.584-6.198-5.376-9.294-.162-.315-.473-.585-.831-.633l-.177.003c1.016-.013 2.033 0 3.049-.007.434-.039.828.268 1.017.637Z" fill="#AAEFDA"/></g><g fill-rule="nonzero"><path d="M36.01 33.395a6312.039 6312.039 0 0 1-5.43 9.38 1.228 1.228 0 0 1-1.116.628c-1.056-.014-2.115.033-3.17-.024-2.57-.026-5.141 0-7.71-.015a1.11 1.11 0 0 1-.976-.598c-1.813-3.127-3.625-6.256-5.437-9.388a1.127 1.127 0 0 1 .024-1.232c1.792-3.099 3.587-6.198 5.386-9.298.18-.385.565-.634.992-.64 2.654-.011 5.308 0 7.964 0 1.016-.014 2.033 0 3.05-.007.433-.04.827.268 1.017.636a16232.2 16232.2 0 0 1 5.375 9.295c.264.377.274.875.027 1.263h.004Z" fill="#FE8834"/><path d="M30.604 22.837a16232.2 16232.2 0 0 1 5.375 9.295c.264.377.274.875.027 1.263h.004a6312.039 6312.039 0 0 1-5.43 9.38 1.228 1.228 0 0 1-1.116.628c-.947-.012-1.895.024-2.841-.01.376-.055.71-.28.9-.617 1.813-3.127 3.623-6.254 5.43-9.38a1.147 1.147 0 0 0-.032-1.264l-5.376-9.295c-.162-.315-.473-.585-.831-.632l-.177.002c1.016-.013 2.033 0 3.05-.006.433-.04.827.268 1.017.636Z" fill="#FE711A"/></g><path d="M36.01 57.79a6312.039 6312.039 0 0 1-5.43 9.38 1.228 1.228 0 0 1-1.116.627c-1.056-.013-2.115.034-3.17-.024-2.57-.025-5.141 0-7.71-.015a1.11 1.11 0 0 1-.976-.597 10133.5 10133.5 0 0 1-5.437-9.389 1.127 1.127 0 0 1 .024-1.231c1.792-3.1 3.587-6.199 5.386-9.299.18-.384.565-.633.992-.64 2.654-.01 5.308 0 7.964 0 1.016-.013 2.033 0 3.05-.007.433-.039.827.268 1.017.637 1.792 3.096 3.584 6.194 5.375 9.294.264.378.274.876.027 1.264h.004Z" fill="#FE4342" fill-rule="nonzero"/><path d="M30.604 47.232c1.792 3.096 3.584 6.194 5.375 9.294.264.378.274.876.027 1.264h.004a6312.039 6312.039 0 0 1-5.43 9.38 1.228 1.228 0 0 1-1.116.627c-.947-.012-1.895.025-2.841-.01.376-.054.71-.28.9-.617 1.813-3.127 3.623-6.253 5.43-9.38a1.147 1.147 0 0 0-.032-1.264c-1.792-3.1-3.584-6.198-5.376-9.294-.162-.315-.473-.585-.831-.633l-.177.003c1.016-.013 2.033 0 3.05-.007.433-.039.827.268 1.017.637Z" fill="#D81C4E" fill-rule="nonzero"/><path d="M18.262 55.176c-.703.338-.839 1.406-.215 1.887.629.574 1.795.134 1.852-.72.145-.86-.868-1.592-1.64-1.167h.003Zm3.43-4.128c-.816.268-.978 1.494-.27 1.963.607.485 1.626.134 1.773-.635.272-.84-.698-1.692-1.506-1.328h.003Z" fill="#D81C4E"/><g fill-rule="nonzero"><path d="M57.418 69.987a6312.039 6312.039 0 0 1-5.43 9.38 1.228 1.228 0 0 1-1.116.628c-1.057-.014-2.116.033-3.17-.025-2.57-.025-5.141 0-7.71-.014a1.11 1.11 0 0 1-.977-.598c-1.812-3.127-3.624-6.256-5.436-9.388a1.127 1.127 0 0 1 .024-1.232c1.792-3.099 3.587-6.198 5.385-9.298.181-.385.566-.634.992-.64 2.655-.011 5.309 0 7.965 0 1.016-.014 2.033 0 3.049-.007.434-.04.828.268 1.017.636 1.792 3.096 3.584 6.195 5.376 9.295.264.377.274.875.027 1.263h.004Z" fill="#BDF7E8"/><path d="M52.011 59.43c1.792 3.095 3.584 6.194 5.376 9.294.264.377.274.875.027 1.263h.004a6312.039 6312.039 0 0 1-5.43 9.38 1.228 1.228 0 0 1-1.116.628c-.947-.012-1.895.024-2.841-.01.376-.055.71-.28.9-.618 1.813-3.126 3.623-6.253 5.429-9.38a1.147 1.147 0 0 0-.031-1.263c-1.792-3.1-3.584-6.199-5.376-9.295-.162-.315-.473-.585-.831-.632l-.177.002c1.016-.013 2.033 0 3.049-.006.434-.04.828.268 1.017.636Z" fill="#AAEFDA"/></g></g></svg>