<svg viewBox="0 0 90 90" xmlns="http://www.w3.org/2000/svg"><path d="m79.096 79 5.24-2.221.664 1.11zm3.985-4.442-10.184 3.406 9.151-5.183zm-3.69-6.218 1.402 2.368-12.324 5.405zm-3.395-5.85 2.067 3.554-14.17 8.588zm-4.206-7.107 3.025 5.108-15.424 12.882zm-5.166-8.884 4.206 7.181-15.645 18.805zm-6.421-10.883 5.609 9.476-14.539 26.949zm-.886-1.481L48.173 72.263l3.174-51.75zM39.834 19.106 45.22 10l5.314 9.18-4.797 53.601zM32.97 30.878l6.126-10.44 4.428 53.232zm-4.428 7.552 3.617-6.22 9.594 42.348zm7.971 40.126H5L21.015 51.31zm1.845-1.555-16.531-27.17 2.287-3.924zm1.697-1.333L25 44.426l2.73-4.664z" fill="#00659E"/></svg>