<svg viewBox="0 0 90 90" xmlns="http://www.w3.org/2000/svg"><defs><linearGradient x1="100%" y1="50%" x2="0%" y2="50%" id="a"><stop stop-color="#2A2942" offset="0%"/><stop stop-color="#121426" offset="100%"/></linearGradient></defs><g fill="none" fill-rule="evenodd"><path fill="url(#a)" d="M0 0h90v90H0z"/><path d="M70.527 26.397a2.216 2.216 0 0 1 3.074.54c.254.36.393.785.399 1.223v34.646c0 .582-.232 1.14-.645 1.551a2.212 2.212 0 0 1-1.56.643H18.2a2.202 2.202 0 0 1-1.804-.934Zm-53.324-.157c.727-.37 1.6-.309 2.27.157l22.298 15.497L16 62.874V28.16a2.192 2.192 0 0 1 1.203-1.92Z" fill="#7856FF" fill-rule="nonzero"/></g></svg>