<svg viewBox="0 0 90 90" xmlns="http://www.w3.org/2000/svg"><g fill="none"><path d="m83.053 89.37.387-33.637H64.67c-1.478 4.075-5.628 6.828-10.633 6.828-2.638 0-5.458-.622-7.743-1.995-2.978-1.79-5.203-3.915-7.036-7.69-1.442-3.495-2.545-7.773-2.673-11.558.44-7.485 2.714-10.154 6.878-13.241.923-.684 3.502-1.232 4.245-1.235 1.636-.008 3 .984 3.738 2.447 1.075 2.127-.498 4.704-2.054 6.537L64.567 46.28l23.437-24.524C79.827 8.724 64.886 0 47.81 0 21.957 0 1 19.998 1 44.666 1 69.334 21.287 87.989 47.81 90l35.359-.158c.02-29.569-1.198-27.314-.117-.472h.001Z" fill="#0C4DA2"/><path d="M47.778 8.388c-21.31.134-38.717 15.658-38.717 35.965 0 20.306 19.214 37.75 42.473 37.226l22.6.063V63.85h-4.268c-1.341 3.355-7.605 6.636-12.147 6.636-2.393 0-8.418-.325-10.647-1.106-3.935-1.378-9.55-3.356-14.432-11.561-1.308-2.877-4.992-9.886-4.169-20.11.399-6.163 4.313-13.856 11.337-17.34 3.063-1.519 6.147-1.768 11.56-1.277 3.887.353 7.749 3.086 9.097 6.366 1.043 2.537.743 5.628-.484 7.389a.448.448 0 0 0-.071.356c.013.092.132.244.132.244l2.139 1.67s.609.424 1.32.405c.414-.01 1.152-.46 1.152-.46l12.217-12.82C69.317 12.05 55.894 8.388 47.777 8.388h.001Z" fill="#FFCB08"/></g></svg>