<svg viewBox="0 0 90 90" xmlns="http://www.w3.org/2000/svg" xmlns:xlink="http://www.w3.org/1999/xlink"><defs><path d="m81.515 24.145.762.778.04-.038c10.62 11.668-11.513 32.609-44.763 54.631l-1.005.663-.002.005-.045.027c-.601.374-7.284 4.524-15.918 9.789H1.324c.903-.74 1.812-1.491 2.723-2.247l1.225-1.018c9.185-7.651 18.31-15.647 21.58-19.777l.216-.278.283-.368c8.421-11.013 10.082-20.331 2.693-27.605-5.739-5.649-16.39-9.235-30.04-11.291V13.689c38.584-2.029 70.667.126 81.51 10.456Z" id="a"/></defs><g fill="none" fill-rule="evenodd"><path fill="#FFF" d="M0 0h90v90H0z"/><use fill="#CC2427" xlink:href="#a"/></g></svg>