<svg xmlns="http://www.w3.org/2000/svg" viewBox="0 0 90 90"><path d="M0 0h90v90H0z"/><path fill="#fff" d="M45 15c-16.54 0-30 13.47-30 30.03a30.07 30.07 0 0 0 24.12 29.44h.04l.04.01c1.33.27 2.7.44 4.09.52V24.3c-1 0-2.77.29-4.09.67l-.04.01-.04.01A20.98 20.98 0 0 0 25.1 38.72a14.88 14.88 0 0 0-.87 4.18H35.4v-4.17h-5.87a16.8 16.8 0 0 1 9.58-9.34v40.8a25.9 25.9 0 0 1-19.95-25.17A25.87 25.87 0 0 1 45 19.18a25.87 25.87 0 0 1 25.83 25.86 25.9 25.9 0 0 1-19.66 25.1V29.51a16.72 16.72 0 0 1 9.29 9.22H54.9v4.17h10.84c0-1.25-.4-2.98-.82-4.32a20.73 20.73 0 0 0-9.64-11.71 20.72 20.72 0 0 0-4.12-1.8h-.05A16.87 16.87 0 0 0 47 24.3v50.68c1.4-.1 2.77-.28 4.1-.56l.06-.01A30.08 30.08 0 0 0 75 45.03 30.05 30.05 0 0 0 45 15Zm9.9 43.18v5c5.18-2.38 8.59-7.05 10.12-12.3.4-1.34.73-2.95.73-4.18H54.91v4.18h5.73c-.82 2.85-3.07 5.56-5.73 7.3ZM28.4 46.7h7.02v4.17h-6.05a14.09 14.09 0 0 0 6.05 7.54v4.95a20.02 20.02 0 0 1-10.43-12.5c-.4-1.33-.69-2.77-.73-4.17h4.14Z"/></svg>