<svg viewBox="0 0 90 90" xmlns="http://www.w3.org/2000/svg"><g fill="none" fill-rule="evenodd"><path fill="#453DD8" d="M0 0h90v90H0z"/><g fill="#FFF"><path d="M53.057 18.417a1.93 1.93 0 0 0-1.93 1.928 1.931 1.931 0 0 0 3.86 0 1.931 1.931 0 0 0-1.93-1.928Zm0 8.884a1.93 1.93 0 0 0-1.93 1.928 1.932 1.932 0 0 0 3.86 0 1.931 1.931 0 0 0-1.93-1.928Zm0 8.883a1.93 1.93 0 0 0-1.93 1.927 1.931 1.931 0 0 0 3.86 0 1.931 1.931 0 0 0-1.93-1.927Zm9.073-17.767a1.93 1.93 0 0 0-1.93 1.928 1.932 1.932 0 0 0 3.86 0 1.932 1.932 0 0 0-1.93-1.928Zm0 8.884c-1.064 0-1.93.865-1.93 1.928a1.932 1.932 0 0 0 3.861 0 1.931 1.931 0 0 0-1.93-1.928Zm0 8.883c-1.064 0-1.93.865-1.93 1.927a1.932 1.932 0 0 0 3.861 0 1.931 1.931 0 0 0-1.93-1.927Zm8.912-17.767c-1.064 0-1.93.865-1.93 1.928a1.931 1.931 0 0 0 3.861 0 1.916 1.916 0 0 0-1.93-1.928Zm.001 8.884c-1.064 0-1.93.865-1.93 1.928a1.932 1.932 0 0 0 3.86 0 1.916 1.916 0 0 0-1.93-1.928Zm0 8.883c-1.064 0-1.93.865-1.93 1.927a1.932 1.932 0 0 0 3.86 0 1.924 1.924 0 0 0-1.93-1.927Z" fill-rule="nonzero"/><path d="M17 29.247C17 23.036 22.06 18 28.303 18c6.243 0 11.303 5.036 11.303 11.247V60.18c0 6.211-5.06 11.247-11.303 11.247C22.061 71.427 17 66.39 17 60.18V29.247Zm3.232 30.656c.104-4.467 3.806-8.006 8.262-7.902 4.463.104 7.993 3.817 7.88 8.284-.103 4.467-3.806 8.006-8.261 7.902-4.455-.104-7.985-3.817-7.88-8.284Zm5.377 3.088h5.398v-5.413h-5.398v5.413Zm3.057-41.557c4.457.108 7.99 3.82 7.889 8.29-.101 4.469-3.796 8.004-8.254 7.896-4.458-.108-7.99-3.82-7.889-8.289.1-4.47 3.796-8.005 8.254-7.897ZM50.202 48.24V72H74V48.24H50.202Zm18.963 17.236h-14.12v-2.94h14.12v2.94Zm-14.12-7.784h14.12v-2.94h-14.12v2.94Z"/></g></g></svg>