<svg viewBox="0 0 90 90" xmlns="http://www.w3.org/2000/svg"><g fill="none"><path fill="#FFF" d="M0 0h90v90H0z"/><path d="m23.75 24.893 9.685 43.994c.23.812.725 2.03 1.935 2.829 1.513 1.008 2.657.96 2.909.951h3.429l-5.957 2.22s-.693.273-1.45-.031a2.299 2.299 0 0 1-1.049-.93L17.108 29.512s-.284-.596.07-1.516a1.929 1.929 0 0 1 1.055-1.078l5.518-2.024Zm9.345-7.987v38.64l-7.318-35.043s-.157-.793.297-1.475a2.365 2.365 0 0 1 1.437-1.021l5.584-1.1Zm18.757 31.871a2.24 2.24 0 0 1-1.576-.634l-9.444-9.135c-.842-.977-.873-2.341-.038-3.207L54.87 21.544a.302.302 0 0 0-.006-.432l-3.656-3.536c-.772-.746-.608-1.437-.504-1.7.104-.264.463-.876 1.531-.876l19.508.013A2.263 2.263 0 0 1 74 17.283l-.013 19.254c0 1.132-.712 1.65-1.37 1.65-.284 0-.725-.096-1.198-.55l-3.656-3.533a.357.357 0 0 0-.485 0l-13.81 13.988a2.215 2.215 0 0 1-1.607.675m8.689 19.92-21.184-.02a2.346 2.346 0 0 1-1.67-.693 2.377 2.377 0 0 1-.69-1.682l.015-21.02c0-.84.4-1.51 1.072-1.786.671-.276 1.418-.085 2.004.508l7.595 7.707c1.317 1.339-.677 3.328-1.995 1.99l-5.874-5.954-.013 18.105 18.216.015-2.575-2.499a2.374 2.374 0 0 1-.038-3.362l15.946-16.221c1.314-1.218 3.192.647 1.998 1.986L57.732 61.65l4.06 3.94c.605.587.803 1.342.529 2.017-.271.676-.933 1.079-1.774 1.079" fill="#012169"/></g></svg>