<svg xmlns="http://www.w3.org/2000/svg" viewBox="0 0 90 90"><defs><linearGradient id="A" x1="100%" x2="0%" y1="0%" y2="100%"><stop offset="0%" stop-color="#4967a3"/><stop offset="100%" stop-color="#695e90"/></linearGradient></defs><g fill-rule="evenodd"><path fill="url(#A)" d="M0 0h90v90H0z"/><path fill="#fff" fill-rule="nonzero" d="M68.093 22.786c-.387-.243-.872-.265-1.281-.077l-14.059 6.737L22.9 15.133c-.409-.199-.895-.166-1.281.077-.387.232-.618.663-.618 1.115v35.839c0 .53.32 1.016.817 1.226l15.517 6.494v13.651c0 .453.232.884.618 1.127a1.34 1.34 0 0 0 .707.199c.199 0 .387-.044.574-.133L67.96 60.944c.464-.221.751-.685.751-1.193v-35.85c0-.453-.232-.872-.618-1.115zM23.651 51.28V18.435l26.042 12.491-6.527 3.137-13.397-6.096a1.33 1.33 0 0 0-1.756.663 1.33 1.33 0 0 0 .663 1.756l11.387 5.18-1.966.95c-.464.221-.751.685-.751 1.193v1.579l-7.621-3.07c-.674-.276-1.447.055-1.723.74-.276.674.055 1.447.74 1.723l8.603 3.468v5.412l-7.621-3.07c-.674-.276-1.447.055-1.723.74-.276.674.055 1.447.74 1.723l8.603 3.468v6.604L23.651 51.28zm42.41 7.632L39.985 71.425V49.48v-8.272-2.684l26.075-12.513v32.901zM44.359 44.908c-.32-.663-.044-1.447.618-1.767l14.943-7.223c.663-.32 1.447-.044 1.767.618s.044 1.447-.618 1.767l-14.943 7.223a1.36 1.36 0 0 1-.574.133 1.31 1.31 0 0 1-1.193-.751zm0 8.272c-.32-.663-.044-1.447.618-1.767L59.92 44.19c.663-.32 1.447-.044 1.767.618s.044 1.447-.618 1.767l-14.943 7.223a1.36 1.36 0 0 1-.574.133 1.31 1.31 0 0 1-1.193-.751zm0 8.272c-.32-.663-.044-1.447.618-1.767l14.943-7.223c.663-.32 1.447-.044 1.767.618s.044 1.447-.618 1.767l-14.943 7.223a1.36 1.36 0 0 1-.574.133 1.31 1.31 0 0 1-1.193-.751z"/></g></svg>