<svg viewBox="0 0 90 90" xmlns="http://www.w3.org/2000/svg"><g fill="none" fill-rule="evenodd"><path fill="#FFF" d="M0 0h90v90H0z"/><path stroke="#000" stroke-width="2.168" d="M80 30H10v30h70z"/><path d="M24.991 51.493a5.469 5.469 0 0 1-3.942-1.665 5.68 5.68 0 0 1-1.603-4.03c0-3.613 2.98-5.736 5.65-5.736 1.911 0 3.698.73 4.653 2.434l-1.786 1.06a3.345 3.345 0 0 0-2.83-1.534c-1.572 0-3.442 1.256-3.442 3.745 0 2.433 1.786 3.764 3.582 3.764a3.312 3.312 0 0 0 2.911-1.82l1.828.867c-1.03 1.9-2.876 2.915-5.02 2.915Zm11.625-2.059c2.038 0 3.439-1.557 3.439-3.65 0-2.094-1.402-3.65-3.439-3.65s-3.487 1.537-3.487 3.615c0 2.106 1.404 3.685 3.487 3.685Zm-.215 2.059c-3.227 0-5.524-2.49-5.524-5.717 0-3.29 2.276-5.714 5.524-5.714 1.49 0 2.925.64 3.613 1.623v-1.34h2.207v10.844h-2.207v-1.344c-.723.976-2.125 1.648-3.613 1.648Zm16.968-.309V42.44h-1.698v-2.167h1.72v-3.204h2.274v3.205h2.357v2.166h-2.357v8.743h-2.296v.001Zm11.16-1.75c2.036 0 3.44-1.557 3.44-3.65 0-2.094-1.404-3.65-3.441-3.65s-3.484 1.537-3.484 3.615c0 2.106 1.402 3.685 3.484 3.685Zm-.216 2.059c-3.229 0-5.521-2.49-5.521-5.717 0-3.29 2.273-5.714 5.521-5.714 1.49 0 2.926.64 3.614 1.623v-1.34h2.209v10.844h-2.209v-1.344c-.723.976-2.125 1.648-3.614 1.648Zm-19.819-.322V40.327h2.103v1.884c.434-1.217 1.353-2.056 2.572-2.056.264-.005.528.025.785.088v2.097c-1.715-.202-3.164 1.02-3.164 3.81v5.021h-2.295Z" fill="#000" fill-rule="nonzero"/></g></svg>