<svg viewBox="0 0 90 90" xmlns="http://www.w3.org/2000/svg"><g fill="none" fill-rule="evenodd"><path fill="#00D54B" fill-rule="nonzero" d="M0 0h90v90H0z"/><path d="M59.436 33.857a18.765 18.765 0 0 0-12.133-4.48c-3.66 0-7.322 1.22-7.322 4.606 0 3.087 3.26 4.296 7.275 5.784.39.144.786.29 1.187.442 7.94 2.693 14.477 5.995 14.477 13.82 0 8.498-6.559 14.303-17.29 14.966l-.973 4.554a1.833 1.833 0 0 1-1.8 1.451h-6.746a1.86 1.86 0 0 1-1.413-.707 1.88 1.88 0 0 1-.365-1.544l1.046-4.806a24.764 24.764 0 0 1-10.826-5.963 1.825 1.825 0 0 1 0-2.619l3.745-3.68a1.811 1.811 0 0 1 2.552 0 18.001 18.001 0 0 0 12.75 5.016c4.885 0 8.2-2.083 8.2-5.385 0-2.986-2.718-3.986-7.877-5.883-.547-.201-1.122-.413-1.724-.638-6.632-2.376-12.908-5.773-12.908-13.672 0-9.14 7.594-13.598 16.548-14.04l.941-4.638A1.833 1.833 0 0 1 48.57 15h6.725a1.816 1.816 0 0 1 1.415.671c.347.427.484.987.374 1.527l-1.046 5.185a27.66 27.66 0 0 1 9.34 5.259 1.802 1.802 0 0 1 .095 2.64l-3.494 3.523c-.7.692-1.815.715-2.542.052Z" fill="#FFF"/></g></svg>