<svg viewBox="0 0 90 90" xmlns="http://www.w3.org/2000/svg"><defs><linearGradient x1="50%" y1="0%" x2="50%" y2="100%" id="a"><stop stop-color="#2945C1" offset="0%"/><stop stop-color="#021E97" offset="100%"/></linearGradient></defs><g fill="none" fill-rule="evenodd"><path fill="url(#a)" d="M0 0h90v90H0z"/><path d="M45 24c11.598 0 21 9.402 21 21s-9.402 21-21 21-21-9.402-21-21 9.402-21 21-21Zm0 8c-7.18 0-13 5.82-13 13s5.82 13 13 13 13-5.82 13-13-5.82-13-13-13Z" fill="#FFF" fill-rule="nonzero"/><path d="M56 62.892V71h-7v-5.38a20.87 20.87 0 0 0 7-2.728Zm-22.001 0A20.87 20.87 0 0 0 41 65.62V71h-7ZM41 19v5.38a20.87 20.87 0 0 0-7.001 2.729L34 19h7Zm15 0v8.108a20.87 20.87 0 0 0-7-2.728V19h7Zm1 7h9v39h-9z" fill="#FFF"/></g></svg>