<svg viewBox="0 0 90 90" xmlns="http://www.w3.org/2000/svg"><g fill="none" fill-rule="evenodd"><path fill="#FFF" d="M0 0h90v90H0z"/><g fill-rule="nonzero"><path d="M41.691 24.714c-.2.603-1.002 1.004-1.604.804l-9.626-3.415c-.601-.2-1.002-1.004-.802-1.607l3.41-9.64c.2-.603 1.002-1.005 1.603-.804l9.626 3.415c.602.2 1.003 1.004.802 1.606l-3.409 9.641" fill="#B2D0E1"/><path d="M59.539 41.586c-.2.602-1.003 1.004-1.605.803l-9.625-3.414c-.602-.201-1.003-1.005-.802-1.607l3.409-9.641c.2-.603 1.002-1.004 1.604-.803l9.626 3.414c.601.2 1.002 1.004.802 1.607l-3.41 9.64m-19.251 9.039c-.2.602-1.002 1.004-1.604.803l-9.625-3.414c-.602-.201-1.003-1.005-.803-1.607l3.41-9.64c.2-.603 1.002-1.005 1.604-.804l9.625 3.414c.602.201 1.003 1.004.803 1.607l-3.41 9.64" fill="#72AAC9"/><path d="M58.135 65.085c-.2.602-1.003 1.004-1.604.803l-9.626-3.414c-.602-.201-1.003-1.004-.802-1.607l3.409-9.64c.2-.603 1.003-1.005 1.604-.804l9.626 3.414c.602.201 1.003 1.005.802 1.607l-3.409 9.64" fill="#3383B1"/><path d="M53.322 79.144c-.2.603-1.002 1.005-1.604.804l-9.626-3.415c-.601-.2-1.002-1.004-.802-1.606l3.41-9.641c.2-.603 1.002-1.004 1.603-.804l9.626 3.415c.602.2 1.003 1.004.802 1.607l-3.409 9.64" fill="#00649E"/><path d="M39.084 74.123c-.2.603-1.002 1.004-1.604.804l-9.626-3.415c-.601-.2-1.002-1.004-.802-1.607l3.41-9.64c.2-.603 1.002-1.005 1.604-.804l9.625 3.415c.602.2 1.003 1.004.802 1.606l-3.409 9.641" fill="#3383B1"/></g></g></svg>