<svg xmlns="http://www.w3.org/2000/svg" viewBox="0 0 90 90"><path fill="#002265" d="M0 0h90v90H0z"/><path d="M54.668 34.992c.78-.63 3.434.946 5.932 3.783 7.962 9.14 7.025 22.853-2.186 30.89-9.054 7.88-22.793 6.935-30.598-2.206-2.498-2.837-3.123-5.043-2.186-5.831.937-.788 2.186 1.103 4.684 2.206 4.37 1.891 9.21 2.207 13.738.788 10.147-3.31 15.767-14.185 12.489-24.271-.78-2.365-2.654-4.729-1.873-5.359ZM30.47 20.334c9.054-7.88 22.792-6.934 30.598 2.207 2.498 2.837 3.123 5.043 2.186 5.831-.937.788-2.186-1.103-4.684-2.206-4.37-1.891-9.21-2.207-13.738-.788-10.147 3.31-15.767 14.185-12.489 24.271.78 2.365 2.654 4.729 1.873 5.359-.78.63-3.434-.946-5.932-3.783-7.806-9.14-6.87-22.853 2.186-30.89Zm14.05 16.55c3.122 0 5.776 3.309 5.776 7.564 0 4.256-2.654 7.566-5.776 7.566-3.278 0-5.776-3.31-5.776-7.566 0-4.255 2.654-7.565 5.776-7.565Z" fill="#FFF"/></svg>