<?xml version="1.0" encoding="UTF-8"?>
<svg width="90px" height="90px" viewBox="0 0 90 90" version="1.1" xmlns="http://www.w3.org/2000/svg" xmlns:xlink="http://www.w3.org/1999/xlink">
    <title>celsius.network</title>
    <defs>
        <linearGradient x1="100%" y1="0%" x2="0%" y2="100%" id="linearGradient-1">
            <stop stop-color="#F8CA5F" offset="0%"></stop>
            <stop stop-color="#F47205" offset="100%"></stop>
        </linearGradient>
    </defs>
    <g id="celsius" stroke="none" stroke-width="1" fill="none" fill-rule="evenodd">
        <rect id="Rectangle" fill="url(#linearGradient-1)" x="0" y="0" width="90" height="90"></rect>
        <g id="logo" transform="translate(20.000000, 21.000000)" fill="#FFFFFF" fill-rule="nonzero">
            <path d="M42.3147626,40.1090617 C37.7114226,45.1130713 31.1575147,48 24.3695385,48 L24.3305271,48 C17.425517,48 10.8325977,45.0745789 6.22925747,39.9935845 C1.54789468,34.8356053 -0.597729968,28.2149158 0.143485824,21.3247795 C1.35283789,10.3159583 10.32545,1.42421812 21.4826981,0.153969529 C22.4189706,0.0384923822 23.3942546,0 24.3305271,0 C29.7140945,0 34.8635934,1.73215716 39.1548428,5.00400967 C39.4279222,5.19647158 39.5839678,5.5044105 39.5839678,5.85084204 C39.5839678,6.19727341 39.4669337,6.5052125 39.1938542,6.73616686 L36.6191045,9.00721734 C36.3460251,9.23817153 35.9949229,9.39214116 35.6048093,9.39214116 C35.2927184,9.39214116 34.9806275,9.31515643 34.7465595,9.12269452 C31.6646622,7.0056135 28.0366061,5.88933432 24.3305271,5.88933432 C19.1030053,5.88933432 14.1095516,8.12189252 10.6375409,11.9711307 C7.12651873,15.8588612 5.48804175,20.9013632 6.11222336,26.0978348 C7.04849605,34.3736968 13.8364722,41.0713712 22.2629253,41.9951883 C22.9651296,42.0721732 23.6673341,42.1106655 24.3695385,42.1106655 C29.2849695,42.1106655 33.8883095,40.1860464 37.3993317,36.7217322 C37.6724111,36.4522853 38.0625247,36.2598234 38.4916497,36.2598234 C38.7647292,36.2598234 39.0768201,36.3368083 39.3108881,36.4907778 L42.1587173,38.3384122 C42.4317967,38.5308741 42.6268535,38.8003207 42.6658649,39.1467521 C42.6658649,39.5316759 42.5488308,39.8781075 42.3147626,40.1090617 Z M44.1092851,9.77706499 C47.3472277,9.77706499 50,12.3945468 50,15.5894146 C50,18.7842822 47.3472277,21.4017642 44.1092851,21.4017642 C40.8713424,21.4017642 38.2185703,18.7842822 38.2185703,15.5894146 C38.2185703,12.3945468 40.8713424,9.77706499 44.1092851,9.77706499 Z M44.1092851,13.6647955 C43.0320162,13.6647955 42.1587173,14.5264768 42.1587173,15.5894146 C42.1587173,16.6523524 43.0320162,17.5140337 44.1092851,17.5140337 C45.186554,17.5140337 46.059853,16.6523524 46.059853,15.5894146 C46.059853,14.5264768 45.186554,13.6647955 44.1092851,13.6647955 Z" id="Shape"></path>
        </g>
    </g>
</svg>