<svg viewBox="0 0 90 90" xmlns="http://www.w3.org/2000/svg"><g fill="none" fill-rule="evenodd"><path fill="#0190DE" fill-rule="nonzero" d="M0 0h90v90H0z"/><path d="M65.849 20H36.988C28.743 20 22 26.729 22 34.95c0 8.223 6.743 14.952 14.988 14.952h16.019c2.839 0 5.156 2.316 5.156 5.147 0 2.831-2.317 5.148-5.156 5.148l-28.867-.11V70h28.867C61.252 70 68 63.271 68 55.05c0-8.223-6.748-14.952-14.993-14.952H36.982c-2.839 0-5.157-2.316-5.157-5.147 0-2.831 2.318-5.148 5.157-5.148l28.867.11V20Z" fill="#FFF"/></g></svg>