<svg viewBox="0 0 90 90" xmlns="http://www.w3.org/2000/svg"><g fill="none"><path d="M8.482 19.944 41.518.94a6.922 6.922 0 0 1 6.964 0l33.02 19.004A6.94 6.94 0 0 1 85 25.983v38.009a6.969 6.969 0 0 1-3.497 6.038l-33.02 19.035a6.998 6.998 0 0 1-6.965 0L8.482 70.015A6.984 6.984 0 0 1 5 63.977v-38.01a6.956 6.956 0 0 1 3.482-6.023Z" fill="#4C459C"/><path d="M67.271 31.22 45.606 18.753A.41.41 0 0 0 45 19.1v34.794l23.058-8.347V32.594a1.584 1.584 0 0 0-.787-1.373Z" fill="#FFF"/><path d="M6.257 67.932a6.88 6.88 0 0 0 2.225 2.083l33.036 19.05a6.952 6.952 0 0 0 6.964 0l19.576-11.321V45.546L6.257 67.932Z" fill="#00B5A9"/></g></svg>