<svg xmlns="http://www.w3.org/2000/svg" viewBox="0 0 90 90" fill-rule="evenodd" xmlns:v="https://vecta.io/nano"><path fill="#1b2434" d="M0 0h90v90H0z"/><path fill="#00bcca" fill-rule="nonzero" d="M70.953 15.047v7.5H41c-6 0-11.672 2.344-15.891 6.563S18.547 39 18.547 45s2.344 11.672 6.563 15.891S35 67.453 40.953 67.453h0 30v7.5H41.563c-.187 0-.375.047-.562.047-8.016 0-15.562-3.141-21.187-8.766-5.672-5.672-8.766-13.172-8.766-21.187s3.094-15.562 8.719-21.234c5.672-5.625 13.219-8.766 21.187-8.766h0 30zM50.516 28.172l7.453 7.5H41.516c-.187 0-.375.047-.562.047-5.156 0-9.328 4.172-9.328 9.328 0 5.109 4.219 9.328 9.375 9.328h0 16.875l-7.547 7.5H41c-9.281 0-16.875-7.547-16.875-16.828 0-9.094 7.219-16.5 16.266-16.828.188-.047.375-.047.609-.047h9.516zm20.438 26.203v7.5H57.781l7.547-7.5h5.625zM63.594 41.25L67.297 45 63.5 48.75H41c-2.062 0-3.75-1.687-3.75-3.75A3.73 3.73 0 0 1 41 41.25h0 22.594zm7.359-13.078v7.5h-5.531l-7.453-7.5h12.984z"/></svg>