<svg xmlns="http://www.w3.org/2000/svg" viewBox="0 0 90 90"><path fill="#FFF" d="M0 0h90v90H0z"/><path d="M51.734 51.19C75.503 40.075 64.419 12 64.419 12c-48.047 0-41.065 41.122-41.065 41.122l26.13.007c4.354 2.243 9.228 9.88 3.901 16.685-2.79 3.564-8.153 3.802-11.571.838-1.389-1.2-4.22-5.404-1.004-9.746 2.489-3.357 7.06-1.962 8.471-.536.583.589.697 1.49.152 2.11a1.482 1.482 0 0 1-1.023.517 1.497 1.497 0 0 1-1.09-.359c-.562-.491-2.461-1.297-3.938.283-.707.758-1.807 3.256.391 5.463 2.026 2.038 5.519 1.688 7.348-.53 3.429-4.157.69-8.52-.699-9.727-3.747-3.243-9.23-2.648-12.67.916-3.034 3.135-2.542 7.695-2.22 9.045 1.718 7.157 9.113 11.614 16.089 9.295C64 73.263 68.638 56.878 64.034 44.843a16.616 16.616 0 0 1-5.45 4.498 16.825 16.825 0 0 1-6.85 1.849ZM35.99 42.516c-3.803-5.317-2.635-12.75 2.613-16.605 5.245-3.853 12.58-2.67 16.385 2.648 3.803 5.317 2.634 12.748-2.613 16.603-5.245 3.855-12.582 2.669-16.385-2.646Zm5.17-2.116c.225.309.51.57.837.77a2.948 2.948 0 0 0 2.217.352 2.948 2.948 0 0 0 1.04-.472 2.898 2.898 0 0 0 .654-4.068 2.916 2.916 0 0 0-1.913-1.166 2.964 2.964 0 0 0-2.185.518 2.915 2.915 0 0 0-1.174 1.9c-.122.762.067 1.54.524 2.166Z" fill="#23C55E"/></svg>