<svg viewBox="0 0 90 90" xmlns="http://www.w3.org/2000/svg"><g fill="none" fill-rule="evenodd"><path fill="#181C1F" d="M0 0h90v90H0z"/><path d="M29.078 48.701a69.57 69.57 0 0 0-2.173 5.517 48.987 48.987 0 0 0-1.675 5.56c-.498 1.974-1.131 3.902-1.991 5.83-.453.943-.951 1.84-1.494 2.736a42.66 42.66 0 0 0 4.12.18c2.353-.045 4.707-.18 7.015-.628 2.31-.448 4.573-1.121 6.745-2.153 2.128-1.031 4.21-2.332 5.93-4.126-.498 1.166-1.267 2.198-2.082 3.185-.815.986-1.81 1.838-2.852 2.6-2.127 1.48-4.526 2.647-7.016 3.364-1.222.36-2.535.673-3.803.852-1.312.225-2.58.314-3.893.36-2.58.089-5.16-.09-7.695-.45L15 71.08l2.082-2.422a25.836 25.836 0 0 0 3.214-4.53c.906-1.614 1.675-3.408 2.4-5.201.769-1.84 1.674-3.723 2.715-5.427a49.31 49.31 0 0 1 1.72-2.511 18.647 18.647 0 0 1 1.947-2.288ZM75 18l-.09 1.928c-.046.852-.996 20.765-11.498 29.958a100.96 100.96 0 0 1-2.852 2.377c-.204.763-.589 2.198-.973 3.683l-.192.745a89.753 89.753 0 0 0-.782 3.241c-.226 1.121-.86 2.108-1.81 2.736-.606.413-1.4.918-2.22 1.425l-.45.277a137.166 137.166 0 0 1-3.713 2.2l-4.798 2.78 2.218-5.023c.996-2.197 1.675-5.292 1.131-6.189 0-.044-.045-.09-.271-.134a10.407 10.407 0 0 1-4.255-1.032c-1.132 1.346-2.807 2.153-4.572 2.063h-6.247v-6.189a5.364 5.364 0 0 1 2.082-4.53c-.679-1.39-1.041-2.78-1.041-4.215-.034-.202-.068-.252-.102-.284l-.034-.03c-.905-.538-4.029.135-6.247 1.121l-5.115 2.198 2.807-4.754c.056-.111 1.022-1.748 2.082-3.455l.278-.446a64.729 64.729 0 0 1 1.578-2.422c.679-.942 1.63-1.57 2.761-1.794 1.379-.254 3.916-.913 5.826-1.42l.645-.171c.51-.136.949-.254 1.27-.338a100.52 100.52 0 0 1 2.399-2.825c3.893-4.44 10.23-7.714 18.695-9.687a69.373 69.373 0 0 1 4.324-.878l.606-.1c3.777-.611 6.406-.726 6.568-.726L75 18ZM55.897 55.582a18.798 18.798 0 0 1-3.44 1.705c.362 1.166.317 2.511.09 3.812a47.426 47.426 0 0 0 2.173-1.39.852.852 0 0 0 .317-.494c.181-.942.543-2.287.86-3.633Zm-7.514-11.166-1.901.448c-.453.09-.95.314-1.313.628l-7.197 5.65a1.76 1.76 0 0 0-.725 1.57v.628l5.885-3.767-3.757 5.83h.588a1.837 1.837 0 0 0 1.585-.717l5.748-7.086c.317-.359.498-.808.634-1.3l.453-1.884Zm22.724-22.603c-5.16.493-18.922 2.511-25.576 10-5.523 6.19-7.197 9.643-7.243 12.064v.09c0 .762.136 1.39.362 2.018l4.256-3.318a6.63 6.63 0 0 1 2.716-1.301l7.605-1.794-1.811 7.534a7.57 7.57 0 0 1-1.358 2.691l-3.35 4.216a5.875 5.875 0 0 0 2.037.359h.09c2.49-.09 5.93-1.705 12.177-7.176 7.56-6.593 9.597-20.226 10.095-25.383ZM37.157 36.88c-1.404.314-2.807.673-3.712.852-.227.045-.408.135-.498.314a47.014 47.014 0 0 0-1.404 2.153c1.313-.224 2.671-.27 3.848.09.408-1.077.95-2.198 1.766-3.409ZM59.7 26.836c1.72 0 3.304.628 4.526 1.838a6.266 6.266 0 0 1 0 8.925 6.558 6.558 0 0 1-4.526 1.839c-1.675 0-3.305-.628-4.527-1.839a6.266 6.266 0 0 1 0-8.925c1.222-1.166 2.806-1.838 4.527-1.838Zm-.046 3.543c-.724 0-1.403.269-1.946.807-1.041 1.076-1.041 2.825 0 3.857a2.75 2.75 0 0 0 3.893 0 2.69 2.69 0 0 0 0-3.857c-.498-.538-1.222-.807-1.947-.807Z" fill="#00EF57" fill-rule="nonzero"/></g></svg>