<svg xmlns="http://www.w3.org/2000/svg" viewBox="0 0 90 90"><path fill="#FFF" d="M0 0h90v90H0z"/><path fill="#EA4335" d="M76.978 30.923H62.072V16z"/><path d="M62.072 30.923v22.924H35.561l-7.655 7.663v16.092c0 2.113 2.604 3.214 4.13 1.686l10.528-10.54h30.059A4.343 4.343 0 0 0 77 64.364V30.923H62.072Z" fill="#34A853"/><path fill="#4285F4" d="M27.906 53.847H13V30.923h14.906z"/><path d="M27.906 30.923H13v-10.54A4.342 4.342 0 0 1 17.378 16h10.528v14.923Z" fill="#1967D2"/><path d="M27.906 53.847V68.77H17.378a4.33 4.33 0 0 1-3.109-1.27A4.34 4.34 0 0 1 13 64.386v-10.54h14.906Z" fill="#188038"/><path fill="#FBBC04" d="M62.072 16H27.906v14.923h34.166z"/></svg>