<svg xmlns="http://www.w3.org/2000/svg" viewBox="0 0 90 90"><path fill="#FFF" d="M0 0h90v90H0z"/><path d="M38 23a26.874 26.874 0 0 1 14.622 4.298A9.979 9.979 0 0 0 49 35c0 2.872 1.21 5.46 3.149 7.284l-7.236 9.603A6.968 6.968 0 0 0 41.5 51l-.24.004a6.973 6.973 0 0 0-4.466 1.814l-5.654-4.261 1.88-2.406-7.092-5.541-5.541 7.092 7.092 5.54 2.12-2.715 5.672 4.275a7 7 0 1 0 11.573-1.323l7.325-9.721A9.955 9.955 0 0 0 59 45a9.953 9.953 0 0 0 5.22-1.47c.51 2.073.78 4.24.78 6.47 0 14.912-12.088 27-27 27S11 64.912 11 50s12.088-27 27-27Z" fill="#CA2A71"/><circle cx="69" cy="22" r="10"/></svg>