<svg viewBox="0 0 90 90" xmlns="http://www.w3.org/2000/svg"><g fill="none"><path fill="#000" d="M0 0h90v90H0z"/><path d="M3 51a4 4 0 0 0 4 4h19.99v-6H9v-8h18v-6H3v16Zm77.991-2h-12v-8h18l-.067-6H62.991v19.99h19.99a4 4 0 0 0 4-4V45h-6v4h.01ZM36.983 35.009h-6v19.99h6v-3.5l2-2-2-2v-4.006l3.758 3.758 4.244-4.244zm15.993 0-7.992 7.992 4.244 4.244 3.748-3.758v4.034l-.019-.029-2 2 2 2 .019-.029v3.529h6V35.009z" fill="#FAFAFA"/><path fill="#8AFF80" d="m42.98 49.5 1.996-1.997 1.996 1.996-1.996 1.996z"/></g></svg>