<svg viewBox="0 0 90 90" xmlns="http://www.w3.org/2000/svg"><g fill="none"><path fill="#1EC677" d="M0 0h90v90H0z"/><path d="M48.154 71C57 71 63.269 67.693 67 64.918v-12.05c-5.5 4.296-11.962 6.766-17.692 6.766-9.154 0-15.577-6.233-15.577-15.204 0-8.515 5.846-14.445 14.192-14.445 2.73 0 5.077.685 7.577 1.369 2.577.722 5.27 1.52 8.462 1.52 1 0 2-.076 3-.228v-11.48c-.847.077-1.654.153-2.5.153-2.885 0-5.5-.532-8.231-1.103C53.346 19.608 50.385 19 46.885 19c-6.962 0-13.423 2.433-18.154 6.918C23.692 30.67 21 37.284 21 45c0 15.319 11.154 26 27.154 26Z" fill="#FFF"/></g></svg>