<svg viewBox="0 0 90 90" xmlns="http://www.w3.org/2000/svg"><path d="M16.518 56.374c4.174-1.118 7.193-4.206 8.135-8.034.045-.176.086-.352.122-.53.135-.656-.389-1.236-1.059-1.248l-6.339-.112c-.271-.004-.504.182-.6.436-.378.993-1.195 1.76-2.313 2.08-1.939.485-3.769-.624-4.322-2.687-.553-2.063.477-3.938 2.398-4.486 1.186-.297 2.331.003 3.168.752.21.188.519.244.761.098l5.41-3.249c.568-.341.735-1.094.305-1.597a11.03 11.03 0 0 0-.506-.552c-2.72-2.804-6.892-4.011-11.066-2.894a12.204 12.204 0 0 0-.125.034c-4.175 1.117-7.183 4.247-8.136 8.034-.477 1.856-.48 3.88.068 5.928.55 2.048 1.565 3.798 2.908 5.167 2.73 2.845 6.891 4.011 11.066 2.893l.062-.016.063-.017Zm33.104-.719c0 .318.258.576.576.576h6.843a.576.576 0 0 0 .576-.576V35.216a.576.576 0 0 0-.576-.575h-6.843a.576.576 0 0 0-.576.575v20.44ZM39.558 34.036c-2.506 0-4.494.95-5.79 2.72v-9.18c0-.442-.48-.72-.865-.498l-6.554 3.776a1.151 1.151 0 0 0-.577.997v23.804c0 .318.258.576.576.576h6.843a.576.576 0 0 0 .576-.576V45.133c0-2.115.994-3.41 2.939-3.41 1.642 0 2.68.95 2.68 2.892v11.04c0 .318.257.576.576.576h6.842a.576.576 0 0 0 .576-.576V43.752c0-6.693-3.327-9.716-7.822-9.716Zm33.99 0c-2.593 0-4.494.95-5.79 2.548v-1.368a.576.576 0 0 0-.577-.575h-6.843a.576.576 0 0 0-.576.575v28.207c0 .447.487.723.87.495l6.562-3.898a1.15 1.15 0 0 0 .563-.99v-4.742c1.297 1.598 3.198 2.548 5.791 2.548 5.877 0 9.897-4.88 9.897-11.4 0-6.52-4.02-11.4-9.897-11.4Zm-1.945 15.459c-2.333 0-3.846-1.77-3.846-4.06 0-2.288 1.513-4.058 3.846-4.058 2.334 0 3.847 1.77 3.847 4.059 0 2.288-1.513 4.059-3.847 4.059Zm15.821-20.612c.318 0 .576.258.576.576v7.822c0 .513-.62.77-.984.407l-7.828-7.822a.576.576 0 0 1 .407-.983h7.829Z" fill="#0080FF"/></svg>