<svg xmlns="http://www.w3.org/2000/svg" viewBox="0 0 90 90"><defs><linearGradient x1="74.956%" y1="95.836%" x2="19.79%" y2="-4.168%" id="a"><stop stop-color="#1E8E3E" offset="0%"/><stop stop-color="#34A853" offset="100%"/></linearGradient><linearGradient x1="21.293%" y1="100.177%" x2="59.787%" y2=".181%" id="b"><stop stop-color="#FCC934" offset="0%"/><stop stop-color="#FBBC04" offset="100%"/></linearGradient><linearGradient x1="0%" y1="50%" x2="100%" y2="50%" id="c"><stop stop-color="#D93025" offset="0%"/><stop stop-color="#EA4335" offset="100%"/></linearGradient></defs><path fill="#FFF" d="M0 0h90v90H0z"/><path d="M45.499 61.247c8.698 0 15.75-7.052 15.75-15.75 0-8.699-7.052-15.75-15.75-15.75-8.699 0-15.75 7.051-15.75 15.75 0 8.698 7.052 15.75 15.75 15.75Z" fill="#FFF"/><path d="M17.86 39.375 4.22 15.754A31.49 31.49 0 0 0 15.75 58.78a31.493 31.493 0 0 0 15.75 4.216l13.638-23.62v-.005a15.746 15.746 0 0 1-27.28.004Z" fill="url(#a)" transform="translate(14 14)"/><path d="M45.138 39.374 31.5 62.995A31.491 31.491 0 0 0 58.773 15.75H31.498l-.003.002a15.747 15.747 0 0 1 13.643 23.623Z" fill="url(#b)" transform="translate(14 14)"/><path d="M45.499 57.969c6.886 0 12.469-5.583 12.469-12.469 0-6.886-5.583-12.469-12.469-12.469-6.886 0-12.469 5.583-12.469 12.469 0 6.886 5.583 12.469 12.469 12.469Z" fill="#1A73E8"/><path d="M31.5 15.75h27.275a31.493 31.493 0 0 0-54.554.004L17.86 39.375l.004.002A15.747 15.747 0 0 1 31.499 15.75Z" fill="url(#c)" transform="translate(14 14)"/></svg>