<svg xmlns="http://www.w3.org/2000/svg" viewBox="0 0 90 90" fill="none" fill-rule="evenodd"><path fill="#fff" opacity="0" d="M0 0h90v90H0z"/><g fill-rule="nonzero"><path fill="#bc2845" d="M31.959 35.497C29.115 37.523 22.265 43.826 0 41.313v-17.16c8.35 2.435 11.648 2.435 16.385 2.435s17.965-1.422 25.858-9.632c-1.1 4.38-2.31 11.829-10.283 18.541z"/><path fill="#dd586b" d="M42.878 3c0 .973 1.962 17.505-6.563 27.985S18.177 41.812 8.221 41.812c7.531-4.303 13.403-11.589 15.32-16.773S24.665 9.609 24.257 3h18.621z"/><g transform="matrix(-1 0 0 -1 89.972 88)"><path fill="#1bb2a3" d="M31.959 32.497C29.115 34.523 22.265 40.826 0 38.313v-17.16c8.35 2.435 11.648 2.435 16.385 2.435s17.965-1.422 25.858-9.632c-1.1 4.38-2.31 11.829-10.283 18.541z"/><path fill="#5bd8cf" d="M42.878 0c0 .973 1.962 17.505-6.563 27.985S18.177 38.812 8.221 38.812c7.531-4.303 13.403-11.589 15.32-16.773S24.665 6.609 24.257 0h18.621z"/></g><path fill="#fc8f00" d="M41.324 88c.442-5.467-.047-19.253-4.543-25.836s-8.607-12.972-24.604-13.942c7.531 4.303 8.944 12.145 10.861 17.329S24.474 81.391 24.065 88h17.258z"/><path fill="#ffc776" d="M31.959 55.503C28.901 53.043 21.705 45.736 0 47.937v18.263c8.827-1.313 10.955-1.759 17.324-1.759s15.534 3.258 23.889 13.52c-.792-6.795-1.864-16.129-9.254-22.458z"/><g transform="matrix(-1 0 0 1 90 3)"><path fill="#0063ad" d="M41.434 0c0 .973 1.588 19.444-6.937 29.924S15.369 40.378 5.414 40.378c7.531-4.303 15.638-11.144 17.68-17.692S24.412 7.293 23.934 0h17.5z"/><path fill="#499bce" d="M30.583 33.98C26.377 37.08 18.612 42.879 0 40.012V21.907c5.76 1.181 10.205 1.681 14.941 1.681S31.963 24.943 41.32 9.771c-.959 9.492-2.763 17.497-10.737 24.209z"/></g></g></svg>