<svg viewBox="0 0 90 90" xmlns="http://www.w3.org/2000/svg"><g fill="none" fill-rule="evenodd"><path fill="#0016FF" d="M0 0h90v90H0z"/><path fill="#7F96FF" d="m33.99 70.77 5.69 2.735 1.658.797-8.724-38.187h-6.536zm-14.697-7.076 7.348 3.534-7.106-31.113H13zm30.495-9.63-4.096-17.949h-6.535l7.363 32.27z"/><path fill="#FFF" d="m57.535 69.831-6.371 3.064 12.187-53.368 4.409 5.527zm12.75-6.137-6.379 3.073L72.17 30.58l4.417 5.535zM30.644 14l-4.417 5.527H52l-1.258 5.527H21.818l-4.41 5.534h32.067l-1.258 5.527H13l1.259 5.527h32.7L39.68 73.505l5.113 2.463L58.943 14z"/></g></svg>