<svg viewBox="0 0 90 90" xmlns="http://www.w3.org/2000/svg"><g fill="none"><path fill="#FFF" d="M0 0h90v90H0z"/><path d="M0 45v45h90V0H0v45Zm47.11-34.436c3.269 1.442 4.06 5.784 1.511 8.332-2.039 2.04-5.203 2.04-7.242 0-2.883-2.882-1.477-7.699 2.514-8.7.878-.212 2.25-.053 3.216.368ZM26.015 26.93c.632.334 2.548 2.425 9.808 10.775C40.781 43.4 44.912 48.076 45 48.076c.088 0 4.219-4.676 9.176-10.37 9.844-11.321 9.773-11.25 11.426-11.11 2.197.193 3.585 2.549 2.707 4.57-.141.316-4.448 5.379-9.58 11.285-5.133 5.889-9.317 10.776-9.3 10.846.036.07 4.132 4.799 9.106 10.53 4.975 5.73 9.246 10.67 9.475 11.003.633.879.72 2.426.193 3.357-.914 1.618-2.777 2.18-4.43 1.336-.263-.14-4.552-4.957-9.562-10.705S45.07 58.36 45 58.36c-.07 0-4.201 4.711-9.21 10.46-5.01 5.747-9.3 10.564-9.563 10.704-.791.405-1.547.493-2.338.282-.967-.264-1.6-.756-2.092-1.618-.527-.931-.44-2.478.193-3.357.229-.334 4.5-5.273 9.475-11.004 4.974-5.73 9.07-10.459 9.105-10.53.018-.07-4.166-4.956-9.299-10.845-5.132-5.906-9.439-10.969-9.58-11.285-.562-1.3-.105-3.146.967-3.902 1.143-.826 2.18-.914 3.358-.334Z" fill="#000"/></g></svg>