<svg xmlns="http://www.w3.org/2000/svg" viewBox="0 0 90 90"><path fill="#000" d="M0 0h90v90H0z" opacity="0.01"/><g clip-path="url(#a)"><path fill="#fff" d="M45 89.16c24.85 0 45-19.81 45-44.26C90 20.46 69.85.64 45 .64S0 20.46 0 44.9c0 24.45 20.15 44.26 45 44.26Z"/><path fill="#CC0020" d="M42.8 34.57h-8.25a10.65 10.65 0 0 0-7.45 2.91 9.9 9.9 0 0 0 0 14.42 10.37 10.37 0 0 0 7.45 2.91h8.24a1 1 0 0 0 .69-.27.95.95 0 0 0 .3-.68V48c0-.24-.1-.48-.28-.65a1 1 0 0 0-.66-.3h-8.29a2.47 2.47 0 0 1-1.75-.66 2.36 2.36 0 0 1-.74-1.69 2.3 2.3 0 0 1 .74-1.68 2.4 2.4 0 0 1 1.75-.66h8.28a1 1 0 0 0 .67-.3.95.95 0 0 0 .27-.65v-5.87c0-.26-.1-.5-.29-.67a1 1 0 0 0-.68-.29Z"/><path fill="#383938" d="M56.98 34.58h-8.16a1 1 0 0 0-.67.26.95.95 0 0 0-.3.64v5.96c.01.25.12.47.3.64.18.17.42.26.67.27h8.16a2.45 2.45 0 0 1 2.23 1.45 2.3 2.3 0 0 1-.52 2.56c-.45.45-1.07.7-1.7.7h-8.14a1 1 0 0 0-.68.26c-.18.16-.3.4-.3.64v11.46c0 .24.11.47.29.64a1 1 0 0 0 .66.27h1.38a.66.66 0 0 0 .53-.22l5.19-5.29h1.06a10.53 10.53 0 0 0 7.24-3.02 10 10 0 0 0 2.99-7.1c0-2.65-1.07-5.2-2.99-7.1a10.53 10.53 0 0 0-7.24-3.01v-.01Z"/></g><defs><clipPath id="a"><path fill="#fff" d="M0 0h90v90H0z"/></clipPath></defs></svg>