<svg viewBox="0 0 90 90" xmlns="http://www.w3.org/2000/svg"><g fill="none"><path fill="#FFF" d="M0 0h90v90H0z"/><path d="M21.954 52.126c-3.838 0-6.954-3.184-6.954-7.107 0-3.922 3.116-7.068 6.916-7.068 3.8 0 6.915 3.185 6.915 7.068 0 3.884-3.04 7.107-6.877 7.107ZM57.824 19c-5.13 0-5.358 4.427-13.185 4.427-7.904 0-8.55-4.427-13.224-4.427-3.838 0-6.915 3.184-6.915 7.068 0 3.883 3.115 7.068 6.915 7.068 5.168 0 5.396-4.427 13.224-4.427 7.903 0 8.55 4.427 13.223 4.427 3.838 0 6.916-3.185 6.916-7.068 0-3.884-3.116-7.068-6.954-7.068Zm0 37.864c-5.168 0-5.396 4.427-13.223 4.427-7.904 0-8.55-4.427-13.224-4.427-3.838 0-6.915 3.184-6.915 7.068 0 3.883 3.115 7.068 6.915 7.068 5.168 0 5.396-4.427 13.224-4.427 7.903 0 8.55 4.427 13.223 4.427 3.838 0 6.916-3.185 6.916-7.068 0-3.884-3.078-7.068-6.916-7.068Zm10.26-18.913c-5.206 0-5.016 4.66-11.552 4.66-6.042 0-6.118-4.62-11.931-4.62-3.61 0-6.574 3.378-6.574 7.067 0 3.69 3.002 7.068 6.916 7.068 5.205 0 5.016-4.66 11.551-4.66 6.042 0 6.118 4.621 11.932 4.621 3.61 0 6.574-3.378 6.574-7.068.037-3.689-2.965-7.068-6.916-7.068Z" fill="#1955FF"/></g></svg>