<svg viewBox="0 0 90 90" xmlns="http://www.w3.org/2000/svg"><defs><linearGradient x1="50%" y1="0%" x2="100%" y2="100%" id="a"><stop stop-color="#DEF2FE" offset="0%"/><stop stop-color="#DBF1FE" offset="100%"/></linearGradient><linearGradient x1="0%" y1="0%" x2="50%" y2="100%" id="b"><stop stop-color="#57BCFD" offset="0%"/><stop stop-color="#51B5FD" offset="100%"/></linearGradient><linearGradient x1="37.5%" y1="0%" x2="62.5%" y2="100%" id="c"><stop stop-color="#1CA7FD" offset="0%"/><stop stop-color="#148CFC" offset="100%"/></linearGradient></defs><g fill="none"><path d="M90 45v20.964l-.005 1.083c-.074 7.544-.938 10.441-2.5 13.36a17.037 17.037 0 0 1-7.087 7.089l-.408.213C77.072 89.205 73.95 90 65.964 90H45V45h45Z" fill="url(#a)"/><path d="M80.408 2.504a17.037 17.037 0 0 1 7.088 7.088l.213.408C89.205 12.928 90 16.05 90 24.036V45H45V0h20.964c8.358 0 11.388.87 14.444 2.504Z" fill="url(#b)"/><path d="M45 0v90H24.036l-1.083-.005c-7.544-.074-10.441-.938-13.36-2.5a17.037 17.037 0 0 1-7.089-7.087L2.291 80C.795 77.072 0 73.95 0 65.964V24.036c0-8.358.87-11.388 2.504-14.444a17.037 17.037 0 0 1 7.088-7.088L10 2.291C12.928.795 16.05 0 24.036 0H45Z" fill="url(#c)"/></g></svg>