<svg viewBox="0 0 90 90" xmlns="http://www.w3.org/2000/svg"><g fill="none"><path fill="#AB2B4A" d="M84 22.498v45l-8.348-10.76L71.002 45H71l4.417-11.903z"/><path fill="#E87A68" d="M6.003 22.498v45l7.38-10.434L19 45h.003l-5.712-11.445z"/><path fill="#D74D4E" d="m71 45-24.583 1.559L19.001 45l11.44-22.502L45.002 0l15.832 24.702z"/><path fill="#BD3246" d="M84 22.498 71 45 45.001 0z"/><path fill="#F19175" d="M45.002 0 19 45 6 22.498z"/><path fill="#CF3942" d="m71 45-8.886 19.43L45.002 90l-17.61-26.428L19 45z"/><path fill="#E0625B" d="M45.002 90 6 67.498 19 45z"/><path fill="#9A244F" d="M44.998 90 84 67.498 71 45z"/></g></svg>