<svg viewBox="0 0 90 90" xmlns="http://www.w3.org/2000/svg"><g fill="none" fill-rule="evenodd"><path fill="#F04444" d="M0 0h90v90H0z"/><path d="M32.167 19.412a2.664 2.664 0 0 1 3.7.876 2.76 2.76 0 0 1 .335 2.055 2.722 2.722 0 0 1-1.195 1.695c-10.57 6.714-13.811 20.879-7.24 31.662 3.148 5.186 8.202 8.873 14.038 10.24a22.062 22.062 0 0 0 17.031-2.868 2.664 2.664 0 0 1 3.7.878c.778 1.276.395 2.952-.858 3.749A27.392 27.392 0 0 1 46.973 72a27.675 27.675 0 0 1-6.39-.752c-7.224-1.694-13.482-6.26-17.379-12.678-8.126-13.335-4.118-30.851 8.963-39.158Zm35.65 36.5c1.527-.215 2.938.868 3.155 2.415.217 1.547-.842 2.978-2.368 3.194-1.527.215-2.938-.869-3.155-2.416-.217-1.547.842-2.978 2.368-3.193Z" fill="#FFF" fill-rule="nonzero"/></g></svg>