<svg viewBox="0 0 90 90" xmlns="http://www.w3.org/2000/svg"><g fill="none"><path fill="#0056FF" d="M0 0h90v90H0z"/><path d="M80.09 36.77C77.115 23.512 66.553 13.012 53.165 9.974A39.21 39.21 0 0 0 44.558 9c-8.273 0-16.379 2.823-22.813 7.925C15.41 21.96 10.898 29.027 9.076 36.803c-.2.842 0 1.717.552 2.394a2.896 2.896 0 0 0 2.273 1.09h7.554c1.287 0 2.39-.826 2.774-2.048 3.009-9.774 12-16.345 22.346-16.345 10.295 0 19.504 6.802 22.412 16.543.034.1.017.215-.05.297a.326.326 0 0 1-.267.133H54.937c-.451 0-.902-.232-1.187-.611a11.389 11.389 0 0 0-9.058-4.557h-.1c-3.092 0-6 1.222-8.19 3.45-2.19 2.23-3.326 5.152-3.226 8.206.218 6.109 5.215 10.88 11.399 10.88 3.593 0 7.02-1.7 9.175-4.573a1.47 1.47 0 0 1 1.187-.595l11.733.166c.117 0 .2-.116.267-.017a.317.317 0 0 1 .05.297C64.08 61.287 54.853 68.09 44.575 68.09c-10.346 0-19.32-6.554-22.346-16.328a2.909 2.909 0 0 0-2.79-2.064h-7.505c-.903 0-1.738.396-2.29 1.09a2.825 2.825 0 0 0-.551 2.427c1.838 7.776 6.35 14.826 12.685 19.861C28.213 78.177 36.318 81 44.575 81c11.114 0 21.476-4.92 28.446-13.489 6.952-8.568 9.526-19.779 7.07-30.741ZM44.575 78.39c-3.911 0-7.755-.66-11.399-1.948a34.072 34.072 0 0 1-9.743-5.399c-5.883-4.672-10.062-11.21-11.766-18.408-.017-.05-.017-.132.05-.215a.27.27 0 0 1 .217-.099h7.504c.117 0 .234.083.268.198 3.359 10.864 13.353 18.178 24.886 18.178 11.448 0 21.71-7.578 24.952-18.409.268-.908.1-1.849-.468-2.608a2.95 2.95 0 0 0-2.39-1.19H54.954c-1.287 0-2.524.628-3.31 1.652a8.745 8.745 0 0 1-7.052 3.516 8.75 8.75 0 0 1-6.1-2.443c-1.639-1.568-2.591-3.665-2.658-5.927-.084-2.344.802-4.59 2.473-6.307a8.714 8.714 0 0 1 6.285-2.658h.083c2.775.033 5.298 1.304 6.953 3.5a4.181 4.181 0 0 0 3.309 1.668H66.67a2.95 2.95 0 0 0 2.39-1.19c.568-.759.735-1.7.468-2.591-3.226-10.847-13.488-18.425-24.953-18.425-11.532 0-21.527 7.314-24.886 18.194a.245.245 0 0 1-.234.181H11.9a.24.24 0 0 1-.201-.099c-.067-.082-.05-.132-.05-.181 1.705-7.215 5.866-13.77 11.75-18.442a34.072 34.072 0 0 1 9.743-5.399 35.182 35.182 0 0 1 11.432-1.915c2.657 0 5.348.297 8.005.908a33.03 33.03 0 0 1 16.079 8.85c4.429 4.408 7.487 9.922 8.84 15.965 1.187 5.25 1.154 10.483-.066 15.519a33.267 33.267 0 0 1-6.485 13.026C64.496 73.834 54.869 78.39 44.574 78.39Z" fill="#FFF"/></g></svg>