<svg viewBox="0 0 90 90" xmlns="http://www.w3.org/2000/svg"><g fill="none" fill-rule="evenodd"><path fill="#006DE3" d="M0 0h90v90H0z"/><path d="M45 15.097c8.696 0 16.524 3.701 21.995 9.616l6.538-5.838.79-.73-.05.069.05-.045-.677.922-5.211 7.298a29.823 29.823 0 0 1 6.513 18.164l.004.495C74.952 61.597 61.524 75 45 75S15.073 61.597 15.073 45.048C15.073 28.5 28.452 15.097 45 15.097Zm9.895 9.12h-19.79c-6.024 0-10.936 4.888-10.936 10.936v19.79A10.924 10.924 0 0 0 35.105 65.88h19.79a10.924 10.924 0 0 0 10.936-10.935v-19.79c0-1.43-.273-2.793-.77-4.044l-15.9 22.261c-.096.17-.217.339-.338.484l-.073.12c-.024.05-.073.073-.097.098-.072.072-.12.145-.193.217l-.29.218c-.073.048-.122.097-.194.145a4.2 4.2 0 0 1-.63.363c-.048 0-.072.024-.12.049a3.942 3.942 0 0 1-.75.266h-.049c-1.403.363-2.951 0-4.088-1.016l-.097-.074a2.03 2.03 0 0 1-.194-.168c-.096-.121-.169-.242-.266-.363-.024-.049-.072-.097-.097-.145-.048-.097-.145-.17-.193-.267l-8.337-16.045L32.468 36l.056.038-.032-.062.543.41 11.855 8.063L63.234 28.07a10.906 10.906 0 0 0-8.052-3.85l-.287-.003Z" fill="#FFF" fill-rule="nonzero"/></g></svg>