<svg viewBox="0 0 90 90" xmlns="http://www.w3.org/2000/svg"><g fill="none" fill-rule="evenodd"><circle fill="#0A5580" cx="55.5" cy="72.5" r="14.5"/><path d="M47.238 7.255c5.857-5.461 15.032-5.14 20.494.716 5.461 5.857 5.14 15.032-.716 20.494a14.455 14.455 0 0 1-10.445 3.884l.008.011a14.447 14.447 0 0 0-9.646 3.894 14.452 14.452 0 0 0-4.59 9.824l-.148 2.407-.003.023.025-.505.122-1.864.004-.071a14.45 14.45 0 0 1-4.581 9.677c-5.857 5.461-15.032 5.14-20.494-.716-5.461-5.857-5.14-15.032.716-20.494a14.454 14.454 0 0 1 10.31-3.889l-.049-.002.006-.001.085-.002a14.447 14.447 0 0 0 9.731-3.895 14.443 14.443 0 0 0 4.523-9.004l.038-.396.004.005-.01.364a14.312 14.312 0 0 0 3.43 9.505l.226.26.244.269.16.168.03.031-.19-.199c-5.39-5.78-5.148-14.791.488-20.276Z" fill="#3DB4F0"/></g></svg>