<svg viewBox="0 0 90 90" xmlns="http://www.w3.org/2000/svg"><g fill="none"><path d="M67.528 5.169C72.414 8.056 90 39.316 90 45.062c0 5.747-17.669 36.923-22.555 39.81-4.86 2.86-40.141 2.832-45-.055C17.585 81.93 0 50.698 0 44.951c0-5.746 17.669-36.95 22.528-39.81 4.886-2.887 40.14-2.831 45 .028Z" fill="#03A9F4"/><path d="M26.921 35H37.08A4.921 4.921 0 0 1 42 39.921V50.08A4.921 4.921 0 0 1 37.079 55H26.92A4.921 4.921 0 0 1 22 50.079V39.92A4.921 4.921 0 0 1 26.921 35Z" fill="#FFF"/><path d="M42.921 50H53.08A4.921 4.921 0 0 1 58 54.921V65.08A4.921 4.921 0 0 1 53.079 70H42.92A4.921 4.921 0 0 1 38 65.079V54.92A4.921 4.921 0 0 1 42.921 50Zm0-30H53.08A4.921 4.921 0 0 1 58 24.921V35.08A4.921 4.921 0 0 1 53.079 40H42.92A4.921 4.921 0 0 1 38 35.079V24.92A4.921 4.921 0 0 1 42.921 20Z" fill="#FFF"/></g></svg>