<svg viewBox="0 0 90 90" xmlns="http://www.w3.org/2000/svg"><g fill="none" fill-rule="evenodd"><path fill="#FFF" fill-rule="nonzero" d="M0 0h90v90H0z"/><path fill="#4286C5" d="m35.571 61.579 6.286-3.684 6.286 3.684-12.572 7.368z"/><path fill="#30689C" d="M29.286 35.79V80L23 76.316v-44.21z"/><path d="m29.286 35.79 18.857-11.053v7.368L35.57 39.474v29.473l12.572-7.368v7.368L29.286 80V35.79Z" fill="#22496E"/><path fill="#F5B720" d="m41.857 57.895 6.286 3.684 12.571-7.368-6.285-3.685z"/><path fill="#E4A40A" d="m54.429 28.421 6.285-3.684V54.21l-6.285-3.685z"/><path fill="#C08A08" d="M48.143 24.737v7.368l12.571-7.368V54.21l-12.571 7.368v7.368L67 57.895v-44.21z"/><path fill="#4286C5" d="m23 32.105 6.286 3.685 18.857-11.053-6.286-3.684z"/><path fill="#F5B720" d="m41.857 21.053 6.286 3.684L67 13.684 60.714 10z"/></g></svg>