<svg viewBox="0 0 90 90" xmlns="http://www.w3.org/2000/svg"><g fill="none"><path d="M77.924 66.083c-1.447 1.445-4.342 3.611-9.407 3.611H37.402c9.407-9.027 17.367-16.61 18.09-17.333.724-.722 2.533-2.528 4.342-3.972 3.618-3.25 6.512-3.611 9.045-3.611 3.618 0 6.512 1.444 9.045 3.61 5.065 4.695 5.065 13 0 17.695m6.15-23.472c-3.617-3.972-9.044-6.5-14.833-6.5-5.065 0-9.407 1.806-13.387 4.695-1.447 1.444-3.618 2.888-5.427 5.055C48.98 47.306 17.865 77.64 17.865 77.64c1.809.361 3.98.361 5.789.361H63.09c2.895 0 5.065 0 7.236-.361 4.704-.361 9.407-2.167 13.387-5.778 8.321-7.944 8.321-21.305.362-29.25Z" fill="#00A3FF"/><path d="M33.422 40.444c-3.98-2.888-7.96-4.333-12.663-4.333-5.789 0-11.216 2.528-14.834 6.5-7.96 8.306-7.96 21.306.362 29.611 3.618 3.25 7.236 5.056 11.578 5.417l8.321-7.945h-4.703c-4.704-.36-7.598-1.805-9.407-3.61a12.962 12.962 0 0 1-.362-18.056c2.533-2.528 5.427-3.611 9.045-3.611 2.171 0 5.427.36 8.683 3.61 1.448 1.445 5.428 4.334 6.875 5.779h.362l5.427-5.417v-.361c-2.533-2.528-6.513-5.778-8.684-7.584" fill="#00C8DC"/><path d="M71.412 31.417C67.432 20.583 56.939 13 45 13c-14.11 0-25.326 10.472-27.497 23.472 1.085 0 2.17-.36 3.618-.36 1.447 0 3.256.36 4.703.36 1.81-9.028 9.77-15.528 19.176-15.528 7.96 0 14.834 4.695 18.09 11.556 0 0 .362.361.362 0 2.533-.361 5.427-1.083 7.96-1.083 0 .36 0 .36 0 0" fill="#006EFF"/></g></svg>