<svg xmlns="http://www.w3.org/2000/svg" viewBox="0 0 90 90"><defs><linearGradient id="a" x1="75.59%" x2="25.14%" y1="5.93%" y2="107.59%"><stop offset="0%" stop-color="#50FFD2"/><stop offset="100%" stop-color="#0064FF"/></linearGradient><linearGradient id="b" x1="61.2%" x2="39.12%" y1="-4.41%" y2="121.1%"><stop offset="0%" stop-color="#0D7DF8" stop-opacity="0"/><stop offset="100%" stop-color="#0B7AF8"/></linearGradient></defs><path fill="#FFF" d="M0 0h90v90H0z"/><path fill="url(#a)" d="M19.32 39.16c-.23 0-.45-.07-.65-.18l-6.25-3.68a1.42 1.42 0 01-.65-1.66 1.32 1.32 0 011.91-.7l6.26 3.67c.62.36.86 1.14.56 1.8-.23.45-.68.74-1.18.75zm10.81-11.03c-.47 0-.9-.25-1.15-.66l-3.6-6.36a1.42 1.42 0 01.25-1.77 1.28 1.28 0 011.86.16l.14.2 3.61 6.32a1.4 1.4 0 01-.35 1.85c-.22.16-.48.25-.76.26zm13.45-5.47v-7.22a1.4 1.4 0 011.3-1.44c.35-.01.7.12.95.36.26.25.42.6.42.95v7.43c0 .75-.6 1.35-1.33 1.35h-.05a1.4 1.4 0 01-1.29-1.43zm16.1 5.47c-.27 0-.53-.09-.75-.25a1.41 1.41 0 01-.34-1.86l3.61-6.35a1.32 1.32 0 011.81-.5l.2.14c.49.46.6 1.2.25 1.77l-3.62 6.36c-.23.43-.68.69-1.16.69zM70.5 39.16c-.5 0-.95-.28-1.18-.72a1.41 1.41 0 01.58-1.83l6.2-3.64a1.33 1.33 0 011.72.25 1.33 1.33 0 01-.14 1.9c-.06.05-.12.1-.2.14l-6.32 3.72c-.2.12-.43.18-.66.18zM28.09 69.9a24.48 24.48 0 01-5.96-24.31 23.93 23.93 0 0118.43-16.64A23.58 23.58 0 0164.74 39.5l-2.2 1.49a20.96 20.96 0 00-21.52-9.44 21.26 21.26 0 00-16.43 14.81A21.75 21.75 0 0029.96 68l-1.87 1.91zM61.86 77h-36.6a15.24 15.24 0 01-10.84-4.66A15.77 15.77 0 0110 61.24h2.65a13.05 13.05 0 003.64 9.2 12.6 12.6 0 008.97 3.86h36.6a15.48 15.48 0 0014.21-9.32 15.97 15.97 0 00-2.63-17l1.94-1.79a18.74 18.74 0 013.03 19.87A18.17 18.17 0 0161.82 77h.04zM46.32 58.4h-2.65a18.47 18.47 0 0111.74-17.16 17.97 17.97 0 0119.97 4.95l-1.94 1.8a15.32 15.32 0 00-17.1-4.32A15.75 15.75 0 0046.33 58.4z"/><path fill="url(#b)" d="M12.65 61.27H10a15.65 15.65 0 017.57-13.38l1.28 2.33a12.96 12.96 0 00-6.2 11.05z"/></svg>