<svg viewBox="0 0 90 90" xmlns="http://www.w3.org/2000/svg"><path d="M73.454 68c-5.793.022-11.163-3.057-14.108-8.09l-.972-1.537-1.134 1.39a22.081 22.081 0 0 1-17.202 8.171 22.316 22.316 0 0 1-15.712-6.537l-1.118-1.128-.826 1.357c-3.38 5.439-10.355 7.312-15.968 4.29C.8 62.893-1.54 56.004 1.056 50.143c2.596-5.861 9.243-8.698 15.22-6.495l1.603.637.195-1.634c1.295-10.326 9.45-18.404 19.706-19.52 10.257-1.117 19.931 5.02 23.38 14.83l.6 1.634 1.376-1.128a16.324 16.324 0 0 1 19.572-.952c6.02 4.069 8.69 11.634 6.574 18.626-2.115 6.992-8.518 11.762-15.763 11.744l-.065.115Zm0-28.176c-6.334 0-11.468 5.18-11.468 11.57 0 6.391 5.134 11.572 11.468 11.572s11.468-5.18 11.468-11.571c-.009-6.387-5.138-11.562-11.468-11.571ZM40.119 28.073c-9.554 0-17.3 7.814-17.3 17.454s7.746 17.455 17.3 17.455 17.3-7.814 17.3-17.455c-.01-9.636-7.75-17.445-17.3-17.454ZM12.178 47.979a7.143 7.143 0 0 0-6.611 4.438 7.255 7.255 0 0 0 1.538 7.86 7.097 7.097 0 0 0 7.786 1.57c2.672-1.115 4.414-3.744 4.414-6.66 0-3.975-3.188-7.199-7.127-7.208Z" fill="#00A6FC"/></svg>