<svg xmlns="http://www.w3.org/2000/svg" viewBox="0 0 90 90" fill-rule="evenodd"><path fill="#3243c8" d="M0 0h90v90H0z"/><path fill="#fff" fill-rule="nonzero" d="M28.456 42.339a.22.22 0 0 1 .156.065l7.362 7.318c.061.062.079.154.046.234s-.111.133-.198.135H33.94c-.122 0-.222.096-.225.217v16.453c.003 1.041.419 2.04 1.16 2.777l1.1 1.093c.061.062.079.154.046.234s-.111.133-.198.135h-8.681c-2.196 0-3.976-1.768-3.976-3.949V50.308c0-.12-.098-.217-.219-.217H21.09c-.088.001-.168-.051-.203-.132s-.017-.174.044-.237l7.369-7.318a.22.22 0 0 1 .156-.065zm16.282 4.238a.22.22 0 0 1 .156.065l7.369 7.292c.062.063.079.156.044.237s-.115.133-.203.132h-1.882c-.122.004-.219.103-.219.224v12.235c.001 1.04.415 2.039 1.153 2.777l1.107 1.093c.062.063.079.156.044.237s-.115.133-.203.132h-8.661c-2.196 0-3.976-1.768-3.976-3.949V54.54c0-.121-.097-.22-.219-.224h-1.875c-.087-.002-.165-.055-.198-.135s-.015-.172.046-.234l7.362-7.305a.22.22 0 0 1 .156-.065zm16.286 4.193c.057 0 .112.023.152.064l7.369 7.312c.065.061.086.156.053.239s-.115.137-.205.136h-1.889c-.121 0-.219.097-.219.217v8.023c.003 1.041.419 2.04 1.16 2.777l1.1 1.093c.061.062.079.154.046.234s-.111.133-.198.135h-8.688c-2.196 0-3.976-1.768-3.976-3.949v-8.312c0-.12-.098-.217-.219-.217h-1.856c-.09.001-.171-.053-.205-.136s-.013-.178.053-.239l7.369-7.312c.04-.041.095-.064.152-.064zM44.589 19c11.575.083 21.784 7.548 25.301 18.501C78.487 38.615 84.937 45.858 85 54.468c0 7.193-4.586 13.156-11.968 15.558h0l-.331.105v-5.305c4.592-1.922 7.29-5.719 7.29-10.359-.024-6.621-5.362-12.013-12.028-12.149h0-1.988l-.477-1.882c-2.342-9.6-10.962-16.384-20.908-16.453-8.282-.039-15.836 4.691-19.37 12.129h0l-.61 1.244-1.392.145c-6.285.668-11.446 5.233-12.838 11.357s1.294 12.448 6.681 15.732h0v5.594h-.033l-.497-.224C8.67 66.371 4.066 58.129 5.16 49.606s7.633-15.354 16.149-16.87C25.91 24.23 34.867 18.945 44.589 19z"/></svg>