<svg viewBox="0 0 90 90" xmlns="http://www.w3.org/2000/svg"><g fill="none" fill-rule="evenodd"><path fill="#FFF" d="M0 0h90v90H0z"/><g fill-rule="nonzero"><path d="m44.295 45.885-.113.01.005.006-.019-.157c.006-.2.018-.4.018-.6V31.106c0-.214-.034-.433.079-.634.123-.006.246-.017.37-.017h30.298c.013.168.036.335.036.503v14.376c0 .18.053.37-.077.533l-.13-.013c-.16-.084-.332-.044-.499-.044H44.976c-.166 0-.34-.039-.5.043l-.181.032Z" fill="#E57934"/><path d="M74.934 30.458H44.636c-.123 0-.246.01-.37.017-.14-.16-.07-.354-.07-.53-.009-4.935-.014-9.87-.016-14.804.145-.076.302-.048.454-.048h26.619c2.172 0 3.72 1.55 3.721 3.727v11.137c0 .165-.026.333-.04.5Z" fill="#CC242B"/><path d="m44.18 15.139.018 14.803c0 .176-.07.37.069.53-.113.201-.079.42-.079.634v14.038c0 .2-.012.4-.018.6-.143-.039-.227-.154-.324-.251L16.044 17.696a4.056 4.056 0 0 1-.697-.856c-.433-.763-.204-1.354.624-1.617a2.97 2.97 0 0 1 .91-.118H43.77c.137.002.275.023.412.034Z" fill="#F2B237"/><path d="m74.762 45.857.13.013c.12.149.074.325.074.49v26.617c0 .496-.051.985-.285 1.433-.234.449-.647.605-1.13.441-.418-.142-.755-.408-1.062-.715L54.453 56.099c-3.278-3.279-6.557-6.556-9.837-9.833-.117-.118-.268-.21-.323-.381l.185-.029c.137.007.277.02.413.02h29.458c.138.002.276-.013.413-.019Z" fill="#41B9C2"/><path d="M44.182 45.896c-.007.74-.02 1.473-.02 2.21v12.58c.013.215-.01.43-.066.638-.215 0-.43.008-.647.008l-14.534.005-.177-.087.007.005c-1.036-1.052-2.065-2.108-3.107-3.153-3.209-3.214-6.42-6.426-9.632-9.635-.317-.317-.617-.647-.78-1.075-.219-.575-.027-1.046.537-1.282.402-.169.832-.206 1.265-.206h27.16l-.006-.008Z" fill="#F2B237"/><path d="M28.74 61.25v12.053c.009.386-.07.769-.231 1.12-.254.53-.666.698-1.218.506a2.534 2.534 0 0 1-.95-.638 9655.12 9655.12 0 0 1-10.613-10.614 2.681 2.681 0 0 1-.596-.87c-.243-.592-.059-1.045.536-1.306.42-.185.865-.204 1.312-.204h11.363c.134 0 .278.039.403-.042l-.006-.005Z" fill="#912E45"/><path d="m28.916 61.337 14.535-.005c.215 0 .43-.005.647-.008.114.135.059.296.06.444v11.136c0 .477-.03.955-.23 1.4-.247.549-.686.74-1.246.532a2.54 2.54 0 0 1-.914-.612L28.99 61.451a.682.682 0 0 1-.074-.114Z" fill="#E57934"/><path d="M74.762 45.862c-.137.007-.277.022-.414.022H44.89c-.138 0-.277-.015-.413-.022.16-.089.333-.047.499-.047h29.287c.167 0 .34-.044.5.047Z" fill="#F2B237"/></g></g></svg>