<svg xmlns="http://www.w3.org/2000/svg" viewBox="0 0 90 90"><path fill="#FFF" d="M0 0h90v90H0z"/><path d="M44.774 27.5c9.738 0 17.632 7.836 17.632 17.5s-7.894 17.5-17.632 17.5c-9.738 0-17.631-7.836-17.631-17.5s7.893-17.5 17.631-17.5Zm0 27.498c5.565 0 10.076-4.478 10.076-9.999 0-5.523-4.51-9.999-10.076-9.999-5.563 0-10.075 4.476-10.075 9.999 0 5.52 4.512 9.999 10.075 9.999Z" fill="#8FD4FF"/><path d="M22.562 49.44c.083.446.163.818.24 1.118C25.295 60.296 34.187 67.5 44.774 67.5c1.875 0 3.696-.226 5.437-.651.69-.169 1.579-.461 2.665-.877a2.404 2.404 0 0 1 2.886.946l1.503 2.358a2.364 2.364 0 0 1-1.104 3.462c-1.258.52-2.298.895-3.12 1.126A30.46 30.46 0 0 1 44.775 75c-14.365 0-26.39-9.947-29.464-23.28a23.431 23.431 0 0 1-.28-1.467 2.377 2.377 0 0 1 2.365-2.753h2.813a2.39 2.39 0 0 1 2.354 1.94Z" fill="#0D74CA"/><path d="M15.36 38.063C18.516 24.84 30.488 15 44.775 15c3.08 0 6.052.457 8.851 1.307.603.183 1.348.454 2.238.815a2.368 2.368 0 0 1 1.132 3.444l-1.481 2.384a2.404 2.404 0 0 1-2.884.976c-.892-.334-1.626-.574-2.204-.721a22.88 22.88 0 0 0-5.652-.705c-10.15 0-18.741 6.62-21.63 15.748-.182.575-.369 1.351-.56 2.33a2.39 2.39 0 0 1-2.35 1.922H17.4a2.385 2.385 0 0 1-2.363-2.755c.11-.673.218-1.234.325-1.682Z" fill="#55B7FB"/><path d="M66.885 24.546C71.92 29.904 75 37.096 75 45c0 7.951-3.117 15.18-8.203 20.549-.413.435-.963.957-1.65 1.566a2.408 2.408 0 0 1-3.619-.502l-1.51-2.37a2.361 2.361 0 0 1 .38-2.994c.743-.698 1.317-1.285 1.721-1.76A22.31 22.31 0 0 0 67.444 45c0-5.912-2.298-11.291-6.054-15.306-.29-.311-.678-.686-1.162-1.124a2.361 2.361 0 0 1-.424-3l1.469-2.363a2.405 2.405 0 0 1 3.617-.54c.844.735 1.51 1.361 1.995 1.879Z" fill="#3499DF"/></svg>