<svg xmlns="http://www.w3.org/2000/svg" viewBox="0 0 90 90"><path fill="#E8FBF2" d="M0 0h90v90H0z"/><path fill="#3ECF8E" d="M58.26 39.28c-.47 0-.86.14-1.16.42-.31.28-.46.7-.46 1.27v.27h2.17v2.99h-2.18v8.43h-3.97v-8.43h-2.04v-2.99h2.04v-.32c0-1.54.4-2.75 1.18-3.62.78-.87 1.92-1.3 3.41-1.3.85 0 1.54.1 2.06.32v3.12a4.6 4.6 0 00-1.05-.16zm13.16 1.96v11.42h-3.9v-1.55a3.3 3.3 0 01-1.41 1.27c-.63.31-1.32.47-2.02.46a4.6 4.6 0 01-4.3-2.78 7.22 7.22 0 01-.62-3.09c0-1.18.21-2.23.64-3.15a5.13 5.13 0 011.75-2.13c.75-.51 1.63-.78 2.53-.77.7 0 1.39.16 2 .49.62.32 1.09.75 1.42 1.3v-1.47h3.91zm-6.1 8.57c.7 0 1.25-.25 1.63-.75.38-.49.57-1.2.57-2.13 0-.95-.2-1.67-.57-2.17-.38-.5-.93-.75-1.63-.75-.69 0-1.23.25-1.62.77-.4.52-.6 1.25-.6 2.2 0 .9.2 1.6.57 2.1.38.48.93.73 1.65.73zm14.92-3.04l4.76 5.9h-4.65l-2.38-3.07-2.36 3.06h-4.64l4.77-5.89-4.48-5.53h4.65l2.06 2.74 2.05-2.74h4.7l-4.48 5.53z"/><path fill="#09F" d="M6.6 51.27c1.07 1.05 2.55 1.57 4.44 1.57.9 0 1.76-.12 2.55-.36.8-.24 1.44-.57 1.92-1.01l-1-2.77a4.69 4.69 0 01-2.88 1.08c-.84 0-1.47-.24-1.91-.73-.44-.48-.66-1.2-.66-2.17 0-.94.22-1.65.66-2.13.44-.48 1.07-.72 1.89-.72a4.67 4.67 0 012.9 1.08l1-2.81a5.05 5.05 0 00-1.88-1 8.04 8.04 0 00-2.42-.38c-1.23 0-2.31.25-3.25.76a5.39 5.39 0 00-2.18 2.12A6.3 6.3 0 005 46.97c0 1.82.53 3.25 1.6 4.3zm14.98-10.35c1.23 0 2.3.25 3.22.73.9.47 1.63 1.2 2.12 2.07.5.9.74 1.95.74 3.16a6.4 6.4 0 01-.74 3.16 5.14 5.14 0 01-2.12 2.07c-.92.49-1.99.73-3.22.73a6.94 6.94 0 01-3.25-.72 5.03 5.03 0 01-2.13-2.07c-.5-.9-.74-1.95-.74-3.17 0-1.21.25-2.27.74-3.17a5.03 5.03 0 012.13-2.07c.93-.48 2-.72 3.25-.72zm0 3.06c-.72 0-1.27.24-1.64.71-.36.47-.55 1.2-.55 2.2 0 1 .19 1.74.55 2.2.37.48.92.72 1.65.72 1.43 0 2.15-.98 2.15-2.93 0-.99-.18-1.72-.54-2.19-.36-.47-.9-.7-1.61-.7zm8.2 7.29c1.07 1.05 2.55 1.57 4.44 1.57.9 0 1.76-.12 2.56-.36s1.44-.57 1.92-1.01l-1.01-2.77a4.69 4.69 0 01-2.88 1.08c-.83 0-1.47-.24-1.9-.73-.44-.48-.66-1.2-.66-2.17 0-.94.22-1.65.65-2.13.44-.48 1.07-.72 1.9-.72a4.65 4.65 0 012.9 1.08l1-2.81a5.04 5.04 0 00-1.89-1 8.04 8.04 0 00-2.41-.38c-1.23 0-2.32.25-3.25.76a5.39 5.39 0 00-2.19 2.12 6.3 6.3 0 00-.78 3.17c0 1.82.54 3.25 1.6 4.3zm15-10.35c1.22 0 2.3.25 3.2.73.9.47 1.64 1.2 2.13 2.07.5.9.74 1.95.74 3.16 0 1.22-.25 2.27-.74 3.16a5.14 5.14 0 01-2.12 2.07c-.92.49-1.99.73-3.22.73a6.94 6.94 0 01-3.25-.72 5.03 5.03 0 01-2.13-2.07c-.5-.9-.74-1.95-.74-3.17 0-1.21.25-2.27.74-3.17a5.04 5.04 0 012.13-2.07c.93-.48 2-.72 3.25-.72zm-.01 3.06c-.73 0-1.28.24-1.65.71-.36.47-.55 1.2-.55 2.2 0 1 .19 1.74.55 2.2.37.48.92.72 1.65.72 1.43 0 2.15-.98 2.15-2.93 0-.99-.18-1.72-.54-2.19-.36-.47-.9-.7-1.61-.7z"/></svg>