<svg xmlns="http://www.w3.org/2000/svg" viewBox="0 0 90 90" fill="none" fill-rule="evenodd"><path fill="#fff" opacity="0" d="M0 0h90v90H0z"/><g fill-rule="nonzero"><rect width="90" height="90" fill="#884ffc" rx="8.824"/><path fill="#fff" d="M51.176 11.47c0 2.924-2.568 5.294-5.735 5.294s-5.736-2.37-5.736-5.294 2.568-5.294 5.736-5.294 5.735 2.37 5.735 5.294m17.647 27.486c0 1.077-.627 2.057-1.609 2.514l-4.739 2.207 4.739 2.207c.982.457 1.609 1.437 1.609 2.514 0 2.033-2.128 3.377-3.981 2.513l-7.846-3.653c-1.399-.651-2.291-2.047-2.291-3.581s.893-2.93 2.291-3.581l7.846-3.654c1.853-.863 3.981.481 3.981 2.514zM52.93 53.09c-.307 1.96-1.697 6.027-7.929 6.027s-7.622-4.067-7.93-6.027c-.085-.541.315-1.032.838-1.032h14.183c.523 0 .924.49.838 1.032zm-20.283-7.061c0 2.356-1.975 4.265-4.412 4.265s-4.412-1.909-4.412-4.265v-4.705c0-2.356 1.975-4.265 4.412-4.265s4.412 1.909 4.412 4.265v4.705zm35.034-27.499H57.143a4.77 4.77 0 0 0-3.656 1.709l-1.37 1.635a4.77 4.77 0 0 1-3.656 1.709h-6.923a4.77 4.77 0 0 1-3.656-1.709l-1.37-1.635a4.77 4.77 0 0 0-3.656-1.709H22.319c-4.042 0-7.319 3.295-7.319 7.361v34.69c0 4.065 3.277 7.361 7.319 7.361h45.362c4.042 0 7.319-3.296 7.319-7.361V25.89c0-4.066-3.277-7.361-7.319-7.361h0zM54.064 74.118H37.7c-2.304 0-4.171 1.777-4.171 3.971s1.867 3.971 4.171 3.971h16.364c2.303 0 4.171-1.777 4.171-3.971s-1.868-3.971-4.171-3.971"/></g></svg>