<svg viewBox="0 0 90 90" xmlns="http://www.w3.org/2000/svg"><path d="M45.018 77.21c6.18 0 12.16.854 17.827 2.462A17445.674 17445.674 0 0 1 44.982 90s-12.89-7.433-17.863-10.31a65.461 65.461 0 0 1 17.899-2.48Zm-21.37-63.988c.098-.36.188-.72.278-1.079C20.067 14.373 6 22.49 6 22.49v20.664A65.405 65.405 0 0 0 17.117 28.88a65.403 65.403 0 0 0 6.53-15.657ZM83.99 60.024c.009 3.011.009 7.47.009 7.47s-4.281 2.471-6.458 3.73c-9.912-4.504-20.921-7.011-32.524-7.011-11.603 0-22.621 2.507-32.533 7.02C10.101 69.856 6 67.502 6 67.502v-7.434a78.05 78.05 0 0 0 19.968-20.745 90.009 90.009 0 0 0 2.428-3.928c5.802-10.049 9.139-20.844 10.19-31.684L45 0s4.47 2.589 6.512 3.766c1.052 10.831 4.38 21.617 10.182 31.648 5.783 10.022 13.455 18.291 22.297 24.61Zm-26.786-8a89.908 89.908 0 0 1-6.79-10.12c-.027-.045-.054-.09-.072-.126a90.822 90.822 0 0 1-5.307-10.795 90.765 90.765 0 0 1-5.379 10.903 89.873 89.873 0 0 1-6.809 10.138 88.982 88.982 0 0 1 12.17-.818 90.7 90.7 0 0 1 12.187.818Zm8.95-39.827c.207.827.432 1.654.684 2.48a65.643 65.643 0 0 0 6.116 14.22A64.906 64.906 0 0 0 84 43.09V22.48s-14.076-8.108-17.845-10.283Z" fill="#F05323"/></svg>