<svg viewBox="0 0 90 90" xmlns="http://www.w3.org/2000/svg"><g fill="none"><path fill="#FFF" d="M0 0h90v90H0z"/><path d="M36.965 16.085 15 30.608v27.79L40.124 41.78c1.749-1.151 3.165-3.78 3.165-5.86V19.446c0-4.167-2.83-5.675-6.326-3.362" fill="#BCA1CC"/><path d="M36.014 44.5 15 58.397l21.962 14.52c1.111.734 2.155 1.083 3.063 1.083 1.945 0 3.262-1.604 3.262-4.443V53.084c0-2.085-1.414-4.707-3.165-5.865L36.014 44.5" fill="#7F3F98"/><path fill="#7F3F98" d="M15.001 30.608v27.788l22.502-12.911z"/><path d="M53.037 16.085 75 30.608v27.79L49.876 41.78c-1.747-1.151-3.165-3.78-3.165-5.86V19.446c0-4.167 2.832-5.675 6.324-3.362" fill="#BCA1CC"/><path d="m53.988 44.5-4.113 2.72c-1.746 1.156-3.164 3.779-3.164 5.866v16.47c0 2.84 1.317 4.444 3.263 4.444.907 0 1.951-.347 3.061-1.083L75 58.396 53.988 44.5" fill="#7F3F98"/><path fill="#7F3F98" d="m74.999 30.608-22.56 14.915 22.56 12.873z"/></g></svg>