<svg viewBox="0 0 90 90" xmlns="http://www.w3.org/2000/svg"><g fill="none"><path d="M39.045.348S41.988 0 45 0s5.955.348 5.955.348l2.55 10.8a34.637 34.637 0 0 1 9.407 3.94l9.43-5.886s2.364 1.854 4.473 3.986a58.798 58.798 0 0 1 3.963 4.45l-5.863 9.434a34.68 34.68 0 0 1 3.94 9.433l10.797 2.55S90 42.022 90 45.012c0 2.99-.348 5.956-.348 5.956l-10.82 2.527a34.68 34.68 0 0 1-3.894 9.433l5.84 9.434s-1.854 2.364-3.963 4.473c-2.109 2.086-4.472 3.94-4.472 3.94l-9.408-5.84a34.66 34.66 0 0 1-9.454 3.916l-2.526 10.801S47.99 90 45 90s-5.955-.348-5.955-.348l-2.55-10.8a34.66 34.66 0 0 1-9.407-3.918l-9.43 5.864s-2.364-1.854-4.473-3.963a58.798 58.798 0 0 1-3.963-4.473l5.84-9.434a34.68 34.68 0 0 1-3.893-9.433L.348 50.945S0 48.002 0 45.012c0-2.99.348-5.98.348-5.98l10.82-2.527a34.68 34.68 0 0 1 3.894-9.433l-5.84-9.41s1.854-2.341 3.963-4.45c2.109-2.11 4.472-3.987 4.472-3.987l9.408 5.864a34.66 34.66 0 0 1 9.454-3.917L39.045.348Z" fill="#D85427"/><path d="M55.474 49.786a11.68 11.68 0 0 1-4.055 4.798 12.047 12.047 0 0 1-6.442 1.993 11.815 11.815 0 0 1-4.496-.88 12.212 12.212 0 0 1-5.12-4.242 12.008 12.008 0 0 1-1.993-6.42c0-1.623.3-3.13.857-4.497a11.472 11.472 0 0 1 4.194-5.053 12.047 12.047 0 0 1 6.442-1.993c1.622 0 3.128.301 4.495.88a11.47 11.47 0 0 1 5.075 4.173c.301.51.626.997.857 1.553l12.814-3.291-.556-1.437a24.892 24.892 0 0 0-8.944-10.87 24.42 24.42 0 0 0-13.81-4.243c-3.245.14-6.489.812-9.432 2.063a24.911 24.911 0 0 0-10.89 8.924 24.342 24.342 0 0 0-4.24 13.79c0 3.362.694 6.606 1.946 9.62A24.892 24.892 0 0 0 31.12 65.5a24.42 24.42 0 0 0 13.81 4.242c3.36 0 6.628-.696 9.617-1.924a24.934 24.934 0 0 0 10.89-8.924 25.522 25.522 0 0 0 2.85-5.678l-12.79-3.43h-.023Z" fill="#FFF"/></g></svg>