<svg viewBox="0 0 90 90" xmlns="http://www.w3.org/2000/svg"><g fill="none" fill-rule="evenodd"><path fill="#FFAB5C" fill-rule="nonzero" d="M0 0h90v90H0z"/><path d="M64.53 57.212a52.18 52.18 0 0 1-13.818 5.758c-5.758 1.547-11.263 2.159-16.41 1.835a26.378 26.378 0 0 1-13.098-3.959 17.561 17.561 0 0 1-7.341-10.651 17.525 17.525 0 0 1 1.007-12.847 25.91 25.91 0 0 1 9.357-9.968 53.979 53.979 0 0 1 15.186-6.514c5.757-1.547 11.227-2.159 16.337-1.871 3.455.216 6.55.864 9.285 1.98A17.417 17.417 0 0 1 76.19 33.568a17.49 17.49 0 0 1-1.943 14.395 5.758 5.758 0 0 0-1.368-2.627l-1.08-1.044a11.084 11.084 0 0 0-2.986-1.511 18.065 18.065 0 0 0-5.758-.864 18.353 18.353 0 0 0-5.721.864A9.248 9.248 0 0 0 53.23 45.3a6.154 6.154 0 0 0-1.511 4.318 6.118 6.118 0 0 0 1.511 4.21 9.356 9.356 0 0 0 4.103 2.591 18.1 18.1 0 0 0 7.197.792Zm-18.28-3.095a6.477 6.477 0 0 1-2.123 1.368 20.26 20.26 0 0 1-16.194 0 7.413 7.413 0 0 1-2.699-2.375c-.647-.972-.971-2.16-.971-3.599 0-1.403.36-2.591.971-3.563.72-.971 1.548-1.763 2.663-2.375 1.116-.575 2.375-1.007 3.743-1.295a22.023 22.023 0 0 1 12.45 1.187 6.84 6.84 0 0 1 2.16 1.548l-3.743 2.483a5.398 5.398 0 0 0-2.519-1.44 15.618 15.618 0 0 0-6.441-.36 8.691 8.691 0 0 0-2.16.648 4.596 4.596 0 0 0-1.619 1.224 3.203 3.203 0 0 0-.575 2.015c0 .792.18 1.44.575 1.98.44.534.993.964 1.62 1.259a8.277 8.277 0 0 0 2.159.647c2.16.354 4.37.231 6.477-.36 1.152-.431 1.944-.9 2.411-1.403l3.815 2.52v-.109Zm16.841-.54c2.016 0 3.599-.36 4.75-1.08 1.08-.719 1.656-1.727 1.656-2.95 0-1.26-.54-2.231-1.692-2.879-1.08-.72-2.698-1.08-4.678-1.08a8.996 8.996 0 0 0-4.822 1.08 3.275 3.275 0 0 0-1.691 2.879c0 1.223.54 2.195 1.691 2.915 1.152.72 2.735 1.08 4.786 1.08v.035Z" fill="#83254F"/></g></svg>