<svg xmlns="http://www.w3.org/2000/svg" viewBox="0 0 90 90"><g fill-rule="evenodd"><path fill="#FFF" d="M0 0h90v90H0z"/><path d="M62.047 62.125A23.86 23.86 0 0 1 45 69.25a23.857 23.857 0 0 1-17.047-7.125h34.094Zm3.63-4.75H24.323A23.55 23.55 0 0 1 21.129 45.5c0-13.116 10.688-23.75 23.871-23.75 13.183 0 23.871 10.634 23.871 23.75 0 4.326-1.162 8.382-3.194 11.875Zm7.572-7.125a28.53 28.53 0 0 0 .396-4.75C73.645 29.76 60.82 17 45 17S16.355 29.76 16.355 45.5c0 1.618.135 3.205.396 4.75h-5.17L8 62.125h13.73A28.656 28.656 0 0 0 45 74a28.654 28.654 0 0 0 23.27-11.875H82L78.42 50.25h-5.171Z" fill="#3251BB" fill-rule="nonzero"/></g></svg>