<svg width="90" height="90" viewBox="0 0 90 90" xmlns="http://www.w3.org/2000/svg"><g fill="none" fill-rule="evenodd"><rect fill="#FFD900" width="90" height="90"/><g transform="translate(25 18)" fill-rule="nonzero"><path d="M24.5210449,21.16 C24.5210449,20.102 25.3660661,19.232 26.4310661,19.232 C27.4790661,19.232 28.3210661,20.102 28.3210661,21.16 C28.3210661,22.22 27.4770661,23.081 26.4310661,23.081 C25.9228475,23.0807397 25.4356657,22.8780505 25.0772403,22.5177486 C24.718815,22.1574466 24.5186725,21.669213 24.5210449,21.161 L24.5210449,21.16 Z M18.5900661,4.768 L18.5750661,4.768 L18.5750661,7.405 L20.9950661,7.405 L20.9950661,4.847 C21.8561285,4.4117825 22.3987575,3.52880162 22.3980668,2.564 C22.3900661,1.144 21.2570661,0 19.8600661,0 C19.1826378,0.00131999776 18.5335985,0.272244376 18.056275,0.752945126 C17.5789515,1.23364588 17.3126099,1.88457919 17.3160329,2.562 C17.3160329,3.512 17.8310661,4.326 18.5890661,4.768 L18.5900661,4.768 Z M13.3050661,23.079 C14.3616809,23.0745905 15.2152812,22.2156216 15.2130704,21.159 C15.2130704,20.1 14.3570661,19.23 13.3050661,19.23 C12.2500661,19.23 11.3950661,20.1 11.3950661,21.158 C11.3950661,22.22 12.2480661,23.079 13.3050661,23.079 Z M19.8600661,53 C22.7250661,53 25.1600661,51.145 26.0940661,48.588 L13.6300661,48.588 C14.5520661,51.145 16.9920661,53 19.8600661,53 Z M3.27325863e-05,45.185 C3.27325863e-05,44.162 0.589066103,43.283 1.4430661,42.877 L1.4430661,31.972 C1.4430661,29.815 3.1010661,28.059 5.1950661,27.912 L5.1950661,22.644 C5.1950661,22.644 5.7070661,13.036 13.6350661,10.039 C15.9860661,9.156 18.1330661,8.798 19.9990661,8.727 C21.8650661,8.8 24.0190661,9.156 26.3630661,10.041 C34.2910661,13.027 34.7980661,22.646 34.7980661,22.646 L34.7980661,27.938 C36.9010661,28.066 38.5550661,29.821 38.5550661,31.978 L38.5550661,42.877 C39.441187,43.3057458 40.0029768,44.2046095 40.0000821,45.189 C40.0024568,45.8640575 39.7364453,46.5123869 39.2606074,46.9912257 C38.7847695,47.4700646 38.1381253,47.7401468 37.4630661,47.742 C36.7877421,47.7404112 36.1407386,47.4704778 35.6645258,46.9916392 C35.188313,46.5128006 34.9219414,45.8643226 34.9240661,45.189 C34.9240661,44.164 35.5110661,43.288 36.3600661,42.877 L36.3600661,35.603 C35.8726723,35.8421758 35.3443341,35.9867308 34.8030661,36.029 L34.8030661,38.557 C34.8200661,38.767 34.8380661,38.97 34.8380661,39.176 C34.8380661,39.401 34.8210661,39.609 34.8030661,39.843 L34.8030661,39.905 L34.7940661,39.905 C34.4630661,44.109 31.1780661,47.505 27.0360661,47.967 L27.0400661,48.017 L12.9500661,48.017 L12.9520661,47.967 C8.8090661,47.501 5.5400661,44.127 5.1960661,39.905 L5.1900661,39.905 L5.1900661,39.843 C5.1703346,39.6212112 5.16032501,39.3986647 5.1600661,39.176 C5.1600661,38.973 5.1770661,38.772 5.1900661,38.557 L5.1900661,36.03 C4.64785817,35.9876266 4.11855624,35.8430865 3.6300661,35.604 L3.6300661,42.878 C4.51769174,43.3055124 5.08090732,44.2047903 5.0780661,45.19 C5.0796591,45.8660259 4.81243042,46.5149527 4.33525144,46.9938198 C3.85807246,47.4726869 3.21009336,47.7422056 2.5340661,47.743 C1.85874001,47.7400899 1.21226023,47.4688861 0.736984155,46.9891085 C0.261708078,46.509331 -0.00338980225,45.8603235 3.27325863e-05,45.185 Z M24.2280678,31.774 C24.2280678,31.089 23.6780661,30.532 23.0080661,30.532 C22.3300661,30.532 21.7940661,31.089 21.7940661,31.774 C21.7908693,32.0986009 21.9171686,32.4110917 22.1450118,32.6423132 C22.3728551,32.8735347 22.6834534,33.0044193 23.0080661,33.006 C23.6842484,33.0005033 24.229188,32.4502037 24.2280678,31.774 L24.2280678,31.774 Z M27.2410661,31.774 C27.2410661,31.089 26.6870661,30.532 26.0170661,30.532 C25.3480661,30.532 24.8010661,31.089 24.8010661,31.774 C24.8010661,32.452 25.3510661,33.006 26.0170661,33.006 C26.6929901,32.9983635 27.2378331,32.4499594 27.2410661,31.774 L27.2410661,31.774 Z M30.2650661,31.774 C30.2650661,31.089 29.7140661,30.532 29.0350661,30.532 C28.3518899,30.532 27.7980661,31.0858238 27.7980661,31.769 C27.7980661,32.4521762 28.3518899,33.006 29.0350661,33.006 C29.7137883,33.0027087 30.2628775,32.4527266 30.2650661,31.774 L30.2650661,31.774 Z M9.7040661,21.51 C9.7040661,24.785 12.2430661,24.997 12.2430661,24.997 C13.1230661,25.282 14.9980661,25.147 15.8380661,24.997 C16.6180661,24.869 19.4740661,24.622 19.9240661,24.582 L19.9940661,24.584 L20.0580661,24.582 C20.5190661,24.62 23.3680661,24.869 24.1440661,24.997 C24.9970661,25.147 26.8660661,25.282 27.7460661,24.997 C27.7460661,24.997 30.2830661,24.794 30.2830661,21.51 C30.2830661,21.51 30.2830661,17.875 27.7460661,15.663 C25.2820661,13.529 21.5690661,13.061 20.1310661,13.039 L19.8550661,13.039 C18.4130661,13.061 14.7000661,13.532 12.2360661,15.663 C9.7040661,17.875 9.7040661,21.51 9.7040661,21.51 L9.7040661,21.51 Z" fill="#000"/><path d="M24.5210449,21.16 C24.5210449,20.102 25.3660661,19.232 26.4310661,19.232 C27.4790661,19.232 28.3210661,20.102 28.3210661,21.16 C28.3210661,22.22 27.4770661,23.081 26.4310661,23.081 C25.9228475,23.0807397 25.4356657,22.8780505 25.0772403,22.5177486 C24.718815,22.1574466 24.5186725,21.669213 24.5210449,21.161 L24.5210449,21.16 Z M18.5900661,4.768 L18.5750661,4.768 L18.5750661,7.405 L20.9950661,7.405 L20.9950661,4.847 C21.8561285,4.4117825 22.3987575,3.52880162 22.3980668,2.564 C22.3900661,1.144 21.2570661,0 19.8600661,0 C19.1826378,0.00131999776 18.5335985,0.272244376 18.056275,0.752945126 C17.5789515,1.23364588 17.3126099,1.88457919 17.3160329,2.562 C17.3160329,3.512 17.8310661,4.326 18.5890661,4.768 L18.5900661,4.768 Z M13.3050661,23.079 C14.3616809,23.0745905 15.2152812,22.2156216 15.2130704,21.159 C15.2130704,20.1 14.3570661,19.23 13.3050661,19.23 C12.2500661,19.23 11.3950661,20.1 11.3950661,21.158 C11.3950661,22.22 12.2480661,23.079 13.3050661,23.079 Z M19.8600661,53 C22.7250661,53 25.1600661,51.145 26.0940661,48.588 L13.6300661,48.588 C14.5520661,51.145 16.9920661,53 19.8600661,53 Z M3.27325863e-05,45.185 C3.27325863e-05,44.162 0.589066103,43.283 1.4430661,42.877 L1.4430661,31.972 C1.4430661,29.815 3.1010661,28.059 5.1950661,27.912 L5.1950661,22.644 C5.1950661,22.644 5.7070661,13.036 13.6350661,10.039 C15.9860661,9.156 18.1330661,8.798 19.9990661,8.727 C21.8650661,8.8 24.0190661,9.156 26.3630661,10.041 C34.2910661,13.027 34.7980661,22.646 34.7980661,22.646 L34.7980661,27.938 C36.9010661,28.066 38.5550661,29.821 38.5550661,31.978 L38.5550661,42.877 C39.441187,43.3057458 40.0029768,44.2046095 40.0000821,45.189 C40.0024568,45.8640575 39.7364453,46.5123869 39.2606074,46.9912257 C38.7847695,47.4700646 38.1381253,47.7401468 37.4630661,47.742 C36.7877421,47.7404112 36.1407386,47.4704778 35.6645258,46.9916392 C35.188313,46.5128006 34.9219414,45.8643226 34.9240661,45.189 C34.9240661,44.164 35.5110661,43.288 36.3600661,42.877 L36.3600661,35.603 C35.8726723,35.8421758 35.3443341,35.9867308 34.8030661,36.029 L34.8030661,38.557 C34.8200661,38.767 34.8380661,38.97 34.8380661,39.176 C34.8380661,39.401 34.8210661,39.609 34.8030661,39.843 L34.8030661,39.905 L34.7940661,39.905 C34.4630661,44.109 31.1780661,47.505 27.0360661,47.967 L27.0400661,48.017 L12.9500661,48.017 L12.9520661,47.967 C8.8090661,47.501 5.5400661,44.127 5.1960661,39.905 L5.1900661,39.905 L5.1900661,39.843 C5.1703346,39.6212112 5.16032501,39.3986647 5.1600661,39.176 C5.1600661,38.973 5.1770661,38.772 5.1900661,38.557 L5.1900661,36.03 C4.64785817,35.9876266 4.11855624,35.8430865 3.6300661,35.604 L3.6300661,42.878 C4.51769174,43.3055124 5.08090732,44.2047903 5.0780661,45.19 C5.0796591,45.8660259 4.81243042,46.5149527 4.33525144,46.9938198 C3.85807246,47.4726869 3.21009336,47.7422056 2.5340661,47.743 C1.85874001,47.7400899 1.21226023,47.4688861 0.736984155,46.9891085 C0.261708078,46.509331 -0.00338980225,45.8603235 3.27325863e-05,45.185 Z M24.2280678,31.774 C24.2280678,31.089 23.6780661,30.532 23.0080661,30.532 C22.3300661,30.532 21.7940661,31.089 21.7940661,31.774 C21.7908693,32.0986009 21.9171686,32.4110917 22.1450118,32.6423132 C22.3728551,32.8735347 22.6834534,33.0044193 23.0080661,33.006 C23.6842484,33.0005033 24.229188,32.4502037 24.2280678,31.774 L24.2280678,31.774 Z M27.2410661,31.774 C27.2410661,31.089 26.6870661,30.532 26.0170661,30.532 C25.3480661,30.532 24.8010661,31.089 24.8010661,31.774 C24.8010661,32.452 25.3510661,33.006 26.0170661,33.006 C26.6929901,32.9983635 27.2378331,32.4499594 27.2410661,31.774 L27.2410661,31.774 Z M30.2650661,31.774 C30.2650661,31.089 29.7140661,30.532 29.0350661,30.532 C28.3518899,30.532 27.7980661,31.0858238 27.7980661,31.769 C27.7980661,32.4521762 28.3518899,33.006 29.0350661,33.006 C29.7137883,33.0027087 30.2628775,32.4527266 30.2650661,31.774 L30.2650661,31.774 Z M9.7040661,21.51 C9.7040661,24.785 12.2430661,24.997 12.2430661,24.997 C13.1230661,25.282 14.9980661,25.147 15.8380661,24.997 C16.6180661,24.869 19.4740661,24.622 19.9240661,24.582 L19.9940661,24.584 L20.0580661,24.582 C20.5190661,24.62 23.3680661,24.869 24.1440661,24.997 C24.9970661,25.147 26.8660661,25.282 27.7460661,24.997 C27.7460661,24.997 30.2830661,24.794 30.2830661,21.51 C30.2830661,21.51 30.2830661,17.875 27.7460661,15.663 C25.2820661,13.529 21.5690661,13.061 20.1310661,13.039 L19.8550661,13.039 C18.4130661,13.061 14.7000661,13.532 12.2360661,15.663 C9.7040661,17.875 9.7040661,21.51 9.7040661,21.51 L9.7040661,21.51 Z" fill="#4A4FFF"/></g></g></svg>