<svg xmlns="http://www.w3.org/2000/svg" viewBox="0 0 90 90"><path fill="#962CFF" d="M0 0h90v90H0z"/><path fill="#F8F8F8" d="M41.26 13.16l16.87 24.1a13.61 13.61 0 01-3.26 18.9l-.75.52a4.46 4.46 0 01-6.24-1.08l-.44-.64a3.75 3.75 0 01.12-4.46 6.11 6.11 0 003.2-4.25 6.27 6.27 0 00-.92-5.2L38.02 24.16c-4.17 1.53-12.93 7.03-14.6 16.77a22.18 22.18 0 0013.5 24.35l5.2 7.31c1.43 2.1-.09 4.83-2.58 4.36l-.9-.19C22.18 73.08 11 56.57 13.99 39.28c3.21-14 13.82-24.47 27.28-26.12zm6.62 4.25c-1.43-2.1.1-4.83 2.58-4.36l.9.19C67.83 16.93 79 33.43 76.02 50.72c-3.2 14-13.82 24.47-27.28 26.12l-16.87-24.1a13.62 13.62 0 013.26-18.9l.75-.52a4.46 4.46 0 016.24 1.08l.44.64a3.75 3.75 0 010 4.3 6.12 6.12 0 00-2.18 9.93l11.6 16.57c4.17-1.53 12.92-7.03 14.6-16.77a22.18 22.18 0 00-13.5-24.35z"/></svg>