<svg viewBox="0 0 90 90" xmlns="http://www.w3.org/2000/svg"><g fill="none"><path d="M78.595 29.345C71.91 22.699 68.19 19.008 63.333 19.008c-4.857 0-8.572 3.691-15.261 10.337-6.69 6.645-10.405 10.336-10.405 15.158 0 4.822 3.718 8.518 10.405 15.16C54.758 66.307 58.476 70 63.333 70c4.857 0 8.576-3.69 15.262-10.336C85.282 53.018 89 49.328 89 44.503c0-4.825-3.718-8.525-10.405-15.158Z" fill="#B2C3FF"/><g fill="#3E68FF"><path d="M12.561 63.598a1.72 1.72 0 0 0 .423 2.471 25.803 25.803 0 0 0 16.423 3.78 25.738 25.738 0 0 0 15.241-7.158 25.435 25.435 0 0 0 7.484-15.006 25.36 25.36 0 0 0-3.503-16.382 25.628 25.628 0 0 0-12.977-10.69 25.828 25.828 0 0 0-16.854-.385A25.65 25.65 0 0 0 5.34 30.312a25.37 25.37 0 0 0-4.258 16.203 1.71 1.71 0 0 0 .67 1.224 1.736 1.736 0 0 0 1.363.327 1.967 1.967 0 0 0 1.21-.732c.298-.385.441-.866.401-1.35a21.855 21.855 0 0 1 3.782-13.88 22.098 22.098 0 0 1 11.616-8.58 22.248 22.248 0 0 1 14.469.396 22.075 22.075 0 0 1 11.121 9.204 21.845 21.845 0 0 1 3.007 14.065 21.908 21.908 0 0 1-6.396 12.9 22.17 22.17 0 0 1-13.059 6.203 22.227 22.227 0 0 1-14.123-3.151 1.958 1.958 0 0 0-2.58.445"/><path d="M38.514 32.868a1.68 1.68 0 0 0 .531-1.265 1.67 1.67 0 0 0-.593-1.237 18.545 18.545 0 0 0-6.787-3.479 18.62 18.62 0 0 0-14.783 2.178 18.447 18.447 0 0 0-5.478 5.286A18.154 18.154 0 0 0 8.5 41.82a18.11 18.11 0 0 0 .599 7.985 18.194 18.194 0 0 0 3.986 6.96 18.346 18.346 0 0 0 6.603 4.59 18.66 18.66 0 0 0 9.761 1.194 18.605 18.605 0 0 0 9.003-3.93 1.688 1.688 0 0 0 .594-1.241 1.678 1.678 0 0 0-.532-1.268 2.01 2.01 0 0 0-2.63-.08 14.886 14.886 0 0 1-5.426 2.652 14.945 14.945 0 0 1-6.039.283 14.904 14.904 0 0 1-5.652-2.132 14.804 14.804 0 0 1-4.328-4.195 14.537 14.537 0 0 1-1.85-12.403 14.605 14.605 0 0 1 3.2-5.585 14.728 14.728 0 0 1 5.299-3.685 14.954 14.954 0 0 1 7.668-.982 14.916 14.916 0 0 1 7.127 2.977 2.012 2.012 0 0 0 2.631-.08"/></g></g></svg>