<svg xmlns="http://www.w3.org/2000/svg" viewBox="0 0 90 90" fill-rule="evenodd" xmlns:v="https://vecta.io/nano"><path fill="#fff" d="M0 0h90v90H0z"/><path fill="#222" fill-rule="nonzero" d="M63.187 18.303L45.5 0 27.775 18.303c5.026-3.592 11.111-5.71 17.687-5.71 6.614.038 12.699 2.155 17.725 5.71h0zM89 45L71.275 26.66a32.94 32.94 0 0 1 4.989 12.555l-20.975 1.664c-1.55-4.008-5.367-6.845-9.788-6.845-5.82 0-10.582 4.878-10.582 10.929 0 6.013 4.724 10.929 10.582 10.929 4.46 0 8.239-2.836 9.788-6.845l20.975 1.664c-.794 4.613-2.532 8.849-4.989 12.555L89 45zM2 45l17.687 18.303A33.13 33.13 0 0 1 14.207 45c0-6.807 2.041-13.122 5.48-18.34L2 45zm25.775 26.697L45.462 90l17.687-18.303c-5.026 3.592-11.111 5.672-17.687 5.672-6.538 0-12.623-2.08-17.687-5.672z"/></svg>