<svg viewBox="0 0 90 90" xmlns="http://www.w3.org/2000/svg"><g fill="none"><path fill="#FF4D15" d="M0 0h90v90H0z"/><path d="M66.266 70c3.886 0 6.089-4.48 3.725-7.56l-1.08-1.36A7.937 7.937 0 0 0 62.66 58h-9.65c-4.007 0-7.772-1.8-10.296-5.04a13.155 13.155 0 0 1-2.604-6.32c-.481-4.08.882-8 3.726-10.84a12.978 12.978 0 0 1 9.212-3.8h8.012a3.947 3.947 0 0 0 3.164-1.56l.402-.52c.6-.76.04-1.92-.962-1.92H53.047c-4.767 0-9.252 1.96-12.538 5.52-2.724 2.92-4.325 6.8-4.486 10.8a16.888 16.888 0 0 0 4.968 12.72c3.244 3.24 7.49 5 12.056 5h9.614c1.243 0 2.404.56 3.164 1.56l.402.52c.279.362.326.851.121 1.26a1.2 1.2 0 0 1-1.084.66H53.047c-5.608 0-10.894-2.2-14.86-6.16-8.212-8.2-8.212-21.52 0-29.72C42.153 26.2 47.439 24 53.047 24h14.14a3.947 3.947 0 0 0 3.166-1.56l.4-.52c.6-.76.04-1.92-.963-1.92H53.007c-6.69 0-12.978 2.6-17.705 7.32-9.774 9.76-9.774 25.6 0 35.36A24.894 24.894 0 0 0 53.007 70h13.259ZM31.698 25.28c.48-.48.08-1.32-.6-1.32l-2.003-.04c-1.002 0-1.963.48-2.564 1.28A32.836 32.836 0 0 0 20 44.92c0 7.28 2.322 14.16 6.568 19.8.602.8 1.563 1.24 2.565 1.24h2.002c.721 0 1.081-.8.602-1.32-4.968-5.28-7.732-12.24-7.732-19.68 0-7.4 2.724-14.32 7.69-19.68h.002Z" fill="#FFF"/></g></svg>