<svg xmlns="http://www.w3.org/2000/svg" viewBox="0 0 90 90"><path fill="#FFF" d="M0 0h90v90H0z"/><g fill="#FF9C00"><path d="M42.07.19c0 .1-.4.19-.9.19-.85.02-3.88.4-4.98.64-1.42.3-3.2.74-3.7.9a43.72 43.72 0 00-19.23 11.35 44.81 44.81 0 00-9.62 14.2C2.11 30.9.38 37.78.38 40.41c0 .38-.07.7-.19.7-.24 0-.26 7.07-.01 7.55.09.17.3 1.3.47 2.5.53 3.83 1.12 6.2 2.44 9.66a44.6 44.6 0 0013.64 18.83c3.5 2.83 8.99 6 12.64 7.32a48.6 48.6 0 005.5 1.67c2.04.49 2.67.6 4.6.81 1.12.13 2.03.3 2.03.4 0 .07 1.63.15 3.6.15 1.99 0 3.6-.08 3.6-.15 0-.08.96-.27 2.14-.4 2.14-.25 2.56-.32 4.94-.87 3.15-.76 7.96-2.6 10.73-4.13a45.65 45.65 0 0018.58-19.27c1.92-3.89 2.73-6.27 3.96-11.65.1-.42.29-1.73.42-2.9a7.9 7.9 0 01.38-2.12c.07 0 .15-1.5.15-3.32 0-1.82-.08-3.32-.15-3.32-.08 0-.25-.98-.38-2.2-.13-1.2-.32-2.59-.44-3.08-.45-2.05-.6-2.66-1.06-4.19-1.44-5-3.9-9.9-7.22-14.3a67.14 67.14 0 00-4.3-4.9l-1.13-1.05a48.09 48.09 0 00-7.68-5.65C63 3.96 59.78 2.6 55.88 1.6A42.65 42.65 0 0048.47.38c-.51 0-.91-.1-.91-.2S46.52 0 44.81 0c-1.7 0-2.74.08-2.74.19zm7.92 10.52c3.8.56 6.72 1.44 9.98 3A35.03 35.03 0 0178.4 35.35c1 3.39 1.26 5.28 1.27 9.57 0 4.16-.1 5.32-.89 8.52a34.99 34.99 0 01-14.57 20.7c-5 3.29-10.68 5.2-16.56 5.6a34.33 34.33 0 01-18.56-3.79c-2-1-5.16-3.09-6.44-4.24-4.21-3.8-6.67-7-8.89-11.64a34.63 34.63 0 01-2.3-23.5c.78-3.08 1.09-3.91 2.77-7.29 4.27-8.54 11.79-14.7 21.68-17.71.62-.2 3.03-.67 4.64-.93 1.74-.28 7.39-.23 9.44.08z"/><path d="M41.02 16.98a28.64 28.64 0 00-21.3 15.53c-2.4 4.84-3.48 10.7-2.83 15.6 1.4 10.6 7.54 18.9 17.24 23.28 1.32.61 1.78.76 4.53 1.5 2.44.64 8.6.83 11.27.36A28.74 28.74 0 0073.06 50.9c.67-3.03.67-8.4 0-11.54a28.99 28.99 0 00-9.47-15.93 29.26 29.26 0 00-7.83-4.66 28.73 28.73 0 00-14.74-1.78zm7.49 27.64v15.63l-.42.1c-.25.05-1.63.07-3.09.05l-2.65-.05-.06-15.44c-.02-8.5 0-15.56.06-15.7.06-.16.87-.22 3.13-.22h3.03v15.63z"/></g></svg>