<svg viewBox="0 0 90 90" xmlns="http://www.w3.org/2000/svg"><g fill="none" fill-rule="evenodd"><path fill="#3861FB" fill-rule="nonzero" d="M0 0h90v90H0z"/><path d="M70.868 51.83c-1.24.771-2.699.867-3.808.25-1.409-.783-2.183-2.619-2.183-5.171v-7.637c0-3.688-1.48-6.312-3.955-7.02-4.193-1.204-7.347 3.851-8.533 5.75l-7.396 11.814v-14.44c-.083-3.323-1.178-5.31-3.258-5.91-1.376-.395-3.434-.236-5.434 2.779L19.73 58.459A28.46 28.46 0 0 1 16.36 45c0-15.791 12.845-28.637 28.632-28.637S73.623 29.21 73.623 45c0 .027.007.051.009.077 0 .027-.006.051-.004.078.15 3.058-.856 5.491-2.76 6.676v-.002Zm9.116-6.828v-.081l-.001-.078C79.894 25.612 64.233 10 44.99 10 25.7 10 10 25.7 10 45c0 19.298 15.699 35 34.993 35a34.874 34.874 0 0 0 23.79-9.334 3.179 3.179 0 0 0-2.042-5.511 3.176 3.176 0 0 0-2.284.845c-5.257 4.905-12.223 7.638-19.464 7.637-8.453 0-16.059-3.686-21.305-9.532l14.944-23.64v10.898c0 5.235 2.06 6.927 3.788 7.422 1.73.495 4.372.157 7.146-4.282l8.22-13.128c.263-.423.506-.788.727-1.104v6.638c0 4.893 1.99 8.806 5.457 10.734 3.127 1.738 7.057 1.58 10.26-.41 3.881-2.416 5.973-6.867 5.754-12.231Z" fill="#FFF"/></g></svg>