<svg viewBox="0 0 90 90" xmlns="http://www.w3.org/2000/svg"><defs><linearGradient x1="278.945%" y1="-462.093%" x2="52.571%" y2="44.245%" id="a"><stop offset="0%"/><stop stop-color="#1C60DD" stop-opacity="0" offset="100%"/></linearGradient><linearGradient x1="56.332%" y1="38.877%" x2="39.151%" y2="70.202%" id="b"><stop offset="19%"/><stop stop-color="#1C60DD" stop-opacity="0" offset="100%"/></linearGradient></defs><g fill="none" fill-rule="evenodd"><path fill="#EFF1F6" d="M0 0h90v90H0z"/><path fill="#1C60DD" opacity=".5" d="m25.503 39.24 1.838-7.027 12.952-7.486v9.38l-14.79 9.31z"/><path d="m31.632 39.487 14.584-9.055v7.437s-.221 2.454-1.287 2.911c-.789.321-13.293 7.71-13.293 7.71l-.004-9.003Z" fill="#1C60DD" opacity=".7"/><path d="m39.575 43.88 12.965-7.63v7.436s0 2.056-1.288 2.779c-.831.443-11.674 6.745-11.674 6.745l-.003-9.33Z" fill="#1C60DD" opacity=".9"/><path fill="#1C60DD" opacity=".5" d="m44.948 22.07 7.128-4.588v9.375l-7.121 4.352z"/><path fill="#1C60DD" opacity=".7" d="m50.752 27.657 7.164-4.225v9.705l-7.167 4.156z"/><path d="M56.245 14.98 61.123 12v6.466s0 3.234-1.288 3.882c-.247.13-3.564 2.058-3.564 2.058l-.026-9.425Z" fill="#1C60DD" opacity=".5"/><path d="m56.374 33.914 4.86-2.912-.112 7.43s.112 1.959-1.288 2.911c-.323.286-3.632 1.896-3.574 1.928.058.032.094-9.62.114-9.357Z" fill="#1C60DD" opacity=".9"/><path d="m62.095 21.052 3.888-2.57s.039 3.855 0 6.467a6.016 6.016 0 0 1-1.932 4.204s-2.01 1.25-1.95 1.285c.062.035-.006-9.386-.006-9.386Z" fill="#1C60DD" opacity=".7"/><path d="M40.293 24.72c-.06.126-11.89 5.988-13.683 7.999.914-.77-.778.76-.972 3.068l.562 21.68s-.904 3.753 3.54 6.303c3.17 1.82 21.496 12.21 23.746 13.265 2.25 1.057 2.83-.613 2.83-.613V55.378c-.048-.057.672-3.325-3.185-5.79-.74-.642-24.488-11.443-25.497-14.844-1.084-3.652 12.659-9.08 12.659-10.024Z" fill="#FFF"/><path d="m55.211 55.189 1.157-.836v22.42s-.558 1.12-1.157 1.227c-.07-.037 0-22.811 0-22.811Z" fill="#C0C9D7"/><path d="M26.82 35.482c.164.26.352.505.562.73a3.77 3.77 0 0 1-.592-.873c-1.4-3.604 8.747-7.657 12.975-10.365 0 0-10.263 5.089-12.297 6.864-1.798 1.568-1.927 2.516-1.927 2.516l-.217 1.325c.045-.642.06-1.216.217-1.325-.02.112 1.262.96 1.279 1.128ZM52.05 50.48c-.834-.704-11.477-5.563-18.837-9.958.437.276.827.517 1.133.72L51.78 76.245c.367.194.644.35.856.45l2.575 1.285V55.494c-.032-.025.257-3.13-3.161-5.014Z" fill="#1C60DD" fill-rule="nonzero"/><path d="M1.065 48.384a8.77 8.77 0 0 1-.795-2.6c.04.92.313 1.815.795 2.6Z" fill="url(#a)" fill-rule="nonzero" opacity=".3" transform="translate(25 12)"/><path d="M33.213 40.522c-2.605-1.54-4.763-3.055-5.832-4.308a4.93 4.93 0 0 1-.562-.732c-.019-.168-1.263-1.135-1.23-1.25-.158.11-.258.79-.302 1.436l.034 22.112c.126 1.637.252 1.7.688 2.604.636.985.951 1.359 2.087 2.37 2.665 1.626 19.167 11.05 23.707 13.49L34.346 41.231l-1.133-.709Z" fill="#1C60DD" fill-rule="nonzero"/><path d="M8.184 28.507c-2.605-1.54-4.763-3.056-5.832-4.309a4.759 4.759 0 0 1-.533-.733C1.8 23.3.551 22.332.59 22.216c-.078.075-.223.94-.267 1.586L.287 45.845c.063 1.377.332 1.759.729 2.58.567.944 1.297 1.65 2.12 2.314 2.667 1.625 19.099 11.05 23.638 13.49L9.317 29.216l-1.133-.71Z" fill="url(#b)" fill-rule="nonzero" opacity=".2" transform="translate(25 12)"/><path d="m51.457 59.59-3.622-2.232c-.643-.373-1.263-.132-.946.527v6.006c.155.223.467.942.322 1.305-.519-.025 2.06 2.135 3.519 2.95.424.237 1.217.336 1.155-.643v-7.136a.907.907 0 0 0-.428-.777Z" fill="#B0B5BE"/><path d="M51.303 59.95c-.563-.7-2.447-1.777-3.725-2.698-.322-.235-.882-.068-.875.321.08 4.545.097 6.637.36 7.527.195.68 2.329 2.107 3.542 2.911.36.244.847.302.863-.138.068-1.911 0-6.345 0-7.478a.748.748 0 0 0-.167-.447l.002.002Z" fill="#FFF"/></g></svg>