<svg viewBox="0 0 90 90" xmlns="http://www.w3.org/2000/svg"><g fill="none"><path fill="#000" d="M0 0h90v90H0z"/><path d="m29.154 59.138-6.228 6.202A29.996 29.996 0 0 1 15 45.044c0-8.08 3.02-15.597 8.68-21.234a30.216 30.216 0 0 1 12.267-7.517l1.888 8.644a21.521 21.521 0 0 0-7.738 5.074 21.191 21.191 0 0 0-6.227 14.47 21.183 21.183 0 0 0 5.472 14.657" fill="#FFB347"/><path d="M45.194 45.044 38.401 15.73a30.318 30.318 0 0 1 14.72.376 30.6 30.6 0 0 1 13.21 7.705 29.846 29.846 0 0 1 7.548 13.342c1.321 4.698 1.51 9.584.378 14.282l-29.063-6.39Z" fill="#FF9332"/><path d="M60.292 70.977c-7.172 3.946-15.098 5.074-23.024 3.007a30.23 30.23 0 0 1-12.644-6.953l6.228-6.014a21.378 21.378 0 0 0 14.154 5.262c5.66.01 11.09-2.221 15.097-6.201a21.413 21.413 0 0 0 5.095-7.893l8.681 1.88a30.093 30.093 0 0 1-13.776 16.912" fill="#EA5237"/></g></svg>