<svg xmlns="http://www.w3.org/2000/svg" viewBox="0 0 90 90" xmlns:v="https://vecta.io/nano"><defs><linearGradient id="A" x1="0%" x2="100%" y1="0%" y2="100%"><stop offset="0%" stop-color="#2ea4ff"/><stop offset="100%" stop-color="#0087ff"/></linearGradient></defs><g fill="none" fill-rule="evenodd"><path fill="url(#A)" d="M0 0h90v90H0z"/><g fill-rule="nonzero"><path fill="#fff" d="M45.021 28H77v4.891H63.108V62h-5.27V32.891H45V28z"/><path fill="#0d253e" d="M29.971 62C20.589 62 13 54.384 13 44.995a17 17 0 0 1 4.983-12.018 16.98 16.98 0 0 1 24.017 0h0l-3.69 3.693a11.76 11.76 0 0 0-16.658 0c-4.607 4.611-4.607 12.06 0 16.671a11.76 11.76 0 0 0 16.658 0L42 57.034A16.88 16.88 0 0 1 29.971 62z"/></g></g></svg>