<svg xmlns="http://www.w3.org/2000/svg" viewBox="0 0 90 90"><defs><linearGradient id="a" x1="98.48%" x2="-1.45%" y1="52.9%" y2="52.9%"><stop offset="0%" stop-color="#22E6B8"/><stop offset="100%" stop-color="#00C1CE"/></linearGradient></defs><path fill="#FFF" d="M0 0h90v90H0z"/><path fill="url(#a)" d="M40.22 22.95a12.36 12.36 0 00-17.29 0 12.14 12.14 0 00.05 17.22 12.34 12.34 0 0018.35-1.05l-5.77-5.73c-.59.68-.9 1.04-.94 1.07a4.18 4.18 0 01-5.89 0 4.1 4.1 0 01-.05-5.8 4.18 4.18 0 015.84.04L49.93 44a23.17 23.17 0 01-18.92 9.9 22.87 22.87 0 1118.36-36.5c-.67.78-2.41 2.75-5.21 5.9l5.71 5.61 9.41-10.56A30.99 30.99 0 1031.01 62c7.8 0 14.24-2.42 20.54-7.8 3.63-3.19 6.51-7.14 8.45-11.56L40.22 22.95z" transform="translate(15 14)"/></svg>