<svg viewBox="0 0 90 90" xmlns="http://www.w3.org/2000/svg"><g fill="none" fill-rule="evenodd"><path fill="#00D3CC" fill-rule="nonzero" d="M0 0h90v90H0z"/><path d="M34.75 56.5a8.75 8.75 0 1 1 0 17.5 8.75 8.75 0 0 1 0-17.5Zm20.5 0a8.75 8.75 0 1 1 0 17.5 8.75 8.75 0 0 1 0-17.5Zm-20.5-20.25a8.75 8.75 0 1 1 0 17.5 8.75 8.75 0 0 1 0-17.5Zm20.5 0a8.75 8.75 0 1 1 0 17.5 8.75 8.75 0 0 1 0-17.5ZM34.75 16a8.75 8.75 0 1 1 0 17.5 8.75 8.75 0 0 1 0-17.5Zm20.5 0a8.75 8.75 0 1 1 0 17.5 8.75 8.75 0 0 1 0-17.5Z" fill="#FFF"/></g></svg>