<svg viewBox="0 0 90 90" xmlns="http://www.w3.org/2000/svg"><defs><radialGradient cx="50%" cy="50%" fx="50%" fy="50%" r="65.811%" gradientTransform="matrix(.60663 .71891 -.79499 .54858 .594 -.134)" id="a"><stop stop-color="#0E1F50" offset="0%"/><stop stop-color="#3360A3" offset="100%"/></radialGradient></defs><g fill="none"><path d="M77.74 61.327c-7.01 10.002-18.587 16.536-31.684 16.536-21.389 0-38.729-17.43-38.729-38.931C7.327 17.43 24.667 0 46.057 0 56.236 0 65.5 3.948 72.411 10.405c1.193 1.114 1.15 2.988-.001 4.144L62.125 24.89c-1.251 1.26-3.296 1.152-4.665.024a17.883 17.883 0 0 0-11.404-4.09c-9.948 0-18.013 8.108-18.013 18.109 0 10 8.065 18.107 18.013 18.107 5.875 0 11.092-2.826 14.38-7.2L77.74 61.327Z" fill="url(#a)" transform="translate(0 4)"/><path d="m54.052 74.547 22.644-25.549-9.64-8.632-17.734 20.01-21.101-19.243-.102.12c-.05.552-.077 1.112-.077 1.679 0 4.832 1.883 9.222 4.952 12.47l.002.054.466.423c.349.342.71.67 1.086.984l19.504 17.684ZM11.549 60.626a39.048 39.048 0 0 0 7.935 10.629L9.789 82.59 0 74.13l11.549-13.504Z" fill="#0BAC80"/><path d="m34.548 56.863 24.926 22.6-.042.016 3.801 3.455L90 53.496l-9.53-8.755-18.102 19.91-20.95-19.041-8.422 9.842v.004l.466.423c.348.342.71.67 1.086.984ZM19.478 71.25l-6.237 7.287L23.028 87l7.27-8.495a38.765 38.765 0 0 1-10.82-7.256Z" fill="#23FFC2"/></g></svg>