<svg viewBox="0 0 90 90" xmlns="http://www.w3.org/2000/svg"><g fill="none" fill-rule="evenodd"><path fill="#FFF" fill-rule="nonzero" d="M0 0h90v90H0z"/><path d="m60.311 62.418-1.343-9.722-18.078 1.89c2.148-7.831 5.46-15.393 9.845-22.234l.179-.09-.537 15.573 11.455.99 4.923-21.154-21.838-6.391C32.03 23.8 23.26 40.813 24.333 60.257l11.992 8.462 23.986-6.301Z" fill="#FFF" fill-rule="nonzero"/><path d="M66.496 61.555c.435 3.153-1.545 6.135-4.607 6.94l-23.985 6.301a6.215 6.215 0 0 1-5.164-.935L20.747 65.4a6.29 6.29 0 0 1-2.649-4.793c-.591-10.71 1.506-20.982 5.768-29.113 4.233-8.073 10.98-14.64 19.86-16.378a6.21 6.21 0 0 1 2.936.135l21.837 6.391c3.187.933 5.092 4.211 4.336 7.462l-4.923 21.154a6.27 6.27 0 0 1-2.467 3.691l1.05 7.607Zm-7.528-8.858-18.078 1.89a82.803 82.803 0 0 1 3.343-9.757 79.537 79.537 0 0 1 6.502-12.477l.179-.09-.537 15.573 11.455.99 4.923-21.154-21.838-6.392C32.03 23.8 23.26 40.814 24.333 60.258l11.992 8.462 23.986-6.302-1.343-9.721Z" fill="#000"/></g></svg>