<svg viewBox="0 0 90 90" xmlns="http://www.w3.org/2000/svg"><g fill="none"><path d="M19.735 19.783v-1.862h.022l49.391 10.144v7.12L33.358 57.05l28.3 5.455V50.192h28.035C89.89 48.483 90 46.752 90 45 90 20.156 69.85 0 45.01 0 24.335 0 6.922 13.956 1.644 32.95h18.114V19.783h-.022Z" fill="#71B73B"/><path d="m70.024 73.043-7.688-1.577-.24-.044-41.463-8.5v-7.756L55.24 34.068l-27.401-5.433v12.422H.175A46.651 46.651 0 0 0 0 45c0 24.844 20.15 45 44.989 45 20.217 0 37.323-13.342 42.996-31.701h-17.96v14.744Z" fill="#71B73B"/><path d="M61.657 50.192v12.313L33.36 57.05l35.79-21.865v-7.12L19.756 17.92h-.022v15.03H1.62a44.856 44.856 0 0 0-1.468 8.106H27.84V28.634l27.4 5.434-34.606 21.098v7.755l41.462 8.5.241.045 7.688 1.577V58.298h17.961a45.15 45.15 0 0 0 1.708-8.106H61.657Z" fill="#FFF"/></g></svg>