<svg xmlns="http://www.w3.org/2000/svg" viewBox="0 0 90 90"><path fill="#F43698" d="M0 0h90v90H0z"/><path d="M67 71H30.818C26.508 71 23 67.455 23 63.097V26.903C23 22.545 26.508 19 30.818 19H67v6.033H30.818c-1.02 0-1.85.84-1.85 1.87v36.194c0 1.032.83 1.87 1.85 1.87H67V71" fill="#FFF"/><path fill="#FFF" d="M0 0h90v90H0z"/><path d="M50.8 75.966c2.974.101 5.896-.22 8.718-1.066 5.356-1.607 9.85-4.534 13.482-8.78l-.017-.016c-.997-.846-1.994-1.675-2.974-2.504l-.996-.829c-.186-.152-.355-.304-.541-.456-.388-.339-.777-.66-1.182-.982-3.447 2.284-7.231 3.604-11.404 3.773-2.095.084-4.174-.119-6.2-.677-3.43-.93-6.506-2.622-8.972-5.278-4.494-4.838-6.082-10.623-4.917-17.085.727-3.992 2.551-7.359 5.34-10.099-.592.118-1.183.254-1.758.44-4.426 1.387-7.822 4.077-10.272 8.001-1.943 3.13-2.974 6.53-3.092 10.234-.067 2.081.068 4.094.54 6.056 1.504 6.124 4.85 10.945 9.952 14.532h.05v.033c.17.119.338.254.507.372C41.221 74.41 45.8 75.831 50.8 76v-.034Z"/><path d="M52.49 58.795a18.612 18.612 0 0 1-6.15 1.557c2.602 1.471 5.457 2.199 8.566 2.267 1.013.016 2.027-.085 3.091-.254 2.62-.406 5.052-1.354 7.316-2.74l-6.42-5.414c-1.825 1.946-3.954 3.502-6.403 4.584Zm-2.568-43.676c-.27.017-.541.05-.795.084 2.602.491 5.12 1.337 7.502 2.605 4.63 2.47 8.228 6.006 10.644 10.692l1.3-1.134 4.005-3.502c-3.16-3.366-6.876-5.836-11.235-7.358A26.453 26.453 0 0 0 52.405 15c-.81 0-1.639.068-2.483.119Z"/><path d="M29.495 68.05c-3.902-4.855-6.031-10.403-5.997-16.747 0-3.197.659-6.275 1.926-9.202 1.875-4.347 4.832-7.832 8.988-10.234 3.903-2.267 8.143-3.147 12.654-2.47 4.63.71 8.465 2.926 11.54 6.394 0 0 .101.136.152.186.456-.406.929-.812 1.385-1.218l.558-.49c.473-.406.946-.829 1.419-1.235 1.081-.947 2.145-1.878 3.21-2.825-2.078-4.28-5.204-7.562-9.343-9.88-4.883-2.74-10.137-3.585-15.696-2.858-2.77.372-5.423 1.218-7.957 2.47-8.6 4.263-14.8 13.025-15.307 23.818-.085 1.776.034 3.57.304 5.345.676 4.415 2.298 8.425 4.9 12.045 2.027 2.79 4.443 5.091 7.248 6.902h.016Z"/></svg>