<svg viewBox="0 0 90 90" xmlns="http://www.w3.org/2000/svg" xmlns:xlink="http://www.w3.org/1999/xlink"><defs><linearGradient x1="114.543%" y1="33.593%" x2="-16.808%" y2="40.589%" id="a"><stop stop-color="#0B0928" offset="0%"/><stop stop-color="#2F6CFF" offset="100%"/></linearGradient><linearGradient x1="94.944%" y1="33.593%" x2="3.4%" y2="38.473%" id="c"><stop stop-color="#0B0928" offset="0%"/><stop stop-color="#2F6CFF" offset="100%"/></linearGradient><path d="M45 90c24.853 0 45-20.147 45-45S69.853 0 45 0 0 20.147 0 45s20.147 45 45 45Z" id="b"/></defs><g fill="none" fill-rule="evenodd"><path d="M45 90c24.853 0 45-20.147 45-45S69.853 0 45 0 0 20.147 0 45s20.147 45 45 45Z" fill="url(#a)" fill-rule="nonzero"/><path d="M45 90c24.853 0 45-20.147 45-45S69.853 0 45 0 0 20.147 0 45s20.147 45 45 45Z" fill="url(#a)" fill-rule="nonzero"/><path d="M45 90c24.853 0 45-20.147 45-45S69.853 0 45 0 0 20.147 0 45s20.147 45 45 45Z" fill="url(#a)" fill-rule="nonzero"/><mask id="d" fill="#fff"><use xlink:href="#b"/></mask><path d="M22.125 83.673C.63 71.64-11.355 43.696.721 22.276 5.143 14.433 18.554-1.555 30.911-4.08 41.05-6.152 69.335 6.308 69.335 6.308l-47.21 77.365Z" fill="url(#c)" fill-rule="nonzero" opacity=".447" mask="url(#d)"/><path d="M12.88 58.814c5.47 13.05 18.339 21.544 32.597 21.515 19.388-.06 35.09-15.622 35.151-34.836.028-14.13-8.543-26.884-21.71-32.305-13.168-5.42-28.333-2.439-38.416 7.553-10.082 9.992-13.09 25.023-7.622 38.073Zm3.7-13.389c0-15.815 12.936-28.636 28.893-28.636 15.952.016 28.879 12.827 28.894 28.636 0 15.815-12.936 28.635-28.894 28.635-15.957 0-28.893-12.82-28.893-28.635Z" fill="#FFF" opacity=".612"/><path fill="#FFF" fill-rule="nonzero" opacity=".612" d="M48.8 28.174h-6.366v31.542H48.8z"/></g></svg>