<svg xmlns="http://www.w3.org/2000/svg" viewBox="0 0 90 90" fill-rule="evenodd" xmlns:v="https://vecta.io/nano"><path fill="#4f04f1" d="M0 0h90v90H0z"/><path fill="#fff" fill-rule="nonzero" d="M31.907 30.209a19.12 19.12 0 0 1 3.558.929c2.07.789 5 2.855 4.721 3.296-.093.162-.86 1.277-1.674 2.437l-1.465 2.136L36 38.055c-.558-.511-1.628-1.207-2.349-1.555-1.14-.511-1.651-.604-3.651-.604-2.256-.023-2.419 0-4.116.859-2.116 1.021-3.395 2.368-4.465 4.573-.651 1.37-.721 1.718-.721 3.714s.07 2.345.721 3.714c1.07 2.205 2.349 3.552 4.465 4.573 1.698.836 1.86.882 4.116.882 2.209 0 2.419-.046 4.093-.859 3.14-1.532 5.233-3.969 9.442-10.98 1.372-2.275 3.116-4.898 3.837-5.827 4.581-5.687 11.07-7.776 17.558-5.641.814.255 1.512.557 1.581.65.047.116-.581 1.207-1.442 2.437l-1.535 2.275-.837-.209c-.465-.093-1.767-.186-2.93-.186-1.791 0-2.302.093-3.442.627-2.767 1.3-3.767 2.461-7.256 8.426-1.116 1.903-2.581 4.248-3.233 5.2-2.744 4.016-6.814 7.451-10.442 8.844C25.581 62.777 15 55.558 15 45.042c0-4.062 1.512-7.684 4.395-10.516 2.465-2.461 5.209-3.83 8.512-4.318 1.977-.279 1.977-.279 4 0zM75 44.392c0 2.878-.488 4.991-1.651 7.382-.767 1.579-1.372 2.345-2.86 3.83-3.023 2.995-6.349 4.364-10.488 4.364-1.186 0-2.744-.162-3.605-.395-1.837-.464-4.581-1.787-5.698-2.786l-.837-.72 1.512-2.182L53 51.612c.07-.07.535.209 1.047.604.488.395 1.535 1.021 2.279 1.37 1.186.557 1.628.627 3.674.627s2.488-.07 3.674-.627c1.907-.905 3.023-1.834 4.116-3.505 1.512-2.321 1.651-2.228-3.581-2.298l-4.535-.07 1.86-2.739 1.86-2.716h5.814H75v2.136z"/></svg>