<svg viewBox="0 0 90 90" xmlns="http://www.w3.org/2000/svg"><path d="M26.4 19c8.497 0 16.084 4.015 20.636 9.988l-9.306 8.34c-2.63-3.5-6.576-5.972-11.33-5.972-7.586 0-13.25 6.075-13.25 13.695 0 7.827 5.563 13.593 13.554 13.593 5.36 0 9.61-3.295 11.734-6.59l10.115 7.722C42.787 67.602 35.504 71 26.3 71 11.126 71 0 59.468 0 45.051 0 30.531 11.43 19 26.4 19Zm45.025 0c6.538 0 13.699 2.47 17.018 5.045l-6.33 9.68c-2.593-1.853-6.018-3.398-9.65-3.398-3.737 0-6.85 1.441-6.85 4.015C65.614 40.83 90 38.256 90 55.554 90 65.131 80.557 71 69.972 71c-6.952 0-14.32-2.368-20.235-6.692l6.537-9.577c3.425 3.088 8.717 4.942 13.801 4.942 3.632 0 6.434-1.75 6.434-4.221 0-7.517-24.386-4.84-24.386-20.904 0-9.576 9.34-15.548 19.302-15.548Z" fill="#00A7FF"/></svg>