<svg xmlns="http://www.w3.org/2000/svg" viewBox="0 0 90 90" xmlns:v="https://vecta.io/nano"><defs><linearGradient id="A" x1="50%" x2="50%" y1="0%" y2="100%"><stop offset="0%" stop-color="#004eff"/><stop offset="100%" stop-color="#007fff"/></linearGradient></defs><g fill-rule="evenodd"><path fill="url(#A)" d="M0 0h90v90H0z"/><path fill="#fff" d="M27 51.202l34.926 15.202v7.084c0 1.942-1.574 3.511-3.522 3.511a3.75 3.75 0 0 1-1.367-.268L31.288 65.516c-2.445-1.012-4.164-3.346-4.288-6.114v-8.2zm0-20.195c0 2.668 1.491 4.975 3.677 6.147l.093.049 3.542 1.591 14.294 6.217h.021v.021l11.29 4.916c1.177.547 1.977 1.708 2.008 3.076l.001.084V63.27L27 48.068V31.008zm35-4.38v10.162c0 1.314-.734 2.47-1.814 3.061l-.071.038-7.846 3.422-3.564-1.552v-.021h-.021l-10.701-4.654L62 26.627zM58.472 13c1.922 0 3.48 1.529 3.521 3.435l.001.076v7.105l-27.615 12.01-3.538-1.588c-1.796-.929-3.137-2.616-3.597-4.646.497-2.178 2.003-3.969 4.009-4.844l.102-.044 25.936-11.298c.373-.145.766-.206 1.18-.206z"/></g></svg>