<svg xmlns="http://www.w3.org/2000/svg" viewBox="0 0 90 90"><path fill="#FFF" d="M0 0h90v90H0z"/><path d="M72.802 33.675c-.816-3.836-3.572-6.482-7.34-8.09 0 0-1.895-.803-3.169-1.082-1.683-.506-3.159-.753-4.88-1.062-2.348-.423-8.525-1.018-9.571-1.055-.326-.015-.158-.371-.018-.575.365-.522.815-1.01 1.199-1.522a9.675 9.675 0 0 0 1.675-3.5c.35-1.43.446-2.93.303-4.39-.051-.53-.132-1.07-.295-1.583-.077-.244-.19-.628-.446-.763-.23-.119-.575-.01-.8.056-.492.15-.958.376-1.408.612-2.782 1.464-5.448 3.48-7.006 6.182-.62 1.074-1.06 2.236-1.163 3.462-.03.355-.027.711-.044 1.068-.01.229-.023.482-.142.686-.156.26-.47.34-.76.376-.586.07-4.104.46-5.26.655-2.588.435-5.187 1.006-7.67 1.85-.925.315-1.838.71-2.71 1.173l-.146.077c-.4.217-.795.445-1.173.694l-.111.076c-.405.271-.786.563-1.149.871-.255.214-.485.442-.717.674-.084.084-.176.167-.258.254-.105.11-.226.205-.32.32a9.563 9.563 0 0 0-1.194 1.753l-.098.174c-.135.26-.248.536-.362.812-.068.17-.149.337-.21.513-.034.098-.054.202-.087.3-.105.324-.209.644-.28.982a9.457 9.457 0 0 0-.18 2.41c.01.28.034.554.064.823.017.177.037.35.067.523.025.169.05.337.085.5.4 2.11 1.194 3.664 1.194 3.664.786 1.725 1.918 3.857 3.584 5.59 0 0 .262.357.255.85.068 1.25.354 4.045 1.56 7.646 2.946 9.044 9.133 15.739 12.953 18.825 0 .003 2.034 1.696 2.838 2.403 1.11.975 3.165 2.39 3.165 2.39.802.466 1.161.703 2.245.703 1.287 0 2.222-.636 3.154-1.257 1.167-.785 5.826-4.835 5.826-4.835 4.943-4.424 12.848-12.942 13.73-25.839h.002c-.023-.51.256-.886.256-.886 1.667-1.734 2.799-3.865 3.589-5.59-.001.002 2.054-4.023 1.223-7.918m-28.976-13.23c.037-.616.214-1.222.436-1.796a11.412 11.412 0 0 1 2.431-3.791c.326-.34.68-.66 1.081-.92.155-.101.432-.291.638-.242.386.09-.344 1.978-.417 2.181-.459 1.293-1.063 2.495-1.95 3.582-.394.48-.824.942-1.316 1.333-.136.11-.54.488-.753.414-.215-.08-.164-.606-.15-.762m22.58 18.162c-.09.196-.353.704-.462.89 0 0-3.284 4.96-2.79 7.817.325 1.87 1.384 4.465-1.141 10.423-1.394 3.298-3.1 7.138-8.237 13.165 0 0-1.724 1.816-2.648 2.526 0 0-4.376 3.679-5.852 3.643-1.316-.033-2.414-.77-3.262-1.567-.668-.633-2.278-2.392-2.42-2.574-7.847-10-8.176-18.144-6.704-23.88.475-1.852 1.703-3.222 3.157-4.235 2.911-2.024 6.725-2.605 7.26-2.679 1.526-.126 2.229-.195 3.757-.23a66.51 66.51 0 0 1 3.476.009c.661.023 1.32.052 1.978.109.905.08 1.808.198 2.703.367.55.106 1.096.282 1.651.363.411.056.905.01.952-.478a1.207 1.207 0 0 0-.007-.253c-.173-.522-1.025-1.356-4.28-2.188-.634-.163-1.4-.285-2.242-.376a31.689 31.689 0 0 0-1.462-.124 80.304 80.304 0 0 0-.914-.048l-.148-.005c-.306-.014-.62-.023-.934-.028l-.106-.002c-.34-.01-.684-.013-1.03-.014a95.414 95.414 0 0 0-1.04 0h-.012c-5.476.04-10.365.595-10.365.595s-8.738 1.262-8.738-5.216c0-6.386 8.004-7.852 13.241-8.608l.11-.015.027-.003h.004l.018-.003.078-.01h.002c.264-.039.524-.077.794-.105.156-.018.32-.027.475-.044.378-.035.755-.073 1.138-.104a34.014 34.014 0 0 1 3.235-.106 51.2 51.2 0 0 1 6.037.403c1.456.178 2.906.437 4.325.799 6.922 1.443 13.55 4.652 10.376 11.786"/></svg>