<svg viewBox="0 0 90 90" xmlns="http://www.w3.org/2000/svg"><g fill="none" fill-rule="evenodd"><path fill="#FFF" d="M0 0h90v90H0z"/><g fill-rule="nonzero"><path d="M33.773 61.959a26.625 26.625 0 0 1-2.251-3.268c-.055-.055-.11-.11-.11-.164-.494-.926-.988-1.797-1.373-2.778-.11-.272-.22-.545-.33-.871-1.427-3.596-2.03-7.354-1.866-11.222.22-4.249 1.428-8.17 3.514-11.875 0-.054.055-.109.055-.163.604-.926 1.153-1.852 1.812-2.724-.33-.544-.604-1.09-.989-1.743-2.14-3.813-3.239-5.61-5.38-9.151-2.141 3.595-3.24 5.447-5.38 9.315-2.142 3.758-3.24 5.665-5.326 9.696 1.757-.436 2.635-.654 4.392-.872-.439 1.09-.659 1.634-1.098 2.778-2.58 5.012-4.996 10.186-7.302 15.307 1.812-.654 2.69-.926 4.557-1.362-2.306 5.556-4.557 11.112-6.698 16.723 11.914-4.085 21.631-4.14 33.545-.109-2.47-1.144-4.721-2.67-6.863-4.576-1.098-.871-2.031-1.906-2.91-2.941Z" fill="#245D38"/><path d="M55.075 32.054c-3.953 0-7.632 1.743-10.157 4.739l-.055.054c-1.922 2.343-3.02 5.284-3.02 8.334v.382l8.016-6.918 5.49 4.739 5.49-4.74 7.467 6.483c0-1.743-.33-3.377-1.043-4.957-2.032-4.957-6.808-8.116-12.188-8.116Z" fill="#FFD100"/><path d="M31.357 31.836c-2.086 3.65-3.294 7.626-3.514 11.875-.165 3.867.44 7.626 1.867 11.221.11.272.22.6.33.872l10.376-8.988c0-.164-.055-.382-.055-.545 0-.327-.055-.654-.055-1.035 0-3.377 1.208-6.7 3.349-9.315l.055-.054c2.8-3.323 6.917-5.23 11.31-5.23 5.984 0 11.31 3.541 13.615 8.988 3.679-1.47 7.302-2.941 10.98-4.412.22-.109.33-.163.165-.436-.439-1.035-.988-2.07-1.537-3.05a.753.753 0 0 0-.165-.218c-4.83-8.007-11.968-12.365-21.302-13.237-2.69-.218-5.325 0-7.96.6-6.204 1.47-11.31 4.63-15.263 9.587-.11.163-.22.272-.33.435a29.356 29.356 0 0 0-1.811 2.724c-.055.109-.055.163-.055.218Z" fill="#C3002F"/><path d="m49.859 38.59-8.016 6.918c0 .218 0 .382.055.545.165 2.07.769 4.085 1.867 5.829.22.38.439.653.604.871l10.98-9.532-5.49-4.63Z" fill="#7A853B"/><path d="M42.447 52.808c-1.098-1.852-1.812-3.922-2.031-5.992l-10.377 8.988c.44.926.879 1.852 1.373 2.778.055.054.11.109.11.163a26.625 26.625 0 0 0 2.25 3.268l.385-.327 9.004-7.789-.055-.054c-.165-.327-.384-.654-.659-1.035Z" fill="#6D3A5D"/><path d="M79.56 54.986c-3.568-1.47-7.191-2.887-10.76-4.303-.384.98-.933 1.961-1.537 2.833-2.745 3.976-7.302 6.318-12.134 6.318a14.913 14.913 0 0 1-11.913-5.991l-9.004 7.789-.385.327a23.515 23.515 0 0 0 2.8 2.941c2.142 1.907 4.448 3.432 6.863 4.576 3.294 1.525 6.863 2.342 10.706 2.506 2.8.109 5.545-.273 8.235-1.035 5.271-1.525 9.663-4.413 13.232-8.552.22-.273.439-.545.713-.817.714-.926 1.373-1.961 2.032-2.996a20.158 20.158 0 0 0 1.427-2.887c.055-.11.055-.164.11-.218l.055-.11-.055-.108c-.11-.164-.22-.164-.384-.273Z" fill="#001970"/><path d="m55.349 43.33 10.541 9.096.165.11c.549-.763.988-1.635 1.318-2.452.658-1.58.988-3.214.988-4.903v-.108l-7.522-6.483-5.49 4.74Z" fill="#35647E"/><path d="m55.349 43.33-10.98 9.532s0 .055.055.055c2.47 3.377 6.478 5.392 10.705 5.392 4.338 0 8.4-2.124 10.871-5.665l.055-.054-.165-.11-10.541-9.15Z" fill="#001970"/></g></g></svg>