<svg xmlns="http://www.w3.org/2000/svg" viewBox="0 0 90 90" fill-rule="evenodd"><path fill="#fff" opacity="0" d="M0 0h90v90H0z"/><path fill="#06f" fill-rule="nonzero" d="M81.494 55.052c1.384 0 2.506 1.119 2.506 2.497h0v8.611c0 .892-.478 1.715-1.253 2.162h0L45.651 89.665a2.51 2.51 0 0 1-2.506 0h0L22.576 77.831c-1.198-.689-1.608-2.216-.917-3.411h0l10.498-18.12c.447-.773 1.274-1.249 2.17-1.249h0zM26.822 9.094a2.51 2.51 0 0 1 3.423.913h0l10.498 18.12c.448.773.448 1.724 0 2.497h0L17.159 71.328a2.51 2.51 0 0 1-3.423.913h0l-7.483-4.307C5.477 67.489 5 66.665 5 65.773h0V23.09c0-.892.477-1.715 1.253-2.162h0zM42.616.335a2.51 2.51 0 0 1 2.506 0h0l37.096 21.341c.776.445 1.253 1.27 1.253 2.162h0v23.667c0 1.379-1.123 2.497-2.506 2.497h0H59.97a2.51 2.51 0 0 1-2.17-1.249h0L34.216 8.051a2.49 2.49 0 0 1 .917-3.411h0z"/></svg>