<svg xmlns="http://www.w3.org/2000/svg" viewBox="0 0 90 90"><defs><linearGradient x1="112.62%" y1="-14.631%" x2="-76.115%" y2="178.208%" id="a"><stop stop-color="#FFF8A7" offset="5%"/><stop stop-color="#FBCC36" offset="18%"/><stop stop-color="#F9B639" offset="23%"/><stop stop-color="#F47F3F" offset="33%"/><stop stop-color="#F15D43" offset="39%"/><stop stop-color="#D02B2B" offset="57%"/><stop stop-color="#503D8C" offset="83%"/><stop stop-color="#00287F" offset="96%"/></linearGradient></defs><path fill="#191D2A" d="M0 0h90v90H0z"/><path d="M50.288 23.135c.233-.196.506-.391.739-.626 3.814-3.638 4.009-9.662.39-13.495a9.485 9.485 0 0 0-13.429-.391c-3.814 3.598-3.97 9.661-.39 13.495l.195.195c3.348 3.365 8.72 3.717 12.495.822Zm-10.237-3.09-.117-.157c-2.374-2.542-2.257-6.571.273-8.958 2.53-2.386 6.539-2.268 8.913.274 2.413 2.543 2.296 6.572-.234 8.958-2.49 2.386-6.422 2.308-8.835-.117Zm-19.656 8.488a1.611 1.611 0 0 1 0-2.269l9.809-9.857a1.592 1.592 0 0 1 2.257 0 1.611 1.611 0 0 1 0 2.269l-9.808 9.857a1.592 1.592 0 0 1-2.258 0Zm-6.772 6.806a1.611 1.611 0 0 1 0-2.268l2.257-2.27a1.592 1.592 0 0 1 2.258 0 1.611 1.611 0 0 1 0 2.27l-2.258 2.268a1.592 1.592 0 0 1-2.257 0ZM.467 48.561a1.611 1.611 0 0 1 0-2.269l9.03-9.075a1.592 1.592 0 0 1 2.258 0 1.611 1.611 0 0 1 0 2.269l-9.03 9.075a1.668 1.668 0 0 1-2.258 0Zm17.437-4.03L3.074 59.436a1.592 1.592 0 0 1-2.257 0 1.611 1.611 0 0 1 0-2.268l14.83-14.904 2.335-2.347L33.59 24.23c.662-.626 1.674-.587 2.257.078.584.626.584 1.604 0 2.191L20.201 42.224l-2.297 2.308Zm8.29 2.895a1.592 1.592 0 0 1-2.257 0 1.611 1.611 0 0 1 0-2.268l5.527-5.555a1.592 1.592 0 0 1 2.258 0 1.611 1.611 0 0 1 0 2.269l-5.527 5.554Zm28.297-22.218a1.611 1.611 0 0 1 0 2.269l-13.35 13.417a1.592 1.592 0 0 1-2.258 0 1.611 1.611 0 0 1 0-2.269l13.35-13.417a1.592 1.592 0 0 1 2.258 0Zm-16.775 16.86a1.611 1.611 0 0 1 0 2.268l-8.952 8.997a1.592 1.592 0 0 1-2.258 0 1.611 1.611 0 0 1 0-2.269l8.952-8.997c.662-.625 1.635-.625 2.258 0Zm5.06-13.535a1.611 1.611 0 0 1 0 2.269l-7.201 7.197a1.592 1.592 0 0 1-2.258 0 1.611 1.611 0 0 1 0-2.268l7.201-7.198a1.592 1.592 0 0 1 2.258 0Zm15.568-5.985a1.601 1.601 0 0 1-2.14.704c-.779-.39-1.09-1.369-.7-2.151 3.074-6.063.66-13.495-5.372-16.586a12.192 12.192 0 0 0-13.234 1.37l-.233.195c-.273.235-.584.509-.857.782L10.392 32.366a1.592 1.592 0 0 1-2.257 0 1.611 1.611 0 0 1 0-2.268L33.55 4.554c.35-.352.7-.625 1.05-.938l.312-.235c.117-.078.234-.196.35-.274.078-.039.117-.078.195-.117C42.348-2.056 52.04-.57 57.06 6.354c3.386 4.733 3.892 10.992 1.284 16.194ZM24.25 55.641a1.611 1.611 0 0 1 0 2.269l-2.608 2.62a1.592 1.592 0 0 1-2.258 0 1.611 1.611 0 0 1 0-2.268l2.608-2.621c.584-.626 1.596-.626 2.258 0-.04 0-.04 0 0 0Zm-4.75-1.486a1.592 1.592 0 0 1-2.257 0 1.611 1.611 0 0 1 0-2.27l.467-.43a1.592 1.592 0 0 1 2.257 0 1.611 1.611 0 0 1 0 2.27l-.467.43Z" transform="translate(15 15)" fill="url(#a)"/></svg>