<svg viewBox="0 0 90 90" xmlns="http://www.w3.org/2000/svg"><path d="M50.673 2c-4.282 0-8.157.36-11.828.912-21.346 3.18-32.843 14.85-35.559 34.603L1.368 52.523C.14 62.867 1.977 70.604 6.973 76.232 12.774 82.734 22.691 88 37.423 88h25.89c15.003 0 16.794-15.716 16.794-15.716H45.789c-4.657-.043-9.149-.4-12.331-1.574-4.32-1.589-6.938-4.377-7.833-9.455-.346-1.997-.248-6.434.128-9.251l1.7-13.132c.512-3.368 1.543-7.112 2.032-8.325 1.272-3.127 3.303-6.366 6.651-8.717 1.956-1.37 6.554-4.174 18.163-4.174h19.028C86.57 17.656 89 1.986 89 2H50.673Z" fill="#C61B31"/></svg>