<svg xmlns="http://www.w3.org/2000/svg" viewBox="0 0 90 90"><path fill="#454545" d="M0 0h90v90H0z"/><g fill="#FFF"><path d="M66.5 32.6h-.04L52.1 24.18l-14.17 8.3L23.4 24 8 33v16.37l29.71 17.4 14.2-8.25L66.5 67 82 58V41.63L66.5 32.6zm-.08 16.77l-12.17-7.1 12.28-7.22 12.18 7.18-12.29 7.14zM37.6 34.94l12.28 7.14-12.13 7.1L25.5 42l12.1-7.06zm26.71-1.12L52.3 40.85l-12.25-7.14 12.06-7.07 12.21 7.18zm-28.67-.22l-2.48 1.45-10.03 5.69-11.95-7.14 12.25-7.14 12.2 7.14zm-25.5 1.78l12.03 7.3v12.86l-12.02-7.36v-12.8zm14.44 8.56l12.02 7.18v12.83l-12.02-7.18V43.94zm28.6.15l12.24 7.25v12.72l-12.24-7.33V44.1z"/><path d="M24.58 56.8l12.02 7.11v-12.8l-12.02-7.17V56.8zm-14.43-8.66l12.02 7.36V42.67l-12.02-7.29v12.76zm43.03 8.63l12.25 7.33V51.34l-12.25-7.26v12.69z" opacity=".5"/><path d="M66.5 32.6h-.04L52.1 24.18l-14.17 8.3L23.4 24 8 33v16.37l29.71 17.4 14.2-8.25L66.5 67 82 58V41.63L66.5 32.6zm-.08 16.77l-12.17-7.1 12.28-7.22 12.18 7.18-12.29 7.14zM37.6 34.94l12.28 7.14-12.13 7.1L25.5 42l12.1-7.06zm26.71-1.12L52.3 40.85l-12.25-7.14 12.06-7.07 12.21 7.18zm-28.67-.22l-2.48 1.45-10.03 5.69-11.95-7.14 12.25-7.14 12.2 7.14zm-25.5 1.78l12.03 7.3v12.86l-12.02-7.36v-12.8zm14.44 8.56l12.02 7.18v12.83l-12.02-7.18V43.94zm28.6.15l12.24 7.25v12.72l-12.24-7.33V44.1z"/><path d="M24.58 56.8l12.02 7.11v-12.8l-12.02-7.17V56.8zm-14.43-8.66l12.02 7.36V42.67l-12.02-7.29v12.76zm43.03 8.63l12.25 7.33V51.34l-12.25-7.26v12.69z" opacity=".5"/></g></svg>