<svg xmlns="http://www.w3.org/2000/svg" viewBox="0 0 90 90" fill="none" fill-rule="evenodd"><path fill="#000" d="M0 0h90v90H0z"/><g fill-rule="nonzero"><path fill="#fff" d="M52.732 16.401a24.2 24.2 0 0 0-6.5-2.54 33.4 33.4 0 0 0-7.75-.86c-3.45 0-6.8.66-9.93 1.95a23.98 23.98 0 0 0-8.13 5.41 26.07 26.07 0 0 0-5.44 8.45 28.95 28.95 0 0 0-1.98 10.88c0 5.11 1.54 9.1 4.57 11.85 3.01 2.75 7.32 4.14 12.81 4.14 2.01 0 3.61-.1 4.75-.3a34.54 34.54 0 0 0 3.64-.87c.99-.29 2.05-.67 3.13-1.14l2.78-1.16a.59.59 0 0 0 .36-.42l2.32-9.54a.64.64 0 0 0-.11-.52.59.59 0 0 0-.48-.23h-1.06a.65.65 0 0 0-.38.13 28.76 28.76 0 0 1-5.97 3.71c-2.06.95-4.3 1.43-6.64 1.43-2.55 0-4.51-.66-5.8-1.97-1.3-1.3-1.95-3.49-1.95-6.49 0-4.78 1.25-8.77 3.71-11.84a11.36 11.36 0 0 1 9.32-4.56c2.15 0 4.04.41 5.61 1.22 1.6.82 3.24 2.13 4.87 3.89a.6.6 0 0 0 .44.19h1.17a.61.61 0 0 0 .59-.46l2.34-9.68a.62.62 0 0 0-.29-.67h0z"/><path fill="#e84d0e" d="M68.922 55.231a11.76 11.76 0 0 0 4.97-3.31 9.7 9.7 0 0 0 2.13-6.41 8.06 8.06 0 0 0-4.07-7.18c-2.61-1.63-6.4-2.46-11.27-2.46h-14.47a.61.61 0 0 0-.59.47l-1.01 4.39a1.8 1.8 0 0 1 1.22-.47h1.06c.56 0 1.08.25 1.43.7a1.78 1.78 0 0 1 .33 1.56l-2.32 9.54a1.82 1.82 0 0 1-1.09 1.26l-2.76 1.15-1.13.46-4.88 21.31c-.04.18 0 .37.12.52s.29.24.47.24h17.17c6.34 0 11.34-1.23 14.84-3.64a11.92 11.92 0 0 0 5.39-10.34c0-2.3-.62-4.11-1.83-5.4a9.96 9.96 0 0 0-3.71-2.39h0zm-8.2 11.85c-1.51.92-3.72 1.39-6.57 1.39h-4.4l2-8.73h4.87c2.24 0 3.88.3 4.88.89.91.54 1.35 1.41 1.35 2.65 0 1.68-.7 2.93-2.13 3.8h0zm1.66-16.64c-1.14.79-2.78 1.19-4.88 1.19h-3.9l1.66-7.23h4.12c1.52 0 2.71.24 3.53.71.73.42 1.08 1.07 1.08 2.03 0 1.47-.53 2.55-1.61 3.3h0z"/></g></svg>