<svg xmlns="http://www.w3.org/2000/svg" viewBox="0 0 90 90"><path fill="#FFF" d="M0 0h90v90H0z"/><g fill="#F0AB00"><path d="M43.44 54.875c-5.345 0-9.8-4.455-9.8-9.8 0-5.346 4.307-9.801 9.8-9.801 2.674 0 5.198 1.04 6.831 2.821l5.05-5.049c-3.12-3.118-7.277-4.9-12.029-4.9-9.355 0-16.928 7.573-16.928 16.928s7.573 16.928 16.928 16.928c4.604 0 8.91-1.93 12.028-4.9l-5.049-5.049c-1.781 1.634-4.157 2.822-6.83 2.822"/><path d="M57.696 40.768a4.31 4.31 0 0 0-4.306 4.306 4.31 4.31 0 0 0 4.306 4.307 4.31 4.31 0 0 0 4.306-4.307 4.31 4.31 0 0 0-4.306-4.306"/><path d="M13 77h64V13H13v64Zm7.128-7.276V20.128h49.596v49.596H20.128Z"/></g></svg>