<svg viewBox="0 0 90 90" xmlns="http://www.w3.org/2000/svg"><g fill="none" fill-rule="evenodd"><path fill="#FFF" d="M0 0h90v90H0z"/><path d="M60.64 37.584a31.912 31.912 0 0 0-15.645-4.116c-5.496 0-10.861 1.43-15.646 4.116a50.218 50.218 0 0 1 5.372 6.408 58.63 58.63 0 0 1 5.932 10.537l4.342-7.137 4.341 7.137a58.226 58.226 0 0 1 5.932-10.537 51.23 51.23 0 0 1 5.372-6.408Zm21.8-7.727c-5.705 1.122-10.88 3.545-15.483 7.215a40.3 40.3 0 0 0-2.999 2.646 47.497 47.497 0 0 0-5.482 6.433c-4.824 6.77-6.813 13.072-6.832 13.137a1.937 1.937 0 0 1-1.845 1.366 1.925 1.925 0 0 1-1.604-.86l-3.2-4.8-3.201 4.8a1.916 1.916 0 0 1-1.884.84 1.937 1.937 0 0 1-1.565-1.346c-.02-.059-2.008-6.368-6.832-13.13-1.72-2.41-3.565-4.57-5.521-6.473-.222-.217-.45-.433-.678-.644l-.02-.02a44.27 44.27 0 0 0-2.255-1.943c-4.603-3.676-9.779-6.092-15.483-7.215a1.954 1.954 0 0 1-1.519-2.29A1.934 1.934 0 0 1 8.3 26.035c6.61 1.306 12.711 4.287 18.044 8.77 5.632-3.426 12.06-5.27 18.657-5.27 6.597 0 13.025 1.837 18.657 5.27 5.333-4.483 11.428-7.464 18.045-8.77 1.05-.204 2.06.48 2.262 1.536a1.953 1.953 0 0 1-1.526 2.285Zm-61.852 9.27c-6.67 6.099-11.063 14.496-12.36 23.634a1.96 1.96 0 0 0 1.656 2.22 1.947 1.947 0 0 0 2.203-1.668c1.167-8.24 5.117-15.796 11.121-21.284.359-.329.73-.65 1.102-.966a37.975 37.975 0 0 0-2.999-2.586c-.24.216-.482.427-.723.65Zm61.18 23.634A1.96 1.96 0 0 1 79.832 65a1.964 1.964 0 0 1-1.93-1.687c-1.167-8.24-5.117-15.796-11.121-21.284-.365-.329-.73-.65-1.102-.966a37.975 37.975 0 0 1 2.999-2.586c.247.21.489.427.73.65 6.675 6.099 11.062 14.496 12.36 23.634Z" fill="#24336A" fill-rule="nonzero"/></g></svg>