<svg xmlns="http://www.w3.org/2000/svg" viewBox="0 0 90 90"><path fill="#FFF" d="M0 0h90v90H0z"/><path d="M42.454 79C23.724 79 11 63.731 11 47.503 11 31.025 23.974 16.8 41.244 16.131c.668-.041 1.252.543 1.252 1.21v5.048c0 .626-.5 1.168-1.168 1.21-12.682.584-22.902 10.972-22.902 23.946 0 12.682 10.011 24.03 24.028 24.03 13.642 0 23.32-10.89 23.904-22.904.042-.626.542-1.168 1.21-1.168h5.047c.668 0 1.21.542 1.21 1.252C73.241 64.775 60.351 79 42.455 79Z" fill="#1856ED"/><path d="M42.496 62.313c-8.343 0-14.81-6.633-14.81-14.81 0-7.634 5.883-14.017 13.517-14.643.709-.042 1.293.5 1.293 1.21v5.048c0 .584-.417 1.126-1.043 1.21-3.671.5-6.34 3.629-6.34 7.217 0 4.005 3.128 7.384 7.383 7.384 3.546 0 6.716-2.67 7.217-6.341.083-.584.626-1.043 1.21-1.043h5.047c.71 0 1.252.584 1.21 1.293-.667 7.468-6.925 13.475-14.684 13.475Z" fill="#1856ED"/><path d="M71.572 41.329c-.584-12.223-10.345-22.32-22.902-22.903-.626-.042-1.168-.543-1.168-1.21V12.21c0-.668.542-1.21 1.251-1.21 16.312.626 29.62 13.683 30.245 30.245.042.668-.542 1.252-1.21 1.252H72.74c-.584 0-1.126-.5-1.168-1.168Zm-22.693-6.091c-.751-.125-1.294-.75-1.294-1.377V28.94c0-.71.584-1.252 1.294-1.21 7.258.626 12.848 6.424 13.474 13.433.042.71-.5 1.293-1.21 1.293h-5.298c-.5 0-.876-.334-.96-.834-.375-2.962-2.627-5.799-6.006-6.383Z" fill="#FF9E1A"/></svg>