<svg xmlns="http://www.w3.org/2000/svg" viewBox="0 0 90 90"><path fill="#E03875" d="M0 0h90v90H0z"/><g fill="#FFF"><path d="M45.336 78c-11.005.008-21.304-5.45-27.518-14.585-9.563-14.06-7.112-33.1 5.696-44.248 12.808-11.147 31.895-10.85 44.356.688l-7.904 8.317c-8.758-7.955-22.209-7.497-30.41 1.036-8.203 8.533-8.203 22.07 0 30.603 8.201 8.533 21.652 8.991 30.41 1.035l7.904 8.317A33.117 33.117 0 0 1 45.336 78ZM72.14 61.243a2.73 2.73 0 0 1-2.522-1.695 2.757 2.757 0 0 1 .592-2.992 2.719 2.719 0 0 1 2.975-.595 2.746 2.746 0 0 1 1.685 2.537 2.744 2.744 0 0 1-2.73 2.745Z"/><path d="M45.123 51.76a7.217 7.217 0 0 1-6.69-4.462 7.29 7.29 0 0 1 1.548-7.922 7.187 7.187 0 0 1 7.871-1.583 7.26 7.26 0 0 1 4.458 6.713c-.006 3.994-3.216 7.233-7.187 7.253Zm30.147.127a2.723 2.723 0 0 1-2.111-1.003 2.756 2.756 0 0 1 .823-4.165 2.715 2.715 0 0 1 2.333-.115 2.749 2.749 0 0 1-1.045 5.283Zm-8.117-.342c-.82 0-1.596-.37-2.115-1.008a2.756 2.756 0 0 1-.56-2.285 2.736 2.736 0 0 1 2.16-2.15 2.722 2.722 0 0 1 2.688 1.036c.627.83.732 1.947.272 2.881a2.729 2.729 0 0 1-2.445 1.526Zm8.117-8.91a2.723 2.723 0 0 1-2.111-1.003 2.756 2.756 0 0 1 .823-4.165 2.715 2.715 0 0 1 2.333-.115 2.75 2.75 0 0 1-1.045 5.283Zm-8.117.312c-1.104 0-2.1-.67-2.523-1.695a2.757 2.757 0 0 1 .79-3.175 2.718 2.718 0 0 1 3.25-.16 2.754 2.754 0 0 1 1.096 3.08 2.733 2.733 0 0 1-2.613 1.95Zm5.144-9.546a2.738 2.738 0 0 1-2.736-2.74 2.738 2.738 0 0 1 2.724-2.752 2.738 2.738 0 0 1 2.737 2.74 2.738 2.738 0 0 1-2.725 2.752Z"/></g></svg>