<svg xmlns="http://www.w3.org/2000/svg" viewBox="0 0 90 90"><defs><linearGradient x1="100.653%" y1="81.794%" x2="32.32%" y2="52.643%" id="a"><stop stop-color="#BBD5F1" offset="0%"/><stop stop-color="#B2D2EF" offset="7%"/><stop stop-color="#98C8EB" offset="18%"/><stop stop-color="#6FB9E4" offset="33%"/><stop stop-color="#36A5DB" offset="50%"/><stop stop-color="#1E9CD7" offset="57%"/><stop stop-color="#0075BE" offset="87%"/><stop stop-color="#005B97" offset="99%"/></linearGradient><linearGradient x1="95.318%" y1="43.514%" x2="28.058%" y2="69.944%" id="b"><stop stop-color="#BBD5F1" offset="0%"/><stop stop-color="#B2D2EF" offset="7%"/><stop stop-color="#98C8EB" offset="18%"/><stop stop-color="#6FB9E4" offset="33%"/><stop stop-color="#36A5DB" offset="50%"/><stop stop-color="#1E9CD7" offset="57%"/><stop stop-color="#0075BE" offset="87%"/><stop stop-color="#005B97" offset="99%"/></linearGradient><linearGradient x1="119.294%" y1="46.139%" x2="19.322%" y2="50.882%" id="c"><stop stop-color="#BBD5F1" offset="0%"/><stop stop-color="#B2D2EF" offset="7%"/><stop stop-color="#98C8EB" offset="18%"/><stop stop-color="#6FB9E4" offset="33%"/><stop stop-color="#36A5DB" offset="50%"/><stop stop-color="#1E9CD7" offset="57%"/><stop stop-color="#0075BE" offset="87%"/><stop stop-color="#005B97" offset="99%"/></linearGradient><linearGradient x1="11%" y1="50%" x2="89%" y2="50%" id="d"><stop stop-color="#BBD5F1" offset="0%"/><stop stop-color="#B2D2EF" offset="7%"/><stop stop-color="#98C8EB" offset="18%"/><stop stop-color="#6FB9E4" offset="33%"/><stop stop-color="#36A5DB" offset="50%"/><stop stop-color="#1E9CD7" offset="57%"/><stop stop-color="#0075BE" offset="87%"/><stop stop-color="#005B97" offset="99%"/></linearGradient><linearGradient x1="0%" y1="50%" x2="100%" y2="50%" id="e"><stop stop-color="#BBD5F1" offset="0%"/><stop stop-color="#B2D2EF" offset="7%"/><stop stop-color="#98C8EB" offset="18%"/><stop stop-color="#6FB9E4" offset="33%"/><stop stop-color="#36A5DB" offset="50%"/><stop stop-color="#1E9CD7" offset="57%"/><stop stop-color="#0075BE" offset="87%"/><stop stop-color="#005B97" offset="99%"/></linearGradient><linearGradient x1="38.128%" y1="10.308%" x2="62.476%" y2="94.602%" id="f"><stop stop-color="#BBD5F1" offset="0%"/><stop stop-color="#B2D2EF" offset="7%"/><stop stop-color="#98C8EB" offset="18%"/><stop stop-color="#6FB9E4" offset="33%"/><stop stop-color="#36A5DB" offset="50%"/><stop stop-color="#1E9CD7" offset="57%"/><stop stop-color="#0075BE" offset="87%"/><stop stop-color="#005B97" offset="99%"/></linearGradient><linearGradient x1="0%" y1="50%" x2="100%" y2="50%" id="g"><stop stop-color="#BBD5F1" offset="0%"/><stop stop-color="#B2D2EF" offset="7%"/><stop stop-color="#98C8EB" offset="18%"/><stop stop-color="#6FB9E4" offset="33%"/><stop stop-color="#36A5DB" offset="50%"/><stop stop-color="#1E9CD7" offset="57%"/><stop stop-color="#0075BE" offset="87%"/><stop stop-color="#005B97" offset="99%"/></linearGradient><linearGradient x1="-2.878%" y1="50%" x2="97.122%" y2="50%" id="h"><stop stop-color="#BBD5F1" offset="0%"/><stop stop-color="#B2D2EF" offset="7%"/><stop stop-color="#98C8EB" offset="18%"/><stop stop-color="#6FB9E4" offset="33%"/><stop stop-color="#36A5DB" offset="50%"/><stop stop-color="#1E9CD7" offset="57%"/><stop stop-color="#0075BE" offset="87%"/><stop stop-color="#005B97" offset="99%"/></linearGradient><linearGradient x1="54.021%" y1="30.035%" x2="48.265%" y2="77.671%" id="i"><stop stop-color="#BBD5F1" offset="0%"/><stop stop-color="#B2D2EF" offset="7%"/><stop stop-color="#98C8EB" offset="18%"/><stop stop-color="#6FB9E4" offset="33%"/><stop stop-color="#36A5DB" offset="50%"/><stop stop-color="#1E9CD7" offset="57%"/><stop stop-color="#0075BE" offset="87%"/><stop stop-color="#005B97" offset="99%"/></linearGradient></defs><path fill="#FFF" d="M0 0h90v90H0z"/><path d="m14.562 41.179-6.584-3.82a3.935 3.935 0 0 0-.323-.207c-2.872-1.668-4.966-3.668-5.679-4.948l.994 1.74 2.511 4.4h.015l7.085 12.332A6.606 6.606 0 0 0 18.309 54h4.97l6.698-3.883-15.415-8.938Z" fill="url(#a)" transform="translate(15 18)"/><path d="m53.599 36.408-8.281 4.804-15.34 8.905L23.285 54H41.7a6.608 6.608 0 0 0 5.728-3.324l6.145-10.697 4.366-7.598c-.021.04-.045.076-.068.113-.889 1.635-2.162 2.639-4.272 3.914Z" fill="url(#b)" transform="translate(15 18)"/><path d="M6.816 13.366c.919-1.598 2.414-2.49 4.17-2.905.785-.18 1.585-.275 2.39-.283l35.52.035c.152-2.563-.385-5.169-1.372-6.707l-.1-.177A6.606 6.606 0 0 0 41.7 0H18.31a6.604 6.604 0 0 0-5.728 3.322l-3.94 6.851-1.825 3.193Z" fill="url(#c)" transform="translate(15 18)"/><path d="m19.312 43.916-.183-.108.183.108Z" fill="url(#d)" transform="translate(15 18)"/><path d="m19.312 43.916.448.26-.448-.26Z" fill="url(#e)" transform="translate(15 18)"/><path d="M19.13 43.808c-3.9-2.26-4.875-5.27-5.288-8.838l-2.856-24.51c-1.76.415-3.256 1.308-4.175 2.906L.886 23.676a6.674 6.674 0 0 0 0 6.646L2.97 33.95l-.994-1.738c.704 1.272 2.814 3.272 5.679 4.947.129.073.234.14.323.207l6.584 3.82v-.022l4.567 2.644Z" fill="url(#f)" transform="translate(15 18)"/><path d="m40.008 44.29.342-.197-.342.198Z" fill="url(#g)" transform="translate(15 18)"/><path d="m40.762 43.86-.325.188.325-.188Z" fill="url(#h)" transform="translate(15 18)"/><path d="M59.118 23.676 51.365 10.18l-3.822-6.637-.026-.044c.987 1.538 1.524 4.144 1.372 6.707-.019.288-2.9 25.17-2.9 25.17-.439 3.411-1.475 6.297-5.243 8.481l4.565-2.648 8.28-4.804c2.111-1.274 3.384-2.278 4.27-3.913l1.25-2.172a6.674 6.674 0 0 0 .007-6.644Z" fill="url(#i)" transform="translate(15 18)"/><path d="M73.152 23.226c-13.887 8.505-23.14 21.169-27.14 27.028a.54.54 0 0 1-.812.016l-4.499-4.596-3.048-2.926c-2.11-2.149-5.894-.96-7.322.388 0 0 12.543 15.675 14.274 16.914 1.092.782 3.772.335 5.11-2.306 1.34-2.641 9.848-20.286 24.619-32.956 1.378-1.183.152-2.38-1.182-1.562Z" fill="#0A3A67"/></svg>