<svg viewBox="0 0 90 90" xmlns="http://www.w3.org/2000/svg"><g fill="none" fill-rule="evenodd"><path d="M45 0C20.147 0 0 20.147 0 45s20.147 45 45 45 45-20.147 45-45S69.853 0 45 0Zm-1.406 67.5c0-11.65-9.444-21.094-21.094-21.094H11.25c0 11.65 9.444 21.094 21.094 21.094h11.25Zm14.062 0c11.65 0 21.094-9.444 21.094-21.094H67.5c-11.65 0-21.094 9.444-21.094 21.094h11.25ZM22.5 43.594c11.65 0 21.094-9.444 21.094-21.094h-11.25c-11.65 0-21.094 9.444-21.094 21.094H22.5Zm56.25 0c0-11.65-9.444-21.094-21.094-21.094h-11.25c0 11.65 9.444 21.094 21.094 21.094h11.25Z" fill="#252737"/><path d="M43.594 67.5c0-11.65-9.444-21.094-21.094-21.094H11.25c0 11.65 9.444 21.094 21.094 21.094h11.25Zm14.062 0c11.65 0 21.094-9.444 21.094-21.094H67.5c-11.65 0-21.094 9.444-21.094 21.094h11.25ZM22.5 43.594c11.65 0 21.094-9.444 21.094-21.094h-11.25c-11.65 0-21.094 9.444-21.094 21.094H22.5Zm56.25 0c0-11.65-9.444-21.094-21.094-21.094h-11.25c0 11.65 9.444 21.094 21.094 21.094h11.25Z" fill="#5FD800"/></g></svg>