<svg viewBox="0 0 90 90" xmlns="http://www.w3.org/2000/svg"><g fill="none"><path fill="#703DC1" d="M0 0h90v90H0z"/><path d="M44.528 42.812h14.5V23.89a1.89 1.89 0 0 0-1.89-1.89H32.212a1.889 1.889 0 0 0-1.89 1.889v11.28h11.851a2.357 2.357 0 0 1 2.357 2.357l-.002 5.286Z" fill="#F04E98"/><path d="M59.023 42.813v15.516a1.66 1.66 0 0 1-1.658 1.658H31.977a1.658 1.658 0 0 1-1.657-1.657V35.171h-4.963A2.357 2.357 0 0 0 23 37.527V64.95a2.358 2.358 0 0 0 2.356 2.358h38.627a2.357 2.357 0 0 0 2.357-2.358V45.169a2.357 2.357 0 0 0-2.357-2.357h-4.96v.001Z" fill="#6AD1E3"/><path d="M59.022 58.329V42.812h-12.84a1.658 1.658 0 0 1-1.658-1.658v-3.626a2.356 2.356 0 0 0-2.356-2.358H30.316v23.159c0 .915.742 1.657 1.657 1.658h25.388a1.66 1.66 0 0 0 1.658-1.658h.003Z" fill="#703DC1"/></g></svg>