<svg viewBox="0 0 90 90" xmlns="http://www.w3.org/2000/svg"><g fill="none" fill-rule="evenodd"><path fill="#FFF" fill-rule="nonzero" d="M0 0h90v90H0z"/><path d="M43.951 61.21c10.419 0 18.471-7.916 18.471-17.685 0-9.148-7.563-14.735-12.574-14.735-6.98 0-12.573 4.924-13.369 12.236-.149 1.355-1.215 2.49-2.567 2.48-2.25-.016-5.522-.035-7.593-.027-.893.003-1.63-.725-1.585-1.62.313-6.344 2.42-12.272 6.44-16.827C35.642 19.968 42.147 17 49.846 17 62.785 17 75 28.825 75 43.525 75 59.803 61.592 73 44.226 73c-12.382 0-24.854-8.14-29.21-19.522a.247.247 0 0 1-.012-.13c.058-.336.173-.646.287-.949.165-.44.327-.87.303-1.366l-.075-1.587a1.93 1.93 0 0 1 1.113-1.84l.629-.295a2.444 2.444 0 0 0 1.369-1.777 2.448 2.448 0 0 1 2.41-2.007c1.85 0 3.458 1.236 4.063 2.994 2.907 8.468 7.53 14.691 18.848 14.691v-.002Z" fill="#FB6068"/></g></svg>