<svg xmlns="http://www.w3.org/2000/svg" viewBox="0 0 90 90"><path fill="#FFF" d="M0 0h90v90H0z"/><path d="m57.376 33.428 6.356-6.41c-4.95-4.723-10.638-7.084-17.931-7.017-10.037-.067-19.136 5.938-22.883 15.25-6.691 16.598 4.884 34.815 22.95 34.748 7.092.067 13.18-2.43 18.132-7.085l-6.356-6.41c-3.078 3.306-7.026 4.858-11.843 4.79-6.29.136-12.044-3.575-14.118-9.58-2.074-5.938-1.271-13.9 3.212-18.488 5.62-6.072 17.061-5.938 22.481.202Z" fill="#0B163E"/><path d="M45 1c24.3 0 44 19.7 44 44S69.3 89 45 89 1 69.3 1 45 20.7 1 45 1Zm0 10c-18.778 0-34 15.222-34 34s15.222 34 34 34 34-15.222 34-34-15.222-34-34-34Z" fill="#3F9AF7"/></svg>