<svg xmlns="http://www.w3.org/2000/svg" viewBox="0 0 90 90"><path d="M90 0v90H0V0h90ZM47.42 9.277a4.173 4.173 0 0 0-4.213 0l-27.79 16.221a4.273 4.273 0 0 0-2.109 3.69v32.44a4.272 4.272 0 0 0 2.11 3.694l27.785 16.22a4.173 4.173 0 0 0 4.213 0l27.788-16.22a4.27 4.27 0 0 0 2.11-3.692V29.19a4.27 4.27 0 0 0-2.108-3.69Zm-4.215 14.38a4.178 4.178 0 0 1 4.216 0v-.002l15.467 9.032a4.271 4.271 0 0 1 2.107 3.69v18.064a4.265 4.265 0 0 1-2.107 3.688L47.416 67.16a4.18 4.18 0 0 1-4.213 0l-15.468-9.03a4.269 4.269 0 0 1-2.107-3.69V36.376a4.272 4.272 0 0 1 2.107-3.69Z" fill="#262260"/></svg>