<svg viewBox="0 0 90 90" xmlns="http://www.w3.org/2000/svg"><g fill="none"><path fill="#132E57" d="M0 0h90v90H0z"/><path d="M76.237 34.748c.503-.95.764-2.007.763-3.081C77 27.985 73.978 25 70.251 25a6.757 6.757 0 0 0-6.11 3.832L50.782 55.215A6.572 6.572 0 0 0 50 58.333C50 62.015 53.023 65 56.75 65a6.756 6.756 0 0 0 6.093-3.794l13.395-26.458Zm-20.25 4.444c.503-.95.764-2.007.763-3.08 0-3.683-3.022-6.668-6.75-6.668a6.757 6.757 0 0 0-6.11 3.832L32.782 55.215a6.572 6.572 0 0 0-.783 3.118C32 62.015 35.022 65 38.75 65a6.756 6.756 0 0 0 6.093-3.794l11.145-22.014Zm-20.25 4.445c.503-.95.765-2.007.763-3.081 0-3.682-3.022-6.667-6.75-6.667a6.757 6.757 0 0 0-6.11 3.832l-8.857 17.494A6.572 6.572 0 0 0 14 58.333C14 62.015 17.022 65 20.75 65a6.756 6.756 0 0 0 6.093-3.794l8.895-17.57v.001Z" fill="#FFF"/></g></svg>