<svg viewBox="0 0 90 90" xmlns="http://www.w3.org/2000/svg"><g fill="none" fill-rule="evenodd"><path d="M45 0C20.163 0 0 20.16 0 45.038c-.046 11.886 4.67 23.303 13.11 31.737C21.55 85.208 33.023 89.965 45 90c24.839 0 45-20.16 45-44.962C90 20.237 69.915 0 45 0Z" fill="#EA2328"/><path d="M74.925 52.823c.105 2.792-1.872 5.222-4.597 5.65-5.2.916-16.205 1.527-25.4 1.527-9.194 0-20.123-.534-25.398-1.527-2.713-.434-4.664-2.872-4.522-5.65V35.186c.04-2.714 1.909-5.048 4.522-5.65A54.076 54.076 0 0 1 27.519 29a2.02 2.02 0 0 1 1.42.656c.367.401.562.935.54 1.482v12.293c5.426 0 10.098-.306 15.525-.306 5.426 0 10.1.306 15.526.306V31.139c-.05-.541.124-1.08.481-1.485A1.919 1.919 0 0 1 62.414 29a54.864 54.864 0 0 1 7.989.535c2.63.594 4.524 2.922 4.597 5.65v17.637h-.075Z" fill="#FFF"/></g></svg>