<svg viewBox="0 0 90 90" xmlns="http://www.w3.org/2000/svg"><g fill="none" fill-rule="evenodd"><path d="M72 0c9.941 0 18 8.059 18 18v54c0 9.941-8.059 18-18 18H18C8.059 90 0 81.941 0 72V18C0 8.059 8.059 0 18 0Zm6.75 13.255h-67.5a4.5 4.5 0 0 0-4.5 4.5v52.2a4.5 4.5 0 0 0 4.5 4.5h67.5a4.5 4.5 0 0 0 4.5-4.5v-52.2a4.5 4.5 0 0 0-4.5-4.5Z" fill="#2FA732" fill-rule="nonzero"/><path d="M37.168 5.03h15.665a1.566 1.566 0 0 1 0 3.133H37.168a1.566 1.566 0 0 1 0-3.133ZM45 86.084a4.581 4.581 0 1 1 0-9.163 4.581 4.581 0 0 1 0 9.163Z" fill="#FFF" fill-rule="nonzero"/><path d="M78.75 13.255a4.5 4.5 0 0 1 4.5 4.5v52.2a4.5 4.5 0 0 1-4.5 4.5h-67.5a4.5 4.5 0 0 1-4.5-4.5v-52.2a4.5 4.5 0 0 1 4.5-4.5h67.5Z" fill="#FFF"/><g fill="#353535" fill-rule="nonzero"><path d="M29.716 29.482h-7.179c-.726.887-1.398 1.607-2.017 2.158a15.52 15.52 0 0 1-1.754 1.371c-.551.363-1.096.68-1.633.948-.539.27-1.09.538-1.654.807l1.855 4.476 4.033-1.895V52.31h-4.033v5.364h16.133V52.31h-3.751V29.482Zm16.267 13.062V14.858h-2.082V72.84h2.082V44.627h34.8v-2.083z"/><path d="M75.394 24.411H68.62v3.227h-7.098c.241-.404.597-.854 1.068-1.352.47-.497.995-.994 1.573-1.492a29.43 29.43 0 0 1 1.775-1.412 45.21 45.21 0 0 1 1.633-1.15 61.352 61.352 0 0 0 2.823-1.935c.807-.591 1.478-1.217 2.017-1.876.537-.658 1.836-2.3 2.105-3.134l-8.579.029c-.47.55-1.062 1.089-1.774 1.613a46.157 46.157 0 0 1-2.319 1.593 19.123 19.123 0 0 0-2.34 1.775c-.644.51-1.209.988-1.693 1.432a19.72 19.72 0 0 0-1.391 1.41c-.444.499-.88 1.063-1.31 1.695a61.677 61.677 0 0 0-1.493 2.319V33h21.778v-8.59Zm-1.996 44.558c-.39-.538-.8-.994-1.23-1.37-.43-.377-.807-.686-1.13-.929.269-.188.571-.436.908-.746.336-.308.658-.671.968-1.089a6.37 6.37 0 0 0 .786-1.431c.215-.538.323-1.156.323-1.856 0-1.29-.229-2.46-.686-3.509a7.471 7.471 0 0 0-1.996-2.702c-.874-.752-1.95-1.331-3.226-1.734-1.278-.403-2.736-.606-4.376-.606-.914 0-1.809.129-2.682.384a15.29 15.29 0 0 0-2.46.947 13.76 13.76 0 0 0-2.057 1.23c-.605.444-1.083.868-1.432 1.271l3.912 4.718a8.395 8.395 0 0 1 2.3-1.774c.832-.43 1.639-.645 2.42-.645.429 0 .852.067 1.27.202.416.134.793.33 1.129.585.336.255.611.584.827.987.215.404.323.875.323 1.412 0 .914-.33 1.607-.989 2.078-.659.47-1.472.705-2.44.705h-2.943v4.8h3.024c1.022 0 1.835.215 2.44.644.605.431.908.75.908 1.852l7.501-.005c0-.913-.135-.831-.403-1.544a8.025 8.025 0 0 0-.99-1.875Z"/></g></g></svg>