<svg xmlns="http://www.w3.org/2000/svg" xmlns:xlink="http://www.w3.org/1999/xlink" viewBox="0 0 90 90"><defs><path d="M83.241 46.421c2.625-.003 4.756 2.156 4.759 4.822 0 .114-.004.228-.011.342-1.374 20.088-3.401 30.992-6.08 32.713-5.467 3.51-16.076 5.41-31.829 5.701-2.386.044-4.355-1.885-4.398-4.309l-.001-.08V50.417c0-2.18 1.738-3.948 3.883-3.95l33.677-.046ZM42.634 4.311l.001.04v80.503c0 2.667-2.128 4.829-4.752 4.829-.052 0-.104 0-.156-.002-15.945-.533-26.385-2.407-31.32-5.623-8.136-5.302-8.94-72.614 0-78.355C11.875 2.193 22.485.293 38.238 0c2.385-.044 4.354 1.886 4.397 4.31ZM50.001 0h.08c15.752.291 26.361 2.192 31.827 5.702 2.68 1.72 4.707 12.624 6.08 32.713.008.114.012.227.012.341-.003 2.667-2.134 4.826-4.759 4.822l-33.677-.045c-2.145-.003-3.883-1.77-3.883-3.95V4.31c.044-2.423 2.013-4.353 4.4-4.309H50Z" id="a"/></defs><g transform="translate(1)"><mask id="b" fill="#fff"><use xlink:href="#a"/></mask><g mask="url(#b)"><path d="M83.241 46.421c2.625-.003 4.756 2.156 4.759 4.822 0 .114-.004.228-.011.342-1.374 20.088-3.401 30.992-6.08 32.713-5.467 3.51-16.076 5.41-31.829 5.701-2.386.044-4.355-1.885-4.398-4.309l-.001-.08V50.417c0-2.18 1.738-3.948 3.883-3.95l33.677-.046ZM42.634 4.311l.001.04v80.503c0 2.667-2.128 4.829-4.752 4.829-.052 0-.104 0-.156-.002-15.945-.533-26.385-2.407-31.32-5.623-8.136-5.302-8.94-72.614 0-78.355C11.875 2.193 22.485.293 38.238 0c2.385-.044 4.354 1.886 4.397 4.31ZM50.001 0h.08c15.752.291 26.361 2.192 31.827 5.702 2.68 1.72 4.707 12.624 6.08 32.713.008.114.012.227.012.341-.003 2.667-2.134 4.826-4.759 4.822l-33.677-.045c-2.145-.003-3.883-1.77-3.883-3.95V4.31c.044-2.423 2.013-4.353 4.4-4.309H50Z" fill="#2CAE5C"/><path d="M78.69 60.07c.478 0 .865.393.865.878v7.602a.884.884 0 0 1-.322.683l-5.455 4.478a.884.884 0 0 0 .181 1.48c2.758 1.292 4.623 2.842 5.596 4.65 1.038 1.934 1.446 4.329 1.224 7.186a.873.873 0 0 1-.687.79l-9.277 1.948c.518-3.264-.13-5.63-1.946-7.097-1.697-1.37-5.023-1.46-9.98-.269a.871.871 0 0 1-1.063-.854v-5.554c0-.255.11-.498.3-.665l7.263-6.357H54.13a.871.871 0 0 1-.864-.877v-7.144c0-.485.387-.878.864-.878h24.56ZM30.336 26.755c.03.148.046.299.046.45v36.297c0 1.212-.967 2.194-2.16 2.194h-6.03c-1.193 0-2.16-.982-2.16-2.194V36.783l-5.592 1.19c-1.168.248-2.312-.512-2.557-1.699a2.23 2.23 0 0 1-.046-.45V30.23c0-1.039.717-1.935 1.718-2.148l14.224-3.026c1.168-.248 2.313.513 2.557 1.699ZM65.835-4.658c5.068-.506 8.81-.416 11.226.27a.87.87 0 0 1 .517.41l.08.144C79.725-.095 80.142 3.44 78.91 6.773c-1.281 3.466-4.819 8.234-10.613 14.305h10.348a.87.87 0 0 1 .864.878v7.028a.871.871 0 0 1-.864.878H54.46a.871.871 0 0 1-.864-.878v-5.705c0-.743.308-1.452.85-1.951 3.102-2.858 5.695-5.344 7.781-7.46l.253-.257a79.135 79.135 0 0 0 3.356-3.61c3.696-4.282 5.168-5.287 4.743-7.384-.122-.599-1.344-1.134-3.864-1.5-1.52-.22-3.665-1.734-6.505-4.67l-.117-.122.166-.043a38.739 38.739 0 0 1 5.315-.913l.262-.027ZM59.97-3.8l.12.124v.002l-.054.014c-1.324.34-2.552.75-3.687 1.228a.037.037 0 0 1-.049-.02.038.038 0 0 1 .017-.048l2.617-1.459a.854.854 0 0 1 1.036.159Z" fill="#FCFFFC"/></g></g></svg>