<svg viewBox="0 0 90 90" xmlns="http://www.w3.org/2000/svg"><path d="M87.531 48.948c-2.335-3.054-10.347-7.224-10.347-7.224 3.469-.268 7.336-1.475 7.336-1.475 3.489-1.175 3.621-2.891 3.621-2.891.246-1.827-3.144-3.328-3.144-3.328-3.734-1.952-11.236-3.035-11.236-3.035 3.19-1.716 5.14-3.302 5.14-3.302 3.23-2.787 2.349-4.138 2.349-4.138-.458-1.65-3.973-2.023-3.973-2.023-3.224-.43-8.537.47-8.537.47 2.036-2.558 2.766-4.92 2.766-4.92.557-1.9-.193-2.8-.193-2.8-.875-1.475-3.986-.836-3.986-.836-4.57 1.051-7.721 3.126-7.721 3.126.577-2.023.478-4.986.478-4.986-.126-1.129-.378-2.61-1.373-3.328-1.287-.933-3.098-.17-4.299.561-1.2.738-2.222 1.756-3.157 2.787-.166.183-1.041.979-1.002 1.168a29.256 29.256 0 0 0-1.12-3.21C48.482 7.996 46.856 6.09 45.006 6c-1.851.091-3.476 1.997-4.126 3.563a29.256 29.256 0 0 0-1.121 3.211c.04-.19-.836-.985-1.002-1.168-.935-1.031-1.956-2.05-3.157-2.787-1.2-.73-3.011-1.494-4.298-.561-.995.718-1.247 2.2-1.373 3.328 0 0-.1 2.963.477 4.986 0 0-3.15-2.075-7.72-3.126 0 0-3.105-.646-3.987.836 0 0-.743.9-.192 2.8 0 0 .73 2.362 2.766 4.92 0 0-5.314-.9-8.537-.47 0 0-3.516.372-3.973 2.023 0 0-.883 1.351 2.348 4.138 0 0 1.95 1.586 5.14 3.302 0 0-7.502 1.083-11.236 3.035 0 0-3.39 1.5-3.144 3.328 0 0 .132 1.716 3.621 2.891 0 0 3.868 1.207 7.337 1.475 0 0-8.013 4.17-10.348 7.224 0 0-1.877 1.84-1.406 3.524 0 0 .404 2.128 6.109 1.743 0 0 4.437-.268 9.83-1.827a.281.281 0 0 0-.033.013s-5.346 5.958-6.892 9.143c0 0-3.476 5.397-1.386 7.505 0 0 .968 1.253 4.75.104 0 0 5.372-1.795 11.07-6.343 0 0-2.382 6.506-2.634 11.59 0 0-.517 4.973 2.09 5.998 0 0 2.189 1.07 6.328-3.146 0 0 4.994-5.358 7.847-10.788.351 3.015.849 6.057 1.631 8.993.491 1.847 1.095 3.668 1.95 5.384.637 1.28 1.619 3.068 3.264 3.159 1.645-.091 2.627-1.88 3.263-3.159.856-1.716 1.46-3.543 1.95-5.384.783-2.936 1.28-5.978 1.632-8.993 2.853 5.437 7.847 10.788 7.847 10.788 4.14 4.216 6.328 3.146 6.328 3.146 2.607-1.025 2.09-5.998 2.09-5.998-.252-5.077-2.634-11.59-2.634-11.59 5.698 4.548 11.07 6.343 11.07 6.343 3.782 1.149 4.75-.104 4.75-.104 2.09-2.108-1.386-7.505-1.386-7.505-1.546-3.185-6.892-9.143-6.892-9.143s-.013 0-.033-.013c5.393 1.56 9.83 1.827 9.83 1.827 5.698.385 6.11-1.743 6.11-1.743.47-1.683-1.407-3.524-1.407-3.524h.013Zm-9.326-.678s-.849 3.19-13.266-.405c0 0-6.998-2.154-10.042-3.877 0 0 6.407 10.684 7.024 19.22 0 0 .411 4.177-1.599 4.94 0 0-2.222.966-6.712-4.607 0 0-5.4-6.442-8.57-16.009-3.17 9.567-8.57 16.009-8.57 16.009-4.497 5.573-6.713 4.607-6.713 4.607-2.01-.763-1.598-4.94-1.598-4.94.617-8.536 7.024-19.22 7.024-19.22-3.045 1.723-10.042 3.877-10.042 3.877-12.418 3.596-13.267.405-13.267.405-.988-2.61 6.176-6.748 6.176-6.748 5.446-3.518 13.797-6.07 13.797-6.07-9.724-2.74-13.313-6.023-13.313-6.023-3.011-2.493-2.023-3.661-2.023-3.661 1.519-2.52 10.036-.934 10.036-.934 6.288 1.162 9.69 2.8 9.69 2.8-2.626-4.777-3.223-8.895-3.223-8.895-.842-5.22 1.46-5.671 1.46-5.671 1.697-.581 4.158 1.775 4.158 1.775 4.776 4.836 6.401 9.659 6.401 9.659s1.625-4.823 6.401-9.66c0 0 2.468-2.349 4.159-1.774 0 0 2.308.45 1.46 5.671 0 0-.598 4.111-3.224 8.895 0 0 3.402-1.638 9.69-2.8 0 0 8.517-1.586 10.036.934 0 0 .989 1.168-2.023 3.66 0 0-3.588 3.283-13.312 6.024 0 0 8.35 2.552 13.796 6.07 0 0 7.164 4.137 6.176 6.748h.013Z" fill="#1976D2"/></svg>