<svg viewBox="0 0 90 90" xmlns="http://www.w3.org/2000/svg"><g fill="none" fill-rule="evenodd"><path fill="#0056D2" d="M0 0h90v90H0z"/><path d="M18.78 44.99c0-2.761 2.292-4.99 5.163-4.99 2.89 0 5.183 2.229 5.183 4.99 0 2.743-2.293 5.01-5.183 5.01-2.87 0-5.164-2.286-5.164-5.01Zm7.88 0c0-1.37-1.214-2.59-2.717-2.59-1.483 0-2.678 1.22-2.678 2.59 0 1.391 1.214 2.61 2.678 2.61 1.503 0 2.717-1.219 2.717-2.61Zm43.994.077c0-3.029 2.495-5.067 4.757-5.067 1.547 0 2.437.457 3.036 1.353l.232-1.181H81v9.638h-2.32l-.29-.991c-.679.724-1.53 1.181-2.96 1.181-2.262 0-4.776-1.943-4.776-4.933Zm7.89-.02c0-1.466-1.219-2.647-2.727-2.647a2.683 2.683 0 0 0-2.688 2.686c0 1.333 1.218 2.533 2.688 2.533 1.528-.019 2.727-1.219 2.727-2.572Zm-10.672-3.699v-1.104h-2.463v9.474h2.463v-5.112c0-1.535.752-2.34 2.086-2.34.094 0 .17 0 .244.018L70.654 40c-1.278.019-2.2.45-2.782 1.348Zm-25.153 0v-1.104H40.18l.02 9.474h2.537l-.02-5.112c0-1.535.776-2.34 2.132-2.34.097 0 .174 0 .252.018L45.567 40c-1.318.019-2.267.45-2.848 1.348Zm-12.601 4.693v-5.9h2.478v5.596c0 1.237.681 1.96 1.873 1.96 1.324 0 2.1-.818 2.1-2.379v-5.177h2.478v9.63H36.57V48.65c-.586.913-1.532 1.35-2.838 1.35-2.232.02-3.613-1.598-3.613-3.958Zm24.378-1.06c0-2.7 1.962-5 5.038-4.98 2.865 0 4.883 2.28 4.883 4.942 0 .266-.019.551-.057.799l-7.403-.02c.289 1.16 1.25 1.978 2.692 1.997.884 0 1.827-.324 2.403-1.046l1.712 1.369C62.879 49.277 61.322 50 59.668 50c-2.922-.038-5.172-2.205-5.172-5.019Zm7.403-.988c-.135-.97-1.173-1.73-2.365-1.73-1.173 0-2.115.684-2.48 1.71l4.845.02Zm-16.332 3.734 2.235-1.155c.366.795 1.118 1.25 2.158 1.25.963 0 1.33-.303 1.33-.72 0-1.534-5.318-.606-5.318-4.129 0-1.95 1.734-2.973 3.872-2.973 1.619 0 3.064.7 3.854 2.027l-2.216 1.155c-.327-.644-.944-1.004-1.734-1.004-.77 0-1.137.265-1.137.7 0 1.497 5.318.55 5.318 4.13 0 1.856-1.541 2.992-4.027 2.992-2.12-.019-3.603-.7-4.335-2.273ZM9 44.939C9 42.197 11.274 40 14.12 40c1.835 0 3.42.902 4.338 2.253l-2.14 1.221a2.71 2.71 0 0 0-2.197-1.126c-1.472 0-2.656 1.201-2.656 2.572 0 1.37 1.203 2.573 2.656 2.573a2.65 2.65 0 0 0 2.254-1.22l2.121 1.238c-.898 1.409-2.522 2.348-4.375 2.348C11.274 49.878 9 47.624 9 44.939Z" fill="#FFF" fill-rule="nonzero"/></g></svg>