<svg viewBox="0 0 90 90" xmlns="http://www.w3.org/2000/svg"><g fill="none"><path fill="#0067F5" d="M0 0h90v90H0z"/><path d="M45 14H27.627l-.034.06-2.398 4.369H45c14.67 0 26.571 11.895 26.571 26.571 0 14.676-11.897 26.571-26.571 26.571-14.674 0-26.571-11.897-26.571-26.571 0-2.777.434-5.536 1.288-8.175h5.071A21.802 21.802 0 1 0 45 23.2H22.576l-2.43 4.429H45a17.371 17.371 0 1 1-15.33 9.194h5.747A12.597 12.597 0 1 0 45 32.394H17.527l-2.429 4.429A31.055 31.055 0 0 0 14 45c0 17.12 13.88 31 31 31 17.12 0 31-13.88 31-31 0-17.12-13.88-31-31-31Zm0 22.825a8.177 8.177 0 1 1 .27 16.352A8.177 8.177 0 0 1 45 36.825Z" fill="#FFF"/></g></svg>