<svg width="90" height="90" viewBox="0 0 90 90" xmlns="http://www.w3.org/2000/svg"><g fill="none" fill-rule="evenodd"><rect fill="#FFF" opacity="0" width="90" height="90"/><g transform="translate(0 11)" fill="#008CA8" fill-rule="nonzero"><path d="M34.7825587,37.5928952 C33.9145103,37.5836633 33.0611287,37.3692858 32.2929116,36.9674724 C29.718347,35.5549431 28.7275385,32.372422 30.0494934,29.7615133 C31.0525195,27.8674162 31.5693987,25.7564352 31.5542251,23.6160538 C31.5542406,16.3129466 25.6056666,10.3884006 18.2578681,10.3734045 C14.6013305,10.3607392 11.1036578,11.8576557 8.60022615,14.5066338 C6.46813847,15.9833278 3.58515101,15.7658143 1.70176284,13.9861635 C-0.181625323,12.2065128 -0.545808654,9.35571039 0.830338538,7.16471324 C9.14221709,-1.2573336 22.39332,-2.39217418 32.0321876,4.49254892 C41.6710552,11.377272 44.8143364,24.2220769 39.4335478,34.7377039 C38.5068832,36.4461211 36.734418,37.5342181 34.7825587,37.5928952 Z" transform="translate(24.86)"/><path d="M66.3997086,46.825138 C58.7423268,47.218733 51.4841938,43.408169 47.494806,36.899949 C46.126868,34.6973729 44.75893,32.4404121 43.6098622,30.1834513 C42.4607943,27.9264905 41.4211614,26.2133757 40.2447348,24.2555303 C34.4446778,14.6838412 29.4653837,10.659381 23.5832504,10.659381 C18.8527714,10.4423347 14.3851087,12.8270861 11.9545709,16.8665438 C9.52403316,20.9060014 9.52403316,25.9463288 11.9545709,29.9857865 C14.3851087,34.0252442 18.8527714,36.4099956 23.5832504,36.1929493 L34.5267541,36.1929493 C37.1096965,36.6796448 38.9793233,38.9232824 38.9793233,41.5362359 C38.9793233,44.1491895 37.1096965,46.3928271 34.5267541,46.8795226 L23.5832504,46.8795226 C10.5585809,46.8795226 3.64491893e-15,36.385184 3.64491893e-15,23.4397613 C3.64491893e-15,10.4943386 10.5585809,0 23.5832504,0 C36.3871497,0 44.1296786,10.0339581 49.4372779,18.7898783 C50.6957808,20.8564929 51.8448487,22.9774922 53.0212753,25.0712992 C54.197702,27.1651062 55.3741286,29.3132978 56.6599903,31.4071048 C58.7069547,34.7299834 62.5042418,36.5746684 66.3997086,36.1385647 C71.6727031,36.1453595 76.4154409,32.9517888 78.3644169,28.0820069 C80.3133929,23.2122249 79.0735404,17.6533594 75.2365878,14.0584183 C73.6875214,11.9565186 73.8559376,9.05796054 75.6381493,7.14727142 C77.420361,5.2365823 80.3155975,4.85063264 82.5413765,6.22703635 C89.6056488,12.8063833 91.9068172,23.0084451 88.3446886,31.9555958 C84.7825599,40.9027465 76.0807886,46.7773526 66.3997086,46.7707534 L66.3997086,46.825138 Z" transform="translate(0 22.12)"/></g></g></svg>