<svg xmlns="http://www.w3.org/2000/svg" viewBox="0 0 90 90"><path fill="#FFF" d="M0 0h90v90H0z"/><path fill="#FFDC0B" d="M32.01 40.82S31 37.5 30.84 33.35L30.8 32s7.53-5.01 16.99-3.95c6.25.7 11.37 3.95 11.37 3.95s.33 9.62-4.84 16.46c-4.68 6.2-9.34 8.35-9.34 8.35s-10.24-5.68-12.96-15.99z"/><path fill="#1F3647" d="M19.6 49.1l5.03-2.94.27.62C28.98 56.4 36.36 62.93 45 68.35c6.18-3.88 11.85-8.43 16.05-14.32a4.27 4.27 0 005.2-4.18c0-2.38-1.9-4.3-4.25-4.3A4.27 4.27 0 0058.32 52c-3.41 4.8-7.9 8.56-13.01 11.73l-.31.2-.31-.2C35.78 58.2 29.38 51.3 26.5 41.11l-5.54 3.24-.02-.02-2.6 1.52-.23-.7C15.8 38.08 15 30.48 14.8 23.06l-.01-.37.32-.17c7.68-4.2 15.99-7.76 24.72-8.79v-3.45c-10.16 1.1-19.9 5.35-28.83 10.2.3 10.26 1.5 20.9 5.66 30.35l2.95-1.72v-.02zm42.4-.81c.85 0 1.54.7 1.54 1.56 0 .85-.7 1.55-1.54 1.55-.85 0-1.54-.7-1.54-1.55 0-.86.69-1.56 1.54-1.56z"/><path fill="#1F3647" d="M45.6 10v9.23H45c-8.59 0-16.54 3.04-24.01 7.08.04 1.54.13 3.08.26 4.61a4.3 4.3 0 002.28 7.91 4.27 4.27 0 004.25-4.29c0-1.9-1.23-3.53-2.93-4.08l-.07-1.57v-.37l.31-.17c7.53-4.12 15.34-6.48 23.9-5.46v-9.3l.66.07c8.94.94 17.4 4.58 25.24 8.86l.32.17v.37c-.14 4.9-.54 9.85-1.45 14.67l3.17 1.84A105.22 105.22 0 0079 20.5C68.64 14.85 57.52 10.14 45.6 10zM25.06 34.54c0 .86-.69 1.55-1.54 1.55-.85 0-1.53-.7-1.53-1.55 0-.86.68-1.56 1.53-1.56s1.54.7 1.54 1.56z"/><path fill="#1F3647" d="M67.28 40.17a66.85 66.85 0 001.73-13.86 71.64 71.64 0 00-9.08-4.19 4.27 4.27 0 00-4.23-3.86 4.27 4.27 0 00-4.24 4.3c0 2.37 1.9 4.29 4.24 4.29 1.24 0 2.35-.54 3.13-1.38 2.08.82 4.1 1.8 6.08 2.88l.32.17-.01.37c-.13 4.5-.7 9.02-2.06 13.33l8.1 4.72-.2.48C66.19 60.16 56.6 68.37 45.32 75.39l-.31.19-.31-.2c-8.8-5.46-17.09-12.01-22.45-21.09L19.31 56C25.4 66.32 35.02 73.77 45 80c13.96-8.72 25.26-18.47 30.39-34.6l-8.22-4.8.11-.43zM55.71 24.1c-.85 0-1.54-.7-1.54-1.56 0-.86.69-1.55 1.54-1.55.85 0 1.53.7 1.53 1.55 0 .86-.68 1.56-1.53 1.56z"/><path fill="#1F3647" d="M46.24 41.77v3.6c0 .7-.56 1.26-1.24 1.26-.68 0-1.24-.56-1.24-1.25v-3.6a3.57 3.57 0 01-2.3-3.35A3.56 3.56 0 0145 34.85c1.95 0 3.54 1.6 3.54 3.58 0 1.53-.96 2.84-2.3 3.34z"/></svg>