<svg viewBox="0 0 90 90" xmlns="http://www.w3.org/2000/svg"><g fill="none"><path fill="#0080FF" d="M0 0h90v90H0z"/><path d="M54.534 26.553 77 40.245v22.781L44.683 82l-7.713-4.768 4.392-2.383 3.321 1.776 27.414-16.17V42.35l-22.14-13.32 4.577-2.476Zm6.861 14.743 4.297 2.478V56.67L33.539 74.943 13.602 63.635V54.99l4.836 2.639v3.435L33.54 69.64l27.856-15.375v-12.97ZM45.317 8l7.713 4.768-4.392 2.383-3.321-1.755-27.39 16.149V47.65l22.116 13.341-4.553 2.478L13 49.778V26.997L45.317 8Zm11.152 7.057 19.935 11.308v8.668L71.57 32.37v-3.435l-15.1-8.576-27.834 15.375V48.7l-4.299-2.453V33.35L56.47 15.057Z" fill="#FFF"/></g></svg>