<svg viewBox="0 0 90 90" xmlns="http://www.w3.org/2000/svg"><path d="M45 50.455c10.91 8.181 16.364 15.909 16.364 23.181C61.364 82.674 54.037 90 45 90s-16.364-7.326-16.364-16.364c0-7.272 5.455-15 16.364-23.181Zm28.636-21.819C82.674 28.636 90 35.963 90 45s-7.326 16.364-16.364 16.364c-7.272 0-15-5.455-23.181-16.364 8.181-10.91 15.909-16.364 23.181-16.364Zm-57.272 0c7.272 0 15 5.455 23.181 16.364-8.181 10.91-15.909 16.364-23.181 16.364C7.326 61.364 0 54.037 0 45s7.326-16.364 16.364-16.364ZM45 0c9.037 0 16.364 7.326 16.364 16.364 0 7.272-5.455 15-16.364 23.181-10.91-8.181-16.364-15.909-16.364-23.181C28.636 7.326 35.963 0 45 0Z" fill="#2270B8" fill-rule="evenodd"/></svg>