<svg viewBox="0 0 90 90" xmlns="http://www.w3.org/2000/svg"><g fill="none" fill-rule="evenodd"><path fill="#FC0000" fill-rule="nonzero" d="M0 0h90v90H0z"/><g fill="#FFF"><path d="M64.832 47.496v.604a14.591 14.591 0 0 1-7.726 4.936 97.858 97.858 0 0 0-9.659-6.988 243.427 243.427 0 0 0-3.014-1.974c-1.958-1.269-4.098-2.655-6.414-4.286a5.049 5.049 0 0 0-.043-.41 3.897 3.897 0 0 1-.047-.535c0-8.42 6.6-14.704 15.313-14.704 4.482-.043 8.746 1.966 11.615 5.473v.61l-5.08 4.445h-.592a8.157 8.157 0 0 0-5.967-2.745 6.574 6.574 0 0 0-4.82 2.006 6.82 6.82 0 0 0-1.912 4.932 6.82 6.82 0 0 0 1.903 4.922 6.573 6.573 0 0 0 4.804 2.015 8.157 8.157 0 0 0 5.968-2.753h.592l5.08 4.452Zm-15.428 5.607a14.756 14.756 0 0 1-8.285-5.144c.227.147.447.294.667.441.338.226.677.452 1.042.678 2.071 1.423 4.29 2.711 6.576 4.025Z"/><path d="M69 80c-2.05-4.631-6.17-10.574-22.303-19.067-7.432-4.098-20.145-10.36-31.554-22.312 1.03 4.311 6.336 13.787 29.17 25.624C50.616 67.639 61.311 70.86 69 80m-2.071-8.276c-1.88-5.496-5.27-12.532-21.393-22.982C37.687 43.476 26.167 36.835 11 20c1.085 4.542 5.88 16.366 30.029 31.712 7.937 5.505 18.171 8.904 25.9 20.012" fill-rule="nonzero"/></g></g></svg>