<svg xmlns="http://www.w3.org/2000/svg" viewBox="0 0 90 90"><path fill="#263238" d="M0 0h90v90H0z"/><g fill="#FFF"><path d="M55.687 55.425c-.037-.337-.3-1.612-1.2-1.612h-2.7s-1.125 0-1.087 1.05c.037 2.1 1.237 3.9 2.7 5.1 1.237 1.012 2.737 1.537 4.425 1.537 1.5-.037 1.687-1.125.975-1.462-1.2-.563-2.775-1.8-3.113-4.688v.075Zm8.063-28.95c-7.575 0-15.113 1.838-20.063 4.8-2.625 1.575-4.65 3.525-6.075 5.738-1.125 1.8-1.875 3.75-2.175 5.85-.112.712-.15 2.85 2.138 3.45 1.425.375 3.637.525 5.1.712 2.4.263 3.075-2.4 3.262-2.85 1.913-5.212 4.688-8.737 8.738-11.062 4.087-2.363 9.562-3.45 17.287-3.45 1.013 0 3.375.112 3.375-1.05 0-2.1-10.2-2.1-11.625-2.1h.038v-.038ZM53.25 66.15c-2.738-.637-7.313-3.6-8.363-11.137-.187-1.425-1.012-2.1-2.175-2.363-1.612-.337-4.387-.487-5.287-.562-1.313-.15-2.25.637-2.1 2.887.262 3.413 1.65 6.113 3.975 8.738 2.737 3.112 6.337 4.912 10.162 4.837 4.238-.112 4.538-.862 4.575-1.387 0-.563-.262-.9-.75-1.013h-.037ZM41.7 72.413c-4.2 0-13.125-6.788-13.125-17.4 0-1.875-1.125-3.75-3.488-4.425-1.912-.563-4.575-1.425-6.3-1.5-4.125-.263-3.9 3.15-3.787 4.95.412 7.537 3.712 13.912 9.187 17.512 2.288 1.5 4.95 2.513 8.175 3.113.75.15 3.413.712 6.113.6 4.162-.188 4.612-1.388 4.612-1.875 0-.638-.45-.938-1.387-.938v-.037Z"/><path d="M76.425 19.163C66.337 16.238 55.5 15.413 45.15 16.5c-10.988 1.163-24.638 5.55-28.913 18.638-.45 1.35-1.237 6.3 3.488 7.5 1.537.375 3.075 1.087 4.687 1.387 4.65.863 5.625-3.525 5.888-4.387.262-.825.562-1.65.937-2.475 1.463-3.15 3.638-5.813 6.15-7.875 5.175-4.313 11.588-6.338 17.813-7.35a62.826 62.826 0 0 1 10.912-.75c11.025.262 12.225 1.087 12.638-.113.412-1.2-1.575-1.687-2.288-1.912h-.037ZM67.05 36.338c-12.188 0-15.375 6.112-16.275 10.2-.413 1.987.787 2.137 1.875 2.325 1.575.262 2.812.037 3.375-1.463 1.725-4.65 4.05-9.187 11.475-9.187.75 0 1.425-.45 1.425-.938 0-.487-.488-.937-1.875-.937Z"/></g></svg>