<svg viewBox="0 0 90 90" xmlns="http://www.w3.org/2000/svg"><defs><radialGradient cx="-21.277%" cy="34.755%" fx="-21.277%" fy="34.755%" r="139.811%" gradientTransform="matrix(.91549 0 0 1 -.018 0)" id="a"><stop stop-color="#FBE170" offset="0%"/><stop stop-color="#F9AE07" offset="100%"/></radialGradient><radialGradient cx="-7.727%" cy="40.203%" fx="-7.727%" fy="40.203%" r="144.819%" gradientTransform="matrix(1 0 0 .89787 0 .041)" id="b"><stop stop-color="#FBE170" offset="0%"/><stop stop-color="#F9AE07" offset="100%"/></radialGradient><radialGradient cx="-.852%" cy="87.895%" fx="-.852%" fy="87.895%" r="127.036%" gradientTransform="matrix(.86166 0 0 1 -.001 0)" id="c"><stop stop-color="#FBE170" offset="0%"/><stop stop-color="#F9AE07" offset="100%"/></radialGradient></defs><g fill="none" fill-rule="evenodd"><path d="m73 65.656-.323.322C64.93 74.99 57.827 76.6 56.536 76.921v-.322c1.614-4.828 2.582-9.655 2.905-14.805h-.323c-3.474 9.333-13.147 14.853-22.979 13.114-9.832-1.739-17.01-10.24-17.051-20.194C19.088 40.23 29.74 35.403 32 34.437c-10.976 3.219-19.693 15.127-19.693 27.357 0 12.874 10.008 24.782 20.016 27.679 6.133.965 12.267.643 18.078-1.288A36.102 36.102 0 0 0 73 65.656Z" fill="url(#a)" transform="translate(9)"/><path d="M26.19 31.219A32.255 32.255 0 0 0 6.86 47.722a32.095 32.095 0 0 0-1.331 25.337l2.26-2.897A35.402 35.402 0 0 0 19.41 86.898l.646-2.253a28.134 28.134 0 0 0 11.945 4.828c-11.1-4.583-18.337-15.38-18.337-27.357 0-11.977 7.237-22.774 18.337-27.357a26.217 26.217 0 0 1 10.33-2.253c5.488 0 10.654 1.61 14.85 5.15-12.267-12.552-31.314-6.437-31.314-6.437h.323Z" fill="url(#b)" transform="translate(9)"/><path d="M45.882 10.943A62.954 62.954 0 0 0 42.008 0c.969 0 17.756 2.575 25.181 17.701 6.457 12.874 3.551 28-.646 32.185a38.629 38.629 0 0 0-9.039-12.23 39.708 39.708 0 0 0-5.488-3.862c-10.976-7.08-25.826-2.575-25.826-2.575C12.155 34.929 1.8 46.782.04 61.15c-.645-15.77 6.457-27.678 15.497-35.402l-2.26-1.932s5.81-6.115 18.078-7.724l-3.228-3.862a44.359 44.359 0 0 1 17.755-.965v-.322Zm17.756 21.241c1.535-5.481-1.035-11.28-6.134-13.839a8.668 8.668 0 0 0-.895 8.832 8.716 8.716 0 0 0 7.352 5.007h-.323Z" fill="url(#c)" transform="translate(9)"/></g></svg>