<svg viewBox="0 0 90 90" xmlns="http://www.w3.org/2000/svg"><g fill="none"><path fill="#000" d="M0 0h90v90H0z"/><path d="M71.081 20.804H42.025a2.911 2.911 0 0 1-2.92-2.902A2.911 2.911 0 0 1 42.026 15H71.08c1.612 0 2.92 1.3 2.92 2.902a2.911 2.911 0 0 1-2.919 2.902ZM52.538 34.146H27.443a2.911 2.911 0 0 1-2.918-2.902 2.911 2.911 0 0 1 2.918-2.902h25.095c1.611 0 2.919 1.3 2.919 2.902a2.911 2.911 0 0 1-2.92 2.902Z" fill="#E60129"/><path d="M44.072 48.027H13.919A2.911 2.911 0 0 1 11 45.125a2.911 2.911 0 0 1 2.919-2.902h30.166c1.611 0 2.919 1.3 2.919 2.902a2.931 2.931 0 0 1-2.932 2.902Zm8.466 13.447H27.443a2.911 2.911 0 0 1-2.918-2.902 2.911 2.911 0 0 1 2.918-2.902h25.095c1.611 0 2.919 1.3 2.919 2.902a2.903 2.903 0 0 1-2.92 2.902ZM71.08 75H42.025a2.911 2.911 0 0 1-2.92-2.902 2.911 2.911 0 0 1 2.92-2.902H71.08c1.611 0 2.919 1.3 2.919 2.902A2.911 2.911 0 0 1 71.081 75Z" fill="#01A053"/></g></svg>