<svg xmlns="http://www.w3.org/2000/svg" viewBox="0 0 90 90"><path d="M0 0h90v90H0z"/><path d="M45.058 1C64.24 1 80.56 13.244 86.608 30.333H61.477A21.986 21.986 0 0 0 45.057 23C32.892 23 23.03 32.85 23.03 45s9.862 22 22.029 22a21.987 21.987 0 0 0 16.419-7.333h25.131C80.56 76.757 64.24 89 45.058 89 20.725 89 1 69.3 1 45S20.725 1 45.058 1Zm21.848 46.954H89a43.707 43.707 0 0 1-.784 5.846H65.27a21.709 21.709 0 0 0 1.637-5.846ZM88.216 36.2c.393 1.929.655 3.882.784 5.846H66.906a21.71 21.71 0 0 0-1.637-5.846h22.947Z" fill="#FFF"/></svg>