<svg viewBox="0 0 90 90" xmlns="http://www.w3.org/2000/svg"><defs><linearGradient x1="0%" y1="0%" x2="100%" y2="100%" id="a"><stop stop-color="#1463B2" offset="0%"/><stop stop-color="#031F5E" offset="100%"/></linearGradient></defs><g fill="none" fill-rule="evenodd"><path fill="url(#a)" d="M0 0h90v90H0z"/><path d="M9 9h72v72H9z"/><g fill="#FFF" fill-rule="nonzero"><path d="m45 9 31 18v36L45 81 14 63V27L45 9Zm0 3.469L17 28.727v32.545L45 77.53l28-16.258V28.727L45 12.469Z"/><path d="M57.343 66.939h-4.449l-5.324-4.941v-2.533l5.515-5.32v-8.423l7.206-4.751 8.209 6.268-11.157 19.7Zm-18.42-13.3.813-7.917-2.693-7.095h15.914l-2.633 7.095.754 7.917H38.922Zm3.634 8.359L37.23 67h-4.513L21.5 47.24l8.272-6.208 7.268 4.687v8.422l5.514 5.32.003 2.537ZM32.657 24h24.626l2.945 12.666H29.775L32.657 24Z"/></g></g></svg>