<svg xmlns="http://www.w3.org/2000/svg" viewBox="0 0 90 90"><rect width="90" height="90" fill="#FFF"/><g fill="#025BAB" transform="translate(5 27)"><path d="M23 25.55C21.3459207 26.411499 19.4928724 26.8186865 17.63 26.73 12.16 26.73 9.97 23.28 9.97 18.36 9.97 13.44 12.62 10 18 10 19.7425174 9.92310221 21.4725226 10.3279234 23 11.17L23 14.75 21.47 14.66 21 12.53C21.0245188 12.3409067 20.8973438 12.165493 20.71 12.13 19.7965559 11.8122384 18.837113 11.6467008 17.87 11.64 14.35 11.64 12.07 13.97 12.07 18.36 12.07 22.75 14.22 25.05 17.71 25.05 18.7762488 25.0806493 19.8394561 24.9215068 20.85 24.58 21.03 24.52 21.12 24.45 21.16 24.18L21.52 22.18 23 22.18 23 25.55zM34.08 14.41L33.74 12.51C33.68 12.2 33.61 12.11 33.5 12.04 32.8319522 11.7404256 32.1004277 11.6099189 31.37 11.66 29.06 11.66 27.94 12.66 27.94 14.26 27.94 16.12 29.55 16.65 31.35 17.26 33.59 17.96 36.12 18.7 36.12 22.06 36.12 25.42 33.38 26.78 30.18 26.78 28.5738385 26.794539 26.979331 26.5061706 25.48 25.93L25.48 22.21 27 22.21 27.42 24.21C27.4396315 24.4573119 27.6252499 24.6594296 27.87 24.7 28.6807918 24.9608036 29.5283436 25.0891182 30.38 25.08 32.66 25.08 34.03 24.21 34.03 22.26 34.03 20.31 32.49 19.71 30.74 19.19 28.48 18.52 25.86 17.94 25.86 14.56 25.86 11.35 28.36 9.99 31.48 9.99 32.9022392 9.99824704 34.3113781 10.2624606 35.64 10.77L35.64 14.58 34.08 14.41zM51.41 25.55C49.7450685 26.4212384 47.8765107 26.8287982 46 26.73 40.53 26.73 38.34 23.28 38.34 18.36 38.34 13.44 41 10 46.42 10 48.149829 9.94091555 49.8624973 10.3595678 51.37 11.21L51.37 14.79 49.85 14.7 49.47 12.57C49.4888466 12.3790481 49.3585909 12.2053738 49.17 12.17 48.2565559 11.8522384 47.297113 11.6867008 46.33 11.68 42.81 11.68 40.53 14.01 40.53 18.4 40.53 22.79 42.68 25.09 46.17 25.09 47.2362488 25.1206493 48.2994561 24.9615068 49.31 24.62 49.49 24.56 49.58 24.49 49.62 24.22L49.98 22.22 51.41 22.22 51.41 25.55zM65.43 12.06C65.43 11.73 65.43 11.64 65.08 11.61L63.66 11.46 63.66 10.25 69.22 10.25 69.22 11.46 67.72 11.64C67.38 11.64 67.36 11.73 67.36 12.06L67.36 21.06C67.36 24.94 65.21 26.75 61.36 26.75 57.19 26.75 55.56 24.75 55.56 21.02L55.56 12.02C55.56 11.69 55.56 11.6 55.2 11.57L53.79 11.42 53.79 10.25 59.5 10.25 59.5 11.46 58 11.64C57.66 11.64 57.64 11.73 57.64 12.06L57.64 20.75C57.64 23.75 58.92 24.99 61.51 24.99 64.1 24.99 65.43 23.93 65.43 20.82L65.43 12.06z"/><path d="M79.18,1.57 L79.18,0 L0,0 L0,36.69 L79.18,36.69 L79.18,35.12 L79.18,35.12 L79.18,1.57 Z M77.61,35.12 L1.61,35.12 L1.61,1.57 L77.61,1.57 L77.61,35.12 Z"/></g></svg>