<svg xmlns="http://www.w3.org/2000/svg" xmlns:xlink="http://www.w3.org/1999/xlink" viewBox="0 0 90 90"><g fill="none" fill-rule="evenodd"><path fill="#fff" opacity="0" d="M0 0h90v90H0z"/><g fill-rule="nonzero"><use xlink:href="#B" fill="#e74c3c"/><use xlink:href="#C" fill="#000" opacity=".12"/><use xlink:href="#D" fill="#fff"/><use xlink:href="#C" fill="#000" opacity=".12"/><use xlink:href="#D" fill="#fff"/><use xlink:href="#C" fill="#000" opacity=".12"/><use xlink:href="#D" fill="#fff"/><use xlink:href="#C" fill="#000" opacity=".12"/><use xlink:href="#D" fill="#fff"/><use xlink:href="#B" fill="#e74c3c"/><use xlink:href="#C" fill="#000" opacity=".12"/><use xlink:href="#D" fill="#fff"/><use xlink:href="#C" fill="#000" opacity=".12"/><use xlink:href="#D" fill="#fff"/><use xlink:href="#C" fill="#000" opacity=".12"/><use xlink:href="#D" fill="#fff"/><use xlink:href="#C" fill="#000" opacity=".12"/></g></g><defs ><path id="B" d="M30.431 40.442l3.238-2.706-23.632-19.745-.116-.079-.135-.075-.133-.05-.148-.037h-.159l-.148.015-.142.031-.135.053-.125.072-.125.092-.107.103-.081.125-.072.125-.039.143-.037.147v.272l.21 1.468.242 1.473.103.58.157.893.291 1.46.299 1.449.345 1.451.352 1.457.387 1.436.406 1.433.439 1.42.446 1.414.489 1.413.5 1.409.52 1.389.55 1.389.572 1.38.605 1.352.612 1.363.649 1.348.653 1.334.69 1.326.894 1.638 11.684-9.759h0zm34.702 19.282l1.7-2.39L53.095 45.85l-3.238-2.706-2.178 1.823-.332.249-.273.165-.267.147-.282.125-.301.103-.295.084-.308.048-.313.037-.304.018-.417-.018-.313-.055-.299-.061-.304-.084-.291-.11-.28-.127-.269-.16-.258-.174-.251-.187-2.18-1.823-3.238 2.706-13.733 11.484.854 1.22.872 1.202.894 1.192.918 1.183.935 1.158.948 1.152.979 1.132.988 1.115 1.007 1.101 1.033 1.077 1.051 1.058 1.06 1.046 1.082 1.036 1.106 1.005 1.114.992 1.136.976 1.14.956 1.167.936 1.177.906 2.362 1.741h.009l1.208-.868 1.195-.904 1.177-.912 1.171-.93 1.141-.956 1.136-.976 1.11-.991 1.095-1.016 1.082-1.027 1.073-1.046 1.038-1.068 1.029-1.077 1.011-1.101.988-1.106.979-1.145.948-1.134.935-1.17.918-1.174.894-1.192v-.002zM45.005 36.381l27.08-22.628-1.287-.477-1.302-.453-1.302-.427-1.309-.4-1.326-.383-1.319-.352-1.333-.347-1.342-.306-1.341-.286-1.346-.253-1.352-.238-1.361-.22-1.365-.187-1.365-.165-1.365-.132-1.365-.116-1.372-.094-1.374-.062-1.372-.04-1.586-.022-1.381.009-1.365.044-1.372.059-1.374.084-1.374.116-1.365.134-1.365.156-1.365.185-1.348.209-1.357.237-1.35.257-1.342.286-1.341.306-1.335.325-1.319.361-1.324.374-1.32.4-1.3.427-1.302.444-1.49.549 27.089 22.628zm36.668-17.6l-.009-.156-.031-.134-.055-.147-.07-.125-.092-.125-.105-.103-.125-.079-.124-.075-.148-.05-.144-.037h-.148l-.148.015-.144.031-.135.053-.227.141-23.637 19.745 3.238 2.706 11.684 9.759.716-1.302.69-1.332.668-1.321.656-1.348.621-1.348.596-1.367.581-1.38.55-1.38.546-1.389.502-1.398.487-1.411.457-1.418.448-1.42.402-1.429.398-1.442.367-1.449.339-1.444.313-1.458.295-1.464.229-1.255.041-.205.236-1.473.273-1.842.009-.147h0zM90 18.616v.477l-.035.477-.05.466-.374 2.537-.269 1.539-.282 1.53-.313 1.532-.343 1.526-.354 1.523-.385 1.512-.415 1.504-.439 1.501-.455 1.495-.479 1.48-.509 1.482-.52 1.473-.562 1.46-.572 1.449-.605 1.442-.627 1.431-.645 1.427-.664 1.411-.701 1.396-.704 1.394-.738 1.376-.762 1.369-.778 1.358-.806 1.336-.822 1.33-.841 1.313-.863 1.308-.894 1.282-.909 1.271-.926 1.255-.948 1.247-.966 1.233-.988 1.211-1.007 1.192-1.025 1.183-1.051 1.17-1.06 1.137-1.082 1.132-1.099 1.121-1.114 1.086-1.136 1.077-1.154 1.068-1.167 1.036-1.186 1.027-1.208.994-1.221.983-1.226.965-1.248.943-1.271.923-1.28.903-1.287.89-1.315.862-1.311.838-2.161-1.402-1.302-.868-1.291-.892-1.272-.921-1.25-.936-1.236-.963-1.23-.972-1.204-.996-1.189-1.014-1.177-1.027-1.162-1.058-1.138-1.07-1.123-1.084-1.114-1.108-1.082-1.132L25 72.92l-1.051-1.154-1.029-1.18-1.02-1.192-.988-1.202-.979-1.224-.953-1.242-.94-1.255-.904-1.264-.898-1.284-.872-1.295-.854-1.304-.832-1.332-.811-1.334-.791-1.348-.76-1.367-.752-1.37-.716-1.389-.697-1.398-.69-1.411-.645-1.418-.634-1.429-.612-1.433-.586-1.449-.559-1.462-.54-1.458-.511-1.482-.492-1.482-.465-1.49-.448-1.495-.415-1.501-.398-1.517-.363-1.513-.352-1.523-.313-1.534-.301-1.532-.273-1.535-.249-1.543-.221-1.545-.07-.89L0 18.678l.022-.481.041-.462.061-.468.1-.462.103-.471.129-.433.004-.013.166-.444.179-.437.207-.437.219-.415.249-.404.26-.378.291-.387.304-.361.321-.343.345-.334.354-.312.376-.297.384-.268.395-.262.42-.235 2.517-1.301 1.298-.631 1.302-.6 1.319-.58 1.324-.574 1.342-.525 1.342-.521 1.355-.495 1.359-.466 1.378-.444 1.37-.422 1.387-.398 1.396-.372 1.396-.352 1.403-.334 1.405-.299 1.413-.279 1.42-.262 1.42-.224 1.427-.209L34.93 1.1l1.438-.156 1.435-.132 1.435-.116 1.44-.084 1.446-.059 1.437-.044L45.005.5l2.84.053 1.438.059 1.438.084 1.437.101 1.435.139 1.437.156 1.427.185 1.427.205 1.422.231 1.42.253 1.413.286 1.418.297 1.39.334 1.405.352 1.387.372 1.383.393 1.385.427 1.361.444 1.365.464 1.354.497 1.352.508 1.333.543 1.333.56 1.309.574 1.311.615 1.289.624 1.291.649 1.272.668.769.462.385.272.374.29.354.312.345.332.321.339.313.365.282.369.269.396.251.404.227.415.207.427.179.431.17.449.022.073v.004l.109.369.12.462.089.459.077.468.039.477.022.466h0z"/><path id="C" d="M88.362 15.961l-.258-.196-.271-.187-.282-.165-.291-.147-.301-.123-.313-.103-.312-.073-.323-.063-.321-.029-.333-.011-.325.011-.319.04-.323.052-.324.084-.314.103-.289.123-.301.158-.273.165-.455.332-2.468 2.063-23.637 19.74-6.473 5.409-2.176 1.826-.332.247-.271.165-.271.147-.28.123-.302.103-.294.084-.309.052-.312.033-.306.018-.415-.018-.314-.052-.3-.062-.301-.084-.291-.114-.282-.123-.27-.158-.258-.176-.252-.185-2.176-1.826-6.473-5.409-23.634-19.738-2.467-2.065-.26-.197-.273-.187-.278-.168-.292-.133-.313-.122-.312-.096-.313-.073-.321-.063-.325-.018-.332-.011-.323.018-.322.033-.325.074-.319.08-.306.107-.301.134-.291.143-.278.176-.262.187-.424.373 7.479 6.25.011.007 21.543 17.996 6.472 5.408 2.739 2.29.345.269.354.261.363.226.387.22.386.194.405.167.406.154.417.136.426.103.426.084.426.073.439.039.579.022.431-.022.434-.029.437-.052.428-.082.429-.103.415-.125.406-.147.405-.165.395-.185.374-.209.375-.22.365-.248.461-.361 2.737-2.29 6.472-5.408 21.546-17.996.008-.007 7.481-6.25z"/><path id="D" d="M81.06 17.838l.124.073.125.083.103.101.094.125.072.125.053.147.031.134.009.156-.009.147-.273 1.842-.236 1.473-.041.205-.229 1.255-.295 1.464-.313 1.458-.341 1.442-.365 1.451-.398 1.442-.402 1.429-.448 1.42-.457 1.418-.487 1.413-.502 1.396-.544 1.389-.551 1.38-.581 1.38-.596 1.367-.621 1.348-.658 1.348-.664 1.321-.692 1.33-.716 1.304-11.684-9.759-3.238-2.704 23.637-19.745.227-.143.135-.055.144-.029.148-.013h.148l.144.035.148.05zM66.835 57.336l-1.7 2.388-.894 1.192-.918 1.174-.933 1.172-.95 1.134-.979 1.145-.988 1.108-1.011 1.099-1.029 1.077-1.038 1.068-1.073 1.046-1.082 1.027-1.095 1.014-1.11.992-1.136.976-1.141.956-1.171.93-1.177.912-1.195.904-1.208.868h-.009l-2.36-1.741-1.177-.906-1.169-.936-1.14-.956-1.138-.976-1.114-.991-1.105-1.007-1.082-1.036-1.06-1.046-1.051-1.058-1.033-1.077-1.007-1.101-.988-1.115-.977-1.132-.95-1.152-.935-1.156-.918-1.185-.894-1.192-.872-1.202-.854-1.218L36.904 45.85l3.238-2.706 2.178 1.823.253.187.258.174.269.16.28.125.291.11.304.086.301.062.313.053.415.018.304-.018.313-.037.308-.048.295-.084.301-.103.28-.125.269-.147.273-.165.332-.249 2.178-1.823 3.238 2.706 13.738 11.486zM10.037 17.994l23.632 19.743-3.238 2.704L18.747 50.2l-.894-1.638-.69-1.324-.653-1.336-.647-1.348-.614-1.361-.605-1.354-.572-1.38-.55-1.389-.52-1.389-.5-1.411-.489-1.409-.446-1.416-.439-1.42-.406-1.431-.387-1.438-.352-1.455-.345-1.451L9.34 24.8l-.291-1.46-.157-.893-.103-.58-.24-1.473-.212-1.468v-.272l.037-.147.039-.143.074-.125.079-.125.107-.101.125-.094.125-.073.135-.051.142-.031.148-.013h.159l.148.035.133.05.135.073.116.084zm62.048-4.241l-27.08 22.627-27.089-22.627 1.488-.549 1.304-.444 1.3-.427 1.32-.4 1.324-.374 1.319-.361 1.335-.325 1.341-.306 1.342-.284 1.35-.259 1.355-.237 1.352-.209 1.365-.185 1.365-.156 1.365-.134 1.372-.116 1.374-.084 1.374-.059 1.365-.044 1.381-.009 1.584.022 1.372.04 1.374.062 1.374.092 1.365.117 1.365.134 1.365.165 1.365.185 1.359.22 1.35.238 1.346.253 1.342.286 1.342.306 1.333.349 1.319.35 1.324.383 1.311.4 1.302.427 1.302.453 1.287.477z"/></defs></svg>