<svg viewBox="0 0 90 90" xmlns="http://www.w3.org/2000/svg"><path d="M36.59 24.821a3.181 3.181 0 0 0-.302.201L14.34 12.268l-1.128-.656c.098-.075.202-.144.31-.207L32.44.41a3.028 3.028 0 0 1 3.043 0l18.919 10.996a3.061 3.061 0 0 1 1.492 2.232 3.001 3.001 0 0 0-.387.189L36.59 24.82Zm41.236 27.055a2.934 2.934 0 0 0-.348-.236L58.56 40.645a3.048 3.048 0 0 0-2.617-.205l-.031.012-.033.013a3.043 3.043 0 0 0-.363.18L36.598 51.64c-.117.068-.23.144-.335.226l-.023.013a3.062 3.062 0 0 1-1.141-1.99l.023-.013c.123-.05.245-.111.362-.18l18.918-10.994c.117-.069.23-.145.336-.226l.017-.014.038-.032a3.06 3.06 0 0 0 1.13-2.381v-21.99c0-.142-.01-.283-.03-.421l.05-.02a3.028 3.028 0 0 1 2.283.045c0 .001.002 0 .003.002.11.046.217.1.322.162L77.47 24.822a3.065 3.065 0 0 1 1.522 2.653v21.99c0 .123-.007.243-.022.362l.001.001a3.067 3.067 0 0 1-1.102 2.013l-.042.035Zm0 0a3.054 3.054 0 0 1 1.173 2.409L79 76.2c0 1.09-.58 2.098-1.522 2.644L58.561 89.827c-.11.063-.22.119-.335.168V63.239c.11-.048.22-.103.326-.165l18.917-10.956c.126-.073.245-.154.357-.242ZM55.943 90a3.106 3.106 0 0 1-.426-.204L36.598 78.839a3.052 3.052 0 0 1-1.52-2.643l-.002-21.912a3.06 3.06 0 0 1 1.167-2.402c.109.085.225.164.347.235l.815.47 18.103 10.486c.141.082.286.15.435.206V90ZM32.44 49.697a3.03 3.03 0 0 0 2.658.188 2.976 2.976 0 0 1-.03-.42l.001-.947V27.475a2.785 2.785 0 0 1 .039-.485L14.306 14.9l-2.268-1.318a3.03 3.03 0 0 0-.038.476v21.99c0 1.095.58 2.105 1.522 2.653L32.44 49.697Z" fill="#009EFF" fill-rule="evenodd"/></svg>