<svg viewBox="0 0 90 90" xmlns="http://www.w3.org/2000/svg"><g fill="none"><path fill="#822EF5" d="M0 0h90v90H0z"/><path d="M24.27 35.448C18.687 39.123 15 45.397 15 52.508 15 63.809 24.3 73 35.728 73c3.333 0 6.48-.785 9.271-2.171l-.006-.003-.035-.019A20.786 20.786 0 0 0 54.27 73C65.7 73 75 63.808 75 52.509c0-7.119-3.694-13.398-9.283-17.072C65.15 24.624 56.073 16 44.997 16c-11.06 0-20.125 8.598-20.718 19.387l-.01.06Zm4.733-2.362c1.593-7.282 8.158-12.755 15.994-12.755 9.025 0 16.367 7.259 16.367 16.18 0 4.71-2.047 8.954-5.305 11.914l-2.283-1.294-4.39 2.487 7.05 3.996c4.501-2.953 7.775-7.593 8.89-13.002 3.254 2.957 5.296 7.196 5.296 11.897 0 8.913-7.336 16.164-16.352 16.164-7.829 0-14.399-5.466-15.993-12.74l2.333-1.33V49.63l-7.051 4.006c.314 5.69 2.996 10.769 7.075 14.297l-.002-.005c-1.55.484-3.194.745-4.904.745-9.016 0-16.35-7.251-16.35-16.164s7.333-16.165 16.35-16.165c1.711 0 3.36.262 4.91.746l.01 2.624 4.374 2.47v-7.996c-2.758-1.386-5.951-2.171-9.283-2.171-2.359 0-4.632.393-6.746 1.115l.01-.046Z" fill="#FFF"/></g></svg>