<svg xmlns="http://www.w3.org/2000/svg" viewBox="0 0 90 90"><rect width="90" height="90" fill="#2C323D"/><path fill="#FFF" d="M53.8915034,24 C60.5135658,24 67.3363082,26.4964406 72.1403043,30.6691627 L72.1403043,30.6691627 L72.8455774,31.278083 L66.5912725,37.8889469 L65.9614177,37.3322684 C62.8162507,34.5785936 58.3419296,32.7957462 54.5631743,32.7957462 C48.0385582,32.7957462 43.3040067,37.7301392 43.3040067,44.5259316 C43.3040067,51.3258882 48.1557926,56.2623633 54.8413259,56.2623633 C59.0554165,56.2623633 63.4978156,54.2101677 67.0322081,50.634441 L67.0322081,50.634441 L67.6581427,49.9992106 L74,56.5557505 L73.3423301,57.1769741 C70.2488732,60.0975957 63.6447319,65 54.1717085,65 C46.6278254,65 40.3694136,61.6813183 36.6959452,56.3327763 L36.6959452,56.3327763 L12,56.3327763 L12.6754044,50.5922311 L34.0017945,50.5922311 C33.7036682,49.5610227 33.4951479,48.4796545 33.3540186,47.3700833 L33.3540186,47.3700833 L18.5165888,47.3700833 L19.1901265,41.6316203 L33.356072,41.6316203 C33.4990681,40.522049 33.709642,39.442763 34.013742,38.4054975 L34.013742,38.4054975 L24.5465056,38.4054975 L25.2200433,32.6649524 L36.7456018,32.6649524 C40.4170167,27.3567274 46.59609,24 53.8915034,24 Z M17.5854342,41.631431 L16.91395,47.369894 L12.7373819,47.369894 L13.4112929,41.631431 L17.5854342,41.631431 Z"/></svg>