<svg xmlns="http://www.w3.org/2000/svg" viewBox="0 0 90 90"><path fill="#1ed699" fill-rule="nonzero" d="M70.502 50.872a.96.96 0 0 1 .831.478h0l18.521 32.028a1.08 1.08 0 0 1 0 1.081c-.193.334-.551.541-.937.541h0H52.09c-.387 0-.744-.206-.937-.541a1.08 1.08 0 0 1 0-1.081h0L69.671 51.35a.96.96 0 0 1 .831-.478zm-48.256-.978l35.943.042a1.08 1.08 0 0 1 .938.541c.193.335.191.748-.004 1.081h0L41.125 82.595a4.77 4.77 0 0 1-4.131 2.381h0H1.083c-.387 0-.744-.206-.937-.541a1.08 1.08 0 0 1 0-1.081h0l17.97-31.075c.852-1.474 2.426-2.383 4.131-2.384h0zM37.026 6a4.78 4.78 0 0 1 4.134 2.398h0l17.976 31.065a1.08 1.08 0 0 1 .001 1.079c-.192.334-.549.541-.935.542h0l-35.946.042c-1.708.002-3.287-.907-4.141-2.384h0L.143 7.663c-.191-.335-.19-.746.003-1.079s.548-.54.934-.543h0L37.026 6zm51.892.059c.387 0 .744.206.937.541a1.08 1.08 0 0 1 0 1.081h0L71.333 39.709a.96.96 0 0 1-1.663 0h0L51.153 7.681a1.08 1.08 0 0 1 0-1.081c.193-.334.551-.541.937-.541h0 36.828z"/></svg>