<svg viewBox="0 0 90 90" xmlns="http://www.w3.org/2000/svg"><g fill="none"><path d="m23.608 5.4 5.484 13.572C20.34 24.333 14.5 33.985 14.5 45c0 16.845 13.655 30.5 30.5 30.5a30.6 30.6 0 0 0 6.638-.724l5.483 13.572A45.026 45.026 0 0 1 45 90C20.147 90 0 69.853 0 45 0 27.89 9.549 13.01 23.608 5.4Z" fill="#FE4040"/><path d="M45 61c-8.837 0-16-7.163-16-16s7.163-16 16-16c6.227 0 11.623 3.555 14.265 8.75h15.366C71.378 24.405 59.345 14.5 44.998 14.5a30.6 30.6 0 0 0-6.637.724L32.879 1.652A45.026 45.026 0 0 1 45 0c24.853 0 45 20.147 45 45 0 17.11-9.549 31.99-23.608 39.6l-5.484-13.572c6.767-4.145 11.794-10.856 13.725-18.778H59.265A16.012 16.012 0 0 1 45 61Z" fill="#00C46B"/></g></svg>