<svg viewBox="0 0 90 90" xmlns="http://www.w3.org/2000/svg"><g fill="none"><path fill="#000" d="M0 0h90v90H0z"/><path d="m28.395 27 1.14 4.826H10s.326 1.448.488 1.609c.489.804.977 1.77 1.628 2.413 3.093 3.539 8.465 4.987 12.86 5.791 3.094.644 6.187.804 9.28.965l3.581 9.492h1.954l1.14 3.056h-1.629L36.535 64H63.72l-2.768-8.848h-1.627l1.14-3.056h1.953s1.628-9.813 6.674-14.318C73.977 33.274 80 32.63 80 32.63V27H28.395Z" fill="#FFF"/><path d="M55.744 51.291c-1.302.805-2.767.805-3.744 1.448-.651.322-.977 1.287-.977 1.287-.65-1.448-1.465-1.93-2.442-2.252-.976-.322-2.767-.161-5.209-2.252-1.628-1.448-1.79-3.379-1.628-4.344v-.482c0-.161 0-.322.163-.483.326-.965 1.14-1.93 2.767-2.574 0 0-1.14 1.609 0 3.218.652.965 1.954 1.447 3.093.804.489-.322.814-.965.977-1.448.326-1.126.326-2.252-.651-3.056-1.465-1.287-1.79-3.057-.814-4.183 0 0 .326 1.448 1.79 1.287.978 0 .978-.322.652-.644-.163-.482-2.28-3.539.814-5.79 0 0 1.953-1.288 4.232-1.127-1.302.16-2.767.965-3.255 2.252v.161c-.489 1.287-.163 2.735.814 4.022.65.965 1.465 1.77 1.79 3.056-.488-.16-.814 0-1.14.322-.325.322-.488.965-.325 1.448.163.322.489.643.814.643h.488c.489-.16.814-.804.652-1.287.325.322.488 1.126.325 1.61 0 .482-.325.964-.488 1.286-.163.322-.489.644-.651.965-.163.322-.326.644-.326.965 0 .322 0 .805.163 1.127.651.965 1.953 0 2.279-.805.488-.965.326-2.091-.326-3.056 0 0 1.14.643 1.954 2.895.651 1.93-.488 4.183-1.79 4.987Z" fill="#F16436"/></g></svg>