<svg viewBox="0 0 90 90" xmlns="http://www.w3.org/2000/svg"><g fill="none"><path fill="#188FFF" d="M0 0h90v90H0z"/><path d="M61.485 61.143c-.713-1.787-1.07-3.575-1.426-5.542-1.247 1.073-2.495 1.967-3.92 2.503-1.604.536-3.03.894-4.634.715-1.604-.179-3.208-.536-4.812-1.251-1.604-.715-3.03-1.788-4.277-3.04-1.248-1.251-2.317-2.681-3.03-4.29-.713-1.61-1.247-3.218-1.247-4.827-.179-1.61 0-3.218.712-4.828.535-1.609 1.426-3.039 2.674-4.29a14.273 14.273 0 0 1 3.742-2.682c1.426-.715 2.852-1.073 4.278-1.43.534-.179 1.069-.179 1.247-.358a2.45 2.45 0 0 0 .713-.536c.713-.894 1.07-1.967.535-3.576l-1.783-7.33c-.178-.715-.356-1.073-.712-1.43-.535-.536-1.07-.894-1.604-.894-.535-.179-1.248 0-1.96.179h.177a31.314 31.314 0 0 0-7.841 2.681c-2.495 1.252-4.812 3.04-6.95 5.185-1.783 1.788-3.387 3.755-4.456 5.9a25.776 25.776 0 0 0-2.673 6.615c-.535 2.324-.891 4.648-.891 7.151s.356 4.827.89 7.151c.535 2.325 1.605 4.649 2.674 6.794 1.247 2.146 2.673 4.29 4.634 6.079 1.782 1.788 3.92 3.397 6.059 4.648 2.139 1.252 4.455 2.145 6.594 2.86 2.317.716 4.634.894 6.95.894 2.317 0 4.812-.357 6.951-.893 2.317-.537 4.455-1.43 6.594-2.682.535-.179.891-.536 1.248-.894-1.783-2.682-3.387-5.542-4.456-8.582Z" fill="#FFF"/></g></svg>