<svg viewBox="0 0 90 90" xmlns="http://www.w3.org/2000/svg" xmlns:xlink="http://www.w3.org/1999/xlink"><defs><linearGradient x1="50.065%" y1="-5.797%" x2="50.065%" y2="108.46%" id="a"><stop stop-color="#38B1E6" offset="0%"/><stop stop-color="#38B1E6" offset=".5%"/><stop stop-color="#329CD7" offset="26.7%"/><stop stop-color="#296FB8" offset="78.8%"/><stop stop-color="#296FB8" offset="100%"/></linearGradient><path d="M59.828 51.914 31.142 68.493V52.137l28.686-16.579v16.356Zm-43.81-7.815 13.952 8.038v16.356L1.842 52.305l14.175-8.206ZM29.913 1.563v16.356l-13.897 8.038-14.231-8.15L29.914 1.563Zm29.3 16.188-14.176 8.206-13.952-8.038V1.563l28.128 16.188Zm-43.81 25.343L1.227 51.3l-.056-32.488 14.176 8.15v16.132h.055Zm14.51-8.429-13.339 7.703v-15.35l13.339-7.704v15.351Zm1.172-15.35 13.339 7.703v15.406l-13.339-7.759v-15.35Zm-.558 31.762-13.339-7.648 13.339-7.703 13.338 7.703-13.338 7.648Zm29.579-17.082-14.51 8.373v-15.35l15.068-8.709v-1.004L30.807 0h-.614L.279 17.305 0 17.807l.056 34.498.279.502L30.249 70h.614L60.72 52.751l.28-.501V34.498l-.893-.503Z" id="b"/></defs><g fill="none"><path fill="#FFF" d="M0 0h90v90H0z"/><use fill="url(#a)" xlink:href="#b" transform="translate(15 10)"/></g></svg>