<svg xmlns="http://www.w3.org/2000/svg" viewBox="0 0 90 90"><path fill="#FFF" d="M0 0h90v90H0z"/><path d="M10 45c0-19.33 15.67-35 35-35s35 15.67 35 35-15.67 35-35 35-35-15.67-35-35Zm2.458-.067a32.544 32.544 0 0 0 55.554 23.012 32.544 32.544 0 0 0 9.532-23.012C77.544 26.96 62.974 12.39 45 12.39S12.458 26.96 12.458 44.933ZM25.94 60.807a6.245 6.245 0 0 1-4.052-2.989 25.395 25.395 0 0 1-1.727-7.106h-.73a.932.932 0 0 1-.997-.93l-.27-8.764a.996.996 0 0 1 .931-.996h.73c.136-2.724.405-4.782.464-5.647a3.32 3.32 0 0 1 2.856-2.855 140.166 140.166 0 0 1 18.861-1.86 3.64 3.64 0 0 0 2.79-3.255v-3.189a.73.73 0 1 1 .331 0v3.188a3.704 3.704 0 0 0 2.79 3.254c6.322.194 12.623.816 18.861 1.86a3.32 3.32 0 0 1 2.857 2.856c.135.864.333 2.99.465 5.646h.73a.93.93 0 0 1 .932.997l-.27 8.7a.93.93 0 0 1-.994.93h-.73a25.393 25.393 0 0 1-1.728 7.106 6.248 6.248 0 0 1-4.119 3.055 75.904 75.904 0 0 1-18.994 2.458 75.904 75.904 0 0 1-18.987-2.459Zm-.332-28.227c-3.122.404-3.454.404-3.72 2.724-.265 2.32-1.527 14.61 1.462 21.119a5.71 5.71 0 0 0 3.85 2.724 74.119 74.119 0 0 0 17.797 2.259 73.956 73.956 0 0 0 17.734-2.259 5.711 5.711 0 0 0 3.852-2.724c2.989-6.51 1.727-18.862 1.461-21.186-.265-2.324-.598-2.258-3.72-2.723-7.373-.466-19.393 12.553-19.393 12.553S33.448 32.564 26.056 32.564c-.151.002-.3.008-.448.017v-.001Zm13.15 24.573a.809.809 0 0 1-.297-1.097.809.809 0 0 1 1.096-.298 10.43 10.43 0 0 0 4.853 1.13 11.294 11.294 0 0 0 5.977-1.729.8.8 0 0 1 1.128.205.797.797 0 0 1-.265 1.129 12.808 12.808 0 0 1-6.84 1.992h-.135a12.087 12.087 0 0 1-5.518-1.33l.001-.002Zm11.358-9.83a5.38 5.38 0 0 1 5.313-5.446 5.448 5.448 0 0 1 5.445 5.313 5.38 5.38 0 0 1-5.313 5.446h-.067a5.38 5.38 0 0 1-5.38-5.312l.002-.002Zm5.27-3.187a3.718 3.718 0 0 0 .044 7.439v-.065a3.72 3.72 0 0 0 3.72-3.719 3.718 3.718 0 0 0-3.718-3.652l-.046-.003Zm-26.654 3.236a5.382 5.382 0 0 1 5.246-5.49 5.447 5.447 0 0 1 5.513 5.314 5.38 5.38 0 0 1-5.292 5.444h-.088a5.38 5.38 0 0 1-5.382-5.272l.003.004Zm1.526.49a3.72 3.72 0 0 0 3.716 3.715v-.067a3.718 3.718 0 0 0 3.718-3.652 3.72 3.72 0 0 0-3.718-3.72 3.72 3.72 0 0 0-3.717 3.72l.001.004Zm22.847 0a2.324 2.324 0 1 1 .679 1.642 2.324 2.324 0 0 1-.68-1.646v.004Zm-21.387 0a2.326 2.326 0 0 1 3.968-1.644 2.324 2.324 0 1 1-3.97 1.64l.002.004Z" fill="#12C1E7"/></svg>