<svg viewBox="0 0 90 90" xmlns="http://www.w3.org/2000/svg"><g fill="none" fill-rule="evenodd"><path fill="#FFF" fill-rule="nonzero" d="M0 0h90v90H0z"/><path d="M73.323 53.38c-5.05-5.058-14.928-10.713-24.039-9.245-1.92 1.958 2.69 5.764 4.446 12.997 1.646 6.688-.494 11.039 1.207 11.528.33.109.878-.816 1.482-.924.275-.218.604.652 1.043.435.384-.218.988-.598 1.427-.762a31.826 31.826 0 0 1 3.787-1.36c1.042-.271 3.841-.76 5.323-1.141 6.257-1.523 8.891-1.033 9.001-4.622-.22-1.469-.549-3.753-3.677-6.907Z" fill="#FAA928"/><path d="M18.66 18.631c-3.457 1.196-.494 5.057-.165 11.42.22 3.426-.164 6.96-.329 9.081-.055.598.549.707.549 1.088 0 .108-.604.598-.604.652.44 3.861 2.305-.163 10.538-.652 8.232-.49 14.214 2.012 15.257-.11.274-7.939-18.111-25.666-25.246-21.479Z" fill="#055DAB"/><path d="M43.028 43.646c-1.262-.925-8.123-2.991-14.38-1.958-5.433.87-9.768 2.99-10.372 4.405-.274.543.33.978.33 1.577 0 .435-.66.978-.66 1.413 0 .218.604.544.604.762.055 1.087-.713 2.23-.384 3.534.11.381.165 1.523.275 2.61.054.327.658.49.713.816.11.87-.33 1.686-.055 1.74 1.317.544 1.317 3.046 1.921 4.35.274.599 2.03-.924 2.909-.325.658.489.439 2.338 1.152 2.664 1.208.544 2.36 0 2.031-.109-.33-.108 12.788-14.301 16.08-19.467.494-.925 0-1.85-.164-2.012Z" fill="#70BE54"/><path d="M52.358 58.817c-.933-6.253-5.05-12.072-6.312-12.996-.164-.163-1.262-.272-1.975.49-4.007 4.676-13.611 21.37-13.83 21.098-.22-.272-.385.98.493 1.958.55.598 2.305-.163 2.909.272.878.652-.11 2.719.604 2.828 1.427.217 3.787-.599 4.774.49.11.217.824-.436 1.647-.6.33-.053.659.49.988.382 1.097-.218 2.195-.544 2.58-.544 1.316-.055 2.195-1.142 3.237-1.468.22-.055.714.435.933.326.44-.163.769-.925 1.153-1.033.549-.164 1.152.271 1.646-.164 1.263-.924 1.976-5.6 1.153-11.039Z" fill="#EF4924"/></g></svg>