<svg viewBox="0 0 90 90" xmlns="http://www.w3.org/2000/svg"><g fill="none"><path d="M45 23.592c1.32.002 2.637.127 3.934.373L34.606 9.637a1.765 1.765 0 0 1-.314-.447L1.073 42.402a3.69 3.69 0 0 0 0 5.203l5.52 5.507c.049-.064.101-.126.157-.184L29.88 29.81A21.295 21.295 0 0 1 45 23.592Zm43.93 18.816-5.49-5.49c-.056.076-.116.15-.182.218L60.077 60.3a21.32 21.32 0 0 1-15.122 6.229 21.714 21.714 0 0 1-3.934-.373l14.207 14.21a1.9 1.9 0 0 1 .376.55l33.322-33.31a3.69 3.69 0 0 0 .001-5.204l.004.006Z" fill="#ACE7D2"/><path d="m52.182 21.908 4.202-3.225c.825-.652 1.666-.963 2.576-.963a3.69 3.69 0 0 1 3.263 1.99.541.541 0 0 1 .03.07c.371.772.787 2.34-.58 4.122a.157.157 0 0 1-.026.034l-3.279 4.16 1.844 1.848a21.64 21.64 0 0 1 5.855 19.071L80.6 34.477c.07-.067.145-.127.227-.178L47.6 1.078a3.679 3.679 0 0 0-5.203 0l-5.597 5.6c.172.075.328.182.46.314l14.92 14.916Zm-14.45 46.259L33.59 71.35c-.585.437-1.404.944-2.571.944h-.022a.93.93 0 0 1-.184-.013 3.693 3.693 0 0 1-3.015-1.934c-.01-.028-.03-.06-.04-.088-.655-1.362-.45-2.848.59-4.193l3.21-4.073-1.977-1.981a21.293 21.293 0 0 1-5.705-18.902L9.4 55.586a1.282 1.282 0 0 1-.19.157l33.188 33.182a3.685 3.685 0 0 0 5.203 0l5.526-5.534a1.888 1.888 0 0 1-.549-.376L37.731 68.167Z" fill="#6DCBF4"/><path d="M59.286 22.08 45.682 39.335l.517.707c.71.97 2.932 4.174 7.208 10.41.255.373.34 1.622-.368 2.158L31.784 68.942c-.336.25-.53.339-.764.339 0 0 0-.015-.009-.015-.01 0 0 .015-.01.015a.686.686 0 0 1-.531-.315c-.071-.143-.217-.447.242-1.042l13.574-17.227-7.69-11.064a1.662 1.662 0 0 1 .363-2.238l21.274-16.352c.36-.283.563-.326.722-.326a.677.677 0 0 1 .585.354c.142.307.071.58-.254 1.009Z" fill="#FF9A00"/></g></svg>