<svg viewBox="0 0 90 90" xmlns="http://www.w3.org/2000/svg"><g fill="#69CF3B"><path d="m74.513 7.837-16.01-3.832v27.927a13.702 13.702 0 0 1-2.784 7.554l-5.568 6.617-1.977-2.399 4.789-5.817a11.347 11.347 0 0 0 2.283-5.982V3.233l-8.548-2.067a8.276 8.276 0 0 0-3.425.028l-8.352 2.012v27.569a10.579 10.579 0 0 0 2.088 5.513l20.91 25.06a14.253 14.253 0 0 1 3.062 8.05v10.78l16.372-10.67A7.702 7.702 0 0 0 81 63.004V15.446c-.03-3.733-2.725-6.923-6.432-7.609"/><path d="m52.99 63.774-20.909-25.06a14.253 14.253 0 0 1-3.062-8.05V4.584L15.432 7.837c-3.707.686-6.403 3.876-6.432 7.61v47.418a7.702 7.702 0 0 0 3.647 6.506l16.51 10.78V69.122a13.702 13.702 0 0 1 2.785-7.554l7.35-8.822 1.977 2.37-6.543 8.189c-1.559 1.875-2.283 5.32-2.283 10.834v8.271l7.907 5.155A8.102 8.102 0 0 0 44.944 89a8.102 8.102 0 0 0 4.594-1.434l5.569-3.584V69.371a10.579 10.579 0 0 0-2.088-5.514"/></g></svg>