<svg viewBox="0 0 90 90" xmlns="http://www.w3.org/2000/svg"><defs><linearGradient x1="-.003%" y1="49.993%" x2="141.303%" y2="49.998%" id="a"><stop stop-color="#F9379F" offset="0%"/><stop stop-color="#D10055" offset="100%"/></linearGradient><linearGradient x1="2.889%" y1="49.99%" x2="146.419%" y2="50.25%" id="b"><stop stop-color="#F9379F" offset="0%"/><stop stop-color="#D10055" offset="100%"/></linearGradient></defs><g fill="none"><path fill="#FFF" d="M0 0h90v90H0z"/><path d="m0 31.945 21.962-22.62A30.495 30.495 0 0 1 43.926 0 30.495 30.495 0 0 1 65.89 9.325c3.98 4.194 6.784 9.138 8.11 14.38-.885-1.648-1.915-3.295-3.241-4.643-6.929-7.19-18.135-7.19-25.21 0L33.02 31.943 45.549 44.83c6.928 7.19 18.134 7.19 25.21 0 1.326-1.35 2.505-2.998 3.241-4.645-1.326 5.245-3.98 10.338-8.11 14.38-12.086 12.581-31.84 12.581-43.928 0L0 31.948v-.003Z" fill="url(#a)" transform="translate(8 13)"/><path d="M74 31.943c0-6.141-4.717-11.085-10.76-11.085-5.896 0-10.76 4.944-10.76 11.085 0 6.141 4.719 11.085 10.76 11.085C69.136 42.878 74 37.936 74 31.943Z" fill="url(#b)" transform="translate(8 13)"/></g></svg>