<svg viewBox="0 0 90 90" xmlns="http://www.w3.org/2000/svg"><g fill="none" fill-rule="evenodd"><path fill="#FFF" d="M0 0h90v90H0z"/><path d="M71.753 9.174c1.437-.12 3.861-.145 5.113-.04.923.066.949.08.659.224-.422.224-.62.382-2.161 1.78-2.069 1.87-3.466 3.531-4.85 5.772-.302.487-1.238 2.148-2.068 3.663-4.138 7.539-5.627 9.766-8.407 12.48-2.939 2.847-6.47 4.877-10.516 5.984-6.377 1.753-12.782 1.107-18.606-1.885l-1.344-.698 1.12-.224c1.91-.37 3.993-1.147 6.299-2.36 4.73-2.464 6.76-4.309 11.754-10.674 4.203-5.338 7.09-8.04 11.227-10.464 3.334-1.964 7.51-3.216 11.78-3.558ZM57.156 9c1.847.01 5.009.08 5.82.159l.83.066-.777.237c-1.252.395-5.482 2.399-7.05 3.334-3.097 1.885-4.757 3.493-8.341 8.184-2.438 3.163-3.953 5.022-5.087 6.22-3.623 3.823-8.75 6.643-13.625 7.5-.514.105-1.04.197-1.186.224-.145.026.027-.106.37-.29.948-.527 1.567-1.015 2.437-1.911.104-.112.206-.222.305-.333l.196-.224c1.097-1.28 2.01-2.79 4.216-6.902 2.952-5.496 4.059-7.13 6.55-9.7 4.11-4.23 7.998-6.036 14.046-6.55.107-.008.335-.013.649-.015Zm15.059 37.243c1.904-.318 8.566-.224 11.22.168 1.043.15 1.94.3 1.959.337.073.056.768 7.233.732 7.307a5.23 5.23 0 0 1-.64-.112c-.33-.075-1.52-.299-2.655-.448-6.46-.972-10.158-.28-10.817 2-.256.897-.092 1.588.64 2.298.75.785 1.94 1.309 5.382 2.374 4.557 1.42 6.131 2.168 7.614 3.7 1.537 1.533 2.178 3.608 2.013 6.392-.201 2.953-1.043 5.121-2.617 6.748-2.325 2.373-5.455 3.14-11.86 2.971a60.12 60.12 0 0 1-2.612-.134l-.616-.045c-2.258-.176-4.466-.438-5.064-.625-.201-.056-.293-.785-.55-3.756-.182-2.037-.31-3.72-.274-3.757.037-.037.806.094 1.758.28 8.529 1.645 12.775 1.16 13.507-1.55.128-.543.11-.73-.165-1.328-.604-1.215-1.702-1.775-5.783-2.972-3.203-.934-4.997-1.7-6.498-2.71-1.702-1.177-2.69-2.616-3.093-4.485-.256-1.159-.11-4.542.22-5.813 1.024-3.85 3.752-6.092 8.2-6.84Zm-59.822-.242c5.422.007 7.218.073 8.807.435l.226.054.112.028.226.06c.227.062.458.131.703.207 2.984.953 5.327 2.878 6.663 5.57 1.427 2.803 1.885 5.98 1.72 12.13-.073 3.775-.31 5.756-.841 7.345-1.154 3.382-3.515 5.83-6.846 7.083-2.16.79-3.762 1.053-8.276 1.068h-.65a276.155 276.155 0 0 1-3.886-.04l-6.663-.131V46Zm44.54.167.02 9.812.054 9.831 2.068.038 2.05.056-.402 3.364c-.238 1.85-.421 3.401-.421 3.401 0 .019-.77.038-1.703.038h-1.665v7.14h-6.68v-7.14H34.127v-6.15l12.849-20.371 4.96-.019h4.997Zm-41.22 6.58c-1.555-.02-3.056 0-3.312.037l-.494.074v20.298l1.171.13c1.592.131 4.448-.018 5.784-.336 1.464-.336 2.361-.953 2.855-1.925.769-1.57.879-2.261.934-6.897.128-7.905-.44-9.924-3.075-10.933-.97-.393-1.245-.43-3.862-.449Zm34.522 1.195a.682.682 0 0 0-.064.087l-.1.15c-.486.734-1.985 3.068-3.505 5.45l-.38.596c-1.77 2.776-3.457 5.44-3.492 5.53-.008.012.059.025.193.038l.156.014c.563.041 1.775.078 3.385.078h3.825v-7.119l-.001-.542c-.004-1.954-.012-3.49-.016-4.052V54Z" fill="#000" fill-rule="nonzero"/></g></svg>