<svg viewBox="0 0 90 90" xmlns="http://www.w3.org/2000/svg"><g fill="none" fill-rule="evenodd"><g fill="#00112C" fill-rule="nonzero"><path d="M45 0C8.996 0 0 8.996 0 45s8.996 45 45 45 45-8.996 45-45S81.004 0 45 0Zm-6.907 70.838c-11.44 0-20.702-9.28-20.702-20.702 0-11.44 9.28-20.702 20.702-20.702.284 0 .584 0 .868.017v-.017H45v13.812h13.814v6.907c0 11.423-9.28 20.685-20.72 20.685Z"/><path d="M38.07 43.206a6.911 6.911 0 0 0-6.903 6.903c0 3.806 3.097 6.903 6.902 6.903a6.911 6.911 0 0 0 6.903-6.903v-6.903h-6.903Z"/></g><path d="M65.703 70.838a6.915 6.915 0 0 1-6.907-6.906 6.915 6.915 0 0 1 6.907-6.907 6.904 6.904 0 0 1 6.906 6.907 6.893 6.893 0 0 1-6.906 6.906ZM45 15.62h13.814v13.814H45z" fill="#FFF" fill-rule="nonzero"/><path d="M38.96 29.451v-.017H45v13.812h13.814v6.907c0 11.423-9.28 20.685-20.72 20.685-11.441 0-20.703-9.28-20.703-20.702 0-11.44 9.28-20.702 20.702-20.702.284 0 .584 0 .868.017Zm6.012 13.755h-6.903a6.911 6.911 0 0 0-6.902 6.903c0 3.806 3.097 6.903 6.902 6.903a6.911 6.911 0 0 0 6.903-6.903v-6.903Z" fill="#FFF"/></g></svg>