<svg viewBox="0 0 90 90" xmlns="http://www.w3.org/2000/svg"><g fill="none"><path fill="#0E343E" d="M0 0h90v90H0z"/><path d="M71 31.549c0-.416-.418-.831-1.006-.997l-7.035-2.575c-1.172-.498-2.512.083-2.512.915v29.264c0 .416.418.914.837 1.08l7.203 2.574c1.089.416 2.513-.166 2.513-1.08V31.548ZM57.85 21.323c0-.417-.418-.832-1.005-.998L49.81 17.75c-1.173-.498-2.513.084-2.513.915v17.79c0 .415.419.914.837 1.081l7.203 2.574c1.09.417 2.513-.166 2.513-1.08V21.323Zm0 32.01c0-.416-.418-.83-1.005-.997l-7.035-2.574c-1.173-.499-2.513.083-2.513.915v17.79c0 .414.419.913.837 1.08l7.203 2.573c1.09.417 2.513-.166 2.513-1.08V53.332ZM44.7 56.909c0-.416-.418-.832-1.005-.998l-7.035-2.575c-1.178-.498-2.513.083-2.513.915v18.956c0 .416.419.916.837 1.082l7.203 2.574c1.09.417 2.513-.166 2.513-1.08V56.909Zm0-43.153c0-.416-.418-.831-1.005-.997l-7.035-2.575c-1.178-.498-2.513.083-2.513.915v18.957c0 .416.419.915.837 1.08l7.203 2.575c1.09.415 2.513-.166 2.513-1.081V13.756Zm-13.147.749c0-.416-.418-.832-1.005-.999l-7.035-2.574c-1.173-.498-2.513.083-2.513.915v60.694c0 .415.418.913.838 1.08l7.202 2.574c1.09.415 2.513-.166 2.513-1.081v-60.61Z" fill="#F3F7F6"/></g></svg>