<svg viewBox="0 0 90 90" xmlns="http://www.w3.org/2000/svg"><defs><linearGradient x1=".265%" y1="49.9%" x2="99.78%" y2="49.9%" id="a"><stop stop-color="#3164BC" offset="0%"/><stop stop-color="#1BA2D9" offset="100%"/></linearGradient><linearGradient x1=".56%" y1="49.862%" x2="99.876%" y2="49.862%" id="b"><stop stop-color="#4045A2" offset="0%"/><stop stop-color="#365FB3" offset="100%"/></linearGradient><linearGradient x1="-.124%" y1="50.188%" x2="100.112%" y2="50.188%" id="c"><stop stop-color="#1D75C0" offset="0%"/><stop stop-color="#0F95D6" offset="100%"/></linearGradient></defs><g fill="none"><path d="m39.5 45 38.322 22.109a10.362 10.362 0 0 1-3.695 3.987L44.689 88.614a10.41 10.41 0 0 1-10.378 0L5.195 71.29a10.363 10.363 0 0 1-4.017-4.18L39.5 45Z" fill="url(#a)" transform="translate(5.5)"/><path d="M39.515 0 39.5 45 1.19 67.134A10.324 10.324 0 0 1 0 62.319V27.68a10.35 10.35 0 0 1 4.915-8.802L34.31 1.386A10.4 10.4 0 0 1 39.515 0Z" fill="url(#b)" transform="translate(5.5)"/><path d="M44.69 1.386 73.804 18.71A10.35 10.35 0 0 1 79 27.681V62.32a10.33 10.33 0 0 1-1.19 4.815L39.5 45l-.014-45a10.4 10.4 0 0 1 5.203 1.386Z" fill="url(#c)" transform="translate(5.5)"/><path d="M34.591 48.343v13.955c-.05 2.022-1.678 3.69-3.654 3.64H26V51.983c.05-2.022 1.679-3.69 3.654-3.64h4.937Zm29.97-15.573v29.174a5.563 5.563 0 0 1-1.184 2.427 4.453 4.453 0 0 1-2.42 1.567H56.02V36.764c.05-2.073 1.58-3.792 3.555-3.994h4.987ZM49.355 22v40.348c-.098.91-.543 1.77-1.185 2.427a3.933 3.933 0 0 1-2.419 1.163h-4.938V25.59c.1-1.315.84-2.528 1.926-3.186.543-.252 1.086-.404 1.679-.404h4.937Z" fill="#FFF"/></g></svg>