<svg viewBox="0 0 90 90" xmlns="http://www.w3.org/2000/svg"><g fill="none" fill-rule="evenodd"><path fill="#FFF" fill-rule="nonzero" d="M0 0h90v90H0z"/><path d="M10.05 64.009V80h5.777c4.303 0 8-3.449 8-7.872-.122-4.915-3.203-8.12-7.506-8.12h-6.272Zm19.308 0L23.21 80h3.432l4.79-12.66 3.95 10.069h-4.444V80h8.864l-6.271-15.991h-4.173Zm7.728 0v2.714h5.186V80h3.555V66.723h5.037V64.01H37.086Zm15.136 0V80h11.062v-2.591h-7.63V72.99h6.766v-2.714h-6.766v-3.554h7.26V64.01H52.222Zm11.556 0L70.049 80h3.803L80 64.009h-8.47v2.714h4.05l-3.703 9.699-4.544-12.413h-3.555Zm-50.42 2.714h2.716c2.704 0 4.543 1.964 4.42 5.281-.123 3.441-2.457 5.281-5.284 5.281h-1.852V66.723Z" fill="#00A992"/><path fill="#96D550" fill-rule="nonzero" d="M10 60.316h69.751V11H10z"/></g></svg>