<svg xmlns="http://www.w3.org/2000/svg" viewBox="0 0 90 90"><path fill="#FFF" d="M0 0h90v90H0z"/><path d="m68.038 26.028-17.04-9.486a12.382 12.382 0 0 0-11.967 0l-17.055 9.486C18.274 28.084 16 31.902 16 36.014v18.972c0 4.127 2.274 7.93 5.976 9.986l17.04 9.486a12.382 12.382 0 0 0 11.968 0l17.04-9.486C71.726 62.916 74 59.098 74 54.986V36.014c0-4.127-2.274-7.93-5.976-9.986h.014Z" fill="#1452F0"/><path d="M60.765 44.516c0-.279.014-.558.014-.837 0-8.106-5.933-13.04-14.168-13.04H35.62v13.877h6.749v-8.003h4.285c4.796 0 7.23 3.128 7.23 7.166 0 .28 0 .558-.043.837h6.924ZM29.25 47.365V60.17h11.034c8.09 0 13.965-4.86 14.125-12.805H47.5c-.16 3.745-2.798 6.902-7.258 6.902H36v-6.902h-6.75Z" fill="#FFF"/></svg>