<svg viewBox="0 0 90 90" xmlns="http://www.w3.org/2000/svg" xmlns:xlink="http://www.w3.org/1999/xlink"><defs><path d="M44.996 90C20.211 90 .022 69.833 0 45.04c-.007-12.017 4.663-23.32 13.15-31.83C21.645 4.7 32.942.014 44.96 0 69.79 0 89.978 20.174 90 44.96 90.022 69.774 69.848 89.978 45.04 90h-.044Z" id="a"/><path d="M0 0v11.209a8.19 8.19 0 0 0 8.193 8.193c4.53 0 8.2-3.663 8.2-8.193V0H0Zm1.331 13.114 1.052-1.788 1.044 1.788H1.331Zm3.428 0-1.714-2.98.816-1.36 2.479 4.34H4.759Zm2.941 0L4.508 7.612l.81-1.36 3.92 6.862H7.7Zm2.92 0L5.972 5.089l.78-1.316 5.347 9.34H10.62Zm2.861 0L7.414 2.589l.794-1.346 6.818 11.87H13.48Z" id="c"/><path d="M2.795 11.054h1.272c2.074 0 2.339-1.228 2.339-4.413 0-3.192-.265-4.413-2.339-4.413H2.795v8.826ZM4.575.007c3.56 0 4.663 1.883 4.663 6.671 0 4.78-1.104 6.67-4.67 6.67H0V.009h4.575Zm6.119 0H17.9v2.258h-4.39V5.12h4.037v2.324H13.51v3.552h4.39v2.354h-7.207V.007Zm14.908 8.054-1.339-5.516L22.86 8.06h2.743Zm.559 2.324h-3.876l-.706 2.964h-2.795L22.55.007h3.552l3.707 13.342h-2.927l-.721-2.964ZM30.684.007h2.78v5.796L36.936.007h2.905l-3.854 6.134 3.854 7.208h-3.23l-3.147-6.487v6.487h-2.78V.007Zm10.392 0h2.7V13.35h-2.7V.007Zm6.914 4.604v8.738h-2.413V0h3.354l3.221 8.215V0h2.442v13.349h-3.052L47.99 4.61Z" id="e"/><path d="M3.964 4.494V.228c0-.044.03-.074.096-.103a.961.961 0 0 1 .243-.066c.095-.022.19-.037.286-.044C4.685 0 4.76 0 4.81 0a.26.26 0 0 1 .206.088c.051.06.08.125.08.191v4.274c0 .463-.05.853-.154 1.162a1.755 1.755 0 0 1-.47.765c-.206.19-.471.33-.787.411a4.55 4.55 0 0 1-1.118.125h-.074c-.419 0-.78-.044-1.096-.125a1.848 1.848 0 0 1-.78-.411 1.814 1.814 0 0 1-.463-.765C.051 5.405 0 5.015 0 4.553V.228C0 .184.03.154.096.125A.99.99 0 0 1 .33.059C.427.037.515.022.618.015.713 0 .787 0 .846 0c.073 0 .14.03.198.088a.271.271 0 0 1 .089.191v4.215c0 .272.014.5.058.691.045.199.11.353.221.47a.935.935 0 0 0 .42.266c.176.058.396.088.661.088h.074c.272 0 .493-.03.676-.088a.961.961 0 0 0 .427-.265.975.975 0 0 0 .228-.47c.044-.192.066-.42.066-.692Z" id="g"/><path d="M4.192 4.92V.177c0-.037.037-.067.103-.089a1.86 1.86 0 0 1 .25-.051 3.14 3.14 0 0 1 .287-.03C4.928 0 5.002 0 5.06 0c.162 0 .25.096.25.28v6.494a.217.217 0 0 1-.095.176.317.317 0 0 1-.192.066c-.051 0-.117 0-.206-.007a.968.968 0 0 1-.25-.03 1.873 1.873 0 0 1-.235-.05c-.066-.023-.118-.052-.14-.09L1.125 2.112V6.76c0 .08-.03.14-.088.184a.29.29 0 0 1-.199.073C.78 7.016.706 7.01.61 7.01a2.97 2.97 0 0 1-.279-.03.99.99 0 0 1-.235-.066C.029 6.891 0 6.855 0 6.818V.198C0 .163.03.126.096.097A1 1 0 0 1 .33.036C.419.023.507.016.603.008.7 0 .773 0 .831 0a.3.3 0 0 1 .177.059c.044.044.08.088.117.14L4.192 4.92Z" id="i"/><path d="M1.133 6.759c0 .08-.022.14-.081.184a.296.296 0 0 1-.206.073c-.059 0-.133-.007-.228-.007a3.256 3.256 0 0 1-.28-.03.99.99 0 0 1-.235-.066C.037 6.891 0 6.855 0 6.818V.198C0 .163.037.126.103.097a1 1 0 0 1 .235-.06C.427.023.522.016.618.008.713 0 .787 0 .846 0c.08 0 .147.022.206.074.059.051.08.11.08.183V6.76Z" id="k"/><path d="M2.835 5.09 4.262.198a.586.586 0 0 1 .309-.17C4.689.007 4.821 0 4.975 0c.06 0 .126 0 .192.007a.515.515 0 0 1 .169.044c.051.023.08.052.103.096.022.037.022.096 0 .177L3.254 6.862a.18.18 0 0 1-.102.118.4.4 0 0 1-.162.036c-.206 0-.383-.014-.522-.036-.148-.022-.228-.052-.265-.103L.01.324a.3.3 0 0 1 0-.162.275.275 0 0 1 .088-.096.267.267 0 0 1 .125-.051C.276 0 .313 0 .342 0c.096 0 .191 0 .294.007.096.008.184.015.265.037.08.015.154.037.213.066a.297.297 0 0 1 .11.125L2.682 5.09a2 2 0 0 1 .051.243c.008.081.015.162.03.228l.022-.228c.014-.088.03-.169.051-.243Z" id="m"/><path d="M0 6.612V.242A.23.23 0 0 1 .08.06.376.376 0 0 1 .288 0h3.788c.073 0 .132.03.176.08a.285.285 0 0 1 .074.192c0 .052-.008.118-.008.206-.007.081-.022.17-.03.243-.014.08-.036.147-.058.206-.022.059-.059.08-.096.08h-3V2.84H3.72c.06 0 .118.03.162.08a.268.268 0 0 1 .074.185c0 .051-.008.117-.015.206 0 .088-.015.169-.022.25-.015.08-.037.154-.059.206-.03.058-.059.088-.095.088H1.133v1.934h2.942c.073 0 .132.03.176.081a.26.26 0 0 1 .074.191c0 .052-.008.118-.008.199-.007.088-.022.169-.03.25-.014.08-.036.147-.058.206-.022.059-.059.088-.096.088H.42a.642.642 0 0 1-.272-.066C.044 6.7 0 6.656 0 6.612Z" id="o"/><path d="M0 6.715V.243C0 .177.03.118.088.073A.284.284 0 0 1 .294 0h2.082c.434 0 .801.03 1.11.096.302.058.552.169.75.33.192.155.331.368.42.626.088.264.132.595.132 1v.206c0 .294-.022.552-.066.772-.052.22-.125.412-.228.566a1.045 1.045 0 0 1-.397.383 2.46 2.46 0 0 1-.596.213L4.81 6.457c.066.125.103.214.103.28a.096.096 0 0 1-.052.088c-.029.03-.066.044-.102.059a.305.305 0 0 1-.118.022c-.037.007-.066.007-.088.007-.052 0-.125-.007-.214-.007-.088-.007-.176-.022-.264-.037a.96.96 0 0 1-.243-.066.35.35 0 0 1-.155-.132l-1.39-2.376H1.125v2.376a.21.21 0 0 1-.088.176.294.294 0 0 1-.199.066c-.051 0-.132-.007-.22-.007a3.256 3.256 0 0 1-.28-.03.9.9 0 0 1-.235-.066C.037 6.788 0 6.752 0 6.715Zm2.434-5.707H1.125v2.28h1.31c.264 0 .47-.015.625-.045a.747.747 0 0 0 .353-.154.515.515 0 0 0 .169-.309 2.51 2.51 0 0 0 .044-.522v-.206c0-.213-.015-.39-.044-.53a.534.534 0 0 0-.17-.316.747.747 0 0 0-.352-.154 3.476 3.476 0 0 0-.626-.044Z" id="q"/><path d="M.32 5.854c.045.015.126.03.229.06.103.021.22.05.36.073.132.022.28.044.441.066.162.022.324.03.486.03.176 0 .345-.015.507-.045a1.58 1.58 0 0 0 .434-.14.874.874 0 0 0 .302-.264c.073-.11.11-.25.11-.412a.8.8 0 0 0-.22-.574 2.53 2.53 0 0 0-.56-.448c-.22-.14-.463-.28-.728-.42a4.41 4.41 0 0 1-.728-.492 2.488 2.488 0 0 1-.551-.655c-.155-.257-.228-.566-.228-.934 0-.309.058-.566.169-.787A1.48 1.48 0 0 1 .799.39a1.97 1.97 0 0 1 .698-.294C1.77.029 2.071 0 2.395 0c.073 0 .176 0 .316.007.14.008.294.015.449.037.161.015.316.037.47.059.155.022.28.059.368.103.088.037.147.08.162.125.022.044.022.118.015.213-.015.17-.052.302-.11.412-.052.11-.133.155-.236.14-.155-.03-.331-.066-.537-.096a4.61 4.61 0 0 0-.677-.05c-.39 0-.713.059-.956.176a.582.582 0 0 0-.368.567c0 .206.074.382.221.53.147.146.331.293.56.426.22.132.462.272.727.419.258.14.5.309.728.5.221.191.405.42.552.684.154.272.228.596.228.978 0 .36-.074.655-.206.89s-.316.42-.537.544a2.356 2.356 0 0 1-.772.28 5.324 5.324 0 0 1-.912.073 9.75 9.75 0 0 1-.456-.014 4.936 4.936 0 0 1-.463-.044 3.467 3.467 0 0 1-.427-.067 2.425 2.425 0 0 1-.346-.08C.093 6.773.034 6.743.02 6.7c-.022-.045-.022-.111-.015-.214a2.37 2.37 0 0 1 .103-.47c.052-.126.125-.185.214-.163Z" id="s"/><path d="M1.133 6.759c0 .08-.03.14-.081.184a.296.296 0 0 1-.206.073c-.059 0-.133-.007-.228-.007a3.256 3.256 0 0 1-.28-.03.9.9 0 0 1-.235-.066C.037 6.891 0 6.855 0 6.818V.198C0 .163.037.126.103.097a.915.915 0 0 1 .235-.06C.427.023.522.016.618.008.713 0 .787 0 .846 0c.08 0 .147.022.206.074a.25.25 0 0 1 .08.183V6.76Z" id="u"/><path d="M3.118 1.015v5.634c0 .08-.029.14-.088.184a.308.308 0 0 1-.206.073c-.059 0-.132-.007-.228-.007a2.97 2.97 0 0 1-.28-.03.99.99 0 0 1-.235-.066c-.066-.022-.095-.059-.095-.095V1.015H.25a.224.224 0 0 1-.176-.08.278.278 0 0 1-.074-.2C0 .691.007.625.007.537.015.456.03.375.037.294.05.214.074.147.096.088S.154 0 .19 0h4.656a.25.25 0 0 1 .176.08.294.294 0 0 1 .066.2c0 .044 0 .117-.007.198-.007.088-.015.17-.03.243a.564.564 0 0 1-.058.206c-.022.059-.052.088-.088.088H3.118Z" id="w"/><path d="M3.247 4.413v2.346c0 .08-.03.14-.088.184a.296.296 0 0 1-.206.073c-.059 0-.132-.007-.22-.007a3.6 3.6 0 0 1-.28-.03.99.99 0 0 1-.235-.066c-.067-.022-.096-.058-.096-.095V4.413L.062.397C-.01.257-.017.154.034.096.085.029.18 0 .327 0h.265C.688.007.77.015.85.03c.08.007.147.029.206.044.051.022.095.044.11.088L2.68 3.25 4.189.169a.217.217 0 0 1 .117-.088.648.648 0 0 1 .199-.052c.08-.014.162-.022.257-.029h.265c.147 0 .243.03.294.088.044.06.03.162-.037.31L3.247 4.412Z" id="y"/></defs><g fill="none" fill-rule="evenodd"><mask id="b" fill="#fff"><use xlink:href="#a"/></mask><path fill="#FFF" fill-rule="nonzero" mask="url(#b)" d="M0 90h90V0H0z"/><path d="M44.964 0C32.944.015 21.635 4.71 13.15 13.209 4.668 21.713-.007 33.031 0 45.039c.022 24.55 19.803 44.557 44.254 44.955l.782.006C69.854 89.978 90.022 69.776 90 44.96 89.978 20.162 69.787 0 44.964 0Zm0 3C68.124 3 86.979 21.828 87 44.962c.02 22.922-18.436 41.64-41.269 42.032l-.735.006C21.867 87 3.021 68.17 3 45.038c-.007-11.226 4.345-21.76 12.275-29.71C23.205 7.382 33.73 3.013 44.964 3Z" fill="#000" fill-rule="nonzero"/><g transform="translate(36.847 17.284)"><mask id="d" fill="#fff"><use xlink:href="#c"/></mask><path fill="#131718" fill-rule="nonzero" mask="url(#d)" d="M-.44 19.841h17.273V-.439H-.439z"/></g><g transform="translate(17.725 40.547)"><mask id="f" fill="#fff"><use xlink:href="#e"/></mask><path fill="#131718" fill-rule="nonzero" mask="url(#f)" d="M-.44 13.788h55.474V-.439H-.44z"/></g><g transform="translate(17.659 57.183)"><mask id="h" fill="#fff"><use xlink:href="#g"/></mask><path fill="#131718" fill-rule="nonzero" mask="url(#h)" d="M-.44 7.456h5.976V-.44H-.439z"/></g><g transform="translate(24.58 57.183)"><mask id="j" fill="#fff"><use xlink:href="#i"/></mask><path fill="#131718" fill-rule="nonzero" mask="url(#j)" d="M-.44 7.456h6.19V-.44H-.44z"/></g><g transform="translate(31.706 57.183)"><mask id="l" fill="#fff"><use xlink:href="#k"/></mask><path fill="#131718" fill-rule="nonzero" mask="url(#l)" d="M-.44 7.456h2.012V-.44H-.439z"/></g><g transform="translate(34.16 57.183)"><mask id="n" fill="#fff"><use xlink:href="#m"/></mask><path fill="#131718" fill-rule="nonzero" mask="url(#n)" d="M-.44 7.456h6.335V-.44H-.44z"/></g><g transform="translate(40.93 57.286)"><mask id="p" fill="#fff"><use xlink:href="#o"/></mask><path fill="#131718" fill-rule="nonzero" mask="url(#p)" d="M-.44 7.243h5.204V-.44H-.439z"/></g><g transform="translate(46.857 57.286)"><mask id="r" fill="#fff"><use xlink:href="#q"/></mask><path fill="#131718" fill-rule="nonzero" mask="url(#r)" d="M-.44 7.353h5.792V-.44H-.439z"/></g><g transform="translate(52.906 57.183)"><mask id="t" fill="#fff"><use xlink:href="#s"/></mask><path fill="#131718" fill-rule="nonzero" mask="url(#t)" d="M-.44 7.456h5.186V-.44H-.439z"/></g><g transform="translate(58.728 57.183)"><mask id="v" fill="#fff"><use xlink:href="#u"/></mask><path fill="#131718" fill-rule="nonzero" mask="url(#v)" d="M-.44 7.456h2.012V-.44H-.439z"/></g><g transform="translate(61.118 57.293)"><mask id="x" fill="#fff"><use xlink:href="#w"/></mask><path fill="#131718" fill-rule="nonzero" mask="url(#x)" d="M-.44 7.346h5.97V-.44H-.44z"/></g><g transform="translate(66.998 57.183)"><mask id="z" fill="#fff"><use xlink:href="#y"/></mask><path fill="#131718" fill-rule="nonzero" mask="url(#z)" d="M-.44 7.456h6.226V-.44H-.44z"/></g></g></svg>