<svg viewBox="0 0 90 90" xmlns="http://www.w3.org/2000/svg"><defs><linearGradient x1="130%" y1="-134.4%" x2="13.8%" y2="150.3%" id="a"><stop stop-color="#7B44CE" offset="0%"/><stop stop-color="#636ACD" offset="23.4%"/><stop stop-color="#4B90CC" offset="46.4%"/><stop stop-color="#35B4CC" offset="68.2%"/><stop stop-color="#25CDCC" offset="83.3%"/><stop stop-color="#14E8CB" offset="100%"/></linearGradient><linearGradient x1="130%" y1="-134.4%" x2="13.8%" y2="150.3%" id="b"><stop stop-color="#7B44CE" offset="0%"/><stop stop-color="#14E8CB" offset="100%"/></linearGradient><linearGradient x1="130%" y1="-134.4%" x2="13.8%" y2="150.3%" id="c"><stop stop-color="#7B44CE" offset="0%"/><stop stop-color="#14E8CB" offset="100%"/></linearGradient></defs><g fill="none"><path fill="#FFF" d="M0 0h90v90H0z"/><path d="M31.215 62.28V48.323c9.463-.059 17.097-7.757 17.077-17.22-.021-9.463-7.689-17.129-17.152-17.146H13.957L0 0h31.215a30.792 30.792 0 0 1 17.387 5.342A31.351 31.351 0 0 1 61.65 37.488 30.984 30.984 0 0 1 37.488 61.65c-2.065.42-4.166.63-6.273.63Z" transform="translate(14 14)" fill="url(#a)"/><path d="M0 8.325C0 3.777 3.557.01 7.845 0c4.572-.01 8.488 3.817 8.539 8.343.052 4.641-3.731 8.57-8.229 8.543C3.658 16.86-.01 13.01 0 8.325Z" transform="translate(21.016 36.7)" fill="url(#b)"/><path d="M6.93 0h19.35v13.86H6.93A6.93 6.93 0 1 1 6.93 0Z" transform="translate(14 62.42)" fill="url(#c)"/></g></svg>