<svg viewBox="0 0 90 90" xmlns="http://www.w3.org/2000/svg"><g fill="none"><path fill="#002A47" d="M0 0h90v90H0z"/><path d="M48.5 13.5v5.734C60.06 20.789 69.212 29.94 70.767 41.5H76.5v7h-5.734C69.211 60.06 60.06 69.21 48.501 70.767L48.5 76.5h-7v-5.734C29.94 69.211 20.79 60.06 19.234 48.501L13.5 48.5v-7h5.734C20.789 29.94 29.94 20.79 41.5 19.234V13.5h7Zm0 12.822V32.5h-7v-6.178c-7.687 1.431-13.746 7.49-15.178 15.177l6.178.001v7h-6.178c1.431 7.687 7.49 13.747 15.177 15.178L41.5 57.5h7v6.178c7.687-1.431 13.747-7.49 15.178-15.177L57.5 48.5v-7h6.178c-1.431-7.687-7.49-13.746-15.177-15.178Z" fill="#DA293F"/></g></svg>