<svg viewBox="0 0 90 90" xmlns="http://www.w3.org/2000/svg"><g fill="none"><path fill="#FFF" d="M0 0h90v90H0z"/><path d="M57 58.9c0-2.7 2.2-4.8 4.8-4.8 2.7 0 4.8 2.2 4.8 4.8 0 2.6-2.2 4.8-4.8 4.8-2.6 0-4.8-2.1-4.8-4.8" fill="#86BC25"/><path d="M56 43.22c0 6.726-1.674 11.771-5.26 15.375C47.151 62.198 42.13 64 35.673 64H23V24h13.391c6.337 0 11.12 1.562 14.468 4.925C54.326 32.168 56 36.973 56 43.219m-11 .36c0-3.723-.717-6.366-2.152-8.168-1.315-1.681-3.587-2.642-6.457-2.642h-2.87V55.11h2.392c3.228 0 5.5-.96 7.054-2.883C44.283 50.306 45 47.423 45 43.58" fill="#000"/></g></svg>