<svg xmlns="http://www.w3.org/2000/svg" viewBox="0 0 90 90" fill="none" fill-rule="evenodd"><path fill="#fff" opacity="0" d="M0 0h90v90H0z"/><g fill-rule="nonzero"><path fill="#007a9d" d="M45.004.002C20.147 0 0 20.151 0 45.003S20.147 90 45 90s45-20.147 45-44.997S69.85 0 45.002 0l.002.002z"/><path fill="#fff" d="M33.784 34.583c-2.513-3.349-6.127-5.004-9.985-5.004-8.157 0-14.153 6.371-14.153 16.732 0 10.669 6.105 16.798 14.153 16.798 3.989 0 7.494-1.807 9.985-4.981v4.187h7.957V17.001h-7.957v17.581zm0 17.636c-1.433 2.203-4.605 3.858-7.538 3.858-5.071 0-8.443-3.99-8.443-9.766 0-5.707 3.372-9.697 8.443-9.697 2.933 0 6.105 1.652 7.538 3.856v11.75zm46.855-5.181c0-10.273-6.305-17.459-15.893-17.459s-16.423 7.474-16.423 16.732c0 10.206 7.252 16.798 16.951 16.798 4.982 0 9.898-1.566 13.093-4.519l-3.572-5.225c-2.136 2.095-5.819 3.263-8.685 3.263-5.619 0-8.927-3.504-9.499-7.693h24.025v-1.896h.002 0zm-24.092-3.637c.306-3.395 2.731-7.342 8.175-7.342 5.799 0 8.07 4.057 8.312 7.342H56.544h.002z"/></g></svg>