<svg viewBox="0 0 90 90" xmlns="http://www.w3.org/2000/svg"><g fill="none"><path fill="#FFF" d="M0 0h90v90H0z"/><g transform="translate(18 15)"><path d="M46.903 0c19.38 36.068-.776 60.766-11.241 59.982C25.196 59.198 21.707 41.556 0 42.34c10.078-13.33 32.173-1.176 37.987-6.272C43.802 30.97 52.33 14.898 46.903 0" fill="#73D6ED"/><path fill="#94C1DD" d="m38.375 0-6.59 5.489-6.59-4.705 3.102 7.84-6.59 3.921h6.977L7.364 50.573l1.551.784 21.32-38.028 2.326 7.057 1.938-7.84 8.527-.393-6.977-4.312L38.375 0"/><ellipse fill="#FFF" cx="48.066" cy="30.971" rx="1.938" ry="1.96"/><ellipse cx="1.938" cy="1.96" rx="1.938" ry="1.96" transform="translate(38.375 40.772)" fill="#FFF"/><ellipse cx="1.938" cy="1.96" rx="1.938" ry="1.96" transform="translate(22.87 44.692)" fill="#FFF"/><ellipse cx="1.938" cy="1.96" rx="1.938" ry="1.96" transform="translate(35.274 52.533)" fill="#FFF"/></g></g></svg>