<svg viewBox="0 0 90 90" xmlns="http://www.w3.org/2000/svg"><g fill="none"><path fill="#FFF" d="M0 0h90v90H0z"/><g fill="#000"><path d="m4.505 42.497-.501 1.816 1.353-1.31.124-.113c.074-.064.165-.138.265-.211.111-.082.217-.15.311-.198a.597.597 0 0 1 .191-.071c.025 0 .096.022.191.071.095.048.2.116.312.198l.186.144.08.067.122.112.358.347.412-.398.148-.128a4.85 4.85 0 0 1 .185-.144 2.38 2.38 0 0 1 .312-.198.597.597 0 0 1 .191-.071c.025 0 .096.022.191.071.094.048.2.116.312.198.067.049.13.098.186.144l.147.128.055.051.358.347.357-.347.123-.112c.074-.064.165-.138.265-.211a2.38 2.38 0 0 1 .312-.198.597.597 0 0 1 .19-.071.59.59 0 0 1 .192.071c.094.048.2.116.312.198.066.049.129.098.185.144l.148.128.412.398.358-.347.123-.112.168-.138a2.386 2.386 0 0 1 .409-.271.597.597 0 0 1 .19-.071c.025 0 .096.022.192.071.094.048.2.116.311.198.067.049.13.098.186.144l.148.128.412.398.357-.347.124-.112c.074-.064.165-.138.265-.211.111-.082.217-.15.311-.198a.597.597 0 0 1 .191-.071c.025 0 .096.022.191.071.095.048.2.116.312.198l.186.144.08.067.122.112.358.347.412-.398.148-.128a4.85 4.85 0 0 1 .185-.144 2.38 2.38 0 0 1 .312-.198.597.597 0 0 1 .191-.071c.025 0 .096.022.191.071.094.048.2.116.312.198.067.049.13.098.186.144l.147.128.055.051 1.354 1.311-.501-1.816c-.766-2.779-2.997-4.946-5.85-5.689-4.405-1.147-8.937 1.395-10.121 5.689Z"/><path d="M13.222 41.958h-1.459v8.02c0 1.377.87 2.475 2.042 2.475 1.17 0 2.041-1.1 2.041-2.477v-.224l-.165-.153a1.294 1.294 0 0 0-.26-.184.66.66 0 0 0-.603-.009l-.078.042-.095.062-.079.061-.179.154v.236c0 .583-.326 1.065-.582 1.065-.256 0-.583-.482-.583-1.065v-8.003Zm22.144 7.436c-.807.996-1.81 1.504-2.682 1.504-1.177 0-2.18-1.144-2.18-3.792 0-3.178 1.722-3.771 2.79-3.771 1.025 0 1.549.423 2.072 1.229v4.83Zm0 1.165h.044l.109 1.23c0 .042.065.063.196.063.283-.021.436-.064.741-.064.284 0 .698.021.981.064l.044-.064a23.341 23.341 0 0 1-.37-4.068v-6.525c0-1.568.086-2.67.195-3.983 0-.148-.065-.212-.196-.212-.567.212-1.025.36-1.897.424l-.043.063c.152.911.196 2.48.196 4.09v1.376c-.502-.275-1.396-.466-1.832-.466-2.856 0-4.927 1.907-4.927 4.788 0 2.606 1.591 4.725 3.946 4.725 1.047 0 2.028-.445 2.813-1.44Zm6.394-4.555c.372-2.203 1.789-2.67 2.487-2.67.85 0 1.831.785 1.831 2.374 0 .19-.087.296-.305.296H41.76Zm5.823 3.58c-.764.806-1.788 1.166-2.988 1.166-.763 0-1.788-.275-2.376-1.208-.393-.593-.524-1.44-.524-2.69h5.931c.24 0 .393-.127.393-.36 0-1.78-.894-4.005-3.772-4.005-2.246 0-4.47 1.759-4.47 4.873 0 1.208.24 2.394.98 3.242.742.89 1.985 1.398 3.468 1.398 1.57 0 2.965-.784 3.794-1.886l-.436-.53Zm6.609 1.484c-1.221 0-2.791-1.038-3.467-2.288l-.218.02c-.087.764-.327 1.547-.502 2.183l.044.064s1.417.953 3.968.953c2.682 0 4.754-1.589 4.754-4.047 0-2.457-2.159-3.58-3.903-4.237-1.112-.402-2.66-1.017-2.66-2.775 0-.763.436-1.61 1.003-1.907.37-.19.828-.254 1.33-.254 1.199 0 2.376.91 2.965 2.224l.218-.02c.087-.764.305-1.484.502-2.12l-.044-.063s-.916-.954-3.467-.954c-.589 0-1.243.106-1.875.36-1.286.53-2.398 1.76-2.398 3.306 0 2.224 1.94 3.262 3.75 4.004 1.417.572 2.55 1.271 2.55 3.072 0 1.589-1.264 2.479-2.55 2.479Zm9.896-3.518v-2.478c1.046 0 3.358.064 4.862.212l.065-.064a3.57 3.57 0 0 1 0-1.356l-.065-.063c-1.286.106-2.29.212-4.862.212V42.36c0-.36.022-2.542.174-3.05 2.922 0 5.93.254 5.93.254l.044-.085a4.35 4.35 0 0 1-.043-.551c0-.17.022-.509.043-.805l-.043-.064c-.35.043-.85.064-1.308.064H63.15c-.741 0-1.112-.064-1.112-.064l-.043.064c.174 1.208.218 2.648.218 4.237v5.19c0 1.59-.044 3.094-.218 4.238l.021.064s.371-.064 1.134-.064h5.953c.457 0 .959.021 1.308.064l.043-.064c-.021-.296-.043-.445-.043-.657 0-.212.022-.53.043-.699l-.043-.085s-3.227.255-6.149.255c-.152-.509-.174-2.691-.174-3.051Zm15.854-9.703c-3.685 0-7.152 3.094-7.152 7.267 0 3.666 2.158 6.886 6.846 6.886 2.006 0 3.903-.593 5.364-2.31-.022-.254-.065-.72-.13-.91l-.153-.064c-1.549 1.653-2.857 2.203-4.885 2.203-2.769 0-4.796-2.902-4.796-6.207 0-4.301 2.812-5.869 4.6-5.869 1.963 0 3.554.763 4.448 2.5l.262-.021c.065-1.08.153-1.44.392-2.352l-.043-.063s-2.093-1.06-4.753-1.06Z"/></g></g></svg>