<svg xmlns="http://www.w3.org/2000/svg" viewBox="0 0 90 90"><path fill="#FFF" d="M0 0h90v90H0z"/><g fill="#4196D4"><path d="M53.386 61.48c.194.22.291.47.291.721 0 .22.065 5.297-4.62 7.491-1.325.595-2.94.752-4.394.783l-3.748 4.514c2.165.031 5.072 0 6.139-.126a14.382 14.382 0 0 0 5.59-1.88c1.195-.69 2.293-1.567 3.295-2.539 1.195-1.254 2.165-2.539 2.617-3.667.226-.533.42-1.16.582-1.85.42-1.786.613-4.67.646-7.02h-9.596l3.198 3.573Zm-.581-9.81-2.1 3.667 14.378-.031c4.685 0 7.076-1.599 8.917-3.636H52.805Z"/><path d="M37.845 47.345c.679-.063 1.26.407 1.325 1.066.032.282.71 6.895 7.044 6.895h.775l3.942-6.52h8.853V29.105c0-6.206-3.134-9.34-3.264-9.465l-.096-.094c-1.52-1.88-3.62-3.229-6.01-3.95C48.443 15 46.634 15 44.534 15H34.356c1.26 1.285 1.906 3.009 1.906 5.14 0 .658-.55 1.16-1.195 1.16-.646 0-1.196-.533-1.196-1.16 0-1.63-.484-2.852-1.421-3.698-1.745-1.567-4.62-1.41-4.653-1.41h-9.984c-.064 0-.84-.032-1.292.407-.356.313-.517.846-.517 1.567v24.98c0 .125-.259 5.484 3.425 9.089.064.062 4.297 4.262 9.467 4.262H39.88c-2.133-2.006-3.037-4.827-3.199-6.707 0-.627.517-1.19 1.163-1.285Zm13.7-8.212-7.722-3.447c2.617-4.984 9.305-1.912 7.722 3.447Z"/></g></svg>