<svg xmlns="http://www.w3.org/2000/svg" viewBox="0 0 90 90"><path fill="#FFF" d="M0 0h90v90H0z"/><path d="M39.79 28c1.606 0 2.938 1.348 2.938 2.975s-1.332 2.975-2.938 2.975c-1.607 0-2.938-1.348-2.938-2.975S38.137 28 39.79 28Z"/><path d="M49.522 28H64.35c1.606 0 2.938 1.348 2.938 2.975s-1.332 2.975-2.938 2.975H49.522c-1.607 0-2.938-1.348-2.938-2.975S47.915 28 49.522 28Zm-14.69 25.332h37.23c1.607 0 2.938-1.348 2.938-2.975s-1.331-2.975-2.938-2.975h-37.23c-1.607 0-2.938 1.348-2.938 2.975s1.285 2.975 2.938 2.975Zm29.334-9.668h7.896c1.607 0 2.938-1.348 2.938-2.975s-1.331-2.975-2.938-2.975h-7.896c-1.607 0-2.938 1.348-2.938 2.975-.046 1.627 1.285 2.975 2.938 2.975Zm0 19.336c1.607 0 2.938-1.348 2.938-2.975s-1.331-2.975-2.938-2.975c-1.607 0-2.938 1.348-2.938 2.975C61.182 61.652 62.513 63 64.166 63Z" fill="#D6E80F"/><path d="M17.938 43.664h36.68c1.606 0 2.937-1.348 2.937-2.975s-1.33-2.975-2.938-2.975H17.938c-1.607 0-2.938 1.348-2.938 2.975s1.331 2.975 2.938 2.975ZM46.4 63h8.263c1.607 0 2.938-1.348 2.938-2.975s-1.33-2.975-2.938-2.975H46.4c-1.607 0-2.938 1.348-2.938 2.975C43.416 61.652 44.748 63 46.4 63ZM26.018 47.382c1.606 0 2.938 1.348 2.938 2.975s-1.332 2.975-2.938 2.975c-1.607 0-2.938-1.348-2.938-2.975 0-1.673 1.285-2.975 2.938-2.975Z"/></svg>