<svg viewBox="0 0 90 90" xmlns="http://www.w3.org/2000/svg"><g fill="none"><path fill="#FFF" d="M0 0h90v90H0z"/><path d="M33.829 40.61h-.255c0-.044 0-.087-.042-.13-1.95-7.46-9.539-11.963-16.958-10.033a13.8 13.8 0 0 0-9.03 7.632c-.212.043-.424.043-.636.086L5 48.585h1.993c1.992 7.461 9.58 11.92 16.915 9.948 4.96-1.33 8.607-5.231 9.836-9.905h.085c1.06 0 1.908-.343 2.544-1.072.635-.73.932-1.715.932-2.959 0-1.243-.297-2.23-.89-2.916-.636-.686-1.484-1.072-2.586-1.072ZM23.612 57.331c-7.038 1.844-14.203-2.015-16.577-8.747h.466c1.908 0 3.434-.557 4.579-1.715 1.145-1.158 1.696-2.702 1.696-4.631 0-1.372-.424-2.444-1.272-3.13-.848-.73-2.077-1.073-3.646-1.073h-.34c1.739-3.044 4.707-5.402 8.395-6.389 7.08-1.886 14.372 2.144 16.62 9.005-.891.086-1.654.429-2.205 1.072-.636.73-.976 1.715-.976 2.873 0 1.244.297 2.23.933 2.916.466.557 1.102.9 1.866 1.03a13.835 13.835 0 0 1-9.54 8.79Zm-2.714-15.95c-.508-.344-1.144-.515-1.908-.515-1.356 0-2.416.428-3.264 1.286-.848.858-1.23 1.972-1.23 3.259 0 1.029.297 1.844.848 2.444.594.6 1.315.9 2.247.9.848 0 1.569-.128 2.163-.385l.212-1.844c-.212.214-.51.386-.89.557-.382.172-.721.257-1.018.257-.551 0-.975-.128-1.314-.428-.297-.3-.467-.686-.467-1.201v-.3a4.752 4.752 0 0 0 1.526.257c1.06 0 1.993-.257 2.714-.729.72-.472 1.102-1.158 1.102-2.015 0-.73-.254-1.244-.72-1.544Zm4.664 4.201-1.272-4.588h-1.823l2.332 7.719h.593l4.876-7.719h-2.035l-2.671 4.588Zm57.87-1.243a23.377 23.377 0 0 0-1.188-.643c-.508-.258-.763-.558-.763-.815a.67.67 0 0 1 .34-.558c.211-.128.466-.214.762-.214.467 0 1.018.257 1.57.772l.847-1.63c-.933-.385-1.696-.6-2.29-.6-.847 0-1.61.215-2.204.686-.593.429-.89 1.03-.89 1.801 0 .343.085.643.254.944.17.3.424.514.763.728a10 10 0 0 0 1.187.644c.467.214.679.471.679.729a.92.92 0 0 1-.34.729 1.554 1.554 0 0 1-.89.257c-.55 0-1.144-.3-1.738-.858l-.933 1.63c.806.471 1.611.729 2.46.729.974 0 1.78-.258 2.416-.73.636-.47.932-1.157.932-2.015 0-.343-.084-.643-.254-.9-.212-.3-.424-.515-.72-.686Zm-35.443.9c-.085.515-.34.987-.72 1.33-.382.386-.849.557-1.442.557-.679 0-1.06-.3-1.06-.943 0-.129 0-.3.042-.515l.89-4.888h-1.822l-.933 4.974c-.043.3-.085.514-.085.729 0 .686.17 1.2.551 1.586.382.386.89.558 1.569.558.975 0 1.78-.257 2.416-.73l-.127.558h1.78l1.442-7.718h-1.78l-.721 4.502Zm18.866-4.63c-1.314 0-2.374.47-3.222 1.457-.848.944-1.272 2.144-1.272 3.516 0 .987.254 1.716.805 2.273.552.515 1.315.772 2.247.772 1.315 0 2.417-.472 3.222-1.458.848-.986 1.272-2.144 1.272-3.602 0-.943-.254-1.672-.805-2.187-.509-.472-1.272-.772-2.247-.772Zm-24.76-3.002h-1.78l-1.441 6.903c-.212 1.115-.34 1.93-.34 2.53 0 .472.128.815.382 1.115.255.3.594.429 1.018.429.593 0 1.017-.214 1.272-.686a.878.878 0 0 1-.89-.9c0-.43.084-1.158.296-2.188l1.484-7.203Zm13.313.814-2.035.73-.297 1.586h-.89l-.297 1.458h.89l-.847 3.859a2.536 2.536 0 0 0-.085.557c0 .6.17 1.072.509 1.416.339.385.805.557 1.399.557.89 0 1.568-.086 2.12-.257v-1.63c-.594.258-1.018.386-1.272.386-.594 0-.89-.257-.89-.772 0-.171.042-.428.084-.686l.763-3.43h2.12l.297-1.458h-2.12l.551-2.316Zm20.18 2.187c-.932 0-1.738.3-2.374.858l-.17-.858-1.738.3c.127.472.212.944.212 1.373 0 .171 0 .3-.042.428l-1.102 5.79h1.78l1.018-5.532c.508-.558 1.102-.815 1.738-.815.763 0 1.145.3 1.145.943 0 .258-.043.558-.085.9l-.848 4.503h1.865l.89-4.717c.085-.343.085-.686.085-.943 0-1.458-.805-2.23-2.374-2.23Zm-17.297 1.587h.975l-1.187 6.303h1.823l1.441-7.718h-2.755l-.297 1.415ZM35.355 46.74c-.34.472-.763.73-1.314.772a13.864 13.864 0 0 0-.17-5.746c1.357 0 2.035.943 2.035 2.873-.042.858-.212 1.587-.55 2.101Zm-1.865.73c-1.145-.172-1.696-1.116-1.696-2.874 0-.9.17-1.586.551-2.101.34-.515.848-.729 1.441-.772.297 1.973.212 3.945-.296 5.746Zm33.916-1.33c-.424.686-1.018 1.029-1.78 1.029-.933 0-1.4-.558-1.4-1.63 0-.9.212-1.715.679-2.4.424-.687 1.017-1.03 1.78-1.03.933 0 1.4.515 1.4 1.544 0 .943-.213 1.758-.68 2.487ZM8.434 39.709a3.67 3.67 0 0 1 .678-.086c.806 0 1.484.214 1.993.686.509.472.763 1.072.763 1.844 0 1.415-.382 2.573-1.102 3.43-.763.9-1.738 1.33-3.01 1.33-.17 0-.34 0-.551-.043l1.229-7.161Zm10.768 4.073c-.424.215-.975.3-1.61.3a3.57 3.57 0 0 1-.976-.128 3.4 3.4 0 0 1 .848-1.158c.382-.3.72-.472 1.06-.472.89 0 1.314.215 1.314.6.043.387-.212.687-.636.858Zm41.336-6.603c-.34 0-.594.086-.848.3-.212.214-.34.472-.34.815 0 .3.128.6.34.814.212.215.509.3.805.3.34 0 .594-.128.806-.342.212-.215.34-.472.34-.815 0-.3-.128-.6-.34-.815-.17-.171-.424-.257-.763-.257Z" fill="#000"/></g></svg>