<svg xmlns="http://www.w3.org/2000/svg" xmlns:xlink="http://www.w3.org/1999/xlink" viewBox="0 0 90 90"><defs><circle id="b" cx="45" cy="45" r="45"/><circle id="d" cx="45" cy="45" r="45"/><circle id="f" cx="45" cy="45" r="45"/><linearGradient id="a" x1="42.52%" x2="60.94%" y1="22.22%" y2="85.02%"><stop offset="0%" stop-color="#00C2A2"/><stop offset="100%" stop-color="#00B395"/></linearGradient></defs><g fill="none" fill-rule="evenodd"><circle cx="45" cy="45" r="45" fill="url(#a)" fill-rule="nonzero"/><mask id="c" fill="#fff"><use xlink:href="#b"/></mask><circle cx="45" cy="45" r="47.5" stroke="#FFF" stroke-width="7.03" mask="url(#c)"/><mask id="e" fill="#fff"><use xlink:href="#d"/></mask><path stroke="#FFF" stroke-linecap="round" stroke-width="2.81" d="M92.5 44.46C92.5 16.08 77.7 5 57.75 5 40.16 5 25 14.67 25 31.25S36.42 55 47.5 55s17.94-6.2 17.94-16.29c0-10.08-8.6-13.5-12.8-13.5-4.2 0-9.96 2.84-9.96 9.15 0 6.32 4.6 8.39 7.86 8.39a5.45 5.45 0 0 0 5.65-5.67c0-3.35-2.34-4.6-4.68-4.6" mask="url(#e)"/><mask id="g" fill="#fff"><use xlink:href="#f"/></mask><path stroke="#FFF" stroke-width="2.81" d="M27.5 45C20.35 48.9 10 64.39 10 77.5" mask="url(#g)"/></g></svg>