<svg viewBox="0 0 90 90" xmlns="http://www.w3.org/2000/svg"><g fill="none" fill-rule="evenodd"><path fill="#1F232E" d="M0 0h90v90H0z"/><path d="M64.466 68.613 65.922 77l-42.253-5.107 40.797-3.28Zm-3.114-28.509 10.233 9.274L80 65.626l-46.235 3.38h-.002l29.756-9.38-2.167-19.522ZM32.948 25.782v.003L28.3 46.684l-2.173 9.77 17.851 7.867-13.082 4.299-18.162-.779-.002.003.001-.003 20.216-42.059Zm28.32-11.18L78.01 54.055 54.79 20.071l6.48-5.468Zm-25.756.926-17.577 37.26L10 49.869l25.512-34.34ZM44.462 8l26.016 38.682-.004-.003.004.005-22.934-21.292L31.857 37.05l2.85-13.575L44.46 8l.003.004V8Z" fill="#FFF"/></g></svg>