<svg viewBox="0 0 90 90" xmlns="http://www.w3.org/2000/svg"><g fill="none" fill-rule="evenodd"><path fill="#FF0452" d="M0 0h90v90H0z"/><path d="M47.746 28.302h3.907c12.003-.057 19.08 8.49 19.137 19.641.057 12.34-8.606 22.98-24.573 23.038-17.268.056-29.781-12.283-29.838-29.208-.057-13.132 7.474-22.584 16.873-27.962L32.176 12C19.493 18.17 10.944 29.943 11 44.434 11.057 63.622 25.665 78.113 46.217 78 68.072 77.886 79.057 62.547 79 47.207 78.943 32.66 68.695 20.943 52.955 21l-13.362.057.17 40.754 8.153-.057-.17-33.452Z" fill="#FFF" fill-rule="nonzero"/></g></svg>