<svg viewBox="0 0 90 90" xmlns="http://www.w3.org/2000/svg"><g fill="none"><path fill="#FFF" d="M0 0h90v90H0z"/><path d="M57.91 50.358c0 1.107-.592 2.13-1.555 2.684l-9.27 5.33a3.126 3.126 0 0 1-3.11 0l-9.271-5.331a3.095 3.095 0 0 1-1.555-2.682V39.7c0-1.107.592-2.129 1.555-2.683l9.27-5.33a3.127 3.127 0 0 1 3.111 0l9.27 5.33A3.097 3.097 0 0 1 57.91 39.7v10.658Zm.064-14.59-10.681-6.143a3.6 3.6 0 0 0-3.586 0l-10.681 6.143a3.566 3.566 0 0 0-1.794 3.091v12.282c0 1.276.684 2.454 1.794 3.091l10.681 6.142a3.597 3.597 0 0 0 3.586 0l10.681-6.142a3.567 3.567 0 0 0 1.794-3.092V38.86a3.566 3.566 0 0 0-1.794-3.091" fill="#212222"/><path d="M49.127 74.995a1.915 1.915 0 0 1-1.916-1.909v-7.854c0-.535.29-1.034.756-1.3l13.792-7.93a3.557 3.557 0 0 0 1.784-3.078V37.076a3.562 3.562 0 0 0-1.784-3.078l-13.815-7.942-.01-.007a1.513 1.513 0 0 1-.723-1.281v-7.869a1.906 1.906 0 0 1 2.857-1.645l20.04 11.523A7.765 7.765 0 0 1 74 33.487v23.026a7.762 7.762 0 0 1-3.891 6.711L50.082 74.738c-.29.167-.62.256-.955.256M41.88 75c-.333 0-.66-.088-.95-.254L20.89 63.223a7.761 7.761 0 0 1-3.89-6.71V33.487a7.766 7.766 0 0 1 3.891-6.711l20.027-11.514a1.906 1.906 0 0 1 2.87 1.637v7.87c0 .534-.29 1.035-.762 1.303l-13.785 7.926a3.56 3.56 0 0 0-1.784 3.078v15.848c0 1.266.683 2.445 1.783 3.076l13.784 7.926c.472.267.764.765.765 1.306V73.1a1.88 1.88 0 0 1-.584 1.369c-.356.34-.83.53-1.324.53V75Z" fill="#C83838"/></g></svg>