<svg viewBox="0 0 90 90" xmlns="http://www.w3.org/2000/svg"><g fill="none" fill-rule="evenodd"><path fill="#23706A" d="M0 0h90v90H0z"/><path d="M39.285 15h5.714v17.143l-2.857 7.143h-2.857zM19.747 27.826l4.04-4.04 11.617 11.616.505.505 3.031 7.071-2.02 2.02zM15 50.713v-5.714h17.143l7.143 2.856v2.858zm12.828 19.542-4.04-4.04 11.616-11.618.505-.505 7.071-3.03 2.02 2.02zM50.715 75h-5.714V57.857l2.857-7.143h2.857zm19.541-12.826-4.04 4.04-11.618-11.616-.505-.505-3.03-7.071 2.02-2.02zM75 39.284V45H57.857l-7.143-2.858v-2.857zM62.172 19.745l4.04 4.04-11.616 11.618-.505.505-7.071 3.03-2.02-2.02z" fill="#D8F85D" fill-rule="nonzero"/></g></svg>