<svg viewBox="0 0 90 90" xmlns="http://www.w3.org/2000/svg"><g fill="none" fill-rule="evenodd"><path fill="#2E2F34" d="M0 0h90v90H0z"/><g fill-rule="nonzero"><path d="M10 55.29h5.311L16.828 61H10v-5.71Zm6.07 0h2.44l-1.088 3.851c-.033.1-.099.432-.264 1.062a14.462 14.462 0 0 0-.23-1.162l-.858-3.75Zm3.364 0h2.409l-.891 3.652c-.132.465-.198.896-.297 1.228-.099-.63-.23-1.294-.429-2.025l-.792-2.855Zm3.167 0h9.732a2.585 2.585 0 0 0-1.155.698c-.495.53-.759 1.261-.759 2.224 0 .498.1.962.33 1.427.231.465.528.797.957 1.062.198.133.429.233.66.299H21.05l1.55-5.71Zm11.282 0H44.11V61H33.85c.231-.066.429-.133.627-.266a2.29 2.29 0 0 0 .99-1.029c.23-.464.362-.962.362-1.56 0-.564-.099-1.095-.33-1.527a2.482 2.482 0 0 0-.956-1.062 2.726 2.726 0 0 0-.66-.266Zm12.766 0h10.458V61H49.09l-.99-1.56c-.197-.299-.395-.564-.626-.764-.099-.1-.264-.199-.462-.298.528-.067.957-.266 1.22-.532.265-.265.397-.63.397-1.029 0-.298-.066-.597-.231-.863a1.215 1.215 0 0 0-.627-.53c-.23-.1-.627-.134-1.122-.134Zm11.216 0h11.018V61H60.67v-.664h-2.804V55.29Zm13.03 0h9.072V61h-9.039c.33 0 .66-.033.924-.1.264-.066.495-.166.66-.298a2.01 2.01 0 0 0 .528-.531 2.77 2.77 0 0 0 .395-.83c.1-.332.165-.73.165-1.162 0-.498-.066-.963-.23-1.361a2.017 2.017 0 0 0-.66-.963 1.747 1.747 0 0 0-.825-.398 7.75 7.75 0 0 0-.99-.067Zm-22.728 5.677h-3.299v-2.523h.858c.198 0 .33 0 .429.033.132.033.23.067.33.166.098.067.23.2.395.365.132.166.33.432.528.797l.759 1.162Zm-27.842 0h-2.738l1.188-4.349c.066-.199.099-.398.165-.664.033.067.066.3.165.664l1.22 4.349Zm10.853-2.755c0 .697.198 1.228.56 1.626.364.399.826.598 1.386.598.561 0 1.023-.2 1.386-.598.363-.398.56-.962.56-1.693 0-.465-.065-.863-.23-1.228-.165-.332-.396-.63-.693-.797a1.768 1.768 0 0 0-1.023-.298c-.527 0-.99.199-1.385.564-.363.365-.56.963-.56 1.826Zm13.69-.399h1.616c.33 0 .627-.033.792-.1a.881.881 0 0 0 .429-.331c.099-.166.165-.332.165-.498a.838.838 0 0 0-.297-.664c-.198-.166-.495-.266-.924-.266h-1.781v1.86Zm24.774 2.49h1.22a3.3 3.3 0 0 0 .891-.1c.198-.066.396-.166.495-.298a1.94 1.94 0 0 0 .429-.73c.099-.3.165-.665.165-1.096 0-.598-.1-1.062-.297-1.361-.198-.332-.43-.531-.726-.63a3.116 3.116 0 0 0-.957-.134h-1.187v4.349h-.033Z" fill="#F0BC44"/><path d="M77.427 40.32c1.517 1.56 2.54 4.248 2.54 6.605v6.64H57.832v-6.64l15.109.034c0-2.457-1.485-4.714-2.804-6.606l7.29-.033ZM51.762 29c-9.83 0-17.813 8.066-17.813 17.925v6.64h22.135v-6.64l-15.67.034c.034-6.274 5.114-11.42 11.381-11.42h4.322v-6.473L51.762 29Zm14.647 11.386c2.078-2.921 5.443-4.88 9.27-4.88H80V29h-4.321c-7.522 0-13.954 4.714-16.593 11.353l7.323.033ZM14.321 29c9.83 0 17.814 8.066 17.814 17.925v6.64H10l.033-13.245h6.499v6.605h9.137c-.033-6.274-5.113-11.419-11.38-11.419h-4.256V29h4.288Z" fill="#FFF"/></g></g></svg>