<svg viewBox="0 0 90 90" xmlns="http://www.w3.org/2000/svg"><g fill="none"><path fill="#FFCB05" d="M0 0h90v90H0z"/><path d="M45.484 82.37c.351.008.7-.07 1.012-.23a10.283 10.283 0 0 0 2.869-2.974l-13.702 3.375 9.82-.168v-.003Zm-7.166-8.03a21.3 21.3 0 0 1 3.985 1.792l8.873-.15.76-.843c.21-.4.21-.76 0-.968-.211-.21-.698-.295-1.539-.295H38.36s-.338 0-.377.169a.31.31 0 0 0 0 .188c.104.056.22.09.337.107h-.002Zm17.83 2.213-13.381.231s-.127 0-.127.127c0 .947-1.265 1.856-2.953 2.655-1.684.801-4.044 1.707-5.225 2.109l-.929.357c-.126 0-.21.169-.168.276.042.104.168.188.613 0l.652-.169c2.256-.59 6.323-1.623 10.37-2.616 4.047-.99 8.22-1.833 11.149-2.275.233 0 .444-.169.422-.357-.02-.191-.127-.338-.422-.338Z" fill="#003DA5"/><path d="M68.923 21.794c-6.637-6.637-14.754-8.831-27.084-8.831-6.787 0-14.755.146-22.278.357v51.114l9.695.231V25.273c4.089-.107 9.315-.275 13.952-.275 14.29 0 21.837 3.816 21.837 13.51 0 11.234-8.98 14.353-21.29 14.353h-4.847v11.992h2.93c12.269 0 20.448-2.106 27.085-8.83 8.691-9.731 8.691-24.436 0-34.167v-.062Z" fill="#00F"/></g></svg>