<svg viewBox="0 0 90 90" xmlns="http://www.w3.org/2000/svg"><g fill="none"><path d="M90 36.44c0 3.731-.536 7.461-1.071 11.192C84.107 73.21 69.375 86 44.732 86H29.196v-.266l3.75-17.586h10.715c13.393 0 21.428-7.46 24.107-22.648.268-1.066.268-1.865.536-2.93l21.428-12.258c0 1.866.268 3.997.268 6.129Zm-7.768-22.114L63.214 25.25C60 23.385 56.25 22.32 52.232 22.586H21.161v-.533L24.91 5h32.143c4.017 0 8.303.533 12.053 1.599 4.554 1.332 8.84 3.463 12.054 6.66.535.267.803.534 1.071 1.067Z" fill="#7540BE"/><path fill="#00D0C4" d="M51.696 37.773 48.75 55.359H35.625l-6.429 30.108v.267H0l10.982-14.655 7.232-33.306z"/></g></svg>