<svg xmlns="http://www.w3.org/2000/svg" viewBox="0 0 90 90" fill-rule="evenodd"><path fill="#68b0f4" fill-rule="nonzero" d="M0 0h90v90H0z"/><path fill="#fff" d="M65.962 50.504c-.323-.08-.592-.16-.834-.266s-.43-.239-.592-.399c.161-1.409 0-2.632.135-4.015.538-5.371 3.953-3.669 7.019-4.546 1.909-.532 3.819-1.622 4.303-3.855a39.29 39.29 0 0 0-6.992-6.354c-8.31-5.849-19.174-8.189-29.043-6.567a14.85 14.85 0 0 0 6.527 5.982s-2.675 0-4.967-1.693c-.672.266-2.018.789-2.663 1.108 5.244 4.972 13.446 5.53 19.335 1.064-.027.053-.538.824-1.156 4.041-1.371 6.86-5.325 6.328-10.219 4.6-10.165-3.643-15.759-.266-20.841-7.179a4.63 4.63 0 0 0-2.393 4.041c0 1.728.968 3.19 2.367 3.988.763-1.001 1.106-1.286 2.437-1.286-2.06 1.155-2.303 2.163-3.19 4.955-1.076 3.377-.619 6.833-5.647 7.737-2.662.133-2.608 1.914-3.577 4.573-1.21 3.456-2.824 4.839-5.97 8.109 1.291 1.542 2.636 1.728 4.007 1.17 2.824-1.17 5.002-4.786 7.046-7.126 2.286-2.605 7.772-1.489 11.913-4.041 2.851-1.728 4.249-4.068 2.367-8.029 1.21 1.329 1.936 3.004 2.044 4.786 4.787-.611 11.187 5.158 17.023 6.115a10.29 10.29 0 0 1-1.425-2.366c-.672-1.595-.887-3.058-.753-4.334.538 3.164 3.765 7.232 8.955 7.604 1.318.106 2.77-.053 4.276-.505 1.802-.532 3.469-1.223 5.459-.851 1.479.266 2.851 1.01 3.711 2.26 1.291 1.861 4.115 2.26 5.378-.027-2.851-7.365-10.703-7.843-14.038-8.694z"/></svg>