<svg viewBox="0 0 90 90" xmlns="http://www.w3.org/2000/svg"><g fill="none" fill-rule="evenodd"><path fill="#5865F2" d="M0 0h90v90H0z"/><path d="M70.796 21.73A59.415 59.415 0 0 0 55.746 17a44.128 44.128 0 0 0-1.928 4.003c-5.612-.844-11.172-.844-16.68 0A42.783 42.783 0 0 0 35.188 17a59.218 59.218 0 0 0-15.062 4.741C10.6 36.134 8.019 50.17 9.31 64.006c6.317 4.718 12.44 7.584 18.458 9.459a45.906 45.906 0 0 0 3.954-6.511 38.872 38.872 0 0 1-6.226-3.03 30.957 30.957 0 0 0 1.526-1.207c12.004 5.614 25.046 5.614 36.906 0 .499.416 1.01.82 1.526 1.207a38.775 38.775 0 0 1-6.237 3.036 45.704 45.704 0 0 0 3.953 6.51c6.025-1.875 12.153-4.74 18.47-9.464 1.515-16.04-2.587-29.946-10.844-42.277Zm-37.44 33.767c-3.602 0-6.557-3.364-6.557-7.46 0-4.097 2.891-7.466 6.558-7.466 3.666 0 6.621 3.363 6.558 7.466.006 4.096-2.892 7.46-6.558 7.46Zm24.237 0c-3.603 0-6.558-3.364-6.558-7.46 0-4.097 2.892-7.466 6.558-7.466 3.667 0 6.622 3.363 6.559 7.466 0 4.096-2.892 7.46-6.559 7.46Z" fill="#FFF" fill-rule="nonzero"/></g></svg>