<svg viewBox="0 0 90 90" xmlns="http://www.w3.org/2000/svg"><defs><linearGradient x1="0%" y1="49.975%" x2="100%" y2="49.975%" id="a"><stop stop-color="#12B212" offset="0%"/><stop stop-color="#0F0" offset="100%"/></linearGradient></defs><g fill="none"><path d="M25.324 27.659C14.09 26.46 2.771 17.969 1.877 0c17.435 0 26.758 10.32 27.659 26.675 3.297-19.617 18.75-17.317 18.75-17.317.735 11.118-8.394 17.857-18.75 18.418-2.91-6.13-20.337-21.168-20.337-21.168a.048.048 0 0 0-.076.056s16.818 14.65 16.201 20.995" fill="url(#a)" transform="translate(14)"/><path d="M44.589 90c-1.088-.062-11.235-.45-11.852-11.852-.499-6.927 4.974-12.032 4.974-18.758C36.47 42.62 14 44.7 14 59.39a13.812 13.812 0 0 0 4.038 9.795L34.78 85.934a13.812 13.812 0 0 0 9.795 4.038" fill="#980200"/><path d="M75.178 59.397c-.063 1.088-.45 11.236-11.852 11.852-6.927.499-12.039-4.973-18.758-4.973-16.77 1.24-14.692 23.703 0 23.703a13.812 13.812 0 0 0 9.795-4.038l16.755-16.742a13.812 13.812 0 0 0 4.039-9.795" fill="red"/><path d="M44.589 28.809c1.087.062 11.235.45 11.852 11.851.498 6.927-4.974 12.032-4.974 18.758 1.24 16.77 23.704 14.692 23.704 0a13.812 13.812 0 0 0-4.039-9.794L54.383 32.868a13.812 13.812 0 0 0-9.794-4.039" fill="#980200"/><path d="M14.055 59.397c.063-1.087.45-11.235 11.852-11.851 6.927-.5 12.039 4.973 18.758 4.973 16.77-1.26 14.692-23.704 0-23.704a13.812 13.812 0 0 0-9.794 4.039L18.115 49.603a13.812 13.812 0 0 0-4.039 9.794" fill="red"/></g></svg>