<svg xmlns="http://www.w3.org/2000/svg" viewBox="0 0 90 90" fill-rule="evenodd" xmlns:v="https://vecta.io/nano"><path fill="#fff" d="M0 0h90v90H0z"/><g fill="#000" fill-rule="nonzero"><path d="M28.755 45.167A16.27 16.27 0 0 1 45.02 28.903c2.994 0 5.745.809 8.092 2.185l3.237-5.826c-3.318-1.942-7.202-2.994-11.329-2.994-6.312 0-12.057 2.589-16.184 6.716s-6.716 9.872-6.716 16.184 2.508 12.057 6.716 16.184l.324.324 4.531-4.855.081.081a16 16 0 0 1-5.017-11.733zm32.449-16.022L56.673 34c2.751 2.913 4.451 6.878 4.451 11.167 0 8.982-7.283 16.265-16.184 16.265-2.751 0-5.26-.647-7.525-1.861h0l-3.237 5.826a23.04 23.04 0 0 0 10.762 2.67c6.312 0 12.057-2.589 16.184-6.716s6.716-9.872 6.716-16.184c0-6.231-2.508-11.895-6.635-16.022zM32.478 45.167A12.47 12.47 0 0 1 44.94 32.705h0a12.47 12.47 0 0 1 12.462 12.462h0A12.47 12.47 0 0 1 44.94 57.629h0a12.47 12.47 0 0 1-12.462-12.462h0zm.566 0c0 6.554 5.341 11.895 11.895 11.895h0c6.554 0 11.895-5.341 11.895-11.895h0c0-6.554-5.341-11.895-11.895-11.895h0c-6.554 0-11.895 5.341-11.895 11.895h0z"/><path d="M46.881 45.167a1.97 1.97 0 0 1-1.942 1.942 1.97 1.97 0 0 1-1.942-1.942 1.97 1.97 0 0 1 1.942-1.942c1.133 0 1.942.89 1.942 1.942zM24.304 66.934l4.612-5.017c-4.37-4.208-7.121-10.115-7.121-16.75 0-12.866 10.358-23.224 23.224-23.224 4.208 0 8.092 1.133 11.491 3.075l3.237-5.988c-4.37-2.428-9.387-3.884-14.727-3.884-8.254 0-15.779 3.399-21.201 8.82s-8.82 12.947-8.82 21.201 3.318 15.779 8.82 21.201a1.51 1.51 0 0 0 .486.566zM66.14 23.966s0-.081 0 0l-4.693 4.936c4.127 4.208 6.716 9.953 6.716 16.265 0 12.785-10.358 23.224-23.224 23.224-3.965 0-7.687-.971-10.924-2.751l-3.318 5.907c4.289 2.347 9.144 3.641 14.323 3.641 8.254 0 15.779-3.399 21.201-8.82s8.82-12.947 8.82-21.201c-.081-8.254-3.48-15.779-8.901-21.201z"/><path d="M71.238 18.869l-.243-.243-4.612 5.017c5.502 5.502 8.982 13.109 8.982 21.524 0 16.75-13.594 30.345-30.345 30.345-5.26 0-10.196-1.295-14.485-3.641l-3.318 5.907c5.26 2.913 11.329 4.531 17.802 4.531 10.277 0 19.582-4.127 26.299-10.924 6.716-6.716 10.843-16.022 10.843-26.299-.081-10.196-4.208-19.501-10.924-26.218zM19.369 72.195l4.612-5.017c-5.826-5.502-9.468-13.352-9.468-22.01 0-16.75 13.594-30.345 30.345-30.345 5.422 0 10.519 1.457 14.889 3.884l3.237-5.988c-5.341-2.994-11.571-4.774-18.207-4.774-10.277 0-19.582 4.127-26.299 10.924-6.554 6.716-10.681 16.022-10.681 26.299s4.208 19.582 10.924 26.299c.162.243.405.486.647.728z"/><path d="M75.445 13.852l-4.208 4.531a37.26 37.26 0 0 1 11.248 26.784c0 20.715-16.831 37.546-37.546 37.546-6.554 0-12.623-1.699-17.964-4.612l-3.156 5.583c6.231 3.399 13.433 5.422 21.039 5.422 24.195 0 43.858-19.663 43.858-43.858a43.68 43.68 0 0 0-13.271-31.397zM45.586 1.39h-.728C20.825 1.39 1.243 20.811 1 44.844h0v.405c0 12.542 5.341 23.87 13.837 31.881l4.37-4.693C11.924 65.559 7.393 55.93 7.393 45.167c0-20.715 16.831-37.546 37.546-37.546 6.635 0 12.947 1.78 18.369 4.774l2.994-5.422A42.83 42.83 0 0 0 45.586 1.39z"/></g></svg>