<svg viewBox="0 0 90 90" xmlns="http://www.w3.org/2000/svg"><g fill="none" fill-rule="evenodd"><path fill="#252627" fill-rule="nonzero" d="M0 0h90v90H0z"/><path d="M45.07 20c3.416 0 6.588.63 9.505 1.891a23.513 23.513 0 0 1 7.604 5.225A23.62 23.62 0 0 1 67.199 35C68.403 38.053 69 41.387 69 45c0 3.628-.597 6.962-1.801 10a23.542 23.542 0 0 1-5.018 7.9 23.261 23.261 0 0 1-7.606 5.21C51.66 69.37 48.489 70 45.07 70H28V20h17.07Zm16.038 25a19.194 19.194 0 0 0-1.166-6.75 15.807 15.807 0 0 0-3.32-5.35 14.91 14.91 0 0 0-5.087-3.502c-1.95-.84-4.106-1.245-6.465-1.245h-9.194v33.71h9.194c2.36 0 4.514-.42 6.465-1.26a14.873 14.873 0 0 0 5.086-3.487 16.005 16.005 0 0 0 3.321-5.363c.771-2.075 1.166-4.316 1.166-6.753Z" fill="#FFF"/></g></svg>