<svg xmlns="http://www.w3.org/2000/svg" viewBox="0 0 90 90"><path fill="#FFF" d="M0 0h90v90H0z"/><path d="M42.192 43.108c-.02-.654-.645-1.703-1.082-1.688-.346.01-.648.25-.77 1.375-.124 1.124-.168 2.921-.2 3.86-.033.938.024 2.813.087 3.473.063.661.413 1.107 1.164 1.085.75-.022.908-.238.973-.675.065-.436.096-1.38.05-2.366-.045-.986-.201-4.408-.222-5.064ZM21.49 31.315c-1.468-.217-3.207-.34-4.23-.31-2.763.08-4.42.71-4.761.84-.498.19-1.314 1.352-1.304 1.724.017.51.646.875 1.482.85.457-.014 1.203-.062 1.194-.407-.011-.345-1.307-.413-1.312-.588-.008-.262 1.595-.549 4.268-.628 6.785-.202 19.45 5.683 19.64 12.09.136 4.585-5.967 5.56-8.64 5.638a14.556 14.556 0 0 1-3.417-.332c-.02-1.412-.061-3.104-.08-3.758-.021-.68-.01-1.695-.007-2.535 2.479.015 6.5.443 6.53 1.417.019.647-1.432.74-1.42 1.14.005.208.795.593 1.47.573.675-.02 1.96-.764 1.918-2.216-.056-1.873-3.088-3.456-8.148-3.305l-.272.01c-.004-.313-.024-2.063-.237-3.023-.233-1.057-.85-1.747-1.148-1.74-.741.023-.98 3.597-1.03 5-3.606.56-6.688 1.975-6.638 3.67.035 1.138 2.446 4.024 6.45 5.8.122 1.103.449 2.46 1.286 2.434 1.369-.04 1.296-.552 1.33-1.517a17.06 17.06 0 0 0 4.85.552c6.63-.197 10.026-3.885 9.91-7.816-.172-5.78-9.141-12.295-17.686-13.56l.002-.003Zm.277 18.105c-3.14-1.163-5.53-2.948-5.558-3.877-.027-.888 3.218-1.36 5.754-1.548-.014 1.51-.05 3.524-.196 5.425Zm25.576-14.052c-.026-.842-.571-1.657-1.891-1.637-.125-.31-.542-.938-2.032-.894-3.247.096-5.745 2.501-5.69 4.396.02.617.316 1.156.753 1.598a1.68 1.68 0 0 0-.122.635c.01.33.505 1.2.886 1.187.322-.009.54-.31.852-.799.53.205 1.056.31 1.476.296 3.052-.09 5.823-2.95 5.768-4.782Zm-7.05.746c-.435.49-.782.922-1.038 1.3a.803.803 0 0 1-.096-.39c-.013-.42.71-2.027 2.532-2.159a7.708 7.708 0 0 0-1.397 1.247v.002Zm4.883-1.035c.59-.017.744.347.757.751.019.628-1.118 2.461-3.68 2.537a7.249 7.249 0 0 1-1.412-.088c.376-.532 2.325-3.14 4.334-3.2Zm3.854 6.164c-1.79.054-5.116.62-5.592 2.245-.227.778-.32 1.718.337 2.134.658.416 2.583.407 3.867.473 1.283.066 3.502.42 3.524 1.145.016.547-.92 1.565-4.013 1.658-3.47.103-2.5-1.368-1.805-1.389 1.215-.036 1.11.822 3.22.76.468-.015 1.524-.28 1.508-.796-.02-.636-2.412-1.194-3.96-1.148-1.544.046-2.465.84-2.44 1.733.03 1.006 1.452 2.986 4.899 2.884 1.143-.033 2.635-.6 3.08-.809.35-.164 1.126-.598 1.066-2.65-.078-2.6-2.66-2.66-4.265-2.758-1.565-.095-3.27-.177-3.28-.548-.02-.7 5.654-.94 6.778-1.054.954-.097 1.13-.795 1.12-1.13-.017-.57-2.256-.802-4.045-.75Zm9.443-1.4c-.894.027.057 1.66.667 4.823.27 1.4.587 2.667.16 2.68-.426.012-2.957-5.464-4.167-5.43-1.49.045-1.988 5.216-1.944 6.738.046 1.522.4 2.293 1.203 2.27.532-.017.863-.526.923-1.478.06-.953.079-4.113.304-4.119.42-.013 2.263 5.098 3.882 5.05 1.708-.05 1.973-2.516 1.916-4.4-.12-4.057-2.286-6.153-2.947-6.134h.003Zm9.565 8.097c-.67.02-2.296.326-2.895.497-.6.17-1.064.272-.916-.19.118-.37.378-1.247.48-1.588l3.055-.09c.596-.018.628-.318.678-1.06.05-.743-.454-.649-1.026-.63 0 0-1.013.04-2.094.093l.484-1.29c1.11-.04 2.27-.162 2.988-.183 1.4-.04 1.535-.4 1.53-.545-.004-.145-.144-.519-.513-1.049-.37-.528-.7-.752-1.86-.719-1.078.032-5.742.412-5.723 1.05.008.29.42.935.946 1.188a2.6 2.6 0 0 0 .735.198l-.716 1.476c-.103.008-.19.018-.26.026-.866.097-.631.671-.535 1.192.043.23.098.335.169.381-.295.8-.604 1.83-.58 2.597.042 1.45 1.3 2.258 2.226 2.23 2.159-.065 4.226-1.81 4.61-2.176.382-.366-.116-1.43-.785-1.41l.002.002Zm11.17-3.235c-.05-1.705-.703-2.915-1.795-2.883-1.6.047-3.897 2.464-5.743 5.497-.166-1.232.806-3.126 1.633-4.452.582-.93.48-2.037.239-2.029-.34.01-3.613 2.783-3.5 6.586.02.738.213 1.36.534 1.866-1.252 2.47-2.094 5.086-2.036 7.057.066 2.22 1.428 3.048 1.843 3.037.415-.014.435-.67.51-1.16a32.851 32.851 0 0 1 1.977-7.293 3.5 3.5 0 0 0 .954.112c2.538-.076 5.48-3.11 5.385-6.339v.001Zm-5.245 3.815c1.528-2.99 3.104-4.692 3.66-4.71.96-.028.147 4.32-3.66 4.71Z"/></svg>