<svg viewBox="0 0 90 90" xmlns="http://www.w3.org/2000/svg"><g fill="none"><path fill="#4F152C" d="M0 0h90v90H0z"/><path d="M35.278 68.988c.252.016.55.016.891 0l.43-.028.467-.042c.162-.017.33-.036.504-.057l.539-.071.571-.085.603-.098.632-.111.659-.124.684-.136.35-.072 1.087-.235.748-.17 1.156-.276.79-.196 1.208-.313.819-.22 1.242-.347.418-.12c10.427-3.018 18.479-7.254 22.391-11.79 3.214-3.706 4.21-7.43 3.091-11.437-.316-1.141-1.982-3.306-3.99-5.272l-.489-.467a26.6 26.6 0 0 0-.498-.456l-.272-.232-.336-.268a25.2 25.2 0 0 0-.19-.146l-.42-.316-.47-.344-.514-.368-.843-.59-.913-.623-1.295-.863-1.007-.656-1.015-.65-1.008-.632-.658-.405-.64-.388-.62-.368c-2.804-1.639-6.852-3.254-11.262-4.595l-1.159-.343c-5.244-1.516-10.882-2.623-15.489-2.916l-1.396-.084-.88-.044-.518-.02-.471-.011a23.024 23.024 0 0 0-.22-.003l-.411.002c-.066 0-.13.002-.193.004l-.366.016-.344.026c-.055.005-.11.01-.165.017l-.32.042a8.424 8.424 0 0 0-.158.025l-.313.06-.315.07-.323.083-.338.096-.548.17-.196.063c-2.76.882-5.484 2.56-7.3 4.483-1.276 1.36-1.678 2.26-1.695 3.707l.003.349.014.28c.033.418.124.608.361.863l.19.192c.214.207.351.284.736.282l.214-.007.418-.033.562-.055.543-.045.584-.037.616-.03.64-.023.986-.021.663-.006.659.002.96.014.61.018.575.024.534.03.483.038.22.02.393.047c.238.032.43.07.563.11l.37.112c.115.035.22.07.322.11l.136.058.132.068.086.052.085.058.084.065.083.074.125.128.085.098.13.17.134.197.14.23.099.171.155.29.165.33.24.506.196.435.364.838.507 1.211 1.289 3.187 4.38 10.994.816 2.097.358.951.312.87.163.489.14.468.065.255.054.271.022.144.013.128.01.123.006.203c0 1.373-.395 2.25-1.867 3.772l-.391.395-.214.209-.788.753-.463.456-.284.289-.258.27-.228.247-.191.219c-.173.202-.284.354-.311.432-.28.724.14 2.26.803 2.983l.181.195c.336.344.544.428 1.154.484l.342.027Zm16.19-10.237.158-.459c.016-.061.032-.155.047-.274l.03-.268.025-.318.02-.356.013-.377.005-.384-.01-.463-.012-.27-.02-.25a4.794 4.794 0 0 0-.03-.24l-.043-.24-.059-.249-.077-.27-.097-.298-.12-.339-.231-.603-.363-.917-.41-1.09-.41-1.119-.825-2.308-1.241-3.553-.668-1.956-.53-1.593-.244-.768-.112-.383-.074-.283-.112-.395-.09-.287-.034-.097-.015-.068c-.013-.1.042-.14.235-.107l.133.028.17.045.33.104.6.204.376.133c3.428 1.228 6.317 3.034 10.386 6.549l.69.601.495.44.451.412.21.197.389.374c1.72 1.698 2.148 2.699 2.074 4.252l-.023.342c-.28 2.961-1.839 4.555-6.027 5.765l-.601.166c-.103.028-.208.055-.314.082l-.654.16-.69.156-.36.078-2.34.494Z" fill="#FFF"/></g></svg>