<svg viewBox="0 0 90 90" xmlns="http://www.w3.org/2000/svg"><g fill="none"><path fill="#2A2C2E" d="M0 0h90v90H0z"/><path d="M57.09 15c.785 0 1.51.428 1.904 1.121L74.706 43.88a2.285 2.285 0 0 1 0 2.24L58.994 73.88A2.193 2.193 0 0 1 57.09 75H25.607l8.568-15.003h14.424a2.19 2.19 0 0 0 1.903-1.12l4.904-8.666 2.317-4.09a2.285 2.285 0 0 0 0-2.241l-2.317-4.091c-1.769-3.128-3.874-6.844-4.904-8.665a2.192 2.192 0 0 0-1.903-1.121H34.175l-8.568-15.001.03-.002H57.09Zm-33.78.306L39.426 43.86c.2.353.297.747.294 1.142.003.394-.095.788-.294 1.141L23.31 74.7a2.243 2.243 0 0 1-.747-.711l-7.27-12.843a2.278 2.278 0 0 1 0-2.238l7.224-12.764c.2-.35.297-.742.294-1.135v-.013a2.263 2.263 0 0 0-.294-1.135l-7.223-12.762a2.28 2.28 0 0 1 0-2.24l7.269-12.843c.224-.337.49-.561.747-.71Z" fill="#49BC74"/></g></svg>