<svg viewBox="0 0 90 90" xmlns="http://www.w3.org/2000/svg"><path d="M80.76 58.474h8.627c-.29-.241-1.16-.268-2.652-3.215-.543-1.13-5.241-13.84-6.19-16.06-.627-1.466-.549-2.907.024-3.689h-8.1c.336.429.873 1.648-.119 3.91-1.105 2.52-2.613 6.463-2.804 6.964a31.68 31.68 0 0 0-8.435 2.222l9.84-13.096H54.614v5.684a8.837 8.837 0 0 1 2.782-.987 19.517 19.517 0 0 1 3.468-.268c.26 0 .508.004.741.012l-10.041 13.45V40.173c0-1.532.285-3.5 1.271-4.663H45.33c.98 1.13.963 2.61 1.06 4.692.096 2.082.28 8.487.505 11.44a22.72 22.72 0 0 0-.894-1.68c-.505-.848-6.245-10.126-6.292-10.202-.814-1.16-1.695-2.957-1.17-4.25h-7.61c.906 1.264 1.13 3.085 1.13 4.663v12.306c-.79-2.155-3.9-10.608-5.059-13.28a4.314 4.314 0 0 1 0-3.689h-8.06c.69 1.075.334 2.72-.138 3.913-.836 2.113-2.038 5.112-2.475 6.2a52.286 52.286 0 0 0-10.041-.48v-5.136a30.37 30.37 0 0 1 2.061-.058c.822 0 1.707.022 2.628.065 1.742.051 3.459.422 5.066 1.094v-5.6H.181s1.131 1.214 1.131 4.611v13.743c0 3.398-1.13 4.612-1.13 4.612h7.237s-1.133-1.214-1.133-4.612v-3.897a48.79 48.79 0 0 1 3.361-.119c1.62-.005 3.238.09 4.846.286-.174.473-.938 2.374-1.912 4.74a6.844 6.844 0 0 1-2.793 3.6h8.53s-1.504-.976-.186-4.577c.669-1.824.974-2.691 1.055-2.902 2.507.486 6.752 2.492 8.52 4.51a7.333 7.333 0 0 1 1.728 2.97h8.85c-.24-.346-1.103-1.526-1.154-4.396l-.34-10.225c.695 1.3 5.962 10 6.057 10.143 1.02 1.547 1.671 3.429 1.04 4.476h11.183l.027-.054c1.15-2.346 6.546-5.74 12.5-6.916-.123.327-.484 1.231-1.405 3.238-1.084 2.362-1.525 2.979-2.753 3.731h8.35c-1.24-.91.487-6.105 1.259-7.714a32.74 32.74 0 0 1 2.628-.103c1.414.003 2.825.134 4.214.393.533 1.396.833 2.222 1.053 2.77.78 1.944 1.097 3.923-.184 4.658Zm-54.674-9.368a17.722 17.722 0 0 0-3.122-1.562 27.454 27.454 0 0 0-2.065-.79c1.114-2.991 1.507-4.033 1.98-5.677.676 1.842.399 1.137 3.207 8.03Zm48.628-2.973a46.157 46.157 0 0 0 1.715-5.049c.169.468 1.314 3.623 1.98 5.291a21.025 21.025 0 0 0-3.695-.242Z" fill="#EE2737" fill-rule="evenodd"/></svg>