<svg viewBox="0 0 90 90" xmlns="http://www.w3.org/2000/svg"><g fill="none" fill-rule="evenodd"><path fill="#FFF" d="M0 0h90v90H0z"/><path d="M73.607 36h-6.672l-2.483 8.936L61.7 36h-6.18l-1.866 9.757L51.922 36H45.25l-2.485 8.936L40.013 36h-6.18l-1.392 7.317C31.394 38.656 27.162 36 20.788 36H13v19h9.438c3.031 0 6.424-.96 8.449-3.52l-.67 3.52h6.599l1.36-7.974L40.488 55h5.16l1.969-7.931L48.816 55h9.686l1.36-7.974L62.172 55h5.162l1.967-7.931L70.499 55H77l-3.393-19ZM21.315 48.409v-5.922c1.427 0 3.597.065 3.597 2.948 0 2.948-2.087 2.974-3.597 2.974Z" fill="#000" fill-rule="nonzero"/></g></svg>