<svg viewBox="0 0 90 90" xmlns="http://www.w3.org/2000/svg"><g fill="none"><path fill="#000" d="M0 0h90v90H0z"/><path d="M41.345 47.37C51.429 52.832 54.454 61.025 54.538 73h14.075c-.336-17.437-16.344-26.89-21.008-29.412-10.546-6.134-13.361-13.697-13.361-25.042V18H20v.546C20 32.79 33.95 43.378 41.345 47.37Z" fill="#FFF"/><path d="M35.21 73c0-14.286 9.118-21.008 16.807-25.21A35.126 35.126 0 0 0 70 18.378V18H55.924v.546c0 12.605-7.647 18.025-16.806 23.278A37.353 37.353 0 0 0 21.176 73H35.21Z" fill="#28AAE1"/></g></svg>