<svg viewBox="0 0 90 90" xmlns="http://www.w3.org/2000/svg"><g fill="none"><path fill="#1774B9" d="M0 0h90v90H0z"/><path d="M25 52.859c0-6.685 1.764-12.05 5.307-16.093 3.544-4.043 8.107-6.065 13.69-6.065 1.828 0 3.511.228 5.064.669 1.554.44 2.784 1.01 3.69 1.679a24.359 24.359 0 0 1 2.41 2.005c.697.669 1.182 1.223 1.457 1.68l.34.668h.162c-.114-.831-.162-1.777-.162-2.837V15H65v59.005h-7.638v-4.01l.081-2.837h-.161c-.114.228-.26.505-.454.831-.194.343-.663.962-1.407 1.875a13.537 13.537 0 0 1-2.573 2.43c-.971.7-2.282 1.32-3.932 1.874-1.65.555-3.463.832-5.388.832-5.648 0-10.13-2.038-13.48-6.098C26.684 64.842 25 59.495 25 52.86Zm8.22 0c0 4.565 1.084 8.233 3.269 10.989 2.184 2.755 5.048 4.141 8.592 4.141 3.43 0 6.31-1.272 8.625-3.799 2.33-2.527 3.478-6.342 3.478-11.413 0-4.06-1.035-7.598-3.106-10.565-2.072-2.984-4.984-4.467-8.754-4.467-3.43 0-6.311 1.353-8.625 4.06-2.314 2.69-3.479 6.374-3.479 11.054Z" fill="#FFF"/></g></svg>