<svg xmlns="http://www.w3.org/2000/svg" viewBox="0 0 90 90"><path fill="#FFF" d="M0 0h90v90H0z"/><path d="M58.211 58.203v15.34c0 .806-.65 1.457-1.456 1.457h-40.3C15.65 75 15 74.35 15 73.543V33.254c0-.806.65-1.456 1.456-1.456h15.302v24.948c0 .806.65 1.457 1.456 1.457H58.21Z" fill="#4C00FF"/><path d="M75 36.57c0 12.893-7.527 21.602-16.789 21.633v-16.24c0-.465-.186-.93-.526-1.24l-8.426-8.43a1.736 1.736 0 0 0-1.239-.526H31.79v-15.31c0-.806.65-1.457 1.456-1.457H55.95C66.73 14.97 75 23.647 75 36.57Z" fill="#FF5252"/><path d="M57.685 40.692c.34.341.526.775.526 1.24v16.24H33.245a1.454 1.454 0 0 1-1.456-1.457V31.767H48.02c.465 0 .93.186 1.24.526l8.425 8.4Z"/></svg>