<svg xmlns="http://www.w3.org/2000/svg" viewBox="0 0 90 90"><path fill="#1E1E1E" d="M0 0h90v90H0z"/><path d="M43.017 29.226a3.198 3.198 0 0 0 4.05 2.024l15.049-5.015c1.678-.554 2.579-2.372 2.025-4.049-.554-1.677-2.38-2.578-4.05-2.024l-15.049 5.015a3.21 3.21 0 0 0-2.025 4.049Zm3.795 33.992c.38-.768.446-1.628.173-2.446a3.21 3.21 0 0 0-4.05-2.024l-15.048 5.015a3.198 3.198 0 0 0-2.025 4.05 3.203 3.203 0 0 0 3.033 2.189c.339 0 .678-.05 1.008-.165l15.049-5.016a3.198 3.198 0 0 0 1.851-1.603h.009ZM32.44 35.25c.454.23.941.338 1.42.338a3.2 3.2 0 0 0 2.868-1.768l7.09-14.187a3.18 3.18 0 0 0 .174-2.446 3.198 3.198 0 0 0-1.603-1.851 3.2 3.2 0 0 0-4.289 1.43l-7.09 14.187a3.2 3.2 0 0 0 1.43 4.288v.008Zm25.113 19.498a3.185 3.185 0 0 0-2.447-.173 3.196 3.196 0 0 0-1.85 1.603l-7.091 14.187a3.182 3.182 0 0 0-.174 2.446c.273.818.843 1.47 1.603 1.85.455.223.934.339 1.43.339a3.198 3.198 0 0 0 2.868-1.768l7.09-14.187a3.18 3.18 0 0 0 .174-2.446 3.198 3.198 0 0 0-1.603-1.85Zm-32.379-9.79a3.205 3.205 0 0 0 4.05 2.025 3.21 3.21 0 0 0 2.024-4.049l-5.016-15.046a3.203 3.203 0 0 0-4.05-2.025 3.21 3.21 0 0 0-2.024 4.05l5.016 15.045Zm39.644.082c-.554-1.677-2.372-2.577-4.05-2.024a3.198 3.198 0 0 0-2.024 4.05L63.76 62.11a3.203 3.203 0 0 0 3.033 2.19 3.209 3.209 0 0 0 3.033-4.214L64.81 45.041h.008ZM32.38 59.327c.34 0 .686-.058 1.017-.166a3.196 3.196 0 0 0 2.025-4.048 3.197 3.197 0 0 0-1.604-1.851l-14.19-7.09A3.2 3.2 0 0 0 16.77 51.9l14.189 7.089c.454.223.942.339 1.43.339h-.009ZM74.834 39.96a3.196 3.196 0 0 0-1.603-1.85l-14.19-7.09a3.2 3.2 0 0 0-4.462 3.875 3.19 3.19 0 0 0 1.603 1.85l14.189 7.09a3.2 3.2 0 0 0 4.463-3.875Z" fill="#FFF"/></svg>