<svg viewBox="0 0 90 90" xmlns="http://www.w3.org/2000/svg"><g fill="none"><path fill="#FFF" d="M0 0h90v90H0z"/><path d="M18.754 16h27.363C62.4 17.313 73.827 27.089 74.93 42.743 76.112 60.315 62.4 72.233 45.974 73h-26.24c-2.428-.424-4.244-1.535-4.734-3.878V19.717c.633-1.92 1.734-3.232 3.754-3.717Z" fill="#FFA41E"/><path d="M18.897 27.856c8.774 4.97 16.16 12.483 29.587 10.544l-1.183-8.06s14.263 9.656 20.67 13.776c-5.856 6.403-17.956 19.088-17.956 19.088s-.205-5.232-.49-7.999c-3.959-.626-7.448-1.232-10.651-2.747-8.693-4.14-19.977-16.26-19.977-24.602Z" fill="#FFF"/></g></svg>