<svg viewBox="0 0 90 90" xmlns="http://www.w3.org/2000/svg"><defs><linearGradient x1="42.665%" y1="386.742%" x2="79.958%" y2="350.279%" id="a"><stop stop-color="#A90034" offset="0%"/><stop stop-color="#B03" offset="27%"/><stop stop-color="#D30032" offset="72%"/><stop stop-color="#DC0032" offset="100%"/></linearGradient><linearGradient x1="0%" y1="0%" x2="100%" y2="100%" id="b"><stop stop-color="#DA0032" offset="0%"/><stop stop-color="#AC0034" offset="100%"/></linearGradient></defs><g fill="none"><path d="M53.657 40.167c-.364.212-.934.195-1.29-.024L50.279 38.9a1.375 1.375 0 0 1-.444-.477l-.02-.035a1.385 1.385 0 0 1-.218-.658l-.054-2.437c-.015-.411.256-.911.62-1.124l25.122-14.635L40.032.32c-.388-.217-.9-.32-1.413-.321-.512 0-1.025.106-1.414.32L1.952 19.535l39.492 22.99c.366.201.644.677.644 1.104v33.54c0 .421-.3.905-.67 1.102l-2.125 1.18c-.177.093-.4.143-.636.143h-.04a1.391 1.391 0 0 1-.678-.143l-2.133-1.181c-.362-.193-.658-.679-.658-1.101v-29.9c-.02-.219-.18-.486-.355-.586L0 26.428V66.1c0 .888.626 1.982 1.392 2.432l35.835 21.133c.383.224.888.336 1.392.335.504-.001 1.008-.107 1.391-.335l35.84-21.133c.763-.455 1.388-1.543 1.387-2.432V26.428l-23.58 13.739Z" transform="translate(6)" fill="url(#a)"/><path fill="url(#b)" d="M0 0h90v90H0z"/><path d="M54.151 42.546a.826.826 0 0 1-.784-.014l-1.272-.76a.839.839 0 0 1-.27-.291l-.013-.022a.849.849 0 0 1-.132-.402l-.033-1.49a.832.832 0 0 1 .378-.686l15.287-8.944L45.86 18.196c-.236-.132-.548-.195-.86-.196-.311 0-.624.065-.86.196L22.688 29.938l24.032 14.05a.822.822 0 0 1 .391.674v20.496a.834.834 0 0 1-.407.673l-1.293.721a.834.834 0 0 1-.387.088h-.025a.844.844 0 0 1-.413-.088l-1.297-.721a.831.831 0 0 1-.4-.673V46.887a.513.513 0 0 0-.217-.359L21.5 34.151v24.243c0 .543.38 1.212.847 1.486l21.806 12.915c.233.137.54.206.847.205.307 0 .614-.066.847-.205L67.656 59.88c.465-.277.845-.942.844-1.486V34.151l-14.349 8.395Z" fill="#FFF"/></g></svg>