<svg viewBox="0 0 90 90" xmlns="http://www.w3.org/2000/svg"><g fill="none"><path fill="#FFF" d="M0 0h90v90H0z"/><path d="M45.532 44.473s1.938-1.317 2.529-1.631c.533-.283 1.005-.582 1.407-.725 5.786-2.064 9.116-1.915 11.315-1.822 3.594-.08 6.25-.062 9.732-2.346 1.281-.84 2.236-2.069 2.874-3.388a13.203 13.203 0 0 0-2.617-15.13c-4.133-4.097-10.29-4.96-15.274-2.59-1.327.632-2.491 1.615-3.408 2.844-2.46 3.298-2.462 5.903-2.368 9.647-.092 2.008.26 5.493-1.826 11.226-.147.402-.443.858-.735 1.392-.316.58-1.63 2.523-1.63 2.523Zm-1.063 1.054s-1.939 1.317-2.53 1.631c-.533.283-1.005.582-1.407.726-5.786 2.063-9.116 1.914-11.314 1.82-3.595.08-6.25.063-9.733 2.347-1.28.84-2.236 2.069-2.873 3.388a13.202 13.202 0 0 0 2.616 15.13c4.133 4.097 10.29 4.96 15.274 2.59 1.327-.631 2.492-1.615 3.409-2.844 2.46-3.298 2.462-5.903 2.367-9.647.092-2.008-.26-5.493 1.827-11.226.146-.402.442-.858.734-1.392.317-.58 1.63-2.523 1.63-2.523Z" fill="#F2318A"/><path d="M49.652 70.69c5.799 5.747 15.2 5.747 20.999 0a14.627 14.627 0 0 0 0-20.816c-5.799-5.747-15.2-5.747-21 0a14.627 14.627 0 0 0 0 20.815ZM19.35 40.126c5.798 5.748 15.2 5.748 20.998 0a14.627 14.627 0 0 0 0-20.815c-5.798-5.748-15.2-5.748-20.999 0a14.627 14.627 0 0 0 0 20.815Z" fill="#19D3C8"/></g></svg>