<svg viewBox="0 0 90 90" xmlns="http://www.w3.org/2000/svg"><g fill="none" fill-rule="evenodd"><path fill="#0077C3" d="M0 0h90v90H0z"/><path d="M34.755 56.38c-1.18 1.08-2.612 1.858-4.254 2.315-1.669.463-3.545.699-5.58.699a30.6 30.6 0 0 1-2.27-.08 30.05 30.05 0 0 1-1.456-.135V30.76c.501-.07 1.071-.113 1.699-.127a101.5 101.5 0 0 1 2.186-.026c1.996 0 3.842.26 5.488.775 1.624.506 3.039 1.335 4.205 2.467 1.167 1.131 2.086 2.618 2.732 4.418.652 1.815.982 4.046.982 6.627 0 2.828-.33 5.211-.982 7.08-.646 1.847-1.57 3.33-2.75 4.407m5.185-26.188C36.58 26.747 31.455 25 24.71 25c-1.614 0-3.297.062-5.002.186a105.84 105.84 0 0 0-4.355.397l-.353.042V64.31l.34.052a59.67 59.67 0 0 0 4.209.452c1.634.124 3.299.186 4.95.186 6.74 0 11.896-1.655 15.324-4.918C43.258 56.813 45 51.757 45 45.053c0-6.418-1.703-11.418-5.06-14.86M63.908 25a29.087 29.087 0 0 1 6.219.658l.648.142c1.047.24 1.92.492 2.624.759l.205.08.56.226-.103.606a31.126 31.126 0 0 1-.842 3.62l-.182.592-.23.72-.705-.237a29.59 29.59 0 0 0-2.313-.657l-.692-.165c-.239-.055-.484-.11-.738-.166a21.936 21.936 0 0 0-4.663-.488c-2.748 0-4.649.478-5.702 1.375-1.044.889-1.555 2.033-1.555 3.493 0 .778.165 1.417.492 1.938.344.554.816 1.03 1.418 1.43.642.425 1.38.797 2.215 1.115.853.327 1.772.632 2.79.927 1.29.433 2.595.905 3.922 1.416a15.14 15.14 0 0 1 3.75 2.084c1.156.88 2.104 1.993 2.845 3.334.757 1.372 1.129 3.06 1.129 5.055 0 1.843-.37 3.533-1.111 5.056a11.082 11.082 0 0 1-3.1 3.864c-1.313 1.045-2.87 1.844-4.668 2.398-1.786.55-3.74.825-5.853.825-2.321 0-4.395-.147-6.221-.442-1.72-.278-3.139-.644-4.26-1.105l-.236-.1L49 63.11l.12-.6a22.16 22.16 0 0 1 1.196-3.982l.206-.496.285-.625.67.228c.926.382 2.122.72 3.585 1.009l.342.066a25.2 25.2 0 0 0 4.65.456c2.705 0 4.812-.594 6.339-1.76 1.484-1.134 2.201-2.49 2.201-4.116 0-1.168-.218-2.103-.642-2.817a6.056 6.056 0 0 0-1.781-1.893 10.822 10.822 0 0 0-2.642-1.315l-2.174-.753-1.025-.36a48.514 48.514 0 0 1-3.587-1.317 12.737 12.737 0 0 1-3.293-1.95 9.243 9.243 0 0 1-2.366-2.937c-.61-1.172-.909-2.614-.909-4.318 0-3.15 1.153-5.741 3.44-7.712C55.886 25.96 59.325 25 63.908 25Z" fill="#FFF" fill-rule="nonzero"/></g></svg>