<svg viewBox="0 0 90 90" xmlns="http://www.w3.org/2000/svg"><g transform="translate(0 17)" fill="#2E2EA3"><path d="M76.175 27.471c.09-.626.18-1.163.18-1.79 0-5.727-4.698-10.38-10.482-10.38-.813 0-1.536.09-2.349.269C59.82 6.443 50.784 0 40.211 0 26.295 0 15.09 11.185 15.09 24.876v.447c7.228 1.88 13.644 8.949 17.349 11.544 3.885 2.774 9.217 4.563 14.638 4.563 5.422 0 10.482-1.7 14.73-4.653 5.692-3.758 9.578-4.832 13.282-4.563 5.151.357 9.398 4.384 9.398 9.574 0 5.19-4.066 9.396-9.217 9.396-2.891.09-5.964-.985-8.313-3.043-.18-.179 0-.537.27-.358 3.164 1.88 7.32 2.774 10.302 1.253 2.26-.984 3.705-3.31 3.886-5.995.18-3.758-2.44-5.995-5.603-6.353-2.62-.358-4.156.984-4.97 1.61-.813.627-2.53 2.327-5.24 7.517C63.342 50.11 59.547 55.12 55.12 57h19.97C83.313 57 90 50.378 90 42.235c-.09-7.874-6.145-14.227-13.825-14.764ZM47.078 36.33a28.442 28.442 0 0 1-13.192-3.222 23.381 23.381 0 0 1 12.018-4.205c-.543-.806-.814-1.611-.723-2.864.09-1.7.813-4.116 1.988-5.369 1.084 1.253 1.807 3.67 1.988 5.37.09 1.252-.181 2.057-.723 2.863 4.427.268 8.584 1.7 12.018 4.205-4.157 2.058-8.585 3.222-13.374 3.222ZM30.723 49.036c-2.44-2.953-4.428-5.548-9.76-13.422-5.511-8.054-13.011-8.233-15.722-5.906-3.072 2.863-4.97 6.89-4.97 11.364 0 8.77 7.139 15.839 15.994 15.839h22.862c-3.254-1.432-5.964-5.011-8.404-7.875Z"/><ellipse transform="rotate(-4.065 8.225 7.607)" cx="8.225" cy="7.607" rx="4.156" ry="4.116"/><path d="M3.343 19.328c1.808 0 3.344-1.432 3.344-3.31a3.32 3.32 0 0 0-3.344-3.312C1.446 12.706 0 14.138 0 16.017c.09 1.88 1.536 3.311 3.343 3.311Zm2.802 2.416c0 1.253 1.084 2.327 2.349 2.327 1.265 0 2.35-1.074 2.35-2.327s-1.085-2.326-2.35-2.326c-1.265 0-2.35.984-2.35 2.326Z"/></g></svg>