<svg viewBox="0 0 90 90" xmlns="http://www.w3.org/2000/svg"><g fill="none" fill-rule="evenodd"><path fill="#FFF" d="M0 0h90v90H0z"/><path d="M45 9c16.845 0 30.5 13.655 30.5 30.5 0 8.098-4.82 22.32-22.078 33.485l-1.005.607-.98.585-.953.562-1.383.801-.889.506-.863.483-.838.46-1.208.648-.773.404-.747.381-.721.359-.696.336-.338.16-.657.302-.318.142-.619.268-.592.246a33.27 33.27 0 0 1-.286.114l-.554.212-.267.097-.515.178-.248.08-.476.144c-.309.088-.6.162-.875.22a.5.5 0 0 1-.554-.705l4.847-10.12a.552.552 0 0 0-.424-.786C25.784 67.489 14.5 54.812 14.5 39.5 14.5 22.655 28.155 9 45 9Z" fill="#000"/><path d="m49.623 35.15 3.946.025c.289 0 .524.239.524.533a.54.54 0 0 1-.128.349l-6.89 7.73a.54.54 0 0 0 .053.752.52.52 0 0 0 .343.13h2.846c.29 0 .538.234.538.558 0 .324-.104.411-.254.532L35.497 57.226c-.102.073-.444.14-.603-.059-.159-.2-.072-.42-.036-.496l4.353-8.901a.538.538 0 0 0-.241-.714.516.516 0 0 0-.23-.054h-3.735c-.207 0-.34-.115-.447-.28a.57.57 0 0 1-.027-.483l5.369-9.132a.54.54 0 0 0-.157-.738.517.517 0 0 0-.284-.085h-4.08a.378.378 0 0 1-.374-.38c0-.066.016-.13.048-.188l6.813-11.94c.265-.48.764-.776 1.304-.776h14.528c.289 0 .515.154.55.468.034.313-.035.513-.121.61L49.234 34.26a.54.54 0 0 0 .039.754.519.519 0 0 0 .35.137Z" fill="#FFF" fill-rule="nonzero"/></g></svg>