<svg viewBox="0 0 90 90" xmlns="http://www.w3.org/2000/svg"><defs><linearGradient x1="58.708%" y1="38.47%" x2="0%" y2="101.778%" id="a"><stop stop-color="#6D4AFC" offset="0%"/><stop stop-color="#F362C3" offset="100%"/></linearGradient><linearGradient x1="6.294%" y1="19.758%" x2="97.236%" y2="80.687%" id="b"><stop stop-color="#9F7DFE" offset="0%"/><stop stop-color="#D2AAFF" offset="45.433%"/><stop stop-color="#E3BAFF" offset="100%"/></linearGradient></defs><g fill="none" fill-rule="evenodd"><path fill="#FFF" fill-rule="nonzero" d="M0 0h90v90H0z"/><path d="m0 6 8-4 14 8h24v34l-2 2H6a6 6 0 0 1-6-6V6Z" fill="url(#a)" fill-rule="nonzero" transform="translate(17 22)"/><path d="M21.922 2.852A6 6 0 0 0 25.452 4H50a6 6 0 0 1 6 6v30a6 6 0 0 1-6 6h-6V17a5 5 0 0 0-5-5H18a6 6 0 0 1-3.6-1.2L9.6 7.2A6 6 0 0 0 6 6H0a6 6 0 0 1 6-6h10.048a6 6 0 0 1 3.53 1.148l2.344 1.704Z" fill="url(#b)" transform="translate(17 22)"/></g></svg>