<svg width="90" height="90" viewBox="0 0 90 90" xmlns="http://www.w3.org/2000/svg"><g fill="none" fill-rule="evenodd"><rect fill="#091F82" width="90" height="90"/><path d="M45,54 L62.5,65 L45,76 L27.5,65 L45,54 Z M27.5,39 L45,50 L27.5,61 L10,50 L27.5,39 Z M62.5,39 L80,50 L62.5,61 L45,50 L62.5,39 Z M27.5,17 L45,28 L27.5,39 L10,28 L27.5,17 Z M62.5,17 L80,28 L62.5,39 L45,28 L62.5,17 Z" fill="#D9F8FF"/><rect fill="#0061FE" width="90" height="90"/><path d="M45,51.7288136 L59.5,60.8644068 L45,70 L30.5,60.8644068 L45,51.7288136 Z M59.5,39.2711864 L74,48.4067797 L59.5,57.5423729 L45,48.4067797 L30.5,57.5423729 L16,48.4067797 L30.5,39.2711864 L45,48.4067797 L59.5,39.2711864 Z M59.5,21 L74,30.1355932 L59.5,39.2711864 L45,30.1355932 L30.5,39.2711864 L16,30.1355932 L30.5,21 L45,30.1355932 L59.5,21 Z" fill="#FFF"/></g></svg>