<svg xmlns="http://www.w3.org/2000/svg" viewBox="0 0 90 90"><path fill="#415CC7" d="M0 0h90v90H0z"/><path d="M43.06 18.05v51.32C40.55 71.09 37.185 72 33.02 72c-1.707 0-3.363-.253-5.07-.657-2.208-.556-4.166-1.365-5.872-2.528-2.21-1.467-3.815-3.337-4.97-5.663C15.753 60.422 15 57.236 15 53.444c0-2.73.452-5.157 1.456-7.483.853-2.225 2.108-4.096 3.814-5.764a18.305 18.305 0 0 1 5.723-3.691c2.158-.91 4.417-1.315 6.826-1.366 2.058 0 3.765.253 5.22.759V18.05h5.02ZM53.415 18v22.247c3.112-3.489 6.626-5.208 10.641-5.208 1.406 0 2.66.253 3.916.658 1.405.455 2.51 1.163 3.513 2.073C73.846 39.994 75 43.23 75 47.427V71.14h-4.97V47.174c-.1-5.005-2.158-7.483-6.224-7.483-1.405 0-2.71.202-4.015.809-1.205.455-2.259 1.112-3.263 2.022-.954.81-1.706 1.72-2.259 2.781-.502 1.012-.753 2.023-.753 2.984V71.09h-5.22V18h5.12ZM32.92 39.742a9.746 9.746 0 0 0-3.414.606 16.865 16.865 0 0 0-4.266 2.124c-1.556 1.112-2.71 2.528-3.614 4.197-.954 1.971-1.456 4.297-1.456 6.927 0 5.005 1.456 8.747 4.317 11.123 1.154.91 2.56 1.669 4.166 2.073 1.406.405 2.861.556 4.417.556 2.058 0 3.715-.252 4.92-.758V41.056c-1.205-.91-2.962-1.314-5.07-1.314Z" fill="#FFF"/></svg>