<svg viewBox="0 0 90 90" xmlns="http://www.w3.org/2000/svg"><g fill="none"><path fill="#FFF" d="M0 0h90v90H0z"/><path d="M27.757 40.919c-.25-3.739-1.298-6.487-3.143-8.248-1.846-1.759-4.636-2.65-8.372-2.671h-2.956v4.123s4.267-.029 5.364.264c.71.189 1.35.528 1.897 1.12a4.74 4.74 0 0 1 1.145 1.98c.216.749.347 1.507.393 2.277.045.352.068.709.068 1.072v2.03c0 .33-.011.66-.034.99a12.708 12.708 0 0 1-.427 2.342 5.23 5.23 0 0 1-1.145 2.078c-.547.594-1.179.963-1.897 1.105-.717.143-1.452.215-2.203.215h-.154c-.056 0-.099-.001-.153-.003l-5.98-.03-.013-12.326H5v16.447h11.378c1.413 0 2.762-.121 4.05-.363 1.286-.241 2.488-.803 3.604-1.682 1.367-1.077 2.324-2.392 2.87-3.942.547-1.55.843-3.138.889-4.767.022-.351.028-.692.017-1.023a31.423 31.423 0 0 0-.05-.988Zm7.375-10.887h-5.803l6.429 19.127 2.828-9.306zm9.298-.031-5.813 20.726c-.521 1.182-1.108 2.162-1.754 2.953l3.87.004c1.19.001 2.654-1.101 3.276-2.49l.157-.357 5.888-20.83-5.625-.006Zm9.099 0-5.814 20.726c-.52 1.182-1.108 2.162-1.753 2.953l3.87.004c1.19.001 2.654-1.101 3.275-2.49l.157-.357 5.887-20.83-5.622-.006Zm9.363 19.461v4.222l13.496-.033c.405 0 .792-.017 1.17-.04v-4.452a6.715 6.715 0 0 1-1.921.302H62.892v.001Zm-1.179-11.759c.012.21.028.423.051.643.068.726.24 1.43.513 2.111a4.575 4.575 0 0 0 1.23 1.749 4.84 4.84 0 0 0 2.05 1.138c.776.208 1.562.335 2.358.379.273.022.547.033.82.033.273 0 .535.01.786.034l6.833-.034c.867 0 1.623.197 2.273.593.648.397.974 1.056.974 1.98 0 .091-.018.166-.022.254h5.417c0-.02.003-.036.003-.056.022-2.617-.701-4.427-2.17-5.427-1.469-1-3.468-1.49-5.996-1.467l-6.083-.034c-.933-.022-1.743-.154-2.426-.396-.683-.242-1.08-.88-1.195-1.912-.01-.076 0-.136-.006-.209h-5.426c0 .212.006.419.016.621Zm22.295-3.48V30H70.272c-.38 0-.748.014-1.106.034v4.383a7.712 7.712 0 0 1 1.926-.194h12.916Z" fill="#164F76"/><path fill="#0F3855" d="M5 30.001h1v5.941H5zm2.074 0h1v5.941h-1zm2.073 0h1v5.941h-1zM5 56.353h.71c.396 0 .665.016.805.049a.885.885 0 0 1 .715.899.946.946 0 0 1-.138.51.852.852 0 0 1-.39.333c-.17.075-.405.114-.704.115L7.28 59.91h-.44l-1.284-1.65h-.201v1.651H5v-3.557Zm.357.348v1.209l.614.005c.237 0 .414-.023.528-.068a.546.546 0 0 0 .267-.216.602.602 0 0 0-.001-.658.54.54 0 0 0-.255-.21c-.106-.041-.28-.062-.525-.062h-.628Zm5.418-.348h2.043v.35h-1.686v1.114h1.671v.349h-1.671v1.398h1.671v.348h-2.028zm5.275 3.557.511-3.558h.058l1.449 2.92 1.435-2.92h.058l.512 3.558h-.35l-.352-2.544-1.26 2.544h-.091l-1.276-2.564-.35 2.564zm9.202-3.646c.54 0 .992.18 1.356.54.364.359.546.801.546 1.327 0 .521-.182.963-.544 1.325a1.809 1.809 0 0 1-1.328.544c-.528 0-.975-.18-1.339-.542a1.778 1.778 0 0 1-.546-1.311 1.884 1.884 0 0 1 .927-1.636 1.82 1.82 0 0 1 .928-.247Zm.016.345c-.264 0-.514.07-.75.206a1.473 1.473 0 0 0-.554.554 1.539 1.539 0 0 0-.199.777c0 .423.147.78.44 1.071.295.291.648.436 1.063.436.276 0 .532-.066.767-.2.236-.134.42-.317.552-.55.132-.232.198-.49.198-.774a1.475 1.475 0 0 0-.754-1.314 1.518 1.518 0 0 0-.763-.206Zm5.025.092v-.349h1.954v.35h-.795v3.208h-.364v-3.209zm5.249-.348h2.043v.35H35.9v1.114h1.672v.349H35.9v1.398h1.672v.348h-2.029v-3.559zm12.913.66-.281.215a1.536 1.536 0 0 0-.56-.458 1.633 1.633 0 0 0-.716-.156c-.284 0-.548.068-.79.205a1.474 1.474 0 0 0-.763 1.324c0 .433.148.795.446 1.086.299.29.674.435 1.128.435.5 0 .917-.195 1.254-.586l.28.213c-.177.226-.399.4-.664.524a2.093 2.093 0 0 1-.89.185c-.624 0-1.116-.207-1.477-.621-.302-.35-.453-.773-.453-1.268 0-.52.183-.959.55-1.314.366-.356.824-.533 1.375-.533.333 0 .633.065.902.197.268.132.487.315.659.552Zm5.192-.749c.54 0 .992.18 1.356.54.364.359.546.801.546 1.327 0 .521-.182.963-.544 1.325a1.809 1.809 0 0 1-1.327.544c-.529 0-.976-.18-1.34-.542a1.778 1.778 0 0 1-.546-1.311 1.884 1.884 0 0 1 .927-1.636 1.82 1.82 0 0 1 .928-.247Zm.016.345c-.264 0-.514.07-.75.206a1.48 1.48 0 0 0-.554.554 1.539 1.539 0 0 0-.198.777c0 .423.146.78.44 1.071.294.291.648.436 1.062.436.276 0 .532-.066.768-.2.235-.134.42-.317.551-.55.132-.232.198-.49.198-.774a1.475 1.475 0 0 0-.754-1.314 1.52 1.52 0 0 0-.763-.206Zm5.381 3.301v-3.558h.078l2.373 2.727v-2.727h.351v3.558h-.08l-2.352-2.693v2.693zm6.096-3.209v-.349h1.953v.35h-.795v3.208h-.364v-3.209zm5.266-.348h.71c.396 0 .665.016.805.049a.885.885 0 0 1 .715.899.946.946 0 0 1-.138.51.852.852 0 0 1-.391.333c-.17.075-.404.114-.703.115l1.281 1.651h-.44l-1.283-1.651h-.2v1.651h-.357v-3.557Zm.356.348v1.209l.614.005c.237 0 .414-.023.528-.068a.546.546 0 0 0 .267-.216.602.602 0 0 0-.001-.658.54.54 0 0 0-.256-.21c-.105-.041-.28-.062-.524-.062h-.628Zm7.114-.437c.54 0 .991.18 1.355.54.364.359.546.801.546 1.327 0 .521-.182.963-.544 1.325a1.809 1.809 0 0 1-1.327.544 1.83 1.83 0 0 1-1.34-.542 1.778 1.778 0 0 1-.545-1.311 1.884 1.884 0 0 1 .927-1.636c.285-.165.595-.247.928-.247Zm.015.345c-.263 0-.513.07-.75.206-.236.137-.42.321-.553.554a1.539 1.539 0 0 0-.2.777c0 .423.147.78.441 1.071.294.291.648.436 1.062.436.276 0 .533-.066.768-.2.236-.134.42-.317.551-.55.132-.232.198-.49.198-.774a1.475 1.475 0 0 0-.754-1.314 1.515 1.515 0 0 0-.763-.206Zm5.381-.256h.356v3.215H85v.343h-1.728z"/></g></svg>