<svg viewBox="0 0 90 90" xmlns="http://www.w3.org/2000/svg"><g fill="none"><path fill="#121642" d="M0 0h90v90H0z"/><path d="M74.235 24.147c-4.205-8.386-14.81-11.536-23.16-7.215L26.352 29.738l5.538 10.597-5.585 2.888c-8.27 4.28-11.781 14.656-7.425 22.863C21.89 71.752 27.739 75 33.772 75c2.61 0 5.259-.609 7.734-1.885l25.06-12.986-5.522-10.584 5.9-3.057c8.141-4.216 11.373-14.192 7.29-22.335v-.006Zm-35.606 43.44c-6.016 3.115-13.691-.11-15.258-7.243a9.321 9.321 0 0 1-.204-2.604c.25-3.886 2.405-7.14 5.707-8.84l5.9-3.056 2.44 4.675c2.58 4.936 8.695 6.861 13.656 4.298l4.636-2.401 2.65 5.074-19.521 10.104-.006-.006Zm8.776-27.374c1.905.36 3.436 1.885 3.803 3.775a4.813 4.813 0 0 1-1.325 4.349 4.858 4.858 0 0 1-4.365 1.324 4.824 4.824 0 0 1-3.802-3.788c-.647-3.393 2.288-6.304 5.69-5.666v.006Zm16.406.881-5.65 2.93-2.44-4.67c-2.585-4.941-8.7-6.867-13.656-4.297l-4.642 2.4-2.65-5.074L54.296 22.28c5.124-2.65 11.443-.708 14.18 4.326 2.813 5.18.577 11.774-4.67 14.494l.006-.006Z" fill="#FFF"/></g></svg>