<svg viewBox="0 0 90 90" xmlns="http://www.w3.org/2000/svg"><g fill="none"><path fill="#333" d="M0 0h90v90H0z"/><g fill="#FFF"><path d="M13.004 29.802v3.802h30.572l1.825-1.822c1.002-1 2.724-2.708 3.825-3.802L51.227 26H13.004v3.802Z"/><path d="M65.166 26.065c-.004.004-.202.016-.44.033-.456.028-.501.032-1.11.134a11.45 11.45 0 0 0-3.985 1.456c-.337.203-.987.646-1.188.813-.633.52-1.886 1.752-10.1 9.934l-2.704 2.692H13.004v3.802L13 48.73l3.275.004 17.891.008 14.62.008.194-.187 6.357-6.319 6.92-6.88c.813-.805 1.068-1.02 1.483-1.24.308-.163.817-.342 1.076-.379a5.02 5.02 0 0 0 .288-.044 2.6 2.6 0 0 1 .39-.025c2.108-.016 3.838 1.68 3.842 3.77a3.56 3.56 0 0 1-.217 1.289c-.124.35-.415.882-.604 1.102-.062.073-1.139 1.155-2.4 2.407l-4.389 4.371-8.325 8.28c-6.23 6.188-8.67 8.624-8.925 8.888l-.136.143H77v-7.591l-.394-.004c-.218 0-3.403 0-7.08-.004-3.682 0-6.69-.012-6.69-.029 0-.016.098-.122.218-.236.23-.22 10.683-10.625 10.93-10.881.267-.277.752-.895 1.089-1.39a11.383 11.383 0 0 0 1.8-4.657c.012-.101.032-.215.037-.252.074-.378.098-1.63.049-2.322a11.082 11.082 0 0 0-.575-2.773 13.804 13.804 0 0 0-.604-1.444c-.042-.077-.103-.187-.132-.243-.189-.375-.789-1.31-.953-1.493a8.064 8.064 0 0 1-.271-.337c-.206-.265-.346-.42-.74-.81a10.756 10.756 0 0 0-2.198-1.736c-.452-.276-1.57-.83-1.673-.83a.15.15 0 0 1-.094-.036c-.054-.045-.814-.3-1.233-.41a12.975 12.975 0 0 0-1.352-.27c-.115-.011-.255-.032-.312-.04-.239-.04-1.62-.101-1.656-.073Z"/><path d="M13.004 60.198V64h20.534l3.796-3.782c2.092-2.078 3.789-3.79 3.777-3.802-.009-.012-6.34-.02-14.062-.02H13.004v3.802Z"/></g></g></svg>