<svg viewBox="0 0 90 90" xmlns="http://www.w3.org/2000/svg"><g fill="none"><path fill="#172973" d="M0 0h90v90H0z"/><path d="M45.352 16.5C61.15 16.5 74 29.28 74 44.991 74 60.701 61.145 73.5 45.347 73.5a28.53 28.53 0 0 1-15.71-4.652A28.78 28.78 0 0 1 19.025 56.3a1.615 1.615 0 0 1-.062-.166c-3.105.26-5.375 1.177-6.491 1.724l-.182.09a8.3 8.3 0 0 0-.586.325L10 55.556c.371-.235 9.148-5.692 21.187-.413 7.34 2.652 14.195-.476 15.387-1.073l.097-.049a2.99 2.99 0 0 0 .085-.046l1.537 2.835a24.518 24.518 0 0 1-10.952 2.605 21.154 21.154 0 0 1-7.289-1.272l-.095-.04c-2.714-1.193-5.229-1.769-7.47-1.963a25.544 25.544 0 0 0 8.898 10.004 25.349 25.349 0 0 0 13.962 4.126c14.038 0 25.46-11.34 25.46-25.279 0-13.94-11.418-25.278-25.46-25.278a25.425 25.425 0 0 0-10.681 2.33 25.569 25.569 0 0 0-8.737 6.608 1.593 1.593 0 0 1-2.767-.938c-.038-.416.086-.83.347-1.154a28.758 28.758 0 0 1 9.827-7.435A28.599 28.599 0 0 1 45.352 16.5ZM31.187 43.997c8.04 2.909 15.496-1.124 15.57-1.163l1.536 2.813a24.521 24.521 0 0 1-10.952 2.64 21.147 21.147 0 0 1-7.289-1.268l-.095-.04c-3.814-1.679-7.234-2.136-10.054-2.03a.51.51 0 0 1 .004.077c0 1.495.133 2.987.397 4.459a1.62 1.62 0 0 1-.348 1.316 1.601 1.601 0 0 1-1.227.576l-.013-.017c-.37 0-.73-.13-1.017-.368a1.613 1.613 0 0 1-.553-.934 28.82 28.82 0 0 1-.43-4.734c-3.03.608-4.86 1.726-5.012 1.82L10 44.432c.371-.234 9.148-5.69 21.187-.434Zm0-11.147c7.996 2.891 15.5-1.124 15.574-1.168l1.532 2.818a24.476 24.476 0 0 1-10.952 2.64 21.14 21.14 0 0 1-7.289-1.268l-.095-.04c-2.712-1.194-5.226-1.77-7.466-1.966l.226-.446a24.921 24.921 0 0 0-2.089 5.527 1.607 1.607 0 0 1-.566.876 1.591 1.591 0 0 1-2.353-.439 1.609 1.609 0 0 1-.179-1.214c.366-1.476.85-2.918 1.446-4.313-4.366.364-7.084 2.025-7.272 2.14L10 33.285c.371-.234 9.148-5.691 21.187-.434Z" fill="#FFF"/></g></svg>