<svg viewBox="0 0 90 90" xmlns="http://www.w3.org/2000/svg"><path d="m89 52.005-.146 6.783V87H73.187s.03-23.959.015-23.959c-.41-9.954-5.081-11.24-16.543-12.936l-3.066-.322v37.202H38.072V47.65l-.905-.103c-8.849-.979-13.346-1.242-17.01 2.032-2.424 2.164-3.505 6.14-3.505 11.987 0 8.2.905 12.279 10.586 14.618V86.37c-10.425-1.71-17.2-5.949-21.2-13.375C1.597 64.503 1 52.59 1 41.816 1 24.845 3.614 15.285 9.746 9.847c2.41-2.134 5.417-3.654 9.228-4.62a20.528 20.528 0 0 1 5.504-.613h.03c8.98.234 15.973 8.244 15.608 17.892a18.372 18.372 0 0 1-4.935 11.943c4.789-2.85 8.133-8.26 8.366-14.545C43.81 12.888 40.116 6.777 34.641 4c0 0 4.22.263 5.957.41 1.737.145 4.322.423 4.322.423C77.99 8.648 89 16.001 89 52.005Zm-71.413-13.55c0-1.17-.95-2.12-2.117-2.12a2.12 2.12 0 0 0 0 4.239c1.168-.015 2.117-.95 2.117-2.12Z" fill="#EB6124"/></svg>