<svg xmlns="http://www.w3.org/2000/svg" viewBox="0 0 90 90"><path fill="#0073C7" d="M0 0h90v90H0z"/><path fill="#FFF" d="M16.4 38.44c-.8 0-1.43.25-1.88.76-.45.5-.73 1.13-.84 1.87h5.44c-.1-.74-.4-1.37-.88-1.87s-1.1-.76-1.84-.76zm9.44-.87a10.27 10.27 0 00-3.76-4.02A10.2 10.2 0 0016.56 32c-2.88 0-5.36 1.02-7.44 3.06A10.03 10.03 0 006 42.5c0 2.92 1.04 5.4 3.12 7.44A10.25 10.25 0 0016.56 53a10.4 10.4 0 009.28-5.49 11.57 11.57 0 01-1.2-5.01c0-.9.1-1.76.32-2.59.2-.8.5-1.6.88-2.34zm-8.88 8.2c.85 0 1.6-.23 2.24-.68.64-.46 1.17-.68 1.6-.68.37 0 .7.14 1 .44.3.29.44.62.44 1 0 .73-.61 1.4-1.84 1.98a8.67 8.67 0 01-3.76.87A6.08 6.08 0 0112 46.84a6.53 6.53 0 01-1.76-4.66c0-1.7.57-3.2 1.72-4.53a5.6 5.6 0 014.44-2c1.81 0 3.28.69 4.4 2.04a6.42 6.42 0 011.68 4.1c0 .52-.12.9-.36 1.15-.24.24-.63.36-1.16.36h-7.2c.1.84.47 1.47 1.08 1.86.61.4 1.32.6 2.12.6zm26.56-3.27a10.05 10.05 0 011.52-5.4 10.24 10.24 0 00-3.76-3.7c-1.6-.94-3.36-1.4-5.28-1.4-2.93 0-5.43 1.02-7.48 3.06a10.1 10.1 0 00-3.08 7.44c0 2.92 1.03 5.4 3.08 7.44A10.21 10.21 0 0036 53c1.92 0 3.68-.46 5.28-1.4 1.6-.92 2.85-2.15 3.76-3.7a10.05 10.05 0 01-1.52-5.4zm-2 3.9c0 .42-.07.89-.2 1.39-.13.5-.6.76-1.4.76-.48 0-.84-.12-1.08-.36-.24-.24-.41-.6-.52-1.08-.48.53-.99.93-1.52 1.2a3.9 3.9 0 01-1.76.4 5.1 5.1 0 01-4-1.84 6.87 6.87 0 01-1.6-4.69c0-1.85.55-3.4 1.64-4.65a5.08 5.08 0 015.8-1.51c.58.23 1.08.63 1.44 1.15.05-.37.23-.69.52-.95.3-.27.65-.4 1.08-.4.8 0 1.27.25 1.4.75.13.5.2.97.2 1.4v8.43zm-6-7.64c-.9 0-1.59.37-2.04 1.12a4.36 4.36 0 000 4.65 2.26 2.26 0 002.04 1.07c.9 0 1.57-.36 2-1.07a4.5 4.5 0 000-4.66 2.14 2.14 0 00-2-1.1zm28.24-2.07a10.68 10.68 0 00-3.72-3.42A10.25 10.25 0 0054.96 32c-2.93 0-5.43 1.02-7.48 3.06a10.1 10.1 0 00-3.08 7.44c0 2.92 1.03 5.4 3.08 7.44A10.21 10.21 0 0054.96 53c1.87 0 3.56-.42 5.08-1.27 1.5-.83 2.77-2 3.72-3.42a12.3 12.3 0 01-1.28-2.75 9.81 9.81 0 010-6.12c.31-.97.74-1.89 1.28-2.75zm-9.2 12.01c-.96 0-1.99-.23-3.08-.71-1.1-.48-1.64-1.12-1.64-1.91 0-.27.12-.58.36-.95.24-.38.6-.56 1.08-.56.7 0 1.25.2 1.68.6.43.4 1.04.6 1.84.6.53 0 .9-.09 1.08-.25.19-.16.28-.4.28-.71 0-.8-.99-1.38-2.96-1.75-1.97-.37-2.96-1.54-2.96-3.5 0-1.17.44-2.11 1.32-2.83a5.09 5.09 0 013.32-1.07c.85 0 1.77.2 2.76.6.99.4 1.48 1.02 1.48 1.87 0 .37-.13.7-.4.99-.27.3-.59.44-.96.44a3.2 3.2 0 01-1.36-.48 3.66 3.66 0 00-1.76-.48c-.27 0-.52.08-.76.24a.8.8 0 00-.36.72c0 .8.99 1.38 2.96 1.75 1.97.37 2.96 1.5 2.96 3.42 0 1.11-.44 2.05-1.32 2.82a5.22 5.22 0 01-3.56 1.15zM84 42.5c0-2.92-1.03-5.4-3.08-7.44A10.21 10.21 0 0073.44 32c-2.93 0-5.43 1.02-7.48 3.06a10.1 10.1 0 00-3.08 7.44c0 2.92 1.03 5.4 3.08 7.44A10.21 10.21 0 0073.44 53c2.93 0 5.43-1.02 7.48-3.06A10.1 10.1 0 0084 42.5zm-5.84-4.77L73.6 49.1a2 2 0 01-.48.8c-.21.21-.5.32-.88.32a1.5 1.5 0 01-1.04-.36c-.27-.24-.4-.52-.4-.84 0-.1.03-.24.08-.4.04-.13.1-.26.16-.4l1.2-2.94-3.04-7.55c-.05-.1-.1-.21-.12-.32a1.67 1.67 0 01-.04-.4c0-.37.15-.66.44-.87.3-.22.57-.32.84-.32.37 0 .67.08.88.24.21.16.4.4.56.71l1.84 5.17 2.08-5.17a1.33 1.33 0 011.36-.95c.27 0 .55.1.84.32.3.2.44.5.44.87 0 .16-.01.3-.04.4-.03.1-.07.22-.12.32z"/></svg>