<svg xmlns="http://www.w3.org/2000/svg" viewBox="0 0 90 90"><path fill="#FFF" d="M0 0h90v90H0z"/><path d="M16.21 36.985c-5.48 0-10.028 2.328-10.028 9.358 0 5.57 3.07 9.085 10.188 9.085 8.368 0 8.914-5.524 8.914-5.524h-4.048s-.864 2.99-5.094 2.99c-3.434 0-5.912-2.328-5.912-5.615h15.509v-2.054c-.046-3.241-2.115-8.24-9.529-8.24Zm-.136 2.625c3.275 0 5.503 2.008 5.503 5.044H10.275c0-3.218 2.911-5.044 5.8-5.044Z" fill="#E53238"/><path d="M25.67 30.183v21.73c0 1.233-.09 2.967-.09 2.967h3.865s.137-1.255.137-2.373c0 0 1.91 3.013 7.118 3.013 5.48 0 9.187-3.812 9.187-9.268 0-5.09-3.411-9.176-9.187-9.176-5.39 0-7.073 2.922-7.073 2.922v-9.793h-3.956v-.022Zm10.052 9.54c3.707 0 6.072 2.763 6.072 6.484 0 3.994-2.73 6.596-6.05 6.596-3.956 0-6.094-3.104-6.094-6.55-.023-3.22 1.91-6.53 6.072-6.53Z" fill="#0064D2"/><path d="M55.506 36.985c-8.232 0-8.755 4.52-8.755 5.25h4.093s.205-2.648 4.39-2.648c2.705 0 4.797 1.255 4.797 3.63v.844h-4.798c-6.39 0-9.755 1.872-9.755 5.684 0 3.743 3.115 5.775 7.322 5.775 5.73 0 7.595-3.173 7.595-3.173 0 1.255.091 2.51.091 2.51h3.639s-.137-1.552-.137-2.533v-8.56c0-5.592-4.502-6.78-8.482-6.78Zm4.525 9.655v1.142c0 1.483-.91 5.158-6.276 5.158-2.933 0-4.184-1.46-4.184-3.173 0-3.104 4.23-3.127 10.46-3.127Z" fill="#F5AF02"/><path fill="#86B817" d="M61.783 37.692h4.616L73.016 51l6.595-13.308h4.184l-12.03 23.694h-4.388l3.479-6.597z"/></svg>