<svg viewBox="0 0 90 90" xmlns="http://www.w3.org/2000/svg"><g fill="none"><path fill="#153270" d="M0 0h90v90H0z"/><path d="M70 46.02c0 2.664-.914 3.794-2.392 3.794l-39.416.201v3.732c0 4.163 2.004 3.23 6.012 4.424.876.245 2.141.444 3.795.597 1.678.122 7.823.184 10.403.184 1.954 0 3.018 1.4 3.018 4.399 0 2.418-1.239 3.527-3.192 3.527-2.656 0-8.676.17-10.38.109-1.678-.03-2.955-.107-3.832-.23-4.359-.55-7.566-1.806-9.62-3.765-2.93-2.785-4.396-6.06-4.396-9.826V36.958c0-5.081 2.255-8.846 6.764-11.295C29.844 23.888 33.928 23 39.014 23h14.804c4.159 0 8.04.942 10.77 2.626C68.37 27.768 70 30.897 70 35.213V46.02Zm-7.915-4.608v-5.418c0-3.306-5.024-4.758-15.771-4.758-6.338 0-11.033.075-13.388.626-3.332.765-4.998 2.265-4.998 4.5v5.05h34.157Z" fill="#FFF"/><path d="M57.59 58.998h3.436a2 2 0 0 1 2 2v3.756a2 2 0 0 1-2 2H57.59a2 2 0 0 1-2-2v-3.756a2 2 0 0 1 2-2Z" fill="#49CFDA"/></g></svg>