<svg viewBox="0 0 90 90" xmlns="http://www.w3.org/2000/svg"><g fill="none"><path d="M15.51 34C6.936 34 0 38.063 0 43.107c0 2.136 1.255 4.097 3.38 5.674-1.045-1.296-1.637-2.732-1.637-4.273 0-5.22 6.796-9.457 15.161-9.457 5.403 0 10.143 1.75 12.827 4.413C27.326 36.242 21.854 34 15.51 34" fill="#79CB3E"/><path d="M8.608 42c.446-.371 1-.557 1.662-.557.646 0 1.196.189 1.65.567.453.377.703.86.75 1.447H7.753a2.483 2.483 0 0 1 .854-1.458Zm5.538 3.68c.63 0 1.139-.132 1.523-.398.446-.294.67-.72.67-1.28 0-1.034-.34-1.992-1.016-2.873a6.322 6.322 0 0 0-2.607-1.993c-.739-.308-1.562-.462-2.47-.462-1.83 0-3.334.595-4.51 1.783-1.177 1.19-1.766 2.622-1.766 4.3 0 1.693.615 3.116 1.846 4.27 1.23 1.153 2.77 1.73 4.615 1.73.984 0 1.93-.14 2.838-.42 1.077-.32 1.862-.79 2.354-1.405.277-.336.415-.671.415-1.007 0-.88-.492-1.321-1.476-1.321-.216 0-.77.185-1.662.555-.892.371-1.654.556-2.284.556-.754 0-1.393-.174-1.915-.524-.524-.35-.824-.853-.9-1.51h6.345m4.269 3.314c1.138 1.161 2.646 1.741 4.523 1.741 1.122 0 2.06-.168 2.815-.503 1.046-.476 1.569-1.056 1.569-1.741 0-.406-.135-.752-.404-1.039-.27-.286-.62-.43-1.05-.43-.292 0-.662.084-1.108.252a4.1 4.1 0 0 1-1.453.252c-.893 0-1.585-.28-2.077-.84-.43-.503-.646-1.174-.646-2.013 0-.797.208-1.462.623-1.993.461-.588 1.115-.881 1.961-.881.523 0 1.02.087 1.489.262.469.175.85.262 1.142.262.446 0 .815-.14 1.107-.42.292-.279.439-.621.439-1.027 0-.783-.508-1.37-1.523-1.762-.754-.28-1.638-.42-2.654-.42-1.938 0-3.492.563-4.66 1.689-1.17 1.126-1.755 2.577-1.755 4.353 0 1.72.554 3.14 1.662 4.258m13.452-6.23c.446-.601 1.077-.902 1.893-.902.8 0 1.422.308 1.869.923.4.531.6 1.174.6 1.93 0 .783-.193 1.433-.577 1.95-.446.616-1.077.924-1.892.924-.8 0-1.424-.308-1.87-.923-.4-.532-.6-1.182-.6-1.951 0-.77.193-1.42.577-1.951Zm-2.7 6.251c1.2 1.189 2.731 1.783 4.593 1.783 1.876 0 3.407-.587 4.591-1.762 1.139-1.147 1.708-2.58 1.708-4.3 0-1.734-.577-3.182-1.73-4.343-1.154-1.16-2.677-1.74-4.57-1.74-1.86 0-3.38.583-4.557 1.75-1.177 1.169-1.765 2.612-1.765 4.333 0 1.706.577 3.132 1.73 4.279" fill="#1F3963"/><path d="M45.297 48.166v-2.611h2.584c1.816 0 3.246-.455 4.293-1.364 1.045-.909 1.569-2.188 1.569-3.839 0-1.664-.577-2.958-1.73-3.88-1.093-.882-2.57-1.322-4.431-1.322H44.12c-1 0-1.692.182-2.077.545-.384.363-.576.998-.576 1.906V48.16c0 1.648.638 2.472 1.915 2.472 1.277 0 1.915-.821 1.915-2.465Zm0-9.806h1.662c1.753 0 2.63.664 2.63 1.992 0 1.357-.877 2.035-2.63 2.035h-1.662V38.36m19.226 12.271c1.23 0 1.846-.826 1.846-2.48v-6.83c0-1.638-.615-2.458-1.846-2.458-.754 0-1.346.357-1.777 1.07-.754-.811-1.753-1.217-3-1.217-1.707 0-3.115.63-4.222 1.888-1.047 1.175-1.57 2.553-1.57 4.133 0 1.566.5 2.93 1.5 4.09 1.093 1.259 2.477 1.888 4.154 1.888 1.323 0 2.37-.426 3.138-1.28.37.798.962 1.196 1.777 1.196Zm-6.118-7.803c.444-.574 1.049-.86 1.815-.86.78 0 1.385.286 1.814.86.367.503.55 1.126.55 1.867 0 .741-.183 1.37-.55 1.888-.43.587-1.034.88-1.814.88-.781 0-1.394-.293-1.838-.88-.382-.518-.574-1.147-.574-1.888 0-.727.2-1.35.597-1.867m16.617-2.622-2.284 5.412-2.123-5.119c-.23-.573-.439-.958-.623-1.154-.308-.321-.73-.482-1.27-.482-.522 0-.957.16-1.303.482-.346.322-.52.72-.52 1.196 0 .335.07.65.208.943l3.76 7.99-1.536 3.04c-.206.43-.308.813-.308 1.147 0 .5.169.897.507 1.19.339.291.785.437 1.339.437.661 0 1.207-.454 1.638-1.363l5.7-12.272c.2-.433.3-.825.3-1.175 0-1.076-.616-1.615-1.846-1.615-.708 0-1.254.448-1.639 1.343m12.652 7.111H83.99l4.953-5.787c.505-.588.757-1.085.757-1.491 0-.448-.193-.732-.577-.85-.385-.12-.977-.18-1.777-.18H81.37c-1.585 0-2.377.511-2.377 1.532 0 1.035.785 1.552 2.354 1.552h3.207l-5.122 6.021c-.37.434-.554.867-.554 1.3 0 .7.653 1.05 1.961 1.05h6.807c1.57 0 2.354-.518 2.354-1.553 0-1.063-.775-1.594-2.326-1.594" fill="#79CB3E"/></g></svg>