<svg viewBox="0 0 90 90" xmlns="http://www.w3.org/2000/svg"><g fill="none"><path fill="#D32828" d="M0 0h90v90H0z"/><path d="M42 68.572c10.125 1.44 20.52-4.073 24.097-12.78.63-1.508.676-2.363.18-2.835-.63-.653-1.26-.405-2.565.967-2.475 2.655-5.445 4.478-8.91 5.468-1.462.427-2.317.517-4.815.495-2.677 0-3.24-.068-4.86-.608-3.397-1.125-6.165-3.442-7.627-6.345-1.35-2.7-1.463-2.542 2.565-3.307 4.297-.81 12.105-2.79 15.547-3.96 5.13-1.755 6.953-2.948 7.718-5.108.495-1.462.495-2.88-.068-4.68-.81-2.632-2.857-4.86-5.805-6.345l-1.17-.585 1.058-1.98c1.057-1.957 1.057-1.98.675-2.565-.54-.832-1.035-.787-5.243.428-1.98.562-4.792 1.372-6.255 1.8-1.485.405-2.745.697-2.812.63-.068-.068-.18-1.148-.248-2.408-.067-1.26-.202-2.43-.292-2.587-.428-.653-1.238-.203-4.208 2.407-3.24 2.835-6.097 5.715-7.537 7.56-.473.608-.945 1.215-1.035 1.328-.09.09-1.148-.428-2.363-1.193-2.317-1.44-2.767-1.597-3.33-1.012l-.033.033a1.74 1.74 0 0 0-.033.034l-.062.07c-.48.583-.56 1.639-.568 6.997L24 39.547c.016 4.162.055 5.949.232 7.605l.037.33c.065.55.147 1.102.248 1.74.788 4.68 1.71 7.155 3.803 10.305 3.33 5.017 8.258 8.257 13.68 9.045Zm-6.188-21.6c-.855 0-1.012-.563-.832-3.015.225-3.308 1.71-6.233 3.938-7.853 1.057-.765 3.172-1.642 4.432-1.822 3.6-.518 7.56 1.507 9.315 4.792 1.057 1.98 1.012 2.115-1.148 3.15-1.456.686-4.145 1.64-6.909 2.515l-.755.236c-3.523 1.09-6.999 1.997-8.04 1.997Z" fill="#FFF"/></g></svg>