<svg viewBox="0 0 90 90" xmlns="http://www.w3.org/2000/svg"><defs><linearGradient x1="0%" y1="100%" x2="100%" y2="0%" id="a"><stop stop-color="#6347B7" offset="0%"/><stop stop-color="#B347A4" offset="100%"/></linearGradient></defs><g fill="none" fill-rule="evenodd"><path fill="url(#a)" d="M0 0h90v90H0z"/><path d="M27.147 36.42c2.221 0 4.202.357 6.063 1.072 1.861.775 3.422 1.847 4.742 3.218 1.32 1.37 2.341 3.098 3.122 5.065.72 1.966 1.08 4.23 1.08 6.792v1.192c0 .417 0 .775-.06 1.132h-21.67c.06.834.36 1.609.78 2.264a6.33 6.33 0 0 0 1.621 1.728c.66.537 1.381.894 2.221 1.192.78.298 1.621.417 2.522.417 1.56 0 2.88-.298 3.961-.894a7.355 7.355 0 0 0 2.642-2.204l6.843 4.29c-1.381 2.026-3.242 3.575-5.523 4.648C33.151 67.464 30.51 68 27.447 68c-2.22 0-4.382-.358-6.362-1.073a14.319 14.319 0 0 1-5.223-3.038 13.373 13.373 0 0 1-3.541-4.886C11.42 57.036 11 54.832 11 52.329c0-2.443.42-4.648 1.26-6.614.841-1.966 1.981-3.635 3.422-5.005a16.343 16.343 0 0 1 5.102-3.158c1.981-.775 4.082-1.132 6.363-1.132ZM78 22v45.047h-9.064v-3.873h-.12c-.96 1.49-2.341 2.68-4.082 3.456a13.473 13.473 0 0 1-5.703 1.25c-2.22 0-4.262-.416-6.002-1.31-1.741-.894-3.242-2.026-4.442-3.516-1.261-1.43-2.161-3.098-2.822-5.005-.66-1.907-.96-3.873-.96-5.958 0-2.086.36-4.052 1.02-5.959.66-1.847 1.561-3.515 2.822-4.945 1.2-1.43 2.7-2.563 4.442-3.397 1.74-.834 3.661-1.251 5.822-1.251 2.221 0 4.082.417 5.583 1.251 1.5.834 2.701 1.728 3.541 2.741h.12V22H78ZM61.372 44.523c-1.14 0-2.16.239-3.061.656-.9.417-1.62 1.013-2.221 1.668-.6.715-1.02 1.55-1.32 2.443-.3.894-.48 1.847-.48 2.8 0 .954.18 1.907.48 2.801.3.954.72 1.788 1.32 2.503.6.715 1.32 1.31 2.221 1.728.9.417 1.92.655 3.061.655 1.14 0 2.101-.238 3.002-.655.9-.417 1.62-1.013 2.28-1.728a9.053 9.053 0 0 0 1.441-2.443c.3-.894.48-1.847.48-2.8a8.86 8.86 0 0 0-.48-2.801 9.064 9.064 0 0 0-1.44-2.443c-.66-.715-1.38-1.311-2.281-1.728a6.936 6.936 0 0 0-3.002-.656Zm-34.165-1.37c-.96 0-1.86.119-2.64.417a6.768 6.768 0 0 0-2.102 1.251 6.76 6.76 0 0 0-1.44 1.788 5.76 5.76 0 0 0-.6 2.204H33.09c0-1.549-.48-2.86-1.44-3.992-1.021-1.132-2.462-1.668-4.443-1.668Z" fill="#FFF" fill-rule="nonzero"/></g></svg>