<svg xmlns="http://www.w3.org/2000/svg" viewBox="0 0 90 90"><path fill="#4951F5" d="M0 0h90v90H0z"/><path d="m20.276 73.387-6.802-6.28c-.654-.392-.654-1.177-.131-1.7l15.044-16.352a1.308 1.308 0 0 0 0-1.57L14.39 30.741a1.177 1.177 0 0 1 .13-1.57l7.195-6.017a1.177 1.177 0 0 1 1.57.13l20.668 24.463c.262.523.262 1.308 0 1.7l-21.976 23.81c-.524.392-1.308.523-1.7 0v.13Zm56.773-.393c0 .654-.523 1.178-1.308 1.178H44.084a1.177 1.177 0 0 1-1.177-1.309V64.23c0-.654.654-1.178 1.308-1.178h31.657c.654 0 1.177.524 1.177 1.308v8.634Z" fill="#FFF"/></svg>