<svg viewBox="0 0 90 90" xmlns="http://www.w3.org/2000/svg"><g fill="none"><path d="M14.998 84c-2.004 0-3.444-1.26-3.82-3.4C8.926 68.136 1.225 25.39.16 19.031c-1.127-6.484 4.07-6.484 4.07-6.484h6.135c3.506 0 4.946-3.147 5.697-4.784C16.876 6.063 18.566 6 18.566 6H32.59c1.69 0 2.38 1.007 4.07 3.777 1.69 2.707 4.006 2.77 4.006 2.77H85.18c2.004 0 4.821.252 4.821 3.903v61.506C90 79.341 89.812 84 83.426 84c-7.012-.063-55.218 0-68.428 0Z" fill="#125687"/><path d="M85.492 77.201c.25 1.322-.626 2.33-1.94 2.33H18.504c-1.315 0-2.567-1.071-2.818-2.33L5.043 19.724c-.25-1.26.626-2.33 1.941-2.33h65.048c1.315 0 2.567 1.07 2.817 2.33l10.643 57.477Z" fill="#FFF"/><path d="M16.813 43.584c0-16.117 11.082-17.942 21.662-17.942h11.958c13.335 0 22.914 3.4 22.914 19.264v4.973H24.263v2.77c0 10.073 4.821 12.717 17.843 12.717h10.205c9.328 0 13.147-1.197 13.586-7.996h7.45v.882c0 10.198-8.39 13.22-22.226 13.22H37.6c-9.704 0-20.786-1.826-20.786-18.194v-9.694ZM65.96 40.75c0-4.533-3.38-9.066-15.526-9.066H39.539c-11.77 0-14.524 1.889-15.213 12.024h41.633V40.75Z" fill="#125687"/></g></svg>