<svg viewBox="0 0 90 90" xmlns="http://www.w3.org/2000/svg"><defs><linearGradient x1="22.494%" y1="89.568%" x2="80.745%" y2="11.919%" id="a"><stop stop-color="#E56125" offset="0%"/><stop stop-color="#F79420" offset="100%"/></linearGradient></defs><g fill="none"><path fill="#FFF" d="M0 0h90v90H0z"/><g transform="translate(21 9)"><ellipse fill="#F37A20" transform="rotate(-27.808 32.967 8.63)" cx="32.967" cy="8.631" rx="1.904" ry="1.909"/><ellipse fill="#F37A20" transform="rotate(-27.808 37.361 1.871)" cx="37.361" cy="1.871" rx="1.379" ry="1.383"/><ellipse fill="#F6921E" transform="rotate(-27.808 27.847 4.472)" cx="27.847" cy="4.472" rx="1.379" ry="1.383"/><ellipse fill="#F37A20" transform="rotate(-27.808 25.227 15.437)" cx="25.227" cy="15.437" rx="2.462" ry="2.469"/><path d="M43.892 34.39c-.164-.232-.295-.43-.46-.66-.065-.066-.098-.165-.163-.264-.263-.395-.886-1.318-1.443-1.977-.263-.362-.525-1.45-.427-2.109.263-1.516-.721-2.999-2.131-3.295-1.41-.33-2.854.955-4.133.461-1.279-.527-1.148-1.878-1.213-2.406-.295-2.175-2.394-3.624-4.526-3.262-2.165.297-3.017 2.57-3.149 2.768-.164.264-.787.824-1.935.857-1.147.033-1.77-.824-1.803-.89-1.017-1.549-3.05-2.57-4.69-1.318-1.64 1.252-.951 2.505-1.443 2.768-.492.264-3.969 1.615-5.805 2.867C-.416 35.378-3.302 50.372 4.11 61.378c7.412 11.04 22.334 13.94 33.288 6.492 11.02-7.48 13.906-22.441 6.494-33.48ZM24.608 60.026c-6.888.363-12.758-4.943-13.152-11.83-.36-6.92 4.92-12.82 11.774-13.215 6.887-.362 12.758 4.943 13.151 11.83.394 6.921-4.886 12.82-11.773 13.215Z" fill="url(#a)"/><ellipse fill="#F6921E" transform="rotate(-27.808 38.515 16.754)" cx="38.515" cy="16.754" rx="3.808" ry="3.819"/></g></g></svg>