<svg viewBox="0 0 90 90" xmlns="http://www.w3.org/2000/svg"><defs><linearGradient x1="0%" y1="0%" x2="100%" y2="100%" id="a"><stop stop-color="#AA4EB8" offset="0%"/><stop stop-color="#1F74F0" offset="100%"/></linearGradient></defs><g fill="none"><path fill="url(#a)" d="M0 0h90v90H0z"/><g fill="#FFF"><path d="M54.976 49.571a15.537 15.537 0 0 0 4.671-4.594c1.655-2.737 2.433-5.865 2.336-9.041a16.352 16.352 0 0 0-2.238-9.042 13.533 13.533 0 0 0-6.326-5.23c-3.016-1.172-6.276-1.71-9.487-1.66h-14.11A2.83 2.83 0 0 0 27 22.837v.684a2.83 2.83 0 0 0 2.822 2.835h14.012c3.552 0 6.228.83 8.029 2.54 1.897 1.858 2.87 4.448 2.724 7.087.146 2.64-.827 5.23-2.724 7.087-1.8 1.71-4.477 2.59-8.029 2.59H29.822A2.83 2.83 0 0 0 27 48.496v.67c0 1.25 1.25 2.917 2.917 2.917l13.577-.068c1.119 0 2.14.684 2.579 1.71L52.64 68.29c.439 1.026 1.509 1.71 2.628 1.71h2.238c1.557 0 2.822-1.27 2.822-2.883 0-.391-.097-.831-.243-1.173l-6.033-12.756c-.633-1.271-.243-2.835.924-3.617Z"/><path d="M30.59 38.946h16.46a2.83 2.83 0 0 0 2.823-2.834v-.734a2.83 2.83 0 0 0-2.822-2.834H30.59c-1.509 0-2.774 1.27-2.822 2.786v.782a2.83 2.83 0 0 0 2.822 2.834Z"/></g></g></svg>