<svg viewBox="0 0 90 90" xmlns="http://www.w3.org/2000/svg"><g fill="#E42314"><path d="M82.199 57.745c-8.088 4.66-17.607 8.904-28.04 12.308-14.788 4.817-29.063 7.179-40.967 7.215 11.674 11.258 28.99 15.865 45.466 10.494C74.801 82.496 85.98 69.014 89.106 53.43a112.096 112.096 0 0 1-6.765 4.233l-.142.082Z"/><path d="M62.426 62.935A135.178 135.178 0 0 0 76.22 57.6V36.237h-8.464v-5.004h20.249c-.08-.263-.146-.527-.235-.79a45.347 45.347 0 0 0-10.33-17.38c-8.866.604-18.905 2.554-29.248 5.924-10.185 3.321-19.342 7.59-26.81 12.246H36.66v4.928H22.747v5.762h12.28v4.774h-12.28v6.141h14.405v4.928H16.67v-23.38C5.353 42.52-.73 51.437 1.551 58.483c3.93 12.136 31.185 14.13 60.875 4.452ZM41.472 37.431a13.038 13.038 0 0 1 5.195-4.89c2.216-1.175 4.71-1.762 7.482-1.762 2.317 0 4.42.392 6.31 1.175a12.474 12.474 0 0 1 4.759 3.411l-3.929 3.638c-1.889-1.996-4.168-2.994-6.839-2.994-1.688 0-3.186.354-4.496 1.061a7.601 7.601 0 0 0-3.056 2.994c-.73 1.289-1.095 2.767-1.095 4.435 0 1.644.365 3.11 1.095 4.397a7.773 7.773 0 0 0 3.042 3.014c1.297.72 2.777 1.08 4.439 1.08a9.902 9.902 0 0 0 4.761-1.137v-7.77h5.592v10.764a15.938 15.938 0 0 1-4.987 2.502 19.33 19.33 0 0 1-5.705.876c-2.747 0-5.216-.587-7.406-1.762a13.099 13.099 0 0 1-5.157-4.89c-1.248-2.085-1.871-4.441-1.871-7.07 0-2.628.623-4.986 1.87-7.072h-.004Z"/><path d="M89.228 36.237h-6.887V54.63a103.783 103.783 0 0 0 7.275-4.174c.62-4.73.488-9.53-.388-14.219ZM75.382 11.058C63.722.296 46.776-4.025 30.635 1.238 14.162 6.607 2.848 20.545 0 36.537c9.651-6.991 22.581-13.5 37.37-18.32 13.584-4.429 26.733-6.779 38.012-7.16Z"/></g></svg>