<svg viewBox="0 0 90 90" xmlns="http://www.w3.org/2000/svg" xmlns:xlink="http://www.w3.org/1999/xlink"><defs><path d="M27.765 65.573c.116 0 .233.01.348.028 1.418.22 8.651 2.05 18.506 2.052 9.856 0 17.087-1.83 18.506-2.05a2.2 2.2 0 0 1 .348-.028c1.271 0 2.337 1.1 2.337 2.792v1.066c0 3.55-9.66 5.567-21.191 5.567h-.426c-11.341-.05-20.765-2.061-20.765-5.567v-1.067c0-1.691 1.066-2.793 2.337-2.793ZM45.458 15c3.139 0 6.07.525 8.794 1.578 2.724 1.054 5.105 2.539 7.142 4.453 2.036 1.918 3.646 4.186 4.83 6.803C67.405 30.454 68 33.3 68 36.378c0 3.131-.594 6.006-1.777 8.625-1.183 2.619-2.793 4.886-4.83 6.801-2.036 1.917-4.417 3.416-7.141 4.495-2.724 1.08-5.655 1.62-8.794 1.62-3.138 0-6.069-.54-8.793-1.62-2.724-1.08-5.091-2.578-7.1-4.495-2.01-1.915-3.606-4.183-4.79-6.801C23.59 42.383 23 39.509 23 36.378c0-3.078.591-5.925 1.774-8.544 1.185-2.617 2.78-4.885 4.79-6.803 2.01-1.914 4.377-3.4 7.1-4.453C39.388 15.525 42.32 15 45.458 15Zm0 6.8c-1.98 0-3.839.366-5.573 1.095a13.981 13.981 0 0 0-4.541 3.037c-1.294 1.295-2.325 2.834-3.097 4.615-.772 1.782-1.155 3.726-1.155 5.83 0 2.16.383 4.145 1.156 5.953.77 1.81 1.802 3.36 3.096 4.656a14.032 14.032 0 0 0 4.541 3.038c1.734.728 3.592 1.092 5.573 1.092 1.982 0 3.839-.364 5.574-1.092a14.54 14.54 0 0 0 4.582-3.038c1.32-1.296 2.353-2.847 3.097-4.656.742-1.809 1.113-3.792 1.113-5.952 0-2.105-.371-4.05-1.113-5.831-.745-1.78-1.777-3.32-3.097-4.615a14.484 14.484 0 0 0-4.582-3.037c-1.735-.73-3.592-1.094-5.574-1.094Z" id="a"/></defs><g fill="none" fill-rule="evenodd"><path fill="#48BE7D" fill-rule="nonzero" d="M0 0h90v90H0z"/><use fill="#FFF" xlink:href="#a"/></g></svg>