<svg viewBox="0 0 90 90" xmlns="http://www.w3.org/2000/svg"><defs><linearGradient x1=".797%" y1="49.981%" x2="99.209%" y2="49.981%" id="a"><stop stop-color="#FF1D25" offset="5%"/><stop stop-color="#A0328C" offset="35%"/><stop stop-color="#7040A4" offset="45%"/><stop stop-color="#4359C7" offset="55%"/><stop stop-color="#0082E6" offset="70%"/></linearGradient></defs><path d="M75.289 9.39v4.634h3.725v2.18a3.431 3.431 0 0 1-.996.378c-.378.086-.875.12-1.493.12-.773 0-1.46-.12-2.095-.377a4.411 4.411 0 0 1-1.63-1.065c-.464-.463-.807-1.012-1.065-1.648a5.572 5.572 0 0 1-.394-2.111v-.069c0-.738.12-1.424.36-2.06a4.862 4.862 0 0 1 1.013-1.613c.429-.464.961-.807 1.562-1.064a4.92 4.92 0 0 1 1.957-.395c.91 0 1.768.171 2.557.498.79.326 1.545.79 2.266 1.407l4.069-4.91A13.157 13.157 0 0 0 81.09.876C79.58.292 77.898 0 76.01 0c-1.717 0-3.313.292-4.772.858-1.46.567-2.73 1.356-3.811 2.386a10.689 10.689 0 0 0-2.524 3.605c-.532 1.219-.824 2.54-.892 3.931L59.634.309h-7.21L46.21 15.174V.464h-7.604l-4.67 7.655-4.65-7.656h-7.588V5.34a10.29 10.29 0 0 0-1.27-1.803c-.961-1.081-2.163-1.94-3.622-2.575C15.346.326 13.612 0 11.638 0c-1.7 0-3.261.292-4.686.875-1.425.584-2.66 1.39-3.69 2.42A10.969 10.969 0 0 0 .857 6.902 11.504 11.504 0 0 0 0 11.329v.086c0 1.682.309 3.227.91 4.618.618 1.39 1.459 2.575 2.557 3.553 1.1.978 2.386 1.734 3.897 2.283 1.51.55 3.159.824 4.978.824 2.3 0 4.274-.395 5.905-1.202a12.841 12.841 0 0 0 2.197-1.373l-3.656-4.429a6.82 6.82 0 0 1-1.356.773c-.807.343-1.7.515-2.66.515-1.271 0-2.352-.292-3.21-.876-.722-.497-1.254-1.201-1.597-2.128H21.68v8.257h7.09V11.45l5.03 7.741h.12l5.029-7.741v10.797h12.067l1.116-2.918h7.622l1.15 2.918H68.8l-1.03-2.455a11.61 11.61 0 0 0 3.674 2.111c1.476.533 3.072.807 4.772.807 1.99 0 3.793-.292 5.407-.892 1.613-.601 3.02-1.39 4.205-2.352V9.39h-10.54ZM7.707 9.372c.24-1.115.67-2.025 1.322-2.695.687-.703 1.562-1.064 2.644-1.064 1.098 0 2.008.36 2.729 1.064.67.67 1.099 1.58 1.253 2.695H7.707Zm46.262 4.79 1.991-5.287 1.991 5.287H53.97Z" transform="translate(2.017 34.086)" fill="url(#a)"/></svg>