<svg viewBox="0 0 90 90" xmlns="http://www.w3.org/2000/svg"><path d="M76.311 57.106c-2.217-1.168-4.657.188-5.629 1.184a5.71 5.71 0 0 1-4.538 1.7 5.805 5.805 0 0 1-2.368-.74 5.769 5.769 0 0 1-1.843-1.68 5.486 5.486 0 0 1-.324-.532c7.785-5.903 12.348-15.148 12.314-24.95C73.905 14.866 59.887.882 42.764 1.002 25.747 1.12 12 15.035 12 32.175a31.225 31.225 0 0 0 14.581 26.458 6.985 6.985 0 0 1-.153.824 5.738 5.738 0 0 1-1.127 2.23 5.526 5.526 0 0 1-1.96 1.527c-.189.09-.382.17-.58.24-.017 0-.017 0-.033.018-.07.016-.12.034-.19.052a5.843 5.843 0 0 1-2.437.17c-1.364-.206-5.066-.342-6.055 2.196-.904 2.335.99 4.12 2.952 4.735.358.12.716.206 1.09.292.273.086.546.154.818.19.665.102 1.348.154 2.03.154 1.262 0 2.508-.19 3.702-.55.016 0 .016 0 .032-.016.018 0 .018 0 .034-.018.171-.052.358-.102.53-.172a13.177 13.177 0 0 0 4.434-2.606c.289-.26.557-.54.802-.84.186-.203.368-.41.545-.62.086-.1.154-.205.24-.309.015-.016.015-.034.033-.052.392-.514.75-1.046 1.057-1.612 0 0 0-.016.018-.016.12-.224.46-.086.374.154-.016.034-.016.052-.034.086a25.08 25.08 0 0 1-3.411 6.827 26.038 26.038 0 0 1-4.178 4.601c-1.688 1.44-2.319 3.877-1.176 5.782 1.142 1.904 3.614 2.52 5.354 1.148A33.144 33.144 0 0 0 40.497 66.49c.086-.308.205-.736.307-1.182.067-.31.53-.26.53.05.015.396.015.79.015 1.168a25.378 25.378 0 0 1-2.2 9.95 25.538 25.538 0 0 1-3.223 5.322c-1.382 1.73-1.517 4.253-.034 5.901 1.484 1.646 4.026 1.784 5.473.102a33.176 33.176 0 0 0 5.083-8.012 32.918 32.918 0 0 0 2.9-13.143v-1.03c0-.24.34-.292.408-.068l.275.994c.577 2.54.766 5.147.545 7.756a24.7 24.7 0 0 1-1.297 6.091c-.733 2.093-.034 4.53 1.91 5.576 1.945 1.046 4.383.326 5.185-1.733a33.238 33.238 0 0 0 1.381-19.714c-.051-.188.187-.342.34-.206.616.532 1.28.996 1.979 1.406a13.029 13.029 0 0 0 5.457 1.7 13.245 13.245 0 0 0 5.663-.79 13.187 13.187 0 0 0 6.104-4.719c1.212-1.628.836-3.84-.987-4.803Zm-44.29-20.16a3.853 3.853 0 0 1-2.87-.754 3.89 3.89 0 0 1-1.495-2.575 3.896 3.896 0 0 1 .744-2.889 3.857 3.857 0 0 1 2.564-1.504 3.853 3.853 0 0 1 2.871.753 3.89 3.89 0 0 1 1.495 2.576 3.906 3.906 0 0 1-.747 2.887 3.867 3.867 0 0 1-2.562 1.506Zm27.575-3.861a3.853 3.853 0 0 1-2.87-.754 3.89 3.89 0 0 1-1.494-2.575 3.906 3.906 0 0 1 .747-2.886 3.867 3.867 0 0 1 6.927 1.822 3.908 3.908 0 0 1-.748 2.886 3.87 3.87 0 0 1-2.562 1.507Z" fill="#6E54D7" fill-rule="evenodd"/></svg>