<svg xmlns="http://www.w3.org/2000/svg" viewBox="0 0 90 90"><path fill="#7623D7" d="M0 0h90v90H0z"/><path fill="#fff" d="M51.02 15c.27 0 .54.03.81.1a30.36 30.36 0 0 1 16.56 10.54A29.94 29.94 0 0 1 75 44.51c0 6.93-2.29 13.45-6.6 18.86-4.2 5.26-10.09 9-16.57 10.55a3.42 3.42 0 0 1-3.29-.94 3.52 3.52 0 0 1-1.01-2.49c0-1.68 1.1-3.12 2.69-3.5a23.3 23.3 0 0 0 14.16-10.21l.02-.04c.47-.78.48-1.7.04-2.49a2.59 2.59 0 0 0-2.24-1.32c-.38 0-.75.09-1.09.25a9.55 9.55 0 0 1-13.55-8.11v-.03l-.01-.03a3.84 3.84 0 0 1-.02-.38v-.24c0-.11 0-.24.02-.38v-.06a9.56 9.56 0 0 1 13.56-8.1 2.59 2.59 0 0 0 3.32-1.07c.45-.8.44-1.72-.03-2.5l-.03-.05a23.29 23.29 0 0 0-14.15-10.2 3.56 3.56 0 0 1-2.7-3.5 3.51 3.51 0 0 1 3.5-3.53Zm-12.04 0a3.51 3.51 0 0 1 3.5 3.53 3.57 3.57 0 0 1-2.7 3.5 23.3 23.3 0 0 0-14.15 10.2l-.02.03v.02c-.48.78-.49 1.7-.05 2.49a2.58 2.58 0 0 0 2.25 1.32c.37 0 .73-.08 1.08-.25a9.55 9.55 0 0 1 13.55 8.11v.06l.03.38v.24c0 .11 0 .24-.02.38v.06a9.55 9.55 0 0 1-13.56 8.1 2.55 2.55 0 0 0-3.33 1.08c-.44.78-.43 1.71.04 2.5l.03.04c3.2 5.09 8.35 8.8 14.15 10.2a3.56 3.56 0 0 1 2.7 3.5 3.51 3.51 0 0 1-4.31 3.43A30.32 30.32 0 0 1 15 44.51c0-6.93 2.28-13.45 6.6-18.87A30.34 30.34 0 0 1 38.18 15.1c.27-.07.54-.1.81-.1Z"/></svg>