<svg viewBox="0 0 90 90" xmlns="http://www.w3.org/2000/svg"><g fill="none"><path fill="#03A9F4" d="M0 0h90v90H0z"/><path d="M53.185 27.522h-1.05c-3.074-5.763-9.715-8.69-16.076-7.086-6.362 1.604-10.796 7.323-10.734 13.846v.368C17.56 38.546 13.5 47.232 15.512 55.644 17.525 64.057 25.084 69.996 33.784 70h20.284c11.802-.242 21.171-9.948 20.927-21.678-.243-11.73-10.008-21.042-21.81-20.8Zm0 37.426c-7.707.004-14.365-5.353-15.964-12.846-1.6-7.493 2.296-15.076 9.34-18.182 7.045-3.107 15.316-.888 19.832 5.319l-5.155 3.26c-2.823-3.602-7.719-4.888-11.964-3.141-4.246 1.747-6.795 6.096-6.23 10.628.566 4.532 4.107 8.13 8.653 8.794 4.546.663 8.978-1.772 10.83-5.951h-8.28v-6.06h15.117c.078.657.114 1.319.107 1.98-.006 8.94-7.292 16.186-16.286 16.2Z" fill="#FFF"/></g></svg>