<svg viewBox="0 0 90 90" xmlns="http://www.w3.org/2000/svg"><g fill="none"><path fill="#FFF" d="M0 0h90v90H0z"/><path d="M21.596 54.62c-1.717 0-3.23-.336-4.536-1.008-1.288-.672-2.287-1.587-2.996-2.744-.71-1.176-1.064-2.51-1.064-4.004 0-1.512.345-2.847 1.036-4.004a7.411 7.411 0 0 1 2.884-2.744c1.213-.672 2.585-1.008 4.116-1.008 1.475 0 2.8.317 3.976.952a6.879 6.879 0 0 1 2.828 2.688c.69 1.157 1.036 2.548 1.036 4.172 0 .168-.01.364-.028.588a65.91 65.91 0 0 1-.056.588H16.556v-2.548h9.94l-1.68.756c0-.784-.159-1.465-.476-2.044a3.377 3.377 0 0 0-1.316-1.344c-.56-.336-1.213-.504-1.96-.504-.747 0-1.41.168-1.988.504-.56.317-.999.775-1.316 1.372-.317.579-.476 1.27-.476 2.072v.672c0 .821.177 1.55.532 2.184a3.79 3.79 0 0 0 1.54 1.428c.672.317 1.456.476 2.352.476.803 0 1.503-.121 2.1-.364a5.11 5.11 0 0 0 1.68-1.092l2.324 2.52c-.69.784-1.559 1.39-2.604 1.82-1.045.41-2.25.616-3.612.616ZM40.94 39.108c1.195 0 2.259.243 3.192.728.952.467 1.699 1.195 2.24 2.184.541.97.812 2.221.812 3.752v8.624h-4.368v-7.952c0-1.213-.27-2.11-.812-2.688-.523-.579-1.27-.868-2.24-.868-.69 0-1.316.15-1.876.448-.541.28-.97.719-1.288 1.316-.299.597-.448 1.363-.448 2.296v7.448h-4.368V39.332h4.172v4.172l-.784-1.26a5.58 5.58 0 0 1 2.324-2.324c1.008-.541 2.156-.812 3.444-.812ZM57.303 54.62c-1.773 0-3.154-.448-4.144-1.344-.989-.915-1.484-2.268-1.484-4.06V36h4.368v13.16c0 .635.168 1.13.504 1.484.336.336.794.504 1.372.504.691 0 1.28-.187 1.764-.56l1.176 3.08c-.448.317-.989.56-1.624.728-.616.15-1.26.224-1.932.224Zm-7.952-11.592v-3.36h10.444v3.36H49.351ZM70.323 54.62c-1.718 0-3.23-.336-4.536-1.008-1.288-.672-2.287-1.587-2.996-2.744-.71-1.176-1.064-2.51-1.064-4.004 0-1.512.345-2.847 1.036-4.004a7.41 7.41 0 0 1 2.884-2.744c1.213-.672 2.585-1.008 4.116-1.008 1.474 0 2.8.317 3.976.952a6.88 6.88 0 0 1 2.828 2.688c.69 1.157 1.036 2.548 1.036 4.172 0 .168-.01.364-.028.588l-.056.588H65.283v-2.548h9.94l-1.68.756c0-.784-.16-1.465-.476-2.044a3.377 3.377 0 0 0-1.316-1.344c-.56-.336-1.214-.504-1.96-.504-.747 0-1.41.168-1.988.504-.56.317-1 .775-1.316 1.372-.318.579-.476 1.27-.476 2.072v.672c0 .821.177 1.55.532 2.184a3.79 3.79 0 0 0 1.54 1.428c.672.317 1.456.476 2.352.476.802 0 1.502-.121 2.1-.364a5.11 5.11 0 0 0 1.68-1.092l2.324 2.52c-.691.784-1.56 1.39-2.604 1.82-1.046.41-2.25.616-3.612.616Z" fill="#000"/></g></svg>