<svg xmlns="http://www.w3.org/2000/svg" viewBox="0 0 90 90"><path fill="#87E64B" d="M0 0h90v90H0z"/><path fill="#1A4200" d="M48.056 78.169a2.962 2.962 0 1 0 0-5.925 2.962 2.962 0 0 0 0 5.925ZM65.1 54.994l-16.725 1.8c-.3.019-.45-.375-.206-.563L64.519 43.5a3.75 3.75 0 0 0 1.444-3.656 3.824 3.824 0 0 0-4.444-3.375l-17.775 2.587c-.3.056-.469-.356-.225-.543l17.625-13.444c3.468-2.719 3.75-8.025.562-11.119a7.349 7.349 0 0 0-10.425.113L22.894 42.936a5.025 5.025 0 0 0-1.256 4.332 4.913 4.913 0 0 0 5.7 3.862l15.318-3.112c.319-.075.507.375.225.562L25.875 59.437c-2.119 1.35-3.094 3.75-2.419 6.188a5.624 5.624 0 0 0 6.957 4.237L55.8 63.62a.3.3 0 0 1 .3.487l-3.956 4.875c-1.069 1.369.675 3.188 2.119 2.138l13.03-10.725c2.326-1.931.788-5.681-2.212-5.4h.019Z"/></svg>