<svg xmlns="http://www.w3.org/2000/svg" viewBox="0 0 90 90"><defs><linearGradient x1="100%" y1="0%" x2="100%" y2="100%" id="a"><stop stop-color="#FA342C" offset="0%"/><stop stop-color="#FF5A08" offset="100%"/></linearGradient><linearGradient x1="100%" y1="0%" x2="100%" y2="100%" id="b"><stop stop-color="#FA342C" offset="0%"/><stop stop-color="#FF5A08" offset="100%"/></linearGradient><linearGradient x1="27.239%" y1="85.858%" x2="109.659%" y2="76.816%" id="c"><stop stop-color="#F9332B" offset="0%"/><stop stop-color="#FF6100" offset="100%"/></linearGradient></defs><path fill="#FFF" d="M0 0h90v90H0z"/><path d="M24.375 42.301a1.87 1.87 0 0 1 1.863 1.722l.005.146V56a1.868 1.868 0 0 1-3.73.146L22.507 56V44.169c0-1.032.836-1.868 1.868-1.868Z" fill="url(#a)" transform="translate(20 17)"/><path d="M11.875 45.726c.983 0 1.788.758 1.862 1.722l.006.146v4.981a1.868 1.868 0 0 1-3.73.146l-.006-.146v-4.981c0-1.032.836-1.868 1.868-1.868Zm25 0c.983 0 1.788.758 1.863 1.722l.005.146v4.981a1.868 1.868 0 0 1-3.73.146l-.006-.146v-4.981c0-1.032.836-1.868 1.868-1.868Z" fill="url(#b)" transform="translate(20 17)"/><path d="M31.008 3.303c-2.809-4.404-9.207-4.404-12.016 0L1.142 31.287c-3.048 4.778.363 11.055 6.008 11.055h4.147a9.502 9.502 0 0 0 8.65-5.55l1.304-2.861c1.125-2.467 4.642-2.467 5.767 0l1.303 2.86a9.502 9.502 0 0 0 8.65 5.551h5.879c5.644 0 9.056-6.277 6.008-11.055L31.008 3.303Z" fill="url(#c)" transform="translate(20 17)"/></svg>