<svg xmlns="http://www.w3.org/2000/svg" viewBox="0 0 90 90"><path fill="#F32100" d="M0 0h90v90H0z"/><path fill="#FFF" d="M18.2 45.82c-.04.17-.04.32-.04.5 0 3.98 2.44 6.34 5.56 6.34.49 0 .87-.07 1.18-.21.93-.7 1.9-1.34 2.92-1.9l.17.56c-.2.78-1.53 2.22-1.97 2.54-1.17.49-2.4.78-3.66.84-4.3 0-7.36-3.03-7.36-7.9 0-5.03 3.58-8.48 7.54-8.48 3.16 0 5.87 2.15 5.87 6.1 0 .41-.1.94-.35 1.12-.34.14-1.67.5-3.26.5h-6.6zm6.94-1.34c.1-.24.18-.66.18-1.06 0-2.1-1.04-4.09-3.06-4.09-2.89 0-4.03 3.64-4.03 5.15h6.91zm10.42-4.16l.07.04c2.2-1.55 3.69-2.26 4.73-2.26 2.89 0 6.7 2.47 6.7 7.5a8.65 8.65 0 01-8.4 8.9c-.66 0-2.09-.57-2.89-1.1l-.06.04c0 2.22.05 4.44.13 6.66l3.23 1.1-.3.8c-1.57 0-2.96-.03-4.56-.03l-3.64.03.3-.88 1.78-.92c.04-1.2.14-4.54.14-9.69v-9.77l-1.94-1.05.3-.7c1.48-.5 3.01-.82 4.57-.96l-.15 2.3zm.14 11.74c.8.47 1.7.72 2.61.73 2.92 0 5.6-2.53 5.6-6.62 0-3.2-1.91-5.99-4.97-5.99-.87 0-1.98.39-3.23 1.3v10.58zm14.28-12.93c.56-.18 2.65-.82 4.63-1.02v7.12l.06 6.97 2.47 1.06-.24.8-3.9-.02-3.6.03.24-.81 1.97-1.06c.05-2.35.08-4.7.07-7.05v-4.44l-1.87-.91.18-.67zm3.27-8.33A4.69 4.69 0 0155 32.78l-.07.28c-.46.8-1.09 1.48-1.84 2l-.28.08a5.6 5.6 0 01-1.7-2l.06-.3a6.6 6.6 0 011.88-2l.21-.04zm13.06 22.46l-.2.81c-1.29 0-2.6-.03-3.96-.03l-3.65.03.2-.77 1.98-1.07c.07-.7.11-2.88.11-8.07l-.1-12.43-1.95-.93.31-.7c1.56-.45 3.14-.82 4.73-1.1l-.1 12.2.1 11 2.53 1.06zm8.48 1.34c-1.88-.1-3.47-.54-4.72-1.73a55.63 55.63 0 01-5.73-6.94l-.04-.18c1.5-1.7 3.5-4.1 4.8-5.81l.65-1.83c1.54 0 3.9.24 4.7.45l-.49.81c-.53.28-2.71 1.03-3.62 1.37a53.43 53.43 0 00-3.33 3.6v.1c2.02 2.79 6.26 7.87 7.99 9.98l-.21.18z"/></svg>