<svg xmlns="http://www.w3.org/2000/svg" viewBox="0 0 90 90"><path fill="#345C97" d="M0 0h90v90H0z"/><path d="M65 72.058C65 73.687 63.665 75 62.039 75H43.81C33.42 75 25.013 66.62 25 56.31V33.69C25 23.368 33.434 15.014 43.81 15h17.912a2.955 2.955 0 0 1 2.96 2.942v1.012c0 1.628-1.334 2.942-2.96 2.955H43.81c-6.543 0-11.844 5.28-11.857 11.782v7.579h22.75c1.731 0 3.146 1.392 3.146 3.126V45c0 1.72-1.415 3.126-3.146 3.126h-22.75v8.183c0 6.502 5.314 11.769 11.857 11.782h18.23A2.958 2.958 0 0 1 65 71.046v1.012Z" fill="#FFF"/></svg>