<svg viewBox="0 0 90 90" xmlns="http://www.w3.org/2000/svg"><g fill="none"><path d="M44.61 90h-.755C43.478 89.622.89 78.297 2.022 15.025v-.906l5.815-8.305 1.132-.151C9.724 5.512 44.611 0 44.611 0s35.037 5.436 35.792 5.663l.906.15 5.814 8.306v.906c.755 32.769-10.571 51.418-20.161 61.233C56.542 86.98 45.592 90 44.61 90ZM7.913 16.158C7.157 70.068 39.4 82.298 44.686 83.96c5.437-1.661 37.454-13.968 36.774-68.03l-3.549-5.059c-3.927-.906-19.406-4.68-33.15-5.058-13.742.377-28.996 4.152-33.149 5.058l-3.7 5.286Z" fill="#153A62"/><path fill="#153A62" d="M30.112 39.337h31.639v6.191H30.112zm0 15.629h31.639v6.191H30.112zm0-31.258h31.639v6.191H30.112z"/><path d="M29.961 48.02c-3.02 0-5.663-2.642-5.663-5.814 0-3.02 2.416-5.813 5.663-5.813h14.876v-4.304H29.735c-5.664 0-9.968 4.53-9.968 10.193 0 5.663 4.531 10.193 9.968 10.193h15.102V48.02H29.961Z" fill="#42C31D"/></g></svg>