<svg viewBox="0 0 90 90" xmlns="http://www.w3.org/2000/svg"><g fill="none"><path d="M87.846 33.603C85.879 30.28 82.04 28 77.638 28H12.456a12.196 12.196 0 0 0-10.302 5.603C.374 36.643 0 41.676 0 45s.375 8.358 2.154 11.397C4.121 59.72 7.96 62 12.456 62h65.088c4.496 0 8.242-2.374 10.302-5.603C89.626 53.357 90 48.324 90 45c0-3.23-.375-8.263-2.154-11.397Z" fill="#0096A1"/><path d="M46.92 59.15H13.299c-2.623 0-5.62-1.329-7.212-3.038-2.528-2.754-2.996-7.028-2.996-11.017 0-4.084.561-8.358 3.09-11.017 1.592-1.71 4.589-3.039 7.211-3.039H46.92v28.112Z" fill="#FFF"/><path d="m17.12 37.114.3.003c5.9 0 7.679 1.615 7.679 8.168v.76H14.703v.095c0 2.849.469 3.799 2.716 3.799 1.499 0 2.623-.19 2.716-1.9h4.87c0 2.28-.749 3.609-2.06 4.369-1.311.76-3.184.95-5.526.95-6.18 0-7.68-2.185-7.68-8.168 0-6.173 1.406-8.168 7.68-8.073Zm19.401-.09c2.94.012 6.56.248 6.56 3.892v.665h-4.683c-.281-1.235-1.218-1.33-2.248-1.33-2.716 0-2.81.38-2.81 1.425v.08c.009.81.179 1.348 2.81 1.44 5.432.095 7.68.474 7.68 4.843 0 4.654-3.466 5.319-7.68 5.319-1.03 0-2.06 0-2.997-.095-3.09-.285-4.776-1.425-4.776-4.939h4.963c.094 1.804 1.405 1.804 2.716 1.804 2.342 0 2.903-.19 2.903-1.52 0-.854-.187-1.329-.749-1.519-.562-.19-1.498-.19-2.06-.19-6.556 0-7.68-1.424-7.68-4.653 0-4.854 2.853-5.199 6.969-5.222ZM17.49 40.441h-.164c-2.06 0-2.529.664-2.623 2.754h5.339V43.1c0-2.47-.937-2.66-2.716-2.66Z" fill="#0096A1"/><path d="M81.571 37.022v3.61H77.92v12.44h-4.964v-12.44h-3.652v-3.61H81.57Zm-23.038-.095c5.9 0 7.586 1.615 7.586 8.073v.76H55.817v.19c0 2.849.468 3.799 2.716 3.799 1.592 0 2.716-.19 2.81-1.9h4.776c0 2.28-.843 3.514-2.06 4.274-1.312.76-3.185.95-5.526.95-6.181 0-7.68-2.09-7.68-8.073 0-6.173 1.311-8.073 7.68-8.073Zm-.094 3.324c-2.154 0-2.622.76-2.622 2.945h5.525v-.19c0-2.565-1.03-2.755-2.903-2.755Z" fill="#FFF"/></g></svg>