<svg viewBox="0 0 90 90" xmlns="http://www.w3.org/2000/svg"><g fill="none" fill-rule="evenodd"><path fill="#0B042C" fill-rule="nonzero" d="M0 0h90v90H0z"/><path d="M47.909 43.21c.07-.415.178-.8.322-1.155.284-.703.703-1.252 1.256-1.645.553-.392 1.248-.589 2.086-.589.822 0 1.498.18 2.027.54.53.36.929.864 1.198 1.51.165.398.279.844.342 1.338h-7.23Zm7.114-4.813c-.91-.621-2.06-.933-3.45-.933-1.059 0-1.983.193-2.773.577a5.68 5.68 0 0 0-1.968 1.547 6.736 6.736 0 0 0-1.174 2.185c-.26.81-.39 1.649-.39 2.516v.442c0 .851.13 1.682.39 2.492a6.73 6.73 0 0 0 1.174 2.185c.521.647 1.189 1.166 2.003 1.559.814.393 1.774.59 2.88.59 1.028 0 1.94-.177 2.739-.529a5.131 5.131 0 0 0 1.991-1.534c.53-.671.89-1.457 1.08-2.357h-2.49c-.143.557-.502 1.04-1.08 1.449-.576.409-1.323.613-2.24.613-.9 0-1.64-.2-2.216-.601-.577-.401-1.004-.958-1.28-1.67a6.268 6.268 0 0 1-.393-1.828h9.911v-1.105a7.59 7.59 0 0 0-.675-3.18 5.785 5.785 0 0 0-2.04-2.418Zm-11.475-.49H40.75l-5.216 6.485V34h-2.678v17.114h2.678v-6.162H37.1l4.6 6.162h3.058l-5.76-7.567 4.55-5.64Zm-14.556 6.628c-.838-.655-1.968-1.056-3.39-1.203l-1.28-.147c-.728-.082-1.25-.258-1.565-.528-.317-.27-.475-.634-.475-1.093 0-.523.214-.957.64-1.3.427-.345 1.051-.516 1.873-.516.838 0 1.474.18 1.909.54.434.36.66.785.676 1.276h2.465c-.032-1.325-.51-2.332-1.434-3.02-.925-.687-2.13-1.03-3.616-1.03-.98 0-1.841.163-2.584.49-.743.328-1.327.795-1.754 1.4-.427.606-.64 1.342-.64 2.21 0 1.113.383 1.992 1.15 2.638.766.647 1.797 1.044 3.093 1.191l1.28.123c.87.098 1.494.29 1.873.577.38.286.57.683.57 1.19 0 .557-.253 1.02-.76 1.388-.505.368-1.224.552-2.157.552-1.043 0-1.793-.209-2.252-.626-.458-.417-.71-.872-.758-1.363h-2.442c.031 1.326.521 2.361 1.47 3.106.948.745 2.276 1.117 3.982 1.117 1.06 0 1.996-.176 2.81-.528.814-.352 1.446-.847 1.896-1.485.45-.638.676-1.375.676-2.21 0-1.178-.419-2.094-1.256-2.75Zm34.672-10.508h-2.537v3.88h-2.134v2.061h2.134v6.482c0 1.211.186 2.169.557 2.872a3.154 3.154 0 0 0 1.636 1.498c.719.294 1.6.442 2.644.442h1.896v-2.406h-2.133c-.664 0-1.174-.188-1.53-.565-.355-.376-.533-.908-.533-1.596v-6.727h4.196v-2.062h-4.196v-3.879ZM85 39.968v-2.062h-4.196v-3.879h-2.537v3.88h-2.134v2.061h2.134v6.482c0 1.211.186 2.169.557 2.872a3.154 3.154 0 0 0 1.636 1.498c.719.294 1.6.442 2.644.442H85v-2.406h-2.133c-.664 0-1.174-.188-1.53-.565-.355-.376-.533-.908-.533-1.596v-6.727H85Zm-15.362.074h1.896v11.072h2.68V37.906h-4.576v2.136ZM23.656 36h2.518v-1.976h-2.518V36Zm47.993 0h2.519v-1.976h-2.519V36ZM7.642 43.21c.07-.414.178-.798.321-1.154.285-.703.703-1.252 1.257-1.645.553-.392 1.248-.589 2.086-.589.822 0 1.497.18 2.027.54.53.36.928.864 1.197 1.51.166.398.28.844.343 1.338H7.642Zm7.114-4.812c-.91-.621-2.06-.933-3.45-.933-1.059 0-1.984.193-2.774.577-.79.385-1.446.9-1.967 1.547a6.735 6.735 0 0 0-1.174 2.185A8.184 8.184 0 0 0 5 44.29v.442c0 .851.13 1.682.391 2.492a6.73 6.73 0 0 0 1.174 2.185c.521.647 1.189 1.166 2.003 1.559.814.393 1.774.59 2.88.59 1.028 0 1.94-.177 2.739-.529a5.132 5.132 0 0 0 1.991-1.534c.53-.671.889-1.457 1.079-2.357h-2.49c-.142.557-.502 1.04-1.078 1.449-.577.409-1.324.613-2.24.613-.901 0-1.64-.2-2.217-.601-.577-.401-1.004-.958-1.28-1.67a6.268 6.268 0 0 1-.393-1.828h9.911v-1.105c0-1.13-.225-2.189-.676-3.18a5.785 5.785 0 0 0-2.038-2.418ZM23.656 55h2.518v-1.914h-2.518V55Z" fill="#FFF"/></g></svg>