<svg viewBox="0 0 90 90" xmlns="http://www.w3.org/2000/svg"><g fill="none"><path fill="#FFFF09" d="M0 0h90v90H0z"/><path d="M17 45.5C17 61.24 29.536 74 45 74s28-12.76 28-28.5S60.464 17 45 17 17 29.76 17 45.5Z" fill="#000"/><path d="m24.99 56.307 21.305-34.435c5.117.237 9.798 2.175 13.508 5.275L27.465 60.063a23.411 23.411 0 0 1-2.475-3.756Zm5.767 7.087 32.319-32.896a23.524 23.524 0 0 1 5.114 13.789L34.472 65.9a22.873 22.873 0 0 1-3.715-2.506Zm9.167 4.595L67.692 50.19c-2.072 10.567-13.11 21.119-27.768 17.799Z" fill="#FFF"/></g></svg>