<svg xmlns="http://www.w3.org/2000/svg" viewBox="0 0 90 90"><path fill="#20F4CB" d="M0 0h90v90H0z"/><path d="M62.823 17H21.776L15 72.994s33.88.011 40.165.003c1.167 0 2.333-.082 3.487-.257 3.346-.515 8.896-2.143 11.237-7.663 1.042-2.459 1.841-9.306 2.107-11.154.647-4.496-1.756-7.098-4.148-8.605-.529-.332-.393-1.132.21-1.288 2.522-.65 4.896-1.993 5.546-4.858.454-2.01.897-6.434 1.209-8.893C76.233 19.956 69.31 17 62.823 17Zm-4.735 31.713H40.829l-.436 3.553h17.265l-1.016 8.243H29.07l2.333-18.995H58.97l-.882 7.199Zm1.292-10.517H31.806l1.067-8.704h27.571l-1.064 8.704Z" fill="#00122A"/></svg>