<svg xmlns="http://www.w3.org/2000/svg" viewBox="0 0 90 90"><defs><linearGradient id="a" x1="0%" x2="100%" y1="0%" y2="100%"><stop offset="0%" stop-color="#00A7EE"/><stop offset="100%" stop-color="#066DB8"/></linearGradient></defs><path fill="url(#a)" d="M0 0h90v90H0z"/><path fill="#FFF" d="M80.38 30a2.52 2.52 0 00-2.56 2.49 2.52 2.52 0 002.56 2.49c1.48 0 2.62-1.07 2.62-2.5 0-1.4-1.14-2.48-2.62-2.48zm-1.92 23.43h3.9V37.85h-3.9v15.58zM43.61 37.47c-4.7 0-8.46 3.27-8.46 8.17s3.76 8.18 8.46 8.18a8.1 8.1 0 005.86-2.31L47 49.05a4.97 4.97 0 01-3.78 1.65 4.04 4.04 0 01-4.19-3.7h11.88v-1.07c0-5.42-2.95-8.46-7.3-8.46zm-4.57 6.61c.3-2.24 1.72-3.7 4.02-3.7 2.44 0 3.93 1.43 3.96 3.7h-7.98zm17.3-1.85c0-1.17 1.24-1.65 2.28-1.65 1.32 0 2.3.55 3.04 1.58l2.47-2.48c-1.28-1.6-3.4-2.22-5.42-2.22-3.14 0-6.26 1.56-6.26 5.03 0 5.94 8.4 3.4 8.4 6.62 0 1.23-1.45 1.78-2.59 1.78-1.65 0-2.69-.8-3.69-1.9l-2.51 2.51c1.58 1.71 3.62 2.32 5.97 2.32 3.18 0 6.72-1.3 6.72-5 0-6.07-8.4-3.8-8.4-6.59zm14.16-1.91h-.07v-2.47h-3.89v15.58h3.9v-8.34c0-.85.51-3.93 4.18-3.93.56 0 1.13.11 1.72.25l.15-3.72a4.96 4.96 0 00-6 2.63zm-52.72-8.05c-1.21-.04-1.93.12-2.65.26-.21-.06-.62 0-.64.47 0 .25.08.45.24.56.16.11 1.5 1.1 2.47 2.14-.47.05-.98.14-1.5.25-.59-1.27-2.47-.12-3.72-.07l-.43.04a20.16 20.16 0 01-.2-2.92c1.61-.92 4.74-1.6 6.87-1.63h.37c.31-.01.34-.26.04-.3-2.64-.36-4.93.17-7.28 1.15-2.44 1.03-5.55 3.4-7.45 7.88-.44 1.24-2.22 7.2.93 12.3 2.56 4.14 5.86 6.1 9.9 6.67 4.02.56 6.2.08 8.74-1.05 5.95-2.64 10.5-12.56 5.95-19.75-1.8-3.32-6.5-6.23-11.64-6zm-2.26 4.64c.78-.17 1.57-.3 2.37-.36.66.78 1.24 1.63 1.74 2.54-.8.38-1.87.68-2.31 1.3-.18.27-.23.62-.23 1-1.33.32-2.63.75-3.88 1.29a41.16 41.16 0 01-1.12-3.84c1.3-1.24 2.8-1.44 3.43-1.93zm6.61 15.88l-1.01.13c-.77.12-1.76.38-2.69.73-.53-.85-1.95-2.9-2.66-4.44a15.5 15.5 0 015.77-1.44c.19.32.4.65.69.95.76.78-.44 1.88-.1 4.07zm-8.6-9.14c1.12-.53 2.3-.96 3.56-1.28 0 .33-.04.65-.18.9-.2.37-.1 1.43.13 1.78.76 1.1 2.01.48 2.95.88.44.18.72.48.97.84-1.98.12-3.91.58-5.7 1.4-.93-1.95-1.73-4.52-1.73-4.52zm.83 4.94l-.21.11a40.8 40.8 0 00-3.26-.78c-1-.2-1.03-.15-2.15.18l-.46.13-.45-1.2a27.12 27.12 0 014.82-2.99c.5 1.5 1.22 3.49 1.71 4.55zm.77 4.53c.3-.77.52-1.33.6-1.9.57.97 1.25 2 1.78 2.82-.82.4-1.77 1.01-2.67 1.69.06-1.04.08-2.06.29-2.61zm5.33-14.64c0 .02-.02.03-.04.04-.42-.73-.88-1.43-1.37-2.1 1-.07 2.24-.02 3.37.1-1.01.36-1.46 1.25-1.96 1.96zm-9.02 1.1l.05-.07c.24 1.18.52 2.16.89 3.51-1.4.62-3.88 2.15-4.98 2.98-.2-.5-.4-1.22-.59-1.95.25-.74.76-1.25 1.48-1.33 1.23-.12 2.28-1.95 3.15-3.14zm-5.41-1.79c1.3-1.83 3.1-3.62 4.72-4.52-.02.4.09 1.57.22 2.7-.57.05-1.14.12-1.7.2a12.08 12.08 0 00-3.11 4.1 14.88 14.88 0 01-.13-2.48zm-.86 1.44l.11 1.83s-.78.89-1.18 1.6c.16-1.45.5-2.2 1.07-3.43zm7.66 18.36a12.63 12.63 0 01-8.11-8.26c-.62-2.1-.84-4.29-.65-6.47.05.01.18.07.38.02.13-.1.61-.43.96-.73l.01.13c-.23.87-.37 1.78-.4 2.71.37.4.8 1.04 1.29 1.7-.31.24-.9.65-1.05.75-.4.3-.4.75-.11 1.01.16.15.5.09.61 0 .36-.3.66-.52 1.07-.78l.43 1.09c-.18.19-.3.44-.34.8-.14 1.17.98 2.09 1.92 2.36l.09.02.15.23c-.49.37-.82.76-1.05 1.06-.13.17-.28.43-.16.48.12.05.53 0 .72-.03.46-.1.82-.61 1.15-.8.38.53 1.01 1.22 1.67 1.88.03.12.05.25.09.35.12.4.29.8.49 1.2.47.22.96.4 1.46.56-.22.22-.42.47-.62.72zm1 .31c.15-.2.3-.45.5-.63.47.31.97.67 1.37.9-.62-.07-1.34-.09-1.88-.27zm3.1.31s-1.6-1.06-2-1.47c.8-.67 2.1-1.46 3.12-1.89.4.63 1.73 2.5 2.26 3.11-.96.17-2.3.3-3.37.25zm6.7-1.51c-.28.19-1.65.81-2.2.99-.9-1-1.71-2.07-2.43-3.2.84-.36 2.14-.67 3.34-.82.11.34.25.7.45 1.09.19.38.4.66.64.85l.25-.17c0 .42-.02.85-.04 1.26zm-.32-21.48c-.27-.17-.6-.1-.47.2.06.11.26.31.43.5-.99-.26-3.6-.47-4.86-.36-.81-.91-1.74-2.02-2.86-2.76 5-.31 9.5 1.76 11.48 4.19-.67-.35-2.1-.84-2.67-.97-.31-.32-.71-.58-1.05-.8zm1.1 21.07l.05-1.4c.48-.38.94-.79 1.37-1.24.54.07 1.09.16 1.42.24-.74.94-1.76 1.72-2.85 2.4zm3.82-3.73c-.12.26-.43.7-.63.9a9.81 9.81 0 00-1.28-.38c.08-.1.17-.18.24-.28.27-1.8-.33-2.37.42-4.01l.18-.37c.41.12.8.25 1.15.38.04.62.04 2.73-.08 3.76zm-.71-4.91c.2-.41.41-.84.65-1.27.06.54.1 1.08.13 1.56l-.78-.3zm2.22 1.12l-.2.76c-.13.51-.59 1.73-.83 2.22.1-.66.17-2.38.15-2.73.16.05.5-.15.56-.34.06-.2-.56-.5-.56-.5 0-.9-.06-1.8-.18-2.7.15-.22.29-.45.44-.65-.03-.53-.1-1.05-.19-1.57.13.04.24.07.32.07.29 0 .29-.19.2-.3a3.9 3.9 0 00-.65-.42 12.02 12.02 0 00-2.78-5.32c.54.2 1.22.48 1.76.78.4.51 1.58 1.67 2.2 4.92.57 2.92-.05 5.14-.24 5.78zM83.99 38.1v-.24h1.21v.24h-.46v1.19h-.29v-1.2H84zm1.87-.24l.36 1.02.37-1.02h.4v1.43h-.26v-1.16l-.4 1.16h-.22l-.4-1.16v1.16h-.26v-1.43h.4z"/></svg>