<svg xmlns="http://www.w3.org/2000/svg" viewBox="0 0 90 90"><path fill="#E50867" d="M0 0h90v90H0z"/><path d="M72.818 31.18c.566 3.817-.202 9.575-2.096 17.269h-35.9c-2.124 11.898 2.165 16.376 15.766 16.376a60.317 60.317 0 0 0 16.44-2.272l-1.501 8.41c-8.197 2.797-13.987 4.52-23.422 4.52-18.468 0-26.73-10.211-23.373-28.939 3.452-19.285 16.215-31.061 33.547-31.061 12.132 0 19.21 5.382 20.539 15.696Zm-22.241-6.952c-7.359 0-11.726 4.707-14.131 15.147h20.286c2.58-11.218.994-15.147-6.155-15.147Z" fill="#FFF"/></svg>