<svg xmlns="http://www.w3.org/2000/svg" viewBox="0 0 90 90"><path fill="#097D94" d="M0 0h90v90H0z"/><path d="M69.54 40.089 57.824 28.453A1.574 1.574 0 0 0 56.719 28H33.282a1.557 1.557 0 0 0-1.105.455L20.461 40.089a1.535 1.535 0 0 0 0 2.192l11.721 11.636 11.716 11.63c.61.604 1.597.604 2.208 0l11.72-11.633 11.719-11.633a1.547 1.547 0 0 0 0-2.192h-.005Zm-45.773 1.094 9.515-9.443 9.51 9.443-9.512 9.444-9.513-9.444ZM45.001 62.26l-9.51-9.442L45 43.376l9.51 9.443L45 62.26Zm11.718-11.634-19.67-19.528h19.025l10.16 10.086-9.515 9.442Z" fill="#FFF"/></svg>