<svg viewBox="0 0 90 90" xmlns="http://www.w3.org/2000/svg"><g fill="none"><path d="m7.295 69.164 34.91 20.22c1.475.821 3.115.821 4.59 0l34.91-20.22C83.18 68.342 84 66.863 84 65.22V24.781c0-1.644-.82-3.123-2.295-3.945L46.795.616c-1.475-.821-3.115-.821-4.59 0l-34.91 20.22C5.82 21.658 5 23.137 5 24.78v40.438c0 1.644.82 3.123 2.295 3.945Z" fill="#06C"/><path d="M72.363 47.63v-2.959c0-16.603-9.834-26.137-27.043-26.137h-.82c-17.373.329-27.863 9.863-27.863 27.452 0 15.452 10.326 25.315 27.863 25.644h.492c10.817 0 24.093-3.452 26.06-16.603h-9.998c-2.13 7.069-9.506 10.028-16.554 10.028-10.817-.329-17.373-7.397-18.193-17.425h46.056Zm-45.892-6.904c1.639-10.685 8.359-15.452 17.865-15.78h.492c8.359 0 16.882 4.273 17.045 15.78H26.471Z" fill="#FFF"/></g></svg>