<svg viewBox="0 0 90 90" xmlns="http://www.w3.org/2000/svg"><path d="M88.889 32.916a3.336 3.336 0 0 0 0-4.717L61.68.977a3.332 3.332 0 0 0-4.714 0l-9.744 9.748a3.332 3.332 0 0 1-4.714 0l-9.653-9.703a3.332 3.332 0 0 0-4.715 0L.977 28.244a3.336 3.336 0 0 0 0 4.717l9.743 9.748a3.336 3.336 0 0 1 0 4.717L.977 57.084a3.336 3.336 0 0 0 0 4.717l27.208 27.222a3.332 3.332 0 0 0 4.715 0l9.743-9.748a3.332 3.332 0 0 1 4.714 0l9.743 9.748a3.332 3.332 0 0 0 4.715 0l27.208-27.222a3.336 3.336 0 0 0 0-4.717l-9.743-9.748a3.336 3.336 0 0 1 0-4.717l9.609-9.703Zm-19.621 17.43c0 10.466-8.53 19.001-18.992 19.001H39.59c-10.462 0-18.993-8.535-18.993-19.001V39.654c0-10.466 8.531-19.001 18.993-19.001h10.686c10.461 0 18.992 8.535 18.992 19.001v10.692Z" fill="#19BA19"/></svg>