<svg xmlns="http://www.w3.org/2000/svg" viewBox="0 0 90 90"><defs><linearGradient x1="60.986%" y1="0%" x2="60.986%" y2="100%" id="a"><stop stop-color="#F99F73" offset="0%"/><stop stop-color="#ED0000" offset="15.104%"/><stop stop-color="#5218F4" offset="33.762%"/><stop stop-color="#1C7AF5" offset="66.148%"/><stop stop-color="#00AEB5" offset="81.246%"/><stop stop-color="#00C54F" offset="100%"/></linearGradient><linearGradient x1="61.731%" y1="0%" x2="61.731%" y2="100%" id="b"><stop stop-color="#F99F73" offset="0%"/><stop stop-color="#ED0000" offset="15.104%"/><stop stop-color="#5218F4" offset="33.762%"/><stop stop-color="#1C7AF5" offset="66.148%"/><stop stop-color="#00AEB5" offset="81.246%"/><stop stop-color="#00C54F" offset="100%"/></linearGradient><linearGradient x1="58.899%" y1="0%" x2="58.899%" y2="100%" id="c"><stop stop-color="#F99F73" offset="0%"/><stop stop-color="#ED0000" offset="15.104%"/><stop stop-color="#5218F4" offset="33.762%"/><stop stop-color="#1C7AF5" offset="66.148%"/><stop stop-color="#00AEB5" offset="81.246%"/><stop stop-color="#00C54F" offset="100%"/></linearGradient></defs><path d="M0 0h90v90H0z"/><path d="M15 26.25C15 20.037 20.028 15 26.241 15h45.016c2.07 0 3.375 1.676 2.075 3.288C70.199 22.172 63.75 27.161 63.75 30 63.75 33.75 75 41.25 75 45S63.75 56.25 63.75 60c0 2.84 6.45 7.828 9.582 11.712 1.3 1.612-.004 3.288-2.075 3.288H26.24C20.028 75 15 69.963 15 63.75v-37.5Z" fill="#FFF"/><path d="M39.39 0c2.071 0 3.367 1.676 2.067 3.288-1.064 1.32-2.51 2.766-3.957 4.212-2.813 2.813-5.625 5.625-5.625 7.5s2.813 4.688 5.625 7.5c2.813 2.813 5.625 5.625 5.625 7.5s-2.813 4.688-5.625 7.5c-2.813 2.813-5.625 5.625-5.625 7.5s2.813 4.688 5.625 7.5c1.447 1.447 2.893 2.893 3.957 4.212 1.297 1.607.011 3.279-2.05 3.288h16.85c2.07 0 3.375-1.676 2.075-3.288-1.064-1.319-2.51-2.766-3.957-4.212-2.813-2.813-5.625-5.625-5.625-7.5s2.813-4.688 5.625-7.5C57.188 34.687 60 31.875 60 30s-2.813-4.688-5.625-7.5c-2.813-2.813-5.625-5.625-5.625-7.5s2.813-4.688 5.625-7.5c1.447-1.446 2.893-2.893 3.957-4.212C59.632 1.676 58.327 0 56.257 0H39.39Z" fill="url(#a)" transform="translate(15 15)"/><path d="M21.567 0c2.069.002 3.377 1.677 2.077 3.288-1.064 1.32-2.51 2.766-3.956 4.212-2.813 2.813-5.625 5.625-5.625 7.5s2.812 4.688 5.624 7.5c2.813 2.813 5.625 5.625 5.625 7.5s-2.812 4.688-5.625 7.5c-2.812 2.813-5.625 5.625-5.625 7.5s2.813 4.688 5.626 7.5c1.446 1.447 2.892 2.893 3.956 4.212 1.3 1.612-.01 3.288-2.08 3.288H39.39c2.071 0 3.367-1.676 2.067-3.288-1.064-1.319-2.51-2.766-3.957-4.212-2.813-2.813-5.625-5.625-5.625-7.5s2.813-4.688 5.625-7.5c2.813-2.813 5.625-5.625 5.625-7.5s-2.813-4.688-5.625-7.5c-2.813-2.812-5.625-5.625-5.625-7.5s2.813-4.687 5.625-7.5c1.447-1.446 2.893-2.893 3.957-4.212C42.757 1.676 41.46 0 39.39 0H21.567Z" fill="url(#b)" opacity=".5" transform="translate(15 15)"/><path d="M0 11.25C0 5.037 5.037 0 11.25 0h10.313c2.071 0 3.382 1.676 2.081 3.288-3.132 3.884-9.581 8.873-9.581 11.712 0 3.75 11.25 11.25 11.25 15s-11.25 11.25-11.25 15c0 2.84 6.449 7.828 9.581 11.712 1.3 1.612-.01 3.288-2.08 3.288H11.25C5.037 60 0 54.963 0 48.75v-37.5Z" fill="url(#c)" opacity=".2" transform="translate(15 15)"/></svg>