<svg viewBox="0 0 90 90" xmlns="http://www.w3.org/2000/svg"><g fill="none" fill-rule="evenodd"><path fill="#170D3F" d="M0 0h90v90H0z"/><g fill-rule="nonzero"><path d="M38.06 44.998 22.13 58.21A56.52 56.52 0 0 1 17 35.07c0-.272.081-.543.27-.706a52.589 52.589 0 0 1 3.672-3.31l17.119 13.945Zm28.082-14.026A56.507 56.507 0 0 1 73 57.966c-1.782 1.818-3.7 3.473-5.67 4.992l-16.2-17.472 15.012-14.514Z" fill="#FFF"/><path d="M28.124 67.543c1.647 2.279 3.51 4.422 5.509 6.457a55.805 55.805 0 0 0 30.052-8.79l-18.01-14.65-17.55 16.983Z" fill="#F85371"/><path d="M61.768 23.728c-1.701-2.387-3.619-4.612-5.698-6.728a55.745 55.745 0 0 0-25.165 5.996l13.771 14.921 17.092-14.189Z" fill="#00CE7D"/></g></g></svg>