<svg viewBox="0 0 90 90" xmlns="http://www.w3.org/2000/svg"><g fill="none" fill-rule="evenodd"><path fill="#FF7E37" d="M0 0h90v90H0z"/><path d="M67.25 24c-2.53 0-4.435 1.278-5.474 3.17L49.91 49.088V29.76c0-3.392-2.564-5.761-5.872-5.761-2.495 0-4.348 1.193-5.387 3.17L26.908 48.457V24.716H17V66.3h9.544l13.77-24.559v19.003c0 3.426 2.443 6.255 5.734 6.255 2.356 0 4.434-1.278 5.56-3.255 3.135-5.556 11.848-22.14 11.848-22.14v24.713H73V30.255C72.983 26.846 70.558 24 67.25 24Z" fill="#FFF" fill-rule="nonzero"/></g></svg>