<svg viewBox="0 0 90 90" xmlns="http://www.w3.org/2000/svg"><path d="M16.689 49.225c-.199-.393-.398-2.358-.398-3.537 0-6.29 4.57-11.596 16.292-11.596h6.159s-1.391.59-4.57 2.752c-2.98 2.162-17.483 12.381-17.483 12.381Zm48.675-4.716L87.814 28H76.69L59.8 40.578l-4.37-2.751H44.9l9.536 6.878-7.35 6.093c-3.776 3.144-9.14 7.468-16.888 7.468-3.18 0-7.55-.59-9.934-3.341l36.159-26.728H34.57c-13.51 0-20.464 7.468-20.464 16.705 0 1.965.397 4.323.993 5.503L0 61.214h11.523l6.954-5.11C21.06 59.249 26.424 62 31.987 62c9.338 0 17.88-5.896 20.86-8.254l6.756-5.307 17.88 12.775H90L65.364 44.509Z" fill="#FFCF01"/></svg>