<svg viewBox="0 0 90 90" xmlns="http://www.w3.org/2000/svg" xmlns:xlink="http://www.w3.org/1999/xlink"><defs><linearGradient x1="53.21%" y1="106.875%" x2="41.03%" y2="-10.981%" id="a"><stop stop-color="#0B46F9" offset="0%"/><stop stop-color="#BBFBE0" offset="100%"/></linearGradient><linearGradient x1="76.995%" y1="106.875%" x2="64.79%" y2="-10.981%" id="b"><stop stop-color="#0B46F9" offset="0%"/><stop stop-color="#BBFBE0" offset="100%"/></linearGradient><linearGradient x1="8.453%" y1="22.5%" x2="56.721%" y2="59.375%" id="d"><stop stop-color="#8952FF" stop-opacity=".87" offset="12%"/><stop stop-color="#DABDFF" stop-opacity="0" offset="100%"/></linearGradient><path id="c" d="M25.585 16.753 0 0v9.367l16.413 10.65-1.932 6.102H0v7.762h14.481l1.932 6.102L0 50.633V60l25.585-16.699L21.4 30.026l4.184-13.275z"/></defs><g fill="none" fill-rule="evenodd"><path fill="#191C41" d="M0 0h90v90H0z"/><path fill="url(#a)" fill-rule="nonzero" d="M59 16.753 33.415 0v9.367l16.413 10.65-1.931 6.102H33.415v7.762h14.482l1.931 6.102-16.413 10.65V60L59 43.301l-4.183-13.275L59 16.751z" transform="matrix(-1 0 0 1 75 15)"/><path fill="url(#b)" fill-rule="nonzero" d="M11.156 33.881h14.429V26.12H11.102l-1.878-6.102 16.36-10.65V0L0 16.753l4.183 13.275L0 43.301 25.639 60v-9.366L9.226 39.983z" transform="matrix(-1 0 0 1 75 15)"/><g transform="matrix(-1 0 0 1 41.585 15)"><mask id="e" fill="#fff"><use xlink:href="#c"/></mask><path fill="url(#d)" fill-rule="nonzero" mask="url(#e)" transform="matrix(-1 0 0 1 -8.19 0)" d="M-33.384 0h58.578v60h-58.578z"/></g></g></svg>