<svg viewBox="0 0 90 90" xmlns="http://www.w3.org/2000/svg"><g fill="none" fill-rule="evenodd"><path fill="#2B3649" d="M0 0h90v90H0z"/><path d="M62.8 16.175C71.56 21 77.234 28.267 79.27 37.977c2.158 10.443-.494 19.725-7.588 27.725-5.12 5.802-11.658 9.283-19.306 10.626-1.974.367-4.01.428-5.983.672.061 0 .061-.061 0-.061-3.208 0-6.354-.428-9.438-1.344-1.11-.305-1.727-1.221-1.418-2.198.308-.977 1.295-1.466 2.344-1.16 3.33.916 6.723 1.343 10.177 1.16 8.08-.489 14.989-3.664 20.54-9.527 4.01-4.275 6.539-9.344 7.402-15.145 1.234-8.428-.925-16-6.476-22.535-4.997-5.923-11.412-9.343-19.122-10.381-4.318-.611-8.512-.245-12.707.977-.616.183-1.171.183-1.727-.183-.616-.428-.863-.978-.801-1.71.123-.733.493-1.222 1.233-1.405 1.419-.366 2.837-.733 4.195-.977 7.833-1.282 15.297-.183 22.205 3.664ZM44.974 55.747c-.124.183-.247.245-.309.367A2869.75 2869.75 0 0 0 30.85 69.488c-.186.183-.432.244-.679.244h-8.759a.889.889 0 0 1-.617-.244c-3.886-3.725-6.846-8.183-8.697-13.252-.062-.122-.062-.306-.123-.489h33Zm3.947-18.32c.37 0 .617.06.864.366 2.159 2.076 4.256 4.153 6.415 6.229.432.427.432.488 0 .916-2.159 2.076-4.318 4.214-6.477 6.29-.185.183-.431.244-.678.244H10.74a33.687 33.687 0 0 1 0-14.046h38.181Zm-18.69-18.258c.186 0 .432.061.618.244 4.687 4.52 9.314 8.977 14.001 13.496-.061.061 0 .123.124.245h-33l.185-.55c1.85-5.069 4.75-9.466 8.635-13.19.185-.184.432-.245.679-.245h8.759Z" fill="#FFF" fill-rule="nonzero"/></g></svg>