<svg xmlns="http://www.w3.org/2000/svg" viewBox="0 0 90 90"><path fill="#FFF" d="M0 0h90v90H0z"/><path d="M71.834 38.98c2.88 12.819-3.707 25.884-15.725 31.19-12.018 5.307-26.11 1.373-33.642-9.392a23.59 23.59 0 0 1-2.448-4.251l24.535-17.164a5.557 5.557 0 1 0-.816-9.586 5.604 5.604 0 0 0-2.345 5.067l-23.171 16.21c-2.922-12.813 3.64-25.902 15.655-31.227 12.016-5.325 26.12-1.394 33.649 9.379a23.624 23.624 0 0 1 2.454 4.251L45.444 50.621a5.563 5.563 0 1 0 .816 9.592 5.615 5.615 0 0 0 2.345-5.067l23.229-16.165Zm7.629 12.098c3.355-19.034-9.354-37.185-28.387-40.54C32.043 7.18 13.894 19.89 10.538 38.924 7.18 57.958 19.89 76.109 38.922 79.465c19.04 3.347 37.187-9.372 40.54-28.41v.023Z" fill="#5FA624"/></svg>