<svg viewBox="0 0 90 90" xmlns="http://www.w3.org/2000/svg"><g fill="none"><path d="m89 44.986-.058 2.302-.169 2.303-.28 2.238-.389 2.219-.49 2.18-.593 2.153-.692 2.082-.791 2.047-.882 1.983-.97 1.938-1.07 1.88-1.144 1.833-1.229 1.769-1.306 1.707-1.385 1.62-1.457 1.585-1.528 1.471-1.597 1.43-1.664 1.322-1.727 1.256-1.784 1.174-1.843 1.086-1.898 1.003-1.939.894-2 .811-2.044.704-2.086.595-2.132.511-2.168.385-2.202.297-2.231.17-2.265.066C20.685 90 1 69.845 1 44.986S20.685 0 44.987 0C69.29 0 89 20.147 89 44.986Z" fill="#A87B00"/><path d="m87.176 44.986-.056 2.216-.163 2.197-.27 2.155-.372 2.13-.471 2.09-.568 2.046-.663 2.004-.756 1.963-.843 1.897-.931 1.855-1.018 1.812-1.097 1.749-1.175 1.705-1.252 1.621-1.322 1.576-1.398 1.493-1.462 1.421-1.527 1.342-1.596 1.3-1.654 1.19-1.71 1.13-1.766 1.023-1.818.96-1.867.874-1.917.767-1.96.682-2 .577-2.04.468-2.076.392-2.114.278-2.132.17-2.171.064c-23.3 0-42.179-19.339-42.179-43.153S21.702 1.856 45.007 1.856c23.304 0 42.169 19.316 42.169 43.13Z" fill="#D4B76A"/><path d="m85.472 44.964-.053 2.133-.155 2.11-.256 2.07-.356 2.049-.454 2.004-.543 1.96-.636 1.92-.727 1.877-.808 1.834-.894 1.784-.97 1.726-1.052 1.686-1.128 1.62-1.2 1.555-1.272 1.515-1.34 1.43-1.405 1.363-1.473 1.316-1.53 1.215-1.586 1.15-1.642 1.089-1.692 1-1.745.897-1.791.832-1.84.756-1.88.66-1.921.555-1.957.448-1.992.363-2.026.277-2.053.149-2.084.063c-22.349 0-40.47-18.527-40.47-41.404 0-22.876 18.121-41.384 40.466-41.384 22.344 0 40.465 18.527 40.465 41.382Z" fill="#091F62"/><path d="m44.995 16.971-1.41.044-1.39.105-1.372.17-1.357.236-1.318.315-1.299.397-1.274.446-1.242.492-1.214.553-1.182.618-1.146.666-1.111.726-1.074.793-1.035.83-.995.875-.955.94-.908.959-.855 1.023-.812 1.066-.764 1.086-.711 1.152-.66 1.172-.606 1.19-.549 1.234-.49 1.28-.43 1.311-.369 1.342-.308 1.344-.239 1.388-.176 1.407-.103 1.428-.039 1.43c0 15.478 12.258 28.036 27.391 28.036 15.047-.13 27.178-12.64 27.178-28.026 0-15.387-12.131-27.896-27.178-28.026l.002-.002Z" fill="#FFF"/><path d="m65.25 59.634.521-.793.493-.81.465-.831.434-.855.406-.872.376-.874.34-.896.311-.918.275-.938.243-.938.209-.98.17-.96.134-.98.097-1.003.058-.99.022-1.026h5.187l-.106-.212-5.099-.47c-.195-7.6-3.71-14.711-9.578-19.38a14.115 14.115 0 0 0 2.2-2.388c.36-.446.475-1.046.308-1.598a28.63 28.63 0 0 1-4.371 2.643c-.336-.213-.67-.446-1.012-.639v-.022h-.04a24.32 24.32 0 0 0-12.257-3.39v-5.223l-.213.107-.388 5.117c-13.303.271-24.068 11.23-24.402 24.79l-4.871.447-.107.214h4.961c.013 13.836 10.819 25.134 24.345 25.456l.43 5.095.22.107v-5.202c8.276-.022 15.735-4.393 20.239-10.788Z" fill="#D4B76A"/><path d="m69.298 44.964-.031 1.279-.095 1.28-.153 1.236-.214 1.217-.273 1.215-.328 1.172-.387 1.151-.437 1.13-.486 1.108-.535 1.067-.582 1.045-.632 1.023-.678.959-.721.938-.766.918-.805.852-.841.83-.882.77-.921.745-.954.704-.987.64-1.017.595-1.04.563-1.08.492-1.1.448-1.13.382-1.164.341-1.177.278-1.192.206-1.215.17-1.235.086-1.25.041c-9.838.006-18.71-6.05-22.48-15.341-3.77-9.292-1.694-19.991 5.26-27.108 6.952-7.116 17.413-9.25 26.504-5.404 9.09 3.846 15.02 12.913 15.024 22.972Z" fill="#D4B76A"/><path d="m8.93 36.543 5.858 1.598.277-1.045s-2.29-.638-2.557-.702c.071-.257.52-2.004.52-2.004l-.846-.236s-.458 1.749-.52 2.005c-.236-.064-1.368-.363-1.605-.448.074-.256.619-2.365.619-2.365l-.846-.215-.9 3.412Zm1.85-6.054 5.506 2.6L17.8 29.7l-.799-.385s-.969 2.133-1.064 2.39c-.23-.108-1.444-.685-1.671-.77l.847-1.897-.808-.363s-.731 1.644-.838 1.877c-.219-.085-1.221-.576-1.44-.662.112-.255 1-2.238 1-2.238l-.798-.382-1.449 3.219Zm4.178-7.654-1.31 1.854 4.91 3.625 1.31-1.855c.445-.59.636-1.34.53-2.076-.128-.81-.642-1.586-1.44-2.18-1.491-1.075-2.95-.86-4 .632Zm.555.755.05-.063.052-.066.057-.063.058-.085.06-.064.062-.063.066-.044.066-.063.07-.064.073-.043.074-.064.077-.043.08-.042.081-.022.086-.041.085-.022.089-.022.095-.022.093-.02h.194l.103.02h.106l.107.022.112.044.113.041.058.022.058.022.058.02.06.022.062.043.06.02.063.044.062.041.064.044.062.041.064.044.067.042c.632.47 1 .981 1.09 1.514.014.077.02.156.017.234-.003.362-.12.714-.333 1.003l-.669.96c-.229-.17-3.259-2.409-3.49-2.56.146-.222.538-.767.538-.767Zm2.907-5.075 4.178 4.5 2.64-2.559-.61-.66-1.851 1.812c-.171-.198-1.092-1.174-1.262-1.364.193-.17 1.457-1.43 1.457-1.43l-.6-.64s-1.274 1.237-1.468 1.43a48.975 48.975 0 0 0-1.092-1.174l1.745-1.705-.61-.64-2.527 2.43Zm6.297-5.287-1.679 1.152 3.346 5.154.888-.616s-1.188-1.87-1.334-2.068c.146-.105.365-.256.446-.319l2.738 1.152 1.107-.767s-2.908-1.13-3.201-1.237c.185-.309.286-.662.295-1.023.002-.364-.1-.72-.295-1.025a1.573 1.573 0 0 0-.97-.724 1.821 1.821 0 0 0-1.333.312l-.008.01Zm.194.938.05-.022.049-.041.048-.022.049-.022h.023l.025-.02h.024l.025-.022h.023l.025-.021h.07l.023-.022h.117l.023-.02h.066l.023.02h.087c.18.044.336.16.433.32.134.186.208.41.21.64 0 .384-.243.725-.724 1.066 0 0-.084.043-.155.085-.122-.198-.88-1.364-1.018-1.586.178-.107.52-.343.52-.343l-.016.01Zm5.71-4.179.065 6.653.944-.384s-.017-1.598-.017-1.785c.17-.063 1.973-.81 2.144-.896.128.149 1.221 1.3 1.221 1.3l1.067-.447-4.506-4.833-.919.392Zm.945 1.259.035.042.04.043.042.042.044.044.047.041.048.066.05.041.055.064.052.065.056.063.113.108.114.126.117.13.114.126.056.044.054.063.055.064.05.043.05.064.049.043.045.064.042.041.043.044.037.042.033.043.03.022.028.02.023.043a42.28 42.28 0 0 0-1.498.619c.015-.35-.002-1.737-.008-2.27l-.016.01Zm4.577-3.156 1.204 6.056 3.594-.747-.18-.874s-2.264.47-2.534.533c-.056-.297-1.033-5.202-1.033-5.202l-1.05.234Zm9.57 4.99.992.129s.735-1.43.824-1.586l2.324.253c.05.199.458 1.727.458 1.727l1.15.149-1.697-6.439-.97-.127-3.082 5.894Zm3.295-4.306.012.063.015.042.016.065.017.064.02.063.015.064.021.085.02.065.02.086.02.085.043.149.043.17.044.17.043.15.021.085.022.085.021.065.017.085.02.064.02.063.015.064.017.065.016.064.015.063.012.044.013.041v.044l.01.022a34.42 34.42 0 0 1-1.613-.199c.184-.281.82-1.496 1.064-1.986l-.019.01Zm4.529 5.638.936.3 3.854-5.288-.97-.3s-2.424 3.327-2.84 3.902l-.335-4.882-1.099-.341.454 6.609Zm4.195 1.621.97.47 2.59-5.6-.97-.47-2.59 5.6Zm2.287.98.832.577 1.448-1.025 1.9 1.344c-.039.198-.374 1.748-.374 1.748l.956.682 1.434-6.502-.806-.577-5.39 3.753Zm4.888-2.238-.012.043-.011.064-.014.041-.014.066-.015.085-.014.063-.017.064-.018.085-.015.085-.02.064-.034.172-.035.17-.037.171-.037.149-.017.085-.016.085-.02.086-.013.063-.017.064-.016.085-.013.065-.016.064-.012.043-.013.064-.01.041v.044l-.01.042v.043c-.26-.198-1.075-.747-1.335-.938a64.859 64.859 0 0 1 1.795-1.258h.006Zm4.934 3.24-.02.025h-.017l-.02.021-.025.042-.029.022-.035.042-.037.021-.03.05-.045.063-.049.042-.05.044-.05.05-.059.063-.06.065-.124.127-.145.14-.142.171-.151.149-.153.148-.161.17-.163.171-.33.343-.162.199-.163.17-.161.15-.153.171-.151.149-.144.149-.134.15-.126.127-.058.064-.056.065-.054.063-.05.042-.05.044-.042.063-.042.044-.037.02-.035.043-.03.042-.024.022-.02.021-.017.022-.01.02.766.77s3.41-3.597 3.604-3.811c.193.198 1.46 1.451 1.46 1.451l.618-.64-3.684-3.668-.618.64 1.468 1.45Zm-.652 7.124.66.874 4.797-3.796-.659-.853-4.798 3.775Zm4.335.616c-1.687.938-2.257 2.538-1.444 4.072.322.657.894 1.15 1.582 1.366.763.234 1.669.105 2.549-.385 1.692-.938 2.264-2.537 1.448-4.072-.816-1.534-2.44-1.919-4.14-.98h.005Zm-.661 3.646-.031-.064-.033-.063-.025-.066-.024-.063-.02-.064-.02-.063-.016-.065-.015-.042v-.063l-.01-.066v-.341l.017-.105.024-.085.02-.101.034-.107.045-.086.046-.085.052-.085.057-.085.064-.085.064-.086.066-.085.07-.063.071-.066.074-.063.073-.064.074-.063.074-.066.073-.041.072-.066.072-.041.066-.044.068-.041.062-.022.058-.042c.415-.236 1.221-.595 1.938-.384.388.132.708.418.888.792.134.243.208.515.214.793 0 .938-.945 1.586-1.427 1.856-.613.327-2.096.946-2.82-.42h.005Zm1.192 4.3.275.959s3.26-.981 4.025-1.19c-.539.639-3.274 3.836-3.274 3.836l.277.982 5.816-1.727-.27-.96s-3.259.982-4.024 1.19c.539-.619 3.274-3.816 3.274-3.816l-.275-.991-5.824 1.716ZM8.948 54.943h.262l.062.02h.289l.08.021h.327l.082.022h.234l.076.022h.347l.021.02h.07c.056.17.717 2.218.775 2.388-.147.13-1.419 1.216-1.419 1.216l.376 1.173 5.27-4.5-.318-.98-6.86-.425.326 1.023Zm2.833.17h.234l.062.02h.29l.08.022h.258l.177.022h.182l.178.021h.264l.083.02h.233l.072.022h.24c-.405.363-1.55 1.344-1.807 1.556-.098-.319-.44-1.364-.546-1.687v.004Zm-.105 7.137 1.214 2.067a2.806 2.806 0 0 0 1.744 1.388c.822.212 1.76.042 2.654-.512.824-.511 1.357-1.151 1.551-1.897.194-.745.023-1.492-.448-2.303l-1.213-2.09-5.502 3.347Zm5.27-1.9v.022l.01.022.016.022.014.042.017.021.016.022.02.042.019.022.017.041.021.044.041.063.04.064.043.087.018.02.021.043.02.022.017.042.018.022.017.041.015.022.014.022.014.022v.086c.235.368.37.795.387 1.235 0 .595-.302 1.215-1.205 1.77-1.807 1.108-2.672.107-2.957-.396 0 0-.448-.767-.618-1.067l3.964-2.396Zm-.611 9.153.717.748s2.231-2.26 3.069-3.093l-1.807 3.81.715.753s2.76-1.28 3.804-1.77l-3.079 3.113.749.769 4.546-4.586-.898-.937s-3.738 1.748-4.366 2.026c.303-.619 2.086-4.393 2.086-4.393l-.992-1.023-4.544 4.583Zm6.825 6.376.92.662 3.658-5.353-.914-.66-3.664 5.35Zm3.664 2.452.929.448s1.564-3.39 1.906-4.116l.684 5.373.944.448 2.74-5.906-.931-.438s-1.551 3.37-1.906 4.115c-.106-.852-.674-5.352-.674-5.352l-.954-.468-2.738 5.896Zm7.561 3.2 1.076.318 1.725-6.29-1.083-.319-1.718 6.29Zm4.447-3.882v.428l.016.085.02.085.02.086.026.063.03.085.036.064.034.065.04.064.042.085.045.063.048.064.05.043.053.064.054.063.056.066.056.063.06.044.123.105.124.107.128.107.128.107.128.085c.61.468 1.14.874 1.058 1.493-.072.575-.61.793-1.076.723-.593-.085-1.082-.382-1.562-.703l-.214-.127-.145 1.19.097.043c.5.245 1.033.41 1.582.49 1.745.233 2.361-.938 2.45-1.6.138-1.13-.7-1.749-1.442-2.324-.56-.426-1.05-.81-.985-1.278.023-.236.3-.704.97-.595a3.27 3.27 0 0 1 1.197.49l.326.17.138-1.088-.1-.042a4.094 4.094 0 0 0-1.422-.47c-1.417-.188-2.094.833-2.183 1.537h-.006Zm5.122-1.003.05.916s1.881-.086 2.15-.106l.285 5.585 1.117-.064s-.27-5.287-.287-5.586c.27-.02 2.15-.105 2.15-.105l-.048-.94-5.417.3Zm8.887-1.13-2.06.533 1.593 6.332 1.091-.278s-.582-2.28-.644-2.557c.171-.044.466-.129.582-.149.112.105 2.326 2.11 2.326 2.11l1.344-.361s-2.565-2.197-2.776-2.38c.468-.389.747-.968.763-1.585a2.047 2.047 0 0 0-.046-.448 1.66 1.66 0 0 0-.727-1.045c-.585-.359-1.252-.214-1.44-.172h-.006Zm-.122 1.003.06-.022h.058l.058-.022h.35l.026.022h.072l.023.022h.047l.021.02h.023l.02.021h.021l.021.022h.022a.731.731 0 0 1 .325.47c.035.125.054.253.057.383a.924.924 0 0 1-.13.491c-.171.32-.522.532-1.026.66a.978.978 0 0 1-.194.022c-.058-.214-.422-1.685-.49-1.919.21-.065.641-.17.641-.17h-.005Zm5.366-2.922.521 6.994.939-.47s-.132-1.683-.14-1.876c.163-.085 2.045-1.022 2.216-1.108l1.368 1.279 1.084-.533-5.067-4.758-.921.472Zm1.074 1.237.039.043.044.02.045.044.05.063.054.044.055.042.058.063.062.044.062.063.062.065.132.127.134.107.131.127.132.13.066.063.064.063.06.044.06.063.056.044.057.063.052.042.05.043.047.044.04.042.041.043.035.042.03.022.025.021-1.565.793-.178-2.414Zm2.442-3.073.555.747s1.496-1.173 1.71-1.344c.178.256 3.315 4.457 3.315 4.457l.888-.704s-3.127-4.2-3.308-4.435c.212-.17 1.71-1.344 1.71-1.344l-.554-.723-4.316 3.346Zm5.367-4.496 4.598 4.522.775-.833-4.602-4.52-.771.831Zm5.311-5.907h-.066l-.065.021-.064.02-.064.022-.066.032-.064.022-.062.02-.064.021-.06.044-.062.02-.06.021-.059.044-.062.042-.058.021-.058.042-.056.044-.056.041-.057.044-.054.044-.054.041-.053.044-.052.063-.052.042-.049.043-.05.064-.05.044-.049.063-.045.063-.048.044-.045.063-.042.064-.045.063c-1.02 1.537-.593 3.285 1.082 4.457.864.594 1.803.852 2.632.682a2.742 2.742 0 0 0 1.8-1.279c.45-.627.632-1.414.504-2.18-.156-.831-.716-1.642-1.586-2.239-.87-.596-1.803-.876-2.64-.705v-.002Zm-.048 4.712-.039-.022-.043-.022-.042-.042-.045-.021-.046-.044-.045-.042-.046-.043-.049-.02-.046-.044-.05-.041-.05-.066-.048-.041-.048-.044-.049-.042-.048-.063-.047-.044-.046-.063-.045-.044-.046-.063-.041-.064-.043-.065-.038-.063-.04-.042-.036-.065-.035-.086-.031-.063-.029-.064-.027-.063-.025-.065-.022-.086-.02-.063-.015-.085a1.634 1.634 0 0 1 .285-1.237 1.59 1.59 0 0 1 1.018-.724c.776-.129 1.59.32 2.005.619.6.426 1.905 1.534.994 2.898-.91 1.364-2.42.557-3.022.13v-.001Zm2.466-11.833-.316.809s3.396 1.366 4.145 1.663c-.813.17-5.188 1.066-5.188 1.066l-.388 1.002 5.948 2.388.366-.981s-3.388-1.364-4.139-1.663c.807-.17 5.19-1.065 5.19-1.065l.374-.99-5.936-2.38-.056.15Zm1.981-10.277h1.745l.547-1.705.529 1.705h1.745L79.836 45l.53 1.707-1.4-1.045-1.41 1.045.537-1.707-1.415-1.039Zm-67.991.022h1.744l.547-1.705.522 1.705h1.758l-1.417 1.045.552 1.707-1.415-1.045-1.41 1.045.53-1.707-1.411-1.045Z" fill="#FFF"/><path d="m68.737 48.184-.176.34-.194.344-.194.319-.215.319-.229.32-.248.328-.254.32-.267.299-.28.297-.29.3-.305.297-.316.3-.327.277-.337.277-.35.276-.362.247a27.026 27.026 0 0 0 .919-8.08h3.631a26.32 26.32 0 0 1-.206 3.22Zm-4.301 11.09-.27.34-.287.341-.3.341-.318.32-.332.32-.345.32-.358.299-.375.297-.387.3-.398.277-.413.276-.424.255-.434.278-.442.232-.458.258-.47.233a26.647 26.647 0 0 0 5.58-9.616c1.776-1.152 3.251-2.452 4.343-3.923a24.662 24.662 0 0 1-3.912 8.851Zm-9.814 8.186.285-.234.281-.214.278-.234.275-.235.27-.213.267-.234.26-.235.258-.256a22.956 22.956 0 0 0 3.101-1.427 24.186 24.186 0 0 1-5.275 3.28v.002Zm-3.373 1.216-.364.107-.367.085-.368.085-.37.085-.373.086-.376.063-.374.063-.388.064a43.244 43.244 0 0 0 1.468-1.917 32.157 32.157 0 0 0 4.868-1.045 29.515 29.515 0 0 1-3.356 2.322v.002Zm-6.242.872v-1.834a38.73 38.73 0 0 0 3.65-.198c-.488.64-.996 1.28-1.522 1.919a21.49 21.49 0 0 1-2.128.113Zm9.04-11.195-.221.512-.231.511-.252.514-.25.511-.258.512-.268.511-.279.511-.283.51-.298.533-.303.514-.318.511-.325.512-.34.507-.343.513-.355.512-.362.511c-1.445.174-2.9.26-4.354.26v-7.483a41.176 41.176 0 0 0 9.036-.982h.004Zm-9.04-12.489a42.074 42.074 0 0 0 8.74-.896h2.663c.27 4.116-.388 8.273-1.978 12.408a40.645 40.645 0 0 1-9.425 1.084V45.864Zm1.888-25.392-.099.063-.103.086-.106.063-.107.085-.11.086-.113.065-.112.085-.117.086-.116.105-.122.085-.12.085-.122.107-.126.107-.126.085-.126.107-.13.106v-1.491c.622-.004 1.24.032 1.851.081l.004.004Zm7.367 1.856-.545-.086-.54-.065-.532-.064-.527-.041-.524-.044-.514-.041-.513-.022-.504-.022-.5-.022H48.09l-.479.022-.473.022-.469.041-.465.044a12.53 12.53 0 0 1 2.132-1.407 23.35 23.35 0 0 1 5.929 1.68l-.004.005Zm3.136 1.659-.432.198-.432.198-.43.17-.43.15-.425.17-.423.149-.423.128-.417.15a22.763 22.763 0 0 0-5.877-2.487 36.303 36.303 0 0 1 8.877.894c.132.101.27.194.412.28ZM59.5 25.48l.052.021.055.044.052.042.052.043.05.042.053.043.025.02.027.022.026.022.023.022c-2.736 2.26-6.115 3.134-6.376 3.171a.307.307 0 0 1 .04-.198c2.695-1.185 4.537-2.252 5.92-3.296v.002Zm4.422 15.18.08.397.075.385.066.382.056.4.054.397.05.385.044.396.036.385-5.253-.47a20.7 20.7 0 0 0 4.792-2.658v.002Zm-9.455-6.377.03-.043.028-.042.028-.063.025-.044.025-.042.021-.043.024-.042.023-.044.021-.041.02-.044.036-.085.035-.085.031-.085.03-.064.025-.085.025-.066.023-.085.021-.063.022-.064.017-.063.02-.066c-1.216.56-2.528.872-3.86.918a.184.184 0 0 1 .04-.085c.064-.022.285-.063.285-.063 3.372-.704 5.766-2.39 6.264-2.964.247-.29.43-.633.535-1.003a22.407 22.407 0 0 1 4.653 7.442c.308.815.572 1.648.789 2.494-1.702 1.363-3.941 2.515-6.557 3.39h-.106a28.973 28.973 0 0 0-.535-3.028 30.936 30.936 0 0 0-2.038-5.842Zm-5.854-7.61-.471.107-.464.105-.46.107-.449.107-.442.127-.436.107-.427.129-.418.127V23.09h.098a35.824 35.824 0 0 1 3.469 3.582Zm.87-.198-.194-.236-.194-.212-.194-.214-.182-.213-.194-.214-.184-.198-.182-.212-.194-.198-.184-.198-.18-.199-.18-.198-.18-.17-.18-.17-.178-.2-.176-.17-.175-.17a23.019 23.019 0 0 1 6.231 2.28c-1.105.364-2.214.642-3.28.898v-.006Zm8.454 2.973-.246.17-.25.151-.252.15-.256.128-.256.149-.254.107-.254.127-.256.107-.252.107-.248.105-.246.085-.24.087-.239.085-.23.064-.225.085-.22.064-.21.043-.195.064-.193.041-.185.044-.172.041-.163.044-.15.022-.137.041-.122.022-.11.022-.094.02h-.079l-.062.022h-.085s.025-.127.066-.127c2.679-.793 4.447-1.586 5.66-2.367-.017.042-.04.042-.066.063.074.101.148.187.221.25v-.016Z" fill="#0A6826"/><path d="M47.448 40.254h.102l.055-.022h.14l.082-.021h.088l.1-.022.107-.02.116-.022.12-.022.129-.021.13-.02.135-.044.14-.044.145-.02.146-.043.147-.042.15-.065.148-.042.15-.063.149-.065.15-.064.147-.063.143-.086.142-.085.14-.085.133-.085.128-.107.126-.107c1.646-1.28 1.522-2.687 1.522-2.687a12.996 12.996 0 0 1-3.9 1.089.342.342 0 0 1 .088-.198 13.724 13.724 0 0 0 4.546-1.749c.218-.152.422-.323.611-.511l-.017.041a29.735 29.735 0 0 1 1.85 5.353c.21.916.364 1.833.488 2.75l-7.51-.683c1.356-1.19 1.384-2.452 1.384-2.452-2.088.944-2.65.327-2.65.327ZM62.842 55.05l-.258.656-.275.66-.295.66-.314.64-.335.64-.355.64-.376.618-.388.618-.415.619-.438.618-.455.595-.481.575-.498.594-.522.553-.54.556-.565.553a28.883 28.883 0 0 1-5.847 1.536 42.206 42.206 0 0 0 4.512-8.25 31.37 31.37 0 0 0 7.845-3.081Zm-7.452 2.067.27-.745.248-.767.226-.767.208-.748.194-.767.167-.767.143-.748.124-.767.105-.767.083-.745.062-.761.043-.77.023-.745v-.767l-.02-.748-.038-.767h7.223a26 26 0 0 1-1.163 8.848c-2.231 1.38-4.905 2.51-7.9 3.298h.002Zm5.04-30.891.52.468.506.47.494.511.48.49.466.533.45.533.438.555.415.545.405.577.388.575.374.595.365.632.339.619.324.618.304.64.287.66c-.407 1.408-1.285 2.709-2.55 3.902-.203-.745-.44-1.47-.707-2.196a23.605 23.605 0 0 0-5.292-8.23 7.289 7.289 0 0 0 1.66-1.704c.164-.238.278-.508.334-.793Zm8.503 17.994-3.683-.341a25.65 25.65 0 0 0-.57-3.816 10.307 10.307 0 0 0 2.786-3.626 25.162 25.162 0 0 1 1.467 7.783ZM44.27 21.362l-.085-.063-.082-.064-.083-.063-.078-.066-.08-.063-.08-.063-.078-.064-.08-.044-.075-.063-.074-.044-.075-.063-.074-.044-.07-.063-.072-.042-.067-.043-.068-.042c.431-.044.863-.065 1.295-.065l-.074.96Zm-1.287 48.1-.194-.233-.194-.236-.194-.256-.194-.234-.193-.234-.194-.236-.369-.49c.88.086 1.768.13 2.67.15l.155 1.855a28.12 28.12 0 0 1-1.293-.085Zm-4.226-.725-.44-.278-.43-.255-.425-.278-.415-.297-.41-.278-.4-.299-.388-.297-.388-.3c1.59.439 3.21.76 4.847.96.465.64.951 1.28 1.465 1.919a23.499 23.499 0 0 1-3.016-.597Zm-8.53-4.328.368.199.372.198.388.17.388.17.387.171.4.17.403.15.41.17a30.742 30.742 0 0 0 2.159 1.784 23.927 23.927 0 0 1-5.273-3.182h-.002Zm-4.548-4.74v.022a24.774 24.774 0 0 1-4.265-9.553c1.116 1.586 2.671 3.008 4.57 4.245a26.765 26.765 0 0 0 5.766 9.806c-2.555-1.167-4.656-2.702-6.071-4.52Zm-4.653-11.917-.035-.341-.03-.341-.028-.363-.025-.341-.02-.363-.011-.34v-.704h3.774c-.1 2.741.213 5.483.929 8.127-2.11-1.534-3.684-3.348-4.537-5.33l-.017-.004Zm1.386-11.449.116.256.125.256.133.234.144.255.15.236.162.234.169.234.176.236.194.234.194.234.194.234.209.214.219.234.225.214.232.212.24.214a26.78 26.78 0 0 0-.58 3.838l-3.837.341a24.985 24.985 0 0 1 1.543-7.904l-.008-.006Zm8.902-11.599-.02.044-.015.063-.017.064-.016.044-.011.063-.012.063-.013.064-.01.043-.012.064v.406c0 .874.376 1.661 1.06 2.409a23.425 23.425 0 0 0-6.67 11.022c-1.32-1.19-2.24-2.516-2.662-3.943a24.59 24.59 0 0 1 8.406-10.4l-.008-.006Zm1.66-1.003.6-.127.592-.107.582-.126.581-.086.582-.085.568-.085.562-.066.554-.063.551-.063.545-.022.537-.044.53-.02.526-.022h1.04l.505.022a22.44 22.44 0 0 0-8.95 4.647c-.547-.575-.855-1.19-.855-1.834 0-.644.331-1.294.963-1.913l-.013-.006Zm10.761 4.308-.178.063-.17.066-.168.063-.164.064-.161.063-.153.085-.154.066-.147.063-.143.086-.14.063-.138.065-.131.086-.13.063-.128.085-.12.064-.119.085-.114.063-.11.086-.11.085-.104.065-.103.086-.097.085-.193.17-.173.149-.163.17-.15.17-.137.2c-.397-.086-.796-.15-1.178-.235a37.14 37.14 0 0 1 5.302-6.343l-.326 4.119Zm-1.312 19.572.91 10.83a41.22 41.22 0 0 1-7.655-1.001c-1.61-4.157-2.283-8.307-2.018-12.452h2.623a39.96 39.96 0 0 0 7.86.875l-1.72 1.748Zm-6.353 10.81.436.085.438.085.444.086.446.085.448.063.455.066.913.127.925.107.936.085.945.063.951.044.644 7.52a32.811 32.811 0 0 1-3.282-.213 42.2 42.2 0 0 1-4.692-8.197l-.007-.006Zm-1.026-.236.212.514.22.53.233.514.24.512.25.511.258.533.27.512.28.511.286.512.297.533.306.511.318.512.324.511.333.512.347.533.355.512a31.35 31.35 0 0 1-5.777-1.406 26.124 26.124 0 0 1-6.644-9.936 30.664 30.664 0 0 0 7.9 3.075l-.008-.006Z" fill="#0A6826"/><path d="m32.803 44.964-.037.767-.017.748v.767l.023.767.047.767.062.748.085.767.105.767.128.767.145.748.165.767.194.767.207.767.227.767.248.748.27.767c-3.013-.793-5.717-1.919-7.949-3.327a26.077 26.077 0 0 1-1.19-8.869h7.287Zm-1.921-1.641-5.294.47c.087-1.06.242-2.114.463-3.154a21.11 21.11 0 0 0 4.831 2.684Zm6.523-12.537-.306.512-.3.513-.295.532-.285.533-.28.555-.27.555-.262.575-.252.575-.245.577-.234.594-.223.619-.21.594-.193.639-.194.618-.175.64-.163.66a27.56 27.56 0 0 0-.542 3.05h-.01c-2.656-.894-4.944-2.068-6.686-3.454.217-.83.476-1.648.775-2.452a22.441 22.441 0 0 1 5.816-8.591c1.086.878 2.637 1.623 4.534 2.156Zm.489-.793-.34-.085-.329-.107-.32-.085-.314-.105-.306-.13-.295-.106-.29-.107-.28-.127-.27-.129-.259-.127-.252-.129-.242-.148-.23-.127-.22-.15-.211-.128-.194-.15c2.615-2.195 5.887-3.88 9.87-4.71a37.642 37.642 0 0 0-5.518 6.654v-.004Zm1.654 12.43-.113.022-.108.022-.109.021h-.105l-.102.02-.1.022-.096.022h-.093l-.093.022-.088.02h-.085l-.081.021h-.08l-.073.022h-.072l-.068.022h-.128l-.058.02h-.151l-.041.021h-.147l-.018.022h-.021l-3.666.32c.117-.924.282-1.84.492-2.746a31.42 31.42 0 0 1 3.91-9.276c.388.086.8.17 1.206.256-1.91 4.209 4.013 9.83.088 11.147Zm2.15-21.806.046.022.049.021.05.02.052.022.055.044.054.02.056.043.058.022.058.041.06.022.125.086.13.085.133.085.142.085.145.107.15.105.153.107.157.107.162.13.167.126.17.129a33.066 33.066 0 0 0-8.355.297 22.512 22.512 0 0 1 6.183-1.726Z" fill="#0A6826"/><path d="m45.23 14.436 1.093 12.834-1.28.384-.015-13.325.202.107ZM42.42 47.63l-27.258-2.433-.105-.198h59.942l-.114.198-27.302 2.433-2.41 27.93-.17.106V45l-2.582 2.63Zm7.616-18.238v-.053h-.016s-6.785-.198-8.55 5.031a.711.711 0 0 0-.017.3c.025.149.04.468.04.468s.742-4.18 7.339-4.988a1.838 1.838 0 0 0 1.204-.75v-.007Z" fill="#A87B00"/><path d="M48.4 32.087v-.02h-.016s-5.163.042-6.328 4.072a.575.575 0 0 0-.017.234c.017.107.033.362.033.362s.57-3.197 5.414-3.986c.372-.102.696-.337.913-.662Zm-1.418 2.605v-.042s-3.72.359-4.35 3.3a.438.438 0 0 0 0 .171l.025.256s.351-2.298 3.585-3.09c0 0 .585-.108.74-.595Z" fill="#A87B00"/></g></svg>