<svg viewBox="0 0 90 90" xmlns="http://www.w3.org/2000/svg"><g fill="none" fill-rule="evenodd"><path fill="#FFF" fill-rule="nonzero" d="M0 0h90v90H0z"/><path d="M45.002 14C27.329 14 13 25.522 13 39.737V51.26C13 65.475 27.329 77 45.002 77 62.675 77 77 65.475 77 51.261V39.737C77 25.523 62.675 14 45.002 14ZM34.614 52.13h-3.169v12.469h-2.948c-2.35 0-4.426-1.823-4.426-4.421V40.482c0-6.08 2.787-13.693 11.158-15.578 8.474-1.91 10.844 2.291 10.844 2.291s-5.302-.073-9.456 3.212c-2.365 1.87-5.089 5.994-5.172 10.683v5.793c5.231 1.016 9.419-.746 10.654-1.303l.212-.027s-.375 6.576-7.697 6.576Zm20.271-19.634c6.556 0 12.455 4.807 12.455 15.084v6.851c0 6.3-4.587 10.665-11.143 10.665H54.72c-6.992 0-11.8-3.978-11.8-9.448 0-5.305 3.824-9.338 14.642-9.338h2.566v-.388c0-4.2-1.966-7.184-6.337-7.184-5.299 0-8.247 2.044-9.341 3.426h-.273V39.79c0-3.316 2.95-7.293 10.707-7.293Zm5.299 19.118h-2.621c-5.574 0-7.156 1.325-7.156 3.757 0 2.321 1.857 3.702 5.079 3.702 3.168 0 4.698-1.547 4.698-4.586v-2.873Z" fill="#1A1919"/></g></svg>