<svg viewBox="0 0 90 90" xmlns="http://www.w3.org/2000/svg"><g fill="none" fill-rule="evenodd"><path fill="#FFF" d="M0 0h90v90H0z"/><path d="M78.43 65.903A30.504 30.504 0 0 1 61 53.993c-1.001.476-4.509 2.598-14.509 1.949A26.817 26.817 0 0 1 28.04 45.85c9.68.925 19.426.925 29.106 0a32.553 32.553 0 0 1-.784-3.53c-3.726 0-20.196.217-30.087-2.577C15.185 36.69 10 24 10 24a503.251 503.251 0 0 1 57.537 7.753 3.471 3.471 0 0 1 2.897 3.335c0 15.158 4.728 23.82 9.194 29.3.719.952.436 1.927-1.198 1.515Z" fill="#000" fill-rule="nonzero"/></g></svg>