<svg viewBox="0 0 90 90" xmlns="http://www.w3.org/2000/svg"><path d="M21.7 8c-5.205.221-10.491 1.872-14.396 5.433C2.788 17.386.656 23.383 0 29.213v1.854c.246 5.009 2.397 9.816 5.891 13.39 10.535 10.713 21.176 21.32 31.811 31.927 2 1.973 3.848 4.161 6.29 5.616h1.816c2.687-.93 4.34-3.396 6.364-5.236C60.001 68.756 68.17 61.084 75.81 52.9L52.886 29.833c2.586-2.599 5.147-5.23 7.777-7.78 2.139-2.124 5.122-3.351 8.15-3.105 6.15.082 11.24 6.388 10.111 12.448-.662 5.262-5.6 8.12-8.685 11.909l7.745 7.401c2.58-2.125 4.996-4.732 7.191-7.256 6.125-7.236 6.435-18.613.834-26.24-3.665-5.358-9.866-8.685-16.281-9.21h-3.18c-4.75.538-9.43 2.34-12.962 5.63-10.629 10.39-21.03 21.016-31.672 31.395-2.467-2.435-4.914-4.883-7.368-7.33-2.6-2.593-3.98-6.438-3.217-10.088 1.041-5.42 6.61-9.494 12.092-8.583 5.286.563 8.124 5.648 11.934 8.703l7.659-7.293C38.25 14.337 31.824 8.455 23.693 8h-1.994Zm23.52 34.079c5.177.055 10.145 4.17 10.68 9.454 1.03 6.565-5.216 13.023-11.808 12.125-6.434-.228-11.133-7.287-9.525-13.384.928-4.016 4.378-7.273 8.434-7.962a9.604 9.604 0 0 1 2.22-.233Zm-.115 3.773c-3.839 0-6.95 3.12-6.95 6.97 0 3.848 3.111 6.968 6.95 6.968 3.838 0 6.95-3.12 6.95-6.969a6.994 6.994 0 0 0-.678-3.003 2.961 2.961 0 0 1-1.706.549 2.963 2.963 0 0 1-2.098-.871 2.979 2.979 0 0 1-.869-2.104 2.98 2.98 0 0 1 .3-1.275 6.935 6.935 0 0 0-1.9-.265Z" fill="#2799F6"/></svg>