<svg viewBox="0 0 90 90" xmlns="http://www.w3.org/2000/svg"><g fill="none"><path fill="#189C74" d="M0 0h90v90H0z"/><path d="M24.317 60.985h-2.164v6.894h-1.497v-6.894h-1.39l.188-1.145h1.202v-2.05c0-.665.16-1.197.481-1.623.32-.4.802-.612 1.39-.612.694 0 1.256.08 1.683.213l-.24 1.25a3.077 3.077 0 0 0-.989-.16c-.187 0-.347.028-.454.054-.107.027-.187.133-.267.266a2.36 2.36 0 0 0-.134.613c-.027.266-.027.612-.027 1.064v.985h2.191v1.145h.027Zm14.35-1.465-.32 1.625h-.509c-.16 0-.347.026-.534.08a1.932 1.932 0 0 0-.534.24l-.481.318a1.99 1.99 0 0 0-.321.373v5.697H34.39v-8.066h1.23l.187 1.331c.507-.559.962-.985 1.39-1.251.4-.266.854-.373 1.362-.373h.107v.027Zm14.056 8.36h-1.497v-4.74c0-.745-.16-1.304-.454-1.65-.294-.346-.775-.506-1.443-.506-1.443 0-2.138.745-2.138 2.236v4.658h-1.496v-4.445c0-.932-.16-1.57-.481-1.917-.32-.372-.802-.532-1.416-.532-1.043 0-1.737.346-2.138 1.038v5.856h-1.497v-8.065h1.15l.16.851c.427-.399.828-.665 1.202-.798a3.605 3.605 0 0 1 1.23-.213c1.229 0 2.137.532 2.725 1.624.561-1.065 1.55-1.624 2.966-1.624 2.058 0 3.1 1.145 3.1 3.46v4.765h.027Zm17.984 0h-1.31l-.16-1.012a1.75 1.75 0 0 1-.508.479c-.214.133-.427.266-.641.373a3.06 3.06 0 0 1-.695.24c-.24.052-.454.079-.641.079-.508 0-.989-.106-1.443-.32a3.487 3.487 0 0 1-1.176-.904 4.366 4.366 0 0 1-.775-1.331 4.726 4.726 0 0 1-.294-1.624c0-.56.08-1.092.267-1.597.187-.506.428-.959.749-1.331.32-.373.721-.692 1.175-.905a3.528 3.528 0 0 1 1.497-.346c1.095 0 1.924.346 2.485 1.011v-5.137h1.496v12.324h-.026Zm-3.822-6.895c-.347 0-.668.08-.962.213-.267.133-.507.346-.721.585a2.88 2.88 0 0 0-.454.906c-.107.346-.16.745-.16 1.17 0 .4.053.773.16 1.119.107.346.24.665.454.905.187.266.427.452.721.612.294.16.615.24.962.24.321 0 .642-.054.962-.16a2.22 2.22 0 0 0 .802-.532c.24-.24.428-.533.561-.879a3.49 3.49 0 0 0 .214-1.251c0-.452-.08-.878-.214-1.224a2.717 2.717 0 0 0-.561-.932c-.24-.24-.508-.453-.802-.586a2.67 2.67 0 0 0-.962-.186m-5.157 6.841h-1.31l-.16-1.011a1.75 1.75 0 0 1-.507.479 7.971 7.971 0 0 1-.642.372 3.06 3.06 0 0 1-.695.24c-.24.053-.454.08-.64.08-.509 0-.99-.107-1.444-.32a3.487 3.487 0 0 1-1.176-.905 4.366 4.366 0 0 1-.775-1.33 4.726 4.726 0 0 1-.293-1.624c0-.56.08-1.092.267-1.598.187-.505.427-.958.748-1.33.32-.373.721-.693 1.176-.906a3.528 3.528 0 0 1 1.496-.346c1.096 0 1.924.346 2.485 1.012v-.825h1.497v8.012h-.027Zm-3.848-6.894c-.347 0-.668.08-.962.213-.267.133-.508.346-.721.585a2.88 2.88 0 0 0-.455.905c-.107.346-.16.746-.16 1.172 0 .399.053.772.16 1.118.107.346.24.665.455.905.187.266.427.452.721.612.267.16.615.24.962.24.32 0 .641-.054.962-.16.294-.107.561-.293.802-.533.24-.24.427-.532.56-.878a3.49 3.49 0 0 0 .215-1.251c0-.453-.08-.879-.214-1.225a2.717 2.717 0 0 0-.561-.931c-.24-.24-.508-.453-.802-.586a2.473 2.473 0 0 0-.962-.186m-25.546 6.894h-1.31l-.16-1.011a1.75 1.75 0 0 1-.508.479 7.971 7.971 0 0 1-.641.372 3.06 3.06 0 0 1-.695.24c-.24.053-.454.08-.641.08-.508 0-.989-.107-1.443-.32a3.487 3.487 0 0 1-1.176-.905 4.366 4.366 0 0 1-.775-1.33 4.726 4.726 0 0 1-.294-1.624c0-.56.08-1.092.267-1.598.187-.505.428-.958.749-1.33a3.528 3.528 0 0 1 2.672-1.251c1.095 0 1.924.345 2.485 1.01v-.824h1.496v8.012h-.026Zm-3.848-6.894c-.348 0-.668.08-.936.213-.293.133-.507.346-.721.585a2.88 2.88 0 0 0-.454.905c-.107.346-.16.746-.16 1.172 0 .399.053.772.16 1.118.107.346.24.665.454.905.187.266.428.452.721.612.268.16.615.24.962.24.321 0 .642-.054.936-.16.294-.107.56-.293.801-.533a2.5 2.5 0 0 0 .562-.878c.133-.346.213-.772.213-1.251 0-.453-.08-.879-.213-1.225a2.717 2.717 0 0 0-.562-.931c-.24-.24-.507-.453-.801-.586a2.473 2.473 0 0 0-.962-.186m30.463-26.247c-4.783-.266-11.384.639-15.285 1.091.267.959.427 2.023.561 3.088 1.657-1.171 3.795-2.342 5.665-3.008-1.576 1.784-2.806 3.887-5.318 4.738.134.826.214 1.65.455 2.37 1.363-2.05 3.687-3.328 5.772-4.818 1.282-.932 2.485-1.997 3.848-2.556-2.94 3.141-5.505 6.682-9.433 8.838.32.665.24 1.703.641 2.289 2.512-3.194 5.932-5.776 9.14-8.385 1.068-.879 2.11-1.784 3.286-2.37-3.875 4.286-7.456 8.865-12.159 12.299.348.745.401 1.783.909 2.369 1.764-3.035 4.516-5.217 7.055-7.56 2.538-2.342 5.103-4.712 7.776-6.655-4.463 5.058-8.498 10.568-13.923 14.668h.642c.801 0 1.71-.08 2.645-.187 2.993-3.833 6.814-6.974 10.368-10.275.588-.559 1.07-1.357 1.924-1.544-3.18 3.7-5.985 7.773-9.379 11.287a31.093 31.093 0 0 0 2.699-.746c1.576-1.597 3.287-3.114 4.943-4.631.936-.852 1.844-1.704 2.833-2.396.374-1.225.615-2.689.695-4.233-1.016-2.182-2.886-3.487-6.36-3.673" fill="#FFF"/><path d="M43.317 33.407c7.161-.585 18.384-2.529 22.072 2.502-.053-2.182-.347-4.312-.909-5.909l-.053-.213c0-.106-.347-2.848-3.127-4.472-3.1-1.81-8.925-3.354-12.693-3.354h-7.562a17.5 17.5 0 0 0-2.271.16c2.512 2.768 3.554 7.027 4.543 11.286m-1.924 2.476c-7.67.4-14.564-.745-16.007-6.815-.134.453-.16.719-.16.746l-.054.213c-1.282 3.726.615 16.237 3.18 17.728 3.1 1.81 8.925 3.354 12.693 3.354h4.035c-2.11-4.339-2.619-10.488-3.687-15.226" fill="#FFF"/><path d="M41.018 33.7c-.026-.825-.213-1.49-.374-2.183-.534.133-1.042 1.092-1.844 1.278.348-1.198.615-2.476 1.47-3.194-.16-.4-.32-.852-.374-1.358-.561 1.331-1.657 2.21-2.645 3.274-.642.692-1.23 1.464-1.924 1.73 1.202-2.235 2.03-4.844 4.195-6.095-.32-.56-.428-1.358-.828-1.837-.562 1.57-1.844 2.742-2.94 3.913-1.069 1.171-2.191 2.396-3.394 3.194 1.898-2.795 3.287-6.095 5.96-8.119-.401-.399-.482-1.118-1.016-1.357-.641 1.89-2.245 3.168-3.474 4.552-1.256 1.384-2.378 2.981-3.848 3.913 2.085-3.035 3.715-6.495 6.413-8.918a21 21 0 0 0-1.763.4c-.748 1.038-1.71 1.943-2.565 2.848-1.283 1.41-2.566 2.928-4.036 3.913 1.417-1.943 2.593-4.1 4.009-6.016-.722.24-1.39.506-2.004.772-.99 1.065-2.005 2.13-3.1 2.875.454-.586.855-1.278 1.256-1.943a6.275 6.275 0 0 0-2.485 2.688c1.149 5.91 8.444 6.176 15.311 5.67m19.508 14.454c.267-.133.534-.266.774-.426 2.806-1.65 3.127-4.445 3.127-4.472l.027-.106c-1.31 1.65-2.592 3.354-3.928 5.004" fill="#FFF"/><path d="M13.292 62.493c.002.004.005.008-.004.02L31.46 90H0V55.8a14.981 14.981 0 0 1 13.292 6.693Z" fill="#F2BB00"/><path d="M90 0v33.644l-1.424.824c-7.07 4.094-16.095 1.77-20.323-5.174l-.19-.32L51.373 0H90Z" fill="#1E6EB6"/></g></svg>