<svg xmlns="http://www.w3.org/2000/svg" viewBox="0 0 90 90"><path fill="#FFF" d="M0 0h90v90H0z"/><path d="M49.242 45h34.285a5.981 5.981 0 0 1-1.757 4.243L49.243 81.77a6 6 0 0 1-8.486 0L26.615 67.627 49.242 45Zm-28.285 0h22.628L23.787 64.8 12.473 53.485 20.957 45ZM6.473 45H15.3l-5.655 5.657-1.415-1.414A5.981 5.981 0 0 1 6.473 45Z" fill="#20B5FF"/><path d="M67.627 26.615 81.77 40.757A5.981 5.981 0 0 1 83.527 45H49.242l18.385-18.385ZM53.485 12.473 64.8 23.787 43.586 45H20.959l32.526-32.527ZM40.757 8.23a6 6 0 0 1 8.485 0l1.415 1.415L15.302 45H6.473c0-1.536.586-3.071 1.757-4.243L40.757 8.23Z" fill="#019EEB"/></svg>