<svg viewBox="0 0 90 90" xmlns="http://www.w3.org/2000/svg"><g fill="none" fill-rule="evenodd"><path fill="#0067B9" d="M0 0h90v15L0 75z"/><path fill="#69B3E7" d="M90 15v75H0V75z"/><circle fill="#FFF" cx="45" cy="45" r="34"/><g fill-rule="nonzero"><path d="M74.57 25.284c10.89 16.33 6.479 38.394-9.85 49.283-16.33 10.888-38.396 6.478-49.285-9.852l-7.873 5.243C21.345 90.634 49.28 96.223 69.958 82.44c20.676-13.783 26.265-41.718 12.481-62.395l-7.868 5.239Z" fill="#69B3E7"/><path d="M9.357 44.836c0-15.696 10.296-29.533 25.331-34.04 15.035-4.509 31.247 1.38 39.883 14.488l7.868-5.243C68.655-.635 40.72-6.223 20.041 7.56-.635 21.347-6.223 49.282 7.561 69.959l7.874-5.243a35.364 35.364 0 0 1-6.078-19.88Z" fill="#0067B9"/><path d="M23.503 59.097h41.276c.832 0 1.507-.675 1.507-1.508v-27L23.503 59.096Z" fill="#333E48"/><path fill="#FFC107" d="M44.895 44.836 23.503 30.588V59.11z"/></g></g></svg>