<svg xmlns="http://www.w3.org/2000/svg" viewBox="0 0 90 90"><defs><linearGradient x1="66.053%" y1="42.171%" x2="22.002%" y2="97.742%" id="a"><stop stop-color="#356BE4" offset="0%"/><stop stop-color="#0000FA" offset="100%"/></linearGradient><linearGradient x1="28.858%" y1="55.133%" x2="100%" y2="50%" id="b"><stop stop-color="#00A5F8" offset="0%"/><stop stop-color="#3C64E1" offset="100%"/></linearGradient><linearGradient x1="80.482%" y1="6.586%" x2="15.698%" y2="94.407%" id="c"><stop stop-color="#00C1D5" offset="0%"/><stop stop-color="#00BCDC" offset="48.349%"/><stop stop-color="#00A3FB" offset="100%"/></linearGradient></defs><path fill="#FFF" d="M0 0h90v90H0z"/><path d="M29.235 28.534c4.028 0 7.293 2.996 7.293 6.692 0 1.622-.629 3.109-1.675 4.267l-.323.344-.032.032c-.1.111-.205.22-.312.325l-.132.146-.242.256-.328.338-.187.207-.362.374a6.553 6.553 0 0 1-.372.395l-.775.815-.12.132-.474.498-.102.101-.137.152-.484.51a6.158 6.158 0 0 1-.204.215l-.131.14-.234.237-.095.102a5.76 5.76 0 0 1-.322.343l-1.21 1.276a6.434 6.434 0 0 1-.188.198 6.78 6.78 0 0 1-.185.195c-.059.065-.12.13-.183.193a5.384 5.384 0 0 1-.19.2l-.157.168a5.853 5.853 0 0 1-.202.212 5.18 5.18 0 0 1-.251.261l-.208.22-.166.182-.386.4-.16.178-.309.314-.653.695-.046.046-.097.105-.266.278a4.765 4.765 0 0 1-.202.213l-.042.047c-.045.05-.092.098-.14.145l-.043.048a4.95 4.95 0 0 1-.139.144l-.043.048a4.925 4.925 0 0 1-.197.2l-.044.048a4.98 4.98 0 0 1-.272.291c-.074.082-.15.16-.23.236l-.223.24-.15.166-.301.307-.099.107a4.38 4.38 0 0 1-.325.343l-.458.482a5.368 5.368 0 0 1-.204.215 4.377 4.377 0 0 1-.175.184c-.062.07-.126.137-.192.203a4.35 4.35 0 0 1-.177.187 4.22 4.22 0 0 1-.165.175l-.055.052-.223.245-.228.233a4.164 4.164 0 0 1-.235.253c-.064.072-.13.142-.198.209a3.954 3.954 0 0 1-.237.244l-.24.254a4.03 4.03 0 0 1-.3.317c-.045.05-.093.099-.141.146l-.24.266-.29.296a4.05 4.05 0 0 1-.183.193 3.919 3.919 0 0 1-.177.187 3.34 3.34 0 0 1-.192.203 3.71 3.71 0 0 1-.187.196c-.058.067-.118.13-.181.192a3.466 3.466 0 0 1-.18.19c-.073.083-.15.163-.232.24l-.08.084a3.942 3.942 0 0 1-.212.23c-.081.092-.166.18-.256.265-.673.734-1.68 1.2-2.807 1.2-2.023 0-3.664-1.505-3.664-3.362 0-.608.176-1.18.484-1.671l.068-.126a4.04 4.04 0 0 1 .097-.186c.058-.128.125-.252.199-.37l.033-.064.04-.068c.04-.084.083-.166.13-.247.039-.08.08-.158.125-.234.041-.085.086-.167.134-.248a2.42 2.42 0 0 1 .106-.202c.04-.082.082-.162.128-.24.038-.08.08-.158.125-.234l.077-.15.115-.2c.052-.116.11-.228.174-.336l.076-.146.105-.186c.055-.12.116-.237.182-.35a3.62 3.62 0 0 1 .164-.3l.089-.16c.037-.077.077-.152.12-.225l.075-.146c.064-.139.137-.274.217-.404l.02-.042a3.88 3.88 0 0 1 .229-.426l.056-.103c.038-.078.08-.155.123-.23a4.49 4.49 0 0 1 .132-.247c.036-.073.074-.146.115-.217a4.85 4.85 0 0 1 .12-.225 4.49 4.49 0 0 1 .132-.247 3.83 3.83 0 0 1 .12-.226l.082-.156.106-.186a4.43 4.43 0 0 1 .183-.353l.078-.15.118-.208c.049-.105.102-.209.16-.31l.083-.16.17-.303.058-.109c.069-.148.145-.292.23-.432l.439-.82c.044-.09.09-.178.14-.264.038-.077.079-.152.121-.225a4.15 4.15 0 0 1 .12-.222l.17-.327.191-.354.085-.161.09-.159.085-.171.1-.185c.06-.119.124-.235.193-.348l-.001-.001.048-.102c.04-.08.083-.16.127-.238l.088-.166.166-.296.245-.457c.037-.074.076-.147.116-.22a6.02 6.02 0 0 1 .135-.25l.246-.462c.034-.07.071-.139.11-.207l.06-.116.178-.332c.039-.076.078-.15.12-.224.04-.078.08-.157.124-.234l.231-.434.08-.14.087-.174.188-.353.157-.278.17-.323.25-.468.124-.246.188-.336c.044-.088.091-.176.14-.262.029-.057.059-.113.09-.168l.068-.133.206-.381c.036-.073.075-.144.115-.215.033-.066.068-.132.104-.197.041-.082.084-.163.13-.243l.066-.115.09-.18.212-.394.059-.103.097-.194.189-.351.141-.25.185-.365.18-.32c.041-.082.084-.162.128-.242 1.159-2.288 3.686-3.875 6.617-3.875Z" fill="url(#a)" transform="translate(26 15)"/><path d="M29.39 28.287c4.048 0 7.33 3.011 7.33 6.725 0 3.715-3.282 6.725-7.33 6.725l-3.076-.002-.184.002-.177-.001H23.42l-.18.001-.178-.001h-4.344l-.18.001-.178-.001h-4.344l-.18.001-.178-.001H8.951l-.18.001-.178-.001h-.72l-.181.001c-4.048 0-7.33-3.01-7.33-6.725 0-3.638 3.15-6.601 7.083-6.72l.247-.005.181.002.181-.002.181.002.18-.002.179.002.176-.002.182.002.181-.002.182.002.18-.002.182.002.18-.002.182.002.18-.002.186.003.184-.003.178.002.178-.002.181.002.18-.002.183.002.18-.002.181.002.181-.002.182.002.18-.002.181.002.182-.002.182.002.18-.002.182.002.18-.002.178.002.178-.002.18.002.181-.002.181.002.182-.002.182.002.18-.002.181.002.182-.002.18.002.181-.002.182.002.181-.002.181.002.182-.002.18.002.181-.002.182.002.18-.002.183.002.18-.002.181.002.18-.002.183.002.18-.002.179.002.176-.002.182.002.18-.002.182.002.18-.002.182.002.18-.002.183.002.18-.002.182.002.181-.002.181.002.18-.002.182.002.18-.002.183.002.18-.002.182.002.181-.002.181.002.18-.002.182.002.18-.002.183.002.18-.002.178.002.177-.002.182.002.181-.002.181.002.18-.002.183.002.18-.002.181.002.181-.002.181.002.18-.002.182.002.182-.002.182.002.18-.002.179.002.176-.002c.062 0 .124.001.185.003l.184-.003.182.002.18-.002.179.002.177-.002.182.002.18-.002.181.002.182-.002.18.002.181-.002.182.002.18-.002.182.002.182-.002.18.002.181-.002Z" fill="url(#b)" transform="translate(26 15)"/><path d="M27.007 0C33.078 0 38 4.516 38 10.087c0 2.749-1.198 5.24-3.141 7.06-.156.168-.316.33-.483.488a9.98 9.98 0 0 1-.52.529c-.161.177-.33.348-.504.513a10.26 10.26 0 0 1-.639.64l-.157.165-.267.262c-.162.178-.331.35-.507.516-.163.178-.333.35-.51.518a9.865 9.865 0 0 1-.59.597 9.652 9.652 0 0 1-.472.477 9.65 9.65 0 0 1-.51.518 9.49 9.49 0 0 1-.522.532 9.55 9.55 0 0 1-.576.58 8.807 8.807 0 0 1-.46.467 9.635 9.635 0 0 1-.56.566c-.157.171-.32.336-.49.496a9.293 9.293 0 0 1-.531.539 9.212 9.212 0 0 1-.56.564c-.148.16-.3.315-.46.464a9.097 9.097 0 0 1-.525.535c-.184.204-.38.4-.583.589a8.277 8.277 0 0 1-.457.461c-.18.2-.37.392-.568.575-.155.17-.316.333-.484.49a8.6 8.6 0 0 1-.524.532 8.509 8.509 0 0 1-.557.562 8.46 8.46 0 0 1-.488.493 8.08 8.08 0 0 1-.511.52 8.2 8.2 0 0 1-.564.57 7.82 7.82 0 0 1-.479.485c-.18.2-.37.392-.57.575-.15.166-.31.327-.476.481a7.872 7.872 0 0 1-.515.524 7.842 7.842 0 0 1-.558.565 7.65 7.65 0 0 1-.508.511c-.159.179-.327.35-.504.512a7.528 7.528 0 0 1-.549.555 7.73 7.73 0 0 1-.491.496 7.42 7.42 0 0 1-.553.559 7.416 7.416 0 0 1-.497.502l-.045.05c-.148.163-.304.32-.467.47a7.055 7.055 0 0 1-.561.567c-.15.167-.308.327-.474.48-1.343 1.525-3.4 2.5-5.704 2.5-4.048 0-7.329-3.01-7.329-6.725 0-1.326.418-2.562 1.14-3.604.126-.232.265-.456.417-.671.108-.194.225-.383.352-.566.119-.219.25-.431.393-.636a6.71 6.71 0 0 1 .406-.654c.107-.193.224-.381.35-.564.126-.23.265-.454.416-.67a7.52 7.52 0 0 1 .36-.578c.113-.206.237-.407.37-.601.129-.234.27-.46.423-.68.108-.193.225-.382.35-.565.117-.212.244-.418.38-.617.13-.234.27-.46.422-.677.107-.19.222-.376.345-.556.128-.231.268-.456.419-.674.11-.195.228-.385.355-.57.116-.21.242-.416.378-.614.127-.232.267-.456.418-.673a7.99 7.99 0 0 1 .355-.571c.116-.208.241-.411.375-.609.129-.23.269-.455.419-.673.109-.192.226-.38.35-.563a8.15 8.15 0 0 1 .429-.69c.105-.185.218-.366.337-.543.116-.207.24-.41.373-.606a8.78 8.78 0 0 1 .437-.704c.107-.187.221-.37.342-.55.082-.145.168-.29.258-.431l.128-.195a8.74 8.74 0 0 1 .409-.658c.11-.195.23-.385.355-.572a8.88 8.88 0 0 1 .425-.684c.108-.187.222-.371.343-.55a9.49 9.49 0 0 1 .38-.619c.12-.212.248-.42.384-.622.096-.171.198-.34.306-.504l.124-.187c.103-.178.212-.353.326-.525.12-.213.248-.421.384-.625.123-.217.253-.428.392-.635.145-.256.301-.504.469-.746.095-.161.194-.32.298-.476.12-.213.249-.422.385-.626.122-.216.253-.427.39-.633a9.57 9.57 0 0 1 .412-.66C19.12 2.181 22.786 0 27.007 0Z" fill="url(#c)" transform="translate(26 15)"/></svg>