<svg viewBox="0 0 90 90" xmlns="http://www.w3.org/2000/svg"><path d="M75 13.92V1S53.394 7.085 38.227 9.192C32.898 9.934 14 12.874 14 12.874l19.725 9.874 4.525-1.341c4.753-1.413 9.484-2.25 9.484-2.25l-.116 23.55-13.332 3.15c-1.234-1.68-3.208-2.657-5.442-2.657a6.772 6.772 0 0 0-6.36 4.472 6.853 6.853 0 0 0 1.982 7.554h-.23l-3.58 5.922c-2.962.287-5.17 2.88-5 5.874.17 2.993 2.657 5.317 5.632 5.262.08 0 .15-.02.226-.023l4.483 5.721c-.692 1.106-.865 2.414-.865 3.82 0 3.975 3.2 7.198 7.145 7.198 3.947 0 7.146-3.223 7.146-7.199s-3.2-7.199-7.146-7.199a7.76 7.76 0 0 0-2.681.485l-3.832-4.967c.74-.95 1.087-2.137 1.087-3.436 0-1.569-.414-2.982-1.445-4.001l3.494-5.847c3.328-.024 6.144-2.485 6.638-5.8l12.083-3.077v31.952l11.324-1.978V52.487l14.558-2.838-.116-17.808-14.442 2.562.008-17.475L75 13.92Z" fill="#FECB52"/></svg>