<svg xmlns="http://www.w3.org/2000/svg" viewBox="0 0 90 90"><path fill="#141824" d="M0 0h90v90H0z"/><path d="M28.382 73c-.044-.11-.11-.241-.153-.373-.392-.92-.872-2.324-1.264-4.188-1.133-5.525-1.57-10.524 1.264-10.174 2.855.351 9.045 8.464 9.045 8.464s.501.35-2.332 1.535c.349.044 5.078-2.215 9.807-2.215 4.054 0 7.149 1.623 9.525 2.28-.872-.284-2.289-1.25-2.332-1.6-.044-.35 7.148-8.814 9.197-8.442 3.03.549 2.811 6.074 1.613 10.503-.284 1.009-.85 2.28-1.352 3.399-.13.285-.24.548-.348.811H75V17H15v56h13.382Z" fill="#FFF"/></svg>