<svg viewBox="0 0 90 90" xmlns="http://www.w3.org/2000/svg"><g fill="none"><path fill="#128741" d="M0 0h90v90H0z"/><path d="M45 6c21.54 0 39 17.46 39 39S66.54 84 45 84 6 66.54 6 45 23.46 6 45 6Zm0 2C24.565 8 8 24.565 8 45c0 15.497 9.527 28.768 23.043 34.277l7.962-24.594h18.308l-3.944-2.523H39.568l5.633-17.102-9.013 14.579 2.817 1.962H35.06l-3.38 5.327-14.646 7.57h-.282l18.308-15.42-23.377 2.803v-.28l22.532-6.729-22.814-6.728v-.28l23.378 2.522-18.308-14.859L37.033 36.74 26.048 15.993 39.85 35.338l-1.69-24.111h.281l6.197 23.27 7.041-22.71h.282l-2.816 23.27 15.21-17.662-11.55 20.465L73.93 27.206h.281l-18.87 14.019 23.94-1.683-23.378 5.608 22.315 7.774-23.441-3.569 18.308 15.7v.281l-14.083-7.85 9.633 15.98C76.801 66.682 82 56.448 82 45 82 24.565 65.435 8 45 8Z" fill="#FFF"/></g></svg>