<svg viewBox="0 0 90 90" xmlns="http://www.w3.org/2000/svg"><g fill="none" fill-rule="evenodd"><path fill="#FFF" fill-rule="nonzero" d="M0 0h90v90H0z"/><path d="M45 12c-18.225 0-33 14.775-33 33s14.775 33 33 33 33-14.775 33-33-14.775-33-33-33ZM27.421 22.201h20.573a4.023 4.023 0 0 1 3.41-1.885 4.024 4.024 0 0 1 4.029 4.03 4.018 4.018 0 0 1-4.029 4.021 4.028 4.028 0 0 1-3.45-1.953H25.196v39.363c0 .041 0 .075-.007.116a29.07 29.07 0 0 0 6.84 4.818V53.602c0-.04.006-.061.006-.102 0-.04.007-.061.014-.102.007-.034.014-.061.02-.102.007-.034.014-.061.02-.102.008-.034.021-.061.028-.102.007-.041.02-.061.034-.102.014-.041.027-.062.034-.096.014-.034.027-.06.041-.095.014-.027.034-.054.04-.095.014-.034.035-.055.048-.089a.367.367 0 0 0 .048-.088c.02-.027.041-.048.055-.089.02-.027.04-.047.054-.081.02-.027.04-.048.061-.082.02-.027.041-.048.062-.075l.074-.075c.028-.02.048-.04.082-.06.027-.021.048-.042.082-.062.027-.02.047-.04.081-.055a.224.224 0 0 1 .089-.047.367.367 0 0 1 .088-.048c.034-.013.055-.034.096-.04.034-.007.054-.028.095-.042.034-.013.061-.027.095-.04.034-.014.061-.02.102-.034a.567.567 0 0 1 .102-.028c.034-.006.062-.02.102-.027l.102-.02c.035-.007.062-.014.103-.014.04 0 .06-.007.102-.013.034 0 .06-.007.102-.007h7.112a4.023 4.023 0 0 1 3.41-1.885 4.024 4.024 0 0 1 4.028 4.028 4.028 4.028 0 0 1-7.48 2.076h-4.927V72.14c0 .096-.006.184-.02.28a29.186 29.186 0 0 0 8.793 1.354c2.736 0 5.39-.381 7.901-1.096V50.88a4.024 4.024 0 0 1 2.157-7.425 4.024 4.024 0 0 1 4.03 4.029c0 1.47-.79 2.763-1.974 3.464V71.12a28.902 28.902 0 0 0 5.437-3.301v-20.41c0-.04.007-.061.007-.102 0-.04.007-.061.014-.102.006-.034.013-.061.02-.102.007-.034.014-.061.02-.102.007-.041.02-.061.028-.102.013-.034.02-.062.034-.102.013-.034.02-.062.034-.102.013-.034.027-.062.04-.096.014-.027.035-.054.041-.095.014-.034.034-.054.048-.088.014-.028.034-.055.048-.089a.406.406 0 0 0 .054-.088c.014-.028.041-.048.055-.082.02-.027.04-.048.06-.082a.388.388 0 0 1 .076-.075c.027-.02.04-.04.075-.074.027-.02.047-.041.081-.062.027-.02.048-.04.082-.06.027-.021.048-.042.088-.055.028-.02.055-.041.089-.048.027-.014.054-.034.088-.048a.203.203 0 0 1 .096-.04c.034-.014.054-.028.095-.041.034-.014.061-.028.095-.041.034-.014.061-.027.102-.034a.448.448 0 0 1 .102-.027.77.77 0 0 0 .102-.028l.103-.02c.034-.007.06-.007.102-.014.04-.006.06-.006.102-.006.04 0 .06-.007.102-.007h9.174v-.402A28.676 28.676 0 0 0 66.79 26.15v9.065c0 .034-.007.06-.007.109 0 .04-.006.06-.013.102-.007.034-.014.06-.02.102-.007.034-.014.061-.021.102-.007.034-.02.061-.027.102-.014.034-.02.061-.034.102-.014.04-.027.061-.041.102-.014.04-.027.061-.04.095-.014.034-.035.055-.042.096-.007.034-.034.054-.047.095-.02.034-.034.054-.048.088a.386.386 0 0 0-.054.089c-.02.027-.041.047-.062.081-.02.028-.04.048-.06.082a.388.388 0 0 1-.076.075.388.388 0 0 0-.075.075.366.366 0 0 1-.081.061c-.028.02-.048.041-.082.061-.027.02-.048.041-.088.055-.028.02-.055.04-.089.047-.034.02-.054.034-.095.048-.034.014-.055.034-.095.04l-.096.042c-.034.013-.061.027-.102.04l-.102.035a.567.567 0 0 1-.102.027c-.034.007-.061.013-.102.02-.034.007-.061.014-.102.02-.034.007-.061.007-.11.014-.04.007-.06.007-.108.007H36.248v4.28a4.013 4.013 0 0 1 1.96 3.458 4.024 4.024 0 0 1-4.029 4.029 4.014 4.014 0 0 1-4.015-4.036c0-1.436.749-2.695 1.871-3.403v-6.54c0-.034.007-.061.007-.102 0-.04.007-.061.014-.102.007-.04.013-.061.02-.102.007-.04.014-.061.02-.102.008-.04.021-.061.028-.102.007-.041.02-.061.034-.102.014-.041.027-.061.034-.095.014-.035.027-.062.04-.096.014-.027.035-.054.042-.095.013-.034.034-.054.047-.095.02-.034.034-.055.048-.089a.406.406 0 0 0 .054-.088c.02-.027.041-.048.055-.082.02-.027.04-.048.061-.082.02-.027.04-.047.061-.074l.075-.075a.366.366 0 0 1 .082-.062c.027-.02.047-.04.082-.06.027-.021.047-.042.081-.055a.224.224 0 0 1 .089-.048.367.367 0 0 1 .088-.048c.034-.013.055-.034.095-.04.041-.007.055-.028.096-.041.034-.014.06-.027.095-.041.034-.014.061-.027.102-.034.034-.007.061-.02.102-.027.041-.007.061-.02.102-.028.041-.006.061-.013.102-.02.034-.007.062-.014.102-.014.041 0 .062-.006.102-.006.041 0 .062-.007.103-.007h28.474V22.399c0-.061 0-.13.007-.19a28.54 28.54 0 0 0-17.565-6.003A28.697 28.697 0 0 0 27.42 22.2ZM16.206 45c0-5.873 1.756-11.338 4.777-15.877V60.89A28.64 28.64 0 0 1 16.206 45Zm57.214 4.607h-6.67v14.244a28.557 28.557 0 0 0 6.67-14.244Z" fill="#000"/></g></svg>