<svg viewBox="0 0 90 90" xmlns="http://www.w3.org/2000/svg"><g fill="none"><path fill="#6AC48A" d="M0 0v90h90V0z"/><path d="M33.525 50.475 51.45 75.806l-5.625 2.363-18.956-26.813 6.656-.881Zm13.144-1.706L51.244 74.7 43.05 62.362l-2.269-12.825 5.888-.768Zm-6.075-34.313 4.837 27.038 10.35-1.875 1.032 5.831-30.3 5.419 2.68-6.488 10.35-1.875-3.75-21.187 4.8-6.863Zm21.975 2.794.918 5.25-5.83 1.031-.844-4.743 5.756-1.538Zm-6.957-5.4 6.863 4.8-19.744 3.488-1.537-5.738 14.418-2.55Z" fill="#FFF"/></g></svg>