<svg viewBox="0 0 90 90" xmlns="http://www.w3.org/2000/svg"><g fill="none"><path d="M72.126 5.04C51.276 9.026 32.17 14.577 16.1 22.292A1.944 1.944 0 0 0 15 24v39.57c0 1.868.494 3.704 1.434 5.322a10.68 10.68 0 0 0 3.919 3.896l18.786 10.79a10.787 10.787 0 0 0 10.71 0l18.798-10.79a10.678 10.678 0 0 0 3.918-3.896A10.593 10.593 0 0 0 74 63.57V6.55a1.507 1.507 0 0 0-.565-1.211 1.531 1.531 0 0 0-1.31-.298Z" fill="#FFF"/><path d="M69.851 8.332C50.72 11.99 33.185 17.084 18.44 24.163a1.784 1.784 0 0 0-1.01 1.568v36.312c0 1.714.454 3.398 1.316 4.883a9.8 9.8 0 0 0 3.596 3.576l17.24 9.9a9.903 9.903 0 0 0 9.828 0l17.25-9.9a9.802 9.802 0 0 0 3.596-3.576 9.724 9.724 0 0 0 1.316-4.883V9.717a1.388 1.388 0 0 0-1.087-1.387 1.407 1.407 0 0 0-.633.002Z" fill="#0068AD"/><path d="M69.851 8.332c-8.84 1.693-17.318 3.705-25.353 6.061v67.305a9.85 9.85 0 0 0 4.911-1.295l17.25-9.901a9.802 9.802 0 0 0 3.596-3.576 9.72 9.72 0 0 0 1.316-4.883V9.717a1.382 1.382 0 0 0-.518-1.112 1.404 1.404 0 0 0-1.202-.273Z" fill="#FFF" opacity=".07"/><path d="M59.959 18.75c-13.353 1.714-25.58 4.995-35.872 9.405a1.192 1.192 0 0 0-.704 1.045v8.778a.208.208 0 0 1 .12-.194c10.697-4.64 23.54-8.061 37.587-9.775h.063v-8.213a1.038 1.038 0 0 0-.357-.794 1.054 1.054 0 0 0-.837-.251ZM46.643 34.467a118.012 118.012 0 0 0-22.582 6.552 1.154 1.154 0 0 0-.684 1.044v8.778a.183.183 0 0 1 .116-.183 117.124 117.124 0 0 1 23.14-6.792l.01-9.4Z" fill="#020404" opacity=".29"/><path d="M61.4 16.138c-13.873 2.66-26.59 6.792-37.286 11.939a1.296 1.296 0 0 0-.731 1.123v8.778a.219.219 0 0 1 .126-.199c11.117-5.418 24.475-9.76 39.074-12.456l.069-.031v-8.15a1.011 1.011 0 0 0-.793-1.005 1.027 1.027 0 0 0-.46.001ZM48.252 32.105a144.174 144.174 0 0 0-24.16 8.882 1.28 1.28 0 0 0-.731 1.134v8.772a.213.213 0 0 1 .127-.198 143.11 143.11 0 0 1 24.764-9.17v-9.42Z" fill="#FFF"/><path d="M32.512 51.667a83.362 83.362 0 0 0-8.498 2.241 1.011 1.011 0 0 0-.631.993v8.782a.172.172 0 0 1 .105-.172 81.828 81.828 0 0 1 9.024-2.44v-9.404Z" fill="#020404" opacity=".29"/><path d="M33.985 49.53c-3.445 1.31-6.768 2.716-9.871 4.226a1.297 1.297 0 0 0-.731 1.14v8.787a.218.218 0 0 1 .126-.198 129.587 129.587 0 0 1 10.476-4.51V49.53Z" fill="#FFF"/></g></svg>