<svg viewBox="0 0 90 90" xmlns="http://www.w3.org/2000/svg"><g fill="none" fill-rule="evenodd"><circle fill="#FFF" cx="45" cy="45" r="45"/><path d="M90 45.023c.005 19.173-12.151 36.24-30.274 42.506-18.123 6.265-38.225.35-50.065-14.732a18.887 18.887 0 0 1 16.685-7.642c1.88.169 3.809-.024 5.716.025a20.03 20.03 0 0 0 11.116-3.11 38.075 38.075 0 0 0 12.946-13.9c.964-1.592.77-2.219-1.277-2.194-7.426.072-14.836.08-22.23.025-12.2-.025-20.737 5.521-25.632 16.708a28.506 28.506 0 0 0-1.398 3.955C-6.087 45.473 1.101 18.844 21.852 6.405 42.604-6.035 69.48.173 82.67 20.455c-14.49-.048-28.957-.603-43.425.193A19.595 19.595 0 0 0 21.74 45.166c3.328-4.822 7.836-5.762 12.9-5.737 9.836.072 19.65-.097 29.487-.097a19.655 19.655 0 0 0 11.817-3.752 36.604 36.604 0 0 0 9.718-9.645c.024-.024.024-.047.047-.072A45.204 45.204 0 0 1 90 45.023Z" fill="#7535FD" fill-rule="nonzero"/></g></svg>