<svg xmlns="http://www.w3.org/2000/svg" viewBox="0 0 90 90" fill="none" fill-rule="evenodd"><path fill="#00517b" d="M0 0h90v90H0z"/><g fill-rule="nonzero"><path fill="#fff" d="M73.242 20.657l1.474-2.93-3.254.407-2.967.401-1.489.223-.745.117-1.491.247-1.491.262c-12.912 2.341-25.576 6.455-33.341 12.608l-.081.069-.232.211-.456.429-.446.441a26.26 26.26 0 0 0-2.09 2.389l-.391.518-.383.532c-1.011 1.439-1.935 3.036-2.795 4.828l-.319.681-.314.7-.308.719-.303.739-.297.759-.293.779-.288.8-.284.821-.279.843-.276.865-.272.888-.135.453-.267.923-.264.947-.261.971-.259.995-.256 1.02-.254 1.046-.252 1.072-.251 1.098-.374 1.697-.248 1.166-.371 1.801-.37 1.865-.37 1.931-.371 1.998-.248 1.37-.564 3.139 2.951-1.211 1.562-.633c15.709-6.29 26.286-8.026 43.23-6.384l2.729.277.037-1.9c.116-5.958.636-12.21 1.476-18.172l.208-1.425.108-.708.226-1.405c1.428-8.617 3.519-16.342 6.001-21.278zm-4.447 1.371l-.126.315c-3.715 9.406-6.291 24.317-6.855 38.226l-.041 1.119-.654-.058c-15.75-1.351-26.395.308-40.866 5.859l-.959.371.279-1.464.372-1.896.372-1.827.373-1.76.25-1.137.251-1.108.252-1.08.253-1.052.255-1.024.257-.997.259-.971.261-.945.264-.919.267-.894.27-.869.136-.426.275-.833.279-.81.283-.787.143-.385.289-.753.146-.368.296-.72a43.35 43.35 0 0 1 .607-1.377l.311-.658.317-.638.323-.619.329-.6c.941-1.673 1.957-3.124 3.075-4.399l.399-.443.202-.216.411-.422.42-.408.377-.349-.037.029c7.209-5.714 19.475-9.67 31.914-11.925l1.436-.253.718-.121 1.435-.23 1.181-.179z"/><path fill="#f7961e" d="M45.877 31.255c5.219-2.258 12.384-3.932 18.055-4.936-1.456 4.316-2.865 9.755-4.019 18.236-1.957.201-11.756 1.247-19.685 3.053 1.054-3.563 2.387-9.378 5.649-16.354z"/></g></svg>