<svg viewBox="0 0 90 90" xmlns="http://www.w3.org/2000/svg"><g fill="none"><path fill="#FFF" d="M0 0h90v90H0z"/><path d="M57.14 30.039c-3.307.08-4.076.131-4.855.333-.822.22-1.606.56-2.327 1.01-1.052.707-3.43 3.211-7.84 8.26-8.315 9.533-8.325 9.543-9.246 9.886-.93.343-2.003.424-7.142.505-1.802.02-3.603.086-5.402.202-.86.202-1.871 1.1-6.99 6.16L10 59.727l.405.06c1.679.253 16.56.293 21.567.051 3.055-.141 3.945-.333 5.341-1.151 1.406-.828 2.742-2.171 5.857-5.877l1.619-1.939.617-.05c.334-.03 2.58-.081 4.987-.112 4.522-.06 6.11-.151 7.334-.403 1.528-.313 2.894-1.192 4.644-2.95 1.618-1.635 3.419-3.756 3.419-4.038 0-.202-1.265-.233-8.083-.243l-7.385-.07-.546-.071.496-.555 1.69-1.848 1.203-1.283h5.736c9.721-.01 11.856-.202 13.98-1.272 1.376-.687 2.58-1.848 4.836-4.666 1.608-2.02 2.367-3.06 2.276-3.15-.122-.131-18.583-.212-22.852-.121Z" fill="#0B1560"/></g></svg>