<svg viewBox="0 0 90 90" xmlns="http://www.w3.org/2000/svg"><path d="M15.086 42.75c.723-.201 1.498.15 1.757.853 1.033 2.96 4.443 10.238 15.137 21.079 14.208 14.404 38.49 22.584 38.49 22.584-14.93 2.51-33.582-1.756-43.966-7.678C16.274 73.766 5.786 64.53 4.288 55.999c-1.136-6.574 7.078-11.443 10.591-13.2.104 0 .155-.05.207-.05ZM74.914 6.162C84.574 17.455 90.05 35.272 90 46.965c-.104 11.545-3.05 24.995-9.92 30.515-5.27 4.266-13.743-.251-17.05-2.309-.05 0-.103-.05-.154-.1-.569-.452-.62-1.305-.104-1.857 2.119-2.309 6.923-8.884 11.263-23.388 5.735-19.172.879-43.664.879-43.664ZM28.829 9.926C39.162 4.205 52.595-.01 60.964 3c6.407 2.31 6.665 11.694 6.458 15.509v.2a1.348 1.348 0 0 1-1.601 1.054c-3.152-.602-11.367-1.355-26.453 2.259C19.426 26.79 0 43.1 0 43.1 5.218 29.299 18.393 15.748 28.829 9.926Z" fill="#CC1B26"/></svg>