<svg viewBox="0 0 90 90" xmlns="http://www.w3.org/2000/svg"><defs><linearGradient x1="2.579%" y1="97.415%" x2="145.741%" y2="-45.747%" id="a"><stop stop-color="#EC476D" offset="0%"/><stop stop-color="#F6AE4A" offset="100%"/></linearGradient><linearGradient x1="50%" y1="99.599%" x2="50%" y2="61.579%" id="b"><stop stop-color="#DB44DB" stop-opacity=".3" offset="0%"/><stop stop-color="#DB44DB" stop-opacity=".21" offset="11%"/><stop stop-color="#DB44DB" stop-opacity=".12" offset="27%"/><stop stop-color="#DB44DB" stop-opacity=".05" offset="44%"/><stop stop-color="#DB44DB" stop-opacity=".01" offset="65%"/><stop stop-color="#DB44DB" stop-opacity="0" offset="100%"/></linearGradient><linearGradient x1="-117.567%" y1="217.545%" x2="120.071%" y2="-20.094%" id="c"><stop stop-color="#EC476D" offset="0%"/><stop stop-color="#F6AE4A" offset="100%"/></linearGradient><linearGradient x1="-115.578%" y1="215.557%" x2="119.25%" y2="-19.273%" id="d"><stop stop-color="#EC476D" offset="0%"/><stop stop-color="#F6AE4A" offset="100%"/></linearGradient><linearGradient x1="-175.586%" y1="275.557%" x2="59.241%" y2="40.727%" id="e"><stop stop-color="#EC476D" offset="0%"/><stop stop-color="#F6AE4A" offset="100%"/></linearGradient></defs><g fill="none"><path fill="#F8F3EC" d="M0 0h90v90H0z"/><path d="M46.099 40.608H17.534a3.296 3.296 0 0 0-3.296 3.295v28.563a3.296 3.296 0 0 0 3.296 3.295H46.1a3.296 3.296 0 0 0 3.296-3.295V43.903a3.296 3.296 0 0 0-3.296-3.295ZM23.027 66.973a4.394 4.394 0 1 1 0-8.789 4.394 4.394 0 0 1 0 8.789Zm10.987 0a4.394 4.394 0 1 1 0-8.789 4.394 4.394 0 0 1 0 8.789Z" fill="url(#a)"/><path d="M46.099 40.608H17.534a3.296 3.296 0 0 0-3.296 3.296v28.562a3.296 3.296 0 0 0 3.296 3.296H46.1a3.296 3.296 0 0 0 3.296-3.296V43.904a3.296 3.296 0 0 0-3.296-3.296ZM23.027 66.973a4.394 4.394 0 1 1 0-8.789 4.394 4.394 0 0 1 0 8.79Zm10.987 0a4.394 4.394 0 1 1 0-8.789 4.394 4.394 0 0 1 0 8.79Z" fill="url(#b)"/><path d="M46.087 36.202H30.983a3.294 3.294 0 0 1-3.294-3.293V17.806c0-2.934 3.548-4.404 5.623-2.33L48.416 30.58c2.075 2.075.605 5.622-2.33 5.622Z" fill="url(#c)"/><path d="M72.42 62.579H57.124a3.335 3.335 0 0 1-3.335-3.335V43.949c0-2.971 3.593-4.46 5.694-2.358l15.295 15.294c2.101 2.101.613 5.693-2.358 5.693Z" fill="url(#d)"/><path d="M72.42 36.21H57.124a3.335 3.335 0 0 1-3.335-3.335V17.58c0-2.971 3.593-4.46 5.694-2.358l15.295 15.294c2.101 2.101.613 5.693-2.358 5.693Z" fill="url(#e)"/></g></svg>