<svg viewBox="0 0 90 90" xmlns="http://www.w3.org/2000/svg"><g fill="none"><path fill="#FFF" d="M0 0h90v90H0z"/><g fill="#231F20"><path d="M50.413 19.54v7.547L35.05 42.182h3.136c1.567 0 3.135.315 4.076 1.258 1.254 1.572 1.254 3.459 1.254 5.346V73L21.88 51.302S20 49.1 20 46.899c0-2.2 1.881-4.402 1.881-4.402l22.575-22.642s2.509-2.83 4.076-2.83c1.881-.315 1.881 2.515 1.881 2.515"/><path d="M50.413 62.937s0 3.46 1.255 3.46c.313 0 1.254-.63 1.254-.63l15.677-15.723c1.568-1.573 1.881-4.088.627-5.66 0-.315-.313-.315-.627-.63L52.922 28.031c-.314-.315-.627-.629-1.254-.629-1.568 0-1.568 3.46-1.568 3.46l.313 32.075Z"/></g></g></svg>