<svg xmlns="http://www.w3.org/2000/svg" viewBox="0 0 90 90"><path fill="#FFF" d="M0 0h90v90H0z"/><path d="M71.046 41.728a10.647 10.647 0 0 0-2.909-4.104c-1.285-1.111-2.915-1.98-4.858-2.583-1.909-.596-4.177-.896-6.742-.896h-4.501v5.625h4.5c2.948 0 5.148.648 6.557 1.915 1.403 1.268 2.087 3.001 2.087 5.3 0 1.1-.186 2.122-.553 3.03a6.351 6.351 0 0 1-1.606 2.316c-.709.64-1.617 1.158-2.68 1.526-1.089.373-2.368.56-3.804.56h-4.501v5.647h4.5c2.446 0 4.646-.318 6.55-.95 1.921-.634 3.558-1.542 4.874-2.695a11.583 11.583 0 0 0 3.015-4.16C71.652 50.66 72 48.89 72 46.984c0-1.923-.323-3.685-.954-5.257" fill="#021A32"/><path d="M48.48 69.933V34.146h-5.297l-9.198 7.62 2.04 2.773c.183.281.452.518.807.711.562.3 1.26.378 1.975.138a2.83 2.83 0 0 0 .797-.453l2.131-1.625c-.004.318-.006.64-.007.965v25.66H36.55V75h16.92v-5.067h-4.99Z" fill="#42A5F5"/><path d="M26.454 59.046c.702.18 1.448.354 2.268.504 2.547.463 3.982.506 8.539.506v-5.79s-21.623 1.763-15.85-9.656c0 0-3.437 2.258-3.411 5.864.305 4.963 5.167 7.658 8.454 8.573" fill="#021A32"/><path d="M44.756 24.74c-16.173 9.586-23.792 20.337-20.517 23.99 1.258 1.4 4.252 1.856 8.352 1.369-7.023-1.207-2.836-7.813-2.836-7.813l.01.013c2.926-5.584 11.603-13.448 25.173-20.723A116.998 116.998 0 0 1 69.453 15c-6.492 1.022-15.376 4.217-24.697 9.74" fill="#42A5F5"/></svg>