<svg viewBox="0 0 90 90" xmlns="http://www.w3.org/2000/svg"><g fill="#FF8637"><path d="M6.36 89h19.16c.428 0 1.666-4.124 3.76-12.372 7.272-25.33 11.46-40.135 12.54-44.44l-12.36-12.19h-.36C27.434 25.202 19.734 48.143 6 88.82l.36.18Zm36.88-62.017h.18c.247-1.014.36-1.622.36-1.803v-.36c-3.58-3.764-7.588-7.775-12-12.012-.474.722-.721 1.307-.721 1.803v.18c4.48 4.62 8.533 8.677 12.18 12.192Zm23.28 13.994h.18c-2.455-7.774-3.94-11.763-4.481-12.01L35.359 2.261c-.293 0-.946 1.915-1.959 5.724l33.12 32.991Zm-5.021-14.715h.18C56.185 9.586 53.259 1.18 52.898 1h-16.48v.18c6.1 6.22 14.454 14.58 25.08 25.082Zm9.86 28.868h.181c-.608-2.93-2.026-5.206-4.3-6.806A1147.976 1147.976 0 0 0 46.3 27.366h-.18c.428 2.457 1.373 4.304 2.86 5.566L71.36 55.13ZM82.64 89l.361-.18c-5.133-15.302-7.88-23.189-8.24-23.662L50.039 40.617v.18c.945 3.764 5.56 19.831 13.779 48.203H82.64Z"/><path d="M6.36 89h19.16c.428 0 1.666-4.124 3.76-12.372 7.272-25.33 11.46-40.135 12.54-44.44l-12.36-12.19h-.36C27.434 25.202 19.734 48.143 6 88.82l.36.18Zm36.88-62.017h.18c.247-1.014.36-1.622.36-1.803v-.36c-3.58-3.764-7.588-7.775-12-12.012-.474.722-.721 1.307-.721 1.803v.18c4.48 4.62 8.533 8.677 12.18 12.192Zm23.28 13.994h.18c-2.455-7.774-3.94-11.763-4.481-12.01L35.359 2.261c-.293 0-.946 1.915-1.959 5.724l33.12 32.991Zm-5.021-14.715h.18C56.185 9.586 53.259 1.18 52.898 1h-16.48v.18c6.1 6.22 14.454 14.58 25.08 25.082Zm9.86 28.868h.181c-.608-2.93-2.026-5.206-4.3-6.806A1147.976 1147.976 0 0 0 46.3 27.366h-.18c.428 2.457 1.373 4.304 2.86 5.566L71.36 55.13ZM82.64 89l.361-.18c-5.133-15.302-7.88-23.189-8.24-23.662L50.039 40.617v.18c.945 3.764 5.56 19.831 13.779 48.203H82.64Z"/></g></svg>