<svg viewBox="0 0 90 90" xmlns="http://www.w3.org/2000/svg"><g fill="none" fill-rule="evenodd"><path fill="#FE7817" d="M0 0h90v90H0z"/><path d="m45 49.473 23.934 23.935a4 4 0 0 1-5.497 5.808l-.16-.151L45 60.786 26.708 79.077a4 4 0 0 1-5.656-5.656L45 49.473ZM16.572 21.058l23.948 23.95L16.586 68.94a4 4 0 0 1-5.808-5.498l.15-.159 18.28-18.278-18.292-18.291a4 4 0 0 1 5.656-5.657Zm62.486.001a4 4 0 0 1 .151 5.498l-.15.159-18.28 18.278 18.292 18.291a4 4 0 0 1-5.656 5.657L49.467 44.994 73.4 21.058a4 4 0 0 1 5.657 0ZM68.935 10.923a4 4 0 0 1 0 5.656L44.987 40.527 21.052 16.592a4 4 0 0 1 5.498-5.808l.16.151 18.278 18.279 18.291-18.291a4 4 0 0 1 5.656 0Z" fill="#FFF" fill-rule="nonzero"/></g></svg>