<svg viewBox="0 0 90 90" xmlns="http://www.w3.org/2000/svg"><g fill="none"><path fill="#FFF" d="M0 0h90v90H0z"/><path d="M36.459 18.535c4.716-4.713 12.36-4.713 17.077 0L71.465 36.46c4.713 4.717 4.713 12.36 0 17.077L53.54 71.466c-4.717 4.712-12.36 4.712-17.077 0L18.534 53.54c-4.712-4.716-4.712-12.36 0-17.077L36.46 18.535Z" fill="#1E3471"/><path d="M44.997 29.287h.048c8.471.026 15.332 6.887 15.358 15.358v.094a15.409 15.409 0 0 1-1.839 7.25H31.43a15.419 15.419 0 0 1-1.837-7.25v-.094c.028-8.47 6.887-15.33 15.358-15.358h.046Z" fill="#FFF"/><path d="M58.433 44.995h-3.236c-.03-5.531-4.652-10.742-10.192-10.742v-2.951a13.43 13.43 0 0 1 13.428 13.693Z" fill="#1E3471"/></g></svg>