<svg xmlns="http://www.w3.org/2000/svg" viewBox="0 0 90 90" fill-rule="evenodd"><path fill="#fff" opacity="0" d="M0 0h90v90H0z"/><path fill="#00b0f5" fill-rule="nonzero" d="M14.705 21.247l3.053 3.889C6.544 38.397 7.364 58.039 19.644 70.32s31.922 13.1 45.183 1.886h0l3.925 3.089c-15.146 13.501-38.194 12.839-52.541-1.507S1.204 36.393 14.705 21.247h0zm48.632 25.298a8.56 8.56 0 0 1 .727 2.29 4.36 4.36 0 0 1-.218 1.672h0l-.509 2.035L85 73.478l-5.052 3.235c-.48.294-1.093.25-1.527-.109h0L55.45 58.721l-8.614 6.07c-1.73 1.153-2.89.154-3.037.015l-.016-.015zm-8.796-11.159c.571 1.02.976 2.124 1.199 3.271.109.618-.036 1.636-.4 2.944h0l-.727 2.581 2.254 2.181-6.797 8.251-4.144-3.235-2.362 1.823-1.196.922-7.164 5.506h0l6.106 8.251-2.581 1.527a.83.83 0 0 1-.909-.109h0l-7.597-7.015c-1.745.691-2.581 0-2.581 0h0zM28.989 11.179a38.28 38.28 0 0 1 49.795 49.795h0l-3.78-3.78c1.108-3.391 1.672-6.937 1.672-10.504a33.38 33.38 0 0 0-33.403-33.403c-3.568-.001-7.113.564-10.504 1.672h0zM22.156 48.58l8.36 6.288-2.726 4.834-7.051-7.633c-.246-.239-.292-.618-.109-.909h0l1.527-2.581zm21.263-21.954c.419.712.725 1.484.909 2.29a5.89 5.89 0 0 1-.218 2.072h0l-.509 2.035 1.926 1.999-6.906 8.941-3.089-3.962-7.342 5.997c-1.781 1.381-3.017.182-3.017.182h0zM16.486 5l20.79 21.481-5.888 8.251L13.36 11.579c-.359-.433-.403-1.047-.109-1.527h0L16.486 5z"/></svg>