<svg viewBox="0 0 90 90" xmlns="http://www.w3.org/2000/svg"><path d="m9.33 39.13 5.416.14-7.081 11.855c-2.916 4.743-3.75 10.322-2.36 15.622 1.249 5.3 4.581 9.903 9.302 12.693 9.58 5.858 22.215 2.65 28.047-7.114l1.25-2.092h20.688c4.86 0 8.747-3.905 8.747-8.787 0-4.882-3.887-8.788-8.747-8.788H62.37v-4.742h2.222c7.36 0 13.33 5.998 13.33 13.39 0 7.393-5.97 13.39-13.33 13.39v.14H46.681C39.46 86.693 24.049 90.6 12.108 83.345.306 76.092-3.582 60.61 3.638 48.615L9.33 39.13Zm29.157-24.411c6.526-3.348 14.58-.837 18.05 5.858l8.47 15.343C78.892 36.2 90 47.497 90 61.166c-.139 14.088-11.524 25.386-25.41 25.247H53.345l-2.638-4.743h13.885c11.385 0 20.55-9.205 20.55-20.643s-9.165-20.643-20.55-20.643H62.37l-9.858-17.715c-2.499-4.045-7.498-5.44-11.524-3.347-4.304 2.232-6.11 7.532-3.888 11.856l1.11 1.953-4.026 2.37-1.11-1.952c-.14-.14-.278-.418-.417-.697-3.332-6.556-.833-14.646 5.831-18.133Zm-5.97-9.345c12.08-6.974 27.354-2.79 34.296 9.346l5.415 9.763-2.777 4.603-6.664-12.135C57.233 7.467 45.153 3.98 35.434 9.141c-9.997 5.44-13.746 17.853-8.47 27.896l1.25 2.232L17.8 56.843c-2.36 4.045-.972 9.206 2.916 11.717 4.026 2.65 9.441 1.395 12.08-2.65l1.11-1.953 4.027 2.37-1.11 1.954c0 .139-.14.139-.14.279-3.887 6.416-12.08 8.368-18.467 4.463-6.387-3.905-8.33-12.135-4.443-18.551l9.025-15.203c-6.387-12.136-2.082-27.06 9.72-33.895Z" fill="#3BAF4A"/></svg>