<svg viewBox="0 0 90 90" xmlns="http://www.w3.org/2000/svg"><g fill="none"><path fill="#181A26" d="M0 0h90v90H0z"/><g fill="#31A9FF"><path d="M68.405 50.769c.016.104.15.204.281.25.048.017.072.05.021.16-.372.81-.714 1.275-1.18 1.978a7.387 7.387 0 0 1-1.497 1.644c-.883.74-2.108 1.547-3.121 1.005-.45-.237-.645-.876-.636-1.393.021-1.455.659-2.948 1.837-4.416 1.436-1.793 3.023-2.723 4.065-2.215 1.078.522.734 1.788.25 2.781a.282.282 0 0 0-.02.205M79.97 39.434c.077-.138-.004-.24-.177-.24l-3.02.002c-.223 0-.338.027-.444.239-.346.673-4.565 7.088-5.35 8.334-.133.19-.295.163-.313-.054-.08-.74-.71-1.59-1.702-1.998-.756-.311-1.496-.367-2.265-.264-1.387.19-2.624.932-3.71 1.77-1.639 1.263-3.052 2.9-4.877 4.11-.996.66-2.36 1.234-3.273.377-.826-.777-.733-2.503.531-3.838.133-.14.293-.021.268.103-.12.603.027 1.204.479 1.624.551.502 1.34.559 2.016.224.797-.4 1.265-1.174 1.402-2.052.21-1.363-.823-2.564-2.116-2.66-1.05-.075-2.058.296-3.04 1.118-.491.414-.77.72-1.197 1.334-.103.151-.262.166-.258-.057.048-1.744-.662-2.725-2.083-2.757-1.103-.027-2.281.58-3.2 1.324-1.006.82-1.887 1.907-2.83 2.929-.118.125-.22.12-.253-.125-.027-1.155-.315-2.274-.842-3.069-.187-.276-.58-.413-.91-.226-.151.084-.681.331-1.067.646-.191.16-.266.392-.181.689a8.181 8.181 0 0 1-.294 5.346c-.634 1.518-1.865 2.887-3.313 3.35-.954.308-1.945.157-2.56-.7-.842-1.185-.501-3.244.755-4.953 1.108-1.506 2.712-2.462 4.311-3.078.188-.074.227-.196.174-.358-.087-.267-.226-.63-.282-.796-.147-.397-.557-.46-1.059-.405-1.162.137-2.21.54-3.246 1.103-2.712 1.474-4.071 4.325-4.667 5.85-.287.733-.532 1.19-.85 1.595-.427.545-.963 1.042-1.944 1.916a.352.352 0 0 0-.08.403c.1.21.61.941.754 1.006.16.08.345-.032.42-.085.686-.472 1.507-1.22 1.91-1.728.14-.175.285-.101.36.163.375 1.358 1.357 2.466 2.716 2.93 2.486.85 5.065-.38 7.011-2.524 1.238-1.363 1.684-2.239 2.158-2.834.804-1.01 2.389-3.27 4.277-4.721.692-.535 1.512-.943 1.924-.672.33.217.437.722-.093 1.701-1.925 3.567-4.758 7.757-5.277 8.773-.095.176-.01.315.17.315 1.007-.005 2.006-.003 2.92-.003.153-.005.22-.078.297-.187 1.477-2.346 2.867-4.579 4.358-6.888.083-.136.16-.032.163.028.032.535.16 1.268.474 1.749.564.89 1.362 1.271 2.247 1.277.705.011 1.06-.1 1.82-.388a6.35 6.35 0 0 0 1.496-.814c.222-.157.261.106.256.146-.342 1.862.08 4.07 1.904 4.984 2.184 1.092 4.583-.443 5.963-1.829.135-.133.28-.119.294.169.032.53.265 1.157.696 1.596 1.157 1.178 3.491.711 5.833-1.128 1.504-1.178 3.078-2.842 4.5-4.603.053-.069.091-.178-.011-.29-.217-.23-.53-.492-.745-.695-.097-.084-.241-.06-.323.003-1.458 1.406-2.769 3.01-4.664 4.335-.64.453-1.659.818-2.116.19-.179-.245-.159-.582.016-1.025.552-1.398 9.302-14.913 9.757-15.71"/><path d="M38.803 41.065c.037.2.114.24.204.223.446-.09.934-.462 1.222-.894.263-.39.387-.955.125-1.18-.233-.204-.612-.146-.893.106a2.03 2.03 0 0 0-.658 1.746M16.5 58.463c-3.262.022-6.136-2.022-6.466-5.563-.183-1.963.363-3.711 1.458-5.152.971-1.284 2.614-2.35 4.005-2.611.453-.084 1.061-.033 1.313.273.394.466.28.977-.114 1.182-1.061.55-2.338 1.49-2.97 2.775-.512 1.05-.616 2.313.167 3.517 1.31 2.007 4.962 2.062 8.358-1.138a29.423 29.423 0 0 0 2.358-2.427c1.496-1.735 1.994-2.368 3.982-5.165.02-.033.032-.075.02-.096-.015-.038-.042-.043-.101-.048-1.327.038-2.484.438-3.61 1.29-.323.24-.79.207-.993-.109-.227-.356-.064-.82.31-1.083 1.809-1.277 3.785-1.508 5.803-1.854-.001 0 .14.006.256-.148.828-1.079 1.454-2.052 2.337-3.143.89-1.107 2.04-2.124 2.918-2.887 1.226-1.07 2.012-1.43 2.811-1.87.21-.112-.027-.246-.09-.246-4.462-.85-9.099-1.95-13.53-.287-3.068 1.162-4.412 3.63-3.765 5.28.46 1.17 1.976 1.36 3.397.655a7.716 7.716 0 0 0 3.044-2.747c.433-.676 1.345-.189.852.984-1.296 3.092-3.773 5.544-6.79 5.648-2.567.084-4.224-1.832-4.219-4.196.011-4.663 5.128-7.735 10.505-8.194 6.476-.543 12.61 1.207 19.04 1.998 4.927.605 9.65.618 14.602-.536.586-.13.996.25.958.85-.048.867-.71 1.702-2.341 2.604-1.855 1.032-3.795 1.345-5.822 1.362-4.9.044-9.465-1.896-14.189-2.938.005.21.06.46-.113.593-2.617 1.958-4.982 3.946-6.566 6.739-.053.064-.027.125.068.119 1.375-.074 2.612-.11 3.896-.214.224-.022.233-.076.213-.242-.114-.963.164-2.06.998-2.816.855-.777 1.924-.865 2.633-.305.806.637.735 1.783.294 2.643-.449.872-1.19 1.338-1.902 1.564 0 0-.15.033-.127.17.027.22.998.766 1.08.911.08.138.038.353-.108.517a.61.61 0 0 1-.47.227c-.165-.003-.266-.062-.479-.178-.435-.24-.979-.633-1.341-1.096-.124-.157-.187-.16-.495-.143-1.39.082-3.556.294-5.024.48-.356.044-.408.112-.481.238-2.34 3.915-4.84 8.137-7.583 10.964-2.943 3.03-5.389 3.829-7.985 3.85"/></g></g></svg>