<svg xmlns="http://www.w3.org/2000/svg" viewBox="0 0 90 90"><path d="M55.615 13.025v7.59h-7.077c-7.574 0-13.726 6.022-13.893 13.505l-.004.312v35.226h-7.59V34.432c0-11.708 9.433-21.215 21.132-21.404l.355-.003h7.077Z" fill="#D45500"/><path d="M55.615 35.921v7.59h-7.077c-7.574 0-13.726 6.022-13.893 13.505l-.004.313v12.329h-7.59v-12.33c0-11.708 9.433-21.215 21.132-21.404l.355-.003h7.077Z" fill="#A00"/><path d="M59.154 8.5c-4.607 0-8.346 3.722-8.346 8.32 0 4.597 3.739 8.32 8.346 8.32s8.346-3.723 8.346-8.32c0-4.598-3.74-8.32-8.346-8.32Zm0 5c1.85 0 3.346 1.489 3.346 3.32 0 1.83-1.496 3.32-3.346 3.32s-3.346-1.49-3.346-3.32c0-1.831 1.495-3.32 3.346-3.32Z" fill="#D45500"/><path d="M59.154 31.396c-4.607 0-8.346 3.723-8.346 8.32 0 4.598 3.739 8.32 8.346 8.32s8.346-3.722 8.346-8.32c0-4.597-3.74-8.32-8.346-8.32Zm0 5c1.85 0 3.346 1.49 3.346 3.32 0 1.831-1.496 3.32-3.346 3.32s-3.346-1.489-3.346-3.32c0-1.83 1.495-3.32 3.346-3.32ZM30.846 66.36c-4.331 0-7.846 3.5-7.846 7.82 0 4.321 3.515 7.82 7.846 7.82 4.331 0 7.846-3.499 7.846-7.82 0-4.32-3.515-7.82-7.846-7.82Zm0 4c2.126 0 3.846 1.713 3.846 3.82 0 2.108-1.72 3.82-3.846 3.82C28.72 78 27 76.288 27 74.18c0-2.107 1.72-3.82 3.846-3.82Z" fill="#A00"/></svg>