<svg viewBox="0 0 90 90" xmlns="http://www.w3.org/2000/svg"><g fill="none"><path fill="#FFF" d="M0 0h90v90H0z"/><path d="M45 15H21.207C17.787 15 15 17.737 15 21.132v46.736C15 71.263 17.787 74 21.207 74H45c16.56 0 30-13.2 30-29.5S61.56 15 45 15Z" fill="#25D0B1"/><path d="M28.427 34.668a3.144 3.144 0 0 1 0-4.503 3.284 3.284 0 0 1 4.585 0l4.873 4.787a3.144 3.144 0 0 1 0 4.503 3.284 3.284 0 0 1-4.584 0l-4.874-4.787Zm19.757 19.403a3.144 3.144 0 0 1 0-4.503 3.284 3.284 0 0 1 4.584 0l4.874 4.787a3.144 3.144 0 0 1 0 4.503 3.284 3.284 0 0 1-4.585 0l-4.873-4.787Zm4.873-23.905a3.284 3.284 0 0 1 4.585 0 3.144 3.144 0 0 1 0 4.503l-4.874 4.786a3.284 3.284 0 0 1-4.585 0 3.144 3.144 0 0 1 0-4.503l4.874-4.786ZM33.3 49.569a3.284 3.284 0 0 1 4.586 0 3.144 3.144 0 0 1 0 4.503l-4.874 4.786a3.284 3.284 0 0 1-4.585 0 3.144 3.144 0 0 1 0-4.503l4.874-4.786Zm11.897-8.125.857.842a3.103 3.103 0 0 1 0 4.428l-.857.841a3.103 3.103 0 0 1-4.35 0l-.856-.84a3.103 3.103 0 0 1 0-4.43l.857-.84a3.103 3.103 0 0 1 4.349 0Z" fill="#FFF"/></g></svg>