<svg viewBox="0 0 90 90" xmlns="http://www.w3.org/2000/svg"><g fill="none"><path fill="#EE3124" d="M0 0h90v90H0z"/><path d="M15 39.202h16.97v10.653H15V39.202Zm21.665-15.144h16.67V34.71h-16.67V24.058Zm0 30.231h16.67v10.653h-16.67V54.29Zm21.304-15.087H75v10.653H57.969V39.202ZM21.98 24.058c-3.55.863-6.319 4.664-6.981 9.501v1.21h16.97V24.057h-9.99ZM15 54.289v1.325c.602 4.607 3.19 8.292 6.56 9.328h10.47V54.29H15Zm60-19.578V33.5c-.662-4.78-3.43-8.58-6.98-9.501H57.968v10.653H75v.058ZM68.44 65c3.31-1.094 5.898-4.722 6.56-9.329v-1.324H57.969V65H68.44Z" fill="#FFF"/></g></svg>