<svg viewBox="0 0 90 90" xmlns="http://www.w3.org/2000/svg"><defs><linearGradient x1="50%" y1="0%" x2="50%" y2="100%" id="a"><stop stop-color="#00D3F1" offset="0%"/><stop stop-color="#0099D8" offset="100%"/></linearGradient></defs><g fill="none" fill-rule="evenodd"><path fill="#000" d="M0 0h90v90H0z"/><path fill="url(#a)" d="m30 39.84-12.696 8.835 4.479-14.805-12.326-9.345 15.465-.315L30 9.6l5.078 14.61 15.465.315-12.326 9.345 4.48 14.805z" transform="translate(15 15)"/><path d="M45 15c16.569 0 30 13.431 30 30 0 16.569-13.431 30-30 30-16.569 0-30-13.431-30-30 0-16.569 13.431-30 30-30Zm0 5c-13.807 0-25 11.193-25 25s11.193 25 25 25 25-11.193 25-25-11.193-25-25-25Z" fill="#F9F9F9" fill-rule="nonzero"/></g></svg>