<svg xmlns="http://www.w3.org/2000/svg" viewBox="0 0 90 90" fill-rule="evenodd"><path fill="#007d44" d="M79.609 9.648l1.115.178 1.16.089c.178.03.357.044.535.044h.535.535.045a3.29 3.29 0 0 0 .535-.044l1.026-.133 1.026-.178.981-.311h.089l.892-.356.981-.534a8.2 8.2 0 0 0 .892-.623H90l-1.204 1.512h-.045l-1.383 1.245-1.516.934c-.565.267-1.13.489-1.695.667a5.3 5.3 0 0 0-.624.222l-.268.089-.937.178a8.74 8.74 0 0 1-.937.222l-.937.133c-.208 0-.431.029-.669.089-.208 0-.417.015-.624.044a4.79 4.79 0 0 0-.669.044c-.238.029-.475.044-.714.044h-.669a4.79 4.79 0 0 0-.669.044l-10.837-.222h-.714a5.65 5.65 0 0 1-.714.044h-.758l-.669.089a6.2 6.2 0 0 0-.758.044l-.669.089-1.026.133-1.07.133-1.026.267-.981.267-.937.311-.981.4-.937.4-.892.534-.892.534-.803.623c-.565.445-1.086.949-1.561 1.512-.268.267-.52.549-.758.845-.268.326-.506.652-.714.978-.238.326-.461.682-.669 1.067l-.624 1.112-.58 1.245-.491 1.334-.045.044-1.695-1.467-1.472-1.378c-.476-.474-.892-.949-1.249-1.423a13.49 13.49 0 0 1-1.026-1.334c-.327-.474-.609-.934-.847-1.378s-.431-.874-.58-1.29c-.208-.445-.357-.874-.446-1.29a6.14 6.14 0 0 1-.223-1.245c-.059-.385-.089-.785-.089-1.201 0-.385.029-.771.089-1.156a5.66 5.66 0 0 1 .268-1.067l.401-1.067.535-1.023.669-.934c.506-.593 1.07-1.141 1.695-1.645l.981-.711a9.34 9.34 0 0 1 1.07-.667c.357-.207.743-.4 1.16-.578l1.204-.489 1.338-.356 1.293-.356 1.383-.222 1.383-.089h.491.491.535.491a2.8 2.8 0 0 1 .535.044l1.293.133a10.33 10.33 0 0 1 1.293.178l1.249.222 1.293.267a6.97 6.97 0 0 1 .847.222l.847.267a7.14 7.14 0 0 1 .847.222l.847.222.892.311.803.267 7.537 2.668.847.267.803.267a7.94 7.94 0 0 0 .803.222 4.29 4.29 0 0 0 .803.267c.268.089.535.163.803.222s.52.133.758.222l1.16.267 1.16.222z"/><path fill="#c01d20" d="M70.154 71.324l-.892-.089c-.297-.029-.58-.074-.847-.133-.535-.118-1.026-.267-1.472-.445l-.312-.089h-.045l-.937-.534h-.045l-1.026-.757c-.297-.296-.565-.592-.803-.889-.268-.325-.491-.652-.669-.978l-.491-1.112c-.089-.178-.149-.356-.178-.534l-.178-.577a3.42 3.42 0 0 1-.134-.534l-.089-.577c-.029-.207-.045-.4-.045-.578-.029-.178-.045-.355-.045-.534-.029-.207-.045-.4-.045-.578v-.577c0-.149.015-.312.045-.49s.045-.355.045-.534l.089-.845.178-.845.178-.889.223-.889.178-.622a4.07 4.07 0 0 0 .223-.534c.06-.207.134-.415.223-.623l.223-.577a2.84 2.84 0 0 1 .268-.623 3.3 3.3 0 0 0 .223-.578l.268-.622a3.62 3.62 0 0 1 .312-.578l.268-.578 4.727-9.16c.089-.207.194-.414.312-.623l.268-.578.268-.667.268-.578.268-.623.268-.578.178-.623c.089-.207.163-.415.223-.623a3.37 3.37 0 0 0 .223-.578l.178-.623c.06-.207.104-.4.134-.578l.178-.667.178-.889.134-.889.089-.889v-.934-1.067c0-.385-.029-.741-.089-1.067a6.43 6.43 0 0 0-.089-1.067l-.178-.978-.223-1.023c-.06-.326-.149-.638-.268-.934a3.42 3.42 0 0 0-.312-.934l-.312-.889c-.238-.563-.506-1.097-.803-1.601l-1.026-1.423c-.357-.445-.743-.83-1.16-1.156-.387-.386-.833-.711-1.338-.978-.446-.296-.937-.518-1.472-.667-.506-.178-1.041-.311-1.606-.4-.417-.059-.832-.089-1.249-.089l-.535.044c-.327 0-.64.029-.937.089-.327.029-.669.089-1.026.178-.476.089-.937.222-1.383.4a6.39 6.39 0 0 0-1.204.578c-.386.178-.743.386-1.07.623l-.892.8a3.44 3.44 0 0 0-.758.845 8.57 8.57 0 0 0-.58.845l-.401.934c-.119.326-.194.637-.223.934a5.27 5.27 0 0 0-.089.934 4.76 4.76 0 0 0 .178.889 2.9 2.9 0 0 0 .312.845c.119.267.282.518.491.756.506.593.907 1.141 1.204 1.645.327.563.55 1.081.669 1.556s.163.919.134 1.334-.134.8-.312 1.156a2.29 2.29 0 0 1-.669.845 4.4 4.4 0 0 1-.981.667c-.119.029-.208.074-.268.133a1 1 0 0 0-.312.044c-.089.029-.193.044-.312.044a1 1 0 0 1-.312.044h-.134-.223a.5.5 0 0 1-.223-.044h-.312l-.312-.089a2.35 2.35 0 0 1-.312-.133l-.312-.089-.268-.178a2.8 2.8 0 0 1-.312-.178.68.68 0 0 1-.268-.222c-.119-.06-.208-.118-.268-.178a2.94 2.94 0 0 1-.312-.267l-.223-.311c-.089-.089-.164-.178-.223-.267l-.223-.311a2.29 2.29 0 0 1-.223-.356l-.178-.356a3.04 3.04 0 0 1-.134-.4l-.178-.445a2.48 2.48 0 0 0-.134-.445v-.089c-.01-.144-.039-.277-.089-.4l-.089-1.067a6.45 6.45 0 0 1 0-1.067 6.02 6.02 0 0 1 .089-1.067 3.86 3.86 0 0 1 .134-1.023 6.52 6.52 0 0 1 .268-.934c.059-.326.149-.638.268-.934a6.09 6.09 0 0 1 .401-.889l.491-.845c.327-.563.698-1.097 1.115-1.601a16.18 16.18 0 0 1 1.427-1.423 12.6 12.6 0 0 1 1.606-1.201 5.07 5.07 0 0 1 .847-.534l.892-.489.981-.445.981-.356a5.97 5.97 0 0 1 1.026-.356l1.026-.267 1.115-.222 1.07-.133c.357-.06.728-.089 1.115-.089l1.115-.044 1.695.044 1.65.222 1.606.356 1.516.489a9.36 9.36 0 0 1 1.472.667 12.14 12.14 0 0 1 1.383.711l1.338.889 1.204.978c.386.356.743.726 1.07 1.112l1.026 1.201a14.79 14.79 0 0 1 .847 1.334c.268.445.506.92.714 1.423.238.504.431 1.023.58 1.556a14.83 14.83 0 0 1 .446 1.645c.119.563.208 1.141.268 1.734a18.18 18.18 0 0 1 .089 1.823l-.045 1.378c0 .445-.029.874-.089 1.29l-.223 1.245-.268 1.245-.357 1.156-.401 1.112-.491 1.112a10.94 10.94 0 0 1-.491 1.023l-.535 1.067-.624.934-.624.934-.669.979-.491.577c-.119.207-.268.4-.446.578l-.491.623-.491.577-.446.534-.491.577-4.371 4.802-.491.534a6.28 6.28 0 0 1-.401.534l-.446.489-1.115 1.645a10.49 10.49 0 0 0-.981 1.646c-.178.267-.327.548-.446.844l-.312.889c-.119.268-.208.549-.268.845l-.223.934-.089.4c0 .149-.015.281-.045.4 0 .119-.015.252-.045.4v.445.445.445c0 .148.015.296.045.445.029.178.045.341.045.489a2.48 2.48 0 0 1 .134.445l.089.489a3.48 3.48 0 0 1 .178.445 1.38 1.38 0 0 0 .178.445l.178.445a3.09 3.09 0 0 1 .223.445 8.09 8.09 0 0 0 .624.889c.208.297.461.578.758.845l.937.756 1.115.712 1.293.622zM45.268 28.191l-2.587-.311-1.427-.044-1.026-.044h-.089l-2.185.089-2.096.222-1.918.4-1.829.534a15.89 15.89 0 0 0-1.65.623c-.535.237-1.041.504-1.516.8l-1.383.845c-.446.326-.863.667-1.249 1.023l-1.07 1.156-1.026 1.201c-.297.386-.58.816-.847 1.29l-.758 1.378-.58 1.467c-.208.504-.386 1.023-.535 1.556l-.401 1.601-.312 1.645c-.119.563-.208 1.127-.268 1.689l-.089 1.734v1.779 1.823l.178 1.869.223 1.823.268 1.868.357 1.824.446 1.868.446 1.823.58 1.823.58 1.779.669 1.779.714 1.69.714 1.69.803 1.601.803 1.512.847 1.467.847 1.378.892 1.334.892 1.201.937 1.156.937.978.892.935.981.756c.297.237.61.46.937.667l.937.534a5.48 5.48 0 0 0 .892.356 8.69 8.69 0 0 0 .937.222 4.38 4.38 0 0 0 .847.089h.58.58l.535-.089a3.29 3.29 0 0 0 .535-.044c.149-.029.327-.044.535-.044l.446-.09.491-.089c.149-.059.297-.104.446-.133a1.6 1.6 0 0 0 .401-.133l.669-.178.58-.222.58-.267.491-.222.491-.312.491-.267.401-.311a4.11 4.11 0 0 0 .446-.312c.149-.089.283-.193.401-.311s.238-.222.357-.312a3.38 3.38 0 0 1 .357-.311 3.38 3.38 0 0 0 .357-.311l1.427-1.424.268-.267.223-.222a1.05 1.05 0 0 0 .268-.178l.268-.178a1.43 1.43 0 0 0 .223-.177l.268-.133.178-.089c.089 0 .194-.015.312-.045h.223.223a.39.39 0 0 0 .178.045l.178.089.178.089a.67.67 0 0 0 .178.133l.178.178a.67.67 0 0 1 .134.178l.178.177a.54.54 0 0 0 .134.222.7.7 0 0 1 .178.268l1.338 2.268a1.2 1.2 0 0 1 .223.311c.059.09.134.178.223.267.059.119.134.222.223.312l.223.311.268.267.223.312.312.222c.089.118.178.207.268.267.089.089.208.178.357.267v.044a.72.72 0 0 1 .268.178l.401.178.357.178.401.178c.119.029.252.074.401.133a3.46 3.46 0 0 0 .357.09l.357.089a2.1 2.1 0 0 1 .401.044c.119.029.252.044.401.044l.446.09h.491.045.446l.446-.09a2.54 2.54 0 0 0 .491-.044 3.56 3.56 0 0 0 .535-.133c.327-.09.684-.222 1.07-.4a7.42 7.42 0 0 0 1.026-.578.7.7 0 0 0 .178-.133l.602-.49.156-.133a.67.67 0 0 0-.134.178c-.011.021-.026.044-.045.066l-.022.022c-.021.019-.043.033-.067.044a4 4 0 0 1-.312.445c-.089.149-.208.281-.357.4l-.29.356-.067.089-.401.4a4.76 4.76 0 0 0-.357.4c-.297.237-.609.46-.937.667a5.43 5.43 0 0 1-.981.622 9.25 9.25 0 0 1-1.16.445 6.34 6.34 0 0 1-1.293.312c-.475.089-.981.133-1.516.133a2.1 2.1 0 0 1-.401-.044c-.119 0-.238-.015-.357-.044-.119 0-.238-.015-.357-.044l-.357-.09a1.76 1.76 0 0 1-.357-.133c-.119-.029-.223-.075-.312-.133a1.76 1.76 0 0 1-.357-.133c-.119-.03-.223-.075-.312-.133a2.95 2.95 0 0 1-.312-.178l-.312-.222a3.11 3.11 0 0 0-.312-.178l-.268-.177-.312-.222c-.119-.09-.208-.178-.268-.268l-1.695-1.289c-.089-.09-.178-.164-.268-.222l-.268-.178-.268-.178c-.119-.089-.208-.164-.268-.222l-.268-.133-.268-.133c-.119-.059-.223-.104-.312-.133s-.178-.074-.268-.133l-.312-.09c-.089-.029-.178-.044-.268-.044-.119-.029-.208-.044-.268-.044-.119-.029-.223-.044-.312-.044a1 1 0 0 0-.312.044c-.089 0-.194.015-.312.044-.089 0-.193.015-.312.044l-.268.09-.312.089c-.089.059-.178.103-.268.133s-.194.074-.312.133a1.14 1.14 0 0 1-.268.133 2.8 2.8 0 0 0-.312.178l-.268.177-2.587 1.602c-.119.059-.238.133-.357.222l-.401.177c-.119.09-.238.164-.357.222l-.401.178-.401.178c-.149.029-.297.089-.446.178-.119.059-.268.103-.446.133a1.65 1.65 0 0 0-.401.133c-.178.059-.342.103-.491.133l-.491.089a3.04 3.04 0 0 1-.491.044c-.178.059-.357.09-.535.09a4.17 4.17 0 0 0-.58.044h-.535a32.59 32.59 0 0 1-2.944-.133l-2.81-.355-2.721-.667c-.922-.237-1.814-.519-2.676-.845l-2.453-1.067c-.833-.386-1.635-.816-2.408-1.29l-2.275-1.467-2.185-1.646-2.052-1.779-1.918-1.957-1.829-2.09-1.695-2.179-1.561-2.312-1.427-2.401-1.338-2.49-1.204-2.536-1.026-2.578-.892-2.668-.803-2.624-.669-2.668-.491-2.668-.401-2.668-.178-2.624L0 41.357l.045-2.49c.029-.833.104-1.649.223-2.449a20.24 20.24 0 0 1 .312-2.357l.535-2.268.624-2.134a21.03 21.03 0 0 1 .803-2.045l.981-1.912 1.115-1.69c.386-.563.818-1.097 1.293-1.601l1.427-1.378 1.606-1.201a10.12 10.12 0 0 1 1.784-.934c.595-.326 1.219-.593 1.873-.8l2.096-.534a12.33 12.33 0 0 1 1.829-.222l1.829-.089h.535.535l2.587.267 2.81.534 2.944.845 3.122 1.201 3.3 1.467c1.16.534 2.334 1.156 3.523 1.868l2.676 1.556a2.14 2.14 0 0 1 .223.133l.758.489 1.829 1.156.268.178a3.11 3.11 0 0 0 .312.178l.669.467.803.6zM63.91 72.035a4.07 4.07 0 0 1 1.026.311c.327.119.64.281.937.489s.58.43.847.667c.238.267.461.549.669.845a4.02 4.02 0 0 1 .491.934c.149.326.252.667.312 1.023.089.355.134.726.134 1.112 0 .503-.059.993-.178 1.467a6.68 6.68 0 0 1-.58 1.334c-.238.386-.52.757-.847 1.112-.357.326-.729.608-1.115.845-.417.237-.863.43-1.338.578-.475.118-.966.178-1.472.178s-.996-.06-1.472-.178c-.475-.149-.921-.342-1.338-.578-.386-.237-.758-.518-1.115-.845-.327-.355-.609-.726-.847-1.112a6.68 6.68 0 0 1-.58-1.334 6.02 6.02 0 0 1-.178-1.467c0-.503.06-.993.178-1.467.149-.474.342-.919.58-1.334a7.31 7.31 0 0 1 .847-1.112c.357-.325.729-.608 1.115-.845a6.71 6.71 0 0 1 1.338-.577c.476-.119.966-.178 1.472-.178a4.55 4.55 0 0 1 1.115.133z"/><path fill="#141754" d="M32.379 2.178l.089.133.089.267.134.267a.96.96 0 0 1 .178.311l.178.267c.089.118.163.252.223.4.059.118.149.237.268.356.089.118.178.252.268.4.089.118.193.237.312.356.089.118.194.237.312.356.208.237.446.46.714.667s.535.371.803.489c-.149.267-.297.593-.446.978-.119.356-.223.741-.312 1.156-.06.445-.089.904-.089 1.378-.029.503-.015 1.038.045 1.601.029.534.119 1.097.268 1.69l.223.889c.06.326.149.638.268.934.089.296.208.607.357.934l.401.934c.149.326.312.637.491.934l.58.978.624.934.714.978.847.934.847.889.981.934 1.07.889 1.204.845a13.23 13.23 0 0 0 1.249.845l-2.587-1.423a18.91 18.91 0 0 1-2.275-1.512l-2.096-1.734c-.624-.563-1.204-1.156-1.739-1.779l-1.516-1.912-1.204-2.045a13.89 13.89 0 0 1-.981-2.134 11.56 11.56 0 0 1-.669-2.179 19.04 19.04 0 0 1-.401-2.268 20.1 20.1 0 0 1-.134-2.312c0-.8.06-1.601.178-2.401L32.334 2l.045.178z"/><path fill="#7f8080" d="M45.847 50.291c.059 0 .119.015.178.044h.268l.312.089.312.09c.089.03.194.074.312.133.089 0 .163.03.223.09a1.63 1.63 0 0 1 .223.089c.06.059.134.119.223.178.06.029.119.074.178.133a.68.68 0 0 0 .134.177l.178.178.134.133a.7.7 0 0 0 .134.178c0 .059.029.118.089.177.029.03.059.075.089.133l.089.133.045.09.045.133.045.089v.044l-.223.133-.624.133a.39.39 0 0 1-.178.045c-.089 0-.163.015-.223.044h-.223-.178-.045-.268c-.089-.029-.164-.044-.223-.044a.83.83 0 0 1-.268-.045 1.63 1.63 0 0 1-.223-.089.98.98 0 0 1-.312-.133c-.089-.059-.178-.103-.268-.133a1.05 1.05 0 0 1-.268-.178l-.268-.178c-.059-.059-.134-.103-.223-.133l-.178-.178c-.06-.059-.104-.119-.134-.178s-.074-.119-.134-.178a.4.4 0 0 0-.045-.178c-.029-.059-.045-.118-.045-.177-.03-.119-.03-.222 0-.312a.67.67 0 0 1 .223-.267c.029-.059.074-.089.134-.089l.178-.09c.089-.029.164-.044.223-.044.06-.029.134-.044.223-.044h.178.178zm1.07 4.046a.75.75 0 0 0 .178-.044c.059-.029.119-.044.178-.044a.72.72 0 0 0 .223-.045c.06 0 .134-.015.223-.044h.178.089.134a.4.4 0 0 1 .178.044c.029 0 .074.015.134.045h.134l.178.089c.029 0 .074.015.134.044l.134.09c.029.029.074.044.134.044l.178.178c.059.029.119.074.178.133.03 0 .06.015.089.044l.045.045-.045.044-.089.089c-.029.029-.089.075-.178.133l-.089.088-.089.044c-.059.03-.104.06-.134.09a.51.51 0 0 1-.134.089l-.089.09a.4.4 0 0 0-.178.044c-.029.029-.074.044-.134.044s-.119.015-.178.044a.4.4 0 0 1-.178.044h-.134-.089-.178-.178a.5.5 0 0 1-.223-.044.4.4 0 0 0-.178-.044c-.059 0-.119-.015-.178-.044a.4.4 0 0 0-.178-.044.51.51 0 0 1-.134-.09.51.51 0 0 0-.134-.089c-.03-.029-.074-.059-.134-.09 0-.029-.015-.059-.045-.089s-.045-.074-.045-.133v-.089-.089c0-.06.015-.09.045-.09.029-.059.045-.103.045-.133l.089-.09c.06-.029.104-.059.134-.089l.178-.09c.029-.028.074-.058.134-.087zm1.115 4.358c.029-.06.06-.104.089-.133v-.133c.06-.059.089-.103.089-.133.059-.059.089-.119.089-.178a.29.29 0 0 0 .134-.133l.134-.133a.29.29 0 0 1 .134-.133c.06-.029.104-.059.134-.089l.089-.09a.53.53 0 0 1 .134-.089c.06 0 .104-.015.134-.044s.074-.044.134-.044c.029 0 .074-.015.134-.045l.223-.044h.134l.089-.044h.312v.445l-.134.356c0 .029-.015.059-.045.089a.34.34 0 0 0-.045.133c-.029.059-.06.103-.089.133 0 .029-.029.075-.089.133 0 .029-.029.059-.089.089 0 .059-.029.09-.089.09a.68.68 0 0 0-.134.177c-.029.03-.089.075-.178.133-.029 0-.074.029-.134.089-.03 0-.074.03-.134.09-.059 0-.119.015-.178.044-.029.029-.06.044-.089.044-.089 0-.149.015-.178.044-.029 0-.074.015-.134.045h-.045c-.029 0-.06-.015-.089-.045H48.3l-.089-.044c-.06 0-.089-.015-.089-.044-.06-.059-.089-.119-.089-.178v-.133-.09-.133zm6.021-9.649l.268.178c.059.089.104.178.134.267v.222.178a1.69 1.69 0 0 0-.089.222c0 .059-.029.133-.089.222a1.82 1.82 0 0 0-.089.222c-.059.059-.119.133-.178.222-.029.089-.074.164-.134.222a.79.79 0 0 1-.223.222c-.06.089-.134.178-.223.267-.06.059-.134.119-.223.178a1.43 1.43 0 0 0-.223.178c-.06.029-.134.074-.223.133l-.178.09a1.63 1.63 0 0 0-.223.089l-.268.09a.4.4 0 0 0-.178.044c-.089 0-.163.015-.223.044h-.223l-.178.044h-.714v-.267l.089-.445.089-.178c0-.089.015-.164.045-.222s.045-.133.045-.222a.67.67 0 0 0 .134-.178 1.62 1.62 0 0 1 .089-.222.68.68 0 0 0 .134-.177.54.54 0 0 1 .134-.222l.178-.178.178-.178.268-.178.223-.222a1 1 0 0 0 .312-.133l.268-.133c.059-.029.134-.059.223-.089l.268-.09h.223c.06-.029.134-.044.223-.044h.178c.06.028.119.043.178.043zm-2.721 4.98l.134-.133a.53.53 0 0 1 .134-.089.51.51 0 0 1 .134-.09.55.55 0 0 1 .134-.089c.029-.029.074-.059.134-.09s.119-.044.178-.044l.312-.089a1 1 0 0 0 .312-.044h.268.178c.029 0 .074.015.134.044a.88.88 0 0 1 .401.089.4.4 0 0 1 .223.267v.09.133c0 .06-.015.104-.045.133s-.045.074-.045.133c-.029 0-.06.029-.089.089-.059.029-.104.059-.134.089l-.134.133a.53.53 0 0 1-.134.089c-.06.06-.119.104-.178.133l-.178.089a1.74 1.74 0 0 0-.223.09.49.49 0 0 1-.223.045c-.029.029-.074.044-.134.044a.5.5 0 0 1-.223.044h-.178-.089-.178c-.059-.029-.119-.044-.178-.044l-.268-.044-.134-.089h-.089c-.059-.06-.119-.09-.178-.09l-.134-.044-.045-.044.089-.178a.53.53 0 0 0 .089-.133l.089-.089.089-.133.089-.089.089-.088zm-.401 3.068h.134l.178-.089h.223l.134-.044h.223.178c.029 0 .059.015.089.044h.178c.029 0 .074.015.134.044s.104.044.134.044c.089.06.178.104.268.133s.163.074.223.133c.089.059.163.118.223.177a.7.7 0 0 1 .134.178.66.66 0 0 1 .178.312c.029.118.029.222 0 .311-.029.059-.074.103-.134.133 0 .029-.03.044-.089.044-.029.029-.06.044-.089.044-.06.029-.104.044-.134.044h-.134-.045-.134-.134l-.178-.089h-.178l-.178-.09c-.06 0-.119-.029-.178-.089-.029 0-.074-.015-.134-.044l-.089-.09c-.059-.029-.104-.059-.134-.089-.059-.029-.104-.059-.134-.089l-.089-.09c-.029-.059-.045-.103-.045-.133l-.178-.178-.045-.132-.045-.044-.089-.178-.045-.089v-.089z"/><path fill="#fff" d="M67.478 83.419l-.156.133-.602.49a.7.7 0 0 1-.178.133 7.33 7.33 0 0 1-1.026.578c-.386.178-.743.311-1.07.4a3.56 3.56 0 0 1-.535.133 2.54 2.54 0 0 1-.491.044l-.446.09h-.446-.045-.491l-.446-.09a1.68 1.68 0 0 1-.401-.044 2.1 2.1 0 0 0-.401-.044l-.357-.089-.357-.09c-.149-.059-.283-.103-.401-.133l-.401-.178-.357-.178-.401-.178a.71.71 0 0 0-.268-.178v-.044c-.149-.089-.268-.178-.357-.267-.089-.059-.178-.149-.268-.267l-.312-.222-.223-.312-.268-.267-.223-.311c-.089-.09-.164-.193-.223-.312-.089-.089-.164-.177-.223-.267a1.2 1.2 0 0 0-.223-.311l-1.338-2.268a.71.71 0 0 0-.178-.268.54.54 0 0 1-.134-.222l-.178-.177a.67.67 0 0 0-.134-.178l-.178-.178a.7.7 0 0 1-.178-.133l-.178-.089-.178-.089a.39.39 0 0 1-.178-.045h-.223-.223c-.119.03-.223.045-.312.045l-.178.089-.268.133a1.43 1.43 0 0 1-.223.177l-.268.178a1.05 1.05 0 0 1-.268.178l-.223.222-.268.267-1.427 1.424a3.38 3.38 0 0 1-.357.311 3.38 3.38 0 0 0-.357.311c-.119.09-.238.193-.357.312s-.253.222-.401.311a4.11 4.11 0 0 1-.446.312l-.401.311-.491.267-.491.312-.491.222-.58.267-.58.222-.669.178a1.6 1.6 0 0 1-.401.133c-.149.029-.297.075-.446.133l-.491.089-.446.09a2.8 2.8 0 0 0-.535.044 3.29 3.29 0 0 1-.535.044l-.535.089h-.58-.58c-.268 0-.55-.029-.847-.089a8.53 8.53 0 0 1-.937-.222 5.53 5.53 0 0 1-.892-.356l-.937-.534c-.327-.207-.64-.43-.937-.667l-.981-.756-.892-.935-.937-.978-.937-1.156-.892-1.201-.892-1.334-.847-1.378-.847-1.467-.803-1.512-.803-1.601-.714-1.69-.714-1.69-.669-1.779-.58-1.779-.58-1.823-.446-1.823-.446-1.868-.357-1.824-.268-1.868-.223-1.823-.178-1.869V48.82c-.03-.563-.03-1.156 0-1.779l.089-1.734c.06-.563.149-1.127.268-1.689l.312-1.645.401-1.601c.149-.534.327-1.052.535-1.556l.58-1.467.758-1.378c.268-.474.55-.904.847-1.29l1.026-1.201 1.07-1.156a14.48 14.48 0 0 1 1.249-1.023l1.383-.845c.475-.296.981-.563 1.516-.8s1.085-.445 1.65-.623c.595-.207 1.204-.385 1.829-.534l1.918-.4 2.096-.222 2.185-.089h.089l1.026.044 1.427.044 2.587.311 3.3 2.223v.089a2.48 2.48 0 0 1 .134.445l.178.445c.029.118.074.252.134.4l.178.356a2.29 2.29 0 0 0 .223.356l.223.311c.059.089.134.178.223.267l.223.311a2.85 2.85 0 0 0 .312.267c.06.06.149.118.268.178.059.089.149.163.268.222a3.11 3.11 0 0 0 .312.178l.268.178.312.089c.119.059.223.104.312.133l.312.089h.312a.5.5 0 0 0 .223.044h.223.134a1 1 0 0 0 .312-.044 1 1 0 0 0 .312-.044 1 1 0 0 1 .312-.044c.06-.06.149-.104.268-.133a4.4 4.4 0 0 0 .981-.667 2.29 2.29 0 0 0 .669-.845 3.03 3.03 0 0 0 .312-1.156c.029-.415-.015-.86-.134-1.334s-.342-.993-.669-1.556c-.297-.504-.698-1.053-1.204-1.645-.208-.237-.372-.489-.491-.756a2.9 2.9 0 0 1-.312-.845 4.69 4.69 0 0 1-.178-.889 5.27 5.27 0 0 1 .089-.934c.029-.296.104-.607.223-.934l.401-.934a8.57 8.57 0 0 1 .58-.845c.208-.326.461-.608.758-.845.268-.267.565-.534.892-.8.327-.237.684-.445 1.07-.623a6.42 6.42 0 0 1 1.204-.578c.446-.178.907-.311 1.383-.4.357-.089.698-.149 1.026-.178.297-.06.609-.089.937-.089l.535-.044a8.8 8.8 0 0 1 1.249.089c.565.089 1.1.222 1.606.4.535.149 1.026.371 1.472.667a5.58 5.58 0 0 1 1.338.978c.417.326.803.711 1.16 1.156s.698.919 1.026 1.423c.297.504.565 1.038.803 1.601l.312.889a3.43 3.43 0 0 1 .312.934c.119.296.208.607.268.934.089.326.163.667.223 1.023l.178.978a6.43 6.43 0 0 1 .089 1.067c.06.326.089.682.089 1.067v1.067.934l-.089.889c-.029.296-.074.593-.134.889l-.178.889-.178.667c-.03.178-.074.371-.134.578l-.178.623a3.37 3.37 0 0 1-.223.578c-.06.207-.134.415-.223.623l-.178.623-.268.578-.268.623-.268.578-.268.667-.268.578a6.15 6.15 0 0 0-.312.623l-4.727 9.16-.268.578a3.62 3.62 0 0 0-.312.578l-.268.622a3.3 3.3 0 0 1-.223.578 2.84 2.84 0 0 0-.268.623l-.223.577c-.089.207-.163.415-.223.623a4.17 4.17 0 0 1-.223.534l-.178.622a9.46 9.46 0 0 1-.223.889l-.178.889-.178.845-.089.845c0 .178-.015.356-.045.534s-.045.342-.045.49v.577c0 .178.015.371.045.578a3.27 3.27 0 0 0 .045.534c0 .178.015.371.045.578l.089.577a3.47 3.47 0 0 0 .134.534l.178.577c.03.178.089.356.178.534l.491 1.112a6.41 6.41 0 0 0 .669.978c.238.297.506.593.803.889l1.026.757h.045l.937.534h.045l.312.089c.446.178.937.326 1.472.445.268.06.55.104.847.133l.892.089c1.03 3.725.138 7.756-2.676 12.099zM50.932 57.095v.09l.045.089.089.178.045.044.045.133.178.178c0 .029.015.074.045.133l.089.09a.53.53 0 0 0 .134.089.53.53 0 0 0 .134.089l.089.09c.06.029.104.044.134.044.06.059.119.089.178.089l.178.09h.178l.178.089h.134.134.045.134c.029 0 .074-.015.134-.044.029 0 .06-.015.089-.044.059 0 .089-.015.089-.044.059-.03.104-.075.134-.133.029-.089.029-.193 0-.311a.66.66 0 0 0-.178-.312.7.7 0 0 0-.134-.178c-.06-.059-.134-.118-.223-.177-.06-.06-.134-.104-.223-.133s-.178-.074-.268-.133c-.03 0-.074-.015-.134-.044s-.104-.044-.134-.044h-.178c-.03-.029-.06-.044-.089-.044h-.178-.223l-.134.044h-.223l-.178.089h-.134v-.003zm.401-3.068l-.089.089c-.029.03-.06.059-.089.089l-.089.133-.089.089a.53.53 0 0 1-.089.133l-.089.178.045.044.134.044c.059 0 .119.029.178.09h.089l.134.088.268.044c.059 0 .119.015.178.044h.178.089.178a.5.5 0 0 0 .223-.044c.06 0 .104-.015.134-.044a.5.5 0 0 0 .223-.044c.06-.029.134-.059.223-.09l.178-.089c.06-.03.119-.074.178-.133.059-.029.104-.059.134-.089s.074-.074.134-.133a.53.53 0 0 1 .134-.089c.029-.059.06-.089.089-.089 0-.06.015-.104.045-.133s.045-.074.045-.133v-.133-.09a.4.4 0 0 0-.223-.267.88.88 0 0 0-.401-.089c-.059-.029-.104-.044-.134-.044h-.178-.268a1 1 0 0 1-.312.044c-.089.029-.194.059-.312.089-.059 0-.119.015-.178.044a.51.51 0 0 0-.134.09c-.06.029-.104.059-.134.089a.48.48 0 0 0-.134.09c-.059.029-.104.059-.134.089s-.074.073-.134.133zm2.721-4.98c-.059 0-.119-.015-.178-.044h-.178c-.089 0-.163.015-.223.044h-.223l-.268.09c-.089.029-.164.059-.223.089l-.268.133a1 1 0 0 1-.312.133l-.223.222-.268.178-.178.178-.178.178a.54.54 0 0 0-.134.222.7.7 0 0 1-.134.177 1.88 1.88 0 0 0-.089.222.69.69 0 0 1-.134.178c0 .09-.015.164-.045.222s-.045.133-.045.222l-.089.178-.089.445v.267h.714l.178-.044h.223c.06-.029.134-.044.223-.044a.4.4 0 0 1 .178-.044l.268-.09c.06-.029.134-.059.223-.089l.178-.09c.089-.059.163-.103.223-.133a1.43 1.43 0 0 1 .223-.178c.089-.059.163-.119.223-.178.089-.089.163-.178.223-.267a.79.79 0 0 0 .223-.222c.059-.059.104-.133.134-.222a1.38 1.38 0 0 1 .178-.222 1.82 1.82 0 0 1 .089-.222c.06-.089.089-.164.089-.222a1.69 1.69 0 0 1 .089-.222v-.178-.222a1.1 1.1 0 0 0-.134-.267l-.268-.177zm-6.021 9.649v.133.09.133c0 .059.029.119.089.178 0 .029.029.044.089.044l.089.044h.045c.029.03.06.045.089.045h.045c.06-.03.104-.045.134-.045.03-.029.089-.044.178-.044.029 0 .06-.015.089-.044.059-.029.119-.044.178-.044.06-.059.104-.09.134-.09.059-.059.104-.089.134-.089.089-.059.149-.103.178-.133a.7.7 0 0 1 .134-.177c.059 0 .089-.03.089-.09.06-.029.089-.059.089-.089.06-.059.089-.104.089-.133.029-.029.06-.074.089-.133a.34.34 0 0 1 .045-.133c.029-.029.045-.059.045-.089l.134-.355v-.445h-.312l-.089.044h-.134l-.223.044c-.06.03-.104.045-.134.045-.06 0-.104.015-.134.044s-.074.044-.134.044c-.059.029-.104.059-.134.089l-.089.09a.53.53 0 0 1-.134.089c-.059.029-.104.075-.134.133l-.134.133c-.029.06-.074.104-.134.133 0 .059-.03.119-.089.178 0 .029-.029.074-.089.133v.133c-.029.029-.06.074-.089.133zm-1.115-4.358c-.059.029-.104.059-.134.089l-.178.09a.53.53 0 0 1-.134.089l-.089.09c0 .029-.015.074-.045.133-.029 0-.045.029-.045.09v.089.089c0 .06.015.104.045.133s.045.059.045.089a.51.51 0 0 1 .134.09c.059.029.104.059.134.089a.53.53 0 0 0 .134.09.4.4 0 0 1 .178.044c.059.029.119.044.178.044a.4.4 0 0 1 .178.044.5.5 0 0 0 .223.044h.178.178.089.134a.4.4 0 0 0 .178-.044c.059-.029.119-.044.178-.044s.104-.015.134-.044a.4.4 0 0 1 .178-.044l.089-.09c.059-.029.104-.059.134-.089a.53.53 0 0 1 .134-.09l.089-.046.089-.089c.089-.059.149-.104.178-.133a4.2 4.2 0 0 0 .089-.089l.045-.044-.045-.044c-.029-.029-.059-.044-.089-.044-.059-.059-.119-.103-.178-.133l-.178-.178c-.059 0-.104-.015-.134-.044l-.134-.09c-.06-.029-.104-.044-.134-.044l-.178-.089h-.134c-.06-.03-.104-.045-.134-.045a.4.4 0 0 0-.178-.044h-.134-.089-.178c-.089.029-.163.044-.223.044a.72.72 0 0 1-.223.045c-.059 0-.119.015-.178.044a.75.75 0 0 1-.178.044zm-1.07-4.046h-.178-.178c-.089 0-.163.015-.223.044-.059 0-.134.015-.223.044l-.178.09c-.06 0-.104.029-.134.089-.089.059-.164.149-.223.267-.03.09-.03.193 0 .312 0 .059.015.118.045.177a.4.4 0 0 1 .045.178c.06.059.104.119.134.178s.074.119.134.178l.178.178c.089.029.164.074.223.133l.268.178c.059.059.149.119.268.178.089.029.178.074.268.133s.193.104.312.133c.06.029.134.059.223.089a.83.83 0 0 0 .268.045c.059 0 .134.015.223.044h.268.045.178.223c.06-.029.134-.044.223-.044a.39.39 0 0 0 .178-.045l.624-.133.223-.133v-.044l-.045-.089-.045-.133-.045-.089-.089-.133c-.029-.059-.059-.103-.089-.133-.06-.059-.089-.118-.089-.177a.7.7 0 0 1-.134-.178l-.134-.133-.178-.178a.68.68 0 0 1-.134-.177c-.06-.06-.119-.104-.178-.133-.089-.059-.163-.119-.223-.178-.06-.029-.134-.059-.223-.089-.06-.059-.134-.09-.223-.09-.119-.059-.223-.103-.312-.133a5.45 5.45 0 0 0-.312-.09 4.69 4.69 0 0 0-.312-.089h-.268a.39.39 0 0 0-.178-.045zM63.91 72.035a4.55 4.55 0 0 0-1.115-.133 6.03 6.03 0 0 0-1.472.178 6.76 6.76 0 0 0-1.338.577 7.43 7.43 0 0 0-1.115.845 7.31 7.31 0 0 0-.847 1.112c-.238.415-.431.86-.58 1.334-.119.474-.178.964-.178 1.467a6.02 6.02 0 0 0 .178 1.467 6.68 6.68 0 0 0 .58 1.334c.238.386.52.757.847 1.112.357.326.729.608 1.115.845.417.237.863.43 1.338.578a6.08 6.08 0 0 0 1.472.178 6.08 6.08 0 0 0 1.472-.178c.475-.149.921-.342 1.338-.578.386-.237.758-.518 1.115-.845.327-.355.609-.726.847-1.112a6.68 6.68 0 0 0 .58-1.334 6.02 6.02 0 0 0 .178-1.467c0-.386-.045-.757-.134-1.112-.06-.356-.163-.696-.312-1.023a3.99 3.99 0 0 0-.491-.934 9.38 9.38 0 0 0-.669-.845c-.268-.237-.55-.46-.847-.667a4.06 4.06 0 0 0-.937-.489c-.327-.148-.669-.251-1.026-.31z"/></svg>