<svg xmlns="http://www.w3.org/2000/svg" viewBox="0 0 90 90" fill="none" fill-rule="evenodd" xmlns:v="https://vecta.io/nano"><path fill="#fff" opacity="0" d="M0 0h90v90H0z"/><g fill-rule="nonzero"><path fill="#16b14b" d="M74.3 26.461c-4.912 0-9.138 3.186-10.83 7.665-.088.229-.388 1.175-.388 1.175l-6.838 29.237h15.707c5.396 0 9.963-3.843 11.256-9.024v.003L90 26.461H74.3z"/><path fill="#f27227" d="M48.147 18a11.52 11.52 0 0 0-11.074 8.315c-.103.358-.188.725-.256 1.096L26.156 73H41.85a11.52 11.52 0 0 0 11.164-8.644h0 .004L63.859 18H48.147h0z"/><path fill="#1169b0" d="M18.052 26.461c-5.091 0-9.445 3.42-11.007 8.157l-.101.319-.262 1.019L0 64.538h16.086c4.806 0 8.932-3.149 10.534-7.56l.637-2.72 6.498-27.797H18.052h0z"/><path fill="#fff" d="M15.116 35.956l-.006.025h-.244c-1.121 0-2.177.394-3.145 1.174-.932.75-1.544 1.664-1.756 2.413h-.009l-3.603 15.45.205-.003c1.133 0 2.204-.396 3.176-1.184.978-.783 1.602-1.745 1.854-2.855l.788-3.353 7.165.002c1.12 0 2.2-.413 3.178-1.192s1.598-1.734 1.849-2.842l.045-.203-11.24-.008.749-3.186 9.735-.014c1.121 0 2.179-.39 3.144-1.163s1.566-1.748 1.836-2.845l.05-.205-13.772-.013zm39.741.938c-.619-.613-1.426-.923-2.4-.923l-13.739-.015-4.437 19.038h.006l-.006.025.205-.003c1.134 0 2.203-.396 3.176-1.184s1.6-1.745 1.854-2.855l.798-3.392 9.511.009c1.116 0 2.114-.127 3.082-.897s1.649-1.991 1.921-3.115l.835-3.528c.061-.278.095-.57.101-.867.016-.909-.288-1.681-.907-2.292h0zm-4.287 6.484l-9.267-.009.75-3.191 9.268.01-.751 3.191zm32.241-6.473c-.607-.613-1.414-.924-2.393-.924h-6.051-.382-8.064l-.029.135c-.065.299-.1.574-.105.839-.016.928.285 1.71.895 2.327s1.415.922 2.395.922h3.033l-3.455 14.815.205-.003c1.133 0 2.203-.396 3.176-1.184s1.601-1.745 1.853-2.855l2.532-10.773h7.152l.03-.135a4.49 4.49 0 0 0 .1-.865c.015-.915-.283-1.688-.893-2.298h0z"/></g></svg>