<svg viewBox="0 0 90 90" xmlns="http://www.w3.org/2000/svg"><g fill="none"><path fill="#FCFCFC" d="M0 0h90v90H0z"/><path d="M25.294 74c-2.352 0-3.91-2.47-3.059-4.67A67.36 67.36 0 0 0 26.75 45c0-8.58-1.6-16.784-4.514-24.33-.85-2.2.707-4.67 3.059-4.67 1.279 0 2.44.764 2.91 1.958A73.924 73.924 0 0 1 33.29 45a73.924 73.924 0 0 1-5.087 27.041A3.111 3.111 0 0 1 25.293 74Zm15.683-6.568c-2.152 0-3.704-2.072-3.217-4.18A80.968 80.968 0 0 0 39.832 45c0-6.278-.717-12.388-2.072-18.253-.487-2.107 1.065-4.18 3.219-4.18 1.466 0 2.753.987 3.09 2.42A87.565 87.565 0 0 1 46.375 45c0 6.888-.798 13.587-2.304 20.013a3.158 3.158 0 0 1-3.091 2.421l-.002-.002Zm14.826-9.848c-1.972 0-3.487-1.743-3.302-3.712a95.076 95.076 0 0 0 0-17.744c-.185-1.969 1.33-3.712 3.3-3.712 1.644 0 3.034 1.226 3.191 2.866.62 6.463.62 12.972 0 19.436-.157 1.641-1.548 2.866-3.19 2.866h.001Zm13.371-16.78 1.87 1.876a3.288 3.288 0 0 1-.001 4.64l-1.869 1.876c-1.372 1.38-3.722.403-3.722-1.547v-5.3c0-1.95 2.348-2.926 3.722-1.547v.001Z" fill="#8952FD"/></g></svg>