<svg viewBox="0 0 90 90" xmlns="http://www.w3.org/2000/svg"><g fill="none"><path fill="#725794" d="M0 0h90v90H0z"/><g fill="#FFF"><path d="M17.738 15c-.626-.023-.963.541-.479.966 15.142 7.336 17.668 14.384 18.943 21.9.483 2.847.786 5.761 1.528 8.784.731 2.976 5.567 26.105 31.084 28.345 1.001.088 1.282-1.066.269-1.342-20.825-5.658-25.84-42.864-11.29-44.215 2.025-.188 2.638.676 4.172 1.197 1.533.521 3.945.686 4.666.539 1.371-2.565-1.06-5.5-3.099-7.658 2.214-1.452 9.335-3.063 10.174-3.427.53-.23.268-1.083-.192-1.165-3.258.199-11.01.85-14.486 2.203-6.113-3.772-14.077-.83-18.125 5.61-4.121-6.112-9.967-7.97-23.165-11.736Zm34.269 5.78c3.1 0 3.015 1.324-1.029 2.734-4.859 1.61-8.88 5.633-10.034 9.448-.476-.704 1.809-11.001 11.063-12.182Z"/><g transform="translate(16 27.653)"><ellipse cx="5.959" cy="6.088" rx="5.959" ry="6.088"/><ellipse cx="12.751" cy="21.261" rx="4.605" ry="4.704"/><ellipse cx="18.409" cy="34.191" rx="3.359" ry="3.431"/></g><g transform="translate(65.709 56.597)"><ellipse cx="4.032" cy="2.878" rx="2.817" ry="2.878"/><ellipse cx="2.275" cy="10.786" rx="2.275" ry="2.324"/></g><path d="M66.517 31.073c-.643.19-2.696-.098-2.696-.098.565.376.939 1.433.922 2.148-2.016-.266-2.851-.948-4.694-1.953 0 .04 1.302 1.549 2.51 2.476 2.297 1.763 4.35 3.91 5.644 5.902.637.979.777 1.098.833.708.168-1.167-.276-5.34-2.175-8.072-.27-.39-.31-.814-.344-1.11Z"/></g></g></svg>