<svg xmlns="http://www.w3.org/2000/svg" viewBox="0 0 90 90"><path fill="#2864F0" d="M0 0h90v90H0z"/><path d="M60.357 42.425a88.655 88.655 0 0 1-17.785-1.787A48.287 48.287 0 0 0 68.667 8L32.234 36c-2.027 1.563-2.503 1.038-4.506 1.038a11.697 11.697 0 0 0-8.072 3.237 3.405 3.405 0 0 1-2.153 1.25L15 42.138l4.844 1.062c3.867.85 4.743 1.475 6.87 4.237L54.062 83a40.155 40.155 0 0 0-9.6-29.163 26.312 26.312 0 0 0 8.474-1.475 12.78 12.78 0 0 1 5.594-.925h14.519c.187-.974-.176-1.25-1.602-1.462L60.18 48.412c.501-.35 1.252-.962 1.703-1.387a5.773 5.773 0 0 1 3.103-1.525 81.09 81.09 0 0 0 8.761-2.612C75 42.463 74.775 42.013 75 41.25a82.704 82.704 0 0 1-14.68 1.25" fill="#FFF"/><path d="M26.602 43.125a1.801 1.801 0 1 1 1.802-1.8c0 .994-.807 1.8-1.802 1.8m17.61 8.513a23.996 23.996 0 0 1-16.459-6.5c3.855-1.25 8.824-1.338 15.345-.65 5.982.637 10.863 1.612 16.458 1.624a23.973 23.973 0 0 1-15.344 5.526" fill="#2864F0"/></svg>