<svg viewBox="0 0 90 90" xmlns="http://www.w3.org/2000/svg"><g fill="none"><path fill="#5B628B" d="M0 0h90v90H0z"/><path d="M79.692 13.003H48.154a99.274 99.274 0 0 0-17.544 1.432 12.818 12.818 0 0 0-7.156 2.6 6.796 6.796 0 0 0-1.855 4.617 10.618 10.618 0 0 0 2.968 6.156 13.045 13.045 0 0 0 2.915 2.76 1.747 1.747 0 0 0 1.75 0c.53-.284.53-.531 0-.744a5.307 5.307 0 0 1-3.287-5.306c0-5.519 7.209-8.756 21.626-9.711 5.442-.354 9.7-.53 12.774-.53a17.975 17.975 0 0 0-9.7 8.33l-6.572 13.585A153.94 153.94 0 0 1 28.17 64.795a20.19 20.19 0 0 1-14.099 7.853 8.317 8.317 0 0 1-6.52-2.547 11.205 11.205 0 0 1-2.49-7.96v-2.6c-.637 0-1.008.584-1.008 1.751v1.751a13.538 13.538 0 0 0 5.3 11.993A12.026 12.026 0 0 0 16.034 77c7.773 0 14.717-5.501 20.83-16.504l2.491-5.2c.601-1.168 1.608-3.149 3.022-5.943 1.413-2.795 2.173-4.493 2.279-5.095a1.59 1.59 0 0 1 1.75-.69H63.42a1.43 1.43 0 0 1 1.537 1.752 14.075 14.075 0 0 1-1.431 5.04 1.537 1.537 0 0 0 1.484-.901c.38-.917.86-1.789 1.431-2.6a38.954 38.954 0 0 0 2.173-3.29 1.54 1.54 0 0 0-.318-2.282 10.59 10.59 0 0 0-4.611-.637H48.313c-.848 0-1.166-.425-.848-1.22l1.431-3.079 1.75-3.714 1.696-3.556a52.83 52.83 0 0 1 1.96-3.714l2.386-3.874a15.917 15.917 0 0 1 3.445-4.457A22.083 22.083 0 0 1 73.12 14.17a11.65 11.65 0 0 1 4.558.902 5.307 5.307 0 0 1 3.499 5.307 17.052 17.052 0 0 1-.743 4.67c0 .53 0 .742.424.636a2.068 2.068 0 0 0 1.75-1.326l.742-1.38a63.577 63.577 0 0 0 1.643-3.078A8.073 8.073 0 0 0 86 16.505c0-2.123-2.103-3.29-6.308-3.502Z" fill="#FFF"/></g></svg>