<svg viewBox="0 0 90 90" xmlns="http://www.w3.org/2000/svg"><g fill="none" fill-rule="evenodd"><path fill="#00A4F0" d="M0 0h90v90H0z"/><path d="M48.393 69.496v4.21c0 1.383-1.165 2.516-2.57 2.516h-2.404c-1.415 0-2.568-1.133-2.568-2.516v-5.761c0-.237.033-.467.097-.687-.414-2.741-2.672-4.9-5.509-5.215h-.66c-2.47 0-3.81-1.155-3.81-3.725v-3.726h3.811c2.483 0 3.613 1.18 3.786 3.16h.033c-.006.092-.012.184-.016.276.004.093.006.19.006.29v.284c.177 2.96 2.493 5.357 5.464 5.732.226-.025.465-.037.716-.037h.898c2.852-.473 5.044-2.82 5.217-5.697v-.282c0-.123.004-.24.01-.356a4.433 4.433 0 0 0-.01-.21h.023c.175-1.98 1.303-3.16 3.788-3.16h3.81v3.726c0 2.57-1.34 3.725-3.812 3.725h-.66c-2.743.306-4.946 2.334-5.453 4.949v1.03c0 .559-.064 1.049-.187 1.474ZM44.06 23.742a6.67 6.67 0 0 1 .71-.035h.89c2.857-.47 5.052-2.818 5.225-5.698v-.282c0-.12.004-.239.01-.355 0-.07-.004-.14-.01-.21h.025C51.08 15.18 52.212 14 54.695 14h3.81v3.726c0 2.57-1.34 3.725-3.812 3.725h-.669c-2.74.311-4.939 2.337-5.444 4.949v1.03c0 2.57-1.342 3.724-3.811 3.724-3.096 0-3.81-1.408-3.81-3.724 0-.179.008-.35.02-.519-.311-2.856-2.613-5.131-5.53-5.46h-.67c-2.47 0-3.81-1.155-3.81-3.725V14h3.811c2.483 0 3.613 1.18 3.784 3.16h.035l-.016.276c.004.095.006.19.006.29v.283c.18 2.962 2.497 5.36 5.47 5.73v.003Zm0 19.998c.224-.023.46-.035.71-.035h.89c2.857-.47 5.052-2.817 5.225-5.697v-.282c0-.12.004-.24.01-.356 0-.07-.004-.14-.01-.21h.025c.171-1.98 1.303-3.16 3.786-3.16h3.81v3.726c0 2.57-1.34 3.726-3.812 3.726h-.66c-2.743.305-4.946 2.333-5.453 4.95v1.029c0 2.57-1.342 3.723-3.811 3.723-3.096 0-3.81-1.405-3.81-3.723 0-.18.008-.35.02-.52-.311-2.858-2.62-5.135-5.54-5.46h-.66c-2.47 0-3.81-1.154-3.81-3.725v-3.725h3.811c2.481 0 3.613 1.18 3.784 3.16h.035l-.016.275c.004.096.006.193.006.292v.282c.18 2.961 2.497 5.359 5.47 5.73ZM23.316 53.892a6.82 6.82 0 0 1 .703-.035h.893c2.804-.46 4.984-2.736 5.223-5.547v-.432c0-.136.004-.266.011-.395l-.011-.173h.023c.175-1.977 1.314-3.157 3.798-3.157h3.81v3.725c0 2.57-1.35 3.724-3.81 3.724h-.667c-2.74.305-4.95 2.333-5.46 4.95v1.029c0 2.57-1.338 3.723-3.81 3.723-3.095 0-3.809-1.405-3.809-3.723 0-.18.006-.35.02-.52-.311-2.858-2.621-5.135-5.534-5.46h-.667c-2.47 0-3.811-1.152-3.811-3.723v-3.725h3.81c2.484 0 3.614 1.18 3.787 3.157h.035c-.006.094-.014.185-.018.278.004.096.006.19.006.29v.282c.179 2.961 2.508 5.36 5.478 5.732Zm42.233 0a6.78 6.78 0 0 1 .706-.035h.892c2.853-.466 5.06-2.817 5.235-5.697v-.282c0-.097 0-.194.005-.29l-.019-.278h.037c.173-1.977 1.303-3.157 3.786-3.157H80v3.725c0 2.57-1.35 3.724-3.811 3.724h-.667c-2.738.305-4.949 2.335-5.458 4.952v1.027c0 2.57-1.34 3.723-3.81 3.723-3.095 0-3.81-1.405-3.81-3.723 0-.18.007-.35.02-.52-.312-2.858-2.62-5.135-5.533-5.46h-.667c-2.47 0-3.81-1.152-3.81-3.723v-3.725h3.81c2.483 0 3.613 1.18 3.786 3.157h.035c-.006.094-.014.185-.017.278.003.096.005.19.005.29v.282c.18 2.961 2.509 5.36 5.478 5.732h-.002Zm0-20.11a6.78 6.78 0 0 1 .706-.034h.892c2.853-.467 5.06-2.818 5.235-5.697v-.284c0-.098 0-.195.005-.29l-.019-.276h.037c.171-1.98 1.303-3.16 3.786-3.16H80v3.726c0 2.57-1.35 3.723-3.811 3.723h-.667c-2.738.306-4.949 2.336-5.458 4.953v1.026c0 2.571-1.34 3.726-3.81 3.726-3.095 0-3.81-1.406-3.81-3.726 0-.178.007-.35.02-.519-.312-2.858-2.62-5.133-5.533-5.46h-.667c-2.47 0-3.81-1.153-3.81-3.723v-3.724h3.81c2.483 0 3.613 1.18 3.786 3.16h.035l-.017.276c.003.095.005.19.005.29v.28c.18 2.963 2.509 5.362 5.478 5.736l-.002-.002Zm-42.453 0c.222-.023.457-.034.704-.034h.892c2.855-.467 5.064-2.82 5.235-5.703v-.276c0-.098 0-.195.006-.288a12.02 12.02 0 0 0-.018-.278h.035c.173-1.98 1.303-3.16 3.786-3.16h3.81v3.726c0 2.57-1.35 3.723-3.81 3.723h-.667c-2.74.305-4.95 2.334-5.46 4.95v1.03c0 2.57-1.338 3.725-3.81 3.725-3.083 0-3.808-1.406-3.808-3.726 0-.178.005-.35.019-.517-.311-2.858-2.62-5.137-5.532-5.462h-.669C11.342 31.492 10 30.34 10 27.77v-3.726h3.811c2.481 0 3.613 1.18 3.784 3.16h.035l-.017.276c.003.095.005.19.005.29v.28c.18 2.963 2.509 5.364 5.478 5.736v-.002Zm.704-2.29c-2.46 0-3.81-1.406-3.81-3.723 0-2.32 1.109-3.726 3.812-3.726 2.71 0 3.807 2.23 3.807 3.726 0 2.57-1.338 3.723-3.81 3.723Zm42.455 0c-2.46 0-3.811-1.406-3.811-3.723 0-2.32 1.098-3.726 3.81-3.726 2.713 0 3.812 2.23 3.812 3.726 0 2.57-1.342 3.723-3.811 3.723Zm0 20.11c-2.46 0-3.811-1.406-3.811-3.724 0-2.32 1.098-3.725 3.81-3.725 2.713 0 3.812 2.23 3.812 3.725 0 2.57-1.342 3.724-3.811 3.724Zm-42.234 0c-2.471 0-3.81-1.406-3.81-3.724 0-2.32 1.098-3.725 3.81-3.725 2.71 0 3.808 2.23 3.808 3.725 0 2.57-1.338 3.724-3.81 3.724h.002ZM44.77 41.45c-2.47 0-3.81-1.408-3.81-3.726S42.06 34 44.771 34c2.71 0 3.809 2.23 3.809 3.725 0 2.57-1.342 3.726-3.811 3.726Zm0 20.593c-2.47 0-3.81-1.407-3.81-3.725s1.1-3.726 3.812-3.726c2.71 0 3.809 2.232 3.809 3.726 0 2.57-1.342 3.725-3.811 3.725Zm0-40.592c-2.47 0-3.81-1.408-3.81-3.725 0-2.318 1.1-3.726 3.812-3.726 2.71 0 3.809 2.23 3.809 3.726 0 2.57-1.342 3.725-3.811 3.725Z" fill="#FFF"/></g></svg>