<svg viewBox="0 0 90 90" xmlns="http://www.w3.org/2000/svg"><g fill="none" fill-rule="evenodd"><path d="M3.417 45c0-23.484 18.616-42.522 41.58-42.522C67.96 2.478 86.575 21.516 86.575 45c0 23.484-18.616 42.524-41.577 42.524C22.033 87.524 3.417 68.486 3.417 45Z" fill="#FFF"/><path d="M64.533 34.178c.286-.284.442-.674.43-1.077v-3.586a2.024 2.024 0 0 0-.726-1.617 2.023 2.023 0 0 0-1.616-.727H28.614c1.311 3.665 1.67 6.91 1.077 9.729l14.04 8.895c.36.18.78.27 1.265.27h.08c.434 0 .83-.09 1.186-.27l18.162-11.508.11-.11Zm-.19 4.772L46.266 50.487a3.326 3.326 0 0 1-1.269.267 2.626 2.626 0 0 1-1.183-.267l-15.55-9.894a14.196 14.196 0 0 1-3.26 3.396v3.262c0 5.515 1.96 10.188 5.873 14.015 3.9 3.972 8.607 5.958 14.12 5.958h.46c5.336-.125 9.89-2.111 13.66-5.958 3.9-3.827 5.848-8.497 5.848-14.013v-9.368a1.049 1.049 0 0 1-.161.525c-.071.126-.161.28-.27.46a.26.26 0 0 0-.19.08Zm12.505 37.896C68.028 85.616 57.41 90 44.996 90c-12.414 0-23.029-4.384-31.85-13.154C4.382 68.026 0 57.403 0 44.986 0 32.57 4.383 21.95 13.15 13.126 21.97 4.375 32.587 0 45 0c12.414 0 23.03 4.377 31.85 13.128C85.616 21.95 90 32.57 90 44.988c0 12.415-4.383 23.036-13.15 31.86l-.002-.002ZM20.772 30.244c-1.49 1.131-2.57 2.478-3.232 4.043-.18.305-.325.639-.434.996-.97 2.876-.733 6.263.703 10.162 3.178-1.15 5.578-2.651 7.194-4.502a9.279 9.279 0 0 0 1.186-1.617 10.843 10.843 0 0 0 1.266-3.882c.36-2.334 0-5.004-1.077-8.005-.071-.052-.109-.116-.109-.19-2.21.846-4.042 1.844-5.497 2.995Zm2.532-4.341a11.874 11.874 0 0 0-1.077-.27c-6.484-1.922-11.55.603-15.197 7.574 2.622 1.385 5.048 2.13 7.275 2.237h.27a7.766 7.766 0 0 1 .728-2.237 11.456 11.456 0 0 1 2.963-4.15c1.31-1.204 2.991-2.255 5.04-3.154h-.002Z" fill="#ACD432"/></g></svg>