<svg xmlns="http://www.w3.org/2000/svg" viewBox="0 0 90 90"><path fill="#FFF" d="M0 0h90v90H0z"/><path fill="#2D3232" d="M77.46 55.5l-7.55-4.35a2.19 2.19 0 01-1.1-1.9v-8.7c0-1.81-.96-3.48-2.54-4.39l-7.54-4.35a2.2 2.2 0 01-1.1-1.9v-8.7c0-1.81-.97-3.5-2.54-4.4L45 11l-10.1 5.8a5.09 5.09 0 00-2.52 4.41v8.7c0 .78-.42 1.5-1.1 1.9l-7.55 4.35a5.08 5.08 0 00-2.54 4.4v8.7c0 .78-.42 1.5-1.1 1.89l-7.55 4.35A5.1 5.1 0 0010 59.9V71.5l10.1 5.81c1.56.9 3.5.9 5.07 0l7.55-4.35a2.2 2.2 0 012.19 0l7.55 4.35c1.57.9 3.5.9 5.08 0l7.55-4.35a2.2 2.2 0 012.19 0l7.55 4.35c1.57.9 3.5.9 5.08 0L80 71.52V59.88a5.1 5.1 0 00-2.54-4.4zM54.76 21.2v8.7c0 1.81.96 3.49 2.53 4.4l7.55 4.35a2.2 2.2 0 011.1 1.9v8.7c0 1.8.97 3.48 2.54 4.39L76.03 58c.67.4 1.1 1.11 1.1 1.9v8.3L46.44 50.51V15.17l7.2 4.15c.68.39 1.1 1.1 1.1 1.89zM13.98 58l7.55-4.35a5.09 5.09 0 002.54-4.4v-8.7c0-.78.41-1.5 1.1-1.9l7.54-4.34a5.09 5.09 0 002.54-4.4v-8.7c0-.78.42-1.5 1.1-1.89l7.2-4.15v35.35L12.9 68.19v-8.3c0-.78.41-1.5 1.09-1.89zm54.47 16.84a2.2 2.2 0 01-2.19 0l-7.54-4.35c-1.58-.9-3.51-.9-5.08 0l-7.55 4.35a2.2 2.2 0 01-2.2 0l-7.54-4.35a5.1 5.1 0 00-5.09 0l-7.54 4.35a2.2 2.2 0 01-2.2 0l-7.19-4.15L45 53l30.66 17.68-7.2 4.16z"/></svg>