<?xml version="1.0" encoding="UTF-8"?>
<svg width="90px" height="90px" viewBox="0 0 90 90" version="1.1" xmlns="http://www.w3.org/2000/svg" xmlns:xlink="http://www.w3.org/1999/xlink">
    <title>ftx.com</title>
    <g id="ftx" stroke="none" stroke-width="1" fill="none" fill-rule="evenodd">
        <rect id="Rectangle" fill="#FFFFFF" fill-rule="nonzero" x="0" y="0" width="90" height="90"></rect>
        <g id="Group" transform="translate(15.000000, 19.000000)" fill-rule="nonzero">
            <path d="M16.9620456,0.00328873543 C31.3060304,-0.00109624514 45.6509152,-0.00109624514 59.9967,0.00328873543 C60.0011,4.62406167 60.0011,9.24403733 59.9967,13.8632157 C45.6523152,13.8676007 31.3074304,13.8676007 16.9620456,13.8632157 C16.9574456,9.24244279 16.9574456,4.62246713 16.9620456,0.00328873543 Z" id="Path" fill="#02A6C2"></path>
            <path d="M0.01799973,19.0776552 C4.64573031,19.0537372 9.27426089,19.0537372 13.9035914,19.0776552 C13.9275911,23.6896582 13.9275911,28.3024584 13.9035914,32.916056 C9.27446088,32.9397747 4.64593031,32.9401734 0.01799973,32.9172519 C-0.00599991,28.3044516 -0.00599991,23.6912527 0.01799973,19.0776552 Z" id="Path" fill="#5FCADE"></path>
            <path d="M16.9728454,19.0776552 C27.3260901,19.0557303 37.6786348,19.0557303 48.0304795,19.0776552 C48.0524792,23.6896582 48.0524792,28.3024584 48.0304795,32.916056 C37.6774348,32.9375822 27.3248901,32.9375822 16.9728454,32.916056 C16.9512457,28.3038537 16.9512457,23.6910534 16.9728454,19.0776552 Z" id="Path" fill="#5FCADE"></path>
            <path d="M16.9857452,38.1562074 C21.6056759,38.1061788 26.2248066,38.1061788 30.8431374,38.1562074 C30.8911366,42.7574472 30.8918366,47.3608796 30.8452373,51.9665044 C26.2253066,52.0119487 21.6062759,52.0111515 16.9881452,51.9641126 C16.9401459,47.3632714 16.9393459,42.7606363 16.9857452,38.1562074 Z" id="Path" fill="#ABEBF4"></path>
        </g>
    </g>
</svg>