<svg viewBox="0 0 90 90" xmlns="http://www.w3.org/2000/svg"><g fill="none" fill-rule="evenodd"><path fill="#FF5527" d="M0 0h90v90H0z"/><path d="M73.5 25c.828 0 1.5.664 1.5 1.483V64c-4.801-1.35-10.998-2.387-17.99-2.936V26.483c0-.82.672-1.483 1.5-1.483H73.5ZM31.504 45.76c.829 0 1.5.664 1.5 1.483V61.05c-7.006.549-13.203 1.587-18.004 2.936V47.243c0-.819.672-1.483 1.5-1.483h15.004ZM52.51 35.38c.829 0 1.5.664 1.5 1.483v23.993a147.22 147.22 0 0 0-9.001-.267c-3.091 0-6.107.09-9.003.252V36.863c0-.819.672-1.483 1.5-1.483H52.51Zm-9.002 13.346h-4.501v7.415h4.501v-7.415Zm7.502 0h-4.501v7.415h4.501v-7.415Zm13.503 0h-4.5v7.415h4.5v-7.415Zm7.502 0h-4.5v7.415h4.5v-7.415Zm-49.512 0H18v7.415h4.5v-7.415Zm7.502 0h-4.501v7.415h4.5v-7.415Zm13.503-10.38h-4.501v7.414h4.501v-7.414Zm7.502 0h-4.501v7.414h4.501v-7.414Zm13.503 0h-4.5v7.414h4.5v-7.414Zm7.502 0h-4.5v7.414h4.5v-7.414Zm-7.502-10.38h-4.5v7.414h4.5v-7.414Zm7.502 0h-4.5v7.414h4.5v-7.414Z" fill="#FFF" fill-rule="nonzero"/></g></svg>