<svg viewBox="0 0 90 90" xmlns="http://www.w3.org/2000/svg"><g fill="none"><path fill="#273143" d="M0 0h90v90H0z"/><g transform="translate(16 15)"><path d="M16.297 53.04a25.505 25.505 0 0 1-5.726-4.471A6.377 6.377 0 0 1 8.81 50.09c-.373.21-.766.383-1.174.515 9.114 9.917 23.884 12.271 35.649 5.682a1.784 1.784 0 0 0 0-3.096 1.767 1.767 0 0 0-1.762-.029 25.51 25.51 0 0 1-25.225-.123Zm-.005-43.865a25.43 25.43 0 0 1 6.765-2.686 6.364 6.364 0 0 1-.317-3.628C9.567 5.776.146 17.348 0 30.791a1.79 1.79 0 0 0 .901 1.547c.556.318 1.24.317 1.795-.002.545-.305.887-.875.898-1.498A25.322 25.322 0 0 1 16.292 9.175Zm38.121 21.932a25.225 25.225 0 0 1-1.046 7.18c.79.116 1.551.378 2.244.773.372.212.723.456 1.051.731 4.043-12.824-1.31-26.733-12.92-33.577a1.803 1.803 0 0 0-1.762.053 1.79 1.79 0 0 0-.87 1.527c-.006.622.318 1.2.852 1.522a25.314 25.314 0 0 1 12.45 21.791ZM29.006 19.065a12.087 12.087 0 0 1 11.171 7.43c1.873 4.5.84 9.68-2.616 13.126a12.119 12.119 0 0 1-13.173 2.613 12.042 12.042 0 0 1-7.462-11.127c.006-6.646 5.41-12.033 12.08-12.042m0-3.576c-8.657 0-15.674 6.993-15.674 15.618 0 8.626 7.017 15.618 15.674 15.618s15.675-6.992 15.675-15.618a15.583 15.583 0 0 0-4.589-11.045 15.698 15.698 0 0 0-11.086-4.573Z" fill="#E6E7E8"/><ellipse fill="#F58320" cx="29.001" cy="4.166" rx="4.182" ry="4.166"/><ellipse fill="#F58320" cx="5.585" cy="44.572" rx="4.182" ry="4.166"/><ellipse fill="#F58320" cx="52.416" cy="44.572" rx="4.182" ry="4.166"/><path d="M32.472 28.258A3.456 3.456 0 0 0 29.6 24.85a3.467 3.467 0 0 0-3.857 2.24 3.447 3.447 0 0 0 1.56 4.168l-1.092 5.519a.584.584 0 0 0 .587.702h4.446a.589.589 0 0 0 .587-.702l-1.098-5.519a3.444 3.444 0 0 0 1.739-3.001Z" fill="#F58320"/></g></g></svg>