<svg viewBox="0 0 90 90" xmlns="http://www.w3.org/2000/svg"><path d="M38.276 5.14c-.88.07-3.818.42-4.38.508-2.657.472-6.51 1.575-8.498 2.415-.37.157-.704.28-.757.28-.228 0-4.187 2.065-5.594 2.923-6.28 3.867-11.735 9.783-14.902 16.154-1.143 2.292-1.301 2.642-2.005 4.638C1.172 34.84.469 37.833.134 40.72c-.246 2.258-.14 7.91.211 10.15.387 2.434 1.355 6.144 2.041 7.789.07.193.317.788.528 1.313 1.355 3.325 3.73 7.228 6.246 10.256.897 1.085 3.57 3.78 4.838 4.865 2.85 2.468 7.318 5.198 10.925 6.668 3.571 1.47 6.826 2.31 11.066 2.888 2.2.297 4.222.315 28.202.332L90 85l-.035-24.275-.053-24.292H63.487c-14.55 0-26.46.035-26.46.087-.018.053-.035 3.886-.053 8.541-.017 7.386.018 8.436.247 8.454.14.017 7.899.035 17.24.052l16.978.018.053 7.14.035 7.14-16.045-.07c-8.831-.034-16.379-.122-16.766-.192-2.287-.42-5.665-1.452-6.193-1.89-.123-.105-.229-.14-.229-.087 0 .157-2.832-1.453-4.046-2.293-1.83-1.295-4.363-3.938-5.647-5.898-2.674-4.078-3.695-7.316-3.783-12.076-.053-2.783.14-4.34.845-6.65l.404-1.313c.282-.928 1.636-3.553 2.586-4.988 1.197-1.82 4.223-4.83 6.123-6.091 3.149-2.065 6.632-3.395 10.116-3.885 1.583-.228 4.785-.245 28.114-.263H90V5l-25.545.053c-14.057.017-25.845.07-26.179.087Z" fill="#F25F00"/></svg>