<svg viewBox="0 0 90 90" xmlns="http://www.w3.org/2000/svg"><path d="M20.443 31.629h8.518v23.424c0 11.233-6.122 16.61-15.332 16.61-4.206 0-7.933-1.437-10.222-3.407l3.407-6.389c1.97 1.331 3.833 2.13 6.336 2.13 4.525 0 7.293-3.247 7.293-7.932v-1.438c-1.916 2.29-4.632 3.407-7.613 3.407C5.537 58.034 0 51.965 0 44.406c0-7.56 5.537-13.63 12.83-13.63 2.981 0 5.697 1.119 7.613 3.408V31.63Zm-5.962 18.74c3.247 0 5.962-2.716 5.962-5.963 0-3.248-2.715-5.963-5.962-5.963-3.248 0-5.963 2.715-5.963 5.963 0 3.247 2.715 5.962 5.963 5.962Zm42.231 6.814h-8.518v-2.13c-1.65 1.863-3.94 2.981-6.92 2.981-5.963 0-9.264-4.152-9.264-8.89 0-7.028 8.625-9.636 16.078-7.4-.16-2.29-1.597-3.94-4.579-3.94-2.076 0-4.472.799-5.962 1.65l-2.556-6.122c1.97-1.277 5.59-2.555 9.796-2.555 6.229 0 11.925 3.514 11.925 13.096v13.31Zm-8.518-10.115c-3.993-1.278-7.666-.586-7.666 2.236 0 1.65 1.384 2.768 3.035 2.768 1.97 0 4.205-1.597 4.631-5.004ZM69.557 18v16.184c1.916-2.29 4.632-3.407 7.613-3.407 7.293 0 12.83 6.069 12.83 13.629s-5.537 13.628-12.83 13.628c-2.981 0-5.697-1.118-7.613-3.407v2.556h-8.518V18h8.518Zm5.962 32.368c3.248 0 5.963-2.715 5.963-5.962 0-3.248-2.715-5.963-5.963-5.963-3.247 0-5.962 2.715-5.962 5.963 0 3.247 2.715 5.962 5.962 5.962Z" fill="#00D178"/></svg>