<svg viewBox="0 0 90 90" xmlns="http://www.w3.org/2000/svg"><g fill="#605270"><path d="M49.872 52.287v-.128l.002-.05v-9.123c0-.067-.006-.13-.012-.197l.002-.002v-.038c-.007-7.304-4.919-12.21-12.22-12.21h-.002c-6.74 0-12.222 5.483-12.222 12.221s5.058 12.01 11.798 12.01c3.463 0 6.232-1.625 6.232-4.182v-3.982c-.329.255-2.261 2.877-5.806 2.877a6.73 6.73 0 0 1-6.722-6.723 6.73 6.73 0 0 1 6.722-6.723c6.229.002 6.718 5.14 6.722 6.715v.022c0 .065.004.132.007.197l-.001.015v7.61c0 5.107 6.72 4.27 6.72 4.27s-1.22-.82-1.22-2.579m32.341 0v-.128l.002-.05v-9.123c0-.067-.006-.13-.011-.197l.002-.002v-.038c-.008-7.304-4.92-12.21-12.22-12.21h-.003c-6.739 0-12.221 5.483-12.221 12.221s5.058 12.01 11.797 12.01c3.463 0 6.232-1.625 6.232-4.182v-3.982c-.33.255-2.26 2.877-5.806 2.877a6.729 6.729 0 0 1-6.72-6.723 6.73 6.73 0 0 1 6.718-6.723c6.23.002 6.72 5.14 6.722 6.715v.022c0 .065.004.132.01.197v7.625c0 5.107 6.718 4.27 6.718 4.27s-1.22-.82-1.22-2.579"/><path d="M50.91 35.095v16.911a2.95 2.95 0 0 0 5.903 0V35.095a2.952 2.952 0 0 0-5.902 0m5.98-7.103a2.988 2.988 0 0 1-2.989 2.987 2.989 2.989 0 1 1 0-5.979 2.99 2.99 0 0 1 2.989 2.992M24.55 42.844v-.036c-.008-7.337-4.943-12.265-12.273-12.265C5.506 30.543 0 36.053 0 42.817c0 6.77 5.036 12.064 11.519 12.064 3.88 0 6.589-1.948 6.589-3.945v-4.137c-.331.256-2.271 2.77-5.831 2.77-3.723 0-6.754-3.028-6.754-6.752 0-3.721 3.031-6.75 6.754-6.75 6.255 0 6.75 5.162 6.75 6.743v.02c0 .068.005.133.01.198l-.001.017.006 7.767c0 3.247-1.194 7.78-9.552 7.78a2.76 2.76 0 0 0-2.76 2.761 2.76 2.76 0 0 0 2.76 2.763c13.652 0 15.07-9.405 15.07-11.91v-9.161a2.32 2.32 0 0 0-.01-.2m31.226 17.601c0-1.289-.917-2.357-2.056-2.357-1.149 0-2.067 1.068-2.067 2.357 0 1.296.918 2.366 2.067 2.366 1.14 0 2.056-1.07 2.056-2.366m1.328 0c0 2.018-1.429 3.614-3.384 3.614-1.967 0-3.396-1.596-3.396-3.614 0-2.01 1.429-3.605 3.396-3.605 1.955 0 3.384 1.596 3.384 3.605m5.273-2.898c.45.45.699 1.09.699 1.798v4.594h-1.32v-4.622c0-.74-.446-1.189-1.195-1.189-.74 0-1.188.45-1.188 1.189v4.622h-1.32v-4.593c0-.71.249-1.348.699-1.8.46-.458 1.098-.706 1.81-.706.717 0 1.355.248 1.815.707m1.879 4.205v-4.742h1.317v4.721c0 .642.241.91.87.91h2.086v1.298h-2.098c-1.416 0-2.175-.858-2.175-2.187m5.112-4.744h1.319v6.931h-1.319zm6.92.539c.45.45.699 1.09.699 1.798v4.594h-1.319v-4.622c0-.74-.446-1.189-1.198-1.189-.738 0-1.187.45-1.187 1.189v4.622h-1.318v-4.593c0-.71.248-1.348.698-1.8.46-.458 1.098-.706 1.808-.706.719 0 1.358.248 1.817.707m3.247 2.307h2.805v1.227h-2.805v.671c0 .638.25.889.877.889h2.439v1.296h-2.447c-1.427 0-2.189-.877-2.189-2.206v-2.516c0-1.326.762-2.206 2.189-2.206h2.447v1.296h-2.44c-.625 0-.876.241-.876.88v.669Zm7.757-2.867v.441h-.748v2.053h-.524V57.43h-.746v-.441zm1.958 0H90v2.494h-.488v-1.688l.002-.202c.002-.088.002-.155.002-.203l-.47 2.094h-.506l-.47-2.094.001.203c.002.09.002.155.002.202v1.688h-.484v-2.494h.755l.455 1.96.45-1.96Z"/></g></svg>