<svg viewBox="0 0 90 90" xmlns="http://www.w3.org/2000/svg"><g fill="none" fill-rule="evenodd"><path fill="#C49A66" d="M0 69h15v21H0z"/><path fill="#FFC500" d="M15 69h15v21H15z"/><path fill="#FF5428" d="M30 69h15v21H30z"/><path fill="#00CA52" d="M45 69h15v21H45z"/><path fill="#A676D2" d="M60 69h15v21H60z"/><path fill="#45C0F2" d="M75 69h15v21H75z"/><path d="M0 0h90v65c0 10.493-8.507 19-19 19H19C8.507 84 0 75.493 0 65V0Z" fill="#FFF"/><path d="M59.813 49.823a17.212 17.212 0 0 1-3.507 5.3c.26.646.42 1.33.474 2.025.34 3.356 7.711 2.888 8.051 2.213.34-.675-.519-7.261-5.036-9.538M45.106 59.991a15.459 15.459 0 0 1-2.827-.27c-.037 3.053 2.128 5.685 5.117 6.218a6.052 6.052 0 0 0 3.65-.621h-.367c-2.683-.45-3.578-2.79-3.3-5.525-.765.114-1.536.171-2.309.17m-19.787-.755c.358.675 7.577 1.296 7.917-2.06a6.935 6.935 0 0 1 .474-2.025 17.238 17.238 0 0 1-3.534-5.3c-4.5 2.25-5.224 8.746-4.857 9.385m5.018-23.611a17.096 17.096 0 0 1 3.811-5.4c-3.462-2.86-9.294-3.094-9.84-2.735-.546.36-.581 7.63 2.925 7.55a7.253 7.253 0 0 1 3.104.576m19.528-12.49c0-.818.814-2.177.814-2.834s-2.164-1.8-3.104-2.7C46.6 16.664 45.732 15 45.035 15h-.072c-.707 0-1.61 1.674-2.55 2.6-.939.927-3.104 2.043-3.104 2.7s.823 2.016.823 2.834a10.444 10.444 0 0 1-.545 2.25c-.08.378.179.495.465 1.206h.152a15.478 15.478 0 0 1 9.545 0h.16c.287-.711.556-.828.475-1.215a10.58 10.58 0 0 1-.555-2.277m7.658 13.597a14.641 14.641 0 0 0-3.32-4.787 13.223 13.223 0 0 0-8.122-3.717c-.393 0-.742-.054-1.064-.054-.322 0-.671 0-1.065.054a13.223 13.223 0 0 0-8.122 3.717 14.694 14.694 0 0 0-3.355 4.787 15.66 15.66 0 0 0-.098 12.174 14.902 14.902 0 0 0 2.836 4.436 13.46 13.46 0 0 0 7.317 4.112c.814.156 1.64.234 2.469.234h.993a13.388 13.388 0 0 0 8.784-4.31 14.83 14.83 0 0 0 2.836-4.436 15.633 15.633 0 0 0-.09-12.21m8.195-9.233c-.546-.36-6.405-.125-9.84 2.745a17.159 17.159 0 0 1 3.81 5.399 7.262 7.262 0 0 1 3.105-.576c3.506.08 3.578-7.118 2.925-7.55" fill="#1D1D1B" fill-rule="nonzero"/></g></svg>