<svg viewBox="0 0 90 90" xmlns="http://www.w3.org/2000/svg"><g fill="none" fill-rule="evenodd"><path fill="#FFF" fill-rule="nonzero" d="M0 0h90v90H0z"/><path d="M38.759 27.24c-.106.318-.022.446.139.69.107.16.247.373.388.728h.176c1.758-.532 3.516-.887 5.45-.887 1.934 0 3.692.355 5.45.887h.176c.138-.35.277-.59.384-.773.163-.281.25-.431.143-.646-.07-.355-.197-.71-.323-1.065-.19-.532-.38-1.063-.38-1.596 0-.443.22-1.064.44-1.685.22-.62.44-1.241.44-1.685 0-.439-.944-1.15-1.913-1.88-.596-.45-1.202-.907-1.604-1.313-.394-.398-.788-.919-1.165-1.417-.63-.832-1.207-1.598-1.648-1.598h-.176c-.52 0-1.04.682-1.632 1.46-.41.537-.854 1.12-1.357 1.556-.401.405-1.008.862-1.604 1.312-.969.73-1.912 1.441-1.912 1.88 0 .32.178.817.373 1.365.24.672.505 1.42.505 2.005.252.634.055 1.268-.142 1.9-.08.254-.159.508-.208.761ZM24.694 38.59c1.406 0 2.637.178 3.516.71 1.055-2.484 2.46-4.612 4.395-6.386-3.868-3.37-10.549-3.725-11.252-3.193-.703.533-.703 8.87 3.34 8.87Zm37.096.71c-1.056-2.484-2.637-4.612-4.396-6.386 3.868-3.37 10.549-3.725 11.253-3.193.703.533.703 9.047-3.34 8.87-1.407 0-2.462.177-3.517.709Zm-.703 8.691c0-2.66-.528-5.144-1.407-7.45-.88-2.128-2.286-4.08-3.867-5.676-2.638-2.66-5.978-4.08-9.494-4.434h-2.462c-3.516.355-6.857 1.774-9.494 4.434-1.582 1.597-2.988 3.547-3.868 5.677-1.055 2.305-1.406 4.788-1.406 7.45 0 2.482.527 4.788 1.406 7.094.88 1.951 1.934 3.726 3.34 5.322 2.286 2.483 5.275 4.257 8.44 4.966.878.178 1.934.355 2.813.355h1.23c3.869-.355 7.561-2.129 10.198-5.144 1.406-1.596 2.46-3.37 3.34-5.32.703-2.485 1.23-4.968 1.23-7.274Zm.878 8.16c-.878 2.306-2.285 4.434-4.044 6.208.177.533.353 1.42.528 2.306.352 3.902 8.79 3.37 9.142 2.66.528-.709-.527-8.513-5.626-11.174ZM45.088 68.036c.88 0 1.758 0 2.637-.178-.176 3.193.703 6.031 3.868 6.387h.352c-1.407.531-2.813.886-4.22.709-3.34-.532-5.802-3.725-5.802-7.273 1.055.177 2.11.355 3.165.355Zm-13.713-3.371c-.352 4.08-8.616 3.37-8.967 2.483-.352-.71.528-8.336 5.45-10.997 1.055 2.306 2.286 4.435 4.044 6.208-.176.533-.352 1.242-.527 2.306Z" fill="#000"/></g></svg>