<svg viewBox="0 0 90 90" xmlns="http://www.w3.org/2000/svg"><g fill="none" fill-rule="evenodd"><path fill="#FFF" fill-rule="nonzero" d="M0 0h90v90H0z"/><path d="M54.625 7H68.81v9.456h4.732c.009 1.577-.014 3.155.01 4.732h4.72c.006 1.577-.015 3.154.01 4.731H83v33.437c-1.577.009-3.155-.014-4.732.01v9.446c-1.577.007-3.154-.014-4.732.01v4.719c-1.577.007-3.154-.014-4.731.01v4.719h-9.007c-.152 0-.3 0-.451.011V83H25.914c-.008-1.577.015-3.154-.01-4.732h-9.446c-.009-1.577.014-3.154-.01-4.731h-4.72c-.008-1.577.015-3.155-.01-4.732H7V54.62h24.663c1.352-.007 2.703.015 4.055-.01v-4.718h13.84c.111 0 .226 0 .34-.01v-4.72c1.577-.008 3.154.015 4.731-.01V30.979c1.577-.009 3.155.014 4.732-.01V16.455h-4.732A6230.9 6230.9 0 0 1 54.625 7Zm4.732 4.732v4.718c1.577.025 3.154 0 4.732.01v-4.73l-4.732.003Zm4.732 9.463v9.794h-4.732v14.185h-4.732v4.732h-4.732v4.731H35.71v4.732H11.732v9.456h4.732v4.732h9.463v4.731h33.425v-4.731h9.457v-4.732h4.732V59.37h4.731V25.932h-4.74v-4.731h-9.464l.02-.006Z" fill="#000" fill-rule="nonzero"/><path d="M59.357 11.732v4.718c1.577.025 3.154 0 4.732.01v-4.73l-4.732.003Z" fill="#4C400E"/><path fill="#F9B80B" d="M64.089 21.195v9.794h-4.732v14.185h-4.732v4.732h-4.732v4.731H35.71v4.732H11.732v9.456h4.732v4.732h9.463v4.731h33.425v-4.731h9.457v-4.732h4.732V59.37h4.731V25.932h-4.74v-4.731h-9.464z"/><path fill="#F9B80B" d="M64.089 21.195v9.794h-4.732v14.185h-4.732v4.732h-4.732v4.731H35.71v4.732H11.732v9.456h4.732v4.732h9.463v4.731h33.425v-4.731h9.457v-4.732h4.732V59.37h4.731V25.932h-4.74v-4.731h-9.464z"/><path fill="#FAE13C" d="M59.357 30.99v14.184h-4.739v4.732h-4.725v4.64H35.732v4.799H18v6.03h3.769v3.813h7.538V73H55.93v-3.812h7.532v-3.813h3.77v-7.618H71V21.195h-6.911v9.794z"/><path fill="#FCF090" d="M59.356 38.323H61v16.399h-2.276v4.637H56.45v2.32H51.9V64H35.827v-2.32h-4.551v-2.321H29v-.015h6.732l-.001-4.623h4.8l-.001-.175h9.363v-4.64h4.725v-4.732h4.739z"/><path d="M54.625 7H68.81v9.456h4.732c.009 1.577-.014 3.155.01 4.732h4.72c.006 1.577-.015 3.154.01 4.731H83v33.437c-1.577.009-3.155-.014-4.732.01v9.446c-1.577.007-3.154-.014-4.732.01v4.719c-1.577.007-3.154-.014-4.731.01v4.719h-9.007c-.152 0-.3 0-.451.011V83H25.914c-.008-1.577.015-3.154-.01-4.732h-9.446c-.009-1.577.014-3.154-.01-4.731h-4.72c-.008-1.577.015-3.155-.01-4.732H7V54.62h24.663c1.352-.007 2.703.015 4.055-.01v-4.718h13.84c.111 0 .226 0 .34-.01v-4.72c1.577-.008 3.154.015 4.731-.01V30.979c1.577-.009 3.155.014 4.732-.01V16.455h-4.732A6230.9 6230.9 0 0 1 54.625 7Z"/></g></svg>