<svg viewBox="0 0 90 90" xmlns="http://www.w3.org/2000/svg"><g fill="none"><path d="M48.2 54.33h16.207l-1.506 2.266c-.733 1.101-1.62 2.163-2.8 3.341-4 4.006-8.955 6.038-14.728 6.038-5.72 0-10.71-2.026-14.836-6.021-4.023-4.162-6.048-9.162-6.048-14.893 0-5.78 2.03-10.742 6.032-14.749 4.083-4.089 9.082-6.165 14.852-6.165 5.626 0 9.35 1.235 12.845 4.335l17.788-16.256C67.325 4.002 57.288 0 45.373 0 33.13 0 22.455 4.472 13.65 13.292 4.922 21.914.5 32.598.5 45.062c0 12.344 4.424 23.033 13.15 31.77C22.492 85.568 33.17 90 45.372 90c12.378 0 22.759-4.31 31.735-13.176C85.443 68.477 89.5 58.084 89.5 45.061V40.16H48.2v14.17Z" fill="#F59037"/><path d="M62.729 86.642c5.18-2.186 9.951-5.444 14.38-9.818C85.442 68.477 89.5 58.084 89.5 45.061V40.16H78.615L62.496 86.642h.233Z" fill="#E45A38"/><path d="M48.2 54.33h16.207l-1.506 2.266c-.733 1.101-1.62 2.163-2.8 3.341-4 4.006-8.955 6.038-14.728 6.038-5.72 0-10.71-2.026-14.836-6.021-4.023-4.162-6.048-9.162-6.048-14.893 0-5.78 2.03-10.742 6.032-14.749 4.083-4.089 9.082-6.165 14.852-6.165 5.626 0 9.35 1.235 12.845 4.335l17.788-16.256C67.325 4.002 57.288 0 45.373 0 33.13 0 22.455 4.472 13.65 13.292 4.922 21.914.5 32.598.5 45.062c0 12.344 4.424 23.033 13.15 31.77C22.492 85.568 33.17 90 45.372 90c12.378 0 22.759-4.31 31.735-13.176C85.443 68.477 89.5 58.084 89.5 45.061V40.16H48.2v14.17Z" fill="#F59037"/><path d="M62.729 86.642c5.18-2.186 9.951-5.444 14.38-9.818C85.442 68.477 89.5 58.084 89.5 45.061V40.16H78.615L62.496 86.642h.233Z" fill="#E45A38"/></g></svg>