<svg xmlns="http://www.w3.org/2000/svg" viewBox="0 0 90 90"><path fill="#212121" d="M0 0h90v90H0z"/><path d="M65.188 32.86c1.384-1.903.955-4.616-.955-6.044-.048 0-.048-.047-.095-.047a4.515 4.515 0 0 0-6.112 1.047c-2.1 2.808-4.297 4.759-6.828 5.949-2.196.904-4.487 1.38-6.875 1.475-2.244-.048-4.488-.571-6.54-1.475-2.674-1.19-4.918-3.142-6.828-5.95-1.385-1.95-4.154-2.426-6.112-1.046-1.957 1.38-2.435 4.14-1.05 6.092 4.297 6.234 11.888 9.327 12.796 9.613-3.438 2.522-7.162 5.949-8.785 10.518a21.465 21.465 0 0 0 0 14.848c1.718 4.521 5.06 8.186 9.358 10.375 4.774 2.38 10.695 2.38 16.09 0 5.681-2.522 9.214-7.139 9.835-12.326.573-5.473-2.1-10.375-6.684-12.469-4.775-2.094-10.122-.571-13.846 3.855a4.317 4.317 0 0 0 .764 6.092 4.35 4.35 0 0 0 6.111-.762c1.05-1.332 2.244-1.76 3.438-1.332.907.428 1.766 1.618 1.623 3.712-.143 2.094-1.958 3.998-4.774 5.33-2.96 1.332-6.255 1.332-8.5.143-2.386-1.237-4.248-3.284-5.203-5.806a12.168 12.168 0 0 1 0-8.615c1.05-2.807 3.58-5.33 8.164-8.138 1.91-1.19 4.01-2.38 5.968-3.426-.143.285 10.552-5.52 15.04-11.612ZM44.123 10c-5.62 0-10.185 4.603-10.185 10.272 0 5.668 4.564 10.272 10.185 10.272 5.62 0 10.184-4.604 10.184-10.272 0-5.67-4.564-10.272-10.185-10.272Zm-.024 13.315c-1.642 0-2.994-1.363-2.994-3.068a3.031 3.031 0 0 1 3.042-3.019c1.642 0 2.993 1.364 2.993 3.02a3.042 3.042 0 0 1-3.041 3.067Z" fill="#00F598"/></svg>