<svg xmlns="http://www.w3.org/2000/svg" viewBox="0 0 90 90" fill-rule="evenodd" xmlns:v="https://vecta.io/nano"><path fill="#0067f5" d="M0 0h90v90H0z"/><g fill="#fff"><path d="M22.5 38.5a6.5 6.5 0 1 1 0 13 6.5 6.5 0 1 1 0-13zm0 2a4.5 4.5 0 1 0 0 9 4.5 4.5 0 1 0 0-9zM48 44v2H35v-2h13z"/><path d="M65.63 26.6a6.5 6.5 0 1 1-11.258-6.5 6.5 6.5 0 0 1 11.258 6.5zm-1.732-1a4.5 4.5 0 1 0-7.794-4.5 4.5 4.5 0 1 0 7.794 4.5zM48.116 45.934l-1.732-1 6.5-11.258 1.732 1-6.5 11.258z"/><path d="M54.371 69.9a6.5 6.5 0 1 1 11.258-6.5 6.5 6.5 0 1 1-11.258 6.5zm1.732-1a4.5 4.5 0 1 0 7.794-4.5 4.5 4.5 0 0 0-7.794 4.5zm-9.719-23.834l1.732-1 6.5 11.258-1.732 1-6.5-11.258z"/></g></svg>