<svg viewBox="0 0 90 90" xmlns="http://www.w3.org/2000/svg"><g fill="none"><path fill="#667A92" d="M0 0h90v90H0z"/><path d="M64.898 18c-.671 0-.915.02-.997.025-8.623.686-21.22 3.63-30.881 9.685a62.622 62.622 0 0 1-.64-4.32 2.853 2.853 0 0 0-.087-.454l-.264-.958a3.045 3.045 0 0 0-2.942-2.229c-.798 0-1.58.313-2.16.888-3.415 3.393-5.636 8.822-6.581 13.834l-.615-.404a3.063 3.063 0 0 0-3.12-.136A3.005 3.005 0 0 0 15 36.593c0 2.163.432 7.17 1.982 12.01C15.722 50.416 15 52.746 15 55.171c0 5.616 3.811 10.183 8.492 10.183h.045C27.521 71.28 34.87 75 42.91 75c8.029 0 15.403-3.736 19.371-9.665 4.447-.317 7.984-4.754 7.984-10.163 0-1.266-.193-2.506-.56-3.66 1.256-2.179 2.603-5.158 2.582-7.104a3.03 3.03 0 0 0-1.85-2.748c1.047-2.158 1.982-4.9 1.972-7.945-.004-1.668-1.368-3.017-3.049-3.015-.355 0-.828.04-1.6.196a38.237 38.237 0 0 1 3.186-3.604l1.514-1.387 1.565-1.442a3.023 3.023 0 0 0 .976-2.218c0-.822-.325-2.818-3.313-3.62-.747-.202-1.687-.348-2.877-.454A48.977 48.977 0 0 0 64.898 18Z" fill="#F2F2F2"/><path d="M64.898 21.025c.29 0 7.048.015 7.048 1.22l-1.565 1.437-1.56 1.427a41.032 41.032 0 0 0-7.877 10.94c4.746-1.573 7.5-2.33 8.405-2.33.015 4.493-2.597 8.42-3.71 10.094-.31.464-.528.796-.498.852l2.125-.116 1.961-.116c.015 1.27-1.362 4.437-2.932 6.786.595 1.16.91 2.53.91 3.947 0 3.948-2.44 7.16-5.443 7.16a4.24 4.24 0 0 1-1.148-.162c-3.08 5.954-10.042 9.806-17.715 9.806-7.765 0-14.758-3.912-17.812-9.972a3.954 3.954 0 0 1-1.6.327c-2.994 0-5.438-3.211-5.438-7.153 0-2.375.89-4.588 2.383-5.924-1.748-4.563-2.383-10.068-2.383-12.655l1.621 1.059 3.197 2.143c-.02-5.244 2.164-13.003 6.214-17.026l.265.958c.366 3.192.935 6.242 1.697 9.08 9.38-7.492 23.696-11.02 33.097-11.767.117-.01.387-.015.758-.015" fill="#7492AA"/><path d="M52.102 62.204c-1.428 0-2.592-1.149-2.592-2.566 0-1.416 1.164-2.566 2.592-2.566 1.428 0 2.591 1.155 2.591 2.566 0 1.412-1.158 2.566-2.591 2.566Zm3.897-3.861c-1.428 0-2.591-1.155-2.591-2.567 0-1.416 1.163-2.566 2.591-2.566 1.428 0 2.592 1.155 2.592 2.566 0 1.417-1.164 2.567-2.592 2.567Zm-7.79 0c-1.428 0-2.592-1.155-2.592-2.567 0-1.416 1.164-2.566 2.592-2.566 1.428 0 2.592 1.155 2.592 2.566 0 1.417-1.164 2.567-2.592 2.567Zm3.949-3.913c-1.428 0-2.592-1.154-2.592-2.566 0-1.416 1.164-2.566 2.592-2.566 1.428 0 2.591 1.155 2.591 2.566 0 1.417-1.163 2.566-2.591 2.566Z" fill="#FF9600"/><path d="M52.158 50.05a1.83 1.83 0 0 1 1.618.893 1.8 1.8 0 0 1 0 1.837 1.83 1.83 0 0 1-1.618.894 1.83 1.83 0 0 1-1.619-.894 1.8 1.8 0 0 1 0-1.837 1.83 1.83 0 0 1 1.619-.894m3.841 3.913a1.83 1.83 0 0 1 1.619.893 1.8 1.8 0 0 1 0 1.838 1.83 1.83 0 0 1-1.619.893 1.83 1.83 0 0 1-1.618-.893 1.8 1.8 0 0 1 0-1.838 1.83 1.83 0 0 1 1.618-.893m-7.79 0a1.83 1.83 0 0 1 1.619.893 1.8 1.8 0 0 1 0 1.838 1.83 1.83 0 0 1-1.619.893 1.83 1.83 0 0 1-1.618-.893 1.8 1.8 0 0 1 0-1.838 1.83 1.83 0 0 1 1.618-.893m3.893 3.861c1.007 0 1.824.81 1.824 1.81s-.817 1.81-1.824 1.81a1.82 1.82 0 0 1-1.83-1.81c0-.998.824-1.81 1.83-1.81m.056-9.286c-1.85 0-3.354 1.492-3.354 3.322 0 .222.02.444.066.656a3.579 3.579 0 0 0-.66-.066c-1.85 0-3.355 1.492-3.355 3.322 0 1.836 1.504 3.328 3.354 3.328.203 0 .402-.02.595-.05a3.182 3.182 0 0 0-.051.59c0 1.834 1.504 3.322 3.354 3.322s3.354-1.493 3.354-3.323c0-.201-.02-.398-.051-.59.193.036.391.05.594.05 1.85 0 3.354-1.491 3.354-3.327 0-1.835-1.504-3.322-3.354-3.322-.188 0-.37.015-.553.045.04-.206.06-.418.06-.635 0-1.83-1.504-3.322-3.353-3.322Zm-.65 7.83c.035-.192.05-.389.05-.59 0-.222-.02-.444-.066-.65.213.04.437.065.66.065.189 0 .372-.015.55-.046a3.27 3.27 0 0 0-.062.63c0 .202.02.399.051.59a3.301 3.301 0 0 0-.594-.05 2.88 2.88 0 0 0-.59.05Z" fill="#FFF"/><path d="M33.716 62.21c-.91 0-1.652-.802-1.652-1.79v-2.052H29.89c-.996 0-1.804-.736-1.804-1.639v-1.678c0-.903.808-1.639 1.804-1.639h2.175v-2.153c0-.988.742-1.79 1.652-1.79h1.692c.91 0 1.652.802 1.652 1.79v2.153h2.073c.996 0 1.81.736 1.81 1.639v1.678c0 .903-.814 1.639-1.81 1.639H37.06v2.052c0 .988-.742 1.79-1.652 1.79h-1.692Z" fill="#FF9600"/><path d="M35.408 50.226c.493 0 .89.464.89 1.033v2.91h2.835c.58 0 1.047.398 1.047.882v1.678c0 .49-.468.883-1.047.883h-2.835v2.808c0 .57-.397 1.033-.89 1.033h-1.692c-.493 0-.89-.464-.89-1.033v-2.808H29.89c-.574 0-1.041-.394-1.041-.883v-1.678c0-.484.467-.883 1.041-.883h2.938V51.26c0-.57.396-1.033.889-1.033h1.692m0-1.513h-1.692c-1.331 0-2.414 1.145-2.414 2.546v1.397H29.89c-1.412 0-2.566 1.074-2.566 2.395v1.678c0 1.321 1.154 2.395 2.566 2.395h1.413v1.296c0 1.401 1.083 2.546 2.414 2.546h1.692c1.332 0 2.414-1.145 2.414-2.546v-1.296h1.311c1.418 0 2.572-1.074 2.572-2.395v-1.678c0-1.321-1.154-2.395-2.572-2.395h-1.31V51.26c0-1.406-1.083-2.546-2.415-2.546Z" fill="#FFF"/></g></svg>