<svg viewBox="0 0 90 90" xmlns="http://www.w3.org/2000/svg"><g fill="none" fill-rule="evenodd"><path fill="#FFF" fill-rule="nonzero" d="M0 0h90v90H0z"/><path d="M23.717 44.293h-8.555v2.745h5.52a3.896 3.896 0 0 1-.417 1.156c-.373.65-.967 1.144-1.78 1.478-.73.3-1.65.453-2.759.485-1.067-.018-1.985-.18-2.753-.485-.812-.326-1.407-.813-1.783-1.459-.376-.646-.564-1.547-.564-2.702 0-1.151.186-2.053.56-2.705.372-.652.966-1.145 1.78-1.478.73-.3 1.65-.453 2.754-.485 1.067.019 1.985.18 2.753.485a3.75 3.75 0 0 1 1.366.902h4.075a6.292 6.292 0 0 0-.346-.776c-.59-1.106-1.546-1.958-2.869-2.555-1.322-.597-2.86-.896-4.612-.899h-.363c-1.74.027-3.255.306-4.543.836-1.355.561-2.391 1.382-3.107 2.464C7.358 42.382 7 43.786 7 45.51c0 1.587.295 2.933.885 4.04.59 1.105 1.546 1.957 2.868 2.555 1.323.597 2.858.895 4.606.895h.362c1.741-.027 3.255-.306 4.544-.836 1.355-.562 2.39-1.383 3.107-2.464.717-1.082 1.075-2.485 1.074-4.21 0-.4-.02-.8-.062-1.197h-.667Zm19.786 1.813a4.303 4.303 0 0 0-1.156-.696 4.111 4.111 0 0 0-1.285-.326 2.65 2.65 0 0 0 1.278-.566c.385-.298.68-.694.856-1.144a4.138 4.138 0 0 0 .265-1.528c0-1.235-.433-2.147-1.298-2.736-.865-.588-2.015-.88-3.45-.877H27.587v14.534H39.28c1.176 0 2.16-.156 2.95-.47.79-.313 1.367-.776 1.73-1.388.365-.612.547-1.346.547-2.202a4.24 4.24 0 0 0-.257-1.506 2.622 2.622 0 0 0-.744-1.1l-.004.005Zm-12.433-5.14h6.513c.519 0 .926.054 1.22.163a1.468 1.468 0 0 1 .965 1.392c0 .543-.149.945-.446 1.208-.297.262-.794.393-1.493.393h-6.763l.004-3.156Zm9.44 8.416c-.218.233-.5.4-.812.478a5.04 5.04 0 0 1-1.363.15h-7.27v-3.18h7.344c.815 0 1.418.129 1.808.387.39.258.587.66.59 1.207 0 .422-.098.743-.295.964m21.982-11.159-5.186 11.078-5.076-11.078h-4.59V52.77h3.378v-9.704l4.48 9.704h3.496l4.608-9.704v9.704H67V38.23z" fill="#000" fill-rule="nonzero"/><path d="M78 39v5.5h5.5v1H78V51h-1v-5.5h-5.5v-1H77V39h1Z" fill="#000"/></g></svg>