<svg viewBox="0 0 90 90" xmlns="http://www.w3.org/2000/svg"><g fill="none"><path fill="#007CFF" d="M0 0h90v90H0z"/><path d="M74.03 44.995A33.764 33.764 0 0 1 70.295 60.5a3.426 3.426 0 0 0 1.24 4.488 3.512 3.512 0 0 0 2.774.407 3.468 3.468 0 0 0 2.176-1.75A40.783 40.783 0 0 0 76.5 26.37a3.47 3.47 0 0 0-2.18-1.741 3.514 3.514 0 0 0-2.772.412 3.424 3.424 0 0 0-1.24 4.487 33.777 33.777 0 0 1 3.72 15.467Z" fill="#51C1FF"/><path d="M62.767 44.995a22.822 22.822 0 0 1-2.133 9.676 3.421 3.421 0 0 0 1.309 4.354c.85.528 1.89.668 2.852.385a3.477 3.477 0 0 0 2.173-1.864 29.849 29.849 0 0 0 .014-25.068 3.476 3.476 0 0 0-2.173-1.865 3.524 3.524 0 0 0-2.852.384 3.42 3.42 0 0 0-1.311 4.35 22.822 22.822 0 0 1 2.121 9.648Z" fill="#51C1FF"/><path d="M39.36 68.125c-9.467 0-18.002-5.635-21.625-14.278-3.622-8.642-1.62-18.59 5.076-25.205 8.32-8.22 21.522-9.064 30.845-1.972a3.51 3.51 0 0 0 4.59-.276 3.409 3.409 0 0 0 1.013-2.65 3.42 3.42 0 0 0-1.35-2.5c-12.678-9.66-30.768-7.934-41.342 3.944-10.575 11.878-10 29.828 1.312 41.022 10.817 10.684 27.985 11.759 40.08 2.509a3.377 3.377 0 0 0 1.317-2.46 3.366 3.366 0 0 0-.991-2.605l-.074-.071a3.461 3.461 0 0 0-4.533-.282 23.494 23.494 0 0 1-14.318 4.824Z" fill="#002CB8"/><path d="M58.025 42.479a3.614 3.614 0 0 0-2.535-1.04l-16.679.014c-1.988 0-3.6 1.593-3.6 3.558 0 1.965 1.612 3.558 3.6 3.558h12.55c-1.554 5.073-6.207 8.604-11.568 8.776-5.362.173-10.238-3.051-12.122-8.014-1.884-4.963-.357-10.56 3.796-13.915 4.153-3.355 10.008-3.72 14.555-.909a3.639 3.639 0 0 0 4.467-.516 3.525 3.525 0 0 0-.609-5.493c-4.279-2.678-9.498-3.648-14.789-2.564-7.58 1.587-13.484 7.47-15.027 14.973-1.575 7.289 1.193 14.827 7.133 19.42 5.939 4.595 14.009 5.44 20.79 2.18 6.783-3.262 11.09-10.059 11.096-17.512a3.544 3.544 0 0 0-1.058-2.516Z" fill="#FFF"/></g></svg>