<svg xmlns="http://www.w3.org/2000/svg" viewBox="0 0 90 90"><path fill="#FFF" d="M0 0h90v90H0z"/><path d="M75 45c0 19.329-15.637 35-34.923 35a34.728 34.728 0 0 1-20.796-6.878 32.826 32.826 0 0 0 3.073 1.519 31.911 31.911 0 0 0 12.654 2.619c8.106 0 15.91-3.075 21.851-8.592a32.26 32.26 0 0 0 10.21-21.183 24.33 24.33 0 0 0 .146-2.297c0-.978-.079-2.108-.182-3.141l-.018-.298c0-.115-.006-.23-.018-.34l-.03.03a70.574 70.574 0 0 0-.298-2.376H41.332l-1.97 3.695-4.524 8.568h19.147a20.16 20.16 0 0 1-3.134 5.888 19.889 19.889 0 0 1-7.009 5.778 19.823 19.823 0 0 1-15.715.827 19.969 19.969 0 0 1-9.52-7.335 20.105 20.105 0 0 1-2.085-19.158 20.178 20.178 0 0 1 4.335-6.508 19.903 19.903 0 0 1 6.493-4.345 20.092 20.092 0 0 1 7.658-1.525A19.889 19.889 0 0 1 46.801 28.8l2.625-4.928 3.129-5.924a32.044 32.044 0 0 0-17.553-5.214 32.165 32.165 0 0 0-15.624 4.06A34.828 34.828 0 0 1 40.077 10C59.363 10 75 25.671 75 45Z" fill="#FF4C00"/></svg>