<svg viewBox="0 0 90 90" xmlns="http://www.w3.org/2000/svg"><g fill="none"><path fill="#FFF" d="M0 0h90v90H0z"/><path d="M45.002 80C25.705 80 10 64.388 10 44.998 10 25.706 25.705 10 45.002 10 64.292 10 80 25.706 80 44.998 80 64.388 64.292 80 45.002 80Zm0-68.355c-18.422 0-33.355 14.933-33.355 33.353S26.58 78.35 45.002 78.35c18.418 0 33.348-14.932 33.348-33.352 0-18.323-14.928-33.353-33.348-33.353ZM74.66 54.976l-.181.038-.102-.127c.006-.055 1.175-3.505 1.166-7.466-.015-4.266-1.747-6.883-3.977-6.883-1.357 0-2.325.972-2.325 2.424 0 2.618 3.2 2.813 3.2 8.533 0 2.328-.485 4.553-1.26 6.98-3.588 12.116-15.03 17.74-26.176 17.74-5.14 0-8.792-1.056-9.88-1.544-.044-.022-.08-.108-.047-.194l.141-.099c.44.175 3.577 1.16 7.456 1.16 4.266 0 6.787-1.744 6.787-3.881a2.4 2.4 0 0 0-2.425-2.42c-2.618 0-2.813 3.296-8.434 3.296-2.424 0-4.555-.485-7.079-1.26-12.023-3.682-17.753-15.029-17.743-26.275.004-5.476 1.538-9.837 1.564-9.88l.173-.03.102.127c-.141.453-1.16 3.581-1.16 7.457 0 4.267 1.744 6.786 3.974 6.786 1.261 0 2.33-.968 2.33-2.326 0-2.619-3.201-2.908-3.201-8.533 0-2.424.484-4.556 1.26-7.077 3.685-12.02 15.028-17.657 26.179-17.743 5.18-.039 9.716 1.512 9.886 1.648l.03.175-.127.097c-.054-.006-3.002-1.24-7.464-1.24-4.17-.002-6.786 1.744-6.786 3.975 0 1.261.97 2.328 2.424 2.328 2.618 0 2.812-3.2 8.434-3.2 2.423 0 4.556.483 7.078 1.26C70.597 22.507 76.12 33.95 76.217 45c.056 5.662-1.54 9.947-1.557 9.977ZM57.992 46.65c-3.295 0-5.818 2.426-5.818 5.332 0 2.424 1.453 4.36 3.394 4.36.68 0 1.357-.388 1.357-1.26 0-1.258-1.671-1.567-1.542-3.451.083-1.244 1.253-2.075 2.414-2.075 2.329 0 3.417 2.256 3.417 4.581-.1 3.588-2.737 6.085-5.839 6.085-4.075 0-6.688-3.88-6.688-8.047 0-6.207 4.07-8.63 6.202-9.21.023-.002 5.577.99 5.403-1.457-.076-1.075-1.677-1.49-2.84-1.537-1.285-.05-2.58.413-2.58.413-.679-.342-1.147-1.009-1.435-1.783 3.975-3.005 6.784-5.913 6.784-9.21 0-1.745-1.164-3.297-3.394-3.297-3.974 0-6.981 5.042-6.981 9.598 0 .775 0 1.55.196 2.233-2.523 1.84-4.396 2.984-7.791 5.02 0-.425.089-1.518.372-2.94 1.164-1.261 2.76-3.147 2.76-4.601 0-.679-.385-1.262-1.163-1.262-1.938 0-3.394 2.91-3.78 4.945-.874 1.067-2.617 2.427-4.073 2.427-1.164 0-1.55-1.068-1.65-1.454 3.685-1.263 8.243-6.305 8.243-10.86 0-.97-.387-3.103-3.297-3.103-4.363 0-8.048 6.496-8.048 11.536-1.551 0-2.132-1.648-2.132-2.906 0-1.262.484-2.523.484-2.908 0-.39-.195-.875-.776-.875-1.455 0-2.328 1.939-2.328 4.17.099 3.104 2.134 5.042 4.85 5.236.384 1.843 2.034 3.586 4.07 3.586 1.26 0 2.812-.387 3.879-1.355a85.08 85.08 0 0 1-.292 1.841c-4.266 2.231-7.368 3.782-10.18 6.302-2.223 2.033-3.485 4.747-3.485 6.881 0 2.908 1.844 5.622 5.625 5.622 4.459 0 7.854-3.588 9.5-8.531.78-2.327 1.089-5.713 1.283-8.817 4.46-2.519 6.574-3.98 8.899-5.63.29.485.584.875.971 1.165-2.037 1.067-6.883 4.072-6.883 11.15 0 5.043 3.396 10.663 10.082 10.663 5.528 0 9.309-4.555 9.309-8.917-.004-3.976-2.235-7.66-6.5-7.66ZM31.33 60.221c-1.454.066-2.422-.863-2.422-2.413 0-4.17 5.778-8.147 10.142-10.283-.776 5.82-2.74 12.467-7.72 12.696Zm3.2-22.88c0-3.201 3.157-9.283 5.088-8.64 2.278.76-1.89 6.894-5.089 8.64Zm18.324-1.456c0-3.975 2.691-7.841 4.161-7.106 1.674.838-1.251 4.585-4.16 7.106Z" fill="#0371D6"/></g></svg>