<svg xmlns="http://www.w3.org/2000/svg" viewBox="0 0 90 90"><path fill="#FFF" d="M0 0h90v90H0z"/><path d="M23.035 29.916c-.762 0-1.386.62-1.386 1.378a1.387 1.387 0 0 0 2.773 0c0-.758-.624-1.378-1.387-1.378Zm13.288 50.227c-6.378 0-11.578-4.044-11.578-9.007 0-3.309 2.311-6.204 5.754-7.766l.278-20.38c-5.8 1.769-8.481-.322-10.26.114-1.78.437-3.19 1.563-5.13 3.217-2.335 2-8.02-.436-8.02-.436l4.021-3.102-.9-.781-4.9 1.654s1.11-2.872.67-6.204C6.05 35.867 17.073 31.57 21.21 25.596c1.294-1.861-.347-7.536-.347-7.536 6.124.78 6.91 2.849 8.365 2.55 6.679-1.355 12.64.115 17.355 2.344V0H0v90h46.583V75.318c-1.941 2.872-5.8 4.825-10.26 4.825ZM76.578 55.19C86.977 51.307 87 43.334 87 43.334c-5.523 1.517-13.126.115-12.571 0 10.075-1.976 8.758-13.556 8.758-13.556-3.536 2.987-11.323 3.056-10.63 2.688 8.204-4.274 5.176-12.752 5.176-12.752s-18.81 8.042-29.625 17.623c.07 2.114 1.11 4.917 2.704 6.778 2.149 2.459 5.87 5.607 7.649 9.306 2.31 4.78 1.132 9.145.162 12.247-.74 2.343-2.958 5.974-2.958 5.974h-.67s.462-1.218.739-1.793c.947-1.999 1.317-2.734 1.687-4.135.277-1.402.786-2.987.6-6.066-.485-8.777-9.081-10.317-9.081-10.317v18.267h.023c3.466 5.997 8.85 8.57 15.552 8.363 7.464-.23 14.49-7.766 14.49-7.766-8.366.115-6.933-2.229-6.055-2.298 10.745-.78 11.508-9.512 11.508-9.512-4.46.23-8.412-.988-7.88-1.195ZM46.583 38.762c-.994.988-1.918 1.976-2.704 2.964-6.24 7.927-7.718 15.486-7.88 20.45.116 0 .208-.024.324-.024 4.483 0 8.342 2 10.26 4.894V38.762Zm-9.22 25.205c-4.391 0-7.95 3.217-7.95 7.146 0 3.952 3.559 7.146 7.95 7.146 4.39 0 7.949-3.217 7.949-7.146s-3.559-7.146-7.95-7.146Z" fill="#C00"/></svg>