<svg xmlns="http://www.w3.org/2000/svg" viewBox="0 0 90 90"><path d="M32.56 75.955c.562-.306 17.13-16.856 18.448-18.14l6.162-6.167-10.348-10.153-14.262 14.08a24.865 24.865 0 0 1-2.984-2.893 22.011 22.011 0 0 1-.341-29.724c7.604-8.533 20.5-10.007 29.873-3.414a19.975 19.975 0 0 1 4.573 4.348 22.099 22.099 0 0 1-.717 28.273c-.95 1.092-1.938 2.011-3.003 3.007-7.965 7.854-16.007 15.746-23.913 23.637L46.377 89c.91-.613 26.742-26.357 27.904-27.698 16.782-19.404 8.352-50.589-16.84-58.538C46.186-.81 33.882 1.11 24.286 7.936a43.661 43.661 0 0 0-5.038 4.271C7.614 24.287 5.672 42.598 14.519 56.8a43.677 43.677 0 0 0 3.992 5.287l4.612 4.616c2.519 2.49 7.015 7.145 9.379 9.272" fill="#E62B28"/></svg>