<svg viewBox="0 0 90 90" xmlns="http://www.w3.org/2000/svg"><g fill="none" fill-rule="evenodd"><path fill="#000" fill-rule="nonzero" d="M0 0h90v90H0z"/><path d="M55.032 24.565C53.957 21.74 51.378 20 48.584 20h-7.952c-2.794 0-5.373 1.74-6.447 4.565L20.43 60.435c-.215.87-.43 1.739-.43 2.608C20 66.957 23.009 70 26.877 70h35.247c.86 0 1.72-.217 2.58-.435 3.438-1.522 5.157-5.435 3.868-9.13l-13.54-35.87ZM38.053 32.61c.215-.652.86-1.087 1.29-1.305 1.29-.434 2.579 0 3.009 1.305l10.53 26.956c.216.218.216.652.216.87 0 1.304-1.075 2.391-2.364 2.391H29.67c-.215 0-.644 0-.86-.217-1.074-.435-1.719-1.74-1.289-3.044L38.053 32.61Z" fill="#FFF"/></g></svg>