<svg viewBox="0 0 90 90" xmlns="http://www.w3.org/2000/svg"><defs><linearGradient x1="0%" y1="0%" x2="100%" y2="100%" id="a"><stop stop-color="#0965E2" offset="0%"/><stop stop-color="#DC06FD" offset="100%"/></linearGradient></defs><g fill="none"><path fill="url(#a)" d="M0 0h90v90H0z"/><path d="M48.9 8.492c.578 1.193.687 2.738.668 3.896-2.396-.125-4.568 2.61-4.568 2.61l.109-.048.132-.055c.6-.244 2.253-.836 4.208-.85 0 0 .657.572 1.477 1.645-1.107 2.078-2.926 6.482-1.61 11.105.22.91.55 1.694.96 2.36.015.029.028.057.045.087l.093.118c2.178 3.281 6.172 3.665 6.172 3.665a10.29 10.29 0 0 1-4.409-4.244 13.407 13.407 0 0 1-1.03-2.432c-1.058-4.084.499-6.468 1.39-8.067A10.27 10.27 0 0 1 71.376 25a10.252 10.252 0 0 1-5.267 7.838c.679 1.836-.047 4.062-.047 4.062 1.709 2.15 1.784 3.388 1.725 4.539-2.171-.366-4.28 1.1-4.28 1.1s4.188-1 6.622 1.17c1.582 1.702 2.637 3.24 3.267 4.377.9 1.62 5.083 1.735 4.607 4.65-.477 2.91-3.667 2.937-8.668-.363-4.693-3.1-7.374-5.721-9.71-10.42-1.597 3.22-5.327 8.006-11.618 11.771-3.141 9.771-18.082 28.47-22.918 25.82-1.431-.785-1.703-1.817-1.38-2.883.347-2.67 5.873-8.81 5.873-8.81s.116 1.289 1.884 4.002c-2.334-7.248 3.858-16.19 5.498-19.235 2.578-.821 2.765-4.132 2.765-4.132.165-5.115-2.12-8.82-4.335-11.034 6.258-9.2 8.55-10.925 8.55-10.925.693-.709 1.904-1.59 2.35-1.814-3.268-5.68-3.929-13.686-3.072-15.843-.07.116-.134.236-.186.36.317-.74.53-.976.859-1.366.893-1.055 3.918-1.61 5.004.628Zm-13.506 28.96c1.59 1.942 2.106 4.877 2.181 7.564v.015c.008.303.008.602.007.9-.075 2.224-.748 5.297-2.188 5.297l.004.02c-1.48-.064-3.309.252-4.941.762l-3.61.863s1.925-.088 2.964.81c-1.157 1.886-3.731 4.226-6.601 5.555-4.177 1.937-5.377-1.917-3.256-4.423a13.671 13.671 0 0 1 1.544-1.552c-.32-.332-.522-.775-.575-1.337l-.004-.009c-.29-1.279-.13-2.938 1.68-5.577a13.84 13.84 0 0 1 1.298-1.713l.046-.057.07-.078.038-.044a6.28 6.28 0 0 1 .414-.43c2.156-2.208 5.562-4.505 10.93-6.566Zm12.873-2.372-1.755 1.754a2.109 2.109 0 0 0 0 2.983l1.926 1.926c.824.825 2.16.824 2.983 0l1.754-1.754a2.109 2.109 0 0 0 0-2.983l-1.926-1.926a2.11 2.11 0 0 0-2.982 0Zm-5.288-.702a1.348 1.348 0 1 0 1.905 1.907 1.348 1.348 0 0 0-1.905-1.907Zm2.849-2.848a1.349 1.349 0 1 0 1.906 1.904 1.349 1.349 0 0 0-1.906-1.904Zm8.131-11.887c-3.947 4.513-1.44 9.746 2.17 12.33 3.613 2.583 9.562.811 11.791-3.427 2.227-4.239-.923-6.715-3.087-8.747-3.467-3.26-6.925-4.668-10.874-.156Zm10.822 4.278c3.004 3.33-1.447 4.554-2.84 2.887-1.392-1.668 1.208-4.694 2.84-2.887Z" fill="#FFF"/></g></svg>