<svg viewBox="0 0 90 90" xmlns="http://www.w3.org/2000/svg"><g fill="none" fill-rule="evenodd"><path fill="#FA5D00" d="M0 0h90v90H0z"/><path d="M41.63 51.816v20.183h-3.404v-30.34c0-1.87 1.535-3.34 3.404-3.34h10.079v10.09c0 1.872-1.469 3.408-3.338 3.408H41.63v-.001ZM71.999 18v50.591A3.412 3.412 0 0 1 71 70.995 3.43 3.43 0 0 1 68.595 72h-3.338V21.342a3.297 3.297 0 0 1 2.054-3.094A3.322 3.322 0 0 1 68.596 18H72h-.001Zm-13.483 0h3.337v50.591c0 1.872-1.535 3.409-3.337 3.409h-3.404V34.842c0-1.872 1.535-3.342 3.404-3.342V18ZM31.484 72h-3.337V21.342a3.295 3.295 0 0 1 .965-2.37A3.313 3.313 0 0 1 31.484 18h3.404v37.091a3.41 3.41 0 0 1-.999 2.403 3.43 3.43 0 0 1-2.406 1.005v13.5h.001ZM18 72V21.342C18 19.472 19.535 18 21.404 18h3.34v50.591c0 1.872-1.469 3.409-3.339 3.409H18v-.001Z" fill="#FFF"/></g></svg>