<svg viewBox="0 0 90 90" xmlns="http://www.w3.org/2000/svg"><defs><linearGradient x1="100%" y1="100%" x2="100%" y2="0%" id="a"><stop stop-color="#0BA360" offset="0%"/><stop stop-color="#3CBA92" offset="100%"/></linearGradient></defs><g fill="none" fill-rule="evenodd"><path fill="#FFF" fill-rule="nonzero" d="M0 0h90v90H0z"/><path d="M33 0c18.225 0 33 12.262 33 27.387 0 8.819-5.027 16.659-12.828 21.667-.494.317-.67.938-.393 1.446l2.658 4.875c.467.859-.349 1.844-1.31 1.582l-11.702-3.183a1.13 1.13 0 0 0-.554-.01A39.336 39.336 0 0 1 33 54.773c-18.225 0-33-12.261-33-27.386S14.775 0 33 0" fill="url(#a)" fill-rule="nonzero" transform="translate(12 16)"/><path d="m24.287 41.31-.502.822a.355.355 0 0 0 .141.5l3.46 1.888-3.46 1.89a.355.355 0 0 0-.14.498l.501.823a.398.398 0 0 0 .527.134l3.459-1.89v3.78c0 .201.173.365.386.365h1.004a.376.376 0 0 0 .385-.366v-3.78l3.46 1.89c.184.101.42.042.527-.133l.502-.823a.355.355 0 0 0-.142-.498l-3.459-1.89 3.46-1.889a.355.355 0 0 0 .14-.499l-.5-.822a.399.399 0 0 0-.528-.134l-3.46 1.89v-3.78a.376.376 0 0 0-.385-.365h-1.004a.376.376 0 0 0-.386.365v3.78l-3.459-1.89a.398.398 0 0 0-.527.134Zm14.342.822.501-.822a.398.398 0 0 1 .527-.134l3.46 1.89v-3.78c0-.201.172-.365.386-.365h1.003c.213 0 .386.164.386.365v3.78l3.46-1.89c.184-.1.42-.041.527.134l.502.822a.355.355 0 0 1-.142.5l-3.46 1.888 3.46 1.89c.185.1.248.324.142.498l-.502.823a.399.399 0 0 1-.527.134l-3.46-1.89v3.78a.376.376 0 0 1-.386.365h-1.003a.376.376 0 0 1-.386-.366v-3.779l-3.46 1.89a.4.4 0 0 1-.527-.134l-.5-.823a.354.354 0 0 1 .14-.498l3.46-1.89-3.46-1.889a.354.354 0 0 1-.14-.499Zm14.843 0 .501-.822a.398.398 0 0 1 .527-.134l3.46 1.89v-3.78c0-.201.172-.365.385-.365h1.004c.213 0 .386.164.386.365v3.78l3.46-1.89c.184-.1.42-.041.527.134l.501.822a.355.355 0 0 1-.141.5l-3.46 1.888 3.46 1.89c.184.1.247.324.141.498l-.501.823a.398.398 0 0 1-.527.134l-3.46-1.89v3.78a.376.376 0 0 1-.386.365h-1.004a.376.376 0 0 1-.385-.366v-3.779l-3.46 1.89a.4.4 0 0 1-.527-.134l-.5-.823a.354.354 0 0 1 .14-.498l3.46-1.89-3.46-1.889a.354.354 0 0 1-.14-.499Z" fill="#FFF"/></g></svg>