<svg viewBox="0 0 90 90" xmlns="http://www.w3.org/2000/svg"><defs><linearGradient x1="104.75%" y1="46.739%" x2="-15.93%" y2="52.433%" id="a"><stop stop-color="#2936A3" offset="0%"/><stop stop-color="#162286" offset="100%"/></linearGradient><linearGradient x1="-19.2%" y1="57.169%" x2="95.83%" y2="35.925%" id="b"><stop stop-color="#2297F4" offset="0%"/><stop stop-color="#31A0F9" offset="100%"/></linearGradient></defs><g fill="none"><path d="M84.54 32.17c7.28-7.38 7.28-19.277 0-26.656A18.517 18.517 0 0 0 71.364 0c-4.948 0-9.69 1.985-13.176 5.514l-13.2 13.315 13.15 13.29.05.051a18.517 18.517 0 0 0 13.163 5.501c4.942 0 9.68-1.98 13.163-5.5h.026Z" fill="url(#a)" transform="translate(0 15)"/><path d="M18.636 60.486 5.46 47.17c-7.28-7.38-7.28-19.277 0-26.656A18.517 18.517 0 0 1 18.636 15c4.948 0 9.69 1.985 13.176 5.514l13.2 13.315-26.376 26.683v-.026Z" fill="#17DA88"/><path d="M84.54 32.17a18.517 18.517 0 0 1-13.2 5.502 18.518 18.518 0 0 1-13.177-5.552l-13.15-13.29L18.66 45.511l7.537 7.598A26.464 26.464 0 0 0 45.038 61c7.076 0 13.859-2.84 18.84-7.89l20.687-20.94h-.025Z" fill="url(#b)" transform="translate(0 15)"/></g></svg>