<svg viewBox="0 0 90 90" xmlns="http://www.w3.org/2000/svg"><defs><linearGradient x1="2.49%" y1="65.555%" x2="91.807%" y2="26.323%" id="a"><stop stop-color="#2982CB" offset="0%"/><stop stop-color="#08BFA8" offset="100%"/></linearGradient></defs><g fill="none"><path fill="#0A1E2F" d="M0 0h90v90H0z"/><path d="M59.271 29.662 48.061 21.6l4.283-13.044c.898-2.736-.04-5.596-2.391-7.288-2.351-1.69-5.39-1.692-7.74 0L31.002 9.33 19.788 1.27c-2.351-1.69-5.39-1.693-7.74 0-2.352 1.69-3.29 4.55-2.392 7.287L13.94 21.6 2.728 29.662c-2.351 1.69-3.29 4.551-2.393 7.287.898 2.736 3.356 4.503 6.262 4.503h13.86l4.281 13.045C25.637 57.233 28.095 59 31.001 59c2.905 0 5.364-1.767 6.262-4.503l4.02-12.25a1.16 1.16 0 0 1 1.106-.795h13.013c2.906 0 5.364-1.767 6.262-4.503.899-2.736-.042-5.596-2.393-7.287ZM6.6 36.083c-.735 0-1.007-.498-1.106-.795-.098-.297-.172-.859.422-1.285l9.786-7.037 2.993 9.117H6.6Zm29.015-23.437L45.4 5.61c.594-.428 1.11-.183 1.365 0 .255.184.65.594.422 1.285L43.449 18.28l-1.23-.884-6.605-4.751v.001ZM56.508 35.29c-.099.297-.371.795-1.106.795H42.39c-2.862 0-5.379 1.81-6.263 4.503l-4.022 12.25c-.227.69-.789.795-1.105.795-.317 0-.879-.103-1.106-.795l-3.738-11.386-3.802-11.585-7.539-22.97c-.227-.692.167-1.104.422-1.286.15-.108.393-.238.687-.238.206 0 .435.063.678.238l39.483 28.394c.595.426.52.988.422 1.285h.002Z" transform="translate(14 16)" fill="url(#a)"/></g></svg>