<svg xmlns="http://www.w3.org/2000/svg" viewBox="0 0 90 90" fill="none" fill-rule="evenodd"><path fill="#fff" opacity="0" d="M0 0h90v90H0z"/><g fill-rule="nonzero"><path fill="#4b9c00" d="M15.696 21C8.766 20.986-.492 25.349.02 36.305.811 53.413 18.464 55 25.527 55.145c.762 3.201 9.069 14.271 15.22 14.855h26.927c16.146-1.061 28.23-48.506 19.279-48.679l-31.147 1.106h-2.374c-8.644 0-16.261-.394-30.708-1.106-1.817-.014-4.337-.321-7.032-.321h.003zm.968 6.053h.835c.982 8.774 2.579 13.894 5.817 21.735-8.264-.975-15.279-3.346-16.571-12.235-.675-4.598 1.584-9.399 9.918-9.5z"/><path d="M48.764 35.665c.557.014 1.142.117 1.671.363l2.813 1.207-2.008 3.637a2.8 2.8 0 0 0-.909.145c-1.305.422-1.992 1.687-1.525 2.852.101.232.25.45.425.64l-3.471 6.285a2.38 2.38 0 0 0-.835.145c-1.305.408-1.992 1.687-1.525 2.838.484 1.165 1.918 1.76 3.238 1.338 1.305-.408 1.977-1.687 1.508-2.852a2.33 2.33 0 0 0-.585-.816l3.384-6.112c.366.028.731 0 1.1-.117a2.27 2.27 0 0 0 .79-.422l3.15 1.369c1.142.567 1.553.947 1.685 1.369.118.408-.014 1.193-.675 2.575-.484 1.034-1.288 2.503-2.242 4.218-.323 0-.644.045-.937.145-1.319.422-1.992 1.687-1.525 2.852.47 1.148 1.918 1.746 3.224 1.338 1.319-.422 1.992-1.687 1.525-2.852-.118-.277-.293-.539-.512-.757l2.27-4.263c.703-1.497 1.069-2.62.748-3.696s-1.319-1.774-2.622-2.416L53.7 43.267a2.06 2.06 0 0 0-.146-.888 2.35 2.35 0 0 0-.543-.785l1.977-3.578 10.973 4.698c1.977.858 2.799 2.953 1.831 4.698l-7.544 13.704c-.954 1.746-3.325 2.472-5.302 1.615L39.43 56.083c-1.977-.858-2.799-2.953-1.845-4.698l7.544-13.704c.658-1.207 1.992-1.922 3.398-1.978h.233l.003-.039zm4.67-13.238h2.374v14.797l-2.36-1.02z" fill="#fff"/></g></svg>