<svg viewBox="0 0 90 90" xmlns="http://www.w3.org/2000/svg"><defs><linearGradient x1="50%" y1="0%" x2="50%" y2="100%" id="a"><stop stop-color="#1B1E23" offset="0%"/><stop offset="100%"/></linearGradient></defs><g fill="none" fill-rule="evenodd"><path d="M85 45.036C85 22.926 67.072 5 45.036 5 22.926 5 5 22.927 5 45.036 5 67.072 22.927 85 45.036 85 67.072 85 85 67.072 85 45.036Z" fill="#FFF"/><path d="M50.918 59.203c7.355-.862 15.179-3.517 15.179-16.132 0-3.585-1.272-6.507-3.343-8.765.334-.862 1.403-4.116-.403-8.63 0 0-2.675-.863-8.96 3.32-2.674-.73-5.616-1.196-8.357-1.196-2.81 0-5.752.466-8.36 1.195-6.353-4.182-9.027-3.319-9.027-3.319-1.805 4.514-.735 7.768-.401 8.63-2.073 2.258-3.344 5.18-3.344 8.765 0 12.615 7.823 15.27 15.18 16.132-.936.799-1.806 2.324-2.14 4.45-1.873.795-6.754 2.323-9.696-2.723 0 0-1.74-3.12-5.015-3.318 0 0-3.277-.067-.268 1.99 0 0 2.206.997 3.678 4.78 0 0 2.006 6.308 11.233 4.316v5.642c0 .865-.668 1.86-2.34 1.595C21.429 71.619 12 59.27 12 44.797 12 26.672 26.777 12 45.034 12 63.222 12 78.067 26.672 78 44.797c0 14.473-9.43 26.755-22.535 31.138-1.673.332-2.34-.663-2.34-1.595v-9.094c0-3.056-1.005-5.045-2.207-6.043ZM0 0h90v90H0V0Z" fill="url(#a)"/></g></svg>