<svg viewBox="0 0 90 90" xmlns="http://www.w3.org/2000/svg"><g fill="none" fill-rule="evenodd"><path fill="#FFF" d="M0 0h90v90H0z"/><path d="m25.876 39.625-.46 1.245-.368.08c-.743-.842-1.406-1.393-1.977-1.647-.73-.329-1.566-.49-2.511-.502a6.55 6.55 0 0 0-2.081.322c-1.111.39-2.014 1.004-2.708 1.846-.638.769-1.123 1.68-1.46 2.739a10.732 10.732 0 0 0-.578 3.52c-.018 1.56.375 2.8 1.16 3.698.792.905 1.971 1.351 3.537 1.351.51 0 .914-.037 1.221-.105l.67-.223.251-.837c.393-1.468.626-2.676.712-3.624l.056-1.116 1.83.056 2.025-.056-.393 1.246c-.117.378-.258.997-.423 1.846a50.662 50.662 0 0 0-.51 2.627l-.135.985-.608.211c-1.412.465-2.928.7-4.55.706a12.48 12.48 0 0 1-3.155-.371c-1.719-.422-3.05-1.184-4.002-2.3-.872-1.052-1.345-2.577-1.419-4.566-.018-2.205.571-4.132 1.762-5.774 1.21-1.673 2.788-2.801 4.734-3.383a13.555 13.555 0 0 1 3.855-.533c.933 0 1.805.08 2.603.235.798.161 1.578.415 2.345.762l1.062.533-.485 1.029Zm.81 13.135.474-1.914 1.08-4.474c.166-.712.46-2.15.872-4.318.32-1.698.546-2.956.669-3.786l.209-1.524.092-.744 1.786.056L33.815 36l-.228.787-.38 1.524-.83 3.761-.92 4.331c-.681 3.352-1.068 5.484-1.16 6.388l-.068.93-1.792-.056-2.094.056.344-.96Zm10.13-2.819c-.006.434.068.812.234 1.14.196.459.577.85 1.13 1.171.485.298 1.006.44 1.565.44a3 3 0 0 0 1.516-.396l.602-.372.424.335-.805 1.313-1.05.267a7.097 7.097 0 0 1-1.51.16c-1.142-.006-2.173-.278-3.082-.811-1.013-.589-1.706-1.388-2.08-2.392a4.768 4.768 0 0 1-.32-1.859c0-.954.166-1.896.503-2.831a7.1 7.1 0 0 1 1.259-2.225 4.867 4.867 0 0 1 1.928-1.4 6.024 6.024 0 0 1 2.234-.409c1.59 0 2.775.471 3.567 1.42.405.489.688 1.04.841 1.66.13.526.197 1.072.197 1.635 0 .447-.037.874-.105 1.264l-.16.756-.748-.117-1.253-.038-1.252-.037h-3.512a8.882 8.882 0 0 0-.122 1.326Zm.344-2.695h3.395l.197-1.115c.055-.41.086-.8.092-1.16.018-1.052-.411-1.58-1.29-1.58-1.08.02-1.817.955-2.21 2.826l-.184 1.029Zm8.141 3.321.485-1.431.553.068c.043.378.11.706.196.973a2.644 2.644 0 0 0 1.16 1.58 3.32 3.32 0 0 0 1.891.52c.706 0 1.277-.186 1.713-.558.491-.408.743-.954.761-1.635-.018-.868-.43-1.624-1.24-2.274l-1.91-1.58a7.636 7.636 0 0 1-1.313-1.326 4.454 4.454 0 0 1-.958-2.813c0-1.463.473-2.665 1.419-3.6.945-.936 2.142-1.407 3.603-1.42 1.566.02 2.953.546 4.169 1.593l.485.44-.67 1.184-.564 1.127-.393-.142c-.344-1.648-1.27-2.479-2.787-2.485-.602-.006-1.105.192-1.517.595-.466.459-.693.954-.681 1.487.012.706.51 1.481 1.486 2.324l1.817 1.58c.522.458.957.923 1.301 1.394.252.347.448.75.596 1.208.141.459.215.936.227 1.431a5.07 5.07 0 0 1-.393 1.964c-.89 2.144-2.572 3.222-5.04 3.229a6.213 6.213 0 0 1-1.793-.23c-.755-.192-1.615-.594-2.578-1.208l-.682-.465c.307-.669.528-1.183.657-1.53Zm13.869 1.834c.153-.558.319-1.252.503-2.088.178-.83.32-1.55.417-2.144l.185-1.22-.516-1.673-.792-2.3-.933-2.67-.682-1.716-.515-1.233 2.198.056 2.142-.056.227 1.115.405 1.766.657 2.485.633 2.299a92.163 92.163 0 0 0 1.553-2.3l1.51-2.453 1.142-1.803.632-1.115 1.51.056 1.53-.056-1.13 1.245a25.53 25.53 0 0 0-1.357 1.673l-1.866 2.522-1.683 2.336-1.013 1.524-.313 1.407-.411 1.989c-.147.78-.27 1.604-.38 2.472l-.142 1.208-1.842-.056-2.05.056.38-1.326Zm9.822-1.834.485-1.431.553.068c.043.378.11.706.196.973a2.648 2.648 0 0 0 1.16 1.58 3.313 3.313 0 0 0 1.885.52c.706 0 1.277-.186 1.713-.558.491-.408.743-.954.762-1.635-.013-.868-.43-1.624-1.24-2.274l-1.91-1.58a7.636 7.636 0 0 1-1.314-1.326 4.454 4.454 0 0 1-.957-2.813c0-1.463.472-2.665 1.418-3.6.945-.936 2.142-1.407 3.603-1.42 1.566.02 2.953.546 4.169 1.593l.485.44-.67 1.184-.564 1.127-.393-.142c-.344-1.648-1.277-2.479-2.787-2.485-.596-.006-1.105.192-1.517.595-.466.459-.693.954-.681 1.487.018.706.51 1.481 1.486 2.324l1.817 1.58c.522.458.958.923 1.301 1.394.252.347.449.75.596 1.208.141.459.215.936.227 1.431a5.07 5.07 0 0 1-.393 1.964c-.89 2.144-2.572 3.222-5.04 3.229a6.213 6.213 0 0 1-1.793-.23c-.755-.192-1.608-.594-2.578-1.208l-.682-.465c.307-.669.528-1.183.663-1.53Z" fill="#2E4B64" fill-rule="nonzero"/></g></svg>