<svg viewBox="0 0 90 90" xmlns="http://www.w3.org/2000/svg"><g fill="none" fill-rule="evenodd"><path fill="#FFF" fill-rule="nonzero" d="M0 0h90v90H0z"/><path d="M57.796 12.3 77.7 32.204c7.067 7.067 7.067 18.525 0 25.592L57.796 77.7c-7.067 7.067-18.525 7.067-25.592 0L12.3 57.796c-7.067-7.067-7.067-18.525 0-25.592L32.204 12.3c7.067-7.067 18.525-7.067 25.592 0Z" fill="#005BAC"/><path d="M68.768 43.439a.232.232 0 0 0-.181-.154H45.358a2.21 2.21 0 0 0-2.22 2.201 2.21 2.21 0 0 0 2.22 2.201h13.783c-1.652 4.3-7.201 7.474-13.783 7.474-7.743 0-14.247-4.53-14.247-10.238 0-5.707 6.375-10.084 14.247-10.084a17.157 17.157 0 0 1 10.789 3.48H65.8c.1 0 .18-.08.18-.178C61.954 33.892 54.288 31 45.487 31 32.582 31 22 37.27 22 45s10.53 14 23.487 14C58.444 59 69 52.73 69 45a8.533 8.533 0 0 0-.232-1.561Z" fill="#FFF" fill-rule="nonzero"/></g></svg>