<svg viewBox="0 0 90 90" xmlns="http://www.w3.org/2000/svg"><g fill="none" fill-rule="evenodd"><path fill="#1C449B" d="M0 0h90v90H0z"/><path d="m72.291 44.833 6.083-10.206h-6.208l-3.235 5.175-3.481-5.175h-6.801L65.82 44.82l-7.172 11.5h6.801l3.88-6.537 4.599 6.538H80l-7.709-11.489ZM49.8 34.627l-4.616 11.609-4.377-11.61H35.29L31.625 56.35H37.2l1.803-12.518h.057l4.941 12.518h2.231l5.176-12.518h.068l1.57 12.518h5.603l-3.264-21.723h-5.586Zm-28.416 9.608v4.416h4.565c-.24 2.478-2.1 3.749-4.508 3.749-3.663 0-5.643-3.398-5.643-6.756s1.9-6.814 5.558-6.814c2.248 0 3.857 1.369 4.627 3.421l5.284-2.23C29.423 35.994 26.01 34 21.606 34 14.707 34 10 38.6 10 45.61 10 52.4 14.679 57 21.412 57c3.577 0 6.733-1.288 8.821-4.232 1.877-2.668 2.134-5.382 2.191-8.533h-11.04Z" fill="#FFF" fill-rule="nonzero"/></g></svg>