<svg viewBox="0 0 90 90" xmlns="http://www.w3.org/2000/svg"><defs><linearGradient x1="50%" y1="0%" x2="50%" y2="100%" id="a"><stop stop-color="#783CBD" offset="0%"/><stop stop-color="#00A5CD" offset="100%"/></linearGradient></defs><g fill="none"><path fill="#000" d="M0 0h90v90H0z"/><path d="M44.07 15.215a.333.333 0 0 1 .336-.214h2.645c4.808.384 9.507 2.33 13.083 5.579.583.505 1.131 1.05 1.64 1.63.108.09.27.056.402.09a7.61 7.61 0 0 1 5.256 3.298c.202.286.382.586.537.9.083.168.178.331.252.504.074.141.134.289.182.441.276.602.347 1.275.412 1.928a7.26 7.26 0 0 1-.85 3.673 8.325 8.325 0 0 1-.913 1.414c-.1.15-.222.284-.362.398-.03.744.037 1.491-.053 2.232-.012.321-.064.632-.095.947-.058.24-.016.544-.257.694-.252.121-.546.05-.813.107-3.485.287-6.967.585-10.451.87-.278.053-.579 0-.833.147a.71.71 0 0 0-.315.347c.006.187-.046.406.084.565.107.124.226.263.396.291 5.403.429 10.81.835 16.213 1.286.135.03.323.017.397.158.066.279.076.684-.248.804-5.395 1.088-10.79 2.175-16.185 3.26a4.98 4.98 0 0 1-.88.132c-.334 0-.635-.155-.94-.27-.71-.273-1.42-.544-2.128-.82a97.07 97.07 0 0 1-1.635-.63c-.924-.352-1.85-.7-2.766-1.071-.277-.094-.548-.204-.818-.313-.271-.11-.548-.2-.815-.314a85.63 85.63 0 0 1-1.635-.627c-.116-.036-.236-.125-.36-.079-.338.493-.645 1.006-.983 1.5-.644 1.032-1.315 2.054-1.947 3.098a2.23 2.23 0 0 0-.1.202 10.41 10.41 0 0 0 3.2 1.675 6.163 6.163 0 0 0 2.263.306.258.258 0 0 0 .148-.072c.875-.84 1.962-1.513 3.168-1.739a3.411 3.411 0 0 1 2.47.445c.598.355 1.13.897 1.302 1.588a.988.988 0 0 1-.438 1.049c-.448.298-.985.566-1.54.466-.315-.056-.47-.36-.689-.555-.357-.332-.88-.517-1.361-.384-.348.082-.757.228-.89.595-.073.31.084.614.206.891.121.278.373.498.367.813a.964.964 0 0 1-.6.825c-.27.094-.605.058-.804-.165-.342-.36-.44-.868-.614-1.317a.553.553 0 0 0-.615-.424c-1.658.229-3.348 0-4.948-.456-1.162-.342-2.3-.823-3.276-1.55a5.921 5.921 0 0 1-1.709-1.928c-.098-.24.03-.49.113-.714.37-.87.8-1.714 1.288-2.525.116-.214.247-.423.377-.629.056-.108.12-.212.19-.311.457-.77 1.018-1.473 1.562-2.184l.05-.116c-.115-.038-.202-.13-.322-.153l-.01-.043a2.411 2.411 0 0 1-.386-.119 1.866 1.866 0 0 0-1.068.13c-.464.271-.725.75-1.041 1.165-.127.243-.286.467-.419.706a1.59 1.59 0 0 0-.128.207c-.157.321-.352.632-.494.964l-.038.014c-.226.559-.516 1.092-.744 1.65-.055.152-.12.299-.188.444-.098.3-.276.572-.312.89-.129.798.256 1.588.788 2.163.548.597 1.225 1.052 1.886 1.515.547.373 1.124.7 1.726.976.335.15.528.477.73.764.605.942.948 2.027 1.182 3.115.174.846.282 1.703.322 2.565.002.35.027.699.075 1.045.03.138.155.321.322.252.127-.05.164-.191.198-.309.195-.75.724-1.37 1.435-1.683.304-.145.646-.191.977-.132.557.107.742.938.31 1.286-.243.214-.594.214-.858.395-.322.204-.555.579-.494.964.083.439.355.819.744 1.04.364.19.795.206 1.171.041.399-.156.728-.438 1.05-.711.169-.15.323-.334.554-.39.388-.137.812.074 1.04.391.493.665.664 1.594.33 2.367-.316.711-1.028 1.154-1.746 1.384a5.674 5.674 0 0 1-3.126-.225 4.99 4.99 0 0 1-2.577-2.206c-.24-.391-.372-.834-.564-1.247a17.198 17.198 0 0 0-2.02-3.386c-.645-.8-1.396-1.566-2.363-1.973a2.66 2.66 0 0 0-1.333-.2c-.286.04-.58.197-.678.484a7.509 7.509 0 0 0-.266 3.94c.322 1.677 1.255 3.189 2.449 4.392.38.4.843.71 1.289 1.028 3.543 2.4 7.807 3.759 12.096 3.758 3.206 0 6.39-.765 9.3-2.096 2.147-.974 4.217-2.223 5.854-3.941 1.288-1.358 2.255-3.049 2.588-4.897.204-1.091.233-2.242-.097-3.314a3.871 3.871 0 0 0-1.452-2.047c-.84-.58-1.912-.767-2.913-.629-1.295.115-2.577.857-3.147 2.049-.249.65-.382 1.373-.223 2.061.147.697.58 1.3 1.195 1.663.61.419 1.396.526 2.11.406a1.739 1.739 0 0 0 1.305-1.017c.147-.344.268-.738.15-1.109a.944.944 0 0 0-1.14-.633c-.322.107-.563.373-.89.467a.752.752 0 0 1-.9-.484c-.068-.314.054-.637.234-.892.691-.84 2.001-1.044 2.954-.55a2.68 2.68 0 0 1 1.39 1.578c.283.826.137 1.74-.215 2.523a3.575 3.575 0 0 1-1.99 1.902c-.911.358-1.927.282-2.861.062-.89-.23-1.76-.643-2.394-1.322a4.858 4.858 0 0 1-1.255-2.843c-.055-1.161.178-2.357.784-3.36a5.257 5.257 0 0 1 2.124-1.948c1.912-.995 4.285-1.11 6.25-.196a6.47 6.47 0 0 1 3.338 3.636c.595 1.637.6 3.438.272 5.133-.482 2.425-1.58 4.7-3.034 6.692-2.85 3.877-6.958 6.767-11.49 8.368a27.393 27.393 0 0 1-9.24 1.523 32.308 32.308 0 0 1-6.058-.629 23.887 23.887 0 0 1-5.053-1.79 26.467 26.467 0 0 1-8.523-6.479 32.727 32.727 0 0 1-2.183-2.847 22.761 22.761 0 0 1-3.842-10.358c-.128-.936-.152-1.881-.19-2.824-.001-1.636.118-3.27.355-4.89.132-.797.25-1.597.47-2.376.226-.85.506-1.685.84-2.499.03-.097.058-.196.085-.293h.049c.049-.313.26-.575.322-.883l.05.007c.067-.302.237-.576.388-.844l-.017-.107h.094a5.428 5.428 0 0 0-.04-.122h.095l-.024-.121h.066c.306-.705.716-1.362 1.12-2.016.063-.176.214-.295.29-.466a24.914 24.914 0 0 1 1.913-2.55c.166-.232.378-.43.561-.643.492-.552 1.036-1.058 1.56-1.58.331-.261.626-.566.966-.82 3.137-2.605 6.943-4.346 10.903-5.277a9.898 9.898 0 0 1 1.718-.276c.203-.007.355-.158.505-.277.466-.373.939-.738 1.406-1.109.23-.201.259-.526.296-.81.322-2.062.645-4.124.961-6.185.055-.238.05-.488.137-.718m3.642 8.489a7.314 7.314 0 0 0-2.021.553 7.494 7.494 0 0 0-4.154 9.283 7.518 7.518 0 0 0 8.935 4.885 7.5 7.5 0 0 0 5.605-8.49c-.333-2.183-1.718-4.163-3.627-5.27a7.51 7.51 0 0 0-4.738-.964m16.494 2.124c.04.296.227.536.339.811.496 1.102.984 2.22 1.242 3.404.366-.095.668-.36.917-.637a2.14 2.14 0 0 0 .447-1.85c-.08-.637-.494-1.2-1.028-1.54-.567-.354-1.285-.38-1.915-.186l-.002-.002Zm-17.88 1.644a2.743 2.743 0 0 1 2.964 1.392 2.73 2.73 0 0 1-.49 3.232 2.746 2.746 0 0 1-3.243.456 2.739 2.739 0 0 1-1.221-3.447 2.739 2.739 0 0 1 1.99-1.633Z" fill="url(#a)"/></g></svg>