<svg viewBox="0 0 90 90" xmlns="http://www.w3.org/2000/svg"><g fill="none"><path fill="#FD4B2D" d="M0 0h90v90H0z"/><path d="m63.6 22 .178.003h.032l.013.001L63.6 22c.15 0 .3.004.449.011l.066.002.187.01a9.65 9.65 0 0 1 1.087.148c.025.007.05.012.076.017a3.345 3.345 0 0 1 .328.071c.148.035.292.074.437.117l.051.016c.063.018.125.038.187.057l-.238-.073c.298.086.592.188.88.305l.166.07c.02.007.038.016.057.024l.103.045.08.036.069.031c.133.062.263.127.391.195l.095.051.073.04a9.41 9.41 0 0 1 3.094 2.745l.168.243.012.014a9.882 9.882 0 0 1 1.056 2.097l-.031-.079c.028.075.049.126.07.195l.017.046.03.088c.004.019.01.038.016.059a9.251 9.251 0 0 1 .133.45l.012.047.022.085c.024.096.046.193.067.29l-.089-.375c.039.15.074.302.104.455.034.156.062.314.086.473l.046.343c.043.36.064.72.063 1.083v7.27l-.003-.001v.001h.003v4.175l-.003-.001v15.691c-.006 5.208-4.222 9.427-9.424 9.433h-3.999v-9.239h-19.1V68h-4c-5.202-.006-9.418-4.225-9.424-9.433v-8.533h30.286v-7.158h-.004v-4.173l.003-.001v-.001h-.003v-4.176h.003l.001-.811-3.977-.001v2.236H51.28v-2.236h-3.362l.001 3.797H45.82v-3.797h-3.09v.812h.004v4.176h-.005v.001h.005v4.175l-.005-.001.001.007H27.324c.85 1.295 1.347 2.46 1.347 2.884 0 1.15-3.615 7.656-7.992 7.656-5.661.149-9.522-6.422-6.728-11.295l.138-.244a7.653 7.653 0 0 1 6.59-3.773c2.443 0 4.653 2.027 6.126 4.017.086.125.176.25.263.375l-.001-3.8.002-.001v-.001h-.002v-7.27c0-.24.009-.482.028-.722l.035-.359c.048-.422.124-.838.228-1.247l.008-.025.01-.046a9.334 9.334 0 0 1 1.294-2.857l.01-.014a7.25 7.25 0 0 1 .264-.37c.079-.103.155-.202.234-.3a9.295 9.295 0 0 1 .467-.53l.1-.105.01-.011c.05-.056.102-.106.159-.16l.052-.05c.06-.059.122-.116.185-.173l-.237.224a9.553 9.553 0 0 1 .509-.463l.052-.043a7.77 7.77 0 0 1 .208-.169l.08-.062c.106-.082.214-.16.323-.237l-.051.036c.07-.052.144-.102.218-.151l.08-.053.033-.022c.114-.074.252-.159.379-.236.252-.145.504-.279.756-.399a4.13 4.13 0 0 1 .252-.112c.359-.157.727-.29 1.103-.399a8.247 8.247 0 0 1 .652-.166 9.65 9.65 0 0 1 1.276-.187l.187-.01.073-.002c.149-.007.299-.01.449-.011H63.6ZM23.036 42.128c-1.655-1.758-3.945-1.36-5.52 0-5.27 5.138 3.338 13.902 8.247 3.624-.394-.836-1.484-2.49-2.733-3.624Z" fill="#FFF"/></g></svg>