<svg viewBox="0 0 90 90" xmlns="http://www.w3.org/2000/svg"><g fill="none" fill-rule="evenodd"><path fill="#F1F252" d="M0 0h90v90H0z"/><path d="M45 74.165c15.464 0 28-12.984 28-29 0-2.045-.183-4.064-.536-6.028H44.512l20.256 22.028C43.4 79.072 17.073 33.275 30.577 24.73c2.286-1.447 5.556-1.603 9.808-.467l.645.18c.218.063.438.13.66.2l.675.218.343.117.696.248c.353.128.71.265 1.073.408l.734.296.748.316c.252.108.507.22.763.335l.778.354.793.374.807.393.823.413.416.213.844.442.86.46.873.481.889.5.45.257.91.529.925.548c.156.093.312.186.468.281l1.427.873.97.606.984.626.999.645 1.014.664 1.028.684 1.043.703 1.593 1.091.538.373L55.543 17.11c-2.346-.903-5.315-1.072-8.125-1.103L45.95 16H45c-15.464 0-28 13.149-28 29.165s12.536 29 28 29Z" fill="#1C1B18"/></g></svg>