<svg viewBox="0 0 90 90" xmlns="http://www.w3.org/2000/svg"><g fill="none"><path fill="#FFF" d="M0 0h90v90H0z"/><path fill="#FFF" d="M15.94 34.276h31.529v19.062H15.94z"/><path d="M40.061 40.975c-2.278 0-3.872 1.647-3.872 4.048 0 2.425 1.591 4.074 3.872 4.074 2.257 0 3.85-1.649 3.85-4.074 0-2.4-1.591-4.048-3.85-4.048Z" fill="#00C06C"/><path d="M52.089 30.056a1.97 1.97 0 0 0-.467-.056H24.81c-5.243-.002-9.808 3.545-11.056 8.591l-4.698 19c-.143.58-.01 1.194.363 1.665.372.47.942.744 1.545.744H37.78c5.24 0 9.803-3.547 11.05-8.591l4.698-19a1.945 1.945 0 0 0-1.44-2.353Zm-19.99 22.068c0 .67-.548 1.213-1.224 1.213a1.219 1.219 0 0 1-1.225-1.213v-.906c-1.06 1.237-2.983 2.117-5.063 2.117-4.87 0-8.65-3.65-8.65-8.383 0-4.686 3.827-8.29 8.745-8.29a9.306 9.306 0 0 1 5.279 1.68 1.268 1.268 0 0 1 .305 1.781l-.046.061a1.302 1.302 0 0 1-1.782.221c-1.092-.799-2.406-1.268-3.7-1.268-3.334 0-5.945 2.543-5.945 5.792 0 3.25 2.611 5.909 5.94 5.816 1.772-.05 3.29-1.123 4.088-2.466h-2.123a1.219 1.219 0 0 1-1.224-1.213c0-.67.548-1.214 1.224-1.214h4.116c.709 0 1.283.57 1.283 1.273v4.999h.002Zm7.961-.765c-3.924 0-6.605-2.591-6.605-6.358 0-3.792 2.685-6.357 6.605-6.357 3.898 0 6.583 2.565 6.583 6.357 0 3.763-2.685 6.358-6.583 6.358Zm7.384-15.682a.076.076 0 0 1-.052.019 1.496 1.496 0 0 1-.16-.013c-.104-.012-.254-.033-.437-.044-.094 0-.194-.015-.303-.025-.109-.01-.226-.007-.348-.016a7.618 7.618 0 0 0-.795.019c-.07 0-.142.018-.213.026a1.66 1.66 0 0 0-.217.033c-.074.013-.147.023-.22.038-.074.016-.149.038-.223.054a8.66 8.66 0 0 0-.93.335c-.32.126-.66.274-1.014.452s-.703.39-1.07.62c-.187.115-.37.232-.58.344a3.093 3.093 0 0 1-.71.29c-.071.017-.149.027-.222.038a1.55 1.55 0 0 1-.494-.041 1.344 1.344 0 0 1-.448-.233l-.05-.04a.23.23 0 0 1-.032-.03l-.052-.056-.037-.045h-.006l-.028-.028-.013-.016-.025-.031-.094-.12a2.595 2.595 0 0 0-.728-.686 2.363 2.363 0 0 0-.854-.307 3.824 3.824 0 0 0-.82-.015c-.215.019-.43.049-.642.09-.18.035-.323.078-.42.1l-.149.038a.073.073 0 0 1-.07-.012.071.071 0 0 1 .02-.122l.139-.064c.092-.04.22-.107.396-.178a5.223 5.223 0 0 1 1.084-.304l.115-.02a.572.572 0 0 0 .127-.01l.253-.016c.383-.005.763.065 1.119.204.396.172.753.42 1.05.73l.107.103.025.024-.009-.009h.008l.06.048.06.048a.094.094 0 0 0 .026.018h.012l.046.013c.02.005.04.008.06.01h.059a.152.152 0 0 0 .07-.013c.029-.012.056-.017.086-.027.151-.068.295-.152.427-.251.154-.104.314-.233.475-.36.324-.261.657-.546 1.013-.817a5.444 5.444 0 0 1 1.157-.694 4.154 4.154 0 0 1 1.28-.312c.72-.062 1.444.07 2.095.384.127.064.246.125.348.184.097.057.19.118.28.185.073.05.143.105.209.164a3.138 3.138 0 0 1 .265.237c.013.015.02.035.02.055a.075.075 0 0 1-.026.052Z" fill="#00C06C"/><path d="M67.155 40.184a1.302 1.302 0 0 1-1.783.221c-1.091-.799-2.405-1.268-3.699-1.268-3.327 0-5.94 2.543-5.94 5.792 0 3.25 2.615 5.816 5.94 5.816 1.314 0 2.659-.47 3.787-1.254a1.259 1.259 0 0 1 1.645.192 1.237 1.237 0 0 1-.187 1.832c-1.561 1.13-3.485 1.82-5.39 1.82-4.87 0-8.65-3.65-8.65-8.383 0-4.686 3.826-8.29 8.745-8.29a9.306 9.306 0 0 1 5.278 1.68 1.268 1.268 0 0 1 .294 1.783l-.04.06ZM81 45c0 3.764-2.685 6.359-6.583 6.359-3.924 0-6.605-2.591-6.605-6.358 0-3.792 2.685-6.357 6.605-6.357C78.315 38.643 81 41.209 81 45Zm-10.454.024c0 2.426 1.591 4.074 3.872 4.074 2.258 0 3.85-1.648 3.85-4.074 0-2.4-1.591-4.05-3.85-4.05-2.278 0-3.873 1.648-3.873 4.05h.001Z" fill="#212121"/></g></svg>