<svg viewBox="0 0 90 90" xmlns="http://www.w3.org/2000/svg"><path d="M77.633 8.653C68.28 2.83 55.966 4.205 44.984 11.098c-10.948-6.89-23.269-8.268-32.61-2.445-14.778 9.22-16.575 32.967-4.01 53.035 9.262 14.802 23.746 23.47 36.64 23.31 12.892.16 27.376-8.508 36.638-23.31 12.55-20.068 10.768-43.816-4.01-53.035ZM9.36 44.198A37.822 37.822 0 0 1 8.1 31.703c.56-7.414 3.586-13.191 8.514-16.268 4.929-3.077 11.444-3.256 18.383-.51 1.054.423 2.087.9 3.093 1.428a56.584 56.584 0 0 0-9.963 11.953c-7.63 12.186-9.956 25.75-7.294 36.558a49.598 49.598 0 0 1-5.676-7.41A48.013 48.013 0 0 1 9.36 44.198Zm71.29 0a48.127 48.127 0 0 1-5.798 13.256 49.625 49.625 0 0 1-5.676 7.426c2.38-9.692.763-21.562-5.073-32.697a1.468 1.468 0 0 0-2.11-.575L43.798 42.96a1.481 1.481 0 0 0-.473 2.045l2.67 4.261a1.484 1.484 0 0 0 2.048.472l11.795-7.353c.381 1.142.763 2.266 1.049 3.427a37.841 37.841 0 0 1 1.259 12.495c-.561 7.418-3.586 13.195-8.514 16.272a16.66 16.66 0 0 1-8.434 2.437h-.382a16.64 16.64 0 0 1-8.434-2.437c-4.932-3.077-7.957-8.854-8.518-16.272a37.944 37.944 0 0 1 1.26-12.495 49.448 49.448 0 0 1 15.189-24.265 38.06 38.06 0 0 1 10.68-6.607c6.92-2.746 13.447-2.567 18.379.51 4.932 3.077 7.953 8.854 8.514 16.268.284 4.2-.134 8.417-1.236 12.48Z" fill="#1BDBDB"/></svg>