<svg xmlns="http://www.w3.org/2000/svg" viewBox="0 0 90 90"><path d="M0 0h90v90H0z"/><path d="M15.265 43.054A30.257 30.257 0 0 1 15 39.04c0-.289 0-.573.014-.855.012-.476.031-.874.06-1.251a28.77 28.77 0 0 1 .374-3.082c.028-.17.056-.33.085-.49.05-.281.107-.564.17-.838.036-.166.072-.332.113-.488a30.1 30.1 0 0 1 9.52-15.745l.335-.29.204.393c.278.536.515 1.092.708 1.663.414 1.23.624 2.521.621 3.82 0 .662-.053 1.323-.16 1.976v.119l-.027.026a11.785 11.785 0 0 1-.447 1.732 13.885 13.885 0 0 1 7.28.776 13.938 13.938 0 0 1 5.883 4.373l.397.503-.636.064c-.056.006-5.728.575-10.81 1.37-2.125.318-4.22.81-6.265 1.474a.22.22 0 0 1-.02 0c-.007 0-.011.005-.017.007a1.245 1.245 0 0 0-.926 1.368 1.252 1.252 0 0 0 1.238 1.092h51.894a.311.311 0 0 1 .08.016.22.22 0 0 1 .129.06c.007.007.017.01.023.017.021.021.04.045.055.07.01.013.02.026.027.04a.354.354 0 0 1 .02.072.28.28 0 0 1 .014.053A29.9 29.9 0 0 1 75 39.034a33.908 33.908 0 0 1-.41 4.961l-.05.291H57.556a14.51 14.51 0 0 0-8 2.387c-5.013 3.588-7.34 12.321-7.364 12.413-.065.24-1.642 5.887-5.155 8.81a18.467 18.467 0 0 1-3.77 2.767 18.644 18.644 0 0 1-13.31 1.842c-.01 0-.017-.01-.027-.013a.342.342 0 0 1-.06-.028.32.32 0 0 1-.063-.044c-.007-.007-.018-.01-.024-.017-.007-.007-.01-.02-.017-.028a.352.352 0 0 1-.072-.257v-.035c0-.012.01-.018.014-.028a.35.35 0 0 1 .068-.12c.007-.008.01-.019.02-.026a24.806 24.806 0 0 0 6.269-9.517 29.967 29.967 0 0 1-10.8-19.337Z" fill="#19FB9B"/><path d="M39.323 68.607a.348.348 0 0 1-.005-.071v-.039c0-.008.007-.015.008-.024a.34.34 0 0 1 .023-.067.332.332 0 0 1 .033-.06c.005-.008.006-.016.012-.023a20.518 20.518 0 0 0 1.947-2.889.331.331 0 0 1 .06-.07.343.343 0 0 1 .02-.023.352.352 0 0 1 .098-.056c.007 0 .012-.007.019-.01a.328.328 0 0 1 .09-.013.312.312 0 0 1 .042-.006c.204.014 1.125.025 1.734.033.262 0 .474.006.558.008h.191c.88.016 1.777-.01 2.685-.086a25.82 25.82 0 0 0 10.52-3.21 26.414 26.414 0 0 0 11.416-12.765c.401-.959.745-1.94 1.03-2.94 0-.007.007-.012.01-.02a.402.402 0 0 1 .173-.196.373.373 0 0 1 .064-.021.365.365 0 0 1 .066-.014h3.622a.264.264 0 0 0 .086.01.237.237 0 0 1 .023.012.338.338 0 0 1 .064.031.29.29 0 0 1 .053.036.34.34 0 0 1 .045.05.356.356 0 0 1 .037.054c.01.02.017.04.022.062a.327.327 0 0 1 .014.069c0 .01.005.017.005.027a.354.354 0 0 1-.009.041v.044a29.825 29.825 0 0 1-2.503 6.548A30.32 30.32 0 0 1 58.588 65.89a7.567 7.567 0 0 1-2.164 4.872 7.514 7.514 0 0 1-4.83 2.224h-.045a.342.342 0 0 1-.127-.025.336.336 0 0 1-.042-.026.344.344 0 0 1-.064-.04 1.545 1.545 0 0 1-.076-.102.352.352 0 0 1-.017-.054.33.33 0 0 1-.019-.06 9.167 9.167 0 0 0-1.452-3.908 28.806 28.806 0 0 1-3.575.356c-.367.017-.749.025-1.167.025h-.237c-1.362-.01-3.945-.102-5.15-.262-.01 0-.017-.007-.027-.01a.353.353 0 0 1-.123-.052c-.008-.005-.017-.007-.025-.013a.313.313 0 0 1-.025-.03.337.337 0 0 1-.045-.056.341.341 0 0 1-.03-.059.339.339 0 0 1-.025-.064Z" fill="#FFF"/><path d="M63.163 46.264c.023-.04.048-.078.074-.115a.372.372 0 0 1 .046-.034.346.346 0 0 1 .063-.043.361.361 0 0 1 .042-.01c.03-.01.06-.016.091-.018h3.972l-.137.452a24.098 24.098 0 0 1-11.458 14.097c-3.213 1.773-8.417 2.964-12.95 2.964h-.121a.348.348 0 0 1-.35-.35v-.144l.053-.054c.36-.896.668-1.813.92-2.745 0-.011.008-.02.01-.032a.39.39 0 0 1 .088-.157.35.35 0 0 1 .06-.047.216.216 0 0 1 .044-.027.33.33 0 0 1 .079-.022.315.315 0 0 1 .037-.012c.232-.017.465-.04.696-.068a30.42 30.42 0 0 0 7.649-1.76 21.526 21.526 0 0 0 11.083-11.867s.009-.006.009-.008Z" fill="#FFF"/><path d="M60.584 46.473a.329.329 0 0 1-.018.067v.01a19.977 19.977 0 0 1-6.148 6.96 19.884 19.884 0 0 1-8.62 3.417.662.662 0 0 1-.597-.246.679.679 0 0 1-.115-.647l.922-2.723a.985.985 0 0 1 .713-.643c3.86-.903 7.901-3.564 9.828-6.468.006-.01.016-.015.023-.023a.361.361 0 0 1 .106-.088.354.354 0 0 1 .13-.04.377.377 0 0 1 .031-.006h3.422a.38.38 0 0 1 .071.015c.022.004.044.01.064.018h.01a.36.36 0 0 1 .04.03.35.35 0 0 1 .06.048.35.35 0 0 1 .036.054.325.325 0 0 1 .033.058.316.316 0 0 1 .014.074.285.285 0 0 1 .01.05v.01a.343.343 0 0 1-.015.073Z" fill="#FFF"/></svg>