<svg xmlns="http://www.w3.org/2000/svg" viewBox="0 0 90 90"><rect width="90" height="90" fill="#FFF"/><path d="M0,20.4147738 L0,33.7872637 C8.36415317,32.5178511 15.9483445,32.1570807 22.8448999,32.5092156 C21.8947121,28.8113196 21.1791861,25.2583075 20.6483119,21.9298174 C10.4511041,20.3044318 2.51972879,20.3437712 0,20.4147738 Z"/><path fill="#979936" d="M23.6032494 32.0832776C16.6697585 31.7317419 8.41012141 32.1423765 0 33.4061856L0 90.0063029 90 90.0063029C89.7746857 89.9833766 29.8782037 56.2914795 23.6032494 32.0832776zM21.4407237 22.2520688C20.1244379 14.026633 19.6761863 6.61137769 20.095969.00630285581L0 .00630285581 0 20.4138143C2.51972879 20.3437712 11.2435159 20.6266832 21.4407237 22.2520688zM85.7515641.455346787L32.647799.455346787C32.6458755.475496194 32.6439521.494686106 32.6410669.516754504L85.7515641.455346787z"/><path fill="#993233" d="M31.7596427,23.6645854 C56.2173613,29.9156991 86.2992686,46.4775523 90,89.9724464 L90,0.00630285581 L32.8229582,0.00630285581 C31.4476864,8.68206189 31.3913006,16.5547231 31.7596427,23.6645854 Z"/><path fill="#FDB913" d="M32.7252181,32.8510702 C32.2743933,32.7804655 32.0378649,32.7603646 32.015633,32.7907675 C25.0001683,42.3846688 37.358711,62.5627148 54.205762,74.851716 C64.4544253,82.3275547 76.385838,87.3790836 90,90.0063029 C90,90.0063029 89.9913444,89.8882849 89.9701864,89.6733579 C89.2671628,85.5513649 80.5010071,40.5049664 32.7252181,32.8510702 Z"/><path d="M21.1575472,21.3112168 C21.6884213,24.6406665 22.4039474,28.1936786 23.3541352,31.8906151 C29.5947917,56.2051926 46.0980536,86.060857 89.3421777,89.9285837 C89.5691456,89.9487331 89.7730321,89.9842345 90,90.0063029 C90,90.0063029 77.8543302,88.2283575 64.6459503,80.3317089 C61.2327757,77.1576976 59.9863755,72.7622483 61.5588017,69.4241632 C63.407244,65.5036642 68.2505089,63.8408584 72.1830169,65.6811709 C75.3297927,67.1559156 76.6810214,70.8969889 75.204768,74.0326204 C74.0208802,76.5407419 71.0250958,77.6211339 68.5082522,76.4486303 C66.4972778,75.5054462 65.6269134,73.1105452 66.5742161,71.1032804 C67.2253063,74.4778264 69.929687,74.9230323 71.3453514,74.2158841 C73.1149319,73.3350672 73.8275728,71.1867566 72.9456677,69.4203252 C71.8387181,67.2154044 69.1487634,66.322114 66.9396729,67.4236149 C64.1737416,68.804329 63.0533278,72.1596851 64.4372552,74.9163159 C66.1674049,78.3657025 70.3682352,79.7636875 73.8256493,78.0365955 C78.1476574,75.8825279 79.8970416,70.6379251 77.7312289,66.3288304 C75.0287717,60.9451007 67.5647965,59.268862 63.0619834,61.4593904 C58.0023295,63.921456 55.382581,68.374475 55.3133365,73.7092704 C45.1065114,65.13138 35.8594915,52.1820276 32.7425292,32.8664221 C32.2655119,29.9006213 31.946218,26.7726657 31.779839,23.4979073 C31.4114969,16.389964 31.7779155,8.68302138 33.1531873,0.00630285581 C33.1551108,-0.0148060469 33.1570342,0.0254927674 33.1589577,0.00630285581 L19.6620593,0.00630285581 C19.6582124,0.0859409889 19.1821567,8.97306319 21.1575472,21.3112168 Z"/></svg>