<svg viewBox="0 0 90 90" xmlns="http://www.w3.org/2000/svg"><g fill="none"><path fill="#34D9C3" d="M0 0h90v90H0z"/><path d="M63 35.567c-.078-10.315-8.466-18.646-18.656-18.566C34.153 17.08 25.922 25.57 26 35.884c.078 10.315 8.466 18.646 18.656 18.567 4.155 0 8.152-1.508 11.445-4.126v3.967c0 6.427-5.174 11.664-11.602 11.664-4.546 0-8.7-2.698-10.504-6.903h-7.368c2.586 9.997 12.699 15.948 22.576 13.33A18.706 18.706 0 0 0 63 54.293V35.566ZM44.5 47.47c-6.35 0-11.523-5.237-11.523-11.743 0-6.427 5.174-11.743 11.602-11.664 6.35 0 11.523 5.237 11.523 11.664C56.023 42.154 50.85 47.39 44.5 47.47Z" fill="#FFF"/></g></svg>