<svg viewBox="0 0 90 90" xmlns="http://www.w3.org/2000/svg"><defs><linearGradient x1="50%" y1=".636%" x2="50.099%" y2="94.522%" id="a"><stop stop-color="#1DC9FF" offset="0%"/><stop stop-color="#0047FF" offset="100%"/></linearGradient><linearGradient x1="42.367%" y1="27.003%" x2="65.039%" y2="84.754%" id="b"><stop stop-color="#FF4D4D" offset="0%"/><stop stop-color="#D4276F" offset="100%"/></linearGradient></defs><g fill="none" fill-rule="evenodd"><path d="M84.38 64.744c8.064-16.532 5.3-37.004-8.41-50.714C64.765 2.825 49.03-1.064 34.66 2.28L12.642 5.742C3.256 7.22-.815 18.521 5.466 25.574-2.408 42.049.406 62.347 14.03 75.97c10.623 10.623 25.323 14.671 39.064 12.212l23.967-3.77c9.315-1.464 13.395-12.605 7.32-19.668Z" fill="#FFF" fill-rule="nonzero"/><path d="M85.699 64.587c7.881-16.83 4.948-37.467-8.936-51.35C65.282 1.754 49.164-2.234 34.445 1.177L12.468 4.634C2.464 6.207-2.028 18.002 4.146 25.748c-7.687 16.767-4.701 37.224 9.09 51.016 10.892 10.891 25.962 15.04 40.044 12.524l23.956-3.767c9.927-1.561 14.426-13.186 8.463-20.934Z" stroke-opacity=".12" stroke="#000" stroke-width="2.244"/><path d="M49.578 21.85a23.82 23.82 0 0 1 12.06 6.512c8.016 8.015 9.154 20.317 3.435 29.62l-1.206-3.525a4.726 4.726 0 0 0-1.129-1.812c-2.748-2.75-7.472-1.19-8.078 2.666L50.602 81.13l25.832-4.065c3.844-.604 5.397-5.318 2.657-8.06a4.709 4.709 0 0 0-1.859-1.143l-2.741-.903c10.46-14.479 9.23-34.753-3.734-47.716a36.532 36.532 0 0 0-19.08-10.1c-10.985-1.123-11.79 11.536-2.009 12.692l-.09.016Z" fill="url(#a)" fill-rule="nonzero"/><path d="m34.967 33.729 3.968-25.235-25.26 3.972c-3.758.591-5.277 5.198-2.598 7.878.51.51 1.132.892 1.818 1.118l3.04 1C5.018 36.977 6.106 57.62 19.244 70.758a36.53 36.53 0 0 0 18.804 10.046c10.356.562 10.933-11.61 1.352-12.743l.345-.062a23.82 23.82 0 0 1-11.382-6.36c-8.066-8.065-9.168-20.47-3.329-29.792l.93 2.717a4.619 4.619 0 0 0 1.104 1.77c2.688 2.688 7.307 1.165 7.9-2.604Z" fill="url(#b)" fill-rule="nonzero"/></g></svg>