<svg xmlns="http://www.w3.org/2000/svg" viewBox="0 0 90 90"><path fill="#FFF" d="M0 0h90v90H0z"/><path d="M24.28 45.605V35.14h-4.652v5.813h-2.326a4.651 4.651 0 0 1 0-9.302h6.977V27h-6.977a9.302 9.302 0 1 0 0 18.605h6.977Zm47.673 0h-6.976V27h6.976a9.302 9.302 0 0 1 0 18.605Zm0-13.954h-2.325v9.302h2.325a4.651 4.651 0 1 0 0-9.302ZM54.512 27a9.302 9.302 0 0 1 9.302 9.302 9.302 9.302 0 1 1-18.605 0A9.302 9.302 0 0 1 54.512 27Zm0 4.651a4.651 4.651 0 1 0 0 9.302 4.651 4.651 0 0 0 0-9.302ZM34.744 27a9.302 9.302 0 1 1 0 18.605 9.302 9.302 0 0 1 0-18.605Zm0 4.651a4.651 4.651 0 1 0 0 9.303 4.651 4.651 0 0 0 0-9.303Z" fill="#74AF26"/><path d="M15.746 62.914c-1.161 0-2.208-.257-3.14-.77a5.64 5.64 0 0 1-2.193-2.135c-.53-.91-.796-1.928-.796-3.056 0-1.127.265-2.146.796-3.056a5.625 5.625 0 0 1 2.201-2.135c.938-.513 1.987-.77 3.148-.77a6.53 6.53 0 0 1 2.412.435 5 5 0 0 1 1.875 1.273l-.787.787c-.916-.926-2.07-1.39-3.466-1.39-.927 0-1.77.212-2.529.637a4.65 4.65 0 0 0-1.783 1.741c-.43.737-.644 1.563-.644 2.478 0 .915.214 1.742.644 2.478a4.65 4.65 0 0 0 1.783 1.742c.76.424 1.602.636 2.529.636 1.406 0 2.562-.469 3.466-1.407l.787.787a5.07 5.07 0 0 1-1.884 1.281 6.477 6.477 0 0 1-2.42.444Zm12.033-11.821c1.496 0 2.668.357 3.516 1.071.849.715 1.273 1.697 1.273 2.947 0 .916-.232 1.689-.695 2.32-.463.63-1.125 1.085-1.984 1.364l2.863 4.019h-1.356l-2.68-3.768c-.3.034-.613.05-.937.05h-3.148v3.718h-1.239V51.093h4.387Zm-.033 1.071H24.63v5.877h3.115c1.16 0 2.048-.256 2.662-.77.614-.513.92-1.233.92-2.16 0-.949-.306-1.677-.92-2.185-.614-.508-1.502-.762-2.662-.762Zm12.301 6.597v4.053h-1.222V58.76l-4.689-7.668h1.323l4.019 6.58 4.018-6.58h1.24l-4.689 7.668Zm11.447-7.668c1.496 0 2.668.357 3.517 1.071.848.715 1.272 1.697 1.272 2.947s-.424 2.23-1.272 2.939c-.849.709-2.02 1.063-3.517 1.063h-3.148v3.7h-1.239v-11.72Zm-.033 1.071h-3.114v5.86h3.114c1.16 0 2.048-.253 2.662-.761.614-.508.921-1.225.921-2.152 0-.949-.307-1.677-.92-2.185-.615-.508-1.502-.762-2.663-.762Zm23.079-1.172c1.16 0 2.207.257 3.14.77a5.7 5.7 0 0 1 2.201 2.135c.536.91.804 1.929.804 3.056 0 1.128-.268 2.146-.804 3.056a5.7 5.7 0 0 1-2.201 2.135c-.933.513-1.98.77-3.14.77-1.161 0-2.213-.26-3.156-.779a5.686 5.686 0 0 1-2.21-2.134c-.53-.905-.796-1.92-.796-3.048 0-1.127.265-2.143.795-3.047a5.686 5.686 0 0 1 2.21-2.135c.944-.52 1.996-.779 3.157-.779Zm-7.63.1v1.072h-4.119v10.65h-1.239v-10.65h-4.119v-1.071h9.477Zm7.63 1.005c-.927 0-1.767.21-2.52.628a4.6 4.6 0 0 0-1.775 1.742c-.43.742-.645 1.57-.645 2.486 0 .915.215 1.744.645 2.487a4.587 4.587 0 0 0 1.775 1.741c.754.419 1.594.628 2.52.628.926 0 1.764-.21 2.512-.628a4.543 4.543 0 0 0 1.758-1.741c.424-.743.636-1.572.636-2.487s-.212-1.744-.636-2.486a4.544 4.544 0 0 0-1.758-1.742c-.748-.418-1.586-.628-2.512-.628Z" fill="#4D4D4D"/></svg>