<svg viewBox="0 0 90 90" xmlns="http://www.w3.org/2000/svg"><g fill="none" fill-rule="evenodd"><path fill="#FFF" d="M0 0h90v90H0z"/><path d="M72.84 45.66c0-2.057-.185-4.035-.527-5.933H45v11.231h15.607c-.685 3.612-2.742 6.67-5.826 8.727v7.302h9.412c5.483-5.062 8.647-12.496 8.647-21.328Z" fill="#4285F4" fill-rule="nonzero"/><path d="M45 74c7.83 0 14.395-2.584 19.193-7.013l-9.412-7.302c-2.584 1.74-5.88 2.794-9.781 2.794-7.54 0-13.946-5.088-16.24-11.943h-9.65v7.488C23.884 67.488 33.665 74 45 74Z" fill="#34A853" fill-rule="nonzero"/><path d="M28.76 50.51c-.58-1.74-.923-3.585-.923-5.51 0-1.925.343-3.77.923-5.51v-7.487h-9.65A28.642 28.642 0 0 0 16 45c0 4.693 1.134 9.095 3.11 12.997l7.515-5.852 2.135-1.635Z" fill="#FBBC05" fill-rule="nonzero"/><path d="M45 27.547c4.27 0 8.067 1.477 11.1 4.324l8.304-8.305C59.368 18.874 52.83 16 45 16c-11.336 0-21.117 6.512-25.89 16.003l9.65 7.487c2.294-6.855 8.7-11.943 16.24-11.943Z" fill="#EA4335" fill-rule="nonzero"/><path d="M16 16h58v58H16z"/></g></svg>