<svg viewBox="0 0 90 90" xmlns="http://www.w3.org/2000/svg"><g fill="none" fill-rule="evenodd"><path fill="#000" fill-rule="nonzero" d="M0 0h90v90H0z"/><path d="M67.901 75h3.543c.821 0 1.513-.705 1.556-1.542v-39.34c0-3.876-3.068-7.003-6.87-7.003h-4.537c-.821 0-1.513-.705-1.513-1.542v-3.569c0-3.876-3.068-7.004-6.87-7.004H23.87C20.068 15 17 18.128 17 22.004V61.52c0 3.832 3.068 6.96 6.87 7.004h34.006c.303 0 .605.088.865.264l8.296 5.948c.26.176.562.264.864.264Zm-8.253-12.07H23.957c-.864 0-1.513-.661-1.513-1.542V22.093c0-.837.692-1.542 1.513-1.542h29.166c.821 0 1.513.705 1.513 1.542v3.48c0 .837-.692 1.542-1.513 1.542H31.39c-.821 0-1.512.704-1.512 1.541v26.212c0 .837.69 1.542 1.512 1.542h27.136c.82 0 1.512-.705 1.512-1.542V34.207c0-.837.691-1.542 1.512-1.542H66c.821 0 1.512.705 1.512 1.542v32.159c0 .793-.864 1.233-1.469.793l-5.53-3.965a1.537 1.537 0 0 0-.865-.264Zm-5.79-12.115H36.056a.735.735 0 0 1-.735-.749V33.414c0-.396.302-.749.735-.749h17.802c.389 0 .735.309.735.75v16.651a.736.736 0 0 1-.735.749Z" fill="#FFF"/></g></svg>