<svg viewBox="0 0 90 90" xmlns="http://www.w3.org/2000/svg"><defs><linearGradient x1="50%" y1="0%" x2="50%" y2="100%" id="a"><stop stop-color="#506879" offset="0%"/><stop stop-color="#2A3137" offset="100%"/></linearGradient></defs><g fill="none" fill-rule="evenodd"><path fill="url(#a)" d="M0 0h90v90H0z"/><path d="M51.25 38.75h12.3c1.7 0 3.25.7 4.35 1.85-2.55-1.15-8 .4-13.5 4-5.25 3.5-8.85 7.9-9.1 10.8a6.75 6.75 0 0 1-.3-2v-8.15c0-3.6 2.8-6.5 6.255-6.5h-.005ZM69.5 42.9c.3.75.5 1.55.5 2.4v7.9c0 3.5-2.8 6.35-6.25 6.35H51.4c-1.7 0-3.25-.7-4.35-1.8 2.6 1 8-.55 13.3-4 5.55-3.6 9.2-8.1 9.1-10.85h.05ZM45 63.35h25V70H45c-13.8 0-25-11.2-25-25s11.2-25 25-25c9.6 0 17.9 5.4 22.1 13.35h-7.95A18.336 18.336 0 0 0 45 26.7c-10.15 0-18.35 8.2-18.35 18.35 0 10.1 8.2 18.35 18.35 18.35v-.05Z" fill="#FFF" fill-rule="nonzero"/></g></svg>