<svg viewBox="0 0 90 90" xmlns="http://www.w3.org/2000/svg"><g fill="none" fill-rule="evenodd"><path fill="#FFF" fill-rule="nonzero" d="M0 0h90v90H0z"/><path d="M51.8 10.67c.53.08.969.446 1.143.948l.05.181 1.715 8.744a26.996 26.996 0 0 1 6.427 3.511l.72.555 8.66-2.937c.557-.24 1.153-.068 1.573.408 2.977 3.316 5.397 7.318 6.8 11.52.217.48.11 1.043-.267 1.412l-.152.125-6.871 5.804c.246 1.298.317 2.701.317 4.066 0 1.1-.047 2.214-.191 3.278l-.126.79 6.87 5.81c.492.347.668.991.42 1.537-1.4 4.206-3.817 8.202-6.797 11.515-.376.426-.887.61-1.389.475l-.188-.064-8.656-2.94a26.448 26.448 0 0 1-6.29 3.722l-.857.344-1.718 8.75a1.44 1.44 0 0 1-1.192 1.129c-2.244.408-4.487.647-6.798.647-2.314 0-4.557-.24-6.8-.647a1.442 1.442 0 0 1-1.146-.948l-.047-.181-1.715-8.75a26.099 26.099 0 0 1-6.518-3.561l-.632-.505-8.656 2.94c-.558.24-1.154.067-1.577-.41-2.98-3.314-5.397-7.31-6.798-11.516a1.257 1.257 0 0 1 .268-1.411l.152-.126 6.868-5.81a22.231 22.231 0 0 1-.317-4.068c0-1.09.044-2.208.188-3.275l.13-.788-6.872-5.807a1.25 1.25 0 0 1-.42-1.537c1.401-4.202 3.818-8.204 6.798-11.52a1.374 1.374 0 0 1 1.389-.473l.19.062 8.657 2.937a25.205 25.205 0 0 1 6.372-3.757l.778-.31 1.715-8.743a1.435 1.435 0 0 1 1.192-1.129 34.95 34.95 0 0 1 13.596 0l.003.003ZM45 24.521c-11.417 0-20.66 9.17-20.66 20.48s9.25 20.48 20.66 20.48 20.66-9.17 20.66-20.48-9.25-20.48-20.663-20.48H45Zm13.076 17.634v-6.096H31.924v6.096h9.963v14.64h6.226v-14.64h9.963Z" fill="#572DD1"/></g></svg>