<svg viewBox="0 0 90 90" xmlns="http://www.w3.org/2000/svg"><g fill="none"><path fill="#FFF" d="M0 0h90v90H0z"/><path fill="#FFE900" d="M78.166 47.593 9 54.958 9.834 63 79 55.635z"/><path d="M42.524 32.507a7.907 7.907 0 0 0-4.434 1.363 8.063 8.063 0 0 0-2.939 3.628 8.184 8.184 0 0 0-.454 4.671 8.119 8.119 0 0 0 2.184 4.14 7.948 7.948 0 0 0 4.086 2.213 7.883 7.883 0 0 0 4.61-.46 8.004 8.004 0 0 0 3.582-2.978 8.161 8.161 0 0 0 1.345-4.492 8.168 8.168 0 0 0-.605-3.095 8.084 8.084 0 0 0-1.73-2.624 7.964 7.964 0 0 0-2.59-1.753 7.882 7.882 0 0 0-3.055-.613Zm0 12.58a4.393 4.393 0 0 1-2.464-.757 4.48 4.48 0 0 1-1.634-2.017 4.548 4.548 0 0 1-.253-2.596 4.512 4.512 0 0 1 1.214-2.3 4.417 4.417 0 0 1 2.27-1.23 4.382 4.382 0 0 1 2.563.256 4.45 4.45 0 0 1 1.99 1.654 4.535 4.535 0 0 1-.552 5.673 4.407 4.407 0 0 1-3.134 1.316Zm25.686-12.58a7.907 7.907 0 0 0-4.434 1.363 8.063 8.063 0 0 0-2.939 3.628 8.184 8.184 0 0 0-.454 4.671 8.118 8.118 0 0 0 2.184 4.14 7.948 7.948 0 0 0 4.086 2.213 7.883 7.883 0 0 0 4.61-.46 8.003 8.003 0 0 0 3.582-2.978 8.16 8.16 0 0 0 1.345-4.492 8.169 8.169 0 0 0-.605-3.095 8.084 8.084 0 0 0-1.73-2.625 7.964 7.964 0 0 0-2.59-1.752 7.88 7.88 0 0 0-3.055-.613Zm0 12.58a4.394 4.394 0 0 1-2.464-.758 4.481 4.481 0 0 1-1.633-2.016 4.547 4.547 0 0 1-.253-2.596 4.512 4.512 0 0 1 1.214-2.3 4.416 4.416 0 0 1 2.27-1.23 4.38 4.38 0 0 1 2.563.256c.81.34 1.503.916 1.99 1.655a4.535 4.535 0 0 1-.552 5.672 4.407 4.407 0 0 1-3.135 1.316Z" fill="#000"/><path fill="#000" d="M63.346 32.04v-3.595H47.383v3.594h6.208v16.209h3.547V32.039zm-42.39 4.492v3.594h4.9c-1.132 3.012-3.29 4.96-5.79 4.96a6.582 6.582 0 0 1-3.131-.802 6.683 6.683 0 0 1-2.39-2.202 6.818 6.818 0 0 1-.605-6.319 6.732 6.732 0 0 1 1.927-2.626 6.613 6.613 0 0 1 2.921-1.397 6.567 6.567 0 0 1 3.226.162c1.046.322 1.997.9 2.77 1.683l2.52-2.553a10.16 10.16 0 0 0-5.22-2.832 10.08 10.08 0 0 0-5.895.584 10.229 10.229 0 0 0-4.58 3.804 10.43 10.43 0 0 0-1.721 5.74 10.353 10.353 0 0 0 .767 3.952 10.245 10.245 0 0 0 2.213 3.345 10.194 10.194 0 0 0 3.3 2.253 10.08 10.08 0 0 0 3.9.801c3.475 0 6.599-2.266 8.443-5.864v5.433h3.548V36.532H20.956Z"/></g></svg>