<svg viewBox="0 0 90 90" xmlns="http://www.w3.org/2000/svg"><g fill="none" fill-rule="evenodd"><path d="M5 31h80v29H5z"/><g fill-rule="nonzero"><path d="M13.76 49.16c1.895 0 3.405-1.6 3.405-3.968a3.377 3.377 0 0 0-3.404-3.642c-1.98 0-3.017 1.748-3.017 3.85-.002 2.4 1.418 3.76 3.017 3.76Zm8.551 2.28c0 6.337-3.074 8.38-9.29 8.38a17.953 17.953 0 0 1-5.887-.977l.265-4.206a10.585 10.585 0 0 0 5.209 1.274c3.078 0 4.734-1.45 4.734-4.47v-.832h-.06a6.006 6.006 0 0 1-5.178 2.636c-4.232 0-6.863-3.197-6.863-7.761 0-4.592 2.158-8.025 6.952-8.025a6.018 6.018 0 0 1 5.236 3.14h.061v-2.78h4.821V51.44Z" fill="#2864AE"/><path fill="#48AD45" d="M43.782 53.227h5.925l5.571-15.333h-5.175l-3.142 10.923h-.058l-3.117-10.923H38.2l5.582 15.333z"/><path d="M34.74 45.564c0-2.294-1-4.324-3.44-4.324s-3.439 2.03-3.439 4.324c0 2.266 1 4.296 3.438 4.296 2.439 0 3.44-2.03 3.44-4.296Zm-12.345 0c0-5.09 3.848-8.028 8.904-8.028s8.905 2.942 8.905 8.028c0 5.06-3.849 8.001-8.905 8.001-5.056 0-8.904-2.94-8.904-8Z" fill="#FABD14"/><path d="M55.877 51.06a2.513 2.513 0 1 1-5.023-.002 2.512 2.512 0 0 1 5.024-.003v.005Zm9.005-9.452c-1.94 0-3.234 1.704-3.234 4 0 2.236 1.471 3.915 3.234 3.915 1.999 0 3.205-1.679 3.205-4.121 0-2.029-1.147-3.794-3.205-3.794ZM56.357 31.16h5.323v8.711h.06a6.242 6.242 0 0 1 5.263-2.323c4.234 0 6.553 4.03 6.553 7.738 0 4.53-2.438 8.3-6.997 8.3a5.66 5.66 0 0 1-5.262-3.09h-.06v2.738h-4.883V31.163h.003v-.002Z" fill="#2864AE"/><path d="M84.49 42.138a6.109 6.109 0 0 0-1.793-.176c-2.469 0-3.848 1.795-3.848 4.796v6.475h-5.294v-15.34h4.825v2.827h.06a4.724 4.724 0 0 1 4.526-3.177c.602.01 1.201.069 1.793.175l-.268 4.42Z" fill="#FABD14"/></g></g></svg>