<svg xmlns="http://www.w3.org/2000/svg" viewBox="0 0 90 90"><g fill="none" fill-rule="evenodd"><rect width="90" height="90" fill="#000"/><path fill="#FFF" d="M13.2492773,16.04375 C15.1049924,16.840625 17.3318505,15.9375 18.0741365,14.078125 C18.869443,12.165625 17.9680956,9.934375 16.0063397,9.190625 C14.0976042,8.446875 11.976787,9.35 11.1814806,11.2625 C10.4391945,13.121875 11.3405419,15.246875 13.2492773,16.04375 Z M4.7660085,20.984375 C6.67474399,21.78125 8.90160206,20.878125 9.64388809,19.01875 C10.4391945,17.10625 9.53784723,14.875 7.57609131,14.184375 C5.66735582,13.3875 3.54653861,14.290625 2.75123215,16.203125 C2.00894613,18.0625 2.91029345,20.1875 4.7660085,20.984375 Z M2.32706871,30.3875 C4.18278377,31.184375 6.40964184,30.28125 7.15192787,28.36875 C7.94723432,26.45625 7.045887,24.278125 5.08413109,23.534375 C3.22841603,22.7375 1.05457839,23.69375 0.259271933,25.553125 C-0.483014091,27.4125 0.418333223,29.590625 2.32706871,30.3875 Z M22.6338935,19.01875 C24.4896086,19.815625 26.7164666,18.9125 27.4587527,17 C28.2540591,15.0875 27.3527118,12.909375 25.3909559,12.165625 C23.4822204,11.36875 21.3614032,12.325 20.5660967,14.184375 C19.8768311,16.096875 20.7781784,18.275 22.6338935,19.01875 Z M56.7790506,16.04375 C54.8703151,16.840625 52.643457,15.9375 51.9541914,14.078125 C51.158885,12.165625 52.0602323,9.934375 53.9689678,9.190625 C55.8777033,8.446875 58.0515409,9.35 58.8468474,11.2625 C59.536113,13.121875 58.6347656,15.246875 56.7790506,16.04375 Z M65.209299,20.984375 C63.3005635,21.78125 61.1267259,20.878125 60.3844398,19.01875 C59.5891334,17.10625 60.4904807,14.875 62.3461958,14.184375 C64.2549312,13.3875 66.4287689,14.290625 67.2240753,16.203125 C68.0193818,18.0625 67.065014,20.1875 65.209299,20.984375 L65.209299,20.984375 Z M67.7012592,30.3875 C65.7925237,31.184375 63.5656657,30.28125 62.8233796,28.36875 C62.0280732,26.45625 62.9294205,24.278125 64.8911764,23.534375 C66.7999119,22.7375 68.9737495,23.69375 69.769056,25.553125 C70.4583216,27.4125 69.5569743,29.590625 67.7012592,30.3875 L67.7012592,30.3875 Z M47.341414,19.01875 C45.4326785,19.815625 43.2058204,18.9125 42.4635344,17 C41.7212484,15.0875 42.5695753,12.909375 44.5313312,12.165625 C46.4400667,11.36875 48.6139043,12.325 49.4092108,14.184375 C50.1514968,16.096875 49.2501495,18.275 47.341414,19.01875 Z M36.9494097,9.403125 L41.668228,11.9 L41.668228,4.940625 L36.9494097,6.428125 C36.8433688,6.26875 36.6843075,6.109375 36.4722258,5.95 L38.3809613,0 L31.5943462,0 L33.4500613,5.95 C33.291,6.109375 33.1319387,6.215625 32.9728774,6.428125 L28.3070795,4.940625 L28.3070795,11.9 L32.9728774,9.403125 C33.1319387,9.5625 33.291,9.775 33.4500613,9.88125 L30.7990398,18.0625 L30.7990398,18.115625 C30.6929989,18.540625 30.586958,18.965625 30.586958,19.390625 C30.586958,21.56875 32.2305914,23.375 34.2983882,23.69375 L34.404429,23.69375 C34.5634903,23.69375 34.775572,23.746875 34.9346333,23.746875 C35.146715,23.746875 35.3057763,23.746875 35.4648376,23.69375 L35.5708785,23.69375 C37.6916957,23.375 39.335329,21.515625 39.335329,19.390625 C39.335329,18.965625 39.2823086,18.4875 39.1232473,18.115625 L39.1232473,18.0625 L36.4192054,9.88125 C36.6312871,9.775 36.7903484,9.5625 36.9494097,9.403125 Z M34.9876537,49.3 C43.9481065,49.3 52.3783549,49.884375 59.9602764,51 C62.0810936,42.021875 64.6790947,36.815625 67.3831366,33.203125 L62.2931753,31.396875 C62.8233796,34 62.8764001,35.221875 62.2931753,36.815625 C61.4978689,36.071875 60.7025624,34.53125 60.0663173,32.19375 L57.574357,40.375 C59.0589291,39.3125 60.2253785,38.675 61.5508893,38.621875 C59.2179904,43.615625 56.2488463,44.94375 54.3401108,44.571875 C52.0602323,44.146875 50.9998237,42.128125 51.3709667,40.375 C51.901171,37.878125 54.3931312,37.240625 55.6126011,40.109375 C57.8924796,35.4875 54.0219882,34.053125 51.5830484,35.434375 C55.347499,31.609375 55.7716624,28.2625 52.6964775,24.225 C48.454843,27.465625 48.4018226,30.759375 50.3105581,35.275 C47.8185979,32.40625 43.895086,33.946875 45.2736172,38.56875 C47.0763118,35.80625 49.4622312,37.50625 49.0910882,40.215625 C48.7729656,42.5 45.6977807,44.359375 41.9333301,44.040625 C36.4722258,43.5625 36.1541032,39.790625 35.9950419,36.709375 C37.3205527,36.44375 39.7594925,37.665625 41.8272892,40.5875 L42.5165548,31.875 C40.3427172,34.2125 38.2749204,34.690625 35.9950419,34.74375 C36.7373279,32.40625 40.2366763,28.58125 40.2366763,28.58125 L29.4205086,28.58125 C29.4205086,28.58125 32.8138161,32.40625 33.6091226,34.74375 C31.3822645,34.690625 29.3674881,34.2125 27.0876096,31.875 L27.8298957,40.5875 C29.8976924,37.665625 32.3366322,36.496875 33.6091226,36.709375 C33.4500613,39.790625 33.1319387,43.509375 27.7238548,44.040625 C23.9063838,44.359375 20.8842193,42.5 20.5660967,40.215625 C20.1949537,37.559375 22.5808731,35.80625 24.3305473,38.56875 C25.7620989,33.946875 21.8916075,32.40625 19.3466268,35.275 C21.3083827,30.759375 21.2553623,27.465625 16.907687,24.225 C13.8325021,28.2625 14.2566655,31.609375 18.0741365,35.434375 C15.5821763,34.053125 11.7647053,35.4875 13.9915634,40.109375 C15.2110333,37.1875 17.7560139,37.878125 18.2862182,40.375 C18.6573612,42.128125 17.5969526,44.146875 15.2640537,44.571875 C13.4083386,44.94375 10.492215,43.615625 8.10629561,38.621875 C9.43180637,38.675 10.5982558,39.3125 12.0828279,40.375 L9.59086766,32.19375 C8.95462249,34.53125 8.15931604,36.01875 7.31098916,36.815625 C6.72776442,35.221875 6.83380528,34 7.31098916,31.396875 L2.27404828,33.203125 C4.92506979,36.86875 7.52307088,42.075 9.69690852,51 C17.5439322,49.884375 26.027201,49.3 34.9876537,49.3 Z" transform="translate(10 20)"/></g></svg>