<svg viewBox="0 0 90 90" xmlns="http://www.w3.org/2000/svg"><g fill="none"><path fill="#091D31" d="M0 0h90v90H0z"/><path d="M12.981 39.361c0-3.086-.047-9.063-.288-11.379l7.022-.482 15.54 19.092V39.6c0-3.084-.095-9.302-.385-11.617 1.924 0 8.13-.048 9.765-.24-.19 1.398-.24 5.253-.24 7.134v20.104c0 1.878-.095 5.686.095 7.038l-6.83.482-15.681-19.187V54.93c0 1.833.047 5.595.19 6.943H12.5c.24-2.312.386-8.484.386-11.617l.095-10.895ZM61.08 54.128h5.344c3.583 0 8.114-.047 10.501-.145a123.456 123.456 0 0 0-.38 7.788c-2.959-.193-8.544-.24-13.462-.24-5.633 0-10.788.047-14.461.24l-.336-5.287 16.279-21.341h-4.679c-4.057 0-7.637.047-10.693.095.287-2.163.576-5.335.764-7.738 5.059.145 7.017.24 13.748.24 6.157 0 9.882-.095 13.365-.24l.43 5.094-16.42 21.534Z" fill="#F4F6F8"/></g></svg>