<svg viewBox="0 0 90 90" xmlns="http://www.w3.org/2000/svg"><defs><linearGradient x1="35.354%" y1="35.4%" x2="109.045%" y2="-38.481%" id="a"><stop stop-color="#FFF" stop-opacity="0" offset="0%"/><stop stop-color="#FFF" stop-opacity="0" offset="1%"/><stop stop-color="#FFF" offset="60%"/><stop stop-color="#FFF" offset="100%"/></linearGradient></defs><g fill="none"><path d="M90 45c0 24.848-20.147 44.995-45 44.995S0 69.848 0 45C0 20.147 20.147 0 45 0c24.859.005 45 20.152 45 45Z" fill="#68C0B4"/><path d="M78.026 44.995C77.72 63.2 62.904 78.005 45 78.005c-18.206 0-33.01-14.81-33.01-33.01 0-18.2 14.804-33.005 33.01-33.005 13.769 0 26.223 8.68 30.978 21.597a1.334 1.334 0 0 0 2.458.1 1.32 1.32 0 0 0 .038-1.017C73.33 18.713 59.88 9.332 45 9.332 25.328 9.332 9.332 25.333 9.332 45c0 19.667 15.996 35.668 35.668 35.668 19.36 0 35.371-15.99 35.684-35.646V45h-2.658v-.005Z" fill="#FFF"/><path d="M44.558 80.673c19.661-.048 35.592-16 35.592-35.684H44.558v35.684Z" fill="url(#a)"/><path d="M45.01 69.907c-13.736 0-24.917-11.176-24.917-24.912 0-13.742 11.176-24.918 24.918-24.918 13.742 0 24.918 11.176 24.918 24.918 0 13.736-11.176 24.912-24.918 24.912Zm0-48.876c-13.208 0-23.958 10.75-23.958 23.958 0 13.209 10.75 23.959 23.959 23.959 13.214 0 23.958-10.745 23.958-23.953 0-13.214-10.744-23.964-23.958-23.964Z" fill="#FFF"/><path d="M45.01 60.403c-8.496 0-15.413-6.912-15.413-15.414 0-8.496 6.917-15.413 15.414-15.413 8.502 0 15.413 6.917 15.413 15.413.005 8.497-6.911 15.414-15.413 15.414Zm0-29.867c-7.967 0-14.453 6.485-14.453 14.453 0 7.968 6.486 14.454 14.454 14.454 7.968 0 14.453-6.486 14.453-14.454.006-7.968-6.48-14.453-14.453-14.453Z" fill="#FFF"/><path d="M45 0c24.853 0 45 20.147 45 45S69.853 90 45 90 0 69.853 0 45 20.147 0 45 0Zm-.07 1.936c-23.748 0-43 19.252-43 43s19.252 43 43 43c23.749 0 43-19.252 43-43s-19.251-43-43-43Z" fill="#024F6E"/></g></svg>