<svg viewBox="0 0 90 90" xmlns="http://www.w3.org/2000/svg"><defs><linearGradient x1="79.52%" y1="83.777%" x2="-21.293%" y2="4.99%" id="a"><stop stop-color="#3C16D3" offset="0%"/><stop stop-color="#1271FF" offset="44.3%"/><stop stop-color="#2CF2FF" offset="99%"/></linearGradient></defs><g fill="none" fill-rule="evenodd"><path fill="url(#a)" d="M0 0h90v90H0z"/><path d="M60.615 15h-31.23C21.993 15 16 20.977 16 28.348v31.146c0 7.372 5.993 13.348 13.385 13.349h6.735c1.943 0 2.824.162 3.746.692 1.015.583 1.58 2.117 2.141 3.643C42.714 79.094 43.416 81 45 81c1.524 0 2.232-1.783 2.965-3.63.636-1.605 1.292-3.258 2.516-3.835.992-.467 1.735-.692 3.47-.692h6.665C68.007 72.842 74 66.866 74 59.494V28.348C74 20.977 68.007 15.001 60.615 15ZM44.93 62.991a23.969 23.969 0 0 1-19.874-10.538 2.44 2.44 0 0 1-.172-2.44 2.455 2.455 0 0 1 4.239-.297 19.084 19.084 0 0 0 15.807 8.381 19.095 19.095 0 0 0 15.816-8.387 2.455 2.455 0 0 1 4.262.278 2.44 2.44 0 0 1-.195 2.458A23.98 23.98 0 0 1 44.93 62.991Zm11.158-34.244v4.448h-4.46v4.45h4.46v4.448h-4.46v4.45h-4.462v-4.45h-4.462v4.45h-4.46v-4.45H33.78v-4.448h4.462v-4.45H33.78v-4.448h4.462v-4.453h4.46v4.448h4.463v-4.445h4.462v4.448h4.46v.002Zm-13.384 8.898h4.462v-4.45h-4.462v4.45Z" fill="#FFF"/></g></svg>