<svg viewBox="0 0 90 90" xmlns="http://www.w3.org/2000/svg"><g fill="none"><path fill="#00538E" d="M.167 0H90v90H.167z"/><path d="M54.49 66.393c0 6.314-4.957 8.95-10.677 8.768-2.03-.066-4.007-.58-6.16-1.282l.488-4.546c1.823.75 4.185 1.564 6.164 1.533 2.584-.04 5.167-1.24 5.167-4.232 0-2.304-1.845-3.438-3.63-4.341-3.945-2.002-8.482-3.391-8.482-8.983 0-5.286 4.204-8.043 9.415-8.043 1.894 0 4.156.33 6.426 1.134l-.68 4.476c-2.472-.97-3.552-1.313-5.583-1.313-2.248 0-4.558.79-4.558 3.383 0 2.027 2.08 3.08 3.626 3.851 4.191 2.091 8.485 3.809 8.485 9.595m-23.531 7.41c-1.818.623-4.603 1.358-9.046 1.358-9.119 0-15.222-5.894-15.222-15.069 0-8.902 6.479-14.826 15.262-14.826 4.172 0 6.031.62 8.667 1.529l-.397 4.986c-2.425-1.585-4.49-2.219-8.067-2.219-6.282 0-10.475 4.546-10.445 10.65.03 6.57 4.594 10.654 10.242 10.654 1.684 0 3.116-.123 4.144-.393v-7.484h-5.432V58.77H30.96v15.032m39.722-29.17 6.926 15.432h-4.826l-2.1-5.128-2.104 5.128h-4.825l6.929-15.432m7.005 15.612 6.447 14.409h-5.066l-4.819-11.188 3.438-3.22m-14.013.002 3.437 3.219-2.54 5.804 6.101-3.199 3.512 2.705-12.012 5.878h-4.945l6.447-14.407" fill="#FFF"/></g></svg>