<svg xmlns="http://www.w3.org/2000/svg" viewBox="0 0 90 90"><path fill="#FFF" d="M0 0h90v90H0z"/><path fill="#183256" d="M55.62 24.15A9.83 9.83 0 0159.7 16C46.58 17.63 15.2 24.66 15 49.22c0 0 1.89-18.48 42.66-19.2l-.08-.15a9.81 9.81 0 01-1.96-5.72"/><path fill="#076EA1" d="M52.62 45.33a13.95 13.95 0 01-13.21 18.35A13.95 13.95 0 0125.5 49.69a14.1 14.1 0 0112.57-14.07l.07-.01.02-.01c-8.53-.02-21.71 7.22-21.71 19.72 0 10.16 9.97 19.45 23.15 19.68a24.48 24.48 0 0024.28-29.67H52.62z"/><path fill="#0E1622" d="M52.6 45.32a14 14 0 01.71 4.35l.11-.03c1.92-.48 3.78-.74 5.36-.74 2.63 0 4.33.6 5.2 1.81l.42.6.02-.39c.03-1.88-.16-3.76-.56-5.6H52.6z"/><path fill="#183256" d="M43.65 36.81a10.75 10.75 0 015.92 10.98c6.8-2.5 18.04-3.78 18.04 5.86 0 5.1-2.6 9.24-6.16 12.5a27.11 27.11 0 01-3.99 4.37C66.5 66.32 75 60.32 75 51.28c0-17.08-18.35-17.42-31.35-14.47"/></svg>