<svg viewBox="0 0 90 90" xmlns="http://www.w3.org/2000/svg"><g transform="translate(1 1)" fill="none"><circle fill="#000" cx="45" cy="45" r="45"/><path d="M18.354 24.697c-5.884 3.03-9.45 6.828-9.45 10.268 0 1.349-.34 5.621 1.123 7.025.137 2.035.362 3.953.69 5.764 3.223 4.124 16.716 11.632 34.12 11.632 17.066 0 30.708-7.083 34.323-11.22a50.565 50.565 0 0 0 1.048-5.842c1.023-1.521.92-4.826.92-7.36 0-2.554-2.141-5.098-3.633-5.892-.569.404-1.414 1.092-2 1.473.84 1.122 1.087 2.563 1.138 3.956 0 4.328-3.682 8.085-9.374 10.757-5.69 2.674-13.508 4.349-22.116 4.349-8.607 0-16.374-1.675-22.065-4.35-5.692-2.672-9.372-6.428-9.372-10.756 0-2.47 1.492-4.133 3.013-6.356.296-.433.5-1.152.79-1.905a6.289 6.289 0 0 1 .845-1.543Zm-4.828 32.141C19.314 69.37 31.449 74.03 45.731 74.03c13.063 0 23.926-5.313 29.905-16.444-4.59 4.437-16.266 9.366-30.774 9.366-15.064 0-27.374-5.63-31.336-10.113Z" fill="#FFF"/><path d="M67.416 15.985c-.103.012-.162.03-.175.044-.58.6-1.352 1.91-2.137 3.598-.747 1.605-1.495 3.59-2.203 5.648.185.074.355.122.567.197.32.114.667.266.982.61.343.377.46.832.567 1.178.106.346.19.619.457.83.123.095.433.241.742.413.31.173.648.369.851.72.21.367.53.892.741 1.44.928-.509 3.127-1.687 5.431-3.185 1.213-.788 2.423-1.624 3.358-2.464.937-.84 1.583-1.693 1.79-2.356.028-.088.02-.287-.198-.61a6.608 6.608 0 0 0-1.067-1.156c-.944-.83-2.296-1.752-3.709-2.574-1.412-.82-2.876-1.54-4.056-1.963a7.001 7.001 0 0 0-1.505-.37 1.86 1.86 0 0 0-.436 0Z" fill="#E4C548"/><path d="M45.33 17.027c-.09 0-.179.004-.267.015-1.948.246-3.434.44-3.81.738-1.888 1.493-4.093 2.062-6.258 1.85-.797-.079-3.248.408-4.327.862-.91.383-2.155 2.204-4.234 3.545-.941.606-1.968.993-2.855 1.38-.871.38-1.75.827-1.928.971-.185.15-.35.419-.564.973-.204.523-.41 1.407-1.051 2.336-.777 1.126-1.434 1.991-1.85 2.713-.417.722-.597 1.268-.597 1.897 0 2.61 2.507 5.586 7.512 7.92 5.01 2.335 12.156 3.857 20.103 3.857 7.948 0 15.157-1.522 20.167-3.858 5.008-2.334 7.495-5.323 7.495-7.918 0-.812-.078-1.07-.407-1.976-.042-.115-.138-.295-.189-.424-1.32.758-2.642 1.51-3.967 2.258-.005.003-.027-.003-.032 0l-.47.283-1.976 1.191c-.267-1.016-.148-2.298-.643-3.183-.109-.18-.243-.47-.408-.737-.103-.05-.212-.087-.282-.125a8.54 8.54 0 0 1-1.113-.737c-.848-.665-1.141-1.568-1.286-2.039-.083-.268-.155-.403-.172-.455-.019 0-.037-.01-.141-.047-1.113-.358-1.81-.82-2.76-1.474l.407-1.145.095-.235c.005-.014-.005-.032 0-.047.473-1.394 1.011-2.648 1.52-3.905-1.748-1.041-2.733-2.216-3.638-2.54-1.19-.427-3.884-.391-6.162-.501-1.58-.077-2.843-.602-3.827-.957-.744-.27-1.333-.438-1.835-.47-.074-.006-.162-.015-.25-.016Z" fill="#598D36"/></g></svg>