<svg viewBox="0 0 90 90" xmlns="http://www.w3.org/2000/svg"><g fill="none"><path fill="#0540A9" d="M0 0h90v90H0z"/><path d="M36.328 33.516v17.343c1.355 0 2.398.192 3.047-1.172.825.537 1.583 1.15 2.578 1.33 5.533.998 7.023-5.98 5.281-10.001-.95-2.193-3.208-3.33-5.515-2.58-.954.31-1.598 1.016-2.344 1.642.277-2.188.234-4.358.234-6.562h-3.28m-26.25 12.656c-1.88 1.004-1.75 2.507-.47 3.984-2.547.665-3.56 3.77-1.161 5.398 3.444 2.336 12.22.797 10.88-4.694-.655-2.687-3.788-2.55-5.969-2.58-.467-.006-2.13-.009-1.794-.906.31-.825 2.891-.615 3.67-.874 2.892-.962 3.106-3.392 2.578-5.953 1.45-.201 1.857-.654 1.875-2.11-1.4 0-2.823.075-4.22-.02-1.772-.122-3.443-.43-5.155.286-3.397 1.42-2.64 5.62-.235 7.469m11.25-7.734c0 3.218-.736 7.514.503 10.545 1.34 3.283 5.884 2.31 7.935.47.567 1.572 1.549 1.406 3.047 1.406V38.437H29.53c0 2.503.562 5.842-.405 8.203-.494 1.207-2.06 2.34-3.314 1.466-.947-.66-.963-1.833-.968-2.872-.011-2.265 0-4.531 0-6.797h-3.516m35.39 0v6.797c0 1.337-.122 2.763.535 3.984 1.304 2.425 6.065 2.73 7.434.235h.47c.435 1.615 1.604 1.406 3.046 1.406V38.437h-3.516c0 2.437.546 5.634-.188 7.97-.36 1.145-1.54 2.375-2.855 1.925-1-.342-1.477-1.42-1.6-2.395-.308-2.43-.044-5.05-.044-7.5h-3.281m13.125 0c.7 2.959 2.2 5.851 3.328 8.672.452 1.13 1.296 2.518 1.327 3.75.056 2.287-2.177 2.812-3.952 2.813v2.578c1.917.356 3.899.245 5.369-1.196 1.45-1.423 1.943-3.52 2.645-5.367 1.42-3.733 2.893-7.466 4.173-11.25h-3.75c-.703 3.042-2.434 5.993-2.578 9.141-1.002-2.955-2.108-6.099-2.812-9.14h-3.75m-57.412 2.016c2.511-.97 3.537 3.251 1.372 4.137-2.505 1.024-3.579-3.285-1.372-4.137m28.822.663c3.872-1.072 4.228 6.596 1.167 7.288-3.435.776-3.95-6.517-1.167-7.288m9.656 6.635c-2.122.961-.321 4.26 1.8 3.339 2.413-1.05.576-4.416-1.8-3.339m-39.425 3.443c1.014-.282 3.258-.374 4.183.175 1.41.837.176 2.265-.903 2.619-1.152.377-2.886.612-3.949-.104-1.217-.82-.569-2.345.67-2.69Z" fill="#FFF"/></g></svg>