<svg viewBox="0 0 90 90" xmlns="http://www.w3.org/2000/svg"><g fill="none"><path fill="#150A46" d="M0 0h90v90H0z"/><path d="M53.393 20.063C51.49 16.875 48.258 15 43.693 15 35.135 15 30 21.75 30 31.125S35.135 47.25 43.693 47.25c1.522 0 3.233-.188 4.565-.75 1.521-.563 2.852-1.5 3.803-2.625v4.5c0 3-1.711 6.75-6.846 6.75-3.994 0-5.896-2.25-6.657-4.5L31.521 54c1.902 4.125 6.086 7.875 14.264 7.875 11.982 0 15.215-8.063 15.215-15v-31.5h-7.417l-.19 4.688Zm-7.798 19.875c-4.374 0-6.847-3.376-6.847-8.813 0-5.438 2.473-8.813 6.847-8.813 4.374 0 6.847 3.375 6.847 8.813 0 5.25-2.473 8.813-6.847 8.813ZM61 64.311V75H30.19v-6.375h24.534v-4.313H61Z" fill="#FFF"/></g></svg>