<svg xmlns="http://www.w3.org/2000/svg" viewBox="0 0 90 90"><path fill="#FFF" d="M0 0h90v90H0z"/><path d="M48.489 38.822H37.943c-3.748 0-5.886.558-5.886 5.63v5.08c0 3.456 1.024 5.605 4.699 5.605h2.99c3.295 0 4.068-1.257 4.068-3.95v-4.979c0-1.73 1.422-3.148 3.164-3.148h6.42c1.738 0 3.163 1.418 3.163 3.148v4.637c0 4.28 3.35 3.947 6.235 3.947h7.66c2.5 0 4.544 2.034 4.544 4.519v9.17C75 70.964 72.955 73 70.457 73H61.24c-2.5 0-4.543-2.034-4.543-4.52v-7.512c0-3.313-.72-5.228-4.91-5.228h-2.48c-2.955 0-4.908.81-4.908 4.391v4.69c0 1.76-1.446 3.196-3.214 3.196h-6.517c-1.769 0-3.214-1.436-3.214-3.196v-4.373c0-4.115-2.157-5.189-6.182-5.189h-6.04C16.905 55.257 15 53.363 15 51.045V42.5c0-2.315 1.906-4.212 4.232-4.212h6.525c4.87 0 5.914-1.722 5.914-5.845v-10.35c0-2.25 1.85-4.093 4.114-4.093h12.704c2.262 0 4.113 1.842 4.113 4.092V34.73c0 2.25-1.851 4.092-4.113 4.092" fill="#00ADEE"/></svg>