<svg xmlns="http://www.w3.org/2000/svg" viewBox="0 0 90 90"><g fill="none" fill-rule="evenodd"><path fill="#0F1927" d="M0 0h90v90H0z"/><path d="M70 31.86a2.1 2.1 0 00-.55-1.48l-.19-.19s-.18 0-.18-.18L46 16.87h-.18c-.18-.37-.55-.37-.92-.37-.19 0-.37 0-.56.19-.18 0-.18.18-.36.18L21.1 30.01c-.37.18-.56.37-.56.37a2.1 2.1 0 00-.55 1.48v26.46c0 .74.37 1.49 1.1 1.86L44 73.3h.18c.18 0 .18.19.37.19h.74c.18 0 .18 0 .37-.19h.18l22.88-13.13a2.04 2.04 0 001.1-1.86L70 31.86zm-40.96-.92l15.5-8.89c.37-.18.74-.18.92 0l15.5 9.07c.74.19.74 1.3 0 1.67l-15.5 9.06c-.37.19-.74.19-.92 0l-15.5-9.06c-.74-.37-.74-1.48 0-1.85zm13.28 34.23c0 .74-.73 1.3-1.47.93l-15.5-9.07c-.37-.19-.55-.56-.55-.74V38.34c0-.74.74-1.3 1.47-.93l15.5 9.07c.37.19.55.56.55.93v17.76zM65.2 56.3c0 .37-.18.74-.55.92l-15.5 9.07c-.74.37-1.47-.18-1.47-.92V47.4c0-.37.18-.74.55-.93l15.5-9.07c.73-.37 1.47.19 1.47.93v17.95z" fill="#9FEF00" fill-rule="nonzero"/></g></svg>