<svg xmlns="http://www.w3.org/2000/svg" viewBox="0 0 90 90"><path d="M0 0h90v90H0z"/><path fill="#FFF" d="M33.82 17c1.03 0 1.93.28 2.71.83.78.55 1.18 1.15 1.18 1.8v51.8c0 .76-.38 1.37-1.14 1.86-.76.47-1.68.71-2.75.71a4.88 4.88 0 01-2.75-.71c-.71-.48-1.07-1.1-1.07-1.86v-51.8c0-.65.37-1.24 1.1-1.8a4.36 4.36 0 012.72-.83zm22.22 20.27c1.13 0 2.07.23 2.82.71.76.47 1.14 1.08 1.14 1.84v31.24c0 .65-.4 1.25-1.18 1.8-.78.56-1.7.83-2.78.83a4.18 4.18 0 01-2.68-.83c-.72-.55-1.07-1.15-1.07-1.8V47.82l-4.08 2.6c-.46.44-1.16.56-2.08.35a4.73 4.73 0 01-2.49-1.56 4.47 4.47 0 01-1.22-2.59c-.08-.92.12-1.59.58-2.03l10.32-6.6c.69-.49 1.6-.72 2.72-.72z"/></svg>