<svg viewBox="0 0 90 90" xmlns="http://www.w3.org/2000/svg"><g fill="none"><path fill="#2C2B30" d="M0 0h90v90H0z"/><path d="M55.497 23a3.353 3.353 0 0 0-3.35 3.357V38.56H37.562l-1.844-5.81c-.216-.678-1.215-.523-1.215.19v8.977h20.994v-14.63a.93.93 0 0 1 .929-.93h4.296a.93.93 0 0 1 .928.93v36.356h-9.72l-3.274-8.101h-3.35L49.936 67H65V26.357C65 24.503 63.5 23 61.65 23h-6.153Z" fill="#07F81C"/><path d="M54.282 57.249c.216.678 1.215.523 1.215-.189v-8.977H34.503v14.63a.93.93 0 0 1-.929.93h-4.296a.93.93 0 0 1-.928-.93V26.357h9.824l3.274 8.101h3.35L40.167 23H25v40.643C25 65.497 26.5 67 28.35 67h6.153c1.85 0 3.35-1.503 3.35-3.357V51.44h14.585l1.844 5.81Z" fill="#03B6FA"/></g></svg>