<svg xmlns="http://www.w3.org/2000/svg" viewBox="0 0 90 90"><path fill="#0E0793" d="M0 0h90v90H0z"/><path d="M42.77 48.445c-.442 0-.836-.39-.836-.83v-5.23c0-.244.099-.44.246-.586a.91.91 0 0 1 .59-.244h18.197c.394 0 .689.39.689.83v5.23c0 .44-.295.83-.689.83H42.77Z" fill="#FFF"/><path d="M8.836 48.445c-.443 0-.836-.39-.836-.83v-5.23c0-.244.098-.44.246-.586a.91.91 0 0 1 .59-.244h18.197c.393 0 .688.39.688.83v5.23c0 .44-.295.83-.688.83H8.836Z" fill="#ECBCFA"/><path d="M32.492 72c-.443 0-.836-.293-.836-.684V53.234c0-.44.393-.83.836-.83h5.262c.443 0 .836.39.836.83v18.082c0 .39-.393.684-.836.684h-5.262Z" fill="#2E52FF"/><path d="M32.443 37.596c-.443 0-.836-.39-.836-.83V18.684c0-.39.344-.684.836-.684h5.262c.443 0 .836.293.836.684v18.033c0 .44-.393.83-.836.83l-5.262.05Z" fill="#EC6B65"/><path d="M67.902 72c-.443 0-.836-.391-.836-.83V18.976c0-.44.393-.83.836-.83h5.262c.443 0 .836.39.836.83V71.17c0 .44-.393.831-.836.831h-5.262Z" fill="#FFF"/></svg>