<?xml version="1.0" encoding="UTF-8"?>
<svg width="90px" height="90px" viewBox="0 0 90 90" version="1.1" xmlns="http://www.w3.org/2000/svg" xmlns:xlink="http://www.w3.org/1999/xlink">
    <title>hangouts.google.com</title>
    <defs>
        <linearGradient x1="34.6703427%" y1="23.402022%" x2="81.0509075%" y2="64.940613%" id="linearGradient-1">
            <stop stop-color="#263238" offset="0%"></stop>
            <stop stop-color="#000000" stop-opacity="0" offset="100%"></stop>
        </linearGradient>
    </defs>
    <g id="hangouts.google" stroke="none" stroke-width="1" fill="none" fill-rule="evenodd">
        <rect id="Rectangle" fill="#000000" fill-rule="nonzero" opacity="0" x="0" y="0" width="90" height="90"></rect>
        <g id="Hangouts_icon" transform="translate(8.000000, 0.000000)" fill-rule="nonzero">
            <path d="M77.7567056,38.8627327 C77.7567056,17.4007573 60.3247081,0 38.8627327,0 C17.4007573,0 0,17.4007573 0,38.8627327 C0,59.1943831 18.5310824,75.6806564 38.8627327,75.6806564 L38.8627327,90 C62.4774377,78.0236668 77.7567056,58.7513411 77.7567056,38.8627327 Z" id="Path" fill="#0F9D58"></path>
            <path d="M58.2940991,28.6358473 L47.0448091,39.8851373 L35.7955191,28.6358473 L19.4313664,45 L54.4998422,80.0684759 C66.3029347,70.7447144 74.2947302,59.2682234 76.8592616,47.2010098 L58.2940991,28.6358473 Z" id="Path" fill="url(#linearGradient-1)" opacity="0.2"></path>
            <path d="M41.9327864,28.6358473 L41.9327864,45 L51.1372673,45 L51.1372673,54.2044809 C55.1502051,54.2044809 58.2969391,49.0896182 58.2969391,43.9775955 L58.2969391,28.6358473 L41.9327864,28.6358473 Z" id="Path" fill="#EEEEEE"></path>
            <path d="M19.4313664,28.6358473 L19.4313664,45 L28.6358473,45 L28.6358473,54.2044809 C32.6487851,54.2044809 35.7955191,49.0896182 35.7955191,43.9775955 L35.7955191,28.6358473 L19.4313664,28.6358473 Z" id="Path" fill="#EEEEEE"></path>
            <path d="M19.4313664,28.6358473 L35.7955191,28.6358473 L35.7955191,29.6358473 L19.4313664,29.6358473 L19.4313664,28.6358473 Z M41.9327864,28.6358473 L58.2969391,28.6358473 L58.2969391,29.6358473 L41.9327864,29.6358473 L41.9327864,28.6358473 L41.9327864,28.6358473 Z" id="Shape" fill="#FFFFFF" opacity="0.4"></path>
            <path d="M51.1372673,54.2044809 L51.1372673,54.7156832 C55.1502051,54.7156832 58.2969391,49.6008204 58.2969391,44.4887977 L58.2969391,43.9775955 C58.2940991,49.0896182 55.1502051,54.2044809 51.1372673,54.2044809 Z M51.1372673,45 L41.9327864,45 L41.9327864,45.5112023 L51.1372673,45.5112023 L51.1372673,45 Z M28.6358473,54.2044809 L29.1214894,54.6901231 C32.9015462,54.3010413 35.7955191,49.3934995 35.7955191,44.4887977 L35.7955191,43.9775955 C35.7955191,49.0896182 32.6516251,54.2044809 28.6358473,54.2044809 Z M28.6358473,45 L19.4313664,45 L19.4313664,45.5112023 L28.6358473,45.5112023 L28.6358473,45 L28.6358473,45 Z" id="Shape" fill="#263238" opacity="0.2"></path>
            <path d="M38.8627327,0.511202272 C60.3247081,0.511202272 77.7254654,17.9119596 77.7254654,39.373935 L77.7453455,39.373935 C77.7453455,39.2063743 77.7567056,39.0302935 77.7567056,38.8627327 L77.7254654,38.8627327 C77.7254654,17.4007573 60.3247081,0 38.8627327,0 C17.4007573,0 0,17.4007573 0,38.8627327 C0,38.9450931 0.00568002524,39.0217734 0.00568002524,39.1041338 C0.153360682,17.764279 17.4887977,0.511202272 38.8627327,0.511202272 Z" id="Path" fill="#FFFFFF" opacity="0.2"></path>
            <path d="M38.8627327,75.6806564 L38.8627327,75.1694541 C18.6077627,75.1694541 0.153360682,58.8166614 0.00568002524,38.5929315 C0.00568002524,38.6838119 0,38.7718523 0,38.8627327 C0,59.1943831 18.5310824,75.6806564 38.8627327,75.6806564 Z M77.7254654,38.8627327 C77.4641843,58.5667403 62.2729568,77.614705 38.8627327,89.4859577 L38.8627327,89.99716 C62.4774377,78.0236668 77.7254654,58.7513411 77.7254654,38.8627327 Z" id="Shape" fill="#263238" opacity="0.2"></path>
        </g>
    </g>
</svg>