<svg viewBox="0 0 90 90" xmlns="http://www.w3.org/2000/svg"><path d="M82.822 29.465 60.402 6.763a25.498 25.498 0 0 0-9.276-5.668c-7.66-2.58-15.283-.566-21.457 5.668L7.193 29.465a25.895 25.895 0 0 0-5.605 9.38C-.972 46.59 1.02 54.3 7.193 60.534l22.448 22.702a25.416 25.416 0 0 0 9.266 5.668A20.354 20.354 0 0 0 45.402 90c5.385 0 10.54-2.3 14.962-6.763l22.44-22.702a25.892 25.892 0 0 0 5.614-9.38c2.55-7.746.56-15.446-5.615-21.69h.019ZM46.732 13.35a12.68 12.68 0 0 1 4.587 2.654l6.633 6.716-12.935 13.072-12.935-13.081 6.669-6.754c1.789-1.8 4.312-3.71 8-2.616l-.019.01ZM13.725 43.242a12.86 12.86 0 0 1 2.633-4.639l6.632-6.707 12.935 13.08-12.944 13.082-6.669-6.754c-1.789-1.8-3.67-4.351-2.596-8.08l.009.018Zm29.558 33.38a12.506 12.506 0 0 1-4.587-2.653l-6.614-6.634 12.935-13.09 12.935 13.081-6.67 6.754c-1.789 1.8-4.302 3.71-8 2.616v-.074Zm33.025-29.827a12.952 12.952 0 0 1-2.623 4.639l-6.633 6.624-12.935-13.081 12.935-13.081 6.67 6.744c1.788 1.8 3.669 4.351 2.596 8.08" fill="#00ADE4"/></svg>