<?xml version="1.0" encoding="UTF-8"?>
<svg width="90px" height="90px" viewBox="0 0 90 90" version="1.1" xmlns="http://www.w3.org/2000/svg" xmlns:xlink="http://www.w3.org/1999/xlink">
    <title>hashflare.io</title>
    <g id="hashflare" stroke="none" stroke-width="1" fill="none" fill-rule="evenodd">
        <rect id="Rectangle" fill="#000000" fill-rule="nonzero" opacity="0" x="0" y="0" width="90" height="90"></rect>
        <path d="M12.5,27 C15.5375661,27 18,29.4624339 18,32.5 L18,75 C18,76.5976809 19.24892,77.9036609 20.8237272,77.9949073 L21,78 L37,78 C38.5976809,78 39.9036609,76.75108 39.9949073,75.1762728 L40,75 L40,57 C40,54.2385763 42.2385763,52 45,52 C47.7614237,52 50,54.2385763 50,57 L50,75 C50,76.5976809 51.24892,77.9036609 52.8237272,77.9949073 L53,78 L77,78 C80.3137085,78 83,80.6862915 83,84 C83,87.3137085 80.3137085,90 77,90 L12,90 C9.23857625,90 7,87.7614237 7,85 L7,32.5 C7,29.4624339 9.46243388,27 12.5,27 Z M77.5,63 C74.4624339,63 72,60.5375661 72,57.5 L72,15 C72,13.4023191 70.75108,12.0963391 69.1762728,12.0050927 L69,12 L53,12 C51.4023191,12 50.0963391,13.24892 50.0050927,14.8237272 L50,15 L50,32 C50,34.7614237 47.7614237,37 45,37 C42.2385763,37 40,34.7614237 40,32 L40,15 C40,13.4023191 38.75108,12.0963391 37.1762728,12.0050927 L37,12 L13,12 C9.6862915,12 7,9.3137085 7,6 C7,2.6862915 9.6862915,0 13,0 L78,0 C80.7614237,0 83,2.23857625 83,5 L83,57.5 C83,60.5375661 80.5375661,63 77.5,63 Z" id="Shape" fill="#0B39ED"></path>
    </g>
</svg>