<svg viewBox="0 0 90 90" xmlns="http://www.w3.org/2000/svg"><defs><linearGradient x1="50%" y1="0%" x2="50%" y2="100%" id="a"><stop stop-color="#F96" offset="0%"/><stop stop-color="#FF5E62" offset="100%"/></linearGradient></defs><path d="M69.274 0c-4.25 0-7.705 3.913-7.705 8.695V40.52c0 4.79-3.463 8.695-7.69 8.695-4.226 0-7.697-3.89-7.697-8.695V25.812c0-4.781-3.462-8.694-7.697-8.694-4.234 0-7.697 3.913-7.697 8.694v2.539c0 4.781-3.463 8.664-7.697 8.664s-7.697-3.883-7.697-8.664v-5.016c0-4.782-3.463-8.695-7.697-8.695S0 18.553 0 23.335v36.109c0 4.766 3.463 8.694 7.697 8.694s7.697-3.928 7.697-8.694v-5.016c0-4.782 3.463-8.688 7.697-8.688s7.697 3.906 7.697 8.688v26.885c0 4.782 3.463 8.687 7.697 8.687 4.235 0 7.697-3.905 7.697-8.687V66.605c0-4.782 3.463-8.695 7.698-8.695 4.234 0 7.689 3.913 7.689 8.695v10.96c0 4.783 3.47 8.696 7.705 8.696 4.234 0 7.697-3.92 7.697-8.695V8.695C76.97 3.913 73.508 0 69.274 0Z" transform="translate(7)" fill="url(#a)"/></svg>