<svg viewBox="0 0 90 90" xmlns="http://www.w3.org/2000/svg"><g fill="none"><path d="M54.926 49.178C41.132 55.395 38.598 68.959 41.413 82.24c-5.911-10.456-3.378-25.716 5.067-34.476 6.194-5.652 3.942-5.087 8.446 1.413Z" fill="#D7D2D4"/><path d="M31.842 83.654C16.922 79.133 5.943 63.873 4.254 48.047c-.845-10.173 2.815-21.76 9.29-29.39C21.989 7.354 35.22 3.115 48.17 4.527c15.764 1.696 32.092 11.587 36.877 28.26-2.815 3.674-15.483 3.391-23.646 5.652-8.164 2.543-19.425 7.065-21.677 17.52-6.756 28.543-8.727 26.282-7.882 27.695Z" fill="#FFC91A"/><path d="M41.132 17.81c.281-1.696 0-3.109 0-4.805 3.378 3.674 7.038 7.63 10.416 11.304-1.126.283-2.534.848-3.66.565-2.252-2.26-4.504-4.521-6.756-7.064ZM16.359 48.895c-1.126-1.13-2.534-2.26-3.66-3.391 3.097-.565 6.475-.848 9.572-1.13l1.689 2.543c-2.534.565-5.068 1.13-7.601 1.978Zm-3.66-17.803c5.63.847 10.98 1.695 16.61 2.825.28.848.28 1.696.28 2.544-5.63-1.978-11.26-3.674-16.89-5.37Z" fill="#E5A125"/><path d="M32.405 27.7c.281-.565-.282-1.695.281-1.695h2.534v1.978l-2.815-.283Z" fill="#E5A225"/><path d="M44.791.006c17.454-.283 33.219 9.326 41.1 24.868 1.971 4.805 7.32 14.413 1.408 17.804-3.378 1.978-6.474-.848-9.57-1.696-9.29-1.978-22.803-1.13-20.551 2.261C61.119 50.308 69 54.547 77.165 54.264c3.941-.282 9.29-2.26 10.697 3.391.845 4.522-2.533 8.196-4.504 11.87-14.357 23.455-49.264 27.411-68.97 8.477C-15.452 50.591 4.254.29 44.791.006Zm-9.29 11.304c4.505 4.521 8.446 9.608 13.232 13.564 12.386-3.39 25.617-.282 35.188 7.913-8.445-28.26-45.886-37.302-66.436-16.673C1.72 31.092.875 58.221 16.64 73.198c3.942 3.957 8.164 7.348 13.794 8.478-1.407-2.543-2.815-5.37-4.504-7.63l-8.164-5.37 4.223-7.912-14.92-9.608 16.61-4.522-11.261-15.542 17.172 5.086-1.408-9.043c2.252.283 7.038.565 7.038.565s0-11.02.282-16.39Zm3.097 58.497c0 5.087 1.408 10.174 3.941 14.695 3.097 4.239 15.202-.565 21.395-3.674 6.756-3.673 12.387-9.043 16.328-15.825.563-.565 0-1.13-.563-1.413-1.126-.565-1.69-1.696-1.97-3.109-.282-1.413-1.971-.565-3.097-.847-9.572-.566-18.017-6.217-22.24-14.413-4.504-1.695-14.638 13.847-13.794 24.586Zm-4.222 7.348C28.464 51.438 52.674 29.396 77.728 35.33c-8.445-5.934-19.143-7.63-28.995-4.521-3.379.848-5.35-3.391-7.883-5.087v7.913l-5.911-.283 1.689 10.739-9.572-2.826 6.193 8.195-12.104 3.391 8.445 5.37c-1.408 2.543-4.223 7.912-4.223 7.912l5.067 3.391c1.408 2.826 2.534 5.37 3.942 7.63Z" fill="#000"/><path d="M53.518 55.96c6.193 0 5.63 6.782-.563 5.087-3.378-.283-1.97 4.521-4.785 5.086-1.408.283-3.097-.565-3.097-2.543.281-4.239 4.223-7.63 8.445-7.63Z" fill="#000"/></g></svg>