<svg viewBox="0 0 90 90" xmlns="http://www.w3.org/2000/svg"><g fill="none"><path fill="#0C3C64" d="M0 0h90v90H0z"/><path d="M65.993 37.112v-.064a20.046 20.046 0 0 0-.9-3.793l-.01-.032-.013-.031-3.245-8.483a2.089 2.089 0 0 0-1.954-1.366h-.011a2.092 2.092 0 0 0-1.377.534c-.044.04-.086.082-.123.124a19.069 19.069 0 0 0-11.507-3.843c-1.161 0-2.32.105-3.462.315L42.1 18.06a2.258 2.258 0 0 0-1.091-1.01l-15.87-6.866a2.232 2.232 0 0 0-2.122.19A2.288 2.288 0 0 0 22 12.269v.018c0 .384.096.76.279 1.096l5.68 10.542c.247.462.645.823 1.125 1.021l.019.009.08.029.368.134 1.671 3.105a19.735 19.735 0 0 0-1.795 19.943v3.773c-.002.6.24 1.177.67 1.592.056.053.115.103.176.15l-.02.135a21.006 21.006 0 0 0-5.747 6.647 2.636 2.636 0 0 0 .084 2.628c.34.542.638 1.067.885 1.556.292.564.538 1.15.737 1.754.173.486.27.995.289 1.51.005.172-.017.343-.068.506a.82.82 0 0 1-.047.109c-.101.185-.21.365-.3.556l-.36.76c-.068.137-.103.29-.103.444a2.281 2.281 0 0 0 1.596 2.169l15.406 6.99a6.198 6.198 0 0 0 5.31-.085l14.652-7.238a2.085 2.085 0 0 0 1.151-1.907 11.594 11.594 0 0 0-.18-1.8h.156a2.267 2.267 0 0 0 1.942-1.13c.204-.352.309-.753.302-1.16v-.195l-1.236-13.231c.241-.372.37-.807.368-1.252v-1.458a2.306 2.306 0 0 0 .743-2.437l-1.534-5.029v-.596A2.278 2.278 0 0 0 66 39.705v-2.506l-.007-.087Z" fill="#FFF"/><path d="M39.645 36.505h-3.727a.618.618 0 0 0 0 1.236h3.727m1.325 2.537h-3.727a.618.618 0 0 0-.614.62c0 .344.275.622.614.622h3.726M59.76 30.123h-3.727a.618.618 0 0 0-.614.621c0 .343.275.621.614.621h3.726m.001 2.532h-3.727a.618.618 0 0 0-.614.621c0 .343.275.621.614.621h3.726" fill="#0071FE"/><g fill="#0C3C64"><path d="M63.749 40.526a.806.806 0 0 0 .574-.24.826.826 0 0 0 .238-.581v-2.461a18.564 18.564 0 0 0-.837-3.517v-.01l-3.242-8.493a.647.647 0 0 0-1.255.233v1.196c-4.406-4.274-10.662-5.981-16.596-4.529l-1.802-3.371a.821.821 0 0 0-.391-.363l-15.88-6.863a.809.809 0 0 0-1.018.337.83.83 0 0 0-.012.813l5.682 10.546a.82.82 0 0 0 .438.382l.892.32 2.383 4.428c-4.426 5.548-5.217 13.21-2.019 19.563a.767.767 0 0 0-.05.265v3.754a.75.75 0 0 0 .216.527.73.73 0 0 0 .52.218.737.737 0 0 0 .31-.07l-.317 2.044a19.264 19.264 0 0 0-5.81 6.513c-.195.361-.181.802.036 1.15.258.41.614 1.01.95 1.67.328.632.606 1.29.83 1.967.22.634.341 1.297.36 1.968a3.02 3.02 0 0 1-.153.994c-.1.293-.265.56-.482.779a.825.825 0 0 0-.029 1.146.808.808 0 0 0 .428.249l15.51 7.03a4.776 4.776 0 0 0 4.091-.067l14.65-7.238a.622.622 0 0 0 .342-.566 10.333 10.333 0 0 0-1.37-4.907l2.345 1.49c.316.202.726.16.995-.103a.825.825 0 0 0 .245-.59v-.074l-1.298-13.903a.82.82 0 0 0 .428-.719v-2.409h.028a.816.816 0 0 0 .812-.82.819.819 0 0 0-.036-.25l-1.596-5.237v-2.201h.89Zm-1.178-6.387c.36 1.05.618 2.131.772 3.23v1.92H51.799l-1.083-2.029h8.914a.816.816 0 0 0 .812-.821v-7.892l2.13 5.592Zm-6.773 20.202c.151.143.35.222.557.223a.803.803 0 0 0 .533-.209l1.739-1.49a2.478 2.478 0 0 1 1.61-.596h1.776l1.22 13.08-4.052-2.589-1.815-3.37-1.07.589.773 1.432-2.077-1.323-1.99-3.694-1.069.589.946 1.757-5.895-3.758v-3.017l.754 1.399a.81.81 0 0 0 .714.428h.017l5.786-.022a.812.812 0 0 0 .706-.423.83.83 0 0 0-.018-.83l-2.047-3.327 2.776 1.01a3.322 3.322 0 0 0-.122.897v2.642a.828.828 0 0 0 .248.602Zm-8.956-31.483a16.53 16.53 0 0 1 12.378 5.573v7.608h-9.167l-6.83-12.788a16.51 16.51 0 0 1 3.619-.399v.006Zm-13.28 6.678 1.686 3.128a.818.818 0 0 0 .432.372l1.376.506 3.589 6.662 1.07-.589-2.93-5.44 1.596.587.416-1.157-4.553-1.672-3.979-7.386 2.234.803.407-1.16-4.7-1.692-5.048-9.373 14.66 6.343 11.108 20.79-.737 6.542a.804.804 0 0 0 0 .093.83.83 0 0 0 .123.433l3.21 5.218-4.831.018-3.993-7.4-1.069.589 2.13 3.953v3.603a12.972 12.972 0 0 0-1.332-.067c-2.42.075-4.83.361-7.2.857a88.39 88.39 0 0 0-4.48.984l.507-3.289 10.245-6.202-.625-1.056-10.8 6.536v-2.608l9.203-5.516-.614-1.058-8.771 5.256a17.026 17.026 0 0 1 1.672-17.616l-.002.008Zm-3.07 27.57c.428-.394.818-.715 1.136-.96a.806.806 0 0 0 .822.282 89.09 89.09 0 0 1 5.003-1.118 40.431 40.431 0 0 1 6.976-.834c.444-.003.889.021 1.33.072v.415c-9.07 5.263-14.508 6.174-17.17 6.174a8.985 8.985 0 0 1-1.35-.093 18.175 18.175 0 0 1 3.25-3.943l.003.006Zm16.285 19.845a3.573 3.573 0 0 1-3.06.05l-5.722-2.597a20.999 20.999 0 0 1 14.507-4.006l.102-1.227a21.76 21.76 0 0 0-15.862 4.664l-8.098-3.674a27.815 27.815 0 0 1 9.91-5.423 33.368 33.368 0 0 1 9.803-1.424 37.1 37.1 0 0 1 6.077.497c.743.125 1.33.249 1.73.342a13 13 0 0 1 .453.112l.113.03.027.008h.006l.334-1.184a36.354 36.354 0 0 0-18.9.438 29.112 29.112 0 0 0-9.041 4.615c0-.083.008-.167.008-.249a7.813 7.813 0 0 0-.443-2.425 17.169 17.169 0 0 0-1.498-3.206c.454.058.911.086 1.369.083 2.939 0 8.574-1 17.763-6.335l11.253 7.178a9.4 9.4 0 0 1 1.726 1.878 9.308 9.308 0 0 1 1.734 4.786l-14.291 7.069ZM62.43 51.044h-2.193c-.877 0-1.725.315-2.395.887l-1.084.926v-1.763c0-.546.215-1.07.596-1.456.382-.387.9-.604 1.44-.604h3.638l-.002 2.01Zm-.778-8.09.006.044 1.474 4.809h-4.338a3.233 3.233 0 0 0-2.579 1.288l-4.367-1.589-.434-.706.705-6.269h9.516v2.316l.017.106Z"/><path d="M54.794 42.202v1.226a1.62 1.62 0 0 0 1.261 1.588l2.982.66a1.59 1.59 0 0 0 1.347-.322 1.63 1.63 0 0 0 .6-1.261v-1.894h-6.19v.003Zm4.855 2.169a.378.378 0 0 1-.27.113l-.084-.009-2.982-.66a.392.392 0 0 1-.303-.38h3.755v.658a.382.382 0 0 1-.116.278Z"/></g><path d="M45.27 38.907c-.938 0-1.784.572-2.142 1.448a2.365 2.365 0 0 0 .503 2.557 2.3 2.3 0 0 0 2.527.507 2.346 2.346 0 0 0 1.43-2.168c0-1.294-1.038-2.344-2.318-2.344Zm.982 3.335a1.372 1.372 0 0 1-1.747.174 1.41 1.41 0 0 1-.511-1.698 1.38 1.38 0 0 1 1.547-.84 1.396 1.396 0 0 1 1.116 1.37 1.4 1.4 0 0 1-.41.994h.005Z" fill="#0C3C64"/><path d="M45.275 36.286c-2.713 0-4.912 2.225-4.912 4.97 0 2.744 2.199 4.968 4.912 4.968s4.912-2.224 4.912-4.969c0-2.744-2.2-4.969-4.912-4.969Zm2.61 7.607a3.66 3.66 0 0 1-4.661.476 3.758 3.758 0 0 1-1.37-4.532 3.683 3.683 0 0 1 4.127-2.242c1.728.344 2.975 1.876 2.978 3.658a3.749 3.749 0 0 1-1.08 2.645l.005-.005Z" fill="#0071FE"/></g></svg>