<svg xmlns="http://www.w3.org/2000/svg" viewBox="0 0 90 90"><path d="M65.998 24.886a6.578 6.578 0 0 0-9.297 0 6.605 6.605 0 0 0-1.841 5.733v.015c.109.673.03 1.375-.265 2.033a3.38 3.38 0 0 1-4.501 1.64 12.64 12.64 0 0 0-14.188 2.53 12.636 12.636 0 0 0-2.533 14.185c.406.861.406 1.796.094 2.624a3.418 3.418 0 0 1-1.75 1.875 3.245 3.245 0 0 1-2.092.235h-.109a6.502 6.502 0 0 0-5.58 1.86 6.598 6.598 0 0 0-1.92 4.655 6.553 6.553 0 0 0 4.046 6.075 6.581 6.581 0 0 0 9.016-7.153 1.155 1.155 0 0 1 0-.33 3.523 3.523 0 0 1 .312-1.672 3.336 3.336 0 0 1 1.892-1.748 3.366 3.366 0 0 1 2.607.094 12.64 12.64 0 0 0 14.187-2.53 12.636 12.636 0 0 0 2.534-14.185 3.322 3.322 0 0 1-.112-2.562 3.359 3.359 0 0 1 3.623-2.219.95.95 0 0 1 .3 0 6.51 6.51 0 0 0 5.577-1.86 6.58 6.58 0 0 0 0-9.295Zm-15.796 15.95a7.278 7.278 0 0 1-5.148 12.427 7.278 7.278 0 1 1 0-14.559c1.932 0 3.785.768 5.148 2.133ZM89 45.992C89 21.701 69.295 2 45 2 20.702 2 1 21.683 1 45.991S20.687 90 45 90s44-19.718 44-44.009ZM68.452 22.56a9.945 9.945 0 0 1 0 14.076 10.153 10.153 0 0 1-5.108 2.747 19.451 19.451 0 0 1-4.454 20.453 19.433 19.433 0 0 1-20.468 4.437 9.925 9.925 0 0 1-2.734 5.137 9.946 9.946 0 0 1-7.04 2.919 9.946 9.946 0 0 1-7.041-2.919 9.945 9.945 0 0 1-2.491-9.931 9.978 9.978 0 0 1 7.602-6.878 19.416 19.416 0 0 1 4.407-20.54 19.44 19.44 0 0 1 20.533-4.423 9.945 9.945 0 0 1 9.755-7.996 9.946 9.946 0 0 1 7.04 2.918Z" fill="#FEB702" fill-rule="evenodd"/></svg>