<svg viewBox="0 0 90 90" xmlns="http://www.w3.org/2000/svg"><g fill="none"><path fill="#151515" d="M0 0h90v90H0z"/><path fill="#141414" d="M83.84 68.387 0 69.854l6.176-47.387L90 21l-6.168 47.387z"/><path d="M21.901 31.87a11.863 11.863 0 0 0-4.155.056c-2.135.473-3.34 1.988-3.748 4.97l-.13.93c-.432 2.843.382 4.725 1.922 7.397l1.15 2.037c1.352 2.363 1.8 3.373 1.433 5.728a7.366 7.366 0 0 1-.57 2.249c-.293.554-.603.782-1.157.823-.807.065-1.402-.44-1.239-1.711l.734-5.402-4.066.073-.79 5.72c-.408 2.77.684 4.595 2.933 5.174.774.203 2.77.326 4.343-.13 2.216-.636 3.56-2.56 4.016-5.981l.13-.978c.424-3.503-.545-5.092-2.28-8.571l-1.125-2.143c-1.108-2.143-1.426-2.884-1.271-4.384l.106-.709c.114-.57.383-1.531 1.312-1.548.651-.016 1.165.497 1.002 1.663l-.538 3.78 4-.081.628-4.522c.35-2.526-.57-4.05-2.64-4.44Zm17.762-.229-12.792.22-.554 4.074 4.384-.082-3.365 23.751 4.106-.065 3.349-23.75 4.31-.074.57-4.074h-.008Zm-4.579 27.833 3.764-.066 1.01-4.236 3.187-.057-.13 4.22 3.91-.065.375-27.76-4.889.082-7.227 27.882Zm28.868-28.257-4.14.074-4.546 10.706 1.491-10.658-4.106.074-3.911 27.816 4.098-.065 1.695-11.969 1.703 11.912 4.212-.081-2.118-14.69 5.622-13.119Zm-1.81 27.784 9.51-.163.602-4.237-5.41.098 1.124-8.034 4.074-.073.595-4.229-4.074.074 1.035-7.293 5.174-.081.57-4.05-9.288.164L62.143 59ZM78.39 38.485l2.502-.04.44-12.336-2.933 12.376h-.009Z" fill="#FFF"/></g></svg>