<svg viewBox="0 0 90 90" xmlns="http://www.w3.org/2000/svg"><g fill="none" fill-rule="evenodd"><path fill="#657DBD" fill-rule="nonzero" d="M0 0h90v90H0z"/><path d="M21 25.603C21 23.93 21.936 23 23.62 23h2.682c1.745 0 2.62.93 2.62 2.603V38.37c.004.892-.058 1.783-.187 2.665h.124c1.557-3.036 5.551-6.384 11.04-6.384C46.945 34.651 51 38.308 51 46.674v17.723C51 66.131 50.064 67 48.38 67h-2.682c-1.746 0-2.62-.868-2.62-2.603V48.285c0-3.843-.998-6.443-4.99-6.443-5.561-.003-9.167 4.458-9.167 10.47v12.085c0 1.735-.873 2.603-2.62 2.603H23.62c-1.684 0-2.62-.869-2.62-2.603V25.603Z" fill="#FFF" fill-rule="nonzero"/><circle fill="#6AC6B9" cx="63" cy="62" r="5"/></g></svg>