<svg viewBox="0 0 90 87" xmlns="http://www.w3.org/2000/svg"><g fill="none"><path d="M54.123 43.5c0 5.07-4.084 9.18-9.123 9.18s-9.124-4.11-9.124-9.18c0-5.07 4.085-9.18 9.124-9.18 5.039 0 9.123 4.11 9.123 9.18Z" fill="#1CCCC4"/><path d="M42.764 17.22C40.628 11.754 36.48 3.574 36.48 3.574 35.503.766 32.387-.69 29.522.321c-2.866 1.012-4.396 4.11-3.419 6.918l3.786 14.526.134.46c1.217 3.495 5.094 5.308 8.66 4.049 3.566-1.259 5.47-5.113 4.254-8.608l-.173-.447Z" fill="#3D7FE0"/><path d="M47.237 69.78c2.135 5.465 6.283 13.645 6.283 13.645.978 2.809 4.093 4.265 6.959 3.254 2.865-1.012 4.396-4.11 3.418-6.918l-3.786-14.526-.134-.46c-1.216-3.495-5.093-5.308-8.66-4.049-3.565 1.26-5.47 5.113-4.254 8.609l.174.446Z" fill="#FFD101"/><path d="M66.501 28.411c3.635-4.593 8.601-12.298 8.601-12.298 1.929-2.256 1.625-5.699-.679-7.69-2.303-1.992-5.734-1.777-7.663.48l-10.609 10.56-.329.348c-2.4 2.807-2.021 7.092.845 9.57 2.867 2.478 7.136 2.21 9.537-.597l.297-.374Z" fill="#2BBAE7"/><path d="M23.5 58.59c-3.635 4.593-8.601 12.297-8.601 12.297-1.929 2.256-1.625 5.7.678 7.69 2.304 1.992 5.735 1.777 7.663-.479l10.61-10.562.328-.347c2.4-2.808 2.022-7.093-.845-9.57-2.866-2.479-7.136-2.211-9.536.596l-.297.375Z" fill="#FF7D42"/><path d="M68.737 54.692c5.771.87 14.885 1.346 14.885 1.346 2.906.553 5.718-1.434 6.28-4.437.562-3.003-1.339-5.885-4.245-6.438L71.262 41.2l-.463-.113c-3.616-.688-7.115 1.784-7.814 5.521-.7 3.737 1.665 7.324 5.281 8.012l.471.072Z" fill="#4ABC90"/><path d="M21.263 32.309c-5.77-.871-14.885-1.347-14.885-1.347C3.472 30.41.661 32.396.098 35.4c-.562 3.003 1.339 5.886 4.245 6.438l14.395 3.964.463.113c3.616.688 7.115-1.784 7.814-5.522.7-3.737-1.665-7.324-5.281-8.011l-.471-.072Z" fill="#FF5072"/></g></svg>