<svg viewBox="0 0 90 90" xmlns="http://www.w3.org/2000/svg"><g fill="none"><path fill="#090C16" d="M0 0h90v90H0z"/><path d="M72.62 18.642A13 13 0 0 1 76 27.387v35.226c0 7.18-5.82 13-13 13a13 13 0 0 1-8.745-3.381L33.637 53.488a5 5 0 0 1-1.637-3.7v-9.576a5 5 0 0 1 1.637-3.7l20.618-18.744c5.313-4.83 13.535-4.438 18.364.874Zm-4.44 4.036a7 7 0 0 0-9.691-.643l-.198.173L38 40.653v8.693l20.291 18.446a7 7 0 0 0 4.402 1.814l.307.007a7 7 0 0 0 6.996-6.76l.004-.24V27.387a7 7 0 0 0-1.82-4.709Z" fill="#FFF"/><path d="M17.38 18.642A13 13 0 0 0 14 27.387v35.226c0 7.18 5.82 13 13 13a13 13 0 0 0 8.745-3.381l20.618-18.744a5 5 0 0 0 1.637-3.7v-9.576a5 5 0 0 0-1.637-3.7L35.745 17.768c-5.313-4.83-13.535-4.438-18.364.874Zm4.44 4.036a7 7 0 0 1 9.691-.643l.198.173L52 40.653v8.693L31.709 67.792a7 7 0 0 1-4.402 1.814l-.307.007a7 7 0 0 1-6.996-6.76l-.004-.24V27.387a7 7 0 0 1 1.82-4.709Z" fill="#FFF"/><path fill="#7F7E7F" d="M40.54 30.236 45 34.29l-1 .91-4.459-4.054zm0 29.527L45 63.817l-1 .91-4.46-4.055z"/></g></svg>