<svg xmlns="http://www.w3.org/2000/svg" viewBox="0 0 90 90"><path fill="#FFF" d="M0 0h90v90H0z"/><path fill="#182A54" d="M73.6 26.36L80 20H59.34l-6.4 6.36L45 34.24l-7.78-7.73h-6.67l11.12 11.04 3.33 3.3 3.34-3.3L59.45 26.5h7.33L52 41.19l-3.33 3.3L52 47.82l14.78 14.68h6.67l-6.52-6.47-11.6-11.52 11.6-11.52 6.67-6.62zM48.33 51.45L45 48.14l-3.34 3.31-11.12 11.04h-7.32l1.46-1.45L38 47.8l3.33-3.31L38 41.19 24.68 27.97l-1.46-1.46h-6.67l6.52 6.47 1.61 1.6 9.99 9.92-9.99 9.92-1.61 1.6-6.52 6.47-.15.15L10 69h20.66l6.4-6.36L45 54.76l7.78 7.73h6.67L48.33 51.45z"/></svg>