<svg xmlns="http://www.w3.org/2000/svg" viewBox="0 0 90 90"><path fill="#FFF" d="M0 0h90v90H0z"/><path d="M45.014 80a34.807 34.807 0 0 0 20.045-6.318L51.452 57.437a13.94 13.94 0 0 1-11.663.548L26.027 74.39A34.842 34.842 0 0 0 45.014 80Z" fill="#3E48F8"/><path d="M70.645 21.196 56.88 37.62a13.964 13.964 0 0 1-5.443 19.83l13.626 16.244a34.994 34.994 0 0 0 5.587-52.49l-.004-.007Z" fill="#00C9FF"/><path d="M59.01 45.007a13.925 13.925 0 0 0-2.131-7.388L39.797 57.99a13.994 13.994 0 0 0 19.212-12.982Z" fill="#00F500"/><path d="m26.019 74.39 13.758-16.4a13.997 13.997 0 0 1 1.849-26.564 13.995 13.995 0 0 1 15.257 6.17l13.758-16.4A34.986 34.986 0 0 0 10.31 40.363a34.995 34.995 0 0 0 15.71 34.034v-.008Z" fill="#292748"/></svg>