<svg viewBox="0 0 90 90" xmlns="http://www.w3.org/2000/svg"><g fill="none"><path fill="#FFF" d="M0 0h90v90H0z"/><g fill="#353A46"><path d="M61.298 40.581c1.387 0 2.511-1.107 2.511-2.473 0-1.366-1.124-2.473-2.51-2.473-1.387 0-2.512 1.107-2.512 2.473 0 1.366 1.125 2.473 2.511 2.473Z"/><path d="M73.891 40.498a1.818 1.818 0 0 0-1.364.012c-.435.18-.78.524-.96.954-1.102 2.684-5.601 7.07-9.148 8.173a2.693 2.693 0 0 1-2.082.055c-.822-.524-.672-3.273 0-5.387a1.722 1.722 0 0 0-.02-1.186c-.147-.38-.425-.7-.785-.9a1.797 1.797 0 0 0-2.229.394c-4.565 5.13-8.672 8.835-10.688 10.113 0-.543 0-1.186.065-1.655.13-2.197.233-4.091-1.195-5.001a2.502 2.502 0 0 0-2.595 0c-2.67 1.351-7.113 5.626-10.38 8.761.205-.92.448-1.894.7-2.831a49.134 49.134 0 0 1 2.623-7.604c2.539-6.03 5.685-10.802 7.897-11.776a1.2 1.2 0 0 1 .43-.11.311.311 0 0 1 .205.064c.233.147.243.239.252.321.15 1.517-2.8 5.149-6.245 8.845a60.08 60.08 0 0 0-3.482 8.605c10.436-10.343 13.582-14.618 13.265-17.79a3.804 3.804 0 0 0-.56-1.661 3.872 3.872 0 0 0-1.251-1.244 4.17 4.17 0 0 0-4.06-.23c-4.51 1.977-9.523 11.547-12.239 20.713-2.278 2.069-4.555 3.09-6.777 3.052a8.115 8.115 0 0 1-5.228-2.261 1.799 1.799 0 0 0-2.458-.053 1.738 1.738 0 0 0-.174 2.416 11.638 11.638 0 0 0 7.73 3.401 11.202 11.202 0 0 0 4.21-.735c.326-1.223.531-1.922.54-1.94a.584.584 0 0 1 .509-.409.598.598 0 0 1 .578.306.576.576 0 0 1 .043.443l-.28.984a44.583 44.583 0 0 0-.317 1.838c-.42 2.161 0 2.759.27 3.062a1.956 1.956 0 0 0 1.55.763c.934 0 1.307-.34 4.668-3.567a96.169 96.169 0 0 1 8.224-7.355l.69-.552a.613.613 0 0 1 .84.083.6.6 0 0 1-.093.828c-.439.34-.933.772-1.521 1.24-.084 1.84-.047 3.503 1.073 4.46a2.52 2.52 0 0 0 2.184.533c1.774-.35 4.519-2.528 7.123-4.965 0 0 2.856-2.942 3.669-3.889a.606.606 0 0 1 .85-.082.592.592 0 0 1 .083.836c-.308.359-.887.984-1.493 1.628a4.436 4.436 0 0 0 1.867 2.51 5.848 5.848 0 0 0 5.069.331c4.667-1.453 9.913-6.666 11.37-10.187a1.75 1.75 0 0 0 .029-1.375 1.763 1.763 0 0 0-.982-.979Z"/></g></g></svg>