<svg xmlns="http://www.w3.org/2000/svg" viewBox="0 0 90 90"><path fill="#FFF" d="M0 0h90v90H0z"/><path d="M44.568 12c.589 0 1.137.3 1.456.796l.058.085.178.237.263.318c.103.119.22.25.35.39.8.86 1.806 1.727 3.033 2.541 3.403 2.26 7.77 3.664 13.233 3.782l.82.008h4.956a3.097 3.097 0 0 1 3.074 2.84l.011.255-.001 13.718-.017.711-.04.803a44.25 44.25 0 0 1-.153 1.865l-.12 1.054c-.09.728-.2 1.506-.335 2.328-.827 5.047-2.326 10.087-4.673 14.808-4.488 9.03-11.538 15.817-21.585 19.365a1.745 1.745 0 0 1-.231.065l-.233.031h-.224l-.158-.018-.2-.044-.106-.034C33.88 74.356 26.83 67.57 22.34 58.54c-2.347-4.722-3.847-9.762-4.674-14.81a61.328 61.328 0 0 1-.184-1.2l-.151-1.128-.12-1.053-.09-.972a42.762 42.762 0 0 1-.035-.455l-.051-.845a32.473 32.473 0 0 1-.017-.388l-.017-.706L17 23.252a3.097 3.097 0 0 1 2.837-3.085l.253-.01h5.02c5.816 0 10.427-1.427 13.984-3.79a16.895 16.895 0 0 0 3.03-2.54l.187-.204.306-.355.22-.279c.06-.079.105-.143.137-.192a1.73 1.73 0 0 1 1.238-.783l.219-.014h.137Z" fill="#4165ED"/><path fill="#FFF" d="M50.421 30H57v30h-6.579V48.185h-11.74V60H32V30h6.68v12.534h11.741z"/></svg>