<svg xmlns="http://www.w3.org/2000/svg" viewBox="0 0 90 90"><path fill="#FFF" d="M0 0h90v90H0z"/><path d="M30.113 56.23c2.111 2.821 3.349 6.185 3.349 9.693C33.462 75 24.23 75 24.23 75S15 75 15 65.923V25.077C15 16 24.23 16 24.23 16s9.232 0 9.232 9.077c0 3.508-1.238 6.872-3.35 9.692a17.884 17.884 0 0 0-3.566 10.738c0 4.023 1.325 7.731 3.567 10.738v-.014Zm33.341-10.737c0 4.023-1.325 7.731-3.567 10.738-2.111 2.82-3.349 6.184-3.349 9.692C56.538 75 65.77 75 65.77 75S75 75 75 65.923V25.077C75 16 65.77 16 65.77 16s-9.232 0-9.232 9.077c0 3.508 1.238 6.872 3.35 9.692a17.884 17.884 0 0 1 3.566 10.738v-.014Zm-18.461-11.34c-6.377 0-11.531 5.083-11.531 11.34 0 6.256 5.168 11.339 11.53 11.339 6.363 0 11.532-5.083 11.532-11.34 0-6.256-5.169-11.338-11.531-11.338Z" fill="#FA672F"/></svg>