<svg viewBox="0 0 90 90" xmlns="http://www.w3.org/2000/svg"><g fill="none"><path fill="#F9E943" d="M44.999 0v26.572L29.325 35.96l-1.125.14L6.698 23.65l-.693-1.153L44.999 0"/><path fill="#F5D607" d="M84 22.501 60.815 35.88 45 26.572l-.85-1.172.052-24.05L45 0l39 22.501"/><path fill="#F6A00F" d="M60.815 54.129V35.88l-.365-.705L82.575 22.35 84 22.5l-.006 45.003-23.179-13.375"/><path fill="#F57F15" d="M29.308 54.053v.018l15.69 9.43.9.698v24.799l-.9 1.002L6 67.5l23.308-13.447"/><path fill="#F47516" d="m60.815 54.129 1.736.018L82.9 65.95l1.093 1.555L45 90V63.501l15.816-9.372"/><path fill="#F6A00F" d="m6.005 22.497 23.32 13.462-.017 18.093-.808 1.597L8.85 67.2 6 67.5l.005-45.003"/><path fill="#F3D507" d="M44.999 0v26.572L29.325 35.96 6.005 22.497 44.999 0M84 22.501 60.815 35.88 45 26.572V0l39 22.501"/><path fill="#F49F0F" d="M60.815 54.129V35.88L84 22.501l-.006 45.003-23.179-13.375"/><path fill="#F47416" d="M29.308 54.053v.018l15.69 9.43V90L6 67.5l23.308-13.447"/><path fill="#F47416" d="m60.815 54.129 23.18 13.375L44.997 90V63.501l15.817-9.372"/><path fill="#F49F0F" d="m6.005 22.497 23.32 13.462-.017 18.093L6 67.5l.005-45.003"/></g></svg>