<svg xmlns="http://www.w3.org/2000/svg" viewBox="0 0 90 90"><defs><linearGradient id="hiveos.farm-a" x1="49.8569767%" x2="49.8569767%" y1="99.6833333%" y2="-0.0141456583%"><stop offset="0%" stop-color="#FF9400"/><stop offset="100%" stop-color="#FF6500"/></linearGradient><linearGradient id="hiveos.farm-b" x1="50.1%" x2="50.1%" y1="100.103652%" y2="0.126264045%"><stop offset="0%" stop-color="#FFBD01"/><stop offset="100%" stop-color="#FFE201"/></linearGradient></defs><rect width="90" height="90" fill="#FFF" opacity="0"/><g transform="translate(5)"><path fill="url(#hiveos.farm-a)" d="M15.6539326,12.1764706 L6.73483146,17.4245524 C3.0033708,19.5421995 0,24.8823529 0,29.2097187 L0,60.8823529 C0,65.2097186 3.0033708,70.4578005 6.73483146,72.6675192 L15.6539326,77.9156011 L15.6539326,12.1764706 Z"/><path fill="url(#hiveos.farm-b)" d="M74.2651686,17.3324808 L65.3460675,12.084399 L65.3460675,77.6393862 L74.2651686,72.3913045 C77.9966293,70.2736574 81,64.933504 81,60.6061383 L81,29.1176472 C81,24.7902814 77.9966293,19.5421995 74.2651686,17.3324808 Z"/><path fill="#FFA801" d="M32.5820225,87.6751918 L33.7651684,88.4117647 C37.4966292,90.5294118 43.5033708,90.5294118 47.1438203,88.4117647 L48.3269662,87.6751918 L48.3269662,53.6086957 C48.3269662,53.6086957 46.0516853,49.6496164 40.4089888,49.6496164 C34.7662921,49.6496164 32.4910112,53.6086957 32.4910112,53.6086957 L32.4910112,87.6751918 L32.5820225,87.6751918 Z"/><path fill="#FF5400" d="M47.2348316,1.5882353 C43.5033708,-0.529411765 37.4966292,-0.529411765 33.8561797,1.5882353 L32.6730338,2.32480819 L32.6730338,35.8388746 C32.6730338,35.8388746 34.9483147,39.7979539 40.5910112,39.7979539 C46.2337079,39.7979539 48.5089888,35.8388746 48.5089888,35.8388746 L48.5089888,2.23273657 L47.2348316,1.5882353 Z"/></g></svg>