<svg viewBox="0 0 90 90" xmlns="http://www.w3.org/2000/svg"><g fill="none"><path fill="#1A171B" d="M0 90h90V0H0z"/><path d="M40.5 68.289c0-3.937-2.587-7.199-7.761-15.638l3.598-7.649 1.012 1.688-.225.562C36 49.614 39.15 53.664 43.986 61.99c2.475-3.823 4.952-8.1 5.739-12.936.788-5.74-3.038-10.576-8.1-11.365L34.988 27 14.963 68.964h25.313c.112-.225.224-.45.224-.675m34.537.675-7.875-18.45c-2.363 8.21-8.1 16.313-18.561 16.087-.901 0-2.477-.11-3.828-.337l-1.797 2.7h32.06Z" fill="#FFF"/><path d="M49.05 32.176c5.963 2.925 7.537 8.1 6.525 13.725-1.013 5.963-4.951 11.137-9.227 17.885.34.115 1.352.226 2.477.226 9.225 0 13.501-4.384 17.663-15.186l-14.4-33.862-7.315 15.75c.565.112 2.703.675 4.277 1.462" fill="#FFF"/></g></svg>