<svg width="90" height="90" viewBox="0 0 90 90" xmlns="http://www.w3.org/2000/svg"><g fill="none" fill-rule="evenodd"><rect fill="#1E1E1E" width="90" height="90"/><path d="M70.4801601,46.1017614 C70.4263081,46.0973771 70.4234738,46.0199215 70.4759086,46.0096916 C72.8014634,45.6019537 74.9527078,44.103992 74.9527078,41.6020306 C74.9527078,38.4906546 72.6526619,37.0014614 68.6109299,37.0014614 L52.6098096,37.0014614 C52.5191116,37.6678717 52.351887,38.1296823 52.1733252,38.7010999 L48.0607355,50.1937543 L43.9283055,38.6514114 C43.7426579,38.1121452 43.5102442,37.5538805 43.4379692,37 L39.6569941,37 L39.6569941,37.5874933 C40.0934785,37.740943 39.9886089,38.9539266 39.8313044,40.0178448 L37.8770449,53.777171 C37.760838,54.5561111 37.3867085,54.7724021 36.6894673,54.7724021 L35.0214734,54.7724021 C34.3157292,54.7724021 34.0393836,54.4523498 34.0393836,53.777171 L34.0393836,40.3378971 C34.0422179,39.6305669 34.0847326,37.730713 34.4886223,37.5889547 L34.4886223,37.0014614 L30.208808,37.0014614 L30.208808,45.6823321 L22.3067403,45.6823321 L22.3067403,37.0014614 L18,37.0014614 L18,37.5889547 C18.3911353,37.7263287 18.4435702,39.5224214 18.4478216,40.2735943 L18.4478216,52.7278671 C18.442153,53.4790401 18.3911353,55.2751327 18,55.4125067 L18,56 L22.3053231,56 L22.3053231,46.90993 L30.2045566,46.90993 L30.2045566,56 L39.0759597,56 C39.0759597,55.5294208 39.141149,54.5429582 39.2205098,53.9671564 L40.9621958,41.4675794 L46.116396,56 L47.4513579,56 L52.6480729,41.4675794 C52.6480729,41.4675794 53.8781652,49.9716176 54.3826731,53.9671564 C54.5272231,55.1158372 54.5357261,55.6799477 54.5357261,56 L59.0210281,56 L59.0210281,55.4125067 C58.5987153,55.1231444 58.298278,52.5861088 58.298278,52.5861088 C57.6378829,47.7444043 56.4488881,39.2038305 56.4488881,39.2038305 C56.3426013,38.5330359 56.6317013,38.2275979 57.2269073,38.2275979 L61.221873,38.2275979 C62.0367384,38.2275979 62.2563977,38.6177986 62.2563977,39.4785786 L62.2578149,52.6182601 C62.2578149,53.7844781 62.1798712,55.3613568 61.8156619,55.4110453 L61.8156619,55.9985386 L69.0459972,55.9985386 C73.5865684,55.9985386 75.9999895,54.1586032 75.9999895,50.8835474 C76.0028211,48.1199908 73.7268669,46.3428967 70.4801601,46.1017614 Z M66.1096477,38.2290593 L67.3695004,38.2290593 C69.7942561,38.2597493 71.201493,39.3572802 71.201493,41.7657103 C71.201493,44.3100531 69.9685664,45.6107223 67.3964263,45.6107223 L66.1110649,45.6107223 L66.1110649,38.2290593 L66.1096477,38.2290593 Z M13.4669776,54 L13.4669776,55.5 L0,55.5 L0,54 L13.4669776,54 Z M67.9207745,46.7842474 C70.424891,46.8090916 72.1722456,48.422506 72.1722456,50.8309361 C72.1708285,53.5111914 70.912393,54.7840935 68.5499922,54.7840935 L68.2878181,54.7840935 C66.7133566,54.7840935 66.1096477,54.3558957 66.1096477,52.8959311 L66.1096477,46.7842474 L67.9207745,46.7842474 Z" fill="#FFF" fill-rule="nonzero"/></g></svg>