<svg viewBox="0 0 90 90" xmlns="http://www.w3.org/2000/svg"><g fill="none"><path fill="#01928B" d="M0 0h90v90H0z"/><path d="M45 11c18.749 0 34 15.25 34 33.998C79 63.748 63.749 79 45 79c-18.749 0-34-15.253-34-34 0-18.75 15.251-34 34-34Zm0 3.983c-16.552 0-30.017 13.465-30.017 30.015 0 16.553 13.466 30.02 30.017 30.02v.001c16.55 0 30.017-13.467 30.017-30.02 0-16.55-13.467-30.016-30.018-30.016Zm10.068 28.89c.882.493 1.501 2.28 1.358 3.886-.101 1.14-1 2.445-1.228 3.924.752-.94 1.745-1.423 2.458-1.007 1.094.633 1.176 2.17.476 3.165-.423.597-.956.81-1.555.821.201-.193.355-.43.45-.691.252-.683.192-1.334-.384-1.55-.552-.2-1.047.252-1.3.936-.06.163-.092.327-.107.484.269 1.247 1.003 1.783 2.003 2.084 1.039.09 2.077.189 3.114.298 1.373-.376 2.433-1.479 2.81-2.897-1.412.035-2.6.797-3.199 2.079a.232.232 0 0 1-.272.133c-.13-.03-.188-.133-.188-.217v-.009l.755-6.048.003-.012c.028-.065.104-.137.248-.125.165.015.22.123.22.182.125 1.4.619 2.412 2.594 2.82-.017-1.437-.768-2.64-2.041-3.23l.001.001.015.006-.035-.014a.225.225 0 0 1-.11-.183l.005-.075c.028-.147.13-.204.214-.199.28.039 2.667.352 2.753.369.253.04.453.156.576.332.137.189.179.433.129.729-.066.382-.803 5.555-.956 6.626l-.022.153c-.007.045-.073.592-.093.754-.026.17-.242.34-.242.34s-1.22.824-1.435.99c-.208.159-.09.434-.09.434l1.082 1.583a.93.93 0 0 1 .133.212.58.58 0 0 1-.196.673l-17.748.005h-.438L26.99 61.63a.574.574 0 0 1-.234-.469c0-.07.012-.138.036-.204l.021-.044c.022-.04.06-.104.11-.168l1.084-1.582s.117-.276-.088-.434a70.082 70.082 0 0 0-1.437-.99s-.216-.17-.24-.342c-.022-.16-.086-.708-.092-.753-.04-.26-.254-1.766-.474-3.295l-.082-.572a384.42 384.42 0 0 0-.424-2.912c-.05-.296-.009-.54.127-.728.124-.177.324-.293.578-.332.084-.016 2.472-.33 2.752-.369.086-.006.186.052.214.198.032.162-.072.255-.142.275l.007-.004.01-.005-.015.007.003-.001-.174.087c-1.098.586-1.763 1.652-1.846 2.923l-.008.214c1.974-.408 2.469-1.42 2.593-2.82 0-.059.056-.167.22-.182.145-.01.222.06.248.125l.007.012.753 6.047a.231.231 0 0 1-.19.227.23.23 0 0 1-.27-.133c-.6-1.282-1.788-2.044-3.199-2.08.376 1.419 1.436 2.52 2.815 2.893 1.031-.105 2.069-.204 3.108-.294 1-.3 1.734-.836 2.003-2.083a1.826 1.826 0 0 0-.109-.484c-.252-.684-.744-1.136-1.298-.936-.577.216-.637.867-.383 1.55.096.262.25.498.45.69-.6-.011-1.131-.224-1.554-.82-.703-.996-.62-2.532.474-3.165.712-.416 1.705.069 2.455 1.007-.226-1.479-1.124-2.784-1.226-3.924-.142-1.607.476-3.393 1.358-3.885.917.336 1.755 1.994 1.833 3.597.054 1.142-.72 2.649-.762 4.156.62-1.075 1.563-1.715 2.337-1.393 1.168.478 1.463 1.987.904 3.069-.348.648-.84.931-1.433 1.024.175-.217.296-.473.354-.746.151-.714.013-1.346-.593-1.478-.573-.125-1.001.382-1.157 1.096-.052.23-.06.45-.025.657l-.001-.002.09.193c.434.865 1.144 1.222 2.016 1.459l.19.048c1.038-.046 2.089-.082 3.139-.105l.111-.022c1.482-.24 2.235-1.185 2.383-2.96-1.298.196-2.312.959-2.786 2.125-.022.07-.1.178-.277.178-.198 0-.27-.132-.27-.222v-5.594a.252.252 0 0 1 .252-.18.268.268 0 0 1 .254.168v.003l.008.009c.259 1.03.793 2.002 2.828 2.168-.169-1.976-1.073-2.585-2.392-2.87a.218.218 0 0 1-.152-.073.232.232 0 0 1-.065-.161v-.017a.26.26 0 0 1 .085-.172.23.23 0 0 1 .149-.058h6.098a.226.226 0 0 1 .148.058c.049.044.08.106.084.172v.017c0 .06-.022.117-.064.16a.218.218 0 0 1-.152.074c-1.318.285-2.222.894-2.388 2.87 2.032-.166 2.566-1.138 2.826-2.168l.006-.009a.265.265 0 0 1 .254-.172c.116-.004.22.07.254.18v5.594c0 .09-.072.222-.273.222-.175 0-.253-.108-.275-.177-.474-1.167-1.487-1.93-2.789-2.126.15 1.774.904 2.72 2.386 2.96l.111.022c1.047.024 2.093.059 3.14.106 1.022-.253 1.842-.626 2.296-1.702v.001l.017-.156a1.742 1.742 0 0 0-.012-.328l-.03-.17c-.156-.715-.586-1.221-1.159-1.097-.604.132-.744.765-.59 1.479.056.273.176.529.35.746-.592-.094-1.084-.376-1.43-1.024-.561-1.083-.266-2.591.904-3.07.772-.322 1.716.318 2.335 1.393-.04-1.507-.814-3.013-.763-4.156.08-1.603.917-3.261 1.833-3.597Zm-10.064 12.38a.283.283 0 0 0-.192.08l-1.417 1.417a.28.28 0 0 0 0 .408l1.417 1.417a.28.28 0 0 0 .186.082.277.277 0 0 0 .19-.082l1.416-1.417a.277.277 0 0 0 0-.408l-1.416-1.416a.27.27 0 0 0-.184-.08Zm-7.283.88-3.974.215a.733.733 0 0 0-.7.766l.034.566a.732.732 0 0 0 .772.693l3.978-.21a.735.735 0 0 0 .696-.772l-.032-.561a.735.735 0 0 0-.774-.698Zm14.56 0a.737.737 0 0 0-.777.697l-.03.56c-.021.406.29.75.695.773l3.978.21a.733.733 0 0 0 .774-.693l.032-.566a.73.73 0 0 0-.7-.766Zm6.002-25.649a1.25 1.25 0 0 1 1.253 1.259c0 .382-.175.722-.45.955.469.113.924.271 1.36.474-.04-.117-.06-.24-.063-.364a1.257 1.257 0 1 1 2.514 0 1.25 1.25 0 0 1-1.015 1.228c.385.29.743.612 1.069.962v-.04a1.255 1.255 0 1 1 1.254 1.255c-.125 0-.234-.022-.345-.056.233.361.448.742.63 1.136a1.258 1.258 0 0 1 2.295.71c0 .693-.564 1.255-1.255 1.255-.144 0-.272-.03-.4-.072.074.346.134.696.174 1.057a1.25 1.25 0 0 1 1.735 1.16 1.253 1.253 0 0 1-1.255 1.255 1.2 1.2 0 0 1-.538-.129c-.02.135-.042.276-.058.417-.04.144-.073.274-.106.393a1.253 1.253 0 1 1-.864 2.281c-.17.403-.393.921-.637 1.516l-1.69-.22c.475-1.028.76-1.62.76-1.62.029-.195.56-1.12.775-1.885.195-.621.304-1.768.304-1.958 0-1.98-.692-3.772-1.853-5.073-1.162-1.298-2.78-2.102-4.628-2.102-.376 0-.824.02-1.853.22-1.052.26-1.553.406-2.482.652-1.573.486-2.216.734-4.467 1.817-.226.108-.318.309-.364.458a.954.954 0 0 0-.036.235v.036l-.092 8.369H46.55v-9.178c.001-.083.014-.295.092-.536.098-.31.33-.608.718-.866.305-.199.612-.376.916-.545a1.258 1.258 0 0 1-.564-1.044 1.258 1.258 0 0 1 2.517 0c0 .063-.016.128-.02.188.32-.11.64-.213.964-.308a1.247 1.247 0 0 1-.646-1.088 1.258 1.258 0 0 1 2.515 0c0 .211-.063.411-.154.587l.42-.115.232-.062.39-.105.181-.04a1.255 1.255 0 1 1 1.761-.384c.005-.003.017-.003.024-.008.436-.074.928-.088 1.372-.088a1.242 1.242 0 0 1-.24-.73c0-.7.567-1.259 1.255-1.259Zm-26.56-.007c.686 0 1.251.56 1.251 1.258 0 .274-.09.522-.24.73.444 0 .937.014 1.372.09.007.005.02.005.026.009a1.252 1.252 0 0 1-.186-.66 1.251 1.251 0 0 1 2.452-.363c.159.529-.047 1.1-.506 1.407.066.011.124.025.182.04l.39.104.23.063.421.114a1.299 1.299 0 0 1-.155-.587 1.257 1.257 0 0 1 2.514 0c0 .465-.259.874-.64 1.086.298.092.6.186.882.282.028.006.054.018.078.028-.005-.06-.02-.124-.02-.188a1.259 1.259 0 0 1 2.517 0c0 .436-.229.818-.567 1.044.305.169.613.346.92.545.387.258.62.556.717.863.09.279.093.517.092.566v9.15h-1.402l-.094-8.37v-.036a.939.939 0 0 0-.036-.233c-.047-.15-.139-.352-.364-.458-2.252-1.083-2.894-1.33-4.466-1.819-.931-.243-1.431-.39-2.486-.65-1.026-.2-1.474-.22-1.85-.22-1.847 0-3.466.804-4.63 2.103-1.157 1.3-1.852 3.09-1.852 5.072 0 .188.11 1.336.305 1.959.214.764.745 1.688.774 1.883 0 0 .286.593.76 1.62-.462.062-1.176.15-1.69.22-.246-.594-.466-1.112-.636-1.515a1.25 1.25 0 0 1-1.957-1.036 1.245 1.245 0 0 1 1.093-1.244c-.035-.12-.067-.253-.107-.394-.016-.142-.038-.282-.058-.417a1.24 1.24 0 0 1-.538.128 1.253 1.253 0 0 1-1.255-1.256 1.25 1.25 0 0 1 1.735-1.158c.04-.36.1-.713.174-1.057a1.24 1.24 0 0 1-.402.072 1.258 1.258 0 0 1-.887-2.143 1.257 1.257 0 0 1 1.929.178c.183-.394.396-.774.63-1.136a1.21 1.21 0 0 1-.346.054c-.694 0-1.254-.56-1.254-1.253a1.255 1.255 0 1 1 2.51 0v.038a8.277 8.277 0 0 1 1.067-.962 1.252 1.252 0 0 1-1.016-1.227 1.26 1.26 0 0 1 2.517 0c0 .127-.026.245-.064.362.437-.2.89-.359 1.357-.474a1.253 1.253 0 0 1 .809-2.212Zm13.283 13.269a1.2 1.2 0 0 1 1.202 1.207c0 .664-.531 1.202-1.202 1.202h-.012a1.2 1.2 0 0 1-1.202-1.202 1.2 1.2 0 0 1 1.202-1.207h.012Zm0-2.811c.638 0 1.148.516 1.148 1.148 0 .637-.51 1.15-1.148 1.15h-.012a1.146 1.146 0 0 1-1.148-1.15c0-.632.51-1.148 1.148-1.148Zm0-2.717a1.092 1.092 0 0 1 1.092 1.098c0 .604-.484 1.093-1.092 1.097h-.008a1.094 1.094 0 0 1-1.095-1.097c0-.609.483-1.096 1.095-1.098h.008Zm0-2.538a1.046 1.046 0 1 1 0 2.092h-.008a1.046 1.046 0 1 1 0-2.092h.008Zm-.002-2.476a1.033 1.033 0 1 1 0 2.066 1.033 1.033 0 1 1-.008-2.066Zm.002-5.5a2.665 2.665 0 0 1 2.663 2.662 2.668 2.668 0 0 1-5.337 0 2.667 2.667 0 0 1 2.665-2.663Zm2.745-7.592c.055 0 .108.018.15.052a.223.223 0 0 1 .07.166.234.234 0 0 1-.052.169.257.257 0 0 1-.15.066c-.682.145-1.15.39-1.489.756-.356.424-.564 1.02-.644 1.81 1.809-.154 2.283-1.022 2.52-1.945a.253.253 0 0 1 .246-.173c.107-.001.2.069.23.172l.008.016v5.034c0 .091-.078.22-.261.214-.18 0-.224-.102-.246-.148l-.006-.025c-.428-1.048-1.332-1.726-2.5-1.9.07.826.283 1.445.66 1.883.337.368.788.602 1.482.75l.02.004a.27.27 0 0 1 .13.066c.04.05.06.113.053.176 0 .06-.026.118-.07.158a.305.305 0 0 1-.165.057h-5.472a.305.305 0 0 1-.165-.057.214.214 0 0 1-.07-.158.236.236 0 0 1 .053-.176.27.27 0 0 1 .13-.066l.02-.004c.694-.148 1.142-.382 1.482-.75.376-.438.59-1.057.66-1.883-1.168.174-2.072.852-2.5 1.9l-.007.025c-.022.046-.066.148-.248.148-.18.006-.258-.123-.258-.214V22.2l.006-.016a.239.239 0 0 1 .233-.172.253.253 0 0 1 .245.173c.237.923.71 1.791 2.519 1.945-.08-.79-.288-1.387-.644-1.81-.336-.367-.806-.61-1.488-.756a.263.263 0 0 1-.15-.066.235.235 0 0 1-.053-.169.223.223 0 0 1 .07-.166.232.232 0 0 1 .15-.052Z" fill="#FFF"/></g></svg>