<svg xmlns="http://www.w3.org/2000/svg" viewBox="0 0 90 90"><defs><linearGradient id="A" x1="50%" x2="50%" y1="0%" y2="100%"><stop offset="0%" stop-color="#571f75"/><stop offset="100%" stop-color="#491854"/></linearGradient></defs><g fill-rule="evenodd"><path fill="url(#A)" d="M0 0h90v90H0z"/><path fill="#fff" fill-rule="nonzero" d="M76.201 40.277h-.052l-5.699-5.73a1.09 1.09 0 0 1-.233-.365c-.051-.133-.077-.274-.078-.417V20.534c.003-1.348-.529-2.641-1.476-3.595s-2.234-1.487-3.575-1.485h-3.575c-1.339.007-2.622.539-3.575 1.485s-1.487 2.245-1.477 3.594v.078l-8.419-8.205a5.05 5.05 0 0 0-7.072.078L12.475 41.137c-.461.474-.83 1.031-1.088 1.641a5.12 5.12 0 0 0 1.088 5.548l2.72 2.709c1.957 1.969 5.127 1.98 7.098.026l21.89-21.697c.435-.417 1.119-.417 1.554 0l21.449 21.567a1.14 1.14 0 0 1 0 1.563l-2.642 2.657c-.435.417-1.119.417-1.554 0L47.913 40.46c-.951-.926-2.225-1.44-3.549-1.433a4.99 4.99 0 0 0-3.523 1.485L26.386 55.124a5.17 5.17 0 0 0-1.477 3.594c-.006 1.348.526 2.643 1.477 3.594l2.668 2.683c1.957 1.969 5.127 1.98 7.098.026l7.797-7.736c.435-.417 1.119-.417 1.554 0l7.746 7.658a1.09 1.09 0 0 1 .233.365c.051.133.077.274.078.417-.007.295-.127.575-.337.781l-7.668 7.736c-.026 0-.052-.026-.104-.026a2.99 2.99 0 0 0-1.606.495c-.475.319-.844.772-1.062 1.302a2.83 2.83 0 0 0-.155 1.667 2.94 2.94 0 0 0 .777 1.485 2.73 2.73 0 0 0 1.477.781c.556.106 1.131.052 1.658-.156.527-.219.978-.591 1.295-1.068a2.96 2.96 0 0 0 .492-1.615v-.052l7.72-7.762a4.76 4.76 0 0 0 1.088-1.667c.518-1.25.518-2.657 0-3.907-.261-.615-.639-1.173-1.114-1.641l-7.746-7.658a5.05 5.05 0 0 0-7.098 0l-7.823 7.762c-.435.417-1.119.417-1.554 0L29.132 59.5a1.14 1.14 0 0 1 0-1.563l14.455-14.612a1.12 1.12 0 0 1 .777-.339c.29-.003.569.109.777.313l15.077 14.717c.958.915 2.228 1.428 3.549 1.433a4.99 4.99 0 0 0 3.523-1.485l2.642-2.657a5.17 5.17 0 0 0 1.477-3.594c.006-1.348-.526-2.643-1.477-3.594L48.457 26.525c-1.957-1.969-5.127-1.98-7.098-.026L19.47 48.196c-.435.417-1.119.417-1.554 0l-2.694-2.735a1.14 1.14 0 0 1 0-1.563l28.495-28.652a1.12 1.12 0 0 1 .777-.339c.29-.003.569.109.777.313l15.103 14.691v-9.377a1.23 1.23 0 0 1 .311-.781c.208-.203.487-.316.777-.313h3.549c.288.009.563.119.777.313a1.2 1.2 0 0 1 .337.781v13.232a5.17 5.17 0 0 0 1.477 3.594l5.673 5.704c0 .026-.026.078-.026.104a3.03 3.03 0 0 0 .492 1.615c.325.47.773.84 1.295 1.068a2.86 2.86 0 0 0 3.134-.651c.407-.401.678-.92.777-1.485a3.03 3.03 0 0 0-.155-1.667c-.218-.53-.588-.984-1.062-1.302-.446-.317-.982-.482-1.528-.469z"/></g></svg>