<svg viewBox="0 0 90 90" xmlns="http://www.w3.org/2000/svg"><g fill="none" fill-rule="evenodd"><path fill="#FFF" d="M0 0h90v90H0z"/><g fill-rule="nonzero"><path d="M75 70.279C75 72.334 73.321 74 71.25 74h-52.5C16.679 74 15 72.334 15 70.279V47.95c0-2.06 1.2-4.913 2.65-6.351l24.7-24.512a3.77 3.77 0 0 1 5.3 0L72.35 41.6A10.329 10.329 0 0 1 75 47.95v22.33Z" fill="#F2F4F9"/><path d="m72.35 41.6-24.7-24.512a3.77 3.77 0 0 0-5.3 0L17.65 41.6A10.329 10.329 0 0 0 15 47.95v22.33c0 .987.395 1.933 1.098 2.631A3.765 3.765 0 0 0 18.75 74h23.075L31.65 63.878a4.53 4.53 0 0 1-1.65.298 5.121 5.121 0 0 1-4.881-3.53 5.064 5.064 0 0 1 1.894-5.69 5.157 5.157 0 0 1 6.04.05 5.063 5.063 0 0 1 1.797 5.721l7.9 7.865v-28.73a5.074 5.074 0 0 1-2.743-5.714c.537-2.307 2.607-3.94 4.993-3.94s4.456 1.633 4.993 3.94a5.074 5.074 0 0 1-2.743 5.715v20.145l7.875-7.79a5.068 5.068 0 0 1 2.27-5.918 5.154 5.154 0 0 1 6.322.865 5.056 5.056 0 0 1 .572 6.307 5.146 5.146 0 0 1-6.064 1.97L47.25 66.335V74h24c2.071 0 3.75-1.666 3.75-3.721V47.95c0-2.06-1.2-4.913-2.65-6.351Z" fill="#18BCF2"/></g></g></svg>