<svg viewBox="0 0 90 90" xmlns="http://www.w3.org/2000/svg"><defs><radialGradient cx="27.089%" cy="19.391%" fx="27.089%" fy="19.391%" r="107.301%" gradientTransform="matrix(1 0 0 .97016 0 .006)" id="a"><stop stop-color="#FFF" stop-opacity=".1" offset="0%"/><stop stop-color="#FFF" stop-opacity="0" offset="100%"/></radialGradient></defs><g fill="none"><path fill="#FFF" d="M0 0h90v90H0z"/><path fill="#0F9D58" d="M60.332 70.617H28.668l-2.542-6.323 2.542-6.324h31.664l1.583 6.324z"/><path d="M72.997 40.316v27.14a3.164 3.164 0 0 1-3.166 3.16h-9.5V44.269L44.5 28.459l2.178-6.124 6.713-2.763.006.006L72.17 38.346c.513.53.808 1.233.827 1.97Z" fill="#4285F4"/><path d="M28.668 44.268v26.349H19.17a3.164 3.164 0 0 1-3.166-3.162v-10.54l5.937-8.992 6.728-3.655Z" fill="#F4B400"/><path d="M53.397 19.578 44.5 28.466 16.003 56.92V40.322a3.07 3.07 0 0 1 .827-1.973l25.435-25.426A3.314 3.314 0 0 1 44.5 12c.792 0 1.662.354 2.235.923l6.653 6.652" fill="#DB4437"/><path d="m72.17 38.346-25.438-25.43A3.302 3.302 0 0 0 44.5 12c-.792 0-1.662.354-2.235.923l-25.439 25.42A3.093 3.093 0 0 0 16 40.316v.395a3.07 3.07 0 0 1 .826-1.97l25.439-25.426a3.314 3.314 0 0 1 2.235-.923c.792 0 1.662.354 2.235.923l25.439 25.423A2.94 2.94 0 0 1 73 40.711v-.395a2.957 2.957 0 0 0-.83-1.97Z" fill="#FFF" opacity=".2"/><path d="M19.17 70.222a3.164 3.164 0 0 1-3.167-3.162v.395a3.164 3.164 0 0 0 3.166 3.162h9.5v-.395h-9.5Z" fill="#BF360C" opacity=".2"/><path d="M69.83 70.222h-9.498v.395h9.499a3.164 3.164 0 0 0 3.166-3.162v-.395a3.164 3.164 0 0 1-3.166 3.162Z" fill="#1A237E" opacity=".2"/><path fill="#263238" opacity=".2" d="M44.5 70.222H28.668v.395h31.664v-.395z"/><path fill="#FFF" opacity=".2" d="M44.5 57.97H28.668v.395h31.664v-.395z"/><path d="M56.17 26.346 30.732.916A3.302 3.302 0 0 0 28.5 0c-.792 0-1.662.354-2.235.923L.826 26.343A3.093 3.093 0 0 0 0 28.316v27.269a3.164 3.164 0 0 0 3.166 3.161h50.661a3.164 3.164 0 0 0 3.167-3.161v-27.27a2.916 2.916 0 0 0-.824-1.97ZM44.332 45.97H12.668V32.268L28.5 16.459l15.832 15.809V45.97Z" fill="url(#a)" transform="translate(16 12)"/><path fill="#1A237E" opacity=".2" d="m44.782 28.178-.282.285L60.332 44.27v-.563z"/><path fill="#BF360C" opacity=".2" d="M28.668 44.268v.562L16.003 57.477v-.563z"/></g></svg>