<svg viewBox="0 0 90 90" xmlns="http://www.w3.org/2000/svg"><g fill="none" fill-rule="evenodd"><path d="M90 0v55.969a16.021 16.021 0 0 1-8.3 14.029L45 90 8.295 70.003A16.032 16.032 0 0 1 0 55.98V0h90Z" fill="#005AC8"/><path d="M65.849 14H36.988C28.743 14 22 20.729 22 28.95c0 8.223 6.743 14.952 14.988 14.952h16.019c2.839 0 5.156 2.316 5.156 5.147 0 2.831-2.317 5.148-5.156 5.148l-28.867-.11V64h28.867C61.252 64 68 57.271 68 49.05c0-8.223-6.748-14.952-14.993-14.952H36.982c-2.839 0-5.157-2.316-5.157-5.147 0-2.831 2.318-5.148 5.157-5.148l28.867.11V14Z" fill="#FFF"/></g></svg>