<svg viewBox="0 0 90 90" xmlns="http://www.w3.org/2000/svg"><g fill="none" fill-rule="evenodd"><path fill="#012A3B" d="M0 0h90v90H0z"/><g fill-rule="nonzero"><path d="M74.804 22.332a.632.632 0 0 1 .576.308.657.657 0 0 1-.217.892l-.031.02-.162.096-.083.05-.207.124-.746.446-.381.228-9.764 5.842-.746.446-.233.14c.2.23.402.468.604.71 5.622 6.764 9.04 16.585 10.672 22.267a11.474 11.474 0 0 1-1.701 9.83c-3.675 5.129-11.511 12.13-26.88 12.135-16.778.007-25.441-8.399-29.603-13.573-1.773-2.223-2.245-5.242-1.241-7.934 2.367-6.324 7.192-18.441 11.022-22.841 2.207-2.534 4.752-4.727 7.441-6.42l-12.62-9.946a.775.775 0 0 1-.232-.85.764.764 0 0 1 .971-.478l12.56 4.752.853.322 1.711.648.853.322 4.575 1.731c.972-.17 1.936-.258 2.885-.258 3.585-.002 6.97.79 10.365 2.798l6.615-.605.843-.077 12.301-1.125Z" fill="#FF4C46"/><path d="M67.864 42.174c2.088 4.644 2.825 13.362-3.96 14.749-5.198 1.067-9.998-4.24-13.548-9.201a1.112 1.112 0 0 0-1.571-.244 1.14 1.14 0 0 0-.248.252c-2.342 3.292-8.204 13.176-16.957 10.813-8.278-2.238-10.094-11.674-6.648-18.231 5.099-9.887 12.543-13.152 25.374-3.587 9.514-6.785 14.668-.995 17.558 5.449Zm-13.52 16.222a.126.126 0 0 1 .15.032.131.131 0 0 1-.014.183l-1.658 1.864-.343.386-1.658 1.864a.634.634 0 0 1-.89.06c-1.36-1.176-3.63-3.637-4.718-4.845a.137.137 0 0 1-.017-.13.135.135 0 0 1 .174-.078 10.393 10.393 0 0 0 8.973.664Zm-5.393-8.144a.854.854 0 0 1 1.22.016l4.545 5.222a.473.473 0 0 1-.134.723 10.172 10.172 0 0 1-4.411 1.163c-2.021-.002-4.089-1.347-4.935-1.967a.471.471 0 0 1-.072-.687l3.736-4.423a.39.39 0 0 0 .051-.047ZM38.64 40.525c-.082-.021-.185.042-.288.105-1.914.676-2.866 2.746-2.297 4.662.652 1.937 2.684 2.888 4.577 2.295 1.914-.676 2.851-2.772 2.297-4.662.005-.013-.007-.048-.03-.091-.588-1.865-2.468-2.84-4.259-2.31Zm22.59 1.76a3.512 3.512 0 0 0-4.96-.796 3.779 3.779 0 0 0-1.06 5.137 3.631 3.631 0 0 0 5.081 1.078 3.778 3.778 0 0 0 1.102-5.165 3.56 3.56 0 0 0-.163-.253Z" fill="#FFF"/></g></g></svg>