<svg viewBox="0 0 90 90" xmlns="http://www.w3.org/2000/svg"><g fill="none"><path fill="#FFF" d="M0 0h90v90H0z"/><path d="M45 1c24.3 0 44 19.7 44 44S69.3 89 45 89 1 69.3 1 45 20.7 1 45 1Zm0 7C24.565 8 8 24.565 8 45s16.565 37 37 37 37-16.565 37-37S65.435 8 45 8Z" fill="#000"/><path d="m40.864 58.608.505.001 1.016-.012.997-.027.466-.023.377-.029.297-.035.158-.026.067-.015.114-.031.089-.035a.302.302 0 0 0 .11-.08.169.169 0 0 0 .014-.048l.015-.096.013-.142.018-.294.016-.388.021-.843.018-1.554.004-1.619-.007-2.023-.014-1.53-.039-2.64-.034-1.542-.025-.804-.052-1.165-.039-.606-.046-.545-.034-.334-.06-.461-.045-.285-.049-.27-.054-.256-.058-.245-.064-.237-.07-.23-.075-.226-.124-.336-.09-.226-.203-.465-.17-.37-.06-.129c-1.543-3.19-4.15-4.94-8.235-5.483-2.662-.36-4.71.125-6.492 1.566l-.568.466-.207.162-.25.186-.115.074a.17.17 0 0 1-.061.027l-.005-.007-.01-.052-.016-.171-.032-.652-.041-1.424-.035-1.93-.028-2.915-.063-7.13-3.794-.062L20 21l.012 26.219.06 8.375.037 1.98.032.786.017.165c.003.014.006.021.009.022l.098.01.395.022.337.011.813.014.46.003 1.075-.002 1.629-.023 1.155-.033.751-.036.321-.025.15-.017a.412.412 0 0 0 .113-.028l.012-.011.024-.037.023-.058.02-.08.02-.103.027-.201.024-.26.028-.446.027-.729.032-1.848.011-1.973.005-3.206.011-1.577.019-1.076.029-.928.04-.794.04-.518.033-.311.036-.287.04-.264.046-.243.05-.224.056-.207.061-.192.068-.179.073-.168.08-.158c.013-.026.027-.051.042-.076l.09-.148c.015-.024.03-.048.047-.072l.1-.142.165-.21.182-.213.065-.073c1-1.105 2.189-1.522 4.002-1.418 1.752.1 2.8.693 3.508 1.998l.194.381.082.18.069.181.044.147.04.164.034.187.03.215.042.437.038.686.032 1.084.026 1.7.057 6.18.027 1.68.029 1.11.03.715.037.545.044.392.02.118.02.098.024.079.024.06.025.044a.13.13 0 0 0 .028.028.54.54 0 0 0 .194.057l.175.025.224.022.42.028.333.016.775.023 1.147.015Zm15.557 13.886.146-.646.015-.148.02-.38.028-.915.032-1.756.022-2.216.019-5.326.033-2.57.032-1.223.015-.345.01-.163.01-.1.01-.05c.001-.004.003-.006.004-.006l.022.004.091.037.148.068.43.218.409.218.297.164c2.147 1.167 3.315 1.459 5.775 1.459l.594-.01.267-.009.481-.024c.904-.06 1.486-.196 2.369-.52 3.837-1.353 6.618-4.017 8.19-7.86l.256-.65.093-.255.078-.243.066-.238.055-.242.044-.254a6.23 6.23 0 0 0 .018-.135l.031-.287.023-.32.018-.362.017-.636.013-1.068-.004-.857-.012-.7-.015-.394-.022-.35-.03-.312a7.103 7.103 0 0 0-.018-.146l-.043-.276a5.829 5.829 0 0 0-.026-.133l-.06-.261-.072-.263-.133-.419-.107-.31c-1.168-3.21-3.649-5.94-6.755-7.483-2.543-1.251-5.191-1.585-8.068-1.022-.771.167-2.106.625-2.96 1.022l-.347.161-.491.218-.295.124-.372.145-.186.064-.127.034a.221.221 0 0 1-.038.004 1.1 1.1 0 0 1-.286-.076l-.225-.086-.263-.111-.29-.131-.304-.145-.154-.076c-.934-.467-1.505-.626-2.814-.73l-.716-.048-.364-.02-.308-.01-.257-.001c-.04 0-.077.001-.112.003l-.193.014c-.26.03-.396.095-.49.208l-.014.029-.021.076-.02.12-.036.377-.046.952-.021.751-.027 1.57-.023 2.666-.011 3.537.002 5.52.01 4.082.062 19.368 3.46.062 3.461.042Zm1.084-25.684c-.458-2.252.542-4.712 2.419-6.067 1.417-.98 2.105-1.188 3.856-1.126 1.272.063 1.793.188 2.69.667 1.73.96 2.73 2.377 3.19 4.545.166.767.173 1.134-.034 1.912l-.121.427-.075.246c-1.876 6.192-10.653 5.733-11.925-.604Z" fill="#000"/></g></svg>