<svg xmlns="http://www.w3.org/2000/svg" viewBox="0 0 90 90"><path fill="#FFF" d="M0 0h90v90H0z"/><path d="M42.598 57.739 30.983 46.083a3.208 3.208 0 0 1-.553-3.782l11.617-21.62A3.185 3.185 0 0 1 44.853 19c1.172 0 2.25.646 2.805 1.682L59.273 42.3a3.208 3.208 0 0 1-.55 3.78L47.104 57.739a3.18 3.18 0 0 1-4.507 0Z" fill="#1C1126"/><path d="M78.385 47.301 62.118 30.974a5.494 5.494 0 0 0-6.65-.875l6.527 12.147a3.518 3.518 0 0 1-.606 4.145l-3.99 4.002 8.953 8.986a5.504 5.504 0 0 0 7.799 0l4.234-4.25a5.545 5.545 0 0 0 0-7.828Zm-49.774-.91a3.516 3.516 0 0 1-.603-4.148L34.534 30.1a5.494 5.494 0 0 0-6.652.875L11.615 47.301a5.545 5.545 0 0 0 0 7.828l4.234 4.25a5.504 5.504 0 0 0 7.799 0l8.952-8.986-3.989-4.005v.003Z" fill="#2E0547"/></svg>