<svg viewBox="0 0 90 90" xmlns="http://www.w3.org/2000/svg"><defs><linearGradient x1="50.279%" y1="26.464%" x2="48.884%" y2="71.751%" id="a"><stop stop-color="#00B8F1" offset="32.8%"/><stop stop-color="#9758FB" offset="97.3%"/></linearGradient><linearGradient x1="80.742%" y1="76.435%" x2="-19.071%" y2="-17.499%" id="b"><stop stop-color="#FFEE45" offset="0%"/><stop stop-color="#9758FB" offset="100%"/></linearGradient><linearGradient x1="67.877%" y1="26.025%" x2="46.791%" y2="63.261%" id="c"><stop stop-color="#00B8F1" offset="32.8%"/><stop stop-color="#9758FB" offset="79%"/></linearGradient><linearGradient x1="-4.843%" y1="49.999%" x2="98.427%" y2="49.999%" id="d"><stop stop-color="#00B8F1" offset="0%"/><stop stop-color="#9758FB" offset="30.6%"/><stop stop-color="#FFEE45" offset="98.9%"/></linearGradient></defs><g fill="none"><path d="M78.814 1.122c-2.186-1.03-4.63-1.287-7.073-1.03-.386 0-58.258 4.89-58.258 4.89L54.38 53.231l7.459.386L85.245 28.27c7.845-7.848 6.173-21.873-6.43-27.148Z" fill="url(#a)"/><path d="m68.912 60.693-1.672 2.574-20.577-25.09L26.73 51.558l33.052 35.897c.643.644 1.543 1.158 2.443 1.673 1.8.9 3.859 1.158 5.916.515 1.93-.515 3.344-1.544 4.501-2.702l13.89-13.767-17.62-12.48Z" fill="url(#b)"/><path d="M58.752 53.488 25.186 10.772c-1.414-2.059-3.6-3.731-6.43-4.89-2.186-.9-4.758-1.157-7.073-.643C-.663 7.941-3.493 21.451 4.48 28.656l23.277 23.932 30.994.9Z" fill="url(#c)"/><path d="M81.258 52.073c-4.373-1.287-6.816-.9-12.603-1.03l-48.87-6.947-14.018 13.38c-8.874 8.75-7.46 24.06 5.658 30.623a17.834 17.834 0 0 0 10.546 1.672c24.82-4.632 55.943-12.094 56.2-12.094.515-.129 1.158-.257 1.672-.386 8.102-2.445 11.446-10.036 9.517-16.469-1.029-3.603-3.858-7.462-8.102-8.75Z" fill="url(#d)"/><path fill="#000" d="M17.213 17.205H72.77v55.583H17.213z"/><path d="M22.357 24.539H27.5v9.264h9.517v-9.264h5.144v23.288h-5.144v-9.392H27.5v9.392h-5.144zm23.535 0h10.802c2.701 0 4.759.772 6.045 2.059 1.029 1.029 1.543 2.315 1.543 3.988v.129c0 2.573-1.415 4.117-3.086 5.018 2.7 1.029 4.372 2.573 4.372 5.79v.128c0 4.246-3.472 6.433-8.745 6.433h-11.06V24.54h.129Zm13.503 6.82c0-1.545-1.157-2.446-3.344-2.446h-5.015v4.89h4.758c2.186.128 3.601-.644 3.601-2.445Zm-2.572 6.818h-5.916v5.147h6.045c2.314 0 3.6-.772 3.6-2.574v-.128c.13-1.415-1.028-2.445-3.729-2.445ZM22.485 62.366H43.32v3.474H22.485z" fill="#FFF"/></g></svg>