<svg xmlns="http://www.w3.org/2000/svg" viewBox="0 0 90 90"><path fill="#FFF" d="M0 0h90v90H0z"/><path d="m74.795 44.185-1.774-2.826-6.497-10.38-3.221-5.164a1.459 1.459 0 0 0-.41-.407c-.163-.136-.354-.218-.545-.3-.191-.054-.355-.108-.52-.108H53.53c-.545 0-1.2.38-1.474.815l-.081.136c.136-.217.327-.435.655-.435.436 0 .682.354.846.625l3.003 4.837 8.27 13.207c.274.462.274 1.195 0 1.63L53.422 63.86c-.163.271-.41.625-.846.625-.328 0-.519-.218-.655-.435l.082.136c.273.462.955.815 1.474.815h8.298c.546 0 1.201-.38 1.474-.815l11.547-18.37c.273-.462.273-1.195 0-1.63Z" fill="#F29EC4"/><path d="M51.92 64.022c.136.217.327.435.655.435.437 0 .683-.354.846-.625l4.204-6.712-19.627-31.305c-.273-.462-.955-.815-1.474-.815h-8.326c-.41 0-.873.217-1.2.49a1.083 1.083 0 0 0-.274.325l-.082.136c.137-.217.328-.435.656-.435.354 0 .573.218.737.435.054.054.081.136.109.19l23.776 37.88Z" fill="#E92F8C"/><path d="M37.425 64.457c-.437 0-.683-.354-.846-.625L25.25 45.815c-.273-.462-.273-1.195 0-1.63l7.098-11.332-4.204-6.712c-.028-.054-.082-.108-.11-.19-.163-.217-.382-.435-.736-.435-.328 0-.52.218-.656.435L15.205 44.185c-.273.462-.273 1.195 0 1.63l11.52 18.343c.272.462.955.815 1.473.815h8.299c.546 0 1.2-.38 1.474-.815l.082-.136c-.137.217-.3.435-.628.435Z" fill="#AD266A"/><path d="M44.986 52.99 39.964 45l-7.616 12.147 4.203 6.712c.164.271.41.625.847.625.327 0 .518-.218.655-.435l6.933-11.06Zm5.05-8.017 7.616-12.147-1.173-1.875-3.03-4.837c-.164-.272-.41-.625-.847-.625-.327 0-.518.218-.655.435l-6.933 11.06 5.022 7.989Z" fill="#751844"/></svg>