<svg viewBox="0 0 90 90" xmlns="http://www.w3.org/2000/svg"><g fill="none" fill-rule="evenodd"><path fill="#FFF" fill-rule="nonzero" d="M0 0h90v90H0z"/><path d="M51.176 44.126c1.542-7.034 5.578-14.752 14.627-21.287L36.598 14s-11.93 7.225-14.919 22.623l27.392-13.676c-1.418 8.648-.245 15.63 2.105 21.18" fill="#41B9EA"/><path d="M51.176 44.126c-2.48 11.308 1.491 20.848 1.491 20.848L23.173 56.18C28.493 70.43 41.735 76 41.735 76L69 62.375S56.759 57.31 51.176 44.126" fill="#26B797"/><path d="M51.176 44.126c-2.35-5.548-3.523-12.531-2.105-21.179L21.68 36.623a36.786 36.786 0 0 0-.68 7.129c0 4.723.839 8.85 2.173 12.43l29.494 8.792s-3.971-9.54-1.491-20.848" fill="#005E8F"/></g></svg>