<svg viewBox="0 0 90 90" xmlns="http://www.w3.org/2000/svg"><g fill="none"><path fill="#FFF" d="M0 0h90v90H0z"/><path d="m22.24 67.008 13.4 7.751c.76.44 1.713.243 2.273-.433A9.182 9.182 0 0 1 45 70.992a9.185 9.185 0 0 1 7.093 3.34c.56.675 1.51.873 2.271.434l13.469-7.779a1.769 1.769 0 0 0 .57-2.528 28.218 28.218 0 0 0-2.132-2.77c-2.029-2.325-4.478-4.248-7.151-5.794l-1.794-1.039-.113-.059c-.105-.05-.21-.1-.318-.149a1.415 1.415 0 0 0-1.635.333A13.863 13.863 0 0 1 45 59.505a13.863 13.863 0 0 1-10.243-4.503 1.399 1.399 0 0 0-1.623-.323l-.01.004-2.097 1.213c-3.37 1.946-6.377 4.495-8.681 7.624-.241.327-.475.66-.702.997-.564.84-.281 1.983.595 2.49" fill="#294DFF"/><path d="M24.42 22.928a1.757 1.757 0 0 0-.773 2.146 9.127 9.127 0 0 1-.658 7.823c-1.44 2.47-3.874 4.015-6.502 4.44A1.758 1.758 0 0 0 15 39.07l.001 15.39c0 1.01.85 1.825 1.86 1.76a28.059 28.059 0 0 0 11.313-3.187l1.64-.936a26.72 26.72 0 0 0 1.314-.86c.505-.35.726-.983.547-1.569a13.77 13.77 0 0 1 1.271-10.998c2.03-3.484 5.351-5.75 9.008-6.557a1.386 1.386 0 0 0 1.094-1.21c.068-.705.11-1.418.123-2.138v-1.086a27.871 27.871 0 0 0-2.8-11.706c-.442-.909-1.577-1.24-2.457-.738L24.42 22.928Z" fill="#1F95FF"/><path d="M67.013 32.897a9.123 9.123 0 0 1-.658-7.822 1.757 1.757 0 0 0-.774-2.147l-13.495-7.694c-.88-.501-2.015-.17-2.457.739a27.884 27.884 0 0 0-2.8 11.707v1.084c.014.714.055 1.428.123 2.14a1.388 1.388 0 0 0 1.094 1.208 13.84 13.84 0 0 1 9.008 6.557 13.77 13.77 0 0 1 1.271 10.999c-.179.586.043 1.22.547 1.568.43.299.868.586 1.314.861l1.641.935A28.059 28.059 0 0 0 73.14 56.22 1.758 1.758 0 0 0 75 54.46V39.07c0-.864-.631-1.598-1.486-1.732-2.628-.426-5.06-1.97-6.501-4.441" fill="#5FBBFF"/></g></svg>