<svg xmlns="http://www.w3.org/2000/svg" viewBox="0 0 90 90"><path fill="#10022A" d="M0 0h90v90H0z"/><path fill="#6136FF" d="M39.72 39.63a7.51 7.51 0 0 0 4.16 1.41c7.62.23 10.02.63 10.02.63.53.06 1.04.12 1.56.2a.5.5 0 0 0 .5-.72 35.89 35.89 0 0 0-9.1-10.59c-7.42-5.9-15.35-7.65-16.7-5.93-1.36 1.73 2.14 9.09 9.56 15ZM71.9 53v-.01l-6.67-5.5c-2.84-2.33-6.9-3.34-11.3-3.82 0 0-4.12-.67-18.68-.77-12.26-.08-19.64.96-19.64.96-3.54.39-2.8 2.12-1.68 3.52a19.48 19.48 0 0 0 16.9 7.32 20.8 20.8 0 0 0 8.43-2.84 1.01 1.01 0 0 0 .48-.87v-.06c0-.5-.35-.71-.79-.48a14.44 14.44 0 0 1-5.12 1.57c-.33.03-.65.04-.97.05h-.02c-.32 0-.64-.03-.96-.05a12.49 12.49 0 0 1-4.76-1.38c-.91-.48-1.74-1.1-2.47-1.81l-.01-.02a.77.77 0 0 1 .39-1.28c1.3-.3 6.18-1.19 14-.17 3.7.48 6.54 2.74 6.54 6.58v4.35a8.33 8.33 0 0 0 8.3 8.35h8.58a7.47 7.47 0 0 0 6.39-3.61l3.72-6.14a3.02 3.02 0 0 0-.66-3.9Zm-8.6.13c-.09.07-1.83 1.35-3.56.93a3.02 3.02 0 0 1-1.05-.47 5.52 5.52 0 0 1-1.68-1.98.44.44 0 0 1 .13-.57c.08-.05 1.81-1.34 3.56-.93 1.73.43 2.68 2.37 2.72 2.46.1.2.03.43-.13.56Z"/></svg>