<svg viewBox="0 0 90 90" xmlns="http://www.w3.org/2000/svg"><defs><linearGradient x1="1.531%" y1="50%" x2="90.219%" y2="50.765%" id="a"><stop stop-color="#F9584F" offset="0%"/><stop stop-color="#FFCE82" offset="100%"/></linearGradient><linearGradient x1=".892%" y1="50%" x2="90.749%" y2="50.776%" id="b"><stop stop-color="#F9584F" offset="0%"/><stop stop-color="#FFCE82" offset="100%"/></linearGradient><linearGradient x1=".892%" y1="50%" x2="90.749%" y2="50.776%" id="c"><stop stop-color="#F9584F" offset="0%"/><stop stop-color="#FFCE82" offset="100%"/></linearGradient><linearGradient x1="1.531%" y1="50%" x2="90.219%" y2="50.765%" id="d"><stop stop-color="#F9584F" offset="0%"/><stop stop-color="#FFCE82" offset="100%"/></linearGradient><linearGradient x1="1.531%" y1="50%" x2="90.219%" y2="50.765%" id="e"><stop stop-color="#F9584F" offset="0%"/><stop stop-color="#FFCE82" offset="100%"/></linearGradient><linearGradient x1=".892%" y1="50%" x2="90.749%" y2="50.776%" id="f"><stop stop-color="#F9584F" offset="0%"/><stop stop-color="#FFCE82" offset="100%"/></linearGradient><linearGradient x1=".892%" y1="50%" x2="90.749%" y2="50.776%" id="g"><stop stop-color="#F9584F" offset="0%"/><stop stop-color="#FFCE82" offset="100%"/></linearGradient><linearGradient x1="1.531%" y1="50%" x2="90.219%" y2="50.765%" id="h"><stop stop-color="#F9584F" offset="0%"/><stop stop-color="#FFCE82" offset="100%"/></linearGradient><linearGradient x1="1.531%" y1="50%" x2="90.219%" y2="50.765%" id="i"><stop stop-color="#F9584F" offset="0%"/><stop stop-color="#FFCE82" offset="100%"/></linearGradient></defs><g fill="none"><path fill="#FFF2EA" d="M19.308 24.627h52.455v44.875H19.308z"/><g transform="translate(10)"><path d="M8.727 52.945a15.623 15.623 0 0 0 1.343 6.75v.011c.042 2.384 1.138 4.547 3.255 6.43 6.224 5.53 13.196 6.717 19.737 3.394 1.24 1.284 4.18 3.796 8.287 3.91a11.06 11.06 0 0 0 3.55-.5c4.375-1.34 8.69-3.125 10.634-7.072.307-.626.53-1.293.698-1.987a15.6 15.6 0 0 0 3.056-5.983c.07 2.064.164 3.915.29 5.314.742 8.245-2.219 9.885-2.761 10.115a4.371 4.371 0 0 0-.376-.845 3.435 3.435 0 0 0-1.066-1.097c.045.536.15.994.246 1.44.07.448.193.865.232 1.285.008.055.012.108.019.163l-.01.172c-.058 2.12-3.743 5.074-10.678 6.623-3.99.894-12.047 4.136-14.429 5.111a3.423 3.423 0 0 1-.447-.591c-.294-.528-.49-1.139-.664-1.759-.179-.625-.322-1.276-.477-1.939-.167-.661-.304-1.337-.571-2.026-.41 1.395-.41 2.852-.043 4.278.069.218.148.438.236.656-2.933-2.113-7.73-5.297-10.43-5.638-4.39-.555-6.089-3.354-6.623-4.555-.013-.113-.033-.227-.04-.34a5.619 5.619 0 0 1 .042-1.361c.078-.447.23-.891.515-1.402-.563.114-1.065.547-1.345 1.092-.06.107-.102.22-.146.334-2.005-3.047-2.304-9.848-2.238-12.392l.204-7.591Z" fill="url(#a)" transform="scale(-1 1) rotate(-1 33.224 4010.907)"/><path d="M12.956 24.096a12.04 12.04 0 0 0-3.68 8.363l-.138 5.158c.029-1.08-.127-3.691-.307-6.714-.145-2.42-.3-5.046-.367-7.06 1.475.209 2.98.28 4.492.253" fill="url(#b)" transform="scale(-1 1) rotate(-1 33.224 4010.907)"/><path d="M60.165 37.3c-.262-6.017-1.963-10.454-5.068-13.214a10.74 10.74 0 0 0-1.752-1.267c1.396-.514 2.896-1.268 4.529-2.37 1.987-.716 3.04-2.595 3.587-4.333.376 2.09-.563 3.944-.621 4.056l-1.952 3.762 3.56-2.256c.742-.471 1.436-.64 2.094-.502-1.156.499-2.375 1.267-3.447 2.034l-.989.707.764.95c2.427 3.021 2.76 6.326.993 9.827a15.015 15.015 0 0 1-1.698 2.606" fill="url(#c)" transform="scale(-1 1) rotate(-1 33.224 4010.907)"/><path d="M9.874 15.533c7.76-5.957 16.272-7.62 22.436-4.295 1.721.93 2.822 2.236 3.267 3.882.848 3.137-.844 6.669-1.388 7.687-1.343-.194-2.707-.578-4.108-.98a55.46 55.46 0 0 0-2.557-.685c.128-1.378.028-3.1-.963-4.285-.925-1.107-2.419-1.522-4.431-1.242-1.549.22-3.304.598-5.163.998-3.838.829-7.992 1.723-10.943 1.32 1.32-.262 2.548-1.167 3.85-2.4" fill="url(#d)" transform="scale(-1 1) rotate(-1 33.224 4010.907)"/><path d="m24.92 3.988.01.019c.085-.043.171-.074.257-.114A25.893 25.893 0 0 1 30.294 2.7c4.87-.134 9.86 2.233 13.35 5.335 5.284 4.695 1.246 11.604-.082 13.569-1.564.036-3.182.204-4.905.846-1.077.4-2.157.523-3.25.476.742-1.493 2.132-4.905 1.265-8.108-.531-1.963-1.819-3.508-3.827-4.591-5.393-2.907-12.416-2.273-19.254 1.498 2.757-2.807 6.277-5.924 11.33-7.737" fill="url(#e)" transform="scale(-1 1) rotate(-1 33.224 4010.907)"/><path d="M56.452 18.654c-2.055 1.361-3.851 2.098-5.499 2.497 1.326-1.34 2.71-3.346 2.878-5.992.208-3.262-1.489-6.665-5.051-10.158 2.452 1.257 4.28 2.759 5.874 4.076.383.317.753.622 1.116.913 3.238 2.593 1.216 7.514.682 8.664" fill="url(#f)" transform="scale(-1 1) rotate(-1 33.224 4010.907)"/><path d="M52.699 15.078c-.201 3.217-2.567 5.429-3.904 6.432-1.175.113-2.291.104-3.393.091-.16-.002-.323-.002-.486-.003 1.706-2.781 4.935-9.574-.52-14.423-2.388-2.122-5.45-3.908-8.72-4.871 4.06-.056 7.253.493 9.866 1.353 4.967 4.021 7.378 7.858 7.157 11.421" fill="url(#g)" transform="scale(-1 1) rotate(-1 33.224 4010.907)"/><path d="M2.288 17.49c2.802 2.852 9.184 1.482 14.918.245 1.837-.396 3.572-.771 5.079-.983 1.603-.224 2.749.058 3.407.843.72.857.809 2.183.716 3.31-1.482-.277-2.995-.39-4.547-.12-5.729.995-12.278 1.865-17.519-.42-1.159-.505-1.816-1.156-2.01-1.987a2.801 2.801 0 0 1-.044-.888" fill="url(#h)" transform="scale(-1 1) rotate(-1 33.224 4010.907)"/><path d="M60.626 31.935c.187-2.416.388-5.04.49-7.052a28.545 28.545 0 0 1-4.496.175 12.035 12.035 0 0 1 3.533 8.425l.048 5.159c-.01-1.08.192-3.688.425-6.707m-47.4-13.079c2.03 1.397 3.813 2.166 5.454 2.593-1.302-1.363-2.65-3.393-2.773-6.04-.15-3.265 1.606-6.64 5.228-10.07-2.474 1.214-4.328 2.684-5.944 3.974-.388.309-.764.608-1.133.893-3.28 2.536-1.346 7.491-.832 8.65m11.17-14.804c-5.036 3.934-7.515 7.728-7.355 11.295.144 3.22 2.472 5.473 3.792 6.5 1.172.132 2.288.143 3.39.15.16 0 .323.003.485.004-1.656-2.81-4.767-9.658.773-14.41 2.424-2.082 5.517-3.813 8.804-4.719-4.06-.128-7.262.366-9.889 1.18m31.805 8.625C53.494 9.82 50.03 6.644 45.008 4.743l-.01.018c-.084-.044-.17-.075-.254-.118a25.955 25.955 0 0 0-5.086-1.282c-4.866-.22-9.897 2.062-13.441 5.102-5.365 4.6-1.448 11.58-.154 13.569 1.563.063 3.177.258 4.889.93 1.07.42 2.148.56 3.24.533-.715-1.506-2.045-4.94-1.123-8.128.566-1.954 1.88-3.476 3.909-4.523C42.42 8.03 49.43 8.786 56.2 12.677m-.372 44.58c-.046 1.738-.818 3.168-2.19 4.043-1.49.95-3.487 1.053-5.087.265-.6-.297-1.291-.768-2.095-1.312-1.173-.8-2.639-1.786-4.37-2.601a4.058 4.058 0 0 1-.88 1.389c-.524.554-1.146.957-1.784 1.26-1.296.566-2.655.755-3.987.722-1.33-.071-2.66-.348-3.899-.962-.606-.32-1.215-.7-1.707-1.218a3.706 3.706 0 0 1-.715-.81l-.209-.313c-.455.285-.924.606-1.45.966-1.255.863-2.816 1.936-5.138 3.138-2.172 1.12-4.035 1.226-5.533.312-.91-.555-1.543-1.411-1.983-2.337-.317 2.065-.126 3.817.57 5.297 1.505 3.194 5.29 4.799 9.154 6.058 6.014 1.955 10.04-3.116 10.08-3.168l.613-.789.856.507c4.103 2.431 10.555 3.998 17.972-2.368 1.644-1.41 2.508-2.993 2.57-4.705.043-1.23-.315-2.394-.788-3.375m-8.367-33.392-3.922.039c-1.116.192-2.254.492-3.422.804-1.979.528-4 1.068-6.067 1.09-1.289.012-2.596-.177-3.921-.697-2.002-.785-3.906-.799-5.921-.81-1.118-.009-2.286-.018-3.531-.15-.46.013-.91.064-1.352.14-2.364.563-8.057 3.24-7.939 15.99l.024 2.526.109 11.66a13.336 13.336 0 0 0 1.036 5.034c.222-1.47.659-3.054 1.32-4.766l2.12-5.504.072 5.905c.014 1.092.381 4.13 1.895 5.05.78.478 1.897.345 3.318-.392 2.198-1.137 3.633-2.122 4.898-2.992.748-.514 1.423-.976 2.123-1.376.008-.2.029-.4.066-.59.137-.72.445-1.34.792-1.9a8.45 8.45 0 0 1 2.762-2.54c-.737.981-1.393 2-1.778 3.059-.385 1.053-.438 2.108.045 2.861.988 1.567 3.222 2.392 5.33 2.429 2.082.105 4.445-.535 5.044-2.182.164-.412.195-.903.14-1.422-.036-.521-.188-1.063-.384-1.598-.38-1.088-.981-2.136-1.584-3.214a11.45 11.45 0 0 1 2.578 2.703c.4.627.768 1.365.941 2.183 2.223.94 4.043 2.174 5.473 3.147.732.498 1.365.928 1.822 1.154.894.44 2.051.383 2.878-.145.524-.332 1.145-1.006 1.133-2.309l-.056-6.206 1.955 1.938c.092.09 1.447 1.455 2.427 3.51.123-.747.195-1.512.188-2.296l-.192-20.49a9.75 9.75 0 0 0-5.886-8.874 91.774 91.774 0 0 1-4.534-.77m16.197-4.848c-1.315-.284-2.526-1.21-3.808-2.466-7.655-6.092-16.136-7.904-22.357-4.685-1.738.898-2.86 2.186-3.334 3.823-.903 3.122.727 6.683 1.253 7.71 1.346-.17 2.717-.53 4.125-.908a56.964 56.964 0 0 1 2.568-.64c-.104-1.38.026-3.102 1.038-4.267.944-1.091 2.445-1.48 4.452-1.164 1.545.245 3.293.655 5.145 1.087 3.823.896 7.96 1.862 10.918 1.51M7.536 34.8a15.015 15.015 0 0 0 1.652 2.635c.367-6.012 2.145-10.418 5.298-13.124a10.74 10.74 0 0 1 1.773-1.236c-1.386-.538-2.873-1.318-4.486-2.448-1.974-.752-2.994-2.649-3.51-4.396-.413 2.083.493 3.954.55 4.066l1.885 3.796-3.52-2.318c-.734-.484-1.425-.663-2.086-.538 1.149.519 2.354 1.308 3.412 2.093l.976.725-.78.936c-2.48 2.979-2.87 6.278-1.164 9.81m52.88 26.768-.07-7.593a15.637 15.637 0 0 1-1.461 6.725v.012c-.084 2.38-1.217 4.526-3.367 6.37-6.32 5.422-13.312 6.488-19.793 3.05-1.263 1.261-4.247 3.723-8.355 3.764a11.043 11.043 0 0 1-3.542-.561c-4.349-1.417-8.632-3.277-10.507-7.256a9.663 9.663 0 0 1-.663-1.998 15.626 15.626 0 0 1-2.952-6.036c-.105 2.062-.232 3.912-.381 5.308-.887 8.23 2.045 9.922 2.583 10.161a4.34 4.34 0 0 1 .39-.838 3.42 3.42 0 0 1 1.086-1.078c-.055.534-.167.99-.271 1.434-.08.448-.208.862-.254 1.28-.01.056-.015.108-.023.163l.008.172c.02 2.12 3.653 5.139 10.559 6.81 3.976.962 11.975 4.344 14.337 5.362.177-.178.33-.377.459-.584.303-.522.51-1.129.695-1.746.189-.623.343-1.27.51-1.93.179-.66.327-1.332.607-2.016.385 1.402.36 2.857-.032 4.277a9.503 9.503 0 0 1-.247.653c2.97-2.062 7.82-5.161 10.525-5.456 4.4-.479 6.148-3.246 6.702-4.44.016-.112.038-.224.046-.338a5.553 5.553 0 0 0-.018-1.361 4.312 4.312 0 0 0-.491-1.412c.56.126 1.056.566 1.327 1.116.057.109.098.223.14.336 2.057-3.01 2.475-9.806 2.454-12.35m6.925-42.043c.071-.287.082-.587.06-.888-2.85 2.803-9.208 1.322-14.92-.015-1.83-.428-3.558-.834-5.062-1.072-1.599-.251-2.75.01-3.421.784-.733.844-.847 2.169-.772 3.297 1.486-.252 3-.34 4.547-.041 5.71 1.095 12.245 2.08 17.524-.114 1.168-.485 1.837-1.124 2.044-1.951m2.202.563c-.39 1.559-1.53 2.74-3.383 3.51-.894.37-1.814.652-2.75.873-.095 2.118-.317 5.005-.521 7.641-.219 2.842-.426 5.526-.417 6.507l.214 22.927c.004.434.057 10.483-3.419 14.405-.44 1.192-2.49 5.663-8.768 6.345-2.742.3-9.497 4.997-11.868 6.782l-.527.395-.603-.262c-.101-.045-10.225-4.46-14.628-5.524-6.92-1.675-11.58-4.854-12.225-8.25-1.506-.845-4.516-3.646-3.583-12.331.601-5.584.817-18.978.876-23.55C5 36.148 2.24 30.264 6.204 24.513c-1.476-.966-2.956-1.681-3.43-1.589a.352.352 0 0 0 .168-.104l-1.76-1.43a6.215 6.215 0 0 1 1.926-1.811c.925-.547 1.918-.757 2.922-.64-.344-1.903-.256-4.622 2.019-6.963l1.912-1.967.034 2.757c.001.081.004.172.01.27.236-1.67.979-3.342 2.674-4.652.36-.278.726-.57 1.104-.871 4.505-3.594 10.674-8.519 25.788-6.49C49.76 2.39 55.22 8.219 59.203 12.557a9.069 9.069 0 0 0-.357-2.248l-1.131-3.858 2.975 2.676c.132.12 2.957 2.737 2.69 7.347.406.22.792.347 1.16.343 1.072-.011 1.114-2.285 1.115-2.307l-.01-3.235 2.026 2.502c.108.132 2.628 3.3 1.873 6.312" fill="#000"/><path d="M15.305 60.385c1.472.978 3.467 1.116 5.081.356.605-.287 1.305-.747 2.118-1.278 1.186-.777 2.668-1.738 4.415-2.524a4.07 4.07 0 0 0 .854 1.404c.515.563 1.13.977 1.763 1.292 1.285.589 2.64.8 3.973.791 1.332-.048 2.666-.301 3.914-.894.614-.31 1.229-.678 1.73-1.186a3.74 3.74 0 0 0 .729-.798l.214-.31c.45.293.913.622 1.433.99 1.24.887 2.782 1.986 5.083 3.229 2.152 1.157 4.012 1.295 5.527.407.92-.539 1.565-1.384 2.023-2.302.28 2.07.058 3.819-.663 5.287-1.56 3.167-5.372 4.705-9.26 5.897-6.045 1.85-9.984-3.29-10.021-3.344l-.599-.799-.865.493c-4.145 2.358-10.623 3.812-17.927-2.681-1.62-1.439-2.457-3.038-2.488-4.75-.022-1.231.356-2.389.847-3.361.014 1.739.762 3.182 2.119 4.081" fill="url(#i)" transform="scale(-1 1) rotate(-1 33.224 4010.907)"/><path d="M25.522 36.413c-.761-.017-3.474-.065-5.668 1.202-2.763 1.596-5.21 5.21-5.21 5.21s2.971-1.749 5.232-2.918c2.26-1.169 4.532-1.19 7.959 1.068 3.428 2.259 3.83.537 3.83.537 1.115-2.305-3.873-5.05-6.143-5.1m13.123 5.031s.434 1.715 3.82-.612c3.384-2.326 5.656-2.348 7.937-1.224 2.282 1.124 5.285 2.814 5.285 2.814s-2.513-3.566-5.306-5.106c-2.216-1.223-4.929-1.123-5.69-1.091-2.268.093-7.203 2.937-6.046 5.219" fill="#000"/><ellipse fill="#000" cx="24.335" cy="47.304" rx="2.138" ry="2.156"/><ellipse fill="#000" cx="44.858" cy="47.304" rx="2.138" ry="2.156"/></g></g></svg>