<svg viewBox="0 0 90 90" xmlns="http://www.w3.org/2000/svg"><g fill="none" fill-rule="evenodd"><path fill="#CB272C" fill-rule="nonzero" d="M0 0h90v90H0z"/><path d="M42.063 39.6h7.402c2.34-13.137 6.148-23.6 6.148-23.6h8.766S51.4 63.738 59.827 63.738c8.43 0 11.127-12.27 11.127-12.27H75c0 6.387-4.214 14.96-9.61 19.666-5.394 4.707-17.363 8.573-17.7-11.934-.062-3.727.161-7.526.567-11.247h-7.153C38.88 62.658 34.387 75 34.387 75h-8.766s12.98-47.738 4.552-47.738c-8.43 0-11.127 12.27-11.127 12.27H15c0-6.387 4.215-14.96 9.61-19.666 5.394-4.707 17.363-8.573 17.7 11.935a85.182 85.182 0 0 1-.247 7.8Z" fill="#FFF"/></g></svg>