<svg viewBox="0 0 90 90" xmlns="http://www.w3.org/2000/svg"><defs><linearGradient x1="7.579%" y1="66.338%" x2="56.025%" y2="27.099%" id="a"><stop stop-color="#69008E" offset="0%"/><stop stop-color="#FF2155" offset="100%"/></linearGradient></defs><g fill="none"><path fill="#FFF" d="M0 0h90v90H0z"/><path d="M34.41 15.91S33.486 15 32.1 15c-1.794 0-3.12 1.172-4.343 3.064C20.274 29.735 14.955 54.954 15.002 55L45.5 26.364 34.41 15.909Z" fill="#FF61E6"/><path d="M56.59 15.91s.924-.91 2.31-.91c1.794 0 3.12 1.172 4.343 3.064C70.725 29.735 76.044 54.954 75.997 55L45.5 26.364l11.09-10.455Z" fill="#FF534E"/><path d="M30.5 11.364.003 40c-.231 1.364 15.448 13.827 25.06 18.647 1.534.762 3.724 1.339 5.437 1.353 1.724.014 3.916-.54 5.437-1.353 9.612-4.82 25.291-17.283 25.06-18.647L30.5 11.364Z" fill="url(#a)" transform="translate(15 15)"/></g></svg>