<svg viewBox="0 0 90 90" xmlns="http://www.w3.org/2000/svg"><g fill="none"><path fill="#FFF" d="M0 0h90v90H0z"/><g fill="#231F20"><path d="M45.908 29.835a43.556 43.556 0 0 1 22.147 6.008L75 23.906C66.462 18.87 56.522 16 45.908 16c-10.604 0-20.532 2.87-29.072 7.906l6.942 11.937a43.588 43.588 0 0 1 22.13-6.008Z"/><path d="M52.328 36.402c-2.82-.03-11.373-.196-22.37 4.915-1.402.654-2.394 1.2-2.632.852-.473-.755 3.023-3.74 6.773-5.923 1.356-.81 2.131-1.519 1.828-2.121-.452-.878-3.14-1.059-10.638 2.799A42.237 42.237 0 0 0 15 45.042l1.223 1.161c1.204-1.282 2.504-2.47 3.829-3.633.885-.772 4.984-3.852 5.343-2.922.138.372-.124.915-1.575 2.91-1.266 1.764-2.098 3.413-1.499 3.917.598.51 1.32.22 3.029-.728 1.268-.703 5.29-2.846 11.632-4.763 6.341-1.903 7.883-1.18 8.037-.714.193.627-2.727 1.665-4.449 2.524-1.441.741-6.528 3.746-9.289 5.982 0 0 2.676 4.617 2.688 4.617 2.847-1.685 13.696-4.444 14.855-2.45 1.272 2.189-10.273 10.346-10.273 10.346L45.908 74s16.739-19.328 14.07-23.568c-2.69-4.219-12.767-3.438-16.742-3.06-1.092.098-2.374.338-2.644-.205-.3-.6.045-3.015 13.48-6.215 2.987-.704 4.15-1.072 3.986-2.4-.138-1.14-2.908-2.13-5.73-2.15Z"/></g></g></svg>