<svg xmlns="http://www.w3.org/2000/svg" viewBox="0 0 90 90"><path fill="#FFF" d="M0 0h90v90H0z"/><path d="M57.854 35.997V19.644A3.092 3.092 0 0 1 59.78 19h12.106C73.606 19 75 20.383 75 22.09v44.82c0 1.705-1.394 3.088-3.114 3.088H60.968c-1.71-.005-3.097-1.373-3.114-3.068V35.997ZM32.136 69.356a3.062 3.062 0 0 1-1.916.643H18.114C16.394 70 15 68.616 15 66.911V22.089C15 20.383 16.394 19 18.114 19h10.908c1.72 0 3.114 1.383 3.114 3.089v47.267Z" fill="#6797FF"/><path d="m40.709 53.003 9.43-18.699 6.278-12.463.569-1.138A3.067 3.067 0 0 1 59.78 19h12.106c.982 0 1.907.458 2.495 1.238L57.854 53.003H40.71Z" fill="#2D53FF"/><path fill="#0F23FF" d="m57.854 53.003-8.573-16.996H32.146l8.563 16.996z"/><path d="m15.619 68.762 16.517-32.765H49.28l-9.43 18.708-6.887 13.601A2.997 2.997 0 0 1 30.19 70H18.114a3.132 3.132 0 0 1-2.495-1.237Z" fill="#2D53FF"/></svg>