<svg viewBox="0 0 90 90" xmlns="http://www.w3.org/2000/svg"><g fill="none"><path fill="#004E71" d="M0 0h90v90H0z"/><path d="M46.695 39.618c-5.08-8.34 11.144-8.49 3.638-24.116-.227-.075-.454-.075-.682-.15-17.512-2.629-33.736 9.766-36.313 27.646-1.213 8.488.91 16.676 5.23 23.212-.758-18.856 32.827-18.856 28.127-26.592m7.125-23.365c1.745 3.305 5.459 8.114 13.495 17.73 12.054 14.423-23.577 9.615-29.718 20.508C32.593 63.506 51.319 69.967 62.615 75c7.354-4.96 12.66-12.997 14.025-22.612 2.426-16.302-7.657-31.702-22.82-36.135M43.283 57.571c-1.213-.676.91-3.53 6.444-3.682 5.459-.15-1.592 6.311-6.444 3.682m12.13-3.08c-4.094 1.352-1.44-2.028.53-2.254 1.972-.15 2.35 1.277-.53 2.254m4.245-3.305c-1.365.075-1.592-.752.455-1.203 2.88-.6.91 1.203-.455 1.203" fill="#FFF"/></g></svg>