<svg viewBox="0 0 90 90" xmlns="http://www.w3.org/2000/svg"><g fill="none" fill-rule="evenodd"><path fill="#FFF" d="M0 0h90v90H0z"/><path d="M74 55.467V57h-7.632v-1.533H74Zm-18.316 0V57h-7.631v-1.533h7.631Zm5.955 0L61.025 57l-.606-1.533h1.22Zm-17.097 0A6.285 6.285 0 0 1 40.391 57H28.21v-1.533h16.331Zm-17.858 0V57H16v-1.533h10.684Zm29-3.067v1.533h-7.631V52.4h7.631Zm7.148 0-.594 1.533H59.82l-.598-1.533h3.609Zm-16.764 0a5.719 5.719 0 0 1-.64 1.533H28.21V52.4h17.857Zm-19.384 0v1.533H16V52.4h10.684ZM74 52.4v1.533h-7.632V52.4H74Zm-3.053-3.067v1.534h-4.579v-1.534h4.58Zm-15.263 0v1.534h-4.579v-1.534h4.58Zm8.345 0-.6 1.534h-4.806l-.604-1.534h6.01Zm-18.174 0c.137.49.213 1.003.213 1.534h-5.647v-1.534h5.434Zm-10.013 0v1.534h-4.579v-1.534h4.58Zm-12.21 0v1.534h-4.58v-1.534h4.58Zm47.315-3.066V47.8h-4.579v-1.533h4.58Zm-15.263 0V47.8h-4.579v-1.533h4.58Zm9.541 0-.597 1.533h-7.22l-.591-1.533h8.408Zm-21.248 0c.527.432.98.951 1.328 1.533H31.263v-1.533h12.714Zm-20.345 0V47.8h-4.58v-1.533h4.58ZM60.599 43.2l.427 1.24.428-1.24h9.493v1.533h-4.579v-1.409l-.519 1.41h-9.661l-.504-1.41v1.41h-4.579V43.2H60.6Zm-36.967 0v1.533h-4.58V43.2h4.58Zm21.673 0a5.95 5.95 0 0 1-1.328 1.533H31.263V43.2h14.042Zm25.642-3.067v1.534h-8.964l.54-1.534h8.424Zm-11.413 0 .54 1.534h-8.969v-1.534h8.43Zm-13.466 0c0 .531-.076 1.045-.213 1.534H40.42v-1.534h5.647Zm-10.226 0v1.534h-4.579v-1.534h4.58Zm-12.21 0v1.534h-4.58v-1.534h4.58Zm34.845-3.066.53 1.533H48.054v-1.533h10.424Zm15.523 0V38.6H63.04l.55-1.533H74Zm-28.573 0c.284.473.504.988.641 1.533H28.211v-1.533h17.216Zm-18.743 0V38.6H16v-1.533h10.684ZM57.406 34l.54 1.533h-9.893V34h9.353ZM74 34v1.533h-9.881L64.647 34H74Zm-33.61 0c1.601 0 3.057.581 4.152 1.533H28.211V34h12.18Zm-13.706 0v1.533H16V34h10.684Z" fill="#1062FE" fill-rule="nonzero"/></g></svg>