<svg viewBox="0 0 90 90" xmlns="http://www.w3.org/2000/svg"><g fill="none"><path fill="#FFF" d="M0 0h90v90H0z"/><path d="m79.77 65.851.055.13C76.563 68.013 73.01 69 69.107 69c-9.495 0-13.747-5.747-13.747-14.745 0-4.644 1.281-8.534 3.903-11.61C61.883 39.568 65.496 38 70.097 38 76.33 38 80 40.845 80 46.476c0 7.14-5.476 10.507-16.427 10.159.291 3.715 2.388 6.153 6.583 6.153 2.42 0 4.693-.645 6.816-1.978l2.798 5.041ZM63.515 51.294c6.233.233 9.378-.929 9.378-4.411 0-2.032-1.048-3.02-3.204-3.02-3.67 0-6 3.251-6.174 7.431Zm-20.06 11.204c-4.428 0-6.641-3.018-6.641-9.114 0-6.095 2.155-9.114 6.466-9.114.64 0 1.34.116 2.039.29.64.174.931.697.931 1.626v3.135l6.058-.407v-8.707C49.804 38.755 46.658 38 42.988 38c-7.223-.058-14.446 4.18-14.446 15.732 0 9.984 5.01 15.267 13.864 15.267 4.136 0 7.747-1.22 10.718-3.657l-2.97-5.341c-2.273 1.683-4.486 2.496-6.7 2.496Zm-20.038.697 3.029.174v4.818H12.058v-4.586l1.922-.174c1.107-.174 1.34-.464 1.34-1.916V45.49c0-1.219-.291-1.625-1.398-1.683L12 43.632v-4.877h11.417v24.44Z" fill="#000"/><path d="M17.159 22.464c-.014-.176.127-.33.315-.343.189-.013.353.119.367.294a.284.284 0 0 1 0 .049l-.107 1.318 1.036-.644V21.79L17.5 21l-1.27.79v1.348l1.035.644-.106-1.318Zm-4.808 4.13 1.115-.514-1.278-.573a.31.31 0 0 1-.16-.425.353.353 0 0 1 .502-.126l1.17.745-.08-1.157-1.252-.675L11 24.5l.098 1.42 1.253.675Zm-.297 4.366a.306.306 0 0 1 .09-.443.399.399 0 0 1 .045-.024l1.277-.573-1.115-.515-1.253.675L11 31.5l1.368.63 1.252-.674.08-1.157-1.17.745a.357.357 0 0 1-.476-.084Zm5.787 2.576c.014.176-.127.33-.315.343-.189.013-.353-.119-.367-.295a.282.282 0 0 1 0-.048l.107-1.318-1.036.644v1.349L17.5 35l1.27-.79v-1.348l-1.036-.644.107 1.318Zm6.061-3.456-1.253-.675-1.115.515 1.278.573a.31.31 0 0 1 .16.425.353.353 0 0 1-.502.126l-1.17-.745.08 1.157 1.252.675L24 31.5l-.098-1.42Zm-1.432-5.124-1.17.745.08-1.157 1.252-.675L24 24.5l-.098 1.42-1.253.675-1.115-.515 1.277-.573a.399.399 0 0 0 .045-.024.306.306 0 0 0 .09-.443.358.358 0 0 0-.476-.084Zm-3.654 3.745c-.003-.001-.009.002-.009.002l.002.01 2.103 1.338-.017.65-.55.198-.642-.345-.062-.75a4.14 4.14 0 0 1-.791-.318 3.09 3.09 0 0 1-.822-.637c.103.27.181.6.181.984 0 .275-.04.546-.1.8l.66.424v.69l-.459.345-.61-.31-.193-2.369-.006-.006-.008.006-.192 2.368-.611.311-.46-.345v-.69l.665-.426a3.48 3.48 0 0 1-.1-.798c0-.383.077-.712.18-.982a3.08 3.08 0 0 1-.823.638 4.154 4.154 0 0 1-.793.32l-.062.745-.642.345-.55-.198-.017-.65 2.106-1.34v-.007l-.01-.003-2.295 1.029-.594-.338.09-.544.642-.345.727.324c.205-.175.437-.343.692-.48.356-.192.7-.294 1.001-.346a3.255 3.255 0 0 1-1.004-.345 3.981 3.981 0 0 1-.693-.481l-.723.322-.641-.345-.091-.544.594-.338 2.298 1.03.006-.003-.002-.01-2.103-1.338.017-.65.55-.198.642.345.062.75c.265.078.536.18.791.318.356.192.623.419.822.637-.103-.27-.181-.6-.181-.984 0-.275.04-.546.1-.8l-.66-.424v-.69l.459-.345.61.31.193 2.372s.003.003.006.003l.008-.006.192-2.368.611-.311.46.345v.69l-.665.426c.06.253.1.524.1.798 0 .383-.077.712-.18.982.2-.219.466-.446.823-.638.255-.138.527-.241.793-.32l.062-.745.642-.345.55.198.017.65-2.103 1.339v.011s.004.002.007 0l2.295-1.029.594.338-.09.544-.642.345-.727-.324a3.973 3.973 0 0 1-.691.48c-.357.192-.7.293-1.002.346.302.05.647.153 1.004.345.255.137.487.305.693.481l.723-.322.641.345.091.544-.594.338-2.295-1.029Z" fill="#FFB900"/></g></svg>