<svg viewBox="0 0 90 90" xmlns="http://www.w3.org/2000/svg"><defs><linearGradient x1="100%" y1="0%" x2="0%" y2="100%" id="a"><stop stop-color="#EF7EFF" offset="0%"/><stop stop-color="#5F7EEC" offset="100%"/></linearGradient><linearGradient x1="0%" y1="0%" x2="100%" y2="100%" id="b"><stop stop-color="#7ACFFF" offset="0%"/><stop stop-color="#8E8BF5" stop-opacity=".529" offset="39.583%"/><stop stop-color="#B16CEA" stop-opacity="0" offset="64.063%"/><stop stop-color="#A36CEA" offset="100%"/></linearGradient><linearGradient x1="84.286%" y1="28.473%" x2="15.927%" y2="71.661%" id="c"><stop stop-color="#FFF" offset="33.751%"/><stop stop-color="#FFF" stop-opacity="0" offset="79.446%"/></linearGradient><linearGradient x1="15.714%" y1="28.473%" x2="84.073%" y2="71.661%" id="d"><stop stop-color="#FFF" offset="0%"/><stop stop-color="#FFF" offset="100%"/></linearGradient></defs><g fill="none"><path fill="url(#a)" d="M0 0h90v90H0z"/><path fill="url(#b)" d="M0 0h90v90H0z"/><path d="M64.687 6.121a20.972 20.972 0 0 0-6.801-4.53 21.023 21.023 0 0 0-16.045 0 20.975 20.975 0 0 0-6.801 4.53L17.52 23.586a20.998 20.998 0 0 0 14.824 6.121c5.56 0 10.893-2.202 14.824-6.121L64.688 6.12Z" fill="url(#c)" transform="translate(12.656 30.234)"/><path d="M0 6.121a20.972 20.972 0 0 1 6.801-4.53 21.022 21.022 0 0 1 16.045 0 20.975 20.975 0 0 1 6.802 4.53l17.519 17.465a20.998 20.998 0 0 1-14.824 6.121 20.998 20.998 0 0 1-14.824-6.121L0 6.12Z" fill="url(#d)" transform="translate(12.656 30.234)"/></g></svg>