<svg viewBox="0 0 90 90" xmlns="http://www.w3.org/2000/svg"><g fill="none"><path fill="#1059A6" d="M0 0h90v90H0z"/><path d="M8.55 38.995c0 .997-.7 1.778-1.796 1.778-1.051 0-1.752-.78-1.752-1.778-.044-1.04.7-1.822 1.752-1.822 1.096 0 1.796.781 1.796 1.822ZM5.133 53.74V42.204h3.33V53.74h-3.33Zm16.079-.434c-.614.347-2.016.694-3.812.694-5.126 0-7.754-3.426-7.754-7.98 0-5.42 3.592-8.456 8.06-8.456 1.753 0 3.068.39 3.637.694l-.657 2.905c-.7-.303-1.621-.607-2.804-.607-2.672 0-4.731 1.735-4.731 5.248 0 3.165 1.752 5.204 4.731 5.204 1.008 0 2.147-.217 2.804-.52l.526 2.818ZM22.35 37h3.33v16.74h-3.33zm14.108 13.92c0 1.128.044 2.17.175 2.82H33.61l-.219-1.171h-.088c-.7.91-1.796 1.431-3.066 1.431-2.19 0-3.461-1.691-3.461-3.556 0-2.992 2.497-4.424 6.308-4.424v-.173c0-.607-.306-1.475-1.971-1.475-1.095 0-2.278.39-2.98.868l-.613-2.299c.745-.433 2.235-.997 4.162-.997 3.593 0 4.732 2.255 4.732 4.987v3.99h.044Zm-3.242-2.644c-1.753-.044-3.11.433-3.11 1.82 0 .912.569 1.389 1.314 1.389.832 0 1.533-.607 1.752-1.301.044-.174.088-.39.088-.607v-1.301h-.044Zm4.95 2.341c.614.39 1.884.868 2.892.868s1.446-.39 1.446-.954-.35-.868-1.577-1.301c-2.235-.781-3.067-2.082-3.067-3.426 0-2.169 1.708-3.817 4.38-3.817 1.271 0 2.367.304 3.024.65l-.614 2.473c-.481-.304-1.402-.65-2.322-.65-.832 0-1.27.346-1.27.953 0 .564.438.824 1.752 1.301 2.06.738 2.892 1.865 2.936 3.556 0 2.125-1.577 3.73-4.644 3.73-1.402 0-2.673-.347-3.461-.824l.525-2.559Zm8.631 0c.614.39 1.884.868 2.892.868 1.007 0 1.445-.39 1.445-.954s-.35-.868-1.577-1.301c-2.234-.781-3.067-2.082-3.067-3.426 0-2.169 1.71-3.817 4.382-3.817 1.27 0 2.365.304 3.022.65l-.613 2.473c-.482-.304-1.402-.65-2.322-.65-.832 0-1.27.346-1.27.953 0 .564.438.824 1.752 1.301 2.06.738 2.892 1.865 2.935 3.556 0 2.125-1.577 3.73-4.644 3.73-1.401 0-2.672-.347-3.46-.824l.525-2.559Z" fill="#FFF"/><path d="M55.603 38.04c1.052-.173 2.497-.346 4.513-.346 2.059 0 3.548.434 4.512 1.258.964.78 1.577 2.125 1.577 3.686s-.482 2.862-1.358 3.773c-1.139 1.17-2.848 1.691-4.819 1.691-.438 0-.832-.043-1.14-.087v5.681H55.56V38.041h.044Zm3.286 7.243c.307.087.657.087 1.139.087 1.796 0 2.891-.954 2.891-2.602 0-1.475-.963-2.342-2.628-2.342-.701 0-1.14.087-1.402.13v4.727Zm8.236.737c0-1.69-.044-2.818-.087-3.816h2.891l.132 2.125h.087c.57-1.691 1.884-2.385 2.892-2.385.306 0 .482 0 .7.043v3.383a2.755 2.755 0 0 0-.92-.13c-1.226 0-2.058.694-2.277 1.821-.044.217-.088.52-.088.78v5.855h-3.33V46.02ZM85 47.842C85 52.048 82.196 54 79.348 54c-3.154 0-5.564-2.212-5.564-5.941 0-3.73 2.279-6.115 5.74-6.115 3.285 0 5.476 2.428 5.476 5.898Zm-7.754.13c0 1.995.788 3.47 2.19 3.47 1.314 0 2.147-1.388 2.147-3.47 0-1.735-.614-3.47-2.147-3.47-1.62 0-2.19 1.779-2.19 3.47Z" fill="#01B2F1"/></g></svg>