<svg viewBox="0 0 90 90" xmlns="http://www.w3.org/2000/svg" xmlns:xlink="http://www.w3.org/1999/xlink"><defs><linearGradient x1="0%" y1="66.487%" x2="100%" y2="66.487%" id="a"><stop stop-color="#20C0FF" stop-opacity=".409" offset="0%"/><stop stop-color="#009BFF" offset="100%"/></linearGradient><linearGradient x1="47.458%" y1="102.877%" x2="100%" y2="33.488%" id="b"><stop stop-color="#4BCDFF" stop-opacity="0" offset="0%"/><stop stop-color="#1A8CF7" offset="100%"/></linearGradient><linearGradient x1="86.893%" y1="0%" x2="32.945%" y2="91.724%" id="c"><stop stop-color="#004FFF" offset="0%"/><stop stop-color="#72BEFA" stop-opacity="0" offset="100%"/></linearGradient><linearGradient x1="87.832%" y1="106.171%" x2="33.15%" y2="97.617%" id="d"><stop stop-color="#3B84EE" offset="0%"/><stop stop-color="#3F9BF2" stop-opacity=".608" offset="57.515%"/><stop stop-color="#44A0F9" stop-opacity="0" offset="100%"/></linearGradient><linearGradient x1="23.155%" y1="64.283%" x2="4.394%" y2="31.73%" id="e"><stop stop-color="#8ADBFF" stop-opacity="0" offset="0%"/><stop stop-color="#66C5F3" offset="100%"/></linearGradient><linearGradient x1="47.003%" y1="0%" x2="61.451%" y2="52.677%" id="i"><stop stop-color="#14AFF8" offset="0%"/><stop stop-color="#4FC0FB" stop-opacity="0" offset="100%"/></linearGradient><linearGradient x1="66.005%" y1="84.468%" x2="37.683%" y2="0%" id="j"><stop stop-color="#89D8FA" stop-opacity="0" offset="0%"/><stop stop-color="#06ADFF" stop-opacity=".5" offset="100%"/></linearGradient><radialGradient cx="44.414%" cy="30.31%" fx="44.414%" fy="30.31%" r="63.683%" gradientTransform="matrix(-.41438 .90025 -.60553 -.3077 .812 -.003)" id="f"><stop stop-color="#A5EEFB" stop-opacity=".15" offset="0%"/><stop stop-color="#3A98F6" stop-opacity="0" offset="100%"/></radialGradient><radialGradient cx="29.202%" cy="25%" fx="29.202%" fy="25%" r="16.902%" gradientTransform="matrix(.4032 -.83036 1.0903 1.01118 -.098 .24)" id="g"><stop stop-color="#ACE8FF" stop-opacity=".15" offset="0%"/><stop stop-color="#59C2F8" stop-opacity="0" offset="100%"/></radialGradient><radialGradient cx="48.886%" cy="51.121%" fx="48.886%" fy="51.121%" r="38.445%" gradientTransform="matrix(0 1 -.95176 0 .975 .022)" id="h"><stop stop-color="#B3E3FA" stop-opacity=".2" offset="0%"/><stop stop-color="#D8D8D8" stop-opacity="0" offset="100%"/></radialGradient><radialGradient cx="56.824%" cy="50%" fx="56.824%" fy="50%" r="42.566%" gradientTransform="matrix(0 1 -1.00519 0 1.07 -.068)" id="l"><stop stop-color="#23B2F8" stop-opacity=".652" offset="0%"/><stop stop-color="#2DB6FA" stop-opacity=".424" offset="62.743%"/><stop stop-color="#40BFFE" stop-opacity="0" offset="100%"/></radialGradient><path d="M0 30.697c0-5.913 3.77-10.988 9.147-13.167.815-5.006 5.363-8.838 10.852-8.838 1.64 0 3.195.342 4.593.955C28.115 3.878 34.679 0 42.194 0c10.886 0 19.774 8.136 20.32 18.367C68.846 19.71 73.58 25.09 73.58 31.522 73.58 38.966 67.24 45 59.42 45H15.03C6.728 45 0 38.596 0 30.697Z" id="k"/></defs><g fill="none" fill-rule="evenodd"><path fill="#FFF" d="M0 0h90v90H0z"/><path d="M22.528 66C14.228 66 7.5 59.596 7.5 51.697c0-5.913 3.77-10.988 9.147-13.167.815-5.006 5.363-8.838 10.852-8.838 1.64 0 3.195.342 4.593.955C35.615 24.878 42.179 21 49.694 21c10.886 0 19.774 8.136 20.32 18.367C76.346 40.71 81.08 46.09 81.08 52.522 81.08 59.966 74.74 66 66.92 66H22.528Z" fill="#FFF"/><path d="M15.028 45C6.728 45 0 38.596 0 30.697c0-5.913 3.77-10.988 9.147-13.167.815-5.006 5.363-8.838 10.852-8.838 1.64 0 3.195.342 4.593.955C28.115 3.878 34.679 0 42.194 0c10.886 0 19.774 8.136 20.32 18.367C68.846 19.71 73.58 25.09 73.58 31.522 73.58 38.966 67.24 45 59.42 45H15.028Z" fill="url(#a)" transform="translate(7.5 21)"/><path d="M49.694 59.729c11.237 0 20.346-8.67 20.346-19.365C70.04 29.67 60.931 21 49.694 21 38.458 21 29.35 29.67 29.35 40.364c0 10.695 9.109 19.365 20.345 19.365Z" fill="url(#b)"/><path d="M54.594 59.163c8.87-2.087 15.446-9.712 15.446-18.799 0-.334-.009-.667-.026-.997a14.902 14.902 0 0 0-3.095-.323c-7.821 0-14.161 6.034-14.161 13.478 0 2.415.667 4.681 1.836 6.641Z" fill="url(#c)" opacity=".121"/><path d="M66.919 66c7.821 0 14.161-6.034 14.161-13.478s-6.34-13.478-14.16-13.478-14.161 6.034-14.161 13.478S59.098 66 66.919 66Z" fill="url(#d)"/><path d="M36.423 46.238c-2.254-5.192-7.626-8.844-13.895-8.844a15.65 15.65 0 0 0-5.881 1.136 9.996 9.996 0 0 0-.13 1.614c0 5.773 4.917 10.453 10.982 10.453 3.676 0 6.93-1.72 8.924-4.36Z" fill="url(#e)"/><g transform="translate(16.517 21)"><path d="M50.402 45c7.821 0 14.161-6.034 14.161-13.478s-6.34-13.478-14.16-13.478c-7.822 0-14.162 6.034-14.162 13.478S42.581 45 50.402 45Zm-12.325-6.837c8.87-2.087 15.446-9.712 15.446-18.799 0-.334-.009-.667-.026-.997a14.902 14.902 0 0 0-3.095-.323c-7.82 0-14.161 6.034-14.161 13.478 0 2.415.667 4.681 1.836 6.641Z" fill="url(#f)"/><path d="M33.178 0c11.236 0 20.345 8.67 20.345 19.364 0 10.695-9.109 19.365-20.345 19.365-7.667 0-14.344-4.036-17.812-9.998 3.884-1.612 6.598-5.298 6.598-9.587 0-4.211-2.617-7.841-6.388-9.496C19.097 3.878 25.66 0 33.178 0ZM10.982 8.692c1.64 0 3.196.342 4.594.956a18.56 18.56 0 0 0-2.744 9.716c0 3.398.92 6.591 2.534 9.367a11.43 11.43 0 0 1-4.384.866C4.917 29.597 0 24.917 0 19.144 0 13.372 4.917 8.692 10.982 8.692Z" fill="url(#g)"/><ellipse fill="url(#h)" cx="13.641" cy="21.4" rx="10.924" ry="10.397"/></g><path d="M29.349 40.364c0 3.398.919 6.59 2.534 9.367 3.883-1.611 6.598-5.297 6.598-9.587 0-4.212-2.618-7.842-6.39-9.497a18.568 18.568 0 0 0-2.742 9.717Z" fill="url(#i)"/><path d="M37.016 55.51a13.67 13.67 0 0 0 .54-3.813c0-5.543-3.312-10.35-8.156-12.724-.034.46-.051.924-.051 1.391 0 6.132 2.994 11.598 7.667 15.146Z" fill="url(#j)"/><g transform="translate(7.5 21)"><mask id="m" fill="#fff"><use xlink:href="#k"/></mask><path d="M38.09 74.377c17.175 0 31.097-13.251 31.097-29.597 0-16.346-13.922-29.597-31.096-29.597-17.175 0-31.097 13.251-31.097 29.597 0 16.346 13.922 29.597 31.097 29.597Z" fill="url(#l)" mask="url(#m)"/></g></g></svg>