<svg xmlns="http://www.w3.org/2000/svg" viewBox="0 0 90 90"><path d="M0 0h90v90H0z"/><path fill="#34E834" d="M47.78 31.47v26.9h-5.91v-26.9h5.9ZM75 48.17c-.6 6.56-4.67 11.02-12 11.02-7.8 0-12.94-5.6-12.94-14.12 0-7.83 4.96-14.07 13.18-14.07 6.44 0 11.14 4.08 11.58 9.64h-5.76c-.6-2.96-2.78-4.7-5.94-4.7-5.14 0-7.15 4.64-7.15 9.13 0 5.55 2.75 9.1 7.06 9.1 3.55 0 5.64-2.13 6.15-6.06H75v.06Z"/><path fill="#fff" d="M20.91 49.62v8.87H15v-8.87h5.91Zm8.87-10.35V58.5h-5.92V39.27h5.92Zm8.83 5.92v13.3h-5.9v-13.3h5.9Z"/></svg>