<svg viewBox="0 0 90 90" xmlns="http://www.w3.org/2000/svg"><g fill="none"><path d="M89.517 60.38c-2.084 8.704-8.674 14.239-17.912 14.498-8.594.24-17.198.052-25.799.052v-.039c-8.313 0-16.636.24-24.937-.061C10.414 74.454 1.965 66.976.397 57.246c-1.868-11.58 2.909-21.319 13.205-25.257 4.222-1.614 7.21-3.94 10.134-7.305C36.883 9.557 60.694 12.61 69.922 30.639c2.194 4.29 4.564 7.202 9.199 9.183C87.495 43.408 91.463 52.23 89.51 60.38h.007Z" fill="#3093FB"/><path d="m58.314 34.835.007 28.08h-3.648v-2.248c-1.747 1.813-3.78 2.72-6.097 2.72-2.749 0-5.093-.976-7.033-2.93-1.94-1.953-2.91-4.31-2.91-7.072.006-2.762.979-5.12 2.917-7.073 1.939-1.954 4.283-2.93 7.033-2.93 2.318 0 4.35.907 6.098 2.72V34.835h3.633Zm-23.955 0v28.08h-3.617v-28.08h3.617Zm18.633 14.129a6.219 6.219 0 0 0-6.801-1.368 6.265 6.265 0 0 0-3.856 5.79 6.265 6.265 0 0 0 3.856 5.79 6.219 6.219 0 0 0 6.8-1.368c.921-.925 1.487-1.949 1.697-3.072v-2.684c-.21-1.136-.776-2.166-1.696-3.09Z" fill="#FFF"/></g></svg>