<svg viewBox="0 0 90 90" xmlns="http://www.w3.org/2000/svg"><g fill="none"><path fill="#0A3761" d="M0 0h90v90H0z"/><path d="M5 33h4.14v3.24H5V33Zm0 4.92h4.14v11.16H5V37.92Zm6.575 4.104c0-.756-.012-1.44.122-2.052.134-.612.426-1.2.865-1.644.438-.432 1.083-.768 1.924-1.008.84-.24 1.972-.36 3.397-.36h1.023c.462 0 .925.036 1.363.108.45.072.853.192 1.23.384.378.18.682.432.938.732.243.3.39.684.463 1.14L22.912 33h4.115v15.948h-3.884V46.8c-.122.372-.34.612-.548.888a2.856 2.856 0 0 1-.816.744c-.34.204-.779.36-1.266.468-.487.108-.95.156-1.62.156h-.998c-1.425 0-2.557-.12-3.397-.36-.84-.24-1.486-.576-1.936-1.02-.439-.432-.73-.876-.865-1.488-.134-.612-.122-1.296-.122-2.052v-2.112Zm3.994 1.716c0 .336.025.636.073.912.049.276.159.492.317.672.158.18.402.312.718.408.317.096.755.144 1.328.144h2.252c.45 0 .853-.036 1.206-.096.353-.06.645-.18.876-.348a1.49 1.49 0 0 0 .524-.684c.122-.288.183-.66.183-1.128v-1.2c0-.468-.061-.84-.183-1.128a1.575 1.575 0 0 0-.524-.684 2.062 2.062 0 0 0-.876-.348 7.206 7.206 0 0 0-1.206-.096h-2.252c-.56 0-.999.048-1.328.144-.316.096-.56.228-.718.408-.158.18-.268.396-.317.672a5.23 5.23 0 0 0-.073.912v1.44Zm24.524 2.1c-.061.612-.658.732-1.62.732h-2.849c-.974 0-2.046-.48-2.046-1.512v-.804h10.594v-1.98c0-3.912-1.826-5.316-6.417-5.316H34.71c-3.13 0-5.236 1.368-5.236 5.652v1.104c0 4.836 2.85 5.364 5.71 5.364H39.3c3.58 0 4.859-.708 4.895-3.24h-4.103Zm-6.49-4.488c0-1.236.499-1.896 2.082-1.896h2.447c1.571 0 2.083.648 2.083 1.896v.528h-6.6v-.528h-.012Zm12.188 3.516c0-3.12 4.506-2.976 4.895-2.976h3.264c.84 0 1.985.276 2.374.684l.073.072v-1.272c0-1.236-.475-1.92-2.045-1.92h-2.448c-1.315 0-2.033.18-2.033.744h-3.714c0-2.424 1.985-3.24 5.163-3.24h4.822c2.873 0 4.37 1.488 4.37 4.224v7.776h-4.115v-1.512l-.243.42c-.694.984-1.23 1.212-3.324 1.212h-2.898c-2.558 0-4.14-.528-4.14-3.228v-.984Zm9.06 1.836c1.132 0 1.57-.444 1.57-1.272 0-1.44-.365-1.644-2.58-1.668h-1.973c-1.644-.012-2.046.396-2.058 1.26-.025 1.32.414 1.68 2.058 1.68h2.983Zm8.11 2.376h4.14V33h-4.14v16.08Zm6.453-7.488c0-3.852 2.57-4.632 4.834-4.632h5.906c2.265 0 4.834.78 4.834 4.632v2.856c0 3.852-2.57 4.632-4.834 4.632h-5.906c-2.265 0-4.834-.78-4.834-4.632v-2.856Zm3.994 2.124c0 .336.024.648.073.912.049.276.158.504.317.672.158.18.414.312.73.408.329.096.78.144 1.352.144h2.252c.463 0 .865-.036 1.23-.096.366-.06.658-.18.901-.348.244-.168.414-.396.536-.684.122-.288.183-.672.183-1.14v-1.152c0-.468-.061-.84-.183-1.14a1.6 1.6 0 0 0-.536-.684 2.17 2.17 0 0 0-.9-.348 7.515 7.515 0 0 0-1.23-.096H75.88c-.573 0-1.023.048-1.352.144-.329.096-.572.228-.73.408-.159.18-.268.408-.317.672a5.23 5.23 0 0 0-.073.912v1.416Z" fill="#FFF"/><path fill="#F60" d="M5 57h80v-3.24H5z"/></g></svg>