<svg xmlns="http://www.w3.org/2000/svg" viewBox="0 0 90 90"><defs><linearGradient id="A" x1="33.147%" x2="66.741%" y1=".327%" y2="92.714%"><stop offset="0%" stop-color="#15cd72"/><stop offset="100%" stop-color="#7fff81"/></linearGradient></defs><path fill="url(#A)" d="M45.263 0c7.795.04 16.616 2.863 20.625 9.727 4.298 7.353 1.84 16.917-7.795 27.539h0l-.138.137-13.179 13.099-7.329 7.268-2.898 3.471c-5.903 7.766-5.495 12.629-3.951 15.284 2.063 3.522 7.545 5.973 14.171 6.006 6.606.033 12.245-2.366 14.507-6.02 1.971-3.183 2.405-9.282-6.08-19.486a3.72 3.72 0 0 1 .5-5.256c1.603-1.314 3.97-1.092 5.291.497 9.229 11.106 11.206 20.852 6.685 28.161-4.239 6.85-13.119 9.609-20.935 9.57-7.795-.033-16.616-2.863-20.625-9.721-4.298-7.36-1.84-16.923 7.796-27.539h0l.138-.144 7.427-7.38 13.08-12.989 2.899-3.47c5.902-7.766 5.494-12.623 3.949-15.277-2.063-3.53-7.545-5.981-14.171-6.013-6.606-.027-12.245 2.366-14.505 6.02-1.973 3.183-2.406 9.282 6.079 19.486 1.321 1.595 1.098 3.948-.5 5.262a3.78 3.78 0 0 1-5.291-.497C21.785 26.625 19.807 16.886 24.329 9.57 28.568 2.726 37.448-.039 45.263 0zM39.781 62.99c3.51-4.216 7.329-3.864 10.405-.17 3.556 4.151 4.312 7.798 2.583 10.544-1.63 2.549-5.042 3.588-8.045 3.576-2.997-.02-6.388-1.085-7.927-3.642-1.643-2.759-.71-6.334 2.983-10.308zM45 13.048c2.997.013 6.395 1.079 7.939 3.641 1.643 2.759.704 6.341-3.004 10.309-3.503 4.229-7.341 3.876-10.41.177-3.556-4.164-4.312-7.806-2.577-10.55 1.624-2.563 5.042-3.588 8.052-3.576z" transform="matrix(1 0 0 -1 0 90)"/></svg>