<svg xmlns="http://www.w3.org/2000/svg" viewBox="0 0 90 90"><path fill="#FFF" d="M0 0h90v90H0z"/><path d="M64.087 41.15c-.161-.292-.29-.553-.483-.78-1.06-1.624-2.412-2.923-4.02-3.865-.966-.618-2.06-1.04-3.218-1.332l-14.475-3.93c-1.126-.293-2.252-.455-3.313-.455-2.188-.033-4.279.552-6.338 1.754a3.189 3.189 0 0 0-.546.357c-.965.617-1.802 1.3-2.542 2.144-1.35 1.43-2.283 3.216-2.798 5.262l-3.893 14.618c-.9 3.41-.482 6.66 1.255 9.712 1.737 3.086 4.31 5.068 7.72 5.977l14.508 3.93c3.378.91 6.562.456 9.586-1.299 3.056-1.753 5.018-4.352 5.95-7.73l3.893-14.618c.804-3.151.548-6.107-.868-8.966a4.46 4.46 0 0 0-.419-.78Zm.482-17.25c-2.412-4.222-5.95-6.983-10.68-8.25-4.696-1.267-9.135-.682-13.349 1.754-4.182 2.469-6.916 6.075-8.17 10.817a29.894 29.894 0 0 0-.483 2.177c2.509-1.3 4.954-1.884 7.366-1.787.901-2.209 2.445-3.93 4.568-5.198 2.606-1.494 5.372-1.883 8.3-1.104 2.927.812 5.146 2.502 6.626 5.133 1.223 2.144 1.673 4.385 1.416 6.756 1.994 1.104 3.828 2.957 5.468 5.458.29-.715.547-1.43.772-2.21 1.19-4.742.611-9.29-1.834-13.545" fill="#EE2F3B"/><path d="M38.385 50.115H49.45c-.16-1.851-.643-3.248-1.511-4.158-.934-.974-2.284-1.461-4.021-1.461-1.577 0-2.895.487-3.893 1.461-1.03 1.007-1.576 2.372-1.64 4.158m13.028 8.088h5.436c-.804 2.892-2.316 5.1-4.568 6.628-2.251 1.59-5.05 2.37-8.46 2.37-4.117 0-7.334-1.266-9.65-3.832-2.316-2.502-3.474-6.043-3.474-10.688 0-4.417 1.125-7.86 3.377-10.362 2.316-2.566 5.533-3.833 9.65-3.833 4.343 0 7.721 1.235 10.101 3.736 2.317 2.566 3.475 6.107 3.475 10.687v1.137c0 .357-.033.584-.097.715H38.417c.064 2.143.611 3.735 1.64 4.774.933 1.105 2.349 1.657 4.246 1.657 1.223 0 2.285-.227 3.153-.714.225-.066.418-.195.611-.357.193-.163.386-.359.612-.586.064-.194.354-.487.804-.812.386-.325 1.061-.52 1.93-.52" fill="#FFF"/></svg>