<svg viewBox="0 0 90 90" xmlns="http://www.w3.org/2000/svg"><g fill="none"><path fill="#E01B1C" d="M0 0h90v90H0z"/><path d="M27.952 24.041v41.918H20V24.041h7.952ZM53.583 23h-.209c-5.531.051-10.795 2.256-14.821 6.212a22.018 22.018 0 0 0-6.605 14.842c-.251 6.05 1.883 11.79 6.007 16.161C42.084 64.591 47.632 67 53.58 67c6.102 0 12.383-2.519 16.42-6.579V41.8H52.805v7.758h9.456v6.826l-.102.068c-2.38 1.595-5.482 2.625-8.58 2.625-3.833 0-7.4-1.56-10.047-4.393-2.643-2.83-3.987-6.536-3.786-10.435.364-7.06 6.099-12.903 13.057-13.3 3.867-.228 7.553 1.384 10.492 4.248.104.102.223.229.359.386l5.514-5.603a34.074 34.074 0 0 0-.358-.386C64.889 25.433 59.535 23 53.583 23Z" fill="#FFF"/></g></svg>