<svg viewBox="0 0 90 90" xmlns="http://www.w3.org/2000/svg"><g fill="none"><path d="M69.744 26.868a26.026 26.026 0 0 0-12.766.317 25.024 25.024 0 0 0-17.884 18.648 17.614 17.614 0 0 0-.474 3.222 4.867 4.867 0 0 0 0 .845 24.277 24.277 0 0 0 1.846 10.988 26.387 26.387 0 0 0 18.253 15.426c13.722 3.235 27.466-5.278 30.702-19.018a25.597 25.597 0 0 0-3.522-19.31 25.532 25.532 0 0 0-16.155-11.118Z" fill="#00A5E3"/><path d="M34.769 43.561A26.4 26.4 0 0 1 52.177 24.28c-3.576-8.59-13.012-13.133-21.945-10.566a17.633 17.633 0 0 0-12.608 13.154c0 .74 0 1.532-.37 2.272v.528a17.613 17.613 0 0 0 1.32 7.765A18.364 18.364 0 0 0 31.444 48c.92.2 1.855.324 2.796.37a2.54 2.54 0 0 1 0-.634c-.004-.266.014-.53.053-.793.08-1.136.239-2.266.475-3.38Z" fill="#59C5ED"/><path d="M34.083 52.806c-1.047-.06-2.088-.2-3.113-.423a21.09 21.09 0 0 1-9.917-4.754 12.466 12.466 0 0 0-8.705 12.361c.018 6.298 4.44 11.722 10.599 12.999a13.29 13.29 0 0 0 14.881-7.716 21.14 21.14 0 0 1-1.793-3.434 25.28 25.28 0 0 1-1.952-9.033Z" fill="#8CD7F2"/><path d="M17.36 44.195a21.78 21.78 0 0 1-4.8-11.41C6.731 31.764 1.181 35.666.161 41.5c-1.02 5.835 2.877 11.393 8.704 12.414a16.475 16.475 0 0 1 8.494-9.72Z" fill="#A6E0F5"/></g></svg>