<svg viewBox="0 0 90 90" xmlns="http://www.w3.org/2000/svg"><g fill="none" fill-rule="evenodd"><path d="M36.72 12.027c-11.672 3.016-20.708 12.316-25.602 24.382C-6.828 80.27 65.082 76.374 85.162 49.605 81.648 33.769 58.431 17.557 36.72 12.027Z" fill="#1302E7" fill-rule="nonzero"/><path d="M50.148 11.398c-4.769-.754-9.287-.502-13.428.629 21.71 5.53 44.928 21.742 48.442 37.578 1.38-1.76 2.385-3.645 3.263-5.656C93.57 30.376 62.823 13.284 50.148 11.4Z" fill="#6763FB" fill-rule="nonzero"/><path d="M10.992 36.409c4.895-12.066 14.056-21.366 25.728-24.382-10.291-2.64-20.331-2.89-27.861.377-12.926 6.158-7.907 36.447.753 50.774 12.926 20.234 37.9 19.857 57.98 11.185 15.06-6.786 19.578-15.71 17.57-24.758-20.08 26.77-91.99 30.665-74.17-13.196Z" fill="#47CDFB" fill-rule="nonzero"/><path d="M25.425 29.245c0-1.885 1.631-3.52 3.514-3.52 2.008 0 3.514 1.635 3.64 3.52 0 1.885-1.632 3.519-3.64 3.519-1.883 0-3.514-1.634-3.514-3.52Zm22.213 6.66c1.631-2.01 4.141-3.141 6.902-3.141 5.146 0 9.413 4.273 9.915 9.426v11.562h-5.02V42.19a4.503 4.503 0 0 0-4.518-4.525 4.502 4.502 0 0 0-4.518 4.525v11.562h-5.02V42.19a4.503 4.503 0 0 0-4.518-4.525 4.502 4.502 0 0 0-4.518 4.525v11.562h-5.02V42.19c0-5.153 4.142-9.426 9.413-9.426 2.635 0 5.145 1.257 6.902 3.142Z" fill="#FFF"/></g></svg>