<svg xmlns="http://www.w3.org/2000/svg" viewBox="0 0 90 90"><path fill="#FFF" d="M0 0h90v90H0z"/><path d="M44.986 49.961a10.52 10.52 0 0 1 4.52 1.004 10.893 10.893 0 0 1 3.677 2.842c.512-1.216.79-2.522.817-3.846a9.159 9.159 0 0 0-.679-3.507 8.986 8.986 0 0 0-1.963-2.958 9.544 9.544 0 0 0-2.913-1.98 9.126 9.126 0 0 0-3.459-.696 8.909 8.909 0 0 0-6.344 2.676 8.986 8.986 0 0 0-1.963 2.958A9.16 9.16 0 0 0 36 49.96c.027 1.324.305 2.63.817 3.846a10.539 10.539 0 0 1 3.676-2.842 10.095 10.095 0 0 1 4.493-1.004Z" fill="#A9B4BD"/><path d="M54 60.859a9.067 9.067 0 0 0-1.525-5.073 9.006 9.006 0 0 0-4.04-3.374 8.768 8.768 0 0 0-5.191-.5 8.732 8.732 0 0 0-4.602 2.48 9.24 9.24 0 0 0-2.416 4.689 9.369 9.369 0 0 0 .523 5.272 9.127 9.127 0 0 0 3.286 4.096A8.815 8.815 0 0 0 44.986 70a9.018 9.018 0 0 0 6.345-2.703A9.276 9.276 0 0 0 54 60.859Z"/><path d="M54 29.142a9.01 9.01 0 0 0-1.525-5.072 9.061 9.061 0 0 0-4.03-3.372 8.981 8.981 0 0 0-5.201-.53 8.978 8.978 0 0 0-4.597 2.506 9.319 9.319 0 0 0-2.484 4.685 9.42 9.42 0 0 0 .761 5.682 9.132 9.132 0 0 0 3.895 4.125 8.835 8.835 0 0 0 5.523.971 8.938 8.938 0 0 0 5.016-2.556 9.1 9.1 0 0 0 1.95-2.95A9.274 9.274 0 0 0 54 29.143Z" fill="#F5333F"/></svg>