<svg viewBox="0 0 90 90" xmlns="http://www.w3.org/2000/svg"><g fill="none" fill-rule="evenodd"><circle fill="#000" cx="45.5" cy="45.5" r="39.5"/><path d="M69.795 70.107a16.192 16.192 0 0 1-6.433 2.019c-5.33.537-9.775-1.281-13.479-5.067-.036-.036-.072-.075-.114-.108-.015-.012-.04-.01-.093-.021-.18.68-.349 1.368-.547 2.046-1.314 4.458-4.263 7.212-8.814 8.109-3.838.756-7.223-.34-10.01-3.072-.98-.966-1.782-2.11-2.651-3.19a968.739 968.739 0 0 1-4.945-6.185 11.015 11.015 0 0 1-2.375-6.081c-.21-2.53.424-4.836 1.798-6.957l.07-.114c-.464-.348-.933-.675-1.372-1.038-1.956-1.623-3.15-3.708-3.685-6.177-.553-2.56-1.094-5.121-1.644-7.683a10.806 10.806 0 0 1-.223-2.817c.03-.348-.04-.698-.201-1.008a10.647 10.647 0 0 1-1.184-5.889c.237-3.042 1.566-5.574 3.85-7.59 1.762-1.56 3.86-2.397 6.18-2.631 3.451-.351 6.415.768 8.925 3.117.911.849 1.627 1.854 2.183 2.967.027.057.063.108.087.156.574-.609 1.112-1.239 1.71-1.806 2.098-1.995 4.6-3.222 7.425-3.81 1.413-.297 2.844-.42 4.287-.261.327.025.654-.056.931-.231a14.892 14.892 0 0 1 5.664-1.74c4.241-.432 8.023.738 11.362 3.36 3.105 2.433 4.957 5.631 5.736 9.474.327 1.632.715 3.252 1.022 4.887.526 2.814-.012 5.442-1.518 7.878l-.214.345c.734.627 1.491 1.185 2.15 1.848 1.56 1.569 2.452 3.492 2.891 5.646.343 1.683.734 3.354 1.043 5.046.62 3.175.195 6.464-1.211 9.378-1.464 3.066-3.622 5.514-6.601 7.2M45.014 0C20.719 0 1.027 19.656 1.027 43.902c0 11.112 4.14 21.258 10.96 28.992L1 81.66A70.184 70.184 0 0 0 34.285 90c8.757 0 17.134-1.6 24.866-4.518C76.51 79.605 89 63.21 89 43.902 89 19.656 69.308 0 45.014 0m19.971 34.842a2.414 2.414 0 0 1-2.94-.57c-.378-.42-.505-.948-.616-1.482-.303-1.44-.604-2.886-.914-4.32-.24-1.101-1.106-1.86-2.152-1.902a2.3 2.3 0 0 0-2.357 1.68c-.198.636 0 1.236.12 1.845.292 1.392.617 2.775.872 4.173.24 1.32-.643 2.52-1.984 2.769-1.241.24-2.464-.618-2.738-1.914-.34-1.59-.667-3.177-1.022-4.758-.265-1.176-1.374-1.989-2.447-1.83-1.308.183-2.212 1.209-2.104 2.481.06.681.258 1.353.403 2.025.22 1.038.466 2.07.658 3.114.24 1.296-.625 2.586-1.855 2.82-1.334.249-2.558-.585-2.843-1.944-.355-1.665-.73-3.33-1.052-5.007-.728-3.768 1.719-7.509 5.458-8.247a6.983 6.983 0 0 1 4.942.783c.616-.567 1.173-1.17 1.822-1.662 1.013-.774 2.21-1.095 3.472-1.227 3.258-.336 6.757 2.031 7.482 5.805.3 1.56.658 3.111.992 4.665.246 1.122-.235 2.22-1.197 2.703m5.3-3.414c-.33-1.554-.668-3.108-.986-4.662a12.354 12.354 0 0 0-1.407-3.759 10.823 10.823 0 0 0-3.066-3.351c-.142-.107-.286-.21-.433-.309a10.72 10.72 0 0 0-6.896-1.89 10.84 10.84 0 0 0-5.79 2.118.932.932 0 0 1-.122.078.825.825 0 0 1-.12.045.62.62 0 0 1-.277-.006 11.58 11.58 0 0 0-2.315-.276 9.183 9.183 0 0 0-1.4.093 12.16 12.16 0 0 0-2.986.804 10.423 10.423 0 0 0-3.423 2.316c-.583.598-1.1 1.256-1.545 1.962-.199.312-.382.63-.55.951a10.77 10.77 0 0 0-1.203 6.126c.036.363.087.726.156 1.092.331 1.725.722 3.44 1.083 5.16.042.186.087.366.138.543a6.497 6.497 0 0 0 2.032 3.156 6.651 6.651 0 0 0 2.597 1.395 6.325 6.325 0 0 0 5.937-1.416 8.37 8.37 0 0 0 .667-.705c.21-.252.421-.516.65-.777a6.96 6.96 0 0 0 1.148.639 6.292 6.292 0 0 0 1.848.492c.638.063 1.302.03 1.99-.117a6.337 6.337 0 0 0 2.405-1.06c.692-.5 1.275-1.145 1.765-1.913h.066c.09.05.186.102.276.159a6.266 6.266 0 0 0 4.615.873 6.12 6.12 0 0 0 2.933-1.39 6.798 6.798 0 0 0 2.348-5.075c0-.432-.045-.864-.135-1.296m-1.521 27.585c-1.473 1.737-3.409 2.466-4.924 2.505-4.178 0-7.07-2.433-7.786-5.94-.318-1.563-.667-3.13-.982-4.695-.262-1.305.778-2.652 2.104-2.763 1.455-.123 2.477.66 2.771 2.094.31 1.515.644 3.027.96 4.542a2.453 2.453 0 0 0 2.726 1.866c1.13-.171 2.095-1.245 1.983-2.403-.072-.783-.291-1.56-.45-2.34-.205-.981-.43-1.965-.614-2.952a2.46 2.46 0 0 1 1.84-2.778c1.302-.3 2.642.45 2.937 1.716.42 1.809.836 3.618 1.142 5.448.358 2.148-.31 4.05-1.707 5.7m5.852-6.888c-.33-1.644-.703-3.276-1.03-4.92-.945-4.761-6.647-7.065-10.732-3.891-.604.474-1.082 1.125-1.653 1.725-1.587-1.074-3.367-1.398-5.303-.963-3.439.774-5.753 4.374-5.002 7.815.33 1.545.659 3.09.98 4.635.409 1.959 1.17 3.768 2.54 5.24 2.901 3.12 6.451 4.516 10.726 3.796 2.972-.498 5.425-1.89 7.262-4.296 2.074-2.718 2.886-5.76 2.212-9.141m-29.849 2.499c-.88 3.39-1.783 6.78-2.67 10.176a2.27 2.27 0 0 1-1.818 1.758c-1.013.225-1.834-.084-2.486-.9-2.212-2.781-4.43-5.558-6.652-8.331-.631-.786-.812-1.656-.415-2.592.403-.954 1.187-1.422 2.2-1.494a2.14 2.14 0 0 1 1.88.834c1.178 1.455 2.344 2.922 3.516 4.38.078.102.16.195.28.342l1.512-5.76c.318-1.218 1.392-1.926 2.69-1.782 1.088.117 2.05 1.137 2.095 2.274.015.36-.039.74-.129 1.095m1.78-6.252a6.593 6.593 0 0 0-8.36.27c-.514.447-.926 1.017-1.4 1.55a1.636 1.636 0 0 1-.145-.09c-1.912-1.211-3.95-1.38-6.051-.617a6.65 6.65 0 0 0-4.137 4.532A6.635 6.635 0 0 0 27.798 60c2.162 2.676 4.299 5.367 6.442 8.058 1.69 2.124 3.86 3.06 6.571 2.67a6.698 6.698 0 0 0 5.45-4.93c.89-3.383 1.774-6.764 2.675-10.145.758-2.844-.138-5.595-2.386-7.284m-16.521-6.027c-1.353.276-2.57-.522-2.877-1.92a746.573 746.573 0 0 1-1.632-7.707 2.351 2.351 0 0 1 .478-2.023 2.362 2.362 0 0 1 1.896-.857 2.395 2.395 0 0 1 2.345 1.848 871.523 871.523 0 0 1 1.66 7.77 2.426 2.426 0 0 1-1.87 2.889M24.07 25.73a2.438 2.438 0 0 1 2.41-2.454c1.344-.006 2.433 1.116 2.436 2.508a2.374 2.374 0 0 1-.71 1.72c-.46.452-1.085.7-1.731.683a2.431 2.431 0 0 1-1.714-.73 2.421 2.421 0 0 1-.691-1.727m11.98 12.775c-.169-.75-.325-1.506-.49-2.26a389.437 389.437 0 0 1-.95-4.52c-.274-1.359-.661-2.661-1.593-3.729a.44.44 0 0 1-.12-.396c.005-.03.005-.057.014-.09a6.478 6.478 0 0 0-.658-5.157 6.521 6.521 0 0 0-2.044-2.166 6.914 6.914 0 0 0-1.909-.882 6.616 6.616 0 0 0-4.373.279 7.038 7.038 0 0 0-1.368.774c-1.551 1.131-2.61 2.892-2.736 4.812-.12 1.8.361 3.429 1.552 4.818.129.15.15.273.096.45a6.017 6.017 0 0 0-.138 3.054c.556 2.658 1.118 5.31 1.689 7.962.09.429.222.83.385 1.209 1.142 2.643 3.877 4.023 6.009 3.966l.526-.045a6.803 6.803 0 0 0 3.15-1.002 6.604 6.604 0 0 0 2.579-3.006c.529-1.23.691-2.64.379-4.071" fill="#FFF"/></g></svg>