<svg viewBox="0 0 90 90" xmlns="http://www.w3.org/2000/svg"><g fill="none" fill-rule="evenodd"><path d="M3.03 38c.714 0 1.071.344 1.071 1.032 0 .688-.357 1.032-1.07 1.032-.687 0-1.031-.344-1.031-1.032C2 38.344 2.344 38 3.03 38Zm0 13.592c-.686 0-1.03-.344-1.03-1.032v-8.647c0-.688.344-1.032 1.03-1.032.714 0 1.071.344 1.071 1.032v8.645c0 .689-.357 1.033-1.07 1.033Zm9.852-9.055a7.85 7.85 0 0 0-4.599 1.44v6.582c0 .688-.357 1.033-1.07 1.033-.688 0-1.031-.344-1.031-1.032v-7.09c0-.311.132-.577.396-.798 1.837-1.467 3.938-2.2 6.304-2.2s4.467.733 6.305 2.2c.264.221.396.487.396.798v7.088c0 .688-.35 1.033-1.05 1.033-.688 0-1.032-.344-1.032-1.032v-6.583a7.994 7.994 0 0 0-4.619-1.44Zm15.488 7.419a7.864 7.864 0 0 0 4.62-1.46v-4.519c-1.402-.96-2.942-1.44-4.62-1.44-1.692 0-3.225.48-4.599 1.44v4.517c1.361.974 2.894 1.461 4.599 1.461Zm-6.7-10.924c0-.688.343-1.032 1.03-1.032.714 0 1.071.344 1.071 1.032v2.55a9.85 9.85 0 0 1 4.599-1.109c2.366 0 4.467.733 6.304 2.2.265.221.397.487.397.798v5.53c0 .312-.132.578-.397.799-1.81 1.467-3.912 2.2-6.304 2.2-2.392 0-4.494-.733-6.304-2.2-.264-.22-.396-.487-.396-.798v-9.97Zm22.188 10.924a7.861 7.861 0 0 0 4.619-1.46v-4.519a7.995 7.995 0 0 0-4.62-1.44c-1.69 0-3.224.48-4.599 1.44v4.517c1.362.974 2.895 1.461 4.6 1.461Zm6.7-.954c0 .311-.131.577-.396.798-1.81 1.467-3.912 2.2-6.304 2.2-2.392 0-4.494-.733-6.304-2.2-.264-.22-.396-.487-.396-.798v-5.53c0-.312.132-.578.395-.799 1.837-1.467 3.94-2.2 6.306-2.2 2.365 0 4.466.733 6.303 2.2.265.221.397.487.397.798v5.53Zm1.433 1.518c0-.259.158-.519.476-.779l4.58-3.485-4.58-3.524c-.318-.247-.476-.5-.476-.76 0-.117.033-.24.099-.37a1.48 1.48 0 0 1 .238-.37 1.19 1.19 0 0 1 .357-.272.744.744 0 0 1 .376-.117c.212 0 .443.09.694.273l5.016 3.835 4.996-3.835c.251-.182.482-.273.693-.273a.75.75 0 0 1 .377.116.978.978 0 0 1 .337.273c.106.104.191.228.258.37.066.13.1.253.1.37 0 .26-.16.513-.477.76l-4.58 3.524 4.58 3.485c.317.26.476.52.476.78a.975.975 0 0 1-.099.408 1.04 1.04 0 0 1-.238.35 1.383 1.383 0 0 1-.337.273.887.887 0 0 1-.397.098c-.21 0-.442-.09-.693-.273l-4.996-3.836-5.016 3.836c-.25.182-.482.272-.694.272a.854.854 0 0 1-.376-.097 1.8 1.8 0 0 1-.357-.272 2.225 2.225 0 0 1-.238-.37.937.937 0 0 1-.1-.39Z" fill="#8C8279" fill-rule="nonzero"/><path d="M67.487 49.547c.687 0 1.03.337 1.03 1.012 0 .688-.343 1.033-1.03 1.033-.7 0-1.05-.344-1.05-1.032 0-.676.35-1.013 1.05-1.013ZM71.239 38c.714 0 1.07.344 1.07 1.032v11.526c0 .689-.356 1.033-1.07 1.033-.687 0-1.03-.343-1.03-1.031V39.032c0-.688.343-1.032 1.03-1.032Zm16.23 2.88c.585.424.687.918.305 1.481l-5.886 8.567c-.324.472-.97.592-1.442.268l-.02-.015a1.085 1.085 0 0 1-.323-.37l-5.718-8.45c-.38-.563-.29-1.049.273-1.457.584-.423 1.067-.354 1.449.21l4.934 7.293 5.012-7.293c.381-.564.853-.641 1.416-.234Z" fill="#CC0717"/></g></svg>