<svg viewBox="0 0 90 90" xmlns="http://www.w3.org/2000/svg"><path d="M45.44 5.5a72.52 72.52 0 0 0-.592.006A64.595 64.595 0 0 0 2.51 20.696 6.695 6.695 0 0 0 0 26.043v37.913a6.937 6.937 0 0 0 2.664 5.347 63.901 63.901 0 0 0 42.337 15.19 63.871 63.871 0 0 0 42.337-15.19A6.94 6.94 0 0 0 90 63.834V26.04a6.692 6.692 0 0 0-2.812-5.347A64.568 64.568 0 0 0 45.438 5.5h.003Zm-1.003 7.869c.169 0 .338.003.508.006A56.42 56.42 0 0 1 82.02 26.498V63.5a55.727 55.727 0 0 1-37.075 13.124A55.817 55.817 0 0 1 7.833 63.5V26.498a56.512 56.512 0 0 1 36.604-13.13ZM14.214 27.993a1.995 1.995 0 0 0-1.572.994 1.982 1.982 0 0 0 .725 2.734L36.29 44.999 13.367 58.366a1.982 1.982 0 0 0-.726 2.731 1.988 1.988 0 0 0 2.722.76l25.01-14.491 4.599 2.646 4.596-2.643 24.98 14.488a2.02 2.02 0 0 0 2.751-.76 2.01 2.01 0 0 0-.756-2.73L53.56 44.998 76.543 31.72a2.013 2.013 0 0 0 .756-2.734 2.051 2.051 0 0 0-2.752-.727L44.972 45.391l-29.606-17.13a1.989 1.989 0 0 0-1.152-.268Z" fill="#CC0917"/></svg>