<svg xmlns="http://www.w3.org/2000/svg" viewBox="0 0 90 90"><path fill="#fff" d="M0 0h90v90H0z"/><path fill="#2A2F43" d="M29.77 52.71h7.61L42.46 63h-12.7c-4.7 0-9.22-1.9-12.56-5.27A18.12 18.12 0 0 1 12 45c0-4.77 1.87-9.35 5.2-12.73A17.65 17.65 0 0 1 29.77 27h12.7l-5.09 10.29h-7.61a7.53 7.53 0 0 0-5.39 2.26A7.72 7.72 0 0 0 22.15 45a7.8 7.8 0 0 0 2.23 5.45 7.61 7.61 0 0 0 5.39 2.26Zm17.9-20.44A17.65 17.65 0 0 1 60.23 27c4.71 0 9.23 1.9 12.57 5.27A18.12 18.12 0 0 1 78 45c0 4.77-1.87 9.35-5.2 12.73A17.65 17.65 0 0 1 60.23 63c-4.71 0-9.23-1.9-12.56-5.27A18.12 18.12 0 0 1 42.47 45c0-4.77 1.86-9.35 5.2-12.73Z"/></svg>