<svg viewBox="0 0 90 90" xmlns="http://www.w3.org/2000/svg"><g fill="none" fill-rule="evenodd"><path fill="#FFF" fill-rule="nonzero" d="M0 0h90v90H0z"/><path d="M41.986 23.55c2.213-3.344 6.27-7.893 12.811-7.53 4.795.268 8.289 2.6 9.473 7.167.815 3.191.117 7.644-.738 10.836-2.814 10.377-9.977 13.454-3.746 26.468 2.096 4.357 7.92 7.052 4.659 9.326-3.145 2.198-11.337-.172-16.228-4.587-16.403-14.81-12.579-32.086-6.231-41.68Z" fill="#AE04BC"/><path d="M61.087 36.125c1.98-.937 7.22-1.95 10.928 1.09 2.718 2.216 3.747 5.102 2.388 8.331-.932 2.236-3.339 4.568-5.26 6.078-6.29 4.911-11.88 3.63-13.996 14.027-.7 3.478 1.533 7.587-1.398 7.53-2.834-.058-6.62-5.008-7.551-9.709-3.086-15.862 7.163-23.716 14.889-27.347Z" fill="#1900CE"/><path d="M52.584 73.926c-14.713-1.3-29.33-11.428-35.464-24.844-5.358-11.715-.777-31.017 16.228-21.538 12.054 6.727 7.9 21.194 17.334 31.61 6.794 7.49 16.403 5.293 14.578 10.3-1.495 4.185-9.085 4.797-12.676 4.472Z" fill="#000" fill-rule="nonzero"/></g></svg>