<svg viewBox="0 0 90 90" xmlns="http://www.w3.org/2000/svg"><defs><linearGradient x1="50%" y1="0%" x2="23.018%" y2="87.944%" id="a"><stop stop-color="#3463F8" offset="0%"/><stop stop-color="#214FDF" offset="100%"/></linearGradient><linearGradient x1="50%" y1="0%" x2="2.207%" y2="90.35%" id="b"><stop stop-color="#3463F8" offset="0%"/><stop stop-color="#214FDF" offset="100%"/></linearGradient></defs><g fill="none" fill-rule="evenodd"><path fill="#FFF" d="M0 0h90v90H0z"/><g fill-rule="nonzero"><path d="M20.887.01h6.83c.61 0 .636.027.636.616v5.97c0 .646-.035.68-.687.68h-12.88a7.444 7.444 0 0 0-5.02 1.926 7.147 7.147 0 0 0-2.333 4.76 7.106 7.106 0 0 0 1.61 5.04 7.395 7.395 0 0 0 4.686 2.612c.452.059.907.087 1.362.085h12.587c.664 0 .675 0 .675.672v5.875c0 .684-.027.715-.698.715-4.34 0-8.684.069-13.024 0a14.95 14.95 0 0 1-10.035-3.986A14.355 14.355 0 0 1 .027 15.36 14.286 14.286 0 0 1 3.375 5.275C5.753 2.449 9.136.61 12.843.129c1.507-.202 3.02-.103 4.531-.115C18.545 0 19.716.011 20.887.011Z" fill="url(#a)" transform="translate(15 31)"/><path d="M39.337.095h5.902c4.956.046 8.926 2.049 11.884 5.913a13.727 13.727 0 0 1 2.845 9.327 14.377 14.377 0 0 1-3.87 8.98 14.93 14.93 0 0 1-8.795 4.562 14.4 14.4 0 0 1-1.99.123H32.386c-.71 0-.714 0-.714-.685v-5.92c0-.463.16-.6.62-.6 4.226.015 8.453.015 12.681 0a7.83 7.83 0 0 0 4.856-1.598c3.329-2.538 3.7-7.645.76-10.604a7.534 7.534 0 0 0-2.55-1.722 7.664 7.664 0 0 0-3.043-.571h-12.63c-.678 0-.686 0-.686-.661V.756c0-.65 0-.661.69-.661h6.967Z" fill="url(#b)" transform="translate(15 31)"/></g></g></svg>