<svg xmlns="http://www.w3.org/2000/svg" viewBox="0 0 90 90"><defs><linearGradient x1="50%" y1="0%" x2="50%" y2="100%" id="a"><stop stop-color="#FEFEFE" offset="0%"/><stop stop-color="#ECECEC" offset="100%"/></linearGradient></defs><path fill="url(#a)" d="M0 0h90v90H0z"/><path d="M49 45v25a5 5 0 0 1-10 0V46.963c.813.149 1.648.226 2.5.226 2.732 0 5.294-.797 7.5-2.189Zm-1.77-30c13.653 0 14.495 8.577 13.455 7.85C45.89 12.527 28.495 19.393 21 43.61 21 29.908 33.577 15 47.23 15ZM43.5 25a7.5 7.5 0 1 1 0 15 7.5 7.5 0 0 1 0-15Z" fill="#003A9B"/></svg>