<svg viewBox="0 0 90 90" xmlns="http://www.w3.org/2000/svg"><defs><linearGradient x1="50%" y1="0%" x2="50%" y2="100%" id="a"><stop stop-color="#082157" offset="0%"/><stop stop-color="#0B2F7B" offset="100%"/></linearGradient></defs><g fill="none"><path fill="url(#a)" d="M0 0h90v90H0z"/><path d="M90 56.421c-.9 0-10.144-12.6-13.428-14.358-3.257-1.707-8.263-2.048-12.448-5.172L58.43 33.27a242.66 242.66 0 0 0-10.912-6.825l-.37-.21h-.027a5.906 5.906 0 0 0-.185-.132c-6.462-3.806-13.03-7.454-19.44-11.34-2.807-1.706-5.588-3.543-8.37-5.354C16.69 7.806 14.28 6.048 12.03 4c-.318 5.985 2.013 12.416 5.43 17.483a40.274 40.274 0 0 0 14.195 12.494c6.7 3.78 19.334 5.723 26.511 12.863-7.733-2.231-15.52-4.069-23.253-6.248-2.516-.708-5.032-1.522-7.575-2.283-2.225-.683-4.423-1.47-6.568-2.494.741 3.833 3.84 7.403 7.23 10.316 2.94 2.52 9.27 4.515 13.296 5.67 5.959 1.68 17.48 2.52 22.909 6.379-5.615-.446-11.23-.63-16.844-1.05l-6.065-.63c-1.748-.184-3.55-.446-5.297-.892.9 2.86 3.549 5.197 6.435 6.85 3.337 1.97 7.125 2.52 10.992 2.704 4.767.237 13.984-2.887 20.605 1.654-5.112 1.68-10.223 3.754-15.097 5.46-1.483.499-2.94.972-4.423 1.418-1.297.42-2.595.787-3.893.997 1.06 1.759 3.284 2.625 5.562 2.914 2.701.367 5.43-.473 8.37-1.024 5.932-1.05 16.155-7.35 21.24-5.985v.132c-4.423 3.228-7.628 7.35-11.389 10.84l-2.49 2.206a16.68 16.68 0 0 1-2.436 1.758c2.278.683 4.82.473 6.966-.078a12.83 12.83 0 0 0 6.091-3.176c1.457-1.497 2.252-3.23 3.046-4.962A24.79 24.79 0 0 0 90 88V56.421Z" fill="#FFF"/></g></svg>