<svg viewBox="0 0 90 90" xmlns="http://www.w3.org/2000/svg"><g fill="none"><path fill="#0484B5" d="M0 0h90v90H0z"/><g fill="#FFF"><path d="M28.27 31.133c0-1.61-1.252-2.863-2.684-2.863-1.43 0-2.683 1.253-2.683 2.684 0 1.61 1.252 2.863 2.862 2.684l8.052 8.052H48.31l15.925-15.567 4.83 4.831-17.534 17.177L61.55 58.51v.179c0 1.431 1.252 2.684 2.684 2.684 1.431 0 2.683-1.253 2.683-2.684 0-1.432-1.252-2.684-2.683-2.684l-7.157-7.694 17.176-17.356-9.84-9.84-17.535 17.534H35.964l-7.694-7.515Z"/><path d="M38.827 43.121 25.944 56.004h-.179c-1.431 0-2.683 1.252-2.683 2.684 0 1.431 1.252 2.684 2.683 2.684 1.432 0 2.684-1.253 2.684-2.684L40.437 46.7h10.378l13.42-12.883c1.431 0 2.683-1.252 2.683-2.684 0-1.431-1.252-2.684-2.683-2.684-1.432 0-2.684 1.253-2.684 2.684v.18L49.205 43.12H38.827Z"/><path d="M64.592 48.49c0-1.432-1.252-2.685-2.683-2.685-1.432 0-2.684 1.253-2.684 2.684a2.71 2.71 0 0 0 2.326 2.684l7.336 7.694-4.831 4.83-14.851-15.566h-8.41L25.408 63.698l-4.831-4.831L36.68 43.12h-3.936L20.577 30.954l4.652-4.652 8.767 8.947c0 1.43 1.253 2.504 2.684 2.504 1.431 0 2.684-1.252 2.684-2.683 0-1.432-1.253-2.684-2.684-2.684h-.358L25.23 21.113l-10.02 10.02L29.165 45.09 15.209 59.046l10.02 10.02L42.584 51.71h4.653l16.64 17.356 9.662-9.841-8.947-10.2v-.536Z"/></g></g></svg>