<svg viewBox="0 0 90 90" xmlns="http://www.w3.org/2000/svg"><g fill="none"><path d="M45.698 0h.329c3.455.11 6.855.492 10.2 1.312 7.02 1.585 13.547 4.866 19.086 9.403 4.772 4.155 8.61 9.239 11.353 14.924a42.177 42.177 0 0 1 4.333 18.97c-1.536.055-3.072-.164-4.607-.054-1.92 0-3.894-.11-5.814 0-1.59-.055-3.236-.11-4.826-.055-1.59.055-3.126-.055-4.662 0-1.755-.11-3.565-.055-5.32-.055-1.755 0-3.564.055-5.32-.054-1.316-.055-2.687.054-4.003-.055-1.536 0-3.071.055-4.662 0-1.974-.055-4.003.055-5.978-.055V31.106l.11-.054h28.848c-.713-1.476-1.536-2.843-2.413-4.21A30.816 30.816 0 0 0 58.86 15.854a33.626 33.626 0 0 0-12.888-2.734c-.11-4.482-.274-8.801-.274-13.12Z" fill="#2ABA4C"/><path d="M26.996 1.75c3.784-.657 7.733 1.749 9.269 5.248.932 2.186.877 4.592-.055 6.778-1.262 2.515-3.62 4.32-6.362 4.811-2.249.492-4.552 0-6.417-1.312-.877-.765-1.81-1.421-2.413-2.405a8.527 8.527 0 0 1-1.261-5.522c.329-2.842 2.084-5.576 4.716-6.779a9.765 9.765 0 0 1 2.523-.82ZM1.055 42.587a43.323 43.323 0 0 1 13.162-29.63 732.91 732.91 0 0 1 9.16 9.293c-2.578 2.897-4.662 6.178-6.253 9.731-2.413 5.521-3.62 11.699-2.468 17.658.658 3.99 2.139 7.817 4.278 11.261a34.897 34.897 0 0 0 5.868 6.834c1.536 1.367 3.181 2.515 4.936 3.553 2.962 1.805 6.143 3.226 9.433 4.155 0 4.264-.164 8.529-.164 12.793l-.055.109c-4.99-.93-9.817-2.624-14.37-4.975-4.496-2.405-8.61-5.521-12.065-9.239-1.37-1.53-2.632-3.17-3.839-4.81C3.688 62.102 1.165 53.301 1 44.554l.055-1.968Z" fill="#000"/><path d="M77.452 47.78c4.497-1.039 8.995-2.132 13.492-3.116a45.77 45.77 0 0 1-5.485 21.43 42.611 42.611 0 0 1-9.926 12.191 55.357 55.357 0 0 1-4.607 3.39C63.686 86.266 55.296 88.78 46.74 89h-.823V76.208l.055-.055c4.387-.055 8.72-.93 12.724-2.57a29.861 29.861 0 0 0 7.184-4.318 27.792 27.792 0 0 0 5.54-6.068c3.18-4.647 4.88-10.06 6.032-15.417Z" fill="#A6A6A6"/></g></svg>