<svg viewBox="0 0 90 90" xmlns="http://www.w3.org/2000/svg"><g fill="none" fill-rule="evenodd"><path fill="#0167B4" d="M0 0h90v90H0z"/><path d="M38.364 67.807c-.682-1.36-1.364-1.247-2.046-.227-.34.453-.795.907-1.25 1.247-1.477 1.247-1.59 1.133-2.5-.567-.795-1.474-2.386-1.814-3.977-1.927-2.16-.113-4.318.34-6.477.793-.682.114-1.478.227-2.5.454 2.727-2.72 3.409-5.781 3.181-9.182-.227-2.947-1.477-5.215-4.545-6.008-.455-.113-.795-.34-1.136-.453-.569-.227-.682-.567-.114-.907 1.136-.794.568-1.587 0-2.267-1.818-2.608-4.205-4.761-6.818-6.575-.227-.227-.568-.34-.796-.567-.113 0-.113-.227-.113-.453 2.045.226 3.977.453 5.909.453a6.197 6.197 0 0 0 3.068-.793c1.364-.907 2.955-.454 4.318-.114 2.955.794 4.091-1.02 3.977-4.08 0-.908-.113-1.928-.568-2.835-.454-.793-1.022-1.473-1.136-2.38l.227-.227c3.41.907 3.75.907 5.455-2.154 2.727-4.534 4.545-9.522 6.136-14.623.568-1.813.227-3.74.114-5.554 0-.454-.341-1.02.113-1.7 1.591 2.607 3.182 4.987 5.228 7.254 1.363 1.474 2.727 2.948 4.204 4.421 1.591 1.587 2.841 1.814 4.887.68.568 3.174 2.159 5.895 4.204 8.389 3.182 3.74 5.227 3.967 9.773 1.7 2.273-1.133 4.204-2.947 6.023-4.647.681-.68 1.25-1.247 2.272-1.587-.227 1.246-.909 2.38-1.477 3.4-1.023 2.04-1.364 3.968-.568 6.122.34.793.227 1.7 0 2.493-.682 2.268-.796 4.648-.796 7.142 0 .907-.227 1.814.796 2.38.113.114.227.227.227.454-.568 2.607 1.705 3.287 3.182 4.42 1.023.794 2.159 1.361 3.295 2.155-1.022.793-2.159 1.02-3.295 1.36-1.364.453-2.841.907-4.205 1.473-1.59.794-3.181 1.587-2.5 3.855.228.906-.568.566-.909.566-2.159-.566-3.863-.226-5.227 1.7-.455.68-.795.114-1.136-.113l-3.75-3.06c-1.023-.794-2.273-1.474-3.523-1.814-.91-.34-1.705 0-2.386.453-.796.567-.114 1.247 0 1.928.454 5.894 4.09 9.975 8.522 13.376 2.614 1.927 5.455 3.627 8.75 4.42 1.705.454 1.705.567.91 2.154-1.25 2.268-1.364 2.268-2.842.34-2.045-2.72-4.772-4.534-7.613-6.234-3.977-2.38-7.16-5.328-8.523-9.862-.227-.794-.682-1.587-1.136-2.267-.91-1.36-2.16-2.721-3.864-2.494-1.818.226-3.75 1.02-4.432 3.174a349.141 349.141 0 0 0-2.045 5.894c-.114.227-.341.454-.568 1.02Z" fill="#FDFDFD" fill-rule="nonzero"/></g></svg>