<svg viewBox="0 0 90 90" xmlns="http://www.w3.org/2000/svg"><g fill="none"><path fill="#D71E25" d="M90 90H0V0h90z"/><path fill="#FFF" d="M8.033 37.16h5.694v18.449H8.033zm8.733 0h5.467v1.694s.95-2.15 5.466-2.15c5.77 0 6.833 3.796 6.833 8.731v10.173h-5.694v-9.034c0-2.126-.038-4.86-2.961-4.86-2.961 0-3.417 2.316-3.417 4.708v9.186h-5.694V37.16Zm20.805-3.265c0-4.025 1.025-7.44 7.212-7.44 1.139 0 2.279.075 3.341.341l-.266 4.821c-.646-.228-1.176-.38-1.86-.38-1.822 0-2.733.57-2.733 3v2.922h4.213v4.556h-4.213v13.893h-5.694V33.895Zm20.899 2.809c5.692 0 10.248 3.796 10.248 9.68s-4.556 9.68-10.249 9.68c-5.695 0-10.25-3.796-10.25-9.68s4.555-9.68 10.25-9.68m0 14.35c2.847 0 4.556-1.9 4.556-4.67 0-2.771-1.709-4.67-4.556-4.67-2.848 0-4.555 1.899-4.555 4.67 0 2.77 1.707 4.67 4.555 4.67M70.95 37.16h5.693v1.612s1.485-2.33 7.289-2.081v4.998c-.798-.228-1.595-.38-2.43-.38-4.327 0-4.86 3.114-4.86 6.796v7.503H70.95V37.16ZM8.033 31.08l5.694-3.902v6.943H8.033z"/></g></svg>