<svg viewBox="0 0 90 90" xmlns="http://www.w3.org/2000/svg"><g fill="none" fill-rule="evenodd"><path fill="#FF6200" fill-rule="nonzero" d="M0 0h90v90H0z"/><path d="M33.69 89.18a2.79 2.79 0 0 1-.237.212c-.07.07-.15.141-.238.212-.07.07-.15.132-.238.185a2.49 2.49 0 0 1-.264.185h-1.427c-.159-.44-.317-.89-.476-1.348a28.6 28.6 0 0 0-.555-1.295c-.193-.44-.405-.872-.634-1.295-.211-.422-.44-.836-.687-1.242-.238-.422 5.496-2.22 6.95-2.22.37.767.74 1.85 1.48 2.564-.74.74-2.934 2.96-3.673 4.043Zm2.934-46.505c-.37.713-.74.37-1.454 1.083-.37.37-4.386 3.303-4.756 3.673-.74.344-1.11.74-2.193 1.823-.37-1.083-.37-2.193-.74-3.303 0-.343 0-2.933.37-4.016 0-.714 3.303-1.823 5.126-2.193.714 0 3.647-.714 4.017 0 .37.74-.37.74-.37 2.933ZM26 62.836c1.48-.74 3.303-1.85 4.756-2.563-.343 1.823-.713 2.563-.713 5.496 0 .74.713 2.933 1.083 5.496-.713 1.454-1.083 2.564-2.193 3.673a1.654 1.654 0 0 1-.211.317 1.36 1.36 0 0 1-.264.291 1.363 1.363 0 0 1-.291.264 1.39 1.39 0 0 1-.344.212c0-.74-.343-1.454-.713-2.193-.37-1.11-.37-2.194-.74-3.303 0-1.11-.37-5.127-.37-5.867v-1.823Zm20.875-50.919c-1.453 1.48-5.84 4.043-8.403 5.496-.193.317-.396.635-.607.952-.212.317-.423.625-.635.924-.211.3-.431.6-.66.899-.212.3-.44.59-.687.872l-3.647-1.453c.74-1.48 1.454-2.194 2.193-3.647 1.454-2.22 3.647-4.043 5.127-5.523 4.044-1.453 4.044-2.193 8.8-2.906 1.823 2.193 6.95 5.496 6.95 5.496 0 .713.37-.37 1.823-4.756 1.11.713 1.85.713 2.933 1.453.123.018.246.044.37.08a2.6 2.6 0 0 1 .37.079l.37.105.37.106c.37 0 2.563-1.11 2.932-1.453.714-.37 4.017-1.11 4.017-1.11.37.37-1.11 2.933-1.11 3.303v2.96c.141 0 .273-.01.396-.027l.37-.053a3.15 3.15 0 0 0 .37-.132 1.22 1.22 0 0 0 .344-.159c1.823-.74 2.22-4.042 2.933-6.606 1.11.37 1.823.37 2.933.37 0 1.454-.74 3.647.343 3.647 1.11 0 2.59-1.453 4.783-3.277 3.145 1.242 6.316 3.065 9.222 4.942.176.546.335 1.092.476 1.638-.82.713-1.665 1.453-2.748 1.453-1.084 0-1.824-.343-2.907-.713-.74-.74-4.043-1.824-5.866-1.824-2.193 0-3.673 2.933-6.236 4.387-1.11.37-3.303.713-5.496 1.48-1.48.713-2.193 1.083-2.193.343-.37-1.453-.37-2.933-.37-4.386-1.11-.37-2.564-.37-3.673-1.11-.106.423-.23.845-.37 1.268-.159.405-.326.81-.502 1.216a9.096 9.096 0 0 1-.608 1.162c-.211.388-.45.758-.714 1.11-1.453-.713-2.906-1.083-4.386-2.193-1.85-1.11-6.236-3.673-6.606-4.386v-.027ZM43.6 78.955c.343 1.823 1.453 5.126 1.453 5.126-1.11-.74-2.193-1.11-3.303-1.85-.714-.37-1.453-.74-1.453-1.083-.106-.37-.194-.731-.265-1.083a12.3 12.3 0 0 1-.211-1.11c-.07-.37-.123-.74-.159-1.11a10.787 10.787 0 0 1-.105-1.11c0-1.453.74-2.906 1.48-2.906.713.343 1.823.713 2.193 1.453.713 1.11 0 2.563.37 3.673Zm-14.666 0c-.37-.74-.74-1.11-.74-1.85.37-.37 1.084-.713 1.824-1.083.37-.74 2.22-1.85 2.563-2.193 1.11 1.083 1.48 1.453 2.22 3.276-.37.37-2.564 2.193-4.387 4.386 0 .74-1.136 1.48-1.136 1.48 0-1.48-.344-3.303-.344-4.016Zm6.58-26.741a20.3 20.3 0 0 0-1.612.872c-.529.317-1.04.66-1.533 1.03-.493.37-.96.767-1.4 1.19-.458.405-.89.836-1.295 1.294-1.11 1.453-3.303 3.673-4.043 4.756l-.37-4.386c-.37-1.11-.37-1.11-.37-3.303 1.85-1.083 2.59-1.823 4.387-2.933.74-.713 3.303-1.453 6.976-2.563 0 1.48-.37 2.563-.74 4.043Zm-.37-30.044c-.344 2.563-.714 3.303-.714 6.21 0 .37.74 2.219 1.084 2.932.37.74.74 1.48.74 2.22 0 .344-.37.713-.74 1.083-1.084.74-1.454.37-1.823 1.11-1.824 1.427-2.564 2.193-4.017 3.277-.74.74-.74.74-1.48 1.85 0 0-.37-4.017-.74-6.237 1.48-.74 2.22-1.453 3.673-2.563-.37-2.193-.74-3.673-.74-5.496 0-1.083 0-2.193.74-3.276.74-1.48 2.564-1.48 4.017-1.11ZM68.12 82.6c.37 1.85.74 3.673.37 4.757-.317 1.004-.951 1.717-1.612 2.642h-2.774v-.08c0-1.083 0-1.823-.37-2.562 0-.714-.37-1.824 0-2.907 0-1.11 2.933-1.48 4.386-1.85ZM54.196 68.702c3.672-2.59 7.345-2.933 10.648-2.96 3.673 0 7.32.37 10.253 2.194 0 1.48 0 3.303-.714 4.756 0 .397-.74 1.85-1.48 2.59-1.11-1.48-3.302-2.933-3.302-2.933.37 1.453 0 1.823-.37 3.673 0 .343-2.563.343-2.563.343-2.194-1.083-2.563-2.563-2.563-2.563 0 .37-.37 2.933-1.824 2.933-1.453 0-2.563 0-2.563-1.083-.37-1.11-.37-1.85-.37-2.96V71.24c-1.11.37-1.823 1.453-2.563 2.22-.37 0-.74-.767-1.11-.767a23.16 23.16 0 0 1-.449-.951 23.71 23.71 0 0 1-.74-2.008 86.215 86.215 0 0 0-.264-1.03h-.026Zm6.236 16.462c.37 1.11 0 2.194.37 3.303 0 .124.008.247.026.37.018.141.044.273.08.397.017.123.043.246.078.37.036.14.071.273.106.396H57.71c-1.004-1.163-2.061-2.563-2.061-3.356 0-1.11-1.48-2.933.37-2.933 0-.74 1.823.344 2.563.344.194 0 .379.026.555.079.194.053.37.123.528.211.159.106.309.22.45.344.123.14.229.3.317.475ZM79.853 56.97c2.801 0 6.078.634 10.12 2.299v2.457c-4.016-1.638-7.715-1.981-9.75-2.563v2.933c1.453.344 2.193 1.084 3.647 1.454.555.264 3.752 1.981 6.104 3.276v2.563c-4.44-2.721-7.531-3.778-11.23-5.47-.74.74-1.11 1.85-2.194 2.564-.37.37-2.933-1.824-4.413-2.563-1.083-.74-3.276-1.084-4.756-1.48-.343 0-.343-.714-.343-1.084-.37-1.11-.74-2.193-.37-2.563 1.823-.74 2.563-2.193 2.563-3.303 0-1.083 1.083.37 2.193 0 .74-.74 1.11-1.453.74-2.193 0-.74-.37-1.453-1.11-1.453a15.282 15.282 0 0 0-2.774-.846 15.93 15.93 0 0 0-5.787 0 15.99 15.99 0 0 0-2.801.846c-1.11.343-1.11 1.823-.74 2.906.37 1.48 1.85.74 2.933 0 .37 0-.37 1.11.37 2.22.74 1.453 2.193 1.823 2.193 2.193 0 1.084 0 1.084-.37 1.823 0 .74 0 1.454-.713 1.85-2.194.37-4.043 1.084-6.236 1.823-1.084.37-2.194 1.48-3.303 1.48-.714 0-1.454-1.48-1.824-1.85-.74 0-.74-.37-2.193 0a73.22 73.22 0 0 0-3.197 1.401 73.32 73.32 0 0 0-3.145 1.506 73.242 73.242 0 0 0-3.091 1.612 63.27 63.27 0 0 0-3.013 1.718c-.74-.74-.37-1.824-.74-2.564a62.252 62.252 0 0 1 3.092-1.85 68.547 68.547 0 0 1 3.171-1.717 61.36 61.36 0 0 1 3.25-1.585 78.266 78.266 0 0 1 3.303-1.454c.37-.37 0-1.453-.37-2.193 0 0-2.563-.37-7.32 1.11-2.906.713-6.235 2.563-6.605 2.563a4.173 4.173 0 0 1-.159-.634 8.114 8.114 0 0 1-.132-.634 104.17 104.17 0 0 1-.053-.66 7.633 7.633 0 0 1-.026-.635 51.402 51.402 0 0 1 1.717-.82 52.528 52.528 0 0 1 1.718-.765 72.59 72.59 0 0 1 1.744-.714 72.302 72.302 0 0 1 1.797-.66c2.563-.714 5.126-.714 7.69-1.084-.37 0-.37-.74-.37-1.11-1.11-2.193-2.934-4.016-4.757-5.866-.74-1.453-1.48-3.276-1.48-4.016.74-.74 1.48.37 2.563.37a29.22 29.22 0 0 1-.29-.978c-.088-.335-.159-.67-.212-1.004-.07-.352-.123-.696-.158-1.03a9.84 9.84 0 0 1-.053-1.031c-.37-1.453-.37-1.453-.37-3.303 0-2.193.713-3.277.37-3.647-.37-.396-1.85-1.083-2.22-1.083-.713-.396-1.083-.396-1.453-1.11-1.11-1.85-2.193-3.303-2.193-5.126 0-1.85.713-3.303 1.453-5.126.37-1.48 2.193-2.22 3.303-2.933 1.11-.74 2.193-.37 3.303-.37 2.563 0 4.756 1.453 6.606 2.563.317.246.617.52.899.819.264.3.51.625.74.978.21.334.396.695.554 1.083.159.37.282.749.37 1.136h3.277c1.85.37 3.673.74 5.866 1.85 2.563-2.193 6.95-2.563 9.169-2.563 0-4.043 2.933-6.236 5.1-6.236 1.85-.37 2.96-.74 5.522.37 1.824 1.083 4.387 4.756 4.387 5.126.74 1.453.37 3.303.37 5.496-.07.247-.124.485-.159.714a10.86 10.86 0 0 0-.132.74l-.053.74c-.017.246-.026.493-.026.74-.344 1.453-2.193 2.562-3.303 2.932 0 2.563-.74 4.017-1.084 6.21 0 1.11-.37 2.22-.74 3.303 1.084-.37 1.48-1.084 2.564-1.084-.74 4.757-1.824 4.017-2.933 6.21-.106.405-.23.802-.37 1.19a16.18 16.18 0 0 1-.502 1.109c-.194.37-.397.731-.608 1.083-.211.353-.45.696-.714 1.03-.14.124-.281.256-.422.397a9.27 9.27 0 0 1-.45.37 8.036 8.036 0 0 1-.475.344 8.036 8.036 0 0 1-.476.343c-.74.37 0 .74 0 1.11ZM49.466 29.12c.713-.74 2.906-2.194 2.906-2.194.37 0 .37-.37.37-.74-.713-2.563-1.453-2.563-2.933-3.303a4.597 4.597 0 0 0-.581-.343 5.298 5.298 0 0 0-.634-.238 7.3 7.3 0 0 0-.66-.132 4.472 4.472 0 0 0-.688 0c-1.453.343-4.016 1.083-4.756 3.276 0 .37-.37 1.85.74 3.303.74 1.454 2.193 2.563 2.933 3.303 1.083 0 1.453-1.85 3.276-2.933h.027Zm7.689 29.673c-.713-.37-1.453-.37-2.193-.37l-.634.053c-.23.018-.45.044-.66.08a3.971 3.971 0 0 0-.635.105 8.3 8.3 0 0 0-.634.132c.035.176.088.361.158.555.053.194.106.379.159.555.053.176.114.361.185.555.07.176.15.352.238.528 1.083-.37 1.453-.74 2.193-1.083-.027 0 1.453-.74 1.823-1.11Zm2.907-19.791c0-.74-.714-1.48-1.824-1.85h-4.756c-1.85 0-3.303 0-5.126.37.74 1.48 2.563 2.933 3.303 3.673.713.74 1.453 1.453 2.933 1.453 1.453-.343 1.453 0 2.193-.343 0 .713.37 1.823 0 2.536 0 .397.37 3.303-1.11 3.673-1.083.37-2.563 1.11-3.303 2.194-.713 1.083-1.083 2.933 0 3.673.74.37 1.48-.74 2.59-1.11 1.11-.344 1.083-1.084 1.453-2.193.74-.74 2.193-1.084 2.563-1.824v-1.11c.37-3.303.37-4.016.74-6.236 0-.343.344-2.536.344-2.906Zm2.193-8.8c0-.713-1.453-.343-2.193 0-.714 0-1.824.74-2.933 1.48-1.084 1.084-1.824 1.454-1.824 2.563h1.824c1.85 0 2.22.74 2.933-.37 1.083-1.453 2.193-2.193 2.193-3.672Zm15.379-3.276c2.563.74 4.412 2.193 6.236 4.386.281 0 .555-.044.819-.132a2.91 2.91 0 0 0 .74-.37 2.692 2.692 0 0 0 1.004-1.321c.37-1.823.74-4.756-.37-6.236-.74-.74-1.11-1.083-2.933-1.453a3.75 3.75 0 0 0-1.084-.159c-.37 0-.73.053-1.083.159a3.582 3.582 0 0 0-1.004.423 4.529 4.529 0 0 0-.846.66c-.74 1.11-1.85 2.563-1.48 4.043Zm-7.69 4.756c.714 0 .714 1.454.714 2.194 1.85 0 3.673.37 4.412-.344 4.017-1.85-2.193-3.33-2.933-3.33-1.85-.343-5.496-1.453-4.042 0 0 .74 1.11.74 1.823 1.48h.026Zm7.69 27.111c-1.084-.37-2.194-1.11-4.387-.74-.343.37-.343.37-.343 1.454 1.797 0 2.906 1.11 4.386 1.48-.026 0 .344-1.824.344-2.194Zm2.193-6.606c1.48 0-1.823-1.48-3.303-2.563a2.539 2.539 0 0 0-.185-.053.587.587 0 0 1-.185-.079.392.392 0 0 1-.185-.106 1.05 1.05 0 0 1-.159-.132c-.74-.74-1.11-2.193-2.563-2.563a.499.499 0 0 1-.158-.026.414.414 0 0 1-.106-.08.332.332 0 0 1-.08-.132.294.294 0 0 1-.026-.132c0-1.083-.37-5.496-.37-5.496.74 1.48 2.194 1.48 2.933 1.48 1.454 0 2.564-.37 3.277-1.48 0-.37.37-1.083.74-1.083.74-.37 1.48-.74 1.85-1.48.37 0 .74-.74.74-.74-3.304-.37-10.253-.37-10.253-.37-1.11.37-2.193 1.48-2.193 1.85 0 0 .713 4.043.713 4.413 0 2.563.37 2.563.37 5.126 1.11.713 1.453.713 2.193 1.453.37.74.74 1.471 1.11 2.193 1.453.74 3.303 1.48 4.386 2.563.344 0 1.454-1.823 1.454-2.563Zm2.563 31.894c.018.194.044.379.08.555.034.194.07.379.105.555.053.194.106.379.158.555.07.176.133.352.185.528a15.79 15.79 0 0 1-.634.502c-.229.159-.458.309-.687.45-.229.14-.467.281-.713.422-.23.124-.467.247-.714.37-.819-1.136-1.797-3.144-1.797-3.963-.396-1.084-.396-3.277 0-4.387 0 0 2.167.74 2.907 1.11 1.85 0 .37 2.563 1.11 3.277v.026Zm-31.497 2.59c-.74-1.11-1.084-2.59-1.454-3.673-.396-1.084-1.136-1.824-1.85-2.933.37-.37.714-3.303.714-3.303.396-.37 1.11.37 1.48.37.211.123.405.273.581.449.176.158.344.326.502.502.159.194.3.396.423.608.123.193.229.405.317.634.37.713.74 2.563.74 2.563 0 2.563-1.11 3.303-1.453 4.783Zm24.125 3.091-.635.106c-.229.017-.449.035-.66.053-.23.035-.45.053-.66.053-.397-.133-.767-.212-1.296-.397-.37-.37-.37-1.083-.37-2.193 0-.74-.37-2.193-.37-3.673 0-.74.74-1.083 1.85-1.823.344 0 .714-.37 2.167-.74v5.866c.185.66.423 1.691.634 2.616a7.3 7.3 0 0 1-.66.132Zm13.159-9.882-.37.687-.37.687c-.141.229-.282.449-.423.66-.14.212-.29.423-.45.634a3.36 3.36 0 0 1-.37-.264 3.162 3.162 0 0 1-.343-.343 5.327 5.327 0 0 1-.29-.37 5.11 5.11 0 0 1-.238-.423c-.123-.3-.238-.599-.344-.898-.088-.3-.185-.6-.29-.899-.088-.3-.168-.608-.238-.925-.088-.3-.167-.607-.238-.925.37 0 1.11 0 1.48.37 1.083 0 1.083 0 1.823.37 0 .291.264.925.66 1.639Z" fill="#FFF"/></g></svg>