<svg viewBox="0 0 90 90" xmlns="http://www.w3.org/2000/svg"><defs><linearGradient x1="0%" y1="50%" x2="99.986%" y2="50%" id="a"><stop stop-color="#266BF4" offset="0%"/><stop stop-color="#6C45C6" offset="100%"/></linearGradient><linearGradient x1="0%" y1="50%" x2="100%" y2="50%" id="b"><stop stop-color="#266BF4" offset="0%"/><stop stop-color="#6C45C6" offset="100%"/></linearGradient><linearGradient x1=".147%" y1="49.985%" x2="100%" y2="49.985%" id="c"><stop stop-color="#266BF4" offset="0%"/><stop stop-color="#6C45C6" offset="100%"/></linearGradient><linearGradient x1=".019%" y1="50.009%" x2="100%" y2="50.009%" id="d"><stop stop-color="#266BF4" offset="0%"/><stop stop-color="#6C45C6" offset="100%"/></linearGradient><linearGradient x1="0%" y1="50%" x2="100%" y2="50%" id="e"><stop stop-color="#266BF4" offset="0%"/><stop stop-color="#6C45C6" offset="100%"/></linearGradient><linearGradient x1=".096%" y1="50%" x2="100%" y2="50%" id="f"><stop stop-color="#266BF4" offset="0%"/><stop stop-color="#6C45C6" offset="100%"/></linearGradient><linearGradient x1="0%" y1="50%" x2="100%" y2="50%" id="g"><stop stop-color="#266BF4" offset="0%"/><stop stop-color="#6C45C6" offset="100%"/></linearGradient><linearGradient x1="0%" y1="50%" x2="100%" y2="50%" id="h"><stop stop-color="#266BF4" offset="0%"/><stop stop-color="#6C45C6" offset="100%"/></linearGradient><linearGradient x1=".007%" y1="49.912%" x2="100.981%" y2="49.912%" id="i"><stop stop-color="#36F" offset="0%"/><stop stop-color="#63C" offset="100%"/></linearGradient><linearGradient x1="-165.249%" y1="50%" x2="45.494%" y2="50%" id="j"><stop stop-color="#36F" offset="0%"/><stop stop-color="#63C" offset="100%"/></linearGradient><linearGradient x1="0%" y1="50.013%" x2="99.97%" y2="50.013%" id="k"><stop stop-color="#266BF4" offset="0%"/><stop stop-color="#6C45C6" offset="100%"/></linearGradient><linearGradient x1="0%" y1="49.967%" x2="100%" y2="49.967%" id="l"><stop stop-color="#266BF4" offset="0%"/><stop stop-color="#6C45C6" offset="100%"/></linearGradient><linearGradient x1=".035%" y1="49.926%" x2="100.012%" y2="49.926%" id="m"><stop stop-color="#266BF4" offset="0%"/><stop stop-color="#6C45C6" offset="100%"/></linearGradient><linearGradient x1="-.233%" y1="50%" x2="99.74%" y2="50%" id="n"><stop stop-color="#266BF4" offset="0%"/><stop stop-color="#6C45C6" offset="100%"/></linearGradient><linearGradient x1="0%" y1="50%" x2="100%" y2="50%" id="o"><stop stop-color="#266BF4" offset="0%"/><stop stop-color="#6C45C6" offset="100%"/></linearGradient></defs><g fill="none"><path fill="#4437AA" d="M0 0h90v90H0z"/><g transform="translate(5 9)"><path d="M16.98 75.485h1.018c-.618-2.27.242-4.782 3.218-5.24 12.373-1.97 26.682-2.029 39.056-.158 3.063.461 3.875 3.075 3.153 5.393C72.6 75.375 79.988 67.91 80 58.73v-3.958c0-9.216-7.512-16.758-16.688-16.758H16.98C7.804 38.014.295 45.556.295 54.772v3.958c0 9.216 7.509 16.755 16.685 16.755Z" fill="url(#a)"/><path d="M69.024 32.132a28.12 28.12 0 0 0-4.084-2.214c.234 2.641-.495 5.387-1.53 8.07a31.83 31.83 0 0 1 4.171 2.057c.581-1.833.93-3.732 1.038-5.651a3.962 3.962 0 0 1 .365-1.528c0-.09.026-.18.04-.281a3.042 3.042 0 0 1 0-.453Z" fill="url(#b)"/><path d="M12.343 29.583a25.46 25.46 0 0 0-3.577 2.096c-.072.056-.147.11-.225.157a.61.61 0 0 1-.02.068c.565.714.88 1.593.897 2.504a13.226 13.226 0 0 1-.216 2.126 4.673 4.673 0 0 1 1.44 2.25c.362-.199.781-.382 1.17-.562-.256-2.95.188-5.753.531-8.639Z" fill="url(#c)"/><ellipse fill="#FFF" cx="38.778" cy="30.165" rx="27.796" ry="27.805"/><path d="M60.905 39.916h-.97c.596 2.188-.237 4.594-3.11 5.063-11.958 1.888-25.795 1.953-37.755.152-2.959-.461-3.746-2.976-3.04-5.21C7.174 40.003.029 47.193 0 56.052v3.812c.026 8.9 7.233 16.11 16.131 16.136h44.774c8.898-.026 16.105-7.235 16.13-16.136v-3.812c-.025-8.9-7.232-16.11-16.13-16.136Z" fill="#FFF"/><path d="M67.013 41.165c.068-.05.14-.096.211-.144a30.193 30.193 0 0 0 1.805-8.898c-5.183 4.62-16.687 7.84-30.09 7.84-13.677 0-25.41-3.353-30.424-8.13a30.09 30.09 0 0 0 2.062 9.672c5.844 3.747 16.159 6.248 27.948 6.248 12.157 0 22.748-2.655 28.482-6.6a.014.014 0 0 1 .006.012Z" fill="url(#d)"/><circle fill="url(#e)" cx="22.014" cy="17.36" r="2.374"/><circle fill="url(#e)" cx="42.912" cy="19.734" r="2.374"/><g transform="translate(32.383 56.71)"><ellipse fill="url(#f)" cx="25.847" cy="1.463" rx="1.462" ry="1.463"/><ellipse fill="url(#g)" cx="1.462" cy="2.158" rx="1.462" ry="1.463"/><ellipse fill="url(#h)" cx="30.353" cy="5.902" rx="1.462" ry="1.463"/><ellipse fill="url(#h)" cx="5.965" cy="6.597" rx="1.462" ry="1.463"/><ellipse fill="url(#g)" cx="13.994" cy="1.8" rx="1.462" ry="1.463"/><ellipse fill="url(#g)" cx="18.496" cy="6.24" rx="1.462" ry="1.463"/></g><path d="M.54 7.314a.54.54 0 0 1-.503-.737C.12 6.367 2.124 1.41 7.63.9a.543.543 0 0 1 .099 1.07c-4.826.446-6.61 4.807-6.682 4.993a.546.546 0 0 1-.506.351Z" fill="url(#i)" transform="translate(45.684)"/><path fill="url(#j)" d="M10.347 1.187 6.73 3.072l.751-1.62L6.446 0z" transform="translate(45.684)"/><path d="M23.302 11.815c1.789.282 3.046 1.688 2.883 3.17.148-.263.256-.547.318-.843a3.002 3.002 0 0 0-5.56-1.992 3.748 3.748 0 0 1 2.36-.335Z" fill="url(#k)"/><path d="M44.63 15.866c-1.687-.641-3.492-.05-4.091 1.311.003-.298.051-.594.143-.878a3 3 0 0 1 5.81 1.06 3.752 3.752 0 0 0-1.862-1.493Z" fill="url(#l)"/><path d="M15.313 63.015h-2.517v-1.446h1.254c2.033.028 4.34.059 5.062-.659a.743.743 0 0 0 .217-.585.96.96 0 0 0-.248-.748c-.63-.625-2.652-.608-4.994-.594h-1.294v-1.446h1.285c2.99-.022 4.964-.033 6.018 1.013.459.472.704 1.112.678 1.77a2.178 2.178 0 0 1-.647 1.617c-.953.942-2.77 1.078-4.814 1.078Z" fill="url(#m)"/><path fill="#FFF" d="m12.13 60.114.233-1.437.593.253-.093 1.201z"/><path d="m1.961 15.261-1.406-.298.709.15-.72-.057a7.316 7.316 0 0 0-.104-.737C.012 11.714-1.12 4.796 3.486 1.494l.843 1.173C.443 5.449 1.47 11.722 1.857 14.085c.11.687.152.946.104 1.176Z" fill="url(#n)" transform="translate(11.675 51.377)"/><path fill="url(#o)" d="m6.798 0-2.89 4.602-.228-2.366-2.17-.976z" transform="translate(11.675 51.377)"/><path fill="#FFF" d="m15.375 54.572-.824-1.232-.996.18 1.232 1.753z"/></g></g></svg>