<svg viewBox="0 0 90 90" xmlns="http://www.w3.org/2000/svg"><defs><linearGradient x1="43.08%" y1="49.75%" x2="106.405%" y2="35.662%" id="a"><stop stop-color="#FFF" offset="31%"/><stop stop-color="#C1D9CB" offset="47%"/><stop stop-color="#277C4C" offset="83%"/><stop stop-color="#096A34" offset="90%"/></linearGradient><linearGradient x1="72.687%" y1="45.808%" x2="6.362%" y2="61.805%" id="b"><stop stop-color="#FFF" offset="38%"/><stop stop-color="#241F9C" offset="100%"/></linearGradient><linearGradient x1="52.936%" y1="71.58%" x2="39.356%" y2="8.851%" id="c"><stop stop-color="#FFF" offset="31%"/><stop stop-color="#F2F2F9" offset="37%"/><stop stop-color="#D2D1EA" offset="49%"/><stop stop-color="#9E9CD3" offset="65%"/><stop stop-color="#5753B3" offset="84%"/><stop stop-color="#241F9C" offset="97%"/></linearGradient><linearGradient x1="44.772%" y1="18.661%" x2="60.865%" y2="90.267%" id="d"><stop stop-color="#FFF" offset="43%"/><stop stop-color="#F9F9FC" offset="49%"/><stop stop-color="#EBEAF5" offset="57%"/><stop stop-color="#D2D1EA" offset="65%"/><stop stop-color="#B0AEDB" offset="74%"/><stop stop-color="#8481C7" offset="83%"/><stop stop-color="#4F4BAF" offset="93%"/><stop stop-color="#241F9C" offset="100%"/></linearGradient></defs><g fill="none"><path d="M1.92 42.756c-.66.66-.956 1.54-.916 2.406l30.24-8.104 21.699-5.814-3.556-13.263L44.839 1a3.158 3.158 0 0 0-2.083.916L1.92 42.756Z" fill="#80F879"/><path d="M.92 41.756c-.66.66-.957 1.54-.916 2.406l30.239-8.104 21.7-5.814-3.557-13.263L43.838 0a3.158 3.158 0 0 0-2.083.916L.92 41.756Z" fill="url(#a)" opacity=".32" style="mix-blend-mode:multiply" transform="translate(1 1)"/><path d="m58.757 52.943-21.7 5.814 8.105 30.24a3.158 3.158 0 0 0 2.083-.917L88.08 47.245c.66-.66.957-1.54.916-2.406l-30.239 8.104Z" fill="#424BFF"/><path d="M21.7 8.104 0 13.92l8.104 30.239a3.158 3.158 0 0 0 2.083-.916L51.023 2.407c.66-.66.956-1.54.915-2.407L21.7 8.104Z" fill="url(#b)" opacity=".3" style="mix-blend-mode:multiply" transform="translate(37.058 44.839)"/><path d="M1 45.162c.04.759.337 1.504.916 2.083L42.75 88.08c.66.66 1.54.957 2.407.916L31.239 37.058 1 45.162Z" fill="#28A3A3"/><path d="M0 8.104c.04.759.337 1.504.916 2.083L41.75 51.023c.66.66 1.54.956 2.407.915L30.239 0 0 8.104Z" fill="url(#c)" opacity=".13" style="mix-blend-mode:multiply" transform="translate(1 37.058)"/><path d="m52.943 31.244 5.814 21.699 30.24-8.104a3.158 3.158 0 0 0-.917-2.083L47.245 1.92a3.171 3.171 0 0 0-2.406-.916l4.548 16.977 3.556 13.263Z" fill="#31ACEA"/><path d="m8.104 30.243 5.815 21.7 30.239-8.105a3.158 3.158 0 0 0-.916-2.083L2.407.92A3.171 3.171 0 0 0 0 .004L4.548 16.98l3.556 13.263Z" fill="url(#d)" opacity=".25" style="mix-blend-mode:multiply" transform="translate(44.839 1)"/></g></svg>