<svg viewBox="0 0 90 90" xmlns="http://www.w3.org/2000/svg"><g fill="none"><path fill="#FFF" d="M0 0h90v90H0z"/><ellipse fill="#FFCD58" cx="45" cy="51.696" rx="36.643" ry="36.482"/><path d="M45 76.125c13.492 0 24.429-10.866 24.429-24.268H20.57c0 13.402 10.937 24.268 24.429 24.268Z" fill="#FFF"/><path d="M45 62.785c6.036 0 10.929-4.893 10.929-10.928H34.07c0 6.035 4.893 10.928 10.929 10.928ZM22.821 10.553c7.233-6.59 26.165-15.814 44.036 0-7.768-1.5-27.45-3.6-44.036 0Z" fill="#494F4B"/><path d="M18.321 42.214c9.268-3.268 32.947-7.843 53.518 0-10.66 1.017-36.289 2.443-53.518 0Z" fill="#FFF"/></g></svg>