<svg viewBox="0 0 90 90" xmlns="http://www.w3.org/2000/svg"><g fill="none"><path d="M75.73 36.402h13.007A1.258 1.258 0 0 1 90 37.656c.001.22-.055.438-.164.63L66.429 79.9a4.102 4.102 0 0 1-3.567 2.09h-9.958a4.083 4.083 0 0 1-3.822-2.643l-2.438-6.418.17.115a6.769 6.769 0 0 0 9.607-2.402L70.467 45.44H59.26a1.257 1.257 0 0 1-1.156-.707 1.264 1.264 0 0 1 .153-1.349L86.419 8.29a.902.902 0 0 1 1.505.94L75.73 36.402Z" fill="#FF7D4B"/><path d="M29.994 79.472a2.517 2.517 0 0 1-1.549 2.322c-.304.126-.63.19-.96.19h-10.68a2.505 2.505 0 0 1-2.362-1.668l-1.27-3.614L.147 39.794a2.548 2.548 0 0 1 1.225-3.108 2.537 2.537 0 0 1 1.168-.284h9.757a3.113 3.113 0 0 1 2.93 2.055l13.92 38.2.712 1.95c.096.278.142.57.136.865Z" fill="#1F97A5"/><path d="m40.824 57.648-8.026 22.728A2.442 2.442 0 0 1 30.505 82h-13.7a2.505 2.505 0 0 1-2.362-1.684l-1.274-3.614c.25.412 2.342 3.63 4.946-.045l13.384-36.732s1.605-.975 2.588 0l6.737 17.723Z" fill="#4DBED6"/><path d="m58.924 66.172-6.055 10.842a2.666 2.666 0 0 1-2.522 1.359 2.66 2.66 0 0 1-2.294-1.716l-7.229-19.01-6.491-17.089a1.633 1.633 0 0 0-1.846-1.005 3.416 3.416 0 0 0-1.003.382c.332-.93.92-1.747 1.695-2.357a5.336 5.336 0 0 1 3.336-1.176h8.95a4.51 4.51 0 0 1 4.254 2.98l9.295 25.504a1.539 1.539 0 0 1-.09 1.286Z" fill="#1F97A5"/></g></svg>