<svg xmlns="http://www.w3.org/2000/svg" viewBox="0 0 90 90"><defs><radialGradient id="A" cx="26.563%" cy="107.702%" r="99.107%" fx="26.563%" fy="107.702%"><stop offset="0%" stop-color="#fd5"/><stop offset="10%" stop-color="#fd5"/><stop offset="50%" stop-color="#ff543e"/><stop offset="100%" stop-color="#c837ab"/></radialGradient><radialGradient id="B" cx="-16.751%" cy="7.204%" r="44.301%" fx="-16.751%" fy="7.204%"><stop offset="0%" stop-color="#3771c8"/><stop offset="12.8%" stop-color="#3771c8"/><stop offset="100%" stop-color="#60f" stop-opacity="0"/></radialGradient></defs><path fill="url(#A)" d="M0 0v90h90V0z"/><path fill="url(#B)" d="M0 0v90h90V0z"/><path fill="#fff" d="M45.003 12c-8.962 0-10.087.039-13.607.199-3.513.161-5.911.717-8.009 1.533-2.17.843-4.012 1.97-5.846 3.805s-2.963 3.675-3.809 5.845c-.818 2.099-1.375 4.498-1.533 8.009C12.041 34.912 12 36.038 12 45l.199 13.604c.162 3.513.718 5.911 1.533 8.009.844 2.17 1.971 4.012 3.806 5.846s3.675 2.966 5.844 3.809c2.1.816 4.498 1.372 8.011 1.533 3.52.16 4.644.199 13.606.199s10.084-.039 13.604-.199c3.513-.161 5.914-.717 8.014-1.533 2.17-.843 4.008-1.973 5.842-3.809s2.963-3.675 3.809-5.845c.811-2.099 1.368-4.498 1.533-8.009.158-3.52.199-4.642.199-13.604l-.199-13.607c-.165-3.513-.722-5.911-1.533-8.009-.846-2.17-1.973-4.012-3.809-5.846s-3.671-2.963-5.844-3.805c-2.104-.816-4.503-1.372-8.016-1.533-3.52-.16-4.641-.199-13.606-.199h.01zm-2.96 5.947h2.96l13.335.19c3.218.147 4.964.685 6.127 1.136 1.54.598 2.638 1.313 3.792 2.468s1.87 2.255 2.47 3.795c.452 1.162.99 2.908 1.136 6.126.158 3.479.193 4.524.193 13.331l-.193 13.331c-.147 3.218-.685 4.964-1.136 6.126a10.2 10.2 0 0 1-2.47 3.791c-1.155 1.155-2.252 1.87-3.792 2.468-1.162.454-2.91.99-6.127 1.137-3.479.158-4.524.192-13.335.192s-9.856-.034-13.335-.192c-3.218-.148-4.964-.686-6.128-1.138-1.54-.598-2.64-1.313-3.795-2.468s-1.87-2.252-2.47-3.793c-.452-1.162-.99-2.908-1.136-6.126-.158-3.479-.19-4.524-.19-13.336l.19-13.331c.147-3.218.685-4.964 1.136-6.127a10.22 10.22 0 0 1 2.47-3.795c1.155-1.155 2.255-1.87 3.795-2.469 1.163-.454 2.91-.99 6.128-1.138 3.044-.137 4.224-.179 10.374-.186v.008zm20.576 5.479a3.96 3.96 0 0 0-3.96 3.959 3.96 3.96 0 1 0 7.92 0 3.96 3.96 0 0 0-3.96-3.96v.001zm-17.615 4.627A16.95 16.95 0 0 0 28.056 45c0 9.359 7.588 16.943 16.947 16.943S61.947 54.359 61.947 45a16.95 16.95 0 0 0-16.945-16.947h.001zm0 5.947c6.075 0 11 4.925 11 11s-4.925 11-11 11-11-4.925-11-11a11 11 0 0 1 11-11z"/></svg>