<svg viewBox="0 0 90 90" xmlns="http://www.w3.org/2000/svg"><path d="M39.535 0h10.929v7.789a37.302 37.302 0 0 1 8.412 2.248l3.891-6.74 9.465 5.464-3.897 6.75a37.84 37.84 0 0 1 6.154 6.154l6.75-3.897 5.464 9.464-6.741 3.892a37.355 37.355 0 0 1 2.247 8.411H90v10.93h-7.791a37.326 37.326 0 0 1-2.249 8.41l6.744 3.892-5.465 9.465-6.752-3.898a37.85 37.85 0 0 1-6.153 6.153l3.898 6.752-9.575 5.535-3.908-6.765V47.565l9.92-5.727V29.68l-17.7 10.22h-.331v.19l-.028.016.028.049V90H39.41V40.155l.028-.049-.028-.016v-.19h-.33l-17.7-10.22v12.158l9.92 5.727-.001 32.464-3.905 6.773-9.627-5.563 3.898-6.752a37.865 37.865 0 0 1-6.154-6.153L8.76 72.232l-5.465-9.465 6.743-3.892a37.36 37.36 0 0 1-2.248-8.41H0v-10.93h7.79a37.358 37.358 0 0 1 2.248-8.412l-6.741-3.891 5.464-9.464 6.749 3.896a37.863 37.863 0 0 1 6.154-6.155l-3.896-6.748 9.464-5.464 3.892 6.74a37.332 37.332 0 0 1 8.411-2.248V0ZM45 18.474a7.89 7.89 0 0 1 0 15.778 7.89 7.89 0 0 1 0-15.778Z" fill="#E43024" fill-rule="evenodd"/></svg>