<svg xmlns="http://www.w3.org/2000/svg" viewBox="0 0 90 90"><path fill="#3597D3" d="M0 0h90v90H0z"/><path d="M43.5 7c17.398 0 31.501 16.132 31.501 36.031 0 8.595-2.63 16.487-7.022 22.68L78 75.36 69.633 84l-10.235-9.856C54.73 77.27 49.299 79.062 43.5 79.062c-17.397 0-31.5-16.131-31.5-36.03C12 23.131 26.103 7 43.5 7Zm0 14.782c-8.723 0-16.676 9.097-16.676 21.25 0 12.151 7.953 21.248 16.677 21.248 1.615 0 3.204-.312 4.721-.897l-7.913-7.621 8.367-8.64 8.44 8.127c1.909-3.408 3.061-7.591 3.061-12.218 0-12.152-7.953-21.249-16.676-21.249Z" fill="#175E90"/></svg>