<svg viewBox="0 0 90 90" xmlns="http://www.w3.org/2000/svg"><g fill="none"><path fill="#FFF" d="M0 0h90v90H0z"/><path d="M45 30v10.62L25.59 60H15l30-30Zm7.5 15c0 1.02.2 1.985.6 2.895.4.91.94 1.706 1.62 2.385.68.68 1.475 1.22 2.384 1.62.911.401 1.876.6 2.896.6 1.04 0 2.014-.199 2.925-.6.91-.4 1.704-.94 2.384-1.62a7.527 7.527 0 0 0 1.606-2.385c.39-.91.585-1.875.585-2.896H75c0 2.081-.391 4.032-1.17 5.851a14.878 14.878 0 0 1-3.21 4.755 15.405 15.405 0 0 1-4.77 3.21C64.03 59.605 62.08 60 60 60c-1.38 0-2.71-.18-3.99-.54a15.215 15.215 0 0 1-3.585-1.514 14.897 14.897 0 0 1-3.03-2.341c-.91-.91-1.69-1.92-2.34-3.03a15.193 15.193 0 0 1-1.515-3.586A14.611 14.611 0 0 1 45 45h7.5Z" fill="#003D85"/></g></svg>