<svg viewBox="0 0 90 90" xmlns="http://www.w3.org/2000/svg"><g fill="none"><path fill="#0057FF" d="M0 0h90v90H0z"/><path d="M56.993 17.318c0-1.638 1.346-2.968 2.999-2.968s2.998 1.33 2.998 2.968v39.634c0 1.636-1.346 2.966-2.998 2.966-1.653 0-2.999-1.33-2.999-2.966V17.317Zm-14.996-1.504c0-1.637 1.346-2.967 2.998-2.967 1.652 0 2.998 1.33 2.998 2.967V58.83c0 1.636-1.346 2.966-2.998 2.966-1.652 0-2.998-1.33-2.998-2.966V15.814ZM27 17.318c0-1.638 1.346-2.968 2.998-2.968 1.658 0 2.999 1.33 2.999 2.968v39.634c0 1.636-1.341 2.966-2.999 2.966A2.985 2.985 0 0 1 27 56.952V17.317ZM12.003 23.25c0-1.636 1.34-2.966 2.999-2.966 1.657 0 2.998 1.33 2.998 2.966v26.68c0 1.637-1.346 2.967-2.998 2.967a2.985 2.985 0 0 1-3-2.966V23.25Zm64.945 45.251c-.46.396-11.573 9.618-31.949 9.618-20.374 0-31.486-9.222-31.947-9.618a2.946 2.946 0 0 1-.327-4.183 3.02 3.02 0 0 1 4.22-.325c.175.142 10.1 8.192 28.054 8.192 18.179 0 27.951-8.103 28.044-8.182a3.014 3.014 0 0 1 4.227.32 2.94 2.94 0 0 1-.322 4.178Zm1.048-18.57c0 1.636-1.346 2.966-2.998 2.966A2.985 2.985 0 0 1 72 49.931V23.25c0-1.64 1.34-2.968 2.998-2.968 1.658 0 2.998 1.33 2.998 2.966V49.93Z" fill="#FFF"/></g></svg>