<svg viewBox="0 0 90 90" xmlns="http://www.w3.org/2000/svg"><defs><linearGradient x1="49.994%" y1="100.018%" x2="49.994%" y2=".037%" id="a"><stop stop-color="#47E1FF" offset="0%"/><stop stop-color="#43DAFF" offset="20%"/><stop stop-color="#38C7FF" offset="49%"/><stop stop-color="#27A9FF" offset="82%"/><stop stop-color="#1D96FF" offset="100%"/></linearGradient></defs><path d="m47.578 16.962 2.434 1.407v26.285l-5.018 2.896-5.006-2.896V18.369l2.457-1.419-4.521-2.608-2.468 1.42V47.25l5.017 2.896-13.207 7.627L4.51 44.631c0-8.781.011-17.504.011-26.273L27.266 5.215c3.553 2.054 7.105 4.108 10.646 6.15l4.522-2.607C37.382 5.838 32.318 2.919 27.266 0L0 15.75v31.5L27.266 63c5.94-3.346 11.846-6.785 17.763-10.223L62.734 63 90 47.25v-31.5L62.745 0 47.578 8.758l4.521 2.607 10.635-6.138L85.49 18.369c0 8.781-.011 17.504-.011 26.273L62.734 57.785c-3.276-1.893-9.055-5.227-13.207-7.639 1.673-.97 3.345-1.938 5.029-2.908V15.75l-2.445-1.42-4.522 2.608-.011.024Zm-2.572-1.489 4.521-2.608-4.521-2.607-4.522 2.607 4.522 2.608Z" transform="translate(0 14)" fill="url(#a)" fill-rule="evenodd"/></svg>