<svg viewBox="0 0 90 90" xmlns="http://www.w3.org/2000/svg"><defs><linearGradient x1="50%" y1="0%" x2="50%" y2="100%" id="a"><stop stop-color="#0A2D3D" offset="0%"/><stop stop-color="#072331" offset="100%"/></linearGradient></defs><g fill="none" fill-rule="evenodd"><path fill="url(#a)" d="M0 0h90v90H0z"/><path d="M25 67v4h-4v-4h4Zm44 0v4h-4v-4h4Zm4-4v4h-4v-4h4ZM29 23v8h4v-4h24v4h4v-8h4v4h4v12h-4v16h4v8h-8v4h-4v-8h4v-4H49v4h-4v-4h-4v4h-4v-4h-8v4h4v8h-4v-4h-8v4h-4v-4h4v-8h4V39h-4V27h4v-4h4Zm24 36v4h-4v-4h4Zm-8 0v4h-4v-4h4Zm-8-20h-4v8h8v-4h-4v-4Zm20 0h-4v4h-4v4h8v-8Zm-16-4h-4v4h4v-4Zm12 0h-4v4h4v-4ZM37 19v4h-8v-4h8Zm24 0v4h-8v-4h8Z" fill="#FFC500"/></g></svg>