<svg viewBox="0 0 90 90" xmlns="http://www.w3.org/2000/svg"><defs><linearGradient x1="54.598%" y1="100%" x2="75.093%" y2="0%" id="a"><stop stop-color="#292270" offset="0%"/><stop stop-color="#4E48DE" offset="100%"/></linearGradient><linearGradient x1="49.944%" y1=".038%" x2="42.579%" y2="100%" id="b"><stop stop-color="#5D62FE" offset="0%"/><stop stop-color="#3931AB" offset="100%"/></linearGradient></defs><g fill="none"><path fill="url(#a)" d="M67.25 0H90v90H26.243z"/><path fill="url(#b)" d="M0 0h67.25L26.243 90H0z"/><path d="M68.964 21.053 58.89 21a2.115 2.115 0 0 0-1.942 1.282L44.821 48.836 33.052 22.282A2.115 2.115 0 0 0 31.11 21l-10.074.053c-.76.004-1.257.804-.937 1.508l23.175 51.447c.594 1.318 2.464 1.324 3.066.01L69.9 22.56c.32-.704-.176-1.504-.937-1.508" fill="#FFF"/></g></svg>