<svg viewBox="0 0 90 90" xmlns="http://www.w3.org/2000/svg"><g fill="none"><path fill="#F36" d="M0 0h90v90H0z"/><path d="M62.57 68.289c-4.929 0-7.285-2.927-7.285-6.93 0-1.141.142-2.356.5-3.57l2.357-8.43c.285-.93.357-1.786.357-2.572 0-2.713-1.643-4.357-4.286-4.357-3.358 0-5.572 2.345-6.715 6.989l-4.572 18.273h-8l1.435-5.698c-2.351 3.863-5.617 6.288-9.646 6.288-4.858 0-7.144-2.782-7.144-6.998 0-1.07.143-2.336.429-3.55l3.643-14.838H18l1.714-6.344h13.573l-5.358 21.226c-.357 1.358-.5 2.471-.5 3.256 0 1.359.669 1.749 1.715 1.985.637.143 5.713.076 8.477-6.067l3.52-14.056h-5.716l1.715-6.344h12.215l-1.571 7.153c2.143-4 6.43-7.816 10.643-7.816 4.5 0 8.216 3.2 8.216 9.343 0 1.57-.215 3.277-.786 5.206l-2.287 8.21c-.213.86-.357 1.572-.357 2.215 0 1.428.572 2.141 1.644 2.141 1.071 0 2.429-.787 4-5.143L72 59.075c-1.857 6.5-5.215 9.214-9.43 9.214ZM30.073 22.5c2.644 0 4.858 2.071 4.858 4.785 0 2.716-2.214 4.787-4.858 4.787-2.643 0-4.857-2.071-4.857-4.787 0-2.714 2.214-4.785 4.857-4.785Z" fill="#FFF"/></g></svg>