<svg viewBox="0 0 90 90" xmlns="http://www.w3.org/2000/svg"><g fill="none"><path fill="#D4D4D5" d="m45 10.893 29.64 17.119L84 22.565 45 0 6 22.565l9.36 5.447z"/><path fill="#ED7C37" d="M15.36 28.012v33.976l3.12-1.815 6.5-3.631V33.458L45 21.787V10.893z"/><path fill="#B7B7B8" d="M74.64 28.012v33.976l-3.12-1.815L84 67.435v-44.87z"/><path fill="#DE5126" d="M74.64 28.012 45 10.893v10.894l20.02 11.671v23.084l6.5 3.63 3.12 1.816z"/><path d="m74.64 72.882-9.62-5.447 9.62 5.447Z" fill="#A2A2A2"/><path fill="#929293" d="M65.02 67.435V78.33l9.62 5.446V72.882zm-46.54-7.262-3.12 1.815V28.012L6 22.565v44.87L45 90V79.107L15.36 61.988z"/><path fill="#B7B7B8" d="m45 90 20.02-11.671V67.435L45 79.107z"/><path fill="#F89B33" d="m74.64 61.988-2.86-1.556-6.76-3.89L45 68.213 24.98 56.542l-6.5 3.63-3.12 1.816L45 79.107l20.02-11.672 9.62 5.447L84 67.435z"/><path fill="#B7B7B8" d="m84 67.435-9.36 5.447v10.893L84 78.33z"/></g></svg>