<svg viewBox="0 0 90 90" xmlns="http://www.w3.org/2000/svg"><g fill="none" fill-rule="evenodd"><path fill="#FFF" fill-rule="nonzero" d="M0 0h90v90H0z"/><path d="M58.557 20.38 16.742 42.609c-1.98 1.052-2.012 3.25-1.372 4.47L27.001 69.24a3.286 3.286 0 0 0 4.442 1.38l41.815-22.227c1.981-1.053 2.01-3.253 1.371-4.47L63 21.76a3.287 3.287 0 0 0-4.442-1.38Z" fill="#00D2B2"/><path d="m31.443 20.38 41.815 22.228c1.98 1.052 2.012 3.25 1.372 4.47L62.999 69.24a3.286 3.286 0 0 1-4.442 1.38L16.742 48.392c-1.981-1.053-2.01-3.253-1.371-4.47L27 21.76a3.286 3.286 0 0 1 4.442-1.38Z" fill-opacity=".749" fill="#003049"/><path d="M45 27.588 16.742 42.609c-1.4.744-1.826 2.062-1.729 3.201l.005.048.006.056c.11.936.607 1.887 1.718 2.478L45 63.413l28.258-15.021c1.22-.648 1.7-1.73 1.74-2.752a3.088 3.088 0 0 0-.001-.293 3.301 3.301 0 0 0-.021-.26c-.11-.936-.607-1.888-1.718-2.478L45 27.588Z" fill="#003049"/></g></svg>