<svg viewBox="0 0 90 90" xmlns="http://www.w3.org/2000/svg"><g fill="none" fill-rule="evenodd"><path fill="#468145" d="M0 0h90v90H0z"/><path d="M8.824 30.282v25.703a.21.21 0 0 1-.063.15l-3.613 3.532A.087.087 0 0 1 5 59.604V30.282c0-.049.04-.088.088-.088h3.648c.049 0 .088.04.088.088Zm9.843 7.374c0-2.538 2.055-4.078 4.81-4.078 2.385 0 4.153.999 6.045 2.788.288.291.38.451.668.119l1.708-1.867c.288-.332.132-.416-.156-.706C29.686 31.498 26.643 30 23.436 30c-4.728 0-8.47 3.12-8.47 7.615 0 9.403 14.309 7.447 14.309 13.98 0 2.663-2.303 4.744-5.715 4.744-3.284 0-5.013-1.53-6.822-3.278-.288-.29-.35-.36-.597-.11l-1.953 1.867c-.287.25-.26.271-.054.604 1.87 2.552 5.355 4.536 9.426 4.536 5.098 0 9.498-3.411 9.498-8.197 0-9.903-14.391-7.697-14.391-14.105Zm33.511-3.87c2.92 0 5.305 1.124 7.32 2.83.046.04.207.173.256.215.197.168.235.176.472-.072.057-.06.226-.244.226-.244l1.726-1.91c.186-.22.154-.236.02-.378-.054-.058-.15-.148-.234-.233-2.59-2.33-5.92-3.994-9.786-3.994-8.182 0-14.555 6.657-14.555 15.021C37.623 53.384 43.996 60 52.178 60c3.865 0 7.204-1.767 9.794-4.139.288-.25.396-.34.108-.631l-1.76-1.949c-.287-.291-.362-.222-.65.027-2.015 1.706-4.572 2.905-7.492 2.905-5.88 0-10.649-4.826-10.649-11.192 0-6.408 4.77-11.235 10.65-11.235Zm23.5-3.726c-3.7 0-6.634 1.653-8.444 3.941-.049.058-.159.22-.192.272-.132.209-.094.224.093.435.467.526 1.917 2.188 1.917 2.188.061.066.118.068.17.021.058-.052.183-.172.252-.24 1.151-1.207 3.12-3.204 6.162-3.204 3.413 0 5.469 2.163 5.469 5.325 0 4.488-2.541 6.622-8.199 11.437-1.645 1.4-4.683 4.099-5.441 4.773a.524.524 0 0 0-.175.392v4.032c0 .18.209.276.342.158 1.561-1.386 8.016-7.112 10.114-8.915 5.43-4.67 6.895-7.84 6.895-11.918 0-4.952-3.536-8.697-8.964-8.697Zm9.111 26.297h-9.123a.213.213 0 0 0-.212.214v2.735c0 .118.095.214.212.214h9.123a.213.213 0 0 0 .211-.214V56.57a.213.213 0 0 0-.211-.214Z" fill="#FFF" fill-rule="nonzero"/></g></svg>