<svg xmlns="http://www.w3.org/2000/svg" viewBox="0 0 90 90"><path fill="#292929" d="M0 0h90v90H0z"/><path fill="#AED652" d="M27.08 18.34v55.74H14V18.35m45.96 10.9a7.24 7.24 0 00-5.03-1.64c-1.8-.1-3.57.53-4.9 1.75a5.77 5.77 0 00-1.78 4.27 4.25 4.25 0 002.04 3.77c1.6 1 3.34 1.8 5.15 2.36 2.08.69 4.3 1.39 6.67 2.1 2.35.7 4.6 1.71 6.68 3A16.23 16.23 0 0173.95 50a15.42 15.42 0 012.03 8.38c.05 2.41-.5 4.8-1.6 6.94a15.88 15.88 0 01-4.41 5.22 20.16 20.16 0 01-6.72 3.31 30.09 30.09 0 01-8.5 1.15c-7.33 0-12.68-1.62-16.03-4.84a15.3 15.3 0 01-3.47-5.1l9.55-6.56 6.82 11.58 3.05-.85 3.05-.84-6.8-11.56h14.81L34.75 35.55l-.01-.48c-.04-2.42.42-4.81 1.34-7.05.87-2.07 2.2-3.92 3.9-5.4a17.38 17.38 0 016.2-3.44A26.62 26.62 0 0154.41 18c5.95 0 10.59 1.26 13.91 3.77 3.32 2.52 5.47 6.5 6.46 11.93H61.95a6.25 6.25 0 00-2-4.46z"/></svg>