<svg viewBox="0 0 90 90" xmlns="http://www.w3.org/2000/svg"><g fill="none"><path fill="#FFF" d="M0 0h90v90H0z"/><path d="M5.376 51.02a.37.37 0 0 1-.373-.364V31.365A.37.37 0 0 1 5.376 31h.201c1.942.002 3.515 1.536 3.517 3.429v16.227a.37.37 0 0 1-.374.365H5.376Zm15.37-.004c-3.65.003-7.657-1.846-7.828-5.912a.366.366 0 0 1 .106-.267.385.385 0 0 1 .27-.113l3.211-.002c.19.003.347.146.362.331.142 1.408 1.732 2.349 3.954 2.347 2.25-.002 3.647-.926 3.647-2.41-.017-1.775-2.051-2.204-4.41-2.702-3.205-.675-6.835-1.44-6.838-5.757-.003-3.201 3.105-5.527 7.39-5.531 4.304-.004 7.177 2.197 7.316 5.606a.365.365 0 0 1-.106.266.385.385 0 0 1-.27.114l-3.21.002a.367.367 0 0 1-.363-.33c-.14-1.226-1.556-2.082-3.442-2.08-1.893.001-3.215.913-3.214 2.218 0 1.507 1.917 1.912 4.133 2.382 3.136.663 7.04 1.49 7.113 5.883.017 1.569-.492 2.874-1.514 3.882-1.352 1.335-3.592 2.07-6.307 2.073Zm20.003.004c-5.539 0-9.878-4.38-9.878-9.971 0-5.541 4.381-10.049 9.764-10.049 4.657 0 9.715 3.386 9.915 9.662.003.512-.025 1.024-.086 1.532a.368.368 0 0 1-.369.318H35.266a.125.125 0 0 0-.093.044.127.127 0 0 0-.032.103c.421 2.677 2.63 4.477 5.494 4.477 1.755 0 3.274-.625 4.395-1.805a.346.346 0 0 1 .255-.112l3.936.034a.372.372 0 0 1 .317.182.36.36 0 0 1 .01.366 10.039 10.039 0 0 1-8.8 5.22Zm0-16.135c-2.622 0-4.749 1.59-5.556 4.154a.126.126 0 0 0 .02.113c.023.032.06.051.1.051h10.795c.04 0 .077-.02.1-.051a.122.122 0 0 0 .02-.114c-.794-2.485-2.995-4.153-5.48-4.153ZM53.663 51.02a.619.619 0 0 1-.626-.609v-8.365c0-7.983 5.09-10.94 9.857-11.046a.376.376 0 0 1 .383.367v3.152a.362.362 0 0 1-.365.357c-3.583 0-5.745 2.68-5.785 7.171v8.364a.62.62 0 0 1-.626.61h-2.838Zm19.745 0a.385.385 0 0 1-.358-.234l-7.69-19.271a.368.368 0 0 1 .04-.35.388.388 0 0 1 .319-.165h3.475c.158 0 .3.094.358.237l5.476 14.167c.02.05.07.083.126.083a.136.136 0 0 0 .126-.083l5.473-14.166a.386.386 0 0 1 .359-.238h3.475c.128 0 .248.062.32.166a.367.367 0 0 1 .036.35l-7.688 19.27a.383.383 0 0 1-.357.235h-3.49ZM35.729 59a2.057 2.057 0 0 1-1.795-.99 1.952 1.952 0 0 1 0-2.01c.372-.621 1.057-1 1.795-.99h47.197a2.057 2.057 0 0 1 1.795.99 1.95 1.95 0 0 1 0 2.01c-.371.622-1.057 1-1.795.99H35.73Zm-9.547 0c-1.175 0-2.062-.858-2.062-1.995s.887-1.994 2.062-1.994c1.138 0 2.03.876 2.03 1.994 0 1.118-.892 1.995-2.03 1.995Z" fill="#00447C"/><path d="M16.622 59c-1.175 0-2.062-.858-2.062-1.995s.887-1.994 2.062-1.994c1.14 0 2.03.876 2.03 1.994 0 1.118-.891 1.995-2.03 1.995Z" fill="#7296C8"/><path d="M7.063 59C5.887 59 5 58.142 5 57.005s.887-1.994 2.063-1.994c1.137 0 2.028.876 2.028 1.994 0 1.118-.89 1.995-2.028 1.995Z" fill="#FABA00"/></g></svg>