<svg xmlns="http://www.w3.org/2000/svg" viewBox="0 0 90 90"><g fill="none" fill-rule="evenodd"><path fill="#231F20" d="M0 0h90v90H0z"/><g fill-rule="nonzero"><path fill="#FFF" d="M13 39.5v2h-2v-2h2Zm0 3.5v10h-2V43h2Zm8.8 4.7c1.1.6 1.6 1.3 1.6 2.3 0 1-.5 1.7-1.6 2.3-.9.5-1.9.7-3 .7-1 0-2-.2-2.9-.7-1-.6-1.6-1.3-1.6-2.3h2c0 .4.4.6 1 .8.6.2 1 .2 1.6.2 1.3 0 2-.3 2-1 0-.6-.7-1-2-1-1 0-2-.2-3-.7-1-.5-1.6-1.3-1.6-2.3 0-1 .5-1.7 1.6-2.3 1-.4 2-.7 3-.7s2 .3 3 .7c1 .6 1.5 1.4 1.5 2.3h-2c0-.3-.3-.6-1-.8l-1.5-.2c-1.4 0-2 .4-2 1 0 .7.6 1 2 1 1 0 2 .2 3 .7ZM26.7 38v14.9h-2V38z"/><path fill="#BAD632" d="M36.7 44.4c1 1 1.5 2.2 1.4 3.6 0 1.3-.5 2.6-1.4 3.5a5 5 0 0 1-3.6 1.4 5 5 0 0 1-3.6-1.4c-1-1-1.5-2.2-1.5-3.5 0-1.4.5-2.6 1.5-3.6A5 5 0 0 1 33 43a5 5 0 0 1 3.6 1.4Zm-5.8 1.4c-.6.6-1 1.4-.9 2.2 0 .8.3 1.5.9 2 .9 1 2.2 1.2 3.3.8a3 3 0 0 0 0-5.6 3.1 3.1 0 0 0-3.3.6ZM48 44.4c1 1 1.5 2.2 1.5 3.6v5h-2v-5a3 3 0 0 0-3.1-3 3 3 0 0 0-3 3v5h-2.1v-5a5 5 0 0 1 3.2-4.6c1.9-.8 4-.4 5.5 1ZM52.9 38v14.9h-2.1V38zM56.1 39.5v2h-2v-2h2Zm0 3.5v10h-2V43h2Zm10 1.4c1 1 1.5 2.2 1.5 3.6v5h-2v-5c0-1.1-.6-2.1-1.6-2.6-1-.6-2.1-.6-3 0a3 3 0 0 0-1.6 2.6v5h-2v-5a5 5 0 0 1 3.1-4.6c2-.8 4.1-.4 5.6 1ZM74 51a3 3 0 0 1-2.9-2h8v-1a5 5 0 0 0-5-5 5 5 0 0 0-5.2 5c0 1.3.5 2.5 1.5 3.5a5 5 0 0 0 3.6 1.4h5v-2h-5Zm0-6a3 3 0 0 1 3 2h-6l.8-1.2A3 3 0 0 1 74 45Z"/></g></g></svg>