<svg xmlns="http://www.w3.org/2000/svg" viewBox="0 0 90 90"><path fill="#FFF" d="M0 0h90v90H0z"/><g fill="#FF5A47"><path d="M45.383 29.629a15.26 15.26 0 1 0-.293 30.517c8.427.075 15.32-6.696 15.394-15.123.074-8.428-6.697-15.32-15.124-15.394h.023Zm-.225 23a7.742 7.742 0 1 1 .135-15.438 7.742 7.742 0 0 1-.158 15.416"/><path d="M45 15H17.498A2.498 2.498 0 0 0 15 17.476V45c0 16.569 13.431 30 30 30 16.569 0 30-13.431 30-30 0-16.569-13.431-30-30-30ZM24.385 44.595c.112-11.51 9.533-20.75 21.043-20.638 11.51.112 20.75 9.533 20.637 21.043-.112 11.51-9.533 20.75-21.042 20.638-11.51-.112-20.75-9.533-20.638-21.043Z"/></g></svg>