<svg xmlns="http://www.w3.org/2000/svg" viewBox="0 0 90 90"><path fill="#FFF" d="M0 0h90v90H0z"/><path d="m21.182 42.553 1.35-5.712-7.199-.025-1.547 6.654c2.228-.335 4.736-.639 7.396-.917" fill="#80C342"/><path d="M30.017 41.75c1.858-.15 5.613-.267 10.147-.355.418-1.886.95-4.393.95-4.393s-1.875-.415-5.968-.315c-5.02.118-8.75 2.45-9.97 5.477 1.59-.144 3.21-.282 4.84-.415m26.998-.569.992-4.333h-4.43C54.654 32.042 55.03 30.6 55.142 30l-7.667 1.458s-.965 4.178-2.283 9.85c3.88-.054 7.997-.096 11.821-.127m-44.537 7.922c-1.2 5.169-2.427 10.382-2.476 10.622h7.098c.024-.093 1.661-6.93 3.08-12.933-3.199.782-5.736 1.587-7.702 2.311M80 37.076c-2.604-.25-6.211-.418-8.996-.337-4.279.121-7.555 1.483-9.86 4.415 6.349-.041 11.089-.052 11.089-.052l-.152.645.01.004c-1.667 6.821-2.283 10.01-2.283 10.01-.63.964-1.648 2.27-3.475 2.27-1.641 0-1.845-1.412-1.798-2.7.11-3.091 1.066-7.242 2.983-8.914-1.977.042-4.51.106-7.376.202-1.592 2.655-2.642 6.145-2.774 9.85-.118 3.347 1.4 7.531 5.416 7.531 2.72 0 4.937-1.417 6.563-3.432-.027 1.387.186 3.43.186 3.43l6.119-.73c-.031-1.022 0-2.998.376-4.76C77.233 48.894 80 37.076 80 37.076m-44.565 9.06c-.504-.386-1.18-.813-1.724-1.287-.17-.143-.343-.27-.497-.41-1.22.152-2.396.31-3.506.485-1.727.267-3.336.55-4.841.842.4 1.94 1.755 3.084 3.73 4.448.674.431 1.393.859 1.941 1.244.327.252.692.54.878.864.184.39.076.74.052.828-.343 1.307-1.64 1.589-3.299 1.602-2.95.016-4.878-.6-4.878-.6l-1.301 5.273s3.289.738 8.051.48c6.316-.343 9.294-4.413 9.43-8.273.088-2.45-1.97-4.078-4.036-5.496m16.927 8.407c-.907 0-1.74-.104-2.029-.49-.45-.515-.28-1.46-.168-2.06l2.038-9.047c-2.447.12-4.977.266-7.494.44-.638 2.734-1.332 5.717-2.029 8.692-.479 2.06-.582 4.333.726 6.007.862 1.073 2.28 1.869 4.655 1.869 1.511 0 3.343-.108 5.05-.58l1.026-4.926c-.544.049-1.128.095-1.775.095" fill="#021F5F"/></svg>