<svg xmlns="http://www.w3.org/2000/svg" viewBox="0 0 90 90" fill-rule="evenodd"><path fill="#fff" opacity="0" d="M0 0h90v90H0z"/><path fill="#e78242" d="M66.072 77.783h7.929V49.848h-7.929z"/><path fill="#018bb9" d="M44.4 51.693C40.436 21.65 83.515 39.043 89.858 9c1.85 31.097-14.536 49.545-39.115 73C73.736 34.036 51.8 34.827 44.4 51.693"/><path fill="#e78242" d="M77.172 18.224c0 4.217-3.436 7.906-7.929 7.906-4.229 0-7.929-3.426-7.929-7.906 0-4.217 3.436-7.906 7.929-7.906s7.929 3.426 7.929 7.906m-14.272 9.224C26.957 19.805 21.143 43.523 0 41.415c19.029 9.224 28.807-18.975 62.901-13.968m-6.343 25.3c-18.764 3.162-16.914 21.61-29.865 28.199 13.479-3.953 11.629-21.874 29.865-28.199"/></svg>