<svg xmlns="http://www.w3.org/2000/svg" viewBox="0 0 90 90"><path fill="#FF1E44" d="M0 0h90v90H0z"/><path fill="#FFF" d="M22.08 17.35c-2.7 1.6-8.03 7.75-8.08 9.36v2.67c0 3.38 3.15 6.36 6 6.36 3.44 0 6.3-2.86 6.3-6.25a6.25 6.25 0 006.2 6.25c3.43 0 6.1-2.86 6.1-6.25a6.4 6.4 0 006.37 6.25h.06a6.4 6.4 0 006.37-6.25 6.18 6.18 0 006.1 6.25c3.44 0 6.2-2.86 6.2-6.25a6.34 6.34 0 006.3 6.25c2.85 0 6-2.98 6-6.36v-2.67c-.05-1.6-5.38-7.75-8.08-9.36-8.4-.3-14.24-.35-22.92-.35-8.68 0-20.53.14-22.92.35zm16.48 16.8a7.16 7.16 0 01-12.43.03 7.17 7.17 0 01-1.25 1.53 7.18 7.18 0 01-5.04 2.06c-.24 0-.48-.07-.68-.14-.28 2.89-.4 5.64-.43 7.66l-.02 3.03c.05 6.06-.6 19.62 2.66 22.96C26.4 72.46 35.7 73 45 73s18.6-.54 23.64-1.72c3.26-3.33 2.6-16.9 2.66-22.95l-.01-3.03c-.05-2.02-.16-4.78-.44-7.66-.2.07-.44.13-.68.13-1.88 0-3.7-.73-5.04-2.06a7.2 7.2 0 01-1.25-1.53 6.77 6.77 0 01-1.16 1.53 7.18 7.18 0 01-11.28-1.56 7.09 7.09 0 01-6.44 3.62h-.2a7.19 7.19 0 01-6.24-3.62h-.01zm-5.18 6.71c2.06.01 3.88 0 6.13 2.48a52.37 52.37 0 0110.98 0c2.26-2.47 4.08-2.47 6.13-2.47h.01c.97 0 4.84 0 7.54 7.6l2.9 10.45c2.15 7.77-.68 7.96-4.22 7.97-5.25-.2-8.16-4.03-8.16-7.85-2.9.48-6.3.72-9.68.72-3.4 0-6.78-.24-9.68-.72 0 3.82-2.9 7.65-8.16 7.85-3.54-.01-6.37-.2-4.22-7.97l2.9-10.44c2.7-7.61 6.57-7.61 7.54-7.61zM45 46.85s-5.52 5.1-6.51 6.9l3.61-.14v3.16c0 .15 1.45.09 2.9.02 1.46.07 2.9.13 2.9-.02v-3.16l3.62.14c-1-1.8-6.52-6.9-6.52-6.9z"/></svg>