<svg xmlns="http://www.w3.org/2000/svg" viewBox="0 0 90 90" fill-rule="evenodd"><path fill="#fff" d="M0 0h90v90H0z"/><path d="M78.635 71.287l-31.1-47.803H34.568l29.735 46.293h-45.09V38.234L10 24.019v50.869c0 1.314.487 2.629 1.365 3.602S13.412 80 14.631 80h60.787c1.852 0 3.51-1.217 4.241-3.115.682-1.947.292-4.138-1.024-5.598h0zm-67.27-52.574l31.052 47.803h13.015L25.696 20.223h45.091v31.592L80 66.029V15.111c0-1.314-.487-2.629-1.365-3.602S76.588 10 75.369 10H14.582c-1.852.049-3.51 1.266-4.241 3.164-.682 1.898-.292 4.089 1.024 5.549z" fill="#000" fill-rule="nonzero"/></svg>