<svg viewBox="0 0 90 90" xmlns="http://www.w3.org/2000/svg"><g fill="none"><path fill="#FF1515" d="M0 0h90v90H0z"/><g fill="#FFF"><path d="M79.083 32.987v4.466H82V30h-7.277v2.987z"/><path d="M74.723 34.466h2.902v2.98h-2.902zM8 32.987h4.361v4.469H8zm35.499 13.661c0-.703-.029-2.518-1.03-3.748-1.472-1.757-4.074-1.962-5.304-1.962-1.23 0-3.16.234-4.517 1.23-1.359.995-1.645 2.782-1.687 3.602h4.289a2.405 2.405 0 0 1 .314-1.362 1.986 1.986 0 0 1 1.659-.85c.414 0 1.558.162 1.944 1.274.171.542.2 1.025.2 2.021-1.444 0-4.06 0-5.89.85-2.745 1.302-3.16 3.528-3.16 4.743a4.81 4.81 0 0 0 1.301 3.353c.586.571 1.559 1.201 3.717 1.201.815 0 2.803 0 4.447-2.445-.01.696.039 1.391.143 2.079h3.96a18.362 18.362 0 0 1-.358-3.866l-.028-6.12Zm-4.947 6.574a2.476 2.476 0 0 1-1.858.879c-1.444 0-2.13-1.142-2.13-2.167 0-1.816 2-2.724 4.803-2.49 0 1.64-.057 2.812-.815 3.778Zm30.309-15.711-4.332 1.216v2.635H61.67v2.958h2.86v8.478c0 1.274 0 4.114 4.388 4.114a13.076 13.076 0 0 0 3.389-.483v-2.928c-.489.061-.98.09-1.473.087-1.944 0-1.944-.878-1.973-2.27V44.32h3.532v-2.958H68.86v-3.85ZM8 41.362h4.361v15.279H8zm17.857 0L22.44 51.714l-3.36-10.352h-4.69l5.462 15.272h4.847l5.375-15.272zm33.854 2.475c-.386-1.054-1.63-2.87-4.546-2.87-3.245 0-4.418 1.962-4.832 2.65l-.115-2.255H46.03c.086 1.054.086 2.68.086 2.738v12.534h4.39v-8.932c0-1.186.27-1.932.528-2.328a2.712 2.712 0 0 1 2.273-1.171 2.294 2.294 0 0 1 2.13 1.288c.23.484.23 1.025.23 1.67v9.473h4.446V48.39c0-2.84-.086-3.616-.4-4.553Zm15.012-2.475h4.361v15.279h-4.361z"/></g></g></svg>