<svg xmlns="http://www.w3.org/2000/svg" viewBox="0 0 90 90" fill-rule="evenodd"><path fill="#fff" opacity="0" d="M0 0h90v90H0z"/><path fill="#778eb1" fill-rule="nonzero" d="M70.49 15.667c-11.538 0-18.462 4.819-21.608 15.295l-7.972 24.933c-2.937 8.171-7.762 11.524-16.364 11.524H4.615C2.098 67.419 0 69.514 0 72.029V84.81C0 87.114 1.888 89 4.406 89h80.979C87.902 89 90 86.905 90 84.39V20.067c0-2.514-1.888-4.4-4.406-4.4H70.49zM4.825 1C2.308 1 0 3.305 0 5.819v33.943a4.74 4.74 0 0 0 4.825 4.819h17.203c7.762 0 18.671-1.676 21.608-15.505l4.615-22.21C48.881 3.724 46.573 1 43.427 1H4.825z"/></svg>