<?xml version="1.0" encoding="UTF-8"?>
<svg width="90px" height="90px" viewBox="0 0 90 90" version="1.1" xmlns="http://www.w3.org/2000/svg" xmlns:xlink="http://www.w3.org/1999/xlink">
    <title>jelastic.com</title>
    <defs>
        <path d="M39.558762,67.7985747 L19.6143637,56.5079354 L39.3114676,45.0521245 L58.7819622,56.4872504 L39.558762,67.7985747 Z M37.7989894,0.606751854 L19.6967952,10.6028777 L39.1537055,22.1994705 L19.6143637,33.7614852 L0,44.7223987 L0,64.7902898 C0,66.5509886 0.935149337,68.1792413 2.45596335,69.0665372 L37.2858767,89.3838837 C38.6909162,90.2035673 40.4278427,90.2054197 41.8344258,89.3891322 L75.7897013,69.6833838 C77.7989294,68.5173029 79.0354012,66.3703803 79.0354012,64.0474805 L79.0354012,25.7776748 C79.0354012,23.3726522 77.7575593,21.1491641 75.6797927,19.9380083 L42.6053297,0.662323621 C41.1246509,-0.20058242 39.2994271,-0.221576198 37.7989894,0.606751854 L37.7989894,0.606751854 Z" id="path-1"></path>
    </defs>
    <g id="jelastic" stroke="none" stroke-width="1" fill="none" fill-rule="evenodd">
        <rect id="Rectangle" fill="#000000" fill-rule="nonzero" opacity="0" x="0" y="0" width="90" height="90"></rect>
        <g id="jelastic-seeklogo.com" transform="translate(5.000000, 0.000000)">
            <g id="path-1-link" fill="#000000" fill-rule="nonzero">
                <path d="M39.558762,67.7985747 L19.6143637,56.5079354 L39.3114676,45.0521245 L58.7819622,56.4872504 L39.558762,67.7985747 Z M37.7989894,0.606751854 L19.6967952,10.6028777 L39.1537055,22.1994705 L19.6143637,33.7614852 L0,44.7223987 L0,64.7902898 C0,66.5509886 0.935149337,68.1792413 2.45596335,69.0665372 L37.2858767,89.3838837 C38.6909162,90.2035673 40.4278427,90.2054197 41.8344258,89.3891322 L75.7897013,69.6833838 C77.7989294,68.5173029 79.0354012,66.3703803 79.0354012,64.0474805 L79.0354012,25.7776748 C79.0354012,23.3726522 77.7575593,21.1491641 75.6797927,19.9380083 L42.6053297,0.662323621 C41.1246509,-0.20058242 39.2994271,-0.221576198 37.7989894,0.606751854 L37.7989894,0.606751854 Z" id="path-1"></path>
            </g>
            <g id="Clipped">
                <mask id="mask-2" fill="white">
                    <use xlink:href="#path-1"></use>
                </mask>
                <g id="path-1"></g>
                <g id="Group" mask="url(#mask-2)" fill-rule="nonzero">
                    <g transform="translate(-0.000278, -0.729132)" id="Path">
                        <polygon fill="#0077E0" points="39.3117763 45.7813179 39.6643483 45.1758944 39.6294616 23.6674596 39.2293449 22.8838977 19.6146724 34.4906786 19.3043967 35.1526001 19.2346233 56.6264569 19.6146724 57.2368201"></polygon>
                        <polygon fill="#2F8DDF" points="39.3117763 45.7813179 39.2293449 22.8838977 40.1515275 22.9712689 58.2842862 33.8994568 58.7822709 34.6271382 59.1194063 35.3961897 59.1891798 56.6264569 58.7822709 57.2164438"></polygon>
                        <polygon fill="#3BAAFF" points="40.2182445 8.91179679e-16 19.6971348 11.3323181 58.7823018 34.6273852 59.6624968 34.500805 78.2253192 23.9270415 79.0354321 22.6229574"></polygon>
                        <polygon fill="#0988F8" points="58.7822709 34.6273234 58.7822709 57.2163203 39.5590707 68.5276446 19.6146724 57.2370053 19.6146724 34.4905551 -2.87815823e-16 45.4514686 -2.87815823e-16 68.3630905 39.5590707 91.4389578 79.0354012 68.5288796 79.0354012 22.6228957"></polygon>
                    </g>
                </g>
            </g>
        </g>
    </g>
</svg>