<svg viewBox="0 0 90 90" xmlns="http://www.w3.org/2000/svg"><path d="m76.257 57.408-1.637-2.616c-.907.861-2.017 1.354-3.1 1.354-.497 0-.759-.061-1.842-.338-1.08-.309-1.842-.401-2.69-.401-3.83 0-6.315 2.093-6.315 5.325 0 2.339 1.053 3.786 3.217 4.37-.878.216-1.843.678-2.282 1.201-.321.37-.467.861-.467 1.446 0 .493.117.924.292 1.293.204.339.497.616.848.77.701.276 1.842.46 3.596.492.907 0 1.463.03 1.667.03 1.083.063 1.638.246 2.047.462.41.247.702.801.702 1.416 0 .616-.38 1.231-.936 1.6-.526.37-1.374.524-2.485.524-1.814 0-2.808-.677-2.808-1.94 0-.553.059-.677.176-1.015h-3.626c-.146.307-.35.738-.35 1.6 0 1.078.409 2.001 1.227 2.802 1.346 1.323 3.539 1.692 5.673 1.692 2.339 0 4.591-.553 5.906-2.032.819-.923 1.199-1.938 1.199-3.261 0-1.416-.409-2.494-1.286-3.355-1.054-1.017-2.251-1.386-4.532-1.417l-2.106-.03c-.409 0-.642-.153-.642-.37 0-.43.554-.8 1.548-1.292.293.03.41.03.585.03 3.187 0 5.527-1.97 5.527-4.677 0-1.047-.293-1.847-.878-2.585.498.06.644.092 1.024.092 1.081 0 1.9-.34 2.748-1.17Zm2.412-15.276c0-1.77-1.092-3.41-2.947-4.757.167.54.261 1.09.261 1.651 0 5.069-7.077 9.405-17.11 11.2 1.135.129 2.312.199 3.523.199 8.987 0 16.273-3.713 16.273-8.293Zm-5.784-2.757c0 4.864-10.88 8.807-24.3 8.807s-24.3-3.943-24.3-8.807c0-1.532 1.08-2.972 2.978-4.226-.293.538-.449 1.094-.449 1.664 0 4.494 9.57 8.136 21.374 8.136 11.805 0 21.374-3.642 21.374-8.136 0-.85-.344-1.67-.98-2.44 2.71 1.42 4.303 3.144 4.303 5.002ZM26.97 31.589c-4.902 1.198-8.231 3.544-8.231 6.241 0 1.67 1.277 3.203 3.41 4.414-.64-1.025-.99-2.103-.99-3.218 0-2.805 2.173-5.385 5.811-7.437Zm47.936-7.908c-.451-.542-1.069-.54-1.556-.1-.47.624-.484 1.068-.15 1.413.356.368 1.095.685 1.627.263.532-.423.53-1.033.079-1.576Zm-6.175 2.022c1.521-2.121 4.431 1.63 1.133 2.152-1.32.21-3.55 1.653-4.506 3.932-1.35 3.373-.766 5.87-3.088 7.371-4.951 3.2-20.206 4.407-26.775.302-5.149-3.217-3.382-8.317-18.11-19.557-1.926-1.47.355-3.029 1.798-2.03 1.442.999.122 1.264 3.031 4.176 5.877 5.879 5.818.593 6.746 2.592 1.952 4.204 6.257 8.438 6.257 8.438 4.312 2.807 7.755 3.42 14.115-.883 4.033-2.729 2.383 4.34 12.274-.755 3.608-1.858 3.458-.626 7.125-5.738ZM25.814 20.31c-.25-.35-.99-.512-1.486-.013-.495.498-.252.991.035 1.288.41.424 1.106.39 1.52.159.415-.23.328-.874-.07-1.434Zm-10.226-3.902c.323-.354.731-1.025.03-2.31-.51-.94-2.202-1.324-2.8-.965-.594.36-1.322 1.748-.325 2.358 1.284.789 2.126 1.98 3.095.917Zm60.979-1.744c-.452-.657-1.407-.538-2.352.148-.946.685-.767 1.987-.454 2.29.548.534 2.01.174 2.35-.208.877-.981.908-1.573.456-2.23Zm-5.44 4.172c1.353-.639 3.481 1.436.4 2.993-4.402 2.227-4.869 4.99-7.65 6.746-4.678 2.955-3.247.12-10.771-.953-2.898-.414-3.83 2.819-6.093 1.885-5.215-2.154-8.857-1.742-12.235 1.006-1.223-.54-2.503-2.622-3.004-3.457 1.37-1.341.816-3.583.043-4.812-.772-1.23-1.708-.88-2.735-2.012-1.028-1.13.387-4.077 1.704-1.813 4.932 8.487 8.17 4.957 12.2 4.45 3.866-.485 7.284 1.621 8.332-4.344.172-.975 1.122-1.209 1.219.404.096 1.613.702 5.542 2.828 6.05 2.125.506 3.813-.499 4.31-1.056.498-.557.76-.476.977.907.22 1.384.759 3.296 3.744 1.166 6.104-4.356 4.357-6.04 6.73-7.16ZM52.98 14.849c.02-.697-.296-1.134-.984-1.11-.688.026-.934.372-.912 1.045.172 1.273.386 1.243.842 1.36.456.118 1.035-.598 1.054-1.295Zm-24.473 1.197c.3-.377.328-.874-.07-1.434-.248-.35-1.413-.59-1.907-.092-.496.499-.045 1.282.34 1.401.715.22 1.032.886 1.637.125Zm40.82 44.716c0 1.447-.848 2.247-2.398 2.247-1.374 0-2.31-.646-2.31-2.247 0-1.477.848-2.339 2.34-2.339 1.49 0 2.368.862 2.368 2.34ZM58.1 69.596c1.287-1.54 1.871-3.386 1.871-6.094 0-2.555-.526-4.278-1.724-5.756-1.288-1.6-2.954-2.37-5.089-2.37-4.034 0-6.725 3.293-6.725 8.25 0 4.954 2.66 8.155 6.725 8.155 2.31 0 3.801-.83 4.942-2.185Zm-2.398-6.125c0 3.725-.73 5.324-2.426 5.324-.76 0-1.637-.43-1.989-1.291-.32-.802-.498-2.156-.498-3.971 0-1.57.147-2.678.41-3.51.322-.984 1.082-1.6 2.018-1.6.701 0 1.315.308 1.696.832.526.707.79 2.092.79 4.216Zm-37.29 10.803 1.899 2.216c1.843-.739 4.152-2.4 4.737-5.016.205-.862.292-1.416.292-4.187V50.162h-4.151v17.587c0 2.309-.088 3.17-.41 3.94-.38.861-1.316 1.908-2.367 2.585Zm9.592-24.16h-.427v21.329h4.094v-9.45h5.175v-3.507h-5.175V53.59h6.461l.251-1.863a68.925 68.925 0 0 1-10.38-1.615Zm13.608 5.2c.351.648.555 1.355.614 2.248.556-.8 1.492-1.632 2.222-2.002.323-.153.848-.245 1.287-.245.585 0 .848.062 1.462.338l-1.082 3.632a2.128 2.128 0 0 0-1.14-.308c-.877 0-1.667.432-2.398 1.324v11.142h-3.918V60.916c0-2.124-.234-3.724-.556-4.616l3.51-.985Z" fill="#40BE46" fill-rule="evenodd"/></svg>