<svg viewBox="0 0 90 90" xmlns="http://www.w3.org/2000/svg"><g fill="none"><path fill="#FFF" d="M0 0h90v90H0z"/><g fill="#002D72"><path d="M36.464 15.048c-.055.056-1.113.167-2.337.28a80.384 80.384 0 0 0-3.06.279c-.446.056-1.447.195-2.227.28-2.003.25-3.032.39-5.843.894a399.2 399.2 0 0 0-3.339.559c-1.447.251-2.643.866-2.643 1.397-.056 1.929.056 10.202.14 10.984a44.5 44.5 0 0 1 .166 2.04c.056.588.195 1.147.306 1.203.14.083 1.197-.056 2.393-.28 2.282-.475 6.734-1.146 9.238-1.425.835-.112 1.975-.224 2.504-.308 6.205-.699 22.26-.699 26.74.028.361.056 1.419.168 2.337.28.918.083 1.92.223 2.226.28.306.055 1.14.195 1.836.279.696.083 2.644.39 4.285.698 1.67.308 3.117.475 3.228.364.278-.28.612-6.01.584-9.867 0-5.059.056-4.723-.946-5.142-1.224-.503-9.154-1.845-13.662-2.292-.946-.084-2.086-.224-2.56-.308-.973-.167-19.226-.363-19.366-.223Zm4.341 3.046c.612.112 1.78.392 2.588.615 1.363.42 1.641.42 3.088 0 2.421-.67 4.035-.838 8.097-.866 3.673 0 3.785.028 5.426.894l1.67.867 2.281 5.086 2.254 5.087-1.419-.167c-.807-.112-2.198-.308-3.116-.448C54.55 28.044 41.5 27.85 31.9 28.743c-1.363.112-4.424.475-4.925.56-2.031.418-3.005.446-3.005.167 0-.168.974-2.46 2.17-5.087l2.143-4.78 1.391-.726c.78-.391 1.781-.81 2.226-.923.946-.223 7.207-.111 8.904.14Z"/><path d="M31.094 20.19c-1.03.448-1.224.727-2.56 3.774l-1.474 3.298 1.307-.196c3.284-.42 6.65-.587 10.852-.503 4.814.112 5.62-.14 3.005-.894-3.144-.923-4.619-1.118-8.32-1.118-1.78 0-3.255-.084-3.255-.196s.362-1.202.835-2.432c.445-1.257.779-2.264.751-2.236-.028 0-.556.224-1.14.503Zm26.546-.447c0 .056.389 1.118.834 2.376.473 1.286.835 2.348.835 2.376 0 .028-1.336.056-2.978.028-1.67-.028-3.895.111-4.98.307-2.588.475-5.12 1.202-5.12 1.51 0 .14 2.782.251 6.205.251 3.395 0 6.539.056 6.984.14 1.836.391 3.228.53 3.228.335 0-.084-.585-1.537-1.308-3.214-1.197-2.823-1.364-3.047-2.504-3.606-.64-.307-1.197-.53-1.197-.503ZM41.139 32.991c-.028 0-1.753.112-3.812.224-2.059.084-4.062.224-4.452.28-.39.055-1.53.167-2.532.279-1.002.084-2.115.196-2.504.28-.362.055-1.169.167-1.781.279-.612.084-1.809.28-2.643.42-.835.139-1.976.335-2.505.419-2.226.363-2.782.503-2.921.698-.195.308.584 3.997 1.447 7.127 3.227 11.376 9.794 21.41 18.559 28.202 2.42 1.872 5.481 3.857 5.676 3.661.084-.084.167-40.275.084-41.673-.028-.223-2.393-.42-2.616-.196Zm-5.342 4.976c6.817 2.32 8.625 11.151 3.283 16.07-4.925 4.529-12.577 2.852-15.248-3.353-.807-1.79-.751-5.814.056-7.547 2.198-4.611 7.15-6.764 11.909-5.17Z"/><path d="M29.425 39.504c-.585.307-1.53.894-2.06 1.313l-1.029.755 1.113.335 1.113.308.668-1.146a15.45 15.45 0 0 1 1.085-1.65c.529-.586.445-.586-.89.085Zm6.316 1.034c1.14 1.705 1.196 1.76 2.143 1.397.667-.251.723-.363.473-.782-.334-.531-2.672-1.929-3.228-1.929-.167 0 .111.587.612 1.314Zm-4.758.503-.918 1.397.862.084c.501.056.946.028 1.03-.028.056-.083.083-.754.028-1.481l-.084-1.37-.918 1.398Zm2.393-.643c-.056.363-.028.978.028 1.398.083.642.222.782.89.782.445 0 .807-.084.807-.167 0-.252-.612-1.314-1.14-2.013l-.502-.643-.083.643Zm-8.097 3.214c-.223.42-.5 1.174-.584 1.677-.167.783-.112.895.445.979.362.056 1.03.028 1.53-.028.751-.056.918-.224 1.058-.979.11-.475.25-1.062.306-1.313.083-.336-.112-.503-.64-.615a10.992 10.992 0 0 1-1.253-.336c-.333-.14-.584.056-.862.615Zm12.938-.391c-.89.28-.918.308-.723 1.565.111.699.195 1.314.223 1.342.055.056 1.419.14 2.309.112.863-.028.863-.028.612-1.09-.362-1.398-.835-2.292-1.196-2.264-.167.028-.724.167-1.225.335Zm-8.792 1.034c-.501 1.929-.529 1.9.807 2.013 1.697.111 1.808.056 1.808-1.174 0-1.062 0-1.062-1.252-1.174-.946-.056-1.28.028-1.363.335Zm4.925-.335c-.724.084-.918.223-.946.699 0 .335-.056.838-.112 1.09-.083.39.112.503.919.53 1.113.029 1.808-.027 1.975-.167.223-.224-.278-2.04-.612-2.152-.167-.056-.751-.056-1.224 0Zm-9.683 4.751c.139.895.862 2.572 1.113 2.572.083 0 .64-.196 1.252-.448.723-.279 1.085-.614 1.002-.838-.084-.196-.223-.783-.306-1.314-.195-.95-.195-.95-1.698-.922l-1.502.028.139.922Zm4.452-.782c-.056.084 0 .587.111 1.118.195 1.034.807 1.341 2.143 1.006.556-.14.667-.363.667-1.146 0-.531-.083-1.006-.194-1.006-.696-.14-2.644-.112-2.727.028Zm4.257.419c-.223 1.202.14 1.705 1.363 1.789 1.141.056 1.169.056 1.364-.95.083-.56.083-1.09-.028-1.202-.111-.112-.724-.196-1.391-.196-1.002 0-1.225.084-1.308.559Zm4.368-.28c-.055.14-.167.755-.278 1.342-.139.894-.083 1.062.473 1.286 1.837.67 1.809.67 2.282-.587.807-2.236.779-2.32-.918-2.32-.807-.028-1.53.112-1.559.28Zm-7.178 3.466c-.446.168-.418.28.278 1.37.417.643.862 1.174.974 1.174.111 0 .195-.56.167-1.23-.028-1.286-.418-1.65-1.42-1.314Zm3.06.168c-.222.196-.306.81-.25 1.537l.111 1.174.807-1.23c.445-.643.807-1.285.807-1.37 0-.363-1.14-.474-1.475-.111Zm-6.038.391c-1.085.308-.834.923.835 1.9 1.892 1.147 2.143 1.147 1.391 0-.306-.474-.723-1.173-.89-1.536-.167-.336-.39-.615-.473-.587-.084.028-.473.111-.863.223Zm8.264 1.286c-.556.866-.834 1.537-.64 1.537.418 0 2.7-1.453 3.172-2.012.306-.392.223-.475-.528-.755a20.943 20.943 0 0 0-.946-.307c-.028 0-.501.698-1.058 1.537Zm10.435-19.984c-.167.363-.195 1.481-.084 4.5.028.615.501 1.034 2.588 2.431l2.588 1.733V54.01l-.696-.447c-.39-.252-1.503-1.007-2.476-1.65-1.002-.67-1.865-1.145-1.92-1.09-.167.168-.25 24.177-.084 24.177.223 0 2.7-1.51 3.98-2.46l1.307-.922v-8.553c0-4.695.028-8.58.083-8.636.056-.056 1.197.643 2.532 1.51l2.421 1.592V62.2c0 2.6.084 4.696.223 4.696.222 0 2.142-2.125 4.034-4.528l1.058-1.286-.64-.475a220.666 220.666 0 0 0-2.588-1.761l-1.948-1.314-.083-5.953-.056-5.953.612.335c.362.196 1.53.95 2.616 1.677l1.975 1.314v5.757c0 3.187.084 5.842.167 5.926.501.503 5.064-7.798 7.012-12.717 1.085-2.823 2.81-9.224 2.977-11.04.084-1.23.14-1.23-3.506-1.79l-1.474-.25v8.496c0 4.667-.084 8.553-.167 8.636-.084.084-1.224-.559-2.532-1.453l-2.393-1.593v-15.01l-.751-.028c-.752-.028-1.698-.112-3.145-.252s-1.39-.363-1.39 5.87V45.4l-2.505-1.705-2.504-1.705v-8.916l-1.03-.028c-.584 0-1.725-.056-2.532-.083-1.113-.028-1.53.083-1.67.39Z"/></g></g></svg>