<svg viewBox="0 0 90 90" xmlns="http://www.w3.org/2000/svg"><g stroke-linecap="round" fill="none" fill-rule="evenodd"><path d="M12.87 18c-.089 0-.177 0-.265.002-.402.007-.8.034-1.193.08-3.147.363-5.982 2.045-7.72 4.984-1.702 2.88-2.12 6.05-1.253 8.989.868 2.938 2.97 5.607 6.082 7.722l.057.037c2.67 1.616 5.326 2.707 8.173 3.27a30.49 30.49 0 0 0 .007 3.635c.228 3.753 1.547 7.208 3.549 10.261l-7.173 2.942a1.5 1.5 0 0 0-.835 1.96 1.488 1.488 0 0 0 1.962.812l7.888-3.235a31.635 31.635 0 0 0 4.948 4.731c.07.054.14.105.208.158l-4.62 6.147a1.502 1.502 0 0 0 .28 2.11 1.486 1.486 0 0 0 2.098-.306l4.693-6.243c2.579 1.641 5.316 2.92 8.017 3.767C39.16 72.375 41.87 74 45 74a8.253 8.253 0 0 0 7.247-4.251c2.673-.862 5.379-2.146 7.93-3.78l4.76 6.33c.492.671 1.436.81 2.098.307a1.502 1.502 0 0 0 .28-2.111l-4.69-6.24c.03-.024.062-.047.093-.07a32.272 32.272 0 0 0 4.91-4.645l7.69 3.154a1.488 1.488 0 0 0 1.961-.813 1.5 1.5 0 0 0-.835-1.96L69.5 57.076c2.065-3.072 3.45-6.553 3.74-10.336.095-1.249.114-2.472.059-3.665 2.827-.567 5.469-1.653 8.122-3.26l.057-.037c3.112-2.115 5.214-4.784 6.082-7.722.868-2.939.449-6.11-1.254-8.99-1.737-2.938-4.572-4.62-7.719-4.984a12.322 12.322 0 0 0-1.193-.079c-2.814-.05-5.816.826-8.703 2.5-2.123 1.231-4.037 3.117-5.536 5.174-4.19-2.41-9.644-3.766-16.344-3.877-.601-.01-1.212-.01-1.833 0-7.47.123-13.448 1.545-17.965 4.116a1.31 1.31 0 0 0-.034-.052c-1.518-2.13-3.485-4.093-5.672-5.361-2.797-1.622-5.702-2.495-8.439-2.502h0Z" stroke="#FFF" stroke-width="2.608" stroke-linejoin="round"/><path d="M64.08 26.625c1.425-2 3.295-3.847 5.264-4.989 6.21-3.6 12.763-3.108 15.842 2.099 3.083 5.213 1.396 10.993-4.438 14.957-2.976 1.803-5.861 2.893-9.056 3.326M25.92 26.625c-1.424-2-3.294-3.847-5.263-4.989-6.21-3.6-12.763-3.108-15.842 2.099-3.083 5.213-1.396 10.993 4.438 14.957 2.976 1.803 5.861 2.893 9.056 3.326" stroke="#000" stroke-width="2.608" fill="#FFF" fill-rule="nonzero" stroke-linejoin="round"/><path d="M71.94 46.64C73.01 32.622 64.428 22.79 45 23.108c-19.428.319-27.783 9.604-26.94 23.53.805 13.294 16.468 23.055 26.836 23.055 10.369 0 26.03-9.782 27.044-23.055h0Z" stroke="#000" stroke-width="2.608" fill="#FFF" fill-rule="nonzero" stroke-linejoin="round"/><path d="M54.174 52.947c0 2.163 1.743 3.916 3.892 3.916 2.15 0 3.892-1.753 3.892-3.916 0-2.162-1.743-3.915-3.892-3.915-2.15 0-3.892 1.753-3.892 3.915h0Zm-26.132 0c0 2.183 1.759 3.952 3.928 3.952s3.927-1.77 3.927-3.952-1.758-3.951-3.927-3.951c-2.17 0-3.928 1.769-3.928 3.951Z" stroke="#000" stroke-width=".5" fill="#000" fill-rule="nonzero" stroke-linejoin="round"/><path d="m28.954 64.639-5.08 6.758m37.172-6.758 5.08 6.758M21.871 57.956l-8.174 3.352m54.01-3.352 8.174 3.352" stroke="#000" stroke-width="2.981"/><path d="M45 59.385c-4.272 0-6.998 2.98-6.906 6.652.1 3.978 3.025 6.653 6.906 6.653 3.882 0 6.897-3.087 6.906-6.653.009-3.674-2.634-6.652-6.906-6.652Z" stroke="#000" stroke-width="2.608" fill="#FFF" fill-rule="nonzero" stroke-linejoin="round"/></g></svg>