<svg viewBox="0 0 90 90" xmlns="http://www.w3.org/2000/svg"><defs><linearGradient x1="49.989%" y1="0%" x2="49.989%" y2="99.986%" id="a"><stop stop-color="#6364FF" offset="0%"/><stop stop-color="#563ACC" offset="100%"/></linearGradient></defs><g fill="none"><path fill="url(#a)" d="M0 0h90v90H0z"/><path d="M73.766 27.505c-.893-6.554-6.681-11.72-13.542-12.72-1.157-.17-5.543-.785-15.702-.785h-.076c-10.162 0-12.342.615-13.5.785-6.67.973-12.76 5.614-14.238 12.246-.71 3.266-.787 6.887-.655 10.208.189 4.763.225 9.518.663 14.262a66.286 66.286 0 0 0 1.582 9.354c1.405 5.684 7.091 10.414 12.663 12.343a34.388 34.388 0 0 0 18.525.965 27.631 27.631 0 0 0 2.006-.54c1.492-.47 3.243-.993 4.53-1.914a.144.144 0 0 0 .058-.11v-4.597a.134.134 0 0 0-.053-.105.138.138 0 0 0-.115-.026 51.993 51.993 0 0 1-12.022 1.387c-6.968 0-8.842-3.264-9.378-4.622a14.166 14.166 0 0 1-.815-3.643.132.132 0 0 1 .106-.137.136.136 0 0 1 .063.001 51.003 51.003 0 0 0 11.825 1.386c.958 0 1.913 0 2.871-.025 4.006-.11 8.229-.313 12.17-1.073.1-.019.197-.036.282-.06 6.217-1.179 12.134-4.877 12.735-14.243.023-.369.079-3.862.079-4.245.003-1.3.424-9.224-.062-14.092Zm-9.57 23.37H57.66V35.07c0-3.327-1.405-5.024-4.262-5.024-3.14 0-4.714 2.007-4.714 5.972v8.65h-6.499v-8.65c0-3.965-1.576-5.972-4.717-5.972-2.84 0-4.259 1.697-4.262 5.024v15.803h-6.532V34.591c0-3.327.86-5.97 2.582-7.929 1.776-1.955 4.105-2.958 6.996-2.958 3.346 0 5.874 1.27 7.56 3.806l1.627 2.695 1.63-2.695c1.685-2.536 4.214-3.806 7.554-3.806 2.888 0 5.217 1.003 6.999 2.958 1.72 1.957 2.581 4.6 2.581 7.93l-.005 16.282Z" fill="#FFF"/></g></svg>