<svg xmlns="http://www.w3.org/2000/svg" viewBox="0 0 90 90"><g clip-path="url(#a)"><path fill="#19288A" d="M45.44 90c8.75-.08 18.02-2.88 25.09-8.22L44.9 55.47 19.3 81.82c7.06 5.35 16.35 8.1 25.11 8.18h1.02ZM44.4 0c-8.75.08-18.03 2.88-25.1 8.22l25.62 26.31 25.6-26.35C63.47 2.83 54.17.08 45.43 0h-1.02ZM90 44.46c-.08-8.75-2.88-18.03-8.22-25.09L55.47 45l26.35 25.6c5.35-7.06 8.1-16.36 8.18-25.12v-1ZM0 45.5c.08 8.74 2.88 18.02 8.22 25.08l26.31-25.61-26.35-25.6C2.83 26.43.08 35.73 0 44.5v1.01Z"/></g><defs><clipPath id="a"><path fill="#fff" d="M0 0h90v90H0z"/></clipPath></defs></svg>