<svg xmlns="http://www.w3.org/2000/svg" viewBox="0 0 90 90"><path fill="#fff" d="M0 0h90v90H0z" opacity=".01"/><path fill="#6BE005" d="M42.79 61.98a61.32 61.32 0 0 1-.02-11.38 10 10 0 0 1 7.94-9.17 149.27 149.27 0 0 1 26.16-2.94v.01c6 0 10.94 4.54 11.65 10.4h.03a60.14 60.14 0 0 1 0 14.7h-.03a11.77 11.77 0 0 1-11.65 10.39V74a150.75 150.75 0 0 1-25.67-2.84 10 10 0 0 1-8.41-9.18Z"/><path fill="#FF8E00" d="M52.54 42.21a65.44 65.44 0 0 0 0-12.7 11.13 11.13 0 0 0-8.85-10.21A167.49 167.49 0 0 0 14.52 16v.01c-6.69 0-12.2 5.06-13 11.6H1.5a67.91 67.91 0 0 0 0 16.38h.03A13.1 13.1 0 0 0 14.5 55.58v.01a167.7 167.7 0 0 0 28.61-3.16 11.12 11.12 0 0 0 9.42-10.22Z"/><path fill="#48C606" d="M43.14 52.43a11.1 11.1 0 0 0 9.4-10.22l.1-1.18-1.93.38a9.97 9.97 0 0 0-7.94 9.17c-.06.64-.1 1.29-.15 1.94l.52-.1Z"/><path fill="#fff" d="m26.37 36.67-.01-.71a4.42 4.42 0 0 0-.4-1.64 4.07 4.07 0 0 0-1-1.35 4.7 4.7 0 0 0-1.53-.91 5.79 5.79 0 0 0-2.01-.34c-.75 0-1.41.11-2.01.34a4.7 4.7 0 0 0-1.54.91 4.06 4.06 0 0 0-1.4 2.99l-.01.7.01.72c.02.58.15 1.12.4 1.64a4 4 0 0 0 1 1.35c.42.38.94.68 1.54.9.6.22 1.27.32 2 .32.75 0 1.41-.1 2.02-.32a4.28 4.28 0 0 0 2.93-3.89l.01-.71Zm-6.13 1.7c-.3-.27-.47-.64-.5-1.1-.03-.17-.03-.38-.03-.62 0-.23 0-.44.03-.62.03-.47.2-.82.5-1.1.3-.26.7-.39 1.18-.39s.88.13 1.17.4c.3.27.47.63.5 1.1.01.17.03.38.03.61 0 .24 0 .45-.03.63-.03.47-.2.82-.5 1.09-.3.27-.69.4-1.17.4-.49 0-.88-.13-1.18-.4Zm10.49-6.47h-2.29a.47.47 0 0 0-.35.14c-.1.1-.15.2-.15.36v8.53c0 .13.05.25.15.35.1.1.2.15.35.15h2.29c.13 0 .25-.04.35-.15.1-.1.15-.2.15-.35V32.4a.48.48 0 0 0-.15-.36.54.54 0 0 0-.35-.15Zm12.16 9.03c0 .13-.05.25-.15.35-.1.1-.2.15-.35.15H40.1a.47.47 0 0 1-.35-.15.46.46 0 0 1-.15-.35V36.3c0-.52-.13-.95-.38-1.26-.25-.3-.66-.47-1.2-.47-.54 0-.94.16-1.19.47-.25.31-.37.74-.37 1.26v4.63c0 .13-.04.25-.14.35-.1.1-.2.15-.35.15h-2.3a.47.47 0 0 1-.34-.15.46.46 0 0 1-.15-.35V32.4c0-.14.04-.26.15-.36.1-.1.2-.15.35-.15h2.2c.13 0 .25.05.35.15.1.1.15.2.15.36v.41c.1-.12.22-.25.36-.38a2.93 2.93 0 0 1 1.25-.6 4.97 4.97 0 0 1 2.55.15A3.26 3.26 0 0 1 42.6 34c.2.52.3 1.16.3 1.87v5.04ZM31.3 28.82c-.03-.45-.19-.79-.5-1a2 2 0 0 0-1.23-.35c-.51 0-.92.12-1.23.34-.3.22-.47.56-.5 1v.57c.06.89.63 1.35 1.73 1.35 1.09 0 1.67-.45 1.73-1.35.02-.2.02-.38 0-.56Zm-16.3 0c-.02-.45-.18-.79-.5-1a2 2 0 0 0-1.22-.35c-.52 0-.93.12-1.24.34-.29.22-.47.56-.5 1v.57c.06.89.64 1.35 1.74 1.35 1.08 0 1.67-.45 1.73-1.35v-.56Zm-.57 3.08H12.1c-.25 0-.43.2-.43.45v7.69c0 .84-.55.87-.73.87-.16 0-.4-.01-.69-.22-.2-.13-.28-.2-.48-.2a.44.44 0 0 0-.37.22l-1.03 1.44a.79.79 0 0 0-.14.4c0 .14.07.28.19.4.66.74 2 1.04 2.94 1.04 1.78 0 3.55-1.04 3.55-3.79v-7.83c-.03-.27-.23-.48-.47-.48Zm58.29 25.26c0 .28.12.65.22.83a1.43 1.43 0 0 0 .92.68c.2.04.39.06.58.06.36 0 .66-.03.86-.1l.05-.02.14-.06.15-.08.03-.02a.9.9 0 0 0 .14-.1.23.23 0 0 1 .05-.04.75.75 0 0 1 .3-.04h2.59c.26 0 .4.13.4.4 0 .12-.03.15-.13.32l-.08.14c-.18.3-.47.6-.85.91-.38.31-.88.6-1.48.82-.6.23-1.34.35-2.17.35-.8 0-1.5-.12-2.12-.34a4.14 4.14 0 0 1-2.5-2.56 6.47 6.47 0 0 1 0-4.06 4.36 4.36 0 0 1 2.5-2.6 5.55 5.55 0 0 1 2.12-.39c.9 0 1.64.15 2.27.44a4.25 4.25 0 0 1 2.38 2.78c.17.6.26 1.19.26 1.78v.38c0 .14-.04.25-.15.36-.1.1-.22.15-.35.15h-6.13v.01Zm-4.8 3.37c0 .13-.04.25-.14.36-.1.1-.22.14-.35.14H65.2a.47.47 0 0 1-.35-.14.48.48 0 0 1-.15-.36v-4.7c0-.6-.12-1.05-.34-1.3-.22-.25-.55-.39-1-.39-.42 0-.74.14-.98.39-.22.25-.33.7-.33 1.3v4.7c0 .13-.05.25-.15.36-.1.1-.22.14-.35.14h-2.22a.47.47 0 0 1-.35-.14.48.48 0 0 1-.14-.36v-4.7c0-.6-.12-1.05-.34-1.3-.22-.25-.56-.39-1-.39-.42 0-.75.14-.98.39-.22.25-.34.66-.34 1.26v4.76c0 .13-.04.25-.15.35-.1.1-.22.15-.35.15h-2.3a.47.47 0 0 1-.35-.15.48.48 0 0 1-.15-.35v-8.58c0-.13.04-.25.15-.35.1-.1.22-.15.35-.15h2.21c.14 0 .25.04.36.15.1.1.14.22.14.35v.43a2.83 2.83 0 0 1 2.32-1.11c.62 0 1.19.12 1.69.36a3 3 0 0 1 1.23 1.07 3.6 3.6 0 0 1 2.92-1.43c.53 0 1 .09 1.45.25.44.16.82.42 1.14.77.33.34.58.78.75 1.3.18.53.27 1.16.27 1.88v5.04h.05Zm5.34-6.31c.28-.31.66-.46 1.18-.46.5 0 .9.15 1.15.46.28.3.46.65.5 1.18h-3.36c.05-.53.27-.87.53-1.18Z"/></svg>