<?xml version="1.0" encoding="UTF-8"?>
<svg width="90px" height="90px" viewBox="0 0 90 90" version="1.1" xmlns="http://www.w3.org/2000/svg" xmlns:xlink="http://www.w3.org/1999/xlink">
    <title>join.me</title>
    <g id="join" stroke="none" stroke-width="1" fill="none" fill-rule="evenodd">
        <rect id="Rectangle" fill="#000000" fill-rule="nonzero" opacity="0" x="0" y="0" width="90" height="90"></rect>
        <g id="join-me-seeklogo.com" transform="translate(1.000000, 16.000000)" fill-rule="nonzero">
            <path d="M41.7853333,45.9801173 C41.6093333,44.1024726 41.5066667,42.1952587 41.5066667,40.2436911 C41.5066667,38.3216926 41.6093333,36.4440479 41.7706667,34.5959725 C42.064,30.0423146 45.364,26.3165944 49.7053333,25.4295182 C57.3173333,23.8179964 66.2493333,22.7682896 75.8706667,22.4873821 L75.8706667,22.5021667 C81.8693333,22.5021667 86.812,27.04104 87.516,32.8957431 L87.5453333,32.8957431 C87.8386667,35.2760642 88,37.7303084 88,40.2584757 C88,42.7718583 87.8386667,45.2261025 87.5453333,47.5916391 L87.516,47.5916391 C86.812,53.4463421 81.8693333,57.9852154 75.8706667,57.9852154 L75.8706667,58 C66.4546667,57.7190925 57.7133333,56.7137395 50.204,55.1613561 C45.6573333,54.4664797 42.1226667,50.6668366 41.7853333,45.9801173 L41.7853333,45.9801173 Z" id="XMLID_15_" fill="#6BE005"></path>
            <path d="M51.5386667,26.2131022 C51.744,24.1284731 51.8466667,21.9847056 51.8466667,19.8113689 C51.8466667,17.6676013 51.744,15.5681876 51.5386667,13.5131277 C51.216,8.42722406 47.52,4.27275045 42.6946667,3.29696661 C34.2026667,1.49324497 24.2586667,0.32526128 13.5226667,0 L13.5226667,0.0147846036 C6.83466667,0.0147846036 1.32,5.07111904 0.528,11.6059138 L0.498666667,11.6059138 C0.176,14.2523579 0,17.0022942 0,19.8113689 C0,22.6056589 0.176,25.3408106 0.498666667,27.9872547 L0.528,27.9872547 C1.30533333,34.5220495 6.82,39.5783839 13.508,39.5783839 L13.508,39.5931685 C24.0093333,39.2826918 33.7626667,38.1590619 42.1226667,36.4292633 C47.212,35.6752485 51.1573333,31.4468519 51.5386667,26.2131022 L51.5386667,26.2131022 Z" id="XMLID_14_" fill="#FF8E00"></path>
            <path d="M42.1373333,36.4292633 C47.212,35.6752485 51.172,31.4468519 51.5386667,26.2131022 C51.5826667,25.8287025 51.612,25.4295182 51.6413333,25.0303339 C50.996,25.1633954 50.3506667,25.2816722 49.7053333,25.4147336 C45.364,26.2870252 42.0493333,30.02753 41.7706667,34.5811879 C41.712,35.2169258 41.668,35.8674484 41.624,36.5179709 C41.7853333,36.4884017 41.9613333,36.4588325 42.1373333,36.4292633 L42.1373333,36.4292633 Z" id="XMLID_13_" fill="#48C606"></path>
            <path d="M25.3586667,19.9592149 C25.3733333,20.1366301 25.3733333,20.3731838 25.3733333,20.6688759 C25.3733333,20.9497833 25.3733333,21.186337 25.3586667,21.3785368 C25.3293333,21.969921 25.1973333,22.5169513 24.9626667,23.0196278 C24.7133333,23.537089 24.3906667,23.9806271 23.9653333,24.3650268 C23.54,24.7494265 23.0266667,25.0451185 22.4253333,25.2668876 C21.824,25.4886566 21.164,25.5921489 20.416,25.5921489 C19.6826667,25.5921489 19.008,25.4886566 18.4066667,25.2668876 C17.8053333,25.0451185 17.292,24.7494265 16.8666667,24.3650268 C16.4413333,23.9806271 16.104,23.537089 15.8693333,23.0196278 C15.62,22.5021667 15.488,21.9551364 15.4733333,21.3785368 C15.4586667,21.2011216 15.4586667,20.9645679 15.4586667,20.6688759 C15.4586667,20.3879684 15.4586667,20.1514147 15.4733333,19.9592149 C15.488,19.3678307 15.6053333,18.8208004 15.8546667,18.3181239 C16.0893333,17.8006628 16.4266667,17.3571246 16.8666667,16.972725 C17.292,16.5883253 17.8053333,16.2778486 18.4066667,16.0560795 C19.008,15.8343105 19.668,15.7160336 20.416,15.7160336 C21.1493333,15.7160336 21.824,15.8343105 22.4253333,16.0560795 C23.0266667,16.2778486 23.54,16.5883253 23.9653333,16.972725 C24.3906667,17.3571246 24.728,17.8006628 24.9626667,18.3181239 C25.1973333,18.835585 25.3293333,19.3678307 25.3586667,19.9592149 Z M18.744,21.2750446 C18.7733333,21.7333673 18.9493333,22.1029824 19.2426667,22.3691053 C19.536,22.6352281 19.932,22.7682896 20.416,22.7682896 C20.9,22.7682896 21.296,22.6352281 21.5893333,22.3691053 C21.8826667,22.1029824 22.0586667,21.7481519 22.088,21.2750446 C22.1173333,21.0976294 22.1173333,20.8906449 22.1173333,20.6540913 C22.1173333,20.4175376 22.1026667,20.2105531 22.088,20.0331379 C22.0586667,19.5748152 21.8826667,19.2052001 21.5893333,18.9390772 C21.296,18.6729544 20.9,18.5398929 20.416,18.5398929 C19.932,18.5398929 19.536,18.6729544 19.2426667,18.9390772 C18.9493333,19.2052001 18.7733333,19.5600306 18.744,20.0331379 C18.7146667,20.2105531 18.7146667,20.4175376 18.7146667,20.6540913 C18.7146667,20.8906449 18.7146667,21.0976294 18.744,21.2750446 Z" id="Shape" fill="#FFFFFF"></path>
            <path d="M29.7293333,15.8934489 L27.4413333,15.8934489 C27.3093333,15.8934489 27.192,15.9378027 27.0893333,16.0412949 C26.9866667,16.1447872 26.9426667,16.2482794 26.9426667,16.3961254 L26.9426667,24.9268417 C26.9426667,25.0599031 26.9866667,25.17818 27.0893333,25.2816722 C27.192,25.3851644 27.2946667,25.4295182 27.4413333,25.4295182 L29.7293333,25.4295182 C29.8613333,25.4295182 29.9786667,25.3851644 30.0813333,25.2816722 C30.184,25.17818 30.228,25.0746877 30.228,24.9268417 L30.228,16.3961254 C30.228,16.263064 30.184,16.1447872 30.0813333,16.0412949 C29.9786667,15.9525873 29.8613333,15.8934489 29.7293333,15.8934489 Z" id="XMLID_10_" fill="#FFFFFF"></path>
            <path d="M41.888,24.9268417 C41.888,25.0599031 41.844,25.17818 41.7413333,25.2816722 C41.6386667,25.3851644 41.536,25.4295182 41.3893333,25.4295182 L39.1013333,25.4295182 C38.9693333,25.4295182 38.852,25.3851644 38.7493333,25.2816722 C38.6466667,25.17818 38.6026667,25.0746877 38.6026667,24.9268417 L38.6026667,20.2992608 C38.6026667,19.7817996 38.4706667,19.3530461 38.2213333,19.0425695 C37.972,18.7320928 37.5613333,18.5694621 37.0186667,18.5694621 C36.476,18.5694621 36.08,18.7320928 35.8306667,19.0425695 C35.5813333,19.3530461 35.464,19.7817996 35.464,20.2992608 L35.464,24.9268417 C35.464,25.0599031 35.42,25.17818 35.3173333,25.2816722 C35.2146667,25.3851644 35.112,25.4295182 34.9653333,25.4295182 L32.6773333,25.4295182 C32.5453333,25.4295182 32.428,25.3851644 32.3253333,25.2816722 C32.2226667,25.17818 32.1786667,25.0746877 32.1786667,24.9268417 L32.1786667,16.3961254 C32.1786667,16.263064 32.2226667,16.1447872 32.3253333,16.0412949 C32.428,15.9378027 32.5306667,15.8934489 32.6773333,15.8934489 L34.8773333,15.8934489 C35.0093333,15.8934489 35.1266667,15.9378027 35.2293333,16.0412949 C35.332,16.1447872 35.376,16.2482794 35.376,16.3961254 L35.376,16.8100943 C35.4786667,16.6918175 35.596,16.5587561 35.7426667,16.4256946 C35.8893333,16.2926332 36.0653333,16.1743564 36.2706667,16.0708641 C36.476,15.9673719 36.7106667,15.8786643 36.9893333,15.8195259 C37.268,15.7456029 37.576,15.7160336 37.9426667,15.7160336 C38.5293333,15.7160336 39.0573333,15.8047413 39.5413333,15.9673719 C40.0253333,16.1300025 40.436,16.3813408 40.788,16.7213867 C41.14,17.0614326 41.404,17.4901861 41.5946667,18.0224318 C41.7853333,18.5398929 41.888,19.1756309 41.888,19.8852919 L41.888,24.9268417 Z" id="Path" fill="#FFFFFF"></path>
            <path d="M30.3013333,12.8182513 C30.272,12.3747132 30.1106667,12.0346673 29.8026667,11.8128983 C29.5093333,11.5911292 29.0986667,11.4728524 28.5706667,11.4728524 C28.0573333,11.4728524 27.6466667,11.5911292 27.3386667,11.8128983 C27.0453333,12.0346673 26.8693333,12.3747132 26.84,12.8182513 C26.8253333,13.0104512 26.8253333,13.1878664 26.84,13.3800663 C26.8986667,14.2671425 27.4706667,14.7254652 28.5706667,14.7254652 C29.656,14.7254652 30.2426667,14.2819271 30.3013333,13.3800663 C30.316,13.1878664 30.316,12.9956666 30.3013333,12.8182513 Z" id="XMLID_8_" fill="#FFFFFF"></path>
            <path d="M14.0066667,12.8182513 C13.9773333,12.3747132 13.816,12.0346673 13.508,11.8128983 C13.2146667,11.5911292 12.804,11.4728524 12.276,11.4728524 C11.7626667,11.4728524 11.352,11.5911292 11.044,11.8128983 C10.7506667,12.0346673 10.5746667,12.3747132 10.5453333,12.8182513 C10.5306667,13.0104512 10.5306667,13.1878664 10.5453333,13.3800663 C10.604,14.2671425 11.176,14.7254652 12.276,14.7254652 C13.3613333,14.7254652 13.948,14.2819271 14.0066667,13.3800663 L14.0066667,12.8182513 L14.0066667,12.8182513 Z" id="XMLID_7_" fill="#FFFFFF"></path>
            <path d="M13.4346667,15.8934489 L11.088,15.8934489 C10.8386667,15.8934489 10.6626667,16.1004333 10.6626667,16.3517716 L10.6626667,24.0397655 C10.6626667,24.8824879 10.1053333,24.9120571 9.92933333,24.9120571 C9.768,24.9120571 9.53333333,24.8972725 9.24,24.690288 C9.04933333,24.5572266 8.96133333,24.4980882 8.756,24.4980882 C8.712,24.4980882 8.50666667,24.5128728 8.38933333,24.7050726 L7.36266667,26.1539638 C7.27466667,26.2870252 7.216,26.4348713 7.216,26.5531481 C7.216,26.6862095 7.28933333,26.8340556 7.40666667,26.9523324 C8.06666667,27.6915626 9.40133333,27.9872547 10.3546667,27.9872547 C12.1293333,27.9872547 13.904,26.9523324 13.904,24.2023961 L13.904,16.3665562 C13.8746667,16.1004333 13.6693333,15.8934489 13.4346667,15.8934489 Z" id="XMLID_6_" fill="#FFFFFF"></path>
            <path d="M66.924,44.5312261 C66.924,44.6642875 66.88,44.7825644 66.7773333,44.8860566 C66.6746667,44.9895488 66.5573333,45.0339026 66.4253333,45.0339026 L64.2106667,45.0339026 C64.0786667,45.0339026 63.9613333,44.9895488 63.8586667,44.8860566 C63.756,44.7825644 63.712,44.6642875 63.712,44.5312261 L63.712,39.8297222 C63.712,39.2235534 63.5946667,38.7800153 63.3746667,38.528677 C63.1546667,38.2773388 62.8173333,38.1442773 62.3773333,38.1442773 C61.952,38.1442773 61.6293333,38.2773388 61.3946667,38.528677 C61.1746667,38.7800153 61.0573333,39.2235534 61.0573333,39.8297222 L61.0573333,44.5312261 C61.0573333,44.6642875 61.0133333,44.7825644 60.9106667,44.8860566 C60.808,44.9895488 60.6906667,45.0339026 60.5586667,45.0339026 L58.344,45.0339026 C58.212,45.0339026 58.0946667,44.9895488 57.992,44.8860566 C57.8893333,44.7825644 57.8453333,44.6642875 57.8453333,44.5312261 L57.8453333,39.8297222 C57.8453333,39.2235534 57.728,38.7800153 57.508,38.528677 C57.288,38.2773388 56.9506667,38.1442773 56.5106667,38.1442773 C56.0853333,38.1442773 55.7626667,38.2773388 55.528,38.528677 C55.308,38.7800153 55.1906667,39.1939842 55.1906667,39.7853683 L55.1906667,44.5460107 C55.1906667,44.6790721 55.1466667,44.797349 55.044,44.9008412 C54.9413333,45.0043334 54.824,45.0486872 54.692,45.0486872 L52.3893333,45.0486872 C52.2573333,45.0486872 52.14,45.0043334 52.0373333,44.9008412 C51.9346667,44.797349 51.8906667,44.6790721 51.8906667,44.5460107 L51.8906667,35.9709406 C51.8906667,35.8378792 51.9346667,35.7196023 52.0373333,35.6161101 C52.14,35.5126179 52.2573333,35.4682641 52.3893333,35.4682641 L54.604,35.4682641 C54.736,35.4682641 54.8533333,35.5126179 54.956,35.6161101 C55.0586667,35.7196023 55.1026667,35.8378792 55.1026667,35.9709406 L55.1026667,36.3996941 C55.3666667,36.0596482 55.6893333,35.7935254 56.0853333,35.5865409 C56.4666667,35.3943411 56.9213333,35.2908488 57.42,35.2908488 C58.036,35.2908488 58.608,35.4091257 59.1066667,35.6456793 C59.6053333,35.882233 60.016,36.2370635 60.3386667,36.7249554 C60.6906667,36.2518481 61.116,35.8970176 61.6293333,35.6604639 C62.128,35.4091257 62.6853333,35.2908488 63.2573333,35.2908488 C63.7853333,35.2908488 64.2693333,35.3795565 64.7093333,35.5421871 C65.1493333,35.7048177 65.5306667,35.956156 65.8533333,36.3109865 C66.176,36.6510324 66.4253333,37.0945705 66.6013333,37.6120316 C66.7773333,38.1442773 66.8653333,38.7652307 66.8653333,39.4896763 L66.8653333,44.5312261 L66.924,44.5312261 Z M71.72,41.1603365 C71.72,41.4412439 71.8373333,41.810859 71.94,41.9882743 C72.0426667,42.1656895 72.1746667,42.3135356 72.336,42.4318124 C72.4973333,42.5353046 72.6733333,42.6240122 72.864,42.668366 C73.0546667,42.7127199 73.2453333,42.7275045 73.436,42.7275045 C73.8026667,42.7275045 74.096,42.6979353 74.3013333,42.6240122 C74.5066667,42.5500892 74.4773333,42.5648738 74.668,42.446597 C74.8146667,42.3578894 74.8,42.3431048 74.8586667,42.3135356 C74.9173333,42.2839664 75.02,42.2691817 75.1666667,42.2691817 L77.748,42.2691817 C78.012,42.2691817 78.144,42.4022432 78.144,42.668366 C78.144,42.8162121 78.1146667,42.8309967 77.9386667,43.1266888 C77.7626667,43.4223808 77.4693333,43.7328575 77.088,44.0433342 C76.7066667,44.3538109 76.208,44.6347183 75.6066667,44.8564874 C75.0053333,45.093041 74.272,45.2113179 73.436,45.2113179 C72.644,45.2113179 71.94,45.093041 71.324,44.871272 C70.708,44.6495029 70.1946667,44.309457 69.7693333,43.8807035 C69.344,43.45195 69.036,42.9344889 68.816,42.3135356 C68.6106667,41.7073668 68.4933333,41.0124904 68.4933333,40.2289064 C68.4933333,39.5192455 68.596,38.8539383 68.816,38.2477696 C69.036,37.6416008 69.344,37.1241397 69.7693333,36.6806016 C70.1946667,36.2370635 70.708,35.8970176 71.324,35.6456793 C71.94,35.3943411 72.644,35.2612796 73.436,35.2612796 C74.3306667,35.2612796 75.0786667,35.4091257 75.7093333,35.7048177 C76.34,36.0005098 76.8533333,36.3996941 77.2346667,36.8728014 C77.6306667,37.3459087 77.9093333,37.8929391 78.0853333,38.4843232 C78.2613333,39.0757074 78.3493333,39.6670915 78.3493333,40.2584757 L78.3493333,40.6428754 C78.3493333,40.7759368 78.3053333,40.8942136 78.2026667,40.9977058 C78.1,41.1011981 77.9826667,41.1455519 77.8506667,41.1455519 L71.72,41.1455519 L71.72,41.1603365 Z M73.436,37.7598776 C72.9226667,37.7598776 72.5413333,37.9077237 72.2626667,38.2182004 C71.9986667,38.528677 71.7786667,38.8687229 71.7346667,39.4009686 L75.0933333,39.4009686 C75.0493333,38.8687229 74.8733333,38.528677 74.5946667,38.2182004 C74.3306667,37.9077237 73.9493333,37.7598776 73.436,37.7598776 L73.436,37.7598776 Z" id="Shape" fill="#FFFFFF"></path>
        </g>
    </g>
</svg>