<svg viewBox="0 0 90 90" xmlns="http://www.w3.org/2000/svg"><g fill="none"><path d="m16.535 45.118-1.653-1.653c-5.315-5.315-6.85-12.756-4.96-19.489C4.605 22.796.708 18.071.708 12.402.709 5.906 6.024.59 12.519.59c5.906 0 10.749 4.252 11.694 9.92a19.431 19.431 0 0 1 18.307 5.2l.708.708-8.74 8.74-.708-.708a7.271 7.271 0 0 0-10.276 0 7.271 7.271 0 0 0 0 10.275L43.11 54.331l-8.74 8.74-9.213-9.213-8.622-8.74Z" fill="#7AC143"/><path d="m26.339 35.433 9.212-9.213 8.74-8.74 1.654-1.653c5.197-5.197 12.756-6.85 19.37-4.96C66.142 5.078 71.102.708 77.008.708c6.496 0 11.81 5.315 11.81 11.81 0 6.024-4.487 10.985-10.275 11.694 1.89 6.614.237 14.055-4.96 19.252l-.709.708-8.504-8.74.709-.709a7.271 7.271 0 0 0 0-10.275 7.271 7.271 0 0 0-10.276 0l-1.653 1.653-8.74 8.74-9.213 9.213-8.858-8.622Z" fill="#F9A541"/><path d="M65.67 79.488c-6.733 2.008-14.292.473-19.607-4.842l-.709-.709 8.74-8.74.71.709a7.271 7.271 0 0 0 10.275 0 7.271 7.271 0 0 0 0-10.276l-1.654-1.654-8.74-8.74-9.213-9.212 8.74-8.74 19.725 19.724c4.96 4.96 6.732 12.047 5.197 18.543 5.787.827 10.157 5.788 10.157 11.693 0 6.496-5.315 11.811-11.81 11.811-5.906-.118-10.749-4.252-11.812-9.567Z" fill="#F44321"/><path d="m62.244 54.921-9.213 9.213-8.74 8.74-1.653 1.654c-5.079 5.078-12.166 6.732-18.544 5.196-1.18 5.315-5.905 9.213-11.574 9.213-6.496 0-11.811-5.315-11.811-11.811 0-5.551 3.897-10.276 9.094-11.457-1.653-6.614 0-13.7 5.079-18.78l.709-.708 8.74 8.74-.709.709a7.271 7.271 0 0 0 0 10.276 7.271 7.271 0 0 0 10.276 0l1.653-1.654 8.74-8.74 9.213-9.213 8.74 8.622Z" fill="#5091CD"/></g></svg>