<svg viewBox="0 0 90 90" xmlns="http://www.w3.org/2000/svg" xmlns:xlink="http://www.w3.org/1999/xlink"><defs><linearGradient x1=".316%" y1="49.684%" x2="99.684%" y2="49.684%" id="b"><stop stop-color="#FF358A" offset="0%"/><stop stop-color="#FEA587" offset="100%"/></linearGradient><path id="a" d="M0 0h90v43H0z"/></defs><g fill="none" fill-rule="evenodd"><g transform="translate(0 24)"><mask id="c" fill="#fff"><use xlink:href="#a"/></mask><path d="M52.853 22.898c-.336 3.815-2.13 7.35-4.792 10.078-1.591 1.632-4.208 1.763-5.87.205a16.08 16.08 0 0 1-5.107-11.885c.03-4.291 1.712-8.312 4.735-11.32A15.945 15.945 0 0 1 45 7.534l.01.003c.5.295.986.617 1.458.968h.003c.598.444 1.17.932 1.712 1.471 3.395 3.378 5.101 8.041 4.67 12.922m33.34-2.677a13.086 13.086 0 0 0-9.336-3.985c-1.462-.02-2.405.161-3.218.37C71.463 6.966 63.073.07 53.133 0h-.16c-2.82 0-5.513.569-7.98 1.587A21.702 21.702 0 0 0 36.871 0c-9.94.071-18.336 6.966-20.508 16.606-.813-.209-1.794-.39-3.215-.37-3.536.024-6.851 1.439-9.336 3.985A13.392 13.392 0 0 0 0 29.715c.035 4.807 2.56 9.211 6.946 11.707C8.855 42.509 11.045 43 13.24 43h.103l14.187-.012h.159c1.497 0 2.708-1.227 2.708-2.74 0-1.513-1.211-2.737-2.708-2.737h-3.44v.021l-10.948.113c-2.192-.041-4.063-.783-5.566-2.239a8.026 8.026 0 0 1-2.293-4.232c-.949-5.077 2.88-9.55 7.745-9.586h.74c1.163 0 2.242.45 3.244 1.045a2.594 2.594 0 0 0 2.593.045 2.656 2.656 0 0 0 1.388-2.201c.48-8.419 7.4-15.063 15.758-15.125h.12c.622 0 1.238.05 1.848.119-4.3 3.889-7.046 9.509-7.09 15.786-.044 5.721 2.122 11.111 6.094 15.185.257.262.525.504.79.742l.003.003c.12.092 5.909 4.49 12.457.167l.015-.006c.327-.298.663-.584.972-.906 3.973-4.07 6.136-9.464 6.094-15.185-.035-5.72-2.28-11.078-6.312-15.095-.156-.155-.321-.298-.483-.444l-.003-.003a7.52 7.52 0 0 1-.28-.244l.02-.003a15.93 15.93 0 0 1 1.816-.116h.12c8.358.062 15.278 6.706 15.758 15.128.044.79.419 1.495 1.026 1.963.754.586 2.157.64 2.988.17 1.205-.68 2.62-1.088 3.955-1.025a7.849 7.849 0 0 1 5.599 2.391 8.038 8.038 0 0 1 2.287 5.697 8.008 8.008 0 0 1-2.367 5.661c-1.514 1.504-3.483 2.255-5.634 2.308l-14.228-.13c-1.468-.01-2.667 1.19-2.667 2.677 0 1.47 1.176 2.665 2.629 2.677L76.662 43h.1c2.192 0 4.382-.491 6.295-1.578 4.388-2.493 6.91-6.9 6.943-11.707a13.38 13.38 0 0 0-3.808-9.494" fill="url(#b)" fill-rule="nonzero" mask="url(#c)"/></g><path d="M44.984 31.553s2.815-1.894 6.148-2.106l1.04 1s-3.905.325-5.702 2.059l-1.486-.953Z" fill="#000" fill-rule="nonzero" opacity=".2"/><path fill="#606060" fill-rule="nonzero" d="M38.676 55.23h-.003"/></g></svg>