<svg xmlns="http://www.w3.org/2000/svg" viewBox="0 0 90 90"><path fill="#FFF" d="M0 0h90v90H0z"/><path d="M33.07 72.02c1.142 1.098.335 2.98-1.287 2.98h-10.15C19.63 75 18 73.433 18 71.508v-9.76c0-1.559 1.957-2.335 3.1-1.236L33.07 72.02Z" fill="#0A1551"/><path d="M48.936 72.78a7.502 7.502 0 0 1 0-10.72L59.78 51.374c3.005-2.96 7.876-2.96 10.88 0a7.502 7.502 0 0 1 0 10.72L59.818 72.78c-3.005 2.96-7.876 2.96-10.88 0Z" fill="#FFB629"/><path d="M20.29 45.934a7.502 7.502 0 0 1 0-10.72L38.54 17.22c3.004-2.96 7.876-2.96 10.88 0a7.502 7.502 0 0 1 0 10.72L31.172 45.935c-3.005 2.96-7.876 2.96-10.881 0Z" fill="#09F"/><path d="M35.208 58.758a7.502 7.502 0 0 1 0-10.721l24.658-24.294c3.004-2.96 7.876-2.96 10.88 0a7.502 7.502 0 0 1 0 10.72L46.09 58.758c-3.005 2.96-7.876 2.96-10.88 0Z" fill="#FF6100"/></svg>