<svg viewBox="0 0 90 90" xmlns="http://www.w3.org/2000/svg"><g fill="none"><path d="M54.153 20.702c.686-.455 1.601-.91 2.287-1.365 3.66-2.958 5.947-7.508 5.947-12.285 0-1.82-.457-3.64-1.143-5.46-.23-.455-.23-.682 0-1.137.228-.228.686-.455.915-.455.457 0 .686.227.915.682.914 2.048 1.372 4.095 1.372 6.37 0 5.46-2.516 10.692-6.862 14.105-.686.682-1.601 1.137-2.288 1.592l-1.143-2.047Z" fill="#000"/><path d="M65.818 30.711a7.07 7.07 0 0 1 1.144 5.687l-8.92 48.683c-.687 3.64-2.974 5.46-6.634 4.778l-35.454-6.37c-5.032-.91-5.49-4.095-4.575-8.417l8.692-47.773c.458-2.048 1.373-3.185 3.431-4.55l20.129-12.74c.915-.682 2.059-.91 3.202-1.137 2.288 0 3.203.683 5.261 3.412l13.724 18.427Zm-17.155.683h-8.692L33.11 67.11c-1.372 6.824-3.431 8.417-6.405 8.417-.914 0-1.6 0-2.516-.228l-1.143 6.597c1.6.455 3.202.455 4.574.455 3.431 0 6.862-1.137 9.15-3.64 2.287-2.502 3.66-6.37 4.803-12.284l7.091-35.033Zm-7.548-9.782c0 2.73 1.83 4.55 4.346 4.55 2.973 0 5.26-2.048 5.49-5.233 0-1.137-.458-2.502-1.373-3.185-.915-.91-2.059-1.365-3.431-1.365-1.372 0-2.745.455-3.66 1.593-.915 1.137-1.372 2.275-1.372 3.64Z" fill="#A4C33F"/><path d="M79.771 1.82c-.457-.228-1.143-.228-1.372.227 0 0-6.176 9.555-13.496 9.555-1.6 0-3.202 0-5.032-.227-2.287-.228-4.575-.455-7.09-.455-6.863 0-10.294 3.64-10.294 7.052 0 2.275 1.601 6.142 7.549 6.142.228-.683.457-1.365.457-2.275h-.686c-5.261 0-5.49-3.412-5.49-4.095 0-2.502 2.974-5.005 8.235-5.005 2.287 0 4.574 0 6.633.455 1.83.228 3.431.455 5.26.455 8.693 0 15.098-10.01 15.326-10.464C80 2.957 80 2.73 80 2.502c0-.455 0-.682-.229-.682Z" fill="#000"/></g></svg>