<svg viewBox="0 0 90 90" xmlns="http://www.w3.org/2000/svg"><g fill="none" fill-rule="evenodd"><path fill="#FFF" fill-rule="nonzero" d="M0 0h90v90H0z"/><path d="M84.956 53.187c-.542-5.992-5.683-10.69-11.706-10.69-.406 0-.88 0-1.285.068-1.217-7.218-7.916-12.392-15.155-11.78-3.587-4.494-9.54-6.673-15.155-5.448-5.23 1.12-9.494 4.92-11.231 10.01-4.25.135-7.984 2.45-10.15 5.855-7.304-1.62-14.61 3.746-15.22 11.237C4.375 59.588 10.25 66 17.5 66h56.426c.406 0 .812-.068 1.15-.204 6.087-1.021 10.419-6.604 9.877-12.596l.002-.013Z" fill="#A3EBE8"/><path d="M18 66c0-1.235 1.695-5.521 8.714-6.996a8 8 0 1 1 10.573.001c1.6.335 2.924.818 4.014 1.377 1.6-1.307 3.866-2.48 6.96-3.187a9.5 9.5 0 1 1 13.478 0C69.435 58.953 72 63.599 72 66H18Z" fill="#00A49D" fill-rule="nonzero"/></g></svg>