<svg viewBox="0 0 90 90" xmlns="http://www.w3.org/2000/svg"><g fill="none"><path fill="#052228" d="M0 0h90v90H0z"/><path d="M63.978 49A1.02 1.02 0 0 1 65 50.017v24.966a1.025 1.025 0 0 1-1.529.883L41.515 63.383a1.014 1.014 0 0 1 0-1.766l21.956-12.483c.154-.088.33-.134.507-.134Zm-1.022 2.769L44.083 62.5l18.873 10.73V51.77ZM32.478 31.5a1.02 1.02 0 0 1 1.022 1.017v24.966a1.025 1.025 0 0 1-1.529.883L10.015 45.883a1.014 1.014 0 0 1 0-1.766l21.956-12.483c.154-.088.33-.134.507-.134Zm6.522.223a1 1 0 0 1 .496.132l21.485 12.277a1 1 0 0 1 0 1.736L39.496 58.145A1 1 0 0 1 38 57.277V32.723a1 1 0 0 1 1-1Zm-7.544 2.546-18.873 10.73L31.456 55.73V34.27Zm8.544.177v21.107L58.468 45 40 34.446ZM63.978 14A1.02 1.02 0 0 1 65 15.017v24.966a1.025 1.025 0 0 1-1.529.883L41.515 28.383a1.014 1.014 0 0 1 0-1.766l21.956-12.483c.154-.088.33-.134.507-.134Zm-1.022 2.769-18.873 10.73L62.956 38.23V16.77Z" fill="#FFF"/></g></svg>