<svg viewBox="0 0 90 90" xmlns="http://www.w3.org/2000/svg"><defs><linearGradient x1="24.519%" y1="69.498%" x2="77.316%" y2="16.123%" id="a"><stop stop-color="#7E28B2" offset="0%"/><stop stop-color="#A7199F" offset="28%"/><stop stop-color="#CE0C8E" offset="60%"/><stop stop-color="#E70483" offset="85%"/><stop stop-color="#F00180" offset="100%"/></linearGradient><linearGradient x1="83.211%" y1="72.672%" x2="26.638%" y2="29.316%" id="b"><stop stop-color="#9F37F4" offset="0%"/><stop stop-color="#28A4D3" offset="60%"/><stop stop-color="#18D0CC" offset="100%"/></linearGradient></defs><g fill="none"><path d="M13.782 48.842Zm-.164-6.779Zm.835-3.285Zm-.492 1.631Zm-.452 6.741Zm-.086-3.402Zm-.039 1.701Zm2.185 8.316c-.14-.258-.25-.523-.375-.78.125.265.242.522.375.78Zm-1.358-3.245c-.101-.328-.18-.656-.265-.984.086.328.164.656.265.983Zm.593 1.646a11.96 11.96 0 0 1-.328-.882c.11.296.203.593.328.882Zm2.021-17.959ZM16.49 55.31c-.149-.219-.274-.445-.406-.671.132.226.257.452.405.67Z" fill="#00A099"/><path d="M31.4 31.11c.258.234.532.452.781.702l13.18 13.176L58.54 31.812c7.28-7.279 7.28-19.074 0-26.353s-19.079-7.279-26.359 0l-.078.078c-7.03 7.029-7.249 18.255-.702 25.573Z" fill="url(#a)" transform="translate(13)"/><path d="M17.574 56.776c-.133-.164-.25-.335-.374-.507.124.172.241.343.374.507Zm-2.481-19.573Zm.787-1.529Zm-1.927 13.862c-.054-.234-.117-.46-.171-.694.047.234.11.468.171.694Zm1.233 3.449c-.132-.273-.265-.539-.382-.82.117.274.25.547.382.82Zm2.006 3.284c-.242-.32-.492-.632-.71-.967.218.327.468.647.71.967Zm-2.716-4.985a12.62 12.62 0 0 1-.265-.765c.078.258.18.508.265.765Zm1.608 3.355c-.18-.29-.36-.578-.515-.874.156.296.343.585.515.874Zm.718-20.393s.023-.024.03-.04c-.007.016-.023.024-.03.04Zm-.968 1.514.047-.086-.047.085Zm-.804 1.583c.024-.047.047-.094.063-.14a1.105 1.105 0 0 0-.063.14ZM45.103 5.537 17.871 32.771l.046.047c.297-.343.586-.678.906-1.006l26.28-26.275ZM14.375 38.99Zm-.484 1.7Zm-.476 5.297c-.008-.18-.023-.359-.023-.538 0 .179.015.358.023.538Zm-.008-1.787c0-.148.008-.304.024-.452l-.024.452Zm.188 3.566c-.032-.211-.063-.414-.086-.625.023.211.062.414.086.625Zm-.032-5.336Z" fill="#00A099"/><path d="M58.54 58.165 45.36 44.988 32.182 31.812c-.25-.25-.515-.468-.78-.702-6.547-7.318-6.328-18.544.702-25.573L5.823 31.812c-.32.32-.617.663-.906 1.006-.39.453-.749.913-1.092 1.389-.008.015-.023.023-.031.039a18.4 18.4 0 0 0-.913 1.428l-.047.085a18 18 0 0 0-.804 1.584c-.21.476-.405.952-.577 1.443l-.07.21a22.754 22.754 0 0 0-.492 1.702c-.11.452-.195.912-.273 1.373-.016.124-.039.241-.055.366-.062.437-.109.874-.14 1.319l-.024.452c-.015.414-.023.827-.015 1.248 0 .18.015.36.023.539.024.39.047.78.094 1.162.023.21.055.414.086.624.054.359.109.718.187 1.077.047.234.11.468.172.694.086.328.164.655.265.983.078.257.172.507.265.765.11.296.211.592.328.881.117.273.25.546.382.82.125.265.242.522.375.78.156.296.343.584.515.873.133.226.257.453.406.671.218.328.468.648.71.967.125.164.242.344.374.508.39.475.804.936 1.249 1.388l26.358 26.353c7.28 7.279 19.079 7.279 26.359 0 7.28-7.279 7.28-19.074 0-26.353l.008-.023Z" fill="url(#b)" transform="translate(13)"/></g></svg>