<svg xmlns="http://www.w3.org/2000/svg" viewBox="0 0 90 90"><path fill="#FFF" d="M0 0h90v90H0z"/><path d="M28.643 43.005c1.136 1.136 1.136 2.992 0 4.266l-5.263 5.263c-1.135 1.135-2.992 1.135-4.265 0l-5.263-5.263c-1.136-1.136-1.136-2.992 0-4.266l5.263-5.263c1.135-1.135 2.992-1.135 4.265 0l5.263 5.263Z" fill="#E4186A"/><path d="M49.557 35.333c-1.135-1.135-1.135-2.992 0-4.265l5.263-5.263c1.136-1.136 2.992-1.136 4.266 0l11.8 11.8 5.262 5.262c1.136 1.136 1.136 2.992 0 4.266L58.932 64.349c-1.135 1.135-2.992 1.135-4.265 0l-5.263-5.263a2.926 2.926 0 0 1 0-4.128l7.672-7.672c1.135-1.135 1.135-3.13 0-4.265l-7.534-7.672.015-.016Z" fill="#42AD49"/><path d="M35.195 49.557a3.08 3.08 0 0 0-.86-.568v-7.825a3.08 3.08 0 0 0 .86-.568l5.263-5.263c1.136-1.135 1.136-2.992 0-4.265l-5.263-5.263c-1.135-1.136-2.992-1.136-4.265 0l-5.11 5.263c-1.136 1.135-1.136 2.992 0 4.265l5.263 5.263c.276.292.568.43.86.568v7.825a3.08 3.08 0 0 0-.86.568L25.82 54.82c-1.136 1.136-1.136 2.992 0 4.266l5.263 5.263c1.135 1.135 2.992 1.135 4.266 0l5.263-5.263c1.135-1.136 1.135-2.992 0-4.266l-5.401-5.263h-.016Z" fill="#F18830"/><path d="M47.133 61.357a3.08 3.08 0 0 0-.86-.568v-7.825a3.08 3.08 0 0 0 .86-.568l5.263-5.263c1.135-1.136 1.135-2.992 0-4.266l-5.263-5.263c-.292-.291-.568-.43-.86-.568v-7.825a3.08 3.08 0 0 0 .86-.568l5.263-5.263c1.135-1.135 1.135-2.992 0-4.265l-5.263-5.263c-1.136-1.136-2.992-1.136-4.266 0l-5.263 5.263c-1.135 1.135-1.135 2.992 0 4.265l5.263 5.263c.292.292.568.43.86.568v7.825a3.08 3.08 0 0 0-.86.568l-5.263 5.263c-1.135 1.136-1.135 2.992 0 4.266l5.263 5.263c.292.291.568.43.86.568v7.825a3.08 3.08 0 0 0-.86.568l-5.263 5.263c-1.135 1.135-1.135 2.992 0 4.265l5.263 5.263c1.136 1.136 2.992 1.136 4.266 0l5.263-5.263c1.135-1.135 1.135-2.992 0-4.265l-5.263-5.263Z" fill="#2666BC"/></svg>