<svg xmlns="http://www.w3.org/2000/svg" viewBox="0 0 90 90"><path fill="#FFEA3C" d="M0 0h90v90H0z"/><path d="M78.63 38.69a17.606 17.606 0 0 0-6.352-7.702 17.313 17.313 0 0 0-4.585-2.195A17.23 17.23 0 0 0 62.486 28c-2.322 0-4.552.453-6.59 1.279-.17.067-.328.135-.486.214a17.601 17.601 0 0 0-4.947 3.28c-.465.442-.906.906-1.348 1.426-.78.894-1.584 1.923-2.366 2.964-.158.214-.328.44-.487.656-.43.588-4.54 6.606-5.264 7.68-.363.543-.793 1.154-1.258 1.821a85.53 85.53 0 0 1-2.75 3.734c-.396.508-.793.983-1.132 1.38-.35.406-.668.734-.895.95a10.93 10.93 0 0 1-3.373 2.172 10.81 10.81 0 0 1-4.076.792c-.996 0-1.958-.136-2.864-.385a9.697 9.697 0 0 1-1.359-.475 10.816 10.816 0 0 1-4.778-3.926 10.797 10.797 0 0 1-1.37-2.839 10.9 10.9 0 0 1 .363-7.443 10.975 10.975 0 0 1 3.94-4.774 10.753 10.753 0 0 1 2.842-1.357 10.8 10.8 0 0 1 3.226-.497c1.45.01 2.82.282 4.076.79 1.256.52 2.4 1.257 3.373 2.172.227.216.544.555.895.951a54.875 54.875 0 0 1 2.06 2.59c.284.385.567.77.85 1.165 1.086-1.583 2.988-4.366 3.984-5.803l-.509-.678a35.337 35.337 0 0 0-1.358-1.64c-.454-.52-.884-.985-1.348-1.426a17.655 17.655 0 0 0-5.434-3.495A17.52 17.52 0 0 0 27.513 28a17.496 17.496 0 0 0-14.525 7.715 17.853 17.853 0 0 0-2.207 4.581A17.601 17.601 0 0 0 10 45.501c0 2.41.486 4.717 1.37 6.809a17.602 17.602 0 0 0 6.34 7.704 17.953 17.953 0 0 0 4.596 2.205c1.642.51 3.397.781 5.208.781 2.32 0 4.552-.453 6.59-1.278a17.823 17.823 0 0 0 5.422-3.484l.011-.011c.465-.43.895-.906 1.348-1.427.78-.893 1.584-1.922 2.366-2.962.158-.216.328-.431.486-.646.43-.6 6.058-8.846 6.521-9.513l.328-.464a94.31 94.31 0 0 1 2.424-3.269c.396-.509.793-.984 1.132-1.38.35-.407.668-.735.895-.95a11.132 11.132 0 0 1 3.373-2.172c.306-.124.611-.225.928-.328a11.506 11.506 0 0 1 3.148-.463c1.506.01 2.932.305 4.222.86a10.803 10.803 0 0 1 4.778 3.924 10.768 10.768 0 0 1 1.857 6.064c0 1.504-.306 2.93-.85 4.218a10.906 10.906 0 0 1-3.94 4.774 10.389 10.389 0 0 1-2.84 1.357 10.81 10.81 0 0 1-7.303-.294 10.93 10.93 0 0 1-3.374-2.171 16.766 16.766 0 0 1-.894-.95c-.611-.702-1.337-1.63-2.06-2.59-.295-.385-.578-.782-.861-1.177-.09.136-.181.272-.283.419-1.868 2.737-3.046 4.468-3.69 5.406.169.226.339.442.508.668a35.29 35.29 0 0 0 1.359 1.64c.442.52.883.996 1.347 1.426a17.7 17.7 0 0 0 5.434 3.495A17.539 17.539 0 0 0 62.486 63c2.411 0 4.72-.486 6.815-1.369a17.562 17.562 0 0 0 7.71-6.346A17.308 17.308 0 0 0 80 45.501c0-2.41-.486-4.717-1.37-6.81Z" fill="#2578BC"/></svg>