<svg xmlns="http://www.w3.org/2000/svg" viewBox="0 0 90 90"><defs><linearGradient id="A" x1="-.132%" x2="-.132%" y1="-.107%" y2="99.96%"><stop offset="0%" stop-color="#f48020"/><stop offset="100%" stop-color="#f9a61a"/></linearGradient><linearGradient id="B" x1=".065%" x2=".065%" y1="-.107%" y2="99.96%"><stop offset="0%" stop-color="#f48020"/><stop offset="100%" stop-color="#f9a61a"/></linearGradient></defs><g fill="none" fill-rule="evenodd"><path fill="#fff" opacity="0" d="M0 0h90v90H0z"/><g fill-rule="nonzero" transform="translate(0 13)"><path fill="url(#A)" d="M36.61 26.001l-.596-.825C32.047 19.792 19.113 3.274 8.029.254c-.243-.057-.487-.105-.73-.146-1.521-.223-3.071.116-4.357.954S.72 3.179.315 4.657c-.443 1.881-.419 3.842.073 5.712 1.338 5.809 6.084 12.564 13.238 16.324l3.224 1.625a17.76 17.76 0 0 0-1.922.558c-.718.249-1.41.566-2.068.946a3.87 3.87 0 0 0-1.684 2.005c-.312.843-.317 1.768-.019 2.615.075.243.181.476.316.691 1.217 2.074 4.259 3.723 7.897 4.269 6.327.934 14.443-1.492 17.947-11l.304-1.079-1.01-1.322z"/><path fill="url(#B)" d="M53.39 25.959l.596-.825C57.952 19.75 70.886 3.232 81.971.212c.243-.057.487-.105.73-.146 1.521-.223 3.071.116 4.357.954s2.222 2.116 2.627 3.594a11.8 11.8 0 0 1-.073 5.712c-1.338 5.809-6.084 12.564-13.238 16.324l-3.225 1.625c.651.15 1.294.336 1.923.558.718.249 1.41.566 2.068.946a3.87 3.87 0 0 1 1.684 2.005c.312.843.318 1.768.019 2.615a2.94 2.94 0 0 1-.316.691c-1.217 2.074-4.259 3.723-7.897 4.269-6.327.934-14.443-1.491-17.947-10.999l-.304-1.079 1.01-1.322z"/><g fill="#f79c39"><path d="M53.365 13.606a3.85 3.85 0 0 1-.709 2.228 3.87 3.87 0 0 1-1.87 1.41l-5.536 1.94a1.05 1.05 0 0 1-.669 0l-5.536-1.94c-.859-.302-1.584-.897-2.045-1.68a3.84 3.84 0 0 1 .844-4.889c.697-.584 1.579-.904 2.491-.902h9.174c1.023 0 2.004.405 2.728 1.126a3.84 3.84 0 0 1 1.129 2.718m-6.62-9.738L44.921 1.66l-1.838 2.219-2.981-2.219v5.833h9.625V1.66zm11.144 41.89H31.864c0 .182 0 .364.061.546a28.29 28.29 0 0 0 1.217 5.845H56.54a33.45 33.45 0 0 0 1.35-6.391zm-23.409 9.579a17.29 17.29 0 0 0 6.436 7.009c.961.57 2.981 1.892 4.21 1.601 2.242-.557 4.324-1.625 6.082-3.119s3.145-3.374 4.053-5.492H34.481zM58.122 42.58c0-2.328-.475-4.705-2.714-5.918-2.665-1.443-6.205-1.116-9.137-1.104-4.003 0-11.924-1.273-13.98 3.383a9.08 9.08 0 0 0-.645 3.638h26.476z"/><path d="M53.693 27.274c0 1.735-.517 3.431-1.486 4.872s-2.345 2.564-3.954 3.224-3.38.83-5.086.486a8.8 8.8 0 0 1-4.497-2.417 8.75 8.75 0 0 1-2.387-4.502 8.73 8.73 0 0 1 .53-5.065 8.76 8.76 0 0 1 3.268-3.914c1.454-.953 3.16-1.455 4.9-1.44a8.79 8.79 0 0 1 3.359.667c1.066.44 2.033 1.085 2.848 1.899s1.46 1.779 1.9 2.841a8.72 8.72 0 0 1 .665 3.35"/></g><path fill="#f99f39" d="M44.605 15.402c.101.038.208.058.316.061-.108-.003-.215-.023-.316-.061z"/></g></g></svg>