<svg viewBox="0 0 90 90" xmlns="http://www.w3.org/2000/svg"><g fill="none" fill-rule="evenodd"><path fill="#00ADFF" d="M0 0h90v90H0z"/><path d="M20.408 18.085c.857-.895 2.044-.832 5.574-.15 22.94 4.425 40.271-2.975 46.095-7.657C74.4 8.41 75.83 7.82 76.366 8.045c.959.405 1.033 1.617-1.215 5.392-3.146 5.278-11.685 11.972-17.616 14.316-.374.146-.626.347-.466.559.537.703 3.43 2.229 5.575 2.749 1.615.39 1.393.856.785 1.301-7.878 5.789-17.294 6.58-29.835-.038-12.147-6.409-14.744-12.615-13.186-14.24" fill="#FFF" fill-rule="nonzero"/><path stroke="#FFF" stroke-width="9" stroke-linecap="round" d="M25 72.5h40"/><path stroke="#FFF" stroke-width="9" d="M45 72.5v-11"/><path stroke="#FFF" stroke-width="9" stroke-linecap="round" d="M25.201 44.701 45 64.5l19.799-19.799"/></g></svg>