<svg xmlns="http://www.w3.org/2000/svg" viewBox="0 0 90 90"><path fill="#FFF" d="M0 0h90v90H0z"/><path fill="#127ABF" d="M30.08 44.61c1.68-.52 7.24 1.53 14.35 4.9 3.8 1.81 10.4 6.03 15.68 9.49-4.36 3.17-9.28 6.5-12.44 7.95-4.4 2.01-6.6 3.3-13.67.16a70.07 70.07 0 01-11.04-6.39c2.04-5.58 5.92-15.75 7.12-16.11zm-1.04-21.09c1-.76 2.02-1.8 7.12-1.45A198.76 198.76 0 0030.2 32.7l-.46.88c-.6 1.19-1.2 2.38-1.74 3.56-2.36 4.98-7.12 15.59-9.32 20.5-.28-.21-.52-.41-.76-.61-5.44-4.3-8.96-7.12-10.96-9.49-2.48-2.93-3.36-5.86 1.96-10.48 5.6-4.9 17.12-11.86 19.92-13.39l.07-.05zm44.4 7.23c2.43.72 4.35 1.28 5.11 1.52 1.44.49 3.16 1 5.04 2.01 1.24.65 1.76 1.45 1.16 2.45-2.44 4.14-13.72 13.59-18.16 17.24-.4.37-.84.69-1.32 1.09A171.27 171.27 0 0036 41.84l-.2-.07-.16-.05.05-.03c.58-.28 5.8-2.8 11.28-4.95l.67-.26.67-.26a58.2 58.2 0 016.64-2.14 181.91 181.91 0 0118.48-3.33zM41 22.63c5.95.92 13.07 2.61 18.03 3.98 1.56.44 3.64 1 5.84 1.64a69.85 69.85 0 00-15.04 3.46 111.57 111.57 0 00-16.74 7.5l-.06.03-.03.03s2.04-3.49 4.08-7.33l.28-.54.28-.54.56-1.08a31.22 31.22 0 002.8-7.15z"/></svg>