<svg viewBox="0 0 90 90" xmlns="http://www.w3.org/2000/svg"><g fill="none" fill-rule="evenodd"><path d="m10.405 22.25 10.541 5.942c-1.19 3.057-1.87 6.453-1.87 9.849 0 14.263 11.56 25.98 25.842 25.98 6.97.17 13.6-2.717 18.36-7.642 1.02-1.018 1.87-2.037 2.72-3.056l10.372 5.773c-1.36 2.038-3.06 3.906-4.76 5.604-5.611 5.773-12.922 9.508-20.912 10.697L53.928 90 25.196 70.473c-.85-.51-1.7-1.189-2.55-1.698-1.53-1.189-3.06-2.547-4.59-3.906-7.14-6.961-11.22-16.64-11.05-26.658.17-5.774 1.36-11.037 3.4-15.962Zm24.312 32.77c-3.06-3.055-3.23-8.15-.17-11.206 3.06-3.056 8.16-3.226 11.22-.17 3.06 3.057 3.23 8.15.17 11.207-1.53 1.528-3.57 2.377-5.61 2.377-2.21.17-4.25-.679-5.61-2.207Z" fill="#DA2F85"/><path d="m24.176 22.589-10.54-5.943a36.66 36.66 0 0 1 4.59-5.604C25.196 3.741 34.886-.164 45.088.005 65.998.005 82.83 16.985 83 37.871c0 5.264-1.02 10.697-3.23 15.452L69.4 47.55c1.19-3.057 1.87-6.453 1.87-9.679 0-14.263-11.561-25.98-25.842-25.98-8.501 0-16.321 3.906-21.252 10.698Zm22.272-1.868c3.06-3.056 8.16-3.056 11.22 0 1.53 1.528 2.38 3.396 2.38 5.604 0 2.037-.85 4.075-2.38 5.603a7.805 7.805 0 0 1-11.05 0c-1.53-1.358-2.38-3.396-2.38-5.603-.17-2.208.68-4.246 2.21-5.604Z" fill="#676768"/></g></svg>