<svg viewBox="0 0 90 90" xmlns="http://www.w3.org/2000/svg"><g fill="none"><path fill="#FFF" d="M0 0h90v90H0z"/><path d="M8.64 73.09c.848.036 1.705.154 2.504.448v-.008l.121.043L21.8 63.262l.387.517a26.879 26.879 0 0 0 1.74 2.1l.225.26c.16.162.289.323.45.485l.261.258.255.26.226.224.256.26.227.225.289.26.261.227a27.936 27.936 0 0 0 17.458 6.692 28.165 28.165 0 0 0 15.043-3.913l.805.84c.936 1.003 1.901 2.005 2.837 3.007a33.053 33.053 0 0 1-18.813 5.27 33.05 33.05 0 0 1-20.489-7.759l.033-.065-6.76 6.687a8.472 8.472 0 0 1-3.217 9.364 8.401 8.401 0 0 1-9.87-.127A8.473 8.473 0 0 1 .427 78.89a8.428 8.428 0 0 1 8-5.801h.218l-.004.002Zm64.412-43.614a33.345 33.345 0 0 1 4.8 18.171 33.19 33.19 0 0 1-8.278 21.143l.032.033 4.156 4.43a5.219 5.219 0 0 1 4.51 1.582 5.264 5.264 0 0 1-.194 7.404 5.219 5.219 0 0 1-7.375-.195 5.226 5.226 0 0 1-1.323-4.589 1613.055 1613.055 0 0 0-7.31-7.792l-.421-.452.483-.388c1.26-1 2.425-2.115 3.48-3.33a28.04 28.04 0 0 0 7.055-17.975 28.113 28.113 0 0 0-3.48-14.354l3.865-3.688Zm-58.7-19.76a5.31 5.31 0 0 1 3.903 1.624 5.23 5.23 0 0 1 1.32 4.591l7.991 8.406-.485.388a26.13 26.13 0 0 0-3.479 3.33c-7.906 8.933-9.35 21.894-3.606 32.36l-3.836 3.75a33.084 33.084 0 0 1-4.83-18.264c.166-7.784 3.188-15.303 8.263-21.158l-4.399-4.607a5.223 5.223 0 0 1-4.51-1.587 5.264 5.264 0 0 1 .196-7.403 5.278 5.278 0 0 1 2.974-1.398c.166-.017.333-.021.5-.035l-.002.003ZM81.576 3c3.33 0 6.348 1.97 7.7 5.025a8.48 8.48 0 0 1-1.451 9.101 8.406 8.406 0 0 1-8.877 2.364v.01l-.13-.045L67.38 30.35l-.387-.517a26.836 26.836 0 0 0-1.997-2.358l-.13-.164-.353-.355-.644-.647-.226-.194-.224-.192-.29-.26-.226-.194-.292-.258a27.923 27.923 0 0 0-17.33-6.595c-5.316-.131-10.502 1.196-15.01 3.912l-3.674-3.85a33.05 33.05 0 0 1 18.813-5.27A32.898 32.898 0 0 1 65.9 21.2h.065l7.57-7.216a8.48 8.48 0 0 1 1.252-7.536A8.416 8.416 0 0 1 81.58 3h-.004Z" fill="#2E3234"/><path d="M44.852 21.876a25.84 25.84 0 0 1 2.848.188c13.594 1.714 23.225 14.16 21.55 27.804-1.708 13.645-14.11 23.31-27.705 21.629-13.594-1.714-23.227-14.163-21.552-27.804 1.623-12.656 12.218-21.773 24.86-21.817Zm-.372 10.685c-5.504.443-9.485 4.62-9.626 10.172.087 3.855 1.744 6.578 4.886 8.709l.757.412-1.915 9.037H51.42l-1.912-9.039c3.524-1.82 5.54-5.163 5.64-9.12-.073-5.728-4.49-10.042-10.146-10.184l-.522.013Z" fill="#047AED"/></g></svg>