<svg viewBox="0 0 90 90" xmlns="http://www.w3.org/2000/svg"><g fill="none"><path fill="#FFF" d="M0 0h90v90H0z"/><g fill="#000"><path d="M66 12h-5.622A41.528 41.528 0 0 1 46.82 42.768 41.172 41.172 0 0 1 19 53.565v5.645a46.767 46.767 0 0 0 31.602-12.265 47.166 47.166 0 0 0 15.155-30.121c.16-1.59.243-3.214.243-4.824Zm-11.345 0h-5.6a30.15 30.15 0 0 1-9.847 22.348A29.908 29.908 0 0 1 19 42.192v5.623a35.476 35.476 0 0 0 23.973-9.304A35.783 35.783 0 0 0 54.47 15.66c.122-1.208.185-2.439.185-3.66ZM43.31 12h-5.557c0 .645-.032 1.293-.097 1.93C36.682 23.57 28.66 30.84 19 30.84v5.58c6.06 0 11.863-2.253 16.346-6.344a24.393 24.393 0 0 0 7.838-15.581c.084-.824.126-1.662.126-2.494Z"/><path d="M66 78h-5.622A41.528 41.528 0 0 0 46.82 47.232 41.172 41.172 0 0 0 19 36.435V30.79a46.767 46.767 0 0 1 31.602 12.265 47.166 47.166 0 0 1 15.155 30.121c.16 1.59.243 3.214.243 4.824Zm-11.345 0h-5.6a30.15 30.15 0 0 0-9.847-22.348A29.908 29.908 0 0 0 19 47.808v-5.623a35.476 35.476 0 0 1 23.973 9.304A35.783 35.783 0 0 1 54.47 74.34c.122 1.208.185 2.439.185 3.66ZM43.31 78h-5.557c0-.645-.032-1.293-.097-1.93C36.682 66.43 28.66 59.16 19 59.193v-5.662c6.06.049 11.863 2.302 16.346 6.393a24.393 24.393 0 0 1 7.838 15.581c.084.824.126 1.662.126 2.494Z"/></g><path d="M66 12h-5.622A41.528 41.528 0 0 1 46.82 42.768 41.172 41.172 0 0 1 19 53.565v5.645a46.767 46.767 0 0 0 31.602-12.265 47.166 47.166 0 0 0 15.155-30.121c.16-1.59.243-3.214.243-4.824Zm-11.345 0h-5.6a30.15 30.15 0 0 1-9.847 22.348A29.908 29.908 0 0 1 19 42.192v5.623a35.476 35.476 0 0 0 23.973-9.304A35.783 35.783 0 0 0 54.47 15.66c.122-1.208.185-2.439.185-3.66ZM43.31 12h-5.557c0 .645-.032 1.293-.097 1.93C36.682 23.57 28.66 30.84 19 30.84v5.58c6.06 0 11.863-2.253 16.346-6.344a24.393 24.393 0 0 0 7.838-15.581c.084-.824.126-1.662.126-2.494Z" fill="#000"/><path d="M66 78h-5.622A41.528 41.528 0 0 0 46.82 47.232 41.172 41.172 0 0 0 19 36.435V30.79a46.767 46.767 0 0 1 31.602 12.265 47.166 47.166 0 0 1 15.155 30.121c.16 1.59.243 3.214.243 4.824Zm-11.345 0h-5.6a30.15 30.15 0 0 0-9.847-22.348A29.908 29.908 0 0 0 19 47.808v-5.623a35.476 35.476 0 0 1 23.973 9.304A35.783 35.783 0 0 1 54.47 74.34c.122 1.208.185 2.439.185 3.66ZM43.31 78h-5.557c0-.645-.032-1.293-.097-1.93C36.682 66.43 28.66 59.16 19 59.193v-5.662c6.06.049 11.863 2.302 16.346 6.393a24.393 24.393 0 0 1 7.838 15.581c.084.824.126 1.662.126 2.494Z" fill="#52A3FF"/></g></svg>