<svg viewBox="0 0 90 90" xmlns="http://www.w3.org/2000/svg"><g fill="none"><path fill="#00507E" d="M0 0h90v90H0z"/><path d="M78.162 26.667a8.403 8.403 0 0 0-5.77-3.322 10.715 10.715 0 0 0-5.583.81 17.02 17.02 0 0 0-4.769 3.278 49.832 49.832 0 0 0-4.151 4.747l-2.147 2.949-1.387 2.137c-.385.57-1.387 2.423-1.575 2.806l-1.19 2.61a13.59 13.59 0 0 1-1.86-.668 10.067 10.067 0 0 1-2.05-1.042 24.09 24.09 0 0 0 3.15-4.32 30.439 30.439 0 0 0 2.389-5.745 35.458 35.458 0 0 0 1.476-9.121 14.887 14.887 0 0 0-1.047-5.888 10.461 10.461 0 0 0-2.621-3.99c-3.418-2.815-8.446-2.476-11.452.757a9.801 9.801 0 0 0-3.006 7.651h2.907a7.476 7.476 0 0 1 .904-3.66 6.625 6.625 0 0 1 4.393-3.323 5.236 5.236 0 0 1 4.769 1.327 11.627 11.627 0 0 1 2.147 10.217 27.725 27.725 0 0 1-2.863 9.503 21.223 21.223 0 0 1-3.579 4.988 19.593 19.593 0 0 1-2.621-2.948 23.69 23.69 0 0 1-3.579-7.313 25.428 25.428 0 0 1-.814-5.745h-3.105a25.446 25.446 0 0 0 4.769 14.252 23.773 23.773 0 0 0 2.908 3.375 23.234 23.234 0 0 1-3.677 1.613c-.331-.757-1.763-3.323-2.434-4.374a59.452 59.452 0 0 0-3.579-4.747c-1.1-1.283-3.194-3.608-4.393-4.748a24.797 24.797 0 0 0-3.337-2.52 14.462 14.462 0 0 0-3.104-1.38c-4.724-1.738-9.967.658-11.711 5.352a9.227 9.227 0 0 0-.555 3.714 9.222 9.222 0 0 0 1.762 4.748 19.03 19.03 0 0 0 7.632 5.887 23.98 23.98 0 0 0 7.202 2.138 32.33 32.33 0 0 0 5.87 0 30.723 30.723 0 0 0 4.768-.668 22.523 22.523 0 0 1 1.574 6.6 27.19 27.19 0 0 0-8.776 3.038 41.513 41.513 0 0 0-6.916 5.37 19.362 19.362 0 0 0-4.34 5.843 12.844 12.844 0 0 0-.858 4.418 9.116 9.116 0 0 0 4.768 7.883 9.574 9.574 0 0 0 10.12-1.425 19.033 19.033 0 0 0 6.54-8.506 33.849 33.849 0 0 0 2.146-8.221c.233-1.951.35-3.92.331-5.888a42.908 42.908 0 0 1 7.256 0 43.4 43.4 0 0 0 .573 6.084 32.792 32.792 0 0 0 2.433 7.695 20.4 20.4 0 0 0 5.726 7.41 11.625 11.625 0 0 0 6.97 3.038 8.516 8.516 0 0 0 5.77-1.897 9.458 9.458 0 0 0 3.15-5.986 10.837 10.837 0 0 0-1.763-6.983 24.522 24.522 0 0 0-5.153-5.415 32.641 32.641 0 0 0-5.726-3.848 29.794 29.794 0 0 0-8.92-2.663 26.454 26.454 0 0 1 1.244-6.556c1.44.232 2.89.392 4.339.472 2.684.08 5.368-.205 7.971-.855a23.693 23.693 0 0 0 6.397-2.52 19.469 19.469 0 0 0 4.769-3.75 11.203 11.203 0 0 0 2.818-4.748 9.12 9.12 0 0 0-1.673-8.025m-46.952 17.44a22.316 22.316 0 0 1-11.694-2.52 14.313 14.313 0 0 1-5.77-5.087 5.838 5.838 0 0 1-.618-4.133 6.855 6.855 0 0 1 2.29-3.705 7.419 7.419 0 0 1 8.16 0 31.069 31.069 0 0 1 7.73 7.081 40.023 40.023 0 0 1 4.769 7.651 26.083 26.083 0 0 1-5.055.57m7.443 18.242a25.61 25.61 0 0 1-2.621 7.98 13.655 13.655 0 0 1-7.444 6.797c-2.898 1.042-6.101-.454-7.148-3.34a5.545 5.545 0 0 1-.25-.936 9.91 9.91 0 0 1 3.578-8.835 31.387 31.387 0 0 1 6.97-5.371 22.237 22.237 0 0 1 7.542-2.664 36.25 36.25 0 0 1-.475 6.458m10.728-9.922a66.578 66.578 0 0 0-7.543 0 31.413 31.413 0 0 0-1.619-7.126 18.942 18.942 0 0 0 5.198-2.467 18.753 18.753 0 0 0 5.252 2.467 34.5 34.5 0 0 0-1.288 6.939m11.353 6.03a36.255 36.255 0 0 1 7.113 5.602 10.625 10.625 0 0 1 3.006 5.229 6.908 6.908 0 0 1-1.1 5.228 5.344 5.344 0 0 1-4.77 2.236 10.292 10.292 0 0 1-6.682-3.519 18.948 18.948 0 0 1-4.295-7.312 30.878 30.878 0 0 1-1.762-10.074 26.683 26.683 0 0 1 8.49 2.806m10.978-18.25a23.508 23.508 0 0 1-10.638 3.464 25.969 25.969 0 0 1-6.54-.285 39.82 39.82 0 0 1 4.25-7.598l3.766-4.747a18.91 18.91 0 0 1 3.337-3.038 8.961 8.961 0 0 1 6.013-1.71c1.69.09 3.238.944 4.196 2.325a7.162 7.162 0 0 1 1.333 3.322 9.923 9.923 0 0 1-5.628 8.222" fill="#FFF"/></g></svg>