<svg xmlns="http://www.w3.org/2000/svg" viewBox="0 0 90 90"><rect width="90" height="90" fill="#5333ED"/><path fill="#FFF" d="M12.8424523,8.45864317e-06 L2.42636561,8.45864317e-06 C1.78344285,-0.00169648013 1.16626967,0.254398693 0.711052881,0.711783691 C0.255836093,1.16916869 0,1.79024322 0,2.43793946 L0,57.5169283 C0,58.8679649 1.08528597,59.9641944 2.42636561,59.9677498 L12.8232462,59.9677498 C13.4667591,59.9660415 14.0832414,59.7068705 14.5370731,59.2472518 C14.9909048,58.7876331 15.2449099,58.1652167 15.2432183,57.5169283 L15.2432183,2.43793946 C15.2432183,1.09402675 14.1636564,0.00357232662 12.8296482,8.45864317e-06 L12.8424523,8.45864317e-06 Z M55.4158857,4.15351452 C56.0310842,3.42898128 56.1733453,2.41077365 55.7805758,1.54331196 C55.3878064,0.67585028 54.5313036,0.116600055 53.584908,0.109659017 L41.9076234,0.109659017 C41.2018062,0.110537225 40.5321328,0.424269902 40.0766456,0.967446548 L16.6132421,28.4488952 C15.8039082,29.3692058 15.8039082,30.7533498 16.6132421,31.6736603 L40.0766456,59.1486595 C40.5333434,59.6894331 41.2028427,60.0007258 41.9076234,59.9999987 L53.5721039,59.9999987 C54.5210197,59.9951861 55.3805545,59.4349674 55.7738451,58.5649694 C56.1671358,57.6949714 56.0223939,56.6739969 55.4030817,55.9496924 L34.5645063,31.6672108 C33.7608616,30.7447342 33.7608616,29.3649223 34.5645063,28.4424457 L55.4158857,4.15351452 Z" transform="translate(17.15 15.16)"/></svg>