<svg viewBox="0 0 90 90" xmlns="http://www.w3.org/2000/svg"><path d="m42.552 1.065-2.16.129v87.612l2.16.13a46.748 46.748 0 0 0 4.876 0l2.16-.13V1.194l-2.16-.13a46.105 46.105 0 0 0-4.876 0Zm21.644 44.407a1.796 1.796 0 0 1 0-1.334l11.635-30.43-1.155-1.054a45.233 45.233 0 0 0-4-3.29L68.26 7.601 55.576 40.805a11.208 11.208 0 0 0-.021 7.957l12.661 33.634 2.439-1.763a45.248 45.248 0 0 0 4-3.29l1.133-1.054-11.592-30.817ZM16.35 40.14 5.315 26.01l-1.411 3.893a44.684 44.684 0 0 0-1.669 5.85L2 36.805l6.202 7.914a.716.716 0 0 1 0 .904l-6.16 7.741.236 1.076a43.832 43.832 0 0 0 1.69 5.785l1.411 3.828 10.95-13.785c2.396-3.011 2.396-7.076.022-10.13ZM88 36.697l-6.181 7.785a.746.746 0 0 0-.021.904l6.18 7.892-.235 1.054a45.44 45.44 0 0 1-1.69 5.828l-1.41 3.87-10.994-14.064c-2.374-3.054-2.374-7.14.043-10.172l10.993-13.828 1.411 3.85a44.043 44.043 0 0 1 1.669 5.806L88 36.697ZM19.324 9.364l2.438-1.763 12.705 33.763a11.21 11.21 0 0 1-.022 7.957l-12.64 33.097-2.417-1.764a45.24 45.24 0 0 1-4-3.29l-1.154-1.054 11.592-30.322c.171-.43.171-.904 0-1.334L14.19 13.73l1.133-1.076a45.265 45.265 0 0 1 4-3.29Z" fill="#61D7AC" fill-rule="evenodd"/></svg>