<svg viewBox="0 0 90 90" xmlns="http://www.w3.org/2000/svg"><g fill="none" fill-rule="evenodd"><path fill="#FFF" fill-rule="nonzero" d="M0 0h90v90H0z"/><path fill="#FFBA40" d="m31.845 12.738-2.666 6.353 16.3-8.56-2.256 7.222 18.35-9.584-2.665 9.082L79 5l-9.66 17.516-51.788-.334z"/><path d="M65.06 48.446v-7.16c.704.252 6.77 2.639 6.28 9.297-.217 3.013-1.611 4.607-3.137 5.426 0 0-.071-.073-.192-.215a11.839 11.839 0 0 1-.806 5.765l-.05-.026-.02-.02a5.35 5.35 0 0 1-.326-.37c-.22-.269-.424-.55-.615-.84a7.508 7.508 0 0 1-.514-.911 2.24 2.24 0 0 1-.269-1.008 2.457 2.457 0 0 0-.131 1.104c.027.375.077.748.151 1.117.072.368.164.735.277 1.104.064.184.127.369.205.56.042.104.09.206.144.304.036.065.077.127.12.187l.052.06.027.028 2.46 2.792s-.845 2.55-3.077 3.235l.061-.039c-.195-.18-.398-.383-.59-.59a15.006 15.006 0 0 1-.562-.635 7.8 7.8 0 0 1-.509-.678 2.596 2.596 0 0 1-.373-.764c-.053.297-.058.6-.014.9.036.301.089.6.158.896.05.223.11.445.17.667l.057.214c.078.293.173.574.283.877l.615 1.346-5.263 3.292a15.892 15.892 0 0 1-.588-.592 11.768 11.768 0 0 1-.562-.635 7.355 7.355 0 0 1-.508-.676 2.6 2.6 0 0 1-.375-.764 2.81 2.81 0 0 0-.013.9c.035.3.088.6.156.895.06.266.131.526.203.79l.025.09c.08.295.172.576.285.88l.592 1.147-4.242 1.282a12.406 12.406 0 0 1-.59-.592c-.193-.207-.38-.418-.562-.635a7.764 7.764 0 0 1-.508-.678 2.596 2.596 0 0 1-.374-.764c-.053.297-.057.6-.012.9.035.301.086.6.156.896.05.223.11.445.17.666l.057.215c.078.293.173.574.283.88l.394 1.825-3.485 1.452a16.153 16.153 0 0 1-.589-.592 13.761 13.761 0 0 1-.564-.635 7.775 7.775 0 0 1-.506-.676 2.605 2.605 0 0 1-.375-.764c-.053.297-.057.6-.012.9.035.3.087.6.155.894.048.216.105.427.163.64l.065.241c.078.295.172.576.283.88l.45.63S47.093 85 43.403 85c-3.69 0-5.843-1.639-5.843-1.639l.45-.63a15.122 15.122 0 0 0 .511-1.76c.069-.296.12-.595.156-.896a2.83 2.83 0 0 0-.012-.9 2.648 2.648 0 0 1-.374.765c-.157.234-.326.46-.508.676-.182.225-.373.43-.564.635l-.024.025a7.685 7.685 0 0 1-.564.567l-3.486-1.452.386-1.826c.11-.305.197-.588.283-.879.086-.29.162-.586.23-.88a8.57 8.57 0 0 0 .16-.898 2.775 2.775 0 0 0-.015-.9 2.596 2.596 0 0 1-.373.765 7.405 7.405 0 0 1-.509.678c-.18.225-.369.432-.561.635-.03.03-.059.062-.088.093-.164.173-.329.348-.503.5l-4.242-1.283.595-1.148a15.044 15.044 0 0 0 .51-1.759c.069-.296.12-.594.156-.896.044-.298.04-.602-.012-.899a2.648 2.648 0 0 1-.373.764 8.18 8.18 0 0 1-.509.676c-.182.226-.373.43-.564.635-.19.205-.395.414-.588.592l-5.234-3.046.592-1.592c.11-.303.201-.586.285-.877.084-.29.16-.586.228-.88.068-.297.12-.596.156-.898.044-.298.04-.602-.015-.9a2.53 2.53 0 0 1-.373.765 7.413 7.413 0 0 1-.51.678c-.18.225-.37.432-.562.635-.193.203-.396.414-.59.59l.06.04c-2.244-.685-3.095-3.236-3.095-3.236s2.054-2.554 2.12-2.577l.094-.039a.604.604 0 0 0 .074-.04c.042-.03.083-.06.121-.093l.029-.025.014-.016.029-.03.053-.062c.042-.058.081-.118.117-.18.06-.11.102-.207.143-.302.08-.19.146-.375.206-.559.115-.363.212-.732.29-1.104.08-.37.134-.745.159-1.123a3.742 3.742 0 0 0 0-.567 1.407 1.407 0 0 0-.15-.54c.01.353-.073.702-.242 1.011-.152.316-.326.62-.523.91-.19.288-.396.567-.615.835-.109.132-.22.259-.33.37l-.029.026-.03.012-.019.01a11.601 11.601 0 0 1-.76-5.75c-1.387-.875-2.588-2.44-2.793-5.224-.437-6.064 4.551-8.582 5.974-9.176v7.039c0 6.687 5.12 12.264 11.787 12.84a6.433 6.433 0 0 1 5.38-2.902h1.306a3.443 3.443 0 0 0 6.186 0h.959c2.177 0 4.207 1.1 5.394 2.923 6.778-.45 12.046-6.074 12.047-12.861ZM44.127 67.81c.925 3.337 6.24 2.2 6.24 2.2l.014-3.477a4.24 4.24 0 0 0-4.242-4.238h-5.331a4.243 4.243 0 0 0-4.248 4.232v3.483s4.97.158 6.15-2.188a3.959 3.959 0 0 0 1.417-.012Z" fill="#403A66"/><path d="M19.844 61.477a.697.697 0 0 0-.166.037l-.049.02-.04.042" fill="#554E6C"/><path d="M33.681 43.31a14.87 14.87 0 0 1 1.454-.15c.473-.02.946.003 1.415.068.466.066.919.205 1.343.41.463.227.871.552 1.197.952a2.596 2.596 0 0 0-.693-1.575 3.971 3.971 0 0 0-1.486-1.024 5.838 5.838 0 0 0-1.745-.388 8.555 8.555 0 0 0-1.733.082c-1.105.18-2.177.525-3.18 1.025a10.893 10.893 0 0 0-2.712 1.874c1.11-.16 2.136-.428 3.153-.664a50.885 50.885 0 0 1 2.987-.61Zm15.269.344a4.56 4.56 0 0 1 1.343-.41c.467-.064.94-.087 1.412-.067.48.022.966.078 1.454.15.98.157 1.974.382 2.987.624 1.013.242 2.05.504 3.155.664a10.97 10.97 0 0 0-2.706-1.883 11.147 11.147 0 0 0-3.182-1.024 8.531 8.531 0 0 0-1.732-.082 5.824 5.824 0 0 0-1.743.387 3.956 3.956 0 0 0-1.487 1.024 2.6 2.6 0 0 0-.695 1.576c.324-.402.731-.73 1.194-.959Zm-14.497 1.977a1.71 1.71 0 1 0-.002 3.418 1.71 1.71 0 0 0 .002-3.418Zm18.183 0a1.71 1.71 0 0 0-1.212 2.916 1.71 1.71 0 0 0 2.42-2.415 1.71 1.71 0 0 0-1.208-.501ZM47.36 55.807h-.902v.834c-.043 1.658-1.325 2.978-2.891 2.978s-2.848-1.32-2.892-2.978v-.834h-.901v.834c0 .614.135 1.219.394 1.768.635 1.375 1.954 2.247 3.399 2.247s2.764-.872 3.398-2.247a4.16 4.16 0 0 0 .395-1.768v-.834Zm-.262 9.809c-.735.127-1.36.299-1.964.41a9.523 9.523 0 0 1-1.7.204 7.19 7.19 0 0 1-1.662-.153 13.604 13.604 0 0 1-1.876-.55 2.6 2.6 0 0 0 .52.98c.24.292.524.544.841.748a4.006 4.006 0 0 0 2.87.545 4.257 4.257 0 0 0 1.51-.593 3.922 3.922 0 0 0 1.461-1.591Z" fill="#403A66"/><path d="M17.552 22.106h51.96l-5.28 12.6 1.435.41v6.145l-.615-.16a88.936 88.936 0 0 0-21.478-2.931h-.1A88.919 88.919 0 0 0 21.8 41.154c-.137.035-.274.07-.41.107v-6.146l1.435-.41-5.274-12.599Zm26.225 12.88 3.076-3.073v-5.361l-3.461-3.153-3.178 3.175v5.378l3.563 3.034Z" fill="#FFBA40"/><path fill="#403A66" d="m45.212 27.275-1.77-1.61-1.588 1.587v3.944l1.833 1.561 1.525-1.522z"/></g></svg>