<svg xmlns="http://www.w3.org/2000/svg" viewBox="0 0 90 90"><path fill="#6E52FF" d="M0 0h90v90H0z"/><g fill="#FFF"><path d="M66.437 75h3.687C72.814 75 75 72.8 75 70.092V19.908C75 17.199 72.815 15 70.124 15h-3.687a.22.22 0 0 0-.167.076L43.159 43.407a2.519 2.519 0 0 0 0 3.18L66.27 74.92a.22.22 0 0 0 .167.076V75Z"/><path d="m31.305 43.424 23.111-28.072a.216.216 0 0 0-.168-.352H19.921C17.205 15 15 17.2 15 19.908v50.184A4.916 4.916 0 0 0 19.92 75h34.328a.216.216 0 0 0 .168-.352l-23.11-28.072a2.478 2.478 0 0 1 0-3.152Z"/></g></svg>