<svg viewBox="0 0 90 90" xmlns="http://www.w3.org/2000/svg"><g fill="none"><path fill="#FFF" d="M0 0h90v90H0z"/><path d="M71 28.824c0 10.358-8.484 18.825-18.922 18.825-10.486 0-18.923-8.42-18.923-18.825S41.592 10 52.078 10C62.516 10 71 18.419 71 28.824M37.97 56.257c0 4.919-4.005 8.892-8.962 8.892S20 61.176 20 56.257c0-4.92 4.051-8.892 9.008-8.892 4.957-.047 8.961 3.973 8.961 8.892m18.78 19.108c0 2.554-2.098 4.635-4.671 4.635-2.574 0-4.671-2.081-4.671-4.635s2.097-4.635 4.67-4.635c2.574-.048 4.672 2.034 4.672 4.635" fill="#901A1E"/><path d="M64.327 28.02v-.094c0-.142.048-.19.238-.237h.286c0 .047.048.379.048.426h.143c0-.047-.048-.379-.048-.426.048 0 .43-.047.477-.047.048 0 .095 0 .095.094v.332c0 .236-.238.283-.333.283-.048.048 0 .095.047.142.143 0 .334-.047.477-.047 0-.568-.048-.899-.095-1.372h-.143v.048c0 .142-.096.189-.286.189-.143 0-.382.047-.62.047-.286.047-.286 0-.334-.142v-.047h-.143c.048.236.048.52.096.757 0 .142.047.142.095.094M43.07 36.96l.048.047c.095.094.095.189-.048.33-.048.048-.19.143-.238.19-.048-.047-.238-.284-.286-.331-.048 0-.095.047-.143.095.048.047.238.283.286.33l-.334.332c-.047.047-.047.047-.095 0l-.238-.237c-.143-.189 0-.378.095-.425 0-.048-.048-.095-.095-.095l-.334.331c.381.426.572.662.906.993.047 0 .095-.047.095-.094l-.048-.048c-.095-.142 0-.189.096-.33l.428-.426c.191-.19.239-.19.334-.095l.048.047c.047 0 .095-.047.095-.094-.19-.19-.334-.379-.524-.568 0-.047-.048 0-.048.047m21.353-7.047c.477-.142.572-.142.954-.236.143-.048.19-.048.19.094v.048c.048.047.096.047.143 0 0-.237.048-.473.048-.757-.048-.047-.095-.047-.143 0v.094c-.048.095-.048.142-.238.19-.096.047-1.192.283-1.24.283-.047 0 0 0 0 .048 0 0 .048.189.048.283.381.19.858.426 1.096.568.191.095.239.19.239.237v.094c.047.047.095.047.143 0 .047-.142.047-.473.095-.615-.048-.047-.095-.047-.143 0v.095c0 .094-.048.094-.19.047-.382-.19-.716-.33-1.002-.473m-3.05-8.892c0-.047.048-.094.095-.094l.096.094c.095.095.143.095.333-.047.143-.095.382-.331.477-.378.095-.095.238-.19.143-.284 0-.047-.048-.047-.048-.095 0-.047.048-.094.096-.094.19.189.38.473.476.614a.101.101 0 0 1-.095.095c0-.047-.048-.047-.048-.047-.095-.095-.238-.048-.333.047-.191.142-.382.331-.525.378-.19.142-.238.19-.143.332l.048.094c0 .047-.048.095-.095.047-.143-.236-.334-.473-.477-.662m-20.734 3.831c-.047 0-.095 0-.143-.047 0-.047 0-.095.048-.095 0-.141 0-.189-.238-.283a6.995 6.995 0 0 1-.572-.237c-.143-.047-.286-.142-.334.047 0 .048-.048.048-.048.095-.047 0-.095 0-.143-.047.096-.284.191-.568.286-.71.048 0 .096 0 .096.048 0 .047 0 .047-.048.094-.048.142.095.19.238.284.239.095.477.19.62.236.19.095.286.095.334-.047l.047-.094c.048 0 .096 0 .096.047-.048.142-.191.52-.239.71m21.783-2.366c0-.047.047-.094.095-.094l.048.047c0 .047.047.095.143.047.095-.047.143-.094.19-.094-.047-.095-.238-.378-.381-.615 0-.047.048-.095.048-.142.047 0 1.43.19 1.525.19.047.047 0 .141 0 .189-.048 0-1.24-.19-1.335-.19.096.142.239.379.286.426.048-.047.239-.142.334-.19h.047l.191.19v.047c-.095.048-.333.19-.381.19a.655.655 0 0 1 .095.189c0 .047-.095.094-.143.094 0 0-.095-.142-.095-.189-.048 0-.143.095-.19.095-.096.047 0 .142 0 .142 0 .047.047.047.047.094s-.095.047-.095.047c-.143-.047-.286-.236-.43-.473m.573 1.42a.143.143 0 0 1 0-.19c.047 0 1.43.048 1.525.048a6.27 6.27 0 0 0-.19-.52c-.049-.095-.144-.095-.192-.143h-.095c-.048 0-.048-.094 0-.142.095 0 .381-.047.43-.047 0 .047.047.095.047.142 0 .047.238.52.238.615.048.095.095.19.095.236 0 .048-.047.048-.047.095-.096-.047-.19-.047-.239-.047-.047 0-1.43-.048-1.572-.048m-20.162-2.6c0 .046-.095.094-.19.094-.048-.048-.62-1.23-.668-1.372a3.448 3.448 0 0 1-.381.426c-.048.094-.048.142 0 .236 0 .047 0 .047.047.047a.101.101 0 0 1-.095.095c-.048-.047-.238-.331-.286-.378.048-.048.095-.095.095-.142.048-.047.382-.426.43-.52.047-.048.142-.142.142-.19h.096c0 .095.047.19.095.237.048.047.667 1.324.715 1.466m20.638 3.831c0-.047.095-.094.143-.047.095.142.19.33.43.473.237.142.428.142.714.094.286-.047.524-.236.429-.473-.095-.236-.286-.141-.381-.141-.286.094-.286.283-.19.425 0 .048-.049.095-.096.048-.048-.048-.143-.095-.143-.284-.048-.284.19-.473.286-.52.381-.095.62.094.667.33.095.332 0 .71-.524.805-.572.189-1.144-.19-1.335-.71m1.049 8.987s-.048.047-.048.094c-.048.048-.095.095-.286 0l-.667-.284c-.19-.094-.19-.094-.19-.236v-.047c0-.048-.096-.048-.144-.048l-.143.331-.143.284c-.19.331-.286.804.239 1.135.428.284.857.142 1.191-.52.143-.236.19-.426.286-.615 0-.094-.095-.094-.095-.094m-.286.52c0 .047 0 .047-.048.094-.19.379-.477.52-.858.332-.286-.142-.381-.332-.381-.473 0-.095 0-.237.048-.331.047-.095.095-.142.143-.142.047 0 .143 0 .238.047 0 0 .762.378.81.378.048.048.048.048.048.095m-2.622 3.263c.048.048.048.095.048.142 0 .048 0 .19-.095.237l-.143.142s-.525-.52-.62-.662c-.19-.19-.19-.237-.095-.332l.047-.047c0-.047-.047-.094-.095-.094-.143.141-.381.378-.524.473 0 .047.047.094.095.094l.048-.047c.095-.095.19-.047.333.142.096.094.62.662.62.662l-.19.19c-.096.094-.191.046-.239 0-.048 0-.048-.048-.095-.096-.048 0-.096.048-.096.095.048.047.239.237.286.331.43-.378.668-.615 1.049-.993l-.19-.331c-.096 0-.144.047-.144.094m.239-1.986c0 .047.095.095.095.095l.048-.048c.095-.094.095-.047.19.095.048.094.096.142.096.142-.048.047-.286.378-.334.425-.048 0-.048-.047-.19-.047-.096-.047-.191-.047-.144-.142 0-.047.048-.047.048-.047 0-.047-.048-.095-.095-.095-.048.095-.239.237-.43.473 0 .048.048.095.096.095l.048-.047c.095-.095.238-.048.333 0 .096.047 1.192.378 1.24.378h.047s.048-.142.048-.19c-.048-.047-.524-.85-.62-1.04-.143-.236-.095-.284-.095-.33 0-.048.048-.048.048-.048 0-.047-.048-.095-.096-.047-.095 0-.333.33-.333.378m.81.946-.62-.19.286-.378.334.568Zm-23.784-7.757c-.048 0-.096-.047-.143-.047-.096-.047-.143-.142-.143-.284v-.19h.905c.239 0 .286.048.334.143v.047h.143v-.71c-.048-.047-.095-.047-.143 0v.095c-.048.142-.095.142-.334.142h-.905v-.284c0-.142.143-.189.143-.189h.143c.047-.047 0-.095 0-.142h-.43c-.047.568-.047.899-.047 1.466.048 0 .381.095.381.095.096-.047.096-.095.096-.142m1.191 1.23c-.047-.047-.095 0-.143 0v.047c0 .095-.047.095-.19.047-.096-.047-.143-.047-.19-.047 0-.094-.049-.473-.049-.567.048-.048.048-.048.191-.095.095-.047.19-.095.19.047v.048c.048.047.096 0 .144 0 0-.095-.048-.332-.048-.663-.048-.047-.095 0-.143 0v.095c0 .142-.143.19-.238.236-.096.048-1.144.52-1.144.568-.048 0-.048 0 0 .047 0 0 .095.142.095.19.095 0 .953.283 1.192.33.238.095.238.143.286.19v.047c.047.047.095 0 .143-.047 0-.047-.096-.426-.096-.473m-1.239-.142.572-.284.048.473-.62-.19Zm3.384 5.392a.95.95 0 0 0-.572-.379.763.763 0 0 0-.62.142c-.19.142-.333.331-.38.52-.048.237 0 .426.142.663.286.425.81.52 1.192.284a.775.775 0 0 0 .334-.52c.143-.237.047-.474-.096-.71m-.429.946c-.19.142-.333.189-.524.142-.095 0-.238-.095-.286-.19-.095-.094-.095-.236-.095-.33a.753.753 0 0 1 .38-.474c.335-.236.62-.189.811.048.239.284 0 .615-.286.804m3.241 1.986a.101.101 0 0 1-.095.095s-.048 0-.048-.047c-.095-.048-.19-.048-.333.141-.143.19-.286.379-.382.473-.095.142-.19.237-.047.332l.047.047c0 .047-.047.094-.095.094-.238-.189-.62-.473-1.049-.804.048-.094.191-.236.239-.33.047 0 .095.047.143.094 0 .047-.048.094-.048.142 0 .047-.048.142.048.236.095.095.238.19.286.237.047.047.095 0 .095 0 .048-.048.238-.331.286-.379-.048-.047-.334-.236-.334-.283 0-.048.048-.095.096-.095.047.047.286.236.333.284 0 0 .191-.19.191-.237.143-.189.095-.236 0-.33-.048-.048-.095-.095-.143-.095-.095-.095-.19-.095-.334 0-.047.047-.047.047-.095.047s-.095-.047-.095-.095c.047-.047.286-.236.333-.283.286.236.62.52 1.001.756m-4.575-5.96c0-.046.095-.046.143-.046.095.236.143.378.19.567 0 .047-.047.095-.143.047 0-.047 0-.047-.047-.047-.048-.095-.048-.142-.334-.095-.143.048-.62.095-.715.142-.143.048-.286.095-.238.237v.047c0 .047-.096.047-.143.047a2.652 2.652 0 0 1-.19-.567c.094 0 .142-.047.237-.142.143-.142.525-.426.668-.568-.143-.047-.81-.141-.858-.141-.096 0-.239-.048-.334 0-.048-.095-.095-.379-.143-.568 0-.047.095-.047.143 0v.047c.048.095.048.142.238.095.191-.047.525-.19.715-.237.191-.094.286-.142.286-.236v-.095c0-.047.096-.047.143-.047.048.331.096.52.143.71 0 .047-.095.047-.143.047v-.048c-.047-.094-.047-.141-.286-.094-.19.094-.667.236-.81.284.19.047.667.094.906.142.286.047.333.047.429.047.047 0 .047.047.047.094-.047 0-.19.142-.333.284-.191.142-.572.52-.668.568.191-.048.62-.142.763-.142.19-.047.334-.095.286-.19m23.546-1.513c.047-.047.095 0 .143 0v.095c0 .094.047.189.286.236.19.048.429.095.62.142.19.047.285.095.333-.047v-.095h.143c0 .095-.095.331-.095.473v.095c-.048 0-.048 0-.143.047-.048 0-1.049.52-1.192.568.095.047.524.189.62.236.19.047.286.095.333-.047 0 0 0-.047.048-.095.048 0 .095 0 .143.048-.048.189-.143.425-.19.614-.048 0-.096 0-.144-.047v-.047c.048-.095 0-.142-.238-.237-.19-.047-.953-.33-1.049-.378 0 0-.047-.047 0-.095.239-.094 1.478-.756 1.573-.756-.095-.048-.62-.142-.762-.142-.239-.048-.286-.048-.334.094 0 .048 0 .048-.048.095-.047 0-.095 0-.143-.047 0-.284.096-.615.096-.71M38.59 26.885c.047 0 .19.047.333.095l.858.567c.143.095.143.142.143.19v.094c.048.047.096.047.143 0 0-.047.048-.331.048-.52 0-.047-.095-.047-.143 0v.094c0 .048-.048.048-.143 0-.048-.047-.238-.141-.334-.189 0-.047.048-.425.048-.473h.286c.143.048.143.142.143.142v.095c0 .047.095.047.143 0 .048-.426.143-.71.238-1.183-.19-.142-.333-.189-.381-.189-.048 0-.095.095-.048.142.048 0 .048.047.096.047.143.095.143.19.143.284 0 .095 0 .095-.048.19-.048.141-.095.141-.238.141h-.334l.048-.426c-.048 0-.096-.047-.143 0l-.048.426c-.048 0-.429-.047-.524-.047-.048 0-.048-.047-.048-.047 0-.048 0-.142.048-.284.047-.19.143-.19.19-.19h.143c.048-.047.048-.141 0-.141h-.38a9.637 9.637 0 0 0-.192.851c-.047.142-.047.19-.047.331-.048 0-.048 0 0 0m.143-.19.047-.046c.096 0 .525.047.572.047 0 .095-.047.331-.047.426-.143-.095-.525-.331-.572-.379v-.047m21.21 13.149c-.048-.048-.095-.142-.143-.331 0-.048-.143-.852-.19-.994 0-.142 0-.189.047-.236l.048-.048c0-.047-.048-.094-.096-.094-.047.047-.238.19-.429.331-.047.047.048.095.096.095.047 0 .047-.048.095-.048s.095 0 .095.095c0 .047.048.284.048.33-.048.048-.381.237-.381.285 0 0-.143-.142-.19-.237-.096-.142 0-.189.047-.236l.047-.048c0-.047-.047-.094-.095-.094-.334.236-.62.378-1.048.662.047.19.143.331.143.426.047.047.143 0 .143-.048v-.094c-.048-.142.047-.237.142-.284.048-.047.096-.047.191-.095.095-.094.19 0 .286.095.048.095.19.19.19.237-.047.047-.285.189-.333.236 0 .047.048.095.095.095.048-.048.286-.19.382-.237.047.047.286.331.333.426.048.047 0 .047-.047.047-.048 0-.143.095-.239.142-.143.095-.238.047-.286 0-.047 0-.095-.047-.095-.095-.095 0-.095.048-.095.095.047.095.19.236.238.284.334-.19.524-.284.763-.473.047-.048.095-.095.238-.19 0 .048 0 0 0 0m-.286 0s-.048 0-.048-.047c-.047-.047-.333-.378-.38-.473.094-.047.285-.189.333-.236.047.142.095.615.143.662l-.048.095m-19.59-4.967c.286-.142.715-.378.81-.425.191-.095.239-.142.191-.284 0 0 0-.047-.047-.095 0-.047.095-.047.143-.047.095.19.238.473.333.615 0 .047-.095.094-.143.094l-.047-.047c-.096-.094-.143-.094-.334 0-.143.095-.477.237-.572.284-.238.142-.238.142-.19.284 0 .047 0 .047.047.047 0 .047-.095.047-.095.047-.143-.236-.334-.567-.334-.615-.048-.047-.048-.141-.095-.189-.096-.189-.096-.473.19-.567.191-.095.382 0 .477.142.095-.142.19-.284.238-.473.048-.142.096-.19.048-.331v-.048c0-.047.095-.047.095-.047 0 .047.096.236.143.378-.047.142-.333.71-.381.804h-.048c-.047-.094-.095-.189-.238-.189-.095 0-.19.048-.238.048-.048.047-.143.094-.143.189-.048.094 0 .189 0 .236 0 .047.047.095.095.142.095 0 .095.047.095.047M45.5 40.46c.143-.283.381-.709.429-.804.095-.189.143-.283 0-.33l-.048-.048c0-.047.048-.095.048-.095.19.095.477.237.62.332 0 .047-.048.094-.048.141-.048 0-.048 0-.048-.047-.143-.047-.143 0-.286.19-.095.141-.238.472-.286.567-.143.236-.143.284 0 .33 0 0 .048 0 .048.048s-.048.095-.048.095c-.238-.142-.572-.284-.62-.331a.362.362 0 0 0-.19-.095c-.143-.094-.334-.33-.143-.615.143-.189.286-.189.477-.142 0-.141 0-.33-.048-.52-.095-.236-.095-.284-.19-.33l-.048-.048c0-.048.047-.095.095-.095s.19.142.334.237c.047.189.095.804.143.898 0 0-.048 0-.048.048-.095-.048-.19-.095-.286-.048-.095.048-.143.095-.143.19-.048.047-.048.141-.048.236s.096.142.143.19c.048.046.096.046.143.094 0-.048 0-.048.048-.048m-4.433-16.695c0-.048.239-.473-.095-.757-.286-.237-.572.047-.715.425-.095-.094-.477-.425-.524-.52 0-.047.238-.71.238-.757a.37.37 0 0 1 .19.19c-.047.094-.19.567-.19.614l.143.142c.048-.142.238-.425.572-.473.524 0 .81.52.524 1.183 0 .047-.095.047-.143-.047m-.524-1.94c0-.047-.095-.283.048-.52.047-.095.19-.19.286-.236.095 0 .38.094.333.425.096-.142.239-.189.334-.142.048 0 .381.048.477.568.047.331-.143.662-.286.71-.143.047-.286-.143-.143-.237.047-.047.143 0 .238-.047.048-.095.095-.379-.095-.52-.096-.095-.334-.19-.477 0-.048.047-.048.141-.048.283-.047.095-.19.047-.19 0 0-.094.095-.331.047-.52-.047-.142-.19-.237-.333-.095-.096.095-.048.284-.048.379 0-.048-.095-.048-.143-.048m17.874-6.574a.36.36 0 0 1 .095-.19c.048 0 .095.048.143.048.19.047.286.047.477-.331.143-.236.381-.71.476-.899.096-.189.239-.425 0-.567-.047 0-.047-.047-.095-.047-.048-.048.048-.19.095-.19.43.19.81.379 1.049.52-.048.095-.095.19-.143.237-.048-.047-.095-.047-.095-.047-.239-.095-.334.094-.477.33-.19.332-.381.71-.477.9-.19.33-.19.425 0 .567.048.047.096.047.096.095a.358.358 0 0 1-.096.189c-.238-.19-.762-.473-1.048-.615m4.337 3.027c0-.047.096-.142.143-.142l.096.095c.19.142.238.142.571-.142.191-.19.572-.568.763-.71.143-.142.381-.283.19-.52-.047-.047-.047-.047-.047-.094 0-.048.095-.142.143-.142.334.33.62.662.81.851 0 .047-.095.142-.143.142l-.047-.047c-.19-.19-.334-.048-.525.141-.286.237-.62.52-.762.663-.286.236-.334.33-.19.52 0 .047.047.094.094.094 0 .048-.095.142-.143.142-.333-.189-.714-.614-.953-.851m1.192 19.581c.047 0 .143.095.19.142-.047.047-.047.095-.047.095-.096.189-.096.236.238.52.238.19.62.52.763.662.143.142.333.331.524.142l.095-.095c.048 0 .143.048.143.142-.286.379-.572.71-.762.899-.048 0-.143-.095-.143-.142.047-.047.047-.047.047-.095.143-.236 0-.33-.238-.52-.286-.236-.62-.52-.763-.662-.286-.237-.38-.284-.524-.142-.048 0-.048.047-.095.095-.048 0-.143-.095-.143-.142.143-.237.524-.662.715-.899m-11.678 5.77a.143.143 0 0 1 0 .19h-.143c-.19.047-.286.047-.286.52v.993c0 .19-.047.473.239.52h.095a.143.143 0 0 1 0 .19c-.477 0-.906 0-1.192-.048a.143.143 0 0 1 0-.189h.096c.238 0 .238-.236.286-.473 0-.378.047-.804.047-.993 0-.379 0-.473-.238-.52h-.143c-.048-.048 0-.142 0-.19.334 0 .906.048 1.24 0m-9.581-3.263c0 .047-.095.142-.143.142-.048-.048-.095-.048-.095-.095-.191-.094-.239-.094-.525.237-.19.236-.524.615-.667.756-.143.142-.334.331-.143.52l.095.095c0 .048-.095.142-.143.142a40.217 40.217 0 0 0-.905-.757c0-.047.095-.141.143-.141.047.047.047.047.095.047.19.142.334 0 .524-.19.239-.283.525-.614.668-.756.238-.284.286-.379.143-.52l-.096-.095c0-.047.096-.142.143-.142.239.19.668.52.906.757m-4.814-16.318c-.048 0-.143 0-.19-.047 0-.047 0-.095.047-.142.048-.236 0-.284-.381-.426-.286-.094-.763-.283-.954-.33-.19-.048-.429-.19-.524.047 0 .047-.048.047-.048.094-.047.048-.19 0-.19-.047.143-.426.286-.851.429-1.088.047-.047.143 0 .19.095 0 .047-.047.094-.047.094-.048.237.143.331.38.426.335.142.764.284.954.378.334.142.43.142.572-.047 0-.047.048-.095.048-.142.047 0 .143.047.19.095-.19.189-.38.757-.476 1.04m27.263-2.601c-.38-.662-.858-1.372-1.096-1.608 0-.047.095-.142.143-.142l.095.095c.143.141.239.141.572-.095.239-.142.668-.473.858-.568.191-.142.43-.236.286-.473 0-.047-.047-.047-.047-.094s.095-.142.143-.142c.286.378.524.71.667.946 0 .047-.095.142-.143.142-.048-.048-.048-.048-.048-.095-.143-.189-.381-.047-.572.095l-.858.567c-.286.19-.38.237-.286.426 0 .047.048.142.143.236.048.095.143.237.239.284.095.048.286.048.333.048.048 0 .143-.048.191-.048.048 0 .095.095.095.19-.143.047-.381.141-.715.236m1.144 2.46c-.238-.71-.62-1.514-.762-1.798a.362.362 0 0 1 .19-.094c0 .047.048.094.048.094.095.19.19.19.572 0 .238-.094.763-.331.906-.426.19-.094.429-.141.333-.425 0-.048 0-.048-.047-.095 0-.047.143-.094.19-.094.19.425.382.804.477 1.087 0 .048-.095.095-.19.095-.048-.047-.048-.047-.048-.095-.096-.236-.334-.094-.572 0-.334.142-.668.284-.906.426-.334.142-.381.19-.334.378 0 .048.048.142.096.237.047.095.095.236.19.331.096.095.286.095.334.095h.19c.048.047.096.094.048.189-.143 0-.429.047-.715.094m-10.104-9.6c0-.237.047-.474.095-.616.048 0 .19 0 .238.047 0 .237-.047.568.382.757.286.095.476 0 .524-.189.095-.236 0-.426-.286-.662-.43-.378-.477-.615-.43-.804.049-.284.287-.757 1.05-.52.38.141.524.236.62.33 0 .048-.096.426-.144.568-.047.048-.143 0-.19-.047 0-.047.095-.426-.286-.568-.382-.142-.525.048-.572.19-.048.189.047.283.333.567.239.237.572.52.382.946-.143.378-.62.568-1.097.426-.429-.19-.62-.426-.62-.426M54.7 43.534c.095.189.143.425.19.615-.047.047-.142.094-.238.047-.095-.19-.19-.568-.667-.473-.286.047-.381.236-.381.378 0 .237.19.379.572.473.524.142.715.331.762.52.096.284.096.852-.715.947-.38.047-.572 0-.715 0a1.984 1.984 0 0 1-.143-.568c.048-.047.143-.095.191-.047 0 .047.095.425.524.378.382-.047.43-.284.43-.426-.048-.189-.144-.236-.573-.378-.333-.142-.715-.236-.81-.662-.047-.426.286-.804.763-.852.572-.094.81.048.81.048m-13.632-4.588c-.095.19-.286.378-.381.473-.048 0-.143-.095-.19-.142.142-.19.333-.473.047-.851-.19-.237-.429-.19-.572-.095-.19.142-.19.378-.048.757.191.52.096.757 0 .898-.19.237-.667.52-1.191-.094a2.72 2.72 0 0 1-.382-.568c.048-.047.286-.33.382-.425.095 0 .143.047.143.142-.048.047-.286.33-.048.662.238.33.477.189.572.094.143-.142.095-.236 0-.662-.095-.33-.238-.71.143-1.04.334-.284.81-.237 1.144.189.334.378.381.662.381.662m3.527-23.081a.358.358 0 0 1-.095-.19c.048 0 .095-.047.095-.094.191-.142.191-.19 0-.567-.143-.237-.38-.71-.476-.9-.096-.188-.19-.425-.43-.33-.047 0-.047.047-.095.047-.047 0-.095-.142-.095-.19.381-.236.763-.425 1.049-.567.047 0 .095.142.095.19-.048.047-.048.047-.095.047-.239.142-.096.33 0 .567.19.331.381.71.476.899.191.331.239.378.43.331.047 0 .095-.047.142-.047.048 0 .096.142.096.189-.286.19-.763.426-1.097.615m1.907-1.04a1.922 1.922 0 0 1-.286-.52c0-.048.095-.143.19-.143.144.19.287.52.763.379.286-.095.334-.284.286-.473-.047-.284-.286-.332-.667-.332-.572-.047-.763-.189-.858-.33-.143-.237-.238-.805.477-1.041.38-.142.572-.142.715-.142.047.047.19.378.238.52-.048.048-.095.095-.19.095 0-.142-.144-.473-.573-.331-.381.094-.381.378-.333.473.095.189.19.189.667.236.334.048.763.048.906.473.143.379-.096.804-.572.993-.477.237-.763.142-.763.142m-3.956 2.318c-.19-.142-.334-.331-.43-.426 0-.047.096-.142.192-.142.19.142.429.379.857.095.239-.19.239-.378.143-.52-.143-.237-.333-.237-.714-.142-.525.094-.763.047-.906-.095-.19-.189-.477-.71.19-1.135.334-.236.525-.284.62-.331.048.047.286.284.382.426 0 .094-.048.142-.143.142-.048-.048-.286-.332-.668-.095-.333.236-.238.473-.143.567.143.142.239.142.668.048.333-.048.762-.142 1 .236.239.331.143.804-.286 1.135-.476.19-.762.237-.762.237m23.26 17.642c.095-.048.143 0 .19.094l-.047.095c-.048.19 0 .284.381.426.286.142.667.33.906.425.238.095.429.237.524.048 0-.048.048-.048.048-.095.047 0 .143 0 .19.095-.047.142-.238.473-.333.662 0 .047-.048.047-.048.094-.048 0-.095 0-.238.048-.048 0-1.86.425-2.098.473l.858.567c.286.19.43.237.572.048 0-.048.048-.048.096-.095.047 0 .143.047.19.095-.19.283-.381.614-.524.85-.048.048-.143-.046-.19-.094 0-.047.047-.047.047-.094.095-.142.048-.237-.286-.473-.238-.142-1.335-.899-1.478-.946 0-.048-.047-.095 0-.19.382-.094 2.574-.614 2.717-.614-.143-.095-.905-.426-1.144-.52-.381-.142-.476-.142-.572 0-.047.047-.047.094-.047.094-.048 0-.143 0-.191-.095a5.66 5.66 0 0 0 .477-.898M37.159 27.5a.146.146 0 0 1-.19 0v-.142c0-.19-.096-.236-.477-.284a7.905 7.905 0 0 0-1.001-.094c-.286-.048-.477-.095-.525.142v.094a.146.146 0 0 1-.19 0c0-.142.047-.52.095-.71v-.094c.048 0 .095-.047.238-.094.048-.048 1.62-.994 1.812-1.136-.191-.047-.858-.236-1.001-.236-.334-.095-.477-.095-.525.142 0 .047-.047.094-.047.142-.048.047-.143 0-.191-.048.095-.33.19-.709.238-.946.048-.047.191 0 .191.048v.094c-.048.19.048.237.429.331.286.095 1.573.426 1.668.426.048.047.048.095.048.142-.334.19-2.24 1.419-2.336 1.466.191 0 1.001.095 1.24.142.38.047.476 0 .524-.19 0-.046 0-.094.048-.14.047-.048.143-.048.19.046-.19.19-.238.757-.238.899m2.955-7.71c-.095 0-.143-.047-.19-.094 0 0 .047-.095.095-.095.095-.142.047-.283-.239-.52-.286-.19-.572-.473-.81-.615-.19-.189-.334-.33-.524-.142l-.096.095c-.047 0-.143-.047-.143-.142.096-.095.334-.426.477-.568 0-.047.048-.047.048-.094.047.047.095.047.238.047h2.145c-.143-.142-.572-.615-.715-.757-.238-.236-.334-.33-.524-.189-.048 0-.048.048-.096.095-.047 0-.143-.095-.143-.142l.715-.71c.048 0 .143.095.143.142l-.095.095c-.143.142-.095.236.19.52.191.19 1.097 1.183 1.192 1.23 0 .047 0 .095-.047.142H38.97c.143.094.763.615 1.001.757.334.236.429.236.572.141l.095-.094c.096 0 .143.047.143.142-.19.189-.572.662-.667.757m-1.525 15.418c-.048 0-.19.048-.19.095s.047.095.047.142c.047.19 0 .284-.334.426-.095.047-.238.094-.381.189l-.572-1.183c.143-.047.286-.142.381-.142.381-.141.43-.141.572.048 0 .047.048.047.048.094a.362.362 0 0 0 .19-.094c-.143-.331-.333-.757-.429-1.04-.047 0-.19 0-.19.047s0 .094.048.141c.047.19-.048.284-.382.426-.19.095-.62.237-.953.378-.238.095-.429.19-.524-.047 0 0 0-.047-.048-.094-.048 0-.19 0-.19.094.095.284.238.662.428 1.04.048 0 .19 0 .19-.094 0-.047 0-.047-.047-.094-.047-.237.096-.284.382-.426.047-.047.19-.095.333-.142l.572 1.182c-.095.048-.238.095-.333.19-.191.094-.43.236-.525 0 0 0-.047-.048-.047-.095-.096 0-.191.047-.191.095.143.283.334.614.524.993a.362.362 0 0 0 .19-.095c0-.047 0-.047-.047-.094-.095-.237.048-.331.334-.473.143-.095.667-.331.905-.473.382-.19.43-.19.572-.048 0 0 .048.048.048.095a.362.362 0 0 0 .19-.095c-.238-.236-.476-.71-.571-.946m23.689-17.878a.603.603 0 0 0-.191.284 5.144 5.144 0 0 1-.858-.52c-.286-.237-.62-.568-.62-1.183.048-.52.382-.946.81-1.135.525-.236 1.05 0 1.43.284.43.33.572.567.668.615-.143.189-.238.33-.381.567-.048 0-.191-.047-.191-.094.048-.095.143-.237.095-.426 0-.19-.095-.331-.333-.52-.239-.19-.954-.426-1.43.33-.477.758-.048 1.183.095 1.325.095.095.143.095.19.142.144.095.239.095.334-.047l.143-.142c.096-.142.143-.142 0-.331l-.143-.142c0-.047.048-.142.143-.142.286.284.62.52.858.662 0 .047-.047.19-.143.19-.047 0-.047-.048-.095-.048-.095-.047-.143-.095-.286.095-.048.141-.048.189-.095.236m-23.642 4.872a.362.362 0 0 1-.19-.095c0-.047 0-.047.047-.094.096-.19.048-.284-.333-.52-.286-.143-.667-.332-.858-.474-.238-.142-.43-.236-.572 0-.048.048-.048.048-.048.095a.362.362 0 0 1-.19-.095c.19-.425.62-1.135 1.048-1.844.143.094.43.236.572.283 0 .095 0 .19-.095.237-.048 0-.143-.047-.19-.047-.096 0-.24-.048-.382.142-.143.141-.238.378-.286.473-.048.094 0 .141.048.189.047.047.572.33.62.378.333-.615.333-.615.38-.615.096 0 .143.048.191.142l-.334.615s.382.236.43.236c.333.19.38.142.524-.094.047-.095.095-.142.143-.237.095-.189.095-.33-.048-.52-.048-.047-.095-.094-.095-.142 0-.094.047-.142.143-.189.047.047.429.378.524.473a8.59 8.59 0 0 0-1.049 1.703m21.687 18.966c.048 0 .096.095.096.19l-.048.046c-.19.142-.19.237.048.615.19.284.381.615.524.852.143.236.238.425.477.283.047 0 .047-.047.095-.047s.095.095.095.19c-.381.283-1.096.661-1.859 1.04-.095-.142-.238-.379-.333-.52.047-.095.095-.142.19-.142l.143.142a.328.328 0 0 0 .382.047c.19-.095.429-.237.524-.284.095-.047.095-.095.048-.142-.048-.047-.334-.567-.382-.662l-.62.378c-.095-.047-.142-.141-.142-.189l.62-.378s-.191-.379-.239-.426c-.19-.33-.238-.284-.524-.189-.096.047-.143.095-.239.142-.19.142-.238.236-.19.473v.142c-.048.047-.143.142-.239.047-.047-.095-.143-.52-.19-.662.524-.19 1.144-.52 1.763-.946m6.816-15.75c.715-.426.763-.473 1.335-.851.19-.095.286-.142.333 0 0 .047.048.094.048.094.048.047.19 0 .19-.047-.095-.379-.19-.71-.333-1.135-.048-.048-.19 0-.19.047s0 .095.047.142c0 .19-.048.284-.286.426-.143.094-1.668 1.04-1.716 1.087-.047.048-.047.048 0 .095 0 0 .143.237.19.331.62.095 1.574.237 1.907.331.382.047.43.142.477.237v.142c.048.047.19.047.19 0-.047-.284-.095-.71-.142-.946-.048-.048-.19-.048-.19.047v.095c0 .141 0 .236-.287.189-.476-.142-1.096-.237-1.573-.284m-.333 7.899c.81-.048.905-.048 1.573-.048.238 0 .333 0 .285.19v.094c.048.047.143.095.191.047.095-.378.19-.71.286-1.135-.048-.094-.143-.047-.19-.047 0 .047-.048.095-.048.142-.096.189-.143.189-.477.236-.143 0-2.002.095-2.002.095-.047 0-.047.047-.047.047v.379c.524.378 1.239.993 1.525 1.23.286.236.286.33.286.425 0 .047-.048.095-.048.142a.362.362 0 0 0 .19.094c.096-.236.24-.662.334-.898 0-.047-.143-.095-.19-.095 0 .048-.048.095-.048.095-.047.142-.095.189-.333 0-.43-.331-.906-.71-1.287-.993m-4.767 7.141c.715.426.81.473 1.335.805.19.094.286.189.143.33l-.096.095c0 .095.096.142.143.142.286-.236.572-.52.858-.804 0-.095-.095-.142-.143-.142l-.095.095c-.19.094-.238.094-.524-.048-.143-.094-1.716-.993-1.764-.993h-.095s-.143.237-.19.331c.238.615.524 1.466.619 1.845.095.378.095.473 0 .52-.048.047-.095.047-.095.095 0 .047.047.189.095.142.238-.142.572-.426.763-.568 0-.095-.048-.19-.096-.19-.047.048-.047.048-.095.048-.095.047-.19.095-.286-.189-.143-.473-.334-1.04-.477-1.514m-4.242 4.446c-.19-.425-.429-1.23-.524-1.419-.143-.33-.19-.425-.381-.378-.048 0-.096 0-.143.047-.048-.047-.096-.141-.048-.236.334-.142.763-.284 1.096-.426a.358.358 0 0 1 .096.19c-.048 0-.096.047-.096.047-.19.142-.19.189-.047.567.095.237.286.757.333.946.143.379.19.426.381.379.048 0 .048 0 .096-.048.047 0 .095.142.095.19-.62.236-.953.33-1.096.378a.889.889 0 0 1-.334.094c-.286.048-.762.095-.905-.472-.096-.332.047-.568.286-.71-.191-.142-.43-.331-.668-.473-.238-.142-.333-.19-.524-.142h-.143c-.048-.047-.048-.142-.048-.189.048 0 .382-.095.668-.142.143.095 1 .662 1.191.757v.19c-.143.046-.286.14-.333.283-.048.189 0 .284.047.378.048.095.096.237.239.284.143.047.286.047.38 0 .096-.047.192-.047.24-.095h.142m-10.629-2.08c-.095.047-.095.141-.095.189.048 0 .048 0 .095.047.143.094.143.142-.047.33l-.191.19c-.095-.047-.667-.284-.81-.284v-.283c0-.19 0-.332.19-.284.048 0 .048 0 .096.047a.358.358 0 0 0 .095-.19 9.16 9.16 0 0 1-.953-.425c-.096.047-.096.142-.096.19.048 0 .096.047.096.047.238.142.143.33.143.52s-.048 1.986-.048 2.034c0 .047 0 .047.048.047h.333c.096-.095 1.049-1.182 1.335-1.466.286-.284.334-.284.477-.284h.095c.048-.047.095-.142.048-.19-.286-.046-.715-.236-.81-.236m-1.097 1.703.048-1.04.667.236-.715.804ZM37.54 32.372c-.095-.048-.19 0-.19.047v.095c0 .189-.048.189-.286.141-.143 0-.191-.047-.239-.047-.047-.142-.143-.71-.19-.804.095-.047.095-.047.238-.142.143-.094.286-.189.334 0v.095c.047.047.19 0 .19-.048-.047-.141-.095-.52-.19-1.04-.048-.047-.191 0-.191 0v.142c0 .236-.19.33-.334.425-.143.095-1.716 1.041-1.763 1.041-.048.047-.048.047 0 .047 0 0 .143.237.19.284.143 0 1.573.237 1.955.284.38.047.429.142.476.236a.146.146 0 0 1 .048.095c.048.047.19 0 .19-.047-.047-.095-.19-.71-.238-.804m-2.002.047.906-.52.143.71-1.049-.19Zm31.744-4.351a.146.146 0 0 1-.19 0c-.048-.426-.048-.615-.096-.946.048-.048.143-.095.19-.048v.095c.049.142.049.236.43.284.238.047.953.047 1.096.047.238 0 .524 0 .477-.284v-.094a.146.146 0 0 1 .19 0c.048.33.048.567.048.946-.143 0-.238.047-.477.141-.238.142-1 .473-1.286.615.19.095 1.191.568 1.239.615.143.047.333.142.524.19 0 .236-.048.614-.048.945-.047.048-.143.048-.19-.047v-.095c0-.141-.048-.236-.334-.236h-1.191c-.334.047-.525.047-.525.19v.141c-.047.047-.143.047-.19-.047.047-.568.095-.757.095-1.088a.146.146 0 0 1 .19 0v.094c0 .142 0 .19.43.19.333 0 1.143 0 1.334-.048-.238-.142-.953-.425-1.334-.614-.382-.19-.525-.237-.668-.284-.047-.048-.047-.095 0-.142.048 0 .334-.095.668-.284.333-.142 1.143-.52 1.334-.568-.286 0-1.048-.047-1.24-.047-.285 0-.523 0-.476.19m-17.35 17.405c0 .047-.095.142-.142.236-.096.095-.239.142-.43.095-.047 0-.19-.047-.333-.047l.286-1.42c.095-.425.143-.472.334-.472h.095c.048-.048.048-.142.048-.19-.334-.047-.858-.141-1.144-.236-.048.047-.048.142-.048.19.048 0 .095.046.143.046.19.095.19.19.143.52-.048.19-.286 1.42-.286 1.42-.19-.048-.334-.048-.429-.095-.19-.047-.238-.236-.238-.331v-.19c-.048-.046-.143-.046-.19-.046 0 .094-.096.52-.144.662.906.236 1.43.33 2.288.425 0-.047.238-.52.286-.615-.048.048-.19 0-.238.048m-5.672-1.798a1.037 1.037 0 0 1-.239.19.478.478 0 0 1-.429-.048c-.047-.047-.143-.094-.286-.189 0 0 .62-1.04.763-1.277.238-.33.286-.378.477-.33.047 0 .047.046.095.046a.358.358 0 0 0 .095-.189 7.061 7.061 0 0 1-1-.615c-.048 0-.144.095-.144.142.048.048.096.048.096.095.143.142.143.236-.048.567-.095.19-.762 1.277-.762 1.277-.143-.094-.286-.189-.382-.236-.19-.142-.143-.331-.095-.378 0-.048.048-.142.095-.19-.047-.094-.143-.094-.19-.094-.048.094-.286.473-.382.567.763.52 1.192.804 2.002 1.23l.477-.473c0-.047-.048-.095-.143-.095m-7.388-14.614v.142c-.048.189-.048.33-.381.33h-.43v-.662c-.095-.047-.19-.047-.238 0v.71c-.095 0-.715.047-.762.047-.048 0-.096 0-.143-.142v-.52c.047-.378.524-.473.667-.473.048-.095.048-.142-.048-.236-.19 0-.667.094-.858.094-.047.899 0 1.466.048 2.129a.146.146 0 0 0 .19 0v-.095c0-.237.191-.237.477-.284.191 0 .62 0 1.001-.047.477-.047.477.047.525.236v.095c.047.047.19 0 .19 0-.047-.378-.047-.851-.047-1.23 0-.142-.143-.142-.191-.094m8.198-11.21c-.19.047-.286.379-.286.52-.048.142-.048.379-.048.379 0 .047-.047.047-.143 0-.095 0-.19-.19-.238-.284 0-.095 0-.19-.048-.236.048 0 .096.047.143 0 .096-.048.096-.142.096-.332 0-.094-.048-.141-.096-.189h-.095v-.142c0-.047-.048-.094-.095-.094-.048 0-.143-.048-.19 0-.096 0-.144.047-.192.047-.047.095-.047.142-.047.142 0 .047.047.095.047.095-.047 0-.095 0-.095.047-.048.047-.048.142-.048.19.048.14.096.236.191.283.048 0 .095 0 .095-.047 0 .047.048.141.048.236s0 .331-.095.378c-.048 0-.096.048-.096 0l-.19-.33c-.143-.237-.286-.426-.43-.426a.362.362 0 0 0-.19.094c-.048.095-.048.284.048.379.095.094.238.142.286.094l.286.568c.047.142.143.378.19.52.048.142.191.237.382.284 0 0 .095 1.324.476 3.973.048.094.286.142.382.094.143-.047.333-.094.286-.283-.43-2.649-.715-3.926-.715-3.879.143-.094.286-.189.286-.378v-.615c0-.236 0-.378.047-.615a.262.262 0 0 0 .239-.142c.047-.142.047-.284 0-.378-.048.047-.096 0-.191.047m-.334 9.27c.096.142.382.284.81.237.382-.047.573-.237.668-.473.095.095.334 1.088-.524 1.182-.858.095-1.001-.71-.954-.946m1.716-1.655c-.047-.047-.095-.095-.19-.095.047-.094.095-.094.095-.189.048-.094.048-.189 0-.378-.048-.095-.143-.095-.238-.142 0-.047.047-.047.047-.142.048-.142 0-.19-.047-.284-.096-.142-.43-.142-.477-.047-.095.19-.334.284-.524.284a.915.915 0 0 1-.62-.095c-.143-.094-.238-.094-.334 0a.598.598 0 0 0-.19.426c0 .19.143.284.143.378.047.142-.096.237-.048.379.048.142.143.189.19.283.048.095 0 .19 0 .331 0 .142.144.237.191.284.048.095 0 .237.048.284.095.095.143.095.286.142.238.047.572.047.953-.095.191-.094.43-.189.525-.425.047-.095 0-.237-.048-.331.095-.048.143-.095.143-.19.19-.189.143-.33.095-.378m-.81.615c-.048.047-.143.047-.19.047 0 .047.047.142.047.142s-.19.047-.19 0c-.048 0-.048-.047-.096-.095-.048 0-.095.048-.19 0-.048 0-.096-.189-.096-.236.048-.047.095 0 .19-.047-.047-.048-.047-.142-.047-.142s.19-.047.19 0c.048.047.048.094.048.142.048 0 .143-.048.191 0 .143 0 .19.142.143.189m3.908-7.331c.048-.426.191-.757.286-.993 0-.048-.095-.142-.095-.142-.048 0-2.097.52-3.813 1.56-.334.19-.095.946.143 1.467.763 1.797 1.62 1.56 1.954 2.932.095.473.524 2.176.572 2.412.143.473.572.757 1.096.71-.143-2.223-.38-5.865-.143-7.946m-2.192 1.466c-.048.237-.286.71-.381.71-.143-.048-.286-.568-.286-.805 0-.141.047-.189.095-.236.048 0 .143.19.143.426h.143c.048-.284.19-.426.238-.379.096 0 .096.142.048.284m.762-1.513c.048-.142.048-.19.096-.19.047 0 .095.19.047.426h.143c.096-.236.239-.331.286-.331.048.047.048.142 0 .236-.095.19-.333.615-.476.568-.096.047-.143-.473-.096-.71m.715 2.65c-.095.236-.38.756-.524.709-.19-.048-.238-.663-.19-.899 0-.142.047-.237.142-.237.048 0 .096.19.096.52h.143c.095-.33.238-.425.286-.378.095.048.095.142.047.284m9.676-2.128c-1.859-1.135-3.908-1.608-3.956-1.608-.048 0-.143.094-.095.142.095.189.238.52.286.946.238 2.08 0 5.722-.143 7.993.524.047.905-.237 1.096-.71.095-.236.429-1.939.572-2.412.286-1.135 1.716-1.608 2.097-2.838.19-.567.477-1.324.143-1.513m-2.955-.568c.048 0 .19.048.286.331h.143c-.048-.236 0-.425.048-.425.047 0 .095.047.095.189.048.189 0 .71-.143.757-.095.047-.381-.379-.477-.568 0-.142 0-.236.048-.284m.477 3.784c-.143.047-.43-.473-.525-.71-.047-.141-.047-.283 0-.33.048-.048.191.094.286.378h.143c0-.284.048-.52.096-.52.047 0 .095.094.143.236.095.284 0 .899-.143.946m1.382-1.466c-.143 0-.334-.473-.381-.71-.048-.142 0-.236.047-.283.048 0 .19.094.239.378h.143c0-.284.095-.473.143-.473.047 0 .095.095.095.236 0 .284-.143.804-.286.852m-3.766-5.818s0-.378-.333-.473V14.4s.333-.048.524.094v.142c.238.568-.143.804-.143 1.23-.477-.284-.858-.284-.858-.284l-.238-.615s.095-.047.334-.047c.238 0 .524-.047.714.047m-1.572-1.939c-.668 0-1.383.047-1.812.284-.095-.19-.238-1.04-.524-1.325-.048-.047-.143-.189-.19-.189-.048-.047-.048-.094 0-.094.047 0 .095-.048.19 0 .095 0 .143.047.19.189h.048v-.19c0-.047.096-.094.191.048.048.047.095.095.095.142 0 .047.048.142 0 .19-.047.046-.095 0-.143 0v.046c.096.095.286.237.477.19.238-.048.334-.19.286-.379 0 0-.048.047-.095.047-.048 0-.143 0-.191-.141-.048-.095-.048-.19 0-.19 0-.047.095-.047.19 0v-.047c-.142-.047-.142-.142-.142-.19 0-.046.047-.141.19-.141.191-.047.239.047.239.095 0 .047 0 .142-.096.189l.048.047c.048 0 .048-.047.048-.047s.047-.047.095-.047.095 0 .143.141c.048.19-.048.237-.095.237-.048 0-.096 0-.143-.047.095.189.238.33.524.283.238 0 .381-.142.381-.425 0 0-.047.047-.143.047-.095 0-.143-.047-.143-.19-.047-.141 0-.188.096-.236.047-.047.143 0 .143.048v-.048c-.048-.047-.096-.094-.096-.189 0-.047.096-.094.239-.094s.238.047.238.094-.048.095-.095.19v.047s.095-.048.143-.048c.047 0 .095.095.095.237-.048.094-.095.189-.143.189-.095 0-.095-.047-.143-.047 0 .283.19.425.381.425.239 0 .43-.094.477-.283 0 .047-.048.047-.095.047-.048 0-.143-.047-.096-.237.048-.141.096-.141.143-.141 0 0 .048 0 .096.047l.047.047.048-.047c-.095-.047-.095-.19-.095-.19 0-.047.095-.141.238-.094.143.047.19.095.19.142 0 .047-.047.142-.143.19v.046a.234.234 0 0 1 .191 0c0 .048.048.095 0 .19-.048.141-.143.141-.19.141-.048 0-.048-.047-.096-.047 0 .19.048.331.286.379.19.047.43-.095.477-.19v-.047c-.048.047-.096.047-.143 0-.048-.047-.048-.095 0-.19 0-.046.047-.094.095-.141.095-.095.19-.047.19-.047.048.047.048.094 0 .189h.048a.37.37 0 0 1 .191-.19h.19c.048 0 .048.048 0 .095-.047 0-.142.142-.19.19-.286.33-.429 1.135-.524 1.324-.43-.19-1.096-.284-1.811-.284" fill="#FFF"/><path d="M51.696 16.622c.19 0 .334-.237.334-.237h.143s.095.237.286.237c.667.094 1.191.189 1.382.283.143-.236.095-.473-.286-.71-.143-.094-.524-.236-1.096-.236-.334.379-.715-.094-1.144.048.143-.142.334-.331.524-.331l.19.094c.096.048.335-.047.382-.094.048-.048-.19-1.325-.19-1.325s.572-.33 1.048-.33c.43 0 .572.283.572.283.19-.899-.953-.851-1.763-.851-2.24 0-1.669.425-1.573 1.182 0 .19-.334.379 0 1.135a.939.939 0 0 1 .095.426c-.286.19-.381.473-.238.71.286-.142.858-.237 1.334-.284m.239-2.27c-.096.33-.143.662-.143.662s-.143-.048-.43-.048h-.714c.047-.142.095-.425.429-.425v-.095l-.43-.095c.334-.71 1.145-.094 1.288 0m1.715 2.79c-1.096-.188-2.097-.188-3.193.048-.19.757-.429 2.365-.048 2.838.096.095.715.378 1.287.237.143-.095.143-.805.19-1.136.049-.473.049-.52.096-.52h.19c.096.047.049 1.514.24 1.608.524.19 1.286-.047 1.43-.236.333-.379 0-2.365-.192-2.838m-1.572.662c-.525 0-.668-.142-.668-.426 0 0 .143.095.668.095.524 0 .667-.095.667-.095 0 .284-.19.426-.667.426m0 13.574c-1.669 0-3.623.19-4.385.331-.191-.425-.668-1.56-1.335-2.317-.095-.095-.381-.378-.429-.473-.048-.047-.095-.19 0-.19.143-.047.286-.047.429-.047.238.048.381.142.429.426l.095.047c-.047-.141-.047-.283.048-.378.048-.047.238-.142.524.095.143.142.19.236.239.378.047.142.095.284-.048.378-.095.048-.238.048-.381 0v.095c.19.236.667.52 1.191.473.62-.095.763-.426.715-.804 0 0-.048 0-.048-.047a.657.657 0 0 1-.19.141c-.096 0-.286 0-.477-.283-.095-.237-.095-.379-.048-.426.048-.047.191-.095.477-.047v-.048c-.334-.094-.381-.283-.381-.425 0-.095.095-.284.476-.331.43-.095.572.094.62.189.048.094 0 .33-.19.473l.047.047c.048-.047.095-.094.143-.094.048-.048.143-.048.19-.048.144 0 .239.048.334.379.096.425-.19.473-.238.473-.095 0-.238-.048-.286-.048l-.048.048c.239.425.62.71 1.24.662.572-.048.953-.331.953-.946 0 0-.048 0-.048-.047 0 0-.095.141-.286.141-.19 0-.333-.141-.381-.378-.095-.284.048-.426.19-.473a.414.414 0 0 1 .382.095l.048-.048c-.096-.094-.191-.236-.191-.378.048-.142.238-.284.572-.284.334 0 .524.095.572.284.048.095-.048.236-.19.378l.047.048c.048-.048.238-.142.381-.095.143.047.239.19.19.473-.047.237-.19.378-.38.378-.191 0-.286-.141-.286-.141s-.048 0-.048.047c0 .615.429.946.953.946.62.047 1.001-.19 1.24-.662 0 0 0-.048-.048-.048a.713.713 0 0 1-.286.048c-.096 0-.334-.095-.239-.473.096-.331.191-.379.334-.379.048 0 .143.048.19.048.048.047.096.047.144.094l.047-.047c-.19-.142-.238-.379-.19-.473.047-.095.19-.284.62-.19.38.048.476.237.476.332 0 .094-.048.33-.381.425v.048c.286-.095.429-.048.476.047.048.047.048.237-.047.426-.143.283-.382.283-.477.283-.095 0-.143-.094-.19-.141 0 0-.048 0-.048.047-.048.378.095.71.715.804.524.095 1-.19 1.191-.473v-.095c-.143.048-.286.095-.381 0-.143-.094-.095-.236-.048-.378a.836.836 0 0 1 .239-.378c.238-.237.429-.142.524-.095a.5.5 0 0 1 .048.378l.095-.047c.048-.284.19-.378.429-.426a.6.6 0 0 1 .429.048c.095.047.048.142 0 .189-.048.047-.334.331-.43.473-.666.71-1.143 1.892-1.334 2.317-.62-.141-2.621-.33-4.29-.33Zm-1.287 7.663c.095 0 .143-.048.238-.142h-.334c0 .094 0 .142.096.142m.047-3.122h-.333c0 .095.047.142.095.142.143 0 .19-.047.238-.142m3.146.993h.095c.239 0 .43-.142.43-.426 0-.283-.239-.378-.43-.378-.476 0-.476.52-1 .615h.285c.334.047.525.047.62.19" fill="#FFF"/><path d="M52.078 31.993c-2.336 0-3.766.237-4.29.331 0 .379.143 3.642.238 6.149.143 3.027 1.764 3.973 4.052 3.973 2.144 0 3.908-.473 4.051-3.973.143-2.507.238-5.77.238-6.149-.476-.094-1.906-.33-4.29-.33m.43.709c.143 0 .19.094.19.142h.143c0-.048.048-.142.19-.142.191 0 .24.142.24.142 0 .236-.334.283-.43.378h-.047c-.096-.095-.43-.142-.43-.378-.095 0-.095-.142.144-.142m-2.24.236h.142l-.095-.473h.048a.51.51 0 0 1 .19.237h.048c0-.095.095-.237.095-.237h.096c.047.095.095.237.095.237h.048s.047-.142.19-.237h.048l-.095.379c.143 0 .476.52.476.993.143-.047.858-.047.906-.047-.477-.048-.81-.284-.81-.946h.143c.238.047.38.236.38.33 0 .095-.047.143-.094.19 0 .094.19.236.524.236.715 0 .667-.804 1.573-.804.333 0 .81.142.81.662 0 .568-.667.615-.81.615.095.095-.048.331.286.331.286 0 .667-.094.81-.094.238 0 .095.284.286.473.143.142.143.189.143.236 0 .048-.048.142-.095.142v-.094h-.048s-.048 0-.095-.095c-.096 0-.096.047-.096.095v.094c0 .095-.095.095-.095.095v.094c-.048 0-.095-.047-.095-.142v-.094c0-.047 0-.047-.048-.047h-.048s0 .141-.095.141h-.095l-.048.048v.047c-.048.142-.048.095-.048.047 0-.142.096-.094.096-.142 0-.047-.048-.047-.048-.047H54.7c-.048.047-.048.047-.048.095 0-.048-.047-.095-.047-.095 0-.094.095-.142.238-.142h.143c.095 0 .19-.094.19-.142-.19 0-.857.237-1.43.237-.81 0-.19-.993-.81-.993-.62 0-.762.662-1.43.662-.238 0-.428-.048-.476-.048 0 .19 0 .284-.19.284-.144 0-.668.048-1.478.048-.048.283-.143.33-.239.33-.047 0-.095-.047-.143-.047.048 0 .143 0 .143-.047l-.047-.047s0-.048.047-.095h-.047c-.096 0-.19.19-.334.19-.048 0-.095-.048-.095-.095-.048 0-.096.047-.096.094 0-.094.048-.189.143-.189.096 0 .096 0 .096-.047v-.047h-.096c-.095 0-.143-.048-.143-.095 0 0-.047 0-.095.047 0-.094.095-.189.143-.189.095 0 .095 0 .19.047v-.047c0-.047-.047-.047-.142-.095-.048 0-.048-.094-.096-.094-.047 0-.095.047-.095.047.048-.094.095-.189.238-.189.239 0 .239.236.525.236.381 0 1-.047 1.096-.094-.095-.095-.143-.142-.143-.284s.143-.331.19-.426h-.095c-.047 0-.143 0-.143-.094 0-.095.048-.142.096-.19h.095c0 .048.048.095.238.095.191 0 .239-.094.239-.189 0-.236-.096-.284-.286-.284-.143 0-.143 0-.143.095h-.096c-.047-.095-.095-.19-.095-.284-.19-.095-.143-.142.095-.142m1.764 2.46h-.048c-.143 0-.143.283-.381.142-.048 0-.048.047 0 .094-.048-.047-.095-.094-.048-.142.048-.047.143-.094.143-.142 0 0 0-.047-.047-.047-.096 0-.143.142-.239.047v-.047s-.047 0-.095.047c0-.094.048-.094.095-.142.096-.047.19-.047.19-.047v-.047c-.047-.047-.142.047-.142-.047-.048 0-.095 0-.095.047 0-.095.095-.142.19-.19.096 0 .286.095.43.143h.333c.095 0 .095-.048.048-.19-.048-.236 0-.425.19-.567.143-.095.286-.095.43-.095.047.048.095.095.095.19 0 .094 0 .141.047.283a.517.517 0 0 0-.333.142c-.048.095.047.237.047.331 0 .095-.047.095-.143.142h-.381v.047c0 .048-.048.142-.143.142-.095.048-.143.095-.238.048.047 0 .095-.048.095-.048-.095-.047 0-.094 0-.094m.477.33c.143 0 .19.095.19.143h.143c0-.048.048-.142.19-.142.191 0 .24.142.24.142 0 .236-.334.283-.43.378h-.047c-.096-.095-.43-.142-.43-.378-.095-.048-.095-.142.144-.142m-2.574 1.75a.657.657 0 0 1-.19-.142c-.192-.19-.24-.473-.382-.615-.143-.19-.239-.284-.239-.331h-.19c-.048 0-.19 0-.286-.19.047 0 .095.048.095.048 0-.047.048-.047.048-.047.047 0 .047.047.095.047h.048v-.047c0-.095-.096-.095-.143-.095-.143 0-.143-.142-.143-.142s0-.047-.048-.047h-.048a.366.366 0 0 1 .239-.095c.095 0 .19.142.238.142.048 0 .048-.047.048-.047 0-.047-.048-.047-.096-.095l-.047-.047v-.047c-.048-.048-.048-.048-.143-.048.095-.047.143-.047.19-.047.143 0 .239.142.239.237.047 0 .047 0 .047-.048v-.047c0-.047 0-.095.048-.095 0-.047-.048-.047-.095-.047h.095c.048 0 .19.047.19.19 0 .141-.095.236-.095.283 0 .095.43.757.62.899-.095.047-.238.33-.095.473m-.382-1.466h.096c.238 0 .238.33.524.33.143 0 .143-.047.238-.047.048 0 .096 0 .096.095 0 .094-.048.094-.239.094-.572.048-.429-.283-.715-.472m.048-2.98c.238 0 .238.33.524.33.143 0 .143-.046.239-.046.047 0 .095 0 .095.094 0 .095-.048.095-.238.095-.572 0-.43-.331-.763-.473.095.047.143 0 .143 0m-.858-.19c.095 0 .19.142.238.142.048 0 .048-.047.048-.047 0-.047-.048-.047-.095-.094l-.048-.048v-.047c0-.047-.048-.047-.095-.047.095-.048.143-.048.19-.048.143 0 .239.142.239.237.047 0 .047 0 .047-.047v-.048c0-.047 0-.094.048-.094 0-.048-.048-.048-.095-.048h.095c.048 0 .19.048.19.19 0 .141-.095.189-.095.283 0 .095.43.757.62.899-.095.142-.238.378-.048.52a.632.632 0 0 1-.19-.142c-.19-.189-.239-.473-.382-.614-.143-.19-.238-.284-.238-.332h-.19c-.048 0-.191 0-.287-.189.048 0 .096.048.096.048 0-.048.047-.048.047-.048.048 0 .048.048.096.048h.047v-.048c0-.094-.095-.094-.143-.094-.143 0-.143-.142-.143-.142s0-.048-.047-.048h-.048c0-.094.048-.141.143-.141m-.238.85c.143 0 .19.096.19.143h.143c0-.047.048-.142.191-.142.19 0 .238.142.238.142 0 .236-.333.284-.429.378h-.047c-.096-.094-.43-.142-.43-.378-.095-.047-.095-.142.144-.142m-.239 3.122c0-.048 0-.142.239-.142.143 0 .19.094.19.142h.143c0-.048.048-.142.191-.142.19 0 .238.142.238.142 0 .236-.333.283-.429.378h-.047c-.19-.095-.525-.142-.525-.378m.382 1.23c.095 0 .095 0 .095-.048v-.047h-.095c-.096 0-.143-.048-.143-.095 0 0-.048 0-.096.047 0-.094.096-.189.143-.189.096 0 .096 0 .191.048v-.048c0-.047-.048-.047-.143-.094-.048 0-.048-.095-.095-.095-.048 0-.096.047-.096.047.048-.094.096-.189.239-.189.238 0 .238.237.524.237.381 0 .906-.048 1.001-.095-.048-.047-.143-.095-.143-.236 0-.142.143-.332.19-.426h-.095c-.047 0-.143 0-.143-.095 0-.094.048-.142.096-.189h.095c0 .095.048.095.238.095.191 0 .239-.095.239-.19 0-.236-.096-.236-.286-.236-.143 0-.143 0-.143.095h-.096c-.047-.095-.095-.19-.095-.284 0-.095.048-.142.286-.142h.143l-.095-.473h.047a.513.513 0 0 1 .191.236h.048c0-.094.095-.236.095-.236h.095c.048.095.096.236.096.236h.047s.048-.141.191-.236h.048l-.096.378c.143 0 .477.52.477.994.143-.048.858-.048.906-.048-.477-.047-.81-.284-.81-.946h.142c.239.048.382.237.382.331 0 .095-.048.142-.096.19 0 .094.19.236.525.236.714 0 .571-.804 1.525-.804.333 0 .81.142.81.662 0 .568-.572.615-.715.615.095.095-.095.473.238.426.286-.048.668-.19.763-.19.238-.047.143.284.381.474.143.141.191.141.191.189 0 .047 0 .142-.095.189v-.095H55.7s-.048 0-.095-.094c-.096.047-.096.047-.096.094 0 .048 0 .048.048.095 0 .094-.048.094-.095.142v.094c-.048 0-.096-.047-.143-.094v-.095c0-.047-.048-.047-.048-.047h-.048s0 .142-.095.142h-.095s-.048.047 0 .047v.047l-.096-.094c0-.142.096-.095.096-.142 0-.047-.048-.047-.048-.047-.048 0-.048.047-.095.047h-.048c0 .047-.048.047-.048.094-.047-.047-.047-.047-.047-.094 0-.095.095-.142.19-.19h.143c.096 0 .143-.094.143-.188-.19.047-.858.283-1.382.283-.81 0-.19-1.04-.81-1.04-.62 0-.763.662-1.43.662-.238 0-.429-.047-.477-.047 0 .189 0 .283-.19.283-.143 0-.525.048-1.383.048-.047.283-.143.33-.238.33-.048 0-.095-.047-.143-.047.048 0 .143 0 .143-.047l-.048-.047s0-.047.048-.095h-.048c-.095 0-.19.19-.333.19-.048 0-.096-.048-.096-.095-.047 0-.095.047-.095.094-.286-.094-.238-.189-.095-.189m3.384.284h-.048c-.143 0-.143.284-.381.142-.048 0-.048.047 0 .095-.048-.048-.095-.095-.048-.142.048-.048.143-.095.143-.142 0 0 0-.048-.047-.048-.096 0-.143.142-.239.048v-.048s-.047 0-.095.048c0-.048.048-.095.095-.142.096-.047.19-.047.19-.047v-.048c-.047-.047-.142.048-.142-.047-.048 0-.095 0-.095.047 0-.094.095-.142.19-.189.096 0 .286.095.43.142h.333c.095 0 .095-.047.048-.19-.048-.236 0-.425.19-.567.143-.094.286-.094.43-.094.047.047.095.094.095.189 0 .094 0 .142.047.284a.517.517 0 0 0-.333.142c-.048.094.047.236.047.33 0 .095-.047.095-.143.142h-.381v.048c0 .047-.048.142-.143.142-.095.047-.143.047-.238.047.047 0 .095-.047.095-.047-.095-.048 0-.095 0-.095m.477.378c.143 0 .19.095.19.142h.143c0-.047.048-.142.19-.142.191 0 .24.142.24.142 0 .237-.334.284-.43.379h-.047c-.096-.095-.43-.142-.43-.379-.095-.047-.095-.142.144-.142m-2.336 1.75-.19-.094c-.191-.19-.239-.473-.382-.615-.143-.142-.238-.284-.238-.284h-.19c-.049 0-.192.048-.24-.189.048 0 .048.047.096.047 0-.047.048-.047.048-.047h.047s.048 0 .048-.047c0-.048-.048-.095-.095-.095-.096 0-.143-.094-.143-.142 0 0 0-.047-.048 0h-.048c.048-.094.143-.094.191-.094.095 0 .143 0 .19.094l.048-.047c0-.047-.047-.047-.095-.047l-.048-.048v-.047c-.047-.047-.047-.047-.095-.047.095-.048.095-.095.143-.095.19 0 .238.142.238.237.048 0 .048-.048.048-.048v-.047c0-.047 0-.095.048-.095 0-.047-.048-.047-.096-.047.048 0 .048-.047.096-.047.047 0 .143.047.19.142 0 .142-.047.236-.047.284 0 .094.429.709.62.85-.096.143-.239.427-.096.568m-.429-1.418h.095c.239 0 .239.33.525.33.143 0 .143-.047.238-.047.048 0 .095 0 .095.095s-.047.095-.19.095c-.572 0-.43-.332-.763-.473m-1.24.804c0-.048 0-.142.24-.142.142 0 .19.094.19.142h.143c0-.048.047-.142.19-.142.191 0 .239.142.239.142 0 .236-.334.283-.43.378h-.047c-.19-.047-.524-.142-.524-.378m4.242.993c-.048.094.048.284.048.378 0 .095-.048.142-.096.142-.047 0-.143.047-.333.095 0 0 .047.047.047.142 0 .094-.19.141-.238.141.048-.047.048-.094.048-.094-.096-.047 0-.095 0-.095h-.048c-.143.048-.048.331-.286.237-.048.047 0 .047 0 .094-.048 0-.095-.094-.095-.142l.143-.141s0-.048-.048 0c-.095 0-.095.141-.19.094v-.047s-.048 0-.096.047c0-.047 0-.094.095-.142.048-.047.143-.047.143-.094-.047-.048-.143.047-.19 0-.048 0-.048.047-.096.094a.26.26 0 0 1 .143-.236c.096-.047.286.047.43 0a.483.483 0 0 0 .142-.047c.048 0 .048 0 .096-.048.095 0 .047-.047 0-.189-.096-.19.047-.615.19-.71.096-.094.239-.094.382-.094.047.047.047.095.047.19 0 .094 0 .141.048.283-.095 0-.238 0-.286.142m2.526.236v-.094h-.048c-.047 0-.047 0-.095-.048-.048.048-.095.095-.048.095 0 .047 0 .047.048.095 0 .094-.048.142-.048.142v.094c-.047 0-.095 0-.143-.094v-.095c0-.047 0 0-.047 0h-.048c0 .047 0 .142-.048.142H54.7v.094c-.048 0-.048-.047-.095-.094-.048-.095.047-.142.047-.19h-.047c-.048.048-.048.048-.096.048h-.047v.095c-.048-.048-.048-.048-.048-.095 0-.095.048-.19.143-.19h.095c.048 0 .143-.141.096-.188-.19.047-.715.425-1.192.425-.667 0-.143-1.135-.715-1.135-.524 0-.715.662-1.287.662-.19 0-.381-.047-.429-.047 0 .19 0 .284-.19.284-.143 0-.334.047-1.097.047-.047.284-.095.331-.19.331-.048 0-.096-.047-.096-.047.048 0 .096 0 .096-.047l-.048-.048s0-.047.048-.047H49.6c-.095 0-.19.142-.334.142-.047 0-.095-.047-.095-.095-.048 0-.095.048-.095.095 0-.095.047-.19.143-.19.095 0 .095 0 .095-.047v-.047h-.095c-.048 0-.143-.047-.143-.095 0 0-.048 0-.096.048 0-.095.096-.19.143-.19.096 0 .096 0 .191.048v-.047c0-.048-.048-.048-.143-.095-.048 0-.048-.095-.095-.095-.048 0-.096.048-.096.048 0-.095.096-.19.239-.19.19 0 .19.237.476.237.334 0 .62-.047.715-.095-.047-.094-.143-.142-.143-.283 0-.142.096-.332.143-.426h-.095c-.048 0-.143 0-.143-.095 0-.094.048-.142.095-.189h.096c0 .095.047.095.238.095.19 0 .238-.095.238-.19 0-.236-.095-.283-.286-.283-.143 0-.143 0-.143.094h-.095c-.048-.094-.095-.189-.095-.283 0-.095.047-.142.286-.142h.143l-.048-.473h.048c.095.094.19.236.19.236h.048c0-.094.095-.236.095-.236h.048a.629.629 0 0 1 .048.236h.047s.048-.142.143-.236h.048l-.048.378c.143 0 .43.52.43.993.142-.047.762-.047.81-.047-.43-.047-.763-.284-.763-.946h.143c.238.047.334.237.334.331 0 .095-.048.142-.096.19 0 .094.143.236.477.236.62 0 .667-.71 1.43-.71.286 0 .667.095.667.615s-.572.615-.667.615c.095.095-.19.52.095.473.286-.095.572-.284.667-.284.239-.047.143.237.382.379.143.094.19.142.19.189-.047.094-.047.189-.095.236m.048-.851h-.048c-.095-.095-.429-.142-.429-.378 0-.048 0-.142.238-.142.143 0 .191.094.191.142h.143c0-.048.048-.142.19-.142.191 0 .239.142.239.142-.095.236-.429.33-.524.378m.19-3.027h-.047c-.096-.095-.43-.142-.43-.378 0-.048 0-.142.239-.142.143 0 .19.094.19.142h.144c0-.048.047-.142.19-.142.191 0 .239.142.239.142-.096.236-.43.283-.525.378m0-2.98h-.047c-.096-.094-.43-.142-.43-.378 0-.047 0-.142.239-.142.143 0 .19.095.19.142h.144c0-.047.047-.142.19-.142.191 0 .239.142.239.142-.048.236-.382.284-.525.378" fill="#FFF"/><path d="M54.318 39.514c0-.237-.19-.332-.334-.332-.381 0-.524.473-1 .568h.237c.334 0 .477.047.572.142h.048c.238 0 .477-.142.477-.378m-.334-5.582h.095c.239 0 .477-.141.477-.425 0-.284-.238-.379-.381-.379-.477 0-.525.568-1.096.615h.285c.334.048.525.095.62.19m-3.384-.805c.143 0 .19-.047.238-.142h-.333c0 .048.047.142.095.142m11.106-8.75c.19 0 .333.095.333.331 0 .332-.143.473-.286.473s-.476-.094-.476-.425c0-.331.333-.379.429-.379m-1.812.095c.143 0 .286.142.334.236.048-.141.19-.189.286-.189.19 0 .286.142.381.379.096.189.239.425.525.473 0 .378-.096.614-.43.614-.142 0-.238-.047-.285-.047-.096.095-.143.19-.382.19-.143 0-.333-.095-.38-.19-.144.095-.192.19-.382.19-.143 0-.286-.143-.382-.237-.095.047-.143.047-.238.047-.238 0-.429-.52-.429-.71 0-.141.095-.283.286-.283.048 0 .143.047.19.047 0-.094.048-.33.287-.33a.51.51 0 0 1 .286.094c.047-.142.095-.284.333-.284" fill="#FFF"/><path d="M59.8 22.297c-.43 0-1.526.52-1.526 1.561 0 .237 0 .52.047.662.048-.047.096-.047.143-.047.048 0 .191.047.239.142 0-.142.047-.331.333-.331.143 0 .191.047.286.094.048-.236.239-.283.382-.283a.51.51 0 0 1 .429.283c0-.189.143-.236.286-.236.286 0 .381.19.524.426 0-.284.429-.426.715-.426h.095c0-.851-.381-1.514-1.287-1.75.191-1.419.096-1.514.048-1.56-.048-.048-.095-.096-.19-.096v-.189c.142-.047.238-.142.238-.283 0-.095-.096-.757-.096-.757 0-.095.048-.142.096-.142.047 0 .667.236.715.284.143 0 .286-.142.286-.284 0-.19-.096-.331-.239-.331-.095 0-.62.142-.762.142-.048 0-.143-.095-.096-.142 0 0 .191-.662.239-.757 0-.142-.143-.284-.286-.284-.191-.047-.334.048-.334.237 0 .094.095.756.095.756 0 .048-.047.142-.143.142-.143-.047-.667-.236-.715-.236-.143 0-.286.142-.286.284 0 .189.096.33.239.33.095 0 .715-.141.762-.141.096 0 .096.047.096.142 0 0-.19.662-.19.757 0 .141.047.236.19.283v.19c-.048 0-.143 0-.19.047 0 0-.096.094-.144 1.513" fill="#FFF"/></g></svg>