<svg viewBox="0 0 90 90" xmlns="http://www.w3.org/2000/svg"><g fill="none" fill-rule="evenodd"><path fill="#FFF" d="M0 0h90v90H0z"/><g fill-rule="nonzero"><g fill="#000"><path d="M79.021 39.344a9.242 9.242 0 0 0-3.722-.764c-1.375.05-2.655.339-3.84.865a10.18 10.18 0 0 0-3.099 2.077 9.9 9.9 0 0 0-2.038 3.054c-.494 1.162-.74 2.42-.74 3.762 0 1.387.254 2.667.763 3.84a9.818 9.818 0 0 0 2.077 3.077 9.704 9.704 0 0 0 3.099 2.02c1.2.483 2.484.73 3.778.725 1.359-.006 2.622-.258 3.8-.77a9.867 9.867 0 0 0 3.077-2.07 10.364 10.364 0 0 0 2.055-3.078c.51-1.162.763-2.408.769-3.744-.006-1.37-.264-2.644-.786-3.818-.508-1.15-1.22-2.2-2.1-3.099a10.091 10.091 0 0 0-3.093-2.077ZM75.3 43.835c1.28.05 2.332.507 3.155 1.37.837.848 1.28 1.885 1.33 3.11a4.442 4.442 0 0 1-.353 1.769 4.804 4.804 0 0 1-.977 1.426 4.184 4.184 0 0 1-3.155 1.353 4.34 4.34 0 0 1-1.74-.348 5.109 5.109 0 0 1-2.414-2.431 4.626 4.626 0 0 1 0-3.548 4.338 4.338 0 0 1 .999-1.41c.404-.41.885-.735 1.415-.96a4.332 4.332 0 0 1 1.74-.33ZM61.101 32.882a2.409 2.409 0 0 0-1.819-.764c-.724.023-1.325.275-1.802.764a2.784 2.784 0 0 0-.842 1.723v16.01c-.006.93.18 1.85.544 2.705.344.832.843 1.59 1.471 2.235a7.302 7.302 0 0 0 2.195 1.544c.827.39 1.73.592 2.645.59h.567c.696-.107 1.263-.405 1.706-.899a2.526 2.526 0 0 0 .668-1.707 2.495 2.495 0 0 0-.825-1.802 2.582 2.582 0 0 0-1.841-.724c-.54-.006-.972-.191-1.314-.573-.354-.365-.528-.814-.528-1.353V34.757c-.056-.741-.325-1.37-.825-1.875Zm-20.749 5.957a2.424 2.424 0 0 0-1.65-.63 2.215 2.215 0 0 0-1.056.237 2.573 2.573 0 0 0-1.342 1.375l-.068.168a2.6 2.6 0 0 0-.14.865v2.92c.207-.497.453-.975.736-1.432v.005a2.305 2.305 0 0 1 .162-.258l.438-.617c.012-.017.023-.028.034-.045.073-.096.152-.197.23-.287l.006-.005c.316-.38.66-.737 1.027-1.067.398-.36.82-.692 1.263-.994.13-.081.247-.162.36-.235Z"/><path d="M46.97 38.266a4.531 4.531 0 0 0-.55-.04h-.567c-1.583 0-3.037.332-4.35 1-.36.18-.707.384-1.04.612-.4.272-.78.571-1.139.895a9.54 9.54 0 0 0-.926.96c-.073.085-.14.174-.213.259l-.438.617-.118.197c-.708 1.15-1.162 2.459-1.376 3.924-.039.27-.073.55-.09.83a1.647 1.647 0 0 0-.016.231c-.04.37-.062.68-.079.938l-.017.123a4.047 4.047 0 0 1-.309 1.061 4.279 4.279 0 0 1-.993 1.37 5.04 5.04 0 0 1-1.41.882 4.653 4.653 0 0 1-2.01.303 4.427 4.427 0 0 1-1.464-.343 4.656 4.656 0 0 1-1.415-.982 4.455 4.455 0 0 1-.977-1.41 4.373 4.373 0 0 1-.354-1.745v-7.074a2.563 2.563 0 0 0-.803-1.898c-.533-.522-1.15-.786-1.84-.78-.748.022-1.365.297-1.86.82-.493.522-.746 1.128-.746 1.824v7.383a8.68 8.68 0 0 0 .803 3.666 9.849 9.849 0 0 0 5.255 5.092 8.468 8.468 0 0 0 3.7.668 9.491 9.491 0 0 0 3.8-.764c.463-.202.911-.436 1.342-.701a9.85 9.85 0 0 0 1.751-1.376 10.033 10.033 0 0 0 2.077-3.1c.4-.908.624-1.908.691-2.986.067-1.184.202-2.015.41-2.498a4.446 4.446 0 0 1 1-1.426 4.65 4.65 0 0 1 1.408-1 3.98 3.98 0 0 1 1.685-.353 4.122 4.122 0 0 1 1.723.354 4.533 4.533 0 0 1 1.432.999c.423.405.763.89.999 1.426.235.544.355 1.13.354 1.724a4.484 4.484 0 0 1-.354 1.785 4.586 4.586 0 0 1-.977 1.41c-.402.409-.88.735-1.409.96a4.743 4.743 0 0 1-1.768.336 4.222 4.222 0 0 1-.988-.13 4.337 4.337 0 0 1-2.066-1.206 4.547 4.547 0 0 1-.63-.724c-.14.593-.33 1.174-.572 1.734a11.135 11.135 0 0 1-2.032 3.139c-.006.005-.011.011-.011.017.308.27.632.521.97.752a8.958 8.958 0 0 0 2.168 1.1 9.628 9.628 0 0 0 3.222.528 9.365 9.365 0 0 0 4.172-.92 5.34 5.34 0 0 0 .314-.18c.118-.062.241-.118.37-.174.562.847 1.307 1.272 2.235 1.274.668 0 1.269-.258 1.802-.764.533-.505.803-1.122.803-1.841v-7.116a9.375 9.375 0 0 0-.663-3.509 10.476 10.476 0 0 0-1.802-2.956 9.477 9.477 0 0 0-6.113-3.194v-.003ZM9.626 32.78A2.597 2.597 0 0 0 7.723 32c-.741-.005-1.381.27-1.92.82-.54.55-.803 1.168-.803 1.864v20.279c0 .74.28 1.375.842 1.897.562.522 1.185.786 1.88.786.72 0 1.348-.275 1.887-.825.533-.545.797-1.168.797-1.858v-4.166L9.29 49.652c-.584-.59-.87-1.213-.87-1.876v-.09c.017-.606.202-1.083.55-1.437l1.437-1.465v-10.1c0-.744-.258-1.381-.78-1.903Z"/></g><g fill="#90C9F4"><path d="m14.982 47.765.1.101-.1-.1Z"/><path d="m15.055 47.838-.073-.073-3.795 3.823 4.682 4.778.062.062.465.466a2.73 2.73 0 0 0 4.598-1.359 2.63 2.63 0 0 0 .057-.567 2.758 2.758 0 0 0-.057-.572 2.596 2.596 0 0 0-.645-1.264l-5.294-5.294Z"/></g><path d="M8.97 46.25c-.349.353-.534.83-.551 1.437v.09c0 .662.286 1.285.87 1.875l1.898 1.936 3.795-3.823-3.784-3.784-2.229 2.268Z" fill="#95E961"/><path d="M20.253 38.726a2.634 2.634 0 0 0-1.925-.8c-.753 0-1.393.27-1.932.803l-1.847 1.836v.006l-3.351 3.413 3.784 3.784.005-.006 3.593-3.548 1.275-1.291.022.022.253-.247c.045-.039.078-.073.123-.118a2.725 2.725 0 0 0 0-3.85v-.004Z" fill="#C2FF66"/></g></g></svg>