<svg viewBox="0 0 90 90" xmlns="http://www.w3.org/2000/svg"><g fill="none"><path d="M30.937 86.166c-10.243-2.72-19.022-8.993-25.084-17.568 23.62 11.084 51.84.836 62.919-22.796 1.254-2.51 2.09-5.02 2.717-7.739 2.926-10.875 1.881-22.168-2.926-32.207 20.276 14.43 25.083 42.455 10.87 62.742-10.87 15.476-30.101 22.378-48.496 17.568" fill="#FFCE00"/><path d="M66.681 2.091C65.427 1.255 64.173.627 62.71 0c.836 1.255 1.672 2.3 2.299 3.555 12.333 21.542 4.808 49.148-16.723 61.487-13.796 7.948-30.727 7.948-44.732 0-1.255-.627-2.3-1.464-3.554-2.3.627 1.255 1.254 2.51 2.09 3.974 13.17 22.378 42.016 29.907 64.591 16.94 22.576-12.967 29.892-42.037 16.932-64.624-4.18-7.111-10.034-12.758-16.932-16.94M31.146 86.165c-10.243-2.72-19.022-8.993-25.084-17.568 23.62 11.084 51.84.836 62.919-22.796 1.254-2.51 2.09-5.02 2.717-7.739 2.927-10.875 1.881-22.168-2.926-32.416 20.276 14.43 25.083 42.455 10.87 62.742-11.08 15.685-30.31 22.587-48.496 17.777" fill="#251E1C"/><path d="M49.959 67.97h.209v.419l.209.627 8.152 12.758c.21.418.418.627.836.836l.21.21-.21.208-2.508 1.255h-.418v-.209c0-.418-.21-.627-.418-1.046-.418-.627-7.735-12.339-7.944-12.548l-.836-.627v-.21l2.718-1.673" fill="#251E1C"/><path d="M54.14 74.454s.835-6.274.835-7.32V65.46l-.209-.21v-.209l3.554-2.718h.209v.418c-.209.418-.209.836-.209 1.255 0 1.045-1.045 9.62-1.045 9.62l-3.136.837" fill="#251E1C"/><path d="M55.185 76.754c3.135-1.882 7.107-1.255 9.406 1.464l.627 1.046.418.21 2.509-1.674.209-.21v-.208c-.419-.21-.628-.419-.837-.628-1.88-2.091-4.39-3.555-7.107-3.764-2.299 0-4.598.418-6.689 1.464l1.464 2.3m16.722-4.601c.627.837.21 1.882-.627 2.51-.836.627-1.881.209-2.508-.628-.627-.836-.21-1.882.627-2.51.836-.417 1.881-.208 2.508.628M85.076 51.03c.627.837.21 1.882-.627 2.51-.836.627-1.881.209-2.508-.628-.627-.836-.21-1.882.627-2.51.836-.418 1.881-.208 2.508.628" fill="#251E1C"/><path fill="#251E1C" d="M53.93 74.035h.21l.208.419-.209.209h-.209zm1.673 2.928v-.209.21zM73.58 60.441h.208l.21-.209.417-.627 2.3-2.928h.418s2.3 1.673 2.717 2.091c.418.419.21 1.046.21 1.255-.21.837-.837 1.673-1.464 2.3-2.09 2.72-6.27 3.347-8.988 1.046-2.718-2.091-3.136-6.065-1.045-8.784.836-.836 1.672-1.673 2.926-2.09l.21-.21-2.718-2.091h-.21l-.208.418a2.52 2.52 0 0 1-1.046 1.046c-2.09 1.882-3.344 4.6-3.135 7.529.209 2.51 1.463 4.81 3.553 6.483 2.718 2.091 6.48 2.51 9.407 1.046 2.508-1.255 4.39-3.556 5.226-6.275.209-.836.418-1.673.836-2.51l-.21-.208h-.208l-6.48-4.81h-.21l-3.97 5.437-.628.21-.209.208.21.21 1.88 1.463"/></g></svg>