<svg viewBox="0 0 90 90" xmlns="http://www.w3.org/2000/svg"><g fill="none"><path fill="#FFF" d="M0 0h90v90H0z"/><path d="M88 90H74.597L49.31 64.783l-4.107 4.013a14.385 14.385 0 0 1-9.58 3.639c-7.956-.003-14.396-6.42-14.4-14.342.004-6.851 4.82-12.57 11.26-13.998v10.238a4.875 4.875 0 0 0-1.775 3.76c.001 2.702 2.2 4.889 4.914 4.893a4.885 4.885 0 0 0 3.152-1.14c.358-.245 7.268-7.012 7.268-7.012V48.15l3.287 3.274L74.423 26.5h13.432L56.03 58.112 88 90ZM64.842 25.928l-1.573.99a.52.52 0 0 0-.224.388l-.076 1.851c-.003.14-.098.176-.204.09l-1.43-1.185a.557.557 0 0 0-.443-.091l-1.792.502c-.135.038-.2-.038-.15-.166l.69-1.723a.523.523 0 0 0-.05-.443l-1.031-1.537c-.078-.117-.028-.205.114-.194l1.856.12a.566.566 0 0 0 .41-.183l1.152-1.454c.09-.11.189-.089.222.047l.46 1.791a.535.535 0 0 0 .297.334l1.752.64c.131.05.14.149.02.223Zm-7.158-1.69c-.547-.096-1.016-.314-1.26-.489a.411.411 0 0 1-.094-.568.41.41 0 0 1 .573-.096c.27.197.62.315.914.352.248.031.476.191.42.491-.043.23-.266.36-.553.31Zm-2.538-2.03a.382.382 0 0 0-.014.314l.844 1.787c.04.084-.004.162-.1.162l-1.983.014a.401.401 0 0 0-.283.143l-1.13 1.62c-.052.08-.138.08-.19-.006l-1.002-1.704a.366.366 0 0 0-.268-.166l-1.972-.17c-.098-.005-.14-.083-.088-.168l.98-1.713a.37.37 0 0 0 .008-.316l-.841-1.784c-.039-.089.007-.158.102-.162l1.984-.015a.394.394 0 0 0 .28-.144l1.13-1.618c.057-.082.14-.077.19.003l1.002 1.705a.393.393 0 0 0 .266.169l1.976.164c.096.009.138.087.088.169l-.979 1.716Zm-4.349-3.03a.41.41 0 0 1-.547-.184c-2.428-4.811-8.061-7.465-8.105-7.494a.401.401 0 0 1-.098-.567.402.402 0 0 1 .567-.1c.189.13 5.845 2.793 8.366 7.797.1.198.02.444-.183.547ZM44.233 3.631l-1.813.986a.597.597 0 0 0-.274.418l-.209 2.048c-.02.153-.121.191-.232.087l-1.51-1.411a.606.606 0 0 0-.477-.136l-2.021.434c-.156.038-.22-.053-.157-.192l.884-1.864a.578.578 0 0 0-.026-.493l-1.037-1.786c-.077-.13-.014-.224.14-.204l2.049.265a.625.625 0 0 0 .468-.18L41.395.071c.106-.116.212-.087.244.067l.383 2.023a.598.598 0 0 0 .311.39l1.89.83c.146.064.146.175.01.251Zm-6 5.347.882-1.367c.069-.101.154-.094.195.024l.553 1.528a.48.48 0 0 0 .29.265l1.58.416c.116.03.134.117.038.193l-1.29.994a.474.474 0 0 0-.166.356l.094 1.623c.007.122-.073.166-.17.096l-1.348-.914a.488.488 0 0 0-.395-.045l-1.516.588c-.118.045-.181-.014-.146-.13l.458-1.562a.482.482 0 0 0-.083-.384l-1.032-1.256c-.077-.098-.04-.182.081-.182l1.634-.05a.486.486 0 0 0 .34-.193Zm-1.22 8.917a.412.412 0 0 1-.201-.54c1.032-2.22 1.337-4.013 1.34-4.033a.415.415 0 0 1 .47-.337c.224.039.37.248.338.468-.012.08-.324 1.918-1.403 4.242a.41.41 0 0 1-.543.2Zm6.99 36.16-6.221 6.222a3.103 3.103 0 0 1-3.262.726V26.5h9.484v27.556Zm-8.931-43.67c-2.176-.18-5.43.24-6.854.587-.447.11-.833.202-1.138.258-1.275.222-3.562.174-3.66.17a.407.407 0 0 1 .017-.814c.023 0 2.308.049 3.503-.161.28-.048.65-.139 1.081-.244 1.475-.36 4.811-.801 7.12-.61a.403.403 0 0 1 .372.439.407.407 0 0 1-.441.374Zm-13.885 1.323a.616.616 0 0 0-.136.484l.435 2.023c.032.15-.054.22-.197.157l-1.879-.887a.615.615 0 0 0-.5.017l-1.798 1.041c-.135.076-.229.015-.21-.14l.267-2.05a.61.61 0 0 0-.174-.473l-1.546-1.382c-.117-.103-.088-.21.065-.242l2.044-.376a.633.633 0 0 0 .396-.314l.843-1.893c.06-.143.173-.148.246-.013l.996 1.818a.61.61 0 0 0 .423.278l2.066.213c.155.017.19.12.087.234l-1.428 1.505ZM15.524 24.99l.853-1.457c.066-.108.158-.102.204.015l.64 1.56a.51.51 0 0 0 .312.264l1.659.352c.122.03.146.119.052.2l-1.292 1.092a.492.492 0 0 0-.158.378l.173 1.677c.01.125-.066.176-.175.11l-1.439-.888a.483.483 0 0 0-.406-.03l-1.552.682c-.117.051-.188-.008-.157-.132l.401-1.638a.505.505 0 0 0-.097-.396l-1.13-1.258c-.083-.092-.05-.178.076-.188l1.686-.129a.49.49 0 0 0 .35-.214Zm-.86-13.42c-3.533-.087-6.25-1.631-6.36-1.698a.403.403 0 0 1-.15-.556.41.41 0 0 1 .56-.15c.024.017 2.653 1.508 5.967 1.588a.409.409 0 0 1 .397.42.403.403 0 0 1-.415.395ZM8.908 30.504l2.545.347c.125.018.173.12.103.224l-1.384 2.16a.486.486 0 0 0-.036.406l.969 2.372c.046.115-.016.207-.14.201l-2.571-.116a.493.493 0 0 0-.372.168l-1.576 2.025c-.079.1-.19.089-.246-.023l-1.186-2.271a.499.499 0 0 0-.335-.235l-2.545-.352c-.125-.013-.17-.117-.106-.222l1.387-2.159a.505.505 0 0 0 .04-.404l-.974-2.37c-.047-.118.011-.211.145-.205l2.566.117a.512.512 0 0 0 .374-.173l1.575-2.024c.08-.098.192-.087.25.025l1.18 2.274a.497.497 0 0 0 .337.235Zm-3.627 9.313a.42.42 0 0 1-.362.45.394.394 0 0 1-.45-.335c-.01-.053.15-1.704.15-1.704a.416.416 0 0 1 .453-.36c.227.029.386.23.362.456-.072.628-.154 1.418-.152 1.531l-.001-.038Zm-3.034 3.314 1.968-.344a.587.587 0 0 0 .382-.295l.831-1.81c.064-.135.17-.141.243-.006l.935 1.758a.58.58 0 0 0 .397.271l1.99.23c.149.012.18.116.076.222L7.683 44.59a.594.594 0 0 0-.136.464l.398 1.95c.028.147-.06.211-.192.147l-1.798-.874a.577.577 0 0 0-.481.014l-1.74.976c-.133.076-.22.01-.2-.132l.282-1.97a.592.592 0 0 0-.166-.454l-1.472-1.348c-.112-.104-.08-.206.07-.232Zm6.52 2.075c.039 0 1.582-.019 2.913.206a.407.407 0 1 1-.133.803c-1.232-.206-2.724-.196-2.733-.196a.403.403 0 0 1-.43-.38.408.408 0 0 1 .383-.433Zm1.25-15.44a.407.407 0 0 1-.576.005.401.401 0 0 1-.004-.577c.06-.062 1.873-1.577 3.76-2.277a.413.413 0 0 1 .526.238.406.406 0 0 1-.24.526c-1.714.635-3.451 2.074-3.467 2.085Zm2.604 15.47 1.673-.242a.487.487 0 0 0 .335-.238l.747-1.512c.056-.116.149-.116.205 0l.748 1.512a.492.492 0 0 0 .332.238l1.676.243c.124.02.155.107.065.194l-1.214 1.178a.476.476 0 0 0-.126.388l.285 1.665c.024.124-.055.178-.165.116l-1.5-.785a.481.481 0 0 0-.408 0l-1.498.785c-.111.062-.187.008-.166-.116l.29-1.665a.493.493 0 0 0-.13-.388l-1.212-1.178c-.091-.087-.062-.175.063-.194Zm4.675-21.928a.406.406 0 0 1-.337-.468c.147-.894 1.678-7.885 1.726-8.125a.408.408 0 0 1 .484-.31.405.405 0 0 1 .315.483c-.012.059-1.57 7.21-1.72 8.088a.405.405 0 0 1-.468.332Zm26.707 48.87V90H34.52V74.425c.364.024 1.107.04 1.107.04 2.973 0 5.86-.8 8.377-2.287Z" fill="#0D3387"/></g></svg>