<svg viewBox="0 0 90 90" xmlns="http://www.w3.org/2000/svg"><g fill="none"><path fill="#FFF" d="M0 0h90v90H0z"/><g fill="#003376"><path d="M26.514 52.246c-.44 0-.998.46-.919.939.225.38.637.61 1.079.599a.779.779 0 1 0-.16-1.538Zm-1.198 4.951h-.898l-1.059 1.677v-1.677h-.858v4.153h.858v-1.218l.28-.479.858 1.697h.959l-1.278-2.356zm1.996 1.618-.539-1.618h-.958l1.098 2.516v1.637h.819v-1.637l1.078-2.516h-.899zm4.472-1.078a.858.858 0 0 0-.419-.46 1.557 1.557 0 0 0-.739-.16 1.597 1.597 0 0 0-.758.16c-.184.107-.33.267-.42.46a1.697 1.697 0 0 0-.18.678 5.99 5.99 0 0 0 0 .879 5.77 5.77 0 0 0 0 .858c.016.236.077.467.18.679.085.19.233.346.42.44.238.106.498.154.758.139.254.014.508-.034.74-.14a.759.759 0 0 0 .418-.439c.128-.203.198-.438.2-.679a5.61 5.61 0 0 0 0-.858 5.87 5.87 0 0 0 0-.879c0-.24-.068-.476-.2-.678Zm-.599 2.255c.017.16.017.32 0 .48a.67.67 0 0 1-.18.26.5.5 0 0 1-.598 0 .4.4 0 0 1-.16-.26 1.098 1.098 0 0 1 0-.48 3.653 3.653 0 0 1 0-.698 3.773 3.773 0 0 1 0-.719 1.098 1.098 0 0 1 0-.48.44.44 0 0 1 .16-.279.599.599 0 0 1 .599 0c.08.08.14.175.18.28.016.16.016.32 0 .479v1.417Zm1.278-2.096h.899v3.454h.858v-3.454h.878v-.699h-2.635zm5.51-.159a.978.978 0 0 0-.439-.46 1.497 1.497 0 0 0-.739-.16 1.597 1.597 0 0 0-.758.16.898.898 0 0 0-.4.46 1.996 1.996 0 0 0-.22.678v1.737c.038.237.112.466.22.679.072.192.215.35.4.44.238.106.498.154.758.139.254.016.508-.032.739-.14a.858.858 0 0 0 .44-.439c.094-.216.155-.445.179-.679a5.77 5.77 0 0 0 0-.858 5.99 5.99 0 0 0 0-.879 2.096 2.096 0 0 0-.18-.678Zm-.639 2.255a1.08 1.08 0 0 1 0 .48.5.5 0 0 1-.18.26.4.4 0 0 1-.279 0 .46.46 0 0 1-.3 0 .42.42 0 0 1-.179-.26v-2.377a.46.46 0 0 1 .18-.279.599.599 0 0 1 .3 0 .52.52 0 0 1 .279 0c.087.073.15.17.18.28.035.158.035.321 0 .479.022.239.022.48 0 .719.042.23.062.464.06.698h-.06Zm16.611.18c.027.165.027.334 0 .5 0 .1-.12.159-.3.159a.32.32 0 0 1-.3-.16 1.517 1.517 0 0 1 0-.499v-.12h-.738v.18a1.497 1.497 0 0 0 0 .44c.025.142.08.278.16.399a.799.799 0 0 0 .32.26c.184.031.373.031.558 0 .34.026.679-.066.958-.26.207-.275.306-.616.28-.959v-2.994h-.938v3.054Zm2.355-2.975-1.118 4.153h.879l.18-.878h1.117l.18.878h.879l-1.098-4.153H56.3Zm.1 2.596.4-1.877.399 1.877H56.4Zm5.031-1.797a.838.838 0 0 0-.2-.4.918.918 0 0 0-.339-.279 1.437 1.437 0 0 0-.539-.12h-1.477v4.153h.838v-1.657h.44c.185.022.373.022.558 0 .148-.056.29-.13.42-.22.104-.124.198-.258.28-.399a2.216 2.216 0 0 0 0-.559 1.92 1.92 0 0 0 .02-.519Zm-.918.938a.599.599 0 0 1-.42.16h-.379v-1.198h.34a.659.659 0 0 1 .479.16.88.88 0 0 1 .12.5.739.739 0 0 1-.14.378Zm2.077-1.737-1.1 4.153h.879l.18-.878h1.117l.18.878h.878l-1.118-4.153H62.59Zm.099 2.596.42-1.877.398 1.877h-.818Zm4.452.259-1.018-2.855h-.958v4.153h.758v-2.895h.02l1.018 2.895h.939v-4.153h-.759zM41.128 61.21a.3.3 0 0 0 .3-.3v-2.595h2.175v2.596a.3.3 0 0 0 .3.3.3.3 0 0 0 .28-.3v-2.596h2.555v2.596a.3.3 0 0 0 .279.3.3.3 0 0 0 .3-.3v-2.596h2.176v2.596a.3.3 0 0 0 .28.3.32.32 0 0 0 .319-.3v-2.875a.32.32 0 0 0-.32-.3H45.78V56.44a.28.28 0 0 0-.28-.28.3.3 0 0 0-.299.28v1.298h-3.993a.3.3 0 0 0-.28.299v2.875a.3.3 0 0 0 .2.3Zm-.02 4.552h1.756a.28.28 0 1 0 0-.559h-1.477v-.679h1.477a.3.3 0 0 0 .32-.28.32.32 0 0 0-.32-.299h-1.477v-.718h1.477a.3.3 0 0 0 0-.6h-1.477v-.458a.3.3 0 0 0-.28-.3.3.3 0 0 0-.299.3v3.314a.28.28 0 0 0 .3.28Zm8.704-3.872a.3.3 0 0 0-.3.299v.459h-1.557a.3.3 0 0 0 0 .599h1.478v.638h-1.478a.3.3 0 0 0-.28.3c0 .154.126.28.28.28h1.478v.678h-1.478a.28.28 0 0 0 0 .56h1.777a.28.28 0 0 0 .28-.28v-3.254a.3.3 0 0 0-.2-.28Zm-2.795 1.995a.28.28 0 0 0-.14-.24l-.918-.698.898-.619a.28.28 0 0 0 .1-.419.3.3 0 0 0-.42 0l-1.097.759-1.078-.779a.302.302 0 1 0-.34.5l.919.618-.919.639a.32.32 0 0 0-.06.24.28.28 0 0 0 .12.24l.919.658-.919.639a.26.26 0 0 0 0 .38.24.24 0 0 0 .24.139h.18l1.098-.759 1.098.759h.18a.24.24 0 0 0 .239-.14.24.24 0 0 0-.1-.38l-1.058-.698.898-.659a.26.26 0 0 0 .16-.18Zm-1.557.54-.739-.54.739-.519.739.52-.74.539Zm4.312 2.255h-8.644a.3.3 0 0 0-.28.3v4.891c0 .155.125.28.28.28a.3.3 0 0 0 .3-.28V67.28h7.985v4.592a.28.28 0 0 0 .28.3.3.3 0 0 0 .319-.3V66.98a.32.32 0 0 0-.24-.3Z"/><path d="M48.634 67.878a.28.28 0 0 0-.28.28v2.296H45.74v-.779h1.737a.32.32 0 0 0 .32-.28v-1.317a.3.3 0 0 0-.32-.28h-3.993a.26.26 0 0 0-.26.28v1.318a.26.26 0 0 0 .26.28H45.2v.698h-2.635v-2.296a.3.3 0 1 0-.599 0v2.595a.3.3 0 0 0 .3.28h2.874v.699h-2.974a.3.3 0 0 0-.2.22.3.3 0 0 0 .3.279h3.274a.28.28 0 0 0 .3-.28v-.998h2.894a.28.28 0 0 0 .3-.28v-2.515a.28.28 0 0 0-.4-.2Zm-4.911 1.278v-.699h3.474v.699h-3.474Z"/><path d="M45.02 0A45 45 0 1 0 90 44.98C90 20.137 69.862 0 45.02 0Zm31.105 76.084C61.305 90.89 38.092 93.17 20.675 81.53 3.258 69.89-3.514 47.57 4.5 28.214 12.512 8.858 33.08-2.144 53.63 1.932 74.175 6.01 88.984 24.031 89.001 44.98a43.921 43.921 0 0 1-12.877 31.105Z"/><path d="M45.02 2.376a42.624 42.624 0 1 0 42.624 42.603A42.604 42.604 0 0 0 45.021 2.376Zm29.687 72.27C60.557 88.78 38.396 90.95 21.773 79.831 5.149 68.713-1.307 47.402 6.35 28.928 14.01 10.454 33.65-.04 53.264 3.864c19.614 3.903 33.74 21.117 33.741 41.115a41.765 41.765 0 0 1-12.298 29.667Z"/><path d="m12.4 43.901-2.357-.2-.978-1.197 3.634-2.156.08-1.198-4.293 2.635-2.515-3.154-.1 1.297 3.054 3.674-3.334-.26-.08.899 6.828.559zm1.297-7.866.26-.898-2.656-.799-3.154-3.633-.32 1.038 2.576 2.815-3.694.938-.32 1.039 4.653-1.298zm-1.677-5.909c.778.491 1.705.69 2.615.559a3.074 3.074 0 0 0 2.116-1.657c.563-.847.66-1.92.26-2.855a3.993 3.993 0 0 0-1.817-1.996 3.653 3.653 0 0 0-2.356-.56 3.074 3.074 0 0 0-2.336 1.758 3.015 3.015 0 0 0-.2 2.894c.357.789.96 1.44 1.718 1.857Zm-.779-4.312c.297-.582.84-1 1.478-1.138a2.815 2.815 0 0 1 1.996.419c.627.334 1.146.84 1.497 1.457.32.64.275 1.4-.12 1.997a2.296 2.296 0 0 1-1.597 1.258c-.7.058-1.4-.11-1.996-.48a3.114 3.114 0 0 1-1.537-1.617 2.316 2.316 0 0 1 .34-1.896h-.06Zm4.812-6.369 4.472 4.053.638-.719-4.452-4.033 1.518-1.697-.58-.559-3.733 4.133.6.52zm7.387-.1a3.154 3.154 0 0 0 2.555-.619 3.035 3.035 0 0 0 1.417-2.475 4.133 4.133 0 0 0-.838-2.516 3.753 3.753 0 0 0-1.997-1.497 3.094 3.094 0 0 0-2.855.599 3.055 3.055 0 0 0-1.397 2.555 4.412 4.412 0 0 0 2.955 3.993l.16-.04Zm-1.059-5.87a2.196 2.196 0 0 1 1.857-.398c.673.187 1.25.622 1.617 1.217.442.576.7 1.272.739 1.997a1.837 1.837 0 0 1-.919 1.737 2.156 2.156 0 0 1-1.996.459 3.234 3.234 0 0 1-1.597-1.218 3.055 3.055 0 0 1-.699-2.136 2.34 2.34 0 0 1 .998-1.657Zm10.681-.019c.692.69 1.733.895 2.635.519a2.376 2.376 0 0 0 1.897-1.877 4.871 4.871 0 0 0-.22-1.996l-1.138-3.674-.878.28 1.218 3.993c.13.385.171.794.12 1.198a1.657 1.657 0 0 1-1.318 1.237 1.437 1.437 0 0 1-1.557-.299 2.635 2.635 0 0 1-.62-1.098l-1.217-3.993-.918.24 1.118 3.673a4.46 4.46 0 0 0 .878 1.797Zm8.405-.899-.3-5.53 3.754 5.33 1.038-.059-.36-6.828-.858.06.26 5.51-3.674-5.33-1.098.06.36 6.827zm8.924-6.627-.918-.1-.839 6.767.918.12zm4.472 7.985 4.352-5.83-1.018-.299-3.494 5.011-.22-6.129-.998-.3.44 7.268zm8.325 3.893.4-.719-3.614-2.016 1.118-2.016 3.294 1.836.38-.718-3.275-1.817.998-1.817 3.554 1.977.4-.74-4.333-2.395-3.314 5.97zm2.575 1.977 1.997-2.177 1.517 1.378c.213.172.384.39.5.639a.96.96 0 0 1-.24.998l-.739.878-.32.42-.1.22.84.778.119-.12a.5.5 0 0 1 0-.499l.34-.48.618-.698a1.68 1.68 0 0 0 .42-.778 1.996 1.996 0 0 0-.16-.74c.306.09.632.09.938 0 .345-.099.65-.3.879-.578.485-.471.635-1.19.379-1.817a3.015 3.015 0 0 0-.839-1.018l-2.315-1.996-4.532 4.97.698.62Zm3.993-4.472 1.617 1.477c.2.16.357.365.46.599a1.298 1.298 0 0 1-1.198 1.537 1.717 1.717 0 0 1-.919-.48L68.2 17.05l1.557-1.736Zm2.656 10.98a1.777 1.777 0 0 1-.3-1.697c.133-.3.348-.555.619-.739l-.48-.738c-.572.33-.962.903-1.057 1.557-.073.709.12 1.42.539 1.996.36.554.873.99 1.477 1.258a1.717 1.717 0 0 0 1.797-.24c.464-.28.756-.775.778-1.317.01-.376-.058-.75-.2-1.098l-.359-.879a9.603 9.603 0 0 1-.379-1.218.838.838 0 0 1 .38-.758c.25-.173.565-.224.858-.14.393.11.729.368.938.719.317.414.441.945.34 1.457-.13.274-.313.518-.54.719l.48.719c.552-.334.909-.914.958-1.558a2.893 2.893 0 0 0-.579-1.756 2.336 2.336 0 0 0-1.457-1.118 1.996 1.996 0 0 0-1.617.319 1.537 1.537 0 0 0-.7 1.258c.03.443.146.877.34 1.277l.3.859c.166.351.268.73.3 1.118a.918.918 0 0 1-.5.739 1.038 1.038 0 0 1-1.278 0 3.434 3.434 0 0 1-.658-.74Zm2.475 5.57 6.189-2.875-.38-.838-6.208 2.854zm1.438 3.933.24.898 5.789-1.617.619 2.216.818-.22-1.517-5.35-.779.22.62 2.236zm1.217 6.488.04.939 2.775-.2 4.253 2.316-.06-1.098-3.454-1.737 3.174-2.176-.08-1.098-3.893 2.875zM13.477 61.909l-1.417-3.054 1.896-.879 1.617 3.474.74-.34-1.997-4.332-6.17 2.875.36.859 2.815-1.298 1.417 3.034zm5.69 2.975a2.935 2.935 0 0 0-2.595-1.298c-.839.06-1.64.373-2.296.898a4.272 4.272 0 0 0-1.538 2.177 3.094 3.094 0 0 0 .7 2.615 3.074 3.074 0 0 0 2.575 1.337 4.093 4.093 0 0 0 2.495-.938 3.753 3.753 0 0 0 1.418-1.996c.225-1-.059-2.047-.759-2.795Zm-.14 2.355a3.015 3.015 0 0 1-1.158 1.697c-.58.444-1.27.72-1.996.799a1.996 1.996 0 0 1-1.777-.858 2.12 2.12 0 0 1-.5-1.997 2.955 2.955 0 0 1 1.159-1.637 3.114 3.114 0 0 1 2.116-.779c.649.052 1.24.388 1.617.919.469.496.67 1.187.54 1.856Zm6.968 4.512-2.656 3.294c-.247.322-.56.588-.918.78a1.64 1.64 0 0 1-1.757-.38 1.517 1.517 0 0 1-.639-1.478c.09-.425.282-.822.56-1.157l2.655-3.295-.739-.559-2.496 2.915a4.971 4.971 0 0 0-.938 1.717 2.396 2.396 0 0 0 1.078 2.476 2.416 2.416 0 0 0 2.596.519 4.552 4.552 0 0 0 1.517-1.318l2.376-3.014-.64-.5Zm4.192 8.645-.699-6.449-.998-.479-2.934 6.19.818.379 2.356-4.992.758 6.489.939.42 2.935-6.19-.819-.36zm8.006-3.314-2.655-.56-1.438 6.689 2.675.639a2.456 2.456 0 0 0 2.716-1.018 4.412 4.412 0 0 0 .798-1.837 3.713 3.713 0 0 0-.18-2.396 2.535 2.535 0 0 0-1.916-1.517Zm1.138 3.793c-.04.236-.114.465-.22.679a2.256 2.256 0 0 1-.599.958c-.252.286-.6.47-.978.52a2.236 2.236 0 0 1-.779 0l-1.577-.34 1.098-5.111 1.697.28c.603.095 1.12.484 1.378 1.038a3.254 3.254 0 0 1-.02 1.976Zm4.791 2.975-.02-2.316 3.754-.06-.04-.799-3.734.06-.04-2.076 4.073-.04v-.838l-4.951.04.06 6.847 5.03-.08v-.778zm11.08-6.529a2.515 2.515 0 0 0-2.335-.459l-2.656.64 1.737 6.667 2.635-.659a2.476 2.476 0 0 0 1.997-1.996 4.951 4.951 0 0 0 0-1.997 3.733 3.733 0 0 0-1.378-2.196Zm.3 4.293a1.597 1.597 0 0 1-.659.898 3.035 3.035 0 0 1-.699.26l-1.577.399-1.238-5.11 1.558-.38a1.757 1.757 0 0 1 1.696.3c.491.49.825 1.115.959 1.796.053.237.093.477.12.719.014.379-.04.758-.16 1.118Zm7.606-9.004c.135.36.135.757 0 1.118-.243.374-.554.7-.918.958l.36.52 1.297-.86 2.595 3.994.759-.5-3.614-5.55-.479.32Zm8.625-2.615a1.857 1.857 0 0 0-.779.12 1.797 1.797 0 0 0 0-.68 1.358 1.358 0 0 0-.479-.938 1.48 1.48 0 0 0-1.218-.479 2.496 2.496 0 0 0-2.156 2.116c-.016.486.172.957.52 1.298.24.266.578.425.937.44.214.012.427-.029.62-.12a1.817 1.817 0 0 0-.16 1.058c.06.358.235.687.499.938.383.455.965.694 1.557.639a2.615 2.615 0 0 0 1.557-.759c.463-.406.744-.982.779-1.597a2.216 2.216 0 0 0-.6-1.497 1.737 1.737 0 0 0-1.077-.54Zm-2.616 1.118a.878.878 0 0 1-.778-.28 1.038 1.038 0 0 1-.32-.719 1.437 1.437 0 0 1 1.258-1.237.998.998 0 0 1 .719.279c.199.201.307.476.3.759a1.218 1.218 0 0 1-.42.818 1.517 1.517 0 0 1-.759.38Zm3.095 1.996c-.26.303-.64.477-1.038.48a1.178 1.178 0 0 1-.859-.42 1.138 1.138 0 0 1-.399-.958c.04-.351.203-.676.46-.919.259-.266.607-.43.977-.459.373-.015.732.14.979.42.263.244.39.602.339.958a1.397 1.397 0 0 1-.46.858v.04Zm3.693-9.224a4.652 4.652 0 0 0-1.637-.778 1.996 1.996 0 0 0-2.236.898 1.996 1.996 0 0 0-.38 1.737 2.46 2.46 0 0 0 .98 1.358c.458.34 1.03.49 1.596.419a1.996 1.996 0 0 0 1.378-.898c.176-.25.292-.537.34-.839a1.378 1.378 0 0 0 0-.918c.58.423 1.035.996 1.317 1.657.139.378.07.802-.18 1.118a1.058 1.058 0 0 1-1.537.3l-.48.678c.38.295.867.412 1.338.32.534-.119.996-.45 1.278-.919.558-.79.51-1.86-.12-2.595a5.45 5.45 0 0 0-1.657-1.538Zm-.838 2.217a1.138 1.138 0 0 1-.879.598 1.497 1.497 0 0 1-1.058-.319 1.617 1.617 0 0 1-.699-.918 1.198 1.198 0 0 1 .24-1.038c.187-.29.482-.49.819-.56a1.54 1.54 0 0 1 1.138.32c.362.206.612.566.678.978a1.33 1.33 0 0 1-.26.899l.02.04Zm3.633-6.788a9.403 9.403 0 0 1-1.158-1.538 5.99 5.99 0 0 1-.639-1.217l-.678-.3-1.877 4.253.779.339 1.497-3.374c.346.696.746 1.364 1.198 1.996a11.739 11.739 0 0 0 2.915 2.815l.359-.838c-.56-.42-.958-.719-1.198-.938a11.24 11.24 0 0 1-1.198-1.198Z"/><path d="M74.967 41.007c0-.68-.18-1.398-.32-2.097a20.543 20.543 0 0 0-.738-2.795c-4.399-14.29-18.584-23.216-33.37-21-14.787 2.218-25.73 14.913-25.744 29.864v1.398c.568 16.551 14.35 29.563 30.907 29.18 16.556-.383 29.721-14.018 29.524-30.578v-2.755c0-.26-.2-.758-.26-1.217Zm-.779 1.277a.42.42 0 0 1 0 .779c-.18.16-.619 0-.619-.38 0-.379.34-.499.62-.399Zm-.459-1.737c.799 1.178-1.118.32-1.317-.14-.2-.459.818-.479 1.317.14Zm-.16 3.714c.16.359-.579.559-.838 0-.26-.56.38-1.038.838 0Zm-1.197-1.318a.619.619 0 0 1-.979-.579c.12-.46.56-1.078.979-.699.419.38.499.939 0 1.278Zm.738-3.713c-.559 0-.938-.3-1.098-1.078-.16-.779.64-.68 1.098-.16.46.519.58 1.198 0 1.238Zm-1.377-6.668c.459.16.28.619 0 .778a.44.44 0 0 1-.64-.38c.08-.358.28-.518.64-.398Zm0 2.675c.14-.659.32-.919.698-.3.38.62.819.759.42 1.418a.998.998 0 0 1-1.458.24c-.599-.3.2-.66.32-1.358h.02Zm-.779 2.176c.117.357.117.741 0 1.098-.06.383.026.775.24 1.098.26.46-.16.639-.36.42a1.637 1.637 0 0 0-.559-.38.679.679 0 0 1-.12-.779 1.338 1.338 0 0 0-.239-.938.659.659 0 0 1 .38-.819.5.5 0 0 1 .638.3h.02Zm0 4.113c-.12.359-.36.479-.798.339-.44-.14-.76-1.058-.24-1.198.52-.14 1.198.5 1.078.859h-.04Zm-.44-6.748c-.239.599-.957.28-1.337.24-.379-.04-.479-.58-.24-.979a.779.779 0 0 1 .94-.44.838.838 0 0 1 .678 1.179h-.04Zm-2.594 4.791c-.68.28-.819-.1-.799-1.198.02-1.098 1.138-.758 1.417-.18.28.58.02 1.119-.618 1.378Zm.399 1.418c-.26.12-.958.299-.919-.2a.679.679 0 0 1 .919-.599c.639.28.24.679-.04.799h.04Zm-15.153.16a4.173 4.173 0 0 1-1.617-.5 2.575 2.575 0 0 1-.779-1.996v-1.997a.878.878 0 0 1 .739-.539.639.639 0 0 1 .819.58c.034.233.115.457.24.658-.39.326-.528.865-.34 1.338.16.339.579.32.918-.24a1.4 1.4 0 0 0 .18-.699c.818-.14.998-.379 1.357.26.36.639.68.719 1.218.619.153-.02.307-.02.46 0-.116.17-.216.351-.3.539-.42 1.098-.6 1.198-1.078 1.557a3.993 3.993 0 0 1-1.857.42h.04Zm1.757 1.197c.1.26-.38.28-.56.4-.179.12-.279.359-.738.319-.459-.04-.42-.62-.36-.819.06-.2.32-.32.68-.32 0 0 .818.16.938.42h.04Zm-12.957-1.677a.54.54 0 0 1 0 .679c-.14.12-.34.4-.26.559a.48.48 0 0 1 0 .539.42.42 0 0 0 .18.579c.22.12.32.798 0 .918s-.519.58-.32.759a.48.48 0 0 1 0 .659c-.199.14-.159.32 0 .599.16.28.14.998-.319.898-.459-.1-.3-.619-.658-.898-.36-.28-.72-.22-.939-.58a.898.898 0 0 1 .12-1.257c.5-.38.858-.18.878-.719.02-.539-.319-.778-.618-.619-.3.16-.899-.519-1.318 0a.918.918 0 0 1-1.597-.479c-.36-1.238.699-1.896 1.038-1.637 0 0 .44.38.798.26a.938.938 0 0 1 .999.14.639.639 0 0 0 1.058-.46c0-.479.3-.679.24-1.218-.06-.539.379-.718.658-.599.353.23.46.7.24 1.059-.18.359-.4.638-.18.818Zm-7.287.24c.24-.6.739-.7.998-.54.26.16.2.42 0 .82-.2.398 0 1.017-.459 1.097-.459.08-.818-.758-.579-1.377h.04Zm0-2.516c.18-.18.4 0 .6.18.199.18 0 .739-.28.539-.28-.2-.66-.52-.44-.719h.12Zm.819-.798a5.55 5.55 0 0 0-1.697.12.52.52 0 0 0-.14.818c.175.215.298.468.36.739-.24 0-.78-.32-.979-.4l-.779-.34v-.299c0-.578-.18-1.497.24-1.996.42-.499 1.038-.679 1.258-.36.22.32 0 .1 0 .18h-.14c-.599.34-.918 1.178-.38 1.278.464.036.91-.187 1.159-.579.244.173.54.257.838.24a1.996 1.996 0 0 0 1.737-.819c.3-.32.878-.439 1.138 0l.1.1c.083.21.13.433.14.659 0 .38 0 .619.319.758.328.157.717.11.998-.12 0 0 .48-.419.62 0 .016.293.016.587 0 .88a1.7 1.7 0 0 0 0 .319c-.12.618-.26.898-.86.978a8.625 8.625 0 0 1-2.355-.6 1.577 1.577 0 0 1-.879-.618c-.22-.4-.499-.878-.818-.938h.12ZM33.5 41.326c-.24 0-.918-.12-.938-.44-.02-.319.26-.438.759-.299.898.24.519.739.08.739h.1Zm-7.506-2.196c-.3.3-.32.639-.48.878a.38.38 0 0 1-.578 0c0-.14-.16-.18-.52-.2-.359-.02-.439 0-.558-.259a.579.579 0 0 1 0-.659c.14-.2.479-.22.758-.2.305-.021.597-.132.839-.319.28-.16.579-.24.758 0 .18.24.06.48-.22.759Zm0 2.795a.739.739 0 0 1-1.018 0c-.3-.32.1-.879.459-.998.36-.12.559-.1.738.14.18.239.08.618-.18.858Zm-5.191-5.49c0 .14 0 .32-.24.379a.659.659 0 0 0-.379.3.44.44 0 0 1-.459.22c-.16 0-.16-.16-.34-.38a.579.579 0 0 1 0-.699c.12-.24.32-.22.54-.22.333.016.647.159.878.4Zm0-1.458a.36.36 0 0 1-.38.58c-.439 0-.439-.44-.518-.68-.08-.24.3-.578.938.1h-.04Zm-.799 3.354c.3 0 .48-.14.799-.419.32-.28.52 0 .38.2a2.496 2.496 0 0 0-.14.519.639.639 0 0 1-.62.28c-.279 0-.478.119-.738.319a.539.539 0 0 1-.739-.14.4.4 0 0 1 .18-.54c.264-.16.57-.237.878-.219Zm.4 1.997a.719.719 0 0 1-.699.479c-.28 0-.46-.22-.28-.54a.619.619 0 0 1 .68-.299s.299.1.219.42l.08-.06Zm-1.278 3.274a.938.938 0 0 1 .559-.36h.52a.52.52 0 0 1-.1.66c-.233.179-.53.251-.82.199-.359.1-.359-.18-.239-.44l.08-.06Zm.878-1.258c-.22 0-.618 0-.678-.22a.38.38 0 0 1 .16-.499c.199-.14.518-.12.718-.22.175-.106.336-.233.48-.379a.759.759 0 0 1 .618-.18c.14 0 .26.18.22.46-.096.265-.261.5-.48.679a2.156 2.156 0 0 1-1.038.419v-.06Zm1.138.54c0-.12.22-.28.6-.24.379.04.478 0 .538-.14a.22.22 0 0 1 .38.14c0 .299-.32.539-.58.658-.259.12-.578.34-.858.16a.38.38 0 0 1-.16-.519l.08-.06Zm1.078-2.676c-.479.16-.678-.12-.918-.34a.4.4 0 0 1 .1-.638c.2-.14.3-.36.48-.5a.779.779 0 0 1 .778-.16c.24 0 .26.44.3.84.04.399-.34.718-.82.858l.08-.06Zm-.439-3.993c0-.32.18-.44.44-.42.39.08.765.215 1.117.4.3.22.24.52 0 .918-.24.4-.578.22-.998.26-.419.04-.38-.3-.36-.579.02-.28-.179-.22-.279-.519l.08-.06Zm1.617-1.397c-.14.339-.559.14-.778.12-.22-.02-.28-.32-.14-.56a.48.48 0 0 1 .559-.26.5.5 0 0 1 .28.76l.08-.06Zm-.599-4.213a.559.559 0 1 1 0-1.058c.58.4.38.938-.08 1.118l.08-.06Zm-.539 1.837c0 .2.14.24 0 .519-.14.28-.339.12-.658 0a.978.978 0 0 1-.4-1.058c.14-.38.36-.24.62-.18.259.06.359.54.359.779l.08-.06Zm.5 8.744c.094-.388.393-.694.778-.798.4 0 .56.16.58.359a1.318 1.318 0 0 1-.74 1.078c-.559.22-.858-.14-.698-.579l.08-.06Zm1.477-7.247c0-.22.22-.559.619 0 .261.42.562.815.898 1.178a.599.599 0 0 1-.24.998c-.379 0-.758 0-.958-.36-.2-.358-.18-.378-.28-.538a.5.5 0 0 1-.119-.54c.11-.23.138-.49.08-.738Zm1.757-1.996c.299.097.592.21.878.34.38.199.24.558-.12.937-.359.38-.28.7-.559.839-.28.14-.439-.32-.399-.559a1.417 1.417 0 0 0-.22-.918c-.18-.44.16-.64.42-.64Zm-1.797 5.39c.29-.085.57-.199.838-.34.28-.1.46 0 .52.18s-.16.34-.44.34-.36.16-.479.32c-.12.159-.639.099-.639.099s-.22-.559.2-.619v.02Zm2.316-.599c.4-.22.579-.479.599-.679.02-.2.14-.579.519-.399.38.18 0 1.118 0 1.118s0 .719-.36.739c-.29.046-.586-.01-.838-.16-.28-.16-.32-.42.08-.639v.02Zm2.096-2.096c-.28.26-.759 0-.759 0-.359 0-.539-.24-.519-.42.02-.179 0-.319.36-.439.359-.12.439-.299.579 0 .14.3.579.62.339.839v.02Zm.46 1.397c.279.18.139.899-.28.919-.42.02-.38-.46-.26-.759a.36.36 0 0 1 .54-.26v.1Zm-1.897 3.454a1.06 1.06 0 0 1 .858 0c.26.12.4.2.36.36-.04.16-.52.16-.7.28-.179.119-.219.219-.439.239-.22.02-.399 0-.339-.26s.04-.519.26-.639v.02Zm.818-1.557c.12-.16.32-.18.6-.18.279 0 .877.3.897.54.02.239-.12.319-.898.319-.779 0-.818-.56-.599-.679Zm1.198-4.891a.559.559 0 0 1 .679-.24s.738.1.858.34c.12.24-.34.26-.499.339-.16.08-.24.34-.679.3-.439-.04-.439-.6-.419-.78l.06.04Zm.22-4.832c.14-.399.339-.319.618-.16.28.16.3 1.079.24 1.458a.559.559 0 0 1-.938.28c-.48-.34-.14-1.238.02-1.617l.06.04Zm.579 8.186c.319-.16.658-.14.678.1a.819.819 0 0 1 0 .359c0 .32 0 .599-.379.739-.38.14-.559.14-.659 0-.1-.14 0-.34 0-.56a.559.559 0 0 1 .36-.638Zm.1 2.535c.32-.148.555-.435.638-.778 0-.24.38-.4.48-.12.12.329.12.69 0 1.018a.838.838 0 0 1-.8.52c-.359 0-.598.099-.738 0-.14-.1.06-.46.46-.64h-.04Zm.678-3.753a.699.699 0 0 1-.758-.3.599.599 0 0 1 .12-.578.38.38 0 0 1 .538-.18s.5.2.739.26c.24.06.2.319 0 .379s-.32.3-.599.419h-.04Zm-.3-3.354c0-.639.38-1.078.92-.978.877.18.778.738.358 1.138-.419.399-1.277.499-1.237-.16h-.04Zm1.199-4.552c.399.12.399.679 0 1.158-.4.48-.66 0-.6-.619.06-.619.3-.639.64-.539h-.04Zm.319-2.356c.46-.599 1.437.22 1.797.72.36.498 0 .858-1.238.897-1.238.04-1.118-1.018-.559-1.617Zm1.118 3.873c.599 0 .36.66.26 1.238-.44 1.997-.979.18-.979.18-.958-.779 0-1.477.62-1.418h.099Zm-.54 5.65c.14-.32.36-.3.6-.22.24.08.499.6 0 .84-.5.239-.839-.32-.699-.62h.1Zm3.634-6.987a.759.759 0 0 1-1.177.28c-.44-.34 0-.88.12-1.199.12-.319.578-.26.878 0a.659.659 0 0 1 .08.919h.1Zm0 5.51c0 .679-.579.699-.958.42-.38-.28-.16-1.398-.12-1.877.04-.48.4-.48.72-.18.319.3.398.978.338 1.637h.02Zm-.718-4.113a.52.52 0 0 1 .28.859c-.24.28-.62.399-.88 0-.259-.4.12-.978.58-.859h.02Zm-.14 6.15c.42-.2.819.219.819.638 0 .42-.32.6-.66.719a.659.659 0 0 1-.838-.48c-.1-.419.22-.678.659-.878h.02Zm1.996-5.53c-.559.099-.599-.96-.379-1.598.22-.639.759-.719 1.058-.14a1.158 1.158 0 0 1-.639 1.737h-.04Zm-.16 3.852a.659.659 0 0 1 .1-.938c.26 0 .44 0 .52.34.08.339-.28.838-.58.598h-.04Zm6.17-5.37c.678 1.018-.48 1.537-1.078 1.497-.6-.04 0-.878.1-1.437.1-.56.638-.6.978-.06Zm-.56-2.855c.44-.36.78.32.979.839.2.519.18.678-.54.718-.718.04-.618-.18-.658-.599-.04-.419-.2-.579.22-.938v-.02Zm-.618 4.851a.46.46 0 0 1 .34.58c-.12.259-.4.279-.72.259a.4.4 0 0 1-.24-.639c.16-.2.42-.2.62-.2Zm-1.797-2.495c-.819.1 0-1.378.36-1.817.359-.44.658-.24.818.4.42 1.257-.34 1.357-1.178 1.477v-.06Zm.818 1.996c-.24.5-.758.46-1.337-.24-.58-.698.818-1.117 1.278-.958.459.16.339.6.06 1.198Zm-.359 2.975a.52.52 0 0 1-.719-.58c0-.378.26-.698.72-.518.458.18.478.918 0 1.098Zm-1.298 1.996c.62.2.38.799.12 1.018a.579.579 0 0 1-.838-.479c0-.579.26-.798.718-.639v.1Zm-.559-2.595c.24 0 .42 0 .52.32.1.319-.34.878-.64.638a.659.659 0 0 1 .12-1.058v.1Zm.54-1.138a.36.36 0 0 1-.48-.38c0-.239.18-.319.48-.319.299 0 .519.28.459.44-.06.16-.2.1-.46.16v.099Zm0-6.109c-1.059-.22-.919-.619-.6-1.198.32-.579.879-.838 1.278-.479 1.098.858.32 1.797-.698 1.577l.02.1Zm-.38.719c.3 0 .52.2.639.579a.679.679 0 0 1-.44.838.779.779 0 0 1-.918-.32.799.799 0 0 1 .18-.878.978.978 0 0 1 .52-.32l.02.1Zm2.835 12.517c-.26.22-.44-.12-.46-.32-.02-.199.12-.518.34-.458.22.06.4.559.12.778Zm0-2.974c-.1-.32 0-.879.34-.64a.838.838 0 0 1 .2 1.199c-.18.14-.4-.26-.54-.56Zm.5-1.598c-.74.14-.74-.439-.6-.898.14-.46.34-.679.699-.539.206.102.406.216.599.34.44.219.1.958-.639 1.097h-.06Zm1.097-3.094a.559.559 0 0 1 .998 0c.38.779-.439 1.378-1.098 1.278-.658-.1-.12-.779.16-1.278h-.06Zm5.39-3.354a1.238 1.238 0 0 1-.399 1.338c-.24.2-.379-.24-.499-.7a.579.579 0 0 0-.818-.458c-.7.26-.859-.759-.779-1.418.08-.659.34-.978.779-.858s.459.958.559 1.218c.1.26.459.16.459.16s.619-.12.758.718h-.06Zm16.97 3.154c.28.36.34.64.12.939-.22.3-.699.24-1.058.1a.918.918 0 0 1-.38-1.218c.34-.5 1.099-.2 1.318.18Zm-.739-2.595c.2-.18.5-.18.58.16.08.34 0 .499-.3.718a.28.28 0 0 1-.46 0 .679.679 0 0 1 .22-.918l-.04.04Zm-.18 6.389c.26-.26.5-.34.66 0 .16.339 0 1.157-.56.958-.558-.2-.279-.759-.06-.998l-.04.04Zm-.339-.939c-.778.54-1.098 0-1.118-.758-.02-.76.34-.74.839-.6.499.14 1.078.78.32 1.318l-.04.04Zm-.539-4.592c-.22.76-.619.26-1.158 0-.539-.26-.319-.698 0-1.217.32-.52.959-.799 1.478-.2s-.08.639-.28 1.378l-.04.04Zm-1.617-1.896c-.32.12-.778-.18-.659-.5.12-.319.32-.339.66-.119a.34.34 0 0 1 .04.579l-.04.04Zm0 2.835c.52 0 .64.22.779.679a.44.44 0 0 1-.38.559.918.918 0 0 1-1.018-.6c-.1-.379.04-.758.6-.678l.02.04Zm-1.597 4.611c-.36-.359 0-.898.32-.758a1.457 1.457 0 0 1 .978 2.136c-.44.938-.998.739-.899.18a1.797 1.797 0 0 0-.419-1.597l.02.04Zm-.38 3.993c.1-.16.48-.24.58 0 .1.24-.2.64-.54.58-.339-.06-.199-.52-.06-.68l.02.1Zm-.239-.718c-.28-.16 0-.44.14-.54.14-.1.539 0 .559.16.02.16-.4.46-.719.28l.02.1Zm1.637-5.75c0 .579-.399.858-1.337.559-.939-.3.1-1.477.579-1.597.479-.12.758.36.758 1.038Zm-1.577 3.114a1.078 1.078 0 0 1-.759 1.717c-.838.18-.898-.499-.578-.718.319-.22.26-.34.578-.899.32-.559.62-.36.76-.1Zm-1.218-2.455c0 .419-.359.579-.958.24a1.218 1.218 0 0 1-.719-1.338.719.719 0 0 1 .919-.58c.998.38.778 1.358.758 1.678Zm-1.717-2.755a5.07 5.07 0 0 1-.818.359 4.232 4.232 0 0 0-.52.52.878.878 0 0 1-.698.279c-.18 0-.34-.2-.32-.5a1.66 1.66 0 0 1 .48-.878 2.096 2.096 0 0 1 1.178-.559c.28 0 .718 0 .838.16a.42.42 0 0 1-.14.679v-.06Zm-1.996-3.274c.34-.3.599 0 .719.379.25.513.089 1.131-.38 1.457-.818.48-.579-.3-.579-.3.3-.678-.12-1.197.26-1.497l-.02-.04Zm-.28-1.079c-.598-.439 0-.918.38-1.157a.739.739 0 0 1 .998.16c.958.918-.759 1.497-1.358 1.057l-.02-.06Zm.3-1.796c-.978 0-.878-.4-.42-1.298.46-.898.979-.42 1.358-.1.38.32.06 1.358-.918 1.458l-.02-.06Zm-.4 11.16c.56.519-.179 1.397-.678 1.257-.5-.14-.42-.818-.16-1.197.26-.38.5-.32.859 0l-.02-.06Zm-3.094.718c-.619-.559.899-1.577 1.378-1.996.479-.42.898 0 .479.38-.42.379-.58.558-.52 1.017.16 1.079-.678 1.158-1.337.6Zm-.36-5.989c-.438-.499 0-.838.52-.998.388-.136.82-.043 1.118.24.28.24.3.658-.18 1.018a.998.998 0 0 1-1.417-.24l-.04-.02Zm1.458 2.715c-.479.14-.738-.579-.579-1.018a.938.938 0 0 1 .839-.599c.559-.12.399 0 .878.36.48.359.5 1.018 0 1.018-.378.023-.75.11-1.098.26l-.04-.02Zm1.238-4.312c-.3.24-.659-.18-.819-.34-.16-.16 0-.498.24-.758a.46.46 0 0 1 .839 0 .938.938 0 0 1-.22 1.118l-.04-.02Zm-1.378-5.23c-.718-.1-.559-.999-.339-1.478.22-.48.52-.559 1.098-.34.58.22.659.4.599 1.039-.06.639-.599.878-1.318.798l-.04-.02Zm.14 1.237c.659 0 1.138-.38.899.819-.24 1.198-.64.918-1.218.539-.58-.38-.998-.739-.779-1.138.22-.4.58-.16 1.138-.2l-.04-.02Zm-.878 1.837s.479.12.519.838a1.238 1.238 0 0 1-.779 1.298c-.439.2-.439-.878-.439-1.417 0-.54.24-.72.739-.7l-.04-.02Zm-1.078-2.276c-.4 0-.739-.16-.42-.819.32-.658.76-.678.899-.379.659 1.278-.44 1.218-.44 1.218l-.04-.02Zm-.36 1.996c0 .46 0 .879-.619.759-.618-.12-.818-.2-.818-.579 0-.38.4-.42.48-.799.079-.379 0-.938.518-.698.52.24.48 1.138.48 1.337l-.04-.02Zm-.18 3.275c-.359.339-.778-.44-.678-1.099.1-.658.42-.798.679-.559.421.475.438 1.184.04 1.677l-.04-.02Zm-1.357-5.41a.918.918 0 0 1-.36-1.318c.28-.22.56-.18.86.18.299.359.04 1.317-.46 1.157l-.04-.02Zm-.22 7.985c-.399.22-.479.619-1.018.779-.539.16-.24-1.039.12-1.618.36-.579.779-.28.978 0a.559.559 0 0 1-.04.859l-.04-.02Zm-2.216-1.637c.22-.2.4-.1.48.1.08.2 0 .18-.14.718-.14.54-.58.839-1.078.759-.5-.08-.3-.739 0-.918.306-.149.573-.368.778-.64l-.04-.02Zm-1.996-.14c-.659 0-.639-.798-.3-1.198.34-.4.52-.4 1.059-.22a.779.779 0 0 1 .579.84c.12.498-.54.618-1.218.598l-.12-.02Zm0-4.532a.5.5 0 0 1 .759 0 1.417 1.417 0 0 1 0 1.478c-.34.459-.839.359-.979-.16a1.178 1.178 0 0 1 .26-1.298l-.04-.02Zm-.2-.958c-.758.38-.838-.3-.598-1.118.24-.819.379-.719 1.177-.819.799-.1.72.18.819.819.1.639-.619.798-1.358 1.138l-.04-.02Zm-.998 11.36c0-.28.18-.24.44-.2.259.04.279.26.319.719.04.459-.28.798-.52.778-.239-.02-.359-.26-.279-.499.056-.256.083-.517.08-.778l-.04-.02Zm.5-2.516c-.28-.3.179-.499.558-.679.38-.18.42-.14.7.1.279.24.558.699.478.918-.08.22-.38.12-.918.32-.54.2-.5-.34-.779-.639l-.04-.02Zm1.097 2.096c0-.3.2-.34.4-.459.2-.12.519 0 .619.22.11.244.31.436.559.539.299.12.499 0 .499.419 0 .42-.6.46-.859.5a1.597 1.597 0 0 1-.978-.28c-.3-.18-.24-.62-.2-.919l-.04-.02Zm1.418-1.317c-.22-.5 0-1.038.559-.879.559.16.479.4.998.38.52-.02.599.28.46.499-.14.22-.26.14-.78.439a.819.819 0 0 1-1.197-.42l-.04-.02Zm1.717 2.276c.38-.5.12-1.138.639-1.338.519-.2.978.16 1.118.699.14.539.3.818-.62 1.397-.918.58-1.477-.2-1.097-.738l-.04-.02Zm1.257-2.536a1.038 1.038 0 0 1-.18-1.477c.32-.38.54-.1.68.2.061.338.148.672.26.998.199.539-.16.738-.72.3l-.04-.02Zm.66-3.593c.379-.42.798.22.938.618.118.384.198.779.24 1.178 0 .48-.2.7-.7.16-.499-.539-.738-1.517-.439-1.936l-.04-.02Zm.439 4.332c.192-.228.334-.493.419-.779 0-.32.38-.519.539-.3.38.56-.14 1.159-.56 1.438-.418.28-.598-.14-.359-.34l-.04-.02Zm5.51 7.546c.3 0 .559.34.3.64-.26.299-.88.219-.96-.16-.079-.38.22-.52.7-.46l-.04-.02Zm-.7-3.793c-.239-.32-.179-.619 0-1.278.18-.658.54-1.058 1.02-.539.478.52.179 1.617.179 1.617a.719.719 0 0 1-1.158.22l-.04-.02Zm.3-4.152c0-.68.28-1.019.739-.859 1.118.38.958 1.098.38 1.677-.58.579-1.119-.06-1.079-.799l-.04-.02Zm1.797.738c.2-.4.44-.34.58-.22 1.097.999 0 1.538-.64 1.398-.639-.14-.12-.779.1-1.158l-.04-.02Zm0 1.677c.44.12.38.56.12.779-.26.22-.44-.12-.48-.3-.04-.18.22-.519.46-.459l-.1-.02Zm-.2 5.73c.22-.778.529-1.528.919-2.236.038-.05.07-.104.1-.16h.718c.819-.18 1.058-.36 1.338.24a1.597 1.597 0 0 0 1.857.978l-.42.16a11.54 11.54 0 0 1-2.276.758 4.732 4.732 0 0 1-1.996.32h-.28l.04-.06Zm4.253-2.655a.799.799 0 0 1 1.278-.28c.11.22.11.48 0 .699-.12.4-1.358.14-1.178-.4l-.1-.02Zm1.138-1.997a.52.52 0 0 1-.739-.559c0-.379.28-.698.739-.539.459.16.579.998.1 1.178l-.1-.08Zm.22-2.276c-.34-.359 0-1.038.598-.519 1.318 1.198.6 1.997.2 1.817-.4-.18-.36-.858-.699-1.218l-.1-.08Zm1.197 2.256c.54-.3.54-.758.999-.639.459.12.519.34.758.72.24.378 0 .658-.679.638-.678-.02-1.197.24-1.517 0-.32-.24 0-.34.54-.639l-.1-.08Zm1.617 1.697c.68.18.759.899 0 .859-.758-.04-1.517 0-1.397-.36.12-.359.779-.619 1.537-.419l-.14-.08Zm-.379 1.597s.699-.16.898.26c.2.42-.22.699-.878.579-.659-.12-.22-.679.08-.759l-.1-.08Zm.918-10.96c0-.519-.12-1.517.54-.958.658.559 1.557 2.395.14 1.996a.819.819 0 0 1-.58-.958l-.1-.08Zm.979 5.49c.658.879.539 1.837 0 1.997-.54.16-.739-.979-.839-1.697-.1-.719.58-.62.938-.22l-.1-.08Zm-.14-1.876c.28-.24.579-.18.858.18.28.359 0 1.297-.479 1.137-.479-.16-.579-.998-.28-1.238l-.1-.08Zm1.018 3.673c0-.699.38-.46.719-.38.34.08.459.76 0 1.099-.46.34-.58.06-.62-.64l-.099-.079Zm1.457-7.626c.38.24.5.778 0 .978-.499.2-1.237-.28-1.078-.779.16-.499.62-.479 1.178-.12l-.1-.08Zm.76 2.815c.259.479 0 .838-.86.459a3.873 3.873 0 0 0-1.756-.18c-.978 0-.879-.699-.48-.818l1.179-.36a1.477 1.477 0 0 1 2.016.978l-.1-.08Zm-2.476-4.532c.22 0 .399 0 .519.34.12.339-.34.838-.62.598a.639.639 0 0 1 .1-.938Zm-3.794-2.975c1.098-.2 1.238.14 1.178.48-.06.339-.758.179-.738.518.02.34.658.859 1.078.5.419-.36 1.058-.54 1.317 0 .26.538-.619 1.197-1.317.938-.7-.26-.52-.3-1.518-.699-.998-.4-1.118-1.557 0-1.737Zm-2.335-.898c.09-.223.144-.459.16-.7a.878.878 0 0 1 .638-.558c.26 0 .48.26.699.599a.918.918 0 0 1-.22 1.118c-.34.38-.679.26-1.018.2a.44.44 0 0 1-.26-.68v.02Zm-.819 5.25c-.639 0-1.178-.559-.819-.798.36-.24.8-.54 1.378-.14.579.4.06 1.018-.559.918v.02Zm0-4.452c.096.2.217.389.36.56a.659.659 0 0 1-.2.738c-.22.268-.32.614-.28.958a.659.659 0 0 1-.679.56.44.44 0 0 1-.379-.56c.042-.367.204-.71.46-.978a1.32 1.32 0 0 0 .239-1.058c.04-.5.46-.52.539-.24l-.06.02Zm-1.338-3.054c.32-.66.839-.979.999-.62.3.74-.58 1.858-.58 1.858-.399.918-.698-.6-.359-1.258l-.06.02Zm.54 8.085a.699.699 0 0 1-.26 1.338c-.779 0-1.198-.779-.859-1.218.34-.44.6-.48 1.178-.14l-.06.02Zm-1.478-9.463a.858.858 0 0 1 0 1.318c-.579.439-1.098 0-1.098-.62 0-.618.599-1.117 1.158-.718l-.06.02Zm-.619 2.775a.5.5 0 0 1 .779.16 1.657 1.657 0 0 1-.34 1.617c-.479.38-.958 0-.978-.5a1.198 1.198 0 0 1 .6-1.297l-.06.02Zm.28 4.113c.36.818-.38.878-.759 1.317-.38.44-.998.28-.799-.12.158-.397.158-.84 0-1.237-.14-.36-.16-.719.12-.879.28-.16 1.118.06 1.498.899l-.06.02Zm-2.236-8.106a.619.619 0 0 1 .958.16c.226.7.05 1.466-.46 1.997a.719.719 0 0 1-1.217-.58 1.517 1.517 0 0 1 .719-1.577Zm-1.997-.878a.759.759 0 0 1 .46-.18c.29.011.535.216.598.5a.659.659 0 0 1-.399.758.719.719 0 0 1-.838-.3.639.639 0 0 1 .24-.778h-.06Zm-.439 1.417c.22.18.28.44 0 .62a.639.639 0 0 1-.779 0s-.299-.24 0-.46a.699.699 0 0 1 .839-.16h-.06Zm-1.697-2.136c.599 0 1.038 0 1.118.46a.918.918 0 0 1-.42.998c-.438.339-1.057.778-1.237.18-.18-.6.02-1.678.599-1.638h-.06Zm-.599 2.675c.46.7.16 1.059-.4 1.558-.558.499-.738-.16-.997-.66-.26-.498-.28-.758.36-1.097.638-.34.818-.22 1.097.2h-.06Zm-1.437-3.154c.34 0 .459.1.778.38.32.279 0 .658-.22.578-.219-.08-.678.24-.977.26-.3.02-.3-.14-.48-.5-.18-.359.52-.718.899-.718Zm-.739 1.997a.46.46 0 0 1 .26.578c0 .28-.36.54-.48.78a3.833 3.833 0 0 0-.12.718c-.049.26-.2.49-.419.639a.46.46 0 0 1-.559-.22 1.717 1.717 0 0 1 0-.998c.096-.439.327-.837.66-1.138.08-.28.478-.52.658-.52v.16Zm-1.617-1.997c.2-.14.48-.16.559.18.08.34 0 .499-.26.718a.3.3 0 0 1-.479 0 .679.679 0 0 1 .18-1.058v.16Zm-.32 6.908c.1-.52.48-.799.879-.52a.898.898 0 0 1-.2 1.438c-.658.14-.778-.539-.678-1.098v.18Zm-2.156-4.053s1.278-.659.76-.898c-.52-.24-.32-1.518-.14-2.117.179-.599.598-.439.838-.26.24.18.18 1.019.16 1.478.014.317-.07.631-.24.899-.22.339-.22.3.36.499.578.2-.12.998-.46 1.237-.34.24-.559 1.099-1.158.62a.978.978 0 0 1-.12-1.458Zm-1.277-3.234a.52.52 0 0 1 .938.18c.168.391.09.845-.2 1.157a.42.42 0 0 1-.658 0 1.318 1.318 0 0 1-.08-1.337Zm0 2.296c0 .24 0 .479-.22.958a1.877 1.877 0 0 0-.2 1.517c.1.779-.12 1.398-.758.839-.639-.56-.799-1.158-.56-1.538.254-.47.474-.956.66-1.457.3-.539.858-.798 1.078-.4v.08Zm-1.877-2.356c.58-.3.619.479.719.918.1.44-.1.56-.28.56-1.437-.04-.938-1.199-.439-1.478Zm.48 6.408c.678.799.558 1.178-.26 1.058-.819-.12-1.577-.439-1.018-1.058a.759.759 0 0 1 1.337 0h-.06Zm-1.478-1.577a7.517 7.517 0 0 0-.58.998c-.199.3-.418.4-.658.22-.24-.18-.12-.48.16-.659a.819.819 0 0 0 .28-.718c0-.48.439-.68.678-.56a.42.42 0 0 1 .18.72h-.06Zm-.42-4.552c.3.18.32.34.3.7a.3.3 0 0 1-.38.279.699.699 0 0 1-.498-.64c0-.239.28-.458.579-.339Zm-.439 2.216c.6.18.52.759.14 1.039-.38.279-.579-.14-.619-.4-.04-.26.16-.639.48-.559v-.08Zm-.818 2.456c-.18.16-.619 0-.619-.38 0-.379.18-.518.559-.379.38.14.28.68.06.839v-.08Zm-.978-3.993c.2-.26.678-.559.878.1 0 .28.34.958 0 1.058a.599.599 0 0 1-.759-.2c-.16-.14-.339-.638-.12-.898v-.06Zm-1.597 0c.419-.36.758.32.818.699.05.398.05.8 0 1.198 0 .439-.28.619-.679 0-.399-.62-.579-1.518-.14-1.857v-.04Zm.678 3.993s.1.26.739.699c.639.439-.18 1.018-.599.938-.42-.08-.579-.2-1.058.12-.48.32-1.218.539-1.198-.36.02-.898.759-1.038.998-1.277.24-.24.998-.58 1.118-.1v-.02Zm-1.657-2.875c.979 1.997-.3 2.396-.36 1.817a19.146 19.146 0 0 0-.418-1.997c-.14-.499.419-.519.778.2v-.02ZM34.3 24.776c.12-.64.38-.6.639-.74a1.657 1.657 0 0 1 1.816.12c.52.36-.1.62-.439 1.179-.34.559-.539 0-1.238.2-.698.199-.878-.1-.778-.74v-.02Zm-.22 8.145c-.479.779-1.258.26-1.477-.18a.838.838 0 0 1 .998-1.038c.659.24.879.62.48 1.238v-.02Zm-.659-14.714c.12-.24.34-.399.58-.14.239.26.239.42.14.76 0 0-.14.339-.42.179a.659.659 0 0 1-.3-.779v-.02Zm-.2 2.216c.26-.24.52-.1.68.14.153.433.26.882.319 1.338 0 .399-.36.519-.878.559-.52.04-.56-.42-.859-.779-.3-.36 0-.559.34-.699.339-.14.16-.28.399-.539v-.02Zm-.678-1.756c.2.403.11.89-.22 1.197-.32.3-.938-.479-.898-.818.04-.34.858-.779 1.118-.36v-.02Zm-.619 3.992c.699.22.958.74.42 1.258-.54.52-.7-.24-.9-.539-.199-.3-.079-.878.54-.739l-.06.02Zm-1.797-2.874c.979-.18 1.438 1.177 1.018 1.617-.419.439-.958.599-1.217 0-.26-.6-.799-1.438.2-1.637v.02Zm-.12 5.989a1.437 1.437 0 0 1-.958 1.198c-.559.16-.439-.32-.519-.859a2.196 2.196 0 0 1 .26-1.278c.16-.359.34-.339.579-.359.978-.08.619.739.619 1.258l.02.04Zm-1.217-4.452c.519.639.798 1.437 0 1.477a.779.779 0 0 1-.899-.918c.1-1.058.4-1.258.899-.6v.04Zm-.66 8.884c.38.24.48 1.278-.139 1.038s-.878.14-1.198 0c-.32-.14-.14-.46.4-.858.539-.4.798-.28.938-.22v.04Zm-.498-1.497c0 .319 0 .559-.719.678-.719.12-.24-.798-.1-1.357.14-.56.52-.34.62-.14.106.248.173.51.199.779v.04Zm-1.637-5.71c.22-.38.559-.42 1.038-.14.479.28.519 1.457-.12 1.477-.639.02-1.198-.978-.918-1.337Zm.978 2.555a.898.898 0 0 1 0 1.358c-.579.459-1.118 0-1.118-.62 0-.618.519-1.157 1.078-.738h.04Zm-1.777-1.597a.44.44 0 0 1 0 .779.42.42 0 0 1-.639-.36c.08-.419.26-.559.64-.419Zm-.739 5.071c.216-.41.3-.878.24-1.338-.18-.599-.14-.798.34-.359.268.251.468.568.578.918.24.52.14.839-.499 1.039-.639.2-.778-.02-.659-.3v.04Zm-.22 1.757c.3 0 .34.34.34.778 0 .44-.16.4-.559.779-.399.38-.479-.26-.599-.539a.699.699 0 0 1 .2-.759c.14-.22.38-.22.619-.3v.04Zm-1.996-4.372c.18-.32.5-.38.899-.12.4.26.439 1.258 0 1.278-.44.02-1.138-.879-.859-1.198l-.04.04Zm-1.197 1.517c.28-.38.519-.36.818-.16a.938.938 0 0 1 .36.679c0 .44-.2.579-.6.52-.399-.06-.558.199-.878 0-.32-.2.08-.68.34-1.02l-.04-.02Zm-.52 2.176c.4.22.5.739 0 .938-.499.2-1.157-.26-.998-.738.16-.48.48-.56 1.038-.24l-.04.04Zm-1.776 1.837a.579.579 0 0 1 .738.24c.336.363.696.703 1.078 1.017.4.3.5.34.52.6.02.259-.42.319-.7 0a.739.739 0 0 0-.858-.36.978.978 0 0 1-.898-.539.639.639 0 0 1 .12-.958Zm-1.058 2.375c.18-.359.638-.319 1.078 0 .439.32.579.8.22.859-.36.06-.3.559-.56.679-.26.12-.718-.24-.858-.48a1.397 1.397 0 0 1 .12-1.058Zm-.2 7.607c-.3-.12-.46-.28-.3-.799a2 2 0 0 1 .819-.918.24.24 0 0 1 .42 0c.065.128.118.261.159.4a.759.759 0 0 1-.14.558c-.12.24 0 .3 0 .56 0 .259-.639.359-.958.199Zm.4 1.996c-.16.34-.7.62-.94.879-.239.26-.798.579-1.057.34a.659.659 0 0 1 .38-1.02c.398-.119.498-.598.818-.818.32-.22 1.058 0 .798.62Zm-1.119-7.187c0-.32.22-.42.62 0 .398.42.378.34.498.48.12.14.24.379.14.518a.779.779 0 0 1-.639.3c-.42 0-.739-.12-.798-.46-.06-.339.22-.518.18-.838Zm-.619 2.456c.24-.2.36-.2.779-.2.42 0 .46.4.2.5-.26.099-.32.538-.5.758-.18.22-.299 0-.658 0-.36 0-.08-.839.18-1.058Zm-.479 2.915c0-.26.12-.32.4-.38.279-.06.24.12.279.3.04.18.1.16.16.28a.24.24 0 0 1 0 .319.559.559 0 0 1-.5.12.5.5 0 0 1-.339-.64Zm58.915 3.493c-.14 16.062-13.086 29.07-29.147 29.288-16.061.217-29.354-12.437-29.927-28.49a.26.26 0 0 0 0-.119 4.212 4.212 0 0 0 1.597-.739c.898-.718 1.257-.698 1.996-.559a1.677 1.677 0 0 0 1.477-.28c.273-.27.635-.433 1.019-.458.513-.1.985-.35 1.357-.719.44-.4.998-.858 1.537-.699a2.43 2.43 0 0 0 1.478.12c.469-.194.87-.52 1.158-.938.27-.52.705-.934 1.237-1.178l1.278-.22c.775.386 1.523.827 2.236 1.318.919.44 1.797.918 2.715 1.258.841.247 1.667.54 2.476.878.778.42.4.16.878.54 0 0 .56.358.54.618a2.396 2.396 0 0 0 0 .679c-.16.838-.14 1.517-.26 1.836-.12.313-.187.644-.2.979 0 .479 0 .698-.16 1.058a2.755 2.755 0 0 1-.379.838c-.14.24-.16.779-.42.939a2.795 2.795 0 0 1-1.097.359c-.375.03-.745.11-1.098.24a3.45 3.45 0 0 1-1.158.419c-.4 0-.938 0-1.438.16a4.173 4.173 0 0 1-1.118.1 11.56 11.56 0 0 1-1.397-.22 1.577 1.577 0 0 0-.998.12.48.48 0 0 0-.2.638 1 1 0 0 0 .879.54c.42.086.849.12 1.277.1h1.657a8.625 8.625 0 0 0 1.877-.12 10.24 10.24 0 0 1 1.637-.42c.298-.047.6-.047.898 0 .336.057.664.15.979.28.2 0 1.158.12 1.617.16.459.04 1.078 0 1.557 0l2.116-.22c1.098 0 .938-.879.42-1.018a4.532 4.532 0 0 0-1.059.16 2.296 2.296 0 0 1-1.577-.38 1.178 1.178 0 0 1 0-1.118c.17-.47.17-.987 0-1.457a1.477 1.477 0 0 1-.12-.759c.032-.26.128-.506.28-.719a.958.958 0 0 1 1.198-.3.619.619 0 0 1 .28.66c-.12.399-.36.459-.38.738-.02.28 0 .34.16.62a.639.639 0 0 1 0 .818c-.4.439-.12.818.28.878.366-.011.73-.079 1.077-.2a.858.858 0 0 0 .46-.898c0-.34-.42-.44 0-.858.419-.42.259-.939.259-1.318 0-.38 0-.36.24-.779.239-.419-.28-.758-.48-.479-.2.28-.36-.918-.18-1.138a2 2 0 0 0 .42-.758c.12-.36.2-.2 0-.68-.2-.478-.32-.199-.5-.279-.179-.08-.279-1.038-.12-1.677.16-.638.46 0 .86.62.399.618.399-.74.279-1.238-.12-.5.12-1.498 0-1.997-.2-.486-.2-1.031 0-1.517.16-.612.228-1.245.2-1.877a1.118 1.118 0 0 1 1.257-.439c.022.206.022.413 0 .619-.02.364-.122.72-.3 1.038a.838.838 0 0 0 .16 1.018c.2 0 .1.3 0 .54-.1.239-.2.518 0 .638s0 0 0 .579c.052.257.052.522 0 .779 0 .539-.16.998.22.998s.679-.18.799.14c.12.319.26.978.539.818a.938.938 0 0 0 .519-.958 11.28 11.28 0 0 1-.24-1.777 5.99 5.99 0 0 1 0-1.457 2.276 2.276 0 0 0-.06-1.338c0-.32-.12-.579-.14-.799a2 2 0 0 0 1.438.42.24.24 0 0 1 0 .2.998.998 0 0 0-.14 1.097c.14.32.739.48.28.999-.46.519-.14.978.439.898.579-.08.918 0 .799.5-.12.498.299.618.579.598 1.417 0 1.417 1.617.578 1.797a4.492 4.492 0 0 0-1.297.499c-.44.2-.5 1.018-.34 1.337.16.32.38.52.12.899a.958.958 0 0 0-.12 1.038.918.918 0 0 1 0 1.098 1.717 1.717 0 0 0-.22 1.617c.26.48.54 1.078.22 1.318-.319.24-.359.14-.878 0-.52-.14-.819 0-.998-.4-.18-.399.36-.359.32-.898a5.23 5.23 0 0 1 0-.559c0-.559.438-1.058.239-1.717-.2-.659.38-.818.12-1.337-.26-.52-.76-.62-.819-1.118-.06-.5-.16-.899-.719-.859-.559.04-.12 2.456-.22 3.314a3.574 3.574 0 0 0 0 1.617c.122.29.163.607.12.919 0 .738-.339.778-.18 1.138.16.359 0 .579-.418.599-.42.02-.939.24-1.039.638-.1.4.44.42.76.32.318-.1 1.157-.32 1.456-.12.39.249.824.418 1.278.5.6 0 1.478.199 1.997.219a14.89 14.89 0 0 0 2.775-.12 6.828 6.828 0 0 1 2.755-.24c.64.275 1.31.476 1.996.6.785-.04 1.571-.04 2.356 0 .843.15 1.699.223 2.555.219.52 0 1.078-.1.879-.46-.2-.359-.52-.319-1.158-.578a2.935 2.935 0 0 0-1.897-.46c-.607.102-1.22.162-1.837.18a3.594 3.594 0 0 1-1.557-.698 3.993 3.993 0 0 0-1.996-.56 11.12 11.12 0 0 1-2.556.2c-.519-.14-1.437-.459-1.716-1.118a2.795 2.795 0 0 1-.26-1.637 6.668 6.668 0 0 0 0-2.655 2.535 2.535 0 0 1 .12-.819c.14-.38.357-.727.639-1.018.386-.24.824-.383 1.277-.42.62 0 1.298-.219 1.997-.319a26.113 26.113 0 0 0 4.272-.858c.839-.32 1.477-.639 2.136-.878.62-.202 1.254-.356 1.897-.46.18.46.918.899 2.236.38 1.317-.52 1.876-.52 2.475.3a2.336 2.336 0 0 0 1.877 1.177c.819.14 1.278 0 1.537.659.26.659.5 1.218 1.358 1.098.463-.028.925.068 1.337.28a.14.14 0 0 0-.08.1Z"/></g></g></svg>