<svg viewBox="0 0 90 90" xmlns="http://www.w3.org/2000/svg"><defs><linearGradient x1="64.621%" y1="5.531%" x2="37.116%" y2="88.81%" id="a"><stop stop-color="#7E68FA" offset="0%"/><stop stop-color="#F16D54" offset="37.946%"/><stop stop-color="#FE9C7E" offset="66.973%"/><stop stop-color="#FBDE3A" offset="100%"/></linearGradient></defs><g fill="none" fill-rule="evenodd"><path fill="#FFF" d="M0 0h90v90H0z"/><g transform="translate(24 19)" fill-rule="nonzero"><rect fill="#7D68F6" x="32.476" width="8.685" height="8.685" rx="4.343"/><rect fill="#F7CC48" x=".815" y="44.139" width="8.685" height="8.685" rx="4.343"/><path d="M24.815 26.662a14.9 14.9 0 0 0 5.053-11.196 14.859 14.859 0 0 0-1.981-7.434.019.019 0 0 1 .016-.029h1.965V.53H14.943C6.699.53.018 7.212.018 15.454v.454c0 .24-.018.479-.018.721 0 8.244 6.683 14.925 14.925 14.925h.031a6.323 6.323 0 0 1 6.323 6.322c0 3.488-3.193 6.471-9.239 6.52v8.417c14.574 1.771 24.503-14.686 12.775-26.15Zm-9.872-4.765a6.43 6.43 0 1 1 0-12.861h.016c3.35.076 6.183 2.655 6.399 5.998a6.43 6.43 0 0 1-6.414 6.863h-.001Z" fill="url(#a)"/></g></g></svg>