<svg viewBox="0 0 90 90" xmlns="http://www.w3.org/2000/svg"><g fill="none"><path fill="#0A56A5" d="M0 0h90v90H0z"/><path d="m72.144 47.751-5.907-13.9.72-12.721.347-6.125-4.939 3.603-8.421 6.159-8.19-2.262L45 22.29l-.76.21-8.188 2.266-8.422-6.159L22.696 15l.347 6.124.72 12.72-5.907 13.907L17 49.759l1.694 1.381 10.509 8.566 3.4 2.771 2.002 6.049.372 1.124 1.01.539 7.657 4.085 1.36.726 1.359-.726 7.656-4.085 1.01-.54.371-1.123 2.002-6.049 3.4-2.77L71.31 51.14 73 49.76l-.856-2.009Zm-1.62 2.455L60.015 58.77l-2.874 2.338.096-1.966-.094.188-2.923 8.835-.212.643-.577.307-7.657 4.086-.774.415-.777-.415-7.656-4.086-.577-.307-.212-.643-2.919-8.836-.094-.188.097 1.966-2.875-2.342L19.478 50.2l-.968-.788.49-1.15 6.025-14.169-.736-13.01-.198-3.499 2.82 2.062 8.895 6.505 8.764-2.42.438-.119.437.12 8.764 2.42 8.896-6.506 2.82-2.062-.198 3.5-.737 13.01 6.026 14.167.489 1.15-.981.795Zm-1.043-1.29L63.344 34.48l-4.321 1.296 2.591-2.898 2.44-11.695.01-.19-9.532 6.97L45 25.33l-9.532 2.632-9.532-6.97 2.478 11.886 2.591 2.898-4.343-1.303v-.008l-6.145 14.447 10.51 8.566-.298-6.072 3.648 7.266 2.967 8.974 6.706 3.58v-2.55l-2.462-1.375v-2.97l1.869-.836L45 62.807l1.543.691 1.87.837v2.97l-2.464 1.375v2.549l6.707-3.583 2.969-8.975 3.648-7.266-.298 6.072 10.506-8.56Zm-29.447.664-6.045-1.87-1.927-4.102 8.55 3.556 1.465 4.605-2.043-2.19Zm15.76-1.87-6.046 1.87-2.044 2.194 1.465-4.606 8.55-3.555-1.926 4.097Z" fill="#FFF"/></g></svg>