<svg xmlns="http://www.w3.org/2000/svg" viewBox="0 0 90 90"><path fill="#FFF" d="M0 0h90v90H0z"/><path d="M37.496 63.748v5.31a1.438 1.438 0 0 1-2.193 1.228L32.85 68.7l-.587-.333-10.81-6.29-.585-.338a3.736 3.736 0 0 1-1.378-1.395 3.766 3.766 0 0 1-.486-1.875L19 45.244V31.998c0-.703.197-1.39.565-1.98.363-.592.89-1.078 1.436-1.345l10.661-6.201.583-.343c.193-.112.193-.112.587-.337l10.212-5.934.595-.355a3.704 3.704 0 0 1 2.038-.499c.692.034 1.374.262 1.852.605l10.626 6.18.59.335 10.8 6.286.59.339c.577.336 1.05.815 1.377 1.395.323.573.491 1.225.486 1.875L72 44.062c0 1.113-1.197 1.808-2.155 1.251l-4.585-2.667a1.447 1.447 0 0 1-.717-1.251v-7.236l-9.334-5.433c-.081-.04-.263-.145-.768-.439L45.5 23.078l-9.303 5.408c-.09.06-.09.06-.143.093l-.659.386-8.938 5.194v22.17l9.34 5.434c.06.03.188.104.783.45l.193.172.159.215c.353.271.564.695.564 1.148Zm27.047-13.649c0-1.111 1.196-1.807 2.153-1.252l4.585 2.658c.445.258.719.735.719 1.252v4.4c0 .377-.146.74-.409 1.01l-2.161 2.217c-.81 1.043-2 1.458-3.062.843l-17.036-9.94-.005 18.754a2.13 2.13 0 0 1-.778 1.837l-3.141 2.555c-.39.364-.902.567-1.437.567a2.118 2.118 0 0 1-2.11-2.125l.003-25.934-2.871-1.67-1.452.84c-.069.05-.044.035-1.51.886-1.032.608-2.332.286-2.926-.745l-.809-1.406-.801-1.392c-.6-1.042-.28-2.348.745-2.945l1.41-.814 3.495-2.026.63-.358a2.1 2.1 0 0 1 2.284-.105l.796.466L64.543 51.45V50.1Z"/></svg>