<svg viewBox="0 0 90 90" xmlns="http://www.w3.org/2000/svg"><defs><linearGradient x1="50%" y1="39.018%" x2="72.87%" y2="75.931%" id="a"><stop stop-color="#FEEA00" offset="0%"/><stop stop-color="#F8B01C" offset="100%"/></linearGradient></defs><g fill="none" fill-rule="evenodd"><path d="M56.842 63.173c23.97-9.64 38.1-30.514 31.56-46.626C81.862.435 57.128-4.812 33.158 4.827c-23.97 9.64-38.1 30.514-31.56 46.626 6.54 16.112 31.274 21.359 55.244 11.72Z" fill="url(#a)" transform="translate(0 11)"/><path d="M47.784 57.08s1.79.047 3.09-.729c2.102-1.257 4.862-3.533 8.772-9.006L17.732 57.597l30.052-.518ZM25.862 32.601c2.011.721 8.545 3.004 12.182 5.463l.34.244 27.156-.423a79.835 79.835 0 0 0 1.637-2.944c.65-1.24.68-2.3-.041-3.004-.8-.765-2.093-.887-4.706-.887H26.008c-.289 0-1.02-.048-1.15.545a.65.65 0 0 0 .164.556c.244.209.53.362.84.45Zm54.607 6.784c-.603 0-40.362.623-40.978.647-.34 0-.429.088-.429.44-.017 2.872-3.835 5.633-9.031 8.098-5.486 2.605-12.367 5.192-15.943 6.503-.854.315-2.382.85-2.876 1.1-.39.2-.663.52-.54.858.122.338.523.538 1.885.18.609-.16 1.293-.34 2.041-.522 6.87-1.782 19.448-4.915 31.699-7.96 12.686-3.153 25.181-5.88 34.369-7.525.721-.129 1.314-.515 1.286-1.06-.027-.546-.633-.783-1.483-.759Z" fill="#003DA5" fill-rule="nonzero"/></g></svg>