<svg viewBox="0 0 90 90" xmlns="http://www.w3.org/2000/svg"><g fill="none"><path fill="#FFF" d="M0 0h90v90H0z"/><path d="m46.379 46.408.173-.172c.111-.114.231-.233.35-.346l.24-.232.711-.708.977-.955.83-.829.779-.775.813-.81.746-.741 1.047-1.033c.195-.199.4-.39.606-.578.377-.346.77-.682 1.164-1.01a26.19 26.19 0 0 1 2.791-1.938 30.942 30.942 0 0 1 1.714-.932c.86-.42 1.748-.785 2.654-1.093.164-.054.326-.113.498-.165a41.443 41.443 0 0 0-7.767-15.686A3.75 3.75 0 0 0 51.783 17H21.768a.57.57 0 0 0-.336 1.025 87.993 87.993 0 0 1 24.88 28.461l.069-.08-.002.002Z" fill="#00D6B9"/><path d="M34.449 72.998c15.5 0 29.006-8.61 36.045-21.333.248-.449.487-.896.718-1.353a16.712 16.712 0 0 1-1.652 2.603c-.36.466-.744.915-1.147 1.345a14.807 14.807 0 0 1-1.798 1.619c-.263.206-.535.401-.813.586a16.43 16.43 0 0 1-1.096.681 15.512 15.512 0 0 1-3.462 1.43c-.604.172-1.219.305-1.84.398-.446.07-.908.12-1.362.155-.48.034-.967.044-1.456.044a17.311 17.311 0 0 1-1.627-.104 19.425 19.425 0 0 1-1.208-.172 15.33 15.33 0 0 1-1.052-.225c-.19-.044-.369-.095-.556-.147a111.61 111.61 0 0 1-1.542-.431c-.257-.077-.513-.145-.762-.223a40.61 40.61 0 0 1-1.14-.353c-.309-.095-.617-.199-.925-.302-.292-.095-.592-.19-.882-.294l-.6-.207-.726-.258-.514-.189a36.293 36.293 0 0 1-1.02-.38c-.198-.079-.395-.146-.592-.224l-.786-.31-.831-.337-.54-.223-.668-.278-.513-.213-.533-.234-.462-.207-.419-.188-.428-.199-.436-.207-.557-.258-.582-.278c-.205-.101-.413-.197-.618-.3l-.52-.258a86.703 86.703 0 0 1-24.57-18.436.564.564 0 0 0-.618-.138.57.57 0 0 0-.359.525l.018 26.66v2.164c0 1.258.616 2.43 1.652 3.13A40.644 40.644 0 0 0 34.449 73v-.002Z" fill="#3370FF"/><path d="M80 35.418a23.554 23.554 0 0 0-17.528-1.335c-.164.052-.328.104-.498.163a24.431 24.431 0 0 0-4.368 2.017c-.572.337-1.123.699-1.662 1.086a21.863 21.863 0 0 0-2.295 1.862c-.206.19-.401.38-.608.576l-1.045 1.035-.744.743-.813.809-.78.774-.83.829-.968.965-.71.708-.241.232c-.115.117-.232.233-.352.346l-.171.173-.265.248-.3.278a41.527 41.527 0 0 1-8.547 6.091l.557.258.438.209.428.199.419.188.462.207.533.232.513.217.667.276.539.223.83.337c.258.104.524.207.79.31.198.078.393.145.59.225.342.129.686.248 1.02.377l.512.19c.241.086.48.174.73.26l.599.206c.29.095.582.198.882.294.308.103.616.198.924.302.377.119.762.232 1.139.351a97.31 97.31 0 0 0 2.303.656c.19.052.37.095.557.147.351.085.703.155 1.054.225.403.067.805.129 1.208.17 1.48.172 2.975.14 4.445-.095a16.5 16.5 0 0 0 1.84-.395c.777-.214 1.537-.49 2.27-.827a15.432 15.432 0 0 0 1.757-.94c.187-.113.357-.232.529-.345.274-.189.548-.378.813-.586.23-.173.454-.354.67-.543a16.525 16.525 0 0 0 2.27-2.423 18.48 18.48 0 0 0 1.643-2.587l.401-.799 3.58-7.18.042-.087A23.573 23.573 0 0 1 80 35.418Z" fill="#133C9A"/></g></svg>