<svg viewBox="0 0 90 90" xmlns="http://www.w3.org/2000/svg"><g fill="none"><path fill="#263238" d="M0 0h90v90H0z"/><path fill="#25C6FE" d="M12 45h9.447v-9.333H12z"/><path fill="#5D5CB0" d="M21.447 54.333h9.446V45h-9.446z"/><path fill="#00EDA4" d="M59.233 73h9.446v-9.333h-9.446z"/><path fill="#FFB404" d="M21.447 26.333h9.446V17h-9.446z"/><path fill="#F98C65" d="M40.34 54.333h9.446v-9.33H40.34z"/><path fill="#70C889" d="M49.786 45h9.447v-9.333h-9.447z"/><path fill="#25C6FE" d="M30.893 73h9.447v-9.333h-9.447z"/><path fill="#BDDF60" d="M68.553 26.333H78V17h-9.447z"/><path fill="#25C6FE" d="M68.553 35.667H78v-9.334h-9.447z"/><path fill="#93A2FF" d="M59.107 26.333h9.446V17h-9.446z"/><path d="M49.786 54.333H40.34v-28h-9.447v37.334h28.34v-9.334z" fill="#FFF"/></g></svg>