<svg viewBox="0 0 90 90" xmlns="http://www.w3.org/2000/svg"><g fill="none"><path fill="#FFF" d="M0 0h90v90H0z"/><path fill="#E22333" d="M13.127 61.156v9.183h6.084l.742-1.822h-4.84v-7.36zm13.426 5.341-1.197-2.98-1.197 2.98h2.394Zm-2.092-5.331h1.828l3.868 9.183h-2.072l-.814-2.066h-3.83l-.823 2.056h-2.025l3.868-9.173Zm11.376 1.854h-2.834v-1.864h7.65v1.864h-2.831v7.32h-1.985zm10.41 2.597c.407.03.81-.096 1.13-.353.264-.239.408-.586.393-.945v-.025a1.172 1.172 0 0 0-.415-.974 1.775 1.775 0 0 0-1.144-.33H44.24v2.627h2.008Zm-3.995-4.451h4.124c1.145 0 2.018.312 2.633.933a2.87 2.87 0 0 1 .762 2.088v.027a2.92 2.92 0 0 1-.527 1.825c-.358.467-.84.821-1.388 1.02l2.204 3.28h-2.322l-1.94-2.936h-1.561v2.936h-1.985v-9.173Zm13.462 7.47a2.66 2.66 0 0 0 1.094-.224c.327-.14.621-.35.862-.616a3 3 0 0 0 .752-2.017v-.03a3.09 3.09 0 0 0-.2-1.114 2.78 2.78 0 0 0-1.496-1.553 2.708 2.708 0 0 0-2.137.004 2.536 2.536 0 0 0-.852.616 2.962 2.962 0 0 0-.553.912 3.05 3.05 0 0 0-.201 1.11v.025c-.002.381.066.76.2 1.116.127.341.32.653.568.916a2.61 2.61 0 0 0 1.965.855m-.026 1.862a4.879 4.879 0 0 1-1.915-.373 4.793 4.793 0 0 1-1.513-1.011 4.437 4.437 0 0 1-.99-1.496 4.758 4.758 0 0 1-.357-1.84v-.029a4.676 4.676 0 0 1 .361-1.842 4.648 4.648 0 0 1 2.52-2.531A4.86 4.86 0 0 1 55.724 61a4.808 4.808 0 0 1 3.426 1.384c.425.426.763.934.993 1.494.238.585.358 1.213.354 1.847v.024a4.701 4.701 0 0 1-.361 1.842 4.628 4.628 0 0 1-2.52 2.534 4.893 4.893 0 0 1-1.915.373m10.365-1.93a1.91 1.91 0 0 0 1.032-.244c.253-.16.4-.447.385-.75v-.027a.87.87 0 0 0-.347-.73 1.839 1.839 0 0 0-1.12-.271h-2.295v2.02l2.345.002Zm-.526-3.699c.361.018.721-.06 1.043-.229a.795.795 0 0 0 .386-.73v-.027a.804.804 0 0 0-.335-.7 1.608 1.608 0 0 0-.958-.243h-1.958v1.949l1.822-.02Zm-3.765-3.703h4.181c1.039 0 1.823.271 2.353.814.404.41.624.971.61 1.552v.027a2.232 2.232 0 0 1-.351 1.24 2.395 2.395 0 0 1-.816.753c.47.165.892.447 1.23.818.319.406.48.918.45 1.438v.027c.01.381-.073.759-.24 1.1a2.097 2.097 0 0 1-.68.79 3.175 3.175 0 0 1-1.067.456c-.453.11-.918.162-1.384.156h-4.286v-9.171Zm8.94-.01h6.79v1.798h-4.832v1.864h3.533v1.798h-3.533v1.93h4.897v1.793h-6.855z"/><path d="M14.063 77.11v-3.567H13v3.604c0 1.78.936 2.763 2.633 2.763s2.676-.997 2.676-2.81v-3.557h-1.058v3.613c0 1.138-.582 1.789-1.596 1.789-1.015 0-1.595-.67-1.595-1.835m6.686-3.567v6.262h1.043v-4.598l3.44 4.598h.94v-6.262h-1.04v4.464l-3.34-4.464zm8.353 0h1.06v6.262h-1.06zm4.486 0H32.41l2.487 6.262h1.015l2.489-6.262h-1.142l-1.836 5.036zm7.844 3.567h3.078v-.92H41.43v-1.728h3.497v-.919h-4.548v6.262h4.593v-.919H41.43zm9.663.331a1.863 1.863 0 0 0 1.276-1.878 1.948 1.948 0 0 0-.503-1.403c-.397-.402-1.01-.617-1.771-.617h-2.796v6.262h1.063v-2.127h1.41l1.395 2.127h1.238l-1.532-2.278.22-.086Zm-2.731-.682v-2.278h1.613c.823 0 1.314.424 1.314 1.138s-.505 1.14-1.278 1.14h-1.65Zm8.829-.558c-1.045-.273-1.545-.43-1.545-1.055 0-.402.315-.792 1.024-.792.594.027 1.167.23 1.65.585l.547-.796a3.568 3.568 0 0 0-2.166-.695c-1.254 0-2.097.731-2.097 1.813 0 1.145.623 1.498 2.018 1.864 1.008.263 1.458.472 1.458 1.028 0 .414-.297.838-1.128.838a3.042 3.042 0 0 1-1.914-.73l-.613.747a3.935 3.935 0 0 0 2.508.892c1.362 0 2.207-.714 2.207-1.866 0-.975-.522-1.462-1.93-1.83m4.24-2.661h1.06v6.262h-1.06zm5.412 6.262h1.06v-5.297h1.987v-.965h-5.034v.965h1.987zm9.448-6.262-1.695 2.846-1.661-2.846h-1.23l2.352 3.78v2.482h1.063V77.29l2.353-3.747zM60.4 46.233a.746.746 0 0 1 .377 0 3.57 3.57 0 0 1 1.6 1.409c.31.536.426 1.168.324 1.783-.319 2.347-2.88 1.907-5.91 2.121a74.35 74.35 0 0 0-12.401 1.676c.314.116.62.253.915.41.388.197.823.69 1.403.595 1.373-.208 5.562-1.397 9.56-1.397 3.999 0 6.717.41 8.35-.963 0 0 .366-.13.059-.184a7.812 7.812 0 0 1-2.805-.493l.232-.143a13.91 13.91 0 0 0 3.222.208l-.012.036s1.02-.172.58.386c-.933 1.189-1.907 2.003-4.67 1.914a52.353 52.353 0 0 0-10.727.594c-.385.06-.847.163-1.319.275l-.566.137c-.656.159-1.276.307-1.673.349a2.87 2.87 0 0 1-1.657-.166c-.788-.512-1.298-1.29-3.216-1.581-1.918-.292-2.718-.53-2.23-.53 0 0 1.801-.13 3.21-.35 1.86-.28 6.895-.987 8.813-1.105 1.918-.12 6.977-.654 8.176-.714 1.2-.059 2.602-.487 1.947-2.33a2.315 2.315 0 0 0-1.454-1.52.498.498 0 0 0-.307 0 9.134 9.134 0 0 1-3.477.445s-.174-.095.145-.137a16.839 16.839 0 0 0 3.511-.725Zm-21.208.975c1.112-.374 3.303.416 5.267.416 0 0 .945.042 0 .238-.944.196-3.54-.173-3.54-.173.426.388.687.932.724 1.516.07 1.01-.081 2.49-1.623 3.084-.063.036-.127.066-.15.036-.023-.03.058-.048.156-.125.267-.185.47-.45.58-.76a1.8 1.8 0 0 1-.736-1.581l-1.588-.666-.054.21c-.173.77-.068 1.58.296 2.277l.106.187c.029.048.098.16.087.173-.012.012-.099-.066-.163-.12a2.6 2.6 0 0 1-.932-2.448 2.408 2.408 0 0 1 1.57-2.264Zm-6.786-30.524c9.33-7.625 17.53-8.297 19.94-7.352 1.472.57 1.68 2.211 1.645 3.305 3.216-2.104 5.105-2.52 6.276-1.51 1.17 1.01-.29 3.299-.921 4.095-.24.302-.651.922-1.07 1.576l-.227.358c-.605.954-1.16 1.87-1.16 1.87l-.823.231c.394-1.224 2.358-4.237 2.52-4.451.163-.214 1.93-2.508.487-3.334-1.246-.713-4.3 1.028-5.105 1.515a5.74 5.74 0 0 1-.087.69s2.8-1.433 3.42-.809c.62.624.23 1.433-1.16 3.81-1.112 1.955-1.159 3.293-1.159 3.738.835-.243 1.988-.547 2.898-.838a2.49 2.49 0 0 0 1.686-1.337c.208-.137 1.136.048 1.738.143.603.095 1.918.012 2.44.095.492.055.97.204 1.408.44.434.29 1.61.612 2.266.885.654.273 1.32.375 1.448 1.652l.099.048a3.317 3.317 0 0 1-.336 2.009 3 3 0 0 0-.116-.797c-.11-.237-3.222.553-3.222.553-.736.225-1.457.495-2.161.808-.789.387-.91 1.112-1.217 1.308-.307.196-.516-.482-.516-.482-.077.01-.387.477-.72.98l-.202.302c-.201.3-.395.582-.538.757-.43.523-.94-.345-.94-.345l-1.285 2.585c-.33 2.253-1.165 3.09-1.206 3.144a10.05 10.05 0 0 1-1.541 1.605c-1.4.99-2.862 1.885-4.375 2.68.029-.54.406-1.622.36-1.907-.024-.16-.488.635-.87 2.062l-.135.48a16.31 16.31 0 0 0-.537 3.942c.18 4.308.539 4.665 1.698 5.384a2.888 2.888 0 0 1 1.42 2.882c-.01.283-.135.55-.344.735a.974.974 0 0 1-.758.24c-.11-.036.354-.095.435-.303.081-.208.07-.54-.14-.648-.208-.107-.074-.386-.074-.701a1.187 1.187 0 0 0-.58-.814c-.191-.137-.191.047-.191.047.156 1.706-.226 2.158-.226 2.158-.168.428-1.368.968-.927.51.255-.255.243-.415.156-.48a1.742 1.742 0 0 1-.226-.173c-.08-.11-.06-.185.006-.318l.078-.155a3.26 3.26 0 0 0 .096-.216c.135-.447.084-.93-.14-1.338-.08-.095-.11 0-.353.636a4.104 4.104 0 0 1-.637 1.082c0 .267-.835.796-1.16.814-.324.018-.376-.196-.376-.196 1.055-.137.632-.749.58-.856-.052-.107.133-.487.226-.648.092-.16.174-.267.208-.326a.841.841 0 0 0 .134-.286.676.676 0 0 0-.371-.754 1.216 1.216 0 0 0-1.408.19h-.94c-.19-.256.308-.779.853-.999 1.09-.44 1.025-.654 1.025-.654a1.32 1.32 0 0 1-.892-.707 1.803 1.803 0 0 1-.487 0c-.29-.035-.278-.38-.324-.939a24.085 24.085 0 0 0-.8-2.781c-.701.636-.794.273-.701-1.016.021-.771-.04-1.543-.18-2.3a5.67 5.67 0 0 1-2.544-.517c-2.59.421-4.01-.684-4.01-.684-1.552.03-1.935-.672-1.935-.672s-1.251 1.07-3.772.357c-1.982-.565-2.834.44-5.69 1.379a38.997 38.997 0 0 1-5.69 1.343 9.573 9.573 0 0 1-1.919.065c-.301-.017-.528-.107-.528-.344-.017-.505.464-.232 2.464-.862a47.483 47.483 0 0 0 10.331-4.618c-.707 1.89 1.078 1.117 1.692.838.615-.28 3.512-2.062 3.512-2.062s-1.078 1.402-.498 1.402c1.1-.011 4.131-1.468 4.676-1.64.227-.072.365-.114.45-.138l.077-.022c.046-.012.052-.012.052-.012.053 1.129.725 1.373 1.524 1.301.8-.071 1.478-.463 2.538-.927.421-.24.88-.4 1.356-.475.203-.012-.168.463.122.76.174.179.603.22 1.64-.374 3.228-1.783 4.265-3.43 4.387-3.566.121-.137.237-.142 1.187-.428.95-.285 1.45-.814 2.69-2.377 1.24-1.563 4.252-2.978 4.832-3.293.58-.315 1.194-1.61 1.194-1.61.188.348.506.603.88.707.591.157 1.2-.184 1.391-.778a.935.935 0 0 1-.521.083.713.713 0 0 1-.626-.713 1.886 1.886 0 0 0-.933.136l.26-.463c.608.105 1.222.17 1.837.196 1.026.041 1.553.172 1.078.339a2.725 2.725 0 0 1-.458.118c-.076.485-.307.93-.654 1.266h1.738a3.476 3.476 0 0 0-1.257.886s1.437-.476 1.923-.594c.487-.12.157-.262-.173-.298a4.67 4.67 0 0 1 1.842.274h.035a2.957 2.957 0 0 0-.348-1.254c-.29-.523-.388-.589-1.257-.755a19.87 19.87 0 0 1-2.758-1.1 5.087 5.087 0 0 0-1.797 0c-.695.017-1.39-.04-2.074-.166-.354.119-.26.321-.933.82-.672.5-1.93.6-2.66.838-.539.173-.915.297-1.037.535-.232.434.232.434.232.434-1.003.44-2.162 1.111-2.162 1.111-1.402-2.002-.58-9.996-.58-9.996 0-.297.111-1.516-.816-1.955-1.582-.761-5.546-.446-11.433 1.967-5.737 2.34-11.254 6.872-15.035 10.617l-.436.437c-3.142 3.173-4.947 5.673-4.44 5.587.323-.055.84-.5 1.55-1.202l.294-.294c1.777-1.792 4.602-4.88 8.46-7.556a64.811 64.811 0 0 1 11.334-6.294s-1.408 1.058-.58 2.378c.933 1.486 6.004-1.403 6.004-1.403s-1.617 1.997-1.038 3.06c.829 1.44 3.025-.807 3.726-1.11.701-.304-.052 2.216-.15 2.864-.099.648-.487 1.652-.25 1.682.238.03 1.194-.856 1.194-.856-.174 1.95-1.373 4.666-5.122 6.77a18.272 18.272 0 0 1-7.174 2.377c-.753.125-1.315.594-2.254 1.081-1.565.815-4.758 2.259-4.868 2.104-.02-.03.196-.194.561-.44l.3-.2c1.735-1.14 5.479-3.39 5.479-3.39-1.107.233-.829-1.134-.829-1.134-3.262.231-2.161-2.574-2.161-2.574a6.232 6.232 0 0 1-4.798-.54c-3.668 3.22-6.6 3.036-6.6 3.036-.33.357-3.124 3.566-4.202 2.972-.985-.559 2.092-4.184 5.39-7.69a56.224 56.224 0 0 1 7.086-6.318Zm22.026 18.49c-2.19 4.237-1.287 8.967-1.316 9.122-.028.11-.065.217-.11.32.191.39.44.747.736 1.059 1.345.243 2.08 1.117 2.66 1.432.352.2.61.54.713.939.765 1.296-.244 1.658-.394 1.712-.151.053.29-.214.29-.595a.794.794 0 0 0-.244-.558c-.533 0-.504-.202-.719-.595a1.014 1.014 0 0 0-.579-.487c.304.49.502 1.041.58 1.616.062.499-.164.989-.58 1.254-.209.107-.603.262-.301-.089.301-.35.22-.594.22-.594-.533-.196-.325-.446-.458-1.13-.191-1.069-.77-.974-.77-.974.475 1.242.19 1.545-.059 2.14a.854.854 0 0 1-.944.54c-.157-.023.266-.1.423-.386.156-.285.168-.38.035-.529-.134-.148-.081-.255-.081-.677a3.289 3.289 0 0 0-1.739-2.639c-1.043-.618-1.39-1.533-1.506-4.82a15.84 15.84 0 0 1 .255-3.922s.944-.428 1.703-.844l-.046-.006c.759-.41 2.23-1.29 2.23-1.29Zm-4.688 10.744a1.524 1.524 0 0 0-1.397.072c-.44.196-.417.404-.162.457.255.054.325.107.545.595.131.285.193.6.18.915-.047.172.104-.03.202-.238a.772.772 0 0 1 .58-.523c.411-.036.643.933.626 1.367-.018.434.168.38.226 0 .018-.38.018-.761 0-1.141.04-.208.226-.41.579-.071.353.338.516.386.58.338.063-.047-.058-.231-.174-.35a6.828 6.828 0 0 0-1.2-.803 1.557 1.557 0 0 1-.51-.594Zm3.14-.32a.45.45 0 0 0-.37.089s-.081.13.098.25a3.33 3.33 0 0 1 1.014 1.277c.25.636.134.19.151-.036.017-.226.116-.303.435-.178.522.294.922.774 1.124 1.349 0 0 .139.137.139 0a3.175 3.175 0 0 0-.458-1.105c-.197-.286.058-.256.232-.185.174.072.776.369.805.232.03-.137-1.663-1.29-2.416-1.29v-.023a1.613 1.613 0 0 0-.753-.38Zm-17.679-8.505a2.553 2.553 0 0 0 1.796.594h.035c.023 0 .4.267.4.267s-6.415 3.65-8.692 4.559c-2.277.91-3.291.315-3.291.315-.632-.398 2.625-1.955 2.625-1.955Zm-6.664.867c1.211-.546 2.44-.873 3.286-.546.446.207.948.247 1.42.113-1.513.88-8.698 4.166-10.703 4.635-2.005.47-1.837-.719-1.837-.719-2.034-.333-2.526-1.105-2.526-1.105 3.326.19 9.15-1.83 10.36-2.378Zm9.863.107a3.4 3.4 0 0 0 1.622.292h.03a25.24 25.24 0 0 1-2.029 1.872c-2.155 1.907-3.482 2.044-4.775 1.836-1.292-.208-.145-.683.58-1.087.724-.405 4.572-2.913 4.572-2.913ZM66.35 20.642s.33.63-.58.63c.243-.156.442-.373.58-.63Z" fill="#000"/></g></svg>