<svg viewBox="0 0 90 90" xmlns="http://www.w3.org/2000/svg"><g fill="none" fill-rule="evenodd"><path fill="#282828" d="M0 0h90v90H0z"/><path d="M45.498 72c-.398 0-.897-.3-1.096-.701-.2-.401-.2-.902.1-1.202l13.153-18.033-22.918 9.317-.598.1c-.498 0-.997-.4-1.096-.901-.2-.501 0-1.002.498-1.303l20.128-11.921-35.473-2.004c-.797 0-1.196-.6-1.196-1.402 0-.501.399-1.102 1.196-1.202l35.473-2.004-20.128-12.021c-.498-.2-.698-.802-.498-1.303.199-.5.598-.801 1.096-.801l.498.1 22.918 9.417-12.954-18.132c-.299-.401-.398-.902-.199-1.303.2-.4.598-.701 1.096-.701.3 0 .598.2.897.4l26.107 26.047c.299.4.498 1.002.498 1.503 0 .5-.2 1.002-.498 1.402L46.395 71.6a1.193 1.193 0 0 1-.897.401Z" fill="#FFF" fill-rule="nonzero"/></g></svg>