<svg viewBox="0 0 90 90" xmlns="http://www.w3.org/2000/svg"><g fill="none"><path fill="#FFF" opacity=".961" d="M0 0h90v90H0z"/><path d="m12.644 59.48-.146-.353-1.097-2.638h-.091l-.95 2.304c-.045.09-.082.182-.11.278a1.883 1.883 0 0 1-.256.52.544.544 0 0 1-.33.149v.111h.97v-.111a.383.383 0 0 1-.256-.074.253.253 0 0 1-.092-.223 1.92 1.92 0 0 1 .183-.595l.091-.204h1.243l.256.613c.048.101.085.207.11.316 0 .063-.036.12-.091.148a1.125 1.125 0 0 1-.33.038v.111h1.28v-.111a.465.465 0 0 1-.256-.093.667.667 0 0 1-.128-.186Zm-2.047-.947.585-1.412.585 1.412h-1.17Zm5.374-1.877a.872.872 0 0 1 .33.056.303.303 0 0 1 .182.149c.036.1.049.209.037.315v1.988l-1.938-2.6h-.969v.11a.945.945 0 0 1 .33.038c.054.019.09.074.109.167.028.172.04.346.036.52v1.765c.008.13.002.261-.018.39a.23.23 0 0 1-.146.149c-.11.049-.228.08-.347.093v.111H14.8v-.111a.705.705 0 0 1-.384-.075.352.352 0 0 1-.164-.167 1.41 1.41 0 0 1-.037-.371v-2.304L16.538 60h.11v-2.75a.97.97 0 0 1 .036-.296.286.286 0 0 1 .146-.149.721.721 0 0 1 .33-.074v-.112h-1.19v.037Zm6.435 2.824-.147-.353-1.096-2.638h-.092l-.95 2.304c-.044.09-.081.182-.11.278a2.618 2.618 0 0 1-.256.52.461.461 0 0 1-.329.149v.111h.969v-.111a.383.383 0 0 1-.256-.074.267.267 0 0 1-.11-.223 1.92 1.92 0 0 1 .183-.595l.091-.204h1.244l.255.613c.048.101.085.207.11.316 0 .063-.035.12-.091.148a1.125 1.125 0 0 1-.33.038v.111h1.28v-.111a.465.465 0 0 1-.256-.093c-.018-.056-.073-.112-.11-.186Zm-2.048-.947.585-1.412.585 1.412h-1.17Zm3.071-1.988v.111h.055a1.15 1.15 0 0 1 .33.037c.054.038.088.1.09.168.02.172.027.346.019.52v1.634c.007.18 0 .36-.018.54a.271.271 0 0 1-.11.166.54.54 0 0 1-.293.056h-.11v.112h1.518v-.112h-.11a.616.616 0 0 1-.31-.056.205.205 0 0 1-.092-.185 3.397 3.397 0 0 1-.018-.52v-.836h.31c.112-.004.222.008.33.037.055.018.091.093.128.167.024.11.036.222.036.334h.128v-1.17h-.128a.7.7 0 0 1-.091.409.542.542 0 0 1-.402.111h-.311v-1.412h.64c.147-.002.294.01.438.037.1.048.183.126.238.223a.982.982 0 0 1 .146.446h.11l-.018-.836-2.505.019Zm3.218 0v.111h.054a1.15 1.15 0 0 1 .33.037c.054.038.088.1.09.168.02.172.027.346.02.52v1.634c.006.18 0 .36-.02.54a.271.271 0 0 1-.109.166.54.54 0 0 1-.292.056h-.092v.112h1.518v-.112h-.11a.616.616 0 0 1-.31-.056.205.205 0 0 1-.092-.185 3.397 3.397 0 0 1-.019-.52v-.836h.311c.111-.004.222.008.33.037.054.018.09.093.127.167a.886.886 0 0 1 .037.334h.128v-1.17h-.128a.7.7 0 0 1-.092.409.542.542 0 0 1-.402.111h-.31v-1.412h.64c.146-.002.293.01.438.037.1.048.183.126.238.223a.982.982 0 0 1 .146.446h.11l-.019-.836-2.522.019Zm3.199.111h.073c.11-.004.221.009.329.037.055.02.073.075.091.168.02.172.026.346.018.52v1.634c.007.18.001.36-.018.54a.271.271 0 0 1-.11.166.54.54 0 0 1-.292.056h-.091v.112h1.498v-.112h-.09a.496.496 0 0 1-.293-.056.205.205 0 0 1-.092-.185 3.397 3.397 0 0 1-.018-.52V57.38c0-.279.018-.446.018-.52a.185.185 0 0 1 .11-.149 1.07 1.07 0 0 1 .31-.037h.074v-.112h-1.5l-.017.093Zm4.57 0a.872.872 0 0 1 .329.056.303.303 0 0 1 .182.149c.037.1.05.209.037.315v1.988l-1.938-2.6h-.969v.11a1.24 1.24 0 0 1 .348.038c.055.019.091.074.11.167.027.172.04.346.036.52v1.765c.008.13.001.261-.018.39a.286.286 0 0 1-.147.149c-.11.049-.227.08-.347.093v.111h1.225v-.111a.705.705 0 0 1-.384-.075.352.352 0 0 1-.165-.167 1.75 1.75 0 0 1-.018-.371v-2.304L35 60h.11v-2.75a.97.97 0 0 1 .037-.296.286.286 0 0 1 .146-.149.721.721 0 0 1 .329-.074v-.112h-1.188l-.019.037Zm1.864 0h.073a1.15 1.15 0 0 1 .33.037c.054.02.072.075.09.168.02.172.027.346.019.52v1.634c.007.18 0 .36-.018.54a.271.271 0 0 1-.11.166.54.54 0 0 1-.293.056h-.091v.112h1.499v-.112h-.091a.496.496 0 0 1-.293-.056.205.205 0 0 1-.091-.185 3.397 3.397 0 0 1-.019-.52V57.38c0-.279.019-.446.019-.52a.185.185 0 0 1 .11-.149 1.07 1.07 0 0 1 .31-.037h.073v-.112h-1.499l-.018.093Zm4.223-.074a2.88 2.88 0 0 0-.786-.074c-.183 0-.44 0-.768.018l-.402.019v.111h.055c.11-.004.221.009.329.037.054.02.073.075.091.168.02.172.026.346.018.52v1.634c.007.18.001.36-.018.54a.271.271 0 0 1-.11.166.54.54 0 0 1-.292.056h-.092v.112h1.5v-.112h-.11a.496.496 0 0 1-.293-.056.256.256 0 0 1-.091-.185 3.397 3.397 0 0 1-.018-.52v-.706h.365c.267.018.535-.02.786-.112a.816.816 0 0 0 .348-.316c.074-.15.112-.315.11-.483a.724.724 0 0 0-.184-.52.753.753 0 0 0-.438-.297Zm0 1.3a.47.47 0 0 1-.293.242 1.62 1.62 0 0 1-.457.056h-.237v-1.542c.054 0 .146-.019.255-.019a.884.884 0 0 1 .64.186.83.83 0 0 1 .201.594.79.79 0 0 1-.11.483Zm3.692 1.598-.146-.353-1.097-2.638h-.091l-.95 2.304c-.045.09-.082.182-.11.278a2.618 2.618 0 0 1-.256.52.461.461 0 0 1-.33.149v.111h.97v-.111a.383.383 0 0 1-.257-.074.267.267 0 0 1-.11-.223 1.92 1.92 0 0 1 .184-.595l.091-.204h1.243l.256.613c.047.101.084.207.11.316a.14.14 0 0 1-.092.148 1.125 1.125 0 0 1-.329.038v.111h1.28v-.111a.465.465 0 0 1-.256-.093.62.62 0 0 1-.11-.186Zm-2.047-.947.567-1.412.584 1.412h-1.151Zm4.625-1.877a.392.392 0 0 1 .292.093.26.26 0 0 1 .092.186.978.978 0 0 1-.165.39l-.64 1.096-.786-1.319a.84.84 0 0 1-.128-.278c0-.112.128-.168.366-.168v-.111h-1.316v.111a.392.392 0 0 1 .292.093c.12.153.23.315.33.483l.822 1.356v.409c.007.18 0 .36-.019.539a.271.271 0 0 1-.11.167.54.54 0 0 1-.292.056h-.055v.111h1.39v-.111a.65.65 0 0 1-.33-.056.271.271 0 0 1-.109-.167 3.54 3.54 0 0 1-.018-.54v-.445l.731-1.244c.099-.18.215-.347.347-.502a.566.566 0 0 1 .366-.167v-.112h-1.06v.13Zm5.32 1.505a6.303 6.303 0 0 0-.622-.316 2.617 2.617 0 0 1-.604-.353.54.54 0 0 1-.164-.39.527.527 0 0 1 .128-.353.52.52 0 0 1 .42-.167.8.8 0 0 1 .549.223c.161.163.275.369.329.594h.11v-.873h-.11a.481.481 0 0 1-.128.298.84.84 0 0 0-.384-.28 1.404 1.404 0 0 0-.384-.073.819.819 0 0 0-.622.241.79.79 0 0 0-.237.595.983.983 0 0 0 .11.445c.078.133.184.247.31.335.185.117.381.217.585.297.22.082.423.202.603.353.11.114.17.268.165.427a.691.691 0 0 1-.183.446.696.696 0 0 1-.53.204c-.512 0-.84-.353-.969-1.04h-.128v1.077h.128a.884.884 0 0 1 .11-.315c.22.27.55.427.896.427.273.011.54-.082.749-.26a.903.903 0 0 0 .274-.688 1.043 1.043 0 0 0-.11-.482.682.682 0 0 0-.292-.372Zm4.313-1.226a1.903 1.903 0 0 0-1.28-.464 1.74 1.74 0 0 0-1.26.464c-.343.31-.53.76-.513 1.226-.019.473.16.932.494 1.263.347.327.807.5 1.28.483a1.81 1.81 0 0 0 1.297-.483c.33-.325.51-.777.494-1.244a1.588 1.588 0 0 0-.512-1.245Zm-.365 2.47a1.106 1.106 0 0 1-.878.41 1.123 1.123 0 0 1-.95-.41c-.202-.26-.311-.668-.311-1.207s.11-.929.31-1.189c.224-.275.563-.427.915-.408.352-.028.695.126.914.408.225.353.334.77.31 1.19.019.538-.091.928-.31 1.207Zm4.094.056a.8.8 0 0 1-.274.242 1.377 1.377 0 0 1-.457.056h-.256a.776.776 0 0 1-.366-.056.23.23 0 0 1-.11-.149 2.323 2.323 0 0 1-.017-.446v-1.746a3.248 3.248 0 0 1 .018-.52.229.229 0 0 1 .091-.149 1.07 1.07 0 0 1 .311-.037h.146v-.111H57.65v.111h.073a1.15 1.15 0 0 1 .33.037c.054.038.088.1.09.168.02.172.027.346.019.52v1.634c.007.18 0 .36-.018.54a.271.271 0 0 1-.11.166.54.54 0 0 1-.292.056h-.092v.112h2.779l.018-.985h-.11c-.032.197-.1.386-.2.557Zm3.309-2.805c.113.008.224.033.329.075a.27.27 0 0 1 .128.185c.027.129.04.26.036.39v1.134c.006.192 0 .384-.018.575a.969.969 0 0 1-.146.353.839.839 0 0 1-.366.28c-.173.075-.36.113-.548.11a.974.974 0 0 1-.603-.167.702.702 0 0 1-.275-.39 3.751 3.751 0 0 1-.054-.78v-1.04a3.248 3.248 0 0 1 .018-.52.229.229 0 0 1 .091-.149 1.07 1.07 0 0 1 .311-.037h.073v-.112h-1.499v.112h.073a1.15 1.15 0 0 1 .33.037c.054.038.088.1.09.167.02.173.027.347.02.52v1.375c-.014.218.03.436.127.632.106.17.258.306.439.39.23.1.48.151.73.148.225.004.448-.034.659-.111.172-.063.324-.172.439-.316a.749.749 0 0 0 .183-.409c.025-.21.038-.42.036-.631V57.38c-.007-.137 0-.274.018-.409a.314.314 0 0 1 .128-.186.542.542 0 0 1 .33-.093v-.111h-1.097l.018.074Zm1.828-.111-.018.799h.11c.023-.162.072-.319.145-.465.074-.111.128-.167.202-.186a1.9 1.9 0 0 1 .42-.037h.475v2.34c.007.18.001.36-.018.54a.271.271 0 0 1-.11.167.54.54 0 0 1-.292.056h-.165v.111h1.627v-.111h-.164a.496.496 0 0 1-.293-.056.256.256 0 0 1-.091-.186 3.397 3.397 0 0 1-.018-.52v-2.34h.53c.129-.003.257.009.384.036a.32.32 0 0 1 .2.186c.073.153.123.316.147.483h.11l-.019-.799h-3.162v-.018Zm3.93.111h.073a1.15 1.15 0 0 1 .33.037c.06.033.095.098.09.168.02.172.027.346.019.52v1.634c.007.18 0 .36-.018.54a.271.271 0 0 1-.11.166.54.54 0 0 1-.293.056h-.091v.112h1.499v-.112h-.091a.496.496 0 0 1-.293-.056.205.205 0 0 1-.091-.185c0-.093-.019-.26-.019-.52V57.38a3.248 3.248 0 0 1 .019-.52.229.229 0 0 1 .091-.149 1.07 1.07 0 0 1 .31-.037h.074v-.112h-1.499v.093Zm5.41.279a1.903 1.903 0 0 0-1.279-.464 1.74 1.74 0 0 0-1.261.464c-.342.31-.53.76-.512 1.226-.019.473.16.932.494 1.263.346.327.807.5 1.28.483a1.81 1.81 0 0 0 1.297-.483c.33-.325.51-.777.494-1.244a1.588 1.588 0 0 0-.512-1.245Zm-.365 2.47a1.106 1.106 0 0 1-.877.41 1.123 1.123 0 0 1-.95-.41c-.202-.26-.312-.668-.312-1.207s.11-.929.311-1.189c.224-.275.563-.427.914-.408.353-.028.696.126.914.408.226.353.335.77.311 1.19.018.538-.091.928-.31 1.207Zm4.095-2.86v.111a.872.872 0 0 1 .329.056.303.303 0 0 1 .183.149c.036.1.049.209.036.315v1.988l-1.937-2.6h-.97v.11c.118-.004.235.009.348.038.055.019.091.074.11.167.028.172.04.346.036.52v1.765c.008.13.002.261-.018.39a.286.286 0 0 1-.146.149 1.3 1.3 0 0 1-.366.093v.111h1.225v-.111a.665.665 0 0 1-.384-.075.352.352 0 0 1-.164-.167 1.75 1.75 0 0 1-.019-.371v-2.304L78.91 60h.11v-2.75a.97.97 0 0 1 .036-.296.286.286 0 0 1 .146-.149.721.721 0 0 1 .33-.074v-.112l-1.19-.074ZM15.13 43.858c0 2.117-.932 3.882-3.875 3.882H8.531c-1.023 0-1.681-.093-1.992-.26a1.09 1.09 0 0 1-.549-.725c-.073-.315-.11-1.151-.11-2.47v-9.641c0-1.505.037-2.47.147-2.86.11-.39.256-.65.512-.78s.84-.205 1.7-.205h.31v-.762H1.092v.762h.476c.895 0 .914.074 1.17.223.255.148.42.427.493.836.073.408.128 1.356.128 2.805v9.046c0 1.523-.036 2.49-.128 2.898-.05.357-.25.676-.548.873-.274.186-.256.279-1.006.279h-.603v.761h14.679l.146-4.644v-.074h-.75l-.018.056Zm15.173 3.678a1.855 1.855 0 0 1-.494-.67l-.585-1.374-4.35-10.495h-.713l-3.784 9.195c-.275.669-.42 1.04-.457 1.133-.384 1.003-.713 1.672-.988 1.97a1.706 1.706 0 0 1-1.096.575l-.11.019v.705h4.058v-.724h-.146a1.072 1.072 0 0 1-.786-.279.935.935 0 0 1-.347-.78c0-.353.237-1.114.73-2.303l.293-.743h4.716l.951 2.34c.384.93.42 1.152.42 1.208a.4.4 0 0 1-.237.427c-.146.056-.366.13-1.115.13h-.147v.724h5.119v-.705l-.128-.019a1.49 1.49 0 0 1-.804-.334Zm-4.351-4.514h-4.15l2.066-5.09 2.084 5.09Zm49.666 4.514a1.855 1.855 0 0 1-.493-.67l-.585-1.374-4.35-10.495h-.732l-3.784 9.195c-.274.669-.42 1.04-.457 1.133-.384 1.003-.713 1.672-.987 1.97a1.71 1.71 0 0 1-1.097.575l-.11.019v.705h4.059v-.724h-.147a1.072 1.072 0 0 1-.786-.279.935.935 0 0 1-.347-.78c0-.353.256-1.114.731-2.303l.293-.743h4.716l.95 2.34c.384.93.42 1.152.42 1.208a.4.4 0 0 1-.237.427c-.146.056-.365.13-1.115.13h-.146v.724h5.118v-.705l-.128-.019a1.487 1.487 0 0 1-.786-.334Zm-4.35-4.514h-4.15l2.066-5.09 2.084 5.09Zm-25.958-7.32h.146c.896 0 1.189.354 1.189 1.134 0 .279-.147.873-.42 1.783l-2.012 6.52-3.985-10.16h-.767L35.933 45.12l-2.358-7.17c-.348-1.06-.42-1.45-.42-1.58a.561.561 0 0 1 .2-.445c.11-.075.274-.186 1.024-.223h.128v-.706h-5.265v.706h.128c.476.018.677.093.878.223.213.153.378.366.475.613.128.297.347.91.64 1.82l3.4 10.217h.694l3.62-10.458 4.15 10.458h.657l3.09-9.883c.402-1.3.75-2.136 1.005-2.452a1.22 1.22 0 0 1 1.024-.52h.128v-.706h-3.839l.018.688Zm39.046-.705v.743h.146c.585 0 .804.093 1.024.297a.847.847 0 0 1 .31.65c0 .186-.11.595-.657 1.45l-2.633 4.216L79.33 37.3c-.439-.687-.494-.928-.494-1.021 0-.446.64-.54 1.298-.54h.147v-.742h-5.612v.743h.146c.567.019.786.111 1.005.297.22.186.695.855 1.39 1.932l3.454 5.406v1.597a15.13 15.13 0 0 1-.091 2.1.904.904 0 0 1-.366.575c-.2.13-.603.204-1.17.204h-.182v.743h5.831v-.743h-.146c-.823 0-.987-.092-1.134-.167a.784.784 0 0 1-.383-.557c-.074-.297-.11-1.003-.11-2.118v-1.727l3.107-4.923c.585-.947 1.079-1.597 1.463-1.95a2.11 2.11 0 0 1 1.298-.632l.128-.018v-.725l-4.552-.037Zm-20.711-2.88a5.589 5.589 0 0 0-2.779-1.783c-.493-.148-1.846-.334-3.912-.334h-5.959l-.365.019v.761h.402c.896 0 .914.074 1.188.242.274.167.42.427.494.836.073.408.11 1.356.11 2.805v9.065c0 1.523-.037 2.489-.11 2.916a1.303 1.303 0 0 1-.53.873c-.275.186-.805.279-1.554.279h.018v.761h7.074v-.761h-.11c-.785 0-1.316-.112-1.608-.316a1.414 1.414 0 0 1-.512-.947c-.073-.446-.091-1.394-.091-2.824v-2.73h2.047c2.285 0 3.528-.224 4.442-.67a4.876 4.876 0 0 0 2.12-1.968 5.885 5.885 0 0 0 .732-2.991c0-1.282-.366-2.378-1.097-3.232Zm-2.34 6.186a3.368 3.368 0 0 1-1.773 1.43c-.713.224-1.664.335-2.833.335h-1.317V30.91c.348-.037.823-.037 1.426-.037 1.828 0 3.18.39 4.004 1.133.822.743 1.224 1.97 1.224 3.604-.018 1.059-.256 1.969-.73 2.693Zm27.365-6.278c-.21.221-.502.343-.804.334a1.027 1.027 0 0 1-.786-.334 1.101 1.101 0 0 1-.33-.818 1.09 1.09 0 0 1 .33-.798c.204-.218.49-.34.786-.335.3-.001.59.119.804.335.222.203.342.496.329.798.008.308-.111.605-.329.818Zm-1.48-1.505a.963.963 0 0 0-.275.687c-.004.263.095.517.274.706a.954.954 0 0 0 .677.298.88.88 0 0 0 .676-.298c.18-.19.278-.443.274-.706a.937.937 0 0 0-.274-.687.949.949 0 0 0-.676-.297 1.07 1.07 0 0 0-.677.297Zm.676.074c.11-.002.221.01.329.038a.31.31 0 0 1 .182.315.254.254 0 0 1-.127.242.428.428 0 0 1-.183.056.337.337 0 0 1 .22.13.51.51 0 0 1 .072.185v.186c0 .037 0 .056.018.074v.019h-.2v-.167c0-.149-.037-.242-.11-.279a.625.625 0 0 0-.238-.037h-.164v.483h-.22v-1.245h.42Zm.219.186a.497.497 0 0 0-.256-.037h-.183v.446h.201a.56.56 0 0 0 .201-.019.186.186 0 0 0 .128-.204.205.205 0 0 0-.091-.186ZM1 52.495h87.89v.54H1v-.54Z" fill="#003A70"/></g></svg>