<svg xmlns="http://www.w3.org/2000/svg" viewBox="0 0 90 90"><path d="M0 0h90v90H0z"/><path fill="#fff" d="M0 0h90v90H0z"/><path fill="#0075BF" d="m42.2 57.17-7.15-7.15a3.18 3.18 0 0 0-4.5 0L20.5 60.06l16.7 16.71a11.05 11.05 0 0 0 15.6 0L76.77 52.8a11.05 11.05 0 0 0 0-15.6l-16.7-16.7L43.5 37.06a1.9 1.9 0 0 0 0 2.7l7.04 7.05a2.63 2.63 0 0 1-3.72 3.7L37.8 41.5a4.34 4.34 0 0 1 0-6.12l18.56-18.6-3.55-3.55a11.03 11.03 0 0 0-15.6 0L13.23 37.2a11.03 11.03 0 0 0 0 15.6l3.55 3.55L30.55 42.6a3.18 3.18 0 0 1 4.5 0l10.78 10.77a5.43 5.43 0 0 0 7.52.24 5.36 5.36 0 0 0 .14-7.7l-5.8-5.8a1.9 1.9 0 0 1 0-2.7l1.12-1.13a1.73 1.73 0 0 1 2.47 0l5.78 5.78A10.73 10.73 0 0 1 57.38 57a10.62 10.62 0 0 1-15.18.17Z"/></svg>