<svg xmlns="http://www.w3.org/2000/svg" viewBox="0 0 90 90"><path fill="#FFF" d="M0 0h90v90H0z"/><path d="m42.2 57.173-7.147-7.154a3.178 3.178 0 0 0-4.5 0L20.5 60.063l16.701 16.709c4.308 4.304 11.288 4.304 15.596 0l23.974-23.974c4.304-4.308 4.304-11.288 0-15.596L60.063 20.501 43.51 37.062a1.904 1.904 0 0 0 0 2.702l7.042 7.042a2.626 2.626 0 1 1-3.717 3.71L37.79 41.5a4.34 4.34 0 0 1 0-6.125l18.564-18.59-3.556-3.557c-4.308-4.304-11.288-4.304-15.596 0L13.228 37.202c-4.304 4.308-4.304 11.288 0 15.596l3.556 3.556 13.769-13.762a3.178 3.178 0 0 1 4.5 0l10.773 10.766a5.432 5.432 0 0 0 7.525.238 5.362 5.362 0 0 0 .14-7.7L47.688 40.1a1.904 1.904 0 0 1 0-2.702l1.127-1.127a1.729 1.729 0 0 1 2.464 0l5.782 5.782a10.73 10.73 0 0 1 .322 14.952 10.619 10.619 0 0 1-15.183.168Z" fill="#0075BF"/></svg>