<svg viewBox="0 0 90 90" xmlns="http://www.w3.org/2000/svg"><path d="M10.592 87.053C10 85.897 10 84.385 10 81.36V8.64c0-3.024 0-4.536.592-5.691a5.413 5.413 0 0 1 2.371-2.36C14.123 0 15.643 0 18.683 0h28.4c7.57 0 11.355 0 14.46.828 8.428 2.247 15.01 8.797 17.268 17.183.832 3.09.832 6.857.832 14.39 0 4.904-2.232 6.7-4.135 8.23-1.415 1.138-2.648 2.13-2.648 4.145 0 1.986 1.437 2.978 3.103 4.129 2.3 1.588 5.037 3.478 5.037 8.697 0 7.52 0 11.279-.83 14.364-2.255 8.392-8.84 14.947-17.273 17.195-3.1.826-6.878.827-14.435.83L18.686 90c-3.04 0-4.56.001-5.722-.587a5.415 5.415 0 0 1-2.372-2.36ZM50.48 29.512c1.704-2.662 3.179-4.966 3.179-7.911 0-5.965-4.87-10.8-10.876-10.8-6.006 0-10.875 5.062-10.875 10.8 0 2.945 1.515 5.25 3.266 7.91 2.395 3.641 5.23 7.951 5.23 15.49 0 7.54-2.835 11.85-5.23 15.49-1.75 2.661-3.266 4.965-3.266 7.911 0 5.965 4.87 10.8 10.875 10.8 6.007 0 10.876-4.835 10.876-10.8 0-2.946-1.475-5.25-3.18-7.911-2.33-3.64-5.09-7.95-5.09-15.49 0-7.539 2.76-11.849 5.09-15.49Z" fill="#FFD634" fill-rule="evenodd"/></svg>