<svg viewBox="0 0 90 90" xmlns="http://www.w3.org/2000/svg"><defs><linearGradient x1="50%" y1="0%" x2="50%" y2="100%" id="a"><stop stop-color="#0E76BD" offset="0%"/><stop stop-color="#80B0AA" offset="100%"/></linearGradient></defs><g fill="none"><path fill="url(#a)" d="M0 0h90v90H0z"/><path d="M45.334 9.671c-19.328.008-35 15.679-35 35.004 0 19.326 15.672 34.996 35 34.996v-9.56h-.066c-14.116 0-25.556-11.439-25.556-25.553s11.44-25.553 25.556-25.553c14.115 0 25.555 11.44 25.555 25.553 0 1.191-.11 2.354-.27 3.501 3.267.008 6.484.044 9.43.103.168-1.258.292-2.266.35-3.494 0-19.326-15.672-34.997-35-34.997Zm1.68 11.615h-3.5v26.868h19.013v-3.282H47.015V21.286Z" fill="#FFF"/></g></svg>