<svg xmlns="http://www.w3.org/2000/svg" viewBox="0 0 90 90"><path fill="#FFF" d="M0 0h90v90H0z"/><path d="M51.752 18.901 72 38.476c6.627 6.406.24 12.813.011 13.042l-.007.006L51.752 71.1c-6.75 6.525-13.5 0-13.5 0L18 51.524C11.25 45 18 38.476 18 38.476L38.251 18.9c6.75-6.525 13.5 0 13.5 0v.001Zm14.747 28.905 2.6-2.515s.302-.291.004-.592l-2.442-2.362s-.017-.018-.044-.034l-.059-.059a2.76 2.76 0 0 0-.059-.058l-.29-.28s-2.906-2.811-5.815 0l-3.34 3.228s-2.91 2.81 0 5.621l.288.28s2.907 2.81 5.815 0l1.977-1.912 1.365-1.319v.002Zm-4.769-9.754a.185.185 0 0 0 .2-.035c.072-.066.072-.175-.005-.25a.038.038 0 0 0-.01-.009l-1.241-1.2-.123-.117-.609-.589-.013-.014-2.424-2.343s-.018-.017-.045-.035l-.012-.012a2.717 2.717 0 0 0-.106-.11l-.289-.28s-2.908-2.81-5.816 0L41.79 42.19s-2.907 2.809 0 5.62l.289.28s2.907 2.81 5.816 0l8.077-7.813 1.37-1.322c1.633-1.58 3.267-1.38 4.387-.903Zm-9.152-8.847a.189.189 0 0 0 .2-.034.173.173 0 0 0-.005-.25.142.142 0 0 0-.027-.016l-.015-.01.015.01c.009.003.015.007.022.011l-1.246-1.204-.123-.118-.61-.588-.013-.014-2.424-2.347s-.019-.018-.044-.036l-.012-.011a2.707 2.707 0 0 0-.108-.11l-.287-.28s-2.908-2.811-5.817 0l-9.446 9.131s-2.906 2.809 0 5.62l.29.28s2.906 2.81 5.816 0l8.077-7.813 1.367-1.317c1.635-1.58 3.27-1.38 4.39-.904Zm-7.894 27.3L29.587 41.908s-2.907-2.81-5.815 0l-.289.279-.108.122a.181.181 0 0 1-.023.018.18.18 0 0 0-.022.017l-2.444 2.362s-.307.293 0 .588l2.601 2.515 1.364 1.317 17.244 16.656s2.903 2.81 5.812 0l.022-.022.265-.258 1.08-1.044.027-.025 3.63-3.51 1.364-1.317 2.602-2.515s.307-.292 0-.588l-2.444-2.361s-.017-.018-.044-.036l-.059-.058-.059-.06-.29-.279s-2.906-2.81-5.816 0l-2.893 2.799c-.302.282-.605-.005-.605-.005l-.003.002Z"/></svg>