<svg viewBox="0 0 90 90" xmlns="http://www.w3.org/2000/svg"><g fill="none"><path fill="#FFF" d="M0 0h90v90H0z"/><path d="M44.924 23.984v41.879l-15.42 8.865c-1.374.764-3.206-.153-3.206-1.835V17.107c0-1.682 1.832-2.599 3.206-1.835l15.42 8.712Z" fill="#EB3C3F"/><path d="M44.924 23.984v41.879l15.42 8.865c1.374.764 3.206-.153 3.206-1.835V17.107c0-1.682-1.832-2.599-3.206-1.835l-15.42 8.712Z" fill="#FFCB00"/><path d="M63.55 65.863V23.984h9.313c1.221 0 2.137.917 2.137 2.14v37.752c0 1.223-.916 2.14-2.137 2.14l-9.313-.153Z" fill="#0071CE"/><path d="M26.298 65.863V23.984h-9.16c-1.222 0-2.138 1.07-2.138 2.14v37.752c0 1.223.916 2.14 2.137 2.14l9.16-.153Z" fill="#CE0E2D"/></g></svg>