<svg viewBox="0 0 90 90" xmlns="http://www.w3.org/2000/svg"><g fill="none"><path d="M64.987 0H9.935A9.927 9.927 0 0 0 0 9.935v55.11C0 78.78 11.162 90 24.955 90h40.09C78.78 90 90 78.838 90 65.045v-40.09C89.942 11.22 78.78 0 64.987 0" fill="#356DF1"/><path d="M75.039 35.006c0 11.046-8.942 20.046-20.045 20.046-11.104 0-20.046-9-20.046-20.046V19.93a5.026 5.026 0 0 1 5.026-5.026A4.989 4.989 0 0 1 45 19.929v15.02c0 5.551 4.5 9.993 9.994 9.993 5.551 0 9.993-4.5 9.993-9.994v-15.02a5.026 5.026 0 0 1 5.026-5.025 5.026 5.026 0 0 1 5.026 5.026v15.077ZM45 75.039H34.948c-11.045 0-20.045-8.942-20.045-20.045V35.006a5.026 5.026 0 0 1 5.026-5.025 5.026 5.026 0 0 1 5.026 5.025v20.046c0 5.552 4.5 9.993 9.993 9.993h9.994a5.026 5.026 0 0 1 5.026 5.026c.058 2.747-2.221 4.968-4.968 4.968" fill="#FFF"/></g></svg>