<svg viewBox="0 0 90 90" xmlns="http://www.w3.org/2000/svg"><g fill="none" fill-rule="evenodd"><path fill="#FFF" fill-rule="nonzero" d="M0 0h90v90H0z"/><path d="M17.195 26.45h2.927c1.212 0 2.195.984 2.195 2.198v33.704a2.197 2.197 0 0 1-2.195 2.198h-2.927A2.197 2.197 0 0 1 15 62.352V28.648c0-1.214.983-2.198 2.195-2.198Z" fill="#1EDFB8"/><path d="M31.098 20.588h2.926c1.213 0 2.196.984 2.196 2.198V67.48a2.197 2.197 0 0 1-2.196 2.199h-2.926a2.197 2.197 0 0 1-2.196-2.199V22.786c0-1.214.983-2.198 2.196-2.198Z" fill="#43AADC"/><path d="m45.666 17.103 27.804 8.86A2.197 2.197 0 0 1 75 28.057v34.885c0 .958-.619 1.805-1.53 2.095l-27.804 8.859a2.195 2.195 0 0 1-2.861-2.095V19.198a2.197 2.197 0 0 1 2.86-2.095Z" fill="#1E2B46"/></g></svg>