<svg viewBox="0 0 90 90" xmlns="http://www.w3.org/2000/svg"><g fill="none"><path fill="#2C0049" d="M0 0h90v90H0z"/><path d="M64.156 38.58a7.723 7.723 0 0 1 3.827 7.174 7.533 7.533 0 0 1-3.86 6.515 9005.77 9005.77 0 0 0-33.206 20.979c-.533.342-1.065.668-1.598.993a3.914 3.914 0 0 1-4.697-.049 3.813 3.813 0 0 1-1.377-4.462c.82-2.932 1.77-5.84 2.68-8.755 1.295-4.17 2.804-8.29 3.804-12.525.537-2.2.537-4.495 0-6.694 15.779 19.097 35.14-2.704 34.427-3.176ZM24.638 15.762a4.416 4.416 0 0 1 5.41.35 9709.405 9709.405 0 0 0 32.5 20.434c-.19.27-.298.432-.24.328-.814 1.436-8.903 9.682-17.88 9.682a16.97 16.97 0 0 1-13.13-7.089l-2.97-3.595c-1.494-5.023-3.132-10.004-4.706-15.004a4.152 4.152 0 0 1 1.016-5.106Z" fill="#FFF"/></g></svg>