<svg viewBox="0 0 90 90" xmlns="http://www.w3.org/2000/svg"><g fill="none"><path fill="#FFF" d="M0 0h90v90H0z"/><path d="m49.228 33.855 6.917 6.917-2.722 2.767-6.917-6.917 2.722-2.767Zm12.65-12.628 6.917 6.916-2.744 2.767-6.917-6.917 2.745-2.766Zm-.445 24.855L68.393 53l-2.743 2.766-7.14-6.916 2.923-2.767Zm12.65-12.628L81 40.37l-2.722 2.767-6.917-6.917 2.722-2.766Zm-27.376-5.132 6.961-6.917 2.744 2.745-6.916 6.916-2.79-2.744Zm12.227 12.227 6.916-6.917 2.767 2.722-6.917 6.917-2.766-2.722Zm12.204 12.227 6.917-6.962 2.767 2.745-7.14 6.916-2.544-2.7ZM34.056 41.017l6.917-6.916 2.766 2.722-6.916 6.916-2.767-2.722Zm12.205 12.205 6.96-6.917 2.723 2.722-6.917 6.917-2.766-2.722Zm12.226 12.227 6.917-6.962 2.767 2.745-6.962 7.14-2.722-2.923Z" fill="#575655"/><path d="m23.949 59.112 6.961 6.917-2.722 2.766-6.961-6.96 2.722-2.723Zm12.65-12.628 6.917 6.916-2.722 2.745-6.916-6.917 2.722-2.744Zm-.379 24.855 6.917 6.917L40.393 81l-6.917-6.917 2.744-2.744Zm12.606-12.628 6.917 6.916-2.722 2.745-6.917-6.917 2.722-2.744ZM11.744 46.885l6.917 6.917-2.744 2.722L9 49.607l2.744-2.722Zm12.651-12.628 6.917 6.917-2.745 2.744L21.651 37l2.744-2.744Zm12.606-12.629 6.917 6.917-2.678 2.767-6.916-6.917L37 21.628ZM49.607 9l6.962 6.917-2.745 2.744-7.14-6.917L49.608 9Zm-15.105 7.14 6.917-6.917 2.744 2.722-6.916 6.917-2.745-2.722Zm-12.65 12.65 6.916-6.916 2.767 2.744-6.917 6.917-2.766-2.744ZM9.223 41.442l6.917-6.916 2.744 2.677-6.917 6.961-2.744-2.722Zm12.182 12.182 6.917-6.916 2.767 2.744-6.917 6.917-2.767-2.745ZM33.632 65.85l6.917-6.916 2.744 2.722-6.916 6.916-2.745-2.722Zm12.182 12.227 6.962-6.916 2.744 2.677-6.917 6.961-2.789-2.722Z" fill="#DB202E"/></g></svg>