<svg xmlns="http://www.w3.org/2000/svg" viewBox="0 0 90 90"><path fill="#FFF" d="M0 0h90v90H0z"/><path stroke="#000" stroke-linejoin="round" d="M59.45 21c-3.53.42-6.45.9-9.28 2.98-24.14-1.7-30.36 15.05-29 25.88C24 70.71 52.43 76.28 61.84 62.2c-7.45 7.7-19.28 8.75-28.33 3.08-9.04-5.66-13.5-17.39-8.32-27.21 5.2-9.83 14.31-13.04 24.35-11.17 2.43-1.41 5.22-3.22 7.65-3.18l-1.69 4.86 12.75 21.37c-.44 5.65-5.46 6.11-5.46 6.11-.57-1.47-1.63-2.94-4.84-6.04-3.2-3.09-17.46-10.17-15.79-16.2-2 6.96 10.31 14.15 14.04 17.66 3.73 3.51 5.43 6.04 5.8 6.76 0 0 9.39-2.5 7.84-8.93L57.9 27.67 59.45 21z"/></svg>