<svg xmlns="http://www.w3.org/2000/svg" viewBox="0 0 90 90"><path fill="#FFF" d="M0 0h90v90H0z"/><path d="m44.5 10 3.23 5.613a3.855 3.855 0 0 1 0 3.742L28.478 52.71l9.11 15.742c1.42 2.451 4.07 4 6.912 4 2.843 0 5.491-1.549 6.913-4l9.109-15.742-2.39-4.258-10.337 17.87c-.646 1.162-1.938 1.872-3.23 1.872-1.357 0-2.585-.71-3.23-1.871L33.387 52.71l17.896-30.968 3.23 5.613a3.855 3.855 0 0 1 0 3.742L42.045 52.71l2.455 4.258 13.567-23.484 8.915 15.42a7.75 7.75 0 0 1 0 7.677l-9.044 15.677C56.58 74.645 52.253 80 44.5 80c-7.753 0-12.016-5.355-13.438-7.742l-9.044-15.677a7.75 7.75 0 0 1 0-7.678L44.5 10" fill="#E81C1C"/></svg>