<svg viewBox="0 0 90 90" xmlns="http://www.w3.org/2000/svg"><defs><linearGradient x1="-2.3%" y1="50%" x2="101.8%" y2="50%" id="a"><stop stop-color="#42AB34" offset="0%"/><stop stop-color="#47AC34" offset="5.7%"/><stop stop-color="#61B22F" offset="58.8%"/><stop stop-color="#69B42E" offset="100%"/></linearGradient></defs><path d="M16.59 63.447a22.099 22.099 0 0 0 19.78 12.277 22.049 22.049 0 0 0 7.417-1.288l5.654 13.13c-17.813 6.851-37.9-1.213-46.005-18.466Zm53.634-23.025a36.015 36.015 0 0 1 2.52 13.269c-.015 13.865-7.93 26.515-20.407 32.61l-5.662-13.134c9.781-5.155 14.229-16.742 10.404-27.101ZM15.7 23.828l9.257 11.014a22.042 22.042 0 0 0-10.65 18.84 21.948 21.948 0 0 0 1.089 6.847L2.22 66.182c-5.698-15.536-.154-32.951 13.481-42.354Zm42.61.925a36.578 36.578 0 0 1 10.627 12.795L55.768 43.2a22.26 22.26 0 0 0-9.806-9.337ZM11.263 8.683c2.739.055 5.45.558 8.027 1.486a45.652 45.652 0 0 1 7.423 3.354 64.101 64.101 0 0 1 6.802 4.383 74.63 74.63 0 0 1 3.184 2.485c.525.426 1.037.867 1.543 1.319.255.221.508.451.763.679l.378.36.415.385-7.542.017.672-.787.623-.696c.414-.46.83-.9 1.263-1.343a69.942 69.942 0 0 1 2.609-2.522 72.973 72.973 0 0 1 2.723-2.358c.467-.377.936-.754 1.402-1.122l.705-.557.722-.532a73.274 73.274 0 0 1 5.965-3.99c2.051-1.238 4.169-2.342 6.326-3.367a64.73 64.73 0 0 1 13.523-4.64A55.593 55.593 0 0 1 75.84.166 40.93 40.93 0 0 1 83 .15c-1.002.687-2.018 1.269-3.012 1.892-.491.31-.993.621-1.493.9-.247.148-.491.295-.738.452l-.739.451c-1.962 1.18-3.872 2.375-5.776 3.539a336.843 336.843 0 0 0-11.069 7.167 259.157 259.157 0 0 0-10.55 7.524c-.853.654-1.716 1.294-2.56 1.965-.844.67-1.682 1.327-2.52 1.99a96.425 96.425 0 0 0-2.462 2.03c-.402.344-.805.68-1.199 1.017l-1.082.95-4.563 4.007-2.985-3.988a4.289 4.289 0 0 0-.255-.31l-.286-.344-.583-.696-1.19-1.4a322.922 322.922 0 0 0-2.437-2.792A222.717 222.717 0 0 0 22.479 19c-1.715-1.81-3.455-3.597-5.293-5.323a59.943 59.943 0 0 0-5.923-4.994Z" fill="url(#a)" transform="translate(3.5)"/></svg>