<svg viewBox="0 0 90 90" xmlns="http://www.w3.org/2000/svg"><path d="m89 33.33-6.114 23.059-.009.002-5.553 20.94-20.934 5.55-.001.005L33.329 89 1 56.67l6.114-23.059 20.945-5.553 5.552-20.944L56.671 1 89 33.33ZM17.512 67.818l4.99-18.82.014-.003 4.428-16.703-16.717 4.432-4.99 18.82 12.275 12.274ZM67.82 17.512 55.544 5.237l-18.82 4.99-4.433 16.722 16.704-4.429.004-.019 18.82-4.99Zm-26.5 26.497L30.615 33.303l-3.863 14.569 14.57-3.863Zm2.69-2.69 3.86-14.563-14.564 3.861L44.01 41.32Zm20.936-5.54 3.87-14.594-14.595 3.87 10.725 10.724ZM38.448 62.262l3.866-14.578-14.579 3.865 10.713 10.713Zm-2.679 2.686L25.053 54.232l-3.867 14.583 14.583-3.867Zm26.487-26.494L51.548 27.745l-3.864 14.572 14.572-3.863Zm-5.537 20.952L45.99 48.68l-3.87 14.597 14.598-3.87Zm23.616-8.239 4.429-16.71L72.489 22.18l-4.43 16.71 12.276 12.276ZM51.157 80.336 38.88 68.06l-16.698 4.427 12.274 12.275 16.7-4.427Zm8.247-23.622 3.868-14.591-14.59 3.868 10.722 10.723Zm18.24-2.873L66.94 43.138l-3.862 14.565 14.565-3.862ZM53.839 77.653l3.863-14.57-14.57 3.863L53.84 77.653Zm20.373-3.435 4.43-16.704-16.686 4.424-.006.02-.013.003-4.423 16.685 16.698-4.428Z" fill="#00F073"/></svg>