<svg viewBox="0 0 90 90" xmlns="http://www.w3.org/2000/svg"><g fill="none" fill-rule="evenodd"><path fill="#FFF" d="M0 0h90v90H0z"/><path d="M90 0v90H64.429c-1.858-1.566-4-3.418-4.858-3.987-1.142-.76-2.047-1.282-1.571-2.326.905-1.804 1.762-4.13 2.381-3.893.619.19 3.524.617 4.333 1.045.429.19 2.048.19 3.715-.617 2.666-1.235 3.333-3.276 3.714-3.513.428-.19 1.238-1.424 1.238-1.424.38-.38.571-.902.619-1.472.238-1.044.429-3.085-.429-4.32-.619-1.044-2.047-2.468-3.095-2.895-1.428-.617-1.857-1.044-1.857-2.041-.19-.807 1.667-1.044 1.857-2.468 0-.855-.476-1.662-1.333-1.662v-.332c.762-.095 1.952-.475 1.762-1.709-.143-.76-.476-1.471-1.048-2.041 0 0-.19-1.234.429-1.661.857-.428 2.714 0 4.143-.19 1.476-.19 2.904-.428 2.904-1.852 0-2.23-1.428-3.702-2.904-5.98-1.429-2.28-2.905-3.703-3.096-4.13-.143-.475-.19-.95-.238-1.377 0 0 1.286-1.092 1.715-1.471.761-.712 1.666-1.71 1.047-2.943-.19-.618-1.047-.618-1.428-1.235-.62-.617-.429-1.85-1.048-2.468-.429-.617-.429-1.851-1.048-2.896-.428-1.234-1-3.322-1-3.322s2.238-1.424 2.429-2.042c.619-1.329.905-2.8.857-4.272 0 0 .81-3.275-1.238-5.364a6.552 6.552 0 0 0-2.238-2.04c-1.048-.76-2.19-1.425-3.333-2.042-1.524-.617-3.143-1.092-4.715-1.519-.81-.427-1.762-.617-2.666-.617a3.033 3.033 0 0 1-2.048 0c-.62 0-3.095-.807-4.571-.617-1.239 0-2.905.807-5.572 1.044-2.667.427-4.952-.19-6.38.19-1.477.617-2.287.427-3.096.807-.62.285-1.238.522-1.905.665 0 0-1.428.427-2.047.617-.524.427-1.096.854-1.667 1.234l-1.238 1.234c-.429 0-1.667.617-1.857 1.044l-.81.807c-.38.143-.762.333-1.048.617-.428.428-1.238 1.662-1.619 1.852-.619.19-1.285.807-2.761 2.04-1.429 1.425-3.096 3.514-3.334 4.13-.19.428-1.238 2.469-1.238 2.896-.19.617-.619 2.658-1.048 3.086-.19.427-1.428 2.895-1.428 3.322-.19.617-.19 2.659-.429 3.276-.19.617-1.047 3.085-1.047 4.936 0 1.662 1.047 2.896 1.047 3.513a22.78 22.78 0 0 1 .62 4.747c.237 1.044 1.19 4.51 1.618 5.364a5.985 5.985 0 0 0 1.048 1.851 8.234 8.234 0 0 0 1.762 3.228c1.238 1.471 2.476 2.943 3.095 3.37 1.238 1.045 1.572 3.608 1.572 3.608s-1.905.38-2.334.76c-.428.616-2.095 4.983-3.857 7.974-1.667 2.8-4.619 5.649-4.81 6.883-.19 1.14 1.334 2.183.953 2.373-.238.143-2 2.374-3.429 4.225H0V0h90Z" fill="#97152F" fill-rule="nonzero"/></g></svg>