<svg viewBox="0 0 90 90" xmlns="http://www.w3.org/2000/svg"><path d="M89.202 36.605a44.624 44.624 0 0 0-3.645-11.093 45.126 45.126 0 0 0-6.696-10.1 45.329 45.329 0 0 0-10.505-8.863A44.73 44.73 0 0 0 45 0a44.753 44.753 0 0 0-17.513 3.548 45.05 45.05 0 0 0-11.675 7.243C6.145 19.05 0 31.318 0 45c0 13.682 6.146 25.95 15.812 34.207a45.244 45.244 0 0 0 5.477 4.015A44.723 44.723 0 0 0 45 89.998a44.748 44.748 0 0 0 17.513-3.548 45.062 45.062 0 0 0 11.675-7.243C83.854 70.947 90 58.681 90 45c0-2.87-.281-5.674-.797-8.395h-.001Zm-73.39 36.982C8.593 66.217 4.137 56.131 4.137 45c0-11.132 4.456-21.218 11.675-28.588v57.175Zm46.7-28.31v36.65A40.693 40.693 0 0 1 45 85.865a40.674 40.674 0 0 1-18.382-4.371l32.977-10.715V58.503L27.487 68.935V8.075a40.698 40.698 0 0 1 17.512-3.937c6.451 0 12.55 1.5 17.974 4.162L30.406 18.882v12.276l8.756-2.846v33.76l11.675-3.794V24.52l23.35-7.586.377-.123a40.88 40.88 0 0 1 7.023 10l-27.83 9.042v12.276l8.755-2.852Zm11.675 28.31V41.482l11.047-3.589c.405 2.31.629 4.681.629 7.106 0 11.132-4.457 21.218-11.676 28.588Z" fill="#FE4D00"/></svg>