<svg viewBox="0 0 90 90" xmlns="http://www.w3.org/2000/svg" xmlns:xlink="http://www.w3.org/1999/xlink"><defs><path id="a" d="M0 0h49.275v90H0z"/></defs><g transform="translate(20)" fill="none" fill-rule="evenodd"><mask id="b" fill="#fff"><use xlink:href="#a"/></mask><g fill-rule="nonzero" mask="url(#b)"><path d="M45.121 24.514c5.561-5.561 5.514-14.636-.112-20.263-5.625-5.626-14.7-5.673-20.26-.111L4.265 24.626c.944-.944 2.015-1.663 3.12-2.292-1.109.626-2.176 1.348-3.12 2.292-2.681 2.682-4.058 6.15-4.201 9.646-.007.181-.065.36-.064.54v.033A14.465 14.465 0 0 0 4.265 45l10.186 10.188 10.075-10.076.111-.112 10.187-10.187L45.12 24.514Z" fill="#2E4865"/><path d="M4.154 65.486c-5.561 5.561-5.514 14.636.111 20.262 5.626 5.627 14.7 5.674 20.261.112L45.01 65.374c-.944.944-2.013 1.663-3.119 2.293 1.108-.627 2.176-1.35 3.12-2.293 2.681-2.682 4.058-6.15 4.201-9.646.006-.18.065-.36.064-.54v-.032A14.465 14.465 0 0 0 45.009 45L34.824 34.813 24.749 44.889l-.111.111L14.45 55.188 4.154 65.486Z" fill="#C6E28A"/><path d="M4.154 44.889c-5.561-5.562-5.514-14.637.111-20.263 5.626-5.627 14.7-5.673 20.261-.112L45.01 45c-.944-.944-2.013-1.662-3.119-2.292 1.108.626 2.176 1.348 3.12 2.292 2.681 2.682 4.058 6.15 4.201 9.646.006.181.065.36.064.542v.031a14.464 14.464 0 0 1-4.266 10.155L34.824 75.562 24.749 65.486l-.111-.112L14.45 55.188l-10.297-10.3Z" fill="#B6DB65"/><path d="M4.265 24.626a14.47 14.47 0 0 0-3.978 7.417c-.147.736-.192 1.483-.223 2.229-.008.181-.063.36-.064.54 0 .182.056.36.064.542.03.745.076 1.493.223 2.228A14.47 14.47 0 0 0 4.265 45l10.186 10.188L24.637 45l.112-.111 10.075-10.076-10.186-10.187c-5.626-5.627-5.626-14.748 0-20.375L4.264 24.626Z" fill="#A1CC39"/></g></g></svg>