<svg viewBox="0 0 90 90" xmlns="http://www.w3.org/2000/svg"><path d="M55.463 51.148c-.268 0-.536-.267-.536-.535v-4.811c0-6.415-5.366-11.761-11.805-11.761H19.244c-6.44 0-11.805 5.346-11.805 11.76 0 6.416 5.366 11.762 11.805 11.762h10.463c.805 0 1.342.534 1.342 1.336v10.425c0 3.207 1.341 6.148 3.488 8.286 2.146 2.138 5.365 3.475 8.317 3.475 6.439 0 11.805-5.346 11.805-11.761v-1.871c0-.267.268-.535.536-.535h5.634c.269 0 .537.268.537.535v1.87c0 9.89-8.317 18.177-18.244 18.177-4.83 0-9.39-1.871-12.878-5.346-3.488-3.475-5.366-8.019-5.366-12.83V63.71h-5.634C9.049 63.71 1 55.69 1 45.535c0-9.89 8.317-18.177 18.244-18.177h23.878c10.195 0 18.244 8.02 18.244 18.177v4.81c0 .268-.268.536-.537.536h-5.366v.267Zm15.293 11.226H46.878c-10.195 0-18.244-8.019-18.244-18.176v-4.544c0-.267.268-.535.537-.535h5.634c.268 0 .536.268.536.535v4.811c0 6.416 5.366 11.761 11.805 11.761h23.61c6.44 0 11.805-5.345 11.805-11.76 0-6.416-5.366-11.762-11.805-11.762H60.024c-.804 0-1.341-.534-1.341-1.336V20.676c0-3.207-1.342-6.148-3.488-8.286s-5.366-3.475-8.317-3.475c-6.439 0-11.805 5.346-11.805 11.761v1.871c0 .267-.268.535-.536.535h-5.635c-.268 0-.536-.268-.536-.535v-1.87c0-9.89 8.317-18.177 18.244-18.177 4.829 0 9.39 1.871 12.878 5.346 3.488 3.475 5.366 8.019 5.366 12.83v5.613h5.902C80.951 26.29 89 34.31 89 44.465c0 10.158-8.317 17.91-18.244 17.91Z" fill="#C30B55" fill-rule="evenodd"/></svg>