<svg xmlns="http://www.w3.org/2000/svg" viewBox="0 0 90 90"><defs><linearGradient id="a" x1="50%" x2="50%" y1="0%" y2="100%"><stop offset="0%" stop-color="#31B7CF"/><stop offset="100%" stop-color="#0D93B0"/></linearGradient></defs><path fill="url(#a)" d="M0 0h90v90H0z"/><path fill="#FFF" d="M45 75c-14.72 0-25-9.1-25-22.13C20 40.53 33.98 20.25 49.76 16c-3.58 3.6-8.5 9.02-11.24 14.94-3.89 8.4-4.25 21.21-3.91 22.72l.54 2.43 2.34-.9c2.52-.99 4.94-2.4 7.22-4.21a32.86 32.86 0 004.04-3.84c5-5.6 8.21-12.84 8.73-19.36C64.61 32.58 70 43.04 70 52.87 70 65.9 59.72 75 45 75z"/></svg>