<svg viewBox="0 0 90 90" xmlns="http://www.w3.org/2000/svg"><g fill="none" fill-rule="evenodd"><path fill="#7447CD" d="M0 0h90v90H0z"/><g fill-rule="nonzero"><path d="M23.694 12.153c2.812 0 4.218.75 4.218 2.25v37.896H43.59c1.406 0 2.11 1.172 2.11 3.516v2.18c0 2.343-.704 3.515-2.11 3.515H19.898c-1.875 0-2.812-.938-2.812-2.813V14.403c0-1.5 1.406-2.25 4.218-2.25h2.39Z" fill="#CDB3FF"/><path d="M73.122 49.465c.522 2.1-9.108 3.663-9.366 1.863-.348-2.062-1.613-3.614-2.843-4.657-1.229-1.043-2.825-1.565-4.787-1.565-2.608 0-4.688.9-6.24 2.701-1.553 1.8-2.329 4.812-2.329 9.035 0 4.694.789 8.01 2.366 9.947 1.577 1.937 3.695 2.906 6.352 2.906 1.987 0 3.614-.565 4.88-1.695 1.267-1.13 2.161-3.074 2.683-5.83 0-1.798 10.277-1.289 9.567 1.75-1.068 4.72-2.401 8.284-5.432 10.693-3.03 2.409-7.09 3.614-12.182 3.614-5.787 0-10.4-1.826-13.84-5.477-3.44-3.651-5.16-8.705-5.16-15.163 0-6.532 1.725-11.618 5.178-15.256 3.452-3.64 8.121-5.458 14.008-5.458 4.818 0 8.65 1.036 11.493 3.11 2.844 2.074 4.41 5.235 5.652 9.482Z" fill="#FFF"/></g></g></svg>