<svg viewBox="0 0 90 90" xmlns="http://www.w3.org/2000/svg"><defs><linearGradient x1="102.436%" y1="7.473%" x2="10.613%" y2="94.201%" id="a"><stop stop-color="#FFF" offset="0%"/><stop stop-color="#EFEFEF" offset="100%"/></linearGradient></defs><g fill="none"><path d="M76.851 59.977s-25.077-6.322-46.886-2.449c0 0 27.837-25.34 27.837-56.707 0 0-7.135-1.147-15.131-.73 0 0-1.235 21.197-30.31 53.304-.506.558-.923 1.988-1.446 2.553 0 0 6.52 11.637 10.14 16.17 3.603 4.533 48.1.486 48.1.486l7.696-12.627Z" fill="url(#a)" transform="translate(0 1)"/><path d="M88.872 18.357c-1.898-4.776-5.536-8.58-11.353-11.637-3.655-1.84-11.071-3.803-19.717-4.898 0 .73 0 1.598-.14 2.45 8.241.972 14.058 3.994 17.292 5.714 4.727 2.448 8.101 5.47 9.999 10.004 1.757 4.533-.035 7.694-1.248 12.227C81 41.77 77.45 51.183 72.458 60.007c.95.243 3.585.868 4.394.99 4.99-8.824 8.787-18.012 11.616-27.686 1.353-4.915 2.442-9.813.404-14.954Z" fill="#5D606D"/><path d="M12.812 54.839c-2.702-7.128-3.163-15.058-5.325-22.648-1.212-4.533-.65-6.583 1.248-11.116 1.757-4.655 5.131-6.444 10-8.893 4.463-2.327 17.503-2.223 23.671-8.667.14-.85.264-1.597.264-2.449-12.689.244-25.13 3.057-30.262 5.645-5.8 2.935-9.455 6.722-11.335 11.637-2.021 5.141-.809 10.039.545 15.058a128.325 128.325 0 0 0 9.314 23.517c.667-.73 1.212-1.355 1.88-2.084ZM66.044 72.98c-1.634-.21-11.036 4.08-14.832 7.016-3.234 2.449-1.511 6.878-5.975 7-4.464-.122-7.03-2.207-10.263-4.777-3.919-2.935-8.101-5.818-10.948-9.483-.95.122-2.021.243-2.97.365 3.655 4.897 7.152 8.701 11.071 11.758 3.11 2.327 7.293 5.02 12.97 5.141h.28c5.677-.122 9.86-2.814 12.97-5.141 3.919-2.935 7.293-6.617 10.808-11.272-1.213-.243-2.162-.486-3.11-.608Z" fill="#00705C"/><path d="M86.447 19.086c-1.757-4.654-5.412-7.833-10.263-10.282-3.233-1.72-10.263-3.56-18.505-4.533-1.09 12.731-9.19 36.491-27.695 54.259 12.301-1.598 32.968-.608 44.18 1.84 4.99-8.822 8.91-18.01 11.616-27.684 1.353-4.412 2.425-8.945.667-13.6Z" fill="#464A58"/><path d="M13.762 8.786c-4.727 2.449-8.365 5.766-10.122 10.3-1.757 4.532-.668 9.066.545 13.599 2.161 7.59 5.131 14.936 8.646 22.162 11.757-12.124 26.606-32.34 29.594-51.324-12.32.243-24.058 2.935-28.663 5.263Zm10.141 63.95c2.83 3.683 5.94 7.226 9.858 10.161 3.234 2.449 6.749 4.533 11.212 4.655 4.464-.122 7.979-2.085 11.212-4.655 3.779-2.935 6.89-6.374 9.736-9.917-8.787-1.355-23.109-2.084-42.018-.244Z" fill="#00826C"/><path d="M15.924 11.373c-4.464 2.328-7.838 5.263-9.455 9.553-1.616 4.29-.668 8.458.545 12.61 1.898 6.738 4.464 13.234 7.574 19.47C25.255 41.49 38.225 23.6 41.88 6.457c-11.23.382-21.774 2.71-25.956 4.915Zm10.667 61.119c2.303 2.814 4.868 5.506 7.979 7.833 2.97 2.327 6.344 4.169 10.544 4.29 4.183-.121 7.434-1.963 10.544-4.29 2.97-2.327 5.536-4.898 7.838-7.711-8.664-.99-20.948-1.477-36.905-.122Z" fill="#00957B"/><path d="M83.618 20.926c-1.617-4.29-5.131-7.347-9.454-9.553-3.111-1.598-9.315-3.178-16.748-4.168-2.021 13.234-10.263 34.788-27.432 51.323 11.475-1.476 30.261-.73 41.877 1.476 4.868-8.336 8.506-17.142 11.072-26.33 1.212-4.186 2.302-8.476.685-12.748Z" fill="#2F3343"/></g></svg>