<svg viewBox="0 0 90 90" xmlns="http://www.w3.org/2000/svg"><path d="m16.938 44.43 25.028-25.052a2.532 2.532 0 0 0 .759-1.772V2.676a2.53 2.53 0 0 0-1.517-2.53 2.527 2.527 0 0 0-2.781.758l-33.37 33.15A15.19 15.19 0 0 0 0 44.685a14.682 14.682 0 0 0 5.056 10.122L38.427 88.21a2.53 2.53 0 0 0 1.77.76c.356.037.714-.053 1.01-.254a2.53 2.53 0 0 0 1.518-2.53v-14.93a2.532 2.532 0 0 0-.759-1.772L16.938 44.43ZM6.826 49.491a8.103 8.103 0 0 1-1.77-5.06 10.631 10.631 0 0 1 3.792-6.833l28.82-28.596v7.592l-26.544 26.57a16.45 16.45 0 0 0-4.298 6.327ZM37.92 80.364 13.4 55.818a2.782 2.782 0 0 0-.506-.506c-.758-.76-3.033-3.037.506-7.592l24.27 24.546v7.592l.252.506ZM51.573.904a2.526 2.526 0 0 0-2.528-.506 2.53 2.53 0 0 0-1.77 2.53V17.86c.01.668.282 1.304.759 1.772l25.28 25.052-25.28 25.306c-.42.404-.688.94-.759 1.518v14.93a2.53 2.53 0 0 0 1.77 2.531c.251.043.507.043.758 0a2.527 2.527 0 0 0 2.023-.759L84.69 55.312A15.189 15.189 0 0 0 90 44.683a14.683 14.683 0 0 0-5.056-10.375L51.573.904Zm1.011 15.943V9.002l24.017 24.04c.146.19.316.36.506.507.758.759 3.033 3.036-.506 7.591L52.584 16.847ZM80.9 51.516 52.33 80.364v-7.591l26.545-27.078a16.702 16.702 0 0 0 4.298-6.073 8.103 8.103 0 0 1 1.77 4.808 10.884 10.884 0 0 1-3.792 6.833l-.253.253Zm-17.444-5.061H25.534a2.024 2.024 0 0 1-1.77-1.772 2.024 2.024 0 0 1 1.77-2.024h37.921a2.023 2.023 0 0 1 2.023 1.771v.253a2.023 2.023 0 0 1-2.023 2.025v-.253Zm-5.309-9.363a2.026 2.026 0 0 1-2.022 2.277h-23.26a2.024 2.024 0 0 1-1.77-2.024 2.026 2.026 0 0 1 1.77-2.278h23.259c1.117 0 2.022.906 2.022 2.025ZM50.815 29.5v.253a2.024 2.024 0 0 1-1.77 2.024H39.69a2.024 2.024 0 0 1-1.77-2.024 2.024 2.024 0 0 1 1.77-2.025h9.354a2.024 2.024 0 0 1 1.77 2.025V29.5Zm-1.77 28.09a2.024 2.024 0 0 1 1.77 2.024 2.024 2.024 0 0 1-1.77 2.024H39.69a2.024 2.024 0 0 1-1.77-1.771v-.253a2.024 2.024 0 0 1 1.77-2.025h9.354Zm7.079-3.29H32.865a2.024 2.024 0 0 1-1.77-2.025 2.026 2.026 0 0 1 1.77-2.278h23.259c1.117 0 2.022.907 2.022 2.025a2.026 2.026 0 0 1-2.022 2.277Z" fill="#51BB7B"/></svg>