<svg viewBox="0 0 90 90" xmlns="http://www.w3.org/2000/svg"><g fill="none"><path fill="#FFF" d="M0 0h90v90H0z"/><g fill="#0027D6"><path d="M44.427 28.317a13.08 13.08 0 0 0-1.02.44 16.604 16.604 0 0 0-4.953 3.365c2.623 2.634 5.536 5.854 8.013 7.756l2.185 1.902h-15.15a17.492 17.492 0 0 0 0 7.025h15.15l-2.185 1.756c-2.477 2.049-5.39 5.122-8.013 7.756a16.75 16.75 0 0 0 4.953 3.366l1.02.439C52.877 53.927 60.16 48.952 74 48.805V41.78c-13.84-.292-21.123-5.268-29.573-13.463Z"/><path d="M15 48.512h5.244v.878a30.344 30.344 0 0 0 8.304 16.683l.729.732-3.642 3.805a34.848 34.848 0 0 0 5.39 4.39l3.787-3.951.729.439c11.152 6.008 24.879 4.181 34.089-4.537l-4.953-4.975a22.506 22.506 0 0 1-21.27 5.122A22.904 22.904 0 0 1 28.84 54.366a23.66 23.66 0 0 1 0-18.732 22.904 22.904 0 0 1 14.567-12.732 22.506 22.506 0 0 1 21.27 5.122l4.953-4.975a29.327 29.327 0 0 0-34.09-4.537l-.728.293L31.025 15a34.994 34.994 0 0 0-5.39 4.39l3.642 3.805-.729.585a30.347 30.347 0 0 0-8.158 16.83l-.146.878H15"/></g></g></svg>