<svg width="90" height="90" viewBox="0 0 90 90" xmlns="http://www.w3.org/2000/svg"><path d="M90,0 L90,90 L0,90 L0,0 L90,0 Z M51.8194299,61.2839937 L45.5320434,61.2839937 C45.5320434,69.0493136 51.4324893,75 58.9292642,75 C66.4256411,75 72.3268833,69.0493136 72.3268833,61.2839937 L66.0390986,61.2839937 C66.0390986,65.4694384 62.8954053,68.6965142 58.9292642,68.6965142 C54.9631232,68.6965142 51.8194299,65.4694384 51.8194299,61.2839937 Z M30.006251,32.8425599 C22.5098741,32.8425599 16.6094282,38.7928312 16.6094282,46.5585662 C16.6094282,54.3243012 22.5098741,60.2754028 30.006251,60.2754028 C37.5034241,60.2754028 43.403472,54.3243012 43.403472,46.5585662 C43.403472,38.7928312 37.5034241,32.8425599 30.006251,32.8425599 Z M58.9292642,32.8425599 C51.4324893,32.8425599 45.5320434,38.7928312 45.5320434,46.5585662 C45.5320434,54.3243012 51.4324893,60.2754028 58.9292642,60.2754028 C66.4256411,60.2754028 72.3268833,54.3243012 72.3268833,46.5585662 C72.3268833,43.9362299 71.6493391,41.3645305 70.2954452,39.4482078 L72.0848463,38.7928312 L72.0848463,33.6490176 L63.378683,33.6490176 C61.9762224,33.1451372 60.4766286,32.8425599 58.9292642,32.8425599 Z M80.98448,33.6490176 L74.7934305,33.6490176 L74.7934305,59.5183369 L80.98448,59.5183369 L80.98448,33.6490176 Z M14.1910495,22.7064287 L8,22.7064287 L8,59.518337 L14.1910495,59.518337 L14.1910495,22.7064287 Z M30.006251,39.0949934 C34.0209588,39.0949934 37.1646521,42.3228994 37.1646521,46.5585662 C37.1646521,50.7946481 34.0209588,54.022139 30.006251,54.022139 C26.040508,54.022139 22.8964167,50.7444261 22.8964167,46.5079292 C22.8964167,42.3228994 26.040508,39.0949934 30.006251,39.0949934 Z M58.9292642,39.0949934 C62.9435739,39.0949934 66.0876652,42.3228994 66.0876652,46.5585662 C66.0876652,50.7946481 62.9435739,54.022139 58.9292642,54.022139 C54.9631232,54.022139 51.8194299,50.7444261 51.8194299,46.5079292 C51.8194299,42.3228994 54.9631232,39.0949934 58.9292642,39.0949934 Z M77.8403886,22 C75.5669136,22 73.7775124,23.8661007 73.7775124,26.2867189 C73.7775124,28.6567 75.5669136,30.5223857 77.8403886,30.5223857 C80.2105988,30.5223857 82,28.6567 82,26.2867189 C82,23.8661007 80.2105988,22 77.8403886,22 Z" fill="#00C2FF" fill-rule="evenodd"/></svg>