<?xml version="1.0" encoding="UTF-8"?>
<svg width="90px" height="90px" viewBox="0 0 90 90" version="1.1" xmlns="http://www.w3.org/2000/svg" xmlns:xlink="http://www.w3.org/1999/xlink">
    <title>logmein.com</title>
    <g id="logmein" stroke="none" stroke-width="1" fill="none" fill-rule="evenodd">
        <rect id="Rectangle" fill="#FFFFFF" opacity="0" x="0" y="0" width="90" height="90"></rect>
        <path d="M45.0024968,0 C20.1467569,0 0,20.1486948 0,45.0012484 C0,69.8513052 20.1467569,90 45.0024968,90 C69.8532431,90 90,69.8513052 90,45.0012484 C90,20.1486948 69.8507463,0 45.0024968,0 L45.0024968,0 Z" id="Path" fill="#165C7D" fill-rule="nonzero"></path>
        <path d="M26.7078129,17.908494 L27.3356876,17.9098732 C27.839634,17.9115438 28.1870646,17.9144605 28.2813627,17.9191056 C28.7857182,17.944073 29.1652333,18.136322 29.4174111,18.4908592 C29.6870801,18.8946877 29.8328753,19.3685088 29.8368751,19.8540794 C29.8483355,20.139307 29.8604452,32.7631759 29.8732044,45.1733914 L29.8747085,46.631674 C29.8865139,58.0353067 29.8988709,68.8394263 29.9117794,69.2196299 C29.9367475,70.0260771 29.8218942,70.6377785 29.5672197,71.0422504 C29.3674749,71.391794 28.7807246,71.8387106 28.0441658,71.8736649 C27.9259385,71.8789283 27.6426482,71.8818281 27.2488722,71.8827795 L26.5821662,71.8827973 C25.8462403,71.8814576 24.9231213,71.8762011 23.9970078,71.8684293 L23.3811765,71.8628909 C21.6465188,71.84623 20.0472219,71.8217057 19.8246685,71.7987627 C19.3964558,71.7679239 18.9874907,71.608693 18.651168,71.3418592 C18.3989902,71.0871917 18.2466848,70.7101839 18.1967486,70.2058424 C18.1456395,69.6764209 18.1206411,69.1448032 18.1218443,68.612922 L18.1214698,67.2990773 C18.1214448,67.2145816 18.1214186,67.1263253 18.1213911,67.034401 L18.1204923,64.171511 C18.1204448,64.0268412 18.1203962,63.8792461 18.1203462,63.7288185 L18.1195036,61.2715691 C18.1194411,61.0951369 18.1193775,60.9163363 18.1193125,60.7352602 L18.1184736,58.4590585 C18.1183987,58.2612627 18.1183226,58.0615626 18.1182452,57.860051 L18.1175148,56.0000426 C18.11743,55.7884974 18.1173438,55.5754192 18.1172564,55.3609008 L18.1164362,53.393855 C18.1163413,53.1715307 18.1162452,52.9480445 18.1161478,52.7234894 L18.1155486,51.3640741 C18.1154462,51.1356145 18.1153426,50.9062716 18.1152378,50.6761382 L18.1145936,49.2865946 C18.1144837,49.0536705 18.1143726,48.8201416 18.1142603,48.5861006 L18.1135711,47.1764531 C18.1134538,46.9407353 18.1133352,46.7046912 18.1132153,46.4684134 L18.1124813,45.0486864 C18.1121068,44.3381641 18.111721,43.6272103 18.111324,42.9183311 L18.110515,41.5040816 C18.1098284,40.3290831 18.1091106,39.1644886 18.1083615,38.0219003 L18.1074477,36.6620999 C18.1015652,28.1263355 18.09388,21.129714 18.0843922,20.7653896 C18.0569273,19.8066413 18.1717805,19.117541 18.4264551,18.7180625 C18.623703,18.4134602 19.1630139,17.9191056 19.8246685,17.9191056 L20.0484609,17.9185178 C20.0817338,17.9184248 20.118411,17.9183221 20.1583038,17.9182106 L20.4347377,17.9174438 C21.1627413,17.9154434 22.4470258,17.912089 23.7697858,17.9099655 L24.9009257,17.9085072 C24.9939597,17.9084208 25.0864352,17.9083445 25.1781635,17.9082792 L26.4744584,17.9082415 C26.5539969,17.9083097 26.6318446,17.9083935 26.7078129,17.908494 Z M67.191644,33.0493522 C69.1709211,33.9569961 70.8340958,35.4349462 71.9680408,37.2938109 C73.1390446,39.1913335 74.0154247,42.6667961 74.0154247,46.0174217 C74.0154247,46.0363969 74.0154154,46.0688702 74.0153968,46.1141685 L74.0144388,47.6714114 C74.0143847,47.7497746 74.0143285,47.830503 74.0142701,47.9135124 L74.0134672,49.0137309 C74.0133918,49.1136426 74.0133144,49.2154989 74.0132348,49.3192157 L74.0124634,50.3006276 C74.0123715,50.4147501 74.0122776,50.5304806 74.0121817,50.6477352 L74.0115821,51.3688776 C74.0114782,51.4918917 74.0113723,51.6162615 74.0112644,51.741903 L74.0105935,52.510339 C74.0104777,52.6407307 74.01036,52.7722258 74.0102404,52.9047402 L74.0094997,53.7113856 C74.0091179,54.1201512 74.0087189,54.5365767 74.0083032,54.9583908 L74.0074497,55.8085311 C74.0008828,62.2283765 73.9906127,69.520019 73.9779726,70.0185868 C73.9480109,70.9024329 73.5984575,71.5091408 72.8793764,71.7163703 C72.5558314,71.8099981 71.1958504,71.8464089 69.6846232,71.8514298 L69.074164,71.8518253 C67.1287884,71.8481639 65.1301115,71.7996643 64.8771015,71.7588149 C64.4354301,71.7079597 64.0361108,71.4720048 63.7785052,71.1096624 C63.5580014,70.7577346 63.4395793,70.3514805 63.4364423,69.9361944 C63.4197969,69.6182761 63.4075903,61.654784 63.401302,56.3811135 L63.4005155,55.7093471 C63.4003901,55.6002116 63.4002674,55.4925596 63.4001477,55.3864973 L63.3994632,54.7700499 C63.3993548,54.6707713 63.3992494,54.5732947 63.3991468,54.4777265 L63.398566,53.9280658 C63.398475,53.8405554 63.398387,53.7551656 63.3983018,53.6720027 L63.3974221,52.7877308 C63.3973607,52.7240814 63.3973023,52.6630836 63.3972469,52.6048435 L63.3964934,51.7798985 L63.3964934,51.7798985 C63.3964934,49.9073432 63.3215891,48.1746054 63.1717805,46.5841818 C63.0194751,44.9912614 62.2829163,40.0277416 56.2031848,40.0277416 C50.8025856,40.0277416 48.8375964,44.3970372 48.5379792,46.6191361 C48.2169822,49.1085773 48.0643301,51.6168403 48.0810631,54.1268344 L48.0810631,69.6016312 C48.0810631,70.0510445 48.0061588,70.4330457 47.8563502,70.7376481 C47.6359462,71.2439255 47.1818272,71.610381 46.6404039,71.718867 C46.2651259,71.8132892 44.6196985,71.8466708 42.9605402,71.8503146 L42.3401661,71.8503483 C40.7998916,71.8472531 39.3855831,71.8214604 39.1324974,71.7987627 C38.5757088,71.7463312 38.1737225,71.5740561 37.9215447,71.266957 C37.5645009,70.8125503 37.4047051,70.1559076 37.4271764,69.2920354 C37.4377379,68.8907094 37.4494025,61.2792323 37.4613925,53.276362 L37.4644604,51.2287746 C37.4647165,51.0581342 37.4649728,50.8875792 37.4652292,50.7171755 L37.4667688,49.697093 C37.4785817,41.8984273 37.4905954,34.6976503 37.5020807,34.4874747 C37.5108632,34.0732945 37.6585929,33.6740835 37.9215447,33.3539546 C38.2261555,32.9469859 38.8903068,32.7522401 40.0787882,32.7522401 L44.3882816,32.714789 C45.5992343,32.714789 47.0973201,32.7497434 47.2845808,33.8732766 C47.3320202,34.1604017 47.6091661,36.4873637 48.5979027,36.5073376 C48.8975198,36.5123311 49.1022582,36.3700169 49.3444488,36.1253364 C49.3591175,36.1147252 49.39458,36.0807071 49.4476957,36.0279732 L49.8458451,35.6300571 C50.3964379,35.0855827 51.300283,34.2311427 52.0809521,33.7784004 C56.0358986,31.3166144 63.0219719,31.1068882 67.191644,33.0493522 Z" id="Combined-Shape" fill="#FFFFFF"></path>
    </g>
</svg>