<svg xmlns="http://www.w3.org/2000/svg" viewBox="0 0 90 90"><path fill="#FFF" d="M0 0h90v90H0z"/><path d="M70.94 30.56c-.019-.1-.019-.18-.058-.28-.02-.08-.079-.16-.118-.24-.04-.08-.079-.14-.138-.22-.06-.08-.138-.12-.217-.18l-.118-.12-24.484-14.34a1.37 1.37 0 0 0-1.358 0L19.984 29.54l-.059.06c-.079.04-.138.12-.197.18a.564.564 0 0 0-.177.2c-.02.02-.04.04-.059.08-.04.04-.04.1-.059.16a.99.99 0 0 0-.079.26c-.02.08-.02.16-.02.26 0 .08 0 .18.02.26.02.1.04.18.079.26.02.06.02.1.06.16l.058.06c.06.08.118.14.177.2.06.06.118.14.197.18l.06.06 12.478 7.22 11.297 6.54v11.34l-22.713-13.3c-.04-.02-.079-.02-.118-.04a.959.959 0 0 0-.217-.08c-.098-.02-.196-.06-.295-.06-.04 0-.059-.02-.098-.02-.06 0-.099.02-.158.04-.098.02-.197.04-.275.06a.723.723 0 0 0-.217.1.88.88 0 0 0-.216.16c-.079.06-.118.14-.177.2a.528.528 0 0 0-.099.12c-.02.02-.02.06-.04.1a1 1 0 0 0-.078.26c-.02.1-.04.18-.04.28 0 .04-.019.06-.019.1l.315 14.36c.02.48.275.92.689 1.16l24.465 14.36a1.418 1.418 0 0 0 1.377 0l24.465-14.36a1.4 1.4 0 0 0 .689-1.2V30.74a.326.326 0 0 1-.06-.18ZM46.497 45.7l9.368-5.5v11.18l-9.368 5.64V45.7Zm-1.358-2.38-9.29-5.38 9.31-5.6 9.348 5.48-9.368 5.5Zm0 28.7L22.01 58.46l-.236-11.12L44.47 60.66c.039.02.059.02.098.04.04.02.079.04.118.04.158.06.315.1.472.1.158 0 .315-.04.473-.1l.118-.06c.04-.02.079-.02.098-.04l12.085-7.26c.413-.24.67-.7.67-1.18V37.84c0-.12-.02-.24-.04-.34v-.02a1.38 1.38 0 0 0-.197-.42.35.35 0 0 0-.079-.1 1.367 1.367 0 0 0-.354-.32l-12.085-7.08a1.408 1.408 0 0 0-1.377 0l-11.32 6.82-9.742-5.66 21.729-12.76 23.106 13.56v26.94L45.138 72.02Z" fill="#112031"/></svg>