<svg viewBox="0 0 90 90" xmlns="http://www.w3.org/2000/svg"><g fill="none"><g fill="#AC1724"><path d="M51.792 5.53A36.448 36.448 0 0 0 50.17 0c2.187.35 4.183.722 6.187 1.156a31.9 31.9 0 0 1 2.255 5.91 149.112 149.112 0 0 0-6.82-1.536Zm.649 7.062a30.036 30.036 0 0 0-.324-5.27c2.39.521 4.63 1.056 6.935 1.658a23.69 23.69 0 0 1 .398 5.642 195.983 195.983 0 0 0-7.009-2.03ZM42.78 10.23a43.041 43.041 0 0 0-.397-4.758c2.556.42 4.928.857 7.36 1.351.241 1.703.346 3.423.313 5.143a218.698 218.698 0 0 0-7.275-1.737ZM32.646 8.21a71.738 71.738 0 0 0-.735-4.228c2.758.34 5.325.69 7.928 1.09.23 1.595.375 3.09.456 4.629a243.84 243.84 0 0 0-7.65-1.49ZM21.904 6.477A144.68 144.68 0 0 0 20.52 2.78c3.023.272 5.815.552 8.64.87.336 1.424.614 2.744.867 4.101a340.736 340.736 0 0 0-8.123-1.275ZM10.397 4.97A370.389 370.389 0 0 0 8 1.82c3.336.22 6.406.444 9.504.701.577 1.25 1.092 2.394 1.601 3.56a448.83 448.83 0 0 0-8.708-1.11Zm41.058 14.506c.435-1.69.73-3.414.881-5.153a198.48 198.48 0 0 1 6.956 2.16 27.022 27.022 0 0 1-1.334 5.57 175.514 175.514 0 0 0-6.503-2.577Zm-8.921-3.084a45.75 45.75 0 0 0 .264-4.606c2.47.598 4.79 1.2 7.187 1.867a34.607 34.607 0 0 1-.732 5.018 202.287 202.287 0 0 0-6.72-2.279Zm-9.284-2.757a85.428 85.428 0 0 0-.413-4.05 240.25 240.25 0 0 1 7.518 1.627 49.9 49.9 0 0 1-.106 4.47c-2.33-.725-4.59-1.382-7-2.047Zm-9.723-2.511a364.694 364.694 0 0 0-1.201-3.461c2.749.457 5.312.915 7.941 1.418.23 1.34.422 2.602.599 3.903a309.447 309.447 0 0 0-7.34-1.86Zm25.47 15.255a43.752 43.752 0 0 0 1.978-5.185c2.146.881 4.171 1.761 6.265 2.727a41.693 41.693 0 0 1-2.942 5.693 96.997 96.997 0 0 0-5.301-3.235Zm-7.48-3.891c.34-1.551.614-3.027.827-4.572a182.76 182.76 0 0 1 6.502 2.422 45.062 45.062 0 0 1-1.673 5.028 124.5 124.5 0 0 0-5.656-2.878Zm-7.971-3.533a126.054 126.054 0 0 0-.2-3.986c2.339.712 4.528 1.418 6.788 2.183a65.276 65.276 0 0 1-.565 4.424 168.66 168.66 0 0 0-6.023-2.62Zm11.66 14.538a70.834 70.834 0 0 0 2.963-5.367 77.48 77.48 0 0 1 4.897 3.427c-1.314 1.984-2.747 3.923-4.421 6.018a40.861 40.861 0 0 0-3.439-4.078Zm-5.354-4.823a83.75 83.75 0 0 0 1.298-4.651 98.61 98.61 0 0 1 5.31 3.04 70.304 70.304 0 0 1-2.514 5.169 52.973 52.973 0 0 0-4.094-3.557Zm.373 12.338a139 139 0 0 0 3.844-5.683 34.346 34.346 0 0 1 2.869 4.323c-1.785 2.134-3.661 4.239-5.777 6.526a27.615 27.615 0 0 0-.936-5.166Z"/><path d="M51.792 5.53A36.448 36.448 0 0 0 50.17 0c2.187.35 4.183.722 6.187 1.156a31.9 31.9 0 0 1 2.255 5.91 149.112 149.112 0 0 0-6.82-1.536Zm.649 7.062a30.036 30.036 0 0 0-.324-5.27c2.39.521 4.63 1.056 6.935 1.658a23.69 23.69 0 0 1 .398 5.642 195.983 195.983 0 0 0-7.009-2.03ZM42.78 10.23a43.041 43.041 0 0 0-.397-4.758c2.556.42 4.928.857 7.36 1.351.241 1.703.346 3.423.313 5.143a218.698 218.698 0 0 0-7.275-1.737ZM32.646 8.21a71.738 71.738 0 0 0-.735-4.228c2.758.34 5.325.69 7.928 1.09.23 1.595.375 3.09.456 4.629a243.84 243.84 0 0 0-7.65-1.49ZM21.904 6.477A144.68 144.68 0 0 0 20.52 2.78c3.023.272 5.815.552 8.64.87.336 1.424.614 2.744.867 4.101a340.736 340.736 0 0 0-8.123-1.275ZM10.397 4.97A370.389 370.389 0 0 0 8 1.82c3.336.22 6.406.444 9.504.701.577 1.25 1.092 2.394 1.601 3.56a448.83 448.83 0 0 0-8.708-1.11Zm41.058 14.506c.435-1.69.73-3.414.881-5.153a198.48 198.48 0 0 1 6.956 2.16 27.022 27.022 0 0 1-1.334 5.57 175.514 175.514 0 0 0-6.503-2.577Zm-8.921-3.084a45.75 45.75 0 0 0 .264-4.606c2.47.598 4.79 1.2 7.187 1.867a34.607 34.607 0 0 1-.732 5.018 202.287 202.287 0 0 0-6.72-2.279Zm-9.284-2.757a85.428 85.428 0 0 0-.413-4.05 240.25 240.25 0 0 1 7.518 1.627 49.9 49.9 0 0 1-.106 4.47c-2.33-.725-4.59-1.382-7-2.047Zm-9.723-2.511a364.694 364.694 0 0 0-1.201-3.461c2.749.457 5.312.915 7.941 1.418.23 1.34.422 2.602.599 3.903a309.447 309.447 0 0 0-7.34-1.86Zm25.47 15.255a43.752 43.752 0 0 0 1.978-5.185c2.146.881 4.171 1.761 6.265 2.727a41.693 41.693 0 0 1-2.942 5.693 96.997 96.997 0 0 0-5.301-3.235Zm-7.48-3.891c.34-1.551.614-3.027.827-4.572a182.76 182.76 0 0 1 6.502 2.422 45.062 45.062 0 0 1-1.673 5.028 124.5 124.5 0 0 0-5.656-2.878Zm-7.971-3.533a126.054 126.054 0 0 0-.2-3.986c2.339.712 4.528 1.418 6.788 2.183a65.276 65.276 0 0 1-.565 4.424 168.66 168.66 0 0 0-6.023-2.62Zm11.66 14.538a70.834 70.834 0 0 0 2.963-5.367 77.48 77.48 0 0 1 4.897 3.427c-1.314 1.984-2.747 3.923-4.421 6.018a40.861 40.861 0 0 0-3.439-4.078Zm-5.354-4.823a83.75 83.75 0 0 0 1.298-4.651 98.61 98.61 0 0 1 5.31 3.04 70.304 70.304 0 0 1-2.514 5.169 52.973 52.973 0 0 0-4.094-3.557Zm.373 12.338a139 139 0 0 0 3.844-5.683 34.346 34.346 0 0 1 2.869 4.323c-1.785 2.134-3.661 4.239-5.777 6.526a27.615 27.615 0 0 0-.936-5.166Z"/></g><path d="M39.201 84.47A36.255 36.255 0 0 0 40.824 90c-2.19-.348-4.185-.72-6.195-1.156a31.916 31.916 0 0 1-2.25-5.908c2.26.558 4.46 1.054 6.822 1.534Z" fill="#E99800"/><path d="M39.201 84.47A36.255 36.255 0 0 0 40.824 90c-2.19-.348-4.185-.72-6.195-1.156a31.916 31.916 0 0 1-2.25-5.908c2.26.558 4.46 1.054 6.822 1.534Zm-.634-7.064c-.05 1.763.056 3.527.316 5.271a169.853 169.853 0 0 1-6.94-1.662 24.178 24.178 0 0 1-.394-5.64c2.35.73 4.615 1.385 7.018 2.03Z" fill="#E99800"/><path d="M38.567 77.406c-.05 1.763.056 3.527.316 5.271a169.853 169.853 0 0 1-6.94-1.662 24.178 24.178 0 0 1-.394-5.64c2.35.73 4.615 1.385 7.018 2.03Zm9.656 2.364c.047 1.591.18 3.18.397 4.757a199.539 199.539 0 0 1-7.36-1.352 32.547 32.547 0 0 1-.324-5.143c2.432.625 4.78 1.183 7.287 1.737Zm10.13 2.014c.2 1.406.436 2.766.733 4.23a264.78 264.78 0 0 1-7.928-1.09 49.238 49.238 0 0 1-.453-4.628c2.533.54 5.004 1.017 7.648 1.488ZM69.1 83.522a130.8 130.8 0 0 0 1.382 3.695 373.288 373.288 0 0 1-8.64-.873 83.852 83.852 0 0 1-.867-4.1c2.682.456 5.304.868 8.124 1.278Zm11.505 1.508A441.893 441.893 0 0 0 83 88.176a538.225 538.225 0 0 1-9.502-.7c-.58-1.249-1.09-2.396-1.601-3.56 2.867.397 5.679.751 8.708 1.112ZM39.547 70.52a32.054 32.054 0 0 0-.881 5.157 199.716 199.716 0 0 1-6.955-2.16 27.22 27.22 0 0 1 1.33-5.573c2.18.915 4.281 1.747 6.506 2.577Z" fill="#E99800"/><path d="M39.547 70.52a32.054 32.054 0 0 0-.881 5.157 199.716 199.716 0 0 1-6.955-2.16 27.22 27.22 0 0 1 1.33-5.573c2.18.915 4.281 1.747 6.506 2.577Zm8.923 3.085a45.302 45.302 0 0 0-.265 4.606 212.466 212.466 0 0 1-7.185-1.866 34.19 34.19 0 0 1 .729-5.017c2.245.805 4.415 1.54 6.72 2.277Zm9.28 2.758c.11 1.357.238 2.663.413 4.05a244.382 244.382 0 0 1-7.516-1.626c-.028-1.527.01-2.97.107-4.47 2.337.724 4.589 1.381 6.997 2.046Zm9.727 2.512c.394 1.153.777 2.277 1.197 3.46a320.956 320.956 0 0 1-7.94-1.42c-.23-1.338-.42-2.602-.596-3.903 2.438.65 4.807 1.243 7.339 1.863ZM42.005 63.616a43.46 43.46 0 0 0-1.976 5.186 150.913 150.913 0 0 1-6.267-2.73 42.805 42.805 0 0 1 2.94-5.692 92.239 92.239 0 0 0 5.303 3.236Zm7.482 3.894a57.589 57.589 0 0 0-.831 4.57 181.95 181.95 0 0 1-6.502-2.421 45.24 45.24 0 0 1 1.675-5.025c1.87 1.014 3.698 1.94 5.658 2.876Zm7.968 3.535c.049 1.35.11 2.635.2 3.985a229.423 229.423 0 0 1-6.789-2.185c.14-1.496.324-2.928.566-4.424 1.983.916 3.94 1.76 6.023 2.624Zm-11.666-14.54a70.488 70.488 0 0 0-2.961 5.368 77.516 77.516 0 0 1-4.9-3.427c1.317-1.985 2.75-3.922 4.424-6.019a40.972 40.972 0 0 0 3.437 4.078Zm5.354 4.823a83.75 83.75 0 0 0-1.298 4.652c-1.845-.99-3.57-1.968-5.309-3.039a70.747 70.747 0 0 1 2.518-5.172 52.637 52.637 0 0 0 4.09 3.559Zm-.368-12.342a133.676 133.676 0 0 0-3.842 5.693 35.06 35.06 0 0 1-2.874-4.325c1.785-2.134 3.667-4.23 5.781-6.528.146 1.746.46 3.474.935 5.16Z" fill="#E99800"/></g></svg>