<svg viewBox="0 0 90 90" xmlns="http://www.w3.org/2000/svg"><g fill="none" fill-rule="evenodd"><path fill="#FFF" d="M0 0h90v90H0z"/><g fill-rule="nonzero"><path d="M45.347 9a6.35 6.35 0 0 0-5.596 3.337 6.255 6.255 0 0 0 .334 6.47l2.71-2.685a2.591 2.591 0 0 1-.134-.83 2.665 2.665 0 0 1 2.675-2.655 2.665 2.665 0 0 1 2.675 2.655 2.665 2.665 0 0 1-2.675 2.654 2.644 2.644 0 0 1-.833-.132l-2.706 2.685a6.38 6.38 0 0 0 7.397-.2 6.264 6.264 0 0 0 2.168-7.021A6.336 6.336 0 0 0 45.347 9Z" fill="#34A853"/><path d="M42.825 27.337a9.732 9.732 0 0 0-1.976-5.894l-3.516 3.485a4.975 4.975 0 0 1-.963 6.038l1.911 4.635a9.816 9.816 0 0 0 4.544-8.264Z" fill="#FBBC04"/><path d="M33 32.339h-.092a5.042 5.042 0 0 1-4.773-3.385 4.983 4.983 0 0 1 1.682-5.577 5.076 5.076 0 0 1 5.862-.227l3.481-3.455a9.974 9.974 0 0 0-11.78-.518 9.8 9.8 0 0 0-3.945 11.028c1.27 4.137 5.115 6.965 9.473 6.97.673 0 1.343-.066 2.003-.198L33 32.34Z" fill="#EA4335"/><path d="M45.481 36.348c-2.2-.003-4.39.316-6.497.944l2.786 6.754a15.47 15.47 0 0 1 3.707-.447c7.24.002 13.47 5.079 14.88 12.125 1.41 7.047-2.39 14.101-9.08 16.85-6.688 2.748-14.401.425-18.423-5.55a14.974 14.974 0 0 1 1.888-19.014 15.325 15.325 0 0 1 3.62-2.655l-2.756-6.736c-10.27 4.992-15.133 16.836-11.302 27.53 3.83 10.693 15.135 16.833 26.276 14.271 11.141-2.562 18.572-13.011 17.273-24.287-1.3-11.276-10.917-19.79-22.353-19.79l-.019.005Z" fill="#4285F4"/></g></g></svg>