<svg width="90" height="90" viewBox="0 0 90 90" fill="none" xmlns="http://www.w3.org/2000/svg">
<rect width="90" height="90" fill="black"/>
<path d="M0 0H90V90H0V0Z" fill="url(#paint0_linear_0_19580)"/>
<path fill-rule="evenodd" clip-rule="evenodd" d="M78.4956 44.9667C78.4956 26.5271 63.3939 11.4019 44.9547 11.4019C26.5158 11.4019 11.4138 26.5275 11.4138 44.9667C11.4138 63.4064 26.5154 78.508 44.9547 78.508C63.3939 78.508 78.4956 63.3824 78.4956 44.9667ZM21.4499 23.8056C27.4151 17.2014 36.0549 13.3432 44.9314 13.3432C52.6955 13.3432 60.2934 16.2782 66.0694 21.4624C72.6735 27.4035 76.5082 36.0434 76.5082 44.9435C76.5082 52.6836 73.5968 60.3058 68.3886 66.0814C62.4471 72.6856 53.8076 76.5202 44.9314 76.5202C37.1909 76.5202 29.5691 73.6085 23.7935 68.401C17.1894 62.4599 13.3547 53.82 13.3547 44.9435C13.3547 37.1794 16.2661 29.5576 21.4499 23.8056Z" fill="white"/>
<path d="M15.8874 36.3037L16.6211 35.0017L20.4083 36.919L21.2368 35.4751L35.8414 43.7123L35.4627 44.3989L26.9652 40.2563C30.2317 43.1677 34.2559 46.2687 38.8479 46.2687C44.1497 46.2687 48.4106 42.0789 50.7302 37.6524C51.9378 37.5577 53.145 37.4629 54.3758 37.4629C60.554 37.4629 66.9683 38.6697 72.9105 40.3979L74.9459 40.9897L75.4905 41.132L73.7155 42.6703C68.4369 41.1556 62.9931 39.972 57.501 39.6406L56.8853 40.5163C61.3597 40.8238 65.8333 41.6051 70.1651 42.7411L71.7034 43.1438L72.8161 43.4277L71.0411 44.9424C65.9517 43.5696 60.6731 42.5992 55.3713 42.5756L54.8267 43.2621C60.0581 43.4513 65.1472 44.3981 70.2359 45.6057L68.5788 47.002C63.5609 45.96 58.5191 45.3211 53.3828 45.2499L52.8622 45.96H53.8798C58.0696 45.96 62.3065 46.5758 66.4019 47.4275L67.7747 47.7358L66.0461 49.1797C62.9695 48.5879 59.845 48.2089 56.6965 48.2089C52.5779 48.2089 48.3413 48.9666 44.601 50.7416C49.0511 55.6655 55.1818 59.7601 62.0462 59.7601H62.1167L59.8922 62.2692C51.5599 59.7365 43.8905 55.5235 36.7897 50.5285C32.8839 47.7826 29.2623 44.6113 25.3329 41.889C22.6106 40.0189 19.8412 38.3147 16.9062 36.8236L15.8874 36.3037H15.8874Z" fill="white"/>
<defs>
<linearGradient id="paint0_linear_0_19580" x1="-41.9008" y1="44.99" x2="45.9287" y2="133.133" gradientUnits="userSpaceOnUse">
<stop stop-color="#FFAD01"/>
<stop offset="1" stop-color="#FFAD01"/>
</linearGradient>
</defs>
</svg>
