<svg viewBox="0 0 90 90" xmlns="http://www.w3.org/2000/svg"><g fill="none"><path fill="#FFF" d="M0 0h90v90H0z"/><path d="M73.634 19.677c0-2.986-1.745-4.677-5.114-4.677h-47.4c-3.366 0-5.112 1.705-5.112 4.677v4.53l52.648-.111c3.244 0 4.99-1.56 4.99-4.419" fill="#0C9ED9"/><path d="M16 40.66v29.793C16 73.58 17.746 75 21.115 75H69.01c3.244 0 4.99-1.42 4.99-4.547 0-2.989-1.746-4.546-4.99-4.546H27.73c-1.62 0-2.245-.781-2.245-2.339V49.875h31.182c3.369 0 5.115-1.56 5.115-4.547 0-2.841-1.746-4.546-5.115-4.546L16 40.659Z" fill="#000"/></g></svg>