<svg xmlns="http://www.w3.org/2000/svg" viewBox="0 0 90 90"><rect width="90" height="90" fill="#585049"/><g transform="translate(7 17)"><g transform="translate(34.66)"><line x1="3.21205387" x2="3.21205387" y1="3.34502924" y2="19.2982456" fill="#F18B20"/><path fill="#FC6" d="M3.32659933,22.9005848 C1.53535354,22.9005848 0,21.3567251 0,19.5555556 L0,3.34502924 C0,1.54385965 1.53535354,0 3.32659933,0 C5.11784512,0 6.65319865,1.54385965 6.65319865,3.34502924 L6.65319865,19.2982456 C6.90909091,21.3567251 5.37373737,22.9005848 3.32659933,22.9005848 Z"/></g><g transform="translate(10.04 10.1)"><line x1="3.51851852" x2="14.7777778" y1="3.5380117" y2="15.1169591" fill="#F18B20"/><path fill="#FC6" d="M14.7777778,18.4619883 C14.010101,18.4619883 12.986532,18.2046784 12.4747475,17.4327485 L0.95959596,5.85380117 C-0.31986532,4.56725146 -0.31986532,2.25146199 0.95959596,0.964912281 C2.23905724,-0.321637427 4.54208754,-0.321637427 5.82154882,0.964912281 L17.3367003,12.5438596 C18.6161616,13.8304094 18.6161616,16.1461988 17.3367003,17.4327485 C16.5690236,18.2046784 15.8013468,18.4619883 14.7777778,18.4619883 Z"/></g><g transform="translate(0 35)"><line x1="3.32659933" x2="19.1919192" y1="3.34502924" y2="3.34502924" fill="#F18B20"/><path fill="#FC6" d="M19.1919192,6.69005848 L3.32659933,6.69005848 C1.53535354,6.69005848 0,5.14619883 0,3.34502924 C0,1.54385965 1.53535354,0 3.32659933,0 L19.1919192,0 C20.983165,0 22.5185185,1.54385965 22.5185185,3.34502924 C22.5185185,5.14619883 20.983165,6.69005848 19.1919192,6.69005848 Z"/><g transform="translate(53.48)"><line x1="3.32659933" x2="19.1919192" y1="3.34502924" y2="3.34502924" fill="#F18B20"/><path fill="#FC6" d="M19.1919192,6.69005848 L3.32659933,6.69005848 C1.53535354,6.69005848 0,5.14619883 0,3.34502924 C0,1.54385965 1.53535354,0 3.32659933,0 L19.1919192,0 C20.983165,0 22.5185185,1.54385965 22.5185185,3.34502924 C22.5185185,5.14619883 20.983165,6.69005848 19.1919192,6.69005848 Z"/></g></g><g transform="translate(48.17 10.36)"><line x1="3.26262626" x2="14.2659933" y1="14.3450292" y2="3.28070175" fill="#F18B20"/><path fill="#FC6" d="M3.26262626,17.9473684 C2.49494949,17.9473684 1.47138047,17.6900585 0.95959596,16.9181287 C-0.31986532,15.6315789 -0.31986532,13.3157895 0.95959596,12.0292398 L11.962963,0.964912281 C13.2424242,-0.321637427 15.5454545,-0.321637427 16.8249158,0.964912281 C18.1043771,2.25146199 18.1043771,4.56725146 16.8249158,5.85380117 L5.82154882,16.9181287 C4.7979798,17.4327485 4.03030303,17.9473684 3.26262626,17.9473684 Z"/></g><path fill="#FFF" d="M13.8181818,6.94736842 C13.8181818,9.00584795 13.0505051,10.8070175 11.7710438,11.8362573 C10.4915825,13.122807 8.95622896,13.6374269 6.90909091,13.6374269 C5.11784512,13.6374269 3.32659933,13.122807 2.04713805,11.8362573 C0.767676768,10.5497076 0,9.00584795 0,6.94736842 C0,4.88888889 0.767676768,3.0877193 2.04713805,1.80116959 C3.32659933,0.514619883 5.11784512,0 6.90909091,0 C8.7003367,0 10.2356902,0.514619883 11.7710438,1.80116959 C13.3063973,3.0877193 13.8181818,4.63157895 13.8181818,6.94736842 Z" transform="translate(31.09 30.36)"/></g></svg>