<svg viewBox="0 0 90 90" xmlns="http://www.w3.org/2000/svg" xmlns:xlink="http://www.w3.org/1999/xlink"><defs><path id="a" d="M0 0h14.67v27.287H0z"/></defs><g fill="none" fill-rule="evenodd"><path fill="#004C97" fill-rule="nonzero" d="M0 0h90v90H0z"/><g transform="translate(10 18)"><mask id="b" fill="#fff"><use xlink:href="#a"/></mask><path d="M6.051 24.02a16.39 16.39 0 0 1-.226 1.776c-.114.569-.15.78-.376 1.242h4.477l7.26.036 1.316.071c.79.036.94.036 1.468.142 0-1.1.037-1.384.15-2.769-1.054.639-1.58.816-2.708.816l-1.092.036H8.647c-.264-1.35-.302-1.669-.302-3.942l-.037-4.012V3.018c.037-.605.113-1.171.226-1.775.113-.64.15-.781.376-1.243-.753.035-1.317.071-1.693.071C6.84.071 6.239.035 5.449 0c.226.498.262.675.376 1.243.189.958.226 1.42.226 3.053V24.02Z" fill="#FFF" mask="url(#b)"/></g><path d="M43.473 41.872c0 .563-.075 1.16-.189 1.758-.113.598-.15.774-.379 1.23.796-.034 1.365-.034 1.782-.034.379 0 .948 0 1.668.035-.19-.458-.227-.633-.342-1.231a7.689 7.689 0 0 1-.227-1.758v-8.718c1.365-.141 2.047-.177 3.563-.177 1.289 0 1.63.036 2.73.177v8.719c0 .527-.076 1.125-.189 1.757-.115.598-.19.774-.38 1.231.758-.034 1.327-.034 1.705-.034.418 0 .986 0 1.744.034a5.406 5.406 0 0 1-.379-1.23c-.114-.633-.19-1.231-.19-1.758 0-.316-.037-1.265-.037-2.813V25.666c0-1.617.038-2.074.227-3.023.114-.563.5-.74.69-1.232-.797.036-1.713.072-2.092.072s-1.258-.036-1.979-.072c.191.459.538.598.69 1.232a9.28 9.28 0 0 1 .19 1.758v6.855c-1.061.14-1.593.21-2.124.21-.302 0-.643-.034-1.023-.034-1.099 0-1.781-.035-2.084-.035-.228-.037-.606-.072-1.062-.14V24.4c.038-.597.114-1.16.227-1.758.115-.633.152-.772.342-1.231-.72.036-1.29.036-1.63.036-.417 0-1.024 0-1.82-.036l.012.028a12.56 12.56 0 0 0-.707-.028h-7.026l-1.61.005c-.516.024-1.117-.005-1.117-.005-.736.029-1.251.059-1.618.059-.405 0-.957-.03-1.73-.06.184.406.259.55.332 1.012.183.779.22 1.154.22 2.48v14.602c-2.612-.29-5.04-2.193-5.996-4.733-.59-1.53-.81-3.001-.81-5.28v-5.627c.038-.485.112-.968.22-1.442.112-.52.149-.635.37-1.011-.737.029-1.289.059-1.62.059-.405 0-.992-.03-1.765-.06.22.406.257.55.368 1.012.184.779.22 1.154.22 2.48v4.617c0 2.973.221 4.098 1.067 5.772.81 1.558 2.134 2.943 3.789 3.98 1.693 1.04 3.716 1.647 5.408 1.647.405 0 .736-.03 1.47-.116-.403-.549-.513-1.212-.513-3.059V23.864c.01-.145.031-.285.048-.426 1.076-.284 2.301-.531 3.495-.514.226.003.606 0 1.06.035v18.913c0 .563-.075 1.16-.188 1.758-.114.598-.19.774-.38 1.23.795-.034 1.364-.034 1.782-.034.378 0 .91 0 1.668.035-.19-.458-.265-.633-.38-1.231-.113-.633-.188-1.23-.188-1.758-.039-.176-.039-1.09-.039-2.813V22.924c1.365.035 2.515.07 3.463.176.545.074.886.13 1.194.217.087.594.108 1.155.108 2.349v13.393c0 1.477 0 2.427-.038 2.813m13.645-3.4c-.044.484-.118.966-.221 1.442-.112.462-.148.608-.371 1.012h.592l3.667-.087h.777c1.629 0 4.733.028 5.363.087.126 0 .59.053.93.106v.866c-.04.585-.117 1.167-.228 1.742-.114.593-.152.767-.378 1.22.795-.034 1.361-.034 1.74-.034.416 0 .984 0 1.74.035-.227-.454-.265-.628-.378-1.22-.152-.628-.19-1.22-.228-1.743v-8.57l3.405 6.166.832 1.638c.53 1.115.87 1.777.946 1.952.076.208.151.487.189.8.038.314.038.489.038.942.832-.07 1.438-.07 1.853-.07.492 0 1.21 0 2.194.07l-.151-.21-1.286-1.707c-.19-.245-.757-1.15-1.74-2.754-.359-.57-.7-1.15-1.021-1.741l-2.989-5.26c3.178-.942 4.956-2.928 4.956-5.576 0-1.986-1.098-3.903-2.724-4.878-1.437-.871-2.647-1.115-5.181-1.115-.72 0-1.786 0-2.505.035.228.453.574.627.688 1.22.19.975.228 1.428.228 2.996V38.74c-.655.44-1.021.551-2.041.683-.704.087-3.327.144-4.141.144-.889 0-1.37-.029-2-.057-.112-.375-.147-.462-.147-.924l-.148-1.963-.037-1.242v-4.36h2.74c1.517 0 1.74.059 2.591.579l.148.086v-.692c0-.405 0-.722.074-1.414-.629.115-1.74.201-3.37.201-.963 0-1.296-.03-2.183-.086v-4.244c0-1.558.037-2.107.258-2.54h2.37c1.703 0 2 .03 2.703.174.333.086.482.143 1.073.345 0-.374-.037-.635-.037-.866 0-.288.037-.577.074-1.154-.555.143-1.073.202-2.11.202h-.222l-.963-.029h-2.295c-.704 0-1.148 0-3.259-.057l-.407-.029c.222.375.259.548.37 1.01.185.809.223 1.155.223 2.54V38.47ZM70.124 24.93v-.522c0-.559.039-.977.152-1.22 0-.035 0-.035.038-.105.415-.069.605-.104.832-.104 2.194 0 3.707 1.741 3.707 4.285 0 2.719-1.815 4.739-4.236 4.739h-.493V24.93Zm-31.12 46.294h-1.71c-.246-1.25-.281-1.546-.281-3.652l-.034-3.717v-10.23c.035-.552.105-1.102.21-1.645.105-.592.14-.723.35-1.15-.701.032-1.227.065-1.579.065-.35 0-.912-.033-1.649-.065.21.46.246.624.35 1.15.177.889.212 1.316.212 2.83v15.163a14.79 14.79 0 0 1-.211 1.645c-.105.527-.14.724-.35 1.152h4.175l1.324.032.956.066c.737.033.877.033 1.368.132 0-1.02.035-1.283.14-2.565-.982.59-1.201.755-2.255.755l-1.017.033Zm9.582 0H46.57c-.25-1.25-.285-1.546-.285-3.652l-.036-3.717v-10.23c.036-.56.107-1.085.214-1.645.107-.592.143-.723.358-1.15-.715.032-1.251.065-1.608.065-.357 0-.93-.033-1.679-.065.214.46.25.624.356 1.15.18.889.215 1.316.215 2.83v15.163a14.445 14.445 0 0 1-.214 1.645c-.107.527-.143.724-.357 1.152h4.25l1.625.032.973.066c.75.033.892.033 1.394.132 0-1.02.034-1.283.141-2.565-1 .59-1.222.755-2.293.755l-1.037.033Z" fill="#FFF"/><path d="M69.508 66.117c0-1.646.107-2.898.288-3.557-.649.033-1.153.066-1.477.066-.36 0-.866-.033-1.55-.033.577 1.021.648 1.384.648 2.964v4.942c-.323.164-.43.197-.864.197-4.216 0-7.098-3.985-7.098-9.849 0-5.501 2.414-9.157 6.018-9.157 1.152 0 1.91.264 2.918 1.021-.071-1.252-.109-1.516-.109-2.537v-.197c-3.062.131-5.008.658-6.701 1.877-2.774 2.01-4.612 5.732-4.612 9.388 0 2.129.595 4.14 1.62 5.86-.577.063-1.148.104-1.824.104-.857 0-4.564-.026-5.17-.053-.107-.351-.142-.431-.142-.862l-.143-1.832-.036-1.157v-4.066h2.098c1.463 0 1.677.054 2.497.539l.143.08v-.646c0-.377 0-.673.071-1.32-.606.109-1.676.19-3.245.19-.928 0-.708-.028-1.564-.081v-3.96c0-1.452.036-1.965.25-2.367h2.282c1.64 0 1.926.026 2.603.16.322.081.464.135 1.036.325 0-.35-.037-.594-.037-.809 0-.27.037-.539.071-1.077-.535.134-1.033.19-2.033.19h-.213l-.928-.028h-2.211c-.677 0-1.106 0-3.139-.054l-.392-.027c.214.35.25.512.357.942.178.754.214 1.078.214 2.37v12.52c-.036.404-.107.861-.214 1.347-.108.43-.142.565-.357.942h.57l6.775-.081h.75c1.265 0 2.223.018 2.866.053 2.025 2.508 5.066 4.13 8.434 4.13.937 0 1.55-.098 1.982-.264-.217-.494-.252-.757-.36-3.162-.072-1.713-.072-2.34-.072-3.03m8.25 4.626c-.71.1-1.382.166-2.204.166-.897 0-1.383-.033-2.018-.067-.112-.432-.149-.532-.149-1.065l-.15-2.263-.038-1.43v-5.026h2.766c1.532 0 1.756.067 2.616.665l.15.1v-.798c0-.466 0-.833.074-1.631-.635.133-1.757.233-3.402.233-.97 0-1.307-.033-2.204-.1v-4.892c0-1.797.039-2.429.262-2.929h2.391c1.72 0 2.019.034 2.729.2.336.1.486.166 1.084.4 0-.433-.038-.732-.038-.999 0-.333.038-.665.075-1.33-.561.165-1.084.231-2.13.231h-.225l-.971-.032h-2.317c-.71 0-1.159 0-3.288-.067l-.412-.033c.225.432.262.632.375 1.164.187.932.224 1.332.224 2.929v15.476c-.045.559-.12 1.114-.224 1.664-.113.532-.15.699-.375 1.164h.599l3.699-.1h.785c1.644 0 2.802.034 3.437.1.15 0 .41.034.748.1 0-.232 0-.365.038-.432 0-.1.074-.5.186-1.298l.112-.766.037-.265c-.784.632-1.12.765-2.242.931m-60.954-2.138c-2.59-2.111-3.818-5.133-3.682-9.028.21-6.044 3.15-10.157 7.324-10.157.977 0 1.857.218 2.773.693-.023-.584-.008-1.02.002-1.313.01-.29.025-.727.09-1.31-.264-.072-.397-.072-.797-.072-6.261 0-12.284 5.934-12.507 12.34-.224 6.444 5.094 11.832 12.698 12.815l.313-1.347.346-1.019.05-.147a6.532 6.532 0 0 1-1.964.292c-1.465 0-3.352-.692-4.646-1.748" fill="#FFF"/><path d="M27.072 49.977c-4.375 0-7.431 4.113-7.431 10 0 5.404 2.502 8.76 6.53 8.76 4.23 0 7.302-3.979 7.302-9.46 0-2.865-.831-5.568-2.28-7.416-.898-1.145-2.515-1.884-4.121-1.884m2.28 16.45c-.56.625-1.62 1.031-2.699 1.031-2.09 0-3.426-1.388-4.089-4.244a19.605 19.605 0 0 1-.543-4.612c0-4.735 1.602-7.238 4.632-7.238 2.718 0 4.407 3.114 4.407 8.128 0 3.049-.638 5.641-1.707 6.934" fill="#FFF"/></g></svg>