<svg viewBox="0 0 90 90" xmlns="http://www.w3.org/2000/svg"><g fill="none"><path fill="#FF5C51" d="M0 0v90h90V0z"/><path d="M14.595 70.54v-9.73h12.162v9.73H14.595Zm24.324 0v-9.73H51.08v9.73H38.92Zm24.324 0v-9.73h12.162v9.73H63.243Zm0-17.026V38.919s0-6.081-5.838-6.081c-6.324 0-6.324 6.08-6.324 6.08v14.596H38.92V38.919s0-6.081-6.081-6.081-6.081 6.08-6.081 6.08v14.596H14.595V21.892s.243-2.433 2.432-2.433h15.81s9.244 0 12.163 6.082c2.919-6.082 12.162-6.082 12.162-6.082 18.243 0 18.243 19.46 18.243 19.46v14.595H63.243Z" fill="#FFF"/></g></svg>