<svg viewBox="0 0 90 90" xmlns="http://www.w3.org/2000/svg"><g fill="none" fill-rule="evenodd"><path d="M17.903 42.175c3.07.944 5.81 2.392 8.452 3.936l1.128.667 2.129 1.276.821.487.823.48c.275.157.55.314.827.468l.832.456c3.618 1.942 7.429 3.432 12.036 3.432 5.404 0 10.08-2.542 14.13-5.207l.83-.553 1.21-.825 1.555-1.068.751-.51.735-.486c2.058-1.343 3.918-2.356 5.6-2.553 5.254-.682 13.427 1.266 20.142 4.48L90 90H0V45.195l.32-.153.66-.306c.337-.153.682-.305 1.035-.456l.716-.299c4.597-1.872 10.35-3.335 15.172-1.806Z" fill="#5858E0"/><path d="M0 0h90v46.558c-6.714-3.117-14.984-5.065-20.238-4.383-1.682.225-3.542 1.25-5.6 2.596l-.735.487-1.134.771-1.57 1.077-.812.55-.83.55c-4.05 2.653-8.726 5.17-14.13 5.17-4.445 0-8.216-1.491-11.851-3.436l-.87-.475-.867-.489-.864-.5-.865-.508-2.12-1.253c-3.006-1.765-6.109-3.474-9.611-4.54-4.823-1.529-10.575-.066-15.172 1.807l-.716.298c-.236.1-.467.202-.695.304l-.673.305-.647.306V0Z" fill="#20C58B"/><path d="M19.654 71.201a6.315 6.315 0 0 1-6.324-6.331V25.227a6.315 6.315 0 0 1 6.324-6.331 6.315 6.315 0 0 1 6.324 6.331v39.546c0 3.506-2.821 6.428-6.324 6.428Zm25.297-8.961a6.315 6.315 0 0 1-6.324-6.331v-21.72a6.315 6.315 0 0 1 6.324-6.332 6.315 6.315 0 0 1 6.325 6.331v21.818c0 3.41-2.822 6.234-6.325 6.234Zm25.298 8.961a6.315 6.315 0 0 1-6.325-6.331V25.227a6.315 6.315 0 0 1 6.325-6.331 6.315 6.315 0 0 1 6.324 6.331v39.546c0 3.506-2.822 6.428-6.324 6.428Z" fill="#FFF" fill-rule="nonzero"/></g></svg>