<svg xmlns="http://www.w3.org/2000/svg" viewBox="0 0 90 90"><path fill="#FFF" d="M0 0h90v90H0z"/><path d="M44.844 26H62.85L48.333 50.3c-.873 1.44-.374 3.3 1.184 4.2 1.495.84 3.426.3 4.3-1.14L70.201 26h.187C72.943 26 75 28.1 75 30.68v29.58c0 2.58-2.057 4.74-4.61 4.74h-.376L59.36 48.5l-3.552 6L62.537 65H44.844V51.62l6.604-10.92c.872-1.5.312-3.36-1.183-4.2-1.558-.84-3.49-.36-4.361 1.14l-1.06 1.68V26Zm-25.295 0h.062l10.715 16.5 3.614-6L27.15 26h17.695v13.32L38.303 50.3c-.872 1.44-.374 3.3 1.184 4.2 1.495.84 3.489.3 4.361-1.14l.997-1.74V65H26.838l14.579-24.3c.872-1.5.374-3.36-1.184-4.2a3.267 3.267 0 0 0-4.36 1.14L19.485 65C16.994 64.94 15 62.84 15 60.26V30.68C15 28.1 17.056 26 19.549 26Z" fill="#2970B8"/></svg>