<svg viewBox="0 0 90 90" xmlns="http://www.w3.org/2000/svg"><g fill="none"><path fill="#FFF" d="M0 0h90v90H0z"/><path d="M78.06 48.295 66.525 28.08l-.33-.663c-1.153-2.154-2.8-4.97-5.766-5.965-3.46-1.16-8.238-.165-10.71 3.811l-1.812 2.983-2.966 5.302c-2.306-4.143-3.954-7.29-4.613-8.12-2.471-3.976-7.25-4.97-10.71-3.81-3.13.994-4.613 3.977-5.93 5.965l-11.864 20.71c-3.79 6.628-1.483 15.244 5.108 19.22l.824.498c6.59 3.81 15.158 1.49 19.112-5.137l8.073-14.746c3.13 5.8 6.261 11.433 8.074 14.912C55.652 67.515 60.266 70 65.208 70c2.471 0 4.778-.663 7.085-1.988l.824-.497c6.59-3.811 8.897-12.427 4.942-19.22ZM30.772 59.396c-1.977 3.48-6.261 4.474-9.556 2.651l-.824-.497c-3.46-1.988-4.449-6.296-2.636-9.61L29.29 31.726l.33-.663c.494-.828 1.482-2.65 1.977-2.816.164 0 .494-.166.824-.166.659 0 1.482.166 1.977.994.659.994 3.295 5.8 6.59 11.764L30.773 59.396Zm38.719 2.154-.824.497c-3.295 1.988-7.744.828-9.556-2.485-.33-.663-5.437-9.942-10.215-18.723l4.778-8.947 1.812-2.983c.66-.994 2.142-.994 2.636-.828.495.331 1.483 1.988 1.977 2.817l11.863 20.876c2.142 3.48.989 7.788-2.471 9.776Z" fill="#FD354E"/></g></svg>