<svg viewBox="0 0 90 90" xmlns="http://www.w3.org/2000/svg"><g fill="none"><path fill="#FFF" d="M0 0h90v90H0z"/><path d="M66.417 34.08c-1.007.142-5.323.992-6.762 1.275-1.583.425-16.26 11.754-17.267 14.444-.143.85 0 10.763 0 10.763l8.346.566-.288 2.69c-1.151-.14-8.92 0-13.813 0-2.446 0-9.928.284-12.518.142l.288-2.549c1.583.142 4.029-.141 5.467-.566 1.44-.425 2.59-.991 2.59-2.407V49.94c-.575-1.558-12.805-16.71-15.97-19.118-.864-.283-7.051-.99-8.49-1.274L8.288 27h28.057l-.431 2.407c-1.295.284-7.195.425-8.777.85 4.028 5.806 10.36 13.453 12.374 16.285 1.15-1.557 11.942-9.063 12.23-11.329-1.583-.283-6.619-.99-7.482-.99l-.432-2.55H68l-1.583 2.408Zm2.48 22.694-4.611-1.323 6.872-23.968 10.414 2.987-1.917 3.316-10.758 18.988Zm-6.302 8.503-3.167-.747 2.132-5.188 3.081 1.045 3.018.704-2.089 5.04-2.975-.854Z" fill="#FF0132"/></g></svg>