<svg xmlns="http://www.w3.org/2000/svg" viewBox="0 0 90 90"><path fill="#ffe200" fill-rule="nonzero" d="M0 0h90v90H0z"/><path fill="#000" d="M75.231 54.319c1.006 0 2.581 1.137 2.581 3.938 0 2.756-1.138 5.906-1.4 6.606-4.156 9.931-14 15.487-25.725 15.138a26.6 26.6 0 0 1-24.325-15.575c-2.45 0-4.988-1.094-6.956-2.844-1.941-1.677-3.189-4.016-3.5-6.562-.211-1.774-.001-3.572.613-5.25L14.244 47.8c-10.5-8.881 22.313-45.5 32.813-36.312l3.544 3.5 1.969-.831c9.188-3.806 16.625-1.969 16.625 4.113.044 3.194-1.969 6.912-5.206 10.281 1.181 1.05 2.1 2.756 2.625 4.725.438 1.444.569 2.888.612 3.85l.131 4.375 1.313.35c2.45.7 4.2 1.619 5.031 2.538.875.875 1.313 1.75 1.444 2.8.175.831.131 2.275-.962 3.938 0 0 .306.612.569 1.487l.481 1.706zm.175 4.9c.263-1.663-.131-2.319-.612-2.625-.525-.35-1.181-.219-1.181-.219s-.263-1.969-1.094-3.806c-2.406 1.925-5.513 3.281-7.875 3.938a31.94 31.94 0 0 1-10.631 1.181c-2.275-.175-3.806-.875-4.375 1.006 5.25 1.925 10.806 1.094 10.806 1.094.087 0 .219.087.219.175a.24.24 0 0 1-.131.219s-4.244 2.013-11.025-.131c.175 1.619 1.75 2.319 2.45 2.625.963.35 1.969.525 1.969.525 8.4 1.444 16.231-3.369 17.981-4.594.131-.088.219 0 .131.175a2.93 2.93 0 0 1-.175.263c-2.187 2.8-7.962 6.037-15.531 6.037-3.281 0-6.562-1.181-7.787-2.975-1.881-2.8-.088-6.825 3.063-6.431l1.313.175c3.938.438 9.625-.131 14.263-2.319 4.244-1.969 5.862-4.156 5.644-5.95a2.54 2.54 0 0 0-.744-1.444 9.19 9.19 0 0 0-4.025-1.925l-1.663-.437c-.875-.306-1.312-.569-1.4-2.187l-.219-4.375c-.088-1.794-.306-4.288-1.838-5.337-.391-.261-.844-.412-1.312-.437-.481 0-.7.087-.831.087-.875.131-1.4.613-2.056 1.181-1.925 1.619-3.544 1.881-5.381 1.75-1.05 0-2.187-.175-3.5-.262h-.788c-3.062-.175-6.3 2.45-6.869 6.212-.744 5.206 3.019 7.875 4.112 9.45.131.219.306.438.306.744s-.219.525-.437.744a13.39 13.39 0 0 0-2.319 14.044c2.713 6.431 11.244 9.45 19.513 6.694a20.39 20.39 0 0 0 8.006-4.944c2.188-2.319 3.5-4.812 4.025-7.919h0zM61.581 43.075c-.394-.481-.7-1.312-.875-2.231-.394-1.663-.35-2.888.613-3.062.962-.131 1.444.875 1.75 2.538.262 1.137.219 2.188 0 2.756h-1.488 0zm-8.312 1.313c-.83-.405-1.746-.6-2.669-.569-1.531.087-2.888.788-3.238.744-.175 0-.262-.087-.262-.219-.087-.263.35-.744.831-1.094 1.4-1.006 3.238-1.225 4.769-.569.744.306 1.444.875 1.75 1.444.175.263.219.481.131.612-.175.175-.612 0-1.312-.35h0zm-1.4.787c1.269-.131 2.188.438 2.363.788.131.175.087.263.044.306-.087.131-.306.131-.744.088a5.69 5.69 0 0 0-2.931.306s-.437.175-.656.175c-.121 0-.219-.098-.219-.219 0-.219.175-.437.438-.7a3.24 3.24 0 0 1 1.75-.744h-.044zm6.913 2.975c-.612-.306-.919-.919-.7-1.4.219-.437.875-.569 1.488-.263s.962.919.744 1.356-.875.569-1.531.306zm3.938-3.5c.525 0 .875.613.875 1.313 0 .656-.437 1.181-.875 1.181-.525 0-.919-.569-.875-1.225 0-.7.394-1.269.875-1.269zm-25.9-14.962c-.087.131.044.262.175.175 6.066-4.249 13.637-5.757 20.869-4.156.131 0 .219-.219.088-.306-1.965-1.019-4.132-1.587-6.344-1.662-.088 0-.175-.088-.088-.175.306-.437.788-.875 1.181-1.225.087-.044 0-.219-.088-.219-2.712.175-5.819 1.488-7.612 2.713-.087.087-.175 0-.175-.131.131-.656.569-1.531.831-1.969 0-.087-.087-.219-.175-.131-2.844 1.444-6.081 4.069-8.663 7.087h0zM23.3 44.038c2.89-8.125 7.979-15.289 14.7-20.694 4.9-4.113 10.194-7.044 10.194-7.044s-2.888-3.325-3.763-3.588c-5.294-1.444-16.756 6.519-24.062 16.975-2.975 4.244-7.219 11.813-5.162 15.619.219.481 1.662 1.75 2.406 2.363 1.313-1.838 3.325-3.194 5.688-3.631zm3.938 17.719c3.85-.656 4.856-4.812 4.244-8.969-.744-4.638-3.85-6.256-5.95-6.388-.613 0-1.137 0-1.619.131-3.763.788-5.906 3.981-5.469 8.181.35 3.806 4.2 7 7.744 7.131.35 0 .744 0 1.094-.087h-.044zm1.488-4.812c.175 0 .394-.044.525.087 0 .044.087.175 0 .394-.131.306-.656.744-1.488.744-.787-.088-1.75-.656-1.837-2.187-.044-.7.219-1.619.394-2.1a1.97 1.97 0 0 0-2.275-2.625 1.97 1.97 0 0 0-1.225.875 4.64 4.64 0 0 0-.525 1.225c-.175.438-.437.612-.656.569-.087 0-.175-.087-.262-.262-.219-.613-.044-2.275 1.05-3.5.732-.771 1.789-1.145 2.844-1.006 1.137.131 2.056.788 2.625 1.881.744 1.444.044 2.931-.35 3.85l-.087.262c-.262.613-.262 1.094-.044 1.444.175.306.438.438.875.438l.438-.044v-.044z"/></svg>