<svg viewBox="0 0 90 90" xmlns="http://www.w3.org/2000/svg"><g fill="none"><path d="M0 18v64l13.524-13.481L81 68.502a9.007 9.007 0 0 0 9-9.002V18a9 9 0 0 0-9-9H9a9 9 0 0 0-9 9Z" fill="#00C65E"/><path d="M19.845 23.12c.23.172.594.518.786.806.326.48.345 1.364.383 15.23.02 13.442 0 14.786-.287 15.363-.46.883-1.226 1.382-2.222 1.44-1.016.057-2.05-.557-2.414-1.46-.192-.48-.25-3.648-.25-15.248 0-13.961.02-14.672.365-15.248.728-1.248 2.452-1.652 3.64-.884Zm12.26.576c1.916.921 1.992 4.032.115 5.127-1.302.768-3.314.307-4.06-.922-.441-.71-.537-1.997-.23-2.823.23-.576.9-1.267 1.474-1.498.632-.269 2.012-.21 2.701.116Zm14.041 4.897c.345.326.403.595.403 2.093v1.728h2.394c2.625 0 3.238.173 3.812 1.057.805 1.21.115 3.187-1.226 3.533-.364.096-1.551.173-2.624.173-1.054 0-2.011.038-2.126.115-.096.058-.173 2.785-.154 6.741.02 6.433.039 6.625.422 7.01.479.499 1.839.614 3.256.268 1.226-.288 1.8-.172 2.548.461.46.384.632.71.69 1.306.172 1.978-1.954 3.207-5.402 3.169-3.104-.038-5.249-1.19-6.207-3.322-.46-.999-.46-1.095-.517-8.316-.038-4.014-.096-7.317-.134-7.355-.038-.058-.709-.077-1.456-.096-1.226 0-1.456-.058-1.858-.461-.383-.384-.44-.595-.364-1.172.096-.576.632-1.19 3.333-3.86 1.762-1.747 3.41-3.264 3.659-3.399.536-.269 1.015-.173 1.551.327ZM69.9 32.299c1.839.442 3.697 1.517 5.057 2.92 2.7 2.803 4.042 8.776 2.299 10.274-.69.614-1.533.672-8.544.672l-7.05-.02.116.673c.306 1.651 1.839 3.341 3.658 4.033 2.088.787 5.46.576 7.931-.519 1.264-.557 1.667-.634 2.318-.403 1.417.48 2.069 2.247 1.264 3.437-.747 1.133-3.812 2.516-6.168 2.804-3.774.461-7.107-.096-9.578-1.575-2.337-1.42-4.138-4.11-4.77-7.201-.364-1.786-.287-5.531.153-7.202.747-2.823 2.701-5.512 4.923-6.721 1.859-1.018 3.64-1.422 5.92-1.364 1.11.038 2.222.115 2.47.192Zm-37.89.365c1.34.903 1.321.653 1.321 11.407 0 11.062.02 10.87-1.456 11.58-.957.48-1.82.442-2.643-.095-1.15-.75-1.13-.596-1.13-11.446 0-9.468.019-9.967.364-10.582.728-1.248 2.375-1.651 3.543-.864Z" fill="#FFF"/><path d="M65.379 37.023c-1.705.557-2.835 1.652-3.41 3.284-.555 1.537-.958 1.44 5.287 1.421h5.575l-.096-.614c-.517-3.169-4.1-5.147-7.356-4.09Z" fill="#00C65E"/></g></svg>