<svg xmlns="http://www.w3.org/2000/svg" viewBox="0 0 90 90"><path fill="#FFF" d="M0 0h90v90H0z"/><path d="M20.398 69h-5.093C12.387 69 10 66.637 10 63.749v-6.145c0-2.888 2.387-5.252 5.305-5.252h5.093c2.918 0 5.305 2.364 5.305 5.252v6.145c0 2.888-2.387 5.251-5.305 5.251Zm-5.093-14.547c-1.75 0-3.183 1.418-3.183 3.15v6.146c0 1.733 1.432 3.15 3.183 3.15h5.093c1.75 0 3.183-1.417 3.183-3.15v-6.145c0-1.733-1.432-3.151-3.183-3.151h-5.093ZM74.695 69h-5.093c-2.918 0-5.305-2.363-5.305-5.252v-6.144c0-1.733-1.432-3.151-3.183-3.151h-5.093c-1.75 0-3.183 1.418-3.183 3.15v6.145c0 2.889-2.387 5.252-5.305 5.252H42.44c-2.918 0-5.305-2.363-5.305-5.252v-6.144c0-1.733-1.432-3.151-3.183-3.151H28.86c-2.917 0-5.305-2.363-5.305-5.252v-22.95c0-2.888 2.388-5.251 5.305-5.251h5.093c2.918 0 5.305 2.363 5.305 5.252v22.95c0 1.732 1.433 3.15 3.183 3.15h5.093c1.75 0 3.183-1.418 3.183-3.15v-22.95c0-2.889 2.388-5.252 5.305-5.252h5.093c2.918 0 5.305 2.363 5.305 5.252v22.95c0 1.732 1.432 3.15 3.183 3.15h5.093c2.918 0 5.305 2.363 5.305 5.252v6.144C80 66.637 77.613 69 74.695 69ZM56.048 52.352h5.093c2.917 0 5.305 2.363 5.305 5.252v6.144c0 1.733 1.432 3.151 3.183 3.151h5.092c1.751 0 3.184-1.418 3.184-3.15v-6.145c0-1.733-1.433-3.151-3.184-3.151H69.63c-2.918 0-5.305-2.363-5.305-5.252v-22.95c0-1.732-1.433-3.15-3.183-3.15h-5.093c-1.75 0-3.183 1.418-3.183 3.15v22.95c0 2.889-2.387 5.226-5.305 5.226h-5.093c-2.918 0-5.305-2.363-5.305-5.252v-22.95c0-1.733-1.433-3.15-3.183-3.15h-5.093c-1.75 0-3.183 1.417-3.183 3.15v22.95c0 1.733 1.432 3.151 3.183 3.151h5.093c2.918 0 5.305 2.363 5.305 5.252v6.144c0 1.733 1.432 3.151 3.183 3.151h5.093c1.75 0 3.183-1.418 3.183-3.151v-6.17c0-2.89 2.387-5.226 5.305-5.226v.026Z" fill="#FF0021"/></svg>