<svg viewBox="0 0 90 90" xmlns="http://www.w3.org/2000/svg"><g fill="none" fill-rule="evenodd"><path fill="#FFF" d="M0 0h90v90H0z"/><g fill-rule="nonzero"><path d="M47.39 13.201c0 .05.051.05 0 .1H44.7v-.1h2.69Z" fill="#000"/><path d="M43.229 13.251h2.69c8.272.603 14.616 4.523 18.93 11.508 2.08 3.467 3.197 7.387 3.146 11.457.101 1.96-1.32 3.668-3.299 3.87a3.59 3.59 0 0 1-4.01-2.815 9.164 9.164 0 0 1-.151-1.658c-.457-8.744-7.968-15.477-16.799-14.975-7.46.402-13.702 5.83-14.92 13.166a12.902 12.902 0 0 0-.203 2.412c.101 2.06-1.523 3.769-3.604 3.87h-.152c-2.03 0-3.705-1.609-3.705-3.619v-.351c0-4.825 1.624-9.448 4.517-13.317 4.162-5.578 9.795-8.744 16.748-9.497l.812-.05ZM49.978 72.9H36.174c-2.131 0-3.603-1.156-4.11-3.016-.508-2.06.812-4.17 2.892-4.673.203-.05.406-.1.66-.1h28.167c2.03 0 3.501 1.005 4.009 2.814a3.808 3.808 0 0 1-2.588 4.773c-.305.101-.66.151-.965.151-4.06.05-8.17.05-12.23.05h-2.03Zm-.05-11.006H35.92c-1.827 0-3.451-1.256-3.857-3.065-.406-1.759.507-3.568 2.182-4.372a3.691 3.691 0 0 1 1.624-.402h28.268c2.182.1 3.857 1.86 3.806 4.02-.05 2.06-1.725 3.669-3.806 3.77-4.77.05-9.49.05-14.21.05Zm0-11.004H35.97c-2.182.05-3.958-1.71-4.009-3.87v-.05c0-2.11 1.726-3.87 3.857-3.87h28.167c2.182 0 3.907 1.76 3.907 3.87 0 1.809-1.268 3.367-3.045 3.769-.304.05-.609.1-.913.1l-14.007.05Z" fill="#000"/><path d="M24.857 54.357c2.132 0 3.857 1.658 3.857 3.769 0 2.11-1.725 3.819-3.857 3.869-2.131 0-3.857-1.759-3.857-3.82 0-2.16 1.726-3.818 3.857-3.818Zm0-11.005a3.86 3.86 0 0 1 3.857 3.769c0 2.11-1.725 3.819-3.857 3.869-2.131 0-3.857-1.709-3.857-3.82 0-2.11 1.776-3.818 3.857-3.818Zm0 22.01c2.132 0 3.857 1.708 3.857 3.819 0 2.11-1.725 3.819-3.857 3.819C22.726 72.95 21 71.241 21 69.13c0-2.11 1.776-3.768 3.857-3.768Z" fill="#02A3F4"/></g></g></svg>