<svg viewBox="0 0 90 90" xmlns="http://www.w3.org/2000/svg"><path d="m45 0 7 38 38 7-38 7-7 38-7-38-38-7 38-7 7-38ZM9.653 51.862l9.707 1.788a27.124 27.124 0 0 0 16.988 16.99l1.788 9.706C23.758 77.571 12.428 66.24 9.653 51.862Zm70.694 0c-2.775 14.379-14.106 25.71-28.485 28.485l1.788-9.707a27.124 27.124 0 0 0 16.99-16.99l9.707-1.788ZM38.137 9.654l-1.789 9.706A27.124 27.124 0 0 0 19.36 36.348l-9.706 1.788C12.429 23.76 23.759 12.43 38.136 9.654Zm13.725 0c14.378 2.774 25.709 14.104 28.484 28.482l-9.706-1.788A27.124 27.124 0 0 0 53.65 19.36l-1.788-9.707Z" fill="#54BEED" fill-rule="evenodd"/></svg>