<svg viewBox="0 0 90 90" xmlns="http://www.w3.org/2000/svg"><g fill="none"><path fill="#FFF" d="M0 0h90v90H0z"/><path d="M56.498 17.95C79.737 33.98 70.015 70.992 45.353 75c31.538 0 41.972-42.905 11.145-57.05Z" fill="#FFCE26"/><path d="M31.836 17.714c27.508-4.007 38.89 29.704 26.796 45.263 19.92-19.802 4.031-55.164-26.796-45.263Z" fill="#0879B8"/><path d="M15.711 33.98c13.517-20.038 41.736-7.779 44.581 12.495 3.32-24.753-29.878-38.662-44.58-12.494Z" fill="#069B4F"/><path d="M15 49.068c3.32-20.745 30.353-22.867 40.312-8.25C47.25 20.071 15.474 22.664 15 49.067Z" fill="#CB2034"/></g></svg>