<svg xmlns="http://www.w3.org/2000/svg" viewBox="0 0 90 90" fill-rule="evenodd"><path fill="#fff" opacity="0" d="M0 0h90v90H0z"/><path fill="#0097b6" fill-rule="nonzero" d="M50.547 89.775c10.41-1.479 19.217-5.794 26.333-12.891 7.099-7.115 11.414-15.92 12.894-26.328.299-2.078.299-9.017 0-11.095-1.48-10.408-5.813-19.231-12.894-26.328C69.941 6.213 61.327 1.899 51.34.367 49.121.032 42.938-.127 40.684.12 30.133 1.212 20.515 5.755 13.117 13.134 6.036 20.231 1.703 29.054.224 39.462c-.14.97-.214 2.998-.224 5.097v.901c.009 2.099.084 4.127.224 5.097 1.48 10.408 5.813 19.231 12.894 26.328 7.099 7.079 15.923 11.412 26.333 12.891.97.14 2.999.214 5.098.224h.901c2.099-.009 4.128-.084 5.098-.224zM38.07 85.51c-8.759-1.609-15.996-5.376-22.136-11.495-6.228-6.243-9.962-13.511-11.59-22.566-.46-2.547-.46-10.363 0-12.91 1.628-9.09 5.361-16.323 11.59-22.566 5.432-5.412 11.767-9.019 19.128-10.859 1.557-.389 4.388-.884 5.839-1.026 1.433-.141 7.113-.106 8.582.053 12.121 1.362 23.021 8.011 29.78 18.198 3.645 5.518 5.91 11.814 6.6 18.428.283 2.759.106 8.683-.354 11.124-1.026 5.571-2.955 10.593-5.768 15.015-6.795 10.699-17.978 17.65-30.541 18.958-2.76.283-8.688.106-11.13-.354zm26.217-9.119c6.253-3.804 11.344-9.492 14.479-16.202 3.294-7.009 4.245-15.656 2.607-23.387-.986-4.737-3.241-9.88-5.936-13.666l-.599-.828-8.772 9.422-8.913 9.404c-.088 0-2.078-3.364-4.439-7.484l-4.404-7.484c-.07 0-2.959 3.434-6.412 7.608L35.1 41.98l-.493.581-3.47-5.301-.645-.972-.31-.465c-1.475-2.208-2.598-3.823-2.656-3.793-.053.009-3.976 5.653-8.094 11.608l-.495.716-8.762 12.754c-.229.335-.194.493.229 1.497 5.055 12.081 15.501 20.463 28.253 22.682 8.754 1.515 18.019-.247 25.629-4.896z"/></svg>