<svg viewBox="0 0 90 90" xmlns="http://www.w3.org/2000/svg"><g fill="#0FD297"><path d="M49.643 52.969c1.067 1.487 2.134 2.975 3.415 4.356 2.242 2.55 4.803 4.569 8.112 5.632 1.814.53 3.629.743 5.55.956.107 0 .214 0 .32.212.96 1.913 1.495 3.826 1.281 5.95 0 .213 0 .32-.107.532 0 0-.107.106-.107 0-.426-.425-.853-.85-1.28-1.169-1.601-1.169-3.202-1.913-5.23-2.019-2.562-.106-4.803 1.488-5.764 3.932-.747 2.019-.747 4.037-.213 6.162 0 .107 0 .213.107.32v.105c-.748-.212-1.495-.637-2.135-1.062a11.299 11.299 0 0 1-2.882-3.082c-.107-.212 0-.318 0-.53a29.027 29.027 0 0 0 1.601-4.25c.854-2.976.747-5.951 0-8.82-.64-2.338-1.6-4.463-2.561-6.694-.107-.319-.214-.425-.107-.531-.214-.107-.107-.107 0 0Z"/><path d="M45.16 80.064c0 .106-.213.106-.32 0-.96-2.763-2.348-5.313-3.522-7.863-.747-1.7-1.494-3.4-1.708-5.313 0-.106.107-.212.214-.106 3.415 1.488 6.937 1.488 10.353 0 .106 0 .213 0 .213.106-.213 1.382-.64 2.657-1.067 3.825-.854 2.338-2.028 4.463-3.096 6.694-.426.85-.747 1.7-1.067 2.657ZM44.733 48.4c.107-.106.32-.106.32 0 .107.319.32.744.427 1.062.96 2.338 2.028 4.57 2.989 6.907.32.744.533 1.381.854 2.125.107.213.107.319-.214.425-2.775 1.063-5.55 1.063-8.325 0-.213-.106-.32-.212-.213-.425.853-2.55 2.028-4.888 2.988-7.331.427-.957.854-1.913 1.174-2.763Zm24.869 15.725c0-.106 0-.106 0 0 1.92 0 3.735.213 5.55.531.213 0 .213.213.213.32.427 2.55.32 5.206-.213 7.756-.64 3.081-1.921 5.844-4.056 8.181-3.309 3.613-7.365 5.1-12.168 4.888-4.376-.212-8.218-1.806-11.633-4.569-.214-.212-.214-.319-.214-.531.534-1.7 1.28-3.294 2.135-4.994 0-.106.106-.106.213 0 3.95 4.994 10.567 6.375 15.797 3.188 4.696-2.87 6.724-8.82 4.376-14.77Z"/><path d="M40.357 53.075c-.747 1.7-1.494 3.4-2.134 5.1-1.068 3.188-1.601 6.376-.854 9.776.427 1.806 1.174 3.612 1.92 5.312.108.107.108.213 0 .425-1.173 1.807-2.56 3.188-4.482 4.038-.107.106-.32.106-.534.213 0 0-.106 0-.106-.107.106-.637.32-1.168.32-1.7.213-1.912.107-3.825-.854-5.525-1.174-2.338-3.629-3.506-6.297-2.975-2.135.319-3.95 1.381-5.443 2.869l-.214.212s-.107.106-.107 0c-.213-.743-.213-1.594-.106-2.337.106-1.488.64-2.763 1.28-4.038.107-.213.32-.213.427-.213 1.494-.106 2.989-.318 4.483-.743 2.989-.744 5.55-2.338 7.685-4.463 1.707-1.7 3.095-3.613 4.59-5.525.213-.213.32-.319.426-.319 0-.212.107-.106 0 0Z"/><path d="M14.528 62.744c-.107 0-.214-.106-.107-.212 1.921-2.231 3.416-4.675 5.123-7.013 1.068-1.488 2.242-2.975 3.736-4.144.107-.106.214 0 .214.106.426 3.72 2.134 6.694 5.23 8.926.106.106.106.212 0 .212-1.282.532-2.562.744-3.843.957-2.455.318-4.91.425-7.365.743-1.067.107-2.027.32-2.988.425Zm27.43-16.15c.214 0 .32.212.214.319-.214.318-.427.637-.747.85l-4.483 6.056c-.427.638-.96 1.169-1.388 1.7-.213.213-.32.213-.533 0-2.349-1.912-3.736-4.25-4.163-7.225 0-.319 0-.319.32-.425 2.562-.532 5.23-.744 7.898-1.063.961 0 1.922-.106 2.882-.212ZM40.677 75.92c0-.106.107 0 .214 0 .854 1.7 1.6 3.294 2.134 4.994.107.212-.106.319-.213.425-2.028 1.7-4.27 2.869-6.831 3.719-2.988.956-6.084 1.275-9.179.531-4.696-1.062-8.112-3.825-10.353-8.075-2.028-3.932-2.561-8.075-1.814-12.326 0-.212.106-.319.32-.319a45.679 45.679 0 0 1 5.336-.637c.107 0 .107.106.107.106-2.348 5.95-.32 12.326 5.123 15.194 5.017 2.55 11.1 1.382 15.156-3.612Zm-.32-38.89c-1.067-1.487-2.134-2.974-3.415-4.356-2.242-2.55-4.803-4.568-8.112-5.631-1.814-.531-3.629-.744-5.55-.957-.107 0-.214 0-.32-.212-.96-1.806-1.494-3.719-1.281-5.844 0-.212 0-.319.107-.531 0 0 .107-.106.107 0 .426.425.853.85 1.28 1.169 1.601 1.168 3.202 1.912 5.23 2.019 2.562.106 4.803-1.488 5.764-3.932.747-2.019.747-4.038.213-6.163 0-.106 0-.212-.107-.318v-.107c.748.213 1.495.638 2.135 1.063a11.307 11.307 0 0 1 2.882 3.081c.107.213 0 .319 0 .531a29.008 29.008 0 0 0-1.601 4.25c-.854 2.976-.747 5.95 0 8.82.64 2.337 1.6 4.462 2.561 6.694a.801.801 0 0 1 .107.425c.107.106 0 .106 0 0Z"/><path d="M44.733 9.936c0-.106.214-.106.32 0 .961 2.763 2.348 5.313 3.523 7.863.747 1.7 1.494 3.4 1.707 5.313 0 .106-.106.212-.213.106-3.416-1.488-6.938-1.488-10.353 0-.107 0-.214 0-.214-.106.214-1.382.64-2.657 1.068-3.825.853-2.338 2.028-4.463 3.095-6.694.427-.85.747-1.7 1.067-2.657Zm.427 31.77c-.106.107-.32.107-.32 0-.107-.318-.32-.743-.427-1.062-.96-2.338-2.028-4.569-2.988-6.907-.32-.743-.534-1.381-.854-2.125-.107-.212-.107-.319.213-.425 2.775-1.062 5.55-1.062 8.325 0 .214.106.32.213.214.425-.854 2.55-2.028 4.888-2.989 7.332-.427.85-.854 1.806-1.174 2.762ZM20.291 25.874c0 .107 0 .107-.106.107a47.484 47.484 0 0 1-5.444-.638c-.213 0-.213-.213-.213-.319-.427-2.55-.32-5.206.213-7.756.64-3.082 1.922-5.844 4.056-8.182 3.309-3.613 7.365-5.1 12.168-4.888 4.376.213 8.218 1.807 11.634 4.57.213.212.32.318.213.53-.534 1.7-1.28 3.295-2.135 4.995 0 .106-.106.106-.213 0-3.95-4.994-10.567-6.376-15.797-3.188-4.696 2.869-6.724 8.82-4.376 14.77Z"/><path d="M49.536 36.925c.747-1.7 1.494-3.4 2.135-5.1 1.067-3.188 1.6-6.375.854-9.776-.427-1.806-1.174-3.612-1.922-5.312-.106-.107-.106-.213 0-.425 1.175-1.807 2.562-3.188 4.483-4.038.107-.106.32-.106.534-.213 0 0 .107 0 .107.107-.107.637-.32 1.168-.32 1.7-.214 1.912-.107 3.825.853 5.525 1.174 2.338 3.63 3.506 6.298 2.975 2.134-.319 3.949-1.381 5.443-2.869l.213-.212s.107-.107.107 0c.214.744.214 1.594.107 2.337-.107 1.488-.64 2.763-1.281 4.038-.107.212-.32.212-.427.212-1.494.107-2.989.32-4.483.744-2.988.744-5.55 2.338-7.684 4.463-1.708 1.7-3.096 3.613-4.59 5.525-.213.213-.213.319-.427.319 0 .212 0 .106 0 0Z"/><path d="M75.365 27.256c.107 0 .214.106.107.213-1.921 2.23-3.415 4.675-5.123 7.012-1.067 1.488-2.241 2.975-3.736 4.144-.106.106-.213 0-.213-.106-.427-3.719-2.135-6.694-5.23-8.925-.107-.107-.107-.213 0-.213 1.28-.531 2.561-.744 3.842-.956 2.455-.319 4.91-.425 7.365-.744 1.067-.106 2.028-.212 2.988-.425Zm-27.43 16.151c-.213 0-.32-.213-.213-.32.213-.318.427-.637.747-.85l4.483-6.056c.426-.637.96-1.169 1.387-1.7.214-.212.32-.212.534 0 2.348 1.913 3.735 4.25 4.162 7.225 0 .32 0 .32-.32.426-2.561.53-5.23.743-7.898 1.062-.854 0-1.921.106-2.882.213Zm1.281-29.327c0 .106-.107 0-.214 0-.853-1.7-1.6-3.294-2.134-4.994-.107-.212.107-.319.213-.425 2.028-1.7 4.27-2.869 6.831-3.719 2.989-.956 6.084-1.275 9.18-.531 4.695 1.062 8.11 3.825 10.352 8.075 2.028 3.932 2.562 8.076 1.815 12.326 0 .212-.107.318-.32.318a45.678 45.678 0 0 1-5.337.638c-.107 0-.107-.106-.107-.106 2.348-5.95.32-12.326-5.123-15.195-4.91-2.55-11.1-1.38-15.156 3.613Z"/><path d="M54.232 44.894c1.815-.212 3.63-.425 5.55-.744 3.31-.637 6.404-1.806 8.86-4.144 1.387-1.275 2.56-2.762 3.628-4.356.107-.106.107-.212.32-.212 2.135.106 4.056.637 5.764 1.912.107.106.213.213.427.319v.106c-.64.213-1.174.319-1.708.532-1.708.85-3.309 1.912-4.27 3.506-1.387 2.231-1.173 4.887.534 6.906 1.388 1.7 3.202 2.657 5.23 3.294.107 0 .214.106.32.106 0 0 .107 0 .107.107-.533.531-1.28.956-2.028 1.275-1.28.637-2.775.85-4.162.956-.214 0-.32-.106-.427-.319a22.96 22.96 0 0 0-2.882-3.506c-2.134-2.231-4.803-3.613-7.685-4.356-2.348-.638-4.696-.957-7.044-1.17h-.427c-.213-.105-.213-.212-.107-.212Z"/><path d="M75.686 62.32c.106.106 0 .212-.107.212-2.882-.531-5.764-.531-8.645-.85-1.922-.212-3.736-.425-5.55-1.169-.107 0-.107-.212 0-.212 3.095-2.231 4.802-5.207 5.123-8.926 0-.106.106-.212.213-.106 1.067.85 2.028 1.807 2.775 2.87 1.494 1.912 2.882 4.037 4.27 5.95.64.743 1.173 1.487 1.92 2.23ZM47.828 46.807c-.106-.107 0-.32.214-.32.427.107.747.107 1.174.107 2.455.319 5.016.531 7.471.85l2.242.319c.213 0 .32.106.32.425-.427 2.975-1.815 5.313-4.163 7.225-.213.213-.32.106-.533-.106-1.708-2.019-3.202-4.144-4.803-6.27l-1.922-2.23Zm26.15-13.601c-.107 0-.107-.106-.107-.212 1.067-1.488 2.135-2.976 3.309-4.357.213-.212.32-.106.427 0 2.455.956 4.696 2.232 6.617 4.038 2.348 2.125 4.163 4.569 5.017 7.65 1.494 4.57.747 8.926-1.922 12.963-2.348 3.613-5.763 6.163-9.819 7.757-.213.106-.32.106-.427-.106-1.174-1.382-2.241-2.763-3.202-4.357 0-.106 0-.106.107-.106 6.404-.956 10.887-5.95 10.673-12.007-.213-5.525-4.27-10.307-10.673-11.263ZM35.768 45c-1.815.213-3.63.425-5.55.744-3.31.637-6.404 1.806-8.86 4.144-1.387 1.275-2.56 2.762-3.628 4.356-.107.106-.107.213-.32.213-2.135-.107-4.056-.638-5.764-1.913-.107-.106-.213-.213-.427-.319v-.106c.64-.212 1.174-.319 1.708-.531 1.814-.744 3.309-1.807 4.376-3.507 1.387-2.231 1.174-4.887-.534-6.906-1.387-1.7-3.202-2.656-5.23-3.294-.106 0-.213-.106-.32-.106 0 0-.107 0-.107-.107.534-.53 1.281-.956 2.028-1.275 1.281-.637 2.775-.85 4.163-.956.213 0 .32.106.427.319a22.959 22.959 0 0 0 2.882 3.506c2.134 2.232 4.803 3.613 7.684 4.357 2.349.637 4.697.956 7.045 1.168h.427c.106.107.106.213 0 .213Z"/><path d="M14.421 27.574c-.107-.106 0-.212.107-.212 2.882.531 5.763.531 8.645.85 1.921.212 3.736.425 5.55 1.169.107 0 .107.212 0 .212-3.095 2.232-4.803 5.207-5.123 8.926 0 .106-.107.212-.213.106-1.068-.85-2.028-1.806-2.775-2.869-1.495-1.913-2.882-4.038-4.27-5.95-.747-.638-1.28-1.382-1.92-2.232Zm27.751 15.62c.106.106 0 .319-.214.319-.427-.107-.747-.107-1.174-.107-2.455-.319-5.016-.531-7.471-.85l-2.242-.318c-.213 0-.32-.107-.32-.426.427-2.975 1.815-5.312 4.163-7.225.213-.212.32-.106.533.106 1.708 2.02 3.202 4.144 4.803 6.27a9.679 9.679 0 0 1 1.922 2.23Zm-26.15 13.494c.107 0 .107.106.107.213-1.067 1.487-2.135 2.975-3.309 4.356-.213.212-.32.106-.427 0-2.455-.85-4.696-2.231-6.617-4.038-2.348-2.125-4.163-4.569-5.017-7.65C-.735 45 .012 40.644 2.681 36.606c2.348-3.613 5.763-6.163 9.819-7.757.213-.106.32-.106.427.107 1.174 1.381 2.241 2.762 3.202 4.356 0 .106 0 .106-.107.106-6.404.957-10.887 5.95-10.673 12.007.213 5.632 4.376 10.307 10.673 11.263Z"/></g></svg>