<svg viewBox="0 0 90 90" xmlns="http://www.w3.org/2000/svg"><g fill="none"><path fill="#2E3639" d="M0 0h90v90H0z"/><path d="M72.839 53.168H22.003c-.624 0-1.13-.508-1.13-1.135s.506-1.136 1.13-1.136H72.84c.623 0 1.13.509 1.13 1.136 0 .627-.507 1.135-1.13 1.135Zm0 4.304H22.003c-.624 0-1.13-.508-1.13-1.135s.506-1.135 1.13-1.135H72.84c.623 0 1.13.508 1.13 1.135s-.507 1.135-1.13 1.135Z" fill="#FF6740"/><path fill="#FF6740" d="M64.518 56.195v7.591l3.234-1.882 3.237 1.882v-7.589h-6.47z"/><path fill="#272B30" d="M75.104 32.205H66.6v4.736h8.503v-4.734z"/><path d="M79.67 38.146c-.04-.038-.083-.071-.125-.108-.974-.85-1.8-1.857-2.445-2.98l-.017-.036h-.002a11.507 11.507 0 0 1-1.39-4.172c-.008-.091-.02-.18-.03-.272v-.017a2.945 2.945 0 0 0-.63-1.407l-.093-.105A20.123 20.123 0 0 0 64.7 22.844a12.808 12.808 0 0 1 1.564-6.761.733.733 0 0 0-.012-.725.725.725 0 0 0-.629-.356h-.05a26.41 26.41 0 0 0-13.45 6.462 26.741 26.741 0 0 0-5.503 6.908 24.718 24.718 0 0 0-14.015-2.835 24.554 24.554 0 0 0-8.042 2.144c-8.04 3.691-13.782 11.556-14.489 20.832-.05.64-.075 1.29-.075 1.94v6.274a10.76 10.76 0 0 0 5.47 9.375 10.578 10.578 0 0 0 4.944 1.366H36.27a3.119 3.119 0 0 1 .547.005c.04.002.08.004.123.01a3.757 3.757 0 0 1 3.295 3.303c.022.147.03.297.027.446l-.002.07v.008a3.788 3.788 0 0 0 1.772 3.124 3.73 3.73 0 0 0 3.678.148 3.765 3.765 0 0 0 2.036-3.235v-.21c0-1.285-.212-2.523-.604-3.67a11.294 11.294 0 0 0-2.744-4.373 11.2 11.2 0 0 0-7.892-3.253H23.285c-.03.004-.063.004-.096.004-.031 0-.064 0-.097-.004-3.076-.05-5.543-2.57-5.542-5.662a5.68 5.68 0 0 1 1.651-4.008 5.625 5.625 0 0 1 3.988-1.66h50.41a2.937 2.937 0 0 0 2.787-2.038l.038-.136a2.94 2.94 0 0 1 .978-1.43l.007-.004c.036-.03.073-.059.112-.085a1.92 1.92 0 0 1 .159-.107 5.81 5.81 0 0 0 1.992-6.568l-.002.003Zm-6.733-2.26a.725.725 0 0 1-.338-.086 3.917 3.917 0 0 0-2.748-.454 3.864 3.864 0 0 0-1.149.417l-.015.012a.236.236 0 0 0-.062.035.71.71 0 0 1-.91-.291.718.718 0 0 1 .196-.94l.07-.042a5.372 5.372 0 0 1 5.28 0l.07.043a.714.714 0 0 1-.394 1.306Z" fill="#F1F1F1"/><path d="M79.67 38.146c-.04-.038-.083-.071-.125-.108-.974-.85-1.8-1.857-2.445-2.98l-.017-.036h-.002a11.507 11.507 0 0 1-1.39-4.172c-.008-.091-.02-.18-.03-.272v-.017a2.945 2.945 0 0 0-.63-1.407l-.093-.105A20.123 20.123 0 0 0 64.7 22.844a12.808 12.808 0 0 1 1.564-6.761.733.733 0 0 0-.012-.725.725.725 0 0 0-.629-.356h-.05a26.41 26.41 0 0 0-13.45 6.462 26.741 26.741 0 0 0-5.503 6.908 24.718 24.718 0 0 0-14.015-2.835 24.554 24.554 0 0 0-8.042 2.144c-8.04 3.691-13.782 11.556-14.489 20.832-.05.64-.075 1.29-.075 1.94v6.274a10.76 10.76 0 0 0 5.47 9.375 10.578 10.578 0 0 0 4.944 1.366H36.27a3.119 3.119 0 0 1 .547.005c.04.002.08.004.123.01a3.757 3.757 0 0 1 3.295 3.303c.022.147.03.297.027.446l-.002.07v.008a3.788 3.788 0 0 0 1.772 3.124 3.73 3.73 0 0 0 3.678.148 3.765 3.765 0 0 0 2.036-3.235v-.21c0-1.285-.212-2.523-.604-3.67a11.294 11.294 0 0 0-2.744-4.373 11.2 11.2 0 0 0-7.892-3.253H23.285c-.03.004-.063.004-.096.004-.031 0-.064 0-.097-.004-3.076-.05-5.543-2.57-5.542-5.662a5.68 5.68 0 0 1 1.651-4.008 5.625 5.625 0 0 1 3.988-1.66h50.41a2.937 2.937 0 0 0 2.787-2.038l.038-.136a2.94 2.94 0 0 1 .978-1.43l.007-.004c.036-.03.073-.059.112-.085a1.92 1.92 0 0 1 .159-.107 5.81 5.81 0 0 0 1.992-6.568l-.002.003Zm-6.733-2.26a.725.725 0 0 1-.338-.086 3.917 3.917 0 0 0-2.748-.454 3.864 3.864 0 0 0-1.149.417l-.015.012a.236.236 0 0 0-.062.035.71.71 0 0 1-.91-.291.718.718 0 0 1 .196-.94l.07-.042a5.372 5.372 0 0 1 5.28 0l.07.043a.714.714 0 0 1-.394 1.306Z" fill="#E6E6E6"/><path d="M46.699 28.242c1.357 6.559 7.019 11.478 13.8 11.478 3.992 0 7.595-1.707 10.161-4.447l-.04-.002c-.265 0-.522.025-.769.077a3.738 3.738 0 0 0-1.149.415l-.015.012a.212.212 0 0 0-.064.037.71.71 0 0 1-.69-.034.717.717 0 0 1-.024-1.198l.071-.043a5.363 5.363 0 0 1 3.77-.57 14.625 14.625 0 0 0 2.527-5.624 20.088 20.088 0 0 0-9.578-5.5 12.8 12.8 0 0 1 1.565-6.762.733.733 0 0 0-.013-.725.725.725 0 0 0-.629-.356c-.015 0-.032 0-.05.004a26.4 26.4 0 0 0-13.45 6.462 26.742 26.742 0 0 0-5.425 6.776h.002Z" fill="#FF6740"/><path d="M75.934 41.793a26.239 26.239 0 0 0-1.844-.505 32.33 32.33 0 0 0-5.614-.89c-1.259-.105-2.521-.053-3.777.044l-.942.105c-.313.044-.618.12-.93.174-.634.078-1.229.31-1.858.443a13.81 13.81 0 0 1 3.68-1.11 17.231 17.231 0 0 1 3.858-.161c1.285.087 2.56.29 3.808.607 1.247.305 2.46.738 3.619 1.293Zm-.554 1.164a25.164 25.164 0 0 0-1.898-.223 32.27 32.27 0 0 0-5.685-.043c-1.261.084-2.5.324-3.727.607l-.917.245c-.302.091-.595.21-.894.31-.616.173-1.169.49-1.771.716a13.825 13.825 0 0 1 3.476-1.647 17.236 17.236 0 0 1 3.79-.737 21.688 21.688 0 0 1 3.856.035c1.279.115 2.542.362 3.77.737Zm-.087 1.356c-.637.05-1.273.1-1.902.194a32.376 32.376 0 0 0-5.558 1.192c-1.212.355-2.37.858-3.51 1.403l-.84.436c-.276.156-.537.334-.807.5-.566.3-1.037.729-1.578 1.08.9-.925 1.923-1.72 3.041-2.362a17.217 17.217 0 0 1 3.544-1.54 21.4 21.4 0 0 1 3.771-.806 18.607 18.607 0 0 1 3.839-.097Z" fill="#272B30"/><path d="M79.545 38.038c-.213-.187-.42-.38-.618-.582a1.883 1.883 0 0 0-.832 2.11 1.87 1.87 0 0 0 1.798 1.375h.028c.012-.08.031-.155.04-.237a5.75 5.75 0 0 0-.29-2.56l-.126-.106Z" fill="#F27BAA"/><path d="M64.054 23.81c0 .09 0 .178.004.268a20.086 20.086 0 0 0-6.113 3.914c-.81-5.622 2.86-10.91 8.39-12.09a14.77 14.77 0 0 0-2.279 7.908h-.002Z" fill="#FFF"/><path d="M44.399 63.096c-.25-.245-.51-.478-.78-.699a8.723 8.723 0 0 0-6.266 5.162 3.765 3.765 0 0 1 2.91 3.673l-.002.072v.008a3.798 3.798 0 0 0 1.772 3.126 3.73 3.73 0 0 0 3.745.113 3.767 3.767 0 0 0 1.97-3.202v-.21c0-1.285-.213-2.523-.605-3.67a11.323 11.323 0 0 0-2.744-4.375v.002Z" fill="#FF6740"/></g></svg>