<svg viewBox="0 0 90 90" xmlns="http://www.w3.org/2000/svg"><path d="M45.046 42.073a20.353 20.353 0 0 1 6.185-8.018c6.404-4.68 15.254-4.137 21.032 1.289 6.877 6.543 8.697 16.767 4.496 25.262a50.69 50.69 0 0 1-10.264 13.562 109.256 109.256 0 0 1-20.692 15.627 1.58 1.58 0 0 1-1.332.105 103.906 103.906 0 0 1-24.148-19.08 36.182 36.182 0 0 1-8.607-14.391c-2.164-7.698.716-16.908 6.777-21.644 8.436-6.587 19.227-4.704 24.882 4.36.566.9 1.059 1.856 1.67 2.928Zm6.07 29.612c-.058-.321-.086-.582-.15-.812-.906-3.408-1.753-6.83-2.757-10.213a2.125 2.125 0 0 1 .654-2.534 4.88 4.88 0 0 0 .829-5.797 5.363 5.363 0 0 0-4.946-2.887 5.195 5.195 0 0 0-4.65 3.522 4.869 4.869 0 0 0 1.577 5.654c.524.37.712 1.06.447 1.643-.974 3.435-1.85 6.894-2.753 10.347a9.3 9.3 0 0 0-.154 1.087l11.902-.01ZM31.695 10.187c1.508 1.412 2.977 2.918 4.59 4.25 1.325 1.095 2.022.98 2.9-.476 1.233-2.045 2.337-4.173 3.405-6.312.14-.281-.136-.916-.405-1.228a3.796 3.796 0 0 1 .409-5.576 3.809 3.809 0 0 1 5.34.55c.045.054.087.11.125.167a3.704 3.704 0 0 1-.32 4.804 1.154 1.154 0 0 0-.264 1.642c1.14 2 2.169 4.068 3.384 6.033.837 1.356 1.4 1.375 2.727.465a12.449 12.449 0 0 0 1.69-1.388c1.006-.991 1.962-2.034 2.92-3.039-1.86-2.519-1.522-5.085.755-6.292a3.81 3.81 0 0 1 5.11 1.525c.504.885.618 1.937.315 2.908a3.685 3.685 0 0 1-1.917 2.218 2.321 2.321 0 0 0-1.456 1.851c-.865 3.552-1.815 7.081-2.7 10.627a1.824 1.824 0 0 1-2.01 1.55c-7.531 0-15.061.008-22.59.024a1.827 1.827 0 0 1-2.017-1.538c-.921-3.625-1.905-7.233-2.795-10.866a1.974 1.974 0 0 0-1.268-1.55A3.745 3.745 0 0 1 25.5 6.285a3.839 3.839 0 0 1 3.243-2.875 3.702 3.702 0 0 1 4.055 2.472c.488 1.376.211 2.558-1.103 4.305Z" fill="#EE4780"/></svg>