<svg viewBox="0 0 90 90" xmlns="http://www.w3.org/2000/svg"><g fill="none" fill-rule="evenodd"><path d="M66.371 56.403c-15.392 15.225-42.87 10.393-42.87 10.393s-4.96-27.113 10.495-42.402c8.523-8.455 22.707-8.105 31.675.7 8.969 8.804 9.255 22.885.7 31.34v-.031Z" fill="#FFF"/><path d="M45 0C20.163 0 0 20.154 0 45s20.163 45 45 45 45-20.154 45-45S69.87 0 45 0Zm21.371 56.403c-15.392 15.225-42.87 10.393-42.87 10.393s-4.96-27.113 10.495-42.402c8.523-8.455 22.707-8.105 31.675.7 8.969 8.804 9.255 22.885.7 31.34v-.031Zm-16.22-29.307-4.388 8.932-9.063 4.355 9.063 4.354 4.42 8.964 4.39-8.964 9.063-4.355-9.064-4.354-4.388-8.932h-.032Z" fill="#000" fill-rule="nonzero"/></g></svg>