<svg viewBox="0 0 90 90" xmlns="http://www.w3.org/2000/svg" xmlns:xlink="http://www.w3.org/1999/xlink"><defs><path d="M90 27.718c0-1.056 0-2.113-.006-3.17-.005-.89-.016-1.78-.04-2.67-.053-1.938-.169-3.894-.518-5.812-.353-1.945-.93-3.755-1.841-5.522a18.584 18.584 0 0 0-3.458-4.705 18.787 18.787 0 0 0-4.76-3.418c-1.789-.9-3.621-1.47-5.59-1.82-1.94-.345-3.918-.459-5.879-.511-.9-.024-1.8-.035-2.7-.04C64.137.043 63.068.044 62 .044L49.587 0h-9.284L28.11.044c-1.071 0-2.142 0-3.214.006-.902.005-1.804.016-2.706.04-1.965.052-3.948.166-5.892.511-1.972.35-3.807.92-5.599 1.82a18.825 18.825 0 0 0-4.77 3.418 18.589 18.589 0 0 0-3.464 4.704C1.553 12.31.975 14.123.62 16.069c-.35 1.916-.465 3.871-.518 5.81-.025.89-.035 1.78-.04 2.67C.054 25.604 0 26.917 0 27.973v21.171l.055 12.143c0 1.058 0 2.116.006 3.174.006.891.016 1.782.04 2.673.054 1.942.17 3.9.52 5.82.354 1.948.932 3.761 1.844 5.53a18.614 18.614 0 0 0 3.465 4.712 18.827 18.827 0 0 0 4.768 3.422c1.793.901 3.63 1.473 5.602 1.823 1.943.345 3.925.46 5.89.512.902.024 1.804.034 2.707.04 1.07.006 2.142.006 3.213.006H62c1.069 0 2.138 0 3.207-.006.9-.006 1.801-.016 2.701-.04 1.962-.053 3.94-.167 5.881-.512 1.968-.35 3.8-.922 5.588-1.823a18.782 18.782 0 0 0 4.76-3.422 18.61 18.61 0 0 0 3.458-4.71c.91-1.771 1.488-3.585 1.842-5.534.348-1.92.464-3.877.517-5.818.024-.89.035-1.782.04-2.673.006-1.058.006-2.116.006-3.174v-33.57" id="a"/><path id="d" d="M0 0h90v89H0z"/><path id="f" d="M0 0h90v89H0z"/><radialGradient cx="45.213%" cy="34.733%" fx="45.213%" fy="34.733%" r="46.751%" gradientTransform="matrix(0 .7564 -1 0 .8 .005)" id="h"><stop stop-color="#FFF" offset="0%"/><stop stop-color="#FFF" stop-opacity=".7" offset="72.318%"/><stop stop-color="#FFF" stop-opacity=".35" offset="100%"/></radialGradient><linearGradient x1="50%" y1="0%" x2="50%" y2="100%" id="c"><stop stop-color="#FFE000" offset="0%"/><stop stop-color="#FFBC00" offset="51.031%"/><stop stop-color="#FF9D00" offset="74.935%"/><stop stop-color="#FF6A00" offset="100%"/></linearGradient></defs><g fill="none" fill-rule="evenodd"><path d="M90 28.718c0-1.056 0-2.113-.006-3.17-.005-.89-.016-1.78-.04-2.67-.053-1.938-.169-3.894-.518-5.812-.353-1.945-.93-3.755-1.841-5.522a18.584 18.584 0 0 0-3.458-4.705 18.787 18.787 0 0 0-4.76-3.418c-1.789-.9-3.621-1.47-5.59-1.82-1.94-.345-3.918-.459-5.879-.511-.9-.024-1.8-.035-2.7-.04-1.07-.007-2.139-.006-3.208-.006L49.587 1h-9.284l-12.193.044c-1.071 0-2.142 0-3.214.006-.902.005-1.804.016-2.706.04-1.965.052-3.948.166-5.892.511-1.972.35-3.807.92-5.599 1.82a18.825 18.825 0 0 0-4.77 3.418 18.589 18.589 0 0 0-3.464 4.704C1.553 13.31.975 15.123.62 17.069c-.35 1.916-.465 3.871-.518 5.81-.025.89-.035 1.78-.04 2.67C.054 26.604 0 27.917 0 28.973v21.171l.055 12.143c0 1.058 0 2.116.006 3.174.006.891.016 1.782.04 2.673.054 1.942.17 3.9.52 5.82.354 1.948.932 3.761 1.844 5.53a18.614 18.614 0 0 0 3.465 4.712 18.827 18.827 0 0 0 4.768 3.422c1.793.901 3.63 1.473 5.602 1.823 1.943.345 3.925.46 5.89.512.902.024 1.804.034 2.707.04 1.07.006 2.142.006 3.213.006H62c1.069 0 2.138 0 3.207-.006.9-.006 1.801-.016 2.701-.04 1.962-.053 3.94-.167 5.881-.512 1.968-.35 3.8-.922 5.588-1.823a18.782 18.782 0 0 0 4.76-3.422 18.61 18.61 0 0 0 3.458-4.71c.91-1.771 1.488-3.585 1.842-5.534.348-1.92.464-3.877.517-5.818.024-.89.035-1.782.04-2.673.006-1.058.006-2.116.006-3.174v-33.57" fill="#FFF" fill-rule="nonzero"/><g transform="translate(0 1)"><mask id="b" fill="#fff"><use xlink:href="#a"/></mask><g mask="url(#b)"><path d="M90 27.718c0-1.056 0-2.113-.006-3.17-.005-.89-.016-1.78-.04-2.67-.053-1.938-.169-3.894-.518-5.812-.353-1.945-.93-3.755-1.841-5.522a18.584 18.584 0 0 0-3.458-4.705 18.787 18.787 0 0 0-4.76-3.418c-1.789-.9-3.621-1.47-5.59-1.82-1.94-.345-3.918-.459-5.879-.511-.9-.024-1.8-.035-2.7-.04C64.137.043 63.068.044 62 .044L49.587 0h-9.284L28.11.044c-1.071 0-2.142 0-3.214.006-.902.005-1.804.016-2.706.04-1.965.052-3.948.166-5.892.511-1.972.35-3.807.92-5.599 1.82a18.825 18.825 0 0 0-4.77 3.418 18.589 18.589 0 0 0-3.464 4.704C1.553 12.31.975 14.123.62 16.069c-.35 1.916-.465 3.871-.518 5.81-.025.89-.035 1.78-.04 2.67C.054 25.604 0 26.917 0 27.973v21.171l.055 12.143c0 1.058 0 2.116.006 3.174.006.891.016 1.782.04 2.673.054 1.942.17 3.9.52 5.82.354 1.948.932 3.761 1.844 5.53a18.614 18.614 0 0 0 3.465 4.712 18.827 18.827 0 0 0 4.768 3.422c1.793.901 3.63 1.473 5.602 1.823 1.943.345 3.925.46 5.89.512.902.024 1.804.034 2.707.04 1.07.006 2.142.006 3.213.006H62c1.069 0 2.138 0 3.207-.006.9-.006 1.801-.016 2.701-.04 1.962-.053 3.94-.167 5.881-.512 1.968-.35 3.8-.922 5.588-1.823a18.782 18.782 0 0 0 4.76-3.422 18.61 18.61 0 0 0 3.458-4.71c.91-1.771 1.488-3.585 1.842-5.534.348-1.92.464-3.877.517-5.818.024-.89.035-1.782.04-2.673.006-1.058.006-2.116.006-3.174v-33.57"/><path d="M0 0h90v89H0z" fill="url(#c)" fill-rule="nonzero"/><mask id="e" fill="#fff"><use xlink:href="#d"/></mask><g opacity=".75" style="mix-blend-mode:soft-light" mask="url(#e)"><path d="M102.56-12.421V101.42H-12.56V-12.42h115.12ZM49.588 0h-9.284L28.11.044c-1.071 0-2.142 0-3.214.006-.902.005-1.804.016-2.706.04-1.965.052-3.948.166-5.892.511-1.972.35-3.807.92-5.599 1.82a18.825 18.825 0 0 0-4.77 3.418 18.589 18.589 0 0 0-3.464 4.704C1.553 12.31.975 14.123.62 16.069c-.35 1.916-.465 3.871-.518 5.81-.025.89-.035 1.78-.04 2.67C.054 25.604 0 26.917 0 27.973v21.17l.055 12.144c0 1.058 0 2.116.006 3.174.006.891.016 1.782.04 2.673.054 1.942.17 3.9.52 5.82.354 1.948.932 3.761 1.844 5.53a18.614 18.614 0 0 0 3.465 4.712 18.827 18.827 0 0 0 4.768 3.422c1.793.901 3.63 1.473 5.602 1.823 1.943.345 3.925.46 5.89.512.902.024 1.804.034 2.707.04l1.606.006H62c1.069 0 2.138 0 3.207-.006.9-.006 1.801-.016 2.701-.04 1.962-.053 3.94-.167 5.881-.512 1.968-.35 3.8-.922 5.588-1.823a18.782 18.782 0 0 0 4.76-3.422 18.61 18.61 0 0 0 3.458-4.71c.91-1.771 1.488-3.585 1.842-5.534.348-1.92.464-3.877.517-5.818.024-.89.035-1.782.04-2.673L90 62.875V27.718c0-1.056 0-2.113-.006-3.17-.005-.89-.016-1.78-.04-2.67-.053-1.938-.169-3.894-.518-5.812-.353-1.945-.93-3.755-1.841-5.522a18.584 18.584 0 0 0-3.458-4.705 18.787 18.787 0 0 0-4.76-3.418c-1.789-.9-3.621-1.47-5.59-1.82-1.94-.345-3.918-.459-5.879-.511-.9-.024-1.8-.035-2.7-.04C64.137.043 63.068.044 62 .044L49.587 0Z" fill="#000" fill-rule="nonzero"/><path d="M102.56-12.421V101.42H-12.56V-12.42h115.12ZM49.588 0h-9.284L28.11.044c-1.071 0-2.142 0-3.214.006-.902.005-1.804.016-2.706.04-1.965.052-3.948.166-5.892.511-1.972.35-3.807.92-5.599 1.82a18.825 18.825 0 0 0-4.77 3.418 18.589 18.589 0 0 0-3.464 4.704C1.553 12.31.975 14.123.62 16.069c-.35 1.916-.465 3.871-.518 5.81-.025.89-.035 1.78-.04 2.67C.054 25.604 0 26.917 0 27.973v21.17l.055 12.144c0 1.058 0 2.116.006 3.174.006.891.016 1.782.04 2.673.054 1.942.17 3.9.52 5.82.354 1.948.932 3.761 1.844 5.53a18.614 18.614 0 0 0 3.465 4.712 18.827 18.827 0 0 0 4.768 3.422c1.793.901 3.63 1.473 5.602 1.823 1.943.345 3.925.46 5.89.512.902.024 1.804.034 2.707.04l1.606.006H62c1.069 0 2.138 0 3.207-.006.9-.006 1.801-.016 2.701-.04 1.962-.053 3.94-.167 5.881-.512 1.968-.35 3.8-.922 5.588-1.823a18.782 18.782 0 0 0 4.76-3.422 18.61 18.61 0 0 0 3.458-4.71c.91-1.771 1.488-3.585 1.842-5.534.348-1.92.464-3.877.517-5.818.024-.89.035-1.782.04-2.673L90 62.875V27.718c0-1.056 0-2.113-.006-3.17-.005-.89-.016-1.78-.04-2.67-.053-1.938-.169-3.894-.518-5.812-.353-1.945-.93-3.755-1.841-5.522a18.584 18.584 0 0 0-3.458-4.705 18.787 18.787 0 0 0-4.76-3.418c-1.789-.9-3.621-1.47-5.59-1.82-1.94-.345-3.918-.459-5.879-.511-.9-.024-1.8-.035-2.7-.04C64.137.043 63.068.044 62 .044L49.587 0Z" fill="#FFF" fill-opacity=".547"/></g><mask id="g" fill="#fff"><use xlink:href="#f"/></mask><g mask="url(#g)" fill-rule="nonzero"><path d="M56.263 109.168 9.13 148.201l-6.677-38.068 47.573-12.73a31.981 31.981 0 0 1-.71-3.121 31.604 31.604 0 0 1-.168-9.922L0 76.522l.887-33.606 52.034 30.368a31.523 31.523 0 0 1 9.19-10.196L24.937 10.054l35.218 1.29 12.13 47.012a31.592 31.592 0 0 1 2.425-.528 31.03 31.03 0 0 1 13.308.525L103.315 0l8.783 50.076-11.92 14.56a31.377 31.377 0 0 1 10.795 18.717c3.003 17.115-8.366 33.436-25.392 36.454a31.52 31.52 0 0 1-3.11.394v-9.787c.475-.052.95-.12 1.427-.205 11.752-2.083 19.6-13.35 17.528-25.164-2.073-11.814-13.28-19.703-25.033-17.62-11.752 2.084-19.6 13.35-17.528 25.164 1.807 10.298 10.553 17.614 20.552 17.942v9.752c-9.075-.203-17.465-4.38-23.154-11.115Z" fill="url(#h)" transform="translate(-7.031 -14.7)"/><path d="M49.231 94.467 2.1 133.5l-6.678-38.068 47.574-12.729a31.981 31.981 0 0 1-.71-3.122 31.604 31.604 0 0 1-.168-9.922l-49.15-7.838.888-33.606L45.89 58.583a31.523 31.523 0 0 1 9.19-10.196L17.904-4.647l35.219 1.29 12.13 47.012a31.592 31.592 0 0 1 2.425-.528 31.03 31.03 0 0 1 13.308.525L96.283-14.7l8.784 50.077-11.921 14.558a31.377 31.377 0 0 1 10.796 18.718c3.002 17.115-8.366 33.437-25.392 36.454a31.52 31.52 0 0 1-3.11.394v-9.787c.475-.052.95-.12 1.427-.205 11.752-2.083 19.6-13.349 17.527-25.163-2.072-11.815-13.28-19.704-25.032-17.62-11.753 2.083-19.6 13.35-17.528 25.163 1.807 10.298 10.553 17.614 20.552 17.943v9.751c-9.075-.203-17.465-4.38-23.155-11.115Z" fill="#FFF" fill-opacity=".1"/></g></g></g></g></svg>