<svg viewBox="0 0 90 90" xmlns="http://www.w3.org/2000/svg"><g fill="none"><path fill="#FFF" d="M0 0h90v90H0z"/><path d="M34.445 9.4c-.199.233-1.195 1.967-2.224 3.867L30.33 16.7l3.585 5.067c1.959 2.8 5.411 7.733 7.669 10.966 2.29 3.267 4.249 5.934 4.382 5.934.332 0 12.947-21.1 12.947-21.6 0-.3-1.295-2.634-3.95-7.134-.499-.866-.665-.933-2.989-.933H49.55l.564.9c.332.533 1.527 2.333 2.69 4l2.058 3.1-2.656 6.4c-1.46 3.533-3.154 7.733-3.751 9.333-1.196 3.067-2.125 5-2.158 4.434 0-.2.664-4.834 1.494-10.3l1.493-9.967-1.062-3.967L47.193 9h-6.208c-4.581 0-6.307.1-6.54.4Z" fill="#12BD9D"/><path d="M68.539 22.067c-2.092.133-4.548.4-5.411.533l-1.594.233-3.519 6.834c-8.2 16.1-11.088 21.666-11.22 21.666-.133 0-1.395-1.866-12.98-19.166C26.843 21.733 28.47 22.9 20.038 22.5l-5.179-.233-.232 7.8c-.133 4.266-.366 11.9-.531 16.933-.166 5.033-.399 11.567-.498 14.5-.1 2.933-.266 8.067-.366 11.4L13 79h16.698l.067-12.433c.066-6.8.1-14 .1-15.967 0-1.933.099-3.467.232-3.4.1.067 1.029 1.533 2.058 3.2 1.029 1.7 3.784 6.233 6.108 10.1l4.282 7 4.78-.1c3.055-.1 4.914-.267 5.146-.5.2-.233 2.357-4.633 4.78-9.833 2.424-5.2 4.516-9.5 4.648-9.567.1-.067.465 5.533.797 12.433.332 6.9.697 13.9.83 15.567l.2 3H78l-.066-1.333c-.034-.734-.698-13.534-1.494-28.434l-1.395-27.066-1.36.066c-.731 0-3.055.167-5.146.334Z" fill="#3199DC"/></g></svg>