<svg xmlns="http://www.w3.org/2000/svg" viewBox="0 0 90 90"><path fill="#3088D4" d="M0 0h90v90H0z"/><path fill="#FFF" d="M45.9 10c-9.05.07-17.75 1.04-22.82 3.35 0 0-10.06 4.45-10.06 19.63 0 3.48-.07 7.64.04 12.05.37 14.85 2.76 29.48 16.63 33.12a52.94 52.94 0 0016.32 1.78c8.03-.44 12.53-2.83 12.53-2.83l-.26-5.76s-5.74 1.79-12.18 1.57c-6.38-.22-13.11-.68-14.15-8.43-.1-.68-.14-1.4-.14-2.17 0 0 6.26 1.51 14.2 1.87 4.86.22 9.4-.28 14.03-.83 8.87-1.04 16.58-6.45 17.55-11.39C79.12 44.2 79 32.98 79 32.98c0-15.18-10.05-19.63-10.05-19.63-5.07-2.3-13.78-3.28-22.82-3.35h-.22zM35.66 21.87c3.77 0 6.62 1.43 8.5 4.3L46 29.2l1.83-3.05c1.9-2.86 4.74-4.3 8.51-4.3 3.26 0 5.88 1.14 7.89 3.35 1.94 2.2 2.9 5.2 2.9 8.95v18.39h-7.36V34.7c0-3.76-1.6-5.67-4.8-5.67-3.54 0-5.31 2.26-5.31 6.74v9.77h-7.32v-9.77c0-4.48-1.77-6.74-5.31-6.74-3.2 0-4.8 1.9-4.8 5.67v17.85h-7.37V34.16c0-3.76.97-6.74 2.91-8.95 2-2.21 4.63-3.34 7.89-3.34z"/></svg>