<svg xmlns="http://www.w3.org/2000/svg" viewBox="0 0 90 90" fill-rule="evenodd" xmlns:v="https://vecta.io/nano"><path fill="#0058cc" d="M0 0h90v90H0z"/><path fill="#fff" d="M56.425 38.966s.103 4.503-3.029 7.563-6.978 2.78-9.48 1.935-5.728-2.953-6.353-7.28 2.2-7.843 2.2-7.843l6.155-7.633 3.585-4.359 3.077-3.799 1.814-2.276c.08-.077.161-.128.241-.167l.059-.03.01-.004a.77.77 0 0 1 .552-.025c.184.062.327.188.417.344l.019.03.017.035a.89.89 0 0 1 .098.294c.082.553.055 2.907.055 2.907l.13 4.881.192 5.635.24 9.792zm7.967-20.668c11.384 8.262 16.604 23.256 11.857 37.28-5.843 17.258-24.57 26.513-41.828 20.671s-26.513-24.57-20.67-41.828c4.755-14.047 18.045-22.79 32.131-22.409l-4.515 5.335c-8.357 1.511-15.572 7.218-18.408 15.596-4.22 12.464 2.853 26.121 15.797 30.503s26.857-2.17 31.077-14.635c2.827-8.35.585-17.235-5.093-23.508l-.348-7.004z"/></svg>