<svg viewBox="0 0 90 90" xmlns="http://www.w3.org/2000/svg"><g fill="none"><path fill="#000" d="M0 0h90v90H0z"/><path d="m32.659 15-2.828 2.823 9.05 8.958v7.584l-.93.847-12.809-12.708-2.747 2.743 12.729 12.789-.768.847h-7.517l-9.05-9.038L15 32.63l10.223 10.205h17.62V25.087zm24.682 0 2.828 2.823-9.05 8.958v7.584l.93.847 12.809-12.708 2.747 2.743-12.729 12.789.768.847h7.517l9.05-9.038L75 32.63 64.777 42.835h-17.62V25.087zM32.659 74.999l-2.828-2.824 9.05-8.957v-7.585l-.93-.847-12.809 12.708-2.747-2.743 12.729-12.788-.768-.847h-7.517l-9.05 9.038L15 57.369l10.223-10.206h17.62v17.749zM57.341 75l2.828-2.823-9.05-8.958v-7.584l.93-.847 12.809 12.708 2.747-2.743-12.729-12.789.768-.847h7.517l9.05 9.038L75 57.37 64.777 47.165h-17.62v17.748z" fill="#FFF"/></g></svg>