<svg viewBox="0 0 90 90" xmlns="http://www.w3.org/2000/svg"><g fill="none"><path d="M54.815 63.295a1.062 1.062 0 0 1-.395.509c-.187.13-.385.196-.595.196h-2.597c-.21 0-.359-.066-.442-.196-.085-.131-.088-.3-.011-.509l3.172-8.524c.077-.207.207-.376.39-.509a.98.98 0 0 1 .588-.196h2.598c.21 0 .36.065.448.196.088.131.094.3.017.509l-.861 2.31h-.902l.83-2.234h-2.241l-3.117 8.372h2.242l.91-2.444h.903l-.938 2.52h.001ZM60.21 64h-.889l.468-2.208h-2.004L56.61 64h-.864l.01-.026 5.496-9.934h.882l-1.922 9.958-.002.002Zm-.248-2.99 1.12-5.381-2.892 5.382h1.772Zm5.652 2.285a1.082 1.082 0 0 1-.386.509.975.975 0 0 1-.585.196h-2.54c-.21 0-.358-.066-.444-.196-.087-.131-.091-.3-.014-.509l.938-2.52h.896l-.91 2.444h2.179l.88-2.368-1.551-3.313c-.108-.229-.111-.48-.01-.755l.75-2.012c.077-.207.207-.376.393-.509.183-.13.381-.196.591-.196h2.54c.21 0 .356.065.438.196.082.131.085.3.008.509l-.861 2.31h-.896l.831-2.234h-2.179l-.78 2.094 1.564 3.313c.102.221.103.468 0 .743l-.855 2.297.003.001Zm2.44.705h-.896l3.698-9.933h.896zm6.009 0h-.618l.026-7.306L70.752 64h-.844l3.698-9.933h.67l-.03 7.178 2.671-7.178h.844zm6.131-.705a1.075 1.075 0 0 1-.392.509 1.01 1.01 0 0 1-.592.196h-2.821c-.21 0-.359-.066-.442-.196-.084-.131-.088-.3-.011-.509l3.172-8.524c.077-.207.207-.376.39-.509a.98.98 0 0 1 .588-.196h2.822c.21 0 .358.065.445.196.086.131.09.3.013.509l-3.172 8.524Zm-.866-.076 3.116-8.372h-2.468l-3.116 8.372h2.468ZM37.5 57.641l-.979 2.76h4.657l.981-2.76zm7.629 0-.981 2.76h4.658l.98-2.76z" fill="#FA0000"/><path fill="#FFBA2A" d="M66.517 35.277 60.82 51.303h6.941l5.696-16.026zm17.833 3.926h3.255L89 35.277h-3.254l1.644-4.626h-6.9l-1.643 4.626h-2.415l-1.4 3.926h2.42l-2.528 7.116c-1.52 4.278 1.137 4.984 3.568 4.984h4.813l1.628-4.584h-1.995c-1.277 0-.945-.883-.64-1.744l2.051-5.77.002-.002Zm-26.344.577s5.63-1.542 5.63-5.843c0-2.476-1.926-3.543-4.007-4.003L60.664 27l-4.686.056-.918 2.585h-.08c-.566 0-1.601-.057-2.838-.057L53.054 27h-4.682l-.917 2.584h-3.239L36.5 51.304l3.284-.042-.927 2.585h4.66l.905-2.626h3.065l-1.014 2.626h4.66l1.149-3.23c4.34 0 8.305-4.589 8.305-7.59 0-3.002-2.578-3.247-2.578-3.247h-.003Zm-4.754 4.297c-.66 1.863-2.512 1.87-3.974 1.87H45.92l1.253-3.74h3.196c1.236 0 3.543.007 2.883 1.87Zm-1.208-5.915H48.61l1.232-3.464h3.08c.866 0 2.182.01 2.182 1.148 0 1.137-1.137 2.316-3.06 2.316ZM33.04 35.033c-3.996 0-7.044 2.881-7.044 2.881-.042-1.013-1.153-2.88-4.325-2.88-3.336 0-6.59 2.88-6.59 2.88l.905-2.637H9.994l-5.75 16.026h6.71l2.96-8.334c.546-1.536 1.825-3.026 3.474-3.026 1.648 0 1.591 1.55 1.132 2.84l-3.027 8.52h6.648l3.07-8.642c.364-1.027 1.526-2.759 3.544-2.759s1.494 1.906 1.192 2.76l-3.07 8.641h6.648l3.886-10.938c1.093-3.076-.375-5.332-4.371-5.332Z"/><path d="M33.04 35.033c-3.996 0-7.044 2.881-7.044 2.881-.042-1.013-1.153-2.88-4.325-2.88-3.336 0-6.59 2.88-6.59 2.88l.905-2.637H9.994l-5.75 16.026h6.71l2.96-8.334c.546-1.536 1.825-3.026 3.474-3.026 1.648 0 1.591 1.55 1.132 2.84l-3.027 8.52h6.648l3.07-8.642c.364-1.027 1.526-2.759 3.544-2.759s1.494 1.906 1.192 2.76l-3.07 8.641h6.648l3.886-10.938c1.093-3.076-.375-5.332-4.371-5.332Zm36.03-6.951-1.578 4.44h6.957l1.576-4.44z" fill="#FFBA2A"/><path fill="#FA0000" d="M31.274 57.641H1.98L1 60.401h32.534l1.057-2.76z"/></g></svg>