<svg viewBox="0 0 90 90" xmlns="http://www.w3.org/2000/svg"><g fill="none"><path fill="#FFF" d="M0 0h90v90H0z"/><path d="M37.345 17.92H47.55l-.041 40.608h-8.123V40.34l-5.103 18.188H30.2L25.098 40.34v18.188h-8.165V17.92H27.14l5.103 20.39 5.103-20.39Zm21.432 32.53V26.083H64.9v8.122h8.165V17.96h-16.33l-6.123 6.092v34.475h16.33l6.123-6.048v-6.092H64.9v4.061h-6.123Z" fill="#ACD532"/><path d="m47.55 17.92-.041 40.608h-8.123V40.34l-5.103 18.188H30.2L25.098 40.34v18.188h-8.165V17.92H27.14l5.103 20.39 5.103-20.39H47.55m25.515.042v16.245H64.9v-8.122h-6.123V50.45H64.9v-4.06h8.165v6.09l-6.124 6.05H50.612V24.052l6.124-6.092h16.329M50.488 15H35.05l-.553 2.213-2.256 9.013-2.255-9.013L29.432 15H14v46.446h54.152l.858-.848 6.124-6.048.866-.857V43.47H61.967v-6.345H76V15H55.521l-.86.897-4.178 4.157.002-2.132.003-2.921Z" fill="#3F3F3F"/><path fill="#FFF" d="m57.193 58.643-8.24 2.663v8.617l-5.091-6.972-8.24 2.663 5.093-6.971-5.093-6.973 8.24 2.663 5.092-6.972v8.619z"/><path d="M48.954 47.36v8.62l8.239 2.663-8.24 2.663v8.617l-5.091-6.972-8.24 2.664 5.093-6.972-5.093-6.972 8.24 2.663 5.092-6.973m1.658-5.078-3 4.108-4.384 6.003-7.093-2.293-4.854-1.569 3 4.108 4.383 6.002-4.383 6.002-3 4.108 4.854-1.57 7.093-2.293 4.384 6.003 3 4.108V62.504l7.093-2.293 4.854-1.57-4.854-1.568-7.093-2.293V42.283Z" fill="#404040"/></g></svg>