<svg viewBox="0 0 90 90" xmlns="http://www.w3.org/2000/svg"><g fill="none"><path fill="#FFF" d="M0 0h90v90H0z"/><path fill="#000001" d="M25.622 46.191V39.86l-2.689 5.44H22l-2.667-5.44v6.332H18v-8.494h1.689l2.778 5.64 2.777-5.64h1.667v8.494zm7.4-.802a2.574 2.574 0 0 1-2.133.847c-1.111.134-2.111-.691-2.245-1.806 0-.067 0-.134-.022-.2 0-1.182.89-1.918 2.422-1.94h1.934v-.201c0-.803-.511-1.293-1.534-1.293a3.382 3.382 0 0 0-1.888.646l-.578-.98a4.688 4.688 0 0 1 2.755-.803c1.645 0 2.578.847 2.6 2.274v4.236h-1.377l.066-.78ZM33 43.917v-.602h-1.733c-.911 0-1.334.245-1.334.87 0 .58.467.958 1.245.958 1 0 1.755-.513 1.822-1.226Zm4.711-2.898a2.353 2.353 0 0 1 2.222-1.338v1.338a1.936 1.936 0 0 0-2.2 1.65c0 .044-.022.089-.022.156v3.366h-1.4v-6.443h1.4v1.27Zm6.467 6.041a2.195 2.195 0 0 1-2.09 1.539c-.555.022-1.066-.178-1.488-.535l.6-1.07c.244.2.533.312.844.312.445 0 .845-.29.978-.714l.222-.49-2.666-6.354h1.444l1.911 4.882 1.778-4.882h1.4l-2.933 7.313Zm3.8-.869v-8.985h1.4v8.985zm7.422-.802a2.574 2.574 0 0 1-2.133.847c-1.111.134-2.111-.691-2.245-1.806 0-.067 0-.134-.022-.2 0-1.182.889-1.918 2.422-1.94h1.934v-.201c0-.803-.512-1.293-1.534-1.293a3.382 3.382 0 0 0-1.889.646l-.577-.98a4.688 4.688 0 0 1 2.755-.803c1.645 0 2.578.847 2.6 2.274v4.236h-1.378l.067-.78Zm-.022-1.472v-.602h-1.734c-.91 0-1.333.245-1.333.87 0 .58.467.958 1.245.958 1 0 1.755-.513 1.822-1.226Zm9.444-1.739v4.013h-1.378V42.58c.067-.78-.51-1.493-1.288-1.56h-.245a1.79 1.79 0 0 0-1.822 1.761v3.433H58.71V39.77h1.378v1.226c.467-.87 1.4-1.382 2.355-1.27a2.243 2.243 0 0 1 2.4 2.073c0 .112 0 .245-.022.38Zm8.045 4.013h-1.378V45.1a2.46 2.46 0 0 1-2.267 1.159c-1.666.045-3.044-1.293-3.089-2.965 0-.112 0-.223.023-.335-.134-1.65 1.088-3.12 2.733-3.255.111 0 .222-.022.311 0a2.56 2.56 0 0 1 2.289 1.182V37.23h1.378v8.962Zm-1.378-3.21a1.968 1.968 0 0 0-1.8-2.118h-.178c-1.155.067-2.044 1.092-1.955 2.251a2.106 2.106 0 0 0 1.955 1.962c1.067.023 1.956-.847 1.978-1.94v-.155Z"/><path fill="#FEC028" d="M27.133 8h28.69v34.669h-28.69z"/><path fill="#000001" d="m54.733 28.467-9.355-5.596V8.022h9.355z"/><path fill="#000001" d="m45.422 43.895-9.244-5.685V17.275l9.244 5.573zm-9.266-26.62v-5.708h-9.334z"/><path fill="#B82527" d="M24.622 28.132H69.29v7.736H24.622zM54.69 11.144h13.332v15.963H54.69z"/><path fill="#FFF" d="M56.222 25.3v.023H56.2zm-11.8 5.976a1.69 1.69 0 0 1-1.689 1.694 1.69 1.69 0 0 1-1.689-1.694v-6.243a1.69 1.69 0 0 1 1.69-1.694 1.69 1.69 0 0 1 1.688 1.694v6.243Z"/><path d="M69.578 26.46a1.69 1.69 0 0 1 1.689 1.695 1.69 1.69 0 0 1-1.69 1.694H39.8a1.69 1.69 0 0 1-1.689-1.694A1.69 1.69 0 0 1 39.8 26.46h29.778Z" fill="#FFF"/><path d="M56.422 37.608a1.69 1.69 0 0 1-1.689 1.694 1.69 1.69 0 0 1-1.689-1.694v-18.84a1.69 1.69 0 0 1 1.69-1.694 1.69 1.69 0 0 1 1.688 1.694v18.84Z" fill="#FFF"/><path d="M57.844 19.928a1.69 1.69 0 0 1 1.69 1.694 1.69 1.69 0 0 1-1.69 1.695H51.6a1.69 1.69 0 0 1-1.689-1.695 1.69 1.69 0 0 1 1.689-1.694h6.244Zm0 13.042a1.69 1.69 0 0 1 1.69 1.695 1.69 1.69 0 0 1-1.69 1.694H51.6a1.69 1.69 0 0 1-1.689-1.694A1.69 1.69 0 0 1 51.6 32.97h6.244Z" fill="#FFF"/><path fill="#000" d="M6.533 51.988h.6l1.378 2.006 1.333-2.006h.578v4.303h-.666v-2.988L8.578 55.02H8.4l-1.2-1.717v2.988h-.667zm6.378 0h.511l1.69 4.303H14.4l-.378-.959h-1.755l-.378.959H11.2l1.711-4.303Zm-.4 2.697h1.267l-.645-1.627-.622 1.627Zm3.356 1.605v-4.302H17.4c.244 0 .511.022.756.111.177.067.355.156.466.312.111.134.178.268.245.424.044.156.066.334.066.513 0 .267-.066.557-.222.78a1.251 1.251 0 0 1-.644.468l1.155 1.717H18.4l-1.067-1.583h-.822v1.583l-.644-.022Zm.666-3.611v1.338h.867a.835.835 0 0 0 .6-.179.633.633 0 0 0 .222-.49.608.608 0 0 0-.2-.468 1.009 1.009 0 0 0-.666-.179l-.823-.022Zm5.089 1.761v1.873h-.666V54.44L19.4 51.988h.822l1.067 1.717 1.089-1.717h.8zm2.311-2.452h.667v3.59h2.2v.713h-2.867zm5.156 0h.511l1.689 4.303h-.711l-.378-.959h-1.756l-.377.959h-.69l1.712-4.303Zm-.378 2.697h1.267l-.645-1.627-.622 1.627Zm6.156 1.605-2.134-2.942v2.943h-.644v-4.303h.511l2.133 2.943v-2.943h.645v4.303zm1.711-4.302h1.2c.355 0 .689.044 1.022.178.267.09.489.245.689.468.155.201.289.424.355.67.09.267.112.534.112.802a2.36 2.36 0 0 1-.556 1.605c-.378.401-.933.602-1.689.624h-1.133v-4.347Zm.666.691v2.898h.512c.51 0 .888-.133 1.133-.401.267-.312.4-.713.355-1.115 0-.936-.488-1.404-1.488-1.404l-.512.022Zm5.423-.691h1.2c.355 0 .689.044 1.022.178.267.09.489.245.689.468.155.201.289.424.355.67.09.267.111.534.111.802a2.36 2.36 0 0 1-.555 1.605c-.378.401-.933.602-1.689.624h-1.133v-4.347Zm.666.691v2.898h.534c.51 0 .889-.133 1.133-.401.267-.312.4-.713.356-1.115 0-.936-.49-1.404-1.49-1.404l-.533.022Zm3.689-.691h2.867v.691h-2.2v1.092h2.067v.67h-2.067v1.136h2.267v.714h-2.934zM51 56.29v-4.302h1.556c.266 0 .533.044.8.111.2.067.355.179.488.335.112.133.178.29.245.446.044.156.067.334.067.512 0 .179-.023.357-.09.513a1.824 1.824 0 0 1-.266.446 1.14 1.14 0 0 1-.511.334c-.245.09-.511.134-.756.112h-.889v1.471l-.644.023Zm.667-3.611v1.45h.889c.622 0 .933-.246.933-.737 0-.49-.289-.713-.889-.713h-.933Zm4.4-.691h.51l1.69 4.303h-.711l-.4-.959H55.4l-.378.959h-.689l1.734-4.303Zm-.4 2.697h1.266l-.644-1.627-.622 1.627Zm3.377 1.605v-4.302h1.512c.244 0 .51.022.755.111.178.067.356.156.467.312.11.134.178.268.244.424.045.156.067.334.067.513 0 .267-.067.557-.222.78a1.196 1.196 0 0 1-.623.468l1.156 1.717h-.8l-1.067-1.583h-.822v1.583l-.667-.022Zm.667-3.611v1.338h.867a.835.835 0 0 0 .6-.179.633.633 0 0 0 .222-.49.608.608 0 0 0-.2-.468c-.2-.134-.422-.179-.667-.179l-.822-.022Zm3.067-.691h3.266v.691h-1.31v3.612h-.667v-3.612h-1.29zm4.044 0h.578l1.378 2.006 1.333-2.006h.578v4.303h-.667v-2.988l-1.178 1.717h-.177l-1.2-1.717v2.988H66.8zm5.089 0h2.867v.691h-2.2v1.092h2.066v.67h-2.066v1.136h2.266v.714h-2.933zm6.733 4.302-2.133-2.942v2.943h-.644v-4.303h.51l2.134 2.943v-2.943h.667v4.303zm1.312-4.302h3.266v.691h-1.289v3.612h-.666v-3.612h-1.311zM12.822 58.72c.69-.78 1.867-.846 2.667-.155l.155.156c.756.914.756 2.23 0 3.143a1.89 1.89 0 0 1-2.666.157c-.045-.045-.111-.09-.156-.157-.755-.891-.755-2.229 0-3.143Zm.511 2.654c.445.513 1.2.557 1.69.111.044-.044.088-.066.11-.111.245-.29.378-.691.378-1.07a1.445 1.445 0 0 0-.378-1.07 1.214 1.214 0 0 0-1.689-.134l-.133.134a1.715 1.715 0 0 0 .022 2.14Zm3.867-3.233h2.844v.691h-2.177v1.227h2.022v.69h-2.022v1.695H17.2zm5.156 0h3.266v.691h-1.289v3.612h-.666v-3.612h-1.29zm4.022 4.303v-4.303h1.51a2.2 2.2 0 0 1 .756.112c.178.067.356.156.467.312.111.134.178.267.245.423.044.156.066.335.066.513 0 .268-.066.558-.222.78a1.196 1.196 0 0 1-.622.469l1.155 1.716h-.822l-1.067-1.583h-.777v1.583l-.69-.022Zm.666-3.59v1.316h.867a.835.835 0 0 0 .6-.178.633.633 0 0 0 .222-.49.608.608 0 0 0-.2-.469c-.2-.134-.422-.2-.666-.178h-.823Zm4.978-.713h.511l1.69 4.303h-.712l-.378-.959h-1.755l-.378.96h-.689l1.711-4.304Zm-.378 2.72h1.267l-.644-1.65-.623 1.65Zm6.134 1.583-2.134-2.943v2.943H35v-4.303h.511l2.133 2.943v-2.943h.645v4.303zM41.6 60.95a1.094 1.094 0 0 0-.333-.223c-.156-.044-.311-.111-.467-.133a2.634 2.634 0 0 1-.511-.156 4.435 4.435 0 0 1-.467-.223 1.018 1.018 0 0 1-.333-.357c-.267-.49-.133-1.07.289-1.427a1.605 1.605 0 0 1 1.089-.357 1.9 1.9 0 0 1 1.489.625l-.356.535a1.706 1.706 0 0 0-1.156-.446c-.2 0-.4.044-.577.134-.2.111-.29.356-.178.557a.3.3 0 0 0 .133.156c.134.09.29.156.445.2.177.045.377.09.577.179.2.067.378.134.578.223.178.09.334.223.445.379.133.178.177.401.177.624 0 .357-.155.691-.422.914-.289.246-.666.357-1.066.357-.334 0-.667-.067-.978-.223a2.01 2.01 0 0 1-.734-.557l.4-.535c.334.4.845.624 1.356.624.2 0 .378-.045.533-.134.134-.09.2-.223.2-.379a.472.472 0 0 0-.133-.357Zm1.8 1.494v-4.303h1.556c.266 0 .533.045.8.112.2.067.355.178.488.334.112.134.178.29.245.446.044.156.067.334.067.513 0 .178-.023.356-.09.513a1.824 1.824 0 0 1-.266.445 1.14 1.14 0 0 1-.511.335c-.245.09-.511.134-.756.111h-.889v1.472l-.644.022Zm.667-3.612v1.45h.889c.622 0 .933-.246.933-.736s-.289-.714-.889-.714h-.933Zm3.8-.112c.689-.78 1.866-.846 2.666-.155l.156.156c.755.914.755 2.23 0 3.143a1.89 1.89 0 0 1-2.667.157c-.044-.045-.11-.09-.155-.157-.756-.891-.756-2.229 0-3.143Zm.51 2.654c.445.513 1.2.557 1.69.111.044-.044.089-.066.11-.111a1.56 1.56 0 0 0 .356-1.07 1.445 1.445 0 0 0-.377-1.07 1.214 1.214 0 0 0-1.69-.134l-.133.134a1.746 1.746 0 0 0 .045 2.14Zm3.867 1.07v-4.303h1.512c.244 0 .51.022.755.112.178.067.356.156.467.312.11.134.178.267.244.423.045.156.067.335.067.513 0 .268-.067.558-.222.78a1.196 1.196 0 0 1-.623.469l1.156 1.716h-.8l-1.067-1.583h-.822v1.583l-.667-.022Zm.667-3.59v1.316h.867a.835.835 0 0 0 .6-.178.633.633 0 0 0 .222-.49.608.608 0 0 0-.2-.469 1.13 1.13 0 0 0-.644-.178h-.845ZM56 58.141h3.267v.691h-1.311v3.612h-.667v-3.612H56v-.69zm4.867 0h.51l1.69 4.303h-.711l-.378-.959h-1.756l-.378.96h-.666l1.689-4.304Zm-.4 2.72h1.266l-.644-1.65-.622 1.65Zm2.511-2.72h3.266v.691h-1.288v3.612h-.667v-3.612H63zm4.044 0h.667v4.303h-.667zm2.222.579c.69-.78 1.867-.846 2.667-.155l.156.156c.755.914.755 2.23 0 3.143a1.89 1.89 0 0 1-2.667.157c-.044-.045-.111-.09-.156-.157-.755-.891-.755-2.229 0-3.143Zm.49 2.654c.444.513 1.2.557 1.688.111.045-.044.09-.066.111-.111a1.56 1.56 0 0 0 .356-1.07 1.445 1.445 0 0 0-.378-1.07 1.214 1.214 0 0 0-1.689-.134l-.133.134a1.812 1.812 0 0 0 .044 2.14Zm6.666 1.07-2.133-2.943v2.943h-.645v-4.303h.511l2.134 2.943v-2.943h.644v4.303zm1.111 19.553h.867v.178h-.334v.714h-.177v-.714h-.356v-.178Zm1 0h.156l.377.423.356-.423h.156v.87h-.178v-.625l-.334.401-.333-.401v.624h-.178l-.022-.87Zm-27.533-9.52v-.179c0-.089.022-.178.044-.267-.133-.981-.755-1.806-1.622-2.252a2.85 2.85 0 0 0-1.2-.334l-.022.044a6.076 6.076 0 0 0-.422 1.048c-.045.112-.067.245-.112.357a6.117 6.117 0 0 0-.177 1.56v1.851h3.51v-1.828Zm13.911-6.466H53.91a6.494 6.494 0 0 0-2.955.714l-.067.022.022.022a6.359 6.359 0 0 1 2.756 2.765h11.155l.022-.045v-3.478h.045ZM30.667 78.697l3.51-4.682V65.9h-4.244l-2.666 3.545-5.934 7.914V65.9h-4.266L5 81.998h4.4l8.422-11.237v11.237h4.422l8.423-11.237z"/><path d="M51.022 81.283 51 81.261a6.359 6.359 0 0 1-2.756-2.765H35.178l3.4-4.525h-4.4l-3.511 4.66v3.388H48.4c.133 0 .244-.022.356-.045l.11-.022.245-.044.133-.023.223-.044.133-.045.222-.067.134-.044.2-.067.133-.045.222-.09.111-.044c.111-.044.222-.089.311-.156h.09Zm-2.866-11.771a2.977 2.977 0 0 1 2.8 2.786v3.412c0 .089-.023.178-.023.267a3.034 3.034 0 0 0 2.8 2.586l.023-.044c.222-.446.4-.914.533-1.427.022-.112.067-.245.089-.38a6.87 6.87 0 0 0 .11-1.18v-3.055c0-.401-.044-.78-.11-1.182a2.339 2.339 0 0 0-.09-.379 6.434 6.434 0 0 0-3.332-4.214A6.494 6.494 0 0 0 48 65.99H37.422l-2.644 3.523h13.378Z" fill="#FDB913"/><path d="M71.244 72.477v-.49c0-.09 0-.179-.022-.268v-.112c0-.089-.022-.178-.044-.267l-.022-.09c-.023-.089-.045-.2-.067-.29v-.044c-.045-.134-.067-.267-.111-.401a8.102 8.102 0 0 0-.245-.669c-.044-.111-.11-.223-.155-.334l-.022-.045h-5.667l-.022.045h.199c.334.022.667.111.978.267.09.045.156.09.245.134.067.044.155.09.222.134l.022.022c.067.045.134.111.2.156l.023.022c.066.045.11.112.177.156l.023.023.022.022.11.134.023.022.045.067a.677.677 0 0 1 .11.156l.045.09.022.021.067.134c.022.045.044.067.044.112.023.022.045.089.067.156.022.022.022.067.022.089l.023.045a.317.317 0 0 1 .044.133l.044.156c.023.045.023.09.023.134 0 .045.022.134.022.179 0 .066 0 .066.022.111 0 .09.022.2.022.29v3.054c0 .09 0 .2-.022.29 0 .045 0 .067-.022.112-.022.066-.022.133-.022.178-.023.067-.023.09-.023.134a.414.414 0 0 1-.044.156c-.022.044-.022.089-.044.133l-.023.045c0 .022-.022.067-.022.09 0 .022-.044.088-.067.155-.022.045-.022.067-.044.112l-.067.134-.022.022-.044.089c-.045.045-.067.112-.111.156l-.045.067-.022.022a.59.59 0 0 0-.111.134l-.022.022-.023.023a.6.6 0 0 1-.177.156l-.023.022c-.066.045-.133.111-.2.156l-.022.022c-.067.045-.155.09-.222.134a2.27 2.27 0 0 1-.245.134 3.745 3.745 0 0 1-.977.267H53.778a2.96 2.96 0 0 1-2.8-2.786v-1.606h-3.511v1.427a6.55 6.55 0 0 0 .71 2.965 6.476 6.476 0 0 0 5.756 3.523H64.8a6.476 6.476 0 0 0 5.756-3.523c.044-.111.11-.223.155-.334.089-.223.178-.446.245-.669.044-.134.088-.267.11-.401v-.045c.023-.111.045-.2.067-.312l.023-.089c.022-.09.022-.178.044-.268v-.111c0-.09.022-.178.022-.268v-3.544h.022v.022Z" fill="#000"/><path fill="#A30C33" d="M64.822 65.989v3.523h8.334v12.485h3.51V69.512h4.845l3.489-3.5v-.023z"/></g></svg>