<svg viewBox="0 0 90 90" xmlns="http://www.w3.org/2000/svg"><path d="M47.859 45.402a8.144 8.144 0 0 1 2.92 8.533c-2.616 10.324-12.377 22.813-34.068 32.41-6.897 3.052-12.32 4.22-13.458 3.401-1.224-.88 2.333-7.692 3.404-9.954 3.463-7.323 7.789-14.453 12.006-20.98 1.554-2.403 3.951-6.569 6.123-6.236 1.468.226.529 2.806-.664 5.268l-.195.398c-.328.66-.666 1.302-.972 1.877a230.654 230.654 0 0 0-3.68 7.158l-.295.607-.291.609-.288.61c-2.189 4.667-3.922 9.198-2.607 9.649 5.055 1.735 28.771-16.324 25.274-26.382-1.62-4.668-11.918-5.112-18.403-5.112-2.95 0-9.393.697-9.75-1.563-.384-2.086 9.789-4.186 15.704-4.536 6.64-.389 14.709.772 19.24 4.243Zm32.053-15.303c3.987.721 7.236 1.28 7.982 2.964.837 1.909-3.504 2.024-5.692 2.07-10.487.203-16.81.409-17.127 3.976-.411 4.59 4.482 9.212 9.314 15.694.315.422.633.844.952 1.266l.479.632c3.984 5.264 7.847 10.438 6.555 15.3-1.803 6.78-10.11 8.215-18.018 8.216-7.576.007-14.753-1.21-17.767-1.809-3.756-.742-3.198-2.599-2.196-3.196.72-.43 3.627-.59 6.792-.72l.658-.026.33-.013.662-.026a182.76 182.76 0 0 0 3.498-.162c3.651-.215 14.257-.21 15.91-2.929 1.86-3.05-2.158-8.093-6.351-13.508l-.458-.593a227.37 227.37 0 0 1-1.168-1.522l-.483-.63c-5.397-7.045-10.785-14.188-7.665-19.485 4.279-7.263 16.797-6.765 23.793-5.499ZM63.621 6.804c2.799 8.966-11.386 22.04-23.747 28.457-3.03 1.573-4.866 2.005-5.631 1.897-.731-.101-.843-.83-.606-1.332.44-.943 2.432-2.864 5.102-4.951C52.653 19.997 57.177 12.017 54.55 8.782c-1.685-2.07-8.739-3.51-16.063-3.51-1.989 0-7.214.462-7.75-1.38-.438-1.51 6.576-3.48 14.266-3.843 7.746-.367 16.91 1.285 18.618 6.755Z" fill="#C8D300"/></svg>