<svg viewBox="0 0 90 90" xmlns="http://www.w3.org/2000/svg"><g fill="none"><path d="M67.36 5.989C46.047-6.363 18.64 1.049 6.185 22.183l-.277.275C-6.273 43.867.924 71.315 22.517 83.94c21.314 12.352 48.72 5.215 61.176-15.92l.277-.274c12.457-21.684 4.983-49.132-16.61-61.758Z" fill="#00C364"/><path d="M57.97 22.657c-3.045-1.661-6.922-.553-8.86 2.493-1.662 3.046-.832 7.2 2.491 8.861 3.047 1.662 6.924.831 8.862-2.492 1.662-3.046.83-7.2-2.492-8.862Zm0 7.2c-1.107 1.662-3.322 2.216-4.984 1.385-1.661-1.108-2.215-3.323-1.385-4.985 1.108-1.661 3.047-2.215 4.985-1.384 1.939 1.107 2.492 3.323 1.385 4.984Z" fill="#FFF"/><path d="M80.955 42.319c-9.969-5.815-22.43-6.37-32.954-1.662l-.276.277v-.554C44.678 20.442 30.832 12.965 30 12.411c-4.153-2.215-9.138-.83-11.353 3.046-1.385 2.216-1.939 6.093 2.769 11.077 4.43 3.877 9.415 7.477 14.4 10.8-5.539.277-11.354-.554-16.616-2.215-1.107-.277-1.938-1.108-2.492-1.939-.554-1.384-.554-3.046.554-4.153.554-.554.277-1.385-.277-1.939s-1.385-.277-1.938.277c-2.216 2.77-1.662 6.923 1.107 9.139.554.553 1.108.83 1.939 1.107 8.584 3.046 21.6 2.216 22.154 2.216.553 0 .83-.277 1.107-.554.277-.554.277-1.385-.277-1.939-6.369-3.6-12.184-8.03-17.723-12.738-2.769-2.77-3.6-5.539-2.215-7.477 1.385-2.492 4.708-3.323 7.2-1.939 2.77 1.662 5.261 3.6 7.2 6.093 4.985 5.538 8.308 12.461 9.415 19.938 0 .554 0 .831.277 1.385-6.646 3.877-11.907 9.692-15.23 16.892-1.662 3.323-3.324 6.923-4.431 10.246-1.108 3.6-2.493 8.308.277 9.97 2.769 1.661 6.369-1.939 8.861-4.708 2.492-2.77 4.43-5.816 6.646-8.862 4.431-6.369 6.923-14.123 6.923-21.877l1.108-.553c6.923-3.047 14.4-3.6 21.877-1.939 3.046.554 6.092 1.662 8.585 3.323 2.492 1.662 3.323 4.708 1.938 7.2-1.385 2.216-3.877 2.77-7.754 1.662-6.646-2.493-13.292-5.539-19.661-9.139-.831-.277-1.662 0-1.939.554-.277.277-.277.83 0 1.385.277.554 6.37 12.738 13.016 18.277 1.384 1.107 3.046 1.938 4.984 1.661 2.493-.277 4.708-1.938 5.539-4.154.277-.83 0-1.661-.831-1.938-.83-.277-1.385 0-1.939.83-.553 1.385-1.661 2.493-3.323 2.493-1.107 0-2.215-.554-3.046-1.108-4.154-3.877-7.477-8.584-10.246-13.569 5.262 2.77 10.523 5.262 16.339 7.2 6.369 1.662 9.415-.83 10.8-3.046 2.215-3.877 1.107-8.862-2.77-11.077ZM38.31 64.196c-1.938 3.046-3.877 5.815-6.092 8.308-3.877 4.43-5.262 4.153-5.262 4.153s-.83-1.661.831-6.369c1.108-3.323 2.77-6.646 4.43-9.692 2.77-6.092 7.2-11.077 12.74-14.677-.555 6.646-2.77 13.015-6.647 18.277Z" fill="#FFF"/></g></svg>