<svg viewBox="0 0 90 90" xmlns="http://www.w3.org/2000/svg"><g fill="none"><path fill="#3B3B43" d="M0 0h90v90H0z"/><path d="M71 45.405C71 31.375 59.582 20 45.497 20 31.416 20 20 31.372 20 45.405v13.28C20 64.906 25.11 70 31.356 70h28.288C65.889 70 71 64.907 71 58.684v-13.28Z" fill="#F5E3F7"/><path d="M67.442 46.56c0-3.9-1.15-19.038-15.873-21.332-13.082-2.038-23.923 2.065-26.683 15.139-2.762 13.074-.232 25.23 9.43 26.377 9.663 1.146 12.422.688 22.544.23 10.122-.46 10.582-16.515 10.582-20.415Z" fill="#FF5A9D"/><path d="M54.735 35.446a9.993 9.993 0 0 0-9.378 6.522 9.988 9.988 0 0 0-9.378-6.522c-5.516 0-9.988 4.459-9.988 9.96 0 5.5 4.472 9.96 9.988 9.96a9.994 9.994 0 0 0 9.38-6.522 9.988 9.988 0 0 0 9.375 6.521c5.517 0 9.99-4.459 9.99-9.96 0-5.5-4.473-9.959-9.989-9.959Z" fill="#FFF"/><path d="M36.184 38.39c-1.73 0-3.39.685-4.612 1.905a6.494 6.494 0 0 0 0 9.198 6.531 6.531 0 0 0 4.611 1.904c3.603 0 6.523-2.911 6.523-6.503s-2.92-6.503-6.523-6.503l.001-.001Zm18.346 0a6.527 6.527 0 0 0-5.709 3.23 6.488 6.488 0 0 0 0 6.546 6.527 6.527 0 0 0 5.71 3.231c3.602 0 6.522-2.911 6.522-6.503s-2.92-6.503-6.523-6.503v-.001Z" fill="#7320D3"/><path d="M41.854 40.225a2.863 2.863 0 0 1-2.867 2.859 2.863 2.863 0 0 1-2.867-2.859 2.863 2.863 0 0 1 2.867-2.859 2.863 2.863 0 0 1 2.867 2.86Zm19.111 0a2.857 2.857 0 0 1-1.42 2.516c-.893.52-2 .52-2.894 0a2.857 2.857 0 0 1 1.447-5.327 2.863 2.863 0 0 1 2.867 2.811Z" fill="#FFF"/></g></svg>