<svg xmlns="http://www.w3.org/2000/svg" viewBox="0 0 90 90"><path fill="#DD1405" d="M0 0h90v90H0z"/><path d="M45 80c-19.32 0-35-15.68-35-35s15.68-35 35-35 35 15.68 35 35-15.68 35-35 35Z" fill="#FFF"/><path d="M62.5 55.655c0 .568-.46 1.01-1.028 1.01h-4.419a1.013 1.013 0 0 1-1.028-1.01V42.447c0-.127-.153-.169-.219-.105l-9.34 9.1c-.81.8-2.122.8-2.932 0l-9.34-9.1c-.066-.064-.219-.022-.219.105v13.208c0 .568-.46 1.01-1.028 1.01h-4.419a1.013 1.013 0 0 1-1.028-1.01V32.399c0-.569.46-1.011 1.028-1.011h3.04c.548 0 1.073.21 1.466.59L44.628 43.29c.197.19.547.19.744 0l11.594-11.312c.393-.38.918-.59 1.465-.59h3.04c.57 0 1.029.442 1.029 1.011v23.256Z" fill="#DD1405"/></svg>