<svg viewBox="0 0 90 90" xmlns="http://www.w3.org/2000/svg"><g fill="none"><path d="m51.288 10.849 8.648 17.12 19.175 2.87c5.727.857 8.011 7.822 3.886 11.85L69.206 56.16l3.164 18.907c.947 5.662-5.033 9.966-10.175 7.324l-17.229-8.853-17.228 8.853c-5.142 2.642-11.122-1.662-10.175-7.324l3.173-18.965L7.003 42.69c-4.125-4.029-1.841-10.994 3.886-11.85l19.171-2.87 8.65-17.121c2.593-5.132 9.985-5.132 12.578 0Zm-6.289 18.684-4.01 7.938c-1.169 2.313-3.46 3.701-5.892 3.84l-8.215 1.227 6.38 6.232a6.922 6.922 0 0 1 1.781 7.029l-1.308 7.814 7.954-4.087a7.055 7.055 0 0 1 3.256-.784h.043a7.055 7.055 0 0 1 3.255.784l7.954 4.087-1.465-8.758a6.927 6.927 0 0 1 2.333-6.406l6.053-5.91-8.212-1.228c-2.433-.137-4.727-1.525-5.896-3.84L45 29.533Z" fill="#FFF"/><path d="m44.978 22.533-4.01 7.938c-1.739 3.441-5.963 4.835-9.436 3.112-3.473-1.722-4.88-5.907-3.141-9.348L38.689 3.849c2.593-5.132 9.985-5.132 12.577 0l10.299 20.386c1.738 3.44.332 7.626-3.141 9.348-3.473 1.723-7.698.33-9.436-3.112l-4.01-7.938Z" fill="#2BD9D9" style="mix-blend-mode:multiply" transform="translate(.021 7)"/><path d="M64.244 47.216c-1.736 3.452-5.95 4.852-9.413 3.129a6.964 6.964 0 0 1-3.125-9.37l10.29-20.45c2.59-5.148 9.962-5.154 12.543-.011l10.254 20.432c1.73 3.448.324 7.646-3.141 9.375-3.465 1.73-7.677.337-9.408-3.112l-3.993-7.956-4.007 7.963Z" fill="#3DCC3D" style="mix-blend-mode:multiply" transform="rotate(72 63.44 37.386)"/><path d="M55.345 74.273c-1.731 3.442-5.95 4.83-9.421 3.102-3.472-1.73-4.883-5.92-3.151-9.363l10.26-20.392c2.582-5.133 9.967-5.123 12.564.017L75.913 68.06a6.936 6.936 0 0 1-3.124 9.353c-3.467 1.72-7.69.319-9.43-3.128l-4.018-7.952-3.996 7.94Z" fill="#FFD426" style="mix-blend-mode:multiply" transform="rotate(144 58.22 64.465)"/><path d="m30.549 66.332-4.017 7.952c-1.742 3.447-5.964 4.847-9.43 3.128a6.936 6.936 0 0 1-3.126-9.353l10.317-20.422c2.597-5.14 9.982-5.15 12.564-.017l10.26 20.392c1.732 3.442.321 7.634-3.15 9.363-3.473 1.728-7.691.34-9.423-3.102l-3.995-7.941Z" fill="#F7578C" style="mix-blend-mode:multiply" transform="rotate(-144 31.69 64.458)"/><path d="m21.706 39.253-3.993 7.956c-1.73 3.449-5.943 4.842-9.408 3.112-3.465-1.73-4.871-5.927-3.14-9.375l10.253-20.432c2.581-5.143 9.954-5.137 12.544.01l10.289 20.45a6.964 6.964 0 0 1-3.125 9.37c-3.462 1.724-7.677.324-9.413-3.128l-4.007-7.963Z" fill="#0AF" style="mix-blend-mode:multiply" transform="rotate(-72 26.538 37.357)"/></g></svg>