<svg viewBox="0 0 90 90" xmlns="http://www.w3.org/2000/svg"><g fill="none"><path d="M56.244 2.966c32.62 8.755 38.42 24.508 30.72 53.297-7.702 28.79-20.588 39.526-53.208 30.771-32.62-8.755-38.42-24.508-30.72-53.297C10.739 4.947 23.625-5.789 56.245 2.966Z" fill="#FFD426"/><path d="M69.78 60.47a3.094 3.094 0 0 1 .36 6.166l-.36.02H20.25a3.094 3.094 0 0 1-.36-6.166l.36-.02h49.53Zm0-18.563a3.094 3.094 0 0 1 .36 6.167l-.36.02H20.25a3.094 3.094 0 0 1-.36-6.166l.36-.021h49.53Zm0-18.563a3.094 3.094 0 0 1 .36 6.167l-.36.02H20.25a3.094 3.094 0 0 1-.36-6.166l.36-.02h49.53Z" fill="#FFF"/></g></svg>