<svg viewBox="0 0 90 90" xmlns="http://www.w3.org/2000/svg"><g fill="none" fill-rule="evenodd"><path d="M84.972 45.16c0 22.867.034 22.804-19.737 34.244-19.772 11.44-19.698 11.433-39.47 0C5.994 67.97 6.033 68.027 6.033 45.159c0-11.98-.653-21.087 10.25-28.476 3.407-2.321 7.052-4.29 10.63-6.36 3.577-2.07 7.137-4.26 10.879-6.075 2.504-1.217 5.11-2.219 7.95-2.219 2.838 0 5.44 1.002 7.949 2.219 3.742 1.815 7.28 3.982 10.88 6.075 3.6 2.094 7.205 4.039 10.623 6.36 10.278 6.968 9.778 16.906 9.778 28.476Z" fill="#FFF"/><path d="M86 45.16v.124c0 11.53 0 17.299-2.595 21.798-2.595 4.494-7.58 7.395-17.546 13.146l-.108.057-.107.063C55.667 86.116 50.676 89 45.503 89c-5.173 0-10.164-2.884-20.14-8.652l-.109-.063-.113-.062c-9.977-5.768-14.962-8.652-17.552-13.14C5 62.576 5 56.814 5 45.283v-2.047c0-11.349-.057-20.115 10.71-27.407 2.68-1.82 5.507-3.413 8.335-5.046L26.4 9.436l2.368-1.382c2.84-1.656 5.639-3.311 8.574-4.733A27.55 27.55 0 0 1 41.341 1.7a14.137 14.137 0 0 1 8.784 0c1.365.435 2.694.978 3.975 1.62 2.935 1.423 5.757 3.078 8.574 4.734.829.483 1.658.972 2.373 1.382l2.351 1.348c2.84 1.61 5.678 3.225 8.336 5.046 10.277 6.962 10.255 16.581 10.22 27.788v1.541H86Zm-2.056.124v-1.666c0-10.615.04-19.734-9.335-26.088-2.651-1.797-5.428-3.378-8.199-4.96l-2.356-1.33-2.385-1.395c-2.766-1.644-5.537-3.27-8.404-4.675a26.337 26.337 0 0 0-3.702-1.508 12.267 12.267 0 0 0-7.598 0c-1.27.409-2.507.913-3.702 1.508-2.896 1.405-5.678 3.031-8.426 4.653-.756.443-1.51.887-2.39 1.393l-2.363 1.354c-2.771 1.582-5.542 3.163-8.2 4.96-9.89 6.684-9.863 14.972-9.834 25.707v2.047c0 11.172 0 16.758 2.31 20.769 2.318 4.022 7.144 6.826 16.797 12.395l.114.063.108.062c9.653 5.586 14.473 8.373 19.112 8.373 4.64 0 9.477-2.787 19.13-8.373l.108-.062.108-.063c9.653-5.58 14.48-8.373 16.796-12.39 2.294-4.016 2.294-9.602 2.294-20.774h.017Z" fill="#45B75B" fill-rule="nonzero"/><path d="M11.093 27.605c-1.232 3.56-1.136 8.532-1.136 17.554 0 21.355-.704 20.137 17.756 30.814 18.46 10.678 17.035 10.678 35.517 0 18.483-10.677 17.762-9.46 17.762-30.814 0-9.005.125-13.993-1.136-17.554-2.453 3.373-7.092 5.961-15.689 10.939-19.056 11.018-18.284 11.018-37.334 0-8.597-4.978-13.236-7.566-15.74-10.94Z" fill="#0C9B50"/><path d="M18.497 27.019c3.288 2.23 6.945 4.21 10.391 6.206 3.447 1.997 7.03 4.18 10.624 5.944 1.914.928 4.06 1.82 6.246 1.82 2.186 0 4.31-.892 6.246-1.82 3.532-1.763 7.12-3.942 10.585-5.944 3.463-2.002 7.097-3.982 10.385-6.206 4.69-3.174 4.685-3.885 0-7.06-3.288-2.23-6.944-4.215-10.385-6.206-3.441-1.99-7.053-4.22-10.63-5.927-1.914-.927-4.06-1.82-6.246-1.82-2.186 0-4.31.893-6.246 1.82-3.549 1.707-7.115 3.925-10.579 5.927-3.463 2.003-7.103 3.982-10.39 6.206-4.685 3.175-4.685 3.886 0 7.06Z" fill="#DD4C5D"/><path d="M45.736 31.063c.66-.212 1.303-.48 1.919-.802 3.407-1.66 6.7-3.709 9.994-5.609l2.032-1.137-2.032-1.138c-3.294-1.906-6.57-3.948-9.994-5.609a12.82 12.82 0 0 0-1.92-.808 12.82 12.82 0 0 0-1.919.808c-3.407 1.661-6.7 3.703-9.988 5.609l-2.038 1.138c.681.387 1.363.773 2.033 1.137 3.293 1.9 6.575 3.948 9.993 5.61.616.32 1.258.589 1.92.801Z" fill="#E57682"/><path d="M13.517 44.989c2.68 2.485 6.933 4.892 13.628 8.771 18.738 10.808 17.955 10.808 36.676 0 6.711-3.88 10.97-6.257 13.667-8.771 0-3.482 0-6.258-.085-8.533-2.703 2.457-6.939 4.852-13.582 8.692-18.738 10.808-17.955 10.808-36.676 0-6.638-3.84-10.874-6.257-13.577-8.692-.102 2.275-.09 5.046-.085 8.533h.034Zm0 6.32c2.68 2.485 6.933 4.869 13.628 8.771 18.738 10.808 17.955 10.808 36.676 0 6.711-3.88 10.97-6.257 13.667-8.772 0 3.982-.09 6.827-.567 9.102-2.715 2.32-6.814 4.659-13.123 8.288C45.117 79.5 45.883 79.5 27.145 68.692c-6.246-3.629-10.402-5.967-13.117-8.288-.437-2.247-.51-5.102-.51-9.096Z" fill="#45B75B"/><path d="M30.274 23.856c.732-.42.732-.313 0-.74-3.214-1.854-2.635-1.854-5.849 0-.738.427-.738.32 0 .74 3.214 1.86 2.635 1.86 5.849 0Zm9.25-4.898c.738-.426.738-.318 0-.74-3.214-1.86-2.635-1.86-5.849 0-.738.422-.738.314 0 .74 3.214 1.855 2.635 1.855 5.849 0Zm0 10.24c.738-.427.738-.32 0-.74-3.214-1.86-2.635-1.86-5.849 0-.738.42-.738.313 0 .74 3.214 1.86 2.635 1.86 5.849 0Zm18.925 0c.733-.427.733-.32 0-.74-3.214-1.86-2.64-1.86-5.848 0-.739.42-.739.313 0 .74 3.208 1.86 2.634 1.86 5.848 0Zm-.829-10.24c.738-.426.738-.318 0-.74-3.22-1.86-2.652-1.86-5.848 0-.733.422-.733.314 0 .74 3.213 1.855 2.634 1.855 5.848 0Zm-8.96 4.898c.738-.42.738-.313 0-.74-3.214-1.854-2.635-1.854-5.849 0-.738.427-.732.32 0 .74 3.214 1.86 2.635 1.86 5.849 0Zm0-9.778c.738-.427.738-.319 0-.746-3.214-1.854-2.635-1.854-5.849 0-.738.427-.732.319 0 .746 3.214 1.854 2.635 1.854 5.849 0Zm0 19.562c.738-.42.738-.313 0-.74-3.214-1.86-2.635-1.86-5.849 0-.738.427-.732.32 0 .74 3.214 1.86 2.635 1.86 5.849 0Zm18.738-9.784c.733-.42.733-.313 0-.74-3.214-1.854-2.64-1.854-5.848 0-.739.427-.739.32 0 .74 3.185 1.86 2.612 1.86 5.825 0h.023Z" fill="#414042"/></g></svg>