<svg xmlns="http://www.w3.org/2000/svg" xmlns:xlink="http://www.w3.org/1999/xlink" viewBox="0 0 90 90"><defs><path id="a" d="M70 0H0v52h70z"/><path id="c" d="M63.204 0H0v45.412h63.204z"/><path id="e" d="M48.544 0H0v31.294h48.544z"/></defs><path fill="#FFF" d="M0 0h90v90H0z"/><path d="m44.924 42.977-.007-.015-4.866-10.588c-.873-1.901-2.801-3.028-4.82-3.021-2.05-.007-4.004 1.158-4.855 3.102l-5.27 12.028-.065.15-1.4 3.195-.855 1.951-1.639 3.741c-1.134 2.588.112 5.576 2.783 6.674 2.67 1.098 5.754-.109 6.888-2.696l1.118-2.551 2.389-5.454.061-.14.931-2.125.03-.066.018.04.988 2.151 3.707 8.067a5.133 5.133 0 0 0 2.286 2.4c.233.141.481.267.742.374 2.67 1.098 5.755-.109 6.888-2.696l2.451-5.594.922-2.106 1.156-2.636.02.042 1.07 2.33 3.623 7.886c1.18 2.568 4.286 3.723 6.936 2.58 2.65-1.144 3.842-4.153 2.662-6.72l-3.992-8.69-.005-.01-1.202-2.615-.632-1.376-3.775-8.215c-.874-1.901-2.802-3.028-4.82-3.021-2.052-.007-4.004 1.158-4.856 3.102l-3.466 7.912-1.144 2.61Z" fill="#FFF"/><g transform="translate(10 19)"><mask id="b" fill="#fff"><use xlink:href="#a"/></mask><path d="m34.917 23.962-9.755 4.213 9.755-4.213Zm.007.015-9.755 4.213 9.989 21.738 9.596-21.904-9.83-4.047Zm-9.683-13.624-.04 10.353h.079l-.04-10.353Zm-4.865 3.102 9.83 4.047-9.83-4.047Zm-5.27 12.028-9.83-4.047 9.83 4.047Zm-.065.15 9.83 4.046v-.001l-9.83-4.046Zm-1.4 3.195 9.83 4.047-9.83-4.047Zm-.855 1.951-9.83-4.047 9.83 4.047Zm-1.639 3.741 9.83 4.047-9.83-4.047Zm10.789 1.427-9.83-4.047 9.83 4.047Zm2.45-5.594 9.83 4.047-9.83-4.047Zm.931-2.125-9.829-4.05v.003l9.83 4.047Zm.03-.066 9.754-4.216-9.988-21.72-9.595 21.886 9.828 4.05Zm.018.04 9.755-4.214-.001-.002-9.754 4.215Zm.988 2.151-9.755 4.213 9.755-4.213Zm5.993 10.466 5.668-8.774-.28-.17-.288-.152-5.1 9.096Zm.742.375-4.17 9.53 4.17-9.53Zm11.417-13.032 9.755-4.213L44.271 2.21l-9.596 21.904 9.83 4.048Zm10.319-2.572-9.76 4.204.002.004.002.005 9.756-4.213Zm-.005-.01 9.76-4.204-.003-.004-.002-.005-9.755 4.213Zm-10.42-15.227-.04 10.353h.08l-.04-10.353ZM25.162 28.175l.007.015 19.51-8.425-.007-.016-19.51 8.426Zm-4.866-10.588 4.866 10.588 19.51-8.426-4.865-10.588-19.51 8.426Zm4.973 3.119c-2.057.007-4.062-1.138-4.973-3.12l19.511-8.425C37.15 3.378 31.287-.02 25.194 0l.075 20.706Zm4.936-3.204c-.887 2.027-2.918 3.21-5.01 3.204L25.268 0c-6.196-.02-12.132 3.493-14.723 9.408l19.66 8.094ZM24.936 29.53l5.27-12.027-19.66-8.094-5.27 12.028 19.66 8.093Zm-.065.149.066-.15-19.66-8.091-.066.15 19.66 8.091Zm-1.4 3.197 1.4-3.196-19.66-8.094-1.4 3.196 19.66 8.094Zm-.855 1.952.855-1.952-19.66-8.094-.855 1.951 19.66 8.095Zm-1.639 3.74 1.639-3.74-19.66-8.094-1.639 3.74 19.66 8.094Zm-2.876-6.903c2.757 1.133 4.05 4.223 2.876 6.903l-19.66-8.094c-3.441 7.855.344 16.921 8.442 20.252l8.342-19.061Zm-7.113 2.787c1.173-2.677 4.359-3.92 7.113-2.787l-8.342 19.06c8.096 3.33 17.449-.327 20.889-8.18l-19.66-8.093Zm1.118-2.551-1.118 2.55 19.66 8.095 1.117-2.551-19.66-8.094Zm2.389-5.454-2.39 5.454 19.66 8.094 2.39-5.454-19.66-8.094Zm.061-.14-.061.14 19.66 8.094.06-.14-19.659-8.094Zm.931-2.125-.93 2.125 19.66 8.094.93-2.125-19.66-8.094Zm.03-.069-.029.066 19.658 8.1.03-.067-19.658-8.099Zm19.602-.126-.018-.04-19.51 8.43.02.04 19.508-8.43Zm.99 2.154-.989-2.152-19.51 8.426.988 2.152 19.51-8.426Zm3.707 8.067-3.707-8.067-19.511 8.426 3.707 8.067 19.51-8.426Zm-2.37-2.484a5.354 5.354 0 0 1 2.37 2.484l-19.511 8.426c1.477 3.215 3.972 5.718 6.942 7.283l10.199-18.193Zm-.187-.06a5.4 5.4 0 0 1 .755.382l-11.335 17.55c.709.43 1.457.808 2.238 1.13l8.342-19.061Zm-7.113 2.788c1.173-2.677 4.36-3.92 7.113-2.787l-8.342 19.06c8.096 3.33 17.45-.327 20.89-8.18l-19.66-8.093Zm2.451-5.595-2.45 5.595 19.66 8.094 2.45-5.595-19.66-8.094Zm.923-2.105-.923 2.105 19.66 8.094.923-2.105-19.66-8.094Zm1.155-2.637-1.155 2.637 19.659 8.094 1.155-2.637-19.66-8.094Zm19.605-.122-.02-.043-19.51 8.425.019.043 19.511-8.425Zm1.07 2.329-1.07-2.33-19.511 8.426 1.07 2.33 19.51-8.426Zm3.624 7.886-3.624-7.886-19.511 8.425 3.624 7.887 19.51-8.426Zm-7.162-2.666c2.733-1.18 5.941.01 7.162 2.666l-19.51 8.426c3.58 7.792 12.997 11.29 21.032 7.825L51.812 31.54Zm-2.751 6.951c-1.222-2.66.015-5.77 2.751-6.951l8.684 18.917c8.038-3.467 11.658-12.596 8.076-20.391L49.06 38.492Zm-3.993-8.689 3.993 8.69 19.51-8.426-3.992-8.69-19.51 8.426Zm-.01-.02.006.01 19.52-8.406-.006-.01-19.52 8.406Zm-1.196-2.606 1.201 2.615 19.511-8.425-1.202-2.615-19.51 8.425Zm-.632-1.375.632 1.375 19.51-8.425-.631-1.375-19.511 8.425Zm-3.776-8.216 3.776 8.216 19.51-8.425-3.774-8.216-19.512 8.425Zm4.973 3.12c-2.057.007-4.062-1.138-4.973-3.12l19.512-8.425C56.308 3.378 50.446-.02 44.353 0l.074 20.706Zm4.936-3.204c-.887 2.027-2.917 3.21-5.01 3.204L44.427 0c-6.196-.02-12.132 3.493-14.723 9.408l19.66 8.094Zm-3.465 7.912 3.465-7.912-19.66-8.094-3.465 7.912 19.66 8.094Zm-1.144 2.61 1.144-2.61-19.66-8.094-1.144 2.61 19.66 8.094Z" mask="url(#b)"/></g><path d="m44.924 42.977-.007-.015-4.866-10.588c-.873-1.901-2.801-3.028-4.82-3.021-2.05-.007-4.004 1.158-4.855 3.102l-5.27 12.028-.065.15-1.4 3.195-.855 1.951-1.639 3.741c-1.134 2.588.112 5.576 2.783 6.674 2.67 1.098 5.754-.109 6.888-2.696l1.118-2.551 2.389-5.454.061-.14.931-2.125.03-.066.018.04.988 2.151 3.707 8.067a5.133 5.133 0 0 0 2.286 2.4c.233.141.481.267.742.374 2.67 1.098 5.755-.109 6.888-2.696l2.451-5.594.922-2.106 1.156-2.636.02.042 1.07 2.33 3.623 7.886c1.18 2.568 4.286 3.723 6.936 2.58 2.65-1.144 3.842-4.153 2.662-6.72l-3.992-8.69-.005-.01-1.202-2.615-.632-1.376-3.775-8.215c-.874-1.901-2.802-3.028-4.82-3.021-2.051-.007-4.004 1.158-4.856 3.102l-3.466 7.912-1.144 2.61Z" fill="#FFF"/><g transform="translate(13.398 22.294)"><mask id="d" fill="#fff"><use xlink:href="#c"/></mask><path d="m31.519 20.668-6.651 2.872 6.651-2.872Zm.007.015-6.651 2.873 6.81 14.82 6.543-14.933-6.702-2.76ZM21.842 7.06l-.026 7.059h.053l-.027-7.06ZM11.708 22.19l-6.702-2.76 6.702 2.76Zm-.065.15 6.702 2.758-6.702-2.759Zm-1.4 3.195 6.702 2.76-6.702-2.76Zm-.855 1.951-6.702-2.76v.001l6.702 2.76Zm8.032 7.719 6.702 2.759-6.702-2.76Zm3.568-8.145 6.702 2.76v-.001l-6.702-2.76Zm.931-2.125-6.701-2.761-.001.002 6.702 2.759Zm.03-.067 6.65-2.874-6.81-14.81-6.542 14.923 6.701 2.761Zm.018.04 6.651-2.872v-.001l-6.651 2.873Zm6.981 12.618 3.864-5.982-.19-.116-.197-.104-3.477 6.202Zm.742.375-2.844 6.498L29.69 37.9Zm10.261-10.396-6.702-2.76 6.702 2.76Zm1.156-2.637 6.651-2.872-6.81-14.822-6.544 14.935 6.703 2.76Zm10.319-2.57-6.655 2.865.002.003.001.003 6.652-2.872Zm-.005-.011 6.654-2.866-.001-.004-.002-.003-6.651 2.873ZM41 7.059l-.027 7.059h.054L41 7.058ZM24.868 23.54l.007.016 13.302-5.745-.007-.015-13.302 5.744Zm-4.866-10.588 4.866 10.588 13.302-5.744-4.865-10.589-13.303 5.745Zm1.857 1.166c-.76.002-1.514-.42-1.857-1.166l13.303-5.745C31.215 2.66 26.605-.016 21.808 0l.05 14.118Zm1.82-1.198c-.334.764-1.097 1.2-1.87 1.198L21.858 0c-4.877-.016-9.546 2.75-11.584 7.402L23.68 12.92Zm-5.268 12.028L23.68 12.92 10.275 7.402 5.006 19.429l13.405 5.519Zm-.066.149.066-.15L5.006 19.43l-.066.15 13.405 5.517Zm-1.4 3.196 1.4-3.196L4.941 19.58l-1.4 3.196 13.404 5.518Zm-.855 1.952.855-1.952L3.54 22.775l-.855 1.95 13.404 5.52Zm-1.639 3.74 1.639-3.74-13.404-5.519-1.64 3.74 13.405 5.52Zm-1.075-2.583c1.03.423 1.515 1.58 1.075 2.583L1.047 28.467c-2.707 6.179.27 13.31 6.641 15.931l5.688-12.996Zm-2.658 1.042c.439-1.002 1.63-1.465 2.658-1.042L7.688 44.398c6.37 2.62 13.728-.258 16.434-6.435l-13.404-5.519Zm1.117-2.55-1.117 2.55 13.404 5.519 1.118-2.551-13.405-5.519Zm2.39-5.454-2.39 5.453 13.405 5.519 2.389-5.453-13.405-5.519Zm.061-.14-.062.14 13.406 5.52.061-.14-13.404-5.52Zm.93-2.125-.93 2.124 13.404 5.519.931-2.125-13.404-5.518Zm.03-.069-.028.067 13.402 5.522.03-.067-13.403-5.522Zm13.371-.073-.018-.04-13.301 5.748.018.04 13.301-5.748Zm.99 2.153-.989-2.151-13.303 5.744.989 2.152 13.303-5.745Zm3.706 8.067-3.706-8.067-13.303 5.745 3.707 8.067 13.302-5.745Zm-.888-.93c.378.2.703.526.888.93l-13.302 5.745c1.162 2.53 3.124 4.498 5.46 5.73l6.954-12.405Zm.11.079a2 2 0 0 1 .277.14l-7.728 11.966a12.68 12.68 0 0 0 1.762.89l5.688-12.996Zm-2.659 1.042c.44-1.002 1.63-1.465 2.658-1.042l-5.688 12.996c6.37 2.62 13.728-.258 16.435-6.435l-13.405-5.519Zm2.45-5.594-2.45 5.594 13.405 5.519 2.45-5.594-13.404-5.519Zm.923-2.105-.922 2.105 13.404 5.519.922-2.106-13.404-5.518Zm1.155-2.637-1.155 2.637 13.404 5.518 1.156-2.636-13.405-5.519Zm13.374-.07-.02-.043-13.303 5.745.02.043 13.303-5.745Zm1.07 2.33-1.07-2.33-13.303 5.745 1.07 2.329 13.303-5.745Zm3.624 7.885-3.624-7.886-13.303 5.745 3.624 7.886 13.303-5.745Zm-2.677-.997c1.02-.44 2.22.003 2.677.997l-13.303 5.745c2.817 6.13 10.226 8.884 16.547 6.156l-5.92-12.898Zm-1.028 2.602c-.458-.997.006-2.16 1.028-2.602l5.921 12.898c6.324-2.728 9.171-9.909 6.354-16.041l-13.303 5.745Zm-3.993-8.69 3.993 8.69 13.303-5.745-3.993-8.69-13.303 5.745Zm-.008-.017.005.011L58.08 19.43l-.005-.01-13.309 5.731Zm-1.199-2.608 1.202 2.615 13.303-5.745-1.202-2.615-13.303 5.745Zm-.631-1.375.631 1.375 13.303-5.745-.632-1.375-13.302 5.745Zm-3.776-8.216 3.776 8.216 13.302-5.745-3.775-8.216-13.303 5.745Zm1.857 1.166c-.76.002-1.514-.42-1.857-1.166l13.303-5.745C50.373 2.66 45.763-.016 40.967 0l.05 14.118Zm1.821-1.198c-.334.764-1.097 1.2-1.871 1.198L41.017 0c-4.877-.016-9.546 2.75-11.583 7.402l13.404 5.518Zm-3.466 7.912 3.466-7.912-13.404-5.518-3.466 7.911 13.404 5.519Zm-1.144 2.61 1.144-2.61-13.404-5.519-1.144 2.611 13.404 5.519Z" fill="#FFF" mask="url(#d)"/></g><g transform="translate(20.728 29.306)"><mask id="f" fill="#fff"><use xlink:href="#e"/></mask><g mask="url(#f)"><path d="m42.257 11.247 5.831 12.69c1.18 2.568-.012 5.577-2.662 6.72-2.65 1.143-5.756-.012-6.936-2.58L33.776 17.82 31.7 22.561V11.247h10.558Z" fill="#2AA8FF"/><path d="m42.889 12.622 1.206 2.626a7.284 7.284 0 0 0-2.326-.379c-3.367 0-6.185 2.275-6.903 5.322l-1.09-2.372-1.155 2.637v-7.834H42.89Z" fill-opacity=".2" fill="#393939"/><path d="M25.34 11.024v8.987h-9.715l-1.007-2.192-.96 2.192H2.913v-1.525L9.647 3.113C10.5 1.169 12.452.003 14.503.011c2.018-.007 3.947 1.12 4.82 3.02l4.873 10.604 1.144-2.61Z" fill="#017ACE"/><path d="m24.189 13.62.007.015 4.61-10.522c.851-1.944 2.804-3.11 4.856-3.102 2.018-.007 3.946 1.12 4.82 3.02l5.608 12.206a6.55 6.55 0 0 0-4.216-1.518c-2.8 0-5.184 1.727-6.078 4.143l-.02-.043-4.528 10.336c-1.133 2.588-4.217 3.795-6.888 2.697a5.373 5.373 0 0 1-.742-.375 5.133 5.133 0 0 1-2.286-2.4L14.636 17.86a8.309 8.309 0 0 0 2.226.301c3.248 0 6.047-1.86 7.327-4.54Z" fill="#AEDEFF"/><path d="m14.589 17.886-3.382 7.718a6.665 6.665 0 0 1-2.712.571c-3.398 0-6.183-2.513-6.437-5.738l2.32-5.297a6.56 6.56 0 0 1 4.117-1.435c2.816 0 5.212 1.746 6.094 4.18Z"/><path d="m13.597 20.151-3.507 8.004c-1.134 2.588-4.218 3.795-6.888 2.697-2.67-1.099-3.917-4.087-2.783-6.674l3.894-8.888a6.823 6.823 0 0 1 2.694-.55c3.31 0 6.058 2.34 6.59 5.411Z" fill="#393939"/></g></g></svg>