<svg viewBox="0 0 90 90" xmlns="http://www.w3.org/2000/svg"><g fill="none" fill-rule="evenodd"><path fill="#146FF4" d="M0 0h90v90H0z"/><g fill="#FFF" fill-rule="nonzero"><path d="M43.104 33c-4.01 0-6.723 1.897-7.807 4.056a.103.103 0 0 1-.184 0C33.993 34.815 31.577 33 27.987 33c-2.922 0-5.212 1.079-6.829 3.567a.09.09 0 0 1-.075.042.089.089 0 0 1-.089-.078l-.313-2.543a.556.556 0 0 0-.555-.484h-4.568a.555.555 0 0 0-.558.55V56.45c0 .304.25.551.558.551h5.952a.555.555 0 0 0 .559-.55V45.293c0-3.609 1.32-6.126 4.3-6.126 2.214 0 3.492 1.175 3.492 4.867V56.45c0 .304.25.551.558.551h5.91a.555.555 0 0 0 .558-.55V45.293c0-3.65 1.32-6.126 4.3-6.126 2.215 0 3.492 1.175 3.492 4.867V56.45c0 .304.25.551.559.551h5.952a.555.555 0 0 0 .558-.55v-15.06c0-2.476-1.32-8.392-8.644-8.392Z"/><path d="M67.94 45.413a.544.544 0 0 1-.01-.58l6.346-10.497a.55.55 0 0 0-.48-.832h-6.883a.559.559 0 0 0-.503.312l-2.837 5.828a.562.562 0 0 1-1.007 0l-2.836-5.828a.559.559 0 0 0-.503-.312h-6.884a.55.55 0 0 0-.48.832l6.346 10.498a.544.544 0 0 1-.01.579l-6.97 10.74a.55.55 0 0 0 .47.847h6.95a.56.56 0 0 0 .492-.288l3.438-6.247a.562.562 0 0 1 .982 0l3.438 6.247a.56.56 0 0 0 .49.288h6.952a.55.55 0 0 0 .47-.848l-6.971-10.74Z"/></g></g></svg>