<svg xmlns="http://www.w3.org/2000/svg" viewBox="0 0 90 90"><path fill="#FFF" d="M0 0h90v90H0z"/><path fill="#1F1F30" d="M56.24 68.45c.6-3.77-.74-7.59-3.57-10.15a11.3 11.3 0 00-7.64-2.97 10.41 10.41 0 01-9.2-5.61c.57-1.5.86-3.1.86-4.72a8.33 8.33 0 008.43 8.34 8.34 8.34 0 008.2-8.34 13.21 13.21 0 013.82-9.34 13.29 13.29 0 0110.19-3.98 26.2 26.2 0 00-8.97-8.98c.15 3.1-.79 6.16-2.66 8.64-.52-.42-1.07-.8-1.65-1.15a11.26 11.26 0 001.48-11.15A11.36 11.36 0 0045.33 12h-.6a33.13 33.13 0 00-31.6 24.41A13.26 13.26 0 0010 44.65 35.01 35.01 0 0144.67 10h.85A35.01 35.01 0 0180 44.65v.72a13.34 13.34 0 01-21.35 10.3c-.87 1.11-1.86 2.11-2.97 2.97l.03.03a13.26 13.26 0 012.65 8.64 26.2 26.2 0 008.97-8.98 13.5 13.5 0 002.48-.36 28.2 28.2 0 01-14.34 13A27.86 27.86 0 0144.97 73a6.33 6.33 0 01-4.1-11.15c1.34.32 2.72.49 4.1.48a4.34 4.34 0 10.06 8.67 4.34 4.34 0 000-8.67c-5.34.01-10.4-2.45-13.67-6.67.53-.4 1.04-.84 1.5-1.32a15.3 15.3 0 0012.17 6 6.32 6.32 0 015.04 10.16c2.14-.42 4.2-1.11 6.17-2.05zM70.5 39.97c-.41-2.13-1.1-4.2-2.03-6.16-3.79-.62-7.62.72-10.2 3.56A11.27 11.27 0 0055.32 45c0 1.64-.38 3.26-1.13 4.72a10.41 10.41 0 01-4.46 4.47h.03c1.74.66 3.3 1.67 4.6 2.94A15.26 15.26 0 0060.32 45a6.33 6.33 0 0110.18-5.03zm.5 4.85a4.33 4.33 0 10-8.66.34 4.33 4.33 0 008.65-.34zm-9.17 4.28c-.42 1.74-1.1 3.4-2.04 4.92a11.27 11.27 0 0011.16 1.47c4.16-1.7 6.92-5.7 7.04-10.19V45v-.3c-.02-2.8-.4-5.58-1.13-8.28a33.13 33.13 0 00-23.2-23.26c2.16 1.83 3.69 4.3 4.35 7.06a28.18 28.18 0 0112.94 14.3A27.8 27.8 0 0173 45a6.33 6.33 0 01-11.16 4.1zM44.48 80a35.01 35.01 0 01-34.47-34.64L10 45v-.36a13.34 13.34 0 0121.35-10.3c.87-1.11 1.86-2.1 2.97-2.97a13.26 13.26 0 01-2.68-8.67 26.2 26.2 0 00-8.97 8.98c-.83.05-1.67.16-2.48.36a28.2 28.2 0 0114.34-13A27.86 27.86 0 0145.03 17a6.33 6.33 0 014.1 11.16c-1.34-.33-2.72-.5-4.1-.5a4.34 4.34 0 000-8.66h-.06a4.34 4.34 0 000 8.67c5.34 0 10.4 2.46 13.67 6.67a13 13 0 00-1.5 1.33 15.3 15.3 0 00-12.17-6 6.31 6.31 0 01-5.04-10.17c-2.14.42-4.2 1.11-6.17 2.05-.6 3.77.74 7.59 3.57 10.15a11.3 11.3 0 007.64 2.97 10.41 10.41 0 019.2 5.61c-.57 1.51-.86 3.11-.86 4.72a8.33 8.33 0 00-8.43-8.33 8.34 8.34 0 00-8.2 8.33 13.24 13.24 0 01-3.82 9.34 13.29 13.29 0 01-10.19 3.98 26.2 26.2 0 008.97 8.98c-.15-3.1.79-6.15 2.66-8.63.52.41 1.07.79 1.65 1.14a11.26 11.26 0 00-1.48 11.15A11.36 11.36 0 0044.97 78h.3a33.13 33.13 0 0031.6-24.41c1.95-2.31 3.05-5.21 3.13-8.23A35.01 35.01 0 0145.33 80h-.85zm-8.13-3.16a13.32 13.32 0 01-4.36-7.06 28.18 28.18 0 01-12.94-14.29A27.78 27.78 0 0117 45a6.33 6.33 0 0111.16-4.1c.42-1.74 1.1-3.4 2.04-4.92a11.27 11.27 0 00-11.16-1.47 11.35 11.35 0 00-7.04 10.19v.3c-.01 2.9.37 5.79 1.13 8.58a33.13 33.13 0 0023.2 23.26zM21.53 56.2a11.28 11.28 0 0010.18-3.56A11.27 11.27 0 0034.7 45c0-1.7.4-3.3 1.13-4.72a10.41 10.41 0 014.46-4.46l-.03-.01a13.25 13.25 0 01-4.6-2.94A15.26 15.26 0 0029.68 45a6.33 6.33 0 01-10.18 5.03 25.83 25.83 0 002.03 6.16zm-2.52-11a4.34 4.34 0 108.65-.54 4.34 4.34 0 00-8.65.54z"/></svg>