<svg viewBox="0 0 90 90" xmlns="http://www.w3.org/2000/svg"><defs><linearGradient x1="82.069%" y1="6.895%" x2="19.486%" y2="97.944%" id="a"><stop stop-color="#EAFF07" offset="0%"/><stop stop-color="#05EFFC" offset="100%"/></linearGradient></defs><g fill="none"><path fill="#FFF" d="M0 0h90v90H0z"/><path d="M45 10.25c-19.671 0-34.75 14.514-34.75 33.77 0 9.863 3.964 18.734 10.941 24.976a.891.891 0 0 1 .305.64l.186 5.867a4.397 4.397 0 0 0 6.15 3.88l6.561-2.892a.89.89 0 0 1 .595-.047c3.26.892 6.63 1.342 10.015 1.336 19.67 0 34.747-14.507 34.747-33.76 0-19.063-14.77-33.47-34.16-33.765L45 10.25Z" fill="#000"/><path d="M45 13.75c17.776.008 31.25 12.978 31.25 30.27 0 17.29-13.48 30.26-31.25 30.26a34.247 34.247 0 0 1-9.093-1.213 4.39 4.39 0 0 0-2.93.223l-6.551 2.888a.892.892 0 0 1-1.246-.791l-.186-5.866a4.388 4.388 0 0 0-1.476-3.14C17.29 60.81 13.75 52.889 13.75 44.02c0-17.292 13.483-30.27 31.25-30.27Z" fill="url(#a)"/><path d="m59.45 31.569-8.836 6.894-6.285-4.84a8.087 8.087 0 0 0-6.446-1.55 8.184 8.184 0 0 0-5.444 3.773l-9.182 14.972-.098.166c-2.652 4.65 2.994 9.88 7.392 6.454l8.84-6.898 6.282 4.832a8.086 8.086 0 0 0 6.445 1.547 8.184 8.184 0 0 0 5.444-3.772l9.183-14.967c2.873-4.698-2.85-10.094-7.295-6.611Z" fill="#000"/><path d="m63.76 36.354-9.18 14.96a4.684 4.684 0 0 1-3.113 2.166 4.588 4.588 0 0 1-3.66-.883l-7.3-5.614a1.83 1.83 0 0 0-2.255.008L28.4 54.677c-1.32 1.027-3.04-.599-2.16-2.03l9.18-14.97a4.684 4.684 0 0 1 3.114-2.165 4.588 4.588 0 0 1 3.66.883l7.3 5.623a1.83 1.83 0 0 0 2.255 0l9.86-7.694c1.31-1.028 3.03.592 2.15 2.03Z" fill="#FFF"/></g></svg>