<svg viewBox="0 0 90 90" xmlns="http://www.w3.org/2000/svg"><defs><radialGradient cx="19.241%" cy="99.473%" fx="19.241%" fy="99.473%" r="108.965%" id="a"><stop stop-color="#09F" offset="0%"/><stop stop-color="#A033FF" offset="61%"/><stop stop-color="#FF5280" offset="94%"/><stop stop-color="#FF7061" offset="100%"/></radialGradient></defs><g fill="none" fill-rule="evenodd"><path d="M45 0C19.654 0 0 18.571 0 43.663c0 13.11 5.369 24.446 14.124 32.28a3.594 3.594 0 0 1 1.21 2.57l.254 8.006a3.606 3.606 0 0 0 5.046 3.18l8.94-3.94c.754-.335 1.6-.4 2.396-.184A49.08 49.08 0 0 0 45 87.315c25.346 0 45-18.56 45-43.652C90 18.57 70.357.012 45 .012V0Z" fill="url(#a)"/><path d="m17.972 56.428 13.226-20.98a6.751 6.751 0 0 1 9.758-1.796l10.519 7.88a2.696 2.696 0 0 0 3.249 0l14.205-10.784c1.889-1.44 4.366.83 3.099 2.846L58.802 54.56a6.751 6.751 0 0 1-9.758 1.798L38.525 48.49a2.696 2.696 0 0 0-3.249.012L21.083 59.273c-1.901 1.44-4.378-.83-3.11-2.834v-.011Z" fill="#FFF"/></g></svg>