<svg xmlns="http://www.w3.org/2000/svg" viewBox="0 0 90 90"><defs><linearGradient x1="50%" y1="0%" x2="50%" y2="100%" id="a"><stop stop-color="#FEF5E4" offset="0%"/><stop stop-color="#EBCEAE" offset="100%"/></linearGradient></defs><path fill="url(#a)" d="M0 0h90v90H0z"/><g stroke-linecap="round" stroke-linejoin="round" stroke-width=".521"><path stroke="#E17726" fill="#E17726" d="M76.544 13 49.185 33.315l5.101-11.976z"/><path d="m13.456 13 27.11 20.482-4.852-12.122L13.456 13Zm53.24 47.088L59.407 71.25l15.595 4.306 4.456-15.216-12.764-.25h0Zm-56.134.251 4.435 15.216 15.553-4.306-7.245-11.16-12.743.25h0Z" stroke="#E27625" fill="#E27625"/><path d="m29.717 41.236-4.33 6.563 15.407.71-.5-16.657-10.577 9.405v-.02Zm30.566.021-10.744-9.614-.354 16.867 15.408-.711-4.31-6.542h0ZM30.55 71.25l9.349-4.514-8.037-6.27L30.55 71.25Zm19.572-4.535 9.286 4.535-1.25-10.805-8.036 6.27Z" stroke="#E27625" fill="#E27625"/><path d="m59.408 71.25-9.286-4.515.75 6.06-.084 2.572 8.62-4.118Zm-28.858 0 8.662 4.117-.063-2.571.75-6.061-9.349 4.514Z" stroke="#D5BFB2" fill="#D5BFB2"/><path d="m39.358 56.43-7.704-2.256 5.455-2.508 2.27 4.765h-.021Zm11.264 0 2.29-4.785 5.476 2.508-7.766 2.299v-.021Z" stroke="#233447" fill="#233447"/><path d="m30.55 71.25 1.354-11.162-8.6.251 7.246 10.91Zm27.546-11.162 1.312 11.161 7.287-10.91-8.599-.25ZM64.613 47.8l-15.407.71 1.416 7.943 2.29-4.807 5.476 2.508 6.225-6.354h0Zm-32.96 6.375 5.456-2.508 2.27 4.765 1.436-7.942-15.408-.69 6.247 6.375h0Z" stroke="#CC6228" fill="#CC6228"/><path d="m25.407 47.799 6.455 12.645-.208-6.27-6.247-6.375Zm32.98 6.375-.249 6.27 6.455-12.645-6.205 6.375ZM40.816 48.51l-1.457 7.942 1.832 9.363.416-12.352-.791-4.953Zm8.37 0-.75 4.932.375 12.373 1.812-9.384-1.437-7.942v.02Z" stroke="#E27525" fill="#E27525"/><path d="m50.622 56.43-1.812 9.385 1.312.92 8.016-6.27.25-6.291-7.766 2.257Zm-18.968-2.256.208 6.27 8.037 6.27 1.29-.899-1.81-9.384-7.746-2.257h.02Z" stroke="#F5841F" fill="#F5841F"/><path stroke="#C0AC9D" fill="#C0AC9D" d="m50.809 75.367.063-2.571-.708-.585H39.836l-.687.585.063 2.57-8.662-4.117 3.04 2.508L39.732 78h10.515l6.163-4.264 2.998-2.487-8.62 4.118z"/><path stroke="#161616" fill="#161616" d="m50.122 66.714-1.312-.899h-7.62l-1.291.92-.75 6.06.687-.584h10.328l.708.585-.75-6.061z"/><path d="M77.71 34.632 80 23.45 76.544 13 50.1 32.646l10.182 8.59 14.366 4.201 3.165-3.7-1.374-1.002 2.186-2.007-1.666-1.296 2.186-1.672-1.457-1.128h.02ZM10 23.429l2.332 11.203-1.5 1.108 2.229 1.672-1.666 1.316 2.165 2.007-1.374 1.003 3.165 3.7 14.366-4.18L39.9 32.624 13.456 13 10 23.43Z" stroke="#763E1A" fill="#763E1A"/><path d="m74.649 45.437-14.366-4.18 4.33 6.542-6.454 12.645 8.536-.105H79.46l-4.81-14.902Zm-44.932-4.2-14.366 4.2-4.789 14.902h12.763l8.537.105-6.455-12.645 4.331-6.563h-.02Zm19.468 7.273.937-15.885 4.164-11.286H35.714l4.164 11.286.937 15.885.354 4.974v12.331h7.641l.042-12.331.333-4.974Z" stroke="#F5841F" fill="#F5841F"/></g></svg>