<svg viewBox="0 0 90 90" xmlns="http://www.w3.org/2000/svg"><defs><linearGradient x1="13.878%" y1="55.978%" x2="89.144%" y2="58.758%" id="a"><stop stop-color="#0064E1" offset="0%"/><stop stop-color="#0064E1" offset="40%"/><stop stop-color="#0073EE" offset="83%"/><stop stop-color="#0082FB" offset="100%"/></linearGradient><linearGradient x1="54.315%" y1="82.782%" x2="54.315%" y2="39.307%" id="b"><stop stop-color="#0082FB" offset="0%"/><stop stop-color="#0064E0" offset="100%"/></linearGradient></defs><g fill="none"><path d="M9.721 54.569c0 3.449.754 6.097 1.74 7.7 1.293 2.097 3.22 2.986 5.186 2.986 2.535 0 4.855-.63 9.324-6.835 3.58-4.973 7.8-11.953 10.638-16.329l4.807-7.414c3.34-5.148 7.205-10.872 11.637-14.751C56.67 16.759 60.573 15 64.502 15c6.594 0 12.876 3.836 17.683 11.03C87.446 33.907 90 43.83 90 54.071c0 6.088-1.196 10.562-3.23 14.096C84.805 71.585 80.974 75 74.53 75v-9.745c5.517 0 6.894-5.089 6.894-10.913 0-8.3-1.928-17.51-6.175-24.09-3.014-4.669-6.92-7.521-11.217-7.521-4.648 0-8.388 3.518-12.59 9.792-2.236 3.332-4.53 7.394-7.106 11.978l-2.835 5.041C35.805 59.68 34.36 61.988 31.514 65.8c-4.992 6.671-9.255 9.2-14.867 9.2-6.657 0-10.866-2.893-13.473-7.253C1.045 64.194 0 59.532 0 54.22l9.721.349Z" fill="#0081FB"/><path d="M7.665 11.717C12.122 4.822 18.553 0 25.93 0c4.272 0 8.52 1.27 12.954 4.904 4.852 3.973 10.022 10.517 16.472 21.301l2.313 3.87c5.584 9.337 8.76 14.14 10.62 16.405 2.39 2.908 4.065 3.775 6.24 3.775 5.518 0 6.895-5.089 6.895-10.913l8.576-.27c0 6.088-1.196 10.562-3.23 14.096C84.805 56.585 80.974 60 74.53 60c-4.007 0-7.556-.873-11.48-4.59-3.018-2.852-6.545-7.919-9.258-12.474L45.72 29.403c-4.05-6.791-7.765-11.855-9.915-14.149-2.313-2.466-5.286-5.444-10.031-5.444-3.84 0-7.102 2.705-9.83 6.842l-8.28-4.935Z" fill="url(#a)" transform="translate(0 15)"/><path d="M25.774 9.81c-3.84 0-7.102 2.705-9.83 6.842-3.86 5.846-6.223 14.554-6.223 22.917 0 3.449.754 6.097 1.74 7.7l-8.287 5.478C1.045 49.194 0 44.532 0 39.22c0-9.66 2.642-19.728 7.665-27.503C12.122 4.822 18.553 0 25.93 0l-.156 9.81Z" fill="url(#b)" transform="translate(0 15)"/></g></svg>