<svg xmlns="http://www.w3.org/2000/svg" viewBox="0 0 90 90"><path fill="#FFF" d="M0 0h90v90H0z"/><path d="M72.895 62.733a7.185 7.185 0 1 1-10.162 10.163c-2.806-2.807-50.42-54.97-47.614-57.777 2.806-2.806 54.97 44.808 57.776 47.614ZM32.092 51.11l.905.765c6.92 5.863 13.392 11.693 14.253 12.554a4.79 4.79 0 0 1-6.775 6.775c-.15-.15-.45-.47-.874-.931l-.34-.373c-5.455-5.98-25.825-29.144-24.142-30.828.973-.972 9.117 5.417 16.973 12.038Zm22.59-25.095.908.761.907.764c7.088 5.99 13.825 12.057 14.704 12.936a4.79 4.79 0 1 1-6.774 6.775c-.15-.15-.45-.47-.874-.931l-.342-.373c-2.242-2.458-7.005-7.82-11.72-13.401l-.764-.907-.76-.907c-6.192-7.411-11.812-14.695-10.895-15.612.916-.916 8.2 4.704 15.61 10.895Z" fill="#F6683D"/></svg>