<svg viewBox="0 0 90 90" xmlns="http://www.w3.org/2000/svg"><defs><linearGradient x1="-8.044%" y1="40.437%" x2="85.161%" y2="67.968%" id="a"><stop stop-color="#264CA1" stop-opacity="0" offset="0%"/><stop stop-color="#234588" offset="100%"/></linearGradient></defs><g fill="none"><rect fill="#FFF" width="90" height="90" rx="11.25"/><path d="M77.146 52.33 62.275 26.533c-3.26-5.377-11.21-5.434-14.356.228L32.304 53.587c-2.917 4.92.687 11.096 6.52 11.096h31.287c5.89 0 10.295-6.348 7.035-12.354Z" fill="#3156AA"/><path d="m55.698 54.331-.914-1.601c-.859-1.487-2.746-4.69-2.746-4.69L39.455 26.19c-3.26-4.86-10.982-5.261-14.242.859L10.571 52.386c-3.031 5.32.572 12.24 7.15 12.298h52.277c-8.065.057-10.639-4.118-14.3-10.353Z" fill="#1972E2"/><path d="m55.7 54.33-.916-1.602c-.857-1.487-2.745-4.69-2.745-4.69L43.917 33.74 32.25 53.643c-2.917 4.919.686 11.096 6.52 11.096H70c-8.122-.057-10.639-4.175-14.3-10.41Z" fill="url(#a)"/></g></svg>