<svg xmlns="http://www.w3.org/2000/svg" viewBox="0 0 90 90"><path fill="#0043CE" d="M0 0h90v90H0z"/><path d="m50.434 69.968-10.81.02-.03-16.323c.243-4.408-2.425-7.872-6.894-8.04-2.706-.1-7.062 2.083-6.864 7.767.33 1.935 1.596 3.967 3.379 4.988.864.43 1.89.725 3.07.892.144.01.292.015.442.016v.04l.061.006L32.763 70h-.017c-11.679-.26-17.865-9.492-17.722-18.2v-.517a4634.161 4634.161 0 0 0-.013-6.588c-.001-.108 0-.218.004-.331L15 37.144c.205-9.482 8.03-17.127 17.653-17.144 9.345-.017 17.02 7.167 17.675 16.268l.045.022a17.752 17.752 0 0 1 6.875-1.388h.115c9.71.043 17.588 7.86 17.605 17.495l.007 4.664c.011 8.13.01 10.19.025 12.864l-10.81.019-.033-17.615c-.106-3.588-2.855-6.43-6.432-6.716l-.956.001-.044.005a7.93 7.93 0 0 0-.92.148 7.192 7.192 0 0 0-1.63.577 6.768 6.768 0 0 0-3.772 6.097l.03 17.527ZM25.792 40.602c1.41-.002 2.558 1.131 2.56 2.53.003 1.398-1.14 2.535-2.551 2.538-1.411.002-2.559-1.131-2.561-2.53-.003-1.398 1.14-2.535 2.552-2.538Z" fill="#FFF"/></svg>