<svg xmlns="http://www.w3.org/2000/svg" viewBox="0 0 90 90"><path fill="#FFF" d="M0 0h90v90H0z"/><path d="M75 50.11a13.813 13.813 0 0 0-4.903-10.63 13.744 13.744 0 0 0-11.288-3.026 18.446 18.446 0 0 0-18.554-9.29 18.473 18.473 0 0 0-15.457 13.862c-5.967.907-10.226 6.274-9.764 12.306.462 6.031 5.488 10.684 11.523 10.668h35.06c7.473-.244 13.4-6.396 13.383-13.89Z" fill="#023E5A"/><path d="M25.013 56.314V45.277h2.04a.917.917 0 0 1 .514.137c.144.1.248.248.294.418l.175.594a9.05 9.05 0 0 1 .574-.529c.204-.157.422-.294.651-.411.24-.118.49-.21.75-.274.286-.068.579-.1.873-.098a2.55 2.55 0 0 1 1.648.516c.448.363.792.838.997 1.378.166-.327.386-.623.652-.875.256-.236.546-.432.86-.582.31-.151.638-.263.977-.333.336-.07.68-.105 1.023-.104a4.597 4.597 0 0 1 1.674.28c.465.175.884.455 1.225.817.34.376.596.822.75 1.306a5.76 5.76 0 0 1 .254 1.776v7.02h-3.258v-7.007c0-1.143-.482-1.717-1.46-1.717a1.497 1.497 0 0 0-1.107.444 1.7 1.7 0 0 0-.443 1.306v6.975h-3.317v-7.008A1.89 1.89 0 0 0 30.988 48a1.457 1.457 0 0 0-1.095-.385c-.292.002-.58.071-.84.202a3.258 3.258 0 0 0-.75.542v7.955h-3.29ZM47.277 42.26c.002.257-.053.512-.163.744a1.88 1.88 0 0 1-.43.601c-.19.178-.411.32-.652.418a1.95 1.95 0 0 1-.782.157 1.814 1.814 0 0 1-.749-.157 2.032 2.032 0 0 1-.652-.418 1.785 1.785 0 0 1-.58-1.345c0-.258.052-.513.15-.751a1.902 1.902 0 0 1 1.082-1.032c.237-.099.492-.15.75-.15.267-.001.533.05.781.15.48.188.867.56 1.075 1.032.112.234.17.491.17.75Zm-.385 3.017v11.037h-3.258V45.277h3.258Zm6.262 0v11.056a5.32 5.32 0 0 1-.196 1.463 2.969 2.969 0 0 1-1.837 2.018 4.954 4.954 0 0 1-1.831.294 5.385 5.385 0 0 1-.75-.046 6.223 6.223 0 0 1-.71-.144l.105-1.737a.47.47 0 0 1 .15-.326.839.839 0 0 1 .508-.105c.219.005.438-.017.651-.065a.768.768 0 0 0 .385-.222.948.948 0 0 0 .202-.431 3.45 3.45 0 0 0 .058-.699V45.277h3.265Zm.384-3.024c.003.258-.053.512-.163.745a1.802 1.802 0 0 1-.436.6c-.19.179-.411.32-.652.419a1.95 1.95 0 0 1-.782.156 1.788 1.788 0 0 1-.75-.156 2.143 2.143 0 0 1-.65-.418 1.96 1.96 0 0 1-.424-.601 1.787 1.787 0 0 1-.124-.738 1.82 1.82 0 0 1 .15-.751c.103-.23.247-.44.423-.62a2 2 0 0 1 .652-.412c.23-.098.479-.149.73-.15.267 0 .533.05.781.15a1.96 1.96 0 0 1 1.088 1.032c.108.235.162.492.157.75v-.006Zm2.437 14.061V45.277h2.052a.917.917 0 0 1 .515.137.74.74 0 0 1 .293.418l.189.653c.215-.196.43-.379.651-.548a4.07 4.07 0 0 1 .724-.431c.27-.12.552-.214.84-.281.324-.068.654-.1.984-.098a3.85 3.85 0 0 1 1.596.313c.45.199.851.496 1.173.869.326.382.572.826.723 1.306a5.71 5.71 0 0 1 .241 1.678v7.02H62.7v-7.007a1.923 1.923 0 0 0-.372-1.26c-.27-.32-.677-.49-1.094-.457-.353-.002-.7.079-1.017.235a4.05 4.05 0 0 0-.912.653v7.837h-3.33Z" fill="#FFF"/></svg>