<svg viewBox="0 0 90 90" xmlns="http://www.w3.org/2000/svg"><g fill="none"><path d="M80.139 74.993h2.467c.48-.013.958-.076 1.426-.188a3.657 3.657 0 0 0 2.313-1.888c.255-.488.437-1.01.54-1.551.112-.633.175-1.273.188-1.915a9.952 9.952 0 0 0-.142-2.218 5.863 5.863 0 0 0-.513-1.643 3.7 3.7 0 0 0-2.093-1.915 5.126 5.126 0 0 0-1.727-.306h-2.467l.008 11.624Zm9.845-5.04c-.032 1.156-.26 2.3-.675 3.381a6.292 6.292 0 0 1-1.43 2.207A6.068 6.068 0 0 1 85.412 77a8.018 8.018 0 0 1-2.147.383h-6.037s-.03-16.297 0-16.45h5.543a8.647 8.647 0 0 1 2.826.456 5.946 5.946 0 0 1 3.512 3.133c.325.693.558 1.426.694 2.179.158 1.072.221 2.157.189 3.24m-39.941-.674v.613c.014.664.087 1.325.22 1.976a5.6 5.6 0 0 0 .594 1.632 3.203 3.203 0 0 0 1.985 1.59 4.5 4.5 0 0 0 1.808.106 3.208 3.208 0 0 0 2.444-1.6 5.809 5.809 0 0 0 .698-1.958 12.94 12.94 0 0 0 .204-2.279 14.998 14.998 0 0 0-.066-1.612 9.32 9.32 0 0 0-.28-1.632 4.933 4.933 0 0 0-.726-1.6 3.083 3.083 0 0 0-1.73-1.23 4.426 4.426 0 0 0-2.248-.03 3.04 3.04 0 0 0-1.507.861 3.995 3.995 0 0 0-.798 1.249 7.684 7.684 0 0 0-.513 2.11 14.08 14.08 0 0 0-.085 1.804m4.171-8.568h.158c.597.017 1.19.103 1.766.257 1.01.26 1.928.79 2.656 1.532a6.45 6.45 0 0 1 1.291 1.968c.312.737.532 1.509.656 2.298.145.97.198 1.951.158 2.93-.02 1-.157 1.993-.409 2.961a7.708 7.708 0 0 1-1.037 2.352 5.736 5.736 0 0 1-3.515 2.413 8.122 8.122 0 0 1-1.666.21 8.308 8.308 0 0 1-2.313-.233 5.794 5.794 0 0 1-2.52-1.337 6.2 6.2 0 0 1-1.358-1.842 8.77 8.77 0 0 1-.717-2.122c-.147-.72-.234-1.45-.262-2.183a16.15 16.15 0 0 1 .05-2.245c.085-1.05.325-2.083.713-3.064a6.535 6.535 0 0 1 1.222-1.96 5.671 5.671 0 0 1 2.525-1.594 7.62 7.62 0 0 1 2.009-.33h.17l.423-.01ZM0 60.952h4.24C5.32 64.839 7.567 72.63 7.567 72.63h.073s2.267-7.787 3.35-11.682h4.302c.023.08 0 16.442 0 16.442h-2.486V64.242h-.112s-2.698 8.77-3.947 13.16H6.515C5.273 73.017 2.66 64.246 2.66 64.246h-.127v13.152H0V60.952Zm66.11 7.319s2.76.023 3.559-.057c.398-.041.788-.14 1.156-.295a1.868 1.868 0 0 0 1.107-1.31c.116-.476.13-.97.042-1.452a2.251 2.251 0 0 0-.385-.961 2.21 2.21 0 0 0-1.157-.766 4.165 4.165 0 0 0-1.099-.16c-.439-.02-3.2 0-3.2 0l-.022 5.001Zm2.961 2.317h-2.96v6.806h-2.984V60.925H69.8c.722.01 1.44.115 2.135.31.644.196 1.231.54 1.716 1.004.497.49.86 1.097 1.056 1.766.214.716.295 1.464.24 2.21a4.39 4.39 0 0 1-.46 1.723 3.782 3.782 0 0 1-2.143 1.869c-.162.061-.331.107-.509.169 1.218 2.466 2.44 4.925 3.666 7.403h-3.284l-3.146-6.79Zm-33.009-9.636H46.46v2.398h-7.475v4.27h5.578l-.004 2.41h-5.574l-.008 7.364h-2.914zm-8.978 13.872h7.282l.012 2.57h-10.2V60.952h2.906zm-8.777-13.872h2.907v16.442h-2.907z" fill="#384044"/><path d="M22.389 49.642c.482-.333.74-.44.852-.735.112-.295.331-.67.52-.67.19 0 .386.474.336.693-.05.218-.748.704-.771.884-.023.18-.22 1.15-.22 1.15a.74.74 0 0 0 .478-.039 7.012 7.012 0 0 0 1.446-1.214c.296-.333 1.522-2.428 2.15-3.351.629-.923 1.411-2.65 1.859-3.237.447-.586.701-1.18 1.033-1.532.331-.352.297.437.408.701.112.264-.038.586-.038.808.035.5.133.995.293 1.47a.95.95 0 0 0 .89 0c.185-.187.89-1.064 1.376-1.585a14.602 14.602 0 0 0 1.442-1.689c.297-.478.482-1.624.594-2.298a15.28 15.28 0 0 1 .624-2.466c.154-.226.228-.923.336-.958.108-.034.385.996.632 1.398.247.402 1.299-.402 1.542-.7a7.92 7.92 0 0 1 1.542-1.104c.73-.334 1.436-.718 2.112-1.149.447-.33.852-.812 1.076-.996a1.28 1.28 0 0 1 .667-.383h.057a.963.963 0 0 1-.385-.766c0-.62.073-2.872-.185-3.642s-.409-1.513-.702-2.298c-.293-.785-.3-1.838.108-2.137.409-.299.89-1.065 1.411-.954.52.111 4.001-.992 4.595-.957.594.034 3.628-1.433 3.855-1.988.192-.62.24-1.274.143-1.915-.1-.534-.16-1.074-.182-1.616a2.86 2.86 0 0 1 .351-.79c-.339.269-1.056.977-1.056.977l-.15.039s-.409.59-.52.739c-.113.15-.96 1.689-1.184 2.022-.318.486-.736.9-1.226 1.214-.482.26-.513.107-.887.184s-.482.299-.925.628c-.443.33-.52.444-.852.663-.331.218-1.222-.257-1.222-.257-.447-.077-.89.44-1.41 1.065-.521.624-2.726 2.968-2.842 3.171-.115.203-.189.628-.331.923-.143.295-.451.146-.667.218-.216.073-.039.334-.185.885a5.322 5.322 0 0 1-1.08 1.731c-.385.48-1.406 1.697-1.63 1.988-.224.291-1.627 2.133-2.186 2.681-.559.548-1.665 1.436-2.59 2.356-.925.919-1.157 1.175-1.3 1.248-.142.073.04.556-.296.74a5.684 5.684 0 0 1-1.63.551c-.849.188-.668.483-1.261 1.034a3.449 3.449 0 0 1-1.666 1.061c-.89.299-1.11.52-2.116.705a6.816 6.816 0 0 0-2.07.662c-.594.295-.705.663-1.41 1.107-.706.444-2.075.808-3.594 1.322-1.518.513-3.519.96-4.24 1.18-.72.218-1.04.7-1.854 1.217-.813.517-1.95 1.57-3.315 2.712-1.365 1.141-1.928.766-2.78.923a3.197 3.197 0 0 0-1.777.992c-.297.33-1.596 1.616-1.596 1.616h18.565s1.26-2.19 1.85-2.984c.59-.792.706-.915 1.188-1.248Z" fill="#E9893F"/><path d="M57.942 43.326c-.443-.525-.609-.938-.555-1.321 0-.107.035-.234.058-.383-1.615-.984-6.322-4.167-7.671-5.512-1.627-1.62-3.928-3.496-4.93-3.278-.349.094-.72.06-1.045-.096a1.305 1.305 0 0 1-.158-.092h-.058c-.257.056-.49.19-.667.383-.223.184-.628.667-1.075.996-.677.43-1.383.815-2.113 1.149a7.92 7.92 0 0 0-1.542 1.103c-.258.299-1.299 1.107-1.542.701-.243-.406-.543-1.436-.659-1.379-.116.058-.181.732-.335.958a15.209 15.209 0 0 0-.625 2.466c-.112.659-.297 1.804-.593 2.298a14.602 14.602 0 0 1-1.442 1.69c-.486.52-1.191 1.397-1.376 1.585a.95.95 0 0 1-.89 0 5.926 5.926 0 0 1-.294-1.47c0-.223.15-.552.039-.809-.112-.257-.077-1.069-.409-.7-.331.367-.593.957-1.033 1.531-.44.575-1.23 2.298-1.858 3.237-.628.938-1.854 3.002-2.151 3.332a7.013 7.013 0 0 1-1.446 1.202.737.737 0 0 1-.478.039s.185-.958.22-1.15c.035-.19.74-.658.771-.884.031-.226-.139-.686-.324-.686s-.412.383-.52.663c-.108.28-.386.383-.852.735-.466.353-.594.487-1.187 1.256-.594.77-1.85 2.984-1.85 2.984h45.263s-6.23-10.02-6.673-10.548Z" fill="#E2690F"/><path d="M67.815 31.112c-.771-1.915-1.777-4.933-2.514-6.442-.736-1.509-2.467-4.163-3.523-5.925a10.716 10.716 0 0 0-4.34-3.868A14.152 14.152 0 0 1 54.657 13s-.887 1.149-1.542 1.95a5.16 5.16 0 0 0-.463.65 2.86 2.86 0 0 0-.35.79c.02.542.081 1.082.18 1.616.099.64.05 1.295-.142 1.915-.227.555-3.265 2.026-3.855 1.988-.59-.039-4.074 1.068-4.595.957-.52-.11-1.002.663-1.41.954-.41.29-.41 1.367-.108 2.137.3.77.439 1.509.701 2.298.262.789.185 3.022.185 3.642a.963.963 0 0 0 .386.766c.05.035.103.065.158.092.325.156.696.19 1.044.096 1.003-.218 3.304 1.658 4.93 3.279 1.35 1.344 6.057 4.527 7.672 5.511a.97.97 0 0 1 .023-.107c.04-.352.197-.68.447-.931.56-.493 1.175-.922 1.831-1.28.771-.36.837-.248.837-1.187 0-.938-.22-.766-.027-1.957.193-1.19-.359-1.604.385-1.773a2.272 2.272 0 0 1 1.808.195c.413.303 1.11.61 1.303.054.193-.555 1.253-1.019 1.642-1.019.39 0 2.78.939 3 1.05.088.042.659.436 1.349.938-.822-.74-1.492-2.708-2.232-4.512Z" fill="#F8D5B8"/><path d="M83.816 49.707a8.365 8.365 0 0 1-.998-1.088 27.063 27.063 0 0 0-3.142-2.734c-2.082-1.188-2.336-1.532-3.115-2.57-.778-1.038-3.28-4.887-3.804-5.523a24.215 24.215 0 0 0-2.699-2.153c-.69-.501-1.26-.896-1.35-.938-.219-.111-2.609-1.05-2.998-1.05-.39 0-1.446.472-1.642 1.02-.197.547-.89.248-1.303-.054a2.272 2.272 0 0 0-1.808-.196c-.748.169-.193.583-.386 1.774-.192 1.19.027 1.018.027 1.957 0 .938-.08.827-.836 1.187-.656.355-1.27.782-1.831 1.272-.25.251-.408.579-.447.93-.01.036-.018.072-.024.108a9.756 9.756 0 0 0-.057.383c-.054.383.111.796.555 1.321.443.525 6.672 10.548 6.672 10.548h23.646c-.204-.414-4.098-3.945-4.46-4.194Z" fill="#EEA163"/></g></svg>