<svg viewBox="0 0 90 90" xmlns="http://www.w3.org/2000/svg"><g fill="none"><path fill="#FFF" d="M0 0h90v90H0z"/><path d="m74.274 22.437-.173.22c-1.377 1.516-1.63 3.665-1.703 5.865l-.028 1.258-.014.84.174 13.878a93.21 93.21 0 0 1 .186 3.84l.069 2.178.047 1.239c.142 3.304.435 6.608 1.488 9.539.701 1.68 2.335 2.321 4.123 2.739l.469.104.71.145.237.047.566.122-.005.01c.746.268.982 1.2.795 1.979l-.04.144-.029.08c-.108.237-.38.633-1.028.753l-.17.024h-.134a118.453 118.453 0 0 0-8.569-.422l-1.099-.004c-2.953 0-5.866.173-8.445.484l-.695.088h-.245c-1.056 0-1.766-.537-1.794-1.369-.031-.769.214-1.235.79-1.528l.187-.088.628-.28.42-.179c.757-.33 1.437-.693 1.842-1.35.809-1.234.961-2.76.977-4.135v-.4l-.635-20.835-.042-.665-.107-2.218c-.174.054-.41.335-.535.586l-1.4 2.839-1.393 2.86-1.394 2.888-1.4 2.927-2.125 4.479-2.173 4.612-1.438 3.062-.566 1.2-2.743-4.336 15.578-32.145c.73-1.54 1.639-3.307 2.886-4.889l.349-.426.052-.056c.257-.248.634-.381 1.147-.408l.2-.005c.243 0 .48.017.7.047l.212.033-.104-.014c.758.125 1.533.203 2.321.229l.593.01h.158c.96 0 1.936-.054 2.891-.118l1.532-.103.886-.052a41.89 41.89 0 0 1 1.394-.049l.468-.004c.57 0 1.097.018 1.6.055l.372.032.589.06.316 3.409-.905-.127.103.012a18.547 18.547 0 0 0-2.676-.211c-2.012 0-3.404.49-4.248 1.5Zm2.005-3.895-1.905.127c-1.65.1-3.324.15-4.968-.065l-.673-.101-.2-.024c-.392-.04-1.046-.06-1.308.189-1.26 1.478-2.19 3.2-2.935 4.743l-.2.416-15.4 31.793 1.82 2.875C54.2 50.632 58 42.558 61.844 34.812l.032-.06.096-.16c.197-.305.57-.753 1.063-.779.412-.02.597.26.672.433l.035.096.01.038.156 3.266.63 20.744c0 1.739-.192 3.422-1.088 4.783-.513.834-1.331 1.267-2.17 1.634l-.937.409-.26.12-.103.057c-.168.105-.31.284-.288.8.023.58.735.702 1.216.67 5.457-.715 11.675-.762 18.975-.148.321-.038.515-.157.609-.361.137-.435.051-1.002-.237-1.184l-.077-.037-1.176-.235-.483-.104-.482-.114c-1.843-.459-3.601-1.216-4.393-3.126-1.101-3.059-1.398-6.466-1.54-9.863l-.044-1.199-.038-1.194c-.036-1.18-.074-2.388-.14-3.585l-.075-1.236-.174-13.893.034-1.742.019-.612c.086-2.242.393-4.43 1.88-6.063 1.447-1.959 4.137-2.116 6.623-1.87l.51.057.503.065-.175-1.906c-1.558-.147-3.17-.074-4.747.03Zm-48.738 48.48c-2.622.014-5.204.183-7.428.469-.56.082-1.044-.25-1.346-.877l-.066-.15-.03-.096.001.014a1.978 1.978 0 0 1-.06-.49c0-.409.178-.952.569-1.248l.123-.08.12-.055c2.642-.9 4.08-2.198 4.41-3.956.744-3.538 1.076-7.223 1.314-11.219l.104-1.867.049-.95.047-.6.09-1.223.042-.624.08-1.28.075-1.327.07-1.384.065-1.448.06-1.466.093-2.588 3.778 6.774-.457 12.424.016 1.125.016.581c.096 2.817.514 5.673 2.825 7.318l.239.161.243.138c.483.262.998.486 1.582.675.61.225 1.24.452 1.836.808l.295.189.092.07c.602.571.532 1.322.27 1.83l-.055.099c-.28.466-.788.776-1.365.776l-.106-.003a8.04 8.04 0 0 1-.66-.052l-.274-.037.262.028a51.274 51.274 0 0 0-5.989-.452l-.93-.007Zm-.99-29.829c-.12 3.155-.283 6.3-.529 9.36l-.098 1.902c-.222 4.066-.518 7.81-1.209 11.403l-.166.826c-.378 2.018-1.939 3.502-4.886 4.51-.178.1-.294.377-.32.606l-.006.095c0 .11.015.215.038.304.052.15.283.64.642.58l.7-.08 1.128-.114.8-.071.838-.065.433-.03.892-.05a52.714 52.714 0 0 1 8.898.295l.93.12c.594.073.998.077 1.275-.282l.067-.098.054-.096c.033-.07.059-.146.076-.226l.019-.12.004-.077-.002-.073a.73.73 0 0 0-.238-.459c-.51-.35-1.072-.58-1.667-.8l-.3-.11-.068-.018a9.541 9.541 0 0 1-1.898-.86c-2.683-1.718-3.246-4.776-3.38-7.68l-.028-.81-.016-1.056v-.353l.44-12.144-2.423-4.329Z" fill="#EEB111"/><path d="M18.18 9c.34 0 .642.169.825.43l.08.133.36.63.822 1.397.884 1.465.89 1.441.98 1.548.69 1.062.532.8.563.832a60.815 60.815 0 0 0 2.342 3.219l.322.402.35.43a.208.208 0 0 0 .046-.01l1.5-.89 5.543-3.314.828-.48.177-.097c.183-.102.39-.17.608-.197l.166-.012h.04c.47 0 .865.31.993.743a1.147 1.147 0 0 1-.444 1.213l-.159.1-3.562 2.102-.205.117c-.915.517-1.658 1.64-1.992 2.236l-.118.22-.066.146a2.055 2.055 0 0 1-1.07 1.12l.695 1.257 1.094 2.027.968 1.808.957 1.78.947 1.748 1.4 2.568 1.379 2.5 1.354 2.431.89 1.584 1.315 2.32.864 1.508 1.276 2.205.837 1.433 1.237 2.093.407.682.806 1.342 1.189 1.956.78 1.267.768 1.235.759 1.206.375.591 1.11 1.728.726 1.114.716 1.084.705 1.053.694 1.023.343.5.678.976.668.946.656.916.325.446.64.87.63.838.619.808.608.778c.1.127.2.253.3.377l.592.731.58.7c.192.23.382.452.57.67l.56.64.548.607c.09.1.18.197.27.293l.532.561.52.531c.43.43.848.827 1.254 1.192l.483.422c.556.475 1.09.886 1.601 1.234l.22.147 1.636 1.068-1.94.251.103-.011c-.7.093-1.411.151-2.134.172L64.67 84l-.393-.004c-6.687-.148-10.982-4.075-15.04-9.808l-.485-.697-.484-.713-.484-.729-.484-.744-.728-1.143-.733-1.172-1.493-2.423-.784-1.278-1.008-1.63L24.03 29.515a.444.444 0 0 0-.347-.198l-.082-.001a.982.982 0 0 0-.31.075c-1.898.757-3.58 1.177-5.493 1.233l-.446.006c-4.182 0-7.324-1.951-8.663-5.366l-.099-.263-.102-.297a10.118 10.118 0 0 1-.48-2.708L8 21.59a9.98 9.98 0 0 1 .78-3.898c.7-1.718 1.895-3.277 3.073-4.094l.196-.13c.224-.152.467-.278.747-.381.048-.683.776-1.471 1.47-2.074l.293-.246.277-.219.357-.265.348-.241.182-.114.253-.15c.52-.3 1.32-.703 1.966-.768l.204-.01h.034Zm-5.452 5.517.39.644-.182.2a8.316 8.316 0 0 0-1.148 1.66l-.06.117a9.01 9.01 0 0 0-.67 1.222l-.112.26a7.542 7.542 0 0 0-.582 2.588l-.008.386-.029-.203c-.357-2.788.74-4.798 1.575-5.91l.187-.24.173-.209.223-.251.243-.264Zm12.777 13.135-.046.04c-.602.546-.963 1.112-.79 1.474l18.506 34.106 1.388 2.25 1.857 3.019.774 1.24.512.806.508.789.508.771.506.753a56.5 56.5 0 0 0 1.527 2.138l.514.67c3.184 4.062 6.618 6.828 11.358 7.441l.381.045.513.043c.197.012.394.022.593.029l.597.01c.86 0 1.71-.061 2.443-.169-4.476-2.924-10.268-10.513-15.951-19.214l-.973-1.501-.97-1.52-.482-.765-.96-1.539c-.16-.257-.32-.514-.478-.772l-.949-1.55-.47-.775-.933-1.55a384.11 384.11 0 0 1-.462-.774l-.914-1.542-.898-1.533-.882-1.519-1.29-2.242-.833-1.467-1.21-2.145-.775-1.389-1.472-2.66-1.355-2.476-1.51-2.789-3.18-5.94-.336-.608-.09-.151c-.335-.606-1.096-.643-1.932-.385l-.139.045-.409-.717-.243.091.296-.11a7.76 7.76 0 0 1 1.83-.397l.412-.03.075-.013.11-.033c.19-.068.467-.233.67-.629l.131-.283c.015-.03.03-.062.049-.097l.127-.235c.392-.695 1.198-1.877 2.242-2.464l.979-.568 2.81-1.663c.481-.293.253-.968-.526-.568l-.258.143-1.225.717-6.587 3.938-.105.038a1.516 1.516 0 0 1-.12.03l-.127.024a9.773 9.773 0 0 0-1.676.55l-.249.112-.275-.337c-.138-.17-.279-.347-.422-.53l.22-.103c.453-.195.943-.33 1.463-.398l-.37-.462-.374-.483-.378-.503-.382-.518-.574-.802-.383-.549-.572-.835-.565-.844-.735-1.123-.876-1.374-.964-1.552-.71-1.168-.905-1.527-.66-1.153-.034-.063c-.182-.364-1.303.057-2.33.693l-.153.097a8.234 8.234 0 0 0-.547.387l-.283.225a11.47 11.47 0 0 0-.142.118l-.277.243-.265.247c-.596.578-1.026 1.145-.882 1.367l.602.682.774.9-.726.267-.423-.492-.513.439-.09.08-.42-.618.029-.043c.124-.229-.018-.507-.274-.407l-.046.023-.023-.034.021.035-.019.01c-.366.22-.77.558-1.173.995l-.241.274c-1.643 1.95-3.127 5.504-1.722 9.404 2.044 5.73 8.852 6.171 14.148 3.795.16-.091.309-.236.468-.415l.386-.453c.094-.11.195-.225.305-.342l.153-.156c.275.117.526.277.748.473Z" fill="#EEB111"/><path d="m80.177 65.13-.46-.09c-2.358-.467-5.043-.997-6.074-3.488-1.36-3.776-1.495-8.089-1.622-12.256-.05-1.573-.1-3.194-.215-4.774l-.174-13.938.016-.823c.045-2.75.095-5.59 1.917-7.594 1.641-2.229 4.903-2.126 7.636-1.748-.033-.35-.149-1.65-.175-1.906-1.78-.166-3.629-.047-5.421.075-2.226.148-4.527.314-6.758-.068 0 0-1.236-.227-1.622.148-1.375 1.622-2.359 3.516-3.134 5.163L48.695 55.605l1.82 2.876c3.686-7.858 7.492-15.937 11.333-23.683.111-.218.55-.966 1.191-.999.59-.03.717.567.717.567l.148 3.026c0 .003.637 20.33.637 20.984 0 1.739-.19 3.424-1.087 4.783-.599.973-1.613 1.402-2.59 1.814 0 0-.57.244-.777.35-.208.105-.415.236-.392.855.022.586.738.703 1.217.67 5.454-.707 11.677-.757 18.975-.147.32-.033.514-.148.609-.356.143-.462.03-1.095-.316-1.212l-.003-.003ZM65.253 49.75c-.21-6.885-.679-17.62-.422-20.985.168-2.199.809-5.098 2.106-7.263-1.474 5.62-1.087 12.15-.983 18.26l.457 12.918c.156 3.251.738 8.956-1.969 10.894 1.582-3.98.9-8.777.811-13.826v.003ZM35.886 65.362c-.59-.407-1.261-.653-1.966-.909a9.716 9.716 0 0 1-2.01-.902l.045.023c-3.353-2.147-3.39-6.386-3.426-9.804 0 0 .248-6.745.443-12.239l-2.419-4.333c-.12 3.154-.28 6.3-.528 9.36-.262 5.129-.552 9.739-1.474 14.131-.375 2.013-1.94 3.502-4.886 4.51-.203.114-.325.459-.325.7v.005c0 .108.014.21.038.31l-.003-.01c.061.148.286.637.642.579 3.4-.392 8.361-.82 14.277-.04.84.11 1.361.2 1.684-.335a1 1 0 0 0 .146-.427v-.004c.003-.022.003-.047.003-.073 0-.026-.003-.052-.005-.077v.002a.721.721 0 0 0-.24-.469l.004.002ZM24.67 64.147c-.149.075-.599.216-.717-.094-.181-.485.344-.635.623-.935 1.353-1.444 1.38-3.769 1.6-5.87.175 2.376.305 5.263-1.504 6.9h-.002Z" fill="#000"/><path d="M29.779 26.69c-.988-1.783-5.652 1.348-5.112 2.48.08.113 18.506 34.107 18.506 34.107 6.529 10.497 10.868 18.989 19.833 19.921a18.2 18.2 0 0 0 4.24-.094l-.095.012C54.361 74.76 30.835 28.324 29.78 26.693v-.002Zm-1.05.65c.156.237 20.8 39.881 29.78 49.28 0 0-1.65.283-3.44-1.995C47.98 65.618 27.635 27.75 27.635 27.75c-.06-.295.927-.67 1.095-.413v.003ZM13.544 13.238c3.134 3.503 7.545 9.239 9.342 11.957.264-.41.637-.782 1.554-1.42a5.35 5.35 0 0 1 2.44-.959l.03-.002c-3.665-4.507-8.285-12.57-8.487-12.956-.203-.387-1.418.098-2.483.79-1.066.691-2.653 2.196-2.396 2.592v-.002Z" fill="#000"/><path d="M23.433 28.55c.571-.322.988-1.32 2.262-2.127a7.668 7.668 0 0 1 3.843-1.23h.017s.618-.021.948-.818c.148-.373 1.115-2.166 2.483-2.94.681-.383 3.546-2.083 3.79-2.23.48-.293.251-.968-.527-.567-.738.377-7.828 4.67-8.074 4.8-.101.04-.217.07-.34.089h-.009c-2.532.571-4.126 1.994-4.59 2.636-.413.565-1.092.778-1.56.893-.985.244-8.672 2.051-10.76-3.33-2.147-5.592 1.548-8.88 1.817-9.22.198-.251.016-.622-.305-.43-1.94 1.172-4.954 5.63-3.15 10.679 2.047 5.728 8.852 6.17 14.15 3.794h.005Z" fill="#000"/><path d="m66.413 52.68-.457-12.918c-.104-6.11-.493-12.64.983-18.26-1.297 2.163-1.94 5.064-2.106 7.263-.257 3.37.21 14.107.423 20.986.092 5.048.773 9.846-.81 13.826 2.708-1.936 2.125-7.643 1.967-10.894v-.003ZM23.95 64.055c.118.31.575.166.717.093 1.808-1.635 1.68-4.523 1.504-6.897-.222 2.104-.248 4.427-1.601 5.87-.278.299-.804.449-.623.934h.003ZM58.512 76.62c-8.98-9.399-29.624-49.043-29.78-49.28-.156-.237-1.153.112-1.094.417 0 0 20.338 37.861 27.433 46.875 1.79 2.271 3.44 1.988 3.44 1.988Z" fill="#FFF"/></g></svg>