<svg viewBox="0 0 90 90" xmlns="http://www.w3.org/2000/svg"><g fill="none"><path fill="#C72C48" d="M0 0h90v90H0z"/><path d="M46.526 13.072c-.88-.923-2.37-.982-3.306-.113a2.284 2.284 0 0 0-.11 3.249l10.567 10.87c5.18 5.357 5.095 13.855-.237 19.12a13.816 13.816 0 0 1-3.575 2.553l-2.8 1.422V82l-4.61-5.98V52.516L22 62.797a46.796 46.796 0 0 1 2.735-8.567 47.388 47.388 0 0 1 10.327-15.126 47.998 47.998 0 0 1 12.003-8.647v14.85l1.445-.734a9.509 9.509 0 0 0 1.845-1.422 9.282 9.282 0 0 0 .21-13.033L39.944 19.192l-.014-.015a6.526 6.526 0 0 1-1.817-4.743 6.554 6.554 0 0 1 2.109-4.621c2.644-2.39 7.21-2.99 10.94 1.788 0 0 2.285 3.632 4.733 7.569l.377.607.379.61.378.61c1.57 2.532 3.072 4.98 3.95 6.465.04.067.023.157-.036.215-.074.073-.187.082-.26.008l-12.68-13.092Zm-4.07 25.313a44.112 44.112 0 0 0-4.322 3.746 43.152 43.152 0 0 0-8.647 12.11l12.968-6.591Z" fill="#FFF"/></g></svg>