<svg viewBox="0 0 90 90" xmlns="http://www.w3.org/2000/svg"><g fill="none"><path fill="#FFF" d="M0 0h90v90H0z"/><path d="m40.16 71.849-.368 5.317.368-5.317Z" fill="#656565"/><path fill="#656565" d="m35.565 75.333 4.64-3.851L44.847 79z"/><path fill="#787778" d="M35.565 63.964v11.369l4.64-3.851z"/><path fill="#5C5C5C" d="M49.487 71.482 44.847 79l9.281-3.667z"/><path fill="#787778" d="m54.128 75.333-4.64-3.851 4.64-7.518z"/><path fill="#4A4A4A" d="M35.565 63.964h18.563L44.846 79z"/><path fill="#FED12F" d="m37.421 29.307 19.678 8.068L42.99 48.561zm14.851-13.569L63.41 27.106l-6.31 10.27zM35.565 63.964l20.42-5.868-1.857 5.868zm-1.857-5.868 9.282-9.535-7.425 15.403zm-7.425-30.99L37.42 15.738v13.569z"/><path fill="#FFF3CB" d="m42.99 48.56 12.995 9.536 1.114-20.72zm0 0-17.82-3.116 8.54 12.653z"/><path fill="#FFDD63" d="m37.421 29.307 14.851-13.57 4.827 21.638z"/><path fill="#FFEDAC" d="M25.169 45.443 37.42 29.307l5.57 19.254z"/><path fill="#FFDD63" d="M35.565 63.964 42.99 48.56l12.995 9.535zm20.42-5.868 1.114-20.72 7.425 8.067zM25.169 45.443l1.114-18.337 11.138 2.2z"/><path fill="#FEE382" d="m57.099 37.375 6.311-10.269 1.114 18.337z"/><path fill="#FEF1C0" d="M52.272 15.738 37.421 29.307v-13.57z"/></g></svg>