<svg viewBox="0 0 90 90" xmlns="http://www.w3.org/2000/svg"><g fill="none"><path d="M56.244 2.966c32.62 8.755 38.42 24.508 30.72 53.297-7.702 28.79-20.588 39.526-53.208 30.771-32.62-8.755-38.42-24.508-30.72-53.297C10.739 4.947 23.625-5.789 56.245 2.966Z" fill="#F7578C"/><path d="M22.538 45.491c-4.14-8.667-4.327-17.167.73-22.223 5.056-5.057 13.556-4.87 22.223-.73 8.667-4.14 17.167-4.327 22.223.73 5.057 5.056 4.87 13.556.73 22.223 4.14 8.667 4.327 17.167-.73 22.223-5.056 5.057-13.556 4.87-22.223.73-8.667 4.14-17.167 4.327-22.223-.73-5.057-5.056-4.87-13.556-.73-22.223Zm4.063-6.813a52.957 52.957 0 0 1 5.556-6.52 52.957 52.957 0 0 1 6.52-5.557c-4.706-1.427-8.738-1.115-10.965 1.111-2.226 2.227-2.538 6.26-1.111 10.966Zm37.78 13.626a52.957 52.957 0 0 1-5.556 6.521 52.957 52.957 0 0 1-6.52 5.557c4.706 1.426 8.738 1.114 10.965-1.112 2.226-2.227 2.538-6.26 1.112-10.966Zm-37.78 0c-1.427 4.707-1.115 8.74 1.111 10.966 2.227 2.226 6.26 2.538 10.966 1.112a52.957 52.957 0 0 1-6.52-5.557 52.957 52.957 0 0 1-5.557-6.52Zm3.056-6.813c1.755 2.987 4.082 6.026 6.945 8.89 2.863 2.862 5.902 5.19 8.89 6.945 2.986-1.756 6.025-4.083 8.888-6.946 2.863-2.863 5.19-5.902 6.946-8.889-1.756-2.987-4.083-6.026-6.946-8.89-2.863-2.862-5.902-5.19-8.889-6.944-2.987 1.755-6.026 4.082-8.89 6.945-2.862 2.863-5.19 5.902-6.944 8.89Zm22.647-18.89a52.957 52.957 0 0 1 6.521 5.556 52.957 52.957 0 0 1 5.557 6.52c1.426-4.706 1.114-8.738-1.112-10.965-2.227-2.226-6.26-2.538-10.966-1.111Z" fill="#FFF"/></g></svg>