<svg viewBox="0 0 90 90" xmlns="http://www.w3.org/2000/svg"><g fill="none" fill-rule="evenodd"><path fill="#FFF" d="M0 0h90v90H0z"/><path d="M61.92 29.165c2.636 2.63 18.62-6.644 10.987-24.752-2.26 9.632-9.512 8.893-12.824 14.753-2.042 3.613-.074 8.091 1.838 10Z" fill="#048962"/><path d="M62.147 29.34c-2.89-2.346 4.662-19.212 23.469-13.514-9.343 3.255-7.85 10.39-13.332 14.295-3.38 2.409-8.04.92-10.137-.782Z" fill="#86D85B"/><path d="M53.436 4.775a5 5 0 0 1-2.116 9.773 30.91 30.91 0 0 0-11.402-.309c-16.91 2.679-28.447 18.558-25.769 35.468 2.679 16.91 18.558 28.447 35.468 25.77 16.91-2.68 28.447-18.559 25.769-35.469a5 5 0 1 1 9.877-1.564c3.542 22.365-11.717 43.367-34.081 46.909-22.365 3.542-43.367-11.717-46.91-34.081C.73 28.907 15.99 7.905 38.354 4.362a40.91 40.91 0 0 1 15.082.413ZM45 32a8 8 0 0 1 4.1 14.87l1.207 10.458A1.5 1.5 0 0 1 48.817 59h-7.634a1.5 1.5 0 0 1-1.49-1.672l1.206-10.457A8 8 0 0 1 45 32Z" fill="#FF7A0A" fill-rule="nonzero"/></g></svg>