<svg viewBox="0 0 90 90" xmlns="http://www.w3.org/2000/svg"><g fill="none" fill-rule="evenodd"><path fill="#FFF" fill-rule="nonzero" d="M0 0h90v90H0z"/><g fill-rule="nonzero"><path d="M40.81 41.185c-2.666.582-18.942-1.647-21.587-1.06-9.006.925-19.054 8.832-18.976 8.87 0 0 5.908-6.114 18.615-2.697C27.353 49.382 39.125 59 39.125 59l16.962-13.356-15.277-4.46Z" fill-opacity=".76" fill="#2B6744" style="mix-blend-mode:multiply" transform="translate(5 18)"/><path d="M11.427 23.664c-.007.202-.01.392-.008.572-.03.99-.04 1.982-.025 2.972.023.571.05 1.129.083 1.673.096 1.071.21 2.128.346 3.171-.01.006-.014.038-.012.096.016 0 .02.005.016.015.33 2.117.808 4.207 1.428 6.257a43.22 43.22 0 0 0 6.861 13.49 47.209 47.209 0 0 0 4.64 5.162.528.528 0 0 1 .143-.07c.477-.157.765-.246.861-.266a142.23 142.23 0 0 1 2.625-.72c.207-.104 1.325-.622 3.355-1.554l4.567-2.477a56.142 56.142 0 0 0 2.684-1.915 66.806 66.806 0 0 1-.358-1.208c-1.51-4.974-3.824-9.465-6.945-13.471-3.626-4.786-7.943-8.528-12.95-11.228-.44-.244-.89-.471-1.346-.683a30.289 30.289 0 0 0-1.628-.75 3.156 3.156 0 0 1-.19-.088c-.03-.015-.044-.025-.04-.03a70.748 70.748 0 0 1-1.59-.626 1.38 1.38 0 0 0-.284-.123 46.662 46.662 0 0 0-2.017-.655l-.184 2.105c0 .118-.011.235-.032.35Z" fill="#67AB84"/><path d="M11.42 24.236c-.003-.18 0-.37.007-.572-1.018.773-1.858 1.49-2.52 2.154.45.082.744.067.878-.045.285-.207.83-.72 1.635-1.537Z" fill="#B8DFC8"/><path d="M22.211 20.579a41.45 41.45 0 0 0-3.026-1.567 71.43 71.43 0 0 0-2.12-.897v.024c-.02.012-.064.194-.132.546-.07.427-.19.683-.361.77-.026 0-.05.01-.069.026a1.45 1.45 0 0 0-.3.211c-.673.383-1.521 1.107-2.543 2.171.105.033.199.074.283.123.544.222 1.075.43 1.592.626-.005.005.009.015.04.03.068.034.13.063.188.087.534.227 1.077.477 1.628.751.457.212.906.44 1.348.683 5.006 2.7 9.323 6.442 12.949 11.228 3.12 4.006 5.436 8.497 6.945 13.47.12.42.24.822.358 1.21a56.137 56.137 0 0 1-2.684 1.914l-4.567 2.477a251.46 251.46 0 0 0-3.355 1.554c-.652.17-1.526.41-2.625.72-.096.02-.384.11-.86.267a.52.52 0 0 0-.145.07 47.21 47.21 0 0 1-4.639-5.163 43.22 43.22 0 0 1-6.861-13.49 46.173 46.173 0 0 1-1.428-6.256c.005-.011 0-.016-.016-.016-.002-.058.002-.09.012-.096-.135-1.043-.25-2.1-.345-3.17a89.93 89.93 0 0 1-.084-1.673c-.014-.98-.006-1.97.026-2.973-.806.817-1.35 1.33-1.635 1.537-.135.112-.428.127-.878.045a5.513 5.513 0 0 1-.878-.146l-1.304-.367c-.007.694-.004 1.409.01 2.144-.01.117 0 .226.03.325a.259.259 0 0 0-.036.08c0 .022.01.035.025.04-.007.055-.01.11-.009.167.017.174.033.359.046.554.469 10.106 3.895 19.143 10.279 27.108a54.56 54.56 0 0 0 3.477 3.923c.273-.134.445-.207.516-.22a33.2 33.2 0 0 0 2.486-.707c1.218-.422 3.226-1.323 6.025-2.705l6.138-3.297a489.447 489.447 0 0 1 6.567-4.698c.311-.21.622-.422.931-.634-1.141-3.898-2.82-7.64-5.033-11.223a26.089 26.089 0 0 1-.752-1.232c-3.778-5.743-8.483-10.32-14.116-13.73-.36-.21-.72-.417-1.083-.622-.005-.005-.01-.005-.015.001Z" fill="#95D0AD"/><path d="M6.158 26.512c-.006.36.06.678.2.953a.871.871 0 0 0 .21.23c.04.062.1.128.186.199-.007.055-.01.11-.009.167.018.174.033.359.046.554.234.232.475.458.722.677.211.134.415.266.61.396.318.256.65.494.994.713.597.408 1.215.783 1.851 1.123.292.21.577.386.855.529.268.147.518.274.748.382.21-.671.43-1.387.661-2.149.287-1.04.597-2.093.928-3.16a6.05 6.05 0 0 0 .134-.332 288.81 288.81 0 0 1 1.28-4.152c.195-.628.404-1.25.627-1.869.129-.423.23-.855.302-1.292.09-.464.137-.93.144-1.396a1.25 1.25 0 0 0-.303.14c-.158.049-.337.13-.538.244-.893.424-1.903 1.001-3.031 1.731-.744.45-1.47.929-2.179 1.433-1.565 1.114-2.759 2.172-3.582 3.176-.197.191-.368.41-.506.648l-.293.76c-.02.116-.04.215-.057.295Z" fill="#538F6D"/><path d="M6.215 26.216c-.021.112-.043.21-.065.297-.012.471.128.865.418 1.182.186.257.459.526.82.808.565.49 1.32 1.004 2.262 1.542a55.994 55.994 0 0 0 3.308 1.841l.585-1.541a60.952 60.952 0 0 0 1.41-3.673.915.915 0 0 1 .028-.057c1.295-3.82 1.99-6.674 2.089-8.563.01-.138-.412 0-1.264.417-.893.424-1.903 1.001-3.031 1.731-3.055 1.9-5.144 3.653-6.267 5.257l-.293.759Z" fill="#B8DFC6"/><path d="M84.403 28.128c.412-2.674.61-5.279.596-7.814-11.555-.586-21.869 2.855-30.941 10.323-5.245 4.322-9.299 9.362-12.16 15.119a69.364 69.364 0 0 0 3.012 3.903c.348.401.938.958 1.77 1.674.8.68 1.62 1.335 2.46 1.963l1.957 1.734c1.22 1.077 1.98 1.709 2.28 1.893a16.261 16.261 0 0 0 3.436 1.574c1.25.411 2 .694 2.25.847 2.125.663 3.214 1.001 3.266 1.016.339.118.686.206 1.04.264a49.38 49.38 0 0 0 4.444-3.265c9.15-7.544 14.68-17.288 16.59-29.23Z" fill="#559B75"/><path d="m79.7 27.352.312-2.157c-8.614.613-16.28 3.69-22.994 9.233-3.955 3.268-7.218 7.164-9.79 11.69a49.495 49.495 0 0 0-.993 1.832c.459.502.925.998 1.399 1.486 2.244 2.329 4.595 4.247 7.054 5.756.339.208.914.485 1.725.831.747.325 1.185.496 1.314.512.818.107 1.66.192 2.525.255a42.663 42.663 0 0 0 4.58-3.301 41.826 41.826 0 0 0 9.772-11.635c2.552-4.492 4.25-9.327 5.096-14.502Z" fill="#377958"/><path fill="#1F1D1D" d="M43.778 72.306v.572l.007 3.55 5.402-4.125.038-.025-5.447.028z"/><path fill="#393636" d="M43.779 72.878v-.572l-5.43-.109 5.436 4.232-.006-3.551z"/><path d="M5.018 60.632c1.72-.31 3.623-.505 5.708-.586-1.862 1.125-3.378 2.684-4.547 4.676L5 67.401c3.337-2.93 7.161-4.526 11.471-4.79a21.736 21.736 0 0 1 8.159 1.036c3.638 1.793 7.427 4.077 11.367 6.853a79.663 79.663 0 0 1 2.353 1.697l5.428.109.001-1.684.207-41.12-.332-.002c-9.262-.076-17.512 2.845-24.75 8.765C11.777 44.1 7.148 51.555 5.018 60.632Z" fill="#95D0AD"/><path d="M69.001 38.625c-7.158-6.016-15.37-9.062-24.638-9.138l-.377.015-.207 41.12v1.684l5.445-.028-.037.026h.007a97.686 97.686 0 0 1 2.22-1.57c3.883-2.677 7.557-4.847 11.023-6.511 2.513-.947 5.157-1.382 7.933-1.306 4.721.127 8.886 1.794 12.494 5.002-.222-.78-.613-1.672-1.174-2.676-1.182-2.011-2.69-3.588-4.521-4.73a44.26 44.26 0 0 1 5.474.647c-2.017-9.11-6.564-16.622-13.642-22.535Z" fill="#559B75"/><path d="M57.55 51.476c-.517-.746-1.216-1.2-2.099-1.36-.858-.137-1.637.06-2.337.591-.723.505-1.163 1.212-1.318 2.12a3.31 3.31 0 0 0 .578 2.445c.493.72 1.18 1.162 2.063 1.323.858.136 1.649-.049 2.372-.554.724-.53 1.152-1.25 1.283-2.158.13-.884-.05-1.686-.543-2.407Z" fill="#211E1F"/><path d="M53.054 51.062c.002-.148-.056-.247-.176-.298-.266.242-.46.46-.582.655l.178.114a.471.471 0 0 0 .396-.105.46.46 0 0 0 .184-.366Z" fill="#FFF"/><path d="M33.946 52.359c-.124-.844-.54-1.515-1.246-2.013-.706-.497-1.466-.663-2.278-.498-.85.126-1.515.549-1.997 1.267-.483.727-.642 1.508-.48 2.345.153.875.583 1.562 1.29 2.06.669.496 1.428.666 2.278.509.812-.165 1.46-.61 1.942-1.337.481-.72.646-1.497.491-2.333Z" fill="#393537"/><path d="M29.173 50.721a.396.396 0 0 0-.098-.268 2.15 2.15 0 0 0-.57.548.363.363 0 0 0 .54-.004.365.365 0 0 0 .128-.276Z" fill="#FFF"/><path d="m26.963 54.305 8.487-.357s-.953 3.06-3.534 3.405c-2.582.345-4.014-1.23-4.953-3.048Zm8.771-5.145-8.49-.321s1.191-2.974 3.791-3.112c2.6-.138 3.905 1.546 4.699 3.433Z" fill="#95D0AD"/><path d="m50.388 54.798 8.49-.29s-.977 3.052-3.561 3.377c-2.584.325-4.004-1.262-4.929-3.087Zm9.224-5.423-8.489.348s.957-3.058 3.539-3.401c2.582-.343 4.013 1.234 4.95 3.053Z" fill="#559B75"/><path d="M63.053 47.42c-3.604-.173-7.15.052-10.68.848-2.396.635-4.521 1.911-7.037 1.937l-1.43-.091h-.01l-.02-.002v.002l-1.021-.002c-1.126-.027-2.029-.191-2.71-.492-2.56-1.133-5.126-1.963-7.884-2.434-3.757-.51-7.51-.395-11.295-.394-.914.006-1.84.044-2.778.114l-5.357.5-.03.414.093 3.192a.339.339 0 0 0 .12.135c.539.206.984.555 1.335 1.047.234.358.406.852.514 1.48.39 2.621.82 4.762 1.29 6.422.653 2.237 1.57 4.583 3.55 5.952 3.394 2.349 7.869 2.393 11.775 1.39 2.458-.61 4.637-1.68 6.254-3.69 1.71-2.188 2.94-4.533 3.69-7.035l.382-1.49c.27-.947.826-1.511 1.668-1.693l.321-.045.82.117c.816.202 1.354.783 1.615 1.743l.32 1.5c.433 2.037 1.445 4.062 2.547 5.806 1.726 2.734 3.928 4.39 7.028 5.256 3.803 1.063 8.442 1.439 11.828-.987 1.972-1.414 2.97-3.54 3.74-5.811.554-1.683 1.058-3.816 1.514-6.402.124-.592.314-1.074.57-1.445.327-.471.784-.807 1.371-1.007.068-.06.102-.1.103-.121l.223-3.588c-4.129-.381-8.278-.928-12.419-1.126Zm-48.686 2.464.008-.648 2.74.05-.008.64a79.17 79.17 0 0 0-2.74-.042Zm24.754 5.878a12.037 12.037 0 0 1-.983 4.058 11.662 11.662 0 0 1-2.531 3.795c-.727.747-1.657 1.332-2.788 1.753-1.392.49-2.73.802-4.012.934-.967.134-1.947.17-2.942.106-1.566-.1-2.915-.444-4.046-1.032-.782-.434-1.499-1.059-2.15-1.872a12.389 12.389 0 0 1-2.413-5.75l-.248-2.657c-.043-.685-.043-1.22.001-1.603.138-1.496.805-2.645 2.002-3.448.888-.607 1.933-1.012 3.136-1.215.947-.175 2.005-.258 3.173-.25l6.146.104c1.821.113 3.363.446 4.625.998.805.372 1.436.82 1.892 1.342.518.59.846 1.287.984 2.09.162.848.213 1.73.154 2.647Zm31.54 2.968c-.515 2.837-2.119 6.115-4.798 7.449-3.604 1.793-9.105 1.02-12.414-1.141-1.738-1.135-2.984-3.046-3.722-4.969a11.777 11.777 0 0 1-.603-6.727c.697-3.38 4.79-4.12 7.661-4.183l6.142.104c2.158.053 4.496.38 6.274 1.713 1.157.846 1.774 2.01 1.852 3.494.063 1.428-.137 2.86-.392 4.26Zm.424-7.827.008-.645 2.74.05-.011.64-2.737-.045Z" fill="#282527"/></g><path d="M30.872 41.784c-3.07 0-5.7 2.564-5.991 4.333 5.406-4.278 8.914-1.919 12.13-.002 0-1.475-3.07-4.332-6.14-4.331Z" fill="#67AB83" fill-rule="nonzero"/><path d="M30.872 41.784c-3.07 0-5.7 2.564-5.991 4.333 5.406-4.278 8.914-1.919 12.13-.002 0-1.475-3.07-4.332-6.14-4.331Z" fill="#67AB83" fill-rule="nonzero"/><path d="M30.872 41.784c-3.07 0-5.7 2.564-5.991 4.333 5.406-4.278 8.914-1.919 12.13-.002 0-1.475-3.07-4.332-6.14-4.331Z"/><path d="M55.298 41.791c-3.07 0-5.718 2.847-6.01 4.616 5.407-4.278 8.915-1.919 12.131-.003 0-1.474-3.052-4.613-6.121-4.613Z" fill="#377959" fill-rule="nonzero"/><path d="M55.298 41.791c-3.07 0-5.718 2.847-6.01 4.616 5.407-4.278 8.915-1.919 12.131-.003 0-1.474-3.052-4.613-6.121-4.613Z" fill="#377959" fill-rule="nonzero"/><path d="M55.298 41.791c-3.07 0-5.718 2.847-6.01 4.616 5.407-4.278 8.915-1.919 12.131-.003 0-1.474-3.052-4.613-6.121-4.613Z"/><path d="M62.834 47.198c-3.605-.172-7.15.053-10.68.849-2.396.635-4.521 1.911-7.037 1.937l-1.43-.091h-.01l-.02-.002v.001l-1.021-.001c-1.126-.027-2.029-.191-2.71-.493-2.56-1.132-5.127-1.962-7.884-2.434-3.757-.51-7.51-.394-11.295-.393-.914.005-1.84.043-2.778.114l-5.358.5-.028.414.092 3.192a.339.339 0 0 0 .12.135c.538.206.984.555 1.334 1.047.235.358.406.852.515 1.48.39 2.621.82 4.762 1.29 6.422.653 2.237 1.57 4.582 3.55 5.952 3.394 2.348 7.869 2.393 11.775 1.389 2.457-.609 4.637-1.68 6.254-3.689 1.71-2.188 2.94-4.533 3.69-7.035l.382-1.49c.27-.947.826-1.511 1.668-1.693l.32-.045.822.117c.815.202 1.352.783 1.614 1.743l.319 1.5c.433 2.036 1.446 4.061 2.548 5.806 1.726 2.734 3.928 4.389 7.028 5.255 3.803 1.064 8.442 1.44 11.828-.986 1.972-1.414 2.97-3.54 3.74-5.812.554-1.682 1.058-3.816 1.514-6.401.124-.592.314-1.074.57-1.446.327-.47.784-.806 1.371-1.006.067-.06.102-.1.102-.122l.224-3.587c-4.13-.381-8.278-.928-12.42-1.127Zm-48.686 2.464.007-.648 2.74.05-.007.64a79.17 79.17 0 0 0-2.74-.042Zm24.754 5.88a12.037 12.037 0 0 1-.984 4.057 11.662 11.662 0 0 1-2.53 3.795c-.727.747-1.657 1.331-2.788 1.752-1.392.492-2.73.803-4.012.934-.967.135-1.947.17-2.942.107-1.567-.1-2.916-.444-4.047-1.032-.781-.434-1.498-1.059-2.15-1.872a12.389 12.389 0 0 1-2.412-5.751l-.248-2.656c-.044-.686-.043-1.22.001-1.603.138-1.496.805-2.645 2.002-3.449.887-.606 1.933-1.011 3.136-1.214.947-.175 2.005-.258 3.173-.25l6.146.103c1.82.114 3.362.447 4.625.999.805.372 1.436.82 1.892 1.342.517.59.845 1.287.983 2.09.162.847.214 1.73.155 2.647Zm31.54 2.967c-.515 2.836-2.12 6.115-4.798 7.448-3.604 1.794-9.105 1.021-12.414-1.14-1.738-1.136-2.984-3.046-3.722-4.969a11.777 11.777 0 0 1-.604-6.727c.698-3.38 4.79-4.12 7.662-4.183l6.142.104c2.158.053 4.496.38 6.274 1.713 1.157.846 1.774 2.01 1.852 3.494.063 1.427-.138 2.86-.392 4.26Zm.424-7.827.007-.645 2.74.05-.01.64-2.737-.045Z" fill="#282527" fill-rule="nonzero"/></g></svg>