<svg xmlns="http://www.w3.org/2000/svg" viewBox="0 0 90 90"><path fill="#FFF" d="M0 0h90v90H0z"/><path fill="#D1B000" d="M10 28.588h5.28V33.9H10zm18.073-8.376h5.28v5.31h-5.28zM15.316 38.568h5.28v5.311h-5.28zm7.619-10.693h5.28v5.311h-5.28zM10 56.034h5.28v5.31H10zm14.352 8.198h5.28v5.31h-5.28zm-4.607-13.367h5.28v5.311h-5.28zM53.694 19c3.898 0 7.725.891 11.234 2.566 13.147 6.238 18.746 22.028 12.544 35.287C71.236 70.077 55.537 75.71 42.39 69.436v-4.812h-5.28v1.425c-1.63-1.318-3.084-2.851-4.36-4.526h5.175v-5.311h-5.28v5.204a26.572 26.572 0 0 1-3.048-5.24h3.012v-5.31h-4.713a27.442 27.442 0 0 1-.532-5.383h4.359v-5.31h-3.827a27.36 27.36 0 0 1 2.48-6.987h4.36v-5.31h-.71a28.483 28.483 0 0 1 4.501-4.028v1.675h5.245V20.96c3.154-1.318 6.52-1.96 9.922-1.96Zm-16.62 15.826h-5.28v5.31h5.28v-5.31Z"/><path d="M73.787 46.695c-.106.463-.213.891-.354 1.354h-10.49c-.106.963.071 1.676.532 2.175a2.35 2.35 0 0 0 1.843.748 2.956 2.956 0 0 0 2.657-1.461h4.926a8.734 8.734 0 0 1-1.843 2.709 8.97 8.97 0 0 1-6.272 2.566 7.164 7.164 0 0 1-3.792-.962 5.48 5.48 0 0 1-2.232-2.745c-.461-1.319-.532-2.78-.248-4.134.248-1.497.815-2.923 1.7-4.135a8.494 8.494 0 0 1 3.19-2.745 9.324 9.324 0 0 1 4.146-.962 7.133 7.133 0 0 1 3.721.927 5.004 5.004 0 0 1 2.197 2.637 7.098 7.098 0 0 1 .319 4.028Z"/><path d="M66.841 42.81c-.744 0-1.488.214-2.09.677a4.064 4.064 0 0 0-1.347 1.925h5.812c.177-.677 0-1.39-.497-1.89-.46-.498-1.169-.748-1.878-.712Z" fill="#D1B000"/><path d="m51.532 54.537 2.02-11.478-6.272 11.442h-3.756l-2.268-11.513-2.02 11.513h-4.607l3.366-19.105h5.458l3.012 13.26 7.583-13.26h5.458l-3.367 19.14h-4.607z"/></svg>