<svg viewBox="0 0 90 90" xmlns="http://www.w3.org/2000/svg"><g fill="none"><path fill="#000" d="M0 0h90v90H0z"/><path d="M30.53 35a2.363 2.363 0 0 0-1.691.71 2.465 2.465 0 0 0 0 3.447 2.363 2.363 0 0 0 3.38 0 2.465 2.465 0 0 0 .704-1.723c-.003-1.347-1.074-2.436-2.393-2.434Zm26.33 10.382v-3.488h-3.28V35l-3.963 2.327v13.35c0 3.229 1.855 5.192 5.386 5.192.661 0 1.27-.078 1.856-.258v-3.332c-.299.075-.607.11-.915.103-1.55 0-2.363-.62-2.363-2.196v-4.805h3.278Zm-36.894-.027c1.474 0 2.211.88 2.211 2.636v7.698h3.964v-8.602c0-3.332-1.6-5.503-4.777-5.503-1.906 0-3.176.672-4.498 2.197-.762-1.473-2.083-2.197-3.963-2.197-1.626 0-3.227.775-3.965 2.118h-.05v-1.808H5v13.795h3.964v-7.647c0-1.627.813-2.686 2.414-2.686 1.473 0 2.21.904 2.21 2.687v7.646h3.939v-7.698c0-1.628.89-2.635 2.44-2.635ZM85 51.531c0-2.403-1.804-3.771-5.235-4.494-1.194-.259-1.778-.673-1.778-1.267 0-.542.61-1.007 1.423-1.007 1.143 0 1.956.44 2.465 1.317l2.871-1.73c-.89-1.68-2.719-2.79-5.235-2.79-1.422 0-2.642.413-3.684 1.24-1.017.8-1.524 1.86-1.524 3.125 0 2.248 1.6 3.746 4.827 4.469 1.728.388 2.16.801 2.16 1.344 0 .541-.66 1.007-1.652 1.007-1.473 0-2.49-.569-3.048-1.679l-2.922 1.756C74.76 54.94 76.742 56 79.588 56 82.942 56 85 54.192 85 51.53Zm-22.878-2.764c0-1.007.33-1.86.965-2.506.635-.672 1.423-1.007 2.363-1.007s1.753.335 2.388 1.007c.635.646.965 1.499.965 2.506 0 2.066-1.422 3.538-3.328 3.538-.94 0-1.753-.335-2.388-.981-.636-.672-.965-1.523-.965-2.557Zm-4.066.051c0 2.067.711 3.772 2.134 5.141C61.613 55.328 63.366 56 65.45 56c2.058 0 3.81-.698 5.26-2.067 1.448-1.394 2.16-3.126 2.16-5.192 0-2.041-.712-3.72-2.135-5.09-1.423-1.368-3.176-2.066-5.235-2.066-2.057 0-3.837.698-5.284 2.093-1.449 1.368-2.16 3.1-2.16 5.14ZM47.623 55.69v-8.577c0-1.549-.407-2.841-1.246-3.9-.813-1.059-2.033-1.576-3.659-1.576-.584 0-1.295.026-2.49.723a3.57 3.57 0 0 0-1.346 1.343h-.026v-1.809h-3.939v13.795h3.965v-7.647c0-1.523.838-2.686 2.439-2.686 1.55 0 2.362 1.059 2.362 2.687v7.646h3.94v.001Zm-19.076 0h3.99V41.894h-3.99V55.69Z" fill="#FFF"/></g></svg>