<svg xmlns="http://www.w3.org/2000/svg" viewBox="0 0 90 90"><path fill="#5787FF" d="M0 0h90v90H0z"/><path d="M31.893 27.848a8.71 8.71 0 0 1 .135 1.577l-.001 7.562v22.62c0 4.226-3.367 7.943-7.443 8.344-5.33.525-8.906-3.247-9.474-6.99a8.778 8.778 0 0 1-.11-1.325c.002-10.103.003-20.206.002-30.31 0-4.182 3.369-7.894 7.51-8.284 4.565-.43 8.59 2.496 9.38 6.806Zm21.5.09c.085.48.124.965.12 1.452v30.118c0 4.353-3.373 8.077-7.532 8.451-5.3.476-8.919-3.342-9.404-7.152a9.92 9.92 0 0 1-.091-1.263v-30.12c0-4.289 3.362-8.024 7.543-8.384 4.63-.398 8.546 2.491 9.365 6.898Zm21.481-.06c.088.5.13 1.008.126 1.516l-.001 15.122v15.059c0 4.246-3.298 7.968-7.406 8.362-4.612.443-8.571-2.352-9.46-6.694a8.129 8.129 0 0 1-.166-1.639c.007-10.082.01-20.163.006-30.245 0-4.226 3.397-7.967 7.547-8.32 4.602-.39 8.564 2.512 9.354 6.84Z" fill="#FFF"/></svg>