<svg viewBox="0 0 90 90" xmlns="http://www.w3.org/2000/svg"><defs><linearGradient x1="50%" y1="0%" x2="50%" y2="100%" id="a"><stop stop-color="#00B332" offset="0%"/><stop stop-color="#AACB00" offset="100%"/></linearGradient></defs><g fill="none"><path fill="url(#a)" d="M0 0h90v90H0z"/><path d="M24.59 27a6.44 6.44 0 0 0-2.254.396c-1.276.452-2.327 1.263-3.153 2.431A6.472 6.472 0 0 0 18 33.616v24.768c0 1.81.638 3.374 1.915 4.693C21.229 64.36 22.787 65 24.589 65c1.84 0 3.398-.641 4.674-1.923 1.314-1.32 1.971-2.883 1.971-4.693V53.88c.015-.976 1.015-.72 1.521 0 .947 1.647 2.955 3.062 5.294 3.054 2.338-.008 4.28-1.17 5.293-3.054.384-.455 1.466-1.23 1.577 0v4.504c0 1.81.638 3.374 1.915 4.693C48.148 64.36 49.706 65 51.508 65c1.84 0 3.398-.641 4.674-1.923 1.315-1.32 1.972-2.883 1.972-4.693V33.616a6.27 6.27 0 0 0-1.24-3.789c-.788-1.168-1.82-1.979-3.097-2.431A6.757 6.757 0 0 0 51.565 27c-2.028 0-3.736.792-5.125 2.375l-6.687 7.858c-.15.113-.648.978-1.705.978-1.056 0-1.497-.865-1.647-.978l-6.744-7.858C28.306 27.792 26.617 27 24.59 27Zm41.666 0c-1.577 0-2.929.566-4.055 1.697-1.089 1.093-1.633 2.431-1.633 4.014 0 1.584.544 2.94 1.633 4.072 1.126 1.093 2.478 1.64 4.055 1.64 1.576 0 2.928-.547 4.054-1.64C71.437 35.652 72 34.295 72 32.71c0-1.583-.563-2.921-1.69-4.014C69.184 27.566 67.832 27 66.256 27Zm.056 12.553c-1.577 0-2.929.566-4.055 1.697-1.126 1.13-1.69 2.488-1.69 4.071v13.967c0 1.584.564 2.94 1.69 4.072 1.126 1.093 2.478 1.64 4.055 1.64 1.577 0 2.91-.547 3.998-1.64 1.127-1.131 1.69-2.488 1.69-4.072V45.321c0-1.583-.563-2.94-1.69-4.071-1.088-1.131-2.421-1.697-3.998-1.697Z" fill="#FFF"/></g></svg>