<svg xmlns="http://www.w3.org/2000/svg" viewBox="0 0 90 90"><path fill="#FFF" d="M0 0h90v90H0z"/><path fill="#292E37" d="M74.08 57.39H71.4c-.78 0-1.53-.33-2.05-.9l-7.55-8.32-2.46 2.7 7.28 8.02A6.47 6.47 0 0071.4 61h2.68c.51 0 .92-.4.92-.9v-1.8c0-.5-.41-.91-.92-.91M28.2 48.17l-7.55 8.32c-.52.57-1.27.9-2.05.9h-2.68c-.51 0-.92.4-.92.9v1.8c0 .5.41.91.92.91h2.68c1.82 0 3.57-.77 4.78-2.1l7.28-8.02-2.46-2.71zM45 57.62a5.54 5.54 0 01-4.1-1.8l-20.25-22.3a2.77 2.77 0 00-2.05-.9h-2.68c-.51 0-.92-.41-.92-.91v-1.8c0-.5.41-.91.92-.91h2.68c1.82 0 3.57.77 4.78 2.1L43.6 53.38c.34.37.82.62 1.32.64.57.03 1.09-.19 1.46-.6l20.25-22.3A6.47 6.47 0 0171.4 29h2.68c.51 0 .92.4.92.9v1.8c0 .5-.41.91-.92.91H71.4c-.78 0-1.53.33-2.05.9L49.1 55.81a5.54 5.54 0 01-4.1 1.81z"/></svg>