<svg xmlns="http://www.w3.org/2000/svg" viewBox="0 0 90 90"><path fill="#F42534" d="M0 0h90v90H0z"/><g fill="#FFF"><path d="M39.15 37.08h2.88v15.84h-2.88zM56.88 38.07a5.13 5.13 0 00-2.07 2.7l-2.97 8.1-2.97-8.1a5.5 5.5 0 00-5.22-3.69v2.79c1.17.09 2.16.72 2.61 1.8l3.69 9.9a2.06 2.06 0 001.98 1.35c.9 0 1.62-.54 1.89-1.35l3.69-9.9a2.95 2.95 0 012.61-1.89v-2.79a6.32 6.32 0 00-3.24 1.08m-41.4 14.85h2.7V40.86l5.76 7.83a2.52 2.52 0 004.14 0l5.67-7.83v12.15h2.79V37.08h-1.26c-1.35 0-2.7.63-3.51 1.8l-5.76 7.92-5.76-7.92a4.27 4.27 0 00-3.51-1.8h-1.26v15.84zm56.25-4.86c0 1.17-.9 2.07-2.07 2.07h-5.13c-1.17 0-2.07-.9-2.07-2.07v-.18c0-1.17.9-2.07 2.07-2.07h5.4c.81 0 1.35-.18 1.8-.36v2.61zm2.79-6.75a4.44 4.44 0 00-4.41-4.23h-8.55v2.7h8.55c.9 0 1.62.72 1.62 1.71v.36c0 .63-.63 1.17-1.26 1.17h-5.94a4.84 4.84 0 00-4.86 4.86v.18c0 2.7 2.16 4.86 4.86 4.86h5.13c2.7 0 4.86-2.16 4.86-4.86v-6.75z"/></g></svg>