<svg xmlns="http://www.w3.org/2000/svg" viewBox="0 0 90 69"><defs><linearGradient id="A" x1="53.147%" x2="47.886%" y1="86.915%" y2="55.129%"><stop offset="0%"/><stop offset="4.6%"/><stop offset="27.6%" stop-color="#868686"/></linearGradient><linearGradient id="B" x1="58.696%" x2="41.304%" y1="86.408%" y2="13.588%"><stop offset="0%" stop-color="#df8200"/><stop offset="39.2%" stop-color="#f0a800"/><stop offset="71.3%" stop-color="#ffcb00"/></linearGradient><linearGradient id="C" x1=".012%" x2="100.002%" y1="50.033%" y2="50.033%"><stop offset="0%" stop-color="#fcc200"/><stop offset="100%" stop-color="#ffcb00"/></linearGradient></defs><path fill="#868686" d="M56.07.834H28.397v39.415c4.416-3.193 9.12-5.964 14.051-8.276V14.944H56.07v.027c10.966 0 19.856 8.93 19.856 19.945s-8.89 19.945-19.856 19.945v.012H42.448V42.559c0-.353-.319-.349-.479-.231-5.111 3.572-9.682 7.866-13.572 12.749V69H56.07C74.809 69 90 53.741 90 34.918S74.809.836 56.07.836V.834z"/><path fill="url(#A)" d="M42.448 31.974l-14.051 8.275V.834l14.051 14.11z"/><path fill="url(#B)" d="M1.324 21.821h13.472v47.124H1.324z"/><path fill="url(#C)" d="M70.079 25.646c-.01-.381-.154-.746-.406-1.03-.462-.388-1.08-.532-1.665-.39-28.213 2.943-53.166 19.675-66.691 44.719h13.472c14.291-25.279 35.273-36.698 54.204-42.041.845-.282 1.105-.798 1.086-1.259z"/><path fill="#ffcb00" d="M8.06 0a8.06 8.06 0 0 1 7.447 4.999c1.247 3.026.557 6.508-1.748 8.824s-5.773 3.008-8.785 1.754S-.001 11.369 0 8.094C.003 3.625 3.61.002 8.06 0h0z"/></svg>