<svg viewBox="0 0 90 90" xmlns="http://www.w3.org/2000/svg"><g fill="none" fill-rule="evenodd"><path fill="#000" fill-rule="nonzero" d="M0 0h90v90H0z"/><path d="M62.772 38.41c1.199 0 2.171-.987 2.171-2.205S63.971 34 62.772 34c-1.2 0-2.172.987-2.172 2.205s.972 2.205 2.172 2.205Zm-23.165 2.448c-3.844 0-6.964 3.175-6.964 7.071S35.77 55 39.607 55c3.837 0 6.964-3.175 6.964-7.071s-3.12-7.071-6.964-7.071Zm0 10.798c-2.02 0-3.663-1.669-3.663-3.72 0-2.05 1.643-3.719 3.663-3.719 2.02 0 3.663 1.669 3.663 3.72 0 2.05-1.643 3.719-3.663 3.719ZM24.854 40.843a5.908 5.908 0 0 1 4.474 2.029 6.332 6.332 0 0 1 1.585 4.197v7.644h-3.33v-7.74c-.007-1.521-1.245-2.763-2.75-2.763-.087 0-.182.007-.276.014-1.346.14-2.475 1.434-2.475 2.83v7.66h-3.33v-7.719c-.007-1.528-1.238-2.778-2.744-2.778a3.64 3.64 0 0 0-.275.015c-1.339.14-2.475 1.433-2.475 2.837v7.644H10v-7.74c0-3.38 2.715-6.13 6.044-6.13a6.01 6.01 0 0 1 4.394 1.933 6.006 6.006 0 0 1 4.416-1.933Zm26.842-6.512h-3.33v20.397h3.33V34.331Zm3.04 0h3.33v20.397h-3.33V34.331Zm9.7 6.865h-3.33v13.525h3.33V41.196Zm13.631 1.647A6.82 6.82 0 0 1 80 47.613v1.55H69.873c.449 1.633 1.91 2.78 3.605 2.78 1.325 0 2.519-.684 3.207-1.838l.137-.228 2.751 1.374-.16.272c-1.252 2.14-3.546 3.47-5.993 3.47h-.007c-1.868 0-3.62-.75-4.945-2.11a7.075 7.075 0 0 1-2.02-5.05 7.105 7.105 0 0 1 2.035-4.917 6.853 6.853 0 0 1 4.835-2.073h.087c1.76 0 3.41.713 4.662 2Zm-1.433 3.528c-.478-1.441-1.839-2.455-3.359-2.455s-2.881 1.014-3.352 2.455h6.71Z" fill="#FFF"/></g></svg>