<svg xmlns="http://www.w3.org/2000/svg" viewBox="0 0 90 90"><path fill="#FF7369" d="M0 0h90v90H0z"/><path d="M20 17c13.27 3.747 22.235 14.15 22.235 28.02S33.27 69.293 20 73V58.97c0-4.344 1.461-8.051 5.569-9.327l9.241-3.746c.435-.12.909-.439.909-.917 0-.438-.474-.797-.909-.917l-9.241-3.746C21.422 39.04 20 35.335 20 30.99Zm50 0v13.99c0 4.345-1.422 8.051-5.569 9.327l-9.241 3.746c-.435.12-.909.479-.909.917 0 .478.474.797.909.917l9.241 3.746C68.54 50.92 70 54.626 70 58.97V73c-13.27-3.707-22.235-14.11-22.235-27.98C47.765 31.15 56.73 20.747 70 17Z" fill="#FFF"/></svg>