<svg viewBox="0 0 90 90" xmlns="http://www.w3.org/2000/svg"><g fill="none"><path fill="#FFF" d="M0 0h90v90H0z"/><path d="M54.762 27.423h-.431V18.31c.377.922.431 1.845.431 2.604v6.51Zm-17.13-3.635a8.644 8.644 0 0 0 1.777.326v-.434a9.08 9.08 0 0 1-1.67-.326c-.7-.162-1.346-.325-1.993-.325a2.5 2.5 0 0 0-.915.163v.488c.215-.109.538-.163.915-.163.593-.054 1.24.109 1.886.271Zm-5.226-.325c.378 0 .7.054.916.163v-.489a2.5 2.5 0 0 0-.916-.162c-.646 0-1.292.162-1.993.325a8.281 8.281 0 0 1-1.67.326v.434a10.22 10.22 0 0 0 1.778-.326c.7-.108 1.293-.271 1.885-.271Zm0-1.085c.378 0 .7.108.916.163v-.489c-.27-.108-.592-.108-.916-.162-.646 0-1.292.162-1.993.325a8.281 8.281 0 0 1-1.67.326v.434a9.37 9.37 0 0 0 1.778-.326c.7-.163 1.293-.325 1.885-.271Zm0 2.224c.378 0 .7.054.916.163v-.488c-.27-.109-.592-.109-.916-.163-.646 0-1.292.163-1.993.325a8.281 8.281 0 0 1-1.67.326v.434c.647-.054 1.186-.217 1.778-.326.7-.162 1.293-.325 1.885-.27Zm0-3.363c.378 0 .7.108.916.162v-.488a2.5 2.5 0 0 0-.916-.163c-.646 0-1.292.163-1.993.326a8.281 8.281 0 0 1-1.67.325v.434a10.22 10.22 0 0 0 1.778-.325c.7-.109 1.293-.271 1.885-.271Zm-2.908 33.2c-5.333-8.842-5.226-17.468-5.226-18.553V15h40.402v20.886c0 1.085.108 9.71-5.225 18.553-4.74 8.03-11.905 11.556-14.976 12.64-3.017-1.084-10.181-4.61-14.975-12.64Zm10.773-1.627-1.077-.868.592-1.302-1.4.271-.593-1.248-.646 1.248-1.347-.271.593 1.302-1.078.868 1.347.325v1.41l1.131-.867 1.078.868v-1.41l1.4-.326Zm5.764 8.843 1.347-.651-1.347-.597.485-1.41-1.4.542-.593-1.356-.593 1.302-1.4-.543.538 1.41-1.346.597 1.346.651-.538 1.41 1.4-.542.593 1.357.592-1.357 1.401.543-.485-1.356Zm-2.963-16.167-1.077.922 1.347.326v1.41l1.077-.868 1.131.868.054-1.41 1.347-.326-1.077-.922.592-1.302-1.4.272-.593-1.248-.592 1.248-1.401-.272.592 1.302Zm4.74 8.897.809-.868-1.185-.217-.539-1.085-.539 1.085-1.185.217.862.868-.215 1.194 1.077-.543 1.078.543-.162-1.194ZM51.8 50.1l.647-1.085h-1.24l-.592-1.085-.592 1.085h-1.24l.647 1.085-.646 1.085h1.239l.592 1.085.593-1.085h1.239L51.8 50.1Zm9.481-26.148a1.708 1.708 0 0 0-.754.76 1.54 1.54 0 0 0-.216.813v.217l.485-.325c.108-.109.216-.271.324-.38.107-.217.161-.542.161-.814v-.27Zm-4.202 6.239c.324.163.7.217 1.078.163.377-.055.646-.217.915-.489a1.649 1.649 0 0 0-1.023-.162c-.377.054-.7.27-.97.488Zm0-.597c.162-.271.27-.597.27-.922v-.109c-.324.163-.593.38-.808.651-.162.272-.27.597-.27.923v.108c.377-.108.647-.325.808-.65Zm.431-.108s0 .054 0 0c.108 0 .162 0 .216-.055.215-.162.323-.38.43-.65a1.94 1.94 0 0 0 .108-.543c0-.163-.053-.326-.107-.488-.216.162-.377.325-.485.542 0 .488-.054.868-.162 1.194Zm1.024-.868c0 .054 0 .054 0 0 .108 0 .161-.055.215-.109.162-.217.216-.434.27-.705v-.163c0-.271-.108-.597-.27-.868-.161.217-.323.434-.377.651.162.488.216.814.162 1.194Zm.754-1.085c0 .054 0 .054 0 0 .108 0 .162-.055.215-.163.054-.163.108-.326.108-.543v-.217a1.714 1.714 0 0 0-.485-.922 1.68 1.68 0 0 0-.161.705c.161.434.27.76.323 1.14Zm.539-1.248c0 .054 0 .054 0 0 .107-.054.107-.109.161-.217v-.109c0-.217-.054-.434-.107-.65-.108-.326-.378-.543-.7-.76-.055.108-.055.271-.055.38 0 .108 0 .217.054.325.323.38.539.705.647 1.03Zm.215-1.302a.412.412 0 0 0 .108-.217c-.054-.271-.108-.488-.27-.705a1.663 1.663 0 0 0-.861-.597c0 .271.053.542.161.76.377.162.647.433.862.759Zm-.054-1.573c-.107-.272-.215-.489-.43-.651-.27-.217-.54-.326-.916-.38.053.271.161.488.323.65.377.11.7.326.97.543h.053v-.162Zm-.43-1.031c0-.109-.055-.163-.055-.271-.161-.217-.323-.38-.538-.489a1.649 1.649 0 0 0-1.024-.162c.162.217.27.434.485.596.431 0 .808.109 1.131.326Zm-.216 6.944c.323-.109.592-.38.808-.705-.377-.055-.754-.055-1.078.054-.269.108-.538.38-.754.65.162 0 .377.055.539.11.162 0 .323 0 .485-.11Zm.916-1.248c.269-.217.484-.542.646-.922-.377 0-.754.108-1.023.325-.27.217-.485.489-.593.814.162-.054.377-.054.539-.054a.61.61 0 0 0 .43-.163Zm.97-2.495a2.285 2.285 0 0 0-.917.542c-.215.271-.323.597-.377.977.162-.055.324-.109.54-.163.16-.109.268-.217.376-.326.27-.27.377-.65.377-1.03Zm-.324-3.255c-.27.27-.485.542-.593.922-.053.108-.053.271-.053.434 0 .217.053.434.107.597.108-.163.27-.272.377-.38.108-.163.162-.326.216-.488.054-.109.054-.272.054-.38.054-.217 0-.434-.108-.705Zm-1.077-.434c0 .325.107.65.323.976.054-.163.161-.325.27-.488.053-.163.107-.326.107-.488 0-.38-.108-.706-.323-1.031-.216.325-.377.65-.377 1.03Zm-.862-1.574c0 .109 0 .272.054.38.053.326.269.597.538.868.054-.163.108-.38.162-.542v-.109c0-.108 0-.217-.054-.38-.108-.325-.27-.65-.593-.922-.053.217-.107.434-.107.705Zm-.162.651a4.011 4.011 0 0 0-.646-.38c-.323-.108-.7-.054-1.024.055.162.217.377.38.593.488.377-.054.808-.054 1.131.054h.054c-.054-.054-.054-.108-.108-.217Zm-1.023-2.061c0 .271.054.542.161.814.162.325.431.542.754.705 0-.217 0-.38.054-.597-.054-.163-.054-.325-.161-.434a1.708 1.708 0 0 0-.754-.76c-.054.11-.054.163-.054.272Zm-1.4.108c.107.38.322.706.592.868.269.163.592.272.915.326-.107-.109-.161-.217-.269-.38-.054-.108-.108-.271-.162-.38l-.107-.108c-.216-.217-.539-.326-.97-.326Zm-4.203 8.518c0 .27.216.596.7.596h.916a4.366 4.366 0 0 0-.215 1.302c0 .651.108 1.194.323 1.574-.7-.109-1.185-.272-1.67-.543h-.054l-.107.271h.053c.431.217.808.326 1.293.489 0 0 .377.054.647.108a.416.416 0 0 0-.108.271c0 .217.162.38.377.38a.37.37 0 0 0 .377-.38.416.416 0 0 0-.108-.27c.27-.055.593-.11.593-.11.485-.108.916-.216 1.347-.488h.054l-.108-.325h-.054c-.485.271-.97.434-1.67.542.162-.38.323-.922.323-1.573 0-.488-.054-.976-.215-1.302h.916c.484 0 .7-.271.7-.597a.426.426 0 0 0-.431-.434.426.426 0 0 0-.431.434c0 .055 0 .109.054.163.054.054.054.163-.108.163h-.539v-6.89c0-.922-.054-2.061-.592-3.146l-.162-.326-.161.326c-.54 1.085-.593 2.224-.593 3.146v6.89h-.539c-.161 0-.107-.109-.107-.163 0-.054.053-.108.053-.163 0-.217-.161-.434-.377-.434-.161.055-.377.272-.377.489Zm-1.13.813c-.109-.217-.27-.38-.486-.542-.054.163-.108.325-.108.488 0 .163.054.38.108.543.054.27.216.434.377.65.054 0 .162.055.216.055v-.054a2.572 2.572 0 0 1-.108-1.14Zm-.324-6.89c-.323-.054-.7 0-1.024.163-.215.109-.43.272-.538.489 0 .108 0 .162-.054.27h.054c.323-.216.7-.325 1.13-.325.162-.162.324-.38.432-.596Zm-.377 6.022c-.054-.217-.216-.434-.377-.65-.162.27-.27.542-.27.867v.163c0 .271.108.488.27.705.054.055.161.109.215.163v-.054c-.054-.434 0-.76.162-1.194Zm-1.24-.596c0 .162.055.325.109.542l.161.163s0-.054.054-.054c.054-.38.162-.76.377-1.085 0-.272-.108-.489-.215-.706-.27.272-.431.597-.485.923v.217Zm.432-1.52c.054-.108.054-.216.054-.325 0-.108-.054-.271-.054-.38-.323.217-.539.434-.7.76-.108.217-.108.434-.108.65v.11a.412.412 0 0 1 .107.216s.054 0 .054-.054c.108-.38.324-.705.647-.976Zm-.808-1.952v.217h.054c.269-.272.592-.434.97-.543.16-.217.269-.434.322-.65-.377.053-.7.162-.97.379-.16.108-.322.38-.376.597Zm-.162 1.356c.054.054.054.163.054.271h.054c.215-.325.485-.597.862-.76.107-.216.161-.488.161-.759a1.663 1.663 0 0 0-.862.597.902.902 0 0 0-.269.65Zm-.215 1.356c-.216-.271-.54-.434-.916-.542.054.38.161.705.377.976.108.109.27.217.377.326l.485.162a1.48 1.48 0 0 0-.323-.922Zm-.54 1.03c.109.38.324.706.593.923.108.109.27.163.431.217.216 0 .378 0 .54.054-.162-.325-.324-.65-.593-.813-.216-.272-.593-.38-.97-.38Zm.755 1.52c.216.325.431.542.808.705.162.054.323.109.485.109.162-.055.377-.055.539-.109-.216-.271-.485-.542-.755-.65-.323-.164-.7-.164-1.077-.055Zm1.077 1.248c.27.27.593.434.97.488.323.054.7-.054 1.024-.163a1.667 1.667 0 0 0-.97-.488c-.323-.109-.7 0-1.024.163Zm2.802.325v-.108c0-.326-.108-.651-.27-.923a2.388 2.388 0 0 0-.808-.65v.108c0 .325.108.65.27.922.161.326.43.543.808.651Zm-1.4-10.416a1.648 1.648 0 0 1-.27.38c.323 0 .646-.109.915-.326.27-.217.485-.542.647-.868-.377 0-.754.109-1.024.326l-.107.108c-.054.109-.108.272-.162.38Zm-1.078 0c.054.217.054.38.054.597.323-.163.592-.434.7-.705a1.54 1.54 0 0 0 .215-.814c0-.109 0-.163-.054-.271a1.708 1.708 0 0 0-.754.76c-.054.162-.107.27-.161.433Zm-.162 1.41s.054 0 0 0a2.956 2.956 0 0 1 1.185-.054 1.67 1.67 0 0 0 .593-.488c-.323-.108-.7-.163-1.024-.054-.27.054-.485.163-.646.38-.054.054-.054.108-.108.217Zm-.862-.325v.109c.108.162.162.38.162.542.27-.271.43-.542.538-.868.054-.108.054-.271.054-.38a1.68 1.68 0 0 0-.161-.705c-.27.271-.485.543-.593.922.054.109 0 .217 0 .38Zm-.754.977c0 .162.054.325.108.488.107.163.215.325.27.488.16-.271.322-.597.322-.976 0-.326-.161-.706-.323-1.031-.215.325-.377.65-.377 1.03Zm-.539 1.139c0 .163 0 .271.054.38.054.162.108.325.216.488.161.108.269.217.377.38.054-.217.107-.434.107-.597 0-.163 0-.271-.053-.434a2.452 2.452 0 0 0-.593-.922 3.196 3.196 0 0 0-.108.705Zm-.269 1.14c0 .27.054.596.215.813.054.163.162.271.324.38.161.054.323.162.484.27v-.216a1.54 1.54 0 0 0-.215-.814 1.589 1.589 0 0 0-.808-.76v.326Zm-13.09 4.285c.377-.271.862-.38 1.454-.38.647 0 1.293.109 1.993.326.7.162 1.509.38 2.263.325v-9.602c-.808.054-1.616-.163-2.37-.326-.647-.162-1.293-.325-1.832-.27-.808 0-1.239.27-1.508.487v9.439Zm-6.087.217c.754.054 1.508-.109 2.262-.326.7-.162 1.347-.325 1.993-.325.593 0 1.078.163 1.455.38v-9.387c-.27-.27-.7-.488-1.509-.488-.592 0-1.185.109-1.831.271-.754.217-1.508.38-2.37.326v9.547ZM26.75 30.19h6.518c.162.271.431.488.808.488.377 0 .7-.217.808-.488h6.519V19.34h-.808l.053.217v9.874h-6.033c-.108.162-.215.216-.539.216-.269 0-.377-.054-.484-.217h-6.088v-9.873l.054-.217h-.808v10.85Zm2.37 21.754 15.353-13.888L59.88 51.998c1.023-1.953 1.723-3.852 2.316-5.642L44.473 30.298 26.804 46.302a32.084 32.084 0 0 0 2.316 5.642Zm3.286-26.257c.378 0 .7.054.916.163v-.488c-.27-.109-.592-.109-.916-.163-.646 0-1.292.163-1.993.325a8.281 8.281 0 0 1-1.67.326v.434c.593-.054 1.186-.217 1.778-.326.7-.108 1.293-.27 1.885-.27Zm0 1.14c.378 0 .7.054.916.162v-.488a2.5 2.5 0 0 0-.916-.163c-.646 0-1.292.163-1.993.326a8.281 8.281 0 0 1-1.67.325v.434c.593-.054 1.186-.217 1.778-.325.7-.163 1.293-.326 1.885-.272Zm0-6.673c.378 0 .7.108.916.162v-.488c-.27-.108-.592-.108-.916-.163-.646 0-1.292.163-1.993.326a8.281 8.281 0 0 1-1.67.325v.434a10.22 10.22 0 0 0 1.778-.325c.7-.163 1.293-.271 1.885-.271Zm5.226 2.55a8.644 8.644 0 0 0 1.777.325v-.434a9.08 9.08 0 0 1-1.67-.326c-.7-.162-1.346-.325-1.993-.325a2.5 2.5 0 0 0-.915.163v.488c.215-.109.538-.163.915-.163.593-.108 1.24.054 1.886.271Zm0-2.225a8.644 8.644 0 0 0 1.777.326v-.434a9.08 9.08 0 0 1-1.67-.326c-.7-.163-1.346-.325-1.993-.325a2.5 2.5 0 0 0-.915.162v.489c.215-.109.538-.163.915-.163.593-.054 1.24.054 1.886.271Zm0 4.394c.538.109 1.185.272 1.777.326v-.434a8.281 8.281 0 0 1-1.67-.326c-.7-.162-1.346-.325-1.939-.325-.323 0-.646.054-.916.108v.489c.216-.109.54-.163.916-.163.539 0 1.185.163 1.832.325Zm0-3.309a8.644 8.644 0 0 0 1.777.326v-.434a9.08 9.08 0 0 1-1.67-.326c-.7-.163-1.346-.325-1.993-.325a2.5 2.5 0 0 0-.915.162v.489c.215-.109.538-.163.915-.163.593-.054 1.24.108 1.886.271Zm0 4.449a8.644 8.644 0 0 0 1.777.325v-.434c-.538-.054-1.13-.217-1.67-.325-.7-.163-1.346-.326-1.993-.326a2.5 2.5 0 0 0-.915.163v.488c.215-.108.538-.163.915-.163.593-.054 1.24.109 1.886.272Zm0 1.085a8.644 8.644 0 0 0 1.777.325v-.434a9.08 9.08 0 0 1-1.67-.325c-.7-.163-1.346-.326-1.993-.326a2.5 2.5 0 0 0-.915.163v.488c.215-.108.538-.163.915-.163.593-.054 1.24.109 1.886.272ZM72 50.154l-.108.271c-1.023 3.418-2.747 6.835-3.986 9.06l-.27.434-1.777-1.628c-.054.109-.162.271-.216.38-4.524 7.27-10.881 12.532-18.476 15.353L44.473 75l-2.693-.976c-7.542-2.767-13.952-8.084-18.423-15.353-.054-.109-.108-.271-.216-.38L21.31 59.92l-.27-.489c-1.239-2.278-2.909-5.696-3.986-9.06L17 50.155l4.363-3.96.54-.489.215.651c.215.814.484 1.573.754 2.333l1.239-1.14.484-.433.216.65a36.02 36.02 0 0 0 3.61 7.704c3.824 6.13 9.157 10.579 15.46 12.912 0 0 .43.162.646.217.215-.055.646-.217.646-.217 6.303-2.333 11.69-6.782 15.46-12.912a36.02 36.02 0 0 0 3.61-7.703l.215-.651 1.724 1.573c.27-.76.539-1.519.754-2.333l.216-.65L72 50.153Zm-51.39 6.51-.81-5.154 2.37-2.17c-.269-.651-.484-1.356-.7-2.062-.7.651-3.124 2.821-3.447 3.147a43.16 43.16 0 0 0 2.585 6.239Zm2.1.868c-.539-.923-1.077-1.9-1.508-2.876l.592 3.744c.162-.217.539-.543.916-.868Zm45.088-2.876c-.43.977-.97 1.953-1.508 2.876.377.325.7.65.916.868l.592-3.744Zm.323-2.983a348.508 348.508 0 0 1-3.34-3.038c-.915 2.604-2.046 5.1-3.447 7.323-3.879 6.293-9.373 10.85-15.891 13.292l-.97.325-.916-.325c-6.518-2.387-11.959-6.999-15.891-13.292-1.4-2.224-2.532-4.72-3.448-7.323-.7.596-2.962 2.712-3.34 3.038.862 2.278 1.994 4.502 3.233 6.51 4.417 7.106 10.666 12.26 18.046 14.973 0 0 2.154.759 2.37.868.27-.109 2.424-.868 2.424-.868 7.38-2.713 13.629-7.92 18.046-14.973 1.131-1.953 2.263-4.178 3.124-6.51Zm2.855-1.302c-.323-.326-2.747-2.496-3.447-3.147-.216.705-.431 1.41-.7 2.062l2.37 2.17-.808 5.208c.916-1.9 1.885-4.07 2.585-6.293Zm-46.434 6.618.053.217-.161.109c-.108-.163-.162-.326-.27-.543a4.778 4.778 0 0 1-.323-.542l.162-.055.162.163c.161-.163.43-.38.538-.597l-.377-.705-.754.163.054.217-.108.054c-.054-.163-.161-.271-.215-.434-.054-.108-.108-.217-.216-.38l.162-.054.161.163c.54 0 1.67-.217 2.37-.326.108.163.27.272.378.38l.054.217-.7.868c-.378.38-.809.922-.97 1.085Zm.43-1.465.647-.705-.97.217.324.488Zm3.933 4.015.108-.109c-.108-.108-.162-.217-.27-.38-.107-.108-.161-.27-.269-.38l-.162.11.108.216c-.377.272-1.239.977-1.239.977.216-.651.485-1.41.754-2.062-.107-.108-.161-.217-.269-.325-.054-.109-.162-.217-.215-.326l-.108.109.108.217c-.162.163-.324.271-.54.434l-.592.434a3.62 3.62 0 0 1-.592.38l-.162-.163-.108.108c.108.109.162.217.27.38.107.109.161.271.27.38l.107-.109-.162-.27c.377-.272.862-.652 1.293-.977-.27.65-.485 1.356-.754 2.115.054.055.108.163.162.217.053.055.107.163.161.217.216-.162.431-.38.754-.596l.593-.434c.215-.163.43-.272.592-.38l.162.217Zm.215 2.007a1.256 1.256 0 0 0-.053 1.845c.323.325.646.542 1.239.596l.053-.325c-.323-.054-.592-.163-.754-.38-.377-.38-.377-.922.054-1.356.431-.434.916-.271 1.185.054.162.163.27.38.27.597l-.108.217.108.163c.161-.109.377-.272.538-.326-.107-.325-.269-.542-.485-.814-.592-.705-1.454-.813-2.047-.27Zm5.226 4.991c-.485.597-1.24.651-1.993.054-.7-.596-.808-1.302-.27-2.007.485-.597 1.293-.65 1.993-.054.7.597.808 1.356.27 2.007Zm-.539-1.682c-.377-.325-.862-.162-1.239.217-.377.434-.377.923 0 1.248.377.326.862.163 1.24-.217.322-.434.376-.976 0-1.248Zm4.31 3.472c-.162.326-.54.38-.916.217.054.272.161 1.194.215 1.357l.054.108-.108.163c-.215-.163-.484-.271-.7-.38 0-.434-.054-1.085-.108-1.465l-.161-.108-.108.217c-.162.217-.27.434-.323.597l.161.162-.107.163-.485-.325a4.724 4.724 0 0 0-.539-.326l.108-.163.215.109c.162-.163.27-.38.431-.597l.377-.65c.162-.218.27-.435.377-.598l-.161-.162.108-.163c.107.108.269.163.377.271.161.109.323.163.485.271.161.109.323.163.484.272.539.325.539.705.324 1.03Zm-.808-.922c-.162-.108-.216-.108-.324-.163a5.01 5.01 0 0 1-.269.434l-.108.163.162.163c.323.217.592.217.754-.054.108-.217.054-.38-.215-.543Zm4.094 2.93a18.785 18.785 0 0 0-.108 1.464l.161.109-.053.163c-.162-.109-.378-.163-.54-.272-.16-.108-.376-.162-.538-.217l.054-.162.216.054a3.75 3.75 0 0 0 .107-.76l-.754-.325-.485.597.162.108-.054.163c-.162-.054-.323-.163-.43-.217-.109-.054-.27-.109-.378-.163l.054-.163.215.055c.431-.326 1.185-1.14 1.724-1.736.216.054.377.054.539.108l.215.163-.107 1.03Zm-.54-.977-.646.76.54.27.107-1.03Zm7.92 1.899c-.108-.217-.216-.38-.324-.651l-.269-.651c-.108-.271-.215-.434-.27-.651l.216-.109-.054-.162c-.161.108-.377.162-.538.27-.162.055-.377.164-.54.218l.055.163.215-.055c.108.217.216.38.323.651l.27.651c.108.272.161.434.27.651l-.216.109.054.163c.161-.109.377-.163.538-.272.162-.054.377-.162.539-.217l-.054-.162-.215.054Zm4.632-2.496c-.107-.162-.27-.38-.377-.596l-.377-.651a2.215 2.215 0 0 1-.323-.597l.162-.163-.108-.163a4.963 4.963 0 0 1-.431.272c-.162.108-.323.162-.485.27.108.326.323 1.628.377 1.9-.27-.217-1.239-.977-1.454-1.248-.162.108-.324.217-.431.271-.162.109-.324.163-.485.271l.108.163.215-.054.162.325c.161.326.754 1.302.862 1.574l-.162.162.108.163c.107-.054.27-.163.377-.217.108-.054.27-.163.377-.217l-.108-.163-.215.109c-.108-.163-.27-.38-.377-.597l-.216-.38c-.162-.325-.323-.542-.377-.65.916.813 1.454 1.193 1.67 1.41l.323-.217-.43-2.17c.053.108.215.325.376.65l.216.38c.161.218.215.435.323.652l-.162.162.054.163.485-.325c.162-.109.377-.217.539-.326l-.054-.163h-.162Zm2.478-1.898c-.161-.163-.323-.326-.485-.543l-.323-.434a2.408 2.408 0 0 1-.43-.597c.053-.054.107-.162.215-.217.27-.217.485-.162.646 0 .162.217.216.489-.054.651-.054.055-.107.109-.161.109l.107.325c.108-.054.216-.162.324-.217.538-.434.538-.976.269-1.356-.27-.325-.7-.38-1.131 0a2.386 2.386 0 0 1-.377.326c-.162.162-.324.27-.431.38-.108.108-.27.216-.431.325l.107.108.216-.108c.162.163.323.325.485.542l.43.597c.162.217.324.38.432.543l-.162.162.108.109c.161-.109.323-.271.485-.38.161-.108.323-.217.538-.434l-.107-.108-.27.217Zm4.256-3.906.108.108c-.162.109-.27.271-.431.434-.162.163-.27.326-.431.434l-.108-.108.108-.163a8.226 8.226 0 0 0-.7-.38l-.593.597.377.65.162-.108.107.109-.323.325c-.108.109-.215.217-.27.326l-.107-.109.108-.162c-.162-.489-.7-1.52-1.024-2.225.108-.162.216-.325.27-.488l.215-.108.97.434c.43.217 1.077.488 1.293.542l.269-.108Zm-1.67.162-.916-.434.485.868.43-.434Zm4.417-3.689.108.109a4.566 4.566 0 0 0-.431.65c-.485 0-1.131-.053-1.508-.053l-.108.162.162.163c.215.163.377.271.592.38l.162-.163.161.109c-.107.162-.27.325-.377.488-.108.163-.215.325-.377.488l-.161-.108.107-.217c-.161-.163-.323-.272-.538-.434l-.593-.434c-.215-.163-.377-.272-.593-.434l-.161.162-.162-.108c.108-.109.216-.217.27-.38.107-.163.215-.271.323-.434.108-.163.215-.271.323-.434.431-.597.808-.542 1.077-.325.27.217.324.596.162.922.27 0 1.185-.054 1.347-.054l.215-.055Zm-1.993-.217c-.162-.162-.377-.108-.539.163-.107.109-.161.217-.215.271.108.055.215.217.43.326l.162.108.162-.162c.216-.272.216-.489 0-.706Zm3.825-2.278c-.485.814-1.185 1.03-1.886.597-.646-.38-.862-1.14-.377-1.953.485-.814 1.131-1.031 1.886-.597.646.325.862 1.14.377 1.953Zm-.754-1.356c-.485-.272-.97-.217-1.24.162-.269.434-.053.868.432 1.194.484.271.97.217 1.239-.163.269-.434.053-.922-.431-1.193Zm-19.5 15.352c-.27 0-.54.272-.54.597 0 .326.27.597.54.597a.6.6 0 0 0 .592-.597.6.6 0 0 0-.593-.597Zm-21.01-18.065c.323 0 .593-.271.593-.542a.6.6 0 0 0-.593-.597c-.323 0-.538.271-.538.597 0 .27.269.542.538.542Zm42.126 0c.323 0 .592-.271.592-.542a.6.6 0 0 0-.592-.597c-.27 0-.54.271-.54.597-.053.27.216.542.54.542Z" fill="#000"/></g></svg>