<svg viewBox="0 0 90 90" xmlns="http://www.w3.org/2000/svg"><g fill="none"><path fill="#FFC700" d="M0 0h90v90H0z"/><path d="M74.678 82.227c3.543 1.457 3.38 7.773-.81 7.773h-19.23c-1.012 0-2.207-.162-2.693-1.923-1.923-7.49-3.846-14.98-5.728-22.47-.203-.769-.527-1.315-1.114-1.315-1.174 0-1.801 2.024-2.631 3.987-.81 1.964-7.348 19.454-7.753 20.203a2.45 2.45 0 0 1-2.227 1.457H13.707c-2.227 0-2.004-1.963-.709-2.773 1.174-.729 3.745-1.296 5.405-1.822a15.385 15.385 0 0 0 8.806-8.077 48.481 48.481 0 0 0 3.664-11.356c.526-3.219-.911-5.79-3.097-6.822-19.373-9.109-18.604-30.384-9.96-43.987A32.551 32.551 0 0 1 45.427 0C61.925 0 77.25 13.158 77.25 30.405c0 16.113-8.745 22.004-14.94 25.648-2.428 1.417-3.299 3.117-2.732 5.627 1.417 6.276 6.356 15.365 7.996 17.43 1.62 2.084 6.093 2.63 7.125 3.076M55.59 45.223c8.34 2.43 17.409-9.595 12.753-22.47-2.43-6.72-10.77-15.263-23.28-15.263-11.173 0-20.08 7.49-23.44 16.64-4.11 11.214-1.012 18.542 4.25 23.28 3.24 2.914 10.567.789 13.624-6.924.162-.364.87-.486 1.154-.546a9.647 9.647 0 0 0 4.049-1.68c.89-.669.81-2.025-.203-1.802-.81.202-2.712 1.073-3.644 1.356-.708.203-.688-.243-.607-.405.203-.607.324-1.174.466-1.822.202-.971-.122-1.315-1.417-.668a6.945 6.945 0 0 1-2.004.81c-.405 0-1.255-.405-1.013-1.214 2.43-8.138 4.96-9.393 6.377-9.798 3.036-.83 6.478.628 7.328 3.887.708 2.692.324 3.279.668 5.89.405 3.36-.506 9.15 4.94 10.729Zm-12.206-15.02c0-.486-.284-.931-.75-1.114-1.072-.465-2.105.77-1.457 1.762a1.194 1.194 0 0 0 2.186-.648h.02Z" fill="#000"/></g></svg>