<svg viewBox="0 0 90 90" xmlns="http://www.w3.org/2000/svg"><defs><linearGradient x1="49.227%" y1="43.377%" x2="47.359%" y2="91.93%" id="a"><stop stop-color="#FDCFA6" offset="0%"/><stop stop-color="#D8A887" offset="100%"/></linearGradient><linearGradient x1="50.033%" y1="64.766%" x2="49.369%" y2="8.269%" id="b"><stop stop-color="#FDCFA6" offset="0%"/><stop stop-color="#D8A887" offset="100%"/></linearGradient><linearGradient x1="49.628%" y1="42.637%" x2="47.715%" y2="80.154%" id="c"><stop stop-color="#FDCFA6" offset="0%"/><stop stop-color="#D8A887" offset="100%"/></linearGradient></defs><g transform="translate(4)" fill="none"><path d="M73.012 35.123s.3-4.039 2.546-3.29c2.247.897 4.794 4.486 4.944 7.03.15 2.542-2.247 8.226-1.798 10.17.45 1.795 1.199 5.534-2.397 5.833" fill="url(#a)"/><path d="M37.958 4.91S43.05 3.264 50.99 6.854c8.089 3.59 15.58 12.115 20.822 24.829 5.243 12.713 5.843 34.102-2.397 43.076-8.389 9.124-22.77 19.594-47.188 8.526 0 0-6.741-1.646-8.988-12.863-2.247-11.069 5.243-43.675 8.539-46.517 3.296-2.842 9.139-18.995 16.18-18.995Z" fill="url(#b)"/><path d="M73.461 66.832c.6-2.393.75-4.188.75-5.534-.9 5.683-1.649 9.273-.75 5.534Zm1.199-24.829s-4.195-14.508-4.195-11.666c0 2.841-2.397 17.948-3.296 18.696-.898.598-2.396 2.842-10.636 5.684 0 0 3.745-.3 10.636 1.495 4.794 1.197 6.742 2.094 7.041 4.936.75-5.983 1.648-14.508.45-19.145Zm-32.208 27.82c1.797-1.196 4.344-7.329 4.344-7.329l-8.988.15s2.846 8.376 4.644 7.18Zm-7.94 4.487c-.749.15 7.04 13.91 14.082-.299 0 0-8.689-1.196-14.082.3Zm-.15-18.696c.3 0 .15-.3.15-.3l-5.842-.597s-7.79-.45-8.39-2.094c-.598-1.646-.898-4.936-.898-4.936h-.45l.45-.449 7.19 1.945C23.727 19.268 40.355 4.91 40.355 4.91 11.293 7.602 3.952 43.499 6.948 60.4c2.996 16.902 14.98 22.735 14.98 22.735-9.437-6.88-4.943-13.461-4.943-13.461-.899-1.795-1.648-3.44-2.097-4.936-.3-6.88 14.231-8.974 19.474-9.124Z" fill="#D8A887"/><path d="M36.31 61.746s1.048-.15 2.546 0c1.498.15 2.697.748 3.146.748.45 0 1.798-.748 2.397-.897.6-.15 2.697-.748 2.996-.748.3 0 .3 1.496.3 1.496s0 .15-.15.15c-.6.149-2.397.598-3.445 1.196-1.049.748-2.847.598-4.345 0-1.348-.449-1.498-.898-3.445-1.945Z" fill="#000"/><path d="M42.002 64.29c-.749 0-1.648-.15-2.247-.45-.749-.299-1.198-.598-1.648-.897l-1.797-1.197c0-.15 1.048-.299 2.546-.15.9.15 1.648.3 2.248.45.449.15.749.299.898.299.3 0 .75-.15 1.349-.449.449-.15.749-.3 1.048-.449.3 0 .75-.15 1.199-.299.898-.299 1.498-.449 1.647-.449.3.3.3 1.347.3 1.646 0 0 0 .15-.15.299l-.3.15c-.748.149-2.246.598-2.995 1.046-.45.3-1.199.45-2.098.45Zm-4.344-2.544a6.17 6.17 0 0 0-1.348.15c.899.3 1.348.748 1.797 1.047.45.3.9.598 1.648.897 1.498.599 3.296.599 4.195 0 .749-.448 2.247-.897 2.996-1.196l.3-.15c0-.598 0-1.346-.15-1.495-.15 0-1.049.15-1.648.448-.45.15-1.049.3-1.199.3-.3 0-.599.299-1.048.448-.6.15-1.049.449-1.348.449-.3 0-.6-.15-1.05-.3-.598-.149-1.347-.448-2.246-.448-.15-.15-.6-.15-.899-.15Zm-.898-8.076s1.048 4.337-.6 6.58c.15 0 7.79 1.496.6-6.58Zm8.089-11.069 1.198 6.88s15.43-6.43 18.426-8.674c2.996-2.244 1.348-5.983 1.348-5.983L44.85 42.6Zm-7.79-.598-.45 6.432s-17.527-5.086-20.523-7.33c-2.996-2.243-1.648-5.982-1.648-5.982l22.62 6.88Zm-29.811 6.88v.15c-.15.598-1.199 4.188-1.648 6.73 0 0 .749 1.646.749 1.347.15-.15.45-.898.45-1.197" fill="#000"/><ellipse fill="#000" cx="56.683" cy="51.277" rx="2.696" ry="2.692"/><path d="M48.444 55.165s1.049-6.132 7.04-6.88c4.045-.449 12.135-2.991 14.082-4.786 1.948-1.645-5.842 5.684-12.583 6.73-6.891 1.048-7.94 4.189-8.54 4.936Z" fill="#000"/><ellipse fill="#000" cx="26.123" cy="51.725" rx="2.696" ry="2.692"/><path d="M34.512 55.315s-1.198-6.132-7.19-6.73c-4.045-.3-12.284-2.693-14.232-4.338-1.947-1.646 5.992 5.534 12.883 6.431 6.741.898 7.94 3.89 8.54 4.637Z" fill="#000"/><path d="M12.79 44.097s-.3 2.393 1.05 3.59c1.347 1.196 17.077 3.74 18.425 4.487 1.199.748-2.097-1.795-2.097-1.795s-15.28-4.038-17.377-6.282Zm21.722 29.017s4.644-.748 5.393-.748c.75.15 2.397.449 3.296.3.899 0 1.797-.749 2.996-.6 1.048.15 2.397.898 4.494.6 2.097-.3 4.943-.898 4.943-.898s-6.141 4.636-19.774 2.692c0 0-3.895-.598-5.992-1.346-.3 0 3.745.15 4.644 0Z" fill="#000"/><path d="M80.352 46.191C81.7 43.648 82 41.554 82 40.358v-.3c0-1.046-.3-1.645-.3-1.645-.749-2.991-3.145-7.628-6.142-7.927-2.996-.299 0 0-.15 0-1.198-.15-1.947.449-2.246.898-1.498-5.235-3.895-10.47-8.54-16.453 0-.15-.15-.15-.299-.3C56.683 4.762 46.347-.923 38.407.124c-11.685 1.496-20.823 13.76-20.823 13.76v.15C3.802 30.486 4.701 50.53 4.402 50.08c.15 0-.6 4.786.749 12.115.3 1.496.749 3.141 1.348 4.936 1.648 5.983 5.393 12.863 13.632 17.35l.899.449c9.437 5.534 21.122 6.132 30.26 3.74 9.288-2.244 15.43-7.779 17.977-10.77 6.441-8.226 7.79-15.555 7.34-22.884 1.498.598 3.745-.449 3.745-2.842.3-1.496-.899-3.74 0-5.983Zm-1.498-5.534s-.45 2.244-1.198 4.786c-.45 1.346-.45 2.842-.3 4.039 0 .299 0 .598.15.897.15 1.197.15 2.094.15 2.244 0 .598-.15 1.196-.9 1.944-.299-2.842-.748-5.684-1.347-8.675-.3 11.218-.9 19.444-8.839 29.465-2.097 2.543-7.49 7.479-15.879 9.423-8.24 2.094-19.025 1.496-27.264-3.44C6.049 71.17 8.746 49.93 8.596 49.93c0-.897 0-19.893 12.733-34.251 6.442-7.33 16.778-10.47 25.018-8.376 8.239 1.795 13.332 7.329 15.58 9.871 7.939 10.32 10.486 17.8 13.631 28.568-.15-2.393-.3-4.636-.599-6.88 3.446-.449 2.397 4.637 2.397 4.637.6-1.496.75-4.786.3-5.684-.3-1.047-1.349-2.094-2.098-2.393-.599-.3-.749.449-.898 1.346 0-.449-.15-.897-.3-1.346-.15-1.496.3-2.842 2.547-.897.599.598 1.198 1.346 1.498 2.243 1.048 1.945.599 3.889.45 3.889Z" fill="#000"/><path d="M8.596 36.17s-.45-4.039-2.696-3.141c-2.247.897-4.644 4.637-4.794 7.18-.15 2.542 2.547 8.226 2.097 10.02-.3 1.945-1.798 6.582 2.996 5.684" fill="url(#c)"/><path d="M7.847 43.648s-.3-12.564-3.745-9.273c0 0 1.947-1.944 3.146-1.197 1.198.748 1.348 2.094 1.348 2.094s.3.3.3.45c0 .298-1.049 7.926-1.049 7.926Z" fill="#000"/><path d="M4.402 44.546s-1.199-3.889-1.05-5.086c.15-1.047 3.446-3.739 3.596-3.59.15.3 1.049 3.74 1.049 3.74S5.45 38.563 4.7 39.012c-.3.299-.45 4.188-.3 5.534Z" fill="#000"/><path d="M8.746 32.88c.3-.15.3-.45-.45-1.048-.599-.448-1.348-.448-1.947-.299h-.15c-.15 0-.3 0-.45.15-.149 0-.149 0-.299.15l-.899.448c-1.498.897-2.996 2.692-3.745 4.637-1.498 2.991-.45 6.132-.45 5.833 0 0 .75 2.543 1.35 4.936.898 2.094-.6 4.786 0 6.431.748 3.141 3.744 2.693 4.793 1.646-.15 0-.3-.15-.45-.15 0 0-.15-.15-.3-.15H5.6c-1.798-.747-1.198-3.29-1.198-3.29.3-1.346.449-3.141-.15-4.936-.75-2.692-1.498-4.936-1.349-4.936 0-.15-.749-2.094.3-4.188.75-2.393 3.296-3.889 3.296-3.889-.15-.448 1.198.599 2.097 1.945.15-.748.899-2.244.15-3.29Z" fill="#000"/></g></svg>