<svg viewBox="0 0 90 90" xmlns="http://www.w3.org/2000/svg"><g fill="none"><path fill="#F98012" d="M0 0h90v90H0z"/><path d="M66.331 70V46.987c0-4.803-1.99-7.225-5.93-7.225-3.96 0-5.95 2.401-5.95 7.225V70H42.78V46.987c0-4.803-1.948-7.225-5.845-7.225-3.96 0-5.93 2.401-5.93 7.225V70H19.337V45.627c0-5.015 1.737-8.819 5.21-11.39 3.05-2.295 7.2-3.464 12.41-3.464 5.274 0 9.17 1.36 11.67 4.08 2.16-2.72 6.077-4.08 11.774-4.08 5.21 0 9.34 1.148 12.39 3.464C76.262 36.808 78 40.612 78 45.627V70H66.331Z" fill="#FFF"/><path d="m41.998 29.01 11.584-8.5-.148-.51C32.53 22.571 23.022 24.399 5 34.875l.17.467 1.44.021c-.128 1.445-.36 5.015-.064 10.413-1.99 5.8-.042 9.753 1.779 14.046.296-4.463.254-9.35-1.101-14.216-.276-5.334-.043-8.861.084-10.221l11.945.106s-.085 3.612.36 7.033c10.673 3.762 21.41-.02 27.107-9.286-1.61-1.806-4.722-4.228-4.722-4.228Z" fill="#333"/></g></svg>