<svg xmlns="http://www.w3.org/2000/svg" viewBox="0 0 90 90"><path fill="#0081FB" d="M0 0h90v90H0z"/><path fill="#FFF" d="M71.56 55.96c-.97 0-1.46-.25-1.7-.5-.25-.23-.49-.72-.49-1.7 0-.73.24-1.7.49-3.17l2.19-10.97.49-1.7c.24-.98.24-1.7.49-2.68 0-.73.24-1.47.24-2.44 0-2.68-.73-4.63-2.2-5.85a9.2 9.2 0 00-5.6-1.95c-2.2 0-4.14.49-5.85 1.22-1.95.73-3.9 2.2-5.85 4.39-.24-1.95-.97-3.42-2.19-4.15A8.23 8.23 0 0046.71 25c-4.15 0-8.05 1.7-11.7 5.36a5.42 5.42 0 00-1.95-3.17c-1.7-1.46-3.9-2.19-6.82-2.19-2.2 0-4.15.49-5.85 1.46-.98.25-1.7.73-2.44 1.22L16 36.46l.49-.5c.48-.72 1.22-1.21 1.95-1.94a9.88 9.88 0 012.19-1.22c.73-.24 1.7-.49 2.44-.49.48 0 .97.25 1.46.73.49.5.73 1.22.73 2.2 0 .48 0 1.22-.24 2.2v.48l-5.36 25.1h9.5l5.12-24.37a16.14 16.14 0 013.9-4.14 6.48 6.48 0 013.9-1.47c.73 0 1.46.25 1.7.5.25.23.49.72.49 1.45 0 .98-.24 2.2-.49 3.66l-5.12 24.38h9.02l5.12-24.38c.97-1.7 2.44-3.17 3.65-4.14 1.47-.98 2.68-1.47 3.9-1.47.98 0 1.47.25 1.7.5.25.23.5.72.5 1.7 0 .73-.25 1.7-.5 3.17l-.97 5.36-1.7 7.55c-.25.98-.25 1.71-.49 2.69 0 .73-.24 1.46-.24 2.43 0 2.69.73 4.64 2.19 5.85C62.3 63.51 64.01 64 66.2 64c2.2 0 4.14-.49 5.85-1.22h.24L74 55.23c-.24.24-1.46.73-2.44.73z"/></svg>