<svg viewBox="0 0 90 90" xmlns="http://www.w3.org/2000/svg"><defs><radialGradient cx="68.477%" cy="93.244%" fx="68.477%" fy="93.244%" r="107.667%" gradientTransform="matrix(-.46439 -.81583 .65513 -.5783 .392 2.03)" id="a"><stop stop-color="#09FFD0" offset=".01%"/><stop stop-color="#009EFF" offset="100%"/></radialGradient></defs><g fill="none"><path fill="#FFF" d="M0 0h90v90H0z"/><path d="M63.67 11.248C60.74 5.078 54.766.806 48.03.301c-3.3-.306-6.704.251-9.679 1.748a17.956 17.956 0 0 0-5.27 3.997C30 2.558 25.645.273 20.945.038 11.065-.556 2.547 5.832.472 15.744c-1.261 5.938.114 12.138 2.844 17.36 2.725 5.152 6.702 9.732 11.876 12.423 3.611 1.755 6.996-2.695 4.355-5.807a26.078 26.078 0 0 1-2.325-3.01 29.879 29.879 0 0 1-1.783-3.1c-1.487-3.044-2.597-6.47-2.817-9.845-.13-2.145.151-3.993 1.044-5.86.844-1.74 2.213-3.237 4.009-3.94 2.794-1.058 5.71-.49 7.833 1.795 1.38 1.419 2.011 3.404 2.716 5.236.053.133.11.26.17.386 1.402 4.32 7.832 4.43 9.034-.484.036-.167.073-.336.112-.507l.02-.08.019-.085a10.095 10.095 0 0 1 2.606-4.848c1.442-1.464 3.279-2.348 5.29-2.151 1.126.064 2.396.37 3.312.865 5.135 2.78 4.6 10.087 2.398 14.9-1.547 3.372-4.023 6.193-6.769 8.631-.68.6-1.455 1.263-2.158 1.823-3.22 2.497-4.043 7.224-1.499 10.612 2.73 3.723 8.167 3.904 11.29.591a54.958 54.958 0 0 0 1.79-1.866c5.893-6.57 11.247-16.323 12.08-25.31.343-4.202-.405-8.4-2.252-12.225h.003Z" transform="translate(12 19)" fill="url(#a)"/></g></svg>