<svg viewBox="0 0 90 90" xmlns="http://www.w3.org/2000/svg"><g fill="none"><path fill="#002C50" d="M0 0h90v90H0z"/><path d="M47.569 40.149a2.017 2.017 0 0 0-1.316 1.027 1.791 1.791 0 0 0 .042 1.806c.294.487.994.879 2.618 1.447 1.176.412 1.61.926 1.4 1.656-.182.683-1.064 1.095-1.967.893-.637-.136-.98-.433-1.512-1.299-.098-.155-.175-.169-.574-.067-.245.074-.448.162-.448.203 0 .04.161.338.35.642.624 1.095 1.924 1.658 3.185 1.38 1.421-.23 2.072-.92 2.072-2.218 0-1.163-.476-1.569-2.8-2.407-1.106-.4-1.512-.744-1.512-1.285 0-.744.889-1.23 1.82-.987.539.135.91.426 1.134.879.182.378.28.405.84.27l.287-.06-.21-.467c-.378-.903-1.281-1.497-2.289-1.508a3.12 3.12 0 0 0-1.12.095Zm19.81 3.394c0 2.366.042 3.617.119 3.786.196.406.658.541 1.638.494.259-.007.294-.054.294-.372 0-.325-.035-.365-.28-.365a1.441 1.441 0 0 1-.49-.108c-.189-.102-.203-.257-.203-3.543V40h-1.078v3.543ZM10 43.963v3.853h.973l.021-3.198.028-3.212.798 2.556 1.008 3.205.203.656.399-.034.399-.027 1.988-6.356v3.198l.007 3.212h1.078v-7.721l-.812.027-.819.034-.896 2.853c-.49 1.562-.91 2.867-.952 2.887a50.798 50.798 0 0 1-.952-2.853l-.91-2.887-.784-.034-.777-.027v3.867Zm42.819-2.766v.885h-.861v.832h.861v2.225c0 2.082.014 2.23.21 2.413.252.217.924.352 1.4.284.301-.047.336-.088.336-.399 0-.31-.035-.351-.28-.351a1.4 1.4 0 0 1-.49-.108c-.196-.102-.21-.237-.21-2.083v-1.98h.98v-.833h-.98v-1.771h-.966v.886Zm-33.222.92a2.694 2.694 0 0 0-1.456 1.534c-.226.8-.243 1.64-.049 2.448.385 1.15 1.218 1.737 2.436 1.73 1.561-.013 2.436-1.054 2.45-2.94a2.95 2.95 0 0 0-.238-1.42c-.498-1.201-1.892-1.803-3.15-1.36l.007.007Zm1.505.851c.686.338 1.05 1.805.728 2.874-.441 1.453-1.904 1.65-2.597.358-.322-.608-.315-1.893.007-2.556.392-.757 1.148-1.04 1.862-.676Zm5.292-.892a1.755 1.755 0 0 0-1.12.642l-.28.325v-.96h-.973v5.733h.973v-1.528c0-.838.056-1.724.119-1.981a1.81 1.81 0 0 1 1.316-1.305l.504-.115v-.453c0-.25-.028-.453-.07-.453l-.469.095Zm2.457.067c-.63.19-1.288.88-1.498 1.576a5.343 5.343 0 0 0-.14 1.365c.014 1.123.378 1.887 1.169 2.394.448.297.609.338 1.19.338.546 0 .763-.054 1.071-.264l.392-.25v.629c0 .568-.035.663-.336.933a1.89 1.89 0 0 1-.7.365 4.82 4.82 0 0 1-1.897-.277c-.175-.095-.196-.047-.196.365 0 .453.007.467.406.568a7.026 7.026 0 0 0 2.471 0 2.11 2.11 0 0 0 .616-.385c.581-.528.602-.663.602-4.192v-3.219h-.364c-.301 0-.378.04-.434.27l-.07.285-.252-.23c-.462-.426-1.176-.52-2.03-.264v-.007Zm1.456.785c.174.097.338.21.49.338.224.196.238.284.238 1.609v1.4l-.357.338c-.714.69-1.715.54-2.17-.311a4.057 4.057 0 0 1-.021-2.698c.35-.676 1.197-.987 1.82-.676Zm4.55-.852a3.573 3.573 0 0 0-.651.25c-.35.176-.91.737-.91.913 0 .054.175.175.392.27l.385.19.217-.291c.679-.906 2.233-.744 2.275.236l.021.359-.644.08c-1.855.23-2.863.96-2.863 2.097 0 1.25 1.085 1.96 2.485 1.636.301-.074.644-.21.77-.318.245-.176.252-.176.56.068.189.155.441.25.672.25.35 0 .371-.02.371-.358 0-.217-.07-.372-.161-.413-.14-.047-.161-.345-.161-1.825 0-2.123-.098-2.482-.798-2.874a3.177 3.177 0 0 0-1.96-.27Zm1.785 3.434c0 .636-.035.744-.294 1.001-.91.886-2.184.69-2.184-.338 0-.798.483-1.082 2.401-1.372.042 0 .07.317.07.71h.007Zm4.389-3.38a2.19 2.19 0 0 0-.679.378l-.259.23v-.324c0-.332-.014-.332-.539-.332h-.539v5.734h1.078v-4.26l.49-.338c.28-.175.686-.338.91-.372.35-.054.469-.013.693.203l.28.27v4.497h.973v-2.38c0-2.157-.021-2.393-.217-2.698-.392-.608-1.4-.892-2.191-.608Zm16.233-.054a2.52 2.52 0 0 0-1.344.912l-.182.312.385.182.392.176.301-.311c.286-.343.72-.54 1.176-.534.658 0 1.141.426 1.05.946-.028.223-.112.25-.882.365-1.939.291-2.94 1.305-2.541 2.57.259.852 1.134 1.318 2.142 1.17.44-.033.854-.21 1.176-.501.196-.176.238-.183.238-.04 0 .243.42.493.833.493.336 0 .35-.027.35-.358 0-.19-.07-.406-.154-.474-.133-.108-.161-.46-.161-1.98 0-1.745-.014-1.867-.238-2.191a2.137 2.137 0 0 0-.651-.541 3.455 3.455 0 0 0-1.897-.203l.007.007Zm1.806 3.468c0 .866-.133 1.062-.889 1.38-.63.25-.987.202-1.309-.17-.735-.831.028-1.676 1.708-1.893l.413-.067c.042 0 .07.338.07.75h.007Zm4.48-3.448c-.175.068-.49.23-.672.372l-.357.25v-.311c0-.311-.014-.325-.49-.325h-.483v5.734h.973v-4.124l.301-.27c.665-.61 1.47-.778 1.855-.406.21.202.21.351.21 2.501v2.299h1.092l-.028-2.387c-.035-2.23-.042-2.42-.259-2.677a2.608 2.608 0 0 0-.49-.48c-.322-.244-1.218-.325-1.659-.176h.007Zm8.029.007c-.945.263-1.575 1.17-1.694 2.447a3.803 3.803 0 0 0 .595 2.434c.595.717 1.701 1.028 2.856.798a2.311 2.311 0 0 0 1.316-1.014c.14-.27.14-.277-.238-.453l-.378-.176-.399.413c-.826.865-2.044.615-2.541-.528-.086-.21-.14-.43-.161-.656v-.263h3.913l-.056-.812c-.042-.912-.322-1.541-.798-1.88a3.102 3.102 0 0 0-2.408-.31h-.007Zm1.68.94c.34.287.552.688.595 1.122 0 .203-.07.21-1.47.21h-1.47l.077-.339c.196-.858.63-1.217 1.47-1.223.35 0 .581.067.798.23Zm2.1-.88c0 .055.448 1.299.98 2.766.361.938.683 1.89.966 2.853-.05.23-.135.45-.252.656-.287.561-.819.866-1.33.791-.35-.047-.364-.04-.364.365V50h.609c.32.002.637-.051.938-.156.399-.175.945-.926 1.19-1.616.56-1.582 1.904-5.726 1.904-5.922 0-.21-.042-.23-.455-.203l-.441.034-.574 1.866-.63 2.028c-.056.108-.294-.426-.665-1.447-1.001-2.772-.847-2.502-1.4-2.502-.259 0-.476.041-.476.082Z" fill="#FFF"/></g></svg>