<svg xmlns="http://www.w3.org/2000/svg" viewBox="0 0 90 90"><path fill="#FFF" d="M0 0h90v90H0z"/><g fill="#0F172F"><path d="M75 45.112c0-4.643-3.69-8.705-9.903-11.606.583-6.577-1.165-11.994-5.243-14.315-4.077-2.321-9.32-1.16-14.757 2.708-.194-.193-.388-.193-.582-.387-5.437-3.675-10.68-4.449-14.564-2.321-4.077 2.321-5.63 7.738-5.048 14.315C18.689 36.407 15 40.469 15 45.112c0 4.642 3.69 8.705 9.903 11.606v.58c-.388 6.578 1.36 11.414 5.243 13.541 1.359.774 3.106 1.161 4.66 1.161 3.107 0 6.796-1.354 10.291-3.869C48.787 70.646 52.282 72 55.388 72c1.554 0 3.301-.387 4.66-1.16 3.884-2.128 5.632-6.964 5.243-13.541v-.58C71.311 54.01 75 49.753 75 45.111ZM55.388 21.319c.971 0 2.136.193 3.107.774 2.524 1.354 3.884 5.222 3.69 10.058-2.719-.967-5.437-1.547-8.35-1.934-1.942-2.321-3.884-4.449-6.02-6.19 2.719-1.741 5.437-2.708 7.573-2.708Zm-26.99 14.314c1.748-.58 3.495-1.16 5.243-1.547a19.158 19.158 0 0 0-2.136 3.288c-.583 1.161-1.36 2.322-1.748 3.482-.582-1.74-1.165-3.482-1.359-5.223Zm23.495 21.472c-2.33.194-4.66.387-6.796.387s-4.66-.193-6.796-.387c-1.553-.193-3.107-.387-4.66-.774-1.748-.386-3.495-.967-5.243-1.547.194-1.935.777-3.675 1.165-5.223.583-1.547.971-2.902 1.748-4.45.97-2.127 1.941-4.255 3.106-6.19 1.166-1.934 2.33-3.868 3.884-5.802.97-1.354 1.942-2.515 2.913-3.676 1.165-1.354 2.524-2.514 3.883-3.675 1.36 1.16 2.719 2.321 3.884 3.675.97 1.16 1.941 2.322 2.912 3.676 1.36 1.74 2.719 3.675 3.884 5.803 1.165 1.934 2.136 4.062 3.106 6.19.583 1.547 1.166 2.902 1.554 4.449a25.25 25.25 0 0 1 1.165 5.223c-1.748.58-3.495 1.16-5.243 1.547-1.359.194-2.912.58-4.466.774Zm-6.796 3.676c1.36 0 2.719 0 3.884-.194-1.165 1.354-2.525 2.515-3.884 3.675-1.36-1.16-2.718-2.32-3.883-3.675 1.165 0 2.524.194 3.883.194Zm15.34-19.925-1.748-3.482a19.158 19.158 0 0 0-2.136-3.288c1.748.387 3.496.967 5.243 1.547-.388 1.741-.777 3.482-1.36 5.223ZM31.699 22.093c.97-.58 1.942-.774 3.107-.774 2.136 0 4.854.967 7.573 2.708-2.136 1.934-4.078 3.869-6.02 6.19-2.912.387-5.63.967-8.35 1.934-.193-5.029 1.166-8.704 3.69-10.058ZM18.301 45.112c0-3.095 2.718-5.997 6.99-8.125a63.852 63.852 0 0 0 2.33 8.125c-.97 2.708-1.941 5.416-2.33 8.124-4.466-2.127-6.99-5.222-6.99-8.124Zm16.31 23.793c-.97 0-2.135-.193-3.106-.774-2.524-1.547-3.884-5.223-3.69-10.059 2.719.968 5.437 1.548 8.35 2.128 1.748 2.321 3.69 4.256 6.02 6.19-2.719 1.741-5.243 2.515-7.573 2.515Zm23.884-.774c-2.524 1.354-6.408.774-10.68-1.934 2.136-1.935 4.078-3.869 6.02-6.19 2.913-.387 5.631-1.16 8.35-2.128 0 5.223-1.166 8.898-3.69 10.252ZM64.71 53.43c-.583-2.708-1.36-5.61-2.33-8.125.97-2.708 1.941-5.416 2.33-8.124 4.272 2.128 6.99 5.03 6.99 8.124 0 2.709-2.524 5.804-6.99 8.125Z"/><path d="M45.097 35.246c-3.883 5.03-6.602 10.833-8.155 16.83l8.155-4.45 8.155 4.45c-.776-3.095-1.941-6.19-3.3-9.092-1.554-2.515-3.107-5.223-4.855-7.738Z"/></g></svg>