<svg viewBox="0 0 90 90" xmlns="http://www.w3.org/2000/svg"><g fill="none"><path fill="#000" d="M0 0h90v90H0z"/><path d="M76.68 56.263H82V65H65.241V42.372c0-6.954-2.3-9.62-6.821-9.62-5.496 0-7.716 3.919-7.716 9.54v13.971h5.32V65H39.28V42.372c0-6.954-2.301-9.62-6.821-9.62-5.496 0-7.717 3.919-7.717 9.54v13.971h7.62V65H8v-8.737h5.32V33.54H8v-8.737h16.743v6.055C27.14 26.587 31.31 24 36.885 24c5.767 0 11.071 2.762 13.036 8.64C52.14 27.293 56.662 24 62.957 24c7.172 0 13.74 4.368 13.74 13.891v18.372h-.017Z" fill="#FFF"/></g></svg>