<svg xmlns="http://www.w3.org/2000/svg" viewBox="0 0 90 90"><path fill="#009FC7" d="M0 0h90v90H0z"/><path d="M18 45.813C18 27.728 30.962 15 48.961 15c14.475 0 23.535 9.233 23.535 17.217 0 6.117-3.149 10.472-8.927 10.472-5.42 0-8.565-3.74-8.565-8.228 0-3.61 2.774-6.611 5.164-7.604-1.764-2.624-5.286-4.616-10.824-4.616-8.565 0-15.488 7.853-15.488 22.199 0 13.352 5.663 21.45 16.62 21.45 6.917 0 12.204-3.981 14.848-11.594H73C70.237 67.022 61.165 75 47.447 75 28.824 75 18 62.777 18 45.813" fill="#FFF"/></svg>