<svg viewBox="0 0 90 90" xmlns="http://www.w3.org/2000/svg"><g fill="none" fill-rule="evenodd"><path d="M64.938 45.489c-.571-.673-1.463-1.175-2.828-1.32a7.89 7.89 0 0 0-.835-.041h-3.358l5.645-5.606-3.485-.005-4.602 4.462a5.414 5.414 0 0 0-1.603 3.842v1.653c0 1.01.21 2.12.922 2.964.573.673 1.465 1.174 2.829 1.318h3.88c1.59 0 2.777-.49 3.506-1.418.56-.711.852-1.682.852-2.886 0-1.011-.21-2.12-.923-2.963Zm-1.895 3.203c0 .905-.506 1.382-1.466 1.382l-3.66.012a1.214 1.214 0 0 1-1.227-1.198v-1.02c0-.905.506-1.383 1.466-1.383l3.66-.012a1.215 1.215 0 0 1 1.227 1.199v1.02Z" fill="#F74E00"/><path d="M52.284 44.272c-.124.508-.335 1-.67 1.428.346.44.56.951.682 1.48.104.44.143.895.143 1.329 0 2.723-1.515 4.223-4.265 4.223H41.73l1.572-3.003h4.95c.91 0 1.37-.439 1.37-1.302 0-.472-.116-1.072-1.01-1.248H44.56l1.541-2.997 2.686-.006c.734-.218.834-.768.834-1.206 0-.863-.46-1.446-1.37-1.446h-4.384l-1.708-2.963 6.014.105c2.75 0 4.265 1.5 4.265 4.223 0 .452-.042.925-.155 1.383Z" fill="#F74E00" fill-rule="nonzero"/><path d="M78.914 42.531c.004.082.006.162.006.245v5.51h-.002c.002.052.002.103.002.152 0 1.498-.454 2.628-1.316 3.341-.719.603-1.721.915-2.98.915h-3.036l-.116-.001c-.066 0-.13-.003-.192-.005l-.04-.003h-.025l-.061-.004-.03-.002a8.284 8.284 0 0 1-.176-.014l-.007-.001a4.65 4.65 0 0 1-1.688-.46 3.37 3.37 0 0 1-.286-.163l-.023-.015a3.377 3.377 0 0 1-.072-.048l-.033-.023-.038-.027-.04-.029-.017-.012-.034-.026a3.185 3.185 0 0 1-.101-.082c-.863-.713-1.317-1.843-1.317-3.341l.003-.198v-5.63l.003-.078a5.69 5.69 0 0 1 .118-1.006c.191-.908.608-1.62 1.234-2.124.713-.58 1.703-.88 2.938-.88h3.037c1.236 0 2.223.3 2.939.881.84.676 1.304 1.733 1.35 3.13Zm-2.837 5.686h.005v-5.358a1.91 1.91 0 0 0-.01-.204c-.068-.734-.529-1.109-1.37-1.109H71.51c-.84 0-1.3.375-1.37 1.109-.006.066-.01.132-.01.204v5.358h.005a2.388 2.388 0 0 0-.005.14c0 .531.174.902.517 1.11a.865.865 0 0 0 .162.082 1.685 1.685 0 0 0 .094.035l.02.006a1.211 1.211 0 0 0 .183.043c.048.01.098.017.15.022l.03.003a2.038 2.038 0 0 0 .2.01H74.7c.918 0 1.38-.442 1.38-1.311a1.94 1.94 0 0 0-.004-.14Z" fill="#F74E00"/><path d="M11.354 44.406v5.365c0 1.65 1.366 2.986 3.05 2.986h8.775c2.85 0 4.42-1.529 4.42-4.305 0-1.972-.806-4.324-4.649-4.324h-3.03c-1.453 0-1.62-.742-1.62-1.301 0-.863.467-1.302 1.39-1.302h9.354v11.231h3.095v-3.25h3.032c4.224 0 6.436-2.461 6.436-5.492 0-3.032-2.212-5.492-6.414-5.492H19.768c-.977 0-1.8.183-2.457.54-1.22.66-1.869 1.913-1.869 3.683 0 1.343.38 2.864 1.87 3.671.657.356 1.531.574 2.685.574h3.009c1.556 0 1.737.787 1.737 1.381 0 .905-.514 1.383-1.487 1.383l-8.807.013V38.49h-3.08l-.015.027-4.121 7.09-4.137-7.117H0v14.234h3.096V44.38l4.137 7.116 4.121-7.09Zm23.97 2.464H32.14v-5.345h3.207c1.814 0 3.01 1.09 3.01 2.672 0 1.581-1.196 2.673-3.031 2.673Z" fill="#12429D"/><path d="M70.669 36.004a4.816 4.816 0 0 1 1.09-2.546 4.943 4.943 0 0 1 3.812-1.783c2.534 0 4.622 1.89 4.901 4.325 3.789.11 6.826 3.185 6.826 6.96 0 3.614-2.781 6.585-6.34 6.931-.186.988-.566 1.912-1.191 2.696.164.008.329.012.495.012C85.64 52.6 90 48.284 90 42.961c0-4.526-3.15-8.322-7.4-9.359A7.637 7.637 0 0 0 75.57 29a7.646 7.646 0 0 0-6.469 3.542 5.706 5.706 0 0 0-4.731 1.86l1.916 1.897a2.996 2.996 0 0 1 2.33-1.102 3.006 3.006 0 0 1 2.053.807Z" fill="#F74E00" fill-rule="nonzero"/></g></svg>