<svg viewBox="0 0 90 90" xmlns="http://www.w3.org/2000/svg"><g fill="none" fill-rule="evenodd"><path d="M50.849 88.57a10.72 10.72 0 0 1-10.698 0L10.35 71.406A10.667 10.667 0 0 1 5 62.164V27.836c0-3.813 2.039-7.336 5.349-9.242L40.15 1.43a10.72 10.72 0 0 1 10.698 0L80.65 18.594A10.667 10.667 0 0 1 86 27.836v34.328c0 3.813-2.039 7.336-5.349 9.242L50.85 88.57Z" fill="#F74E00" fill-rule="nonzero"/><path d="M30.98 23.805c0-1.073.872-1.944 1.948-1.944H47.58c5.5 0 9.96 4.45 9.96 9.937 0 5.488-4.46 9.936-9.96 9.936H32.928a1.946 1.946 0 0 1-1.949-1.943V23.805Zm6.64 4.68h9.012a3.316 3.316 0 0 1 3.32 3.313 3.316 3.316 0 0 1-3.32 3.312H37.62v-6.624Zm-6.64 21.218a2.293 2.293 0 0 1 2.295-2.29h19.049c5.501 0 9.96 4.448 9.96 9.936 0 5.488-4.459 9.936-9.96 9.936H33.275a2.293 2.293 0 0 1-2.296-2.29V49.703Zm6.64 4.334h14.704a3.316 3.316 0 0 1 3.32 3.312 3.316 3.316 0 0 1-3.32 3.312H37.62v-6.624Z" fill="#FFF"/></g></svg>