<svg viewBox="0 0 90 90" xmlns="http://www.w3.org/2000/svg"><g fill="none"><path fill="#7947BF" d="M0 0h90v90H0z"/><path d="m77.708 23.24-7.193 7.022a9.7 9.7 0 0 1 .372 2.596 9.483 9.483 0 0 1-1.024 4.308 9.712 9.712 0 0 1-2.88 3.41 9.983 9.983 0 0 1-4.133 1.797 10.09 10.09 0 0 1-4.519-.194l-1.526 1.492-5.653 5.53a19.742 19.742 0 0 0 12.294 2.49 19.555 19.555 0 0 0 11.275-5.4 18.799 18.799 0 0 0 5.527-11.025 18.615 18.615 0 0 0-2.54-12.026Zm-26.616 9.618a9.477 9.477 0 0 1 1.023-4.306 9.702 9.702 0 0 1 2.88-3.408 9.978 9.978 0 0 1 4.13-1.795c1.5-.278 3.046-.21 4.515.195l7.18-7.028a19.775 19.775 0 0 0-17.178-1.212 19.385 19.385 0 0 0-7.206 5.015 18.83 18.83 0 0 0-4.178 7.624 18.703 18.703 0 0 0 .04 9.961 18.59 18.59 0 0 0 1.986 4.565l5.653-5.529 1.52-1.493a9.64 9.64 0 0 1-.365-2.59Z" fill="#FDFDFD"/><path d="M60.986 51.822a19.785 19.785 0 0 1-5.16-.66 9.828 9.828 0 0 1-3.573 3.488 9.961 9.961 0 0 1-4.977 1.32c-.9-.01-1.796-.14-2.661-.382l-1.527 1.486-5.652 5.529a19.683 19.683 0 0 0 8.443 2.577c2.98.211 5.97-.255 8.736-1.36a19.377 19.377 0 0 0 7.206-5.018 18.82 18.82 0 0 0 4.176-7.627c-1.635.427-3.32.645-5.011.647ZM37.38 46.24a9.534 9.534 0 0 1 1.322-4.817 9.807 9.807 0 0 1 3.596-3.538 18.707 18.707 0 0 1-.04-9.962 19.553 19.553 0 0 0-6.823 3.297 19.079 19.079 0 0 0-4.998 5.611 18.668 18.668 0 0 0-2.404 7.06 18.55 18.55 0 0 0 .561 7.423 18.471 18.471 0 0 0 1.98 4.57l5.652-5.528 1.526-1.473a9.438 9.438 0 0 1-.371-2.642Z" opacity=".75" fill="#F7F7F7"/><path d="M42.116 64.545a9.777 9.777 0 0 1-4.819 4.102 10.046 10.046 0 0 1-6.378.343l-7.18 7.022a19.769 19.769 0 0 0 17.175 1.212 19.375 19.375 0 0 0 7.204-5.015 18.82 18.82 0 0 0 4.176-7.625 19.935 19.935 0 0 1-10.178-.04Zm-18.438-4.869a9.5 9.5 0 0 1 1.318-4.825 9.777 9.777 0 0 1 3.605-3.537 18.504 18.504 0 0 1-.04-9.955 19.525 19.525 0 0 0-7.8 4.083c-2.243 1.93-4 4.342-5.132 7.047a18.585 18.585 0 0 0 1.234 16.805l7.18-7.022a9.466 9.466 0 0 1-.365-2.596Z" opacity=".5" fill="#BCBCBC"/></g></svg>