<svg viewBox="0 0 90 90" xmlns="http://www.w3.org/2000/svg"><g fill="none"><path fill="#66D3EE" d="M0 0h90v90H0z"/><path d="m42.805 15 .203.007c.842.05 1.64.41 2.24 1.014L74 44.992 45.237 73.974a3.442 3.442 0 0 1-3.774.758 3.49 3.49 0 0 1-2.136-3.226l-.001-9.035-11.392 11.487a3.446 3.446 0 0 1-3.592.853l-.197-.074A3.493 3.493 0 0 1 22 71.494v-53c0-1.41.841-2.683 2.133-3.225a3.445 3.445 0 0 1 3.773.744l11.425 11.515-.001 34.935L56.661 45l-17.31-17.472v-9.035c0-1.929 1.551-3.492 3.465-3.492L42.805 15Z" fill="#000"/></g></svg>