<svg viewBox="0 0 90 90" xmlns="http://www.w3.org/2000/svg"><g fill="none"><path fill="#1D439B" d="M0 0h90v90H0z"/><path d="M55.5 29.025c-14.262.913-19.815 8.319-16.483 21.97.839 3.383 3.528 10.245 3.923 9.999l5.577-3.63c-1.777-2.962-2.887-6.418-3.282-9.356l-.05-.37h9.476v9.579h7.823l-.05-6.592-.074-10.566v-3.974h-7.674l-.074 3.036-.074 3.037-4.392-.05c-4.837-.049-4.615 0-4.516-.69.395-2.445 1.974-4.691 4.022-5.679 1.653-.814 1.357-.79 7.995-.814a116.99 116.99 0 0 0 5.898-.099c0-.272-1.752-5.678-1.851-5.678-.173-.099-5.404-.173-6.194-.123m13.079 14.07v14.122l16.04-.05.69-2.913.691-2.913-4.195-.05-5.157-.073-.963-.025V29.197l-1.011-.074-3.554-.098L68.58 29v14.096M6 57.216h7.107v-8.738c0-4.814.024-8.74.074-8.74.05 0 5.577 6.79 6.44 7.9.173.222.247.099 3.504-3.752l3.356-3.95.025 8.64.025 8.64h7.008V29.174h-7.181l-3.38 4.246a110.586 110.586 0 0 1-3.43 4.197l-3.135-4.197-3.084-4.197-3.652-.025L6 29.173" fill="#FBFBFB"/></g></svg>