<svg viewBox="0 0 90 90" xmlns="http://www.w3.org/2000/svg"><g fill="none"><path d="M83.994 22.291a9.361 9.361 0 0 0-3.347-3.339l-30.794-17.7a9.391 9.391 0 0 0-9.372 0l-30.795 17.7A9.347 9.347 0 0 0 5 26.967v35.732a9.347 9.347 0 0 0 4.686 8.015l30.795 18.033a9.391 9.391 0 0 0 9.372 0l30.794-18.033A9.348 9.348 0 0 0 85 62.699V26.967c0-1.67 0-3.34-1.005-4.676Z" fill="#4078FF"/><path d="m65.321 59.437-16.79 9.306a1.015 1.015 0 0 1-1.048.186.998.998 0 0 1-.63-.85V47.056c0-.36.193-.69.505-.867l18.299-10.35a1.02 1.02 0 0 1 .822.036 1 1 0 0 1 .521.63v19.609c0 1.33-.672 2.326-1.679 3.323ZM26.369 32.848a.994.994 0 0 1-.45-.83c0-.335.169-.647.45-.832l16.79-9.638a3.387 3.387 0 0 1 3.694 0l16.79 9.97a.99.99 0 0 1 0 1.33L45.508 43.484a1.016 1.016 0 0 1-1.007 0L26.369 32.848Zm16.268 35.86c-.256.127-.555.14-.821.035l-16.79-9.638a3.32 3.32 0 0 1-2.015-3.324V36.504a1 1 0 0 1 .522-.63c.256-.126.555-.14.822-.035l17.97 10.349a.995.995 0 0 1 .498.862v21.03c.047.335-.015.545-.186.63Z" fill="#FFF"/></g></svg>