<svg xmlns="http://www.w3.org/2000/svg" viewBox="0 0 90 90"><path fill="#fff" d="M0 0h90v90H0z"/><path fill="#00338E" d="M39.16 77.7h12.4c-2.8-2.63-3.82-5.2-3.82-11V51.24c0-2.64 1.4-3.96 4.1-3.96h16.14c6.01 0 8.65 1.03 11.44 3.67V39.06c-2.79 2.64-5.43 3.67-11.44 3.67H51.85c-2.79 0-4.11-1.32-4.11-3.96V23.22c0-5.72 1.1-8.36 3.81-11H39.16c2.79 2.64 3.81 5.2 3.81 11v15.55c0 2.64-1.39 3.96-4.1 3.96H22.73c-5.94 0-8.65-1.03-11.44-3.67v11.88c2.79-2.64 5.43-3.67 11.44-3.67h16.14c2.78 0 4.1 1.32 4.1 3.96v15.55c0 5.72-1.1 8.29-3.81 10.93Z"/><path fill="#39892F" d="M31.24 78c5.43-1.1 8.73-5.35 8.73-11.07V53.07c0-2.28-.66-2.94-3.01-2.94H22.59c-5.94 0-10.34 3.16-11.59 8.44h20.24V78Zm48.4-46.57H59.4V12c-5.43 1.1-8.73 5.35-8.73 11.07v13.79c0 2.27.66 2.93 3.01 2.93h14.37c6.02.08 10.42-3.15 11.59-8.36Zm-57.05 8.44h14.37c2.35 0 3-.66 3-2.94V23.07c0-5.72-3.3-9.97-8.72-11.07v19.43H11c1.17 5.21 5.57 8.44 11.59 8.44Zm28.08 26.98V53.07c0-2.28.66-2.94 3.01-2.94h14.37c6.02 0 10.42 3.16 11.59 8.44H59.4V78c-5.43-1.17-8.73-5.35-8.73-11.15Z"/></svg>