<svg viewBox="0 0 90 90" xmlns="http://www.w3.org/2000/svg"><g fill="none"><circle fill="#007896" cx="45" cy="45" r="45"/><g fill="#FFF"><path d="M49.584 56.33a6.24 6.24 0 0 1-4.498 1.928 6.24 6.24 0 0 1-4.498-1.927l-5.733-5.928a3.882 3.882 0 0 0-2.8-1.2 3.882 3.882 0 0 0-2.798 1.2c-2.484 2.585-2.484 6.728 0 9.312l11.35 11.717a6.24 6.24 0 0 0 4.497 1.928 6.24 6.24 0 0 0 4.498-1.928L60.922 59.7c2.484-2.584 2.484-6.727 0-9.312a3.882 3.882 0 0 0-2.799-1.2 3.882 3.882 0 0 0-2.798 1.2l-5.741 5.943ZM28.07 35.699a6.018 6.018 0 0 1 4.318-1.906 6.011 6.011 0 0 1 4.356 1.812l5.47 5.65a3.739 3.739 0 0 0 2.708 1.128 3.742 3.742 0 0 0 2.685-1.184c2.423-2.47 2.459-6.471.08-8.986L36.88 21.036a6.012 6.012 0 0 0-4.356-1.813 6.018 6.018 0 0 0-4.318 1.907L17.19 32.546c-2.423 2.47-2.46 6.472-.08 8.987a3.74 3.74 0 0 0 2.707 1.128 3.743 3.743 0 0 0 2.685-1.184l5.569-5.778Z"/><path d="M53.282 35.444a6.018 6.018 0 0 1 4.317-1.906c1.63-.018 3.2.636 4.356 1.813l5.47 5.657a3.739 3.739 0 0 0 2.708 1.128 3.742 3.742 0 0 0 2.685-1.184c2.423-2.47 2.459-6.471.08-8.986L62.083 20.78a6.012 6.012 0 0 0-4.356-1.812 6.018 6.018 0 0 0-4.317 1.906L42.393 32.292c-2.423 2.47-2.459 6.471-.08 8.986a3.74 3.74 0 0 0 2.708 1.128 3.743 3.743 0 0 0 2.685-1.184l5.576-5.778Z"/></g></g></svg>