<svg viewBox="0 0 90 90" xmlns="http://www.w3.org/2000/svg"><g fill="none"><path fill="#FFF" d="M0 0h90v90H0z"/><path d="M32.461 25.86c-2.9 0-5.236 2.357-5.236 5.282v25.67c0 2.925 2.336 5.28 5.236 5.28h5.525c5.822 0-1.06 5.001-2.974 6.297-6.404 4.336-17.95 4.24-20.212-1.821-2.199-5.892 2.982-13.397 5.672-15.27 1.895-1.32 1.926 1.33 3.434 2.336l-1.786-9.318-8.623 5.188c1.912.363 4.746-.96 3.728.974-4.077 7.742-6.763 13.038-4.254 18.162 4.603 9.398 20.044 6 24.256 4.583 10.504-3.536 10.216-9.006 21.537-11.13C61.615 61.556 64 59.736 64 56.811v-25.67c0-2.925-2.336-5.281-5.236-5.281-.12-3.724-1.823-7.265-7.745-8.203 4.42 2.684 4.013 8.34.997 8.309l-10.087-.106c-2.916-.03-5.576-8.177-.893-10.861-6.96 2.152-8.505 7.875-8.575 10.86Z" fill="#C2374C"/><path d="M44.12 49.197c.034.481.275.826.722 1.035.448.209.896.336 1.343.381.448.045.689.064.723.054V33.64c-.027-.48-.26-.826-.697-1.034a4.144 4.144 0 0 0-1.437-.382c-.52-.045-.917-.063-1.192-.054l-1.548 3.235a6803.105 6803.105 0 0 0-3.722 7.807l-4.451-9.649c-.375-.69-.808-1.103-1.298-1.238-.49-.136-.783-.187-.876-.155h-1.868v17.027c.034.481.275.826.723 1.035.447.209.895.336 1.343.381.447.045.688.064.722.054V38.852a15.6 15.6 0 0 0-.102-1.639c-.06-.494-.094-.756-.102-.786l4.22 9.107c.498.704 1.032 1.133 1.603 1.286.57.153.881.215.93.184l5.168-10.655c-.008.034-.042.309-.102.826-.06.517-.094 1.076-.102 1.677v10.345Zm9.807-.413a12.24 12.24 0 0 0-2.488 2.222c-.682.813-1.038 1.793-1.068 2.938.032 1.04.281 1.76.748 2.16.467.401.96.593 1.478.575.192-.003.37-.03.534-.081.163-.051.31-.11.438-.177a5.585 5.585 0 0 1-.406-1.09 4.87 4.87 0 0 1-.157-1.207c.018-.857.302-1.6.85-2.228.55-.628 1.255-1.261 2.118-1.9l.997-.773c.8-.599 1.593-1.491 2.38-2.677.786-1.186 1.298-2.632 1.534-4.34.088-.84.175-1.683.26-2.529.084-.846.177-1.688.278-2.528-.281-.045-.775.052-1.48.29-.707.239-1.169.89-1.386 1.954l-.434 3.328c-.145 1.025-.419 1.883-.823 2.576-.404.692-.788 1.214-1.152 1.566-.364.351-.559.527-.584.528-.08.002-.45-.383-1.113-1.154-.661-.772-1.135-1.944-1.42-3.516-.081-.735-.173-1.509-.274-2.321-.102-.813-.257-1.51-.467-2.09-.31-.556-.797-.895-1.462-1.016-.664-.12-1.03-.17-1.096-.145.1.84.193 1.682.278 2.528.084.846.17 1.689.259 2.528.203 1.611.666 3.001 1.388 4.17.721 1.17 1.478 1.972 2.27 2.41Z" fill="#FFF"/></g></svg>