<svg viewBox="0 0 90 90" xmlns="http://www.w3.org/2000/svg"><g fill="none"><path fill="#000" d="M0 0h90v90H0z"/><g fill="#546E7A"><path d="M16.975 31.291c0-.457-.025-.847-.074-1.168-.039-.331-.136-.599-.293-.803-.155-.205-.38-.35-.672-.438-.283-.098-.663-.147-1.141-.147-.322 0-.717.02-1.186.06a16.31 16.31 0 0 0-1.463.16L12 27.743c1.434-.37 2.663-.642 3.686-.817 1.035-.175 1.888-.263 2.56-.263.645 0 1.138.088 1.479.263.351.166.605.419.76.76.167.33.264.739.294 1.225.03.488.044 1.043.044 1.665a201.616 201.616 0 0 1-.074 3.373 382 382 0 0 1-.089 3.476c-.029 1.313-.068 2.71-.117 4.19-.039 1.47-.087 2.983-.146 4.54a318.417 318.417 0 0 1-.204 4.542c-.069 1.47-.147 2.862-.235 4.176a89.679 89.679 0 0 1-.263 3.446 36.01 36.01 0 0 1 2.649-.292 28.283 28.283 0 0 1 2.31-.102c1.006 0 1.942.029 2.81.087.878.05 1.742.073 2.59.073.595 0 1.122-.087 1.58-.262a2.667 2.667 0 0 0 1.2-.92c.331-.439.604-1.033.819-1.781.224-.75.395-1.704.512-2.863l1.272.103c-.009 1.713-.116 3.124-.32 4.234-.196 1.1-.479 1.97-.85 2.613-.37.633-.823 1.07-1.36 1.314-.527.253-1.131.379-1.814.379-.517 0-1.088-.049-1.711-.146-.624-.098-1.307-.21-2.05-.335a53.14 53.14 0 0 0-2.384-.322 24.712 24.712 0 0 0-2.78-.146c-.888 0-1.854.058-2.897.175a24.396 24.396 0 0 0-3.19.555l-.263-.028c.166-1.334.307-2.765.424-4.293.128-1.538.23-3.134.309-4.79a283.937 283.937 0 0 0 .35-10.28c.03-1.732.05-3.44.059-5.123.01-1.684.015-3.31.015-4.878Zm26.348 8.4a76.558 76.558 0 0 0-.424 3.344c-.117 1.11-.215 2.185-.293 3.227-.068 1.041-.122 2.03-.16 2.964-.03.925-.045 1.76-.045 2.512 0 1.012.015 1.883.044 2.613.03.72.078 1.329.147 1.825.068.497.15.896.248 1.198.107.29.233.52.38.686.157.155.333.257.527.305.205.05.434.073.688.073.468 0 .97-.067 1.507-.204a10.682 10.682 0 0 0 1.653-.598l.278.76a8.892 8.892 0 0 1-1.332.86 16.46 16.46 0 0 1-1.667.804 13.06 13.06 0 0 1-1.727.584c-.556.156-1.04.234-1.449.234a3.49 3.49 0 0 1-.745-.073 1.177 1.177 0 0 1-.614-.321c-.176-.176-.337-.434-.484-.774-.136-.341-.253-.804-.35-1.388a24.35 24.35 0 0 1-.206-2.19 58.7 58.7 0 0 1-.073-3.183c0-.73.005-1.552.015-2.467.02-.925.044-1.914.074-2.964.028-1.061.067-2.176.116-3.344.049-1.178.113-2.39.19-3.635.02-.274.094-.492.22-.658.127-.175.283-.307.469-.395.185-.097.38-.16.586-.19.213-.039.409-.058.584-.058.654 0 1.269.15 1.844.452l-.001.001Z"/><path d="M55.422 40.203c.488.02.956.034 1.405.044.458.01.882.019 1.272.029.4 0 .756.005 1.068.014h.82c.448 0 .872-.014 1.272-.043.4-.03.741-.059 1.025-.088.107.37.16.662.16.876 0 .428-.18.71-.54.847-.351.136-.863.204-1.537.204-.673 0-1.424-.034-2.253-.102-.83-.077-1.742-.15-2.737-.219a380.94 380.94 0 0 1-.146 3.783 173.541 173.541 0 0 1-.233 4.234c-.088 1.46-.2 2.945-.337 4.454a85.117 85.117 0 0 1-.513 4.395 57.053 57.053 0 0 1-.701 4.088 30.415 30.415 0 0 1-.952 3.549c-.575 1.664-1.223 3.051-1.945 4.16-.722 1.12-1.493 2.016-2.312 2.687-.809.683-1.648 1.165-2.516 1.446a8.245 8.245 0 0 1-2.619.439 8.176 8.176 0 0 1-2.077-.25 6.19 6.19 0 0 1-1.669-.67c-.468-.283-.834-.614-1.097-.993a1.957 1.957 0 0 1-.41-1.183c0-.234.054-.468.161-.701.108-.224.26-.423.455-.598a2.36 2.36 0 0 1 .672-.439c.254-.107.532-.16.834-.16.283.506.595.934.937 1.285.341.36.707.652 1.097.875.39.234.796.405 1.215.512.42.106.843.16 1.272.16 1.122 0 2.073-.365 2.854-1.095.79-.72 1.449-1.747 1.975-3.08.538-1.324.957-2.925 1.259-4.805.302-1.878.531-3.966.688-6.263.165-2.307.273-4.794.321-7.461.059-2.678.098-5.481.118-8.41a40.26 40.26 0 0 0-2.547.1c-.78.058-1.434.185-1.96.38a.677.677 0 0 1-.059-.277c0-.234.113-.448.337-.643.224-.204.536-.384.936-.54a8.01 8.01 0 0 1 1.463-.38 15.56 15.56 0 0 1 1.902-.19c.038-.915.087-1.786.145-2.614.059-.837.132-1.66.22-2.467.098-.818.215-1.635.351-2.452a40.35 40.35 0 0 1 .513-2.542c.263-1.139.604-2.16 1.023-3.066.42-.915.893-1.722 1.42-2.423a10.72 10.72 0 0 1 1.726-1.826c.625-.506 1.263-.92 1.917-1.24a8.253 8.253 0 0 1 1.99-.717 8.735 8.735 0 0 1 1.975-.234c.945 0 1.784.127 2.517.38.741.244 1.365.57 1.871.98.518.398.908.85 1.172 1.357.273.506.409 1.023.409 1.548 0 .409-.068.774-.205 1.095a2.266 2.266 0 0 1-1.331 1.314 2.658 2.658 0 0 1-.966.175c-.448 0-.921-.112-1.418-.335l-.06-.16c.185-.429.322-.804.41-1.125.098-.321.147-.652.147-.993 0-.467-.098-.866-.293-1.197a2.353 2.353 0 0 0-.746-.831 3.06 3.06 0 0 0-1.024-.468 4.357 4.357 0 0 0-1.112-.146c-1.092 0-2.019.244-2.78.731-.751.486-1.38 1.157-1.888 2.014-.497.847-.892 1.85-1.185 3.008a28.365 28.365 0 0 0-.673 3.723 66.864 66.864 0 0 0-.321 4.192c-.059 1.45-.113 2.9-.162 4.35v-.002Zm21.554 15.503c.058.03.132.074.22.132.097.049.185.107.263.175.078.059.146.127.205.206a.313.313 0 0 1 .088.204.191.191 0 0 1-.044.116 12.199 12.199 0 0 1-1.772 1.987 11.064 11.064 0 0 1-1.96 1.4 8.57 8.57 0 0 1-2.063.818 8.124 8.124 0 0 1-2.077.278c-1.17 0-2.244-.239-3.22-.716a7.714 7.714 0 0 1-2.517-1.955c-.701-.828-1.252-1.796-1.652-2.906a10.85 10.85 0 0 1-.585-3.592c0-1.042.112-2.084.337-3.126.234-1.04.566-2.034.995-2.978.44-.945.97-1.82 1.595-2.628a10.902 10.902 0 0 1 2.121-2.118 9.876 9.876 0 0 1 2.619-1.416 9.073 9.073 0 0 1 3.072-.512c.722 0 1.41.097 2.063.292a5.303 5.303 0 0 1 1.711.848c.498.36.893.808 1.186 1.343.293.535.439 1.143.439 1.825 0 .992-.327 1.858-.98 2.598-.644.74-1.536 1.368-2.677 1.884-1.14.517-2.487.936-4.038 1.256-1.54.312-3.209.546-5.004.702v.248c0 1.245.156 2.384.468 3.416.322 1.032.76 1.918 1.317 2.658a6.155 6.155 0 0 0 1.96 1.708 5.003 5.003 0 0 0 2.43.613c.877 0 1.775-.214 2.691-.642.928-.439 1.865-1.145 2.81-2.118h-.001Zm-2.75-11.725c0-.447-.078-.866-.235-1.256a2.888 2.888 0 0 0-.629-1.007 2.794 2.794 0 0 0-.95-.686 2.906 2.906 0 0 0-1.2-.249c-.634 0-1.21.112-1.727.336a4.72 4.72 0 0 0-1.39.92c-.41.38-.77.827-1.082 1.342a10.075 10.075 0 0 0-.806 1.622 13.78 13.78 0 0 0-.526 1.767 14.733 14.733 0 0 0-.293 1.767c1.385-.098 2.624-.263 3.717-.497 1.101-.243 2.028-.55 2.778-.92.761-.38 1.342-.827 1.742-1.342.4-.527.599-1.126.599-1.797h.002Z"/></g><path d="M39.7 28.852h5.5c.326-1.299 1.367-2.56 2.457-3.884 1.268-1.536 2.579-3.127 2.579-4.672 0-2.92-3.493-5.296-7.786-5.296-4.292 0-7.786 2.376-7.786 5.296 0 1.545 1.312 3.136 2.577 4.672 1.092 1.323 2.135 2.585 2.46 3.884Z" fill="#FFDC64"/><g fill="#546E7A"><path d="M40.288 24.515c.057.18.107.359.166.533l.3.954c.358 1.133.673 2.105.923 2.851h.231c-.205-.758-.484-1.746-.819-2.9l-.281-.956c-.05-.161-.095-.324-.143-.492.324-.055 1.032-.241 1.784-.87.753.627 1.461.815 1.785.87-.049.167-.093.33-.143.492l-.28.957a167.132 167.132 0 0 0-.82 2.898h.233c.249-.746.564-1.718.922-2.85l.3-.954c.058-.174.11-.354.166-.533.293-.016.575-.087.795-.243.225-.171.342-.395.29-.634-.024-.115-.135-.263-.35-.313a.696.696 0 0 0-.324-.006.637.637 0 0 0-.233.12c-.206.177-.282.356-.368.532a3.88 3.88 0 0 0-.102.265s-.331.02-1.039-.348c-.393-.205-.506-.353-.62-.452a1.71 1.71 0 0 0 .332-.362.69.69 0 0 0 .104-.259.416.416 0 0 0-.08-.3.66.66 0 0 0-.339-.226.854.854 0 0 0-.228-.03.86.86 0 0 0-.23.03.65.65 0 0 0-.337.228.393.393 0 0 0-.08.299c.014.095.055.18.104.259.09.14.209.256.333.361-.115.1-.229.246-.622.452-.707.368-1.038.348-1.038.348a3.662 3.662 0 0 0-.104-.265c-.086-.176-.16-.355-.367-.533a.658.658 0 0 0-.233-.12.682.682 0 0 0-.324.007c-.216.05-.326.198-.35.313-.053.239.065.463.29.634.22.156.5.226.794.243h.002Zm4.493-.465c.073-.16.166-.331.294-.435a.245.245 0 0 1 .077-.044s.038-.004.062.005c.045.01.085.044.101.11.032.13-.046.295-.19.399a.954.954 0 0 1-.418.15c.022-.062.046-.124.073-.185Zm-2.567-1.417a.315.315 0 0 1 .235-.116c.087 0 .17.043.235.117.076.094.05.22-.025.345a1.363 1.363 0 0 1-.21.253 1.436 1.436 0 0 1-.21-.253c-.073-.124-.101-.251-.025-.345v-.001Zm-2.632 1.054c.016-.067.057-.101.1-.11.025-.008.063-.004.063-.004a.245.245 0 0 1 .076.043c.129.103.222.276.296.434.027.06.05.123.073.185a.966.966 0 0 1-.417-.149c-.144-.103-.223-.27-.191-.398v-.001Zm.085 5.755h5.58v.554h-5.58v-.554Zm.389 1.108h4.803v.554h-4.803v-.554Z"/><path d="M45.247 29.998v-.556l-5.191 1.113v.557m.39.556h4.024v.557h-4.025v-.557Z"/><path d="M44.859 31.104v-.554l-4.414 1.107v.555"/><path d="M40.893 31.863c0 .666.696 1.205 1.556 1.205.86 0 1.557-.539 1.557-1.205h-3.114Z"/></g></g></svg>