<svg viewBox="0 0 90 90" xmlns="http://www.w3.org/2000/svg"><g fill="none" fill-rule="evenodd"><path fill="#000" d="M0 0h90v90H0z"/><path d="M18.304 49.092c1.27 0 2.241-.575 3.176-1.423.336-.287.503-.525.97-.525a.695.695 0 0 1 .686.644c0 .863-1.27 1.862-1.906 2.213-1.22.744-2.44.999-3.901.999C14.12 50.987 11 48.872 11 45.384 11 41.389 14.41 39 18.07 39c2.09 0 4.815.984 4.815 3.478 0 1.761-1.672 3.454-7.606 4.064.317 1.504 1.505 2.55 3.025 2.55Zm.92-6.875c0-.896-.469-1.54-1.405-1.54-1.973 0-2.86 2.625-2.742 4.284 1.542-.136 4.146-.761 4.146-2.744Zm5.566.848c0-.83.1-1.254-.702-1.66-.234-.101-.484-.253-.484-.644-.017-.845 2.875-1.76 3.61-1.76.802 0 .97 1.106 1.054 1.71A4.917 4.917 0 0 1 32.045 39c1.404 0 2.653.643 3.36 1.93.919-1.388 2.424-1.93 4.012-1.93 1.037 0 2.185.355 2.958 1.106.886.863 1.036 2.064 1.036 3.267v4.063c0 1.168 0 1.456.351 1.71.369.17.586.339.586.745 0 .744-.586.762-1.104.762h-3.493c-.518 0-1.103-.018-1.103-.762 0-.406.217-.576.585-.745.351-.254.351-.542.351-1.71v-3.501c0-1.134.016-2.776-1.521-2.776a1.95 1.95 0 0 0-1.623.804c-.419.576-.419 1.406-.419 2.1v3.386c0 1.168 0 1.455.351 1.71.369.17.586.338.586.745 0 .744-.586.761-1.104.761h-3.491c-.518 0-1.103-.017-1.103-.761 0-.407.216-.576.585-.745.351-.255.351-.542.351-1.71v-3.514c0-1.134.016-2.776-1.522-2.776a1.95 1.95 0 0 0-1.621.812c-.417.568-.417 1.398-.417 2.092v3.386c0 1.168 0 1.455.351 1.71.368.17.585.338.585.745 0 .744-.585.761-1.103.761h-3.512c-.518 0-1.103-.017-1.103-.761 0-.407.217-.576.585-.745.351-.255.351-.542.351-1.71v-4.385Zm21.498 0c0-.83.1-1.254-.703-1.66-.234-.101-.502-.253-.502-.644 0-.863 2.892-1.76 3.611-1.76.802 0 .97 1.106 1.054 1.71A4.914 4.914 0 0 1 53.525 39c1.404 0 2.653.643 3.36 1.93.919-1.388 2.424-1.93 4.01-1.93 1.037 0 2.186.355 2.966 1.106.887.863 1.036 2.064 1.036 3.267v4.063c0 1.168 0 1.456.352 1.71.368.17.585.339.585.745 0 .744-.585.762-1.104.762h-3.499c-.518 0-1.103-.018-1.103-.762 0-.406.217-.576.585-.745.35-.254.35-.542.35-1.71v-3.501c0-1.134.017-2.776-1.52-2.776a1.95 1.95 0 0 0-1.622.812c-.412.568-.412 1.398-.412 2.092v3.386c0 1.168 0 1.455.351 1.71.369.17.585.338.585.745 0 .744-.585.761-1.103.761h-3.499c-.518 0-1.103-.017-1.103-.761 0-.407.216-.576.585-.745.351-.255.351-.542.351-1.71v-3.514c0-1.134.016-2.776-1.522-2.776a1.95 1.95 0 0 0-1.621.812c-.419.576-.419 1.405-.419 2.1v3.378c0 1.168 0 1.455.352 1.71.368.17.585.338.585.745 0 .744-.585.761-1.104.761h-3.51c-.518 0-1.103-.017-1.103-.761 0-.407.217-.576.585-.745.353-.255.353-.542.353-1.71v-4.385h.016Zm31.492 4.317c0 1.117.017 1.455.45 1.66.519.252.77.421.77.83 0 .76-.702.76-1.27.76h-2.441c-1.17 0-1.17-.407-1.17-1.472-.803 1.337-2.208 1.827-3.645 1.827-2.205 0-4.225-1.234-4.225-3.69 0-3.387 4.228-4.215 6.82-4.215h.803c-.018-1.405-.687-2.49-2.185-2.49-1.44 0-1.64 1.524-3.122 1.524-.685 0-1.454-.305-1.454-1.133 0-1.66 3.71-1.983 4.864-1.983 4.083 0 5.823 1.83 5.823 4.62v3.762h-.018Zm-4.23-2.794c-1.672 0-3.36.83-3.36 2.743 0 .898.518 1.71 1.489 1.71.768 0 1.386-.509 1.804-1.135.502-.812.502-.83.502-3.3h-.435v-.018Z" fill="#FFF" fill-rule="nonzero"/></g></svg>