<svg viewBox="0 0 90 90" xmlns="http://www.w3.org/2000/svg"><g fill="none" fill-rule="evenodd"><path fill="#FFF" d="M0 0h90v90H0z"/><path fill="#FEE702" fill-rule="nonzero" d="M39.1 13.562 26.087 25.13l-8.591 7.904-3.845 3.407-1.09.77.32 13.496 13.59 12.853 9.616 8.612 3.141 2.763 1.41-.066 14.297-12.337 9.806-9.254 2.307-2.057.705-5.143 1.604-8.48-8.72-6.877-17.69-15.681-1.859-1.35-1.028-.41z"/><path d="M39.91 13.004c-.502.04-.898.31-1.113.458-.514.354-2.722 2.13-5.724 4.818a345.95 345.95 0 0 0-8.51 7.93 684.93 684.93 0 0 1-6.58 6.185l.013.016h-.32l.005-1.664-.157-.412s-6.179-.02-12.057.234l-.467.02v22.475h2.28v1.117h5.844l.001-2.89c.736.71 4.496 4.34 6.52 6.237.627.589 6.192 5.808 8.69 8.055.636.572 1.413 1.287 2.245 2.05 1.864 1.71 3.977 3.648 5.321 4.76l.607.502c1.547 1.28 2.187 1.808 2.55 2.038.334.211.67.318 1.01.318.139 0 .28-.022.42-.057.165.11.645.425.872.565.275.171.668.475 1.576-.066.905-.54 2.627-1.805 5.53-4.371 2.95-2.632 5.87-5.296 8.76-7.994a736.293 736.293 0 0 0 7.894-7.505 377.78 377.78 0 0 0 3.488-3.446h8.364v-4.585l2.29 2.834 1.083-.88.814 1.007 2.965-2.406-2.899-3.59 2.267.085L85 35.039l-1.32-.104.195-1.265-5.727-.454-.667 11.051 1.886.07-3.131 2.54h-.565v-1.631l-.62.034a70.871 70.871 0 0 1-4.483.156l6.879-12.833a186.05 186.05 0 0 0-2.042-.105l1.04-1.938-.858-.06c-7.272-.414-12.631-.335-14.751-.335-.053-.05-6.073-5.68-9.099-8.386-3.04-2.717-5.752-5.123-7.154-6.189-1.404-1.065-1.718-1.326-2.072-1.42a4.062 4.062 0 0 0-.443-.086 18.716 18.716 0 0 0-1.157-.82 1.64 1.64 0 0 0-1.002-.26Zm.133.548c.205.007.404.071.576.184.01.006 1.112.707 2.87 2.204.47.397.946.797 1.426 1.197 1.348 1.128 2.742 2.293 3.986 3.491.916.882 2.408 2.219 3.851 3.516a179.207 179.207 0 0 1 3.168 2.88 423.975 423.975 0 0 0 4.37 4.033v3.956H44.07v-1.755l-1.293.01v-2.12l-5.089.004.745 3.03-2.342.586.029 16.659h2.29v1.106h5.66v-11.52c.31-.009.718-.018 1.16-.031v1.034h3.183v14.14h2.288v1.11h5.77v-15.25h5.472V37.31c1.726-.078 3.056-.12 4.14-.14l-7.288 14.098h3.178l-.573 1.11h3.89c-.753.746-3.566 3.525-7.411 7.143-4.39 4.13-16.2 14.483-17.008 14.972-.714.43-1.2.234-1.544.016-.336-.214-1.014-.774-2.499-2.003l-.605-.502c-1.335-1.101-3.443-3.037-5.303-4.742-.832-.762-1.613-1.48-2.25-2.053-2.023-1.824-6.409-5.915-8.68-8.047-.278-.26-.667-.632-1.009-.956h2.159v1.128h5.6v-8.016l4.53 7.54.423-.354c.168-.137.331-.278.496-.414l.858 1.425c1.613-1.336 4.592-4.144 4.592-4.144-.543-.62-1.088-1.238-1.636-1.853l-3.232-3.801c2.449-2.032 3.07-3.577 2.936-5.374-.118-1.553-.771-2.6-1.69-3.317-1.117-2.817-4.39-3.402-6.681-3.676-2.173-.247-5.637-.096-8.01.004l-.357.013.011-2.96h-.193c.677-.631 4.246-3.95 6.16-5.795 1.066-1.028 4.829-4.635 8.496-7.917 2.982-2.67 5.164-4.424 5.668-4.772.329-.227.624-.374.93-.369l.002-.001Zm-26.986 23.7 5.814.006v18.844a1196.13 1196.13 0 0 1-5.747-5.508l.004-4.227h5.363V41.73l-1.307.007.003-2.2-4.134.02.004-2.304Zm13.68 3.877h.871a1.9 1.9 0 0 1 .192.837c0 .847-.44 1.64-1.063 2.357V41.13Z" fill="#231F20" fill-rule="nonzero"/><path d="M62.773 30.659c-.901 0-1.602.006-2.081.005v4.992c2.85-.13 4.973-.116 6.8-.13l-7.88 15.243.35.001h15.222v-4.992c-3.333.219-5.793.153-7.51.113l7.985-14.896a215.059 215.059 0 0 0-12.884-.336h-.002Zm-45.581.164-11.699.234v21.516h5.843l.005-7.814h5.362l.002-4.638-5.444.027.01-4.502 5.926-.01-.005-1.793v-3.02Zm25.09.829-3.973.008.734 2.887-2.447.612.027 15.768h5.66V31.652Zm36.335 2.1-.604 10.034 3.787.14 1.507-9.801-4.69-.373Zm-35.176 1.76v5.022l5.472-.124v15.246h5.77V40.41l5.472.124v-5.022H43.44Zm-18.992.18c-1.738-.008-3.629.075-5.098.135v19.9h5.6V39.522h1.205c.561 0 2.123.784 2.123 2.443 0 1.754-1.57 3.21-2.858 4.23l5.974 9.942c1.614-1.336 3.146-2.652 4.485-4.034l-5.013-5.895c2.549-2.083 3.189-3.645 3.053-5.47-.29-3.856-3.883-4.587-6.635-4.915a27.098 27.098 0 0 0-2.836-.13Zm55.438 8.864-2.966 2.406 2.403 2.971 2.964-2.406-2.401-2.971Z" fill="#ED1C24"/></g></svg>