<svg viewBox="0 0 90 90" xmlns="http://www.w3.org/2000/svg"><g fill="none" fill-rule="evenodd"><path fill="#FFF" fill-rule="nonzero" d="M0 0h90v90H0z"/><path d="m55.663 39.91 5.871 11.221h12.897L62.687 32.483 73.168 14H61.534l-5.652 11.002L50.065 14H38.267l10.645 18.318-11.304 18.813h12.183l5.872-11.221ZM25.207 28.799v-5.996h10.92V14H15v37.13h10.207V37.216h10.317V28.8H25.207Z" fill="#383B8C"/><path d="m29.982 56.792-4.224.375s.013 1.26.013 1.719c0 .46.188.551.188.551l1.394.527v16.388c0 .705.252.643.252.643h2.7c.36 0 .28-.674.28-.674s.006-3.614.006-6.31c0-2.696 2.015-4.065 2.606-3.426.498.539.485 1.09.473 1.536a5.498 5.498 0 0 0-.002.236c.007.38.002 4.888 0 7.024v1.063c0 .643.38.551.38.551h2.525c.407 0 .309-.582.309-.582v-7.658c0-.104.007-.253.017-.436.064-1.257.208-4.1-1.497-4.971-2.508-1.283-4.45.643-4.776 1.383-.221.502-.192.292-.141-.064.023-.168.052-.369.06-.542.028-.541.035-5.88.035-6.614 0-.735-.598-.72-.598-.72ZM21.719 77c-2.424 0-4.15-.858-5.177-2.575C15.514 72.71 15 70.596 15 68.085c0-3.118.627-5.59 1.882-7.418 1.254-1.827 3.05-2.74 5.39-2.74a9.04 9.04 0 0 1 2.934.47l-.383 3.904a8.433 8.433 0 0 0-1.286-.36 6.753 6.753 0 0 0-1.33-.139c-1.147 0-2.03.494-2.646 1.481-.617.988-.925 2.349-.925 4.083 0 1.883.3 3.304.903 4.264.603.96 1.549 1.439 2.839 1.439.425 0 .864-.06 1.318-.18a4.57 4.57 0 0 0 1.19-.485l.383 3.848a8.542 8.542 0 0 1-3.55.748Zm22.43-10.768c-.552 0-1.027.29-1.424.871-.397.582-.595 1.436-.595 2.561 0 2.455.652 3.682 1.956 3.682.596 0 1.074-.309 1.435-.927.362-.619.542-1.5.542-2.644 0-2.362-.637-3.543-1.913-3.543ZM43.853 77c-1.602 0-2.849-.554-3.742-1.66-.893-1.108-1.34-2.843-1.34-5.205 0-2.233.525-4.042 1.574-5.426 1.049-1.384 2.388-2.076 4.018-2.076s2.882.581 3.753 1.744c.872 1.162 1.308 2.88 1.308 5.149 0 2.214-.525 4.014-1.574 5.398C46.8 76.308 45.47 77 43.852 77Zm12.587-6.74c0 4.493 1.616 6.74 4.847 6.74 1.063 0 1.985-.194 2.765-.582l-.256-3.598c-.51.35-1.106.526-1.785.526-.738 0-1.287-.296-1.648-.89-.362-.592-.543-1.435-.543-2.528 0-2.446.744-3.669 2.233-3.669.269 0 .538.033.808.097.269.065.553.162.85.29l.34-3.653a6.356 6.356 0 0 0-2.04-.36c-1.858 0-3.25.712-4.179 2.136-.928 1.424-1.392 3.255-1.392 5.491Zm13.873-4.582c-.47 0-.874.226-1.209.678-.336.452-.503 1.02-.503 1.703h3.21c0-.776-.128-1.366-.385-1.772-.256-.406-.628-.609-1.113-.609Zm4.581 5.177H68.6c0 1.92.872 2.878 2.615 2.878 1.106 0 2.14-.286 3.104-.858l.298 3.184c-.539.295-1.17.526-1.892.692a9.046 9.046 0 0 1-2.02.249c-1.772 0-3.112-.572-4.018-1.716-.908-1.144-1.36-2.916-1.36-5.315 0-2.178.445-3.95 1.338-5.315.893-1.366 2.14-2.049 3.742-2.049 1.531 0 2.68.586 3.445 1.758C74.617 65.535 75 67.081 75 69c0 .536-.014.937-.043 1.204-.028.268-.05.484-.064.65ZM52.91 61.802c-.552 0-1.02-.24-1.403-.72-.383-.479-.574-1.07-.574-1.771 0-.701.191-1.292.574-1.772.383-.48.85-.72 1.403-.72s1.024.245 1.414.734c.39.49.585 1.076.585 1.758 0 .683-.195 1.27-.585 1.758-.39.489-.861.733-1.414.733Zm1.516 1.337-4.068.094c-.626 0-.53.596-.53.596v1.786c0 .47.193.533.193.533s.89-.031 1.252-.031c.36 0 .41.595.41.595v9.622c0 .784.384.658.384.658h2.455c.434 0 .386-.533.386-.533V63.797c0-.72-.482-.658-.482-.658Z" fill="#081636"/></g></svg>