<svg xmlns="http://www.w3.org/2000/svg" viewBox="0 0 90 90"><path fill="#FFF" d="M0 0h90v90H0z"/><path d="M69.075 44.98C68.944 31.64 58.296 20.823 45 20.823S20.925 31.64 20.925 44.98c0 11.663 8.238 21.394 19.127 23.596 3.642.737 4.145-8.567 3.148-14.736-.018-.001-1.098-.064-1.46-.079-.748-.03-1.454.828-1.912.995-.778.284-.926-.494-1.489-.494-.492 0-1.153.769-2.971.423-1.839-.35-2.434-2.019-2.434-2.019l-.552-.291c-1.877-.47-1.979-2.527-1.99-2.644-.107-1.006 1.645-1.766 1.152-2.08-2.125-1.35-1.44-2.413-1.42-2.468.272-.716 1.302-2.263.924-2.505-1.041-.666.669-4.54 2.172-5.616.228-1.227 1.545-3.233 2.82-3.656-.07-1.392 1.868-2.18 1.868-2.18 1.357-.438.406-1.564 3.008-1.385.61.041.59-.652 2.1-.686.438-.01.918-.352 2.255-.352 2.344-.102 2.236 1.488 3.02 1.218.993-.341 4.295 1.285 4.637 4.63 1.483-.115 5.375 4.185 5.262 7.359 2.558 2.883-.93 5.614-1.068 6.143.1.299.614 1.609.409 2.624-.241 1.19-1.742 2.486-1.804 2.53-1.053.76-1.831 1.62-3.083 1.384-1.293-.243-1.048-1.438-1.432-1.729a4.868 4.868 0 0 1-3.683 1.24 28.918 28.918 0 0 0-.975-.111c-.767 4.542-.659 14.691 2.548 14.686 9.67-1.482 20.1-10.824 19.973-23.797Zm-50.103 0c0-12.861 10.017-24.093 22.65-24.833C23.512 18.47 12 31.372 12 44.98c0 13.607 11.78 26.762 29.623 24.832-12.634-.74-22.65-11.972-22.65-24.832Zm29.406-24.833c12.633.74 22.65 11.971 22.65 24.832 0 12.86-10.018 24.092-22.651 24.832C66.678 71.427 78 58.586 78 44.979c0-13.607-11.277-26.419-29.622-24.832Z" fill="#E85F30"/></svg>