<svg viewBox="0 0 90 90" xmlns="http://www.w3.org/2000/svg"><g fill="none" fill-rule="evenodd"><path fill="#4A2284" d="M0 0h90v90H0z"/><path d="M32.693 38.9c.355 0 .382.106.46.385l1.633 6.109c.302 1.155.816 3.559.96 4.435h.053c.132-.996.737-3.97.843-4.435l1.369-6.109c.079-.332.105-.385.46-.385h3.08c.277 0 .356.053.356.359v1.66c0 .278-.053.358-.356.358h-.895L38.59 48.9c-.408 1.673-1.12 4.276-1.698 5.683C36.155 56.456 34.575 57 33.154 57c-1.396 0-3.45-.69-3.45-1.182 0-.106.054-.2.106-.305l.764-1.674c.052-.119.158-.185.223-.185.25 0 1.04.637 2.16.637 1.329 0 1.697-.797 2.04-1.886l.25-.85H34.18c-.329 0-.381-.106-.46-.332l-3.41-9.946h-.816c-.302 0-.355-.08-.355-.358v-1.66c0-.28.053-.359.355-.359h3.199Zm39.106 0c.356 0 .382.106.461.385l1.632 6.109c.303 1.155.816 3.559.961 4.435h.053c.051-.39.175-1.082.313-1.809l.094-.487c.189-.971.38-1.897.435-2.14l1.369-6.108c.079-.332.105-.385.46-.385h3.068c.276 0 .355.053.355.359v1.66c0 .278-.053.358-.355.358h-.882L77.709 48.9c-.408 1.673-1.119 4.276-1.698 5.683C75.274 56.456 73.695 57 72.273 57c-1.395 0-3.449-.69-3.449-1.182 0-.106.053-.2.106-.305l.763-1.674c.053-.119.158-.185.224-.185.25 0 1.04.637 2.159.637 1.316 0 1.698-.797 2.027-1.886l.25-.85h-1.066c-.33 0-.382-.106-.461-.332l-3.41-9.946h-.815c-.303 0-.356-.08-.356-.358v-1.66c0-.28.053-.359.356-.359h3.198Zm-10.253-.425c3.172 0 4.37 1.46 4.37 4.13v4.422c0 1.047.089 1.516.198 1.951l.052.2h1.092c.277 0 .356.08.356.359v1.673c0 .279-.053.359-.356.359h-3.172c-.606 0-.658-.638-.764-1.102-.513.517-1.395 1.54-3.277 1.54-2.33 0-3.817-1.54-3.817-3.944 0-4.33 4.633-4.33 6.634-4.33v-.796c0-1.155-.198-1.899-1.803-1.899-1.422 0-2.817.77-3.146.77-.132 0-.224-.159-.25-.252l-.514-1.567c-.026-.106-.079-.2-.079-.305 0-.585 2.514-1.209 4.476-1.209Zm-37.488-.013c2.383 0 2.949 1.82 2.949 4.05v6.666h1.29c.302 0 .355.08.355.359v1.673h.026c0 .279-.052.359-.355.359H24.15c-.302 0-.355-.08-.355-.359v-7.9c0-.97-.105-2.151-1.066-2.151-.924 0-1.64.558-2.03.906l-.155.143v6.971h1.303c.303 0 .355.08.355.359v1.673c0 .279-.052.359-.355.359h-4.173c-.303 0-.355-.08-.355-.359V43.31c0-.97-.105-2.151-1.066-2.151-.924 0-1.64.558-2.03.906l-.155.143v6.971h1.303c.302 0 .355.08.355.359v1.673c0 .279-.053.359-.355.359H9.54c-.303 0-.356-.08-.356-.359v-1.673c0-.279.053-.359.356-.359h1.29v-5.723c0-1.036-.07-1.467-.174-1.884l-.05-.194-.026-.1H9.355c-.302 0-.355-.106-.355-.358v-1.66c0-.28.053-.359.355-.359h3.528c.605 0 .684.77.816 1.328.764-.664 1.882-1.766 3.883-1.766 1.093 0 2.29.69 2.593 1.766.764-.664 1.856-1.766 3.883-1.766Zm31.367.358c0 4.237-3.12 5.724-5.792 5.724h-1.342v4.568h1.658c.435 0 .527.08.527.544v1.368h.013c0 .465-.105.545-.527.545h-6.41c-.434 0-.54-.08-.54-.545v-1.38c0-.466.106-.545.54-.545h1.29V36.457h-1.29c-.434 0-.54-.08-.54-.531v-1.382c0-.464.106-.544.54-.544h6.315c2.114.015 5.558.273 5.558 4.82Zm7.114 6.995h-.22c-1.064.012-3.037.215-3.037 2.062 0 .996.71 1.74 1.671 1.74.935 0 1.593-.664 1.909-.97V45.82l-.323-.004Zm-13.235-9.12h-1.04v5.153h.79c1.5 0 2.922-.252 2.922-2.842 0-2.23-1.356-2.31-2.672-2.31Z" fill="#FFF" fill-rule="nonzero"/></g></svg>