<svg viewBox="0 0 90 90" xmlns="http://www.w3.org/2000/svg"><g fill="none"><path fill="#006156" d="M0 0h90v90H0z"/><g fill="#FFF"><path d="M50.637 48.5c2.665 0 4.938-.93 6.818-2.792 1.88-1.863 2.817-4.335 2.817-7.415 0-2.494-.97-4.719-2.907-6.671-1.941-1.953-4.182-2.929-6.728-2.929H32.608a2.876 2.876 0 0 0-2.881 2.871v6.544a1.08 1.08 0 0 0 1.08 1.077h.022a1.08 1.08 0 0 0 1.08-1.077v-6.163a1.08 1.08 0 0 1 1.081-1.077h17.647c1.941 0 3.666.76 5.183 2.278 1.513 1.522 2.273 3.237 2.273 5.146 0 2.56-.724 4.536-2.168 5.932-1.444 1.4-3.206 2.1-5.287 2.1h-22.39a2.876 2.876 0 0 0-2.883 2.87v19.723a1.08 1.08 0 0 0 1.081 1.077h.021a1.08 1.08 0 0 0 1.081-1.077v-19.34A1.08 1.08 0 0 1 28.63 48.5h22.008Z"/><path d="M50.637 44.154c3.516 0 5.273-1.952 5.273-5.857 0-1.406-.522-2.634-1.56-3.682-1.04-1.048-2.28-1.568-3.713-1.568H36.975a2.876 2.876 0 0 0-2.882 2.87v2.196a1.08 1.08 0 0 0 1.08 1.077h.019a1.08 1.08 0 0 0 1.08-1.077v-1.818a1.08 1.08 0 0 1 1.081-1.077h13.284c.868 0 1.603.294 2.197.876.595.585.893 1.32.893 2.203 0 1.372-.27 2.326-.818 2.871-.543.542-1.303.815-2.273.815H23.882A2.876 2.876 0 0 0 21 44.854v24.07A1.08 1.08 0 0 0 22.081 70h.021a1.08 1.08 0 0 0 1.081-1.077V45.23a1.08 1.08 0 0 1 1.08-1.077h26.374v.001Z"/><path d="M50.637 52.847c2.485 0 4.794-.617 6.923-1.855 2.133-1.238 3.843-2.979 5.136-5.222 1.293-2.246 1.942-4.737 1.942-7.475 0-2.416-.642-4.698-1.924-6.85a14.693 14.693 0 0 0-5.169-5.165c-2.162-1.29-4.462-1.93-6.908-1.93h-22.39a2.876 2.876 0 0 0-2.882 2.87v10.89a1.08 1.08 0 0 0 1.081 1.077h.021a1.08 1.08 0 0 0 1.081-1.077V27.598a1.08 1.08 0 0 1 1.081-1.077h22.009c3.13 0 5.882 1.188 8.26 3.564 2.373 2.376 3.558 5.114 3.558 8.21 0 2.398-.55 4.551-1.65 6.464-1.101 1.913-2.545 3.377-4.332 4.392-1.79 1.016-3.735 1.525-5.835 1.525H32.61a2.876 2.876 0 0 0-2.882 2.871V68.92a1.08 1.08 0 0 0 1.081 1.077h.022a1.08 1.08 0 0 0 1.08-1.077V53.924a1.08 1.08 0 0 1 1.081-1.077h17.645Z"/><path d="M66.485 29.27a19.1 19.1 0 0 0-6.757-6.747C56.901 20.84 53.868 20 50.637 20H23.882A2.876 2.876 0 0 0 21 22.871v15.24a1.08 1.08 0 0 0 1.08 1.077h.022a1.08 1.08 0 0 0 1.08-1.077V23.25a1.08 1.08 0 0 1 1.082-1.076h26.373c2.85 0 5.522.739 8.014 2.217a16.712 16.712 0 0 1 5.954 5.95c1.477 2.483 2.216 5.136 2.216 7.952 0 2.358-.436 4.576-1.304 6.657-.868 2.085-2.035 3.854-3.502 5.315-1.466 1.46-3.187 2.616-5.165 3.473a15.543 15.543 0 0 1-6.213 1.282H36.975a2.876 2.876 0 0 0-2.882 2.87v11.03a1.08 1.08 0 0 0 1.08 1.077h.018a1.08 1.08 0 0 0 1.081-1.077V58.273a1.08 1.08 0 0 1 1.08-1.077h13.285c2.464 0 4.808-.438 7.031-1.313a18.038 18.038 0 0 0 5.85-3.7c1.675-1.59 3.007-3.585 3.998-5.993.99-2.405 1.484-5.035 1.484-7.895 0-3.198-.84-6.209-2.515-9.025Z"/></g></g></svg>