<svg xmlns="http://www.w3.org/2000/svg" viewBox="0 0 90 90"><path fill="#EA4B71" d="M0 0h90v90H0z"/><path d="M80 34.206a7.192 7.192 0 0 1-6.275 7.148 7.18 7.18 0 0 1-7.858-5.348H55.842a3.593 3.593 0 0 0-3.54 3.007l-.295 1.775a7.188 7.188 0 0 1-2.334 4.216 7.188 7.188 0 0 1 2.334 4.215l.295 1.775a3.593 3.593 0 0 0 3.54 3.008h2.845a7.18 7.18 0 0 1 7.857-5.342 7.192 7.192 0 0 1 6.275 7.141 7.192 7.192 0 0 1-6.275 7.141 7.18 7.18 0 0 1-7.857-5.341h-2.845a7.185 7.185 0 0 1-7.08-6.015l-.297-1.776a3.593 3.593 0 0 0-3.54-3.007h-2.929a7.185 7.185 0 0 1-6.87 5.097 7.185 7.185 0 0 1-6.869-5.097h-4.21A7.179 7.179 0 0 1 15.97 51.8a7.194 7.194 0 0 1-5.962-7.404 7.19 7.19 0 0 1 6.574-6.864 7.182 7.182 0 0 1 7.62 5.673h3.903a7.187 7.187 0 0 1 7.023-5.695 7.187 7.187 0 0 1 7.024 5.695h2.773a3.593 3.593 0 0 0 3.541-3.007l.296-1.775a7.185 7.185 0 0 1 7.08-6.016h10.025a7.18 7.18 0 0 1 7.858-5.348A7.192 7.192 0 0 1 80 34.207Zm-3.59 0c0 1.988-1.607 3.6-3.59 3.6a3.595 3.595 0 0 1-3.59-3.6c0-1.988 1.608-3.6 3.59-3.6a3.595 3.595 0 0 1 3.59 3.6ZM17.178 48.303a3.595 3.595 0 0 0 3.59-3.6 3.594 3.594 0 0 0-3.59-3.598 3.595 3.595 0 0 0-3.59 3.599c0 1.988 1.608 3.6 3.59 3.6Zm17.95 0a3.595 3.595 0 0 0 3.59-3.6 3.595 3.595 0 0 0-3.59-3.598 3.595 3.595 0 0 0-3.59 3.599c0 1.988 1.607 3.6 3.59 3.6ZM65.64 59.4a3.595 3.595 0 0 0 3.59-3.599c0-1.988-1.608-3.6-3.59-3.6a3.595 3.595 0 0 0-3.59 3.6c0 1.988 1.607 3.6 3.59 3.6Z" fill="#FFF"/></svg>