<svg xmlns="http://www.w3.org/2000/svg" viewBox="0 0 90 90"><rect width="90" height="90" fill="#005AFF"/><path fill="#FFF" d="M25.5781922 9.875L27.6218304 9.875 27.6218304.125 25.5781922.125 25.5781922 9.875zM19.0518061.59375C18.9529383.40625 18.8210576.28125 18.6562495.15625 18.4914413.0625 18.2937057 0 18.0629572 0 17.8322087 0 17.634473.0625 17.4696649.15625 17.3048567.25 17.1730187.40625 17.0741082.59375L11.371763 9.65625 11.2069548 9.875 13.5472392 9.875 13.5801667 9.8125 17.9970595 2.75 19.9417873 5.84375 17.0741082 5.84375 17.0411381 5.9375 16.2170973 7.28125 16.0852593 7.5 20.9965339 7.5 22.4468372 9.8125 22.4798073 9.875 24.9519297 9.875 24.8200917 9.65625 19.0518061.59375zM30.126923 4.875L36.4885008.375 36.8510873.125 33.653792.125 33.6208218.15625 28.3470034 4C28.149225 4.15625 28.0173871 4.28125 27.9514467 4.4375 27.8855064 4.5625 27.8525789 4.71875 27.8525789 4.875 27.8525789 5.03125 27.8525789 5.1875 27.9184766 5.28125 27.9844169 5.40625 28.0832847 5.53125 28.2480929 5.65625L33.8186001 9.8125 33.8515703 9.84375 37.0158955 9.84375 36.653309 9.59375 30.126923 4.875zM8.66889211 6.75L1.87881301.40625C1.74696649.25 1.61511996.15625 1.48327343.09375 1.3514269.03125 1.18661875 0 1.05477222 0 .7251559 0 .461462846.09375.296654686.3125.0988848955.53125 0 .8125 0 1.15625L0 9.875 1.97769791 9.875 1.97769791 3.15625 8.73483243 9.59375C8.99850843 9.84375 9.32812475 10 9.6247709 10 9.92145971 10 10.1851357 9.90625 10.3499439 9.6875 10.5477222 9.5 10.6136199 9.21875 10.6136199 8.875L10.6136199.0625 8.63592195.0625 8.63592195 6.75 8.66889211 6.75zM65.2310182 2.96875C65.0002697 2.375 64.6377259 1.875 64.2090711 1.46875 63.7808429 1.0625 63.2203928.71875 62.6271005.5 62.0009659.28125 61.3415627.15625 60.5836328.15625L58.1443527.15625C57.419265.15625 56.7598618.28125 56.1665694.5 55.5732771.71875 55.012827 1.0625 54.5845988 1.46875 54.1231018 1.875 53.7934002 2.40625 53.5298095 2.96875 53.2657923 3.5625 53.1672657 4.21875 53.1672657 4.90625 53.1672657 5.59375 53.299061 6.28125 53.5298095 6.875 53.7934002 7.46875 54.1231018 8 54.5845988 8.4375 55.0460958 8.875 55.5732771 9.21875 56.1665694 9.46875 56.7598618 9.71875 57.4521072 9.84375 58.1443527 9.84375L60.5836328 9.84375C61.3087205 9.84375 62.0009659 9.71875 62.5942583 9.46875 63.2203928 9.21875 63.7475742 8.875 64.1762289 8.4375 64.6377259 8 64.9674275 7.46875 65.2310182 6.875 65.4946089 6.28125 65.593562 5.625 65.593562 4.90625 65.6264042 4.1875 65.4946089 3.5625 65.2310182 2.96875zM63.3521881 6.15625C63.2203928 6.53125 62.9896443 6.84375 62.7260536 7.09375 62.4620364 7.34375 62.1327613 7.5625 61.7702175 7.71875 61.4076736 7.875 61.0118611 7.9375 60.5836328 7.9375L58.1443527 7.9375C57.7156979 7.9375 57.3203119 7.875 56.957768 7.71875 56.5952242 7.5625 56.2983648 7.375 56.0347741 7.09375 55.7711834 6.84375 55.5732771 6.53125 55.4086396 6.15625 55.2764177 5.78125 55.1778911 5.40625 55.1778911 4.96875 55.1778911 4.53125 55.2435755 4.15625 55.4086396 3.78125 55.5404349 3.4375 55.7711834 3.125 56.0347741 2.875 56.2983648 2.625 56.5952242 2.40625 56.957768 2.28125 57.3203119 2.125 57.7156979 2.0625 58.1443527 2.0625L60.5836328 2.0625C61.0118611 2.0625 61.4076736 2.125 61.7702175 2.28125 62.1327613 2.4375 62.4620364 2.625 62.7260536 2.875 62.9896443 3.125 63.1875506 3.4375 63.3521881 3.78125 63.4839835 4.125 63.5829366 4.53125 63.5829366 4.96875 63.5500944 5.40625 63.4839835 5.8125 63.3521881 6.15625zM54.1231018.125L51.7499326.125 51.7166638.1875 47.3328692 7.25 42.9490745.1875 42.9158058.125 40.4438967.125 40.5757347.34375 46.3109221 9.375C46.4098752 9.5625 46.5416706 9.6875 46.7067347 9.8125 46.8713722 9.9375 47.0692785 9.96875 47.300027 9.96875 47.5307755 9.96875 47.695413 9.90625 47.8600506 9.8125 48.0251146 9.71875 48.15691 9.5625 48.2558631 9.375L53.9913065.34375 54.1231018.125zM37.642158 9.875L39.6857962 9.875 39.6857962.125 37.642158.125 37.642158 9.875zM68 1.37502083C68 2.00002083 67.4723921 2.46877083 66.8129889 2.46877083 66.1540121 2.46877083 65.6264042 1.96877083 65.6264042 1.37502083 65.6264042.750020833 66.1540121.281270417 66.8129889.281270417 67.4723921.281270417 68 .750020833 68 1.37502083zM65.9232636 1.37502083C65.9232636 1.87502083 66.3186497 2.25002083 66.8129889 2.25002083 67.3077545 2.25002083 67.7031406 1.87502083 67.7031406 1.37502083 67.7031406.875020833 67.3077545.500020833 66.8129889.500020833 66.2858075.500020833 65.9232636.875020833 65.9232636 1.37502083zM66.6155091 1.93752083L66.3519184 1.93752083 66.3519184.843770833C66.450445.843770833 66.6155091.812520833 66.8129889.812520833 67.0437373.812520833 67.1426905.843770833 67.2088014.906270833 67.2744858.968770833 67.3405968 1.03127083 67.3405968 1.15627083 67.3405968 1.28127083 67.2416436 1.37502083 67.1098483 1.40627083 67.2088014 1.43752083 67.2744858 1.53127083 67.3077545 1.68752083 67.3405968 1.84377083 67.373439 1.90627083 67.4067077 1.96877083L67.1098483 1.96877083C67.0770061 1.93752083 67.0437373 1.84377083 67.0108951 1.68752083 66.9780529 1.56252083 66.911942 1.53127083 66.7801466 1.53127083L66.6483513 1.53127083 66.6483513 1.93752083 66.6155091 1.93752083zM66.6155091 1.31252083L66.7473044 1.31252083C66.911942 1.31252083 67.0108951 1.25002083 67.0108951 1.15627083 67.0108951 1.06252083 66.9452107 1.00002083 66.7473044 1.00002083 66.6811935 1.00002083 66.6155091 1.00002083 66.5826669 1.00002083L66.5826669 1.31252083 66.6155091 1.31252083z" transform="translate(11 40)"/></svg>