<svg viewBox="0 0 90 90" xmlns="http://www.w3.org/2000/svg"><g fill="none" fill-rule="evenodd"><path fill="#002B48" d="M0 0h90v90H0z"/><g fill-rule="nonzero"><path d="M48 70h6.6V51.886h10.6c4.38-.067 7.92-1.495 10.625-4.286 2.704-2.79 4.096-6.544 4.175-11.261-.08-4.708-1.47-8.427-4.175-11.157-2.704-2.73-6.246-4.124-10.625-4.182H48v49Zm6.6-24.084V26.967h9.6c2.828.022 5.039.846 6.633 2.473 1.595 1.627 2.406 3.926 2.434 6.897-.027 2.98-.84 5.314-2.442 7.001-1.601 1.688-3.832 2.547-6.692 2.577H54.6Z" fill="#CD3B3B"/><path d="m29.942 33-.057.001c-4.422.212-7.928 1.5-10.477 3.882l-.319.301a25.08 25.08 0 0 0-2.17 2.34l-.212.265v-5.966h-4.706L12 70h4.707V52.325a21.63 21.63 0 0 1 .113-2.316c.077-.733.208-1.435.394-2.109.857-3.063 2.439-5.514 4.753-7.377 2.305-1.855 4.954-2.803 7.98-2.856 3.275.1 5.265 1.116 6.103 3.007.942 2.127 1.358 4.67 1.237 7.632V70h4.707V47.315c.087-4.257-.714-7.682-2.432-10.242-1.794-2.678-5.037-4.018-9.62-4.073Z" fill="#FFF"/></g></g></svg>