<svg xmlns="http://www.w3.org/2000/svg" xmlns:xlink="http://www.w3.org/1999/xlink" viewBox="0 0 90 90" xmlns:v="https://vecta.io/nano"><path d="M0 0h90v90H0z"/><path fill="#0ebbcc" d="M33.282 17.912a3.91 3.91 0 0 1-2.406 3.61 3.88 3.88 0 0 1-4.243-.852 3.92 3.92 0 0 1-.839-4.262c.604-1.46 2.026-2.411 3.6-2.409a3.9 3.9 0 0 1 3.891 3.906m15.557.005c-.001 2.159-1.745 3.907-3.895 3.906s-3.892-1.751-3.891-3.91S42.798 14 44.948 14s3.892 1.749 3.893 3.906m-7.752 13.502a3.91 3.91 0 0 1-2.401 3.613 3.88 3.88 0 0 1-4.244-.846 3.92 3.92 0 0 1-.845-4.26c.602-1.461 2.022-2.414 3.597-2.414 2.149 0 3.892 1.749 3.893 3.906m-15.484 0a3.91 3.91 0 0 1-2.402 3.614 3.88 3.88 0 0 1-4.244-.847 3.92 3.92 0 0 1-.843-4.261c.603-1.461 2.024-2.413 3.599-2.412a3.9 3.9 0 0 1 3.891 3.906"/><use xlink:href="#B" fill="#535454"/><path fill="#0ebbcc" d="M72.206 31.408a3.91 3.91 0 0 1-2.401 3.613 3.88 3.88 0 0 1-4.244-.846 3.92 3.92 0 0 1-.845-4.26c.602-1.461 2.022-2.414 3.597-2.414 2.149 0 3.892 1.749 3.893 3.906m-7.821-13.496c-.001 2.159-1.745 3.907-3.895 3.906s-3.892-1.751-3.891-3.91S58.341 14 60.491 14s3.892 1.749 3.893 3.906"/><path fill="#535454" d="M33.282 44.939a3.91 3.91 0 0 1-2.405 3.612 3.88 3.88 0 0 1-4.243-.85 3.92 3.92 0 0 1-.841-4.262c.604-1.461 2.026-2.412 3.601-2.409 1.032 0 2.022.412 2.752 1.145s1.139 1.727 1.139 2.764"/><path fill="#0ebbcc" d="M17.786 44.939c0 2.159-1.743 3.909-3.893 3.909S10 47.098 10 44.939s1.743-3.909 3.893-3.909 3.893 1.75 3.893 3.909m31.055 0c0 2.159-1.743 3.909-3.893 3.909s-3.893-1.75-3.893-3.909 1.743-3.909 3.893-3.909 3.893 1.75 3.893 3.909m-7.752 13.496a3.91 3.91 0 0 1-2.401 3.613 3.88 3.88 0 0 1-4.244-.846 3.92 3.92 0 0 1-.845-4.26c.602-1.461 2.022-2.414 3.597-2.414 2.149 0 3.892 1.749 3.893 3.906m-15.484 0a3.91 3.91 0 0 1-2.402 3.614 3.88 3.88 0 0 1-4.244-.847 3.92 3.92 0 0 1-.843-4.261c.603-1.461 2.024-2.413 3.599-2.412a3.9 3.9 0 0 1 3.891 3.906"/><use xlink:href="#B" y="27.028" fill="#535454"/><path fill="#0ebbcc" d="M72.206 58.436a3.91 3.91 0 0 1-2.401 3.613 3.88 3.88 0 0 1-4.244-.846 3.92 3.92 0 0 1-.845-4.26c.602-1.461 2.022-2.414 3.597-2.414 2.149 0 3.892 1.749 3.893 3.906m-7.821-13.496c0 2.159-1.743 3.909-3.893 3.909s-3.893-1.75-3.893-3.909 1.743-3.909 3.893-3.909 3.893 1.75 3.893 3.909m15.616 0c0 2.159-1.743 3.909-3.893 3.909s-3.893-1.75-3.893-3.909 1.743-3.909 3.893-3.909S80 42.781 80 44.939M33.282 72.088a3.91 3.91 0 0 1-2.403 3.614 3.88 3.88 0 0 1-4.244-.848 3.92 3.92 0 0 1-.842-4.262c.604-1.461 2.026-2.412 3.601-2.41a3.9 3.9 0 0 1 3.891 3.906m15.557 0a3.91 3.91 0 0 1-2.401 3.613 3.88 3.88 0 0 1-4.244-.846 3.92 3.92 0 0 1-.845-4.26c.602-1.461 2.022-2.414 3.597-2.414 2.149 0 3.892 1.749 3.893 3.906m15.543 0a3.91 3.91 0 0 1-2.401 3.613 3.88 3.88 0 0 1-4.244-.846 3.92 3.92 0 0 1-.845-4.26c.602-1.461 2.022-2.414 3.597-2.414 2.149 0 3.892 1.749 3.893 3.906"/><defs ><path id="B" d="M56.633 31.408a3.91 3.91 0 0 1-2.401 3.613 3.88 3.88 0 0 1-4.244-.846 3.92 3.92 0 0 1-.845-4.26c.602-1.461 2.022-2.414 3.597-2.414 2.149 0 3.892 1.749 3.893 3.906"/></defs></svg>