<svg viewBox="0 0 90 90" xmlns="http://www.w3.org/2000/svg"><g fill="none" fill-rule="evenodd"><path fill="#FFF" fill-rule="nonzero" d="M0 0h90v90H0z"/><path d="M60.628 20 47.276 56.543a2.554 2.554 0 0 1-2.148 1.66v.022h14.113a2.559 2.559 0 0 0 2.407-1.682L75 20H60.628ZM43.98 57.666a2.42 2.42 0 0 0 1.973-1.015 2.49 2.49 0 0 0 .318-.594l4.898-13.409-2.865-7.83a2.424 2.424 0 0 0-2.235-1.48 2.42 2.42 0 0 0-1.973 1.015 2.661 2.661 0 0 0-.318.594L38.882 48.35l2.877 7.862a2.422 2.422 0 0 0 2.221 1.454ZM30.76 32.777h14.267v.008a2.556 2.556 0 0 0-2.302 1.673L29.374 71H15l13.351-36.542a2.56 2.56 0 0 1 2.408-1.68Z" fill="#0090BA"/></g></svg>