<svg viewBox="0 0 90 90" xmlns="http://www.w3.org/2000/svg"><g fill="none"><path fill="#00C7FF" d="M0 0h90v90H0z"/><path d="M76.767 41.205V62.65h-7.162V44.502c0-3.209-.253-3.699-1.381-3.42-.997.246-1.018 1.742-1.077 3.989v17.578h-6.632V28.542L67.147 27v12.871c0 .09 0 .257.068.257s.08-.19.084-.263c.242-4.813 1.566-6.692 3.808-7.218 3.672-.854 5.66.899 5.66 8.558ZM59.662 51.818c0-5.288-.764-6.917-5.629-7.874-3.198-.45-3.31-.695-3.31-2.16v-.298c0-1.836.207-3.024 1.193-3.276 1.022-.263 1.267.297 1.267 2.596v2.185h6.479v-3.398c0-6.459-1.68-8.831-7.709-7.462-5.996 1.36-7.709 3.771-7.709 9.563v1.23c0 5.162.504 6.67 5.554 7.802 3.344.676 3.385.84 3.385 2.351v1.519c0 1.845-.19 2.35-1.082 2.35-1.114 0-1.378-.724-1.378-2.864v-2.11h-6.479v2.406c0 6.505 1.952 8.519 7.709 8.519 6.054 0 7.709-2.14 7.709-8.1v-2.979ZM35.906 35.843c-5.699 1.331-7.767 3.807-7.767 9.573v.52h6.554V43.48c0-1.15.296-1.988 1.082-2.167.786-.179 1.114.742 1.114 2.333v2.804c-3.31 1.073-9.176 0-9.176 7.393v2.55c0 4.694 1.311 6.505 4.653 6.505 2.593 0 3.947-.901 4.374-3.751 0 0 .045-.297.092-.297.046 0 .057.22.057.297v3.507h6.555V42.51c0-6.21-2.104-7.939-7.538-6.667Zm.983 19.85c0 1.96-.473 2.403-1.455 2.403-.918 0-1.698-.48-1.698-2.402v-2.221c0-1.761 1.711-2.439 3.153-2.957v5.178Zm-9.976 6.961V45.841c0-4.72-.72-7.724-3.825-6.986-2.412.573-3.716 2.179-4.12 6.04-.018.143-.134.177-.134 0v-4.814L13 41.437v21.221h5.834V48.805c0-2.39.442-3.382 1.23-3.606.891-.252 1.229.99 1.229 3.021v14.434h5.62Z" fill="#FF0"/></g></svg>