<svg xmlns="http://www.w3.org/2000/svg" viewBox="0 0 90 90"><path fill="#FFF" d="M0 0h90v90H0z"/><path d="M41.347 34.971c.05 0 .1-.01.14-.01a1.708 1.708 0 0 0 1.54-1.63v-.07a43.43 43.43 0 0 0-.82-8.57l-.22-1.11a4.553 4.553 0 0 0-1.93-2.9 4.5 4.5 0 0 0-3.42-.68 4.491 4.491 0 0 0-.52.13 25.652 25.652 0 0 0-17.2 24.72l.03.36c.062.465.281.896.62 1.22a1.956 1.956 0 0 1-2.7 2.83 5.963 5.963 0 0 1-1.81-3.62c0-.03-.01-.06-.01-.09l-.03-.46a.375.375 0 0 1-.01-.1 29.519 29.519 0 0 1 19.84-28.55.076.076 0 0 1 .04-.02c.33-.1.66-.19.99-.26a8.457 8.457 0 0 1 9.94 6.66l.22 1.11c.698 3.485.99 7.038.87 10.59v.14a4.462 4.462 0 0 1-4 4.22c-.1 0-.19.01-.29.01a.33.33 0 0 1-.14 0h-.04c-.43-.01-.86-.02-1.29-.01l-.99.09a.448.448 0 0 0-.11.01 15.11 15.11 0 0 0-12.7 22.36 15.242 15.242 0 0 0 6.86 6.43l.78.37a26 26 0 0 0 5.86 1.57 25.442 25.442 0 0 0 21.67-7.1l.27-.28a8.519 8.519 0 0 0 1.41-9.76l-.05-.12a25.816 25.816 0 0 0-12.18-11.36.142.142 0 0 1-.06-.02l-.12-.06a4.406 4.406 0 0 1-2.48-3.56 4.153 4.153 0 0 1 .05-1.22c0-.02.01-.05.01-.08l.02-.07a46.455 46.455 0 0 1 5.8-14.41.038.038 0 0 1 .02-.02l.08-.13a4.426 4.426 0 0 1 6.2-1.35l.07.05.09.06a29.506 29.506 0 0 1 12.4 25.17v.19a5.959 5.959 0 0 1-1.79 3.71 1.952 1.952 0 0 1-2.73-2.79c.338-.334.555-.77.62-1.24v-.01a25.814 25.814 0 0 0-.48-5.94 25.553 25.553 0 0 0-9.24-15.13l-.03-.02a1.7 1.7 0 0 0-2.46.49l-.03.04a42.614 42.614 0 0 0-4.48 11.21l-.01.05c-.03.168-.04.34-.03.51.057.57.395 1.072.9 1.34l.05.02a29.722 29.722 0 0 1 13.26 12.75c.01.01.01.02.02.03l.06.12a12.42 12.42 0 0 1-2.08 14.26l-.29.31-.03.03a29.312 29.312 0 0 1-20.66 8.51c-1.452 0-2.902-.103-4.34-.31a29.892 29.892 0 0 1-6.79-1.83.355.355 0 0 0-.09-.04l-.84-.39a19.114 19.114 0 0 1-8.63-8.1 18.806 18.806 0 0 1-2.15-11.88 19.005 19.005 0 0 1 18.08-16.27l1.01-.09a.615.615 0 0 1 .14-.01h.34Z" fill="#F6D755"/></svg>