<svg viewBox="0 0 90 90" xmlns="http://www.w3.org/2000/svg"><g fill="none"><path fill="#000" d="M0 0h90v90H0z"/><path d="M40.593 30.084h-3.109l-4.063 13.134H30l4.01-13.134h-3.222l.93-3.084h9.84zM42.964 27h9.977l-5.286 16.218h-9.793L42.964 27Zm-.713 13.145h2.994l3.24-10.062h-3.03L42.25 40.145Zm10.292 3.073h-3.398l4.567-13.93L56.964 27h7.087L59.95 39.102h-6.04l-1.367 4.116Zm5.031-7.223 1.98-5.91h-2.653l-1.962 5.91h2.635ZM40.416 62.218H31.5l1.73-5.047h3.418l-.685 1.974h2.116l.904-2.58-4.035-4.071L37.175 46h8.87l-1.704 4.821h-3.126l.604-1.73h-2.253l-.734 2.12 4.041 4.06zm8.299-9.558h2.95L54.078 46h3.462l-5.943 16.218H48.2l2.35-6.483h-2.938l-2.328 6.483h-3.398L47.644 46h3.463zM59.016 46h9.977l-6.156 16.218h-9.792L59.016 46Zm-1.415 13.145h2.994l3.78-10.062h-3.03l-3.744 10.062Zm21.542-10.061h-3.111L70.92 62.218H67.5l5.058-13.134h-3.223L70.514 46h9.84zM20.48 27h-7.962c-1.942.002-3.516 1.623-3.518 3.622v27.75c0 2.001 1.575 3.624 3.518 3.628h7.955c1.946-.002 3.523-1.625 3.527-3.628v-27.75c-.004-2-1.578-3.62-3.52-3.622" fill="#FFF"/><path d="m18.504 33.417.009.112c.242.146.365.264.61.427.65.42 1.45 1.168 1.348 3.744.182.565.263 1.667.43 2.021.339.69.565 1.14.658 1.791 0 0 .098 1.016.225 1.087.67.156.477.226.575.339.104.138.491.132.491.503.129.177.233.372.31.579V30.622c0-1.525-1.2-2.762-2.68-2.768h-2.573c.41.151.647.33.782.613.33.03.727.796.11 1.927.273.188.06.467-.136.79-.057.104-.12.29-.301.277-.234.505-.515.995-.73 1.027-.064.081-.109.299-.013.402.313.144.694.338.883.527m4.664 12.429c-.42 1.087-1.523 1.722-2.643 1.521-1.12-.2-1.95-1.183-1.987-2.353-.037-1.17.727-2.206 1.832-2.483-.277-.712-.86-1.866-1.034-2.245-.173-.38-.56-2.723-.645-3.188-.02-.102-1.034.607-1.036.65-.06.06-.768 1.947-.792 2.05-.01.105-.016.21-.015.316 0 0 .345.044.548.665.203.62.797 2.88.797 2.88-.052.06-.11.114-.17.163.758 2.612.493 3.736.833 4.5.427 1.08.548.939.91 1.846.262.66.555 3.26.657 3.375.41.534.63.951.63 1.253 0 .301-.347 1.198-.22 1.72.076.307.116.994.256 1.128 0 0 .127.258.064.372-.018.04-.055.1-.038.147.226.82.953 2.219-.226 2.951h.025c1.307-.214 2.265-1.38 2.254-2.742V45.846Z" fill="#C8102E"/><path d="M20.136 57.842c-.432-.398-.143-.565-.16-.723-.285-1.212-1.22-1.945-.736-2.345-.12-.4-.363-.902-.354-.902-1.457-.862-2.699-2.257-2.91-2.467-.255-.286-.69-.574-.767-.805-.35-.332-2.068-2.84-2.468-3.765l-.697-.101c-.317-1.334-1.376-2.451-1.402-3.79-.01-.505.22-1.589.309-1.805.09-.217.49-.58.49-.58v-.356c-1.52.044-1.083-.113-1.346-.724-.183-.421-.052-.514.014-.806.205-.863.883-2.194 1.163-2.799.086-.305.38-1.041.38-1.041 1.133-2.377 1.556-2.202 2.902-2.336l.067-.098c1.349-.06 1.128-.165 1.315-1.502-.197.087-.255-.42-.255-.42-.11-.76.205-.617.353-.632.031-1.252.155-1.645 1.032-1.99h-4.545c-.714 0-1.399.29-1.903.81a2.811 2.811 0 0 0-.788 1.96v27.747c0 .735.282 1.44.787 1.96.505.52 1.19.811 1.904.811h7.958c-.912-.505-.373-1.47-.343-3.301Z" fill="#1D428A"/><path d="M14.026 59.401v-5.024h.947c.548 0 .885.303.885 1.007v.744c0 .458-.135.69-.329.803.19.134.33.359.33.739v.732c0 .689-.36 1-.886 1h-.947Zm.65-2.181v1.548h.25c.219 0 .283-.12.283-.36v-.85c0-.247-.074-.34-.29-.34l-.243.002Zm0-2.21v1.66h.243c.229 0 .29-.084.29-.359v-.963c0-.233-.068-.339-.284-.339l-.25.001Zm2.711 3.37H16.8l-.083 1.017h-.657l.588-5.024h.935l.57 5.024h-.684l-.08-1.016Zm-.291-3.44h-.034c-.04.605-.122 1.667-.15 2.006l-.073.862h.508l-.075-.865c-.027-.345-.121-1.393-.176-2.005M12.092 59.4h-.571v-5.024h.9l.723 4.116c-.06-.984-.142-2.174-.142-3.187v-.929h.569V59.4h-.823l-.724-4.025c.047.929.068 1.668.068 2.442V59.4Z" fill="#FFF"/></g></svg>