<svg viewBox="0 0 90 90" xmlns="http://www.w3.org/2000/svg"><g fill="none"><path fill="#FFF" d="M0 0h90v90H0z"/><path fill="#000" d="m26.73 45.404-6.857-8.676v8.498h-2.41V31.505h1.197l6.673 8.273v-8.273h2.41v13.899h-1.021"/><path fill="#3A7F3D" d="M35.67 33.666v3.21h4.968v2.068H35.67v6.27h-2.507v-13.71h9.307v2.161h-6.799"/><path d="m47.902 44.457.926-2.18c.99.674 1.964 1.01 2.922 1.01 1.473 0 2.208-.498 2.208-1.497 0-.468-.173-.914-.52-1.338-.347-.425-1.064-.899-2.15-1.423-1.08-.53-1.81-.965-2.19-1.302a3.61 3.61 0 0 1-.868-1.217 3.91 3.91 0 0 1-.299-1.553c0-1.062.4-1.94 1.196-2.64.804-.698 1.833-1.048 3.086-1.048 1.633 0 2.832.297 3.597.89l-.762 2.097c-.881-.62-1.81-.918-2.787-.918-.579 0-1.038.15-1.35.45-.316.294-.473.677-.473 1.15 0 .787.897 1.604 2.69 2.453.945.45 1.626.865 2.045 1.245.418.374.736.813.954 1.32.219.499.32 1.057.32 1.675 0 1.111-.454 2.025-1.36 2.742-.901.718-2.11 1.085-3.627 1.085-1.317 0-2.506-.33-3.568-.992m23.242.938-6.856-8.676v8.498h-2.41V31.505h1.197l6.673 8.273v-8.273h2.41v13.899h-1.022" fill="#000"/><path d="M28.818 14.004 28.814 14h-.826C18.023 14 10 22.038 10 32.012v9.539l.003.35c.182 9.578 7.765 17.286 17.285 17.648l.268.007L44.144 80V59.09l17.815.472A17.974 17.974 0 0 0 80 41.55v-9.535l-.003-.351c-.186-9.81-8.14-17.66-17.985-17.66H28.818Zm-1.166 3.98h34.36c7.757 0 14 6.253 14 14.032v9.535c0 7.78-6.241 14.032-14 14.032l-21.856-.577V68.76L29.464 55.583h-1.476c-7.757 0-14-6.253-14-14.032v-9.54c0-7.666 6.061-13.85 13.664-14.028Z" fill="#3A7F3D"/></g></svg>