<svg viewBox="0 0 90 90" xmlns="http://www.w3.org/2000/svg"><g fill="none"><path fill="#2B2B27" d="M0 0h90v90H0z"/><path d="M67.446 48.865c4.573.473 7.5 1.363 7.5 2.308 0 .417-.139.5-.613.362-3.987-1.113-4.154-1.14-12.212-1.14-10.038.027-17.008.695-37.195 3.642-4.74.695-8.783 1.195-8.978 1.112-.697-.25-.084-.918.948-1.084.558-.084 4.74-.779 9.257-1.557 19.155-3.225 33.124-4.449 41.293-3.643Zm-35.438 8.341c1.004.14 2.454.445 3.234.695l1.45.417-.25 1.057c-.14.556-.252 1.501-.252 2.057 0 1.029-.027 1.057-.948 1.057-.948 0-.975-.028-1.059-1.168-.084-1.112-.14-1.195-1.338-1.668-1.757-.667-5.075-.64-6.58.028-.614.278-1.506.973-1.98 1.557-2.872 3.447-1.283 9.703 2.844 11.26 1.115.417 4.015.417 5.27 0 .975-.306 1.003-.362 1.003-1.807 0-1.613-.195-1.808-1.84-1.808-.864 0-.948-.083-.948-.806v-.834l3.346-.083 3.346-.084v.723c0 .417-.195.89-.418 1.084-.307.25-.419.918-.419 2.53v2.17l-1.45.416c-7.249 2.085-12.742.528-14.917-4.198-.557-1.196-.697-1.946-.697-3.726 0-1.974.112-2.502.893-4.031 1.923-3.892 6.134-5.644 11.71-4.838Zm20.494.473c.948.306 1.84.89 2.844 1.89 1.784 1.808 2.453 3.698 2.258 6.534-.474 6.367-6.552 10.26-13.021 8.313-1.422-.417-3.764-2.419-4.489-3.864-1.255-2.447-1.31-6.284-.112-8.758 1.896-4.004 7.361-5.783 12.52-4.115Zm11.85.361c0 .695-.112.807-.893.89-.641.056-.892.222-.836.5.223.974 3.792 10.01 3.96 10.01.25 0 3.903-9.287 3.903-9.87 0-.223-.251-.418-.53-.418-1.004 0-1.422-.333-1.422-1.112v-.806h6.134v.834c0 .612-.14.806-.53.806-.279 0-.641.167-.808.334-.28.362-5.633 13.29-6.107 14.819-.223.695-.418.834-1.226.917l-.948.056-3.04-7.701c-1.673-4.254-3.15-7.896-3.318-8.09-.139-.168-.557-.335-.92-.335-.557 0-.669-.139-.669-.806v-.806h7.249v.778ZM48.57 72.831c3.597.028 5.604-2.474 5.549-6.95-.028-1.585-.168-2.336-.781-3.559-1.06-2.169-2.398-3.003-4.99-3.114-1.256-.028-2.287.083-2.817.334-1.98.89-3.011 2.947-2.983 5.95.027 2.057.836 4.476 1.951 5.699.837.945 2.566 1.64 4.071 1.64Zm-32.009 1.585c.92.723 1.534.723 2.37.084.865-.723.865-2.17 0-2.892-.864-.695-1.589-.64-2.397.195-.92.89-.893 1.89.027 2.613Z" fill="#EAA21E"/><path d="m31.367 23.815 8.588 10.843.083-8.118c.028-4.476 0-8.397-.083-8.758-.14-.556-.307-.612-1.952-.612H36.19V13h11.432v4.17h-3.067v13.985c0 15.403.028 15.208-1.673 15.208-.725 0-1.756-1.167-10.288-11.705l-9.508-11.705v8.87c0 4.865.083 9.119.167 9.452.167.584.335.64 2.37.64h2.203v4.448H15.558v-4.448h3.067v-11.76c0-6.451-.084-12.012-.168-12.373-.167-.556-.362-.612-1.812-.612H15V13h7.779l8.588 10.815Zm43.859-10.342c-.028 1.028-.809 5.366-1.088 5.894-.669 1.195-2.593.917-3.43-.5-.613-1.085-2.286-1.419-7.054-1.419H59.89v8.342h2.482c1.338 0 3.234-.083 4.182-.167l1.701-.194v-3.28l2.035.082 2.008.084.084 5.338.055 5.366h-4.182v-2.78H59.89v4.56c0 2.502.084 5.143.196 5.866l.167 1.334 4.07-.167c4.992-.194 6.692-.611 8.086-1.974 1.227-1.195 2.538-1.362 3.207-.389.585.834.53 1.613-.363 4.393l-.752 2.363-11.767.084-11.766.055v-4.448h3.067v-11.76c0-6.451-.084-12.012-.167-12.373-.168-.556-.335-.612-1.952-.612h-1.784V13h12.547c11.766 0 12.547.028 12.547.473Z" fill="#FFF"/></g></svg>