<svg viewBox="0 0 90 90" xmlns="http://www.w3.org/2000/svg"><g fill="none" fill-rule="evenodd"><path fill="#FFF" fill-rule="nonzero" d="M0 0h90v90H0z"/><path d="M19 48.02c14.849.883 27.576-10.128 28.466-24.628.025-.43.05-.859.05-1.288-16.71-1.368-28.168 10.991-28.502 24.625l-.012.577-.002.713Z" fill="#62B9F9"/><path fill="#415AFF" d="M19 68h16.607V51.35H19zm32.273-45.513c0 .382-.025.765-.05 1.122a29.736 29.736 0 0 1-4.628 14.202v.127c4.857 0 8.799 3.952 8.799 8.823v21.214H72V47.5c0-12.239-8.723-22.744-20.727-25.013"/><path fill="#415AFF" d="M55.394 68H72V51.35H55.394z"/><path d="M19.661 41.673c1.586-.278 7.035-2.045 7.035-2.045s4.826-2.625 6.973-7.472a8.326 8.326 0 0 0-.329-7.58c-7.095 3.398-11.991 9.808-13.679 17.097" fill="#62B9F9"/><path d="M31.363 36.284c-5.147.17-10.21 2.32-10.896 2.62a25.21 25.21 0 0 0-1.453 7.825l-.013.577-.001.713c9.787.583 18.651-4.003 23.813-11.348-2.358.35-6.008-.568-11.45-.387" fill="#62B9F9"/></g></svg>