<svg viewBox="0 0 90 90" xmlns="http://www.w3.org/2000/svg"><g fill="none"><path fill="#000" d="M0 0h90v90H0z"/><path d="M27.252 45.921c.383 1.646.53 3.06.44 4.244h-2.046c.101-3.46-.924-5.298-3.077-5.512-1.927-.068-2.761 1.73-2.502 5.394h-2.302c-.18-4.532.603-7.108 2.35-7.729 1.748-.608 3.28-.575 4.6.102 1.308.677 2.153 1.844 2.537 3.501Zm9.199 1.437.558 1.336c-.62.812-1.584 1.353-2.892 1.623-1.307.248-2.655.152-4.043-.287-1.387-.44-2.109-1.522-2.164-3.247-.033-.992.064-1.82.289-2.486.124-.451.417-.795.879-1.032.45-.248 1.251-.45 2.4-.609a9.12 9.12 0 0 1 3.45.119c1.263.406 1.94 1.127 2.03 2.164.067 1.037-.102 1.635-.507 1.792h-6.629c.011 1.432.89 2.148 2.637 2.148 1.76.012 3.09-.495 3.992-1.52Zm-5.514-2.333h3.839c-.023-.846-.705-1.252-2.046-1.218-1.24.057-1.837.462-1.793 1.218ZM57.13 46.36c-.124 2.829-2.463 4.182-7.017 4.058l.168 2.976h-2.567V42.826h5.259c3.055.012 4.44 1.19 4.157 3.535Zm-2.637-.254c-.067-1.252-1.448-1.838-4.143-1.758l-.251 3.922c2.75.012 4.215-.71 4.394-2.164Zm-7.254.168v.017c0 1.15-.451 2.136-1.353 2.96-.913.81-2.006 1.217-3.28 1.217h-.694c-1.274 0-2.362-.406-3.264-1.218-.901-.82-1.352-1.806-1.352-2.959v-.017c0-1.161.417-2.085 1.251-2.773a5.94 5.94 0 0 1 1.796-1.03 7.625 7.625 0 0 1 1.877-.271 6.136 6.136 0 0 1 1.623.118c.78.17 1.501.536 2.098 1.066a3.691 3.691 0 0 1 1.3 2.891h-.002Zm-2.706-.203a1.27 1.27 0 0 0-.389-.93 1.24 1.24 0 0 0-.913-.371h-1.52a1.318 1.318 0 0 0-.896.371 1.27 1.27 0 0 0-.39.93v.778c-.001.345.14.676.39.913.236.243.558.383.896.39h.038c.113.01.236.028.372.05h.727a5.05 5.05 0 0 0 .389-.05c.346.006.678-.136.913-.39a1.25 1.25 0 0 0 .39-.913l-.007-.778Zm31.69-.033c-.621-.276-.937-.602-.947-.981 0-.366.27-.552.811-.558.543.003.865.235.967.693l1.572-.744c.011-.575-.293-1.014-.913-1.318a3.256 3.256 0 0 0-1.014-.322c-1.297-.282-2.334.011-3.112.879-.778.856-.857 1.657-.236 2.401.62.733 1.29 1.285 2.013 1.657.733.36.958.688.676.98-.293.294-.89.226-1.792-.202l-1.135.695c.234.597.905 1.048 2.013 1.352 1.107.304 2.054.017 2.84-.862.788-.883.85-1.645.186-2.285-.655-.637-1.298-1.098-1.928-1.384l-.002-.001Zm-5.835-1.184c.82 1.883.68 2.908-.423 3.076-.834.068-1.313-.378-1.437-1.336a22.929 22.929 0 0 1-.203-3.856h2.266v-1.721l-2.285.033.322-2.13-2.418.203.236 2.185-2.672-.187v1.827h2.808c-.282 3.19-.08 5.281.609 6.273.676.992 1.606 1.461 2.79 1.407 1.838-.034 2.78-.936 2.824-2.706 0-1.33-.254-2.418-.76-3.263l-1.657.195Zm-4.733 2.47.677 1.133c-.485.82-1.33 1.429-2.536 1.826-1.184.36-2.447.417-3.789.169-1.33-.26-2.113-1.168-2.35-2.725-.146-.913-.13-1.616.051-2.11.192-.507.468-.896.829-1.166.352-.282 1.034-.564 2.046-.846a8.474 8.474 0 0 1 3.164-.287c1.218.234 1.92.82 2.11 1.757.18.938.09 1.495-.271 1.67l-6.17.715c.168 1.308 1.07 1.871 2.704 1.691 1.635-.18 2.813-.79 3.535-1.827Zm-5.377-1.657c0 .051.006.102.017.152l3.534-.44c-.17-.676-.84-.924-2.013-.744-.992.158-1.504.502-1.538 1.032Zm-27.281-5.723 3.39-1.458 3.486 2.946-.77-3.42-.134-.572 3.01-1.832h-3.452l-.67-2.474-1.898 2.487H32.98l1.783 1.67-1.766 2.653ZM20.05 41.033l2.172-2.01 3.428 1.295-1.494-2.38-.252-.399 1.786-2.192-.21.075-2.4.85-1.17-1.69-.77 2.39-1.98.703-.272.097 1.795.785-.633 2.476Zm-6.71 2.36.761-2.23-.141.117-1.618 1.33-1.385-1.025.082 2.11-1.33 1.092-.187.154 1.613.135.217 2.14 1.112-2.188 3.018.096-1.834-1.484-.308-.248Z" fill="#FFF"/></g></svg>