<svg xmlns="http://www.w3.org/2000/svg" viewBox="0 0 90 90"><path fill="#fff" d="M0 0h90v90H0z"/><mask id="a" width="60" height="60" x="15" y="15" maskUnits="userSpaceOnUse" style="mask-type:luminance"><path fill="#fff" d="M75 15H15v60h60V15Z"/></mask><g mask="url(#a)"><path fill="#006EB4" d="M47 47h28v28L47 47Zm13.97 28V61H47l13.97 14Z"/><path fill="#32C8AA" d="M15 47v28h28V47H15Zm21 21H22V54h14v14Z"/><path fill="#3CA0F0" d="M58.97 43H47V31.03A11.98 11.98 0 0 1 58.97 43ZM47 15v12.04A15.97 15.97 0 0 1 62.97 43H75a28 28 0 0 0-28-28Z"/><path fill="#1E3264" d="M29 22a7 7 0 1 1-14 0 7 7 0 0 1 14 0Zm-7 7a7 7 0 1 0 0 14 7 7 0 0 0 0-14Zm14-14a7 7 0 1 0 0 14 7 7 0 0 0 0-14Zm0 14a7 7 0 1 0 0 14 7 7 0 0 0 0-14Z"/></g></svg>