<svg xmlns="http://www.w3.org/2000/svg" viewBox="0 0 90 90"><path fill="#FFF" d="M0 0h90v90H0z"/><path d="m36.973 34.132 16.068 9.272 4.686 2.671V22.95a25.404 25.404 0 0 1 10.941 12.277 25.331 25.331 0 0 1 1.116 16.39 25.382 25.382 0 0 1-9.178 13.64A25.48 25.48 0 0 1 44.98 70.43a25.922 25.922 0 0 1-5.021-.494v4.635c1.658.285 3.338.428 5.02.428a30.127 30.127 0 0 0 19.748-7.43 29.967 29.967 0 0 0 5.328-39.08A30.083 30.083 0 0 0 53.014 16.07v21.95l-12.225-7.04-3.883-2.232-4.7-2.672v5.385l4.7 2.672h.067Zm0 8.897 16.068 9.272 4.686 2.672V49.63l-4.686-2.672-16.068-9.272-4.7-2.672v5.411l4.7 2.672v-.067ZM53.04 55.79l-16.068-9.273-4.7-2.672v23.193a25.404 25.404 0 0 1-10.941-12.276 25.33 25.33 0 0 1-1.116-16.39 25.381 25.381 0 0 1 9.178-13.64 25.48 25.48 0 0 1 15.626-5.175c1.69 0 3.377.166 5.035.494v-4.622A29.82 29.82 0 0 0 45.02 15a30.127 30.127 0 0 0-19.747 7.43 30 30 0 0 0-9.998 18.544 29.966 29.966 0 0 0 4.67 20.535A30.084 30.084 0 0 0 36.986 73.93V51.954l16.068 9.272 4.687 2.672v-5.411l-4.687-2.672-.013-.027Z" fill="#3D65F6"/></svg>