<svg viewBox="0 0 90 90" xmlns="http://www.w3.org/2000/svg"><g fill="none"><path fill="#000" d="M0 0h90v90H0z"/><g fill="#FFF"><path d="m45 33.333-10.108 5.834L45 45l10.082-5.833z"/><path d="M45 56.64V45l10.082-5.833v11.64zm-10.108-5.833v-11.64L45 45v11.64zM71 29.974l-10.108 5.833v11.64L71 41.642zM60.892 65.807 71 60V48.333l-10.108 5.834zM45 63.36V75l10.082-5.833V57.526zm10.082-42.553L45 15l-10.108 5.807L45 26.641zm-26 3.36L19 29.974l10.082 5.833L39.19 30z"/><path d="m71 29.974-10.108-5.807-10.082 5.807 10.082 5.833zM19 60l10.082 5.807v-11.64L19 48.333zm26 3.36-10.108-5.834v11.64L45 75zM19 29.974l10.082 5.833v11.64L19 41.642z"/></g></g></svg>