<svg viewBox="0 0 90 90" xmlns="http://www.w3.org/2000/svg"><g fill="none"><path fill="#0084C2" d="M0 0h90v90H0z"/><path d="M42.455 5.337c-2.736.272-4.95.658-7.152 1.25C23.009 9.9 12.587 19.024 8.08 30.413c-1.17 2.95-1.896 5.835-2.362 9.4-.283 2.179-.34 6.55-.114 8.763.727 7.084 2.99 13.441 6.823 19.19 6.346 9.512 17.29 15.767 29.482 16.869 2.01.17 7.027.079 8.832-.171 2.017-.3 4.014-.724 5.978-1.271 5.862-1.695 12.05-5.472 16.476-10.084 5.835-6.063 9.4-12.852 11.114-21.127l.375-1.816v-5.052c0-4.768-.012-5.13-.261-6.471-2.032-11.162-8.004-20.457-16.994-26.507-5.245-3.52-10.967-5.676-17.494-6.585-1.18-.17-6.447-.317-7.481-.215Zm7.174 4.858c10.501 1.601 19.276 7.141 24.816 15.701 3.1 4.779 5.2 10.773 5.608 16.007l.068.942H59.767l-.023 7.009-.034 7.004L45.463 42.98 31.228 29.108h-6.654v13.623h-14.56l.078-.965c.102-1.42.579-4.007 1.022-5.62 2.168-7.878 6.558-14.405 12.874-19.162 4.821-3.632 11.089-6.152 16.937-6.822.59-.069 1.238-.148 1.419-.171.815-.113 6.184.038 7.285.204Zm-5.914 37.02 14.292 13.79h6.3v-13.62h15.701l-.068 1c-.103 1.43-.579 4.04-1.045 5.755-3.803 13.918-14.94 23.737-29.38 25.896-1.6.238-5.593.33-7.344.17a35.721 35.721 0 0 1-9.932-2.36c-10.456-4.121-18.107-12.703-21.118-23.704-.466-1.703-.942-4.314-1.044-5.756l-.069-.999H29.23v-7.052c0-3.904.045-7.015.102-6.981.057.034 6.527 6.268 14.383 13.861Z" fill="#FFF"/></g></svg>