<svg viewBox="0 0 90 90" xmlns="http://www.w3.org/2000/svg"><g fill="none"><path fill="#FFF" d="M0 0h90v90H0z"/><path d="M67.414 37v2.546h3.29V37h-3.29Zm0 3.21v13.396h3.29V40.211h-3.29ZM31.38 37.222v10.905c-.02.829.108 1.654.377 2.436a5.08 5.08 0 0 0 1.08 1.827c.498.497 1.11.858 1.78 1.051a6.009 6.009 0 0 0 2.48.166v-3.044a2.298 2.298 0 0 1-1.833-.498 2.659 2.659 0 0 1-.594-1.938v-4.65h2.32v-2.989h-2.32v-3.32h-3.29v.054Zm-20.66 2.99a6.49 6.49 0 0 0-2.374.442 5.145 5.145 0 0 0-1.78 1.218 6.514 6.514 0 0 0-1.187 1.882A6.562 6.562 0 0 0 5 46.078v7.584h3.29v-7.695a2.498 2.498 0 0 1 .702-1.826 2.545 2.545 0 0 1 1.78-.665c.447-.011.89.084 1.295.277.281.162.522.39.701.665.154.255.263.536.324.83.04.219.059.441.054.664v7.639h3.29v-7.473a8.127 8.127 0 0 0-.377-2.38 4.516 4.516 0 0 0-1.133-1.827 4.493 4.493 0 0 0-1.78-1.218 6.569 6.569 0 0 0-2.428-.442Zm13.323 0a5.51 5.51 0 0 0-2.535.553 5.685 5.685 0 0 0-2.104 1.495 6.157 6.157 0 0 0-1.402 2.214 7.513 7.513 0 0 0 0 5.314A7.29 7.29 0 0 0 19.404 52a6.249 6.249 0 0 0 2.104 1.44 6.523 6.523 0 0 0 2.535.553 6.267 6.267 0 0 0 3.992-1.218 6.097 6.097 0 0 0 2.158-3.266h-3.506c-.236.53-.66.946-1.187 1.163a3.851 3.851 0 0 1-3.129 0 3.664 3.664 0 0 1-1.187-1.052l9.009-3.875a7.32 7.32 0 0 0-.81-2.325 7.155 7.155 0 0 0-1.402-1.716 4.915 4.915 0 0 0-1.888-1.052 4.681 4.681 0 0 0-2.05-.442Zm0 2.989c.498 0 .992.095 1.457.276.425.2.796.504 1.079.886l-5.988 2.602a4.917 4.917 0 0 1 .27-1.55c.188-.428.443-.82.755-1.163.3-.336.668-.601 1.079-.775a2.818 2.818 0 0 1 1.348-.276Zm40.836-2.99a5.918 5.918 0 0 0-1.726.222 4.946 4.946 0 0 0-2.104 1.162 4.981 4.981 0 0 0-1.349 1.938 6.47 6.47 0 0 0-.431 2.546v7.584h3.29v-7.584a2.678 2.678 0 0 1 .917-2.159 3.17 3.17 0 0 1 2.536-.498v-3.155c-.378 0-.755-.055-1.133-.055Zm6.959.277 4.423 6.366-4.64 6.809h3.993l2.643-4.097 2.59 4.097H85l-4.747-6.92 4.37-6.255H80.63l-2.374 3.654-2.266-3.654h-4.153Zm-33.5.056v7.528c-.02.81.109 1.618.378 2.38.26.694.644 1.333 1.133 1.882a6.01 6.01 0 0 0 1.78 1.218 6.49 6.49 0 0 0 2.374.443c.8.012 1.592-.158 2.32-.498a4.87 4.87 0 0 0 1.78-1.384 6.007 6.007 0 0 0 1.726 1.384 5.367 5.367 0 0 0 2.373.498 6.712 6.712 0 0 0 2.374-.443 6.033 6.033 0 0 0 1.78-1.218 6.136 6.136 0 0 0 1.187-1.882c.282-.74.429-1.53.431-2.325v-7.583h-3.29v7.639a2.498 2.498 0 0 1-.702 1.826 2.455 2.455 0 0 1-1.78.665 2.829 2.829 0 0 1-1.295-.277 1.635 1.635 0 0 1-.7-.664 2.647 2.647 0 0 1-.324-.83 3.491 3.491 0 0 1-.054-.72v-7.64h-3.291v7.64a2.41 2.41 0 0 1-.695 1.818 2.286 2.286 0 0 1-1.786.673 2.44 2.44 0 0 1-1.241-.277 1.635 1.635 0 0 1-.701-.664 2.647 2.647 0 0 1-.324-.83 3.491 3.491 0 0 1-.054-.72v-7.64h-3.398Z" fill="#D9272D"/></g></svg>