<svg viewBox="0 0 90 90" xmlns="http://www.w3.org/2000/svg"><g fill="none" fill-rule="evenodd"><path fill="#14192F" d="M0 0h90v90H0z"/><g fill="#2FE1B9" fill-rule="nonzero"><path d="M27.161 26.51h21.766c.224 0 .673.225.673.676v25.932c0 .676.449 1.127 1.122 1.127h2.244c.673 0 1.122-.45 1.122-1.127v-29.99c0-.677-.449-1.128-1.122-1.128H23.122c-.673 0-1.122.451-1.122 1.127v43.746c0 .676.449 1.127 1.122 1.127h6.956c.673 0 1.122-.451 1.122-1.127v-2.255c0-.677-.449-1.128-1.122-1.128h-2.917c-.224 0-.673-.225-.673-.676V27.186c.224-.45.449-.676.673-.676Z"/><path d="M59.922 22c-.673 0-1.122.451-1.122 1.127v2.255c0 .677.449 1.128 1.122 1.128h2.917c.224 0 .673.225.673.676V63.04c0 .226-.224.677-.673.677H41.073c-.224 0-.673-.226-.673-.677V36.882c0-.676-.449-1.127-1.122-1.127h-2.244c-.673 0-1.122.45-1.122 1.127v29.99c0 .677.449 1.128 1.122 1.128h29.844c.673 0 1.122-.451 1.122-1.127V23.127c0-.676-.449-1.127-1.122-1.127h-6.956Z"/></g></g></svg>