<svg viewBox="0 0 90 90" xmlns="http://www.w3.org/2000/svg"><g fill="none" fill-rule="evenodd"><circle stroke="#324C75" stroke-width="4" fill="#FFF" cx="45" cy="45" r="43"/><path d="M55.17 20.5 63.541 35H69a5 5 0 0 1 2.61 9.266l-4.06 15.733A8 8 0 0 1 59.802 66H31.198a8 8 0 0 1-7.747-6.001l-3.927-15.22A5.002 5.002 0 0 1 21 35l5.458-.001L34.83 20.5c1.181-2.046 3.496-2.921 5.17-1.954 1.674.966 2.073 3.408.892 5.454l-6.35 11h20.915l-6.35-11c-1.18-2.046-.781-4.488.893-5.454 1.674-.967 3.989-.092 5.17 1.954ZM33.792 47.632a3 3 0 0 0-5.796 1.553l2.33 8.694a3 3 0 0 0 5.795-1.553Zm26.09-2.12a3 3 0 0 0-3.674 2.12l-2.33 8.694a3 3 0 1 0 5.796 1.553l2.33-8.694a3 3 0 0 0-2.122-3.674ZM45 45a3 3 0 0 0-3 3v9a3 3 0 0 0 6 0v-9a3 3 0 0 0-3-3Z" fill="#324C75"/></g></svg>