<svg viewBox="0 0 90 90" xmlns="http://www.w3.org/2000/svg"><path d="M47.504 89.96c3.674-.168 7.496-.856 11.115-2.003a41.216 41.216 0 0 0 12.227-6.264c.91-.682 1.31-1.004 2.398-1.913.658-.56 3.135-3.007 3.783-3.743 2.2-2.512 3.836-4.83 5.527-7.837.208-.366.376-.712.376-.766 0-.164-.924-.9-2.2-1.76-2.462-1.662-5.375-2.868-8.089-3.348-1.36-.242-1.587-.262-3.135-.287-1.66-.03-2.284.01-3.466.213-2.828.48-5.28 1.572-7.718 3.441-1.518 1.162-2.462 1.775-3.817 2.458a20.828 20.828 0 0 1-7.05 2.11c-1.098.124-2.972.144-4.054.05-2.695-.247-5.202-.95-7.496-2.106-2.428-1.221-4.44-2.769-6.418-4.934-1.879-2.057-3.545-4.762-4.667-7.575-1.295-3.258-1.884-6.2-2.042-10.235-.04-1.073.099-3.17.306-4.598.614-4.212 2.077-8.069 4.337-11.441.375-.569 1.162-1.632 1.354-1.834.05-.055.287-.332.53-.618 1.171-1.38 2.926-2.913 4.553-3.97a20.717 20.717 0 0 1 8.267-3.125c1.246-.183 2.72-.243 4.316-.174 2.581.11 5.548.905 7.99 2.141 1.38.702 2.458 1.4 4.183 2.715.925.702 1.469 1.048 2.462 1.562 2.349 1.221 4.702 1.815 7.565 1.923 1.765.065 4.208-.262 6.002-.805 2.947-.89 5.36-2.166 7.793-4.119.455-.36.544-.445.544-.5 0-.039-1.152-2.046-1.504-2.62A42.603 42.603 0 0 0 71.311 8.691a36.253 36.253 0 0 0-1.137-.846c-.203-.138-.613-.425-.915-.628-2.195-1.513-5.266-3.135-7.886-4.163-1.004-.395-3.505-1.231-4.376-1.463C53.512.656 50.52.21 46.491.023c-.895-.044-3.298-.02-3.456.03-.04.015-.564.054-1.162.094a48.512 48.512 0 0 0-4.188.494c-6.245 1.039-12.237 3.486-17.25 7.05-2.161 1.538-3.664 2.81-5.514 4.663a41.522 41.522 0 0 0-5.394 6.616c-1.903 2.907-3.189 5.453-4.588 9.092-.252.653-.682 1.973-.95 2.912a63.487 63.487 0 0 1-.34 1.187c-.317 1.048-.935 4.02-1.113 5.365a80.117 80.117 0 0 0-.485 5.068c-.064.939-.069 3.362-.01 4.474.124 2.25.396 4.86.673 6.403.07.396.143.83.168.964.084.51.41 2.007.598 2.769 1.044 4.183 2.744 8.38 4.83 11.916 3.803 6.447 9.059 11.683 15.363 15.292 4.84 2.779 10.467 4.623 16.049 5.27 1.76.204 2.111.233 3.011.273 1.3.06 3.55.06 4.771.005Zm39.767-34.521c.074-.094.45-2.047.603-3.155.347-2.511.45-4.098.446-7.045 0-3.654-.218-6.017-.846-9.127a41.102 41.102 0 0 1-.277-1.414c-.02-.104-.06-.164-.129-.183-.059-.015-11.282-.03-24.939-.03-19.811 0-24.835.015-24.87.064-.039.064-.083 20.781-.039 20.89.015.044 5.063.06 25.008.06 19.936 0 25.004-.016 25.043-.06Z" fill="#2AAAE0"/></svg>