<svg xmlns="http://www.w3.org/2000/svg" viewBox="0 0 90 90"><defs><linearGradient id="a" x1="100%" x2="0%" y1="64.04%" y2="64.04%"><stop offset="0%" stop-color="#0099EA"/><stop offset="100%" stop-color="#0088D6"/></linearGradient></defs><path fill="url(#a)" d="M0 0h90v90H0z"/><path fill="#FFF" d="M71.05 40.43c2.53 0 4.52 2 4.52 4.57a4.5 4.5 0 01-4.52 4.57A4.5 4.5 0 0166.52 45a4.5 4.5 0 014.53-4.57m-52.1 0c2.54 0 4.53 2 4.53 4.57a4.5 4.5 0 01-4.53 4.57A4.5 4.5 0 0114.43 45a4.5 4.5 0 014.52-4.57m26.1-5.94a10.42 10.42 0 0110.42 10.5 10.42 10.42 0 11-20.83 0 10.41 10.41 0 0110.42-10.5m0-6.49a16.92 16.92 0 00-16.19 12.36 10.99 10.99 0 00-9.92-6.41 11.05 11.05 0 000 22.1 11 11 0 009.92-6.41A16.92 16.92 0 0045.06 62c7.61 0 14.08-5.17 16.14-12.2a10.99 10.99 0 009.85 6.26 11.06 11.06 0 000-22.11c-4.31 0-8.06 2.56-9.85 6.25A16.93 16.93 0 0045.06 28"/></svg>