<svg viewBox="0 0 90 90" xmlns="http://www.w3.org/2000/svg"><g fill="none" fill-rule="evenodd"><path fill="#FF9B00" fill-rule="nonzero" d="M0 0h90v90H0z"/><path d="M34.845 20.002c.174 0 .337.084.44.226l16.212 22.636a101.194 101.194 0 0 1 4.657 7.168 100.355 100.355 0 0 1-.24-6.295V20.55c0-.303.245-.55.543-.55h11c.298 0 .543.247.543.55v48.902a.548.548 0 0 1-.543.548H56.264a.543.543 0 0 1-.44-.226l-17.6-24.505a94.858 94.858 0 0 1-4.302-6.418 96.15 96.15 0 0 1 .162 5.355v25.246a.548.548 0 0 1-.543.548H22.539a.546.546 0 0 1-.539-.548V20.55c0-.303.243-.55.541-.55l12.304.002Z" fill="#FFF"/></g></svg>