<svg xmlns="http://www.w3.org/2000/svg" viewBox="0 0 90 90"  fill-rule="evenodd"><path fill="#fff" opacity="0" d="M0 0h90v90H0z"/><g fill="#00b0ff" fill-rule="nonzero"><ellipse cx="44.992" cy="44.987" rx="11.086" ry="10.838"/><path d="M34.699 7.881c2.239-5.579 8.656-8.302 14.362-6.14 5.707 2.189 8.492 8.462 6.28 14.041-2.239 5.579-8.656 8.302-14.362 6.14-5.707-2.189-8.519-8.489-6.28-14.041zM10.861 25.873c-2.457-5.472.109-11.852 5.707-14.255s12.123.107 14.581 5.579-.109 11.852-5.707 14.255-12.123-.107-14.581-5.579zM7.039 55.077c-5.707-2.189-8.492-8.462-6.28-14.041 2.239-5.579 8.656-8.302 14.362-6.14 5.707 2.189 8.492 8.462 6.28 14.041-2.239 5.579-8.683 8.329-14.362 6.14zm18.404 23.278c-5.598 2.403-12.123-.107-14.581-5.579s.109-11.852 5.707-14.255 12.123.107 14.581 5.579c2.457 5.499-.109 11.879-5.707 14.255zm29.844 3.764c-2.239 5.579-8.656 8.302-14.362 6.14-5.707-2.189-8.492-8.462-6.28-14.041 2.239-5.579 8.656-8.302 14.362-6.14 5.734 2.189 8.519 8.462 6.28 14.041zm23.837-17.992c2.457 5.472-.109 11.852-5.734 14.255-5.598 2.403-12.123-.107-14.581-5.606-2.457-5.472.109-11.852 5.707-14.255 5.625-2.376 12.178.133 14.608 5.606zm3.85-29.204c5.707 2.189 8.492 8.462 6.253 14.041s-8.656 8.302-14.362 6.113-8.492-8.462-6.28-14.041c2.266-5.552 8.683-8.302 14.39-6.113zM64.57 11.618c5.598-2.403 12.123.107 14.581 5.606 2.457 5.472-.109 11.852-5.734 14.255-5.598 2.403-12.123-.107-14.581-5.606-2.43-5.472.137-11.852 5.734-14.255z"/></g></svg>