<svg viewBox="0 0 90 90" xmlns="http://www.w3.org/2000/svg"><defs><linearGradient x1="0%" y1="0%" x2="100%" y2="100%" id="a"><stop stop-color="#00F9BC" offset="0%"/><stop stop-color="#00D9FE" offset="100%"/></linearGradient></defs><g fill="none" fill-rule="evenodd"><path fill="url(#a)" fill-rule="nonzero" d="M0 0h90v90H0z"/><g fill="#FFF"><path d="M51.727 17.62H38.273c-5.588 0-9.414.008-12.284.392-2.766.37-4.094 1.029-5.01 1.94-.915.912-1.577 2.234-1.949 4.987-.386 2.858-.394 6.666-.394 12.229v14.664c0 5.563.008 9.371.394 12.229.372 2.752 1.034 4.075 1.95 4.986.915.912 2.243 1.571 5.009 1.941 2.87.384 6.696.392 12.284.392h13.454c5.589 0 9.414-.008 12.284-.392 2.766-.37 4.094-1.029 5.01-1.94.915-.912 1.577-2.235 1.95-4.987.385-2.858.393-6.666.393-12.229V37.168c0-5.563-.008-9.371-.394-12.229-.372-2.753-1.034-4.075-1.95-4.986-.915-.912-2.243-1.571-5.009-1.941-2.87-.384-6.695-.392-12.284-.392Zm-33.319-.227C15 20.786 15 26.246 15 37.168v14.664c0 10.922 0 16.382 3.408 19.775C21.816 75 27.302 75 38.273 75h13.454c10.971 0 16.457 0 19.865-3.393C75 68.214 75 62.754 75 51.832V37.168c0-10.922 0-16.382-3.408-19.775C68.184 14 62.698 14 51.727 14H38.273c-10.971 0-16.457 0-19.865 3.393Z"/><path fill-rule="nonzero" d="M51.935 29.982v21.505l-13.89-21.505H31.91v30.534h5.565V38.75l14.153 21.766H57.5V29.982z"/></g></g></svg>