<svg viewBox="0 0 90 90" xmlns="http://www.w3.org/2000/svg"><defs><linearGradient x1="100.929%" y1="48.399%" x2="-.923%" y2="51.608%" id="a"><stop stop-color="#9EFF9F" offset="14.46%"/><stop stop-color="#85F2A4" offset="39.26%"/><stop stop-color="#5CDDAD" offset="82.91%"/></linearGradient><linearGradient x1="49.994%" y1="100.003%" x2="49.994%" y2=".016%" id="b"><stop stop-color="#DAFF9F" offset="14.46%"/><stop stop-color="#5CDDAD" offset="91.22%"/></linearGradient><linearGradient x1="88.491%" y1="40.856%" x2="11.509%" y2="59.145%" id="c"><stop stop-color="#DAFF9F" offset="14.46%"/><stop stop-color="#5CDDAD" offset="91.22%"/></linearGradient><linearGradient x1="49.983%" y1="100.002%" x2="49.983%" y2="0%" id="d"><stop stop-color="#DAFF9F" offset="14.46%"/><stop stop-color="#5CDDAD" offset="91.22%"/></linearGradient></defs><g fill="none"><path fill="url(#a)" d="m68.422 12.902-7.098 6.084L35.82 40.859l-7.625 6.528-16.09 13.782-9.539-11.133 19.11-16.389 2.98-2.555L54.744 5.318l4.139-3.56z" transform="translate(10 14)"/><path d="M63.652 62.938a7.337 7.337 0 0 1-7.335-7.335V31.868a7.337 7.337 0 0 1 7.335-7.336 7.33 7.33 0 0 1 7.336 7.336v23.735a7.337 7.337 0 0 1-7.336 7.335Z" fill="url(#b)" transform="translate(10 14)"/><path d="m45.82 54.859-7.625 6.528c-.27-2.11-1.47-9.105-6.509-13.74l2.97-2.555 11.164 9.767Z" fill="#1D245E" opacity=".13"/><path d="M63.652 62.938a7.298 7.298 0 0 1-4.77-1.769L2.567 12.902A7.32 7.32 0 0 1 1.77 2.566C4.397-.517 9.033-.869 12.106 1.769l56.316 48.278c3.073 2.638 3.435 7.263.797 10.336a7.33 7.33 0 0 1-5.567 2.555Z" fill="url(#c)" transform="translate(10 14)"/><path d="M7.336 62.938A7.33 7.33 0 0 1 0 55.603V7.336A7.33 7.33 0 0 1 7.336 0a7.33 7.33 0 0 1 7.335 7.336v48.277c0 4.046-3.29 7.325-7.335 7.325Z" fill="url(#d)" transform="translate(10 14)"/><path d="M73.652 28.692a7.337 7.337 0 0 1-7.335-7.336v-.03A7.328 7.328 0 0 1 73.652 14a7.33 7.33 0 0 1 7.336 7.336v.03c0 4.046-3.29 7.326-7.336 7.326Z" fill="#5CDDAD"/></g></svg>