<svg xmlns="http://www.w3.org/2000/svg" viewBox="0 0 90 90"><g clip-path="url(#a)"><path fill="#0085CA" d="M85.34 25.07c-6.4 9.64-17.03 23.1-29.42 27.6l-1.53.64c.3.13.61.23.94.28h1.46c3.13-.13 7.66-1.45 8.58 1.74a37.16 37.16 0 0 0-17.94 4.76c-5.6 3.08-12.7 5.85-17.35 1.54 3.72-.5 10.59-2.75 13.01-4.95-19.68-.27-28.42-12.53-34.58-19.23-2.21-2.57-4.48-4.72-6.8-4.94a45 45 0 1 0 83.6-7.44h.03Z"/><path fill="#fff" d="M8.51 37.42c6.08 6.7 14.87 18.95 34.57 19.23-2.43 2.19-9.3 4.44-13.02 4.95 4.64 4.34 11.79 1.64 17.37-1.53a37.05 37.05 0 0 1 17.87-4.7c-.84-3.2-5.43-1.86-8.56-1.76h-1.46a3.2 3.2 0 0 1-.94-.28l1.53-.63c12.36-4.61 23-17.99 29.42-27.7a43.26 43.26 0 0 0-4.6-7.3C69.13 19.8 65.38 36.77 58.8 45.17c-8.7 12.26-17.02 9.55-25.86 1.37-8.85-8.17-15.38-22.69-24.7-27.64a45.07 45.07 0 0 0-6.56 13.6c2.38.23 4.66 2.38 6.83 4.92Z"/><path fill="#003087" d="M32.96 46.53c8.78 8.18 17.16 10.85 25.88-1.38 6.63-8.4 10.34-25.36 21.9-27.48A45 45 0 0 0 8.26 18.9c9.35 4.96 15.9 19.6 24.69 27.64Z"/><path fill="#fff" d="M32.17 29.19h2.36v-9.43a2.5 2.5 0 0 0-2.74-2.27h-4.86v11.7h2.37v-9.43h2.16c.47 0 .72.32.72.85l-.01 8.58Zm13.68 0v-9.43a2.52 2.52 0 0 1 2.36-2.27h2.93a2.27 2.27 0 0 1 2.37 2.18v9.52h-2.37v-4.4h-2.93v4.4h-2.36Zm5.3-8.51a.84.84 0 0 0-.84-.86H49.1a.88.88 0 0 0-.8.86v1.92h2.9l-.06-1.92Zm4.16 8.51v-9.43a2.53 2.53 0 0 1 2.44-2.27h2.82a2.27 2.27 0 0 1 2.36 2.18v9.52h-2.36v-4.4h-2.88v4.4H55.3Zm5.26-8.51a.84.84 0 0 0-.83-.86h-1.22a.86.86 0 0 0-.77.86v1.92h2.82v-1.92Zm-18.95-3.19h-2.9a2.35 2.35 0 0 0-2.37 2.25v7.3a2.66 2.66 0 0 0 2.37 2.15h2.9A2.72 2.72 0 0 0 43.98 27v-7.3a2.3 2.3 0 0 0-2.35-2.25l-.01.04Zm0 8.76a.77.77 0 0 1-.77.76H39.5a.76.76 0 0 1-.78-.75v-5.8a.77.77 0 0 1 .77-.76h1.35a.77.77 0 0 1 .78.74v5.8Z"/></g><defs><clipPath id="a"><path fill="#fff" d="M0 0h90v90H0z"/></clipPath></defs></svg>