<svg viewBox="0 0 90 90" xmlns="http://www.w3.org/2000/svg"><g fill="none"><path fill="#0EA7E7" d="M6 22.57 45.14 0 84 22.57v44.86L45.14 90 6 67.43z"/><path fill="#FFF" d="M64.289 23.135v11.003l9.292 5.36-7.884 4.515-9.293-5.361V27.649z"/><path d="M65.415 33.292V23.135l9.011 5.078V38.37l-9.01-5.078ZM25.993 23.135v11.003l-9.574 5.36 7.884 4.515 9.574-5.361V27.649l-7.884-4.514Z" fill="#FFF"/><path d="M24.585 33.292V23.135l-8.73 5.078V38.37l8.73-5.078ZM45.14 67.147l9.292 5.36V63.48l-9.292-5.36-9.574 5.36v9.028l9.574-5.36Z" fill="#FFF"/><path d="m45.14 68.84-9.01 5.078 9.01 5.079 8.73-5.079-8.73-5.078Zm.564-24.263 28.722 16.646v-9.875L54.433 39.781V16.646l-8.729-5.079v33.01Zm-1.408 0v-33.01l-8.73 5.079V39.78l-19.71 11.567v9.875l28.44-16.646Zm.845 1.41L16.419 62.351l8.729 5.078 19.993-11.567L64.852 67.43l9.01-5.078-28.721-16.364Z" fill="#FFF"/></g></svg>