<svg viewBox="0 0 90 90" xmlns="http://www.w3.org/2000/svg"><g transform="matrix(1 0 0 -1 0 82)" fill="#015ABE" fill-rule="evenodd"><circle cx="32.75" cy="32.75" r="32.75"/><path d="M63.467 43c.947 3.952 3.644 6.383 8.093 7.291 4.449.91 9.778-.359 15.987-3.803 4.988 15.383 1.884 24.701-9.314 27.955-7.966 2.315-13.487-1.435-18.68-4.925l-.575-.387c-1.723-1.154-3.419-2.253-5.165-3.063C49.027 63.848 43.756 63.158 38 64V43h25.467ZM5 50l14.75 12.107c-1.032 1.164-1.772 2.245-2.22 3.243-.448.998-.932 2.645-1.453 4.941-.643-1.027-1.128-1.925-1.456-2.692-.327-.768-.746-1.993-1.257-3.674-.463 1.296-.793 2.28-.99 2.95a41.608 41.608 0 0 0-.658 2.678 13.833 13.833 0 0 1-1.381-2.409c-.341-.78-.767-2.011-1.28-3.69a18.22 18.22 0 0 0-.941 2.05 38.19 38.19 0 0 0-.523 1.47l-.182.55c-.127.385-.264.808-.41 1.27-1.499-2.558-2.376-5.038-2.631-7.442C4.112 58.95 4.323 55.165 5 50Zm68.674-16.886c-.994 1.394-2.292 2.579-3.895 3.554-1.602.975-3.529 1.65-5.779 2.023v-5.273c1.395.453 2.66.649 3.797.587 1.136-.062 3.095-.359 5.877-.891Zm-.988-14.365c3.498 1.835 6.05 4.791 7.656 8.867-3.173-.957-5.724-1.517-7.656-1.681-1.932-.164-4.742.181-8.43 1.034l-3.264-10.042c4.298-.62 8.196-.014 11.694 1.822Z"/></g></svg>