<svg viewBox="0 0 90 90" xmlns="http://www.w3.org/2000/svg"><g fill="none"><path fill="#0EFEA8" d="M0 0h90v90H0z"/><path fill="#03452E" d="M20.451 57.969v-3.677h-3.725v-3.678H13V32.228h3.726V28.55h3.725v-3.676h40.984v3.677h3.725v3.678h3.726v18.385H65.16v3.678h-3.724v3.677H42.805V69h-3.726v-3.676h-3.726v-3.677h-3.725V57.97H20.451z"/><path d="M28.1 47.509h-2.48v-1.227h-1.238v-2.445h-1.241v-4.831h1.24v-2.447h1.239v-1.22h2.478v-1.227h5.403v1.226h2.479v1.221h1.238v2.447h1.24v4.83H37.22v2.447h-1.24v1.227h-2.478v1.22h-5.403v-1.22l.001-.001Zm2.7-2.227c2.226 0 3.845-1.727 3.845-3.861 0-2.13-1.62-3.857-3.844-3.857-2.226 0-3.845 1.727-3.845 3.857 0 2.134 1.62 3.86 3.845 3.86Zm17.583 2.23h-2.479v-1.227h-1.238V43.84h-1.24v-4.833h1.24v-2.446h1.238v-1.22h2.48v-1.226h5.402v1.227h2.478v1.22h1.24v2.446h1.24v4.832h-1.24v2.447h-1.24v1.226h-2.478v1.22h-5.403v-1.222Zm2.701-2.227c2.226 0 3.846-1.726 3.846-3.862 0-2.13-1.62-3.856-3.846-3.856-2.225 0-3.844 1.726-3.844 3.856 0 2.135 1.62 3.862 3.844 3.862Z" fill="#F3FFFB"/><path d="m81.76 22.136-7.782 4.434 1.239 2.12L83 24.255l-1.24-2.12ZM71.056 19l-1.757 4.763 2.33.836 1.756-4.763-2.33-.836h.001Zm4.72 12.652-.43 2.41 6.322 1.1.431-2.41-6.321-1.1h-.001Z" fill="#03452E"/></g></svg>