<svg width="90" height="90" viewBox="0 0 90 90" xmlns="http://www.w3.org/2000/svg"><g fill="none" fill-rule="evenodd"><rect fill="#FFF" opacity="0" width="90" height="90"/><path d="M43.8399447,82.9844738 C43.4584799,82.9745934 43.0700028,82.9600082 42.685733,82.940718 C42.3014632,82.9214278 41.9209333,82.8969622 41.5390009,82.8673212 C41.1570686,82.8376802 40.7765387,82.8038048 40.4002161,82.7652244 C40.0238935,82.7266441 39.6428961,82.6828883 39.2698459,82.6348981 C38.8967957,82.5869079 38.5218755,82.5342128 38.1478904,82.4763423 C37.7739052,82.4184718 37.4031924,82.3568373 37.0352845,82.2881455 C36.6673765,82.2194536 36.2975987,82.1502913 35.9320282,82.0750125 C35.5664577,81.9997338 35.2004197,81.9192797 34.8381216,81.8345911 C34.4758234,81.7499025 34.1135253,81.6609795 33.7544995,81.5678221 C33.3954737,81.4746646 33.035513,81.3763318 32.6792921,81.2747055 C32.3230712,81.1730792 31.9677853,81.065807 31.6171742,80.9557118 C31.2665631,80.8456167 30.915952,80.7303461 30.5658084,80.6113116 C30.2156648,80.4922771 29.870196,80.3690082 29.5261296,80.2419753 C29.1820633,80.1149425 28.8384644,79.9832047 28.4976704,79.8477029 C28.1568764,79.7122012 27.8160824,79.5715241 27.4818332,79.428965 C27.1475839,79.2864059 26.8091273,79.1367894 26.4786179,78.9862319 C26.1481085,78.8356744 25.8152617,78.6790006 25.4884922,78.5199742 C25.1617226,78.3609479 24.8340181,78.1967462 24.5114559,78.030192 C24.1888937,77.8636378 23.8653965,77.6914377 23.5479766,77.5173556 C23.2305567,77.3432735 22.9117343,77.1635455 22.5985217,76.9824061 C22.2853091,76.8012666 21.9720966,76.6140108 21.6635588,76.4248729 C21.355021,76.2357351 21.0469507,76.0414219 20.7430878,75.8452267 C20.4392248,75.6490315 20.1353619,75.4471904 19.8375762,75.2439378 C19.5397905,75.0406852 19.2415373,74.8322572 18.9493614,74.6210062 C18.6571854,74.4097553 18.3640746,74.1975633 18.075171,73.9778435 C17.7862675,73.7581237 17.5001688,73.5384039 17.216875,73.3139792 C16.9335813,73.0895545 16.6521574,72.8604248 16.3754084,72.6298837 C16.0986594,72.3993425 15.8214429,72.1631555 15.5503036,71.9241455 C15.2791644,71.6851355 15.0070901,71.4437731 14.7424956,71.2009992 C14.4779011,70.9582253 14.2109692,70.707453 13.9519845,70.4585626 C13.6929997,70.2096723 13.4326125,69.9527836 13.1797051,69.6977769 C12.9267976,69.4427702 12.6734226,69.1802356 12.42519,68.9181715 C12.1769573,68.6561074 11.9305946,68.3883974 11.6893741,68.1206874 C11.4481537,67.8529774 11.2074008,67.579151 10.9727251,67.3057951 C10.7380494,67.0324392 10.5019712,66.7510849 10.2752427,66.4734946 C10.0485142,66.1959042 9.81898079,65.9089041 9.59739457,65.6266088 C9.37580835,65.3443135 9.15422214,65.050256 8.93964814,64.7609033 C8.72507415,64.4715507 8.50956519,64.1732587 8.3024709,63.8787307 C8.09537661,63.5842026 7.88687987,63.2816762 7.68539536,62.9805612 C7.48391085,62.6794463 7.28382878,62.3731559 7.08935649,62.0668656 C6.89488419,61.7605752 6.70228183,61.44958 6.51482176,61.1381142 C6.32736169,60.8266484 6.14083658,60.5095368 5.96179118,60.1947775 C5.78274578,59.8800183 5.60276541,59.5563198 5.43119971,59.2368556 C5.25963401,58.9173915 5.08760083,58.588988 4.92304736,58.264819 C4.75849388,57.9406499 4.59581033,57.60613 4.43780159,57.2767855 C4.27979285,56.9474411 4.12505649,56.6110392 3.97499494,56.2779308 C3.82493338,55.9448224 3.6781442,55.6037156 3.53602984,55.2659023 C3.39391547,54.928089 3.25554095,54.5822773 3.12090629,54.2411705 C2.98627163,53.9000638 2.85537682,53.5495472 2.73009178,53.2060879 C2.60480675,52.8626287 2.48045668,52.5050547 2.36405379,52.157361 C2.24765091,51.8096674 2.13031306,51.4516229 2.02279232,51.0968718 C1.91527158,50.7421208 1.80681588,50.3807829 1.70677485,50.0250908 C1.60673381,49.6693988 1.5085627,49.3028855 1.41646885,48.942959 C1.324375,48.5830326 1.23555352,48.2136963 1.15187434,47.8495354 C1.06819516,47.4853745 0.988255827,47.1132153 0.913926273,46.7462314 C0.839596719,46.3792476 0.768072054,46.0037949 0.701222204,45.6344586 C0.634372354,45.2651223 0.573599763,44.8868467 0.517034505,44.5118644 C0.460469248,44.1368822 0.408578804,43.7553132 0.361363176,43.3798605 C0.314147548,43.0044078 0.270204289,42.6162518 0.233740735,42.2398581 C0.19727718,41.8634644 0.159411181,41.471074 0.130894811,41.0904459 C0.102378442,40.7098178 0.0776019239,40.3178979 0.0579677022,39.9344468 C0.0383334805,39.5509958 0.0238415549,39.1553119 0.0144919256,38.7690379 C0.00514229617,38.3827639 0,37.9861391 0,37.5965716 C0,37.2070041 0.00514229617,36.8132023 0.0144919256,36.4250463 C0.0144919256,36.3610594 0.0177642958,36.2961314 0.0196342217,36.230733 L6.11232021,36.4189299 C6.10110066,36.8113203 6.0950234,37.2084156 6.0950234,37.5993946 C6.0950234,38.2712573 6.11232021,38.9501774 6.1455114,39.6192171 C6.17870258,40.2882569 6.22919058,40.9535327 6.29557295,41.6126921 C6.36195532,42.2718516 6.44469954,42.93007 6.54287065,43.5769967 C6.64104176,44.2239233 6.75557472,44.8713204 6.88506708,45.5102487 C7.01455945,46.1491769 7.15994619,46.7829298 7.31935737,47.4096253 C7.47876855,48.0363208 7.65454158,48.6583113 7.8434041,49.2723035 C8.03226661,49.8862957 8.23702349,50.4955829 8.45486986,51.0964014 C8.67271622,51.6972198 8.90598948,52.2933333 9.15141725,52.8790959 C9.39684502,53.4648586 9.65816716,54.0477983 9.93070886,54.6199167 C10.2032506,55.1920351 10.4916866,55.7580371 10.7899398,56.3136882 C11.088193,56.8693394 11.402808,57.4193447 11.7249027,57.9575876 C12.0469975,58.4958306 12.3882589,59.0298391 12.7370001,59.5502034 C13.0857413,60.0705676 13.4499094,60.585286 13.8215571,61.089183 C14.1932049,61.5930801 14.5812145,62.0889787 14.9767038,62.5717036 C15.3721932,63.0544285 15.7826419,63.532919 16.1996354,63.9958832 C16.6166288,64.4588474 17.0499842,64.9171067 17.4880143,65.3603103 C17.9260444,65.8035138 18.3809039,66.23966 18.8390357,66.6598095 C19.2971676,67.0799589 19.7739987,67.4958739 20.2508298,67.8934397 C20.7276609,68.2910056 21.2236587,68.683396 21.7205915,69.0588487 C22.2175243,69.4343014 22.7312865,69.8022262 23.2459836,70.1532133 C23.7606807,70.5042004 24.2936095,70.8486006 24.8246685,71.1741811 C25.3557274,71.4997617 25.9064206,71.8192258 26.4538414,72.1193998 C27.0012622,72.4195737 27.5678497,72.7122198 28.1311649,72.9860462 C28.6944801,73.2598726 29.276962,73.5257006 29.8543016,73.7722385 C30.4316412,74.0187763 31.02955,74.2563749 31.6209141,74.4751537 C32.2122781,74.6939325 32.8242114,74.902831 33.4286649,75.0924393 C34.0331185,75.2820476 34.6581412,75.4608346 35.2747492,75.6212724 C35.8913573,75.7817102 36.5294695,75.9299152 37.1572971,76.0597711 C37.7851247,76.1896269 38.4344565,76.3063089 39.0739712,76.4051123 C39.7134858,76.5039156 40.3716997,76.5881337 41.020564,76.6549436 C41.6694283,76.7217534 42.3379268,76.7730371 42.9966082,76.806442 C43.3271176,76.8233797 43.6627693,76.836083 43.9946811,76.8445519 C44.3265929,76.8530207 44.665517,76.8572552 44.9988313,76.8572552 C45.3321456,76.8572552 45.6701347,76.8530207 46.0029815,76.8445519 C46.3358283,76.836083 46.670545,76.8233797 47.0010544,76.806442 C47.6592683,76.7725666 48.324027,76.7217534 48.9770986,76.6549436 C49.6301702,76.5881337 50.2813719,76.5043861 50.9241589,76.4051123 C51.5669459,76.3058384 52.2073956,76.1905679 52.8408329,76.0597711 C53.4742703,75.9289743 54.1030329,75.7826512 54.7233808,75.6212724 C55.3437287,75.4598936 55.9617392,75.2829886 56.5699326,75.0924393 C57.178126,74.90189 57.7825796,74.6948735 58.3776835,74.4751537 C58.9727874,74.2554339 59.5641514,74.0201878 60.1447634,73.7722385 C60.7253754,73.5242892 61.302715,73.2612841 61.8683676,72.9860462 C62.4340202,72.7108083 62.9964004,72.4214557 63.5461586,72.1193998 C64.0959168,71.8173438 64.6419352,71.5011731 65.1753315,71.1741811 C65.7087279,70.8471891 66.2383844,70.5046709 66.7540164,70.1532133 C67.2696485,69.8017557 67.7824757,69.4338309 68.2794085,69.0588487 C68.7763413,68.6838665 69.2709367,68.2919465 69.7491702,67.8934397 C70.2274038,67.4949329 70.70143,67.0808999 71.1609643,66.6598095 C71.6204985,66.238719 72.0739556,65.8025728 72.5119857,65.3603103 C72.9500158,64.9180477 73.3838386,64.4593179 73.8003646,63.9958832 C74.2168906,63.5324485 74.6292093,63.054899 75.0232962,62.5717036 C75.417383,62.0885082 75.8067951,61.5897866 76.1784429,61.089183 C76.5500906,60.5885794 76.9156611,60.0691561 77.2629999,59.5502034 C77.6103386,59.0312506 77.9516001,58.4944191 78.2750973,57.9575876 C78.5985944,57.4207561 78.9141444,56.8669869 79.2100602,56.3136882 C79.505976,55.7603895 79.7976844,55.1892121 80.0692911,54.6199167 C80.3408979,54.0506212 80.6036225,53.4648586 80.8485828,52.8790959 C81.093543,52.2933333 81.3286862,51.6934558 81.5451301,51.0964014 C81.7615741,50.4993469 81.9686684,49.8825317 82.1565959,49.2723035 C82.3445235,48.6620752 82.5221664,48.0325568 82.6806426,47.4096253 C82.8391188,46.7866937 82.9863755,46.144472 83.1149329,45.5102487 C83.2434903,44.8760253 83.3594257,44.2215708 83.4571294,43.5769967 C83.554833,42.9324225 83.6385122,42.2666762 83.704427,41.6126921 C83.7703419,40.9587081 83.8212974,40.2821405 83.8544886,39.6192171 C83.8876798,38.9562938 83.9049766,38.2707868 83.9049766,37.5993946 C83.9049766,37.2084156 83.8988993,36.8108498 83.8876798,36.4179889 L89.9803658,36.2297921 C89.9803658,36.2933085 89.9841056,36.3591774 89.9855081,36.4250463 C89.9953252,36.8132023 90,37.2074746 90,37.5965716 C90,37.9856686 89.9948577,38.3804114 89.9855081,38.7685674 C89.9761584,39.1567234 89.961199,39.5467613 89.9420323,39.9330354 C89.9228656,40.3193094 89.8985565,40.7060539 89.8695727,41.0899754 C89.8405888,41.473897 89.8069302,41.8568775 89.7685967,42.2389171 C89.7302632,42.6209567 89.6867874,43.0011143 89.6395718,43.37939 C89.5923562,43.7576656 89.5395308,44.1350003 89.482498,44.5109235 C89.4254653,44.8868467 89.3637577,45.2637108 89.2983103,45.6335176 C89.2328629,46.0033244 89.1618057,46.3778361 89.0870087,46.7467019 C89.0122117,47.1155677 88.9327398,47.4844335 88.8490606,47.8500059 C88.7653814,48.2155782 88.6770274,48.5816211 88.5844661,48.9434295 C88.4919048,49.3052379 88.3951361,49.6679873 88.2941601,50.0255613 C88.1931841,50.3831353 88.0875333,50.7421208 87.9781426,51.0973423 C87.868752,51.4525639 87.754219,51.8077854 87.6368812,52.1578315 C87.5195433,52.5078776 87.3965957,52.8602762 87.2708432,53.2065584 C87.1450907,53.5528406 87.0141959,53.9005343 86.8800287,54.241641 C86.7458615,54.5827478 86.606552,54.9285595 86.4649051,55.2663728 C86.3232582,55.6041861 86.1755341,55.9452929 86.02594,56.2784013 C85.876346,56.6115097 85.7211421,56.9474411 85.5631334,57.277256 C85.4051246,57.607071 85.2429086,57.935945 85.0778876,58.2652894 C84.9128666,58.5946339 84.7413009,58.9183325 84.5697352,59.2373261 C84.3981696,59.5563198 84.2186567,59.8800183 84.0391438,60.195248 C83.8596309,60.5104777 83.6731058,60.8290009 83.4865807,61.1385847 C83.3000556,61.4481685 83.1060508,61.7615162 82.912046,62.0673361 C82.7180411,62.3731559 82.5174916,62.6789758 82.3160071,62.9810317 C82.1145226,63.2830877 81.9074283,63.5837321 81.6989315,63.8792012 C81.4904348,64.1746702 81.2781982,64.4706097 81.0617543,64.7613738 C80.8453104,65.052138 80.627464,65.3410201 80.4068128,65.6280203 C80.1861615,65.9150205 79.9570956,66.1982567 79.7289646,66.4749061 C79.5008337,66.7515554 79.2670929,67.0324392 79.0314823,67.3072066 C78.7958716,67.581974 78.5551187,67.8553299 78.3148332,68.1220989 C78.0745477,68.3888679 77.8267825,68.6570484 77.5790174,68.919583 C77.3312522,69.1821176 77.0769423,69.4446522 76.8245023,69.6991884 C76.5720623,69.9537246 76.3102726,70.2096723 76.0522229,70.4599741 C75.7941731,70.7102759 75.5277087,70.9586957 75.2617117,71.2024107 C74.9957148,71.4461256 74.7245755,71.6888995 74.4539037,71.925557 C74.183232,72.1622145 73.9050805,72.3993425 73.6287989,72.6312952 C73.3525174,72.8632478 73.0678212,73.0919069 72.7873323,73.3153907 C72.5068434,73.5388744 72.2170049,73.7618877 71.9290363,73.979255 C71.6410677,74.1966224 71.3460869,74.4135192 71.054846,74.6224177 C70.763605,74.8313162 70.4620795,75.0420967 70.1666312,75.2453492 C69.8711829,75.4486018 69.5640476,75.6504429 69.2611196,75.8466381 C68.9581916,76.0428334 68.6487188,76.2376171 68.3406486,76.4262844 C68.0325783,76.6149517 67.7184307,76.8026781 67.4056856,76.9838175 C67.0929405,77.164957 66.7741181,77.3451555 66.4562307,77.5187671 C66.1383433,77.6923786 65.8148462,77.8650492 65.4927514,78.0316034 C65.1706567,78.1981577 64.8420172,78.3609479 64.5157152,78.5213857 C64.1894131,78.6818235 63.8546964,78.8370859 63.5255894,78.9876434 C63.1964825,79.1382009 62.8570909,79.2878174 62.5223742,79.4303765 C62.1876575,79.5729356 61.845461,79.7126717 61.5065369,79.8491144 C61.1676129,79.9855571 60.8207416,80.1168244 60.4780777,80.2433868 C60.1354138,80.3699492 59.7848027,80.4946296 59.4383989,80.6127231 C59.0919952,80.7308166 58.7371767,80.8479691 58.3870331,80.9571233 C58.0368895,81.0662775 57.6778637,81.1749612 57.3244477,81.276117 C56.9710317,81.3772728 56.6087336,81.4760761 56.2492403,81.5692335 C55.8897471,81.662391 55.5269815,81.7517845 55.1656183,81.8360026 C54.8042551,81.9202206 54.4354122,82.0011453 54.0717117,82.0759535 C53.7080111,82.1507618 53.3354283,82.2232175 52.9684554,82.2890864 C52.6014824,82.3549553 52.2274973,82.4180013 51.8558495,82.4772833 C51.4842017,82.5365653 51.1078791,82.5878489 50.733894,82.6358391 C50.3599088,82.6838293 49.9784439,82.7299375 49.6035238,82.7661654 C49.2286036,82.8023933 48.8438664,82.8390917 48.4647389,82.8682622 C48.0856114,82.8974327 47.6985368,82.9223688 47.3180069,82.941659 C46.937477,82.9609492 46.54526,82.9760049 46.1637951,82.9854147 C45.7823302,82.9948246 45.3873084,83 45.0021037,83 C44.6168989,83 44.223747,82.9948246 43.8399447,82.9844738 Z M43.4290285,68.147976 C42.9147989,68.1216284 42.3940245,68.0821071 41.8825998,68.0298824 C41.3711751,67.9776578 40.8620878,67.9127299 40.3590777,67.8350987 C39.8560676,67.7574675 39.3549275,67.6676035 38.8598646,67.5659772 C38.3648018,67.4643509 37.8725438,67.3500214 37.3868305,67.2244 C36.9011173,67.0987786 36.4177414,66.9613949 35.9418453,66.8122489 C35.4659492,66.6631029 34.9928579,66.5026651 34.5272464,66.331406 C34.0616348,66.1601468 33.5988282,65.9766549 33.1444362,65.7837532 C32.6900442,65.5908514 32.2384571,65.3852464 31.7957522,65.1721134 C31.3530472,64.9589805 30.9145496,64.7293804 30.4844666,64.4941343 C30.0543837,64.2588883 29.6266381,64.0123504 29.2096447,63.7573437 C28.7926512,63.502337 28.3779951,63.235568 27.9740911,62.9617416 C27.5701871,62.6879152 27.170023,62.4013855 26.7801435,62.1087394 C26.3902639,61.8160933 26.0045917,61.5112144 25.630139,61.2006896 C25.2556864,60.8901649 24.8821687,60.5669368 24.5254803,60.2390038 C24.168792,59.9110708 23.8111687,59.5704345 23.4680373,59.2260343 C23.1249059,58.8816341 22.7859818,58.5240601 22.4601472,58.1636632 C22.1343126,57.8032662 21.8117504,57.429225 21.5032126,57.0537723 C21.1946749,56.6783196 20.8898769,56.2887521 20.5991035,55.8982437 C20.30833,55.5077353 20.0222313,55.1035825 19.7501571,54.6989593 C19.4780829,54.2943361 19.211151,53.8755982 18.9582435,53.4578012 C18.705336,53.0400042 18.4580383,52.6071515 18.2247651,52.1766512 C17.9914918,51.7461509 17.7647633,51.3001244 17.5525267,50.8592733 C17.3402902,50.4184222 17.1317934,49.958281 16.9448008,49.5042561 C16.7578082,49.0502312 16.5708157,48.5802096 16.3997174,48.1148929 C16.2286192,47.6495762 16.0678056,47.1687333 15.9210164,46.6935363 C15.7742272,46.2183393 15.6349177,45.726675 15.5105677,45.2415977 C15.3862176,44.7565203 15.2712172,44.2535643 15.1707086,43.7614296 C15.0702001,43.2692948 14.9795087,42.7573994 14.9028418,42.2558548 C14.8261748,41.7543103 14.7625973,41.234887 14.7093044,40.7248736 C14.6560116,40.2148601 14.6158081,39.6897909 14.5914991,39.1722496 C14.5671901,38.6547083 14.5517632,38.1216408 14.5517632,37.5979831 C14.5517632,37.0743254 14.5653201,36.5445513 14.5914991,36.0237165 C14.6176781,35.5028818 14.6569465,34.983929 14.7093044,34.4710926 C14.7616624,33.9582562 14.8257073,33.4458903 14.9028418,32.9401113 C14.9799762,32.4343323 15.0692652,31.9309058 15.1707086,31.4345366 C15.2721521,30.9381674 15.3857501,30.4427393 15.5105677,29.9543685 C15.6353852,29.4659977 15.7723573,28.9804498 15.9210164,28.5024298 C16.0696755,28.0244099 16.2290867,27.5487424 16.3997174,27.0810732 C16.5703482,26.6134041 16.7526659,26.1485579 16.9448008,25.6917101 C17.1369357,25.2348622 17.3412251,24.7813078 17.5525267,24.3366928 C17.7638284,23.8920778 17.9910244,23.4498152 18.2247651,23.0193149 C18.4585058,22.5888147 18.7044011,22.1573734 18.9582435,21.738165 C19.212086,21.3189565 19.4776154,20.902571 19.7501571,20.4970068 C20.0226988,20.0914426 20.3078625,19.6887014 20.5991035,19.2977224 C20.8903444,18.9067435 21.1942074,18.5101187 21.5041476,18.133725 C21.8140878,17.7573313 22.1347801,17.3847016 22.4610822,17.0238341 C22.7873842,16.6629667 23.1263083,16.3058632 23.4689722,15.961463 C23.8116361,15.6170628 24.1673895,15.275956 24.5264153,14.9484935 C24.8854411,14.621031 25.2570888,14.2968619 25.631074,13.9868076 C26.0050592,13.6767534 26.3926013,13.370463 26.7810784,13.0787579 C27.1695555,12.7870528 27.5720571,12.4991116 27.9750261,12.2257557 C28.3779951,11.9523998 28.7940536,11.6842193 29.2105796,11.4301536 C29.6271056,11.1760879 30.0567211,10.927668 30.4854016,10.693363 C30.9140821,10.4590579 31.357722,10.2308692 31.7980896,10.0177363 C32.2384571,9.80460339 32.694719,9.59711638 33.1467736,9.40609659 C33.5988282,9.2150768 34.0663096,9.02970291 34.5295838,8.85844379 C34.9928579,8.68718466 35.4710915,8.52533538 35.9441827,8.37760086 C36.417274,8.22986634 36.9062596,8.09013019 37.3891679,7.96544978 C37.8720763,7.84076938 38.370879,7.72502832 38.862202,7.62387252 C39.3535251,7.52271672 39.8607425,7.42955929 40.3604802,7.35286907 C40.8602178,7.27617886 41.3767849,7.20983948 41.8863397,7.15808534 C42.3958945,7.10633121 42.9147989,7.06586889 43.4290285,7.03999183 C43.9432581,7.01411476 44.476187,7 44.9974289,7 C45.5186707,7 46.0469248,7.01364427 46.5639593,7.03999183 C47.0809938,7.06633939 47.5989632,7.10586072 48.110388,7.15808534 C48.6218127,7.21030997 49.1309,7.27523788 49.6339101,7.35286907 C50.1369201,7.43050027 50.6385277,7.52036426 51.1331231,7.62199055 C51.6277185,7.72361685 52.120444,7.83794643 52.6061573,7.96356782 C53.0918705,8.08918921 53.5752463,8.2265729 54.0511425,8.37571889 C54.5270386,8.52486489 55.0001299,8.68530269 55.4657414,8.85656182 C55.9313529,9.02782094 56.3941596,9.21131286 56.8485516,9.40421462 C57.3029436,9.59711638 57.7545307,9.80272143 58.1972356,10.0158543 C58.6399406,10.2289873 59.0798406,10.4567054 59.5099236,10.691481 C59.9400065,10.9262566 60.3677521,11.1732649 60.7847456,11.4282716 C61.201739,11.6832783 61.6163951,11.9500474 62.0202991,12.2238738 C62.4242031,12.4977002 62.8248347,12.7842298 63.2142468,13.0768759 C63.6036588,13.369522 63.9897985,13.6744009 64.3642512,13.9849257 C64.7387038,14.2954505 65.1122215,14.6186785 65.4689099,14.9466115 C65.8255982,15.2745445 66.1832216,15.6151808 66.526353,15.959581 C66.8694844,16.3039812 67.2084084,16.6615552 67.5347105,17.0219522 C67.8610126,17.3823491 68.1831073,17.7563903 68.4916451,18.131843 C68.8001828,18.5072957 69.1049808,18.8968632 69.3957542,19.2873716 C69.6865277,19.6778801 69.9726264,20.0825033 70.2447006,20.486656 C70.5167748,20.8908087 70.7837067,21.3100171 71.0366142,21.7278141 C71.2895217,22.1456111 71.5368194,22.5779934 71.7700926,23.0089641 C72.0033659,23.4399349 72.2300944,23.8850204 72.442331,24.326342 C72.6545676,24.7676636 72.8630643,25.2268639 73.0500569,25.6813592 C73.2370495,26.1358546 73.4240421,26.6054057 73.5951403,27.0707224 C73.7662385,27.5360391 73.9270521,28.016882 74.0738413,28.492079 C74.2206305,28.967276 74.35994,29.4589403 74.48429,29.9440176 C74.6086401,30.429095 74.7236405,30.932051 74.8241491,31.4241858 C74.9246576,31.9163205 75.015349,32.4282159 75.0920159,32.9297605 C75.1686829,33.4313051 75.2322604,33.9507283 75.2855533,34.4607418 C75.3388462,34.9707552 75.3790496,35.4958244 75.4033586,36.0133657 C75.4276676,36.530907 75.4430945,37.0639745 75.4430945,37.5876322 C75.4430945,38.11129 75.4295376,38.6410641 75.4033586,39.1618988 C75.3771796,39.6827336 75.3379112,40.2016863 75.2855533,40.7145227 C75.2331953,41.2273591 75.1686829,41.739725 75.0920159,42.245504 C75.015349,42.751283 74.9255925,43.2547096 74.8241491,43.7510787 C74.7227056,44.2474479 74.6091076,44.7433466 74.48429,45.2312469 C74.3594725,45.7191472 74.2225004,46.2051655 74.0738413,46.6831855 C73.9251822,47.1612055 73.765771,47.636873 73.5951403,48.1045421 C73.4245095,48.5722113 73.2421918,49.0370574 73.0500569,49.4939053 C72.857922,49.9507531 72.6536326,50.4043075 72.442331,50.8489225 C72.2310293,51.2935375 72.0038333,51.7358001 71.7700926,52.1663004 C71.5363519,52.5968007 71.2904566,53.0282419 71.0366142,53.4474504 C70.7827717,53.8666588 70.5172423,54.2830443 70.2447006,54.6886085 C69.9721589,55.0941727 69.6869952,55.4969139 69.3957542,55.8878929 C69.1045133,56.2788718 68.8011178,56.6674983 68.4916451,57.0434215 C68.1821723,57.4193447 67.8610126,57.7929154 67.5347105,58.1533123 C67.2084084,58.5137093 66.8694844,58.8712833 66.526353,59.2156835 C66.1832216,59.5600837 65.8279357,59.9011905 65.4689099,60.228653 C65.1098841,60.5561155 64.7382363,60.879814 64.3642512,61.1903388 C63.990266,61.5008636 63.6027239,61.8066835 63.2142468,62.0983886 C62.8257697,62.3900937 62.4232681,62.6780348 62.0202991,62.9513907 C61.6173301,63.2247466 61.2012715,63.4929271 60.7847456,63.7469929 C60.3682196,64.0010586 59.9386041,64.2494784 59.5099236,64.4837835 C59.0812431,64.7180886 58.6380707,64.9458067 58.1972356,65.1594102 C57.7564006,65.3730136 57.3010736,65.5800301 56.8485516,65.7710499 C56.3960295,65.9620697 55.9290155,66.1474436 55.4657414,66.3187027 C55.0024673,66.4899618 54.5242337,66.6522816 54.0511425,66.7995456 C53.5780512,66.9468096 53.0890656,67.0870163 52.6061573,67.2116967 C52.1232489,67.3363771 51.6244462,67.4521181 51.1331231,67.5532739 C50.6418001,67.6544297 50.1336478,67.7457052 49.6339101,67.8223954 C49.1341724,67.8990856 48.6180728,67.9635431 48.110388,68.0171792 C47.6027031,68.0708153 47.0786564,68.1112776 46.5639593,68.1352727 C46.0492622,68.1592678 45.5182032,68.1752645 44.9969614,68.1752645 C44.4757195,68.1752645 43.9488679,68.1620907 43.4299635,68.1357432 L43.4290285,68.147976 Z M43.6235008,10.8039286 C43.1723812,10.8269827 42.7161193,10.8617991 42.2678046,10.9074369 C41.8194898,10.9530746 41.373045,11.0104746 40.93221,11.0782255 C40.491375,11.1459764 40.0514749,11.225019 39.6176521,11.3134716 C39.1838293,11.4019241 38.7518764,11.5016684 38.3260008,11.613175 C37.9001252,11.7246816 37.476587,11.8441866 37.059126,11.9745129 C36.6416651,12.1048393 36.227009,12.2464574 35.8188977,12.3979558 C35.4107864,12.5494543 35.0050124,12.7089511 34.6067182,12.8783283 C34.208424,13.0477054 33.8119997,13.2274334 33.4239901,13.4156302 C33.0359805,13.6038271 32.6503083,13.8019043 32.2730507,14.0079798 C31.8957932,14.2140553 31.520873,14.4314227 31.1553025,14.6539654 C30.789732,14.8765082 30.4260314,15.1112838 30.072148,15.3517052 C29.7182645,15.5921267 29.3667184,15.842899 29.025457,16.0997877 C28.6841955,16.3566763 28.3452714,16.6239159 28.0170994,16.8963308 C27.6889274,17.1687457 27.3626254,17.4519819 27.0480103,17.7394526 C26.7333953,18.0269233 26.4215852,18.3256858 26.1209946,18.6277417 C25.820404,18.9297976 25.5230858,19.2431454 25.2369871,19.5593161 C24.9508885,19.8754867 24.6685297,20.2029492 24.3978579,20.5332347 C24.1271861,20.8635201 23.8602542,21.2041564 23.6031394,21.5466747 C23.3460246,21.8891929 23.0973244,22.2434735 22.8589089,22.5982245 C22.6204933,22.9529756 22.3862851,23.3199594 22.1646989,23.6864727 C21.9431127,24.0529861 21.7262013,24.4322027 21.5219119,24.8100079 C21.3176225,25.187813 21.1184754,25.5783215 20.9324178,25.9664774 C20.7463601,26.3546334 20.5691847,26.7536107 20.3990214,27.152588 C20.2288582,27.5515653 20.0717844,27.9627754 19.9207879,28.3706921 C19.7697913,28.7786087 19.6300144,29.2001696 19.5000545,29.6170256 C19.3700947,30.0338816 19.249017,30.4639114 19.1400938,30.8901772 C19.0311706,31.3164431 18.9306621,31.7549417 18.8418406,32.1877944 C18.7530192,32.6206472 18.6740148,33.0680852 18.6080999,33.5089363 C18.542185,33.9497873 18.4837498,34.4028712 18.4384041,34.8512502 C18.3930584,35.2996292 18.3579973,35.7602409 18.3350907,36.2156773 C18.3121841,36.6711136 18.3000296,37.1369008 18.3000296,37.5961011 C18.3000296,38.0553014 18.3117166,38.5196771 18.3350907,38.9765249 C18.3584648,39.4333727 18.3925909,39.8883386 18.4384041,40.340952 C18.4842173,40.7935654 18.5407826,41.2400624 18.6080999,41.683266 C18.6754172,42.1264695 18.7539541,42.5682616 18.8418406,43.0044078 C18.9297271,43.4405539 19.0288332,43.8743477 19.1400938,44.302025 C19.2513544,44.7297023 19.3700947,45.1554976 19.5000545,45.5751766 C19.6300144,45.9948555 19.7707263,46.4117115 19.9207879,46.8215102 C20.0708494,47.2313088 20.2302606,47.6396959 20.3990214,48.0396142 C20.5677822,48.4395325 20.7468276,48.8394508 20.9338202,49.2280772 C21.1208128,49.6167037 21.3185575,50.0053302 21.5233143,50.3845468 C21.7280712,50.7637634 21.9440477,51.1401571 22.1661014,51.5080819 C22.3881551,51.8760068 22.6214283,52.2359332 22.8598439,52.5906843 C23.0982594,52.9454353 23.3488295,53.2992454 23.6040744,53.6422341 C23.8593192,53.9852228 24.1257837,54.3258591 24.3987929,54.6556741 C24.671802,54.985489 24.9518234,55.314363 25.2379221,55.6295927 C25.5240208,55.9448224 25.821339,56.2591111 26.1219296,56.5611671 C26.4225201,56.863223 26.7343303,57.1619855 27.0489453,57.4494561 C27.3635603,57.7369268 27.6898624,58.0206336 28.0180344,58.292578 C28.3462064,58.5645224 28.6855979,58.8327029 29.0263919,59.0891211 C29.3671859,59.3455393 29.7201344,59.5972526 30.0730829,59.8372035 C30.4260314,60.0771545 30.791602,60.3124006 31.1562375,60.5349433 C31.520873,60.7574861 31.8981306,60.9757944 32.2739857,61.180929 C32.6498408,61.3860635 33.0383179,61.5860227 33.4249251,61.7732785 C33.8115322,61.9605344 34.2107614,62.1416738 34.6076532,62.3105805 C35.004545,62.4794872 35.4140587,62.639925 35.8198326,62.7909529 C36.2256066,62.9419809 36.6454049,63.0831285 37.060061,63.2143958 C37.474717,63.3456631 37.9015276,63.4665796 38.3269358,63.5757338 C38.7523439,63.6848879 39.1875691,63.7860437 39.6185871,63.8754372 C40.049605,63.9648307 40.4946473,64.0438734 40.933145,64.1106833 C41.3716426,64.1774931 41.8241646,64.2358342 42.2687395,64.2810014 C42.7133144,64.3261686 43.1733162,64.3614556 43.6244358,64.3845097 C44.0755554,64.4075638 44.5411669,64.4197966 44.9983638,64.4197966 C45.4555607,64.4197966 45.9174324,64.4080343 46.3722919,64.3845097 C46.8271513,64.3609851 47.2796734,64.3266391 47.7279881,64.2810014 C48.1763028,64.2353637 48.6227476,64.1779636 49.0635827,64.1106833 C49.5044177,64.0434029 49.9443178,63.9638897 50.3781406,63.8754372 C50.8119634,63.7869847 51.2439162,63.6872404 51.6697919,63.5757338 C52.0956675,63.4642271 52.5192057,63.3447221 52.9366666,63.2143958 C53.3541276,63.0840695 53.7687837,62.9424514 54.176895,62.7909529 C54.5850063,62.6394545 54.9907802,62.4799577 55.3890744,62.3105805 C55.7873687,62.1412033 56.1837929,61.9614754 56.5718026,61.7732785 C56.9598122,61.5850817 57.3454844,61.386534 57.7227419,61.180929 C58.0999995,60.9753239 58.4749196,60.7574861 58.8404901,60.5349433 C59.2060606,60.3124006 59.5697612,60.077625 59.9236447,59.8372035 C60.2775282,59.5967821 60.6286067,59.3460098 60.9703357,59.0891211 C61.3120647,58.8322324 61.6505212,58.5649929 61.9786932,58.292578 C62.3068652,58.0201631 62.6331673,57.7369268 62.9477823,57.4494561 C63.2623973,57.1619855 63.5742075,56.863223 63.8747981,56.5611671 C64.1753887,56.2591111 64.4727069,55.9457634 64.7588055,55.6295927 C65.0449042,55.313422 65.327263,54.9859595 65.5979348,54.6556741 C65.8686065,54.3253886 66.1355385,53.9847523 66.3926533,53.6422341 C66.6497681,53.2997158 66.8984682,52.9454353 67.1368838,52.5906843 C67.3752993,52.2359332 67.6095075,51.8689494 67.8310938,51.502436 C68.05268,51.1359227 68.2695914,50.7567061 68.4738808,50.3789009 C68.6781702,50.0010958 68.8773173,49.6105873 69.0633749,49.2224313 C69.2494325,48.8342753 69.4298804,48.4329456 69.5981737,48.0339683 C69.766467,47.634991 69.9254107,47.2237809 70.0764072,46.8158643 C70.2274038,46.4079476 70.3671807,45.9863867 70.4971406,45.5695307 C70.6271004,45.1526747 70.7481781,44.7226449 70.8571013,44.2963791 C70.9660245,43.8701132 71.066533,43.4316146 71.1553545,42.9987619 C71.244176,42.5659091 71.3231803,42.1184711 71.3890952,41.6776201 C71.4550101,41.236769 71.5134453,40.7836851 71.558791,40.3353061 C71.6041367,39.8869271 71.6391978,39.4263154 71.6621044,38.970879 C71.685011,38.5154427 71.6971655,38.0496555 71.6971655,37.5904552 C71.6971655,37.1312549 71.6854785,36.6668792 71.6621044,36.2100314 C71.6387303,35.7531836 71.6046042,35.2982177 71.558791,34.8456043 C71.5129778,34.3929909 71.4564125,33.9464939 71.3890952,33.5032903 C71.3217779,33.0600868 71.243241,32.6182947 71.1553545,32.1821485 C71.067468,31.7460024 70.9683619,31.3122087 70.8571013,30.8845313 C70.7458407,30.456854 70.6271004,30.0310587 70.4971406,29.6113797 C70.3671807,29.1917008 70.2264688,28.7748448 70.0764072,28.3650462 C69.9263457,27.9552475 69.7669345,27.5473309 69.5981737,27.1469421 C69.4294129,26.7465533 69.250835,26.3471055 69.0633749,25.9584791 C68.8759148,25.5698526 68.6786377,25.1807556 68.4738808,24.8020095 C68.2691239,24.4232634 68.0531474,24.0463992 67.8310938,23.6784744 C67.6090401,23.3105495 67.3757668,22.9454477 67.1368838,22.5902261 C66.8980007,22.2350046 66.6478982,21.881665 66.3926533,21.5386763 C66.1374084,21.1956876 65.8709439,20.8555218 65.5979348,20.5252363 C65.3249256,20.1949509 65.0449042,19.8665474 64.7588055,19.5513177 C64.4727069,19.236088 64.1753887,18.9217993 63.8747981,18.6197433 C63.5742075,18.3176874 63.2623973,18.0189249 62.9477823,17.7314543 C62.6331673,17.4439836 62.3068652,17.1602768 61.9786932,16.8883324 C61.6505212,16.616388 61.3111297,16.3482075 60.9703357,16.0917893 C60.6295417,15.8353711 60.2765932,15.5836578 59.9236447,15.3437069 C59.5706962,15.1037559 59.2051257,14.8685098 58.8404901,14.6459671 C58.4758546,14.4234243 58.098597,14.205116 57.7227419,13.9999814 C57.3468868,13.7948469 56.9579423,13.5948877 56.5718026,13.4076319 C56.1856629,13.220376 55.7859662,13.0392366 55.3890744,12.8703299 C54.9921827,12.7014232 54.5831364,12.5409854 54.176895,12.3899575 C53.7706536,12.2389295 53.3513227,12.0977819 52.9366666,11.9665146 C52.5220106,11.8352473 52.0952,11.7143308 51.6697919,11.6051767 C51.2443837,11.4960225 50.8091585,11.3948667 50.3781406,11.3054732 C49.9471227,11.2160797 49.5020803,11.137037 49.0635827,11.0702271 C48.6250851,11.0034173 48.172563,10.9450762 47.7279881,10.8994385 C47.2834132,10.8538008 46.8234115,10.8189844 46.3722919,10.7959302 C45.9211722,10.7728761 45.4555607,10.7606433 44.9983638,10.7606433 C44.5411669,10.7606433 44.0792952,10.7728761 43.6244358,10.7954598 L43.6235008,10.8039286 Z M25.8049529,37.5979831 C25.7926826,29.7806948 30.4621094,22.726265 37.634602,19.7261405 C44.8070947,16.7260161 53.0691,18.371461 58.565742,23.8947455 C64.062384,29.41803 65.7103857,37.7306265 62.7408245,44.9540542 C59.7712633,52.1774819 52.7693797,56.8881661 45.0021037,56.8881661 C39.9146434,56.8925282 35.0338619,54.8625553 31.4336347,51.2448777 C27.8334075,47.6272 25.8086951,42.7182076 25.8049529,37.5979831 Z" fill="#FF8700" fill-rule="nonzero"/></g></svg>