<svg viewBox="0 0 90 90" xmlns="http://www.w3.org/2000/svg"><g fill="none" fill-rule="evenodd"><path fill="#FFE01A" d="M0 0h90v90H0z"/><path d="M45 15c4.573 0 8.909 1.027 12.79 2.865l-4.982 6.419A22.044 22.044 0 0 0 45 22.864c-11.665 0-21.25 9.066-22.08 20.524a23.944 23.944 0 0 0-.058 1.613c0 12.206 9.93 22.136 22.138 22.136 12.205 0 22.136-9.93 22.136-22.136 0-1.632-.178-3.224-.514-4.755l5.782-7.448A29.824 29.824 0 0 1 75 45.001C75 61.543 61.543 75 45 75c-16.542 0-30-13.457-30-30 0-16.542 13.458-30 30-30Zm18.297 6.24a30.227 30.227 0 0 1 5.587 5.627l-5.053 6.508-17.739 22.85L31.62 43.286l5.24-5.862 8.189 7.32L58.477 27.45l4.82-6.21Z" fill="#232520" fill-rule="nonzero"/></g></svg>