<svg xmlns="http://www.w3.org/2000/svg" viewBox="0 0 90 90"><path fill="#FFF" d="M0 0h90v90H0z"/><path fill="#FFF" d="m10 45 35-35 35 35-35 35z"/><path d="M60.742 28.253 44.997 12.507l-32.499 32.5 32.5 32.498 7.094-7.095S21.05 62.524 29.875 47.682c2.802-4.714 13.245-11.333 13.245-11.333l1.912-3.18-2.928-3.053h4.833l3.44-4.581v4.44l6.737-.006s1.205-.652 3.628-1.716Z" fill="#77787B"/><path d="m57.506 64.989 19.99-19.99-16.803-16.795-3.586 1.75-6.752 3.341-.21 4.861-3.173-2.892S19.278 51.177 35.738 58.888c10.05 4.7 21.768 6.101 21.768 6.101Z" fill="#A90533"/><path d="M17.163 42.926s3.495 1.016 3.957 1.156c-.427-.512-1.688-1.87-2.458-2.655l1.12-1.12c.974 1.17 3.222 3.635 3.685 4.118l-1.43 1.429c-.539-.161-3.165-.848-3.922-1.093 0 0 1.87 2.038 2.424 2.599l-1.12 1.12c-1.248-1.562-3.706-4.104-3.706-4.104l1.45-1.45Zm5.785-3.964c.91-.91 2.186-1.177 3.152-.203 1.009 1.008.869 2.311-.182 3.362-.925.924-2.192 1.155-3.18.168-1.015-1.016-.714-2.403.21-3.327Zm2.2 2.346c.434-.434.196-1.022-.183-1.4-.336-.337-.805-.484-1.183-.106-.435.435-.224 1.009.16 1.387.337.343.82.504 1.206.12Zm1.512-5.253c-.02-.47.035-.833.386-1.184a.933.933 0 0 1 .23-.168l.974.91c-.112.064-.224.127-.308.218-.371.371-.462.812-.182 1.268.336.546 1.366 1.506 1.457 1.583l-1.149 1.148c-.623-.763-2.052-2.36-2.808-3.032l1.085-1.086.315.343Zm3.243-3.81s.624.665.757.798l-.659.659s.77.84.869.938c.217.217.462.393.721.133.14-.14.238-.308.344-.483l.658.967a5.2 5.2 0 0 1-.672.861c-.519.518-1.051.82-1.759.12a57.37 57.37 0 0 1-1.267-1.437l-.442.442s-.7-.764-.742-.813l.476-.476-.532-.616c.049-.07.827-1.282.827-1.282l.77.833.651-.644Zm-.44-1.618 1.169-1.17c.077.091 1.155 1.38 1.289 1.5-.085-.694.133-1.094.623-1.584 1.022-1.022 1.744-.455 2.01-.189.175.175 1.457 1.653 1.975 2.178a92.95 92.95 0 0 0-1.183 1.184c-.204-.266-.925-1.19-1.492-1.758-.274-.273-.596-.371-.904-.07-.245.245-.336.602-.196.925.308.72 1.555 1.94 1.555 1.94-.182.168-1.149 1.148-1.149 1.148-1.204-1.527-3.48-3.922-3.698-4.104Zm5.714-2.227c-.609-.61-.322-1.338.344-2.004.336-.336.728-.63 1.113-.91l.834.756c-.28.126-.554.288-.778.512-.112.112-.441.44-.266.609.287.287 1.583-.455 2.312.273.658.659.077 1.611-.449 2.136a6.448 6.448 0 0 1-1.127.869l-.925-.764c.371-.16.77-.336 1.065-.63.196-.196.343-.427.203-.567-.28-.287-1.632.413-2.326-.28Zm4.105-5.534s.623.666.756.799l-.658.658s.77.84.868.939c.218.217.463.392.722.133.14-.14.238-.308.343-.483l.658.966a5.2 5.2 0 0 1-.672.862c-.518.518-1.05.82-1.758.119a57.37 57.37 0 0 1-1.268-1.436l-.441.441s-.7-.763-.742-.812l.476-.477-.532-.616c.049-.07.826-1.282.826-1.282l.77.834.652-.645Zm.952-.826c.365-.56.75-1.114 1.226-1.59 1.163-1.163 1.772-.637 2.045-.371.252.252 1.338 1.548 2.045 2.255l-1.12 1.12a57.594 57.594 0 0 0-1.219-1.393c-.049.364-.7 1.065-.364 1.4.175.176.406.085.56-.07.105-.104.182-.237.245-.37.133.287.288.553.442.833-.133.182-.267.35-.428.511-1.008 1.009-1.709.442-1.968.19-1.134-1.135 1.156-2.823.673-3.307-.203-.203-.456-.014-.617.148-.413.413-.686.952-.931 1.477.02.007-.554-.791-.589-.833Zm4.553-4.119c-.021-.469.035-.833.385-1.183a.933.933 0 0 1 .231-.168l.974.91c-.112.063-.224.126-.308.217-.371.372-.462.813-.182 1.268.336.546 1.365 1.506 1.457 1.583l-1.15 1.149c-.623-.764-2.051-2.36-2.808-3.033l1.086-1.086.315.343Zm-1.233 32.556c.231-2.186.217-5.52.217-5.52h2.88c.665 0 1.911-.049 1.911 1.29 0 1.085-.82 1.323-1.064 1.4.28.049 1.127.266 1.127 1.282 0 1.653-1.779 1.548-2.374 1.548h-2.697Zm2.473-1.1c.441 0 .917-.063.917-.63 0-.49-.406-.547-.791-.547h-.862l-.049 1.177h.785Zm-.12-2.262c.42 0 .988-.007.988-.582 0-.469-.406-.518-.777-.518h-.736l-.042 1.1h.568Zm3.874-.61c.651-.14 1.317-.259 1.996-.259 1.646 0 1.702.806 1.702 1.184 0 .357-.147 2.045-.147 3.047h-1.59c.056-.533.126-1.843.126-1.843-.287.225-1.247.26-1.247.736 0 .245.232.35.449.35.147 0 .3-.042.441-.091-.105.301-.19.595-.273.904a4.249 4.249 0 0 1-.659.056c-1.428 0-1.52-.897-1.52-1.261 0-1.604 2.816-1.184 2.816-1.863 0-.287-.315-.33-.54-.33-.587 0-1.155.19-1.701.386-.014 0 .14-.967.147-1.016Zm6.318-.154-.035.553c.455-.51.903-.65 1.597-.65 1.45 0 1.47 1 1.47 1.365 0 .238-.105 2.15-.119 2.865H57.38c.035-.323.126-1.744.126-2.13 0-.413-.105-.812-.595-.812-.47 0-.77.371-.861.805-.126.589-.154 1.807-.168 2.137h-1.653c.084-.624.245-2.585.259-4.126h1.61v-.007Zm4.062-1.394h1.611c-.14 1.695-.245 4.035-.245 5.52h-1.611c.217-1.737.245-5.52.245-5.52Zm2.746 1.394h1.772s-1.156 1.506-1.38 1.828c.217.385 1.366 2.298 1.366 2.298h-1.737c-.175-.365-1.184-2.207-1.24-2.319.056-.098 1.219-1.807 1.219-1.807Z" fill="#FFF"/></svg>