<svg viewBox="0 0 90 90" xmlns="http://www.w3.org/2000/svg"><defs><linearGradient x1="-4.244%" y1="72.07%" x2="85.501%" y2="22.071%" id="a"><stop stop-color="#668CFF" offset="20%"/><stop stop-color="#0AF" offset="49%"/><stop stop-color="#00BFB5" offset="80%"/></linearGradient><linearGradient x1="19.179%" y1="75.879%" x2="97.258%" y2="22.422%" id="b"><stop stop-color="#668CFF" offset="50%"/><stop stop-color="#0AF" stop-opacity="0" offset="100%"/></linearGradient><linearGradient x1="11.634%" y1="86.552%" x2="105.39%" y2="16.746%" id="c"><stop stop-color="#0AF" stop-opacity="0" offset="0%"/><stop stop-color="#00BFB5" offset="40%"/></linearGradient><linearGradient x1="-2.833%" y1="69.047%" x2="93.112%" y2="14.834%" id="d"><stop stop-color="#00BFB5" stop-opacity="0" offset="0%"/><stop stop-color="#00CC7C" offset="50%"/></linearGradient><linearGradient x1="14.553%" y1="77.966%" x2="104.294%" y2="27.939%" id="e"><stop stop-color="#0AF" offset="20%"/><stop stop-color="#00BFB5" offset="51%"/><stop stop-color="#00CC7C" offset="80%"/></linearGradient><linearGradient x1="-5.215%" y1="83.289%" x2="88.366%" y2="13.609%" id="f"><stop stop-color="#0AF" offset="60%"/><stop stop-color="#00BFB5" stop-opacity="0" offset="100%"/></linearGradient></defs><g fill="none"><path d="m54.172 26.123-5.674 1.39-3.239-5.602-2.001-3.45-2.256-3.854-5.247-9.023h-8.483L6.054 42.086l4.246 7.281h3.24v5.6H8.678a2.824 2.824 0 0 1-2.43-1.394L.377 43.491a2.783 2.783 0 0 1 0-2.8l22.85-39.296A2.824 2.824 0 0 1 25.659 0h11.734a2.824 2.824 0 0 1 2.43 1.395l7.684 13.2.997 1.732 2.257 3.847 1.005 1.727 2.408 4.222h-.002Z" fill="url(#a)" transform="translate(5 18)"/><path d="M30.524 40.388 22.847 53.59a2.825 2.825 0 0 1-2.431 1.4H13.54L6.057 42.11l4.246 7.281h8.462l8.493-14.607 3.266 5.607v-.002Z" fill="url(#b)" transform="translate(5 18)"/><path d="m54.17 28.912-5.866 10.083a2.824 2.824 0 0 1-2.43 1.4h-6.86L36.76 36.54l-1.005-1.725h8.462l4.24-7.28-.806-1.39h6.48c.504.85.52 1.902.04 2.767Z" fill="url(#c)" transform="translate(5 18)"/><path d="M69.728 5.613h-8.494l-8.462 14.603-3.237-5.603 7.682-13.2a2.824 2.824 0 0 1 2.43-1.395h6.843l3.238 5.595Z" fill="url(#d)" transform="translate(5 18)"/><path d="M79.648 14.31 56.803 53.6a2.824 2.824 0 0 1-2.43 1.4H42.64a2.824 2.824 0 0 1-2.431-1.4l-6.678-11.482-2.01-3.445-2.255-3.853-1.004-1.725-2.431-4.183 5.674-1.401 3.243 5.6 1.005 1.727 1.003 1.723 2.257 3.855.999 1.719 3.241 5.6 1.005 1.727h8.462l21.223-36.51-4.242-7.28H66.56l-.1-5.6h4.861a2.824 2.824 0 0 1 2.431 1.395l5.867 10.081c.497.852.507 1.9.028 2.761Z" fill="url(#e)" transform="translate(5 18)"/><path d="m35.765 20.21-4.242 7.28.812 1.4H25.85a2.783 2.783 0 0 1 0-2.8l5.866-10.082a2.824 2.824 0 0 1 2.437-1.4h6.864l2.257 3.854 1.003 1.725-8.511.022Z" fill="url(#f)" transform="translate(5 18)"/></g></svg>