<svg viewBox="0 0 90 90" xmlns="http://www.w3.org/2000/svg"><g fill="none"><path fill="#FFF" d="M0 0h90v90H0z"/><path d="M59.317 0C45.58 6.78 28.651 12.78 22.35 26.627a40.64 40.64 0 0 1 2.544 0c-1.217-1.27-2.632-2.656-4.838-3.32-9.57-2.897-18.195 5.109-13.681 12.11 1.498 2.325 1.27 6.996-2.37 8.805L4 44.754c3.645 1.815 3.873 6.482 2.374 8.808-4.513 6.99 4.113 15.003 13.681 12.114 1.15-.35 2.083-.898 2.889-1.52.743 3.39 1.729 6.556 2.95 9.346C29.36 76.33 39.128 87.555 43.324 90c11.223-1.082 36.228-16.18 41.249-24.815 1.704-11.271 1.665-17.373 1.372-24.221C81.387 20.616 63.573.154 59.317 0ZM15.33 33.253c1.26-.025 2.764.282 4.397.972-2.079 8.126-2.48 17.514-1.428 26.14-4.388 1.311-7.45-.381-6.705-3.397.775-3.134.703-5.36-.498-7.109-.99-1.445-1.72-2.407-4.08-2.823 2.36-.433 3.09-1.385 4.08-2.832 1.2-1.743 1.273-3.971.498-7.106-.56-2.27 1.038-3.792 3.736-3.846Z" fill="#231F20"/><path d="M59.919 6.46c4.716 2.36 17.201 19.848 17.728 37.474.198 6.509.169 12.709-1.122 22.272-4.155 5.08-19.41 15.524-31.814 18.977-1.576-4.47-2.172-11.443-2.634-20.703C40.53 33.724 54.99 9.86 59.92 6.46" fill="#FFF"/><path fill="#231F20" d="m59.701 33.46 4.182-2.042-.114 10.597 7.275-7.231 1.458 4.704-7.524 6.526 5.014 5.831-3.323 5.016-4.532-6.672-4.158 10.907-3.471-1.7 4.726-10.577-7.639.86 1.226-6.022 7.424.07-.544-10.267"/><path d="M49.007 8.91c-2.705 4.163-11.166 8.022-16.755 13.998-5.566 5.963-6.702 11.87-8.978 15.665.754-4.534 2.25-9.057 3.863-11.895 5.736-10.086 16.418-14.11 21.87-17.768" fill="#FFF"/></g></svg>