<svg viewBox="0 0 90 90" xmlns="http://www.w3.org/2000/svg"><g fill="none"><path fill="#FFF" d="M0 0h90v90H0z"/><path d="m54.945 10.16-38.733 2.86C13.087 13.29 12 15.332 12 17.78v42.46c0 1.907.677 3.538 2.31 5.717l9.105 11.839c1.495 1.906 2.856 2.315 5.712 2.18l44.98-2.724C77.91 76.983 79 75.212 79 72.218v-47.77c0-1.547-.611-1.992-2.41-3.313l-.31-.224-12.363-8.71c-2.991-2.175-4.214-2.45-8.972-2.042Zm-24.8 13.509c-3.674.245-4.507.303-6.593-1.395l-5.303-4.219c-.54-.546-.269-1.227 1.09-1.363l37.235-2.72c3.127-.273 4.755.816 5.978 1.768l6.387 4.627c.273.14.952.952.135.952L30.62 23.634l-.476.035Zm-4.283 48.14V31.258c0-1.771.544-2.588 2.173-2.725L72.2 25.946c1.498-.135 2.174.817 2.174 2.586v40.282c0 1.773-.273 3.269-2.718 3.406l-42.264 2.45c-2.446.133-3.53-.68-3.53-2.86Zm41.72-38.377c.272 1.225 0 2.45-1.224 2.59l-2.037.403v29.941c-1.769.952-3.398 1.496-4.758 1.496-2.175 0-2.718-.682-4.347-2.72l-13.321-20.96V64.46l4.214.956s0 2.45-3.4 2.45l-9.373.542c-.273-.546 0-1.907.95-2.177l2.448-.677v-26.81l-3.398-.277c-.273-1.225.406-2.994 2.31-3.131l10.057-.677 13.86 21.228v-18.78L56.03 36.7c-.273-1.5.815-2.59 2.173-2.722l9.38-.546Z" fill="#000"/></g></svg>