<svg viewBox="0 0 90 90" xmlns="http://www.w3.org/2000/svg"><g fill="none" fill-rule="evenodd"><path fill="#FFF" d="M0 0h90v90H0z"/><path d="M21.172 52.372c-4.512-15.402 5.55-30.205 20.49-32.295 3.68-.515 7.312-.183 10.87.912.077.028.154.06.233.085 3.7 1.22 6.957 3.17 9.709 5.95-.044.279-.167.517-.303.764-1.187 2.166-2.57 4.207-4.062 6.163-.796 1.043-1.452 2.215-2.522 3.031-.161-.191-.322-.384-.484-.574-3.891-4.58-10.247-6.014-15.56-3.51-5.501 2.594-8.535 8.404-7.463 14.401.605 3.384 2.382 6.079 5.032 8.216-.142.17-.26.37-.431.502-3.027 2.338-6.083 4.633-9.473 6.431-2.833-2.862-4.777-6.261-6.036-10.076" fill="#1D3245"/><path d="M55.587 36.982c1.07-.816 1.726-1.989 2.522-3.03 1.493-1.957 2.874-3.998 4.062-6.164.136-.247.26-.485.302-.763.862.587 1.44 1.448 2.085 2.233 2.008 2.446 3.379 5.245 4.389 8.233.82 2.997 1.188 6.033.988 9.152-.309 4.792-1.861 9.128-4.666 12.985-3.916 5.383-9.178 8.725-15.692 9.982-3.78.729-7.557.516-11.28-.503-.239-.066-.483-.112-.726-.168-.82-.321-1.653-.61-2.455-.97-2.984-1.334-5.684-3.085-7.908-5.52 3.39-1.799 6.446-4.094 9.473-6.432.17-.132.289-.333.431-.502l.27.027c2.986 2.335 6.403 3.003 10.037 2.347 9.506-1.717 13.898-12.937 8.176-20.755a.296.296 0 0 1-.008-.152" fill="#207968"/><path d="M27.208 62.448c2.224 2.436 4.924 4.187 7.908 5.521.802.359 1.636.649 2.456.97-3.77 2.607-7.692 4.922-12.25 5.817-3.518.691-6.654-.01-8.875-3.103-1.532-2.13-1.698-4.57-1.187-7.047.944-4.568 3.214-8.51 5.912-12.234 1.259 3.815 3.203 7.214 6.036 10.076M68.947 37.49c-1.01-2.987-2.381-5.786-4.389-8.231-.645-.786-1.224-1.647-2.085-2.234-2.751-2.781-6.009-4.731-9.709-5.951-.078-.026-.155-.057-.233-.085 2.864-1.878 5.78-3.658 9.007-4.855 2.37-.88 4.78-1.44 7.33-.954 3.216.613 5.762 3.522 6.08 6.806.23 2.379-.319 4.588-1.163 6.757-1.22 3.134-2.872 6.03-4.838 8.748M37.383 55.542c1.495-1.323 2.996-2.641 4.486-3.97 3.533-3.152 6.85-6.52 10.011-10.045 1.28-1.428 2.553-2.864 3.715-4.393 5.722 7.818 1.33 19.038-8.176 20.755-3.634.656-7.05-.012-10.036-2.347" fill="#8BC9A3"/></g></svg>