<svg viewBox="0 0 90 90" xmlns="http://www.w3.org/2000/svg"><g fill="none" fill-rule="evenodd"><path fill="#1F2837" d="M0 0h90v90H0z"/><path d="M72.162 76.178C72 77.238 71.162 78 69.87 78H51.18c-1.265 0-1.77-.51-1.77-1.528v-.255c3.325-27.696 5.011-42.056 5.058-43.08.147-1.613.253-3.31-1.01-4.583-1.265-1.274-3.01-1.783-5.056-1.783-2.528 0-5.056.255-7.584.764l-5.814 48.643C34.886 77.216 34.018 78 32.74 78H13.77c-1.264 0-1.77-.51-1.77-1.528v-.255l6.573-54.794c.506-4.33 5.056-5.603 12.64-7.13C38.541 12.763 46.125 12 53.708 12c8.342 0 14.914.764 19.212 4.33 3.539 2.8 5.308 7.13 5.055 11.714-.505 3.311-.758 6.622-1.264 10.187l-4.55 37.947Z" fill="#FFF" fill-rule="nonzero"/></g></svg>