<svg viewBox="0 0 90 90" xmlns="http://www.w3.org/2000/svg"><g fill="none"><path fill="#14161B" d="M0 0h90v90H0z"/><path d="M27.235 33.5c.843 0 1.615.196 2.302.588a4.35 4.35 0 0 1 1.67 1.682c.412.718.616 1.558.616 2.51 0 .953-.204 1.793-.614 2.507a4.466 4.466 0 0 1-1.67 1.684c-.69.393-1.46.59-2.304.59a4.656 4.656 0 0 1-2.322-.592 4.492 4.492 0 0 1-1.651-1.678c-.412-.718-.616-1.558-.616-2.51 0-.953.204-1.793.614-2.508a4.373 4.373 0 0 1 1.66-1.685 4.65 4.65 0 0 1 2.315-.588Zm-13.735.128h1.77l4.362 5.736.001-5.736h2.022v9.305h-1.77l-4.364-5.73.001 5.73H13.5v-9.305Zm17.957 0h2.162l2.049 5.75 1.968-5.75h1.813l1.968 5.752 2.05-5.752h2.136l-3.322 9.305h-1.787l-1.951-5.935-1.95 5.935h-1.788l-3.348-9.305Zm-4.222 1.83c-.489 0-.926.108-1.316.32a2.3 2.3 0 0 0-.906.933c-.227.405-.345.926-.345 1.57s.118 1.17.347 1.585c.227.413.527.72.894.924.395.208.834.312 1.326.312.499 0 .937-.104 1.316-.307.376-.21.675-.516.903-.929.23-.415.347-.942.347-1.586 0-.642-.117-1.164-.346-1.573a2.295 2.295 0 0 0-.904-.928 2.658 2.658 0 0 0-1.316-.32Z" fill="#64ACFF"/><path d="M14.881 52.93v-1.06h2.81c.55 0 .996-.174 1.335-.522.35-.358.524-.819.524-1.383 0-.583-.174-1.045-.523-1.384-.34-.348-.785-.522-1.336-.522h-2.59v8.117H14V47h3.691c.413 0 .799.066 1.157.198s.67.324.936.578c.276.255.487.565.634.932.156.367.233.786.233 1.257 0 .47-.077.89-.233 1.256-.14.356-.356.675-.634.932a2.68 2.68 0 0 1-.936.579 3.324 3.324 0 0 1-1.157.197h-2.81Zm9.985 3.388a2.625 2.625 0 0 1-1.5-.466 3.484 3.484 0 0 1-1.089-1.3c-.266-.555-.4-1.185-.4-1.89 0-.707.138-1.337.414-1.893a3.352 3.352 0 0 1 1.115-1.313 2.806 2.806 0 0 1 1.598-.48c.643 0 1.13.17 1.46.509.34.33.569.771.689 1.327.128.555.192 1.172.192 1.85 0 .357-.036.747-.11 1.17a4.686 4.686 0 0 1-.385 1.2c-.169.37-.425.69-.744.933-.322.235-.735.353-1.24.353Zm.276-1.073c.468 0 .854-.118 1.157-.353a2.05 2.05 0 0 0 .688-.932c.147-.395.22-.829.22-1.299 0-.517-.077-.97-.233-1.355a1.876 1.876 0 0 0-.69-.918c-.302-.226-.683-.339-1.143-.339-.688 0-1.22.25-1.597.749-.376.489-.564 1.11-.564 1.863 0 .5.091.946.275 1.341.177.368.443.684.771.918.333.217.721.33 1.116.325Zm2.066-6.127h1.101v7.058h-1.006l-.026-.254a22.215 22.215 0 0 0-.042-.593 7.354 7.354 0 0 1-.027-.564v-5.647Zm2.636 0h1.185l2.465 6.776-.964.282-2.686-7.058Zm6.404 0L32.406 59h-1.198l1.666-3.812 2.204-6.07h1.17Zm1.528 0h1.102v7.058h-1.102v-7.058Zm3.471-.142c.367 0 .698.057.992.17.294.113.542.277.743.494.202.217.358.48.469.79.11.301.165.645.165 1.031v4.715h-1.102v-4.432c0-.547-.124-.956-.372-1.229-.248-.273-.62-.41-1.115-.41-.377 0-.725.1-1.047.297-.327.203-.6.484-.799.82a2.854 2.854 0 0 0-.372 1.185l-.013-.819a3.82 3.82 0 0 1 .275-1.073c.134-.3.316-.577.537-.819.21-.228.463-.41.744-.536a2.23 2.23 0 0 1 .895-.184Zm4.628 0c.367 0 .697.057.991.17.294.113.542.277.744.494.202.217.358.48.468.79.11.301.165.645.165 1.031v4.715h-1.101v-4.432c0-.547-.124-.956-.372-1.229-.248-.273-.62-.41-1.116-.41-.376 0-.725.1-1.047.297a2.4 2.4 0 0 0-.798.82 2.854 2.854 0 0 0-.372 1.185l-.014-.819a3.82 3.82 0 0 1 .276-1.073c.134-.3.315-.577.537-.819.21-.228.463-.41.743-.536.285-.123.584-.184.896-.184Zm9.389 4.928h1.033a2.947 2.947 0 0 1-.496 1.242 2.714 2.714 0 0 1-.992.861c-.404.207-.872.31-1.405.31a3.288 3.288 0 0 1-1.735-.465 3.5 3.5 0 0 1-1.226-1.3c-.294-.555-.44-1.185-.44-1.89 0-.707.142-1.337.427-1.893a3.4 3.4 0 0 1 1.198-1.313 3.124 3.124 0 0 1 1.708-.48c.67 0 1.234.156 1.694.466.468.301.812.749 1.032 1.342.23.583.322 1.303.276 2.16h-5.234c.046.46.17.865.372 1.214.193.339.468.62.8.818.33.189.706.283 1.128.283.469 0 .863-.123 1.185-.367.33-.254.556-.583.675-.988Zm-1.887-3.869c-.57 0-1.047.17-1.432.509-.386.338-.644.8-.772 1.383h4.036c-.038-.621-.235-1.092-.593-1.412a1.773 1.773 0 0 0-1.24-.48Zm4.74-.917h1.102v7.058h-1.101v-7.058Zm3.471-.142c.368 0 .698.057.992.17.294.113.542.277.743.494.203.217.359.48.469.79.11.301.165.645.165 1.031v4.715h-1.102v-4.432c0-.547-.124-.956-.372-1.229-.248-.273-.62-.41-1.115-.41-.376 0-.725.1-1.047.297a2.41 2.41 0 0 0-.799.82 2.854 2.854 0 0 0-.372 1.185l-.013-.819a3.82 3.82 0 0 1 .275-1.073 3.06 3.06 0 0 1 .537-.819c.21-.228.464-.41.744-.536.285-.123.583-.184.895-.184Zm4.033.142h4.05v1.058h-4.05v-1.058Zm1.474-1.836h1.101v8.894h-1.101v-8.894ZM71 53.904h1.019c.027.405.174.734.44.988.276.254.67.38 1.185.38.312 0 .555-.041.73-.126a.863.863 0 0 0 .4-.339 1.01 1.01 0 0 0 .123-.494c0-.217-.055-.386-.165-.508a1.114 1.114 0 0 0-.427-.325 4.908 4.908 0 0 0-.606-.24c-.276-.107-.551-.216-.826-.325a5.838 5.838 0 0 1-.785-.423 2.109 2.109 0 0 1-.579-.607 1.666 1.666 0 0 1-.22-.876c0-.282.055-.546.165-.79a1.82 1.82 0 0 1 .468-.65 2.3 2.3 0 0 1 .73-.437 2.7 2.7 0 0 1 .937-.156c.459 0 .844.094 1.157.283.32.188.564.456.73.805.174.338.266.734.275 1.185h-.95c-.065-.423-.198-.729-.4-.917-.192-.198-.473-.297-.84-.297-.376 0-.666.085-.867.254a.839.839 0 0 0-.303.678c0 .207.073.381.22.522.147.132.335.255.565.367.238.104.49.212.757.325.266.113.523.226.771.339.248.113.469.245.661.395.193.15.345.34.455.565.12.217.179.49.179.819 0 .395-.092.748-.275 1.059-.175.3-.437.536-.785.706-.34.169-.758.254-1.254.254-.45 0-.836-.057-1.157-.17a2.572 2.572 0 0 1-.785-.466 2.523 2.523 0 0 1-.495-.62 2.276 2.276 0 0 1-.22-.636 1.742 1.742 0 0 1-.028-.522Z" fill="#FEFEFE"/></g></svg>