<svg xmlns="http://www.w3.org/2000/svg" viewBox="0 0 90 90"><path fill="#D62021" d="M30.401 60V31H1v29z"/><path fill="#000005" d="M59.947 60V31H30.4v29z"/><path fill="#237BBD" d="M89 60V31H59.947v29z"/><path d="M18.783 53.36v-8.79c0-1.296-.248-2.243-.743-2.84s-1.303-.895-2.424-.895a3.741 3.741 0 0 0-1.664.44 3.844 3.844 0 0 0-1.385 1.094v10.998H9.043V38.099h2.544l.649 1.425c.96-1.12 2.379-1.68 4.256-1.681 1.797 0 3.217.543 4.26 1.628 1.042 1.086 1.561 2.6 1.558 4.54v9.349h-3.532.005Zm26.111.302c2.31 0 4.13-.675 5.465-2.024 1.335-1.348 2.002-3.268 2.002-5.76 0-5.353-2.413-8.03-7.24-8.03a4.528 4.528 0 0 0-3.262 1.27v-1.019h-3.536v19.314h3.536V52.99c.95.455 1.99.684 3.042.67l-.007.002ZM44.11 40.88c1.626 0 2.792.367 3.498 1.102.705.734 1.055 2 1.05 3.798 0 1.688-.354 2.922-1.064 3.703-.71.78-1.877 1.17-3.501 1.17a3.445 3.445 0 0 1-2.234-.778v-8.002a3.093 3.093 0 0 1 2.251-.995v.002Zm34.516.557a3.768 3.768 0 0 0-2.064-.6c-.817 0-1.541.374-2.173 1.122a4.085 4.085 0 0 0-.95 2.74v8.662h-3.53V38.1h3.533v1.46c.984-1.143 2.292-1.715 3.924-1.716 1.2 0 2.117.185 2.755.555l-1.493 3.048-.002-.009Z" fill="#FFF"/></svg>