<svg xmlns="http://www.w3.org/2000/svg" viewBox="0 0 90 90"><path fill="#FFF" d="M0 0h90v90H0z"/><path fill="#221F1F" d="M15.59 37.95c.29 2.9.4 5.16.4 10.2v11.02H10V30h7.52l5.87 11.48c1.44 2.8 3 6.04 4.07 8.95h.17c-.33-4.08-.33-8.11-.33-11.2V30h5.96v29.17H25.9l-6.33-12.32a83.67 83.67 0 01-3.82-8.9h-.16zM50.82 51.8c0-4.62-13.27-4-13.27-13.19 0-4.82 4.19-8.61 10.15-8.61 4.8 0 7.8 2.25 8.75 3.5l-3.9 4.7a6.68 6.68 0 00-5.39-2.7c-2.05 0-3.2 1.16-3.2 2.61 0 4.7 13.23 4 13.23 13.28 0 4.37-3.58 8.61-10.9 8.61-5.54 0-8.99-2.5-9.98-3.62l3.58-5.24c1.23 1.25 3.74 3.5 7.23 3.5 2.5 0 3.7-1.3 3.7-2.84m11.04-12.83l-2.43-4.93 5.5-3.85H71v29.03h-6.03V44.2l.2-7.46"/><path fill="#F4006F" d="M76.55 52.47A3.4 3.4 0 0180 55.99a3.36 3.36 0 01-3.45 3.35A3.34 3.34 0 0173.21 56c0-2.02 1.48-3.52 3.34-3.52"/></svg>