<svg viewBox="0 0 90 90" xmlns="http://www.w3.org/2000/svg"><path d="M83.137 17.964 51.863 1.661A14.871 14.871 0 0 0 45 0c-2.37 0-4.74.554-6.863 1.66L6.863 17.964C2.616 20.177 0 24.269 0 28.697v32.606c0 4.428 2.616 8.52 6.863 10.733L38.137 88.34A14.871 14.871 0 0 0 45 90c2.37 0 4.74-.554 6.863-1.66l31.274-16.304C87.384 69.823 90 65.731 90 61.303V28.697c0-4.428-2.616-8.52-6.863-10.733Zm-6.863 43.34L44.999 77.606 13.725 61.303V28.697l31.274-16.303 31.275 16.303v32.606ZM39.056 22.18c-1.895 2.963-.77 6.753 2.512 8.464l15.484 8.072v5.41L29.516 29.774a7.506 7.506 0 0 0-6.863 0c-2.123 1.107-3.431 3.153-3.431 5.366v19.72c0 2.214 1.308 4.26 3.431 5.367l18.915 9.86a7.413 7.413 0 0 0 3.426.831c2.371 0 4.678-1.111 5.95-3.099 1.895-2.964.77-6.754-2.512-8.465l-15.484-8.071v-5.41l27.536 14.354a7.506 7.506 0 0 0 6.863 0c2.123-1.107 3.431-3.153 3.431-5.366V35.14c0-2.214-1.308-4.26-3.431-5.367l-18.915-9.86c-3.283-1.71-7.48-.696-9.376 2.268Z" fill="#1E87D9"/></svg>