<svg viewBox="0 0 90 90" xmlns="http://www.w3.org/2000/svg"><g fill="none" fill-rule="evenodd"><path fill="#2C232E" d="M0 0h90v90H0z"/><g fill="#BEA8FF"><path fill-rule="nonzero" d="M35 33.75h-1.25L22.08 15H15v25h5V21.25h1.25L32.923 40H40V15h-5z"/><path d="M40 58.86c0-5.087-4.064-8.86-8.734-8.86H15v25h5v-7.5h7.143L32.5 75H40l-5.62-7.867c3.225-1.242 5.62-4.372 5.62-8.274Zm-9.369 3.64H20V55l10.631.023c2.25 0 4.369 1.445 4.369 3.737 0 2.291-2.119 3.74-4.369 3.74Z"/><path fill-rule="nonzero" d="M50 50v5h10v15H50v5h25v-5H65V55h10v-5zm12.5-15c5.27 0 7.5-2.895 7.5-7.5V15h5v13.948C75 35.261 69.73 40 62.5 40S50 35.261 50 28.948V15h5v12.5c0 4.605 2.23 7.5 7.5 7.5Z"/></g></g></svg>