<svg viewBox="0 0 90 90" xmlns="http://www.w3.org/2000/svg"><g fill="none"><path fill="#FFF" d="M0 0h90v90H0z"/><path d="M74.8 65.013c.183.152.244.41.168.623a.548.548 0 0 1-.537.364h-12.34a.525.525 0 0 1-.367-.137l-13.55-11.616a.563.563 0 0 1-.2-.426.56.56 0 0 1 .2-.425l6.161-5.284a.584.584 0 0 1 .751 0l19.728 16.916-.015-.015Zm-20.48-22.11a.582.582 0 0 0 .368.137c.122 0 .26-.046.368-.137l19.728-16.916a.569.569 0 0 0 .168-.623.548.548 0 0 0-.536-.364h-12.34a.525.525 0 0 0-.368.137l-13.55 11.616a.563.563 0 0 0-.2.426c0 .167.077.318.2.425l6.162 5.284v.015ZM51.73 45.5a.563.563 0 0 0-.2-.425L28.292 25.137a.552.552 0 0 0-.368-.137H15.569a.569.569 0 0 0-.537.364.562.562 0 0 0 .169.623L37.949 45.5 15.2 65.013a.569.569 0 0 0-.169.623.548.548 0 0 0 .537.364h12.34a.525.525 0 0 0 .367-.137L51.53 45.925a.563.563 0 0 0 .2-.425Z" fill="#5123F9"/></g></svg>