<svg viewBox="0 0 90 90" xmlns="http://www.w3.org/2000/svg"><g fill="none"><path fill="#76B900" d="M0 0h90v90H0z"/><path d="M36.099 36.019v-4.237c.412-.026.824-.052 1.236-.052 11.44-.367 18.937 9.99 18.937 9.99s-8.09 11.404-16.773 11.404c-1.159 0-2.293-.183-3.375-.55V39.708c4.458.549 5.36 2.537 8.013 7.062l5.951-5.075s-4.354-5.78-11.67-5.78a17.202 17.202 0 0 0-2.32.105m0-14.019v6.33l1.237-.079c15.897-.55 26.28 13.234 26.28 13.234s-11.904 14.7-24.296 14.7c-1.082 0-2.138-.105-3.195-.289v3.924c.876.104 1.778.183 2.654.183 11.542 0 19.89-5.99 27.98-13.051 1.34 1.098 6.827 3.74 7.96 4.89-7.677 6.54-25.583 11.796-35.734 11.796a24.96 24.96 0 0 1-2.834-.157V69H80V22H36.099Zm0 30.575v3.348C25.433 53.987 22.47 42.715 22.47 42.715s5.127-5.755 13.629-6.696v3.662h-.026c-4.457-.55-7.961 3.687-7.961 3.687s1.984 7.14 7.987 9.207M17.162 42.244s6.312-9.468 18.962-10.462v-3.453C22.11 29.48 10 41.511 10 41.511s6.853 20.14 26.099 21.97V59.82C21.98 58.04 17.162 42.244 17.162 42.244Z" fill="#FFF"/></g></svg>