<svg viewBox="0 0 90 90" xmlns="http://www.w3.org/2000/svg"><g fill="none" fill-rule="evenodd"><path fill="#353334" d="M0 0h90v90H0z"/><path d="M34.21 73.579c6.995 2.822 16.49 2.505 23.629-.783a30.734 30.734 0 0 0 17.096-21.283l.05-.274c.45-2.563.507-5.238.514-14.22v-5.042c-.012-10.56-.28-13.866-.63-14.18-.526-.452-4.285-2.018-4.922-2.018-.23 0-1.723 1.17-3.372 2.781l-2.34 2.342-1.52-1.034c-5.638-3.786-14.953-6.066-21.128-5.173-4.49.678-10.547 2.86-13.617 4.932l-.393.27c-.524.356-1.028.682-1.317.861a1.722 1.722 0 0 1-.576-.329c-.496-.402-1.158-1.038-1.948-1.865-1.576-1.617-3.041-2.785-3.271-2.785-.224 0-1.535.422-2.886.948-1.98.785-2.702 1.425-2.862 2.024-.132.506-.21 4.469-.216 9.39v1.75c.001 1.186.005 2.409.013 3.636l.006.92c.047 6.617.178 13.112.361 14.463.767 5.623 2.935 10.71 6.243 14.933 3.307 4.22 7.755 7.576 13.086 9.736Z" stroke="#FFF" fill="#FFF"/><g fill="#000" fill-rule="nonzero"><path d="M41.661 15.19c-4.421.667-10.387 2.81-13.405 4.847a37.51 37.51 0 0 1-1.93 1.265c-.281.176-1.369-.738-2.948-2.389-1.404-1.44-2.702-2.634-2.913-2.634-.21 0-1.439.421-2.702.913-1.685.668-2.422 1.16-2.562 1.686-.35 1.335-.21 27.119.175 29.964 1.51 11.065 8.528 20.023 19.021 24.273 6.878 2.775 16.213 2.46 23.232-.772a30.235 30.235 0 0 0 16.67-20.304c.666-2.705.701-4.04.701-18.196 0-11.628-.105-15.351-.456-15.667-.492-.422-4-1.897-4.597-1.897-.211 0-1.545 1.194-3.018 2.634l-2.632 2.635-1.86-1.265c-5.545-3.723-14.704-5.971-20.776-5.093Zm10.002 4.777c8.984 2.389 16.213 9.695 18.634 18.794.808 3.056.808 9.203 0 12.47-2.245 9.133-9.86 16.756-18.985 19.004-3.264.808-9.405.808-12.458 0-7.475-2.002-13.792-7.201-17.055-14.086-1.825-3.83-2.387-6.464-2.387-11.066 0-4.882.562-7.306 2.808-11.908 2.737-5.585 8.141-10.327 14.248-12.54 4.421-1.581 10.703-1.862 15.195-.668Z"/><path d="M30.677 33.983c-1.65.597-2.176 1.054-2.667 2.248-.246.527-.983 1.3-1.684 1.651-1.545.843-2.703 3.127-2.352 4.637.421 1.757 1.44 3.408 3.44 5.656 2.21 2.494 2.526 3.829 1.228 5.48-.386.491-.632 1.053-.492 1.23.702 1.158 10.248.561 16.143-1.02 8.493-2.248 13.3-4.777 18.565-9.765 1.965-1.862 3.65-3.443 3.79-3.583.245-.176-1.053-1.616-4.317-4.742-2.21-2.073-4-2.565-6.07-1.616-.843.351-1.826 1.089-2.142 1.58l-.596.914H36.818l-.596-.913c-.526-.808-3.018-2.249-3.86-2.214-.176 0-.948.211-1.685.457Zm3.018 1.3c3.334 1.721 2.246 6.639-1.474 6.639-1.895 0-3.158-1.124-3.439-2.986-.35-2.705 2.527-4.847 4.913-3.653Zm26.776.808c1.58 1.58 1.65 3.337.176 4.812-.807.808-1.334 1.019-2.492 1.019-3.544 0-4.843-4.531-1.825-6.428 1.51-.949 2.808-.738 4.141.597Zm-.21 9.344c.35.246.386.456.175.597-5.264 3.794-10.668 6.182-17.546 7.869-5.756 1.37-7.826.737-9.862-3.021-2.035-3.724-2.842-3.338 8.984-4.602 10.634-1.124 17.336-1.44 18.249-.843Z"/><path d="M30.923 35.985c-.105.211.035.633.35.949.527.527.562.492.562-.387 0-.948-.456-1.264-.912-.562Zm3.017 1.546c-.35.457-.315.527.317.527.386 0 .737-.14.737-.316 0-.632-.632-.738-1.053-.211Zm-4.35 2.108c.14.28.245.527.315.527.035 0 .28-.246.527-.527.35-.457.315-.527-.281-.527-.527 0-.702.175-.562.527Zm3.298 1.054c0 .562.562.702.842.21.106-.175-.035-.386-.316-.527-.315-.105-.526 0-.526.317Zm23.934-4.848c-.351.14-.351.28-.035.667.526.633 1.017.633 1.017 0 0-.632-.386-.878-.982-.667Zm3.088 1.686c-.351.457-.316.527.316.527.386 0 .737-.14.737-.316 0-.632-.632-.738-1.053-.211Zm-4.562 1.897c0 .632.631.738 1.053.21.35-.456.315-.526-.316-.526-.386 0-.737.14-.737.316Zm3.158 1.054c0 .421.21.737.527.737.28 0 .526-.14.526-.316 0-.175-.246-.491-.526-.737-.457-.352-.527-.317-.527.316Z"/></g></g></svg>