<svg xmlns="http://www.w3.org/2000/svg" viewBox="0 0 90 90"><path fill="#fff" d="M0 0h90v90H0z"/><path fill="#100F0D" d="M29.34 71.78V57.6c0-2.54-.72-3.56-2.54-3.56-1.83 0-2.55 1.02-2.55 3.56v14.18c0 2.5.77 3.56 2.55 3.56 1.77 0 2.54-1.06 2.54-3.56Zm-10.17.34V57.4c0-5.17 2.63-7.88 7.63-7.88s7.62 2.71 7.62 7.88v14.73c0 5.17-2.63 7.88-7.62 7.88-5 0-7.63-2.71-7.63-7.88Zm29.81-2.92c0-1.9-.93-2.83-2.84-2.83h-2.62v8.72h2.62c1.91 0 2.84-.93 2.84-2.84V69.2Zm-5.46-7.24h2.12c1.9 0 2.83-.93 2.83-2.84V57.1c0-1.9-.93-2.84-2.83-2.84h-2.12v7.71Zm10.54 7.24v3.64c0 4.62-2.45 6.74-6.98 6.74h-8.64V49.93h7.58c4.66 0 7.53 1.57 7.53 6.23v2.5c0 2.54-.97 4.57-3.38 5.38 2.58.67 3.9 2.41 3.9 5.16Zm3.05 3.9v-3.94h4.95v3.39c0 1.99.9 2.96 2.63 2.96 1.7 0 2.54-.93 2.54-2.84v-.55c0-1.94-1.02-3.72-2.84-5l-2.8-1.94c-2.53-1.78-4.23-4.45-4.23-7.54v-1.31c0-4.36 2.63-6.82 7.33-6.82 4.62 0 7.33 2.54 7.33 6.82v3.22h-4.83V56.7c0-1.95-.8-2.88-2.42-2.88-1.6 0-2.37.93-2.37 2.8v.55c0 1.52.9 3 2.5 4.1l2.75 1.9c2.97 2.08 4.62 4.96 4.62 8.6v1.32c0 4.44-2.67 6.9-7.58 6.9-4.79 0-7.58-2.58-7.58-6.9Z"/><path fill="#EE212E" d="M78 20.26a10.26 10.26 0 0 1-20.5.9c.62.07 1.21.2 1.78.38a8.55 8.55 0 1 0-.08-1.8 10.6 10.6 0 0 0-1.7-.3 10.27 10.27 0 0 1 20.5.82Z"/><path fill="#2EAA48" d="M65.15 30.2a8.55 8.55 0 1 1-11.2-8.66 8.68 8.68 0 0 0 .08-1.8 10.27 10.27 0 1 0 12.81 10.75 9.76 9.76 0 0 1-1.7-.3Zm-8.53-9.08a8.56 8.56 0 0 1 8.45 7.27c.57.19 1.16.31 1.77.38a10.26 10.26 0 0 0-11.11-9.32 11.65 11.65 0 0 1 0 1.71c.29-.03.58-.04.89-.04Z"/><path fill="#100F0D" d="M45.5 28.82a8.56 8.56 0 0 1-8.46-7.28 8.54 8.54 0 0 0-1.77-.38A10.26 10.26 0 0 0 46.4 30.5a11.07 11.07 0 0 1 0-1.72c-.3.03-.6.05-.9.05Zm0-18.82c-5.4 0-9.82 4.16-10.23 9.45.58.05 1.14.14 1.7.29a8.55 8.55 0 1 1 11.19 8.65 8.68 8.68 0 0 0-.08 1.8A10.27 10.27 0 0 0 45.5 10Z"/><path fill="#F9A80E" d="M44.6 30.49a10.26 10.26 0 1 1-12.8-10.75l.01.52c0 .44-.03.86-.1 1.28a8.55 8.55 0 1 0 11.2 8.66c.55.14 1.12.24 1.7.29Zm-11.12-9.33a10.74 10.74 0 0 0 .01-1.71 10.27 10.27 0 0 1 11.11 9.32c-.6-.07-1.2-.2-1.76-.38a8.56 8.56 0 0 0-9.36-7.23Z"/><path fill="#3E72C2" d="M33.52 20.26a10.26 10.26 0 1 0-9.37 10.23 11.11 11.11 0 0 1 0-1.72 8.55 8.55 0 1 1 1.77-.38 8.9 8.9 0 0 0-.08 1.8 10.27 10.27 0 0 0 7.68-9.93Z"/></svg>