<svg viewBox="0 0 90 90" xmlns="http://www.w3.org/2000/svg" xmlns:xlink="http://www.w3.org/1999/xlink"><defs><radialGradient cx="11.128%" cy="113.508%" fx="11.128%" fy="113.508%" r="134.191%" gradientTransform="matrix(-.15166 -.5273 .98843 -.08091 -.994 1.286)" id="c"><stop stop-color="#FFF" stop-opacity=".4" offset="0%"/><stop stop-opacity=".1" offset="100%"/></radialGradient><radialGradient cx="132.93%" cy="61.85%" fx="132.93%" fy="61.85%" r="190.462%" gradientTransform="matrix(.1308 -.49722 .99141 .0656 .542 1.239)" id="d"><stop stop-color="#FFF" stop-opacity=".6" offset="0%"/><stop stop-color="#FFF" stop-opacity=".1" offset="100%"/></radialGradient><radialGradient cx="96.574%" cy="69.09%" fx="96.574%" fy="69.09%" r="160.637%" gradientTransform="matrix(-.19087 -.56739 .98162 -.11033 .472 1.315)" id="e"><stop stop-color="#FFF" stop-opacity=".8" offset="0%"/><stop stop-color="#FFF" stop-opacity=".4" offset="100%"/></radialGradient><radialGradient cx="45.558%" cy="137.154%" fx="45.558%" fy="137.154%" r="85.2%" gradientTransform="scale(-.8704 -1) rotate(63.875 2.166 -.785)" id="f"><stop stop-color="#FFF" stop-opacity=".3" offset="0%"/><stop stop-opacity=".3" offset="100%"/></radialGradient><radialGradient cx="116.911%" cy="34.771%" fx="116.911%" fy="34.771%" r="328.604%" gradientTransform="matrix(-.21194 .18949 -.97728 -.0411 1.757 .14)" id="g"><stop stop-color="#FFF" stop-opacity="0" offset="0%"/><stop stop-color="#FFF" stop-opacity=".2" offset="100%"/></radialGradient><radialGradient cx="-9.169%" cy="8.744%" fx="-9.169%" fy="8.744%" r="153.007%" gradientTransform="matrix(.7031 .5846 -.7111 .57802 .035 .09)" id="h"><stop stop-color="#FFF" stop-opacity=".2" offset="0%"/><stop stop-color="#FFF" stop-opacity=".4" offset="100%"/></radialGradient><radialGradient cx="129.537%" cy="-19.329%" fx="129.537%" fy="-19.329%" r="351.668%" gradientTransform="scale(1 .2303) rotate(86.04 1.642 -.516)" id="i"><stop stop-color="#FFF" stop-opacity=".2" offset="0%"/><stop stop-color="#FFF" stop-opacity=".3" offset="100%"/></radialGradient><radialGradient cx="99.321%" cy="89.234%" fx="99.321%" fy="89.234%" r="204.048%" gradientTransform="scale(-.53156 -1) rotate(27.711 3.18 -5.801)" id="j"><stop stop-color="#FFF" stop-opacity=".2" offset="0%"/><stop stop-color="#FFF" stop-opacity=".2" offset="50%"/><stop stop-color="#FFF" stop-opacity=".3" offset="100%"/></radialGradient><path id="a" d="M0 0h74v74H0z"/></defs><g fill="none" fill-rule="evenodd"><path fill="#151515" d="M0 0h90v90H0z"/><g transform="translate(8 8)"><mask id="b" fill="#fff"><use xlink:href="#a"/></mask><g fill-rule="nonzero" mask="url(#b)"><path d="M55.225 68.71c-.448 3.382-3.757 6.013-7.038 5.102-4.683-1.286-10.103-3.295-14.974-3.671l-7.472-.578a4.914 4.914 0 0 1-3.18-1.474L9.698 54.835a4.914 4.914 0 0 1-.968-5.449s7.949-17.488 8.252-18.399c.29-.91 1.388-8.845 2.024-13.094a4.853 4.853 0 0 1 1.59-2.934L35.815 1.257a4.929 4.929 0 0 1 7.169.622L55.76 18.124a5.348 5.348 0 0 1 1.099 3.238c0 3.078.26 9.394 1.965 13.47 1.662 3.946 4.697 8.238 6.287 10.334a2.5 2.5 0 0 1 .188 2.775 215.93 215.93 0 0 1-6.475 10.204c-2.168 3.223-3.165 7.212-3.613 10.565h.014Z" fill="#6C31E3"/><path d="M15.655 69.105c5.984-12.14 5.81-20.841 3.267-27.027-2.342-5.724-6.692-9.323-10.117-11.563a6.523 6.523 0 0 1-.318.94l-8.05 17.95a4.914 4.914 0 0 0 .953 5.45l12.878 13.253c.4.416.87.758 1.387 1.011v-.014Z" fill="url(#c)" transform="translate(8.293 -.005)"/><path d="M31.915 44.462c1.619.174 3.209.52 4.74 1.099 4.915 1.835 9.395 5.955 13.08 13.918.261-.448.521-.896.81-1.33a222 222 0 0 0 6.475-10.203 2.457 2.457 0 0 0-.188-2.775c-1.59-2.11-4.625-6.389-6.287-10.334-1.705-4.076-1.95-10.407-1.965-13.47a5.247 5.247 0 0 0-1.099-3.238L34.691 1.883a4.914 4.914 0 0 0-.218-.245c.842 2.52.942 5.229.29 7.804a28.66 28.66 0 0 1-2.544 5.97l-1.04 2.052a24.715 24.715 0 0 0-2.805 10.262c-.173 4.249.694 9.597 3.541 16.736Z" fill="url(#d)" transform="translate(8.293 -.005)"/><path d="M31.915 44.462c-2.847-7.14-3.729-12.487-3.54-16.75a24.715 24.715 0 0 1 2.803-10.263c.333-.693.694-1.373 1.04-2.037 1.027-2.01 2.024-3.903 2.544-5.984a13.875 13.875 0 0 0-.289-7.805 4.929 4.929 0 0 0-6.952-.347L12.288 14.978a4.929 4.929 0 0 0-1.576 2.934l-1.85 12.285-.072.333c3.44 2.24 7.805 5.839 10.132 11.562.48 1.16.858 2.359 1.127 3.584 4.047-.982 8.05-1.59 11.866-1.2v-.014Z" fill="url(#e)" transform="translate(8.293 -.005)"/><path d="M39.893 73.831c3.281.896 6.591-1.734 7.039-5.116a27.027 27.027 0 0 1 2.804-9.236c-3.7-7.949-8.166-12.083-13.066-13.918-5.203-1.937-10.868-1.301-16.62.101 1.286 5.84.52 13.485-4.395 23.443.579.26 1.171.434 1.807.477 0 0 3.527.289 7.747.592 4.191.29 10.464 2.472 14.684 3.643v.014Z" fill="url(#f)" transform="translate(8.293 -.005)"/><path d="M19.598 22.33c-.187 4.22.347 9.077 3.195 16.202l-.897-.072c-2.558-7.444-3.107-11.274-2.919-15.552a25.25 25.25 0 0 1 2.948-10.406c.347-.708 1.157-2.038 1.518-2.717 1.026-1.98 1.72-3.035 2.312-4.856.824-2.53.65-3.744.55-4.929.665 4.321-1.836 8.094-3.715 11.91a25.596 25.596 0 0 0-2.992 10.406v.014Z" fill="url(#g)" transform="translate(17.098 5.102)"/><path d="M10.955 37.275c.347.78.665 1.416.868 2.384l-.766.16c-.304-1.128-.55-1.937-.983-2.891C7.5 30.858 3.382 27.736 0 25.438c4.076 2.196 8.267 5.636 10.941 11.837h.014Z" fill="url(#h)" transform="translate(17.098 5.102)"/><path d="M11.866 40.41c1.416 6.65-.173 15.061-4.856 23.256 3.917-8.123 5.81-15.913 4.235-23.125l.621-.13Z" fill="url(#i)" transform="translate(17.098 5.102)"/><path d="M28.04 39.818c7.674 2.877 10.637 9.193 12.848 14.453-2.746-5.506-6.533-11.605-13.124-13.875-5.03-1.705-9.264-1.503-16.52.145l-.158-.723c7.689-1.748 11.707-1.95 16.953 0Z" fill="url(#j)" transform="translate(17.098 5.102)"/></g></g></g></svg>