<svg xmlns="http://www.w3.org/2000/svg" viewBox="0 0 90 90"><path d="M47.98 44.65c-2.4 0-5.62 1.39-9.66 4.16-4.25 2.9-6.37 5.45-6.37 7.63 0 1.84 1.24 3.4 3.7 4.65a12.9 12.9 0 0 0 6.27 1.68c3.08 0 5.99-.89 8.73-2.67 3.08-1.91 4.63-4.32 4.63-7.23 0-1.78-.76-3.6-2.27-5.45-1.5-1.84-3.18-2.77-5.03-2.77Zm16.54 6.14c0 6.6-2.46 11.82-7.4 15.65-4.59 3.5-10.41 5.25-17.46 5.25-4.25 0-7.74-.83-10.48-2.48a9.31 9.31 0 0 1-5.04-8.61c0-4.23 2.2-9.36 6.58-15.4 4.38-6.04 10.34-9.06 17.88-9.06 2.26 0 4.72.26 7.4.79-.35-2.31-1.03-3.94-2.06-4.9-1.03-.96-2.7-1.44-5.03-1.44-2 0-4.83.37-8.53 1.1-3.7.72-6.27 1.08-7.7 1.08-1.31 0-2.5-.6-3.55-1.83a5.74 5.74 0 0 1-1.6-3.81c0-1.39 1.24-2.41 3.7-3.07a75.85 75.85 0 0 1 19.21-2.57c4.05 0 6.82.56 8.33 1.68 2.26 1.71 3.76 5.15 4.52 10.3.27 3.89.58 7.79.92 11.68.2 2.64.31 4.52.31 5.64Zm11.92-7.28c0-8.33-2.47-15.7-7.4-22.11-5.34-7-12.23-10.51-20.65-10.51-5.27 0-10.75 1.62-16.44 4.86-12.88 7.4-19.31 18.11-19.31 32.12 0 8.4 2.43 15.77 7.3 22.12 5.33 7.07 12.22 10.6 20.64 10.6 5.28 0 10.72-1.62 16.34-4.85 13.01-7.4 19.52-18.15 19.52-32.23ZM90 37.23c0 8.25-2.47 16.48-7.4 24.7a61.68 61.68 0 0 1-19.1 20.05C55.2 87.32 46.7 90 38.01 90c-10.63 0-19.61-3.61-26.98-10.84C3.69 71.93 0 63.2 0 52.97c0-8.25 2.47-16.5 7.4-24.75a61.84 61.84 0 0 1 19-20.1C34.63 2.71 43.08 0 51.78 0 62.33 0 71.33 3.65 78.8 10.94 86.27 18.24 90 27 90 37.23Z" fill="#CC1E1F" fill-rule="evenodd"/></svg>