<?xml version="1.0" encoding="UTF-8"?>
<svg width="90px" height="90px" viewBox="0 0 90 90" version="1.1" xmlns="http://www.w3.org/2000/svg" xmlns:xlink="http://www.w3.org/1999/xlink">
    <title>office.microsoft.com</title>
    <defs>
        <linearGradient x1="49.9768398%" y1="-5.7%" x2="49.9768398%" y2="93%" id="linearGradient-1">
            <stop stop-color="#FFB900" offset="0%"></stop>
            <stop stop-color="#EF8400" offset="17%"></stop>
            <stop stop-color="#E25C01" offset="31%"></stop>
            <stop stop-color="#DB4401" offset="43%"></stop>
            <stop stop-color="#D83B01" offset="50%"></stop>
        </linearGradient>
        <linearGradient x1="65.1312555%" y1="-2.30735625%" x2="22.0717318%" y2="92.4889251%" id="linearGradient-2">
            <stop stop-color="#800600" offset="0%"></stop>
            <stop stop-color="#C72127" offset="60%"></stop>
            <stop stop-color="#C13959" offset="73%"></stop>
            <stop stop-color="#BC4B81" offset="85%"></stop>
            <stop stop-color="#B95799" offset="94%"></stop>
            <stop stop-color="#B85BA2" offset="100%"></stop>
        </linearGradient>
        <linearGradient x1="7.88912504%" y1="50.0377248%" x2="191.841076%" y2="50.0377248%" id="linearGradient-3">
            <stop stop-color="#F32B44" offset="0%"></stop>
            <stop stop-color="#A4070A" offset="60%"></stop>
        </linearGradient>
        <linearGradient x1="66.0100212%" y1="-4.23376572%" x2="56.8928262%" y2="15.8347637%" id="linearGradient-4">
            <stop stop-color="#000000" stop-opacity="0.4" offset="0%"></stop>
            <stop stop-color="#000000" stop-opacity="0" offset="100%"></stop>
        </linearGradient>
        <linearGradient x1="132.890182%" y1="52.5035325%" x2="50.5296726%" y2="48.173091%" id="linearGradient-5">
            <stop stop-color="#000000" stop-opacity="0.4" offset="0%"></stop>
            <stop stop-color="#000000" stop-opacity="0" offset="100%"></stop>
        </linearGradient>
    </defs>
    <g id="office.microsoft" stroke="none" stroke-width="1" fill="none" fill-rule="evenodd">
        <g id="Microsoft_Office_logo_(2019–present)-Copy" transform="translate(10.000000, 0.000000)" fill-rule="nonzero">
            <path d="M39.064798,0.357154675 L45.8541715,15.9795585 L45.8541715,70.2860099 L39.1683396,89.6280336 L64.4472923,82.382214 C68.3207921,81.2627732 70.9920735,77.7023997 71,73.6485463 L71,16.336642 C71.0017543,12.2714343 68.3200983,8.699208 64.4325006,7.58809587 L39.064798,0.357154675 Z" id="Path" fill="url(#linearGradient-1)"></path>
            <path d="M7.01126357,69.7057492 L14.4070952,65.6885596 C16.4730911,64.546425 17.7549059,62.3613962 17.7500111,59.9901018 L17.7500111,30.753889 C17.7528027,28.0260722 19.4480802,25.5900328 21.9952185,24.6537122 L45.8541715,15.9795585 L45.8541715,9.38839193 C45.8484857,5.19122101 43.0781092,1.50606097 39.064798,0.357154675 C38.232919,0.116874412 37.3713308,-0.00335381445 36.5058403,0 L36.5058403,0 C34.8779226,0.00381645191 33.2783839,0.429106039 31.861258,1.23498498 L4.55584745,16.9020242 C1.73915189,18.5164409 0,21.5267108 0,24.7876186 L0,65.4951394 C-0.00420892865,67.1807587 0.875245261,68.7437896 2.31409394,69.6078911 C3.75294262,70.4719926 5.53807868,70.5091831 7.01126357,69.7057492 Z" id="Path" fill="url(#linearGradient-2)"></path>
            <path d="M45.8542054,70.2860099 L17.6464695,70.2860099 C15.5049509,70.3090851 13.6420871,71.7670487 13.093488,73.8493846 C12.5448889,75.9317204 13.4454773,78.1262971 15.294595,79.2130978 L32.0979246,88.7948388 C33.4819514,89.5862141 35.046949,90.0015523 36.6389652,90 L36.6389652,90 C37.4955173,89.999433 38.3474773,89.8741464 39.1683396,89.6280336 C43.1334408,88.4948334 45.8653163,84.8471657 45.8542054,80.7009457 L45.8542054,70.2860099 Z" id="Path" fill="url(#linearGradient-3)"></path>
            <path d="M7.01126357,69.7057492 L14.4070952,65.6885596 C16.4730911,64.546425 17.7549059,62.3613962 17.7500111,59.9901018 L17.7500111,30.753889 C17.7528027,28.0260722 19.4480802,25.5900328 21.9952185,24.6537122 L45.8541715,15.9795585 L45.8541715,9.38839193 C45.8484857,5.19122101 43.0781092,1.50606097 39.064798,0.357154675 C38.232919,0.116874412 37.3713308,-0.00335381445 36.5058403,0 L36.5058403,0 C34.8779226,0.00381645191 33.2783839,0.429106039 31.861258,1.23498498 L4.55584745,16.9020242 C1.73915189,18.5164409 0,21.5267108 0,24.7876186 L0,65.4951394 C-0.00420892865,67.1807587 0.875245261,68.7437896 2.31409394,69.6078911 C3.75294262,70.4719926 5.53807868,70.5091831 7.01126357,69.7057492 Z" id="Path" fill="url(#linearGradient-4)"></path>
            <path d="M45.8542054,70.2860099 L17.6464695,70.2860099 C15.5049509,70.3090851 13.6420871,71.7670487 13.093488,73.8493846 C12.5448889,75.9317204 13.4454773,78.1262971 15.294595,79.2130978 L32.0979246,88.7948388 C33.4819514,89.5862141 35.046949,90.0015523 36.6389652,90 L36.6389652,90 C37.4955173,89.999433 38.3474773,89.8741464 39.1683396,89.6280336 C43.1334408,88.4948334 45.8653163,84.8471657 45.8542054,80.7009457 L45.8542054,70.2860099 Z" id="Path" fill="url(#linearGradient-5)"></path>
        </g>
    </g>
</svg>