<svg xmlns="http://www.w3.org/2000/svg" viewBox="0 0 90 90"><defs><linearGradient x1="34.424%" y1="59.587%" x2="112.668%" y2="21.758%" id="a"><stop stop-color="#FF9E1B" offset="0%"/><stop stop-color="#FE8211" offset="16%"/><stop stop-color="#FD6B0A" offset="34%"/><stop stop-color="#FD5A04" offset="53%"/><stop stop-color="#FD5001" offset="74%"/><stop stop-color="#FD4D00" offset="100%"/><stop stop-color="#FF4D00" offset="100%"/></linearGradient></defs><path fill="#FFF" d="M0 0h90v90H0z"/><g transform="translate(8 30)" fill="url(#a)"><path d="M32.31 26.66c0 1.71 1.39 3.1 3.1 3.1 1.71 0 3.1-1.39 3.1-3.1 0-4.79 3.89-8.68 8.68-8.68 1.71 0 3.1-1.39 3.1-3.1 0-1.71-1.39-3.1-3.1-3.1-8.22 0-14.88 6.66-14.88 14.88m-8.74-11.78c0 4.79-3.89 8.68-8.68 8.68-4.79 0-8.68-3.89-8.68-8.68 0-4.79 3.89-8.68 8.68-8.68 4.79 0 8.68 3.89 8.68 8.68m6.2 0C29.76 6.66 23.1 0 14.88 0S0 6.66 0 14.88s6.66 14.88 14.88 14.88 14.88-6.66 14.88-14.88m43.56-9.83c.98-1.4.76-3.38-.61-4.4a3.124 3.124 0 0 0-4.43.71l-4.73 6.75c-.5.71-1.55.71-2.05 0l-4.73-6.75A3.12 3.12 0 0 0 54.22.03H35.47c-1.71 0-3.1 1.39-3.1 3.1v6.13c0 1.71 1.32 3.2 3.03 3.25 1.77.05 3.22-1.36 3.22-3.12V7.51c0-.68.56-1.24 1.24-1.24h12.09c.41 0 .79.2 1.02.53l4.24 6.06c.9 1.29.9 3.01 0 4.3l-5.47 7.82c-.98 1.4-.76 3.38.61 4.4 1.42 1.06 3.42.73 4.43-.71l4.73-6.75c.5-.71 1.55-.71 2.05 0l4.65 6.64c.98 1.4 2.91 1.87 4.34.93 1.48-.97 1.85-2.96.85-4.4l-5.55-7.92c-.9-1.29-.9-3.01 0-4.3l5.47-7.82Z"/><path d="M32.31 26.66c0 1.71 1.39 3.1 3.1 3.1 1.71 0 3.1-1.39 3.1-3.1 0-4.79 3.89-8.68 8.68-8.68 1.71 0 3.1-1.39 3.1-3.1 0-1.71-1.39-3.1-3.1-3.1-8.22 0-14.88 6.66-14.88 14.88m-8.74-11.78c0 4.79-3.89 8.68-8.68 8.68-4.79 0-8.68-3.89-8.68-8.68 0-4.79 3.89-8.68 8.68-8.68 4.79 0 8.68 3.89 8.68 8.68m6.2 0C29.76 6.66 23.1 0 14.88 0S0 6.66 0 14.88s6.66 14.88 14.88 14.88 14.88-6.66 14.88-14.88m43.56-9.83c.98-1.4.76-3.38-.61-4.4a3.124 3.124 0 0 0-4.43.71l-4.73 6.75c-.5.71-1.55.71-2.05 0l-4.73-6.75A3.12 3.12 0 0 0 54.22.03H35.47c-1.71 0-3.1 1.39-3.1 3.1v6.13c0 1.71 1.32 3.2 3.03 3.25 1.77.05 3.22-1.36 3.22-3.12V7.51c0-.68.56-1.24 1.24-1.24h12.09c.41 0 .79.2 1.02.53l4.24 6.06c.9 1.29.9 3.01 0 4.3l-5.47 7.82c-.98 1.4-.76 3.38.61 4.4 1.42 1.06 3.42.73 4.43-.71l4.73-6.75c.5-.71 1.55-.71 2.05 0l4.65 6.64c.98 1.4 2.91 1.87 4.34.93 1.48-.97 1.85-2.96.85-4.4l-5.55-7.92c-.9-1.29-.9-3.01 0-4.3l5.47-7.82Z"/></g></svg>