<svg xmlns="http://www.w3.org/2000/svg" viewBox="0 0 90 90"><path fill="#F70" d="M0 0h90v90H0z"/><path d="M55.794 39.666A15.15 15.15 0 0 1 45 44.19a15.15 15.15 0 0 1-10.794-4.525 15.49 15.49 0 0 1-3.294-16.75c2.355-5.74 7.905-9.507 14.088-9.56 6.195.042 11.76 3.812 14.118 9.565a15.49 15.49 0 0 1-3.324 16.774v-.03ZM44.972 21.763c-3.846 0-6.964 3.13-6.964 6.993 0 3.861 3.118 6.992 6.964 6.992 3.845 0 6.963-3.13 6.963-6.992s-3.118-6.993-6.963-6.993Zm16.063 22.479 4.471 6.177a.713.713 0 0 1-.114.972 31.306 31.306 0 0 1-12.702 6.263l8.63 16.816a.718.718 0 0 1-.013.709.711.711 0 0 1-.614.35h-9.256a.72.72 0 0 1-.655-.43L45 61.23 39.19 75.1a.712.712 0 0 1-.655.43h-9.257c-.54 0-.854-.573-.626-1.059l8.658-16.816c-4.557-1.086-8.943-3.146-12.702-6.263a.717.717 0 0 1-.143-.972l4.5-6.149a.74.74 0 0 1 1.054-.143A23.132 23.132 0 0 0 45 50.133c5.554 0 10.737-2.345 14.981-6.006.285-.286.797-.229 1.054.115Z" fill="#FFF"/></svg>