<svg viewBox="0 0 90 90" xmlns="http://www.w3.org/2000/svg"><g fill="none" fill-rule="evenodd"><path fill="#F749B8" d="M0 0h90v90H0z"/><path d="M54.54 16c3.062 0 6.078.774 8.35 2.394l.292.216 2.754 2.113-1.249 9.362.022-.007c1.138-.368 2.359-.545 3.756-.594l.472-.011.373-.003c7.075 0 11.82 3.185 11.82 9.69 0 2.695-.815 5.026-2.432 6.927l-.226.256-1.953 2.152-3.002-.206-.222-.013-.45-.018-.505-.012-.328.391 1.359 2.458 3.51 1.282c2.483 1.754 3.489 4.466 3.489 7.232 0 3.953-2.146 7.147-5.667 8.878-2.461 1.21-5.49 1.702-9.223 1.702-2.539 0-4.52-.558-6.155-1.706l-.255-.186-.075-.059-2.787 1.03c-1.745.644-3.623.869-5.966.912l-.474.007-.488.002c-.461 0-.912-.02-1.35-.062l-.435-.048-.092-.013-.189.263.038-.284-.043-.006c-2.705-.405-4.912-1.623-6.37-3.506-3.726 2.45-8.442 3.797-13.909 3.797C15.428 70.33 8 63.938 8 52.219c0-13.597 9.002-22.89 22.76-22.89 4.731 0 8.65.983 11.696 2.812l.732-5.57C44.09 19.506 47.862 16 54.54 16Z" fill="#FFF" fill-rule="nonzero"/><path d="M65.48 64.189c5.68 0 8.89-1.37 8.89-4.58 0-.89-.27-1.85-.95-2.33-.82.211-1.85.28-2.46.28-.76 0-1.1-.479-1.44-1.03l-4.65-8.41c4.03-5.54 4.85-5.879 6.29-5.879.82 0 1.85 0 2.87.07.69-.76 1.1-1.71 1.1-3.15 0-2.46-1.51-3.69-5.82-3.69-4.1 0-4.85.68-12.99 11.97l3.21-24.07c-1.16-.89-3.07-1.37-4.99-1.37-3.42 0-4.85 1.02-5.4 5.33l-3.83 29.129c-.27 1.851-.41 3.15-.41 3.9 0 2.6 1.37 3.83 4.38 3.83 1.43 0 3.55-.07 4.85-.55l1.71-12.86 4.58 9.381c1.44 3.069 2.4 4.029 5.06 4.029Zm-35.27-22.23c3.56 0 4.65 1.99 4.65 6.02 0 6.22-2.87 9.851-6.63 9.851-3.35 0-4.51-1.851-4.51-5.951 0-5.68 2.32-9.92 6.49-9.92ZM26.93 64.33c10.94 0 17.23-6.431 17.23-16.761 0-7.32-3.49-12.24-13.4-12.24-10.6 0-16.76 6.77-16.76 16.89 0 8.68 5.13 12.111 12.93 12.111Z" fill="#094AA3"/></g></svg>