<svg viewBox="0 0 90 90" xmlns="http://www.w3.org/2000/svg"><g fill="none" fill-rule="evenodd"><path fill="#FFF" d="M0 0h90v90H0z"/><path d="m48.01 15.417-1.234 15.2c-.584-.067-1.167-.1-1.768-.1-.75 0-1.484.05-2.201.166l-.7-7.366a.403.403 0 0 1 .4-.434h1.25l-.6-7.45c-.017-.233.167-.433.384-.433h4.086c.233 0 .417.2.383.433v-.016Zm-10.307.75c-.066-.217-.3-.35-.517-.267l-3.836 1.4a.39.39 0 0 0-.216.533l3.118 6.8-1.184.434a.39.39 0 0 0-.217.533l3.186 6.683a14.305 14.305 0 0 1 3.72-1.416l-4.037-14.7h-.017ZM28.297 20.4l8.823 12.433a14.458 14.458 0 0 0-3.002 2.6l-5.287-5.2a.403.403 0 0 1 .016-.583l.968-.8-5.254-5.317a.39.39 0 0 1 .033-.583l3.12-2.617a.386.386 0 0 1 .566.067h.017Zm-7.405 7.2c-.183-.133-.45-.067-.567.133l-2.035 3.534c-.117.2-.033.45.167.55l6.771 3.2-.634 1.083a.383.383 0 0 0 .184.55l6.738 3.083a14.11 14.11 0 0 1 1.934-3.466L20.892 27.6Zm-4.987 9.6c.034-.233.267-.367.484-.317l14.76 3.85a14.6 14.6 0 0 0-.634 3.934l-7.388-.6a.385.385 0 0 1-.35-.467l.216-1.233-7.455-.7c-.233-.017-.383-.234-.35-.467l.7-4.017.017.017Zm-.55 9.967c-.234.016-.384.233-.35.466l.717 4.017c.033.233.267.367.483.317l7.239-1.884.217 1.234c.033.233.266.366.483.316l7.138-1.966a14.434 14.434 0 0 1-.75-3.9l-15.194 1.4h.017Zm2.368 10.566a.394.394 0 0 1 .167-.55l13.776-6.533a14.201 14.201 0 0 0 2.051 3.417l-6.037 4.3a.392.392 0 0 1-.567-.117l-.634-1.1-6.154 4.25c-.184.133-.45.067-.567-.133l-2.052-3.534h.017Zm16.695-2.866-10.724 10.85a.39.39 0 0 0 .033.583l3.136 2.617c.183.15.433.116.567-.067l4.336-6.1.967.817c.184.15.45.116.584-.084l4.203-6.1a14.985 14.985 0 0 1-3.086-2.516h-.016ZM32.3 72.283a.39.39 0 0 1-.217-.533l6.354-13.867c1.168.6 2.435 1.05 3.753 1.3l-1.868 7.167c-.05.217-.3.35-.517.267l-1.184-.434-1.985 7.217c-.067.217-.3.35-.517.267l-3.836-1.4.017.016Zm10.94-12.916-1.234 15.2c-.016.233.167.433.384.433h4.086c.233 0 .417-.2.384-.433l-.6-7.45h1.25c.234 0 .417-.2.4-.434l-.7-7.366a13.77 13.77 0 0 1-2.202.166c-.6 0-1.184-.033-1.768-.116Zm14.71-41.15c.1-.217 0-.45-.216-.534l-3.836-1.4c-.217-.083-.45.05-.517.267l-1.985 7.217-1.184-.434c-.217-.083-.45.05-.517.267l-1.868 7.167c1.334.266 2.585.716 3.752 1.3l6.371-13.85Zm8.373 6.05-10.724 10.85a14.555 14.555 0 0 0-3.086-2.517l4.203-6.1a.407.407 0 0 1 .584-.083l.967.816 4.337-6.1a.387.387 0 0 1 .567-.066l3.135 2.616c.184.15.184.417.033.584h-.016Zm5.804 8.533c.217-.1.283-.35.167-.55l-2.052-3.533a.41.41 0 0 0-.567-.134l-6.154 4.25-.634-1.083c-.117-.2-.383-.267-.567-.117l-6.037 4.3a14.76 14.76 0 0 1 2.051 3.417l13.776-6.533.017-.017Zm2.168 5.533.7 4.017a.403.403 0 0 1-.35.467l-15.194 1.416a14.311 14.311 0 0 0-.75-3.9l7.138-1.966a.383.383 0 0 1 .484.316l.217 1.234 7.238-1.884c.217-.05.45.084.484.317l.033-.017Zm-.684 14.75c.217.05.45-.083.484-.316l.7-4.017a.403.403 0 0 0-.35-.467l-7.455-.7.217-1.233a.403.403 0 0 0-.35-.467l-7.389-.6a14.589 14.589 0 0 1-.634 3.934l14.76 3.85.017.016Zm-3.936 9.167a.41.41 0 0 1-.567.133L56.55 53.717a14.11 14.11 0 0 0 1.934-3.467l6.738 3.083c.217.1.3.35.184.55l-.634 1.084 6.771 3.2c.2.1.284.35.167.55l-2.035 3.533ZM52.88 57.133l8.823 12.434c.133.183.4.216.567.066l3.119-2.616a.403.403 0 0 0 .033-.584l-5.253-5.316.967-.8c.183-.15.183-.417.017-.584l-5.287-5.2c-.884 1-1.885 1.884-3.002 2.6h.016Zm-.083 16.934c-.217.083-.45-.05-.517-.267l-4.036-14.7c1.317-.3 2.568-.783 3.72-1.417l3.185 6.684c.1.216 0 .466-.217.533l-1.184.433 3.118 6.8c.1.217 0 .45-.216.534l-3.836 1.4h-.017Z" fill="#000"/></g></svg>