<svg viewBox="0 0 90 90" xmlns="http://www.w3.org/2000/svg"><g fill="none" fill-rule="evenodd"><g fill-rule="nonzero"><path fill="#13477D" d="M0 0h90v90H0z"/><path fill="#E4002D" d="m26 20 50 50H26z"/></g><g transform="translate(14 41)"><circle stroke="#FFFF24" stroke-width=".25" fill="#FED925" cx="10" cy="10" r="10"/><path d="M10 3a7 7 0 1 0 0 14 7 7 0 0 0 0-14Zm0 3a4 4 0 1 1 0 8 4 4 0 0 1 0-8Z" fill="#093C71" fill-rule="nonzero"/></g><g transform="translate(56 41)"><circle stroke="#FFFF24" stroke-width=".25" fill="#FED925" cx="10" cy="10" r="10"/><path d="M16.93 9a7 7 0 1 1-2.591-4.494L12.19 6.652A4 4 0 1 0 13.874 11H11V9h5.93Z" fill="#093C71" fill-rule="nonzero"/></g><g transform="translate(35 41)"><circle fill="#FED925" cx="10" cy="10" r="10"/><path fill="#093C71" d="M6 3h3v11.5h6V17H6z"/></g></g></svg>