<svg viewBox="0 0 90 90" xmlns="http://www.w3.org/2000/svg"><g fill="none"><path fill="#FFF" d="M0 0h90v90H0z"/><path d="M9.147 45.881c3.941 0 7.147 3.167 7.147 7.06 0 3.892-3.206 7.059-7.147 7.059C5.206 60 2 56.833 2 52.94c0-3.672 2.854-6.699 6.487-7.029.217-.02.437-.03.66-.03Zm38.941-.157c3.939 0 7.143 3.166 7.143 7.057v6.495H52.66v-1.082a7.185 7.185 0 0 1-4.572 1.647c-3.939 0-7.143-3.166-7.143-7.06 0-3.891 3.204-7.057 7.143-7.057Zm23.556-4.483v18.035H69.07V58.2a7.155 7.155 0 0 1-4.57 1.64c-3.938 0-7.143-3.165-7.143-7.059 0-3.891 3.205-7.057 7.144-7.057a7.18 7.18 0 0 1 4.57 1.646v-6.129h2.573Zm9.213 4.483c3.939 0 7.143 3.166 7.143 7.057v6.495h-2.574v-1.082a7.18 7.18 0 0 1-4.57 1.647c-3.938 0-7.143-3.166-7.143-7.06 0-3.891 3.205-7.057 7.144-7.057Zm-47.763 0c3.162 0 5.735 2.543 5.735 5.667v7.886h-2.571v-7.886c0-1.722-1.42-3.124-3.164-3.124-1.746 0-3.165 1.402-3.165 3.124v7.886h-2.571v-7.886c0-1.722-1.42-3.124-3.164-3.124-1.744 0-3.163 1.402-3.163 3.124v7.886h-2.573v-7.886c0-3.124 2.573-5.666 5.736-5.666 1.733 0 3.352.765 4.45 2.1a5.731 5.731 0 0 1 4.45-2.1Zm-23.9 2.748c-2.519 0-4.569 2.025-4.569 4.515 0 2.491 2.05 4.517 4.57 4.517 2.52 0 4.572-2.026 4.572-4.517 0-2.49-2.052-4.515-4.572-4.515Zm38.894-.206c-2.52 0-4.57 2.026-4.57 4.515 0 2.492 2.05 4.517 4.57 4.517 2.52 0 4.572-2.025 4.572-4.517 0-2.49-2.052-4.515-4.572-4.515Zm16.413 0c-2.52 0-4.57 2.026-4.57 4.515 0 2.492 2.05 4.517 4.57 4.517 2.52 0 4.57-2.025 4.57-4.517 0-2.49-2.05-4.515-4.57-4.515Zm16.356 0c-2.52 0-4.572 2.026-4.572 4.515 0 2.492 2.052 4.517 4.572 4.517s4.57-2.025 4.57-4.517c0-2.49-2.05-4.515-4.57-4.515Z" stroke="#212121" stroke-width=".5" fill="#212121"/><path d="M58.963 39.112c-2.544-3.496-6.844-5.735-11.218-5.735-4.37 0-8.664 2.239-11.208 5.735l-2.356-2.384C37.35 32.371 42.315 30 47.745 30c5.431 0 10.398 2.374 13.569 6.734l-2.35 2.378Z" fill="#10C1D0"/><path d="M54.226 44.421c-1.653-2.025-4.035-3.307-6.502-3.307-2.465 0-4.852 1.228-6.506 3.25l-2.386-2.413c2.289-2.802 5.429-4.216 8.892-4.216 3.467 0 6.628 1.438 8.918 4.244l-2.416 2.442Z" fill="#10C1D0"/></g></svg>