<svg viewBox="0 0 90 90" xmlns="http://www.w3.org/2000/svg"><defs><linearGradient x1="50%" y1="100.777%" x2="50%" y2="-.04%" id="a"><stop stop-color="#1A73E8" offset="0%"/><stop stop-color="#4285F4" offset="100%"/></linearGradient></defs><g fill="none"><path fill="#FFF" d="M0 0h90v90H0z"/><path d="M58 64.88v7.34c0 4.296-3.496 7.78-7.81 7.78-4.313 0-7.81-3.48-7.81-7.78V53L58 64.88Z" fill="#34A853"/><path d="M35 7.78v47.1L19.38 43V24.268l12.78-10.492A7.728 7.728 0 0 0 35 7.78Z" fill="url(#a)" transform="translate(23 10)"/><path d="M57.996 17.509a7.728 7.728 0 0 1-2.836 6.264L42.38 34.264V17.779a7.75 7.75 0 0 1 3.56-6.522c.069-.044.133-.088.201-.128.124-.08.256-.15.377-.214l.344-.171.288-.132c.117-.047.233-.095.357-.139.116-.043.24-.083.36-.123.225-.068.453-.131.69-.179.067-.016.14-.028.215-.044l.157-.024c.092-.016.184-.027.276-.04.108-.015.216-.027.328-.035A5.903 5.903 0 0 1 50.19 10h.004c.285 0 .56.016.841.044a8.907 8.907 0 0 1 .837.139c.136.028.273.064.409.103.112.028.228.064.34.104.22.071.44.15.65.242a9.614 9.614 0 0 1 .704.338c.192.108.376.22.56.342.02.016.04.028.06.04.197.135.385.283.573.434.093.08.185.155.277.238l.008.008c.088.084.176.167.264.255.088.087.176.179.26.266.173.183.329.378.477.577.104.135.2.278.292.418.044.067.089.13.129.198.08.124.152.255.216.374.048.096.124.25.172.342a8.975 8.975 0 0 1 .268.64 8.072 8.072 0 0 1 .257.868c.024.08.04.155.052.234.024.112.044.219.064.326.016.088.024.175.036.263.016.107.028.215.036.326.008.087.016.175.02.262-.004.04 0 .084 0 .128Z" fill="#EA4335"/><path d="M45.216 11.774c.096-.08.196-.155.296-.227a7.76 7.76 0 0 0-3.132 6.232v16.489l-6.632 5.452a7.743 7.743 0 0 1-4.954 1.774 7.773 7.773 0 0 1-6.016-2.827 7.765 7.765 0 0 1 1.058-10.945l19.38-15.948Z" fill="#FBBC04"/></g></svg>