<svg viewBox="0 0 90 90" xmlns="http://www.w3.org/2000/svg"><g fill="none"><path fill="#00B0EF" d="M0 0h90v90H0z"/><path d="M34.333 24C22.551 24 13 33.626 13 45.5S22.551 67 34.333 67c11.782 0 21.334-9.626 21.334-21.5S46.115 24 34.333 24Zm0 27.95c-3.534 0-6.4-2.888-6.4-6.45 0-3.562 2.866-6.45 6.4-6.45 3.535 0 6.4 2.888 6.4 6.45a6.467 6.467 0 0 1-1.872 4.563 6.366 6.366 0 0 1-4.528 1.887Z" fill="#D2EEF9"/><path d="M58.312 40.125c5.42 1.572 11.819 0 11.819 0-1.857 8.17-7.745 13.287-16.236 13.91C50.53 61.907 42.838 67.005 34.333 67l6.4-20.5C47.313 25.427 50.685 24 66.287 24H77c-1.792 7.955-7.968 14.032-18.688 16.125Z" fill="#FFF"/></g></svg>