<svg viewBox="0 0 90 90" xmlns="http://www.w3.org/2000/svg"><defs><linearGradient x1="50%" y1="100%" x2="50%" y2="0%" id="a"><stop stop-color="#003ED8" offset="0%"/><stop stop-color="#085BFF" offset="100%"/></linearGradient></defs><g fill="none"><path fill="url(#a)" d="M0 0h90v90H0z"/><path d="M45 76.091c-8.458 0-16.389-3.204-22.331-9.023-5.99-5.864-9.289-13.739-9.289-22.173 0-8.435 3.304-16.27 9.302-22.082 5.927-5.742 13.852-8.904 22.317-8.904s16.39 3.162 22.317 8.904c5.999 5.811 9.303 13.653 9.303 22.082 0 2.219-.258 4.741-.656 6.426-1.45 6.13-5.85 9.865-11.556 9.865-.186 0-.373-.004-.562-.012-6.789-.288-11.72-5.28-11.743-11.876l-.106-4.476c0-4.172-2.847-7.2-6.768-7.2-3.922 0-6.777 3.028-6.777 7.2v9.107h-7.224v-9.107c0-3.968 1.445-7.626 4.068-10.3 2.608-2.659 6.135-4.123 9.933-4.123 3.797 0 7.324 1.464 9.93 4.124 2.61 2.664 4.051 6.304 4.063 10.253l.105 4.475c0 3.322 2.6 4.61 4.825 4.704 2.474.105 4.084-1.341 4.782-4.298.269-1.132.463-3.136.463-4.764 0-13.324-10.716-23.761-24.395-23.761-13.68 0-24.395 10.437-24.395 23.76 0 6.477 2.528 12.518 7.118 17.013 4.585 4.488 10.72 6.96 17.277 6.96 2.012 0 4.01-.244 5.94-.727a24.296 24.296 0 0 0 4.685-1.7l3.15 6.5a31.508 31.508 0 0 1-13.775 3.152H45Z" fill="#FFF"/></g></svg>