<svg xmlns="http://www.w3.org/2000/svg" viewBox="0 0 90 90"><path fill="#FFF" d="M0 0h90v90H0z"/><path d="M45.954 16a29.271 29.271 0 0 0-17.347 5.617 29.019 29.019 0 0 0-10.6 14.77.539.539 0 0 0 .274.642c.076.039.16.059.245.059h11.218a.543.543 0 0 0 .485-.29 17.71 17.71 0 0 1 6.713-6.955 17.835 17.835 0 0 1 9.384-2.413c9.49.172 16.835 7.935 17.177 16.883a17.511 17.511 0 0 1-3.435 11.095 17.672 17.672 0 0 1-9.64 6.544 17.756 17.756 0 0 1-11.64-.862 17.634 17.634 0 0 1-8.56-7.893.542.542 0 0 0-.478-.291H18.526a.55.55 0 0 0-.437.22.54.54 0 0 0-.082.48 28.986 28.986 0 0 0 8.649 13.224 29.218 29.218 0 0 0 14.327 6.763c5.312.895 10.77.307 15.767-1.697a29.133 29.133 0 0 0 12.54-9.657 28.87 28.87 0 0 0 2.61-30.25 29.056 29.056 0 0 0-10.7-11.643A29.27 29.27 0 0 0 45.954 16" fill="#1DCF9F"/><path d="M29.335 50.466H15.582a.574.574 0 0 1-.413-.174.591.591 0 0 1-.169-.42v-9.416a.6.6 0 0 1 .17-.42.582.582 0 0 1 .412-.175h13.753a.574.574 0 0 1 .413.174.591.591 0 0 1 .17.421v9.415a.6.6 0 0 1-.17.42.58.58 0 0 1-.413.175" fill="#210F60"/></svg>