<svg viewBox="0 0 90 90" xmlns="http://www.w3.org/2000/svg"><g fill="none" fill-rule="evenodd"><path d="M46.474 32.44c7.184.86 12.573 6.844 12.54 13.924-.008 5.743-3.62 10.893-9.094 12.968L55.315 88h-21.06l5.492-28.612c-6.781-2.475-10.597-9.521-8.88-16.4 1.717-6.877 8.424-11.41 15.607-10.549Z" fill="#1A3967"/><path d="M45 3c24.495 0 44.493 19.162 45 43.12.013 15.575-8.48 29.971-22.274 37.753l-2.87-18.68c4.499-4.768 6.996-11.02 6.994-17.51-.39-14.231-12.296-25.57-26.85-25.57-14.554 0-26.46 11.339-26.85 25.57-.001 6.439 2.46 12.645 6.898 17.398l-2.89 18.735C8.438 76.006 0 61.648 0 46.12.507 22.162 20.505 3 45 3Z" fill="#ED7F22"/></g></svg>