<svg viewBox="0 0 90 90" xmlns="http://www.w3.org/2000/svg"><g fill="none"><path fill="#10A37F" d="M0 0h90v90H0z"/><path d="M41.502 11a16.926 16.926 0 0 0-16.085 11.685 16.722 16.722 0 0 0-11.146 8.1 16.897 16.897 0 0 0 2.085 19.784 16.649 16.649 0 0 0 1.427 13.682c3.648 6.375 10.987 9.642 18.169 8.122A16.67 16.67 0 0 0 48.502 78c7.318 0 13.82-4.72 16.086-11.685a16.633 16.633 0 0 0 11.123-8.1 16.86 16.86 0 0 0-2.061-19.784v-.022a16.712 16.712 0 0 0-1.428-13.705 16.888 16.888 0 0 0-18.147-8.1A16.735 16.735 0 0 0 41.502 11Zm0 4.357-.022.022c2.945 0 5.777 1.021 8.042 2.905-.09.045-.272.159-.408.227l-13.32 7.691a2.173 2.173 0 0 0-1.088 1.906v18.06l-5.731-3.312v-14.93c-.003-6.933 5.603-12.56 12.527-12.57v.001Zm16.047 5.258a12.535 12.535 0 0 1 10.89 6.29 12.625 12.625 0 0 1 1.494 8.395c-.09-.068-.271-.158-.385-.226l-13.32-7.715a2.229 2.229 0 0 0-2.198 0l-15.609 9.03v-6.625l12.89-7.465a12.46 12.46 0 0 1 6.238-1.685Zm-32.947 6.857v15.86a2.2 2.2 0 0 0 1.088 1.906l15.586 9.008-5.755 3.334-12.868-7.442c-5.988-3.475-8.035-11.15-4.575-17.153a12.568 12.568 0 0 1 6.524-5.513Zm29.858 3.925 12.89 7.442c6.004 3.472 8.042 11.14 4.576 17.153l.023.023a12.51 12.51 0 0 1-6.525 5.491v-15.86c0-.795-.408-1.52-1.088-1.906l-15.608-9.03 5.732-3.313Zm-9.47 5.469s5.307 1.616 6.571 3.811c1.264 2.195 0 7.6 0 7.6l-6.57 3.812-6.57-3.811v-7.6l6.57-3.812Zm10.331 5.99 5.732 3.312v14.907c0 6.943-5.619 12.57-12.528 12.57v-.023a12.49 12.49 0 0 1-8.02-2.904 8.13 8.13 0 0 0 .408-.227l13.32-7.691a2.126 2.126 0 0 0 1.087-1.907l.001-18.037Zm-3.738 9.756v6.624l-12.89 7.443c-6.004 3.448-13.661 1.406-17.128-4.584h.023c-1.472-2.519-1.994-5.513-1.496-8.395.091.069.273.159.386.227l13.32 7.715a2.23 2.23 0 0 0 2.197 0l15.588-9.03Z" fill="#FFF"/></g></svg>