<svg xmlns="http://www.w3.org/2000/svg" viewBox="0 0 90 90"><path fill="#181B21" d="M0 0h90v90H0z"/><path d="M65.834 49.2c0-11.592-9.334-21-20.834-21s-20.833 9.408-20.833 21V66H20V49.2C20 35.277 31.188 24 45 24c13.813 0 25 11.277 25 25.2V66h-4.166V49.2Zm-8.334 0c0 6.951-5.604 12.6-12.5 12.6-2.958 0-5.667-1.03-7.792-2.75-.208-.17-.541-.022-.541.25v4.222c0 .147.083.294.208.357C39.271 65.244 42.042 66 45 66c9.208 0 16.667-7.518 16.667-16.8S54.208 32.4 45 32.4c-9.208 0-16.667 7.518-16.667 16.8V66H32.5V49.2c0-6.951 5.604-12.6 12.5-12.6s12.5 5.649 12.5 12.6ZM45 53.4c2.292 0 4.167-1.89 4.167-4.2 0-2.31-1.875-4.2-4.167-4.2s-4.167 1.89-4.167 4.2c0 2.31 1.875 4.2 4.167 4.2Zm0 4.2c4.604 0 8.333-3.76 8.333-8.4 0-4.641-3.729-8.4-8.333-8.4s-8.333 3.759-8.333 8.4c0 4.64 3.729 8.4 8.333 8.4Z" fill="#FFF"/></svg>