<svg viewBox="0 0 90 90" xmlns="http://www.w3.org/2000/svg" xmlns:xlink="http://www.w3.org/1999/xlink"><defs><path d="M4.465 9.215V6.811c0-.2.05-.55.05-.55l.1-.251v-.1l.098-.2.05-.05.05-.1.05-.05v-.05l.099-.101v-.05l.347-.35.099-.05h.05l.149-.101h.148l.298-.15c.198-.05.347-.05.546-.05h46.936v4.607H58V0H6.599C2.977 0 0 3.055 0 6.811v2.404h4.465Z" id="a"/><path d="M4.465 9.215V6.811c0-.2.05-.55.05-.55l.1-.251v-.1l.098-.2.05-.05.05-.1.05-.05v-.05l.099-.101v-.05l.347-.35.099-.05h.05l.149-.101h.148l.298-.15c.198-.05.347-.05.546-.05h46.936v4.607H58V0H6.599C2.977 0 0 3.055 0 6.811v2.404h4.465Z" id="c"/><path d="M4.465 9.215V6.811c0-.2.05-.55.05-.55l.1-.251v-.1l.098-.2.05-.05.05-.1.05-.05v-.05l.099-.101v-.05l.347-.35.099-.05h.05l.149-.101h.148l.298-.15c.198-.05.347-.05.546-.05h46.936v4.607H58V0H6.599C2.977 0 0 3.055 0 6.811v2.404h4.465Z" id="f"/><path d="M53.535.05v2.404c0 .2-.05.551-.05.551l-.1.25v.1l-.098.2-.05.051-.05.1-.05.05v.05l-.099.1v.05l-.248.251h-.05l-.049.05-.099.05-.05.05-.149.1h-.148l-.248.1c-.199.05-.348.05-.546.05H4.465V0H0v9.215h51.401C55.023 9.215 58 6.16 58 2.404V0h-4.465v.05Z" id="i"/><path d="M53.535.05v2.404c0 .2-.05.551-.05.551l-.1.25v.1l-.098.2-.05.051-.05.1-.05.05v.05l-.099.1v.05l-.248.251h-.05l-.049.05-.099.05-.05.05-.149.1h-.148l-.248.1c-.199.05-.348.05-.546.05H4.465V0H0v9.215h51.401C55.023 9.215 58 6.16 58 2.404V0h-4.465v.05Z" id="k"/><path d="M53.535.05v2.404c0 .2-.05.551-.05.551l-.1.25v.1l-.098.2-.05.051-.05.1-.05.05v.05l-.099.1v.05l-.248.251h-.05l-.049.05-.099.05-.05.05-.149.1h-.148l-.248.1c-.199.05-.348.05-.546.05H4.465V0H0v9.215h51.401C55.023 9.215 58 6.16 58 2.404V0h-4.465v.05Z" id="n"/><path id="q" d="M0 0h17.167v4.608H0z"/><path id="s" d="M0 0h17.167v4.608H0z"/><path id="v" d="M0 0h17.167v4.608H0z"/><path id="x" d="M0 0h17.167v4.608H0z"/><path id="A" d="M0 0h17.167v4.608H0z"/><path id="C" d="M0 0h17.167v4.608H0z"/><path id="F" d="M0 0h17.167v4.608H0z"/><path id="H" d="M0 0h17.167v4.608H0z"/><linearGradient x1="39.967%" y1="31.303%" x2="62.086%" y2="67.781%" id="d"><stop stop-color="#737373" offset="0%"/><stop stop-color="#333" offset="100%"/></linearGradient><linearGradient x1="61.919%" y1="22.578%" x2="34.779%" y2="70.591%" id="g"><stop stop-color="#737373" offset="0%"/><stop stop-color="#333" offset="100%"/></linearGradient><linearGradient x1="59.012%" y1="70.278%" x2="35.788%" y2="31.708%" id="l"><stop stop-color="#737373" offset="0%"/><stop stop-color="#333" offset="100%"/></linearGradient><linearGradient x1="37.277%" y1="72.172%" x2="62.946%" y2="27.073%" id="o"><stop stop-color="#737373" offset="0%"/><stop stop-color="#333" offset="100%"/></linearGradient><linearGradient x1="132.752%" y1="88.862%" x2="-31.915%" y2="11.206%" id="t"><stop stop-color="#58595B" offset="10.7%"/><stop offset="100%"/></linearGradient><linearGradient x1="-31.937%" y1="88.686%" x2="132.729%" y2="11.03%" id="y"><stop stop-color="#58595B" offset="10.7%"/><stop offset="100%"/></linearGradient><linearGradient x1="-32.35%" y1="9.773%" x2="132.316%" y2="87.429%" id="D"><stop stop-color="#58595B" offset="10.7%"/><stop offset="100%"/></linearGradient><linearGradient x1="132.681%" y1="9.674%" x2="-36.319%" y2="89.373%" id="I"><stop stop-color="#58595B" offset="10.7%"/><stop offset="100%"/></linearGradient><linearGradient x1=".092%" y1="49.846%" x2="100%" y2="49.846%" id="K"><stop stop-color="#A6A8AB" offset="23.7%"/><stop stop-color="#404040" offset="100%"/></linearGradient><linearGradient x1="100%" y1="49.846%" x2="0%" y2="49.846%" id="L"><stop stop-color="#A6A8AB" offset="23.7%"/><stop stop-color="#404040" offset="100%"/></linearGradient><linearGradient x1="99.954%" y1="50.613%" x2=".046%" y2="50.613%" id="M"><stop stop-color="#A6A8AB" offset="23.7%"/><stop stop-color="#404040" offset="100%"/></linearGradient><linearGradient x1=".229%" y1="50.613%" x2="100.069%" y2="50.613%" id="N"><stop stop-color="#A6A8AB" offset="23.7%"/><stop stop-color="#404040" offset="100%"/></linearGradient></defs><g fill="none" fill-rule="evenodd"><path fill="#FFF" fill-rule="nonzero" d="M0 0h90v90H0z"/><g transform="translate(15 15)"><mask id="b" fill="#fff"><use xlink:href="#a"/></mask><path fill="#898B8D" fill-rule="nonzero" mask="url(#b)" d="M.198-.5h58.1v6.01H.198z"/></g><g transform="translate(15 15)"><mask id="e" fill="#fff"><use xlink:href="#c"/></mask><path fill="url(#d)" fill-rule="nonzero" mask="url(#e)" d="m59.985 5.71-6.55 3.555L51.6 5.66l6.549-3.555z"/></g><g transform="translate(15 15)"><mask id="h" fill="#fff"><use xlink:href="#f"/></mask><path fill="url(#g)" fill-rule="nonzero" mask="url(#h)" d="M4.515 9.215-.794 6.361l1.836-3.656L6.35 5.609z"/></g><path d="M23.93 24.215h40.14v4.608H23.93v-4.608Zm0 37.012h40.14v4.608H23.93v-4.608Z" fill="#403F41" fill-rule="nonzero"/><g transform="translate(15 65.785)"><mask id="j" fill="#fff"><use xlink:href="#i"/></mask><path fill="#898B8D" fill-rule="nonzero" mask="url(#j)" d="M-.298 3.756h58.1v6.01h-58.1z"/></g><g transform="translate(15 65.785)"><mask id="m" fill="#fff"><use xlink:href="#k"/></mask><path fill="url(#l)" fill-rule="nonzero" mask="url(#m)" d="M-1.985 3.556 4.565 0 6.4 3.656-.149 7.212z"/></g><g transform="translate(15 65.785)"><mask id="p" fill="#fff"><use xlink:href="#n"/></mask><path fill="url(#o)" fill-rule="nonzero" mask="url(#p)" d="m53.485.05 5.358 2.855-1.835 3.656-5.359-2.905z"/></g><g transform="translate(19.465 33.48)"><mask id="r" fill="#fff"><use xlink:href="#q"/></mask><path fill="#58595B" fill-rule="nonzero" mask="url(#r)" d="M0 0h17.167v4.608H0z"/></g><g transform="translate(19.465 33.48)"><mask id="u" fill="#fff"><use xlink:href="#s"/></mask><path fill="url(#t)" fill-rule="nonzero" mask="url(#u)" d="m1.637-3.806 15.58 8.414-1.886 3.706L-.199-.1z"/></g><g transform="translate(51.368 33.48)"><mask id="w" fill="#fff"><use xlink:href="#v"/></mask><path fill="#58595B" fill-rule="nonzero" mask="url(#w)" d="M0 0h17.167v4.608H0z"/></g><g transform="translate(51.368 33.48)"><mask id="z" fill="#fff"><use xlink:href="#x"/></mask><path fill="url(#y)" fill-rule="nonzero" mask="url(#z)" d="M15.53-3.806 0 4.608l1.836 3.706L17.415-.1z"/></g><g transform="translate(51.368 51.962)"><mask id="B" fill="#fff"><use xlink:href="#A"/></mask><path fill="#58595B" fill-rule="nonzero" mask="url(#B)" d="M0 0h17.167v4.608H0z"/></g><g transform="translate(51.368 51.962)"><mask id="E" fill="#fff"><use xlink:href="#C"/></mask><path fill="url(#D)" fill-rule="nonzero" mask="url(#E)" d="M15.53 8.414 0 0l1.836-3.706 15.579 8.414z"/></g><g transform="translate(19.465 51.962)"><mask id="G" fill="#fff"><use xlink:href="#F"/></mask><path fill="#58595B" fill-rule="nonzero" mask="url(#G)" d="M0 0h17.167v4.608H0z"/></g><g transform="translate(19.465 51.962)"><mask id="J" fill="#fff"><use xlink:href="#H"/></mask><path fill="url(#I)" fill-rule="nonzero" mask="url(#J)" d="M1.637 8.414 17.217 0 15.33-3.706-.199 4.708z"/></g><path fill="url(#K)" fill-rule="nonzero" d="M0 11.419V6.811l21.632 11.67v4.607z" transform="translate(15 15)"/><path fill="url(#L)" fill-rule="nonzero" d="M58 11.419V6.811l-21.632 11.67v4.607z" transform="translate(15 15)"/><path fill="url(#M)" fill-rule="nonzero" d="M58 48.631v4.658l-21.632-11.67v-4.657z" transform="translate(15 15)"/><path fill="url(#N)" fill-rule="nonzero" d="M0 48.631v4.658l21.632-11.67v-4.657z" transform="translate(15 15)"/><path d="m51.368 47.354 12.701 6.861v-4.657l-4.118-2.204H73v-4.658H59.951l4.118-2.204v-4.607l-12.701 6.811v4.658Zm-14.736 0v-4.658l-12.701-6.811v4.607l4.167 2.204H15v4.658h13.049l-4.118 2.204v4.657l12.701-6.861Z" fill="#D94F00" fill-rule="nonzero"/></g></svg>