<svg viewBox="0 0 90 90" xmlns="http://www.w3.org/2000/svg"><g fill="none" fill-rule="evenodd"><path fill="#FFF" fill-rule="nonzero" d="M0 0h90v90H0z"/><path d="M18 44.873V23.115L44.5 15 71 23.115v21.758C71 66.632 44.5 75 44.5 75S18 66.632 18 44.873Z" fill="#4D81F1"/><path d="M61.063 43.453c0 9.244-7.416 16.737-16.563 16.737-9.147 0-16.562-7.493-16.562-16.737 0-9.243 7.415-16.737 16.562-16.737 9.147 0 16.563 7.494 16.563 16.737Z" fill="#FFF"/><path fill="#4D81F1" d="m53.89 39.676-12.15 11.05-6.63-6.029 2.217-2.488 4.413 4.014 9.933-9.035z"/></g></svg>