<svg viewBox="0 0 90 90" xmlns="http://www.w3.org/2000/svg"><defs><linearGradient x1=".032%" y1="50.007%" x2="171.652%" y2="50.007%" id="a"><stop stop-color="#DE4F57" offset="0%"/><stop stop-color="#971057" offset="100%"/></linearGradient><linearGradient x1="54.453%" y1="16.741%" x2="41.317%" y2="98.509%" id="b"><stop stop-color="#DE4F57" offset="0%"/><stop stop-color="#971057" offset="100%"/></linearGradient><linearGradient x1="74.813%" y1="54.748%" x2="14.513%" y2="30.044%" id="c"><stop stop-color="#DE4F57" offset="0%"/><stop stop-color="#971057" offset="100%"/></linearGradient></defs><g fill="none"><path fill="#FFF" d="M0 0h90v90H0z"/><path d="M13.24 41.781a34.99 34.99 0 0 1-1.78-17.652L3.1 15.574a34.13 34.13 0 0 0-.922 26.207c3.125 8.822 9.965 15.788 18.672 19.017a34.567 34.567 0 0 0 17.687 1.754 37.018 37.018 0 0 1-6.625-1.754C23.205 57.569 16.365 50.603 13.24 41.78Z" fill="url(#a)" transform="translate(12 14)"/><path d="M60.039 10.354a33.501 33.501 0 0 0-5.231-5.892l-7.975 8.058c6.418 5.22 9.367 13.653 7.62 21.787-1.747 8.134-7.892 14.574-15.874 16.636a21.595 21.595 0 0 1-17.616-2.961c-5.183-3.486-8.642-9.046-9.503-15.276a22.16 22.16 0 0 1 .43-8.274l-.43-.303a34.99 34.99 0 0 0 1.694 17.652c3.126 8.822 9.965 15.788 18.672 19.017a37.018 37.018 0 0 0 6.625 1.754c11.212-1.889 20.671-9.48 25.03-20.087 4.357-10.607 3-22.734-3.592-32.09l.15-.021Z" fill="url(#b)" transform="translate(12 14)"/><path d="M51.292 1.755a10.637 10.637 0 0 0-13.399 1.386l-4.287 4.332-2.487 2.513-5.81 5.977a2.745 2.745 0 0 1-3.794 0l-2.83-2.945-2.251-2.274a7.288 7.288 0 0 0-5.997-2.16 7.323 7.323 0 0 0-5.408 3.394l-.686 1.235 13.27 12.995a7.86 7.86 0 0 0 5.614 2.783 7.844 7.844 0 0 0 5.855-2.22l15.736-15.66 8.125-8.143c-.257-.13-1.394-1.04-1.65-1.213Z" fill="url(#c)" transform="translate(12 14)"/></g></svg>