<svg xmlns="http://www.w3.org/2000/svg" viewBox="0 0 90 90"><path fill="#FFF" d="M0 0h90v90H0z"/><path d="M63.01 42.246a21.256 21.256 0 0 0-3.652-9.452 20.687 20.687 0 0 0-7.57-6.594 20.214 20.214 0 0 0-9.717-2.192 20.245 20.245 0 0 0-9.588 2.721 20.756 20.756 0 0 0-7.214 7 21.393 21.393 0 0 0-1.502 19.658 20.952 20.952 0 0 0 6.063 8.056 156.9 156.9 0 0 0 6.57-3.191 14.492 14.492 0 0 1-5.825-5.207 14.913 14.913 0 0 1-2.34-7.535 14.946 14.946 0 0 1 1.82-7.683 14.553 14.553 0 0 1 5.455-5.61 14.16 14.16 0 0 1 7.512-1.912c2.628.075 5.185.884 7.395 2.338a14.603 14.603 0 0 1 5.14 5.911 14.965 14.965 0 0 1 1.398 7.775 186.227 186.227 0 0 0 6.056-4.083Zm.174 2.38a136.208 136.208 0 0 1-6.855 4.834c-1.106 3.54-3.485 6.523-6.657 8.345A14.134 14.134 0 0 1 39.23 59.28a118.228 118.228 0 0 1-7.646 3.44 20.265 20.265 0 0 0 10.468 3.271 20.23 20.23 0 0 0 10.629-2.676 20.782 20.782 0 0 0 7.778-7.864 21.348 21.348 0 0 0 2.725-10.826Z" fill="#1E2124"/><path d="M64.228 27.546c.278 0 .55-.084.782-.242.231-.158.412-.382.518-.645a1.465 1.465 0 0 0-.305-1.566 1.38 1.38 0 0 0-1.534-.311 1.414 1.414 0 0 0-.631.529 1.459 1.459 0 0 0 .174 1.815 1.404 1.404 0 0 0 .996.42ZM16.876 51.96c.371 0 .734-.112 1.042-.323.309-.21.55-.51.691-.86.142-.351.179-.736.106-1.108a1.928 1.928 0 0 0-.515-.98 1.864 1.864 0 0 0-.962-.523 1.84 1.84 0 0 0-1.084.111 1.885 1.885 0 0 0-.84.708 1.945 1.945 0 0 0 .237 2.416c.352.358.828.559 1.325.559Zm31.678-11.281a228.524 228.524 0 0 1 5.903-3.23c.07.117.147.255.227.41a279.195 279.195 0 0 0-5.887 3.242l-.243-.422ZM74.87 30.477c-.904-1.6-6.389.099-14.15 3.803.072.122.144.249.212.377 7.437-3.615 12.626-5.355 13.285-3.955 1.036 1.832-10.855 10.819-26.546 20.072-15.691 9.253-29.261 15.27-30.297 13.438-.59-1.09 2.329-4.056 4.951-6.417-3.776 3.111-5.757 5.509-5.105 6.66C18.698 67.07 33 61.927 48.923 52.547c15.922-9.38 27.433-19.455 25.948-22.07Z" fill="#00CCF5"/><path d="M46.69 42.2a2.992 2.992 0 0 1-.355-1.949 2.956 2.956 0 0 1 .936-1.736c.5-.45 1.136-.71 1.802-.734a2.839 2.839 0 0 1 1.85.6c.53.413.903 1 1.056 1.662a2.996 2.996 0 0 1-.216 1.97 2.908 2.908 0 0 1-1.392 1.381 2.83 2.83 0 0 1-1.934.166 2.756 2.756 0 0 1-1.011-.496 2.82 2.82 0 0 1-.737-.865Z" fill="#FA00E9"/></svg>