<svg viewBox="0 0 90 90" xmlns="http://www.w3.org/2000/svg"><g fill="none"><path fill="#FFF" d="M0 0h90v90H0z"/><path d="M31.976 15.037V57.99H58.08V15.037H75V75H15V15.037h16.976Zm23.712 8.8-.012 14.689H44.782v2.393h10.906v14.687H34.365V23.838h21.323ZM37.492 15c.216-.001.43.033.634.101.227.081.427.222.581.406.252.33.376.738.35 1.152v3.132a1.72 1.72 0 0 1-.35 1.152 1.346 1.346 0 0 1-.58.404 1.952 1.952 0 0 1-.633.102h-1.57a1.846 1.846 0 0 1-.624-.102 1.325 1.325 0 0 1-.59-.404 1.76 1.76 0 0 1-.35-.975v-3.31c-.022-.413.102-.82.35-1.15.156-.188.36-.328.59-.407.2-.07.412-.103.625-.101h1.567Zm5.788 0c.213-.002.425.032.627.101.228.077.43.218.58.406.255.328.382.737.36 1.152v1.29c.022.414-.105.823-.36 1.151a1.268 1.268 0 0 1-.57.405l1.012 1.944h-1.87l-.958-1.843h-.018v1.843h-1.657V15h2.854Zm4.439 0 1.41 2.949V15h1.659v6.449H49.3L47.891 18.5v2.949h-1.657V15h1.485Zm6.119 0v4.791h1.843v1.658h-3.5V15h1.657ZM37.4 16.655h-1.384v3.136H37.4v-3.136Zm5.788.003h-1.106v1.658h1.106v-1.658Z" fill="#0072C6"/></g></svg>