<svg viewBox="0 0 90 90" xmlns="http://www.w3.org/2000/svg"><g fill="none" fill-rule="evenodd"><path fill="#0064FF" fill-rule="nonzero" d="M0 0h90v90H0z"/><path d="M61.761 30.368c6.464 1.648 14.267 3.64 14.239 11.45-.052 14.397-24.45 14.713-32.98 5.09l4.519-5.79c6.329 6.815 20.545 6.17 20.437 1.15-.057-2.705-3.723-3.563-8.087-4.585-6.528-1.528-14.617-3.422-14.522-12.408.071-6.677 7.437-10.404 15.196-10.272 5.762.099 11.772 2.204 15.202 6.086l-4.382 5.477c-3.192-3.19-8.279-4.472-11.938-4.445-4.24.03-6.103 1.473-6.143 3.271-.062 2.802 3.86 3.802 8.46 4.976Zm-8.035 27.837h-6.601v14.96h6.601v-7.402c.017-2.715 3.464-2.699 3.464.013v7.389h6.371v-7.39c0-2.72 3.464-2.72 3.464 0v7.39h6.21V64.45c0-6.124-7.322-8.736-11.127-5.231-1.554-2.037-6.6-2.22-8.382-.038v-.976ZM28.092 15c7.783 0 14.092 6.258 14.092 13.977 0 7.72-6.309 13.977-14.092 13.977C20.31 42.954 14 36.697 14 28.977 14 21.258 20.31 15 28.092 15Zm0 7.115c3.76 0 6.804 3.057 6.804 6.829 0 3.77-3.045 6.827-6.803 6.827-3.757 0-6.803-3.056-6.803-6.827 0-3.772 3.046-6.829 6.803-6.829Zm14.092 38.907c0-7.719-6.309-13.975-14.092-13.975C20.31 47.047 14 53.303 14 61.022 14 68.742 20.31 75 28.092 75c7.783 0 14.092-6.258 14.092-13.978Zm-7.288-.033c0-3.77-3.045-6.829-6.803-6.829-3.757 0-6.803 3.058-6.803 6.829 0 3.77 3.046 6.827 6.803 6.827 3.758 0 6.803-3.056 6.803-6.827Z" fill="#FFF"/></g></svg>