<svg viewBox="0 0 90 90" xmlns="http://www.w3.org/2000/svg"><g fill="none" fill-rule="evenodd"><path fill="#FFF" fill-rule="nonzero" d="M0 0h90v90H0z"/><g fill="#007AFF"><path d="M55.027 31.384c2.09 0 3.784 1.717 3.784 3.835v19.562c0 2.118-1.694 3.835-3.784 3.835s-3.784-1.717-3.784-3.835V35.219c0-2.118 1.694-3.835 3.784-3.835Zm-10.595 0c2.09 0 3.784 1.717 3.784 3.835v19.562c0 2.118-1.694 3.835-3.784 3.835s-3.784-1.717-3.784-3.835V35.219c0-2.118 1.694-3.835 3.784-3.835Zm21.189 8.821c2.09 0 3.784 1.718 3.784 3.836v2.301c0 2.119-1.694 3.836-3.784 3.836s-3.783-1.717-3.783-3.836v-2.3c0-2.12 1.694-3.837 3.783-3.837Zm10.595-3.835c2.09 0 3.784 1.717 3.784 3.835v9.59c0 2.118-1.694 3.835-3.784 3.835s-3.784-1.717-3.784-3.836v-9.589c0-2.118 1.694-3.835 3.784-3.835Z"/><path d="M23.825 51.65c3.672 0 6.65-3.018 6.65-6.74 0-3.724-2.978-6.742-6.65-6.742-3.673 0-6.65 3.018-6.65 6.741s2.977 6.74 6.65 6.74ZM23.81 59C16.183 59 10 52.732 10 45s6.183-14 13.81-14c7.628 0 13.812 6.268 13.812 14S31.438 59 23.81 59Z" fill-rule="nonzero"/></g></g></svg>