<svg viewBox="0 0 90 90" xmlns="http://www.w3.org/2000/svg"><path d="M41.783.17C33.92.742 26.55 3.242 20.148 7.505 9.278 14.741 2.321 25.624.386 38.392c-.515 3.382-.515 9.756 0 13.015 1.503 9.571 5.579 17.769 12.248 24.655 3.706 3.812 7.761 6.743 12.66 9.162 9.696 4.754 21.121 6.046 31.126 3.484 5.352-1.373 9.613-3.525 15.315-7.747 13.38-9.9 20.153-26.07 17.807-42.446-2.1-14.53-11.384-27.279-24.662-33.817C59.487 2.034 54.3.661 47.856.17c-2.985-.225-2.985-.225-6.073 0Zm-4.837 8.443c1.708.758 5.146 2.644 5.146 2.828 0 .062-.659.287-1.461.472l-1.483.348-.555-.45c-2.512-2.07-3.973-3.198-4.88-3.813-.596-.39-1.09-.8-1.09-.881 0-.205 2.388.615 4.323 1.496Zm10.457-.738c2.244.882 5.25 2.337 5.682 2.767.123.103-.474.185-1.565.185-1.729 0-1.77-.021-2.758-.8a82.24 82.24 0 0 0-2.635-1.947c-.885-.635-1.503-1.148-1.38-1.148.145 0 1.318.43 2.656.943Zm11.734-.205c3.89 1.455 7.616 3.587 10.992 6.292 1.133.902 1.997 1.66 1.956 1.701-.041.041-1.09-.369-2.326-.922a65.31 65.31 0 0 0-4.055-1.64c-1.483-.512-2.1-.86-3.191-1.844-1.194-1.045-3.54-2.828-5.188-3.956-.761-.512-.39-.45 1.812.37Zm-30.508 3.013c1.976 1.168 4.817 3.156 4.817 3.382 0 .082-1.132.697-2.511 1.373-1.4.676-3.52 1.885-4.755 2.705-1.36.902-2.265 1.394-2.306 1.23-.206-.574-.515-4.365-.515-6.149v-1.906l1.503-.86c.803-.472 1.585-.861 1.709-.861.103 0 1.029.492 2.058 1.086Zm-9.901 8.137C20.313 31.772 27.64 43.414 38.9 50.853c1.462.964 6.794 3.771 7.802 4.1.227.081-.885 3.648-1.708 5.554-.515 1.168-.453 1.188-3.726-.205-2.491-1.046-5.62-2.87-8.193-4.776-11.528-8.608-17.663-23.774-15.357-37.957.309-1.926.556-2.684.638-1.926.02.225.185 1.66.37 3.177Zm37.589-2.747c6.01.82 11.94 3.013 16.756 6.17 1.75 1.167 4.92 3.586 5.147 3.955.061.082-.947-.287-2.203-.861-6.34-2.787-12.269-4.037-19.042-4.058-9.572 0-19.144 3.197-26.884 8.977-1.112.84-2.059 1.496-2.08 1.455-.267-.287-1.44-2.89-2.078-4.57-.639-1.701-.7-2.09-.474-2.255.165-.123.844-.656 1.503-1.168 5.146-3.976 11.898-6.743 18.568-7.665 2.82-.37 8.008-.37 10.787.02Zm-43.744 13.2c1.09 8.382 4.755 16.826 10.004 23.056 1.976 2.357 5.579 5.82 7.617 7.337 3.046 2.255 7.04 4.489 10.395 5.78 1.318.512 1.462.615 1.277.963-.37.697-3.232 4.366-3.83 4.898l-.576.554-2.367-1.004c-12.64-5.37-22.047-17.954-23.673-31.768-.35-2.992-.165-9.53.33-11.969.287-1.414.39-1.68.431-1.127.042.39.206 1.865.392 3.28Zm47.84-2.87c8.378.738 15.522 3.566 22.088 8.792.886.717 1.585 1.332 1.524 1.373-.041.062-.968-.287-2.018-.758-4.076-1.783-8.83-3.095-13.257-3.669-2.655-.328-8.522-.287-11.301.082-7.658 1.066-15.336 4.1-20.73 8.24-.638.491-1.255.901-1.358.901-.391 0-4.59-4.693-4.59-5.144 0-.185 2.799-2.316 4.734-3.607 3.664-2.44 8.872-4.57 13.483-5.493 4.22-.84 7.493-1.045 11.425-.717ZM6.706 40.954c.576 3.71.576 3.997.02 7.378-.247 1.517-.514 3.32-.576 3.997-.165 1.599-.37 1.168-.762-1.64-.658-4.652-.597-8.648.206-12.911l.35-1.845.144 1.025c.082.553.37 2.357.618 3.996Zm61.735-3.791c1.194.164 2.491.348 2.903.43l.762.123.226 1.578c2.717 18.056-7.946 36.092-25.258 42.753-1.07.41-2.018.717-2.12.676-.103-.04.617-.635 1.626-1.332 7.493-5.267 13.69-13.65 16.592-22.422 2.1-6.374 2.737-12.625 1.955-19.552a48.496 48.496 0 0 0-.309-2.213c-.144-.451.618-.451 3.623-.041Zm-8.44 1.332c.68 4.058.556 9.981-.288 14.182-1.235 6.067-4.364 12.625-8.357 17.483-2.491 3.033-6.69 6.702-9.923 8.67-2.758 1.68-8.09 4.078-8.646 3.893-.123-.04.639-.697 1.71-1.455 2.202-1.558 5.001-4.058 7.08-6.292 5.64-6.128 9.634-14.346 11.055-22.75.473-2.766.638-9.386.309-12.522l-.165-1.558 1.709-.348c2.902-.594 3.54-.697 4.425-.717l.844-.02.247 1.434Zm22.52 3.177c.907.491 1.833 1.024 2.018 1.168.433.328.68 1.824.494 3.074-.123.86-.185.922-1.832 1.845-1.729.983-5.105 2.623-5.414 2.623-.103 0-.185-2.48-.185-5.513v-5.493l1.626.697a40.224 40.224 0 0 1 3.294 1.599Zm-34.52-.984c.226 1.045.164 8.239-.063 8.813-.185.45-.226.43-2.45-.677-2.593-1.29-6.34-3.71-6.175-3.976.37-.594 7.678-4.877 8.378-4.918.083 0 .227.348.31.758Zm35.57 13.117c-2.51 2.07-7.78 5.595-8.028 5.37-.04-.062.124-.759.371-1.558l.432-1.496 1.544-.513c.865-.287 2.594-.963 3.83-1.516 1.255-.533 2.305-.943 2.366-.902.062.061-.164.328-.514.615Zm-71.513 2.828.803 1.373-.309 2.357c-.165 1.291-.309 2.726-.309 3.197-.02 1.394-.35.492-.7-1.906-.37-2.562-.658-6.722-.432-6.517.082.082.494.758.947 1.496Zm66.265 6.948c0 .369-7.288 5.656-7.494 5.431-.04-.041.31-.738.762-1.558l.865-1.475 1.852-.738c1.009-.41 2.265-.963 2.78-1.23.905-.492 1.235-.594 1.235-.43Zm-59.842 1.7.988 1.067-.412 2.52c-.226 1.394-.473 3.239-.556 4.12-.082.881-.226 1.517-.309 1.435-.514-.513-1.379-10.494-.885-10.289.103.041.638.554 1.174 1.148Zm7.72 6.436c1.214.8 3.355 2.009 4.754 2.706l2.532 1.27-.761.656c-.947.82-3.767 2.685-5.126 3.402l-1.009.533-.844-.43c-.473-.246-1.214-.656-1.647-.943l-.802-.492.144-3.115c.123-3.115.308-5.042.473-5.042.041 0 1.07.656 2.285 1.455Zm39.461 5.288c-.35.287-3.89 2.603-4.425 2.87-.289.143.144-.349.926-1.087.947-.881 1.75-1.434 2.367-1.64 1.132-.348 1.38-.389 1.132-.143Z" fill="#46BCBE"/></svg>