<svg xmlns="http://www.w3.org/2000/svg" viewBox="0 0 90 90"><defs><linearGradient x1="50%" y1="0%" x2="50%" y2="100%" id="a"><stop stop-color="#35B8F1" offset="0%"/><stop stop-color="#28A8EA" offset="100%"/></linearGradient><linearGradient x1="17.876%" y1="-6.51%" x2="82.124%" y2="106.51%" id="b"><stop stop-color="#1784D9" offset="0%"/><stop stop-color="#107AD5" offset="50%"/><stop stop-color="#0A63C9" offset="100%"/></linearGradient></defs><path fill="#FFF" d="M0 0h90v90H0z"/><path d="M74 46.5a1.443 1.443 0 0 0-.682-1.238h-.007l-.027-.015-22.177-13.23a2.956 2.956 0 0 0-3.325 0l-22.176 13.23-.027.015a1.463 1.463 0 0 0 .034 2.495l22.177 13.23a2.956 2.956 0 0 0 3.325 0l22.177-13.23c.443-.26.713-.74.708-1.257Z" fill="#0A2767"/><path d="M28.19 37.666h14.554v13.445H28.191V37.666ZM71.024 24v-6.15A2.777 2.777 0 0 0 68.326 15H30.559a2.778 2.778 0 0 0-2.699 2.85V24l22.326 6 20.837-6Z" fill="#0364B8"/><path fill="#0078D4" d="M27.86 24h14.884v13.5H27.86z"/><path fill="#28A8EA" d="M57.628 24H42.744v13.5L57.628 51h13.395V37.5z"/><path fill="#0078D4" d="M42.744 37.5h14.884V51H42.744z"/><path fill="#0364B8" d="M42.744 51h14.884v13.5H42.744z"/><path fill="#14447D" d="M28.19 51.11h14.554v12.223H28.191z"/><path fill="#0078D4" d="M57.628 51h13.395v13.5H57.628z"/><path d="m63.318 32.674-.028.015-22.177 12.57a3.6 3.6 0 0 1-.297.168 3.067 3.067 0 0 1-1.203.3l-1.212-.714a3.025 3.025 0 0 1-.297-.172L15.629 31.914h-.01l-.735-.414v25.446c.011 1.698 1.386 3.065 3.07 3.054h43.023c.025 0 .048-.012.074-.012a3.742 3.742 0 0 0 1.042-.22 3 3 0 0 0 .419-.218c.1-.057.27-.182.27-.182A3.036 3.036 0 0 0 64 56.946V31.5c0 .487-.261.935-.682 1.174Z" fill="url(#a)" transform="translate(10 15)"/><path d="M72.81 46.4v1.56L49.62 64.05 25.613 46.924a.015.015 0 0 0-.015-.015l-2.203-1.335V44.45l.908-.015 1.92 1.11.045.015.164.105S48.995 58.64 49.055 58.67l.863.51c.074-.03.149-.06.238-.09.045-.03 22.4-12.705 22.4-12.705l.253.015Z" fill="#0A2767" opacity=".5"/><path d="m73.318 47.674-.028.017-22.177 12.57a3.088 3.088 0 0 1-3.325 0L25.612 47.69l-.027-.017a1.352 1.352 0 0 1-.701-1.174v25.446c.01 1.697 1.384 3.065 3.069 3.054H70.93c1.684.01 3.058-1.357 3.069-3.054V46.5c0 .487-.261.935-.682 1.174Z" fill="#1490DF"/><path d="m51.436 60.075-.332.187a3.063 3.063 0 0 1-1.468.481L58.075 70.8l14.719 3.574a3.05 3.05 0 0 0 .933-1.174l-22.29-13.125Z" opacity=".1"/><path d="m52.94 59.223-1.836 1.04a3.063 3.063 0 0 1-1.468.481l3.954 10.984 19.207 2.642A3.041 3.041 0 0 0 74 71.946v-.329L52.94 59.223Z" opacity=".05"/><path d="M27.994 75h42.932a3.071 3.071 0 0 0 1.839-.6L48.4 60.016a3.025 3.025 0 0 1-.298-.172L25.628 46.917h-.01l-.734-.417v25.359c-.002 1.733 1.39 3.14 3.11 3.14Z" fill="#28A8EA"/><path d="M45.72 29.75v31.994a2.757 2.757 0 0 1-1.71 2.55c-.32.139-.665.21-1.013.21H24.884V28.5h2.976V27h15.137a2.745 2.745 0 0 1 2.724 2.75Z" opacity=".1"/><path d="M44.233 31.25v31.994c.003.363-.073.721-.224 1.05A2.712 2.712 0 0 1 41.51 66H24.884V28.5h16.625c.432-.004.857.104 1.235.315a2.73 2.73 0 0 1 1.489 2.434Z" opacity=".2"/><path d="M44.233 31.25v28.994A2.758 2.758 0 0 1 41.509 63H24.884V28.5h16.625c.432-.004.857.104 1.235.315a2.73 2.73 0 0 1 1.489 2.434Z" opacity=".2"/><path d="M42.744 31.25v28.994A2.748 2.748 0 0 1 40.02 63H24.884V28.5H40.02a2.736 2.736 0 0 1 2.724 2.748v.001Z" opacity=".2"/><path d="M2.728 13.5h27.288a2.739 2.739 0 0 1 2.728 2.75v27.5a2.739 2.739 0 0 1-2.728 2.75H2.728A2.739 2.739 0 0 1 0 43.75v-27.5a2.739 2.739 0 0 1 2.728-2.75Z" fill="url(#b)" transform="translate(10 15)"/><path d="M18.527 40.032a7.976 7.976 0 0 1 3.117-3.47 9.364 9.364 0 0 1 4.951-1.25 8.717 8.717 0 0 1 4.583 1.186 7.903 7.903 0 0 1 3.032 3.315 10.77 10.77 0 0 1 1.063 4.875 11.38 11.38 0 0 1-1.094 5.1 8.091 8.091 0 0 1-3.126 3.43 9.062 9.062 0 0 1-4.754 1.218 8.906 8.906 0 0 1-4.684-1.2 8.024 8.024 0 0 1-3.072-3.32 10.512 10.512 0 0 1-1.074-4.817 11.67 11.67 0 0 1 1.058-5.067Zm3.322 8.145a5.186 5.186 0 0 0 1.753 2.283 4.555 4.555 0 0 0 2.739.83 4.77 4.77 0 0 0 2.923-.857 4.969 4.969 0 0 0 1.703-2.283 8.925 8.925 0 0 0 .543-3.185 9.763 9.763 0 0 0-.512-3.225 5.1 5.1 0 0 0-1.65-2.379 4.505 4.505 0 0 0-2.897-.9 4.7 4.7 0 0 0-2.803.839 5.23 5.23 0 0 0-1.786 2.302 9.217 9.217 0 0 0-.012 6.578l-.001-.003Z" fill="#FFF"/><path fill="#50D9FF" d="M57.628 24h13.395v13.5H57.628z"/></svg>