<svg viewBox="0 0 90 90" xmlns="http://www.w3.org/2000/svg"><g fill="none"><path fill="#22272C" d="M0 0h90v90H0z"/><path d="M83.25 50.044c-.513.93-1.209 2.076-2.419 3.293-1.796 1.862-6.194 4.725-3.738-1.432s3.225-6.837 3.152-9.593c-.073-2.757-3.262-3.043-5.462-2.327-.953.322-2.529 1.181-3.995 2.076l.733-1.933h-5.645l-3.592 9.45c-1.503 1.468-2.932 2.757-3.775 3.079-.916.358-1.503.43-1.98.394l4.949-12.887h-5.645l-3.409 8.878c-.366.894-.916 2.47-2.346 4.367-.586.716-1.246 1.288-1.942 1.503-1.98.573-1.906-.465-1.833-.716l5.388-14.032h-5.608l-.733 1.933c-.697 1.718-3.336 8.09-5.095 10.453-1.43 1.897-2.383 2.756-3.226 2.792-.696.036-.806-1.074-.623-1.933l5.059-13.245H35.82l-2.2 5.799c-.843 1.897-1.905 3.938-2.932 4.94-1.943 1.861-3.775 1.754-4.252 1.682.807-1.396 3.52-6.407 4.069-11.097 1.283-11.49-4.142-12.85-7.734-12.421-2.566.322-4.289 1.61-5.462 3.043-2.052.751-5.095 2.792-8.394 8.018C2.977 49.578 3.417 62 12.837 62c5.279 0 9.164-3.4 11.62-6.622 3.006.43 5.351-.645 6.231-1.146v.036s-.916 3.723 3.006 4.797c1.943.537 4.105-.215 5.425-1.11 1.356-.93 1.942-1.969 1.942-1.969s-.22 3.079 4.399 3.079c3.592 0 6.854-2.542 8.137-3.652.44.143.733.18.733.18v-.037c.55.108 1.32.18 2.2.108a14.146 14.146 0 0 0 3.848-1.002l-1.54 4.08h5.646l4.508-11.92c2.126-2.29 3.885-3.007 4.838-2.184 1.247 1.074-4.105 8.413-2.932 11.67 1.173 3.258 5.168 3.759 9.31.931 2.163-1.468 3.556-3.258 4.436-4.618.916-1.396-.074-2.577-1.393-2.577Zm-64.035 3.508c-1.576 2.22-3.519 4.08-5.498 4.01-6.194-.216-2.09-12.35.733-17.004 0 0-.183.537.513 4.546.917 5.37 4.472 8.126 4.472 8.126l-.22.322Zm3.849-7.124s-.55 1.396-1.503 3.222c0 0-2.309-2.184-2.639-7.553-.183-2.935 1.576-8.484 5.022-7.16 3.592 1.36-.88 11.491-.88 11.491Z" fill="#FFF"/></g></svg>