<svg viewBox="0 0 90 90" xmlns="http://www.w3.org/2000/svg"><g fill="none"><path fill="#021D43" d="M0 0h90v90H0z"/><path d="M25.134 38.045a5.255 5.255 0 0 1-.642-2.481c0-2.784 2.192-5.044 4.893-5.044.99 0 1.925.303 2.7.855a10.87 10.87 0 0 0-.909 4.382c0 .276.027.579.027.854-.187 0-.374-.027-.588-.027a10.495 10.495 0 0 0-5.481 1.46Zm-1.07 19.596a11.803 11.803 0 0 1-4.706-9.454c0-.992.134-1.957.348-2.866h-.294c-5.187 0-9.412 4.355-9.412 9.702 0 5.347 4.225 9.701 9.412 9.701a9.255 9.255 0 0 0 5.347-1.708 6.64 6.64 0 0 1-.989-3.473c0-.662.107-1.296.294-1.902Zm.401-1.047c.856-1.682 2.38-2.922 4.225-3.308.16-.027.347-.055.535-.082.187-.028.347-.028.534-.056H30c.294 0 .561.028.856.056a16.57 16.57 0 0 1-.134-2.012c0-3.253 1.043-6.285 2.78-8.738a9.262 9.262 0 0 1-1.042-1.626l-.24-.496a3.874 3.874 0 0 1-.215-.496 11.625 11.625 0 0 1-.615-2.15c-.24-.027-.48-.027-.722-.027a9.852 9.852 0 0 0-4.893 1.295c-.16.083-.32.193-.48.276-.161.11-.295.193-.455.303a10.599 10.599 0 0 0-3.717 4.823c-.053.166-.134.358-.187.524-.054.165-.107.358-.16.524a10.568 10.568 0 0 0-.375 2.783c.027 3.418 1.631 6.477 4.064 8.407Zm33.022-12.43a10.91 10.91 0 0 1 4.518-1.296c-.427-4.961-4.465-8.875-9.385-8.875-.187 0-.374 0-.561.027.08.552.134 1.13.134 1.71 0 .909-.107 1.79-.321 2.618a14.477 14.477 0 0 1 5.615 5.815Zm-25.107-6.92c.026.193.08.386.107.579.107.441.214.882.374 1.295.08.193.134.359.214.552.08.165.16.358.24.523.241.496.535.965.856 1.406a16.201 16.201 0 0 1 2.193-2.122c.16-.11.294-.22.454-.331l.481-.33a13.734 13.734 0 0 1 7.46-2.288h.188c.187 0 .347 0 .534.027.24 0 .482.028.722.055 1.658.138 3.209.58 4.653 1.268a10.97 10.97 0 0 0 .214-2.122 9.83 9.83 0 0 0-.134-1.571 4.009 4.009 0 0 0-.107-.551 2.95 2.95 0 0 0-.134-.524c-1.07-4.133-4.705-7.11-9.01-7.11-3.557 0-6.658 2.04-8.263 5.016-.08.166-.187.331-.267.496-.08.193-.16.359-.24.552-.428 1.13-.696 2.342-.696 3.638 0 .33.027.634.054.964.053.193.08.386.107.58Zm42.46 16.427c-.295 0-.562.028-.83.083.027.248.027.496.027.716 0 3.087-1.176 5.899-3.101 7.993a5.08 5.08 0 0 0 3.904 1.847c2.834 0 5.16-2.398 5.16-5.32 0-2.921-2.326-5.319-5.16-5.319Zm-1.899.358c0-.193-.027-.385-.027-.578-.026-.193-.026-.386-.053-.552-.722-4.96-4.786-8.792-9.733-8.957h-.534c-.188 0-.348 0-.535.027a10.13 10.13 0 0 0-4.064 1.185 14.915 14.915 0 0 1 1.256 5.458c0 .193.027.386.027.579v.165c0 .248 0 .496-.027.744a14.776 14.776 0 0 1-4.09 9.399c1.871 2.15 4.598 3.5 7.62 3.5 2.593 0 4.973-1.02 6.791-2.673.134-.138.268-.249.401-.386.134-.138.268-.276.375-.414 1.657-1.874 2.647-4.355 2.647-7.083a1.716 1.716 0 0 1-.054-.414Zm-40 5.017c-.107-.166-.187-.331-.294-.496a15.15 15.15 0 0 1-1.577-4.19 4.473 4.473 0 0 0-1.043-.11h-.107c-.187 0-.348.027-.535.027a3.686 3.686 0 0 0-.535.11c-1.524.359-2.78 1.434-3.449 2.84-.08.165-.16.33-.214.523-.053.166-.107.359-.16.524-.107.413-.16.854-.16 1.295 0 1.02.293 1.985.775 2.784.107.165.187.303.32.469.108.137.214.275.348.413a5.073 5.073 0 0 0 3.743 1.654c2.193 0 4.065-1.406 4.813-3.39-.561-.607-1.096-1.24-1.55-1.957a1.515 1.515 0 0 1-.375-.496Zm25.187-6.808c.027-.22.027-.469.027-.717v-.358a13.84 13.84 0 0 0-1.123-5.485l-.24-.496-.241-.496c-1.177-2.205-2.915-4.052-5.027-5.292-.16-.083-.32-.193-.481-.276l-.482-.248a12.86 12.86 0 0 0-5.32-1.295h-.669c-.24 0-.454.028-.668.028a12.526 12.526 0 0 0-5.722 1.901c-.16.11-.321.193-.455.303-.16.11-.294.221-.454.331a13.408 13.408 0 0 0-2.38 2.26c-.107.138-.24.276-.348.441-.106.138-.213.303-.32.441a13.731 13.731 0 0 0-2.46 7.883c0 .772.053 1.543.187 2.26.027.22.08.413.107.634.053.22.107.44.16.689.321 1.24.83 2.398 1.47 3.473.108.165.188.33.295.468.107.166.214.304.32.469.241.358.509.689.776.992.16.165.294.358.455.524.133.165.294.303.454.44 2.353 2.233 5.508 3.611 8.958 3.611 3.315 0 6.363-1.267 8.69-3.362.133-.11.267-.248.4-.358.134-.138.268-.249.402-.386a13.85 13.85 0 0 0 3.61-7.718c.026-.193.053-.413.08-.661Z" fill="#FFF"/></g></svg>