<svg viewBox="0 0 90 90" xmlns="http://www.w3.org/2000/svg"><g fill="none" fill-rule="evenodd"><path fill="#FFF" d="M0 0h90v90H0z"/><g fill-rule="nonzero"><path d="M12.332 0h31.504a46.167 46.167 0 0 1 32.643 13.52A46.156 46.156 0 0 1 90 46.159v31.5A12.329 12.329 0 0 1 77.678 90H46.37A46.345 46.345 0 0 1 3.527 61.397 46.33 46.33 0 0 1 0 43.655V12.331A12.33 12.33 0 0 1 12.332 0Z" fill="#0A7542"/><path d="M31.772 16.986v.01H44.54c.237-.007.475-.01.713-.01h.01A28.009 28.009 0 0 1 73.27 44.99a28.001 28.001 0 0 1-17.286 25.87 28.01 28.01 0 0 1-24.212-1.33v18.08a46.377 46.377 0 0 1-14.444-7.92l-.557-.46V26.804a9.808 9.808 0 0 1 9.421-9.81l.387-.007h5.193ZM45.253 31.47a13.543 13.543 0 0 0-13.482 12.498v2.055A13.52 13.52 0 0 0 47.89 58.25a13.523 13.523 0 0 0 9.855-18.435 13.522 13.522 0 0 0-12.493-8.346Z" fill="#F1F2F2"/></g></g></svg>