<svg viewBox="0 0 90 90" xmlns="http://www.w3.org/2000/svg"><g fill="none"><path d="M90 45c0 24.854-20.148 45-45 45a44.794 44.794 0 0 1-21.513-5.465C9.494 76.905 0 62.06 0 45 0 20.147 20.147 0 45 0c24.852 0 45 20.147 45 45Z" fill="#20B276"/><path d="M62.96 57.8c-4.761 4.906-10.54 7.362-17.334 7.362-4.147 0-8-.702-11.612-2.741l-.043 26.13-.342-.093-.212-.054-.25-.136-.118-.213-.109-.24.12-.152-11.915-14.207.004-33.585c0-6.998 2.38-12.941 7.142-17.83 4.761-4.89 10.54-7.335 17.335-7.335 6.794 0 12.573 2.453 17.334 7.361 4.762 4.908 7.143 10.863 7.143 17.867 0 7.003-2.381 12.958-7.143 17.865Zm-9.088-26.373c-2.261-2.332-5.01-3.497-8.246-3.497-3.237 0-5.986 1.165-8.246 3.497-2.26 2.333-3.391 5.167-3.391 8.507 0 3.339 1.13 6.174 3.391 8.506 2.26 2.332 5.009 3.499 8.246 3.499 3.236 0 5.985-1.167 8.246-3.5 2.26-2.331 3.39-5.166 3.39-8.505 0-3.34-1.13-6.175-3.39-8.507Z" fill="#147F52"/><path d="M62.024 56.872c-4.762 4.907-10.54 7.362-17.334 7.362-4.147 0-8.026-1.02-11.637-3.058l-.004 27.22s-.879-.242-2.023-.61a34.149 34.149 0 0 1-.865-.295c-.142-.05-.211-.08-.357-.122-.375-.108-.85-.316-1.215-.458a45.755 45.755 0 0 1-2.248-.946c-.024-.011-3.54-1.688-3.937-1.936-.355-.222-.67-.396-.942-.59a13.12 13.12 0 0 0-.234-.163c-.644-.443-1.004-.697-1.004-.697l-.011-43.635c0-6.998 2.38-12.941 7.143-17.83 4.76-4.891 10.539-7.335 17.334-7.335s12.573 2.453 17.334 7.361c4.762 4.908 7.143 10.863 7.143 17.866s-2.382 12.958-7.143 17.866ZM52.935 30.5c-2.26-2.332-5.009-3.498-8.246-3.498s-5.985 1.166-8.246 3.498c-2.26 2.332-3.39 5.167-3.39 8.506 0 3.34 1.13 6.174 3.39 8.506 2.26 2.333 5.01 3.5 8.246 3.5 3.237 0 5.985-1.167 8.246-3.5 2.26-2.332 3.391-5.167 3.391-8.506 0-3.34-1.13-6.174-3.39-8.506Z" fill="#FFF"/></g></svg>