<svg viewBox="0 0 90 90" xmlns="http://www.w3.org/2000/svg"><g fill="none" fill-rule="evenodd"><path fill="#FDDD35" d="M0 0h90v90H0z"/><path d="M23 37.424v-1.977a9.253 9.253 0 0 0 6.52-2.708 9.11 9.11 0 0 0 2.71-6.46h1.832a9.1 9.1 0 0 0 2.71 6.478 9.234 9.234 0 0 0 6.521 2.672v1.995a9.253 9.253 0 0 0-6.52 2.671 9.11 9.11 0 0 0-2.71 6.479H32.23a9.092 9.092 0 0 0-2.71-6.479A9.29 9.29 0 0 0 23 37.424Zm9.23-14.568h15.862c7.747 0 13.278 5.49 13.278 13.543 0 8.052-5.531 13.542-13.278 13.542H32.23V73h6.63V55.797h9.23a19.605 19.605 0 0 0 13.995-5.56A19.574 19.574 0 0 0 68 36.4C68 25.71 59.209 17 48.092 17H32.23v5.856Z" fill="#000" fill-rule="nonzero"/></g></svg>