<svg viewBox="0 0 90 90" xmlns="http://www.w3.org/2000/svg"><g fill="none" fill-rule="evenodd"><path fill="#004DCA" fill-rule="nonzero" d="M0 0h90v90H0z"/><path d="M59.31 30.91c.298 3.178 4.585 9.552 4.585 9.552s2.97 4.848-.83 6.834c-2.803 1.468-5.224.04-5.656-.57-.536-.865-.69-1.249-.947-2.303-.54-2.217-1.97-3.465-4.923-3.981-2.452-.43-6.376-2.553-6.718-8.462 0 0-.856 2.986.79 5.659.198.32.45.691.737 1.112 2.107 3.094 5.977 8.782 1.849 14.916C41.053 63.736 45.02 75 45.02 75S20.93 66.701 25.6 41.288c2.085-11.34 11.715-21.827 22.963-20.602.073-.47.389-1.546 1.742-2.966 1.844-1.929 2.23-2.72 2.23-2.72s1.057 2.247.264 4.286l-.054.144c.096-.11.198-.224.307-.338 1.844-1.928 2.23-2.719 2.23-2.719s1.057 2.25.264 4.286a7.077 7.077 0 0 0-.48 2.022c.414.194 3.608 1.882 4.243 8.231v-.001Z" fill="#FFF"/></g></svg>