<svg viewBox="0 0 90 90" xmlns="http://www.w3.org/2000/svg"><g fill="none"><path d="M11.605 5c4.873.003 9.225 3.298 10.893 8.247C16.918 17.527 12.672 23.38 9.623 30 3.763 28.749-.53 22.747.053 16.323.634 9.898 5.632 5 11.605 5Zm66.788 0c5.972 0 10.97 4.898 11.551 11.323.582 6.424-3.442 12.276-9.301 13.527-3.05-6.62-7.564-12.323-13.144-16.603C69.167 8.297 73.52 5.003 78.392 5ZM28.902 45H5a40 40 0 0 0 40 40V61.098c-8.886-.01-16.088-7.212-16.098-16.098" fill="#0086DC"/><path d="M45 5v23.902c8.886.01 16.088 7.212 16.098 16.098H85A40 40 0 0 0 45 5" fill="#6FB7EA"/><path d="M45 28.902V5A40 40 0 0 0 5 45h23.902c.01-8.886 7.212-16.088 16.098-16.098" fill="#A2CFF1"/><path d="M45 61.098V85a40 40 0 0 0 40-40H61.098c-.01 8.886-7.212 16.088-16.098 16.098" fill="#369EE3"/></g></svg>