<svg viewBox="0 0 90 90" xmlns="http://www.w3.org/2000/svg"><g fill="none" fill-rule="evenodd"><path fill="#FFB204" fill-rule="nonzero" d="M0 0h90v90H0z"/><path d="m20.957 45 .708 23.335 23.332.706-7.983 7.986c-11.81-2.935-21.107-12.232-24.042-24.043L20.957 45Zm32.027-32.028c11.81 2.935 21.108 12.232 24.043 24.042l-7.986 7.983V45l7.986 7.985c-2.935 11.81-12.231 21.107-24.042 24.042L45 69.042h-.003H45L20.96 45 45 20.957ZM69.042 45 45 69.042l23.335-.707L69.042 45ZM35.1 35.1c-5.468 5.468-5.468 14.332 0 19.8 5.467 5.467 14.331 5.467 19.798 0 5.468-5.468 5.468-14.332 0-19.8-5.467-5.467-14.331-5.467-19.798 0ZM45 20.958v.001l24.04 24.04-.706-23.333L45 20.957Zm-7.986-7.984 7.983 7.984-23.333.708-.708 23.333-7.984-7.983c2.935-11.81 12.231-21.107 24.042-24.042Z" fill="#000"/></g></svg>