<?xml version="1.0" encoding="UTF-8"?>
<svg width="90px" height="90px" viewBox="0 0 90 90" version="1.1" xmlns="http://www.w3.org/2000/svg" xmlns:xlink="http://www.w3.org/1999/xlink">
    <title>paritex.com</title>
    <g id="paritex" stroke="none" stroke-width="1" fill="none" fill-rule="evenodd">
        <rect id="Rectangle" fill="#FFFFFF" opacity="0" x="0" y="0" width="90" height="90"></rect>
        <g id="paritex-logo-white" transform="translate(0.000000, 14.000000)" fill="#10CF78" fill-rule="nonzero">
            <g id="Group">
                <path d="M48.8849759,7.10542736e-15 C48.8849759,7.10542736e-15 54.2230598,7.40866566 60.2640964,15.7921557 L60.7487911,16.4647926 C60.9918004,16.8020288 61.2357366,17.1405502 61.4803031,17.4799451 L61.9701887,18.1597774 C62.051947,18.2732362 62.1337535,18.3867616 62.215597,18.5003383 L62.7070149,19.1822918 C62.7889628,19.2960127 62.8709257,19.4097543 62.9528928,19.5235015 L63.6904107,20.5469642 C64.1817678,21.2288235 64.6720864,21.9092354 65.1589932,22.5849057 C72.8683515,33.2830189 65.1589932,41.6037736 65.1589932,41.6037736 L65.1589932,41.6037736 L49.7426071,63 L33.4685898,63 L55.7390336,30.9056604 L33.4685898,7.10542736e-15 Z M68.5871873,42.0638322 C73.0586067,34.3107732 77.530026,39.7141839 77.9272802,40.2234529 L77.9486717,40.2512623 C77.9534559,40.2575952 77.9558755,40.26091 77.9558755,40.260963 L77.9558755,40.260963 L90,56.5078029 L78.6247346,56.5078029 L68.5871873,42.967602 Z M34.4380859,9.65655929 L34.4380859,18.4817437 L12.8784505,18.4817437 L12.8784505,25.0510064 L32.8789684,25.0510064 L32.8789684,33.4815213 L12.8784505,33.4815213 L12.8784505,41.6294621 L35.0626651,41.6294621 L35.0626651,50.9894354 L1.10134124e-13,50.9894354 L1.10134124e-13,9.65655929 L34.4380859,9.65655929 Z M90,5.95740816 L77.9558755,22.2042481 C77.9558755,22.2043011 77.9534559,22.2076172 77.9486717,22.2139524 L77.9272802,22.241772 C77.530026,22.7512299 73.0586067,28.1566671 68.5871873,20.401379 L68.5871873,19.4976091 L78.6247346,5.95740816 L90,5.95740816 Z" id="Combined-Shape"></path>
            </g>
        </g>
    </g>
</svg>