<svg viewBox="0 0 90 90" xmlns="http://www.w3.org/2000/svg"><defs><linearGradient x1="76.278%" y1="16.378%" x2="20.704%" y2="82.274%" id="a"><stop stop-color="#2DBCDC" offset="0%"/><stop stop-color="#5A43E6" offset="100%"/></linearGradient></defs><g fill="none"><path fill="#FFF" d="M0 0h90v90H0z"/><path d="m36.604 9.142 2.968.05c1.65.026 3.958.23 5.125.407 10.4 1.676 19.684 9.396 23.54 19.63 2.714 7.186 2.258 16.708-1.116 23.489-3.73 7.465-10.248 13.23-17.757 15.77-2.46.812-2.384.812-5.784 1.345-.646.108-2.233.16-3.876.166h-.58c-2.032-.006-3.993-.083-4.22-.217-.1-.076-.735-.203-1.344-.304-1.547-.229-5.276-1.473-7.178-2.438-5.886-2.92-11.136-8.177-14.104-14.145-.863-1.701-2.182-5.46-2.436-6.907-.456-2.64-.583-3.936-.608-6.551l-.051-2.844h27.421V9.142Zm27.194 33.545H42.693V63.84l1.09-.178c5.759-.914 11.745-4.621 15.398-9.522 2.156-2.946 3.932-7.085 4.44-10.386l.177-1.067Zm-27.194 0H24.502c-7.59.007-8.952.07-8.952.356 0 .71.786 3.732 1.294 5.053 2.41 6.12 6.392 10.538 12.1 13.382 2.13 1.067 4.566 1.854 6.468 2.134l1.192.177V42.687Zm6.444-27.171c-.29 0-.35 1.612-.355 9.333v11.744h21.13l-.177-1.092c-.305-1.88-1.193-4.571-2.207-6.603-3.095-6.323-8.904-11.072-15.652-12.773-1.319-.33-2.562-.61-2.74-.61ZM30.516 0v30.498H0l.152-3.631c.229-5.74 1.624-10.132 4.668-14.729C8.828 6.095 15.6 1.701 22.83.458 23.921.253 26.103.075 27.675.05L30.516 0Zm-6.078 10.72c-.006-4.928-.225-4.603-2.29-3.903l-.298.1-.212.066c-3.983 1.22-7.027 3.098-9.792 6.07C9.26 15.845 7.153 19.96 6.57 23.438l-.178.964h18.036v-9.717c.003-1.37.01-2.525.01-3.495Z" transform="translate(10 10)" fill="url(#a)"/></g></svg>