<?xml version="1.0" encoding="UTF-8"?>
<svg width="90px" height="90px" viewBox="0 0 90 90" version="1.1" xmlns="http://www.w3.org/2000/svg" xmlns:xlink="http://www.w3.org/1999/xlink">
    <title>passfolio.us</title>
    <g id="passfolio" stroke="none" stroke-width="1" fill="none" fill-rule="evenodd">
        <rect id="Rectangle" fill="#000000" fill-rule="nonzero" opacity="0" x="0" y="0" width="90" height="90"></rect>
        <g id="Group" transform="translate(4.000000, 0.000000)" fill="#0F71F0" fill-rule="nonzero">
            <path d="M4.9485234,69.5566831 L40.9999545,89.3037312 C41.5815325,89.6747776 42.2423459,89.9055641 42.9294222,89.9765323 C43.6164427,90.0475006 44.3106561,89.9569741 44.9562469,89.7122176 C45.6018377,89.467461 46.1809065,89.07518 46.6469497,88.5672263 C47.1130487,88.0592726 47.4531298,87.4496164 47.6399818,86.7868738 L49.6767878,74.7518924 C49.6767878,74.7518924 13.686414,72.0729817 4.9485234,69.5566831 Z" id="Path"></path>
            <path d="M75.6255992,0.0056771402 C76.5428533,-0.0338264698 77.4578768,0.133226378 78.3015277,0.494439533 C79.1451782,0.855653273 79.8962672,1.40172861 80.4990341,2.09205943 C81.1018011,2.78239026 81.5411909,3.59922328 81.7831899,4.48183326 C82.0257464,5.36444886 82.0653361,6.29013171 81.8991709,7.19008693 L81.8991709,7.19008693 L72.0000756,62.5548575 C71.5021378,64.5704669 70.3490184,66.3659071 68.7208227,67.6617757 C67.0931845,68.9576443 65.0808015,69.6807378 62.9976032,69.7187365 L62.9976032,69.7187365 L6.37419832,69.7187365 C5.45672118,69.7584116 4.5421436,69.5913291 3.69838134,69.2303411 C2.85461911,68.8687942 2.10338523,68.3228419 1.50059039,67.6327178 C0.897801112,66.9420349 0.458918731,66.1250621 0.216585221,65.2427091 C-0.0257482893,64.3603563 -0.0653100992,63.4344165 0.100849502,62.5347405 L0.100849502,62.5347405 L9.9793693,7.61628756 C10.5216365,5.51383423 11.7262783,3.64006078 13.4163677,2.27021758 C15.1064014,0.90037443 17.1928338,0.106672508 19.3690401,0.0056771402 L19.3690401,0.0056771402 Z M45.5624152,18.1290285 L33.0564227,18.1290285 L32.0990771,23.5275311 L44.3199681,23.5275311 C47.4973474,23.5275311 49.086065,24.8060767 49.086065,27.3632798 C49.0932023,27.7850097 49.0590771,28.2064045 48.9841911,28.6215408 C48.76366,30.0478345 48.0417893,31.3496822 46.9473854,32.2949007 C45.701258,33.2619127 44.1451043,33.7451112 42.5682638,33.6546967 L30.3474285,33.6546967 L27.0681753,51.9201853 L33.9321911,51.9201853 L36.2338019,38.911095 L41.8553706,38.911095 C44.3235925,38.9740725 46.7742501,38.4815416 49.0249519,37.4701608 C50.8962059,36.6037895 52.5205543,35.2852893 53.7503439,33.6344121 C54.8443576,32.1170332 55.5887551,30.3775852 55.9300072,28.5403464 C56.0627162,27.8719598 56.1307437,27.1923412 56.1335315,26.5108788 C56.1708909,25.3661668 55.9484081,24.2278254 55.482811,23.180625 C55.0177715,22.1334804 54.3207698,21.2045231 53.4447783,20.462989 C51.1868278,18.7612603 48.3866101,17.9321056 45.5624152,18.1290285 Z" id="Shape"></path>
        </g>
    </g>
</svg>