<svg xmlns="http://www.w3.org/2000/svg" viewBox="0 0 90 90"><g fill="none" fill-rule="evenodd"><path fill="#4A85E5" d="M0 0h90v90H0z"/><path fill="#FFF" fill-rule="nonzero" d="M66.4 23.35a18.74 18.74 0 0 0-24.18-1.73 18.62 18.62 0 0 0-5.58 23.53.7.7 0 0 1-.13.8L18.2 64.26c-.13.14-.2.31-.2.5v6.54c0 .4.32.7.7.71h6.58c.19 0 .36-.07.5-.2l5.55-5.52c.13-.13.3-.2.49-.2h7.33c.78 0 1.41-.63 1.41-1.41v-7.33c0-.18.07-.35.2-.49l3.36-3.36a.71.71 0 0 1 .81-.14 18.73 18.73 0 0 0 23.6-5.84 18.62 18.62 0 0 0-2.14-24.16h.01ZM61.44 37.1a6.08 6.08 0 0 1-10.58-4.05 6.06 6.06 0 0 1 10.58-4.06 6.03 6.03 0 0 1 0 8.11Z"/></g></svg>