<svg xmlns="http://www.w3.org/2000/svg" viewBox="0 0 90 90"><path fill="#FFF" d="M0 0h90v90H0z"/><path d="M70.027 36.066c.514-1.176.65-2.386.465-3.415a.3.3 0 0 0-.281-.245 4.886 4.886 0 0 0-4.719 2.927 4.844 4.844 0 0 0-.293 3.013c.044.197.321.212.391.023.626-1.691 1.893-3.22 3.021-3.688-1.084.452-2.22 2.43-2.688 4.237-.06.231.137.45.376.416 1.443-.207 2.929-1.436 3.728-3.268M51.3 33.2c.97-.439 1.986-.7 3.003-.789a9.055 9.055 0 0 1 7.315 2.73c.13.134.375.41.375.41.364.4.812.932 1.277 1.586a3.122 3.122 0 0 1-.01-.019l.013.023c.983 1.31 2.295 3.488 2.633 6.373l-1.774-1.942c-1.87-2.587-1.427-2.115-1.991-2.668-2.388-2.339-5.214-2.918-6.437-3.091.79.204 1.681.513 2.612.99 2.747 1.403 4.387 3.512 5.256 4.892a.294.294 0 0 1-.16.439 8.756 8.756 0 0 1-1.789.349 8.29 8.29 0 0 1-1.54-.008c-3.146-.312-5.125-2.342-5.915-3.153-2.082-2.136-2.783-4.565-3.036-5.795a.294.294 0 0 1 .167-.327Z" fill="#04A287"/><path d="M9.967 58.566v-6.39h3.13c1.493 0 3.274-.202 4.767-1.676 1.493-1.475 1.694-3.267 1.694-4.8 0-1.619-.287-3.238-1.78-4.683-1.465-1.417-3.188-1.735-4.853-1.735H5v19.284h4.967Zm1.666-10.437H9.967v-4.8h1.695c.631 0 1.55.088 2.124.695.517.52.575 1.214.575 1.734 0 .463-.03 1.244-.632 1.764-.603.55-1.58.607-2.096.607ZM26.619 59c1.263 0 2.929-.376 3.991-1.85v1.416h4.594V45.643H30.61v1.243c-.545-.607-1.78-1.677-3.848-1.677-1.837 0-3.531.723-4.622 1.821-1.034 1.041-1.982 2.747-1.982 5.176 0 1.937.603 3.411 1.838 4.741C23.546 58.595 25.241 59 26.619 59Zm.112-3.932c-.775 0-1.579-.405-2.067-.867a2.991 2.991 0 0 1-.89-2.11c0-.666.287-1.504.919-2.111a2.925 2.925 0 0 1 2.01-.839c.976 0 1.636.434 2.067.839.718.693.89 1.503.89 2.11 0 1.04-.46 1.677-.861 2.082-.575.578-1.321.896-2.068.896ZM42.363 59c1.062 0 3.244-.116 4.737-1.62.632-.606 1.293-1.647 1.293-3.208 0-.954-.345-1.966-.977-2.573-.373-.376-1.292-.839-1.895-1.012l-.832-.232c-.718-.202-1.092-.202-1.522-.375-.287-.116-.546-.319-.546-.723 0-.29.144-.492.402-.636.287-.174.603-.26 1.063-.26.832 0 1.78.346 2.411.636l1.551-2.95a10.532 10.532 0 0 0-4.106-.838c-1.895 0-3.618.55-4.594 1.561-.718.752-1.206 1.908-1.206 3.152 0 .983.344 1.705.832 2.226.69.752 1.608.983 2.24 1.127l1.206.29c.46.115.919.202 1.206.462.201.174.23.376.23.578 0 .232-.029.405-.23.608-.287.26-.833.346-1.177.346a5.942 5.942 0 0 1-1.78-.318 6.557 6.557 0 0 1-1.838-.954l-1.637 3.21C39.405 58.855 41.214 59 42.363 59Zm12.384 0c1.062 0 3.245-.116 4.738-1.62.631-.606 1.292-1.647 1.292-3.208 0-.954-.345-1.966-.976-2.573-.374-.376-1.292-.839-1.895-1.012l-.833-.232c-.718-.202-1.091-.202-1.522-.375-.287-.116-.546-.319-.546-.723 0-.29.144-.492.402-.636.288-.174.603-.26 1.063-.26.833 0 1.78.346 2.412.636l1.55-2.95a10.532 10.532 0 0 0-4.106-.838c-1.895 0-3.618.55-4.594 1.561-.718.752-1.206 1.908-1.206 3.152 0 .983.345 1.705.833 2.226.689.752 1.608.983 2.24 1.127l1.205.29c.46.115.92.202 1.206.462.201.174.23.376.23.578 0 .232-.029.405-.23.608-.287.26-.832.346-1.177.346a5.942 5.942 0 0 1-1.78-.318 6.557 6.557 0 0 1-1.838-.954l-1.636 3.21c2.21 1.358 4.02 1.503 5.168 1.503Zm12.25-.434V45.643h-4.595v12.923h4.595Zm11.313 0L85 45.643h-5.111l-3.13 6.62-3.072-6.62h-5.14l6.633 12.923h3.13Z" fill="#1B1D23"/></svg>