<svg viewBox="0 0 90 90" xmlns="http://www.w3.org/2000/svg"><defs><radialGradient cx="11.138%" cy="101.949%" fx="11.138%" fy="101.949%" r="106.242%" gradientTransform="matrix(.52782 -.66735 .84936 .41471 -.813 .671)" id="a"><stop stop-color="#FFD580" offset="0%"/><stop stop-color="#F6C592" offset="9.375%"/><stop stop-color="#EBB6A2" offset="20.5%"/><stop stop-color="#DFA5AF" offset="32.447%"/><stop stop-color="#D397BE" offset="42.875%"/><stop stop-color="#C486CB" offset="53.375%"/><stop stop-color="#B578D9" offset="64.875%"/><stop stop-color="#A166E5" offset="77.125%"/><stop stop-color="#8B57F2" offset="89.125%"/><stop stop-color="#704CFF" offset="100%"/></radialGradient><radialGradient cx="28.128%" cy="99.231%" fx="28.128%" fy="99.231%" r="82.66%" gradientTransform="scale(1 .95702) rotate(-58.142 .321 1.015)" id="c"><stop stop-color="#FFD580" offset="0%"/><stop stop-color="#F6C592" offset="9.375%"/><stop stop-color="#EBB6A2" offset="20.5%"/><stop stop-color="#DFA5AF" offset="32.447%"/><stop stop-color="#D397BE" offset="42.875%"/><stop stop-color="#C486CB" offset="53.375%"/><stop stop-color="#B578D9" offset="64.875%"/><stop stop-color="#A166E5" offset="77.125%"/><stop stop-color="#8B57F2" offset="89.125%"/><stop stop-color="#704CFF" offset="100%"/></radialGradient><linearGradient x1="23.303%" y1="-19.856%" x2="38.582%" y2="98.852%" id="b"><stop stop-color="#6D4AFF" offset="0%"/><stop stop-color="#B39FFB" stop-opacity=".978" offset="39.201%"/><stop stop-color="#FFE8DB" stop-opacity=".8" offset="100%"/></linearGradient></defs><g fill="none"><path fill="#FFF" d="M0 0h90v90H0z"/><path d="M16.539 6.948c3.837-3.837 5.755-5.755 7.967-6.474a9.688 9.688 0 0 1 5.988 0c2.212.719 4.13 2.637 7.967 6.474l9.591 9.591c3.837 3.837 5.755 5.755 6.474 7.967a9.692 9.692 0 0 1 0 5.988c-.719 2.212-2.637 4.13-6.474 7.967l-9.59 9.591c-3.838 3.837-5.756 5.755-7.968 6.474a9.692 9.692 0 0 1-5.988 0c-2.212-.719-4.13-2.637-7.967-6.474l-1.803-2.022c-1.091-1.223-1.637-1.835-2.026-2.53a7.268 7.268 0 0 1-.751-1.971c-.173-.778-.173-1.598-.173-3.237V16.708c0-1.639 0-2.458.173-3.237a7.24 7.24 0 0 1 .751-1.97c.389-.696.935-1.308 2.026-2.531l1.803-2.022Z" fill="url(#a)" transform="translate(17.5 17.5)"/><path d="M16.539 6.948c3.837-3.837 5.755-5.755 7.967-6.474a9.688 9.688 0 0 1 5.988 0c2.212.719 4.13 2.637 7.967 6.474l9.591 9.591c3.837 3.837 5.755 5.755 6.474 7.967a9.692 9.692 0 0 1 0 5.988c-.719 2.212-2.637 4.13-6.474 7.967l-9.59 9.591c-3.838 3.837-5.756 5.755-7.968 6.474a9.692 9.692 0 0 1-5.988 0c-2.212-.719-4.13-2.637-7.967-6.474l-1.803-2.022c-1.091-1.223-1.637-1.835-2.026-2.53a7.268 7.268 0 0 1-.751-1.971c-.173-.778-.173-1.598-.173-3.237V16.708c0-1.639 0-2.458.173-3.237a7.24 7.24 0 0 1 .751-1.97c.389-.696.935-1.308 2.026-2.531l1.803-2.022Z" fill="url(#b)" transform="translate(17.5 17.5)"/><path d="M15.854 7.633c1.918-1.919 2.877-2.878 3.983-3.237a4.844 4.844 0 0 1 2.994 0c1.106.359 2.066 1.318 3.984 3.237L41.2 22.019c1.919 1.918 2.878 2.877 3.237 3.984.316.972.316 2.02 0 2.993-.36 1.106-1.318 2.066-3.237 3.984L26.815 47.366c-1.918 1.919-2.878 2.878-3.984 3.238a4.85 4.85 0 0 1-2.994 0c-1.106-.36-2.065-1.32-3.983-3.238L6.948 38.46c-3.837-3.836-5.755-5.755-6.474-7.967a9.688 9.688 0 0 1 0-5.987c.719-2.213 2.637-4.13 6.474-7.968l8.906-8.905Z" fill="url(#c)" transform="translate(17.5 17.5)"/></g></svg>