<svg xmlns="http://www.w3.org/2000/svg" viewBox="0 0 90 90"><g fill="#E10600"><path d="M86.448 38.569 50.628 5.168c-3.103-2.89-8.004-2.89-11.209 0L16.908 26.203c5.902 2.194 10.506 7.081 12.206 13.164h30.42c1.6 0 2.799 1.294 2.799 2.791v4.585c0 1.596-1.301 2.792-2.8 2.792H56.03v6.48c0 1.596-1.301 2.791-2.8 2.791h-7.703a2.8 2.8 0 0 1-1.983-.815 2.784 2.784 0 0 1-.82-1.976v-6.48H29.216c-1.703 6.18-6.304 11.166-12.308 13.262L39.52 83.832c3.103 2.89 8.004 2.89 11.205 0l35.722-33.4c3.403-3.19 3.403-8.573 0-11.863Z"/><path d="M10.304 35.278c-1.502 0-2.902.397-4.203.995a9.158 9.158 0 0 0-5.1 8.036 9.155 9.155 0 0 0 4.8 8.218 9.298 9.298 0 0 0 4.401 1.093 9.19 9.19 0 0 0 6.514-2.676 9.137 9.137 0 0 0 2.692-6.493c.2-4.986-4.002-9.173-9.104-9.173Z"/></g></svg>