<svg viewBox="0 0 90 90" xmlns="http://www.w3.org/2000/svg"><g fill="none" fill-rule="evenodd"><path fill="#FFF" d="M0 0h90v90H0z"/><g fill-rule="nonzero"><g transform="translate(15 18)"><ellipse fill="#FF4D67" cx="14.31" cy="21.274" rx="3.051" ry="3.113"/><ellipse fill="#0045FF" cx="45.69" cy="31.058" rx="3.051" ry="3.113"/><path d="M53.51 16.406c-4.184-4.27-9.747-6.622-15.665-6.622-.93 0-1.85.059-2.76.174V15.2a16.86 16.86 0 0 1 2.76-.227c9.412 0 17.07 7.814 17.07 17.42 0 9.604-7.658 17.418-17.07 17.418a16.89 16.89 0 0 1-2.76-.226v5.241c.91.115 1.83.174 2.76.174 5.917 0 11.481-2.352 15.666-6.622C57.695 44.108 60 38.431 60 32.392c0-6.04-2.304-11.716-6.49-15.987v.001Z" fill="#0045FF"/><path d="M24.915 39.8c-.906.15-1.827.227-2.76.227-9.413 0-17.07-7.814-17.07-17.419s7.657-17.42 17.07-17.42c.933 0 1.854.078 2.76.227V.174C24.005.059 23.085 0 22.155 0 16.237 0 10.673 2.352 6.489 6.622 2.304 10.892 0 16.569 0 22.608c0 6.038 2.304 11.716 6.49 15.986 4.184 4.27 9.747 6.622 15.665 6.622.93 0 1.85-.058 2.76-.174v-5.241Z" fill="#FF4D67"/><path d="M24.915 28.844c-.906.141-1.828.213-2.76.213-2.516 0-4.95-.516-7.235-1.535a1.514 1.514 0 0 0-2.008.803 1.57 1.57 0 0 0 .787 2.05 20.633 20.633 0 0 0 8.456 1.795c.93 0 1.851-.061 2.76-.181v-3.145Z" fill="#FF4D67"/><path d="M47.088 38.11a1.514 1.514 0 0 0-2.008-.804 17.653 17.653 0 0 1-7.235 1.535 17.94 17.94 0 0 1-2.76-.212v3.144c.909.12 1.83.181 2.76.181 2.938 0 5.783-.603 8.456-1.795.772-.344 1.124-1.262.787-2.05Z" fill="#0045FF"/></g><path d="m47.54 22.133-.002-.017a2.47 2.47 0 0 0-.008-.106l-.004-.042a4.01 4.01 0 0 0-.01-.077l-.01-.066-.01-.051a1.306 1.306 0 0 0-.017-.086l-.006-.03a2.216 2.216 0 0 0-.026-.1l-.004-.015a2.66 2.66 0 0 0-.033-.108l-.002-.007c-.013-.037-.025-.075-.04-.11l-.002-.006a2.491 2.491 0 0 0-.044-.107l-.004-.01a2.87 2.87 0 0 0-.046-.099l-.01-.02a2.66 2.66 0 0 0-.135-.235.514.514 0 0 0-.032-.049l-.044-.064-.023-.031a2.68 2.68 0 0 0-.058-.076l-.014-.017a2.667 2.667 0 0 0-.07-.082l-.007-.009a3.031 3.031 0 0 0-.078-.084l-.005-.004a2.492 2.492 0 0 0-.083-.081l-.006-.005a2.882 2.882 0 0 0-.084-.075l-.012-.01-.079-.063-.025-.019a2.125 2.125 0 0 0-.069-.05l-.043-.03a1.941 1.941 0 0 0-.12-.075l-.035-.02a3.274 3.274 0 0 0-.094-.051l-.013-.007a21.759 21.759 0 0 0-3.675-1.285v50.04a2.448 2.448 0 0 0 .012.297l.004.042.01.077.01.065.01.052c.005.028.01.057.017.085l.006.03.026.1.004.015c.01.036.021.073.033.109l.002.006c.013.038.025.075.04.111l.002.006c.014.036.028.072.044.107l.004.01.046.098.01.02a2.66 2.66 0 0 0 .135.236c.01.016.02.032.032.048l.044.064.023.032.058.075.014.018.07.082.007.008.078.084.005.005.083.08.006.006c.028.025.055.05.084.074l.012.01.079.064.025.019.069.05.043.029a1.941 1.941 0 0 0 .12.076l.035.02c.031.018.062.034.094.05l.013.007c.056.029.114.055.172.08 1.14.504 2.31.906 3.503 1.206V22.306c.001-.058 0-.116-.003-.173Z" fill="#0045FF"/></g></g></svg>