<svg viewBox="0 0 90 90" xmlns="http://www.w3.org/2000/svg"><defs><linearGradient x1="4.821%" y1="22.741%" x2="85.422%" y2="94.844%" id="a"><stop stop-color="#782AA4" offset="0%"/><stop stop-color="#E00788" offset="49.099%"/><stop stop-color="#782AA4" offset="100%"/></linearGradient></defs><g fill="none"><circle fill="#FFF" cx="45" cy="45" r="45"/><path d="m54.617 23.606 2.443-2.955a1.351 1.351 0 0 0-.168-1.894l-.061-.046a1.325 1.325 0 0 0-1.878.17l-2.443 2.954a1.351 1.351 0 0 0 .168 1.894l.061.046c.565.477 1.404.4 1.878-.17Zm-7.267-3.387-.167-3.987a1.28 1.28 0 0 0-1.328-1.23h-.092c-.702.03-1.252.63-1.22 1.338l.167 3.987a1.28 1.28 0 0 0 1.328 1.231h.092c.702-.015 1.252-.616 1.22-1.339Zm9.71 11.344 3.48-.277a1.34 1.34 0 0 0 1.222-1.447l-.016-.123a1.337 1.337 0 0 0-1.435-1.231l-3.481.277a1.34 1.34 0 0 0-1.221 1.447l.016.123a1.337 1.337 0 0 0 1.435 1.231Zm-7.07 38.773a22.753 22.753 0 0 1-1.557-1.154c-.442-.324-.87-.77-1.267-1.124a.229.229 0 0 0-.167-.062c-.657-.03-1.313 0-1.97-.03-1.618-.031-3.251.061-4.885-.031-.137-.016-.259-.123-.259-.262-.091-2.77 0-5.557-.046-8.327 0-.2-.076-.385-.213-.539-.641-.769-1.358-1.554-1.908-2.431-.137-.231-.504-.123-.504.154 0 .293 0 .508.016.847v10.298a.274.274 0 0 1-.275.277c-.748 0-1.45 0-2.228-.03-.153 0-.26-.124-.26-.278.046-6.65-.03-13.315.03-19.948 0-.155.122-.277.275-.277.718 0 1.496 0 2.214.015.153 0 .26.123.26.277 0 .462.015.816.015 1.17 0 .278.367.386.504.14.305-.509.61-1.017 1.038-1.432.687-.616 1.404-1.231 2.29-1.54a8.797 8.797 0 0 1 2.168-.462c.153-.016.275-.154.244-.307a43.932 43.932 0 0 0-.32-1.955c-.062-.262-.107-.539-.275-.74a.208.208 0 0 0-.061-.045c-.337-.231-.733-.37-1.115-.493-.122-.03-.199-.154-.199-.277.03-.985.748-1.863.717-2.863v-.03c-.183-1.447-.58-2.847-.778-4.279v-.016c-.2-1.216-.474-2.324-.611-3.525-.153-1.339-.367-2.678-.504-4.017-.092-1.124-.305-2.247-.794-3.263-.779-1.478-2.214-2.663-3.878-2.925-1.206-.293-2.473.062-3.542.647-1.312.847-2.29 2.262-2.656 3.832-.153.662-.107 1.355-.122 2.032a.277.277 0 0 1-.366.261c-.992-.339-1.97-.738-2.947-1.124-.01 0-.02-.005-.03-.015a4.857 4.857 0 0 0-3.313-.462c-.992.261-1.817.985-2.366 1.847 0 .016-.016.016-.016.03-.534 1.016-.748 2.17-1.206 3.233 0 .01-.006.02-.016.03-.336 1.155-.794 2.263-1.084 3.417-.091.385.092.755.275 1.078.275.462.84.57 1.283.755 6.106 2.417 12.212 4.802 18.32 7.22.366.138.732.246 1.098.399.275.108.2.524-.091.538h-.016c-4.779-.015-9.572 0-14.35-.015-1.634.03-3.283-.109-4.917-.03-.503.03-.992.322-1.22.768-.016.016-.016.047-.03.062-.2.862-.108 1.755-.092 2.617 0 6.003.015 12.006.015 18.009.03.8.016 1.646.412 2.385.657 1.508 2.245 2.586 3.893 2.51 8.901-.016 17.8.015 26.701.015.183 0 .397 0 .58-.03.245-.062.305-.385.107-.524v-.001Zm-16.106-46.47c1.42-.616 3.13.323 3.557 1.77 0 .011.005.021.016.031.366 1.693.52 3.417.763 5.141.03.2-.153.354-.336.308-.81-.23-1.588-.6-2.382-.893-.932-.416-2.045-.585-2.718-1.447-1.344-1.478-.794-4.233 1.1-4.91Zm1.725 9.76c-.213.784-.534 1.523-.748 2.308 0 .01-.005.02-.016.03-.366.878-.565 1.832-.962 2.695a.261.261 0 0 1-.35.138c-3.68-1.4-7.313-2.909-10.977-4.325-.427-.169-.9-.277-1.266-.57-.076-.062-.108-.154-.108-.261.046-.4.23-.77.351-1.154.428-1.047.626-2.17 1.175-3.17.29-.463.855-.663 1.374-.54.016 0 .03.017.046.017 3.618 1.477 7.282 2.878 10.916 4.31.137.062.275.122.397.2.153.077.198.2.167.323l.001-.002Zm3.42 6.988a.273.273 0 0 1-.321.184c-.611-.138-1.145-.461-1.74-.646-.23-.092-.642-.23-.489-.538.428-1.555.978-3.11 1.482-4.634l.045-.138a.707.707 0 0 1 .138-.231c.091-.077.229-.062.336-.03l2.015.708c.138.062.214.184.183.323-.458 1.693-1.129 3.325-1.648 5.003l-.001-.001Zm-7.16 7.973V60.13c-.062 2.51-.062 5.033 0 7.542.06.324-.337.262-.535.293h-8.747c-.55.016-1.115-.261-1.374-.754-.367-.663-.29-1.432-.29-2.155V47.972c.045-.17-.092-.554.182-.57 3.298-.062 6.596 0 9.893-.03.199 0 .412 0 .626.015.153 0 .259.123.259.277-.016.323-.016.616-.016.924l.001-.001Zm42.119 5.387c.061-1.693-.29-3.34-.534-5.003-.382-1.709-.641-3.433-1.023-5.142-.305-1.585-.428-3.386-1.649-4.571-1.145-1.293-3.084-1.817-4.702-1.2-.534.122-.946.523-1.48.63-.489-.462-1.084-.77-1.695-1.032-1.283-.508-2.779-.215-3.909.554-.474.386-.9-.184-1.313-.385-1.252-.785-2.809-.57-4.167-.2-.32-.954-.32-1.97-.611-2.925-.305-1.678-.672-3.355-.962-5.05-.305-1.384-1.221-2.615-2.458-3.278-.87-.538-1.939-.508-2.915-.415-1.832.293-3.222 1.909-3.648 3.678-.397 1.878.304 3.74.61 5.572.184 1.293.534 2.54.733 3.833.596 3.078 1.175 6.157 1.802 9.235-.61-.169-1.19-.416-1.816-.492-1.359-.324-2.84.092-3.878 1.031-1.939 1.709-2.198 4.941-.64 7.004 1.907 2.431 3.862 4.818 5.77 7.234.687.815 1.298 1.678 2.015 2.463 2 2.478 4.809 4.278 7.893 5.049 3.053.83 6.336.431 9.206-.831 4.229-1.894 7.435-5.835 8.702-10.298.473-1.77.732-3.617.671-5.465l-.002.004Zm-2.306.307c.03 2.955-.824 5.91-2.443 8.374-1.51 2.2-3.602 4.08-6.121 4.987-3.45 1.401-7.527.985-10.671-.985-2.428-1.448-4.06-3.833-5.801-6.003-1.466-1.771-2.84-3.587-4.305-5.357-.474-.6-1.038-1.185-1.252-1.94-.367-1.23.336-2.754 1.602-3.109.81-.261 1.756 0 2.32.646 1.267 1.494 2.428 3.079 3.695 4.588.107.154.259.23.428.292a.29.29 0 0 0 .29-.061c.153-.139.32-.277.29-.508-.091-1.231-.473-2.417-.671-3.618-.199-1.309-.55-2.586-.748-3.895-.184-1.124-.504-2.216-.642-3.34-.61-2.801-1.069-5.618-1.679-8.42-.229-1.647-.702-3.248-.87-4.895-.076-1.016.474-2.14 1.466-2.493.946-.4 2.137-.03 2.702.83.397.525.442 1.186.58 1.802.32 1.462.52 2.955.886 4.402.167 1.155.412 2.31.656 3.448.168 1.37.596 2.709.749 4.08.091.43.122.985.55 1.23.183.062.29.03.427-.046a.435.435 0 0 0 .23-.385c.045-.739-.291-1.462-.108-2.2.229-.878.9-1.679 1.802-1.864 1.007-.261 2.122.354 2.534 1.309.428 1.016.443 2.14.763 3.17.016.077.062.123.122.17.199.138.458.168.657.046.091-.062.153-.123.167-.247.108-.63-.153-1.247-.137-1.893-.03-1.217.946-2.401 2.168-2.494 1.054-.062 2.091.693 2.366 1.725.245.97.336 2 .672 2.94.153.292.503.214.763.076.076-.046.137-.123.137-.2.061-.37-.046-.71-.092-1.109-.091-.908.153-1.831.779-2.463.61-.524 1.511-.816 2.274-.478.886.34 1.436 1.217 1.588 2.14.229 1.494.61 2.956.84 4.449.488 2.432 1.083 4.833 1.037 7.296v.003Z" fill="url(#a)"/></g></svg>