<svg viewBox="0 0 90 90" xmlns="http://www.w3.org/2000/svg"><g fill="none" fill-rule="evenodd"><path fill="#375A7F" fill-rule="nonzero" d="M0 0h90v90H0z"/><path d="M45.5 15a8.92 8.92 0 0 1 8.11 5.186h13.464A5.926 5.926 0 0 1 73 26.11v42.963A5.926 5.926 0 0 1 67.074 75H23.926A5.926 5.926 0 0 1 18 69.074V26.111a5.926 5.926 0 0 1 5.926-5.926H37.39A8.922 8.922 0 0 1 45.5 15Zm0 5.926a2.968 2.968 0 0 0-2.973 2.963 2.968 2.968 0 0 0 2.973 2.963 2.968 2.968 0 0 0 2.973-2.963 2.968 2.968 0 0 0-2.973-2.963Z" fill="#FFF"/></g></svg>