<svg xmlns="http://www.w3.org/2000/svg" viewBox="0 0 90 90"><defs><linearGradient x1="33.341%" y1="58.394%" x2="93.278%" y2="65.745%" id="a"><stop stop-color="#D3368A" offset="0%"/><stop stop-color="#DD4C7E" offset="28%"/><stop stop-color="#EA5C7B" offset="68%"/><stop stop-color="#FF7575" offset="100%"/></linearGradient><linearGradient x1=".467%" y1="47.311%" x2="97.195%" y2="54.017%" id="b"><stop stop-color="#038EF5" offset="0%"/><stop stop-color="#038EF5" offset="17%"/><stop stop-color="#4570FC" offset="38%"/><stop stop-color="#4869FD" offset="100%"/></linearGradient></defs><path fill="#FFF" d="M0 0h90v90H0z"/><path d="M54.813 5.271C47.954-1.54 36.858-1.555 29.982 5.24c6.76 6.8 6.746 17.756-.032 24.538-.696.693-1.581 1.04-2.119 1.795-2.31 3.244-.032 5.26 2.689 8.032l5.219 5.355c1.455 1.418 1.708 2.363 2.246 1.89l16.86-16.789A17.454 17.454 0 0 0 60 17.66a17.455 17.455 0 0 0-5.187-12.39Z" fill="url(#a)" transform="translate(15 19)"/><path d="M30.045 5.114c-6.892-6.837-18.044-6.816-24.91.047-6.865 6.863-6.844 17.969.048 24.806l8.287-8.253-.031-.032a5.841 5.841 0 0 1 .075-8.21 5.901 5.901 0 0 1 8.244-.074l.031.032 8.098-8.033.221-.22-.063-.063Z" fill="url(#b)" transform="translate(15 19)"/><path d="M42.926 55.361a3.1 3.1 0 0 1 .063-4.347.556.556 0 0 1 .158-.126 24.165 24.165 0 0 0 2.91-3.055 17.583 17.583 0 0 0-.221-22.869 18.554 18.554 0 0 0-.76-.787l-8.287 8.221a5.841 5.841 0 0 1-.075 8.21 5.901 5.901 0 0 1-8.244.074l-8.287 8.285 21.952 21.829a4.156 4.156 0 0 0 5.852 0l5.22-5.198" fill="#32325D"/></svg>