<svg viewBox="0 0 90 90" xmlns="http://www.w3.org/2000/svg"><defs><linearGradient x1="0%" y1="50%" x2="100%" y2="50%" id="a"><stop stop-color="#F15A29" offset="0%"/><stop stop-color="#ED1C24" offset="100%"/></linearGradient><linearGradient x1="0%" y1="50%" x2="99.998%" y2="50%" id="b"><stop stop-color="#ED1C24" offset="0%"/><stop stop-color="#F15A29" offset="100%"/></linearGradient><linearGradient x1="0%" y1="49.999%" x2="100%" y2="49.999%" id="c"><stop stop-color="#F15A29" offset="0%"/><stop stop-color="#ED1C24" offset="100%"/></linearGradient><linearGradient x1="0%" y1="49.998%" x2="99.999%" y2="49.998%" id="d"><stop stop-color="#F15A29" offset="0%"/><stop stop-color="#ED1C24" offset="100%"/></linearGradient><linearGradient x1="66.835%" y1="100.987%" x2="46.847%" y2="-3.301%" id="e"><stop stop-color="#F15A29" offset="0%"/><stop stop-color="#ED1C24" offset="100%"/></linearGradient><linearGradient x1="47.941%" y1="74.031%" x2="50.046%" y2="24.512%" id="f"><stop stop-color="#F15A29" offset="0%"/><stop stop-color="#ED1C24" offset="100%"/></linearGradient></defs><g fill="none" fill-rule="evenodd"><path fill="url(#a)" transform="matrix(.86603 .5 .5 -.86603 4.8 30.87)" d="m58.036 7.34-3.42 22.837-1.394 1.025-32.698 10.99-1.189-6.436 29.503-21.688z"/><path d="m48.137 50.138-10.443 4.081 10.443-4.081Zm21.187-8.236-32.036 12.52 9.049-20.557 2.031-.794 20.956 8.831Z" fill="url(#b)" transform="matrix(0 -1 -1 0 109.053 101.051)"/><path fill="url(#c)" transform="scale(-1 1) rotate(-30 1.462 219.597)" d="m37.91 65.388 11.086 1.686 8.909-6.55-12.432 21.533L29.2 79.581 14.407 60.058l3.116-21.578 13.62 17.95-.002.023z"/><path fill="url(#d)" transform="matrix(0 -1 -1 0 79.606 71.605)" d="m28.23 46.25-9.54 21.149-.508.207-22.127-9.704-2.928-7.488h24.864z"/><path fill="url(#e)" transform="scale(-1 1) rotate(-19.8 5.456 169.712)" d="m3.49 30.103 23.951.15.96 23.585-16.667-16.14-8.244-7.595z"/><path fill="url(#f)" transform="scale(-1 1) rotate(-66.735 -2.964 73.595)" d="m4.838 14.548 36.616.266L28.959 40.13l-16.246-17.6z"/></g></svg>