<svg viewBox="0 0 90 90" xmlns="http://www.w3.org/2000/svg"><g fill="none"><path fill="#000" d="M0 0h90v90H0z"/><g fill="#FFF"><path d="m73.559 37.203-.105-.056-.035-.115c-1.683-5.575-6.786-9.396-12.584-9.422a12.876 12.876 0 0 0-5.712 1.32l-.208.1-.144-.18a18.165 18.165 0 0 0-15.369-6.812 18.19 18.19 0 0 0-14.375 8.731l-.076.124-.143.013a16.44 16.44 0 0 0-13.535 10.06 16.577 16.577 0 0 0 2.377 16.747 16.39 16.39 0 0 0 15.794 5.857l.123-.022.1.074a22.545 22.545 0 0 0 27.129-.322l.12-.092.144.047a12.335 12.335 0 0 0 12.391-2.91l.065-.063.091-.013c5.21-.82 9.32-4.886 10.214-10.108.895-5.222-1.625-10.435-6.262-12.958Zm-5.17 19.085-.807.067-.543.606a8.352 8.352 0 0 1-6.204 2.79 8.223 8.223 0 0 1-3.443-.756l-1.196-.547-.996.866A18.5 18.5 0 0 1 43.013 63.9a18.31 18.31 0 0 1-11.682-4.156l-.8-.651-.996.258a12.313 12.313 0 0 1-10.668-2.195 12.441 12.441 0 0 1-4.8-9.822c0-6.73 5.449-12.296 12.146-12.408l1.221-.02.558-1.092a14.114 14.114 0 0 1 12.023-7.711c5.1-.198 9.91 2.385 12.578 6.756l1.155 1.882 1.779-1.297a8.94 8.94 0 0 1 5.302-1.736c4.303.006 8.01 3.047 8.878 7.282l.214 1.06.997.42c3.484 1.476 5.515 5.153 4.916 8.905-.598 3.752-3.67 6.608-7.44 6.915l-.004-.003Z"/><path d="M30.394 41.829c-1.106 0-2.002.517-2.67 1.283l-.056-.786a.284.284 0 0 0-.287-.287h-2.076a.268.268 0 0 0-.286.287v12.45a.271.271 0 0 0 .286.287h2.287a.27.27 0 0 0 .286-.287V50.62a3.458 3.458 0 0 0 2.516 1.056c2.591 0 4.498-2.183 4.498-4.922s-1.907-4.925-4.498-4.925Zm-.364 7.22c-1.199 0-2.096-1.073-2.096-2.318 0-1.246.897-2.299 2.096-2.299 1.2 0 2.116 1.002 2.116 2.299s-.895 2.313-2.116 2.313v.005Zm15.157-7.015h-2.076a.278.278 0 0 0-.286.287l-.058.786c-.665-.766-1.563-1.283-2.668-1.283-2.593 0-4.5 2.183-4.5 4.922s1.907 4.93 4.5 4.93a3.468 3.468 0 0 0 2.668-1.225l.058.69a.281.281 0 0 0 .286.286h2.076a.27.27 0 0 0 .287-.287v-8.81a.273.273 0 0 0-.287-.296Zm-4.726 7.01c-1.22 0-2.116-1.001-2.116-2.318 0-1.317.896-2.299 2.116-2.299 1.221 0 2.097 1.055 2.097 2.299 0 1.243-.896 2.318-2.097 2.318Zm12.217-2.432 2.917-4.233c.133-.192.038-.345-.191-.345h-2.595a.382.382 0 0 0-.343.192l-1.429 2.221-1.45-2.221a.378.378 0 0 0-.342-.192h-2.581c-.228 0-.324.153-.19.345l2.915 4.233-3.068 4.462c-.134.192-.038.345.19.345h2.593c.14.004.272-.07.343-.192l1.602-2.47 1.58 2.47a.385.385 0 0 0 .345.192h2.59c.23 0 .325-.153.192-.345l-3.078-4.462Z"/><path d="M62.839 43.796c.744-.574 1.295-1.475 1.295-2.47 0-1.878-1.487-3.468-3.812-3.468-2.325 0-3.82 1.59-3.82 3.468 0 1.002.553 1.896 1.277 2.47a3.796 3.796 0 0 0-2.16 3.505c0 2.72 2.423 4.367 4.69 4.367 2.267 0 4.67-1.648 4.67-4.367a3.796 3.796 0 0 0-2.14-3.505Zm-2.517-3.637a1.28 1.28 0 0 1 1.297 1.282c-.02.71-.515 1.322-1.297 1.322a1.299 1.299 0 0 1-1.296-1.302c0-.719.58-1.302 1.296-1.302Zm0 8.847a1.769 1.769 0 0 1-1.71-1.772c0-.958.757-1.742 1.71-1.772.953.03 1.71.814 1.71 1.772 0 .958-.757 1.742-1.71 1.772Z"/></g></g></svg>