<svg xmlns="http://www.w3.org/2000/svg" viewBox="0 0 90 90"><path fill="#FFF" d="M0 0h90v90H0z"/><path fill="#252F3E" d="M25.68 19.01l-.56.08c-1.83.22-3.48.9-4.97 1.98-.32.22-.6.46-.93.7-.03-.06-.06-.13-.06-.18-.05-.35-.1-.72-.17-1.07-.09-.6-.39-.87-1-.87h-1.5c-.9 0-1.07.17-1.07 1.08v27.4l.01.4c.03.39.26.63.64.65h2.77c.38 0 .61-.26.65-.66l.01-.39v-9.48l.3.25a9.19 9.19 0 007.98 2.02c2.67-.53 4.52-2.16 5.73-4.57a13.4 13.4 0 001.35-5.78 15 15 0 00-1.06-6.52c-1.12-2.56-2.96-4.25-5.75-4.83-.42-.09-.85-.13-1.28-.2h-1.09zm-6.2 5.49c0-.2.05-.32.22-.43a9.02 9.02 0 015.97-1.73 4.74 4.74 0 014.38 3.39c.51 1.4.64 2.85.64 4.32 0 1.36-.1 2.7-.52 4-.89 2.8-2.93 3.86-5.57 3.74a9.07 9.07 0 01-4.9-1.82c-.16-.12-.22-.22-.22-.43V30 24.5zM46.4 19l-.38.06c-1.28.06-2.54.22-3.78.53-.8.21-1.57.5-2.34.76-.47.16-.71.5-.7 1.01.02.43-.01.86 0 1.3.02.62.28.8.9.64 1.01-.26 2.03-.55 3.07-.75 1.6-.3 3.23-.43 4.87-.18.85.13 1.65.38 2.2 1.1.48.63.66 1.37.69 2.14.04 1.1.03 2.18.04 3.26l-.03.19c-.06-.02-.11 0-.17-.02a23.63 23.63 0 00-4.19-.64c-1.47-.08-2.94.02-4.35.51a6.38 6.38 0 00-3.85 3.26 6.85 6.85 0 00-.51 4.02 5.38 5.38 0 002.8 4.15c1.56.87 3.24.97 4.96.71 1.98-.3 3.73-1.14 5.27-2.4.06-.06.12-.1.21-.15.08.5.15.97.24 1.44.08.4.33.67.7.68h2.14c.35-.01.59-.25.63-.62l.01-.36V25.77c0-.56-.03-1.13-.12-1.69a5.2 5.2 0 00-2.48-3.98 7.55 7.55 0 00-2.86-.93c-.47-.07-.94-.1-1.41-.17l-1.56.01zm4.58 16.72c0 .17-.05.29-.2.4a9.97 9.97 0 01-4.89 1.95 4.5 4.5 0 01-2.2-.24 2.63 2.63 0 01-1.62-1.74 4.3 4.3 0 01-.01-2.54c.32-1.09 1.1-1.7 2.14-2.04a8.03 8.03 0 013.25-.3c1.1.1 2.17.3 3.27.45.21.03.28.13.28.34-.02.63 0 1.25 0 1.88-.02.61-.03 1.23-.02 1.84zm16.73.81l-5.06-14.03c-.27-.75-.55-1.48-.83-2.21-.14-.38-.42-.63-.84-.63-1-.02-1.99-.03-3-.02-.32 0-.48.27-.41.6.06.27.14.53.25.8 2.56 6.34 5.14 12.7 7.73 19.04.22.54.28 1 .03 1.55-.43.95-.78 1.96-1.22 2.92-.4.85-1.05 1.49-1.99 1.74-.67.18-1.33.2-2.02.14-.32-.02-.65-.1-.98-.13-.44-.03-.66.17-.68.63v1.3c.02.72.26 1.04.97 1.16.73.13 1.48.25 2.21.26a5.49 5.49 0 005.17-2.8c.46-.77.88-1.58 1.2-2.4 3.1-7.84 6.17-15.68 9.25-23.52.09-.24.17-.47.2-.72.06-.37-.11-.58-.48-.58h-2.6c-.49 0-.83.21-1 .68l-.22.54c-1.52 4.36-3.04 8.72-4.55 13.1-.33.93-.67 1.89-1.01 2.9l-.12-.32z"/><g fill="#F90"><path d="M77.33 59.06C68.57 65.56 55.85 69 44.92 69A58.52 58.52 0 015.35 53.86c-.82-.75-.08-1.76.9-1.18a79.59 79.59 0 0039.6 10.55c9.71 0 20.38-2.03 30.2-6.2 1.46-.66 2.71.97 1.28 2.03z"/><path d="M80.97 54.9c-1.12-1.44-7.4-.7-10.24-.35-.85.11-.99-.64-.21-1.2 5-3.52 13.22-2.5 14.18-1.33.95 1.2-.27 9.45-4.95 13.4-.72.61-1.41.3-1.1-.5 1.07-2.65 3.44-8.6 2.32-10.02z"/></g></svg>