<svg viewBox="0 0 90 90" xmlns="http://www.w3.org/2000/svg"><path d="m75.278 63.266 10.675 7.421C77.823 82.361 64.303 90 49 90a45.34 45.34 0 0 1-7-.541V76.232c2.253.503 4.595.768 7 .768 10.883 0 20.497-5.433 26.278-13.734ZM49 19c14.36 0 26 11.64 26 26S63.36 71 49 71a25.88 25.88 0 0 1-13-3.478v20.572a44.827 44.827 0 0 1-13.002-6.362L23 45c0-14.36 11.64-26 26-26Zm0-19c15.304 0 28.823 7.64 36.953 19.313l-10.676 7.42C69.497 18.433 59.883 13 49 13c-17.496 0-31.713 14.042-31.996 31.47L17 45l-.001 31.638C8.962 68.509 4 57.334 4 45 4 20.147 24.147 0 49 0Zm0 32c-7.18 0-13 5.82-13 13s5.82 13 13 13 13-5.82 13-13-5.82-13-13-13Z" fill="#0031A6"/></svg>