<svg xmlns="http://www.w3.org/2000/svg" viewBox="0 0 90 90"><path fill="#0F6FDE" d="M0 0h90v90H0z"/><path d="M44.386 61.006v-8.95a.48.48 0 0 1 .512-.51H55.38c7.39-.299 13.224-6.384 13.21-13.78-.014-7.397-5.87-13.46-13.261-13.732H29.66c-.566 0-1.024.458-1.024 1.023v36.102a7.875 7.875 0 1 0 15.75 0c.069-.102.069-.153 0-.153Zm.512-21.222h9.92a2.045 2.045 0 0 0 0-4.09H41.37c-.564 0-1.022.457-1.022 1.022v24.392a3.835 3.835 0 0 1-7.67 0V28.585a.48.48 0 0 1 .51-.511h21.631a9.718 9.718 0 0 1 .358 19.432H44.898a.48.48 0 0 1-.512-.512v-6.648a.562.562 0 0 1 .512-.562Z" fill="#FFF"/></svg>