<svg viewBox="0 0 90 90" xmlns="http://www.w3.org/2000/svg"><g fill="none"><path d="m7.87 50.551 1.132-5.478h4.43c.993 0 1.887-.219 2.683-.658a5.063 5.063 0 0 0 1.893-1.783c.467-.75.7-1.59.7-2.518 0-.818-.183-1.534-.548-2.15a3.835 3.835 0 0 0-1.522-1.443c-.65-.347-1.413-.521-2.29-.521H8.021L5 50.551h2.87Zm5.513-7.986h-3.85l.821-3.97h3.495c.595 0 1.065.157 1.412.471.346.315.52.745.52 1.291 0 .42-.103.796-.309 1.13a2.192 2.192 0 0 1-.848.789c-.36.193-.774.29-1.24.29Zm8.276 8.102c.477 0 .93-.063 1.361-.19.43-.126.861-.326 1.292-.6l-.139.674h2.687l1.344-6.515c.195-.94.153-1.747-.128-2.42-.28-.671-.768-1.187-1.464-1.545-.696-.359-1.582-.538-2.655-.538-.628 0-1.294.075-2 .223a13.8 13.8 0 0 0-2.242.695l.667 2.134a14.885 14.885 0 0 1 1.702-.54c.47-.111.897-.167 1.281-.167.865 0 1.478.184 1.838.55.36.368.465.918.314 1.653l-.119.572a7.757 7.757 0 0 0-2.88-.567c-.917 0-1.707.145-2.372.434-.666.289-1.177.698-1.534 1.229-.357.53-.536 1.165-.536 1.904 0 .916.325 1.648.975 2.194.65.547 1.52.82 2.608.82Zm.937-2.002c-.607 0-1.082-.112-1.428-.336-.345-.223-.518-.527-.518-.911 0-.451.187-.808.56-1.071.374-.263.88-.395 1.519-.395.828 0 1.593.172 2.296.516l-.333 1.582a3.827 3.827 0 0 1-2.096.614ZM29.016 55c.999 0 1.866-.242 2.602-.725.736-.483 1.44-1.278 2.115-2.385l7.464-12.17h-2.976l-4.535 7.601-1.1-7.6H29.69l1.816 10.825-.364.586c-.276.463-.602.805-.976 1.024a2.46 2.46 0 0 1-1.27.33c-.2 0-.383-.01-.548-.031a2.376 2.376 0 0 1-.439-.094l-.501 2.428a6.028 6.028 0 0 0 1.608.21Z" fill="#2447D7"/><path d="M60.761 39.554c.931 0 1.755.225 2.471.674a4.699 4.699 0 0 1 1.686 1.843c.408.78.612 1.68.612 2.701 0 .149-.006.315-.018.5-.011.183-.04.453-.087.807h-7.68l.047.224c.093.365.25.694.468.987.263.352.592.627.989.825.396.198.842.297 1.336.297a3.78 3.78 0 0 0 1.264-.207c.39-.137.737-.333 1.038-.586l1.51 1.804-.274.196a6.549 6.549 0 0 1-1.64.834 6.671 6.671 0 0 1-2.104.315c-1.033 0-1.953-.22-2.76-.66a4.849 4.849 0 0 1-1.895-1.833c-.458-.781-.687-1.668-.687-2.66 0-.823.148-1.602.445-2.335a6.185 6.185 0 0 1 1.235-1.941 5.782 5.782 0 0 1 1.827-1.313 5.28 5.28 0 0 1 2.217-.472Zm19.47 0c.932 0 1.755.225 2.472.674a4.699 4.699 0 0 1 1.686 1.843c.407.78.611 1.68.611 2.701 0 .149-.006.315-.017.5-.012.183-.04.453-.087.807h-7.681l.048.224a2.75 2.75 0 0 0 1.457 1.812c.396.198.841.297 1.335.297a3.78 3.78 0 0 0 1.264-.207 3.287 3.287 0 0 0 1.038-.586l1.51 1.804-.274.196a6.549 6.549 0 0 1-1.639.834 6.671 6.671 0 0 1-2.105.315c-1.033 0-1.953-.22-2.759-.66a4.849 4.849 0 0 1-1.896-1.833c-.458-.781-.686-1.668-.686-2.66 0-.823.148-1.602.444-2.335a6.185 6.185 0 0 1 1.236-1.941 5.782 5.782 0 0 1 1.826-1.313 5.28 5.28 0 0 1 2.218-.472ZM45.947 36l-1.214 5.852h6.408L52.354 36h2.875l-3.021 14.551h-2.875l1.233-5.956h-6.408l-1.233 5.956h-2.87L43.076 36h2.87Zm27.574 3.507c.573 0 1.009.102 1.306.306l-.501 2.484-.09-.058a2.26 2.26 0 0 0-.56-.198 3.673 3.673 0 0 0-.854-.107c-1.05 0-1.933.487-2.65 1.46L68.7 50.552h-2.722l2.242-10.83h2.716l-.22 1.071.198-.2c.335-.319.702-.57 1.098-.754a3.54 3.54 0 0 1 1.508-.331Zm-12.9 2.41a2.44 2.44 0 0 0-1.15.277 3.065 3.065 0 0 0-.93.755c-.268.319-.476.69-.625 1.116h5.055a2.938 2.938 0 0 0-.444-1.126 2.344 2.344 0 0 0-.814-.753 2.22 2.22 0 0 0-1.093-.27Zm19.47 0a2.44 2.44 0 0 0-1.15.277 3.065 3.065 0 0 0-.93.755 3.5 3.5 0 0 0-.624 1.116h5.055a2.938 2.938 0 0 0-.445-1.126 2.344 2.344 0 0 0-.813-.753c-.326-.18-.69-.27-1.093-.27Z" fill="#FCAC00"/></g></svg>