<svg viewBox="0 0 90 90" xmlns="http://www.w3.org/2000/svg"><path d="M9.031.004H31.96c.84 0 1.555.483 1.877 1.263.32.78.153 1.63-.44 2.226l-22.93 23.072a1.99 1.99 0 0 1-2.214.443A2.01 2.01 0 0 1 7 25.119V2.048C7 .923 7.912.004 9.031.004ZM45.167.002c4.525-.008 8.36-.053 12.926 1.256C71.85 5.203 82 17.998 82 33.062c0 18.183-14.785 33.059-32.855 33.059H25.558l14.297 4.715v17.12A2.042 2.042 0 0 1 37.824 90H9.03A2.04 2.04 0 0 1 7 87.956V38.412c0-.563.2-1.047.594-1.445L43.736.602a1.952 1.952 0 0 1 1.431-.6Z" fill="#D70432" fill-rule="evenodd"/></svg>