<svg xmlns="http://www.w3.org/2000/svg" viewBox="0 0 90 90"><g fill-rule="evenodd"><path fill="#FFF" d="M0 0h90v90H0z"/><g fill-rule="nonzero"><path d="M31.197 64.8H19.554a1.568 1.568 0 0 1-1.18-.545 1.536 1.536 0 0 1-.355-1.244l7.849-49.403c.07-.448.3-.856.648-1.15A1.926 1.926 0 0 1 27.76 12h20.004c9.47 0 16.362 6.838 16.2 15.126 5.602 2.904 8.87 8.801 7.85 15.26a18.664 18.664 0 0 1-6.348 11.317 18.903 18.903 0 0 1-12.237 4.5h-5.89a1.92 1.92 0 0 0-1.247.454 1.891 1.891 0 0 0-.646 1.15L42.81 76.393c-.07.448-.3.856-.648 1.15a1.922 1.922 0 0 1-1.245.458H30.915a1.568 1.568 0 0 1-1.18-.542 1.544 1.544 0 0 1-.357-1.242L31.2 64.802V64.8h-.003Z" fill="#0070E0"/><path d="m31.202 64.8 2.892-18.249A1.92 1.92 0 0 1 35.977 45h9.218a18.92 18.92 0 0 0 12.237-4.5 18.646 18.646 0 0 0 6.349-11.316c.108-.68.171-1.37.183-2.058.162-8.288-6.73-15.126-16.2-15.126H27.76c-.456 0-.897.163-1.244.457a1.906 1.906 0 0 0-.648 1.15l-7.85 49.404a1.538 1.538 0 0 0 .355 1.244 1.568 1.568 0 0 0 1.181.545h11.648Z" fill="#142C8E"/><path d="M63.778 29.186c.108-.679.172-1.37.183-2.058a17.613 17.613 0 0 0-8.16-1.926H39.123a1.92 1.92 0 0 0-1.245.458 1.895 1.895 0 0 0-.648 1.15l-3.146 19.798a1.912 1.912 0 0 1 1.892-1.606h9.218a18.92 18.92 0 0 0 12.237-4.5 18.646 18.646 0 0 0 6.349-11.316h-.003Z" fill="#121661"/></g></g></svg>