<svg viewBox="0 0 90 90" xmlns="http://www.w3.org/2000/svg"><defs><linearGradient x1="50.021%" y1="100%" x2="50.021%" y2=".241%" id="a"><stop stop-color="#4DAAA9" offset="0%"/><stop stop-color="#4DAAA9" offset="51%"/><stop stop-color="#3E8E8B" offset="100%"/></linearGradient></defs><g fill="none"><path d="M45.302 1.001a44 44 0 1 0 .018 87.998C69.498 88.823 89.005 69.17 89 44.99 88.995 20.811 69.48 1.166 45.302 1Zm0 61.351a17.428 17.428 0 1 1 0-34.854c9.549.107 17.233 7.878 17.233 17.427 0 9.55-7.684 17.32-17.233 17.427Z" fill="#4DAAA9"/><path d="M26.88 43.933c.005 9.618 7.802 17.414 17.42 17.42v26.646C20.35 88.007.795 68.857.302 44.912v-1.824C.704 26.263 14.572 12.896 31.4 13.113c16.827.217 30.346 13.938 30.313 30.767-.363-9.366-8.069-16.767-17.442-16.753-9.373.014-17.056 7.439-17.39 16.806Z" fill="url(#a)" transform="translate(1 1)"/></g></svg>