<svg viewBox="0 0 90 90" xmlns="http://www.w3.org/2000/svg"><g fill="none"><path fill="#011B33" d="M0 0h90v90H0z"/><path d="M68.711 14.53H18.145c-1.713 0-3.143 1.452-3.143 3.2v5.737c0 1.79 1.43 3.204 3.145 3.204H68.71c1.757 0 3.145-1.457 3.186-3.202v-5.698c0-1.786-1.43-3.243-3.184-3.243v.002Zm0 31.932H18.145a3.12 3.12 0 0 0-2.223.939A3.23 3.23 0 0 0 15 49.664V55.4c0 1.79 1.43 3.202 3.145 3.202h50.562c1.756 0 3.145-1.414 3.186-3.2v-5.74a3.183 3.183 0 0 0-3.184-3.201h.002ZM46.614 62.389H18.147a3.11 3.11 0 0 0-2.223.936 3.23 3.23 0 0 0-.922 2.264v5.736c0 1.791 1.43 3.203 3.145 3.203h28.426c1.757 0 3.145-1.453 3.145-3.2v-5.74a3.133 3.133 0 0 0-.88-2.26 3.095 3.095 0 0 0-2.224-.942v.003Zm25.281-31.896H18.147a3.12 3.12 0 0 0-2.223.937 3.23 3.23 0 0 0-.922 2.266v5.736c0 1.79 1.43 3.203 3.145 3.203h53.71c1.756 0 3.143-1.455 3.143-3.203v-5.736a3.161 3.161 0 0 0-.89-2.252 3.122 3.122 0 0 0-2.215-.95Z" fill="#00C3F7"/></g></svg>