<svg xmlns="http://www.w3.org/2000/svg" viewBox="0 0 90 90"><rect width="90" height="90" fill="#FFF"/><g transform="translate(12.94 17.82)"><path fill="#FFC734" d="M45.8442105,1.09880428 L45.8442105,54 L-4.48763833e-15,54 L-4.48763833e-15,13.502832 C-4.48763833e-15,6.06041536 5.96210526,0.0339836375 13.3164912,-2.51529445e-16 L45.8442105,1.09880428 Z M39.1635088,20.8319698 L6.68070175,20.8319698 L6.68070175,22.9049717 L39.1635088,22.9049717 L39.1635088,20.8319698 Z M39.1635088,31.1063562 L6.68070175,31.1063562 L6.68070175,33.1680302 L39.1635088,33.1680302 L39.1635088,31.1063562 Z M20.2442105,41.3694147 L6.68070175,41.3694147 L6.68070175,43.4424166 L20.2442105,43.4424166 L20.2442105,41.3694147 Z M39.1635088,10.5689113 L7.35438596,10.5689113 C7.04,11.2032725 6.83789474,11.8942731 6.73684211,12.6305853 L39.1635088,12.6305853 L39.1635088,10.5689113 Z"/><path fill="#4E317B" d="M64,13.502832 C64,17.2297042 62.4954386,20.6054122 60.0814035,23.0409062 C57.6561404,25.4877281 54.3101754,27.0056639 50.6161404,27.0056639 L17.6505263,27.0056639 L17.6505263,26.2693518 C19.6042105,25.6010069 21.3445614,24.4908748 22.7817544,23.0409062 L22.9164912,22.9049717 C23.522807,22.2706104 24.0729825,21.5796098 24.5557895,20.8319698 C25.914386,18.7249843 26.7003509,16.2101951 26.7003509,13.502832 C26.7003509,13.2083071 26.6891228,12.9137823 26.6666667,12.6305853 C26.6329825,11.9282568 26.5319298,11.2372561 26.3859649,10.5689113 C25.0610526,4.51982379 19.7052632,-2.51529445e-16 13.3164912,-2.51529445e-16 L50.6161404,-2.51529445e-16 C58.0042105,-2.51529445e-16 64,6.0377596 64,13.502832 Z"/></g></svg>