<svg viewBox="0 0 90 90" xmlns="http://www.w3.org/2000/svg"><g fill="none"><path fill="#2E2F33" d="M0 0h90v90H0z"/><path d="M27.871 25.91c1.297.114 2.875.421 4.044.79 1.683.532 3.718 1.53 5.133 2.519 1.63 1.143 3.2 2.628 4.193 3.973.29.395.351.514.44.852a2.205 2.205 0 0 1-2.743 2.69c-.536-.15-.822-.378-1.565-1.27-1.393-1.674-3.42-3.182-5.423-4.035a15.38 15.38 0 0 0-4.373-1.107c-.62-.057-2.233-.057-2.857 0a14.488 14.488 0 0 0-4.887 1.362c-2.9 1.385-5.445 3.885-6.887 6.764a14.44 14.44 0 0 0-1.45 4.685c-.18 1.389-.185 2.14-.027 3.538.154 1.319.422 2.435.884 3.64 1.151 3.014 3.226 5.524 6.012 7.26 1.657 1.028 3.71 1.775 5.608 2.039.268.035.94.088 1.494.114.554.03 1.02.057 1.033.066.053.035 1.57-.114 2.11-.202 1.09-.176 2.21-.51 3.305-.98 2.839-1.218 5.419-3.472 7.405-6.465 1.52-2.299 2.523-4.505 3.64-8.043 2.02-6.399 5.084-11.124 9.26-14.288 3.607-2.738 8.165-4.206 12.358-3.977 2.522.136 4.263.51 6.443 1.375 3.028 1.205 5.78 3.275 7.937 5.969 1.094 1.37 2.074 3.072 2.764 4.812.844 2.118 1.28 4.325 1.328 6.702.022 1.046.01 1.328-.07 2.088-.41 3.82-1.706 7.071-4.009 10.042-.624.809-1.978 2.207-2.795 2.892a19.326 19.326 0 0 1-10.43 4.382c-.746.075-2.662.083-3.506.022-3.626-.277-7.388-1.767-10.28-4.065-.558-.444-.756-.62-1.437-1.292-1.011-.99-1.719-1.807-2.017-2.334-.242-.422-.317-1.09-.185-1.604.185-.704.646-1.209 1.362-1.49.26-.106.378-.123.748-.128.83-.013 1.226.207 1.973 1.09.58.686 1.472 1.587 2.061 2.08 2.198 1.836 5.09 3.04 7.92 3.304.62.057 2.355.057 3.01 0 2.04-.18 4.215-.91 6.052-2.026 1.077-.65 1.93-1.332 2.892-2.299a14.616 14.616 0 0 0 3.885-6.904 14.69 14.69 0 0 0-.061-7.164 15.073 15.073 0 0 0-3.38-6.183c-2.475-2.712-5.744-4.387-9.304-4.764-.532-.053-.976-.066-2.083-.049-1.28.018-1.464.031-2.04.136-3.168.585-5.766 1.974-8.2 4.4-2.528 2.514-4.563 6.13-5.951 10.56-.611 1.948-.928 2.827-1.543 4.273-1.674 3.924-3.96 7.185-6.737 9.611-3.046 2.66-6.865 4.378-10.733 4.826-.778.088-2.962.088-3.911 0a18.735 18.735 0 0 1-6.505-1.82c-1.925-.936-3.327-1.903-4.839-3.322a19.032 19.032 0 0 1-4.047-5.507c-.95-1.973-1.517-3.929-1.824-6.272-.132-1.015-.14-3.221-.022-4.197.29-2.338.848-4.302 1.771-6.232 1.696-3.55 4.426-6.473 7.884-8.451a19.141 19.141 0 0 1 5.758-2.123c.866-.171 1.683-.264 3.142-.351.418-.022 1.472.017 2.272.087Z" fill="#FFF"/></g></svg>