<svg viewBox="0 0 90 90" xmlns="http://www.w3.org/2000/svg"><g fill="none"><path fill="#FFF" d="M0 0h90v90H0z"/><path d="M45.959 15c.563 0 1.122.016 1.678.046v13.99a15.963 15.963 0 0 0-1.918-.116c-8.649 0-15.676 6.95-15.816 15.578l-.002.262v25.57C21.544 65.009 16 55.653 16 45c0-16.569 13.413-30 29.959-30Zm-.24 19.2c.59 0 1.167.048 1.73.141l.187.033V44.76l.001.177a15.778 15.778 0 0 0 3.031 9.15 10.488 10.488 0 0 1-4.949 1.233c-5.824 0-10.545-4.728-10.545-10.56 0-5.832 4.72-10.56 10.545-10.56Z" fill="#000"/><path d="M35.173 56.566A15.747 15.747 0 0 0 45.72 60.6c3.286 0 6.339-1.004 8.868-2.721a15.73 15.73 0 0 0 8.868 2.721c3.76 0 7.215-1.314 9.93-3.51C68.742 67.637 58.209 75 45.959 75c-3.802 0-7.439-.71-10.786-2.003v-16.43ZM63.455 34.2C69.279 34.2 74 38.928 74 44.76c0 5.832-4.721 10.56-10.545 10.56-1.79 0-3.474-.446-4.95-1.233a15.783 15.783 0 0 0 3.032-9.327c0-3.487-1.125-6.71-3.032-9.327a10.488 10.488 0 0 1 4.95-1.233Zm-8.868 4.843a10.521 10.521 0 0 1 1.677 5.717c0 2.107-.616 4.07-1.677 5.717a10.521 10.521 0 0 1-1.678-5.717c0-2.048.582-3.96 1.59-5.58l.088-.137ZM52.91 15.812c8.916 2.121 16.289 8.233 20.132 16.348a15.739 15.739 0 0 0-9.587-3.24 15.728 15.728 0 0 0-8.868 2.721 15.81 15.81 0 0 0-1.46-.88l-.218-.114V15.812Z" fill="#00E6A5"/></g></svg>