<svg viewBox="0 0 90 90" xmlns="http://www.w3.org/2000/svg"><g fill="none"><path d="M85 0H6v39.401c-.065 17.154 9.436 29.572 17.424 36.977 8.768 8.137 18.448 12.825 21.686 13.54l.39.082.39-.081c3.238-.7 12.901-5.404 21.686-13.541C75.548 68.973 85.05 56.555 85 39.4V0Z" fill="#FFF"/><path d="M80.136 16.503c.113.097.227.179.325.309s.13.293.13.456a.875.875 0 0 1-.13.455c-.081.13-.212.212-.325.31-.18.146-.342.276-.342.504v1.4H63.233v-1.4c0-.228-.163-.358-.342-.504-.114-.098-.228-.18-.325-.31a.748.748 0 0 1-.13-.455c0-.163.048-.326.13-.456.081-.13.211-.212.325-.31.179-.146.342-.276.342-.504v-4.59c0-.227-.163-.357-.342-.504-.114-.097-.228-.179-.325-.31a.748.748 0 0 1-.13-.455c0-.163.048-.325.13-.455.081-.13.211-.228.325-.31.179-.146.342-.276.342-.504V7.42h.211c.976 0 1.822-.016 2.408-.276.244-.098.472-.244.7-.39.504-.326 1.09-.684 1.935-.684.684 0 1.334.26 1.904.488.406.163.78.309 1.057.309h.114c.277 0 .667-.146 1.058-.31.569-.227 1.203-.487 1.903-.487.862 0 1.432.358 1.952.683.228.147.456.293.7.39.585.261 1.448.277 2.407.277h.212v1.45c0 .228.163.358.342.504.113.082.227.18.325.31s.13.292.13.455a.875.875 0 0 1-.13.456c-.081.13-.212.212-.325.31-.18.146-.342.276-.342.504v4.59c0 .227.163.357.342.504Zm-20.303 2.392c-1.286 2.05-3.758 2.555-3.856 2.572-.488.08-.992.13-1.48.13-2.587 0-4.962-1.123-7.386-2.376-.277-.147-.57-.31-.895-.489-1.546-.846-3.71-2.034-5.531-2.034-.537 0-1.042.098-1.48.342l-.082.032v.082a2.697 2.697 0 0 1-.13.667c-.293.781-1.237 1.611-1.708 1.937-1.058.765-2.376 1.546-4.003 1.546-.244 0-.471-.033-.667-.098a1.651 1.651 0 0 1-.732-.504 2.241 2.241 0 0 1-.227-.391 1.293 1.293 0 0 1-.098-.358l-.016-.098-.098-.032c-.634-.196-1.008-.602-1.008-1.107 0-.374.276-.716.553-1.025.423-.505.78-.928.195-1.498a1.729 1.729 0 0 0-.18-.146l-.243-.195c-.52-.554-.212-1.725-.033-2.409l.017-.081c.195-.765.504-1.546.927-2.393.586-1.155 1.285-2.457 2.277-3.287.017-.017.05-.017.066-.017.032 0 .048.017.065.033.016.033.13.195.276.456l.163.276.097-.309c.277-.814.733-1.35 1.35-1.579.668-.244 1.286.098 1.595.326l.13.098.082-.13c.195-.326.569-.717 1.17-.733.668-.032 1.221.423 1.481.7l.098.098.114-.082c.293-.244 1.074-.814 1.87-.716.749.098 1.026.749 1.107 1.025l.049.163.162-.081c.342-.18 1.025-.407 1.676 0 .407.26.456.7.423 1.041l-.016.196.195-.033c.488-.081 1.367-.13 1.887.407.407.423.44.976.39 1.35l-.032.196.195-.016c.423-.049.993-.016 1.302.472.211.325.13.781.065 1.025l-.049.147.146.032c.244.065.684.212.814.57.097.26.065.7-.081 1.204l-.033.13.13.05c.212.08.602.292.814.715.211.407.195.912-.033 1.514l-.033.097.082.066c.553.488 1.106.943 1.643 1.334 1.106.798 2.83 1.22 3.986.26.439-.358.634-1.025.488-1.643-.13-.554-.505-.928-.993-1.042-.878-.195-1.578.651-2.147 1.497-.016.033-.049.05-.081.033a.09.09 0 0 1-.082-.049c-.52-1.253-.553-2.295-.081-3.092.407-.684 1.171-1.156 2.115-1.302l.13-.016v-.13c-.016-1.482.342-2.556 1.057-3.207.44-.39 1.237-.83 2.57-.65.033 0 .05.016.066.048.016.016.016.049 0 .081-.992 2.377-.748 3.272-.212 5.208l.147.538c.504 1.806.341 3.385-.44 4.654Zm-31.708-2.392c.114.097.228.179.326.309.097.13.13.293.13.456a.875.875 0 0 1-.13.455c-.082.13-.212.212-.326.31-.179.146-.341.276-.341.504v1.4H11.222v-1.4c0-.228-.162-.358-.341-.504-.114-.098-.228-.18-.326-.31a.748.748 0 0 1-.13-.455c0-.163.05-.326.13-.456.082-.13.212-.212.326-.31.179-.146.341-.276.341-.504v-4.59c0-.227-.162-.357-.341-.504-.114-.097-.228-.179-.326-.31a.748.748 0 0 1-.13-.455c0-.163.05-.325.13-.455.082-.13.212-.228.326-.31.179-.146.341-.276.341-.504V7.42h.212c.976 0 1.822-.016 2.408-.276.244-.098.471-.244.7-.39.504-.326 1.09-.684 1.935-.684.683 0 1.334.26 1.904.488.406.163.78.309 1.057.309h.114c.276 0 .667-.146 1.057-.31.57-.227 1.204-.487 1.904-.487.862 0 1.431.358 1.952.683.228.147.456.293.7.39.585.261 1.447.277 2.407.277h.212v1.45c0 .228.162.358.341.504.114.082.228.18.326.31.097.13.13.292.13.455a.875.875 0 0 1-.13.456c-.082.13-.212.212-.326.31-.179.146-.341.276-.341.504v4.59c0 .227.162.357.341.504ZM7.985 2.083s.098 22.899 0 22.785h75.03V2.083H7.985Z" fill="#900"/><path d="M33.836 15.51c.26 0 .52.065.764.277.082.065.163.13.228.195a.387.387 0 0 1-.016.586c-.18.146-.39.309-.537.39-.31.212-.83.586-1.188.293-.179-.146.18-.407.017-1.025-.13-.488.357-.716.732-.716Z" fill="#011F5B"/><path d="M33.95 8.121c-.83.798-1.465 1.953-1.985 2.995a11.79 11.79 0 0 0-.911 2.327l-.017.081c-.146.537-.439 1.677-.048 2.1.048.065.13.114.195.163.065.048.146.114.211.179.814.78.244 1.448-.162 1.936-.244.293-.472.554-.472.814 0 .57.7.781.91.83a.225.225 0 0 1 .18.212c.016.162.032.293.081.423.049.114.114.228.18.31.146.178.34.325.569.406.162.065.357.081.569.081 1.53 0 2.782-.748 3.807-1.48.602-.44 1.366-1.205 1.594-1.79.065-.164.098-.326.114-.49l-1.074-.178h-.032c-.114-.033-.196-.114-.212-.228-.032-.212.163-.342.537-.602l.342-.244a47.45 47.45 0 0 1 1.285-.928c-.293-.326-.553-.716-.765-1.042a6.324 6.324 0 0 0-.423-.586c-.537-.585-1.464-.91-2.228-.439-.31.195-.57.423-.863.684a9.016 9.016 0 0 1-.732.602.251.251 0 0 1-.325-.049.247.247 0 0 1 .016-.326c.033-.032.081-.065.114-.113.342-.326 1.155-1.09 1.155-1.628.033-1.253-1.171-3.32-1.61-4.02Zm6.735 8.235c1.87 0 4.002 1.172 5.661 2.083.325.18.618.342.895.489 2.847 1.464 5.645 2.75 8.67 2.213.017 0 2.441-.504 3.645-2.425.748-1.188.878-2.685.407-4.443a12.045 12.045 0 0 0-.147-.537c-.504-1.823-.78-2.864.098-5.127-1.025-.065-1.66.277-2.001.603-.683.618-.992 1.676-.944 3.173 0 .13-.081.228-.211.244-.927.098-1.708.537-2.083 1.172-.357.619-.39 1.416-.065 2.376.456-.635 1.237-1.48 2.23-1.253.617.13 1.09.618 1.252 1.286.179.748-.065 1.546-.602 1.985-1.302 1.074-3.189.619-4.393-.26-1.415-1.025-2.814-2.344-4.294-4.004-.26-.293-.521-.586-.765-.879-.927-1.074-1.887-2.197-3.042-3.076-1.79-1.383-3.92-1.61-5.385-1.562-.992.033-2.993.31-4.344 1.14.407.862.781 1.838.781 2.603 0 .13-.032.277-.081.407.976-.57 2.13-.163 2.798.554.146.162.293.39.472.65.26.391.537.83.894 1.156a.21.21 0 0 1 .066.195c0 .065-.05.13-.098.18 0 0-.618.439-1.497 1.09-.114.081-.244.179-.358.244-.016.016-.048.032-.065.049l.765.13a3.359 3.359 0 0 1 1.74-.456Zm13.795 5.387c-2.586 0-5.01-1.123-7.45-2.392-.277-.147-.586-.31-.912-.488-1.968-1.075-4.945-2.702-6.865-1.693-.016.26-.065.488-.146.716-.31.814-1.286 1.66-1.757 2.002-1.074.781-2.408 1.579-4.084 1.579-.26 0-.504-.033-.716-.114a1.678 1.678 0 0 1-.797-.57 1.797 1.797 0 0 1-.244-.423 1.653 1.653 0 0 1-.097-.407c-.684-.212-1.107-.667-1.107-1.253 0-.44.293-.781.586-1.123.472-.553.667-.846.195-1.286-.049-.049-.114-.081-.162-.13-.082-.065-.18-.13-.26-.228-.57-.618-.261-1.823-.066-2.555l.016-.081c.196-.765.505-1.563.944-2.425.586-1.172 1.302-2.49 2.31-3.337.049-.049.114-.065.195-.049.065.017.13.05.163.098.033.049.44.667.862 1.481 1.757-1.041 4.246-1.172 4.54-1.172 1.545-.065 3.773.18 5.693 1.66 1.188.912 2.164 2.051 3.107 3.141.244.293.505.586.765.863 1.448 1.644 2.83 2.93 4.214 3.938 1.057.765 2.7 1.189 3.806.277.407-.325.57-.928.44-1.497-.114-.488-.44-.83-.895-.928-.797-.179-1.448.619-2.001 1.432a.235.235 0 0 1-.228.098c-.081-.016-.163-.065-.195-.146-.537-1.302-.57-2.377-.065-3.223.423-.716 1.236-1.22 2.229-1.367-.017-1.53.357-2.636 1.106-3.32.455-.423 1.301-.879 2.7-.684a.31.31 0 0 1 .18.114c.032.065.048.147.016.212-.96 2.327-.733 3.206-.196 5.11l.147.537c.504 1.888.341 3.516-.472 4.818-1.318 2.1-3.856 2.62-3.953 2.636a6.445 6.445 0 0 1-1.546.18Z" fill="#011F5B"/><path d="M32.339 20.1c-.228 0-.456-.017-.683-.05a.237.237 0 1 1 .049-.472c1.09.13 2.667-.016 4.05-1.432a.236.236 0 0 1 .342 0 .236.236 0 0 1 0 .342c-1.025 1.058-2.31 1.611-3.758 1.611Zm19.132-3.581c-.033 0-.065 0-.082-.016a.222.222 0 0 1-.114-.293c.244-.57.277-1.042.098-1.416-.244-.488-.813-.635-.83-.635a.207.207 0 0 1-.146-.114c-.033-.049-.033-.13-.016-.179.08-.228.276-.879.146-1.204-.098-.277-.634-.39-.813-.423-.065 0-.13-.05-.163-.114-.033-.065-.049-.13-.016-.196.081-.179.227-.7.048-.976-.357-.553-1.285-.277-1.285-.277a.242.242 0 0 1-.228-.065.202.202 0 0 1-.048-.228s.26-.846-.26-1.383c-.603-.618-1.92-.26-1.92-.244a.242.242 0 0 1-.228-.065.202.202 0 0 1-.049-.228c.016-.033.228-.716-.244-1.01-.748-.471-1.594.131-1.594.131-.065.049-.147.049-.228.016-.065-.032-.13-.097-.13-.179 0-.032-.13-.944-.927-1.058-.863-.113-1.774.765-1.79.782a.245.245 0 0 1-.179.065.2.2 0 0 1-.163-.082s-.618-.797-1.382-.748c-.732.032-1.025.78-1.025.797-.033.065-.082.13-.163.147a.213.213 0 0 1-.211-.065s-.733-.7-1.48-.424c-.944.342-1.205 1.498-1.302 1.888v.017c-.033.114-.147.195-.26.162-.115-.032-.196-.146-.163-.26v-.016c.097-.44.406-1.774 1.578-2.197.732-.26 1.383.097 1.724.341.195-.309.586-.78 1.285-.813.732-.033 1.334.472 1.595.748.341-.293 1.155-.862 1.984-.748.732.097 1.09.667 1.237 1.123.39-.196 1.122-.424 1.822.016.488.31.537.83.504 1.172.505-.082 1.448-.147 2.017.44.472.471.489 1.09.44 1.48.406-.049 1.073-.032 1.431.537.228.358.163.846.082 1.14.309.08.764.243.91.667.147.39.017.976-.08 1.302.26.097.666.341.894.78.244.49.212 1.091-.081 1.791a.226.226 0 0 1-.195.114Z" fill="#011F5B"/><path d="M50.364 19.595h-.032c-.114-.016-.212-.13-.195-.244.097-.846-.39-1.01-.846-1.14a1.221 1.221 0 0 1-.293-.113c-.244-.13-.244-.423-.26-.716-.017-.326-.017-.684-.26-.944-.408-.456-1.237-.163-1.237-.163-.082.032-.163.016-.212-.033a.212.212 0 0 1-.081-.211c0-.017.13-.912-.39-1.351-.44-.374-1.27-.277-1.562-.212a.214.214 0 0 1-.195-.048.261.261 0 0 1-.082-.18c.049-.553-.179-1.041-.618-1.318-.358-.228-.797-.26-1.139-.081-.943.504-1.301.537-2.277-.163-.31-.211-.619-.293-.911-.211-.375.097-.716.423-.977.943-.048.114-.195.163-.292.098-.114-.049-.163-.195-.098-.293.31-.635.765-1.041 1.269-1.172.423-.114.862-.016 1.269.277.83.586 1.009.553 1.822.13.488-.26 1.09-.228 1.594.098.488.31.781.846.814 1.448.406-.048 1.171-.065 1.675.358.472.407.553 1.042.553 1.433.375-.065.993-.098 1.416.358.341.39.358.879.374 1.237 0 .113.016.309.033.358a.891.891 0 0 0 .195.065c.423.13 1.301.407 1.155 1.627-.016.082-.114.163-.212.163Zm-22.108-2.327a.426.426 0 0 1-.082.276.953.953 0 0 1-.26.244c-.212.163-.472.375-.472.75v1.024H11.5v-1.025c0-.39-.26-.586-.472-.749-.097-.08-.195-.146-.26-.244a.549.549 0 0 1-.081-.276c0-.098.016-.196.081-.277a.953.953 0 0 1 .26-.244c.212-.163.472-.374.472-.749v-4.59c0-.39-.26-.585-.472-.748-.097-.081-.195-.146-.26-.244a.549.549 0 0 1-.081-.277c0-.097.016-.195.081-.276a.953.953 0 0 1 .26-.245c.212-.162.472-.374.472-.748V7.812h.033c.406 0 .813 0 1.203-.033v10.53h5.808a.962.962 0 0 0 .944.716.98.98 0 0 0 .943-.716h5.808V7.78c.374.033.781.033 1.188.033h.032V8.87c0 .39.26.586.472.748.098.082.195.147.26.245a.549.549 0 0 1 .082.276.426.426 0 0 1-.082.277.953.953 0 0 1-.26.244c-.211.163-.472.374-.472.749v4.59c0 .39.26.585.472.748.098.081.195.146.26.244a.373.373 0 0 1 .066.277ZM13.972 7.519c.276-.114.52-.277.748-.423.505-.326.993-.619 1.74-.619.62 0 1.221.245 1.758.456.374.147.7.277 1.009.326v9.211h-.05c-.438.033-1.073.244-1.789.472-.228.082-.472.147-.716.228-.7.212-1.415.212-2.114.212-.456 0-.895 0-1.286.065V7.714a4.03 4.03 0 0 0 .7-.195Zm6.784-.586c.537-.211 1.139-.456 1.757-.456.748 0 1.236.31 1.74.619.245.146.489.31.749.423.228.098.455.163.7.212v9.732c-.391-.065-.83-.065-1.286-.065-.7 0-1.415 0-2.115-.212-.244-.065-.471-.146-.716-.228-.715-.227-1.35-.439-1.789-.472h-.033V7.275c.31-.065.635-.195.993-.342Zm7.467 9.44c-.179-.147-.293-.228-.293-.375v-4.59c0-.146.098-.243.293-.374.114-.097.26-.195.358-.341a.909.909 0 0 0 .163-.537.909.909 0 0 0-.163-.538 1.426 1.426 0 0 0-.358-.341c-.179-.147-.293-.228-.293-.375V7.307h-.358c-.846 0-1.757-.016-2.342-.26a4.73 4.73 0 0 1-.684-.374c-.52-.326-1.122-.7-2.017-.7-.716 0-1.383.26-1.952.504-.39.163-.749.31-1.009.31h-.129c-.261 0-.62-.147-1.01-.31-.585-.227-1.236-.504-1.952-.504-.91 0-1.496.374-2.017.7a4.73 4.73 0 0 1-.683.374c-.586.26-1.497.26-2.343.26h-.358v1.595c0 .147-.098.244-.293.375-.114.097-.26.195-.358.341a.909.909 0 0 0-.162.538c0 .195.048.374.162.537.098.146.228.244.358.341.18.147.293.228.293.375v4.59c0 .146-.098.243-.293.374-.114.097-.26.195-.358.341a.909.909 0 0 0-.162.537c0 .196.048.375.162.537.098.147.228.245.358.342.18.147.293.228.293.375v1.53l-.016.016h16.919l-.016-.017v-1.53c0-.146.097-.244.293-.374.113-.097.26-.195.357-.342a.909.909 0 0 0 .163-.537.909.909 0 0 0-.163-.537c-.146-.146-.276-.244-.39-.341Zm52.043.895a.426.426 0 0 1-.082.276c-.048.082-.146.163-.244.244-.211.163-.471.375-.471.75v1.024H63.525v-1.025c0-.39-.26-.586-.471-.749-.098-.08-.196-.146-.26-.244a.549.549 0 0 1-.082-.276c0-.098.016-.196.081-.277a.953.953 0 0 1 .26-.244c.212-.163.472-.374.472-.749v-4.59c0-.39-.26-.585-.471-.748-.098-.081-.196-.146-.26-.244a.549.549 0 0 1-.082-.277c0-.097.016-.195.081-.276a.953.953 0 0 1 .26-.245c.212-.162.472-.374.472-.748V7.812h.033c.407 0 .813 0 1.204-.033v10.53h5.808a.962.962 0 0 0 .943.716.98.98 0 0 0 .944-.716h5.808V7.78c.374.033.78.033 1.187.033h.033V8.87c0 .39.26.586.472.748.097.082.195.147.244.245a.549.549 0 0 1 .081.276.426.426 0 0 1-.081.277c-.05.081-.147.163-.244.244-.212.163-.472.374-.472.749v4.59c0 .39.26.585.472.748.097.081.195.146.244.244a.373.373 0 0 1 .065.277ZM65.998 7.519c.277-.114.52-.277.749-.423.504-.326.992-.619 1.74-.619.619 0 1.22.245 1.757.456.375.147.7.277 1.009.326v9.211h-.049c-.44.033-1.074.244-1.79.472-.227.082-.471.147-.715.228-.7.212-1.416.212-2.115.212-.456 0-.895 0-1.285.065V7.714c.244-.049.472-.114.7-.195Zm6.768-.586c.537-.211 1.139-.456 1.757-.456.748 0 1.236.31 1.74.619.245.146.489.31.749.423.228.098.456.163.7.212v9.732c-.39-.065-.83-.065-1.286-.065-.7 0-1.415 0-2.115-.212-.244-.065-.471-.146-.715-.228-.716-.227-1.35-.439-1.79-.472h-.032V7.275c.309-.065.634-.195.992-.342Zm7.467 9.44c-.179-.147-.293-.228-.293-.375v-4.59c0-.146.098-.243.293-.374.114-.097.26-.195.358-.341a.909.909 0 0 0 .163-.537.909.909 0 0 0-.163-.538 1.426 1.426 0 0 0-.358-.341c-.179-.147-.293-.228-.293-.375V7.307h-.358c-.846 0-1.757-.016-2.342-.26a4.73 4.73 0 0 1-.684-.374c-.52-.326-1.122-.7-2.017-.7-.716 0-1.383.26-1.952.504-.39.163-.748.31-1.009.31h-.098c-.26 0-.617-.147-1.008-.31-.586-.227-1.236-.504-1.952-.504-.911 0-1.497.374-2.017.7a4.73 4.73 0 0 1-.684.374c-.585.26-1.496.26-2.342.26h-.358v1.595c0 .147-.098.244-.293.375-.114.097-.26.195-.358.341a.909.909 0 0 0-.163.538c0 .195.05.374.163.537.098.146.228.244.358.341.179.147.293.228.293.375v4.59c0 .146-.098.243-.293.374-.114.097-.26.195-.358.341a.909.909 0 0 0-.163.537c0 .196.05.375.163.537.098.147.228.245.358.342.179.147.293.228.293.375v1.53l-.016.016h16.919l-.017-.017v-1.53c0-.146.098-.244.293-.374.114-.097.26-.195.358-.342a.909.909 0 0 0 .163-.537.909.909 0 0 0-.163-.537c-.163-.146-.309-.244-.423-.341Z" fill="#011F5B"/><path d="M78.232 57.987 45.5 26.414 12.768 57.987c-2.538-5.354-4.23-11.555-4.214-18.586V25.39h73.892V39.4c.016 7.047-1.66 13.248-4.214 18.586Zm-10.444 3.304a6.518 6.518 0 0 1-9.208 0 6.524 6.524 0 0 1 0-9.211 6.518 6.518 0 0 1 9.208 0 6.524 6.524 0 0 1 0 9.211ZM38.993 40.524a6.507 6.507 0 1 1 13.014 0 6.507 6.507 0 1 1-13.014 0Zm26.843 33.982C57.05 82.66 47.94 86.761 45.5 87.38c-2.44-.619-11.55-4.72-20.335-12.874-.212-.195-.423-.407-.651-.602L45.5 51.624l20.986 22.28c-.211.195-.439.39-.65.602ZM23.212 61.291a6.524 6.524 0 0 1 0-9.211 6.518 6.518 0 0 1 9.208 0 6.524 6.524 0 0 1 0 9.211 6.518 6.518 0 0 1-9.208 0ZM82.446 2.555v21.792H8.554V2.555h73.892Zm1.057-1.058H7.497v37.904c-.049 16.6 9.192 28.677 16.952 35.87 8.46 7.845 17.993 12.516 20.986 13.167l.081.016.082-.016c2.993-.651 12.526-5.322 20.986-13.167 7.76-7.193 17-19.27 16.952-35.87-.033-.504-.033-37.904-.033-37.904Z" fill="#011F5B"/></g></svg>