<svg viewBox="0 0 90 90" xmlns="http://www.w3.org/2000/svg"><g fill="none"><path fill="#FFF" d="M0 0h90v90H0z"/><path d="M21.481 34.531c-.832 2.608-3.663 4.122-6.327 3.197-2.58-.841-4.08-3.701-3.164-6.393a4.892 4.892 0 0 1 6.328-3.197c2.664.926 3.996 3.786 3.163 6.393Zm11.739-5.72c-.75 2.272-3.247 3.533-5.495 2.776-2.248-.757-3.497-3.28-2.747-5.551.749-2.272 3.247-3.533 5.494-2.776 2.248.757 3.497 3.28 2.748 5.551Zm11.239-1.093c-.583 1.85-2.581 2.86-4.496 2.271-1.915-.589-2.83-2.608-2.248-4.542.583-1.935 2.581-2.86 4.496-2.271 1.915.588 2.914 2.691 2.248 4.542Zm7.909 6.056c-.5 1.43-2.081 2.271-3.497 1.767-1.415-.505-2.248-2.103-1.748-3.45.5-1.429 2.081-2.27 3.497-1.766 1.498.421 2.247 2.02 1.748 3.45Zm3.996 7.402c-.25.842-1.166 1.346-2.081 1.01-.833-.253-1.332-1.178-1-2.103.25-.841 1.166-1.346 2.082-1.01.832.337 1.249 1.262.999 2.103Z" fill="#F2B946"/><path d="M8.91 61.617c-.583 0-1.499-.085-2.331-.169v4.963c0 .337-.25.589-.583.589H2.583A.572.572 0 0 1 2 66.411V46.223c0-.42.167-.673.833-.84 1.581-.421 3.912-.758 6.077-.758 4.579 0 7.16 2.692 7.16 7.402V54.3c0 4.458-2.331 7.318-7.16 7.318Zm2.58-9.674c0-2.103-.499-3.533-2.497-3.533-.916 0-1.748.085-2.33.169v9c.665.084 1.664.168 2.33.168 2.082 0 2.498-1.514 2.498-3.533v-2.27Zm18.65 2.607h-9.158v.085c0 1.598.666 3.196 2.997 3.196 1.748 0 4.329-.168 5.494-.252h.084c.333 0 .582.168.582.505v2.103c0 .504-.166.673-.582.757-1.832.504-3.33.673-5.828.673-3.413 0-7.16-1.851-7.16-7.403v-2.018c0-4.627 2.664-7.57 7.243-7.57 4.662 0 7.077 3.196 7.077 7.57v1.682c-.167.42-.417.673-.75.673Zm-3.913-3.027c0-2.103-.916-3.197-2.581-3.197-1.582 0-2.581 1.094-2.581 3.197v.168h5.162v-.168Zm12.321 10.094c-.583 0-1.499-.085-2.331-.169v4.963c0 .337-.25.589-.583.589h-3.413a.572.572 0 0 1-.583-.589V46.223c0-.42.166-.673.832-.84 1.582-.421 3.913-.758 6.078-.758 4.579 0 7.16 2.692 7.16 7.402V54.3c-.084 4.458-2.331 7.318-7.16 7.318Zm2.497-9.674c0-2.103-.499-3.533-2.497-3.533-.916 0-1.748.085-2.331.169v9c.666.084 1.665.168 2.33.168 2.082 0 2.498-1.514 2.498-3.533v-2.27Z" fill="#000"/><path d="M50.536 61.364H47.04c-.333 0-.583-.336-.583-.589V39.831c0-.337.333-.59.583-.59h3.496c.333 0 .5.253.5.59v20.944c0 .337-.167.59-.5.59Zm6.078 0h-3.497a.572.572 0 0 1-.583-.589V45.466c0-.336.25-.588.583-.588h3.497c.333 0 .583.252.583.588V60.86c-.084.252-.333.504-.583.504Zm15.318 0H68.52c-.333 0-.583-.336-.583-.589v-9.673c0-2.019-.416-2.692-2.164-2.692-.833 0-1.666.421-2.665.926V60.69c0 .337-.25.59-.582.59H59.11c-.333 0-.582-.337-.582-.59V45.466c0-.336.25-.588.582-.588h3.164c.333 0 .583.252.583.588v.673c1.581-1.177 2.83-1.514 4.662-1.514 4.162 0 5.078 2.86 5.078 6.561v9.59c-.083.336-.333.588-.666.588Zm15.985-15.898-5.328 7.318 5.244 7.991c.084.085.084.169.084.253 0 .252-.167.336-.417.336h-4.329c-.333 0-.5-.084-.666-.42l-4.08-6.73v6.561c0 .337-.249.59-.582.59H74.43c-.333 0-.583-.337-.583-.59V39.831c0-.337.25-.59.583-.59h3.413c.333 0 .583.253.583.59v12.028l4.33-6.56c.249-.337.499-.421.748-.421h4.08c.25 0 .416.168.416.336 0 0 0 .084-.083.252Z" fill="#AAA"/></g></svg>