<svg xmlns="http://www.w3.org/2000/svg" viewBox="0 0 90 90"><path fill="#EE323A" d="M17.18 5.02c16.23.43 46.83 7.06 61.48 15.4 14.65 8.36 13.5 18.72 5.6 31.4C76.5 64.61 62 79.73 48.21 84.34c-13.65 4.75-26.58-1-34.9-14.1C4.96 57.13 1.23 36.7.22 23.44c-1-13.1.72-18.86 16.95-18.43z"/><path fill="#FFF" d="M46.77 57.28c2.15 0 4.02-.14 5.75-.57 1.72-.43 3.3-1.01 4.6-1.73a13.94 13.94 0 003.58-2.73c1-1.16 1.87-2.3 2.59-3.75.72-1.44 1.3-3.02 1.58-4.9.29-1.72.57-3.74.57-5.9 0-3.16-.43-5.9-1.15-8.2a15.4 15.4 0 00-3.44-5.76 13.7 13.7 0 00-5.75-3.46 27.39 27.39 0 00-8.19-1.15H17.32l-3.3 9.22h32.75c1.44 0 2.73.14 3.88.57 1.15.43 2.15 1.01 2.87 1.73.72.86 1.3 1.87 1.72 3.02.44 1.15.58 2.6.58 4.18 0 1.58-.14 3.02-.58 4.32-.43 1.3-1 2.44-1.72 3.3a7.24 7.24 0 01-2.87 2.17c-1.15.29-2.44.43-3.88.43H37V32.95h-9.48v40.31H37V57.28h9.77z"/></svg>