<svg viewBox="0 0 90 90" xmlns="http://www.w3.org/2000/svg"><g fill="none" fill-rule="evenodd"><path d="M67.296 33.941c-10.356-7.319-24.565-4.745-31.87 5.71-7.225 10.456-4.737 24.773 5.62 32.092l26.25-37.802Z" fill="#FFF"/><path d="m70.347 30.402-.402-.241-15.814 22.68c-3.372 4.827-1.285 11.824 2.649 14.96 2.81 2.172 7.225 3.218 10.516 1.93 2.328-.884 4.335-1.206 6.342.242 2.088 1.528 3.372 3.941 3.211 6.595.562-.643 1.044-1.367 1.526-2.01 9.954-14.317 6.342-34.102-8.028-44.156Z" fill="#FF3C00"/><path d="M49.635 35.63a6.143 6.143 0 0 1 5.7 6.595c-.241 3.378-3.131 5.952-6.503 5.791a6.143 6.143 0 0 1-5.7-6.595c.241-3.378 3.131-5.952 6.503-5.791" fill="#424242"/><path d="M70.186 36.113c.482-.483 1.526-.161 2.328.643.803.804 1.124 1.85.723 2.332-.482.483-1.525.161-2.328-.643-.803-.885-1.124-1.93-.723-2.332" fill="#FF9A96"/><path d="M69.945 30.08 27.237 0c-1.525 11.823.883 22.681 6.744 30.241 10.356-7.4 24.725-7.801 35.964-.16" fill="#62C9FF"/><path d="M20.173 39.732 5 50.188c4.897 2.573 9.794 4.423 14.691 5.55.482-4.746 1.846-9.25 3.934-13.432a31.965 31.965 0 0 1-3.452-2.574" fill="#B27CFF"/><path d="M33.98 30.241c-1.364-1.689-2.488-3.619-3.451-5.71H8.29c4.014 7.64 9.313 13.834 15.414 17.855a45.88 45.88 0 0 1 2.73-4.584c2.087-3.057 4.736-5.55 7.546-7.56" fill="#ADAEFF"/><path d="M35.426 39.651c7.225-10.455 21.514-12.949 31.87-5.71l2.65-3.86c-14.37-9.813-33.718-6.354-43.512 7.72C16.64 51.958 17.202 70.537 28.361 90l12.764-18.338c-10.436-7.238-12.924-21.635-5.7-32.01" fill="#99DE00"/><path d="M67.296 69.732c-3.291 1.287-7.706.241-10.516-1.93-3.934-3.057-6.021-10.054-2.65-14.96l-13.085 18.82c9.312 6.515 21.675 5.148 29.382-2.734-.963.08-2.007.402-3.13.804" fill="#FF9A96"/></g></svg>