<svg xmlns="http://www.w3.org/2000/svg" viewBox="0 0 90 90"><path fill="#FFF" d="M0 0h90v90H0z"/><path fill="#4F52A7" d="M43.38 6.11c-.67.17-3.63 1.77-7.09 3.83-.92.55-5.02 2.93-9.1 5.3l-8.3 4.8-3.44 1.99c-3.06 1.74-4 2.58-4.78 4.23-.54 1.22-.57 1.32-.57 5.22v3.98l1.26.06c4.49.21 8.45 1.7 12.68 4.78 1 .74 4.31 3.45 4.94 4.04.13.1.67.59 1.24 1.05l1.65 1.4c1.18.96 3.65 2.5 5.24 3.23 4.02 1.88 9.24 2.2 12.38.72 3.57-1.64 5.72-4.04 11.4-12.57 5.66-8.54 8.55-11.39 13.75-13.53a20 20 0 011.61-.43c.67-.14 1.15-.33 1.09-.44a59.2 59.2 0 00-4.84-2.92 1937.12 1937.12 0 01-13.26-7.7c-.15-.1-.9-.51-1.68-.96l-1.68-1c-1.59-.93-7.79-4.45-8.31-4.72a9 9 0 00-4.2-.36z"/><path fill="#32357C" d="M78.72 29.2c-.63.17-1.9.68-2.83 1.14-4 1.98-7.29 5.35-11.73 12-3.62 5.43-4.65 6.74-7.16 9.2a17.5 17.5 0 01-9.41 5.03c-1.55.25-5.4.15-7.17-.23-5.28-1.07-8.8-3.05-15.17-8.55-5.05-4.33-7.35-5.8-10.47-6.63a14.63 14.63 0 00-3.56-.59L10 40.51v11.07c0 12.21.02 12.49 1.28 14.23.6.85 1.88 1.84 3.85 3 .72.41 7.88 4.56 8.89 5.13.52.3 2.43 1.39 4.2 2.44a776.95 776.95 0 0014 8.04 7.8 7.8 0 004.63.38c.76-.27 3.15-1.53 5.37-2.88L54 80.89c.42-.21 3.7-2.13 7.33-4.23l11.21-6.5c2.66-1.55 4.97-3.04 5.47-3.55a7.72 7.72 0 001.84-3.1c.13-.35.21-34.43.09-34.54-.04-.04-.59.09-1.22.23z"/></svg>