<svg width="90" height="90" viewBox="0 0 90 90" xmlns="http://www.w3.org/2000/svg"><g fill="none" fill-rule="evenodd"><rect fill="#1F1F1F" width="90" height="90"/><g transform="translate(15 21)" fill="#FFF"><polygon points="50.7692541 22.6675796 50.7692541 35.99913 29.9998949 48 9.23097005 35.99913 9.23097005 30.6672537 29.9998949 42.6662641 34.6153402 39.9997538 20.7694386 32.0002228 25.384884 29.3332833 39.2307856 37.3329574 43.847679 34.6665901 29.9998949 26.666916 34.6153402 23.9999765 46.1538088 30.6672537 46.1538088 25.3325165 39.2307856 21.3331801 43.8462309 18.6663837"/><polygon points="34.615485 2.66686393 9.23105694 17.3322703 9.23105694 12.0004082 30.0000397 -1.27043072e-15"/><polygon points="4.61546678 9.3339551 4.61546678 38.6670708 -9.64641132e-16 36.0002743 -9.64641132e-16 12.000351"/><polygon points="60 12.00068 60 36.0005604 55.3845547 38.6669277 55.3845547 19.9989237 39.2306407 10.6667955 25.3845943 18.6663837 20.769149 16.0000164 39.2306407 5.33353162 55.3845547 14.6670473 55.3845547 9.33428409"/></g></g></svg>