<svg viewBox="0 0 90 90" xmlns="http://www.w3.org/2000/svg"><g fill="none"><path fill="#00CFFF" d="M0 0h90v90H0z"/><path d="M65.907 20C74.049 20 79 26.753 79 37.745c0 10.926-5.016 17.348-13.68 17.348-2.672 0-5.344-.76-7.036-2.019-1.172-.892-2.117-2.282-3.355-4.601v11.19c0 3.542.555 3.974 4.593 4.173h1.63V69H39.847v-5.165h1.629c3.16-.133 3.615-.63 3.615-4.174V30.428c0-3.543-.424-3.973-3.615-4.17h-1.629v-5.166h14.918v5.86h.033C58.154 21.79 61.02 20 65.907 20Zm-9.252 8.641c-1.302 2.02-1.792 4.47-1.792 8.972 0 4.668.424 6.755 1.858 8.774 1.172 1.655 2.736 2.45 4.853 2.45 4.462 0 6.645-3.676 6.645-11.357 0-7.78-2.117-11.554-6.58-11.554-2.183-.066-3.746.827-4.984 2.715ZM39.57 45.24l.004 1.206c-.79.185-1.612.393-2.469.628-7.465 2.465-11.308 1.464-15.12.14l-.545-.192c-3.362-1.188-6.833-2.512-12.867-1.823L8 45.27l6.397-3c11.919-1.584 13.637 4.234 25.173 2.969Zm-4.341-7.367.555.193c1.205.417 2.424.827 3.788 1.136v3.567c-9.607.386-12.242-4.492-22.474-3.3l-.562.068 6.397-2.997c5.79-.852 9.058.211 12.296 1.333Zm4.398-7.731-.001 3.84c-2.658-.853-5.561-1.431-9.893-.736l-.556.095 6.397-3.001 4.053-.198Z" fill="#FFF"/></g></svg>