<svg xmlns="http://www.w3.org/2000/svg" viewBox="0 0 90 90"><path fill="#fff" d="M0 0h90v90H0z"/><path fill="#1ABC9C" d="M28 47.2s2.42 1.07 2.54 1.02l-.47-2.74s1.84-2 1.8-2.15c-.05-.14-2.73-.35-2.73-.35s-1.27-2.4-1.44-2.35c-.17.05-1.22 2.52-1.22 2.52s-2.56.45-2.68.69c-.13.24 1.97 1.91 1.97 1.91s-.35 2.71-.22 2.78c.13.07 2.44-1.34 2.44-1.34Zm22.65-26.37s.2 2.43.3 2.5l2.04-1.6s2.47.57 2.57.46c.1-.1-.93-2.34-.93-2.34s1.4-2.11 1.28-2.22c-.12-.1-2.62.16-2.62.16s-1.51-1.85-1.77-1.84c-.26.01-.69 2.45-.69 2.45s-2.38.94-2.38 1.08c0 .14 2.2 1.35 2.2 1.35Zm1.6 7.68a6.57 6.57 0 0 0-6.65-6.48 6.57 6.57 0 0 0-6.65 6.48 6.57 6.57 0 0 0 6.65 6.48c3.67 0 6.65-2.9 6.65-6.48Zm-19.74 5.48a4.7 4.7 0 0 0-4.75-4.63A4.7 4.7 0 0 0 23 33.99a4.7 4.7 0 0 0 4.76 4.63A4.7 4.7 0 0 0 32.5 34Zm31.73-7.63a4.17 4.17 0 0 0-4.21-4.13 4.17 4.17 0 0 0-4.22 4.13 4.17 4.17 0 0 0 4.22 4.13 4.17 4.17 0 0 0 4.21-4.13Zm-8.57 21.36a5.27 5.27 0 0 0-5.33-5.22A5.27 5.27 0 0 0 45 47.72a5.27 5.27 0 0 0 5.33 5.22 5.27 5.27 0 0 0 5.33-5.22Zm-1.21 8.86c0-1.18-.99-2.13-2.2-2.13-1.23 0-2.21.95-2.21 2.13 0 1.17.98 2.13 2.2 2.13 1.22 0 2.2-.96 2.2-2.13ZM65.9 45.03a3.2 3.2 0 0 0-3.9-2.24 3.13 3.13 0 0 0-2.29 3.83 3.2 3.2 0 0 0 3.91 2.24 3.13 3.13 0 0 0 2.29-3.83ZM35.99 53.1a2.85 2.85 0 0 0-2.88-2.82 2.85 2.85 0 0 0-2.87 2.82 2.85 2.85 0 0 0 2.87 2.82A2.85 2.85 0 0 0 36 53.1Zm8.91-35.53c0-1.42-1.2-2.58-2.69-2.58a2.64 2.64 0 0 0-2.69 2.58c0 1.43 1.2 2.59 2.7 2.59a2.64 2.64 0 0 0 2.68-2.59Zm-16 37.41a2.82 2.82 0 0 0 2.84 2.58l-.1.1c-.87.91-6.04 6.36-3.55 15.45.46 1.29-.94 1.94-1.62 1.89l-.18-.01c-.6-.02-1.67-.05-2.29-2.19a21.87 21.87 0 0 1-.17-.86l-.03-.08a22.23 22.23 0 0 1-.2-5.56 19.06 19.06 0 0 1 3.96-9.82c.64-.82 1.09-1.25 1.09-1.25l.25-.24Zm28.77-14.54s4-.61 4.11-.77L59 36.6s.8-4.02.62-4.17c-.17-.14-3.82 1.77-3.82 1.77s-3.56-2-3.73-1.8c-.17.2.41 4.17.41 4.17s-2.96 2.64-2.93 3.05c.04.4 4.08.8 4.08.8s1.7 3.71 1.92 3.7c.23-.03 2.1-3.68 2.1-3.68Zm7.58-2.04s2.22.35 2.3.3l-.95-2.1s1.1-1.98 1.03-2.09c-.06-.1-2.31.28-2.31.28s-1.55-1.66-1.68-1.58c-.12.08-.48 2.27-.48 2.27s-2.01.88-2.06 1.1c-.05.23 2.02 1.12 2.02 1.12s.27 2.24.4 2.27a17.7 17.7 0 0 0 1.73-1.57Zm-28.4-13.82s2.4-2.58 2.4-2.74l-3.62-.53s-1.68-3.08-1.88-3.08c-.2 0-1.64 3.24-1.64 3.24s-3.56.6-3.57.83c0 .23 2.6 2.53 2.6 2.53s-.57 3.34-.32 3.6c.25.25 3.25-1.68 3.25-1.68s3.22 1.52 3.36 1.38c.15-.13-.58-3.55-.58-3.55Zm6.03 19.22s4.05-3.57 4.06-3.83l-5.55-1.36s-2.24-4.98-2.55-5.02c-.31-.03-2.95 4.7-2.95 4.7s-5.6.39-5.63.74c-.04.35 3.72 4.27 3.72 4.27s-1.28 5.04-.93 5.46c.36.43 5.25-2.06 5.25-2.06s4.82 2.84 5.06 2.65c.24-.2-.48-5.55-.48-5.55Zm1.4 13.33s2.4-1.67 2.42-1.8l-2.88-1.07s-.87-2.79-1.03-2.83c-.17-.03-1.9 2.34-1.9 2.34s-3.01-.14-3.05.05c-.04.18 1.7 2.5 1.7 2.5s-1.02 2.61-.85 2.86c.16.25 2.94-.78 2.94-.78s2.4 1.8 2.53 1.71c.14-.08.11-2.98.11-2.98Zm15.83-4.67s.18-1.48.13-1.54l-1.39.76s-1.37-.6-1.44-.55c-.07.05.26 1.5.26 1.5s-1.08 1.12-1.02 1.2c.05.08 1.55.18 1.55.18s.66 1.26.81 1.28c.15.02.7-1.4.7-1.4s1.5-.3 1.52-.4c.02-.08-1.12-1.03-1.12-1.03Z"/></svg>