<svg viewBox="0 0 90 90" xmlns="http://www.w3.org/2000/svg"><g fill="none"><path fill="#4A5F88" d="M0 0h90v90H0z"/><path d="M34.623 15.78c-.804.326-1.498.606-1.54.621l-.366.135-.496.197c-.115.052-.37.155-.574.233-.199.083-.434.176-.522.213a38.62 38.62 0 0 1-.72.285c-.32.124-.586.259-.617.31-.073.146-.12.934-.12 2.147.005 1.202.078 3.913.146 5.183.016.285.042.814.063 1.172l.031.653-1.452 1.436-1.446 1.43-1.912-.036c-3.326-.062-6.726-.031-7.133.057-.057.016-.167.036-.245.052-.115.026-.162.098-.303.43-.167.42-.199.487-.33.793-.04.099-.307.741-.584 1.426-.277.684-.538 1.311-.574 1.4a91.91 91.91 0 0 0-.758 1.84c-.052.129-.115.295-.146.373-.052.124-.036.17.178.456.292.399 1.796 1.928 3.128 3.188.386.368 1.613 1.513 1.833 1.715.151.145 1.086 1 1.368 1.26l.136.124.02 2.053.016 2.047-.538.514a192.32 192.32 0 0 0-4.136 4.105c-.705.73-.93.974-1.41 1.53a2.462 2.462 0 0 0-.23.32l-.12.187.71 1.643c.387.907.706 1.654.706 1.664 0 .01.057.14.125.29.068.15.33.752.575 1.338.678 1.591.62 1.482.85 1.529.309.057.418.067 1.087.104.6.03 5.091.036 6.24 0 .303-.006.836-.021 1.19-.026l.638-.016 1.488 1.467 1.483 1.472.006 2.1c.01 3.913.094 6.1.266 6.935.026.145.078.275.115.29.203.083 2.49 1.042 2.621 1.1.089.04.475.201.862.362.386.16.778.321.861.363a64.52 64.52 0 0 0 2.032.834c.193.047.694-.368 2.005-1.653a160.624 160.624 0 0 0 3.692-3.794l.747-.794.162-.17 2.078.025 2.073.031 1.838 1.83c3.06 3.048 4.685 4.551 5.008 4.63.063.015.658-.198 1.463-.52 5.655-2.249 5.023-1.985 5.065-2.093.146-.384.12-4.25-.052-7.268-.01-.243-.037-.767-.053-1.166l-.03-.726 1.446-1.425 1.44-1.42.816.02c1.4.037 7.378.026 7.817-.01.533-.047.741-.088.804-.166.031-.036.23-.503.45-1.042.516-1.27 1.686-4.115 1.743-4.25.027-.057.13-.306.23-.55.225-.565.24-.523-.564-1.389-.908-.97-3.123-3.1-5.112-4.909a16.742 16.742 0 0 1-.731-.684c-.1-.109-.105-.197-.12-2.14l-.021-2.022 2.292-2.265c2.402-2.374 2.987-2.976 3.593-3.696.58-.69.57-.669.423-1.021-.684-1.664-2.637-6.091-2.7-6.127-.245-.13-1.41-.182-4.125-.177-1.28 0-2.961.016-3.744.032l-1.42.03-1.484-1.456-1.488-1.462-.032-3.213c-.015-1.768-.041-3.4-.057-3.629-.01-.228-.031-.627-.047-.881-.031-.627-.084-1.094-.157-1.369-.057-.222-.068-.233-.475-.404-.23-.098-.485-.207-.574-.243-.084-.042-.366-.156-.627-.265-.256-.103-.538-.223-.627-.259-.083-.036-.694-.29-1.357-.57-.658-.275-1.27-.529-1.358-.57-.59-.265-1.441-.596-1.52-.596-.193 0-.981.689-2.37 2.078a205.81 205.81 0 0 0-2.794 2.872c-.105.114-.434.461-.726.772-.287.311-.554.591-.59.627-.042.047-.585.057-2.12.037l-2.063-.021-2.058-2.032c-2.417-2.39-3.874-3.768-4.23-4.012a1.422 1.422 0 0 1-.146-.114c-.099-.125-.423-.311-.527-.306-.068 0-.783.27-1.588.596ZM45.8 35.413a9.831 9.831 0 0 1 1.462.208c.057.01.22.046.365.083.841.191 2.194.787 3.003 1.321 2.089 1.39 3.54 3.396 4.152 5.754.746 2.877.11 5.945-1.734 8.345a11.224 11.224 0 0 1-1.66 1.68c-1.5 1.197-3.233 1.913-5.223 2.161-.705.089-2.063.047-2.767-.088l-.47-.083a11.15 11.15 0 0 1-.601-.15c-2.642-.752-4.846-2.514-6.12-4.893-.397-.736-.82-1.892-.904-2.452a1.804 1.804 0 0 0-.057-.254c-.068-.109-.167-1.197-.167-1.856.005-1.793.397-3.213 1.368-4.95.073-.135.465-.72.501-.752.016-.015.1-.119.183-.233.235-.31.329-.42.757-.855a9.992 9.992 0 0 1 6.606-2.99c.345-.016.637-.037.642-.048.01-.005.047-.005.079.006.036.01.297.03.585.046Z" fill="#FFF"/></g></svg>