<svg viewBox="0 0 90 90" xmlns="http://www.w3.org/2000/svg"><defs><linearGradient x1="21.777%" y1="96.689%" x2="95.602%" y2="14.215%" id="a"><stop stop-color="#FFCD00" offset="1.867%"/><stop stop-color="#FFCA01" offset="29.33%"/><stop stop-color="#FEC203" offset="45.84%"/><stop stop-color="#FCB407" offset="59.47%"/><stop stop-color="#FA9F0C" offset="71.52%"/><stop stop-color="#F78513" offset="82.53%"/><stop stop-color="#F3651B" offset="92.63%"/><stop stop-color="#F04923" offset="100%"/></linearGradient><linearGradient x1="18.77%" y1="77.913%" x2="69.38%" y2="7.178%" id="b"><stop stop-color="#0046C8" offset="0%"/><stop stop-color="#0048C8" offset="1.417%"/><stop stop-color="#007FC8" offset="34.66%"/><stop stop-color="#00A7C8" offset="63.34%"/><stop stop-color="#00BFC8" offset="86.07%"/><stop stop-color="#00C8C8" offset="100%"/></linearGradient></defs><g fill="none"><path d="M69 22.62v33.964c0 4.226-2.648 7.956-6.595 9.448 0 0-29.579 10.84-29.629 10.89C19.486 81.795 18.486 90 18.486 90L0 77.519s3.298-9.3 18.487-14.62l10.692-3.879 14.79-5.42a10.067 10.067 0 0 0 6.594-9.448v-29.19l3.448-1.293 1.399-.497c3.048-1.094 6.145-.696 8.644.796A9.98 9.98 0 0 1 69 22.62Z" fill="url(#a)" transform="translate(11)"/><path d="M64.104 13.968a10.07 10.07 0 0 0-8.644-.796l-1.4.497-3.447 1.293-25.481 9.349c-3.997 1.442-6.595 5.221-6.595 9.448V89.95L.05 77.47V21.228c0-4.227 2.648-8.006 6.595-9.448L37.023.64c3.348-1.242 6.795-.596 9.393 1.244l17.688 12.084Z" fill="url(#b)" transform="translate(11)"/></g></svg>