<svg viewBox="0 0 90 90" xmlns="http://www.w3.org/2000/svg"><g fill="none"><path fill="#FFF" d="M0 0h90v90H0z"/><path d="M28 26.476c9.382 0 17 7.618 17 17v1.564H12.564c-.842 0-1.524-.682-1.564-1.564 0-9.382 7.618-17 17-17Z" fill="#F6B704"/><path d="M63.524 28c0 9.382-7.618 17-17 17H45V12.564c0-.842.682-1.564 1.524-1.564 9.422 0 17 7.618 17 17Z" fill="#E54335"/><path d="M62 63.564c-9.382 0-17-7.618-17-17V45h32.436c.842 0 1.564.682 1.564 1.524 0 9.422-7.618 17.04-17 17.04Z" fill="#4280EF"/><path d="M26.476 62c0-9.382 7.618-17 17-17h1.564v32.436c0 .842-.682 1.524-1.564 1.564-9.422 0-17-7.618-17-17Z" fill="#34A353"/></g></svg>