<svg xmlns="http://www.w3.org/2000/svg" viewBox="0 0 90 90"><rect width="90" height="90" fill="#FFF" opacity="0"/><g transform="translate(0 20)"><g fill="#CCC" transform="translate(39.57)"><path d="M27.2734074,0.141373074 L27.2262028,0.0472014846 C27.2028319,0.0238321221 27.1792295,9.86431529e-16 27.1322563,9.86431529e-16 L27.037847,0.0238321221 C26.9908738,0.0708022268 26.9672714,0.0944029691 26.9672714,0.141373074 L24.9652393,36.3834825 L25.2716067,36.3363967 L27.2028319,1.0810065 L29.511,4.87285909 L29.4873977,4.87285909 C31.2302671,10.0067147 31.9603193,15.4705179 31.6777856,21.2640381 L31.8191682,21.475982 L34.103734,25.5265163 L34.2448851,25.6678894 C37.7542263,28.7530154 41.6872523,30.8255077 46.0446572,31.8852273 L47.1044477,33.6045876 L47.2458303,33.6515809 L47.2694326,33.6045876 L27.2262028,0.822092472 L27.2734074,0.139059225"/><path d="M26.5669576 12.9292733C29.0398792 17.9927894 29.9346848 25.6466024 29.2754396 35.8912219L38.9081947 34.7136374 26.5669576 12.9292733zM48.5175788 35.184611C49.5065624 35.0669313 50.1424367 34.8549873 50.4252017 34.5488718L.0236023209 40.6956157 1.05226401e-14 40.6956157C.0236023209 42.791593.965612601 44.4401743 2.80265991 45.6175968 3.29715168 45.9708907 3.81547716 46.2299435 4.2863666 46.3948017 4.73388512 45.8768116 5.22860828 45.499917 5.81750932 45.1466L5.84088025 45.1466C11.1166932 41.9437942 18.9596056 41.4491504 29.3224128 43.6394844L29.4401931 43.6628769C30.5707905 43.8984216 31.7011566 44.1811446 32.7611784 44.5107683 33.067083 44.5578541 33.3262458 44.4636825 33.5382039 44.2752236 33.9151468 43.9925932 34.3862677 43.7806492 35.022142 43.6394844L35.022142 43.6158837C36.6944358 40.6484374 38.9551679 38.4582885 41.7816616 37.0216512 43.7364891 36.0561726 45.9974526 35.4201557 48.5175788 35.184611M24.3059941 36.1032815L26.6139308.730234727C23.2695745 13.6359073 17.8995837 25.6938039 10.5277921 36.8803012L24.3059941 36.1032815"/><polyline points="11.3286513 7.60707427 11.2344734 7.55987278 11.1402955 7.58347352 11.0930908 7.70101448 9.18546796 38.3169152 9.46800163 38.2933376 11.3758559 7.70101424 11.3286513 7.60707404"/><polyline points="8.64377156 37.6574829 8.64377156 37.6574829 10.6691746 7.79541745 1.05226401e-14 38.5760608 8.64377156 37.6574829"/></g><g stroke="#CCC" stroke-linecap="round" stroke-linejoin="round" transform="translate(37.17 3.55)"><path stroke-width="0.5" d="M11.4700338 44.0568258C8.80852501 45.3285032 6.87729981 45.5404494 5.65252447 44.7634297 4.42774913 43.939146 2.54349717 44.1274892-5.26132006e-15 45.3285032M17.7112279 44.2451597C17.2167362 44.0803016 16.6750397 43.9626218 16.109741 43.9154435 14.9557726 43.8213644 13.5660125 44.2687605 11.9409232 45.2344057 10.315834 46.2234619 8.3610065 46.6003588 6.02923603 46.3883223M32.2430844 41.8429744C21.0319819 39.5351457 12.9537405 40.0767133 8.00789726 43.4915556M39.30874 42.949988C38.8140168 42.7615291 38.2723204 42.6437568 37.7070217 42.6201792 36.5530533 42.526077 35.1635245 42.9734731 33.5384353 43.9391368 31.9133461 44.9045969 29.9585185 45.2814035 27.6267481 45.0930465"/><path stroke-width="0.67104638" d="M24.2587894 4.33503217C23.1045896 3.62839818 21.903648 3.81697274 20.6552704 4.92366244 19.5718776 3.81697274 18.4415115 3.62839818 17.2637094 4.33503217M21.6444853.378437137C20.4669146-.327965473 19.3129462-.0454507049 18.1351441 1.22621282 16.9809443-.0454507049 15.803605-.327965473 14.6258029.378437137"/></g><path fill="#6C78AF" d="M1.30271863 2.14061509L4.42457716 2.14061509C5.36260397 2.14061509 6.05140416 2.40764129 6.49101011 2.94153405 6.93044321 3.47558645 7.07303941 4.21972711 6.91873901 5.17406709 6.85547831 5.56557795 6.74260831 5.92489694 6.58004617 6.25214205 6.41741576 6.57941031 6.20266565 6.87841783 5.93570327 7.14890779 5.6182701 7.47442218 5.26295498 7.70764379 4.86948392 7.8483852 4.47603439 7.98910578 3.97285466 8.05947764 3.36008264 8.05947764L1.96955317 8.05947764 1.62357374 10.2000974-6.57665008e-16 10.2000974 1.30271863 2.14061509 1.30271863 2.14061509zM2.72006753 3.41562668L2.17367234 6.7961623 3.16115881 6.7961623C3.81571642 6.7961623 4.30082325 6.66255433 4.61665864 6.39498902 4.93223486 6.12740056 5.14039182 5.68217718 5.241158 5.05910602 5.33827669 4.45825889 5.28180444 4.0342299 5.07224868 3.78666737 4.86252841 3.53936167 4.44930962 3.41562668 3.83249027 3.41562668L2.72006753 3.41562668M8.74141945-5.26096815e-15L10.3527443-5.26096815e-15 10.0067646 2.14061509 11.4402544 2.14061509C12.3424617 2.14061509 12.9677376 2.3116071 13.3163133 2.65328569 13.6650008 2.99517714 13.7779988 3.54595831 13.6551371 4.30609888L13.0484101 8.05947764 11.4126829 8.05947764 11.9901021 4.4872207C12.0558524 4.08111208 12.0239914 3.80493712 11.8946685 3.65853385 11.7653386 3.512318 11.494735 3.4390215 11.0831945 3.4390215L9.79712466 3.4390215 9.05031413 8.05947764 7.43870855 8.05947764 8.74141945-5.26096815e-15M15.4101344 2.14061509L18.5319695 2.14061509C19.4702069 2.14061509 20.1587967 2.40764129 20.5984033 2.94153405 21.0379281 3.47558645 21.180456 4.21972711 21.0262486 5.17406709 20.9629875 5.56557795 20.8500233 5.92489694 20.6876486 6.25214205 20.5249016 6.57941031 20.3099647 6.87841783 20.0431888 7.14890779 19.7256615 7.47442218 19.3703707 7.70764379 18.9768998 7.8483852 18.5835204 7.98910578 18.0803638 8.05947764 17.4673815 8.05947764L16.0770578 8.05947764 15.7310783 10.2000974 14.1075874 10.2000974 15.4101344 2.14061509 15.4101344 2.14061509zM16.8276704 3.41562668L16.2812753 6.7961623 17.2687617 6.7961623C17.9232959 6.7961623 18.4083326 6.66255433 18.7239808 6.39498902 19.0396272 6.12740056 19.2479012 5.68217718 19.3486438 5.05910602 19.4456924 4.45825889 19.3893138 4.0342299 19.179641 3.78666737 18.9699207 3.53936167 18.5567019 3.41562668 17.9400931 3.41562668L16.8276704 3.41562668" transform="translate(0 38.67)"/><g fill="#F89C0E" transform="translate(22.2 36.95)"><polyline points="1.57838323 5.26096815e-15 4.70100037 5.26096815e-15 6.07274181 7.49366835 9.86699771 5.26096815e-15 12.9777096 5.26096815e-15 11.3995242 9.76550126 9.31475662 9.76550126 10.7161421 2.1590121 6.89036786 9.76550126 4.63125551 9.76550126 3.19447117 2.07930175 2.16547708 9.76550126 -2.63066003e-15 9.76550126 1.57838323 5.26096815e-15"/><path d="M16.7251982 8.18516316L18.3016712 8.18516316 19.2052329 2.59374009 21.1649845 2.59374009 20.0369925 9.57294234C19.8838644 10.5217963 19.5408208 11.2245986 19.0084219 11.6813609 18.4760067 12.1379011 17.7373791 12.3663331 16.7927957 12.3663331L12.949838 12.3663331 13.1847389 10.9135501 16.69035 10.9135501C17.0665386 10.9135501 17.3698331 10.8256466 17.6002496 10.6500085 17.830356 10.4740603 17.9727821 10.2193921 18.0266417 9.88566374L18.0461784 9.76550126 16.3115166 9.76550126C15.201946 9.76550126 14.4452417 9.55400621 14.0416814 9.13101381 13.6378387 8.70804918 13.5160276 8.0026924 13.6753895 7.01497589L14.3901928 2.59374009 16.3278323 2.59374009 15.6368095 6.86881788C15.5494694 7.40961963 15.5756749 7.76418377 15.7162776 7.93259357 15.856598 8.10100106 16.1928062 8.18516316 16.7251982 8.18516316M26.4430951 5.26096815e-15L28.6996552 5.26096815e-15 31.4344561 9.76550126 29.0678977 9.76550126 28.5147009 7.44105721 24.1192222 7.44105721 22.8422256 9.76550126 20.5853786 9.76550126 26.4430951 5.26096815e-15 26.4430951 5.26096815e-15zM27.1754775 1.93909714L25.0887361 5.69772359 28.1019264 5.69772359 27.1754775 1.93909714M38.8227138 9.76550126L35.0579955 9.76550126C33.920359 9.76550126 33.0849734 9.44206465 32.5515378 8.79507344 32.0183937 8.14819792 31.8456595 7.24639968 32.0324973 6.08993091 32.109228 5.61580357 32.2460451 5.18039532 32.4432448 4.7838774 32.6404329 4.38724842 32.9007364 4.02503255 33.2244168 3.69705859 33.6091948 3.30275266 34.0414621 3.02027723 34.5209363 2.84965543 35.0004082 2.67900818 35.6095332 2.59374009 36.3480197 2.59374009L38.0293866 2.59374009 38.4485175 0 40.4011815 0 38.8227138 9.76550126 38.8227138 9.76550126zM37.1187743 8.22768383L37.7798637 4.13864468 36.5946015 4.13864468C35.7997031 4.13864468 35.2099389 4.2994282 34.824719 4.62065744 34.4400867 4.94211112 34.1867089 5.47738521 34.065703 6.22636403 33.9481658 6.95340803 34.017626 7.46863769 34.2741023 7.77226355 34.5305739 8.07588478 35.0308875 8.22768383 35.7750433 8.22768383L37.1187743 8.22768383M41.6855295 2.59374009L49.2112777 2.59374009C50.3024222 2.59374009 51.0555353 2.79982316 51.4702951 3.21150571 51.8847912 3.62341271 52.0175705 4.29211429 51.8680706 5.21761508L51.1328861 9.76550126 49.1583923 9.76550126 49.8535824 5.46355101C49.9389742 4.93612764 49.9127849 4.58822956 49.7752875 4.41967861 49.6372371 4.25126881 49.3120758 4.16699333 48.7992459 4.16699333L47.6998799 4.16699333 46.7949554 9.76550126 44.7909795 9.76550126 45.695904 4.16699333 43.4056065 4.16699333 42.500682 9.76550126 40.5261905 9.76550126 41.6855295 2.59374009M56.2317024 1.77876712L54.1764169 1.77876712 54.4638747 5.26096815e-15 56.5191602 5.26096815e-15 56.2317024 1.77876712zM54.9406925 9.76550126L52.8854047 9.76550126 54.0444615 2.59374009 56.0997469 2.59374009 54.9406925 9.76550126M57.7950021 2.59374009L61.482328 2.59374009C62.5967185 2.59374009 63.3597491 2.79650748 63.7710936 3.20155407 64.1824566 3.60682972 64.3124082 4.27884928 64.1606684 5.21761508L63.4257639 9.76550126 61.46573 9.76550126 62.1634423 5.45025593C62.2500328 4.91387816 62.2201596 4.56594769 62.0738183 4.40649691 61.9274608 4.24684483 61.5950314 4.16699333 61.0768146 4.16699333L59.5006239 4.16699333 58.5957016 9.76550126 56.63595 9.76550126 57.7950021 2.59374009"/></g></g></svg>