<svg viewBox="0 0 90 90" xmlns="http://www.w3.org/2000/svg"><g fill="none"><path fill="#FFF" d="M0 0h90v90H0z"/><path d="M54.316 15h-25.92a3.276 3.276 0 0 0-3.278 3.274V58.99a3.276 3.276 0 0 0 3.279 3.274h17.106v-6.14H31.266V21.14h23.048a5.53 5.53 0 0 1 5.536 5.523v23.94a5.53 5.53 0 0 1-5.536 5.523h-4.92a.82.82 0 0 0-.82.82v4.501c0 .452.367.818.82.818h4.922C60.769 62.265 66 57.043 66 50.602V26.663c0-6.44-5.23-11.662-11.684-11.663Z" fill="#101010"/><path d="m40.223 74.315-12.657-9.694A6.543 6.543 0 0 1 25 59.43V18.278c0-2.71 3.12-4.246 5.278-2.594l12.657 9.694a6.543 6.543 0 0 1 2.566 5.193v41.15c0 2.714-3.12 4.25-5.278 2.596v-.002Z" fill="#03EAB3"/></g></svg>