<svg xmlns="http://www.w3.org/2000/svg" viewBox="0 0 90 90"><path fill="#FFF" d="M0 0h90v90H0z"/><g fill="#418272"><path d="m75 45.47-5.578 8.458h-5.454l4.842-8.468-4.842-8.448h5.454L75 45.471Zm-9.076-.01-5.56 8.468H54.89l4.844-8.457-4.844-8.459h5.475l5.56 8.448Z"/><path d="M35.437 37.602V18.506c0-.523.055-.715.157-.905.1-.192.25-.343.439-.445.19-.1.38-.156.9-.156h13.36c.518 0 .707.055.897.156.19.102.34.253.442.445.1.19.154.382.154.905v18.852l5.35 8.113-5.35 8.112v18.91c0 .524-.053.714-.154.906-.102.19-.252.341-.442.442-.19.104-.379.159-.898.159h-13.36c-.519 0-.709-.055-.9-.159a1.052 1.052 0 0 1-.438-.442c-.102-.192-.157-.382-.157-.906v-18.41H16.168A1.17 1.17 0 0 1 15 52.91V38.776a1.17 1.17 0 0 1 1.168-1.174h19.269Z"/></g></svg>