<svg xmlns="http://www.w3.org/2000/svg" viewBox="0 0 90 90"><path d="M0 0h90v90H0z"/><path d="M15.006 31.112h8.71v41.141h-8.71V31.112Zm36.253-.672c-12.358 0-21.365 8.885-21.365 21.28 0 12.395 9.007 21.28 21.365 21.28 12.432 0 21.439-8.885 21.439-21.28 0-12.395-9.007-21.28-21.44-21.28Zm0 34.795c-7.593 0-12.432-5.824-12.432-13.515 0-7.69 4.839-13.515 12.432-13.515S63.765 44.03 63.765 51.72c-.074 7.69-4.988 13.515-12.506 13.515Zm15.26-42.859L58.777 17H41.656l-7.742 5.376H15.006v5.525h20.397l7.742-5.376h14.218l7.742 5.376h9.9v-5.525H66.52Z" fill="#FFCC02"/></svg>