<svg viewBox="0 0 90 90" xmlns="http://www.w3.org/2000/svg"><g fill="none"><path fill="#000104" d="m15.785 24.875-.406.408v4.763l.406.409h2.717l.404-.409v-4.763l-.404-.408zm0 9.949-.406.408v4.764l.406.408h2.717l.404-.408v-4.764l-.404-.408zm3.934-3.96-.405.408v2.735l.405.408h4.733l.405-.408v-2.735l-.405-.408zm-9.884 0-.407.408v2.735l.407.408h4.732l.406-.408v-2.735l-.406-.408zm63.022 4.881a2.321 2.321 0 0 0-2.314 2.33 2.321 2.321 0 0 0 2.314 2.329 2.322 2.322 0 0 0 2.314-2.33 2.322 2.322 0 0 0-2.314-2.329Zm5.4-5.435a2.322 2.322 0 0 0-2.314 2.33 2.322 2.322 0 0 0 2.314 2.329 2.322 2.322 0 0 0 2.315-2.33 2.322 2.322 0 0 0-2.315-2.329Zm-10.8 0a2.322 2.322 0 0 0-2.314 2.33 2.322 2.322 0 0 0 2.314 2.329 2.322 2.322 0 0 0 2.314-2.33 2.322 2.322 0 0 0-2.314-2.329Zm5.4-5.435a2.322 2.322 0 0 0-2.314 2.33 2.322 2.322 0 0 0 2.314 2.329 2.322 2.322 0 0 0 2.314-2.33 2.322 2.322 0 0 0-2.314-2.33Zm-27.857 0c-2.13 0-3.857 1.738-3.857 3.882S42.87 32.64 45 32.64s3.857-1.738 3.857-3.882S47.13 24.875 45 24.875Z"/><path d="M80.572 32.64a2.322 2.322 0 0 1-2.315 2.329 2.322 2.322 0 0 1-2.314-2.33 2.322 2.322 0 0 1 2.314-2.329 2.322 2.322 0 0 1 2.315 2.33Zm-7.715-3.106a2.322 2.322 0 0 1-2.314-2.33 2.322 2.322 0 0 1 2.314-2.33 2.322 2.322 0 0 1 2.314 2.33 2.322 2.322 0 0 1-2.314 2.33Zm0 10.87a2.321 2.321 0 0 1-2.314-2.33 2.321 2.321 0 0 1 2.314-2.329 2.322 2.322 0 0 1 2.314 2.33 2.322 2.322 0 0 1-2.314 2.329Zm-5.4-5.435a2.322 2.322 0 0 1-2.314-2.33 2.322 2.322 0 0 1 2.314-2.329 2.322 2.322 0 0 1 2.314 2.33 2.322 2.322 0 0 1-2.314 2.329ZM45 32.639c-2.13 0-3.857-1.738-3.857-3.882S42.87 24.875 45 24.875s3.857 1.738 3.857 3.882S47.13 32.64 45 32.64Zm-20.143 1.368-.405.408h-4.733l-.405-.408v-2.735l.405-.408h4.733l.405.408v2.735Zm-5.95-3.96-.405.408h-2.717l-.406-.409v-4.763l.406-.408h2.717l.404.408v4.763Zm0 9.95-.405.407h-2.717l-.406-.408v-4.764l.406-.408h2.717l.404.408v4.764Zm-3.934-5.99-.406.408H9.835l-.407-.408v-2.735l.407-.408h4.732l.406.408v2.735Zm57.884-19.419c-3.334 0-6.407 2.388-8.863 6.405h-.61c0-1.105.281-2.557.872-3.883H25.743c.592 1.326.874 2.778.874 3.883h-.611c-2.456-4.017-5.529-6.405-8.863-6.405-8.048 0-14.571 13.906-14.571 31.059 0 17.154 6.523 29.765 14.571 29.765 5.532 0 10.345-5.278 12.812-14.96-4.836-.842-8.526-5.095-8.526-10.2 0-5.71 4.614-10.353 10.286-10.353C37.386 39.9 42 44.542 42 50.252a10.39 10.39 0 0 1-.49 3.16h6.98a10.37 10.37 0 0 1-.49-3.16c0-5.71 4.614-10.353 10.286-10.353S68.57 44.542 68.57 50.252c0 5.105-3.69 9.358-8.526 10.2 2.467 9.682 7.28 14.96 12.812 14.96 8.048 0 14.572-12.611 14.572-29.765 0-17.153-6.524-31.059-14.572-31.059Z" fill="#55B947"/><path fill="#76C043" d="M63.493 19.698H26.508l-.765-2.588h38.513z"/><path d="M72.857 75.412c-5.532 0-10.345-5.278-12.812-14.96 4.836-.842 8.526-5.095 8.526-10.2 0-5.71-4.613-10.353-10.285-10.353S48 44.542 48 50.252c0 1.101.172 2.163.49 3.16h-6.98c.318-.996.49-2.059.49-3.16 0-5.71-4.614-10.353-10.285-10.353-5.672 0-10.286 4.643-10.286 10.353 0 5.105 3.69 9.358 8.526 10.2-2.467 9.682-7.28 14.96-12.812 14.96-8.048 0-14.571-12.611-14.571-29.765 0-17.153 6.523-31.059 14.571-31.059 3.334 0 6.407 2.388 8.863 6.405h.61c0-1.105-.28-2.557-.873-3.883h38.513c-.59 1.326-.872 2.778-.872 3.883h.61c2.456-4.017 5.53-6.405 8.863-6.405 8.048 0 14.572 13.906 14.572 31.059 0 17.154-6.524 29.765-14.572 29.765Zm0-63.412c-2.31 0-4.511.897-6.521 2.522H23.665C21.655 12.897 19.452 12 17.143 12 7.218 12 0 27.064 0 45.647S7.218 78 17.143 78c7.191 0 12.56-6.327 15.364-17.414a.737.737 0 0 1 .071-.017c3.202-.27 5.99-2.021 7.687-4.57h9.47c1.697 2.549 4.486 4.3 7.687 4.57a.61.61 0 0 1 .071.017C60.297 71.673 65.666 78 72.857 78 82.782 78 90 64.23 90 45.647 90 27.064 82.782 12 72.857 12Z" fill="#000104"/><path d="M41.984 50.824a10.365 10.365 0 0 1-.474 2.588h6.98a10.365 10.365 0 0 1-.474-2.588h-6.032Z" fill="#55B947"/><path d="M2.82 39.9c1.635-12.531 8.276-22.724 14.323-22.724a10.93 10.93 0 0 1 8.253 3.817h.61c-2.456-4.017-5.529-6.405-8.863-6.405-7.126 0-13.057 10.904-14.323 25.311Zm84.359 0c-1.634-12.531-8.275-22.724-14.322-22.724-3.11 0-6.174 1.384-8.252 3.817h-.61c2.455-4.017 5.528-6.405 8.862-6.405 7.127 0 13.058 10.904 14.322 25.311Z" fill="#76C043"/><path d="M87.416 44.353c-.318 16.554-6.715 28.47-14.559 28.47-4.247 0-7.747-3.522-10.234-10.981a10.36 10.36 0 0 0 5.948-9.39v-2.2c0 5.105-3.69 9.358-8.526 10.2 2.467 9.682 7.28 14.96 12.812 14.96 8.048 0 14.572-12.611 14.572-29.765 0-.434-.004-.865-.013-1.294Zm-84.832 0c.318 16.554 6.714 28.47 14.56 28.47 4.246 0 7.746-3.522 10.233-10.981a10.358 10.358 0 0 1-5.948-9.39v-2.2c0 5.105 3.69 9.359 8.526 10.201-2.467 9.681-7.28 14.96-12.812 14.96-8.048 0-14.571-12.612-14.571-29.766 0-.433.004-.865.012-1.294Z" fill="#3C8940"/><path d="M31.715 37.31c-5.682 0-10.286 4.635-10.286 10.354v2.588c0-5.71 4.614-10.353 10.286-10.353C37.386 39.9 42 44.542 42 50.252v-2.588c0-5.719-4.605-10.353-10.285-10.353Zm26.571 0C52.606 37.31 48 41.946 48 47.665v2.588c0-5.71 4.614-10.353 10.286-10.353S68.57 44.542 68.57 50.252v-2.588c0-5.719-4.605-10.353-10.285-10.353Z" fill="#76C043"/><path d="M31.715 42.487c-2.131 0-3.858 1.738-3.858 3.883 0 2.143 1.727 3.882 3.858 3.882 2.13 0 3.857-1.739 3.857-3.882 0-2.145-1.727-3.883-3.857-3.883Zm26.571 0c-2.13 0-3.857 1.738-3.857 3.883 0 2.143 1.727 3.882 3.857 3.882s3.857-1.739 3.857-3.882c0-2.145-1.727-3.883-3.857-3.883Z" fill="#717576"/></g></svg>