<svg viewBox="0 0 90 90" xmlns="http://www.w3.org/2000/svg"><path d="M90 63.034c-.664 1.517-1.833 1.968-3.446 1.966-24.392-.033-48.785-.041-73.18-.024-6.401 0-11.606-4.175-13.052-10.453-1.68-7.3 3.406-14.819 10.768-15.908a17.36 17.36 0 0 1 1.918-.168c1.627-.06 2.817-1.17 2.836-2.651.018-1.482-1.223-2.658-2.902-2.663-3.338-.012-6.676 0-10.014 0-1.725-.007-2.883-1.051-2.892-2.632-.01-1.58 1.138-2.672 2.847-2.672H13.25c4.29.019 7.821 3.508 7.864 7.752.044 4.49-3.327 8.048-7.73 8.154-4.31.106-7.456 2.859-8.01 7.15a7.832 7.832 0 0 0 1.736 5.899 7.73 7.73 0 0 0 5.445 2.796c2.845.236 5.725.042 8.634.042 1.155-10.994 6.188-19.689 15.258-25.927 5.25-3.615 11.113-5.495 17.426-5.826-.282 1.285-.634 2.502-.8 3.742-.94 7.103 4.295 13.818 11.387 14.636a8.91 8.91 0 0 0 1.92.108 2.667 2.667 0 0 0 2.352-2.72c-.077-1.431-1.214-2.485-2.754-2.546-3.213-.128-5.568-1.654-7.004-4.52-1.46-2.916-.888-6.453 1.356-8.96a7.739 7.739 0 0 1 8.33-2.181 8.31 8.31 0 0 1 5.363 7.22c.056.378.259.718.564.946 7.788 5.42 12.767 12.735 14.742 22.078.279 1.318.45 2.658.671 3.988v3.374ZM76.64 49.046a2.651 2.651 0 0 0-1.624-2.453 2.621 2.621 0 0 0-2.873.575 2.664 2.664 0 0 0-.568 2.892 2.634 2.634 0 0 0 2.439 1.633 2.718 2.718 0 0 0 2.627-2.647Z" fill="#4CAF50"/></svg>