<svg viewBox="0 0 90 90" xmlns="http://www.w3.org/2000/svg"><g fill="none" fill-rule="evenodd"><path fill="#00B4BA" fill-rule="nonzero" d="M0 0h90v90H0z"/><path d="M53.393 24C60.318 24 66 29.733 66 36.9c0 7.167-5.682 12.9-12.607 12.9H35.458c-.533 0-1.065.538-1.065 1.075v8.6c0 .538.532 1.075 1.065 1.075h8.346c.532 0 1.065-.537 1.065-1.075V51.95h6.393v7.525c0 4.12-3.374 7.525-7.28 7.525h-8.524c-3.907 0-7.28-3.404-7.28-7.525v-8.6c0-3.763 2.663-6.987 6.392-7.525h19c3.551 0 6.393-2.867 6.393-6.45s-2.842-6.45-6.393-6.45H35.458c-.533 0-1.065.538-1.065 1.075V41.2c-2.486.358-4.795 1.612-6.393 3.583V31.525c.178-4.12 3.551-7.525 7.458-7.525h17.935Z" fill="#FFF"/></g></svg>