<svg xmlns="http://www.w3.org/2000/svg" viewBox="0 0 90 90"><path fill="#FFF" d="M0 0h90v90H0z"/><path d="M73.17 20.295c-.416.232-1.455.516-2.131.593-.234.026-.572.06-.736.086-2.149.284-4.513.318-22.87.352-9.268.009-17.082.043-17.367.07-1.846.145-1.898.154-2.989.309-.97.146-.944.137-1.871.378-2.798.739-4.99 2.08-6.748 4.134-.485.568-1.343 1.805-1.343 1.934 0 .043-.035.086-.07.104-.034.008-.26.412-.502.885-.78 1.539-1.342 3.292-1.472 4.642-.087.868-.096 2.364-.018 2.664.035.138.087.396.113.56.026.163.139.446.243.627.467.833 1.238.67 2.018-.439.537-.756 1.758-1.951 2.46-2.407 1.351-.885 3.17-1.53 5.5-1.942.148-.026.339-.069.434-.086.095-.017.407-.06.693-.095.286-.034.615-.077.736-.094a66.576 66.576 0 0 1 1.95-.172c1.134-.086 3.767-.138 3.767-.069 0 .043-.052.387-.12.765a76.047 76.047 0 0 0-.278 1.547 6.744 6.744 0 0 1-.078.473c-.026.12-.06.327-.087.473-.017.137-.12.645-.216 1.117-.095.473-.2.997-.225 1.16-.026.164-.061.37-.087.448-.026.086-.06.258-.087.387-.095.575-.77 3.447-1.082 4.624-1.161 4.341-2.305 7.47-3.907 10.762-1.43 2.923-3.084 4.994-5.267 6.55-1.187.851-1.776 1.522-2.278 2.57-.277.576-.277.585-.277 1.952 0 1.538.12 2.157.597 3.137.693 1.427 2.356 2.45 4.47 2.742.606.086 2.685.069 2.833-.017.043-.026.216-.077.38-.103.858-.155 2.02-.8 2.816-1.573 1.776-1.737 3.552-5.794 4.4-10.032.079-.378.165-.782.191-.902.026-.12.06-.31.087-.43.026-.12.156-.756.294-1.427.139-.662.278-1.34.304-1.504.026-.163.147-.757.26-1.324.294-1.478.805-4.16.857-4.513.052-.326.19-1.117.26-1.461.026-.12.087-.464.139-.774.043-.31.104-.636.12-.73.018-.095.061-.344.096-.559.035-.215.078-.464.095-.559.052-.335.382-2.235.416-2.45.026-.12.217-1.315.442-2.664.217-1.35.433-2.682.476-2.966.052-.284.104-.636.13-.773.061-.387.39-2.467.433-2.7.018-.111.07-.386.104-.601.035-.215.07-.421.078-.464.01-.035.018-.104.026-.147.009-.06 2.642-.086 7.71-.086h7.7l-.476 1.135c-.26.628-.571 1.393-.693 1.702-.112.31-.25.636-.294.73-.624 1.402-3.482 9.035-4.002 10.703-.208.644-.71 2.44-.797 2.828-.13.567-.563 2.699-.606 2.974-.026.189-.087.576-.13.86-.044.283-.104.764-.13 1.074-.035.31-.07.619-.087.688-.078.292-.164 2.286-.156 3.567.009 1.581.052 2.123.33 3.954.173 1.169.692 2.725 1.238 3.74.572 1.065 1.542 2.14 2.677 2.973 1.195.886 1.949 1.247 3.335 1.582.996.24 1.29.266 2.971.3 3.959.07 7.329-1.005 10.568-3.36 1.49-1.083 3.474-3.327 4.366-4.934a32.987 32.987 0 0 0 1.69-3.499c.406-1.014.493-1.323.502-1.805.043-1.453-.546-2.063-1.715-1.788-.58.138-.884.335-1.499 1.023-1.69 1.874-3.093 2.94-4.444 3.387-.953.318-1.221.37-1.992.404-.797.034-1.3-.077-2.027-.43-1.55-.756-2.79-2.75-3.318-5.372-.286-1.401-.346-2.381-.312-5.287.026-1.607.052-3.077.078-3.266.017-.19.06-.73.095-1.204.026-.472.07-.98.087-1.117.035-.24.087-.73.173-1.547.026-.19.06-.482.087-.645.017-.163.06-.473.087-.688.026-.215.069-.481.086-.601.026-.12.06-.336.078-.473.06-.37.303-1.771.355-2.02.026-.12.078-.43.13-.688.13-.705.139-.74.39-1.848.251-1.143.719-2.983.771-3.026.017-.017.788-.051 1.707-.069 1.576-.034 3.222-.111 3.534-.171.078-.009.312-.052.528-.086 2.14-.318 3.231-1.092 4.435-3.12.832-1.393 1.733-3.955 1.94-5.476.027-.241.079-.602.113-.817.035-.215.061-.765.061-1.23-.009-.816-.017-.859-.251-1.056-.295-.25-.511-.25-1.005.017Z"/></svg>