<svg viewBox="0 0 90 90" xmlns="http://www.w3.org/2000/svg"><g fill="none"><path d="M27.04 46.253c-.322-1.865-.721-3.675-1.643-5.12-1.256-1.965-3.455-3.3-7.809-3.333l-.067 2.46c1.544-.043 3.033.1 4.288.895 1.077.673 1.977 1.787 2.666 3.641-3.788-1.28-5.932-.894-7.453.077-.79.508-1.411 1.181-2.022 1.865l1.722 1.567c.1-.143.21-.276.3-.397 1.843-2.174 3.987-2.108 6.253-.905-4.898 2.35-5.687 6.467-5.431 9.435.222.033 2.41 0 2.41 0-.211-2.891 1.866-6.764 6.176-7.934l.644-1.313-.033-.938Z" fill="#8000DB"/><path d="M59.297 20.773c7.264-10.01 10.84-14.975 7.975-17.38-1.9-1.579-4.465-.464-8.608 2.615-.145 3.288-.945 7.967-2.011 14.18l2.644.585Z" fill="#008298"/><path d="M63.895 80.793H61.23c-.066 3.785.034 7.68-4.032 8.927.134.011.278.033.434.044.433.044.855.011 1.266-.077 5.054-1.28 4.92-5.142 4.998-8.894Z" fill="#580098"/><path fill="#98005E" d="m66.772 80.793-2.81-6.61h2.621l-2.2-6.246h-3.642l1.699 6.246h-2.022l2.166 6.61h1.3z"/><path d="M57.197 89.72c4.066-1.247 3.966-5.12 4.032-8.927h-9.652c-.056 5.639 1.988 8.386 5.62 8.927Z" fill="#8000DB"/><path fill="#FF009E" d="M60.407 74.183h2.01l-1.688-6.224-9.819-.044-2.277 6.466 2.489.188-2.489 6.224h13.963z"/><path fill="#98005E" d="m40.047 74.425-2.599-6.554-3.643-.011 1.8 6.433h-2.056l2.222 6.676 4.61.044-3.21-6.61z"/><path fill="#FF009E" d="M33.527 74.271h2.055l-1.788-6.434-9.964-.044-2.41 6.677 2.544.187-2.544 6.28 14.318.032z"/><path d="M56.264.093c-3.91-.938-6.187 5.264-11.863 17.38l12.252 2.704c1.055-6.213 1.866-10.892 2.01-14.18.156-3.51-.466-5.419-2.399-5.904Z" fill="#00BEDD"/><path fill="#F90" d="m63.75 61.558 3.233.21-3.443-6.83h2.832l-2.555-6.213H59.73l2.3 6.212h-2.555l3.1 6.831-2.91-.21 3.098 6.4 4.42.012z"/><path fill="#008298" d="m66.983 42.324-2.377-6.61h-4.598l1.954 6.61H59.13l2.488 6.423h4.932l-3.033-6.423z"/><path d="M44.424 17.484c-.023.033-.023 0 0 0l-5.443 10.76 3.01.066-3.61 7.404h26.192l-3.388-1.423c-.511-.21-.822-.618-.689-.894.011-.033.034-.044.045-.066.155-.221.622-.254 1.088-.067l.145.067 2.377 1.004 2.054.86V22.307l-21.781-4.822Z" fill="#FFE001"/><path d="M57.597 29.755a2.99 2.99 0 0 0 0-5.981 2.99 2.99 0 0 0 0 5.981Zm0-4.469c.822 0 1.5.673 1.5 1.49 0 .816-.678 1.49-1.5 1.49s-1.5-.674-1.5-1.49a1.51 1.51 0 0 1 1.5-1.49Z" fill="#FFF"/><path d="M57.697 28.254a1.489 1.489 0 0 0 1.4-1.578 1.477 1.477 0 0 0-1.589-1.39 1.489 1.489 0 0 0-1.4 1.578 1.49 1.49 0 0 0 1.59 1.39Zm8.486 7.46v-.53l-4.432-1.887-.144-.066c-.467-.187-.91-.154-1.089.066a.343.343 0 0 0-.044.067c-.111.276.189.684.689.894l3.387 1.423h.067l1.566.033Z" fill="#000"/><path d="M59.152 42.324h2.81l-1.943-6.61H41.547l-2.8 6.61h2.811l-2.655 6.4h.034v.012h22.681l-2.466-6.412Z" fill="#00BEDD"/><path d="m38.892 48.725-11.83-1.578-3.61 7.316h2.4c-.222.298-.478.64-.71.993l3.32 3.1 4.31-4.049 4.199 4.15 4.31-4.05 4.309 4.05 4.199-4.15.133.132 4.165 3.907 4.31-4.05 1.644 1.611-.511-1.148h2.555l-2.3-6.223H38.926" fill="#FFE001"/><path d="m59.674 61.558 2.91.188-.6-1.291-3.632-3.609-4.287 4.282-4.31-4.282-4.287 4.293-4.21-4.182-4.31 4.05-4.165-4.116-4.287 4.281-4.288-4.26c-.278.464-1.955 3.366-2.544 4.47l3.277.188-2.91 6.223 40.787.177-3.144-6.412Z" fill="#FFE001"/><path d="m60.03 56.085-1.644-1.633-4.31 4.05-4.31-4.05-4.187 4.15-4.31-4.05-4.298 4.05-4.199-4.15-4.31 4.05-3.32-3.101c-.3.463-.645.938-.945 1.468l4.287 4.26 4.288-4.283 4.165 4.117 4.31-4.05 4.21 4.182 4.31-4.282 4.31 4.282 4.287-4.282 3.632 3.609-1.966-4.337Z" fill="#000"/><path d="M34.427 80.936c-.067 3.818.044 7.725-4.032 8.983.244.033.5.066.755.077.211.011.456 0 .656-.044.188-.044.388-.1.566-.144.256-.077.533-.154.755-.242.156-.067.3-.133.467-.188.1-.044.189-.1.278-.143.088-.045.177-.1.255-.144.133-.077.256-.154.389-.243.078-.044.144-.11.222-.154.155-.133.322-.254.467-.397.144-.144.288-.298.433-.464.044-.066.1-.11.144-.176.067-.078.111-.155.156-.243.1-.155.188-.331.277-.497.045-.077.078-.176.134-.254.01-.044.044-.099.066-.143.034-.066.045-.144.078-.21.011-.033.033-.066.033-.11.045-.144.1-.287.134-.453 0-.033.01-.066.01-.077.034-.1.045-.187.067-.287 0-.01.011-.044.011-.066.012-.11.045-.22.067-.353.011-.066.011-.132.033-.188.012-.066.012-.143.034-.21.044-.33.077-.64.1-.992.033-.42.044-.817.044-1.225.011-.453.011-.883.033-1.325l-2.632-.088Z" fill="#580098"/><path d="M24.752 80.925c-.01 1.104.045 2.097.19 2.99.044.354.11.674.188.994.044.21.111.42.156.607.833 2.648 2.565 4.039 5.065 4.425 4.076-1.258 3.965-5.176 4.032-8.983h-9.63v-.033Z" fill="#8000DB"/><path d="M75.913 29.17c-.977 2.461-4.22 4.459-9.774 4.944v1.6c.389-.01.722-.044 1.088-.066.434-.033.833-.077 1.233-.143.367-.045.711-.11 1.044-.177 1.5-.298 2.733-.761 3.733-1.346.21-.133.433-.254.61-.398.1-.066.178-.132.278-.21.256-.209.511-.452.722-.672.144-.144.256-.298.389-.475.278-.42.5-.828.622-1.258a3.64 3.64 0 0 0 .055-1.799Z" fill="#98005E"/><path d="M67.372 22.593c-.389-.099-.767-.21-1.189-.287v11.83c5.532-.496 8.775-2.505 9.775-4.944-.511-2.527-3.366-5.153-8.586-6.599Z" fill="#FF009E"/></g></svg>