<svg width="90" height="90" viewBox="0 0 90 90" xmlns="http://www.w3.org/2000/svg"><defs><linearGradient x1="6.318%" y1="33.761%" x2="142.171%" y2="33.761%" id="a"><stop stop-color="#FF7028" offset="0%"/><stop stop-color="#FFCD4D" offset="100%"/></linearGradient><linearGradient x1="116.707%" y1="100.001%" x2="-55.541%" y2="100.001%" id="b"><stop stop-color="#FF7028" offset="0%"/><stop stop-color="#FFCD4D" offset="100%"/></linearGradient><linearGradient x1="106.691%" y1="57.144%" x2="-22.303%" y2="57.144%" id="c"><stop stop-color="#FF7028" offset="0%"/><stop stop-color="#FFCD4D" offset="100%"/></linearGradient><linearGradient x1="9.106%" y1="0%" x2="75.43%" y2="0%" id="d"><stop stop-color="#C44100" offset="0%"/><stop stop-color="#C84300" stop-opacity="0" offset="100%"/></linearGradient><linearGradient x1="364.699%" y1="223.15%" x2="107.343%" y2="263.484%" id="e"><stop stop-color="#FF7028" offset="0%"/><stop stop-color="#FFCD4D" offset="100%"/></linearGradient></defs><g fill="none" fill-rule="evenodd"><rect fill="#FFF" opacity="0" width="90" height="90"/><g transform="translate(0 7)" fill-rule="nonzero"><path d="M22.3879338,35.6000851 C25.8630515,29.1654221 32.5734662,25.1567828 39.87009,25.1567828 L90,25.1567828 C90,39.0507255 78.7694919,50.3134361 64.9161073,50.3134361 L14.4414013,50.3134361 L22.3879338,35.6000851 Z" fill="url(#a)"/><path d="M22.3879338,14.7136964 C25.8630515,21.1483162 32.5734662,25.1567828 39.87009,25.1567828 L90,25.1567828 C90,11.263056 78.7694919,0 64.9161073,0 L14.4414013,0 L22.3879338,14.7136964 Z" fill="url(#b)"/><path d="M20.5811016,38.8646827 C25.1425567,30.4133332 33.9550602,25.1490131 43.5375548,25.1516883 L61.943313,25.1568692 L39.9368025,65.9039077 C36.2443743,72.7413037 29.1138861,77 21.3603464,77 L0,76.9982734 L20.5811016,38.8646827 Z" fill="url(#c)"/><path d="M26.7758073,13.2953684 C18.5069029,1.51380984 4.98764026,0.0660430297 -3.82274746e-15,1.53354232e-14 L33.9945281,1.53354232e-14 C33.9945281,1.53354232e-14 29.13829,8.95120462 26.7758073,13.2953684 Z" style="mix-blend-mode:multiply" opacity=".6" transform="translate(14.349 50.352)" fill="url(#d)"/><path d="M39.845557,25.1631281 C32.5373124,25.1631281 25.8165679,29.1714652 22.3432149,35.6203728 C18.4637335,42.8233796 14.4414013,50.3104146 14.4414013,50.3104146 L48.3550567,50.3104146 L61.9364266,25.1631281 L39.845557,25.1631281 Z" fill="url(#e)"/></g></g></svg>