<svg viewBox="0 0 90 90" xmlns="http://www.w3.org/2000/svg"><defs><linearGradient x1="50%" y1="0%" x2="50%" y2="100%" id="a"><stop stop-color="#12A3FF" offset="0%"/><stop stop-color="#3D68FF" offset="100%"/></linearGradient><linearGradient x1="68.643%" y1="0%" x2="68.643%" y2="100%" id="b"><stop stop-color="#FFBE00" offset="0%"/><stop stop-color="#FF9F00" offset="100%"/></linearGradient><linearGradient x1="50%" y1="0%" x2="50%" y2="73.049%" id="c"><stop stop-color="#12A3FF" offset="0%"/><stop stop-color="#3D68FF" offset="100%"/></linearGradient><linearGradient x1="50%" y1="28.362%" x2="50%" y2="100%" id="d"><stop stop-color="#12A3FF" offset="0%"/><stop stop-color="#3D68FF" offset="100%"/></linearGradient></defs><g fill="none"><path d="m18.491 27.172 1.367-1.663c1.216-1.406 2.08-2.763 2.593-4.1l10.404 12.735c1.889 2.426 1.799 2.875-1.348 2.875h-1.08c-3.147 0-4.316-.629-6.204-2.875l-5.732-6.972Zm0-17.325 5.732-6.972C26.11.63 27.28 0 30.427 0h1.08c3.147 0 3.237.45 1.348 2.875L22.451 15.611c-.512-1.338-1.377-2.695-2.593-4.101l-1.367-1.663Z" fill="url(#a)" transform="translate(55.892 27.108)"/><path d="M18.187 37.02c3.147 0 3.237-.45 1.349-2.876L8.746 20.936c-.81-.989-1.26-1.797-1.26-2.426 0-.72.45-1.528 1.26-2.426l10.79-13.209C21.424.45 21.334 0 18.187 0h-1.079c-3.147 0-4.316.629-6.205 2.875L2.63 12.94c-3.507 4.043-3.507 7.098 0 11.142l8.273 10.063c1.889 2.246 3.058 2.875 6.205 2.875h1.08Z" fill="url(#b)" transform="matrix(-1 0 0 1 76.68 27.108)"/><path d="M0 64.647C0 67.329.671 68 3.356 68h.895c2.685 0 3.356-.67 3.356-3.353V49.072c2.013 3.205 5.668 4.844 10.963 4.844 10.366 0 15.512-5.44 15.512-16.245v-6.483c0-10.805-5.52-15.872-17.079-15.872C6.264 15.316 0 20.532 0 31.188v33.459ZM26.4 37.82c0 6.26-2.088 8.868-9.322 8.868-7.383 0-9.471-2.683-9.471-8.868v-6.408c0-6.26 2.237-8.943 9.471-8.943 7.383 0 9.322 2.683 9.322 8.943v6.408Z" fill="url(#c)" transform="translate(0 11)"/><path d="M41.255 49.685c0 2.682.671 3.353 3.356 3.353h.97c2.684 0 3.355-.67 3.355-3.353V19.43c0-2.683-.67-3.354-3.356-3.354h-.969c-2.685 0-3.356.67-3.356 3.354v30.254Zm.522-41.656c1.865 1.789 4.848 1.789 6.637 0 1.865-1.863 1.865-4.843 0-6.632-1.79-1.863-4.772-1.863-6.637 0-1.864 1.789-1.864 4.77 0 6.632Z" fill="url(#d)" transform="translate(0 11)"/></g></svg>