<svg viewBox="0 0 90 90" xmlns="http://www.w3.org/2000/svg" xmlns:xlink="http://www.w3.org/1999/xlink"><defs><linearGradient x1="99.553%" y1="55.807%" x2=".447%" y2="60.118%" id="c"><stop stop-color="#FF5C34" offset="0%"/><stop stop-color="#EB0256" offset="100%"/></linearGradient><linearGradient x1="33.089%" y1="100.451%" x2="68.99%" y2="14.997%" id="d"><stop stop-color="#A63FDB" offset="0%"/><stop stop-color="#FF257E" offset="100%"/></linearGradient><linearGradient x1="15.038%" y1="50%" x2="93.919%" y2="67.526%" id="e"><stop stop-color="#00FFF0" offset="0%"/><stop stop-color="#0087FF" offset="100%"/></linearGradient><linearGradient x1="81.226%" y1="9.652%" x2="20.815%" y2="74.713%" id="f"><stop stop-color="#17C934" offset="0%"/><stop stop-color="#03FF6E" offset="100%"/></linearGradient><linearGradient x1="50%" y1="112.472%" x2="30.56%" y2="-.451%" id="g"><stop stop-color="#FFB000" offset="0%"/><stop stop-color="#FF7725" offset="100%"/></linearGradient><linearGradient x1="50%" y1="111.913%" x2="30.734%" y2="0%" id="h"><stop stop-color="#FFB000" offset="0%"/><stop stop-color="#FF7725" offset="100%"/></linearGradient><linearGradient x1="-80.189%" y1="59.623%" x2="120.779%" y2="72.058%" id="i"><stop stop-color="#9EE85D" offset="0%"/><stop stop-color="#0ED061" offset="100%"/></linearGradient><linearGradient x1="45.55%" y1="116.819%" x2=".447%" y2="-4.038%" id="j"><stop stop-color="#21EFE3" offset="0%"/><stop stop-color="#2598FF" offset="100%"/></linearGradient><linearGradient x1="99.553%" y1="58.207%" x2="-88.399%" y2="74.317%" id="k"><stop stop-color="#A63FDB" offset="0%"/><stop stop-color="#FF257E" offset="100%"/></linearGradient><linearGradient x1="99.553%" y1="55.807%" x2=".447%" y2="60.118%" id="l"><stop stop-color="#FF5C34" offset="0%"/><stop stop-color="#EB0256" offset="100%"/></linearGradient><path id="a" d="M0 0h90v90H0z"/></defs><g fill="none" fill-rule="evenodd"><mask id="b" fill="#fff"><use xlink:href="#a"/></mask><g fill-rule="nonzero" mask="url(#b)"><path d="M46.295 44.595c-12.043-2.98-24.24 4.292-27.242 16.24-3.003 11.949 4.326 24.05 16.368 27.03l.912.225C17.155 83.784 2.629 67.313 1.429 47.282l-.018-.354C.76 34.631 10.282 24.14 22.677 23.495c12.394-.645 22.968 8.802 23.618 21.1Z" fill="url(#c)" transform="rotate(40 45.189 42.96)"/><path d="M46.295 44.595c-6.393 10.555-2.95 24.254 7.688 30.596 10.64 6.342 24.445 2.927 30.838-7.628l.423-.7a44.992 44.992 0 0 1-38.95 22.326c-3.423 0-6.757-.38-9.961-1.1l-.912-.224c-12.042-2.98-19.37-15.081-16.368-27.03 3.002-11.948 15.2-19.22 27.242-16.24Z" fill="url(#d)" transform="rotate(40 45.189 42.96)"/><path d="M46.295 44.595c7.978 9.433 22.153 10.663 31.66 2.748 9.508-7.916 10.748-21.98 2.77-31.413l-.182-.216c6.671 7.78 10.698 17.864 10.698 28.88a44.13 44.13 0 0 1-5.997 22.27l-.423.699c-6.393 10.555-20.199 13.97-30.838 7.628-10.638-6.342-14.08-20.04-7.688-30.596Z" fill="url(#e)" transform="rotate(40 45.189 42.96)"/><path d="M46.295 44.595c11.508-4.613 17.067-17.609 12.418-29.027C54.063 4.15 40.966-1.366 29.458 3.248l-.942.377A45.101 45.101 0 0 1 46.295 0c13.72 0 26.003 6.1 34.248 15.714l.182.216c7.978 9.433 6.738 23.497-2.77 31.413-9.507 7.915-23.682 6.685-31.66-2.748Z" fill="url(#f)" transform="rotate(40 45.189 42.96)"/><path d="M44.946 42.977c-.65-12.298-11.224-21.744-23.618-21.1C8.933 22.522-.588 33.013.062 45.311l.018.353A44.936 44.936 0 0 1 0 42.977C0 24.614 11.186 8.843 27.167 2.007l.942-.377c11.507-4.614 24.605.903 29.255 12.32 4.65 11.418-.91 24.414-12.418 29.027Z" transform="rotate(40 42.292 44.005)" style="mix-blend-mode:multiply" fill="#000"/><path d="M44.946 42.977c-.65-12.298-11.224-21.744-23.618-21.1C8.933 22.522-.588 33.013.062 45.311l.018.353A44.936 44.936 0 0 1 0 42.977C0 24.614 11.186 8.843 27.167 2.007l.942-.377c11.507-4.614 24.605.903 29.255 12.32 4.65 11.418-.91 24.414-12.418 29.027Z" fill="url(#g)" transform="rotate(40 42.292 44.005)"/><g opacity=".505"><path d="m0 1.764.337-.134c11.507-4.614 24.605.903 29.255 12.32 4.649 11.418-.91 24.414-12.418 29.027-.097-1.82-.41-3.58-.915-5.251 6.174-3.358 10.36-9.866 10.36-17.344C26.619 9.467 17.7.62 6.699.62A20.023 20.023 0 0 0 0 1.764Z" fill="url(#h)" transform="rotate(40 28.406 82.156)"/><path d="m0 1.764.337-.134c11.507-4.614 24.605.903 29.255 12.32 4.649 11.418-.91 24.414-12.418 29.027-.097-1.82-.41-3.58-.915-5.251 6.174-3.358 10.36-9.866 10.36-17.344C26.619 9.467 17.7.62 6.699.62A20.023 20.023 0 0 0 0 1.764Z" transform="rotate(40 28.406 82.156)" style="mix-blend-mode:overlay" fill="#000" fill-opacity=".496"/></g><g opacity=".544"><path d="m0 1.764.337-.134c11.507-4.614 24.605.903 29.255 12.32 4.649 11.418-.91 24.414-12.418 29.027-.097-1.82-.41-3.58-.915-5.251 6.174-3.358 10.36-9.866 10.36-17.344C26.619 9.467 17.7.62 6.699.62A20.023 20.023 0 0 0 0 1.764Z" fill="url(#i)" transform="rotate(112 30.443 53.425)"/><path d="m0 1.764.337-.134c11.507-4.614 24.605.903 29.255 12.32 4.649 11.418-.91 24.414-12.418 29.027-.097-1.82-.41-3.58-.915-5.251 6.174-3.358 10.36-9.866 10.36-17.344C26.619 9.467 17.7.62 6.699.62A20.023 20.023 0 0 0 0 1.764Z" transform="rotate(112 30.443 53.425)" style="mix-blend-mode:overlay" fill="#000" fill-opacity=".5"/></g><g opacity=".562"><path d="m0 1.764.337-.134c11.507-4.614 24.605.903 29.255 12.32 4.649 11.418-.91 24.414-12.418 29.027-.097-1.82-.41-3.58-.915-5.251 6.174-3.358 10.36-9.866 10.36-17.344C26.619 9.467 17.7.62 6.699.62A20.023 20.023 0 0 0 0 1.764Z" fill="url(#j)" transform="rotate(-177 31.143 43.62)"/><path d="m0 1.764.337-.134c11.507-4.614 24.605.903 29.255 12.32 4.649 11.418-.91 24.414-12.418 29.027-.097-1.82-.41-3.58-.915-5.251 6.174-3.358 10.36-9.866 10.36-17.344C26.619 9.467 17.7.62 6.699.62A20.023 20.023 0 0 0 0 1.764Z" transform="rotate(-177 31.143 43.62)" style="mix-blend-mode:overlay" fill="#000"/></g><g opacity=".584"><path d="m0 1.764.337-.134c11.507-4.614 24.605.903 29.255 12.32 4.649 11.418-.91 24.414-12.418 29.027-.097-1.82-.41-3.58-.915-5.251 6.174-3.358 10.36-9.866 10.36-17.344C26.619 9.467 17.7.62 6.699.62A20.023 20.023 0 0 0 0 1.764Z" fill="url(#k)" transform="rotate(-103 31.79 32.887)"/><path d="m0 1.764.337-.134c11.507-4.614 24.605.903 29.255 12.32 4.649 11.418-.91 24.414-12.418 29.027-.097-1.82-.41-3.58-.915-5.251 6.174-3.358 10.36-9.866 10.36-17.344C26.619 9.467 17.7.62 6.699.62A20.023 20.023 0 0 0 0 1.764Z" transform="rotate(-103 31.79 32.887)" style="mix-blend-mode:overlay" fill="#000" fill-opacity=".503"/></g><g opacity=".18"><path d="m0 1.764.337-.134c11.507-4.614 24.605.903 29.255 12.32 4.649 11.418-.91 24.414-12.418 29.027-.097-1.82-.41-3.58-.915-5.251 6.174-3.358 10.36-9.866 10.36-17.344C26.619 9.467 17.7.62 6.699.62A20.023 20.023 0 0 0 0 1.764Z" fill="url(#l)" transform="rotate(-31 34.338 -6.032)"/><path d="m0 1.764.337-.134c11.507-4.614 24.605.903 29.255 12.32 4.649 11.418-.91 24.414-12.418 29.027-.097-1.82-.41-3.58-.915-5.251 6.174-3.358 10.36-9.866 10.36-17.344C26.619 9.467 17.7.62 6.699.62A20.023 20.023 0 0 0 0 1.764Z" transform="rotate(-31 34.338 -6.032)" style="mix-blend-mode:multiply" fill="#000" fill-opacity=".773"/></g><path d="M41.46 54.533h8.18c7.707 0 13.954-6.082 13.954-13.584S57.347 27.365 49.64 27.365H37.833c-4.446 0-8.05 3.509-8.05 7.837v30.503L41.46 54.533Z" fill="#000"/><path d="M41.46 54.533h8.18c7.707 0 13.954-6.082 13.954-13.584S57.347 27.365 49.64 27.365H37.833c-4.446 0-8.05 3.509-8.05 7.837v30.503L41.46 54.533Z" fill="#FFF"/></g></g></svg>