<svg xmlns="http://www.w3.org/2000/svg" viewBox="0 0 90 90" fill-rule="evenodd" xmlns:v="https://vecta.io/nano"><path fill="#111" d="M0 0h90v90H0z"/><path fill="#fff" fill-rule="nonzero" d="M26.452 12.805c-6.716 1.733-10.776 2.855-10.858 3.003-.066.132-1.353 5.05-2.855 10.941L10 37.475l3.762 3.762L17.525 45l-3.762 3.762L10 52.525l2.756 10.809 2.937 10.974c.099.099 5.033 1.419 10.974 2.937L37.475 80l3.762-3.762L45 72.475l3.762 3.762L52.525 80l10.809-2.756 10.974-2.937c.099-.099 1.419-5.033 2.937-10.974L80 52.525l-3.762-3.762L72.475 45l3.762-3.762L80 37.475l-2.756-10.809-2.937-10.974c-.099-.099-5.033-1.419-10.974-2.937L52.525 10l-3.762 3.762L45 17.525l-3.762-3.762c-2.063-2.063-3.828-3.746-3.911-3.729-.099 0-4.983 1.254-10.875 2.772zm11.782 6.7l2.393 2.393-3.597 3.597-3.581 3.581-4.538-4.538-4.472-4.587c.099-.099 10.726-2.805 11.073-2.822.215-.017 1.155.809 2.723 2.376zm21.601-1.073l5.512 1.452c.231.099-.611 1.007-4.257 4.653l-4.538 4.538-3.581-3.581-3.597-3.597 2.393-2.393c1.32-1.32 2.492-2.393 2.607-2.393.132 0 2.591.594 5.462 1.32h0zM25.479 37.03l-3.581 3.597-2.426-2.442-2.442-2.426 1.304-5.165 1.469-5.71.149-.561 4.554 4.554 4.571 4.571-3.597 3.581zm46.106-6.766l1.386 5.495-2.442 2.426-2.426 2.442-3.581-3.597-3.597-3.581 4.538-4.538c2.805-2.805 4.571-4.455 4.637-4.323.05.099.726 2.673 1.485 5.677h0zm-22.954-.363l3.548 3.548-3.597 3.597L45 40.627l-3.581-3.581-3.597-3.597 3.548-3.548L45 26.353c.05 0 1.683 1.601 3.63 3.548zM37.079 41.452L40.627 45l-3.597 3.597-3.581 3.581-3.581-3.581L26.271 45l3.548-3.548 3.63-3.548c.05 0 1.683 1.601 3.63 3.548zm23.102 0L63.729 45l-3.597 3.597-3.581 3.581-3.581-3.581L49.373 45l3.548-3.548 3.63-3.548c.05 0 1.683 1.601 3.63 3.548zM25.528 53.003l3.548 3.548-4.538 4.538c-2.805 2.805-4.571 4.455-4.637 4.323-.05-.099-.726-2.673-1.485-5.677l-1.386-5.495 2.393-2.393c1.32-1.32 2.426-2.393 2.475-2.393s1.683 1.601 3.63 3.548zm23.102 0l3.548 3.548-3.597 3.597L45 63.729l-3.581-3.581-3.597-3.597 3.548-3.548L45 49.455c.05 0 1.683 1.601 3.63 3.548zm21.947-1.155l2.393 2.393-1.386 5.495-1.485 5.677c-.066.132-1.832-1.518-4.637-4.323l-4.538-4.538 3.548-3.548 3.63-3.548c.05 0 1.155 1.073 2.475 2.393zM37.079 64.554l3.548 3.548-2.442 2.442-2.426 2.426-5.165-1.304-5.71-1.469-.561-.149 4.521-4.521 4.604-4.521c.05 0 1.683 1.601 3.63 3.548h0zm24.076.974l4.521 4.521-.561.149-5.71 1.469-5.165 1.304-2.426-2.426-2.442-2.442 3.548-3.548 3.63-3.548c.05 0 2.112 2.03 4.604 4.521h0z"/></svg>