<svg viewBox="0 0 90 90" xmlns="http://www.w3.org/2000/svg"><g fill="none"><path fill="#FFF" d="M0 0h90v90H0z"/><path d="M28 76c.656-1.22 2.451-4.523 4.243-7.822 1.66-3.056 3.259-6 3.78-6.97 1.872-3.48 6.5-3.403 9.856-3.347.521.01 1.012.017 1.457.012l3.164-.018-7.61 14.152c-1.28 2.38-3.623 3.871-6.182 3.935L34.385 76H28Z" fill="#FECE6A"/><path d="m63.931 55.184 4.569-7.928-8.586.043H53.54c-10.2 0-13.478 6.394-15.653 10.637a45.456 45.456 0 0 1-.834 1.577c-.867 1.601-1.553 2.872-1.553 2.872 1.948-3.444 6.763-3.367 10.254-3.312.543.009 1.053.017 1.516.011l3.292-.017 6.84-.043c2.687-.018 5.167-1.476 6.53-3.84Z" fill="#FEAE06"/><path d="M24.654 17c.712 1.168 2.632 4.352 4.549 7.529 1.776 2.943 3.487 5.779 4.053 6.708 2.034 3.337-.547 7.423-2.42 10.386-.29.46-.564.894-.8 1.293l-1.703 2.828-8.266-13.564a7.201 7.201 0 0 1-.09-7.393l1.21-2.098L24.654 17Z" fill="#89E5B8"/><path d="M35.144 34.446a44.356 44.356 0 0 1-.895-1.509l-1.612-2.776c1.892 3.404-.51 7.573-2.251 10.596-.27.47-.525.912-.745 1.319l-1.585 2.884-3.286 5.998a7.958 7.958 0 0 0-.007 7.602l4.314 7.91 4.135-7.524 3.095-5.568c4.953-8.911 1.43-14.685-1.163-18.932Z" fill="#3BD388"/><path d="M79 44.23c-1.368 0-5.084-.015-8.794-.03-3.436-.013-6.747-.026-7.835-.026-3.906 0-6.253-3.88-7.956-6.695a51.615 51.615 0 0 0-.75-1.216L52 33.64h15.876c2.67 0 5.146 1.28 6.534 3.379l1.26 1.904L79 44.231Z" fill="#BFB0FB"/><path d="M41.715 23.125 32.5 23.05l4.428 7.407 3.258 5.513c5.32 8.974 12.477 8.224 17.243 8.255.682.005 1.264 0 1.81 0 1.833-.033 3.261-.03 3.261-.03-3.984 0-6.38-4.203-8.117-7.25-.27-.474-.523-.92-.765-1.317l-1.698-2.84-3.535-5.895c-1.389-2.316-3.922-3.747-6.67-3.77Z" fill="#947BF9"/></g></svg>