<svg viewBox="0 0 90 90" xmlns="http://www.w3.org/2000/svg"><path d="m63.755 32.21 23.89-6.426c.964-.26 1.549.369 1.296 1.406l-3.893 15.912c-.333 1.367-1.232 2.491-2.437 3.055L61.142 56.188c3.012-3.825 4.824-8.738 4.824-14.097l-.004-.354 15.046-5.25.833-3.159-16.207 4.836a22.768 22.768 0 0 0-1.879-5.954Zm-39.461-.525-21.938-5.9c-.967-.26-1.551.368-1.296 1.405l3.892 15.912c.334 1.367 1.231 2.491 2.436 3.055l16.906 7.898V41.828L8.99 36.487l-.832-3.159 16.135 4.815v-6.458Zm11.37-5.96h-8.782V68h9.06v-9.371A17.334 17.334 0 0 0 45 61.18c10.005 0 18.118-8.546 18.118-19.09S55.008 23 45 23c-3.416 0-6.612.996-9.338 2.726h.002ZM45 51.638c5.002 0 9.06-4.275 9.06-9.546 0-5.272-4.056-9.547-9.06-9.547-5.003 0-9.059 4.275-9.059 9.547 0 5.271 4.056 9.546 9.06 9.546Z" fill="#6800B3" fill-rule="evenodd"/></svg>