<svg viewBox="0 0 90 90" xmlns="http://www.w3.org/2000/svg"><g fill="none" fill-rule="evenodd"><path fill="#00286E" d="M0 0h90v90H0z"/><path d="M67.969 33.82v22.484c0 7.719-6.277 13.976-14.02 13.976H39.774l2.71-6.212h11.528c4.301 0 7.788-3.476 7.788-7.764V40H45.942c-4.301 0-7.788 3.476-7.788 7.764V75h-6.231V47.733c0-7.718 6.277-13.975 14.02-13.975h9.626V21.21H43.7c-8.518.06-15.409 6.928-15.468 15.42V75H22V36.63C22 24.684 31.715 15 43.7 15h18.069v18.82H68h-.031Z" fill="#FFF" fill-rule="nonzero"/></g></svg>