<svg viewBox="0 0 90 90" xmlns="http://www.w3.org/2000/svg" xmlns:xlink="http://www.w3.org/1999/xlink"><defs><linearGradient x1="95.483%" y1="51.648%" x2="1.284%" y2="47.309%" id="a"><stop stop-color="#6B767B" offset="0%"/><stop stop-color="#8C979E" offset="100%"/></linearGradient><linearGradient x1="27.728%" y1="47.718%" x2="97.95%" y2="52.273%" id="b"><stop stop-color="#AEB6BB" offset="0%"/><stop stop-color="#717D81" offset="100%"/></linearGradient><linearGradient x1="50%" y1="7.904%" x2="48.332%" y2="100%" id="c"><stop stop-color="#79838B" offset="0%"/><stop stop-color="#5F666C" offset="100%"/></linearGradient><linearGradient x1="28.153%" y1="4.965%" x2="75.024%" y2="2.833%" id="d"><stop stop-color="#9CA9AD" offset="0%"/><stop stop-color="#86979D" offset="100%"/></linearGradient><linearGradient x1="96.106%" y1="16.264%" x2="1.444%" y2="87.39%" id="e"><stop stop-color="#61676C" offset="0%"/><stop stop-color="#545C5F" offset="100%"/></linearGradient><linearGradient x1="97.368%" y1="40.468%" x2="2.486%" y2="60.054%" id="f"><stop stop-color="#72787D" offset="0%"/><stop stop-color="#6C787D" offset="100%"/></linearGradient><linearGradient x1="0%" y1="45.662%" x2="89.101%" y2="54.017%" id="l"><stop stop-color="#87929A" offset="0%"/><stop stop-color="#5F686D" offset="100%"/></linearGradient><linearGradient x1="50%" y1="0%" x2="48.344%" y2="100%" id="m"><stop stop-color="#727E81" offset="0%"/><stop stop-color="#575D61" offset="100%"/></linearGradient><linearGradient x1="48.292%" y1="34.687%" x2="22.127%" y2="79.838%" id="n"><stop stop-color="#575F63" offset="0%"/><stop stop-color="#4C5255" offset="100%"/></linearGradient><path d="m5.486 2.802.371 4.53C2.026 9.086.244 9.942.512 9.897c9.707-1.594 17.416-2.008 25.177-.867-1.352 3.539-5.77 15.713-13.253 36.524l3.7-5.059c.827 1.464 2.09 2.63 3.787 3.497-.24 1.307-.84 4.552-1.796 9.736l9.615-26.452C43.43 22.281 57.394 16.117 69.635 8.785c-1.754.505-8.116 2.516-8.268 2.56.55-1.936.586-3.767.11-5.493l1.846-1.681V2.62C57.944 5.538 54.34 7.47 52.51 8.416 38.188 1.277 20.785-2.328.06 1.642c-.419.08 1.39.467 5.427 1.16Z" id="g"/><path d="m5.486 2.802.371 4.53C2.026 9.086.244 9.942.512 9.897c9.707-1.594 17.416-2.008 25.177-.867-1.352 3.539-5.77 15.713-13.253 36.524l3.7-5.059c.827 1.464 2.09 2.63 3.787 3.497-.24 1.307-.84 4.552-1.796 9.736l9.615-26.452C43.43 22.281 57.394 16.117 69.635 8.785c-1.754.505-8.116 2.516-8.268 2.56.55-1.936.586-3.767.11-5.493l1.846-1.681V2.62C57.944 5.538 54.34 7.47 52.51 8.416 38.188 1.277 20.785-2.328.06 1.642c-.419.08 1.39.467 5.427 1.16Z" id="j"/><radialGradient cx="48.564%" cy="34.249%" fx="48.564%" fy="34.249%" r="73.935%" gradientTransform="matrix(-.331 .8967 -.6705 -.44265 .876 .059)" id="i"><stop stop-color="#FFB44E" offset="0%"/><stop stop-color="#FF7841" offset="100%"/></radialGradient></defs><g fill="none" fill-rule="evenodd"><path fill="#33353C" fill-rule="nonzero" d="M0 0h90v90H0z"/><path d="M11.599 14.68c38.255-7.296 64.556 11.424 67.444 13.4-2.07 1.875-4.138 3.753-6.202 5.635-.093.05-3.05 1.572-8.873 4.565-15.114-7.54-30.818-10.08-47.114-7.615-1.924-.334-3.849-.66-5.776-.98-.206-4.786.004-9.49.521-15.005Zm.138 23.127c1.435-.631 3.264-1.502 5.488-2.612 8.712-.972 16.132-.897 22.26.223-2.337 6.41-6.329 17.39-11.977 32.943a635.18 635.18 0 0 0-3.72 5.056c-5.042-8.78-9.861-19.52-12.05-35.61Zm26.124 15.897-6.575 18.149L29.355 82C52.118 73.849 69.333 58.732 81 36.648c-1.957.604-3.616 1.1-8.264 2.56-13.054 6.704-24.68 11.536-34.875 14.496Z" fill="#000" fill-rule="nonzero"/><g fill-rule="nonzero"><path d="M.598 1.68c38.255-7.297 64.557 11.424 67.444 13.4-8.589 4.757-7.61 4.212-15.108 8.2-19.632-9.375-36.176-9.816-52.855-6.596-.207-4.786.002-9.49.52-15.005Z" fill="url(#a)" transform="translate(11 13)"/><path d="M.598 1.68c38.255-7.297 64.557 11.424 67.444 13.4-.614 0-1.472-.021-1.96-.06C52.55 13.926 14.12 6.923 3.444 3.12c-.086-.031-1.913-.546-1.95-.58-.348-.318-.524-.49-.896-.86Z" fill="url(#b)" transform="translate(11 13)"/><path d="M.737 24.807c6.045-.947 16.22-2.383 25.317-.914-4.136 11.344-10.08 27.888-13.268 36.524-5.04-8.78-9.86-19.52-12.05-35.61Z" fill="url(#c)" transform="translate(11 13)"/><path d="M.737 24.807c6.045-.947 15.19-2.433 25.316-.913-.789.572-1.234.883-1.336.932-6.107 16.78-10.166 27.883-12.18 33.31-3.544-6.471-7.87-15.651-10.293-29.186a146.47 146.47 0 0 1-.493-3.118c-.15-.145-.487-.486-1.014-1.025Z" fill="url(#d)" transform="translate(11 13)"/><path d="M28.106 42.138 18.354 69C41.117 60.849 58.332 45.732 70 23.648c-13.616 7.935-27.58 14.099-41.893 18.49Z" fill="url(#e)" transform="translate(11 13)"/><path d="m28.106 42.138.913.93c14.018.126 26.749-5.42 38.193-16.642.26-.254.398-.41.699-.715.358-.365.936-.937 2.088-2.063-13.891 8.086-27.856 14.25-41.893 18.49Z" fill="url(#f)" transform="translate(11 13)"/></g><g transform="translate(11.365 27.863)"><mask id="h" fill="#fff"><use xlink:href="#g"/></mask><g mask="url(#h)" fill-rule="nonzero"><path d="m5.486 2.802.371 4.53c6.705-.815 14.126-.742 22.263.216-2.05 5.706-6.045 16.689-11.985 32.947.828 1.464 2.09 2.63 3.788 3.497 2.735-7.317 4.927-13.369 6.576-18.155 13.405-4.022 25.028-8.853 34.868-14.492.55-1.936.585-3.767.109-5.493a1857.315 1857.315 0 0 0-8.886 4.565C37.508 2.85 21.807.313 5.486 2.802Z" fill="#000"/><path d="m0 .924.372 4.53c6.705-.814 14.125-.742 22.262.217-2.05 5.706-6.045 16.688-11.984 32.947.827 1.463 2.09 2.629 3.787 3.497 2.736-7.318 4.928-13.37 6.576-18.155 13.405-4.023 25.028-8.853 34.869-14.492.549-1.937.585-3.768.108-5.494a1857.315 1857.315 0 0 0-8.886 4.565C32.023.974 16.322-1.565 0 .924Z" fill="url(#i)" transform="translate(5.486 1.878)"/></g></g><g transform="translate(11.365 27.863)"><mask id="k" fill="#fff"><use xlink:href="#j"/></mask><g mask="url(#k)" fill-rule="nonzero"><path d="m5.486 2.802.371 4.53c6.705-.815 14.126-.742 22.263.216-2.05 5.706-6.045 16.689-11.985 32.947.828 1.464 2.09 2.63 3.788 3.497 2.735-7.317 4.927-13.369 6.576-18.155 13.405-4.022 25.028-8.853 34.868-14.492.55-1.936.585-3.767.109-5.493a1857.315 1857.315 0 0 0-8.886 4.565C37.508 2.85 21.807.313 5.486 2.802Z" fill="#000"/><path d="m0 .924.372 4.53c6.705-.814 14.125-.742 22.262.217-2.05 5.706-6.045 16.688-11.984 32.947.827 1.463 2.09 2.629 3.787 3.497 2.736-7.318 4.928-13.37 6.576-18.155 13.405-4.023 25.028-8.853 34.869-14.492.549-1.937.585-3.768.108-5.494a1857.315 1857.315 0 0 0-8.886 4.565C32.023.974 16.322-1.565 0 .924Z" fill="url(#i)" transform="translate(5.486 1.878)"/></g></g><path d="M1.494 2.539c35.43-6.85 61.701 10.503 64.589 12.48-5.775 3.514-5.625 3.193-13.188 7.132C33.2 13.05 17.793 12.451 1.04 15.4c-.121-3.412.19-11.068.453-12.86Z" fill="url(#l)" fill-rule="nonzero" transform="translate(11 13)"/><path d="M1.752 25.796c6.046-.947 11.34-1.99 22.98-.975-4.136 11.345-8.997 24.788-12.184 33.424-4.75-8.718-8.805-18.15-10.796-32.45Z" fill="url(#m)" fill-rule="nonzero" transform="translate(11 13)"/><path d="m28.975 43.035-8.867 24.274c20.73-8.395 36.44-22.034 47.13-40.918-13.96 7.734-26.715 13.282-38.263 16.644Z" fill="url(#n)" fill-rule="nonzero" transform="translate(11 13)"/></g></svg>