<svg viewBox="0 0 90 90" xmlns="http://www.w3.org/2000/svg"><g fill="none"><path fill="#000" d="M0 0h90v90H0z"/><path d="M11.616 82.428H42.74v-8.155H25.702v-.265l5.03-4.62C39.849 61.48 42.23 57.454 42.23 52.652 42.23 45.11 36.048 40 26.503 40c-9.3 0-15.521 5.334-15.503 13.856h9.63c0-3.78 2.34-5.967 5.83-5.967 3.427 0 5.914 2.105 5.914 5.559 0 3.127-1.97 5.252-5.42 8.338L11.615 75.152v7.276ZM62.02 83C71.854 83 79 77.911 79 71.106c0-5.192-4.209-9.402-9.445-10.22v-.326c4.557-.858 7.883-4.619 7.883-9.238 0-6.52-6.53-11.322-15.418-11.322-8.89 0-15.421 4.782-15.421 11.322 0 4.62 3.247 8.38 7.888 9.238v.327c-5.32.817-9.445 5.027-9.445 10.219C45.042 77.91 52.185 83 62.02 83Zm0-7.173c-3.735 0-6.324-2.33-6.324-5.539 0-3.27 2.668-5.62 6.324-5.62 3.653 0 6.324 2.37 6.324 5.62 0 3.229-2.608 5.539-6.324 5.539Zm0-18.292c-3.203 0-5.502-2.146-5.502-5.11 0-2.942 2.278-5.006 5.502-5.006 3.224 0 5.504 2.084 5.504 5.007 0 2.984-2.323 5.11-5.504 5.11Z" fill="#FFF"/><path fill="#1875D1" d="M79 6H11v30h68z"/></g></svg>