<svg xmlns="http://www.w3.org/2000/svg" viewBox="0 0 90 90"><defs><radialGradient cx="79.472%" cy="120.876%" fx="79.472%" fy="120.876%" r="97.001%" gradientTransform="matrix(1 0 0 .99142 0 .01)" id="a"><stop stop-color="#2440E6" offset="0%"/><stop stop-color="#5661B3" offset="100%"/></radialGradient><radialGradient cx=".315%" cy="30.674%" fx=".315%" fy="30.674%" r="65.937%" gradientTransform="matrix(1 0 0 .71634 0 .087)" id="b"><stop stop-color="#6574CD" stop-opacity=".5" offset="0%"/><stop stop-color="#6574CD" offset="100%"/></radialGradient></defs><path fill="#FFF" d="M0 0h90v90H0z"/><g transform="translate(19 10)"><ellipse fill="url(#a)" cx="26" cy="26.238" rx="26" ry="26.225"/><path d="M21.53.329C10.919 2.129 2.534 10.389.5 21.048l-.417 1.826-.07 23.598V70H.5l1.95-.14c8.95-1.114 16.084-8.08 17.477-17.067.279-1.896.348-2.599.279-12.783l-.07-10.675.418-1.053c.557-1.405 2.158-3.02 3.551-3.582l1.045-.422h9.678c5.292 0 9.957-.07 10.375-.14a6.44 6.44 0 0 0 4.805-5.268c.208-.913.208-1.194-.07-2.247-.905-3.23-3.9-7.656-7.033-10.254-3.55-2.95-7.45-4.917-11.628-5.9-2.228-.562-7.242-.632-9.748-.14" fill="url(#b)"/></g></svg>