<svg viewBox="0 0 90 90" xmlns="http://www.w3.org/2000/svg"><g fill="none"><path d="M48.56 25.14 48.5 79l-14.51-4.693V11l18.522 4.87c11.857 3.169 19.113 9.329 18.994 20.124C71.39 48.55 65.55 53.595 54.164 50.31V25.55c0-2.992-5.604-3.167-5.604-.41Z" fill="#DE0029"/><path d="m27.324 63.862-6.843 2.289c-4.425 1.526-8.2-2.053-4.13-3.52l3.303-1.174-12.446-3.931C3.373 58.817-.225 61.575.01 65.447c.236 3.93 9.261 4.87 16.222 5.985 6.489 1.055 12.388.469 17.757-1.409v-4.049l-6.666-2.112ZM48.619 79l12.683-4.4L48.5 70.55v8.155l.118.294Z" fill="#F3C202"/><path d="m82.36 67.207.237-.059c5.545-1.935 7.904-4.635 7.315-7.157-.944-4.224-7.728-6.513-18.17-7.276-7.49-.527-14.864 1.115-22.061 3.579l-1.18.411 12.919 3.99 7.55-2.524c7.905-1.466 11.091 1.115 3.48 3.521l-3.775 1.29 13.686 4.225ZM33.99 48.55l-5.723 1.936 5.723 1.76V48.55Z" fill="#326DB3"/><path d="m61.302 74.6 21.059-7.393-13.686-4.225-20.174 6.865v.704L61.3 74.6ZM33.99 61.632l-6.666 2.23 6.666 2.111v-4.341Zm14.51 3.462v-8.39l12.92 3.99-12.92 4.4Zm-28.845-3.638 14.335-5.104v-4.107l-5.723-1.76-20.764 6.982c-.06 0-.177.058-.295.058l12.447 3.931Z" fill="#00AA9E"/></g></svg>