<svg viewBox="0 0 90 90" xmlns="http://www.w3.org/2000/svg"><g fill="none"><path d="M27.819 43.987c-2.663 1.295-.999 5.266.253 6.902C43.316 66.615 70.7 62.848 78.251 42.107 69.504 57.82 46.622 61.18 35.6 45.635c-1.147-1.513-3.415-3.318-5.571-2.58l-2.211.932" fill="#FBB229"/><path d="M68.142 9.524c2.173-1.823 5.558 1.22 6.719 2.972C85.237 32.1 72.287 54.65 49.267 53.05c18.468-1.46 29.513-20.18 17.877-36.043-1.096-1.627-2.113-4.304-.672-5.906l1.67-1.577" fill="#FBB229"/><path d="M76.006 46.813C73.392 58.448 63.233 65.15 52.412 65.44a27.053 27.053 0 0 1-17.577-5.85c-.955-.938-2.293-3.025-1.862-4.593A31.998 31.998 0 0 0 51.8 60.556c1.36.244 2.742.347 4.123.31 8.828-.342 16.642-5.762 20.01-13.88l.106-.175" fill="#F06274"/><path d="M36.748 52.514c1.439-.034 2.92.937 3.82 1.834A19.9 19.9 0 0 0 51.8 60.556a31.998 31.998 0 0 1-18.83-5.545c.122-.49.424-.915.847-1.192l1.756-1.03a2.768 2.768 0 0 1 1.148-.285m39.356-5.87-.026.185-.106.175.146-.358" fill="#EE4823"/><path d="M74.32 41.15a21.928 21.928 0 0 1-5.301 10.594 26.947 26.947 0 0 1-6.747 2.978 19.91 19.91 0 0 0 5.383-6.528 25.432 25.432 0 0 0 6.666-7.045m-8.916-21.487c1.631-.048 3.621 1.415 4.494 2.41l.451.657a20.835 20.835 0 0 1-.728 17.47c.029-4.559-1.732-9.293-5.718-13.435-1.109-1.251-2.243-3.384-1.227-4.904l1.224-1.504a2.02 2.02 0 0 1 1.5-.667" fill="#F06274"/><path d="M69.019 51.744c-3.759 4.108-9.243 6.906-16.106 7.333a22.473 22.473 0 0 0 9.36-4.355 26.947 26.947 0 0 0 6.746-2.978M70.35 22.73a24.539 24.539 0 0 1 3.97 18.42 25.432 25.432 0 0 1-6.665 7.044 17.972 17.972 0 0 0 1.976-8.015 20.835 20.835 0 0 0 .729-17.469" fill="#EE4823"/><path d="M54.346 36.497c2.177-1.999-.573-5.352-2.242-6.54-19.137-10.704-44.28.725-45.502 22.76C10.43 35.15 31.372 25.381 46.42 37.14c1.556 1.117 4.223 2.209 6.079.854l1.848-1.497" fill="#7D55A2"/><path d="M25.656 81.042c-1.557 2.37-5.673.42-7.293-.917C2.766 64.295 8.653 38.99 31.147 33.94c-17.25 6.673-22.414 27.796-6.693 39.65 1.518 1.24 3.278 3.515 2.345 5.465l-1.143 1.988" fill="#7D55A2"/><path d="M7.335 47.549c-.83-11.896 6.987-21.225 17.243-24.61a27.117 27.117 0 0 1 18.509.575c1.19.626 3.079 2.27 3.112 3.87a32.053 32.053 0 0 0-19.631.066 20.19 20.19 0 0 0-4.033.886C14.18 31.184 8.263 38.61 7.383 47.353l-.028.199" fill="#677CBC"/><path d="M10.634 52.514a21.864 21.864 0 0 1 2.022-11.678 26.925 26.925 0 0 1 5.592-4.776 19.834 19.834 0 0 0-3.257 7.794 25.413 25.413 0 0 0-4.357 8.66m14.723 18.032c-1.547.512-3.87-.321-4.994-1.027a16.262 16.262 0 0 1-.61-.498 20.86 20.86 0 0 1-4.352-16.96c1.283 4.412 4.306 8.439 9.345 11.276 1.42.875 3.156 2.592 2.59 4.344l-.734 1.796a2.011 2.011 0 0 1-1.245 1.069" fill="#677CBC"/><path d="M12.632 40.86c2.403-5.008 6.846-9.25 13.3-11.648a22.272 22.272 0 0 0-7.704 6.845 26.924 26.924 0 0 0-5.596 4.803m7.108 28.16a24.615 24.615 0 0 1-9.106-16.506 25.413 25.413 0 0 1 4.357-8.66 17.877 17.877 0 0 0 .41 8.208 20.86 20.86 0 0 0 4.344 16.924" fill="#4453A3"/></g></svg>