<svg viewBox="0 0 90 90" xmlns="http://www.w3.org/2000/svg"><defs><linearGradient x1="50%" y1="100%" x2="50%" y2="0%" id="a"><stop stop-color="#09489B" offset="0%"/><stop stop-color="#0084E9" offset="100%"/></linearGradient></defs><path d="M45 0c24.84 0 45 20.16 45 45S69.84 90 45 90 0 69.84 0 45 20.16 0 45 0Zm0 87.3c23.4 0 42.3-18.9 42.3-42.3S68.4 2.7 45 2.7 2.7 21.6 2.7 45 21.6 87.3 45 87.3Zm0-82.006c21.928 0 39.706 17.778 39.706 39.706 0 21.928-17.778 39.706-39.706 39.706C23.072 84.706 5.294 66.928 5.294 45 5.294 23.072 23.072 5.294 45 5.294Zm0 69.486c16.424 0 29.78-13.355 29.78-29.78 0-16.424-13.355-29.78-29.78-29.78-16.424 0-29.78 13.355-29.78 29.78a29.563 29.563 0 0 0 6.769 18.86V27.405h42.413a6.278 6.278 0 0 1 6.316 6.316V44.55a6.278 6.278 0 0 1-6.316 6.317H42.744l-8.122-8.122H59.89v-7.219H32.817v30.682h-8.754A29.767 29.767 0 0 0 45 74.78Z" fill="url(#a)"/></svg>