<svg xmlns="http://www.w3.org/2000/svg" viewBox="0 0 90 90"><path fill="#FFF" d="M0 0h90v90H0z"/><path d="M30.679 19.232c-3.636 1.67-6.75 3.641-9.127 5.816-5.661 5.034-7.313 11.161-6.248 18.96.991 6.276 3.69 11.867 7.655 16.474l.065.065 6.61-35.156c.33-1.82 1.045-6.16 1.045-6.16Zm26.484 5.816c0-3.438-1.408-7.048-5.523-7.048-4.734 0-9.127 5.377-10.704 13.84l-1.578 9.254c1.407 1.317 3.337 2.12 5.789 2.12 6.76-.01 12.016-9.704 12.016-18.165v-.001Zm13.178-3.749a2.352 2.352 0 0 0-.107-.118v.033c.107.932.17 1.895.17 2.87 0 14.985-9.915 28.728-24.83 28.728-3.508 0-6.494-.878-7.986-1.756l-.16-.096-3.507 18.252.127.065c3.86 2.045 8.157 3.535 12.72 4.391 8.082 1.157 13.669-.675 18.232-6.052 4.595-5.184 7.922-13.668 9.521-23.908 1.237-9.897.16-17.32-4.18-22.408Z" fill="#E41B13"/></svg>