<svg viewBox="0 0 90 90" xmlns="http://www.w3.org/2000/svg"><g fill="none"><path fill="#000" d="M0 0h90v90H0z"/><path d="M27.901 24.382c0 1.473-1.239 2.7-2.725 2.7h-4.46v-5.4h4.542c1.506 0 2.726 1.21 2.726 2.7H27.9Zm3.882 0a6.27 6.27 0 0 0-1.862-4.537 6.39 6.39 0 0 0-4.58-1.844H17v18.163h3.716v-5.4h4.625c3.551 0 6.442-2.864 6.442-6.382Zm9.91 33.545h13.461v-3.6h-9.828V51.3a23.136 23.136 0 0 0 4.377-1.063l1.817-.655-1.321-3.6-1.817.655a20.3 20.3 0 0 1-3.056.818v-3.928h9.828v-3.681H41.61V47.7c-2.23-.245-3.881-1.145-4.955-2.045-1.9-1.637-3.881-4.91-2.477-11.373l.412-1.882-3.798-.818-.413 1.882c-1.404 6.545-.083 11.7 3.716 15.054a12.203 12.203 0 0 0 7.515 2.946v6.545l.083-.082Zm28.574 4.664a7.138 7.138 0 0 1-.33 2.29c-.248.655-.579 1.31-1.074 1.8a4.786 4.786 0 0 1-1.652 1.228 5.498 5.498 0 0 1-4.212 0 4.786 4.786 0 0 1-1.651-1.227c-.413-.491-.826-1.146-.991-1.8a7.14 7.14 0 0 1-.413-2.291c0-.818.165-1.636.413-2.291.248-.736.578-1.31.99-1.882A4.704 4.704 0 0 1 63 57.191a5.831 5.831 0 0 1 4.295 0 4.71 4.71 0 0 1 1.652 1.227 7.156 7.156 0 0 1 1.403 4.091l-.082.082Zm3.716 0a9.274 9.274 0 0 0-2.395-6.79 8.093 8.093 0 0 0-2.808-1.965 9.158 9.158 0 0 0-3.633-.736 9.158 9.158 0 0 0-3.717.736 8.093 8.093 0 0 0-2.807 1.964c-.744.818-1.322 1.882-1.735 3.027-.413 1.146-.578 2.455-.578 3.764 0 1.309.165 2.618.578 3.763.413 1.146.991 2.128 1.735 2.946a8.176 8.176 0 0 0 2.807 1.964 9.41 9.41 0 0 0 3.717.736 9.159 9.159 0 0 0 3.633-.736 8.259 8.259 0 0 0 2.808-1.964c.826-.818 1.404-1.8 1.817-2.946.413-1.145.578-2.454.578-3.763Z" fill="#FFF"/></g></svg>