<svg xmlns="http://www.w3.org/2000/svg" viewBox="0 0 90 90"><path fill="#FFF" d="M0 0h90v90H0z"/><path d="M7.42 62H5V36.74c1.94-.62 3.95-.94 5.99-.95 1.32-.02 2.64.2 3.88.67a8.8 8.8 0 013 1.83c.83.8 1.48 1.76 1.91 2.82.45 1.13.68 2.34.66 3.55 0 1.56-.26 2.9-.8 4A8.03 8.03 0 0114.53 53a11.81 11.81 0 01-5.3.37 16.7 16.7 0 01-1.82-.38V62zm10.26-17.38c0-2.02-.57-3.65-1.7-4.89-1.13-1.24-2.72-1.86-4.78-1.86-.64 0-1.29.04-1.93.13-.63.08-1.25.23-1.85.43v12.33c.57.18 1.15.34 1.73.47.57.12 1.15.18 1.73.19 2.08 0 3.73-.59 4.96-1.76 1.22-1.17 1.84-2.85 1.84-5.04zm7.66 8.74V29h2.45v24.36h-2.45zm22.48-2.53a8.12 8.12 0 01-2.84 2 10 10 0 01-3.88.68 8.83 8.83 0 01-3.68-.72c-1-.44-1.9-1.1-2.63-1.93a8.19 8.19 0 01-1.57-2.79 10.34 10.34 0 01-.53-3.3c-.03-1.36.19-2.71.63-4 .37-1.04.96-1.99 1.72-2.8.7-.73 1.57-1.29 2.52-1.65.98-.36 2-.54 3.04-.53 2.57 0 4.5.78 5.81 2.35 1.31 1.56 1.94 3.84 1.9 6.84H35.17a7.03 7.03 0 001.72 4.7 5.68 5.68 0 004.37 1.74c.96 0 1.91-.16 2.8-.5a6.17 6.17 0 002.28-1.63l1.47 1.54zm-1.96-7.9c0-.7-.11-1.38-.34-2.02-.2-.6-.52-1.14-.94-1.6a4.4 4.4 0 00-1.6-1.07 6.7 6.7 0 00-4.56 0c-.58.23-1.1.58-1.53 1.03a7.08 7.08 0 00-1.64 3.65h10.6zm18.49-2.87a6.14 6.14 0 00-1.99-1.68 5.55 5.55 0 00-2.53-.54c-1.24 0-2.12.22-2.62.66a2.13 2.13 0 00-.75 1.67c-.01.42.1.83.35 1.18.24.34.56.62.91.84.42.25.87.45 1.33.6.5.18 1.02.35 1.56.51.65.2 1.32.44 1.97.68.65.23 1.26.55 1.82.95.54.39 1 .88 1.34 1.44.36.66.54 1.4.51 2.14.01.74-.16 1.47-.51 2.13a4.78 4.78 0 01-1.4 1.58c-.62.45-1.32.78-2.07.98-2.07.54-4.25.42-6.25-.35a8.76 8.76 0 01-3.04-2.25l1.9-1.67a6 6 0 004.96 2.44c1.32 0 2.3-.24 2.93-.73.64-.5.96-1.08.96-1.78.01-.47-.1-.93-.35-1.34a3.08 3.08 0 00-.96-.92c-.43-.27-.9-.49-1.39-.64-.53-.18-1.08-.35-1.67-.5-.66-.2-1.31-.4-1.96-.63a7.21 7.21 0 01-1.74-.9 4.38 4.38 0 01-1.27-1.37 4.12 4.12 0 01-.5-2.12c0-1.53.57-2.72 1.7-3.55a7.12 7.12 0 014.36-1.25c1.16-.02 2.31.2 3.39.63a7.9 7.9 0 012.84 2.2l-1.8 1.63-.03-.04zm6.5 13.3V29.03h2.45v24.33h-2.45zm2.45-8.98l8.4-8.43H85l-8.61 8.36 8.57 9.05h-3.4l-8.26-8.98z"/><path fill="#53BCE6" d="M33.87 62H19.12v-2.29h14.75z"/></svg>