<svg viewBox="0 0 90 90" xmlns="http://www.w3.org/2000/svg"><g fill="none" fill-rule="evenodd"><path fill="#000" d="M0 0h90v90H0z"/><g fill-rule="nonzero"><path d="M20.15 34.081c-2.95 0-4.85.847-6.45 2.841V34.73H8v27.015s.1.05.4.1c.4.1 2.5.548 4.05-.748 1.35-1.146 1.65-2.492 1.65-3.987v-3.89c1.65 1.745 3.5 2.492 6.1 2.492 5.6 0 9.9-4.536 9.9-10.567 0-6.53-4.15-11.065-9.95-11.065Zm-1.1 16.498c-3.15 0-5.65-2.592-5.65-5.732 0-3.09 2.95-5.582 5.65-5.582 3.2 0 5.65 2.442 5.65 5.632 0 3.19-2.5 5.682-5.65 5.682Zm19.15-6.081c0 2.343.25 5.184 2.55 8.274.05.05.15.2.15.2-.95 1.595-2.1 2.691-3.65 2.691-1.2 0-2.4-.648-3.4-1.744-1.05-1.196-1.55-2.742-1.55-4.386V28h5.85l.05 16.498Z" fill="#FFF"/><path fill="#EBAF00" d="M67.15 55.015h-7.1l6.9-10.118-6.9-10.168h7.1L74 44.897z"/><path fill="#FFF" d="M75.85 43.75 82 34.73h-7.1l-2.55 3.738zm-3.5 7.577 1.2 1.645c1.15 1.794 2.65 2.691 4.4 2.691 1.85-.05 3.15-1.644 3.65-2.243 0 0-.9-.797-2.05-2.143-1.55-1.794-3.6-5.084-3.65-5.233l-3.55 5.283ZM54.8 49.184c-1.2 1.096-2 1.694-3.65 1.694-2.95 0-4.65-2.093-4.9-4.386H61.9c.1-.299.15-.698.15-1.346 0-6.33-4.65-11.065-10.75-11.065-5.8 0-10.55 4.835-10.55 10.866 0 5.981 4.75 10.716 10.7 10.716 4.15 0 7.75-2.342 9.7-6.48H54.8Zm-3.45-10.318c2.6 0 4.55 1.695 5 3.938h-9.9c.5-2.343 2.35-3.938 4.9-3.938Z"/></g></g></svg>