<svg xmlns="http://www.w3.org/2000/svg" viewBox="0 0 90 90"><path fill="#FFF" d="M0 0h90v90H0z"/><path d="M41.16 56.837v4.036c0 .81.314 1.587.877 2.16a2.97 2.97 0 0 0 2.12.895h11.422c1.692 0 3.158-1.316 3.158-3.042v-4.049h4.153v4.04c0 4.066-3.36 7.177-7.311 7.174l-3.902-.002h-3.594c-1.218 0-2.492 0-3.926.002-3.805.003-7.15-3.308-7.145-7.165v-4.049h4.148Zm4.648-35.836h1.536l.739.001h4.33l1.527-.001L55.58 21c3.949-.003 7.31 3.107 7.31 7.174v4.04h-4.153v-4.05c0-1.725-1.466-3.041-3.158-3.041H44.157a2.97 2.97 0 0 0-2.12.895 3.08 3.08 0 0 0-.877 2.16v4.036h-4.148v-4.05c-.005-3.856 3.34-7.167 7.145-7.164l1.65.001h.001Z" fill="#4574EB"/><path d="M49.949 36.08c2.583 0 4.828.786 6.543 2.284l-2.27 3.02c-1.352-1.13-3.115-1.694-4.708-1.694-1.207 0-1.738.49-1.738 1.178 0 2.087 9.102.565 9.102 6.654 0 3.29-2.39 5.475-6.712 5.475-3.26 0-5.53-1.031-7.147-2.603l2.197-3.167a7.217 7.217 0 0 0 5.143 2.16c1.425 0 2.294-.564 2.294-1.35 0-2.234-9.127-.442-9.127-6.752 0-2.75 2.294-5.205 6.423-5.205Zm23.42-.024c4.925 0 8.595 3.486 8.595 8.47 0 4.985-3.67 8.471-8.595 8.471-4.926 0-8.62-3.486-8.62-8.47 0-4.985 3.694-8.471 8.62-8.471Zm-56.305.27c3.621 0 5.601 2.48 5.601 5.45 0 2.877-1.886 5.308-5.345 5.422l-.256.005h-3.912v5.5H9V36.325h8.065l-.001.001Zm11.613 0V49.02h6.47v3.682H24.525V36.327h4.153l-.001-.001Zm12.483 0v16.376h-4.153V36.327h4.153v-.001Zm21.73 0v16.376h-4.153V36.327h4.153v-.001Zm10.479 3.462c-2.68 0-4.395 2.062-4.395 4.738 0 2.652 1.715 4.739 4.395 4.739 2.656 0 4.37-2.087 4.37-4.739 0-2.676-1.714-4.738-4.37-4.738Zm-56.86.22h-3.358v3.512h3.356c1.111 0 1.932-.639 1.932-1.743 0-1.13-.821-1.768-1.932-1.768l.002-.001Z" fill="#2B2D31"/></svg>