<svg viewBox="0 0 90 90" xmlns="http://www.w3.org/2000/svg"><g fill="none"><path fill="#1852DB" d="M0 0h90v90H0z"/><path d="M51.139 21.46c3.16.36 5.433 1.177 7.38 2.659.607.457 1.552 1.415 2.032 2.053 1.437 1.916 2.21 4.026 2.554 6.945.105.932.105 3.376 0 4.308-.255 2.18-.713 3.776-1.543 5.368-1.737 3.327-4.779 5.407-8.92 6.105-1.613.269-1.182.26-10.084.273l-8.145.018v19.249h-6.286V21.354l11.178.017c10.203.014 11.232.018 11.834.088Z" fill="#FFF"/><path d="M34.413 35.271v8.638h6.673c4.03 0 6.91-.017 7.284-.044 2.259-.162 4.017-.677 5.385-1.574.518-.342 1.437-1.266 1.797-1.81.638-.955 1.042-2.05 1.266-3.407.115-.7.115-2.906 0-3.605-.312-1.873-.958-3.231-2.074-4.352-.554-.554-1.064-.914-1.847-1.301-1.288-.642-2.84-1.007-4.835-1.139-.391-.026-3.323-.044-7.152-.044h-6.497v8.638Z" fill="#1852DB"/></g></svg>