<svg width="90" height="90" viewBox="0 0 90 90" xmlns="http://www.w3.org/2000/svg"><g fill="none" fill-rule="evenodd"><rect fill="#4F42C3" width="90" height="90"/><path d="M49.319094,44.2035906 C51.7605705,43.356745 53.5113423,41.0572148 53.5113423,38.3535906 C53.5113423,34.9308725 50.7050336,32.1559732 47.2433557,32.1559732 L34.7315436,32.1559732 C33.5639597,32.1559732 32.6174497,31.2094631 32.6174497,30.0417886 L32.6174497,25.0671141 C32.6174497,23.8995302 33.5639597,22.9530201 34.7315436,22.9530201 L47.2433557,22.9530201 C55.845302,22.9530201 62.8187919,29.8901779 62.8187919,38.4475168 C62.8187919,46.2935235 56.9567114,52.7774497 49.3520134,53.8012752 C48.195,53.9571141 47.2433557,52.9958054 47.2433557,51.8282215 L47.2433557,46.665604 C47.2433557,45.4980201 48.2158389,44.5862416 49.319094,44.2035906 Z M34.7315436,37.3971141 C33.5639597,37.3971141 32.6174497,38.3436242 32.6174497,39.5112081 L32.6174497,64.9591611 C32.6174497,66.126745 33.5639597,67.073255 34.7315436,67.073255 L39.9575839,67.073255 C41.1251678,67.073255 42.0716779,66.126745 42.0716779,64.9591611 L42.0716779,39.5112081 C42.0716779,38.3436242 41.1251678,37.3971141 39.9575839,37.3971141 L34.7315436,37.3971141 Z" fill="#FFF"/></g></svg>