<svg xmlns="http://www.w3.org/2000/svg" viewBox="0 0 90 90"><path fill="#FFF" d="M0 0h90v90H0z"/><g fill="#0045DB"><path d="M42.167 43.987a4.933 4.933 0 0 1-1.35-2.546 4.905 4.905 0 0 1 .308-2.865 4.95 4.95 0 0 1 4.635-2.996 4.884 4.884 0 0 1 3.484 1.451 4.876 4.876 0 0 1 1.223 4.909 3.458 3.458 0 0 0 2.254 4.496c.453.135.926.176 1.394.124a3.425 3.425 0 0 0 1.332-.44 3.51 3.51 0 0 0 1.05-.93c.281-.378.484-.81.592-1.267a11.822 11.822 0 0 0-1.83-10.45 11.883 11.883 0 0 0-9.484-4.796 11.676 11.676 0 0 0-8.385 3.439 11.83 11.83 0 0 0-3.47 8.365 11.83 11.83 0 0 0 3.47 8.366l15.424 15.46a3.37 3.37 0 0 0 1.118.75c.42.177.866.267 1.32.267a3.483 3.483 0 0 0 2.449-1.001c.322-.319.577-.698.753-1.114.177-.416.267-.866.267-1.316 0-.454-.087-.9-.26-1.32a3.414 3.414 0 0 0-.745-1.121l-15.552-15.48.003.015Z"/><path d="m27.673 22.275-.109.124A25.63 25.63 0 0 0 20 40.496a25.624 25.624 0 0 0 7.46 18.142l15.424 15.48c.66.588 1.518.903 2.404.88a3.461 3.461 0 0 0 3.37-3.352 3.459 3.459 0 0 0-.873-2.403L32.342 53.71a18.715 18.715 0 0 1-5.464-13.21c0-4.95 1.965-9.701 5.464-13.211a18.82 18.82 0 0 1 13.298-5.434A18.812 18.812 0 0 1 58.9 27.38a19.449 19.449 0 0 1 1.924 23.86 3.462 3.462 0 0 0-.37 2.543 3.47 3.47 0 0 0 6.19 1.204 26.19 26.19 0 0 0 4.257-16.732 26.202 26.202 0 0 0-7.091-15.746A25.796 25.796 0 0 0 45.786 15a25.77 25.77 0 0 0-18.113 7.275Z"/></g></svg>