<svg viewBox="0 0 90 90" xmlns="http://www.w3.org/2000/svg" xmlns:xlink="http://www.w3.org/1999/xlink"><defs><linearGradient x1="0%" y1="0%" x2="100%" y2="0%" id="e"><stop stop-color="#FFF" stop-opacity=".75" offset="0%"/><stop stop-color="#FFF" stop-opacity="0" offset="20%"/><stop stop-color="#004000" stop-opacity="0" offset="80%"/><stop stop-color="#004000" stop-opacity=".5" offset="100%"/></linearGradient><circle id="c" cx="52.105" cy="52.105" r="52.105"/><path d="M33.158 71.053c18.947 0 33.158-14.21 33.158-30.79C66.316 21.316 47.368 0 33.158 0S0 21.316 0 40.263c0 16.58 14.21 30.79 33.158 30.79Z" id="a"/></defs><g fill="none" fill-rule="evenodd"><path fill="#004000" fill-rule="nonzero" d="M0 0h90v90H0z"/><path fill="#E2FFCD" fill-rule="nonzero" d="M0 0h90v90H0z"/><g transform="translate(11.842 9.474)"><mask id="b" fill="#fff"><use xlink:href="#a"/></mask><g mask="url(#b)"><g transform="translate(-18.947 -48.553)"><path fill="#D5CDA4" fill-rule="nonzero" d="M14.211 46.184H90v75.789H14.211z"/><circle fill="#83B46A" fill-rule="nonzero" cx="36.711" cy="111.316" r="8.289"/><path d="M63.947 93.553c0-7.106 4.737-11.842 9.474-11.842s9.474 7.105 9.474 11.842c0 4.736-4.737 11.842-9.474 11.842s-9.474-4.737-9.474-11.842Z" fill="#83B46A" fill-rule="nonzero"/><mask id="d" fill="#fff"><use xlink:href="#c"/></mask><g mask="url(#d)"><g transform="translate(14.21 46.184)" fill-rule="nonzero"><path fill="#FFF6DE" d="M0 0h75.789v75.789H0z"/><path d="M49.737 47.368c0-7.105 4.737-11.842 9.474-11.842 4.736 0 9.473 7.106 9.473 11.842 0 4.737-4.737 11.843-9.473 11.843-4.737 0-9.474-4.737-9.474-11.843Z" fill="#9CCD83"/><circle fill="#9CCD83" cx="42.632" cy="35.526" r="4.737"/><path d="M14.21 42.632c9.474 0 11.843-4.737 11.843-9.474 0-7.105-11.842-16.58-18.948-16.58C2.368 16.579 0 26.054 0 30.79c0 4.737 9.474 11.843 14.21 11.843Z" fill="#9CCD83"/></g></g><ellipse fill="#FFF" fill-rule="nonzero" cx="52.105" cy="53.289" rx="14.211" ry="7.105"/></g></g></g><path d="M45 80.526c18.947 0 33.158-14.21 33.158-30.79C78.158 30.79 59.21 9.475 45 9.475S11.842 30.79 11.842 49.738c0 16.579 14.21 30.79 33.158 30.79Z" stroke="#181818" stroke-width="2"/><path fill="url(#e)" fill-rule="nonzero" d="M0 0h90v90H0z"/><path d="M90 0v90H0V0h90ZM68.816 2.184H21.184c-10.493 0-19 8.507-19 19v47.632c0 10.493 8.507 19 19 19h47.632c10.493 0 19-8.507 19-19V21.184c0-10.493-8.507-19-19-19Z" fill="#004000" fill-rule="nonzero"/></g></svg>