<svg viewBox="0 0 90 90" xmlns="http://www.w3.org/2000/svg"><path d="M7.26 30.874c.594.001 1.177.17 1.682.487l8.96 5.625a3.222 3.222 0 0 1 1.504 2.76l-.189 20.61a3.22 3.22 0 0 0 1.562 2.795l18.37 10.992a3.22 3.22 0 0 1 1.561 2.75l.044 9.877c.008 1.776-1.415 3.222-3.178 3.23a3.174 3.174 0 0 1-1.605-.428L5.601 71.979A3.22 3.22 0 0 1 4 69.185l.062-35.1c.003-1.777 1.434-3.214 3.197-3.21Zm78.243 1.402c.284.49.434 1.047.435 1.615L86 69.185a3.22 3.22 0 0 1-1.6 2.794L54.195 89.476a3.18 3.18 0 0 1-4.359-1.185 3.235 3.235 0 0 1-.423-1.711l.356-10.632a3.22 3.22 0 0 1 1.62-2.691L69.2 63.117a3.22 3.22 0 0 0 1.622-2.76l.264-21.524a3.22 3.22 0 0 1 1.583-2.738l8.468-4.976a3.179 3.179 0 0 1 4.365 1.157ZM46.61 29.874l12.793 7.508a3.181 3.181 0 0 1 1.571 2.743v15.107a3.181 3.181 0 0 1-1.571 2.744L46.61 65.484a3.181 3.181 0 0 1-3.22 0l-12.793-7.508a3.181 3.181 0 0 1-1.571-2.744V40.125c0-1.128.598-2.172 1.571-2.743l12.793-7.508a3.181 3.181 0 0 1 3.22 0ZM46.6.434l30.143 17.604a3.229 3.229 0 0 1-.099 5.62l-9.316 5.005a3.171 3.171 0 0 1-3.124-.067l-17.622-10.47a3.171 3.171 0 0 0-3.183-.035L24.765 28.62a3.171 3.171 0 0 1-3.145-.012l-8.512-4.9a3.229 3.229 0 0 1-.017-5.574L43.399.434a3.171 3.171 0 0 1 3.202 0Z" fill="#FC5850" fill-rule="evenodd"/></svg>