<svg viewBox="0 0 90 90" xmlns="http://www.w3.org/2000/svg"><path d="m78.44 72.598 5.93-6.025-21.558-21.667-5.93 6.025L78.44 72.598Zm9.248-36.45-1.006-8.352-30.252 3.442.955 8.404 30.303-3.494ZM65.174 6.128l-7.136-4.454-16.182 25.92 7.136 4.454 16.182-25.92ZM27.835 5.116l-7.89 2.835 10.001 28.957 7.89-2.835-10-28.957ZM3.764 33.87 1 41.87l28.695 10.175 2.764-7.998L3.764 33.87Zm7.287 36.905 4.472 7.138 25.83-16.25-4.472-7.138-25.83 16.25ZM44.218 88.09l8.342.91 3.518-30.476-8.342-.91-3.518 30.475Zm23.318-65.052c-2.915-2.126-3.518-6.227-1.407-9.112a6.42 6.42 0 0 1 9.045-1.418c2.915 2.126 3.518 6.227 1.407 9.112-2.06 2.937-6.13 3.595-9.045 1.418Zm-25.077-9.214c-3.467.962-7.035-1.113-7.94-4.606-.904-3.494 1.106-7.088 4.573-8 3.468-.91 7.036 1.115 7.94 4.608.905 3.493-1.105 7.036-4.573 7.998ZM19.594 27.796c-1.407 3.29-5.227 4.809-8.543 3.391-3.317-1.417-4.774-5.264-3.367-8.606 1.407-3.34 5.226-4.809 8.543-3.392 3.317 1.418 4.824 5.265 3.367 8.607Zm-3.367 26.678c1.658 3.19.502 7.138-2.664 8.86-3.166 1.721-7.085.506-8.794-2.683-1.709-3.19-.503-7.138 2.663-8.86a6.506 6.506 0 0 1 8.795 2.683ZM34.82 73.813c3.517.658 5.83 4.1 5.176 7.644a6.51 6.51 0 0 1-7.589 5.214c-3.517-.658-5.829-4.1-5.176-7.644a6.51 6.51 0 0 1 7.589-5.214Zm26.684-2.633c2.714-2.379 6.785-2.075 9.146.659 2.363 2.733 2.06 6.834-.653 9.213-2.713 2.38-6.784 2.076-9.146-.658-2.312-2.683-2.06-6.834.653-9.214ZM76.03 48.602a6.498 6.498 0 0 1 6.231-6.784c3.568-.151 6.583 2.633 6.734 6.278.15 3.645-2.613 6.631-6.231 6.783a6.556 6.556 0 0 1-6.734-6.277Z" fill="#2FABE1"/></svg>