<svg viewBox="0 0 90 90" xmlns="http://www.w3.org/2000/svg"><g fill="none" fill-rule="evenodd"><path fill="#FF9200" d="M0 0h90v90H0z"/><path d="M8.92 26.543V66h10.035V54.461h6.781c2.935 0 5.487-.57 7.657-1.709 2.169-1.14 3.85-2.753 5.044-4.84 1.195-2.087 1.792-4.534 1.792-7.342v-.054c0-2.826-.597-5.282-1.791-7.37-1.195-2.087-2.876-3.71-5.045-4.867-2.17-1.157-4.722-1.736-7.657-1.736H8.92Zm10.035 7.71h4.375c2.115 0 3.769.53 4.963 1.587s1.791 2.616 1.791 4.676v.054c0 2.042-.597 3.6-1.791 4.676s-2.848 1.613-4.963 1.613l-4.375.001V34.254ZM55.021 66V50.113h15.723V66H80.78V26.543H70.744v15.504H55.021V26.543H44.986V66h10.035Z" fill="#000" fill-rule="nonzero"/></g></svg>