<svg viewBox="0 0 90 90" xmlns="http://www.w3.org/2000/svg"><g fill="none"><path fill="#FFF" d="M0 0h90v90H0z"/><path d="m62.416 0 .351.002c8.486.102 16.059 3.178 21.515 10.176 2.582 3.311 2.82 9.674 1.29 17.156l-.19.885a64.267 64.267 0 0 1-.54 2.254l-.243.916c-.084.307-.17.614-.26.923l-.274.93a79.142 79.142 0 0 1-1.244 3.769l-.347.951c-.295.794-.605 1.59-.928 2.388l-.395.956a88.642 88.642 0 0 1-1.045 2.389l-.44.953-.452.95c-.153.316-.308.632-.465.947l-.477.943-.243.47-.495.935c-.25.466-.504.93-.763 1.392l-.218.385.246-.028c.653-.08 1.373-.196 2.159-.35l.399-.081c2.228-.462 4.001-.401 5.672.874 1.43 1.09 2.11 2.785 1.947 4.49-.099 1.038-.469 1.919-1.01 2.737-1.232 1.865-3.694 3.706-6.488 5.008-2.607 1.215-6.574 1.904-9.91 1.82l-.428-.016-.041.353-.022.751-.036.935c-.013.308-.028.612-.044.911l-.054.887-.061.863-.035.422-.075.829c-.026.272-.054.54-.084.805l-.093.782c-1.367 10.801-5.434 15.074-13.557 16.901l-.298.066c-6.21 1.335-10.536-1.022-12.732-5.646-.237-.5-.436-.99-.63-1.532l-.32-.95-.186-.554a15.37 15.37 0 0 1-.555-1.888l-.113-.523-.103-.546-.095-.574c-.03-.195-.059-.396-.086-.601l-.079-.632c-.037-.323-.072-.66-.105-1.008l-.062-.717-.082-1.145-.05-.813-.044-.855-.06-1.368-.077-2.451-.265.09c-.56.181-1.134.328-1.718.443l-.351.064c-2.604.447-5.052.227-7.472-.38-1.603-.403-3.146-1.103-4.308-2.176l-.14-.134-.131.095c-3.63 2.536-7.817 2.109-11.28-1.128l-.206-.197c-2.73-2.664-5.062-7.063-7.218-12.948a84.854 84.854 0 0 1-.791-2.264l-.31-.945-.308-.963-.302-.98-.297-.992c-.05-.166-.098-.333-.147-.5l-.288-1.006-.283-1.012-.138-.508-.272-1.016-.263-1.015-.256-1.011-.247-1.005-.237-.995-.228-.983-.217-.968-.206-.95-.195-.93-.182-.906-.17-.88-.158-.852-.143-.82-.13-.785-.114-.748-.1-.708c-.015-.114-.03-.227-.043-.338l-.076-.642-.06-.596a20.723 20.723 0 0 1-.056-.799C-.737 9.554 7.085 1.622 19.589 1.206c3.95-.131 8.063.49 12.13 1.597a51.28 51.28 0 0 1 2.099.618l.575.188.354-.198C37.73 1.795 41.184.948 45.07.942l.488.004c1.953.032 3.801.18 5.55.443l.674.109.092-.03C54.305.732 58.233.053 61.969.004L62.416 0Zm.244 9.03a28.96 28.96 0 0 0-6.376.654 25.54 25.54 0 0 0-1.896.48l-.33.103-.327.178-1.662.308-.864-.18c-1.734-.36-3.66-.565-5.795-.6-3.116-.051-5.54.676-7.475 2.063l-.239.177-2.051 1.561-2.508-1.035-.417-.158-.447-.16a41.878 41.878 0 0 0-2.908-.904c-3.273-.891-6.542-1.385-9.479-1.287-7.62.253-11.38 4.066-10.847 14.757.007.13.016.267.028.414l.043.463.027.25.066.534.038.283.088.598.101.638.115.675.127.709.214 1.122.158.783.168.808.18.83.286 1.282.1.435.209.881.216.893.224.902.233.909.239.912.246.913.251.911.258.908.263.9.267.89.272.88c.045.144.09.289.137.433l.276.855.28.836.282.815c.095.268.19.531.284.79l.315.843c.262.69.526 1.347.79 1.973l.317.734c1.265 2.872 2.518 4.962 3.622 6.04.073.07.14.132.203.187l.069.057.075-.068c.1-.094.21-.21.33-.346l.123-.145a191.713 191.713 0 0 1 5.298-6.111l1.184-1.3 1.205-1.297 2.602-2.748 3.147 2.098c.667.445 1.387.73 2.131.847l.045.006 7.383-6.32-.92 9.452 10.409-14.623-5.466 21.996.045.157c.167.602.285 1.276.386 2.043l.064.527.05.482.044.505.039.534.034.57.03.614.054 1.388.103 3.382.052 1.17.038.73.063 1.018.07.93.05.57.053.532.057.494.06.458.064.42.068.385c.08.427.169.782.265 1.069l.25.727.236.714.068.196.126.343c.062.159.121.298.182.426l.098.197c.335.646.642.837 1.718.677l.33-.055.181-.034.4-.082.564-.126.515-.124.47-.124c1.719-.478 2.504-.992 3.175-1.95.334-.478.641-1.074.918-1.798l.148-.408c.096-.28.188-.578.276-.894l.13-.487c.062-.25.122-.51.18-.781l.112-.556.106-.584.05-.302.095-.627c.03-.214.06-.432.088-.656l.08-.685.038-.354.069-.73.062-.762.054-.792.024-.408.043-.839.034-.871.014-.448.012-.456 4.492.109-4.461-.537.244-2.057c.525-4.093 2.257-6.32 5.371-6.693l.097-.01-.06-.108a5.549 5.549 0 0 1-.516-1.315l-.05-.219-.375-1.853 1.053-1.568c4.667-6.95 8.335-15.245 10.286-22.824l.175-.699.083-.345.156-.68.144-.668.067-.328.126-.646.115-.63.103-.615.048-.3.086-.589.076-.57.034-.278.06-.541.05-.521.04-.5.03-.477.02-.455.011-.431.002-.407c0-.066 0-.13-.002-.194l-.01-.369-.02-.342-.027-.315c-.069-.651-.193-1.105-.362-1.322-3.601-4.618-8.58-6.64-14.538-6.712Z" fill="#000"/><path d="M80.267 54.631c-9.946 2.06-10.63-1.32-10.63-1.32C80.14 37.67 84.53 17.818 80.74 12.959 70.405-.295 52.514 5.973 52.215 6.136l-.096.017c-1.965-.41-4.164-.653-6.636-.694-4.5-.074-7.914 1.184-10.505 3.156 0 0-31.916-13.197-30.432 16.597.316 6.339 9.052 47.96 19.471 35.388a192.913 192.913 0 0 1 7.488-8.484c1.828 1.219 4.016 1.84 6.31 1.617l.177-.152c-.055.571-.03 1.13.072 1.79-2.684 3.01-1.896 3.539-7.261 4.647-5.43 1.123-2.24 3.123-.158 3.645 2.525.634 8.366 1.532 12.312-4.013l-.157.632c1.052.846 1.79 5.5 1.666 9.719-.123 4.219-.206 7.115.623 9.378.828 2.262 1.654 7.353 8.708 5.836 5.894-1.268 8.949-4.553 9.374-10.033.301-3.896.984-3.32 1.027-6.804l.547-1.649c.631-5.28.1-6.985 3.732-6.192l.882.078c2.673.122 6.171-.432 8.224-1.39 4.421-2.059 7.043-5.497 2.684-4.594Z" fill="#336791"/><path d="M43.422 56.305c.745.02 1.332.644 1.311 1.392l-.024.921-.029 1.372-.02 1.356-.015 1.777-.002.872.006 1.709.013 1.245.013.81.016.793.03 1.156.052 1.473.046 1.047.035.669.038.644.04.62.066.877.073.814.052.505.054.474.057.442.06.408.061.374.065.339.066.302.07.264c.035.122.071.23.108.323 1.628 4.085 3.65 5.794 8.529 4.745 5.127-1.104 6.993-2.971 7.873-7.771l.086-.494.079-.49.176-1.163.246-1.734.317-2.365.377-2.944.398-3.288.287-2.517.15-1.44.08-.863.013-.17a1.35 1.35 0 0 1 1.446-1.249c.743.056 1.3.706 1.245 1.452l-.04.473-.1 1.034-.202 1.873-.3 2.57-.3 2.457-.362 2.841-.296 2.218-.188 1.348-.175 1.199-.158 1.013-.071.425c-1.047 6.094-3.714 8.877-10.016 10.233-3.586.771-6.392.156-8.47-1.6-1.457-1.233-2.272-2.636-3.13-4.787a4.872 4.872 0 0 1-.134-.388l-.085-.304a11.453 11.453 0 0 1-.12-.522l-.077-.391-.074-.425a24.71 24.71 0 0 1-.035-.224l-.068-.472a33.708 33.708 0 0 1-.033-.248l-.063-.518-.06-.547-.082-.874-.075-.935-.045-.655-.062-1.028-.054-1.08-.045-1.13-.038-1.175-.029-1.217-.026-1.683-.012-1.745v-.91c.004-1.99.035-4.07.094-6.197a1.351 1.351 0 0 1 1.387-1.316ZM19.628 4.19c3.61-.13 7.441.438 11.243 1.463 1.197.323 2.303.669 3.295 1.015l.719.26.452.173.102.04c.69.284 1.02 1.075.739 1.767a1.348 1.348 0 0 1-1.76.741l-.284-.11-.398-.15-.458-.163a44.896 44.896 0 0 0-3.107-.957c-3.563-.96-7.141-1.491-10.445-1.371C10.388 7.236 5.2 12.51 5.823 25.02c.007.14.017.29.03.448l.045.497.06.545.037.289.083.61.098.652.112.69.125.725.138.757.15.788.163.815.174.84.28 1.3.304 1.341.214.913.223.923.232.933.24.939.246.942.254.943.26.942.266.937.27.93.277.92.28.907.285.893.144.44.29.865.145.424.293.832.148.406c1.876 5.123 3.862 8.87 5.805 10.765 1.853 1.808 3.388 1.79 5.266-.384l.15-.176a176.97 176.97 0 0 1 5.092-5.871l.847-.929 1.375-1.475a1.346 1.346 0 0 1 1.908-.04c.538.517.556 1.374.04 1.914l-.587.624-.492.53-.53.578-.564.62a177.422 177.422 0 0 0-4.185 4.787l-.83.993c-2.961 3.573-6.35 3.718-9.371.771-2.307-2.25-4.452-6.298-6.457-11.772l-.303-.844-.3-.867-.299-.89-.294-.909-.29-.925-.287-.94-.42-1.429-.408-1.445-.263-.969a148.95 148.95 0 0 1-.13-.484l-.377-1.451-.241-.963-.234-.955-.224-.944-.319-1.393-.2-.909-.096-.447-.184-.878-.172-.855-.16-.83-.149-.8-.135-.77-.122-.735-.108-.7-.093-.659-.079-.618-.063-.574a20.188 20.188 0 0 1-.078-1.003C2.427 11.09 8.829 4.583 19.628 4.191Zm42.349-1.152c7.868-.074 14.795 2.6 19.756 8.962 2.047 2.625 2.083 8.3.574 15.134l-.21.918-.23.931a73.347 73.347 0 0 1-1.736 5.797l-.349.992-.364.997-.38 1c-2.135 5.513-4.98 11.153-8.352 16.175a1.346 1.346 0 0 1-1.873.366 1.357 1.357 0 0 1-.364-1.88 69.68 69.68 0 0 0 1.952-3.083l.532-.904.262-.456.515-.917.253-.462.496-.928c.245-.465.486-.933.722-1.402l.465-.941c.153-.314.304-.629.453-.944l.439-.946c.144-.316.286-.632.426-.947l.413-.948.4-.947.385-.945.187-.472.364-.94.35-.938.336-.93a77.392 77.392 0 0 0 1.324-4.101l.252-.885c.162-.586.314-1.164.456-1.734l.204-.847c1.434-6.157 1.544-11.129-.027-13.144-4.387-5.626-10.511-7.989-17.606-7.923-2.468.023-4.86.346-7.038.857l-.311.075-.587.15-.534.15-.244.073-.327.104-.184.063-.071.034-.15.053-.164.042-.21.023-.06.017-.053.01a.323.323 0 0 1-.162-.039l-.097-.05-.205-.126-.566-.373-.106-.304-.077-.235c-.094-.309-.092-.442-.01-.658l.107-.253.148-.21.057-.07.093-.088.317-.208.042-.02a.314.314 0 0 1 .012-.002l.095-.038.173-.064.345-.115.258-.081.564-.166a35.006 35.006 0 0 1 8.92-1.26Z" fill="#FFF"/><path d="M45.435 3.98c8.887.147 15.854 4.14 20.86 10.563 1.792 2.299 3.21 4.78 4.17 7.095.384.927.672 1.78.835 2.452.083.343.134.639.147.89.01.195.002.375-.044.566-.11.458-.392.876-.945 1.043l-.144.037-.487.01c-4.969-.798-7.655-.077-8.639 1.68-.853 1.526-.633 4.097.561 7.449.527 1.477 1.221 3.053 2.071 4.751l.333.648.78 1.465 1.874 3.482.22.426.052.113c.267.65.575 1.246.932 1.82l.222.344.203.26.376.495.393.53.282.393.285.407.276.409.256.396c.24.386.433.734.523.982l.037.122.03.044a.99.99 0 0 0 .166.168l.083.063c.966.702 2.991.995 6.369.522l.649-.097c.554-.09 1.142-.198 1.764-.327 2.998-.621 4.935.858 3.347 3.261-.86 1.303-2.876 2.81-5.19 3.89-.971.452-2.108.816-3.305 1.08l-.516.106c-4.59.884-9.826.284-9.987-2.55-.178-3.135.828-4.984 2.767-5.858.188-.086.379-.159.584-.228l.208-.066-.14-.197-.882-1.19-.647-.863-.133-.186-.045-.065a15.087 15.087 0 0 1-1.23-2.23l-.185-.432-.332-.629-1.882-3.48-.62-1.173-.328-.64c-.896-1.789-1.633-3.46-2.2-5.054-1.436-4.026-1.714-7.29-.374-9.687 1.453-2.596 4.542-3.7 9.285-3.294l.251.022-.008-.025a18.894 18.894 0 0 0-.282-.75l-.108-.264c-.869-2.097-2.166-4.366-3.804-6.467C59.635 10.394 53.4 6.82 45.39 6.689c-7.839-.13-12.676 3.95-15.29 11-.871 2.35-1.428 4.881-1.727 7.435-.11.932-.178 1.814-.213 2.625l-.015.434-.008.378-.002.32.002.184c.02.75-.569 1.372-1.314 1.391a1.351 1.351 0 0 1-1.374-1.188l-.01-.142-.003-.23.006-.566.013-.451c.002-.08.006-.162.01-.247.037-.875.11-1.823.228-2.825.323-2.754.924-5.491 1.878-8.062 2.937-7.924 8.59-12.77 17.464-12.768l.4.004ZM69.56 55.279l-.143-.11-.084.03-.71.207c-.188.058-.34.113-.477.175-.804.363-1.228 1.056-1.196 2.78l.009.294.052.032c.072.04.169.083.287.125l.126.042c.657.205 1.647.312 2.817.299 2.4-.027 5.13-.544 6.703-1.277 1.21-.564 2.312-1.265 3.093-1.91l.067-.058-.035.008c-5.16 1.021-8.478.73-10.367-.538l-.142-.1Zm-32.572-.934-.279.32-.319.382-.446.544-.96 1.19c-.526.594-.993.875-2.179 1.226l-.417.117-.23.06-.5.122-.565.128-.633.134c-2.55.528-3.966 1.348-4.074 2.84-.092 1.287.852 2.184 2.283 2.872l.206.096c.46.204.928.366 1.373.477 5.25 1.319 10.168.474 13.737-4.541 1.667-2.342.297-6.053-2.24-7.108-1.781-.74-3.192-.617-4.757 1.141Zm3.724 1.361c1.018.424 1.672 2.195 1.077 3.032-2.784 3.912-6.593 4.566-10.887 3.488a5.802 5.802 0 0 1-.917-.32l-.169-.077-.152-.077-.142-.08-.04-.024.124-.047c.354-.13.82-.26 1.399-.38.238-.049.463-.097.678-.144l.61-.139a23.17 23.17 0 0 0 1.275-.333c1.65-.488 2.555-1.033 3.433-2.026l1.264-1.556.555-.666.18-.207c.57-.641.806-.76 1.347-.584l.233.086.132.054Z" fill="#FFF"/><path d="m41.122 48.009-.317.73c-.03.07-.057.139-.084.205l-.148.383-.509 1.393-.246.7-.141.415-.124.379-.107.345a16.23 16.23 0 0 0-.048.162l-.083.301-.068.277a6.54 6.54 0 0 0-.054.254l-.04.236-.028.22-.016.208c-.005.1-.006.199-.003.295l.011.191.01.096.025.19a1.35 1.35 0 1 1-2.667.41l-.04-.277-.013-.12h-.041c-6.746-.26-12.072-6.777-11.185-14.199l.034-.269c.407-2.916.472-5.628.335-8.668l-.127-2.362-.01-.322v-.088c.007-.957 1.338-2.102 3.157-3.061l.428-.218a18.85 18.85 0 0 1 1.366-.603l.475-.18a18.566 18.566 0 0 1 2.178-.653c4.809-1.114 8.566.343 9.585 5.071 1.64 7.608 1.21 12.163-.762 16.872l-.316.729-.427.958Zm-1.864-2.458c1.862-4.306 2.286-8.316.732-15.528-.64-2.972-2.826-3.819-6.342-3.005-1.428.33-2.94.936-4.196 1.638-.453.253-.843.504-1.13.72l-.134.106-.039.032.086 1.497c.175 3.242.15 6.114-.228 9.186l-.094.713c-.829 5.95 3.344 11.15 8.545 11.382l.245.007.108-.376.121-.393.067-.208.228-.676.368-1.04.448-1.222.141-.368.159-.388.088-.208.827-1.869Z" fill="#FFF"/><path d="m34.388 28.763-.02.099c-.11.783 1.027 1.981 2.158 2.139 1.124.157 2.374-.693 2.484-1.488.106-.767-.894-1.328-2.159-1.505-1.206-.169-2.278.065-2.463.755Zm29.908-1.58c-1.263.177-2.262.737-2.159 1.503.112.798 1.362 1.647 2.486 1.49 1.131-.157 2.267-1.355 2.159-2.138-.107-.766-1.222-1.032-2.486-.855Zm5.672-3.236c.744-.04 1.38.533 1.42 1.28.067 1.24.003 2.336-.186 3.742l-.084.593-.23 1.518-.08.577-.066.522c-.01.084-.02.166-.028.246l-.046.472a20.29 20.29 0 0 0-.018.23l-.03.46-.023.617-.004.428.001.143.014.441.028.478.044.537.061.617.11.987.162 1.384c.586 5.375.25 8.245-2.062 11.71a1.346 1.346 0 0 1-1.871.373 1.357 1.357 0 0 1-.371-1.88c1.47-2.204 1.954-4.13 1.836-7.192l-.031-.628a34.96 34.96 0 0 0-.047-.66l-.062-.697-.036-.362-.082-.754-.182-1.56-.1-.953-.037-.414-.03-.381-.021-.357-.015-.34-.009-.49.002-.328.008-.334.01-.268.027-.516.038-.508.023-.256.057-.529.033-.277.079-.59.095-.653.206-1.364c.211-1.459.285-2.481.222-3.638a1.352 1.352 0 0 1 1.275-1.426Z" fill="#FFF"/></g></svg>