<svg xmlns="http://www.w3.org/2000/svg" viewBox="0 0 90 90"><path fill="#fade4b" d="M6 0h12.947v4.737h18.947V0h14.208v4.736h18.947V0H84a6 6 0 0 1 6 6v12.947h-4.737v18.947H90v14.21h-4.737v18.947H90V84a6 6 0 0 1-6 6H71.051v-4.738H52.103V90H37.895v-4.737H18.947V90H6a6 6 0 0 1-6-6V71.053h4.737V52.105H0V37.895h4.736V18.947H0V6a6 6 0 0 1 6-6zm52.261 46.11c2.558-2.578 3.837-5.942 3.837-10.091 0-3.343-.584-6.022-1.752-8.037-1.169-2.034-3.102-3.545-5.801-4.532-2.679-.987-6.304-1.48-10.876-1.48H26.719v5.68h5.68v34.17h-5.68v5.68h18.49v-5.68h-5.922V50.038h5.982c6.103-.04 10.433-1.349 12.991-3.928h0zm-5.65-16.466c1.672 1.309 2.508 3.384 2.508 6.224 0 2.236-.393 3.988-1.178 5.257-.785 1.249-2.014 2.135-3.686 2.659-1.672.503-3.907.755-6.707.755h-4.26V27.651h4.743c4.048 0 6.909.665 8.58 1.994h0z"/><path fill="#333" fill-rule="nonzero" d="M62.098 36.02c0 4.149-1.279 7.513-3.837 10.091s-6.889 3.887-12.991 3.928h-5.982v11.783h5.922v5.68h-18.49v-5.68h5.68v-34.17h-5.68v-5.68h16.949c4.572 0 8.197.493 10.877 1.48 2.699.987 4.632 2.498 5.801 4.532 1.168 2.014 1.752 4.693 1.752 8.037h0zm-6.979-.151c0-2.84-.836-4.915-2.508-6.224-1.672-1.329-4.532-1.994-8.58-1.994h-4.743v16.889h4.26c2.8 0 5.035-.252 6.707-.755 1.672-.524 2.9-1.41 3.686-2.659.786-1.269 1.178-3.021 1.178-5.257h0z"/></svg>