<svg viewBox="0 0 90 90" xmlns="http://www.w3.org/2000/svg"><g fill="none"><path fill="#FF6C37" d="M0 0h90v90H0z"/><path d="M32.533 47.844a.17.17 0 0 0 .198.09l7.2-1.553-3.028-3.069-4.316 4.316a.167.167 0 0 0-.054.216ZM66.248 16.93a6.71 6.71 0 1 0 2.826 12.797l-4.563-4.563a.565.565 0 0 1 0-.796l5.962-5.958a6.71 6.71 0 0 0-4.225-1.48Z" fill="#FFF"/><path d="m71.292 19.184-5.589 5.566 4.383 4.383c.323-.227.624-.483.9-.765a6.75 6.75 0 0 0 .306-9.184ZM60.11 29.457h-.1a1.754 1.754 0 0 0-.346.032h-.04a2.639 2.639 0 0 0-.37.108l-.094.045c-.09.037-.178.082-.261.135l-.1.063c-.108.075-.21.16-.305.252L41.92 46.67l2.052 2.052 17.55-15.404c.1-.087.19-.183.27-.288l.077-.099a2.294 2.294 0 0 0 .31-.656c0-.055.032-.109.045-.163a2.55 2.55 0 0 0 .045-.337v-.392c0-.08 0-.108-.022-.162a2.189 2.189 0 0 0-1.715-1.723h-.085a2.359 2.359 0 0 0-.338-.04ZM37.677 42.516l3.402 3.384 16.618-16.618a3.325 3.325 0 0 1 1.998-.932c-2.938-2.25-6.142-1.66-22.018 14.166Zm24.782-8.55-.203.198-17.55 15.4 2.984 2.978c7.398-6.997 13.963-13.662 14.769-18.576ZM18.683 70.042a.162.162 0 0 0 .144.117l7.65.527-4.289-4.289-3.47 3.465a.172.172 0 0 0-.035.18Zm4.306-4.442 4.522 4.523a.342.342 0 0 0 .428.059.338.338 0 0 0 .175-.392l-.76-3.249a.972.972 0 0 1 .5-1.084c7.928-3.974 14.323-8.064 19.016-12.15l-3.15-3.15-6.75 1.453L22.99 65.6Zm19.764-16.397-1.692-1.692-2.34 2.336a.113.113 0 0 0 0 .144.107.107 0 0 0 .13.058l3.902-.846Z" fill="#FFF"/><path d="M71.45 22.81a.521.521 0 1 0-.932.45 1.566 1.566 0 0 1-.193 1.693.522.522 0 0 0 .8.666 2.603 2.603 0 0 0 .325-2.808Z" fill="#FF6C37"/></g></svg>