<svg xmlns="http://www.w3.org/2000/svg" viewBox="0 0 90 90"><path fill="#FFF" d="M0 0h90v90H0z"/><path d="M42.714 37.368a15.605 15.605 0 0 0-.742-2.432 11.418 11.418 0 0 0-.99-1.736 8.843 8.843 0 0 0-2.97-2.482 9.686 9.686 0 0 0-.692-.297c-1.584-.645-3.366-.993-5.345-.993-2.326.05-4.256.397-5.84 1.092-1.683.744-3.068 1.737-4.206 3.027-1.139 1.34-2.03 2.828-2.623 4.516-.396 1.14-.693 2.282-.842 3.424L15 66h3.068c2.079 0 3.811-1.538 4.108-3.573l1.336-9.18c.1.496 1.98 2.432 3.217 2.928s2.03.595 3.415.595c2.573-.05 4.701-.694 6.384-1.985 1.782-1.29 3.167-3.027 4.207-5.11.395-.745.791-1.787 1.286-3.226.347-1.191.594-2.332.743-3.325.346-2.183.297-4.069-.05-5.756Zm-6.879 6.153c-.297 1.985-.99 3.771-2.078 5.31-1.09 1.538-2.623 2.332-4.504 2.332-1.88-.05-3.266-.744-4.108-2.035a5.965 5.965 0 0 1-.643-1.538c-.297-1.042-.297-2.283-.099-3.672.396-2.63 1.138-4.615 2.178-5.955 1.138-1.488 2.721-2.233 4.652-2.233 2.078.05 3.414.794 4.008 2.233.743 1.44.94 3.325.594 5.558Z" fill="#33312F"/><path d="M47.274 49.632c.198.893.445 1.687.742 2.432.297.645.643 1.24.99 1.736a8.843 8.843 0 0 0 2.97 2.482c.197.099.445.198.692.297 1.584.645 3.365.993 5.345.993 2.326-.05 4.256-.397 5.84-1.092 1.682-.744 3.068-1.737 4.206-3.027 1.139-1.34 2.03-2.828 2.623-4.516.396-1.14.693-2.282.842-3.424L74.988 21h-3.415c-1.88 0-3.464 1.39-3.761 3.225l-1.386 9.478c-.099-.496-1.98-2.431-3.217-2.927-1.237-.497-2.029-.596-3.414-.596-2.574.05-4.702.695-6.385 1.985-1.781 1.29-3.167 3.027-4.206 5.111-.396.744-.792 1.787-1.287 3.226a25.756 25.756 0 0 0-.742 3.324c-.248 2.233-.248 4.119.099 5.806Zm6.879-6.153c.297-1.985.99-3.771 2.078-5.31 1.09-1.538 2.623-2.332 4.504-2.332 1.88.05 3.266.744 4.108 2.035.296.496.494.992.643 1.538.297 1.042.297 2.283.099 3.672-.396 2.63-1.138 4.615-2.178 5.955-1.138 1.488-2.722 2.233-4.652 2.233-2.078-.05-3.414-.794-4.008-2.233-.743-1.44-.94-3.325-.594-5.558Z" fill="#0980FD"/></svg>