<svg xmlns="http://www.w3.org/2000/svg" xmlns:xlink="http://www.w3.org/1999/xlink" viewBox="0 0 90 90"><defs><linearGradient x1="56.271%" y1="74.968%" x2="44.737%" y2="28.765%" id="b"><stop stop-color="#00AEEF" offset="0%"/><stop stop-color="#00689F" offset=".405%"/><stop stop-color="#1276AA" offset="17.29%"/><stop stop-color="#419BC8" offset="51.18%"/><stop stop-color="#8CD6F7" offset="98.57%"/><stop stop-color="#8ED8F8" offset="100%"/></linearGradient><path d="M32.346 0c-4.939 0-9.383 2.5-11.852 6-4.691 0-8.642 2.5-10.37 6.25C4.443 12.75 0 17.25 0 22.5c0 2.75 1.235 5 2.963 6.75l4.444-.75c-2.222-1-3.95-3.25-3.95-5.75 0-3.75 3.457-7 7.654-7 .494 0 1.235 0 1.728.25.247-3.5 3.457-6.25 7.408-6.25.74 0 1.234 0 1.975.25 1.235-4 5.185-6.75 9.877-6.75 4.938 0 9.136 3.25 10.123 7.25 5.68 0 10.124 4.25 10.124 9.5 0 3.75-2.223 6.75-5.68 8.5l5.186.75c2.469-2.25 3.95-5.5 3.95-8.75 0-6-4.69-11-10.864-12.25C43.21 3.25 38.272 0 32.346 0Z" id="a"/></defs><g transform="translate(16.853 29)"><mask id="c" fill="#fff"><use xlink:href="#a"/></mask><path fill="url(#b)" mask="url(#c)" d="M1.977 40-5.431 1l59.506-11.5 7.408 38.75z"/></g><path d="M85 62c-9.63-3.25-23.95-5.5-40-5.5S14.63 58.75 5 62c11.358-1.5 25.185-2.5 40-2.5 14.815 0 28.642 1 40 2.5Z" fill="#0068A0"/></svg>