<svg viewBox="0 0 90 90" xmlns="http://www.w3.org/2000/svg"><g fill="none"><path d="M6.934 44.816a3.466 3.466 0 1 0-6.933 0 3.466 3.466 0 0 0 6.933 0m83.066 0a3.467 3.467 0 1 0-6.934.001 3.467 3.467 0 0 0 6.934 0" fill="#2CB7DF"/><path d="M53.205 47.928c-1.684 0-3.05-1.242-3.05-3.112s1.366-3.11 3.05-3.11c1.085 0 2.023.507 2.587 1.397l2.82-2.026a6.57 6.57 0 0 0-11.976 3.734 6.571 6.571 0 0 0 6.57 6.57c2.153 0 4.078-.958 5.547-2.976l-2.849-1.973c-.599.886-1.52 1.496-2.699 1.496m-14.75 0c-1.685 0-3.052-1.242-3.052-3.112s1.367-3.11 3.052-3.11c1.684 0 3.05 1.25 3.05 3.11 0 1.861-1.366 3.112-3.05 3.112Zm3.118-8.238c-.875-.83-2.043-1.451-3.68-1.451-3.12 0-6.01 2.628-6.01 6.572 0 3.942 2.863 6.57 6.01 6.57 1.516 0 2.674-.59 3.55-1.45v1.08h3.52V38.616h-3.39v1.074Zm-14.78.37v-1.444H23.4v12.395h3.518v-5.879c0-2.469 1.372-3.14 2.894-3.14.373 0 .772.025 1.197.125v-3.5a3.741 3.741 0 0 0-.999-.126c-.997 0-2.432.328-3.217 1.57M63.504 35h-3.52v12.089c0 2.469 1.507 4.02 4.49 4.02 1.196 0 2.314-.176 3.057-.374v-3.15a8.465 8.465 0 0 1-2.41.347c-.983 0-1.617-.274-1.617-1.296v-4.93h4.087v-3.108h-4.087V35m11.533 12.928c-1.686 0-3.052-1.242-3.052-3.112s1.366-3.11 3.052-3.11c1.684 0 3.05 1.25 3.05 3.11 0 1.861-1.366 3.112-3.05 3.112Zm0-9.689a6.57 6.57 0 0 0-6.571 6.572 6.571 6.571 0 1 0 6.57-6.572Zm-59.88 9.689c-1.686 0-3.052-1.25-3.052-3.112 0-1.86 1.366-3.11 3.051-3.11s3.051 1.24 3.051 3.11c0 1.87-1.366 3.112-3.05 3.112Zm.562-9.689c-1.639 0-2.806.62-3.681 1.45v-1.073h-3.39v16.802h3.521V49.93c.875.862 2.033 1.452 3.55 1.452 3.146 0 6.01-2.629 6.01-6.571 0-3.944-2.892-6.572-6.01-6.572Z" fill="#263077"/></g></svg>