<svg viewBox="0 0 90 90" xmlns="http://www.w3.org/2000/svg"><g fill="none" fill-rule="evenodd"><path fill="#008FFF" d="M0 0h90v90H0z"/><rect fill="#FFF" x="10" y="10" width="70" height="70" rx="5.5"/><g fill="#008FFF" fill-rule="nonzero"><path d="M47.678 53.814a16.534 16.534 0 0 0 5.404-4.172 19.68 19.68 0 0 0 3.474-6.002 20.062 20.062 0 0 0 1.245-6.956 18.549 18.549 0 0 0-1.322-6.81 20.254 20.254 0 0 0-3.598-5.975 18.325 18.325 0 0 0-5.515-4.261A15.261 15.261 0 0 0 40.357 18H18v54h14.227V55.368h8.47c2.42.027 4.808-.511 6.98-1.554ZM32.227 42.479V30.917h7.161a3.916 3.916 0 0 1 2.623 1.222c.879.815 1.321 2.342 1.321 4.566 0 2.224-.373 3.737-1.12 4.524a3.3 3.3 0 0 1-2.45 1.25h-7.535Z"/><path d="M38.599 61.729H72v10.264H38.599z"/></g></g></svg>