<svg viewBox="0 0 90 90" xmlns="http://www.w3.org/2000/svg"><g fill="none" fill-rule="evenodd"><path fill="#112F4A" fill-rule="nonzero" d="M0 0h90v90H0z"/><path d="M46 12.015C63.764 12.544 78 27.109 78 45c0 18.225-14.775 33-33 33-3.857 0-7.56-.662-11-1.878V64.057A21.899 21.899 0 0 0 45 67c12.15 0 22-9.85 22-22 0-11.815-9.314-21.455-21-21.978Zm-2 0v11.007C32.315 23.545 23 33.185 23 45v24.597C16.25 63.555 12 54.774 12 45c0-17.891 14.237-32.457 32-32.985ZM45 34c6.075 0 11 4.925 11 11s-4.925 11-11 11-11-4.925-11-11 4.925-11 11-11Z" fill="#FFF"/></g></svg>