<svg viewBox="0 0 90 90" xmlns="http://www.w3.org/2000/svg"><g fill="none"><path fill="#FFF" d="M0 0h90v90H0z"/><path fill="#3C77B9" d="m45.024 18-9.484 5.527 6.29 3.653 3.194-1.827 3.145 1.827 6.29-3.653zm0 57 23.685-13.793V46.5l-6.338 3.7v7.354L45.024 67.647 27.629 57.554v-7.401L21.34 46.5v14.707z"/><path fill="#20293A" d="M71.855 29.967v7.353L49.742 50.2l6.338 3.653-11.056 6.44-11.057-6.44 6.291-3.652-22.113-12.88v-7.354L15 28.093v-9.18l26.83 15.62 3.194-1.826 3.145 1.826L75 18.913v9.18z"/></g></svg>