<svg viewBox="0 0 90 90" xmlns="http://www.w3.org/2000/svg" xmlns:xlink="http://www.w3.org/1999/xlink"><defs><path id="a" d="M0 0h25v34H0z"/></defs><g fill="none" fill-rule="evenodd"><path fill="#FFF" fill-rule="nonzero" d="M0 0h90v90H0z"/><path d="M73.638 25.025a18.94 18.94 0 0 0-13.562-5.01H41V70h11.71V29.928l7.366.038a7.188 7.188 0 0 1 5.342 2.194 7.397 7.397 0 0 1 2.068 5.455 7.47 7.47 0 0 1-2.093 5.43 7.26 7.26 0 0 1-5.317 2.217H57.74v9.95h2.337a18.99 18.99 0 0 0 13.562-5.057c3.5-3.185 5.457-7.76 5.358-12.527.1-4.788-1.855-9.384-5.358-12.595" fill="#0068AF" fill-rule="nonzero"/><g transform="translate(11 36)"><mask id="b" fill="#fff"><use xlink:href="#a"/></mask><g mask="url(#b)" fill="#34ADFF" fill-rule="nonzero"><path d="M18.431 7.588 13.135 0H0l11.864 17.002L0 34h13.135l5.291-7.583 6.57-9.415z"/></g></g></g></svg>