<svg xmlns="http://www.w3.org/2000/svg" viewBox="0 0 90 90"><path fill="#353648" d="M0 0h90v90H0z"/><path fill="#FFF" d="M47.55 25c1.65 0 3.21.74 4.21 2.01L64.13 42.7l12.73-15.71a5.37 5.37 0 014.24-1.96h.9L65.88 44.92 81.73 65h-.88a5.36 5.36 0 01-4.22-2.01L64.1 47.1 51.5 62.64a5.37 5.37 0 01-4.24 1.96l-.88-.01 15.96-19.7L46.64 25h.9zM8.88 40.8a.87.87 0 00-.88.84v6.62c0 .47.4.85.88.85h6.88c.49 0 .88-.38.88-.85v-6.62c0-.47-.4-.85-.88-.85H8.88zm17.47 8.31h-8.82a.87.87 0 00-.89.85v14.1c0 .46.4.84.89.84h7.93c.5 0 .89-.38.89-.84v-6.2c0-.47.4-.85.88-.85h6.08c7.19 0 11.56-4.49 13.28-6.7.4-.52 0-1.2-.67-1.2H26.35zM17.53 25a.87.87 0 00-.89.85v14.1c0 .46.4.84.89.84h7.93c.5 0 .89-.38.89-.85v-6.28c0-.47.4-.85.88-.85h6.79c4.8 0 5.93 5 6.19 7 .06.45.45.81.93.81h7.93c.5 0 .9-.4.85-.88C49.27 33.24 44.25 25 36.5 25H17.53z"/></svg>