<svg xmlns="http://www.w3.org/2000/svg" xmlns:xlink="http://www.w3.org/1999/xlink" viewBox="0 0 90 90" xmlns:v="https://vecta.io/nano"><defs><path id="A" d="M0 0h90v90H0z"/></defs><g fill-rule="evenodd"><mask id="B" fill="#fff"><use xlink:href="#A"/></mask><use fill="#2d4154" xlink:href="#A"/><path fill="#fff" fill-rule="nonzero" d="M26.647 104c2.438 0 4.366-.236 5.781-.707s2.419-1.277 3.009-2.417.944-2.142 1.062-3.006.177-2.2.177-4.008h0V70.05c2.91 3.615 7.591 5.423 14.041 5.423s12.526-3.026 18.229-9.077S77.5 53.311 77.5 45.295s-2.871-15.049-8.613-21.101-11.819-9.077-18.229-9.077-11.111 2.043-14.1 6.13c-.236-2.043-1.082-3.595-2.537-4.656S29.754 15 25.585 15s-6.804 1.061-7.905 3.183c-.551 1.1-.885 2.083-1.003 2.947s-.177 2.2-.177 4.008h0V93.98c0 1.808.059 3.143.177 4.008s.472 1.847 1.062 2.947 1.613 1.886 3.068 2.358 3.402.707 5.84.707zM47 55.433c-2.871 0-5.231-1.041-7.079-3.124s-2.773-4.381-2.773-6.896.905-4.833 2.714-6.955 4.228-3.183 7.256-3.183 5.486 1.041 7.374 3.124 2.832 4.421 2.832 7.014-1.003 4.912-3.009 6.955-4.444 3.065-7.315 3.065z" mask="url(#B)"/></g></svg>