<svg xmlns="http://www.w3.org/2000/svg" viewBox="0 0 90 90"><path fill="#fff" d="M0 0h90v90H0z"/><g clip-path="url(#a)"><path fill="#071052" d="M44.87 47.9H26v-7h18.87v7.01Zm0 13.48v-7H26.29a19.92 19.92 0 0 0 2.48 7h16.1Zm-9.81 6.48 9.8 7.14v-7.14h-9.8ZM44.65 15a13.36 13.36 0 0 1 9.58 4.09 14.03 14.03 0 0 1 3.98 9.81v6.77l-4.72-.87v-5.9a9.14 9.14 0 0 0-5.45-8.36 8.72 8.72 0 0 0-6.79 0 9.14 9.14 0 0 0-5.45 8.36v5.96l-4.72.87V28.9a14.03 14.03 0 0 1 8.36-12.83c1.65-.7 3.42-1.07 5.2-1.07Z"/><path fill="#000F30" d="M44.86 40.88h19.25v7.01H44.86v-7Zm0 20.5H61.3a19.58 19.58 0 0 0 2.54-7H44.86v7Zm0 13.62 10.08-7.14H44.86V75Z"/><path fill="#FCB223" d="M64.11 36.67v4.22H44.86v-7.62l19.25 3.4ZM44.86 47.9v6.48h19c.17-1.13.26-2.27.26-3.4v-3.09H44.86Zm-.09 13.48v6.48h10.17l1.69-1.23a17.54 17.54 0 0 0 4.58-5.25H44.77Z"/><path fill="#FCB223" d="M26 40.88h18.87v-7.62L26 36.66v4.22Zm18.87 13.5h-18.6a22.13 22.13 0 0 1-.27-3.4v-3.09h18.87v6.49Zm0 7H28.76a17.7 17.7 0 0 0 4.61 5.25l1.69 1.23h9.81v-6.48Z"/></g><defs><clipPath id="a"><path fill="#fff" d="M26 15h38.12v60H26z"/></clipPath></defs></svg>