<svg viewBox="0 0 90 90" xmlns="http://www.w3.org/2000/svg"><g fill="none"><path d="M79.964 78H10.036C4.484 78 0 73.485 0 67.896V22.104C0 16.514 4.484 12 10.036 12h69.928C85.516 12 90 16.515 90 22.104v45.792C89.893 73.486 85.41 78 79.964 78Z" fill="#2948FF"/><path d="M50.605 51.342a9.913 9.913 0 0 1-11.317 0l-8.22-5.697-3.524 4.085 10.997 10.21a8.855 8.855 0 0 0 12.811 0L62.35 49.73l-3.523-4.085-8.221 5.697ZM0 24.254l25.302 23.433 3.31-3.762L0 24.255Zm61.388 19.671 3.203 3.762 25.302-23.433-28.505 19.671Z" fill="#103BB2"/><path d="m64.59 47.687-2.24 2.043 22.847 26.658a9.728 9.728 0 0 0 2.242-1.935L64.59 47.687ZM2.35 74.453a9.728 9.728 0 0 0 2.242 1.935L27.438 49.73l-2.242-2.043L2.349 74.453Z" fill="#1943C2"/><path d="m61.388 43.925-2.562 1.72 3.523 4.085 2.242-2.043-3.203-3.762Zm-36.086 3.762 2.242 2.043 3.524-4.085-2.456-1.72-3.31 3.762Z" fill="#112E85"/><path d="M87.01 15.01c-1.814-1.828-4.27-2.903-7.046-2.903H10.036c-2.776 0-5.232 1.075-7.047 2.903C1.068 16.837 0 19.31 0 22.104v2.043l28.612 19.67 2.456 1.72 8.22 5.698a9.913 9.913 0 0 0 11.317 0l8.22-5.698 2.456-1.72 28.612-19.67v-2.043c0-2.795-1.067-5.267-2.882-7.094Z" fill="#396AFC"/></g></svg>