<svg xmlns="http://www.w3.org/2000/svg" viewBox="0 0 90 90"><path fill="#FFF" d="M0 0h90v90H0z"/><path d="M53.524 75a4.56 4.56 0 0 1-4.045-2.418h-9.496A4.55 4.55 0 0 1 35.929 75h-5.173a4.562 4.562 0 0 1-4.158-2.635c-2.67-.665-4.558-3.061-4.598-5.834V43.553a5.932 5.932 0 0 1 .85-3.054 4.276 4.276 0 0 1 3.348-4.086v-3.485c.186-10.084 8.44-18.108 18.44-17.925h.71c9.997-.18 18.248 7.843 18.434 17.925v3.474a4.276 4.276 0 0 1 3.4 4.128v.029a5.94 5.94 0 0 1 .818 2.99v22.98c-.034 3.013-2.247 5.548-5.207 5.965A4.529 4.529 0 0 1 58.691 75h-5.167Zm-9.11-29.887c-2.314.226-4.167 2.03-4.473 4.354a4.897 4.897 0 0 0 2.2 4.654.76.76 0 0 1 .335.742l-1.25 8.251a.761.761 0 0 0 .185.62c.152.171.37.27.597.269h5.967a.807.807 0 0 0 .6-.269.764.764 0 0 0 .184-.62l-1.263-8.253a.762.762 0 0 1 .337-.746 4.91 4.91 0 0 0 2.23-4.091c-.055-2.779-2.328-4.989-5.083-4.943-.19 0-.378.01-.566.032Zm-8.833-8.817a4.41 4.41 0 0 1 3.037 1.2h12.787a4.402 4.402 0 0 1 3.037-1.2h2.371v-3.665a11.474 11.474 0 0 0-3.465-8.024 11.28 11.28 0 0 0-8.076-3.199h-.567a11.28 11.28 0 0 0-8.07 3.203 11.474 11.474 0 0 0-3.462 8.02v3.665h2.408Zm5.767-2.826a.516.516 0 0 1-.028-.754.563.563 0 0 1 .765-.028 4.433 4.433 0 0 0 5.813 0 .563.563 0 0 1 .768.028.517.517 0 0 1-.031.746 5.43 5.43 0 0 1-7.287 0v.008Zm6.714-4.13a2.113 2.113 0 0 1 1.239-2.006 2.08 2.08 0 0 1 2.307.409c.614.598.807 1.512.487 2.31a2.094 2.094 0 0 1-1.942 1.32 2.065 2.065 0 0 1-2.09-2.034Zm-10.32 0a2.113 2.113 0 0 1 1.239-2.006 2.08 2.08 0 0 1 2.307.409c.614.598.807 1.512.487 2.31a2.094 2.094 0 0 1-1.942 1.32 2.044 2.044 0 0 1-1.463-.58 2.08 2.08 0 0 1-.628-1.454Z" fill="#4CB649"/></svg>