<svg viewBox="0 0 90 90" xmlns="http://www.w3.org/2000/svg"><g fill="none"><path fill="#326EE0" d="M0 0h90v90H0z"/><path d="M45 15c16.572 0 30 13.428 30 30S61.572 75 45 75 15 61.572 15 45s13.428-30 30-30Zm6.157 13.166c-1.244-1.245-3.34-1.245-4.585 0L30.786 43.952c-1.31 1.31-1.31 3.34 0 4.585l10.35 10.35 2.816 2.816c1.31 1.31 3.537 1.31 4.847 0l.393-.393c1.376-1.31 1.376-3.472 0-4.847l-2.816-2.817 12.838-12.838c1.245-1.245 1.245-3.34 0-4.585Zm-3.406 9.301c.59-.59 1.572-.59 2.162 0 .59.59.59 1.507 0 2.096l-7.73 7.73c-.59.59-1.506.59-2.096 0a1.463 1.463 0 0 1 0-2.096Z" fill="#FFF"/></g></svg>