<svg viewBox="0 0 90 90" xmlns="http://www.w3.org/2000/svg"><path d="M56.217 19.697c.216-.385.034-.697-.405-.697l-7.694.005c-.439 0-.981.31-1.203.69L28.063 51.682c-2.63 4.348-6.302 5.308-9.83 4.88-6.055-.737-9.312-5.197-9.312-11.136 0-5.964 4.838-10.817 10.784-10.817h11.972c.44 0 .977-.313 1.194-.695l4.315-7.558c.218-.383.036-.695-.403-.695h-17.08C8.84 25.661 0 34.527 0 45.426c0 5.267 2.051 10.946 5.782 14.658 3.676 3.657 8.587 4.997 13.83 5.106 2.959.034 11.087-.034 14.897-6.834 4.267-7.617 21.708-38.66 21.708-38.66Zm28.001 11.222c-3.676-3.657-8.587-4.997-13.83-5.106-2.959-.033-11.087.034-14.897 6.834-4.265 7.614-21.708 38.656-21.708 38.656-.216.385-.034.697.405.697l7.694-.005c.439 0 .981-.31 1.203-.69l18.852-31.987c2.63-4.348 6.302-5.308 9.83-4.88 6.055.737 9.312 5.197 9.312 11.136 0 5.964-4.838 10.817-10.784 10.817H58.323c-.44 0-.977.313-1.194.695l-4.315 7.558c-.218.383-.036.695.403.695h17.08C81.16 65.339 90 56.473 90 45.574c0-5.264-2.051-10.943-5.782-14.655Z" fill="#C71585"/></svg>