<svg viewBox="0 0 90 90" xmlns="http://www.w3.org/2000/svg"><g fill="none" fill-rule="evenodd"><path fill="#FFF" fill-rule="nonzero" d="M0 0h90v90H0z"/><path d="M36.024 64.192c2.005-.384 5.663 1.277 5.663 2.572 0 .096.06.175.134.175.205 0 .705 1.795.705 2.529 0 4.367-4.989 7.029-8.67 4.626-4.128-2.696-2.757-8.96 2.168-9.902Zm8.969-48.785c2.803.011 7.292.203 8.511.433 5.187.98 8.297 2.602 10.661 5.566.587.734 1.359 2.077 1.578 2.744.095.29.22.589.275.664.11.148.272.762.65 2.466.98 4.428-.283 10.361-2.814 13.214-1.064 1.2-3.575 3.156-4.05 3.156-.043 0-.377.14-.742.311-.365.171-.947.398-1.293.504-.346.106-.692.238-.77.294-.122.09-1.848.457-3.914.834-.385.07-3.106.162-6.049.203l-5.349.075-.003 5.91v.69c-.008 5.543-.071 6.076-.625 6.877-.906 1.309-1.79 1.601-4.633 1.538-2.9-.065-3.437-.318-4.288-2.022l-.449-.899V46.426c.004-5.355.067-5.754.735-6.447l.078-.08.22-.222c.18-.187.325-.337.497-.458l.088-.058c.655-.4 1.804-.439 6.454-.443h2.178c7.13-.006 9.16-.157 10.314-.746.226-.116.481-.211.565-.211.23-.002 1.771-1.007 2.236-1.459.801-.779 1.963-2.652 1.645-2.652-.046 0-.015-.08.068-.178.298-.352.478-2.635.307-3.897-.303-2.23-1.078-3.562-2.888-4.96-1.461-1.13-4.023-1.65-8.125-1.65h-2.415v-2.198c0-2.383-.235-3.936-.707-4.695-.15-.24-.272-.482-.272-.54 0-.083.75-.122 1.863-.126Zm-10.367-.303c1.057-.26 4.488.003 5.239.4l.324.174.118.066c1.302.745 1.376 1.467 1.38 9.765v11.269l-3.81.055c-3.748.055-5.28.24-5.28.636 0 .117-.618.427-.853.427-.106 0-.152-2.076-.154-4.911v-.694c.002-1.18.01-2.463.025-3.767l.015-1.176c.066-4.84.207-9.608.37-10.032.347-.903 1.285-1.902 1.89-2.012.057-.01.183-.044.28-.075.097-.032.301-.087.456-.125Zm-10.344.455c.1-.158 6.498-.177 6.498-.02 0 .061-.055.169-.123.24-.53.562-.755 1.795-.82 4.48-.074 3.063.03 2.856-1.28 2.56-1.36-.307-2.457-1.012-3.47-2.23-.963-1.158-1.425-4.047-.805-5.03Z" fill="#241444"/></g></svg>