<svg viewBox="0 0 90 90" xmlns="http://www.w3.org/2000/svg"><defs><linearGradient x1="55.609%" y1="-27.185%" x2="27.331%" y2="83.438%" id="a"><stop stop-color="#24ECC6" stop-opacity="0" offset="47.989%"/><stop stop-color="#24ECC6" offset="99.442%"/></linearGradient><linearGradient x1="64.961%" y1="95.56%" x2="2.264%" y2="-1.859%" id="b"><stop stop-color="#ABFFEF" offset="6.601%"/><stop stop-color="#CAC9FF" offset="44.988%"/><stop stop-color="#6D4AFF" offset="100%"/></linearGradient></defs><g fill="none" fill-rule="evenodd"><path fill="#FFF" fill-rule="nonzero" d="M0 0h90v90H0z"/><path d="M39.494 67.984c2.128 3.848 7.594 4.056 10.01.382l22.53-34.26c2.39-3.633.104-8.504-4.223-8.999L23.527 20.04c-4.722-.54-8.084 4.466-5.787 8.618l21.754 39.326Z" fill="#6D4AFF"/><path d="M22.494 47.984c2.128 3.848 7.594 4.056 10.01.382l22.53-34.26c2.39-3.633.104-8.504-4.223-8.999L6.527.04C1.805-.5-1.557 4.506.74 8.658l21.754 39.326Z" fill="url(#a)" transform="translate(17 20)"/><path d="m25.762 41.397-2 2.999c-.81 1.215-2.622 1.14-3.33-.137l2.062 3.726a5.84 5.84 0 0 0 1.368 1.666c2.557 2.137 6.643 1.754 8.642-1.285l22.53-34.26c2.39-3.633.104-8.504-4.223-8.999L6.527.04C1.805-.5-1.557 4.506.74 8.658l.175.316 37.693 4.351c2.403.278 3.67 2.984 2.343 5L25.762 41.398Z" fill="url(#b)" fill-rule="nonzero" transform="translate(17 20)"/></g></svg>