<svg viewBox="0 0 90 90" xmlns="http://www.w3.org/2000/svg"><defs><linearGradient x1="118.778%" y1="68.272%" x2="82.886%" y2="-47.261%" id="a"><stop stop-color="#E2DBFF" offset="0%"/><stop stop-color="#6D4AFF" offset="100%"/></linearGradient><linearGradient x1="63.532%" y1="165.777%" x2="37.916%" y2="-41.508%" id="b"><stop stop-color="#E2DBFF" offset="27.1%"/><stop stop-color="#6D4AFF" offset="100%"/></linearGradient></defs><g fill="none" fill-rule="evenodd"><path fill="#FFF" d="M0 0h90v90H0z"/><path d="M17 24.293c0-1.093 1.27-1.691 2.11-.993l22.189 18.472a5.782 5.782 0 0 0 7.402 0L70.891 23.3c.838-.698 2.109-.1 2.109.993v37.9C73 65.4 70.406 68 67.207 68H22.793C19.593 68 17 65.4 17 62.193v-37.9Z" fill="#6D4AFF" fill-rule="nonzero"/><path d="m35.56 15.56.003.002-11.175 9.894a5.14 5.14 0 0 1-6.701.1L0 10.812V1.293C0 .2 1.27-.398 2.11.3l22.189 18.472a5.782 5.782 0 0 0 7.402 0l3.86-3.213Z" fill="url(#a)" transform="translate(17 23)"/><path d="M44.092 8.457V45h6.115c3.2 0 5.793-2.6 5.793-5.807v-37.9C56 .2 54.729-.398 53.89.3l-9.798 8.157Z" fill="url(#b)" transform="translate(17 23)"/></g></svg>