<svg viewBox="0 0 90 90" xmlns="http://www.w3.org/2000/svg"><g fill="none" fill-rule="evenodd"><path fill="#102F57" d="M0 0h90v90H0z"/><path d="M49.725 14.715c2.655.45 3.667.675 7.537 1.755 3.938 1.08 12.848 4.117 15.953 5.445l.877.36-.157 2.092c-.09 1.125-.248 3.443-.36 5.108-.743 11.047-2.003 21.645-3.083 26.1-.202.81-.585 1.98-.877 2.587-.9 1.958-3.825 4.995-8.01 8.393l-1.733 1.395-.112-1.17c-.18-1.778-.54-6.525-1.035-13.68-.608-8.775-.675-9.585-.81-11.205L57.78 40.5H32.22l-.135 1.507c-.068.855-.383 5.175-.698 9.63A1029.28 1029.28 0 0 1 30.6 62.1c-.135 1.305-.225 2.902-.225 3.555 0 .675-.09 1.17-.203 1.125-.135-.045-1.102-.833-2.182-1.755-2.475-2.16-5.49-5.535-6.233-7.043-1.552-3.105-3.352-13.387-5.107-29.295-.113-1.125-.338-3.06-.473-4.342-.135-1.283-.225-2.34-.18-2.385.18-.158 9.968-3.308 12.915-4.163 10.89-3.127 15.975-3.87 20.813-3.082Zm8.077 23.31.248-.968c.135-.517.855-3.172 1.597-5.895.72-2.722 1.328-5.04 1.328-5.13 0-.09-1.103-.157-2.475-.157h-2.475v4.275h-4.253l-.067-2.093-.068-2.07-2.07-.067-2.092-.068v4.298h-4.253l-.067-2.093-.068-2.07h-4.725l-.067 2.07-.068 2.093h-4.252v-4.275H31.5c-1.35 0-2.475.09-2.475.18 0 .112.292 1.237.652 2.542.698 2.565 1.89 6.953 2.273 8.46l.247.968h25.605ZM42.165 76.027c2.565 1.868 2.88 2.025 3.352 1.8.673-.362 2.955-1.919 5.313-3.585l.616-.436c2.565-1.823 5.063-3.662 5.524-4.124.202-.202.337-.607.292-.9-.045-.27-.247-2.925-.45-5.895-.18-2.97-.405-5.827-.472-6.367-.068-.518-.18-.945-.27-.923-.09 0-1.17.765-2.408 1.688l-1.24.919-.166.122-.167.124-.085.062-.172.127c-1.509 1.112-3.552 2.6-10.14 7.376-3.375 2.43-6.187 4.522-6.232 4.612-.135.18 1.8 1.823 2.137 1.823.09 0 2.835-2.003 6.098-4.433a1007.04 1007.04 0 0 1 7.717-5.76l1.8-1.327-1.462 1.44c-.81.787-2.138 2.025-2.925 2.767-.81.743-2.88 2.678-4.613 4.275a579.883 579.883 0 0 1-4.027 3.735l-.878.81Z" fill="#FFF" fill-rule="nonzero"/></g></svg>