<svg viewBox="0 0 90 90" xmlns="http://www.w3.org/2000/svg"><g fill="none" fill-rule="evenodd"><path fill="#F60" d="M0 0h90v90H0z"/><path d="M45 12c1.054 0 2.107.068 3.161.204a.5.5 0 0 1 .421.375l1.208 4.83a27.798 27.798 0 0 1 7.555 2.452l3.814-3.196a.5.5 0 0 1 .56-.056 24.678 24.678 0 0 1 5.115 3.716.5.5 0 0 1 .12.551l-1.863 4.621a28.085 28.085 0 0 1 4.671 6.421l4.966-.344a.5.5 0 0 1 .486.285 24.678 24.678 0 0 1 1.954 6.013.5.5 0 0 1-.226.516l-4.221 2.643a28.24 28.24 0 0 1 0 7.938l4.22 2.643a.5.5 0 0 1 .227.516 24.678 24.678 0 0 1-1.954 6.013.5.5 0 0 1-.486.285l-4.966-.344a28.085 28.085 0 0 1-4.671 6.42l1.864 4.622a.5.5 0 0 1-.12.55 24.678 24.678 0 0 1-5.115 3.717.5.5 0 0 1-.561-.056l-3.814-3.196a27.798 27.798 0 0 1-7.555 2.453l-1.208 4.83a.5.5 0 0 1-.42.374 24.678 24.678 0 0 1-6.323 0 .5.5 0 0 1-.421-.375l-1.208-4.83a27.798 27.798 0 0 1-7.554-2.452l-3.815 3.196a.5.5 0 0 1-.56.056 24.678 24.678 0 0 1-5.115-3.716.5.5 0 0 1-.12-.551l1.863-4.621a28.085 28.085 0 0 1-4.671-6.421l-4.966.344a.5.5 0 0 1-.486-.285 24.678 24.678 0 0 1-1.954-6.013.5.5 0 0 1 .226-.516l4.221-2.643a28.24 28.24 0 0 1 0-7.938l-4.22-2.643a.5.5 0 0 1-.227-.516 24.678 24.678 0 0 1 1.954-6.013.5.5 0 0 1 .486-.285l4.966.344a28.085 28.085 0 0 1 4.671-6.42l-1.864-4.622a.5.5 0 0 1 .12-.55 24.678 24.678 0 0 1 5.115-3.717.5.5 0 0 1 .561.056l3.815 3.196a27.798 27.798 0 0 1 7.554-2.453l1.208-4.83a.5.5 0 0 1 .42-.374A24.678 24.678 0 0 1 45 12Zm0 11c-12.15 0-22 9.85-22 22s9.85 22 22 22 22-9.85 22-22-9.85-22-22-22Z" fill="#FFF"/><path d="m38.8 27.035 1.817 7.873A11.003 11.003 0 0 0 34 45c0 6.075 4.925 11 11 11 2.66 0 5.098-.944 7-2.514l6.189 5.19A18.937 18.937 0 0 1 45 64c-10.493 0-19-8.507-19-19 0-8.322 5.35-15.395 12.8-17.965ZM64 45c0 3.931-1.194 7.584-3.24 10.615l-6.187-5.193a10.95 10.95 0 0 0 1.393-6.29l7.805-2.09c.15.963.229 1.952.229 2.958Z" fill="#FABEB1" fill-rule="nonzero"/><path d="M45 26c8.088 0 14.996 5.054 17.738 12.176l-7.805 2.091a11.001 11.001 0 0 0-10.418-6.256l-1.818-7.873A19.193 19.193 0 0 1 45 26Z" fill="#F59E71" fill-rule="nonzero"/></g></svg>