<svg xmlns="http://www.w3.org/2000/svg" viewBox="0 0 90 90" fill="none" fill-rule="evenodd"><path fill="#fff" opacity="0" d="M0 0h90v90H0z"/><g fill-rule="nonzero"><path fill="#000" d="M18.486 7.031c-4.086 2.071-4.086 2.39-.264 6.646L44.866 42.71c.529.059 29.896-31.876 30.219-32.836.132-.263-.776-1.167-1.949-1.998-1.552-1.167-3.237-1.617-6.415-1.749-5.962-.378-8.041.904-15.44 9.167l-6.227 6.836c-.059 0-2.841-3.031-6.154-6.705s-7.132-7.36-8.423-8.073c-2.99-1.676-9.081-1.808-12.012-.322h.02zm11.337 56.521L15.044 80.197c-.132.263.776 1.167 1.949 1.998 1.552 1.167 3.237 1.617 6.415 1.749 5.903.378 8.1-.977 15.555-9.358l6.094-6.646c.073 0 2.857 3.031 6.168 6.705 7.588 8.395 9.593 9.621 15.496 9.299 3.178-.132 4.863-.582 6.415-1.749 1.173-.831 2.081-1.735 1.949-1.998-.323-.963-29.707-32.909-30.219-32.836-.264 0-7.003 7.287-15.044 16.191h0z"/><path fill="#f66800" d="M74.121 16.979c2.064-1.035 3.617-1.298 6.606-1.167 4.145.26 8.949 2.2 9.272 3.876.059.509-4.804 6.324-10.898 12.956L68.085 45.033c0 .132 4.995 5.756 11.016 12.388 6.094 6.646 10.957 12.447 10.898 13.029-.323 1.749-5.642 3.948-9.537 3.948-6.286-.073-7.72-1.164-21.006-15.682-6.679-7.29-12.13-13.424-12.13-13.687 0-.249 5.391-6.313 11.998-13.541 8.173-8.907 12.903-13.555 14.793-14.518h0zm-69.258-.462c3.122-1.226 8.043-.977 11.089.509 2.005.904 6.224 5.101 14.852 14.459l11.219 12.552.185.222c.374.452.577.719.577.768 0 .204-5.434 6.4-12.113 13.687-13.3 14.515-14.72 15.609-21.02 15.682-3.881 0-9.197-2.2-9.52-3.948-.073-.509 4.79-6.383 10.884-13.088h0l.554-.61L22.046 45.03c0-.118-4.922-5.669-11.016-12.316C4.995 26.068 0 20.25 0 19.8c0-.89 1.685-2.054 4.863-3.28h0z"/></g></svg>