<svg viewBox="0 0 90 90" xmlns="http://www.w3.org/2000/svg"><defs><linearGradient x1="13.933%" y1="26.138%" x2="86.045%" y2="74.332%" id="a"><stop stop-color="#F02226" offset="0%"/><stop stop-color="#2D6683" stop-opacity=".3" offset="100%"/></linearGradient><linearGradient x1="50%" y1="0%" x2="38.388%" y2="90.789%" id="b"><stop stop-color="#33C3F0" offset="0%"/><stop stop-color="#33C3F0" stop-opacity="0" offset="100%"/></linearGradient><linearGradient x1="14.617%" y1="17.919%" x2="65.259%" y2="69.288%" id="c"><stop stop-color="#33C3F0" stop-opacity=".5" offset="0%"/><stop stop-color="#33C3F0" stop-opacity="0" offset="100%"/></linearGradient></defs><g transform="translate(-1)" fill="none"><path d="m45 0 38.971 22.5v45L45 90 6.029 67.5v-45L45 0Zm0 16.165L20.028 30.583v28.833L45 73.834l24.971-14.418V30.583L45 16.165Z" fill="url(#a)"/><path d="m45 0 38.971 22.5v45L45 90 6.029 67.5v-45L45 0Zm0 16.165L20.028 30.583v28.833L45 73.834l24.971-14.418V30.583L45 16.165Z" fill="url(#b)" transform="rotate(90 45 45)"/><circle fill="url(#c)" cx="44.5" cy="45" r="19.5"/></g></svg>