<svg viewBox="0 0 90 90" xmlns="http://www.w3.org/2000/svg"><g fill="none"><path fill="#FFF" d="M0 0h90v90H0z"/><path d="M12.821 21.4c1.049 0 1.942.154 2.679.46.737.307 1.336.71 1.798 1.214a4.679 4.679 0 0 1 1.01 1.72 6.38 6.38 0 0 1 .317 2.003c0 .675-.106 1.34-.317 1.992a4.678 4.678 0 0 1-1.01 1.732c-.462.503-1.06.907-1.798 1.213-.737.307-1.63.46-2.679.46H8.944v6.033H5.256V21.4h7.565Zm-1.01 7.919c.423 0 .831-.033 1.222-.094.39-.062.737-.186 1.034-.366a1.98 1.98 0 0 0 .716-.766c.18-.33.27-.763.27-1.296s-.09-.966-.27-1.296a1.98 1.98 0 0 0-.716-.766 2.838 2.838 0 0 0-1.034-.365 7.811 7.811 0 0 0-1.222-.094H8.944v5.043h2.867ZM29.924 21.4c.752 0 1.43.12 2.032.365a4.712 4.712 0 0 1 1.551 1.001c.432.425.76.917.987 1.473a4.75 4.75 0 0 1 .34 1.803c0 .99-.208 1.847-.622 2.569-.414.722-1.092 1.272-2.032 1.65v.047c.455.126.83.318 1.128.577.296.26.54.566.728.92.188.353.326.741.411 1.166.085.424.144.848.176 1.272.015.268.033.58.047.943.015.362.044.73.083 1.107.038.378.102.734.188 1.073.085.338.214.624.387.86H31.64c-.202-.533-.329-1.17-.376-1.909a28.468 28.468 0 0 0-.211-2.12c-.126-.882-.39-1.524-.799-1.933-.408-.41-1.072-.613-1.997-.613H24.57v6.575h-3.69V21.4h9.044Zm-1.316 7.612c.846 0 1.48-.189 1.903-.566.423-.377.635-.99.635-1.838 0-.816-.212-1.411-.635-1.78-.423-.368-1.057-.553-1.903-.553H24.57v4.737h4.038Zm21.523 7.93c-1.269 1.107-3.022 1.66-5.263 1.66-2.27 0-4.03-.55-5.275-1.649-1.245-1.098-1.868-2.795-1.868-5.09V21.401h3.689v10.463c0 .457.038.904.117 1.343.08.44.244.828.494 1.167.25.339.599.613 1.045.825.447.212 1.046.318 1.798.318 1.316 0 2.223-.295 2.725-.884.503-.59.752-1.511.752-2.769V21.401h3.69v10.463c0 2.277-.635 3.97-1.904 5.079Zm7.848-2.864c.203.392.473.71.81.955.338.244.732.424 1.187.542.455.118.925.176 1.41.176a7.19 7.19 0 0 0 1.057-.082 3.733 3.733 0 0 0 1.058-.318c.32-.15.6-.372.822-.648.22-.274.329-.625.329-1.049 0-.457-.144-.825-.435-1.108-.29-.282-.67-.518-1.14-.707a11.309 11.309 0 0 0-1.597-.494 41.819 41.819 0 0 1-1.81-.472 16.154 16.154 0 0 1-1.832-.577 6.216 6.216 0 0 1-1.598-.884 4.18 4.18 0 0 1-1.14-1.355c-.29-.542-.434-1.199-.434-1.968 0-.863.185-1.614.552-2.25a4.99 4.99 0 0 1 1.445-1.591 6.278 6.278 0 0 1 2.02-.943A8.613 8.613 0 0 1 60.94 21c.879 0 1.719.097 2.526.295a6.312 6.312 0 0 1 2.15.954 4.815 4.815 0 0 1 1.492 1.685c.367.683.553 1.511.553 2.486h-3.572c-.032-.504-.138-.919-.317-1.249a2.08 2.08 0 0 0-.717-.777 3.029 3.029 0 0 0-1.022-.401 6.203 6.203 0 0 0-1.257-.118 4.38 4.38 0 0 0-.893.094 2.4 2.4 0 0 0-.81.33 2.009 2.009 0 0 0-.6.59c-.155.235-.235.533-.235.895 0 .33.062.598.188.801.127.203.373.392.74.566.368.174.879.344 1.528.518.649.174 1.5.392 2.55.66.313.062.748.177 1.303.342a6.24 6.24 0 0 1 1.657.79 5.014 5.014 0 0 1 1.421 1.449c.4.603.6 1.378.6 2.32 0 .77-.15 1.486-.447 2.145a4.655 4.655 0 0 1-1.328 1.709c-.587.48-1.315.851-2.185 1.12-.87.267-1.877.4-3.019.4-.925 0-1.821-.115-2.69-.342a6.766 6.766 0 0 1-2.303-1.072 5.264 5.264 0 0 1-1.586-1.862c-.39-.754-.579-1.65-.564-2.686h3.571c0 .565.103 1.045.306 1.437ZM78.726 21.4 85 38.227h-3.83l-1.269-3.747h-6.273l-1.316 3.747h-3.713L74.943 21.4h3.783Zm.212 10.322-2.115-6.175h-.047l-2.185 6.175h4.347ZM48.093 47.394l-1.23 3.473h2.443l-1.19-3.473h-.023Zm9.768-.716h-2.273v2.663h2.273c.476 0 .832-.106 1.07-.318.237-.212.355-.557.355-1.034 0-.46-.118-.792-.355-1.001-.238-.204-.594-.31-1.07-.31ZM5.2 40.192v19.05h79.69v-19.05H5.2Zm10.194 14.334a3.67 3.67 0 0 1-.211-1.075 16.055 16.055 0 0 0-.12-1.193c-.071-.495-.22-.858-.45-1.087-.23-.23-.605-.345-1.125-.345h-2.073v3.7H9.34V45.06h5.09c.423 0 .805.068 1.142.206.338.139.629.324.873.563.238.236.427.517.555.828.126.315.19.65.19 1.013 0 .557-.117 1.04-.349 1.446-.235.407-.614.716-1.142.928v.027c.255.07.467.18.634.324.168.147.303.318.411.515.106.2.182.419.232.657.047.239.083.478.1.716.01.15.018.327.027.53.008.204.023.413.047.625.02.212.055.412.105.604.047.191.12.35.218.483h-2.08Zm10.627 0h-7.164V45.06h7.058v1.75h-4.981v2.027h4.573v1.617h-4.573v2.321h5.09v1.75h-.003Zm8.473-1.603a2.619 2.619 0 0 1-.746.96c-.329.272-.74.48-1.23.631-.491.15-1.055.227-1.698.227-.52 0-1.025-.065-1.513-.192a3.775 3.775 0 0 1-1.295-.603 2.969 2.969 0 0 1-.893-1.05c-.22-.423-.326-.927-.317-1.51h2.009c0 .318.056.589.17.81.115.22.267.4.455.536.188.138.412.238.667.306.256.068.52.1.793.1.185 0 .385-.014.596-.047.212-.03.412-.091.594-.18a1.27 1.27 0 0 0 .46-.365.912.912 0 0 0 .186-.589.84.84 0 0 0-.244-.624 1.95 1.95 0 0 0-.64-.398 6.378 6.378 0 0 0-.899-.28c-.335-.08-.673-.168-1.016-.265a9.316 9.316 0 0 1-1.031-.324 3.496 3.496 0 0 1-.899-.498 2.307 2.307 0 0 1-.64-.763c-.165-.306-.244-.674-.244-1.107 0-.487.103-.908.311-1.267.206-.357.48-.657.814-.896a3.538 3.538 0 0 1 1.137-.53 4.82 4.82 0 0 1 1.268-.17c.494 0 .967.055 1.422.164a3.59 3.59 0 0 1 1.21.536c.35.246.638.57.84.949.206.386.311.851.311 1.4h-2.009a1.674 1.674 0 0 0-.179-.705 1.175 1.175 0 0 0-.402-.436 1.757 1.757 0 0 0-.576-.227 3.551 3.551 0 0 0-.708-.065c-.167 0-.334.018-.502.054-.167.035-.32.097-.455.185-.138.088-.25.2-.338.33a.892.892 0 0 0-.132.504c0 .185.035.336.106.45.07.115.208.221.417.319.205.097.493.194.86.291.365.097.843.221 1.434.371.176.036.42.1.734.192.311.091.623.241.931.445.308.203.576.474.799.816.226.341.338.774.338 1.305-.006.436-.088.84-.256 1.21Zm8.617 1.603h-7.163V45.06h7.058v1.75h-4.982v2.027h4.573v1.617h-4.573v2.321h5.09v1.75h-.003Zm7.455 0-.714-2.106h-3.527l-.74 2.106h-2.089l3.569-9.465h2.13l3.53 9.465h-2.16Zm8.999 0a3.67 3.67 0 0 1-.212-1.075 16.055 16.055 0 0 0-.12-1.193c-.07-.495-.22-.858-.45-1.087-.228-.23-.601-.345-1.121-.345h-2.077v3.7H53.51V45.06h5.09c.423 0 .804.068 1.142.206.338.139.629.324.872.563.24.236.428.517.556.828.126.315.19.65.19 1.013 0 .557-.117 1.04-.349 1.446-.232.407-.614.716-1.143.928v.027c.256.07.467.18.635.324.167.147.305.318.408.515.106.2.182.419.232.657a6.1 6.1 0 0 1 .1.716c.009.15.018.327.026.53.01.204.024.413.047.625.021.212.056.412.106.604.05.191.12.35.218.483h-2.074Zm11.434-2.042c-.22.478-.511.884-.872 1.22a3.706 3.706 0 0 1-1.27.769 4.633 4.633 0 0 1-1.6.265c-.722 0-1.371-.127-1.95-.377a4.14 4.14 0 0 1-1.46-1.04 4.595 4.595 0 0 1-.91-1.558 5.742 5.742 0 0 1-.317-1.93c0-.707.105-1.364.317-1.968a4.747 4.747 0 0 1 .91-1.584 4.18 4.18 0 0 1 1.46-1.06c.576-.257 1.228-.387 1.95-.387.52 0 1.01.077 1.475.227.464.15.875.368 1.242.657.364.289.667.642.905 1.066.237.425.387.91.449 1.459h-2.009a1.715 1.715 0 0 0-.238-.657 2.125 2.125 0 0 0-1.093-.875 2.127 2.127 0 0 0-.734-.127c-.467 0-.863.091-1.19.271-.319.176-.59.426-.792.73-.203.307-.35.652-.444 1.04a5.28 5.28 0 0 0-.138 1.205c0 .398.047.784.138 1.16.094.378.241.714.444 1.014.202.301.474.549.793.722.326.183.722.271 1.19.271.634 0 1.13-.194 1.485-.583.356-.39.576-.902.655-1.538h2.01a4.741 4.741 0 0 1-.406 1.608Zm9.766 2.042h-2.077v-4.083H74.87v4.083h-2.074V45.06h2.074v3.632h3.818V45.06h2.077v9.465ZM13.69 46.678h-2.273v2.663h2.273c.476 0 .831-.106 1.072-.318.238-.212.355-.557.355-1.034 0-.46-.117-.792-.355-1.001-.241-.204-.596-.31-1.072-.31ZM7.969 65.567c.259.327.385.748.385 1.266 0 .536-.126.981-.382 1.332-.252.353-.608.527-1.063.527-.285 0-.514-.056-.687-.17a1.396 1.396 0 0 1-.335-.354v.433H5v-4.658h.899v1.659c.114-.16.24-.283.379-.368.161-.106.37-.16.622-.16.456 0 .81.166 1.07.493Zm-.752 2.1c.13-.189.194-.436.194-.74a1.63 1.63 0 0 0-.097-.606c-.12-.304-.343-.457-.666-.457-.33 0-.555.147-.679.445a1.654 1.654 0 0 0-.097.613c0 .294.065.539.197.733.132.195.332.292.602.292a.615.615 0 0 0 .546-.28Zm1.898 1.597.114.005c.088.003.174 0 .253-.008a.476.476 0 0 0 .203-.074c.052-.035.102-.112.146-.224.045-.115.065-.183.06-.21l-1.264-3.599H9.63l.752 2.545.71-2.545h.955l-1.178 3.394c-.229.654-.408 1.06-.54 1.216-.132.156-.397.236-.796.236-.08 0-.144 0-.194-.003-.05 0-.12-.006-.217-.012v-.721h-.006Zm6.47-3.397v.165c.012.557.07.949.17 1.175.103.227.32.34.658.34.332 0 .553-.125.661-.372.065-.147.097-.395.097-.742V61.39h1.501v5.016c0 .613-.103 1.099-.311 1.458-.35.607-.981.91-1.892.91-.91 0-1.524-.244-1.835-.736-.312-.492-.467-1.16-.467-2.006v-.165h1.418Zm10.212 2.095c-.543.56-1.327.842-2.355.842s-1.812-.28-2.356-.842c-.728-.687-1.092-1.68-1.092-2.973 0-1.32.364-2.312 1.092-2.972.544-.56 1.328-.843 2.356-.843 1.028 0 1.812.28 2.355.843.726.663 1.087 1.653 1.087 2.972 0 1.293-.364 2.283-1.087 2.973Zm-.94-1.096c.35-.44.523-1.067.523-1.88 0-.807-.176-1.434-.522-1.876-.35-.442-.823-.663-1.416-.663s-1.07.221-1.425.66c-.355.439-.531 1.066-.531 1.88 0 .812.176 1.437.531 1.879.356.439.829.66 1.425.66.596 0 1.066-.221 1.416-.66Zm4.256-.49c.047.33.138.575.274.74.25.298.675.445 1.28.445.361 0 .655-.038.881-.118.429-.15.643-.43.643-.837a.622.622 0 0 0-.314-.553c-.208-.127-.543-.239-.998-.34l-.779-.17c-.763-.17-1.29-.353-1.577-.554-.485-.333-.725-.851-.725-1.561 0-.645.237-1.181.71-1.608.473-.428 1.17-.64 2.089-.64.766 0 1.421.2 1.962.604.54.404.825.987.851 1.753h-1.442c-.026-.433-.22-.742-.578-.925-.241-.12-.538-.18-.896-.18-.397 0-.714.08-.949.236a.739.739 0 0 0-.355.654c0 .256.117.45.35.577.149.086.466.186.954.298l1.26.297c.552.13.966.307 1.242.525.429.338.643.83.643 1.473 0 .66-.252 1.204-.76 1.64-.508.436-1.225.654-2.15.654-.946 0-1.692-.215-2.232-.642-.544-.43-.814-1.02-.814-1.767h1.43Zm10.891-3.708h-3.803V64.2h3.492v1.252H36.2v1.853h3.98V68.6h-5.446v-7.209h5.272v1.276h-.003Zm1.348-1.267h5.125v1.267h-3.633v1.658h3.184v1.252h-3.184v3.023h-1.492v-7.2Zm13.699 4.08c-.42.354-1.022.527-1.804.527h-1.495v2.593H50.26v-7.209h3.084c.711 0 1.278.186 1.7.557.424.371.635.949.635 1.726.003.852-.208 1.453-.628 1.806Zm-1.146-2.598c-.19-.16-.455-.239-.799-.239h-1.354v2.124h1.354c.344 0 .608-.085.8-.259.19-.174.284-.448.284-.822 0-.377-.097-.642-.285-.804Zm7.587-1.305c.264.115.49.283.672.504.153.182.273.386.362.607.088.22.132.474.132.757 0 .341-.085.68-.259 1.01-.173.33-.455.566-.854.701.331.133.566.324.704.569.138.247.209.621.209 1.128v.483c0 .33.012.554.038.669a.592.592 0 0 0 .276.41v.179h-1.656a3.625 3.625 0 0 1-.162-1.007l-.009-.67c-.006-.459-.085-.765-.238-.918-.152-.154-.437-.23-.854-.23h-1.466v2.828H56.92V61.39h3.439c.49.011.87.073 1.134.188Zm-3.105 1.066v1.936h1.616c.32 0 .56-.039.722-.118.285-.136.426-.407.426-.813 0-.436-.138-.73-.411-.88-.156-.086-.385-.128-.696-.128h-1.657v.003Zm5.71-1.252h1.527v4.428c0 .495.059.857.176 1.084.182.404.576.607 1.187.607.605 0 .999-.203 1.18-.607.118-.227.177-.59.177-1.084v-4.428h1.527v4.43c0 .767-.117 1.365-.355 1.792-.44.783-1.284 1.172-2.526 1.172-1.243 0-2.085-.391-2.532-1.172-.238-.427-.355-1.025-.355-1.791v-4.43h-.006Zm8.294 4.985c.047.33.138.574.273.74.25.297.676.444 1.28.444.362 0 .656-.038.882-.118.429-.15.643-.43.643-.837a.622.622 0 0 0-.314-.553c-.209-.127-.543-.239-.999-.34l-.778-.17c-.764-.17-1.29-.353-1.577-.554-.485-.333-.726-.851-.726-1.561 0-.645.238-1.181.711-1.608.473-.428 1.17-.64 2.088-.64.767 0 1.422.2 1.962.604.54.404.826.987.852 1.753h-1.442c-.026-.433-.22-.742-.579-.925-.24-.12-.537-.18-.895-.18-.397 0-.714.08-.95.236a.745.745 0 0 0-.354.654c0 .256.117.45.349.577.15.086.467.186.955.298l1.26.297c.552.13.966.307 1.242.525.429.338.643.83.643 1.473 0 .66-.252 1.204-.76 1.64-.509.436-1.225.654-2.15.654-.946 0-1.692-.215-2.233-.642-.543-.43-.813-1.02-.813-1.767h1.43Zm7.634-4.985h1.7l2.544 7.209h-1.627l-.476-1.482h-2.647l-.487 1.482H77.46l2.564-7.209Zm-.1 4.484h1.841l-.907-2.837-.934 2.837Z" fill="#000"/></g></svg>