<svg viewBox="0 0 90 90" xmlns="http://www.w3.org/2000/svg"><g transform="translate(17.5)" fill="none" fill-rule="evenodd"><path d="M47.946 44.014s-.153.69-.153.805c0 .115-3.993-.345-3.993-.345l.152-1.266 3.994.806Z" fill="#904A04" fill-rule="nonzero"/><path d="M47.259 43.705s-10.141-3.027-14.518-2.222c-4.377.805-1.541 3.164-1.541 3.164l16.059-.942Zm-40.209.424s.153.69.153.805c0 .115 3.993-.345 3.993-.345l-.153-1.266-3.992.806Z" fill="#904A04" fill-rule="nonzero"/><path d="M7.737 43.821S17.88 40.793 22.255 41.6c4.377.806 1.541 3.163 1.541 3.163l-16.059-.94Z" fill="#904A04" fill-rule="nonzero"/><ellipse fill="#B26734" fill-rule="nonzero" cx="28.13" cy="51.145" rx="18.545" ry="9.432"/><path d="m22.601 42.173-10.252 1.61-6.61 1.012-1.782 1.827v3.235l.338 4.026 5.588 2.012 4.351.288c-1.275-12.946 8.367-14.01 8.367-14.01Z" fill="#B26734" fill-rule="nonzero"/><path d="M17.507 52.41s-2.073-3.22-7.487-1.495c-5.414 1.726 2.995 3.221 2.995 3.221l4.492-1.725ZM1.983 78.598s3.582-3.983 11.716-4.625c3.187-.251 2.439 7.213 2.439 7.213l5.43-4.841 10.616.863 4.302 3.164s2.75-6.801 7.995-6.66c5.245.14 8.411 4.295 8.411 4.295L46.23 57.003H7.662l-5.68 21.595Z" fill="#6D3C0F" fill-rule="nonzero"/><path d="M37.184 62.035c-2.153 8.857-2.696 17.96-9.516 17.96-6.807 0-7.286-8.15-9.16-17.26-1.71-8.326 3.688-13.882 9.16-13.882 1.758.014 3.482.49 4.998 1.38 3.448 2.008 5.897 6.13 4.518 11.802Z" fill="#B26734" fill-rule="nonzero"/><path d="M34.465 64.423c0 6.405-4.473 13.526-7.833 12.067-3.529-1.535-5.396-6.089-6.097-12.725-.668-6.332 3.37-11.026 6.88-11.026s7.05 5.28 7.05 11.684Z" fill="#BD6E35" fill-rule="nonzero"/><path d="m32.395 42.055 10.252 1.614 6.608 1.007 1.782 1.827v3.235l-.334 4.024-5.589 2.012-4.35.288c1.273-12.941-8.369-14.007-8.369-14.007Z" fill="#B26734" fill-rule="nonzero"/><path fill="#A56032" fill-rule="nonzero" d="m20.643 42.518 4 8.627 4.035 4.228 3.277-4.566 3.777-8.289-5.487-.92-5.342.395z"/><path d="M36.617 55.856s1.052 5.412-1.021 6.102c-2.074.69-4.032-4.486-4.032-4.486h-4.376l-.116-2.76 7.141-1.381 2.404 2.525Z" fill="#3A3A3A" fill-rule="nonzero"/><path d="M18.93 55.856s-1.051 5.412 1.021 6.102c2.073.69 4.032-4.486 4.032-4.486h4.377l.115-2.76-7.141-1.381-2.404 2.525Z" fill="#3A3A3A" fill-rule="nonzero"/><path fill="#444" fill-rule="nonzero" d="m20.989 56.896 1.036-.69.461-.575h10.597l.345.576.922.46-.691-3.221-7.026-.46-4.723.46z"/><path d="M36.564 54.088s.576 2.473-1.152 2.988c-1.728.515-2.306-3.052-2.306-3.052l1.27-.348 2.188.412Zm-17.649 0s-.576 2.473 1.151 2.988c1.728.515 2.307-3.052 2.307-3.052l-1.27-.348-2.188.412Z" fill="#515151" fill-rule="nonzero"/><path fill="#303030" fill-rule="nonzero" d="M29.988 51.95h4.708l1.958 2.186-2.073.115-2.535-.345-1.958.23zm-4.392 0h-4.708l-1.958 2.186 2.074.115 2.534-.345 1.958.23z"/><path fill="#515151" fill-rule="nonzero" d="M30.088 54.136h-4.723L24.33 51.95h7.026z"/><circle fill="#AAA" fill-rule="nonzero" cx="29.973" cy="52.755" r="1"/><rect fill="#AAA" fill-rule="nonzero" x="27.208" y="53.446" width="1.152" height="1" rx=".076"/><path d="M20.338 56.599c.357-.656.59-1.373.686-2.113.009-.076-.106-.076-.115 0a5.887 5.887 0 0 1-.667 2.055c-.035.064.064.123.1.058h-.004Zm14.842-.059a5.885 5.885 0 0 1-.666-2.054c-.01-.076-.125-.076-.115 0a6.03 6.03 0 0 0 .685 2.113c.035.065.135.007.1-.058h-.004Z" fill="#3A3A3A" fill-rule="nonzero"/><path d="M23.635 52.996c-10.08 9.777-12.227 28.953-12.227 28.953s-1.944-8.68-3.886-9.004c-2.592-.431-5.484 5.308-5.484 5.308s2.616-10.688 1.677-14.45C2.833 60.258-1.97 54.86.909 48.246c0 0 2.559-4.186 9.026-4.795 0 0-19.898 6.047 13.17 9.259h1.103l-.573.286Z" fill="#A4571F" fill-rule="nonzero"/><path d="M20.948 54.222C12.93 62 11.335 77.99 11.335 77.99s-1.824-6.907-3.37-7.164c-2.062-.343-4.502 4.167-4.502 4.167s2.758-8.636 1.475-11.44C1.195 55.372.965 53.156 1.314 51.004c0 0 .006-3.923 3.786-5.62 0 0-10.875 5.85 15.435 8.405h.868l-.455.432Z" fill="#904A04" fill-rule="nonzero"/><path d="M38.18 52.296s2.074-3.22 7.488-1.496c5.414 1.726-2.995 3.221-2.995 3.221l-4.493-1.725Z" fill="#6D3C0F" fill-rule="nonzero"/><path d="M31.362 52.88c10.078 9.778 12.226 28.954 12.226 28.954s1.944-8.68 3.887-9.004c2.59-.431 5.487 5.308 5.487 5.308s-2.616-10.688-1.677-14.45c.882-3.545 5.685-8.944 2.806-15.558 0 0-2.559-4.186-9.026-4.794 0 0 19.898 6.047-13.17 9.258h-1.11l.577.286Z" fill="#A4571F" fill-rule="nonzero"/><path d="M34.048 54.107c8.019 7.778 9.613 23.768 9.613 23.768s1.824-6.907 3.37-7.165c2.062-.343 4.503 4.168 4.503 4.168s-2.76-8.636-1.477-11.438c3.744-8.182 3.974-10.395 3.626-12.547 0 0-.006-3.923-3.787-5.62 0 0 10.875 5.85-15.436 8.405h-.867l.455.43Z" fill="#904A04" fill-rule="nonzero"/><path d="M14.808 43.35s1.67 3.196 8.154 3.196c.305 0-.677-.488-.677-.488s-4.185.24-6.812-2.765c-.284-.324-.665.056-.665.056Z" fill="#A56032" fill-rule="nonzero"/><path fill="#A4571F" fill-rule="nonzero" d="M6.858 50.992v2.956l1.437-2.522zm-.898-.628V52.5l1.039-1.825zm42.178.513v2.956l-1.437-2.522zm.898-.629v2.138l-1.039-1.825z"/><path fill="#824009" fill-rule="nonzero" d="m20.903 41.468-.286 1.017 2.445.033.115-.92zm14.902-.072-.084 1.141-2.088-.403.141-.88z"/><path d="M24.417 80.64c-.966 2.831-1.647 4.824-3.185 4.824-1.537 0-3.132-2.797-3.132-5.789 0-2.991 1.398-6.84 2.936-6.84s4.461 4.64 3.381 7.804Z" fill="#B26734" fill-rule="nonzero"/><path fill="#B26734" fill-rule="nonzero" d="m22.863 86.66-3.199-.29.832-2.41 2.101-.085z"/><path d="m19.756 86.104 3.092.409L24.251 90c-3.438-3.756-6.875-.539-6.875-.539l2.38-3.357Z" fill="#A4571F" fill-rule="nonzero"/><path d="M19.932 87.704S18.89 89.24 19.246 90l1.152-1.148 1.358-1.148h-1.824Z" fill="#A4571F" fill-rule="nonzero"/><path d="M30.953 80.098c.852 2.868 1.206 4.954 2.744 4.954 1.537 0 3.132-2.798 3.132-5.79 0-2.99-1.399-6.842-2.936-6.842s-3.876 4.528-2.94 7.678Z" fill="#B26734" fill-rule="nonzero"/><path fill="#B26734" fill-rule="nonzero" d="m32.066 86.25 3.198-.291-.832-2.41-2.1-.085z"/><path d="m35.173 85.693-3.093.41-1.402 3.487c3.437-3.757 6.875-.54 6.875-.54l-2.38-3.357Z" fill="#A4571F" fill-rule="nonzero"/><path d="M34.737 87.35s1.044 1.536.686 2.295l-1.153-1.148-1.358-1.148h1.825Z" fill="#A4571F" fill-rule="nonzero"/><rect fill="#3F3F3F" fill-rule="nonzero" x="21.104" y="46.275" width="3.34" height="1.495" rx=".47"/><path d="M38.718 18.775s0-.8-1.63-1.039c-.664-.098-4.505-.053-4.505-.053l-1.195-2.633s5.298.06 6.967.874c1.67.814 1.297 2.083 1.145 3.384m-24.812 1.028s-.106-.792 1.48-1.241c.647-.183 4.46-.636 4.46-.636l1.559-2.811s-5.96.792-7.51 1.814c-1.55 1.022-1.014 2.232-.695 3.5" fill="#303030" fill-rule="nonzero"/><path d="M20.43 39.435c-.1.305.335.773.496.975 1.266 1.587 2.257 3.37 3.373 5.065.486.739 3.577 5.271 4.524 4.265 1.613-1.712 2.8-3.824 3.963-5.86 1.22-2.137 2.301-4.368 2.98-6.738a.632.632 0 0 0 .036-.246c-.077-.64-2.842-.693-3.365-.773l-1.587-.243c-.143-.022-.509-.152-.65-.1l-7.419 2.751-1.472.546c-.2.076-.749.107-.858.313a.286.286 0 0 0-.021.045Z" fill="#B26734" fill-rule="nonzero"/><path fill="#A4571F" fill-rule="nonzero" d="m21.504 40 4.383 6.89 1.076.947 1.352 1.18 1.341-1.355 3.835-6.013 1.998-4.762-5.57-.769z"/><path fill="#CB63D3" fill-rule="nonzero" d="m32.66 42.023-9.329-.46 2.42 4.946.92.92 1.267 1.035.807-.69.576-.575.576-.805"/><path fill="#B25F8C" fill-rule="nonzero" d="m25.98 45.205.807 1.38 1.036 1.035 3.903-3.45-4.478-.46z"/><path d="M28.883.004c-.353.048-.74.474-.914.685-2.462 2.995-3.958 6.652-5.251 10.305-.702 1.986-1.356 3.992-2.118 5.96-.74 1.921-1.769 3.73-2.427 5.664-.744 2.19-1.012 4.532-.884 6.839.184 3.324.654 7.45 3.066 9.979a5027.55 5027.55 0 0 0 6.348 6.648l1.575 1.242 1.61-1.446s4.3-3.812 4.767-5.499c.468-1.686.491-1.563.887-2.453.395-.89 1.038-.95 1.524-3.431 1.174-5.972-.934-12.05-3.017-17.6-1.178-3.14-2.43-6.266-3.228-9.524-.343-1.406-.601-2.83-.89-4.248a54.302 54.302 0 0 0-.469-2.116c-.06-.246-.085-.85-.35-.973a.412.412 0 0 0-.229-.032Z" fill="#BD6E35" fill-rule="nonzero"/><path d="M29.192.093c.273.355-.142.627-.102 1.057a59.29 59.29 0 0 0 .636 4.748 58.738 58.738 0 0 0 1.435 6.188c1.63 5.623 4.122 11.118 4.268 16.971.152 5.967-2.196 11.773-5.471 16.767 3.505-3.004 6.074-6.365 7.183-11.623.616-2.92.322-6.053-.321-8.966-.315-1.425-1.018-2.714-1.394-4.102-.412-1.522-.91-3.024-1.435-4.512-1.053-2.978-2.23-5.916-3.113-8.952-.586-2.016-.778-4.124-1.29-6.164-.034-.134-.188-1.728-.706-1.466" fill="#B26734" fill-rule="nonzero"/><path d="M22.97 32.193c.056.87-.543 1.618-1.34 1.67-.798.051-1.489-.61-1.546-1.482-.057-.873.584-1 1.38-1.052.798-.052 1.449-.004 1.506.864Zm12.643-.753c.06.91-.6 1.69-1.473 1.751-.872.06-1.628-.634-1.687-1.542-.059-.908.64-1.073 1.513-1.13.874-.055 1.587.014 1.647.922Z" fill="#FFF" fill-rule="nonzero"/><circle fill="#91562D" fill-rule="nonzero" transform="rotate(-18.07 25.17 38.824)" cx="25.169" cy="38.824" r="1"/><circle fill="#91562D" fill-rule="nonzero" transform="rotate(-71.93 30.669 38.814)" cx="30.669" cy="38.814" r="1"/><circle fill="#232323" fill-rule="nonzero" cx="21.968" cy="32.971" r="1"/><circle fill="#232323" fill-rule="nonzero" cx="33.722" cy="32.193" r="1"/><path d="m36.802 24.989 1.509-.098a.281.281 0 0 1 .298.262l.562 8.622a.28.28 0 0 1-.262.298l-1.51.098a.281.281 0 0 1-.298-.262l-.56-8.622a.28.28 0 0 1 .261-.298Z" fill="#3F3F3F" fill-rule="nonzero"/><path fill="#161616" fill-rule="nonzero" d="m38.967 25.31.69-.045.53 8.15-.69.044z"/><path d="m39.92 25.823.694-.045a.228.228 0 0 1 .243.213l.441 6.776a.228.228 0 0 1-.213.242l-.693.045a.228.228 0 0 1-.243-.213l-.441-6.775a.228.228 0 0 1 .213-.243Z" fill="#161616" fill-rule="nonzero"/><path fill="#303030" fill-rule="nonzero" d="m38.464 34.33-.053-1.61.415-.718-.411-6.313-.686-.763-.072-.226.912-.174.598.307.583 8.953-.545.496zm.802-9.965.334.9.546 8.38-.366.6 1.02-.297-.599-9.182zm-.533-5.598.785.33.406 5.079-.69.11z"/><path fill="#303030" fill-rule="nonzero" d="m39.252 24.366-.005-1.844.954 2.244zm-25.816 8.018.384-.025a.21.21 0 0 1 .224.197l.085 1.3a.21.21 0 0 1-.197.225l-.384.024a.21.21 0 0 1-.224-.196l-.085-1.301a.21.21 0 0 1 .197-.224Z"/><path d="M13.189 31.823S7.362 48.8 23 47.783l.343-.02-.068-1.033s-12.744 2.784-9.593-12.634c.505-2.472-.142-2.181-.142-2.181l-.352-.092Z" fill="#303030" fill-rule="nonzero"/><path d="m17.99 35.428-1.508.098a.281.281 0 0 1-.298-.262l-.562-8.621a.28.28 0 0 1 .262-.299l1.509-.098a.281.281 0 0 1 .298.262l.562 8.622a.28.28 0 0 1-.262.298Z" fill="#3F3F3F" fill-rule="nonzero"/><path fill="#161616" fill-rule="nonzero" d="m15.82 34.994-.69.045-.53-8.15.69-.044zm-.94-.285-.694.045a.228.228 0 0 1-.242-.213l-.441-6.776a.228.228 0 0 1 .213-.243l.693-.045a.228.228 0 0 1 .243.213l.44 6.776a.228.228 0 0 1-.212.243Z"/><path fill="#303030" fill-rule="nonzero" d="m16.958 35.728-.156-1.604-.505-.659-.411-6.313.58-.844.042-.234-.927-.055-.553.382.584 8.953.604.422zM14.87 25.95l-.215.936.545 8.38.442.547-1.05-.162-.598-9.183zm-.169-5.622-.725.582.216 4.937.7.02z"/><path fill="#303030" fill-rule="nonzero" d="m14.883 25.95-.234-1.83-.655 2.348z"/><path d="M17.802 24.187c.564-.38 1.296-.432 1.951-.513.762-.093 1.524-.138 2.27.06.645.173.921-.826.276-.998-.884-.235-1.785-.196-2.684-.08-.8.104-1.651.172-2.336.636-.549.373-.03 1.27.523.895Zm14.37-.829a5.997 5.997 0 0 1 3.899-.232c.643.18.914-.82.275-.999a6.93 6.93 0 0 0-4.448.233c-.261.105-.439.344-.362.636.066.247.381.467.638.362h-.002Z" fill="#7C441E" fill-rule="nonzero"/><g transform="translate(16.68 23.584)"><path d="M12.696 6.985c-.028-.533-.991-1.176-2.134-1.118-1.143.057-2.04.792-2.013 1.326.027.534.915-.267 2.064-.324 1.149-.057 2.11.65 2.083.116Z" fill="#232323" fill-rule="nonzero"/><ellipse fill="#FFF" fill-rule="nonzero" transform="rotate(-2.88 4.767 6.372)" cx="4.767" cy="6.372" rx="4.052" ry="5.592"/><ellipse fill="#FFF" fill-rule="nonzero" transform="rotate(-2.88 16.407 5.788)" cx="16.407" cy="5.788" rx="4.052" ry="5.592"/><path d="m8.506 6.402 4.149-.208"/><path d="M2.294 2.426c-.625.901-1.002 1.39-1.422 1.411-.42.021-.826-.746-.871-1.663-.046-.917 2.631-1.053 3.055-1.074.424-.022-.617 1.118-.762 1.326Zm15.969-.802c.712.837 1.137 1.282 1.56 1.26.424-.02.747-.823.7-1.74C20.479.227 17.8.359 17.377.383c-.424.023.72 1.048.887 1.24Z" fill="#232323" fill-rule="nonzero"/></g><ellipse fill="#232323" fill-rule="nonzero" cx="21.611" cy="33.215" rx="1.372" ry="1.37"/><ellipse fill="#232323" fill-rule="nonzero" cx="33.479" cy="32.62" rx="1.502" ry="1.5"/><circle fill="#FFF" fill-rule="nonzero" cx="21.909" cy="33.858" r="1"/><circle fill="#FFF" fill-rule="nonzero" cx="33.104" cy="33.358" r="1"/><circle fill="#FFC33E" fill-rule="nonzero" transform="rotate(-19.44 17.187 25.623)" cx="17.187" cy="25.623" r="1"/><circle fill="#FFC33E" fill-rule="nonzero" transform="rotate(-64.44 36.693 24.633)" cx="36.693" cy="24.633" r="1"/><path d="M14.808 43.398s-.406-.901-.447-1.196c-.01-.07.499-.096.499-.096l.634 1.167-.686.125Z" fill="#824009" fill-rule="nonzero"/></g></svg>