<svg viewBox="0 0 90 90" xmlns="http://www.w3.org/2000/svg"><g fill="none"><path d="M.152 83.323 26.698 67.98 45 36.425V6c-.483 0-.966.317-1.332.946L21.99 44.326.313 81.703c-.365.63-.4 1.203-.161 1.619" fill="#FF4724"/><path d="M45 6v30.425L63.3 67.98l26.547 15.343c.24-.416.206-.988-.16-1.619L68.01 44.325 46.33 6.946C45.964 6.316 45.481 6 45 6" fill="#9E1F63"/><path d="M89.847 83.323 63.301 67.98H26.699L.152 83.323c.24.418.754.677 1.486.677H88.36c.733 0 1.247-.26 1.487-.677" fill="#662D91"/><path fill="#FFF" d="M26.699 67.98H63.3L45 36.425 26.699 67.979z"/></g></svg>