<svg viewBox="0 0 90 90" xmlns="http://www.w3.org/2000/svg"><defs><linearGradient x1="50%" y1="0%" x2="50%" y2="100%" id="a"><stop stop-color="#2F60A5" offset="0%"/><stop stop-color="#274E91" offset="100%"/></linearGradient></defs><g fill="none" fill-rule="evenodd"><path fill="url(#a)" d="M0 0h90v90H0z"/><g fill="#FFF" fill-rule="nonzero"><path d="M63.05 48.226v17.32h-36.1V19.83h36.1v19.959H69V15.943c0-.515-.209-1.01-.58-1.374A2.004 2.004 0 0 0 67.016 14H22.983c-.526 0-1.03.205-1.402.57A1.92 1.92 0 0 0 21 15.943v58.114c0 .515.209 1.01.58 1.374a2.01 2.01 0 0 0 1.403.569h44.034c.526 0 1.03-.205 1.402-.569.372-.364.581-.859.581-1.374V48.226h-5.95Z"/><path d="M73.134 40.787H56.322l-8.64-18.575-9.243 23.025-5.174-12.231-6.448 11.431v11.925a3.653 3.653 0 0 0 1.309-1.347l4.79-7.478L39.01 60.58l8.8-21.992 3.815 8.643h21.532a3.211 3.211 0 0 0 3.211-3.222 3.234 3.234 0 0 0-3.234-3.223Z"/></g></g></svg>