<svg viewBox="0 0 90 90" xmlns="http://www.w3.org/2000/svg"><defs><radialGradient cx="7.813%" cy="6.152%" fx="7.813%" fy="6.152%" r="122.48%" id="a"><stop stop-color="#40CFFF" offset="0%"/><stop stop-color="#8A40FF" offset="100%"/></radialGradient></defs><g fill="none"><path fill="url(#a)" d="M0 0h90v90H0z"/><path d="M39.257 11.543C58.42 11.543 74 27.116 74 46.27S58.42 81 39.257 81a4.355 4.355 0 0 1-4.343-4.341 4.355 4.355 0 0 1 4.343-4.341c10.803 0 20.032-6.566 23.994-15.845a4.42 4.42 0 0 0 .326-1.682 4.355 4.355 0 0 0-4.343-4.341c-1.791 0-3.311 1.085-4.017 2.659-2.606 6.186-8.794 10.527-15.96 10.527a4.355 4.355 0 0 1-4.343-4.341 4.355 4.355 0 0 1 4.343-4.342c4.777 0 8.686-3.906 8.686-8.682 0-4.775-3.909-8.682-8.686-8.682H26.23v39.07A4.355 4.355 0 0 1 21.886 81a4.355 4.355 0 0 1-4.343-4.341v-43.41a4.355 4.355 0 0 1 4.343-4.342h17.371c7.166 0 13.354 4.341 16.014 10.581a4.348 4.348 0 0 0 4.018 2.66 4.355 4.355 0 0 0 4.342-4.342c0-.597-.108-1.194-.325-1.682-4.017-9.333-13.246-15.9-24.049-15.9a4.355 4.355 0 0 1-4.343-4.34 4.355 4.355 0 0 1 4.343-4.341ZM21.886 11A4.885 4.885 0 1 1 17 15.884 4.885 4.885 0 0 1 21.886 11Z" fill="#FFF"/></g></svg>