<svg viewBox="0 0 90 90" xmlns="http://www.w3.org/2000/svg"><g fill="none"><path fill="#4C4C4C" d="M90 83.235V6H0v77.235z"/><path fill="#FFF" d="m80.175 16-.916 55.931L10.175 73l.472-56.877z"/><path fill="#CCC" d="m32.734 52.073 4.595 5.948-25.314 19.326L7.419 71.4zm23.301-.677 25.314 18.82-4.518 6.005-25.315-18.82z"/><path fill="#310035" d="M90 6H0l43.734 63.182z"/><path fill="#FFF" d="m14.326 13.169 60.897.156-31.305 42.842z"/><path d="M44.1 10.54c-10.542 0-19.088 8.494-19.088 18.973 0 10.478 8.546 18.973 19.088 18.973 10.541 0 19.087-8.495 19.087-18.973 0-10.479-8.546-18.974-19.087-18.974Z" fill="#000"/><path d="M44.1 12.206c9.615 0 17.41 7.748 17.41 17.307 0 9.558-7.795 17.306-17.41 17.306-9.616 0-17.411-7.748-17.411-17.306 0-4.682 1.87-8.93 4.908-12.045l.386-.383A17.408 17.408 0 0 1 44.1 12.206Z" fill="#ED9FF4"/><path d="M44.1 18.851c-6.478 0-11.73 5.22-11.73 11.66 0 6.439 5.252 11.659 11.73 11.659 6.477 0 11.729-5.22 11.729-11.66 0-6.439-5.252-11.659-11.73-11.659Z" fill="#000"/><path d="M37.077 22.763c-1.764 0-3.174 1.468-3.174 3.256 0 1.788 1.41 3.256 3.174 3.256s3.173-1.468 3.173-3.256c0-1.788-1.41-3.256-3.173-3.256Z" fill="#000"/><path d="M36.685 25.146c.6 0 1.106.527 1.106 1.2 0 .673-.506 1.2-1.106 1.2-.6 0-1.105-.527-1.105-1.2 0-.673.506-1.2 1.105-1.2Z" fill="#FFF"/></g></svg>