<svg xmlns="http://www.w3.org/2000/svg" viewBox="0 0 90 90"><path fill="#4A5E6D" d="M0 0h90v90H0z"/><path fill="#FFF" d="M20.22 20.22a34.75 34.75 0 00-7.64 11.63 34.92 34.92 0 007.64 37.85 34.92 34.92 0 0049.55 0 33.93 33.93 0 007.65-11.55 34.92 34.92 0 000-26.3 34.75 34.75 0 00-7.64-11.63 34.74 34.74 0 00-11.63-7.64 34.92 34.92 0 00-26.3 0 34.74 34.74 0 00-11.63 7.64zm45.1 45.1A29.06 29.06 0 0145 73.68a29.06 29.06 0 01-20.32-8.34l7.26-7.26a17.66 17.66 0 006.16 4.06 17.72 17.72 0 0013.9 0 16.9 16.9 0 006.08-4.06 17.66 17.66 0 004.06-6.16 17.72 17.72 0 000-13.9 16.9 16.9 0 00-4.06-6.08L31.93 58.07a17.66 17.66 0 01-4.06-6.16 17.72 17.72 0 010-13.9 17.84 17.84 0 014.06-6.08 17.66 17.66 0 016.16-4.06 17.72 17.72 0 0113.9 0 16.9 16.9 0 016.08 4.06l7.26-7.26a29.2 29.2 0 016.4 9.44c1.4 3.54 2.1 7.14 2.1 10.81 0 3.67-.7 7.27-2.1 10.81a29.84 29.84 0 01-6.4 9.6z"/></svg>