<svg viewBox="0 0 90 90" xmlns="http://www.w3.org/2000/svg"><g fill="none" fill-rule="evenodd"><path fill="#300D4E" d="M0 0h90v90H0z"/><path d="M45 79.9V62.354a.1.1 0 0 1 .053-.09L67.447 49.24a.102.102 0 0 0 .053-.09v-4.99a.103.103 0 0 0-.155-.09l-22.19 12.9a.103.103 0 0 1-.156-.09L45 51.887c0-.038.02-.072.053-.09l22.394-13.022a.108.108 0 0 0 .053-.09v-4.99a.105.105 0 0 0-.155-.091l-22.19 12.9a.103.103 0 0 1-.156-.09l.001-4.99c0-.038.02-.073.053-.091l22.394-13.015a.104.104 0 0 0 .053-.09v-5.06a.22.22 0 0 0-.103-.18l-22.294-12.96a.203.203 0 0 0-.206 0l-4.24 2.465a.104.104 0 0 0 0 .181l22.188 12.9a.106.106 0 0 1 0 .181l-4.241 2.466a.218.218 0 0 1-.208 0L36.104 15.26a.218.218 0 0 0-.22 0l-4.227 2.463a.104.104 0 0 0 0 .181L53.84 30.807a.104.104 0 0 1 0 .181l-4.238 2.466a.218.218 0 0 1-.22 0l-22.28-12.962a.218.218 0 0 0-.22 0L22.5 23.047v43.894c0 .038.02.072.053.09l4.291 2.497a.102.102 0 0 0 .156-.09V25.845a.102.102 0 0 1 .156-.09l4.293 2.496c.031.019.05.053.05.09v43.832c0 .037.02.072.053.09l4.291 2.496c.033.02.073.02.106 0a.106.106 0 0 0 .052-.092v-43.59a.102.102 0 0 1 .156-.09l4.29 2.494a.104.104 0 0 1 .053.09v43.835c0 .037.02.07.05.09l4.305 2.494A.103.103 0 0 0 45 79.9Z" fill="#00DC73" fill-rule="nonzero"/></g></svg>