<svg viewBox="0 0 90 90" xmlns="http://www.w3.org/2000/svg"><g fill="none" fill-rule="evenodd"><path fill="#FA725C" fill-rule="nonzero" d="M0 0h90v90H0z"/><circle fill="#146FAE" cx="45" cy="45" r="22"/><path d="M26.273 56.552a22.157 22.157 0 0 0 2.162 2.926l-.206.41-.705 1.437a129.199 129.199 0 0 0-3.553 7.937l-.293.734-.376.972-.35.941-.447 1.265-.288.863-.213.666-.197.644-.18.62-.166.597-.15.572-.133.548-.12.522-.104.497-.089.47-.106.655-.064.497-.01.095-.032.359-.017.33-.004.153v.147l.01.27c.035.509.151.833.343.953.17.107.46.088.854-.052l.153-.058.247-.11.131-.064.137-.07.29-.16.388-.236.42-.276.176-.121.365-.262.384-.286.4-.311.418-.336.433-.361.45-.385.463-.41.478-.435.492-.459.763-.733.791-.788.817-.841.558-.591.569-.615a122.778 122.778 0 0 0 5.532-6.528l.576-.73 1.106-1.427a21.97 21.97 0 0 0 3.482.79l-1.055 1.386c-2.319 3.014-4.577 5.747-6.712 8.118l-.846.927-.62.665-.608.64-.598.616-.588.59-.86.84-.56.527-.55.501-.27.241-.267.235-.528.449c-.487.406-.96.778-1.418 1.115l-.341.245-.478.327c-2.6 1.724-4.702 2.186-6.296 1.19-1.54-.963-2.065-2.946-1.73-5.864l.038-.317.085-.573c.088-.545.202-1.119.342-1.721l.11-.457.172-.67.093-.344.098-.349.265-.895.057-.183.238-.745.255-.766.274-.787.291-.807.309-.828.325-.848.17-.432c1.15-2.914 2.574-6.104 4.228-9.479l.419-.847.97-1.925Zm34.644-26.739a22.1 22.1 0 0 1 2.247 2.771l-.213.426c-.339.665-.685 1.337-1.04 2.014l-.537 1.02-.828 1.543-.424.778-.43.781-.876 1.574c-.494.877-1 1.76-1.514 2.649l-.78 1.335-.957 1.61a252.005 252.005 0 0 1-4.179 6.735l-.854 1.32-1.028 1.565a231.62 231.62 0 0 1-1.717 2.557l-.859 1.252-1.03 1.478-.513.73-.514.72-1.024 1.421c-.455.625-.908 1.24-1.36 1.846l-.629.84a21.865 21.865 0 0 1-3.48-.792l.863-1.135.996-1.333.5-.679 1.005-1.381a225.964 225.964 0 0 0 5.314-7.714l.759-1.158 1.009-1.562 1.005-1.582.501-.799.498-.8.982-1.597.962-1.593a230.843 230.843 0 0 0 4.694-8.204l.617-1.143.801-1.508.39-.747.762-1.48.37-.732.511-1.026Zm2.524-24.012c2.6-1.724 4.702-2.186 6.296-1.19 1.54.963 2.065 2.946 1.73 5.864l-.038.317-.085.573a25.713 25.713 0 0 1-.342 1.721l-.11.457-.172.67-.093.344-.098.349-.265.895-.057.183-.238.745-.255.766-.274.787-.291.807-.309.828-.325.848-.17.432c-1.15 2.914-2.574 6.104-4.228 9.479l-.419.847-.534 1.061a22.106 22.106 0 0 0-2.247-2.771l.56-1.138a129.199 129.199 0 0 0 3.552-7.937l.293-.734.376-.972.35-.941.447-1.265.288-.863.213-.666.197-.644.18-.62.166-.597.15-.572.133-.548.12-.522.104-.497.089-.47.106-.655.064-.497.01-.095.032-.359.017-.33.004-.153V8.59l-.01-.27c-.035-.509-.151-.833-.343-.953-.17-.107-.46-.088-.854.052l-.153.058-.247.11-.131.064-.137.07-.29.16-.388.236-.42.276-.176.121-.365.262-.384.286-.4.311-.418.336-.433.361-.45.385-.463.41-.478.435-.492.459-.763.733-.791.788-.817.841-.558.591-.569.615a122.778 122.778 0 0 0-5.532 6.528l-.576.73-.923 1.188a21.914 21.914 0 0 0-3.581-.663l.97-1.274c2.32-3.014 4.578-5.747 6.713-8.118l.846-.927.62-.665.608-.64.598-.616.588-.59.86-.84.56-.527.55-.501.27-.241.267-.235.528-.449c.487-.406.96-.778 1.418-1.115l.341-.245.478-.327Z" fill="#FFF" fill-rule="nonzero"/><circle fill="#FFF" cx="71" cy="31" r="3"/></g></svg>