<svg xmlns="http://www.w3.org/2000/svg" viewBox="0 0 90 90"><path fill="#17A0D8" d="M0 0h90v90H0z"/><g fill="#040404"><path d="M15.64 72.12c-.37-1.42-.57-2.79-.73-4.17a30 30 0 011.94-15.16c3.15-7.64 8.52-13.2 15.92-16.84A46 46 0 0144.3 32.2c.24.3.14.67.18 1 .08.6.1 1.2.19 1.8.06.45-.11.6-.54.7-2.68.63-5.29 1.47-7.81 2.58-6.67 2.96-11.8 7.56-15.1 14.12a27.13 27.13 0 00-2.87 13.95c.08 1.33.21 2.65.46 3.96.08.43 0 .69-.47.83-.87.28-1.73.63-2.7.98m13.84 9.75c.03-1.02.07-1.94.08-2.86 0-.44.18-.58.6-.65 2.6-.42 5.16-1.07 7.58-2.14 8.82-3.9 14.52-10.5 16.95-19.85.97-3.74 1.13-7.55.84-11.39l-.04-.69c0-.4-.29-.89 0-1.16.26-.25.75-.26 1.14-.36l2.07-.51c.3 1.36.39 2.71.47 4.06a40.6 40.6 0 01-.34 8.5 31.06 31.06 0 01-8.13 16.85c-4.75 5.13-10.65 8.17-17.44 9.6-1.2.25-2.43.45-3.78.6m29.27-57.24c.3.01.45-.15.62-.26 4.06-2.44 8.28-4.58 12.41-6.88.26-.14.48-.23.78-.04.89.58 1.8 1.12 2.76 1.72-.23.23-.5.32-.72.44L58.9 27.73c-.45.24-.79.54-1.07.97-1.94 3.02-3.9 6.03-5.86 9.04-.35.53-.36.54-.87.22l-1.65-1.02c-.54-.33-.54-.34-.2-.86l3.7-5.72c.75-1.15 1.49-2.3 2.25-3.44.22-.34.34-.67.36-1.08.35-5.76.72-11.51 1.08-17.27l.06-.83c.81.38 1.46.96 2.23 1.3.9.4 1.08 1 1 1.94-.34 3.74-.59 7.48-.88 11.22-.06.8-.19 1.6-.3 2.43"/><path d="M37.51 49.11c-.14 1.4-1.76 3.24-3.12 3.52-1.02.21-1.9-.09-2.58-.87a2.3 2.3 0 01-.41-2.52 4.9 4.9 0 012.4-2.64c.89-.44 1.8-.36 2.62.21.8.56 1.22 1.3 1.1 2.3m10.16 6.61c-.12 1.43-1.76 3.3-3.16 3.58-.99.2-1.84-.1-2.52-.84a2.24 2.24 0 01-.44-2.43 4.88 4.88 0 012.5-2.77 2.54 2.54 0 013.62 2.46"/></g></svg>