<svg viewBox="0 0 90 90" xmlns="http://www.w3.org/2000/svg"><g fill="none"><path fill="#59BB0C" d="M0 0h90v90H0z"/><path d="M17.003 33c1.597-.009 3.18.291 4.66.883a12.071 12.071 0 0 1 3.823 2.422 11.448 11.448 0 0 1 2.582 3.617c.632 1.407.952 2.93.938 4.47a10.65 10.65 0 0 1-.75 3.961 11.56 11.56 0 0 1-2.047 3.353l2.082 2.049a1.88 1.88 0 0 1 0 2.68 1.945 1.945 0 0 1-1.373.565c-.515 0-1.01-.203-1.372-.565l-2.292-2.29a12.32 12.32 0 0 1-2.96 1.227c-1.072.286-2.18.429-3.29.425a12.225 12.225 0 0 1-8.483-3.323 11.598 11.598 0 0 1-2.583-3.632A10.62 10.62 0 0 1 5 44.392a10.674 10.674 0 0 1 .938-4.47 11.495 11.495 0 0 1 2.575-3.617 11.972 11.972 0 0 1 3.802-2.422A12.346 12.346 0 0 1 17.003 33Zm58.852 5.986a8.11 8.11 0 0 1 1.737.184 8.82 8.82 0 0 1 1.542.477c.46.192.9.43 1.312.708.38.256.739.542 1.071.855l.23-1.748H85v15.845h-3.254l-.22-1.739a8.126 8.126 0 0 1-2.408 1.562 8.51 8.51 0 0 1-3.26.663 9.116 9.116 0 0 1-3.53-.657 8.13 8.13 0 0 1-2.714-1.793 8.142 8.142 0 0 1-1.752-2.671 8.558 8.558 0 0 1-.618-3.272 8.665 8.665 0 0 1 .618-3.273 7.967 7.967 0 0 1 1.752-2.671 8.306 8.306 0 0 1 2.714-1.81 9.093 9.093 0 0 1 3.527-.66Zm-17.488-5.378v4.868h5.536v3.49H58.35v6.989a5.094 5.094 0 0 0 .244 1.702c.134.402.363.766.668 1.063.274.258.606.448.97.554.305.086.619.138.935.154l.238.005 2.455-.002v3.323h-2.843a9.055 9.055 0 0 1-1.989-.205l-.325-.077a5.07 5.07 0 0 1-2.144-1.038 5.114 5.114 0 0 1-1.444-2.067c-.324-.803-.5-1.814-.527-3.035l-.003-.338v-7.029h-2.547v-3.489h2.546v-4.868h3.783ZM38.19 41.755V55.33h-3.71V41.755h3.71Zm9.236 0V55.33h-3.71V41.755h3.71Zm28.767.476a5.38 5.38 0 0 0-2.02.379 4.919 4.919 0 0 0-1.633 1.061 4.994 4.994 0 0 0-1.095 1.625 5.27 5.27 0 0 0-.4 2.088v.002a5.31 5.31 0 0 0 .407 2.093 4.98 4.98 0 0 0 1.11 1.64c.471.457 1.03.819 1.643 1.063a5.555 5.555 0 0 0 4.021 0 4.904 4.904 0 0 0 1.635-1.063 5.085 5.085 0 0 0 1.103-1.632 5.28 5.28 0 0 0 .405-2.101 5.212 5.212 0 0 0-.405-2.072 4.902 4.902 0 0 0-1.112-1.624 5.235 5.235 0 0 0-3.659-1.459Zm-59.19-5.782a7.954 7.954 0 0 0-5.615 2.29 7.942 7.942 0 0 0-2.33 5.667 7.898 7.898 0 0 0 2.33 5.655 7.927 7.927 0 0 0 2.519 1.678c.978.41 2.032.617 3.096.61a7.94 7.94 0 0 0 5.626-2.288 7.813 7.813 0 0 0 1.688-2.518 7.909 7.909 0 0 0 .62-3.139 7.97 7.97 0 0 0-.62-3.138 7.758 7.758 0 0 0-4.21-4.204 7.943 7.943 0 0 0-3.104-.613Zm19.332-1.765c1.272 0 2.303 1.015 2.303 2.267s-1.031 2.267-2.303 2.267-2.303-1.015-2.303-2.267 1.03-2.267 2.303-2.267Zm9.236 0c1.272 0 2.303 1.015 2.303 2.267s-1.03 2.267-2.303 2.267c-1.272 0-2.303-1.015-2.303-2.267s1.031-2.267 2.303-2.267Z" fill="#FFF"/></g></svg>