<svg viewBox="0 0 90 90" xmlns="http://www.w3.org/2000/svg"><g fill="none"><path d="m89.068 75.914-11.737-9.84c4.073-6.47 6.488-14.109 6.488-22.298C83.82 20.719 65.04 2 41.91 2S0 20.719 0 43.776C0 66.83 18.78 85.549 41.91 85.549a41.85 41.85 0 0 0 24.166-7.64l12.496 10.463s1.865 1.583 3.454-.276l7.457-8.81c-.07 0 1.448-1.857-.415-3.372ZM67.664 43.776c0 14.176-11.53 25.668-25.754 25.668-14.223 0-25.755-11.492-25.755-25.668 0-14.179 11.532-25.671 25.755-25.671 14.224 0 25.754 11.492 25.754 25.67Z" fill="#009848"/><path d="M25.338 43.776c0-9.085 7.388-16.449 16.502-16.449 9.114 0 16.502 7.364 16.502 16.449 0 9.084-7.388 16.448-16.502 16.448-9.114 0-16.502-7.364-16.502-16.448Z" fill="#54565B"/></g></svg>