<svg xmlns="http://www.w3.org/2000/svg" viewBox="0 0 90 90"><path fill="#FFF" d="M0 0h90v90H0z"/><path d="M76 74.668 57.748 56.451A17.73 17.73 0 0 0 61.928 45c0-9.835-8.016-17.84-17.873-17.84-9.856 0-17.873 8.003-17.873 17.84 0 9.838 8.017 17.84 17.873 17.84a17.79 17.79 0 0 0 10.242-3.233l5.366 5.356a25.28 25.28 0 0 1-15.609 5.37c-13.993 0-25.381-11.365-25.381-25.333 0-13.969 11.387-25.335 25.383-25.335 13.997 0 25.382 11.365 25.382 25.335 0 4.77-1.327 9.233-3.632 13.048l3.387 3.38A29.776 29.776 0 0 0 74.113 45c0-16.542-13.483-30-30.055-30C27.484 15 14 28.458 14 45.001S27.484 75 44.058 75c7.17 0 13.763-2.52 18.935-6.718l6.4 6.387H76ZM30.86 45.001c0-7.264 5.92-13.174 13.198-13.174 7.278 0 13.2 5.91 13.2 13.174 0 7.265-5.92 13.174-13.2 13.174-7.279 0-13.199-5.912-13.199-13.174Z" fill="#D9552B"/></svg>