<svg viewBox="0 0 90 90" xmlns="http://www.w3.org/2000/svg" xmlns:xlink="http://www.w3.org/1999/xlink"><defs><path id="a" d="M0 0h90v90H0z"/></defs><g fill="none" fill-rule="evenodd"><path d="M0 0h90v90H0z"/><mask id="b" fill="#fff"><use xlink:href="#a"/></mask><g mask="url(#b)"><path d="M63.754 11.913v-.05h-2.017c-.076 0-.143-.006-.217-.006v.006H21.057c-13.861 0-20.78 5.59-20.78 16.764v30.779c0 11.104 6.922 16.66 20.78 16.66h40.515v-.02c13.807-.018 20.718-5.564 20.718-16.642V28.626c0-10.566-6.181-16.132-18.536-16.711v-.002Zm-4.435 48.532H25.716V27.132h33.603v33.313Z" fill="#27387D"/><path d="M39.03 51.857s25.52 14.66 30.837 26.286h19.858c-1.646-3.903-11.11-21.268-50.695-26.286Z" stroke="#FFF" stroke-width=".84" fill="#EC2727"/></g></g></svg>