<svg viewBox="0 0 90 90" xmlns="http://www.w3.org/2000/svg"><g fill="none"><path fill="#41CD52" d="M81.35 12H12.485L0 24.485v53.803h77.515L90 65.804V12z"/><path d="M33.497 63.902c-5.92 0-10.061-1.595-12.393-4.785-2.331-3.19-3.497-8.252-3.497-15.123 0-6.902 1.197-12.025 3.559-15.368 2.362-3.344 6.503-5.03 12.33-5.03 5.86 0 9.97 1.656 12.302 5 2.362 3.312 3.527 8.435 3.527 15.367 0 4.57-.49 8.252-1.442 11.043-.981 2.822-2.546 4.97-4.754 6.442l4.785 7.7-5.859 2.73-5.061-8.314c-.736.246-1.902.338-3.497.338Zm-7.393-8.865c1.289 2.208 3.773 3.343 7.424 3.343 3.65 0 6.104-1.104 7.392-3.282 1.258-2.178 1.902-5.89 1.902-11.073 0-5.215-.644-8.988-1.963-11.35-1.32-2.362-3.742-3.528-7.331-3.528-3.559 0-6.013 1.166-7.362 3.528-1.32 2.362-1.994 6.104-1.994 11.288 0 5.154.644 8.865 1.932 11.074Zm45.184-15.675h-7.852v12.546c0 2.331.184 3.865.521 4.632.337.767 1.227 1.135 2.607 1.135l4.663-.184.276 4.97c-2.546.49-4.478.735-5.828.735-3.221 0-5.43-.736-6.626-2.208-1.196-1.473-1.81-4.264-1.81-8.375v-13.22h-4.325v-5.307h4.356v-8.252h6.166v8.252h7.852v5.276Z" fill="#FFF"/></g></svg>