<svg viewBox="0 0 90 90" xmlns="http://www.w3.org/2000/svg"><g fill="none"><path fill="#FFF" d="M0 0h90v90H0z"/><path d="M39.429 63.75h-9.286V37.498L19 48.749v23.44C19 73.74 20.247 75 21.784 75H39.43V63.75Z" fill="#4AAF9D"/><path d="M70.997 35.625V17.81c0-1.551-1.247-2.811-2.784-2.811H52.429L41.286 26.25h18.571v20.626l11.14-11.251Z" fill="#37666D"/><path d="M37.637 15a4.623 4.623 0 0 0-3.283 1.373L20.36 30.503A4.71 4.71 0 0 0 19 33.816v14.936L52.429 15H37.635h.002Z" fill="#408B84"/><path d="M70.997 48.674V35.627L50.571 56.25V43.124H39.43V75h31.568V63.75h-13.09L69.628 52A4.71 4.71 0 0 0 71 48.674" fill="#324E5C"/></g></svg>