<svg xmlns="http://www.w3.org/2000/svg" viewBox="0 0 90 90"><defs><linearGradient x1="5.062%" y1="33.169%" x2="100%" y2="64.735%" id="a"><stop stop-color="#21DBAA" offset="0%"/><stop stop-color="#00B4EF" offset="35.8%"/><stop stop-color="#01A7EC" offset="43.3%"/><stop stop-color="#0487E4" offset="56.8%"/><stop stop-color="#0768DD" offset="68%"/><stop stop-color="#5F1AE5" offset="100%"/></linearGradient></defs><path fill="#FFF" d="M0 0h90v90H0z"/><path d="m58.741.011-7.86 27.94h-.1L42.352.011H23.7l-6.386 11.403L10.553.011h-9.48L12.097 17.93 0 38h8.73l7.76-13.283L24.523 38h14.309V11.663h.1c.198 1.103.388 2.047.568 2.831.18.785.351 1.512.512 2.18l.535 1.906.586 1.98 5.615 17.429h7.36L59.77 20.56c.415-1.404.802-2.757 1.16-4.06.39-1.453.702-2.925.936-4.411h.1V38H70V0L58.741.011ZM21.505 17.977l9.868-16.451v32.571l-9.868-16.12Z" transform="translate(10 26)" fill="url(#a)"/></svg>