<svg viewBox="0 0 90 90" xmlns="http://www.w3.org/2000/svg"><g fill="none" fill-rule="evenodd"><path fill="#2B3649" fill-rule="nonzero" d="M0 0h90v90H0z"/><path d="M44.905 74h31.62c.406 0 .625-.498.358-.817l-9.44-11.276c3.642-5.29 5.47-11.702 5.191-18.205-.28-6.503-2.65-12.72-6.732-17.648-4.082-4.929-9.636-8.283-15.77-9.523-6.133-1.24-12.488-.294-18.042 2.687-5.555 2.98-9.985 7.82-12.579 13.743a30.121 30.121 0 0 0-1.72 18.907c1.48 6.325 4.96 11.947 9.877 15.961 4.918 4.015 10.99 6.188 17.237 6.17ZM29.592 53.102a18.469 18.469 0 0 1-1.83-8.046 18.529 18.529 0 0 1 1.257-6.888 17.94 17.94 0 0 1 3.705-5.852 17.12 17.12 0 0 1 5.58-3.916 16.544 16.544 0 0 1 6.597-1.376c2.265 0 4.507.468 6.597 1.376a17.118 17.118 0 0 1 5.58 3.916 17.941 17.941 0 0 1 3.705 5.852 18.515 18.515 0 0 1 1.258 6.886c-.007 1.02-.1 2.038-.277 3.04h-4.81l-18.816.048c-.417.001-.63.52-.341.834L49.924 62.14a16.472 16.472 0 0 1-7.92.53 16.787 16.787 0 0 1-7.299-3.244 17.694 17.694 0 0 1-5.113-6.325Z" fill="#62CBC1"/></g></svg>