<svg xmlns="http://www.w3.org/2000/svg" viewBox="0 0 90 90"><g fill="#F88F62"><path d="M82.451 68.825A4.988 4.988 0 0 0 85 64.479V25.504c0-1.792-.976-3.46-2.549-4.347L48.067 1.68a5.16 5.16 0 0 0-5.116 0L8.549 21.157A4.988 4.988 0 0 0 6 25.504v38.975c0 1.792.976 3.46 2.549 4.346l34.402 19.496a5.16 5.16 0 0 0 5.116 0l7.9-4.47-36.95-20.933a4.988 4.988 0 0 1-2.55-4.347V31.43c0-1.792.976-3.46 2.55-4.347l23.934-13.57a5.16 5.16 0 0 1 5.116 0l23.935 13.57a4.989 4.989 0 0 1 2.549 4.347v27.124c0 1.792-.976 3.46-2.549 4.347l-12.528 7.096a2.425 2.425 0 0 0 0 4.24l6.707 3.796"/><path d="m61.773 32.884-13.703-7.77a5.16 5.16 0 0 0-5.116 0l-13.703 7.77a5.026 5.026 0 0 0-1.88 1.845L45.52 45v20.561c.886 0 1.771-.23 2.549-.674l13.703-7.77a4.99 4.99 0 0 0 2.55-4.346V37.23a4.934 4.934 0 0 0-2.55-4.347Z"/><path d="M27.355 34.712a5.02 5.02 0 0 0-.686 2.519v15.54c0 1.792.976 3.46 2.548 4.347l13.74 7.77a5.264 5.264 0 0 0 2.549.674v-20.56l-18.15-10.29Z"/><path d="m45.506 44.995-18.15-10.272a5.004 5.004 0 0 0-.687 2.502v15.54c0 1.792.976 3.46 2.548 4.346l13.74 7.77a5.16 5.16 0 0 0 5.116 0l13.703-7.77a4.989 4.989 0 0 0 2.549-4.346v-15.54a4.78 4.78 0 0 0-.687-2.502L45.506 44.995Z"/><path d="M63.658 34.71a5.158 5.158 0 0 0-1.88-1.845l-13.703-7.77a5.16 5.16 0 0 0-5.116 0l-13.703 7.77a5.025 5.025 0 0 0-1.88 1.845l18.15 10.272L63.658 34.71Z"/><path d="m45.502 65.557 18.15-30.832a5.16 5.16 0 0 0-1.88-1.845l-13.703-7.77a5.161 5.161 0 0 0-5.116 0L29.25 32.88a4.989 4.989 0 0 0-2.55 4.346v15.54c0 1.792.977 3.46 2.55 4.347l13.703 7.77a5.16 5.16 0 0 0 2.549.674Z"/></g></svg>