<svg viewBox="0 0 90 90" xmlns="http://www.w3.org/2000/svg"><g fill="none" fill-rule="evenodd"><path fill="#3EA448" d="M0 0h90v90H0z"/><g fill="#FFF" fill-rule="nonzero"><path d="M34.563 43.683c4.861-8.973 11.264-15.766 17.082-18.919l-5.843-9.222c-.46-.723-1.194-.723-1.629 0L12.197 66.065c-.46.723-.075.935.758.935H28.21c-.236-6.53 1.715-14.806 6.353-23.317"/><path d="M53.634 30.51c-3.133-1.72-9.896 4.648-15.105 14.232-5.21 9.584-6.875 18.731-3.742 20.463 2.275 1.234 6.104-2.019 10.194-7.365V45.602c0-1.271.796-1.97 1.393-.86l3.406 6.455c.05-.074.075-.137.125-.211 5.209-9.584 6.875-18.744 3.73-20.476m24.168 35.555-12.905-20.4a60.858 60.858 0 0 1-4.96 11.926 66.974 66.974 0 0 1-3.643 5.92L58.732 67h18.313c.833 0 1.218-.212.758-.935"/></g></g></svg>