<svg viewBox="0 0 90 90" xmlns="http://www.w3.org/2000/svg"><g fill="none"><path fill="#1B112B" d="M0 0h90v90H0z"/><path d="M25.713 15.939c0 .683.554 1.236 1.237 1.237h2.106v4.7H26.95a1.237 1.237 0 0 0 0 2.474h2.106v3.606a1.096 1.096 0 0 1-1.095 1.096h-3.606v-2.107a1.237 1.237 0 1 0-2.475 0v2.107h-4.7v-2.107a1.237 1.237 0 1 0-2.473 0v2.107h-3.61A1.097 1.097 0 0 1 10 27.956v-16.86c0-.605.49-1.096 1.096-1.096h16.862a1.095 1.095 0 0 1 1.095 1.096v3.605h-2.107a1.237 1.237 0 0 0-1.233 1.238Z" fill="#9722FF"/><path d="M47.24 15.939c0 .683.554 1.237 1.237 1.237h2.107v4.7h-2.107a1.237 1.237 0 0 0 0 2.474h2.107v3.606c0 .605-.49 1.095-1.095 1.096H32.624a1.095 1.095 0 0 1-1.095-1.096V24.35h2.101a1.237 1.237 0 1 0 0-2.474h-2.1v-4.7h2.101a1.238 1.238 0 1 0 0-2.475H31.53v-3.605A1.095 1.095 0 0 1 32.624 10h16.861a1.095 1.095 0 0 1 1.096 1.096v3.605h-2.107a1.237 1.237 0 0 0-1.233 1.238Z" fill="#DC29DD"/><path d="M72.108 11.096v16.861a1.096 1.096 0 0 1-1.096 1.097h-3.606v-2.107a1.237 1.237 0 1 0-2.473 0v2.107h-4.7v-2.107a1.237 1.237 0 1 0-2.474 0v2.107h-3.606a1.097 1.097 0 0 1-1.096-1.097v-3.606h2.107a1.237 1.237 0 1 0 0-2.474h-2.107v-4.7h2.107a1.238 1.238 0 0 0 0-2.475h-2.107v-3.606c0-.605.49-1.096 1.096-1.096h16.86a1.095 1.095 0 0 1 1.095 1.096Z" fill="#27A2FD"/><path d="M29.053 32.623v16.862a1.096 1.096 0 0 1-1.095 1.096h-3.606v-2.107a1.237 1.237 0 1 0-2.475 0v2.107h-4.7v-2.107a1.237 1.237 0 1 0-2.473 0v2.107h-3.608A1.096 1.096 0 0 1 10 49.485V32.623c0-.605.491-1.095 1.096-1.096h3.606v2.107a1.237 1.237 0 0 0 2.474 0v-2.107h4.7v2.107a1.237 1.237 0 1 0 2.474 0v-2.107h3.606a1.096 1.096 0 0 1 1.097 1.096Z" fill="#DC29DD"/><path d="M47.24 37.466a1.236 1.236 0 0 0 1.237 1.237h2.107v4.7h-2.107a1.237 1.237 0 0 0 0 2.473h2.107v3.606a1.096 1.096 0 0 1-1.095 1.096h-3.613v-2.106a1.237 1.237 0 1 0-2.474 0v2.106h-4.7v-2.106a1.237 1.237 0 1 0-2.474 0v2.106h-3.604a1.095 1.095 0 0 1-1.095-1.096v-16.86c0-.604.49-1.095 1.095-1.095h16.861c.605 0 1.095.491 1.096 1.096v3.606h-2.107a1.237 1.237 0 0 0-1.233 1.237Z" fill="#27A2FD"/><path d="M72.108 32.623v16.862a1.096 1.096 0 0 1-1.096 1.096H54.151a1.096 1.096 0 0 1-1.096-1.096v-3.609h2.106a1.237 1.237 0 1 0 0-2.474h-2.106v-4.7h2.106a1.237 1.237 0 1 0 0-2.473h-2.106v-3.606c0-.605.491-1.095 1.096-1.096h3.606v2.107a1.237 1.237 0 0 0 2.474 0v-2.107h4.7v2.107a1.237 1.237 0 0 0 2.473 0v-2.107h3.606a1.096 1.096 0 0 1 1.098 1.096Z" fill="#34F"/><path d="M25.713 58.994c0 .683.554 1.237 1.237 1.238h2.106v4.7H26.95a1.237 1.237 0 0 0 0 2.474h2.106v3.606a1.096 1.096 0 0 1-1.095 1.096H11.096A1.097 1.097 0 0 1 10 71.012v-16.86c0-.606.49-1.096 1.096-1.096h3.606v2.102a1.237 1.237 0 1 0 2.474 0v-2.102h4.7v2.102a1.237 1.237 0 1 0 2.474 0v-2.102h3.606a1.095 1.095 0 0 1 1.095 1.096v3.604h-2.106a1.238 1.238 0 0 0-1.232 1.238Z" fill="#9722FF"/><path d="M50.58 54.152v16.86c0 .606-.49 1.097-1.095 1.097H32.624a1.095 1.095 0 0 1-1.095-1.096v-3.606h2.101a1.237 1.237 0 0 0 0-2.475h-2.1v-4.7h2.101a1.238 1.238 0 1 0 0-2.475H31.53v-3.605a1.095 1.095 0 0 1 1.095-1.096h3.605v2.102a1.237 1.237 0 1 0 2.475 0v-2.102h4.7v2.102a1.237 1.237 0 1 0 2.473 0v-2.102h3.606a1.096 1.096 0 0 1 1.098 1.096Z" fill="#34F"/><path fill="#9722FF" d="m53.055 66.527 13.472-13.473L80 66.527 66.527 80z"/></g></svg>