<svg xmlns="http://www.w3.org/2000/svg" viewBox="0 0 90 90"><path fill="#317BFF" d="M0 0h90v90H0z"/><path d="M38.629 74c-.42 0-10.33-.098-16.753-7.201C15.516 59.76 15 52.625 15 45.293c0-7.299.484-14.923 6.424-21.147 6.52-6.81 13.815-7.82 17.592-7.82L43.148 16h3.906c7.553 0 13.267 2.835 19.077 9.45 5.23 5.995 5.197 14.858 5.165 15.249v9.677c0 7.202-3.196 11.894-4.164 13.164l-.323.391 7.908 8.375c.614.619.162 1.694-.71 1.694H38.63Zm4.519-53.536c-9.587 0-17.367 11.079-17.367 24.699 0 13.588 7.812 24.666 17.4 24.666h7.52c.646 0 1-.782.549-1.27l-9.813-10.525c-.581-.62-.161-1.662.71-1.662H58.61l.129-.391c1.194-3.389 1.775-7.038 1.775-10.818 0-13.62-7.811-24.699-17.366-24.699Z" fill="#FFF"/></svg>