<svg viewBox="0 0 90 90" xmlns="http://www.w3.org/2000/svg"><g fill="none"><path fill="#74829D" d="M0 0h90v90H0z"/><path d="M59.565 83c3.358 0 7.168-.533 11.43-1.6v-2.57a20.67 20.67 0 0 1-3.599.337c-4.12 0-7.549-.94-10.286-2.822-2.738-1.88-4.756-4.689-6.054-8.423 6.322-1.067 11.726-4.338 16.213-9.813C71.756 52.633 74 46.189 74 38.777c0-8.508-2.864-15.598-8.593-21.27C59.677 11.837 52.397 9 43.563 9c-8.86 0-16.17 2.829-21.927 8.487C15.879 23.144 13 30.24 13 38.777c0 7.356 2.124 13.688 6.37 18.995 4.248 5.307 9.843 8.69 16.785 10.15 2.089 4.942 5.2 8.69 9.335 11.245C49.624 81.722 54.316 83 59.565 83ZM43.52 65.563c-4.261 0-7.605-1.642-10.032-4.927-3.472-4.717-5.207-11.962-5.207-21.733 0-8.142 1.157-14.418 3.47-18.826 2.767-5.25 6.69-7.876 11.77-7.876 5.277 0 9.27 2.583 11.979 7.75 2.173 4.099 3.26 10.725 3.26 19.879 0 9.294-1.736 16.257-5.207 20.89-2.399 3.229-5.743 4.843-10.033 4.843Z" fill="#FFF"/></g></svg>