<svg xmlns="http://www.w3.org/2000/svg" viewBox="0 0 90 90"><path fill="#fff" d="M0 0h90v90H0z"/><path d="M40.33 68.98a23.72 23.72 0 0 1-20.74-23.5 23.73 23.73 0 0 1 18.16-23.03l-1.92-4.24A28.31 28.31 0 0 0 15 45.48a28.31 28.31 0 0 0 28.28 28.28h.19l-3.14-4.78Zm9.34-47.23a23.72 23.72 0 0 1 20.74 23.5 23.73 23.73 0 0 1-18.16 23.02l1.92 4.24A28.31 28.31 0 0 0 75 45.25a28.31 28.31 0 0 0-28.28-28.28h-.18l3.13 4.78Z"/><path d="M50.28 76.98 28.21 43.32a4.8 4.8 0 0 1 4.01-7.43h12.06l3.64 7.8H37.4L52 76.03c.5 1.1-1.05 1.96-1.72.95Z"/><path d="m40.14 13.45 22.07 33.66a4.8 4.8 0 0 1-4 7.43H46.13l-3.63-7.8h10.52L38.43 14.4c-.5-1.1 1.05-1.96 1.71-.95Z"/></svg>