<svg viewBox="0 0 90 90" xmlns="http://www.w3.org/2000/svg"><g fill="none"><path fill="#141823" d="M0 0h90v90H0z"/><g fill="#41B7FF"><path d="M18.765 57.34h26.217v9.657L18.764 67c-1.603-.047-3.74-.192-3.745-1.867v-5.396c.006-1.8 2.142-2.357 3.745-2.398Z"/><path d="M71.198 67H44.922v-9.658l26.276-.003c1.607.048 3.748.192 3.753 1.867v5.396c-.005 1.8-2.146 2.358-3.753 2.398Z"/></g><g fill="#41B7FF"><path d="M71.206 33.66H44.99v-9.657L71.207 24c1.604.047 3.74.191 3.745 1.867v5.395c-.005 1.8-2.141 2.358-3.745 2.399Z"/><path d="M18.773 24H45.05v9.658l-26.275.003c-1.608-.048-3.748-.192-3.754-1.867v-5.396c.006-1.8 2.146-2.358 3.754-2.398Z"/></g><path d="m75 41.136-.049 8.454c-.252 3.021-2.19 3.114-7.052 3.021l-14.604-.056c-3.404-.022-4.768-1.233-5.53-4.63-.15-.667-.445-1.41-.913-1.877-.469-.467-.963-.769-1.456-.916a2.462 2.462 0 0 0-.733-.106l.002-3.082h2.998c1.263-3.072 3.845-3.58 7.35-3.576l10.55.02c1.745.028 4.088.031 5.994.37.953.169 1.797.422 2.402.803.606.382 1.041.892 1.041 1.575Z" fill="#FFF"/><path d="M15.02 41.136 15 49.59c.247 3.021 2.214 3.114 6.98 3.021l14.31-.056c3.337-.022 4.674-1.233 5.42-4.63.147-.667.437-1.41.895-1.877.46-.467.945-.769 1.427-.916a2.38 2.38 0 0 1 .72-.106l-.003-3.082H41.81c-1.238-3.072-3.769-3.58-7.204-3.576l-10.34.02c-1.71.028-4.005.031-5.872.37-.934.169-1.761.422-2.355.803-.594.382-1.02.892-1.02 1.575Z" fill="#FFF"/></g></svg>