<svg viewBox="0 0 90 90" xmlns="http://www.w3.org/2000/svg"><g fill="none"><path fill="#003ECD" d="M0 0h90v90H0z"/><g fill="#FFF"><path d="m28.28 36.48 25.24-8.2 8.2 25.239-25.239 8.2-1.072-3.3c-1.466.116-2.94.116-4.406 0L33.79 67 67 56.21 56.21 23 23 33.79l5.218 16.061.357.085.049.012c1.37.326 2.777.485 4.186.474L28.28 36.48Z"/><path d="M41.392 51.408a24.818 24.818 0 0 0 11.29-7.217l2.793 1.746a26.354 26.354 0 0 1-12.92 8.845 26.43 26.43 0 0 1-15.71.582l1.165-3.027c4.461.923 9.09.602 13.382-.93Z"/></g></g></svg>