<svg viewBox="0 0 90 90" xmlns="http://www.w3.org/2000/svg"><g fill="none"><path fill="#000" d="M0 0h90v90H0z"/><g fill="#FFF"><path d="M.418 38.511A45.766 45.766 0 0 0 0 43.043h68.361c-.238-.466-.56-.887-.883-1.298-11.686-15.099-17.973-13.79-26.966-14.173-2.998-.124-5.032-.173-16.966-.173-6.388 0-13.332.016-20.095.034-.875 2.363-1.72 4.653-2.13 6.516h35.03v4.562H.418ZM68.9 47.61H.035a46.16 46.16 0 0 0 .35 3.603h63.579c2.834 0 4.42-1.608 4.936-3.603ZM3.957 63.66S14.497 89.54 44.953 90C63.156 90 78.797 79.189 85.9 63.66H3.957Z"/><path d="M44.952 0C28.121 0 13.475 9.243 5.74 22.905c6.044-.012 17.816-.02 17.816-.02h.003v-.004c13.914 0 14.43.062 17.149.176l1.683.062c5.862.195 13.068.824 18.737 5.114 3.078 2.327 7.521 7.462 10.17 11.12 2.448 3.384 3.153 7.273 1.488 11-1.532 3.425-4.83 5.468-8.823 5.468H1.467s.372 1.577.93 3.318h85.31A44.858 44.858 0 0 0 90 45.02C90 20.16 69.832 0 44.952 0Z"/></g></g></svg>