<svg xmlns="http://www.w3.org/2000/svg" viewBox="0 0 90 90"><path d="M84.966 60.767a24.567 24.567 0 0 0-5.904-15.269 24.652 24.652 0 0 0 5.904-16.753c-8.377-8.958-22.157-10.166-31.965-2.8a24.381 24.381 0 0 0-5.752-12.62 20.78 20.78 0 0 1 12.989-5.062 21.58 21.58 0 0 1 5.144 9.718 30.014 30.014 0 0 1 3.256-.05 24.532 24.532 0 0 0-7.085-12.907 23.984 23.984 0 0 0-16.547 5.99 24.17 24.17 0 0 0-16.548-6.007C19.618 13.14 18.37 27.834 25.69 37.4a23.816 23.816 0 0 0-12.482 5.82 21.429 21.429 0 0 1-4.993-13.159 20.932 20.932 0 0 1 9.615-5.23 29.901 29.901 0 0 1-.05-3.273 24.07 24.07 0 0 0-12.77 7.187 24.635 24.635 0 0 0 5.904 16.753A24.854 24.854 0 0 0 5.01 62.252a24.017 24.017 0 0 0 29.098 4.656 26.972 26.972 0 0 0 2.867-1.856 24.381 24.381 0 0 0 5.77 12.62 20.78 20.78 0 0 1-12.99 5.061 21.58 21.58 0 0 1-5.16-9.7 34.67 34.67 0 0 1-3.24.033 24.549 24.549 0 0 0 7.085 12.907c5.988.202 12.027-1.974 16.53-5.99a23.984 23.984 0 0 0 16.6 6.006c8.871-8.597 10.045-22.422 2.749-32.392a23.816 23.816 0 0 0 12.482-5.821 21.344 21.344 0 0 1 4.993 13.16 21.152 21.152 0 0 1-9.598 5.23c.084 1.08.084 2.193.05 3.273A24.07 24.07 0 0 0 85 62.269v-1.502h-.034ZM62.97 33.688a21.037 21.037 0 0 1-7.354 7.356 21.589 21.589 0 0 1-5.483 2.312c-1.147.236-2.361.556-3.542.523-.084-1.215.236-2.43.506-3.594 2.092-8.621 9.952-15.353 18.758-15.91a21.345 21.345 0 0 1-2.919 9.297c.034-.034 0 0 0 0l.034.016Zm-7.962 15.893c6.157 3.374 10.408 9.954 10.88 17.04-6.747-.438-13.072-4.488-16.463-10.359a22.441 22.441 0 0 1-2.294-5.534c-.236-1.18-.557-2.395-.506-3.61 1.18-.084 2.395.236 3.542.523 1.687.49 3.323 1.097 4.841 1.94Zm-12.786 3.24a21.103 21.103 0 0 1-18.116 13.8 21.29 21.29 0 0 1 15.721-18.98c1.147-.236 2.362-.557 3.542-.523.085 1.215-.236 2.43-.506 3.594a12.85 12.85 0 0 1-.64 2.109ZM35.02 41.416c-6.157-3.375-10.391-9.955-10.864-17.04 6.714.438 13.073 4.454 16.464 10.359a22.441 22.441 0 0 1 2.277 5.55c.236 1.181.557 2.379.523 3.594-1.198.084-2.395-.236-3.56-.523-1.686-.49-3.322-1.097-4.84-1.94ZM24.258 20.023c.506-4.387 2.513-8.588 5.516-11.776 10.66.135 20.073 9.532 20.258 20.33a24.903 24.903 0 0 0-5.026 7.929 24.29 24.29 0 0 0-20.866-15.37c.033-.37.033-.742.118-1.096v-.017ZM20.935 66.62c-4.723-.354-9.278-2.43-12.719-5.702.118-10.798 9.396-20.313 20.073-20.516a24.56 24.56 0 0 0 7.844 5.095c-8.519 3.375-14.71 11.895-15.198 21.123Zm44.818 4.336a21.462 21.462 0 0 1-5.515 11.81c-10.678-.118-20.074-9.499-20.276-20.313 2.168-2.3 3.88-4.99 5.044-7.93A24.29 24.29 0 0 0 65.87 69.912c-.033.32-.033.675-.118 1.046ZM78.421 41.01a20.798 20.798 0 0 1-16.7 9.583 24.56 24.56 0 0 0-7.86-5.096c8.519-3.374 14.71-11.894 15.182-21.122 4.723.354 9.277 2.429 12.718 5.702a21.632 21.632 0 0 1-3.356 10.933h.016Z" fill="#E57B73"/></svg>