<svg viewBox="0 0 90 90" xmlns="http://www.w3.org/2000/svg"><g fill="none"><path fill="#FFF" d="M0 0h90v90H0z"/><g fill="#000"><path d="M15 23h11.985c-1.828 1.656-3.857 3.12-6.417 3.328 7.1 6.963 14.119 14.01 21.104 21.083 1.008 1.066 2.263 2.15 3.885 1.845 1.837-.794 3.19-2.328 4.604-3.685 6.404-6.542 12.952-12.943 19.39-19.448-2.094-.05-4.188-.098-6.285-.153.995-1.002 1.984-2.01 3.022-2.97H75v12.265c-1.806-1.873-3.208-4.052-3.285-6.74-5.495 5.57-11.048 11.085-16.61 16.591 5.553 5.62 11.158 11.19 16.77 16.754.036-1.779.08-3.557.122-5.332 1.016.987 2.075 1.94 3.003 3.016V67H63.31c1.769-1.51 3.676-2.875 5.95-3.523-5.538-5.36-10.95-10.85-16.387-16.31-2.559 2.245-4.876 5.924-8.767 5.46-2.871-.957-4.788-3.435-7.071-5.286-5.566 5.478-11.082 11.003-16.592 16.54 1.886.039 3.771.07 5.654.115-.989 1.018-1.944 2.075-3.025 3.004H15V55.038c1.66 1.824 3.126 3.846 3.334 6.404 5.394-5.543 10.962-10.911 16.371-16.439-5.492-5.558-11.033-11.067-16.58-16.567-.04 1.775-.08 3.553-.122 5.332-1.016-.987-2.075-1.94-3.003-3.016V23Z"/><path d="M35.339 23h7.506c-.664.56-1.298 1.152-1.96 1.714-2.09 2.432-5.635.944-8.372 1.296A38.638 38.638 0 0 1 35.34 23Zm15.64 0h7.665c-1.05.966-2.048 1.983-3.052 2.991-2.547.034-5.094.043-7.641.022.995-1.018 1.987-2.041 3.028-3.013ZM15 39.204c.983 1.225 2.222 2.291 2.942 3.7.303 2.252.107 4.547.147 6.814-1.047-.996-2.094-1.99-3.089-3.04v-7.474Zm56.911 1.384c1.047.996 2.094 1.989 3.089 3.04v7.474c-.983-1.225-2.222-2.292-2.942-3.7-.303-2.252-.107-4.55-.147-6.814ZM31.54 67c1.227-.975 2.283-2.218 3.695-2.93 2.259-.309 4.564-.113 6.838-.153-.997 1.045-1.992 2.09-3.045 3.083H31.54Zm15.918 0c1.228-.975 2.284-2.218 3.695-2.933 2.271-.309 4.589-.092 6.879-.116-1.09 1.041-2.17 2.093-3.337 3.049h-7.237Z"/></g></g></svg>