<svg viewBox="0 0 90 90" xmlns="http://www.w3.org/2000/svg"><defs><radialGradient cx="28.327%" cy="87.115%" fx="28.327%" fy="87.115%" r="83.647%" gradientTransform="matrix(.97626 0 0 1 .007 0)" id="a"><stop stop-color="#FFD3A6" offset="0%"/><stop stop-color="#F7AB8D" offset="33.21%"/><stop stop-color="#F46665" offset="100%"/></radialGradient></defs><g fill="none"><path fill="#FEEBDA" d="M0 0h90v90H0z"/><path d="M32.146 0C44.768 0 55 9.99 55 22.312c0 12.322-10.232 22.311-22.854 22.311-8.445 0-15.82-4.472-19.777-11.122h2.308c3.531 0 5.922-1.895 5.922-4.714 0-2.819-2.04-4.714-5.128-4.714H9.362a22.085 22.085 0 0 1-.07-1.761C9.292 9.989 19.524 0 32.146 0Z" fill="url(#a)" transform="translate(18 18)"/><path d="m44.803 62.197-3.574-5.341c3.985-1.992 6.372-5.537 6.372-10.059 0-7.047-5.274-11.76-13.19-11.76H18V71h8.752V58.559h5.875L40.39 71h10.256l-5.843-8.803Zm-18.05-10.686v-9.438h6.718c3.087 0 5.128 1.895 5.128 4.714 0 2.819-2.39 4.714-5.922 4.714h-5.925v.01Z" fill="#31445A"/></g></svg>