<svg xmlns="http://www.w3.org/2000/svg" xmlns:xlink="http://www.w3.org/1999/xlink" viewBox="0 0 90 90"><defs><path id="A" d="M0 0h90v90H0z"/><radialGradient id="B" cx="65.397%" cy="49.22%" r="158.426%" fx="65.397%" fy="49.22%" gradientTransform="matrix(.22444 0 0 1 .507 0)"><stop offset="0%" stop-color="#ffc45f"/><stop offset="100%" stop-color="#ff8d28"/></radialGradient></defs><g fill="none" fill-rule="evenodd"><mask id="C" fill="#fff"><use xlink:href="#A"/></mask><use fill="#ff9934" fill-rule="nonzero" xlink:href="#A"/><g mask="url(#C)"><g transform="translate(-144)"><path fill="url(#B)" fill-rule="nonzero" opacity="0" d="M0 0h401v90H0z"/><g transform="translate(167 21)"><g fill="#fff" fill-rule="nonzero"><path d="M10.761 0h22.633v4.272H10.761zm0 6.054h22.633v4.272H10.761zm0 6.054h22.633v4.272H10.761zm0 6.054h22.633v6.408L22.078 35.678 10.761 24.57z"/></g><g stroke="#fff"><path stroke-width="3.356" d="M0 40.479v2.459a4.21 4.21 0 0 0 4.223 4.225h35.709a4.21 4.21 0 0 0 4.223-4.225v-2.459"/><path stroke-linecap="round" stroke-linejoin="round" stroke-width="3.289" d="M39.153 24.971L22.078 41.975 5.002 24.971"/></g></g></g></g></g></svg>