<svg viewBox="0 0 90 90" xmlns="http://www.w3.org/2000/svg" xmlns:xlink="http://www.w3.org/1999/xlink"><defs><path id="a" d="M0 0h9.918v14.807H0z"/><path id="c" d="M0 0h8.257v14.981H0z"/></defs><g fill="none" fill-rule="evenodd"><path fill="#004750" fill-rule="nonzero" d="M0 0h90v90H0z"/><path d="M30.036 46.619a.38.38 0 0 1-.395.362h-3.757a.38.38 0 0 1-.395-.362v-.917a.38.38 0 0 1 .395-.362h3.76a.38.38 0 0 1 .395.362v.917" fill="#FFF"/><g transform="translate(5 37.054)"><mask id="b" fill="#fff"><use xlink:href="#a"/></mask><path d="M7.612 4.25c0-1.983-1.269-2.625-3.709-2.625-.605 0-1.68 0-2.15.06v5.407c.86.02 1.698.04 2.15.04 2.401 0 3.71-.612 3.71-2.742v-.14Zm2.052 10.547h-1.25a.46.46 0 0 1-.507-.259l-3.496-5.89h-.507c-.645 0-1.12-.02-2.15-.06v5.8a.375.375 0 0 1-.35.396H.351a.375.375 0 0 1-.35-.396V.592C0 .309.118.198.468.159 1.308.059 2.772 0 3.906 0c3.081 0 5.466 1.045 5.466 4.247v.138c.09 1.91-1.21 3.603-3.065 3.986l3.552 6a.323.323 0 0 1 .06.178.248.248 0 0 1-.238.258h-.019l.002-.01Z" fill="#FFF" mask="url(#b)"/></g><path d="M22.36 45.485c0-2.228-.84-3.096-2.559-3.096-1.719 0-2.616.965-2.616 3.096v.179h5.174l.001-.179Zm1.38 1.49H17.2v.284c0 2.347.922 3.216 2.713 3.216a26.495 26.495 0 0 0 3.477-.218h.098a.28.28 0 0 1 .314.283v.672a.395.395 0 0 1-.406.436c-1.152.228-2.323.34-3.497.334-2.241 0-4.432-1.067-4.432-4.736v-1.775c0-2.831 1.544-4.617 4.334-4.617 2.852 0 4.295 1.814 4.295 4.617v1.081a.382.382 0 0 1-.324.43.355.355 0 0 1-.046.003l.013-.01Zm15.384 4.835a32.066 32.066 0 0 1-3.807.18c-2.09 0-4.158-.414-4.158-3.68V37.584a.394.394 0 0 1 .39-.393h.992c.215 0 .39.176.392.393v10.732c0 1.5.33 2.053 2.4 2.053h3.769a.21.21 0 0 1 .215.237v.931a.283.283 0 0 1-.196.283m7.63-6.334c0-2.228-.84-3.096-2.559-3.096-1.719 0-2.616.965-2.616 3.096v.179h5.174l.001-.179Zm1.372 1.49H41.58v.283c0 2.347.916 3.216 2.713 3.216 1.161.004 2.321-.07 3.474-.218h.098a.28.28 0 0 1 .314.283v.673a.395.395 0 0 1-.39.453c-1.152.228-2.323.34-3.496.334-2.241 0-4.432-1.068-4.432-4.736v-1.775c0-2.83 1.544-4.617 4.334-4.617 2.85 0 4.295 1.814 4.295 4.617v1.064a.381.381 0 0 1-.373.433l.005-.01Zm7.696-.374h-1.446c-2.361 0-2.986.532-2.986 1.934v.238c0 1.415.665 1.794 1.796 1.794.931-.028 1.84-.3 2.636-.79v-3.176Zm1.325 5.248h-.9a.394.394 0 0 1-.389-.396v-.433a5.91 5.91 0 0 1-3.006.966c-1.658 0-3.182-.73-3.182-3.196v-.238c0-2.132 1.228-3.196 4.708-3.196h1.446v-.787c0-1.655-.56-2.228-2.09-2.228-.998 0-1.995.052-2.987.158h-.098a.297.297 0 0 1-.35-.317v-.69c0-.218.137-.335.41-.374a16.68 16.68 0 0 1 3.025-.26c2.713 0 3.808 1.382 3.808 3.71v6.884a.394.394 0 0 1-.39.396l-.005.001Zm4.939.139A14.963 14.963 0 0 1 59 51.706a.422.422 0 0 1-.41-.396v-.692a.318.318 0 0 1 .35-.283h.079c.935.12 2.361.218 3.065.218 1.269 0 1.933-.336 1.933-1.4 0-.592-.35-.969-1.466-1.64l-1.96-1.183c-1.191-.73-1.993-1.58-1.993-2.831 0-2.052 1.524-2.624 3.532-2.624 1.02 0 2.038.087 3.045.258a.375.375 0 0 1 .37.379v.666a.3.3 0 0 1-.331.334h-.076c-.684-.06-1.933-.159-3.026-.159-1.092 0-1.815.139-1.815 1.132 0 .592.448.969 1.348 1.5l1.933 1.164c1.622.968 2.15 1.815 2.15 2.98 0 2.014-1.466 2.86-3.643 2.86m11.713-6.503c0-2.228-.84-3.096-2.56-3.096-1.718 0-2.616.965-2.616 3.096v.179h5.175v-.179Zm1.365 1.49h-6.538v.283c0 2.347.921 3.216 2.712 3.216a26.495 26.495 0 0 0 3.477-.218h.098a.28.28 0 0 1 .312.283v.673a.395.395 0 0 1-.39.453A17.53 17.53 0 0 1 71.34 52c-2.24 0-4.431-1.068-4.431-4.736v-1.775c0-2.83 1.54-4.617 4.334-4.617 2.852 0 4.294 1.814 4.294 4.617v1.064a.381.381 0 0 1-.372.433l-.002-.01Z" fill="#FFF"/><g transform="translate(76.743 37)"><mask id="d" fill="#fff"><use xlink:href="#c"/></mask><path d="M6.54 5.503a14.956 14.956 0 0 0-2.287-.139c-1.913 0-2.538 1.203-2.538 3.315v1.416c0 2.149.605 3.354 2.538 3.354a29.4 29.4 0 0 0 2.287-.119V5.503Zm1.31 9.144c-1.185.227-2.388.34-3.594.334C1.348 14.981 0 13.067 0 10.109V8.694c0-3.097 1.4-4.835 4.256-4.835.766.004 1.53.07 2.286.198V.377A.372.372 0 0 1 6.91 0h.997a.36.36 0 0 1 .35.37v13.815c0 .259-.06.394-.41.453l.003.009Z" fill="#FFF" mask="url(#d)"/></g></g></svg>