<svg viewBox="0 0 90 90" xmlns="http://www.w3.org/2000/svg"><g fill="none"><path fill="#475259" d="M0 0h90v90H0z"/><path d="M42.48 43.915a1.445 1.445 0 0 0-1.26 1.327 1.44 1.44 0 0 0 1.063 1.486s3.54 1.16 9.565 1.644c4.84.388 10.326-.334 10.326-.334a1.454 1.454 0 0 0 1.278-.84 1.427 1.427 0 0 0-.193-1.506 1.461 1.461 0 0 0-1.45-.495s-5.368.656-9.735.306c-5.752-.462-8.891-1.504-8.891-1.504a1.467 1.467 0 0 0-.703-.084Zm0-7.131a1.445 1.445 0 0 0-1.262 1.327 1.44 1.44 0 0 0 1.065 1.487s3.54 1.159 9.565 1.643c4.84.388 10.326-.334 10.326-.334a1.454 1.454 0 0 0 1.275-.84c.23-.498.154-1.08-.193-1.505a1.461 1.461 0 0 0-1.447-.497s-5.368.658-9.735.307c-5.752-.462-8.891-1.505-8.891-1.505a1.467 1.467 0 0 0-.703-.083Zm0-7.131a1.445 1.445 0 0 0-1.26 1.327 1.44 1.44 0 0 0 1.063 1.486s3.54 1.16 9.565 1.643c4.84.389 10.326-.334 10.326-.334a1.454 1.454 0 0 0 1.278-.84 1.427 1.427 0 0 0-.193-1.505 1.461 1.461 0 0 0-1.45-.496s-5.368.657-9.735.307c-5.752-.462-8.891-1.505-8.891-1.505a1.467 1.467 0 0 0-.703-.083Zm0-7.132a1.445 1.445 0 0 0-1.26 1.327 1.44 1.44 0 0 0 1.063 1.487s3.54 1.16 9.565 1.644c4.84.388 10.326-.335 10.326-.335a1.454 1.454 0 0 0 1.278-.84 1.427 1.427 0 0 0-.193-1.506 1.461 1.461 0 0 0-1.45-.495s-5.368.657-9.735.306c-5.752-.461-8.891-1.504-8.891-1.504a1.467 1.467 0 0 0-.703-.084ZM32.389 15C24.819 15.05 22 17.358 22 17.358v55.966s2.753-2.354 11.62-1.995c8.866.359 10.693 3.437 21.588 3.654 10.896.216 13.634-1.659 13.634-1.659L69 16.27s-4.904 1.374-14.445 1.45c-9.542.078-11.837-2.402-20.597-2.694a39.475 39.475 0 0 0-1.57-.025V15Zm6.333 3.653s4.587 1.501 13.058 1.917c7.16.352 14.341-.7 14.341-.7v50.707s-3.635 1.886-12.718 1.243c-7.04-.497-14.786-3.135-14.786-3.135l.105-50.032Zm-4.423 1.321c.81 0 1.466.65 1.466 1.451 0 .802-.656 1.451-1.466 1.451 0 0-2.372.012-3.82.156-2.432.24-4.083 1.114-4.083 1.114a1.476 1.476 0 0 1-1.492-.026 1.445 1.445 0 0 1-.694-1.308c.028-.528.345-1 .826-1.23 0 0 2.154-1.128 5.155-1.425 1.735-.172 4.11-.182 4.11-.182h-.002Zm-1.413 7.152c.471-.013.942-.013 1.413 0a1.454 1.454 0 0 1 1.286 1.438c0 .732-.552 1.35-1.286 1.438 0 0-2.372.012-3.82.155-2.432.24-4.083 1.114-4.083 1.114a1.47 1.47 0 0 1-1.947-.624 1.441 1.441 0 0 1 .587-1.94s2.153-1.129 5.155-1.426a38.944 38.944 0 0 1 2.695-.155Zm1.413 7.125c.81 0 1.466.65 1.466 1.451s-.656 1.45-1.466 1.45c0 0-2.372-.013-3.82.13-2.432.242-4.083 1.114-4.083 1.114a1.47 1.47 0 0 1-1.947-.624 1.441 1.441 0 0 1 .587-1.94s2.153-1.128 5.155-1.426c1.734-.171 4.108-.155 4.108-.155Z" fill="#FFF"/></g></svg>