<svg xmlns="http://www.w3.org/2000/svg" viewBox="0 0 90 90"><path fill="#FFF" d="M0 0h90v90H0z"/><g transform="translate(19.373 12.808)"><path fill="#72A8DA" opacity=".4" d="M44.983 46.468 26.127 57.299 7.273 46.468V19.196L26.127 8.364l18.856 10.832z"/><path fill="#C56728" d="m14.228 51.293.592-27.49 11.368 5.853-.676 27.408z"/><path fill="#F2A91E" d="m37.617 50.953-.186-27.687-11.368 5.852.274 27.606z"/><path fill="#EB8523" d="m25.754 16.132-10.509 6.535 11.75 6.198 9.832-5.971z"/><path d="m38.947 22.659-12.82-7.366-12.817 7.366V52l12.817 7.081L38.947 52V22.659Zm-12.82-4.078 9.968 5.727v26.01l-9.968 5.506-9.967-5.506v-26.01l9.967-5.727Z" fill="#1A1F28"/><path d="M52.253 15.011 26.127 0 0 15.011v30.036l26.127 15.011 26.126-15.01V15.01ZM26.127 4.384l22.325 12.827v25.635L26.127 55.674 3.8 42.846V17.211L26.127 4.384Z" fill="#1A1F28"/><path fill="#1A1F28" d="M27.445 29.321v28.635h-2.852V29.321z"/><path fill="#1A1F28" d="m49.804 14.858 1.36 2.506-24.38 13.228-1.36-2.506z"/><path fill="#1A1F28" d="m2.638 14.861 24.15 13.228-1.37 2.5-24.15-13.227z"/><ellipse fill="#1A1F28" cx="26.127" cy="59.724" rx="24.5" ry="2.468"/><path fill="#1A1F28" d="m15.35 31.368 11.148 6.285-1.4 2.483-11.148-6.285zm.001 8.994 11.147 6.288-1.401 2.484-11.147-6.288z"/><path fill="#1A1F28" d="m36.509 31.367 1.4 2.485-11.149 6.285-1.4-2.485zm0 8.995 1.4 2.484-11.149 6.288-1.4-2.484z"/></g></svg>