<svg xmlns="http://www.w3.org/2000/svg" viewBox="0 0 90 90"><path fill="#FFF" d="M0 0h90v90H0z"/><path d="M42.57 12.015c-.01.01-.443.059-.944.098-6.994.507-13.255 2.468-17.812 5.56-1.464.994-1.869 1.326-3.237 2.72-1.233 1.259-2.273 2.595-2.919 3.765-1.512 2.721-2.331 5.491-2.591 8.73-.125 1.53-.068 5.656.115 7.265.02.186.058.624.087.976.029.35.077.74.096.877.03.137.068.507.106.83.03.321.077.653.097.73.019.079.058.323.096.537.087.605.231 1.531.29 1.805.047.224.134.712.192 1.072.135.761 1.098 4.458 1.483 5.657.463 1.483.983 2.975 1.166 3.365.048.107.183.439.299.732 1.714 4.398 4.72 9.402 7.687 12.825.81.936 3.035 3.092 3.96 3.852 2.206 1.814 5 3.463 7.35 4.33.954.362 2.784.869 3.487.976.222.04.492.078.607.107 1.474.283 4.913.215 6.33-.136a8.09 8.09 0 0 1 .722-.156c.453-.078.896-.195 1.744-.478 8.246-2.702 15.49-10.494 19.902-21.37 1.002-2.467 2.264-6.495 2.688-8.582.02-.107.058-.283.077-.39.395-1.902.77-4.077.886-5.16.03-.321.078-.663.097-.77.02-.107.058-.527.096-.936.029-.41.068-.898.087-1.083.067-.614.164-2.945.183-4.282.02-1.511-.048-2.506-.28-4.3-.183-1.347-.693-3.22-1.3-4.74-1.127-2.8-3.006-5.365-5.404-7.364-.53-.449-1.06-.878-1.185-.956a157.994 157.994 0 0 0-2.033-1.346c-.626-.4-3.478-1.746-4.576-2.165-1.84-.693-4.961-1.551-6.55-1.814-.184-.03-.55-.098-.82-.147-.26-.048-.674-.107-.915-.146-.24-.03-.558-.068-.722-.097-.328-.059-.761-.108-1.782-.195a13.897 13.897 0 0 1-.964-.118c-.27-.048-5.838-.126-5.896-.078Zm21.416 15.02.481.069-.057.507c-.039.273-.077.604-.097.74-.057.41-.144 1.006-.192 1.415a53.38 53.38 0 0 1-.338 2.594c-.057.41-.125.878-.134 1.025-.02.156-.039.312-.049.34 0 .04-.24.05-.51.02-3.776-.34-7.62.547-9.72 2.263-.733.595-1.494 1.668-1.821 2.546-.53 1.443-.52 1.18-.54 11.401-.019 5.199-.028 9.529-.038 9.607 0 .127-.424.146-3.295.127-1.82 0-3.323-.01-3.352-.02-.068-.01-.039-18.687.038-19.37.395-3.686 1.61-6.427 3.854-8.68a13.179 13.179 0 0 1 3.449-2.516c1.762-.907 2.86-1.287 5.182-1.775.704-.146 1.253-.215 2.457-.302a9.45 9.45 0 0 0 .896-.088c.058-.049 3.304.029 3.786.097Zm-29.488 7.988c1.666.244 2.938 1.307 3.42 2.887.23.76.279 2.497.086 3.355-.24 1.053-.857 1.99-1.676 2.555-.8.556-1.445.732-2.842.77-2.08.06-3.593-.76-4.325-2.33-.636-1.356-.646-3.55-.039-4.945.453-1.014 1.657-1.99 2.697-2.194 1.022-.195 1.802-.225 2.679-.098Z" fill="#E30013"/></svg>