<svg viewBox="0 0 90 90" xmlns="http://www.w3.org/2000/svg"><g fill="none"><path fill="#FFF" d="M0 0h90v90H0z"/><path d="M45.131 41.015c-2.358 0-4.323 1.958-4.323 4.307 0 2.35 1.965 4.308 4.323 4.308 2.358 0 4.323-1.958 4.323-4.308 0-2.349-1.965-4.307-4.323-4.307Zm25.546 0c-2.358 0-4.323 1.958-4.323 4.307 0 2.35 1.965 4.308 4.323 4.308 2.358 0 4.323-1.958 4.323-4.308 0-2.349-1.965-4.307-4.323-4.307Zm-51.354 0c-2.358 0-4.323 1.958-4.323 4.307 0 2.35 1.965 4.308 4.323 4.308 2.358 0 4.323-1.958 4.323-4.308 0-2.349-1.965-4.307-4.323-4.307Zm22.14 28.453v-12.66A3.516 3.516 0 0 1 45 53.284a3.516 3.516 0 0 1 3.537 3.524v12.66A3.516 3.516 0 0 1 45 72.992c-1.965.13-3.537-1.435-3.537-3.524Zm12.838-6.395V27.572c-.13-1.958 1.441-3.655 3.406-3.785 1.965-.13 3.669 1.436 3.8 3.393v35.893c-.131 1.958-1.835 3.393-3.8 3.393a3.656 3.656 0 0 1-3.406-3.393Zm-25.677 0V27.572a3.516 3.516 0 0 1 3.538-3.524 3.516 3.516 0 0 1 3.537 3.524v35.501a3.516 3.516 0 0 1-3.537 3.524 3.516 3.516 0 0 1-3.538-3.524Zm12.839-29.889v-12.66A3.516 3.516 0 0 1 45 17a3.516 3.516 0 0 1 3.537 3.524v12.79A3.516 3.516 0 0 1 45 36.84c-1.965 0-3.537-1.566-3.537-3.655Z" fill="#222"/></g></svg>