<svg viewBox="0 0 90 90" xmlns="http://www.w3.org/2000/svg"><defs><linearGradient x1="50%" y1="0%" x2="50%" y2="100%" id="a"><stop stop-color="#F3B061" offset="0%"/><stop stop-color="#F25506" offset="100%"/></linearGradient></defs><g fill="none"><path fill="url(#a)" d="M0 0h90v90H0z"/><path d="m66.623 12 1.858.024.52.023.227.024.08.014c1.482.273 2.793.923 3.807 1.893.79.75 1.37 1.657 1.68 2.628l.083.285.027.137.029.275.034 1.079.022 2.971.01 7.264-.017 41.51-.026 1.974-.024.586-.03.279-.03.149c-.258 1.063-.872 2.074-1.762 2.894-.926.862-2.016 1.451-3.311 1.783l-.44.103-.198.028-.431.026-.994.023-2.893.018-5.656.008L45.194 78l-11.396-.032-10.705-.014-1.771-.004c-1.784-.221-3.27-.89-4.414-1.99-.787-.747-1.34-1.607-1.663-2.578l-.11-.37-.02-.086-.034-.28-.026-.49-.024-1.044-.019-2.58-.012-7.93.02-40.555.016-1.542.03-.989.032-.39.025-.152.032-.12c.304-1.096.887-2.055 1.752-2.875.951-.91 2.134-1.53 3.489-1.83l.403-.079.18-.02.267-.016.684-.019L23.4 12h43.223ZM19.942 55.653l-.006 2.246.009 12.693.017 1.013.017.293.017.082.003.006c.209.456.744.822 1.486.975l.167.008L26.53 73l4.993.005 34.852-.05 2.156-.047.205-.027.059-.02.197-.073c.504-.205.824-.468.982-.77l.021-.05.018-.096.015-.18.021-.717.014-1.852.002-1.578-.008-11.105-.407.25-.58.344c-4.285 2.487-9.18 4.333-14.12 5.32l-.673.128-.737.13c-2.425.409-4.567.602-7.136.644-2.5.047-4.323-.049-6.69-.352-6.82-.866-13.536-3.277-19.27-6.927l-.502-.325Zm50.123-29.116H57.16v20.238h-4.98V26.56H37.751v20.215H32.77V26.56H19.863v23.022l.512.382.502.371c6.224 4.528 13.783 7.284 21.58 7.877l.617.042.427.015.533.01.607.006 1.305-.001.929-.012.534-.013.427-.017.164-.01.682-.047c7.49-.566 14.462-2.981 20.549-7.114l.535-.369.298-.219V26.537Zm-4.248-9.579H24.19l-2.231.029-.57.029-.071.01-.043.008-.047.017-.197.074c-.504.205-.824.468-.982.77l-.045.105-.013.054-.01.077-.015.262-.008.636-.002 2.528h50.11l-.002-2.8-.01-.48-.012-.158-.015-.094-.014-.042-.036-.082-.062-.111c-.165-.256-.47-.481-.921-.664l-.244-.09-.098-.017-.135-.012-1.04-.033-1.66-.016Z" fill="#FFF"/></g></svg>