<svg viewBox="0 0 90 90" xmlns="http://www.w3.org/2000/svg"><g fill="none"><path d="M45 1C20.7 1 1 20.7 1 45s19.7 44 44 44 44-19.7 44-44A44 44 0 0 0 45 1Z" fill="#893999"/><path d="M54.838 70.484 45.856 56c-3.727-5.5-5.867-6.356-8.127-6.356h-.062v20.84H27.584V42.8h16.01c7.211 0 10.206-4.337 10.206-10.022 0-3.91-2.2-8.616-8.616-8.616-7.579 0-7.579 5.989-7.579 5.989h5.744l-10.694 8.556-10.082-8.556h5.072c1.406-8.311 7.273-13.139 17.417-13.139 11.55 0 18.822 5.073 18.822 15.706 0 8.674-6.295 13.994-12.65 15.588 1.284.978 3.056 3.484 5.5 7.273l9.29 14.85-11.186.055Z" fill="#FFF"/></g></svg>