<svg viewBox="0 0 90 90" xmlns="http://www.w3.org/2000/svg"><defs><linearGradient x1="51.922%" y1="51.885%" x2="50.933%" y2="23.123%" id="a"><stop stop-color="#A1A4D4" offset="0%"/><stop stop-color="#D3D7EC" offset="100%"/></linearGradient><linearGradient x1="17.63%" y1="45.022%" x2="74.905%" y2="45.022%" id="b"><stop stop-color="#D3D7EC" offset="0%"/><stop stop-color="#A1A4D4" offset="100%"/></linearGradient><linearGradient x1="53.865%" y1="48.444%" x2="44.306%" y2="48.772%" id="c"><stop stop-color="#D3D7EC" offset="0%"/><stop stop-color="#A1A4D4" offset="100%"/></linearGradient></defs><g transform="translate(2)" fill="none"><ellipse fill="#000" cx="42.301" cy="36.167" rx="39.139" ry="32.879"/><path fill="#000" d="M4.156 46.383h22.135v39.775H4.156zm55.672-.716h22.134v39.776H59.828zM6.91 42.248c-.3-.558-.07-3.899.43-6.346 1.488-7.175 5.1-15.144 8.92-19.651 5.137-6.06 11.204-9.322 19.753-10.624a62.389 62.389 0 0 1 11.539-.329c12.247 1.23 21.433 7.225 26.67 17.42 2.782 5.415 5.15 13.463 5.186 17.62.014 2.024-.136 2.289-1.295 2.289-2.575 0-3.312-.923-4.435-5.523-1.13-4.628-2.096-7.368-3.692-10.473-3.677-7.168-9.543-12.49-16.196-14.694-1.967-.644-4.078-.987-7.597-1.21-14.072-.886-23.952 4.293-29.76 15.618-1.567 3.062-2.576 5.852-3.842 10.587-.787 2.97-1.352 4.407-1.917 4.915-.401.358-1.903.773-2.848.773-.572 0-.758-.072-.915-.372Z"/><ellipse fill="url(#a)" cx="43.009" cy="33.255" rx="38.71" ry="29.467"/><path d="M63.233 66.35V47.855l5.98.072c6.59.093 7.112.165 7.398.98.257.737.966 1.33 2.36 1.967l1.224.573v12.161c-.007 6.704-.072 13.385-.157 14.859-.172 3.062-.308 3.434-1.324 3.605-.83.144-1.402.516-1.402.895 0 .429-.644.994-1.502 1.287-1.138.408-3.964.609-8.463.609h-4.114V66.349Z" fill="url(#b)"/><path d="M15.288 84.678c-2.504-.144-4.436-.43-5.28-.773a6.245 6.245 0 0 1-1.337-.909 4.521 4.521 0 0 0-1.424-.858c-.88-.236-.966-.608-1.188-5.337-.229-4.857-.093-22.907.186-24.502.215-1.252.358-1.474.995-1.617.543-.129 1.173-.644 1.788-1.473.873-1.174 1.145-1.217 7.87-1.288l5.973-.072v37.007l-2.668-.028a124.526 124.526 0 0 1-4.915-.15Z" fill="url(#c)"/><path d="M6.925 88.29c-2.175-1.03-4.235-2.704-5.251-4.242L0 81.508l.322-21.325c.293-19.995.43-21.748 2.132-28.165 1.001-3.756 2.99-9.172 4.428-12.026 3.412-6.775 10.302-13.764 16.361-16.568C34.124-1.62 55.536-.99 65.165 4.647c1.745 1.023 5.2 3.92 7.69 6.439 5.358 5.444 8.757 11.975 11.103 21.354 1.488 5.938 1.61 8.04 1.631 28.286l.029 21.87-1.99 2.61C81.083 88.556 76.419 90 68.206 90c-5.394 0-6.324-.2-8.456-1.824-1.53-1.173-2.39-2.433-2.39-3.534 0-2.397-1.015-2.762-3.733-1.33-3.377 1.78-18.479 1.788-21.848 0-2.333-1.217-2.34-1.217-3.04.636-.32.769-.558 1.57-.71 2.39 0 .293-.95 1.237-2.117 2.095-1.824 1.352-3.04 1.574-8.763 1.56-5.509 0-7.254-.293-10.223-1.71v.007ZM23.021 66.4V47.8h-6.624c-5.852 0-6.725.17-7.512 1.43-.5.787-1.38 1.43-1.967 1.43-.916 0-1.066 2.269-1.066 15.74 0 12.89.179 15.738.987 15.738.544 0 1.367.465 1.839 1.03.951 1.145 3.248 1.552 9.872 1.717l4.471.114V66.4Zm52.13 18.156c1.231-.25 2.24-.894 2.24-1.43 0-.545.644-.988 1.43-.988 1.388 0 1.431-.472 1.431-15.395V51.348l-1.788-.816c-.987-.45-1.789-1.245-1.789-1.774 0-.73-1.61-.665-6.81-.744l-6.575-.107-.207 18.492V85h4.915c2.711 0 5.93-.2 7.154-.443ZM9.909 42.348c1.216-.33 1.796-1.43 2.747-5.315C17.191 18.54 28.1 9.848 45.62 10.756c4.958.258 7.455.78 10.53 2.182 8.557 3.92 14.824 12.498 17.313 23.694 1.188 5.323 1.846 6.11 5.18 6.145 2.26.022 0-11.196-3.885-19.258C68.463 10.413 55.9 3.917 39.303 5.162c-10.86.823-18.342 4.643-24.23 12.362-3.798 4.993-7.604 14.673-8.27 21.068-.465 4.457-.293 4.672 3.105 3.756Z" fill="#000"/><ellipse fill="#F30000" transform="matrix(1 0 0 -1 0 90.162)" cx="43.138" cy="45.081" rx="8.649" ry="8.313"/></g></svg>