<svg xmlns="http://www.w3.org/2000/svg" viewBox="0 0 90 90"><path fill="#FFF" d="M0 0h90v90H0z"/><path d="M55.692 47.545c4.6 0 11.257-.95 11.257-6.426a5.157 5.157 0 0 0-.114-1.26l-2.74-11.91c-.632-2.62-1.187-3.809-5.784-6.11C54.744 20.015 46.973 17 44.675 17c-2.14 0-2.762 2.76-5.314 2.76-2.457 0-4.28-2.06-6.579-2.06-2.206 0-3.644 1.505-4.755 4.6 0 0-3.093 8.73-3.49 9.996a2.36 2.36 0 0 0-.08.714c0 3.394 13.348 14.52 31.235 14.52m11.963-4.188c.636 3.014.636 3.33.636 3.728 0 5.153-5.788 8.013-13.397 8.013-17.195.01-32.258-10.074-32.258-16.74a6.796 6.796 0 0 1 .555-2.697C17.006 35.955 9 37.059 9 44.133 9 55.72 36.43 70 58.149 70 74.8 70 79 62.462 79 56.51c0-4.68-4.045-9.996-11.338-13.168" fill="#E00"/><path d="M67.655 43.342c.636 3.014.636 3.33.636 3.728 0 5.153-5.788 8.013-13.397 8.013-17.195.01-32.258-10.074-32.258-16.74a6.796 6.796 0 0 1 .555-2.697l1.346-3.335a2.369 2.369 0 0 0-.08.7c0 3.393 13.348 14.52 31.235 14.52 4.6 0 11.257-.95 11.257-6.427a5.157 5.157 0 0 0-.114-1.259l.82 3.497Z"/></svg>