<svg viewBox="0 0 90 90" xmlns="http://www.w3.org/2000/svg"><g transform="translate(0 16)" fill="none"><rect fill="#DDD" opacity=".6" x="8.852" y="11.546" width="28.033" height="7.755" rx="3.852"/><rect fill="#DDD" opacity=".6" y="26.008" width="28.033" height="7.755" rx="3.852"/><rect fill="#DDD" opacity=".6" x="8.852" y="40.179" width="28.033" height="7.755" rx="3.852"/><path d="M90 31.373 57.635 0c-16.826 13.257-18.01 42.928-2.294 57.501.186.172.38.331.567.499L90 31.373Z" fill="#F4BE60"/><path d="M90 31.373 62.705 4.861C49.043 15.626 48.31 41.153 61.072 52.984c.185.171.158.148.58.487L90 31.373Z" fill="#F9F6DC"/><ellipse fill="#7CBC73" cx="60.681" cy="35.393" rx="2.384" ry="2.399"/><path d="M65.131 15.24c3.295.133 5.86 2.93 5.727 6.246-.132 3.317-2.91 5.899-6.206 5.765-3.295-.133-5.859-2.93-5.726-6.247.134-3.315 2.911-5.895 6.205-5.765Zm-.359 9.008a2.983 2.983 0 0 0 2.83-1.742 3.02 3.02 0 0 0-.516-3.299 2.972 2.972 0 0 0-3.225-.782 3.004 3.004 0 0 0-1.952 2.7 3 3 0 0 0 2.863 3.123Zm4.701 18.356a3.852 3.852 0 0 0-3.761 2.463 3.896 3.896 0 0 0 1.106 4.378l1.595-1.24a1.947 1.947 0 0 1-.968-2.19 1.931 1.931 0 0 1 1.883-1.468 1.932 1.932 0 0 1 1.864 1.491l1.59-1.239a3.855 3.855 0 0 0-3.309-2.195Z" fill="#DD6D62"/><ellipse fill="#BE1931" cx="76.552" cy="31.461" rx="4.053" ry="4.08"/></g></svg>