<svg viewBox="0 0 90 90" xmlns="http://www.w3.org/2000/svg"><g fill="none"><path fill="#102938" d="M0 0h90v90H0z"/><path d="M48.656 15c7.585 0 13.444 2.148 17.395 6.078 3.315 3.336 5.133 8.041 5.133 13.89 0 9.689-5.178 15.767-12.763 18.6L73 75H57.649L44.705 55.806l-7.903-11.652H47.84c6.403 0 10.037-3.427 10.037-8.636 0-5.667-3.906-8.592-10.31-8.592H25.086L17 15h31.656ZM32 56.655h.555l.119.001h.213l.095.001h.164l.07.001.117.001c.117.001.168.002.153.003-.06.006-.092 1.408-.095 4.204v.797c.003 3.05.034 7.496.095 13.337H19.822V56.662c1.096 0 2.125-.002 3.09-.003h.81l.393-.001h.761l.37-.001h.712l.345-.001H27.6l.305-.001H32Z" fill="#FFF"/></g></svg>