<svg viewBox="0 0 90 90" xmlns="http://www.w3.org/2000/svg"><defs><linearGradient x1="0%" y1="0%" x2="100%" y2="100%" id="a"><stop stop-color="#1E89EE" offset="0%"/><stop stop-color="#1DC3E3" offset="100%"/></linearGradient></defs><g fill="none"><path fill="url(#a)" d="M0 0h90v90H0z"/><g fill="#FFF"><path d="M26.124 28.567c9.083-10.403 24.884-11.484 35.3-2.408a25.008 25.008 0 0 1 7.66 12.145c3.419 12.301-2.997 25.202-14.87 29.916a25.989 25.989 0 0 1-9.957 1.775c-8.086-.118-16.171 0-24.257-.106V44.653a24.716 24.716 0 0 1 6.124-16.086Zm7.044 4.653a16.701 16.701 0 0 0-4.898 11.853c-.028 5.499 0 11.003 0 16.5 4.931.152 9.862 0 14.793.113 2.656.073 5.368-.107 7.845-1.12 8.617-3.27 12.954-12.9 9.682-21.512-3.272-8.611-12.91-12.945-21.528-9.675a16.682 16.682 0 0 0-5.906 3.824l.012.017Z"/><path d="M37.852 35.516c5.211-3.965 12.652-2.962 16.625 2.25C58.45 42.98 57.44 50.41 52.224 54.38a11.88 11.88 0 0 1-6.785 2.419c-4.107.045-8.209-.084-12.327-.045V44.648a11.798 11.798 0 0 1 4.74-9.132Z"/></g></g></svg>