<svg xmlns="http://www.w3.org/2000/svg" viewBox="0 0 90 90"><defs><linearGradient id="a" x1="50%" x2="50%" y1="0%" y2="100%"><stop offset="0%" stop-color="#5CAED3"/><stop offset="100%" stop-color="#153E8D"/></linearGradient></defs><path fill="url(#a)" d="M0 0h90v90H0z"/><path fill="#FFF" d="M36.64 35.34c0-5.3-4.4-7.83-11.42-7.83H20.5V43.7c.93.07 2.16.15 4.94.15 6.56 0 11.2-3.22 11.2-8.51M6 62.49h5.79V27.5H6v-7.74h19.68c11.66 0 20 4.98 20 15.26 0 6.52-4.02 11.5-9.58 13.73l7.8 13.73h5.79v7.74H37.95L27.77 51.06c-1.09.08-2.09.15-3.1.15-1.61 0-3.08 0-4.16-.07v11.35h6.33v7.74H6V62.5zm47.43-1.38c0-2.15 1.24-3.53 2.86-3.53a2.64 2.64 0 012.62 2.6c0 1.23-.7 2.3-1.7 2.92 1.55 2.68 6.02 5.14 12.12 5.14 7.72 0 12.58-4.37 12.58-10.66 0-6.37-5.86-9.13-12.2-11.66-7.63-3-14.43-6.14-14.43-14.26 0-7.37 6.1-12.66 14.75-12.66 7.8 0 14.04 4.76 14.04 9.36 0 2-1.3 3.22-2.78 3.22a2.67 2.67 0 01-2.7-2.69c0-1.15.62-2.07 1.47-2.76-1.31-2.45-5.94-4.37-10.19-4.37-6.79 0-11.5 4.14-11.5 9.67 0 6.44 5.8 8.97 12.58 11.65C78.36 46 85 49.3 85 57.35 85 65.63 78.29 71 69.18 71c-9.57 0-15.75-5.52-15.75-9.9"/></svg>