<svg xmlns="http://www.w3.org/2000/svg" xmlns:xlink="http://www.w3.org/1999/xlink" viewBox="0 0 90 90"><defs><linearGradient x1="21.704%" y1="21.593%" x2="84.778%" y2="84.282%" id="b"><stop stop-color="#FFF" offset="0%"/><stop stop-color="#BBC7D1" offset="100%"/></linearGradient><path d="M57.274 16.345H43.658V2.729A2.734 2.734 0 0 0 40.93 0H19.077a2.734 2.734 0 0 0-2.73 2.73v13.615H2.73A2.734 2.734 0 0 0 0 19.075v21.85a2.734 2.734 0 0 0 2.729 2.73h13.616v13.616A2.734 2.734 0 0 0 19.074 60h21.852a2.734 2.734 0 0 0 2.73-2.73V43.656H57.27A2.734 2.734 0 0 0 60 40.925v-21.85a2.733 2.733 0 0 0-2.726-2.73Z" id="a"/></defs><path fill="#FFF" d="M0 0h90v90H0z"/><g transform="translate(15 15)"><mask id="c" fill="#fff"><use xlink:href="#a"/></mask><path fill="url(#b)" mask="url(#c)" d="M-.126 60.198H60V-.176H-.126z"/></g><path d="M72.274 31.345H58.658V17.729A2.734 2.734 0 0 0 55.93 15H34.077a2.734 2.734 0 0 0-2.73 2.73v13.615H17.73a2.734 2.734 0 0 0-2.73 2.73v21.85a2.734 2.734 0 0 0 2.729 2.73h13.616v13.616A2.734 2.734 0 0 0 34.074 75h21.852a2.734 2.734 0 0 0 2.73-2.73V58.656H72.27A2.734 2.734 0 0 0 75 55.925v-21.85c0-1.491-1.237-2.73-2.726-2.73Zm.026 23.04c0 .833-.683 1.54-1.543 1.54H55.851V70.83c0 .834-.683 1.541-1.542 1.541H35.59a1.548 1.548 0 0 1-1.543-1.54V55.925H19.145a1.548 1.548 0 0 1-1.542-1.541V35.64c0-.833.683-1.54 1.542-1.54h14.907V19.195c0-.834.683-1.541 1.542-1.541H54.34c.834 0 1.542.682 1.542 1.54V34.1H70.79c.834 0 1.542.682 1.542 1.54v18.745H72.3Z" fill="#DA3F1F"/><path d="m66.69 44.91-5.482-4.116.834 2.6-12.228-.858c.378.758.607 1.591.607 2.475 0 .859-.201 1.667-.532 2.374l12.178-.909-.809 2.55 5.433-4.116Zm-18.997-.1v-.126l-1.187-19.678 2.553.808-4.12-5.456-4.117 5.48 2.603-.832-1.137 19.703v.277a2.734 2.734 0 0 0 2.73 2.729 2.734 2.734 0 0 0 2.728-2.73v-.024l-.053-.151Z" fill="#161A3B"/></svg>