<svg xmlns="http://www.w3.org/2000/svg" viewBox="0 0 90 90"><path d="M0 0h90v90H0z"/><path d="M20 75V15h27.05c3.893 0 7.376.82 10.45 2.457a18.633 18.633 0 0 1 10.041 16.587A19.247 19.247 0 0 1 57.5 51.246c-3.074 1.843-6.557 2.662-10.45 2.662H33.933V75H20Zm33.402 0-15.37-27.03 14.96-2.048L70 75H53.402ZM33.934 42.85H45.82c1.434 0 2.664-.41 3.893-1.024 1.025-.614 1.844-1.638 2.46-2.867.614-1.024 1.024-2.457 1.024-4.096 0-1.433-.41-2.866-1.025-3.89-.82-1.229-1.64-2.253-3.074-2.867-1.23-.615-2.868-.82-4.713-.82h-10.45" fill="#FFF"/></svg>