<svg viewBox="0 0 90 90" xmlns="http://www.w3.org/2000/svg"><g fill="none"><path fill="#000" d="M0 0h90v90H0z"/><path d="M70.937 23.387c3.337.937 4.716 3.532 3.773 7.136-.311 1.186-2.669 6.915-5.282 13.031l-.384.897-.193.45-.387.9c-2.907 6.749-5.86 13.352-6.487 14.315-1.85 2.739-6.058 4.793-7.328 3.532-.29-.288-3.265-3.82-6.602-7.858l-6.058-7.353-2.104-.108c-2.54-.144-3.01.216-4.027 2.812-1.197 3.1-1.922 3.712-4.461 3.892-2.903.217-4.063-.108-4.063-1.045 0-.642 1.942-5.504 4.05-10.434l.488-1.136c2.123-4.916 4.274-9.58 4.676-9.84 1.16-.83 23.506-.793 24.304.036.943.901.69 2.343-1.27 6.956-2.067 4.83-3.41 6.416-6.928 8.074l-1.778.83 3.011 3.64c1.669 2.018 3.12 3.676 3.229 3.676.223.034 2.503-4.905 4.896-10.362l.335-.764c2.566-5.878 5.16-12.11 5.398-13.24.362-1.55-.254-2.523-1.887-2.991-1.85-.505-27.025-.469-29.455.036-2.213.468-3.882 1.802-4.97 4l-.062.122c-.565 1.15-2.87 6.455-5.307 12.026-3.192 7.46-4.534 10.957-4.462 11.714.178 1.841 1.337 2.187 8.085 2.198h6.534l.327-1.55c.181-.828.435-1.513.544-1.513.145 0 1.777 1.55 3.664 3.424l3.41 3.388-3.628 1.694-5.187 2.343-1.56.685.217-.793.436-1.658.217-.793h-7.11c-7.618 0-8.85-.216-10.665-1.91C15.508 60.584 15 59.25 15 57.088c0-1.838.508-3.28 4.57-12.724 5.958-13.919 7.37-16.76 10.074-18.66l.189-.13a22.833 22.833 0 0 1 1.638-.975l.175-.092c.176-.09.35-.175.529-.255l.18-.077c2.35-.99 5.503-1.103 18.478-1.112h2.075a214.302 214.302 0 0 1 18.029.324Zm-23.69 14.418h-.91c-3.77.008-4.48.098-4.928.612a15.162 15.162 0 0 0-1.742 3.893c0 .184 2.565.227 5.175.172l.602-.014c2.302-.06 4.489-.196 4.816-.375.798-.432 2.249-3.388 1.922-3.928-.14-.21-2.178-.351-4.936-.36Z" fill="#FFF"/></g></svg>