<svg xmlns="http://www.w3.org/2000/svg" viewBox="0 0 90 90"><rect width="90" height="90" fill="#FFF"/><path fill="#262626" d="M40.075875,35 C41.138475,35 42,35.861525 42,36.924125 L42,38.151575 C42,40.27695 40.27695,42 38.151575,42 L23.098425,42 C20.97305,42 19.25,40.27695 19.25,38.151575 L19.25,36.924125 C19.25,35.861525 20.111525,35 21.174125,35 L40.075875,35 Z M38.151575,14 C40.27695,14 42,15.72298 42,17.848425 L42,27.825875 C42,28.888475 41.138475,29.75 40.075875,29.75 L3.8483725,29.75 C1.722973,29.75 0,28.02695 0,25.901575 L0,15.9241775 C0,14.86149 0.8614865,14 1.9241775,14 L38.151575,14 Z M18.901575,0 C21.02695,0 22.75,1.72297125 22.75,3.8483725 L22.75,6.8258225 C22.75,7.88851 21.888475,8.75 20.825875,8.75 L1.9241775,8.75 C0.8614865,8.75 0,7.88851 0,6.8258225 L0,3.848355 C0,1.72297125 1.72297125,0 3.8483725,0 L18.901575,0 Z" transform="translate(24 24)"/></svg>