<svg viewBox="0 0 90 90" xmlns="http://www.w3.org/2000/svg"><g fill="none"><path fill="#5E35B1" d="M0 0h90v90H0z"/><path d="M31.361 60.874a19.81 19.81 0 0 0 2.584.537c7.26.994 15.564-.458 22.624-3.76A36.354 36.354 0 0 1 60.806 75h11.317a46.199 46.199 0 0 0-6.36-23.43c5.036-4.723 7.58-10.496 7.2-16.483-.55-7.293-5.09-13.694-11.812-16.652-7.905-3.585-17.103-3.49-23.824-3.41-2.633.03-9.028.119-12.441.168H19V75h12.361V60.874Zm4.323-9.482c-2.109-.294-4.073-1.552-4.283-2.75a1.656 1.656 0 0 1 .525-1.64c1.15-1.154 3.758-1.99 6.06-1.99h.33a19.222 19.222 0 0 1 11.493 4.311c-4.587 1.835-9.788 2.67-14.125 2.069ZM31.36 25.227l6.096-.08c5.856-.059 13.146-.128 18.583 2.333a9.78 9.78 0 0 1 5.616 8.2c.195 2.983-1.075 5.499-2.683 7.418a30.772 30.772 0 0 0-20.192-8.234 23.516 23.516 0 0 0-7.42.95V25.226Z" fill="#FFF"/></g></svg>