<svg viewBox="0 0 90 90" xmlns="http://www.w3.org/2000/svg"><g fill="none"><path fill="#212226" d="M0 0h90v90H0z"/><path d="m42.343 51.25.418 15-.557 5.63.139 13.12-10.87-7.917v-.416l.551-.885c1.234-4.53 1.413-5.911 2.307-8.699 1.666-5.194 2.356-10.88 4.667-15.833h3.345ZM50.286 50l3.757 16.25 1.26 7.083-7.525 5.834c1.057-7.007.27-14.93.048-22.013-.018-.583-.086-1.234-.143-1.9l-.03-.364c-.182-2.31-.117-4.676 2.633-4.89ZM43.18 5l-.836 15.417-9.17 2.395c-.296-.044-5.127 4.643-7.706 8.438-4.492 7.965 3.51 17.34 10.605 20l-5.254 8.756-3.944 6.66-4.456-5.001 2.393-2.74c2.273-2.05 2.884-2.977 4.154-3.925v-.417c-3.63-2.187-7.166-4.642-9.898-7.916-8.2-9.825-5.966-24.569 3.246-32.781C28.368 8.488 35.483 6.575 43.179 5Zm4.617.687c1.15-.31 3.877.146 4.999.323 5.45.86 10.786 3.634 15.034 7.123 13.501 11.087 9.48 33.347-6.254 40.2l2.09 2.968c1.354 1.26 3.556 2.44 4.277 3.843-1.114 1.482-4.36 4.74-5.531 6.106l-4.187-8.75-3.757-6.667c12.043-3.839 18.216-23.994 3.158-27.862l-1.067-.471-8.362-2.083c-.01-3.459-.237-6.952-.366-10.417.035-1.47-.388-2.62-.034-4.313Zm3.333 23.356c9.623-6.55 12.093 13.6 1.248 11.114-1.477-.34-2.564-1.317-3.868-2.057-.07-1.75-.73-4.199.345-6.433a6.714 6.714 0 0 1 2.275-2.624Z" fill="#FFF"/></g></svg>