<svg viewBox="0 0 90 90" xmlns="http://www.w3.org/2000/svg"><g fill="none"><path fill="#FFF" d="M0 0h90v90H0z"/><path d="M48.985 45.024h7.08c-.08-5.984-4.981-10.78-10.966-10.727-5.986.053-10.802 4.934-10.776 10.919.026 5.985 4.885 10.823 10.87 10.824h27.695a31.15 31.15 0 0 1-1.944 4.032h-25.75c-8.218 0-14.88-6.662-14.88-14.88 0-8.217 6.662-14.879 14.88-14.879 8.217 0 14.879 6.662 14.879 14.88h7.103A21.983 21.983 0 1 0 45.193 67.15h20.04c-10.474 9.566-26.215 10.49-37.735 2.214-11.519-8.276-15.668-23.489-9.945-36.467 5.723-12.978 19.753-20.175 33.632-17.25C65.065 18.57 75 30.815 75 45a30.766 30.766 0 0 1-.264 3.96H45.193a3.792 3.792 0 0 1 0-7.56 3.792 3.792 0 0 1 3.792 3.624Z" fill="#000"/></g></svg>