<svg viewBox="0 0 90 90" xmlns="http://www.w3.org/2000/svg"><path d="M54.175 87.213c-6.202 3.762-12.21 3.65-18.294.064A1379.144 1379.144 0 0 0 13.42 74.31c-6.355-3.585-9.619-8.71-9.412-16.211.254-9.188.1-18.389.047-27.584-.034-5.853 2.498-10.419 7.333-13.37C20.02 11.878 28.8 6.849 37.651 1.963c4.925-2.72 10.17-2.57 15.077.182 8.683 4.87 17.343 9.795 25.839 14.984 4.748 2.9 7.351 7.352 7.336 13.12-.025 9.736-.061 19.473.014 29.209.047 6.244-2.75 10.849-7.957 13.96-7.818 4.67-15.75 9.152-23.785 13.795m18.132-47.96c.28-4.274-.068-8.37-3.482-11.51-.617-.567-1.41-.942-2.55-1.683 5.081 11.392 3.007 20.301-7.287 26.931l8.606 10.806c2.933-1.995 4.684-5.214 4.704-8.565.031-5.173.008-10.345.009-15.979M38.906 65.677c0 2.159.12 4.326-.039 6.474-.121 1.641.602 2.306 2.02 2.805 4.779 1.68 8.716-.152 12.615-2.857-2.69-4.238-5.368-8.449-8.04-12.663-2.16-3.409-2.157-3.41-6.556-2.672v8.913m-21.86-26.426c.001 5.405-.057 10.811.024 16.215.056 3.69 1.797 6.485 5.039 8.767v-37.93c-1.025.942-1.788 1.553-2.446 2.262-2.716 2.927-2.78 6.551-2.617 10.686m26.233-9.112h-4.235v13.52c2.653 0 5.201.225 7.692-.056 3.26-.368 5.115-2.683 5.304-6.005.213-3.766-1.272-6.05-4.676-6.96-1.177-.314-2.431-.34-4.085-.499m-3.455-13.461h10.637c-3.489-1.78-7.006-2.253-10.637 0Z" fill="#0074C8"/></svg>