<svg viewBox="0 0 90 90" xmlns="http://www.w3.org/2000/svg"><g fill="none"><path fill="#111822" d="M0 0h90v90H0z"/><path d="M45.586 14.083c3.142 0 6.125.306 8.947.917 2.823.612 5.296 1.63 7.42 3.057 2.125 1.426 3.812 3.348 5.063 5.764 1.252 2.416 1.877 5.43 1.877 9.04 0 4.366-1.135 8.078-3.404 11.135-2.27 3.056-5.587 4.992-9.952 5.807L71.25 75.916H54.926l-12.92-24.715h-6.721v24.715H21.667V18.677l-5.083-4.594h29.002Zm-1.397 11.528h-8.904v14.061h8.031c1.222 0 2.517-.043 3.885-.13 1.367-.088 2.604-.35 3.71-.787a6.417 6.417 0 0 0 2.75-2.052c.727-.932 1.09-2.242 1.09-3.93 0-1.572-.32-2.824-.96-3.755a6.402 6.402 0 0 0-2.444-2.14c-.99-.495-2.124-.83-3.404-1.005a27.758 27.758 0 0 0-3.754-.262Z" fill="#EB565A"/></g></svg>