<svg xmlns="http://www.w3.org/2000/svg" viewBox="0 0 90 90"><path fill="#7514BD" d="M0 0h90v90H0z"/><g fill="#FFF"><path d="M57.689 44.78H43.256c-.405 0-.689-.28-.689-.68v-8.566c0-.4.284-.6.69-.6h14.432c3.527 0 5.27 1.68 5.19 5.083-.203 2.682-2.555 4.763-5.19 4.763ZM40.824 30.57c-.486 0-.81-.36-.81-.84v-3.683c0-.44.324-.84.81-.84h3.73c.365 0 .73.4.73.84v3.683c0 .48-.365.84-.73.84h-3.73Zm-6 13.41c0 .52-.365.84-.81.84H30.77c-.487 0-.811-.32-.811-.84v-3.283c0-.4.324-.8.81-.8h3.244c.446 0 .81.4.81.8v3.283Zm33.649 7.245-1.216-.6C72.446 48.702 75 44.86 75 38.895c0-4.523-1.54-8.046-4.622-10.687-3.04-2.602-7.257-3.883-12.689-3.883H47.675c-.445 0-.77-.48-.77-.84v-.28c0-.441-.405-.842-.892-.842h-7.338c-.486 0-.892.4-.892.841v.8c0 .681-.405 1.081-.932 1.081h-5.433a.808.808 0 0 1-.81-.8c-.081-.6-.568-1-1.135-1H25.54c-.73 0-1.338-.281-1.865-.801l-.81-.841c-.528-.56-.811-1.16-.893-1.881V16.84c0-.52-.324-.841-.851-.841h-3.892c-.486 0-.81.32-.81.76v4.003c0 .4.324.801.81.801h2.919c.77 0 1.46.28 1.905.8l.892.841a2.5 2.5 0 0 1 .77 1.801v3.923c0 .64.528 1.08 1.136 1.08h4.662c.527.04.933.481.933 1.042v6.004c0 .8-.65 1.4-1.338 1.4h-2.392c-.608 0-1.135.521-1.135 1.082v5.403c0 .68.445 1.201 1.135 1.201h2.919c.648 0 1.135.52 1.135 1.16v7.806c0 .641-.527 1.121-1.135 1.121h-.852c-.608 0-1.135.52-1.135 1.161v4.403c0 .64.527 1.12 1.135 1.12h.608c.649 0 1.136.521 1.136 1.162v7.445c0 .8.648 1.481 1.459 1.481h9.243c.811 0 1.42-.64 1.42-1.481v-15.73c0-.32.283-.64.689-.64h6.932c4.054 0 7.257.52 9.284 2.201 2.31 2.001 3.122 5.684 3.122 12.649v1.52c0 1.002.527 1.442 1.58 1.482h9.163c.892 0 1.419-.44 1.46-1.481v-1.521c-.122-10.447-2.19-16.772-6.406-18.773Z"/><path d="M36.405 17.921v3.283c0 .44-.405.8-.851.8h-3.325a.808.808 0 0 1-.81-.8V17.92c0-.44.364-.8.81-.8h3.325c.486 0 .85.36.85.8ZM18.364 37.735h3.73c.487 0 .892-.4.892-.88v-3.723c0-.48-.405-.88-.892-.88h-3.73c-.486 0-.892.4-.892.88v3.723c0 .48.406.88.892.88Zm7.298 12.809h-3.284c-.648 0-1.256-.24-1.702-.68a2.344 2.344 0 0 1-.69-1.681V45.62c0-.44-.364-.8-.81-.8H15.81a.808.808 0 0 0-.811.8v3.322c0 .44.365.8.81.8h2.474c.648 0 1.257.24 1.702.721l.163.16c.446.44.689 1.041.689 1.681v3.083c0 .4.365.8.81.8h4.014c.446 0 .77-.4.77-.8v-4.003c.041-.52-.324-.84-.77-.84Z"/></g></svg>