<svg viewBox="0 0 90 90" xmlns="http://www.w3.org/2000/svg"><g fill="none"><path fill="#0EABDF" d="M0 0h90v90H0z"/><path d="M70.62 31.126c5.17.002 9.374 4.202 9.38 9.364v17.136C80 62.795 75.724 67 70.468 67c-2.869 0-5.634-1.278-7.397-3.418l-.01-.012a1.673 1.673 0 0 1 1.298-2.723c.5 0 .967.22 1.286.604l.01.012c1.118 1.354 2.962 2.195 4.813 2.195 3.352 0 6.187-2.76 6.19-6.027v-2.25a9.329 9.329 0 0 1-6.035 2.198c-5.17 0-9.376-4.205-9.376-9.374V40.5c.002-5.17 4.207-9.373 9.373-9.375Zm-40.337 1.479c.919 0 1.667.747 1.667 1.667v21.642a1.67 1.67 0 0 1-1.667 1.667c-.92 0-1.668-.747-1.668-1.666V34.272c0-.92.748-1.667 1.668-1.667Zm16.642-1.48c5.168 0 9.374 4.204 9.376 9.371v15.41c0 .922-.75 1.672-1.672 1.672-.921 0-1.671-.75-1.671-1.671V40.5a6.04 6.04 0 0 0-6.033-6.032A6.04 6.04 0 0 0 40.89 40.5v15.407c0 .921-.75 1.671-1.672 1.671-.921 0-1.67-.75-1.67-1.671V40.492c.003-5.165 4.209-9.366 9.376-9.366Zm-28.479.001.015.001c1.91 0 3.766.584 5.343 1.689l.031.02a1.674 1.674 0 0 1 .71 1.366 1.673 1.673 0 0 1-2.624 1.375 5.995 5.995 0 0 0-3.487-1.11c-3.093 0-5.091 2.369-5.091 6.033v15.407c0 .921-.75 1.671-1.672 1.671-.921 0-1.671-.75-1.671-1.67V40.475c.002-5.408 3.548-9.348 8.431-9.35h.015Zm52.177 3.342a6.04 6.04 0 0 0-6.034 6.033v7.701a6.04 6.04 0 0 0 6.034 6.035 6.04 6.04 0 0 0 6.034-6.032V40.5a6.04 6.04 0 0 0-6.034-6.033Z" fill="#FFF"/><path d="M30.255 23a2.623 2.623 0 0 0-2.62 2.62 2.623 2.623 0 0 0 2.62 2.618 2.623 2.623 0 0 0 2.62-2.618 2.623 2.623 0 0 0-2.62-2.62" fill="#FDA561"/></g></svg>