<svg viewBox="0 0 90 90" xmlns="http://www.w3.org/2000/svg"><defs><linearGradient x1="100%" y1="0%" x2="0%" y2="100%" id="a"><stop stop-color="#FFC400" offset="0%"/><stop stop-color="#FFA100" offset="100%"/></linearGradient></defs><g fill="none"><path fill="url(#a)" d="M0 0h90v90H0z"/><path d="M23.74 35.68c0-4.63-2.35-8.46-6.74-11.68h10.2a14.66 14.66 0 0 1 5.77 11.68c0 4.71-2.19 8.92-5.77 11.68 3.31 1.37 5.2 4.74 5.2 9.57v9.19h-9.24v-9.2c0-4.59-2.2-7.8-6.16-9.56 4.39-3.22 6.74-7.05 6.74-11.68Zm20 0c0-4.63-2.35-8.46-6.74-11.68h10.2a14.66 14.66 0 0 1 5.77 11.68c0 4.71-2.19 8.92-5.77 11.68 3.31 1.37 5.2 4.74 5.2 9.57v9.19h-9.24v-9.2c0-4.59-2.2-7.8-6.16-9.56 4.39-3.22 6.74-7.05 6.74-11.68Zm20 0c0-4.63-2.35-8.46-6.74-11.68h10.2a14.66 14.66 0 0 1 5.77 11.68c0 4.71-2.19 8.92-5.77 11.68 3.31 1.37 5.2 4.74 5.2 9.57v9.19h-9.24v-9.2c0-4.59-2.2-7.8-6.16-9.56 4.39-3.22 6.74-7.05 6.74-11.68Z" fill="#000"/></g></svg>