<svg viewBox="0 0 90 90" xmlns="http://www.w3.org/2000/svg"><g fill="none" fill-rule="evenodd"><path fill="#004022" d="M0 0h90v90H0z"/><path d="M51.367 29.183a.223.223 0 0 1 .221.11.22.22 0 0 1-.026.245l-.19.217a138.31 138.31 0 0 0-17.64 25.641l-.03.054c-.164.311-.894 1.705-1.05 2.011l-.045.09-.075.149c-.134.268-.366.73-.608 1.217l-.162.327c-.189.38-.372.753-.509 1.037a138.703 138.703 0 0 0-5.221 12.297l-.103.28a.222.222 0 0 1-.212.142h-1.504a.22.22 0 0 1-.172-.088.219.219 0 0 1-.032-.189s1.554-6.567 3.552-13.086l.216-.698c.398-1.278.812-2.546 1.234-3.752-.111-.43-.219-.876-.322-1.33l-.122-.548c-.04-.184-.08-.368-.118-.553l-.114-.554a113.59 113.59 0 0 1-1.115-6.681l-.007-.057c-.001-.007.015-.527.16-.744a151.413 151.413 0 0 1 9.422-12.49 1.79 1.79 0 0 1 .792-.478 141.662 141.662 0 0 1 13.493-2.53Zm-9.749 31.751a.17.17 0 0 1 .178.047c.04.05.05.12.02.18l-1.122 2.24c-.122.24-.363.368-.363.369-1.5.71-3.989 1.887-6.194 2.928l-.04.019c-1.16.548-2.267 1.176-3.14 1.59l-.386.182a.159.159 0 0 1-.182-.029.162.162 0 0 1-.039-.18l.165-.39c.211-.497.704-1.716 1.062-2.527l.012-.024.217-.495s.113-.224.284-.304c2.838-1.298 5.965-2.41 8.314-3.2Zm11.764-30.041.052.012c.083.03.14.11.142.2l.003.286c.05 4.525.86 13.468.86 13.468s.03.25-.088.418c0 0-1.844 2.982-3.704 6.153l-.31.53-.308.53c-.869 1.5-1.697 2.973-2.29 4.125-.129.25-.359.44-.63.518a130.188 130.188 0 0 0-13.588 4.75l-.262.11a.218.218 0 0 1-.086.015.217.217 0 0 1-.156-.067.217.217 0 0 1-.037-.242l.122-.255a135.939 135.939 0 0 1 19.906-30.262l.187-.216a.215.215 0 0 1 .24-.06ZM58.147 17l.413.003c2.55.055 4.19.514 5.322 1.49 1.303 1.125 2.76 5.569 1.816 11.581-.062.346-.152.587-.487.967A129.992 129.992 0 0 0 56.744 41.8l-.17.242a.222.222 0 0 1-.183.092.19.19 0 0 1-.052-.008.217.217 0 0 1-.162-.189l-.027-.294a128.43 128.43 0 0 1-.502-13.721 1.084 1.084 0 0 0-1.203-1.093 141.65 141.65 0 0 0-14.082 2.269l-.327.068a.217.217 0 0 1-.209-.355l.224-.247a149.895 149.895 0 0 1 9.161-9.345 3.1 3.1 0 0 1 1.17-.746c3.115-1.022 5.865-1.518 8.178-1.469Z" fill="#00CD00" fill-rule="nonzero"/></g></svg>