<svg viewBox="0 0 90 90" xmlns="http://www.w3.org/2000/svg"><g fill="#F5455C"><path d="M85.899 31.814A34.49 34.49 0 0 0 75.735 21.75a56.118 56.118 0 0 0-30.743-8.542 63.352 63.352 0 0 0-11.316 1.003 37.5 37.5 0 0 0-7.774-5.786 30.533 30.533 0 0 0-24.4-1.619A2.276 2.276 0 0 0 .079 8.413a2.266 2.266 0 0 0 .551 2.072C3.922 13.93 9.386 20.72 8.045 26.871A26.591 26.591 0 0 0 0 45.433a26.655 26.655 0 0 0 8.045 18.69c1.341 6.164-4.11 12.944-7.401 16.389a2.266 2.266 0 0 0 .871 3.679 30.546 30.546 0 0 0 24.404-1.612 37.511 37.511 0 0 0 7.78-5.79 63.367 63.367 0 0 0 11.317 1.004 56.104 56.104 0 0 0 30.743-8.54 34.445 34.445 0 0 0 10.143-10.07 24.919 24.919 0 0 0 0-27.38l-.003.01ZM44.527 69.846a53.954 53.954 0 0 1-14.053-1.82l-3.16 3.067a28.96 28.96 0 0 1-5.837 4.348 22.767 22.767 0 0 1-8.253 2.342c.154-.282.295-.566.446-.847a20.27 20.27 0 0 0 2.564-15.833 19.555 19.555 0 0 1-5.893-6.574 19.51 19.51 0 0 1-2.396-8.49c0-13.145 16.378-23.804 36.582-23.804 20.203 0 36.595 10.656 36.595 23.803 0 13.149-16.389 23.808-36.595 23.808Z"/><path d="M27.016 40.563a5.42 5.42 0 0 0-3.011.9 5.387 5.387 0 0 0-.842 8.308 5.418 5.418 0 0 0 8.33-.809 5.388 5.388 0 0 0 .914-3 5.378 5.378 0 0 0-1.575-3.813 5.402 5.402 0 0 0-3.816-1.586Zm17.369 0a5.418 5.418 0 0 0-5.012 3.319 5.389 5.389 0 0 0 1.16 5.89 5.413 5.413 0 0 0 5.898 1.18 5.407 5.407 0 0 0 2.431-1.99 5.389 5.389 0 0 0 .913-3 5.373 5.373 0 0 0-1.574-3.813 5.404 5.404 0 0 0-3.816-1.586Zm17.35 0a5.418 5.418 0 0 0-5.018 3.314 5.388 5.388 0 0 0 1.156 5.892 5.422 5.422 0 0 0 8.332-.806 5.39 5.39 0 0 0 .913-3.001 5.382 5.382 0 0 0-1.572-3.811 5.408 5.408 0 0 0-3.811-1.588Z"/></g></svg>