<svg viewBox="0 0 90 90" xmlns="http://www.w3.org/2000/svg"><g fill="none"><path fill="#8DC63F" d="M0 0h90v90H0z"/><path d="m25.902 53.995 13.875.343 5.626 13.002-7.524 7.92.75-5.234-6.54 6.576.86-6.042L23.963 78l3.469-11.153-5.244 3.07 3.66-8.578-4.561 2.74 4.615-10.084ZM69 11 56.41 40.527l6.527 12.262L51.22 70.26l3.482-9.989-4.93-9.18-5.011 8.824-3.523-7.495-8.248-.452 6.254-7.988-10.337-1.123-7.907 7 11.717-17.483 13.778 1.453L69 11ZM29.016 57.585l-.71 3.042 2.144-.685-.983 3.425 2.471-.795-.642 4.604 4.002-2.316.204 2.59 2.732-2.206.177 2.26 2.54-1.698-3.537-7.92-8.398-.301Z" fill="#FFF"/></g></svg>