<svg xmlns="http://www.w3.org/2000/svg" viewBox="0 0 90 90"><path d="M43.967 2h2.079c1.17.04 2.338.103 3.502.212-.466 1.765-.955 3.527-1.416 5.294a39.362 39.362 0 0 0-19.294 3.388c-.906-1.565-1.836-3.117-2.757-4.674C31.661 3.602 37.79 2.138 43.967 2ZM57.21 9.337a515.45 515.45 0 0 0 1.423-5.222c4.914 1.616 9.574 4.022 13.637 7.208 2.58 2.012 4.915 4.324 6.992 6.842-1.605.907-3.197 1.832-4.808 2.728-4.548-5.306-10.563-9.363-17.244-11.556ZM4.2 29.135C7.16 22.025 11.998 15.68 18.18 11c.927 1.567 1.833 3.147 2.758 4.717-4.97 3.907-8.912 9.057-11.416 14.82-1.773-.467-3.545-.942-5.321-1.403Zm37.59-17.079c5.98-.58 12.112.431 17.56 2.942a34.108 34.108 0 0 1 13.109 10.6c3.407 4.56 5.615 9.989 6.328 15.616.858 6.59-.308 13.427-3.356 19.354C72.406 66.51 67.55 71.52 61.678 74.77c-5.527 3.083-11.948 4.559-18.283 4.234a34.05 34.05 0 0 1-15.315-4.48c-5.281-3.023-9.71-7.481-12.676-12.753a33.154 33.154 0 0 1-4.236-17.865 33.126 33.126 0 0 1 5.113-16.198C19.82 22.1 25.066 17.56 31.167 14.85a34.01 34.01 0 0 1 10.622-2.795m-3.177 5.62a27.128 27.128 0 0 0-14.017 7.66c-4.093 3.861-6.923 9.012-7.91 14.523-.501 2.551-.45 5.16-.407 7.744a26.419 26.419 0 0 0 5.908 15.573c.973 1.217 2.097 2.302 3.214 3.39 3.719 3.548 8.5 5.99 13.58 6.936 2.78.536 5.63.531 8.45.425-.616-3.158-.994-6.383-2.034-9.445-.503-1.377-1.228-2.664-2.033-3.89-.177-.265-.36-.541-.637-.71-1.025-.576-2.09-1.096-3.244-1.366-1.64-.594-3.507-1.053-4.614-2.504-1.123-1.16-1.273-2.849-1.306-4.372-.037-2.153.807-4.171 1.39-6.207-1.745-.12-3.51-.216-5.205-.665-1.446-.342-2.786-1.005-4.102-1.673-1.379-.708-2.462-1.827-3.454-2.987-.976-1.157-1.342-2.665-1.715-4.092-.039-.466-.352-1.277.281-1.47 1.682-.252 3.392-.218 5.09-.203 2.371.014 4.702.502 7.004 1.01 2.736.715 5.35 2.03 7.403 3.975a8.587 8.587 0 0 1 1.995-1.093c-.039-1.314.244-2.605.405-3.902.494-3.483 2.227-6.654 4.308-9.456.31-.405.824-.764 1.362-.609.62.199 1.122.646 1.536 1.128 1.011 1.327 1.995 2.77 2.288 4.439.605 2.627.342 5.35-.117 7.978.814.227 1.677.406 2.366.922.612.448.901 1.171 1.236 1.82.455-.03.88.176 1.18.506.83.883 1.168 2.122 1.184 3.305.354.247.716.49 1.13.627 1.967.643 4.012 1.022 5.976 1.666.89.45 1.868-.048 2.81.066.788.046 1.86.237 2.1 1.12.174.839.208 1.798-.318 2.53-.374.527-.241 1.227-.567 1.779-.764 1.75-2.497 2.738-3.93 3.894-.384.365-1.069.378-1.266.924-.569 1.215-1.592 2.127-2.574 3.012a7.944 7.944 0 0 1-3.428 1.437c-1.35.168-2.717.13-4.07.03.68 3.483 1.807 6.866 2.943 10.226 4.194-1.773 7.74-4.77 10.665-8.186 4.788-5.729 7.073-13.395 6.336-20.778a28.152 28.152 0 0 0-4.882-13.282c-3.504-5.074-8.686-9.016-14.586-10.97-5.036-1.695-10.54-1.94-15.724-.786Zm40.952 10.913c1.585-.88 3.143-1.807 4.726-2.69 3.027 5.99 4.72 12.657 4.71 19.363a45.33 45.33 0 0 1-.416 6.206c-1.777-.456-3.55-.932-5.322-1.403.945-7.317-.378-14.874-3.698-21.476ZM1 44.346c.094-2.14.286-4.275.647-6.387 1.752.453 3.495.931 5.24 1.404-.265 2.512-.527 5.038-.42 7.57.114 3.73.86 7.425 2.079 10.952.196.406-.097.796-.472.95-1.41.726-2.719 1.628-4.146 2.32A43.689 43.689 0 0 1 1 46.846v-2.5Zm80.094 14.79c.254-.14.533.023.787.077 1.46.451 2.971.734 4.425 1.203-1.721 4.83-4.364 9.34-7.72 13.24-2.514 2.923-5.44 5.493-8.622 7.687a312.679 312.679 0 0 1-2.71-4.678c1.971-1.486 3.906-3.037 5.613-4.823 3.383-3.468 6.051-7.603 7.858-12.074.105-.218.165-.48.37-.632ZM8.253 69.357c1.546-.94 3.126-1.82 4.69-2.728a38.749 38.749 0 0 0 15.59 13.31c-.478 1.763-.952 3.53-1.42 5.297-3.904-1.757-7.582-4.027-10.824-6.807-3.091-2.634-5.775-5.718-8.036-9.072ZM37.3 82.853a39.406 39.406 0 0 0 21.768-1.866c.916 1.571 1.832 3.145 2.76 4.711C56.878 87.7 51.573 88.85 46.223 89h-2.38a49.593 49.593 0 0 1-7.96-.927c.467-1.742.959-3.477 1.417-5.22Z" fill="#DDB43F"/></svg>