<svg xmlns="http://www.w3.org/2000/svg" viewBox="0 0 90 90"><path fill="#276AFF" d="M0 0h90v90H0z"/><path fill="#fff" d="M73.85 15h-57.7A1.16 1.16 0 0 0 15 16.17V74.6a1.16 1.16 0 0 0 1.15 1.17h2.31c.31 0 .6-.13.82-.35a1.16 1.16 0 0 0 .34-.82V19.67h50.77v48.88L56.74 54.73h5.57a1.14 1.14 0 0 0 1.07-.72c.05-.14.08-.3.08-.45v-25.7a1.16 1.16 0 0 0-1.15-1.18H27.7a1.16 1.16 0 0 0-1.15 1.17V74.6a1.16 1.16 0 0 0 1.15 1.17H30a1.14 1.14 0 0 0 1.07-.72c.05-.14.08-.3.08-.45V31.36h27.7v18.7h-8.08a1.16 1.16 0 0 0-1.16 1.17v2.33c0 .57.3.86.6 1.17l19.61 19.86c.48.49 1.13 1.17 1.71 1.17h2.32A1.15 1.15 0 0 0 75 74.6V16.17A1.16 1.16 0 0 0 73.85 15ZM42.69 57.52V43.05h2.93a4.64 4.64 0 0 0 5.2 2.17 4.62 4.62 0 0 0 3.42-4.51 4.71 4.71 0 0 0-3.43-4.52 4.57 4.57 0 0 0-5.19 2.18h-6.39a1.16 1.16 0 0 0-1.15 1.17v18.72c0 1.22.18 1.37.56 1.76l15.21 15.4c.2.2.47.33.75.34h3.96a.85.85 0 0 0 .61-.25.88.88 0 0 0 .26-.62c0-.41-.28-.7-.57-1L42.69 57.53Z"/></svg>