<svg viewBox="0 0 90 90" xmlns="http://www.w3.org/2000/svg"><g fill="none" fill-rule="evenodd"><path fill="#0054FA" d="M0 0h90v90H0z"/><path d="M64.404 47.318c-2.009-.135-4.028-.273-6.04-.276-3.813-.01-7.632.056-11.446.135a117.22 117.22 0 0 0-6.185.306c-2.494.192-4.982.439-7.47.706a120.245 120.245 0 0 0-17.823 3.269l-.06.02c.096.46.209.922.324 1.38 1.56.07 3.116.142 4.679.201 1.434.056 2.865.096 4.299.158 2.061.09 4.12.195 6.182.277 1.48.06 2.964.092 4.444.152 2.306.092 4.612.19 6.915.283 1.335.056 2.67.1 4.005.155 2.306.092 4.61.191 6.912.28 1.434.056 2.865.1 4.299.152 2.501.092 5 .19 7.5.283.873.033 1.745.06 2.624.083 1.897.049 3.79.098 5.683.128.083.003.155.003.215 0a29.479 29.479 0 0 0 1.474-6.792c-.747-.089-1.494-.184-2.247-.25-2.763-.224-5.522-.462-8.284-.65Zm9.443-10.502c-.096-.016-.212-.02-.35-.03-3.39-.224-6.78-.467-10.174-.642a242.065 242.065 0 0 0-8.743-.283c-2.597-.037-5.2.03-7.8.062-.853.01-1.702.03-2.548.08-2.425.131-4.85.237-7.273.43-3.29.271-6.578.568-9.86.94-2.533.29-5.051.702-7.569 1.097-1.401.221-2.789.505-4.18.785-.139.688-.257 1.39-.35 2.099 3.876.122 58.54 1.786 60 1.819a29.42 29.42 0 0 0-1.153-6.357Zm-6.578-11.652c-.615-.036-1.223-.109-1.838-.129-2.986-.085-5.974-.184-8.96-.214-2.356-.026-4.715.02-7.068.066-2.138.05-4.276.079-6.407.234-3.096.227-6.188.53-9.281.85-4.233.438-12.143 2.08-13.725 2.412-.39.564-.757 1.14-1.104 1.73 6.68.241 48.95 1.678 53.022 1.803a29.818 29.818 0 0 0-4.64-6.752Zm.118 34.722c-3.234-.316-6.476-.75-9.72-.846-4.854-.139-9.725-.149-14.575.197-3.004.215-5.997.524-8.987.85-4.573.498-9.077 1.365-13.53 2.499-.097.022-.186.049-.282.075.298.416.602.824.922 1.223.664.013 1.328.043 1.993.066 1.334.05 2.67.095 4 .155 2.013.089 4.029.194 6.04.276 1.504.06 3.008.093 4.514.152 2.693.112 5.383.244 8.076.353 2.184.089 4.371.141 6.555.227 2.862.112 5.723.247 8.588.35 2.035.075 4.07.105 6.102.174a29.454 29.454 0 0 0 3.86-5.177 2.51 2.51 0 0 0-.32-.08c-1.075-.174-2.149-.388-3.236-.494ZM61.72 20.091A30.147 30.147 0 0 0 44.906 15a30.128 30.128 0 0 0-15.149 4.053c-.595.343-1.176.709-1.744 1.088h33.715v-.05h-.006ZM30.362 71.293A30.145 30.145 0 0 0 44.649 75h.519a30.146 30.146 0 0 0 16.56-5.088v-.056H28.006c.76.517 1.546.995 2.356 1.437Z" fill="#FFF" fill-rule="nonzero"/></g></svg>