<svg viewBox="0 0 90 90" xmlns="http://www.w3.org/2000/svg" xmlns:xlink="http://www.w3.org/1999/xlink"><defs><path d="M0 1.021a1.02 1.02 0 1 1 2.04-.002A1.02 1.02 0 0 1 0 1.021" id="a"/><path d="M0 1.021a1.02 1.02 0 1 1 2.04 0 1.02 1.02 0 1 1-2.04 0" id="c"/></defs><g fill="none" fill-rule="evenodd"><path fill="#F25C19" fill-rule="nonzero" d="M0 0h90v90H0z"/><path d="M31.496 76.055a.285.285 0 0 0 .207-.09c.008-.008.014-.016.02-.024l.014-.015.031-.032-.3-.152-.016.021a1.092 1.092 0 0 1-.088.102c-.025.026-.047.038-.065.038-.022 0-.044-.021-.064-.042l-.728-.724c.215.008.39-.014.48-.064l.294-.17.387.35.225.003-.445-.453.624-.37.265.265c.069.068.075.096 0 .294l-.015.04.337.02.01-.012c.083-.095.079-.18-.011-.27l-.432-.43.083-.053-.253-.114c-.211-.183-.306-.255-.39-.296a1.125 1.125 0 0 0-.322-.096l-.047-.007.049.19.03-.005a.3.3 0 0 1 .047-.004c.112 0 .234.066.365.197l.063.06-.637.377-.232-.01.083.1a3.792 3.792 0 0 1-.46.263.297.297 0 0 1-.135.04c-.074 0-.16-.04-.272-.1l-.008-.004h-.246l.38.378a13.146 13.146 0 0 1 .472.509c.057.066.102.117.139.153.096.096.17.14.436.14.037 0 .079 0 .125-.003m1.487.115c-.056-.21-.023-.295.066-.4a.418.418 0 0 1 .29-.128c.069 0 .129.021.177.064.099.084.102.151.015.312l-.023.043.34.037.011-.017c.118-.183.042-.351-.07-.447-.159-.138-.41-.152-.482-.154h-.02a.732.732 0 0 0-.558.246c-.146.17-.108.354-.071.533.036.172.07.334-.058.48a.47.47 0 0 1-.356.166.521.521 0 0 1-.34-.136c-.169-.145-.195-.335-.172-.428a.992.992 0 0 1 .095-.206l.024-.044-.12-.01-.333.206v.018c-.002.222.07.37.253.528a.938.938 0 0 0 .676.228c.278-.01.49-.097.627-.257.125-.144.13-.25.029-.635m1.162 1.542c.116-.151.114-.26-.012-.636-.069-.205-.042-.292.042-.403a.413.413 0 0 1 .3-.146c.061 0 .116.018.161.053.104.078.111.145.035.311l-.02.044.342.014.01-.017c.106-.189.019-.352-.1-.442-.146-.111-.361-.123-.447-.123l-.042.001a.726.726 0 0 0-.561.281c-.136.18-.086.36-.038.537.047.169.091.328-.026.484a.473.473 0 0 1-.376.188c-.11 0-.22-.04-.318-.115-.178-.134-.217-.322-.199-.416a.933.933 0 0 1 .083-.212L33 77.07l-.12-.002-.321.226v.018c.014.222.095.365.288.512a.933.933 0 0 0 .688.184c.274-.027.484-.13.61-.296m2.491-.045-.513-.327.069-.07-.27-.058c-.245-.133-.354-.183-.447-.206a1.05 1.05 0 0 0-.382-.02l-.04.006.079.201.033-.02c.122-.08.288-.054.49.075l.073.047-.54.503-.229.04.102.08a3.96 3.96 0 0 1-.393.354.26.26 0 0 1-.18.073.903.903 0 0 1-.232-.045l-.007-.003-.24.054.45.288c.099.063.32.217.413.282l.143.105c.076.057.137.101.183.13.062.04.123.074.23.074.08 0 .188-.019.347-.06a.281.281 0 0 0 .197-.158l.01-.019.026-.037-.328-.087-.01.025a.77.77 0 0 1-.065.119c-.033.05-.056.05-.063.05-.02 0-.041-.013-.064-.027l-.866-.552c.213-.037.377-.095.458-.165l.25-.229.452.26.22-.047-.53-.347.53-.493.316.201c.08.052.093.08.062.287l-.006.044.333-.054.008-.013c.06-.109.038-.191-.069-.261m3.264 2.147c-.226.616-.537.81-.768.861l-.016-.062-.275.058-.043-.017a.389.389 0 0 1-.273-.328.899.899 0 0 1 .06-.412c.171-.469.533-.795.882-.795.065 0 .13.01.193.034.127.046.406.203.24.66Zm.021-.773c-.26-.094-.607-.09-.902.003-.383.123-.671.499-.787.817-.091.25-.1.457-.026.616.062.134.182.234.358.298.045.018.13.045.171.052l.012.002c.026.004.049.008.073.01.161.411.345.711.707.843a.78.78 0 0 0 .267.056c.085 0 .16-.022.225-.067l.015-.01-.064-.474c-.031 0-.049.156-.067.195-.075.16-.156.216-.27.174-.05-.019-.227-.124-.45-.72.122-.018.238-.052.345-.101.296-.133.575-.46.712-.835.158-.435.05-.724-.319-.859m2.341 2.499a2.261 2.261 0 0 1-.304-.052c-.023-.006-.03-.011-.032-.016-.009-.012.003-.062.008-.083.022-.094.063-.18.135-.32l.686-1.347-.047-.005c-.396-.04-.44-.04-.54.05l-.042.038.204.062-.687 1.347c-.22.072-.427.094-.558.064-.185-.042-.251-.166-.203-.376.096-.42.517-.961.868-1.286.022-.018.035-.032.04-.053a.055.055 0 0 0-.006-.044.045.045 0 0 0-.03-.02l-.01-.001a.257.257 0 0 0-.051.008c-.024.004-.053.01-.086.014a1.84 1.84 0 0 0-.278-.095.879.879 0 0 0-.198-.029.496.496 0 0 0-.161.028c-.181.06-.352.223-.464.348l-.034.04.235.064.008-.033c.037-.164.177-.223.295-.223.03 0 .06.003.09.01a.828.828 0 0 1 .253.116c-.314.322-.724.781-.816 1.177-.024.105-.037.255.038.375.05.079.13.132.24.157.041.01.096.014.164.014.193 0 .447-.038.596-.068l-.036.133v.005a.12.12 0 0 0 .087.1l.44.038.008.001a.495.495 0 0 0 .204-.08l.06-.048-.076-.01m1.858-1.233-.148.723-.43-.05.578-.673Zm.178 1.382c-.058-.006-.092-.016-.103-.028-.008-.009-.009-.024-.007-.052.01-.11.256-1.49.326-1.751l.005-.018-.064-.062-.023.018c-.088.074-.124.093-.173.088-.055-.004-.122-.021-.19-.038a1.437 1.437 0 0 0-.261-.044.565.565 0 0 0-.238.023c-.104.039-.29.182-.382.262a.648.648 0 0 0-.15.188l-.023.043.248.014.003-.03c.016-.171.165-.264.397-.242.09.01.274.05.38.094l-.753.883c-.37.433-.443.467-.691.444a.344.344 0 0 1-.056-.009l-.07-.012-.022-.002-.143.246-.019.035.039.012a.568.568 0 0 0 .143.03c.231.022.386-.001.752-.43l.176-.204.541.05-.128.614.001.007c.011.044.047.068.08.089l.009.007h.01c.193-.018.348-.037.594-.07l.014-.002.105-.14-.124-.004a2.463 2.463 0 0 1-.203-.01m3.361-2.319a.532.532 0 0 0-.128.025c-.035.013-.329.22-.382.28a1.933 1.933 0 0 0-.17.242l-.799 1.313-.219-1.515-.154.126a2.07 2.07 0 0 1-.092-.005c-.066-.003-.136-.008-.197-.005-.16.008-.29.036-.402.146-.094.094-.19.228-.252.349l-.014.024.198.135-.003-.065c-.005-.103.025-.181.09-.235a.383.383 0 0 1 .224-.073c.094-.004.215.01.279.019l-.2.968c-.104.498-.16.515-.434.53h-.016a1.97 1.97 0 0 1-.175-.012l-.023-.003-.132.307.042.005a.33.33 0 0 0 .053.005l.034-.002c.201-.01.296-.03.42-.09.084-.04.307-.32.352-.525l.2-.915.184 1.506.164-.138.815-1.436-.273 1.424a.12.12 0 0 0 .114.115 5.77 5.77 0 0 0 .57-.108l.01-.002.139-.152-.081.006-.089.009c-.064.005-.129.012-.186.013-.11.004-.115-.029-.116-.065a2.765 2.765 0 0 1 .036-.236l.275-1.52c.018-.107.063-.162.14-.165a.8.8 0 0 1 .163.03l.032.011.097-.318-.038-.003a.285.285 0 0 0-.056 0m3.958-1.037-.01-.007a.267.267 0 0 0-.173-.025c-.042.014-.07.027-.189.184l-.017.023.02.02a.529.529 0 0 1 .166.241c.096.303-.068.81-.169 1.036l-.35.79-.25-1.437.131-.17-.033-.019a.133.133 0 0 0-.108-.01l-.392.124a.634.634 0 0 0-.249.153 1.138 1.138 0 0 0-.176.264l-.019.038.189.03.005-.031c.027-.161.17-.247.248-.271a.726.726 0 0 1 .097-.017l.33 1.85.243-.141c.075-.044.514-1.142.617-1.423.223-.612.227-.848.156-1.071a.38.38 0 0 0-.067-.131m.82.113c.134-.062.16-.104.236-.247l.042-.078-.744.313c-.034.023-.07.095-.08.146l-.01.049.267-.067.238 1.646c-.156.072-.172.088-.238.248l-.03.072.736-.308c.046-.019.088-.07.137-.164l.032-.065-.322.089-.264-1.634m1.423.177-.227-.907a.92.92 0 0 1 .428-.11c.197.01.327.177.402.315.094.175.175.466.18.65.015.456-.232.65-.45.767a5.873 5.873 0 0 1-.373.182c.154-.345.132-.53.04-.897Zm-.264-1.062-.03-.12-.202.248a1.767 1.767 0 0 0-.208.168 1.315 1.315 0 0 0-.356.604l-.013.049.236-.037v-.028c-.006-.208.109-.401.333-.56l.32 1.313c.06.246.039.333-.232.52l-.01.006-.084.283.066-.032c.048-.024.096-.046.143-.068.096-.045.196-.091.293-.145.323-.174.506-.287.61-.38.122-.11.426-.514.456-.856a1.53 1.53 0 0 0-.188-.848c-.195-.361-.581-.406-1.134-.117m3.311-.347-.01-.014-.025-.035-.206.266.019.02c.029.03.06.07.085.105.05.073.02.093-.027.127l-.845.585c.05-.213.058-.387.025-.484l-.115-.32.414-.318.043-.22-.524.355-.251-.68.308-.213c.037-.026.062-.036.089-.036.045 0 .102.03.2.088l.037.023.079-.327-.01-.013c-.077-.098-.16-.11-.266-.037l-.5.347-.038-.09-.158.226c-.219.176-.307.256-.362.332a.958.958 0 0 0-.185.451l-.003.038.261-.023-.017-.04c-.074-.174.003-.336.235-.498l.073-.05.256.694-.053.226.114-.064c.08.19.126.324.175.5.04.132.014.205-.133.39l-.05.25.44-.306c.088-.06.281-.184.42-.272l.168-.1c.075-.044.133-.08.175-.109.126-.087.183-.158.235-.527a.281.281 0 0 0-.073-.247m.633-1.652c-.004.138-.092.288-.181.384l-.33-.66c.115-.093.187-.132.246-.132.048 0 .092.027.143.086a.521.521 0 0 1 .123.322Zm1.553.583c.04.211.028.297-.055.368-.131.114-.499-.029-1.066-.415l-.359-.244c.05-.086.14-.25.168-.36a.593.593 0 0 0-.112-.498c-.099-.116-.221-.157-.344-.116-.105.035-.178.078-.376.245l-.053-.111-.17.327a1.47 1.47 0 0 0-.135.167.973.973 0 0 0-.197.554v.041l.246-.066-.01-.031c-.048-.172.009-.355.155-.51l.495.976c.225.446.162.596.083.677l-.192.195-.01.283.527-.45c.136-.115.152-.153.22-.39l.03-.101-.344.291c.03-.356.021-.525-.157-.874l.552.39c.283.201.527.299.746.299a.66.66 0 0 0 .44-.165c.001-.002.198-.172.21-.268l.004-.017-.315-.294.019.097" fill="#FFF" fill-rule="nonzero"/><path d="m59.17 75.545-.861-1.413c.097-.103.11-.152.125-.318l.008-.088-.57.57c-.023.035-.028.117-.018.166l.01.048.22-.16.841 1.433c-.12.127-.124.149-.124.32v.078l.562-.563c.036-.035.056-.097.066-.203l.007-.073-.267.203" fill="#FFF" fill-rule="nonzero"/><path d="M60.431 35.216c1.496-.814 2.078-3.042 2.078-3.042s-2.653 1.988-5.222.313c.093.01 1.872.296 2.978-1.247 1.681.57 3.132 1.311 5.772-.115-.506 2.53-3.194 3.511-3.194 3.511 1.15.6 2.137 1.08 2.98 3.88-1.395-.319-4.313-1.016-5.392-3.3Zm.531 15.967v-2.45c.634.57 1.02.741 1.626.983-.442.281-1.068.638-1.626 1.467Zm2.829 1.005c-.66.46-2.5 1.914-2.12 4.135-1.359-1.885-1.758-5.301 2.593-6.746-3.31-.724-4.301-2.4-2.673-4.565 1.264 3.18 3.189 1.9 3.408 1.54.558 1.276 1.14 4.118-1.208 5.636Zm-.526 6.911c1.301.59.794 3.334-1.94 4.179.773-1.112.34-3.359.898-4.013.115.04.593.194 1.042-.166Zm1.253 3.661c-.445.31-1.242.749-1.595 1.35-.438.748-.576 2.101-.618 2.839h-.612c-.013-.39-.33-.626-.668-.668-.795-.117-1.784-.41-2.389-2.133.182-.417.352-.835.51-1.255.436-.197 1.082-.336 1.84-.382-.235.926-.614 1.422-.614 1.422s1.833.253 3.215-1.3c.347.04.671.085.93.127ZM45.014 83.346c-9.073-.008-15.315-6.687-16.247-7.746 0-.653-.306-8.852.788-8.785.691.132-.927 1.169.573 3.505.045.078 4.44 7.481 13.465 8.204.764.483 1.064.7 1.117.724l.193.09.191-.092c.052-.025.589-.247 1.305-.733 7.838-.683 12.49-6.649 13.153-7.662 1.803-2.363.49-3.63.889-4.03 1.082-.24.819 7.856.82 8.78-.934 1.06-7.173 7.737-16.247 7.745ZM28.333 66.949h-.636c-.042-.738-.18-2.091-.618-2.838-.353-.602-1.15-1.04-1.595-1.35.26-.043.583-.088.93-.127 1.381 1.552 3.214 1.299 3.214 1.299s-.379-.496-.615-1.422c.776.047 1.436.19 1.872.393.152.407.315.811.49 1.213-.17.619-.604 1.233-.924 1.552-.882.775-2.005.34-2.118 1.28Zm-1.598-7.85c.19.144.422.231.677.231.129 0 .25-.025.365-.065.231.34.375.962.375 1.734-.071.927.337 1.967.524 2.279-1.272-.194-3.857-2.894-1.94-4.179Zm2.34-10.381-.001 2.278c-.561-.697-1.203-1.028-1.663-1.28.76-.266 1.37-.667 1.664-.998Zm-2.866 3.47c-.136-.092-2.763-1.552-1.207-5.635 0 0 1.974 2.031 3.407-1.541 2.775 3.667-2.673 4.565-2.673 4.565 4.186 1.334 4.06 4.764 2.593 6.746.275-1.712-.749-3.215-2.12-4.135Zm.946-17.552c-1.685-.704-2.96-2.023-3.192-3.511 1.39.775 2.96 1.283 5.772.115.948 1.346 2.445 1.275 2.978 1.247-1.352.955-3.447.848-5.222-.313.305.956.599 2.07 2.078 3.042-.238.475-.735 1.297-1.537 1.813-1.445.928-2.982 1.326-3.855 1.488.499-1.626 1.221-3.23 2.978-3.88Zm-.282-10.1c.28.727.727 1.935 1.544 2.77 1.303 1.33 3.184 1.62 3.184 1.62s-1.54-2.904.899-5.277c-.415 2.103.051 3.92 1.193 4.568l-1.773.942s.702.449 1.37.841c-2.442.373-4.608-1.199-4.608-1.199s.098.656.448 1.425c-3.697-.047-5.722-4.658-2.257-5.69Zm8.235 3.981h5.474c1.277 0 1.384-1.184 1.386-1.376h4.431c.141 1.804-.157 2.362-.472 2.692H34.818c-.421-.075-1.192-.635-1.259-.674.181-.1 1.287-.642 1.55-.642Zm4.757-3.17c.114-.01.499-.024 1.802-.024 1.315 0 3.067-.02 4.468-.012.057.292.12.647.174 1.03l-5.128.004s.155 1.375-1.109 1.375h-3.247c1.424-1.131 2.786-2.199 3.04-2.373ZM37.678 24.2c0-.513.167-1.087.447-1.561l1.027 1.71c-.445.282-.913.704-1.114.894-.133-.216-.36-.642-.36-1.043Zm2.856-2.56 1.313 2.402h-1.26l-1.279-2.345c.003 0 .416-.04 1.226-.057Zm-3.883-6.625h11.56l1.68 2.99c-.319.232-1.167.883-3.12.871-.385 0-1.477-.063-3.15-.806-2.911-1.518-3.51-2.35-6.97-3.055Zm4.483-7.581.479.839-3.363 5.936h-.315l-.32-.564 3.519-6.211Zm6.493 5.881-.186.328.318.565-3.828-.002c.033-.05 1.469-1.333 3.696-.89Zm-.972-2.165c.41 0 .742.305.742.68 0 .375-.332.679-.742.679s-.742-.304-.742-.68c0-.374.332-.679.742-.679Zm5.212-3.716.452.78-3.521 6.213-.45-.782 3.519-6.211Zm.45 14.32c2.05 1.26 1.451 3.105.966 3.482l-2.035-3.568c.126.002.953.012 1.069.086Zm1.017 3.45a.601.601 0 0 1-.03-.05.627.627 0 0 0 .04.04.422.422 0 0 1-.01.01Zm-11.57 15.942-2.578-.873c.255-.28.524-.59 1.188-1.43.218.303 1.39 2.303 1.39 2.303Zm.894-10.22s1.397 3.515 3.885 1.397c-1.421 2.1-1.662 3.607-1.638 5.763-1.423.98-2.707 2.173-2.707 2.173-1.025-1.692-5.562-8.634-6.81-9.652h9.331c-1 .362-2.061.32-2.061.32Zm4.179-5.432c.118.09 1.457 1.882 1.457 3.255 0 .458-.29 3.526-4.656 2.674 4.874-.645 3.63-4.422 3.199-5.93Zm-.147-3.854L48 24.042h-1.387l-1.312-2.4 1.39-.003Zm4.117-.636-.233-.535s-1.497-.409-2.173-.935c.803-.15 1.449-.532 1.884-.827l1.33 2.368c-.026 0-.808-.07-.808-.07Zm-1.2 3.04-1.312-2.4h1.246l1.329 2.42c-.316-.013-1.263-.02-1.263-.02Zm2.9 12.827c-.479-.353-1.956-1.318-4.56-.385.82-1.047 1.373-3.646 1.204-5.375.797 2.047 1.506 3.961 3.363 5.18l-.008.58Zm-3.266 4.768h-3.16c.666-.911 2.078-1.956 2.841-2.31.363.872.4 2.049.32 2.31Zm-4.567.49-2.362-.798s.986-1.122 2.616-2.311c.032.714.084 1.203.084 1.203s1.131-1.069 2.215-2.612c3.38-1.594 5.14-.176 5.387.628-1.99-1.537-6.992 1.575-7.94 3.89Zm-.394-21.125c.426-.139 1.549-.83 2.184-1.394.25.038.52.024.69.003.446.323 1.392 1.079 2.389 1.391H44.28Zm-2.853 0 1.38-2.437c.185.099.353.182.492.243.596.258 1.192.542 2.03.7-.58.503-2.208.96-2.208.96l-.204.534h-1.49Zm2.123.636 1.309 2.403h-1.257l-1.31-2.403h1.258ZM28.987 44.475c-.318-.498-.675-.82-1.086-1.256-.489 4.269-2.512 3.235-2.6 1.994.472-1.023 1.872-2.621 2.789-3.505-1.32-.031-2.151-.402-2.151-.402s1.073-1.392 2.02-2.492c-.85.252-2.115.394-3.014.234 1.665-.428 4.348-1.078 5.326-3.58.88.213 2.251-.297 3.405-.948-.72.5-3.376 1.97-6.942 6.542 4.537.686 5.749-.748 7.557-3.903-.333 1.112-.525 1.853-.186 2.989.463 1.559 2.077 1.064 2.077 1.064-.665-3.573 1.569-4.89 2.197-5.381.387.59 1.387 2.101 1.539 2.338-1.246 1.555-2.146 2.394-2.146 2.394l2.95 1.075H28.987v2.837Zm-.71 13.01c.336-.35.75-.822 1.063-1.293l.002.036c.17 1.935.574 3.84 1.199 5.71a8.132 8.132 0 0 0-1.672-.235c-.111-.347.183-1.844-.547-2.84a1.12 1.12 0 0 0 .218-.66c0-.274-.1-.522-.264-.717ZM40.753 74.71c-.098.096-.19.175-.276.243-.134-.12-.27-.246-.406-.374a2.89 2.89 0 0 0 .606-.348c.467-.348.63-.599.63-.599l.006.099s-.134.563-.56.98Zm.52.944c-.073-.062-.146-.127-.222-.19.105-.086.18-.165.18-.165l.042.355Zm-.016-.914s-.06.29-.33.59l-.013.014c-.092-.08-.185-.163-.278-.247.066-.038.134-.082.203-.138.43-.338.434-.409.434-.409l-.016.19Zm-9.379-9.533c1.426 2.821 2.596 4.547 4.426 6.713 2.266 2.682 4.324 4.473 5.857 5.615-6.764-1.186-10.48-6.305-11.218-7.422-.616-1.504.745-3.155.935-4.906Zm21.84 6.713c1.78-2.107 3.227-4.285 4.339-6.523.19.87.664 2.073.897 2.83.226.733.266 1.311.255 1.687l-.003.005c-.04.07-3.753 6.267-11.286 7.608 1.507-1.143 3.54-2.933 5.797-5.607Zm-4.698 2.79c-.426-.416-.56-.979-.56-.979l.005-.099s.163.25.631.6c.284.21.557.337.774.412-.15.14-.298.276-.443.408a3.492 3.492 0 0 1-.407-.342Zm-.166.848c-.13.112-.257.221-.382.326l.07-.585s.115.123.26.227a.558.558 0 0 0 .052.032Zm-.008-.228c-.27-.3-.33-.59-.33-.59l-.017-.19s.005.07.434.41c.126.1.246.167.356.214-.105.094-.212.192-.315.281a1.468 1.468 0 0 1-.128-.125Zm9.714-13.475c-.065.188-.852 2.262-1.07 2.615l-2.148 3.606-3.52-5.906-3.44 5.767 3.072 5.15c-.504.526-1 1.01-1.48 1.461a5.284 5.284 0 0 1-.868-.763 3.158 3.158 0 0 1-.713-1.297h-.004c.032-.174.082-.398.155-.6.176-.485.337-.65.337-.65v-.004s-.161-.166-.337-.653c-.146-.4-.2-.897-.2-.897s-.055.497-.2.897c-.176.487-.337.653-.337.653v.003s.161.166.338.652l.153.6h-.001s-.163.702-.717 1.296c-.727.78-1.23.968-1.23.968s.593-.039 1.241-.522c.467-.348.632-.599.632-.599l.004.099s-.134.563-.56.98c-.434.423-.784.565-.784.565s.406.052.87-.317c.43-.338.436-.409.436-.409l-.018.19s-.06.29-.329.59a2.82 2.82 0 0 1-.49.403s.305-.043.533-.207c.145-.104.26-.227.26-.227l.094.779c-.488.403-.94.756-1.336 1.048l-2.009-3.37-1.928 3.233a27.563 27.563 0 0 1-1.41-1.098l.072-.592s.115.123.26.227c.228.164.533.207.533.207s-.305-.195-.49-.403a1.42 1.42 0 0 1-.33-.59l-.017-.19s.005.07.435.41c.465.368.87.316.87.316s-.349-.142-.783-.566c-.426-.416-.56-.979-.56-.979l.005-.099s.164.25.63.6c.649.482 1.241.521 1.241.521s-.502-.188-1.23-.968c-.553-.594-.715-1.297-.715-1.297h-.003a3.76 3.76 0 0 1 .155-.6c.176-.485.337-.65.337-.65v-.004s-.161-.166-.337-.653c-.147-.4-.2-.897-.2-.897s-.054.497-.2.897c-.175.487-.337.653-.337.653v.003s.162.166.337.652l.154.6h-.002s-.162.702-.715 1.296a5.531 5.531 0 0 1-.731.665 36.915 36.915 0 0 1-1.504-1.512l2.977-4.993-3.443-5.775-3.462 5.813a28.882 28.882 0 0 1-2.266-4.162v-.006c-.164-.398-.759-1.856-.87-2.253l3.099-5.198-3.373-5.658h3.164c-.11.235-.279.518-.523.78-.727.78-1.23.968-1.23.968s.593-.039 1.24-.522c.469-.349.632-.599.632-.599l.004.098s-.133.565-.559.98c-.434.423-.783.565-.783.565s.405.053.87-.315c.429-.34.434-.41.434-.41l-.017.19s-.06.288-.33.59c-.184.207-.49.403-.49.403s.306-.045.534-.207c.144-.104.26-.228.26-.228l.192 1.604h.012l.193-1.604s.115.124.26.228a1.4 1.4 0 0 0 .534.207s-.305-.196-.49-.403c-.27-.302-.33-.59-.33-.59l-.018-.19s.006.07.435.41c.464.368.87.315.87.315s-.348-.142-.784-.565c-.425-.415-.56-.98-.56-.98l.006-.098s.163.25.631.599c.649.483 1.24.522 1.24.522s-.502-.189-1.23-.968a3.083 3.083 0 0 1-.523-.78h6.453a3.08 3.08 0 0 1-.523.78c-.727.78-1.23.968-1.23.968s.592-.039 1.241-.522c.468-.349.63-.599.63-.599l.006.098s-.134.565-.56.98c-.434.423-.782.565-.782.565s.405.053.87-.315c.428-.34.433-.41.433-.41l-.017.19s-.06.288-.33.59c-.185.207-.49.403-.49.403s.305-.045.533-.207c.145-.104.26-.228.26-.228l.193 1.604h.013l.192-1.604s.115.124.26.228c.229.162.534.207.534.207s-.305-.196-.49-.403c-.27-.302-.33-.59-.33-.59l-.018-.19s.006.07.435.41c.465.368.87.315.87.315s-.348-.142-.782-.565c-.427-.415-.56-.98-.56-.98l.004-.098s.163.25.63.599c.65.483 1.242.522 1.242.522s-.503-.189-1.23-.968a3.098 3.098 0 0 1-.524-.78h6.441a3.087 3.087 0 0 1-.524.78c-.727.78-1.228.968-1.228.968s.59-.039 1.24-.522c.468-.349.63-.599.63-.599l.005.098s-.133.565-.559.98c-.435.423-.784.565-.784.565s.406.053.871-.315c.429-.34.433-.41.433-.41l-.017.19s-.06.288-.329.59c-.185.207-.49.403-.49.403s.305-.045.533-.207c.146-.104.26-.228.26-.228l.193 1.604h.012l.193-1.604s.114.124.26.228c.228.162.533.207.533.207s-.305-.196-.49-.403a1.424 1.424 0 0 1-.33-.59l-.018-.19s.006.07.435.41c.465.368.87.315.87.315s-.348-.142-.783-.565a2.253 2.253 0 0 1-.56-.98l.005-.098s.163.25.631.599c.65.483 1.24.522 1.24.522s-.501-.189-1.229-.968a3.087 3.087 0 0 1-.523-.78h6.456a3.096 3.096 0 0 1-.523.78c-.728.78-1.23.968-1.23.968s.592-.039 1.24-.522c.468-.349.632-.599.632-.599l.004.098s-.133.565-.559.98c-.435.423-.784.565-.784.565s.405.053.871-.315c.429-.34.434-.41.434-.41l-.018.19s-.06.288-.329.59c-.185.207-.49.403-.49.403s.305-.045.533-.207c.145-.104.26-.228.26-.228l.193 1.604h.012l.192-1.604s.116.124.26.228a1.4 1.4 0 0 0 .534.207s-.305-.196-.49-.403c-.27-.302-.33-.59-.33-.59l-.018-.19s.006.07.435.41c.464.368.872.315.872.315s-.35-.142-.785-.565a2.253 2.253 0 0 1-.56-.98l.005-.098s.163.25.632.599c.648.483 1.24.522 1.24.522s-.502-.189-1.23-.968a3.109 3.109 0 0 1-.523-.78h3.132l-3.343 5.665 3.244 5.484Zm1.432-19.308v7.24h-29.87v-7.24H43.22l2.062.748s.099-.455.237-.748h14.475Zm1.685 16.316c-.56.634-.523 2.62-.547 2.84a8.23 8.23 0 0 0-1.642.227c.587-1.76.98-3.552 1.165-5.372l.017-.349c.311.466.72.93 1.052 1.277a1.122 1.122 0 0 0-.264.716c0 .247.083.475.219.661Zm-8.402-21.642c.963 1.484 1.006 2.297.862 3.67.942.006 2.742-.82 1.571-3.732.54.876 1.77 2.886 2.695 3.373 2.465 1.296 4.905.573 4.905.573s-2.67-3.412-4.572-4.844c-.778-.702-2.186-1.522-2.413-1.74.387.178 2.139 1.252 3.405.946.27.495.796 1.554 1.82 2.213 1.125.723 2.455 1.135 3.505 1.368-.91.159-2.082.05-3.013-.234.947 1.1 2.02 2.492 2.02 2.492s-.972.388-2.15.402c.915.884 2.069 2.15 2.788 3.505 0 0 .06 1.068-.939 1.118-1.09-.055-1.639-1.994-1.66-3.112 0 0-.788.81-1.081 1.22v-2.802h-7.635c.179-.744.395-2.208-.116-3.79l.008-.626ZM57.5 23.649c.623.52 1.192 1.498 1.365 2.527.203 1.197-.586 2.825-.586 2.825s2.001-.364 3.303-1.694c.818-.836 1.264-2.045 1.544-2.77 1.06.17 2.282 1.385 1.607 3.07-.327.695-.78 1.393-1.379 1.826-.758.547-1.764.731-2.483.793.349-.77.448-1.425.448-1.425-4.525 2.745-7.345.332-7.345.332 2.372-.345 4.316-1.849 3.526-5.484ZM35.049 11.813c-.518 1.022-1.275 1.182-1.555 1.572-.178-.873.657-1.36.98-1.995.338-.666.244-1.5.18-1.924.444.42.735 1.678.395 2.347ZM69.62 34.381c-.475 1.334-.592 3.133-2.906 4.263-.255-1.13-.676-3.06-2.33-3.885 3.135-1.845 2.46-4.984 2.46-4.984s-2.46 2.065-5.478 1.07c.013-.003 5.296-.399 5.577-4.496.162-1.788-.987-4.266-3.312-5.164-2.306-.89-3.625-3.382-3.63-3.394 0 0-1.767 3.53 1.934 4.795-2.125 1.045-1.08 3.126-1.08 3.126s.463-.805 1.356-1.094c-.303.799-.715 1.681-1.185 2.15-.398.398-1.082.676-1.412.88 1.118-3.99-3.148-5.406-3.148-5.406l.026.128c.029.572.458 4.36-1.84 4.525-.956.049-1.478-.349-1.765-.822 0 0 1.448-.405 1.476-1.86.062-1.798-1.456-3.107-2.264-3.112l4.218-7.428-4.453-7.841-3.843 6.785a6.802 6.802 0 0 0-.232-.027 1.22 1.22 0 0 0 .273-.762c0-.712-.63-1.29-1.408-1.29-.778 0-1.41.578-1.41 1.29 0 .29.107.556.283.772-.2.023-.375.052-.502.09l-3.893-6.858-4.424 7.81.318.566h-1.695c.652 0 2.07-4.443-1.324-5.636 1.001 2.626-1.006 3.006-1.033 4.455.008.505.271.945.56 1.183l.587.665c.089.1.343.35.8.53.422.163 2.372.58 3.235.816l2.685 4.782c-1.151.018-1.495.05-1.646.077-1.247.223-2.117 1.823-2.117 3.119 0 .826.619 1.605.62 1.605l.098.128c-.413.324-.925.728-1.557 1.232-.23.01-.487.012-.781-.002-2.256-.14-1.991-4.245-1.931-4.895 0 0-4.4 1.301-3.143 5.38-.33-.203-1.014-.48-1.412-.878-.47-.47-.882-1.353-1.186-2.151.69.283.98.549 1.358 1.094.137-.393.892-2.2-1.081-3.126 3.692-1.3 1.933-4.795 1.933-4.795-.005.012-1.323 2.504-3.63 3.394-2.324.898-3.473 3.376-3.31 5.164.255 2.601 2.635 4.143 5.576 4.496-2.807.77-3.538-.04-5.478-1.07-.297 2.508.87 3.934 2.46 4.984-1.304.653-1.92 2.034-2.33 3.885-2.37-1.07-2.907-4.263-2.907-4.263s-2.012 6.842 3.725 7.302c-.565.426-2.333 1.606-2.522 3.94-.183 6.086 3.988 6.022 5.625 8.718.425.716.346 1.947.235 2.735-.01 0-.019-.003-.029-.003a1.13 1.13 0 0 0-1.128 1.13c0 .117.023.228.057.335-.25.137-.465.33-.633.58-.392.577-.462 1.365-.182 2.056.128.313.271.59.425.839-1.18.235-2.223.515-2.223.515 1.83.993 3.176 1.207 3.193 5.22h1.318a67.93 67.93 0 0 0-.178 1.695c-.1 1.146-.094 6.451-.094 6.451s6.834 8.233 17.047 8.252h.016c9.423.007 15.946-6.998 17.03-8.252.075-.849.04-7.016-.271-8.146h1.292c-.002-1.9-.198-3.63 3.198-5.271-1.132-.23-1.04-.26-2.219-.483.15-.242 1.49-2.24-.4-3.456.033-.107.056-.218.056-.336a1.13 1.13 0 0 0-1.128-1.13c-.01 0-.346-1.87.206-2.73.998-1.935 5.958-3.125 5.626-8.719-.19-2.334-1.958-3.514-2.523-3.94 3.48-.235 4.744-3.558 3.724-7.302" fill="#FFF" fill-rule="nonzero"/><path d="m55.405 62.162.004-.097s.163.25.632.598c.648.483 1.24.523 1.24.523s-.502-.19-1.23-.97c-.553-.593-.715-1.296-.715-1.296h-.003a3.77 3.77 0 0 1 .154-.6c.176-.485.338-.651.338-.651v-.003s-.162-.167-.338-.653a4.45 4.45 0 0 1-.199-.897s-.054.497-.2.897c-.176.486-.337.653-.337.653v.003s.16.166.337.652l.154.599h-.002s-.162.703-.715 1.297c-.728.78-1.23.969-1.23.969s.592-.04 1.24-.523c.468-.348.632-.598.632-.598l.004.097s-.133.565-.559.98c-.435.424-.784.565-.784.565s.405.053.871-.315c.429-.339.434-.41.434-.41l-.018.19s-.06.287-.329.59c-.185.207-.49.403-.49.403s.305-.044.533-.207a2.06 2.06 0 0 0 .26-.227l.193 1.603h.012l.192-1.603s.116.123.26.227c.229.163.534.207.534.207s-.305-.196-.49-.403c-.27-.303-.33-.59-.33-.59l-.018-.19s.006.071.435.41c.464.368.872.315.872.315s-.35-.14-.785-.565c-.426-.415-.56-.98-.56-.98m-6.931 0 .003-.097s.164.25.631.598c.65.483 1.241.523 1.241.523s-.502-.19-1.23-.97a3.165 3.165 0 0 1-.714-1.296H48.4c.032-.175.081-.398.154-.6.176-.485.338-.651.338-.651v-.003s-.162-.167-.338-.653c-.145-.4-.2-.897-.2-.897s-.054.497-.199.897c-.176.486-.338.653-.338.653v.003s.162.166.338.652l.153.599h-.002s-.16.703-.716 1.297c-.726.78-1.228.969-1.228.969s.591-.04 1.24-.523c.468-.348.63-.598.63-.598l.005.097s-.133.565-.559.98c-.435.424-.784.565-.784.565s.406.053.871-.315c.43-.339.433-.41.433-.41l-.017.19s-.06.287-.329.59c-.185.207-.49.403-.49.403s.305-.044.534-.207c.145-.104.26-.227.26-.227l.192 1.603h.012l.193-1.603s.115.123.26.227c.228.163.534.207.534.207s-.306-.196-.49-.403c-.27-.303-.33-.59-.33-.59l-.018-.19s.006.071.435.41c.464.368.87.315.87.315s-.348-.14-.784-.565c-.425-.415-.558-.98-.558-.98m-6.926 0 .005-.097s.164.25.631.598c.649.483 1.24.523 1.24.523s-.502-.19-1.229-.97a3.159 3.159 0 0 1-.715-1.296h-.003a3.77 3.77 0 0 1 .154-.6c.176-.485.338-.651.338-.651v-.003s-.162-.167-.338-.653c-.147-.4-.2-.897-.2-.897s-.053.497-.199.897c-.176.486-.338.653-.338.653v.003s.162.166.338.652l.153.599h-.002s-.161.703-.715 1.297c-.727.78-1.23.969-1.23.969s.592-.04 1.241-.523c.468-.348.63-.598.63-.598l.006.097s-.133.565-.56.98c-.434.424-.783.565-.783.565s.406.053.87-.315c.43-.339.434-.41.434-.41l-.017.19s-.06.287-.33.59c-.184.207-.489.403-.489.403s.305-.044.533-.207c.145-.104.26-.227.26-.227l.192 1.603h.012l.193-1.603s.116.123.26.227c.23.163.533.207.533.207s-.304-.196-.488-.403a1.435 1.435 0 0 1-.331-.59l-.018-.19s.006.071.436.41c.464.368.87.315.87.315s-.349-.14-.784-.565c-.426-.415-.56-.98-.56-.98m-6.931 0 .005-.097s.163.25.631.598c.649.483 1.24.523 1.24.523s-.502-.19-1.23-.97c-.553-.593-.714-1.296-.714-1.296h-.003c.032-.175.08-.398.154-.6.176-.485.338-.651.338-.651v-.003s-.162-.167-.338-.653a4.526 4.526 0 0 1-.199-.897s-.055.497-.2.897c-.176.486-.338.653-.338.653v.003s.162.166.338.652l.154.599h-.003s-.162.703-.715 1.297c-.727.78-1.23.969-1.23.969s.593-.04 1.24-.523c.469-.348.632-.598.632-.598l.004.097s-.133.565-.559.98c-.434.424-.783.565-.783.565s.405.053.87-.315c.429-.339.434-.41.434-.41l-.017.19s-.06.287-.33.59c-.184.207-.49.403-.49.403s.306-.044.534-.207c.144-.104.26-.227.26-.227l.192 1.603h.012l.193-1.603s.115.123.26.227c.229.163.534.207.534.207s-.305-.196-.49-.403c-.27-.303-.33-.59-.33-.59l-.018-.19s.006.071.435.41c.464.368.87.315.87.315s-.348-.14-.784-.565c-.425-.415-.56-.98-.56-.98m10.17-13.691a2.398 2.398 0 0 1-2.396-2.395c0-.52.17-1.02.477-1.43a1.953 1.953 0 0 0 1.919 2.298A1.952 1.952 0 0 0 46.7 44.65c.309.41.48.908.48 1.428a2.399 2.399 0 0 1-2.397 2.395Zm1.067-5.104s.305.602.305 1.127c0 .714-.659 1.3-1.372 1.3-.713 0-1.343-.623-1.343-1.336 0-.525.296-1.134.296-1.134-1.108.451-1.875 1.561-1.875 2.752 0 1.61 1.31 2.921 2.922 2.921a2.925 2.925 0 0 0 2.922-2.921 2.9 2.9 0 0 0-1.855-2.71m-10.346 5.105a2.398 2.398 0 0 1-2.396-2.395c0-.52.17-1.02.478-1.43a1.952 1.952 0 0 0 1.918 2.298 1.952 1.952 0 0 0 1.918-2.296c.309.41.479.908.479 1.428a2.398 2.398 0 0 1-2.397 2.395Zm1.068-5.104s.304.602.304 1.127c0 .714-.658 1.3-1.372 1.3-.713 0-1.342-.623-1.342-1.336 0-.525.295-1.134.295-1.134-1.108.451-1.874 1.561-1.874 2.752 0 1.61 1.31 2.921 2.921 2.921a2.925 2.925 0 0 0 2.923-2.921 2.9 2.9 0 0 0-1.855-2.71m17.489 5.105a2.398 2.398 0 0 1-2.396-2.395c0-.52.17-1.02.478-1.43a1.953 1.953 0 0 0 1.918 2.298 1.952 1.952 0 0 0 1.918-2.296c.308.41.478.908.478 1.428a2.398 2.398 0 0 1-2.396 2.395Zm1.068-5.104s.304.602.304 1.127c0 .714-.658 1.3-1.372 1.3-.714 0-1.343-.623-1.343-1.336 0-.525.296-1.134.296-1.134-1.108.451-1.874 1.561-1.874 2.752 0 1.61 1.31 2.921 2.921 2.921a2.925 2.925 0 0 0 2.922-2.921 2.902 2.902 0 0 0-1.854-2.71M42.363 28.36a.49.49 0 1 0 .982.002.49.49 0 0 0-.982-.001" fill="#FFF" fill-rule="nonzero"/><g transform="matrix(1 0 0 -1 42.363 28.852)"><mask id="b" fill="#fff"><use xlink:href="#a"/></mask><g mask="url(#b)" fill="#FFF" fill-rule="nonzero"><path d="M2.04 1.02a1.02 1.02 0 1 0-2.04 0 1.02 1.02 0 0 0 2.04 0"/></g></g><path d="M44.326 28.374a.49.49 0 1 0 .981.002.49.49 0 0 0-.98-.002" fill="#FFF" fill-rule="nonzero"/><g transform="matrix(1 0 0 -1 44.326 28.865)"><mask id="d" fill="#fff"><use xlink:href="#c"/></mask><g mask="url(#d)" fill="#FFF" fill-rule="nonzero"><path d="M2.04 1.02a1.02 1.02 0 1 0-2.038-.001 1.02 1.02 0 0 0 2.039 0"/></g></g><path fill="#FFF" fill-rule="nonzero" d="m48.338 56.365-3.443-5.661-3.443 5.661 3.443 5.774 3.443-5.774m0 11.58-3.443-5.775-3.443 5.775 3.443 5.774 3.443-5.774m6.927-11.58-3.442-5.661-3.443 5.661 3.443 5.774 3.442-5.774m-13.856 0-3.443-5.661-3.443 5.661 3.443 5.774 3.443-5.774M30.202 72.859l.04.047a.775.775 0 0 0-.085.125.51.51 0 0 0-.05.149.62.62 0 0 0 .025.324c.016.04.035.075.056.106l-.047.041a.534.534 0 0 0-.097-.073.626.626 0 0 0-.32-.074.574.574 0 0 0-.287.093l-.04-.048a.565.565 0 0 0 .142-.449.522.522 0 0 0-.09-.255l.049-.04a.422.422 0 0 0 .097.071.595.595 0 0 0 .32.074.543.543 0 0 0 .287-.091m29.066.556.04-.048a.785.785 0 0 0 .137.063.512.512 0 0 0 .156.023.663.663 0 0 0 .315-.081.49.49 0 0 0 .094-.074l.05.04a.529.529 0 0 0-.056.108.563.563 0 0 0-.028.152.573.573 0 0 0 .152.443l-.04.048a.754.754 0 0 0-.137-.063.5.5 0 0 0-.155-.023.659.659 0 0 0-.316.081.614.614 0 0 0-.095.075l-.047-.04a.511.511 0 0 0 .083-.261c.004-.06 0-.12-.012-.176a.534.534 0 0 0-.054-.146.845.845 0 0 0-.087-.12m-21.835 5.148.056.027a.541.541 0 0 0-.016.305.61.61 0 0 0 .064.165.592.592 0 0 0 .088.123.64.64 0 0 0 .094.076l-.027.055a.64.64 0 0 0-.118-.028.61.61 0 0 0-.453.146.75.75 0 0 0-.096.113l-.057-.028a.639.639 0 0 0 .029-.148.574.574 0 0 0-.077-.32.5.5 0 0 0-.182-.198l.028-.058a.459.459 0 0 0 .272.021.571.571 0 0 0 .297-.138.793.793 0 0 0 .098-.113m11.182 1.383.061-.012a.804.804 0 0 0 .067.138.589.589 0 0 0 .253.21.576.576 0 0 0 .145.045.57.57 0 0 0 .12.005l.012.06a.563.563 0 0 0-.11.049.623.623 0 0 0-.274.388.748.748 0 0 0-.012.148l-.061.012a.792.792 0 0 0-.066-.136.608.608 0 0 0-.399-.256.505.505 0 0 0-.12-.004l-.012-.062a.49.49 0 0 0 .231-.147.582.582 0 0 0 .165-.438"/></g></svg>