<svg viewBox="0 0 90 90" xmlns="http://www.w3.org/2000/svg" xmlns:xlink="http://www.w3.org/1999/xlink"><defs><path d="M13.346 0c-.272.094-.52.249-.723.454L.558 12.526a1.91 1.91 0 0 0 0 2.7L12.623 27.3a1.894 1.894 0 0 0 2.689 0l12.042-12.073a1.91 1.91 0 0 0 0-2.7L15.312.454A1.874 1.874 0 0 0 14.589 0h-1.243Z" id="a"/><path d="M12.621.567.556 12.64a1.888 1.888 0 0 0 0 2.677l12.065 12.095c.164.162.355.292.565.386h1.559a1.92 1.92 0 0 0 .565-.386l12.042-12.095a1.888 1.888 0 0 0 0-2.677L15.31.567A1.85 1.85 0 0 0 13.954 0a1.827 1.827 0 0 0-1.333.567" id="c"/><path d="M12.605.567.54 12.617a1.958 1.958 0 0 0 0 2.7L12.605 27.39a1.894 1.894 0 0 0 2.689 0l12.02-12.049a1.91 1.91 0 0 0 0-2.723L15.27.545A1.894 1.894 0 0 0 13.938 0a1.916 1.916 0 0 0-1.356.545" id="e"/><path d="M5.839.431.484 5.855a1.342 1.342 0 0 0 .339 2.269l4.519 2.269a1.17 1.17 0 0 0 1.25-.033c.376-.252.575-.698.512-1.147V.976C7.104.34 6.878 0 6.539 0c-.31.035-.593.19-.79.431" id="g"/><path d="M.01 1.067v8.078c-.057.442.14.879.507 1.128.368.25.845.27 1.232.052l4.632-2.27a1.342 1.342 0 0 0 .316-2.27L1.343.432A1.174 1.174 0 0 0 .574 0C.236 0 .01.34.01.976" id="i"/><path d="M1.898 0C.858 0 .012.84 0 1.883v10.893a1.925 1.925 0 0 0 1.898 1.906h10.867a1.92 1.92 0 0 0 2.011-1.906V1.883A1.902 1.902 0 0 0 12.878 0H1.898Z" id="k"/><path d="M5.79.408.414 5.786c-.723.727-.474 1.34.565 1.34h8.066c.442.045.872-.159 1.119-.53.246-.371.268-.849.056-1.24L7.959.815A1.4 1.4 0 0 0 6.74 0a1.466 1.466 0 0 0-1.016.477" id="m"/><path d="M0 1.31v8.08c0 1.043.587 1.293 1.333.567l5.355-5.378a1.342 1.342 0 0 0-.317-2.27L1.74.04a1.237 1.237 0 0 0-.52-.023 1.128 1.128 0 0 0-.86.387C.143.652.044.984.09 1.31" id="o"/><path d="M2.423.794.164 5.333c-.23.39-.217.878.033 1.256.25.377.695.577 1.142.514H9.45c1.062 0 1.31-.613.565-1.34L4.66.478A1.466 1.466 0 0 0 3.621 0a1.333 1.333 0 0 0-1.198.817" id="q"/><path d="M1.898 0A1.925 1.925 0 0 0 0 1.906v10.892a1.925 1.925 0 0 0 1.898 1.906h10.867a1.925 1.925 0 0 0 1.898-1.906V1.906A1.925 1.925 0 0 0 12.765 0H1.898Z" id="s"/><path d="M5.342.136.823 2.406a1.342 1.342 0 0 0-.339 2.27l5.355 5.377c.745.726 1.355.476 1.355-.568V1.293a1.16 1.16 0 0 0-.278-.899A1.15 1.15 0 0 0 6.065 0a1.68 1.68 0 0 0-.633.136" id="u"/><path d="M.978 0C-.062 0-.31.59.413 1.339l5.378 5.378a1.352 1.352 0 0 0 2.259-.34l2.26-4.539a1.184 1.184 0 0 0-.052-1.237A1.173 1.173 0 0 0 9.134.09H.978V0Z" id="w"/><path d="M1.898 0C.858 0 .012.84 0 1.883v10.893a1.925 1.925 0 0 0 1.898 1.906h10.867a1.925 1.925 0 0 0 1.898-1.906V1.883A1.902 1.902 0 0 0 12.765 0H1.898Z" id="y"/><path d="M1.325.09A1.184 1.184 0 0 0 .2.6a1.19 1.19 0 0 0-.05 1.239l2.26 4.538a1.33 1.33 0 0 0 2.26.34l5.353-5.377C10.77.59 10.52 0 9.46 0H1.325v.09Z" id="A"/><path d="M1.898 0A1.925 1.925 0 0 0 0 1.906v10.892a1.925 1.925 0 0 0 1.898 1.906h10.867a1.925 1.925 0 0 0 1.898-1.906V1.906A1.925 1.925 0 0 0 12.765 0H1.898Z" id="C"/><path d="M12.623.545.558 12.595a1.91 1.91 0 0 0 0 2.7l12.065 12.072a1.894 1.894 0 0 0 2.689 0l12.042-12.072a1.91 1.91 0 0 0 0-2.7L15.312.544A1.916 1.916 0 0 0 13.956 0a1.894 1.894 0 0 0-1.333.545" id="E"/></defs><g fill="none" fill-rule="evenodd"><g transform="translate(31.05 1)"><mask id="b" fill="#fff"><use xlink:href="#a"/></mask><path d="M13.346 0c-.272.094-.52.249-.723.454L.558 12.526a1.91 1.91 0 0 0 0 2.7L12.623 27.3a1.894 1.894 0 0 0 2.689 0l12.042-12.073a1.91 1.91 0 0 0 0-2.7L15.312.454A1.874 1.874 0 0 0 14.589 0h-1.243Z" fill="#0FC9BB" fill-rule="nonzero" mask="url(#b)"/></g><g transform="translate(31.051 61.202)"><mask id="d" fill="#fff"><use xlink:href="#c"/></mask><path d="M12.621.567.556 12.64a1.888 1.888 0 0 0 0 2.677l12.065 12.095c.164.162.355.292.565.386h1.559a1.92 1.92 0 0 0 .565-.386l12.042-12.095a1.888 1.888 0 0 0 0-2.677L15.31.567A1.85 1.85 0 0 0 13.954 0a1.827 1.827 0 0 0-1.333.567" fill="#0FC9BB" fill-rule="nonzero" mask="url(#d)"/></g><g transform="translate(61.117 30.999)"><mask id="f" fill="#fff"><use xlink:href="#e"/></mask><path d="M12.605.567.54 12.617a1.958 1.958 0 0 0 0 2.7L12.605 27.39a1.894 1.894 0 0 0 2.689 0l12.02-12.049a1.91 1.91 0 0 0 0-2.723L15.27.545A1.894 1.894 0 0 0 13.938 0a1.916 1.916 0 0 0-1.356.545" fill="#0FC9BB" fill-rule="nonzero" mask="url(#f)"/></g><g transform="translate(22.741 76.338)"><mask id="h" fill="#fff"><use xlink:href="#g"/></mask><path d="M5.839.431.484 5.855a1.342 1.342 0 0 0 .339 2.269l4.519 2.269a1.17 1.17 0 0 0 1.25-.033c.376-.252.575-.698.512-1.147V.976C7.104.34 6.878 0 6.539 0c-.31.035-.593.19-.79.431" fill="#0FC9BB" fill-rule="nonzero" mask="url(#h)"/></g><g transform="translate(60.088 76.247)"><mask id="j" fill="#fff"><use xlink:href="#i"/></mask><path d="M.01 1.067v8.078c-.057.442.14.879.507 1.128.368.25.845.27 1.232.052l4.632-2.27a1.342 1.342 0 0 0 .316-2.27L1.343.432A1.174 1.174 0 0 0 .574 0C.236 0 .01.34.01.976" fill="#0FC9BB" fill-rule="nonzero" mask="url(#j)"/></g><g transform="translate(60.098 60.113)"><mask id="l" fill="#fff"><use xlink:href="#k"/></mask><path d="M1.898 0C.858 0 .012.84 0 1.883v10.893a1.925 1.925 0 0 0 1.898 1.906h10.867a1.92 1.92 0 0 0 2.011-1.906V1.883A1.902 1.902 0 0 0 12.878 0H1.898Z" fill="#0FC9BB" fill-rule="nonzero" mask="url(#l)"/></g><g transform="translate(76.291 22.784)"><mask id="n" fill="#fff"><use xlink:href="#m"/></mask><path d="M5.79.408.414 5.786c-.723.727-.474 1.34.565 1.34h8.066c.442.045.872-.159 1.119-.53.246-.371.268-.849.056-1.24L7.959.815A1.4 1.4 0 0 0 6.74 0a1.466 1.466 0 0 0-1.016.477" fill="#0FC9BB" fill-rule="nonzero" mask="url(#n)"/></g><g transform="translate(60.098 3.274)"><mask id="p" fill="#fff"><use xlink:href="#o"/></mask><path d="M0 1.31v8.08c0 1.043.587 1.293 1.333.567l5.355-5.378a1.342 1.342 0 0 0-.317-2.27L1.74.04a1.237 1.237 0 0 0-.52-.023 1.128 1.128 0 0 0-.86.387C.143.652.044.984.09 1.31" fill="#0FC9BB" fill-rule="nonzero" mask="url(#p)"/></g><g transform="translate(3.292 22.716)"><mask id="r" fill="#fff"><use xlink:href="#q"/></mask><path d="M2.423.794.164 5.333c-.23.39-.217.878.033 1.256.25.377.695.577 1.142.514H9.45c1.062 0 1.31-.613.565-1.34L4.66.478A1.466 1.466 0 0 0 3.621 0a1.333 1.333 0 0 0-1.198.817" fill="#0FC9BB" fill-rule="nonzero" mask="url(#r)"/></g><g transform="translate(15.272 15.183)"><mask id="t" fill="#fff"><use xlink:href="#s"/></mask><path d="M1.898 0A1.925 1.925 0 0 0 0 1.906v10.892a1.925 1.925 0 0 0 1.898 1.906h10.867a1.925 1.925 0 0 0 1.898-1.906V1.906A1.925 1.925 0 0 0 12.765 0H1.898Z" fill="#0FC9BB" fill-rule="nonzero" mask="url(#t)"/></g><g transform="translate(22.832 3.292)"><mask id="v" fill="#fff"><use xlink:href="#u"/></mask><path d="M5.342.136.823 2.406a1.342 1.342 0 0 0-.339 2.27l5.355 5.377c.745.726 1.355.476 1.355-.568V1.293a1.16 1.16 0 0 0-.278-.899A1.15 1.15 0 0 0 6.065 0a1.68 1.68 0 0 0-.633.136" fill="#0FC9BB" fill-rule="nonzero" mask="url(#v)"/></g><g transform="translate(76.291 60.113)"><mask id="x" fill="#fff"><use xlink:href="#w"/></mask><path d="M.978 0C-.062 0-.31.59.413 1.339l5.378 5.378a1.352 1.352 0 0 0 2.259-.34l2.26-4.539a1.184 1.184 0 0 0-.052-1.237A1.173 1.173 0 0 0 9.134.09H.978V0Z" fill="#0FC9BB" fill-rule="nonzero" mask="url(#x)"/></g><g transform="translate(15.272 60.113)"><mask id="z" fill="#fff"><use xlink:href="#y"/></mask><path d="M1.898 0C.858 0 .012.84 0 1.883v10.893a1.925 1.925 0 0 0 1.898 1.906h10.867a1.925 1.925 0 0 0 1.898-1.906V1.883A1.902 1.902 0 0 0 12.765 0H1.898Z" fill="#0FC9BB" fill-rule="nonzero" mask="url(#z)"/></g><g transform="translate(3.374 60.022)"><mask id="B" fill="#fff"><use xlink:href="#A"/></mask><path d="M1.325.09A1.184 1.184 0 0 0 .2.6a1.19 1.19 0 0 0-.05 1.239l2.26 4.538a1.33 1.33 0 0 0 2.26.34l5.353-5.377C10.77.59 10.52 0 9.46 0H1.325v.09Z" fill="#0FC9BB" fill-rule="nonzero" mask="url(#B)"/></g><g transform="translate(60.098 15.183)"><mask id="D" fill="#fff"><use xlink:href="#C"/></mask><path d="M1.898 0A1.925 1.925 0 0 0 0 1.906v10.892a1.925 1.925 0 0 0 1.898 1.906h10.867a1.925 1.925 0 0 0 1.898-1.906V1.906A1.925 1.925 0 0 0 12.765 0H1.898Z" fill="#0FC9BB" fill-rule="nonzero" mask="url(#D)"/></g><g transform="translate(1 31.022)"><mask id="F" fill="#fff"><use xlink:href="#E"/></mask><path d="M12.623.545.558 12.595a1.91 1.91 0 0 0 0 2.7l12.065 12.072a1.894 1.894 0 0 0 2.689 0l12.042-12.072a1.91 1.91 0 0 0 0-2.7L15.312.544A1.916 1.916 0 0 0 13.956 0a1.894 1.894 0 0 0-1.333.545" fill="#0FC9BB" fill-rule="nonzero" mask="url(#F)"/></g></g></svg>