<svg viewBox="0 0 90 90" xmlns="http://www.w3.org/2000/svg"><g fill="none"><path fill="#EF509C" d="M0 0h90v90H0z"/><path d="M53.05 67.978a2.03 2.03 0 0 1-1.747-1.004l-6.857-12.11a3.45 3.45 0 0 0-2.991-1.746h-.699a3.449 3.449 0 0 0-3.45 3.447v9.427a2.008 2.008 0 0 1-2.009 1.986h-6.31A1.986 1.986 0 0 1 27 65.992V23.986c0-1.097.89-1.986 1.987-1.986h16.508c15.284 0 17.468 9.732 17.468 15.515a14.29 14.29 0 0 1-6.136 12.788 3.49 3.49 0 0 0-1.048 4.779l6.354 9.841a1.941 1.941 0 0 1 0 2.03A2.01 2.01 0 0 1 60.364 68l-7.314-.022ZM40.756 31.427a3.449 3.449 0 0 0-3.45 3.448v5.368a3.447 3.447 0 0 0 3.45 3.513h4.891c4.63 0 6.813-2.182 6.813-6.24 0-4.06-2.183-6.09-6.813-6.09h-4.89Z" fill="#FFF"/></g></svg>