<svg viewBox="0 0 90 90" xmlns="http://www.w3.org/2000/svg"><g fill="none" fill-rule="evenodd"><path d="M43.887 20.194c13.675-.477 25.124 10.177 25.6 23.852.478 13.675-10.176 25.124-23.851 25.6-13.675.478-25.124-10.176-25.6-23.85-.478-13.676 10.176-25.125 23.85-25.602Zm0 .636c-13.198.477-23.534 11.608-23.057 24.806.477 13.198 11.608 23.534 24.965 23.057 13.198-.477 23.534-11.608 23.057-24.806-.477-13.039-11.608-23.534-24.965-23.057Z" fill="#808285" fill-rule="nonzero"/><path d="m11.449 50.088-1.75.954c-.158.16-.635.318-.635.318-.795.16-.477-.954-.795-.795-.16 0-.16.16-.16.16 0 .476.16 1.112.16 1.59 0 .477.159 1.113.159 1.59 0 .159 0 .159.159.159.318 0-.16-.636.636-1.113l6.042-3.658c1.75-.954 2.226-1.113 2.067-1.272 0-.159-.159-.159-.795-.318-.795-.318-.795-.477-1.113-.477-.159 0-.318.318-.477.318-.159 0-.636-.159-4.93-1.272-.953-.318-1.748-.636-2.066-.954-.318-.318-.318-.795-.478-.795-.159 0-.159 0-.159.159 0 .477.16.954.16 1.272.159.954.159 1.272.159 1.431 0 .16 0 .16.159.16.318 0-.16-1.114 1.272-1.273.318 0 .795 0 1.908.318l.477 3.498Zm.159-.159-.318-2.703 3.498.795-3.18 1.908Z" fill="#808285"/><path d="M12.562 58.039c-1.431.795-1.908 2.226-.636 4.452.954 1.908 2.544 2.226 4.134 1.431l3.657-1.908c.954-.477 1.75-.318 2.067 0 .318.318.318.477.477.318.16 0 .16-.159 0-.318-.159-.477-.477-.795-.636-1.272-.318-.477-.477-.795-.636-1.272-.159-.159-.159-.318-.318-.159s0 .159 0 .636c.16.477-.159 1.272-1.272 1.75l-3.816 2.066c-1.431.795-2.703.477-3.498-.954-.636-1.272-.318-2.544.954-3.18l5.088-2.703c.795-.477.954.795 1.272.636.16 0 .16-.16 0-.318-.159-.477-.477-.636-.795-1.431-.318-.636-.477-.954-.795-1.431-.159-.16-.159-.318-.318-.16-.318.16.636.955-.159 1.432l-4.77 2.385Zm5.724 13.357c-.159.159 0 .159 0 .159.16.159.318-.318.795 0 .318.159.636 1.272 1.431 1.749 1.59 1.431 3.34.954 4.294-.16 2.067-2.543-2.226-5.087-.636-6.996.477-.636 1.43-.795 2.226-.159 1.113.954.795 2.386.159 3.976 0 .159-.16.318 0 .318h.159c.159-.16.636-.954 1.749-2.544.159-.16.159-.16 0-.319-.16-.159-.318.319-.636 0-.318-.318-.318-1.113-1.272-1.749-1.113-.954-2.862-.795-3.816.16-2.227 2.544 2.385 4.929.477 6.996-.636.636-1.59.954-2.545.159-1.272-1.113-.795-2.862.16-4.293.158-.318.158-.318.158-.477h-.159l-2.544 3.18Zm17.968.636c1.273.477 1.909 1.908 2.068 3.18 0 .318 0 .477.159.636h.159c0-.159.159-.477.159-.795l.318-2.226v-.318h-.636L33.074 70.6c-.318-.16-.318-.16-.477-.318 0 0 0-.16-.159-.16s-.159.16-.159.16l-1.113 1.908c-.159.159-.318.477-.318.636v.159s.16-.16.477-.318c.795-.954 2.385-1.59 3.657-1.272l-2.544 7.632c-.318.795-1.43 0-1.59.318 0 .16 0 .16.318.318.636.16.954.318 1.75.477.794.318 1.112.477 1.59.636.158 0 .317.16.317 0 .16-.318-1.272-.318-.954-1.272l2.385-7.473Z" fill="#808285" fill-rule="nonzero"/><path d="M45.159 81.413c.159.954-1.113.636-.954.954 0 .16.159.16.318.16.477 0 .795-.16 1.59-.16s1.113 0 1.59-.159c.16 0 .318 0 .318-.159 0-.318-1.113.16-1.113-.795l-.318-3.339h.16c.953-.159 1.271.16 2.384 1.908l1.272 2.067c1.113-.159 2.067-.159 2.227-.159.159 0 .318 0 .318-.159 0-.318-.955.16-1.59-.954l-.796-1.43c-.795-1.273-1.43-1.432-2.703-1.59 1.908-.319 3.18-1.273 3.021-2.704-.159-1.113-1.272-2.385-3.816-2.067-.477 0-.954.159-1.749.159-.795 0-1.113 0-1.59.159-.16 0-.318 0-.318.159 0 .318 1.113-.16 1.113.795l.636 7.314Zm.954-8.11h.795c1.272-.158 2.067.478 2.226 1.909.16 1.59-.636 2.226-2.067 2.385h-.636l-.318-4.293Zm14.788 1.75 1.431 1.272c.16.16.477.477.477.636.318.636-.636.795-.477.954 0 .16.16.16.318 0 .477-.318.954-.477 1.431-.795.477-.159.954-.477 1.431-.636.16 0 .16-.159.16-.318-.16-.318-.478.318-1.273-.159l-5.406-4.611c-1.431-1.272-1.75-1.75-1.908-1.59-.16 0 0 .159 0 .954 0 .954-.16.954-.16 1.113 0 .159.478.318.478.318 0 .159 0 .636.477 5.088.159.954 0 1.908-.16 2.226-.158.477-.635.636-.635.795 0 .16.159.16.159 0 .477-.159.795-.477 1.272-.636a15.92 15.92 0 0 0 1.431-.636c.159 0 .159-.159.159-.159-.159-.318-.954.477-1.59-.795-.16-.318-.16-.795-.318-1.908l2.703-1.113Zm-.318-.318-2.385 1.113-.318-3.657 2.703 2.544Z" fill="#808285"/><path d="M69.806 71.396c.636.636-.477 1.113-.16 1.43.16.16.16 0 .319-.158.318-.318.477-.636 1.113-1.272 2.067-2.226 2.862-3.021 3.498-3.816l-1.908-2.545c-.16-.159-.16-.318-.318-.318h-.16v.318c.796 1.272 1.114 3.18-.317 4.77-.477.478-.795.637-1.431 0l-5.089-4.77c-.636-.636.477-1.113.16-1.43-.16-.16-.16 0-.319.158-.318.318-.477.636-1.113 1.272-.477.636-.795.795-1.113 1.113-.159.16-.159.16 0 .318.318.16.636-.795 1.431-.318l5.407 5.248Zm7.791-10.654c.795.318 0 1.272.318 1.272.16 0 .16 0 .318-.159.16-.477.318-.795.636-1.431.318-.795.477-.954.636-1.431.16-.16.16-.318 0-.318-.318-.16-.318 1.113-1.272.636l-6.678-3.021c-.795-.318 0-1.272-.318-1.272-.16 0-.16 0-.318.159-.16.477-.318.795-.636 1.43-.318.796-.477.955-.636 1.432-.16.159-.16.318 0 .318.318.159.318-1.113 1.272-.636l6.678 3.021Z" fill="#808285" fill-rule="nonzero"/><path d="m78.71 48.021 1.908-.477c.16 0 .636-.159.795-.159.795.16.16.954.636.954.16 0 .16 0 .16-.159 0-.477.158-1.113.158-1.59 0-.477.16-1.113.16-1.59 0-.159 0-.159-.16-.318-.318 0 0 .636-.795.954l-6.678 2.067c-1.908.636-2.385.477-2.385.636 0 .16.159.16.795.477.795.477.636.636.954.795.159 0 .477-.318.477-.318.159 0 .636.318 4.452 2.385.954.477 1.59.955 1.75 1.432.317.477.158.954.317.954.16 0 .16 0 .16-.16 0-.476.158-.953.158-1.271.16-.955.16-1.273.16-1.432 0-.159 0-.159-.16-.159-.318 0-.159 1.113-1.43.954-.319 0-.796-.318-1.75-.795l.318-3.18Zm-.318 0-.318 2.703-3.18-1.59 3.498-1.113Z" fill="#808285"/><path d="M22.58 27.986c.159.159.159 0 .159 0 .159-.16-.319-.318 0-.795.318-.318 1.272-.636 1.908-1.272 1.59-1.59 1.113-3.34.159-4.453-2.386-2.226-5.248 2.068-7.156.318-.636-.636-.636-1.43 0-2.226 1.113-1.113 2.544-.795 3.975 0 .16 0 .318.16.318.16v-.319c-.159-.159-.795-.795-2.385-1.908-.159-.159-.159-.159-.318 0-.159.16.318.318 0 .636s-1.113.318-1.908 1.272a2.784 2.784 0 0 0 0 3.976c2.544 2.226 5.088-2.227 7.156-.318.636.636.795 1.59 0 2.703-1.272 1.272-3.022.636-4.453-.318-.318-.16-.318-.16-.477-.16v.16l3.022 2.544Z" fill="#808285" fill-rule="nonzero"/><path d="M34.346 13.993c1.272 2.862.636 4.611-.954 5.406-1.59.795-3.498 0-4.77-2.862-1.272-2.862-.636-4.611.954-5.406 1.59-.795 3.498 0 4.77 2.862Zm-4.929-3.18c-2.067.954-3.816 3.657-2.544 6.52 1.272 2.861 4.293 3.338 6.52 2.384 2.066-.954 3.815-3.657 2.543-6.52-1.272-2.861-4.293-3.338-6.519-2.384Z" fill="#808285"/><path d="M40.866 14.629c0 1.59 1.272 2.703 3.816 2.703 2.067 0 3.18-1.113 3.18-3.18v-4.134c0-1.113.477-1.75.954-1.908.318-.16.477 0 .477-.318 0-.16-.159-.16-.318-.16h-2.862c-.159 0-.318 0-.318.16 0 .159.16.159.477.159.477.159 1.113.636 1.113 1.908v4.293c0 1.59-.795 2.544-2.385 2.703-1.431 0-2.544-.795-2.544-2.226l-.16-5.883c0-.954 1.114-.477 1.114-.795 0-.16-.16-.16-.318-.16h-3.18c-.16 0-.318 0-.318.16 0 .318 1.113-.16 1.113.795l.159 5.883Zm18.445-3.657c1.272.477 1.908 2.067 2.067 3.339 0 .318 0 .477.16.636h.158c0-.159.16-.477.16-.795l.476-2.226v-.318h-.159c-.159 0-.159 0-.477-.16l-5.565-2.225c-.318-.16-.318-.16-.477-.318 0 0 0-.16-.16-.16-.158 0-.158.16-.158.16l-1.272 1.908c-.16.159-.318.477-.477.636v.159s.159-.16.477-.318c.954-.795 2.544-1.59 3.816-.954l-3.021 7.473c-.318.795-1.431 0-1.59.318 0 .16 0 .16.318.318.636.318.954.318 1.749.636.795.318 1.113.477 1.749.636.159.16.318.16.477 0 .159-.318-1.272-.477-.954-1.272l2.703-7.473Zm9.859 11.926L66.625 25.6c-.636.636-1.113-.477-1.43-.16-.16.16 0 .16.158.319.318.318.636.636 1.272 1.113l1.114 1.113c.159.159.159.159.318 0 .318-.318-.955-.795-.318-1.431l5.088-5.248c.636-.636 1.113.477 1.431.16.159-.16 0-.16-.16-.319a10.28 10.28 0 0 0-1.271-1.113l-1.113-1.113c-.16-.159-.16-.159-.318 0-.318.318.954.795.318 1.431l-2.226 2.386-2.863-2.704 2.227-2.385c.636-.636 1.113.477 1.43.16.16-.16 0-.16-.158-.319-.318-.318-.636-.636-1.272-1.113l-1.113-1.113c-.16-.159-.16-.159-.319 0-.159.318.955.795.319 1.431l-5.089 5.247c-.636.637-1.113-.477-1.43-.159-.16.16 0 .16.158.318.318.318.636.637 1.272 1.114l1.113 1.113c.16.159.16.159.318 0 .318-.318-.954-.795-.318-1.431l2.544-2.704 2.863 2.704Z" fill="#808285" fill-rule="nonzero"/><path d="M43.569 4.293c-19.24.636-34.823 14.63-38.48 32.756l-4.135-.795C5.088 15.583 23.216 0 45.16 0c21.625 0 39.594 15.106 44.046 35.46l-4.134.794C80.777 17.491 63.604 3.498 43.569 4.294Z" fill="#004B88" fill-rule="nonzero"/><path d="M85.707 47.544c0-1.272.159-2.703 0-3.975-.16-2.226-.318-4.293-.795-6.52l4.134-.795c.636 2.863.795 5.725.795 8.746 0 .954 0 1.908-.159 2.862l-3.975-.318Z" fill="#ED174C" fill-rule="nonzero"/><path d="M85.23 51.837c.159-1.113.318-2.385.477-3.498l4.293.318a281.801 281.801 0 0 1-.477 3.976l-4.293-.796Z" fill="#FCAF17" fill-rule="nonzero"/><path d="M5.088 53.269c3.976 19.08 21.308 33.233 41.343 32.438 19.4-.636 35.141-14.788 38.64-33.234l4.134.796C85.23 74.099 66.943 90 45 90 23.216 90 5.088 74.576.954 54.064l4.134-.795Z" fill="#004B88" fill-rule="nonzero"/><path d="M4.452 48.975c.16 1.272.318 2.385.477 3.498l-4.134.796C.477 51.996.318 50.565.16 49.293l4.293-.318Z" fill="#FCAF17" fill-rule="nonzero"/><path d="M4.93 37.845c-.478 2.862-.796 5.724-.637 8.745 0 .636 0 1.113.16 1.75l-4.294.317C0 47.544 0 46.272 0 45.16c0-2.703.318-5.406.795-8.11l4.134.796Z" fill="#ED174C" fill-rule="nonzero"/><path d="m24.806 43.569.318-.318c-.16-.477-.954-.795-1.272-1.272.318-.795.795-1.113 1.272-1.431.159-.16 0-.318-.16-.477-.317-.477-.794-.795-1.112-1.272.159-.16.318-.318.636-.477l.318-.16c.159 0 .477-.158.636-.158-.16-.796-.636-1.273-.795-1.75.795-.318 1.749 0 2.385-.318-.477-.795-.795-1.272-1.272-1.749 0-.318.318-.159.477-.159.636-.159 1.272.16 1.908.16-.636-.796-1.272-1.59-1.272-2.386 1.43.16 2.385.954 3.498 1.59-.159-1.272-1.59-2.067-1.59-3.339 1.59.636 2.862 1.431 3.816 2.385-.477-1.113-.477-2.226-1.113-2.862-.318-.477-.318-1.113-.318-1.59.318-.16.477.318.795.477.636.795 1.272 1.59 1.75 2.385.635 0 .476-.477.317-.795-.159-.477-.318-.954-.318-1.431-.318-.795-.159-1.272 0-2.067.795.159.795.795 1.113 1.272.318.636.477 1.431.636 2.226.16.318 0 .636.318.795.477 0 .16-.636.16-.954 0-.795.158-1.908 0-2.703-.16-.795.158-1.59.794-2.226h.16c.158.636.317 1.43.158 2.067.16.477-.159.795.16 1.113.477 0 .477-.636.954-.636.159.318 0 .795.159 1.113v2.703c-.16 1.272-.318 2.544-.636 3.816-.478.954-.319 2.226-.16 3.34v.318c0 .318.16.636.16.954.477.795.795 1.749.954 2.862.159.477 1.113 1.43 1.113 1.43.159.319.318.478.318.796.159.159.477.159.636.159.636-.477 1.113.795 1.749.159.318-.318.477-.636.636-1.113v-.318c-.16-.318-.16-.954-.636-1.113-.636-.318-1.113-.636-1.59-1.113.159-.318.477-.16.636-.16.477 0 .795.16 1.272.16-.477-.795-.954-1.272-1.59-1.431.159-.16.636-.16.954-.16 1.59.478 3.021 1.114 4.293 2.068.477.477.795 1.113 1.113 1.749 0 0 .16.636.16.954.158.795 1.112.318 1.59.477.317-.318.635-.636.953-1.113l.318-.318c.477-.636.795-1.431.795-2.226.16-.954.318-1.908.636-2.862l.16-.477c0-.318.158-.477.317-.796-.159-3.339-.477-6.678-.318-10.017.318-.16.318.318.637.477.477-.954.318-1.908.795-2.544.636.159.636.795.795 1.43 0 .955 0 1.909.159 2.704.636-.954.795-2.226 1.749-2.703.159.954 0 1.59 0 2.385-.16.477-.477.795-.636 1.431-.16.318-.16.795 0 1.272.159.16.318-.159.477-.318.636-1.113 1.43-2.226 2.544-3.021.636.159.477.477.477.636 0 .477-.477.795-.477 1.272-.636.636-.954 1.272-1.272 1.908-.16.16-.477.477-.16.795.319-.159.637-.477.796-.795.795-1.113 1.908-1.749 3.18-2.226.16.795-.477 1.272-.636 1.908-.318.795-.954 1.431-1.75 1.908-.158.16-.476.477-.476.636.159.318.477 0 .636-.159 1.272-.795 2.544-1.59 3.975-1.908.318.477-.159.795-.477 1.113-.477.318-1.113.795-1.59 1.431.318.318.795 0 1.113 0 .636-.318 1.431-.477 2.226-.318-.477.795-.954 1.113-1.272 1.75.16.476.636 0 1.113 0s1.113 0 1.431.476c-.318.477-.795.796-1.113 1.114l-.159.159c.477.477.954.477 1.431.636.16.159.477.318.636.477-.477.636-1.272.795-1.43 1.43.317.319.794.319 1.112.637.318.318.795.477.954.795-.477.318-1.113.636-1.59.954-.159.159-.159.318 0 .477l.16.159c.317.318.635.477.794.795 0 .318-.477.318-.795.477-.477.159-.795.159-1.113.636 0 .318.318.477.477.795.16.318.318.477.318.795-.795.318-1.43.16-1.908.318-.477.318.16.795.16 1.113l.158.477s0 .16-.159.16c-.636.158-1.113.158-1.749.158-.636.318-.159.954-.477 1.59-.636.16-1.59-.318-1.749.636 0 .16-.159.318-.318.477-.477 0-1.272-.477-1.59.16-.318.158-.16.954-.636.795-.16-.16-.477-.318-.795-.16-.318.16-.318.796-.636.955-.318 0-.636-.477-.954-.318l-.636.636c-.477 0-.636-.477-1.113-.318-.319.159-.478.477-.796.477-.159-.16-.318-.477-.636-.636-.318 0-.477.477-.954.318-.954-.477-.954-1.75-1.272-2.704-.477-.318-.636 0-.636 0 0 .954-.795 1.75-.318 2.704l.318.477c.636.795 1.59 1.749 2.385 2.544.795.477 1.909-.16 2.545.636.636 0 1.59-.16 2.067.636 0 .318 0 .477-.16.636-.317.636-1.112.159-1.59.636-.317.159-.635.318-.794.159-.16-.159-.318-.477-.637-.318-.318.318-.636.477-.954.318-.159-.159-.477-.477-.795-.318v.636c.16.159.16.477.318.636.318.477.636.795.636 1.272-.318.16-.795.318-.954.795-.318.16-.636 0-.795.318-.159.16-.159.477-.318.636h-.795c-.159.16-.318.636-.636.477-.159-.159-.477-.159-.795-.159-.318.16-.318.636-.636.795l-.954-.477c-.477 0-.636.795-1.113.636-.318-.159-.477-.795-.954-.795l-.795.318c-.16-.159-.318-.477-.636-.477-.16 0-.477.16-.636 0-.318-.159-.318-.636-.636-.795-.318 0-.795.16-.954-.318 0-.636-.954-.318-.954-.954.159-.636-.795-.477-.636-1.113.159-.477.477-.954.795-1.431 0 0 .159-.318.318-.318-.636-.16-.954.159-1.272.159-.318 0-.796-.636-1.114 0-.477.159-.795-.16-1.113-.318-.795 0-1.59.159-2.067-.477-.159-.318 0-.636.16-.954.794-.636 1.907 0 2.702-.636.796-.318 1.75.318 2.227-.477.795-.795 1.749-1.431 2.385-2.226v-.478c.159-.476.318-.794.159-1.272l-.636-2.226c-.795.477-.477 1.431-.636 2.067-.16.319-.318.637-.477.796-.318 0-.636-.318-1.113-.16-.318.16-.636.637-.954.319-.319-.16-.637-.796-1.114-.636-.318.159-.477.795-.954.477-.159-.16-.318-.637-.795-.637-.318 0-.477.319-.795.319-.477-.319-.636-1.273-1.43-.637-.319 0-.478.16-.637 0-.318-.318-.318-.795-.636-.954-.477 0-.795.16-1.272 0-.159-.318 0-.795-.477-.954-.636 0-1.272.16-1.908.16-.16-.319.159-.637.159-.955 0-.159.318-.477.159-.636-.318-.318-.795-.159-1.113-.159-.16 0-.477 0-.636-.159l-.16-.159v-.159c0-.477.319-.795.478-1.272-.318-.636-.954-.159-1.431-.318-.318-.159-.636-.159-.795-.477 0-.477.477-.795.636-1.272-.16-.318-.636-.159-.795-.477-.16-.16-.795-.16-.636-.636.159-.318.318-.636.636-.795l.636.636Zm15.9 16.378c.637-.636 1.273-1.113 1.909-1.75.159-.158.477-.317.318-.476h-.16c-.953.636-1.907 1.43-2.702 2.067l-.16.318c0 .159 0 .159.16.477.159 0 .477-.477.477-.477l.159-.159Zm1.114 0c.159-.159.477-.318.636-.636.318-.477.636-.795.795-1.272h-.16c-.635.636-1.43 1.272-2.066 1.908 0 0-1.113.954-.795 1.431.477 0 .477-.318.636-.636.159-.318.318-.477.636-.636l.318-.159Zm1.908-1.59c-.636.477-.954 1.113-1.431 1.59 0 0-.636 1.113-.954 1.431-.16.16-.16.318.318.636.159-.318.318-.795.636-.954.159-.318.318-.636.636-.954-.16 0 .636-1.113.795-1.75Zm0 1.59c.159-.477.318-.954.318-1.431l-.16-.16a7.428 7.428 0 0 1-.794 1.591l-.16.159c-.158.159-.158.477-.317.636-.16.477-.318.795-.477 1.272-.16.318 0 .477.636.636.159-.636.318-1.113.636-1.59 0-.318.159-.477.159-.795l.159-.318Zm.954-.954-.318-.16c-.16.319-.16.637-.318 1.114l-.16.318c-.158.318-.158.636-.317.954 0 .477-.318.954.159 1.431.318-.318.636-.636.795-.954v-1.59c.159.159.159-.795.159-1.113Zm.795.159-.318-.318c-.159.159-.159.477-.159.636v.795c0 .795-.318 1.75.477 2.067.159.16.318.477.636.16 0-.796-.159-1.59-.318-2.227 0 .159-.318-.954-.318-1.113Zm1.113.795c-.159-.318-.318-.477-.477-.795-.159-.16-.318-.954-.636-.477.159.477.159.795.477 1.272l.16.318c.158.477.476.954.635 1.59.16.318.16.795.795.636 0-.795-.477-1.43-.795-2.067l-.159-.477Zm.954 0c-.477-.636-.795-1.272-1.43-1.59.158.477.476 1.113.794 1.59l.318.318c.318.318.477.795.795 1.113.318.318.318.795.954.795.16-.477-.159-.954-.636-1.272-.159-.159-.318-.477-.477-.636l-.318-.318Zm.795-.159c-.159-.159-.159-.159-.159-.318-.477-.636-.954-1.272-1.908-1.75-.159.319.318.478.477.796.318.477.636.954 1.113 1.431l.318.318c.477.477.954.954 1.431 1.59.16-.159.16-.318.16-.477-.319-.477-.637-.795-.955-1.113l-.477-.477Zm1.431.318c-.795-.954-1.749-1.75-2.544-2.544h-.318c.636.636 1.272 1.272 1.908 2.067l.477.636c.16.159.318.636.795.318l-.318-.477Zm5.248-1.75c-.318-.158-.795-.158-1.272-.158-.477.159-.795.318-.954 1.113.795 0 1.59.159 2.067-.318.318-.16.318-.318.159-.636Zm-2.226.16c-.16-.318-.796-.318-1.59.159 0 .159 0 .318.158.477.318.159.636 0 .954 0 .16-.16.478-.318.478-.636Zm-2.386-.16-1.749.16c.477.318.795 1.113 1.59.795.16-.16.318-.318.16-.954Zm-9.54 0a1.014 1.014 0 0 0-.954 0c-.318.16-.477.478-.318.955.636.318.795-.477 1.272-.954Zm-2.385 0c-.318-.158-.636-.158-.954-.158-.319.159-.478.477-.637.795.318.318.796.159 1.273.159.318-.16.477-.477.318-.795Zm-1.75.16-.318-.16c-.636.16-1.59-.317-1.908.478 0 .159 0 .318.16.477.635.159 1.43.318 2.066-.16-.159-.317 0-.476 0-.635Zm6.202-2.067c-.16-.318-.16-.795-.477-.795-.954.795-2.226.795-3.021 2.226.636.159 1.59 0 2.385 0 .477-.16.795-.636 1.113-.795v-.636Zm4.93-.795c-.319-.16-.319-.477-.637-.318-.159.477-.477.954-.477 1.43.16.478.795.637 1.113.955l2.703-.318c-.318-.477-.795-.795-1.272-1.272-.477-.16-.954-.16-1.43-.477Zm-1.114-.795c-.159.477.16.477 0 .636-.159.795-.477 1.59-1.113 2.226-.159.318-.477.795-.954.795-1.113-.795-1.431-1.908-1.75-3.18.319-.318.319 0 .478-.16-.16-.158-.16-.317-.318-.317 0 0-.16-.318-.16-.477-.317-.636-.476-1.272-.317-1.909-.16-.159-.318.16-.477 0-.16-.318-.16-.795-.318-1.113v-.636c.159-.477.318-.795.477-1.272 0 0 .159-.477.159-.636.159-.318.159-.636.318-.954 0-.636.318-1.43.159-2.226.318-.477.954-.159 1.272-.477.636-.159 1.272-.795 1.59-1.431 0 0 .16-.318.16-.477 0-.318.158-.795.476-.795.477 0 .795.477.954.795 0 .159.16.636.16.636a3.876 3.876 0 0 1 0 1.908c-.16 1.113-.16 2.226.158 3.34v.317c.16.318.318.636.318.954.477.636 0 1.272 0 2.067-.159.796-.477 1.59-.795 2.068-.159 0-.477.318-.477.318Zm-6.996-10.972c.159.636.636 1.272.477 1.908-.16.318-.477.795-.954.636-.16-.159-.16-.318-.318-.477-.16-.159-.477.16-.795.16-.477-.637-.16-.796 0-1.114-.318 0-.636.477-1.114.477-.159 0-.318-.318-.318-.477 0-.318.16-.636.477-.795-.477 0-.954.477-1.272 0v-.318c0-.16.16-.16.318-.16.318-.158.477-.317.795-.317-.636-.477-.954-.636-.954-1.113 0-.16.318-.16.477-.16.318 0 .477.478.795.478.16-.16-.159-.318-.159-.477-.159-.318-.318-.477-.159-.795.478 0 .478.318.796.318 0-.16-.318-.636 0-.795.477.318.318 1.113.477 1.59.159.477.477.954.954 1.272.159-.16.477.159.477.159Zm14.47.159c-.795.477-1.113.159-1.59.318.318.318.795.636.795 1.113-.795.159-1.114-.159-1.432-.318.16.477.477.636.477 1.113-.159.318-.477 0-.795 0-.159-.159-.318-.477-.636-.477 0 .318.636.636.16.795-.478.16-.796-.159-.955-.477-.159-.318-.318-.477-.159-.795.16-.477.477-.795.795-1.272l.16-.318c.158-.318.317-.477.476-.795.318-.636.318-1.272.636-1.908h.318c0 .159-.159.477 0 .636.16-.16.478-.477.796-.318.159.159 0 .318 0 .636-.16.318-.636.318-.477.636.318 0 .636-.477 1.113-.16-.16.637-.477.796-.636.955.318 0 .795.159 1.113.477-.318-.16-.16 0-.16.159Zm-.16-5.883-.476.477c0-.16-.16-.16-.16-.318v-.318l.16-.318.159-.16c.318-.318.636-.795 1.113-.954.318 0 .159.477.318.636l-1.113.955Zm-17.49.477c0 .636 0 1.113.158 1.749-.477.318-.954 0-1.272-.318 0-.318-.159-.477-.159-.636.477 0 .795.318.954 0l-.954-1.113.16-.16c.317-.158.476 0 .635 0l.16.16c-.319-.477-.796-.636-.955-1.114 0-.159 0-.477.16-.636.317 0 .158.318.476.318 0-.477-.636-.954-.159-1.272l.477.318c.318.477.795.954.636 1.431-.159.16-.159.478-.159.796l-.159.477Zm8.268 2.862-.477-.318c-.16 0-.16.159-.16.636.16 0 .319.159.637-.318Zm-1.431-1.113c-.318-.318-.636-.477-1.113-.318.318.477 1.113.795.954 1.43-.16.16-.477 0-.636-.158-.318 0-.636-.16-.795.159.477.159.954.954 1.59.318.477-.318.159-.954 0-1.431Zm11.29-.795c-.477-.318-.954.159-1.113.795.318 0 .795-.16 1.113-.795Zm.318-1.272c-.636-.16-.954.318-1.431.636 0 .159-.318.318-.16.477.478-.16.955-.16 1.273-.318.159-.318.477-.477.318-.795Zm-.477-2.545-.16-.159c-.317.477-.794.954-.953 1.431 0 .16-.16.318.159.478l.636-.955c0-.159.477-.318.318-.795Zm-17.81-.636c-.159-.159 0-.636-.477-.636-.159.16-.318.318-.318.636.16.477.318.954.954 1.59.16-.636 0-.954-.159-1.59Zm16.697-.795c-.16-.159-.16-.318-.636-.477-.16.954-.16 2.067.318 3.18.318-.477.477-1.113.795-1.59 0-.159 0-.318-.16-.477-.476-.159-.476.477-.794.795 0-.636.477-.954.477-1.43Zm-15.742-1.272c-.637 0-.796.477-.955.795.16.636.477 1.272.636 1.908.319-.636.319-1.272.319-1.908v-.795Z" fill="#808285"/></g></svg>