<svg viewBox="0 0 90 90" xmlns="http://www.w3.org/2000/svg"><path d="M11.132 20C5.375 20 1 24.35 1 29.932c0 6.118 4.375 8.481 9.226 9.931 4.59 1.45 6.766 3.06 6.766 6.233 0 3.22-2.403 5.48-5.542 5.48-3.151 0-5.871-2.26-5.871-5.743 0-1.929.906-2.42.906-3.493 0-1.233-.85-2.146-2.244-2.146C2.655 40.194 1 42.614 1 46.05c0 5.537 4.749 9.612 10.45 9.612 5.757 0 10.132-4.35 10.132-9.931 0-6.073-4.375-8.482-9.271-9.932-4.534-1.393-6.72-3.06-6.72-6.233 0-3.162 2.345-5.422 5.485-5.422 3.252 0 5.87 2.306 5.916 5.48.056 1.45 1.065 2.305 2.244 2.305 1.224 0 2.346-.856 2.29-2.42C21.422 23.973 16.787 20 11.131 20Zm23.143 35.605c2.562 0 4.534-.856 4.534-2.58a2.133 2.133 0 0 0-2.085-2.146c-.749 0-1.281.32-2.505.32-3.31 0-5.916-2.843-5.916-6.176 0-3.596 2.663-6.45 6.03-6.45 3.784 0 6.187 2.9 6.187 7.09v7.682c0 1.347 1.066 2.26 2.346 2.26 1.224 0 2.29-.913 2.29-2.26v-7.843c0-6.438-4.42-11.164-10.722-11.164-5.87 0-10.721 4.566-10.721 10.685 0 5.913 4.805 10.582 10.562 10.582ZM57.736 70c5.757 0 10.132-4.35 10.132-9.931 0-6.12-4.375-8.482-9.27-9.932-4.534-1.45-6.721-3.06-6.721-6.233 0-3.173 2.402-5.48 5.485-5.48 3.15 0 5.916 2.26 5.916 5.743 0 1.94-.907 2.42-.907 3.493 0 1.233.85 2.146 2.188 2.146 1.655 0 3.31-2.42 3.31-5.856 0-5.537-4.795-9.612-10.507-9.612-5.758 0-10.076 4.35-10.076 9.931 0 6.073 4.318 8.482 9.226 9.932 4.59 1.393 6.766 3.06 6.766 6.233 0 3.22-2.403 5.422-5.485 5.422-3.31 0-5.871-2.249-5.916-5.48-.057-1.45-1.122-2.26-2.245-2.26-1.224 0-2.346.81-2.289 2.364.045 5.604 4.68 9.52 10.393 9.52Zm23.143-14.395c2.98 0 5.338-.856 6.982-1.883 1.598-1.016 2.232-1.884 2.232-2.843 0-1.016-.748-1.93-2.13-1.93-1.655 0-2.981 2.467-7.039 2.467-3.57 0-6.403-2.843-6.403-6.439 0-3.55 2.72-6.45 6.131-6.45 3.684 0 5.656 2.42 5.656 3.973 0 .434-.317.65-.748.65h-4.477c-1.224 0-2.13.811-2.13 1.884 0 1.176.906 2.044 2.13 2.044h6.132c2.346 0 3.785-1.233 3.785-3.334 0-5.262-4.477-9.395-10.404-9.395a10.59 10.59 0 0 0-10.608 10.628c0 5.902 4.918 10.628 10.891 10.628Z" fill="#00D639"/></svg>