<svg width="90" height="90" viewBox="0 0 90 90" xmlns="http://www.w3.org/2000/svg"><g fill="none" fill-rule="evenodd"><rect fill="#1F62FF" width="90" height="90"/><path d="M48.6866304,20.8857735 C49.5238261,21.1881169 50.4069573,21.3415614 51.2963027,21.3391043 C51.6631774,21.3387357 52.0295648,21.3128136 52.392906,21.2617064 L52.4916003,21.2617064 L52.4916003,21.3501612 C51.8281553,23.0261338 50.6791587,24.4616813 49.1946014,25.4694517 C47.7099223,26.477222 45.9585249,27.0105307 44.1688682,26.9998424 L40.9230441,26.9777287 L40.9230441,23.3292143 L44.2127323,23.3292143 C45.1009811,23.3283543 45.9750958,23.1045145 46.7561211,22.677843 C47.5371464,22.2512943 48.2005914,21.6354279 48.6866304,20.8857735 Z M30.1328326,20.9186983 C30.6204556,21.6612272 31.2862157,22.2675111 32.0684594,22.6811601 C32.8505813,23.0946862 33.7237212,23.3024321 34.6067306,23.2847412 L37.896297,23.2847412 L37.896297,26.9332556 L34.6396287,26.977518 C33.4598054,26.9808001 32.2911917,26.747992 31.2012898,26.2924498 C30.1115098,25.8370305 29.1221298,25.1679683 28.2906608,24.324085 C28.1721106,24.1999406 28.0571353,24.0726622 27.94584,23.9424148 C27.482199,24.4671668 26.9547515,24.9387916 26.3753821,25.3462292 C24.8985011,26.3848359 23.150028,26.9602835 21.3498926,26.9999653 L18.0821365,26.9778516 L18.0821365,23.3293371 L21.3718247,23.3293371 C22.2489855,23.3498537 23.1172517,23.1481277 23.8969367,22.7424642 C24.6767435,22.3368006 25.342991,21.7402222 25.8346348,21.0075217 C25.9941447,21.0487789 26.1547778,21.0848574 26.3162888,21.1157283 L26.3168966,21.0956079 L26.4155909,21.0956079 C27.3933143,21.289154 28.3963908,21.2914396 29.3706524,21.1050249 C29.4276919,21.092357 29.4844668,21.0780299 29.5410323,21.0628059 L29.5696184,21.0642409 C29.7587256,21.0228847 29.9465975,20.9743642 30.1328326,20.9186983 Z M7.29191277,20.8527258 C7.77791519,21.602503 8.44136022,22.2183695 9.22239769,22.6449182 C10.0034473,23.0714668 10.8775255,23.2953066 11.7657864,23.2961666 L15.0553893,23.2961666 L15.0553893,26.944681 L11.7986845,26.9778516 C10.0089669,26.9886627 8.25758168,26.455354 6.77295132,25.4475837 C5.28832096,24.4396905 4.13937306,23.0041429 3.47596459,21.3281703 L3.47596459,21.2397155 L3.57465889,21.2397155 C3.93796358,21.2909456 4.30435095,21.3168678 4.67118914,21.3171135 C5.56456753,21.3134278 6.45079362,21.1562977 7.29191277,20.8527258 Z M4.649318,8.82352521 C7.2170635,8.82352521 9.29863599,10.922324 9.29863599,13.5113466 C9.29863599,16.1003692 7.2170635,18.1992049 4.649318,18.1992049 C2.08157249,18.1992049 -1.71418435e-13,16.1003692 -1.71418435e-13,13.5113466 C-1.71418435e-13,10.922324 2.08157249,8.82352521 4.649318,8.82352521 Z M27.8843083,8.82352521 C30.452066,8.82352521 32.5336629,10.922324 32.5336629,13.5113466 C32.5336629,16.1003692 30.452066,18.1992049 27.8843083,18.1992049 C25.3165507,18.1992049 23.2349538,16.1003692 23.2349538,13.5113466 C23.2349538,10.922324 25.3165507,8.82352521 27.8843083,8.82352521 Z M51.3506455,8.82352521 C53.9184031,8.82352521 56,10.922324 56,13.5113466 C56,16.1003692 53.9184031,18.1992049 51.3506455,18.1992049 C48.7828878,18.1992049 46.7014127,16.1003692 46.7014127,13.5113466 C46.7014127,10.922324 48.7828878,8.82352521 51.3506455,8.82352521 Z M15.0892622,0.000398075673 L15.0892622,3.64894445 L11.799708,3.64894445 C10.9114349,3.64981671 10.0373689,3.87363191 9.25631929,4.30020514 C8.47528182,4.72677838 7.81183679,5.34266944 7.32583437,6.09234837 L7.26005035,6.14763262 C6.06628793,5.71774233 4.78636905,5.58869661 3.53181825,5.77172432 L3.43313613,5.77172432 L3.43313613,5.68326953 C4.09403461,3.99397957 5.24749076,2.54649061 6.74122293,1.53188957 C8.2349551,0.51729468 9.99873194,-0.0166989137 11.799708,0.000398075673 L15.0892622,0.000398075673 Z M44.20201,0.000159801806 C45.9916667,-0.0106047348 47.7430641,0.522696565 49.2277432,1.53050132 C50.7123005,2.53832083 51.8612971,3.9738561 52.5247421,5.64986556 L52.5247421,5.73832035 L52.4260478,5.73832035 C51.1714117,5.55483808 49.8914319,5.68389608 48.6978401,6.11422865 L48.675908,6.1252855 C48.189869,5.37560656 47.526424,4.75970322 46.7453987,4.33312998 C45.9643734,3.90656903 45.0902587,3.68274155 44.20201,3.68186929 L40.9124436,3.68186929 L40.9124436,0.000159801806 L44.20201,0.000159801806 Z M21.3611023,0.000159801805 C23.150759,-0.0106047348 24.9021564,0.522696565 26.3868355,1.53050132 C26.9890053,1.93929558 27.5359655,2.41846174 28.0177061,2.95550389 C28.1052205,2.85365357 28.1966871,2.75281746 28.2904171,2.65395089 C29.1240794,1.8107433 30.1156525,1.14294648 31.2073821,0.689329422 C32.2992335,0.235712364 33.4694311,0.00531785258 34.6503511,0.0115195286 L37.9399175,0.0115195286 L37.9399175,3.66005044 L34.6503511,3.66005044 C33.7673417,3.6424332 32.8942017,3.85009311 32.111958,4.26372983 C31.3298361,4.67737883 30.664076,5.28357672 30.1764531,6.0260687 L30.1106569,6.08135295 C29.3985957,5.86788205 28.660338,5.75623245 27.917572,5.74967205 C27.4170335,5.74953691 26.9177134,5.79767106 26.4263133,5.8933988 L26.327619,5.8933988 L26.3274244,5.86501854 C26.1808419,5.89659703 26.0349339,5.93176329 25.8898305,5.97050189 L25.8240343,5.97050189 C25.3284915,5.24390721 24.6605382,4.6538646 23.8810969,4.25412265 C23.1881518,3.8988074 22.4266608,3.70389017 21.6520768,3.68195982 L18.0714141,3.68186929 L18.0714141,0.000159801805 L21.3611023,0.000159801805 Z" transform="translate(17 32)" fill="#FFF" fill-rule="nonzero"/></g></svg>