<svg viewBox="0 0 90 90" xmlns="http://www.w3.org/2000/svg"><g fill="none" fill-rule="evenodd"><path d="M25.799 53.073c1.477-.389 3.031-.777 4.742-1.087V13.32c-4.276.776-8.318 2.174-12.205 4.037v39.287h.077c1.322-1.32 3.81-2.562 7.386-3.571Z" fill="#CC202A"/><path d="M71.664 61.458c-.155-4.037-12.05-7.376-26.82-7.376s-26.664 3.261-26.82 7.376v8.385c8.474 1.243 17.025 1.786 25.577 1.786 9.328.078 18.735-.388 27.986-1.475l.077-8.696Z" fill="#112E4F"/><path d="M22.378 62.157h.078l1.943-.078h.855s.078 0 .078-.077c.311-.7.544-1.398.778-2.174.077-.156.155-.311.155-.466v-.078l.233.699.467.932.388 1.009c0 .078.078.078.156.078.933 0 1.788.077 2.72.077h.156l-.155.155-2.022 1.553c-.155.156-.155.156-.077.31.155.622.388 1.32.544 1.942l.155.621v.078l-.544-.31-1.088-.777-.7-.466c-.078-.078-.155-.078-.155 0l-2.332 1.553-.078.077c.078-.155.078-.31.155-.465l.389-1.398c.078-.31.156-.621.233-.854v-.155l-1.555-1.165-.777-.621Zm17.492-.544h.155l2.565-.077 1.166-.078c.078 0 .078 0 .078-.078.389-.931.7-1.94 1.088-2.872l.233-.621.078-.156c.156.31.233.621.311.932.156.466.311.932.467 1.32.155.388.31.932.544 1.397 0 .078.078.156.155.156l3.654.155h.155l-.233.155-2.72 2.097c-.234.155-.234.155-.156.388.233.854.466 1.708.777 2.562.078.31.156.544.233.854v.078l-.7-.466-1.476-1.01-.933-.62c-.078-.078-.156-.078-.233 0l-3.11 2.096-.078.077c.078-.233.156-.465.156-.62l.544-1.942.311-1.164c0-.078 0-.156-.078-.156l-2.176-1.708-.778-.699Zm19.823.544h.077l1.944-.078h.855s.078 0 .078-.077c.233-.7.544-1.398.777-2.174.078-.156.156-.311.156-.466l.077-.078.233.699c.078.233.234.621.39 1.01.155.387.232.698.388 1.009 0 .077.078.077.155.077.933 0 1.788.078 2.721.078h.156l-.156.155-2.021 1.553c-.156.155-.156.155-.078.31.156.622.389 1.32.544 1.942l.156.62v.078l-.544-.31-1.089-.777-.7-.465c-.077-.078-.155-.078-.155 0l-2.332 1.552-.078.078c0-.155.078-.31.156-.466.155-.466.233-.932.389-1.397.077-.311.155-.622.233-.854v-.156l-1.555-1.242-.777-.621Z" fill="#FFF"/><path d="M45.155 50.899c1.866 0 3.654.077 5.442.155V12.155c-1.71-.077-3.42-.155-5.208-.155-2.488 0-4.82.078-7.075.31v38.822a97.32 97.32 0 0 1 6.841-.233Zm19.357 2.484c3.265.932 5.675 2.019 7.075 3.339h.155V17.978c-3.887-1.94-8.007-3.416-12.205-4.192v38.588c1.788.233 3.42.621 4.975 1.01Z" fill="#CC202A"/><path d="m1 69.688.078 4.581c1.244.233 2.643.466 4.12.776a234.78 234.78 0 0 0 38.403 2.95c23.399 0 37.236-1.63 45.399-3.182v-5.125c0-.233-.078-.388-.155-.621-.39-1.087-1.633-1.63-2.721-1.242l-.7.31c-3.265 1.32-13.216 5.435-41.59 5.435-9.873.078-19.668-.931-29.307-2.95a71.15 71.15 0 0 1-10.573-2.95c-1.088-.466-2.254.077-2.72 1.164-.156.233-.234.388-.234.621v.233Z" fill="#112E4F"/></g></svg>