<svg xmlns="http://www.w3.org/2000/svg" viewBox="0 0 90 90" fill-rule="evenodd"><g fill="#008bff"><path opacity="0" d="M0 0h90v90H0z"/><path d="M40.874 3.002L48.497 3C58.646 3 64.74 4.532 70.118 7.408s9.598 7.097 12.474 12.474S87 31.354 87 41.503v6.994c0 10.149-1.532 16.243-4.408 21.621s-7.097 9.598-12.474 12.474S58.646 87 48.497 87h-6.994c-10.149 0-16.243-1.532-21.621-4.408s-9.598-7.097-12.474-12.474c-2.816-5.266-4.343-11.219-4.406-20.992L3 41.503C3 31.354 4.532 25.26 7.408 19.882s7.097-9.598 12.474-12.474c5.266-2.816 11.219-4.343 20.992-4.406z"/></g><path fill="#fff" d="M45.012 20c8.394 0 16.356 2.101 16.356 11.628v3.488H49.078c.39-4.651-.965-6.977-4.066-6.977s-4.477 1.55-4.127 4.651c0 6.395 20.482 8.721 21.068 20.349C62.625 66.502 56.1 70 45.567 70c-11.704 0-17.856-3.477-17.556-16.86h12.875c-.78 5.426.78 8.14 4.682 8.14s5.267-2.132 4.096-6.395c-2.926-6.395-21.653-8.14-21.653-22.093C28.01 23.488 35.679 20 45.012 20z"/></svg>