<svg viewBox="0 0 90 90" xmlns="http://www.w3.org/2000/svg"><defs><linearGradient x1="50%" y1="0%" x2="50%" y2="100.002%" id="a"><stop stop-color="#00AEEF" offset="0%"/><stop stop-color="#0097DC" offset="21.2%"/><stop stop-color="#007CC5" offset="51.9%"/><stop stop-color="#006CB8" offset="79.2%"/><stop stop-color="#0066B3" offset="100%"/></linearGradient></defs><g fill="none" fill-rule="evenodd"><path fill="url(#a)" d="M0 44h44.975L88.988 0H0v44" transform="translate(0 23)"/><path d="M52.81 31.8h-8.788l.03 20.66-7.654-20.667H28.81l-6.533 17.26c-.695-4.391-5.238-5.907-8.812-7.042-2.36-.758-4.866-1.873-4.84-3.105.019-1.01 1.34-1.948 3.964-1.808 1.761.094 3.317.236 6.41 1.73l3.043-5.3c-2.821-1.435-6.722-2.341-9.921-2.344h-.02c-3.73 0-6.836 1.208-8.761 3.197-1.342 1.389-2.066 3.155-2.096 5.107-.049 2.687.937 4.592 3.007 6.114 1.749 1.281 3.986 2.112 5.957 2.722 2.431.753 4.417 1.408 4.393 2.803a2.07 2.07 0 0 1-.578 1.367c-.606.625-1.535.86-2.822.886-2.482.052-4.32-.338-7.252-2.07l-2.707 5.37c2.928 1.664 6.036 2.499 9.568 2.499l.794-.006c3.074-.056 5.568-.792 7.55-2.386.114-.09.216-.183.321-.276l-.332 1.713 7.415-.023 1.33-3.405c1.4.478 2.99.742 4.678.742 1.646 0 3.193-.25 4.566-.7l.927 3.363 13.305.013.032-7.762h2.831c6.843 0 10.888-3.48 10.888-9.318-.002-6.501-3.935-9.333-12.305-9.333ZM32.566 49.46a7.954 7.954 0 0 1-2.805-.49l2.774-8.756h.054l2.73 8.78a8.219 8.219 0 0 1-2.754.467h.001Zm20.759-5.03h-1.931v-7.057h1.932c2.573 0 4.627.857 4.627 3.483-.002 2.718-2.054 3.574-4.627 3.574" fill="#FFF"/><path d="M0 23h90v44H0z"/></g></svg>