<svg viewBox="0 0 90 90" xmlns="http://www.w3.org/2000/svg"><defs><linearGradient x1=".005%" y1="50.062%" x2="99.996%" y2="50.062%" id="a"><stop stop-color="#3BAFDA" offset="0%"/><stop stop-color="#4FC1E9" offset="100%"/></linearGradient><linearGradient x1="0%" y1="50.004%" x2="100%" y2="50.004%" id="b"><stop stop-color="#F3A100" offset="0%"/><stop stop-color="#FFCE54" offset="100%"/></linearGradient><linearGradient x1=".013%" y1="50.182%" x2="99.979%" y2="50.182%" id="c"><stop stop-color="#E9573F" offset="0%"/><stop stop-color="#FC6E51" offset="100%"/></linearGradient></defs><g fill="none"><path fill="#142A42" d="M0 0h90v90H0z"/><path d="M13.78 32.226a2.152 2.152 0 0 1-.942-1.842 2.494 2.494 0 0 1 .484-1.497 3.31 3.31 0 0 1 1.401-1.082 5.09 5.09 0 0 1 2.078-.391c.748-.012 1.49.13 2.175.414a3.31 3.31 0 0 1 1.45 1.105c.327.47.496 1.025.483 1.589h-2.344a1.374 1.374 0 0 0-.797-1.266 2.164 2.164 0 0 0-.967-.208 1.952 1.952 0 0 0-1.232.346 1.042 1.042 0 0 0-.435.852.846.846 0 0 0 .169.552c.177.189.402.331.652.415.408.15.828.265 1.257.345a10.39 10.39 0 0 1 2.054.622c.494.2.927.516 1.256.92.317.422.479.932.46 1.45a2.452 2.452 0 0 1-.508 1.52 3.32 3.32 0 0 1-1.45 1.06 5.904 5.904 0 0 1-2.175.368 5.38 5.38 0 0 1-2.32-.46 3.655 3.655 0 0 1-1.497-1.22 2.741 2.741 0 0 1-.532-1.59h2.271c-.024.49.212.957.629 1.244.43.268.935.405 1.45.391.475.03.947-.084 1.353-.322a.98.98 0 0 0 .483-.852 1 1 0 0 0-.17-.599 1.495 1.495 0 0 0-.652-.46 7.126 7.126 0 0 0-1.353-.368c-1.176-.23-2.086-.568-2.73-1.013v-.023Zm17.447 4.926v.162h-2.393a3.903 3.903 0 0 1-.265-.921 3.613 3.613 0 0 1-2.658 1.082 4.13 4.13 0 0 1-1.813-.369 2.98 2.98 0 0 1-1.232-1.036 2.647 2.647 0 0 1-.46-1.496c0-1.028.404-1.819 1.21-2.371.805-.553 1.956-.83 3.454-.83h1.378v-.644a1.632 1.632 0 0 0-.435-1.197 1.818 1.818 0 0 0-1.305-.437 2.27 2.27 0 0 0-.918.16 1.44 1.44 0 0 0-.604.461 1.113 1.113 0 0 0-.218.69h-2.32a2.423 2.423 0 0 1 .532-1.473 3.66 3.66 0 0 1 1.474-1.105 5.545 5.545 0 0 1 2.223-.414 5.296 5.296 0 0 1 2.054.368 3.1 3.1 0 0 1 1.401 1.151c.344.557.512 1.197.484 1.842v4.282a4.812 4.812 0 0 0 .41 2.095ZM27.65 35.38c.353-.191.646-.47.846-.806v-1.819h-1.208c-.846 0-1.45.138-1.885.415-.412.269-.65.721-.628 1.197-.015.363.134.716.41.967.322.262.738.394 1.16.368.459.011.91-.1 1.305-.322Zm10.149.16v1.728a5.028 5.028 0 0 1-1.522.23c-.838 0-1.498-.223-1.982-.668-.483-.445-.725-1.136-.725-2.072v-5.525h-1.643v-1.658h1.668v-2.371h2.343v2.371h1.788v1.68h-1.788v5.365c0 .391.097.69.266.829.227.168.511.25.798.23a3.9 3.9 0 0 0 .797-.115v-.023Zm9.883-1.473a3.034 3.034 0 0 1-.604 1.727 3.984 3.984 0 0 1-1.498 1.243 4.678 4.678 0 0 1-2.079.46 4.817 4.817 0 0 1-2.56-.644 4.047 4.047 0 0 1-1.596-1.75 5.807 5.807 0 0 1-.507-2.509v-.3a5.788 5.788 0 0 1 .532-2.486 4.066 4.066 0 0 1 1.57-1.75 5.296 5.296 0 0 1 4.712-.184c.603.3 1.105.754 1.45 1.313a3.69 3.69 0 0 1 .58 1.91h-2.223a2.13 2.13 0 0 0-.266-.943 1.815 1.815 0 0 0-.7-.691 2.036 2.036 0 0 0-1.04-.23c-.821 0-1.425.276-1.764.851a4.377 4.377 0 0 0-.483 2.21v.323c0 2.057.757 3.085 2.271 3.085a2.29 2.29 0 0 0 .967-.207 1.77 1.77 0 0 0 .725-.576 1.56 1.56 0 0 0 .29-.829l2.223-.023Zm9.98-2.993v6.24h-2.393V31.05c0-.667-.12-1.128-.435-1.404-.314-.276-.725-.414-1.329-.414a2.334 2.334 0 0 0-1.208.299 2.259 2.259 0 0 0-.822.829v6.953h-2.343V23.5h2.343v5.134c.344-.39.773-.705 1.257-.92a3.78 3.78 0 0 1 1.57-.3c2.223.015 3.335 1.243 3.335 3.683l.024-.023Zm10.728 2.073h-6.67c.035.468.175.923.411 1.335.216.372.533.682.919.898.412.221.88.332 1.353.322a3.124 3.124 0 0 0 2.561-1.197l1.256 1.151c-.397.55-.928 1-1.546 1.312a5.08 5.08 0 0 1-2.416.53 5.3 5.3 0 0 1-2.586-.622 4.291 4.291 0 0 1-1.715-1.68 4.872 4.872 0 0 1-.604-2.418v-.368a5.53 5.53 0 0 1 .604-2.625 4.36 4.36 0 0 1 1.667-1.773 5.041 5.041 0 0 1 4.808 0 3.73 3.73 0 0 1 1.45 1.681 6.09 6.09 0 0 1 .483 2.51l.025.944Zm-2.32-1.796a2.613 2.613 0 0 0-.556-1.543c-.314-.414-.821-.598-1.522-.598a1.93 1.93 0 0 0-1.498.598 3.14 3.14 0 0 0-.725 1.727h4.301v-.184Zm4.011 5.963V23.5h2.344v13.814H70.08Zm7.032-9.6c.253.235.393.56.386.897a1.15 1.15 0 0 1-.386.875c-.262.232-.61.356-.967.345a1.419 1.419 0 0 1-1.015-.345 1.145 1.145 0 0 1-.362-.875 1.189 1.189 0 0 1 .362-.898 1.393 1.393 0 0 1 1.015-.345c.357-.011.705.113.967.345Zm0 7.597c.256.234.396.56.386.898.013.327-.119.644-.362.874a1.393 1.393 0 0 1-.99.346 1.394 1.394 0 0 1-1.016-.346 1.145 1.145 0 0 1-.362-.874c-.017-.335.115-.66.362-.898.274-.244.641-.37 1.015-.346a1.37 1.37 0 0 1 .967.346Z" fill="#FFF"/><path d="M1.245 5.286a9.222 9.222 0 0 1 3.523-3.802 10.221 10.221 0 0 1 5.39-1.4c1.931-.05 3.837.435 5.492 1.4a9.216 9.216 0 0 1 3.524 3.852 12.195 12.195 0 0 1 1.243 5.504v.45a12.195 12.195 0 0 1-1.243 5.504 9.172 9.172 0 0 1-3.524 3.802 11.435 11.435 0 0 1-10.882 0 9.115 9.115 0 0 1-3.523-3.852A12.147 12.147 0 0 1 0 11.24v-.4a12.147 12.147 0 0 1 1.244-5.504v-.05Zm5.078 10.857c.837 1.278 2.321 2.024 3.886 1.951a4.564 4.564 0 0 0 2.902-.9 5.294 5.294 0 0 0 1.71-2.502c.374-1.13.55-2.315.518-3.502v-.35a10.344 10.344 0 0 0-.518-3.502 5.344 5.344 0 0 0-1.71-2.502 4.618 4.618 0 0 0-2.954-.9 4.452 4.452 0 0 0-2.85.95 5.393 5.393 0 0 0-1.71 2.502 10.177 10.177 0 0 0-.57 3.452v.4a8.57 8.57 0 0 0 1.296 4.903Z" fill="url(#a)" transform="translate(13 44)"/><path d="M39.797 1.934c1.21 1.234 1.814 3.236 1.814 6.004v13.659h-5.027V7.938c0-1.45-.31-2.452-.932-3.002-.622-.55-1.607-.9-2.902-.9a4.845 4.845 0 0 0-2.54.65 4.922 4.922 0 0 0-1.761 1.851v15.06H23.37V.433h4.767l.155 2.502a7.836 7.836 0 0 1 2.8-2.151 8.546 8.546 0 0 1 3.575-.7c2.21 0 3.92.616 5.13 1.85Z" fill="url(#b)" transform="translate(13 44)"/><path d="M63.996 12.591h-14.25a6.78 6.78 0 0 0 .88 2.852 5.191 5.191 0 0 0 1.97 1.951 5.809 5.809 0 0 0 2.902.7c2.144.041 4.174-.93 5.44-2.601l2.695 2.501a9.33 9.33 0 0 1-3.316 2.852 10.827 10.827 0 0 1-5.13 1.15 11.24 11.24 0 0 1-5.596-1.4 9.255 9.255 0 0 1-3.628-3.652 10.7 10.7 0 0 1-1.295-5.254v-.8a12.148 12.148 0 0 1 1.295-5.704 9.426 9.426 0 0 1 3.576-3.852 10.631 10.631 0 0 1 10.311 0 8.073 8.073 0 0 1 3.11 3.652 13.389 13.389 0 0 1 1.036 5.504v2.101ZM59.02 8.638a5.768 5.768 0 0 0-1.14-3.352c-.725-.9-1.813-1.3-3.264-1.3a4.113 4.113 0 0 0-3.213 1.3A6.872 6.872 0 0 0 49.85 9.04h9.171v-.4Z" fill="url(#c)" transform="translate(13 44)"/></g></svg>