<svg xmlns="http://www.w3.org/2000/svg" viewBox="0 0 90 90" fill="none" fill-rule="evenodd" xmlns:v="https://vecta.io/nano"><path fill="#fff" opacity="0" d="M0 0h90v90H0z"/><g fill-rule="nonzero"><path fill="#c00" d="M74.858 74.903H15.733h-.556v-.558-7.973h-5.069v13.617h64.751v-5.087z"/><path fill="#002e6d" d="M10.201 10v13.618h5.07v-7.973-.557h.557 58.539.557v.557 7.973h5.07V10H10.201h0zM12.2 28.414c-9.904 0-11.732 6.246-11.732 9.79 0 7.004 4.76 8.154 9.692 9.35l3.274.798c3.231.797 5.525 1.461 5.525 3.943 0 3.369-3.358 4.123-6.376 4.123-5.568 0-6.42-3.369-6.461-5.14H0C0 55.22 1.913 61.91 13.049 61.91c2.677 0 12.031-.841 12.031-10.413 0-5.714-3.826-7.485-7.992-8.548l-7.439-1.908c-1.275-.309-3.23-.843-3.23-3.323 0-2.88 2.889-3.811 5.312-3.811 5.569 0 6.079 3.368 6.25 4.785h6.124c-.044-3.899-2.553-10.279-11.905-10.279h0zm62.713.831l-10.07 31.836h6.357l6.17-20.902 6.271 20.902H90L79.944 29.245h-5.03zm-41.77.01v31.815h13.422c6.49 0 8.213-1.109 10.024-2.88 1.677-1.64 2.737-4.034 2.737-6.559 0-3.148-1.017-6.248-4.902-7.71 1.325-.664 3.885-1.951 3.885-6.513 0-3.279-1.986-8.153-9.758-8.153H33.144h0zm6.356 5.492h7.595c3.003 0 4.859.798 4.859 3.414 0 2.527-2.077 3.546-4.682 3.546H39.5v-6.959h0zm.002 12.319h8.433c2.385 0 4.771 1.067 4.771 3.856 0 3.235-1.856 4.652-5.08 4.652h-8.124v-8.508h0zm35.368 14.093V80l5.04-5.116V61.159h-5.04z"/></g></svg>