<svg viewBox="0 0 90 90" xmlns="http://www.w3.org/2000/svg"><g fill="none" fill-rule="evenodd"><path fill="#FFF" d="M0 0h90v90H0z"/><path d="M67 56a4 4 0 0 1 4 4v7a4 4 0 0 1-4 4h-7a4 4 0 0 1-4-4v-7a4 4 0 0 1 4-4h7Zm-19 0a4 4 0 0 1 4 4v7a4 4 0 0 1-4 4h-7a4 4 0 0 1-4-4v-7a4 4 0 0 1 4-4h7Zm-18 0a4 4 0 0 1 4 4v7a4 4 0 0 1-4 4h-7a4 4 0 0 1-4-4v-7a4 4 0 0 1 4-4h7Zm37-19a4 4 0 0 1 4 4v7a4 4 0 0 1-4 4h-7a4 4 0 0 1-4-4v-7a4 4 0 0 1 4-4h7Zm-19 0a4 4 0 0 1 4 4v7a4 4 0 0 1-4 4h-7a4 4 0 0 1-4-4v-7a4 4 0 0 1 4-4h7Zm19-18a4 4 0 0 1 4 4v7a4 4 0 0 1-4 4h-7a4 4 0 0 1-4-4v-7a4 4 0 0 1 4-4h7Z" fill="#2D305D"/></g></svg>