<svg xmlns="http://www.w3.org/2000/svg" viewBox="0 0 90 90"><path d="M46 90c24.853 0 45-20.147 45-45S70.853 0 46 0 1 20.147 1 45s20.147 45 45 45Z" fill="#264BC5"/><path d="M64.4 47.199a10.028 10.028 0 0 0-1.12-1.882 1.796 1.796 0 0 0-1.417-.753 1.485 1.485 0 0 0-1.128.457 1.505 1.505 0 0 0-.418 1.15c.01.31.094.613.243.885.078.147.216.436.29.59.053.099.05.196-.033.242a.174.174 0 0 1-.243-.08l-.328-.53a1.64 1.64 0 0 0-2.761-.123c-.215.3-.324.664-.31 1.034.001.26.061.518.176.752.044.09.127.275.171.377.045.101.049.2-.033.252a.174.174 0 0 1-.236-.079c-.067-.098-.194-.297-.265-.377a1.498 1.498 0 0 0-1.236-.635 1.506 1.506 0 0 0-1.109.466 1.532 1.532 0 0 0-.423 1.133c.025.343.117.678.27.986.675 1.506 1.008 3.011 1.008 5.27 0 5.366-4.166 9.717-9.201 9.717-6.672 0-9.156-5.171-9.63-6.707a.352.352 0 0 0-.438-.233l-9.933 3.056a.343.343 0 0 0-.207.172.352.352 0 0 0-.024.268c2.189 7.114 9.178 14.577 20.109 14.577 9.055 0 16.582-6.116 19.343-14.366a20.842 20.842 0 0 0-1.117-15.62ZM46 46.02a1.02 1.02 0 1 1 0-2.04 1.02 1.02 0 0 1 0 2.04Zm0-8.447c-.202 0-.399-.051-.567-.148a.92.92 0 0 1-.375-.392.76.76 0 0 1-.058-.506.843.843 0 0 1 .28-.447c.144-.122.326-.205.524-.238.197-.034.403-.016.589.05.186.068.345.18.457.324.111.144.17.314.17.487a.764.764 0 0 1-.078.333.878.878 0 0 1-.221.283c-.095.08-.208.145-.331.189a1.164 1.164 0 0 1-.39.065Zm0 4.077c-.202 0-.399-.05-.567-.147a.918.918 0 0 1-.375-.392.76.76 0 0 1-.058-.505.844.844 0 0 1 .28-.447 1.08 1.08 0 0 1 .521-.24c.198-.033.403-.016.589.05.186.066.346.179.458.322a.77.77 0 0 1 .094.82.877.877 0 0 1-.221.283 1.044 1.044 0 0 1-.331.19 1.172 1.172 0 0 1-.39.066Zm7.638 4.696a5.037 5.037 0 0 0-.714-.595 10.458 10.458 0 0 0-1.683-.98 5.868 5.868 0 0 0-1.063-.412 1.56 1.56 0 0 0-1.03 0 1.09 1.09 0 0 0-.625 1.33c.126.445.486.624.876.81.507.228.998.488 1.47.779.412.252.765.485 1.184.785a1.249 1.249 0 0 0 1.57.018 1.189 1.189 0 0 0 .387-.864 1.178 1.178 0 0 0-.372-.87Zm3.441-2.265a8.363 8.363 0 0 0-2.05-1.543 2.76 2.76 0 0 0-.71-.268 1.21 1.21 0 0 0-.66.018 1.192 1.192 0 0 0-.548.362 1.13 1.13 0 0 0-.099 1.319c.211.312.49.573.816.766.492.361.834.615 1.29.998.255.28.59.477.962.567.261.034.527-.013.76-.133.233-.12.423-.309.544-.54a1.353 1.353 0 0 0-.305-1.546Zm-5.994-3.478a6.24 6.24 0 0 0-.991-.326 2.424 2.424 0 0 0-1.042-.048 1.169 1.169 0 0 0-.478.236 1.08 1.08 0 0 0-.31.417 1.025 1.025 0 0 0 .107.983c.176.23.433.391.724.458l.752.259c.226.084.458.156.693.214.186.033.378.024.56-.027.181-.052.347-.144.482-.269.678-.58.443-1.525-.497-1.897Zm-1.122-4.385a3.653 3.653 0 0 0-.562-.095 1.29 1.29 0 0 0-.75.153.989.989 0 0 0-.372.4.884.884 0 0 0 .14 1.001c.124.139.287.243.472.302.235.08.477.136.724.17.256.026.515-.034.727-.167a.988.988 0 0 0 .431-.558.902.902 0 0 0 .02-.39.937.937 0 0 0-.147-.367 1.038 1.038 0 0 0-.292-.287 1.15 1.15 0 0 0-.39-.162Zm5.096 1.698a4.452 4.452 0 0 0-.832-.4 3.708 3.708 0 0 0-.988-.232 1.238 1.238 0 0 0-.77.209 1.137 1.137 0 0 0-.456.625c-.072.252-.05.52.061.759.112.239.307.433.553.55l.742.354c.275.152.564.277.865.374a1.284 1.284 0 0 0 1.062-.205c.717-.522.568-1.557-.237-2.034Zm5.596 3.87a7.17 7.17 0 0 0-.9-.911 6.192 6.192 0 0 0-.961-.712 1.639 1.639 0 0 0-1.14-.24c-.221.04-.427.137-.597.281a1.213 1.213 0 0 0-.395 1.186c.05.214.157.411.312.57.24.249.46.415.722.641.33.286.65.568.957.875a1.487 1.487 0 0 0 1.003.504 1.312 1.312 0 0 0 1.197-.689 1.331 1.331 0 0 0-.198-1.505Z" fill="#FFF"/><path d="M27.609 42.535c.306.66.682 1.285 1.12 1.864a1.798 1.798 0 0 0 1.42.746 1.499 1.499 0 0 0 1.454-.976c.073-.196.103-.404.089-.612a1.9 1.9 0 0 0-.243-.876c-.074-.146-.216-.436-.291-.585-.075-.15-.045-.194.037-.239a.18.18 0 0 1 .138-.013.176.176 0 0 1 .105.091l.325.526a1.653 1.653 0 0 0 1.887.737 1.656 1.656 0 0 0 1.187-1.64c0-.258-.06-.513-.175-.745l-.176-.372c-.048-.101-.048-.198.038-.25a.177.177 0 0 1 .235.078c.064.097.194.294.262.373a1.532 1.532 0 0 0 2.768-.958 2.607 2.607 0 0 0-.266-.977c-.68-1.49-1.012-2.982-1.012-5.218 0-5.316 4.17-9.629 9.205-9.629 6.672 0 9.152 5.122 9.63 6.647a.348.348 0 0 0 .433.227l9.922-3.045a.352.352 0 0 0 .236-.437c-2.193-7.048-9.179-14.436-20.11-14.436-9.058 0-16.585 6.053-19.346 14.228a20.49 20.49 0 0 0 1.128 15.491ZM46 52.136a1.018 1.018 0 0 1 1 1.218 1.02 1.02 0 0 1-1.848.368A1.018 1.018 0 0 1 46 52.136Zm0-4.078a1.02 1.02 0 1 1 0 2.04 1.02 1.02 0 0 1 0-2.04Zm-7.614-4.69c.229.22.478.419.746.595.56.374 1.152.7 1.771.978.359.17.735.307 1.122.409.35.116.732.116 1.082 0 .265-.106.478-.3.6-.545.121-.246.142-.525.058-.784-.132-.449-.515-.624-.924-.81a14.19 14.19 0 0 1-1.547-.781 20.521 20.521 0 0 1-1.245-.781 1.355 1.355 0 0 0-.824-.29 1.359 1.359 0 0 0-.831.268 1.193 1.193 0 0 0-.297.395 1.14 1.14 0 0 0 .289 1.346Zm-3.441 2.542a8.77 8.77 0 0 0 2.18 1.545c.236.122.488.214.75.272.23.057.473.053.701-.011.228-.064.432-.186.59-.352a1.08 1.08 0 0 0 .102-1.323 2.588 2.588 0 0 0-.869-.768c-.52-.363-.883-.62-1.372-1a2.097 2.097 0 0 0-1.02-.573 1.457 1.457 0 0 0-.809.135 1.31 1.31 0 0 0-.578.543c-.121.255-.155.54-.097.813.058.274.205.526.422.72Zm6.178 3.484c.297.137.606.247.923.329.314.091.644.107.965.047.165-.041.316-.122.444-.236a1.079 1.079 0 0 0 .355-.92 1.093 1.093 0 0 0-.167-.48 1.2 1.2 0 0 0-.672-.462l-.697-.255a4.693 4.693 0 0 0-.646-.214 1.107 1.107 0 0 0-.966.292c-.595.587-.395 1.526.461 1.899Zm.945 4.372c.18.055.363.092.549.11.257.031.516-.03.737-.172a1.08 1.08 0 0 0 .368-.457 1.146 1.146 0 0 0-.14-1.145 1.036 1.036 0 0 0-.468-.342 3.247 3.247 0 0 0-.707-.194 1.014 1.014 0 0 0-.773.198c-.224.17-.376.425-.424.711-.048.286.012.58.167.821.154.24.392.408.662.466l.029.004Zm-5.124-1.742c.263.175.542.323.832.44.316.135.649.22.988.252.275.018.546-.065.769-.232.222-.168.383-.411.455-.688a1.3 1.3 0 0 0-.063-.835 1.225 1.225 0 0 0-.551-.606l-.743-.388a4.516 4.516 0 0 0-.866-.409 1.161 1.161 0 0 0-1.062.226c-.717.58-.565 1.71.241 2.24Zm-5.603-4.106c.275.329.576.636.902.918.299.264.622.5.965.707.336.217.742.304 1.14.245.221-.041.427-.14.595-.284.169-.144.295-.33.364-.539a1.194 1.194 0 0 0-.278-1.214 9.2 9.2 0 0 0-.726-.64c-.33-.286-.646-.567-.958-.875a1.437 1.437 0 0 0-.447-.352 1.479 1.479 0 0 0-.553-.155 1.323 1.323 0 0 0-.705.175 1.28 1.28 0 0 0-.629 1.294c.036.266.15.517.33.72Z" fill="#FFF"/></svg>