<svg viewBox="0 0 90 90" xmlns="http://www.w3.org/2000/svg" xmlns:xlink="http://www.w3.org/1999/xlink"><defs><path id="a" d="M0 0h80v57.384H0z"/><path id="c" d="M0 75h80V0H0z"/></defs><g fill="none" fill-rule="evenodd"><g transform="translate(5 8)"><mask id="b" fill="#fff"><use xlink:href="#a"/></mask><path d="M33.074.143c-.734.217-3.147 1.074-3.397 3.018-.013.104-.02.21-.02.314 0 .055.008.113.01.17l-.792-.026-1.981-.04-.716.125c-.85.138-3.146.513-3.192 2.87l-.033.777c0 1.4.286 2.929.806 4.305.153.41.387.726.558.956l.133.191a9.062 9.062 0 0 0 1.393 2.994c-1.608.194-3.232.455-4.833.936l.323-.061c-.873.066-1.71.53-2.558 1.419l-.08.082-.064.093a4.782 4.782 0 0 0-.625 1.192c-3.307.979-6.03 1.815-8.238 2.538-1.947.64-5.823 2.29-5.988 2.359l-.106.045-.028.02-.058.023C.623 25.65 0 27.69 0 29.189c0 2.354 1.83 3.009 2.709 3.323.199.07.404.144.509.203 1.185.648 2.323.424 3.153.261l.563-.097c.408-.05.856-.183 1.302-.323.411.86 1.164 1.656 2.343 1.884 1.01.197 1.684.011 2.225-.184.03.303.092.605.217.9.208.491.557.942.99 1.326-.716.56-1.73 1.566-1.73 2.788 0 .11.007.221.025.334l.012.084c.093.652.34 2.386 2.714 3.358.914.374 1.97.479 3.155.328.104.357.26.694.469 1.001-.654.322-.801.433-.901.514l-.033.027c-.436.371-1.07.952-1.548 1.697-.198.297-.796 1.294-.796 2.43 0 .204.02.413.065.625.143.7.57 1.31 1.179 1.684.863.532 1.806.587 2.532.518.12.765.68 1.638 2.415 2.146l.11.033c.558.17 1.31.14 2.895.006l.638-.05c.192-.006.515-.054.891-.12 0 .778.23 1.47.666 1.986l.031.035c.982 1.09 2.463 1.385 3.053 1.462.66.091 1.498-.188 3.127-.852l.399-.16c.168-.057.338-.108.51-.152.062.084.107.172.185.253.351.362.98.785 1.978.75.91-.024 2.447-.366 2.619-.405l.092-.02.087-.032c1.899-.683 8.156-2.95 8.992-3.399l.032-.018c.694-.349 6.246-2.12 8.616-2.875l1.706-.546c2.498-.786 4.792-2.56 5.454-3.247l.024-.026c.554-.603.913-1.431 1.072-2.46a2.09 2.09 0 0 0 .026-.326c0-.54-.211-1.053-.492-1.538a954.072 954.072 0 0 0 2.601-1.162c.466-.17 1.663-.707 2.164-1.812.118-.258.17-.512.186-.76l2.914-.746.047-.012c.878-.208 3.213-.76 5.386-1.837C79.609 35.003 80 33.84 80 32.857c0-.134-.007-.262-.018-.388l-.007-.09-.007.114c.01-.073.013-.146.013-.22 0-1.02-.844-2.107-1.617-2.675l-.022-.075c-.49-.59-1.222-.628-1.574-.647l.039.002-.432-.07c-.559-.118-1.168-.207-2.467-.179a4.405 4.405 0 0 0-.213-1.115c-.77-2.307-2.806-3.953-5.185-4.179-1.49-.187-2.644-.12-3.885-.015 1.067-1.246 2.163-2.655 2.45-3.496.25-.709.71-3.948.73-4.25l.005-.045.006-.416c0-.893-.09-1.5-.165-1.989l-.103-.93a29.677 29.677 0 0 0-.502-4.419l-.72-3.566-2.146 2.924c-.253.35-.511.697-.776 1.038-.427.33-2.405 1.697-3.901 2.634-.335-1.349-1.136-2.534-2.403-3.442l-.057-.04-.06-.035c-1.593-.932-3.346-1.798-5.357-1.826-2.014-.068-3.89.342-5.575 1.22-1.024.554-1.781 1.36-2.449 2.072-.42.446-.81.859-1.222 1.186l.079-.06c-.364.251-.703.518-1.03.789-.253-1.327-.548-2.815-1.203-4.264-.796-1.702-1.858-3.17-3.346-4.636-.722-.742-2.05-1.312-2.777-1.585l-.088-.031L33.561 0l-.488.143h.001Z" fill="#FFF" fill-rule="nonzero" mask="url(#b)"/></g><path d="M19.373 46.877c-.086-.54.628-1.32 1.364-1.839.757-.519 1.969-1.06 2.706-1.319.735-.238 1.254-.411 1.665-.541 2.382-.821 7.75-2.703 7.965-2.788.238-.11 12.423-4.088 13.463-4.306 1.015-.215 5.388-2.16 5.844-2.551.301-.26 9.153-1.276 10.302-.713 1.123.562-.369 4.412 1.688 3.849 2.032-.561 8.374-1.556 9.499.26 1.126 1.817.218 2.726-.583 3.07-.78.326-15.518 4.001-15.518 4.001s-20.994 5.666-21.794 5.795c-.628.11-4.956 1.45-6.602 1.99-.453.152.065-.02-.8.238-1.104.323-.91.151-1.408.065-1.103-.215-1.948-.974-2.034-2.01-.086-1.016 1.624-1.6 1.494-1.6-.13 0-3.224 1.579-5.454.67-1.667-.67-1.71-1.71-1.797-2.271" fill="#FFF" fill-rule="nonzero"/><path d="M27.105 52.468s11.211-3.48 12.423-3.936c1.211-.454 14.37-4.067 15.28-4.26.887-.195 10.15-3.05 11.208-3.331 1.06-.28 8.054-2.141 8.054-2.141s2.229-.539 4.48-.648c2.25-.086 2.314.174 3.138.237.822.045.324.217.585.304.237.064 1.254 1.103 1.19 1.6-.066.498.496 1.341-1.559 2.335-2.055 1.017-4.286 1.536-5.108 1.73-.821.194-4.805 1.233-4.805 1.233s.975.454.673 1.125c-.304.67-1.365 1.037-1.365 1.037l-5.042 2.252s1.256.365 1.428.625c.174.26.627.91.561 1.317-.064.414-.216 1.15-.691 1.668-.477.497-2.554 2.14-4.826 2.855-2.272.734-9.806 3.091-10.605 3.545-.803.433-8.787 3.31-8.787 3.31s-1.536.346-2.338.367c-1.254.043-1.168-1.297-1.168-1.297s-1.623.39-2.036.563c-.41.15-2.271.973-2.747.906-.498-.064-1.515-.301-2.121-.972-.585-.692-.193-2.076.022-2.228.194-.153.648-.864.648-.864s-2.856.67-3.44.691c-.563.02-2.533.261-3.032.11-.496-.153-1.664-.412-1.448-1.32.216-.932.8-1.621 1.428-1.88.628-.262-2.273.797-2.273.797s-1.385.499-2.401-.129c-.996-.628-.369-2.055.021-2.638.389-.606.952-1.103 1.254-1.362.325-.26 3.399-1.6 3.399-1.6" fill="#0066B2" fill-rule="nonzero"/><path d="M9.375 33.749s3.96-1.686 5.865-2.313c4.37-1.428 9.76-2.985 11.536-3.504 1.687-.518 6.904-2.098 11.318-3.439 3.508-1.059 6.536-1.967 6.862-2.053.756-.172 15.906-4.932 16.405-4.347.497.561 2.057 1.967 1.97 4.001-.087 2.054-3.852 7.049-4.501 7.394-.673.326-11.883 2.532-11.883 2.532s5.8-2.293 6.059.086c.24 2.378-4.502 3.223-4.74 3.352-.237.151-9.414 3.027-16.296 5.233-4.567 1.47-7.511 2.594-7.791 2.639-.736.064-2.014 1.06-3.291.561-.865-.345-1.967-1.317-1.47-2.528.497-1.235 1.558-1.472 1.558-1.472s-.694.237-2.164.499c-1.472.237-1.733.798-2.944.56-1.234-.235-1.56-1.708-1.494-2.119.085-.41-1.73.433-2.62.542-.908.108-1.882.518-2.79.02-.887-.497-2.446-.497-2.446-2.204 0-2.64 2.663-3.29 2.857-3.44" fill="#EC1C24" fill-rule="nonzero"/><path d="m63.652 21.905-.163-.678c-.143-.555-.318-1.244-.332-1.539-.14-1.23-.791-2.271-1.939-3.092-1.419-.83-2.955-1.597-4.616-1.618-1.76-.065-3.39.288-4.848 1.048-.788.426-1.428 1.107-2.047 1.766-.434.46-.882.938-1.386 1.336-.61.42-1.173.912-1.72 1.386l-.965.82c-.021.006-.131.054-.165.039l-.022-.04a32.372 32.372 0 0 1-.483-2.24c-.255-1.341-.518-2.729-1.122-4.063-.713-1.525-1.681-2.859-3.047-4.201-.613-.632-2.174-1.206-2.24-1.23l-.026-.01-.027.008c-.09.026-2.18.652-2.322 1.757-.072.558.368 1.127 1.307 1.687a.335.335 0 0 0 .04.036c-.258.172-2.403.1-3.705.057l-1.814-.037-.566.1c-.901.147-1.924.31-1.943 1.412a8.363 8.363 0 0 0-.031.743c0 1.214.249 2.55.709 3.767.08.215.222.408.358.592.135.185.264.358.334.552.461 2.015 1.66 3.329 2.931 4.722 0 0 .014.017.022.023l-.153.015c-2.395.223-4.874.456-7.224 1.161-.475.034-.997.347-1.574.953-.374.533-.542.98-.542 1.424a2.63 2.63 0 0 0-.029.39c0 .743.287 1.505.887 2.361.79 1.243 1.669 2.247 2.68 3.068 1.283.965 2.686 1.638 4.552 2.178.824.255 1.497-.217 2.15-.674.31-.218.635-.423.969-.566-.484.87-.86 1.941-.86 2.979 0 .786.212 1.548.753 2.17.607.654 1.477.982 2.246 1.237.455.084.887.075 1.344.063l.862.005c.96-.06 1.954-.573 2.541-1.307 1.706-2.526 2.565-5.216 2.565-8.016 0-.323-.012-.65-.035-.974l.096-.214.064-.136.78.702c.833.653.873.738 1.343 1.777l.95 2.002c.24.469.351 1.15.351 1.979 0 3.755-2.315 10.512-5.575 14.121-.725.803-1.082 1.38-1.082 1.745a.41.41 0 0 0 .069.24c.381.549 2.183-.143 2.387-.225l.025-.009.015-.024c.046-.073 4.591-7.281 6.048-13.023.24-.944.389-2.01.389-3.107 0-2.253-.62-4.643-2.337-6.403l-.353-.294a2.83 2.83 0 0 0-.487-.389c.04-.08.114-.236.154-.32.85.223 1.633.569 2.39.907.91.406 1.768.79 2.743.975.343.086.587.226.822.364.356.207.691.4 1.318.374l.97-.103c.436-.064.723-.107 1.024.03.109.05.257.024.45-.081.836-.455 2.36-2.32 2.486-3.208.005-.05.005-.109.005-.172 0-.755-.286-2.363-1.14-3.022-.428-.335-1.311-.782-2.09-1.174-.62-.312-1.371-.694-1.51-.847 2.29-1.243 4.353-.286 4.375-.277 2.145 1.382 2.843 1.83 3.09 1.954.011.008.004.026.017.031l.013-.017c.095.045.113.034.13.012l.049-.076-.099-.065c-.078-.05.08-.382.218-.675.326-.686.817-1.72.599-2.922" fill="#00A551" fill-rule="nonzero"/><path d="M77.263 36.013c-.588-1.76-2.12-3.004-3.905-3.17-1.538-.197-2.657-.1-4.074.027l-.96.081c-.236 0-1.278.418-2.727 1.008-.343.14-.67.273-.95.384.792-.652 2.051-1.964 3.119-3.198 1.232-1.38 2.634-3.11 2.873-3.81.18-.508.631-3.551.655-3.872a10.753 10.753 0 0 0-.147-2.145l-.11-1.002c-.067-2.229-.476-4.231-.48-4.253l-.04-.19-.115.157c-.008.011-.736 1.017-.924 1.227-.192.191-3.174 2.256-4.85 3.248a11.789 11.789 0 0 0-4.242 4.304l-.094.158c-.246.404-.529 1.03-.8 1.635-.255.565-.495 1.101-.671 1.37-.247.365-.542 1.178-.756 1.774a6.045 6.045 0 0 1-.22.563c-.174.185-.244.567-.311.934a2.83 2.83 0 0 1-.142.551 1.24 1.24 0 0 1-.083-.19c-.007-.03-.235-.792-1.672-3.453-1.33-2.478-1.534-2.462-4.02-2.242l-.934.077c-2.746.201-4.781 1.617-5.874 2.377l-.503.34c-.567.347-1.674 1.908-2.954 3.716l-1.449 2.022.194-.02c.339-.04.655.007.992.056.351.05.717.093 1.104.038-.022.105-.045.21-.045.315 0 .528.275 1.052.784 1.453.635.635 1.249 1.01 2.042 1.248.1.004.158.136.212.268.06.14.123.288.24.368l.045.032.057-.027c.1-.055.143-.287.208-2.514.014-.442.027-.902.039-.958.478-1.513 1.66-2.476 3.235-2.636.585-.063 2.26.148 2.504 1.379.008.021.333.75.527.947.002.01.546 1.568.546 1.568.334.994.599 1.778 1.186 2.998.079.145.088.298.096.457l.026.255c.026.13.039.267.039.408 0 .494-.154 1.053-.442 1.591-.236.411-.738 1.024-1.109 1.103-.96.182-1.205.023-1.794-.361l-.547-.342c-.397-.233-.776-1.941-.89-2.578.134-1.304.32-3.553.1-3.731-.133-.118-.386.078-1.925 1.506-.932.867-2.093 1.944-3.05 2.667-1.369 1.02-2.048 2.295-2.544 3.227-.216.405-.403.754-.585.957-.259.276-.16.647-.065 1.005l.086.365c.168.855.688 1.497 1.194 2.12l.101.127c.34.469 1.354 1.697 1.364 1.71.025.021 1.725 1.625 3.108.442 1.95-.63 2.877-1.223 2.914-1.249.693-.342 1.452-.692 1.826-.832-.627.608-1.884 2.252-2.322 3.589-.437 1.372-1.343 3.565-1.575 4.031l-.238.464c-.457.9-1.528 3.007-1.804 3.301-.349.347-.485.587-.246.93.05.074.107.112.172.118.118.01.217-.088.341-.21.118-.117.264-.26.46-.355.28-.146 1.816-1.568 3.44-3.072 1.294-1.2 2.633-2.44 3.069-2.775.896-.699 1.574-1.377 2.432-2.235l.239-.238 2.591-2.633c.277.175 1.705 1.045 2.818 1.4.805.158 1.755.278 2.755 0 1.782-.527 4.484-2.499 6.436-4.06l.113-.09-.132-.057c-.361-.156-.775-.02-1.3.152-.653.21-1.465.476-2.528.296-1.541-.226-2.096-.445-2.501-.607l-.278-.104-.167-.052c-1.038-.323-2.112-.66-2.732-1.557a.126.126 0 0 1-.008-.05c0-.072.03-.174.064-.288l.064-.27c.142-.534.55-.897.942-1.247l.354-.328c.729-.884 1.414-1.454 2.161-1.8.622-.317 1.595-.716 2.72-.814l.68-.008c.738-.009 1.434-.021 2.157.095.541.07.685.643.824 1.196l.037.146c.019.364-.06.826-.216 1.245-.134.117-1.732.282-2.684.38-1.328.136-1.328.142-1.35.233l-.006.034.025.036c.372.572 1.608.825 2.312.925 1.974.276 4.663.092 5.565-.691 1.183-1.084 2.057-2.253 2.535-3.383.548-1.454.668-2.576.368-3.437" fill="#FD0" fill-rule="nonzero"/><path d="M26.625 48.478c-.128.004-3.232 1.586-5.453.676-1.665-.684-1.717-1.713-1.803-2.27-.057-.373.244-.85.672-1.283-.695.52-1.316 1.25-1.235 1.773.084.556.136 1.587 1.802 2.27 1.707.697 3.935-.074 4.932-.471.472-.454 1.168-.698 1.085-.695m2.322 3.415c-.57.132-1.407.26-1.785.19-1.102-.209-1.943-.966-2.032-2.009-.023-.278.086-.522.256-.731-.418.27-.864.683-.819 1.222.088 1.04.93 1.8 2.032 2.005.07.014.125.028.172.043l.334-.145s.733-.23 1.842-.575" fill="#231F20" fill-rule="nonzero"/><path d="m6.57 75.74 3.42-.214c.074.555.224.977.45 1.268.37.47.901.705 1.588.705.512 0 .908-.12 1.185-.361.278-.24.417-.519.417-.836 0-.3-.132-.57-.396-.809-.265-.236-.879-.462-1.841-.673-1.576-.354-2.7-.824-3.372-1.41-.675-.587-1.014-1.335-1.014-2.244 0-.597.173-1.16.52-1.693.345-.53.867-.948 1.562-1.251.695-.305 1.649-.456 2.86-.456 1.485 0 2.618.276 3.398.829.781.552 1.244 1.43 1.393 2.635l-3.387.198c-.09-.523-.28-.904-.568-1.142-.288-.238-.686-.356-1.193-.356-.417 0-.733.088-.945.265a.813.813 0 0 0-.316.646c0 .185.086.351.261.5.17.153.571.296 1.206.428 1.57.338 2.696.68 3.376 1.026.678.346 1.174.775 1.483 1.289.31.512.464 1.085.464 1.718a3.686 3.686 0 0 1-.62 2.063c-.412.627-.988 1.104-1.728 1.43-.74.324-1.675.487-2.8.487-1.979 0-3.347-.38-4.108-1.142-.762-.76-1.194-1.728-1.294-2.9m18.426.547 3.07.348a4.29 4.29 0 0 1-.833 1.662 3.87 3.87 0 0 1-1.48 1.089c-.6.258-1.362.388-2.288.388-.893 0-1.638-.083-2.233-.25a3.892 3.892 0 0 1-1.534-.806 4.093 4.093 0 0 1-1.009-1.312c-.242-.502-.364-1.167-.364-1.995 0-.865.148-1.587.445-2.162.223-.43.524-.816.888-1.137.375-.335.76-.584 1.158-.747.628-.259 1.435-.388 2.42-.388 1.375 0 2.423.244 3.145.736.72.492 1.227 1.21 1.518 2.156l-3.038.405c-.095-.36-.268-.63-.52-.813-.25-.183-.588-.274-1.01-.274-.534 0-.967.191-1.298.575-.33.382-.495.96-.495 1.735 0 .691.163 1.216.492 1.575.327.359.745.538 1.252.538.423 0 .78-.108 1.068-.324.289-.217.503-.55.646-1m7.393-.895c0 .752.15 1.306.455 1.664.304.36.687.54 1.147.54.444.01.867-.186 1.147-.532.298-.353.447-.921.447-1.704 0-.73-.15-1.272-.452-1.629-.3-.357-.675-.534-1.118-.534-.471 0-.86.181-1.166.543-.307.361-.46.912-.46 1.652m-3.237.008c0-1.284.434-2.342 1.3-3.175.868-.83 2.04-1.249 3.515-1.249 1.687 0 2.96.49 3.823 1.468.693.786 1.04 1.756 1.04 2.908 0 1.294-.43 2.356-1.29 3.183-.859.826-2.048 1.24-3.565 1.24-1.354 0-2.449-.343-3.284-1.03-1.027-.851-1.539-1.967-1.539-3.345m20.108 4.185h-3.015v-1.363c-.45.56-.902.958-1.36 1.196-.456.238-1.019.357-1.685.357-.888 0-1.586-.266-2.091-.796-.504-.532-.757-1.35-.757-2.454v-5.358h3.244v4.63c0 .528.098.904.294 1.126.196.22.471.33.824.33.387 0 .704-.146.949-.442.246-.295.369-.826.369-1.593v-4.05h3.228v8.417Zm5.854-11.62v3.202h1.777v2.361h-1.777v2.984c0 .358.036.595.103.711.106.18.29.269.556.269.237 0 .57-.068.999-.205l.238 2.227a10.54 10.54 0 0 1-2.238.26c-.802 0-1.395-.102-1.776-.307a1.885 1.885 0 0 1-.845-.938c-.182-.42-.273-1.1-.273-2.039v-2.962h-1.19v-2.36h1.19V69.62l3.236-1.657Z" fill="#EC1C24" fill-rule="nonzero"/><g transform="translate(5 8)"><mask id="d" fill="#fff"><use xlink:href="#c"/></mask><path d="M53.55 71.584h3.228v-8.418h-3.229v8.418Zm0-9.425h3.228v-2.195h-3.229v2.195Zm5.29 1.007h3.007v1.372c.448-.56.904-.96 1.364-1.201.46-.24 1.02-.36 1.681-.36.895 0 1.593.265 2.098.795.506.532.759 1.352.759 2.462v5.35h-3.245v-4.628c0-.529-.097-.902-.294-1.122-.195-.219-.47-.329-.824-.329-.392 0-.709.148-.952.444-.244.296-.365.827-.365 1.593v4.043H58.84v-8.419ZM72.5 67.25c0 .607.13 1.057.388 1.35.259.293.6.44 1.025.44.387.006.758-.16 1.01-.455.272-.304.409-.762.409-1.375s-.143-1.082-.428-1.407c-.287-.326-.636-.487-1.048-.487-.413 0-.742.148-.988.448-.246.298-.369.793-.369 1.486Zm3.038-4.082h3.022v7.949l.007.374c0 .527-.112 1.03-.336 1.51a3.179 3.179 0 0 1-.896 1.16c-.374.295-.846.51-1.42.642-.575.132-1.231.197-1.972.197-1.692 0-2.854-.253-3.486-.76-.63-.507-.948-1.187-.948-2.037 0-.106.005-.248.015-.427l3.134.356c.08.29.201.49.365.603.238.163.538.245.897.245.464 0 .812-.124 1.042-.374.23-.247.345-.68.345-1.299V70.03c-.316.375-.633.648-.951.817-.496.263-1.049.4-1.61.396-1.125 0-2.035-.492-2.73-1.475-.492-.697-.737-1.618-.737-2.766 0-1.31.317-2.307.951-2.995.635-.687 1.465-1.031 2.492-1.031.655 0 1.196.11 1.621.334.427.222.825.588 1.194 1.1v-1.242h.001Z" fill="#EC1C24" fill-rule="nonzero" mask="url(#d)"/></g></g></svg>