<svg viewBox="0 0 90 90" xmlns="http://www.w3.org/2000/svg"><defs><linearGradient x1="49.382%" y1="14.922%" x2="49.382%" y2="72.151%" id="a"><stop stop-color="#22252A" offset="0%"/><stop stop-color="#5A6373" offset="100%"/></linearGradient><linearGradient x1="48.32%" y1="6004.143%" x2="48.32%" y2="6905.508%" id="b"><stop stop-color="#22252A" offset="0%"/><stop stop-color="#5A6373" offset="100%"/></linearGradient><linearGradient x1="2.595%" y1="91.871%" x2="202.448%" y2="-23.644%" id="c"><stop stop-color="#3882BE" offset="0%"/><stop stop-color="#56E0E3" offset="100%"/></linearGradient><linearGradient x1="-49.748%" y1="92.822%" x2="155.833%" y2="-24.061%" id="d"><stop stop-color="#3578BC" offset="0%"/><stop stop-color="#4FCDD0" offset="100%"/></linearGradient><linearGradient x1="2812.215%" y1="-1984.551%" x2="6659.952%" y2="-4844.121%" id="e"><stop stop-color="#3882BE" offset="0%"/><stop stop-color="#56E0E3" offset="100%"/></linearGradient><linearGradient x1="2799.912%" y1="-1977.717%" x2="6773.775%" y2="-4882.782%" id="f"><stop stop-color="#3578BC" offset="0%"/><stop stop-color="#4FCDD0" offset="100%"/></linearGradient><linearGradient x1="2811.542%" y1="-1984.321%" x2="6659.269%" y2="-4843.89%" id="g"><stop stop-color="#3882BE" offset="0%"/><stop stop-color="#56E0E3" offset="100%"/></linearGradient><linearGradient x1="2837.692%" y1="-1153.463%" x2="11364.722%" y2="-4868.197%" id="h"><stop stop-color="#3882BE" offset="0%"/><stop stop-color="#56E0E3" offset="100%"/></linearGradient><linearGradient x1="2798.858%" y1="-1978.532%" x2="6772.857%" y2="-4884.875%" id="i"><stop stop-color="#3578BC" offset="0%"/><stop stop-color="#4FCDD0" offset="100%"/></linearGradient><linearGradient x1="2812.743%" y1="-1984.431%" x2="6660.427%" y2="-4843.999%" id="j"><stop stop-color="#3882BE" offset="0%"/><stop stop-color="#56E0E3" offset="100%"/></linearGradient><linearGradient x1="2827.106%" y1="-2020.735%" x2="6843.053%" y2="-4988.553%" id="k"><stop stop-color="#3578BC" offset="0%"/><stop stop-color="#4FCDD0" offset="100%"/></linearGradient><linearGradient x1="2812.641%" y1="-1984.599%" x2="6660.367%" y2="-4844.167%" id="l"><stop stop-color="#3882BE" offset="0%"/><stop stop-color="#56E0E3" offset="100%"/></linearGradient><linearGradient x1="2799.477%" y1="-1977.903%" x2="6773.34%" y2="-4882.971%" id="m"><stop stop-color="#3578BC" offset="0%"/><stop stop-color="#4FCDD0" offset="100%"/></linearGradient><linearGradient x1="2836.646%" y1="-1152.866%" x2="11362.017%" y2="-4865.466%" id="n"><stop stop-color="#3882BE" offset="0%"/><stop stop-color="#56E0E3" offset="100%"/></linearGradient><linearGradient x1="2824.761%" y1="-1169.721%" x2="11353.456%" y2="-4884.276%" id="o"><stop stop-color="#3578BC" offset="0%"/><stop stop-color="#4FCDD0" offset="100%"/></linearGradient><linearGradient x1="2837.497%" y1="-1152.498%" x2="11364.859%" y2="-4864.17%" id="p"><stop stop-color="#3882BE" offset="0%"/><stop stop-color="#56E0E3" offset="100%"/></linearGradient><linearGradient x1="2824.989%" y1="-1169.016%" x2="11352.408%" y2="-4880.688%" id="q"><stop stop-color="#3578BC" offset="0%"/><stop stop-color="#4FCDD0" offset="100%"/></linearGradient><linearGradient x1="2837.521%" y1="-1152.469%" x2="11364.912%" y2="-4864.137%" id="r"><stop stop-color="#3882BE" offset="0%"/><stop stop-color="#56E0E3" offset="100%"/></linearGradient><linearGradient x1="2824.974%" y1="-1168.984%" x2="11352.327%" y2="-4880.652%" id="s"><stop stop-color="#3578BC" offset="0%"/><stop stop-color="#4FCDD0" offset="100%"/></linearGradient><linearGradient x1="2836.64%" y1="-1152.218%" x2="11364.736%" y2="-4864.703%" id="t"><stop stop-color="#3882BE" offset="0%"/><stop stop-color="#56E0E3" offset="100%"/></linearGradient><linearGradient x1="2797.492%" y1="-1145.853%" x2="11245.19%" y2="-4788.622%" id="u"><stop stop-color="#3578BC" offset="0%"/><stop stop-color="#4FCDD0" offset="100%"/></linearGradient><linearGradient x1="2810.683%" y1="-1115.579%" x2="11255.643%" y2="-4713.497%" id="v"><stop stop-color="#3882BE" offset="0%"/><stop stop-color="#56E0E3" offset="100%"/></linearGradient><linearGradient x1="2800.281%" y1="-1161.788%" x2="11248.526%" y2="-4853.886%" id="w"><stop stop-color="#3578BC" offset="0%"/><stop stop-color="#4FCDD0" offset="100%"/></linearGradient><linearGradient x1="2797.726%" y1="-1160.847%" x2="11243.387%" y2="-4849.515%" id="x"><stop stop-color="#3578BC" offset="0%"/><stop stop-color="#4FCDD0" offset="100%"/></linearGradient><linearGradient x1="2751.183%" y1="-1137.803%" x2="11051.768%" y2="-4820.434%" id="y"><stop stop-color="#3882BE" offset="0%"/><stop stop-color="#56E0E3" offset="100%"/></linearGradient><linearGradient x1="2795.772%" y1="-1160.166%" x2="11240.392%" y2="-4848.772%" id="z"><stop stop-color="#3578BC" offset="0%"/><stop stop-color="#4FCDD0" offset="100%"/></linearGradient><linearGradient x1="2879.464%" y1="-1196.185%" x2="11202.728%" y2="-4828.803%" id="A"><stop stop-color="#3578BC" offset="0%"/><stop stop-color="#4FCDD0" offset="100%"/></linearGradient><linearGradient x1="50.092%" y1="100.72%" x2="50.092%" y2="28.288%" id="B"><stop stop-color="#22252A" offset="0%"/><stop stop-color="#23262B" stop-opacity="0" offset="100%"/></linearGradient><linearGradient x1="50.147%" y1="3654.959%" x2="50.147%" y2="1982.596%" id="C"><stop stop-color="#22252A" offset="0%"/><stop stop-color="#23262B" stop-opacity="0" offset="100%"/></linearGradient></defs><g fill="none"><path fill="#3478BC" d="M63.038 44.715H26.962l-8.924-13.857L26.962 17h36.076l8.924 13.858z"/><path fill="#3478BC" d="M75 63.319H15L0 40.159l5.127-7.593H15l10.063 15.376h39.874L75 32.566h9.873l4.937 7.593z"/><path fill="url(#a)" d="m19.177 55.81 6.836-10.63-1.9-1.33-7.594 11.77h2.658z" transform="translate(0 17)"/><path fill="url(#b)" d="m73.67 55.81-7.594-11.77-1.899 1.33L71.013 56h2.658z" transform="translate(0 17)"/><path fill="url(#c)" d="m26.962 0-8.924 13.858h18.038z" transform="translate(0 17)"/><path fill="url(#d)" d="M36.076 13.858 45 0H26.962z" transform="translate(0 17)"/><path fill="url(#e)" d="m45 0-8.924 13.858h18.038z" transform="translate(0 17)"/><path fill="url(#f)" d="M53.924 13.858 62.848 0H44.81z" transform="translate(0 17)"/><path fill="url(#g)" d="m63.038 0-8.924 13.858h18.038z" transform="translate(0 17)"/><path fill="url(#h)" d="M15 15.566 4.937 30.942h19.936z" transform="translate(0 17)"/><path fill="url(#i)" d="m26.962 27.715 9.114-13.857H18.038z" transform="translate(0 17)"/><path fill="url(#j)" d="m36.076 13.858-9.114 13.857H45z" transform="translate(0 17)"/><path fill="url(#k)" d="m45 27.715 8.924-13.857H36.076z" transform="translate(0 17)"/><path fill="url(#l)" d="M53.924 13.858 45 27.715h18.038z" transform="translate(0 17)"/><path fill="url(#m)" d="m63.038 27.715 8.924-13.857H53.924z" transform="translate(0 17)"/><path fill="url(#n)" d="M75 15.566 64.937 30.942h19.936z" transform="translate(0 17)"/><path fill="url(#o)" d="m15 46.319 10.063-15.377H5.127z" transform="translate(0 17)"/><path fill="url(#p)" d="M25.063 30.942 15 46.32h19.937z" transform="translate(0 17)"/><path fill="url(#q)" d="M34.937 46.319 45 30.942H25.063z" transform="translate(0 17)"/><path fill="url(#r)" d="M45 30.942 34.937 46.32h19.936z" transform="translate(0 17)"/><path fill="url(#s)" d="m54.873 46.319 10.064-15.377H45z" transform="translate(0 17)"/><path fill="url(#t)" d="M64.937 30.942 54.873 46.32H74.81z" transform="translate(0 17)"/><path fill="url(#u)" d="m75 46.319 10.063-15.377H64.937z" transform="translate(0 17)"/><path fill="url(#v)" d="M5.127 15.566 0 23.16h10.063z" transform="translate(0 17)"/><path fill="url(#w)" d="M10.063 23.16 15 15.375H4.937z" transform="translate(0 17)"/><path fill="url(#x)" d="m5.127 30.942 4.936-7.783H0z" transform="translate(0 17)"/><path fill="url(#y)" d="m84.873 15.566 4.937 7.783H79.747z" transform="translate(0 17)"/><path fill="url(#z)" d="M79.937 23.16 75 15.375h10.063z" transform="translate(0 17)"/><path fill="url(#A)" d="m84.873 30.942-4.936-7.783H90z" transform="translate(0 17)"/><path fill="url(#B)" opacity=".25" d="m89.81 23.16-4.937 7.782L74.81 46.32H15L4.937 30.942 0 23.16l4.937-7.783H15l9.873 15.377h39.874L74.81 15.376h10.063z" transform="translate(0 17)"/><path fill="url(#C)" d="m26.962 27.715-8.924-13.857L26.962 0h35.886l8.924 13.858-8.734 13.857z" transform="translate(0 17)"/></g></svg>