<svg xmlns="http://www.w3.org/2000/svg" viewBox="0 0 90 90"><path fill="#010214" d="M0 0h90v90H0z"/><path fill="url(#a)" d="m32.64 55.41-7.94-4.58a3.4 3.4 0 0 1-1.7-2.95v-9.5a11.15 11.15 0 0 1 5.6-9.69l22.84-13.2a3.74 3.74 0 0 1 3.73 0l11.34 6.56a3.72 3.72 0 0 0-3.73 0l-22.84 13.2a11.15 11.15 0 0 0-5.6 9.69v9.5a1.13 1.13 0 0 1-1.7.97m32.9-31.67a1.76 1.76 0 0 0-1.79 0l-8.66 5 9.64 5.57a1.13 1.13 0 0 0 1.7-.98v-8.05a1.8 1.8 0 0 0-.9-1.54Zm-7.06 13.45 6.33 3.65a3.22 3.22 0 0 1 1.62 2.81v8.47a9.27 9.27 0 0 1-4.62 8l-22.85 13.2a1.78 1.78 0 0 1-2.67-1.55v-8.14c0-.55-.14-1.1-.44-1.62l14.61-8.44a9.25 9.25 0 0 0 4.63-8v-8.38a1.13 1.13 0 0 1 1.7-.98l1.69.98ZM34.34 64.76v7.01c0 1.3.67 2.54 1.87 3.23l-11.35-6.55A3.73 3.73 0 0 1 23 65.22V58.3a1.13 1.13 0 0 1 1.7-.98l8.02 4.63a3.22 3.22 0 0 1 1.62 2.8Z"/><defs><linearGradient id="a" x1="38.62" x2="66.37" y1="30.16" y2="34.05" gradientUnits="userSpaceOnUse"><stop stop-color="#972EFF"/><stop offset="1" stop-color="#3153FC"/></linearGradient></defs></svg>