<svg viewBox="0 0 90 90" xmlns="http://www.w3.org/2000/svg"><g fill="none"><path fill="#272726" d="M0 0h90v90H0z"/><path d="M69.14 13.033c-.33 2.676-1.49 5.455-2.918 6.984-.617.66-1.675 1.467-1.932 1.467-.092 0-.884-.341-1.747-.765-4.438-2.149-8.434-3.306-13.397-3.895-1.49-.185-6.133-.185-7.603-.01-3.986.486-7.089 1.27-10.715 2.717-2.199.878-4.367 2.056-6.596 3.585-1.737 1.188-2.569 1.88-4.274 3.553-.791.786-1.51 1.426-1.593 1.426-.277 0-1.582-.692-2.404-1.291-1.48-1.064-3.257-2.975-4.418-4.752-.328-.517-.719-1.106-.863-1.333l-.256-.392-.206 1.787c-.247 2.19-.298 7.231-.082 8.977.329 2.696 1.048 6.064 1.623 7.624l.267.744-.37 1.27c-.441 1.519-.637 2.655-.78 4.515-.422 5.681.513 10.65 2.938 15.526 2.918 5.858 8.394 11.25 14.712 14.463 3.658 1.86 8.322 3.223 12.298 3.585 3.473.31 8.61.216 11.199-.217 11.034-1.84 20.877-8.988 25.223-18.327 1.839-3.946 2.63-7.303 2.743-11.652.092-3.647-.38-6.88-1.46-9.918-.996-2.81-1.674-4.204-3.277-6.683l-.832-1.281-.072-2.18c-.154-5.031-1.12-9.308-2.969-13.12-.647-1.343-1.85-3.378-2.024-3.44-.051-.01-.144.455-.216 1.033Z" fill="#56903F"/><path d="M52.742 24.882c5.301.858 10.048 2.924 14.23 6.199 1.982 1.55 4.448 4.287 5.64 6.24.514.836 1.438 2.685 1.798 3.584.657 1.632 1.315 4.504 1.49 6.56.575 6.55-.966 11.828-4.89 16.735-1.542 1.932-4.059 4.225-6.093 5.558-4.829 3.14-9.627 4.628-15.411 4.793-6.925.186-13.767-1.818-18.648-5.465-1.52-1.146-4.366-4.008-5.589-5.63-2.548-3.409-3.986-6.921-4.479-10.93-.72-5.847 1.038-12.065 4.808-17.096.904-1.209 3.072-3.41 4.387-4.463 4.058-3.244 8.076-5.093 12.987-5.971 1.941-.351 2.712-.403 5.66-.362 2.179.031 3.062.083 4.11.248Z" fill="#272726"/><path d="M66.201 38.601c-1.377 1.002-4.808 3.306-5.753 3.874-.34.196-.792.393-1.018.424-.482.072-.544.134-.4.361.082.124.226.165.524.145.41-.02.41-.02.585.516.257.806.586 1.323 1.264 2.004.822.837 1.295 1.137 2.065 1.343 1.377.352 2.671-.02 3.853-1.105.698-.64 1.038-1.219 1.264-2.149.154-.65.154-.847.04-1.642-.153-1.095-.523-2.077-1.047-2.759-.535-.712-.586-.98-.257-1.343.257-.278.35-.568.195-.568-.051 0-.637.414-1.315.9Zm-31.593 2.314c0 .062.103.196.227.3.267.206.267.33.133 2.427-.246 3.947 1.12 6.984 3.843 8.564 1.86 1.075 3.74 1.157 5.65.238 1.644-.796 3.01-2.934 3.4-5.341.227-1.426.258-1.508.782-1.766.76-.362 1.15-1.26.616-1.395-.133-.031-.555.02-.945.114-1.582.402-3.134.062-11.034-2.449-2.528-.806-2.672-.847-2.672-.692Z" fill="#56903F"/></g></svg>