<svg viewBox="0 0 90 90" xmlns="http://www.w3.org/2000/svg"><defs><linearGradient x1="49.849%" y1="-.109%" x2="49.849%" y2="99.995%" id="a"><stop stop-color="#FAD956" offset="0%"/><stop stop-color="#FFA10F" offset="100%"/></linearGradient></defs><path d="M0 25.359c0-1.08.64-2.057 1.628-2.485a2.685 2.685 0 0 1 2.916.518v-.722c0-4.982 4.02-9.02 8.98-9.02a8.945 8.945 0 0 1 3.592.775v-.758C17.08 6.154 23.116.035 30.595 0c7.479-.035 13.57 6.028 13.605 13.541a21.414 21.414 0 0 0-5.586 7.848 15.707 15.707 0 0 0-12.795-1.793 15.789 15.789 0 0 0-9.835 8.415H2.73A2.718 2.718 0 0 1 0 25.359Zm71.32-8.137a18.44 18.44 0 0 0-18.92-4.499c-6.646 2.219-11.475 8.018-12.475 14.981-3.65-5.944-11.406-7.79-17.322-4.122-5.917 3.666-7.754 11.457-4.104 17.401-4.234.594-7.465 4.103-7.723 8.39 0 4.763 4.436 8.624 9.932 8.624a10.741 10.741 0 0 0 6.448-1.967l20.33-20.117A12.529 12.529 0 0 1 61 33.495a12.63 12.63 0 0 1 7.662 11.44 5.689 5.689 0 0 1-2.873 5.196 5.37 5.37 0 0 1-5.391-.002 5.42 5.42 0 0 1-2.694-4.691 5.42 5.42 0 0 1 2.697-4.69 6.053 6.053 0 0 1 1.957-.721 8.78 8.78 0 0 0-1.796-.18c-4.99 0-9.034 4.063-9.034 9.075s4.045 9.075 9.034 9.075h18.607c6.254-.279 11.098-5.598 10.82-11.88-.277-6.283-5.572-11.15-11.826-10.871a13.366 13.366 0 0 1-3.592 4.005c3.98-7.237 2.689-16.25-3.161-22.065l-.09.036Z" transform="translate(0 16)" fill="url(#a)"/></svg>