<svg viewBox="0 0 90 90" xmlns="http://www.w3.org/2000/svg"><path d="M42.168 85.5c-.976-3.8-1.925-7.541-2.843-11.193 1.005-.505 1.838-.891 2.928-1.457 4.536-1.987 8.93-4.304 13.007-7.185 5.11-3.593 9.878-7.63 14.04-12.381 3.273-3.71 5.971-7.838 7.522-12.678 1.034-3.206 1.55-6.502 1.092-9.887-.374-2.822-1.38-5.375-2.93-7.72a19.17 19.17 0 0 0-7.235-6.533c-3.703-1.93-7.636-2.643-11.713-2.524-3.619.148-7.121.95-10.51 2.257-6.259 2.375-12 5.76-17.513 9.59-1.609 1.13-3.102 2.405-4.365 3.919-.689.832-1.234 1.753-1.464 2.852-.372 1.84.633 3.265 2.469 3.355 1.263.059 2.413-.446 3.532-.98 3.475-1.694 6.604-3.98 9.819-6.057 2.671-1.723 5.34-3.386 8.27-4.602 2.87-1.188 5.856-1.841 8.958-1.308 3.387.594 6.116 2.227 7.78 5.464 1.148 2.256 1.264 4.661.631 7.096-.689 2.791-2.24 5.047-4.105 7.096-2.526 2.852-5.456 5.226-8.7 7.185-3.387 2.05-6.747 4.158-10.22 6.059-4.078 2.197-8.385 3.771-12.806 5.106-3.703 1.098-7.464 1.603-11.312 1.247-3.215-.297-6.259-1.276-8.93-3.176-2.411-1.752-4.191-4.038-5.283-6.888C.622 47.76.709 43.279 1.77 38.765c1.207-5.107 3.705-9.5 6.776-13.6 2.355-3.147 5.082-5.908 7.983-8.432 4.104-3.593 8.498-6.83 13.177-9.56 1.58-.921 3.217-1.812 4.71-2.673.515 1.129 1.034 2.197 1.55 3.296-1.407.773-2.784 1.513-4.134 2.286-5.858 3.355-11.199 7.424-15.965 12.292-2.582 2.643-4.794 5.613-6.43 8.967-1.752 3.504-2.67 7.245-2.268 11.224.459 4.335 2.41 7.69 6.287 9.68 2.297 1.187 4.766 1.544 7.322 1.484 3.503-.089 6.805-1.098 10.078-2.315 4.852-1.812 9.387-4.306 13.81-7.067 2.584-1.603 5.167-3.267 7.35-5.434 1.148-1.157 2.297-2.317 2.9-3.949 1.062-2.85-.43-5.315-3.388-5.612-1.608-.149-3.072.386-4.48 1.07-3.761 1.81-7.148 4.274-10.65 6.502-2.672 1.723-5.4 3.385-8.327 4.573-2.04.83-4.164 1.336-6.375 1.068-3.79-.446-6.172-3.562-5.77-7.482.315-3.089 1.78-5.611 3.731-7.87 2.184-2.493 4.71-4.542 7.438-6.322 4.19-2.763 8.411-5.405 12.976-7.513 5.254-2.435 10.653-4.366 16.453-4.899 4.191-.386 8.326-.148 12.43.95 3.62.979 6.95 2.553 9.936 4.84 2.986 2.287 5.37 5.106 7.177 8.432 1.637 3.03 2.555 6.266 2.843 9.71a28.879 28.879 0 0 1-1.148 10.63c-.978 3.385-2.326 6.622-4.135 9.62a57.749 57.749 0 0 1-8.986 11.401c-3.532 3.475-7.092 6.888-11.112 9.74-5.225 3.741-10.681 7.035-16.566 9.56-1.58.742-3.13 1.426-4.795 2.138Z" fill="#6ABF4B" fill-rule="evenodd"/></svg>