<svg xmlns="http://www.w3.org/2000/svg" viewBox="0 0 90 90"><path fill="#FFF" d="M0 0h90v90H0z"/><g fill="#EB3500"><path d="m18.246 58.756 5.963-3.077a.385.385 0 0 1 .366.008L45.044 67.33a.384.384 0 0 0 .38 0l20.241-11.631a.382.382 0 0 1 .394.007l5.402 3.355c.246.152.24.51-.008.655L45.427 74.947a.383.383 0 0 1-.386.001L18.23 59.428a.382.382 0 0 1 .017-.672Z"/><path d="m18.208 44.671 5.994-3.373a.385.385 0 0 1 .382.003l20.034 11.736c.12.07.266.07.386 0L65.354 41.3a.383.383 0 0 0 .192-.332v-5.354a.384.384 0 0 0-.578-.33L45.427 46.791a.384.384 0 0 1-.387.001l-26.85-15.54a.383.383 0 0 1-.002-.662L44.62 15.053a.385.385 0 0 1 .383-.004l15.977 9.004c.25.14.262.495.023.652l-5.518 3.65a.383.383 0 0 1-.408.009l-10.066-6a.384.384 0 0 0-.4.003L31.38 30.59a.383.383 0 0 0 .006.654l13.232 7.923c.12.071.268.073.388.004L65.36 27.535a.384.384 0 0 1 .374-.004l6.065 3.282a.382.382 0 0 1 .201.337v13.632c0 .135-.07.26-.187.33L45.428 60.865a.384.384 0 0 1-.39.002l-26.833-15.53a.383.383 0 0 1 .004-.666Z"/></g></svg>