<svg viewBox="0 0 90 90" xmlns="http://www.w3.org/2000/svg"><g fill="none"><path fill="#FF5B49" d="M0 0h90v90H0z"/><path d="m47.582 43.411 1.296-3.717c2.22-.008 4.437-.025 6.655-.047l1.306 3.742c1.93-.008 3.884.027 5.811.016l-7.688-20.763c-.914.035-4.627.131-5.502.153l-5.806 16.139a868.559 868.559 0 0 1-7.03-.039V34.72l4.334.05v-3.764l-4.335-.063v-4.008c4.714.107 6.89.085 6.887.085l-.886-4.472s-5.639-.09-11.795-.346v21.182c1.22.005 7.315.024 11.213.032v.003c.71 0 1.384 0 2.05.003h.518c.972-.011 1.936-.011 2.972-.011Zm7.583-7.538c-1.655.02-3.314.036-4.972.047l2.495-5.793 2.477 5.746Zm9.848 7.527c1.927-.014 3.852.005 5.777-.011l.028-17.11c2.103-.165 4.204-.346 6.301-.552L76.225 21a264.863 264.863 0 0 1-16.605 1.427l-.897 4.582c2.097-.088 4.195-.195 6.29-.321V43.4ZM19.61 27.223c0-2.578 5.592-1.883 8.171-.387l.24-5.092c-.61-.187-3.078-.741-6.023-.741-4.165 0-7.8 2.426-7.8 6.283 0 6.877 9.525 7.352 9.525 10.11 0 3.63-6.316 1.612-9.525-1.383v5.8s2.362 2.163 7.056 2.163c5.173 0 7.8-3.321 7.8-6.9.003-6.973-9.443-7.003-9.443-9.853ZM80 70l-7.63-12.806 6.75-10.258h-6.513l-5.915 9.14c.023-3.04-.022-6.085 0-9.13-1.95-.005-3.83-.008-5.783-.01v21.348s3.82.23 5.783.382V58.8L72.4 69.135c2.85.288 5.438.585 7.6.865ZM36.634 59.198c1.44-.022 4.321-.052 4.321-.052v-3.802s-2.88.022-4.32.036v-4.022c4.039.003 6.877.025 6.877.025l-.894-4.414H30.84V68.16c2.713-.173 10.176-.34 12.711-.349l.895-4.488c-2.605 0-5.21.03-7.812.085v-4.211Zm15.054-.044c1.34.02 2.683.041 4.023.072v-3.797a651.72 651.72 0 0 0-4.023-.05v-3.99l6.915.043-.892-4.458s-7.878-.005-11.817-.005v20.846c4.012.002 8.385.129 12.686.346l.934-4.521c-2.268-.08-5.761-.193-7.823-.237-.003-1.419-.003-2.835-.003-4.249Zm-32.03.533 3.516-.17.003 4.414c-5.282.472-7.455-1.255-7.455-6.405 0-4.779 3.925-5.97 7.54-5.97 3.188 0 4.879.348 4.879.348l-.956-4.952c-.841-.041-2.331-.088-4.86-.088C16.48 46.864 10 49.62 10 58.342c0 7.34 5.092 11.073 11.552 10.475 4.55-.42 6.594-.51 6.594-.51V55.53l-7.596.167-.892 3.989Z" fill="#000"/></g></svg>