<svg viewBox="0 0 90 90" xmlns="http://www.w3.org/2000/svg"><path d="M55.077 25.442c7.28.03 12.72 1.992 16.32 5.888 3.6 3.895 5.096 9.504 4.488 16.826L74.24 67.29l-.052.545c-.715 7.045-3.157 12.452-7.318 16.278C62.6 88.037 56.813 90 49.55 90H14.538c-2.136 0-3.261-2.381-2.026-4.257l4.812-7.297c1.55-2.404 4.174-3.867 7-3.903h23.774c2.862 0 4.962-.639 6.308-1.896s2.147-3.373 2.407-6.373l1.473-17.156c.238-2.976-.173-5.113-1.322-6.37-1.149-1.257-3.143-1.899-5.981-1.899h-4.378a2.71 2.71 0 0 1-2.075-.902 2.81 2.81 0 0 1-.7-2.183l.807-9.387c.15-1.713.998-2.67 2.558-2.89v-.045ZM76.478 0c2.127 0 3.233 2.373 2.02 4.23l-4.766 7.21c-1.537 2.384-4.14 3.834-6.944 3.867H43.705c-2.838 0-4.939.645-6.27 1.893-1.331 1.248-2.127 3.347-2.384 6.32l-1.447 17.009c-.237 2.973.17 5.095 1.31 6.34 1.14 1.245 3.117 1.881 5.933 1.881h4.34a2.69 2.69 0 0 1 2.057.896c.527.585.78 1.374.695 2.163l-.808 9.31c-.15 1.687-.99 2.644-2.534 2.865v.041h-7.813c-7.201 0-12.596-1.946-16.184-5.837-3.567-3.86-5.05-9.421-4.448-16.682l1.635-18.975.051-.54c.709-6.99 3.128-12.348 7.256-16.142C29.327 1.958 35.065 0 42.264 0Z" fill="#00AF73"/></svg>