<svg viewBox="0 0 90 90" xmlns="http://www.w3.org/2000/svg"><g fill="none"><path fill="#00A9E0" d="M0 0h90v90H0z"/><path d="M61.418 25c7.418 0 13.806 3.54 13.806 10.622 0 4.998-4.122 7.914-8.655 8.747 5.358.624 9.685 4.165 9.685 9.788 0 5.832-3.71 8.54-7.444 9.789l-.467.148-.233.07-.464.127c-.077.02-.154.04-.23.058l-.459.108-.451.095c-.075.015-.15.03-.223.043l-.44.078-.64.098-.411.053-.59.064-.373.033-.355.026-.335.02-.605.024-.617.009-.705-.013-4.958.013-11-26.5V25h16.164Zm-23.84 0 16.158 40h-7.854l-4.134-9.845H25.365L21.233 65H13.75l16.78-40h7.047Zm25.688 24h-9.012v8h8.413c2.593 0 4.587-1.429 4.587-4 0-2.357-1.396-3.786-3.988-4ZM32.728 34.087l-5.782 14.539h11.25l-5.468-14.539ZM60.487 33h-6.233v8h5.8c3.033 0 5.2-1.23 5.2-4.103 0-2.256-1.95-3.897-4.767-3.897Z" fill="#FFF"/></g></svg>