<svg viewBox="0 0 90 90" xmlns="http://www.w3.org/2000/svg"><g fill="none"><path fill="#FFF" d="M0 0h90v90H0z"/><path d="M53.69 23.583a13.023 13.023 0 0 0-8.7-3.48 13.243 13.243 0 0 0-8.782 3.413l-.108.108 8.89 8.807 8.822-8.74-.122-.108" fill="#A80230"/><path d="M61.927 27.778a3.139 3.139 0 0 0-2.22-.927 3.14 3.14 0 0 0-2.225.913L42.258 42.762l-2.746 2.725 4.445 4.41 2.718-2.698L61.9 32.175a3.092 3.092 0 0 0 .014-4.397M24.912 60.026l4.432 4.41 8.183-8.12-4.418-4.396-8.183 8.106m42.398-24.75a3.139 3.139 0 0 0-2.216-.913c-.831 0-1.629.329-2.215.914l-7.858 7.782-.054.067-2.501 2.482 4.445 4.397 3.004-2.981 7.395-7.35a3.092 3.092 0 0 0 0-4.397m-27.69 22.982 4.431 4.397 6.376-6.326-4.445-4.397-6.362 6.326m-8.238 8.173 4.459 4.397 1.876-1.888-4.459-4.384-1.876 1.888m37.369-19.987a3.139 3.139 0 0 0-2.216-.914 3.14 3.14 0 0 0-2.216.914L55.81 54.9l-3.425 3.398 4.445 4.397 2.406-2.4.15-.136 9.379-9.306a3.092 3.092 0 0 0 0-4.396m-24.686-7.324-3.901-3.857-8.048-7.958a3.15 3.15 0 0 0-3.026-.804 3.121 3.121 0 0 0-2.216 2.198 3.092 3.092 0 0 0 .81 3.003l9.122 9.064.068.053 2.746 2.725 4.445-4.41m1.917 10.722 6.484 6.42 4.431-4.41-6.47-6.42-4.445 4.41M58.76 62.52l1.903 1.889 4.432-4.41-1.903-1.889-4.432 4.41M39.525 47.376 26.856 34.79a3.16 3.16 0 0 0-4.445 0 3.101 3.101 0 0 0 0 4.41l17.155 17.021 4.445-4.41-4.486-4.437m6.58 15.28 8.115 8.12 4.459-4.397-8.116-8.092-4.459 4.383M28.65 49.236l-3.113-3.102a3.151 3.151 0 0 0-4.431-.014 3.092 3.092 0 0 0-.014 4.397l2.624 2.63 3.126 3.102 4.432-4.41-2.624-2.603m4.568 13.352 6.457 6.393 4.445-4.41-6.457-6.393-4.445 4.41" fill="#211E1E"/><path d="M44.99 11C25.675 11.022 10.022 26.552 10 45.716c0 8.254 3.018 16.265 8.482 22.55a35.412 35.412 0 0 0 20.84 11.68l.04.027 11.065-10.965-4.445-4.41-8.605 8.537a29.218 29.218 0 0 1-14.137-8.942 28.18 28.18 0 0 1-6.96-18.477c.015-15.726 12.86-28.47 28.71-28.485 14.317.044 26.418 10.538 28.377 24.61 1.96 14.07-6.82 27.427-20.588 31.321l-2.393-2.36-4.431 4.397 4.649 4.64.027.161A34.774 34.774 0 0 0 71.58 68.36c8.892-10.304 10.93-24.801 5.216-37.126C71.082 18.909 58.663 11.008 44.99 11" fill="#211E1E"/></g></svg>