<svg viewBox="0 0 90 90" xmlns="http://www.w3.org/2000/svg"><g fill="none"><path fill="#FFF" d="M0 0h90v90H0z"/><path d="M77.21 40.375H40.464c-1.395 0-2.558-1.156-2.558-2.544v-4.393c0-1.388 1.163-2.544 2.558-2.544h36.977c1.395 0 2.558 1.156 2.558 2.544v4.393c-.233 1.388-1.395 2.544-2.79 2.544Zm-27.908 18.5H12.558c-1.395 0-2.558-1.156-2.558-2.544v-4.394c0-1.387 1.163-2.543 2.558-2.543h36.977c1.395 0 2.558 1.156 2.558 2.543v4.394c-.233 1.388-1.395 2.544-2.79 2.544ZM23.953 75.062c2.57 0 4.652-2.07 4.652-4.625 0-2.554-2.083-4.625-4.652-4.625-2.568 0-4.65 2.071-4.65 4.625 0 2.555 2.082 4.625 4.65 4.625Zm41.861-50.874c2.569 0 4.651-2.071 4.651-4.625 0-2.555-2.082-4.626-4.651-4.626s-4.651 2.071-4.651 4.626c0 2.554 2.082 4.625 4.65 4.625ZM44.884 72.75c-2.558 0-5.117-.463-7.442-1.156-1.163-.231-2.326.231-2.79 1.387l-1.629 4.394c-.465 1.156.233 2.544 1.628 3.006C37.907 81.537 41.395 82 44.884 82 60 82 73.024 72.981 78.837 60.031c.465-1.156 0-2.775-1.395-3.237l-4.419-1.619c-1.162-.463-2.325 0-2.79 1.156-4.42 9.713-13.954 16.419-25.35 16.419Zm0-55.5c2.558 0 5.116.463 7.441 1.156 1.163.232 2.326-.231 2.791-1.387l1.628-4.394c.465-1.156-.232-2.544-1.628-3.006C51.861 8.462 48.372 8 44.884 8c-15.117 0-28.14 9.019-33.954 21.969-.465 1.156 0 2.775 1.396 3.237l4.418 1.619c1.163.463 2.326 0 2.79-1.156 4.42-9.713 13.954-16.419 25.35-16.419Z" fill="#25C365"/></g></svg>