<svg viewBox="0 0 90 90" xmlns="http://www.w3.org/2000/svg"><g fill="none" fill-rule="evenodd"><path fill="#5D4FF2" fill-rule="nonzero" d="M0 0h90v90H0z"/><path d="M45.007 15A30 30 0 1 0 75 45a30.03 30.03 0 0 0-29.993-30Zm0 54.49A24.497 24.497 0 1 1 69.504 45a24.519 24.519 0 0 1-24.497 24.51v-.022ZM43.49 33.656A13.333 13.333 0 1 1 58.305 55.83 13.333 13.333 0 0 1 43.49 33.657Zm3.064 17.588a7.818 7.818 0 0 0 4.343 1.317 7.826 7.826 0 0 0 7.82-7.818 7.82 7.82 0 1 0-12.163 6.5Zm-17.708-17.27h5.897v21.794h-5.897V33.974Z" fill="#F5F5FA"/></g></svg>