<svg viewBox="0 0 90 90" xmlns="http://www.w3.org/2000/svg"><g fill="none"><path d="M73.189 33.858c-6.099-15.372-23.491-22.832-38.85-16.729-5.647 2.26-10.617 6.33-14.005 11.303C7.685 30.692-.898 42.674 1.361 55.56 3.394 66.862 13.106 75 24.401 75h43.593c11.52 0 20.78-9.268 21.006-20.797 0-9.72-6.55-18.085-15.811-20.345Z" fill="#FFF"/><path d="M24.4 33.18c-10.164 0-18.296 8.137-18.296 18.31 0 10.173 8.132 18.31 18.296 18.31h24.62s6.55.227 8.81-4.294c3.84-7.686-12.198-32.327-33.43-32.327Z" fill="#03F"/><path d="M70.252 44.934a24.785 24.785 0 0 0-24.846-24.866A24.785 24.785 0 0 0 20.56 44.934a24.785 24.785 0 0 0 24.846 24.867H65.51c-.226 0 4.743-18.311 4.743-24.867Z" fill="#06F"/><path d="M67.994 38.153c8.809 0 15.81 7.007 15.81 15.824 0 8.816-7.001 15.824-15.81 15.824H46.762s-5.647 0-7.454-3.617c-3.614-6.556 10.39-28.031 28.686-28.031Z" fill="#09F"/></g></svg>