<svg viewBox="0 0 90 90" xmlns="http://www.w3.org/2000/svg"><g fill="none"><path fill="#252525" d="M0 0h90v90H0z"/><path d="m35.72 33.143 14.237-4.701-.958 4.01a54.955 54.955 0 0 1 13.047 5.238L68 25.35a42.698 42.698 0 0 0-21.563-5.85c-4.246.026-7.973.69-11.183 1.967a16.414 16.414 0 0 0-7.43 5.62 14.351 14.351 0 0 0-2.588 8.534c0 3.346.828 6.029 2.537 8.022a15.517 15.517 0 0 0 6.031 4.445c2.33.945 5.23 1.865 8.724 2.734l2.537.69.932-3.833 11.079 8.584-14.263 4.701.776-3.193a34.501 34.501 0 0 1-6.135-1.89 32.87 32.87 0 0 1-9.397-5.468L22 62.573a43.254 43.254 0 0 0 24.8 7.92 29.34 29.34 0 0 0 10.509-1.711 16.484 16.484 0 0 0 7.533-5.34 14.026 14.026 0 0 0 2.796-8.865 12.66 12.66 0 0 0-2.615-8.328 15.74 15.74 0 0 0-6.11-4.65 74.98 74.98 0 0 0-8.8-2.913l-2.408-.69-.906 3.756-11.08-8.61Z" fill="#FFF"/></g></svg>