<svg viewBox="0 0 90 90" xmlns="http://www.w3.org/2000/svg"><path d="M65.118 27.794c9.392 0 17.001 7.588 17.001 16.954s-7.61 16.954-17 16.954H49.627l3.907-5.537h11.583c6.308 0 11.45-5.128 11.45-11.417 0-6.29-5.142-11.417-11.45-11.417-3.083 0-5.962 1.23-8.157 3.418-.961.96-3.903 4.98-6.886 9.202l-.484.686-.242.344-.481.686a491.313 491.313 0 0 0-3.558 5.148 1425.31 1425.31 0 0 1-2.623 3.69l-.465.652c-2.883 4.035-4.613 6.377-5.55 7.417C31.531 70.248 25.43 71 20.631 71 9.255 71 0 61.77 0 50.422c0-11.348 9.254-20.578 20.633-20.578h14.53l-3.907 5.538H20.564c-8.294 0-15.012 6.7-15.012 14.972 0 8.272 6.718 14.972 15.012 14.972 4.046 0 8.295-.547 11.926-4.58 1.098-1.231 4.39-5.88 8.226-11.28.9-1.28 1.843-2.619 2.792-3.958l.777-1.095.259-.364.516-.725c3.434-4.812 6.675-9.224 7.925-10.471 3.224-3.282 7.542-5.06 12.133-5.06Zm0-7.794C78.76 20 90 30.938 90 44.611S78.828 69.36 65.187 69.36H44.278l3.908-5.537h17c10.558 0 19.194-8.614 19.194-19.142 0-10.529-8.568-19.142-19.193-19.142-5.21 0-10.078 2.05-13.71 5.742-1.583 1.579-5.682 7.247-9.878 13.135l-.536.753-.536.753-1.595 2.245c-2.526 3.567-4.954 7.002-6.545 9.13l-.288.383c-.556.736-.988 1.277-1.256 1.562-2.879 3.145-6.168 3.829-10.28 3.829-7.061 0-12.819-5.743-12.819-12.784 0-7.042 5.758-12.785 12.818-12.785h9.118l-3.907 5.538h-5.28c-4.043 0-7.265 3.213-7.265 7.247 0 4.033 3.29 7.246 7.266 7.246 3.29 0 4.797-.478 6.168-1.982.578-.672 2.643-3.501 4.866-6.618l.405-.57.204-.286.407-.574.407-.574.403-.572.986-1.403c6.786-9.571 11.036-15.45 13.093-17.57C52.162 22.598 58.401 20 65.118 20Z" fill="#00B7FD"/></svg>