<svg viewBox="0 0 90 90" xmlns="http://www.w3.org/2000/svg"><g fill="none"><path fill="#FFF" d="M0 0h90v90H0z"/><g fill="#FF3F19"><path d="M75 33.118v25.553c0 11.425-11.878 18.239-20.747 11.902l9.835-7.031V33.689c0-4.55-4.73-7.263-8.26-4.74l-10.24 7.32c-2.913 2.081-6.336 3.192-9.837 3.192-3.5 0-6.923-1.11-9.836-3.192L50.216 18.9C60.81 11.328 75 19.472 75 33.118Z"/><path d="M25.912 25.456v29.86c0 4.549 4.73 7.262 8.26 4.738l10.24-7.32c2.915-2.083 6.338-3.194 9.84-3.194 3.503 0 6.927 1.111 9.84 3.194L39.785 70.101C29.19 77.671 15 69.532 15 55.886V30.333c0-11.43 11.878-18.244 20.747-11.907l-9.835 7.032v-.002Z"/></g></g></svg>