<svg viewBox="0 0 90 90" xmlns="http://www.w3.org/2000/svg"><g fill="none"><path fill="#FFF" d="M0 0h90v90H0z"/><path d="M48.91 51.863c-.626-.75-1.409-1.348-2.038-1.948a239.627 239.627 0 0 0-6.268-6.14c-.47-.45-.941-1.05-1.568-1.5-.312-.3-.468-.6-.468-.9v-.597c.468-2.695.78-5.543 1.253-8.24.312-1.798 0-3.595-1.568-4.493-2.039-1.35-4.858.15-5.173 2.698-.941 5.69-3.293 12.882 1.41 17.525 3.292 3.147 9.563 8.69 9.719 9.587.314 1.2-.156 2.398-.471 3.595-.47 1.8-1.098 3.595-1.566 5.393-.47 1.95-.47 3.895 1.254 5.095 2.039 1.347 4.546.15 5.329-2.25.783-2.845 1.724-5.69 2.507-8.538.785-3.445-.156-6.89-2.351-9.287Zm12.854-5.99c-.627-2.25-3.449-3.748-5.173-4.945-.939-.75-2.039-1.5-2.978-2.248-.156-.15-.468-.3-.627-.45-.47-.3-.47-1.347-.47-1.347 0-.6.158-1.2.158-1.798.312-2.845.468-5.542.783-8.387.156-1.65.315-3.448.47-5.095.471-4.943-6.426-5.693-6.896-.75-.315 3-.471 5.845-.783 8.84-.315 2.995-1.098 6.59-.315 9.587 1.098 4.345 5.017 6.44 8.15 8.838.942.75 2.04 1.8 3.293 2.25 2.508 1.047 5.015-1.65 4.388-4.495Z" fill="#05C"/><path d="M45.656 5.358c.63 0 1.254.305 1.724.765l25.691 23.725c2.037 1.837 3.895 4.745 3.895 7.652v15.918c0 3.062-1.858 5.817-4.21 7.807L47.54 83.875c-.47.46-1.254.765-2.036.765-.783 0-1.41-.305-1.88-.765l-25.536-22.65c-2.19-1.99-4.052-4.9-4.052-7.807V37.5c0-2.907 1.701-5.662 3.738-7.5L43.62 6.275c.629-.612 1.253-.917 2.039-.917h-.003Zm0-5.358c-2.036 0-4.229.765-5.795 2.295L14.011 26.02a15.578 15.578 0 0 0-5.01 11.48v15.918c0 4.44 1.88 8.725 5.326 11.787l25.534 22.65A8.612 8.612 0 0 0 45.501 90a8.609 8.609 0 0 0 5.638-2.142l25.535-22.653C80.122 62.143 82 58.01 82 53.418V37.5a15.924 15.924 0 0 0-5.012-11.48L51.298 2.295A8.046 8.046 0 0 0 45.657 0h-.002Z" fill="#000"/></g></svg>