<svg xmlns="http://www.w3.org/2000/svg" viewBox="0 0 90 90"><path fill="#FFF" d="M0 0h90v90H0z"/><path d="M45 83c20.987 0 38-17.013 38-38S65.987 7 45 7 7 24.013 7 45s17.013 38 38 38Z" fill="#FFF"/><path d="M78.981 44.07c-.468-18.415-15.522-33.2-34.03-33.2-18.795 0-34.036 15.26-34.036 34.083 0 18.824 15.24 34.082 34.035 34.082 18.795 0 34.042-15.259 34.042-34.082 0-.29-.004-.588-.011-.883Z" fill="#3B66FF"/><path d="M53.613 44.364c-.136.072.016.32.141.552.125.233.177.362.312.29.136-.07.304-.32.18-.554-.126-.233-.497-.362-.633-.288Z" fill="#F4B49D"/><path d="M62.012 36.648c-6.39-2.209-14.939 21.034-10.302 23.679 5.606 3.2 18.18-20.955 10.302-23.679Zm-33.321 0c-7.878 2.724 4.696 26.88 10.303 23.679 4.635-2.645-3.91-25.888-10.303-23.679Z" fill="#2E83E8"/><path d="M51.964 56.174c-.803-4.136 3.02-7.095 3.02-7.095l-9.554 1.78-9.556-1.782s3.824 2.958 3.022 7.094c-.72 3.713-4.615 2.723-7.752 4.01-1.024 1.026 1.61 12.145 14.903 12.145 13.575 0 14.55-11.262 13.67-12.144-3.139-1.288-7.033-.297-7.753-4.008Z" fill="#EFB09A"/><path d="M44.855 71.709c.047.003.095.003.142 0h-.142Zm12.631-9.506c-1.02-.659-2.41-1.38-4.671-1.539-4.717.871-4.901 2.324-7.521 2.259-2.405-.057-2.592-1.01-7.292-2.259-2.543-.149-4.43.993-5.396 1.65-4.377 2.985 3.896 7.95 12.42 8.02 8.675.071 17.602-4.809 12.46-8.13Z" fill="#FFC5A8"/><path d="M44.95 79.036c11.493 0 21.657-5.705 27.819-14.441l-.826-.376c-6.535-3.8-10.923-3.91-12.517-4.904h-.407s1.345 8.68-13.688 8.68c-14.39 0-14.06-8.682-14.06-8.682h-.407c-1.55.968-7.307 1.913-13.616 5.443 6.175 8.646 16.283 14.28 27.701 14.28Z" fill="#649CFF"/><path d="M44.707 12.275c-8.508.186-18.345 7.433-17.821 23.03.506 15.114 10.02 17.136 12.524 19.453 3.776 3.494 7.323 4.277 12.039.006 2.53-2.291 12.018-4.463 12.524-19.577.52-15.598-10.722-22.726-19.266-22.912Z" fill="#EFB09A"/><path d="M44.709 11.78c-8.51.184-18.345 7.359-17.823 22.955.506 15.116 9.994 17.086 12.524 19.377 2.4 2.176 3.872 2.948 5.809 2.973 1.956-.025 3.828-.717 6.226-2.89 2.53-2.292 12.018-4.538 12.524-19.652.525-15.593-10.717-22.58-19.26-22.762Z" fill="#FFBCA4"/><path d="M45.204 13.912c-8.51 0-18.838 3.953-18.316 19.55.506 15.113 9.994 17.3 12.524 19.588 2.397 2.172 3.96 3.088 5.896 3.106 1.96-.018 3.555-.871 5.957-3.05 2.53-2.291 12.204-4.512 12.71-19.626.52-15.595-10.225-19.569-18.77-19.568Z" fill="#FFC5A8"/><path d="M53.026 46.3c-.136.072.014.32.14.553.126.232.176.36.311.29s.304-.322.18-.553c-.126-.231-.497-.363-.631-.29Z" fill="#F4B49D"/><path d="M50.68 35.292c.162.08.32.08.56.08l-.08-.08c.795-.16 1.592-.318 2.387-.318 1.194 0 2.548.637 3.662.397-.716-1.193-6.209-1.752-6.528-.079Zm-18.702.318c1.114.238 2.468-.398 3.661-.398.796 0 1.592.159 2.389.318l-.08.08c.24 0 .398 0 .558-.08-.323-1.672-5.817-1.115-6.528.08Z" opacity=".6" fill="#EFB09A"/><path d="M38.466 35.346c-.974-.613-2.688-.614-3.018-.498-.474.167-.775-.193-1.287-.111-.51.12-.367.537-.748.792-.426.279-.635-.11-1 .253-.29.401-.363.984-.764.839-.364-.11-.218.036 0 .254.254.364.602.283.774.05.497-.67 2.05-.85 2.05-.85-.28.282-.296 1.441.703 1.835.209.082 1.344.096 1.565.032 1.077-.303 1.133-1.228 1.022-1.662.837-.014 1.952.718 2.256.96.514.407.612.05.388-.172.003 0-.973-1.11-1.941-1.722Zm19.162 1.274c-.4.146-.472-.437-.764-.838-.364-.364-.573.026-1-.253-.38-.255-.238-.673-.747-.792-.51-.082-.813.278-1.287.111-.33-.116-2.045-.115-3.017.498-.973.613-1.947 1.722-1.947 1.722-.222.223-.122.581.387.171.304-.24 1.42-.973 2.258-.959-.11.434-.055 1.355 1.02 1.662.222.063 1.356.05 1.567-.032.998-.394.983-1.55.7-1.835 0 0 1.555.18 2.052.85.174.233.523.314.774-.05.223-.218.37-.364.004-.254Z" fill="#232E4C" opacity=".8"/><path d="M47.27 43.905a4.537 4.537 0 0 0-1.887.42c-.215.088-.157.09-.366 0a4.492 4.492 0 0 0-1.873-.412.2.2 0 0 0 0 .398 4.17 4.17 0 0 1 1.72.38.748.748 0 0 0 .67 0 4.204 4.204 0 0 1 1.737-.387.2.2 0 0 0 0-.398Z" fill="#CC8F7D"/><path d="M59.491 32.443c-1.617-1.362-6.74-1.989-8.97-.635 0 0-.879 1.244 1.54.715.946-.207 4.268.279 5.095.901 3.449 2.602 3.092-.344 2.335-.981Zm-27.923-.086c-.782.605-1.259 3.533 2.293 1.078.851-.589 4.19-.936 5.13-.69 2.395.63 1.568-.65 1.568-.65-2.174-1.445-7.322-1.03-8.991.262Z" opacity=".5" fill="#FFD7C5"/><path d="M48.218 47.731c-2.115-.717-2.706.038-2.886.188-.179-.15-.77-.905-2.884-.188-1.443.49-2.214.126-2.962-.012-.03-.006-.014.066.022.096.977.969 2.99 1.26 5.963 1.26 2.972-.01 4.63-.545 5.555-1.26-.223-.3-1.31.43-2.808-.084Z" fill="#F44D99"/><path d="M47.292 50.598c-.305.101-3.752.097-4.112-.084-.15-.076-.174.027-.139.08 1.116 1.699 3.268 1.699 4.39.057.036-.053-.098-.066-.139-.053Z" fill="#EFB09A"/><path d="M50.969 47.823c-1.307.902-4.108 1.176-5.663 1.167-1.595-.011-4.502-.34-5.809-1.243-.022-.016-.04.011-.01.062.303.514 2.452 3.243 5.818 3.239 3.195 0 5.372-2.65 5.676-3.164.032-.051.01-.077-.012-.06Z" fill="#F75CAA"/><path d="M47.351 48.848c-.725.227-3.382.149-4.373-.097-.075-.02-.076.023-.016.046.495.194 2.586.86 4.453.102.081-.03.053-.087-.064-.051Z" fill="#FFEFE7"/><path d="M41.247 31.91c-1.89-.303-3.47-1.345-5.546-1.37-1.276.017-4.563.413-5.034 1.826 2.122-1.012 4.269-.907 6.474-.4.975.194 2.995 1.098 3.97.61a.378.378 0 0 0 .189-.215l.077-.228a.17.17 0 0 0-.063-.195.17.17 0 0 0-.067-.028Zm12.673-1.285c-2.07.087-3.617 1.17-5.49 1.533a.187.187 0 0 0-.126.092.185.185 0 0 0-.01.155l.068.184a.431.431 0 0 0 .228.245c1.002.431 2.969-.513 3.93-.74 2.189-.572 4.333-.743 6.486.205-.513-1.4-3.81-1.698-5.086-1.674Z" fill="#CC8F7D"/><path d="M29.612 44.075c1.504 2.848-3.822-13.638 8.077-16.264 6.17-1.365 16.47-6.807 15.369-8.959-3.178-6.207-33.134 6.869-23.446 25.223Z" fill="#FFBCA4"/><path d="M52.706 18.551c-1.946 1.113 2.211 5.378 4.61 9.147 6.376 10.02.506 22.53 2.646 20.122 9.323-10.493.792-33.865-7.256-29.269Z" fill="#FFBCA4"/><path d="M54.975 14.6C37.242 4.15 7.968 24.746 27.87 56.016c.65 1.022 6.533 6.144 10.59 6.7 2.784.387 1.618-.554.423-1.763C28.68 50.622 24.37 31.66 32.97 28.842c14.576-4.773 13.27-9.872 19.958-7.486 1.522.545 3.756-3.918 2.047-6.756Z" fill="#F9EDED"/><path d="M55.799 14.634c-1.556-.493-4.122 4.477-2.872 5.633 17.742 16.442 6.072 34.9-1.28 41.487-.95.85.193 1.242 2.051.541 1.452-.547 7.91-2.984 10.01-6.511 8.006-13.455 7.732-36.196-7.909-41.15Z" fill="#F9EDED"/><path d="M35.723 44.984c-1.58 0-3.15-.685-4.304-1.879-.925-.957-2.027-2.696-2.027-5.549v-.011c.092-2.184 1.065-3.704 2.892-4.518 1.474-.655 3.098-.655 3.797-.655a9.76 9.76 0 0 1 3.231.664c2.162.871 3.304 2.473 3.304 4.623 0 2.924-1.264 4.653-2.323 5.59a7.001 7.001 0 0 1-4.57 1.735Z" fill-opacity=".2" fill="#FFF"/><path d="M36.085 32.659c-1.485 0-6.196.05-6.399 4.894 0 4.743 3.174 7.137 6.04 7.137 2.867 0 6.603-2.09 6.603-7.035s-6.244-4.996-6.244-4.996Z" fill-opacity=".1" fill="#FFF" opacity=".5"/><path d="M53.845 44.984c-1.58 0-3.15-.685-4.303-1.879-.925-.957-2.028-2.696-2.028-5.549v-.011c.092-2.184 1.065-3.704 2.891-4.518 1.474-.655 3.098-.655 3.797-.655 1.108.037 2.2.261 3.232.664 2.161.871 3.304 2.473 3.304 4.623 0 2.924-1.26 4.653-2.324 5.59a7.001 7.001 0 0 1-4.569 1.735Z" fill-opacity=".2" fill="#FFF"/><path d="M54.203 32.659c-1.484 0-6.196.05-6.398 4.894 0 4.743 3.174 7.137 6.04 7.137 2.867 0 6.603-2.09 6.603-7.035s-6.245-4.996-6.245-4.996Z" fill-opacity=".1" fill="#FFF" opacity=".5"/><path d="M61.775 34.453a.6.6 0 0 0-.387-.396.291.291 0 0 0-.09-.016H59.33a6.179 6.179 0 0 0-1.847-1.127 9.906 9.906 0 0 0-3.282-.678c-.703 0-2.351 0-3.85.667-1.377.613-2.28 1.616-2.702 2.991a1.792 1.792 0 0 0-.741-.484c-.485-.185-1.143-.29-1.85-.29-.706 0-1.364.103-1.849.29a1.791 1.791 0 0 0-.745.484c-.47-1.334-1.52-2.353-3.098-2.992a9.902 9.902 0 0 0-3.28-.678c-.704 0-2.352 0-3.852.667a5.05 5.05 0 0 0-1.635 1.135h-1.902a.293.293 0 0 0-.092.015.6.6 0 0 0-.387.396c-.064.232.022.484.255.757a.288.288 0 0 0 .22.097h1.057a6.043 6.043 0 0 0-.484 2.253v.012c0 2.896 1.122 4.666 2.063 5.64 1.18 1.22 2.782 1.92 4.4 1.92a7.134 7.134 0 0 0 4.655-1.77c.92-.812 2.06-2.279 2.316-4.676.322-.268.436-.919.376-2.139.011-.222.801-.555 1.987-.555a4.623 4.623 0 0 1 1.513.22c.32.117.47.251.475.33-.061 1.248.058 1.903.396 2.16.249 2.267 1.22 3.702 2.003 4.51 1.178 1.22 2.781 1.92 4.398 1.92a7.132 7.132 0 0 0 4.656-1.77c1.081-.954 2.369-2.715 2.369-5.688a4.962 4.962 0 0 0-.549-2.347h.981a.29.29 0 0 0 .22-.097c.228-.275.313-.53.25-.761Zm-7.93 9.822c-1.389 0-2.771-.606-3.792-1.662-.833-.862-1.825-2.435-1.827-5.042.081-1.888.912-3.195 2.469-3.889 1.334-.594 2.854-.594 3.506-.594a9.22 9.22 0 0 1 2.972.615c1.893.767 2.852 2.098 2.852 3.96 0 2.658-1.133 4.215-2.083 5.055a6.279 6.279 0 0 1-4.098 1.557ZM36.08 33.084a9.22 9.22 0 0 1 2.973.615c1.893.767 2.852 2.099 2.852 3.96 0 2.658-1.134 4.215-2.083 5.055a6.28 6.28 0 0 1-4.098 1.561c-1.389 0-2.77-.606-3.792-1.662-.832-.862-1.825-2.435-1.826-5.042.082-1.888.912-3.195 2.469-3.889 1.339-.598 2.854-.598 3.505-.598Z" fill="#3B66FF"/></svg>