<svg xmlns="http://www.w3.org/2000/svg" viewBox="0 0 90 90"><path d="M0 0h90v90H0z"/><path d="M19.63 41.283 30.719 52.28a8.244 8.244 0 0 0 5.812 2.382 8.24 8.24 0 0 0 5.811-2.382l8.778-8.73a3.255 3.255 0 0 1 2.296-.94c.863 0 1.69.338 2.296.94l4.348 4.324L49 58.9c-3.28 3.272-7.77 5.11-12.456 5.1-4.688 0-9.179-1.847-12.456-5.125L13 47.877l6.63-6.594Zm33.827-16.28c4.688 0 9.178 1.847 12.456 5.125L77 41.152l-6.658 6.62-11.087-11.025a8.193 8.193 0 0 0-5.812-2.403 8.19 8.19 0 0 0-5.811 2.403l-8.778 8.73a3.255 3.255 0 0 1-2.296.94c-.863 0-1.69-.339-2.296-.94l-4.348-4.325L41 30.128c3.277-3.278 7.768-5.125 12.456-5.125Z" fill="#FFF"/></svg>