<svg viewBox="0 0 90 90" xmlns="http://www.w3.org/2000/svg"><path d="M78.489 64.418a17.875 17.875 0 0 1-10.513 8.236c.635-2.175.959-4.429.962-6.695 0-11.283-7.784-20.747-18.233-23.324a17.667 17.667 0 0 1 7.767-4.425 17.614 17.614 0 0 1 13.503 1.786c8.498 4.93 11.42 15.885 6.514 24.422M45.01 83.836c-4.648 0-9.07-1.855-12.35-5.022a23.74 23.74 0 0 0 6.246-2.515c9.723-5.64 13.988-17.139 10.991-27.516 7.44 2.142 12.908 9.023 12.908 17.176 0 9.856-7.984 17.877-17.795 17.877M11.53 64.418c-2.324-4.045-2.926-8.81-1.84-13.241a24.092 24.092 0 0 0 5.286 4.163 23.707 23.707 0 0 0 11.926 3.216 23.962 23.962 0 0 0 17.294-7.395c1.866 7.54-1.333 15.727-8.356 19.8a17.627 17.627 0 0 1-8.868 2.392 17.795 17.795 0 0 1-15.443-8.935m0-38.837c2.307-4 6.075-6.952 10.513-8.237a24.011 24.011 0 0 0-.964 6.697c0 11.277 7.78 20.738 18.224 23.32-5.566 5.403-14.232 6.718-21.259 2.642-4.117-2.39-7.061-6.244-8.292-10.857a17.833 17.833 0 0 1 1.778-13.565M45.01 6.16c4.65 0 9.067 1.854 12.345 5.019a23.964 23.964 0 0 0-6.242 2.52c-5.537 3.212-9.497 8.395-11.15 14.598a23.964 23.964 0 0 0 .15 12.916c-7.436-2.143-12.9-9.024-12.9-17.173 0-9.859 7.983-17.88 17.797-17.88m33.479 19.42c2.326 4.05 2.929 8.819 1.835 13.256a23.914 23.914 0 0 0-5.281-4.179c-5.537-3.21-11.985-4.062-18.16-2.4a23.746 23.746 0 0 0-11.067 6.596 17.858 17.858 0 0 1 .073-8.961c1.229-4.612 4.173-8.468 8.29-10.857a17.614 17.614 0 0 1 13.504-1.786c4.592 1.237 8.428 4.195 10.806 8.33M83.8 22.5c-3.196-5.561-8.356-9.539-14.531-11.2a24.055 24.055 0 0 0-4.46-.755C60.38 4.002 52.944 0 45.01 0c-8.218 0-15.48 4.185-19.79 10.542A24.013 24.013 0 0 0 6.218 22.5C3.02 28.06 2.172 34.54 3.825 40.743c.393 1.465.923 2.89 1.581 4.257-3.425 7.127-3.158 15.596.81 22.5 4.109 7.149 11.344 11.369 18.979 11.942C29.625 85.992 37.075 90 45.009 90c8.218 0 15.479-4.186 19.789-10.544A24.013 24.013 0 0 0 83.8 67.5c4.11-7.15 4.13-15.56.805-22.488 3.43-7.13 3.164-15.603-.805-22.511" fill="#0092FF"/></svg>