<svg viewBox="0 0 90 90" xmlns="http://www.w3.org/2000/svg"><g fill="none" fill-rule="evenodd"><path fill="#FFF" fill-rule="nonzero" d="M0 0h90v90H0z"/><path d="M45.5 15C55.717 15 64 23.266 64 33.462v40.673a.866.866 0 0 1-.867.865H54.75C39.424 75 27 62.602 27 47.308V33.462C27 23.266 35.283 15 45.5 15ZM29.89 43.646a.578.578 0 0 0-.568.473l-.01.104v3.085l.004.42c.222 13.687 11.3 24.741 25.018 24.961l.416.003h6.552a.385.385 0 0 0 .378-.307l.008-.077v-1.539a.385.385 0 0 0-.308-.377l-.078-.007H54.75l-.398-.004c-12.454-.21-22.511-10.244-22.724-22.672l-.003-.401v-1.45c0-.09-.02-.178-.06-.257l-.045-.077-1.157-1.634a.579.579 0 0 0-.472-.244Zm4.658 4.793a.577.577 0 0 0-.533.618c.017.226.034.417.051.575 1.144 10.249 9.76 18.245 20.288 18.441l.396.004h6.552a.385.385 0 0 0 .378-.307l.008-.078v-1.538a.385.385 0 0 0-.308-.377l-.078-.008H54.75l-.364-.003c-8.86-.171-16.196-6.558-17.807-14.973-.034-.18-.087-.517-.16-1.012a.576.576 0 0 0-.172-.334l-.075-.06-1.256-.85a.58.58 0 0 0-.368-.098Zm5.139 2.552-.106.018a.577.577 0 0 0-.406.709c.033.118.063.222.09.31 1.987 6.5 7.972 11.261 15.095 11.429l.39.005h6.552a.385.385 0 0 0 .378-.308l.008-.077v-1.539a.385.385 0 0 0-.308-.376l-.078-.008H54.75l-.353-.005a13.88 13.88 0 0 1-12.43-8.447 17.607 17.607 0 0 1-.348-.93.577.577 0 0 0-.279-.32l-.102-.041-1.34-.398-.105-.021-.106-.001Zm5.37.885a.576.576 0 0 0-.517.841c.083.16.156.295.22.405a11.562 11.562 0 0 0 9.615 5.718l.375.006h6.552a.385.385 0 0 0 .378-.307l.008-.077v-1.539a.385.385 0 0 0-.308-.377l-.078-.008H54.75l-.288-.004a9.24 9.24 0 0 1-6.928-3.45 11.44 11.44 0 0 1-.652-.936.578.578 0 0 0-.387-.257l-.097-.009-1.341-.006Zm6.547-.984-.101.019-1.335.375a.579.579 0 0 0-.255.96c.218.221.408.394.568.52a6.913 6.913 0 0 0 3.926 1.456l.343.009h6.552a.385.385 0 0 0 .378-.307l.008-.078v-1.538a.385.385 0 0 0-.308-.377l-.078-.008H54.75l-.23-.006a4.607 4.607 0 0 1-1.59-.365c-.238-.102-.551-.288-.94-.559a.579.579 0 0 0-.386-.101Zm-21.026-23.48-.11.28.001-.238a16.08 16.08 0 0 0-1.157 6.008c0 8.921 7.248 16.153 16.188 16.153 8.94 0 16.188-7.232 16.188-16.153 0-1.947-.345-3.813-.978-5.54l-.18-.468.001.238C57.31 19.12 46.271 23.077 46.271 30c0 1.154-1.542 1.154-1.542 0 0-6.852-10.57-11.443-14.15-2.589Zm30.724 19.896H57.92a.59.59 0 0 0-.258.061l-.076.046-1.944 1.373a.456.456 0 0 0 .172.818l.092.01h5.396a.385.385 0 0 0 .378-.308l.008-.077v-1.539l-.008-.077a.385.385 0 0 0-.378-.307Zm-23.896-20.77A3.465 3.465 0 0 1 40.875 30a3.465 3.465 0 0 1-3.469 3.462A3.465 3.465 0 0 1 33.938 30a3.465 3.465 0 0 1 3.468-3.462Zm16.188 0A3.465 3.465 0 0 1 57.062 30a3.465 3.465 0 0 1-3.468 3.462A3.465 3.465 0 0 1 50.125 30a3.465 3.465 0 0 1 3.469-3.462Z" fill="#222"/></g></svg>