<svg xmlns="http://www.w3.org/2000/svg" viewBox="0 0 90 90"><path fill="#FFF" d="M0 0h90v90H0z"/><path d="M52.348 55.283a3.11 3.11 0 0 1 3.114 3.114v13.488A3.11 3.11 0 0 1 52.348 75H18.114A3.11 3.11 0 0 1 15 71.885v-34.24a3.11 3.11 0 0 1 3.114-3.114h13.488a3.11 3.11 0 0 1 3.114 3.114V53.21c0 1.14.933 2.077 2.076 2.077h15.564l-.008-.004ZM37.644 34.717h15.564c1.14 0 2.076.933 2.076 2.077v15.564a3.11 3.11 0 0 0 3.114 3.115h13.488A3.11 3.11 0 0 0 75 52.358V18.115A3.11 3.11 0 0 0 71.886 15H37.644a3.11 3.11 0 0 0-3.114 3.115v13.488a3.11 3.11 0 0 0 3.114 3.114Z" fill="#51A9E3"/></svg>