<svg xmlns="http://www.w3.org/2000/svg" viewBox="0 0 90 90"><defs><linearGradient id="sender.net-a" x1="100.09%" x2="3.47%" y1="93.39%" y2="3.29%"><stop offset="0%" stop-color="#F57724"/><stop offset="100%" stop-color="#ED1E24"/></linearGradient><linearGradient id="sender.net-b" x1="76.94%" x2="7.22%" y1="69.17%" y2="19.56%"><stop offset="0%" stop-color="#F57724"/><stop offset="100%" stop-color="#ED1E24"/></linearGradient><linearGradient id="sender.net-c" x1="69.34%" x2="35.87%" y1="66.93%" y2="37.61%"><stop offset="0%" stop-color="#F57724"/><stop offset="100%" stop-color="#ED1E24"/></linearGradient></defs><rect width="90" height="90" fill="#FFF" opacity="0"/><g transform="matrix(1 0 0 -1 0 78.48)"><polyline fill="url(#sender.net-a)" points="78.27 66 71.11 59.96 80.21 59.96 41.81 29.87 41.81 21.07 84.18 55.49 84.18 48.01 90 52.98 90 66 78.27 66"/><polyline fill="url(#sender.net-b)" points="78.13 28.15 78.13 5.81 5.82 5.81 5.82 53.92 49.98 53.92 57.35 59.73 0 59.73 0 0 83.95 0 83.95 32.74 78.14 28.15"/><polyline fill="url(#sender.net-c)" points="14.71 44.8 41.81 29.87 41.81 21.07 14.71 38.82 14.71 44.8"/></g></svg>