<svg viewBox="0 0 90 90" xmlns="http://www.w3.org/2000/svg"><g fill="none" fill-rule="evenodd"><path fill="#000" d="M0 0h90v90H0z"/><g fill="#FFFFFA" fill-rule="nonzero"><path d="m54.6 29.4 3-7.1v-4.7H31.8L16.9 54H21l17.2-24.6h16.3z"/><path d="M65.8 32.1H40L25 68.4h4.3l18-23.3h14.9l3.5-8.3V32z"/><path d="m68 43.3 2.4-5.6V27.5h-10l1.8-4.3V13H28.8L12 53.6v9.7h10.2l-2 4.6v9.4l27.9-.1h9.6L77.3 52v-8.8H68v.1Zm7.4 8.1-18.6 24H22.1v-7.1l2.9-7H13.9V54L30 14.9h30.3v8l-2.7 6.4h11v8l-3.3 7.8h10.1v6.3Z"/></g></g></svg>