<svg viewBox="0 0 90 90" xmlns="http://www.w3.org/2000/svg"><g fill="none"><path fill="#F37021" d="M0 0h90v90H0z"/><path d="M70 31 58.083 20l-1.155 5.876-15.943-.055c-7.756-.028-16.019 4.697-16.049 13.511-.025 7.488 6.184 10.806 10.715 13.227 2.528 1.352 4.712 2.517 4.707 3.832-.012 3.05-4.237 3.07-4.418 3.068l-13.75-.047L20 69.944 35.73 70c8.971.03 16.024-5.93 16.05-13.57.027-7.55-6.176-10.772-10.702-13.127-2.6-1.35-4.841-2.514-4.834-3.934.007-2.287 3.056-3.014 4.533-3.012l14.074.051-1.123 5.705L70 31Z" fill="#FFF"/></g></svg>