<svg viewBox="0 0 90 90" xmlns="http://www.w3.org/2000/svg"><g fill="#22AB9D"><path d="M49.604 84.791c8.62-.751 18.536-5.163 25.597-13.33 7.923-9.179 11.102-19.873 9.614-31.878-2.45-19.715-20.74-37.376-44.948-34.46-20.563 2.48-37.48 21.11-34.775 44.625C7.515 70.88 25.3 83.678 40.358 84.733c.056-.71.109-1.417.158-2.123.158-2.091.323-4.176.462-6.264.087-1.249.122-2.498.213-3.747.113-1.5.284-2.998.393-4.498.171-2.288.323-4.583.468-6.874.168-2.496.34-4.991.513-7.487.087-1.249.194-2.494.3-3.743.059-.726.09-1.433-.72-1.824-.109-.051-.183-.174-.273-.264a4.234 4.234 0 0 1-.568-5.231c.877-1.465 3.1-2.495 4.947-1.843 1.74.613 2.759 1.817 3.017 3.611.232 1.633-.406 2.95-1.694 3.957l-.52.393 2.55 35.995M45.086 90c-12.564-.248-23.349-4.563-32.114-13.447C4.001 67.443-.349 56.332.022 43.559c.342-11.84 4.783-22.09 13.231-30.432C22.534 3.933 33.85-.459 46.922.037c24.327.967 43.442 21.16 43.073 45.503-.1 11.573-4.212 21.744-12.18 30.174-8.874 9.387-19.911 14.005-32.7 14.276"/><path d="M55.577 67.656c-.287-2.295-.587-4.557-.794-6.852 5.264-3.472 8.29-8.326 8.759-14.583a17.833 17.833 0 0 0-4.425-13.338 18.582 18.582 0 0 0-27.772-.603c-3.97 4.273-5.577 9.417-4.802 15.196.774 5.78 3.779 10.172 8.642 13.36-.265 2.26-.533 4.519-.8 6.778-8.714-3.78-15.617-13.683-14.39-25.207 1.208-12.085 10.893-21.571 23-22.528 12.107-.958 23.163 6.888 26.256 18.632 3.092 11.745-2.666 24.018-13.674 29.148"/></g></svg>