<svg xmlns="http://www.w3.org/2000/svg" viewBox="0 0 90 90"><circle cx="45" cy="45" r="45" fill="#354ECA"/><path fill="#FFF" d="M45 9A36 36 0 009 45c0 7.07 2.07 13.65 5.6 19.21 1.72.27 3.62.68 5.23 1.07 3.23-4.71 11.59-14.52 18.06-21.95a2630.5 2630.5 0 01-22.2-9.43c-.75-.32 1.49-2.46 2.3-2.81 4.22-1.84 19.82 1.87 27.3 3.82l1.03-1.16c1.46-1.52 11.33-11.43 15.15-7.64 3.83 3.8-4.91 14.82-6.37 16.34l-.85.82c2.05 7.22 6.46 23.92 4.71 28.39-.33.85-2.36 3.18-2.7 2.44-2.78-6.17-7.83-17.7-10.2-23.11-7.21 6.72-16.84 15.52-21.48 18.95a70.7 70.7 0 011.23 5.48A35.78 35.78 0 0045 81a36 36 0 100-72z"/></svg>