<svg viewBox="0 0 90 90" xmlns="http://www.w3.org/2000/svg"><path d="M45.266 5.012C26.746 4.974 10.08 16.037 3.217 32.923-3.645 49.81.687 69.098 14.147 81.585c3.188 2.98 8.114 3.231 11.6.591 11.427-8.349 27.08-8.349 38.508 0 3.52 2.647 8.484 2.363 11.666-.668C89.272 69.07 93.601 49.924 86.863 33.11 80.126 16.295 63.67 5.175 45.266 5M45 71.475c-6.012.16-11.826-2.115-16.079-6.289-4.253-4.174-6.57-9.881-6.41-15.783C22.511 37.21 32.58 27.326 45 27.326s22.488 9.884 22.488 22.077c.161 5.902-2.156 11.609-6.41 15.783C56.826 69.36 51.011 71.634 45 71.475" fill="#62D84E" fill-rule="evenodd"/></svg>