<svg xmlns="http://www.w3.org/2000/svg" viewBox="0 0 90 90"><rect fill="#FFF" width="90" height="90" rx="45"/><path d="M45.509 22.75a79.964 79.964 0 0 0-4.192.79c-.92.194-1.84.376-2.747.605-.838.212-1.698.4-2.519.661-.792.245-1.577.515-2.353.808a15.072 15.072 0 0 0-4.186 2.458c-.762.639-1.473 1.333-2.069 2.135a15.14 15.14 0 0 0-1.11 1.792c-.318.595-.536 1.3-.543 1.983-.01 2.007 1.264 3.688 2.732 4.936.482.407.995.783 1.515 1.141 1.543 1.066 3.224 2.002 4.93 2.817 1.762.839 3.536 1.643 5.33 2.41 1.698.722 3.432 1.332 5.183 1.916.504.165 1.013.33 1.517.497 1.586.526 3.207 1.014 4.782 1.585.98.354 2.026.686 3.005 1.13 1.018.459 2.075.918 2.972 1.578a5.53 5.53 0 0 1 1.505 1.613c.377.625.613 1.342.63 2.072a3.471 3.471 0 0 1-.56 1.978c-.984 1.539-2.697 2.588-4.35 3.287a71.077 71.077 0 0 1-7.569 2.698c-1.466.43-2.933.856-4.41 1.24-1.483.386-2.995.79-4.493 1.167-1.494.376-2.988.715-4.487 1.038-.86.183-1.725.364-2.578.542-.515.103-1.018.212-1.533.324-1.073.233-2.145.464-3.222.694-1.226.27-2.452.533-3.678.801-.357.078-.712.173-1.068.252-.318.073-1.504.348-.624.295 1.226-.067 4.5-.353 11.492-1.288 2.535-.42 5.079-.778 7.618-1.193 3.162-.509 6.305-1.13 9.424-1.862a80.48 80.48 0 0 0 2.666-.677 57.4 57.4 0 0 0 1.74-.512c2.452-.759 6.386-2.1 7.317-2.505 3.558-1.556 5.773-2.727 6.928-5.517.394-.99.58-2.1.46-3.162a7.18 7.18 0 0 0-.957-2.8c-.488-.808-1.155-1.497-1.851-2.134-1.297-1.18-2.752-2.134-4.306-2.942-.441-.23-.888-.448-1.34-.653a60.312 60.312 0 0 0-1.698-.74 40.086 40.086 0 0 0-2.435-.905c-2.134-.73-4.302-1.382-6.446-2.081A45.473 45.473 0 0 1 46.34 39.7a27.78 27.78 0 0 1-1.472-.663 22.939 22.939 0 0 1-1.67-.9c-.672-.407-1.773-1.105-1.466-2.054.214-.677.952-.94 1.555-1.184.558-.225 1.148-.383 1.729-.535 1.773-.455 3.584-.761 5.374-1.142a94.156 94.156 0 0 0 1.576-.347c1.396-.327 2.835-.572 4.166-1.1 1.142-.449 2.609-1.166 3.036-2.418.613-1.824-.083-3.796-1.083-5.335a53.443 53.443 0 0 0-1.117-1.634c-.526-.734-1.106-1.425-1.674-2.125-.257-.317-.57-.293-.833-.212-.35.12-1.307 1.239-8.952 2.698" fill="#C00"/></svg>