<svg viewBox="0 0 90 90" xmlns="http://www.w3.org/2000/svg"><g fill="none" fill-rule="evenodd"><path fill="#A6192E" d="M0 24h90v42H0z"/><path d="M36.276 40.546c-2.373 1.205-3.315 2.822-3.315 5.575 0 2.616.977 3.717 4.885 5.644 3.769 1.858 4.886 2.89 4.886 4.542 0 3.441-4.641 4.68-8.48 2.271l-1.57-.963-.21.895a33.202 33.202 0 0 1-.418 1.686c-.174.688 0 .791 1.64 1.273 2.512.757 6.072.688 7.816-.103 2.553-1.014 4.167-3.519 4.013-6.229 0-2.271-1.326-3.75-5.025-5.575-3.768-1.823-4.745-2.753-4.745-4.473 0-2.89 2.861-3.854 6.49-2.203l1.815.826.174-.894c.105-.517.28-1.17.419-1.48.488-1.239-6.281-1.858-8.375-.792m14.481 9.842c0 5.61-.105 10.427-.21 10.737-.174.447.105.55 1.745.55h1.955l-.245-4.817-.21-4.818h7.782v-1.032c0-.516.07-1.17.175-1.446.14-.344-.524-.447-3.664-.344l-3.838.138v-6.71l4.012.24 4.013.207V42.06c0-.516.07-1.17.175-1.445.14-.344-.943-.447-5.758-.447h-5.932v10.22m17.028-5.058c.21 13.076.14 12.32 1.222 13.696 1.744 2.237 3.315 2.822 7.746 2.822 4.292 0 5.862-.55 7.607-2.581 1.186-1.377 1.256-1.859 1.466-11.184L86 40.168h-3v8.087c.034 9.291 0 9.498-2.827 10.736a9.012 9.012 0 0 1-6.874-.24c-2.234-1.033-2.373-1.824-2.234-10.806l.105-7.777h-1.745l-1.744-.035.104 5.162" fill="#FFF" fill-rule="nonzero"/></g></svg>