<svg xmlns="http://www.w3.org/2000/svg" viewBox="0 0 90 90"><path fill="#131D27" d="M0 0h90v90H0z"/><path fill="#FFFFFE" d="M68.67 20.1l-2.7 16.2-9.6-11.3 12.3-4.9zm-2.64 23.17l2.4 8.87-18.37 5.06 15.97-13.93zm-40-4.47l9.85-12.87h17.1L63.93 38.8H26.03zM62.66 42L44.85 57.53 26.7 42h35.96zM32.58 25l-8.8 11.5-2.7-16.34L32.58 25zm6.99 32.19l-18.55-5.05 2.54-8.67 16 13.72zm3.42 4.23l-3.5 3.85a58.29 58.29 0 00-9.71-7.45l13.21 3.6zm16.99-3.66a58.27 58.27 0 00-9.69 7.55l-3.57-3.9 13.26-3.65zm12.75-42.7l-19.31 7.68h-18L17 15l4.18 25.3-4.01 13.69 10.48 6.27A55 55 0 0140.86 71.3l4.08 4.67 4.29-4.91a55 55 0 0112.72-10.77L72.23 54l-3.7-13.68 4.2-25.25z"/></svg>