<svg viewBox="0 0 90 90" xmlns="http://www.w3.org/2000/svg"><g fill="none"><path d="M61.177 90H0V0h89.982v90H61.177m.222-13.753c3.345-1.825 6.095-4.292 7.824-7.715 3.498-6.924 3.435-15.471-4.118-21.61-3.004-2.44-6.326-4.334-9.887-5.79-3.759-1.538-7.592-2.893-11.363-4.402-2.558-1.024-5.028-2.247-7.145-4.055-1.23-1.05-2.223-2.275-2.267-4-.065-2.55 1.458-4.049 3.54-5.082 2.571-1.276 5.35-1.509 8.148-1.232 4.12.408 7.137 2.428 8.704 6.376.041.102.111.194.209.362l12.11-2.756c-1.999-6.545-6.188-11.438-11.95-13.84-4.723-1.968-9.672-2.48-14.731-1.887-4.767.557-9.155 2.113-12.984 5.095-8.13 6.33-10.079 18.977-.398 26.78 2.386 1.923 4.957 3.562 7.761 4.757 4.22 1.8 8.537 3.367 12.76 5.159 2.278.967 4.492 2.115 6.645 3.338 1.386.788 2.285 2.075 2.542 3.723.45 2.883-.684 5.296-3.557 6.678-5.657 2.721-11.231 2.344-16.556-.983-2.774-1.733-4.803-4.16-6.172-7.203l-11.837 2.583c.05.21.071.323.104.431 2.438 8.094 7.474 13.802 15.486 16.707 5.247 1.902 10.69 2.231 16.199 1.701 3.785-.364 7.433-1.271 10.933-3.135Z" fill="#187ABA"/><path d="M61.34 76.274c-3.441 1.837-7.089 2.744-10.874 3.108-5.509.53-10.952.201-16.199-1.701-8.012-2.905-13.048-8.613-15.486-16.707-.033-.108-.054-.22-.104-.431l11.837-2.583c1.369 3.044 3.398 5.47 6.172 7.203 5.325 3.327 10.899 3.704 16.556.983 2.873-1.382 4.008-3.795 3.557-6.678-.257-1.648-1.156-2.935-2.542-3.723-2.153-1.223-4.367-2.37-6.645-3.338-4.223-1.792-8.54-3.36-12.76-5.159-2.804-1.195-5.375-2.834-7.761-4.758-9.68-7.802-7.732-20.45.398-26.78 3.829-2.98 8.217-4.537 12.984-5.094 5.06-.592 10.008-.08 14.731 1.888 5.762 2.401 9.951 7.294 11.95 13.839l-12.11 2.756c-.098-.168-.168-.26-.209-.362-1.567-3.948-4.584-5.968-8.704-6.376-2.798-.277-5.577-.044-8.147 1.232-2.083 1.033-3.606 2.531-3.54 5.081.043 1.726 1.036 2.95 2.266 4 2.117 1.809 4.587 3.032 7.145 4.056 3.771 1.51 7.604 2.864 11.363 4.402 3.56 1.456 6.883 3.35 9.887 5.79 7.553 6.139 7.616 14.686 4.118 21.61-1.729 3.423-4.479 5.89-7.883 7.742Z" fill="#FEFFFF"/></g></svg>