<svg xmlns="http://www.w3.org/2000/svg" viewBox="0 0 90 90"><path fill="#FFF" d="M0 0h90v90H0z"/><path d="M45.043 15s-7.783 4.69-12.373 8.158a84.864 84.864 0 0 0 13.387 9.053 24.58 24.58 0 0 0 10.166 2.667 16.148 16.148 0 0 0 9.572-3.627 54.181 54.181 0 0 0-10.512-9.67s-7.281-4.896-10.235-6.572M75 45.022s-4.652-7.801-8.105-12.407a85.047 85.047 0 0 0-9.088 13.367 24.541 24.541 0 0 0-2.694 10.163 16.154 16.154 0 0 0 3.59 9.587 54.247 54.247 0 0 0 9.7-10.489s4.904-7.272 6.597-10.22M44.962 75s7.785-4.687 12.375-8.158a84.822 84.822 0 0 0-13.383-9.049 24.54 24.54 0 0 0-10.17-2.666 16.143 16.143 0 0 0-9.57 3.624 54.2 54.2 0 0 0 10.51 9.671s7.281 4.895 10.235 6.573M15 44.962s4.652 7.808 8.088 12.414a84.685 84.685 0 0 0 9.105-13.351 24.557 24.557 0 0 0 2.712-10.159 16.177 16.177 0 0 0-3.58-9.591 54.175 54.175 0 0 0-9.71 10.475S16.699 42.015 15 44.962" fill="#0061AA"/></svg>