<svg xmlns="http://www.w3.org/2000/svg" viewBox="0 0 90 90"><path fill="#5433EB" d="M0 0h90v90H0z"/><path d="M17.575 43.192c-2.893-.636-4.182-.885-4.182-2.015 0-1.063.872-1.592 2.617-1.592 1.534 0 2.655.68 3.481 2.011.062.103.19.138.296.083l3.255-1.667c.117-.06.16-.21.094-.324-1.351-2.375-3.848-3.675-7.134-3.675C11.683 36.013 9 38.171 9 41.6c0 3.643 3.267 4.563 6.165 5.2 2.897.636 4.19.885 4.19 2.015 0 1.13-.943 1.663-2.824 1.663-1.736 0-3.025-.806-3.804-2.37a.227.227 0 0 0-.308-.103l-3.248 1.631a.237.237 0 0 0-.1.316c1.288 2.628 3.932 4.106 7.464 4.106 4.498 0 7.216-2.122 7.216-5.658 0-3.536-3.283-4.564-6.176-5.2v-.008Zm17.446-7.179c-1.846 0-3.477.664-4.65 1.846a.115.115 0 0 1-.194-.083v-7.543a.23.23 0 0 0-.23-.233h-4.073a.23.23 0 0 0-.23.233v23.41c0 .13.101.233.23.233h4.073a.23.23 0 0 0 .23-.233V43.374c0-1.983 1.499-3.504 3.52-3.504s3.485 1.49 3.485 3.504v10.269c0 .13.102.233.23.233h4.073a.23.23 0 0 0 .23-.233V43.374c0-4.314-2.788-7.357-6.694-7.357v-.004Zm14.966-.667c-2.212 0-4.291.683-5.779 1.675a.235.235 0 0 0-.074.312l1.796 3.11c.066.11.206.15.315.082a7.077 7.077 0 0 1 3.742-1.043c3.556 0 6.169 2.545 6.169 5.907 0 2.865-2.091 4.986-4.743 4.986-2.162 0-3.66-1.276-3.66-3.078 0-1.03.431-1.876 1.557-2.473a.23.23 0 0 0 .09-.324l-1.695-2.908a.227.227 0 0 0-.276-.099c-2.27.854-3.863 2.908-3.863 5.666 0 4.172 3.275 7.286 7.843 7.286 5.335 0 9.17-3.75 9.17-9.127 0-5.764-4.462-9.976-10.6-9.976l.008.004Zm22.503.636c-2.06 0-3.897.77-5.24 2.13a.114.114 0 0 1-.195-.084v-1.635a.23.23 0 0 0-.23-.233h-3.968a.23.23 0 0 0-.23.233v23.374c0 .13.101.233.23.233h4.073a.23.23 0 0 0 .23-.233v-7.665c0-.103.12-.154.194-.087 1.34 1.264 3.112 2.003 5.14 2.003 4.779 0 8.506-3.923 8.506-9.02 0-5.097-3.731-9.02-8.505-9.02l-.004.004Zm-.766 14.077c-2.718 0-4.778-2.193-4.778-5.093s2.056-5.092 4.778-5.092c2.722 0 4.774 2.157 4.774 5.092 0 2.936-2.025 5.093-4.778 5.093h.004Z" fill="#FFF"/></svg>