<svg viewBox="0 0 90 90" xmlns="http://www.w3.org/2000/svg"><g fill="none"><path fill="#5290FF" d="M0 0h90v90H0z"/><g fill="#FFF"><path d="m36.563 58.27 4.593-4.423 13.58-12.868 7.588-7.238 1.199-1.006c1.198-1.206 1.997-2.814 2.196-4.423v-.804l.2-4.825.2-7.842c0-2.01-.6-4.02-1.997-5.428C62.724 8.005 60.927 7.2 58.93 7.2L46.548 7h-.2c-1.997 0-3.594.804-5.192 2.01l-26.76 25.535C13 35.952 12.2 37.762 12 39.772c0 2.011.6 4.022 1.997 5.43l11.982 12.867c1.398 1.608 3.395 2.412 5.392 2.412 1.997-.2 3.794-.804 5.192-2.211Zm-6.19-14.275c-.2 0-.4 0-.6-.201l-1.198-1.207c-.4-.402-.2-.804 0-1.206l.2-.201c.2-.201.4-.804 0-1.005-.2-.403-.6-1.006-.799-1.609-.4-.804-.6-1.608-.998-2.413-.2-.402.2-.804.599-1.005l2.196-.804c.4-.201.999 0 .999.402 0 .201.2.603.2.804.599 1.81 1.397 3.217 2.196 4.021.799.805 1.198.805 1.598.403.4-.403 0-1.408-1.198-4.022-.4-.804-.6-1.407-.8-2.01-.598-2.01 0-3.418 1.199-4.625 1.198-1.206 2.796-1.407 4.393-.804l1.199.603c.2.201.798.201.998 0 .2-.402.799-.2.999 0l1.198 1.207c.4.402.4.804 0 1.206l.2-.201c-.2.201-.2.603 0 1.005.399.604.798 1.207.998 1.81l.6 1.206c.199.402 0 .804-.4 1.005l-1.798 1.006c-.399.2-.798 0-.998-.402 0-.201-.2-.201-.2-.402-.799-1.609-1.797-3.016-2.396-3.82-.6-.604-1.198-.604-1.398-.403-.4.402-.2 1.006 1.398 3.82.4.604.599 1.207.799 1.81.798 2.01.399 3.619-.999 5.227-1.398 1.609-3.395 1.81-5.392 1.006-.4-.201-.799-.402-1.198-.804-.4-.202-.799-.202-.998.2-.2.403-.4.403-.6.403Zm18.372-23.926c.4-.402.998-.804 1.797-.804h.6c.598 0 1.197.402 1.797.804.399.402.599.804.798 1.407v1.207c-.2.603-.4 1.005-.798 1.407-1.199 1.206-2.996 1.005-4.194-.201-.6-.603-.799-1.408-.799-2.212 0-.2.4-1.005.799-1.608Zm27.958 20.106L73.108 28.11c-.2-.402-.4-1.005-.599-1.407v1.005c0 .603 0 1.005-.2 1.608-.399 2.413-1.198 4.625-2.795 6.635-.4.604-.999 1.207-1.598 1.81l-1.198 1.005-1.198 1.207-6.39 6.232-3.795 3.62.4.2c.399.202.598.604.399 1.006v.2c-.2.403 0 .805.2 1.006.798.603 1.597 1.408 2.596 2.413.399.402.399.804 0 1.206l-1.398 1.609c-.2.2-.8.2-1.199 0-1.397-1.408-2.795-2.614-3.594-3.016-.6-.402-1.198-.201-1.398.2-.2.604.2 1.006 2.396 3.218 2.397 2.211 2.996 4.222 1.798 6.635-.999 2.412-3.395 3.217-6.191 2.211-.4 0-.799 0-.999.402-.2.201-.399.403-.798.403h-.4l-1.597-.805c-.4-.2-.6-.804-.4-1.206v-.201c.2-.402 0-.804-.2-1.005l-2.396-2.413-2.197 2.01c-1.797 1.81-3.994 3.016-6.59 3.418-.998.202-1.997.403-3.195.403-.799 0-1.597 0-2.396-.201 0 2.613 1.398 5.026 3.794 6.232l15.377 8.445c1.198.603 2.396.804 3.595.804.798 0 1.397 0 2.196-.402 1.997-.603 3.395-1.81 4.394-3.62l17.573-32.772c1.997-2.211 2.197-4.222 1.598-6.031Z"/><path d="M49.743 61.688c.999.603 1.598.402 1.798 0 .2-.603-.4-1.207-2.596-3.418-.4-.402-.8-.804-1.199-1.408L46.15 58.27c1.398 1.608 2.596 2.815 3.594 3.418Z"/></g></g></svg>