<svg viewBox="0 0 90 90" xmlns="http://www.w3.org/2000/svg"><defs><linearGradient x1="74.639%" y1="74.395%" x2="27.455%" y2="27.68%" id="a"><stop stop-color="#3B95C9" offset="0%"/><stop stop-color="#59B1E3" offset="100%"/></linearGradient><linearGradient x1="28.548%" y1="27.444%" x2="74.316%" y2="75.573%" id="b"><stop stop-color="#59B1E3" offset="0%"/><stop stop-color="#9BD0F0" offset="100%"/></linearGradient><linearGradient x1="91.561%" y1="32.203%" x2="-2.012%" y2="57.222%" id="c"><stop stop-color="#59B1E3" offset="0%"/><stop stop-color="#9BD0F0" offset="100%"/></linearGradient><linearGradient x1="102.945%" y1="41.519%" x2="9.387%" y2="69.913%" id="d"><stop stop-color="#59B1E3" offset="0%"/><stop stop-color="#9BD0F0" offset="100%"/></linearGradient><linearGradient x1="74.673%" y1="49.951%" x2="47.306%" y2="63.871%" id="e"><stop stop-color="#3B95C9" offset="0%"/><stop stop-color="#9BD0F0" stop-opacity="0" offset="100%"/></linearGradient></defs><g fill="none" fill-rule="evenodd"><path fill="#182336" d="M0 0h90v90H0z"/><g fill-rule="nonzero"><path fill="url(#a)" d="M20 0 0 20l20 20 20-20z" transform="translate(15 15)"/><path fill="url(#b)" d="M40 20 20 40l20 20 20-20z" transform="translate(15 15)"/><path fill="url(#c)" d="m20 0 20 20L60 0z" transform="translate(15 15)"/><path fill="url(#d)" d="M20 40 0 60h40z" transform="translate(15 15)"/><path fill="url(#e)" d="M20 40 0 60h40z" transform="translate(15 15)"/></g></g></svg>