<svg viewBox="0 0 90 90" xmlns="http://www.w3.org/2000/svg"><defs><linearGradient x1="100%" y1="0%" x2="0%" y2="100%" id="a"><stop stop-color="#4F147C" offset="0%"/><stop stop-color="#144FB7" offset="100%"/></linearGradient></defs><g fill="none" fill-rule="evenodd"><path fill="url(#a)" fill-rule="nonzero" d="M0 0h90v90H0z"/><path d="M60.022 19H30.065l-14.98 26 14.98 26h29.957L75 45z"/><path d="M72.71 41.167 59.94 19H34.394l6.056 10.503 1.848 3.21-2.207 3.834h-4.416l-1.848-3.211-6.052-10.507L15 45l12.77 22.167 6.056-10.507 1.848-3.211h4.416l2.209 3.838-1.852 3.21L34.395 71h25.548L72.71 48.833h-15.8L54.7 45l2.21-3.833h15.8ZM27.716 28.924l2.362 4.1-3.624 6.29h15.23l7.62-13.219h-7.25l-2.363-4.102h16.943L44.17 43.627H19.24l8.475-14.703ZM39.69 68.007l2.363-4.102h7.25l-7.62-13.225h-15.23l3.624 6.292-2.362 4.104-8.475-14.709h24.93l3.28 5.695 9.183 15.945H39.69Zm19.44-9.787 3.62-6.291h4.733l-8.476 14.705-7.476-12.969L46.537 45l5.912-10.26 6.557-11.374 8.476 14.705H62.75l-3.62-6.291L51.508 45l7.62 13.22Z" fill="#FFF" fill-rule="nonzero"/></g></svg>