<svg xmlns="http://www.w3.org/2000/svg" viewBox="0 0 90 90"><defs><linearGradient x1="139.055%" y1="-22.316%" x2="-83.622%" y2="140.674%" id="a"><stop stop-color="#41E6A5" offset="7%"/><stop stop-color="#34CAB8" offset="20%"/><stop stop-color="#1583EB" offset="47%"/><stop stop-color="#0A69FF" offset="57%"/></linearGradient><linearGradient x1="-.002%" y1="50.078%" x2="100.022%" y2="50.078%" id="b"><stop stop-color="#000C05" offset="15%"/><stop stop-color="#001410" offset="43%"/><stop stop-color="#00292D" offset="93%"/><stop stop-color="#002D32" offset="100%"/></linearGradient><linearGradient x1="57.239%" y1="-30.052%" x2="41.096%" y2="135.708%" id="c"><stop stop-color="#41E6A5" offset="8%"/><stop stop-color="#29B1CA" offset="30%"/><stop stop-color="#127DF0" offset="55%"/><stop stop-color="#0A69FF" offset="67%"/></linearGradient><linearGradient x1="91.361%" y1="62.684%" x2="9.442%" y2="39.899%" id="d"><stop offset="15%"/><stop stop-color="#001D21" offset="66%"/><stop stop-color="#002D32" offset="100%"/></linearGradient></defs><path fill="#FFF" d="M0 0h90v90H0z"/><path d="M53.12 50.421c-3.782-.24-7.723 1.337-13.128 3.529.692 3.128 1.97 5.961 2.396 6.843.08.187.293.24.48.187 9.452-2.86 13.42-5.293 14.032-8.073-.373-.828-1.012-2.299-3.78-2.459v-.027Z" fill="url(#a)" transform="translate(13 15)"/><path d="M38.9 41.493c-12.38 6.309-23.804 11.976-19.01 17.082l.213.133c1.65.909 3.86.615 5.831.16 3.488-.775 6.87-2.085 10.198-3.394 7.509-2.914 12.328-5.347 16.961-5.053 2.77.187 3.409 1.631 3.782 2.46.665-2.994-2.237-9.196-3.17-10.399-1.943-2.593-8.413-2.326-14.83-1.016l.026.027Z" fill="url(#b)" transform="translate(13 15)"/><path d="M52.4 17.782a54.5 54.5 0 0 0-4.18 0c-.453.401-1.012.855-1.678 1.337-2.662 1.924-7.03 4.437-13.02 7.458-16.669 8.447-19.065 11.601-20.29 16.36a14.027 14.027 0 0 0 1.704 9.676c1.278 2.433 2.476 4.358 4.953 5.988-8.894-9.383 36.798-20.583 42.922-34.19-.798-5.586-8.733-6.549-10.437-6.629h.026Z" fill="url(#c)" transform="translate(13 15)"/><path d="M10.17 31.175c.186.294.559.4.852.213 3.382-2.218 22.952-14.515 41.405-13.633 1.704.08 9.665 1.043 10.438 6.656 0 0 5.192-10.933-6.63-19.647C39.405-7.613 7.16 7.384.21 13.077a.643.643 0 0 0-.106.829L10.17 31.175Z" fill="url(#d)" transform="translate(13 15)"/></svg>