<svg viewBox="0 0 90 90" xmlns="http://www.w3.org/2000/svg"><g fill="none"><path d="M88.5 36.954c-1.377-4.25-5.294-7.108-9.736-7.108V16.405c0-2.424-1.973-4.405-4.39-4.405H17.377c-2.416 0-4.38 1.98-4.38 4.405v35.537c-3.515-.784-8.83-2.682-10.835-7.313L1 44.773c.617 5.106 5.583 10.75 12.008 11.543v17.28c0 2.423 1.974 4.404 4.38 4.404h56.997c2.416 0 4.39-1.98 4.39-4.405v-23.2c1.08 0 2.138-.165 3.166-.505 5.357-1.754 8.297-7.562 6.56-12.936Z" fill="#00A3FA"/><path d="M80.574 45.712c-3.074 1-6.374-.692-7.382-3.776-.997-3.084.689-6.396 3.753-7.406 3.074-1.001 6.374.69 7.381 3.775.997 3.084-.678 6.396-3.752 7.407Zm-15.184-3.9c-4.822 3.094-9.613 5.312-13.962 5.312-4.267 0-11.422-1.196-11.422-9.201h-5.233c0 6.746-2.488 9.201-4.164 9.201-2.57 0-4.164-2.156-4.164-12.884h-5.233c0 7.458-2.786 13.71-6.559 13.813-5.819.144-9.13-1.589-10.64-3.652l-2.365.289c2.025 4.621 7.957 7.685 13.036 7.685 3.413 0 6.313-1.805 8.379-4.92 1.337 2.857 3.619 4.92 7.536 4.92 2.817 0 5.634-1.61 7.454-5.065 2.858 3.24 7.474 5.065 13.375 5.065 5.202 0 10.548-2.29 15.791-5.519l-1.83-5.044Z" fill="#FFF"/></g></svg>