<svg xmlns="http://www.w3.org/2000/svg" viewBox="0 0 90 90"><path fill="#FFF" d="M0 0h90v90H0z"/><path d="M44.787 39.083a6.186 6.186 0 0 1-5.003-2.894h.016a6.13 6.13 0 0 1 1.536-8.25 6.158 6.158 0 0 1 8.348.99 6.252 6.252 0 0 1 1.45 4.802 24.502 24.502 0 0 1 10.574 5.852 17.853 17.853 0 0 0 1.276-6.631H63c0-2.266-.428-4.512-1.259-6.62a18.054 18.054 0 0 0-9.29-9.736 18.043 18.043 0 0 0-14.168-.286 17.674 17.674 0 0 0-4.985 3.051 18.26 18.26 0 0 0-3.744 4.453 17.871 17.871 0 0 0 .955 19.673c.382.508.781 1.001 1.211 1.48a17.878 17.878 0 0 1 13.065-5.885" fill="#A4E0DE"/><path d="M62.965 56.594a17.861 17.861 0 0 0-1.626-7.03 23.452 23.452 0 0 0-.823-1.59 17.512 17.512 0 0 0-2.2-2.974 18.001 18.001 0 0 1-12.587 5.868h-.095a2.586 2.586 0 0 0-.351.017h-.112a6.19 6.19 0 0 1 5.05 2.894h-.016a6.152 6.152 0 0 1-.534 7.266 6.18 6.18 0 0 1-7.103 1.678 6.16 6.16 0 0 1-3.74-6.258 24.42 24.42 0 0 1-10.612-5.876c-3.172 8.169.036 17.43 7.584 21.9 7.55 4.47 17.23 2.842 22.892-3.852a18.321 18.321 0 0 0 3.186-5.47 17.522 17.522 0 0 0 1.084-6.57" fill="#012E44"/><path d="M58.297 44.983a17.642 17.642 0 0 0-13.209-5.885h-.303a18.002 18.002 0 0 0-13.096 5.885l.016.017a18.136 18.136 0 0 0 13.288 5.885h.303c.117.002.234-.003.35-.017h.096A18.001 18.001 0 0 0 58.33 45a.05.05 0 0 0-.032-.017" fill="#012E44"/></svg>