<svg viewBox="0 0 90 90" xmlns="http://www.w3.org/2000/svg"><g fill="none" fill-rule="evenodd"><path fill="#FFF" d="M0 0h90v90H0z"/><path d="M76.402 51.134a13.27 13.27 0 0 0-1.5-12.187 13.181 13.181 0 0 0-4.721-4.185 13.117 13.117 0 0 0-9.01-1.174 16.918 16.918 0 0 0-6.435-7.846 16.809 16.809 0 0 0-19.298.631 16.932 16.932 0 0 0-5.912 8.25 5.518 5.518 0 0 0-2.427-.565 5.607 5.607 0 0 0-3.649 1.358 5.65 5.65 0 0 0-1.896 3.412 12.383 12.383 0 0 0-7.3 4.954 12.477 12.477 0 0 0 1.881 16.43 12.356 12.356 0 0 0 8.229 3.161H39.23a5.638 5.638 0 0 0 2.5 2.905 5.6 5.6 0 0 0 7.07-1.312 5.66 5.66 0 0 0 0-7.221 5.6 5.6 0 0 0-7.07-1.313 5.638 5.638 0 0 0-2.5 2.905H24.392a8.345 8.345 0 0 1-5.547-2.112 8.43 8.43 0 0 1-1.34-11.06 8.366 8.366 0 0 1 4.882-3.386 5.625 5.625 0 0 0 2.765 2.186c1.13.412 2.363.45 3.517.107a5.621 5.621 0 0 0 2.89-2.014 5.66 5.66 0 0 0 1.133-3.345v-.085a12.91 12.91 0 0 1 3.31-8.4 12.782 12.782 0 0 1 16.73-2.009 12.879 12.879 0 0 1 5.188 7.38 2.017 2.017 0 0 0 .931 1.262 2 2 0 0 0 1.973.036h.15a9.096 9.096 0 0 1 5.04-.34 9.12 9.12 0 0 1 4.449 2.404 9.182 9.182 0 0 1 2.496 4.41 9.212 9.212 0 0 1-.22 5.07h-.346a5.607 5.607 0 0 0-3.562 1.266 5.649 5.649 0 0 0-1.958 3.247 5.667 5.667 0 0 0 .53 3.757 5.631 5.631 0 0 0 2.781 2.57 5.6 5.6 0 0 0 3.773.222 5.622 5.622 0 0 0 3.06-2.228 5.663 5.663 0 0 0-.605-7.123l-.01-.018Zm-31.925 8.655a1.607 1.607 0 0 1 1.492.986 1.624 1.624 0 0 1-.33 1.763 1.61 1.61 0 0 1-1.748.373 1.612 1.612 0 0 1-1.016-1.476v-.056c.005-.424.176-.828.476-1.126a1.6 1.6 0 0 1 1.126-.464Zm-17.378-18.42a1.607 1.607 0 0 1-1.477-.98 1.624 1.624 0 0 1 .309-1.75 1.61 1.61 0 0 1 2.78 1.017v.292a1.62 1.62 0 0 1-.537 1.018c-.297.262-.68.405-1.075.402Zm45.284 15.315a1.607 1.607 0 0 1-1.495-.992 1.625 1.625 0 0 1 .344-1.767 1.608 1.608 0 0 1 2.481.241 1.623 1.623 0 0 1-.196 2.041c-.3.303-.708.475-1.134.477Z" fill="#0066F1" fill-rule="nonzero"/></g></svg>