<svg xmlns="http://www.w3.org/2000/svg" viewBox="0 0 90 90"><path fill="#FFF" d="M0 0h90v90H0z"/><g fill="#123333"><path d="M48.407 21.955c-7.275 3.766-11.214 11.533-7.26 21.245 3.7 8.98 12.208 19.423 12.334 19.547l-33.43-18.94c-.981-.483-2.103-.124-2.467.855-2.341 7.16 2.467 17.354 12.46 22.941 1.977 1.09 4.066 1.945 5.916 2.552 9.868 2.91 20.353-1.945 24.417-10.801l11.466-25.01c1.486-3.284 1.598-7.16 0-10.195-3.953-7.16-13.933-5.215-19.371-3.766-1.36.358-2.72.855-4.065 1.572Z"/><path d="M48.407 21.955c-7.275 3.766-11.214 11.533-7.26 21.245 3.7 8.98 12.208 19.423 12.334 19.547l-33.43-18.94c-.981-.483-2.103-.124-2.467.855-2.341 7.16 2.467 17.354 12.46 22.941 1.977 1.09 4.066 1.945 5.916 2.552 9.868 2.91 20.353-1.945 24.417-10.801l11.466-25.01c1.486-3.284 1.598-7.16 0-10.195-3.953-7.16-13.933-5.215-19.371-3.766-1.36.358-2.72.855-4.065 1.572Z"/></g></svg>