<svg viewBox="0 0 90 90" xmlns="http://www.w3.org/2000/svg"><g fill="#EB1F1F"><path d="M42.913 65.685c3.539-.453 6.895-1.542 9.98-3.266 7.621-4.264 11.976-11.522 12.339-20.504V41.1h10.615c-.635-5.353-2.722-10.252-5.716-14.426L59.335 33.57c3.266 5.17 3.72 10.796 1.18 16.512-2.904 6.895-9.8 12.792-17.602 15.604"/><path d="M76.028 42.732h-9.163c-.635 9.072-5.353 16.784-13.155 21.048-4.446 2.45-9.527 3.72-14.698 3.72-3.992 0-8.075-.726-11.976-2.177 4.718 2.903 9.98 4.536 15.424 4.536h.09c9.799 0 18.69-5.171 23.68-13.972l.453-.726 6.08 3.901c2.177-4.264 3.356-8.981 3.356-14.062 0-.726-.09-1.452-.09-2.268"/><path d="M42.55 71.492c-9.889 0-19.143-4.9-25.675-13.246C21.865 68.77 32.571 76.119 45 76.119c11.522 0 21.593-6.26 26.946-15.605l-4.809-2.994c-5.353 8.71-14.425 13.972-24.587 13.972"/><path d="M45 77.752c-18.054 0-32.752-14.607-32.752-32.752 0-18.054 14.607-32.752 32.752-32.752 18.145 0 32.752 14.607 32.752 32.752 0 18.054-14.698 32.752-32.752 32.752M45 0C20.141 0 0 20.141 0 45s20.141 45 45 45 45-20.141 45-45S69.859 0 45 0"/></g></svg>