<svg viewBox="0 0 90 90" xmlns="http://www.w3.org/2000/svg"><g fill="none"><path fill="#EF5A3C" d="M0 0h90v90H0z"/><g fill="#000"><path d="M54.727 16.288c2.774-.052 5.525.51 8.06 1.647a30.437 30.437 0 0 0-6.04-2.975 31.695 31.695 0 0 0-16.263-1.515 31.827 31.827 0 0 0-14.882 6.79c-.27.2-.987.865-1.27 1.102-.281.237-.927.877-1.174 1.185-.247.308-.799.841-1.175 1.185-.376.344-.834.984-1.08 1.292l-.847 1.114c-.223.308-.74 1.078-.951 1.387-.212.308-.353.58-.447.723-.094.142-.305.497-.364.592-.059.095-.611 1.114-.752 1.351-.14.237-.564 1.185-.728 1.517l-.553 1.292c0 .142-.423 1.185-.493 1.316-.07.13-.247.758-.34 1.066-.2.593-.377 1.28-.541 1.885-.094.367-.282 1.28-.364 1.647v.285a32.407 32.407 0 0 0 3.794 21.961c.388.64.917 1.517 1.363 2.122.165.248.459.675.647.912l.68.901 1.082 1.28 1.175 1.185c.223.202.575.58.81.77l.423.368.106.083.106.083.211.178c.27.225.611.462.893.663l.223.154.235.154c.247.166.682.439.952.581.27.142.353.213.482.273l.74.367c.235.119.54.25.764.344.552.225 1.174.427 1.691.616.306.071.635.178.94.261l.811.178.822.142c.946.142 1.9.213 2.855.213 2.331-.068 4.63-.57 6.78-1.481a18.514 18.514 0 0 0 6.037-4.198 18.7 18.7 0 0 0 3.949-6.232l.2-.521c0-.178.2-.64.258-.806.106-.427.259-.937.34-1.363 0-.154.095-.391.118-.545.136-.82.226-1.647.27-2.477v-.972c-.61 0-1.174-.083-1.809-.154a18.824 18.824 0 0 1-12.202-6.718 19.143 19.143 0 0 1-4.33-13.326 19.104 19.104 0 0 1 5.894-12.7 18.78 18.78 0 0 1 12.918-5.182h-.024ZM28.21 64.548a23.149 23.149 0 0 1-2.056-1.967 29.238 29.238 0 0 1-6.18-10.211 29.428 29.428 0 0 1 1.649-23.36 29.137 29.137 0 0 1 7.55-9.226c.235-.201.611-.462.846-.64.94-.704 1.92-1.35 2.937-1.932 3.266-1.835 6.86-3 10.574-3.425l1.375-.119h2.761l-1.375.107-1.362.178-1.352.225a28.582 28.582 0 0 0-11.38 4.82 28.875 28.875 0 0 0-8.323 9.194 29.202 29.202 0 0 0-2.173 24.22 28.626 28.626 0 0 0 5.005 8.747l.212.26.105.131.118.118a22.074 22.074 0 0 0 1.868 1.92 16.385 16.385 0 0 0 8.435 3.906c3.125.458 6.315 0 9.188-1.322a16.33 16.33 0 0 1-18.422-1.624Zm3.96-5.428-.212-.225-.118-.107-.787-.805a25.91 25.91 0 0 1-5.393-8.743 26.08 26.08 0 0 1 .886-20.163 25.854 25.854 0 0 1 6.14-8.226 25.39 25.39 0 0 1 2.526-1.968c.494-.332 1.105-.735 1.622-1.019.517-.284 1.174-.628 1.691-.9.2-.107.388-.167.576-.261.188-.095.705-.32.881-.38a24.602 24.602 0 0 1 6.427-1.612c.329 0 .916-.094 1.245-.106h.94c.942-.014 1.883.026 2.82.118a27.959 27.959 0 0 0-4.335.391 25.581 25.581 0 0 0-11.354 4.924 25.88 25.88 0 0 0-7.762 9.702 25.644 25.644 0 0 0-2.129 13.054 25.58 25.58 0 0 0 4.655 12.368c.2.249.529.723.74.972.353.438.8.971 1.175 1.386a14.174 14.174 0 0 0 8.04 4.591c3.111.584 6.327.103 9.137-1.367-5.252 3.733-12.794 2.69-17.412-1.624Zm3.183-8.533a19.307 19.307 0 0 0 3.525 3.876 12.992 12.992 0 0 0 5.689 2.681c2.084.413 4.237.306 6.271-.311a12.465 12.465 0 0 1-10.656-.308 14.818 14.818 0 0 1-4.453-3.39 22.561 22.561 0 0 1-4.807-8.197 22.705 22.705 0 0 1 1.935-18.516 22.444 22.444 0 0 1 6.397-7.005c.258-.19.658-.439.94-.617.517-.343 1.175-.675 1.68-.972.505-.296.87-.426 1.257-.592a21.542 21.542 0 0 1 7.484-1.719H52.8l.81.071c.447 0 .894.119 1.34.178h-2.42a23.56 23.56 0 0 0-6.015 1.185 21.844 21.844 0 0 0-8.643 5.316 22.099 22.099 0 0 0-5.345 8.67 22.254 22.254 0 0 0-.904 10.17 22.179 22.179 0 0 0 3.73 9.492v-.012Z"/><path d="m37.374 35.76-.658-.059v.06c.509 0 1.014.035 1.515.106l-.857-.107Z"/><path d="M65.371 69.763c.259-.201.987-.865 1.269-1.102l1.175-1.185 1.175-1.185c.27-.32.834-.972 1.08-1.292l.847-1.114c.223-.308.74-1.079.951-1.387l.447-.723c.07-.095.305-.498.364-.592.059-.095.61-1.103.74-1.352.13-.248.576-1.185.74-1.517.165-.331.388-.912.552-1.291 0-.13.423-1.186.482-1.316.059-.13.259-.758.353-1.067.2-.592.376-1.28.54-1.884.094-.367.27-1.28.364-1.648v-.272a32.383 32.383 0 0 0-3.795-21.962c-.387-.651-.916-1.517-1.362-2.133a16 16 0 0 0-.647-.912l-.681-.89c-.235-.272-.858-1.03-1.093-1.291-.235-.26-.775-.842-1.175-1.185-.211-.202-.575-.581-.799-.77l-.422-.356-.106-.095-.106-.083-.223-.178c-.259-.225-.6-.462-.881-.664l-.235-.154-.224-.154c-.258-.166-.68-.438-.951-.58-.27-.143-.353-.214-.482-.273l-.74-.367-.764-.344c-.552-.225-1.175-.427-1.692-.616l-.94-.25-.81-.189-.823-.142a19.21 19.21 0 0 0-2.855-.214c-2.33.069-4.629.57-6.779 1.482a18.512 18.512 0 0 0-6.037 4.197 18.699 18.699 0 0 0-3.949 6.233l-.2.533c-.059.166-.2.628-.258.794-.118.427-.259.936-.341 1.363 0 .154-.094.391-.117.545-.151.83-.25 1.67-.294 2.513v1.031c2.487.029 4.943.557 7.226 1.555a18.714 18.714 0 0 1 6.066 4.254 18.901 18.901 0 0 1 3.961 6.292 19.029 19.029 0 0 1 1.24 7.348 19.563 19.563 0 0 1-2.615 8.969 19.361 19.361 0 0 1-6.462 6.7 19.12 19.12 0 0 1-17.946 1.279 31.164 31.164 0 0 0 6.04 2.986 31.73 31.73 0 0 0 16.296 1.49 31.864 31.864 0 0 0 14.896-6.835Zm-2.585-44.35a25.27 25.27 0 0 1 2.08 1.968 29.384 29.384 0 0 1 7.843 20.855 29.354 29.354 0 0 1-9.018 20.366c-.282.26-.74.711-1.046.948l-.54.45-.282.237-.13.107-.704.533a28.79 28.79 0 0 1-2.96 1.92l-1.246.664a27.535 27.535 0 0 1-13.488 2.868 29.346 29.346 0 0 0 19.844-9.268 28.89 28.89 0 0 0 7.705-18.204 28.939 28.939 0 0 0-5.778-18.916c-.247-.355-.576-.723-.846-1.055l-.212-.26-.105-.13-.106-.131a16.428 16.428 0 0 0-8.989-5.607 16.317 16.317 0 0 0-10.514 1.068 16.33 16.33 0 0 1 18.492 1.588Zm-4.7 4.741c.377.297.753.652 1.105.972a25.847 25.847 0 0 1 6.584 10.58 26.03 26.03 0 0 1 .89 12.459 25.923 25.923 0 0 1-5.015 11.421 25.624 25.624 0 0 1-9.743 7.71l-.587.248-.141.06-.153.059-.294.118c-.305.107-.87.332-1.175.427a24.096 24.096 0 0 1-9.951 1.066 28.576 28.576 0 0 0 4.934-.521 25.604 25.604 0 0 0 10.952-5.05 25.896 25.896 0 0 0 7.47-9.528 25.61 25.61 0 0 0 2.085-13.318 25.536 25.536 0 0 0-4.963-12.519c-.211-.296-.529-.664-.752-.948-.223-.284-.693-.782-1.01-1.185a14.168 14.168 0 0 0-7.991-4.358 14.095 14.095 0 0 0-8.974 1.419c4.97-3.556 12.1-2.845 16.742.936l-.012-.048Zm-12.57 42.442.975-.415.951-.462c.365-.178.8-.439 1.175-.64l1.116-.7c.318-.225.764-.533 1.07-.77a22.025 22.025 0 0 0 8.353-13.613 22.157 22.157 0 0 0-3.008-15.72l-.575-.877-.623-.842-.658-.83a16.253 16.253 0 0 0-2.209-2.204 13.014 13.014 0 0 0-5.678-2.672 12.956 12.956 0 0 0-6.259.302A12.727 12.727 0 0 1 52.8 34.587a17.685 17.685 0 0 1 3.278 3.081 22.503 22.503 0 0 1 4.794 9.794 22.61 22.61 0 0 1-.361 10.916 22.47 22.47 0 0 1-5.431 9.45 22.2 22.2 0 0 1-9.212 5.74 20.97 20.97 0 0 1-9.763.652c3.214.12 6.419-.416 9.422-1.577l-.011-.047Z"/></g></g></svg>