<svg viewBox="0 0 90 90" xmlns="http://www.w3.org/2000/svg"><g fill="none"><path fill="#14191D" d="M0 0h90v90H0z"/><path d="M41.899 34.279c11.157-4.409 15.382 3.284 16.469 9.583l3.035-.051c-.522-3.413-1.904-7.628-4.977-10.545a11.811 11.811 0 0 0-6.642-3.183c-2.09-.286-4.368-.077-6.835.646C40.593 28.125 36.32 25 30.542 25c-8.26 0-14.034 6.622-15.329 13.172-1.777.363-3.761 1.13-5.528 2.529C6.94 42.875 5 46.362 5 51.357c0 5.156 2.066 8.71 4.903 10.895C12.6 64.328 15.765 65 17.943 65h40.869l.142-.014c1.695-.162 3.874-1.032 5.634-2.94 1.08-1.172 1.945-2.668 2.47-4.51h-3.166c-1.237 3.182-3.766 4.307-5.223 4.447H17.942c-3.313 0-9.938-2.125-9.938-10.626 0-8.246 6.234-10.374 9.63-10.437.106-.002.209-.002.308 0 0-.116.002-.233.006-.35l.002-.048c.221-5.882 5.303-12.505 12.592-12.505 5.962 0 10.056 4.175 11.357 6.262Z" fill="#0075FF"/><path d="M20.992 55.93c-1.31 0-2.368-.26-3.173-.778-.385-.23-.577-.555-.577-.978 0-.241.066-.434.198-.579a.613.613 0 0 1 .487-.235c.204 0 .487.096.847.29.385.18.733.32 1.046.416.324.096.733.145 1.226.145.504 0 .895-.085 1.171-.254.289-.169.433-.404.433-.706a.664.664 0 0 0-.18-.489c-.108-.12-.313-.229-.613-.326-.289-.108-.733-.229-1.334-.362-1.07-.217-1.839-.525-2.307-.923-.457-.398-.685-.947-.685-1.647 0-.531.156-1.008.468-1.43.313-.435.74-.767 1.28-.996.553-.241 1.178-.362 1.875-.362.505 0 .991.066 1.46.2.469.12.89.3 1.262.542.384.242.577.561.577.96a.968.968 0 0 1-.199.615.613.613 0 0 1-.486.235 1.15 1.15 0 0 1-.397-.072 11.45 11.45 0 0 1-.469-.253 6.484 6.484 0 0 0-.9-.399c-.253-.096-.566-.144-.938-.144-.445 0-.8.09-1.064.271a.865.865 0 0 0-.378.742c0 .302.132.531.396.688.265.157.775.314 1.532.47.806.17 1.437.363 1.893.58.457.217.781.489.974.815.204.326.306.742.306 1.249 0 .82-.342 1.478-1.027 1.973-.673.495-1.575.742-2.704.742Zm13.4-1.9c.24.229.36.488.36.778 0 .277-.102.525-.307.742a.886.886 0 0 1-.684.326c-.265 0-.511-.109-.74-.326l-4.218-3.838v3.096c0 .35-.108.615-.324.796-.216.181-.487.272-.811.272-.325 0-.595-.09-.812-.272-.204-.18-.306-.446-.306-.796V44c0-.35.102-.616.306-.797.217-.18.487-.271.812-.271.324 0 .595.09.81.271.217.181.325.447.325.797v6.806l3.858-3.71c.216-.218.463-.327.739-.327.276 0 .517.103.721.308a.993.993 0 0 1 .307.724c0 .278-.115.531-.343.76l-2.83 2.643 3.136 2.825Zm7.793-6.626c.097-.217.223-.374.379-.47a.979.979 0 0 1 .54-.164c.277 0 .524.097.74.29.228.181.342.41.342.688a.934.934 0 0 1-.108.416L39.157 58.52c-.204.41-.523.615-.955.615a1.12 1.12 0 0 1-.74-.271.807.807 0 0 1-.306-.652c0-.133.036-.283.108-.452l1.226-2.589-3.353-7.006a.922.922 0 0 1-.09-.416c0-.278.114-.513.342-.706.24-.193.511-.29.812-.29.204 0 .39.055.559.163.168.097.3.254.396.47l2.524 5.595 2.505-5.576Zm8.461-.688c1.058 0 1.845.302 2.362.905.517.604.775 1.515.775 2.734v4.453c0 .338-.102.603-.307.796-.192.193-.462.29-.81.29-.35 0-.626-.097-.83-.29-.204-.193-.306-.458-.306-.796V50.48c0-.688-.133-1.188-.397-1.502-.252-.314-.655-.47-1.208-.47-.649 0-1.171.204-1.568.615-.385.41-.577.96-.577 1.647v4.037c0 .338-.102.603-.306.796-.205.193-.481.29-.83.29-.348 0-.624-.097-.829-.29-.192-.193-.288-.458-.288-.796v-7.006c0-.314.102-.567.306-.76.205-.193.481-.29.83-.29.312 0 .564.097.757.29.204.18.306.422.306.724v.489c.3-.495.703-.875 1.208-1.14.505-.266 1.075-.399 1.712-.399Zm9.445 9.214c-.9 0-1.694-.187-2.379-.561a3.89 3.89 0 0 1-1.568-1.611c-.373-.7-.56-1.515-.56-2.444 0-.93.187-1.738.56-2.426a3.89 3.89 0 0 1 1.568-1.61c.685-.375 1.478-.562 2.38-.562.9 0 1.688.187 2.36.561a3.75 3.75 0 0 1 1.57 1.611c.372.688.558 1.497.558 2.426 0 .93-.186 1.744-.559 2.444a3.75 3.75 0 0 1-1.568 1.611c-.673.374-1.46.561-2.362.561Zm-.018-1.756c.734 0 1.292-.241 1.677-.724.384-.483.577-1.195.577-2.136 0-.93-.193-1.635-.577-2.118-.385-.495-.938-.742-1.659-.742-.72 0-1.28.247-1.676.742-.385.483-.577 1.189-.577 2.118 0 .941.192 1.653.577 2.136.385.483.937.724 1.658.724Zm13.722-11.241c.337 0 .613.096.83.29a.97.97 0 0 1 .323.76v10.825c0 .326-.101.585-.306.778-.204.193-.475.29-.81.29-.337 0-.608-.097-.812-.29-.204-.193-.307-.452-.307-.778v-.453a2.815 2.815 0 0 1-1.153 1.159c-.493.277-1.058.416-1.695.416a3.686 3.686 0 0 1-2.037-.579c-.589-.386-1.051-.93-1.388-1.63-.324-.711-.486-1.526-.486-2.443s.162-1.72.486-2.408c.337-.688.8-1.219 1.388-1.593.59-.374 1.268-.561 2.037-.561.637 0 1.202.133 1.695.398.492.266.871.64 1.135 1.123v-4.29c0-.302.097-.544.289-.725.204-.193.474-.29.811-.29ZM70.46 54.174c.721 0 1.274-.247 1.659-.742.396-.495.594-1.2.594-2.118 0-.917-.198-1.617-.594-2.1-.385-.495-.932-.742-1.64-.742-.722 0-1.28.241-1.677.724s-.595 1.177-.595 2.082c0 .917.198 1.63.595 2.136.396.507.95.76 1.658.76Zm13.783-.814a.58.58 0 0 1 .486.235c.133.157.198.368.198.634 0 .374-.221.687-.666.941-.409.23-.871.416-1.388.561-.517.133-1.01.2-1.478.2-1.419 0-2.542-.411-3.371-1.232-.83-.82-1.244-1.943-1.244-3.367 0-.905.18-1.707.54-2.407.361-.7.866-1.243 1.515-1.63.66-.386 1.406-.579 2.235-.579.793 0 1.485.175 2.073.525.59.35 1.045.845 1.37 1.484.325.64.487 1.394.487 2.263 0 .52-.228.779-.685.779h-5.318c.072.832.307 1.448.703 1.846.397.386.974.58 1.73.58.385 0 .722-.049 1.01-.145.3-.097.637-.23 1.01-.399.36-.193.625-.29.793-.29Zm-3.119-5.05c-.613 0-1.106.192-1.478.578-.36.387-.577.942-.649 1.666h4.074c-.024-.736-.204-1.291-.54-1.666-.337-.386-.806-.579-1.407-.579Z" fill="#FFF"/></g></svg>