<svg xmlns="http://www.w3.org/2000/svg" viewBox="0 0 90 90"><defs><linearGradient x1="42.249%" y1=".607%" x2="57.751%" y2="99.393%" id="a"><stop stop-color="#00B7F0" offset="1.2%"/><stop stop-color="#009DE5" offset="33.9%"/><stop stop-color="#0082D9" offset="75.5%"/><stop stop-color="#0078D4" offset="100%"/></linearGradient><linearGradient x1="6.979%" y1="75.066%" x2="93.015%" y2="24.934%" id="b"><stop stop-color="#0078D4" offset="0%"/><stop stop-color="#007AD5" offset="37%"/><stop stop-color="#0082D9" offset="57.3%"/><stop stop-color="#0090DF" offset="73.5%"/><stop stop-color="#00A3E7" offset="87.5%"/><stop stop-color="#00BCF2" offset="100%"/></linearGradient><linearGradient x1="30.603%" y1="16.095%" x2="80.192%" y2="102.784%" id="c"><stop stop-color="#00B7F0" offset="0%"/><stop stop-color="#007CC1" offset="100%"/></linearGradient></defs><path fill="#FFF" d="M0 0h90v90H0z"/><path d="M37.717 18.915c0 10.446-8.443 18.915-18.858 18.915C8.443 37.83 0 29.361 0 18.915S8.443 0 18.859 0c10.415 0 18.858 8.469 18.858 18.915" fill="url(#a)" transform="translate(13 13)"/><path d="M64 46.079a18.95 18.95 0 0 1-5.525 13.379A18.837 18.837 0 0 1 45.135 65c-10.42 0-18.865-8.471-18.865-18.921s8.446-18.922 18.865-18.922a18.84 18.84 0 0 1 13.34 5.542A18.95 18.95 0 0 1 64 46.079" fill="url(#b)" transform="translate(13 13)"/><path d="M13.069 33.534c.815 9.938 9.135 17.546 19.044 17.414 9.909-.133 18.025-7.962 18.576-17.919.551-9.957-6.65-18.644-16.483-19.884-9.722 3.273-17.477 10.753-21.137 20.389Z" opacity=".05"/><path d="M76.95 57.72c-.685-10.07-9.08-17.838-19.11-17.682-10.027.155-18.181 8.18-18.558 18.266-.377 10.086 7.155 18.705 17.143 19.618 9.451-3.386 16.953-10.77 20.525-20.204v.002Z" opacity=".05"/><path d="M13.952 37.858c2.73 8.408 10.875 13.8 19.629 12.997 8.754-.803 15.794-7.589 16.969-16.356 1.175-8.766-3.828-17.186-12.058-20.294-12 2.516-21.525 11.696-24.54 23.653Z" opacity=".1"/><path d="M76.094 53.274C73.4 44.761 65.172 39.292 56.334 40.14c-8.837.848-15.89 7.785-16.934 16.656-1.045 8.872 4.2 17.275 12.596 20.18 11.844-2.676 21.17-11.85 24.098-23.703Z" opacity=".1"/><path d="M14.645 39.652c3.372 7.646 11.324 12.166 19.571 11.124 8.248-1.04 14.844-7.397 16.235-15.644 1.39-8.247-2.753-16.437-10.197-20.158-12.834 2.01-23.058 11.863-25.61 24.678Z" opacity=".1"/><path d="M75.398 51.443C72.042 43.705 64.007 39.13 55.687 40.22c-8.32 1.09-14.924 7.582-16.2 15.927-1.276 8.345 3.082 16.535 10.692 20.092 12.717-2.175 22.763-12.053 25.22-24.796Z" opacity=".1"/><path d="M61.873 32.64a30.004 30.004 0 0 1-8.749 21.185 29.825 29.825 0 0 1-21.12 8.774 29.825 29.825 0 0 1-21.122-8.774A30.004 30.004 0 0 1 2.134 32.64a30.004 30.004 0 0 1 8.748-21.184 29.825 29.825 0 0 1 21.121-8.775c7.922 0 15.52 3.157 21.121 8.775a30.004 30.004 0 0 1 8.749 21.184" fill="url(#c)" transform="translate(13 13)"/><path d="M36.604 44.6a9.418 9.418 0 0 1-2.943-3.123 8.68 8.68 0 0 1-1.008-4.319 7.792 7.792 0 0 1 1.817-5.226 10.934 10.934 0 0 1 4.737-3.185 18.187 18.187 0 0 1 6.201-1.05 23.932 23.932 0 0 1 4.125.318c.976.152 1.935.4 2.862.743.85.29 1.62.784 2.239 1.439.456.539.702 1.227.691 1.935a2.814 2.814 0 0 1-.728 2.017 2.413 2.413 0 0 1-1.828.767 3.275 3.275 0 0 1-1.358-.308 24.519 24.519 0 0 0-3.236-1.191 11.675 11.675 0 0 0-3.118-.39 7.081 7.081 0 0 0-3.906 1.005 3.275 3.275 0 0 0-1.558 2.936 2.963 2.963 0 0 0 .81 2.064 7.378 7.378 0 0 0 2.18 1.571c.915.457 2.278 1.062 4.091 1.816.2.064.397.143.586.236a28.993 28.993 0 0 1 5.064 2.62 10.245 10.245 0 0 1 3.117 3.22 8.536 8.536 0 0 1 1.126 4.471 9.035 9.035 0 0 1-1.558 5.391 9.272 9.272 0 0 1-4.36 3.257 18.276 18.276 0 0 1-6.554 1.074 20.535 20.535 0 0 1-8.933-1.7 4.866 4.866 0 0 1-1.84-1.44 3.25 3.25 0 0 1-.598-1.958 2.567 2.567 0 0 1 .786-1.993 2.885 2.885 0 0 1 2.026-.72 5.157 5.157 0 0 1 2.369.613c.907.457 1.622.8 2.146 1.027a10.575 10.575 0 0 0 4.231.837 6.322 6.322 0 0 0 3.998-1.073 3.552 3.552 0 0 0 1.348-2.938 3.13 3.13 0 0 0-.844-2.145 8.975 8.975 0 0 0-2.485-1.82c-1.095-.58-2.635-1.288-4.62-2.123a28.552 28.552 0 0 1-5.075-2.654" fill="#FFF"/></svg>