<svg viewBox="0 0 90 90" xmlns="http://www.w3.org/2000/svg"><path d="M36.054 16.177c-9.071 1.278-15.894 9.21-16.086 18.69-9.921 0-17.964 8.76-17.964 19.563-.183 9.613 6.512 17.89 15.681 19.387l55.912-34.709c-2.985-6.85-10.09-10.714-17.23-9.368-2.621-9.086-11.24-14.841-20.313-13.563Zm14.716 57.82L54.7 69h-4.308l-4.755 5H23.81l50.073-33.72 3.852 5.394L68.749 74H50.773l-.003-.001Zm24.398-.039V74h-2.567l6.246-27.558c6.142 2.232 9.915 8.637 9.023 15.316-.893 6.678-6.205 11.78-12.702 12.2ZM57.388 61.67l3.807-4.002 2.654.002-3.146 4h-3.315Zm11.755-12.33-2.827 2.969h1.986l2.334-2.97h-1.493Z" fill="#277DFF" fill-rule="evenodd"/></svg>