<svg viewBox="0 0 90 90" xmlns="http://www.w3.org/2000/svg"><g fill="none" fill-rule="evenodd"><path fill="#066756" d="M0 0h90v90H0z"/><path d="M32.708 23.4h23.2c11.465 0 20.93 9.155 20.93 20.832v21.52h-44.13c-11.465 0-20.758-9.5-20.758-21.175C11.95 32.9 21.243 23.4 32.708 23.4Zm21.52 37.37c4.914 0 9.359-1.994 12.554-4.959 3.132-2.906 5.064-7.05 5.064-11.451 0-8.892-7.888-15.977-17.619-15.977H34.56c-9.73 0-17.619 7.302-17.619 16.194S24.83 60.77 34.56 60.77h19.667Zm-4.897-20.4a3.182 3.182 0 0 0 3.173-3.19c0-1.762-1.42-3.19-3.173-3.19a3.182 3.182 0 0 0-3.15 3.557l-5.69 4.23a3.135 3.135 0 0 0-1.036-.178 3.181 3.181 0 0 0-3.173 3.19c0 1.762 1.42 3.19 3.173 3.19.447 0 .87-.093 1.256-.26l5.461 3.956a3.182 3.182 0 0 0 3.159 3.49 3.182 3.182 0 0 0 3.173-3.19c0-1.76-1.42-3.19-3.173-3.19a3.13 3.13 0 0 0-1.195.237l-5.52-3.998.001-.017c.005-.072.01-.144.01-.218 0-.157-.014-.31-.036-.461l5.61-4.17c.352.134.732.212 1.13.212Z" fill="#FFF"/></g></svg>