<svg viewBox="0 0 90 90" xmlns="http://www.w3.org/2000/svg"><g fill="none"><path d="M86.513 25.035 48.488 2.843C47.529 2.282 46.264 2 45 2c-1.264 0-2.527.28-3.485.843L3.488 25.035C1.57 26.155 0 28.902 0 31.14v48.455l15.908-9.284V36.353l25.61-14.952a6.9 6.9 0 0 1 6.968 0l25.61 14.952v33.958L90 79.595V31.14c0-2.238-1.569-4.985-3.487-6.105Z" fill="#5BC6CC"/><path d="M0 79.678 41.515 55.36c.96-.56 2.22-.846 3.485-.846 1.264 0 2.53.282 3.488.846L90 79.68 74.094 89 48.486 73.985a6.886 6.886 0 0 0-6.969 0L15.904 89 0 79.678Z" fill="#5BC6CC"/><path d="M15.652 36.517 1.01 27.865C.394 28.967 0 30.208 0 31.324v48.27l15.652-9.247v-33.83Zm58.696 0v33.83L90 79.595V31.324c0-1.116-.386-2.357-1.008-3.459l-14.644 8.652Z" fill="#00ACA0"/><path d="M15.652 70.19V89L0 79.597l15.652-9.408Zm58.696 0V89L90 79.597l-15.652-9.408Z" fill="#00927C"/></g></svg>