<svg xmlns="http://www.w3.org/2000/svg" viewBox="0 0 90 90"><path fill="#FFF" d="M0 0h90v90H0z"/><g fill="#EB7324"><path d="M42.588 41.562c-12.164-4.483-15.251-13.88-12.98-20.714a17.883 17.883 0 0 1 1.26-2.897.822.822 0 0 0-.13-.946.725.725 0 0 0-.905-.114C20.69 22.424 15 32.648 15 43.567a31.37 31.37 0 0 0 5.3 17.543c3.208 4.788 7.892 8.588 13.554 10.968C36.899 73.36 39.843 74 42.81 74c.765 0 1.53-.043 2.29-.126 8.054-.882 12.125-5.69 12.125-14.29 0-6.157-5.47-14.582-14.64-18.025m8.998 18.025c0 5.658-1.85 7.865-7.078 8.442-4.344.473-7.984-.619-13.433-4.042a13.98 13.98 0 0 1-1.963-1.438c-4.34-3.87-7.221-9.157-8.147-14.952a25.639 25.639 0 0 1 3.076-16.807c2.112 7.19 8.214 13.208 16.65 16.308 6.514 2.456 10.889 8.44 10.889 12.492"/><path d="M73.577 34.17a30.96 30.96 0 0 0-4.102-8.487 25.044 25.044 0 0 0-7.059-6.74c-2.493-1.56-4.373-2.515-7.22-3.156a32.51 32.51 0 0 0-7.15-.787c-8.776 0-12.707 4.902-12.707 9.775 0 6.235 4.443 9.06 14.396 13.05C62.426 42.749 67.84 49.164 67.84 59.273a22.01 22.01 0 0 1-.102 2.173.81.81 0 0 0 .11.486.782.782 0 0 0 .373.323.82.82 0 0 0 .272.051.751.751 0 0 0 .603-.314A31.345 31.345 0 0 0 75 43.567a32.033 32.033 0 0 0-1.428-9.397m-4.213 9.43a.359.359 0 0 1-.061.22.348.348 0 0 1-.181.136.364.364 0 0 1-.451-.136c-3.546-4.69-9.095-8.45-16.978-11.513-9.219-3.695-10.707-5.25-10.707-7.538 0-2.446 2.634-3.895 7.057-3.895 2.008 0 4.01.217 5.973.65 1.315.286 2.582.764 3.763 1.418a21 21 0 0 1 8.495 8.399 25.742 25.742 0 0 1 3.097 12.22l-.007.039Z"/></g></svg>