<svg viewBox="0 0 90 90" xmlns="http://www.w3.org/2000/svg"><g fill="none"><path fill="#FFF" d="M0 0h90v90H0z"/><path d="M50.474 61c-.337 0-.674-.083-.927-.333-.59-.417-.758-1.25-.336-1.916.084-.167 9.515-15.662 4.631-23.326-1.01-1.583-2.105-2.5-3.368-2.5-2.358-.083-4.969 2.5-5.81 3.583-.506.666-1.432.75-2.106.25-.674-.5-.758-1.417-.253-2.083.169-.167 3.874-4.915 8.253-4.665 2.274.083 4.21 1.416 5.726 3.915 3.621 5.748 1.095 14.412-1.431 20.16 2.61-1.832 5.894-3.582 8.926-4.082.842-.083 1.6.417 1.684 1.25.084.833-.42 1.583-1.263 1.666-5.81.917-12.716 7.581-12.8 7.664-.168.334-.59.417-.926.417Z" fill="#ABD3FF"/><path d="M14.179 48.754c0 .75-.168 1.5-.59 2.082a4.29 4.29 0 0 1-1.768 1.417c-.758.333-1.684.5-2.779.5-.842 0-1.6-.084-2.19-.167-.589-.083-1.178-.333-1.852-.583v-3a9.023 9.023 0 0 0 2.105.75c.674.167 1.348.25 1.937.25.505 0 .926-.083 1.18-.25.252-.166.336-.416.336-.666a.633.633 0 0 0-.169-.417c0-.166-.168-.333-.42-.416-.253-.167-.843-.417-1.769-.833-.842-.333-1.516-.75-1.937-1.083-.42-.333-.758-.75-.926-1.166-.169-.417-.337-1-.337-1.583 0-1.167.421-2.083 1.347-2.666.842-.667 2.106-1 3.621-1 1.348 0 2.78.333 4.127.917l-1.01 2.499c-1.264-.5-2.274-.833-3.2-.833-.422 0-.759.083-1.011.25-.169.166-.337.416-.337.583 0 .25.168.5.42.666.254.167 1.011.583 2.19 1.083 1.095.5 1.937 1 2.358 1.583a3.43 3.43 0 0 1 .674 2.083Zm7.41 3.832-2.694-9.08h-.084c.084 1.582.168 2.749.168 3.582v5.415h-3.116V40.006h4.716l2.779 8.914h.084l2.61-8.914h4.716v12.58h-3.284V46.17s.084-1.166.084-2.582h-.084l-2.61 8.997h-3.285Zm17.095 0h-3.537v-9.83h-3.2v-2.75h9.937v2.75h-3.2v9.83Zm14.232-8.58c0 1.415-.421 2.498-1.263 3.248-.842.75-2.106 1.167-3.706 1.167h-1.01v4.165H43.4v-12.58h4.547c1.685 0 2.948.334 3.706 1 .842.75 1.263 1.75 1.263 3Zm-5.98 1.665h.675c.505 0 .926-.166 1.263-.416.337-.25.505-.667.505-1.166 0-.834-.505-1.25-1.516-1.25h-.926v2.832Zm18.19-.416h5.642v6.748c-1.515.5-3.2.75-5.052.75-2.021 0-3.621-.584-4.716-1.667-1.095-1.083-1.684-2.749-1.684-4.831 0-2 .59-3.583 1.852-4.749 1.18-1.166 2.948-1.666 5.053-1.666.842 0 1.6.083 2.358.25.758.166 1.347.333 1.937.583l-1.18 2.582a7.727 7.727 0 0 0-3.115-.666c-1.01 0-1.853.333-2.442 1-.59.666-.842 1.583-.842 2.749 0 1.166.252 2.083.758 2.666.505.583 1.263.916 2.19.916.504 0 1.01-.083 1.43-.167v-1.999h-2.189v-2.5Zm19.874 1c0 2.082-.505 3.748-1.6 4.831-1.095 1.083-2.695 1.667-4.8 1.667-2.021 0-3.621-.584-4.716-1.667-1.095-1.083-1.684-2.749-1.684-4.831 0-2.083.59-3.666 1.6-4.832 1.01-1.167 2.695-1.666 4.8-1.666s3.705.583 4.716 1.666C84.326 42.506 85 44.172 85 46.255Zm-9.01 0c0 2.415.926 3.665 2.694 3.665.927 0 1.6-.333 2.021-.916.421-.583.674-1.5.674-2.75s-.253-2.165-.674-2.749c-.42-.583-1.094-.916-1.937-.916-1.936 0-2.779 1.25-2.779 3.666Z" fill="#000"/></g></svg>