<svg viewBox="0 0 90 90" xmlns="http://www.w3.org/2000/svg"><g fill="none" fill-rule="evenodd"><path fill="#FFFC00" d="M0 0h90v90H0z"/><path d="M75.035 59.593c-.26-.87-1.522-1.479-1.522-1.479-.113-.07-.227-.122-.314-.165-2.097-1.01-3.95-2.228-5.507-3.612-1.254-1.113-2.333-2.332-3.194-3.637-1.053-1.583-1.549-2.915-1.758-3.628-.122-.47-.095-.653 0-.897.087-.2.322-.4.444-.487.705-.496 1.845-1.236 2.54-1.688.601-.392 1.123-.731 1.428-.94.983-.687 1.653-1.384 2.053-2.14.514-.975.575-2.054.174-3.107-.54-1.427-1.87-2.28-3.558-2.28a5.84 5.84 0 0 0-1.15.122c-.965.209-1.887.557-2.653.853-.052.026-.113-.018-.113-.079.078-1.905.174-4.464-.035-6.9-.191-2.202-.644-4.055-1.383-5.674-.749-1.627-1.706-2.828-2.472-3.69-.722-.826-1.984-2.044-3.898-3.14-2.688-1.54-5.751-2.324-9.101-2.324-3.342 0-6.396.783-9.093 2.315-2.02 1.157-3.316 2.462-3.908 3.141-.757.87-1.722 2.071-2.47 3.69-.74 1.618-1.193 3.472-1.384 5.673-.21 2.437-.122 4.795-.035 6.9 0 .062-.06.105-.113.079-.766-.296-1.688-.644-2.654-.853a5.156 5.156 0 0 0-1.149-.122c-1.688 0-3.02.853-3.559 2.28-.4 1.062-.339 2.132.174 3.107.4.757 1.07 1.453 2.054 2.14.305.21.827.549 1.427.94.687.444 1.792 1.157 2.497 1.662.087.06.383.287.479.522.104.252.122.435-.009.931-.217.722-.713 2.036-1.749 3.594-.861 1.305-1.94 2.524-3.193 3.637-1.566 1.384-3.42 2.602-5.508 3.612a3.499 3.499 0 0 0-.348.182s-1.253.635-1.488 1.462c-.348 1.218.574 2.358 1.531 2.976 1.55 1 3.437 1.54 4.534 1.828.304.078.583.156.835.234.157.053.548.2.722.418.21.27.235.61.313.992.122.644.392 1.436 1.184 1.984.87.6 1.984.644 3.385.696 1.47.052 3.298.13 5.386.818.966.322 1.845.862 2.863 1.488 2.123 1.305 4.768 2.933 9.284 2.933 4.516 0 7.179-1.636 9.32-2.941 1.009-.618 1.879-1.158 2.827-1.471 2.089-.688 3.916-.757 5.387-.818 1.4-.052 2.514-.096 3.384-.696.853-.583 1.097-1.462 1.21-2.124.06-.321.104-.617.287-.86.157-.21.522-.349.696-.41.261-.078.54-.156.862-.243 1.096-.296 2.462-.636 4.133-1.584 1.975-1.131 2.114-2.532 1.905-3.22Z" fill="#FFFFFE"/><path d="M72.286 61.494c-2.732 1.506-4.551 1.35-5.97 2.263-1.2.774-.487 2.436-1.366 3.045-1.07.74-4.246-.052-8.335 1.297-3.377 1.114-5.535 4.325-11.608 4.325-6.091 0-8.188-3.194-11.608-4.325-4.09-1.349-7.266-.557-8.336-1.297-.87-.6-.165-2.27-1.366-3.045-1.41-.914-3.237-.748-5.97-2.263-1.74-.965-.756-1.557-.173-1.836 9.91-4.794 11.486-12.2 11.555-12.756.087-.661.183-1.192-.557-1.862-.704-.653-3.846-2.602-4.716-3.203-1.444-1.009-2.08-2.01-1.61-3.245.322-.853 1.123-1.175 1.967-1.175.261 0 .53.035.783.087 1.584.348 3.124 1.14 4.011 1.349.122.026.227.043.331.043.47 0 .644-.235.61-.783-.105-1.732-.349-5.108-.08-8.258.375-4.333 1.776-6.491 3.438-8.388.8-.914 4.542-4.873 11.712-4.873 7.188 0 10.92 3.96 11.712 4.873 1.662 1.905 3.063 4.055 3.437 8.388.27 3.15.035 6.526-.078 8.258-.035.574.14.783.61.783.095 0 .208-.017.33-.043.887-.218 2.427-1.01 4.011-1.35a4.09 4.09 0 0 1 .783-.086c.844 0 1.645.322 1.967 1.175.47 1.235-.166 2.245-1.61 3.245-.87.61-4.011 2.55-4.716 3.203-.731.678-.636 1.2-.557 1.862.07.557 1.653 7.962 11.555 12.756.6.279 1.584.87-.156 1.836Zm4.481-2.401c-.444-1.21-1.288-1.854-2.254-2.393a9.953 9.953 0 0 0-.487-.261 79.662 79.662 0 0 0-.879-.444c-3.01-1.592-5.351-3.602-6.978-5.987-.549-.8-.931-1.531-1.201-2.123-.14-.4-.13-.626-.035-.827.078-.156.278-.322.383-.4.513-.34 1.053-.687 1.41-.922.643-.418 1.157-.749 1.479-.975 1.235-.861 2.097-1.775 2.636-2.802.757-1.444.853-3.089.27-4.647-.818-2.149-2.845-3.489-5.317-3.489a7.872 7.872 0 0 0-1.949.261 44.66 44.66 0 0 0-.139-4.55c-.461-5.378-2.34-8.19-4.307-10.434-.818-.94-2.245-2.306-4.377-3.533C52.046 13.861 48.67 13 44.99 13c-3.672 0-7.04.861-10.024 2.567-2.149 1.227-3.567 2.602-4.385 3.533-1.967 2.245-3.846 5.064-4.308 10.433a44.735 44.735 0 0 0-.139 4.551c-.13-.035-.27-.06-.4-.096a7.204 7.204 0 0 0-1.549-.165c-2.462 0-4.498 1.34-5.316 3.49-.583 1.548-.488 3.202.27 4.646.539 1.027 1.4 1.94 2.636 2.802.33.226.835.557 1.48.975.347.226.86.557 1.357.887.078.052.348.253.435.435.104.218.104.444-.044.87a13.837 13.837 0 0 1-1.175 2.08c-1.592 2.332-3.872 4.308-6.778 5.883-1.54.818-3.141 1.366-3.82 3.202-.513 1.392-.174 2.967 1.123 4.298.426.462.965.862 1.635 1.236 1.584.879 2.942 1.305 4.003 1.601.183.052.618.192.81.357.47.409.4 1.035 1.035 1.95.383.565.818.956 1.183 1.2 1.323.914 2.802.966 4.377 1.027 1.418.052 3.028.113 4.873.722.766.252 1.557.74 2.471 1.305C36.949 74.147 39.96 76 45.007 76s8.083-1.862 10.294-3.22c.913-.556 1.696-1.044 2.436-1.287 1.836-.61 3.446-.67 4.873-.723 1.575-.06 3.054-.113 4.377-1.026a4.596 4.596 0 0 0 1.348-1.47c.453-.767.444-1.315.87-1.68.174-.148.557-.287.757-.348 1.07-.296 2.437-.723 4.055-1.619.714-.392 1.28-.827 1.715-1.323l.017-.017c1.218-1.305 1.523-2.846 1.018-4.194Z" fill="#000"/></g></svg>