<svg viewBox="0 0 90 90" xmlns="http://www.w3.org/2000/svg"><path d="M90.065 41.03 71.39 7.935a8.5 8.5 0 0 0-2.888-2.795 8.278 8.278 0 0 0-3.82-1.127H50.76a1.31 1.31 0 0 0-.384 0H27.312a8.23 8.23 0 0 0-3.819 1.13 8.455 8.455 0 0 0-2.878 2.806L1.935 41.03A8.809 8.809 0 0 0 1 44.982c0 1.375.32 2.731.935 3.954l18.686 33.11a8.49 8.49 0 0 0 2.875 2.81A8.262 8.262 0 0 0 27.312 86h37.37a8.268 8.268 0 0 0 3.82-1.142 8.493 8.493 0 0 0 2.877-2.81l18.686-33.11A8.808 8.808 0 0 0 91 44.982c0-1.375-.32-2.73-.935-3.954Zm-21-31.717 6.82 12.088L63.939 42.32l-7.82-13.702a1.353 1.353 0 0 0-.49-.496 1.316 1.316 0 0 0-.664-.182H39.44L51.328 6.755h13.355c.87.06 1.715.32 2.472.763a5.82 5.82 0 0 1 1.9 1.79l.01.005ZM46.85 43.723l-7.447-13.045H54.2l7.452 13.042-14.803.002Zm-2.432 1.323-7.361 12.901-7.39-12.962 7.36-12.901 7.391 12.962Zm2.355 1.434h14.72L54.18 59.302H39.402l7.37-12.822ZM22.954 9.313a5.783 5.783 0 0 1 1.894-1.778 5.638 5.638 0 0 1 2.464-.752H48.22L36.347 27.94H12.44L22.954 9.313ZM4.268 42.407l6.614-11.729h23.835l-7.776 13.61a1.394 1.394 0 0 0 0 1.385L34.717 59.3H10.882L4.26 47.582a6.057 6.057 0 0 1 0-5.167l.008-.008Zm23.044 40.84a5.68 5.68 0 0 1-2.477-.776 5.827 5.827 0 0 1-1.895-1.806L12.421 62.04h23.835l11.992 21.208H27.312Zm41.74-2.582a5.83 5.83 0 0 1-1.894 1.805 5.68 5.68 0 0 1-2.475.778H51.358L39.364 62.032h15.58c.234 0 .463-.063.666-.182.202-.119.37-.29.488-.496l7.76-13.584L75.79 68.736l-6.738 11.929Zm18.685-33.11-10.392 18.43-11.887-20.902L77.44 24.128l10.315 18.273a6.06 6.06 0 0 1 0 5.167" fill="#9E62DD"/></svg>