<svg viewBox="0 0 90 90" xmlns="http://www.w3.org/2000/svg" xmlns:xlink="http://www.w3.org/1999/xlink"><defs><path id="a" d="M0 0h72v90H0z"/></defs><g fill="none" fill-rule="evenodd"><path fill="#FFF" fill-rule="nonzero" d="M10 72h72V0H10z"/><g transform="translate(10)"><mask id="b" fill="#fff"><use xlink:href="#a"/></mask><path d="M20.386 20.273c1.06-.09 2.114-.05 3.146.128a8.344 8.344 0 0 0 2.106.108c2.355-.205 4.417-1.35 5.795-3.22a12.389 12.389 0 0 1 8.824-4.912c6.135-.533 11.629 3.531 13.066 9.327 4.81.506 8.759 4.368 9.197 9.363.424 4.942-2.724 9.385-7.294 10.766l1.312 15.081-3.137-1.17c-4.7-1.75-9.635-2.414-14.669-1.976-5.046.439-9.799 1.95-14.128 4.492l-2.89 1.698L20.406 44.9c-5.878-.5-10.733-5.173-11.258-11.242-.592-6.79 4.45-12.792 11.238-13.385ZM0 72h35.864l17.942 18V72H72V0H0v72Z" fill="#96285F" fill-rule="nonzero" mask="url(#b)"/></g><path d="M32.16 40.52c.722-.062 1.31-.192 2.084-.466l1.12 12.854a37.622 37.622 0 0 1 13-3.517c4.558-.397 9.05.012 13.389 1.215l-1.13-12.94a6.16 6.16 0 0 0 2.146.192 6.086 6.086 0 0 0 5.528-6.582 6.088 6.088 0 0 0-4.686-5.397c-.42 3.722-2.54 7.083-5.685 9.086l-3.104-3.107c3.003-1.437 4.896-4.648 4.601-8.032-.39-4.462-4.335-7.777-8.799-7.39a8.129 8.129 0 0 0-5.793 3.22c-2.1 2.851-5.238 4.6-8.826 4.912-1.01.087-2.085.037-3.189-.153a8.055 8.055 0 0 0-2.061-.081h-.002c-4.464.387-7.777 4.335-7.39 8.797.389 4.464 4.336 7.778 8.797 7.39" fill="#96285F" fill-rule="nonzero"/></g></svg>