<svg xmlns="http://www.w3.org/2000/svg" viewBox="0 0 90 90"><rect width="90" height="90" fill="#FFF" opacity="0"/><path fill="#542D65" d="M17.1428571 27.3913043L14.5341615 24.7826087 12.7639752 24.0372671 12.7639752 24.0372671C12.7639752 24.0372671 12.7639752 24.0372671 12.7639752 24.0372671 9.13043478 22.5465839 4.9378882 24.2236025 3.44720497 27.8571429 1.95652174 31.4906832 3.63354037 35.6832298 7.26708075 37.173913 7.26708075 37.173913 7.26708075 37.173913 7.26708075 37.173913L9.03726708 37.9192547 27.5776398 37.9192547 17.1428571 27.3913043zM52.173913 27.8571429L65.4037267 14.6273292 66.1490683 12.9503106 66.1490683 12.9503106C66.1490683 12.9503106 66.1490683 12.9503106 66.1490683 12.9503106 67.6397516 9.31677019 65.9627329 5.1242236 62.3291925 3.63354037 58.6956522 2.14285714 54.5031056 3.81987578 53.0124224 7.45341615 52.9192547 7.54658385 52.9192547 7.73291925 52.826087 7.82608696L52.173913 9.40993789 52.173913 15.931677 52.173913 27.8571429zM62.2360248 52.2670807L75.4658385 65.4968944 77.2360248 66.242236C80.8695652 67.7329193 85.0621118 65.9627329 86.552795 62.3291925 88.0434783 58.6956522 86.3664596 54.5031056 82.7329193 53.0124224L80.7763975 52.173913 70.7142857 52.173913 62.2360248 52.2670807zM24.689441 75.5590062L24.1304348 76.9565217C24.0372671 77.0496894 24.0372671 77.2360248 23.9440994 77.3291925 22.4534161 80.9627329 24.1304348 85.1552795 27.7639752 86.6459627 31.3975155 88.136646 35.4968944 86.4596273 37.0807453 82.826087L37.0807453 82.826087 37.826087 81.1490683 37.826087 62.515528 24.689441 75.5590062zM81.0559006 37.9192547L82.826087 37.173913C86.4596273 35.6832298 88.136646 31.4906832 86.6459627 27.8571429 85.1552795 24.2236025 80.9627329 22.4534161 77.3291925 23.9440994L77.3291925 23.9440994 75.3726708 24.7826087 62.2360248 37.9192547 81.0559006 37.9192547zM27.7639752 52.173913L9.13043478 52.173913 7.36024845 52.9192547 7.36024845 52.9192547 7.36024845 52.9192547C3.72670807 54.4099379 1.95652174 58.6024845 3.44720497 62.2360248 4.9378882 65.8695652 9.13043478 67.6397516 12.7639752 66.1490683 12.7639752 66.1490683 12.7639752 66.1490683 12.7639752 66.1490683L14.5341615 65.4037267 15.0931677 64.8447205 27.7639752 52.173913zM37.826087 8.94409938L37.173913 7.36024845 37.173913 7.36024845C37.173913 7.36024845 37.173913 7.36024845 37.173913 7.36024845 35.6832298 3.72670807 31.4906832 1.95652174 27.8571429 3.44720497 24.2236025 4.9378882 22.4534161 9.13043478 23.9440994 12.7639752 24.0372671 12.8571429 24.0372671 13.0434783 24.1304348 13.136646L24.7826087 14.7204969 37.826087 27.7639752 37.826087 8.94409938zM52.173913 62.3291925L52.173913 80.8695652 52.826087 82.3602484C52.826087 82.4534161 52.9192547 82.6397516 53.0124224 82.7329193 54.5031056 86.3664596 58.6956522 88.136646 62.3291925 86.6459627 65.9627329 85.1552795 67.6397516 81.0559006 66.242236 77.4223602L66.242236 77.4223602 65.4968944 75.6521739 60.0931677 70.2484472 52.173913 62.3291925z"/><path fill="#A7A2D0" d="M65.4037267 14.6273292L58.2298137 31.9565217 75.2795031 24.8757764 75.2795031 24.8757764 75.2795031 24.8757764 76.7701863 23.3850932 76.7701863 23.3850932C76.7701863 23.3850932 76.7701863 23.3850932 76.7701863 23.3850932 79.5652174 20.5900621 79.5652174 16.1180124 76.7701863 13.3229814 73.9751553 10.5279503 69.5031056 10.5279503 66.7080745 13.3229814 66.6149068 13.4161491 66.5217391 13.5093168 66.4285714 13.6024845L65.4037267 14.6273292 65.4037267 14.6273292 65.4037267 14.6273292zM14.5341615 24.689441L31.863354 31.863354 24.8757764 14.9068323 24.8757764 14.9068323 24.8757764 14.8136646 23.3850932 13.3229814C23.3850932 13.3229814 23.3850932 13.3229814 23.3850932 13.3229814 20.5900621 10.5279503 16.1180124 10.5279503 13.3229814 13.3229814 10.5279503 16.1180124 10.5279503 20.5900621 13.3229814 23.3850932 13.3229814 23.3850932 13.3229814 23.3850932 13.3229814 23.3850932L14.5341615 24.689441 14.5341615 24.689441 14.5341615 24.689441zM75.4658385 65.4968944L58.3229814 58.4161491 65.4037267 75.6521739 65.4037267 75.6521739 65.4037267 75.6521739 66.7080745 76.9565217C69.5031056 79.7515528 73.9751553 79.7515528 76.7701863 76.9565217 79.5652174 74.1614907 79.5652174 69.689441 76.7701863 66.8944099L75.4658385 65.4968944 75.4658385 65.4968944 75.4658385 65.4968944zM14.6273292 65.4037267L14.6273292 65.4037267 14.6273292 65.4037267 13.5093168 66.5217391C13.4161491 66.6149068 13.3229814 66.7080745 13.2298137 66.8012422 10.4347826 69.5962733 10.4347826 74.068323 13.2298137 76.863354 16.0248447 79.6583851 20.4968944 79.6583851 23.2919255 76.863354L23.2919255 76.863354 24.689441 75.4658385 31.863354 58.2298137 14.6273292 65.4037267zM37.826087 8.94409938L39.9689441 14.2546584 45 26.3664596 51.0559006 12.0186335 52.173913 9.40993789 52.173913 9.40993789 52.173913 9.31677019 52.173913 7.17391304 52.173913 7.17391304C52.173913 3.26086957 49.0062112-5.2959707e-14 45-5.2959707e-14 41.0869565-5.2959707e-14 37.826087 3.16770186 37.826087 7.17391304L37.826087 7.17391304 37.826087 8.94409938 37.826087 8.94409938 37.826087 8.94409938zM9.13043478 52.173913L26.2732919 45 22.5465839 43.5093168 9.03726708 37.9192547 7.54658385 37.9192547C7.45341615 37.9192547 7.26708075 37.9192547 7.17391304 37.9192547 3.26086957 37.9192547 9.92994506e-15 41.0869565 9.92994506e-15 45.0931677 9.92994506e-15 49.0062112 3.16770186 52.173913 7.08074534 52.2670807L7.08074534 52.2670807 9.13043478 52.173913 9.13043478 52.173913 9.13043478 52.173913zM37.826087 81.0559006L37.826087 82.9192547 37.826087 82.9192547C37.826087 86.8322981 40.9937888 90 45 90 48.9130435 90 52.0807453 86.8322981 52.173913 82.9192547L52.173913 80.8695652 45.0931677 63.8198758 37.826087 81.0559006zM82.826087 52.173913L82.826087 52.173913C86.8322981 52.173913 90 49.0062112 90 45 90 41.0869565 86.8322981 37.826087 82.826087 37.826087 82.7329193 37.826087 82.5465839 37.826087 82.4534161 37.826087L81.0559006 37.826087 76.1180124 39.8757764 63.7267081 45 65.4968944 45.7453416 80.8695652 52.0807453 80.7763975 52.0807453 80.8695652 52.0807453 82.826087 52.173913 82.826087 52.173913z"/><polygon fill="#A7A2D0" points="55.06 45.19 62.14 38.01 52.08 38.01 52.08 28.04 45 35.12 37.83 27.95 37.83 38.01 27.76 38.01 34.84 45.19 27.76 52.27 37.83 52.27 37.83 62.42 45 55.25 52.08 62.33 52.08 52.36 52.08 52.36 52.08 52.27 62.14 52.27"/></svg>