<svg viewBox="0 0 90 90" xmlns="http://www.w3.org/2000/svg"><g fill="none" fill-rule="evenodd"><path d="M25.465 40.491A7.083 7.083 0 1 1 15.448 50.51a7.083 7.083 0 0 1 10.017-10.02Zm12.522 12.522A7.083 7.083 0 1 1 27.97 63.03a7.083 7.083 0 0 1 10.017-10.017ZM12.944 27.97A7.083 7.083 0 1 1 2.926 37.987 7.083 7.083 0 0 1 12.944 27.97Zm25.043 0A7.083 7.083 0 1 1 27.97 37.987 7.083 7.083 0 0 1 37.987 27.97Zm12.522-12.522A7.083 7.083 0 1 1 40.49 25.465a7.083 7.083 0 0 1 10.02-10.017ZM63.03 2.926a7.083 7.083 0 1 1-10.017 10.018A7.083 7.083 0 0 1 63.03 2.926Z" fill="#41538B"/><path d="M37.987 78.056A7.083 7.083 0 1 1 27.97 88.074a7.083 7.083 0 0 1 10.017-10.018Zm12.522-12.521A7.083 7.083 0 1 1 40.49 75.552a7.083 7.083 0 0 1 10.02-10.017ZM63.03 53.013A7.083 7.083 0 1 1 53.013 63.03 7.083 7.083 0 0 1 63.03 53.013Zm0-25.043a7.083 7.083 0 1 1-10.017 10.017A7.083 7.083 0 0 1 63.03 27.97Zm12.522 12.52a7.083 7.083 0 1 1-10.017 10.02 7.083 7.083 0 0 1 10.017-10.02Zm12.522 12.522A7.083 7.083 0 1 1 78.056 63.03a7.083 7.083 0 0 1 10.018-10.017Z" fill="#8F9B49"/></g></svg>