<svg xmlns="http://www.w3.org/2000/svg" viewBox="0 0 90 90"><path fill="#00A2C7" d="M0 0h90v90H0z"/><g fill="#FFF"><path d="M64.947 15.421c-5.058 0-9.318 4.312-9.318 9.432s4.26 9.43 9.318 9.43 9.318-4.31 9.318-9.43-4.26-9.432-9.318-9.432Zm0 2.426c3.727 0 6.656 2.964 6.656 6.736 0 3.773-2.929 6.737-6.656 6.737s-6.656-2.964-6.656-6.737c0-3.772 2.929-6.736 6.656-6.736"/><g transform="rotate(-28.538 111.933 -63.212)"><ellipse cx="18.871" cy="9.431" rx="9.318" ry="9.431"/><ellipse cx="9.318" cy="27.18" rx="9.318" ry="9.431"/></g><path d="M44.98 38.326c1.863 0 3.46.808 4.792 1.886 1.33 1.347 1.863 2.964 1.863 4.85 0 3.773-2.928 6.737-6.656 6.737-1.863 0-3.46-.809-4.792-1.887-1.331-1.347-1.864-2.964-1.864-4.85-.266-3.772 2.93-6.736 6.656-6.736m0-2.695c-5.058 0-9.318 4.311-9.318 9.431 0 5.12 4.26 9.431 9.318 9.431 5.059 0 9.319-4.311 9.319-9.43 0-5.12-4.26-9.432-9.319-9.432Z"/><g transform="rotate(-66.11 43.163 27.161)"><ellipse cx="19.528" cy="17.598" rx="9.318" ry="9.431"/><ellipse cx="45.88" cy="27.935" rx="9.318" ry="9.431"/><ellipse cx="37.811" cy="9.431" rx="9.318" ry="9.431"/><ellipse cx="9.318" cy="44.27" rx="9.318" ry="9.431"/></g><path d="M25.012 58.535c1.863 0 3.46.809 4.792 1.886 1.331 1.348 1.864 2.964 1.864 4.85 0 3.773-2.929 6.737-6.656 6.737-3.728 0-6.656-2.964-6.656-6.736-.266-3.773 2.928-6.737 6.656-6.737m0-2.694c-5.059 0-9.319 4.31-9.319 9.43s4.26 9.432 9.319 9.432c5.058 0 9.318-4.312 9.318-9.431 0-5.12-4.26-9.431-9.318-9.431Z"/></g></svg>