<svg viewBox="0 0 90 90" xmlns="http://www.w3.org/2000/svg"><path d="M52.712 63.146c.331.03.665.122.988.283 2.9 1.494 6 2.192 9.2 2.192l.348-.003C74.487 65.433 83.5 56.34 83.5 45.1c0-11.357-9.2-20.521-20.6-20.521l-.348.002C51.313 24.766 42.3 33.86 42.3 45.1c0 1.095.1 2.191.3 3.287.2 1.395-.8 2.889-2.3 3.088-.06.007-.118.013-.177.017l-.175.008c-1.449.024-2.663-.933-2.848-2.316-.2-1.395-.3-2.79-.3-4.184 0-14.345 11.7-26 26.1-26l.428.003C77.433 19.233 88.901 30.8 89 45c0 14.345-11.7 26-26.1 26-4.1 0-8.1-.897-11.7-2.69-1.3-.697-1.9-2.29-1.2-3.685a2.816 2.816 0 0 1 2.547-1.49ZM27.1 19.1c4.1 0 8.1.896 11.7 2.69 1.3.697 1.9 2.29 1.2 3.685a2.827 2.827 0 0 1-2.22 1.479l-.163.01h-.164a2.765 2.765 0 0 1-1.153-.294c-2.9-1.494-6-2.191-9.2-2.191l-.345.003C15.61 24.666 6.5 33.76 6.5 45c0 11.356 9.2 20.521 20.6 20.521l.348-.003C38.687 65.334 47.7 56.24 47.7 45c0-1.195-.1-2.291-.3-3.387-.2-1.494.8-2.988 2.3-3.188.119-.014.236-.023.352-.025l.173.002c1.371.052 2.497.986 2.675 2.314.2 1.395.3 2.89.3 4.284 0 14.345-11.8 26-26.1 26S1 59.345 1 45s11.8-26 26.1-25.9Z" fill="#1F70FF"/></svg>