<svg viewBox="0 0 90 90" xmlns="http://www.w3.org/2000/svg"><g fill="none"><path d="M89.967 49.565c.01-.14.01-.28 0-.418a1.892 1.892 0 0 0-.085-.335 1.013 1.013 0 0 0-.336-.514 5.52 5.52 0 0 1-.448-.566c-.29-.373-.572-.758-.881-1.112l-3.738-4.3a2.895 2.895 0 0 1-.593-2.129l.593-3.497a2.57 2.57 0 0 0-.658-2.05l-3.212-3.1a1.467 1.467 0 0 0-1.836-.109l-.842.643c-.64.442-1.382.72-2.159.81h-.04a2.131 2.131 0 0 1-1.81-.97l-.058-.103a2.09 2.09 0 0 0-1.646-1.029c-.572.029-1.067.4-1.243.932a.958.958 0 0 1-1.034.752 1.228 1.228 0 0 1-.868-1.041 1.426 1.426 0 0 0-1.317-1.067l-2.388-.29c-.659-.077-3.001-.597-3.212-1.234l-.658-1.993c-.12-.34-.334-.64-.619-.868a1.772 1.772 0 0 0-.658-.443 3.857 3.857 0 0 0-.974.096 3.819 3.819 0 0 1-1.013 0c-.349-.116-.704-.141-1.053-.225a3.586 3.586 0 0 1-.658-.328c-.658-.302-1.316.335-1.409.99l-.25 2.733c-.059.642-1.388 1.851-1.974 2.173l-1.316 1.054c-.58.321-1.783-1.042-2.442-1.087l-.809-.051a1.307 1.307 0 0 0-1.356 1.138l-.092.643c-.085.643.046 2.18-.46 2.61l-.48.398c-.52.439-.965.955-1.317 1.53-.204.412 0 .9-.086 1.074-.19.56-.112.887-.559 1.048-.064.024-.13.043-.197.058a5.784 5.784 0 0 0-1.633.643c-.146.075-.281.17-.4.283a1.59 1.59 0 0 0-.284.43c-.342.688-.566 2.321-1.435 2.572-.31.08-.637.08-.947 0a4.19 4.19 0 0 1-1.83-.958 3.403 3.403 0 0 0-.822-.643 1.637 1.637 0 0 0-1.731.482 4.668 4.668 0 0 0-.875 1.652c-.171.463-.507 1.678-1.145 1.627a2.385 2.385 0 0 1-1.81-1.067 2.322 2.322 0 0 0-.467-.643 1.073 1.073 0 0 0-.895-.174 2.825 2.825 0 0 0-.863.367c-.777.36-1.38 1-1.684 1.787-.35 1.286-1.25.848-2.172.25a14.597 14.597 0 0 0-1.876-1.195 2.183 2.183 0 0 0-2.138.07c-.356.258-.606.676-1.027.791-.54.142-1.046-.27-1.553-.508a2.589 2.589 0 0 0-1.73-.147c-.738.205-.77 1.414-1.449 1.857-.375.245-.796.431-1.151.708-.376.26-.6.681-.606 1.131.024.189.078.373.158.547.269.541.49 1.105.658 1.684.086.424-.177.501-.553.694a9.093 9.093 0 0 1-2.171.74c-.915.205-2.567 0-2.909 1.105a6.5 6.5 0 0 0-.316 1.209c-.028.334.022.67.145.983.19.457.546.843.697 1.286a1.431 1.431 0 0 1-.434 1.537 1.12 1.12 0 0 1-1.21.167l-2.633-.913a1.923 1.923 0 0 0-1.316.328l-1.975 1.76a3.647 3.647 0 0 0-.763 1.736c-.151.585-.204 1.196-.401 1.768-.145.444-.514 1.594.17 1.665h36.426c0-.29-.046-.579-.046-.874-.09-3.344 1.684-6.472 4.634-8.17a9.61 9.61 0 0 1 9.56 0c2.95 1.698 4.725 4.826 4.634 8.17 0 .295 0 .585-.04.874h19.349a3.28 3.28 0 0 0 2.053-.887l5.923-6.429a20.212 20.212 0 0 1 1.776-1.64l2.797-2.23c.52-.418 1.474-1.196 1.547-1.87 0-.078.164-.232.204-.29.192-.217.356-.457.487-.714.004-.134.022-.267.052-.398a2.9 2.9 0 0 0 .093-.29c0-.096.131-.192.151-.295 0-.132-.01-.263-.033-.392Z" fill="#00467F"/><path d="m57.47 61.104 13.485-6.429L56.477 58.9 82.09 41.021 55.022 56.964l21.862-22.32L53.193 55.35l8.134-15.853L51.06 54.148l7.568-26.898-9.911 26.159 1.316-18.644-3.764 18.393-2.488-11.842.04 12.093-4.192-8.48 1.855 9.213-6.633-8.467 4.481 9.675L28.93 45.334l8.555 11.63-17.15-11.295 15.742 13.237-16.17-5.696 15.17 7.894-25.89-4.995 25.449 6.962-30.839-1.928L34.47 65h2.356c0-.29-.046-.579-.046-.874-.09-3.344 1.684-6.472 4.634-8.17a9.61 9.61 0 0 1 9.56 0c2.95 1.698 4.725 4.826 4.634 8.17 0 .295 0 .585-.04.874h2.771l18.789-2.572-19.085.643 21.776-5.143-22.349 3.176Z" fill="#E7A614"/><path d="M55.601 64.126c.091-3.344-1.683-6.472-4.633-8.17a9.61 9.61 0 0 0-9.56 0c-2.95 1.698-4.725 4.826-4.635 8.17.001.292.019.584.053.874h18.73a9.74 9.74 0 0 0 .045-.874Z" fill="#FFF"/></g></svg>