<svg viewBox="0 0 90 90" xmlns="http://www.w3.org/2000/svg"><g fill="none"><path fill="#000" d="M0 0h90v90H0z"/><path d="M41.623 15c-6.698 0-14.308 1.273-20.736 4.196-6 2.713-10.887 7.07-10.887 14.293a14.905 14.905 0 0 0 3.975 10.18c1.734 1.623 4.534 4.378 11.847 6 3.27.7 10.258 1.826 17.218 2.567 6.96.741 13.707 1.398 16.472 2.147 2.198.566 5.896 1.335 5.896 5.53 0 4.196-3.892 5.455-4.569 5.728-.677.273-5.35 2.44-13.741 2.44a57.828 57.828 0 0 1-16.361-2.846c-3.132-1.133-6.415-2.622-9.477-6.405a11.086 11.086 0 0 1-1.97-6.07h-7.603v21.538h8.446v-2.916a1.22 1.22 0 0 1 .609-1.066 1.19 1.19 0 0 1 1.216.017 65.992 65.992 0 0 0 12.359 4.042c4.438.937 7.306 1.615 12.822 1.615a54.125 54.125 0 0 0 17.184-2.454 29.855 29.855 0 0 0 10.209-5.098c3.478-2.703 5.502-6.899 5.468-11.335a15.96 15.96 0 0 0-4.417-11.146 19.437 19.437 0 0 0-5.447-3.77 39.816 39.816 0 0 0-6.719-2.37c-4.382-1.084-14.225-2.44-18.932-2.916-4.935-.517-13.5-1.238-16.921-2.308-1.037-.328-3.152-1.342-3.152-3.825 0-1.769.968-3.265 2.875-4.475 3.035-1.923 9.159-3.119 15.546-3.119a44.637 44.637 0 0 1 18.013 3.56 19.626 19.626 0 0 1 4.285 2.587 13.063 13.063 0 0 1 4.224 7.146h6.822V17.72h-7.603v2.175c0 .7-.691 1.622-2.074.86-3.428-1.804-13.064-5.706-24.877-5.755Z" fill="#FFF"/></g></svg>