<svg viewBox="0 0 90 90" xmlns="http://www.w3.org/2000/svg"><g fill="none" fill-rule="evenodd"><path fill="#0031FF" d="M0 0h90v90H0z"/><path d="M37.99 8.74c13.415-2.744 27.239 2.27 35.75 12.966 17.46 22.036 5.84 53.866-21.734 59.553-13.416 2.747-27.24-2.267-35.75-12.966C-1.2 46.262 10.422 14.433 37.99 8.74Zm22.43 7.76c-7.104-3.784-15.045-2.85-17.678 2.084a7.17 7.17 0 0 0-.605 1.42.503.503 0 0 1-.961.13 7.145 7.145 0 0 0-1.058-1.405c-3.892-4.016-11.762-2.736-17.573 2.856-5.81 5.592-7.366 13.388-3.469 17.403.358.369.754.697 1.183.98a.502.502 0 0 1-.176.953 7.18 7.18 0 0 0-1.651.567c-5.036 2.45-6.244 10.346-2.704 17.584 3.54 7.238 10.493 11.119 15.528 8.669a6.992 6.992 0 0 0 1.31-.818.505.505 0 0 1 .855.462 6.626 6.626 0 0 0 0 1.757c.79 5.531 7.875 9.11 15.897 7.986 8.02-1.125 13.872-6.526 13.091-12.047a6.704 6.704 0 0 0-.378-1.506.5.5 0 0 1 .096-.603.505.505 0 0 1 .61-.065 7.419 7.419 0 0 0 1.681.502c5.514.969 11.123-4.668 12.528-12.604 1.405-7.936-1.914-15.15-7.452-16.118a7.187 7.187 0 0 0-1.51-.1.5.5 0 0 1-.418-.873 6.985 6.985 0 0 0 1.006-1.442c2.634-4.93-1.047-11.987-8.152-15.772Zm-17.937 9.828a.504.504 0 0 1 .546.342c1.445 2.942 4.254 5.793 7.844 7.69 3.59 1.898 7.367 2.606 10.574 2.219a.501.501 0 0 1 .428.888c-2.356 2.294-4.189 5.748-4.909 9.824-.705 3.98-.211 7.78 1.153 10.702a.5.5 0 0 1-.07.646.505.505 0 0 1-.65.037c-2.905-1.531-6.777-2.194-10.886-1.622-4.018.567-7.492 2.209-9.854 4.407a.505.505 0 0 1-.876-.471c.564-3.228 0-7.108-1.818-10.828-1.797-3.634-4.416-6.42-7.24-7.986a.502.502 0 0 1 .18-.969c3.249-.467 6.844-2.259 9.76-5.07 2.914-2.81 4.757-6.174 5.382-9.336a.503.503 0 0 1 .436-.473Z" fill="#FFF" fill-rule="nonzero"/></g></svg>