<svg xmlns="http://www.w3.org/2000/svg" viewBox="0 0 90 90"><path fill="#45BA79" d="M0 0h90v90H0z"/><path d="M14.336 36.847c4.194-5.335 9.619-10.003 16.582-14.27a64.582 64.582 0 0 1 19.45-7.904c1.633-.372 3.332-.683 5.042-.683 1.144 0 2.293.14 3.43.494 4.57 1.426 7.537 4.42 9.068 9.153 2.73 8.44 3.706 17.438 2.899 26.748-.618 7.13-2.206 13.468-4.855 19.374-1.737 3.873-4.674 5.77-8.98 5.797-3.799.026-7.722-.666-12.352-2.175-7.299-2.378-13.39-5.54-19.167-9.947l-.007-.006c-3.563-2.6-7.514-6.366-11.126-10.606-4.084-4.796-4.078-10.768.016-15.975Zm65.073 1.983c-1.687-9.121-6.822-17.097-14.461-22.458-15.822-11.104-37.644-7.321-48.646 8.432-5.375 7.71-7.45 17.426-5.69 26.655 1.778 9.326 7.269 17.44 15.462 22.848A34.405 34.405 0 0 0 45.086 80c2.139 0 4.296-.196 6.447-.59 9.157-1.682 17.102-6.848 22.369-14.55 5.239-7.66 7.195-16.904 5.507-26.03Z" fill="#FFF"/></svg>