<svg xmlns="http://www.w3.org/2000/svg" viewBox="0 0 90 90"><path fill="#F50" d="M0 0h90v90H0z"/><path d="M79.996 51.744c-.15 5.18-4.7 9.139-9.916 9.139H46.225a1.973 1.973 0 0 1-1.972-1.969V33.568c-.046-.9.48-1.733 1.32-2.087 0 0 2.188-1.48 6.805-1.48 2.836-.01 5.62.742 8.056 2.175a15.68 15.68 0 0 1 7.495 10.212 8.996 8.996 0 0 1 2.534-.347 9.6 9.6 0 0 1 6.844 2.86 9.356 9.356 0 0 1 2.689 6.841v.002ZM41.27 35.18c.72 8.592 1.244 16.429 0 25.006a.768.768 0 0 1-.772.74.768.768 0 0 1-.772-.74c-1.154-8.495-.644-16.488 0-25.006 0-.421.346-.763.773-.763.426 0 .772.342.772.763Zm-4.811 2.96c.832 7.667 1.079 14.379-.016 22.076a.807.807 0 0 1-.801.686.807.807 0 0 1-.802-.686c-.967-7.586-.75-14.476 0-22.076a.805.805 0 0 1 .81-.768c.434 0 .791.34.809.768Zm-4.85-.74c.788 7.86 1.14 14.912 0 22.793a.771.771 0 0 1-.775.766.771.771 0 0 1-.776-.766c-1.11-7.755-.75-15.022 0-22.793a.77.77 0 0 1 .776-.766.77.77 0 0 1 .775.766Zm-4.803 2.22a74.447 74.447 0 0 1-.023 20.61.79.79 0 0 1-.79.712.79.79 0 0 1-.792-.711 79.715 79.715 0 0 1 0-20.61c0-.438.36-.793.802-.793.443 0 .803.355.803.792Zm-4.872 5.1c1.23 5.379.667 10.093-.082 15.54 0 .409-.336.74-.75.74a.745.745 0 0 1-.75-.74c-.614-5.358-1.161-10.235 0-15.54a.79.79 0 0 1 .791-.709.79.79 0 0 1 .79.708Zm-4.827-.785c1.132 5.468.757 10.116-.03 15.607-.075.806-1.499.814-1.574 0-.712-5.417-1.011-10.212-.03-15.607a.821.821 0 0 1 .818-.704c.412 0 .76.3.816.704Zm-4.864 2.627c1.17 3.655.75 6.609-.075 10.301a.738.738 0 0 1-.366.667.758.758 0 0 1-.767 0 .738.738 0 0 1-.366-.667c-.704-3.64-1.034-6.667-.067-10.3a.82.82 0 0 1 .82-.737.82.82 0 0 1 .821.736Z" fill="#FFF"/></svg>