<svg viewBox="0 0 90 90" xmlns="http://www.w3.org/2000/svg"><g fill="none"><path fill="#9373D8" d="M0 0h90v90H0z"/><g fill="#FFF"><path d="m38.513 42.701 7.818-6.6-6.361-.565-2.886 4.147-.197 2.285c-.168 2.059-1.961 3.638-4.007 3.554l.028-.17.813-9.365 2.578-3.695-7.762 3.639c-2.046.959-4.456.056-5.409-1.975l10.845-5.077-8.379-.734a4.076 4.076 0 0 1-3.699-4.428l12.723 1.128-3.447-2.426a3.745 3.745 0 0 1-1.121-4.796l11.04 7.786.029.028 4.343-.254 6.978.931 2.046.734L68.526 15 72 28.907 44.201 43.265l-6.22 5.275c-1.402-1.805-1.178-4.4.532-5.839ZM20.41 55.79c0 5.331 4.315 9.675 9.612 9.675 5.296 0 9.612-4.344 9.612-9.675 0-5.332-4.316-9.676-9.612-9.676-5.297 0-9.612 4.344-9.612 9.676Zm7.286-.931c.168-.395.392-.733.7-.987.085-.085.169-.141.28-.198.113-.056.197-.113.309-.17a2.534 2.534 0 0 1 1.037-.225 2.508 2.508 0 0 1 2.494 2.51 2.5 2.5 0 0 1-.168.932c-.168.395-.393.733-.729.987a1.006 1.006 0 0 1-.28.198c-.112.056-.196.112-.308.169a2.534 2.534 0 0 1-1.037.225 2.508 2.508 0 0 1-2.494-2.51c.028-.339.084-.649.196-.931Zm7.986 7.757c-.308.254-.616.48-.952.706l-2.97-4.74c.111-.084.251-.169.335-.253l3.587 4.287ZM24.333 48.963c.308-.254.617-.48.953-.705l2.97 4.767c-.112.085-.252.17-.336.254l-3.587-4.316ZM38.85 55.79a8.656 8.656 0 0 1-.645 3.3l-5.184-2.087c.14-.367.224-.79.224-1.213 0-1.806-1.457-3.3-3.278-3.3-.477 0-.925.112-1.345.31l-2.298-5.106A8.867 8.867 0 0 1 38.85 55.79Zm-17.682 0c0-1.157.224-2.285.644-3.3l5.184 2.087c-.14.367-.224.79-.224 1.213 0 1.805 1.457 3.3 3.279 3.3.476 0 .925-.113 1.345-.31l2.298 5.106a8.807 8.807 0 0 1-3.643.79c-4.904.028-8.883-3.978-8.883-8.886Z"/><path d="M42.016 75H18V54.887l12.022 1.777 11.994-1.777z"/></g></g></svg>