<svg viewBox="0 0 90 90" xmlns="http://www.w3.org/2000/svg"><g fill="none"><path fill="#FFF480" d="M0 0h90v90H0z"/><g transform="translate(19 15)" fill="#FF5757"><path d="m17.766 41.585-.671-.206c-.176-.054-4.35-1.36-8.521-4.798C2.964 31.957 0 25.675 0 18.415V0h35.544v18.415c0 7.299-2.966 13.594-8.577 18.203-4.174 3.429-8.354 4.712-8.53 4.765l-.671.202ZM4.634 4.651v13.764c0 12.302 10.392 17.194 13.15 18.275 2.816-1.067 13.127-5.826 13.127-18.275V4.65H4.634Z"/><path d="m33.221 60-.67-.206c-.176-.054-4.35-1.36-8.521-4.798-5.61-4.625-8.574-10.906-8.574-18.166V18.415H51V36.83c0 7.299-2.966 13.593-8.577 18.203-4.174 3.429-8.354 4.712-8.53 4.764l-.672.203ZM20.09 23.066V36.83c0 12.302 10.392 17.194 13.151 18.276 2.816-1.068 13.126-5.826 13.126-18.276V23.066H20.09Z"/><ellipse cx="24.299" cy="12.608" rx="2.86" ry="2.871"/><ellipse cx="39.743" cy="31.922" rx="2.86" ry="2.871"/><path d="m17.766 41.585-.671-.206c-.176-.054-4.35-1.36-8.521-4.798C2.964 31.957 0 25.675 0 18.415V0h35.544v18.415c0 7.299-2.966 13.594-8.577 18.203-4.174 3.429-8.354 4.712-8.53 4.765l-.671.202ZM4.634 4.651v13.764c0 12.302 10.392 17.194 13.15 18.275 2.816-1.067 13.127-5.826 13.127-18.275V4.65H4.634Z"/><path d="m33.221 60-.67-.206c-.176-.054-4.35-1.36-8.521-4.798-5.61-4.625-8.574-10.906-8.574-18.166V18.415H51V36.83c0 7.299-2.966 13.593-8.577 18.203-4.174 3.429-8.354 4.712-8.53 4.764l-.672.203ZM20.09 23.066V36.83c0 12.302 10.392 17.194 13.151 18.276 2.816-1.068 13.126-5.826 13.126-18.276V23.066H20.09Z"/><ellipse cx="24.299" cy="12.608" rx="2.86" ry="2.871"/><ellipse cx="39.743" cy="31.922" rx="2.86" ry="2.871"/></g></g></svg>