<svg viewBox="0 0 90 90" xmlns="http://www.w3.org/2000/svg"><g fill="none"><path fill="#394EFF" d="M0 0h90v90H0z"/><path d="M45 18c2.611 0 4.89 1.43 6.102 3.549l11.471 19.926L73.7 60.798l.352.611.014.027.006.012.01.015.064.118a.146.146 0 0 1 .017.027l.06.12a2.484 2.484 0 0 1 .077.154c.006.01.013.02.016.032.02.04.04.082.059.125l.006.015.06.138.016.032.055.14c.02.051.039.098.056.146l.013.035.05.143.004.01.044.139c.005.012.006.022.011.032l.044.147.005.02.035.133a4.692 4.692 0 0 1 .045.18l.006.03.03.131.005.032.03.15.005.032.022.134.005.029.02.153.005.034c.007.047.012.094.017.14l.002.023c.005.051.01.103.013.157l.004.036.008.147a4.717 4.717 0 0 1 .008.175l.002.118v.081C75 68.844 71.853 72 67.97 72a6.997 6.997 0 0 1-2.114-.324l-19.753-6.547a3.517 3.517 0 0 0-2.208 0l-19.751 6.547-.406.115a7.024 7.024 0 0 1-1.709.209C18.147 72 15 68.844 15 64.951l.002-.199a10.439 10.439 0 0 1 .034-.515v-.023l.018-.14.003-.034a4.22 4.22 0 0 1 .022-.154l.005-.028a4.393 4.393 0 0 1 .027-.166c.008-.05.018-.1.028-.15l.007-.032.029-.131.006-.03.036-.146.008-.034.037-.133.005-.02c.013-.05.029-.096.044-.147l.01-.032c.015-.047.028-.093.045-.139.002-.003.002-.006.003-.01l.05-.143.013-.035.055-.144.057-.142.015-.032.059-.138.008-.015.057-.125.016-.032.072-.145a6.778 6.778 0 0 1 .082-.156l.033-.059.033-.059.008-.015.007-.012.015-.027.352-.61 11.124-19.324 11.47-19.926A7.028 7.028 0 0 1 45 18Z" fill="#FFF"/></g></svg>