<svg viewBox="0 0 90 90" xmlns="http://www.w3.org/2000/svg"><path d="M16.386 27.892c-5.279 29.283 48.459 13.804 48.459 32.822 0 5.68-7.51 10.286-16.767 10.286-8.793 0-15.997-4.159-16.704-9.44a23.557 23.557 0 0 1-9.379 1.924C10.396 63.484 1 55.353 1 45.326c0-13.963 14.883-17.18 15.386-17.434ZM41.915 19c8.796 0 16.001 4.153 16.708 9.44C72.533 22.422 89 31.17 89 44.675c0 13.965-14.878 17.18-15.392 17.434C78.893 32.824 25.155 48.3 25.155 29.29c0-5.682 7.505-10.29 16.76-10.29Z" fill="#49C1EB"/></svg>