<svg viewBox="0 0 90 90" xmlns="http://www.w3.org/2000/svg"><g fill="none"><path fill="#1B6FF8" d="M0 0h90v90H0z"/><path d="M62.408 44.534c0 9.168-6.985 16.855-16.244 17.787C46.164 62.54 20 66 20 66l2.882-10.27 21.233-3.183v-.054c4.21-.271 7.318-3.785 7.093-7.852-.054-.714-.167-1.369-.441-2.082h11.528c.113.655.113 1.315.113 1.975Zm-34.762.932c0-9.168 7.044-16.855 16.244-17.787C43.89 27.407 70 24 70 24l-2.936 10.27-21.233 3.237v.053c-4.103.218-7.26 3.732-6.985 7.8.054.713.167 1.368.446 2.028H27.76c-.054-.66-.113-1.262-.113-1.922Z" fill="#FFF"/></g></svg>