<svg viewBox="0 0 90 90" xmlns="http://www.w3.org/2000/svg"><g fill="none"><path fill="#018AFC" d="M0 0h90v90H0z"/><g fill="#FFF"><path d="M14.868 49.64c.576 0 1.084-.098 1.524-.294.44-.196.78-.472 1.02-.828s.36-.77.36-1.242c0-.584-.154-1.07-.462-1.458-.308-.388-.842-.762-1.602-1.122a13.793 13.793 0 0 1-1.194-.624c-.26-.16-.44-.306-.54-.438a.762.762 0 0 1-.15-.474c0-.296.11-.526.33-.69.22-.164.526-.246.918-.246.304 0 .59.07.858.21.268.14.498.334.69.582l.972-.72c-.216-.4-.554-.716-1.014-.948-.46-.232-.982-.348-1.566-.348-.536 0-1.008.09-1.416.27-.408.18-.726.436-.954.768a1.975 1.975 0 0 0-.342 1.146c0 .376.08.708.24.996.16.288.412.56.756.816.344.256.812.528 1.404.816.448.224.78.41.996.558.216.148.364.296.444.444.08.148.12.334.12.558a.916.916 0 0 1-.366.756c-.244.192-.57.288-.978.288-.344 0-.702-.1-1.074-.3a3.105 3.105 0 0 1-.942-.768l-.9.864c.312.456.718.808 1.218 1.056s1.05.372 1.65.372Zm5.676-.12v-2.964h1.116c.976 0 1.722-.238 2.238-.714s.774-1.174.774-2.094c0-.864-.25-1.518-.75-1.962-.5-.444-1.234-.666-2.202-.666h-2.688v8.4h1.512Zm1.248-4.188h-1.248v-2.988h1.164c.488 0 .858.124 1.11.372.252.248.378.612.378 1.092 0 .496-.12.874-.36 1.134-.24.26-.588.39-1.044.39Zm6.024 4.188v-8.4h-1.524v8.4h1.524Zm4.548 0c.888 0 1.604-.148 2.148-.444.544-.296.944-.764 1.2-1.404.256-.64.384-1.48.384-2.52 0-1.336-.286-2.342-.858-3.018-.572-.676-1.422-1.014-2.55-1.014h-2.88v8.4h2.556Zm.18-1.224H31.32v-5.952h1.332c.672 0 1.162.222 1.47.666.308.444.462 1.158.462 2.142 0 1.12-.158 1.924-.474 2.412-.316.488-.838.732-1.566.732Zm10.284 1.224v-1.224h-3.876v-2.58h3.468v-1.224h-3.468v-2.148h3.876V41.12H37.44v8.4h5.388Zm2.904 0v-3.336h.672c.384 0 .66.05.828.15.168.1.308.29.42.57l.996 2.616h1.608L49.02 46.4a1.669 1.669 0 0 0-.234-.384 1.743 1.743 0 0 0-.366-.324v-.024c.456-.16.808-.436 1.056-.828.248-.392.372-.864.372-1.416 0-.776-.232-1.354-.696-1.734-.464-.38-1.164-.57-2.1-.57H44.22v8.4h1.512Zm1.176-4.548h-1.176v-2.628h1.152c1 0 1.5.416 1.5 1.248 0 .456-.126.8-.378 1.032-.252.232-.618.348-1.098.348Z"/><path d="M54.336 49.64c.768 0 1.416-.204 1.944-.612l.168.492h1.116v-4.488h-3.372v1.08h1.872v1.944c-.416.296-.932.444-1.548.444-.696 0-1.232-.274-1.608-.822-.376-.548-.564-1.334-.564-2.358 0-.992.2-1.756.6-2.292.4-.536.968-.804 1.704-.804.432 0 .816.082 1.152.246.336.164.604.406.804.726l.852-.78c-.232-.448-.596-.796-1.092-1.044-.496-.248-1.076-.372-1.74-.372-.768 0-1.438.176-2.01.528-.572.352-1.014.854-1.326 1.506-.312.652-.468 1.414-.468 2.286 0 .896.14 1.668.42 2.316.28.648.684 1.144 1.212 1.488.528.344 1.156.516 1.884.516ZM60 49.52l.468-1.536h3.012l.468 1.536h1.596l-2.892-8.4h-1.356l-2.892 8.4H60Zm3.108-2.748H60.84l1.14-3.672 1.128 3.672Zm6.852 2.748v-7.272h2.532V41.12h-6.576v1.128h2.532v7.272h1.512Zm8.988 0v-1.224h-3.876v-2.58h3.468v-1.224h-3.468v-2.148h3.876V41.12H73.56v8.4h5.388Z" fill-opacity=".8"/></g></g></svg>