<svg viewBox="0 0 90 90" xmlns="http://www.w3.org/2000/svg"><g fill="none"><path fill="#FFF" d="M0 0h90v90H0z"/><path d="M46.61 21.043c-.447.083-1.14.456-1.508.83-.612.5-1.47.58-5.057.333l-4.282-.29.122 1.786.123 1.786h1.63c.9-.04 3.017-.125 4.69-.207l3.06-.208v8.311l-1.1.126c-1.063.125-1.143.25-1.143 2.16 0 1.786-.125 2.037-.9 2.162-.65.083-.975.456-1.1 1.163-.04.581-.285 1.123-.45 1.245-.2.126-.57 1.496-.815 3.035-.57 3.824-.938 4.28-3.425 4.61-3.59.42-5.14.337-5.14-.37 0-.501-.61-.627-2.895-.627-2.53 0-2.895-.08-3.1-.827-.163-.626-.57-.834-1.55-.834-.98 0-1.387.208-1.55.832-.205.75-.57.832-3.06.832-2.527 0-2.895.083-3.14.832-.122.456-.45.83-.65.83-.205 0-.37 2.162-.37 4.986 0 4.032.125 4.987.572 4.987.326 0 .733.375.855.832.206.706.613.831 2.938.831 2.285 0 2.693.126 2.855.83.325 1.165 2.775 1.165 3.1 0 .163-.707.57-.83 2.895-.83 2.122 0 2.692-.125 2.692-.626 0-.995 5.303-.827 8.565.293 3.958 1.328 12.85 1.328 17.05 0 1.633-.498 3.14-.832 3.346-.706.897.58.407 2.245-.858 2.951-1.468.747-1.468 1.411 0 4.902L59.868 69l3.997-.168c4.325-.208 7.055-1.203 9.788-3.533L75 64.136l-.775-2.285c-.817-2.41-1.835-3.325-3.795-3.325-.855 0-1.183-.374-1.915-1.995-1.265-2.867-3.06-4.405-6.895-5.901-1.997-.79-3.955-1.87-4.975-2.824-1.51-1.374-1.713-1.83-2.08-4.448-.245-1.579-.612-2.992-.815-3.118-.165-.125-.41-.664-.45-1.245-.122-.707-.45-1.08-1.06-1.163-.815-.125-.938-.376-.938-2.162 0-1.912-.082-2.035-1.1-2.16-1.145-.126-1.145-.126-1.267-3.824-.08-2.328.042-3.864.325-4.155.288-.29 2.325-.458 5.225-.458h4.77l.125-1.414c.08-.747-.043-1.578-.248-1.786-.244-.251-2.04-.208-4.772.125-3.14.376-4.445.376-4.65.042-.365-.626-2.12-1.205-3.1-.997Z" fill="#000"/></g></svg>