<svg viewBox="0 0 90 90" xmlns="http://www.w3.org/2000/svg"><path d="M55.424 35.68c0-1.145.918-2.082 2.04-2.082h16.22c1.123 0 2.04-.937 2.04-2.083 0-1.146-.917-2.082-2.04-2.082h-23.12c-1.121 0-2.04-.937-2.04-2.083 0-1.145.919-2.082 2.04-2.082h18.442c1.122 0 2.04-.938 2.04-2.083 0-1.146-.918-2.083-2.04-2.083h-19.44a23.477 23.477 0 0 0-7.53.514C29.739 24.49 21.846 36.55 23.702 49.08H2.04c-.488 0-.93.184-1.283.478A2.086 2.086 0 0 0 0 51.16c0 1.145.917 2.083 2.04 2.083h37.658c1.124 0 2.04.937 2.04 2.083 0 1.145-.916 2.082-2.04 2.082H23.965c-1.123 0-2.04.938-2.04 2.082 0 1.094.838 1.988 1.89 2.068h12.042c.052 0 .1.011.15.015 1.051.08 1.89.974 1.89 2.067 0 1.146-.918 2.083-2.04 2.083H17.454c-1.123 0-2.04.937-2.04 2.082 0 1.146.917 2.083 2.04 2.083h29.14a23.49 23.49 0 0 0 6.132-.605c12.263-2.866 20.147-14.866 18.351-27.356h15.229c1.122 0 2.04-.936 2.04-2.082s-.918-2.083-2.04-2.083H57.464c-1.122 0-2.04-.937-2.04-2.082M8.557 59.492c0 1.145.918 2.083 2.04 2.083h6.94c1.122 0 2.04-.938 2.04-2.083 0-1.145-.918-2.083-2.04-2.083h-6.94c-1.122 0-2.04.938-2.04 2.083m71.694-30.059a2.088 2.088 0 0 0-1.27 1.926c0 1.144.918 2.081 2.04 2.081h6.94c1.122 0 2.039-.937 2.039-2.081 0-1.146-.917-2.083-2.04-2.083h-6.937c-.273 0-.533.057-.771.157M4.54 65.794c-1.124.262-1.824 1.404-1.568 2.55.257 1.146 1.376 1.865 2.5 1.602 1.122-.263 1.824-1.405 1.567-2.55-.257-1.148-1.376-1.864-2.5-1.602m73.157-40.533c-.018.005-.034.003-.053.007h-.827a2.103 2.103 0 0 1-1.619-1.608c-.257-1.147.444-2.289 1.567-2.55 1.124-.263 2.242.454 2.499 1.6.258 1.147-.444 2.289-1.567 2.551" fill="#EC5373"/></svg>