<svg viewBox="0 0 90 90" xmlns="http://www.w3.org/2000/svg"><g fill="none"><path d="M71.63 5H18.37C10.986 5 5 10.986 5 18.37v53.26C5 79.014 10.986 85 18.37 85h53.26A13.37 13.37 0 0 0 85 71.63V18.37A13.366 13.366 0 0 0 71.63 5Z" fill="#FFF"/><g fill="#000"><path d="M74.96 0H15.04C6.735 0 0 6.734 0 15.04v59.92C0 83.265 6.734 90 15.04 90h59.92A15.041 15.041 0 0 0 90 74.96V15.04A15.037 15.037 0 0 0 74.96 0ZM74 69.196A4.806 4.806 0 0 1 69.194 74H20.808A4.808 4.808 0 0 1 16 69.196V20.808A4.808 4.808 0 0 1 20.808 16h48.384a4.806 4.806 0 0 1 4.806 4.808v48.388H74Z"/><path d="M35.664 57A2.672 2.672 0 0 1 33 54.322V35.678A2.67 2.67 0 0 1 35.664 33h18.672C55.812 33 57 34.2 57 35.678v18.644A2.67 2.67 0 0 1 54.336 57H35.664Z"/></g></g></svg>