<svg xmlns="http://www.w3.org/2000/svg" viewBox="0 0 90 90" fill-rule="evenodd"><path fill="#000" d="M0 0h90v90H0z"/><path fill="#fff" fill-rule="nonzero" d="M56.567 36.941a11.4 11.4 0 0 1 16.103 0 11.42 11.42 0 0 1 0 16.119h0L55.746 70l-3.062-3.058 16.903-16.941A6.97 6.97 0 0 0 71.675 45a7.07 7.07 0 0 0-4.358-6.528 7.06 7.06 0 0 0-7.694 1.527h0L40.005 59.635l-3.055-3.058zm6.569 6.485l3.055 3.044-19.617 19.643a11.4 11.4 0 0 1-16.103 0h0l-1.524-1.532 3.055-3.058 1.524 1.532c2.762 2.756 7.231 2.756 9.993 0h0l19.617-19.629zM34.354 20l3.055 3.058-16.924 16.941c-2.76 2.76-2.761 7.237-.003 9.999a7.06 7.06 0 0 0 9.99.003h0l19.617-19.636 3.055 3.058-19.617 19.636a11.38 11.38 0 0 1-11.048 3.052 11.39 11.39 0 0 1-8.102-8.113c-1.045-3.967.121-8.19 3.053-11.057h0L34.354 20zm9.144 3.901c4.45-4.444 11.654-4.444 16.103 0h0l1.524 1.532-3.055 3.058-1.524-1.525c-2.758-2.746-7.214-2.746-9.972 0h0l-19.61 19.609-3.062-3.058z"/></svg>