<svg viewBox="0 0 90 90" xmlns="http://www.w3.org/2000/svg" xmlns:xlink="http://www.w3.org/1999/xlink"><defs><path id="a" d="M0 0h90v26H0z"/><path id="c" d="M0 0h90v26H0z"/><path id="e" d="M0 0h90v26H0z"/><path id="g" d="M0 0h90v26H0z"/></defs><g fill="none" fill-rule="evenodd"><path fill="#FFF" fill-rule="nonzero" d="M0 0h90v90H0z"/><path fill="#5E5F5F" fill-rule="nonzero" d="M48.51 37.72v6.1h7.368v.94H48.51v8.48h-1.057V36.79h9.627v.93zm9.141 15.52 5.844-16.45h1.314l5.917 16.45H69.5l-1.706-5.181h-7.257l-1.706 5.18H57.65Zm3.204-6.124h6.594l-3.328-9.372-3.266 9.372Zm12.402 6.124 5.427-8.273-5.28-8.177h1.154l4.727 7.404 4.777-7.404h1.166l-5.39 8.177 5.415 8.273h-1.191l-4.826-7.513-4.875 7.513z"/><g transform="translate(0 32)"><mask id="b" fill="#fff"><use xlink:href="#a"/></mask><path d="M16.994 8.977H4.781c0-2.62 2.18-4.192 4.843-4.192h13.539c0 2.62-2.18 4.192-4.844 4.192h-1.325Z" fill="#3D81C3" fill-rule="nonzero" mask="url(#b)"/></g><g transform="translate(0 32)"><mask id="d" fill="#fff"><use xlink:href="#c"/></mask><path d="M4.781 9.625c0 2.569 2.488 4.508 4.86 4.508h7.92c.15 0 1.212.045 1.28 1.231v.241c0 1.066-.841 1.481-1.924 1.481l-7.737.009s-2.548-.015-3.845 2.08c0 0-.551.808-.551 2.094l12.501-.012c3.257 0 5.92-2.603 5.92-5.807 0-3.203-2.594-5.813-5.85-5.813L4.78 9.625Z" fill="#3D81C3" fill-rule="nonzero" mask="url(#d)"/></g><g transform="translate(0 32)"><mask id="f" fill="#fff"><use xlink:href="#e"/></mask><path d="M36.227 21.14h7.018c0-2.62-2.18-4.192-4.843-4.192l-8.38-.015c.085 2.584 2.217 4.207 4.88 4.207h1.325Z" fill="#3D81C3" fill-rule="nonzero" mask="url(#f)"/></g><g transform="translate(0 32)"><mask id="h" fill="#fff"><use xlink:href="#g"/></mask><path d="M28.65 4.792c-2.664 0-4.388 2.145-4.388 4.765v11.816c2.846 0 4.337-2.144 4.337-4.764v-6.042c0-1.484 1.444-1.367 1.444-1.367h7.554s1.168-.066 1.168 1.271v.242c0 1.066-.78 1.487-1.864 1.487 0 0-2.489.003-2.575 0-.087-.002-2.448-.013-3.744 2.084 0 0-.543.833-.56 2.083l7.297-.002c3.256 0 5.922-2.604 5.922-5.808 0-3.202-2.848-5.772-6.105-5.772l-8.486.007Z" fill="#3D81C3" fill-rule="nonzero" mask="url(#h)"/></g></g></svg>