<svg viewBox="0 0 90 90" xmlns="http://www.w3.org/2000/svg"><defs><linearGradient x1="35.956%" y1="26.255%" x2="73.215%" y2="65.601%" id="a"><stop stop-color="#FF4C1D" offset="10%"/><stop stop-color="#F64523" offset="30%"/><stop stop-color="#DE3334" offset="50%"/><stop stop-color="#B61550" offset="80%"/><stop stop-color="#9B0063" offset="100%"/></linearGradient></defs><path d="M24.926 37.748a66.772 66.772 0 0 1 57.862.968c.964.726 2.41 0 2.652-.968l3.375-10.41c.482-.969 0-2.422-1.205-2.906C59.822 10.726 26.715 13.91 2.023 32.664a2.427 2.427 0 0 0-.724 3.147l7.956 17.673c.483 1.21 1.93 1.937 3.135 1.452 8.92-3.389 22.662-6.778 36.645-4.842-9.643 1.695-17.117 5.084-23.144 8.716a2.427 2.427 0 0 0-.724 3.147l4.822 11.137c.482.968 1.688 1.21 2.411.484 1.929-1.937 3.858-3.39 5.545-4.358 7.715-4.358 18.323-7.747 32.547-7.02a2.412 2.412 0 0 0 2.411-1.695L76.52 49.61c.482-.968 0-2.42-.965-2.905a73.273 73.273 0 0 0-50.87-8.957h.241Z" fill="url(#a)"/></svg>