<svg xmlns="http://www.w3.org/2000/svg" viewBox="0 0 90 90"><rect width="90" height="90" fill="#FFF"/><g transform="translate(5 25)"><path d="M5.18568392,11.5139076 C5.18568392,6.16306923 8.59102935,3.15322265 14.8640341,3.15322265 C19.3925461,3.15322265 20.193101,6.10335005 20.2050496,7.16635143 C20.2050496,9.23263499 17.2895959,11.4183569 17.2895959,11.4183569 C17.2895959,11.4183569 17.4568761,12.6963473 19.9541294,12.6844035 C22.4513827,12.6724597 24.8888931,11.0242103 24.8769883,6.89164321 C24.8769883,2.11410894 19.8824379,-0.0118938028 14.9715713,0 C10.8612596,0.0239377041 0,0.621129487 0,11.4422446 C0,20.9973131 18.1618423,21.8931008 18.1857395,28.05612 C18.1857395,34.7327241 10.7059281,36.5362433 8.18477762,36.5481871 C6.42435572,36.745451 4.83014611,35.4971494 4.60020348,33.7413858 C4.60020348,28.3308282 9.9651161,26.8259049 9.9651161,26.8259049 C9.94996983,26.2141671 9.68702368,25.6347855 9.2365101,25.2204776 C8.78599653,24.8061697 8.18651957,24.5924371 7.57540001,24.6282392 C2.1985388,24.6282392 0.0597429023,29.2743912 0.0716914828,33.7772173 C0.0716914828,37.6111885 2.80791641,40.0118995 6.89433093,40 C14.7325997,40 23.6223436,36.1540406 23.5267549,27.6619734 C23.5028578,19.7193227 5.20958108,17.6530391 5.18568392,11.5139076 Z"/><path d="M79.8523632,32.7739351 C79.7806717,32.630609 79.6133916,32.6664405 79.37442,32.8575419 C77.3012823,34.8000565 74.5298947,35.8211422 71.6914828,35.688231 C63.0168133,35.688231 61.5232408,21.4272912 61.5232408,21.4272912 C61.5232408,21.4272912 68.1188572,16.4944871 69.1583837,14.5118104 C70.1979102,12.5291336 66.900102,12.1230432 66.900102,12.1230432 C66.900102,12.1230432 62.2879499,17.7485898 59.0020903,19.3968391 C59.3605477,17.008072 61.774161,11.3825254 61.9294925,8.18157746 C62.0848241,4.9806295 58.070101,5.79281033 57.4248777,6.05557471 C57.4248777,7.46494732 53.8403036,20.1612446 52.6454455,27.1483885 C51.8926849,28.342772 50.8053641,29.7521446 49.8375291,29.7521446 C49.2759458,29.7521446 49.07282,28.7130309 49.0608714,27.2200515 C49.0608714,25.1537679 50.2557294,21.8333816 50.2557294,19.8268172 C50.2557294,18.4293884 49.6105061,18.3457816 49.0608714,18.3457816 L48.1647278,18.3457816 C46.7428468,18.3457816 47.2088414,17.151398 45.9422919,17.151398 C42.0470546,17.151398 37.0883937,21.4153474 36.8733193,27.9008501 C35.6566463,28.8314136 34.2616878,29.5021913 32.7749562,29.871583 C31.7951726,29.871583 31.5800982,28.9519077 31.5800982,28.1636145 C31.5800982,26.7900734 33.8264313,18.608546 33.8264313,18.608546 C33.8264313,18.608546 36.6701934,17.879972 37.9128458,17.6410953 C38.8567837,17.4619378 39.1077038,17.3902747 39.4900584,16.936409 C39.872413,16.4825432 40.5773792,15.5389802 41.1509111,14.7029117 C41.724443,13.8668432 41.1509111,13.1979884 40.0874874,13.2099323 C38.3522007,13.3829983 36.6313073,13.6783476 34.9376493,14.0937761 C34.9376493,14.0937761 36.6223991,6.1869569 36.6223991,5.99585553 C36.6223991,5.80475416 36.4073247,5.75697882 36.1086102,5.75697882 C35.198249,5.86598524 34.3063157,6.09490418 33.4560253,6.43777745 C32.3474125,6.93909696 31.486483,7.86422863 31.0663092,9.00570212 C30.8631833,9.68650075 29.5129937,14.9776199 29.5129937,14.9776199 C29.5129937,14.9776199 22.3438455,17.4738816 21.304319,17.8441405 C21.2417337,17.8643418 21.1986588,17.9217522 21.1967817,17.9874665 C21.1967817,17.9874665 22.0331824,21.2123022 23.7179322,21.2003583 C25.3598605,20.8919123 26.9627108,20.4032371 28.4973644,19.7432104 C28.4973644,19.7432104 26.6692316,27.0289501 26.6692316,29.4416049 C26.6692316,30.9943036 27.4100436,32.8217104 30.444983,32.8097666 C32.8752046,32.6859433 35.2096754,31.8233656 37.1361881,30.3373926 C37.7713657,31.8388962 39.2703769,32.7902714 40.8999909,32.7261597 C42.858796,32.5786934 44.6876633,31.690251 46.0139834,30.2418419 C46.4343481,31.6327743 47.6811016,32.6116363 49.1325629,32.6903282 C50.2079351,32.6903282 51.3311017,31.4959447 52.1555537,30.3015611 C52.1366713,30.5480395 52.1366713,30.7956005 52.1555537,31.0420789 C52.490114,34.0519255 56.9349859,32.2364625 57.1978547,31.8662036 C57.3531862,29.6804816 57.1978547,25.2254309 58.1298439,22.4783487 C59.3008048,31.9378666 63.6859339,38.2442118 71.5600484,38.2442118 C75.9690746,38.2442118 78.2273563,36.9542775 79.1712941,35.9151638 C79.9346838,35.0604335 80.1932445,33.8678991 79.8523632,32.7739351 Z M42.0470546,29.6924255 C38.2713032,29.6924255 43.2419127,19.8984802 46.4321837,19.8865364 C46.4321837,21.1406391 46.3604922,29.6685378 42.0470546,29.6924255 Z"/><path d="M72.7549064,32.69042 C75.2564195,32.6417858 77.6264082,31.5610159 79.3027285,29.7043693 C79.9240547,28.7488625 78.5738651,27.3156022 78.1078705,27.3156022 C76.9436568,28.7616981 75.1853799,29.6009419 73.3284383,29.5968748 C70.3412932,29.5968748 71.0223623,26.3362077 71.0223623,26.3362077 C71.0223623,26.3362077 76.7576809,27.0767255 79.0637569,22.9561022 C79.6964555,21.7478746 79.8623233,20.3491865 79.5297515,19.0265802 C78.5279688,17.4933893 76.7115968,16.7005083 74.9056509,17.008072 C71.655637,17.2827802 67.5453253,20.6867734 66.6372332,24.7715652 C66.0039585,28.0680638 67.3660966,32.7142159 72.7549064,32.69042 Z M76.3394806,18.9429734 C76.8771667,18.9429734 76.8293724,19.8029295 76.6859894,20.7226049 C76.4828635,21.9767076 74.7622679,25.1657118 71.4764083,25.0462734 C71.7512257,23.1949789 74.2006847,19.0146364 76.3992235,18.9429734 L76.3394806,18.9429734 Z"/></g></svg>