<svg xmlns="http://www.w3.org/2000/svg" viewBox="0 0 90 90" fill-rule="evenodd" xmlns:v="https://vecta.io/nano"><path fill="#000" d="M0 0h90v90H0z"/><g fill="#fff" fill-rule="nonzero"><path d="M37.696 49.994h-3.405v-8.447h-4.795v-2.545h12.841v2.545h-4.642zm20.333-2.56v2.559h-8.381-3.363-.236V39.001h.139 3.461 8.381v2.546h-8.575v1.846h8.047v2.224h-8.047v1.817zm8.199 2.56h-4.586l5.295-5.426-5.1-5.567h4.434l3.016 3.398 3.002-3.398h4.474l-5.155 5.566L77 49.993h-4.572l-3.1-3.3zM26.063 39.002v2.271h-8.696v.114l-.227.021a1.45 1.45 0 0 0-.417.119.75.75 0 0 0-.313.272.85.85 0 0 0-.118.476c0 .353.125.586.375.699a2.08 2.08 0 0 0 .699.155v.175h5.2c.008 0 .017.002.025.002h.002l.55.025.737.049c.726.039 1.295.241 1.711.602-.155.165-.206.403-.026.646l.181.248c-.202.661-.083 1.555-.242 2.081a.53.53 0 0 0 .165.587c-.175.462-.297.905-.191 1.412l-.839.844c-.416.13-.911.194-1.483.194h-9.865v-2.378h8.422l.172-.003.139-.007.223-.018a1.55 1.55 0 0 0 .345-.079c.037-.012.072-.025.107-.041a.76.76 0 0 0 .334-.274c.084-.121.125-.28.125-.475 0-.224-.058-.403-.174-.539-.102-.12-.233-.211-.392-.273l-.059-.022a2.36 2.36 0 0 0-.508-.105v-.208h-5.436l-.088-.006-.082-.004-.737-.049c-.928-.05-1.618-.334-2.072-.848.017-.022.032-.047.045-.073.134-.256.218-.54.257-.826.056-.411-.237-.83-.165-1.197.067-.344.34-.51.299-.918-.046-.455-.39-.783-.47-1.218-.014-.075-.037-.138-.069-.193l1.03-1.035c.358-.138.786-.208 1.284-.208h10.241 0z"/><path d="M16.501 39.002v2.569c-.438.025-.604.458-.501.796-.16.342-.004.844.467.873.011.002.021.003.033.003v2.334h-3.214v-5.109l.22-.222 1.03-1.035.204-.207h1.759v-.002z"/><path d="M15.477 41.337h1.891v1.903h-1.891zm10.482 1.968v5.181l-.477.48-.841.835-.181.194h-1.867v-6.689h3.366z"/><path d="M22.025 45.721h.568.707v1.978h-.707-.568-.139v-.085l.139-.007v-1.822-.064z"/><path d="M21.885 47.614l.139-.007v.188H13.29v-.179h8.422l.172-.002zm-4.517-6.572h8.696v1h-8.696zm7.274 8.758l-.181.194h-.012l.193-.194zm1.317-1.326v.011l-.477.48.477-.491z"/><path d="M23.461 48.987l1.498-1.508 1 1.006-1.498 1.508z"/></g></svg>