<svg viewBox="0 0 90 90" xmlns="http://www.w3.org/2000/svg"><defs><linearGradient x1="50%" y1="0%" x2="50%" y2="100%" id="a"><stop stop-color="#111D2E" offset="0%"/><stop stop-color="#051839" offset="21.248%"/><stop stop-color="#0A1B48" offset="40.695%"/><stop stop-color="#132E62" offset="58.11%"/><stop stop-color="#144B7E" offset="73.76%"/><stop stop-color="#136497" offset="87.279%"/><stop stop-color="#1387B8" offset="100%"/></linearGradient></defs><g fill="none"><path d="M1.833 57.944C7.396 76.488 24.604 90 44.97 90 69.84 90 90 69.852 90 45 90 20.147 69.84 0 44.971 0 21.108 0 1.581 18.552.04 42.01c2.914 4.89 4.051 7.915 1.794 15.934Z" fill="url(#a)"/><path d="M42.652 33.73c0 .075 0 .15.004.222l-11.02 15.996a12.351 12.351 0 0 0-5.273.931c-.75.305-1.45.68-2.109 1.112L.06 42.037s-.56 9.205 1.773 16.065l17.105 7.053c.859 3.836 3.492 7.2 7.376 8.819 6.356 2.653 13.683-.371 16.327-6.725a12.527 12.527 0 0 0 .963-5.141l15.765-11.26c.128.004.26.008.387.008 9.435 0 17.103-7.687 17.103-17.126 0-9.44-7.668-17.12-17.103-17.12-9.431 0-17.103 7.68-17.103 17.12Zm-2.644 32.414c-2.046 4.91-7.692 7.239-12.599 5.195a9.575 9.575 0 0 1-4.959-4.727l5.568 2.306a7.094 7.094 0 0 0 9.275-3.824 7.097 7.097 0 0 0-3.82-9.282l-5.755-2.384a9.58 9.58 0 0 1 7.104.108 9.56 9.56 0 0 1 5.201 5.23 9.591 9.591 0 0 1-.015 7.378M59.755 45.14c-6.28 0-11.394-5.118-11.394-11.41 0-6.286 5.113-11.406 11.394-11.406 6.285 0 11.398 5.12 11.398 11.407 0 6.291-5.113 11.41-11.398 11.41m-8.538-11.428c0-4.733 3.834-8.571 8.557-8.571 4.727 0 8.562 3.838 8.562 8.571s-3.835 8.569-8.562 8.569c-4.723 0-8.557-3.836-8.557-8.569Z" fill="#FFF"/></g></svg>