<svg viewBox="0 0 90 90" xmlns="http://www.w3.org/2000/svg"><path d="M45 90a7.561 7.561 0 0 1-7.56-7.35L16.161 70.37a7.522 7.522 0 0 1-3.482.91l-.117.001A7.56 7.56 0 0 1 6.014 67.5a7.558 7.558 0 0 1 2.588-10.22V32.72A7.558 7.558 0 0 1 6.014 22.5a7.559 7.559 0 0 1 6.431-3.78l.117-.001a7.525 7.525 0 0 1 3.6.912L37.44 7.35A7.561 7.561 0 0 1 44.875.001L45 0a7.561 7.561 0 0 1 7.56 7.35l21.278 12.28a7.538 7.538 0 0 1 3.483-.91l.117-.001a7.56 7.56 0 0 1 6.548 3.781 7.558 7.558 0 0 1-2.588 10.22v24.56a7.558 7.558 0 0 1 2.588 10.22 7.559 7.559 0 0 1-6.431 3.78l-.117.001a7.526 7.526 0 0 1-3.6-.911L52.56 82.65A7.562 7.562 0 0 1 45.125 90H45Zm0-78.84.098-.002h.024-.024c.033 0 .065-.002.098-.004l-.074.003c.036 0 .072-.003.107-.005l-.033.002.099-.007-.066.005.097-.007-.031.002.088-.008-.057.006.106-.011-.05.005.099-.011-.049.006.09-.012-.041.006a3.6 3.6 0 0 0 .11-.017l-.07.01c.03-.003.06-.008.09-.013l-.02.003.093-.016-.073.013.098-.018-.025.005.118-.025-.093.02a3.59 3.59 0 0 0 .277-.067l-.055.015.09-.025-.035.01.08-.024-.045.014a3.601 3.601 0 1 0-2.036.002l-.055-.017c.028.008.055.017.083.024l-.028-.007.09.024-.062-.017c.032.01.064.018.096.026l-.035-.009a3.63 3.63 0 0 0 .249.057l-.035-.007.101.019-.066-.012.083.015-.017-.003.091.014-.074-.011.112.016-.038-.005.087.012-.049-.007c.033.005.066.009.1.012l-.05-.005c.035.004.07.008.106.01l-.056-.005.087.008-.031-.002.097.007-.066-.005.1.007-.034-.002.106.005-.073-.003c.065.004.13.005.196.005Zm11.706 24.705 13.397-7.732a7.408 7.408 0 0 1-.066-.282l-.014-.066-.014-.07a7.377 7.377 0 0 1-.105-.747l-.005-.056-.015-.21v-.017.018a9.281 9.281 0 0 1-.005-.108l-.002-.065-.002-.072-.001-.055-.001-.054v-.05.05a7.546 7.546 0 0 1 .171-1.664l.014-.065.011-.046.01-.044a8.103 8.103 0 0 1 .158-.565l.016-.048.019-.056.026-.076.013-.038.027-.074a.773.773 0 0 1 .005-.016l.036-.094a7.686 7.686 0 0 1 .191-.453l.018-.038a5.435 5.435 0 0 1 .121-.248l.021-.04.035-.066.02-.037a7.37 7.37 0 0 1 .101-.181L51.55 11.34l-.011.02a8.037 8.037 0 0 1-.11.182l-.019.03a5.38 5.38 0 0 1-.043.068l-.028.044a4.817 4.817 0 0 1-.068.103l-.022.031a7.633 7.633 0 0 1-.652.825l-.03.033-.031.034a7.335 7.335 0 0 1-.566.548l-.014.011a7.6 7.6 0 0 1-.146.125l-.024.02a5.826 5.826 0 0 1-.107.085l-.028.022a7.542 7.542 0 0 1-.39.285l-.02.014a7.544 7.544 0 0 1-.838.492l-.032.016-.184.09-.043.02a7.706 7.706 0 0 1-.8.311l-.036.012a8.918 8.918 0 0 1-.26.078l-.017.004v14.559a12.979 12.979 0 0 1 9.675 6.463Zm-22.724.307a12.973 12.973 0 0 1 9.089-6.654V14.871a7.769 7.769 0 0 1-.98-.331l-.025-.01a7.558 7.558 0 0 1-.56-.264l-.024-.013a7.114 7.114 0 0 1-.09-.048l-.032-.017a14.245 14.245 0 0 1-.226-.13l-.037-.022a9.08 9.08 0 0 1-.114-.07l-.044-.028-.05-.032a8.151 8.151 0 0 1-.158-.106l-.055-.038a7.63 7.63 0 0 1-.328-.242l-.014-.01a7.436 7.436 0 0 1-.839-.767 7.531 7.531 0 0 1-.16-.176l-.004-.004a7.742 7.742 0 0 1-.309-.372l-.035-.047a5.213 5.213 0 0 1-.113-.15l-.029-.041a3.543 3.543 0 0 1-.037-.052l-.032-.046-.041-.06-.029-.043a7.308 7.308 0 0 1-.232-.37l-.024-.042L19.114 22.5a7.736 7.736 0 0 1 .156.284l.028.055.017.032a7.116 7.116 0 0 1 .324.74 7.67 7.67 0 0 1 .476 2.247 6.831 6.831 0 0 1 .01.586 7.557 7.557 0 0 1-.04.64v.004-.004a7.544 7.544 0 0 1-.168.97l14.065 8.118Zm45.255-6.775a3.6 3.6 0 1 0-3.601-6.235 3.6 3.6 0 0 0-1.741 3.775l.008.043-.008-.043.016.081-.008-.038.022.104-.014-.066.025.11-.01-.044c.006.028.012.056.02.085l-.01-.042.023.093-.013-.051c.008.034.018.067.027.1l-.014-.05.025.087-.01-.036c.03.106.065.21.105.314l.018.044-.018-.044.04.098-.022-.054.037.09-.015-.036.036.082-.02-.047c.015.035.03.07.047.105l-.027-.058c.013.03.027.058.041.087l-.014-.029.043.086-.029-.057.053.105-.024-.048c.02.041.042.082.064.122l.029.05a3.627 3.627 0 0 0 .18.282l-.023-.034c.038.056.078.11.12.164l.021.027-.021-.027.051.064-.03-.037.072.087-.042-.05.06.071-.018-.02.055.063-.038-.043a3.469 3.469 0 0 0 .432.425l-.06-.051.072.06-.012-.01a3.603 3.603 0 0 0 4.1.346Zm-64.177-.521.029-.029c.037-.036.073-.073.108-.11l.014-.016-.014.015.066-.072-.052.057.07-.078-.018.021.066-.077-.048.056.058-.068-.01.012.054-.067-.044.055.074-.093-.03.038.06-.078-.03.04a3.45 3.45 0 0 0 .054-.072l-.024.032c.02-.025.038-.051.056-.077l-.032.045.06-.083-.028.038a3.642 3.642 0 0 0 .211-.335l-.028.05a3.626 3.626 0 0 0 .145-.278l-.026.055a3.3 3.3 0 0 0 .03-.064l-.004.01a3.35 3.35 0 0 0 .053-.119l-.012.027a3.6 3.6 0 0 0 .149-.406l.007-.026-.007.026a3.57 3.57 0 0 0 .026-.094l-.019.068c.01-.033.019-.066.027-.1l-.008.032.023-.089-.015.057a3.57 3.57 0 0 0 .052-.23l-.006.029a3.6 3.6 0 1 0-1.037 1.898Zm2.776 29.422 8.579-4.95a10.394 10.394 0 0 1-2.333-6.578c0-3.752 1.98-7.04 4.952-8.881L18.01 31.526a6.996 6.996 0 0 1-.377.366 7.517 7.517 0 0 1-1.51 1.058l-.004.003a7.226 7.226 0 0 1-.85.386 7.073 7.073 0 0 1-.62.207 7.476 7.476 0 0 1-.688.163l-.037.007a7.522 7.522 0 0 1-.323.052l-.02.003-.038.005a6.803 6.803 0 0 1-.425.044l-.048.003-.213.012-.043.001a9.254 9.254 0 0 1-.132.004h-.118v22.32h.001a7.55 7.55 0 0 1 1.772.212l.125.03a7.616 7.616 0 0 1 2.41 1.103l.064.045a7.307 7.307 0 0 1 .9.748Zm54.387-.056.04-.039a7.536 7.536 0 0 1 1.168-.897l.004-.002a8.189 8.189 0 0 1 .216-.13l-.042.024a7.836 7.836 0 0 1 .85-.427c.255-.11.517-.205.784-.285l.055-.017a7.586 7.586 0 0 1 .475-.123l.07-.016.2-.04.017-.003.1-.018-.1.018a7.646 7.646 0 0 1 .576-.084l.038-.004.204-.018.052-.004c.068-.005.136-.008.203-.011l.053-.002.024-.001c.075-.002.15-.004.226-.004h-.016.016V33.841h-.001a7.476 7.476 0 0 1-1.425-.137 7.995 7.995 0 0 1-.717-.175 7.541 7.541 0 0 1-1.862-.836l-.109-.068a7.5 7.5 0 0 1-1.277-1.04L58.4 39.46c4.345.546 7.717 4.218 7.79 8.693v.147c0 2.033-.68 3.906-1.827 5.405l7.86 4.537ZM44.534 53.25h12.743a4.95 4.95 0 1 0 0-9.9h-2.729l-.146-1.82c-.374-4.652-4.274-8.267-8.973-8.267a9.006 9.006 0 0 0-8.403 5.76l-.49 1.268h-2.01a6.48 6.48 0 1 0 0 12.959h9.681c.044 0 .087 0 .13-.002h.042l.099.001h.056ZM38.45 78.66l.021-.037.096-.16.03-.048.028-.043.034-.053a7.672 7.672 0 0 1 .744-.962l.026-.029a6.54 6.54 0 0 1 .053-.057l.028-.03.055-.057a7.574 7.574 0 0 1 .75-.678c.011-.01.022-.018.033-.026a6.293 6.293 0 0 1 .112-.086l.035-.026c.052-.039.105-.077.158-.114l.043-.03a7.05 7.05 0 0 1 .416-.269l.044-.026a6.96 6.96 0 0 1 .162-.093l.045-.025.056-.03a7.11 7.11 0 0 1 .178-.093l.028-.014.068-.034a5.38 5.38 0 0 1 .217-.102 8.445 8.445 0 0 1 .618-.244 7.326 7.326 0 0 1 .236-.077l.063-.02.056-.016.068-.02.032-.008.06-.016.028-.007V57.21h-8.546a10.4 10.4 0 0 1-4.831-1.182l-9.84 5.678a7.575 7.575 0 0 1 .273 1.967v-.048a7.545 7.545 0 0 1-.086 1.226l.01-.073a7.566 7.566 0 0 1-.205.98l-.013.045-.009.032.01-.032a7.697 7.697 0 0 1-.113.358l-.01.032a7.614 7.614 0 0 1-.34.82l-.03.062-.024.049-.031.062-.02.039a10.194 10.194 0 0 1-.151.274l-.001.002L38.45 78.66Zm13.1 0L70.886 67.5a7.55 7.55 0 0 1-.092-.165l-.024-.044a6.631 6.631 0 0 1-.091-.176l-.018-.036a5.514 5.514 0 0 1-.035-.07l-.026-.055-.01-.023.01.023a6.867 6.867 0 0 1-.126-.282l-.003-.007a7.654 7.654 0 0 1-.181-.472l-.011-.032a4.516 4.516 0 0 1-.025-.075l-.012-.035a9.153 9.153 0 0 1-.076-.249l-.012-.043a7.71 7.71 0 0 1-.11-.449l-.012-.05a7.27 7.27 0 0 1-.066-.36l-.003-.018a7.521 7.521 0 0 1-.09-1.153v-.104.048a6.461 6.461 0 0 1 .004-.199l.001-.056.004-.069.002-.045c.003-.065.008-.13.013-.195l.006-.071a7.338 7.338 0 0 1 .108-.76l.008-.04a6.36 6.36 0 0 1 .018-.087l.008-.04.015-.064.016-.072a7.62 7.62 0 0 1 .054-.211l.024-.089.013-.047-9.11-5.257a8.884 8.884 0 0 1-3.78.839H47.032v17.947a6.79 6.79 0 0 1 .265.079l.072.023.042.014.195.069.033.012.065.025a6.841 6.841 0 0 1 .563.242l.046.022a7.297 7.297 0 0 1 .35.182l.032.018a3.26 3.26 0 0 1 .119.068l.042.025.072.043.022.014.084.052.03.019.053.034.053.035.049.033.049.033.068.047a7.27 7.27 0 0 1 .734.585l.07.065.025.022a4.102 4.102 0 0 1 .091.087l.03.03.038.037.023.023.02.02c.045.045.089.09.133.137l.009.01a6.832 6.832 0 0 1 .314.355l.033.04.047.058c.038.047.076.095.113.144l.034.045a2.74 2.74 0 0 1 .076.103l.025.035.048.067.023.033.04.06.031.045c.076.113.148.228.218.345l.04.068ZM14.364 66.838a3.6 3.6 0 0 0 1.734-3.816l.006.032a3.56 3.56 0 0 0-.307-.918l-.016-.034.016.034a3.61 3.61 0 0 0-.038-.076l.022.042a3.744 3.744 0 0 0-.05-.096l-.049-.086a3.598 3.598 0 0 0-.18-.282l.024.035a4.027 4.027 0 0 0-.054-.077l.03.042a3.656 3.656 0 0 0-.06-.081l.03.04a3.445 3.445 0 0 0-.066-.087l.036.047a3.874 3.874 0 0 0-.052-.068l.016.02a3.751 3.751 0 0 0-.063-.079l.047.059-.06-.075.013.016a3.603 3.603 0 0 0-4.58-.828 3.6 3.6 0 1 0 3.601 6.236Zm66.191-1.318a3.6 3.6 0 0 0-1.318-4.917 3.604 3.604 0 0 0-4.23.458l-.067.063a3.637 3.637 0 0 0-.11.11l-.026.028.026-.027-.056.06.03-.033-.06.068.03-.035a5.257 5.257 0 0 0-.064.073l.033-.038a3.568 3.568 0 0 0-.064.073l.03-.035-.061.073.031-.038a3.583 3.583 0 0 0-.204.27l.02-.03a3.651 3.651 0 0 0-.226.364l-.017.033.017-.033a3.536 3.536 0 0 0-.05.096l.033-.063c-.016.03-.032.06-.047.092l.014-.029a2.943 2.943 0 0 0-.04.082l.026-.053a4.096 4.096 0 0 0-.047.097l.02-.044c-.03.067-.06.134-.087.202l-.012.029.012-.03a3.6 3.6 0 0 0-.133.4c-.005.017-.01.033-.013.05l.013-.05-.024.092.01-.042-.02.089.01-.047-.023.104.012-.057a2.987 2.987 0 0 0-.02.095l.008-.038a4.238 4.238 0 0 0-.017.084l.01-.046a3.6 3.6 0 0 0 6.651 2.5ZM45 86.04a3.6 3.6 0 0 0 1.32-6.95l-.029-.011.03.012-.075-.029.045.017a3.991 3.991 0 0 0-.088-.033l.043.016a2.848 2.848 0 0 0-.083-.03l.04.014-.089-.03.049.017a2.885 2.885 0 0 0-.094-.031l.045.014a3.678 3.678 0 0 0-.093-.028l.048.014a3.063 3.063 0 0 0-.083-.025l.035.01a3.173 3.173 0 0 0-.09-.025l.055.015a3.995 3.995 0 0 0-.098-.026l.043.011a3.71 3.71 0 0 0-.222-.052l-.047-.009.047.01a3.859 3.859 0 0 0-.085-.016l.038.006a3.063 3.063 0 0 0-.098-.016l.06.01a3.458 3.458 0 0 0-.104-.017l.044.007-.068-.01.024.003a3.688 3.688 0 0 0-.108-.014l.084.01a4.93 4.93 0 0 0-.096-.011l.012.001a4.307 4.307 0 0 0-.09-.01l.078.009a4.219 4.219 0 0 0-.103-.01l.024.002a4.1 4.1 0 0 0-.102-.008l.078.006a5.106 5.106 0 0 0-.099-.007l.021.001a3.68 3.68 0 0 0-.096-.004l.075.003a3.653 3.653 0 0 0-.198-.005l-.098.001h-.025.025c-.033 0-.067.002-.1.004l.075-.003a3.68 3.68 0 0 0-.096.004l.021-.001a3.918 3.918 0 0 0-.099.007l.078-.006a4.1 4.1 0 0 0-.102.008l.024-.002a3.39 3.39 0 0 0-.103.01l.079-.008-.091.009.012-.001a3.052 3.052 0 0 0-.097.012l.085-.011-.105.014.02-.003a4.092 4.092 0 0 0-.07.01l.05-.007c-.036.005-.071.01-.107.017l.056-.01-.085.015.029-.005-.088.016.059-.011c-.08.014-.16.032-.238.052l-.035.009.035-.01a2.952 2.952 0 0 0-.096.027l.061-.017c-.03.008-.06.016-.088.025l.027-.008a2.901 2.901 0 0 0-.086.025l.059-.017-.098.03.039-.013-.09.03.05-.017-.09.03.04-.014-.083.03.042-.015c-.03.01-.059.021-.089.033l.047-.018a4.172 4.172 0 0 0-.072.027l.025-.01A3.601 3.601 0 0 0 45 86.04Z" fill="#276CFF"/></svg>