<svg xmlns="http://www.w3.org/2000/svg" viewBox="0 0 90 90"><path fill="#42A3C1" d="M0 0h90v90H0z"/><g fill="#FFF"><path d="M55.518 15.716C61.934 21.22 66 29.384 66 38.5c0 13.623-9.08 25.125-21.518 28.784C38.066 61.781 34 53.616 34 44.5c0-13.443 8.842-24.821 21.028-28.635l.49-.149Z" fill-opacity=".8"/><path d="M43 36.5c8.704 0 16.542 3.707 22.022 9.628C61.646 59.003 49.932 68.5 36 68.5c-8.704 0-16.542-3.707-22.022-9.628C17.354 45.997 29.068 36.5 43 36.5Z" fill-opacity=".4"/><path d="M43 36.5c16.569 0 30 13.431 30 30a30.12 30.12 0 0 1-.788 6.862A30.026 30.026 0 0 1 64 74.5c-16.569 0-30-13.431-30-30 0-2.361.273-4.659.788-6.862A30.026 30.026 0 0 1 43 36.5Z" fill-opacity=".6"/></g></svg>