<svg width="90" height="90" viewBox="0 0 90 90" xmlns="http://www.w3.org/2000/svg"><g fill="none" fill-rule="evenodd"><rect fill="#FFF" opacity="0" width="90" height="90"/><path d="M64.6202909,53.8790717 C68.8169663,53.8775999 72.8802963,55.3461069 76.0954016,58.0268318 C79.3068028,60.7075567 81.4699612,64.4285355 82.1996567,68.5365255 L86,90 L60.664378,90 L54.2563917,53.8790717 L64.6202909,53.8790717 Z M86,4.47641924e-13 L85.9956096,0.0246281108 C85.9243563,0.424364208 84.9970092,5.62814558 84.0347979,11.0925981 L83.9168577,11.7627086 C83.8381892,12.2099056 83.7595117,12.6576039 83.681272,13.1033319 C81.8514771,23.6262819 82.1255759,31.2773949 68.2761767,39.3015263 L48.4336435,50.6691993 C35.2358701,58.2185104 33.0623667,68.8646262 31.352325,78.7057321 L31.2308249,79.4072465 L31.2308249,79.4072465 L31.1100458,80.1057068 C31.049694,80.4541208 30.9892919,80.801271 30.9283585,81.1469796 C29.8134429,87.5078096 29.3467341,89.9613357 29.3467341,89.9613357 L4,89.9613357 C4,89.9613357 4.96668217,84.5563764 5.96879167,78.8686522 L6.14581274,77.8630435 C6.16548048,77.7512147 6.18514079,77.6393931 6.20478663,77.5276172 L6.32243202,76.8578197 L6.32243202,76.8578197 C8.1485229,66.3352379 7.87442407,58.6841249 21.7238233,50.6691993 L41.5700605,39.3015263 C53.9790366,32.2015789 56.6426789,22.3622443 58.3435401,13.0297169 L58.4710107,12.3219444 C58.4919947,12.2041623 58.5128602,12.0864746 58.5336248,11.9688879 L58.657145,11.2646314 C58.8001728,10.4445352 58.9400057,9.63003126 59.0827536,8.82337779 C60.1976692,2.46258462 60.664378,4.47641924e-13 60.664378,4.47641924e-13 L86,4.47641924e-13 Z M29.3837745,0.0107891814 L35.7547204,36.13179 L25.3797091,36.13179 C21.1941458,36.1244254 17.1419279,34.6529725 13.9379348,31.9748252 C10.7302376,29.2966779 8.57448731,25.5826956 7.8484958,21.4835431 L4.03704038,0.0107891814 L29.3837745,0.0107891814 Z" fill="#00D37E" fill-rule="nonzero"/></g></svg>