<svg xmlns="http://www.w3.org/2000/svg" viewBox="0 0 90 90"><path fill="#24B744" d="M0 0h90v90H0z"/><g fill="#FFF"><path d="M34.81 45.543c-1.361.565-2.497.452-3.405.113-.227.339-.34.678-.567 1.017-.568 1.244-1.136 2.488-1.476 3.732-.227 1.244-.454 2.601-.454 3.958 0 1.357.227 2.601.794 3.619.568 1.017 1.59 1.696 2.838 1.809 1.136.113 2.27-.452 3.406-1.13 2.157-1.47 4.087-3.62 5.903-5.655 1.816-2.035 3.633-4.184 5.449-6.333 1.816-2.148 3.746-4.183 6.016-5.993 1.135-.904 2.384-1.696 4.087-2.035h1.135c.34 0 .795.113 1.135.226.795.226 1.476.678 2.044 1.357.454.565.794 1.13 1.021 1.81.34-5.316 1.59-20.695-7.038-16.624-5.562 2.601-9.535 9.273-13.509 13.796-2.043 2.262-4.427 5.202-7.378 6.333Z"/><path d="M46.504 77.772a46.445 46.445 0 0 1 3.064-7.803c.681-1.244 1.25-2.488 2.044-3.732.68-1.244 1.362-2.374 2.27-3.505 1.59-2.262 3.179-4.524 4.654-6.898 1.476-2.262 2.952-4.637 3.292-7.238.227-1.357.227-2.714.114-3.957-.114-1.244-.454-2.601-1.249-3.393a4.947 4.947 0 0 0-.794-.678c-2.498 4.297-5.79 8.255-8.287 12.552-3.633 5.993-5.903 11.986-6.017 18.997v10.178c-.113.565.227-1.923.909-4.523ZM28 49.84c.34-1.357.908-2.6 1.476-3.844.68-1.244 1.362-2.488 2.043-3.62 1.476-2.374 2.952-4.748 4.654-6.897 3.406-4.41 6.925-8.707 10.671-12.778V8c-4.654 5.767-9.308 11.76-13.395 18.093-2.27 3.506-4.654 7.237-5.108 11.421A94.3 94.3 0 0 0 28 45.43v4.41Z"/></g></svg>