<svg viewBox="0 0 90 90" xmlns="http://www.w3.org/2000/svg"><g fill="none"><path fill="#012F51" d="M0 0h90v90H0z"/><path d="M9.367 60.221c-1.82-.48-3.275-1.139-4.367-1.858l1.274-2.816a2.208 2.208 0 0 1 2.971-1.139c.546.24 1.153.42 1.76.66 1.455.419 2.91.659 4.305.659 2.851 0 4.246-.72 4.246-2.218 0-.719-.364-1.198-1.152-1.498-.789-.3-1.941-.54-3.579-.779-1.88-.3-3.457-.659-4.67-1.019-1.213-.419-2.304-1.078-3.214-2.097-.91-1.019-1.335-2.217-1.335-4.075 0-1.558.425-2.936 1.274-4.075.85-1.198 2.062-2.097 3.7-2.756 1.637-.66 3.517-1.019 5.7-1.019 1.638 0 3.276.18 4.853.54 1.637.359 2.972.898 4.003 1.557L23.8 41.105a2.22 2.22 0 0 1-2.85 1.198 12.528 12.528 0 0 0-4.73-.899c-1.456 0-2.487.24-3.215.66-.728.42-1.092.958-1.092 1.618 0 .779.364 1.258 1.152 1.558.789.3 2.002.599 3.7.839 1.88.36 3.396.539 4.61.899 1.212.36 2.243 1.078 3.153 2.037.91 1.019 1.334 2.397 1.334 4.195 0 1.498-.424 2.876-1.273 4.015-.85 1.198-2.123 2.097-3.76 2.756-1.638.66-3.579.96-5.823.96-1.94.059-3.82-.18-5.64-.72Z" fill="#FFF"/><path d="M82.51 40.326c-1.698-1.678-4.003-2.517-6.914-2.517-2.062 0-3.881.42-5.458 1.258-1.335.72-2.366 1.618-3.215 2.817-.727-1.199-1.637-2.157-2.85-2.817-1.456-.839-3.154-1.258-5.095-1.258-1.88 0-3.578.36-5.094 1.139-.91.479-1.76 1.078-2.426 1.857v-9.827c0-1.08-.91-1.978-2.002-1.978h-2.001v12.105c-.789-.899-1.759-1.618-2.79-2.157-1.516-.78-3.215-1.139-5.095-1.139-2.122 0-4.124.48-5.883 1.438a10.095 10.095 0 0 0-4.124 4.135c-.97 1.738-1.516 3.775-1.516 5.993 0 2.217.485 4.254 1.516 5.992.97 1.738 2.365 3.176 4.124 4.135A12.245 12.245 0 0 0 39.57 61c1.941 0 3.7-.42 5.216-1.199a9.408 9.408 0 0 0 2.73-2.157v2.637l.06.54h3.942V48.834c0-2.337.607-4.135 1.88-5.453 1.213-1.318 2.851-1.918 5.034-1.918 1.88 0 3.336.54 4.367 1.618 1.031 1.079 1.516 2.697 1.516 4.854V60.82h4.003V48.835c0-2.337.607-4.135 1.82-5.453 1.213-1.318 2.85-1.918 5.034-1.918 1.88 0 3.275.54 4.306 1.618 1.03 1.079 1.516 2.697 1.516 4.854V60.82h1.759c1.213 0 2.244-1.019 2.244-2.217V47.637c.06-3.176-.788-5.633-2.487-7.311ZM39.874 57.404c-1.456 0-2.79-.36-3.943-1.018-1.152-.66-2.062-1.618-2.729-2.817-.667-1.198-1.03-2.636-1.03-4.194 0-1.559.363-2.997 1.03-4.195.667-1.199 1.577-2.158 2.73-2.817 1.152-.659 2.486-1.018 3.942-1.018 1.455 0 2.729.36 3.942 1.018 1.152.66 2.062 1.618 2.73 2.817.666 1.198 1.03 2.636 1.03 4.195 0 1.558-.364 2.996-1.03 4.194-.668 1.199-1.578 2.158-2.73 2.817-1.153.659-2.487 1.018-3.942 1.018Z" fill="#00B7FF"/></g></svg>