<svg xmlns="http://www.w3.org/2000/svg" viewBox="0 0 90 90"><path fill="#FFF" d="M0 0h90v90H0z"/><path d="M41.581 62.89c-.102 1.641-.102 2.666-1.225 3.794-1.327 1.333-3.062 1.743-5.92.718-10.205-3.178-21.024-10.97-20.411-23.17.714-11.791 10.206-19.173 21.228-22.044 2.348-.615 4.593.308 5.614 2.358.612 1.23 1.02 3.794-.817 5.434-2.143 1.845-5.511 2.563-7.246 4.716-2.858 3.589-1.837 7.074-.817 9.125 2.45 4.306 7.45 4.204 12.043 4.819 2.246.307 3.573.512 4.593 2.255 1.02 1.64.817 3.794-.51 5.332-1.633 1.845-5.41 1.64-6.226 3.178-.51 1.128-.306 2.153-.306 3.486Z" fill="#004B85"/><path d="M48.419 27.11c.102-1.641.102-2.666 1.225-3.794 1.327-1.333 3.062-1.743 5.92-.718 10.205 3.178 21.024 10.868 20.411 23.17-.612 11.791-10.206 19.173-21.228 22.044-2.348.615-4.593-.308-5.614-2.358-.612-1.23-1.02-3.794.817-5.434 2.143-1.845 5.511-2.563 7.246-4.716 2.858-3.589 1.837-7.074.817-9.125-2.45-4.306-7.45-4.204-12.043-4.819-2.246-.307-3.573-.512-4.593-2.255-1.02-1.64-.817-3.794.51-5.332 1.633-1.845 5.41-1.64 6.226-3.178.51-1.128.306-2.153.306-3.486Z" fill="#97BE0D"/></svg>