<svg width="90" height="90" viewBox="0 0 90 90" xmlns="http://www.w3.org/2000/svg"><g fill="none" fill-rule="evenodd"><rect fill="#CFCDC5" width="90" height="90"/><path d="M81.8731052,12.9514563 C84.0363794,12.9514563 84.660026,13.8834951 84.660026,14.7961165 L84.660026,14.9902913 L84.660026,14.9902913 L83.1398874,14.9902913 L83.1398874,14.9514563 C83.1398874,14.6213592 82.8280641,14.2524272 81.97055,14.2524272 C81.1130359,14.2524272 80.6063231,14.776699 80.6063231,15.5533981 C80.6063231,16.3300971 80.9961022,16.8543689 81.9510611,16.8543689 C82.7695972,16.8543689 83.0619316,16.4466019 83.0619316,16.1747573 L83.0619316,16.1553398 L81.7756605,16.1553398 L81.7756605,15.3980583 L84.7379818,15.3980583 L84.7379818,17.9029126 L83.3542659,17.9029126 C83.3542659,17.7087379 83.3737549,17.3398058 83.3737549,17.0485437 L83.3542659,17.0485437 C83.1788653,17.592233 82.6526635,18 81.5612819,18 C79.5344305,17.9805825 78.7353833,16.815534 78.7353833,15.5339806 C78.7353833,14.1165049 79.748809,12.9514563 81.8731052,12.9514563 Z M54.822434,12.9514563 C57.0051971,12.9514563 57.6873105,14.1165049 57.6873105,14.9708738 L57.6873105,15.1262136 L57.6873105,15.1262136 L56.147683,15.1262136 L56.147683,15.0873786 C56.147683,14.6796117 55.7773928,14.2524272 54.9588566,14.2524272 C54.1208315,14.2524272 53.6725855,14.776699 53.6725855,15.4757282 C53.6725855,16.1553398 54.0623647,16.6796117 54.9783456,16.6796117 C55.7579039,16.6796117 56.1671719,16.3300971 56.1671719,15.8446602 L56.1671719,15.8058252 L57.7067995,15.8058252 L57.7067995,15.9417476 L57.7067995,15.9417476 C57.7067995,16.9126214 56.9857081,17.9805825 54.8419229,17.9805825 C52.4837592,17.9805825 51.7431789,16.7378641 51.7431789,15.4757282 C51.7431789,14.038835 52.7566046,12.9514563 54.822434,12.9514563 Z M89.9220442,13.0485437 L89.9220442,14.3495146 L87.1741013,14.3495146 L87.1741013,15.0679612 L89.2009528,15.0679612 L89.2009528,15.8640777 L87.1741013,15.8640777 L87.1741013,16.6019417 L90,16.6019417 L90,17.9029126 L85.3616284,17.9029126 L85.3616284,13.0485437 L89.9220442,13.0485437 Z M74.7011693,13.0485437 L76.5915981,15.5339806 L76.5721091,13.0485437 L78.1702036,13.0485437 L78.1702036,17.9029126 L76.0653963,17.9029126 L73.7656994,14.8543689 L73.7462105,14.8543689 L73.7656994,17.9029126 L72.167605,17.9029126 L72.187094,13.0485437 L74.7011693,13.0485437 Z M44.9220442,13.0485437 L44.9220442,14.3495146 L42.1741013,14.3495146 L42.1741013,15.0679612 L44.2009528,15.0679612 L44.2009528,15.8640777 L42.1741013,15.8640777 L42.1741013,16.6019417 L45,16.6019417 L45,17.9029126 L40.3421395,17.9029126 L40.3421395,13.0485437 L44.9220442,13.0485437 Z M69.3417064,13.0485437 L71.719359,17.9029126 L69.5755738,17.9029126 L69.2052837,17.0291262 L66.9055868,17.0291262 L66.5158077,17.9029126 L64.6838458,17.9029126 L67.0614985,13.0485437 L69.3417064,13.0485437 Z M47.7089649,13.0485437 L48.8198354,14.4271845 L49.8527501,13.0485437 L51.8016457,13.0485437 L49.8722391,15.4368932 L51.8796016,17.9029126 L49.5993937,17.9029126 L48.4300563,16.4271845 L47.3581637,17.9029126 L45.3313123,17.9029126 L47.3581637,15.3786408 L45.4092681,13.0485437 L47.7089649,13.0485437 Z M60.0649632,13.0485437 L60.0649632,14.7378641 L62.4426159,14.7378641 L62.4426159,13.0485437 L64.2550888,13.0485437 L64.2550888,17.9029126 L62.4426159,17.9029126 L62.4426159,16.0970874 L60.0649632,16.0970874 L60.0649632,17.9029126 L58.2330013,17.9029126 L58.2330013,13.0485437 L60.0649632,13.0485437 Z M68.0749242,14.4660194 L68.0554353,14.4660194 L67.3148549,16.1553398 L68.8155045,16.1553398 L68.0749242,14.4660194 Z M7.95149415,-1.8562929e-13 C13.5058467,-1.8562929e-13 14.7726288,1.74757282 14.7726288,3.51456311 L14.7726288,3.51456311 L14.7726288,3.63106796 L10.1147683,3.63106796 C10.0757904,3.22330097 9.84192291,2.44660194 7.40580338,2.44660194 L7.40580338,2.44660194 L7.24989173,2.44660194 C5.00866176,2.44660194 4.77479428,2.83495146 4.77479428,3.26213592 L4.77479428,3.26213592 L4.77479428,3.2815534 C4.77479428,3.72815534 5.10610654,4.09708738 7.19142486,4.15533981 L7.19142486,4.15533981 L9.21827631,4.19417476 C13.4863577,4.31067961 15.142919,5.30097087 15.142919,7.55339806 L15.142919,7.55339806 L15.142919,7.76699029 C15.142919,9.63106796 14.0905154,11.5533981 8.20485058,11.5533981 L8.20485058,11.5533981 L6.84062365,11.5533981 C0.643135557,11.5533981 5.68434189e-14,9.04854369 5.68434189e-14,7.59223301 L5.68434189e-14,7.4368932 L4.69683846,7.4368932 C4.73581637,8.03883495 5.06712863,9.00970874 7.50324816,9.00970874 L7.50324816,9.00970874 L7.6201819,9.00970874 C10.0173235,9.00970874 10.3681247,8.50485437 10.3681247,7.96116505 C10.3681247,7.37864078 10.0952793,7.02912621 7.73711563,6.95145631 L7.73711563,6.95145631 L5.65179731,6.89320388 C1.32524903,6.77669903 0.15591165,5.26213592 0.15591165,3.53398058 L0.15591165,3.53398058 L0.15591165,3.39805825 C0.15591165,1.59223301 1.38371589,-1.8562929e-13 6.60675617,-1.8562929e-13 L6.60675617,-1.8562929e-13 Z M33.3650931,0.174757282 L33.3650931,5.16504854 C33.3650931,6.54368932 33.9692508,8.17475728 36.7951494,8.17475728 C39.6015591,8.17475728 40.2252057,6.52427184 40.2252057,5.16504854 L40.2252057,5.16504854 L40.2252057,0.174757282 L44.5127761,0.174757282 L44.5127761,5.49514563 C44.5127761,7.66990291 43.4798614,11.5145631 37.1264617,11.5145631 L37.1264617,11.5145631 L36.522304,11.5145631 C29.9935037,11.5145631 29.0775227,7.65048544 29.0775227,5.49514563 L29.0775227,5.49514563 L29.0775227,0.174757282 L33.3650931,0.174757282 Z M28.8631442,0.174757282 L28.8631442,3.63106796 L24.0298831,3.63106796 L24.0298831,11.3398058 L19.7423127,11.3398058 L19.7423127,3.63106796 L14.9090515,3.63106796 L14.9090515,0.174757282 L28.8631442,0.174757282 Z M67.9385015,0.174757282 C74.389346,0.174757282 76.0264184,2.83495146 76.0264184,5.45631068 L76.0264184,5.45631068 L76.0264184,5.90291262 C76.0264184,8.44660194 74.6232135,11.3398058 67.9579905,11.3398058 L67.9579905,11.3398058 L59.9870074,11.3398058 L59.9870074,0.174757282 Z M78.6379385,0.174757282 L81.9120832,4.03883495 L85.2641836,0.174757282 L89.9415331,0.174757282 L83.9389346,7.16504854 L83.9389346,11.3398058 L79.6513642,11.3398058 L79.6513642,7.12621359 L73.512343,0.174757282 L78.6379385,0.174757282 Z M54.9198787,0.155339806 C58.1940234,0.155339806 59.6362061,1.2038835 59.6362061,3.02912621 L59.6362061,3.02912621 L59.6362061,3.2038835 C59.6362061,4.81553398 58.2135123,5.49514563 57.3754872,5.68932039 C58.7592031,6.01941748 59.6751841,6.91262136 59.6751841,8.34951456 L59.6751841,8.34951456 L59.6751841,10 C59.6751841,10.776699 59.7921178,11.0679612 59.8895626,11.2621359 L59.8895626,11.2621359 L59.8895626,11.3398058 L55.5240364,11.3398058 C55.4071026,11.223301 55.3876137,11.0679612 55.3876137,10.7572816 L55.3876137,10.7572816 L55.3876137,9.45631068 C55.3876137,8.17475728 54.783456,7.51456311 53.1074058,7.51456311 L53.1074058,7.51456311 L49.014725,7.51456311 L49.014725,11.3203883 L44.7271546,11.3203883 L44.7271546,0.155339806 Z M89.2009528,8.77669903 L89.2009528,11.3203883 L85.4980511,11.3203883 L85.4980511,8.77669903 L89.2009528,8.77669903 Z M67.4512776,3.10679612 L64.2745777,3.10679612 L64.2550888,8.40776699 L67.4512776,8.40776699 C71.1931572,8.40776699 71.6024253,6.75728155 71.6024253,5.78640777 L71.6024253,5.78640777 L71.6024253,5.68932039 C71.6024253,4.7184466 71.1931572,3.10679612 67.4512776,3.10679612 L67.4512776,3.10679612 Z M53.925942,2.89320388 L49.014725,2.89320388 L49.014725,4.81553398 L53.925942,4.81553398 C54.8614119,4.81553398 55.2122131,4.40776699 55.2122131,3.86407767 L55.2122131,3.86407767 L55.2122131,3.84466019 C55.2122131,3.32038835 54.9003898,2.89320388 53.925942,2.89320388 L53.925942,2.89320388 Z M88.9670853,2.62135922 L88.9670853,2.75728155 L88.7137289,2.75728155 L88.7137289,3.4368932 L88.5578172,3.4368932 L88.5578172,2.75728155 L88.3044608,2.75728155 L88.3044608,2.62135922 L88.9670853,2.62135922 Z M89.3373755,2.60194175 L89.4932871,3.16504854 L89.6491988,2.60194175 L89.9025552,2.60194175 L89.9025552,3.4368932 L89.7466436,3.4368932 L89.7466436,2.77669903 L89.571243,3.4368932 L89.4153313,3.4368932 L89.2594197,2.77669903 L89.2594197,3.4368932 L89.0840191,3.4368932 L89.0840191,2.60194175 L89.3373755,2.60194175 Z" transform="translate(0 36)" fill="#000" fill-rule="nonzero"/></g></svg>