<svg viewBox="0 0 90 90" xmlns="http://www.w3.org/2000/svg" xmlns:xlink="http://www.w3.org/1999/xlink"><defs><linearGradient x1="-13.888%" y1="92.413%" x2="54.747%" y2="46.848%" id="b"><stop stop-color="#22415D" offset="0%"/><stop stop-color="#24BA9E" offset="100%"/></linearGradient><path d="m46.253 49.186 15.874 9.157L39 71.686l-15.872-9.157-15.873 9.157L39 90l38.999-22.5L78 30.87 46.253 49.186ZM0 59.128V22.5L39 0l31.744 18.314-15.873 9.157L39 18.314 15.872 31.657l15.873 9.156L0 59.128Z" id="a"/></defs><g transform="translate(6)" fill="none" fill-rule="evenodd"><mask id="c" fill="#fff"><use xlink:href="#a"/></mask><path d="m46.253 49.186 15.874 9.157L39 71.686l-15.872-9.157-15.873 9.157L39 90l38.999-22.5L78 30.87 46.253 49.186ZM0 59.128V22.5L39 0l31.744 18.314-15.873 9.157L39 18.314 15.872 31.657l15.873 9.156L0 59.128Z" fill="url(#b)" fill-rule="nonzero" mask="url(#c)"/></g></svg>