<svg xmlns="http://www.w3.org/2000/svg" viewBox="0 0 90 90"><rect width="90" height="90" fill="#FFF"/><g transform="translate(11 20)"><path fill="#2A338F" d="M9.06666021,31.0516861 C9.06666021,31.4749844 9.40921583,31.8182699 9.83173335,31.8182699 L17.3681058,31.8182699 C17.7905489,31.8182699 18.1331045,31.4749844 18.1331045,31.0516861 L18.1331045,27.2727813 L21.901663,27.2727813 C22.3241061,27.2727813 22.6666617,26.9898603 22.6666617,26.566562 L22.6666617,23.4946983 C22.6666617,23.0714 22.3241061,22.7281145 21.901663,22.7281145 L9.83173335,22.7281145 C9.40921583,22.7281145 9.06666021,23.0714 9.06666021,23.4946983 L9.06666021,31.0516861 Z M9.06643686,14.4037959 C9.06643686,13.9804976 8.72388124,13.6372868 8.30143817,13.6372868 L0.765035914,13.6372868 C0.342585398,13.6372868 0,13.9804976 0,14.4037959 L0,21.9608584 C0,22.3841567 0.342585398,22.7273674 0.765035914,22.7273674 L3.76348829,22.7273674 C4.18593136,22.7273674 4.53332638,22.3841567 4.53332638,21.9608584 L4.53332638,18.1819536 L8.30143817,18.1819536 C8.72388124,18.1819536 9.06643686,17.8954465 9.06643686,17.472223 L9.06643686,14.4037959 Z M13.599994,41.676279 C13.599994,41.2529808 13.2560983,40.90977 12.8335808,40.90977 L9.82860635,40.9098447 C9.40616328,40.9098447 9.06666021,41.2531302 9.06666021,41.6764285 L9.06666021,44.6775432 C9.06666021,45.1008415 9.40616328,45.4545861 9.82860635,45.4545861 L12.8335808,45.4544367 C13.2560983,45.4544367 13.599994,45.100692 13.599994,44.6773937 L13.599994,41.676279 Z M67.2350013,13.6372868 L59.6985544,13.6372868 C59.2761113,13.6372868 58.9335557,13.9804976 58.9335557,14.4037959 L58.9335557,17.4154445 C58.9335557,17.8387428 59.2761113,18.1819536 59.6985544,18.1819536 L63.4668895,18.1819536 L63.4668895,21.9608584 C63.4668895,22.3841567 63.8094451,22.7273674 64.2318882,22.7273674 L67.2350013,22.7273674 C67.6574444,22.7273674 68,22.3841567 68,21.9608584 L68,14.4037959 C68,13.9804976 67.6574444,13.6372868 67.2350013,13.6372868 Z M58.1683337,22.7281145 L46.098404,22.7281145 C45.6758865,22.7281145 45.3333309,23.0714 45.3333309,23.4946983 L45.3333309,26.5062722 C45.3333309,26.9295705 45.6758865,27.2727813 46.098404,27.2727813 L49.8666647,27.2727813 L49.8666647,31.0516861 C49.8666647,31.4749844 50.1248657,31.8182699 50.5473088,31.8182699 L58.1683337,31.8182699 C58.5907767,31.8182699 58.9333323,31.4749844 58.9333323,31.0516861 L58.9333323,23.4946983 C58.9333323,23.0714 58.5907767,22.7281145 58.1683337,22.7281145 Z M53.6347765,45.4545861 L49.8666647,45.4545861 L49.8666647,41.7022776 C49.8666647,41.2789793 49.43968,40.9090976 49.0172369,40.9090976 L45.3333309,40.9090976 L45.3333309,32.585526 C45.3333309,32.1622277 44.9143126,31.819017 44.4918695,31.819017 L40.799997,31.819017 L40.799997,23.5654473 C40.799997,23.142149 40.3889452,22.7273674 39.9665021,22.7273674 L27.9203972,22.7273674 C27.4979541,22.7273674 27.1999955,23.142149 27.1999955,23.5654473 L27.1999955,31.8182699 L23.3950298,31.8182699 C22.9724378,31.8182699 22.6666617,32.2105641 22.6666617,32.6338624 L22.6666617,40.9090976 L18.8696624,40.9090976 C18.4472193,40.9090976 18.1333279,41.2789793 18.1333279,41.7022776 L18.1333279,45.4545861 L14.344295,45.4545861 C13.9218519,45.4545861 13.599994,45.8131869 13.599994,46.2364852 L13.599994,49.2375999 C13.599994,49.6608982 13.9218519,50 14.344295,50 L21.864958,50 C22.2874755,50 22.6666617,49.6608982 22.6666617,49.2375999 L22.6666617,45.4545861 L26.4347735,45.4545861 C26.8572166,45.4545861 27.1997722,45.1266906 27.1997722,44.7033923 L27.1997722,36.3636837 L40.799997,36.3636837 L40.799997,44.6880023 C40.799997,45.1113006 41.0741309,45.4545861 41.4965739,45.4545861 L45.3333309,45.4545861 L45.3333309,49.2334909 C45.3333309,49.6567145 45.5994983,50 46.0219413,50 L53.6347765,50 C54.0572195,50 54.3997752,49.6567145 54.3997752,49.2334909 L54.3997752,46.2364852 C54.3997752,45.8131869 54.0572195,45.4545861 53.6347765,45.4545861 Z M58.1603672,40.9098447 L55.1650717,40.9098447 C54.7425541,40.9098447 54.3999985,41.2531302 54.3999985,41.6764285 L54.3999985,44.6872553 C54.3999985,45.1105536 54.7425541,45.4545861 55.1650717,45.4545861 L58.1603672,45.4545861 C58.5828103,45.4545861 58.9333323,45.1105536 58.9333323,44.6872553 L58.9333323,41.6764285 C58.9333323,41.2531302 58.5828103,40.9098447 58.1603672,40.9098447 Z"/><path fill="#00AFAA" d="M18.8808302,13.636465 L49.0838719,13.636465 C49.5063149,13.636465 49.8488706,13.3661697 49.8488706,12.9425726 L49.8488706,9.85838206 C49.8488706,9.43463551 49.5063149,9.0912753 49.0838719,9.0912753 L45.3156112,9.0912753 L45.3156112,5.31292337 C45.3156112,4.88934119 44.9729811,4.5458465 44.550538,4.5458465 L40.7824262,4.54605568 L40.7824262,0.767285393 C40.7824262,0.343702458 40.4398706,0.000207999136 40.0174276,0.000207999136 L27.9474979,0 C27.5250548,0 27.1824248,0.343494021 27.1824248,0.767076209 L27.1824248,4.5458465 L23.4141641,4.5458465 C22.991721,4.5458465 22.6490909,4.88934119 22.6490909,5.31292337 L22.6490909,9.0912753 L18.8808302,9.0912753 C18.4583872,9.0912753 18.1157571,9.43463551 18.1157571,9.85838206 L18.1157571,12.9425726 C18.1157571,13.3661697 18.4583872,13.636465 18.8808302,13.636465 Z"/></g></svg>