<svg viewBox="0 0 90 90" xmlns="http://www.w3.org/2000/svg"><path d="m43.514 0 7.871 12.737 12.156-8.914 1.465 14.83 14.89-2.85-5.232 13.984 14.675 3.777-10.892 10.37L90 53.592l-14.395 4.702 6.143 13.623-15.046-1.897-.484 14.892L53.5 76.789 46.486 90l-7.871-12.737-12.156 8.914-1.465-14.83-14.89 2.85 5.232-13.984L.66 56.436l10.892-10.37L0 36.408l14.395-4.702-6.143-13.623 15.046 1.897.484-14.892L36.5 13.211 43.514 0ZM45 18c-14.912 0-27 12.088-27 27s12.088 27 27 27 27-12.088 27-27-12.088-27-27-27Zm0 5c12.15 0 22 9.85 22 22s-9.85 22-22 22-22-9.85-22-22 9.85-22 22-22Z" fill="#4DAE41" fill-rule="evenodd"/></svg>