<svg xmlns="http://www.w3.org/2000/svg" viewBox="0 0 90 90"><defs><linearGradient x1="21.302%" y1="20.723%" x2="63.273%" y2="44.03%" id="a"><stop stop-color="#249361" offset="0%"/><stop stop-color="#3ECF8E" offset="100%"/></linearGradient><linearGradient x1="2.717%" y1="-13.128%" x2="21.824%" y2="34.735%" id="b"><stop offset="0%"/><stop stop-opacity="0" offset="100%"/></linearGradient></defs><path fill="#1C1C1E" d="M0 0h90v90H0z"/><path d="M33.894 59.003c-1.522 1.93-4.608.873-4.644-1.592l-.536-36.049H52.78c4.36 0 6.79 5.07 4.08 8.51l-22.966 29.13Z" fill="url(#a)" transform="translate(16 15)"/><path d="M33.894 59.003c-1.522 1.93-4.608.873-4.644-1.592l-.536-36.049H52.78c4.36 0 6.79 5.07 4.08 8.51l-22.966 29.13Z" fill-opacity=".2" fill="url(#b)" transform="translate(16 15)"/><path d="M40.106 15.997c1.522-1.93 4.608-.873 4.645 1.592l.235 36.049H21.219c-4.359 0-6.79-5.07-4.08-8.51l22.967-29.13v-.001Z" fill="#3ECF8E"/></svg>