<svg viewBox="0 0 90 90" xmlns="http://www.w3.org/2000/svg"><defs><linearGradient x1="0%" y1="0%" x2="100%" y2="100%" id="a"><stop stop-color="#FDD719" offset="0%"/><stop stop-color="#E90705" offset="100%"/></linearGradient></defs><g fill="none"><path fill="url(#a)" d="M0 0h90v90H0z"/><path d="m12.249 60.812.399-7.906a23.982 23.982 0 0 0 11.455 2.834c3.736 0 4.882-1.243 4.882-2.933 0-2.288-2.391-2.785-6.276-3.929C17.03 47.188 12 45.05 12 37.84 12 29.934 17.877 27 24.9 27c4.284 0 8.617.994 11.556 1.94l-.399 7.607c-2.141-.945-5.379-2.287-10.26-2.287-3.935 0-4.632 1.64-4.632 2.933 0 2.536 2.889 3.083 6.325 4.127C33.667 43.11 38 45.298 38 52.011 38 59.818 32.222 63 24.452 63c-4.732 0-9.165-.994-12.203-2.188ZM67.68 64V50.166H55.32V64H46V28h9.32v14.606h12.36V28H77v36h-9.32z" fill="#FFF"/></g></svg>