<svg xmlns="http://www.w3.org/2000/svg" viewBox="0 0 90 90"><path fill="#FFF" d="M0 0h90v90H0z"/><path d="M46.166 7.014c2.302.06 4.513.18 4.932.269.418.09 1.016.238 1.345.298.508.12 1.524.358 3.736.895.568.149 2.87 1.014 4.095 1.55.508.24 1.076.418 1.226.418.179 0 .358.09.418.239.06.119.717.536 1.525.924.777.388 1.404.805 1.404.895 0 .179-1.883 1.252-4.304 2.475l-1.195.597-1.555-.656c-2.152-.865-5.081-1.76-6.546-1.969-.657-.09-1.793-.298-2.54-.417-1.435-.269-7.473-.18-8.668.119-.419.09-1.076.239-1.495.298-.266.038-.738.149-1.239.278l-.432.114c-.143.038-.285.077-.421.115-.747.209-1.465.388-1.644.448-.717.149-3.706 1.431-5.081 2.147-5.171 2.774-9.864 7.217-12.763 12.079-.867 1.49-1.585 2.773-1.585 2.863-.03.09-.179.447-.358.775-.449.865-1.584 4.235-1.883 5.637-.15.686-.33 1.521-.419 1.909-.12.537-.418 3.937-.538 6.024 0 .09.03.21.06.299s.09.894.15 1.789c.149 2.296.328 3.46.896 5.517.27.985.538 2.029.598 2.297.06.268.418 1.163.777 1.938.359.776.628 1.611.598 1.82-.03.179.09.358.269.358.15 0 .299.179.299.387 0 .18.837 1.64 1.853 3.192 2.69 4.115 7.203 8.35 10.94 10.319.777.387 1.614.865 1.853.984 1.644.984 6.097 2.446 8.668 2.833.568.09 1.375.239 1.793.328.475.098 1.99.15 3.585.156h.685c1.597-.006 3.135-.058 3.651-.156a12.869 12.869 0 0 1 1.823-.268c.509-.06 1.077-.18 1.286-.298.18-.12.329-.15.329-.06 0 .06 1.315-.328 2.929-.925 4.154-1.49 4.095-1.49 6.605-.119 1.226.686 2.302 1.223 2.451 1.223 1.525 0-2.032 2.177-6.007 3.668-5.052 1.88-11.418 2.744-16.59 2.237-6.964-.686-13.838-3.28-19.428-7.366-2.391-1.76-6.875-6.323-8.369-8.53-.658-.984-1.285-1.82-1.405-1.88-.15-.059-.239-.238-.239-.387 0-.149-.299-.775-.687-1.402-1.286-2.028-3.468-7.963-3.946-10.647-.06-.477-.239-1.223-.329-1.64-.168-.707-.27-3.568-.279-6.243v-.724c.006-1.788.056-3.391.16-4.068.538-3.46.687-4.056 1.524-6.68 2.063-6.264 4.932-10.827 9.834-15.658 2.75-2.685 7.024-5.667 10.162-7.099 5.86-2.653 10.94-3.668 17.486-3.519Zm23.494 8.828 2.182 2.148c4.812 4.742 7.86 9.841 9.953 16.76 1.136 3.729 1.584 12.08.837 16.106-1.016 5.607-3.258 11.422-5.888 15.18C74.92 68.661 70.078 74 69.57 73.97c-.016-.016-.313-.164-.77-.392l-.292-.146c-.36-.18-.788-.395-1.24-.626-2.81-1.49-2.929-1.64-2.062-2.236 1.405-.985 5.051-4.742 6.367-6.592 1.255-1.76 3.676-6.233 3.855-7.098.06-.179.24-.745.449-1.223.299-.745.777-2.564 1.524-5.905.27-1.252.18-8.858-.12-10.23a389.47 389.47 0 0 1-.443-1.805l-.109-.445a945.61 945.61 0 0 1-.105-.434c-.09-.328-.176-.659-.254-.964l-.088-.351c-.111-.446-.194-.794-.226-.921-.06-.239-.12-.478-.15-.507-.06-.06-.09-.18-.119-.299-.03-.149-.359-.894-.717-1.7-.359-.805-.658-1.55-.658-1.7 0-.149-.12-.268-.299-.268-.15 0-.299-.179-.299-.418 0-.648-1.597-2.968-3.456-5.217l-.388-.464c-.847-1-1.727-1.962-2.522-2.729l-2.84-2.714 2.511-1.372 2.54-1.372Z" fill="#006BB3"/></svg>