<svg viewBox="0 0 90 90" xmlns="http://www.w3.org/2000/svg"><g fill="none"><path d="M83.16 50.26c3.78 0 6.84 3.15 6.84 7.02v4.5c0 3.87-3.06 7.02-6.84 7.02H72.81c-3.78 0-6.84-3.15-6.84-7.02v-2.79c0-4.86-3.87-8.73-8.55-8.73H8.55C3.78 50.26 0 46.39 0 41.53v-10.8C0 25.87 3.87 22 8.55 22h48.87c4.77 0 8.55 3.87 8.55 8.73v10.8c0 4.86 3.87 8.73 8.55 8.73h8.64Z" fill="#000"/><path d="M54.54 38.02c.9 0 1.35-.45 1.35-1.35 0-.9-.45-1.44-1.35-1.44h-3.42v-2.7h5.4c.9 0 1.35-.45 1.35-1.44 0-.9-.45-1.35-1.35-1.35h-6.84c-.9 0-1.44.45-1.44 1.44v9.9c0 .99.45 1.44 1.44 1.44.9 0 1.44-.45 1.44-1.44v-3.15c0 .09 3.42.09 3.42.09Zm-11.25-.27c1.26-.63 1.98-1.89 1.98-3.51 0-2.61-1.89-4.5-4.59-4.5h-4.05c-.9 0-1.44.45-1.44 1.44v9.9c0 .99.45 1.44 1.44 1.44.9 0 1.44-.45 1.44-1.44v-2.61h2.43l1.44 3.06c.27.63.63.9 1.17.9.72 0 1.62-.54 1.62-1.35 0-.27-.09-.54-.18-.81l-1.26-2.52Zm-2.97-1.8h-2.43v-3.42h2.43c1.08 0 1.98.54 1.98 1.71s-.9 1.71-1.98 1.71Zm-11.43.72c0 1.98-1.17 3.15-2.79 3.15s-2.79-1.17-2.79-3.15v-5.58c0-.99-.45-1.44-1.44-1.44-.9 0-1.44.45-1.44 1.44v5.58c0 3.69 2.43 6.03 5.67 6.03 3.24 0 5.67-2.34 5.67-6.03v-5.58c0-.99-.45-1.44-1.44-1.44-.9 0-1.44.45-1.44 1.44v5.58ZM12.78 40c-1.08 0-1.89-.27-2.43-.45-.45-.18-.81-.27-1.26-.27-.81 0-1.26.54-1.26 1.35 0 1.35 2.7 2.07 5.04 2.07 2.79 0 4.95-1.53 4.95-3.87 0-2.16-1.44-3.15-2.97-3.69l-2.34-.72c-.99-.27-1.44-.54-1.44-1.17 0-.63.99-.99 1.8-.99.99 0 1.71.27 2.25.45.36.09.72.27 1.17.27.72 0 1.17-.54 1.17-1.35 0-1.35-2.43-2.07-4.59-2.07-2.7 0-4.68 1.53-4.68 3.78 0 1.89 1.35 2.97 2.79 3.42l2.07.63c1.08.36 1.89.63 1.89 1.26-.18.9-1.26 1.35-2.16 1.35Z" fill="#FFF"/></g></svg>