<svg viewBox="0 0 90 90" xmlns="http://www.w3.org/2000/svg"><path d="M22.528 20.973V.01A22.53 22.53 0 0 0 0 22.47v.071a22.524 22.524 0 0 0 22.469 22.454h.056A22.524 22.524 0 0 0 44.994 22.54V.01a22.523 22.523 0 0 0-22.466 20.96v.003ZM67.458 45h22.527a22.531 22.531 0 0 0-20.96-22.472h20.96A22.524 22.524 0 0 0 67.532 0h-.072a22.524 22.524 0 0 0-22.456 22.471v.056A22.525 22.525 0 0 0 67.457 45Zm-44.92 0H.01a22.526 22.526 0 0 0 20.94 22.474H.011A22.524 22.524 0 0 0 22.466 90h.072a22.525 22.525 0 0 0 22.448-22.474v-.053a22.512 22.512 0 0 0-6.59-15.868A22.536 22.536 0 0 0 22.538 45Zm44.993.007h-.056a22.524 22.524 0 0 0-22.469 22.456v22.53a22.52 22.52 0 0 0 15.357-6.05 22.533 22.533 0 0 0 7.11-14.9v20.95A22.53 22.53 0 0 0 90 67.536l-.001-.071A22.53 22.53 0 0 0 67.53 45.006Z" fill="#5F0FF5"/></svg>