<svg viewBox="0 0 90 90" xmlns="http://www.w3.org/2000/svg"><g transform="translate(1 1)" fill="none"><circle fill="#FFF" cx="44" cy="44" r="44"/><g fill="#5D5958"><path d="M57.783 58.048c0-.132 0-.265-.132-.397 0-.133-.133-.133-.265-.265-.133-.133-.266-.266-.266-.398-.132-.398.398-.795 1.06-1.325.133-.133.266-.265.398-.265 0 0 .133 0 .133-.133.397-.265.53-.663.53-1.06 0-.133-.133-.398-.398-.265-.132 0-.132.132-.265.132l-.795.398-1.723.795c-.265.133-.397.133-.662.265-1.458.53-2.916.928-4.374 1.193-.928.132-1.723.265-2.65.265h-1.856c-1.59 0-3.048-.133-4.506-.53-.265 0-.398.132-.265.265.795.928 1.458 1.59 2.518 2.253a10.457 10.457 0 0 0 3.976 1.59c.53.133 1.193.133 1.855.133 1.856 0 3.579-.398 5.17-1.193l1.854-1.193c.398.133.663 0 .663-.265ZM42.41 37.506c-1.59-.663-3.446-.265-4.771.663-.133.132-.133.132 0 .265 0 0 .132.132.265.132h.132c1.59-.53 2.916-.265 3.976.398.663.397 1.193.928 1.458 1.458-.398-.398-.928-.795-1.458-.928h-.928c-.132 0-.265.265-.132.398.265.265.397.53.397.927a.901.901 0 0 1-.927.928c-.265 0-.53 0-.663-.133-.132-.132-.398 0-.398.133 0 .265 0 .398.133.663.265.927 1.193 1.59 2.12 1.59A2.425 2.425 0 0 0 44 42.145a3.6 3.6 0 0 1-.795 2.253c-.663.927-1.988 1.722-3.578 1.855-.133 0-.133.133-.133.133s0 .132.133.132c.795.265 1.59.265 2.385 0 .795-.132 1.59-.53 2.12-1.193.266-.265.53-.53.796-.927.265-.398.397-.663.53-1.06.265-.796.265-1.591.132-2.386-.397-1.325-1.723-2.783-3.18-3.446Zm2.385-5.831c0-.133 0-.133 0 0-1.988-1.458-4.373-1.988-6.626-1.458s-4.109 1.988-5.434 4.108c-.133.265-.53.928-.53.928-.133.133-.133.265-.133.53 0 .398.398.53.663.53.132 0 .132-.132.265-.132 1.59-1.723 3.446-2.916 5.699-3.579 1.988-.53 3.843-.397 5.699.265h.265c.265-.132.397-.397.397-.795 0-.265-.132-.397-.265-.397Zm10.072 30.217c-1.304.53-2.7.8-4.108.795h-.795c-.133 0-.265.265-.133.397.663.53 1.458.928 2.253.928 1.326 0 2.518-.663 3.049-1.723.132-.265-.133-.397-.266-.397Z"/><path d="M42.145 1.458c-22 .928-39.892 18.952-40.687 40.952C.795 63.35 15.24 81.108 34.723 85.35c0 0 .132 0 0-.133l-.928-7.422L32.47 67.59c0-.397.132-.53.397-.265.796.928 1.723 1.856 2.784 2.518 1.192.796 2.385 1.458 3.71 1.856.53.132.928.53 1.06.928a6.269 6.269 0 0 0 2.651 2.915c.398.133.53.53.398.928l-2.65 9.144c-.133.266.132.53.397.53.928 0 1.723.133 2.65.133 1.723 0 3.314-.132 4.904-.265.265 0 .398-.265.398-.53L47.049 77c-.133-.398.132-.795.53-.928.53-.132.927-.265 1.325-.53a5.201 5.201 0 0 0 2.385-2.385c.133-.133 0-.398-.265-.398-.928.133-1.988.265-2.916.265h-.132c-.663 0-1.325-.132-1.988-.132-.398-.133-.928-.133-1.325-.265-.265 0-.133-.133 0-.266.397 0 .795 0 1.06-.132.53-.133 1.06-.133 1.59-.265.265 0 .398-.133.663-.133a12.582 12.582 0 0 0 2.783-1.192l1.193-.796c.132 0 .132-.132.265-.132.132-.133 0-.265-.133-.265h-.132c-.53.132-1.06.132-1.59.265h-1.458c-1.06 0-2.12-.133-3.049-.398a13.725 13.725 0 0 1-4.24-1.855c-.266-.133-.398-.265-.663-.53-.928-.663-1.59-1.458-2.386-2.253l-1.193-1.59c-.397-.663-.795-1.326-1.06-2.121-.132-.398-.397-.928-.53-1.458-.265-.795-.397-1.458-.397-2.253 0-.53-.133-1.06-.133-1.59v-.133c0-.265 0-.928.133-1.193 0-.397-.133-.662-.398-.927-.133-.133-.398-.265-.398-.265-.265-.133-.53-.398-.795-.663l-.132-.133-.133-.132h-.132a1.034 1.034 0 0 1-.53-.53c-.398-.53-.928-1.06-1.193-1.59-.133-.266-.265-.398-.398-.663-.53-.795-.928-1.723-1.325-2.783-.265-.796-.398-1.59-.53-2.386-.133-.53-.398-1.59.397-1.458a72.65 72.65 0 0 0 3.314.928c.662 3.578 3.843 6.229 7.554 6.096C44 49.7 46.916 47.181 47.71 44c0 1.325-.133 2.65-.398 3.976-.265 1.325-.397 1.855.398 2.518.928.663 2.12 1.06 3.446 1.06 2.385 0 4.506-1.325 5.566-3.18.132-.266-.133-.663-.398-.53-1.325.53-2.915 1.59-3.578.132-.663-1.458-1.59-5.169-1.988-7.024-.132-.795-.928-1.325-1.723-1.325h-.397s-.53 0-.133-.266c.795-.265 1.59-.53 2.518-.53.663 0 1.06.398 1.325 1.06.928 3.181 3.711 5.434 7.157 5.434 1.325 0 2.518-.265 3.578-.927.265-.133.928-.398 1.193 0 .398.53 1.06 1.722 1.193 4.373v1.856a9.9 9.9 0 0 1-.398 2.65c-.132.265.133.663.398.795a21.337 21.337 0 0 1 3.976 2.783c.662.663 1.458 1.193 1.988 1.988.132.265-.133.53-.265.398-1.59-1.325-3.579-2.783-6.097-3.578-.397-.133-.662.132-.795.397-.397 1.193-1.06 2.65-1.59 3.711-.133.398-.398.795-.53 1.06l-.133.133c-.132.132-.397.663-.53.928L60.3 63.88c-.662.927-1.458 1.722-2.253 2.385a.999.999 0 0 0-.265.53l-.132.663-.265 1.723v.265L55.53 84.024c0 .133.133.133.133.133C73.554 79.518 86.41 63.217 86.41 44c0-24.12-20.012-43.47-44.265-42.542ZM19.482 45.193v-1.326l.132-.265c0-.132 0-.132.133-.265l.133-.265c.132-.132.132-.265.265-.397.132-.133.265-.265.265-.398.265-.265.53-.53.795-.663.132 0 .132-.132.265-.132.132 0 .132-.133.265-.133.132 0 .398-.132.53-.132h1.06c.133 0 .265.132.398.132.132 0 .265.133.397.265v.266s0 .132-.132.132c-.265 0-.53-.132-.795-.132s-.53 0-.795.132c-.265.133-.53.265-.663.398-.265.132-.398.397-.53.53 0 0-.133.132-.133.265.133.132.133.265 0 .53-.132.265-.132.53-.265.795v1.988c0 .133 0 .265.133.398l.397 1.192c.133.398.398.663.663 1.06.3.451.71.817 1.193 1.06.132.133.265.133.397.266.265.133.53.265.796.265h.397s.133 0 .133.133c0 0 0 .132-.133.132-.663.133-1.325.133-1.855-.132a4.766 4.766 0 0 1-1.59-1.06c-.53-.53-1.06-1.326-1.326-1.989-.132-.265-.265-.662-.265-.927 0-.133 0-.265-.133-.53v-.796c-.132-.265-.132-.265-.132-.397Zm6.361 31.674c-.795 0-1.325-.662-1.325-1.325 0-.795.663-1.325 1.325-1.325.796 0 1.326.663 1.326 1.325 0 .795-.663 1.325-1.326 1.325Zm1.59-17.361c-.662-.265-1.192-.795-1.722-1.193-.53-.53-.795-1.06-1.193-1.59 0-.133-.132-.133-.132-.265-.796.132-1.59.265-2.253.53-.796.265-1.458.53-2.121.928-.663.397-1.458.795-2.12 1.192-.674.411-1.297.9-1.856 1.458-.132.133-.265.133-.265 0-.132-.132-.132-.265 0-.265.53-.662 1.193-1.193 1.856-1.723.662-.53 1.325-1.06 1.987-1.458.663-.397 1.458-.795 2.253-1.192.663-.265 1.458-.53 2.253-.795 0-.133 0-.266-.132-.266-.133-.662-.265-1.325-.133-1.987h.133c.398 1.192.928 2.385 1.458 3.445.265.53.662 1.06.927 1.59l1.193 1.591v.133c0-.133-.132-.133-.132-.133Zm18.687-14.71c-.132.132-.132.397-.265.53-.397.662-.927 1.325-1.457 1.722a1.836 1.836 0 0 1-.53.398c-.266.265-.663.397-1.06.53l-1.194.397c-.397.133-.795.133-1.192.133-.398 0-.795 0-1.193-.133l-1.193-.397c-.397-.133-.663-.398-1.06-.53a1.83 1.83 0 0 0-.53-.398c-.663-.53-1.06-1.193-1.458-1.855-.133-.133-.133-.398-.265-.53a7.505 7.505 0 0 1-.398-2.386c0-3.446 2.783-6.096 6.23-5.964 3.445 0 6.096 2.783 5.963 6.23.133.662-.132 1.457-.398 2.252Zm6.097-8.218c-.133.53-.53.928-1.193.928a8.682 8.682 0 0 0-3.313.663c-.398.132-.795.132-1.06-.265a7.647 7.647 0 0 0-6.23-3.181c-3.843 0-7.156 3.048-7.421 7.024l-2.12-.398-4.639-.927c-1.193-.265-.663-.398 1.06-.133.663 0 2.253.265 2.386-.662 0 0 0-.266.132-.53 0-.266.265-1.326.53-2.386.265-1.193-.397-1.458-.795-1.59-.265 0-.53-.133-.795-.133h-2.518c-.265 0-.398 0-.663.132l-1.855.398h-.133c-.132 0-.265.133-.397.133-.663.132-1.06.265-1.326.132-.397-.132.133-.53.266-.53.132-.133.265-.133.53-.265h.132a8.424 8.424 0 0 1 2.386-.795c.795-.265 1.723-.398 2.65-.398h1.59s.796 0 .53-.397c-.264-.265-1.457-.398-1.457-.398h-.795c-.928 0-1.856 0-2.783.133-.53.132-1.59.265-1.59.265s-1.326.397-1.856.132.397-.663.397-.663c.53-.265 1.06-.53 1.723-.662.796-.265 1.723-.53 2.651-.663.265 0 .663-.132.928-.132s.53-.133.265-.398-1.326-.265-1.458-.265h-.133l-2.65.398s-1.326.397-1.723.132c-.398-.132 0-.53.265-.663h-.133.265c.796-.397 1.59-.662 2.519-.927.397-.133.397-.265.397-.398-.265-.397-.928-.265-1.988 0-.265.133-.662.133-.928.265-.132 0-.397-.132-.265-.265 2.253-11.53 10.47-18.422 18.82-19.217.265 0 1.325-.662 2.783-1.06.795-.132 1.59-.265 2.385-.265.796 0 .133 0 .133.133 0 0 0 .132-.133.132-.132 0-.265.133-.397.133-.133 0-3.844.662-5.699 3.048l-.133.132c0 .133.133.265.266.133 4.24-2.253 7.156-2.518 7.554-2.518 1.59-.265 3.313 0 4.77.265 1.459.265.133 0 .133.132 0 0 0 .133-.132.133-1.325 0-2.783.132-4.241.53h-.133c-1.458.398-2.915.928-4.24 1.723-.266.132-.133.397.264.265 4.241-1.193 7.687-.795 9.41-.398a22.74 22.74 0 0 1 3.976 1.326s.132.132 0 .132l-.133.133c-.265 0-.53-.133-.795-.133-4.638-1.458-8.747.133-8.747.133-.132 0-.132.265 0 .265 2.386-.265 6.362-.265 8.747 1.458l.398.397h.132a12.662 12.662 0 0 1 3.579 5.036c.397 1.06.662 2.518.927 3.446 0 .265-.265.663-.53.53-1.458-.132-2.783.133-3.71.398h-.133c-.133 0-.398.132-.53.132h-.133c-.927.265-1.458.663-1.458.663-.662.398-1.325.928-1.988 1.458a13.12 13.12 0 0 0-1.722 2.518c-.133.132-.133.265-.133.53.133.398.398.663.663.53.132 0 .132-.132.265-.132 1.723-1.723 3.843-2.916 6.361-3.314 1.06-.265 2.12-.265 3.048-.265.53 0 .796.398.928 1.193v.133c0 .927-.265 1.325-.928 1.325-.397-.133-.795-.133-1.06-.133-3.843-.265-7.156 2.518-7.82 6.23Zm13.12 3.181c-.132.53-.397.928-.662 1.325-.133.265-.398.53-.53.796-.265.265-.398.53-.663.662-.265.265-.53.398-.795.53-.133.133-.265.133-.53.265h-.133c-.132.133-.397.133-.53.265-.133 0-.265.133-.53.133h-.133c-.132 0-.265 0-.397.132h-2.386c-.132 0-.265 0-.397-.132h-.133c-.132 0-.265-.133-.398-.133-.132-.132-.397-.132-.53-.265h-.132c-.133-.132-.265-.132-.53-.265-.265-.132-.53-.397-.795-.53l-.663-.662c-.265-.266-.398-.53-.53-.796-.265-.397-.398-.927-.53-1.325-.133-.53-.265-1.193-.265-1.855 0-.663.132-1.193.265-1.856.132-.397.265-.795.53-1.06.132-.398.397-.663.662-.928.663-.795 1.458-1.325 2.386-1.723l1.193-.397c.397-.133.795-.133 1.192-.133.398 0 .796 0 1.193.133l1.193.397a6.007 6.007 0 0 1 2.253 1.723c.265.265.398.663.663.928.132.398.397.663.397 1.06.133.53.265 1.193.265 1.856 0 .662.265 1.325 0 1.855Z"/><path d="M61.361 33.265c-1.59-.663-3.445-.265-4.77.663-.133.132-.133.132 0 .265 0 0 .132.132.264.132h.133c1.59-.53 2.916-.265 3.976.398a3.317 3.317 0 0 1 1.59 1.723c-.397-.398-.927-.795-1.458-.928h-.927c-.133 0-.265.265-.133.398.265.265.398.53.398.927a.901.901 0 0 1-.928.928c-.265 0-.53 0-.663-.132-.132-.133-.397 0-.397.132 0 .265 0 .398.132.663.265.927 1.193 1.59 2.12 1.59.929 0 1.724-.397 2.121-1.193-.132.53-.397.928-.662 1.326-.663.927-1.988 1.723-3.579 1.855-.132 0-.132.133-.132.133s0 .132.132.132a3.68 3.68 0 0 0 2.386 0c.795-.132 1.59-.53 2.12-1.193.265-.265.53-.53.796-.927.265-.398.397-.663.53-1.06.265-.796.265-1.591.132-2.386-.397-1.458-1.59-2.916-3.18-3.446Z"/></g></g></svg>