<svg viewBox="0 0 90 90" xmlns="http://www.w3.org/2000/svg"><g fill="none"><path fill="#000" d="M0 90h90V0H.001z"/><path d="M14.853 28.64c-2.196-.028-3.712-.182-5.414-1.577v2.445c1.888.712 3.155.649 5.168.68 4.175.093 9.187-1.207 9.003-6.31-.153-3.93-2.474-4.799-5.26-6.407l-3.681-2.134c-1.455-.836-2.567-1.73-2.722-3.372-.218-2.536 2.566-4.24 5.103-4.083 1.794.061 3.094.34 4.395 1.579V7.077c-1.673-.678-2.817-.617-4.641-.678-3.897-.127-7.49 2.037-7.46 5.689.032 2.475 1.364 3.993 3.622 5.322l4.21 2.414c1.915 1.082 3.555 2.225 3.555 4.423 0 2.88-2.226 4.52-5.878 4.393m9.868-20.018c.233.292.322.497.41.821l7.738 20.84 5.659-15.595 5.775 15.478 7.3-20.344c.117-.353.265-.557.44-.88.263-.412.437-.672.761-1.055h-3.227c.178.264.233.47.266.793.03.38-.088.643-.266 1.023l-4.982 14.806-5.392-14.98c-.116-.38-.179-.645-.088-1.054a1.85 1.85 0 0 1 .234-.558h-3.986c.234.234.408.41.614.675.235.292.44.467.587.851l1.085 2.754-4.602 12.25L27.681 9.21c-.088-.236-.058-.413 0-.65.03-.26.12-.408.267-.642h-4.02c.352.206.527.382.792.705m28.036 5.772c.15.228.238.405.318.681.106.31.124.491.124.784v12.538c0 .301 0 .502-.12.778v.004l-.004.003c-.05.177-.13.344-.236.495l-.078.117h2.688l-.07-.112-.095-.15c-.088-.129-.158-.233-.185-.403-.061-.505-.061-1.195-.061-1.99V15.816c0-.226 0-.36.142-.847.079-.22.142-.38.241-.581l.055-.109H52.68l.076.115ZM79.183 7.89h-2.462c.085.322.146.528.204.848.206 1.055.146 1.732.146 2.786v13.895L61.74 7.918h-3.223c.294.178.47.35.617.674.174.325.233.586.233.939V27.82c0 .44 0 .733-.117 1.174-.057.325-.174.497-.38.79h2.784c-.118-.38-.204-.585-.264-.938-.203-.965-.203-.965-.203-1.61v-16.27l17.705 19.552-.03-20.491c0-.439 0-.7.09-1.169a5.06 5.06 0 0 1 .233-.967M32.051 49.37c0-2.87-1.351-4.662-3.784-5.484l-.88-.321.822-.497c1.584-.907 2.435-2.024 2.375-4.106-.146-2.842-2.344-5.247-5.19-5.247H18.77c.207.297.325.498.469.822.209.469.294.791.294 1.289V53.85c0 .442-.06.734-.207 1.143-.118.238-.176.384-.35.619h5.835c4.453 0 7.21-2.374 7.24-6.244ZM21.85 35.18h2.14c2.723 0 4.22 1.583 4.336 3.782.088 2.374-1.377 4.106-4.572 4.106H21.85V35.18Zm2.255 19.114c-.822.059-1.346-.03-2.138-.264v-9.382c.73-.175 1.17-.175 1.906-.175 2.898.087 5.743 1.114 5.832 4.868.088 3.164-2.727 4.778-5.6 4.953Zm28.393-18.555c0-.412-.033-.643.028-1.054a5.29 5.29 0 0 1 .234-.967h-3.052c.15.35.21.586.298.967.06.411.06.672.06 1.11v12.549c0 3.109-2.346 5.6-5.69 5.687-3.372.116-6.389-2.49-6.389-5.865V35.647c0-.378-.032-.643.056-1.025.06-.38.122-.588.265-.905h-2.989c.146.405.206.674.264 1.14.058.383.027.615.027.996v12.579c0 4.454 3.93 7.56 8.765 7.504 4.517-.09 8.123-3.169 8.123-7.388v-12.81Zm19.629 19.025c-.676-.588-1.202-1.292-1.877-2.168l-5.217-6.628a14.157 14.157 0 0 0-1.526-1.67c-.178-.144-.265-.266-.438-.412 3.226.5 5.892-2.11 5.95-5.158.088-3.137-2.492-5.04-5.367-5.04h-6.594c.178.32.325.525.41.907.148.823.178 1.288.178 2.11v15.713c0 .822 0 1.786-.088 2.23-.03.35-.176.554-.352.906h3.222c-.146-.41-.263-.645-.32-1.055-.119-.469-.088-.734-.088-1.199V43.241c.146.088.263.146.38.264.264.205.351.409.587.704l8.792 11.43h3.462a15.25 15.25 0 0 1-1.114-.876M60.048 42.978v-7.561c.852-.384 1.41-.412 2.316-.412 3.548.147 4.135 2.024 4.25 3.78.177 2.432-1.642 4.018-4.662 4.252-.699.027-1.491 0-1.904-.059M44.873 60.333c.205 1.055.146 1.729.146 2.787v13.893L29.687 59.511h-3.225c.296.179.469.352.617.673a1.8 1.8 0 0 1 .235.94v18.29c0 .444 0 .734-.118 1.174-.058.323-.177.497-.38.79H29.6c-.117-.378-.207-.585-.264-.938-.205-.966-.205-.966-.205-1.608V62.56l17.705 19.553-.027-20.49c0-.439 0-.706.086-1.172.06-.38.118-.617.236-.967h-2.465c.089.323.147.527.207.85m16.941 19.404H54.81v-9.793h5.86c.35 0 .618 0 .969.06.497.116.79.205 1.23.41v-2.081h-8.147v-7.21h5.949c.499 0 .851-.087 1.35.086.351.12.587.265.847.53v-2.2h-11.17c.21.206.296.353.416.614.117.322.175.56.175.938v18.353c0 .41.057.703-.058 1.11a2.272 2.272 0 0 1-.383.822H64.48l.76-2.459c-.344.234-.583.35-.994.466-.91.294-1.464.353-2.432.353m-43.808-10.41a2.066 2.066 0 0 0-.312-.092c-.047-.01-.15.031-.187 0l-.027-.039c-.127.002-.506.119-.621.183-.288.15-.4.304-.65.327l-.053.01a.922.922 0 0 1-.262-.195c-.024-.045.01-.151.018-.2.105-.5.838-.342 1.133-.479a.913.913 0 0 0 .355-.34c.08-.128.196-.625.156-.764-.015-.046-.193-.568-.116-.792.018-.057.067-.195.044-.251a.665.665 0 0 0-.11-.11c-.152.057-.284.146-.436.179-.166.036-.361-.006-.52.02-.305.037-.697.226-.853.56-.312.674.006 1.081.026 1.204.005.05.03.043.038.097.006.158-.298.364-.45.343-.109-.017-.307-.223-.32-.373.004-.114.018-.227.043-.338.015-.047.047-.203.044-.25-.01-.149.033-.385-.032-.541-.026-.058-.173-.355-.223-.408a7.067 7.067 0 0 0-.546-.338 5.61 5.61 0 0 0-.27-.025c-.153-.01-.305-.02-.457-.028l-.416-.24c-.028-.015-.157.025-.17.025-.02.051-.07.115-.068.17.01.2.14.315.09.533-.057.234-.186.48-.183.72.004.323.271.732.551.926.049.037.161.05.208.077.096.05.136.12.231.149.045.017.146-.015.185-.006.034.01.568.359.588.404.028.052-.022.182-.058.226-.107.137-.255.137-.385.118l-.045.028c-.053-.037-.142-.081-.164-.101-.046-.045-.069-.132-.119-.173a4.656 4.656 0 0 0-.423-.2c-.146-.06-.507-.06-.666.027-.085.047-.24.213-.308.273-.035.037-.096.052-.126.09-.125.16-.166.425-.25.582-.067.116-.184.187-.222.308-.034.11.005.132.064.27.006 0 .057-.01.057-.01s.296.206.432.352c.132.146.499.33.661.323.071 0 .345-.049.396-.06a1.05 1.05 0 0 0 .443-.214c.043-.037.341-.515.36-.56.006-.03.354-.441.5-.351.014.004.212.177.25.264.021.05-.01.22-.032.27-.066.138-.25.192-.39.336a2.693 2.693 0 0 0-.282.447c-.03.077-.006.168-.006.253-.007.228.015.507.264.783.04.045.164.125.21.168.168.167.362.49.56.45.195-.04.299-.264.512-.387.225-.134.452-.35.544-.563.037-.095.022-.299.033-.402a2.54 2.54 0 0 0-.125-.446c-.042-.089-.078-.23-.176-.344-.121-.137-.414-.207-.483-.38-.006-.01.033-.074.033-.084-.003-.054-.045-.067-.052-.12a.864.864 0 0 1 .088-.279c.165-.185.507-.117.622 0 .162.166.124.372.219.536.207.365.742.609 1.021.566.06-.008.266-.04.325-.069.168-.083.304-.25.388-.333.132-.132.416-.257.5-.41.063-.124-.131-.48-.186-.621-.068-.17-.226-.551-.412-.68m60.114.99c-.081-.16-.125-.426-.25-.584-.028-.038-.089-.053-.125-.09-.071-.06-.22-.227-.307-.272-.16-.089-.521-.089-.667-.03-.146.06-.287.129-.425.205-.047.04-.068.126-.117.167-.024.023-.112.068-.166.104l-.04-.03c-.13.02-.28.02-.39-.115-.036-.047-.086-.175-.057-.228.02-.046.553-.388.588-.403.038-.01.141.02.187.007.097-.031.132-.097.23-.15.048-.027.161-.04.21-.076.276-.19.546-.603.55-.927.002-.24-.128-.487-.183-.719-.052-.217.08-.334.088-.533.003-.057-.048-.12-.066-.17-.016 0-.144-.043-.173-.025a29.41 29.41 0 0 0-.418.238l-.453.027a15.81 15.81 0 0 0-.274.027c-.185.108-.366.221-.545.339-.084.13-.157.268-.219.41-.068.15-.024.39-.034.538-.002.046.03.202.043.248.025.071.048.334.045.343-.01.146-.213.355-.323.37-.15.02-.453-.186-.447-.345.004-.052.033-.045.037-.097.018-.117.338-.528.027-1.202-.157-.336-.551-.524-.854-.563-.157-.02-.351.017-.519-.016-.154-.034-.286-.125-.436-.182 0 0-.098.081-.108.112-.025.054.027.194.042.25.074.224-.103.745-.119.791-.04.14.082.64.16.763a.887.887 0 0 0 .353.345c.295.132 1.027-.025 1.134.475.012.049.04.155.018.2-.023.048-.233.192-.262.194l-.053-.008c-.248-.022-.367-.177-.649-.324-.118-.065-.496-.183-.624-.187l-.025.04c-.038.031-.14-.01-.185 0a2.174 2.174 0 0 0-.315.092c-.187.13-.346.51-.412.683-.055.14-.25.497-.183.622.08.15.365.273.496.405.088.087.219.252.39.335.06.03.265.06.326.074.276.038.814-.206 1.02-.572.093-.162.054-.367.218-.536.112-.117.459-.184.624 0a.841.841 0 0 1 .086.281c-.008.051-.051.066-.051.12 0 .01.035.072.034.084-.069.17-.365.243-.484.38-.097.113-.136.254-.18.346a2.537 2.537 0 0 0-.12.443c.008.103-.006.307.034.4.087.214.314.43.541.565.213.123.315.349.512.386.2.04.394-.28.565-.446.042-.045.167-.126.21-.17.246-.273.263-.553.26-.785 0-.082.023-.175-.007-.253a2.83 2.83 0 0 0-.283-.447c-.138-.143-.324-.197-.39-.337-.022-.046-.051-.217-.03-.268.034-.088.235-.26.25-.265.146-.088.492.322.502.35.014.049.316.526.358.563.117.101.317.193.441.216.053.007.325.058.397.059.164.005.527-.178.66-.32a3.36 3.36 0 0 1 .437-.355l.053.007c.057-.137.102-.158.063-.267-.038-.12-.155-.194-.221-.308" fill="#FFF"/></g></svg>