<svg viewBox="0 0 90 90" xmlns="http://www.w3.org/2000/svg"><g fill="none"><path fill="#06B999" d="M0 0h90v90H0z"/><path d="M19.437 51.338c2.047.02 3.634 1.127 4.356 3.058.563 1.55 1.305 3.018 2.39 4.285 1.686 1.932 3.814 2.737 6.364 2.535.823-.06 1.627-.18 2.41-.442 1.827-.604 3.112-1.851 4.055-3.5 1.085-1.872 1.727-3.904 2.29-5.976 1.063-3.924 1.846-7.907 2.63-11.89.602-3.1 1.244-6.198 2.308-9.195.663-1.831 1.486-3.582 2.67-5.13 1.948-2.596 4.558-4.105 7.71-4.729 3.534-.684 6.988-.402 10.3 1.066 3.614 1.61 6.245 4.205 7.73 7.907.743 1.892.281 3.883-1.184 5.15-1.466 1.268-3.654 1.51-5.26.584-.723-.402-1.266-1.006-1.667-1.71-.362-.623-.703-1.247-1.145-1.81-1.224-1.57-2.87-2.274-4.818-2.254-2.972.04-4.819 1.388-5.963 4.346-.844 2.153-1.245 4.386-1.647 6.64-.662 3.782-1.104 7.604-1.967 11.347-.864 3.702-2.068 7.283-4.156 10.482-2.871 4.386-6.887 6.961-12.087 7.685-3.815.544-7.49.08-10.882-1.79-3.996-2.193-6.887-5.372-8.473-9.698-.482-1.348-.562-2.716-.06-4.084.622-1.75 2.208-2.877 4.096-2.877Z" fill="#FFF"/></g></svg>