<svg viewBox="0 0 90 90" xmlns="http://www.w3.org/2000/svg"><g fill="none" fill-rule="evenodd"><path fill="#FFF" d="M0 0h90v90H0z"/><g fill="#000" fill-rule="nonzero"><path d="M46.341 12.698c3.41 2.112 6.808 4.238 10.216 6.353-.34.545-.678 1.09-1.024 1.633-1.711-.988-3.417-1.982-5.132-2.967-.55 5.15-1.137 10.301-1.673 15.451 2.285 1.335 4.582 2.652 6.873 3.98l12.547-9.176a3621.75 3621.75 0 0 0-5.13-2.97c.3-.565.585-1.14.892-1.7 3.533 1.897 7.074 3.778 10.607 5.68-.134 4.012-.268 8.022-.407 12.032-.635-.029-1.27-.042-1.906-.07v-5.936c-4.744 2.093-9.492 4.18-14.233 6.277v7.888c4.744 2.093 9.489 4.185 14.233 6.276v-5.937c.636-.023 1.27-.047 1.905-.067.14 4.013.28 8.025.403 12.037l-10.607 5.675c-.291-.57-.596-1.135-.883-1.707 1.712-.983 3.418-1.976 5.126-2.965l-12.615-9.242c-2.296 1.324-4.59 2.651-6.882 3.981.58 5.173 1.17 10.343 1.752 15.516 1.713-.985 3.419-1.983 5.134-2.967.342.542.679 1.086 1.02 1.63l-10.14 6.355-.076-65.06Z"/><path d="M43.034 5.07c16.237-1.013 32.405 9.024 38.674 24.046 6.605 14.697 3.033 33.16-8.575 44.334-11.268 11.456-29.694 14.82-44.298 8.149C14.27 75.367 4.397 59.825 5.029 43.988c.17-16.177 11.306-31.446 26.601-36.67a40.16 40.16 0 0 1 11.402-2.244l.002-.004Zm1.392 3.936c-15.517.05-30.007 11.47-33.833 26.472-4.028 14.122 1.813 30.297 13.913 38.61 12.402 9.054 30.636 8.691 42.632-.926C78.88 64.332 83.98 47.913 79.36 33.978c-4.4-14.517-18.847-25.182-34.037-24.98l-.897.008Z"/><path d="M27.472 16.889c2.144-1.433 4.528-2.48 6.981-3.255-4.729 2.416-9.083 6.484-10.2 11.86-1.039 4.422.822 9.045 3.885 12.232 1.837 2.175 4.92 3.437 5.727 6.373.143 2.86.056 5.739.116 8.607-.022 1.235.572 3.263-1.415 2.531-5.295-.447-9.772-4.224-12.139-8.827-3.236-5.662-3.294-12.706-1.262-18.787 1.482-4.37 4.432-8.216 8.307-10.736v.002Z"/><path d="M39.497 23.068c1.104-1.215-1.2 1.531-1.047 2.388-.767 3.126.976 6.755 4.018 7.923 2.333 1.114 1.116 4.023 1.42 6.038v38.265c-5.998-.073-12.1-1.88-16.919-5.506 2.57-.475 5.01-1.859 6.581-3.972-2.892 1.945-6.93 2.869-9.998.753-4.067-2.752-6.49-7.23-8.784-11.438 2.831 2.945 5.927 6.131 10.022 7.156 3.003.356 6.058.207 9.025-.318 2.819.293 3.607 3.453 4.815 5.531 1.325.719 1.5-2.744 2.033-3.784 1.584-6.608 1.873-13.468 1.71-20.24-.043-3.87-.85-7.938-3.563-10.87-.93-1.956-4.592-1.273-3.186-3.879.673-2.919 1.916-5.755 3.873-8.047Z"/><path d="M44.538 23.34a4.47 4.47 0 0 0 .173-.03c.03.288.014.578.017.867v6.147c-.003.281.02.564-.025.842a2.18 2.18 0 0 0-.17-.009c-.152-.604-.28-1.216-.423-1.824-.063-.246-.095-.498-.173-.739-.275-.039-.553-.029-.83-.034h-2.449c-.268-.001-.535.014-.803-.007-.005-.062-.042-.147.025-.19.207-.104.44-.142.656-.216.553-.185 1.11-.35 1.662-.534.226-.078.47-.117.671-.247.007-.09.005-.181-.006-.271-.199-.088-.409-.143-.614-.209-.505-.166-1.016-.315-1.518-.486-.29-.1-.593-.16-.873-.288l-.017-.176c.822-.03 1.646.01 2.467-.02.543-.02 1.085.013 1.627-.01.02-.063.042-.126.06-.187.172-.796.372-1.582.543-2.379Zm-29.031 7.22c.27-.57.725-1.503.39-.353-1.214 6.14-.468 12.886 2.992 18.202 2.257 3.113 5.237 5.91 9.016 6.99 1.777.604 3.922.577 5.215 2.154 1.19 1.315 1.83 3.077 2.018 4.818-3.93 1.835-8.642 1.42-12.395-.655-4.727-2.337-7.77-7.07-9.173-12.022-1.042-3.423-1.354-7.065-.762-10.6.445-2.964 1.403-5.837 2.699-8.535Z"/></g></g></svg>