<svg xmlns="http://www.w3.org/2000/svg" viewBox="0 0 90 90"><path fill="#FFF" d="M0 0h90v90H0z"/><path fill="#243239" d="M57.43 34.33c-3.63-8.05-9.5-15.32-17.58-21.82l-.5-.41a.46.46 0 00-.65.07.46.46 0 00-.06.5l.73 1.46.46.97.46.95.44.93.43.93.21.46.42.9.4.89.38.88.38.86.37.85.35.84.34.82.32.81.32.8.15.4.3.77.14.39.28.75.14.38.26.73.25.73.12.35.23.7.11.35.21.69.1.34.2.66.18.65.17.64.08.31.15.62.14.6.3 1.45.1.56.08.54c.1.63.16 1.23.2 1.8l.03.48a13.1 13.1 0 01-.31 3.93c-.88 3.37-3.85 5.4-8.93 6.07l-.53.06-.55.06-.56.04-.29.02-.58.03a41 41 0 01-3.15.01l-.68-.02-.69-.04-.7-.05-.72-.05-.74-.07a69.1 69.1 0 01-.37-.03l-.76-.08-.77-.1-.79-.09-.4-.05-.8-.12-.42-.06-.83-.12a22.47 22.47 0 007.32 2.97 17.8 17.8 0 00-6.56 3.46l1.38-.18 1.33-.15 1.7-.2 1.21-.12 1.17-.1 1.1-.1 1.07-.09 1-.07.97-.06.6-.02.88-.04.56-.01h.53l.5-.01h.73l.23.01.44.02.42.02.4.03.37.04.17.02.34.04.32.06c.3.05.58.11.81.19l.12.03a.92.92 0 01.43 1.44l-.89 1.11-1.3 1.63-1.29 1.59-1.65 2.03-1.21 1.47-1.18 1.43-1.15 1.37-1.12 1.33-1.09 1.27-.71.83-1.04 1.2-1.01 1.15-.98 1.1-.95 1.05-.92 1.01c5.4 0 11.12-2.92 17.3-8.45l.84-.75 1.02-.9 1.88-1.62.54-.47.55-.48.27-.24.53-.5.53-.48.52-.5c2.32-2.27 4.3-4.72 4.94-7.42l.6-.18.87-.26.55-.17.52-.16.5-.17.47-.16.45-.16.43-.16.4-.16.2-.07.37-.16.17-.07.33-.15.46-.22.27-.15.25-.14.23-.14.2-.14.18-.14c.39-.31.58-.61.58-.9 0-1.56-3.77-3.05-6.5-2.73l.15-.27.52-.8.13-.22.12-.22.13-.23.08-.16.07-.16.07-.17.07-.18.07-.18.05-.2.06-.2.05-.2.04-.22.02-.1.03-.24.02-.11.02-.25v-.13l.02-.26-.01-.7-.03-.3-.03-.32-.01-.16-.05-.33-.06-.35-.07-.37-.08-.38-.09-.4-.1-.4-.12-.43-.2-.68-.16-.47-.08-.24-.17-.5-.2-.52-.2-.54-.22-.56-.12-.29-.24-.58-.27-.62-.28-.63z"/></svg>