<svg viewBox="0 0 90 90" xmlns="http://www.w3.org/2000/svg"><g fill="none"><path fill="#E64626" d="M0 0h90v90H0z"/><path d="M46.63 53.988h4.385v-.655H46.57l.06.655Zm0 1.845h4.385v-.654H46.57l.06.654Zm0-3.69h4.385v-.655H46.57l.06.655Zm-3.2 1.19h-4.504v.655h4.444l.06-.655Zm0 1.786h-4.504v.714h4.444l.06-.714Zm0-3.571h-4.504v.595h4.444l.06-.595Zm6.992-11.846a109.556 109.556 0 0 0-10.844 0v8.929H22.51a26.908 26.908 0 0 0 4.978 11.726c.335-.49.89-.78 1.481-.774h10.608v9.286c1.778.476 3.555.774 5.392.774v.06-.06c1.897 0 3.734-.298 5.452-.774v-9.226H61.03c.592 0 1.185.297 1.481.774A26.907 26.907 0 0 0 67.49 48.75H50.422v-9.048ZM41.89 42.5l2.311 1.131.83-2.381.83 2.381L48.11 42.5l-1.067 2.381 2.37.774-2.37.893 1.067 2.262-2.311-1.131-.83 2.38-.83-2.38-2.251 1.13 1.067-2.38-2.37-.774 2.37-.834-1.067-2.321Zm-8.06 14.821-2.31-1.13-.83 2.38-.83-2.38-2.37 1.13L28.674 55l-2.43-.833 2.37-.834-1.066-2.38 2.252 1.19.83-2.44.889 2.38 2.251-1.071-1.066 2.262 2.37.893-2.37.833 1.126 2.321Zm3.615-.178h-1.007v-.774h1.007v.774Zm0-1.964h-1.007v-.774h1.007v.774Zm0-1.965h-1.007v-.774h1.007v.774Zm0-2.024h-1.007v-.714h1.007v.714Zm.593 5.953V50h4.682c.981 0 1.777.8 1.777 1.786v5.952a1.774 1.774 0 0 0-1.363-.595h-5.155.059Zm10.074 9.286L45.8 65.298l-.77 2.44-.89-2.38-2.251 1.07 1.067-2.32-2.37-.834 2.37-.834-1.067-2.321L44.2 61.25l.83-2.381.83 2.381 2.251-1.131-1.067 2.381 2.37.774-2.37.893 1.067 2.262Zm8.06-15.477 2.37 1.19.77-2.44.889 2.381 2.252-1.071-1.067 2.321 2.37.834-2.37.833 1.067 2.321-2.311-1.13-.83 2.38-.83-2.38-2.31 1.13 1.185-2.38-2.43-.774 2.37-.893-1.126-2.322Zm-3.615-.476h1.007v.714h-1.007v-.714Zm0 1.964h1.007v.715h-1.007v-.715Zm0 1.965h1.007v.774h-1.007v-.774Zm0 1.964h1.007v.774h-1.007v-.774ZM51.963 50v7.143h-5.096a1.774 1.774 0 0 0-1.423.595v-5.952c0-.987.796-1.786 1.778-1.786h4.741Zm8.889-30.357a79.07 79.07 0 0 0-15.882-1.845 88.112 88.112 0 0 0-22.814 3.571v19.226c2.488-.416 12.918-2.024 22.814-2.024 9.897 0 20.326 1.608 22.874 2.024V21.37c-2.31-.655-4.642-1.23-6.992-1.726Zm-23.94 2.024c.355-.12-.356-.655.118-.596.296 0 1.363 0 2.133.358.178.06.237-.239.593-.417h.118c.296.178.415.476.593.417.77-.358 1.777-.358 2.133-.417.474 0-.296.595.06.595a3.924 3.924 0 0 1 3.08 3.81c0 .476-.118 1.012-.296 1.428-.059.238-.355-.416-.414 0a7.821 7.821 0 0 1-.77 2.024c-.356.655-.949-.774-1.186-.357-.296.714-1.126.952-1.66 1.071-.058 0-.118 0-.058-.119 0 0 .177-.119.177-.416l.06-.06c.426-.21.732-.605.83-1.071a6.497 6.497 0 0 1 .592-1.488c.415-.834-.178-1.905 0-2.143a1.204 1.204 0 0 0-.43-2.035 1.192 1.192 0 0 0-1.17.249l-.356.357c-.059.179-.059.417.119.476.83.179 1.363 2.084 1.066 2.679-.177.298-.592 1.31-.592 1.607a.696.696 0 0 1-.238.652.69.69 0 0 1-1.125-.414c.237-.178.77-.476.77-.833l-.118-1.012c.415 0 .592-.298.652-.655l.118-.119c.119-.119.237-.476-.06-.417-.414.12-.888.06-1.362.239a.178.178 0 0 0-.119.119l.297 1.607h-.593a10.383 10.383 0 0 0-.652 0l.297-1.548a.18.18 0 0 0 0-.119c-.119-.119-1.304-.238-1.482-.298a.178.178 0 0 0-.178.12c-.118.119.119.357.237.416 0 .357.237.595.593.655h.06l-.12 1.012c0 .357.534.595.771.774v.06c-.119.237-.356.416-.593.416-.355 0-.71-.298-.71-.655 0-.238-.416-1.31-.593-1.607-.356-.595.177-2.5 1.007-2.679.237-.06.296-.357.178-.476-.356-.357-.77-.833-1.363-.833-.325 0-.636.133-.86.37a1.194 1.194 0 0 0-.325.88c0 .774.592.893.592 1.13a2.39 2.39 0 0 0 0 2.025l.593 1.428c0 .476.296.833.711 1.072.178.119.119.238.178.416l.118.179c.119 0 0 .06 0 0-.592 0-1.481-.238-1.837-1.012-.177-.417-.83 1.012-1.185.357a7.642 7.642 0 0 1-.711-2.024c-.119-.416-.356.238-.474 0a4.003 4.003 0 0 1-.296-1.428 3.924 3.924 0 0 1 3.14-3.75h-.059Zm5.095 1.25v-.12a.591.591 0 0 1 .629.224.597.597 0 0 1 .023.67H42.6a2.677 2.677 0 0 0-.593-.774Zm-1.185 6.13c-.178.358-.652.239-.889.477h-.177c-.237-.238-.712-.12-.83-.476v-.12c.346-.038.664-.209.889-.476h.118c.178.238.474.417.77.477.06 0 .12 0 .06.119h.06Zm-3.674-5.357h-.118a.596.596 0 0 1-.237-.416c0-.298.237-.595.592-.595l.356.178v.12a2.973 2.973 0 0 0-.593.713Zm-4.86 7.024c-.355 0-.473.12-.77.298-.177.119-.237-.238 0-.893.119-.595-.888-.833-1.185-.595-.355.238-1.185.833-2.133-.12-.178-.178.415-.118.474-.297 0-.238.237-.357.356-.476v-.238c-.297-.12-.711-.476-.593-1.012 0-.12-.474-.12-.296-.298.83-.773 1.778-.297 2.074 0 .06 0 .178 0 .237-.119 0-.238-.119-.416.355-.833.119-.06-.296-.417 0-.357 1.778.416.949 2.202 1.304 2.5.652.595 2.252 1.071 3.733 1.369l.652.238c1.185.595 1.956.595 2.608.298.237-.06.237.178.177.297-2.37 2.262-4.266 1.667-4.859 1.25-.474-.297-1.363-.297-1.778.298-.118.06-.237.119-.296-.06-.118-.416 0-.714.178-1.071.06-.12-.119-.179-.237-.179Zm22.816 2.084c-.297.297-.89.595-1.778.595-.415 0-.593.06-.711.178l-.06.239c-.059.178 0 .357.12.535.058.12 0 .238-.12.238-.118.06-.355.06-.71-.119-.178-.119-.238 0-.238.12-.059.178 0 .416.297.595.118.119.118.178-.119.297-.296.12-.592-.06-1.185-.357-.237-.179-.474-.179-.652.06-.118.119-.118.238 0 .297.178.238.237.595-.237 1.19-.118.239-.296-.356-.474-.237-.652.297-1.185-.12-1.422-.417 0 0-.119-.06-.237 0-.356.238-1.067.595-1.304 0-.06-.12-.474.119-.474-.06 0-1.071.948-1.31 1.363-1.31.118 0 .118-.059.06-.178-.12-.238-.356-.535-.238-.833.06-.238-.533-.298-.296-.417 1.185-.595 1.896.596 2.133.715.356.178 1.956-.358 2.134-1.19 0-.18-.356-.239-.77-.358-.06 0-.12-.12 0-.238.947-.714 1.777-1.667 3.495-1.786.178 0 .297.12.297.238a2.98 2.98 0 0 0 1.066 1.905c.178.06.119.238.06.357v-.06Zm7.289-.536c.177.119.177.178.059.298-.119.119-.296.178-.711.178-.178 0-.178.12-.178.238 0 .179.237.357.593.357.118.06.177.179 0 .298-.237.298-.593.298-1.186.298-.533 0-.948.595-.592.892.178.179.592.596.237 1.727-.119.297-.356-.298-.534-.238-.414.297-.83 0-1.007-.298-.118-.12-.178-.12-.237 0-.178.298-.652.893-1.6.357-.237-.119-.593.298-.652.12-.178-.715.178-1.191.534-1.43 0 0 .177-.178-.06-.178-.296 0-.71-.12-.77-.476 0-.12-.415-.06-.356-.179.06-.595 1.304-.952 2.134-.416.652.476 1.54-1.131.948-1.846-.474-.595-3.14.953-4.09-1.012-.355-.773.12-1.428-.236-1.488-.415-.06-2.074-.416-3.97 1.072a6.495 6.495 0 0 1-7.349.595c-.118 0-.237.06-.177.179a.896.896 0 0 1-.119.952c-.296.476-1.481 1.012-1.66 1.071-1.303.357-1.184 1.37-1.066 1.846.06.119 0 .238-.118.178a1.779 1.779 0 0 1-1.541-1.13.177.177 0 0 0-.237 0c-.533.356-.356.892-.237 1.13l-.06.179c-.474 0-.83-.476-1.185-.476a1.716 1.716 0 0 0-.71.357c-.12 0-.12.178-.06.297.474 1.488-.296 1.548-.356 1.548-.059 0 0-.298-.296-.357-.77.06-1.007-.476-1.067-.834 0-.119 0-.178-.118-.119-.296.238-1.067.596-1.54 0l-.416.06-.059-.179c.026-.585.367-1.11.889-1.369.119 0 .178-.119.06-.178-.238-.179-.712-.596-.593-1.012.059-.12-.356-.238-.237-.298.948-.714 2.074.417 2.252.536.177.119 1.007.178 3.14-1.072a8.3 8.3 0 0 0 2.43-1.845c0-.06.118-.178.296-.178.83 0 1.719-.179 2.37-.715.12-.119.238-.06.238 0 1.185.834 1.896-1.071 2.133-1.904 0-.179 0-.358.237-.358 4.504.239 13.037.179 13.037.179s1.067.12 1.007-.595c-.059-1.131-4.74-1.072-8.177-.595-1.245.178-3.082.238-4.149-.179a1.957 1.957 0 0 1-1.007-.774c-.237-.476-.178-.774-.118-1.071 0-.179.118-.417.296-.595.889-1.429 2.963-1.548 3.555-1.548.119 0 .178 0 .237-.12a1.188 1.188 0 0 1 1.186-1.13c.177 0 .474-.06.592-.179.119 0 .178 0 .178.12 0 .118-.119.237-.237.357-.593.535-.533.773-.415.833h.119c1.837-1.667 2.903-.595 3.2-.238.059.06.118.178 0 .178-1.245.298-1.778 1.429-4.267 1.19-.296 0-2.37-.118-3.022.834-.415.595-.119 1.072 1.007 1.31.83.178 2.845-.06 3.734-.179.948 0 4.918-.595 6.992 0 .889.298 2.193 1.012 1.956 2.381-.136.531-.508.97-1.008 1.19 0 0-2.31 1.608 1.837 1.608 1.245 0 0 1.071 0 1.369-.118.238.119.416.297.595v-.12Zm-7.467-8.929c-.119 0-.296 0-.533.179-.356.238-1.837.893-2.37.119 0 0 1.066 0 1.777-.595 0 0 .711-.298 1.185.119l-.06.119v.06ZM45.03 15C30.985 15 17 18.75 17 18.75V37.5C17 54.405 29.03 72.024 44.97 75 61.563 71.786 73 54.405 73 37.5V18.75S61.326 15 44.97 15h.06Zm23.822 29.345c0 13.75-10.43 26.25-23.882 26.25-13.392 0-23.822-12.5-23.822-26.25v-23.69l.356-.12s12.089-3.75 23.466-3.75a92.067 92.067 0 0 1 23.586 3.75l.355.12-.06 23.69Z" fill="#222"/></g></svg>