<svg viewBox="0 0 90 90" xmlns="http://www.w3.org/2000/svg"><g fill="none"><path fill="#06C668" d="M0 0h90v90H0z"/><g fill="#FFF"><path d="M41.778 61.082c.334-.396.489-.913.424-1.423l-3.198-25.131c-.353-3.083-.25-5.827.283-7.562 1.214-4.742 5.336-8.08 10.256-8.31.18-.006.36-.012.54-.012.14 0 .474.006.474.006.662 0 1.208-.453 1.33-1.104a1.353 1.353 0 0 0-.842-1.525 15 15 0 0 0-6.178-1.002c-3.403.16-6.678 1.48-9.196 3.695-8.15 6.471-5.292 21.5-3.686 27.658.18.683.07 1.398-.295 2.004a2.63 2.63 0 0 1-1.657 1.193l-5.587 1.283a1.849 1.849 0 0 0-1.394 1.366 1.856 1.856 0 0 0 1.002 2.106l15.104 7.255c.25.122.533.186.81.186l.481-.02a1.927 1.927 0 0 0 1.33-.663Z"/><path d="M49.222 28.918a1.851 1.851 0 0 0-.424 1.423l3.198 25.131c.353 3.083.25 5.827-.283 7.562-1.214 4.742-5.336 8.08-10.256 8.31-.18.006-.36.012-.54.012-.14 0-.474-.006-.474-.006-.662 0-1.208.453-1.33 1.104a1.353 1.353 0 0 0 .842 1.525 15 15 0 0 0 6.178 1.002c3.403-.16 6.678-1.48 9.196-3.695 8.15-6.471 5.292-21.5 3.686-27.658a2.584 2.584 0 0 1 .295-2.004 2.63 2.63 0 0 1 1.657-1.193l5.587-1.283a1.849 1.849 0 0 0 1.394-1.366 1.856 1.856 0 0 0-1.002-2.106l-15.104-7.255a1.876 1.876 0 0 0-.81-.186l-.481.02a1.927 1.927 0 0 0-1.33.663Z"/></g></g></svg>