<svg viewBox="0 0 90 90" xmlns="http://www.w3.org/2000/svg"><g fill="none" fill-rule="evenodd"><path fill="#FFF" d="M0 0h90v90H0z"/><path d="M61.501 50.332c2.413.11 4.387.988 5.703 2.745 1.426 1.537 2.084 3.624 1.974 5.93-.11 2.416-1.097 4.722-2.742 6.37-1.754 1.646-4.387 2.744-7.348 2.964h-.987c-1.755 0-3.619-.33-5.483-.878-.659-.22-1.207-.44-1.755-.66a21.316 21.316 0 0 0-2.413-.878c-.548-.11-.987-.22-1.316-.22-.987 0-1.536.44-1.755.88-.439.658-.439 1.646-.439 2.415-.329-.22-.767-.44-.877-.44-.439-.219-.768-.548-.877-.988-.33-1.098-.11-2.415.658-3.184.658-.55 1.645-.769 2.303-.879h.768c1.754 0 3.4.66 5.264 1.208 1.097.33 2.193.769 3.4.989.877.11 1.754.22 2.632.22 1.864 0 3.62-.44 5.045-1.209 2.193-1.098 3.51-3.184 3.619-5.93.11-1.866-.329-3.294-1.316-4.392-.877-.988-2.084-1.538-3.62-1.538h-.548c-2.303 0-4.606.44-6.36 1.208-2.523 1.099-4.826 2.636-7.13 4.173-.438.22-.767.55-1.206.769-1.316.879-2.632 1.867-3.948 2.745-1.645 1.098-3.29 2.306-5.045 3.405-3.729 2.306-7.677 3.514-11.516 3.514-1.535 0-3.07-.22-4.606-.66-1.974-.548-3.4-1.317-4.058-2.305h.11c.329 0 .658.11.987.22.11 0 .329.109.439.109.767.22 1.535.33 2.303.44.987.219 2.084.219 2.96.219h1.427c5.374-.33 9.98-3.404 14.367-6.37.987-.658 1.864-1.317 2.851-1.866 1.207-.659 2.303-1.428 3.4-2.196 1.536-1.098 3.29-2.197 4.935-3.185 3.071-1.867 6.252-2.745 9.542-2.745ZM46.805 22c3.838 0 7.348 1.757 9.541 4.502 3.839 5.052 2.084 12.41 1.755 13.617-.329 1.538-1.864 2.526-2.193 2.636h-.22c-.11 0-.11-.11-.11-.11v-.11a.553.553 0 0 1-.04-.33l.033-.219.008-.11c0-.549.11-.988.22-1.537.767-4.612 1.754-10.432-2.743-13.837-.877-.659-1.864-1.208-3.07-1.537-1.207-.33-2.304-.55-3.4-.55-1.317 0-2.523.22-3.62.66-1.535.659-2.851 1.757-3.729 3.184-1.425 2.306-1.754 5.381-.877 8.017.658 1.867 1.864 3.404 3.07 4.941.44.55.878.989 1.207 1.538.439.659.768 1.208.878 1.757.11.768-.22 1.537-.768 2.086-.22.44-.658.769-.987.988-.658.33-1.426.22-2.194.22-3.07-.22-6.032-.988-9.102-1.208-4.278-.33-8.994.769-11.187 4.832-2.742 4.941.439 9.993 6.032 9.444 2.303-.22 4.826-1.208 6.91-2.306 2.96-1.647 5.702-3.844 8.554-5.71 3.18-1.977 6.36-5.052 9.76-6.7 5.046-2.305 9.652-3.513 15.136-1.866 4.935 1.537 9.212 7.358 9.322 12.519.11 2.525-.768 5.38-2.413 7.357-.768.879-1.645 1.538-2.742 1.867-.22 0-.438-.22-.329-.44.768-1.866 1.865-3.733 2.084-5.82.22-2.305-.33-4.611-1.316-6.698-1.316-2.965-3.839-4.502-6.91-4.941-3.948-.55-7.677.11-11.186 1.866-3.071 1.538-6.032 3.405-8.884 5.271-3.07 1.867-5.922 4.063-8.993 5.93-2.632 1.538-5.484 2.526-8.554 2.746-4.826.439-8.445-1.428-9.98-5.052-2.194-5.161.548-11.09 5.264-13.726 1.754-.989 3.729-1.428 5.812-1.538 1.865-.11 3.73 0 5.923.33.81.042 2.101.135 3.397.232l.553.042c1.838.14 3.544.275 3.727.275l-.549-.989c-.438-.659-.767-1.317-1.206-1.976-1.645-2.636-3.18-5.161-3.07-8.346.109-5.161 2.85-9.115 7.238-10.542 1.206-.44 2.632-.659 3.948-.659Zm16.231 36.238c.768.66 1.207 1.428 1.207 2.087 0 .659-.33 1.208-.987 1.867-.768.658-1.755 1.208-2.632 1.317-.768.22-1.536.22-2.303.22-2.194 0-4.497-.55-6.471-1.647.329-.33.658-.66 1.097-.879.329-.11.658-.22.987-.22.548 0 1.096.22 1.645.44.22.11.329.22.548.22a9.11 9.11 0 0 0 2.413.329h.439c2.193-.11 3.619-1.428 4.057-3.734Zm-31.914-9.334c2.303 0 4.716.55 7.238 1.318-.658.659-1.426 1.208-2.303 1.428-.22.11-.548.11-.987.11-.439 0-.878 0-1.316-.11-.22-.11-.33-.11-.549-.11-.548 0-1.096-.11-1.645-.11-1.645-.11-3.29.11-5.045.44-1.096.219-2.193.548-2.96 1.427-.878.988-.988 2.196-1.098 3.294a2.994 2.994 0 0 1-1.316-.988 1.857 1.857 0 0 1-.329-1.098c-.11-1.318.768-2.855 1.974-3.734.878-.659 1.975-1.098 3.51-1.428 1.535-.329 3.18-.439 4.826-.439ZM51.52 36.605c.877 0 1.645.769 1.645 1.647 0 .879-.768 1.648-1.645 1.648-.878 0-1.645-.77-1.645-1.648 0-.878.767-1.647 1.645-1.647Zm9.322 0c.768 0 1.426.659 1.426 1.428 0 .768-.658 1.427-1.426 1.427a1.453 1.453 0 0 1-1.426-1.427c0-.769.658-1.428 1.426-1.428Z" fill="#39C0C0" fill-rule="nonzero"/></g></svg>