<svg xmlns="http://www.w3.org/2000/svg" viewBox="0 0 90 90"><path fill="#FFF" d="M0 0h90v90H0z"/><path fill="#006899" d="M73 31.1L44.96 15 18.9 30v16.1l10.14 5.85L17 58.89 44.96 75l26.06-15V43.9l-10.14-5.85L73 31.11zM46.94 20.54L65.32 31.1l-8.24 4.73L46.94 30v-9.47zm-1.58 12.94l7.92 4.58-8.24 4.74-7.92-4.58 8.24-4.74zm-22.58-1.26l20.28-11.68v9.86L22.78 42.08V32.2zM25 45.24l8.24-4.74 7.92 4.58-8.24 4.74L25 45.24zm18.06 24.23L24.68 58.9l8.24-4.73L43.06 60v9.47zm-6.34-17.52l8.24-4.74 8.24 4.74-8.24 4.73-8.24-4.73zm30.5 5.84L46.94 69.47V60l20.28-11.68v9.47zM65.32 45l-8.24 4.74L48.84 45l8.24-4.74L65.32 45z"/></svg>