<svg xmlns="http://www.w3.org/2000/svg" viewBox="0 0 90 90"><path fill="#5A2A82" d="M0 0h90v90H0z"/><path d="M51.88 23.56c0-2.279-1.142-4-6.206-4s-6.206 1.721-6.206 4v6.195a6.722 6.722 0 0 0 2.482 5.303L59.028 49.8A9.597 9.597 0 0 1 63 57.01v9.317C63 71.878 56.46 75 45.624 75 33.722 74.938 28 72.25 28 66.29v-8.04h10.798v7.756c0 2.787 2.122 4.41 6.863 4.41 4.419 0 6.541-1.623 6.541-4.41v-8.289c0-2.044-.819-3.592-3.115-5.637l-15.85-13.8c-2.94-2.478-4.58-4.485-4.58-7.508v-7.099c0-5.798 6.058-8.672 17.004-8.672 12.126.012 17.016 2.874 17.016 8.263v7.508H51.88v-7.21Z" fill="#FFF"/></svg>