<svg xmlns="http://www.w3.org/2000/svg" viewBox="0 0 90 90"><path fill="#FFF" d="M0 0h90v90H0z"/><path fill="#B4B4B5" d="M5 47.02l2.79-.26c.17.93.51 1.62 1.02 2.06.51.45 1.2.66 2.09.66.92 0 1.62-.2 2.1-.59.47-.38.7-.85.7-1.36 0-.32-.1-.63-.3-.87-.2-.23-.54-.44-1.03-.61-.34-.13-1.1-.33-2.3-.64-1.54-.38-2.61-.85-3.23-1.4a3.76 3.76 0 01-.7-4.93 3.87 3.87 0 011.79-1.46c.77-.32 1.7-.49 2.8-.49 1.78 0 3.13.4 4.03 1.18.9.8 1.38 1.85 1.42 3.17l-2.88.1c-.13-.73-.39-1.25-.8-1.58-.4-.32-1-.48-1.8-.48-.84 0-1.5.17-1.96.52a1.09 1.09 0 00-.03 1.74c.36.32 1.24.64 2.64.96 1.4.33 2.43.68 3.1 1.03A4 4 0 0116 45.24c.38.6.57 1.37.57 2.28a4.22 4.22 0 01-2.6 3.9 8.2 8.2 0 01-3.1.52c-1.8 0-3.18-.42-4.15-1.26A5.47 5.47 0 015 47.02z"/><path fill="#B4B4B5" d="M16.22 41.31h2.9l2.46 7.36L24 41.3h2.82l-3.62 9.96-.66 1.82c-.18.48-.4.95-.68 1.38a2.86 2.86 0 01-1.78 1.25c-.46.11-.93.17-1.4.17-.52 0-1.04-.06-1.55-.17l-.22-2.16c.38.09.77.13 1.15.14.63 0 1.1-.19 1.4-.56a4 4 0 00.7-1.44l-3.93-10.39zm20.07 10.36h-2.72V46.4c0-1.11-.05-1.83-.18-2.16-.1-.3-.3-.58-.57-.76a1.66 1.66 0 00-.96-.27c-.46 0-.9.13-1.29.39-.36.24-.64.6-.78 1.02a8.71 8.71 0 00-.2 2.38v4.68h-2.72V41.3h2.52v1.52a4.17 4.17 0 013.41-1.71c.57-.01 1.14.1 1.67.32.44.17.83.46 1.13.83.26.34.44.73.54 1.15.12.6.17 1.22.15 1.84v6.41zm.02-5.29c0-.92.24-1.83.67-2.64a4.65 4.65 0 011.9-1.95c.85-.46 1.8-.69 2.76-.67a5.15 5.15 0 015.35 5.38c0 1.57-.5 2.86-1.52 3.9a5.12 5.12 0 01-3.81 1.54c-.95 0-1.88-.22-2.72-.64a4.4 4.4 0 01-1.96-1.9 6.34 6.34 0 01-.67-3.02zm2.79.15c0 1.03.24 1.82.73 2.36a2.39 2.39 0 003.62 0c.48-.54.72-1.34.72-2.37 0-1.04-.24-1.81-.72-2.35a2.4 2.4 0 00-3.62 0c-.49.53-.73 1.32-.73 2.35z"/><path fill="#251715" d="M50.34 36v13.38c0 .64.05 1.06.14 1.26.08.2.23.37.42.47.2.11.55.17 1.07.17v.4h-4.95v-.4c.47 0 .78-.05.96-.15a.98.98 0 00.4-.47c.09-.22.14-.65.14-1.28v-9.13c0-1.15-.03-1.85-.08-2.12a.9.9 0 00-.24-.54.62.62 0 00-.42-.14c-.25.01-.49.08-.7.18l-.2-.4L49.85 36h.5zm6.53 5.28a4.5 4.5 0 013.7 1.73c.77.97 1.19 2.18 1.17 3.41 0 .95-.23 1.9-.65 2.74a4.64 4.64 0 01-4.34 2.8c-1.53 0-2.74-.6-3.63-1.81a5.62 5.62 0 01-1.14-3.44c.01-.96.25-1.9.69-2.75a4.79 4.79 0 011.82-2.03 4.72 4.72 0 012.38-.65zm-.34.74c-.41 0-.82.12-1.17.35-.4.23-.71.63-.96 1.2a5.78 5.78 0 00-.36 2.23c0 1.47.3 2.72.88 3.79.58 1.07 1.35 1.59 2.3 1.59.7 0 1.36-.32 1.77-.88.46-.59.7-1.6.7-3.02 0-1.8-.4-3.19-1.16-4.22a2.39 2.39 0 00-2-1.04zm7.42 5.96a3.44 3.44 0 01-.78-5.61 4.02 4.02 0 012.9-1.09c.88-.02 1.75.22 2.49.7h2.12c.18 0 .37 0 .55.03.05.02.08.06.1.1.06.1.08.23.08.35a.97.97 0 01-.06.4.19.19 0 01-.12.08c-.18.03-.37.04-.55.03h-1.32c.42.54.62 1.21.62 2.04 0 .92-.39 1.8-1.08 2.41a4.08 4.08 0 01-2.88 1.01c-.52 0-1.04-.08-1.53-.23-.24.2-.45.45-.61.72-.1.16-.16.35-.17.53 0 .15.07.28.18.38.12.11.36.2.71.24.51.06 1.02.1 1.54.1 1.5.04 2.48.1 2.93.18.6.06 1.18.32 1.63.75.4.4.62.94.61 1.5 0 .82-.39 1.6-1.17 2.32a6.27 6.27 0 01-4.46 1.59c-1.4 0-2.6-.31-3.57-.95-.55-.37-.82-.74-.82-1.14 0-.19.04-.36.11-.53.21-.4.46-.78.76-1.12.05-.07.42-.46 1.1-1.19-.3-.16-.57-.37-.8-.62a.91.91 0 01-.24-.61c.02-.33.12-.64.3-.9a7 7 0 011.43-1.47zm-.09 3.7c-.3.3-.55.66-.76 1.04-.15.26-.24.56-.25.86 0 .36.2.67.63.93.73.45 1.8.68 3.18.68 1.32 0 2.29-.23 2.92-.7.63-.46.94-.95.94-1.47a.83.83 0 00-.56-.8 7.23 7.23 0 00-2.28-.28 38.2 38.2 0 01-3.82-.27zm2.01-9.84c-.53 0-1.03.24-1.35.65-.37.44-.55 1.08-.55 1.97 0 1.15.25 2.05.75 2.68.33.46.87.73 1.44.72.53.02 1.03-.22 1.37-.62.35-.42.53-1.07.53-1.95 0-1.16-.25-2.07-.75-2.72a1.76 1.76 0 00-1.44-.73zm5.85-.27h4.72v.4h-.23c-.26 0-.53.07-.74.22a.69.69 0 00-.25.53c0 .3.12.69.37 1.2l2.45 5.1 2.26-5.58c.12-.28.18-.6.19-.9a.5.5 0 00-.08-.3.58.58 0 00-.28-.18 1.97 1.97 0 00-.66-.08v-.4h3.27v.4c-.22.01-.44.07-.63.17-.2.14-.36.3-.49.5-.15.26-.27.55-.38.84l-4.09 10.06c-.4.98-.92 1.71-1.56 2.21-.65.5-1.27.75-1.87.75-.4.02-.78-.12-1.07-.38-.26-.2-.42-.52-.42-.85a.95.95 0 01.3-.74c.23-.2.53-.3.84-.28.34.02.68.1 1 .24.18.07.37.13.56.16.22 0 .46-.12.72-.34.27-.23.52-.67.79-1.31l.71-1.76-3.63-7.6a6.5 6.5 0 00-.98-1.37 2.76 2.76 0 00-.82-.3v-.4zm11.79-3.46c.94 0 1.7.76 1.7 1.7a1.71 1.71 0 11-1.7-1.7zm0 .2h-.14a1.51 1.51 0 10.28 0h-.14zm.1.57c.14 0 .28.01.4.06.1.04.18.1.23.19.05.09.08.2.08.3 0 .14-.05.27-.14.36a.66.66 0 01-.43.2c.06.02.11.05.16.1.09.07.16.16.22.26l.35.55h-.33l-.26-.42-.2-.27a.9.9 0 00-.13-.15.46.46 0 00-.12-.04.6.6 0 00-.14-.02H83v.9h-.28v-2.02h.89zm.1.23h-.73v.67h.57c.1 0 .2 0 .3-.04a.26.26 0 00.14-.12.32.32 0 00.05-.19.29.29 0 00-.1-.23.48.48 0 00-.24-.1z"/></svg>