<svg viewBox="0 0 90 90" xmlns="http://www.w3.org/2000/svg"><g fill="none"><path fill="#4A4441" d="M0 0h90v90H0z"/><path d="M46.896 41.265c-2.287 5.984-2.17 11.746.358 16.685.438.85.938 1.682 1.501 2.461 2.904 4.063 7.247 6.754 12.223 7.586a18.67 18.67 0 0 0 3.218.265 19.13 19.13 0 0 0 10.873-3.354c4.129-2.833 6.854-7.073 7.676-11.923.822-4.851-.358-9.737-3.315-13.756-2.949-4.001-7.318-6.657-12.304-7.489a32.845 32.845 0 0 0-.849-.124 2.502 2.502 0 0 0-1.93.602 2.419 2.419 0 0 0-.822 1.753 2.45 2.45 0 0 0 2.162 2.505c.206.027.42.053.626.089 3.681.61 6.907 2.575 9.096 5.514 2.198 2.957 3.074 6.533 2.466 10.091-.572 3.355-2.421 6.338-5.218 8.41-2.457 1.823-5.38 2.779-8.462 2.779-.42 0-.849-.018-1.269-.053a16.8 16.8 0 0 1-1.134-.142 13.848 13.848 0 0 1-8.98-5.559 13.145 13.145 0 0 1-2.315-5.665c-.616-4.019.608-9.126 3.262-13.667.018-.035.455-.814 1.161-2.071 3.155-5.657 12.688-22.732 13.51-24.245l.242-.726a2.421 2.421 0 0 0-1.153-2.903l-.054-.027A2.444 2.444 0 0 0 66.277 8a2.46 2.46 0 0 0-1.903.885l-.456.549L49.56 35.423c-.911 1.814-1.876 3.797-2.663 5.842ZM15.873 79.664l.063.035a2.54 2.54 0 0 0 1.215.301c.956 0 1.823-.513 2.278-1.345l24.876-45.71a2.541 2.541 0 0 0-.768-3.285l-.036-.026c-.357-.284-1.063-.487-1.653-.487H9.261a2.272 2.272 0 0 0-2.26 2.186v.089c-.01.416.107.832.339 1.195l6.416 10.701a2.24 2.24 0 0 0 1.912 1.036c.429 0 .857-.124 1.233-.354.536-.336.911-.832 1.054-1.416a2.166 2.166 0 0 0-.268-1.709l-4.316-7.205h24.6L14.818 76.203a2.549 2.549 0 0 0-.197 1.947 2.52 2.52 0 0 0 1.251 1.514Z" fill="#FFF"/><path d="M79.135 79.938H49.193a2.604 2.604 0 0 1-2.618-2.594v-.053c0-1.434 1.17-2.593 2.618-2.593h29.942c1.447 0 2.618 1.16 2.618 2.593v.053a2.604 2.604 0 0 1-2.618 2.594Z" fill="#F7A418"/></g></svg>