<svg viewBox="0 0 90 90" xmlns="http://www.w3.org/2000/svg"><g fill="none"><path fill="#FFF" d="M0 0h90v90H0z"/><g fill="#333"><path d="M34.12 52.641v-1.196h2.434v-4.786h2.435v-4.786h-2.435V39.48H34.12v-2.393h-7.23v4.786h-2.434v2.393h-2.435v4.786h2.435v2.393h2.434v2.393h7.305V52.64h-.076Zm-4.794-10.618h4.87v4.786h-4.87v-4.786Z"/><path d="M53.446 45.537v-3.589h4.793v4.786H53.37v-1.197h.076ZM34.12 16.075v2.393h-4.87v2.393h-2.359v2.318h-2.434v2.393h-4.87v2.393H18.37v-4.786h-3.653v2.393h-2.282v2.393H10v5.832h3.652v-3.589h3.652V32.6H14.87v2.393h-2.435v4.786h3.652v-2.392h2.435v-2.393h2.435V32.6h1.217v-1.197h2.435v-1.196h4.717v-2.393h2.435v-2.393h7.304v4.786h4.718V32.6h4.869v2.393h2.435v4.786h-2.435v2.393h-2.435v7.179h2.435v2.393h2.435v2.094h9.587v-2.393h2.435v-7.179h4.869v2.393h2.435v7.179h2.283v-2.393h2.434v-7.179H80V39.48h-2.435v-2.393h-1.217v-4.785h-2.435v4.785h-1.217v2.393H70.26v-9.272h-2.435v-2.393H65.39v-2.393h-2.434V23.03h-2.435v-2.243h-2.435v-2.393H53.37V16H34.12v.075Z"/><path d="M67.902 53.838v4.711h-2.435v2.318h-2.434v2.393h-2.359v2.318h-2.435v2.393h-2.435v2.318h4.87v-2.318h2.359v-2.393h2.434V63.26h2.435v-2.393h2.358v-7.029h-1.14zM49.793 72.682H34.12V75h16.89v-2.318zm-20.467-2.393v2.393h2.359v-2.393h-1.142zm0-2.319h-2.435v2.319h2.435v-1.122zm-7.228-2.392V63.26h-2.435v-2.393h-2.435v4.711h2.435v2.393h4.794v-2.393h-1.142zm-4.87-10.618v-3.516H14.87v4.711h2.358zm21.762 7.103v1.197h7.227v-2.393H38.99zm9.586-1.196v-2.318h-2.359v2.318h1.142z"/></g></g></svg>