<svg xmlns="http://www.w3.org/2000/svg" viewBox="0 0 90 90"><path d="M0 0h90v90H0z" fill="#E20074"/><path d="M69.18 15 70 36.463l-3.279.488c-.491-6.341-2.13-10.894-4.918-13.984-2.787-3.252-6.721-4.878-11.803-5.04v44.227c0 3.74.492 6.342 1.64 7.48.983.976 2.622 1.626 4.917 1.789.656.162 1.804.162 3.443.162V75H30v-3.415c1.64 0 2.787-.162 3.443-.162 2.295-.163 3.934-.813 4.918-1.789C39.508 68.496 40 66.057 40 62.154v-44.39c-5.082.163-9.016 1.951-11.803 5.04-2.623 3.09-4.263 7.643-4.918 13.985L20 36.3l.656-21.3H69.18ZM32.295 42.642v12.195H20V42.642h12.295Zm37.708-.004v12.195H57.708V42.638h12.295Z" fill="#FFF"/></svg>