<svg xmlns="http://www.w3.org/2000/svg" viewBox="0 0 90 90"><path fill="#FFF" d="M0 0h90v90H0z"/><path d="M15 37.596v-9.212h7.855V25.19L32.82 12h4.85v16.384h9.542v9.212H37.67v23.345c0 3.001.316 4.973.949 5.915.668.942 2.039 1.414 4.112 1.414 1.16 0 2.478-.245 3.954-.733v10.52c-3.058.629-6.027.943-8.91.943-1.722 0-3.356-.122-4.903-.366-4.534-.733-7.468-2.862-8.804-6.386-.527-1.431-.861-2.827-1.002-4.188-.14-1.36-.21-3.908-.21-7.642V37.596H15Z"/><path fill="#E40074" d="M57.005 59.825H75V77.69H57.005z"/></svg>