<svg xmlns="http://www.w3.org/2000/svg" viewBox="0 0 90 90"><path fill="#FFF" d="M0 0h90v90H0z"/><path d="M44.417 71.684c-.212-2.154-1.766-3.92-3.779-4.52 0 .035-.035.07-.035.105a4.455 4.455 0 0 1-5.828 2.402c-.07-.035-.106-.07-.177-.07a5.213 5.213 0 0 0-.706 2.648c0 2.65 1.942 4.84 4.52 5.228a6.651 6.651 0 0 1 6.005-5.793M20.33 55.225c-.035-.07-.035-.141-.07-.176a4.78 4.78 0 0 0-2.367 1.377 5.274 5.274 0 0 0-.495 6.887 6.644 6.644 0 0 1 8.336.177 5.255 5.255 0 0 0 .53-5.863l-.106.035a4.502 4.502 0 0 1-5.828-2.437m-2.013-10.808c2.154-.212 3.92-1.766 4.52-3.779l-.105-.035a4.455 4.455 0 0 1-2.402-5.828c.035-.07.07-.106.07-.177a5.213 5.213 0 0 0-2.648-.706 5.285 5.285 0 0 0-5.228 4.52 6.651 6.651 0 0 1 5.793 6.005m8.23-18.684a5.255 5.255 0 0 0 5.862.53l-.035-.07c-.954-2.261.141-4.875 2.402-5.829.07-.035.141-.035.176-.07-.211-.883-.67-1.696-1.377-2.402a5.274 5.274 0 0 0-6.887-.495c1.942 2.437 1.871 5.934-.142 8.336" fill="#A7A8AB"/><path d="M49.362 22.837c-2.049-.6-3.567-2.367-3.78-4.521a6.72 6.72 0 0 0 6.04-5.758c2.544.389 4.521 2.579 4.521 5.228 0 .954-.282 1.872-.706 2.649-.07-.035-.106-.07-.177-.07a4.174 4.174 0 0 0-1.695-.354 4.387 4.387 0 0 0-4.097 2.755l-.106.07" fill="#B6B8BB"/><path d="M69.671 34.775c.035.07.035.106.07.176a4.78 4.78 0 0 0 2.367-1.377 5.274 5.274 0 0 0 .495-6.887 6.644 6.644 0 0 1-8.336-.177 5.307 5.307 0 0 0-.53 5.898l.07-.035c2.332-.918 4.91.141 5.864 2.402m2.013 10.808c-2.154.212-3.956 1.766-4.52 3.814l.105.036a4.455 4.455 0 0 1 2.402 5.827c-.035.071-.07.106-.07.177.776.46 1.66.706 2.648.706 2.65 0 4.84-1.942 5.228-4.52a6.72 6.72 0 0 1-5.793-6.04M55.12 69.706c-.07.036-.106.036-.176.071a4.99 4.99 0 0 0 1.342 2.366c1.872 1.872 4.803 2.05 6.887.53a6.693 6.693 0 0 1 .212-8.335 5.255 5.255 0 0 0-5.863-.53l.035.106c.919 2.26-.176 4.874-2.437 5.792M37.812 61.3c.495-1.695-.318-3.567-2.013-4.238a3.508 3.508 0 0 0-4.591 1.907c-.672 1.625-.036 3.461 1.448 4.38a4.456 4.456 0 0 1 5.156-2.049m-7.84-14.27a3.508 3.508 0 0 0-4.592-1.906 3.501 3.501 0 0 0-2.049 4.097 4.468 4.468 0 0 1 5.086 2.225c1.519-.848 2.26-2.755 1.554-4.415M28.7 37.812c1.695.495 3.567-.318 4.238-2.013a3.508 3.508 0 0 0-1.907-4.591 3.495 3.495 0 0 0-4.344 1.448c1.766 1.024 2.613 3.178 2.013 5.156m9.854-9.43c.848 1.554 2.755 2.296 4.45 1.59a3.508 3.508 0 0 0 1.908-4.592 3.501 3.501 0 0 0-4.097-2.049c.494 1.978-.424 4.097-2.26 5.05m13.633.319c-.495 1.695.318 3.567 2.013 4.238a3.508 3.508 0 0 0 4.591-1.907 3.495 3.495 0 0 0-1.448-4.344 4.394 4.394 0 0 1-5.156 2.013M64.62 44.912a3.501 3.501 0 0 0 2.049-4.097 4.468 4.468 0 0 1-5.086-2.226c-1.554.848-2.296 2.755-1.59 4.45a3.574 3.574 0 0 0 4.627 1.873m-3.32 7.276c-1.695-.495-3.567.318-4.238 2.013a3.508 3.508 0 0 0 1.907 4.591 3.495 3.495 0 0 0 4.344-1.448c-1.766-1.024-2.613-3.143-2.013-5.156m-9.925 9.465c-.847-1.554-2.755-2.295-4.415-1.589-1.801.742-2.684 2.79-1.942 4.592.67 1.624 2.437 2.472 4.097 2.084a4.469 4.469 0 0 1 2.26-5.087" fill="#A7A8AB"/><path d="M45.018 85c3.673 0 6.675-3.002 6.675-6.675 0-3.674-3.002-6.676-6.675-6.676-.212 0-.389 0-.565.035.035.177.035.354.035.53 0 2.896-2.367 5.263-5.298 5.263-.247 0-.53-.035-.777-.07a6.88 6.88 0 0 0-.07.882c0 3.709 2.966 6.711 6.675 6.711M17.892 63.879a4.066 4.066 0 0 1-.495-.6c-.212.176-.459.352-.67.564a6.651 6.651 0 0 0 0 9.43 6.651 6.651 0 0 0 9.43 0 6.651 6.651 0 0 0 0-9.43c-.142-.141-.283-.282-.424-.388-.106.141-.247.282-.353.424-2.084 2.048-5.44 2.048-7.488 0m.459-18.861c0-.212 0-.389-.035-.565-.177.035-.354.035-.53.035-2.896 0-5.298-2.367-5.298-5.263 0-.247.035-.53.07-.777a6.932 6.932 0 0 0-.883-.07C8.002 38.377 5 41.38 5 45.052s3.002 6.675 6.675 6.675c3.674-.07 6.676-3.037 6.676-6.71m7.806-18.861c.141-.142.247-.283.388-.424-.141-.106-.282-.247-.424-.353-2.048-2.049-2.048-5.404 0-7.453a4.15 4.15 0 0 1 .6-.494 5.165 5.165 0 0 0-.564-.671 6.651 6.651 0 0 0-9.43 0 6.651 6.651 0 0 0 0 9.43c2.578 2.578 6.816 2.578 9.43-.035m18.86-7.806c.213 0 .39 0 .566-.035-.036-.177-.036-.354-.036-.565a5.253 5.253 0 0 1 5.263-5.263c.247 0 .53.035.777.07a6.88 6.88 0 0 0 .07-.883c.001-3.672-3-6.674-6.674-6.674-3.673 0-6.675 3.002-6.675 6.675.035 3.674 3.002 6.676 6.71 6.676m27.091 7.77c.177.177.353.389.495.6a5.05 5.05 0 0 0 .67-.564 6.651 6.651 0 0 0 0-9.43 6.651 6.651 0 0 0-9.43 0 6.651 6.651 0 0 0 0 9.43c.142.141.283.247.424.388.106-.141.247-.282.353-.424 2.084-2.048 5.44-2.048 7.488 0m6.217 12.221c-3.674 0-6.676 3.002-6.676 6.676 0 .212 0 .388.035.565.177-.036.354-.036.53-.036a5.29 5.29 0 0 1 5.298 5.298c0 .248-.035.53-.07.778.282.035.565.07.883.07A6.67 6.67 0 0 0 85 45.018a6.67 6.67 0 0 0-6.675-6.676M63.773 72.18a4.066 4.066 0 0 1-.6.494c.176.212.352.46.564.671 2.579 2.614 6.817 2.65 9.43.036a6.683 6.683 0 0 0 .036-9.43c-2.614-2.614-6.817-2.65-9.43-.036a4.233 4.233 0 0 0-.389.424c.141.106.283.247.424.353 2.013 2.12 2.013 5.44-.035 7.488m-24.618-5.23c.494 0 .988.071 1.448.212a4.443 4.443 0 0 0-2.437-5.721 1.722 1.722 0 0 0-.389-.142c-.035.106-.07.247-.106.353a3.508 3.508 0 0 1-4.592 1.908 1.903 1.903 0 0 1-.459-.248c-.106.177-.176.354-.282.53a4.414 4.414 0 0 0 2.225 5.722c.954-1.554 2.649-2.614 4.592-2.614M23.437 49.715a2.602 2.602 0 0 1-.141-.494 3.472 3.472 0 0 0-.565.176 4.415 4.415 0 0 0-2.473 5.616 5.287 5.287 0 0 1 5.086 1.378c.354.353.671.777.883 1.2 2.19-.988 3.25-3.531 2.296-5.757-.035-.14-.106-.247-.176-.353-.106.07-.212.142-.318.177-1.766.706-3.815-.141-4.592-1.943m-.388-10.56c0 .494-.071.988-.212 1.483a4.443 4.443 0 0 0 5.721-2.437c.036-.141.106-.247.142-.389-.106-.035-.247-.07-.353-.106a3.508 3.508 0 0 1-1.908-4.591c.07-.177.142-.318.248-.46-.177-.105-.354-.176-.53-.282a4.414 4.414 0 0 0-5.722 2.225 5.298 5.298 0 0 1 2.614 4.557m10.56-13.81a5.63 5.63 0 0 1-1.165.882c.953 2.226 3.532 3.25 5.792 2.331.141-.035.247-.105.353-.176-.07-.106-.106-.212-.176-.318a3.508 3.508 0 0 1 1.907-4.592c.177-.07.318-.106.495-.14a3.472 3.472 0 0 0-.177-.566c-.918-2.19-3.39-3.285-5.616-2.472.389 1.73-.035 3.673-1.413 5.05m17.236-2.295a4.97 4.97 0 0 1-1.448-.212 4.443 4.443 0 0 0 2.437 5.721c.142.036.248.106.389.142.035-.106.07-.247.106-.353a3.508 3.508 0 0 1 4.592-1.908c.176.07.317.142.459.248.106-.177.176-.354.282-.53a4.468 4.468 0 0 0-2.225-5.757c-.954 1.589-2.649 2.649-4.592 2.649m15.683 17.236c.07.176.106.318.14.494.177-.035.39-.106.566-.176 2.225-.919 3.285-3.426 2.472-5.652-1.766.46-3.708 0-5.086-1.377a5.63 5.63 0 0 1-.883-1.166c-2.225.954-3.25 3.532-2.33 5.758.035.14.105.247.176.353.106-.07.212-.142.318-.177 1.836-.706 3.885.141 4.627 1.943m.423 10.56c0-.494.071-.988.212-1.448a4.443 4.443 0 0 0-5.721 2.437c-.036.142-.106.248-.142.389.106.035.247.07.353.106 1.802.742 2.65 2.826 1.908 4.592-.07.176-.142.317-.248.459.177.106.354.176.53.282a4.414 4.414 0 0 0 5.722-2.225c-1.554-.954-2.614-2.649-2.614-4.592m-10.63 13.846c.352-.353.776-.636 1.165-.883-.954-2.19-3.532-3.25-5.758-2.331-.14.07-.247.106-.353.176.07.106.142.212.177.318a3.495 3.495 0 0 1-1.943 4.592 2.62 2.62 0 0 1-.494.141c.035.177.106.389.176.565a4.465 4.465 0 0 0 5.616 2.508c-.424-1.766.036-3.709 1.413-5.086" fill="#FCB615"/><path d="M44.453 72.25c0-.177 0-.354-.036-.53a6.72 6.72 0 0 0-6.04 5.757c.248.035.495.07.778.07 2.931-.035 5.298-2.401 5.298-5.298m-27.091-8.97c.141.211.318.423.495.6 2.048 2.048 5.403 2.048 7.452 0 .141-.142.247-.283.353-.424-2.33-2.013-5.828-2.084-8.3-.177m.389-18.825c.176 0 .353 0 .53-.036a6.72 6.72 0 0 0-5.758-6.04c-.035.248-.07.495-.07.778.035 2.931 2.401 5.298 5.298 5.298m8.37-19.109c.142.142.283.248.424.354a6.644 6.644 0 0 0 .177-8.336 4.066 4.066 0 0 0-.6.495c-2.05 2.083-2.05 5.439 0 7.487m19.425-7.593c0 .176 0 .353.036.565a6.72 6.72 0 0 0 6.04-5.758 5.776 5.776 0 0 0-.778-.07c-2.931 0-5.298 2.366-5.298 5.263m27.056 8.97a4.066 4.066 0 0 0-.495-.6c-2.048-2.048-5.404-2.048-7.452 0a3.741 3.741 0 0 0-.354.424c2.367 2.013 5.864 2.084 8.3.177m-.388 18.825c-.176 0-.353 0-.53.036a6.72 6.72 0 0 0 5.758 6.04c.035-.248.07-.495.07-.778a5.29 5.29 0 0 0-5.298-5.298M63.172 72.71c.212-.142.389-.318.6-.495a5.255 5.255 0 0 0 .036-7.452c-.141-.142-.283-.248-.424-.354-2.013 2.332-2.12 5.828-.212 8.3m-22.57-5.439c0-.035.036-.07.036-.106a4.954 4.954 0 0 0-1.448-.212c-1.943 0-3.638 1.06-4.556 2.65.07.035.106.07.176.07 2.26.954 4.839-.141 5.793-2.402m-2.897-5.616c.036-.106.071-.247.106-.353a4.394 4.394 0 0 0-5.156 2.013c.14.071.282.177.459.248 1.766.741 3.85-.106 4.591-1.908M20.258 55.05c.036.07.036.106.07.176a4.455 4.455 0 0 0 5.829 2.402l.106-.035a6.986 6.986 0 0 0-.883-1.201c-1.413-1.378-3.356-1.802-5.122-1.342m3.038-5.828c.035.176.07.318.141.494.742 1.802 2.826 2.65 4.627 1.908.106-.036.212-.106.318-.177-.954-1.837-3.073-2.755-5.086-2.225m-.565-8.618.106.035a5.02 5.02 0 0 0 .212-1.483 5.298 5.298 0 0 0-2.614-4.557c-.035.07-.07.106-.07.177-.99 2.296.105 4.91 2.366 5.828m5.616-2.897c.106.036.247.071.353.106.636-1.978-.247-4.132-2.013-5.156a1.903 1.903 0 0 0-.248.459 3.508 3.508 0 0 0 1.908 4.591m4.026-11.55.035.071a5.63 5.63 0 0 0 1.166-.883 5.288 5.288 0 0 0 1.377-5.086c-.07.036-.106.036-.176.07-2.26.955-3.356 3.568-2.402 5.829m6.004 1.907c.036.106.106.212.177.318 1.837-.954 2.755-3.073 2.225-5.086-.176.035-.318.07-.494.141-1.802.777-2.65 2.826-1.908 4.627m11.02-5.333-.035.106c.46.14.954.212 1.448.212a5.298 5.298 0 0 0 4.556-2.614c-.07-.035-.106-.07-.176-.07a4.412 4.412 0 0 0-5.793 2.366m2.897 5.616c-.036.106-.071.247-.106.353a4.394 4.394 0 0 0 5.156-2.013c-.14-.071-.282-.177-.459-.248-1.766-.741-3.85.106-4.591 1.908m17.448 6.604c-.036-.07-.036-.106-.07-.176a4.455 4.455 0 0 0-5.829-2.402l-.07.035c.247.424.53.813.883 1.166 1.377 1.413 3.32 1.837 5.086 1.377m-3.038 5.828a2.602 2.602 0 0 0-.141-.494 3.508 3.508 0 0 0-4.592-1.908 1.448 1.448 0 0 0-.318.177c.919 1.837 3.038 2.755 5.051 2.225m.565 8.618-.106-.035c-.14.46-.212.954-.212 1.448 0 1.943 1.06 3.638 2.65 4.556.035-.07.07-.106.07-.176.954-2.225-.141-4.839-2.402-5.793m-5.616 2.897c-.106-.036-.247-.071-.353-.106a4.394 4.394 0 0 0 2.013 5.156c.106-.14.177-.282.248-.459.741-1.766-.106-3.85-1.908-4.591m-6.71 17.483c.07-.035.106-.035.176-.07 2.26-.919 3.356-3.533 2.437-5.793l-.035-.106a5.63 5.63 0 0 0-1.166.883 5.224 5.224 0 0 0-1.412 5.086m-3.391-7.806c-.035-.106-.106-.212-.177-.318a4.469 4.469 0 0 0-2.26 5.087c.176-.036.318-.071.494-.142 1.802-.777 2.685-2.825 1.943-4.627" fill="#91742D"/></svg>