<svg viewBox="0 0 90 90" xmlns="http://www.w3.org/2000/svg"><g fill="none" fill-rule="evenodd"><path fill="#6CBF70" d="M0 0h90v90H0z"/><path d="M45 15c16.552 0 30 13.448 30 30S61.552 75 45 75c-16.536 0-30-13.448-30-30s13.448-30 30-30Zm0 6.547C32.061 21.547 21.547 32.06 21.547 45S32.077 68.453 45 68.453 68.453 57.923 68.453 45 57.94 21.547 45 21.547Zm17.416 22.712.031.479.062-.016v1.359l-.03.463v.247l-.032.263-.062.555-.092.587c-.14.803-.34 1.73-.664 2.702a17.266 17.266 0 0 1-1.359 3.042 18.17 18.17 0 0 1-3.628 4.477c-.525.448-1.05.896-1.637 1.282a17.959 17.959 0 0 1-3.783 1.976c-1.343.51-2.763.865-4.2 1.02l-.54.046-.139.03h-.432l-.479.031h-.494c-.386 0-.756-.03-1.127-.03l-1.05-.093a18.58 18.58 0 0 1-3.937-.942c-.293-.108-.602-.216-.896-.34l-.864-.386c-.556-.278-1.096-.54-1.575-.849a16.66 16.66 0 0 1-1.39-.91c-.216-.14-.417-.31-.617-.464a9.27 9.27 0 0 1-.572-.463 19.316 19.316 0 0 1-1.775-1.714l-.602-.695c-.17-.216-.31-.401-.417-.54l-.34-.448-1.96-2.687 2.531-2.007a3.265 3.265 0 0 1 4.617.587c.108.139.2.278.278.417l.062.108.185.34.216.401.324.525c.247.386.587.85 1.004 1.359.093.139.216.247.34.386.123.139.231.278.37.401.263.247.54.525.865.788.309.277.664.525 1.019.787l.571.37c.185.124.402.232.602.356.834.463 1.76.864 2.78 1.158l.772.2.74.155.093.03h.124l.231.032.479.046.232.03h.154l.417.032c1.142.061 2.3-.031 3.458-.263a14.337 14.337 0 0 0 3.366-1.127c.54-.247 1.05-.54 1.56-.85.494-.323.973-.648 1.42-1.018a15.708 15.708 0 0 0 2.363-2.393c.679-.85 1.235-1.73 1.667-2.579a15.58 15.58 0 0 0 1.02-2.44l.17-.555.138-.525.062-.247.046-.232.093-.448a23.53 23.53 0 0 0 .185-1.327l.046-.48Z" fill="#FFF" fill-rule="nonzero"/></g></svg>