<svg viewBox="0 0 90 90" xmlns="http://www.w3.org/2000/svg"><g fill="none" fill-rule="evenodd"><path fill="#000" d="M0 0h90v90H0z"/><circle fill="#F60018" cx="45" cy="45" r="32"/><g fill-rule="nonzero"><path d="M22.502 42v-5.5h3.133V29h6.682v7.5H40L38 42h-5.663v7.792c0 .737 0 1.465.057 2.203.096 1.178.654 1.8 1.827 1.992 1.077.182 2.164.114 3.25-.106.122 2.388.183 3.997.183 4.827-1.164.096-2.27.21-3.385.259-1.654.076-3.298.048-4.913-.374-2.25-.584-3.404-1.944-3.616-4.262a26.57 26.57 0 0 1-.096-1.953 2736.09 2736.09 0 0 1 0-10.378h-3.142Z" fill="#000"/><path d="M63.455 59h-6.274c-1.478-5.912-2.588-10.347-3.33-13.303-.04 0-.068.01-.107.01L50.424 59h-6.226a7351.386 7351.386 0 0 0-4.115-13.799c-.116-.4-.116-.753.039-1.154l2.759-7.037h1.626l3.399 14.228L51.382 37h5.325l3.64 14.257L63.95 37H70l-6.545 22Z" fill="#C0BFBF"/></g></g></svg>