<svg viewBox="0 0 90 90" xmlns="http://www.w3.org/2000/svg"><g fill="none"><path fill="#FFF" d="M0 0h90v90H0z"/><path d="M63.968 63.116c-3.52 9.667-15.21 14.431-25.912 10.508-10.844-3.923-16.618-14.992-12.956-24.66 3.52-9.667 15.21-14.43 25.912-10.508 10.703 3.924 16.477 14.992 12.956 24.66" fill="#E21F26"/><path d="M29.606 51.347c-3.239 4.623 0 11.629 2.817 14.29 2.394 2.383 7.886 5.325 12.956 4.344-6.337-2.942-15.069-8.266-15.491-18.494" fill="#000"/><path d="M56.363 58.913c-.704 1.26-2.675 1.4-4.224.56-1.55-.98-2.254-2.662-1.55-3.923.705-1.261 2.676-1.401 4.225-.56 1.69.98 2.394 2.662 1.55 3.923" fill="#FFF"/><path d="M61.292 15.618c-.14-.14-.14-.28-.281-.42 0-.14-.141-.28-.282-.14-.14-.14-.14 0-.282.14-.14.14-.281.28-.422.28-.141 0-.141 0-.282-.14 0-.14-.14-.14-.281-.14-.141 0-.282 0-.845 1.261l-3.38 4.203-.141.14c-.986 1.402-2.112 2.943-2.957 4.344-.986 1.541-1.831 3.082-2.676 4.764-.845 1.54-1.55 3.222-2.113 4.904-.281.84-.563 1.821-.704 2.662-.14.84-.281 1.821-.422 2.662-.141.42-.141.84-.141 1.26 0 .281-.14.701-.14.982a5.28 5.28 0 0 0 0 2.101c0 .56.14.98.14 1.401-1.408-.84-1.55-1.54-1.83-2.382-.142-.7-.423-1.68-1.127-1.54-.704.14-1.127.84-.986 1.54.422 1.682 1.971 3.083 4.084 3.783.282.14.563.14.986.28 1.83.42 4.084.28 5.633-.84.563-.42.704-1.261.14-1.821-.422-.56-1.83 1.12-3.38 1.4-.281 0-.422.14-.844.14-.282-1.68-.141-3.502.14-5.183.282-1.822.705-3.643 1.409-5.465.563-1.681 1.267-3.362 1.971-4.904l.845-1.68a44.44 44.44 0 0 1 4.507-6.866 35.067 35.067 0 0 1 3.239-3.223l.14-.14c.141-.14.564-.42 1.127-.98h.141v-.14c0-.561-.422-1.402-.986-2.243Z" fill="#000"/></g></svg>