<svg xmlns="http://www.w3.org/2000/svg" viewBox="0 0 90 90" fill="none" fill-rule="evenodd"><path fill="#fff" opacity="0" d="M0 0h90v90H0z"/><g fill-rule="nonzero"><path fill="#0087e2" d="M73.999 46.665c-.131-5.575-4.706-10.035-10.262-9.969-5.621.131-10.066 4.722-9.935 10.297s4.706 10.035 10.262 9.969 10.001-4.722 9.935-10.297zm-30.394 8.329c3.137-1.968 7.909.066 10.654 4.525s2.418 9.641-.719 11.609-7.909-.066-10.654-4.525c-2.745-4.525-2.353-9.707.719-11.609zM33.931 66.34c2.68-1.115 6.275 1.508 8.04 5.771 1.765 4.329 1.046 8.723-1.634 9.838s-6.275-1.443-8.04-5.771-.98-8.723 1.634-9.838zm-8.759 8.723c1.83-.721 4.575 2.033 6.144 6.165 1.503 4.132 1.242 8.001-.588 8.657-1.83.721-4.641-2.033-6.144-6.165-1.569-4.132-1.307-8.001.588-8.657zm26.08-54.632c3.53 1.049 5.229 5.968 3.791 10.953-1.438 5.05-5.556 8.264-9.086 7.214s-5.229-5.968-3.791-11.018c1.438-4.984 5.556-8.198 9.086-7.149zM38.376 8.888c2.811.787 4.053 5.05 2.811 9.51-1.242 4.525-4.445 7.542-7.255 6.755s-4.053-4.984-2.811-9.575c1.242-4.46 4.51-7.477 7.255-6.69zM28.637.034c1.961.394 2.811 4.197 1.896 8.526-.915 4.263-3.203 7.411-5.164 7.018-1.896-.394-2.811-4.197-1.896-8.526.98-4.329 3.268-7.411 5.164-7.018z"/><g fill="#959ba1"><ellipse cx="19.807" cy="45.417" rx="5.556" ry="7.936" transform="matrix(.999828 -.018569 .018569 .999828 16.160056 .375632)"/><path d="M23.996 58.536c-.719-4.001.654-7.608 3.072-8.067 2.418-.394 4.902 2.492 5.621 6.558.719 4.001-.654 7.608-3.072 8.067-2.418.394-4.968-2.558-5.621-6.558zm.458 7.936c-1.046-3.607-3.268-6.099-4.968-5.575s-2.288 3.804-1.242 7.411 3.268 6.099 4.968 5.575c1.765-.459 2.288-3.804 1.242-7.411zm7.517-34.235c-.065-3.935-2.026-7.149-4.314-7.083s-4.053 3.279-3.987 7.214 1.961 7.083 4.249 7.083c2.353-.066 4.183-3.279 4.053-7.214zm-8.236-10.559c-.065-3.542-1.634-6.362-3.464-6.296s-3.334 2.951-3.268 6.427c.065 3.542 1.634 6.362 3.464 6.296 1.896 0 3.334-2.886 3.268-6.427z"/></g></g></svg>