<svg viewBox="0 0 90 90" xmlns="http://www.w3.org/2000/svg"><g fill="none" fill-rule="evenodd"><path d="M48 0c11.046 0 20 8.954 20 20v15.314C74.728 41 79 49.5 79 59c0 17.12-13.88 31-31 31-17.12 0-31-13.88-31-31 0-9.498 4.272-17.999 10.999-23.685L28 20C28 8.954 36.954 0 48 0ZM2.036 33.535l14.998.262a2 2 0 1 1-.07 4l-14.998-.263a2 2 0 1 1 .07-4ZM48 9c-5.979 0-10.843 4.77-10.996 10.712L37 20l-.001 10.009A30.93 30.93 0 0 1 48 28c3.874 0 7.581.71 11 2.008V20c0-5.979-4.77-10.843-10.712-10.996L48 9Zm-36.97 4.425 11.32 9.841a2 2 0 0 1-2.624 3.02l-11.32-9.842a2 2 0 0 1 2.624-3.019Z" fill="#004E6B"/><path d="M48 35.5c12.979 0 23.5 10.521 23.5 23.5S60.979 82.5 48 82.5 24.5 71.979 24.5 59 35.021 35.5 48 35.5Zm-8.343 30.27a2.038 2.038 0 0 0-2.9-.298 2.118 2.118 0 0 0-.292 2.947c4.01 4.993 10.743 6.909 16.78 4.627a14.885 14.885 0 0 0 6.28-4.52 2.12 2.12 0 0 0-.269-2.95 2.038 2.038 0 0 0-2.902.273 10.762 10.762 0 0 1-4.545 3.27c-4.372 1.653-9.25.265-12.152-3.35Z" fill="#00D8E3"/></g></svg>