<svg viewBox="0 0 90 90" xmlns="http://www.w3.org/2000/svg"><path d="M45.043 0c-11.42 0-21.826 4.265-29.768 11.286C6.638 18.916.957 29.855.174 42.1A23.994 23.994 0 0 0 0 45c0 .986.058 1.944.174 2.901 1.42 11.548 11.275 20.484 23.188 20.484 10.261 0 18.957-6.615 22.116-15.783l-19.362-.233 19.13-15.638 9.044-7.398 13.45-10.938v53.762L55.622 57.65C50.58 70.56 38.058 79.67 23.363 79.67c-2.783 0-5.508-.319-8.088-.957A44.715 44.715 0 0 0 45.043 90C69.884 90 90 69.865 90 45S69.855 0 45.043 0" fill="#3CE600"/></svg>