<svg viewBox="0 0 90 90" xmlns="http://www.w3.org/2000/svg"><defs><filter x="-25.2%" y="-19.7%" width="150.4%" height="139.3%" filterUnits="objectBoundingBox" id="a"><feOffset dy="2" in="SourceAlpha" result="shadowOffsetOuter1"/><feGaussianBlur stdDeviation="2" in="shadowOffsetOuter1" result="shadowBlurOuter1"/><feColorMatrix values="0 0 0 0 0 0 0 0 0 0 0 0 0 0 0 0 0 0 0.25 0" in="shadowBlurOuter1" result="shadowMatrixOuter1"/><feMerge><feMergeNode in="shadowMatrixOuter1"/><feMergeNode in="SourceGraphic"/></feMerge></filter><filter x="-35.5%" y="-35.8%" width="171.1%" height="171.5%" filterUnits="objectBoundingBox" id="b"><feOffset dy="2" in="SourceAlpha" result="shadowOffsetOuter1"/><feGaussianBlur stdDeviation="2" in="shadowOffsetOuter1" result="shadowBlurOuter1"/><feColorMatrix values="0 0 0 0 0 0 0 0 0 0 0 0 0 0 0 0 0 0 0.25 0" in="shadowBlurOuter1" result="shadowMatrixOuter1"/><feMerge><feMergeNode in="shadowMatrixOuter1"/><feMergeNode in="SourceGraphic"/></feMerge></filter><linearGradient x1="17.372%" y1="-5.785%" x2="82.628%" y2="105.785%" id="c"><stop stop-color="#5A62C3" offset="0%"/><stop stop-color="#4D55BD" offset="50%"/><stop stop-color="#3940AB" offset="100%"/></linearGradient></defs><g fill="none"><path fill="#FFF" d="M0 0h90v90H0z"/><g filter="url(#a)" transform="translate(30.414 13)"><path d="M27.622 22.875H44.67a2.907 2.907 0 0 1 2.916 2.897v15.429c0 5.881-4.798 10.649-10.718 10.649h-.05c-5.92 0-10.72-4.766-10.72-10.648V24.39a1.52 1.52 0 0 1 1.524-1.514Z" fill="#5059C9"/><ellipse fill="#5059C9" cx="39.144" cy="12.962" rx="6.907" ry="6.862"/><ellipse fill="#7B83EB" cx="17.656" cy="9.913" rx="9.977" ry="9.913"/><path d="M30.959 22.875H2.819a2.875 2.875 0 0 0-2.814 2.933v17.597C-.217 52.893 7.338 60.768 16.889 61c9.55-.232 17.105-8.107 16.883-17.595V25.808a2.875 2.875 0 0 0-2.813-2.933Z" fill="#7B83EB"/></g><g filter="url(#b)" transform="translate(12 26.725)"><path d="M2.813 0h28.141a2.804 2.804 0 0 1 2.813 2.795v27.96a2.804 2.804 0 0 1-2.813 2.795H2.814A2.804 2.804 0 0 1 0 30.755V2.795A2.804 2.804 0 0 1 2.813 0Z" fill="url(#c)"/><path fill="#FFF" d="M24.288 10.641h-5.625v15.22h-3.584v-15.22h-5.6V7.69h14.809z"/></g></g></svg>