<svg viewBox="0 0 90 90" xmlns="http://www.w3.org/2000/svg"><g fill="none" fill-rule="evenodd"><path fill="#71C700" fill-rule="nonzero" d="M0 0h90v90H0z"/><rect fill="#FFF" x="16" y="16" width="58" height="58" rx="8"/><g fill-rule="nonzero"><ellipse cx="4.999" cy="5.023" rx="4.999" ry="5.023" transform="translate(40 39.885)" fill="#1070AD"/><ellipse cx="4.999" cy="5.023" rx="4.999" ry="5.023" transform="translate(40 54.954)" fill="#1070AD"/><ellipse cx="4.999" cy="5.023" rx="4.999" ry="5.023" transform="translate(25.002 39.885)" fill="#71C700"/><ellipse cx="4.999" cy="5.023" rx="4.999" ry="5.023" transform="translate(25.002 54.954)" fill="#71C700"/><ellipse cx="4.999" cy="5.023" rx="4.999" ry="5.023" transform="translate(54.998 39.885)" fill="#71C700"/><path d="M60.304 25H29.696c-1.297 0-2.404.461-3.32 1.382-.918.921-1.376 2.033-1.376 3.336v.365c0 1.303.459 2.415 1.375 3.336.917.921 2.024 1.382 3.321 1.382h30.608c2.593 0 4.696-2.112 4.696-4.718v-.365C65 27.112 62.897 25 60.304 25Z" fill="#1070AD"/><ellipse cx="4.999" cy="5.023" rx="4.999" ry="5.023" transform="translate(54.998 54.954)" fill="#71C700"/></g></g></svg>