<svg viewBox="0 0 90 90" xmlns="http://www.w3.org/2000/svg"><path d="M58.859 29.286c-2.823 0-5.119 2.223-5.119 4.957 0 3.89 1.488 7.446 3.941 10.177a16.024 16.024 0 0 0 3.508 2.922 18.35 18.35 0 0 0 1.95-3.733 17.881 17.881 0 0 0 .75-10.285c-.022-.105-.05-.21-.075-.315-.568-2.14-2.572-3.723-4.953-3.723h-.002ZM27.28 43.609a18.156 18.156 0 0 0 1.956 3.733 16.1 16.1 0 0 0 3.503-2.922c2.455-2.727 3.945-6.286 3.945-10.177 0-2.734-2.296-4.957-5.123-4.957-2.38 0-4.383 1.586-4.953 3.721-.021.105-.05.21-.074.315a18.124 18.124 0 0 0-.425 3.893c0 2.244.414 4.4 1.175 6.394h-.004Zm56.839-2.425L89 43.55c-3.529 6.817-10.809 11.503-19.224 11.503a22.11 22.11 0 0 1-7.061-1.153C58.257 58.28 52.065 61 45.21 61c-6.855 0-13.05-2.723-17.506-7.105a22.056 22.056 0 0 1-7.063 1.154c-8.758 0-16.293-5.076-19.641-12.355l4.995-2.15c2.5 5.427 8.12 9.221 14.646 9.221 1.19 0 2.353-.13 3.469-.37a23.109 23.109 0 0 1-3.465-12.182c0-1.695.185-3.35.531-4.944.051-.23.107-.453.164-.68C22.545 27.218 26.662 24 31.558 24c.097 0 .191.004.289.006.297.009.595.028.888.059 5.293.566 9.404 4.908 9.404 10.18 0 7.086-3.66 13.34-9.246 17.095a19.384 19.384 0 0 0 12.317 4.376c4.69 0 8.987-1.65 12.316-4.376-5.586-3.754-9.246-10.012-9.246-17.095 0-5.274 4.11-9.616 9.4-10.182.293-.03.588-.048.888-.057.098 0 .191-.006.29-.006 4.898 0 9.013 3.22 10.22 7.593.058.225.113.45.165.678.348 1.594.53 3.251.53 4.944 0 4.453-1.264 8.621-3.464 12.183 1.118.24 2.275.37 3.465.37 6.27 0 11.703-3.5 14.341-8.584h.005Z" fill="#F4215C"/></svg>