<svg xmlns="http://www.w3.org/2000/svg" viewBox="0 0 90 90"><defs><linearGradient x1="66.7%" y1="16.7%" x2="41.7%" y2="75%" id="a"><stop stop-color="#37AEE2" offset="0%"/><stop stop-color="#1E96C8" offset="100%"/></linearGradient><linearGradient x1="66%" y1="43.7%" x2="85.1%" y2="80.2%" id="b"><stop stop-color="#EFF7FC" offset="0%"/><stop stop-color="#FFF" offset="100%"/></linearGradient></defs><path fill="#FFF" d="M0 0h90v90H0z"/><g transform="translate(5 5)"><circle fill="url(#a)" cx="40" cy="40" r="40"/><path d="M32.667 58.333c-1.296 0-1.076-.489-1.523-1.723l-3.81-12.541 29.333-17.402" fill="#C8DAEA"/><path d="M32.667 58.333c1 0 1.441-.457 2-1L40 52.147l-6.653-4.011" fill="#A9C9DD"/><path d="m33.347 48.137 16.12 11.91c1.84 1.014 3.167.489 3.625-1.708l6.562-30.921c.671-2.694-1.027-3.916-2.787-3.117l-38.53 14.857c-2.63 1.055-2.614 2.523-.48 3.176l9.888 3.087 22.891-14.442c1.081-.655 2.073-.303 1.259.42" fill="url(#b)"/></g></svg>