<svg viewBox="0 0 90 90" xmlns="http://www.w3.org/2000/svg"><g fill="none"><path fill="#FFF" d="M0 0h90v90H0z"/><path d="m53.298 34.69-5.816-5.65L31.596 45l15.886 15.96 5.816-5.65L43.227 45l10.07-10.31ZM39.398 20l7.375 7.062 6.525-6.78 7.234 7.063 7.092-7.204L75 27.345l-7.234 7.344-5.957-5.932L45.922 45l15.887 16.243 5.957-5.932L75 62.655l-7.376 7.204-7.092-7.204-7.234 7.063-6.525-6.78L39.397 70 15 45l24.397-25Zm-5.958 8.898L17.695 45.141l16.028 15.96 5.39-5.367-10.212-10.169 10.638-10.876-6.1-5.79Z" fill="#0054A6"/></g></svg>