<svg xmlns="http://www.w3.org/2000/svg" viewBox="0 0 90 90"><path fill="#FB7701" d="M0 0h90v90H0z"/><path d="M47.496 46.749h-1.195a1.919 1.919 0 0 0-1.925 1.925V61.9c0 1.064.861 1.934 1.925 1.934a1.934 1.934 0 0 0 1.933-1.934v-8.683l3.252 4.588a1.702 1.702 0 0 0 2.769 0l3.252-4.588V61.9c0 1.064.861 1.934 1.933 1.934a1.92 1.92 0 0 0 1.925-1.934V48.674a1.919 1.919 0 0 0-1.925-1.925h-1.195c-.457 0-.896.22-1.16.598l-4.21 6.328-4.219-6.328a1.405 1.405 0 0 0-1.16-.598Zm29.9 0a1.932 1.932 0 0 0-1.933 1.925v8.077c0 2.54-1.433 3.84-3.788 3.832-2.356 0-3.788-1.345-3.78-3.946v-7.963a1.92 1.92 0 0 0-1.933-1.925 1.919 1.919 0 0 0-1.925 1.925v8.05c0 4.712 2.883 7.111 7.594 7.111 4.71 0 7.7-2.373 7.69-7.225v-7.936a1.919 1.919 0 0 0-1.925-1.925Zm-54.22 0H11.9a1.932 1.932 0 0 0-1.933 1.925c0 1.063.861 1.933 1.933 1.933h3.71v11.277a1.93 1.93 0 0 0 1.924 1.933 1.934 1.934 0 0 0 1.934-1.933V50.607h3.709a1.934 1.934 0 0 0 1.933-1.933 1.92 1.92 0 0 0-1.933-1.925Zm16.691 0h-10.45a1.932 1.932 0 0 0-1.934 1.925v13.21c0 1.063.862 1.933 1.934 1.933h10.45a1.92 1.92 0 0 0 1.925-1.933 1.932 1.932 0 0 0-1.925-1.934h-8.525v-2.742h7.418a1.932 1.932 0 0 0 1.933-1.925 1.934 1.934 0 0 0-1.933-1.933h-7.418v-2.743h8.525a1.92 1.92 0 0 0 1.925-1.933 1.919 1.919 0 0 0-1.925-1.925ZM21.015 26.587l-.36.009c-1.504.096-2.532.747-3.112 1.626-.677-1.011-1.942-1.723-3.85-1.618l-.044.062c-.22.352-1.045 1.925.29 3.639.273.29.94 1.107.668 2.153l-3.876 6.267a1.124 1.124 0 0 0 .308 1.511c1.002.703 3.015 1.67 6.504 1.67 3.48 0 5.493-.967 6.495-1.67l.132-.114c.378-.36.457-.94.176-1.397l-3.867-6.267.026.114-.044-.176c-.211-.94.316-1.687.606-2.021l.07-.07c1.345-1.714.51-3.279.29-3.639l-.034-.062-.378-.017Zm12.55 2.935c-1.327-2.636-3.05-3.085-3.91-2.399-.66.527-2.18 2.61-2.286 2.751-1.679 2.382-1.582 2.962.571 4.315 1.213.765 2.189-.22 2.61-.51-.201 1.258-.817 3.235-1.74 4.624-.5-.378-.87-.668-1.098-.88a.736.736 0 0 0-1.01.027.656.656 0 0 0-.194.501.71.71 0 0 0 .22.484c2.24 2.047 5.185 3.208 8.323 3.216 3.146 0 6.108-1.16 8.35-3.216a.688.688 0 0 0 .035-.985.727.727 0 0 0-1.011-.026c-.176.158-.352.307-.536.457l-.985-2.197a22.278 22.278 0 0 1-.527-1.424c.097-.238.299-.466.589-.765.21-.21.387-.422.518-.624.65-1.028.282-1.635.08-2.039-.466-.95-1.196-.642-1.723-.08-.65.686-1.283.985-2.303 1.214-.852.193-1.512.096-2.057-.246-.755-.466-1.916-2.198-1.916-2.198Zm24.373-2.68c-2.813 2.672-.115 8.481-5.23 10.951-.562.272-1.028-.624-1.784-.624-2.136.018-6.214 1.898-6.372 2.848-.132.782 1.608 1.406 6.741 1.415 4.465 0 5.906-6.794 7.47-6.803 1.565 0 .836 6.161.669 6.803h1.634c-.14-.642-.246-2.576-.237-5.309 0-2.733.492-3.34.888-5.405.343-1.793-2.312-3.349-3.78-3.876Zm16.03.22H69.39a5.638 5.638 0 0 0-5.625 5.247l-.334 4.737a3.898 3.898 0 0 0 3.876 4.166h8.736a3.895 3.895 0 0 0 3.885-4.166l-.334-4.737a5.644 5.644 0 0 0-5.625-5.247Zm-38.9 10.898c1.38 0 2.435.677 2.822 1.934-.94.246-1.881.369-2.84.36-1.44 0-1.95-.132-2.873-.378.369-1.107 1.59-1.916 2.891-1.916Zm34.533-6.97v.132c0 1.143.931 2.083 2.074 2.083a2.087 2.087 0 0 0 2.083-2.083v-.132c0-.51 1.846-.51 1.846 0v.132a3.925 3.925 0 0 1-7.85 0v-.132c0-.51 1.838-.51 1.847 0Z" fill="#FFF"/></svg>