<svg viewBox="0 0 90 90" xmlns="http://www.w3.org/2000/svg"><path d="M71.326 36.635C68.324 24.713 57.504 16 45.003 16c-12.506 0-23.323 8.715-26.328 20.635C8.757 37.36.882 45.77 1 55.999 1.124 66.589 9.9 75 20.418 75h14.004c.06 0 .18-.06.18-.182v-6.536c0-.059-.059-.18-.18-.18H20.357c-6.853 0-12.623-5.629-12.563-12.526.12-6.718 5.591-12.104 12.262-12.104h4.268c.06 0 .12-.059.18-.12l.36-2.843c1.384-10.047 10.039-17.672 20.137-17.672 10.097 0 18.754 7.566 20.135 17.672l.362 2.843c0 .061.06.12.18.12h3.967c6.852 0 12.622 5.629 12.562 12.527-.121 6.717-5.59 12.103-12.262 12.103H50.23a1.882 1.882 0 0 1-1.863-1.876V49.283h6.371c.06 0 .18-.06.18-.182v-6.416c0-.06-.06-.182-.18-.182h-6.371v-6.959c0-.121-.181-.243-.302-.121L35.323 49.099c-.12.121 0 .241.12.241h6.132v18.64c.002 3.876 3.123 7.018 6.973 7.021h21.037C80.104 75 88.879 66.588 89 55.999c.06-10.228-7.755-18.638-17.672-19.364h-.002Z" fill="#41A541"/></svg>