<svg xmlns="http://www.w3.org/2000/svg" viewBox="0 0 90 90"><path fill="#0B1F41" d="M0 0h90v90H0z"/><path d="M72.41 52.06 61.214 64.676l9.799-18.696a4.538 4.538 0 0 0 .51-1.789l1.552 4.642a3.33 3.33 0 0 1-.663 3.251v-.024ZM55.433 71.139a3.288 3.288 0 0 1-3.08 1.048l-15.515-3.056 20.083-1.033a4.403 4.403 0 0 0 1.617-.382l-3.04 3.423h-.065Zm-30.497-6.04-5.263-15.705 11.182 17.729c.237.38.532.72.873 1.008l-4.301-.813a3.288 3.288 0 0 1-2.49-2.187V65.1ZM17.602 37.94 28.8 25.34l-9.807 18.697a4.604 4.604 0 0 0-.501 1.796l-1.553-4.641a3.265 3.265 0 0 1 .663-3.252Zm16.93-19.07a3.224 3.224 0 0 1 3.113-1.04l15.564 3.04-20.124 1.04a4.62 4.62 0 0 0-1.617.382l3.04-3.422h.024ZM64.73 35.038l4.616 7.316c.529.834.572 1.889.114 2.764l-4.657 8.91V35.752c0-.24-.025-.48-.073-.715ZM25.275 55.011l-4.609-7.316a2.801 2.801 0 0 1-.113-2.772l4.657-8.934v18.274c.002.24.023.48.065.715v.033Zm37.765-.716a2.173 2.173 0 0 1-1.067 1.87l-15.895 9.21c-.665.39-1.486.39-2.15 0L28.04 56.133a2.18 2.18 0 0 1-1.075-1.87v-18.51a2.156 2.156 0 0 1 1.075-1.877l15.887-9.243a2.124 2.124 0 0 1 2.15 0l15.896 9.243a2.153 2.153 0 0 1 1.067 1.87v18.549Zm-5.368-30.459 5.506 8.73a4.433 4.433 0 0 0-.324-.21L46.96 23.104l-.226-.122 8.473-.431a2.745 2.745 0 0 1 2.466 1.284Zm-24.498-.162 9.75-.496-15.79 9.177-.072.041 3.792-7.243a2.772 2.772 0 0 1 2.296-1.48h.024Zm-.809 42.506-5.53-8.73c.105.073.21.146.324.21l15.887 9.252.226.113-8.473.44a2.77 2.77 0 0 1-2.425-1.285h-.009Zm24.49.154-9.702.496 15.766-9.17.065-.048-3.792 7.251a2.756 2.756 0 0 1-2.297 1.471h-.04Zm8.223-41.4 5.255 15.705L59.15 22.885a4.7 4.7 0 0 0-.865-1.008l4.301.813a3.313 3.313 0 0 1 2.49 2.244Zm9.661 23.297-7.988-23.874a5.078 5.078 0 0 0-3.824-3.366L37.96 16.09a5.053 5.053 0 0 0-4.737 1.626l-16.98 19.079a5.094 5.094 0 0 0-.97 4.983L23.27 65.66a5.062 5.062 0 0 0 3.816 3.365l24.967 4.877c.314.065.633.098.954.098 1.444 0 2.82-.618 3.783-1.699L73.72 53.24a5.134 5.134 0 0 0 1.02-5.008Z" fill="#FFF"/></svg>