<svg xmlns="http://www.w3.org/2000/svg" viewBox="0 0 90 90"><defs><linearGradient id="a" x1="50%" x2="50%" y1="0%" y2="100%"><stop offset="0%" stop-color="#2C3774"/><stop offset="100%" stop-color="#14172B"/></linearGradient></defs><path fill="url(#a)" d="M0 0h90v90H0z"/><path fill="#FFF" d="M59.53 63.71l-.63-.01A15.93 15.93 0 0145.53 71v-4.14c4.38 0 8.39-2.42 10.49-6.32l.66-1.24 1.39.18a11.48 11.48 0 0012.85-11.45c0-3.42-1.56-6.76-4.18-8.94l-.8-.67.06-1.06c.02-.21.02-.44.02-.66 0-6.1-4.9-11.08-10.93-11.08-2.17 0-4.26.64-6.06 1.86l-1.52 1.03-1.18-1.42a10.83 10.83 0 00-8.37-3.95 11.02 11.02 0 00-10.91 11.6l.06 1.4-1.26.58a11.65 11.65 0 00-6.77 10.6 11.56 11.56 0 0013.47 11.45l1.53-.27.67 1.43a11.97 11.97 0 0010.78 6.93V71c-5.66 0-10.9-3.07-13.77-7.96A15.67 15.67 0 0115 47.32c0-5.74 3.08-11 7.97-13.76a15.12 15.12 0 0115-14.56c3.86 0 7.52 1.5 10.3 4.15 2.1-1.1 4.43-1.67 6.82-1.67 8.24 0 14.95 6.76 15.01 15.1A15.95 15.95 0 0175 48.02a15.6 15.6 0 01-15.47 15.7zM53.29 50.3c-1.39.54-2.75.8-4.06.8a9.66 9.66 0 01-3.86-.8l-.1-.05c-.46-.2-.66-.44-.66-.96v-.7c0-.63.35-1.03.93-1.03l.13.02.03.01c1.14.46 2.32.69 3.52.69 1.2 0 2.47-.23 3.76-.7l.11-.02h.03c.58 0 .93.4.93 1.02v.7c0 .57-.19.77-.72 1l-.04.02zm-17.02-6.76l3.75-1-3.76-1c-.4-.1-.67-.41-.67-.96v-1.2c0-.52.3-.75.66-.75a1 1 0 01.36.07l6.7 2.2c.5.17.78.58.78 1.15v.98c0 .57-.28.99-.79 1.16l-6.7 2.2c-.12.03-.22.05-.32.05-.42 0-.7-.3-.7-.75V44.5c0-.57.3-.89.69-.97z"/></svg>