<svg xmlns="http://www.w3.org/2000/svg" viewBox="0 0 90 90"><path fill="#F8002D" d="M0 0h90v90H0z"/><path fill="#FFF" d="M38.82 23.84l6.18 7.6 6.18-7.6h.02c.48.02 10.85.36 21.16 5.12-2.76 4.1-8.1 6.09-8.1 6.09-.36-3.56-2.88-4.46-10.86-4.46L45 78l-8.4-47.41c-7.98 0-10.5.84-10.86 4.46 0 0-5.4-1.99-8.1-6.09a59.82 59.82 0 0121.16-5.12h.02zM45 18c8.82.06 19.08 1.5 30 5.9 0 0-.36 1.09-1.68 3.5A68.84 68.84 0 0045 21.67a68.84 68.84 0 00-28.32 5.73c-1.2-2.17-1.68-3.5-1.68-3.5A81.25 81.25 0 0145 18z"/></svg>