<svg viewBox="0 0 90 90" xmlns="http://www.w3.org/2000/svg"><g fill="none"><path fill="#FFF" d="M0 0h90v90H0z"/><path d="m32.312 73.281-4.632-4.666a2.403 2.403 0 0 1 0-3.386l4.632-4.667a2.403 2.403 0 0 1 3.412 0l4.632 4.667c.93.937.93 2.449 0 3.386l-4.632 4.666a2.403 2.403 0 0 1-3.412 0Zm10.982-11.064-4.632-4.667a2.403 2.403 0 0 1 0-3.386l4.632-4.667a2.403 2.403 0 0 1 3.412 0l4.632 4.667c.93.937.93 2.45 0 3.386l-4.632 4.667a2.403 2.403 0 0 1-3.412 0Zm10.982-11.065-4.632-4.667a2.403 2.403 0 0 1 0-3.385l4.632-4.667a2.403 2.403 0 0 1 3.412 0L62.32 43.1c.93.937.93 2.448 0 3.385l-4.632 4.667a2.403 2.403 0 0 1-3.412 0Zm-21.758.208-4.632-4.667a2.403 2.403 0 0 1 0-3.386l4.632-4.667a2.403 2.403 0 0 1 3.412 0l4.632 4.667c.93.937.93 2.449 0 3.386L35.93 51.36a2.403 2.403 0 0 1-3.412 0ZM43.5 40.295l-4.632-4.667a2.403 2.403 0 0 1 0-3.386l4.632-4.666a2.403 2.403 0 0 1 3.412 0l4.632 4.666c.93.937.93 2.45 0 3.386l-4.632 4.667a2.403 2.403 0 0 1-3.412 0ZM32.724 29.438l-4.632-4.667a2.403 2.403 0 0 1 0-3.386l4.632-4.666a2.403 2.403 0 0 1 3.411 0l4.632 4.666c.93.937.93 2.45 0 3.386l-4.632 4.667a2.403 2.403 0 0 1-3.41 0Z" fill="#65C179"/></g></svg>