<svg viewBox="0 0 90 90" xmlns="http://www.w3.org/2000/svg"><path d="M19.601 8H71.44c1.237 0 2.38.659 2.997 1.727l15.102 26.165a3.438 3.438 0 0 1-.566 4.17L47.402 81.004a3.465 3.465 0 0 1-4.86 0L1.027 40.117a3.438 3.438 0 0 1-.516-4.254l16.143-26.22A3.46 3.46 0 0 1 19.601 8Zm45.146 11.681v7.342H49.98v5.09c10.371.544 18.152 2.778 18.21 5.455v5.583c-.058 2.677-7.839 4.911-18.21 5.455v12.491h-9.806v-12.49c-10.371-.545-18.152-2.779-18.21-5.456v-5.583c.058-2.677 7.839-4.911 18.21-5.455v-5.09H25.407V19.68h39.34Zm-19.67 25.09c11.068 0 20.319-1.889 22.583-4.411-1.92-2.14-8.864-3.823-17.68-4.286v5.33a94.753 94.753 0 0 1-9.806-.001v-5.329c-8.816.463-15.76 2.146-17.68 4.286 2.264 2.522 11.515 4.411 22.583 4.411Z" fill="#009393" fill-rule="evenodd"/></svg>