<svg viewBox="0 0 90 90" xmlns="http://www.w3.org/2000/svg"><g fill="none"><path d="M36.497.849C40.327.152 44.233-.183 48.122.1c2.944.255 5.888.654 8.743 1.44 6.104 1.676 11.867 4.64 16.743 8.695A44.834 44.834 0 0 1 85.193 24.75c3.374 6.64 4.933 14.134 4.799 21.568-.223 7.206-2.17 14.364-5.716 20.64A45.751 45.751 0 0 1 73.223 80.05a44.776 44.776 0 0 1-18.513 8.871c-7.641 1.687-15.735 1.346-23.18-1.08-4.499-1.413-8.73-3.622-12.56-6.37C12.643 84.307 6.316 87.142 0 90c2.575-6.779 5.14-13.56 7.71-20.34C1.935 60.984-.518 50.226.613 39.88A44.69 44.69 0 0 1 8.722 18.8C15.27 9.579 25.41 2.993 36.497.849" fill="#006CA7"/><path d="M56.422 34.056c3.802-2.959 7.869-5.694 12.428-7.32 1.158 3.153 2.332 6.298 3.518 9.44-1.27.592-2.594 1.08-3.792 1.815-4.065 2.227-7.682 5.2-10.988 8.438-4.313 4.213-8.208 8.844-11.736 13.734-2.926 3.846-5.392 8.01-7.905 12.13a7335.093 7335.093 0 0 0-18.162-17.57c2.364-2.4 4.658-4.868 7.023-7.267 2.178 2.049 4.282 4.175 6.458 6.227.95.924 1.911 1.835 2.83 2.792.667-1.124 1.525-2.127 2.255-3.211 2.242-2.933 4.508-5.85 6.965-8.607 3.408-3.825 7.098-7.411 11.106-10.6Z" fill="#FFF"/></g></svg>