<svg viewBox="0 0 90 90" xmlns="http://www.w3.org/2000/svg" xmlns:xlink="http://www.w3.org/1999/xlink"><defs><path id="a" d="M0 0h90v90H0z"/></defs><g fill="none" fill-rule="evenodd"><mask id="b" fill="#fff"><use xlink:href="#a"/></mask><use fill="#0084FF" fill-rule="nonzero" xlink:href="#a"/><g fill="#FFF" fill-rule="nonzero" mask="url(#b)"><path d="M14.347 47.311V35.02H10v-1.035h9.85v1.035h-4.347v12.291zm13.473 0v-6.578c0-1.853-.94-2.378-2.328-2.378-1.233 0-2.512.772-3.13 1.652v7.289H21.33V33.97h1.033v5.142c.694-.834 2.081-1.699 3.468-1.699 1.958 0 3.037.927 3.037 3.104v6.794H27.82Zm2.836-4.833c0-2.795 1.958-5.05 4.625-5.05 2.929 0 4.547 2.317 4.547 5.112v.278h-8.062c.093 2.1 1.495 3.845 3.777 3.845 1.218 0 2.328-.464 3.16-1.344l.54.68c-.956 1.003-2.174 1.56-3.777 1.56-2.806-.016-4.81-2.116-4.81-5.08Zm4.61-4.169c-2.282 0-3.407 1.992-3.5 3.675h6.999c0-1.637-1.08-3.675-3.5-3.675ZM10.617 63.524V50.2h6.998c2.528 0 3.838 1.621 3.838 3.397 0 1.652-1.032 2.795-2.296 3.057 1.433.216 2.558 1.606 2.558 3.258 0 2.023-1.31 3.613-3.869 3.613h-7.23Zm7.938-9.434c0-.819-.6-1.405-1.557-1.405h-3.545v2.794h3.545c.956.016 1.557-.525 1.557-1.39Zm.262 5.42c0-.834-.6-1.514-1.695-1.514h-3.669v3.042h3.669c1.063-.015 1.695-.571 1.695-1.528Zm3.653-.819c0-2.733 1.912-5.049 5.088-5.049 3.19 0 5.102 2.316 5.102 5.05 0 2.732-1.911 5.08-5.102 5.08-3.176 0-5.087-2.348-5.087-5.08Zm7.554 0c0-1.498-.878-2.795-2.482-2.795-1.572 0-2.45 1.297-2.45 2.795 0 1.513.878 2.826 2.45 2.826 1.619-.015 2.482-1.313 2.482-2.826Zm4.332 2.425v-5.019h-1.603v-2.223h1.603v-2.64h2.528v2.64h1.958v2.223h-1.958v4.34c0 .617.324 1.08.879 1.08.385 0 .74-.139.878-.293l.54 1.945c-.386.34-1.064.618-2.112.618-1.788-.016-2.713-.942-2.713-2.671ZM10.617 79.738V66.412h6.227c2.898 0 4.47 1.96 4.47 4.292 0 2.317-1.602 4.278-4.47 4.278h-3.391v4.756h-2.836Zm7.8-9.034c0-1.111-.864-1.79-1.973-1.79h-2.991v3.582h2.99c1.126 0 1.974-.68 1.974-1.792Zm3.683 9.034V66.412h2.529v13.326zm10.036 0v-1.02c-.663.803-1.788 1.267-3.052 1.267-1.542 0-3.33-1.035-3.33-3.197 0-2.285 1.788-3.119 3.33-3.119 1.295 0 2.42.417 3.052 1.174v-1.22c0-.973-.832-1.622-2.112-1.622-1.017 0-1.973.402-2.774 1.143l-1.002-1.776c1.171-1.065 2.697-1.513 4.208-1.513 2.22 0 4.224.88 4.224 3.66v6.238h-2.544v-.015Zm0-2.317v-1.204c-.416-.556-1.218-.865-2.035-.865-1.002 0-1.819.54-1.819 1.452 0 .926.817 1.436 1.82 1.436.816.03 1.618-.247 2.034-.819Zm4.733-.092V72.31H35.28v-2.223h1.603v-2.64h2.528v2.64h1.958v2.223h-1.958v4.34c0 .617.324 1.08.879 1.08.385 0 .74-.139.878-.293l.54 1.945c-.386.34-1.064.618-2.112.618-1.788-.015-2.728-.942-2.728-2.671Zm6.397 2.409v-7.443h-1.603V70.07h1.603v-.401c0-2.177 1.295-3.474 3.237-3.474.94 0 1.942.262 2.513.926l-.956 1.544c-.262-.247-.601-.386-1.064-.386-.724 0-1.202.463-1.202 1.405v.402h1.958v2.223h-1.958v7.443h-2.528v-.015Zm4.578-4.834c0-2.733 1.912-5.049 5.087-5.049 3.191 0 5.102 2.316 5.102 5.05 0 2.733-1.911 5.08-5.102 5.08-3.175 0-5.087-2.332-5.087-5.08Zm7.553 0c0-1.497-.878-2.794-2.481-2.794-1.573 0-2.451 1.297-2.451 2.794 0 1.514.878 2.826 2.45 2.826 1.604 0 2.482-1.297 2.482-2.826Zm3.777 4.834v-9.651h2.528v1.297c.694-.834 1.88-1.544 3.068-1.544v2.486a2.877 2.877 0 0 0-.694-.062c-.832 0-1.958.479-2.374 1.096v6.378h-2.528Zm18.252 0v-6.1c0-.895-.401-1.544-1.434-1.544-.894 0-1.634.602-1.988 1.112v6.516h-2.56v-6.1c0-.895-.4-1.543-1.433-1.543-.879 0-1.619.602-1.989 1.111v6.517h-2.528v-9.651h2.528v1.235c.417-.556 1.68-1.482 3.16-1.482 1.419 0 2.328.664 2.667 1.745.555-.865 1.835-1.745 3.315-1.745 1.772 0 2.836.942 2.836 2.918v6.98h-2.574v.03ZM70.874 66.18a1.546 1.546 0 0 1-1.34-.772c-.432-.726-.17-1.668.57-2.1.709-.417 1.695-.139 2.096.571.216.356.262.773.154 1.159a1.518 1.518 0 0 1-.709.941c-.247.14-.509.201-.77.201Zm5.041-3.165c-.416 0-.817-.186-1.11-.494a1.54 1.54 0 0 1 .062-2.178 6.53 6.53 0 0 0 2.004-4.725l.015-.957c0-.85.694-1.544 1.542-1.544.847 0 1.541.695 1.541 1.544v.957a9.632 9.632 0 0 1-2.99 6.964 1.53 1.53 0 0 1-1.064.433Zm2.528-12.816a1.55 1.55 0 0 1-1.557-1.544c0-.85.694-1.545 1.557-1.545.848 0 1.542.695 1.542 1.545 0 .849-.694 1.544-1.542 1.544Zm0-6.007a1.55 1.55 0 0 1-1.557-1.544v-7.504a1.54 1.54 0 0 1 1.557-1.545c.848 0 1.542.68 1.542 1.545v7.488a1.55 1.55 0 0 1-1.542 1.56Zm-57.73-12.986a1.537 1.537 0 0 1-1.541-1.544v-.278c0-2.61 1.079-3.011 2.96-4.802.6-.572 1.603-.556 2.173.046a1.56 1.56 0 0 1-.046 2.193c-1.28 1.22-2.004.772-2.004 2.563v.278c0 .85-.694 1.544-1.542 1.544Zm57.376-.479c-.679 0-1.28-.432-1.48-1.096l-.031-.093h.015a1.46 1.46 0 0 1 .139-1.08c.185-.371.509-.634.91-.757.786-.232 1.68.247 1.911 1.034.262.803-.2 1.684-1.017 1.93a1.423 1.423 0 0 1-.447.062Zm-3.638-4.601c-.278 0-.54-.077-.787-.216l-.015-.016-6.49-3.752a1.54 1.54 0 0 1-.724-.942 1.566 1.566 0 0 1 .154-1.173c.416-.71 1.387-.973 2.112-.556l6.49 3.752c.015.015.03.015.046.03.339.202.6.541.709.943.092.401.046.803-.17 1.158a1.54 1.54 0 0 1-1.325.772Zm-46.184-2.07a1.546 1.546 0 0 1-1.341-.771 1.53 1.53 0 0 1 .57-2.1c.71-.417 1.696-.155 2.097.556.2.37.262.772.154 1.173a1.488 1.488 0 0 1-.725.942c-.231.139-.493.2-.755.2Zm5.18-2.995c-.54 0-1.049-.309-1.326-.787a1.46 1.46 0 0 1-.154-1.158 1.51 1.51 0 0 1 .709-.942l6.49-3.752c.708-.417 1.695-.155 2.111.555.2.356.262.772.154 1.174-.108.401-.37.726-.724.942l-6.49 3.752a1.487 1.487 0 0 1-.77.216Zm29.288-1.714c-.277 0-.54-.061-.77-.2a1.54 1.54 0 0 1-.725-.942 1.557 1.557 0 0 1 .154-1.174c.416-.71 1.403-.973 2.112-.556.354.201.616.54.709.927a1.49 1.49 0 0 1-.154 1.173 1.503 1.503 0 0 1-1.326.772Zm-5.195-3.01c-.262 0-.54-.063-.77-.201l-3.962-2.286a6.403 6.403 0 0 0-2.205-.787 1.553 1.553 0 0 1-1.28-1.776 1.548 1.548 0 0 1 1.774-1.266 9.745 9.745 0 0 1 3.268 1.158l3.961 2.285c.74.417.987 1.374.57 2.1a1.572 1.572 0 0 1-1.356.772Zm-12.424-2.039a1.546 1.546 0 0 1-1.342-.772 1.63 1.63 0 0 1-.154-1.174 1.51 1.51 0 0 1 .725-.926c.709-.417 1.696-.154 2.112.556.416.741.17 1.683-.57 2.115-.216.14-.494.201-.771.201Z"/></g></g></svg>