<svg viewBox="0 0 90 90" xmlns="http://www.w3.org/2000/svg"><g fill="none"><path fill="#BAF0E0" d="M0 0h90v90H0z"/><path d="M73.691 31.55s-2.573-3.58-5.149-7.046c-3.247.818-6.748 2.668-9.738 4.903-2.792 2.087-5.33 4.557-8.018 7.17-2.001 1.948-4.052 3.936-6.234 5.776 5.129 1.987 9.756 6.798 12.97 11.774a53.454 53.454 0 0 1 1.91 3.243c6.067-8.146 12.62-16.93 14.26-18.91 2.944-3.559 0-6.91 0-6.91Zm-28.344 2.477a2.884 2.884 0 0 1-.152-.334c-1.774-4.86-9.73-6.52-16.834-6.006-3.467.25-6.924.96-10.584 1.712l-.171.035c-.759 1.007-1.419 1.942-1.896 2.717-1.907 3.097.631 6.31.631 6.31s2.27 3.132 5.422 7.487c5.622-.248 11.345-2.158 16.349-5.697 2.537-1.794 4.86-3.935 7.235-6.224ZM27.962 22.063c8.217-.595 17.847 1.234 21.635 7.87 1.869-1.768 3.802-3.505 5.875-5.055 2.815-2.104 6.08-3.975 9.418-5.16a3.55 3.55 0 0 0-.034-.044c-2.463-3.065-7.285-2.656-7.285-2.656l-26.444.186c-3.618.025-4.72 1.705-4.72 1.705s-1.424 1.584-3.27 3.736a55.963 55.963 0 0 1 4.825-.582Zm24.872 35.141c-3.884-6.015-10.001-11.408-14.917-9.898a2.748 2.748 0 0 1-.756.11 36.292 36.292 0 0 1-11.589 3.796c6.722 9.291 14.717 20.358 15.104 20.965.36.564 4.57 3.984 7.905-.313 1.09-1.404 3.841-5.086 7.147-9.522-.904-1.785-1.84-3.507-2.894-5.138Z" fill="#144C8B"/></g></svg>