<svg viewBox="0 0 90 90" xmlns="http://www.w3.org/2000/svg"><g fill="none" fill-rule="evenodd"><g stroke-width=".5"><path d="M45 .25c12.36 0 23.547 5.008 31.645 13.105C84.742 21.453 89.75 32.641 89.75 45c0 12.36-5.008 23.547-13.105 31.645C68.547 84.742 57.359 89.75 45 89.75c-12.36 0-23.547-5.008-31.645-13.105C5.258 68.547.25 57.359.25 45c0-12.36 5.008-23.547 13.105-31.645C21.453 5.258 32.641.25 45 .25Z" stroke="#2B292A" fill="#F1F3F4"/><path d="M45 4.57c11.075 0 21.102 4.49 28.36 11.748 7.258 7.258 11.747 17.284 11.747 28.36 0 11.075-4.49 21.102-11.747 28.36C66.102 80.296 56.075 84.785 45 84.785s-21.102-4.49-28.36-11.747C9.382 65.78 4.893 55.753 4.893 44.678c0-11.076 4.49-21.102 11.747-28.36C23.898 9.06 33.925 4.57 45 4.57Z" stroke="#7F8080" fill="#FEFEFE"/></g><g fill="#768B1F" fill-rule="nonzero"><path d="M51.432 60.935c-.962 7.547-8.068 8.796-11.395 13.925 5.692-1.491 13.52-1.854 18.24-1.149.14 2.076-1.393 2.449-1.152 4.635-9.812.323-21.388 5.623-23.903-4.635 1.092-6.226 8.308-6.267 10.252-11.617-5.442-1.199-13.44 6.55-14.813-1.169 4.49-4.755 19.404-7.184 22.771 0v.01Zm10.774-11.073c7.617-.252 10.684-11.587 9.12-17.975-5.08 6.267-21.157-1.511-14.802-15.376 7.807-.262 3.758 7.104 5.682 11.527 5.472.191 4.39-7.013 7.978-8.967 21.307 12.05-6.434 57.038-18.22 28.202 4.229-4.101 4.269 4.705 10.242 2.579v.01Z"/><path d="M64.962 56.31c-13.53.786-22.4-3.183-29.285-9.209-6.996 4.333-6.965 15.9-11.285 22.993-14.051-1.985-6.545-17.834-2.255-25.28.45-8.856-10.423-6.156-9.01-16.06 5.632-.363 10.924-.424 11.255 4.594 9.511-2.63 6.414-17.975 18.03-18.348 1.022 2.015 1.995 4.08 4.52 4.584-.531 8.635-8.479 9.713-9.02 18.328 6.394 6.56 17.289 8.474 27.04 11.527v6.882l.01-.01Z"/></g></g></svg>