<svg viewBox="0 0 90 90" xmlns="http://www.w3.org/2000/svg"><path d="M83.354 53.69a4.145 4.145 0 0 0-4.125 4.157c0 2.299 1.847 4.16 4.125 4.16 2.28 0 4.122-1.861 4.122-4.16 0-2.295-1.843-4.157-4.122-4.157ZM78.12 64.483a3.502 3.502 0 0 0-2.478 1.039 3.52 3.52 0 0 0-1.018 2.49c0 1.946 1.563 3.526 3.492 3.526a3.502 3.502 0 0 0 2.479-1.036 3.52 3.52 0 0 0 1.02-2.49 3.52 3.52 0 0 0-1.017-2.49 3.502 3.502 0 0 0-2.478-1.039Zm-7.772 8.46a3.039 3.039 0 0 0-3.024 3.048c0 1.686 1.353 3.05 3.024 3.05 1.67 0 3.024-1.364 3.024-3.05a3.039 3.039 0 0 0-3.024-3.049Zm-8.723 5.69a2.46 2.46 0 0 0-1.74.728 2.471 2.471 0 0 0-.715 1.748 2.464 2.464 0 0 0 2.455 2.475 2.46 2.46 0 0 0 1.739-.728c.46-.464.718-1.093.716-1.747a2.471 2.471 0 0 0-.716-1.748 2.46 2.46 0 0 0-1.74-.728Zm-8.579 3.01a2.11 2.11 0 0 0-1.492.625 2.121 2.121 0 0 0-.614 1.5c0 1.173.943 2.126 2.106 2.126a2.11 2.11 0 0 0 1.496-.626c.396-.4.616-.94.614-1.503a2.12 2.12 0 0 0-2.11-2.122Zm-8.035 1.194a1.824 1.824 0 0 0-1.815 1.83c0 1.01.814 1.833 1.815 1.833a1.82 1.82 0 0 0 1.286-.54c.34-.344.53-.809.528-1.293a1.824 1.824 0 0 0-1.814-1.83Zm-8.05-1.19a2.12 2.12 0 0 0-2.106 2.121c0 1.177.943 2.13 2.106 2.13a2.114 2.114 0 0 0 1.495-.627c.396-.4.617-.94.615-1.503a2.12 2.12 0 0 0-2.11-2.125v.003Zm-8.579-3.018a2.452 2.452 0 0 0-1.734.726 2.464 2.464 0 0 0-.714 1.743 2.459 2.459 0 0 0 2.448 2.468 2.459 2.459 0 0 0 2.448-2.468 2.464 2.464 0 0 0-.714-1.743 2.452 2.452 0 0 0-1.734-.726Zm-8.726-5.68c-1.667 0-3.02 1.364-3.02 3.046 0 1.682 1.353 3.05 3.024 3.05 1.666 0 3.02-1.365 3.02-3.05a3.033 3.033 0 0 0-3.024-3.046Zm-7.765-8.462a3.506 3.506 0 0 0-2.479 1.038 3.523 3.523 0 0 0-1.02 2.491c0 1.949 1.566 3.533 3.499 3.533a3.506 3.506 0 0 0 2.48-1.04 3.523 3.523 0 0 0 1.019-2.493 3.523 3.523 0 0 0-1.02-2.49 3.506 3.506 0 0 0-2.48-1.039ZM6.656 53.683c-2.275 0-4.118 1.858-4.118 4.153 0 2.295 1.843 4.157 4.118 4.157 2.28 0 4.122-1.862 4.122-4.157s-1.843-4.153-4.122-4.153Zm-1.89-13.486C2.135 40.2 0 42.35 0 45.007c0 2.656 2.135 4.807 4.766 4.807 2.632 0 4.767-2.15 4.767-4.807 0-2.656-2.135-4.81-4.767-4.81Zm1.89-12.18c-2.275 0-4.118 1.863-4.118 4.154 0 2.295 1.843 4.154 4.118 4.154 2.276 0 4.119-1.859 4.119-4.15 0-2.295-1.843-4.158-4.119-4.158Zm5.231-9.559c-1.933 0-3.503 1.584-3.503 3.537 0 1.952 1.57 3.529 3.503 3.529s3.503-1.58 3.503-3.533c0-1.952-1.57-3.533-3.503-3.533Zm7.773-7.499a3.028 3.028 0 0 0-2.143.897 3.042 3.042 0 0 0-.881 2.153c0 1.685 1.353 3.049 3.024 3.049 1.67 0 3.024-1.364 3.024-3.05a3.042 3.042 0 0 0-.882-2.152 3.028 3.028 0 0 0-2.142-.897Zm8.726-4.522a2.452 2.452 0 0 0-1.734.726 2.464 2.464 0 0 0-.714 1.743 2.459 2.459 0 0 0 2.448 2.468c1.35 0 2.448-1.108 2.448-2.468a2.464 2.464 0 0 0-.714-1.743 2.452 2.452 0 0 0-1.734-.726Zm8.572-2.33a2.12 2.12 0 0 0-2.11 2.128 2.12 2.12 0 0 0 2.11 2.13 2.12 2.12 0 0 0 2.11-2.13 2.119 2.119 0 0 0-2.11-2.129Zm8.035-.607a1.82 1.82 0 0 0-1.811 1.826c0 1.01.81 1.83 1.81 1.83a1.816 1.816 0 0 0 1.284-.54c.34-.342.53-.807.528-1.29A1.82 1.82 0 0 0 44.993 3.5Zm8.064.613a2.11 2.11 0 0 0-1.496.626c-.396.4-.617.94-.614 1.504 0 1.169.943 2.122 2.106 2.122a2.11 2.11 0 0 0 1.492-.626 2.12 2.12 0 0 0 .614-1.5 2.116 2.116 0 0 0-2.106-2.122l.004-.004Zm8.568 2.324a2.449 2.449 0 0 0-1.735.725 2.46 2.46 0 0 0-.713 1.744 2.458 2.458 0 0 0 2.448 2.465 2.458 2.458 0 0 0 2.448-2.465 2.46 2.46 0 0 0-.713-1.744 2.449 2.449 0 0 0-1.735-.725Zm8.715 4.533a3.024 3.024 0 0 0-2.14.895 3.039 3.039 0 0 0-.88 2.15c0 1.682 1.354 3.046 3.02 3.046 1.667 0 3.02-1.364 3.02-3.045a3.039 3.039 0 0 0-.88-2.15 3.024 3.024 0 0 0-2.14-.896Zm7.773 7.492a3.522 3.522 0 0 0-3.503 3.536c0 1.949 1.566 3.533 3.503 3.533a3.513 3.513 0 0 0 2.484-1.04 3.53 3.53 0 0 0 1.022-2.496c0-1.95-1.57-3.537-3.506-3.537v.004Zm5.238 9.545c-2.275 0-4.119 1.858-4.119 4.15 0 2.295 1.844 4.157 4.119 4.157 2.275 0 4.118-1.862 4.118-4.154 0-2.295-1.843-4.153-4.118-4.153ZM64.454 51.355a1.86 1.86 0 0 0-1.85 1.866c0 1.032.828 1.865 1.85 1.865a1.86 1.86 0 0 0 1.854-1.865 1.864 1.864 0 0 0-.541-1.318 1.855 1.855 0 0 0-1.313-.548Zm-4.618 6.914a1.86 1.86 0 0 0-1.85 1.866 1.86 1.86 0 0 0 1.85 1.87 1.864 1.864 0 0 0 1.85-1.87 1.86 1.86 0 0 0-1.85-1.866Zm-6.851 4.442a2.014 2.014 0 0 0-1.424.597c-.376.38-.587.896-.585 1.432 0 1.118.9 2.02 2.009 2.02a2.018 2.018 0 0 0 2.012-2.02 2.023 2.023 0 0 0-.586-1.433 2.014 2.014 0 0 0-1.426-.596Zm-8.1 1.21c-.72.001-1.41.29-1.917.801a2.724 2.724 0 0 0-.79 1.927c0 1.504 1.213 2.728 2.707 2.728a2.718 2.718 0 0 0 2.7-2.728 2.72 2.72 0 0 0-.787-1.925 2.708 2.708 0 0 0-1.913-.804Zm-8.079-1.632c-.817.002-1.6.33-2.175.91a3.09 3.09 0 0 0-.895 2.187c0 1.71 1.375 3.096 3.07 3.096.817-.002 1.6-.33 2.176-.91a3.09 3.09 0 0 0 .895-2.186 3.09 3.09 0 0 0-.895-2.187 3.074 3.074 0 0 0-2.176-.91Zm-7.333-5.214a3.424 3.424 0 0 0-3.405 3.439 3.424 3.424 0 0 0 3.405 3.432 3.42 3.42 0 0 0 3.406-3.432 3.424 3.424 0 0 0-3.406-3.44Zm-4.835-6.98a2.862 2.862 0 0 0-2.025.848 2.876 2.876 0 0 0-.833 2.036c0 1.591 1.282 2.883 2.858 2.883a2.862 2.862 0 0 0 2.026-.848c.536-.54.836-1.273.833-2.035a2.873 2.873 0 0 0-2.859-2.884Zm-1.13-7.668a2.224 2.224 0 0 0-2.214 2.23c0 1.234.99 2.234 2.214 2.234s2.21-1 2.21-2.234a2.224 2.224 0 0 0-2.21-2.23Zm1.944-7.499a1.867 1.867 0 0 0-1.854 1.873c0 1.036.828 1.873 1.858 1.873a1.868 1.868 0 0 0 1.854-1.873 1.864 1.864 0 0 0-1.854-1.876l-.004.003Zm4.63-6.853c-1.023 0-1.85.837-1.85 1.866 0 1.028.827 1.866 1.85 1.866a1.854 1.854 0 0 0 1.846-1.866 1.856 1.856 0 0 0-1.846-1.866Zm6.84-4.792a2.018 2.018 0 0 0-2.01 2.024c0 1.119.9 2.028 2.01 2.028a2.014 2.014 0 0 0 1.423-.597 2.02 2.02 0 0 0 .585-1.43 2.018 2.018 0 0 0-2.008-2.025Zm8.1-2.62a2.69 2.69 0 0 0-1.906.796 2.703 2.703 0 0 0-.784 1.914c0 1.498 1.203 2.71 2.686 2.71a2.69 2.69 0 0 0 1.904-.794 2.703 2.703 0 0 0 .785-1.912 2.703 2.703 0 0 0-.782-1.917 2.69 2.69 0 0 0-1.907-.797h.004Zm8.1.902c-1.692 0-3.06 1.382-3.06 3.086 0 1.703 1.368 3.085 3.06 3.085s3.06-1.382 3.06-3.085a3.075 3.075 0 0 0-3.06-3.086Zm7.297 4.522A3.42 3.42 0 0 0 58 27.1a3.436 3.436 0 0 0-.995 2.43c0 1.901 1.526 3.442 3.413 3.442a3.42 3.42 0 0 0 2.417-1.013 3.44 3.44 0 0 0 .996-2.43 3.436 3.436 0 0 0-.996-2.43 3.42 3.42 0 0 0-2.417-1.012Zm4.835 8.083a2.862 2.862 0 0 0-2.024.85 2.876 2.876 0 0 0-.831 2.034c0 1.587 1.281 2.88 2.855 2.88a2.862 2.862 0 0 0 2.024-.847c.536-.54.836-1.272.834-2.033a2.873 2.873 0 0 0-.833-2.035 2.859 2.859 0 0 0-2.025-.845v-.004ZM57.82 46.822c-.94 0-1.707.769-1.707 1.722 0 .952.767 1.721 1.707 1.721a1.72 1.72 0 0 0 1.717-1.721 1.72 1.72 0 0 0-1.717-1.722Zm-3.312 5.32a2.542 2.542 0 0 0-1.802.752 2.555 2.555 0 0 0-.74 1.81 2.552 2.552 0 0 0 2.542 2.562c1.404 0 2.538-1.148 2.538-2.562a2.555 2.555 0 0 0-.74-1.809 2.542 2.542 0 0 0-1.798-.753Zm-6.53 3.486a2.66 2.66 0 0 0-1.884.788 2.674 2.674 0 0 0-.774 1.893c0 1.48 1.188 2.681 2.657 2.681a2.664 2.664 0 0 0 1.884-.788 2.677 2.677 0 0 0 .777-1.893 2.674 2.674 0 0 0-.776-1.894 2.66 2.66 0 0 0-1.885-.787Zm-7.644-.199a2.372 2.372 0 0 0-2.358 2.382 2.367 2.367 0 0 0 2.358 2.374 2.362 2.362 0 0 0 1.673-.698c.443-.446.69-1.05.689-1.68a2.378 2.378 0 0 0-.689-1.68 2.366 2.366 0 0 0-1.673-.701v.003Zm-5.677-3.883a1.733 1.733 0 0 0-1.731 1.747c0 .963.774 1.743 1.728 1.743s1.731-.78 1.731-1.743a1.742 1.742 0 0 0-1.728-1.747Zm-2.257-5.03c-.696 0-1.26.565-1.26 1.263a1.26 1.26 0 0 0 2.513 0c0-.695-.56-1.26-1.253-1.263Zm-.133-6.557a1.708 1.708 0 0 0-1.707 1.721c0 .95.764 1.718 1.707 1.718a1.708 1.708 0 0 0 1.706-1.718 1.716 1.716 0 0 0-1.706-1.721Zm3.326-7.02a2.539 2.539 0 0 0-1.795.752 2.55 2.55 0 0 0-.74 1.804c0 1.407 1.135 2.555 2.535 2.555a2.545 2.545 0 0 0 2.531-2.555 2.545 2.545 0 0 0-2.53-2.555Zm6.491-3.73a2.674 2.674 0 0 0-2.664 2.684 2.674 2.674 0 0 0 2.664 2.685 2.674 2.674 0 0 0 2.664-2.685 2.674 2.674 0 0 0-2.664-2.685Zm7.66.855a2.366 2.366 0 0 0-1.672.7 2.378 2.378 0 0 0-.689 1.681 2.374 2.374 0 0 0 2.362 2.382 2.366 2.366 0 0 0 1.673-.7c.443-.447.69-1.052.688-1.682a2.378 2.378 0 0 0-.688-1.68 2.366 2.366 0 0 0-1.673-.701Zm5.65 5.066a1.733 1.733 0 0 0-1.729 1.747 1.74 1.74 0 0 0 .815 1.637 1.737 1.737 0 0 0 2.641-1.637 1.742 1.742 0 0 0-1.728-1.747Zm2.375 6.034a1.258 1.258 0 0 0-1.26 1.267 1.265 1.265 0 0 0 1.26 1.27 1.258 1.258 0 0 0 1.26-1.27 1.265 1.265 0 0 0-1.26-1.267Zm8.597 1.992a2.235 2.235 0 0 0-2.221 2.241 2.23 2.23 0 0 0 2.221 2.241 2.23 2.23 0 0 0 2.221-2.241 2.235 2.235 0 0 0-2.221-2.241Zm9.166 2.714a2.35 2.35 0 0 0-2.34 2.36 2.35 2.35 0 0 0 2.34 2.36 2.348 2.348 0 0 0 2.34-2.36 2.356 2.356 0 0 0-.683-1.666 2.344 2.344 0 0 0-1.657-.694Zm-2.319 8.336c-1.224 0-2.217 1-2.217 2.237 0 1.238.993 2.234 2.217 2.234 1.224 0 2.214-1 2.214-2.237a2.22 2.22 0 0 0-2.214-2.234Zm-3.996 7a1.878 1.878 0 0 0-1.868 1.884 1.88 1.88 0 0 0 1.872 1.888 1.88 1.88 0 0 0 1.872-1.888 1.882 1.882 0 0 0-.546-1.332 1.873 1.873 0 0 0-1.326-.555l-.004.004Zm-4.788 5.197a1.622 1.622 0 0 0-1.613 1.628 1.622 1.622 0 0 0 1.617 1.515 1.62 1.62 0 0 0 1.616-1.515 1.626 1.626 0 0 0-1.62-1.628Zm-5.054 3.79a1.388 1.388 0 0 0-1.386 1.4 1.39 1.39 0 0 0 1.386 1.396 1.391 1.391 0 0 0 1.382-1.397 1.391 1.391 0 0 0-1.382-1.396v-.004Zm-5.724 2.146c-.896 0-1.622.728-1.622 1.626 0 .898.726 1.626 1.622 1.626.895 0 1.622-.728 1.622-1.626 0-.898-.727-1.626-1.622-1.626Zm-6.732 1.105a1.874 1.874 0 0 0-1.861 1.88 1.874 1.874 0 0 0 1.864 1.88 1.874 1.874 0 0 0 1.865-1.88 1.874 1.874 0 0 0-1.865-1.877l-.003-.003Zm-7.693-.765a2.427 2.427 0 0 0-1.719.717 2.439 2.439 0 0 0-.708 1.726 2.435 2.435 0 0 0 2.427 2.443 2.427 2.427 0 0 0 1.716-.719 2.439 2.439 0 0 0 .706-1.724 2.439 2.439 0 0 0-.706-1.725 2.427 2.427 0 0 0-1.716-.718Zm-8.093-2.934c-1.58 0-2.862 1.292-2.862 2.887s1.281 2.887 2.862 2.887c1.584 0 2.862-1.292 2.862-2.887s-1.278-2.887-2.862-2.887Zm-7.164-5.424a3.37 3.37 0 0 0-2.385.997 3.386 3.386 0 0 0-.981 2.395c0 1.877 1.505 3.392 3.362 3.392 1.858 0 3.363-1.515 3.363-3.392 0-1.873-1.505-3.392-3.363-3.392h.004Zm-5.951-8.181c-2.009 0-3.64 1.642-3.64 3.67s1.631 3.674 3.64 3.674c2.012 0 3.64-1.646 3.64-3.674s-1.628-3.67-3.636-3.67h-.004Zm-3.377-8.516a2.873 2.873 0 0 0-2.032.85 2.887 2.887 0 0 0-.837 2.04 2.879 2.879 0 0 0 2.87 2.89 2.875 2.875 0 0 0 2.865-2.886 2.884 2.884 0 0 0-2.866-2.894Zm-.165-8.228a2.355 2.355 0 0 0-1.666.697 2.367 2.367 0 0 0-.685 1.674 2.36 2.36 0 0 0 2.35 2.37c1.3 0 2.355-1.06 2.355-2.37a2.364 2.364 0 0 0-2.354-2.371Zm2.31-8.08a2.222 2.222 0 0 0-1.57.658c-.416.42-.649.988-.647 1.58a2.23 2.23 0 0 0 2.218 2.237 2.232 2.232 0 0 0 2.221-2.238 2.233 2.233 0 0 0-.648-1.58 2.222 2.222 0 0 0-1.573-.657Zm4.004-6.287a1.87 1.87 0 0 0-1.322.555c-.35.353-.545.832-.543 1.33a1.874 1.874 0 0 0 1.865 1.88 1.874 1.874 0 0 0 1.865-1.877 1.879 1.879 0 0 0-.542-1.332 1.87 1.87 0 0 0-1.323-.556Zm4.78-4.676a1.622 1.622 0 0 0-1.612 1.624c0 .902.72 1.627 1.613 1.627a1.622 1.622 0 0 0 1.613-1.624c0-.894-.721-1.62-1.613-1.624v-.003Zm5.059-3.346a1.395 1.395 0 0 0-1.386 1.4c0 .773.619 1.4 1.386 1.4a1.392 1.392 0 0 0 1.39-1.4 1.398 1.398 0 0 0-1.39-1.4Zm5.735-2.58a1.61 1.61 0 0 0-1.61 1.624c0 .895.72 1.624 1.61 1.624a1.618 1.618 0 0 0 1.609-1.624c0-.902-.72-1.624-1.61-1.624Zm6.706-1.635a1.883 1.883 0 0 0-1.872 1.887 1.88 1.88 0 0 0 1.872 1.888 1.88 1.88 0 0 0 1.872-1.887 1.873 1.873 0 0 0-1.872-1.887Zm7.708-.342a2.43 2.43 0 0 0-1.719.72 2.443 2.443 0 0 0-.707 1.726c0 1.354 1.087 2.45 2.426 2.45a2.43 2.43 0 0 0 1.72-.72 2.44 2.44 0 0 0 .706-1.73 2.443 2.443 0 0 0-.707-1.727 2.43 2.43 0 0 0-1.719-.72Zm7.866 1.876c-1.584 0-2.87 1.296-2.87 2.89 0 1.596 1.286 2.895 2.87 2.895s2.87-1.296 2.87-2.894a2.879 2.879 0 0 0-2.87-2.89Zm7.427 4.55c-1.858 0-3.363 1.52-3.363 3.393 0 1.873 1.505 3.4 3.363 3.4 1.857 0 3.366-1.524 3.366-3.397 0-1.872-1.505-3.392-3.366-3.392v-.003Zm5.904 7.651c-2.009 0-3.643 1.642-3.643 3.67s1.634 3.674 3.643 3.674 3.643-1.646 3.643-3.674-1.63-3.674-3.643-3.674v.004Zm3.384 10.076c-1.584 0-2.866 1.295-2.866 2.887 0 1.591 1.282 2.89 2.866 2.89s2.862-1.292 2.862-2.887-1.282-2.887-2.862-2.887v-.003ZM90 45.007c0 2.656-2.135 4.807-4.766 4.807a4.775 4.775 0 0 1-3.38-1.413 4.798 4.798 0 0 1-1.39-3.394c0-2.656 2.134-4.81 4.77-4.81 2.631 0 4.766 2.154 4.766 4.81Z" fill="#FA6400"/></svg>