<svg viewBox="0 0 90 90" xmlns="http://www.w3.org/2000/svg"><g fill="none"><path fill="#000" d="M0 0h90v90H0z"/><path d="M61.132 42.517a23.31 23.31 0 0 0-.884-.405c-.52-9.671-5.76-15.208-14.556-15.265h-.12c-5.261 0-9.638 2.265-12.331 6.388l4.838 3.347c2.012-3.079 5.17-3.735 7.496-3.735h.08c2.897.019 5.082.868 6.497 2.525 1.03 1.206 1.718 2.872 2.059 4.976-2.568-.44-5.345-.576-8.315-.404-8.363.486-13.74 5.406-13.38 12.243.184 3.468 1.897 6.451 4.824 8.4 2.474 1.648 5.661 2.454 8.973 2.271 4.374-.242 7.806-1.925 10.2-5.003 1.818-2.338 2.968-5.367 3.476-9.184 2.084 1.27 3.63 2.94 4.483 4.947 1.45 3.412 1.535 9.02-3.001 13.591-3.975 4.005-8.752 5.738-15.972 5.791-8.009-.06-14.066-2.65-18.004-7.7-3.688-4.729-5.593-11.558-5.665-20.3.072-8.742 1.977-15.571 5.665-20.3 3.938-5.05 9.995-7.64 18.004-7.7 8.067.06 14.23 2.663 18.318 7.737 2.005 2.489 3.517 5.618 4.513 9.266L74 32.477c-1.208-4.49-3.108-8.36-5.695-11.57C63.063 14.402 55.397 11.07 45.52 11h-.04c-9.858.069-17.438 3.415-22.53 9.945-4.533 5.81-6.87 13.896-6.949 24.031v.048c.079 10.135 2.416 18.22 6.948 24.031 5.093 6.53 12.673 9.876 22.531 9.945h.04c8.764-.061 14.942-2.376 20.03-7.504 6.66-6.71 6.459-15.12 4.264-20.284-1.574-3.702-4.576-6.71-8.68-8.695ZM46 56.867c-3.666.208-7.474-1.451-7.662-5.006-.139-2.636 1.86-5.577 7.887-5.927.69-.04 1.368-.06 2.033-.06 2.19 0 4.237.215 6.1.625-.695 8.749-4.769 10.17-8.358 10.368Z" fill="#FFF"/></g></svg>