<svg xmlns="http://www.w3.org/2000/svg" viewBox="0 0 90 90"><path fill="#FFE100" d="M0 0h90v90H0z"/><path d="M45.192 83.371h-.282C23.876 83.219 6.926 66.085 7 45.051 7.075 24.015 24.146 7.002 45.18 7h.283a38.186 38.186 0 1 1-.27 76.371h-.001Zm0-73.77C25.539 9.532 9.55 25.408 9.482 45.06c-.07 19.653 15.807 35.641 35.46 35.71h.26a35.586 35.586 0 0 0 .256-71.17h-.266Z"/><path d="M65.675 22.54a8.8 8.8 0 0 0-10.838 6.135A30.475 30.475 0 0 1 27.69 50.89c-.716.05-1.447.076-2.168.076a30.382 30.382 0 0 1-17.215-5.32 36.684 36.684 0 0 0 3.3 14.825 36.848 36.848 0 0 1 3.446-8.567c1.7.57 3.447 1 5.218 1.284a118.132 118.132 0 0 0 2.168 16.706h-.921a36.79 36.79 0 0 1-3.885-.206 38.356 38.356 0 0 0 2.763 2.79h1.122a44.43 44.43 0 0 0 6.416-.482c12.316-1.81 22.33-6.34 29.759-13.47 6.573-6.313 11.195-14.544 14.132-25.154a8.817 8.817 0 0 0-6.15-10.832h-.001Zm-23.47 42.94c-2.036-4.964-4.171-8.816-5.753-10.865-1.34-1.74-2.964-.655-2.385 1.534 1.084 3.993 1.86 7.765 2.466 11.33a66.653 66.653 0 0 1-8.995 1.945h-.195c-.542-6.285-.336-11.487.542-15.952a32.895 32.895 0 0 0 12.614-3.522c3.333 2.709 7.045 6.556 10.735 10.485a45.484 45.484 0 0 1-9.028 5.061v-.016ZM69.3 32.68c-2.986 10.8-7.933 19.21-14.93 25.311a101.02 101.02 0 0 0-7.59-12.149 33.894 33.894 0 0 0 4.335-4.416 107.318 107.318 0 0 1 8.783 4.443c1.084.613 2.786-.541.759-2.465a66.08 66.08 0 0 0-6.925-5.69 32.625 32.625 0 0 0 3.62-8.345 6.22 6.22 0 0 1 5.96-4.551 6.301 6.301 0 0 1 1.653.227 6.21 6.21 0 0 1 4.335 7.651v-.016Z"/></svg>