<svg viewBox="0 0 90 90" xmlns="http://www.w3.org/2000/svg"><g fill="none" fill-rule="evenodd"><path fill="#000" d="M0 0h90v90H0z"/><g fill-rule="nonzero"><path d="m15.397 69.913.224.644c-.028-.07-.112-.294-.224-.644Zm9.098-14.691c.406-3.487 1.78-5.434 4.359-7.437 3.7-2.703 8.312-1.176 8.312-1.176v-9.09a19.145 19.145 0 0 1 3.35.21v11.695s-4.611-1.527-8.312 1.176c-2.579 2.003-3.953 3.95-4.36 7.437-.013 1.89.323 4.37 1.893 6.498a15.75 15.75 0 0 1-1.191-.714c-3.435-2.409-4.065-6.036-4.051-8.6Zm35.1-34.508c-2.538-2.9-3.505-5.84-3.855-7.899h3.196s-.631 5.406 4.009 10.714l.07.07a17.783 17.783 0 0 1-3.42-2.885ZM75 28.949v11.456s-4.08-.168-7.107-.967c-4.22-1.12-6.925-2.843-6.925-2.843s-1.878-1.232-2.018-1.316v23.668c0 1.317-.35 4.608-1.402 7.353-1.374 3.585-3.504 5.952-3.897 6.428 0 0-2.593 3.193-7.149 5.336-4.107 1.933-7.724 1.89-8.803 1.933 0 0-6.238.252-11.859-3.544a23.537 23.537 0 0 1-3.392-2.843l.028.028c5.621 3.81 11.859 3.544 11.859 3.544 1.08-.042 4.696 0 8.803-1.933 4.556-2.143 7.149-5.336 7.149-5.336.392-.476 2.523-2.843 3.897-6.428 1.051-2.745 1.402-6.036 1.402-7.353V32.478c.154.084 2.018 1.316 2.018 1.316s2.706 1.723 6.925 2.843c3.028.799 7.107.967 7.107.967v-8.977c1.402.322 2.593.406 3.364.322Z" fill="#EE1D52"/><path d="M71.636 28.613v8.977s-4.08-.168-7.107-.967c-4.22-1.12-6.925-2.843-6.925-2.843s-1.878-1.232-2.018-1.316v23.668c0 1.317-.35 4.608-1.402 7.353-1.374 3.585-3.505 5.952-3.897 6.428 0 0-2.593 3.193-7.149 5.336-4.107 1.933-7.724 1.89-8.803 1.933 0 0-6.238.252-11.859-3.544l-.028-.028a23.662 23.662 0 0 1-1.668-1.89c-1.794-2.283-2.888-4.972-3.168-5.742v-.014c-.449-1.33-1.374-4.552-1.248-7.647.225-5.476 2.075-8.851 2.566-9.691a22.871 22.871 0 0 1 4.976-6.079 20.888 20.888 0 0 1 5.915-3.5 19.765 19.765 0 0 1 7.345-1.541v9.089s-4.611-1.527-8.312 1.176c-2.58 2.003-3.953 3.95-4.36 7.437-.013 2.563.617 6.19 4.066 8.613.406.266.799.504 1.191.714a9.438 9.438 0 0 0 2.173 2.115c3.378 2.227 6.196 2.38 9.812.938 2.411-.966 4.22-3.137 5.06-5.56.533-1.512.52-3.025.52-4.593v-44.62h8.41c.35 2.059 1.303 5 3.855 7.899A18.672 18.672 0 0 0 63 23.599c.364.406 2.257 2.367 4.696 3.585a17.91 17.91 0 0 0 3.939 1.429Z" fill="#FFF"/><g fill="#69C9D0"><path d="m14.262 63.205.21.602a7.26 7.26 0 0 1-.21-.602Z"/><path d="M29.821 39.06a20.696 20.696 0 0 0-5.915 3.501 22.667 22.667 0 0 0-4.976 6.093c-.491.84-2.341 4.201-2.566 9.69-.126 3.11.813 6.317 1.248 7.648v.014c.28.756 1.374 3.459 3.168 5.742.519.658 1.08 1.288 1.668 1.89a23.603 23.603 0 0 1-5.032-4.705c-1.78-2.255-2.874-4.93-3.154-5.714v-.028c-.449-1.33-1.388-4.552-1.248-7.661.224-5.476 2.075-8.851 2.565-9.691a22.667 22.667 0 0 1 4.977-6.093 20.888 20.888 0 0 1 5.915-3.5 20.728 20.728 0 0 1 4.177-1.233 20.856 20.856 0 0 1 6.532-.098v2.605c-2.537.042-5.032.56-7.359 1.54Z"/><path d="M55.74 12.815h-8.41v44.62c0 1.568 0 3.08-.52 4.593-.854 2.41-2.663 4.594-5.06 5.56-3.616 1.457-6.448 1.289-9.812-.938a9.103 9.103 0 0 1-2.173-2.1c2.874 1.526 5.439 1.498 8.621.223 2.411-.966 4.22-3.15 5.06-5.56.533-1.512.519-3.025.519-4.593V10h11.62c-.013 0-.14 1.106.155 2.815Zm15.896 13.319v2.479a17.91 17.91 0 0 1-3.94-1.429c-2.424-1.204-4.317-3.18-4.695-3.585.434.28.869.532 1.332.77 2.971 1.47 5.873 1.919 7.303 1.765Z"/></g></g></g></svg>