<svg viewBox="0 0 90 90" xmlns="http://www.w3.org/2000/svg"><defs><linearGradient x1="103.419%" y1="-2.344%" x2="-.094%" y2="94.947%" id="a"><stop stop-color="#00E7DA" offset="0%"/><stop stop-color="#009CCF" offset="100%"/></linearGradient></defs><g fill="none"><path fill="#1C1C1E" d="M0 0h90v90H0z"/><path d="M26.77 0v6.75C6.756 9.622-.498 35.057 15.263 47.985c14.013 11.508 35.385 3.274 37.988-14.746H60a30.076 30.076 0 0 1-19.94 25.069 30.068 30.068 0 0 1-31.227-7.132C-9.103 33.237 1.978 2.756 26.769.001Zm12.56 15.945a16.82 16.82 0 0 1 4.72 4.737L32.477 32.258a3.34 3.34 0 0 1-5.453-1.085 3.343 3.343 0 0 1 .725-3.644ZM33.457 0A30.034 30.034 0 0 1 60 26.55l-6.748-.001A23.44 23.44 0 0 0 33.457 6.738Z" transform="translate(15 15)" fill="url(#a)"/></g></svg>