<svg xmlns="http://www.w3.org/2000/svg" viewBox="0 0 90 90"><defs><linearGradient x1="81.499%" y1="14.167%" x2="16.251%" y2="87.87%" id="a"><stop stop-color="#007AC9" offset="0%"/><stop stop-color="#E5017F" offset="100%"/></linearGradient></defs><path fill="#FFF" d="M0 0h90v90H0z"/><path d="M44.115 5.132c-.436.24-.619.744-.447 1.259.173.519.5.69 1.625.775l.736.053.66.055.376.037.344.04.33.045.489.073.37.049c.058.007.114.013.164.017l.29.046.326.06.663.14 1.698.395c3.366.812 7.212 2.414 10.52 4.417l.335.209.608.395.678.455.91.628.604.43.332.244.138.105.208.165.515.424c3.47 2.803 6.594 6.373 8.758 10.023 3.664 6.156 5.278 12.747 4.808 19.681l-.06.782-.043.465-.023.183-.052.364-.048.41-.014.142-.054.413-.062.397-.021.098-.103.568-.058.382-.039.223-.045.2-.055.277c-.008.046-.015.09-.02.13l-.076.368-.102.448-.19.772-.219.82-.15.532-.145.494c-1.008 3.306-2.77 6.705-4.832 9.268-1.751 2.162-4.464 4.657-6.433 5.904l-.185.118-.165.111-.14.103-.598.389c-4.11 2.563-8.06 3.845-12.994 4.21-.305.022-.64.038-.99.049l-.721.015-.745.003c-.25-.002-.5-.005-.746-.01l-.727-.023c-.829-.033-1.573-.09-2.081-.17l-2.06-.367c-3.034-.549-6.744-2.265-9.445-4.37a14.811 14.811 0 0 1-.778-.667l-.472-.436a35.634 35.634 0 0 1-.5-.479l-.507-.5a46.439 46.439 0 0 1-.25-.251l-.478-.494-.223-.238-.403-.443a12.358 12.358 0 0 1-.328-.383c-2.693-3.277-4.567-7.554-5.16-11.734l-.154-1.138-.032-.184-.007-.062-.012-.211-.014-.493-.01-.867v-.711l.01-.886.014-.52.012-.235.007-.077.11-.798.067-.43.068-.394.12-.61.047-.228c.916-4.176 3.503-8.284 6.926-10.996 3.08-2.449 6.617-3.89 10.475-4.28.09-.008.2-.016.327-.022l.423-.016.741-.012h.514l.713.012.386.016c.112.006.205.014.274.022l.935.117.346.05.297.052.275.056.276.067.655.183.204.059c6.8 1.968 11.677 8.296 11.757 15.253.034 3.1-.595 5.286-2.267 7.872-3.148 4.84-9.548 7.22-14.825 5.504-3.467-1.122-6.276-3.957-7.38-7.44l-.096-.318c-.327-1.12-.411-1.615-.422-2.72l-.001-.29c-.011-1.508.156-2.474.675-3.759l.126-.302c.435-1.019.435-1.328.011-1.751-.389-.378-.95-.446-1.362-.149-.356.252-.85 1.024-1.299 1.959l-.202.442c-.264.6-.5 1.243-.663 1.844l-.089.34-.07.305a5.93 5.93 0 0 0-.076.433l-.033.302-.022.337-.013.39-.005.465-.002.64.007.669c.023 1.139.116 1.845.374 2.854l.158.585.092.324c.56 1.91 1.992 4.497 3.274 5.915 3.412 3.765 7.785 5.722 12.639 5.63l.764-.018.446-.02c.143-.01.283-.02.423-.032l.423-.044.447-.06.495-.076.566-.098.714-.13.268-.063.995-.26c5.941-1.67 10.967-5.836 13.749-11.385.962-1.9 1.855-4.611 2.05-6.19l.171-1.385.013-.122.021-.315.017-.394.012-.455.01-.762.001-.535-.01-1.058-.02-.715-.017-.407-.022-.331-.025-.239a1.086 1.086 0 0 0-.014-.08l-.016-.072-.038-.214-.064-.423-.02-.148c-.389-3.227-2.106-8.079-3.79-10.722l-.197-.309-.139-.232-.046-.09-.015-.047-.064-.114-.119-.185-.362-.528-.461-.647-.365-.496-.342-.456-.2-.258-.166-.206-.122-.14-.041-.043-.428-.505c-.684-.855-2.186-2.327-3.276-3.245l-1.017-.852a4.777 4.777 0 0 0-.454-.357l-.335-.233-.39-.26-.434-.278-.707-.438-.49-.294-.733-.426-.695-.386-.42-.223-.375-.186a8.953 8.953 0 0 0-.165-.077c-2.146-.976-4.917-1.872-6.905-2.234l-1.131-.192c-.74-.152-1.773-.27-2.928-.344l-.786-.043-.81-.03a42.774 42.774 0 0 0-4.017.063c-5.724.377-11.734 2.38-16.989 5.664-3.927 2.448-7.395 5.824-9.662 9.405l-.29.46-.215.322-.102.14-.12.185-.152.256-.178.315-.303.56-.33.633-.339.667-.326.665-.384.82-.157.355a38.108 38.108 0 0 0-1.75 5.25l-.157.656-.117.59-.142.796-.146.864-.162 1.021-.052.364-.016.128c-.285 2.725-.288 5.538-.016 8.024l.212 1.685.043.315.113.609.183.886.083.381c2.336 10.538 8.77 19.006 18.031 23.743 2.805 1.44 5.429 2.338 9.3 3.13l.995.197.518.096 1.137.202.406.052.397.042.736.094.192.032.312.043.376.04.21.017.462.032.514.028.56.022.918.023.656.01.685.002c2.76 0 4.751-.137 6.526-.458l.112-.021.575-.093c.828-.136 2.098-.457 3.419-.847l.795-.24.397-.126.778-.256.744-.258c.36-.13.7-.258 1.01-.382l1.615-.66.18-.08.598-.288.588-.294.87-.443 1.04-.545.502-.272.3-.175.354-.217.397-.252.881-.577.695-.47.683-.473.636-.452.38-.277.333-.25.275-.214.206-.172.073-.067.084-.084.182-.16.56-.465.233-.205.476-.44.58-.555.42-.408.844-.837.395-.399.514-.53.268-.287.272-.308.313-.375.904-1.088.17-.197a.963.963 0 0 1 .031-.033l.193-.26.895-1.262c2.841-4.074 4.848-8.335 6.06-12.864l.303-1.184.216-.9.076-.352.153-.824.084-.479.078-.433.109-.677.056-.391.02-.158.029-.28.074-.59.01-.06.03-.32.024-.308.06-.993.05-1.117.029-.997.003-.312-.005-.428-.022-.77-.036-.832-.046-.791-.034-.456a16.038 16.038 0 0 0-.017-.195l-.13-1.07-.054-.398-.155-.983-.324-1.878-.07-.38c-.59-3.157-2.16-7.544-3.806-10.663l-.321-.592-.695-1.187L77.45 23l-.158-.247-.655-.925a37.88 37.88 0 0 1-.089-.127c-2.072-2.94-5.06-6.042-7.99-8.284A41.67 41.67 0 0 0 55.172 6.62l-.181-.053-.423-.116-.487-.127-1.085-.267-.832-.193-.77-.17-.447-.092-.369-.07-.271-.045-.25-.034-.62-.1-.847-.106-.889-.099-.505-.042-.548-.034-1.25-.061L45.07 5h-.269l-.114.004-.194.015a.92.92 0 0 0-.378.112Z" fill="url(#a)"/></svg>