<svg viewBox="0 0 90 90" xmlns="http://www.w3.org/2000/svg"><defs><radialGradient cx="0%" cy="100%" fx="0%" fy="100%" r="106.833%" id="a"><stop stop-color="#FF7854" offset="0%"/><stop stop-color="#FF4458" offset="100%"/></radialGradient></defs><g fill="none"><path fill="url(#a)" d="M0 0h90v90H0z"/><path d="M34.781 39.226a.158.158 0 0 1-.177-.054c-1.983-2.684-2.48-7.301-2.603-9.074a.461.461 0 0 0-.7-.363C25.18 33.255 19.5 41.578 19.5 49.616 19.5 63.419 28.872 75 45 75c15.113 0 25.5-11.937 25.5-25.385 0-17.6-12.288-29.29-23.232-34.575a.391.391 0 0 0-.407.038.397.397 0 0 0-.153.38c1.41 9.483-.537 19.796-11.927 23.768Z" fill="#FFF"/></g></svg>