<svg viewBox="0 0 90 90" xmlns="http://www.w3.org/2000/svg"><g fill="none"><path fill="#FB4725" d="M5 5h24.4v24.4H5z"/><path fill="#FC9B3A" d="M60.6 5H85v24.4H60.6z"/><path fill="#FF7B39" d="M32.8 5h24.4v24.4H32.8z"/><path fill="#0066B6" d="M5 60.6h24.4V85H5z"/><path fill="#6CBADD" d="M60.6 60.6H85V85H60.6z"/><path fill="#429ACC" d="M32.8 60.6h24.4V85H32.8z"/><path fill="#22B45C" d="M5 32.8h24.4v24.4H5z"/><path fill="#D6D230" d="M60.6 32.8H85v24.4H60.6z"/><path fill="#91CA06" d="M32.8 32.8h24.4v24.4H32.8z"/><path fill="#FFF" d="M15.183 25.167h4.184v-12.4h4.683v-3.55h-13.7v3.55h4.833zM42.9 9.217h4.183v15.95H42.9zm26.6 5.1 4.9 10.85h5.567V9.217H76.1v10.966L71.267 9.217h-5.634v15.95H69.5zM24.383 37.033h-5.05l-4.833 5.85v-5.85h-4.183v15.934H14.5v-6.45l5.15 6.45h5.25l-7.25-8.45zm26.1 12.884h-6.766v-3.55H50v-3.05h-6.283V40.25h6.433v-3.217H39.517v15.934h10.966zm24.15-8.184c0 1.584-1.5 1.9-2.75 1.9h-1.116v-3.55h1.2c1.916 0 2.666.45 2.666 1.65Zm5.284 11.234-2.15-5.417c-.45-1.1-.884-1.867-1.617-2.35 1.7-.667 2.667-2 2.667-3.783 0-2.734-2.15-4.384-5.734-4.384h-6.35v15.95h4.034V46.7h.85c1.383 0 1.683.433 2.333 2.217l1.45 4.066h4.5l.017-.016ZM22.733 77.15c-.883.4-1.916.6-3.083.6-3.017 0-4.817-1.85-4.817-4.95s1.967-4.95 4.884-4.95c.983 0 2.1.217 2.966.583l.534.217.183-3.4-.3-.083a14.61 14.61 0 0 0-3.9-.567c-5.033 0-8.683 3.45-8.683 8.2 0 2.533.85 4.633 2.433 6.067 1.533 1.383 3.683 2.116 6.233 2.116 1.467 0 2.884-.233 3.984-.666l.266-.1-.183-3.317-.533.233.016.017Zm26.45 3.633-1.333-3.866h-5.867l-1.366 3.866h-4.184l6.067-15.95h4.95l6.083 15.95h-4.366.016ZM42.95 73.85h3.9l-1.917-5.333-1.983 5.333Zm28.1 6.933h-5.317v-15.95h5.734c5.416 0 8.4 2.767 8.4 7.75 0 4.984-3.3 8.184-8.817 8.184v.016Zm-.1-12.883h-1.033v9.833h.65c3.25 0 4.966-1.816 4.966-5.133 0-2.983-1.633-4.7-4.583-4.7Z"/></g></svg>