<svg viewBox="0 0 90 90" xmlns="http://www.w3.org/2000/svg"><g fill="none"><path fill="#000" d="M0 0h90v90H0z"/><path d="M70 25.35c0-.92-.932-1.535-1.76-1.16L44.49 34.952c-.45.204-.74.659-.74 1.16v31.616c0 .944.978 1.559 1.809 1.136l15-7.621c.423-.215.691-.655.691-1.136V43.06l8.12-4.715c.373-.217.609-.611.629-1.044l.001-.06V25.35Zm-2.5 1.957v9.199l-8.12 4.715a1.274 1.274 0 0 0-.629 1.044l-.001.06v16.998l-12.5 6.351V36.937l21.25-9.63ZM22.503 22c-1.768 0-2.713 1.607-2.463 3.029a1.3 1.3 0 0 0-.04.32v11.894l.001.059c.02.433.256.827.629 1.044l8.12 4.715v17.046c0 .48.268.92.691 1.136l15 7.621c.831.423 1.809-.192 1.809-1.136v-30.81l22.262-10.056c2.443-1.103 1.7-4.787-.935-4.86l-.08-.002H22.503Zm-.003 5.32 8.549 3.861 12.701 5.755v28.737l-12.5-6.351V42.324l-.001-.06a1.273 1.273 0 0 0-.629-1.043l-8.12-4.715v-9.187Zm.033-2.78h44.964L45 34.704 32.09 28.87l-9.557-4.33Zm-2.033 0H20v1.017h.5V24.54Zm49.5 0h-.5v1.017h.5V24.54Z" fill="#FFF"/></g></svg>