<svg viewBox="0 0 90 90" xmlns="http://www.w3.org/2000/svg"><g transform="translate(1 1)" fill="none"><circle fill="#00BE9F" cx="44" cy="44" r="44"/><path d="M16.83 56.87c1.871-.77 4.73-2.641 6.49-3.41 1.65-3.41 5.39-10.231 5.39-10.231l5.06-3.08s1.65-1.65 2.31-2.42c1.431-1.539 2.97-3.08 4.51-4.62 1.431-1.32 4.951-2.419 4.951-2.419s3.63 1.21 3.74 1.21c.99-1.1 4.289-3.52 4.62-3.63 1.1-.111 2.2-.111 2.97.769 1.1 1.212 1.76 2.31 1.65 4.18 0 .77-.11 1.541-.33 2.31-.22.77-1.211.991-1.87 1.21-.88.331-1.87.44-2.861.55 1.21.99 2.311 1.87 3.521 2.86.88.661 1.32.55 2.42.55 2.86 0 5.72.111 8.58.111-.44-9.79-3.301-18.04-8.8-22.55 8.47 4.51 14.3 14.19 14.3 25.41s-5.83 20.899-14.3 25.41c5.94-4.84 8.69-14.19 8.8-24.86-2.53.439-5.06.77-7.59 1.1-1.212.11-2.53.439-3.85.219-1.54-.22-6.602-2.64-7.04-2.42-1.21.44-2.75 1.43-2.75 1.43s-5.611.99-7.59 1.32c2.2 1.21 4.4 2.42 6.6 3.742 1.32.77 2.53 1.428 3.85 2.308.88.55.99.99 1.1 2.09.33 1.76.44 3.63.66 5.39 0 .44-.11 2.97.33 3.19 1.32.66 2.53.66 3.85 1.32.438.22.88.55 1.43.77.22.11.11 1.43.11 1.43h-9.46c-.22-1.21-.33-3.3-.55-4.95-.11-1.43-.99-2.31-1.76-3.41s-.88-1.54-2.09-1.87c-1.76-.66-3.411-1.21-5.17-1.87-1.431-.55-2.75-.99-4.18-1.54-.44-.22-1.65 1.43-1.98 1.76-1.43 1.43-6.161 5.72-6.161 5.72l-8.91 1.98v1.538l1.98 1.321-.109.99c-.66 0-4.29.219-4.29 0-.44-2.2-2.2-4.401-2.641-6.6 0-.33 4.73-2.09 5.06-2.31" fill="#FFF"/></g></svg>