<svg viewBox="0 0 90 90" xmlns="http://www.w3.org/2000/svg"><g fill="none"><path d="M39.362 42.36c-.785 0-1.141.14-1.64.561-.5.491-1.64 1.614-1.854 1.965-.143.14-.071.35 0 .491.57.982 1.64 1.263 3.209 1.263h11.622c.785 0 1.141-.14 1.64-.561.5-.491 1.64-1.614 1.854-1.965.143-.14.071-.35 0-.491-.57-.982-1.64-1.263-3.209-1.263H39.362Z" fill="#FA2828"/><path d="M69.31 40.115c-.713-.35-1.07-.421-1.712-.21-.713.21-2.21.701-2.567.912-.214.07-.214.28-.214.42.072 1.123.927 1.895 2.282 2.596l10.41 5.192c.714.351 1.07.421 1.712.21.713-.21 2.21-.7 2.567-.911.214-.07.214-.28.214-.421-.071-1.123-.927-1.895-2.282-2.596l-10.41-5.192Zm-8.7-6.034c-.142-.07-.285-.14-.499 0-.356.21-1.426 1.263-1.854 1.754-.427.491-.57.772-.57 1.473v14.664c0 1.403.285 2.386 1.212 2.947.143.07.285.14.5 0 .356-.21 1.425-1.263 1.853-1.754.428-.491.57-.772.57-1.473V37.098c.072-1.473-.213-2.456-1.212-3.017Zm27.167 0c-.142-.07-.285-.14-.499 0-.356.21-1.426 1.263-1.854 1.754-.427.491-.57.772-.57 1.473v14.664c0 1.403.285 2.386 1.212 2.947.143.07.285.14.5 0 .356-.21 1.425-1.263 1.853-1.754.428-.491.57-.772.57-1.473V37.098c.072-1.473-.213-2.456-1.212-3.017Zm-75.226 6.034c-.713-.35-1.07-.421-1.711-.21-.713.21-2.21.701-2.567.912-.214.07-.214.21-.214.42.071 1.123.927 1.895 2.282 2.596l10.41 5.192c.713.351 1.07.421 1.712.21.713-.21 2.21-.7 2.567-.911.213-.07.213-.28.213-.421-.07-1.123-.926-1.895-2.281-2.596l-10.41-5.192Zm-8.699-6.034c-.142-.07-.285-.14-.428 0-.356.21-1.426 1.263-1.854 1.754-.427.421-.57.702-.57 1.473v14.664c0 1.403.285 2.386 1.212 2.947.143.07.285.14.5 0 .356-.21 1.425-1.263 1.853-1.754.428-.491.57-.772.57-1.473V37.098c0-1.473-.285-2.456-1.283-3.017Zm27.168 0c-.143-.07-.286-.14-.5 0-.356.21-1.426 1.263-1.854 1.754-.428.491-.57.772-.57 1.473v14.664c0 1.403.285 2.386 1.212 2.947.142.07.285.14.499 0 .357-.21 1.426-1.263 1.854-1.754.428-.491.57-.772.57-1.473V37.098c0-1.473-.285-2.456-1.212-3.017Z" fill="#494949"/></g></svg>