<svg viewBox="0 0 90 90" xmlns="http://www.w3.org/2000/svg" xmlns:xlink="http://www.w3.org/1999/xlink"><defs><path id="a" d="M0 0h90v90H0z"/></defs><g fill="none" fill-rule="evenodd"><use fill="#E44332" xlink:href="#a"/><g fill="#FFF" fill-rule="nonzero"><path d="m19.077 42.63 36.136-21.036c.772-.45.812-1.836-.056-2.334-.865-.5-2.509-1.446-3.12-1.808a2.817 2.817 0 0 0-2.784.033c-.433.253-29.305 17.044-30.268 17.595a3.726 3.726 0 0 1-3.736 0L0 26.12v7.616c3.71 2.188 12.94 7.622 15.176 8.901 1.334.76 2.612.743 3.901-.008"/><path d="m19.077 57.03 36.136-21.036c.772-.45.812-1.836-.056-2.334-.865-.5-2.509-1.446-3.12-1.808a2.817 2.817 0 0 0-2.784.033c-.433.253-29.305 17.044-30.268 17.595a3.726 3.726 0 0 1-3.736 0L0 40.52v7.616c3.71 2.188 12.94 7.622 15.176 8.901 1.334.76 2.612.743 3.901-.008"/><path d="m19.077 72.33 36.136-21.036c.772-.45.812-1.836-.056-2.334-.865-.5-2.509-1.446-3.12-1.808a2.817 2.817 0 0 0-2.784.033c-.433.253-29.305 17.044-30.268 17.595a3.726 3.726 0 0 1-3.736 0L0 55.82v7.616c3.71 2.188 12.94 7.622 15.176 8.901 1.334.76 2.612.743 3.901-.008"/></g></g></svg>