<svg width="90" height="90" viewBox="0 0 90 90" xmlns="http://www.w3.org/2000/svg"><g fill="none" fill-rule="evenodd"><rect fill="#4943F7" width="90" height="90"/><g transform="translate(15 15)"><g transform="translate(29.8 14.156)"><rect width="15.729" height="15.729"/><rect stroke="#FFF" stroke-width=".57" x=".285" y=".285" width="15.159" height="15.159"/></g><path d="M0,30.0507057 C0,13.5100913 13.2598865,0 29.8009529,0 L29.8009529,14.1561623 C21.1566635,14.1443629 14.1395171,21.1424285 14.1277178,29.7867795 C14.1159184,38.4311304 21.1139342,45.4483268 29.7582236,45.4601262 C33.878145,45.460285 37.8276356,43.8156093 40.7297406,40.8912871 C43.6318456,37.9669649 45.2463703,34.0050298 45.2148214,29.8851999 L60,29.8851999 C60,46.4258144 46.4901473,60 29.9495083,60 C13.4088692,60 -0.00156673954,46.5894686 0,30.049139 L0,30.0507057 Z M44.2710744,15.7290376 L44.2710744,0 L60,0 L60,15.7290376 L44.2710744,15.7290376 Z" fill="#FFF" fill-rule="nonzero"/></g></g></svg>