<svg viewBox="0 0 90 90" xmlns="http://www.w3.org/2000/svg"><g fill="none"><path fill="#FFF" d="M0 0h90v90H0z"/><path d="M38.278 50.015c-1.137 0-2.273-.015-3.41 0-2.03.015 4.925 9.82 9.971 10.978 1.122.259 1.728.761 1.728 1.918.015 2.421.03 4.842-.015 7.248-.03 1.37-.849 2.025-2.137 1.796-9.623-1.629-16.7-6.775-21.034-15.606-.621-1.249-1.106-2.573-1.53-3.913-.712-2.254-.773-2.345-3.198-2.436-2.924-.107-4.88-1.63-5.516-4.31-.742-3.12 1.622-6.333 4.804-6.531.44-.03.88-.046 1.318-.015 1.364.076 2.122-.625 2.455-1.888.804-3.091 2.183-5.908 3.97-8.542 1.47-2.177 2.259-2.269 4.092-.441 1.395 1.4 2.774 2.801 4.183 4.187.909.898 1.136 1.812.333 2.908-.409.563-.727 1.203-1.03 1.827-.622 1.31-.258 1.918 1.182 1.934 2.576.03 5.167-.016 7.744.015 2.742.03 4.743 1.705 5.38 4.491.514 2.208-.759 4.903-3.092 5.786-1.38.518-2.986.426-4.5.579-.562.06-1.138.015-1.698.015Z" fill="#007EA4"/><path d="M49.704 17.005c8.926.396 16.776 4.812 22.155 13.49 1.849 2.985 1.349 5.786-1.303 7.446-2.864 1.796-6.016 1.111-7.82-1.812-2.712-4.37-6.5-7.172-11.562-8.1-4.167-.762-8.077.03-11.699 2.223-1.59.959-2.106.898-3.424-.427a377.076 377.076 0 0 1-4.259-4.293c-1.242-1.28-1.167-2.162.273-3.243 4.486-3.41 10.714-5.406 17.64-5.284Zm.364 49.469v-3.685c0-.928.47-1.507 1.333-1.69 5.077-1.08 8.85-3.928 11.517-8.359 1.197-1.979 3.03-2.74 5.259-2.405 2 .304 3.591 1.324 4.44 3.258.59 1.34.47 2.68-.167 3.943-2.091 4.05-5.077 7.324-8.82 9.882a26.494 26.494 0 0 1-11.35 4.43c-1.455.214-2.167-.365-2.197-1.811-.046-1.188-.03-2.375-.015-3.563Z" fill="#1AA64A"/></g></svg>