<svg viewBox="0 0 90 90" xmlns="http://www.w3.org/2000/svg"><path d="M43.317 6.577a7.019 7.019 0 0 0-.788 10.142 6.786 6.786 0 0 0 2.074 1.587 1.338 1.338 0 0 1-1.203 2.392 9.593 9.593 0 0 1-4.733-5.388c-5.028 1.143-9.33 3.626-13.744 7.53-11.384 10.071-14.25 25.589-6.795 35.337-1.896 2.4-3.32 5.064-3.693 7.746a8.648 8.648 0 0 0 2.332 7.46c3.808 3.983 8.886 2.955 12.968 2.13 2.73-.555 5.31-1.077 6.845-.095 1.336.858 1.44 1.604 1.498 1.844.87 3.863-2.402 5.757-3.182 6.743a.613.613 0 0 0 .469.995c1.443 0 3.733-.49 5.119-1.691 1.385-1.202 2.97-3.274 2.443-6.764a8.346 8.346 0 0 0-.133-.655c-.356-1.388-1.286-3.137-3.571-4.596-3.203-2.052-7.053-1.272-10.463-.584-4.049.829-6.637 1.18-8.45-.71a3.782 3.782 0 0 1-1.02-3.393c.223-1.563 1.098-3.27 2.33-4.916 9.007 7 23.593 5.583 34.296-3.892a31.227 31.227 0 0 0 8.633-11.642 9.595 9.595 0 0 1-5.617-5.707 1.34 1.34 0 0 1 2.522-.908 6.783 6.783 0 0 0 1.328 2.235 6.995 6.995 0 0 0 8.616 1.47 6.98 6.98 0 0 0 3.317-8.08 6.99 6.99 0 0 0-7.17-4.995 1.34 1.34 0 1 1-.212-2.67 9.72 9.72 0 0 1 5.343 1.116c1.079-5.836 1.386-13.018-.855-15.546-1.692-1.911-8.554-3.316-14.594-3.217a9.722 9.722 0 0 1 .046 4.07 1.34 1.34 0 0 1-2.626-.53 7.018 7.018 0 0 0-3.266-7.388 7.033 7.033 0 0 0-8.064.57Zm26.24 8.704a2.19 2.19 0 0 1-.237 2.565c-.535.473-1.129-.211-1.701-.854-.573-.642-1.286-1.417-.75-1.89a2.383 2.383 0 0 1 2.687.179Z" fill="#822B55" fill-rule="evenodd"/></svg>