<svg viewBox="0 0 90 90" xmlns="http://www.w3.org/2000/svg"><g fill="none"><path fill="#D8383B" d="M0 0h90v90H0z"/><path d="m74.134 32.378-3.624 6.276a2.692 2.692 0 0 1-1.614 1.228 2.566 2.566 0 0 1-1.977-.269l-1.406-.812c-.956-.552-1.676-1.773-1.361-2.513.315-.74.03-2.324-1.815-3.35-2.812-1.624-5.498-1.064-6.3.392l-1.397 2.418-8.268-4.773.848-1.468.632-1.094c1.529-2.65-1.15-4.503-1.15-4.503-4.71-2.592-10.228-3.335-15.518-2.088l-.574-2.059c15.465-8.537 23.336-2.88 26.148-1.256l5.961 3.442c1.463.844 1.15 4.502 3.21 6a4.1 4.1 0 0 0 2.98.49c.757-.976 2.12-1.211 3.122-.538l1.294.747c1.229.751 1.612 2.375.859 3.643M44.31 34.352l8.062 5-20.428 38.11a3.631 3.631 0 0 1-2.189 1.645c-.91.237-1.87.1-2.666-.38l-4.443-2.565A3.471 3.471 0 0 1 21.04 73.9a3.642 3.642 0 0 1 .536-2.77L44.31 34.352Z" fill="#FFF"/></g></svg>