<svg viewBox="0 0 90 90" xmlns="http://www.w3.org/2000/svg"><g fill="none"><path fill="#FFF" d="M0 0h90v90H0z"/><path d="M62.66 64.899c-.983 2.692-2.579 5.355-2.915 5.824-4.709 5.684-12.152 5.71-16.923.037-.67-.791-.972-1.02-1.848-.152-4.513 4.508-11.015 4.508-15.94.868-2.29-2.53-3.695-4.46-4.215-5.79-.608-1.553-2.026-7.079-1.673-13.092.1-1.705.54-3.147.984-4.851.251-.964 1.207-3.316 1.569-4.174 2.534-6.008 6.49-8.259 7.104-8.666a10.632 10.632 0 0 1 8.5-1.66c2.2.488 3.719 1.778 4.857 3.63a18.913 18.913 0 0 1 1.966 4.919c7.939-3.79 12.403-2.533 17.223 4.807.066 0 2.293 4.786 2.578 8.598.284 3.812-.285 7.01-1.267 9.702ZM60.757 40.15c-.499-.41-.532-1.02-.62-1.568-.902-5.517-4.413-8.856-9.277-10.975-1.016-.444-1.127-.906-.876-1.82a11.775 11.775 0 0 1 3.326-5.59 1.784 1.784 0 0 1 2.11-.37c1.999.8 3.62 2.33 4.535 4.278 2.155 4.504 2.587 9.245 1.748 14.133-.177 1.132-.295 1.217-.946 1.912ZM33.922 28.972c-.935-3.898.237-7.215 2.532-10.203 2.15-2.803 5.089-3.9 8.54-3.757 1.597.067 1.771.267 1.849 1.85a36.72 36.72 0 0 1-.144 5.546c-.052.455-.063.78-.74.666-4.804-.836-8.5.976-11.294 4.884-.251.344-.499.677-.743 1.014Z" fill="#000"/><path d="M52.231 40.934c2.54.37 4.48 1.786 6.146 3.62 4.694 5.177 5.991 14.924 2.853 21.236-2.154 2.415-4.745 3.975-8.082 3.739-2.82-.2-5.038-1.687-7.052-3.602-3.23-3.065-3.784-6.911-3.444-11.053a30.88 30.88 0 0 1 .717-4.807c.739-3.061 2.587-5.406 4.956-7.34.739-.603 1.204-1.516 2.143-1.886.588.045 1.183-.07 1.763.093Zm-13.83-6.22c1.94.766 2.931 2.389 3.718 4.175.248.562.37 1.176.584 1.756.518 1.48.584 2.81-.739 3.98-.47.42-.739 1.06-1.171 1.693-.717-.847-1.582-1.357-2.702-1.172-1.12.184-1.903.968-2.569 1.848a15.163 15.163 0 0 0-1.674 3.033c-.244.54-.103.813.37 1.109 1.168.74 2.31 1.538 3.448 2.337.296.207.717.31.835.995-1.293-.244-2.502-.466-3.696-.7-2.025-.387-2.029-.391-2.084 1.731a8.161 8.161 0 0 0 .602 3.624c.788 1.742 2.07 2.455 3.98 2.237.544-.27.91-.044 1.11.463.33.777.59 1.583.776 2.407.203 1.216-.13 2.218-1.242 2.873-2.103 1.216-4.243 2.24-6.782 1.387-1.733-.581-2.938-1.801-3.977-3.221-1.98-2.703-2.816-5.839-3.104-9.093-.37-4.042.018-8.017 1.818-11.751a15.718 15.718 0 0 1 7.998-7.847c1.334-.588 2.772-.962 3.973-1.849a.37.37 0 0 1 .528-.015Z" fill="#FEFEFE"/><path d="M40.615 66.685c.133.255.263.51.392.77-.1.842-.824 1.201-1.386 1.59-4.047 2.784-9.291 3.638-13.493.08a10.875 10.875 0 0 1-3.326-4.806c-1.479-4.175-1.904-8.505-1.774-12.88-.09.31-.119.677-.525.895-.348-.292-.218-.65-.13-.998.917-5.828 3.279-10.88 7.965-14.644a10.663 10.663 0 0 1 5.507-2.451c-.056.82-.74 1.142-1.294 1.479-5.48 3.387-8.785 8.209-9.653 14.628-.692 5.085-.085 9.984 2.217 14.618a8.819 8.819 0 0 0 6.682 5.029c1.556.266 2.983-.193 4.376-.77a12.86 12.86 0 0 0 3.433-2.115c.292-.24.551-.584 1.01-.425Z" fill="#A5BCCA"/><path d="M38.401 34.714c-1.02.843-2.236 1.294-3.451 1.768-5.81 2.27-9.092 6.622-10.186 12.668-1.024 5.662-.565 11.094 2.764 16.03 1.157 1.712 2.672 3.058 4.805 3.273 2.38.24 4.435-.74 6.22-2.22.392-.328.395-.887.395-1.404 0-1.11-.657-2.034-.89-3.08-.082-.37-.459-.344-.762-.37l1.394-1.19c.34 1.82.813 3.613 1.415 5.365.178.795-.266 1.364-.813 1.76-1.848 1.35-3.818 2.425-6.216 2.518-3.326.126-5.488-1.686-7.196-4.245-1.966-2.958-2.665-6.32-2.957-9.755-.325-3.727.074-7.395 1.597-10.879 1.744-3.979 4.405-7.129 8.378-9.048a15.325 15.325 0 0 0 2.861-1.734c.313-.05.632-.033.939.048.606.018 1.223.037 1.703.495Z" fill="#DBE5EC"/><path d="m20.373 51.354.1.913c.237-.74.407-1.301.58-1.848l.278.022v1.634c-.14 4.04.43 8.074 1.681 11.918 1.907 5.617 7.64 8.853 13.712 6.286a13.955 13.955 0 0 0 4.287-2.821c.532.44.687.95.14 1.46-3.19 2.959-6.741 4.907-11.287 3.868-3.082-.702-5.263-2.67-6.874-5.276-2.68-4.338-3.345-9.13-2.957-14.118.063-.684.015-1.398.34-2.038Z" fill="#87A6B8"/><path d="M58.204 70.653a5.275 5.275 0 0 1-1.848 1.63c-3.068-.403-6.235-.266-9.114-1.675a10.773 10.773 0 0 1-3.533-2.555c-.643-.74-1.578-1.11-2.218-1.804-3.404-6.105-2.853-16.023 1.175-21.118.91-.019 1.11.584.847 1.231-1.297 3.114-1.479 6.405-1.848 9.703-.813 7.325 2.121 12.118 9.24 14.096 1.921.532 3.884.451 5.842.137.51-.085 1.072-.204 1.457.355Z" fill="#ACC1CD"/><path d="M35.722 34.278c-.44 1.046-1.478 1.287-2.362 1.693-3.876 1.812-6.593 4.77-8.348 8.59-1.793 3.901-2.188 8.032-1.641 12.288a24.046 24.046 0 0 0 1.404 5.902c1.039 2.588 2.517 4.807 5.1 6.16a5.781 5.781 0 0 0 3.825.525c2.587-.51 5.112-1.231 6.398-3.912.406.281.103.873.506 1.154a17.399 17.399 0 0 1-4.63 2.987c-4.587 1.95-9.055-.51-11.132-4.485-1.523-2.917-2.092-6.046-2.406-9.296a22.241 22.241 0 0 1 2.34-12.487 19.224 19.224 0 0 1 7.298-7.688 7.5 7.5 0 0 0 1.763-1.45l.396-.051c.52-.09 1.005-.204 1.489.07Z" fill="#BFD1DC"/><path d="M58.204 70.653c-.795-.322-1.616-.082-2.377.037a13.166 13.166 0 0 1-9.712-2.304c-2.798-1.915-4.705-4.53-4.805-7.987-.118-4.212-.07-8.45 1.323-12.517.14-.439.306-.869.5-1.287.324-.665.258-1.172-.489-1.479.518-.847 1.068-1.664 2.003-2.119a2.909 2.909 0 0 0 1.69-1.18 4.315 4.315 0 0 1 2.339-.85c-.1 1.265-1.142 1.875-1.907 2.644-2.136 2.137-3.567 4.611-4.066 7.628a32.794 32.794 0 0 0-.336 3.1c-.174 2.458-.34 4.94.174 7.395.513 2.455 2.184 4.223 4.161 5.65 2.835 2.045 5.95 3.047 9.487 2.263a10.378 10.378 0 0 0 2.055-.74c.444-.2.895-.528 1.382-.077a5.15 5.15 0 0 1-1.422 1.823Z" fill="#C0D2DC"/><path d="M41.473 66.249a4.78 4.78 0 0 1 2.38 1.527c2.376 2.559 5.41 3.568 8.822 3.835 1.223.096 2.55-.063 3.677.672-2.498 1.883-5.23 2.09-8.042.936-3.249-1.335-5.426-3.812-6.837-6.97Z" fill="#82A2B6"/><path d="M50.313 40.97a4.304 4.304 0 0 1-1.478 1.75c-3.696 2.762-5.422 6.5-5.762 11.067-.181 2.44-.3 4.84.3 7.21.927 3.676 6.023 8.739 11.087 8.247 2.062-.2 3.806-1.143 5.384-2.448.44-.37.928-.673 1.394-1.01a4.516 4.516 0 0 1-.895 1.85c-4.6 3.538-9.686 2.958-14.044-.574-2.17-1.752-3.854-3.853-4.047-6.719a51.056 51.056 0 0 1 .074-6.93c.3-4.333 2.018-7.927 5.34-10.723.6-.506.984-1.18 1.48-1.778h-.02c.39-.124.811-.103 1.187.059Z" fill="#E0E9EE"/><path d="M49.116 40.934c0 .695-.451 1.11-.895 1.55a29.738 29.738 0 0 0-3.023 3.157c-2.018 2.614-2.628 5.698-2.75 8.875-.081 2.111-.273 4.26.1 6.349.65 3.646 3.23 5.88 6.224 7.602 3.522 2.027 7.088 1.923 10.507-.399a1.659 1.659 0 0 1 1.057-.4 2.56 2.56 0 0 1-.702 1.162 1.91 1.91 0 0 0-1.205.314c-4.387 2.108-8.36 1.054-12.085-1.645-1.907-1.38-3.467-3.066-4.032-5.436-.618-2.589-.418-5.2-.233-7.802.09-1.259.255-2.51.491-3.75.496-2.644 1.822-4.781 3.618-6.686.865-.913 1.848-1.734 2.491-2.828l.437-.063Z" fill="#DEE6EB"/><path d="M46.34 41.832c-.248.847-.71 1.383-1.689 1.18a4.657 4.657 0 0 1 1.689-1.18Z" fill="#ACC1CD"/><path d="m50.313 40.97-1.216-.04a5.072 5.072 0 0 1 3.134 0l-1.918.04Z" fill="#DEE6EB"/><path d="m35.722 34.278-1.478-.067a3.771 3.771 0 0 1 2.454 0l-.976.067Z" fill="#A5BCCA"/><path d="M50.276 55.777c-1.146 0-2.291-.034-3.437 0-.74.03-.942-.267-.91-.947a7.18 7.18 0 0 1 .577-2.803c.82-1.7 2.35-2.06 3.781-.824 1.678 1.442 2.332 3.405 2.561 5.546a6.693 6.693 0 0 1-.48 3.631c-.795 1.687-2.332 2.034-3.785.855a5.175 5.175 0 0 1-.657-.648c-1.686-1.963-1.62-2.34.602-3.512l1.822-.98-.074-.318Z" fill="#000"/></g></svg>