<svg viewBox="0 0 90 90" xmlns="http://www.w3.org/2000/svg"><g fill="none"><path fill="#FFF" d="M0 0h90v90H0z"/><path d="M20.127 56.871v-23.68c0-1.105.604-2.087 1.57-2.7L41.99 18.589a3.301 3.301 0 0 1 1.57-.368l3.141-4.172L43.561 10c-.725 0-1.45.245-2.054.49L15.053 26.075C13.846 26.81 13 28.16 13 29.632v30.92c0 .736.242 1.473.604 2.086h4.952l1.933-4.049c-.241-.614-.362-1.104-.362-1.718Z" fill="#3F5DB2"/><path d="M59.384 53.804V35.767l-15.34 9.08c-.363.122-.725.122-.967 0l-15.34-9.08v18.037c0 .368.241.736.483.859l14.857 8.711c.363.123.725.123.967 0L58.9 54.663c.242-.246.483-.491.483-.86Z" fill="#333D47"/><path d="M66.51 58.466a2.39 2.39 0 0 1-1.086 1.105L45.13 71.472a3.28 3.28 0 0 1-3.02 0L21.697 59.571a2.39 2.39 0 0 1-1.087-1.105l-7.006 4.05a4.197 4.197 0 0 0 1.45 1.472l26.453 15.46c1.208.736 2.778.736 4.107 0l26.453-15.46a4.197 4.197 0 0 0 1.45-1.473l-2.174-5.276-4.832 1.227Z" fill="#FFC107"/><path d="M73.396 27.546a4.197 4.197 0 0 0-1.45-1.472l-26.453-15.46c-.604-.369-1.329-.491-2.053-.491v8.098c.483 0 1.087.123 1.57.368l20.293 11.902c.966.49 1.57 1.595 1.57 2.7v23.803c0 .49-.12 1.104-.362 1.472l7.006 4.05c.362-.614.483-1.35.483-2.087V29.632c0-.736-.242-1.472-.604-2.086Z" fill="#009688"/></g></svg>