<svg viewBox="0 0 90 90" xmlns="http://www.w3.org/2000/svg"><defs><linearGradient x1="50%" y1="0%" x2="50%" y2="100%" id="a"><stop stop-color="#1C1E45" offset="0%"/><stop stop-color="#06061E" offset="100%"/></linearGradient></defs><g fill="none"><path fill="url(#a)" d="M0 0h90v90H0z"/><path d="M44.978 22c-7.857 0-14.204 5.991-14.204 13.425v16.332h5.26V35.425c0-4.66 3.995-8.432 8.944-8.432 4.95 0 8.945 3.772 8.945 8.432v9.897h5.282v-9.897C59.205 27.991 52.835 22 45 22h-.022Zm18.31 29.89a12.292 12.292 0 0 0-3.64-8.3 14.051 14.051 0 0 0-17.777-1.597 12.737 12.737 0 0 0-5.238 7.523 10.789 10.789 0 0 0-8.367-.2 10.522 10.522 0 0 0-3.53 2.33 9.386 9.386 0 0 0-2.197 3.462 9.14 9.14 0 0 0 .8 7.855 10.476 10.476 0 0 0 6.769 4.66 44.426 44.426 0 0 1 11.186-13.936 39.953 39.953 0 0 1 13.383-7.278c1.11-.333 1.554.976.51 1.376a38.463 38.463 0 0 0-12.828 9.031 38.302 38.302 0 0 0-3.018 3.64A40.872 40.872 0 0 0 34.9 68h4.284a38.41 38.41 0 0 1 3.33-4.882 37.46 37.46 0 0 1 6.103-6.036l2.397-1.664c1.176-.799 2.441-1.486 3.684-2.108.955-.466 1.554.666.666 1.11a34.354 34.354 0 0 0-10.076 9.852 35.586 35.586 0 0 0-2.153 3.64h4.883c.6-.977 1.265-1.931 1.997-2.863a31.69 31.69 0 0 1 4.883-5.082.688.688 0 0 1 .533-.222.733.733 0 0 1 .51.178c.145.13.226.316.222.51a.666.666 0 0 1-.288.466 28.803 28.803 0 0 0-2.93 3.772 32.764 32.764 0 0 0-1.82 3.196h7.813c1.997 0 3.95-.621 5.548-1.775a8.432 8.432 0 0 0 3.218-4.616 7.987 7.987 0 0 0-.443-5.503 8.744 8.744 0 0 0-3.973-4.06v-.023Z" fill="#FFF"/></g></svg>