<svg viewBox="0 0 90 90" xmlns="http://www.w3.org/2000/svg"><g fill="none" fill-rule="evenodd"><path fill="#FFF" d="M0 0h90v90H0z"/><g fill="#5238FF"><path d="M29.79 19.224a.653.653 0 0 0-.258.88l27.82 51.546c.17.314.56.43.873.258l2.06-1.135a.652.652 0 0 0 .258-.88l-27.82-51.546a.64.64 0 0 0-.873-.257l-2.06 1.134Zm-.658 31.278c3.052-3.064 3.06-8.025.017-11.08l-9.96-10.001a.649.649 0 0 1 0-.915l1.662-1.67a.643.643 0 0 1 .911 0l9.96 10.001c4.46 4.479 4.45 11.75-.023 16.241l-9.929 9.97a.643.643 0 0 1-.912 0l-1.654-1.662a.649.649 0 0 1 0-.915l9.928-9.97Zm31.736-11.13c-3.052 3.064-3.06 8.025-.017 11.08l9.96 10a.649.649 0 0 1 0 .916l-1.662 1.669a.643.643 0 0 1-.911 0l-9.96-10c-4.46-4.48-4.45-11.75.024-16.242l9.928-9.969a.643.643 0 0 1 .912 0l1.654 1.661a.649.649 0 0 1 0 .916l-9.928 9.969Z"/><path d="M60.36 19.182a.649.649 0 0 1 .257.878L32.596 71.662a.644.644 0 0 1-.875.259l-2.055-1.126a.648.648 0 0 1-.257-.878L57.43 18.315a.643.643 0 0 1 .875-.258l2.054 1.125Z"/><path d="M46.253 15.005c.356 0 .644.291.643.649l-.085 58.7c0 .358-.29.647-.645.646l-2.346-.005a.647.647 0 0 1-.643-.649l.085-58.7c0-.358.29-.647.646-.646l2.345.005Z"/></g></g></svg>