<svg viewBox="0 0 90 90" xmlns="http://www.w3.org/2000/svg"><g fill="none"><path fill="#F94F55" d="M0 0h90v90H0z"/><path d="M41.99 37.357c-5.836 0-10.141 4.198-10.141 9.822 0 5.623 4.305 9.821 10.141 9.821 5.856 0 10.18-4.198 10.18-9.821 0-5.624-4.324-9.822-10.18-9.822Zm0 4.68c2.85 0 5.003 2.118 5.003 5.142 0 3.023-2.153 5.141-5.003 5.141s-4.983-2.118-4.983-5.141c0-3.024 2.133-5.142 4.983-5.142ZM71.5 27.99a3.5 3.5 0 1 1 0 7 3.5 3.5 0 0 1 0-7Zm-7.312 9.367c-2.307 0-4.11.79-5.293 2.542v-2.041h-4.906v18.66h5.061V46.35c0-2.773 2.182-4.024 4.786-4.024 2.176 0 2.99.423 2.99.423v-4.891c-.252-.06-1.288-.501-2.638-.501Zm9.873.5H69V56.52h5.06V37.858Zm-50.374 0v-5.025h-5.06v5.026H15v4.468h3.626v7.221c0 4.834 2.385 7.453 7.039 7.453 1.585 0 3.39-.615 5.414-1.845l-1.198-3.96c-1.027.616-2.18 1.126-3.382 1.126-1.57 0-2.812-.848-2.812-3.178v-6.817h6.806v-4.468h-6.806Z" fill="#FFF"/></g></svg>