<svg viewBox="0 0 90 90" xmlns="http://www.w3.org/2000/svg"><defs><linearGradient x1="13.821%" y1="81.7%" x2="75.814%" y2="16.2%" id="a"><stop stop-color="#B400FF" offset="0%"/><stop stop-color="#FF3A52" offset="100%"/></linearGradient></defs><g fill="none"><path d="M84.824 32.113v25.76a19.224 19.224 0 0 1-9.6 16.663L54.107 87.418c-.605.349-1.227.666-1.863.952l-.1.042a19.17 19.17 0 0 1-15.375-.042l-.1-.048a19.055 19.055 0 0 1-1.766-.9l-.514-.298-20.604-12.6a19.23 19.23 0 0 1-9.594-16.66v-25.75c0-6.873 2.502-12.073 8.444-15.51L34.907 3.737a19.186 19.186 0 0 1 17.33-.952c.638.284 1.26.602 1.864.952L76.378 16.62c5.94 3.432 8.448 8.626 8.448 15.496l-.002-.002Z" fill="#FFF"/><path d="M82.976 32.111V57.87a19.224 19.224 0 0 1-9.6 16.662l-20.654 12-.874.476a1.816 1.816 0 0 1-1.806-.028 1.825 1.825 0 0 1-.894-1.572V67.076a19.189 19.189 0 0 0-15.478-.09v18.356c-.003.64-.34 1.23-.889 1.558a1.818 1.818 0 0 1-1.791.042l-.717-.384L9.641 74.522a19.228 19.228 0 0 1-9.596-16.66v-25.75A19.228 19.228 0 0 1 9.641 15.45l22.27-12.869a19.186 19.186 0 0 1 17.333-.952c.637.284 1.26.602 1.863.952l22.269 12.883a19.223 19.223 0 0 1 9.6 16.646Z" fill="url(#a)" transform="translate(3)"/><path d="M70.985 43.627a7.72 7.72 0 0 1-4.033 6.55 7.694 7.694 0 0 1-7.68-.198l-6.19-3.85a.608.608 0 0 0-.952.52V88.4a19.197 19.197 0 0 1-15.387-.045l-.1-.048V46.651a.61.61 0 0 0-.952-.52l-6.19 3.85a7.694 7.694 0 0 1-7.922.426 7.72 7.72 0 0 1-4.098-6.805 7.72 7.72 0 0 1 4.072-6.82l18.846-11.743a7.708 7.708 0 0 1 8.02 0L67.264 36.78a7.707 7.707 0 0 1 3.72 6.846Z" fill="#FFF"/><path d="M84.111 58.86a1.892 1.892 0 0 1-1.89-1.894V32.077a15.435 15.435 0 0 0-7.674-13.268L52.08 5.785a15.482 15.482 0 0 0-15.518.166L16.938 17.253a1.888 1.888 0 0 1-1.948.065 1.896 1.896 0 0 1 .067-3.345l19.59-11.289a19.26 19.26 0 0 1 19.302-.182l22.49 13.029A19.238 19.238 0 0 1 86 32.07v24.903a1.892 1.892 0 0 1-1.889 1.886Z" fill="#FF7DB7"/><path d="M75.483 19.05a1.876 1.876 0 0 1-.944-.253L52.196 5.839a1.896 1.896 0 0 1-.689-2.589 1.89 1.89 0 0 1 2.584-.69L76.44 15.517a1.895 1.895 0 0 1-.957 3.534Z" fill="#FFD6E6"/><path d="M34.889 87.202a1.88 1.88 0 0 1-.95-.258l-21.46-12.522a19.187 19.187 0 0 1-9.478-16.778V37.975c0-1.046.847-1.894 1.891-1.894s1.891.848 1.891 1.894V57.67a15.406 15.406 0 0 0 7.6 13.482l21.46 12.52a1.895 1.895 0 0 1-.954 3.53Z" fill="#811585"/><path d="M34.859 87.202c-.333 0-.66-.088-.947-.256L18.915 78.23a1.896 1.896 0 0 1-.677-2.588 1.89 1.89 0 0 1 2.576-.678l14.995 8.704a1.895 1.895 0 0 1-.95 3.532v.002Z" fill="#5B115C"/><path d="M71.736 49.873a1.89 1.89 0 0 1-1.598-.882 1.897 1.897 0 0 1-.11-1.824c.5-1.053.815-2.185.933-3.346a8.077 8.077 0 0 0-3.123-6.58L47.981 24.93a7.906 7.906 0 0 0-3.594-.902 7.692 7.692 0 0 0-4.285 1.3c-.87.58-2.043.343-2.622-.528a1.896 1.896 0 0 1 .527-2.626 11.466 11.466 0 0 1 6.406-1.934c1.91.021 3.785.507 5.465 1.416l20.184 12.542a11.988 11.988 0 0 1 4.669 9.818 14.075 14.075 0 0 1-1.286 4.778 1.89 1.89 0 0 1-1.71 1.08Z" fill="#FF7DB7"/><path d="M58.633 31.203c-.353 0-.699-.1-.998-.288l-6.437-4a1.895 1.895 0 0 1 .058-3.338 1.888 1.888 0 0 1 1.938.126l6.438 4a1.896 1.896 0 0 1-.999 3.5Z" fill="#FFD6E6"/></g></svg>