<svg viewBox="0 0 90 90" xmlns="http://www.w3.org/2000/svg"><g fill="none"><path fill="#FFF" d="M0 0h90v90H0z"/><g fill="#4ACBD6"><path d="M52.405 16c-12.33 0-22.181 9.96-22.181 22.258v4.741h12.387v-4.741c0-5.338 4.308-9.658 9.794-9.658 5.427 0 9.205 3.838 9.205 9.538 0 5.641-4.072 9.781-9.502 9.781h-4.66v12.597h4.66C64.206 60.516 74 50.499 74 38.136 74 25.3 64.855 16 52.405 16"/><path d="M15 57.759c0 1.56 1.297 3.12 3.067 3.12h11.8V72.88c0 1.56 1.298 3.12 3.067 3.12h10.09V47.5H15v10.259Z"/></g></g></svg>