<svg xmlns="http://www.w3.org/2000/svg" viewBox="0 0 90 90"><path fill="#FFF" d="M0 0h90v90H0z"/><path d="M57.28 42.067C57.28 36.505 52.799 32 47.304 32h-9.978v26h9.21V45h1.228v7.105c.706-.03 1.535-.182 1.535-.182 4.544-.937 7.983-4.988 7.983-9.856Zm22.72 0C80 36.505 75.518 32 70.022 32h-9.978v26h9.21V45h1.228v7.105c.707-.03 1.536-.182 1.536-.182C76.56 50.986 80 46.935 80 42.067Z" fill="#00A3E0"/><path d="M27.346 32H10v9.07h7.675c.246-5.05 4.483-9.07 9.671-9.07Z" fill="#003966"/><path d="M27.346 32c-5.188 0-9.425 4.02-9.67 9.07V58h9.21V41.07h7.675V32h-7.215Z" fill="#00A3E0"/></svg>