<svg xmlns="http://www.w3.org/2000/svg" viewBox="0 0 90 90"><path d="M9.944 50.306s-.927-1.126-1.475-1.746l-.775 1.803c1.115 1.633 1.834 3.06 2.25 3.736.794-1.314 2.704-5.257 6.674-8.918l-.435-1.033c-2.59 1.896-4.783 4.318-6.24 6.158" fill="#0A9BD2"/><path d="M49.69 50.682c0 1.051.623 1.596 1.588 1.765V55c-2.931-.038-4.482-1.446-4.482-4.112V36h2.893v14.682Zm9.075-9.143c-3.63 0-6.504 2.947-6.504 6.683 0 3.736 2.78 6.684 6.24 6.684 1.758 0 3.176-.676 4.008-1.614l.152.056v1.314h2.893v-12.86H62.66v.9l-.133.057c-.832-.732-2.023-1.22-3.763-1.22m.36 10.945c-2.175 0-3.952-1.877-3.952-4.262 0-2.422 1.796-4.262 3.952-4.262 1.418 0 2.666.414 3.554 1.09v5.5c-.756 1.408-2.098 1.934-3.554 1.934m8.869 2.196h2.893v-8.992a5.077 5.077 0 0 1 3.649-1.521h.624v-2.628h-.36c-1.588 0-2.892.75-3.762 1.764l-.151-.056v-1.464h-2.893V54.68ZM37.588 41.539c-3.63 0-6.505 2.947-6.505 6.683 0 3.736 2.78 6.684 6.24 6.684 1.759 0 3.177-.676 4.009-1.614l.151.056v1.314h2.93v-12.86h-2.892v.9l-.133.057c-.87-.732-2.06-1.22-3.8-1.22m.378 10.945c-2.174 0-3.97-1.877-3.97-4.262 0-2.422 1.777-4.262 3.97-4.262 1.418 0 2.666.414 3.555 1.09v5.5c-.775 1.408-2.118 1.934-3.555 1.934m44.246-10.945c-3.63 0-6.505 2.947-6.505 6.683 0 3.736 2.78 6.684 6.24 6.684 1.759 0 3.177-.676 4.009-1.614l.151.056v1.314H89v-12.86h-2.893v.9l-.132.057c-.832-.732-2.024-1.22-3.763-1.22m.36 10.945c-2.175 0-3.953-1.877-3.953-4.262 0-2.422 1.778-4.262 3.952-4.262 1.418 0 2.666.414 3.555 1.09v5.5c-.756 1.408-2.099 1.934-3.555 1.934M15.73 54.625h3.157l-2.78-6.61a32.428 32.428 0 0 0-2.117 2.498l1.74 4.112ZM28.266 41.82l-4.046 9.388h-.152l-4.046-9.388h-3.139l5.786 12.805h2.951l5.767-12.805zm-16.942-5.125h-2.78L1 54.643h3.139l5.464-12.785.265-.695H10l.265.695 1.626 3.792a35.712 35.712 0 0 1 2.326-2.084l-2.893-6.871Z" fill="#F60"/></svg>