<svg viewBox="0 0 90 90" xmlns="http://www.w3.org/2000/svg"><path d="m14.823 87.419 2.965-.109c1.635-.072 3.252-.144 3.594-.18.34-.018 1.365-.108 2.245-.162.899-.072 1.87-.144 2.157-.18a53.748 53.748 0 0 1 1.796-.18c.643-.067 1.27-.148 1.48-.189l.048-.01c.143-.036.826-.108 1.49-.18a22.043 22.043 0 0 0 1.564-.18c.18-.036.719-.127 1.204-.18.808-.127 4.402-.722 5.175-.884 2.39-.486 4.15-.883 4.24-.937.072-.036.395-.108.737-.162.323-.049 1.622-.39 3.018-.786l.467-.134c2.965-.845 3.165-.902 3.379-.985l.04-.015.067-.027c.144-.054 1.204-.433 2.336-.83a80.433 80.433 0 0 0 2.785-1.027c.395-.18.808-.342.898-.36.432-.09 1.995-.865 2.085-1.01.071-.108.053-.432-.036-.756-.18-.685-.701-3.245-.827-3.984-.036-.306-.144-.83-.233-1.172-.09-.342-.216-.955-.27-1.351-.072-.397-.144-.848-.18-.992-.094-.315-.33-1.403-.56-2.53l-.098-.484c-.258-1.285-.483-2.483-.456-2.501.03-.046 2.144 2.42 4.301 5.006l.35.42a274.165 274.165 0 0 0 2.392 2.865 58.715 58.715 0 0 1 1.474 1.803l.395.504 1.042-.595c.575-.324 1.132-.666 1.222-.739.108-.09.952-.685 1.887-1.333 3.665-2.56 7.564-6.237 10.223-9.626.809-1.045 1.6-2.036 1.743-2.217.144-.162.252-.342.252-.378 0-.034.36-.586.802-1.275l.096-.15c.485-.756.899-1.441.899-1.513 0-.144-.917-1.262-2.785-3.389-.953-1.081-1.384-1.568-2.103-2.433a421.8 421.8 0 0 0-1.057-1.232l-.278-.321a287.91 287.91 0 0 0-.138-.16c-.593-.703-1.186-1.387-1.312-1.55-.161-.18 1.114.108 4.043.956 2.336.685 4.384 1.28 4.546 1.315.144.036.683.18 1.186.325l.916.27.27-.649c.772-1.82 1.994-5.93 2.461-8.237.09-.505.198-1.063.252-1.262.044-.244.13-.754.217-1.308l.066-.42.094-.615c.036-.306.108-.793.162-1.081.072-.523.251-2.272.395-3.876.033-.478.05-2.293.054-4.224v-1.09c-.003-1.933-.021-3.753-.054-4.239-.034-.287-.076-.8-.12-1.34l-.038-.464a71.887 71.887 0 0 0-.04-.449c-.125-1.586-.161-2.037-.359-3.515-.162-1.28-.198-1.586-.341-2.343a79.47 79.47 0 0 1-.198-1.352c-.36-2.74-2.677-12.653-3.036-13.014-.054-.072-.108.09-.126.325 0 .504-.09 1.1-.234 1.874-.072.289-.162.83-.215 1.172-.504 3.046-2.642 7.949-4.69 10.815-1.294 1.802-3.701 4.362-5.175 5.515a22.03 22.03 0 0 0-.988.811c-.102.103-.954.671-1.852 1.247l-.386.246c-.706.447-1.379.859-1.679 1.013-.413.216-.79.469-.844.54-.054.073-.126 1.46-.162 3.083-.036 1.622-.126 3.244-.198 3.587-.233 1.262-.988 4.416-1.15 4.776a58.93 58.93 0 0 0-.718 1.803c-2.12 5.461-6.523 10.815-11.697 14.185-3.378 2.2-8.391 4.128-11.895 4.597-.683.09-.862.18-1.024.576-3.827 9.968-6.684 14.745-11.679 19.521-2.767 2.65-7.708 6.057-10.44 7.174-.25.09-.574.252-.718.36-.413.27-2.66 1.262-3.953 1.749l-1.168.433ZM45.71 53.874c3.288-.865 7.96-3.244 10.565-5.37 4.402-3.606 7.133-7.463 8.696-12.294.845-2.667 1.204-4.957 1.222-7.913l.018-1.694-.503-.054c-.288-.018-1.06-.09-1.707-.144-1.779-.162-4.384-.505-5.696-.757-.198-.036-.593-.126-.898-.18-.288-.055-.899-.18-1.348-.27l-.303-.072c-.353-.082-.685-.153-.81-.181-1.492-.307-5.679-1.64-7.062-2.253-.395-.18-1.24-.541-1.887-.83-3.953-1.73-6.917-3.604-14.572-9.282-1.94-1.424-3.665-2.704-3.863-2.83C20.25 4.937 14.554 3.153 6.055 2.99a80.212 80.212 0 0 0-.996-.012h-.492c-.2.002-.32.006-.327.013-.018.018-.664.054-1.42.072-.772.018-1.436.108-1.49.18-.054.09.018.162.161.162.683 0 5.606 2.325 8.068 3.821 2.425 1.478 4.348 2.956 6.253 4.831 1.994 1.983 2.245 2.29 3.557 4.236 2.246 3.37 3.486 7.048 3.72 11.157.035.577.09 1.064.125 1.082.034.034.768.435 1.678.918l.173.091c1.869.991 5.372 3.245 6.27 4.056.288.252.594.45.665.45.13 0 1.331 1.162 2.585 2.444l.565.582c.997 1.036 1.93 2.05 2.277 2.508 3.144 4.146 4.905 8.688 5.408 13.843.036.487.09.92.09.955.036.108 1.455-.162 2.785-.505Zm2.893-37.094 1.383-2.037-.503-.667c-.503-.703-2.57-2.776-3.324-3.335-1.527-1.171-5.103-2.812-6.11-2.83-.16 0-1.041 1.136-2.101 2.686l-1.833 2.686.683.54c1.491 1.19 4.761 3.19 7.187 4.399 3 1.514 2.497 1.676 4.618-1.442ZM.198 87.995c.18-.18 2.587-3.695 6.522-9.517l.126-.187.191-.285c2.05-3.044 4.974-7.344 16.752-24.69l9.685-14.276-1.33-1.316c-.737-.72-1.886-1.748-2.587-2.27a39.97 39.97 0 0 1-1.348-1.064c-.197-.217-3.88-2.47-4.222-2.578-.324-.09-1.276 1.208-7.547 10.473l-.713 1.05-.715 1.053c-3.49 5.142-6.87 10.127-7.897 11.65-1.186 1.73-3.252 4.794-4.635 6.813L0 66.51v12.423c.008 6.463.064 9.196.198 9.062Z" fill="#34A76A"/></svg>