<svg viewBox="0 0 90 90" xmlns="http://www.w3.org/2000/svg"><g fill="none"><path fill="#FFF" d="M0 0h90v90H0z"/><path d="M23.213 15c-2.06 0-3.968.122-4.153.214-.307.183-.369 1.282-.46 6.656-.093 6.046-.124 6.474-.555 6.779-.307.244-1.23.305-3.353.305-3.845 0-3.691-.183-3.691 4.214 0 4.214-.154 4.061 3.845 4.061 2.246 0 2.892.061 3.169.336l.43.397.154 14.351c.123 14.351.123 14.351.677 15.634 1.076 2.687 3.291 4.885 5.968 5.923 1.107.458 1.845.55 4.922.61 3.107.093 3.66.031 3.999-.304.307-.306.369-.916.369-3.848 0-2.534-.062-3.572-.277-3.725a6.813 6.813 0 0 0-2.123-.366c-2.091-.184-2.768-.52-3.476-1.924-.43-.824-.461-1.405-.553-13.344l-.062-12.458.646-.671c.615-.611.708-.611 3.015-.611 2.245 0 2.46-.061 2.953-.61.554-.49.554-.642.554-3.665 0-4.091.092-3.97-3.661-3.97-2.584 0-2.769-.03-3.107-.518-.308-.428-.37-1.466-.37-6.657 0-6.046 0-6.107-.522-6.443-.4-.305-1.23-.366-4.307-.366h-.03Zm23.503 14.198c-3.846 0-4.123 0-4.615.489-.291.275-.43.674-.369 1.069.062.336 3.076 5.068 6.706 10.534a150.81 150.81 0 0 1 6.645 10.412c0 .306-3.138 5.13-6.922 10.81-7.383 10.992-7.567 11.328-6.429 12.122.43.305 1.261.366 4.399.366 2.338 0 4.06-.092 4.43-.244.369-.183 1.907-2.443 4.645-6.779 2.245-3.603 4.307-6.717 4.614-6.87 1.138-.733 1.384-.458 5.845 6.656 1.4 2.46 3.005 4.8 4.799 6.993.307.152 2.184.244 4.46.244 3.876 0 3.938 0 4.492-.58.307-.305.584-.702.584-.886 0-.213-2.4-3.939-5.353-8.305-7.075-10.534-8.736-13.13-8.736-13.618 0-.214 3.015-4.886 6.706-10.382 7.045-10.504 7.26-10.9 6.153-11.664a28.664 28.664 0 0 0-9.045-.061c-.246.183-2.214 3.145-4.368 6.595a44.111 44.111 0 0 1-4.368 6.32c-1.138.245-1.415-.09-5.353-6.35a69.543 69.543 0 0 0-4.337-6.535c-.37-.274-1.353-.336-4.614-.336h.03Z" fill="#0063AB"/></g></svg>