<svg xmlns="http://www.w3.org/2000/svg" viewBox="0 0 90 90"><path fill="#FFF" d="M0 0h90v90H0z"/><path d="m37.496 44.788-2.968 2.547c-1.917 1.566-4.146 2.136-6.555.827-6.464-3.51-11.474-9.51-11.968-18.6a3.75 3.75 0 0 1-.005-.18c0-5.74 2.515-10.437 7.044-14.01C28.204 11.3 34.858 10 41.343 10c7.31 0 15.66 2.576 22.388 6.468 2.39 1.382 3.905 2.823.743 5.5l-1.761 1.493c-4.003 3.39-6.226 1.026-8.147.066-3.971-1.986-8.41-2.69-13.036-2.69-5.55 0-14.282 1.689-14.282 8.637 0 .1-.006.2-.014.3-.056.604.024 1.18.202 1.726 1.431 4.373 5.617 6.591 9.702 8.58 2.326 1.134 2.219 3.103.358 4.708" fill="#0067AF"/><path d="m47.464 41.24 3.09-2.607c2.087-1.763 5.24-1.743 7.63-.66 6.324 2.866 12.398 6.785 14.832 14.196.646 1.968.984 4.033.984 6.075 0 6.793-2.82 12.408-8.584 16.34-5.72 3.9-12.38 5.416-19.302 5.416-8.345 0-20.866-2.37-28.143-8.385-2.305-1.907-2.886-3.143-.121-5.459l1.98-1.66c3.549-2.97 4.89-1.534 7.3-.202 1.85 1.023 3.831 1.852 5.792 2.57 4.083 1.494 8.453 2.126 12.806 2.126 4.375 0 8.769-.788 12.427-3.24 2.75-1.844 4.191-4.237 4.191-7.506 0-2.252-.992-4.598-2.665-6.147-2.228-2.303-8.097-4.465-11.601-6.114-2.483-1.169-2.225-3.232-.616-4.743" fill="#4DA1FF"/></svg>