<svg xmlns="http://www.w3.org/2000/svg" viewBox="0 0 90 90"><path fill="#FFF" d="M0 0h90v90H0z"/><g fill="#F50002"><path d="M15.292 38.935h-.1a.187.187 0 0 1-.187-.188.192.192 0 0 1 0-.086c7.26-16.607 26.571-24.17 43.134-16.891a32.79 32.79 0 0 1 16.847 16.89.188.188 0 0 1-.173.26h-.087a18.335 18.335 0 0 0-9.16-2.22A17.304 17.304 0 0 0 55.4 39.584a.187.187 0 0 1-.115 0h-.115a19.285 19.285 0 0 0-20.334 0 .186.186 0 0 1-.115 0h-.101A17.313 17.313 0 0 0 24.452 36.7a18.37 18.37 0 0 0-9.146 2.235h-.014Z"/><path d="M46.713 39.151a.158.158 0 0 0-.143-.159 13.96 13.96 0 0 0-1.61-.1 13.585 13.585 0 0 0-1.367 0 .16.16 0 0 0-.144.158v26.862a2.765 2.765 0 0 1-2.761 2.768 2.76 2.76 0 0 1-2.602-1.846 1.639 1.639 0 0 0-3.12.966 6.022 6.022 0 0 0 7.576 3.91 6.04 6.04 0 0 0 4.186-5.798l-.015-26.761Z"/></g></svg>