<svg viewBox="0 0 90 90" xmlns="http://www.w3.org/2000/svg"><g fill="none" fill-rule="evenodd"><path fill="#4A54F5" d="M0 0h90v90H0z"/><path d="M57.858 15c-9.468 0-17.143 7.675-17.143 17.142v3.212h8.57v-3.212a8.58 8.58 0 0 1 8.573-8.57 8.58 8.58 0 0 1 8.57 8.57c0 4.73-3.848 8.573-8.57 8.573H32.142a17.142 17.142 0 1 0 0 34.285h3.212v-8.573h-3.212a8.58 8.58 0 0 1-8.57-8.57c0-4.729 3.848-8.572 8.57-8.572h8.573V75h8.57V49.285h8.573C67.325 49.285 75 41.61 75 32.142 75 22.675 67.325 15 57.858 15Z" fill="#FFF" fill-rule="nonzero"/></g></svg>