<svg viewBox="0 0 90 90" xmlns="http://www.w3.org/2000/svg"><g fill="none"><path fill="#FFF" d="M0 0h90v90H0z"/><path d="M45.501 21.315C-3.727 25.56 12.713 50.252 31.614 61.107c19.223 11.042 28.17 13.068 39.292-4.046-.006 0 23.824-39.99-25.405-35.746ZM33.19 44.848c0-1.568 1.305-2.853 2.898-2.853h14.565c1.593 0 2.899 1.285 2.899 2.853 0 1.567-1.306 2.852-2.899 2.852H36.088c-1.593.006-2.898-1.279-2.898-2.852Zm26.578 11.007H40.159c-1.593 0-2.898-1.284-2.898-2.852 0-1.568 1.305-2.852 2.898-2.852h19.609c1.593 0 2.898 1.284 2.898 2.852 0 1.568-1.305 2.852-2.898 2.852Zm0-16.305H31.327c-1.593 0-2.899-1.284-2.899-2.852 0-1.568 1.306-2.852 2.899-2.852h28.44c1.594 0 2.899 1.284 2.899 2.852 0 1.568-1.305 2.852-2.898 2.852Z" fill="#05202D"/></g></svg>