<svg viewBox="0 0 90 90" xmlns="http://www.w3.org/2000/svg"><g fill="none" fill-rule="evenodd"><path fill="#FFF" fill-rule="nonzero" d="M0 0h90v90H0z"/><path d="m67.7 48.723 11.63 7.71-5.113-12.154 10.738-8.913h-13.15L67.707 24l-3.77 11.366h-2.039L57.801 24l-3.805 11.366h-1.862L48.037 24l-3.734 11.177 2.076 1.035 1.764-6.657 2.198 7.974h8.821l-7.853 5.745 3.702 7.657-6.974-4.747-.007 2.539 11.629 7.71-5.113-12.154 8.132-6.75h6.25l-7.854 5.745 3.702 7.657-6.975-4.747-.006 2.539 11.628 7.71-5.112-12.154 8.132-6.75h6.39l-7.853 5.745 3.702 7.657-6.975-4.747-.006 2.539ZM56.369 35.366l1.54-5.811 1.601 5.81h-3.141Zm9.906 0 1.54-5.811 1.602 5.81h-3.142Z" fill="#023F88" fill-rule="nonzero"/><path d="m9.163 33.654.077-.038zm-1.645 6.945-.078.038zm-1.652 6.888-.077.038z"/><path d="M44.614 34.031c-1.913-.779-4.622-1.559-7.827-1.56-2.978-.001-6.384.683-9.907 2.65-3.963 2.21-7.096 2.954-9.525 2.954-1.517 0-2.768-.287-3.809-.711a9.024 9.024 0 0 1-4.12-3.394 5.656 5.656 0 0 1-.209-.355l-.004-.009-.054.027-.785 2.4c.336.41.761.868 1.287 1.328a11.02 11.02 0 0 0 3.1 1.915c1.278.522 2.81.866 4.59.866h.004c2.861 0 6.346-.88 10.538-3.218 3.206-1.787 6.23-2.384 8.894-2.386 2.864 0 5.314.702 7.043 1.406a17.715 17.715 0 0 1 2.31 1.14l.553-2.067a20.042 20.042 0 0 0-2.08-.986Z" fill="#C4122F" fill-rule="nonzero"/><path d="m9.24 33.617-.002-.005-.073.037-.002.006.077-.038Z" fill="#C0223D" fill-rule="nonzero"/><path fill="#FFF" fill-rule="nonzero" d="M9.16 33.633v-.005l-.222.112z"/><path d="M42.892 41.014c-1.914-.779-4.622-1.56-7.828-1.56-2.977-.002-6.384.682-9.906 2.65-3.964 2.21-7.096 2.954-9.526 2.954-1.516 0-2.768-.288-3.808-.712a9.022 9.022 0 0 1-4.12-3.394 5.643 5.643 0 0 1-.215-.366l-.05.025-.002.004.053-.026-.053.026-.786 2.4c.337.41.762.869 1.287 1.329a11.04 11.04 0 0 0 3.1 1.915c1.279.522 2.81.865 4.59.865h.004c2.862 0 6.346-.879 10.538-3.218 3.207-1.786 6.23-2.384 8.894-2.386 2.865 0 5.315.702 7.044 1.407a17.723 17.723 0 0 1 2.31 1.139L44.97 42a20.01 20.01 0 0 0-2.078-.986Z" fill="#C4122F" fill-rule="nonzero"/><path fill="#FFF" fill-rule="nonzero" d="m7.437 40.615.001-.004-.222.112z"/><path d="M41.24 47.902c-1.913-.778-4.622-1.559-7.827-1.56-2.978-.001-6.384.683-9.907 2.65-3.963 2.21-7.095 2.955-9.525 2.955-1.517-.001-2.768-.288-3.809-.712a9.024 9.024 0 0 1-4.12-3.394 5.546 5.546 0 0 1-.209-.355l-.006-.012-.05.026-.002.004.054-.026-.054.026-.785 2.4c.336.41.761.868 1.287 1.328a11.04 11.04 0 0 0 3.1 1.915c1.278.522 2.809.866 4.588.866h.006c2.861 0 6.346-.88 10.538-3.218 3.206-1.787 6.23-2.384 8.894-2.386 2.864 0 5.315.702 7.043 1.406a17.713 17.713 0 0 1 2.31 1.14l.553-2.067a20.08 20.08 0 0 0-2.079-.986Z" fill="#C4122F" fill-rule="nonzero"/><path fill="#FFF" fill-rule="nonzero" d="m5.785 47.504.002-.004-.222.111z"/><path fill="#C4122F" fill-rule="nonzero" d="M8.15 65.992H6.72v-4.277H5.538v-1.207h3.795v1.207H8.15zm15.197-.069h-1.78l-1.35-2.109h-.015v2.11h-1.43v-5.485h2.138c1.087 0 1.912.516 1.912 1.688 0 .756-.424 1.41-1.204 1.549l1.729 2.247Zm-3.145-3.026h.139c.467 0 .992-.087.992-.683 0-.597-.525-.684-.992-.684h-.139v1.367Zm11.301-2.458h1.43v5.485h-1.43zm14.266 1.771c-.292-.392-.767-.603-1.255-.603-.876 0-1.467.669-1.467 1.52 0 .865.598 1.49 1.488 1.49a1.65 1.65 0 0 0 1.234-.581v1.71c-.475.145-.818.254-1.263.254a3.068 3.068 0 0 1-2.065-.808c-.605-.545-.883-1.258-.883-2.073 0-.749.285-1.469.81-2.007a2.986 2.986 0 0 1 2.095-.888c.46 0 .882.102 1.306.277v1.71Zm10.594 2.83-.379.952h-1.518l2.116-5.484h1.562l2.072 5.484h-1.525l-.357-.952h-1.97Zm1-2.837h-.014l-.592 1.745h1.19l-.584-1.745Zm15.854 3.72h-1.78l-1.35-2.109h-.015v2.11h-1.43v-5.485h2.138c1.087 0 1.912.516 1.912 1.688 0 .756-.423 1.41-1.204 1.549l1.73 2.247Zm-3.145-3.026h.14c.466 0 .991-.087.991-.683 0-.597-.525-.684-.992-.684h-.139v1.367ZM83.3 61.646v.917h1.612v1.207H83.3v.946H85v1.207h-3.13V60.44H85v1.207z"/></g></svg>