<svg viewBox="0 0 90 90" xmlns="http://www.w3.org/2000/svg"><g fill="none"><path fill="#FFF" d="M0 0h90v90H0z"/><g fill="#0063A3"><path d="M20.747 60.846V75l12.38-7.104a23.62 23.62 0 0 1-12.38-7.05Zm12.289-38.802L20.746 15v14.07a23.76 23.76 0 0 1 12.29-7.026ZM73 45l-12.374-7.104a23.438 23.438 0 0 1-.036 14.232L73 45ZM28.897 25.752c1.774-.39 5.46 0 7.41.534a11.312 11.312 0 0 1 6.256-2.07 24.935 24.935 0 0 0-13.666 1.536Zm23.584 25.752a31.698 31.698 0 0 0-1.937-7.878c-4.223 1.908-9.484.678-12.989-2.34a57.607 57.607 0 0 0-6.896 8.706c5.943 4.818 15.717 6.084 21.822 1.512Zm-25.074-1.05c-5.237-5.34-7.065-13.122-5.387-19.104-7.132 8.353-6.606 20.755 1.206 28.482a37.935 37.935 0 0 1 4.181-9.378Zm22.184-9.09a28.292 28.292 0 0 0-4.223-6.468 48.672 48.672 0 0 0-6.033 4.662c3.173 2.622 7.324 3.138 10.256 1.806Zm-3.939-9.732a21.954 21.954 0 0 1 4.597-2.538c-3.355-3.372-8.748-3.282-11.095-1.8a22.434 22.434 0 0 1 6.498 4.338Z"/><path d="M29.32 52.2c-2.607 4.482-3.56 7.8-3.91 9.522 7.77 5.81 18.524 5.595 26.051-.522a17.912 17.912 0 0 0 1.207-6.798c-7.216 4.272-17.158 2.64-23.348-2.202Zm22.322-12.33c2.311-2.4 1.847-6.504.091-8.868a17.881 17.881 0 0 0-4.302 2.508 31.623 31.623 0 0 1 4.211 6.36Zm3.982-5.16a8.436 8.436 0 0 1-2.92 7.554 34.276 34.276 0 0 1 2.01 7.056c3.167-4.092 3.07-9.936.91-14.61Zm-18.003 3.03a50.112 50.112 0 0 1 5.937-4.674 20.032 20.032 0 0 0-6.528-3.954c-1.967 2.622-1.363 6.006.591 8.628Zm17.472 14.874a29.49 29.49 0 0 1-.259 5.328 21.14 21.14 0 0 0 4.41-14.7 16.05 16.05 0 0 1-4.15 9.372ZM34.569 28.368a17.238 17.238 0 0 0-8.387.054c-4.156 5.862-2.226 14.448 2.613 19.8a60.538 60.538 0 0 1 7.028-8.748c-2.461-3.042-3.438-7.74-1.254-11.106Z"/></g></g></svg>