<svg viewBox="0 0 90 90" xmlns="http://www.w3.org/2000/svg"><g fill="none" fill-rule="evenodd"><path fill="#F6F1EB" fill-rule="nonzero" d="M0 0h90v90H0z"/><path d="M54.287 39.4c.077-.047.149-.1.22-.153.11-.08.22-.159.343-.225.171-.088.348-.164.525-.241l.125-.054a8.829 8.829 0 0 1 2.122-.618 6.094 6.094 0 0 0-.477-1.258 6.563 6.563 0 0 0-.413-.675 6.072 6.072 0 0 0-1.317-1.347 5.833 5.833 0 0 0-3.445-1.185.528.528 0 0 1-.058-.004c-.02-.001-.038-.004-.057-.004-.791 0-1.563.2-2.295.507l-.077.03c-.038.014-.076.025-.112.042-.041.02-.086.035-.13.05a.885.885 0 0 0-.176.07 2.525 2.525 0 0 0-.33.216l-.131.094c-.428.279-.82.611-1.164.99a6.914 6.914 0 0 0-.487.632.102.102 0 0 1 .007.026v.002c.08.318.164.639.25.96l.036.14c.733 2.623 1.743 5.321 3.032 8.09h.004a8.94 8.94 0 0 1 2.795-5.186 9.318 9.318 0 0 1 1.209-.901l.002.002Zm10.588 14.117c-.538.487-1.112.934-1.766 1.278a8.748 8.748 0 0 1-4.127 1.037 8.771 8.771 0 0 1-3.211-.62v.015a107.073 107.073 0 0 0 4.341 6.109l.267.348.128.16c.056.076.112.15.17.224.047.06.093.12.138.183.065.007.132.008.198.01.04 0 .078.004.115.005l.082.009c.139.014.276.028.42.028.358 0 .717-.066 1.07-.132l.02-.003.097-.019c.135-.023.27-.05.402-.084a6.17 6.17 0 0 0 1.057-.408.73.73 0 0 1 .07-.028.457.457 0 0 0 .072-.028c.03-.014.057-.035.085-.056a.722.722 0 0 1 .084-.056 5.952 5.952 0 0 0 2.174-2.178 5.898 5.898 0 0 0 .784-2.302 6.065 6.065 0 0 0-.56-3.38.83.83 0 0 1-.034-.082.655.655 0 0 0-.041-.1 5.73 5.73 0 0 0-.862-1.228c-.04.053-.076.11-.112.164-.064.096-.125.188-.199.274a8.353 8.353 0 0 1-.858.858l-.004.002Zm-5.29-13.641c.014 0 .028 0 .04.002h.002a6.998 6.998 0 0 1 5.553 3.731c.567 1.087.808 2.273.779 3.472-.009.37-.05.745-.119 1.115l-.027.158a4.851 4.851 0 0 1-.137.644c-.025.092-.064.175-.103.259a2.403 2.403 0 0 0-.1.233l-.062.162c-.085.222-.17.444-.283.653a6.01 6.01 0 0 1-.503.751c-.127.18-.25.352-.392.52a7.25 7.25 0 0 1-.804.801c-.338.273-.7.515-1.08.723a.417.417 0 0 0-.046.032.226.226 0 0 1-.05.033 6.996 6.996 0 0 1-3.271.823 6.993 6.993 0 0 1-4.23-1.443 7.064 7.064 0 0 1-1.97-2.324 7.137 7.137 0 0 1-.784-2.686c-.024-.288-.008-.576.007-.865l.003-.077a7.127 7.127 0 0 1 1.913-4.54 6.936 6.936 0 0 1 1.783-1.403c.205-.11.419-.2.636-.29l.3-.115a6.731 6.731 0 0 1 1.165-.3c.323-.057.65-.09.977-.102.064-.004.129-.01.191-.01.137 0 .27.013.404.024l.143.012c.022.004.044.005.065.007Z" fill="#DD8217"/><path d="M48.704 22c1.794 4.123.574 8.206-.723 10.859a7.85 7.85 0 0 0-1.244.89c-.877-2.733-1.583-7.514 1.967-11.749ZM18.308 42.32a.884.884 0 0 0-.32-.056c-1.015 0-2.715 1.287-3.866 3.671-.844 1.743-2.213 5.932.39 11.188.323-2.682 1.72-5.787 4.223-9.384.611-3.802.06-5.217-.429-5.418l.002-.001Zm2.777 10.19.03-.343c-.26-.72-.581-1.416-.962-2.08a8.545 8.545 0 0 0-.398-.607c-.18.265-.338.525-.496.785l-.153.25c-.87 1.4-1.555 2.716-2.02 3.933-.15.49-.32 1.006-.49 1.528-.334 1.29-.424 2.453-.24 3.491.063.36.158.71.287 1.046.03.08.072.16.116.24l.06.117c.853 1.8 2.735 3.21 5.636 4.207-1.388-2.94-1.856-7.144-1.37-12.566v-.001Zm2.855 1.942.763.454h-.001c1.114.665 2.273 2.883 3.494 5.24 1.294 2.474 2.76 5.272 4.694 7.29-2.762.91-5.125.717-6.828-.594a5.552 5.552 0 0 1-.751-.688c-.088-.1-.17-.206-.245-.316l-.104-.143c-.547-.72-1-1.599-1.345-2.643-.413-1.251-.68-2.735-.802-4.422a34.17 34.17 0 0 1-.028-4.19l.012-.304.01-.253c.27.122.572.27.883.433l.099.055.149.081Zm14.006 5.98c-2.193-3.266-4.27-6.344-7.676-7.397-1.726.034-2.875.558-3.584 1.04l-.011.006a.71.71 0 0 0-.065.037c.76.791 1.46 1.931 2.176 3.233a93.81 93.81 0 0 1 1.036 1.935l.17.323v.002c.285.541.573 1.09.867 1.635.687 1.26 1.416 2.499 2.22 3.581.44.588.904 1.13 1.399 1.603.28.27.57.52.873.745.985.73 2.079 1.173 3.322 1.173 1.355 0 2.857-.525 4.49-1.557-2.094-1.715-3.67-4.057-5.218-6.356l.001-.003ZM52.94 31.869c2.301-1.7 4.89-4.467 5.345-8.534-4.746 1.72-6.614 5.7-7.363 8.514a7.46 7.46 0 0 1 2.016.019l.002.001Zm14.064 30.05a7.872 7.872 0 0 0 2.086-3.433v-.001c.97-.257 1.967-.39 2.97-.394 1.673 0 3.33.38 4.94 1.116-2.189 1.878-4.909 2.83-8.106 2.83-.659 0-1.286-.05-1.891-.118h.001Zm-2.628 1.719a7.722 7.722 0 0 1-1.877.458c1.439 2.308 4.116 5.402 8.42 5.904-1.36-3.679-4.16-5.472-6.542-6.362h-.001Zm-4.963-25.82a7.825 7.825 0 0 0-.658-1.829 7.627 7.627 0 0 0-.96-1.406c1.67-2.188 4.186-4.233 7.95-4.915-1.016 3.98-3.729 6.546-6.332 8.15Zm17.44 10.177a12.396 12.396 0 0 0-4.206-.757c-1.86 0-3.532.46-4.98 1.088l-.019.117c-.05.372-.127.74-.23 1.102-.088.288-.212.558-.336.83l-.092.203c.374.36.718.75 1.017 1.184 3.627-.179 6.601-1.437 8.847-3.767h-.001ZM58.719 62.557a113.224 113.224 0 0 1-4.656-6.578l-.22-.335c-1.902-2.957-3.539-5.843-4.893-8.671a61.89 61.89 0 0 1-1.38-3.093 52.974 52.974 0 0 1-1.668-4.57 46.46 46.46 0 0 1-.918-3.38 41.071 41.071 0 0 1-.636-3.32c-2.183 2.48-6.364 7.91-6.974 13.483a.805.805 0 0 1-.01.055.57.57 0 0 0-.012.07c.87.188 1.697.585 2.502 1.141.641.44 1.263 1.005 1.886 1.63 1.675 1.695 3.31 3.968 5.064 6.423 2.056 2.882 4.246 5.935 6.756 8.324a21.065 21.065 0 0 0 2.444 2.016c.578.4 1.18.745 1.794 1.054l.131.072c.177.084.357.165.541.243 1.45.624 2.995.976 4.674.93a141.718 141.718 0 0 1-3.372-4.137c-.36-.452-.71-.906-1.054-1.354v-.001l.001-.002Zm-13.39-6.067c-3.004-4.217-5.848-8.176-8.751-8.502-1.95.222-3.503 1.308-4.712 3.289l-.08.125c-.038.056-.076.112-.112.174.612.249 1.167.57 1.7.922.706.457 1.355.984 1.96 1.575 1.579 1.543 2.866 3.45 4.125 5.327 1.613 2.404 3.196 4.703 5.293 6.255.257.193.51.38.784.546.284.174.584.316.89.458 1.201.566 2.553.913 4.168.913 1.208 0 2.54-.195 3.974-.563-3.618-2.657-6.54-6.736-9.24-10.52v.001Z" fill="#211C17"/></g></svg>