<svg xmlns="http://www.w3.org/2000/svg" viewBox="0 0 90 90"><defs><linearGradient x1="50%" y1="100%" x2="50%" y2="0%" id="a"><stop stop-opacity="0" offset="0%"/><stop stop-color="#F7F7F7" stop-opacity=".2" offset="100%"/></linearGradient><linearGradient x1="49.464%" y1="48.599%" x2="48.378%" y2="30.087%" id="b"><stop stop-opacity=".3" offset="0%"/><stop stop-color="#FFD500" stop-opacity="0" offset="100%"/></linearGradient><linearGradient x1="47.842%" y1="99.04%" x2="50.288%" y2="31.386%" id="c"><stop stop-color="#1389EA" stop-opacity="0" offset="0%"/><stop stop-opacity=".2" offset="79.34%"/></linearGradient><linearGradient x1="25.904%" y1="21.603%" x2="97.604%" y2="82.487%" id="d"><stop stop-opacity=".3" offset="14.7%"/><stop stop-color="#FFD500" stop-opacity="0" offset="100%"/></linearGradient><linearGradient x1="45.003%" y1="50%" x2="-1.1%" y2="50%" id="e"><stop stop-color="#1389EA" stop-opacity="0" offset="0%"/><stop stop-opacity=".2" offset="100%"/></linearGradient><linearGradient x1="49.371%" y1="50%" x2="95.474%" y2="50%" id="f"><stop stop-color="#1389EA" stop-opacity="0" offset="15.79%"/><stop stop-opacity=".2" offset="100%"/></linearGradient></defs><path fill="#2F2F2F" d="M0 0h90v90H0z"/><path fill="url(#a)" d="M0 0h90v90H0z"/><path d="m52.144 34.035-10.083-.24 19.27-17.411a2.372 2.372 0 0 1 3.5.153l4.068 4.813c.394.81.306 1.75-.22 2.472l-6.32 8.574c-2.383 3.236-6.211 1.705-10.215 1.639Z" fill="#FFD500"/><path d="m29.188 18.348-10.084-.24L38.374.697a2.372 2.372 0 0 1 3.5.154l4.068 4.812c.395.81.306 1.75-.219 2.472l-6.321 8.575c-2.383 3.235-6.21 1.704-10.214 1.638Z" fill="url(#b)" transform="translate(22.957 15.687)"/><path d="m50.964 69.185-7.547 6.628c-1.53 1.356-3.959.262-3.959-1.794V33.334l11.09 6.847a2.449 2.449 0 0 1 1.137 2.013l.088 25.176c0 .721-.284 1.378-.809 1.815Z" fill="#1389EA"/><path d="m28.007 53.498-7.546 6.628c-1.531 1.357-3.96.262-3.96-1.794V17.648l11.09 6.846a2.449 2.449 0 0 1 1.137 2.013l.088 25.176c0 .722-.283 1.378-.809 1.815Z" fill="url(#c)" transform="translate(22.957 15.687)"/><path d="M51.686 56.28V42.192a2.37 2.37 0 0 0-1.093-1.99l-21.328-13.78-5.84 7.852c-.808 1.093-.546 2.647.592 3.39l27.67 18.614Z" fill="#FFD500"/><path d="M28.73 40.593V26.506a2.37 2.37 0 0 0-1.094-1.99L6.31 10.736.47 18.588c-.809 1.094-.546 2.647.591 3.39l27.67 18.615Z" fill="url(#d)" transform="translate(22.957 15.687)"/><path d="M58.903 35.632H24.015c-.897 0-1.202-.591-.677-1.312l7.087-9.996a2.377 2.377 0 0 1 1.947-1.006H68.4c.24 0 .656 0 .503.197L60.83 34.65a2.356 2.356 0 0 1-1.927.982Z" fill="#1389EA"/><path d="M35.947 19.945H1.059c-.897 0-1.203-.591-.678-1.312l7.087-9.995a2.377 2.377 0 0 1 1.948-1.006h36.026c.24 0 .657 0 .503.197l-8.072 11.134a2.356 2.356 0 0 1-1.926.982Z" fill="url(#e)" transform="translate(22.957 15.687)"/><path d="M35.947 19.945H1.059c-.897 0-1.203-.591-.678-1.312l7.087-9.995a2.377 2.377 0 0 1 1.948-1.006h36.026c.24 0 .657 0 .503.197l-8.072 11.134a2.356 2.356 0 0 1-1.926.982Z" fill="url(#f)" transform="translate(22.957 15.687)"/><path d="M55.213 47.018v-4.91h2.166c.435 0 .808.07 1.12.208.31.137.55.337.718.6.169.261.252.574.252.939 0 .36-.084.67-.252.93-.168.259-.408.46-.719.602-.311.143-.684.215-1.119.215h-1.654l.4-.421v1.838h-.912v-.001Zm.911-1.74-.4-.449h1.613c.402 0 .705-.085.909-.255.203-.171.304-.411.304-.72 0-.308-.1-.548-.304-.718-.204-.17-.507-.256-.909-.256h-1.612l.4-.449v2.847Zm-.911 8.752v-4.908h.911v3.926h3.388v.983zm2.146 7.084c-.67 0-1.194-.19-1.575-.568-.381-.38-.571-.928-.571-1.648v-2.763h.912v2.734c0 .505.108.872.326 1.101.217.23.524.344.922.344s.704-.114.92-.344c.214-.229.322-.596.322-1.101v-2.734h.897v2.763c0 .72-.19 1.27-.572 1.648-.381.379-.908.568-1.581.568Zm-.022 7.015a3.63 3.63 0 0 1-1.097-.166c-.348-.11-.628-.251-.838-.424l.315-.708c.197.154.44.283.73.385.29.104.586.155.89.155.257 0 .465-.028.624-.085a.743.743 0 0 0 .35-.227.515.515 0 0 0 .113-.327.45.45 0 0 0-.161-.36 1.187 1.187 0 0 0-.417-.218 6.517 6.517 0 0 0-.569-.148 6.842 6.842 0 0 1-.624-.164 2.836 2.836 0 0 1-.571-.25 1.193 1.193 0 0 1-.418-.403c-.105-.168-.158-.383-.158-.645 0-.267.072-.51.214-.733.143-.222.36-.4.653-.533.293-.133.663-.2 1.112-.2.294 0 .586.037.876.112.29.075.543.183.758.323l-.288.708a2.69 2.69 0 0 0-1.353-.385c-.248 0-.452.03-.61.091a.731.731 0 0 0-.348.242.555.555 0 0 0-.108.333c0 .15.052.27.158.361.104.092.242.163.413.214.17.052.361.101.571.147.21.047.419.102.625.166a2.7 2.7 0 0 1 .568.245c.172.1.312.234.417.4.105.166.157.378.157.634 0 .263-.07.505-.214.727-.142.221-.36.4-.655.533-.294.133-.666.2-1.115.2Z" fill="#F7F7F7"/></svg>