<svg viewBox="0 0 90 90" xmlns="http://www.w3.org/2000/svg"><path d="M63.837 90v-.04c.012-.844.473-14.92 19.012-14.92 0 0 1.484-4.696-4.851-4.696 0 0-2.654-5.338-7.974-5.351-.206-.404-3.088-5.801-9.668-5.644h-4.113c-1.443-2.002-4.493-5.232-9.157-5.232a15.421 15.421 0 0 0-6.138-4.227c-.565-.893-.898-1.95-.898-3.204 0-8.343 9.919-12.594 9.919-20.143 0-7.548-9.065-11.56-14.8-11.958 0 0 7.936 1.113 7.936 5.324 0 4.21-13.727 7.826-13.727 17.44 0 4.147 1.22 8.165 4.115 11.398-4.173-.215-13.442-1.58-13.442-9.488 0-10.204 12.131-15.402 12.131-24.634 0-9.232-11.086-14.14-18.1-14.625 0 0 9.706 1.36 9.706 6.51C23.788 11.662 7 16.083 7 27.84 7 39.1 14.33 49.6 35.195 50.472v.002c.146 0 .288.009.431.015.097.003.192.008.29.01 7.085.452 9.612 6.638 9.612 6.638 8.028 0 6.148 5.951 6.148 5.951-27.186 0-31.607 26.911-31.607 26.911L37.516 90s1.626-23.148 25.848-23.148c0 0 1.416-4.495-3.484-5.671h1.086c5.333 0 7.98 5.378 7.98 5.378 6.334 0 4.85 4.697 4.85 4.697C52.346 71.256 49.61 90 49.61 90h14.228ZM41.63 57.187l-.004-.006c0-.067-.032-1.69-1.62-1.69h-4.893v.811h3.395v.885h3.122Z" fill="#0B5C95"/></svg>