<svg viewBox="0 0 90 90" xmlns="http://www.w3.org/2000/svg"><g fill="none" fill-rule="evenodd"><path fill="#001935" d="M0 0h90v90H0z"/><path d="M35.233 60.603c0 2.55.262 4.502.814 5.844.538 1.343 1.53 2.617 2.937 3.81 1.407 1.207 3.117 2.13 5.116 2.767 2 .65 4.303.976 6.896.976 2.289 0 4.426-.23 6.398-.678 1.972-.461 4.179-1.247 6.606-2.373v-8.8c-2.855 1.844-5.723 2.766-8.605 2.766-1.614 0-3.062-.38-4.317-1.125-.951-.543-1.6-1.288-1.958-2.197-.345-.922-.524-3.01-.524-6.264v-14.36h13.529v-8.786H48.596V18H40.53c-.359 2.888-1.02 5.261-1.986 7.132a15.195 15.195 0 0 1-3.82 4.8c-1.586 1.329-3.503 2.346-5.723 3.065v7.972h6.233v19.634Z" fill="#FFF" fill-rule="nonzero"/></g></svg>