<svg viewBox="0 0 90 90" xmlns="http://www.w3.org/2000/svg"><g fill="none"><path fill="#FFF" d="M0 0h90v90H0z"/><path d="m78.641 31.853-.53-.666a5.839 5.839 0 0 0-.558-.614C76.48 29.56 75.039 29 73.515 29H1v32h72.53a5.887 5.887 0 0 0 4.037-1.573c.203-.187.381-.387.557-.6.014-.014.014-.027.028-.04L89 45.013l-10.36-13.16h.001Z" fill="#121214"/><path d="M66.703 51.927c-4.174 0-7.45-3.213-7.45-7.333 0-3.867 3.359-7.014 7.477-7.014 2 0 3.862.747 5.262 2.08a7.046 7.046 0 0 1 2.19 5.134c0 3.933-3.36 7.133-7.479 7.133Zm0-11.867c-1.374 0-2.637.48-3.548 1.334-.925.866-1.427 2.093-1.427 3.426 0 1.267.53 2.44 1.508 3.307.94.84 2.217 1.32 3.509 1.32 1.331 0 2.569-.48 3.507-1.373a4.646 4.646 0 0 0 1.468-3.387c0-1.293-.53-2.48-1.482-3.333-.952-.84-2.189-1.294-3.535-1.294Zm-33.85 11.814c-3.332 0-4.787-1.587-5.262-2.28-.734-1.067-.802-2.094-.802-3.227v-8.4h2.487v8.4c0 .88.055 1.547.667 2.16.612.6 1.658.88 3.208.88 1.264 0 2.093-.2 2.65-.627.586-.466.871-1.253.871-2.413v-8.4h2.46v8.4c0 1.307-.067 2.32-1.005 3.507-1.332 1.733-3.875 2-5.276 2h.001Zm20.54-.267-2.8-4.933h-4.54v4.933H43.55v-13.64h8.184c2.638 0 4.487 1.8 4.487 4.373 0 2.014-1.128 3.6-2.95 4.16l2.95 5.107h-2.828ZM51.75 44.22c.598 0 1.998-.186 1.998-1.973 0-1.133-.761-1.84-1.998-1.84h-5.682v3.813h5.682Zm-36.067 7.387V40.42h-4.758v-2.453h11.962v2.453H18.13v11.187h-2.448Z" fill="#FFF"/><path d="M66.731 37.607c1.986 0 3.848.734 5.248 2.08a7.057 7.057 0 0 1 2.176 5.12c0 3.907-3.345 7.094-7.452 7.094-4.159 0-7.435-3.214-7.435-7.307.014-3.853 3.358-6.987 7.463-6.987Zm0 11.867a5.123 5.123 0 0 0 3.52-1.373 4.623 4.623 0 0 0 1.47-3.4 4.506 4.506 0 0 0-1.482-3.36c-.938-.84-2.189-1.307-3.535-1.307-1.387 0-2.65.48-3.575 1.346-.925.88-1.441 2.107-1.441 3.454 0 1.267.53 2.453 1.51 3.333a5.44 5.44 0 0 0 3.533 1.307Zm-14.98-11.48c2.704 0 4.458 1.867 4.458 4.36 0 1.933-1.073 3.587-2.95 4.146l2.936 5.094h-2.773l-2.8-4.934H46.04v4.934h-2.46v-13.6h8.17Zm-5.711 6.253h5.71c1.672 0 2.026-1.2 2.026-2 0-1.066-.68-1.867-2.026-1.867h-5.71v3.867Zm-6.92-6.253v8.373c0 1.293-.068 2.307-1.005 3.493-1.347 1.734-3.876 1.987-5.262 1.987-3.317 0-4.772-1.587-5.235-2.267-.733-1.066-.788-2.08-.788-3.213v-8.373h2.434v8.373c0 .88.054 1.56.68 2.174.612.6 1.672.893 3.221.893 1.265 0 2.107-.2 2.665-.64.599-.467.883-1.267.883-2.44V37.98h2.407v.014Zm-16.26 0v2.413h-4.757v11.187h-2.407V40.407h-4.757v-2.413H22.86Zm43.871-.427c-4.132 0-7.491 3.16-7.491 7.04 0 4.12 3.29 7.347 7.477 7.347 4.133 0 7.492-3.2 7.492-7.147 0-1.96-.775-3.8-2.19-5.16-1.413-1.346-3.289-2.08-5.288-2.08Zm0 11.867c-1.291 0-2.555-.48-3.48-1.307-.965-.866-1.495-2.04-1.495-3.293 0-1.333.503-2.547 1.427-3.413.91-.854 2.161-1.334 3.534-1.334 1.333 0 2.57.467 3.495 1.307a4.407 4.407 0 0 1 1.468 3.32 4.574 4.574 0 0 1-1.454 3.36 5.132 5.132 0 0 1-3.495 1.36Zm-14.98-11.48h-8.212v13.68h2.542v-4.92h4.5l2.787 4.907.013.026h2.896l-.04-.066-2.91-5.04c1.808-.56 2.936-2.16 2.936-4.174-.013-2.613-1.862-4.413-4.513-4.413Zm-5.67 2.48h5.656c1.237 0 1.97.68 1.97 1.813 0 1.76-1.386 1.96-1.971 1.96h-5.655v-3.773Zm-6.906-2.48h-2.502v8.426c0 1.16-.285 1.933-.87 2.4-.544.426-1.373.626-2.624.626-1.536 0-2.583-.293-3.195-.88-.612-.6-.666-1.267-.666-2.146v-8.426H26.79v8.426c0 1.133.054 2.16.802 3.24.475.693 1.944 2.293 5.275 2.293 1.4 0 3.942-.267 5.302-2.014.937-1.186 1.006-2.213 1.006-3.52v-8.425Zm-16.26 0H10.91v2.506h4.758v11.174h2.487V40.46h4.759v-2.506Z" fill="#FFF"/></g></svg>