<svg xmlns="http://www.w3.org/2000/svg" viewBox="0 0 90 90"><path fill="#850122" d="M0 0h90v90H0z"/><path d="m19.746 15.6 10.275 10.38c.24.24.48.3.84.3h43.32c.301 0 .482-.36.181-.66L64.208 15.36c-.24-.24-.48-.36-.961-.36h-43.26c-.42 0-.48.36-.24.6Zm-1.502 58.92c-.06.24.06.48.361.48h42.72c.42 0 .6-.18.72-.54l12.918-41.64c.12-.42-.06-.54-.42-.54h-42.84c-.36 0-.48.12-.6.42l-12.86 41.82ZM15 62.52c0 .48.6.48.721 0l9.794-31.86c.12-.36.12-.6-.18-.9L15.6 20.1c-.24-.24-.601-.12-.601.18v42.24Z" fill="#FFDECB"/></svg>