<svg viewBox="0 0 90 90" xmlns="http://www.w3.org/2000/svg"><g fill="none" fill-rule="evenodd"><path fill="#FFF" fill-rule="nonzero" d="M0 0h90v90H0z"/><path d="M27 40.527v26.03s4.273-2.904 8.889-6.117V46.748c0-7.036 2.138-9.305 7.927-13.568 1.819-1.34 4.611-3.394 7.371-5.424V15s-11.483 8.442-16.26 11.96C29.138 31.223 27 33.492 27 40.527ZM38.793 75V48.97c0-7.035 2.138-9.305 7.927-13.568 4.776-3.517 16.26-11.96 16.26-11.96v22.714c0 .652.006 1.274.01 1.87.054 6.29.083 9.646-6.412 14.512C51.212 66.558 38.793 75 38.793 75Z" fill="#000"/></g></svg>