<svg xmlns="http://www.w3.org/2000/svg" viewBox="0 0 90 90"><path fill="#1DA1F3" d="M0 0h90v90H0z"/><path d="M76 26.806a24.418 24.418 0 0 1-7.07 1.94 12.35 12.35 0 0 0 5.425-6.844 24.523 24.523 0 0 1-7.832 3.005A12.246 12.246 0 0 0 57.55 21c-6.798 0-12.318 5.532-12.318 12.376 0 .957.109 1.913.326 2.814-10.238-.519-19.306-5.436-25.384-12.922a12.338 12.338 0 0 0-1.659 6.215c0 4.29 2.176 8.087 5.48 10.3a12.336 12.336 0 0 1-5.588-1.544v.15c0 5.998 4.242 10.997 9.884 12.131a12.194 12.194 0 0 1-3.25.437c-.788 0-1.563-.082-2.31-.218 1.563 4.904 6.104 8.483 11.501 8.579-4.228 3.319-9.53 5.3-15.295 5.3-.993 0-1.972-.055-2.937-.178A34.74 34.74 0 0 0 34.872 70c22.637 0 35.023-18.851 35.023-35.19 0-.532-.013-1.065-.04-1.598 2.42-1.748 4.5-3.92 6.145-6.406Z" fill="#FFF"/></svg>