<svg viewBox="0 0 90 90" xmlns="http://www.w3.org/2000/svg"><g fill="none" fill-rule="evenodd"><path d="M39.932 64.257a7.167 7.167 0 1 1 10.136 10.135 7.167 7.167 0 0 1-10.136-10.135ZM27.77 76.419a7.167 7.167 0 1 1 10.135 10.135A7.167 7.167 0 0 1 27.77 76.42Zm24.325-24.324A7.167 7.167 0 1 1 62.23 62.23a7.167 7.167 0 0 1-10.135-10.135Zm-24.325 0A7.167 7.167 0 1 1 37.905 62.23 7.167 7.167 0 0 1 27.77 52.095ZM15.608 39.932a7.167 7.167 0 1 1 10.135 10.136 7.167 7.167 0 0 1-10.135-10.136ZM3.446 27.77A7.167 7.167 0 1 1 13.58 37.905 7.167 7.167 0 0 1 3.446 27.77Z" fill="#40528F"/><path d="M76.42 52.095A7.167 7.167 0 1 1 86.553 62.23 7.167 7.167 0 0 1 76.42 52.095ZM64.256 39.932a7.167 7.167 0 1 1 10.135 10.136 7.167 7.167 0 0 1-10.135-10.136ZM52.095 27.77A7.167 7.167 0 1 1 62.23 37.905 7.167 7.167 0 0 1 52.095 27.77ZM39.932 15.608a7.167 7.167 0 1 1 10.136 10.135 7.167 7.167 0 0 1-10.136-10.135ZM27.77 27.77a7.167 7.167 0 1 1 10.135 10.135A7.167 7.167 0 0 1 27.77 27.77ZM52.095 3.446A7.167 7.167 0 1 1 62.23 13.58 7.167 7.167 0 0 1 52.095 3.446Z" fill="#8F9B49"/></g></svg>