<svg viewBox="0 0 90 90" xmlns="http://www.w3.org/2000/svg"><g fill="none"><path fill="#000" d="M0 0h90v90H0z"/><path d="M11.373 51.283c.32.872.765 1.618 1.334 2.237a5.739 5.739 0 0 0 2.02 1.422 6.457 6.457 0 0 0 2.537.493 6.158 6.158 0 0 0 4.54-1.953 6.557 6.557 0 0 0 1.352-2.218c.321-.86.482-1.82.482-2.882V32h3.89v26.545h-3.853V56.08a8.932 8.932 0 0 1-3.057 2.162c-1.174.505-2.44.758-3.798.758-1.384 0-2.674-.247-3.873-.74a9.053 9.053 0 0 1-3.112-2.104c-.877-.91-1.569-2.004-2.075-3.28C7.253 51.599 7 50.177 7 48.61V32h3.89v16.382c0 1.062.161 2.029.483 2.901ZM34.236 32v9.67a9.907 9.907 0 0 1 3.001-2.105c1.136-.518 2.372-.777 3.706-.777a9.58 9.58 0 0 1 3.89.796 9.93 9.93 0 0 1 3.15 2.162 10.16 10.16 0 0 1 2.112 3.223c.52 1.239.778 2.554.778 3.944 0 1.39-.259 2.699-.778 3.925a10.245 10.245 0 0 1-2.112 3.204 9.93 9.93 0 0 1-3.15 2.162 9.58 9.58 0 0 1-3.89.796c-1.334 0-2.576-.26-3.724-.778a9.838 9.838 0 0 1-3.02-2.104v2.427h-3.706V32h3.743Zm.426 19.53a6.61 6.61 0 0 0 1.39 2.123 6.7 6.7 0 0 0 2.074 1.441 6.186 6.186 0 0 0 2.557.531c.89 0 1.73-.177 2.52-.53a6.48 6.48 0 0 0 2.057-1.442 7.046 7.046 0 0 0 1.39-2.124 6.585 6.585 0 0 0 .518-2.616c0-.935-.173-1.814-.519-2.636a6.984 6.984 0 0 0-1.39-2.142 6.234 6.234 0 0 0-2.056-1.422 6.29 6.29 0 0 0-2.52-.512 6.28 6.28 0 0 0-2.52.512 6.444 6.444 0 0 0-2.075 1.422 6.814 6.814 0 0 0-1.408 2.142 6.723 6.723 0 0 0-.518 2.636c0 .935.166 1.808.5 2.616Zm18.323-6.523a10.344 10.344 0 0 1 2.038-3.204 9.468 9.468 0 0 1 3.076-2.18c1.186-.532 2.47-.797 3.854-.797 1.358 0 2.618.253 3.78.758a8.961 8.961 0 0 1 3 2.105c.84.897 1.496 1.96 1.965 3.185.47 1.227.704 2.56.704 4.001v1.252H56.024a6.586 6.586 0 0 0 2.13 3.924 6.323 6.323 0 0 0 1.89 1.157 6.047 6.047 0 0 0 2.242.417c2.248 0 4.064-.948 5.448-2.844l2.705 2.048a10.13 10.13 0 0 1-3.484 3.033c-1.383.734-2.94 1.1-4.669 1.1-1.408 0-2.723-.253-3.946-.758a9.592 9.592 0 0 1-3.187-2.124 10.088 10.088 0 0 1-2.13-3.204c-.52-1.226-.779-2.56-.779-4.001 0-1.365.247-2.654.741-3.868Zm5.207-1.498c-1.05.898-1.748 2.092-2.094 3.584h11.524c-.32-1.492-1.006-2.686-2.056-3.584-1.05-.897-2.28-1.346-3.687-1.346-1.408 0-2.637.449-3.687 1.346Zm20.213.436c-.79.885-1.186 2.086-1.186 3.603v10.997h-3.742v-19.34h3.705v2.39a5.328 5.328 0 0 1 1.835-1.859c.753-.455 1.648-.683 2.686-.683H83v3.565h-1.556c-1.235 0-2.248.442-3.039 1.327Z" fill="#FFF"/></g></svg>