<svg viewBox="0 0 90 90" xmlns="http://www.w3.org/2000/svg"><g fill="none" fill-rule="evenodd"><path fill="#06C167" d="M0 0h90v90H0z"/><path d="M68.34 52.54c4.746 0 7.083 2.113 7.304 5.273h-3.921c-.396-1.684-1.765-2.18-3.632-2.18-1.726 0-2.66.564-2.66 1.482 0 .698.612 1.053 2.552 1.402l3.344.67c3.162.666 4.673 2.215 4.673 4.288 0 2.918-2.557 5.025-7.083 5.025-4.894 0-7.315-2.107-7.881-5.273h3.96c.504 1.69 1.8 2.18 4.062 2.18 1.782 0 2.914-.597 2.914-1.549 0-.597-.396-.98-1.867-1.262l-3.74-.845c-3.417-.704-5-2.146-5-4.36 0-3.194 2.879-4.85 6.975-4.85Zm-30.228-.017a7.782 7.782 0 0 1 4.962 1.758V52.93h3.898v15.21H43.05v-1.368a7.749 7.749 0 0 1-4.939 1.712 8.024 8.024 0 0 1-7.12-3.927 7.953 7.953 0 0 1 0-8.105 8.024 8.024 0 0 1 7.12-3.928Zm17.465-3.932v4.338h4.407v3.425H55.56v7.12c0 .807.577 1.195 1.476 1.195h2.948L60 68.111h-4.243c-2.66 0-4.136-1.617-4.136-3.656v-8.084H48.64V52.93h2.975v-4.338h3.96Zm-26.794-1.053v3.51H17.994v5.03h10.5v3.38h-10.5v5.07h10.789v3.516H14V47.538h14.783Zm6.317 9.574a4.678 4.678 0 0 0-1.047 5.12 4.713 4.713 0 0 0 4.359 2.91 4.66 4.66 0 0 0 3.33-1.336 4.62 4.62 0 0 0 1.383-3.3 4.692 4.692 0 0 0-2.87-4.375 4.727 4.727 0 0 0-5.155.98Zm.953-35.612v7.532a7.682 7.682 0 0 1 5.442-2.253 7.871 7.871 0 0 1 6.986 3.852 7.802 7.802 0 0 1 0 7.951 7.871 7.871 0 0 1-6.986 3.852 7.745 7.745 0 0 1-5.47-2.253v1.881H33.02V21.5h3.033Zm-18.874 0v12.692c0 3.235 2.114 5.351 4.952 5.455l.206.004.208-.004c2.808-.107 4.948-2.28 4.948-5.455V21.5h3.157v20.562h-3.13v-1.91a7.677 7.677 0 0 1-5.555 2.254C17.44 42.406 14 39.2 14 34.356V21.5h3.18Zm41.394 5.289.239.004c4.288.125 7.406 3.4 7.406 7.777v.974H53.772a5.086 5.086 0 0 0 5.092 4.26 5.303 5.303 0 0 0 4.412-2.21l2.195 1.59a8.08 8.08 0 0 1-6.607 3.2c-4.6 0-8.147-3.347-8.147-7.814a7.758 7.758 0 0 1 2.308-5.525 7.825 7.825 0 0 1 5.567-2.255l-.019-.001Zm15.812.173.223.002h1.053v2.76h-1.279c-1.986 0-3.428 1.5-3.428 3.82v8.518H67.92v-14.98h3.004v1.849a4.123 4.123 0 0 1 3.683-1.967Zm-33.082 2.442c-2.88-.006-5.22 2.31-5.233 5.177-.013 2.867 2.308 5.203 5.188 5.222a5.245 5.245 0 0 0 3.71-1.514 5.2 5.2 0 0 0 1.545-3.686c0-2.867-2.33-5.193-5.21-5.2Zm17.215-.015a4.759 4.759 0 0 0-4.673 3.823h9.347a4.759 4.759 0 0 0-4.674-3.823Z" fill="#000" fill-rule="nonzero"/></g></svg>