<svg xmlns="http://www.w3.org/2000/svg" viewBox="0 0 90 90"><path d="M0 0h90v90H0z"/><path fill="#FFF" d="M71.63 57.81c-5.02 11.52-15.35 17.55-26.38 17.4-21.15-1.05-27.31-25.76-13.17-34.67l.62.62c-.24.33-1.06 1-2.38 3.61-1.54 3.18-2.01 6.35-1.83 8.33 1.1 17.27 25 20.78 33.23 3.71C72.19 33.4 44.42 9.61 19.77 27.8l-.57-.58c6.48-10.28 19.16-14.89 31.26-11.81 18.5 4.68 28.44 24.2 21.17 42.41zm-19.78-.37a9.45 9.45 0 01-7.8 4.13 9.54 9.54 0 01-9.49-9.6 9.55 9.55 0 018.8-9.56 7.78 7.78 0 017.28 4.26 7.96 7.96 0 01-1.35 8.97l2.56 1.8zm-33.1-6.33c-.46 3.8-.17 5-.18 5.45l-.83.3a20.43 20.43 0 01-1.48-5.8 21.77 21.77 0 0118.35-23.42c10.66-1.59 20.85 5.1 23.23 14.47l-.84.3c-.25-.27-.7-1.03-2.3-2.68-12.85-13.05-33.05-7.07-35.95 11.38zm60.95-6.28C78.94 7.4 29.77-6.55 10.84 28.53l2.83 2.04a35.98 35.98 0 00-2.95 9.35 35.74 35.74 0 00-.56 6.32c0 19.42 15.57 35.16 34.79 35.16 19.2 0 34.78-15.74 34.78-35.16 0-.48-.01-.95-.03-1.41z"/></svg>