<svg viewBox="0 0 90 90" xmlns="http://www.w3.org/2000/svg"><g fill="none"><path fill="#00467F" d="M0 0h90v90H0z"/><path d="M79.296 31c.19.003.37.08.502.214a.702.702 0 0 1 .202.503v5.023a.713.713 0 0 1-.704.719h-7.218v12.345a4.746 4.746 0 0 0 3.236 4.426c.17.057.309.182.383.344a.632.632 0 0 1 .005.511l-1.974 4.485a.729.729 0 0 1-.927.381c-4.171-1.58-7.256-5.542-7.256-9.889V37.459H60.1a.716.716 0 0 1-.501-.214.7.7 0 0 1-.2-.503V31.72a.702.702 0 0 1 .2-.503.719.719 0 0 1 .5-.216Zm-47.09 0c.183 0 .365.071.5.2a.7.7 0 0 1 .215.493v17.685c-.148 5.888-5.228 10.616-11.467 10.616-6.24 0-11.303-4.728-11.451-10.608a.163.163 0 0 1 0-.062V31.693a.7.7 0 0 1 .219-.495c.136-.129.32-.2.509-.195h5.042a.71.71 0 0 1 .725.69v17.429h.016c0 2.597 2.217 4.703 4.959 4.703 2.742 0 4.966-2.106 4.966-4.703V31.69a.71.71 0 0 1 .728-.69h5.04Zm14.59 0c3.712 0 6.099.773 8.234 2.637a7.365 7.365 0 0 1 2.497 5.521c0 1.404-.534 2.608-1.103 3.748 1.839 1.233 3.22 3.821 3.22 7.52 0 2.196-.86 4.286-2.56 6.215-2.03 2.178-5.1 3.353-8.703 3.353-8.693 0-11.81-5.098-11.81-9.873V31.687A.71.71 0 0 1 37.3 31Zm1.297 15.456h-5.04v3.97c0 1.36 1.16 3.423 5.347 3.423h-.004l.274-.004c3.512-.113 4.476-2.382 4.522-3.806l.002-.107c0-3.087-3.662-3.476-5.101-3.476Zm.008-9.596h-5.042v4.642H48.1c1.523 0 2.966-.533 2.966-2.466 0-1.292-1.521-2.176-2.966-2.176Z" fill="#FFF"/></g></svg>