<svg viewBox="0 0 90 90" xmlns="http://www.w3.org/2000/svg"><g fill="none"><path d="M90 45c0 24.852-20.147 45-45 45S0 69.852 0 45 20.147 0 45 0s45 20.147 45 45Z" fill="#E9500E"/><g transform="translate(10 13)" fill="#FFF"><ellipse cx="9.377" cy="30.174" rx="9.377" ry="9.451"/><ellipse cx="48.427" cy="9.451" rx="9.377" ry="9.451"/><path d="M30.525 54.497c-6.712-1.43-12.43-5.826-15.573-11.97a13.402 13.402 0 0 1-8.017.992c3.806 9.487 12.044 16.446 21.977 18.565a30.66 30.66 0 0 0 6.658.69 13.59 13.59 0 0 1-2.745-7.901 23.153 23.153 0 0 1-2.3-.376Z"/><ellipse cx="46.315" cy="54.549" rx="9.377" ry="9.451"/><path d="M59.363 51.078c8.246-10.485 8.866-25.124 1.537-36.28a13.593 13.593 0 0 1-5.273 6.225 23.329 23.329 0 0 1-.75 23.014 13.564 13.564 0 0 1 4.486 7.04ZM8.653 16.62a13.454 13.454 0 0 1 7.825 2.021c4.194-6.104 11.049-9.799 18.415-9.925a13.769 13.769 0 0 1 2.844-7.665C25.946.111 14.488 6.243 8.653 16.621Z"/></g></g></svg>