<svg xmlns="http://www.w3.org/2000/svg" viewBox="0 0 90 90"><path fill="#022851" d="M0 0h90v90H0z"/><path d="M57.758 36.475h6.628C70.404 36.475 75 39.152 75 45.85c0 5.398-3.747 8.852-9.01 8.852l-8.232-.01V36.475Zm6.51 12.995h.443c2.172 0 3.78-1.26 3.78-3.64 0-2.563-1.427-3.992-3.812-3.992h-.411v7.632Zm-10.45-12.424.35 2.993c.083.71.502 2.412-.013 2.184-.326-.142-.592-.912-.856-1.599-.134-.347-.775-1.993-.944-2.115-.807-.59-2.83-1.251-4.196-1.257-4.15-.015-6.89 2.95-6.89 8.21 0 3.772 1.864 8.302 6.607 8.302 1.698 0 4.95-.521 5.836-2.864.4-1.059.766-2.003 1.032-1.716.196.208-.059 1.057-.177 1.516-.558 2.171-.59 2.829-.766 2.915C51.66 54.655 48.911 55 46.506 55c-7.643 0-10.283-4.325-10.283-8.647 0-7.5 4.751-10.607 12.12-10.337 1.863.068 3.728.393 5.476 1.03m-22.575.333-1.225-.414c-.412-.36.089-.46.089-.46s1.767.319 6.175-.042c0 0 .386.073.121.375l-1.447.6c-.94.398-.94.17-.94 1.17l-.009 9.291c0 7.264-7.624 7.1-9.109 7.1-.707 0-7.646 0-7.646-5.833v-9.832c0-1.716.188-1.668-.398-1.87l-1.771-.645s-.3-.409.233-.384c1.446.07 3.54.371 8.406.028 0 0 .426.1.147.402l-1.415.399c-1.12.487-.972.115-1 1.228l.032 9.699c0 2.376 1.261 5.319 5.18 5.319 5.403 0 5.452-4.532 5.452-5.538l.01-9.603c.059-.905-.06-.648-.885-.99" fill="#FFBF00"/></svg>