<svg viewBox="0 0 90 90" xmlns="http://www.w3.org/2000/svg"><g fill="none"><path fill="#FFF" d="M0 0h90v90H0z"/><path d="M68 49.678V16.16c-26.798-2.61-47 0-47 0v33.518C23.13 72.388 44.318 75.051 44.474 75c3.843-.627 21.553-4.23 23.526-25.32Zm-39.418 8.353c.416.314.935.418 1.403.627.57 1.514 0 2.976-.312 2.35-.571-1.045-.831-1.932-1.09-2.977Zm0-16.445c-.052-.052-3.012 1.827-4.933.94 1.402-.784 6.336-3.916 7.686-4.804.623.157.883-.104 1.09-.208-.519.052-2.233.313-1.35-1.254.312 1.358 2.7.105 3.584-.104 2.389-.574 2.389 2.036 2.18 3.08-.051.418.728.68 1.143.627-.675 1.67-1.87.104-1.973.73-.052.262-.831.47-.831 1.097 0 .888.363.418.363 1.097.052.678-.26.156-.207.887.104 1.149 2.025-.157 2.804.157.416.156.675.522 1.039.417.104-.104.052-.522.052-.678-.052-.366-.727-.418-1.039-.888-.26-.418.312-1.723.623-2.14.468 2.14 2.441 1.461 2.753 3.759.207.626-.675 1.357 0 2.401-.52.522-1.143 2.976-.052 4.125-.208.522-.416 1.723.571 2.453-.312.731-.26 1.567 0 2.454-.623 0-.467-3.445-4.155-3.602-.103-.052-.103.418 0 .574.468.783 1.04.731.883 2.558-.052.627-.415-.104-.623-.26-.467-.418-.779-.47-.987-1.724-1.506 1.201-1.35 2.61-1.246 3.342 0 0-.312-.888-.727-1.827 0-.053 1.506-1.932 1.766-2.35 3.116-5.638-2.026 1.827-2.026 1.775-.26-.626-.52-1.2-.675-1.357.052-.052.883-1.044 1.298-1.827 2.39-5.013-1.454 1.67-1.558 1.566-.311-.261-.519-.575-.727-.47-.052.783-.207.679-.156 1.462-.415.522-1.246 1.41-1.87 1.827 0 0-.155-1.41-.103-1.462.312-.365 1.506-1.67 1.714-2.036 3.947-6.213-1.87 1.514-1.87 1.41-.052-.261-.363-.679-.675-.992 0 0 1.298-1.775 1.61-2.402 2.389-4.96-1.922 2.193-1.973 2.193-.104-.105-.156-.105-.26-.157-.104-.052.156-1.41.311-2.245.312-1.67-.57-.313-.779 2.297-.207.053-.779.105-.986.262.156.678.311.156.571.835.364.783-.467 2.14.26 3.08.26.366.311.313.26.574-.468-.052-.728-.052-1.04.314-.57-2.506-.519-3.707-.415-6.265.052-1.149.416-2.924.26-2.924-.104-.052-2.753 6.735-3.376 8.04-1.09-.365.675-6.213 2.96-9.032.208-.888-1.194.888-2.025 1.619-.779.678-1.766 1.514-2.804 1.2 1.35-1.462 4.466-4.176 4.83-4.855.311-.574-2.13 1.827-4.675.94 1.662-.836 5.505-2.82 5.505-4.23Zm4.622 12.739c0 .626-.052 1.096.156 1.723.312.94.156.678-.26.313-.311-.366-.623-.627-.778-1.044 0-.314.207-.314.882-.992Zm6.18-15.245c-.363-.627.468-1.253.468-1.253 0 1.775 2.285.574 3.48 1.148.311.157.467.366.623.68-1.35-.94-3.74.887-4.57-.575Zm-13.45-14.41c-2.026 0-1.974-3.08 0-3.08 2.025 0 2.025 3.08 0 3.08Zm0 6.16c-2.078 0-2.078-3.08 0-3.08 2.025 0 2.025 3.08 0 3.08Zm2.077-8.405h1.766V24.2H28.01v-1.775Zm0 6.16h1.766v1.776H28.01v-1.775Zm16.151 4.804s-1.87-.992-4.05-1.149c-2.13-.156-6.388 1.567-9.66 1.358V19.032s3.74.522 5.297-.105c5.245-2.036 8.465.261 8.465.261V33.39h-.052Zm3.636 2.35c.104.521-.416.678-.416.678.78.209 1.143-.26 1.299-.574.311 1.253-.987 1.305-1.35 1.41 0 0 .623.208.675.626.103 1.044.779.992.934.888 0 .104-.26.783-.986.208-.156.105.207.314.26.836.103.678.051 1.305.83 1.67-.467.366-1.038-.626-1.09-.47-.052.157.675.47-.104 2.35-.364-.209-.156-.157-.572-.679-.311-.26-.415-.313-.155.105.467.574.57 1.88.415 2.245-.363-.157-.26-.47-.727-.888-.052.157.156 1.044.623 1.462.78.73 1.09 1.618 1.09 1.775.053.679-.155 1.514-.207 2.402-.363-.053-.727-1.15-.779-1.097-.104.052.052 1.097.78 1.775.363 1.044.207 1.566.103 1.619-.104.052-.52-1.044-.727-.836 1.039 2.61.312 3.55.052 4.386-.208-.835-.312-1.462-.571-2.402-.572.418-.676 1.097-1.403 1.723 0-1.096-.623-3.654-1.09-4.28 0-.053-.883 2.296-1.299 3.393-.519 1.357-.57 3.028 0 4.385-1.246-1.827-1.402-5.22-.311-5.638.104-.261-.052-1.045-.312-.94-.052.365 0 .73-.363 1.096-.831-.26-.468-1.305-.364-1.618 1.09-1.305.416-1.619.364-1.566-.104.313-.208.678-.572.783-.675-1.201-.26-3.133 1.091-4.543.052-.522-.571.418-1.039.366-.104-1.044.26-2.767 2.13-2.872-.364-.104-.572-.156-.624-.47.572-.104 2.337-.208 2.078-1.618-.156.157-.208.418-.675.731-.312.209-.676.209-.831-.052.83-.261.571-1.305-.52-.992-.311.104-.83-.261-.83-.627.26.261.726.053.986-.104 1.195-.783 1.974.365 2.13.626.051 0 .519-1.148-1.195-1.461-.156-.418-.52-1.097-1.714-1.045-.363-1.357-1.558-.678-1.506-.052-1.246-.94 0-2.088.52-2.245.363.052.26 1.149.882.94.156-.052-.467-.783-.26-1.096.572-.314.572.417.832.156.155-.47.675-.73 1.142-.783 1.195-.418 2.181.992 3.376.313Zm11.373-2.141c-2.752.156-8.413-1.41-9.867-1.41-3.012 0-4.414 1.149-4.414 1.149V19.188s3.946-1.827 6.803-.783c3.48 1.305 7.53.731 7.53.731l-.052 14.462Zm3.636-5.586c1.506-.21 1.765 1.566 1.765 1.566-.363-.313-1.142-.418-1.61-.105-1.713 1.097-3.22 1.097-3.22 1.097v-2.767c-.051.052.26.626 3.065.209Zm1.817-3.76c0-.104-.052-.208-.052-.365-.052-.261-.83-.418-1.35-.209-.779.366-2.7 1.462-3.428 1.253v-2.767c1.766.783 2.441.052 3.013.052 1.713 0 1.817 1.619 1.817 1.619-.052.209-.052.313 0 .418Zm-1.973 28.454c-.52.157-1.87.679-2.181 1.201.155-2.924-.78-5.795-1.091-6.474-.571-1.357.26 3.133.312 4.177 0 .052-4.83-6.265-1.922-1.41.78 1.253 1.922 2.089 1.922 2.089 0 .887-.052 1.514-.208 1.983-.312.261-6.596-8.405-3.116-2.401.415.73 2.96 2.976 2.908 3.028a4.178 4.178 0 0 1-.83 1.2c-.053-.051-1.455-1.096-1.455-1.148-.104-.679-.104-1.305-.935-.835 0 0-3.116-3.603-1.662-1.097.624 1.097 1.039 1.253 1.195 1.41 0 0-.468.679-.623 1.358-.052.26-2.7-2.924-1.662-.888.311.626 1.506 1.357 1.506 1.41-.104.417-.26.835-.364 1.096-.155.313-2.493 2.193-2.44 2.193 0 0 .467-1.462 1.454-2.193.57-.418.57-.313.934-.574 0-.21-.207-.575-.467-.679-.312-.104-1.402.104-1.402.104.104-.522-.364-1.723-.364-3.028-.415.052-1.142.679-1.298 1.044-.104 2.141-.571 1.515-1.039 3.08-.467-.626.052-1.565-.415-2.192-.623-.835-.727-1.41-.831-2.454.156-.104.779-.783.208-2.35-.104-2.4.986-3.288-.935-4.959.156-.052.26-1.253.26-1.253 1.402.73 1.142-.888 1.661-1.2.883-.523.727-1.045.312-1.671 2.493.73-.104 2.401.987 2.453.83 0 1.35-.156 1.713-.73.364-.575-.052-.94.987-1.88.104-.105.364-.731-.467-.888-.208-.052 0-.73 0-.73-.675.574-.883 1.357-1.922.835-.571-.261-.883 0-1.142.104 0 0-.104-.47.363-.626 1.195-.418 1.454-.888 1.402-1.097-.155-.626-.207 0-.155-.626 0-.261.311-.627.57-.888.78-.94 1.351-.626 1.559-.522.467-.365.52-.313.987-.522.727-.313 2.337.209 3.22.627.415.208.934.313 1.454.208 0 .261-.208.418-.364.47-.26.105-.623 0-.571.21 0 .104.415.156.623.208 1.298.365 3.012 1.566 1.922 1.305-.156-.052.83.731 1.506 1.67l2.493 2.455c-.104.156-.987 0-3.792-2.61-.415.365 3.376 3.236 4.986 6.264-.156.105-2.077-.626-2.804-1.357-1.091-1.149-2.337-4.02-2.857-3.603-.052 0 2.078 3.342 3.116 5.326.52.992.987 2.401.987 3.498.156 5.325-.623 4.907-.623 4.907-1.247-4.176-1.818-9.032-3.636-11.277-.727-.887 1.922 3.916 2.026 8.25Zm-5.453 4.751c-.571.47-.935.679-.78.418a2.76 2.76 0 0 0 .312-.731l.468.313Zm-.364-.626c.104-.47.104-.731.208-1.149 0-.157.052-.157.052-.313 0-.052 1.194.992 1.298 1.044-.311.365-.571.522-.83.783-.312-.156-.78-.313-.728-.365Zm3.895 1.357c-1.662 1.67-4.206 1.044-6.18 1.932-1.818.679-3.116 2.35-4.985 2.767-.572.156-.624.47-.312.47.208 0 1.35 1.2 3.168.26.623-.312 2.545-1.357 2.856-1.461-1.038.992-1.558 1.88-2.493 2.402-.57.313-2.856 1.148-5.141.678-1.039-.209-1.818.731-1.558.731.52-.156 1.143-.052 1.506.418.675.522 1.61 1.2 2.44.209.26-.314 1.61-.992 2.805.26-1.298-.051-1.194 2.298-3.687 2.037-.935 0-2.96-2.14-3.531-1.462-1.04 1.149 2.233 2.245.83 3.707-1.246 1.305-2.804-1.044-2.804-1.044.78.313 2.233.574 1.61-.731-.26-.522-.727-.992-.727-1.932-.104-.47-3.012 3.759-4.934 1.827-.779-.73-2.285-2.401-3.687-3.028 3.687-.313 4.207 1.149 4.414 1.41 1.195 1.566 2.233 0 2.493-.313.364-.418.935-1.045.727-1.149-1.402-.679-3.064-.835-4.258-.261 2.596-3.602 4.622-.209 4.622-.209.26.157-.052-2.14-2.649-2.245-1.61-.104-3.012 1.358-4.103 1.358-.882 0-3.635-1.828-4.258-3.498 1.61 1.2 3.635 1.88 4.882 1.096 2.389-1.41 5.349.73 5.505.47-.676-.522-2.182-2.558-6.232-1.41-1.558.888-2.234-.678-3.22-.678 1.662-1.462 2.804-.731 3.375-.68.156 0-.675-.678-1.246-.73-4.518-.47-7.375-1.723-7.375-1.723s.364-.888 2.285-.261c0 0-1.713-1.044-1.713-2.454.052-.835.467-1.775-.156-2.454 2.596-.104.779 3.55 2.596 4.49.052 0-.519-.887.26-1.566.364 1.096 1.298 1.619 1.974 1.827.155-.104.363-.417.363-.417-.675-1.149-.779-2.506-.571-4.02h.052c.156 0 .415.522.571.887.364.835.364 1.984 1.143 2.976.415.522.675 1.096 1.038 1.357.156-.365.052-1.044 0-1.2-.104-.627-.467-1.723.572-2.663.519 1.41 1.142 1.044 1.246 1.723.104.94.104.835 0 1.566.052 1.044.987 1.305 1.766 1.984 1.87.992 3.064 1.566 3.895 2.872.415-2.193-5.453-2.61-4.726-6.84-.104-1.67.208-1.827-.987-2.871 2.337.052 3.635 3.968 3.74 4.646.259 1.306 1.038 1.358 2.077 3.08.155.053-1.922-4.541.57-8.457 0 0 .832 2.036.468 3.393-.26.784 0 1.671.052 2.193s-.104-1.88 1.662-3.08c.104.887.987 2.297.156 3.759-.987 1.827-1.039 1.148-1.09 3.393.103-.052.363-1.514 1.038-2.401 1.454-1.775.415-2.767 1.818-4.333.104.783.311.47.415 1.148.208 1.566-1.454 3.237-1.09 3.185.415-.052 1.09-.418 1.298-1.619 0 0 .571 1.097.052 1.462-.987.627-1.195 1.358-1.039 2.14.78-.939 1.87-1.983 1.662-3.34.104-.836.987-1.15 1.143-3.029.051-.313.363-.678.675-.887-.156 1.044.675 2.14-.26 3.446.208.104.987-.992 2.181-.627-2.337.418-1.662 2.976-3.427 4.125-.52.365-.468.73-.624.783 1.61-.105 2.805-1.984 3.013-2.14 1.61-1.097 1.921-1.254 2.596-3.029.26-.679.052-.94.935-1.88.364.888-.156 2.715-.312 3.133-.311.835-1.298 1.566-1.09 1.566 4.258-1.88 4.206-3.184 5.245-4.542.312-.522 1.818-1.41 2.39-1.514-.157.261-.728.783-.78 1.253-.052.94-.363 1.514-.83 2.297.259.314.778-.626 1.297-.156-.57.365-.882 1.148-1.402 1.618Zm.727-.26c-.26 1.252-.675 2.4-1.454 3.497-.52.783-.727-.73-.311-2.14a5.02 5.02 0 0 0 1.765-1.358ZM58.185 26.08c-.104-.052-.312-.052-.416-.052-.104 0-.208.208-.052.208.104.053.312.053.468.053.155.052.103-.157 0-.21Zm-.468.626c.104.053.312.053.468.053.103 0 .103-.21 0-.21-.104-.052-.312-.052-.416-.052-.156 0-.26.157-.052.21Zm0 2.715a7.019 7.019 0 0 0-.571-.47c-.156.105-.416.314-.571.418-.104-.157-.312-.365-.572-.574-.155.104-.623.522-.779.626.26 0 .675.105.675.366v1.723c.156.052.364 0 .624 0v-1.88c.104-.052.155-.104.207-.157.104.053.364.418.572.47.104-.104.415-.365.519-.47.156-.052 0-.156-.104-.052Zm-.779-2.14c.156-.261.364-.731.364-1.097 0-.417-.26-1.096-.935-1.305-.78.261-1.298.94-1.298 1.67 0 .418.363 1.358 1.142 1.358.26-.209.467-.47.727-.626Zm-.467.156c-.156-.052-.675-.47-.831-.835-.156-.418-.156-.888.311-1.2.364.156.78.469.831.782 0 .47-.104.992-.311 1.253Zm-.052-3.341.571-.627s-.26-.208-.415-.365c0-.157 0-1.41.052-1.462-.416-.365-.728-.418-.935-.418-.364.053-.727.523-.831.68-.104.104-.052.26 0 .312.052.053.156.105.26.157 0 0-.052 0-.052-.052-.156.156-.416.574-.416.887 0 .314.26.731.467.888.208-.157.52-.418.935-.522.104.26.208.417.364.522Zm-.312-1.462c-.26-.104-.83-.365-1.038-.522-.052-.052-.052-.052 0-.157.103-.208.26-.365.363-.365.104 0 .675.313.623.47.052.104.052.365.052.574Zm0 .888c-.156 0-.26.052-.467.156-.156-.104-.571-.626-.26-1.148-.052 0-.104-.053-.104-.053.26.157.572.314.831.366v.679Zm-1.662-2.61c-.155 0-1.038 0-1.038-.053-.052-.209-.104-.418.052-.783.051-.157-.052-.209-.156-.052-.052.156-.52.783-.987.992-.26.104.312.313.26.313 0 .626.104 1.514.207 1.88.104.208.312.574.52.47.104-.053.363-.523.415-.627.156-.105 0-.314-.104-.157-.104.105-.207-.052-.26-.157-.051-.104-.155-1.461-.103-1.461 0 0 1.09-.157 1.194-.157.104.052.104-.209 0-.209Zm-2.96 2.453.467-.574c-.311-.053-.467-.105-.675-.366v-1.41l-.467-.47h-.156l-.727.627c-.052.105.104.105.208 0l.52.313v1.41c.051.157.155.313.363.522h.467v-.052Zm-.363-3.185.26-.209v-.365l-.312-.313-.312.26v.418l.208.21h.156Zm-1.143-.417c-.208 0-.83.052-1.039.052-.207.052-.207.156-.052.156.208 0 .208.053.312.314.104.26-.364 1.41-.467 1.67-.156-.208-.624-1.253-.624-1.41 0-.104.208-.208.312-.208.156-.052.156-.157.052-.209-.364-.052-1.714-.157-1.922-.209-.155 0-.26.157-.052.157.208 0 .416-.052.676.26.26.366 1.09 2.194 1.298 2.977.104-.157.935-2.61.987-2.872.052-.26.26-.522.467-.574.26 0 .26-.104.052-.104Zm-3.947 5.9c0 .991.416 1.096.883 1.357.415.26 1.142.208 1.714.052.207-.052.311-.052.311.104 0 .105.156.105.156 0v-1.044c0-.104-.156-.104-.156 0 0 .157 0 .209-.155.365-.364.575-1.299.523-1.818-.156-.156-.209-.312-.522-.156-.627.208-.052.831.053 1.195.105.26 0 .779.052.882.104.052.052.156.105.156 0v-.626c0-.105-.104-.053-.156 0-.052.052-.675.156-.882.209-.26.052-.987.104-1.143.052-.208-.052-.156-.47.052-.679.52-.679 1.558-.626 1.921-.052.104.209.104.26.104.417 0 .105.156.105.156 0v-1.2c0-.105-.156-.105-.156 0 0 .052-.155.104-.311.052-.312-.105-1.247.052-1.662.26-.416.21-.935.68-.935 1.306Zm.156 1.774c0 .313.104 2.767.104 3.133 0 .209.26.417.467.574.104-.157.364-.522.571-.679.104-.104.052-.156-.052-.156-.207.104-.363 0-.415-.21v-2.662c-.104.052-.52.052-.675 0Zm2.025 2.036c-.156.157-.467.575-.467.836 0 .313.156.574.311.783.312-.209.468-.522.987-.679.052.209.208.261.416.418.104-.105.519-.627.623-.731.104-.105.052-.157-.104-.105-.156.105-.208.053-.467-.208 0-.157 0-1.201.052-1.253-.208-.21-.416-.522-.624-.522-.363.052-.779.626-.883.783-.103.104 0 .574.052.626l.104.052Zm.26.21c.208.104.312.051.571 0v.47c-.156.104-.311.156-.467.26-.156-.156-.364-.26-.104-.73Zm-.156-.888c.104-.21.208-.21.312-.21.104 0 .467.262.415.419v.574c-.26.052-.467.052-.727-.209-.052-.052-.052-.47 0-.574Zm2.13-.418c-.208.104.311.313.26.313 0 .627-.105 1.567.103 1.88.104.209.415.313.623.26.208-.051.416-.47.52-.521.155-.105 0-.21-.104-.105s-.416.053-.468-.052c-.052-.104-.052-1.41 0-1.462h.468c.103 0 .103-.26 0-.26-.156 0-.416-.053-.468-.105-.052-.105 0-.522.104-.679.104-.157-.052-.261-.156-.052-.104.209-.467.574-.883.783Zm.103-2.715c0 .574-.26 1.149-.571 1.462.571-.157.623-.47.935-.888.156.261.467.575.727.68.156-.105.623-.627.727-.732-.312-.104-.935-.417-1.09-.783-.105-.26-.105-.365.051-.574.104.156.883.522 1.247-.105-.364-.156-.727-.365-.831-.574-.104.105-.416.47-.623.574-.052-.208-.364-.417-.624-.47-.104.105-.675.523-.934.68-.104.051-.052.208.051.156.104-.052.312-.209.52-.313.104.104.415.365.415.887Zm2.649.105c.052-.366.311-.47.415-.575.156.157.312.366.572.366.207 0 .467-.105.519-.21-.208-.156-.623-.626-.727-.678-.208.105-1.195.627-1.247 1.201-.103.835.156.992.52 1.462.208.26.571.26.727.26.156-.104.779-.73.883-.782.052-.052-.052-.157-.104-.052-.052.052-.052.104-.156.104-.104 0-.52.104-.779-.052-.312-.21-.675-.575-.623-1.044Zm-.468 2.662c-.155.157-.363.313-.623.575.208 0 .364.052.416.26.104.157 0 .94.052 1.254 0 .26.207.365.415.574a6.157 6.157 0 0 0 1.09-.47c0 .261.26.522.468.574.104-.104.26-.209.416-.365-.156-.105-.156-.105-.208-.366-.052-.208 0-1.044 0-1.41-.156-.208-.364-.47-.571-.626-.156.157-.364.313-.624.627.208 0 .572.052.572.209 0 .208.052.626 0 .992-.052.365-.987.208-.987-.053 0-.26.052-.94.052-1.253-.104-.209-.208-.313-.468-.522Zm-6.128 8.406c-.519-.105-.934-.47-1.454-.679-.675-.261-1.402.261-1.402.366 0 .208.208.26.727-.053-.415.522.052.888.052.888-.156-.052-.416-.105-.623-.157-.052.157.207.261.311.314.987.365 1.558-.523 2.39-.68Zm-1.558.47s.26-.261.26-.47c0-.261-.26-.418-.26-.418.208.052.675.313.883.47l-.883.418ZM40.06 30.36l.26-.313c-.312-.053-.156-.053-.312-.21v-1.2l-.364-.574h-.156l-.623.574c-.156.157 0 .209.156.052l.415.21v1.252c.052.157.156.209.364.418l.26-.21Zm.104-4.177c.207.575.675.783 1.038.783.104-.208.312-.522.416-.626.155-.209 0-.366-.104-.105-.104.21-.571 0-.727-.156-.208-.209-.364-.783-.208-.94.156-.209.415-.104.779-.104.208 0 .26-.21.312-.314-.104-.052-.26-.156-.468-.26-.208.156-.571.417-.675.521-.208.105-.571.627-.363 1.201Zm.882 3.185c-.207.209-.363.47-.363.783 0 .313.104.574.415.731.26-.209.624-.418.935-.522.156.209.416.313.571.47.104-.105.416-.418.52-.47.104-.104 0-.209-.104-.104-.052.104-.312.052-.364-.105 0-.104-.104-1.462-.052-1.514-.207-.209-.519-.679-.727-.679-.311.053-.83.522-.934.627-.104.104 0 .679.103.783-.052-.052 0-.052 0 0Zm.831.104c-.26 0-.467-.052-.727-.313-.052-.052-.104-.365-.052-.47.104-.209.104-.26.208-.26s.571.312.571.47c.052.156.052.365 0 .573Zm-.623.053c.208.156.364.156.623.104v.365c0 .053.052.105.052.157l-.467.157c-.156-.105-.623-.418-.208-.783Zm1.818-2.506.26-.314c-.312-.052-.312-.052-.468-.156v-1.41l-.26-.365h-.155l-.624.574c-.155.157 0 .209.156.052l.312.209v1.305c.052.157.156.209.363.418l.416-.313Zm-.468-4.856c-.103 0-.311.209.416.313.104-.052.26-.313-.416-.313Zm0-.47c-.103 0-.311.314.416.314.156 0 .208-.261-.416-.314Zm.156 2.193-.311-.313-.312.26v.366l.208.21h.207l.208-.21v-.313Zm-.623-2.976c-.208-.156-.415-.522-.935-.522s-1.09.47-1.298.731c-.26.365.052.73.363.992-.207.157-.519.47-.779.73.104.105.676.419 1.04.366.518 0 .934-.26 1.245-.522.52-.417.364-.835-.207-1.148-.052-.053-.104-.053-.156-.053.363-.26.675-.47.727-.574Zm-1.298 1.097c.155.104.363.156.519.26.26.157.156.47-.156.575-.311.157-.83-.261-.935-.418a3.27 3.27 0 0 1 .572-.417Zm.519-.731a1.98 1.98 0 0 1-.312.26h-.26c-.259-.052-.363-.26-.519-.417-.103-.157.208-.313.364-.313.156.052.52.26.727.47Zm-2.13 1.096c-.778.209-1.142-.418-1.194-.574.312-.314.831-.836 1.143-1.097-.208-.208-.312-.522-.675-.522-.312 0-1.091.366-1.247 1.358-.104.94.727 1.462 1.454 1.462.208 0 .52-.314.676-.366.311-.157.207-.313-.156-.261Zm-1.246-.73c-.207-.627-.104-.836.26-1.15.104.21.312.366.415.418-.207.209-.519.627-.675.731Zm-.883-.575c.156-.105 0-.209-.103-.105a3.79 3.79 0 0 1-.416-.47c-.104.105-.415.262-.571.366-.104-.157-.26-.157-.52-.365-.155.104-.467.313-.623.522.312.104.52.104.52.365v1.67c.155.053.363 0 .57 0v-1.93a.717.717 0 0 0 .209-.157c.104.053.26.314.415.418.104 0 .416-.209.52-.313Zm-2.389 3.237c-.311.052-.83.417-.934.73-.052.157 0 .627.104.68l.103.104c-.207.209-.415.365-.415.678 0 .314.26.575.52.68a1.02 1.02 0 0 1 .674-.47c0 .208.052.417.208.521.104-.104.52-.522.623-.574.104-.104 0-.209-.103-.104-.052.052-.208-.053-.26-.105 0-.104 0-1.462.052-1.514-.156-.156-.364-.626-.572-.626Zm0 1.357c-.363.261-.467.209-.727-.052-.103-.157-.103-.418-.052-.522.104-.157.312-.366.416-.366.104 0 .363.366.363.522v.418Zm0 .679v.209c-.051 0-.155.052-.26.104-.155-.104-.778-.313-.363-.679.26.157.364.053.623-.104v.47Zm-.26-2.82c-.051-.052-.155-.156-.155-.26v-.992c0-.105-.208-.105-.208 0 0 .156 0 .365-.104.574-.363.522-1.038.783-1.506.104-.155-.209-.207-.574-.207-.783-.052-.313.207-.73.207-.783.624-.783 1.454-.209 1.506.104.052.21.104.47.104.627 0 .104.208.104.208 0v-1.41c0-.104-.156-.104-.156 0 0 .21-.104.21-.26.157-.311-.104-.986-.261-1.35 0-.363.209-.883.679-.883 1.253 0 .992.364 1.044.831 1.357.416.261.935.105 1.454-.052.208-.052.208.052.312.209.208.209.312.052.208-.104Zm-2.7 1.41c-.363.522-.52 1.358.052 1.828.26.208.52.417 1.09.313.105-.21.157-.313.364-.575-.363.053-.675 0-.986-.208-.572-.47-.416-1.201-.208-1.462.311-.47.779.209.83.313.105-.104.26-.313.468-.418-.156-.208-.311-.47-.415-.574-.416.105-.987.418-1.195.783Zm.208 4.49c-.104.94.779 1.514 1.194 1.67.104-.208.312-.573.52-.834.156-.21 0-.262-.156-.105-.208.209-.779 0-.935-.261.26-.209 1.039-.835 1.35-1.096-.207-.21-.519-.679-.57-.992-.312.26-1.247.626-1.403 1.618Zm.935-.992c.104.209.363.627.467.679-.208.209-.727.574-.883.679-.26-.366-.415-.888.416-1.358Zm1.921-.365c-.207.156-.311.313-.57.522.103.156.31.313.363.574v1.67h.519c-.052-.208 0-1.67 0-1.93.104-.105.156-.158.312-.262.103.104.363.157.363.313 0 .157.052.888 0 1.149-.052.313-.052.574.156.887.156-.156.623-.47.727-.574.104-.104.052-.156-.104-.104-.156.052-.156.052-.156-.052 0-.157-.052-.94-.104-1.462 0-.522-.26-.627-.415-.731-.156.156-.467.365-.675.522-.208 0-.26-.261-.416-.522Zm1.974-1.201c.156-.157.311-.366.363-.418.104-.104 0-.209-.103-.104-.104.104-.312-.105-.312-.105-.052-.104-.208-1.253-.156-1.253 0 0 .727-.104.831-.104.052 0 .104-.209 0-.209s-.675.052-.675 0c-.052-.104-.104-.522.052-.887.104-.157 0-.314-.052-.157s-.52.888-.831.992c-.26.104-.208.157-.052.209.104 0 .26.156.208.156 0 .575-.104 1.306.104 1.619.155.209.467.365.623.26Zm2.493.261c-.104.157-.208.365-.52.47.156.156.364.313.52.418.155-.157.311-.366.467-.523-.156-.052-.363-.156-.467-.365Zm-1.143-.627c.208 0 .623.105.987.105.467-.052.883-.783.675-1.41-.208-.574-.83-.47-1.246-.574-.364-.104-.572-.365-.104-.627.52-.313 1.09.21 1.142.314.104.156.156.156.156-.052 0-.47-.052-.21-.052-.627 0-.157-.104-.157-.156 0 0 .157-.207.104-.311.104-.156 0-.572-.052-.935.157-.208.157-.727.522-.467 1.044.155.261 1.142.522 1.402.679.26.157.311.574.052.783-.312.261-1.09.052-1.247-.104-.156-.157-.207-.314-.26-.522.053-.366-.103-.366-.103-.157s.052.887.104 1.044c.052.157.207.105.207 0 0-.157.052-.157.156-.157Zm-1.038 2.09c-.207.156.208.365.208.313 0 .574-.052 1.2.104 1.514.104.209.52.313.571.157.052-.157.364-.522.416-.627.104-.104 0-.209-.104-.104-.208.209-.312.104-.52-.052-.051-.105-.103-.888-.051-.94 0 0 .415-.052.467-.052.052 0 .052-.21 0-.21-.104 0-.467 0-.467-.051-.052-.105.052-.68.104-.94 0-.157-.052-.209-.104-.052 0 .156-.416.887-.624 1.044Z" fill="maroon"/></g></svg>