<svg xmlns="http://www.w3.org/2000/svg" viewBox="0 0 90 90"><rect width="90" height="90" fill="#141F49"/><path fill="#FFF" d="M66,13.9274611 L66,9.94818653 L50.9025,9.94818653 L50.9025,24.6217617 C50.82,22.880829 50.16,21.5544041 49.005,20.642487 C48.18,19.9792746 46.9425,19.4818653 45.2925,19.0673575 L41.58,18.1554404 C40.095,17.8238342 39.1875,17.492228 38.775,17.2435233 C38.3625,17.0777202 38.0325,16.746114 37.95,16.3316062 L37.95,16.3316062 L37.95,16.3316062 L37.95,16.3316062 C37.785,16.0829016 37.785,15.8341969 37.785,15.5025907 C37.785,14.8393782 38.0325,14.2590674 38.5275,13.8445596 L38.5275,13.8445596 L38.5275,13.8445596 L38.5275,13.8445596 L38.5275,13.8445596 C38.6925,13.761658 38.6925,13.6787565 38.8575,13.5958549 C39.6,13.1813472 40.5075,12.8497409 41.6625,12.8497409 C42.735,12.8497409 43.56,13.015544 44.3025,13.3471503 C45.375,13.8445596 45.9525,14.8393782 46.035,16.0829016 L50.2425,16.0829016 C50.16,13.8445596 49.335,12.1036269 47.7675,10.8601036 C46.2,9.61658031 44.22,9.03626943 41.91,9.03626943 C39.1875,9.03626943 37.125,9.69948187 35.64,10.9430052 C34.815,11.6891192 34.155,12.6010363 33.825,13.6787565 L33.825,13.6787565 C33.7425,13.8445596 33.66,14.0932642 33.66,14.4248705 L33.66,14.4248705 C33.165,16.9119171 31.515,18.5699482 28.875,18.5699482 C24.6675,18.5699482 23.0175,14.9222798 23.0175,11.357513 C23.0175,7.54404145 24.585,3.89637306 28.875,3.89637306 C31.2675,3.89637306 33.2475,5.47150259 33.5775,7.70984456 L38.115,7.70984456 C37.5375,2.7357513 33.5775,0 28.875,0 C22.5225,0 18.645,4.55958549 18.315,10.5284974 L18.315,0.580310881 L13.53,0.580310881 L13.53,14.0103627 C13.53,17.2435233 12.4575,18.7357513 9.075,18.7357513 C5.1975,18.7357513 4.62,16.4145078 4.62,14.0103627 L4.62,0.580310881 L0,0.580310881 L0,14.0103627 C0,19.8963731 3.3825,22.7150259 9.1575,22.7150259 C14.9325,22.7150259 18.315,19.8963731 18.315,14.0103627 L18.315,12.3523316 C18.645,18.1554404 22.5225,22.7150259 28.875,22.7150259 C31.515,22.7150259 33.66,21.8860104 35.3925,20.3937824 C35.5575,20.4766839 35.5575,20.5595855 35.7225,20.642487 C36.5475,21.2227979 38.1975,21.8031088 40.425,22.3005181 L42.735,22.7979275 C44.055,23.1295337 45.045,23.4611399 45.705,23.7927461 C46.365,24.2072539 46.695,24.7875648 46.695,25.4507772 C46.695,26.6943005 46.035,27.5233161 44.7975,27.9378238 C44.1375,28.1865285 43.23,28.2694301 42.1575,28.2694301 C40.3425,28.2694301 39.105,27.8549223 38.3625,26.9430052 C37.95,26.4455959 37.62,25.6994819 37.5375,24.7875648 L33.33,24.7875648 C33.33,27.0259067 34.155,28.7668394 35.805,30.0932642 C37.3725,31.4196891 39.6825,32 42.405,32 C45.1275,32 47.2725,31.3367876 48.84,30.0932642 C50.2425,28.9326425 50.985,27.4404145 51.0675,25.6165803 L51.0675,31.6683938 L55.8525,31.6683938 L55.8525,22.5492228 L64.845,22.5492228 L64.845,18.9015544 L55.6875,18.9015544 L55.6875,13.9274611 L66,13.9274611 L66,13.9274611 Z" transform="translate(20 29)"/></svg>