<svg viewBox="0 0 90 90" xmlns="http://www.w3.org/2000/svg"><g fill="none"><path fill="#FFF" d="M0 0h90v90H0z"/><g transform="translate(12 12)"><path d="m.244 0 .554.965c.344.643.876 1.564 1.497 2.762l1.032 1.986c.366.732.82 1.464 1.264 2.285.443.82.92 1.664 1.42 2.573l.742 1.387.81 1.42c1.164 1.94 2.306 4.081 3.747 6.222.7 1.11 1.364 2.219 2.096 3.328.732 1.11 1.542 2.219 2.329 3.328.787 1.109 1.63 2.218 2.484 3.394l1.297 1.697.643.865.699.821c.931 1.11 1.885 2.219 2.805 3.328.92 1.11 2.04 2.152 3.039 3.261.998 1.11 2.051 2.074 3.093 3.084.533.499 1.054.998 1.564 1.508s1.109.943 1.63 1.42l1.641 1.387c.543.455 1.053.965 1.619 1.375 1.109.854 2.218 1.686 3.327 2.54.277.211.532.433.81.622l.842.565 1.663 1.11 1.62 1.109c.52.388 1.108.676 1.64 1.02l3.172 1.942c1.02.643 2.073 1.109 3.049 1.697a34.92 34.92 0 0 0 2.839 1.553l2.617 1.253c.82.422 1.607.799 2.317 1.176.71.377 1.408.621 2.007.91 1.22.543 2.218 1.02 2.828 1.33l1.009.5-1.109-.09c-.72-.077-1.785-.154-3.138-.32a56.056 56.056 0 0 1-2.218-.29c-.787-.121-1.674-.343-2.606-.532-.931-.188-1.918-.421-2.971-.654-1.054-.233-2.096-.621-3.227-.965L49 62.328c-.577-.2-1.186-.366-1.774-.61l-3.648-1.508a38.704 38.704 0 0 1-3.77-1.73l-1.919-1.11-.976-.521a27.123 27.123 0 0 1-.942-.588c-1.264-.788-2.528-1.62-3.815-2.452-1.286-.832-2.473-1.84-3.714-2.806-.61-.488-1.265-.943-1.841-1.475-.577-.533-1.176-1.11-1.752-1.598-1.11-1.109-2.373-2.13-3.427-3.327-1.053-1.198-2.217-2.33-3.204-3.528a102.613 102.613 0 0 1-2.894-3.671l-.71-.921-.643-.965-1.264-1.93-1.242-1.897c-.422-.621-.743-1.298-1.11-1.941-.709-1.298-1.43-2.562-2.084-3.816-.654-1.253-1.186-2.54-1.74-3.771a74.6 74.6 0 0 1-2.74-7.055l-.554-1.62-.5-1.597c-.276-1.032-.554-2.008-.786-2.928-.233-.921-.488-1.775-.621-2.574L.92 4.171C.675 2.84.531 1.786.41 1.065L.243 0Z" fill="#C20029"/><path d="M65.978 36.96s-.3.1-.854.255-1.364.4-2.406.632c-1.043.233-2.218.588-3.604.932-1.386.344-2.872.766-4.513 1.21-.41.121-.832.199-1.253.32l-1.275.422-2.673.777c-1.807.632-3.703 1.11-5.622 1.897-.953.366-1.94.643-2.905 1.109l-1.464.588c-.488.188-.998.355-1.486.566-.975.421-1.951.887-2.95 1.275-.498.189-.986.422-1.474.666l-1.464.699-1.486.654-1.441.754c-.943.522-1.952.921-2.883 1.453a77.05 77.05 0 0 1-2.817 1.52c-.477.233-.931.5-1.375.777-.443.277-.909.52-1.364.776-1.83.987-3.537 2.063-5.222 3.028-.865.455-1.642.987-2.429 1.464-.787.477-1.552.943-2.306 1.365-.754.421-1.43.898-2.118 1.298-.688.399-1.32.81-1.952 1.109-1.253.71-2.328 1.364-3.238 1.897-.909.532-1.663.91-2.151 1.198-.488.288-.798.399-.798.399L0 65.59l2.218-2.352c.71-.743 1.519-1.686 2.55-2.662s2.14-2.152 3.46-3.328l2.062-1.808c.721-.621 1.442-1.287 2.218-1.886 1.586-1.242 3.227-2.595 5.057-3.816l1.363-.953a20.2 20.2 0 0 1 1.409-.932l2.916-1.82c.976-.61 2.03-1.109 3.05-1.697l1.54-.843 1.598-.754 1.607-.732a32.06 32.06 0 0 1 1.62-.688l3.26-1.253c2.217-.71 4.357-1.453 6.508-1.93 2.152-.477 4.236-.899 6.221-1.276.998-.144 1.974-.244 2.917-.366l1.386-.2c.454 0 .909-.055 1.341-.088l2.518-.144c.798-.056 1.563 0 2.284 0 1.43 0 2.683 0 3.692.1l3.205.21-.022.588Z" fill="#C20029"/><path d="M32.767 64.026c-6.808 0-12.286-1.753-16.334-5.214-7.54-6.39-10.345-18.757-8.316-36.738l3.038.344c-1.907 16.916.533 28.374 7.252 34.065 6.166 5.224 16.323 5.879 30.184 1.93l.831 2.94a61.512 61.512 0 0 1-16.655 2.673Z" fill="#C20029"/><ellipse fill="#428B39" cx="27.855" cy="13.799" rx="9.902" ry="9.906"/></g></g></svg>