<svg viewBox="0 0 90 90" xmlns="http://www.w3.org/2000/svg"><g fill="none"><path fill="#EC1C24" d="M0 0h90v90H0z"/><g fill="#FFF"><path d="M1 45.001a43.82 43.82 0 0 1 10.047-27.987A43.907 43.907 0 0 1 44.997 1C69.3 1 89 20.7 89 45.001 88.999 69.301 69.298 89 44.997 89 20.698 88.998 1 69.3 1 45.001Zm.654 0A43.203 43.203 0 0 0 14.35 75.65a43.201 43.201 0 0 0 30.647 12.697A43.215 43.215 0 0 0 75.65 75.649a43.2 43.2 0 0 0 12.696-30.648 43.21 43.21 0 0 0-12.696-30.65A43.215 43.215 0 0 0 44.997 1.654 43.254 43.254 0 0 0 11.552 17.43a43.174 43.174 0 0 0-9.898 27.571Z"/><path d="M10.667 62.85a1.041 1.041 0 1 1 2.083.028 1.041 1.041 0 0 1-2.083-.028Zm66.223.621a1.041 1.041 0 1 1 2.082.026 1.041 1.041 0 0 1-2.081-.026Zm-1.793-31.112c-5.72-13.525-19.783-21.551-34.337-19.6-14.555 1.953-26.005 13.4-27.96 27.954-1.955 14.554 6.069 28.617 19.593 34.34 1.21.512 2.45.95 3.713 1.31l.033.011c.63.196 1.27.356 1.917.481a32.72 32.72 0 0 0 7.023.757c1.442 0 2.883-.094 4.314-.282h.01a7.665 7.665 0 0 0 1.796-.292 32.453 32.453 0 0 0 16.912-8.967l-.231-.23.23.23a32.629 32.629 0 0 0 6.987-35.712ZM24.865 69.748a.297.297 0 0 1-.09-.284c.02-.048.043-.094.068-.139.162-.282.35-.549.56-.797.7 1.404 1.68 2.651 2.88 3.664a31.918 31.918 0 0 1-3.418-2.444Zm-.271-19.317c.476.4.762.982.79 1.603a1.481 1.481 0 0 1-.07.451l-.005.012c-.22.359-.62.567-1.04.54a1.98 1.98 0 0 1-.39-.04c-1.267-.246-2.518-.737-3.553-.865-.017-.003-.037-.002-.055-.004l2.486-3.41c.812.748 1.515 1.402 1.837 1.713Zm-5.204-5.68 16.194-16.374-9.708 22.792a3.326 3.326 0 0 0-.826-1.207c-.908-.88-4.65-4.29-5.66-5.21Zm4.363 8.889c.17.033.343.05.517.052.458.01.904-.147 1.253-.443.155-.13.283-.29.377-.47l.001-.002.001-.002.008-.018.018-.043 9.958-23.288c.025.203.062.404.11.602.09 2.021.56 4.008 1.386 5.855a12.913 12.913 0 0 0 1.474 2.506l-2.322 8.021a.33.33 0 0 0 .11.348l.553.439c.045.05.06.121.037.185l-2.583 9.536-8.1 9.299a25.395 25.395 0 0 1-4.68-5.735c-2.025-3.143-2.629-5.125-2.625-6.255-.027-.396.082-.79.307-1.116l.007-.008.008-.011.03-.037a.8.8 0 0 1 .584-.277c.021 0 .042.001.063.004.901.104 2.174.592 3.508.858ZM40.93 19.363a.326.326 0 0 0-.404-.206c.143-.127.284-.25.421-.367l1.405-.183a.328.328 0 0 0-.085-.65l-.215.028c.406-.235.827-.442 1.26-.62.25-.104.465-.182.616-.235.15-.05.233-.075.233-.076a.327.327 0 1 0-.186-.627c-.43.136-.852.298-1.263.485a.327.327 0 1 0-.536-.376l-.752 1.07a5.359 5.359 0 0 0-.2.134 7.231 7.231 0 0 0-.316.237l.076-.15a.327.327 0 1 0-.582-.298l-.824 1.603c-.204.189-.395.369-.557.523a4.135 4.135 0 0 1 1.216-3.08 3.754 3.754 0 0 1 2.378-.878c.342.008.683.041 1.02.1.142.02.646.14 1.083.251.441.113.838.219.838.22l.085.01c.306-.033.613.06.85.255.125.134.19.313.182.496-.008.174-.06.342-.15.49a1.346 1.346 0 0 1-.082.128l-2.443.268a.333.333 0 0 0-.225.127l-1.539 2.027-.753.005-.068.01a.773.773 0 0 0-.32.164.864.864 0 0 0-.302.683c-.024.465.133.922.44 1.273.023.027.047.05.071.072L40.3 23.281a2.098 2.098 0 0 1-.646-.296 1.553 1.553 0 0 1-.672-1.079 5.043 5.043 0 0 1-.069-.79 2.788 2.788 0 0 1 .04-.491l.013-.01s.147-.144.377-.364l1.384-.473a.328.328 0 0 0 .203-.415Zm5.003 2.5a.172.172 0 0 1-.081.15.326.326 0 0 0-.162.233.39.39 0 0 0 .079.271.104.104 0 0 1-.007.1l-.064.115a.325.325 0 0 0-.027.263l.004.013c.022.084.033.171.034.258a.376.376 0 0 1-.179.302 1.774 1.774 0 0 1-.6.103l-.69-.014a.326.326 0 0 0-.327.268 1.35 1.35 0 0 0-.019.238c-.002.25.057.498.173.72.06.113.136.216.227.305l.003.005 1.164 1.304-3.016.205-2.054-1.607.16-.08a.325.325 0 0 0 .181-.292v-.95l1.32-1.321a.327.327 0 0 0-.139-.545c-.06-.042-.455-.168-.468-.976.005-.132.037-.15.066-.18a.195.195 0 0 1 .032-.022l.857-.007a.329.329 0 0 0 .258-.129s1.373-1.814 1.468-1.931a.358.358 0 0 1 .237-.128l1.86-.204a.11.11 0 0 1 .11.11l.056.607c.004.095-.059.13-.095.131-.236.008-.482.014-.745.025a1.352 1.352 0 0 0-.772.303.33.33 0 0 0-.015.484c.129.075.27.126.417.151.19.081.396.12.602.114a.355.355 0 0 0 .232-.348.282.282 0 0 1 .29-.291.13.13 0 0 1 .125.123c.033.326.093.738.113.972.01.115.02.221.026.31.003.117-.1.127-.152.132-.108.014-.194.017-.194.018a.327.327 0 0 0-.31.349l.022.343Zm-3.792 5.432a.318.318 0 0 0 .202.068h.021l3.808-.259a.327.327 0 0 0 .222-.544l-.685-.767 1.007.31c.364.185.673.463.894.807.291.384.544.796.756 1.23a20.859 20.859 0 0 1-.534 2.011l-1.688 1.283-3.673-2.476a18.384 18.384 0 0 0-1.863-2.345 2.339 2.339 0 0 0-1.67-.6 3.77 3.77 0 0 0-.342.02 47.07 47.07 0 0 1 1.153-.609l2.392 1.87Zm-3.203-.627a1.7 1.7 0 0 1 1.207.408c.444.462.856.954 1.232 1.472.349.47.585.827.586.827a.316.316 0 0 0 .09.091l3.92 2.64c.116.08.27.075.382-.01l4.992-3.794.021-.018s.11-.1.256-.22a5.367 5.367 0 0 1 2.5-1.178c.062-.004.122-.006.178-.006.245-.017.49.03.71.14.12.084.173.152.182.396 0 .4.007.99.007.99.003.152.12.277.271.29.124 0 .289.037.289.225a.229.229 0 0 1-.218.258l-.278.035h-.308l-.083.01s-.42.109-.874.217a22.247 22.247 0 0 1-.891.196c-.03.005-.058.01-.077.011l-.024.003a8.81 8.81 0 0 0-.743.051.33.33 0 0 0-.231.136c-.002.002-.553.787-1.247 1.712a28.38 28.38 0 0 1-2.066 2.531c-.558.558-1.02.98-1.342 1.26-.1.088-.187.161-.259.22a.221.221 0 0 1-.219.034c-.479-.197-1.502-.607-2.732-1.133-1.719-.735-3.844-1.688-5.455-2.55a5.337 5.337 0 0 1-1.359-1.01 4.07 4.07 0 0 1-.148-.166l-.046-.055a3.68 3.68 0 0 1-.104-.135l-.076-.106a3.257 3.257 0 0 1-.13-.205l-.025-.047a2.68 2.68 0 0 1-.119-.244l-.015-.035a3.232 3.232 0 0 1-.055-.147v-.004a2.312 2.312 0 0 1-.115-.864c.004-.044.008-.088.014-.132l.002-.022c.016-.109.038-.216.068-.321v-.003c.018-.065.04-.133.064-.202l.004-.01c.023-.063.049-.128.077-.192l.012-.028c.028-.06.058-.121.09-.183l.021-.041c.04-.074.083-.149.13-.226a2.374 2.374 0 0 1 1.934-.866ZM49.19 21.68c0-.143.05-.167.074-.164.367.042.705.22.945.501a1.325 1.325 0 0 1 .247.47l.006.027a.328.328 0 0 0 .323.273h6.384c.162 0 .3-.119.323-.28a.905.905 0 0 1 .262-.434c.269-.234.606-.374.962-.398.07-.015.081.053.081.113 0 .676-.024 2.085-.024 4.13.049 1.48.333 2.945.842 4.336.5 1.394.773 2.859.81 4.339a6.485 6.485 0 0 1-.504 2.545 3.492 3.492 0 0 0-.676-.302.52.52 0 0 0-.136-.018 1.057 1.057 0 0 0-.59.24c-.16.106-.29.252-.377.424a.566.566 0 0 0-.036.2c.005.14.044.275.112.397a7.014 7.014 0 0 0-.23.195c-.11.097-.214.2-.313.308a1.052 1.052 0 0 0-.237.375.998.998 0 0 0-.047.307c.004.198.055.393.148.569a7.35 7.35 0 0 1-3.731.914 6.355 6.355 0 0 1-4.786-1.84 5.656 5.656 0 0 1-1.445-2.873c.322-.272.887-.77 1.605-1.49.122-.123.256-.268.396-.426a4.07 4.07 0 0 0 1.293 2.012 4.97 4.97 0 0 0 3.074 1.13.33.33 0 0 0 .062.007.182.182 0 0 0 .026-.002c.026.001.052.003.079.003a4.491 4.491 0 0 0 4.305-4.593 14.246 14.246 0 0 0-.49-3.006 27.08 27.08 0 0 1-.476-5.659.327.327 0 0 0-.327-.326h-6.302a.33.33 0 0 0-.232.095.335.335 0 0 0-.096.231 25.24 25.24 0 0 1-.301 4.348l-1.48 1.124a15.763 15.763 0 0 0 .317-1.355c.11-.58.168-1.17.174-1.76 0-2.15-.01-3.867-.014-4.687Zm9.087 18.112a.989.989 0 0 1-.232-.528c0-.039.006-.077.017-.113h.002c.112-.157.246-.299.396-.42.176-.155.335-.274.335-.275a.361.361 0 0 0 .144-.292.507.507 0 0 0-.06-.227c-.022-.047-.045-.086-.063-.123a.23.23 0 0 1 .062-.256.283.283 0 0 1 .302-.052c.176.072.348.157.512.253.27.143.502.348.678.598.11.178.175.38.19.588a.377.377 0 0 1-.098.251c-.105.12-1.067.927-1.166.988a5.981 5.981 0 0 1-.863.378c-.102.038-.2.074-.288.105-.12.051-.139-.029-.139-.029a.12.12 0 0 1 .023-.116c.058-.047.113-.099.163-.154a.529.529 0 0 0 .156-.352.388.388 0 0 0-.07-.224Zm.961 22.714a.149.149 0 0 1-.065.14c-.077.042-2.377 1.333-2.377 1.333l-.266-22.987a6.91 6.91 0 0 0 .751-.293l1.957 21.807ZM48.702 73.134s.85 1.1.882 1.149a.1.1 0 0 1-.017.126 11.303 11.303 0 0 1-5.747 2.044c.375-1.73 1.821-8.542 2.893-15.477 1.104-7.15 1.595-13.939 1.69-15.35 0 0 .859-.058 1.01-.072.149-.015.168.074.165.165l-.943 27.204a.33.33 0 0 0 .067.211ZM37.291 46.15l2.157-7.453a.197.197 0 0 1 .127-.127s1.558-.436 1.806-.517c.214-.057.434-.094.655-.11l5.354-.328a6.09 6.09 0 0 0 2.71 2.923l-.012 4.149c0 .077-.038.163-.21.179-.171.014-5.384.378-6.683.47a3.105 3.105 0 0 0-.604.1l-4.737 1.298a.373.373 0 0 1-.233-.036l-.258-.205c-.14-.112-.072-.343-.072-.343Zm2.01-8.26a13.919 13.919 0 0 1-2.528-6.656c.036.04.071.08.107.118.446.46.962.844 1.53 1.139 3.278 1.757 8.543 3.83 8.548 3.832l.01.002c.048.22.108.437.178.65l-4.94.303c-.336.016-.67.064-.997.144-.505.142-1.66.47-1.738.496a.146.146 0 0 1-.17-.028Zm10.94 7.568.239-.048a.33.33 0 0 0 .26-.32l.012-4.245c.97.38 2.004.569 3.045.556h.01a9.12 9.12 0 0 0 2.07-.23l.305 26.294.001.016s.002.018.002.066a2.222 2.222 0 0 1-.84 1.766 10.995 10.995 0 0 1-5.996 1.89l.892-25.745Zm-.128-11.975a63.882 63.882 0 0 0 2.08-2.744v5.46a3.927 3.927 0 0 1-.898-.568 3.414 3.414 0 0 1-1.182-2.148Zm2.735 2.955v-6.127c.058-.004.115-.006.16-.006a2.93 2.93 0 0 0 .478-.075l.194-.043v6.405a4.532 4.532 0 0 1-.832-.154Zm1.486.166v-6.57l.661-.165h.121v6.59a3.29 3.29 0 0 1-.782.145Zm2.031-8.058a.518.518 0 0 0-.335-.367 2.98 2.98 0 0 0-.179-.045 99.876 99.876 0 0 1-.003-.718 1.164 1.164 0 0 0-.077-.445v-2.634h1.027a27.166 27.166 0 0 0 .488 5.462c.26.939.42 1.902.476 2.875 0 1.018-.378 2-1.06 2.756a3.746 3.746 0 0 1-.931.746V29.81l.068-.008.081-.007.028-.002a.365.365 0 0 0 .252-.102.7.7 0 0 0 .174-.373c.026-.13.04-.263.04-.397a1.29 1.29 0 0 0-.049-.375Zm-1.249-4.209v2.01a2.323 2.323 0 0 0-.782-.12v-1.89h.782Zm-1.436 0v1.953a4.45 4.45 0 0 0-.832.275v-2.228h.832Zm-1.486 0v2.555c-.22.122-.389.228-.481.283a7.33 7.33 0 0 0-.77.612l-.003.002c.14-1.145.21-2.298.208-3.452h1.046ZM26.292 67.511l8.902-10.22a.326.326 0 0 0 .069-.128s2.61-9.63 2.627-9.697a.128.128 0 0 1 .086-.087s4.626-1.265 4.804-1.317c.143-.036.288-.06.435-.073l2.568-.18c-.03.3-.083.782-.168 1.4-.437 3.255-1.769 10.278-5.024 14.104a18.544 18.544 0 0 1-14.06 6.31c-.056 0-.109 0-.16-.002-.096 0-.161-.015-.079-.11Zm-.157.76c.118.003.25.004.396.006a19.204 19.204 0 0 0 14.56-6.54c4.15-4.927 5.19-14.328 5.353-15.973l1.3-.093a180.81 180.81 0 0 1-.364 4.424c-.27 2.891-.696 6.781-1.314 10.783a265.891 265.891 0 0 1-1.952 10.93 282.416 282.416 0 0 1-.94 4.541.254.254 0 0 1-.247.181c-.36 0-.723.033-1.09.032-1.223 0-2.443-.115-3.643-.346-.637-.14-1.27-.298-1.897-.478a19.21 19.21 0 0 1-8.62-5.057 10.265 10.265 0 0 1-1.492-2.058 7.829 7.829 0 0 1-.12-.231c-.038-.077.005-.123.07-.12Zm18.802 8.684a11.51 11.51 0 0 0 4.73-1.806l1.029.296c.037.01.076.015.115.014 0 0 .957-.052 1.036-.059.272-.016.394.145.397.202.001.057.008.128.008.128a.395.395 0 0 1-.1.28 6.443 6.443 0 0 1-1.109.391 32.073 32.073 0 0 1-5.965.557l-.141-.003Zm29.556-19.493a32.057 32.057 0 0 1-16.99 16.989 31.434 31.434 0 0 1-4.587 1.54l-.036-.636c0-.383-.434-.575-.67-.575l-1.374.022s-.422-.103-.473-.12a.054.054 0 0 1-.03-.08.327.327 0 0 0 .007-.408l-1.047-1.366.034-.971a11.64 11.64 0 0 0 6.403-2.015 2.867 2.867 0 0 0 1.109-2.295l-.002-.1-.032-2.728c.01-.005.02-.006.03-.011v-.002l2.917-1.637a.329.329 0 0 0 .167-.314L58.003 41.41c.083-.028.355-.122.66-.236.346-.12.68-.269.999-.448.21-.147 1.088-.886 1.3-1.106a.972.972 0 0 0 .253-.676 1.937 1.937 0 0 0-.741-1.437 7.096 7.096 0 0 0 .605-2.915 14.493 14.493 0 0 0-.84-4.532 13.341 13.341 0 0 1-.812-4.144c0-2.877.03-4.585.03-4.589a.329.329 0 0 0-.327-.332 2.475 2.475 0 0 0-1.894.671 1.626 1.626 0 0 0-.306.466h-5.903a1.983 1.983 0 0 0-.314-.532 2.284 2.284 0 0 0-1.854-.77.329.329 0 0 0-.327.33c0 .006.018 2.17.017 5.206.002.24-.01.475-.03.709a7.785 7.785 0 0 0-.39-.562 2.823 2.823 0 0 0-1.222-1.037c-.428-.13-1.06-.328-1.803-.554a.716.716 0 0 1-.545-.604l.362.007h.018c.287 0 .572-.052.842-.152a.865.865 0 0 0 .527-.531c.037-.122.055-.249.054-.376 0-.108-.011-.216-.033-.322l.155-.272a.324.324 0 0 0 .02-.285.33.33 0 0 0 .103-.261l-.023-.337.049-.008c.106-.017.21-.048.31-.09a.585.585 0 0 0 .172-.117.421.421 0 0 0 .124-.294c-.001-.088-.02-.297-.047-.626-.07-.806-.2-2.172-.24-2.597.227-.296.358-.655.374-1.028.009-.356-.125-.7-.371-.957a1.76 1.76 0 0 0-1.273-.448c-.253-.067-1.574-.418-1.956-.475a7.438 7.438 0 0 0-1.112-.106 4.416 4.416 0 0 0-2.777 1.014c-1.355 1.067-1.466 2.978-1.475 3.828 0 .164.006.29.01.365a2.792 2.792 0 0 0-.114.867c.002.3.028.598.077.893a2.237 2.237 0 0 0 1.12 1.625c.196.112.405.201.622.264v.622a24.702 24.702 0 0 0-3.459 1.928c-.103.07-.198.152-.283.242l-.01.008-17.64 17.836a.327.327 0 0 0 .012.472c.003.002 1.215 1.105 2.561 2.337.335.307.679.62 1.014.928l-3.234 4.435a2.403 2.403 0 0 0-.446 1.52c.004 1.353.674 3.409 2.729 6.609a26.093 26.093 0 0 0 4.8 5.874l-.853.98a9.046 9.046 0 0 0-.585.694 4.9 4.9 0 0 0-.416.63 3.388 3.388 0 0 0-.08.163 33.052 33.052 0 0 1-1.687-1.569c-11.324-11.35-12.467-29.339-2.671-42.03 9.795-12.692 27.488-16.144 41.336-8.067 13.85 8.078 19.553 25.177 13.328 39.951ZM7.761 47.774c.32-.05.647-.047.966.01.252.049.487.163.682.33.197.18.349.406.442.657.12.317.2.648.239.985.042.302.047.608.013.91a1.802 1.802 0 0 1-.249.739 1.568 1.568 0 0 1-.55.526 3.795 3.795 0 0 1-.99.29l-2.888.377a.123.123 0 0 0-.103.112l-.024.425a.127.127 0 0 1-.105.113l-.127.015a.1.1 0 0 1-.111-.085l-.254-1.944a.1.1 0 0 1 .086-.112l.127-.016a.127.127 0 0 1 .13.08l.13.399c.02.053.074.087.13.081l3.232-.422c.35-.027.673-.2.89-.477.21-.325.283-.72.205-1.1a1.383 1.383 0 0 0-.493-1.004 2.698 2.698 0 0 0-1.265-.168l-2.933.385a.121.121 0 0 0-.104.111l-.025.424a.125.125 0 0 1-.104.113l-.127.016a.099.099 0 0 1-.111-.086l-.228-1.743a.1.1 0 0 1 .085-.111l.127-.017a.124.124 0 0 1 .13.082l.133.405c.02.053.072.086.129.082l2.915-.382Zm-3.486-4.522a.21.21 0 0 1 .093-.148l4.078-2.43-3.412-.251a.126.126 0 0 0-.125.088l-.11.404a.125.125 0 0 1-.125.088l-.128-.01a.1.1 0 0 1-.091-.106l.127-1.676a.1.1 0 0 1 .106-.092l.128.01c.056.006.102.05.11.106l.048.423c.008.056.053.1.11.107l4.832.366a.1.1 0 0 1 .092.107l-.037.475a.214.214 0 0 1-.092.15l-4.712 2.762 3.97.3a.123.123 0 0 0 .125-.087l.11-.403a.122.122 0 0 1 .125-.087l.128.009a.099.099 0 0 1 .091.105L9.59 45.14a.1.1 0 0 1-.106.091l-.128-.01a.125.125 0 0 1-.11-.107l-.048-.423a.124.124 0 0 0-.11-.106l-4.344-.33a.124.124 0 0 0-.124.09l-.112.41a.123.123 0 0 1-.124.088l-.128-.009a.099.099 0 0 1-.091-.107l.111-1.475Zm1.675-9.05a.125.125 0 0 1 .09.123l-.022.418a.125.125 0 0 0 .09.124l4.227 1.055a.125.125 0 0 0 .138-.065l.176-.38a.125.125 0 0 1 .138-.066l.125.03a.1.1 0 0 1 .072.12l-.475 1.904a.099.099 0 0 1-.12.071l-.125-.031a.124.124 0 0 1-.09-.123l.023-.418a.126.126 0 0 0-.091-.123l-4.227-1.055a.123.123 0 0 0-.138.065l-.177.38a.127.127 0 0 1-.137.066l-.125-.033a.096.096 0 0 1-.072-.118l.475-1.902a.099.099 0 0 1 .12-.072l.125.03Zm6.624-3.208c.04.043.052.106.032.16l-.23.54a.152.152 0 0 1-.137.085l-5.131-.347a.201.201 0 0 0-.157.073l-.189.259a.131.131 0 0 1-.15.041l-.118-.05a.098.098 0 0 1-.052-.13l.704-1.654a.099.099 0 0 1 .13-.052l.118.05c.052.024.082.08.073.136l-.06.33a.088.088 0 0 0 .08.105l4.121.319-3.026-2.896a.083.083 0 0 0-.127.014l-.227.333a.126.126 0 0 1-.147.044l-.119-.05a.1.1 0 0 1-.052-.13l.635-1.49a.1.1 0 0 1 .13-.052l.118.05c.051.024.08.08.07.136l-.08.388a.2.2 0 0 0 .051.165l3.74 3.623Zm10.309-14.081c.132-.036.261-.084.385-.144.114-.052.223-.115.325-.187.256-.168.45-.415.553-.703a.805.805 0 0 0-.155-.732.839.839 0 0 0-.362-.294 1.245 1.245 0 0 0-.435-.083 2.317 2.317 0 0 0-.475.041c-.164.031-.327.058-.49.083l-.669.088a2.208 2.208 0 0 1-.548.008 1.176 1.176 0 0 1-.458-.148 1.332 1.332 0 0 1-.4-.377 1.252 1.252 0 0 1-.248-.585 1.29 1.29 0 0 1 .066-.609c.081-.221.2-.426.354-.605a3.528 3.528 0 0 1 .926-.772 5.768 5.768 0 0 1 .71-.352c.12-.048.228-.083.228-.083a.194.194 0 0 1 .12-.009.561.561 0 0 1 .073.106l.413.727c.026.05.013.11-.031.146l-.272.2a.134.134 0 0 1-.155-.004l-.506-.425a.93.93 0 0 0-.314.073c-.14.058-.272.134-.393.227a1.18 1.18 0 0 0-.473.625.734.734 0 0 0 .138.657.81.81 0 0 0 .32.277.92.92 0 0 0 .366.077c.135 0 .27-.014.403-.042.14-.029.283-.057.431-.083.205-.028.418-.062.641-.101.214-.038.431-.053.648-.044.203.008.404.051.592.128.197.086.363.229.477.41.154.216.253.467.288.73.024.226-.008.453-.093.663a1.965 1.965 0 0 1-.408.611c-.201.21-.42.4-.654.571a4.645 4.645 0 0 1-.707.43c-.245.121-.564.25-.564.25-.05.02-.102.028-.113.014a.695.695 0 0 1-.071-.107l-.418-.723a.114.114 0 0 1 .03-.144l.272-.202a.131.131 0 0 1 .155.005l.498.411Zm3.905-8.033a.127.127 0 0 1-.03.15l-.325.264a.126.126 0 0 0-.03.15l2.063 3.839a.125.125 0 0 0 .141.056l.4-.125a.125.125 0 0 1 .142.058l.06.113a.1.1 0 0 1-.04.134l-1.727.928a.1.1 0 0 1-.134-.04l-.06-.113a.124.124 0 0 1 .029-.15l.324-.264a.123.123 0 0 0 .03-.15L25.57 9.893a.123.123 0 0 0-.141-.058l-.4.124a.125.125 0 0 1-.141-.056l-.061-.114a.1.1 0 0 1 .04-.134l1.727-.93a.1.1 0 0 1 .134.042l.061.113Zm2.146-1.254a.208.208 0 0 1 .114-.09l4.032-1.467a.268.268 0 0 1 .14-.018c.04.026.069.064.084.108l.347.863a.094.094 0 0 1-.056.125l-.324.118a.134.134 0 0 1-.149-.048l-.283-.42a.143.143 0 0 0-.15-.054l-.422.125a4.105 4.105 0 0 0-.188.061l-.41.149 1.514 4.167a.124.124 0 0 0 .131.076l.414-.066a.125.125 0 0 1 .132.078l.044.12a.098.098 0 0 1-.06.127l-1.842.67a.099.099 0 0 1-.127-.06l-.044-.12a.123.123 0 0 1 .05-.143l.36-.216a.124.124 0 0 0 .052-.143L30.777 7.4l-.41.15a3.078 3.078 0 0 0-.184.074l-.403.176a.144.144 0 0 0-.08.138l.052.503a.133.133 0 0 1-.083.133l-.324.117a.095.095 0 0 1-.124-.06l-.277-.855a.296.296 0 0 1-.01-.15Zm9.873.569-1.802.34-.278 1.65a.084.084 0 0 0 .083.1l.373.006a.126.126 0 0 1 .117.1l.024.126a.1.1 0 0 1-.078.116l-1.577.298a.1.1 0 0 1-.115-.08l-.024-.126a.127.127 0 0 1 .073-.136l.322-.137a.206.206 0 0 0 .11-.135l.995-5.181a.16.16 0 0 1 .115-.116l.691-.13a.149.149 0 0 1 .146.067l2.564 4.506a.194.194 0 0 0 .148.089l.342.011a.128.128 0 0 1 .117.1l.025.126a.099.099 0 0 1-.08.116l-1.804.341a.1.1 0 0 1-.116-.078l-.023-.127a.128.128 0 0 1 .072-.136l.323-.138a.087.087 0 0 0 .044-.125l-.787-1.447Zm-1.31-2.371-.413 2.292 1.519-.286-1.106-2.006Zm6.298 3.481c.129.049.261.086.397.11.122.026.247.04.372.041.306.018.609-.067.861-.24a.805.805 0 0 0 .308-.681.834.834 0 0 0-.118-.45 1.211 1.211 0 0 0-.301-.325 2.335 2.335 0 0 0-.409-.248c-.15-.072-.298-.146-.443-.224a56.487 56.487 0 0 1-.592-.323 2.228 2.228 0 0 1-.448-.317 1.183 1.183 0 0 1-.28-.391 1.34 1.34 0 0 1-.1-.54 1.26 1.26 0 0 1 .144-.618c.1-.182.242-.337.414-.452.196-.132.414-.226.643-.28a3.498 3.498 0 0 1 1.204-.075 6.747 6.747 0 0 1 .78.136c.125.031.234.068.234.068.04.01.075.032.101.063a.649.649 0 0 1-.003.13l-.097.83a.114.114 0 0 1-.11.099h-.339a.132.132 0 0 1-.122-.094l-.158-.642a.946.946 0 0 0-.296-.127 1.75 1.75 0 0 0-.45-.049 1.179 1.179 0 0 0-.753.225.735.735 0 0 0-.277.611.826.826 0 0 0 .095.412.917.917 0 0 0 .25.279c.109.08.226.148.35.204.13.06.262.122.397.19.182.096.374.195.576.296.195.095.38.211.549.347.16.126.295.28.402.453.108.186.157.4.142.613a1.62 1.62 0 0 1-.198.759c-.114.196-.275.36-.467.48a1.959 1.959 0 0 1-.691.252 5.018 5.018 0 0 1-1.689.003c-.27-.048-.604-.132-.604-.132-.052-.014-.097-.038-.1-.055a.851.851 0 0 1 .007-.13l.09-.83a.114.114 0 0 1 .11-.098l.338-.002c.058.002.107.04.123.095l.158.627Zm14.079 2.205a2.608 2.608 0 0 1-2.1.083 3.132 3.132 0 0 1-.987-.509c-.26-.2-.47-.459-.613-.754a2.303 2.303 0 0 1-.216-.98c.002-.405.07-.807.202-1.19.122-.403.312-.784.56-1.125.207-.283.474-.517.782-.686.298-.158.627-.245.964-.256a3.15 3.15 0 0 1 1.101.166c.356.108.688.28.983.506.263.202.475.462.62.76.144.31.22.649.221.991-.001.409-.07.814-.202 1.2a2.924 2.924 0 0 1-1.315 1.793Zm.489-3.916a1.367 1.367 0 0 0-.947-.92 1.4 1.4 0 0 0-1.312.172c-.47.411-.801.957-.948 1.564a3.168 3.168 0 0 0-.167 1.85c.137.45.496.798.95.92a1.4 1.4 0 0 0 1.313-.17c.47-.411.801-.958.948-1.565a3.14 3.14 0 0 0 .163-1.85Zm2.705 5.514a2.352 2.352 0 0 0 .601.503c.26.161.566.233.87.203a.805.805 0 0 0 .599-.45.836.836 0 0 0 .112-.451 1.252 1.252 0 0 0-.106-.43 2.356 2.356 0 0 0-.24-.412 10.401 10.401 0 0 1-.282-.41 96.96 96.96 0 0 1-.363-.568c-.1-.154-.18-.32-.24-.494a1.184 1.184 0 0 1-.058-.478c.02-.184.08-.36.172-.52.099-.192.245-.354.425-.473.174-.112.373-.18.58-.198.234-.02.47.002.698.065a3.482 3.482 0 0 1 1.09.512 6.866 6.866 0 0 1 .62.496c.095.086.172.171.172.171.036.04.063.087.058.104a.522.522 0 0 1-.065.112l-.484.68a.117.117 0 0 1-.144.035l-.297-.162a.131.131 0 0 1-.062-.143l.17-.638a.926.926 0 0 0-.198-.254 1.756 1.756 0 0 0-.371-.26 1.183 1.183 0 0 0-.769-.163.736.736 0 0 0-.536.402.822.822 0 0 0-.115.407c.003.126.032.25.085.364.058.123.128.24.209.348.085.114.171.232.257.356.112.173.233.352.362.537.125.178.23.368.315.569.078.188.124.387.134.59a1.07 1.07 0 0 1-.17.607c-.13.23-.316.426-.539.57a1.398 1.398 0 0 1-.641.195 1.936 1.936 0 0 1-.726-.111 5.023 5.023 0 0 1-1.482-.81c-.214-.172-.466-.405-.466-.405-.04-.038-.067-.08-.06-.097a.776.776 0 0 1 .067-.11l.478-.685a.117.117 0 0 1 .145-.033l.296.161c.05.03.075.087.062.143l-.163.625Zm5.661 3.571a.099.099 0 0 0 .017.14l.669.524c.043.034.115.087.16.117l.355.245c.05.03.112.028.159-.005l.436-.352a.13.13 0 0 1 .154-.001l.272.214a.094.094 0 0 1 .015.136l-.579.687c-.035.041-.08.09-.098.108-.02.017-.071.004-.113-.03l-2.9-2.273a.099.099 0 0 1-.017-.139l.079-.1a.124.124 0 0 1 .149-.033l.372.19a.126.126 0 0 0 .15-.031l2.688-3.429a.126.126 0 0 0-.004-.153l-.275-.316a.126.126 0 0 1-.004-.153l.079-.1a.1.1 0 0 1 .139-.018l1.537 1.206a.1.1 0 0 1 .017.138l-.08.101a.124.124 0 0 1-.149.033l-.372-.191a.125.125 0 0 0-.15.032L66.73 16.68Zm6.434 6.104a2.603 2.603 0 0 1-1.85-1 3.122 3.122 0 0 1-.59-.938 2.133 2.133 0 0 1-.143-.96c.033-.338.14-.664.313-.956a4.208 4.208 0 0 1 1.835-1.603 2.394 2.394 0 0 1 1.023-.192c.336.017.665.11.96.272a3.42 3.42 0 0 1 1.451 1.639c.122.307.172.64.145.97-.033.34-.14.67-.314.966-.21.351-.474.666-.785.93a2.933 2.933 0 0 1-2.045.872Zm2.414-3.12a1.363 1.363 0 0 0-.345-1.273 1.4 1.4 0 0 0-1.217-.522 3.024 3.024 0 0 0-1.612.863 3.17 3.17 0 0 0-1.085 1.507c-.113.457.019.94.348 1.277.292.367.749.563 1.216.522a3.02 3.02 0 0 0 1.612-.863c.505-.383.883-.91 1.083-1.51Zm2.228 6.538a.122.122 0 0 0 .025-.15l-.59-1.002-1.942 1.17.634 1.069c.028.046.076.121.106.166l.244.357a.14.14 0 0 0 .15.052l.53-.176a.13.13 0 0 1 .144.055l.181.303a.095.095 0 0 1-.037.133l-.788.432a1.586 1.586 0 0 1-.131.064c-.024.01-.067-.021-.094-.068l-2.041-3.435a.099.099 0 0 1 .035-.135l.11-.066a.123.123 0 0 1 .151.023l.278.314c.04.04.101.05.15.023l3.747-2.225a.126.126 0 0 0 .051-.144l-.142-.394a.126.126 0 0 1 .052-.143l.11-.066a.099.099 0 0 1 .136.034l1.946 3.275c.026.042.041.09.045.139a.192.192 0 0 1-.089.105l-.782.502a.094.094 0 0 1-.134-.032l-.177-.297a.129.129 0 0 1 .022-.152l.424-.4a.14.14 0 0 0 .027-.157l-.202-.391a3.587 3.587 0 0 0-.096-.173l-.572-.97-1.716 1.026.591.997c.03.048.09.07.143.05l.391-.147a.124.124 0 0 1 .143.052l.15.25a.1.1 0 0 1-.035.136l-1.266.752a.1.1 0 0 1-.136-.035l-.149-.25a.122.122 0 0 1 .025-.15l.378-.32ZM13.607 23.88a.123.123 0 0 0-.145.044l-.64.972 1.908 1.226.678-1.042c.03-.045.076-.122.103-.17l.213-.374a.138.138 0 0 0-.02-.157l-.391-.4a.128.128 0 0 1-.016-.152l.193-.297a.096.096 0 0 1 .135-.026l.736.518c.044.03.096.07.115.089.02.017.01.07-.02.115l-2.18 3.348a.1.1 0 0 1-.137.027l-.108-.07a.125.125 0 0 1-.046-.145l.159-.389a.125.125 0 0 0-.046-.145l-3.65-2.379a.127.127 0 0 0-.151.017l-.291.302a.126.126 0 0 1-.153.016l-.107-.07a.1.1 0 0 1-.029-.137l2.08-3.19a.298.298 0 0 1 .104-.102.198.198 0 0 1 .134.032l.796.481a.095.095 0 0 1 .03.134l-.188.29a.13.13 0 0 1-.147.048l-.546-.203a.139.139 0 0 0-.152.045l-.262.352a3.996 3.996 0 0 0-.113.163l-.618.94 1.678 1.09.635-.973a.122.122 0 0 0-.018-.15l-.305-.286a.124.124 0 0 1-.018-.15l.159-.245a.099.099 0 0 1 .137-.029l1.234.804a.1.1 0 0 1 .03.137l-.16.245a.121.121 0 0 1-.145.043l-.455-.197Zm69.421 6.602a.216.216 0 0 1-.026.174l-2.782 3.852 3.236-1.128a.125.125 0 0 0 .08-.13l-.06-.415a.124.124 0 0 1 .08-.13l.121-.042a.097.097 0 0 1 .126.062l.55 1.588a.101.101 0 0 1-.062.127l-.121.04a.125.125 0 0 1-.144-.052l-.211-.371a.126.126 0 0 0-.143-.053l-4.58 1.584a.1.1 0 0 1-.126-.06l-.156-.453a.213.213 0 0 1 .026-.174l3.227-4.41-3.765 1.304a.127.127 0 0 0-.08.13l.06.415a.124.124 0 0 1-.08.13l-.12.042a.098.098 0 0 1-.126-.06l-.55-1.59a.1.1 0 0 1 .061-.126l.122-.04a.122.122 0 0 1 .142.052l.213.37c.03.048.088.07.143.053l4.117-1.424a.124.124 0 0 0 .08-.13l-.062-.421a.125.125 0 0 1 .079-.13l.121-.044a.1.1 0 0 1 .126.062l.484 1.398Zm-2.859 8.333a2.33 2.33 0 0 0-.055.407c-.008.125-.005.25.01.375.027.305.152.592.358.818.19.185.458.264.718.212a.825.825 0 0 0 .43-.181c.113-.096.208-.212.28-.341.077-.14.14-.287.188-.44.05-.158.103-.315.16-.47.086-.232.166-.442.239-.63.064-.172.149-.336.251-.488.093-.133.212-.246.35-.333.16-.092.337-.15.52-.172a1.26 1.26 0 0 1 .633.058c.194.074.367.192.505.347.157.176.28.378.365.598a3.44 3.44 0 0 1 .24 1.18 6.437 6.437 0 0 1-.026.794c-.014.128-.036.24-.036.24a.183.183 0 0 1-.047.11.514.514 0 0 1-.13.014l-.835.019a.115.115 0 0 1-.113-.097l-.048-.333a.134.134 0 0 1 .078-.136l.614-.245a.92.92 0 0 0 .085-.31 1.72 1.72 0 0 0-.015-.453 1.183 1.183 0 0 0-.326-.714.736.736 0 0 0-.644-.19.825.825 0 0 0-.394.152.923.923 0 0 0-.242.285 1.91 1.91 0 0 0-.154.375c-.04.136-.085.277-.132.419-.072.194-.143.398-.214.611a3.054 3.054 0 0 1-.269.592 1.718 1.718 0 0 1-.393.46 1.065 1.065 0 0 1-.588.227 1.6 1.6 0 0 1-.778-.092 1.396 1.396 0 0 1-.54-.397 1.94 1.94 0 0 1-.345-.649 4.97 4.97 0 0 1-.237-1.672c.01-.274.048-.615.048-.615.005-.054.024-.104.04-.107a.9.9 0 0 1 .13-.012l.834-.024a.112.112 0 0 1 .113.094l.048.335a.134.134 0 0 1-.077.135l-.6.244Zm5.23 7.339a.124.124 0 0 1-.118-.096l-.082-.412a.126.126 0 0 0-.117-.097l-4.357.02a.125.125 0 0 0-.118.097l-.077.412a.125.125 0 0 1-.117.098l-.128.001a.1.1 0 0 1-.1-.099l-.009-1.96a.1.1 0 0 1 .099-.1h.128a.125.125 0 0 1 .118.096l.082.412a.123.123 0 0 0 .118.095l4.356-.018a.124.124 0 0 0 .117-.098l.077-.412a.125.125 0 0 1 .118-.097l.128-.002a.1.1 0 0 1 .1.1l.009 1.96a.099.099 0 0 1-.099.099l-.128.001Zm-4.986 3.318c-.068.12-.126.245-.172.374a1.978 1.978 0 0 0-.1.362 1.39 1.39 0 0 0 .1.887.806.806 0 0 0 .624.413c.156.03.317.014.464-.046.136-.058.261-.14.368-.244.115-.11.219-.232.31-.363.094-.139.19-.272.29-.404l.414-.532a2.26 2.26 0 0 1 .385-.391c.127-.101.274-.175.431-.216.18-.042.367-.046.548-.012.213.028.416.111.588.24.163.128.294.293.381.481.097.215.156.445.173.68a3.457 3.457 0 0 1-.118 1.2 6.14 6.14 0 0 1-.259.75c-.05.117-.104.218-.104.218-.025.048-.06.088-.078.09a.637.637 0 0 1-.127-.023l-.804-.229a.115.115 0 0 1-.08-.124l.052-.335a.135.135 0 0 1 .115-.105l.658-.053a.94.94 0 0 0 .172-.272 1.76 1.76 0 0 0 .12-.437 1.18 1.18 0 0 0-.102-.779.733.733 0 0 0-.56-.37.813.813 0 0 0-.421.028.908.908 0 0 0-.315.201c-.097.096-.183.2-.258.314-.078.118-.162.24-.25.362a20.23 20.23 0 0 0-.384.522c-.125.177-.27.34-.43.487-.15.136-.324.246-.512.323a1.07 1.07 0 0 1-.628.043 1.646 1.646 0 0 1-.717-.316 1.41 1.41 0 0 1-.4-.539 1.956 1.956 0 0 1-.138-.721 5.066 5.066 0 0 1 .266-1.668c.09-.258.226-.575.226-.575.021-.05.053-.09.07-.09a.845.845 0 0 1 .127.027l.805.222a.113.113 0 0 1 .08.124l-.052.334a.133.133 0 0 1-.114.106l-.644.056ZM21.617 77.529a.121.121 0 0 0 .145-.041l2.243-3.223-4.176 2.366a.158.158 0 0 1-.163-.014l-.167-.136a.168.168 0 0 1-.052-.159l1.209-4.51-2.536 2.763a.12.12 0 0 0-.012.15l.254.344a.125.125 0 0 1-.009.154l-.087.092a.098.098 0 0 1-.14.004l-1.236-1.151a.099.099 0 0 1-.005-.14l.088-.094a.127.127 0 0 1 .151-.02l.356.226c.05.027.112.02.154-.018l2.868-3.182a.118.118 0 0 0 .001-.15l-.271-.322a.127.127 0 0 1-.002-.153l.081-.1a.1.1 0 0 1 .14-.013l1.293 1.05c.044.04.063.1.051.158l-1.028 3.97 3.54-1.928a.158.158 0 0 1 .163.016l1.239 1.007a.099.099 0 0 1 .014.138l-.08.1a.125.125 0 0 1-.15.03l-.371-.2a.118.118 0 0 0-.147.032L22.53 78.05a.131.131 0 0 0 .012.155l.287.308a.123.123 0 0 1 .009.152l-.075.103a.099.099 0 0 1-.138.022l-1.59-1.166a.098.098 0 0 1-.021-.137l.075-.104a.125.125 0 0 1 .148-.038l.38.183Zm9.355-.279c.36.18.698.403 1.006.663.272.225.493.506.648.823.148.316.214.664.192 1.012-.035.43-.16.848-.369 1.226a3.25 3.25 0 0 1-.752 1c-.268.238-.59.408-.937.497-.353.083-.72.09-1.077.024a6.93 6.93 0 0 1-1.264-.454l-1.885-.965a.1.1 0 0 1-.043-.133l.058-.113a.124.124 0 0 1 .14-.061l.404.118a.123.123 0 0 0 .14-.06l1.979-3.87a.126.126 0 0 0-.033-.149l-.333-.258a.124.124 0 0 1-.033-.149l.058-.114a.099.099 0 0 1 .133-.043l1.968 1.007Zm.886 2.294c.054-.27.047-.549-.02-.816a1.503 1.503 0 0 0-.385-.653 4.42 4.42 0 0 0-.829-.567l-.494-.256-2.1 4.108.47.244c.213.109.433.203.66.28a1.506 1.506 0 0 0 1.525-.27c.352-.285.633-.648.822-1.06.162-.32.28-.66.35-1.01Zm8.406 1.532c-.012-.183-.006-.214-.012-.344-.008-.158-.058-.218-.218-.32a1.546 1.546 0 0 0-.206-.105 1.681 1.681 0 0 0-.398-.12 1.875 1.875 0 0 0-.762.007 1.48 1.48 0 0 0-.641.321c-.205.179-.37.396-.49.64a3.526 3.526 0 0 0-.304.957 2.705 2.705 0 0 0 .169 1.843 1.8 1.8 0 0 0 1.328.832c.197.035.398.048.599.04.184-.008.396-.034.638-.064.126-.016.138.076.138.076l.013.099a.147.147 0 0 1-.082.15 3.304 3.304 0 0 1-1.759.138c-.34-.06-.67-.17-.979-.328a2.143 2.143 0 0 1-.729-.613 2.23 2.23 0 0 1-.394-.931 3.485 3.485 0 0 1 .027-1.28c.068-.437.221-.856.45-1.234.193-.311.453-.575.762-.771a2.48 2.48 0 0 1 1.003-.35c.392-.048.79-.034 1.178.04.266.048.526.122.776.224.164.068.319.138.464.209a.23.23 0 0 1 .148.27l-.215.714s-.052.156-.19.133a17.265 17.265 0 0 1-.197-.035s-.105-.015-.117-.198Zm8.28.185c-.055-.174-.056-.207-.092-.33-.046-.152-.11-.199-.288-.26a1.691 1.691 0 0 0-.64-.076 1.866 1.866 0 0 0-.74.188 1.523 1.523 0 0 0-.547.463 2.008 2.008 0 0 0-.323.738 3.475 3.475 0 0 0-.07 1.002 2.71 2.71 0 0 0 .601 1.751c.395.382.942.564 1.487.494.2-.014.399-.049.591-.106a7.17 7.17 0 0 0 .605-.213c.118-.044.153.043.153.043l.036.093a.148.148 0 0 1-.045.166 3.294 3.294 0 0 1-1.676.55 3.415 3.415 0 0 1-1.029-.087 2.143 2.143 0 0 1-.853-.424 2.253 2.253 0 0 1-.602-.809 3.502 3.502 0 0 1-.279-1.251c-.036-.44.013-.884.146-1.305a2.42 2.42 0 0 1 .558-.93c.252-.255.557-.451.892-.577.37-.14.759-.22 1.154-.24.269-.018.54-.007.806.033.176.028.343.058.5.093.118.012.208.11.21.228l-.042.744s-.012.165-.152.174c-.125.01-.2.01-.2.01s-.105.012-.16-.162Zm8.076-1.704c-.09-.16-.099-.19-.16-.304-.076-.14-.148-.17-.335-.194a1.72 1.72 0 0 0-.643.06 1.88 1.88 0 0 0-.683.339 1.5 1.5 0 0 0-.437.567 1.994 1.994 0 0 0-.161.788c-.001.337.047.673.142.996.122.624.46 1.185.954 1.585.466.292 1.04.355 1.557.172.193-.056.38-.131.557-.226a8.44 8.44 0 0 0 .546-.335c.107-.07.159.009.159.009l.054.084a.146.146 0 0 1-.009.17 3.312 3.312 0 0 1-1.523.89 3.415 3.415 0 0 1-1.024.13 2.116 2.116 0 0 1-.924-.234 2.26 2.26 0 0 1-.759-.666 3.472 3.472 0 0 1-.533-1.164 3.403 3.403 0 0 1-.133-1.308 2.42 2.42 0 0 1 .351-1.025c.193-.302.449-.559.75-.753a3.877 3.877 0 0 1 1.079-.476c.26-.073.526-.119.795-.135a7.93 7.93 0 0 1 .51-.014.231.231 0 0 1 .25.177l.117.737s.022.164-.113.203c-.12.034-.192.052-.192.052s-.101.033-.192-.125Zm6.721-1.318-2.398-1.087a.306.306 0 0 0-.185-.013l-.36.112a.13.13 0 0 1-.144-.056l-.063-.112a.1.1 0 0 1 .037-.135l1.726-.982a.1.1 0 0 1 .136.036l.062.112a.13.13 0 0 1-.023.153l-.215.196a.062.062 0 0 0 .017.11l1.709.812.21-1.907a.06.06 0 0 0-.083-.07l-.299.094a.127.127 0 0 1-.143-.056l-.063-.11a.1.1 0 0 1 .036-.136l1.367-.779a.1.1 0 0 1 .135.037l.063.112a.129.129 0 0 1-.025.152l-.312.274a.287.287 0 0 0-.085.163l-.265 2.427 2.657 1.236a.297.297 0 0 0 .185.012l.367-.114a.128.128 0 0 1 .143.055l.063.112a.098.098 0 0 1-.037.134l-1.732.988a.1.1 0 0 1-.135-.038l-.063-.11a.127.127 0 0 1 .024-.152l.233-.21a.062.062 0 0 0-.015-.109l-1.996-.956-.243 2.232a.06.06 0 0 0 .083.07l.286-.086a.13.13 0 0 1 .144.056l.063.111a.1.1 0 0 1-.037.135l-1.374.782a.1.1 0 0 1-.134-.037l-.064-.11a.129.129 0 0 1 .025-.152l.312-.275a.296.296 0 0 0 .086-.163l.324-2.758Zm5.944-7.293a.126.126 0 0 1 .005.152l-.259.334a.127.127 0 0 0 .005.153l2.875 3.259a.125.125 0 0 0 .15.024l.363-.215a.122.122 0 0 1 .15.025l.085.095a.1.1 0 0 1-.008.14l-1.478 1.303a.1.1 0 0 1-.14-.009l-.085-.095a.124.124 0 0 1-.004-.152l.258-.334a.127.127 0 0 0-.005-.153l-2.874-3.258a.125.125 0 0 0-.15-.024l-.364.214a.125.125 0 0 1-.15-.024l-.086-.095a.1.1 0 0 1 .01-.14l1.478-1.304a.099.099 0 0 1 .14.01l.084.094ZM20.272 19.883a.204.204 0 0 0 .165-.055l.822-.862a.1.1 0 0 0-.004-.14l-.093-.089a.127.127 0 0 0-.153-.012l-.313.217a.28.28 0 0 1-.179.041l-2.453-.399a.071.071 0 0 1-.056-.105c.15-.31.247-.643.289-.985a1.316 1.316 0 0 0-.452-.917 1.188 1.188 0 0 0-.624-.343 1.222 1.222 0 0 0-.614.065c-.21.08-.404.193-.577.336a7.681 7.681 0 0 0-.586.548L14 18.699a.1.1 0 0 0 .003.14l.093.088a.125.125 0 0 0 .153.011l.346-.249a.125.125 0 0 1 .152.01l3.156 3.004c.04.041.047.103.019.152l-.232.358a.124.124 0 0 0 .018.152l.093.089a.1.1 0 0 0 .14-.004l1.352-1.42a.1.1 0 0 0-.003-.14l-.094-.09a.125.125 0 0 0-.152-.01l-.34.244a.125.125 0 0 1-.153-.011l-1.454-1.384.215-.227a.204.204 0 0 1 .166-.053l2.793.524Zm-3.354-.552a.876.876 0 0 1-.065.065l-1.57-1.484.282-.291a3.639 3.639 0 0 1 .43-.398.967.967 0 0 1 .37-.174.745.745 0 0 1 .388.027c.156.059.297.151.413.27.27.208.431.526.442.866a2.166 2.166 0 0 1-.5.92l-.19.2Z"/></g></g></svg>