<svg xmlns="http://www.w3.org/2000/svg" viewBox="0 0 90 90"><path fill="#100AED" d="M0 0h90v90H0z"/><path d="M23.256 52.319c2.07 0 3.748 1.637 3.748 3.657v5.367c0 2.02-1.678 3.657-3.748 3.657h-4.508C16.678 65 15 63.363 15 61.343v-5.367c0-2.02 1.678-3.657 3.748-3.657ZM35.269 25c2.07 0 3.748 1.637 3.748 3.657v20.005c0 2.02 1.677 3.657 3.748 3.657h4.498c2.07 0 3.748-1.637 3.748-3.648V28.666c0-2.02 1.678-3.657 3.749-3.657h4.497c2.071 0 3.749 1.637 3.749 3.657v19.996c0 2.02 1.677 3.657 3.748 3.657h4.498c2.07-.01 3.748 1.627 3.748 3.648v5.358c0 2.02-1.677 3.657-3.748 3.657h-4.498c-2.07 0-3.748-1.637-3.748-3.657v-5.358c0-2.02-1.678-3.657-3.749-3.657H54.76c-2.071 0-3.749 1.636-3.749 3.648v5.367c0 2.02-1.677 3.657-3.748 3.657h-4.498c-2.07 0-3.748-1.637-3.748-3.657v-5.358c0-2.02-1.677-3.657-3.748-3.657H30.77c-2.071 0-3.748-1.637-3.748-3.657V28.657c0-2.02 1.677-3.657 3.748-3.657Z" fill="#FFF"/></svg>