<svg viewBox="0 0 90 90" xmlns="http://www.w3.org/2000/svg"><g fill="none" fill-rule="evenodd"><path d="M55.913 61.52v26.648a45.077 45.077 0 0 1-10.559 1.33l-.003-.018V61.52h10.562ZM42.14 67.485v21.926a44.846 44.846 0 0 1-10.562-1.946v-19.98H42.14Zm27.54-12.391.001 27.04a45.055 45.055 0 0 1-10.561 5.114V55.094h10.56ZM28.37 75.009v11.318a44.933 44.933 0 0 1-10.56-5.969l-.001-5.349H28.37Zm55.085-30.284v23.16a45.234 45.234 0 0 1-10.56 11.93l-.002-35.09h10.562Zm-34.166-26.4.136.02.313.051.57.108.926.193 1.38.307 4.343.991 1.594.354 1.45.31 1.064.218 1.028.2.66.12.633.108.604.096.57.082.534.065c.855.096 1.538.12 1.967.043.826-.147 2.088.703 3.434 1.943l.405.383.409.403.41.419.407.431.605.663.199.223.391.447.569.665 7.6 1.017a15.01 15.01 0 0 1 6.625 5.338l.54 1.452a10.789 10.789 0 0 0-7.076-3.305l-1.511-.032-1.387-.038-1.63-.054a9.234 9.234 0 0 1-.152 1.217l3.822 1.78a14.989 14.989 0 0 1 5.167 9.071 11.504 11.504 0 0 0-6.291-5.785 33.442 33.442 0 0 1-5.899-2.905 1.447 1.447 0 0 1-.736-.829l-1.305-3.76.255 4.03c.048.75.531 1.403 1.236 1.67l.73.285.875.35.656.27.348.147-.198.63-.192.589-.481 1.422c-.15.433-.47.789-.884.986l-4.816 2.31c-.122.057-.232.194-.343.36l-.229.357-.116.168c-.28.384-.637.67-1.22.333L65.35 42.76a.853.853 0 0 1-.288-.95l.928-2.718c.13-.484-.213-.942-.6-1.337l-.213-.21-.206-.196a7.004 7.004 0 0 1-2.039-5.084 6.5 6.5 0 0 0 1.348 6.596 5.106 5.106 0 0 0 .227 4.58 5.13 5.13 0 0 0 3.814 2.56 12.92 12.92 0 0 1-2.318 6.355l-8.006 1.378-2.775-1.086-1.315 2.705-2.634-3.935 3.147-1.896 2.474.6.125.034.645.214c.352.112.715.2.942.128l4.74-1.78a10.618 10.618 0 0 0-6.338-1.207c-3.704.881-5.494.495-7.006-.692l-.272-.224a9.095 9.095 0 0 1-.269-.242l-.266-.258-.267-.274-.406-.44-1.492-1.683 1.08 1.703a1.027 1.027 0 0 1-.476 1.54c-.46.203-.974.403-1.525.603l-.676.24-.704.24-2.195.735-.736.252-.724.258-.32.118-.628.24c-1.747.688-3.217 1.45-3.85 2.355l-.172-.558-.26-.782-.13-.372-.145-.395-.157-.41-.169-.416-.178-.416-.188-.408-.16-.325-.165-.31c-.528-.953-1.113-1.613-1.653-1.36 1.756 1.553 2.732 7.466 1.69 10.696-.46 1.426-2.144 3.046-4.17 4.566l-.56.412-.575.406-.29.2-.586.393-.588.384-.88.555-.58.354-.847.504-.81.467-.758.426-1.114.607-1.254.655-.39.196-6.941 1.235a6.528 6.528 0 0 0-1.47 3.18c-.009.133.096.343.252.596l.172.266.494.747.19.312c.326.571.527 1.126.232 1.465l-2.36-.023a45.208 45.208 0 0 1-3.782-4.747l-.032.116a17.188 17.188 0 0 1 2.742-5.765c1.87.732 6.589.277 7.873-1.559.288-.412.63-1.165.973-2.122l.187-.542.093-.284.184-.594.091-.307.177-.634.211-.821.196-.844.144-.685.067-.344.123-.688c.384-2.292.494-4.52.02-5.86-.337.005-.774-.114-1.287-.318l-.354-.147-.374-.17-.395-.19-.412-.206-2.282-1.195-.738-.38-.752-.373-.508-.241-.51-.232-.257-.111-.512-.213-.469-.181c-2.652-.985-5.215-1.226-6.728.939-1.535 2.207-.884 3.125.021 3.538l.21.085.213.07c.57.17 1.162-.041 1.754-.307l.666-.306.246-.104c.816-.33 1.605-.438 2.297.567-.168.708-.82 1.259-1.678 1.597l-.25.09a5.22 5.22 0 0 1-.53.146l-.275.054c-.417.072-.853.1-1.285.081l-.287-.02c-2.48-.235-4.675-2.098-2.35-6.46 1.28-2.402 3.461-2.738 5.866-2.331l.44.082.443.096.446.11.449.12.527.153.528.162.789.257 1.802.606.867.277.599.177c1.885.528 3.464.68 4.315-.364l.717-.466.822-.559.505-.354.758-.545.623-.46.438-.332.922-.717.725-.583.496-.41.504-.425.51-.44.513-.455.516-.469.517-.482.515-.496.512-.508.254-.258.504-.525c1.668-1.769 3.206-3.72 4.31-5.755l.163-.306c4.082-7.87 10.508-11.993 13.196-11.637Z" fill="#000"/><g fill-rule="nonzero"><path d="M7.942 70.198a17.188 17.188 0 0 1 2.742-5.765c1.87.732 6.589.277 7.873-1.559 1.284-1.835 3.626-10.44 2.466-13.726-2.734.043-12.034-8.088-15.578-3.017-1.768 2.542-.637 3.373.444 3.693 1.66.493 3.52-2.244 4.963-.15-.736 3.099-10.768 3.206-6.655-4.512 3.59-6.738 14.268 2.781 17.071-.655 0 0 10.742-6.675 14.824-14.545 4.082-7.87 10.508-11.993 13.196-11.637 2.688.356 15.112 3.74 17.772 3.266 1.529-.272 4.548 2.868 6.829 5.577l7.6 1.017a15.01 15.01 0 0 1 6.625 5.338 49.5 49.5 0 0 0-.492-1.71A42.6 42.6 0 0 0 65.964 5.531 43.536 43.536 0 0 0 31.8 2.762 43.416 43.416 0 0 0 5.185 24.313 42.479 42.479 0 0 0 2.22 58.202a46.875 46.875 0 0 0 5.693 12.153.687.687 0 0 1 .03-.157Z" fill="#FFBA00"/><path d="M88.654 34.975a10.789 10.789 0 0 0-7.076-3.305c-1.743-.03-3.284-.079-4.527-.124a9.234 9.234 0 0 1-.153 1.217l3.822 1.78a14.989 14.989 0 0 1 5.167 9.071 11.504 11.504 0 0 0-6.291-5.785 33.442 33.442 0 0 1-5.899-2.905 1.447 1.447 0 0 1-.736-.829l-1.305-3.76.255 4.03c.048.75.531 1.403 1.236 1.67.65.254 1.547.6 2.61 1.052a83.363 83.363 0 0 1-.872 2.64c-.15.434-.47.79-.884.987l-4.816 2.31c-.51.237-.798 1.861-1.908 1.218L65.35 42.76a.853.853 0 0 1-.288-.95l.928-2.718c.178-.66-.525-1.27-1.02-1.743a7.004 7.004 0 0 1-2.038-5.084 6.5 6.5 0 0 0 1.348 6.596 5.106 5.106 0 0 0 .227 4.58 5.13 5.13 0 0 0 3.814 2.56 12.92 12.92 0 0 1-2.318 6.355l-8.006 1.378-2.775-1.086-1.315 2.705-2.634-3.935 3.147-1.896 2.474.6c.423.101 1.297.508 1.712.376l4.74-1.78a10.618 10.618 0 0 0-6.338-1.207c-6.061 1.441-6.996-.508-9.978-3.813l1.08 1.703a1.027 1.027 0 0 1-.476 1.54c-3.401 1.5-9.827 2.853-11.358 5.041 0 0-1.863-6.461-3.377-5.752 1.756 1.553 2.732 7.466 1.69 10.696-1.358 4.212-13.402 10.125-13.402 10.125l-6.941 1.235a6.528 6.528 0 0 0-1.47 3.18c-.036.577 2.038 2.585 1.34 3.386l-2.581-.026a41.495 41.495 0 0 0 6.273 5.753v-5.57h10.561v11.462c1.064.424 2.134.802 3.21 1.136V67.485h10.562v21.973a42.9 42.9 0 0 0 3.21.022V61.52h10.562v26.4c.766-.2 1.534-.42 2.306-.659.305-.094.6-.2.902-.3V55.094h10.56v26.984a43.19 43.19 0 0 0 3.211-2.214V44.725h10.562v23.386c.476-.78.94-1.574 1.38-2.395a42.04 42.04 0 0 0 3.82-30.741Z" fill="#FFF"/></g></g></svg>