<svg viewBox="0 0 90 90" xmlns="http://www.w3.org/2000/svg"><g fill="none"><path d="m44.992 5.867-7.085 7.085c-6.98 1.001-17.386 3.129-21.593 6.948-.502 9.48-6.323 50.519 28.652 64.266C79.968 70.42 74.152 29.38 73.62 19.9c-4.207-3.82-14.606-5.947-21.594-6.948l-7.033-7.085Z" fill="#005F3E"/><path d="M35.283 15.703s-13.59 15.101-13.59 35.595c0 0-2.234-10.729-2.234-17.566 0 0 5.64-13.995 13.545-17.567l2.279-.462Zm-9.377 1.972a16.318 16.318 0 0 0-6.447 3.032v6.681s1.836-6.298 6.447-9.713Z" fill="#959484"/><path fill="#FFF" d="m38.552 36.874-3.9-3.897h20.681l-3.9 3.897zm19.093 2.908 4.226 3.904H28.12l4.22-3.904zM34.782 57.355v-2.277h9.07v-7.502H28.127l.228.39c-.436 2.434-1.895 15.882 15.499 28.022V57.355h-9.071Z"/><path d="M44.992 89c15.479-6.037 25.95-17.703 30.398-34.482 3.608-13.584 2.605-27.058 2.038-34.3-.084-1.15-.169-2.237-.208-3.018v-.143l-.189-.176c-4.689-4.268-15.584-6.603-23.977-7.807L44.992 1l-8.055 8.087c-8.394 1.217-19.288 3.552-23.977 7.807l-.189.176v.143c-.039.78-.123 1.867-.208 3.019-.547 7.24-1.57 20.715 2.045 34.3C19.048 71.296 29.513 82.975 44.992 89Zm0-1.353C9.873 73.789 12.687 34.948 13.794 20.336c.084-1.035.15-1.952.189-2.674 4.857-4.203 16.67-6.422 23.338-7.378h.202l7.47-7.527 7.468 7.501h.202c6.669.956 18.482 3.175 23.34 7.378.039.741.11 1.64.188 2.674 1.107 14.658 3.92 53.479-31.199 67.337Z" fill="#959484"/><path d="M55.21 57.355v-2.277h-9.078v-7.502h15.726l-.228.39c.437 2.434 1.896 15.882-15.498 28.022V57.355h9.078Z" fill="#FFF"/><path d="M54.702 15.703s13.59 15.101 13.59 35.595c0 0 2.233-10.729 2.233-17.566 0 0-5.638-13.995-13.544-17.567l-2.28-.462Zm9.377 1.972a16.316 16.316 0 0 1 6.446 3.032v6.681s-1.836-6.298-6.446-9.713Z" fill="#959484"/><path d="M42.394 16.146s-1.048 3.208 1.387 5.205c2.247 1.809 2.52 6.213-.573 8.516a5.292 5.292 0 0 0-1.582-4.931c-2.312-2.212-2.911-5.068.768-8.79Z" fill="#FEC057"/><path d="M45.989 29.288a7.314 7.314 0 0 0-.404-8.25c-3.12-4.229-.983-7.71.384-8.906 0 0-1.244 3.097 2.325 6.941 3.568 3.846-.28 8.979-2.305 10.215Z" fill="#FEC057"/></g></svg>