<svg viewBox="0 0 90 90" xmlns="http://www.w3.org/2000/svg"><g fill="none"><path fill="#303030" d="M0 0h90v90H0z"/><path d="M55.491 14.205c1.024.346 1.791 1.038 2.303 1.904.427.779.682 1.644.597 2.596 0 .346-.085.692-.17.952l-3.327 9.953-11.6 33.494-3.326 9.953c-.086.347-.256.606-.427.866-.426.692-.938 1.212-1.62 1.558a3.92 3.92 0 0 1-1.962.519c-.427 0-.938-.087-1.365-.26-1.876-.692-3.07-2.596-2.815-4.5C22.397 66.393 16 56.44 16 45.016c0-16.271 12.965-29.513 29.085-29.513 1.877 0 3.668.173 5.46.52a4.299 4.299 0 0 1 4.946-1.818ZM44.915 26.84c-9.894 0-17.912 8.135-17.912 18.175 0 6.404 3.326 12.03 8.273 15.319l11.26-33.408c-.512-.086-1.11-.086-1.621-.086Zm2.047 47.601 4.009-12.29c6.908-2.51 11.855-9.174 11.855-17.136 0-3.722-1.108-7.27-3.07-10.126l4.009-12.29A29.548 29.548 0 0 1 74 45.016c-.085 15.578-11.941 28.301-27.038 29.426Z" fill="#FFF"/></g></svg>