<svg viewBox="0 0 90 90" xmlns="http://www.w3.org/2000/svg"><g transform="translate(1 2)" fill="none"><ellipse fill="#FFF" cx="44" cy="43.507" rx="43.922" ry="43.429"/><path d="M31.908 61.731a132.272 132.272 0 0 0-10.575 19.065C27.948 84.738 35.713 87 44 87c24.3 0 44-19.478 44-43.506 0-.789-.026-1.577-.065-2.366h-4.968c-16.209 0-37.046-.4-51.059 20.59v.013Z" fill="#0095D6"/><path d="M87.53 37.173H62.51c-30.235 0-47.516 13.235-57.294 26.897A42.893 42.893 0 0 1 0 43.506C0 19.478 19.7 0 44 0c22.118 0 40.432 16.144 43.53 37.173Z" fill="#002851"/><path d="m44.34 11.129.784 2.39a8.664 8.664 0 0 0 5.556 5.494l2.418.776c.262.09.262.452 0 .53l-2.418.775a8.664 8.664 0 0 0-5.556 5.493l-.784 2.391c-.091.259-.457.259-.536 0l-.784-2.39a8.664 8.664 0 0 0-5.556-5.494l-2.418-.776c-.262-.09-.262-.452 0-.53l2.418-.775a8.664 8.664 0 0 0 5.556-5.493l.784-2.391c.092-.259.458-.259.536 0Z" fill="#FFF"/></g></svg>