<svg xmlns="http://www.w3.org/2000/svg" viewBox="0 0 90 90"><path fill="#FFF" d="M0 0h90v90H0z"/><g fill="#23396E" transform="translate(7.55 8)"><path d="M37.4 1.18A36.27 36.27 0 001.17 37.4 36.26 36.26 0 0036.8 73.6l.86.33.86-.34a36.27 36.27 0 0035.12-36.2A36.27 36.27 0 0037.4 1.17zm8.45 64.21s-.97-.44-1.32-1.74c-.27-.98-.33-1.83.64-2.47a3.8 3.8 0 012.29-.5c.49.04.65-.46.33-.96-.6-.94-1.82-2.6-4.22-2.8-3.47-.27-5.76 1.6-5.76 1.6s-.58-.8-2.08-1.33a20.04 20.04 0 0022.06-19.93 20.04 20.04 0 00-20.02-20.01 20.04 20.04 0 00-20.03 20.02c0 9.53 6.71 17.52 15.66 19.52a6.53 6.53 0 00-3.86 1.36c-.6.45-1.18.96-1.6 1.81l-.16.35c-.16.42.02.72.45.65a5.3 5.3 0 011.64-.01c.54.09 1.05.68 1.36 1.8.54 1.98-1.98 2.63-1.98 2.63s.1 3.7.91 4.91c.27.39.54.7.8.97l-.32-.06a34.56 34.56 0 01-27.7-33.82A34.53 34.53 0 0137.41 2.89a34.53 34.53 0 0134.5 34.49 34.51 34.51 0 01-27.4 33.75 7.46 7.46 0 001.45-3.98c.08-.67-.1-1.79-.1-1.79l-.01.02-.01.01zM31.48 42.05c-.07-.13-.27-.2-.65-.23-.37-.03-.78.16-.71-.07.07-.24 1.09-.85 1.6-1.02.5-.17 1.5-.62 1.6-.41.1.2-.85.75-1.16 1.7-.3.95-.27 1.77-.38 2-.1.24-.27.38-.54.11s-.95-.5-1.73-.1c-.78.41-2.23 2.26-2.76 2.96-.33.44-.62.8-.96.5-.34-.32-.35-.33-.42-.53-.06-.2 0-.4.24-.7.24-.3 2.97-3.23 4.22-3.57.73-.2 1.26-.2 1.4-.2.14 0 .34-.27.27-.4l-.02-.04zm3.01.73c.17-.2.36-.32.55-.27.19.04-.38.6-.3.71.08.1.61-.46.71-.36.1.11-.13.49-.42.93-.3.45-.4.78-.26.76.14-.02.36-.6.6-.86.22-.26.45-.72.77-.7.31.03.51 0 .61-.06.1-.07.4-.39.47-.32.08.06.12.3-.09.61-.2.31-.43 1.01-.3 1.01s.48-.87.67-1.12c.2-.26.28-.5.42-.47.15.04-.06 1.07.06 1.05.13-.02.23-.72.32-.93.08-.22.16-.36.3-.34.11.02.11.21.11.51 0 .3.02.65.1.63.08-.02.25-.93.4-.9.14.01.1.2.1.4 0 .17.1.85.02 1.08-.08.23-1.25.97-1.82 1.64-.57.67-.97 1.31-1.12 1.52-.15.21-1.2-.2-2.19-.53-1-.3-1.29-.48-1.46-.57-.17-.09-.15-.38-.2-.57-.08-.19-.12-.45.03-.64s1.14-1.27 1.55-1.5c.4-.23.13-.57.3-.76l.05.06.02-.01zm3.92-13.36c.27.2.6.14.53.4-.06.27-.34.6-.53.4-.2-.2-.52-.13-.52-.4s.34-.6-.06-.6-.8-.2-.73-.47c.07-.27.15-.44.12-.61a.57.57 0 00-.28-.42c-.34-.18-.1-.14-.66-.28-.48-.12-.72-.17-.85-.5-.13-.34-.2-.81-.2-.81.34-.07.82-.23 1.22-.1s.73.25.93.36c.2.1.2.67.2.67l-.13.47s.37.06.54.27c.17.2-.13.47.34.4.47-.07.8.07.87-.27.07-.34.07-.6.27-.54.2.06.54.67.74.67.2 0 .07-.41.27-.41s.67-.47.94-.4c.27.07.8.47 1 .4.2-.07.34.13.27.33-.06.2 0 .54.14.8.14.27.54.8.34.95-.2.13-.67.13-.8.33s.14.6.14.6-.24.14-.44.2c-.2.07-.48-.24-.48-.24s-.48-.31-.14-.5c.26-.14.12-.34.12-.34s-.1.37-.73.13c-.82-.31-.2-.47-.47-.54-.27-.07-.47 0-.81-.14-.33-.14-.53-.14-.6-.34-.07-.2-.2-.41-.2-.41-.2.13-.27.33-.27.33s-.27.34 0 .54h-.05l-.03.07zm-3.36-7.24c-.16.11-.54.33-.54.33s-.76 0-.93.22c-.16.22.06.44-.16.5-.22.05-.38-.23-.38-.23 0-.16-.27-.38-.11-.49.17-.1.17-.16.44-.22.27-.05.66 0 .99-.16.33-.17.44-.33.66-.33.22 0 .34 0 .45-.16l.18-.16a3 3 0 011.6-.82c1-.14 1.28.22 1.95.57.67.36.5.71.6 1.03.1.32 0 .57-.06.77-.07.21-.14.28-.18.4-.03.1-.1.55-.1.66 0 .11.43.11.78-.1.35-.2.32-.84.39-1.33.07-.49-.45-1.26-.35-1.5.1-.25 1.23-.1 1.3.06.08.18-.38.04-.38.18 0 .14.8.22.85.4.04.17-.35.17-.35.31 0 .14.57.14.57.4 0 .24-.63-.08-.67.06-.03.14.42.35.39.53-.04.18-.32 0-.32.14s.46.56.6.78c.14.21.28.78.25.88-.03.11-.31-.14-.5-.14l.08.42c-.07.18-.31 0-.42-.2-.1-.22-.46-.7-.6-.78-.14-.07 0 .25-.18.43-.17.18-.21.18-.63.11-.42-.07-.46 0-.98.07s-.88-.42-1.16-.42c-.1 0-.08.12-.03.28l-.27.44c.04.14.48.23.4.27-.2.14-.33.1-.4.28-.07.18.73.36.59.43s-.5.25-.84.25c-.35 0-.35-.39-.35-.49 0-.1.02-1.2-.16-1.27-.17-.07-.61.05-.72-.06-.1-.1.29-.54.29-.65 0-.1-.36-.05-.5-.26-.14-.2.19-.62.05-.72-.05-.04-.3-.08-.42-.1-.18-.02-.12-.12-.34-.12-.17 0-.14-.3-.2-.38h-.03l-.03.01-.11-.1v-.02zM45.78 39.8c.1 0 .41.4.41.52 0 .13.16.23.1.36l-.24.31c0 .11.36.62.26.73-.1.11-.41-.05-.46.03-.05.08.55.7.44.83l-.75.05c-.07.13.16.6.03.73s-.46-.18-.57-.1c-.1.08.03.44-.18.5l-.41-.19c-.18.11-.23.16-.36.16-.13 0-.36-.15-.36-.15-.15-.15-.54-.46-.46-.62.08-.15.6-.18.8-.3.2-.14.37-.4.52-.45a.69.69 0 00.34-.28c.08-.1.23-.49.3-.62l.4-.3c.06-.1.16-.67.16-.77 0-.1-.03-.39.08-.39l-.05-.05zM43.95 45c.69.9 1.25 1.66 1.58 1.66.2 0 .74-.44 1.13-.8.4-.36 1.03-.98 1.17-1 .16-.02.42.13.53.02.1-.1.2-.3.29-.18.08.13-.05.88-.18 1.1l-1.84 1.65c-.53.52-1.1 1.18-1.23 1.31-.1.11-.24.08-.46-.29-.44-.77-1.4-2.24-1.92-2.89-1.03-1.33-2-1.38-2-1.38.04-.13.15-.3.43-.44.29-.13.7-.2.83-.18.13.03 1.04.55 1.7 1.45l-.02-.03h-.01zm.85 8.3c.02.25-.06.42-.32.54-.26.12-1.96.88-2.46.81-.5-.07-.45-.18-.47-.43-.02-.25.14-4.35.2-4.88.09-.53.3-.86.57-.69.28.18.53.4 1.07 1.17.53.8.86 1.44 1.12 1.76.27.33.56.22.56.22.56-.09.99-.46 1.22-.52.23-.05.5-.02.65.37.15.38.23.73-.06.88-.28.16-1.18.8-1.41.84-.23.04-.36-.07-.44-.34-.07-.27-.2-.78-.28-.76-.1.02.08.84.1 1.1l-.04-.06h-.01zm4.56-6.02c-1.24 1.1-1.78 1.84-2.68 2.7-.4.37-1.16 1.17-1.58 1.18-.4.02-1.61-2.34-1.61-2.34-.72-1.29-1.76-3.17-3.33-3.12-1.47.05-2.72 1.93-3.65 3.87l-.56 1.4.08.1c.15-.03.56-1.1.73-1.27.23-.2.39-.14.43-.04.04.1-.66 2.21-.8 2.5-.13.28.08.45.17.18.1-.27 1.08-2.6 1.17-2.8.13-.3.39-.36.36-.07-.03.38-.38 2.35-.4 2.58-.02.23.13.4.2.04.09-.36.53-2.7.68-3.05.15-.34.54-.5.52-.17-.02.32-.34 2.96-.36 3.3-.02.34.19.54.25.17.06-.36.29-2.25.38-2.76.1-.5.15-.62.3-.62.16 0 .3.72.28 1.14-.02.42.17.46.23.28.06-.17.17-.44.27-.44s.23 3.68.23 4.14c0 .46-.1.71-.67.84-.57.14-.95.23-1.14.15-.2-.07-.06-.67-.2-.67-.12 0-.01.58-.28.64-.27.06-1.77.15-2.12.06-.34-.09-.36-.49-.51-.5l-.31.4c-.12.05-1.13-.2-1.54-.38.86-2.25 2.5-6.29 3.18-7.38.86-1.38 2.1-2.45 3.09-2.48 1-.03 1.66.42 2.23 1.12 1.15 1.4 1.17 1.7 2.19 3.26.14.21.3.73.72.77.2.02.96-1.12 2.09-2.09 1.1-.94 1.2-.99 2.02-1.4.8-.4 1.14-1 1.4-.88a5.56 5.56 0 01-1.4 1.73l-.05-.09h-.01zm-17.72 2.18c.05-.78.28-1.5.46-1.79.19-.27.42-.32.55-.23.14.1.16.54.03.86-.14.33-.3.9-.33 1.13-.04.23-.1.6.23.7.32.08.92.27 1.15.31.23.05.55 0 .78-.55.23-.55.32-.96.42-1.24.09-.27-.14-.55-.41-.73-.28-.19.14-.78.14-.78s.85.33 1.1.6c.29.32.37.53.32.94a5.35 5.35 0 01-.6 1.5c-.13.25-.43.57-.73.68-.14.05-.64.15-.64.15s.19.31 0 .45c-.18.13-1.01.13-1.01.18 0 .05.69.55.6.78-.1.23-.46.28-.46.28s.28.23.19.37c-.1.14-.45-.23-.83-.28-.36-.04-.82.28-.87.1-.04-.18-.04-.4.09-.55.14-.14.1-.37.28-.32.18.05.5.37.55.18.05-.18-.18-.5-.37-.55l-.46.2c-.13-.1-.18-.37-.31-.24-.14.14-.05 1.8-.28 2.03-.23.23-.96.2-1.2-.23-.21-.4.43-2.2.7-2.48.28-.27.28.14.46.23.19.1.23-.09.5 0 .29.1.24-.14.38-.27.13-.14-.42-.6-.37-1.38l-.05-.05h-.01zm.06 3.8c.15-.17.32-.19.62-.18.43.02.55.62.5.75-.03.13-.08.54-.41.6-.31.06-.6.15-.81-.26a.78.78 0 01.1-.9v-.02zm1.3.87c.16-.23.33-.62.4-.89.09-.27.25-.63.25-.63a.51.51 0 01.42 0c.15.07.2.11.19.27-.03.16-.21.65-.33.91-.12.26-.2.58-.33.71s-.3.25-.48.2l-.35-.18.25-.37-.02-.02zm2.82-13.77c-.02-.3.15-.47.26-.5.14-.03 1.15.2 2.45-.13 1.3-.32 2.42-1.05 2.42-1.05l.27.43c.09.15-.1.4-.3.55-.1.1-.6.44-1.62.7-1.5.4-2.44.18-2.68.2-.24.02-.16.2 0 .22.16.04 1.05.21 2.64-.02 1.42-.22 2.22-.59 2.22-.59s.14.6-.46.96a9.2 9.2 0 01-3.08.87c-1.12.1-1.66 0-1.9-.2a.7.7 0 01-.26-.65c.02-.18.15-.24.22-.3.08-.06-.14-.14-.16-.44l-.01-.04h-.01zm4-2.47c.19.14.29.31.03.68-.26.36-1.46.7-1.68.74-1.24.33-2.23.37-2.32.1-.17-.5-.1-.8 0-.83.58-.1 1.43-.22 2.22-.68a3.42 3.42 0 011.77 0h-.02zM25.73 48.81c.25.26.77-.02.98-.33.2-.3 1.47-2.04 2.13-2.8.67-.78 1.58-1.51 2.63-.9 1.06.61.78 1.87.45 2.69-.34.8-2.14 4.58-2.31 4.96-.17.37-.44.68-.81.48-.37-.2-2.14-1.53-2.21-1.7-.06-.17.24-.99.38-1.06.14-.07.38.03.5-.07.15-.1.66-1.02.86-1.36.2-.34.38-.34.45-.27s-.17.65 0 .68c.17.04.55-.85.72-.78.17.07-1.12 2.48-1.02 2.55.1.07 1.26-2.2 1.4-2.14.13.07-1.12 2.82-.95 2.86.17.04 2.34-3.82 2.62-4.63.27-.8.13-1.48-.52-1.75-.64-.27-1.3.04-2.44 1.67a38.56 38.56 0 01-2.04 2.75c-.34.38-.74.44-1.18-.07-.44-.5-1.15-1.46-.95-1.76.2-.3.5-.17.65.07.14.24.57.77.73.94h-.02l-.05-.03zm27.3-3.56c-.45-.24-.39-.63-.58-.83-.46-.34-1.24-1.01-1.24-1.01-.15-.14-2.23-1.56-4.13-3.21-1.18-1.02-2.06-1.68-2.62-1.75-.91-.1-.5-1.06-.53-1.29-.06-.37-.47-.3-.64-.5-.17-.2.08-.76.03-.94-.05-.17-.22-.19-.43-.2-.17-.02-.3-.03-.31-.25-.03-.3.5-1.4 1.29-1.85.35-.19.6-.07.9-.64.45-.02.93.07 1.6-.1a3.21 3.21 0 001.86-1.57c.23-.45.23-1 .22-1.23l.25-.14c.32-.2.86-1.25.45-2.9a3.43 3.43 0 00-2.16-2.4c0-.65-.67-1.23-1.55-1.8-.46-.3-1.17-.43-1.7-.67-.27-.13-.34-.39-.68-.5-.43-.15-.63-.05-.8-.14-.22-.12-.38-.44-1.04-.59-.91-.2-.94.14-1.52.14-.58 0-1.7-.72-2.83-.5-.7.12-1.3.86-1.5 1 0 0-.64.4-1.37.54l-1.08.1c-.4.1-.24.54-.74.51-.43-.03-.77-.44-1.43-.65-.7-.22-1.2.17-1.5.43-.2.17-.6-.04-1.5.61-.9.64-.84 1.78-.84 1.78s-.75.27-1.36.85c-.55.52-.6 1.36-.6 1.36l-.1.25s-.64.67-.87 1.51a3.3 3.3 0 00.08 2.41l.08.23s.19.7.94 1.31c.75.6 1.35 1.01 2 1.4.38.2.53.26.63.26l.35.05s.5.46 1.9.48c.28.01 1.25-.04 1.8 0 .3.03.35.27.4.4.07.23.17.26.38.42-.05.26.05.7.26.75.2.06.36-.08.36-.08-.15-.17-.18-.29-.16-.34.03-.18.1-.24.28-.26l.67.07c.2-.03.42-.15.4-.25-.03-.2-.4-.2-.6-.27-.12-.03-.36.16-.76.1s-.4-.18-.46-.3c-.08-.17-.11-.5.15-.56a.57.57 0 01.29 0c.2.04.28.1.32.13.1.1.28.33.42.21.14-.13.02-.18-.08-.29-.1-.1-.21-.4-.22-.4-.08-.12-.2-.23-.27-.3l-.46-.45c-.16-.13-.24-.04-.11.1.13.13.2.23.18.33-.03.21-.25.17-.5.23s-.5.37-.82.3c-.13-.04-.14-.27-.14-.3l.15-.45c.1-.34.12-.6.27-.94.24-.52.48-.89.48-.89.09-.18.2-.33.15-1a4.72 4.72 0 01.17-1.82 4.2 4.2 0 011.45-1.89c.38.07.78.61 1.07.73.44.18 1.28.21 1.67.44.23.2.07.61.27 1.04.27.61 1.04.94 1.24 1.18.35.41.5.38.5.38s.34.02.38.23c.02.14-.14.4-.08.53.08.2-.02.73.19.64.19-.07.23-1.23.4-.98.18.23.67.42.62.76-.08.53-.11.44-.38.72-.18.2-.35.38-.41.7-.06.3-.72-.05-.72-.05s.4.52.38 1.03a8.2 8.2 0 01-.31 1.65 2.76 2.76 0 01-1.02 1.55c-.64.43-1.22.5-2.18.67-.92.17-1.57.2-1.97 0-.18-.1-.52-.36-.5-.7.07-.46.7-.78.7-.78s-.1-.08-.23-.09c-.17-.02-.46.17-.57.3a.87.87 0 00-.26.67c.02.5.44.81.78.91.3.1.52.11.7.11.75.02 1.17.51 1.23.77.06.26.01.34-.04.43-3-.09-5.91 1.88-6.57 2.5l-.1.07c-.85.8-2.51 2.61-3.42 3.62 0 0-1.4 1.33-1.6 1.65-.21.32-.08.57-.25.92l-.07.1a18.25 18.25 0 01-3.96-11.35c0-10.14 8.25-18.4 18.4-18.4a18.42 18.42 0 0116.17 27.18 3.63 3.63 0 00-.9-.81l.01-.01-.11-.12zM31.2 23.58l-.23.11c-.08.13.28.41.19.57-.1.16-.22.07-.32.16-.11.1-.02.19.12.39.15.2.2.69-.1.69-.33 0-.37-.6-.54-.61-.18-.01-.18.89-.41.93-.24.05 0-.28-.04-.41-.04-.12-.09-.2-.38-.2l-.57-.37c-.4.03-.07.53-.25.56-.49.06-.11-1.01-.38-1.19-.55-.35-.65.3-.98.32-.41.03.17-1.08.63-1.5.46-.43.85-.3.96-.2.1.1.05.33.09.51.04.2.24.37.34.38.1.01.02-.1-.03-.3-.05-.18-.09-.15.02-.52.1-.37.9-.92 1.17-.89.26.03.36.2.55.5.18.3.47.42.39.57-.08.15-.16-.05-.23.06s.13.36.03.47v-.03h-.03zm-6.34 7.85c.55.44.64.31.75.46.12.15.7.37.84.58.13.21.1.47.19.54.27.21.32.21.32.21-.05.13-.2.23-.36.12-.15-.12-1.33-.77-1.8-1.47a4.13 4.13 0 01-.78-2.58c.1-.93 1.06-2 1.2-2.25.13-.25.01-.79.34-1.23.33-.43 1.1-.89 1.35-.68.25.21-.6.5-.83.96-.23.47-.42.95-.14 1.16.3.22.77.58 1.58.81.56.17 1.11.2 1.15.31.04.12-.1.42-.4.4a7.57 7.57 0 01-1.92-.66c-.45-.27-.85-.52-1.02-.46-.19.06-.66.66-.8 1.52-.14.87-.24 1.85.3 2.3l.02-.03.01-.01zm29.81 15.6l-.45-.6a18.67 18.67 0 002.37-9.14 18.86 18.86 0 00-18.84-18.84A18.86 18.86 0 0018.91 37.3c0 4.4 1.53 8.45 4.07 11.66a.53.53 0 00-.13.4c.02.28.14.62.3.91A19.44 19.44 0 0118.2 37.3a19.57 19.57 0 0119.55-19.55A19.57 19.57 0 0157.31 37.3c0 3.56-.96 6.88-2.63 9.76v-.02zm-23.75 22.4c-.58-1.41-.42-3.83-.42-3.83s2.7-.71 1.61-3.84a2.59 2.59 0 00-2.38-1.64c-.63 0-1.98.5-1.98.5s.44-.92.76-1.2c.31-.27.53-.4.8-.44.27-.04.41-.16.6-.26l.07-.04c.6-.43 1.37-.82 2.33-1.01 2.65-.54 4.48.8 5 1.15.5.35.63.46.96.09.3-.33 2.2-1.8 5.04-1.65 2.46.12 3.54 2.22 3.7 2.39.16.17-1.2-.23-2.54.92a2.6 2.6 0 00-.92 2.79 4.41 4.41 0 001.64 2.2s.22 2.2-.83 4.12a5.18 5.18 0 01-3.33 2.6l.14-.23c.11-.15.6-.5.86-.78.27-.3-.17-.88.05-.97.2-.1.2.3.2.3s.15-.2.32-.5.02-.45-.07-.66c-.09-.21-.8-.3-1.2-.42-.4-.13-.38-.8-.3-1.1.05-.31.3-.14.61-.13.31.02.41-.03.94-.31.52-.28.7-.68 1-.72.31-.04.46-.03.46-.03s.02-.36-.13-.52c-.15-.16-.72-.1-.72-.1s.01-.35.33-.6c.32-.23.51.08.66.19.14.1.06-.26.07-.51.01-.25-.2-.42-.69-.45-.44-.02-.64.43-.78.27-.14-.16-.25-.27-.17-.68.07-.41.42-.3.67-.23.25.06.2 0 .21-.2.01-.2-.55-.33-.86-.2-.3.14-.7.69-.7.69s-.39-.38-.53-.6a1.75 1.75 0 01-.12-1.58c.2-.43.68-.27.93-.16.25.1.18.52.16.82 0 .3-.6.02-.62.23-.02.2.6.23.6.34 0 .1.52-.18.75-.68.23-.5.04-.87-.1-1.2-.14-.31-.79-.55-.79-.55s.63-.43.81-.98c.18-.55-.04-1.23-.84-1.68-.8-.45-1.39.03-1.7.27-.32.24.02.5.06.67.04.16.22-.4.6-.63.36-.23.6.08.9.2.3.12.53.64.4 1.3-.15.66-1.33.8-1.69 1.8-.36 1 .14 2.2.53 2.49.4.28.81 1.12 1.06 1.28.24.17.03.64-.15 1.02-.12.23-.4.37-.8.35-.42-.02-.63-.37-.88-.54-.25-.17-.49-.5-1.02-.98-.53-.5-1-.67-1.08-.98-.09-.32.43-.44.8-.62.37-.2.07-.41.04-.73-.04-.31.22-.35.4-.75.18-.41-.25-1.2-.4-1.36-.15-.16.12-.3.23-.5.11-.2.9-.47 1.06-.66.16-.2-.3-.12-.74-.35-.44-.23.01-.36.03-.66.02-.3.53-.53.04-.76-.49-.23-.74.22-1 .46-.28.24-.44.44-.7.48-.26.04-.8-.15-1.02-.11-.2.04 0 .3-.03.56l-.02.5-1.05.57c-.26.14-.02.4.13.57.14.16.5.23.85.35.35.12.08.3-.03.5-.1.2-.45-.16-.65-.18a.86.86 0 01-.7-.4c-.24-.31-.29-.31-.45-.22-.16.09.08.46.22.72.14.26.6.18.86.19.26.02.51.08.7.24.2.16-.07.46-.23.6-.16.14-.49-.4-.74-.4-.26-.02-.38.29-.58.32-.2.04-.65-.34-.69-.55-.04-.21-.54-.6-.62-.95-.08-.37-.03-.47.04-.77.07-.31.33-.5.45-.75.12-.26-.22-.73-.37-.8-.15-.05 0 .27-.02.47-.02.2-.29.5-.44.49l-.3-.94c-.2-.27-.8-.4-.87-.25-.06.15.24.17.4.33.13.16.15.77.04.92-.1.15-.35-.02-.55-.23-.19-.22-.5-.08-.67.07-.16.15.34.38.64.49.31.12.27.83.41.99.15.16.03.5.01.87-.02.36.5 1.15.7 1.47.18.32.61.85.6 1.26-.03.4-.7.58-.92.83-.22.24-.29.64-.64.63-.36-.03-.5-.23-.69-.4-.2-.16-.5-.23-.8-.35-.3-.11-.3.8-.3.8s.62-.17.77-.1c.15.06-.02.4-.02.4s-.4.09-.67.13c-.26.04-.1.9-.1.9s.18-.4.6-.52c.41-.14.4-.03.55.07.15.1-.04.87-.15 1.02-.1.14.62-.17.9-.52s.23-.45.54-.6c.31-.13 1.05-.44 1.41-.53.36-.08 1.02 0 1.38-.03.36-.03.48-.43.74-.57 0 0 1.27.27 1.56.54.3.27.18.57-.03.6-.2.05-.4-.27-.49-.43-.1-.16-.42.13-.63.32-.22.19-.84.36-1.15.5-.31.13-.5-.13-.91-.1-.41.02-.73.32-.74.52-.01.2.2 0 .42-.19.21-.2.3-.09.56.13.25.21-.02.46-.1.76-.05.31.18.73.16 1.03-.02.31-.38.4-.5.64-.1.25-.21.4-.67.22-.45-.18-.55-.23-.91-.25-.35-.02-.36.13-.67.22-.32.1-.42.18-.42.18s.45.13.65.3c.14.11.02.26-.06.34a4.55 4.55 0 01-2.04-2.36h-.01l.06.16.05.06zm3.42 2.36l-.12.52-.44-.14.56-.38zm1.9.98c-.37-.06-.8-.14-1.22-.25l.17-.3s.79-.37 1.06-.56c.28-.19.35-.55.75-.68.43-.13.18-.25.35-.6.17-.34-.02-.46-.16-.72-.14-.27.06-.26.34-.55.27-.3.43-.4.85-.52.42-.14.27-.35.48-.23.2.1.03.35.18.52.15.16.1.87.05 1.08l-.13.5c-.06.15.2-.1.49-.4.28-.28-.05-.25.02-.45s.45.07.74.35c.3.27.2 1.03.25 1.24.04.2-.33.44-.54.58l-.48.33s-.27.18-.31-.02c-.04-.21.3 0 .07-.36-.23-.37-.25-.02-.81-.2-.55-.18-.83.2-.83.2s.36.13.7.2c.36.07.42.12.5.38.09.26-.61.12-.77.2-.1.06-.14.27-.17.44h-.58a14.6 14.6 0 00-.94-.23l-.05.03-.01.03zm5.82-.08a5.3 5.3 0 001.64-.75l.2-.16.16-.05a34.98 34.98 0 0028.3-34.32A34.99 34.99 0 0037.44 2.46 35 35 0 002.48 37.4a35.03 35.03 0 0028.07 34.27l1.1.2c.72.51 1.48.75 2.36.96A35.64 35.64 0 011.84 37.41a35.65 35.65 0 0135.6-35.6 35.65 35.65 0 0135.6 35.6c0 18.06-13.5 33-30.94 35.3l-.03-.02h-.01zM37.4 0A37.45 37.45 0 000 37.4a37.45 37.45 0 0037.4 37.4 37.44 37.44 0 0037.4-37.4A37.45 37.45 0 0037.4 0zm0 74.35A36.98 36.98 0 01.48 37.4 36.98 36.98 0 0137.4.46a36.98 36.98 0 0136.95 36.95A36.98 36.98 0 0137.4 74.35zm26.45-36.83A26.35 26.35 0 0037.52 11.2 26.35 26.35 0 0011.2 37.52a26.16 26.16 0 0014.85 23.7l.27.15 1.98.83 2.24.77.1-.45-2.15-.74-1.94-.82-.25-.14a25.71 25.71 0 01-14.6-23.3 25.89 25.89 0 0125.87-25.86 25.89 25.89 0 0125.86 25.86A26 26 0 0144.8 62.36l.13.44a26.45 26.45 0 0018.95-25.28h-.05zm-27.58-5.97c-.06-.06-.56-.22-.75-.29-.2-.07-.8-.56-.9-.6-.18-.06-.5.07-.56.06 0 0-.28.04-.28-.17.07-.28.2-.2.43-.33.22-.1.32-.19.82.06.31.15.76-.06 1.18.27.2.17.43.1.43.1s.06-.1-.04-.18c-.32-.25-1.03-.78-1.49-1-.34-.16-.73-.32-.98-.12a4.83 4.83 0 00-1.16 1.4c-.04.12.06.38.06.38s-.08.05-.1.4c-.08.64.33.65.4.65l.7-.06 1.72-.3s.61-.11.46-.3h.05v.03zm-2.22 0l.04-.22c.02-.15-.03-.25-.03-.25.28.02.42.15.7.29-.45.06-.53.14-.7.17zm-10.54 25.7c1.28.07 2.32-.4 2.85-.4.52 0 .87-.06.87-.06s-1.13.29-1.28 1.39c-.08.57.35 1.45.81 1.5l.64-.17s-.46-.12-.46-.82.17-1.11.93-1.57c.75-.47 1.8-.24 1.8-.24-.12-.23-.85-.88-2-1-1.63-.18-3.2.8-4.21.65a1.4 1.4 0 01-1.16-1.22c-.03-.48 0-.87.4-1.04.4-.18 1.31-.03 1.51.4.35.75.23.75.12 1.16-.07.22.81-.25.85-.94.04-.52-.62-1.51-1.66-1.63-1.04-.12-2.26.58-2.14 1.8.12 1.2.87 2.09 2.15 2.14l-.01.05zm1.85.1c-.4.18-1.04.88-.58 1.23 0 0 .52-.23.58-.64.06-.41.64-.59.64-.59s-.23-.17-.64 0zm24.8.56c.4.34.4.8.06.97-.35.17-.7-.23-.7-.23s.23.8.7.8c.45 0 .8-.22 1.1-.92.28-.7-.59-1.28-.59-1.28s.7.06 1.04.29c.35.23.3.63.3.63s.9-.46.38-1.02c-.39-.43-1.67-.5-1.67-.5s1.97.06 2.61-.05a1.98 1.98 0 001.65-1.68c.17-1.11-.85-2-1.66-2.04a1.7 1.7 0 00-1.75 1.33c-.17.8.7.93.7.93s0-.82.35-1.34c.35-.52 1.1-.3 1.45.4.35.69-.03 1.44-1.22 1.8-.8.23-3.42.1-4.52.29-1.11.17-1.63.64-1.63.64s.58-.06 1.45.06c.87.1 1.34.37 1.9.87v.04h.05zM25.9 63.3l-.16.39-.44.96-.2.42-.25-.12c-.95-.45-1.69-.24-2.07.57-.2.4-.19.82.01 1.1.13.2.34.36.76.56l.23.1.51.2.52.29.1-.22c.24-.57.42-.96.47-1.06l.12-.28.12-.27.28-.61.17-.34.16-.34a13 13 0 01.53-.98 5.33 5.33 0 01-.92-.43l.05.05zm-1.1 2.43l-.19.36-.29.59-.1.2-.02.06-.02.05-.02.05-.18-.07c-.43-.21-.52-.56-.27-1.08.3-.65.64-.78 1.25-.5l-.14.32-.03.02zm-1.48-3.7c-.2-.13-.25-.17-.38-.3-.26.47-.45.78-.74 1.23l-.42.6c-.27-.15-.5-.3-.78-.47l-.79-.54.16-.26c.23-.35.43-.62.68-.96l.41-.57c-.16-.07-.21-.11-.37-.2a5.09 5.09 0 01-.48-.35 45.12 45.12 0 01-2.5 3.76 3.2 3.2 0 01.84.55c.2-.38.32-.6.85-1.38l.1-.17c.34.19.5.29.74.44l.82.57-.37.55-.13.19-.54.75c.17.08.26.14.41.23.14.08.23.16.41.3l.24-.41c.21-.36.57-.92.96-1.53.5-.75.62-.95 1.3-1.83a2.71 2.71 0 01-.48-.27l.06.06zm-3.3-2.33c-.2-.13-.27-.2-.42-.32-.1-.08-.2-.17-.36-.34a33.97 33.97 0 01-2.94 3.43 3.97 3.97 0 01.8.65 67.29 67.29 0 012.95-3.46l-.01.03h-.01zm-3.05.33c.73-.75 1.05-1.07 1.6-1.56-.23-.2-.52-.47-.77-.72l-.93-.98-.15.19-.24.19.56.46.41.38.1.1-.86.89-1.24 1.24-.77.72a4 4 0 01.72.69c.4-.44.64-.7 1.3-1.38l.29-.28-.02.05zm-.42-3.62a4.18 4.18 0 01-.38-.38l-.3-.4a30.92 30.92 0 01-3.48 2.88 3.47 3.47 0 01.68.78 85.01 85.01 0 012.5-2.17c.3-.24.48-.37.98-.74v.02zm-3.59.15l.25-.17.55-.4.31-.21.3-.22c.29-.2.54-.36.95-.6a2.95 2.95 0 01-.32-.4c-.1-.14-.16-.23-.26-.42l-.33.27-.85.62-.4.27-.14-.22c-.61-.86-1.35-1.04-2.1-.52-.36.26-.56.62-.53.98.02.24.12.47.4.85l.14.2.34.43.3.5.2-.14.93-.7.24-.16.04.04h-.02zm-.72-.6l-.54.37-.18.13-.04.03-.05.02-.05.03-.11-.15c-.28-.4-.18-.74.29-1.07.58-.41.94-.36 1.34.18l-.3.2-.32.23-.02.02h-.02zM10.9 53.5l.26-.14.6-.32.33-.18.33-.2c.32-.15.57-.28 1.02-.47a4.08 4.08 0 01-.48-.9l-.36.24-.92.52-.42.22-.12-.24c-.5-.92-1.21-1.2-2.01-.76-.4.22-.63.55-.64.9-.01.25.07.5.29.9l.13.23.29.47.26.54.2-.12 1.02-.58.27-.15-.04.03h-.01zm-.65-.68l-.59.3-.2.1-.05.02-.05.03-.06.02-.1-.16c-.23-.43-.1-.76.41-1.04.62-.34.98-.25 1.3.34l-.32.17-.36.19v.03h.02zm-.46-2.62c1.35-.5 1.88-1.61 1.4-2.94-.5-1.35-1.75-1.9-3.17-1.38-1.26.46-1.76 1.6-1.28 2.92.49 1.3 1.72 1.87 3.06 1.38v.02zm-2.7-1.52c-.27-.76.23-1.47 1.34-1.88 1.16-.42 2.1-.2 2.4.58.27.75-.23 1.44-1.35 1.85-1.21.44-2.1.24-2.39-.56zm2.75-5.58a3.31 3.31 0 01-.13-1.01c-.52.1-.89.17-1.42.24l-.74.08a18.36 18.36 0 01-.25-1.86l.3-.04c.41-.06.74-.1 1.16-.12l.7-.05a3.6 3.6 0 01-.14-1.01c-.63.1-1 .17-1.65.25-.79.1-1.46.19-1.98.23-.36.04-.5.05-.87.07a3.4 3.4 0 01.13 1c.41-.1.66-.14 1.6-.26l.2-.03c.06.38.1.57.13.85l.1 1-.66.08-.23.03-.92.08.1.47.02.52.48-.1a43.31 43.31 0 014.01-.46l.05.04h.01zm-3.27-4.6c1.23 0 1.68.02 2.78.07l-.02-.44-.02-.82.01-.66.01-.3v-.15l-.28.02-.28-.02c.04.35.08.94.08 1.23v.16h-1.7v-.1c0-.3.03-.83.06-1.3a1 1 0 01-.28.05l-.27-.04v.15l.05 1.25c-.6 0-.54 0-1.43-.03 0-.34.01-.52.03-.85l.04-.57c-.12.03-.16.03-.29.03l-.29-.04c.03.28.03.4.04.57l.01.99c0 .34 0 .5-.06.8.6-.03 1.02-.03 1.75-.03l.06.04zm-.38-3.2c.61.06.97-.14 1.43-.8.33-.48.31-.46.46-.6.15-.15.32-.2.53-.18.38.04.63.38.6.78-.05.46-.35.74-.82.77l-.01.13c.23.06.55.16.8.27.23-.32.34-.6.38-.97.1-.98-.39-1.65-1.29-1.75-.63-.06-.97.14-1.48.89-.39.56-.59.7-.9.67-.36-.04-.58-.33-.54-.71.04-.33.28-.57.65-.64l.01-.1a2.57 2.57 0 01-.6-.27c-.27.29-.38.55-.43.96-.09.83.38 1.43 1.21 1.52l-.02.02h.01zm.41-3.37c.6.14.99-.03 1.51-.64.39-.44.37-.42.53-.54a.64.64 0 01.54-.11c.37.09.59.45.5.85-.1.45-.42.7-.9.68l-.03.12c.23.08.53.22.77.35.27-.3.4-.54.48-.92.21-.96-.2-1.68-1.1-1.88-.62-.14-.98.04-1.57.72-.44.52-.66.64-.97.57-.35-.07-.54-.4-.46-.76.07-.33.33-.54.71-.57l.02-.1a2.89 2.89 0 01-.59-.34 1.5 1.5 0 00-.52.9c-.18.82.22 1.47 1.03 1.65l.04.02h.01zm4.26-3.75c.05-.2.1-.31.16-.47l.14-.31.06-.14.06-.12.05-.13.2-.42a2 2 0 00.2-1.1 2.35 2.35 0 00-1.53-1.91c-.76-.33-1.56-.3-2.09.1-.3.2-.52.54-.77 1.13l-.17.4-.04.1-.04.1-.04.1-.18.44c-.07.16-.1.24-.22.43.7.25 1.1.4 1.83.72 1.16.49 1.6.69 2.32 1.05l.04.02h.02zm-3.4-2.51l.16-.48c.17-.41.36-.65.62-.78.41-.21 1.01-.17 1.63.09.7.3 1.16.74 1.3 1.25.08.29.04.58-.13.98l-.2.4-1.6-.66-1.2-.5-.6-.3h.01zM10.7 23c1.2.78 2.42.52 3.18-.67.76-1.2.44-2.53-.82-3.35-1.13-.72-2.35-.43-3.1.75-.77 1.18-.47 2.5.73 3.27h.02zm-.42-3.07c.43-.68 1.3-.7 2.3-.05 1.04.67 1.43 1.55.97 2.25-.44.68-1.29.7-2.29.05-1.08-.7-1.46-1.52-1-2.24h.02zm4.34-3.04c.89.9 1.22 1.25 1.76 1.86.12-.16.2-.25.32-.37l.25-.24.1-.1.1-.1.1-.1.34-.3c.34-.34.5-.6.6-.94a2.38 2.38 0 00-.68-2.34c-.58-.59-1.34-.85-1.97-.7-.36.09-.7.31-1.15.76l-.32.32-.07.08-.08.07-.08.07-.33.34c-.13.12-.2.18-.37.3.56.52.86.8 1.43 1.37l.04.02zm-.11-2.13c.3-.3.58-.46.87-.47.46-.04 1 .22 1.47.7.54.54.8 1.13.73 1.65-.02.3-.18.55-.48.85l-.34.3-1.24-1.22-.91-.94-.46-.5c.15-.18.25-.3.33-.37h.03zm5.15.87l.34-.29.64-.5.54-.38.23-.17.09-.06.04-.03-.2-.21-.14-.23c-.27.24-.7.63-.95.81l-.14.1-.7-.92-.32-.42.1-.06c.23-.18.67-.48 1.06-.73a.8.8 0 01-.2-.2l-.13-.23-.12.1-.96.8c-.38-.49-.33-.44-.84-1.17.26-.2.41-.3.7-.48l.47-.3a.8.8 0 01-.21-.2l-.15-.26-.43.38-.79.61c-.27.21-.4.3-.67.45a58.7 58.7 0 012.72 3.62l.03-.04zm2.29-5.37l.13.27.13.26.3.6.17.34.18.33c.14.3.28.57.46 1 .16-.11.25-.16.43-.26l.45-.2-.2-.37c-.18-.29-.36-.65-.52-.93l-.21-.42.23-.12c.93-.49 1.21-1.19.8-1.99-.21-.4-.55-.65-.9-.66-.24-.02-.5.06-.9.27l-.23.12-.48.28-.54.25.1.21.57 1.02h.02zm.5-1.42c.43-.23.75-.08 1.03.43.32.62.22.98-.37 1.29l-.16-.32-.18-.36-.3-.6-.11-.2-.04-.05-.02-.05-.02-.05.16-.09h.01zm3.5 1.57c.14.35.2.55.4 1.15.21-.12.3-.16.47-.23.11-.05.25-.1.48-.16a34.9 34.9 0 01-1.66-4.22 3.52 3.52 0 01-.96.38c.16.36.27.6.43 1 .27.64.66 1.63.82 2.06l.02.02zm2.16.44l.4-.15.77-.26.63-.18.29-.08.09-.03h.04l-.1-.27-.07-.27c-.32.15-.87.36-1.15.45l-.16.04L28.5 9l-.15-.5.1-.03c.28-.08.8-.22 1.25-.32l-.12-.26-.04-.27-.14.05c-.74.27-.58.21-1.18.41-.19-.58-.17-.52-.4-1.37.3-.1.48-.14.81-.22l.55-.13a.88.88 0 01-.12-.27L29 5.81l-.54.21-.94.31c-.33.1-.48.14-.8.2a45.82 45.82 0 011.33 4.33l.04-.01zm1.66-4.63c.28-.11.77-.24 1.07-.31l.13.58.25 1.28.19 1.12.14.98c.18-.06.25-.09.43-.12.2-.04.32-.06.55-.08l-.02-.09-.02-.08-.02-.08-.24-1.14-.1-.44-.17-.88-.05-.33-.16-.9.16-.03c.21-.04.51-.07.93-.09l-.08-.24-.04-.33c-.64.17-.97.25-1.63.38-.48.1-.6.11-1.45.23l.08.27.03.31.02.01v-.02zm3.82 3.22h.26l.13-.66.19-.71c.24-.04.4-.05.71-.08.34-.03.46-.04.7-.04.23.54.34.83.52 1.29a3.55 3.55 0 011.03-.08l-.01-.05c-.16-.3-.18-.34-.46-.93l-.35-.72c-.64-1.33-.53-1.11-1.03-2.23l-.2-.47-.23.04h-.25c-.08.35-.13.57-.3 1.15-.27 1-.25.97-.63 2.23-.2.66-.3.94-.4 1.24v.06l.3-.06h.02v.02zm1.14-3.36c.29.59.4.83.68 1.48l-.58.05-.55.04c.14-.56.23-.87.45-1.57zm3.29-.88l-.02.6-.03 1.3-.05 1.13-.08 1c.18-.03.27-.03.45-.03.2 0 .33.01.55.05V9 7.84l.01-.45.03-.9.02-.33.05-.91h.15c.23 0 .53.04.95.1l-.02-.25.02-.34c-.67.02-1 .03-1.68.01-.5-.01-.6-.02-1.46-.09l.03.28-.04.3c.29-.04.79-.06 1.12-.06zm4.95 4.5l.63.13.3.06.1.02h.03l.03-.27.07-.27c-.36-.02-.94-.1-1.23-.15l-.16-.03.2-1.14.1-.51.11.02c.3.05.81.18 1.26.3a.93.93 0 01.02-.3l.08-.25-.15-.02-1.23-.18c.11-.61.1-.54.29-1.4.32.06.5.1.82.19l.55.14a.76.76 0 01.02-.3l.1-.27-.58-.07-.98-.17c-.33-.06-.48-.1-.78-.21a53.74 53.74 0 01-.85 4.45l.44.06.8.13v.04zm2.95-1.44l-.34 1.08-.34.93a3.6 3.6 0 01.96.28l.03-.08.02-.08.02-.1.3-1.11.13-.44.27-.86.1-.31c.05-.2.12-.38.29-.87l.14.04c.22.06.5.18.87.35l.06-.23.1-.31c-.64-.16-.97-.24-1.62-.44-.47-.15-.57-.18-1.39-.48l-.05.28-.12.29c.3.04.78.14 1.1.23L46.3 7l-.38 1.25.02-.01zM49.88 12c.22.1.82.42 1.2.62l.06-.24.16-.26-.68-.27-.5-.23-.15-.07.54-1.13a56.96 56.96 0 011.28-2.51 3.07 3.07 0 01-.89-.44c-.23.54-.38.86-.8 1.72l-.17.35c-.45.94-.67 1.35-1.03 1.98.3.12.65.28.97.43l.02.04zm2.1 1.12c.1.06.22.13.4.27a34.38 34.38 0 012.36-3.86c-.18-.08-.3-.13-.43-.22-.17-.1-.27-.16-.45-.3-.18.35-.31.58-.53.96-.36.59-.9 1.5-1.16 1.89-.2.32-.32.49-.68 1 .22.1.3.14.47.25v-.01h.02v.02zm2.93-.61l-.68.9c-.17.23-.3.38-.62.78.17.08.24.13.4.23.16.12.24.19.42.35l.05-.08.05-.07.05-.08.66-.96.27-.37.52-.73.2-.27c.1-.16.23-.32.55-.73l.11.09c.18.13.41.33.71.6l.13-.21.22-.26a21.38 21.38 0 01-2.56-1.83l-.14.25-.2.22c.26.13.69.39.95.58l-.34.49-.77 1.06.02.02v.02zm.65 3.12l.35.28.6.52.5.45.2.2.07.07.03.04.18-.23.2-.2c-.28-.2-.77-.56-.98-.75l-.12-.12.77-.88.35-.38.08.07c.23.19.6.57.94.9l.16-.24.2-.18-.1-.1c-.62-.5-.48-.4-.97-.81.4-.46.36-.41.97-1.06.25.22.38.35.6.59l.4.4.18-.24.22-.2-.45-.34-.75-.65a5.05 5.05 0 01-.56-.58 49.84 49.84 0 01-3.02 3.37l-.05.06zm3.6.86l-.68.59c-.23.18-.4.3-.7.55a3.58 3.58 0 01.63.74l.85-.8.17-.15.12-.12.24-.23c.13-.12.16-.14.18-.1l-.03.1-.07.22-.2.52-.26.68c-.13.37-.18.5-.27.69l.34.35.4.47.16-.52c.5-1.5.35-1.1.41-1.27l.23-.68c.57.36 1.09.35 1.52-.05.57-.51.57-1.1-.02-1.74l-.27-.28-.4-.42-.34-.43c-.5.49-.8.77-1.19 1.12l-.83.73v.03zm2.34-.9l.13.14c.34.37.3.73-.11 1.1-.47.42-.92.42-1.29 0l-.07-.08 1.35-1.17zm.52 7.82c.72 1.23 2.04 1.56 3.35.8 1.16-.66 1.45-1.88.75-3.1a2.24 2.24 0 00-3.23-.84c-1.26.72-1.58 1.9-.88 3.13zm1.33-2.24c1.12-.65 2.02-.61 2.44.14.4.69.03 1.48-1 2.07-1.06.6-2.04.55-2.44-.16-.4-.7-.03-1.46 1-2.05zm2.77 3.8l-.28.1-.64.26-.34.13-.35.13-1.05.35a3.59 3.59 0 01.36.94l.4-.18c.3-.14.67-.3.97-.41l.44-.17.1.25c.38.98 1.05 1.34 1.89 1 .42-.16.7-.46.75-.81.04-.25 0-.5-.18-.93l-.1-.24-.23-.51-.19-.57-.22.09-1.06.44-.27.1v.04zm1.17.53l.22-.08.06-.03.05-.02.06-.02.07.16c.17.45 0 .76-.54.97-.66.26-1 .12-1.25-.5l.33-.13.37-.14.62-.23.02.02zm1.4 3.19l-.57.17-1.26.33-1.11.26-.97.2c.07.18.1.26.15.44.05.2.08.3.1.55l.09-.03.09-.02.08-.03a42 42 0 011.12-.33l.44-.12.87-.23.32-.08.9-.21.04.14c.06.22.1.5.16.92l.24-.08.33-.07c-.21-.63-.31-.96-.48-1.61-.13-.47-.15-.58-.33-1.43l-.26.1-.3.05c.12.26.29.74.38 1.05l.02.02h-.05zm-.95 4.84c-.91-.06-1.36-.11-2.03-.2h-.03l.05.25c.01.12 0 .2-.02.32.37-.01.47-.01 1.3.02.94.03.93.03 1.66.08l-.4.2-1.37.73-.3.15-.8.4.01.14v.12c.42.13.64.2 1.26.45l1.6.6.23.1c-.47.09-.79.14-1.54.24-.72.1-.99.14-1.48.18.04.2.05.26.06.46.01.19.01.32-.02.54h.04c.38-.1.5-.12 1.05-.22l1.42-.24.92-.16.42-.07.56-.1h.07l-.04-.24.04-.3a44.78 44.78 0 01-3.25-1.23l.88-.46 1.34-.7.86-.44a.58.58 0 01-.07-.28l.01-.2-.19-.02-.18-.01-.18-.01-1.93-.14.04.03zM65.89 39l-.02.44-.06.81-.07.66-.04.29v.1l-.02.05h.28l.27.05c0-.35 0-.95.03-1.24l.02-.16 1.16.1.51.05v.1c-.04.3-.1.83-.19 1.29l.28-.02.26.06v-.15l.06-1.25c.6.06.54.05 1.42.16l-.1.84-.1.56c.12-.02.16-.03.3-.02l.27.06.01-.58.07-1c.03-.34.05-.5.12-.8-.6-.02-1.02-.06-1.74-.12-1.24-.12-1.68-.16-2.77-.31v-.01l.05.04zm1.44 3.41l-.88-.2a25 25 0 01-.85-.23l-.06.47c-.04.2-.06.3-.14.48.46.07.47.07 1.15.2l.23.05.17.03.33.06c.17.03.2.05.19.08l-.11.05-.21.06-.54.15-.7.19c-.38.1-.51.15-.71.18l-.1.48-.12.59.52-.17 1.26-.43.69-.22c.05.67.36 1.07.94 1.19.74.15 1.2-.2 1.39-1.05l.07-.37.1-.58.15-.53c-.7-.12-1.1-.2-1.6-.3l-1.08-.22-.05.03-.04.01zm2.1 1.55c-.11.5-.43.68-.98.56-.6-.13-.88-.5-.77-1.04l.02-.11c.93.2 1.34.29 1.74.39l-.03.19h.01zm-3.52 2.02c-.35-.13-.55-.2-1.14-.44-.05.24-.06.33-.13.52-.03.12-.08.24-.18.46.55.14.9.25 1.54.45 1.08.34 1.7.56 2.76.98.04-.2.06-.31.12-.47.06-.2.1-.3.2-.5l-1.06-.3-2.1-.7h-.01zm2.1 2.46a6.9 6.9 0 01-.35 1.06l-.55-.22c-.27-.1-.77-.32-1.2-.5-.44-.2-.8-.34-1.04-.46l-.9-.42a3.65 3.65 0 01-.38.92l.08.02.08.03.08.02 1.09.42.42.17.83.35.3.13.85.37-.06.14c-.08.2-.22.48-.44.83l.25.08.3.14c.23-.63.35-.95.6-1.57.19-.46.24-.55.6-1.33l-.26-.08-.27-.15-.02.04H68zm-2.9 2.55c-1.22-.73-2.42-.43-3.13.8-.72 1.23-.35 2.55.95 3.31 1.16.68 2.37.35 3.08-.87.7-1.2.36-2.5-.87-3.23h-.01l-.01-.01zm.56 3.04c-.41.7-1.27.76-2.3.16-1.06-.63-1.48-1.5-1.06-2.22.4-.69 1.26-.74 2.28-.14 1.12.65 1.52 1.46 1.09 2.2h-.01zm-5.25 2.39c-.3-.62-.43-.88-.55-1.18l-.04-.04c-.06.11-.1.15-.18.26l-.2.17.36.57.35.65-.48.55a6.4 6.4 0 01-.48.51c-.54-.24-.81-.36-1.26-.6-.11.17-.17.24-.3.37-.13.16-.21.24-.4.4l.04.04c.32.11.37.13.97.37l.75.3 2.27.93.48.2.14-.18.17-.16c-.17-.3-.28-.5-.56-1.05-.48-.93-.46-.89-1.04-2.07l-.03-.04h-.01zm-.83 1.64l.39-.43.37-.4c.28.5.42.8.74 1.46-.6-.25-.84-.34-1.5-.64zm-.61 2.44l-.73-.92c-.38-.46-.68-.7-1.03-.78-.48-.12-1.06.06-1.58.49a1.7 1.7 0 00-.7 1.3c-.01.52.16.85.88 1.76.54.66.88 1.1 1.3 1.68l.25-.24.23-.15c-.57-.64-.7-.78-1.13-1.31-.71-.86-.9-1.15-1-1.5-.12-.44 0-.82.35-1.11a.98.98 0 01.73-.25c.4.03.7.26 1.3.98.32.37.72.88.95 1.17.2.26.27.36.46.65.15-.16.24-.24.36-.34.15-.13.23-.18.42-.31l-.65-.77-.35-.4-.05.04h-.01zM53.85 63c-.59.03-.57.03-.76 0a.62.62 0 01-.45-.31.7.7 0 01.25-.95c.4-.24.8-.2 1.12.15l.1-.07c-.1-.22-.2-.52-.27-.8-.4.02-.67.1-1 .3-.82.53-1.05 1.33-.56 2.1.34.54.72.68 1.6.62.7-.05.93.02 1.1.29.19.3.1.66-.22.86-.28.17-.62.14-.9-.11l-.1.05c.13.32.16.44.18.65.39.03.67-.05 1.03-.27.7-.44.88-1.18.44-1.88-.33-.53-.71-.69-1.51-.63h-.06zm-1.58 2.39l-.13-.27-.12-.27-.3-.61-.15-.35-.16-.33c-.14-.31-.26-.6-.42-1.03a4.71 4.71 0 01-.92.43l.2.37.47.94.2.43-.24.1c-.95.45-1.26 1.14-.87 1.96.2.4.51.66.87.69.24.02.5-.04.91-.25l.22-.11.48-.27c.14-.07.21-.1.55-.23l-.1-.22-.53-1.04.03.06h.01zm-.56 1.4c-.43.21-.76.05-1-.46-.3-.64-.2-.99.4-1.28l.17.33.17.37.28.6.1.22.03.06.03.06.02.06-.16.08-.04-.03zM18.87 51.5c.1.61.07.84-.16 1.01-.26.2-.6.14-.8-.13-.2-.24-.18-.54.02-.83l-.06-.07a2.3 2.3 0 01-.58.2c.01.36.1.6.33.9.46.6 1.14.7 1.75.25.44-.35.56-.7.44-1.43-.08-.53-.08-.5-.07-.69a.56.56 0 01.23-.43c.27-.2.66-.15.88.14.25.34.24.71-.05 1.03l.07.1c.2-.1.46-.24.7-.33-.05-.36-.15-.6-.36-.88-.55-.7-1.3-.84-1.95-.34-.46.35-.55.71-.42 1.52l.04-.02zm-2.99-1.62a3.4 3.4 0 01.48.8 87.74 87.74 0 012.58-1.56l1-.51a3.57 3.57 0 01-.49-.8 27.95 27.95 0 01-3.57 2.07zm.81-5.68c-.4.16-.5.2-.8.28l.2.4c.06.14.09.22.14.4l.8-.4.53-.2c.15.14.26.3.35.53.31.76-.1 1.49-1.05 1.89-1.05.43-1.94.19-2.27-.62-.17-.4-.12-.82.14-1.2l-.03-.07c-.35.06-.36.07-.62.09-.06.54 0 .86.2 1.36.53 1.26 1.68 1.77 2.9 1.26 1.17-.5 1.58-1.56 1.07-2.8a4.7 4.7 0 00-.52-.9l-.32-.4-.74.33.02.04v.01zm-3.25-.2c.34-.1.57-.18.96-.27a31.07 31.07 0 013.05-.69 3.61 3.61 0 01-.23-.91c-.5.14-.82.24-1.4.39-1 .25-1.6.38-2.6.56.06.17.1.27.13.42.05.18.07.28.1.48l-.01.02zm-.52-2.23c.52-.1.84-.14 1.71-.26l.35-.05a20.9 20.9 0 012.02-.22l-.17-.96-.13-1.22-.22.06-.28.01.14.65.08.51.01.14c-.42.07-.59.1-1.12.17l-1.59.21-.96.1c.05.15.06.22.1.4l.02.5h.04v-.04zm1.37-3.3l.35-.01c.95-.02 1.37 0 2.03.05a14.8 14.8 0 01-.04-.97l.03-1.23-.22.03-.28-.03.06.66.01.5v.14c-.44 0-.6 0-1.15.02l-1.6-.01-.97-.04a2.73 2.73 0 010 .89 26 26 0 011.73-.04l.04.03h.01zm1.97-3.79c-.29.23-.65.26-1.49.13a63 63 0 01-1.35-.23c-.3-.06-.4-.08-.7-.16l-.05.44a2.9 2.9 0 01-.1.46l.9.11.46.07 1.05.18c.53.08.9.05 1.18-.1.4-.21.68-.69.78-1.3.08-.51-.03-.96-.32-1.3-.3-.37-.63-.5-1.66-.67a27.5 27.5 0 01-1.9-.36l-.03.3-.07.24 1.57.2c1 .16 1.31.24 1.58.41.35.23.5.56.44.97a.89.89 0 01-.35.61H16.26zm1.71-7.24l-1.28-.34-.82-.22-.38-.1-.5-.15-.06-.02-.06.22-.14.22a42.12 42.12 0 012.21 2.26l-.9.05c-.48.03-1.09.07-1.38.07l-.88.03c0 .11 0 .17-.05.26l-.09.16.14.1.14.07.14.08 1.55.85c.73.41 1.08.62 1.6.94l.03.01.05-.2.14-.27c-.32-.13-.39-.17-1.07-.5-.79-.39-.78-.39-1.36-.7l.41-.02 1.4-.07h.31l.82-.04.03-.12.04-.1c-.3-.27-.46-.42-.88-.86l-1.09-1.12-.17-.17c.42.11.71.2 1.37.4.64.18.87.26 1.3.4a3.6 3.6 0 01.35-.83h-.04c-.36-.07-.45-.1-.96-.23l.07-.05h.01zm2.48-4.15c-.47-.34-.84-.33-1.58.02-.56.27-.78.3-1.02.12-.26-.19-.3-.53-.1-.8.18-.25.47-.33.8-.21l.06-.08a2.41 2.41 0 01-.37-.5c-.34.1-.55.26-.77.56-.45.6-.36 1.3.25 1.75.45.33.83.34 1.5.03.47-.23.45-.22.63-.26.18-.05.33-.01.5.1.27.2.32.59.1.89-.25.34-.6.43-1 .24l-.07.09c.16.15.35.37.51.58.33-.15.53-.31.74-.6.53-.71.45-1.47-.22-1.96l.04.03zm3.14-2.44c-.04.49-.15.77-.42 1.04-.57.56-1.4.43-2.15-.32-.75-.77-.9-1.67-.36-2.2.3-.29.64-.38 1.07-.28l.05-.05a3.39 3.39 0 01-.35-.54c-.44.14-.77.34-1.09.65-.37.36-.59.77-.67 1.24-.12.67.1 1.27.68 1.85.56.57 1.17.78 1.82.63.4-.09.8-.32 1.13-.65.3-.28.48-.57.58-.89-.16-.24-.19-.3-.27-.47l-.07.02h.05v-.03zm2.02-4.58a17.7 17.7 0 01-.4-.68c-.13.12-.2.17-.37.28-.14.1-.22.14-.4.23.24.3.37.48.84 1.2l.1.16c-.28.21-.43.31-.64.45l-.78.49-.33-.51-.12-.17-.44-.72c-.13.12-.2.18-.34.27l-.4.24.25.36a47.76 47.76 0 011.98 3.1c.13-.11.2-.16.4-.29.17-.12.22-.15.37-.22-.3-.38-.5-.65-.77-1.06l-.37-.57c.23-.17.43-.3.7-.48.35-.23.43-.3.73-.46l.16.23.56.9.32.57.3-.23c.22-.15.3-.19.47-.28a37.86 37.86 0 01-1.85-2.76l-.02-.05h.05zm2.86-2.24c-1.2.46-1.67 1.6-1.2 2.8.48 1.23 1.5 1.69 2.7 1.21 1.23-.47 1.7-1.63 1.2-2.9-.45-1.14-1.5-1.58-2.7-1.11v-.01zm1.38 3.69c-.69.27-1.32-.17-1.71-1.18-.44-1.1-.27-1.9.45-2.19.7-.27 1.34.18 1.73 1.18.42 1.05.23 1.92-.48 2.19zm4.78-1.53l-.64.18-.5.11-.14.02c-.1-.41-.13-.58-.23-1.1l-.3-1.58c-.08-.44-.1-.6-.15-.95a2.6 2.6 0 01-.4.1c-.15.03-.27.04-.49.06.13.52.2.84.37 1.69l.07.35c.18.93.25 1.35.33 2.01.28-.08.63-.16.94-.22l1.21-.2-.07-.21-.02-.29v.03h.02zm3.59-.65l-.28-.67c-.52-1.23-.43-1.02-.84-2.06l-.17-.44-.21.03-.21-.01-.33 1.03c-.3.9-.28.87-.69 2-.2.6-.3.84-.42 1.11v.05l.28-.04.24.02.14-.6.2-.63.65-.03c.3-.01.42-.02.63-.01.2.5.28.77.41 1.2a3.02 3.02 0 01.94-.03v-.05c-.14-.27-.16-.32-.39-.86v.01-.02h.05zm-1.65-.6l-.5.02.49-1.42c.24.55.32.77.55 1.38l-.52.03h-.02zm5.14-2.24l-.52-.03-.9-.1c-.31-.03-.46-.05-.73-.13a42.68 42.68 0 01-.51 4.09l.4.03.73.07.6.08.27.04h.08l.04.02.01-.26.04-.25c-.32-.01-.86-.03-1.13-.07l-.15-.02.12-1.05.06-.47h.1l1.16.2v-.26l.05-.24-.14-.01c-.72-.05-.56-.04-1.14-.1.06-.55.06-.5.17-1.3.3.04.46.07.77.13l.5.09v-.26l.06-.26.02.06h.04zm6.57 3.1l.1-.38.14-.5.02-.05-.22-.07-.22-.14c-.4.4-.58.59-1.2 1.19-.65.6-.82.77-1.08.99l-.04-.9-.06-1.38-.03-.88c-.1-.01-.17-.01-.26-.05l-.17-.1-.08.14-.09.14-.08.14-.86 1.54c-.4.73-.63 1.07-.95 1.59v.02l.2.05.26.13c.13-.31.17-.4.51-1.06l.71-1.35.01.4.06 1.4.01.32.02.82.12.03.1.05c.27-.31.43-.46.87-.88l1.13-1.08.16-.17c-.1.42-.19.7-.4 1.36-.19.63-.27.87-.42 1.29.17.04.23.06.4.13.17.06.27.12.44.22l.02-.04c.06-.35.1-.45.23-.95l.35-1.26.23-.82.06.09.01.01zm3.31 1.39l.12-.46-.19-.1-.17-.15-.87.64c-.77.56-.74.54-1.73 1.22-.52.36-.74.5-.99.66l-.03.04.25.13.18.16.47-.4.53-.41a9.78 9.78 0 011.08.72c-.15.52-.22.79-.37 1.22a3.25 3.25 0 01.78.52l.02-.04c.05-.3.06-.35.2-.93l.16-.71c.3-1.3.25-1.08.53-2.16l.02.04h.01zm-1.24 1.7l-.44-.29-.4-.27c.41-.32.65-.49 1.2-.87l-.37 1.43h.01zm3.27 2.14c.55.3 1.01.24 1.36-.14.47-.5.42-1.03-.15-1.57l-.27-.23-.4-.35-.34-.36c-.42.48-.67.76-1 1.11l-.7.74-.58.6-.59.54.33.27c.13.13.2.2.3.35.27-.32.27-.32.7-.79l.14-.15.1-.1.21-.23c.11-.1.13-.13.15-.1l-.02.11-.06.2-.14.48-.19.64a7.8 7.8 0 01-.19.65l.33.3.4.4.11-.49.27-1.18.15-.63.07-.06h.01zm-.46-.6l-.08-.07c.6-.62.86-.89 1.13-1.15l.13.12c.33.32.32.65-.03 1.02-.39.41-.8.45-1.17.1h.02v-.02zm4.28 3.53c.32-.25.5-.58.45-.9-.02-.22-.13-.43-.39-.77l-.15-.17-.33-.38-.3-.45-.2.14-.83.66-.22.17-.2.16-.5.37-.28.2-.27.21c-.25.2-.47.34-.84.57.14.14.2.21.31.36.1.13.15.21.25.37l.3-.25.75-.6.34-.26.14.2c.58.76 1.25.91 1.91.41l.05-.04h.01zm-1.8-.79l.26-.2.3-.22.47-.35.17-.12.04-.03.04-.03.05-.03.1.13c.27.36.2.67-.23 1-.52.4-.85.35-1.23-.13l.03-.02zm3.16 5.07a30 30 0 011.75-.84l-.17-.25-.09-.23c-.69.4-.83.47-1.4.76-.9.47-1.2.6-1.52.61a.92.92 0 01-.93-.52.87.87 0 01-.08-.7c.1-.35.37-.58 1.12-.98l1.22-.6.66-.29-.23-.37a2.43 2.43 0 01-.19-.43l-.8.44-.43.23-.96.48c-.48.25-.76.5-.9.78-.2.41-.15.96.13 1.51.24.47.58.76 1.02.87.46.12.8.03 1.73-.44l.06-.03h.01zM58 32.8l.32-.36.81-.89.44-.47c.33.52.76.7 1.27.54.65-.2.87-.69.64-1.45l-.12-.33-.18-.5-.12-.48c-.6.22-.96.34-1.4.48l-.98.3-.79.24-.78.2c.08.16.11.24.15.4.05.18.08.27.1.45l1-.34.2-.06.13-.05.3-.09c.14-.04.17-.05.18-.02l-.07.1-.14.14-.36.36-.48.47c-.25.26-.34.35-.48.47l.14.42.15.54.06-.06zM61 29.77l.05.16c.13.44-.03.73-.52.88-.54.17-.92 0-1.07-.47l-.03-.09c.83-.25 1.2-.36 1.56-.45l.01-.02zm-.96 3.03c-1.28.16-1.95 1.07-1.79 2.4.04.35.13.7.25 1.02l.18.48c.26-.05.5-.08.8-.12.41-.05.53-.06.83-.05-.05-.19-.07-.3-.09-.43-.02-.16-.02-.24-.02-.43-.32.07-.53.11-.88.15l-.56.06c-.1-.18-.16-.37-.19-.6-.1-.82.5-1.4 1.52-1.54 1.12-.13 1.91.34 2.02 1.21.05.42-.1.81-.47 1.11l.01.07c.35.02.36.02.62.08.2-.5.25-.83.18-1.37-.17-1.36-1.14-2.16-2.45-2l.03-.03h.01zm2.46 5.6c.01-.3.02-.44.08-.72-.54.01-.93 0-1.59-.04-1.13-.06-1.54-.08-2.53-.18v.4l-.03.74-.04.6-.03.27v.1l-.02.04h.25l.25.03c-.03-.32-.03-.86-.02-1.13l.01-.15 1.06.05.47.03v.1l-.13 1.18.26-.02.24.04v-.14l.01-1.13c.56.02.5.02 1.3.08l-.07.77-.07.52.27-.02.26.05v-.52l.01-.9.06-.04zm-4.49 5.24l.22.07.86.2.68.16c.65.16 1.12.28 1.78.48l.04-.24.08-.24c-.93-.17-.95-.17-2.14-.44l-.32-.07-.35-.07.68-.35c.6-.3 1.18-.6 1.61-.85a13 13 0 011-.52l.02-.22.1-.27a35.39 35.39 0 01-4.02-.97l-.03.27-.08.23c.52.1.88.16 1.51.3l.75.17.58.15-.65.35-.53.3c-.8.43-1.3.67-2.19 1.08l-.02.21-.08.23.2.04.24.05.05-.04h.01zm-.4 3.28c.52.22.87.12 1.51-.4.48-.39.68-.47.96-.35.3.12.42.44.3.76-.13.3-.39.44-.74.4l-.04.1c.25.17.34.24.47.38.3-.18.47-.39.61-.73.28-.7.02-1.35-.68-1.63-.52-.2-.89-.12-1.45.34-.4.34-.4.33-.56.4a.55.55 0 01-.5.02c-.33-.13-.47-.49-.33-.83.16-.39.5-.56.91-.47l.04-.1a5.66 5.66 0 01-.64-.45c-.29.22-.45.42-.58.75-.34.83-.08 1.54.7 1.86l.01-.04zm1.61 3c.07-.17.11-.27.2-.4.08-.16.13-.24.25-.42-.33-.14-.54-.26-.89-.45a102 102 0 01-1.77-.98c-.3-.17-.46-.27-.95-.58-.08.21-.12.28-.2.44-.06.1-.12.21-.25.38a32.97 32.97 0 013.58 2.05l.02-.03h.01zm-4.29 1.31c.46.34.83.32 1.57-.04.55-.27.78-.3 1.02-.14.26.2.31.52.11.8-.18.26-.47.34-.8.23l-.07.08c.21.23.27.32.37.5.33-.12.54-.28.76-.59.44-.6.32-1.3-.29-1.74-.46-.33-.84-.32-1.49 0-.48.23-.46.23-.64.27a.54.54 0 01-.49-.1c-.29-.2-.34-.59-.13-.89.24-.34.6-.44 1-.26l.06-.09a4.83 4.83 0 01-.52-.57c-.33.15-.53.31-.74.6-.52.73-.42 1.5.25 1.96l.02-.02h.01z"/><circle cx="14.02" cy="18.12" r="1"/><circle cx="21.16" cy="11.65" r="1"/><circle cx="40.67" cy="6.94" r="1"/><circle cx="48.69" cy="8.94" r="1"/><circle cx="62.07" cy="19.13" r="1"/><path d="M68.06 31.64a.46.46 0 00-.93 0c0 .26.22.47.47.47.26 0 .46-.19.46-.46z"/><circle cx="61.81" cy="55.91" r="1"/><circle cx="7.88" cy="44.54" r="1"/><circle cx="8.37" cy="28.56" r="1"/><circle cx="18.04" cy="25.83" r="1"/><circle cx="42.81" cy="15.15" r="1"/><path d="M23.57 36.5l.72-.1v3.04h.57V36l-1.35.2.06.31zm3.84 2.58c-.27 0-.45-.07-.67-.15l-.14.4c.24.1.51.15.84.15.79 0 1.23-.53 1.23-1.2 0-.68-.5-.93-1.19-.93h-.23l.04-1h1.24v-.34H26.8l-.07 1.68h.4c.68 0 .94.2.94.63 0 .37-.28.72-.67.72l.02.04zm21.22-.32l.9-1.05c.23-.28.44-.58.44-1.03 0-.61-.4-.96-.98-.96-.41 0-.7.13-.98.34l.22.29a.99.99 0 01.6-.22c.33 0 .58.2.58.6 0 .35-.16.55-.4.82L48 38.77v.36h2.14v-.41h-1.48v-.01l-.02.04zm2.55-2.46h1.51l-1.42 2.72.4.2 1.55-3.01v-.44h-2.03v.52z"/></g></svg>