<svg viewBox="0 0 90 90" xmlns="http://www.w3.org/2000/svg"><g fill="none"><path fill="#182C5F" d="M0 0h90v90H0z"/><path d="M44.999 4C22.393 4 4 22.393 4 44.999 4 67.61 22.393 86 44.999 86 67.61 86 86 67.61 86 44.999 86 22.395 67.607 4 44.999 4Zm22.051 7.668-.09.072-.18-.09-.07-.208c.11.077.229.146.34.226Zm-1.94-1.207c.043.098.117.326-.286-.085l-.196-.196.483.28ZM26.936 9.346a.915.915 0 0 0-.064.22l-.366.181v-.138h-.08c.168-.093.338-.178.51-.263Zm53.73 53.708C74.057 76.053 60.554 84.99 44.995 84.99c-3.569 0-7.031-.48-10.33-1.358l.69.103s.866.066 1.004.117c.132.045.291.066.54.066.253 0 .545.045.842.045.294 0 .294.075.385-.045l.25-.31c.16-.205.363-.406.386-.488.024-.064-.135-.178-.156-.247-.021-.067-.135-.173-.135-.295 0-.114 0-.22.047-.294.045-.08.295-.337.295-.337s-.77-.324.138-.573c.907-.252 1.066-.385 1.066-.385s.226-.122.34-.138l1.045-.23s3.492-.532 3.7-.654c.198-.119 1.225-.21 1.474-.273.25-.069 3.2-1.38 3.588-1.68.384-.297 1.154-.628 1.313-.79.165-.162.573-.478.573-.478s.337-.366.406-.427c.066-.077.297-.276.406-.366.12-.096.12-.228.228-.34.095-.113.178-.236.25-.366l-.605-.058-.154.087-.364.038-.363.029-.366.093-.361.029-.393-.03-.125.056-.27-.055s0-.21-.274-.183c-.268.026-.36.09-.36.09l-.303.093-.395.029-.242-.093-.305-.09s-.09 0-.424.06c-.335.062-.183.19-.425.094-.244-.093-.605-.274-.605-.274s-.058-.12-.156-.241c-.088-.125-.21-.33-.21-.33l-.454-.182.486-.149s.122-.122.122-.241c0-.12-.027-.189-.027-.274 0-.09-.029-.09-.15-.27a8.6 8.6 0 0 1-.367-.64 2.024 2.024 0 0 0-.358-.48c-.125-.125-.186-.25-.305-.337-.125-.093-.427-.241-.486-.326-.06-.096.12.326-.183-.189-.302-.509-.27-.628-.27-.785v-.666c0-.085.09-.398.031-.51-.063-.124-.124-.275-.244-.397-.122-.128.09-.09-.273-.33-.361-.24-.515-.4-.454-.488.08-.192.13-.395.149-.602.032-.217.212-.576.273-.727.061-.154.125-.573.157-.814.026-.245.09-.279.026-.428a4.957 4.957 0 0 0-.27-.512l-.396-.398.183-.323s.122-.401.122-.489c0-.09-.032-.54-.06-.636a8.746 8.746 0 0 1-.123-.512l-.093-1.298s-.026-.332-.058-.454c-.027-.127-.09-.273-.027-.459.059-.177.12-.238.12-.36 0-.125-.035-.125-.149-.306a1.088 1.088 0 0 1-.217-.453c0-.088-.03-.669-.03-.757a.82.82 0 0 1 .062-.236l.09-.31c.06-.21.124-.929.124-.929l-.605-.706h-.273l-.544-.05s.21.114-.422.05c-.64-.05-.366.337-.697-.124a4.082 4.082 0 0 0-.725-.754l-1.358-.878-.157-.21a16.18 16.18 0 0 0-.573-.636l-.305-.146-.393-.425-.032-.273s-.119-.425-.15-.51c-.03-.092-1.182-1.064-2.18-.22 0 0-.15.183-.15.303 0 .124-.21.395-.21.395s-.727.329-.88.273c-.15-.058-.481-.544-.481-.544s-.125-.663-.183-.753c-.061-.096-.937-.151-1.332-1.003-.393-.844.178-.905.032-1.271a2.507 2.507 0 0 0-.544-.724s-.335-.457-.425-.518c-.09-.06-.517-.36-.607-.576a4.64 4.64 0 0 0-.268-.54c-.06-.148-.101-.3-.125-.457 0 0-.058-.27-.09-.361-.03-.09-.3-.576-.3-.576s1.239.273 1.39-.488c.151-.754.125-.998.125-.998s.09-.093.21-.093c.124 0 .488-.058.488-.058s-.364-.151-.393-.241c-.03-.09-.03-.244-.03-.335 0-.09-.875-.54-.875-.54s-.424-.126-.517-.221a4.89 4.89 0 0 1-.303-.39l-.788-.305s-.663-.303-.724-.425c-.061-.122-.151-.393-.241-.515a8.02 8.02 0 0 0-.3-.36l-1.062-.547s-.756-.637-.997-.544c-.242.09-.273.122-.398-.03-.117-.153.09-.304-.541-.333-.64-.03-.696.183-.757-.03a2.972 2.972 0 0 0-.183-.483.876.876 0 0 0-.18-.273c-.09-.09-.457-.488-.457-.488s-.241-.966-.116-1.024c.116-.067-.154-.244-.154-.244l-.364.305-.756.297-.605.061s-.424-.154-.546-.178a8.3 8.3 0 0 0-.48-.09l-.399.149s-1.056.424-1.056.514c0 .09-.305.393-.398.512-.09.123-.424.393-.512.393-.09 0-.154.03-.456-.093-.303-.116-.663 0-.846-.21-.18-.212-.274-.302-.425-.302-.151 0-.36.117-.515.18-.151.062-.241.213-.392.213-.152 0-.605 0-1.15.517 0 0-1.06-.06-1.666.605 0 0-.153.03-.241-.122-.09-.151-.395.602-.395.725 0 .119-1.12 3.053-2.205 3.117l-.183-.109s.207.542.087.749c-.111.204-.223.636-.223.636l.343.794-.526-.727-.114.456.186.451-.186.093.252.541.226.82-.433-.387s.207 1.748.18 1.838c-.023.09-.158.746-.18.865-.02.112-.093.385-.069.475.024.09.366 1.863.385 1.98.027.111.09.724.138.817.045.093.592 2.125.634 2.215.045.099.024.165.252.406.226.252-.024-.066.565.645.59.703.566.746.751.977.18.22.34.477.34.477l.183-.215.064.412s-.11.408.161.66c.271.252.25.273.52.478.274.204.887.499 1.229.703.337.202.796.337 1.088.66.294.314 1.178 1.11 1.178 1.11s.252 1.547.273 1.775c.021.223.385.682.592.84l.814.63.115-.22.116.403.202.23.026.287s.385.345.385.435v.319c0 .066-.135.522-.135.522l-.226.197-.225.1.135.361-.34.067.412.549-.478-.297-.159.021-.228.024s-.043.095.024.297c.069.21.456 1.223.618 1.454.156.226.475.865.475.865l.406 1.032.135.411s.273.632.297.778c.024.135.274.613.112.584-.157-.027-.228 0-.228 0s.639.915.342 1.111c-.295.202-.478-.026-.478-.026h-.204l-.406.32v.385l.066.07C10.325 67.731 5.027 56.97 5.027 44.995c0-15.164 8.48-28.38 20.95-35.159v.125l-.09.135v.178l.048.23.273-.047.226-.138.183-.09s.498-.406.498-.544c0-.133.136-.088.136-.088l.499-.183s.183-.047.315-.09c.136-.045.183-.23.183-.23l.18-.09s.134.047.274.047h.361s.316-.456.316-.59c0-.137.045-.272.045-.272l-.021-.014c.119-.047.241-.093.355-.143l.165.199.135.048-.082.326s-.321.273-.502.456l-.406.406c-.135.138-.047.18-.047.18l.092.274.454.361.77-.223.23-.09.451-.273.274-.183h.316l.273-.223.225-.274.59-.27.363-.274c.36-.273.411-.047.411-.047l.223-.045c.228-.046 1.136-.316 1.136-.316s.27-.135 1.905-.226c1.637-.09.23-.183.23-.183l-.546-.087c-.544-.093-.135 0-.273 0-.136 0-.136 0-.316-.093-.202-.09-.064-.136-.064-.268 0-.138.226-.138.226-.138s.135-.09.363-.135c.226-.048.725 0 .725 0s.408-.048 1.042-.136c.637-.09.138 0 .502-.042.363-.048.727-.093.86-.186.135-.09.177-.09.589-.273l.238-.101.22-.263s-.498.048-.636.048h-.682c-.18 0-.268 0-.406-.048-.135-.045-.178-.045-.178-.045l-.69-.045-.499.045-.18.045-.316.09-.135.048c-.135.043-.273 0-.273 0h-.231l-.178-.048a40.04 40.04 0 0 1 8.308-.987l.273.176.09.183.276.135-1.003-.183-.454-.09h-.223l-.546.047v.125l-.682.135.316.046.541.09h1.136c.955 0 .183.09.183.09l.135.09c.167.14.35.262.544.361l1.27.045.274.09v.18l.09.317-.814-.046h-.725c-.453 0-.408.09-.408.09s-.725-.047-1.046-.09c-.318-.045-.225 0-.225 0s-.18-.045-.411-.087l-.404-.14-.363-.271.225-.271-.456.042-.316.093h-.132l-.136.136-.363.225h-.18l-.226-.045h-.316l-1.138.454-.223.045-.499.273-.09.226.316-.09.997-.592.048.228-.225.138h-.138l-.5.268h.768l.82-.043.135-.047.411-.09.316-.048.18.135-.09.183-.138.045-.178.09s-.18 0-.316.046a.767.767 0 0 1-.23.047h-.409l.456.178.319.048h.27l.595-.09.406-.136.273-.14.862.047 1.226.046h.955l1.133-.364h.5l.408-.268.09-.183h.907l.637.048c.634.045.499 0 .499 0l-.09-.138-.045-.178-1.637-.541.18.029s.133.016.952.064c.112.005.2.013.276.013.47.021.266-.013.266-.013l.228-.136-.36-.09-.274-.09-.136-.045-.18-.048-.459-.042-.133-.138h.316l.682-.046.183-.135.074-.146c.157.016.31.04.47.056l-.045.27v.231l.225.133.367.226.228.09s0 .045.225.09c.228.048.045 0 .228.048.12.028.242.043.364.045v.135s-.048.048-.183.048h-.425a1.404 1.404 0 0 0-.257-.09l-.406-.136h-.727l.273.451.136.136h.18l.637-.18.135.137-.544.229s.136 0-.14.045c-.183.034-.364.08-.542.135h-.135l.048.138.541.273h.138s.178.05.342.122l.337.33c1.452 1.408.544.636.544.636l-1.313-.135-.273.09-.229-.09-.18-.045-.135.225s-.09.135-.229.178l-.498.186-1.099.284-.907.132-.228-.087-.682-.138-.316-.045-.36-.048-.136.09-.183.138-.316.226h-.454l-.544.045.18-.09.136-.136.18-.18-.045-.136-.273-.045-.409.136-.27.27-.682.138-.499-.27-.183-.093h-.411l-.178.045h-.411l-.68-.136-.681.274-1.04.318-.77.037-.727.223s0 .138-.225.316c-.223.18-.5.138-.5.138l-.363.27-.042.181s1.226-.817-.412.321c-1.634 1.138-.32.592-.32.592l.912.135.725-.18 1.09-.136 1.045.27.77-.225h.18l.454.274-.045.228.135.27c.18.138.316.229.316.229l.82.135h1.043s.047.09.047.223c0 .14.316.727.316.727.409.316.409.363.59.406.18.048.272.09.543.138l.27.045s.229.544.184 0l-.043-.541v-.276s.045-.138.18-.138c.136 0 .362-.045.362-.045s.045.045.183.045.09 0 .408-.136c.316-.135.412 0 .364.136a1.414 1.414 0 0 1-.18.363c-.09.136.273-.363-.09.136-.362.498-1.726.408-.362.498 1.359.088 1.587 0 1.587 0s-.273-.27-.273-.406c0-.135.047-.318.047-.318s-.09.045.138-.178l.223-.228s.048-.318.136-.088c.087.215.047.473.045.491.002-.016.032-.063.225.096.231.183.411.273.411.273h.18l.274-.225h.316s-.045-.048.135.09l.183.135.5-.183.134-.135 1.043-.223.045-.138.998-.409.233.178s.046.05.268.135c.231.09.319.229.319.229s-.725-.138-.863.135l-.135.273 1.088.27.273.139.316.178s.048-.043.135.143l.226.45.183.457.316.18s.135.046.27-.044a1.25 1.25 0 0 1 .316-.136h1.09l.274.045.403-.135.547.318.79.375.207.217c.406.411.59.411.59.411l.228-.047.18-.09.406-.181h.228l.361-.23.406.23.454.228c.273.544.09.361.273.544.18.18 0 .135.18.18l.183.046.361-.18s.183-.043.772.275c.59.313.632.135.59.313-.048.183-.18.228-.18.228s.042.09 0 .231c-.049.133-.091.316-.091.316l.456-.316.133.04.546.547.452.135s.273.09.09-.135c-.183-.226-.544-.637-.544-.637l.273-.09s-.138.318.135 0l.274-.319s.18-.225.228-.09c.045.135-.093 0 0 .316.09.318 0-.045.09.318.088.358.223.541.223.541s.045.09.228.18c.178.091.59.184.59.184l-.091-.273-.093-.18s0-.046-.09-.229c-.09-.18-.045-.045-.138-.363-.077-.274.252-.279.34-.274-.006.006.053.048.477.228l.637.274.27.27.592.592s.361.09.361.228c0 .136.226.454.226.454l.183-.045.183-.135.36.092.181.043.09.225s-.045-.135.138.138l.27.409.224.133.14-.09.18-.452v-.135s-.044-.226.179-.048c.228.186.092.09.318.324l.225.22.09-.183s.232.228-.044-.228l-.274-.451-.363-.544-.27-.411-.046-.316.27.225s.136.133.274.178c.135.048.042.183.135.048.043-.066.112-.01.136.013a4.625 4.625 0 0 1-.226-.286c-.406-.542-.316-.178-.406-.542-.09-.366-.135-.498-.135-.498s.045-.136 0-.274c-.045-.135-.186-.724-.186-.724l.186-.045.88-.31a4.378 4.378 0 0 1-.243-.372c-.364-.592-.542-.727-.542-.727l-.135-.18-.318-.271-.364-.59c.18-.09.59 0 .59 0h.23v-.46c.541.44 1.075.896 1.595 1.368l.037.09h-.316l.228.319.136.135.09.316s.045.135.045.273.09.364.09.364.273.363.273.499c0 .135-.273.045.088.41.366.359.273.224.366.359.09.135-.09-.178.09.135.183.316.409.637.409.637l-.135.18s-.046.046 0 .181c.047.135.135.273.135.273s.135.228 0 .274c-.135.045-.27.045-.27.045l-.454-.366-.457-.189-.09-.037s.135.451.135.592c0 .135-.09.27-.09.27l-.228.229-.223.228-.138.862v.316c0 .273.045.549.045.682 0 .135-.36-.274-.36-.274l-.048-.177a4.584 4.584 0 0 0-.178-.5s-.043-.09-.09-.227c-.046-.136-.136-.316-.136-.316l-.178-.045.046 1.228-.231-.23s.09.135-.133-.136c-.23-.27-.409-.499-.409-.499l-.273-.228s-.18.18-.316-.178l-.135-.366-.135.186-.228.045s-.043.135-.136.313c-.09.18-.18.409-.18.544 0 .135-.183.18 0 .411.18.228.09.136.228.361.135.223.045-.09.135.223.09.321.229.135.09.321l-.137.178-.409.183-.226.27.09.319.181.135s-.093-.09.226.09c.315.18.498.404.498.404s-.045-.088.09.135c.136.228 0-.042.136.228.135.274.406.637.406.637s-.443-.151.037.188l.188.13c.088.056.168.104.231.149l.542.348s-1.39-.746-1.441-.966c-.059-.215-.146-.44-.33-.576-.182-.138-.315-.276-.315-.276l-.366-.087-.178-.136h-.318s0 .09.048.273l.09.364.093.135.18.409-.18.223s-.093-.043-.093.273-.18-.09 0 .316l.183.411s-.09.09.178.09h.273l.91.366s0 .133.042.316c.046.18.274.409.274.409s-.045.045.228.225.408.316.408.316l-.811-.454-.457-.589-.228-.18s-.183-.09-.226.048c-.045.132-.09.313-.09.313l.136.501.228.226-.183.408s.045.364-.136.406c-.183.045-.634-.042-.634-.042l.136-.226s.045-.138.045-.273c0-.138.042-.456.042-.456l-.09-.316s-.09-.135-.135-.276c-.048-.133-.093-.178-.138-.358-.045-.18-.136-.136-.271-.457-.14-.318-.14-.363-.183-.498l-.318-.995-.359-.82-.363-.316h-.135s-.09.09-.09.268v.456s.044 0 0 .18c-.046.179-.046.407-.046.407l.09.273.316.724v.274s-.541-.406.09.132c.64.55.592.231.64.55l.045.315-.406.09-1.454-.957-.18-.133-1.046-.685.273.64.136.27.185.319-.047.18s.268 0-.138.045l-.409.046h-.814l-.274.042-.453-.584-.274.274s-.135.135-.27.18a7.507 7.507 0 0 0-.364.133l-.727.501s.09.223-.225.18c-.316-.045-.226.725-.5-.045l-.273-.772.322-.18h.228v-.178s-.09-.183-.228-.23a6.341 6.341 0 0 1-.457-.178l-.048.228-.045.223s-.09.138-.09.273.09.223.09.36c0 .133-.045.41-.045.41l-.18.222s-.045.09-.27.048c-.229-.048-.41-.048-.41-.048l-.453.09-.07.133-.113-.133v.319l-.136.228-.135.364h-.178l-.228-.229-.178-.042-.138-.226c-.132-.23-.315-.363-.315-.363s-.045 0-.045.135-.053-.273 0 .135c.045.406.177.95.177.95s.136.186-.047.138a16.381 16.381 0 0 1-.812-.276l-.093-.36s-.048-.497-.048-.632v-.377c0-.135.048-.225.143-.363.09-.133 0-.178-.047-.451l.047-.274.995.682c.274.18.226.09.226.09s.23 0 .414-.047c.18-.045.18-.045.721-.273.547-.223.136-.542.136-.542l-.178-.32-.273-.32-.136-.132s-.045-.183-.18-.32a2.188 2.188 0 0 1-.228-.272l-.136-.135c-.138-.138-.138-.228-.138-.228l-.225-.273-.499-.454s-.225.048-.544-.135c-.316-.186 0 0-.135-.186-.138-.178.04-.27.04-.27l.047-.136c.046-.133-.09-.133-.228-.226-.135-.09-.135-.135-.273-.273-.133-.135-.133-.045-.133-.045s-.138-.09-.32-.27l-.316-.319-.457-.09-.316.228s.457.544-1.358.045c-.544-.146-.846-.239-1.006-.286-.17.1-.735.445-.809.562-.09.135-.048.135-.186.27-.135.136-.724-.044-.724-.044l-.454.18c-.453.186 0 0-.135.138-.138.133-.048.18-.048.18s-.862.274-1.175.361c-.319.09-.186 0-.319 0-.138 0-.228.138-.228.138l-.318.133s-.09.135-.319.186c-.225.042-.952.09-.952.09l-.09-.138-.133-.136-.454.136-.724-.136-.409.276-.273.316s-.228-.048-.363-.048c-.136 0-.18.274-.18.274l-.046.273c-.037.196-.019.226-.008.228-.186.056-.365.13-.536.223l-.135.364-.454.09s.045.178.045.358.319.501.319.501l.135.178s.318.093.724.093h.59l.227-.045.364-.135v.315c0 .18-.093.226-.228.406-.136.183-.274.725-.364.865-.09.133-.09.271-.09.271l-.09.451-.18.414-.09.175-.317.276-.18.18.411.406.136.141h.135s.135-.045.544-.321l.316.048h.225l.499-.18s.226-.184.541-.5c.316-.315 0 0 .09-.138.09-.135.229-.177.41-.358.182-.183.498-.14.498-.14s.135.047.27.047c.136 0 .319-.228.319-.228l.499-.499v-.634s.047-.273.09-.456c.045-.18.045-.226.045-.226s.183-.183.454-.36c.273-.18.183-.09.408-.274l.412-.273s.177-.042.54-.09c.364-.04 0 0 .41-.04.41-.048.183-.048.318-.138.135-.09.451-.358.451-.358s.411-.183.64-.276a1.17 1.17 0 0 0 .273-.133l.225.045.499.366v.361l-.135.319-.77.225c-.772.228 0 0-.185.045-.18.048-.229.048-.454.136-.228.09-.316 0-.316 0l-.499.315s-.27.178-.408.409c-.136.226 0 0-.045.226-.046.225-.09.315-.09.315s-.088.183-.226.364c-.138.178-.138.223-.138.223v.498l.048.364.315.09h.136l.18.09s.138.09.637.223c.499.138 0 0 .724.048.725.045.817.316.817.316l.046.225c.045.226.228.178.228.178s.223.321.32.55c.088.222.133.042.133.042s.09-.178.136-.319c.045-.132.045-.175.045-.45v-.452c0-.138.138 0 .138 0l.316.045.135.136.135.135.207.12-.021.291-.183.406-.273.136-.274.09-.384.074c-.07-.146-.176-.109-.176-.109l-.183-.178c-.18-.183-.124-.122-.273-.122h-.637c-.544 0-.058.122-.058.122l-.186.303-.178.268-.09.135v.136l.03.153-.184.122s-.09-.06-.177-.21c-.09-.156 0-.121.031-.307.027-.18 0 0 .027-.087.034-.093.122-.123.273-.303.151-.18.122-.151.242-.18.124-.03-.061-.125-.061-.125s-.059-.03-.271-.21c-.21-.183-.149-.058-.483-.302-.334-.242 0 0-.09-.064-.09-.058-.393-.09-.547-.12-.148-.028-.122.033-.241.033-.12 0-.122.15-.122.15l-.27.088v.271c0 .157.09.157.09.157l.18.124-.09.21s-.125.154-.303.36c-.183.218-.032.152-.032.242 0 .093-.18.183-.456.093-.27-.093 0 0-.027-.093-.031-.09-.06-.09-.092-.178-.03-.092-.03-.124-.064-.36-.03-.242-.059-.242-.059-.242l-.514.151-.361.274-.183.087s.183-.087-.12.154c-.305.242-.124.212-.124.212s-.09.305-.09.454c0 .151.058.273.058.273l-.541.242s-.061-.032-.213-.09c-.154-.059-.124-.032-.212-.12-.09-.09-.09-.058-.215-.058-.122 0 0 0 0 .122 0 .12 0 .151.032.241a.147.147 0 0 1-.032.152l-.45-.152c-.455-.148 0 0-.242-.09-.247-.09 0 0-.032-.125-.032-.116-.032-.087-.09-.302-.061-.212-.03-.09-.03-.178v-.09h-.456c-.302 0 0 0-.273-.061-.27-.058-.178-.12-.393-.18-.21-.059-.512-.027-.602-.027h-.274c-.09 0-.09 0-.241.12l-.061.273-.03.09a.2.2 0 0 0 0 .151l-.153-.03.032-.211-.061-.451a2.555 2.555 0 0 0-.032-.22l.003-.024c0-.123 0-.093.029-.335.016-.143.026-.18.026-.188l-.058-.114-.273.029-.425-.03-.087-.005c-.162-.167-.396-.326-.396-.326l-.09-.363c-.09-.361-.045-.226-.045-.226s.045-.226.09-.499c.043-.273 0 0 .223-.18a.539.539 0 0 1 .127-.077l.008.032.045.225.048.136h.18c.09-.18.09-.359.09-.359l-.076-.082c.135-.107.253-.234.35-.377.183-.268 0 0 .316 0s0 0 0-.132c0-.136 0-.136.045-.274.045-.135.138-.135.138-.135s.133-.135.27-.268c.138-.138-.09-.23-.09-.23l-.273.135-.135-.046-.18-.225-.226-.048-.228.183.27.045.09.186-.09.178-.18.09-.228-.135-.223-.048-.093.14-.088.178-.276.183-.09.18v.179l-.045.18-.133.316-.045.228c-.045.226-.411.18-.411.18l-.111.183c-.048-.069-.07 0-.41.112-.339.111 0 0-.134-.162-.136-.156 0 0-.136-.316-.138-.313 0 0-.342.274-.34.273-.09.066-.204.023-.112-.045-.045-.11-.136-.477-.09-.366-.047-.114-.342-.066-.294.042-.024.09-.477.475-.454.387-.16.045-.343.026-.178-.026 0 0 .048-.252.045-.247.111-.247.09-.36-.024-.118-.156.09-.408.249s-.09.066-.271.135c-.186.069-.09.045-.21.18-.111.136-.045.114-.09.343-.045.225-.156 0-.228-.022-.066-.02 0-.183 0-.183s-.202-.087-.36-.087c-.157 0-.112 0-.404-.114-.297-.114-.072-.024-.324-.183-.25-.157-.109 0-.25.137-.135.136-.158.046-.387.274-.223.225-.223 0-.52.021-.297.024 0 0-.159-.16-.16-.156 0 0-.16-.023-.158-.021-.068.114-.11.252-.046.135-.07.027-.364-.135-.297-.157-.114-.067-.273-.364-.157-.294 0-.066.024-.316.026-.252-.067-.135-.223-.183-.157-.04-.09.141-.157.367-.072.225-.026.068-.273.225-.252.157-.07 0-.138-.045-.066-.048-.226-.112-.478-.313-.25-.21-.045-.14-.09-.345-.042-.21-.156-.09-.385-.18-.228-.09-.09-.138-.228-.21-.138-.07-.066.117-.204.3-.135.18-.048.223-.024.292a.6.6 0 0 0 .135.225c.09.114 0 0 .16.228.159.226.023.07.023.637 0 .13.006.21.016.252a.08.08 0 0 0-.037.016c-.16.111-.045.088-.252.342-.202.247 0 .229.027.385.02.157.069.135-.045.342-.115.205-.16.112-.253.295-.087.18 0 .135-.111.36-.114.226-.135-.09-.273-.044-.136.045-.07.018-.183.09-.112.069-.112.204-.178.342-.07.133.066.178-.703.316-.775.132-.07.156-.364.294-.294.138-.156-.111-.432-.342-.27-.223-.045-.247-.045-.247h-.226c-.135 0-.16-.183-.225-.318-.07-.133-.112-.2-.112-.34 0-.135-.09-.09-.499-.676-.406-.595-.273-.366-.34-.5-.066-.14-.294-.339-.405-.482-.114-.133-.18-.016-.297-.042-.112-.024-.112 0-.295-.112-.18-.114-.09-.048-.156 0-.07.045-.07.252-.319.586-.247.34-.204.093-.204.093s-.202.157-.273.247c-.07.09-.364.525-.364.525s-.385.268-.586.43c-.21.157-.295.136-.39.205-.096.069-.292.09-.59.204-.297.111-.135.23-.135.316 0 .092.07.161.07.315 0 .16-.274.319-.478.568-.205.252-.088.202-.138.316-.045.111-.09.18 0 .294.09.115 0 0 .342.274.34.273.066.066.042.931-.018.862-.087.247-.132.403-.045.162 0 .207 0 .207l.703.183.156.133s.115.21.3.456c.178.25.316.316.404.361.092.048.18.112.344.205a.179.179 0 0 0 .247-.046l.228-.09c.231-.09.364.12.364.12s.09.204.273 0c.18-.207.815-.231.815-.231l.162.026s.045-.09.066-.387c.024-.295.069-.09.111-.183.048-.088.231-.16.361-.2.138-.047.21-.134.48-.158.271-.027.18-.114.253-.138.066-.019.252-.07.384-.136.136-.069.112 0 .252.067.136.069.157.069.295.09.135.024.27.024.363.09.09.07.178 0 .682 0 .5 0 .202-.09.361-.204.157-.112.18-.268.295-.565.111-.297.045-.09.135-.09.09 0 .366.045.499.068.135.024.135.046.294.112.16.066.18.183.18.183l.046.157h.204c.07 0 .024.068.024.21 0 .132.048.198.069.291.026.112.072.22.135.316.09.164.024.071.228.114.205.048.093-.045.478-.157.387-.114.093.024.478.22.39.207.156.027.64-.015.477-.048.11-.048.246-.048.135 0 .23.09.23.09l.178.387s.093.274.165.502c.069.225 0 .111-.069.292-.072.183-.048.183-.093.34-.045.161-.045.137-.133.318-.092.18.027.18.027.384 0 .205.042.229.064.343.024.111.024.223.045.363.024.136.024.18.069.27.045.091-.048.317-.048.317v.066c0 .069.14.342.183.409.045.069.07.09.226.249.159.16.114.09.183.226a.523.523 0 0 1 .066.315c0 .162.027.186.09.366.07.18.09 0 .09 0l.07.157s.023.162.023.25c0 .092-.045.11-.069.225-.026.117 0 .093.07.183.068.088.047.088.135.16.09.068-.024.27-.024.357 0 .09-.048.276-.048.345 0 .067-.069.112-.18.25-.115.138-.07.09-.18.138-.112.042-.07.09-.139.159-.066.064-.042.111-.159.228-.111.109 0 0-.133.066-.135.07 0 0-.047.07-.046.068.069.206.069.206l.23.022s.136-.18.316-.18c.183 0 .316-.226.316-.226l.411-.271c.135-.093 0-.324 0-.324s.18-.178.27-.315c.091-.136.139-.09.271-.09h.186l.226.137-.045.268c-.046.274 0 0 .045.228.045.226 0 0 .183 0 .177 0 .177-.177.177-.177v-.316l-.09-.273c-.045-.136-.09-.136-.09-.136l-.138-.23-.135-.229-.09-.135-.186-.316-.088-.406.226-.185-.138-.09c-.135-.09-.178-.09-.178-.09s-.138 0-.273-.226c-.136-.229 0 0-.136-.138-.138-.133-.045-.18-.09-.361-.048-.183-.048-.226-.048-.406 0-.18.048-.316.093-.499.045-.186.133-.27.133-.409 0-.135-.042-.27-.042-.27s-.09-.136-.136-.274c-.048-.135-.048-.18-.048-.448 0-.276.093-.276.138-.456.046-.183.046-.226.271-.321.23-.09.048-.226.048-.226l-.003-.018c.125.008.279.018.353.018h.27c.09 0 .21.059.393.059.186 0 0 0 .061.148.061.157-.148.157-.3.337-.153.178 0 0-.153.393-.154.392.058.122.18.029.122-.09.149-.058.395-.151.237-.09.146 0 .146 0l.154.215-.154.36c-.146.361-.058.123-.026.242.026.12 0 .36-.058.573-.059.212 0 .178 0 .454 0 .273.031.124.148.395.125.273.03.09.218.242.177.15.148.241.3.302.153.061 0 .09.063.3.059.215.09.183.178.241.09.059.18.335.18.335s.064.453.064.663c0 .217 0 .093.149.337.148.244.031.12 0 .215-.032.09-.178.146-.178.146l-.064.273-.178.032-.031.305s-.085.058-.271.09c-.178.027-.032.183-.032.273 0 .09.032.123.09.393.059.27.059.334.059.334l.034.425.032.241.117.335-.09.032h-.184c-.09 0-.119.058-.119.058s.03.151.12.273c.09.12.24.332.24.332l.126.093s.058.058.241.058c.178 0 .09.056.273.125.18.058.149.117.271.212.12.09.09.21.09.21l.42.334.15-.305v-.178s.664.334-.24-.485c-.908-.815 0-.3 0-.3s.09-.035.15-.186c.059-.151 0-.27 0-.363 0-.09.09-.059.09-.152 0-.09.033-.12.062-.273.032-.154.09-.058.273.032.183.09 0 .125 0 .125l.547.302s.087-.154.087-.273c0-.125.125-.151.125-.151l.18.029.242.058s.09.035.177.09c.09.059.215-.029.215-.029l.09-.03c.09-.034.09.091.09.091l.06.154.336.027s.059.092.12.334c.058.244.058.156.058.156l.334.271.151-.18h.123l.06-.213s.062.061.152.093c.09.03.544.454.756.693a.714.714 0 0 0 .244.17l-.061.013-.09.032-.125.09s-.36.058-.424-.061c-.059-.12-.122-.09-.213-.244l-.09-.154s-.058.125-.058.217v.09l-.242-.212-.183-.092-.212-.15-.21-.03s-.09-.027-.122.092l-.029.122-.424.18-.064.18s-.151.03-.151.12-.149.244.06.274l.213.026s.09-.334.149-.12c.06.21.09.274.09.362 0 .092-.061.398-.061.398l-.332-.125s-.09-.03-.09.058c0 .09.156.396.156.396s.09.238.059.331c-.03.09-.03.09-.03.18v.242c0 .09.15.334.178.425.03.09-.031.09.059.215.09.122.124.148.183.273.06.122.21.358.27.45.061.096.09.401.335.516.241.124.305.217.424.18.125-.027-.177-.146.274-.146.45 0 .27-.217.607 0 .332.21.21.09.512.393.303.302.756.851.998.963.244.125-.178.188.334.037.515-.146.788-.337.788-.337s.12-.026.239 0c.125.037.669.425.669.425l-.122.215s-.061-.032-.093.148c-.03.18-.178 1.149-.268 1.24-.09.09-.154.09-.242.145-.09.059-.241.117-.363.242-.122.116-.361.177-.518.329-.146.15-.119.15-.36.366-.242.21-.242.122-.428.36-.177.242-.424.489-.424.489s-.149.262-.268.358c-.125.09-.273.151-.273.151s0 .093-.306.027c-.305-.053-.058-.053-.424-.178s-.393-.21-.486-.186c-.09.027-.058-.058-.15.186-.094.244-.094.244-.123.36-.03.123-.058.065-.03.274.03.21.03.27.03.361 0 .096.061.21.061.517 0 .303-.034.303.032.457.058.148-.09-.122.058.302.152.425.09.393.152.512.06.125-.276.303.15.178.423-.122.693-.178.693-.358 0-.189-.331.056.09-.366l.422-.425s.215.09.064.21c-.154.127-.302.485-.393.698-.09.21-.183.031-.124.273.058.244.124.4.124.4s.361.664.361.754c0 .088-.058.056 0 .417.064.366.183.846.215 1.058.03.22.059.22.059.332 0 .125.029.188-.059.308-.09.117-.273.09-.09.273.183.18.427.512.427.512s-.093-.605.12.215c.212.815.273.998.273 1.152 0 .153.178-.154 0 .241-.183.393-.242.393-.242.539v.334c0 .093-.06 0 .059.244.124.242.09.242.183.393.09.151-.242-.52.241.241.486.751.486.751.486.913 0 .143-.032.143 0 .302.029.149.058.21.09.292.032.101-.058-.047.125.284.18.33.212.454.212.454s.058-.22.12.18c.06.401.212-.273.034.605-.183.876-.334 1.247-.334 1.247s-.064-.032-.064.175c0 .215-.03.55-.058.666-.032.125-.393.061-.032.332.363.263-.786.36.488.36 1.268 0 .09 0 1.42-.097 1.334-.077.756-.114 1.546-.114.788 0 1.24.06 1.513 0 .273-.061-.154.244.424-.125.573-.358 1.027-.754 1.027-.754s-.154-.026.18-.026c.332 0 .94.082 1.094.082.148 0 .026.101.148 0l.576-.393s.12-.09.573-.145c.456-.067.305-.032.669-.067.36-.021-.059.273.846-.05.908-.335.395-.486.395-.486s-.183-.06.18-.154c.362-.095.362-.095.486-.154.122-.058-.124-.058.274-.183.395-.122.154-.058.514-.217.367-.138.393-.138.515-.239.121-.089.225-.2.305-.326.059-.125.122-.308.122-.308l.152-.239.241-.276s.178.03.27.03c.09 0-.212.395.515-.393.727-.783.576-.664.727-.783.146-.13.24-.09.24-.242 0-.153-.253-.344-.253-.344l-.09-.231c-.04-.008-.135-.045-.332-.106-.517-.146-1.515-.592-1.27-1.476.24-.875.148-.73.148-.73l-.21.184s-.09.029-.244.273c-.115.195-.22.395-.316.6-.015.016-.037.018-.076.04a4.57 4.57 0 0 1-.513.206c-.092.038-.092.038-.214.128-.123.087-.123.087-.303.188-.182.07-.381.088-.573.048-.09-.032.273-.032-.186-.032h-.634c-.273 0-.183.127-.393-.021-.22-.162.149-.032-.273-.189-.424-.145-.666 0-.424-.145.241-.16.18-.099.329-.247.115-.108.218-.23.305-.361.06-.093 0 .188.06-.093.062-.276.09-.504.09-.6 0-.09-.363 0-.363 0s-.031.117-.092.21c-.059.085-.271.422-.271.422s-.151.149-.21-.056c-.06-.215-.06-.093-.06-.215v-.215c0-.124-.033-.177.031-.27.059-.096.149-.215.149-.3 0-.093-.178-.133-.213-.25-.026-.114-.09-.21-.15-.323a6.502 6.502 0 0 1-.123-.281s-.117-.09-.21-.327c-.09-.25.027-.212 0-.331-.029-.128.093.058-.06-.242-.149-.302-.18-.358-.21-.454-.03-.098-.215-.31-.215-.392 0-.09-.332.082 0-.09.337-.189.395-.242.488-.308.093-.059.242-.125.242-.125l.663-.27.183.055s.117-.146.334.25c.21.397.21.267.303.6.09.33.125.275.125.487 0 .213.031.544.058.645.03.082 0 .056.058.143.064.09 0 .056.183.21.183.151.847.671.969.732.122.061-.786-.183.217.183.995.359.574.236.783.205.212-.027.212 0 .334-.083.161-.116.348-.19.544-.217.303-.059.09-.059.425-.146.332-.093.302-.334.363 0 .059.334.09.539.09.634 0 .09-.36.058.032.22.393.14-.878-.156.393.14 1.271.309.878.274 1.483.338.608.058 1.027.09 1.208.122.18.034.063.058.337 0 .273-.061.392-.149.54-.149.155 0 1.001-.124 1.091-.148.09-.035.154.148.666-.101l.475-.212-.037.337.18.045.229.045v.499l.045.132.228-.132.451-.22.682-.231c.318-.231 0-.09.318-.231.316-.136.048 0 .316-.136.27-.127.411-.22.411-.22s.178.22.045.356a5.348 5.348 0 0 0-.363.464s.09 0-.135.09l-.226.083c-.23.09-.366.09-.366.09l-.27-.09-.226.183s-.136-.043-.228.09c-.06.098-.106.204-.136.316l.316.135s-.27.278.228.045c.499-.22.361-.045.499-.22.135-.189.364-.31.27-.136-.087.184-.315.462-.315.462s-.135.135-.316.22c-.18.099-.454.183-.454.183s-.138 0 0 .186c.136.18-.09 0 .136.18.225.184.36.28.36.28h.231s.314 0 .542-.187l.223-.18.363-.462.226-.265s.273.364.225.499c-.048.133-.178.178-.225.366-.043.178-.043.133-.136.358-.09.223-.09.499-.138.637-.045.143-.087.143-.132.316a.137.137 0 0 1-.016.047c.005-.018.026-.069-.032.367-.093.631-.093.862-.093.862v.49c0 .136-.045.187 0 .5.048.315.093.371.093.724 0 .23-.135.22-.226.186.014.066.03.148.045.276.09.679.09.86.09.86s-.09.09-.09.27c0 .178.046.316.046.316s-.223.358.138.045c.358-.319.225-.045.358-.319.138-.273.138-.36.316-.493.183-.135.36-.23.456-.372.09-.135.048-.09.316-.366l.498-.49c.184-.186.274-.322.412-.5.135-.182.315-.681.315-.681s-.045-.178.09-.361c.136-.178-.363.36.274-.581.637-.953.318-.64.637-.953.315-.313-.274.133.541-.591.82-.733.456-.279.637-.544.183-.279.09-.367.411-.682.316-.316.632-.677.817-.865.18-.186 1.133-1.133 1.133-1.133s.09-.281.18-.502c.09-.22.136-.087.226-.544.062-.343.202-.668.409-.95l.135-.183s.135-.183.273-.23c.127-.045.249-.103.364-.173l.228-.23c.183-.176.36-.454.36-.454l.274-.359s.048.136.048.319c0 .178.045.358.045.358l.186.186.178.183v.318l.002.045ZM60.01 48.872s-.138 0 .135.141l.274.13.183.46v.498l.315.316.184.047.177.361-.225.592-.045.183.135.316s.09.316-.042.456c-.138.135 0-.318-.138.135-.136.452.453.773.453.773 0 .358-.135.456-.135.456v.183l.183.263s-.048.093-.048.228-.09.406-.09.406l-.09.456v.356l-.09.138-.09.27-.271.099s-.09.045-.231.09c-.135.045.135.045-.36.045-.425 0-.847-.037-.97-.045a2.017 2.017 0 0 0-.172-.321l-.18-.274s0 .096-.316-.22l-.316-.318s-.273-.366-.273-.544c0-.18-.048-.135 0-.313.045-.183.228-.547.228-.547l.364-.23.042-.449.228-.228c.138-.133.138-.18.319-.18h.183s.27-.048.09-.184c-.18-.132-.318-.18-.318-.18s-.048-.09-.136-.228c-.09-.136-.045-.136-.09-.316-.045-.183-.135-.316-.178-.502a1.983 1.983 0 0 0-.18-.408s-.364-.27-.411-.59c-.043-.312-.043-.134-.043-.312 0-.186-.048-.457-.048-.457s-.132-.09.048-.18c.18-.093.313-.273.313-.273l-.1-.067-.035-.026-.138-.09-.27-.184-.048-.225.092-.138.316-.273s.135.273.273-.09l.133-.364.135-.451.229.18.363.048.18-.228.181-.186.406-.045s-.544-.09.093-.135l.634-.045.998.045s0-.136.047.228c.043.363.09.135 0 .589-.09.456.27.64-.135.64h-.411l-.409.09s-.135-.09-.135.18v.27l-.18.364c-.139-.27-.09-.363-.139-.27-.045.09-.498-.184-.498-.184l.05.268Zm-6.72-3.857-.271-.046.045.364s.273.316-.045.316h-.68l-.18-.045-.27.045.225.36-.045.231s-.048.133.045.274c.09.135.09.223.178.358.09.135.225.225.225.225s.048.186.18.276c.138.09.319.361.364.5.045.132.09.227.135.36.048.138.136.09.231.223.09.138-.183-.178.09.138.274.316.18.135.316.499a2.5 2.5 0 0 1 .135.772l-.177.273s-.136.133-.274.18a2.613 2.613 0 0 0-.318.136l-.318.135-.223.05-.412-.32s-.307-.579-.238.122l-.096-.046-.297-.124s-.064-.059-.241-.178c-.186-.125-.125-.305-.306-.305-.183 0-.119-.059-.36-.18-.245-.125-.245 0-.425-.306-.18-.3.122-.058-.18-.3-.3-.244-.364-.307-.544-.368-.183-.059-.425-.183-.425-.183l-.544-.24h-.241c-.183 0-.183-.06-.488-.06h-.306s.09-.059-.421.06l-.513.12s-.52-.21-.697-.27c-.183-.064-.213-.213-.332-.271-.125-.061-.125-.157-.244-.244a6.705 6.705 0 0 0-.303-.21c-.09-.058-.058-.122-.058-.122l-.125-.151-.09-.151-.029-.183v-.122l.03-.271-.03-.093-.058-.178.058-.15.178-.123.183-.09.09-.183s.09-.059.18-.09l.18-.062.274-.058.09-.273.122-.18.03-.178.18-.244.122-.09.154-.033s.12.061.3.125c.146.048.156.059.154.059l.15-.059v-.178l-.153-.215.241-.241v-.157l.213-.087s.09-.064.241-.064a.65.65 0 0 1 .27.064l.181-.212.09-.125h.489l.18-.212.316.73.18-.231.136.23v.226l.047.138.045.18.319.27.135.049.135-.048.229-.09.225-.045h.138l.316.045c.225-.045.36-.09.499-.09.132 0-.093.047.132 0 .229-.046.09-.09.5 0l.41.09.542.14s.047.043.18.043h.135s.725-.274.5 0c-.229.273-.274.406-.274.406h-.316c.019.005.149.005-.122-.037Zm-7.671 9.443.228.04h.499l.183-.22.406-.179H46.3l-.406-.135-.684-.042.048.313.36.223Zm3.539-23.105c.045-.14.045-.273.045-.273l-.363-.09-.178.18-.186.09.457.048s.18.175.225.045Zm-.27-2.091-.048-.183-.226-.043-.045.271.18.18.138-.225ZM33.313 40.156l.09.027.358-.252s.183-.226.23-.316l.16-.342h-.114c-.114 0-.114-.021-.202-.07-.09-.044-.114-.068-.183-.023-.069.045-.135.135-.135.135s-.048.16-.09.271c-.048.114-.117.225-.162.387-.043.162.048.183.048.183Zm.82 4.768c-.136-.138-.226-.183-.271-.273-.048-.09-.048-.252-.136-.252-.087 0-.252-.09-.252-.09a.844.844 0 0 0-.265-.064v.475s.112.093.157.165c.048.085.084.176.108.27.024.067.09.09.115.205.026.111.137.228.273.363.135.135.111.34.111.411 0 .061.07.178.07.178l.182-.178s.157.09.18-.069c.022-.159.022-.18.07-.252.047-.066-.295.027.135-.135l.433-.16.111-.204s-.66-.34-.724-.34c-.067-.002-.165.083-.298-.05Zm-1.271-4.54s-.229-.042-.298-.068c-.066-.027-.156-.18-.156-.18l-.18.432s-.025.294-.043.363a1.045 1.045 0 0 1-.16.29c-.092.116-.158.228-.342.344-.18.117-.09.18-.09.18l.162.208s.09-.114.157-.162c.069-.045.18.204.18.273l.252-.133s.403-.498.52-.636c.112-.136.25-.252.25-.252s.047-.295.069-.364c.026-.069-.048-.228-.048-.228l-.273-.066Zm6.609 9.202c.122-.09.09-.124.122-.217l.093-.33c.058-.24.236.125.422 0 .18-.119.212-.27.212-.27l-.82-.544s-.178-.215-.273-.305c-.09-.093-.21-.058-.21-.058h-.244s-.09.18-.09.273c0 .09.058.12 0 .454-.059.334-.12.148-.18.27-.062.125.026.157.026.157l.305.055s-.032.184-.061.425c-.032.244.03-.058.215-.09.18-.035.12.032.18.148a.981.981 0 0 1 .059.335s.127-.215.244-.303Zm11.183-4.118-.09-.135c-.09-.135 0-.183 0-.364 0-.183-.135-.228-.135-.228l-.499.045s-.228-.045-.456-.045H49.2c-.135 0-.045.138-.045.138s.183.178.316.136c.135-.046.183.318.183.318l-.225.363s0 .226.225.406c.226.184 0 0 .138 0l.403.184.544-.136s.231 0 .502-.045c.27-.045 0 0 .316-.18.062-.037.125-.07.19-.101l-.419-.125-.674-.23Zm-9.878 6.328-.124-.119s-.061-.093-.183-.125c-.12-.034-.24-.183-.24-.183l-.092-.058c-.088-.066-.151-.18-.151-.18l-.425-.146-.334-.189s-.027.09.029.215c.108.143.24.266.393.36a.553.553 0 0 1 .15.15l.155.156.178.3.514.058.21.064s.058-.096.032-.183c-.024-.088-.112-.12-.112-.12ZM35.48 27.001l-.165-.098-.273-.18-.135.09v.223l-.186.225h-.361c-.133 0-.18-.087-.18-.087l-.274.135.09.135.046.18.183.272.225.09c.223.09.09.223.09.223h-.36l-.457-.133s-.183-.09-.316-.135c-.135-.045-.228 0-.228 0h-.135l-.592.183.454.27.409.274.138-.048.634.318.135.136.268.228.276.313.18.186c.178.18.319.225.319.225l.315-.09-.047-.273-.045-.178c1.905.268 1.133-.772 1.133-.772l-.18-.228.134-.274v-.223l.184-.22.273-.276.09-.265s-.138-.09-.138-.226c0-.14.138-.273.138-.273l.18-.138c.18-.135.046-.178.09-.499a2.13 2.13 0 0 0 .017-.17l.207-.326.138-.138.225-.135.316-.093c.318-.09 0 0 .273-.18s.135-.409.135-.409l-.09-.135c-.09-.133-.045-.18-.045-.18l.09-.181.136-.045h.138l.36-.18-.047-.274s-.725.093-.86.138l-.273.09-.183-.09-.22.09-.048.135-.229.09-.36.09-.271.134.403.047-.087.18-.138.139-.499.315.273.136-.135.273-.228.045c-.226.048-.274.138-.274.138l-.045.135.316.09.09.226-.132.09c-.138.093-.09.133-.09.133v.411l-.229.274h-.358c-.194-.006-.21.024-.188.047Zm4.102-10.085c.042.136.042.18.087.316.048.135.138.316.138.316l.228.273.772.093.18.045.274.226.544-.093h.178l.138-.178c.135-.18.045-.135.135-.273.09-.138.09-.18.09-.316 0-.135 0-.135-.047-.273-.045-.136-.18-.09-.274-.274-.09-.178 0 0-.498-.358-.5-.366-.18-.183-.319-.366-.135-.178 0 0 0-.133a1.37 1.37 0 0 0-.09-.411c-.045-.135-.276.093-.276.093v.135c0 .138-.088.226-.088.226l-.363.045h-.18s0 .183-.178.225c-.18.045-.136.09-.5.274-.36.18.004.268.049.408Zm22.696 7.806c.135.231-.273-.09.273.409l.55.499a.3.3 0 0 0 .177.18c.138.045.637.045.637.045l-.045-.186-.27-.315-.091-.136s-.135-.135-.178-.36c-.047-.229-.093-.178-.093-.406v-.457s-.045-.225.046-.363c.07-.115.13-.236.18-.361l.183-.316.045-.273.499-.68c.316-.135.406-.09.454-.228.047-.135.138-.228.138-.358 0-.138.087-.276-.048-.276s-.178-.042-.27.09c-.091.136.044-.09-.091.136-.135.228.09.228-.135.228-.226 0 .045.048-.226 0l-.273-.048-.226.228-.135.229-.18.177-.229.274s-.042.09-.09.273c-.045.183 0 .273-.09.411l-.178.27s-.09.364-.183.593c-.09.222-.225.315-.225.315s-.183.048-.045.228c.119.178-.014-.05.119.178ZM42.804 30.26l-.228.18-.09.183-.048.316-.315.048-.048-.136-.18-.138v.229l.273.228h.18l.226-.09.273-.18s.178-.136.316-.274l.135-.136.093-.138-.409-.09H42.8l.005-.002Zm-16.48-18.202.317-.178.18-.135s.048-.135.23-.364c.179-.228.317.046.317.046l.313-.046c.318-.047.23-.315.23-.315l.271-.136c.27-.135.319-.225.319-.225s.18-.048.589-.228c.405-.183-.136 0-.136 0s-.138 0-.501.047c-.361.043 0 0-.812-.138-.82-.137 0 0-.457 0h-.135s-.682.82-.82 1.043l-.135.231-.273.316-.229.135-.04.218s.136-.048.316-.048l.457-.223Zm6.764 14.028.135.138.502.18.273-.047.547-.361c.132-.09.132-.178.132-.178l.231-.045.178-.045.36-.048.181-.403v-.595l-.09-.273-.682.178-.676-.18c-.682-.186-.367 0-.367 0l-.135.315v.136l-.045.228-.18.18-.231-.048h-.178l-.18-.042-.229.09-.18.18-.135.223.228.319.541.098Zm13.755 5.039.135-.045s.273 0 .409-.274l.103-.207a.92.92 0 0 1-.196.07l-.316.09-.27.135-.364.273-.016.125-.027.148.361-.273c-.002.003.045.003.18-.042Z" fill="#FFF"/></g></svg>