<svg viewBox="0 0 90 90" xmlns="http://www.w3.org/2000/svg"><g fill="none" fill-rule="evenodd"><path fill="#000" d="M0 0h90v90H0z"/><path d="m46.923 28.946 7.869 4.568c.282.16.293.605 0 .766l-9.35 5.432a.864.864 0 0 1-.88 0l-9.348-5.432c-.288-.155-.293-.61 0-.766l7.863-4.568V20L23 31.662v23.323l7.698-4.47v-9.137c-.005-.326.376-.558.659-.383l9.349 5.433c.283.166.442.46.442.766v10.86c.005.326-.375.558-.658.382l-7.868-4.568-7.699 4.47L45 70l20.077-11.662-7.699-4.47-7.868 4.568c-.278.171-.668-.051-.658-.382v-10.86c0-.326.18-.616.442-.766l9.35-5.433c.277-.17.668.047.658.383v9.137L67 54.985V31.662L46.923 20v8.946Z" fill="#FFF" fill-rule="nonzero"/></g></svg>