<svg viewBox="0 0 90 90" xmlns="http://www.w3.org/2000/svg"><defs><linearGradient x1="49.949%" y1="99.959%" x2="49.949%" y2="-.041%" id="a"><stop stop-color="#FFF" offset="0%"/><stop stop-color="#B2B4B6" offset="100%"/></linearGradient><linearGradient x1="50%" y1="100%" x2="50%" y2="0%" id="b"><stop stop-color="#FFF" offset="0%"/><stop stop-color="#B2B4B6" offset="100%"/></linearGradient></defs><g fill="none"><path fill="#072845" d="M0 0h90v90H0z"/><path fill="url(#a)" transform="matrix(1 0 0 -1 15 58.684)" d="M8.389 35.294 8.378 9.259 18.036 0l12.93 7.52L38.82.92l7.871 4.557-8.67 7.252.046 26.94-8.934 8.015-8.35-4.782 7.046-7.037.009-25.504-4.796-2.707-5.511 5.437-.018 26.063-9.135 8.53L0 42.63z"/><path d="M40.286 67.618c-4.332-2.815-9.81-7.02-9.81-7.02l.041-24.453-3.243-2.17 10.138-8.066s1.2-.729 2.044-.921c1.93-.441 5.596-.947 8.854.491C53.246 27.66 60 36.045 60 36.045l-2.335 1.864-5.678-5.743s-.66-.57-1.094-.76c-1.217-.533-3.857-1.327-6.342.348a1755.32 1755.32 0 0 0-5.428 3.67l.067 26.549s.02.09.06.142c.174.235.727.874 1.567.874 1.028 0 2.082-.967 2.082-.967l7.888-8.461 8.31 4.832-8.99 9.378s-.507.4-.878.53c-.784.273-2.285.699-4.04.699-1.544 0-3.283-.33-4.903-1.382" fill="url(#b)" transform="matrix(1 0 0 -1 15 104.529)"/></g></svg>