<svg viewBox="0 0 90 90" xmlns="http://www.w3.org/2000/svg"><g fill="none" fill-rule="evenodd"><path fill="#920010" d="M0 0h90v90H0z"/><path d="M44.82 14.71c6.05 0 10.86 2.52 13.68 7.09h6.64v3.48h6.5v51H18v-51h6.5V21.8h6.64c2.86-4.57 7.63-7.09 13.68-7.09Zm0 2.85c-3.74 0-8.8 1.1-11.65 6.35l-.4.74h-5.42v3.49h-6.5v45.3h47.94v-45.3h-6.5v-3.49h-5.42l-.4-.74c-2.85-5.25-7.91-6.35-11.65-6.35Zm22.23 50.98v1.57H22.6v-1.57h44.45Zm-1.24-2.74v1.57H23.83V65.8h41.98Zm-1.53-23.39v1.57h-.71a.89.89 0 0 1-.64 1.51.88.88 0 0 1-.42-.11l.4 16 1.48.01V64H25.24v-2.59h1.48l.39-16a1 1 0 0 1-.4.1.89.89 0 0 1-.9-.89.88.88 0 0 1 .26-.62h-.71v-1.59h38.92ZM34.19 44H31a.87.87 0 0 1 .31.59.88.88 0 0 1-1.29.79l.39 16h4.5l.32-15.97a.91.91 0 0 1-.4.1.89.89 0 0 1-.64-1.51Zm8.21-.03h-3.2a.89.89 0 0 1-.64 1.51.91.91 0 0 1-.4-.1l.39 16h4.5l.39-16a.88.88 0 0 1-.4.1.89.89 0 0 1-.64-1.51Zm8.13-.02h-3.21a.89.89 0 0 1-.64 1.51 1 1 0 0 1-.38-.08l.39 16h4.49l.39-16.02a1 1 0 0 1-.41.1.89.89 0 0 1-.89-.89.88.88 0 0 1 .26-.62Zm8.14.02h-3.2a.89.89 0 0 1-.64 1.51.87.87 0 0 1-.39-.1l.39 16h4.48l.39-15.99a.89.89 0 0 1-1.03-1.42Zm-13.78-12.8 21.47 7.72-1 2.68-20.51-7.37-20.51 7.37-1-2.68 21-7.55.55-.17Z" fill="#FFF" fill-rule="nonzero"/></g></svg>