<svg xmlns="http://www.w3.org/2000/svg" viewBox="0 0 90 90"><path fill="#FFF" d="M0 0h90v90H0z"/><path fill="#0062DF" d="M26.09 26l-9.62 30.01c-.12.38-.05.8.18 1.13.23.33.6.52 1 .53h8.44L36.25 26h13.19L37.13 39.26l6.71-1.86L35.32 64H11.25c-2 0-3.88-.97-5.06-2.6a6.4 6.4 0 01-.88-5.68L14.83 26H26.1zm52.67 0c2 0 3.87.98 5.05 2.61a6.4 6.4 0 01.89 5.67l-2.67 8.3a12.52 12.52 0 01-11.88 8.75H57.98L53.92 64H42.66l8.56-26.6 5.53 1.86L52.89 26zm-6.4 6.33h-8.29L60.01 45h5.46c2.7 0 5.1-1.76 5.94-4.37l2.13-6.65c.13-.38.06-.8-.17-1.13-.24-.32-.61-.52-1.01-.52z"/></svg>