<svg xmlns="http://www.w3.org/2000/svg" viewBox="0 0 90 90"><path fill="#FFF" d="M0 0h90v90H0z"/><g fill="#1C2525"><path d="m60.3 19.4-1.6 2.8-1.9 3.2c-4-2.3-8.6-3.5-13.3-3.5V15c-6 0-11.8 1.6-17 4.5-5.1 3-9.3 7.2-12.3 12.4l2.8 1.6 3.3 1.8c-2.1 3.6-3.3 7.7-3.5 11.8v1.5H13c0 5.3 1.4 10.4 4.1 15 2.7 4.6 6.5 8.3 11.1 11l1.8-3.1c4.1 2.3 8.7 3.6 13.4 3.6 4.7 0 9.4-1.2 13.4-3.5l1.8 3.1c4.7-2.6 8.5-6.5 11.2-11.1 2.7-4.6 4.1-9.8 4.1-15.1h3.2c0-5.9-1.6-11.7-4.6-16.8-2.7-5.2-7-9.4-12.2-12.3ZM43.6 67.2c-3.7 0-7.4-1.1-10.5-3.2-3.1-2.1-5.5-5-7-8.4-1.4-3.4-1.8-7.2-1.1-10.8.7-3.6 2.5-7 5.2-9.6 2.6-2.6 6-4.4 9.7-5.1 3.7-.7 7.5-.4 10.9 1.1 3.5 1.4 6.4 3.8 8.5 6.9 2.1 3.1 3.2 6.7 3.2 10.4 0 5-2 9.7-5.5 13.2-3.6 3.5-8.4 5.5-13.4 5.5Z"/><path d="M43.6 55.2c3.8 0 7-3.1 7-6.9 0-3.8-3.1-6.9-7-6.9s-7 3.1-7 6.9c0 3.9 3.1 6.9 7 6.9Z"/></g></svg>