<svg xmlns="http://www.w3.org/2000/svg" viewBox="0 0 90 90" fill-rule="evenodd"><path fill="#6eda44" d="M0 0h90v90H0z"/><path fill="#fff" fill-rule="nonzero" d="M65.776 50.252c-3.495 0-6.771-1.51-9.746-3.969l.725-3.471.032-.129c.645-3.695 2.692-9.898 8.99-9.898 4.723 0 8.565 3.921 8.565 8.741-.016 4.804-3.857 8.725-8.565 8.725h0zm0-26.319c-8.046 0-14.28 5.335-16.815 14.108-3.873-5.929-6.802-13.047-8.518-19.041h-8.66v22.993c0 4.531-3.621 8.226-8.061 8.226s-8.061-3.695-8.061-8.226V19H7v22.993c-.031 9.416 7.479 17.144 16.705 17.144s16.737-7.728 16.737-17.144v-3.856c1.684 3.583 3.747 7.198 6.251 10.412L41.386 74h8.865l3.841-18.462c3.369 2.201 7.243 3.583 11.683 3.583C75.269 59.122 83 51.184 83 41.495c0-9.673-7.731-17.562-17.225-17.562h0z"/></svg>