<svg viewBox="0 0 90 90" xmlns="http://www.w3.org/2000/svg"><g fill="none"><path fill="#51247A" d="M0 0h90v90H0z"/><path d="M24.883 50.474c2.4 3.752 4.15 6.448 5.074 7.942a45.039 45.039 0 0 0 10.21 4.32c1.038.277 2.043.52 3.031.7v4.66c.762.05 3.842.05 4.604 0v-4.66a40.102 40.102 0 0 0 3.03-.7c3.404-.941 7.002-2.436 10.276-4.32 0 0 1.727-2.77 3.63-5.79l.303-.478.606-.96.303-.477.15-.237H72v7.52a62.172 62.172 0 0 1-5.235 4.126l.016.016v1.705c0 1.3-.113 1.56-.843 2.063-1.134.764-2.917 1.998-5.673 3.622v-3.524a37.879 37.879 0 0 1-5.186 2.046v5.165C52.63 74.285 49.179 75 45.516 75c-3.663 0-7.131-.715-9.562-1.787v-5.165a37.765 37.765 0 0 1-5.187-2.046v3.524c-2.755-1.624-4.538-2.858-5.673-3.622-.73-.487-.843-.763-.843-2.063v-1.705A61.529 61.529 0 0 1 19 57.994v-7.52h5.883Zm28.867 17.98a31.977 31.977 0 0 1-16.5 0v3.85a21.03 21.03 0 0 0 8.266 1.397c3.128 0 6.03-.439 8.234-1.397v-3.85Zm-9.838 1.51.616.033 1.248 3.216-.6-.048-.292-.845-1.313-.097-.324.812-.567-.05 1.232-3.02Zm3.468-.048c.746-.049 1.313.309 1.394.975l-.567.032c-.098-.357-.34-.6-.81-.568-.698.032-.973.65-.973 1.234.016.601.308 1.186 1.005 1.137.486-.032.778-.422.81-.86l.551-.033a1.38 1.38 0 0 1-1.361 1.332c-.957.065-1.556-.65-1.572-1.543 0-.894.55-1.657 1.523-1.706Zm-3.16.552-.487 1.3.973.065-.486-1.365Zm21.264-7.439a44.024 44.024 0 0 1-3.938 2.307v1.916l3.241-2.095v-.016c.827-.536.697-.488.697-1.446v-.666Zm-39.952-.032v.698c0 .958-.13.91.697 1.462l3.241 2.08v-1.918a38.686 38.686 0 0 1-3.938-2.322Zm-5.235-10.525v4.97c4.83 3.93 10.146 7.796 16.84 9.648l4.408-2.648c-6.888-1.413-16.45-6.172-21.248-11.97Zm50.423-.033c-4.798 5.815-14.377 10.558-21.265 11.987l4.408 2.648s5.317-1.657 9.336-4.158c2.699-1.678 4.525-3.038 5.701-4.007l.27-.225c.558-.47.946-.834 1.194-1.08l.104-.105c.174-.177.252-.268.252-.268v-4.792ZM35.727 63.094l.518.195 1.102 3.33-.534-.163-.244-.78-1.167-.47-.275.714-.551-.194 1.15-2.632Zm19.692.016v2.6l1.605-.585v.47l-2.14.796v-3.053l.535-.228Zm-21.589-.747.535.228v3.02l-.535-.21v-3.038Zm25.058-.698 1.296 2.517-.502.228-.324-.666-1.2.536-.227.926-.567.26 1.005-3.574.519-.227Zm-22.902 2.079-.438 1.104.876.358-.438-1.462Zm-4.781-2.599 2.188 1.04v.454l-.86-.34v2.55l-.518-.26v-2.6l-.81-.373v-.47Zm-2.61-1.445.519.308 1.167 2.924.016.016v-2.29l.421.243v3.103l-.47-.276-1.167-2.924-.016-.016v2.257l-.47-.292V59.7Zm34.118.747c0 .292-.13.6-.39.86.357-.097.536.098.536.488 0 .487-.308 1.04-1.038 1.43l-.713.421-.55.293v-3.054l.009-.006.069-.046a3.78 3.78 0 0 1 .359-.208l.907-.487c.503-.276.81-.211.81.309Zm-4.004 1.851-.42 1.51.907-.421-.487-1.089Zm3.193-.503-.842.47.032.927.81-.439c.292-.162.47-.438.47-.73 0-.31-.178-.374-.47-.228ZM26.23 58.238l1.831 1.17v.47l-1.377-.893v.796l1.28.828v.439l-1.28-.829v.894l1.41.91v.47l-1.864-1.202v-3.053ZM66.23 15v24.429c0 10.103-9.384 19.767-20.617 22.788-11.248-3.021-20.616-12.685-20.616-22.788V15H66.23Zm-.794 44.18s.308 1.202-.892 2.404c-.729.6-1.296.454-1.426-.276-.115-.9.219-1.798.891-2.404.73-.666 1.28-.471 1.427.276Zm-3.598 1.43-.795.438.017.828.778-.422a.764.764 0 0 0 .405-.65c0-.325-.162-.325-.405-.195Zm2.253-1.349a1.825 1.825 0 0 0-.552 1.657c.098.487.39.747.924.292.81-.893.551-1.64.551-1.64-.097-.488-.405-.78-.923-.309Zm-38.77-1.608.486.309v3.004l-.486-.308v-3.005ZM64.87 16.316H26.294V39.46c0 8.934 8.055 18.046 19.287 21.44 11.232-3.394 19.288-12.506 19.288-21.44V16.316Zm2.998 40.622c0 .553-.324.975-.421 1.056.162-.081.389-.114.389.341 0 .341.032.634.13.666l-.487.374c-.065-.082-.065-.244-.065-.374 0-.552-.097-.715-.519-.406l-.648.487v1.235l-.454.325v-2.94s.26-.228.438-.325l.794-.601c.567-.422.843-.325.843.162Zm-45.042.52c0-.877.405-1.348 1.07-.926.556.363.915.962.972 1.624l-.405-.243c-.065-.39-.227-.747-.567-.942-.47-.309-.68.146-.68.73 0 .585.21 1.3.696 1.592.34.212.535-.016.567-.438l.39.227c-.033.715-.422.975-.973.65-.665-.422-1.07-1.397-1.07-2.274Zm44.15-.162-.761.568.032.893.73-.552a.975.975 0 0 0 .437-.812c0-.357-.21-.276-.437-.097Zm2.934-2.924v.439l-1.215 1.088v.78l1.118-1.008v.423l-1.118.99v.861l1.231-1.104v.455l-1.62 1.445v-2.94l1.604-1.429Zm-49.013.682c0-.617.39-.633.778-.373.438.308.81.893.81 1.543l-.372-.26c-.016-.406-.195-.682-.454-.845-.162-.13-.389-.195-.389.114a.85.85 0 0 0 .26.585c.206.21.406.426.6.65.266.293.416.674.42 1.071 0 .682-.42.65-.842.358a2.051 2.051 0 0 1-.892-1.69l.373.244c-.007.415.194.805.535 1.04.324.227.438.08.438-.163a.753.753 0 0 0-.163-.487l-.632-.699a1.626 1.626 0 0 1-.47-1.088Zm44.572-1.153-1.815 2.924a44.057 44.057 0 0 0 1.88-1.267l-.065-1.657Zm-39.936 0v1.657c.494.36 1.383.898 1.682 1.077l.084.05-1.766-2.784Zm14.96-13.124c-2.87.438-5.09 1.332-6.759 3.005l-.032-.001-.262.287a12.335 12.335 0 0 0-2.575 4.603V22.6c1.718 5.068 4.7 7.147 9.628 7.927-.762-4.938-2.82-7.926-7.91-9.648h26.014c-5.057 1.722-7.1 4.71-7.86 9.648 4.926-.764 7.892-2.859 9.578-7.926v21.164h.016v4.905a12.058 12.058 0 0 0-2.852-4.905c-1.686-1.657-3.89-2.534-6.743-2.99.162 1.09.39 2.08.713 2.99h-.016c1.118 3.2 3.242 5.31 7.164 6.627H32.582c3.971-1.316 6.094-3.428 7.197-6.627.324-.91.55-1.9.713-2.99Zm10.746-9.145v7.618h-3.08c-1.783 0-1.329.52-2.545.52-1.264 0-.778-.52-2.544-.52h-3.096v-7.618l-.551.374V39.9h3.987c.908 0 .794.52 2.204.52 1.378 0 1.248-.52 2.205-.52h3.97v-7.894l-.55-.374Zm-16.014 4.824a.938.938 0 0 0-.94.926v.081h-.162c-.194 0-.308.13-.308.293a.276.276 0 0 0 .292.292h.162v.098a.927.927 0 0 0 .956.925.972.972 0 0 0 .827-.47h2.058l.016-1.592-2.09.032a.873.873 0 0 0-.81-.585Zm12.74-5.1c-1.167 0-1.864.78-1.864 1.543v5.766c.616-.357 1.102-.39 2.026-.39h2.14v-6.643c-1.07 0-1.07-.276-2.302-.276Zm-4.717 0c-1.232 0-1.232.276-2.301.276v6.644H43.1c.908 0 1.378.032 2.026.39l-.016-5.767c0-.763-.697-1.543-1.864-1.543Zm12.529 5.653H53.07V38.6h2.869c.632 0 1.005-.21 1.005-.877 0-.584-.454-.714-1.167-.714Zm-20.244 1.04v.064c0 .195-.146.357-.324.357-.178 0-.324-.162-.324-.357v-.065h.648Zm-.324-.96c.178 0 .324.163.324.374h-.648v-.016c0-.195.146-.357.324-.357Zm.016-4.953c-.518 0-.94.422-.94.91v.097h-.162c-.194 0-.308.114-.308.276 0 .179.13.309.292.309h.162v.097a.927.927 0 0 0 .956.91.972.972 0 0 0 .827-.455h2.058l.016-1.592-2.09.016a.881.881 0 0 0-.81-.568Zm20.552.552H53.07v1.592h2.869c.632 0 1.005-.211 1.005-.893 0-.585-.454-.699-1.167-.699Zm-20.244 1.04v.048c0 .195-.146.358-.324.358-.178 0-.324-.163-.324-.358v-.048h.648Zm-.324-.959c.178 0 .324.147.324.374h-.648v-.016c0-.195.146-.358.324-.358Z" fill="#FFF"/></g></svg>