<svg viewBox="0 0 90 90" xmlns="http://www.w3.org/2000/svg"><g fill="none"><path d="m12.976 21.025 10.9-10.897a7.267 7.267 0 0 1 10.276 0l10.9 10.897L29.014 37.06 12.976 21.025Z" fill="#9ADDFB"/><path d="m44.948 21.025 10.9-10.897a7.267 7.267 0 0 1 10.276 0l10.9 10.897L60.986 37.06 44.948 21.025Z" fill="#4FC3F7"/><path fill="#35BAF6" d="M28.962 37.008 45 20.974l16.038 16.034L45 53.043z"/><path d="M2.128 42.146a7.264 7.264 0 0 1 0-10.275l10.9-10.897 16.037 16.034-16.037 16.035-10.9-10.897Z" fill="#CDEEFD"/><path fill="#1CB2F5" d="m12.976 52.991 16.038-16.034L45.052 52.99 29.014 69.026z"/><path d="m60.934 37.008 16.038-16.034 10.9 10.897a7.264 7.264 0 0 1 0 10.275l-10.9 10.897-16.038-16.035Z" fill="#B3E5FC"/><path fill="#9ADDFB" d="m44.948 52.991 16.038-16.034L77.024 52.99 60.986 69.026z"/><path d="M28.962 68.975 45 52.94l16.038 16.035-10.9 10.897a7.267 7.267 0 0 1-10.276 0l-10.9-10.897Z" fill="#81D4F9"/></g></svg>