<svg xmlns="http://www.w3.org/2000/svg" viewBox="0 0 90 90"><path fill="#333740" d="M4.991 59.562C-5.931 29.556.432 15.912 30.438 4.991S74.088.432 85.009 30.438s4.559 43.651-25.447 54.571-43.65 4.559-54.571-25.447"/><path fill="#fff" d="M31.032 27.669h-1.89c-1.62.004-3.324.32-4.712 1.284a5.23 5.23 0 0 0-1.7 1.959c-.437.912-.654 1.913-.633 2.924v27.117c0 .517.419.936.936.936h3.693c.517 0 .936-.419.936-.936V41.848h3.369c.517 0 .936-.419.936-.936v-3.164c0-.517-.419-.936-.936-.936h-3.368v-2.404a3.32 3.32 0 0 1 .163-1.183.74.74 0 0 1 .184-.292.83.83 0 0 1 .448-.18 6.37 6.37 0 0 1 .972-.046h1.604c.517 0 .936-.419.936-.936v-3.165c0-.517-.419-.936-.936-.936m22.317 17.373a8.07 8.07 0 0 0-2.711-6.252c-1.741-1.518-4.185-2.334-7.06-2.332-2.924 0-5.45.837-7.295 2.304a8.02 8.02 0 0 0-3.09 5.973c-.012.256.081.505.258.691s.422.29.678.29h3.911c.486.001.892-.371.934-.856a3.08 3.08 0 0 1 1.265-2.206 5.46 5.46 0 0 1 3.338-.981c1.459 0 2.507.396 3.176.977.685.603 1.062 1.481 1.027 2.393v.132c.003.109-.009.218-.036.324l-.036.081a.55.55 0 0 1-.243.147 7.38 7.38 0 0 1-1.616.332l-3.104.386h.002c-2.353.316-4.756.701-6.703 1.8-.996.546-1.831 1.345-2.42 2.316-.637 1.131-.955 2.415-.918 3.713-.017 1.182.222 2.354.699 3.436.683 1.478 1.852 2.677 3.312 3.398a11.01 11.01 0 0 0 5.014 1.09c2.25.002 3.956-.521 5.213-1.322a6.9 6.9 0 0 0 .837-.624v.701c0 .517.419.936.936.936h1.798l2.831-10.535.001-6.31zm-5.567 7.119a4.68 4.68 0 0 1-1.247 3.358c-.842.849-2.172 1.456-4.276 1.462-1.355.002-2.358-.296-2.957-.725-.277-.19-.503-.444-.66-.741-.159-.321-.24-.675-.235-1.033v-.024a2.13 2.13 0 0 1 .302-1.154c.377-.533.91-.936 1.526-1.152a10.71 10.71 0 0 1 2.595-.644l3.845-.612 1.109-.254-.001 1.52z"/><path fill="#a299ff" d="M69.026 25.004a.94.94 0 0 1-.367 0h-4.703c.223-.089.472-.089.695 0l-9.323 34.693-.46 1.714-.633 2.354h4.703l10.416-38.762a.94.94 0 0 1-.814 0"/></svg>