<svg viewBox="0 0 90 90" xmlns="http://www.w3.org/2000/svg"><g fill="none" fill-rule="evenodd"><path fill="#0052E2" d="M0 0h90v90H0z"/><g fill-rule="nonzero"><path d="M9.148 62.686 9.4 61.14c-1.207 1.266-3.003 1.855-4.49 1.855-2.525 0-4.434-1.6-4.434-4.467 0-.393.057-.844.141-1.295l.982-5.59H0l.729-4.104h6.033L5.275 55.97a5.633 5.633 0 0 0-.084.927c0 1.347.673 1.994 1.852 1.994 1.683 0 2.61-1.067 2.974-3.092l.73-4.158H9.12l.701-4.103h6.201l-1.935 11.015h1.599l-.73 4.132H9.148Zm13.5.338c-2.049 0-2.947-.647-3.592-1.292l-.168.954h-3.059l.757-4.355h4.294v.055c0 1.012.505 1.434 1.6 1.434.954 0 1.599-.477 1.74-1.208l.027-.226c0-.87-1.094-1.153-3.704-1.91-2.077-.592-3.255-1.884-3.255-3.68 0-.255.028-.536.084-.819.449-2.67 3.003-4.776 6.314-4.776 1.992 0 2.582.702 3.03 1.207l.169-.927h2.974l-.785 4.386h-4.041v-.141c0-.76-.42-1.208-1.29-1.208-.815 0-1.516.448-1.628 1.095v.168c0 2.051 6.959.901 6.959 5.452 0 .284-.028.593-.085.928-.476 2.7-2.918 4.863-6.341 4.863m15.743-12c-1.544 0-3.17.927-4.013 2.5h7.38c-.449-1.715-1.824-2.5-3.367-2.5m6.65 5.761H33.817c.449 1.601 1.74 2.416 3.283 2.416 1.039 0 2.021-.338 2.778-1.04h4.546c-1.74 2.98-4.854 5.005-8.025 5.005-3.789 0-6.707-2.615-6.707-6.551 0-.477.056-.982.14-1.488.814-4.61 4.995-8.039 9.29-8.039 3.674 0 6.565 2.557 6.565 6.464 0 .477-.028.956-.113 1.462a8.977 8.977 0 0 1-.533 1.771m7.159-1.04-.506 2.809h1.6l-.73 4.132h-7.632l.73-4.132h1.599l1.206-6.912h-1.6l.73-4.103h5.669l-.393 2.274c1.543-1.853 2.863-2.361 4.715-2.5l-.787 4.58c-2.553.142-4.18 1.491-4.601 3.852" fill="#FFF"/><path d="m60.196 46.75.73-4.13h4.433l-.702 4.13h-4.461ZM55.79 62.686l.73-4.132h1.599l1.206-6.912h-1.599l.73-4.103h6.061l-1.964 11.015h3.829l-1.108 4.132H55.79Z" fill="#FF9D00"/><path d="m71.732 51.642-1.235 6.912h1.6l-.73 4.132h-7.632l.729-4.132h1.6l1.206-6.912h-1.6l.73-4.103H68c.954-4.329 3.367-5.624 7.352-5.624l-.702 3.907c-.112-.026-.224-.026-.392-.026-1.123 0-1.6.702-1.796 1.743h1.88l-.702 4.103h-1.908Z" fill="#FF9D00"/><path d="m87.868 51.642-7.212 12.226h1.543L81.5 68h-7.605l.73-4.132h1.374l.926-1.659-2.272-10.567h-1.544l.729-4.103h7.268l-.73 4.103h-.87l.759 5.086 2.75-5.086h-.898l.729-4.103H90l-.729 4.103z" fill="#FF9D00"/><path d="M51.846 34.6C51.817 28.198 46.6 23 40.192 23c-4.348 0-8.216 2.358-10.227 6.051a11.6 11.6 0 0 0-4.256-.806c-5.648 0-10.371 4.04-11.431 9.38a11.759 11.759 0 0 0-1.804-.142c-5.539 0-10.184 3.886-11.362 9.073h2.066c1.13-4.08 4.858-7.077 9.296-7.077 1.271 0 2.482.252 3.593.7-.003-.095-.014-.185-.014-.283 0-5.332 4.323-9.654 9.656-9.654 1.94 0 3.742.577 5.256 1.563 1.215-3.941 4.886-6.808 9.227-6.808 5.333 0 9.655 4.323 9.655 9.657 0 .384-.028.76-.071 1.13 3.42 1.485 5.815 4.89 5.815 8.856a9.64 9.64 0 0 1-.195 1.916h.029l-.68.746s.982-.754 2.68-.746c.103-.624.163-1.262.163-1.916a11.65 11.65 0 0 0-5.742-10.04" fill="#FFF"/></g></g></svg>