<svg xmlns="http://www.w3.org/2000/svg" viewBox="0 0 90 90"><defs><linearGradient x1="27.667%" y1="2.166%" x2="90.667%" y2="88.167%" id="a"><stop stop-color="#03BCFF" offset="0%"/><stop stop-color="#024FFF" offset="51%"/><stop stop-color="#F900FF" offset="100%"/></linearGradient></defs><path fill="#FFF" d="M0 0h90v90H0z"/><path d="M30.001 49.326A19.352 19.352 0 0 1 10.676 30V14a7.35 7.35 0 0 0-7.351-7.324H0V0h3.325c3.707 0 7.264 1.474 9.9 4.101a14.034 14.034 0 0 1 4.1 9.897V30a12.676 12.676 0 0 0 25.35 0l.001-16A14.001 14.001 0 0 1 56.675 0H60v6.676h-3.325A7.351 7.351 0 0 0 49.326 14v16a19.352 19.352 0 0 1-19.325 19.326ZM60 30a29.997 29.997 0 0 1-29.999 30 30.002 30.002 0 0 1-21.215-8.786A30 30 0 0 1 0 30.002v-19.33h2.325a4.38 4.38 0 0 1 4.376 4.327v14.999a23.324 23.324 0 0 0 39.82 16.493A23.326 23.326 0 0 0 53.35 30V14.999a4.375 4.375 0 0 1 4.375-4.376H60V30Z" transform="translate(15 15)" fill="url(#a)"/></svg>