<svg viewBox="0 0 90 90" xmlns="http://www.w3.org/2000/svg"><g fill="#EE3124"><path d="M27.683 15.527c-.405 0-1.33.058-1.91.058-.347 0-.636-.058-1.099-.232-.173-.058-.289.058-.347.232l-.058 1.277c0 .29.232.523.521.58.984.233 2.199.117 3.76-1.567.348-.29-.462-.348-.867-.348"/><path d="M89.882 23.422c.057-.058.057-.116 0-.116-2.72-2.845-14.754-1.451-19.383-.87-5.786.638-10.53 1.276-11.977 1.392-1.562.058-4.745.29-6.596-.58-2.083-1.045-2.72-1.8-2.835-2.845-.463-3.076 2.199-3.134 3.009-3.134s2.025 0 1.967 1.16c-.058.813-.752 1.162-1.447 1.51-.058 0-.058.116 0 .116.405.348 1.91 1.51 3.588 1.393 1.967-.116 3.298-.522 4.165-3.773 0-.058.058-.058.116-.058.579.232 4.397 1.683 6.654 2.148 1.794.406 4.513.464 6.364-.639 1.852-1.103 4.571-2.728 7.58-2.554 2.662.116 5.728.174 7.522 1.22.058.057.115 0 .115-.117-.347-1.22-2.777-7.953-10.877-6.095-2.025.58-2.314 1.044-3.935 1.335-1.909.348-4.802.522-8.736-.407-.058 0-.116-.116 0-.174 1.041-.58 6.422-3.367 12.382-2.322.057 0 .115-.058.057-.116-.578-.755-3.24-4.064-7.695-3.89-5.15.175-6.306 1.336-9.489 3.02-2.95 1.567-4.223 2.612-9.257 2.321-3.125-.174-6.48 2.322-7.175 4.296-2.95 8.592 3.414 12.017 9.026 12.946 5.208.812 23.26-2.903 27.541-.93 1.967.872 3.125 2.73 3.009 4.297-.058.754-.868 2.031-3.356 2.554-2.546.58-7.984.813-12.729-.348-.116-.058-4.397-2.497-7.753-2.67-2.488-.175-8.853 1.218-10.82 1.276-1.388 0-4.108.175-5.554.29.058-6.501-3.472-11.842-3.645-12.132-.232-.348-.695-.465-1.042-.232 0 0-.463.232-1.33.638.925-1.857.694-4.238-.174-5.166-.058-.058-.058-.116 0-.175.231-.232.752-1.16.81-2.031.058-1.51-.232-3.425-3.819-5.4-.231-.115-.52 0-.636.233-.29.755-.926 2.09-1.562 2.148-1.331.116-5.381.987-6.423 1.567-1.041.523-2.256 1.394-2.893 2.38-.636.987-1.388 1.452-2.43 1.684-1.041.232-1.446 0-1.794.348-.289.349-.52.639-.405 1.277.058.465.926 2.264 1.39 3.135.346.639.867 1.335 1.446 1.684h-1.39c-.404 0-1.214-.058-1.214-.058-.174 0-.347.058-.405.232-.058.174-.058.348.058.464.405.465.868.987 2.488.987h1.446c-.173.232-.405.465-.52.639-.116.174-1.042 1.103-.406 2.554.521 1.161 1.273 1.567 1.273 1.567.926-.638 2.951-1.567 3.761-.928-.173.174-.29.348-.463.522-1.678 1.858-3.934 4.18-5.15 7.082-1.561-.58-5.322-2.032-7.058-3.773-.52-.523-1.041-1.974-.694-3.077.289-.929.52-1.915-.174-3.425-.636-1.393-2.488-2.786-2.488-2.786.232-1.684.579-3.948.694-4.586 1.563.174 3.067-.233 3.588-.987.52-.755.636-2.264.926-2.613.23-.348.81-.232 1.099-.232.694-.058 1.562-.058 2.43-.87.926-.871 1.62-2.09 2.43-2.206 1.157-.175 1.794-.523 2.372-.987.695-.58 2.141-2.38 4.803-2.322.752 0 1.157-.755-.232-1.045-1.851-.407-3.934-.058-5.034.406-1.504.58-2.14.058-2.777-.116-.983-.29-1.967-.232-3.414.348-1.215.465-3.355.755-4.628.349-1.794-.581-3.298-.871-5.613-.29-2.025.464-3.413 1.625-4.108 3.308-.636 1.568-.115 2.787 0 3.077.116.29.405.755.521.87-.058 1.336-.231 5.748-.231 6.27-.29.407-.405.93-.405 1.161-.058.233-.058.407-.058.639H2.05c-.463.058-.983.232-1.33.638l-.116.175-.116.174c-.058.116-.173.232-.231.348l-.174.348c-.058.116-.058.29-.116.465-.057.29-.057.638 0 .929.058.29.174.58.348.812.231.407.52.639.81.871-.116.116-.232.29-.348.406-.231.349-.347.697-.405 1.22-.057.522.116.986.348 1.335.231.348.462.638.752.812.231.175.578.407.81.58-.637 18.171-.695 18.868 1.157 19.448h.231c2.199 0 2.778-4.876 4.05-13.352.174-1.219.29-2.322.463-3.25 1.563 2.902 5.092 8.94 10.241 13.642.29.232.695.116.81-.29.58-2.38.984-3.194 1.216-3.6.347.755.925 1.742 1.388 2.438a17.087 17.087 0 0 0 2.604 2.903c-1.562 1.51-5.439 4.934-9.373 6.153-.058 0-.058 0-.116-.058-.116-.348-.81-1.857-1.678-2.67-.984-.87-1.794-1.858-5.439-1.045 0 0-.983.232-2.083.697-.463.174-.347.87.116.87.463 0 .868.058 1.041.116.058 0 .058.058.058.058-.058.233-.115.93.29 1.568v.116c-.405.29-2.951 2.322-2.488 6.502.058.29.405.348.52.058.174-.58.405-1.22.405-1.161.232.348 1.158 1.915 2.604 2.148.058 0 .058.058.058.058-.058.464-.29 2.844 1.504 5.108.232.29.637.116.637-.29 0-.348-.058-.639 0-.929 0-.058.058-.116.115-.058.29.232.984.465 1.91-.116.868-.522 1.91-1.625 2.72-3.019 0-.058.115-.058.115 0 .694.871 1.736.93 2.95.93 2.026 0 3.704-1.104 3.704-3.078v-.116c4.57.465 7.348-.638 10.82-2.844 3.24-2.032 4.86-3.483 4.628-5.34-.116-.814-.463-1.742-1.041-2.265 5.554-.116 8.447-3.89 9.489-5.573.057-.058.173 0 .115.058-.347 1.568-.405 4.528.463 6.096 1.273 2.322 4.282 5.863 4.745 7.314.463 1.451.405 5.167-1.215 7.198-1.62 2.032-2.025 2.38-3.24 3.077h-.058c-.29-.29-2.488-2.148-4.63-2.496-2.198-.348-9.083-1.916-9.43 5.631 0 .348.405.522.636.29.463-.58 1.1-1.277 1.505-1.451h.057c.174.058.984.522 1.331.58.058 0 .058.058.058.117-1.157 1.509-2.256 3.947-.058 6.617.174.233.579.058.521-.232a5.608 5.608 0 0 1 0-1.393c0-.058.116-.116.116-.058.81 1.161 2.603 1.567 4.34.813.057 0 .115 0 .115.058.058.464.52 2.438 3.471 4.644.29.232.695-.116.579-.465-.174-.58-.405-1.16-.347-1.509 0-.058.058-.058.058-.058 1.157 0 2.835-.58 3.587-2.206.636-1.451.926-2.844.984-3.077 0 0 0-.058.057-.058l2.604-1.683c.058 0 .116 0 .116.058.173.464.405 1.045.868 1.16.058 0 .058.059.058.117a14.62 14.62 0 0 1-.579 1.8c-.116.232.174.464.405.348 1.678-1.22 5.092-4.412 3.53-7.779 5.496-4.354 8.91-9.695 9.43-12.945.058-.465-.289-.871-.694-.871-3.53-.116-5.439-1.045-5.15-4.296 0-.058.059-.058.116-.058.868.232 8.795 2.38 14.118.813.347-.117.637.058.81.406.579 1.103 1.794 3.541 2.083 4.992.463 1.858.116 2.787.058 2.845-.29.406-.868.87-2.372 1.8-3.761 2.438-3.414 5.572.058 9.114.173.174.462 0 .405-.233-.174-.754-.463-1.741-.463-2.148 0-.058.058-.058.115-.058.521.117.926-.058 1.215-.174.058 0 .116 0 .116.058.058.465.463 2.322 3.125 3.541.115.058.289-.058.231-.232-.231-.522-.579-1.51-.579-1.915 0-.059.058-.117.058-.117.579 0 2.72 0 3.182-2.844 0-.058.058-.058.116-.058.52.174 3.356 1.103 5.092-1.161.058-.116 0-.29-.116-.232-.463.116-1.273.29-1.678.116-.058 0-.058-.058-.058-.116.29-.465 1.62-3.193-1.678-6.096 0 0-.057-.058 0-.116 2.141-6.618 1.678-13.932-.694-18.286-.173-.348-.578-.523-.926-.406-4.108 1.509-10.82 2.09-11.687-1.568 0-.058.058-.116.116-.116.578.058 3.066.523 5.728.232 1.62-.174 4.05-.406 6.48-1.16 2.43-.755 4.397-1.684 5.323-4.18.636-1.742.636-5.341-1.33-7.954v-.116l2.66-2.612ZM4.886 16.514c1.331.87 2.778 1.219 3.993 1.51 0 0-.463 3.773-.521 3.773a2.7 2.7 0 0 0-.579-.29c-.52-.29-1.041-.523-1.562-.755-.29-.116-.578-.233-.926-.29-.173-.059-.347-.059-.578-.059l.173-3.89Zm-.636-4.586c.463-2.032 2.43-2.496 3.182-2.729 1.678-.464 3.298-.29 4.687.233 1.388.522 3.53.116 4.629-.29 1.157-.465 2.025-.697 2.603-.465.81.29 1.447.348 1.91.348.867 0 2.14-.406 2.256-.406 0 0-1.389 1.161-2.314 1.161-1.389-.058-2.373 1.393-2.778 2.148-.405.755-1.157 1.219-2.835 1.277-2.198.058-2.314 1.8-2.545 2.554-.174.755-.926 1.161-2.488.987-2.546-.348-3.414-.813-4.513-1.335-1.447-.813-2.083-2.148-1.794-3.483M1.53 25.106c.348-1.045 1.62-.755 2.373-.581.173.058.29-.116.231-.29-.231-.465-.405-1.22-.115-1.684.52-.812 2.14.058 2.892.407.753.348 2.43 1.277 2.026 2.264-.174.58-.753.812-1.158.812-.173 0-.231.233-.115.349.405.464 1.041 1.277.752 2.031-.29.755-1.389.64-2.025.581-.174 0-.29.232-.174.348.405.465.926 1.22.694 1.916-.289 1.161-2.082.348-3.008-.058-.926-.406-2.083-1.22-1.91-2.032.116-.522.81-.87 1.273-1.045.174-.058.174-.29.058-.406-.694-.523-2.083-1.626-1.793-2.612m2.372 24.207c-.347 0-.29-2.496-.174-6.386.116-4.121.405-8.94.463-9.984.405.174.81.29 1.33.406.29.058.637.116.984.116h.174c-.231 1.103-.405 2.612-.636 4.354-.174 1.277-.521 3.309-.81 5.224-.463 3.193-1.1 6.27-1.331 6.27m19.036-3.193c-.637-.929-1.1-1.8-1.447-2.728-.116-.349-.231-.871-.405-1.335-.058-.175-.231-.233-.347-.117a7.258 7.258 0 0 0-1.33 1.8c0 .058-.059.058-.059.116-.405.755-.694 1.568-.983 2.496-.695-.58-1.505-1.393-2.257-2.264 0-.116.058-.232.058-.348.058-.232.058-.464.116-.697l.347-1.393c.058-.116 0-.232-.058-.29-.116-.116-.29-.116-.347 0-.347.348-.637.813-.926 1.219a1.27 1.27 0 0 1-.173.29c-.406-.522-.81-1.103-1.216-1.683 0-.116 0-.174.058-.29 0-.233.058-.407.116-.639a5.73 5.73 0 0 1 .347-1.335c0-.116 0-.174-.058-.29-.115-.117-.289-.117-.347 0a6.266 6.266 0 0 0-.926 1.16s-.057.059-.057.117c-2.257-3.31-4.166-6.734-4.745-7.721.058-.116.058-.174.116-.29.116-.465.116-.871-.058-1.278 0-.058-.058-.058-.058-.116.116 0 .232-.058.405-.058.347-.116.637-.348.868-.638.231-.29.347-.639.405-.93.058-.347.116-.754 0-1.102-.058-.348-.231-.58-.405-.813.347-.232.579-.522.752-.87.058-.117.116-.175.116-.29.058-.059.058-.175.116-.291.289.232.52.464.694.929.579 1.219-.116 3.135-.174 3.89-.115.754.232 1.799.753 2.495.52.697 4.918 3.251 9.083 4.993l.637.29c.926-3.25 3.471-5.98 5.323-7.953.405-.464.81-.929 1.157-1.335l.405-.523-.578-.58c-.753-.87-1.678-1.103-2.2-1.103-.925 0-2.66.697-2.66.697-.869-.93.462-2.09 1.04-2.67.753 0 1.737-.059 2.142-.117.173 0 .405 0 .636-.058.232 0 .405-.29.29-.522-.232-.407-.521-.987-.81-1.278-.406-.522-1.447-.058-3.125-.232-2.43-.29-3.356-4.354-3.356-4.354.637.116 1.852-.058 2.835-.754 1.042-.639 1.505-2.148 2.777-3.019 1.215-.87 4.05-1.103 6.134-1.277 1.967-.116 2.43-1.451 2.892-2.38.058-.116.174-.174.29-.116 2.488 1.625 2.083 3.715 1.446 4.644-.115.174-.347.464-.52.696-.058.058-.058.175.057.233.405.232.637.464.868 1.16.405 1.162.232 2.439-.173 3.193-.521 1.045-1.505 1.452-2.373 1.8-.115.058-.347.116-.578.232-.579.29-.463 1.22.173 1.22.348 0 .463.057.579 0 2.14.057 3.76-.697 4.745-1.22.636 1.22 2.025 3.948 2.661 7.257a7.335 7.335 0 0 0-.752-.639 11.654 11.654 0 0 0-1.852-1.045c-.636-.232-1.33-.464-1.967-.522a.476.476 0 0 0-.463.29c-.115.232 0 .464.232.58a9.208 9.208 0 0 1 1.678.871c.52.29 1.041.697 1.504 1.045a8.77 8.77 0 0 1 1.215 1.335c.174.233.347.523.52.755l.232.406v.058c0 1.684-.231 3.484-.926 5.283-.057.116-.057.174-.115.29l-.174-.522c-.29-.813-.694-1.626-1.215-2.322-.52-.697-1.157-1.335-1.91-1.8a7.178 7.178 0 0 0-2.314-.929c-.173-.058-.405.059-.463.29-.115.233 0 .465.232.581a8.05 8.05 0 0 1 1.91 1.161 6.476 6.476 0 0 1 1.446 1.626c.405.638.694 1.335.926 2.031.115.349.231.755.347 1.103.058.175.115.349.115.581a.44.44 0 0 0 .116.232c-.752 1.103-1.678 2.322-2.835 3.483 0-.174-.058-.29-.058-.464-.058-.232-.058-.465-.116-.697-.231-.929-.52-1.857-.983-2.728-.463-.87-1.042-1.626-1.794-2.264a6.57 6.57 0 0 0-2.372-1.393.466.466 0 0 0-.52.174c-.116.232-.059.464.173.58.694.465 1.388.93 1.91 1.568.52.58.983 1.277 1.33 2.031.347.755.579 1.568.752 2.38.058.233.058.407.116.64.058.231.058.405.058.638 0 .232.058.406.058.638 0 .058.057.174.057.232a40.674 40.674 0 0 1-2.95 2.38c-.058 0-.116-.057-.174-.116l-.52-.348-.521-.348c-.174-.116-.348-.232-.463-.407-.637-.522-1.215-1.102-1.678-1.741-.463-.639-.868-1.335-1.1-2.148-.231-.755-.347-1.625-.347-2.496 0-.232-.115-.407-.347-.407-.231-.058-.463.117-.52.349-.174.929-.174 1.915-.058 2.902.173.987.52 1.916 1.041 2.787.52.87 1.1 1.567 1.794 2.264.173.174.347.348.52.464.174.116.29.29.463.407-1.215.696-2.43 1.277-3.703 1.625l-.173-.174c-.463-.406-.926-.755-1.331-1.161-1.157-1.103-2.025-2.09-2.72-3.019m41.138 11.03c-.578 1.567-1.388 3.019-2.256 4.354a5.003 5.003 0 0 0-.81-1.045c-.29-.29-.637-.58-.926-.813-.347-.232-.636-.464-1.041-.638-.174-.058-.348-.058-.463.116-.116.174-.116.464.058.58.231.232.52.465.752.755.231.29.463.58.636.87.174.29.347.581.405.93.116.29.174.638.174.928-.52.639-1.1 1.277-1.62 1.916-.058-.058-.058-.174-.116-.232a7.394 7.394 0 0 0-.752-1.103c-.29-.348-.579-.58-.926-.87-.347-.233-.636-.465-1.041-.698-.174-.058-.347-.058-.463.117-.174.174-.116.464.058.58.231.232.52.523.694.813.231.29.405.58.579.87.173.29.289.64.347.93.058.29.115.638.115.928v.116c-.867.871-1.793 1.626-2.545 2.264 0 0-.058.058 0 .116 1.099 3.077-.753 5.922-1.736 3.135-.232-.638-.405-.522-.868-.174-.405.29-3.877 2.728-4.282 3.019l-.057.058c.405 2.322-1.852 4.354-3.356 4.238-1.273-.117-1.91-1.626-1.562-3.658.057-.29-.232-.464-.463-.29-1.331 1.103-3.761 2.554-5.323.29-.753-1.045.694-2.844 1.446-3.657.174-.174.058-.522-.174-.58-1.215-.175-3.587-.697-2.603-1.916.868-1.103 2.603-.929 3.819-.87 1.388.115 4.339.522 6.77 3.25 0 0 .057.058.115 0 .405-.232 2.661-1.626 3.645-2.787 1.1-1.277 2.777-2.264 2.893-8.3.058-2.845-2.488-5.167-3.992-7.431-1.505-2.206-2.373-4.122-1.273-7.78 0-.057.058-.057.058-.057.173 0 .983-.058 3.355-.058h.058c.29.348 3.067 3.54 6.885 5.108.058 0 .058.058.058.058-.115.697-.52 6.618 5.728 6.618m6.828-14.397c2.43 1.568 6.943 1.335 11.282.058.058 0 .058 0 .116.058.579 1.394 1.042 2.787 1.33 4.296a13.036 13.036 0 0 0-1.272-.638c-.463-.175-.926-.349-1.389-.407a5.81 5.81 0 0 0-1.446-.174c-.116 0-.232.058-.232.174-.057.116.058.29.174.348.405.117.868.29 1.273.465.405.174.81.406 1.157.638.347.233.752.523 1.042.813.347.29.636.639.983.871.058.87.116 1.742.058 2.612a1.21 1.21 0 0 1-.347-.232 9.4 9.4 0 0 0-1.331-.638c-.463-.175-.926-.349-1.389-.465a5.81 5.81 0 0 0-1.446-.174c-.116 0-.231.058-.231.174-.058.116.057.29.173.348.405.117.868.29 1.273.465.405.174.81.406 1.157.638.347.233.752.523 1.042.813.347.29.636.58.925.813-.231 1.916-.694 3.89-1.33 5.921a2.082 2.082 0 0 1-.232.523c2.72 1.45 3.356 5.224 1.273 5.63-.636.117-1.273-.058-1.678-.348-.173-.116-.347-.058-.405.174-.231 1.103-.983 3.193-2.488 3.193-1.215 0-1.62-.987-1.62-1.915a.286.286 0 0 0-.52-.175c-.753.93-1.505 1.277-2.141.871-.81-.58-.984-1.451-.637-2.09.926-1.915 3.587-2.612 4.687-4.063 1.33-2.38-.868-7.199-2.488-10.624-.174-.348-.579-.522-.926-.406-1.504.464-5.497 1.335-10.357.406-6.538-1.277-10.125-3.715-12.266-6.502 0 0 0-.058-.058-.058-.115-.174-.289-.348-.405-.58-.578-.813-.925-1.451-1.273-1.974-.058-.116-.173-.174-.231-.174-.637-.116-.29 1.684-.174 2.148 0 .058 0 .058-.058.116-1.33.29-2.835.058-4.57.116 0 0-.058 0-.058.058-2.488 3.135-3.298 5.34-10.357 6.618-.984.174-.926.813-.463 1.161.405.29.984 1.22 1.157 2.438.058.523-.347 1.22-2.546 2.729-.057-.116-.115-.233-.173-.407-.232-.406-.463-.812-.752-1.103-.29-.348-.579-.638-.926-.87-.347-.233-.694-.465-1.1-.639a.449.449 0 0 0-.462.116c-.116.174-.116.464.058.58h.057c.232.175.521.465.753.697.231.29.405.58.578.871.174.29.29.58.347.929.058.232.058.522.058.754-.925.581-1.793 1.103-2.603 1.452-.058-.232-.116-.407-.174-.639-.174-.406-.405-.813-.636-1.219a4.451 4.451 0 0 0-.868-.929c-.347-.29-.637-.522-1.042-.696-.173-.058-.347-.058-.463.116-.115.174-.115.464.058.58l.058.058c.231.233.463.523.694.755.174.29.348.58.521.929.116.29.232.638.29.929.057.29.057.58 0 .812-3.24 1.161-5.266.639-6.307 0-.347-.29-.579-.406-.752-.522-.29-.174-.579-.058-.753.174-.173.232-.173.58 0 .755.116.174.29.464.463.696.174.29.29.639.29.987 0 1.103-.984 1.452-2.2 1.452-1.214 0-2.14-.349-2.14-1.452v-.58c0-.29-.231-.58-.52-.523a1.061 1.061 0 0 0-.58.407l-.346.638c-.058.116-1.968 4.47-3.935 3.483-1.33-.638-.694-2.206 0-3.367.174-.348-.115-.696-.463-.58-.636.232-1.33.348-1.909 0-1.215-.697-1.62-2.032-1.215-2.903.405-.754.926-1.625 1.794-2.322a.457.457 0 0 0 0-.638c-.463-.465-.637-.813-.405-1.336.289-.638.925-.87 2.14-.696 1.389.232 2.141 1.8 2.604 3.54.174.64.752.988 1.33.872 4.745-1.161 8.275-4.586 11.052-6.908a.452.452 0 0 1 .231.232l.753.638.347-.116c7.058-1.974 13.597-9.056 15.217-13.236.52-1.393.868-2.786.983-4.18 9.836-.29 9.663-.58 14.06-1.334 3.414-.639 7.985 1.393 10.183 3.657 1.389 1.741 1.331 4.876 3.067 6.037m16.548-11.03c-.174 2.555-1.39 4.238-4.108 5.05-2.72.756-7.696 1.975-12.903 1.104-.347-.058-.81-1.22-.926-1.626 0-.058 0-.116.058-.116 4.744.813 11.745.058 13.886-1.335 2.835-1.8 1.91-6.85-1.851-8.301-5.555-2.148-17.358.696-25.4.813-2.951.058-6.134 0-9.605-3.077-2.257-2.206-2.43-5.863-.868-8.418 1.504-2.264 4.282-3.134 6.827-2.902 6.596.522 8.506-3.832 14.118-5.05 5.439-1.162 7.927.464 8.621 1.044.058.058 0 .174-.058.174-.983-.174-4.34-.58-8.62 1.22-1.563.638-3.01 1.799-4.225 2.728-.057.058-.057.116.058.174 2.835.697 3.183 1.335 6.307 1.567 7.406.58 9.2-2.612 13.018-1.8 2.893.581 4.282 2.38 4.63 2.903.057.058 0 .116-.059.116-11.456-2.728-10.299 2.264-16.432 2.729-3.703.29-9.084-2.903-10.646-2.67-.058 0-.058.058-.058.058-.058.58-.578 4.992-4.108 4.005-.058 0-.058-.116-.058-.174 1.331-1.277.81-3.25-1.099-3.831-1.215-.349-2.777-.29-4.108.232-2.14.87-2.95 3.831-1.678 5.747 1.91 2.844 4.918 3.483 9.142 3.193 4.397-.29 7.29-.639 13.481-1.452 1.794-.232 5.323-.638 8.679-.754a6.626 6.626 0 0 0-.579 1.103c-.058.058-.058.174 0 .29.058.116.232.174.348.116l1.041-.697.52-.348c.174-.116.348-.232.464-.406v-.058c.694 0 1.33 0 1.967.058l-.058.116c-.29.406-.52.87-.752 1.335-.058.116-.058.232 0 .29.115.116.231.116.347.058.347-.29.752-.58 1.1-.812l.578-.407c.173-.116.347-.232.52-.406 1.1.116 1.968.348 2.373.755l-2.43 2.031c-.29-.058 2.777 2.09 2.546 5.631"/></g></svg>