<svg viewBox="0 0 90 90" xmlns="http://www.w3.org/2000/svg"><g fill="none" fill-rule="evenodd"><path fill="#FFF" fill-rule="nonzero" d="M0 0h90v90H0z"/><path d="M50.083 74.566c-.31-.124-.527-.279-.713-.558-.341-.527-1.519-2.231-1.705-2.541-.03-.031-.03-.124.031-.155l.31-.093c.372-.062.713-.403.837-.744.155-.434.124-.96 0-1.394-.062-.31-.31-.59-.589-.775a.873.873 0 0 0-.34-.124c-.156-.031-.28-.062-.497-.062h-2.82c-.062 0-.093.03-.093.093 0 .062.093.062.186.093.155.062.248.279.248.527v5.144c.031.341-.217.527-.403.527-.093 0-.124.155.031.155a9.695 9.695 0 0 1 1.643.031c.03 0 .124-.03.124-.093 0-.03-.031-.062-.093-.093-.28-.093-.403-.124-.434-.496V71.56c0-.155.496-.093.713-.062.186 0 .248.155.34.279.62.899.992 1.487 1.488 2.262.155.217.341.372.558.465.34.186.65.217 1.023.248.03 0 .093-.03.093-.062.124-.03.155-.093.062-.124Zm-3.378-3.564c-.217 0-.496-.03-.713-.062-.062 0-.062-.062-.062-.155 0-1.023.03-1.921.03-2.076 0-.155.28-.124.435-.124.495 0 1.022-.062 1.332.155.186.124.31.34.372.496.093.247.062.588.062.836-.03.28-.217.558-.465.744-.155.031-.589.155-.991.186Zm6.725-8.306a.856.856 0 0 1-.496-.372c-.62-1.24-2.015-4.834-2.015-4.834-.248-.558-.526-1.302-.62-1.488-.03-.124-.123-.03-.154.031-.651 1.488-2.573 5.579-2.82 6.043-.156.31-.373.465-.465.527-.124.093-.28.062-.28.155 0 .031.032.093.094.093.216 0 .991-.093 1.518-.03.062 0 .093-.063.093-.094 0-.062-.124-.093-.186-.155-.124-.124-.155-.279-.124-.403.217-.62.496-1.146.713-1.704.031-.062.093-.124.155-.124h2.324c.062 0 .062.03.062.062l.527 1.333c.062.247.186.495.124.805-.062.186-.31.124-.31.248 0 .031.031.062.093.062.62-.03 1.178-.062 1.767 0 .062 0 .093-.03.093-.093.03-.03-.031-.062-.093-.062Zm-2.759-2.882H49.06c-.031 0-.031-.062-.031-.062.34-.744.682-1.457.992-2.2.03-.031.062-.062.093-.031.124.31.774 1.983.836 2.107.062.186 0 .186-.279.186Zm15.279 2.882c-.217-.062-.402-.186-.495-.372-.62-1.24-2.015-4.834-2.015-4.834-.248-.558-.527-1.302-.62-1.488-.03-.124-.124-.03-.155.031-.65 1.488-2.572 5.579-2.82 6.043-.186.31-.372.465-.465.527-.124.093-.279.062-.279.155 0 .031.031.093.093.093.217 0 .992-.093 1.519-.03.062 0 .093-.063.093-.094 0-.062-.124-.093-.186-.155-.155-.124-.155-.279-.124-.403.217-.62.465-1.146.713-1.704.03-.062.093-.124.155-.124h2.355c.062 0 .062.03.062.062l.527 1.333c.062.247.186.495.124.805-.062.186-.31.124-.31.248 0 .031.03.062.093.062.62-.03 1.178-.062 1.766 0 .062 0 .093-.03.093-.093 0-.03-.062-.062-.124-.062Zm-2.789-2.882H61.55c-.031 0-.031-.062-.031-.062.34-.744.681-1.457.991-2.2.031-.031.062-.062.093-.031.124.31.775 1.983.837 2.107.093.186 0 .186-.279.186ZM45.34 56.25c.156.031.125.124.125.248v.899c0 .062.03.186-.062.186-.155 0-.155-.372-.279-.496-.155-.186-.589-.496-1.085-.496-.62 0-1.053.372-1.053.868 0 .62.124.836.93 1.208.495.248 1.673.558 2.076 1.209.217.31.248.65.248 1.054-.031.496-.186.96-.496 1.332-.682.868-2.418.744-3.285.62-.124 0-.28.062-.28-.093.032-.434 0-.837 0-1.27 0-.124.063-.155.125-.124.062.062.062.155.093.217.31.588.774.805 1.704.805.59 0 1.178-.31 1.395-.93.124-.371.062-.805-.217-1.053-.496-.62-1.27-.837-1.953-1.085-.402-.155-1.084-.589-1.084-1.704 0-.465.279-.961.62-1.178.681-.465 1.797-.372 2.479-.217Zm10.662.031c.062 0 .062.093 0 .155-.155.093-.31.093-.372.279-.124.403-.062.837-.093 1.24v2.479c.031.96-.124 1.395.434 1.828.217.155 1.302.124 1.58.093.59-.062.806-.372.93-.62.031-.061.062-.123.124-.123.093 0 .093.062.062.155-.03.31-.093.712-.124.96-.03.062-.093.155-.155.155-1.24.062-3.13-.03-4.121.031-.062 0-.124 0-.124-.093s.062-.124.124-.155c.154-.062.247-.062.34-.248.093-.155.124-.34.124-.557.031-2.046.031-4.432-.062-5.083-.03-.186-.279-.248-.433-.341-.062-.031-.031-.155.062-.155.278 0 1.301.031 1.704 0ZM26.777 73.202v-4.06c0-.185-.031-.247-.062-.371a.794.794 0 0 0-.403-.496c-.093-.031-.062-.155 0-.155.496.03.93 0 1.395 0 .062 0 .093.03.093.062 0 .124-.124.124-.217.217a.757.757 0 0 0-.248.465c-.062.867 0 4.772 0 4.772 0 .372 0 .682.03 1.085 0 .124-.092.155-.123.124-.248-.248-.527-.496-.837-.837-1.085-.991-3.44-3.347-4.525-4.339-.03-.03-.062 0-.062.031 0 0-.03 3.812.093 4.432.031.155.248.372.403.434.031 0 .062.031.062.062s-.031.062-.093.062c-.527-.062-1.054-.093-1.58 0-.063 0-.063-.03-.063-.062 0-.155.341-.093.496-.434.124-.279.093-5.733.093-5.733v-.62c0-.062.062-.062.093-.031-.03-.031 4.959 4.959 5.455 5.392Zm37.593-5.113c.03 0 .062.03.062.062v1.085c0 .216-.155.185-.217.03-.062-.185-.124-.34-.186-.402a1.007 1.007 0 0 0-.682-.372h-1.24c-.155 0-.217.062-.217.217-.03 1.952-.092 4.896.031 5.3.124.402.341.433.496.495.093.031.124.155-.03.155h-1.86c-.155 0-.124-.155-.031-.155.186-.062.31-.093.403-.248.093-.124.124-.248.124-.465 0-.31.03-3.657.03-4.772 0-.372-.061-.465-.123-.496-.217-.062-1.24-.093-1.705.062-.279.093-.434.372-.434.65 0 .063-.03.094-.093.094-.03 0-.062 0-.062-.093V68.15c0-.062.062-.093.186-.093l5.548.03Zm-21.601.124v.744a.067.067 0 0 1-.062.062c-.093 0-.186-.28-.341-.372-.496-.28-1.085-.186-1.705-.186 0 0-.34 0-.372.093 0 .03-.03 1.518-.03 2.262 0 .031.03.062.061.062h1.984c.155 0 .217-.186.217-.217.03-.093.155-.093.155 0-.031.372-.031.744-.031 1.085 0 .03-.062.03-.093-.031-.155-.248-.341-.372-.651-.372-.558 0-1.054-.031-1.612.031-.03 0-.03.031-.03.093 0 .682-.032 1.24 0 1.952 0 .248.061.465.247.62.372.248.899.186 1.333.155.34 0 .744.031.96-.279.125-.186.063-.279.218-.465.03-.03.093-.03.093.031-.031.465-.031.59-.031 1.116 0 .062-.062.062-.062.062h-3.998c-.062 0-.093-.124 0-.155.217-.062.464-.093.464-.527v-2.014c.031-1.054.093-2.17-.03-3.254-.032-.186-.093-.372-.28-.434-.061-.031-.185 0-.185-.093s.03-.124.155-.124h3.44c.093 0 .186.03.186.155Zm-4.804-.124c.093 0 .124.093.062.124-.124.093-.372.124-.434.34-.837 2.108-1.736 4.123-2.603 6.23 0 .031-.062.062-.093 0 0 0-1.674-3.657-2.945-6.23-.092-.216-.34-.185-.495-.278-.031-.031-.031-.062-.031-.093 0 0 0-.062.093-.062.402 0 1.208 0 1.673-.031.031 0 .093.03.093.093-.03.155-.372.186-.217.496.372.898.992 2.386 2.015 4.4.03.062.093-.123.124-.185.557-1.271 1.053-2.604 1.58-3.874.062-.124.186-.558-.093-.713-.062-.031-.186-.062-.186-.124 0-.031 0-.093.062-.093h1.395Zm-7.221 0c.093 0 .124.155 0 .186-.31.03-.434.186-.434.744-.031.681-.031 4.555-.031 4.555 0 .31.093.651.155.713.155.217.403.186.403.28 0 .03 0 .092-.062.092-.589-.062-1.178.031-1.736.031-.062 0-.062-.062-.062-.093 0-.155.217-.062.31-.155a.572.572 0 0 0 .155-.372c.031-2.572.062-3.502.031-5.33 0-.372-.465-.434-.589-.496-.03-.031-.03-.155.062-.155h1.798ZM29.66 56.25c.061 0 .092.031.092.062s-.03.062-.093.093c-.372.124-.465.527-.496.868v3.285c-.03.589-.124 1.116-.496 1.55-.279.34-.712.65-1.456.774-.496.093-.992.124-1.488.031-.713-.124-.96-.248-1.425-.713-.403-.402-.496-.867-.527-1.58v-3.626c-.031-.341-.062-.527-.403-.651-.031 0-.031-.062-.031-.093.03-.062.186-.031.279-.031h1.487c.031 0 .062.031.062.062 0 .062-.124.062-.186.093-.434.217-.31.65-.34 1.085v2.262c0 .868-.125 2.077.867 2.48.341.154.744.123 1.054.123 1.426 0 1.89-.898 1.921-1.487.031-.992.031-3.626-.03-3.843-.063-.341-.372-.527-.558-.651-.031-.062 0-.124.093-.124.34.062 1.394.062 1.673.031Zm4.462.031c-.992-.124-2.077 0-3.1-.031-.092 0-.185 0-.185.062 0 .124.155.093.248.124.155.062.372.279.372.744 0 .372.03 3.533 0 4.153 0 .403.062 1.208-.434 1.363-.062.031-.155.062-.155.093s0 .062.062.062c.403 0 1.146-.062 1.797 0 .062 0 .062-.03.062-.093 0-.062-.155-.093-.248-.124-.248-.124-.248-.496-.248-.774 0-.775-.03-1.395-.03-2.046 0-.124.061-.155.123-.155 2.542.217 2.883-.992 2.883-1.89 0-.682-.31-1.395-1.147-1.488Zm-.527 2.944c-.217 0-.837.031-1.147 0-.093 0-.124-.124-.124-.186-.03-.775-.062-1.611 0-2.262 0-.124.155-.093.217-.093.496-.031.9-.031 1.302.03a.701.701 0 0 1 .465.31c.155.28.155.59.186.9.062.743-.434 1.27-.899 1.301Zm6.167-2.944c-.991-.124-2.076 0-3.099-.031-.093 0-.186 0-.186.062 0 .124.155.093.248.124.155.062.372.279.372.744 0 .372.031 3.533 0 4.153 0 .403.062 1.208-.434 1.363-.062.031-.155.062-.155.093s0 .062.062.062c.403 0 1.147-.062 1.798 0 .062 0 .062-.03.062-.093 0-.062-.155-.093-.248-.124-.248-.124-.248-.496-.248-.774 0-.775-.031-1.395-.031-2.046 0-.124.062-.155.124-.155 2.541.217 2.882-.992 2.882-1.89-.03-.682-.31-1.395-1.147-1.488Zm-.526 2.944c-.217 0-.837.031-1.147 0-.093 0-.124-.124-.124-.186-.031-.775-.062-1.611 0-2.262 0-.124.155-.093.217-.093.496-.031.899-.031 1.301.03a.701.701 0 0 1 .465.31c.155.28.155.59.186.9.062.743-.465 1.27-.898 1.301Zm-19.37 8.925c.062 0 .093.032.093.063 0 .03-.031.062-.093.062-.372.124-.465.527-.496.868v3.285c-.031.589-.124 1.115-.496 1.55-.279.34-.713.65-1.457.774-.496.093-.991.124-1.487.031-.713-.124-.961-.248-1.426-.713-.403-.403-.496-.868-.527-1.58v-3.626c-.03-.341-.062-.527-.403-.651-.03 0-.03-.062-.03-.093.03-.062.185-.031.278-.031h1.488c.03 0 .062.03.062.062 0 .062-.124.062-.186.093-.434.217-.31.65-.341 1.085v2.262c0 .868-.124 2.076.868 2.48.34.154.744.123 1.054.123 1.425 0 1.89-.899 1.921-1.487.031-.992.031-3.626-.031-3.843-.062-.341-.372-.527-.558-.651-.03-.062 0-.124.093-.124.341.062 1.426.093 1.674.062Zm34.029-.092c.155.03.124.124.124.248v.899c0 .062 0 .185-.062.185-.155 0-.155-.371-.28-.495-.154-.186-.588-.496-1.084-.496-.62 0-1.054.372-1.054.868 0 .62.124.805.93 1.208.496.248 1.674.558 2.076 1.209.217.31.248.65.248 1.054-.03.495-.186.96-.495 1.332-.682.868-2.418.744-3.286.62-.124 0-.279.062-.279-.093.031-.434 0-.837 0-1.27 0-.125.062-.156.124-.125.062.062.062.155.093.217.31.59.775.806 1.705.806.589 0 1.178-.31 1.395-.93.124-.371.062-.805-.217-1.053-.496-.62-1.271-.837-1.953-1.085-.403-.155-1.085-.589-1.085-1.705 0-.464.28-.96.62-1.177.651-.465 1.767-.372 2.48-.217Zm3.625 0c.063 0 .125.155 0 .186-.31.03-.433.186-.433.744v4.555c0 .31.093.651.155.713.155.217.403.186.403.28 0 .03 0 .092-.062.092-.59-.062-1.178.031-1.736.031-.062 0-.062-.062-.062-.093 0-.155.217-.062.31-.155a.572.572 0 0 0 .155-.372c.031-2.572.062-3.502.031-5.33 0-.372-.465-.434-.589-.496-.03-.031-.03-.155.062-.155h1.767Zm11.87.155v.744a.067.067 0 0 1-.061.062c-.093 0-.186-.28-.372-.372-.496-.28-1.085-.186-1.705-.186 0 0-.34 0-.372.093 0 .03-.03 1.518-.03 2.262 0 .031.03.062.061.031h1.984c.155 0 .217-.186.217-.217.03-.093.155-.093.155 0-.031.372-.031.744-.031 1.085 0 .03-.062.03-.093-.031-.155-.248-.341-.372-.651-.372-.558 0-1.054-.031-1.612.031-.03 0-.03.031-.03.093 0 .682-.032 1.24-.032 1.952 0 .248.062.465.248.62.372.248.899.186 1.333.155.34 0 .744.031.96-.279.124-.186.062-.279.217-.465.031-.03.093-.03.093.031-.03.465-.03.59-.03 1.116 0 .062-.063.062-.063.062H65.58c-.062 0-.093-.124 0-.155.216-.062.464-.093.464-.527v-2.014c.031-1.054.093-2.17-.03-3.254-.032-.186-.094-.372-.28-.434-.062-.031-.185 0-.185-.093s.03-.124.154-.124h3.44c.156.03.248.062.248.186Zm6.943-.155c.03 0 .062.03.062.062v1.085c0 .216-.155.185-.217.03-.062-.185-.124-.34-.186-.402a1.007 1.007 0 0 0-.682-.372h-1.24c-.155 0-.217.062-.217.217-.03 1.952-.093 4.896.031 5.3.124.402.341.433.496.495.093.031.124.155-.062.155h-1.86c-.154 0-.123-.155-.03-.155.186-.062.31-.093.403-.248.093-.124.124-.248.124-.465 0-.31.03-3.657 0-4.772 0-.372-.062-.465-.124-.496-.217-.062-1.24-.093-1.705.062-.279.093-.434.372-.434.65 0 .063-.03.094-.093.094-.03 0-.062-.031-.062-.093V68.12c0-.062.062-.093.186-.093l5.61.03Z" fill="#000" fill-rule="nonzero"/><path d="M38.027 43.233a3.612 3.612 0 0 0-.868-.526c-.34-.031-.682 0-.868.279-.186.216-.155.557-.062.805.062.155-.34.248-.403.372-.186.217 0 .59.155.713.155.124.31.248.465.34.248.218.558.31.837.435.031 0 .124.03.155-.031.093-.124 0-.093-.093-.217-.124-.217.124-.558.217-.744.155-.34.248-.65.589-.837.155-.062.372.062.434-.124-.093-.217-.372-.248-.558-.465Zm-1.27 1.736c-.156.093-.31-.155-.435-.248 0-.093 0-.217.062-.31.062-.062.217-.217.31-.186.062.093.217.186.31.248 0 .155-.186.403-.248.496Zm.557-1.085c-.03.062-.124.248-.186.28-.124-.032-.248-.156-.372-.28-.217-.248.031-.465.062-.589.186-.124.589-.124.775 0 .093.217-.248.403-.279.59Zm5.765-11.094c-.155.061 0 .31-.28.31-.216.03-.495-.156-.62-.373.094-.124.373-.155.373-.496 0-.31-.093-.495-.465-.62-.248-.092-.558-.03-.837-.03-.093.03-.279-.031-.34.062-.032.093.092.093.154.155.062.371 0 1.022-.03 1.394 0 .124-.249.155-.125.28.093.123.341.03.465.061.062 0 .124.031.186 0 .124-.093 0-.217.03-.31 0-.093-.123-.403.28-.155.217.155.403.372.65.434.156.031.466.093.559-.093.092-.155.185-.31.123-.496-.03-.062-.062-.155-.123-.124Zm-1.116-.31c-.062.123-.217.154-.341.123-.124-.062 0-.403-.062-.496-.031-.062 0-.186.03-.247.125-.062.31-.062.373.092.03.155.03.434 0 .527Zm-.063-9.887c-.092-.093-.588.062-.681.093-.248.186-.124.496-.062.713l-.031.713a2.462 2.462 0 0 1-.186.681c.124.124.279 0 .434-.062.093-.062.217-.062.248-.186 0-.062-.093-.03-.124-.062a.237.237 0 0 1-.062-.154c0-.155.124-.248.248-.341.124-.031.558-.28.682-.186.062.062.093.124.093.186.03.124-.28.279-.031.34.248.062.589-.247.805-.34v-.031c-.216-.186-.154-.031-.34-.28.062.032-.744-.93-.992-1.084Zm.156 1.023c-.062.03-.496.248-.558.186-.062-.186-.124-.62 0-.806.217-.093.465.31.589.434 0 .062 0 .155-.031.186ZM39.7 24.917c-.093-.03-.186 0-.248.093-.03.093-.03.186-.03.28-.032.092-.093.216-.217.247h-.341c.093-.248.093-.62-.124-.806-.155-.155-.28-.279-.496-.217-.248 0-.496.093-.62.31-.186.186-.465.341-.65.527-.032.062 0 .124.061.155.186-.03.341.093.465.186.186.217.403.527.558.744.155.155-.062.34.124.496.03.03.124.03.155.03l.558-.557c.03-.093-.031-.217-.155-.186-.062 0-.155-.031-.186-.124.248-.155.62-.062.93-.186.185-.093.371-.248.402-.434.031-.217 0-.434-.186-.558Zm-1.394.806c-.186 0-.403-.465-.558-.527 0-.062.155-.217.217-.248.279-.186.496.186.527.403.03.124-.124.31-.186.372Zm5.237 20.237c-.062.249-.155.466-.34.652-.186.217-.434.31-.682.402-.372.093-.496-.154-.775.155-.031.062 0 .124.062.186.31.155.403.093.744.093.217.031.496.031.743.031.217-.093.465-.124.682-.217.217-.093.558-.372.806-.34l.682.34c.682.186.96.124 1.456.124.217-.03.341-.186.465-.372 0-.093.031-.185-.03-.247-.094-.093-.187 0-.31-.031-.372-.093-.775-.093-1.023-.465-.062-.093-.155-.186-.217-.28h-.465c.155.28.34.528.527.776.03.062.155.093.093.154-.124.031-.403-.185-.527-.247-.31-.155-.62-.62-1.147-.341-.124.062-.186.093-.31.186-.062.03-.34.279-.403.248l.248-.434c.031-.124.062-.248.124-.372h-.403Z" fill="#BD2B30"/><path d="M42.056 44.442c.03 0 .03 0 0 0 .372.062.775.031 1.115.124.155.155.434.155.527.403a.518.518 0 0 1 .031.372c-.062.217-.124.403-.186.62h.465c.062-.186.155-.372.155-.558.031-.186.093-.434-.03-.65a2.171 2.171 0 0 0-.249-.31h-1.828Zm3.285 0c-.124.248-.217.496-.217.682.031.31.124.558.279.806h.465c-.217-.31-.31-.713-.186-1.085.124-.217.372-.217.589-.217.279-.093.589-.155.898-.217h-1.828v.031Z" fill="#BD2B30"/><path d="M36.012 41.405c0 .031.031.031 0 0 .372.496.9.744 1.302 1.147.62.403 1.24.712 1.89 1.053.372.186.775.31 1.178.403.527.248 1.147.248 1.705.434h1.828c-.248-.248-.589-.496-.713-.62 0-.062.062-.062.124-.093.28 0 .992.434 1.21.217.061-.062.123-.217.216-.186.155.248.496.186.713.155.093 0 .31-.124.434-.155.03.031.03.062.03.093-.216.124-.402.372-.557.62H47.2c.496-.093.961-.217 1.395-.434.589-.155 1.147-.434 1.705-.682.495-.278.96-.557 1.425-.898.403-.28.744-.651 1.085-.992h-.62c-.465.465-1.054.744-1.58 1.085-.775.434-1.55.836-2.356 1.115-.465.248-1.023.31-1.518.496-.124.031-.28.031-.341-.093-.031-.062-.062-.124 0-.186.155-.124.403-.093.495-.34.031-.156-.123-.187-.247-.249-.217-.093-.465.062-.682.062-.28.093-.496.217-.806.124a1.704 1.704 0 0 1-.279-.217v-.03c.248.03.465-.032.713-.032.434.031.837-.123 1.27-.123a4.435 4.435 0 0 0 1.984-.558c.62-.28 1.24-.59 1.797-1.023h-.805c-.434.248-.868.527-1.333.744l-.96.34-.28.063-2.355.248c-.279.062-.558-.031-.868-.031-.403-.062-.806-.093-1.208-.186-1.333-.186-2.666-.465-3.781-1.178h-.806c.527.372 1.054.744 1.673.899.62.248 1.302.372 1.953.527.837.186 1.766.216 2.665.31l.031.03c-.279.093-.279.62-.65.434-.373-.124-.652-.279-1.023-.434-.186 0-.496-.093-.59.093-.03.124-.092.248-.061.372.03.062.093.093.155.062.062-.093.217-.03.31 0 .03.031.03.093.03.124-.278.186-.65.031-.991.031-.434-.124-.899-.186-1.302-.372-.279-.093-.527-.217-.806-.279-.588-.31-1.208-.588-1.766-.96a6.767 6.767 0 0 1-1.116-.806l-.744-.124Z" fill="#BD2B30"/><path d="M32.758 35.362c.155.526.341 1.053.527 1.58.248.403.341.899.589 1.302.682 1.085 1.333 2.138 2.138 3.161h.806a5.276 5.276 0 0 1-1.023-1.178c-.712-.867-1.24-1.797-1.673-2.758-.124-.34-.341-.65-.434-.992-.155-.372-.279-.744-.403-1.115h-.527Zm1.519 0 .186.65c.155.496.403.93.527 1.426.248.744.836 1.364 1.301 2.014.372.558.9.992 1.395 1.488.217.155.434.341.65.496h.807a4.038 4.038 0 0 1-.465-.31c-.62-.434-1.271-.96-1.736-1.55-.372-.402-.682-.836-.992-1.27-.31-.341-.433-.744-.65-1.116-.217-.589-.403-1.178-.465-1.797l-.558-.031Zm2.727 0c.186.34.372.65.558.991.31.558.837 1.023 1.24 1.55.31.31.65.589.96.868.93.743 2.015 1.084 3.1 1.456.588.186 1.208.248 1.86.28.588 0 1.146-.094 1.704-.187.217.031.403-.093.588-.155.465-.03.837-.34 1.271-.465.496-.217.93-.526 1.426-.743.558-.403.991-1.023 1.487-1.519.217-.434.651-.775.837-1.24.124-.279.31-.558.434-.836h-.496c-.124.248-.31.464-.465.681-.217.031-.34-.186-.496-.31-.124-.123-.217-.247-.34-.402h-.651c.248.248.496.495.774.743.155.217.403.465.217.744-.217.465-.681.775-1.022 1.116-.062.062-.155.093-.248.062-.31-.527-.558-1.085-.837-1.643-.155-.217-.217-.496-.341-.743a2.726 2.726 0 0 1-.186-.31h-.496c.062.155.155.31.217.433.248.403.372.837.589 1.271.248.403.465.806.744 1.178.03.062.03.093 0 .155-.28.279-.651.403-.992.558-.279.093-.558.217-.868.186-.093-.031-.155-.093-.155-.186-.186-.961-.186-1.984-.372-2.945-.03-.217-.03-.464-.062-.681h-1.146l.124.093c.248.217.589.402.589.774.124.403.186.992-.093 1.364-.155.434-.496.93-.93 1.116-.403.248-1.27.279-1.674 0-.62-.372-.898-1.767-.62-2.356.124-.31.496-.712.868-.93h-1.053a2.709 2.709 0 0 0-.868 1.922l-.093.713c-.217.248-.248.589-.496.837-.341.062-.589-.186-.837-.372-.186-.155-.155-.465-.062-.651.186-.465.558-.868.744-1.364.217-.34.34-.744.558-1.084h-.434c-.186.402-.372.836-.62 1.24-.186.247-.248.526-.403.774-.155.155-.155.465-.434.496-.434-.124-.805-.496-1.084-.837-.093-.403.186-.682.371-.992.186-.217.341-.433.496-.65h-.557c-.124.124-.248.278-.403.402-.186.093-.28.341-.496.248-.186-.186-.31-.402-.434-.65h-.992Zm17.634 0c0 .062-.03.093-.03.155-.125.371-.248.743-.403 1.084-.186.372-.28.775-.558 1.116-.31.434-.558.899-.93 1.27l-.465.527c-.434.28-.775.744-1.209 1.054-.248.186-.464.403-.743.558l-.465.279h.805c.341-.217.62-.496.961-.713.651-.775 1.55-1.394 2.077-2.262.558-.713.93-1.519 1.24-2.325.123-.248.216-.495.31-.743h-.59Zm1.364 0c-.062.124-.093.278-.155.402-.279.744-.589 1.488-1.023 2.17-.372.744-.898 1.456-1.363 2.138-.341.434-.775.744-1.147 1.116l-.186.186h.62c.248-.248.465-.496.713-.713.217-.31.465-.589.713-.899.371-.526.774-1.053 1.022-1.611.186-.341.372-.651.527-.992.341-.558.527-1.209.682-1.828l-.403.03Zm-13.42 3.099c.187.434.651.558 1.023.744.31.062.59.216.93.247.093.031.062.124.062.186-.093.248-.434.093-.65.124-.373-.124-.776-.155-1.116-.31-.31-.062-.62-.154-.868-.371-.062-.031-.031-.093 0-.155.062-.217.155-.434.279-.62a1.88 1.88 0 0 1 .093-.155l.248.31Zm4.308-.403c.031.434.124.837.155 1.27 0 .093-.093.186-.185.217-.248.124-.496.155-.775.186-.28 0-.59.124-.837 0a.282.282 0 0 1 .03-.371c.28-.248.683-.248.962-.558.279-.217.372-.527.558-.775 0-.093.092-.031.092.03Z" fill="#BD2B30"/><path d="M32.448 33.843c.062.527.186 1.023.31 1.519h.527c-.155-.496-.279-1.023-.403-1.519h-.434Zm1.488 0c0 .062.03.124 0 .186-.062.186.217.713.248.899l.124.403h.527c0-.062 0-.093-.031-.124-.062-.28-.155-.558-.186-.837.062-.28.372-.124.558-.155.186 0 .34-.093.526-.093.31.03.775-.124.9.248.092.34.247.65.402.96h.93a2.767 2.767 0 0 1-.186-.62c.03-.123.03-.31.186-.34.34-.155.868.062 1.24 0l.31.03c.123.032.247.032.34.125 0 .186-.186.31-.248.465-.124.124-.216.248-.34.372h.557c.186-.217.341-.465.558-.682.372-.341.93-.434 1.426-.28.062.032.062.094.062.156-.031.186-.186.34-.248.558a.928.928 0 0 1-.124.248h.434c.03-.031.062-.093.093-.124.186-.31.31-.651.65-.868a.868.868 0 0 1 1.023.248c.093.062.155-.062.248-.093.186-.062.341-.093.527 0 .062.093.155.155.28.124.216 0 .34-.155.557-.217.279-.031.65-.093.899.062.124.155.124.372.186.589 0 .062 0 .124-.031.186-.155.062-.124-.093-.372-.186 0 0-.403-.186-.558-.248-.279-.124-.65-.031-.96-.031-.435.124-.93.155-1.303.434a.428.428 0 0 1-.123.093h1.053a1 1 0 0 1 .558-.186 2.64 2.64 0 0 1 1.116.155l.062.03h1.146c0-.123-.03-.216-.03-.34a.697.697 0 0 1 .03-.434c.155-.155.403-.093.527.062.155.217.28.465.403.713h.496c-.124-.186-.217-.341-.248-.59 0-.092.093-.154.155-.185.279-.031.589-.031.899 0l.217.093.65.65h.651a4.23 4.23 0 0 0-.526-.526c-.093-.093-.217-.217-.217-.341l.093-.062c.588-.031 1.208-.186 1.797-.031l.217.093.062.093c.062.31 0 .558-.124.806h.496c.062-.124.124-.248.155-.372.124-.28.186-.558.372-.806.372-.124.806-.093 1.209-.124h.712c.093.093.031.248 0 .372-.062.31-.155.589-.248.899h.59c.123-.372.185-.744.34-1.116.062-.031.124-.217.124-.403H33.936v.062Zm22.438 0v.062a7.145 7.145 0 0 1-.34 1.457h.464c.03-.093.03-.155.062-.248.093-.403.155-.837.217-1.271h-.403Z" fill="#BD2B30"/><path d="M32.231 32.355c.031.496 0 .992.186 1.395v.093h.465c-.03-.062-.03-.124-.062-.217-.03-.124-.093-.279.031-.403.155-.093.31.28.465.124.093-.155.372-.34.434-.155a9 9 0 0 1 .155.62h21.756c.031-.155.031-.279.031-.34 0-.063 0-.156.062-.187.093-.062.217.093.341.093.124.031.248-.062.34-.03.063.092-.061.34-.092.464h.403c.03-.217.062-.434.124-.65.093-.28.093-.559.093-.869h-.558c.03 0 .03.031.062.031l.03.155a.297.297 0 0 1-.061.28c-.093.092-.217.154-.341.123-.124 0-.248-.155-.31-.248-.03-.062.062-.31.093-.372h-.713c.031.341.124.682.093 1.023-.03.093-.155.124-.248.155-.186.062-.403-.03-.589 0-.62.031-1.24.124-1.859.062-.279.031-.62 0-.899.062-.279.093-.62.031-.93.093-.278-.031-.557.031-.836 0-.434-.062-.961-.031-1.395 0-.744-.062-1.519 0-2.293-.031-.434-.062-.9.031-1.364 0-.682-.062-1.395.031-2.076 0-1.116-.031-2.263 0-3.41-.031-.495 0-.898-.155-1.394-.093-.775-.062-1.58-.03-2.294-.217-.31.031-.62 0-.93.031-.092 0-.092-.093-.123-.155-.062-.31-.186-.62-.248-.93h-.775a.337.337 0 0 1 .031.155l-.186.248c-.093.093-.279.062-.403.062-.093 0-.124-.093-.186-.155-.03-.03-.062-.155-.062-.279h-.558v.093Z" fill="#BD2B30"/><path d="M32.293 30.837c-.062.31-.062.65-.093.992.031.154.031.34.031.526h.558V32.2c.031-.03.093-.186.155-.186.124-.03.341 0 .434.031.093.031.186.186.248.31h.775c-.031-.217-.062-.465.03-.712a.354.354 0 0 1 .249-.217c.775 0 1.55-.031 2.324 0 .155-.062.341.03.496-.031.558-.093 1.116.03 1.705.03.526-.092.991.156 1.55.125.464-.155 1.053-.062 1.549-.062.279 0 .589-.093.836 0 .31.03.62.03.9-.031.557.03 1.146-.031 1.704-.062.155-.031.31.03.465 0 .465-.031.867 0 1.332-.062.744.062 1.519 0 2.232.062.217-.062.465 0 .713 0 1.053-.093 2.2-.093 3.254-.093.34-.062.712-.031 1.053-.062a.5.5 0 0 1 .28.093c.123.217.123.527.154.805v.186h.713c.155-.124.372-.093.527 0h.558c0-.093 0-.186.03-.279-.03-.402-.03-.836-.092-1.24h-.434c.062.528.124 1.116.124 1.116s-.186-.123-.279-.123c-.124 0-.403.185-.434.154 0-.278 0-.588-.062-.898a.584.584 0 0 1-.062-.248H54.67c-.03 0-.062.03-.093.03-.278.032-.557.032-.805.063-.28-.062-.558.03-.837 0l-.031-.031v-.062H52.5v.062c-.093.124-.248.093-.372.093-.093 0-.155-.062-.248-.093l-.372-.031c-.03 0-.062-.031-.093-.031h-.558a.942.942 0 0 1 .217.155c.031.062-.062.062-.093.093-.279-.031-.557-.031-.836-.062-.155-.062-.31-.155-.496-.155-.031 0-.062-.031-.062-.031h-.496c.062.062.155.093.217.124-.031.03-.093.03-.155.03-.217-.03-.465 0-.682-.061-.062-.031-.155-.062-.217-.093h-.868v.03a.524.524 0 0 1-.31.094c-.093 0-.216 0-.278-.062-.031-.031-.031-.062-.062-.062h-.558c-.031.062-.062.124-.155.124-.093-.031-.217-.031-.31-.124h-.403v.093c-.031.093-.124.062-.186.093-.093 0-.155-.093-.186-.186h-.34c0 .124-.032.217-.125.279-.093 0-.217.03-.248-.062-.062-.062-.062-.124-.062-.186h-.34a.394.394 0 0 1-.218.279.813.813 0 0 1-.465-.062.094.094 0 0 1 0-.124c.031-.031.031-.062.062-.093h-.433c-.031.03-.031.062-.062.093-.124.186-.372.062-.527.093-.062 0-.031-.093-.031-.124s.03-.062.03-.062h-.433c-.031.03-.062.093-.124.124-.279.155-.65.124-.96.093-.063-.031-.094-.093-.032-.155.031-.031.062-.031.093-.062h-.992c-.31.093-.681.093-.991 0h-2.294c-.062.03-.186 0-.248.03-.279.063-.588.032-.867 0-.124 0-.248 0-.372-.03h-1.054c-.062.279-.093.527-.155.775-.093.062-.186-.062-.279-.093-.093-.093-.186-.217-.34-.155-.094.03-.187.03-.249.124-.03 0-.062 0-.093-.062 0-.217.031-.434.062-.62h-.558v.03Z" fill="#BD2B30"/><path d="M32.572 29.318c-.03.186-.062.372-.062.558-.155.217-.124.496-.155.744-.03.062-.03.124-.062.186h.527c.062-.403.155-.806.217-1.178.031-.093.062-.217.093-.31h-.558Zm1.58 0a10.7 10.7 0 0 0-.154.96l-.093.559h1.054c-.124-.031-.28-.031-.403-.093-.093-.093-.155-.217-.124-.341 0-.403.062-.744.186-1.085h-.465Zm2.79 0c-.186.465-.279.992-.465 1.457 0 .03-.03.03-.062.062h2.294-.031c-.062-.031-.031-.093 0-.155.496-.403 1.115-.527 1.673-.806.341-.093.62-.34.961-.434a1.1 1.1 0 0 0 .279-.124h-.682a2.152 2.152 0 0 1-.403.155c-.496.186-1.023.403-1.487.651-.403.155-.744.465-1.21.403-.061-.031-.092-.093-.061-.155.403-.341.93-.434 1.395-.65.155-.063.526-.218.96-.404h-.991c-.403.124-.775.31-1.24.341-.062-.03-.155-.062-.155-.155 0-.062 0-.124.03-.186h-.805Zm5.3 0a2.726 2.726 0 0 1-.31.186c-.62.496-1.333.806-2.015 1.24-.062.03-.124.062-.217.093h.992c.558-.372 1.054-.899 1.612-1.302.093-.124.217-.155.279-.217h-.341Zm.744 0a2.91 2.91 0 0 0-.372.558c-.248.34-.558.65-.837.96h.434c.124-.216.34-.371.496-.557.124-.186.279-.341.403-.558a.282.282 0 0 0 .123-.248c0-.062-.03-.062-.062-.093-.03 0-.061-.03-.092-.03h-.093v-.032Zm.681 0c.186.093.341.155.558.186.186 0 .372.031.558-.03.093.061.248-.032.31.092.031.186.124.341.186.496-.062.279.093.496.062.744h.403l-.031-.031a5.126 5.126 0 0 1-.217-.992c-.031-.093-.124-.217-.124-.34.093-.063.155.03.186.092.186.403.62.744.589 1.24v.03h.496c-.341-.464-.59-.96-.9-1.425-.03-.03 0-.062.032-.093h-2.108v.031Zm2.294 0c.062.031.062.155.186.186.217.186.465.434.682.651.185.186.34.403.526.589 0 .03.031.062.031.062h.868c-.217-.124-.434-.248-.65-.403-.435-.341-.775-.806-1.21-1.116l-.433.031Zm.775 0c.371.155.62.465.991.651.341.248.744.34 1.023.65.093.063.186.156.279.218h.496c-.434-.217-.806-.527-1.209-.837-.403-.062-.682-.403-1.023-.62-.03 0-.03-.03-.062-.03l-.495-.032Zm1.084 0a.524.524 0 0 0 .155.062c.31.093.589.186.868.372.186.062.34.248.527.341.34.217.775.155 1.085.496.093.124.216.186.34.248h.558c-.155-.093-.248-.248-.403-.31a.802.802 0 0 1-.34-.217c-.248-.031-.403-.217-.62-.279a6.194 6.194 0 0 0-.651-.31c-.186-.186-.434-.248-.62-.372l-.899-.03Zm1.333 0c.03 0 .062.031.093.031l.186.031c.124.155.372.093.527.186.279.093.589.124.836.31.372.062.713.217 1.054.31.186.155.434.279.589.434.031.062.031.155.031.217h.403c-.031-.372-.062-.744-.279-1.023l-.186-.465h-.65c.154.124.154.28.185.465a.17.17 0 0 1-.155.093c-.558-.093-1.023-.403-1.58-.558h-1.054v-.03Zm5.516 0 .093.186c.062.372.31.682.31 1.054-.03.217-.279.186-.465.248h1.147c0-.124-.03-.28-.062-.372-.093-.372-.186-.775-.31-1.147h-.713v.031Zm1.519 0c.093.341.155.651.186.992.031.124.062.31.093.527h.434a7.572 7.572 0 0 0-.217-1.209c-.031-.093-.031-.186-.062-.279l-.434-.03Zm-12.955 1.519c.217-.31.465-.59.62-.899.093-.155-.062-.217-.093-.34-.062-.032-.093-.063-.155-.063-.124.155-.186.341-.248.527-.124.279-.34.527-.526.806l.402-.031Zm.992 0c0-.062.031-.155.062-.217.093-.217.093-.465.155-.713 0-.062-.062-.124-.124-.155-.093 0-.217 0-.248.093-.124.155-.03.372-.062.527-.062.124-.062.31-.124.465h.341Zm.744 0s0-.031-.031-.031c-.062-.28.031-.558.062-.806 0-.093-.062-.217-.186-.248-.093 0-.155 0-.186.093-.03.155-.093.341.031.465.031.124-.03.248-.03.34 0 .063.03.094.03.156l.31.03Z" fill="#BD2B30"/><path d="M32.82 28.388v.031c-.062.31-.155.59-.248.9h.527c.031-.187.093-.404.124-.59l.124-.34h-.527Zm1.55 0c-.031.124-.062.217-.093.341a4.388 4.388 0 0 1-.124.62h.465c.093-.31.217-.62.279-.96h-.527Zm3.068 0c-.124.217-.217.434-.372.62-.062.093-.093.217-.124.31h.806c.03-.03.062-.093.093-.124.186-.062.34-.186.558-.248.589-.03 1.86-.403 2.541-.589h-1.55a9.61 9.61 0 0 1-.991.124c-.093-.03-.186-.03-.28-.062 0-.03 0-.062.032-.062l-.713.031Zm4.494 0c-.124.031-.248.062-.28.062-.371.062-2.138.713-2.478.868h-.031.991c.651-.279 1.457-.589 1.674-.682.062-.062.434-.186.558-.279l-.434.031Zm.837 0c.062.28.217.527.495.713.155.062.28.155.434.248h2.666l-.031-.03c-.062-.032-.124-.125-.124-.187 0-.03.03-.062.093-.093.155 0 .217.186.372.248.03 0 .062.031.093.031h.526c-.248-.155-.495-.372-.774-.465-.062-.03-.124-.093-.062-.186.03-.093.093-.217.155-.31h-.31a1.014 1.014 0 0 1-.341.465c-.186.155-.434.155-.682.217-.558.124-1.054-.03-1.488-.372-.155-.062-.248-.186-.34-.31l-.682.031Zm5.02 0 .28.093c.526.155 1.084.155 1.61.341.404.062.776.217 1.147.28.31.092.62.154.93.216l.031.031h.651c-.062-.155-.124-.34-.248-.496-.03-.155-.124-.31-.217-.465h-.496c.093.155.186.31.217.496-.03.062-.062.093-.124.093-.248-.03-.496-.155-.744-.217-.371-.062-.712-.217-1.084-.217a3.269 3.269 0 0 1-.59-.155H47.79Zm6.509 0c.123.31.216.651.34.93h.713a4.853 4.853 0 0 0-.372-.93h-.681Zm1.611 0c.093.31.186.62.279.961h.434c-.093-.31-.217-.62-.341-.93h-.372v-.03Zm-14.318.93c.217-.124.434-.31.65-.403.125-.062 0-.248-.092-.217-.434.155-.806.434-1.24.62h.682Zm1.023 0c.03-.03.062-.062.03-.124-.061-.062-.154-.093-.185-.03a.556.556 0 0 1-.217.154h.372Zm.465 0c-.031 0-.062-.03-.093 0h.093Zm5.609 0c-.031 0-.031-.03-.062-.03a2.556 2.556 0 0 1-.806-.31c-.248-.032-.434-.125-.65-.187-.063 0-.187-.03-.187.062.031.248.28.186.434.28.124 0 .248.092.372.154l.899.031Zm1.55 0s-.031 0 0 0a31.207 31.207 0 0 0-1.333-.403c-.372-.093-.775-.124-1.085-.31-.093-.03-.217-.03-.279.031-.03.031-.062.093-.03.124.185.186.495.124.712.248.31.124.651.217.96.31h1.055Z" fill="#BD2B30"/><path d="M33.192 27.428a5.14 5.14 0 0 0-.372.96h.527l.186-.495c.093-.155.155-.31.248-.465h-.589Zm1.488 0c-.124.31-.217.62-.31.96h.496c.062-.34.186-.65.34-.93l-.526-.03Zm3.47 0c-.061.062-.123.155-.185.217-.155.155-.341.34-.403.557a.648.648 0 0 0-.124.186h.713c.062-.124.155-.186.279-.31.124-.154 3.192-.123 3.254-.402.093-.155-2.975.062-2.696-.217l-.837-.031Zm4.557 0v.124c-.031.279-.031.558.062.805h.65c-.093-.155-.124-.34-.186-.495 0-.155 0-.31.062-.465l-.588.03Zm1.022 0c-.03.03-.062.062-.062.124-.062.093-.062.279-.217.248-.124-.124-.03-.248.031-.372h.248Zm.465 0c-.03.03-.093.03-.155.03l-.03-.03h.185Zm.806 0c-.031.124-.093.217-.124.34-.031.032-.093.032-.124.032-.062-.124-.062-.248-.093-.372H45Zm.775 0a.325.325 0 0 1-.155.279c-.124-.031-.031-.217-.186-.248-.124-.062-.124.186-.248.03-.031-.03-.031-.03-.031-.061h.62Zm.279 0c.03.093.03.186.093.248.062.03.217 0 .217.124 0 .217-.031.402-.093.588h.31a.575.575 0 0 0 .062-.217c.093-.123.217 0 .278.031.28.093.59.124.868.186h1.364a10.082 10.082 0 0 0-.434-.093 2.689 2.689 0 0 0-.868-.155c-.403-.092-.899-.092-1.177-.464-.031-.093.03-.186.124-.186.371 0 .743-.031 1.115-.062h-1.86Zm2.82 0c.124 0 .279 0 .403.03l.434-.03h.155-.992Zm1.612 0c.124 0 .247.03.371.062.031.03.124.093.124.186-.433.062-.96.124-1.394.03-.28.032-.558 0-.868.032-.217.062-.496-.155-.62.093 0 .062 0 .124.093.155a7.94 7.94 0 0 0 1.209.093c.186-.031.403 0 .62 0 .496 0 1.084-.186 1.425.278 0 .031.031.031.031.062h.496c-.093-.155-.217-.31-.31-.464-.155-.155-.279-.31-.434-.465l-.743-.062Zm3.44 0 .093.279c.124.217.217.433.279.681h.681c-.03-.03-.03-.062-.03-.093-.094-.31-.28-.588-.435-.867h-.588Zm1.611 0c.124.279.248.589.372.867 0 .031 0 .031.031.062h.372c-.124-.31-.248-.62-.372-.96l-.403.03Zm-14.597.96c.062-.03.124-.03.155-.03.093-.125 1.209-.125 1.147-.372-.031-.062-2.139.247-2.356.31-.155.03-.31.061-.496.092h1.55Zm1.395 0c0-.03.03-.03 0 0 0-.124-.217-.062-.403 0h.403Z" fill="#BD2B30"/><path d="M33.812 26.281c-.248.372-.434.744-.62 1.116h.589c.186-.372.34-.775.62-1.116h-.589Zm1.55 0c-.093.124-.155.217-.248.34a3.99 3.99 0 0 0-.465.776h.527c.03-.031.03-.062.062-.124.186-.341.402-.682.62-1.023l-.496.031Zm3.967 0c-.093.062-.155.124-.248.186-.31.279-.651.589-.93.93h.806c.248-.217.681-.124 1.022-.124l1.519.062c.279 0 .465.062.744 0 .062-.062.155 0 .155-.093 0-.124-.341-.031-.527-.124-.434-.031-.837-.093-1.27-.062-.373.03-.714-.062-1.055-.093-.03-.031-.124-.062-.062-.124.31-.341 1.829-.031 2.139-.062.03 0 .062-.062.062-.093 0-.093-.93-.217-1.27-.372l-1.085-.031Zm2.23 0c.156.062.31.155.466.186l.248.093c.186.124.434.124.62.248.124.217-.124.372-.155.589h.557c.062-.186.155-.341.217-.496.155-.248.372-.496.62-.651h-.806c-.124.124-.247.31-.433.248-.155-.062-.28-.155-.434-.248l-.9.031Zm4.06 0c.063.031.156.093.218.124.155.093.279.217.403.34.062.032.03.125.03.187-.092.093-.31.124-.278.279.03.062.03.124.062.217h3.812c.217 0 .434-.031.62 0h.743l-.372-.465c-.247-.186-.433-.465-.65-.651h-.62a8.308 8.308 0 0 0-.837.217l-.589.03c-.248 0-.496 0-.744.063-.31.03-.557.186-.836.248-.186-.062-.062-.28-.186-.403-.031-.062 0-.093 0-.155l-.775-.031Zm1.302 0c-.03 0-.061.031-.123.062-.031.031-.031.062-.031.093.062.062.123.062.216.062.155-.062.31-.155.465-.217h-.527Zm6.416 0 .279.403c.093.248.217.496.31.713h.62l-.032-.031a6.86 6.86 0 0 0-.495-1.085h-.682Zm1.611 0a2.4 2.4 0 0 1 .217.496c.124.217.248.434.341.65h.403c-.03-.061-.03-.092-.062-.154-.217-.31-.31-.651-.465-.992h-.434ZM43.45 27.428a.235.235 0 0 0 .062-.124c.062-.031.248-.093.248.03 0 .032-.03.063-.062.094h-.248Zm.558 0c-.093-.093-.093-.248-.217-.28-.062 0-.155.032-.186-.03a.094.094 0 0 1 0-.124c.124-.093.31-.093.496-.093l.062.093c.124.093.124.279.093.403 0 0 0 .03-.03.03h-.218Zm.682 0c0-.031 0-.062-.03-.093-.032-.124-.187-.248-.125-.372.031-.031.031-.062.093-.062.186-.031.279.186.372.31.031.062.031.155.031.217h-.34Zm.496 0c-.031-.062 0-.124 0-.186.03-.124.124-.186.217-.217s.186.03.279.093a.398.398 0 0 1 .124.31h-.62Zm3.44-.651c.279-.062.527-.124.775-.186.217 0 .465-.124.65.03.156.094.342.187.31.404-.154.124-.402.155-.62.124-.929-.031-1.797.062-2.727.062l-.402.03c-.062-.03-.062-.092-.062-.123.186 0 .31-.155.495-.155.124-.062.28-.031.434-.062l.682-.093.465-.031Z" fill="#BD2B30"/><path d="M34.835 24.793c-.186.341-.496.62-.682.961l-.372.558h.589c.03-.031.062-.093.093-.124.248-.465.682-.837.96-1.302.032-.03.063-.062.063-.093h-.651Zm1.704 0c-.434.465-.806.992-1.146 1.519h.526a8.68 8.68 0 0 1 .496-.62c.248-.279.403-.62.682-.837.031-.03.062-.03.093-.062h-.65Zm5.176 0c-.558.217-1.085.558-1.58.868-.28.186-.528.434-.806.651h1.084c-.093-.031-.124-.093-.093-.155.28-.279.775-.062 1.209.155h.899a.625.625 0 0 0-.341-.093c-.31-.217-.651-.31-.992-.434-.062-.03-.031-.062-.031-.093.093-.155.217 0 .341 0 .155.093.34.093.527.155.248.155.527.217.775.341.062 0 .093-.031.124-.093a.17.17 0 0 0-.093-.155c-.155 0-.217-.124-.372-.155-.155-.124-.341-.217-.496-.34-.031-.032-.062-.125 0-.156.062-.093.155-.155.248-.155.279-.062.372.248.589.341.31.155.403.527.65.713v.062l-.093.093h.806c.031 0 .031-.031.062-.031.372-.155.837-.155 1.24-.062.062.031.155.062.217.093h.806c.03-.031.03-.062.062-.093.464-.465 1.022-1.023 1.704-.682l.093.093c0 .186-.248.124-.34.217-.342.124-.683.31-1.024.465h.527c.28-.124.558-.217.806-.372.465-.155.96 0 1.333.279 0 .031.03.062 0 .062h-.031.62a1.703 1.703 0 0 0-.28-.217c-.34-.279-.712-.465-1.084-.682-.34-.186-.713-.248-1.023-.465-.124-.093-.279-.124-.403-.155h-1.642c-.031.31-.155.558-.248.837-.031.031-.031.062-.093.062-.124-.34.093-.558.093-.899h-.372c0 .217-.031.403-.093.62-.093.093.031.28-.124.341a1.055 1.055 0 0 1-.62 0l-.062-.062c-.062-.279-.03-.589-.03-.837 0-.03-.032-.03-.032-.062h-2.417Zm2.851 0c0 .031.031.031.031.062 0 .155-.124.434.093.527.062 0 .124-.062.155-.124v-.34l.062-.125h-.34Zm7.438 0c.465.372.806.868 1.24 1.333l.03.093.063.093h.65c-.03-.062-.061-.093-.092-.155-.186-.186-.28-.403-.403-.589-.248-.248-.403-.527-.62-.775h-.868Zm2.046 0c.217.28.402.59.62.9.092.216.185.402.31.619h.433c-.03-.031-.03-.093-.062-.124-.124-.217-.124-.465-.31-.65-.062-.249-.248-.404-.403-.62-.03-.032-.093-.063-.124-.094l-.464-.03Zm-10.383.496c-.03-.124-.124-.31-.03-.434.03-.03.061-.03.092-.062.062 0 .124 0 .155.062-.062.28 0 .59.062.837-.03.093-.155.155-.248.186-.186.031-.248-.217-.403-.279-.185-.186-.31-.403-.495-.527-.031-.03 0-.093 0-.155.062-.093.155-.093.248-.062l.092.062c.155.217.248.496.465.651.062.031.124 0 .155-.062.062-.093-.062-.124-.093-.217Zm2.635.31c.03 0 .093.031.124 0 .217-.217.34-.713.743-.589.062.031.124.062.155.124.031.124-.093.093-.186.155-.278.31-.65.558-.96.837-.093.031-.155-.031-.217-.093-.248-.279-.031-.65.062-.93.124-.124.155-.372.372-.34.093-.032.186.03.248.061v.062c-.155.155-.28.341-.403.527-.031.093 0 .124.062.186Z" fill="#BD2B30"/><path d="M36.23 23.275c-.032.03-.094.093-.125.124-.217.31-.465.527-.743.775-.124.216-.403.371-.496.588h.682c.402-.433.867-.805 1.24-1.27.123-.062.216-.155.31-.248h-.869v.03Zm2.417 0c-.372.217-.713.434-1.116.589-.372.248-.713.588-1.023.898h.651c.434-.31.837-.65 1.333-.867.248-.186.527-.341.775-.496.093-.062.216-.093.31-.155h-.93v.03Zm11.498 0c.03.03.093.062.124.093.588.279.991.868 1.55 1.27.061.062.123.093.216.155h.899l-.124-.124c-.279-.155-.434-.464-.744-.62-.34-.216-.65-.526-.992-.774h-.93Zm2.417 0c.217.217.434.434.65.62.31.248.59.557.838.898h.433c-.185-.186-.31-.433-.526-.62a7.572 7.572 0 0 0-.837-.898h-.558Zm-8.337 1.518V24.7c.031-.062.124-.062.155-.062.062.031.124.062.186.124h.341l.093-.155c.062-.03.155-.03.186.062v.093h.372c.03-.03.062-.093.093-.093.062 0 .124.031.124.093h1.642c-.186-.062-.372-.093-.557-.186-.465-.124-.961-.186-1.457-.247h-1.426c-.496.03-.96.123-1.394.247l-.558.062c-.124.031-.217.062-.341.093l2.541.062Zm-2.541-4.555a4.811 4.811 0 0 0-.65.124c-.342.062-.652.248-.962.371-.589.31-1.24.465-1.797.9-.403.247-.744.588-1.116.836-.31.248-.65.465-.93.775h.837c.093-.062.186-.155.248-.217l1.085-.837c.372-.248.744-.434 1.115-.682.31-.155.62-.217.93-.34.124-.032.28-.032.372.03.248.341.62.682 1.085.558.279-.093.558-.155.775-.372.062-.062.31-.279.403-.31.123 0 .31.124.433.155.372-.03.496.031.837-.124.186-.093.372-.155.558-.31.124 0 .31.186.403.217.279.186.868.186 1.178.248.03 0 .03.031.03.031-.092.093-.588-.062-.681-.03-.868-.156-1.736.03-2.573.185-.712.217-1.487.31-2.2.62-.527.186-1.023.465-1.519.713-.31.093-.62.279-.898.434h.93c.402-.186.836-.372 1.24-.558.247-.155.526-.186.743-.372.899-.372 1.952-.434 2.944-.62.248.031.403-.062.62-.062.775-.03 1.519.124 2.2.28.28.092.527.216.806.31.403.216.806.402 1.209.588.279.093.527.248.775.403h.93c-.156-.093-.28-.186-.434-.248-.558-.31-1.147-.558-1.674-.899a6.786 6.786 0 0 0-1.023-.372c-.03-.03-.062-.093-.03-.124.123-.093.31-.093.433-.186.124-.155.31-.248.403-.403.496.217.96.465 1.426.713.588.248 1.177.527 1.704.961.28.155.496.372.713.589h.558a11.174 11.174 0 0 1-.651-.589c-.248-.124-.465-.372-.744-.527-.31-.093-.558-.34-.868-.465-.433-.248-.836-.496-1.301-.682-.124-.093-.31-.124-.434-.217-.341-.154-.62-.34-.992-.433-.186-.062-.372.062-.558-.031 0-.031 0-.062-.03-.093h-.404c.031.31.124.62.248.867.062.062.155.124.248.093.031-.03.093-.03.124-.062-.03-.155-.093-.31-.155-.464 0-.031.062-.062.093-.062.186 0 .28.123.465.154.031.031 0 .186-.03.31 0 .093-.187.124-.218.186a.281.281 0 0 1-.217.093c-.34-.03-.558-.31-.744-.558l-.154-.526h-.93a.987.987 0 0 0 .186.248c.124.155.372.464.124.402-.372-.093-.744-.402-.961-.65h-.372c-.248.248-.65.557-.93.65-.248.093.031-.278.155-.433.031-.062.093-.124.155-.217h-.65c-.032 0-.032.03-.063.03a.33.33 0 0 1-.248-.03h-.154a.414.414 0 0 0-.093.124c-.031.371-.341.743-.713.898-.186.031-.465.124-.651 0a.572.572 0 0 1-.155-.496c.03-.216.248-.247.403-.278.062 0 .186-.031.217.062.062.247-.496.278-.186.526.248.031.434-.155.589-.34a1.05 1.05 0 0 0 .186-.465h-1.023Z" fill="#BD2B30"/><path d="M42.769 20.238c.062-.28.03-.62-.124-.868.093-.062.588.124.62.248 0 .155-.032.372.123.434.093.03.217-.093.248.03 0 .063-.03.125-.093.125h.651c.124-.217.248-.527.248-1.116 0-.868-.589-1.054-.806-1.054-.248 0-.403-.03-.31-.124.093-.093.496-.124.775-.062.28.062.93.62.93.62s.62-.558.93-.62c.279-.062.837-.093.93 0 .092.093-.062.093-.31.093s-.961.28-.961 1.116c0 .558.124.899.279 1.116h.93v-.062c-.124-.093-.28-.031-.403-.062-.124-.031-.248-.062-.31-.186-.031-.093-.031-.217.062-.248l.093-.062c0-.062.124-.062.186-.031.155 0 .186.248.372.186.185.03.247-.31.402-.372.31-.248.403-.186.59-.28v.062c-.28.187-.59.373-.62.714v.372h.402c-.03-.217.124-.403.155-.62.186-.31.59-.124.837-.28.093-.061.093-.216.062-.31-.186-.216-.372-.402-.65-.371-.435.062-.807.279-1.117.589-.185.155-.371-.062-.557-.093-.155-.031-.28-.217-.28-.403 0-.186.187-.31.31-.403.28-.248.651-.124.961-.03.124-.032.217-.156.217-.249a.493.493 0 0 0-.093-.403c-.124-.062-.248-.124-.403-.155-.495-.03-1.022-.093-1.425.186-.186.093-.341.372-.589.341-.248-.186-.527-.248-.775-.403l-.403-.155a.916.916 0 0 0-.96.465c-.062.186-.186.465 0 .651.062.093.155.093.247.093.155-.031.186-.186.248-.248s.155-.03.217-.03a.554.554 0 0 1 .341.309c.062.186-.093.34-.217.465-.093.093-.279.093-.434.062-.464-.279-.991-.713-1.611-.465-.248.124-.589.372-.589.682.124.217.341 0 .496 0 .279-.031.558.03.713.217.062.155-.031.34-.155.434-.186.093-.372.124-.558.155h1.178Zm.495 0c-.062 0-.093-.031-.154 0h.154Zm1.612 0c.124-.124.186-.217.186-.28 0 .063.062.156.186.28h-.372Zm-1.302-.62c.093-.155.28-.28.465-.248l.062.062c.031.093.031.279-.062.372-.093.093-.31.062-.434 0-.062-.031-.062-.124-.03-.186Z" fill="#BD2B30"/><path d="M60.589 31.209c-.062-.372-.062-.775-.124-1.147-.155-1.333-.434-2.603-.93-3.812a1.99 1.99 0 0 0-.372-.775c-.093-.279-.248-.496-.403-.744l-.03-.093c-.651-.836-1.023-1.797-1.798-2.603-.806-.837-1.612-1.797-2.603-2.417-.62-.558-1.302-.992-1.984-1.395-.372-.186-.713-.403-1.085-.589-.372-.186-.774-.31-1.146-.465-.651-.279-1.426-.279-2.077-.526-.434-.062-.899-.062-1.332-.124-.713-.031-1.395-.062-2.077-.062a3.243 3.243 0 0 0-1.55.093c-.31 0-.62.093-.93.124-.526-.031-.96.216-1.456.278-.186.031-.31.186-.496.186-.403.186-.836.248-1.24.372-.34.062-.62.28-.93.372-.216.248-.557.217-.774.434-.899.372-1.642 1.054-2.541 1.457-.713.62-1.55 1.053-2.108 1.86-.279.278-.465.588-.713.867-.216.279-.31.589-.526.868-.155.403-.496.744-.651 1.177-.124.124-.124.341-.248.465-.124.341-.31.62-.465.93-.062.279-.248.465-.279.744-.186.34-.31.682-.403 1.085-.155.217-.186.495-.248.774-.155.744-.403 1.488-.465 2.263-.155.62-.03 1.208-.062 1.86-.124.185.031.402-.03.588.123.341.092.744.123 1.085l.062.093c.093.34.124.65.186.992.093.588.31 1.146.465 1.704.28.62.434 1.333.713 1.953.186.371.34.743.589 1.115.34.682.806 1.27 1.178 1.953a21.44 21.44 0 0 0 1.642 1.735c.775.806 1.643 1.364 2.51 1.89.744.528 1.55.807 2.356 1.21.496.185.96.371 1.456.526.434.062.775.341 1.24.372.341 0 .589.186.93.186 1.208.124 2.448.186 3.626.062.589-.062 1.178-.093 1.766-.186 1.054-.124 2.046-.403 3.007-.775.495-.31 1.053-.495 1.611-.712.868-.465 1.767-.868 2.572-1.55.434-.279.837-.682 1.271-.992.434-.589 1.023-1.115 1.488-1.704.03-.124.124-.248.186-.372.403-.465.681-.96 1.053-1.426.155-.34.465-.65.527-1.023.155-.278.713-1.89.899-2.355.155-.713.372-1.364.434-2.076.03-.682.186-1.364.155-2.077 0-.65.062-1.146.03-1.673Zm-.62 3.285c-.062.124 0 .279-.031.434-.093.403-.124.836-.31 1.24a18.972 18.972 0 0 1-.992 2.913c-.248.464-.496.898-.774 1.332-.372.59-.806 1.147-1.21 1.705-.154.217-.371.34-.557.558-.248.495-.775.836-1.178 1.208-.465.527-1.053.775-1.58 1.209-.59.496-1.302.682-1.922 1.085-.31.186-.65.279-.96.496-.248.062-.465.216-.744.278-.713.248-1.488.31-2.263.434-.434.124-.836.248-1.301.248l-1.116.093c-.279.031-.589.124-.868.031-.31-.093-.65-.03-.992-.03-.65.03-1.301-.032-1.89-.249-.496-.124-.96-.31-1.488-.372-.588-.278-1.24-.402-1.828-.681-.775-.31-1.55-.651-2.2-1.21-.403-.34-.868-.526-1.271-.929-.527-.403-1.085-.837-1.426-1.394-.248-.186-.403-.465-.558-.682-.062-.124-.217-.093-.248-.217-.279-.496-.62-.992-.93-1.488-.154-.093-.154-.31-.247-.434-.341-.589-.651-1.177-.868-1.797-.186-.372-.279-.775-.465-1.147a6.112 6.112 0 0 1-.217-1.085c-.03-.155-.155-.279-.217-.433-.155-.682-.186-1.426-.279-2.139-.03-.31-.124-.62-.124-.96-.03-.435-.03-.9.062-1.333 0-.62.28-1.178.341-1.767.155-.62.28-1.301.589-1.86 0-.216.186-.371.186-.62.279-.588.434-1.239.775-1.797.217-.558.65-.991.837-1.55.185-.433.526-.774.774-1.146.248-.279.527-.62.837-.806.186-.155.372-.31.527-.496.589-.34 1.054-.898 1.643-1.24.278-.123.464-.402.743-.495.403-.28.806-.465 1.24-.682.62-.248 1.147-.65 1.829-.775.495-.124.991-.248 1.487-.31.31-.093.651-.124.93-.248.465-.062.899-.124 1.364-.186.62-.124 1.301-.124 1.983-.155.465.031.93.031 1.395.093l.836.155c.28-.062.527.031.775.062.806.093 1.58.31 2.294.651.402.217.836.403 1.27.62.868.31 1.643.899 2.387 1.519.31.31.65.588.96.867.651.651 1.271 1.271 1.89 1.922.218.31.435.62.62.93.342.496.713.96.961 1.487.527.899.806 1.922 1.085 2.944.496 1.302.496 2.82.527 4.277-.031.59-.062 1.24-.093 1.922Z" fill="#BD2B30"/><path d="M47.882 31.612c.062.093-.03.093-.03.217 0 .092.03.216-.063.247-.186.031-.124-.278-.34-.186l-.28.062c-.03.341 0 .837-.062 1.178 0 .155.186.062.217.217 0 .062 0 .186-.093.186s-.155.031-.217 0c-.185.062-.402.093-.588 0-.062-.03-.062-.124-.031-.186.062-.093.248-.093.248-.217 0-.372.093-.806 0-1.147-.062-.093-.248-.093-.31-.062-.155.031-.062.31-.217.28l-.062-.094-.031-.433.03-.031c.528 0 1.085.03 1.612-.031.062-.031.186-.062.217 0Zm4.99.062c0 .155.03.31-.031.464-.062.031-.155 0-.217 0-.031-.03.031-.155 0-.186-.062-.092-.155-.185-.248-.185-.062 0-.279.123-.31.185 0 .403.682.341.837.651.155.28.093.496-.093.713-.217.217-.65.217-.93.093-.155 0-.34.186-.465.031l.155-.248c.093-.155.062-.217.186-.34h.062c.062.278.124.402.434.402.186 0 .31-.03.341-.124.031-.062 0-.155 0-.217-.186-.279-.806-.248-.93-.558-.062-.217-.093-.526.124-.681.248-.155.744-.248 1.023-.093l.062.093Zm-13.11-.031c.062.124.031.34.031.464-.03.093-.124.062-.186.062-.124-.03-.062-.186-.186-.217-.092-.03-.247-.03-.31.031-.061.062-.061.248-.061.31.062.093.248.031.34.093.124.124.062.124.031.28-.03.154-.216 0-.34.03-.093.093-.062.434 0 .527.217.062.464-.03.588-.124.093-.093.124-.217.217-.248a.17.17 0 0 1 .155.093c-.062.155-.03.403-.186.527-.434.186-.991 0-1.487.031-.093-.03-.062-.124-.062-.186.34-.31.217-.96.217-1.395 0-.123-.186-.216-.124-.31l.062-.03c.31-.031.713.03 1.022 0 .093 0 .217 0 .28.062Zm5.238.062c0 .062 0 .124-.031.185-.093.031-.186.062-.248.155.031.341 0 .713 0 1.023.062.093.217.062.248.186.062.124.031.186-.062.248-.155.062-.465-.03-.65 0-.125.062-.249.031-.373-.03-.062-.063-.093-.125-.03-.218.061-.155.247-.062.31-.217.123-.279.03-.775.061-1.085-.03-.123-.217-.03-.279-.123-.03-.031-.124-.217-.062-.217.341 0 .682-.062 1.023 0 .062 0 .093.062.093.093Zm-8.585-.031c0 .062-.03.062-.093.093-.062 0-.093.03-.124.062.031.216.093.526.248.712.093.031.155-.062.186-.124l.465-.65c-.186-.093-.093-.186-.093-.186.186-.031.496-.031.651 0 .031.03.217-.062.186.093-.031.124-.186.093-.248.186-.34.495-.682 1.115-.96 1.58-.094 0-.218.031-.249-.062v-.186l-.589-1.27c-.03-.062-.124-.032-.185-.062-.062-.062-.062-.093-.031-.186.092-.093.247-.062.34-.124.155 0 .434-.093.496.124Z" fill="#BD2B30" fill-rule="nonzero"/><path d="M50.61 33.13c-.28-.496-.558-.96-.744-1.456-.031-.062-.093-.155-.186-.155s-.28.03-.28.124c-.092.557-.433 1.022-.712 1.518-.093.062-.186.155-.279.217a.094.094 0 0 0 0 .124c.217-.03.589 0 .806 0 .03 0 .093-.03.062-.062 0-.062-.062-.062-.093-.093-.031-.03 0-.062 0-.093.124-.279.34-.217.527-.186.124.031.34-.062.372.186 0 .062-.124.031-.155.031a.17.17 0 0 0-.093.155c0 .062.062.062.124.062.248-.03.465-.03.774-.03.155-.032-.062-.28-.123-.342Zm-.744-.372c-.093.062-.403.062-.496.062-.155-.03.155-.372.093-.496.03-.093 0-.248.124-.279.093 0 .093.155.124.28 0 .092.155.34.155.433Zm.929-8.708c-.03-.124-.093-.124-.247-.124a1.043 1.043 0 0 0-.62.403c-.28.185-.558.433-.837.557-.093.062-.217.031-.31.093 0 .031 0 .062.031.093.093.062.217.124.34.155.125.062.187.28.373.155 0-.093-.093-.186-.031-.248.31-.093.434.062.65.217.032.062.063.093 0 .155-.092.031-.216.062-.278 0a.067.067 0 0 0-.062.062c0 .155.279.341.372.434.062.155.31.279.464.31.062-.031.093-.062.093-.124-.093-.279-.185-.062-.062-.34.062-.094.155-1.334.217-1.427-.124-.216-.093-.371-.093-.371Zm-.588.93c-.031.092-.372-.125-.434-.218-.031-.03.248-.217.248-.279.124-.093.155-.154.31-.216l.03.03c-.03.186-.123.465-.154.682Z" fill="#BD2B30"/><path d="M46.023 22.221c0 .186-.031.372-.062.558 0 .03-.062.062-.093.062-.093 0-.217 0-.186-.403-.186-.186-.434-.093-.434.124-.031.62-.124.713-.062 1.116.093.093.093.248.217.34.03.063-.031.125-.062.125-.155.03-.279-.062-.434-.062-.186-.031-.403.03-.558-.031-.062-.031-.03-.093 0-.124.403-.248.31-.775.341-1.21 0-.061-.03-.123-.124-.154-.34-.155-.279.124-.434.155-.03.03-.124.03-.155 0-.124-.093-.03-.217-.03-.341.03-.093.03-.217.123-.217.434-.062.899.031 1.333-.03.217 0 .496-.094.62.092Zm2.293.527a.557.557 0 0 1 .279.186c-.031.217-.31.093-.403.248-.124.403-.62.899-.279 1.363 0 .031 0 .093-.062.093-.186 0-.434-.217-.589-.31-.155-.03-.34-.03-.433-.185 0-.186.247-.124.34-.217.248-.093.28-.434.372-.651.031-.155.155-.31.124-.465-.062-.093-.248-.124-.186-.279.062-.124.217 0 .341-.031.093.093.372.155.496.248Zm4.804 3.657c.217.186.31.465.434.713.03.093.124.186.03.31-.061.093-.185.124-.31.124-.061-.031-.03-.093-.03-.155.093-.31-.031-.496-.28-.496-.061.155-.309.093-.247.279.062.093.155.186.124.279 0 .124-.124.186-.186.217h-.062c-.093-.124-.217-.217-.248-.372-.031-.031-.062-.062-.093-.031-.062.093-.248.155-.186.31.124.124.124.34.31.434.093.03.155-.031.217-.031.124.062.31-.031.403.093 0 .123-.124.123-.217.154-.186.062-.403.155-.62.062-.217-.185-.217-.464-.403-.65v-.062c-.155-.155-.279-.31-.465-.372-.062-.031-.03-.093-.03-.155.092-.217.247 0 .402-.031.31-.155.62-.248.868-.465.124-.031.186-.124.248-.217 0-.093-.062-.217-.031-.31.062-.03.124-.062.155-.03.124.092.155.247.217.402Zm-16.89.589c.03.186-.187.279-.28.403-.093.155-.124.465-.03.65.092.155.216.341.402.372l.372-.03c.031-.094.155-.156.124-.28-.03-.31-.31.031-.403-.123 0-.186.093-.434.217-.558.186-.031.372.093.527.217.062.03.186.03.186.124v.124c-.062.247-.093.526-.186.743-.155.186-.31.28-.589.372a.918.918 0 0 1-.496.062c-.217-.186-.557-.31-.62-.62-.247-.433-.03-1.115.248-1.456.155-.124.434-.248.527 0Z" fill="#BD2B30" fill-rule="nonzero"/><path d="M39.638 39.08c-.03-.061-.093-.154-.186-.123-.371.155-.681.403-1.053.495-.155.093-.31.186-.496.217-.155.062-.279-.03-.434-.03-.031.03-.062.061-.062.092.248.186.465.465.65.682.094-.093.032-.248.125-.34.093-.032.217.03.34.061.187.124.435.31.404.558-.031.062-.155.031-.186.031 0 .062-.093.062-.031.124l.372.217c.155.093.248.31.402.341.062 0 .062-.093.031-.155-.34-.744.248-1.426.124-2.17Zm-.65 1.054c-.124.031-.28-.186-.372-.279-.031-.03-.031-.093-.031-.124.124-.093.403-.34.589-.371l.03.03c0 .186-.185.558-.216.744Zm12.768-.558c-.31-.062-.124.062-.434-.03-.217-.063-.898-.341-1.084-.403-.124-.062-.28-.186-.434-.062-.062.217.062.402.062.62.093.34.248.898.124 1.022-.124.155-.217.28-.124.403.093.031.155-.062.217-.093.155-.124.372-.217.496-.403-.031-.124-.155-.03-.217-.124-.062-.155.186-.217.248-.34.123-.063.185-.249.371-.249.186.062 0 .186 0 .31 0 .031.031.062.062.031.28-.124.465-.403.713-.589.031 0 .031-.062 0-.093Zm-1.487.59c-.124-.125-.186-.528-.155-.652.03-.03.155.062.186.093l.371.155c.031.031.093.031.093.062-.124.124-.31.372-.495.341Z" fill="#BD2B30"/><path d="M37.5 36.663v.093c-.124.31-.279.93-.31 1.302.031.062.217-.155.248-.155.186-.093.34-.31.527-.372.124.031.155.093.217.186.062.124.217.248.186.403-.124.124-.186-.124-.341-.093-.28.062-.496.248-.744.403-.124.186-.34.248-.496.403-.062-.031-.217 0-.217-.093.031-.434.28-.9.217-1.333-.062-.062-.465.31-.527.34-.217.156-.124.156-.186.404-.062.03-.124-.031-.186-.093-.062-.124-.093-.248-.155-.372-.062-.062-.154-.124-.123-.217.278.031.31.031.557-.062.186-.124.93-.65.93-.713 0-.062-.093-.124-.062-.186a.19.19 0 0 1 .217-.03c.124.03.217.092.248.185Zm15 .217c.062.062.124.124.062.186-.217.062-.465.062-.65.217-.063.062-.187.124-.218.248.062.124.248.279.372.279.186-.062-.062-.341.186-.341.186 0 .248.031.341.186 0 .031.031.062 0 .093-.062.062-.217 0-.248.124 0 .062 0 .217.062.248a.25.25 0 0 0 .279.093c.124-.031.186-.186.248-.28.093-.185-.124-.309-.217-.433 0-.062.03-.155.124-.186.248.062.403.248.62.341.03.062-.031.155-.062.186-.341.403-.59.806-.992 1.178-.031.03-.093.093-.155.062-.124-.093.124-.28.062-.372-.155-.186-.558-.62-.868-.744-.186-.062-.217.03-.31.155a.19.19 0 0 1-.217.03c-.062-.03-.062-.092-.062-.154.062-.186.28-.31.403-.465.186-.31.403-.496.62-.806.28-.155.434.093.62.155Zm-11.312 3.068c.465.155.93.341 1.426.465.062.031.124.093.186.124.03.186-.124.28-.155.434-.031.031-.093.031-.155 0-.124-.124-.093-.465-.372-.403-.186.062-.217.31-.28.465-.061.217-.216.434-.216.682.062.124.155.186.248.31.03.03-.031.093-.062.124-.155 0-.248-.093-.372-.124-.248-.093-.527-.062-.713-.217-.03-.031 0-.062 0-.093.093-.031.217-.062.31-.124.217-.248.248-.589.403-.868.03-.093.155-.186.093-.31a1.101 1.101 0 0 0-.279-.124c-.155.093-.217.248-.34.341-.032 0-.125-.03-.125-.062 0-.248.093-.465.186-.65.062 0 .155.03.217.03Zm3.874.806c-.031.062.031.124.062.155.062.031.155.031.155.124.03.403.03.775-.217 1.085a.384.384 0 0 1-.434.093c-.372-.217-.124-.62-.186-.961 0-.124-.062-.31.062-.403.031-.03.093-.03.124-.093 0-.03 0-.062-.062-.093-.217-.03-.496.062-.713 0-.062 0-.124.031-.124.062-.03.062.031.124.062.124.093 0 .124.062.155.155.124.496-.124.992.155 1.426.217.186.744.217 1.023.155.62-.31.31-1.023.527-1.55.062-.062.217-.03.248-.093.03-.062.062-.124.03-.186-.216-.062-.464-.03-.681-.03-.062 0-.124-.032-.186.03Z" fill="#BD2B30" fill-rule="nonzero"/><path d="M49.277 41.157c-.062-.062-.124-.093-.217-.062-.124.031-.124.155-.155.217-.031.124-.186.093-.279.124-.093-.031-.403-.217-.34-.31.123-.186.247-.465.03-.713-.186-.403-.713-.31-1.023-.186-.248.155-.526.217-.743.372-.031.062 0 .124.062.186.093.093.217-.03.31-.03.123.123.185.278.247.402.093.248.186.496.248.744.031.155-.124.31 0 .403.155-.062.31-.093.465-.155.155-.093-.124-.465-.093-.59.031-.03.062-.061.124-.061.124.062.496.279.62.279.372 0 .62 0 .775-.372 0-.062.062-.186-.031-.248Zm-1.333-.093c-.062.062-.186.124-.248.093-.093-.062-.372-.589-.217-.65.186-.032.403 0 .527.185.031.124-.03.28-.062.372Z" fill="#BD2B30"/><path d="M39.421 18.161c0 .28.186.403.093.651-.062.062-.03.093-.124.093-.03-.031-.092 0-.123-.031-.031-.124-.124-.248-.248-.279-.124 0-.527.155-.59.31a.301.301 0 0 0 .032.279c.34.34.775 0 1.115-.031a.96.96 0 0 1 .403.186c.217.248.341.589.248.899-.186.34-.496.712-.93.681-.154.031-.278-.155-.402-.03 0 .092.03.185-.062.247-.062.031-.155 0-.217-.03-.093-.125.03-.28 0-.404-.031-.154-.155-.247.03-.371.249-.031.466.31.652.248.185-.062.278-.124.371-.31.031-.093.062-.186 0-.28-.062-.061-.124-.123-.248-.123-.247.03-.402.248-.65.217s-.496-.124-.651-.372c-.124-.217-.248-.465-.155-.713.093-.217.279-.434.496-.527.155-.062.372-.124.527-.093.186-.03.124-.34.372-.248l.061.031Zm12.614.929c.093.094.093.28.279.31.093 0 .217-.03.248.094-.093.186-.279.248-.434.372l-.186.155c-.03.03-.093-.031-.093-.062-.124-.248.124-.28-.03-.465-.063-.093-.156-.217-.28-.248a.21.21 0 0 0-.186.124c-.155.279.062.496.155.744.124.124.155.31.217.465.062.247-.03.464-.217.62-.279.185-.527.247-.868.154-.154-.093-.34-.155-.464-.31l-.186-.279c-.124-.03-.248 0-.341-.093-.031-.061 0-.123.062-.185l.496-.527c.03-.031.093-.031.155 0 .062.03.062.093.093.155 0 .155-.186.248-.155.434-.031.216.186.34.34.433.093.031.248.062.341 0 .124-.062.186-.217.124-.34 0-.28-.34-.403-.372-.651-.03-.217-.123-.527.031-.713.217-.341.62-.403.992-.341.062-.031.186.062.28.155Zm-15.744.776c.031.217-.186.31-.03.496.185.34.588.588.743.93.093.123.155.278.31.34.155.093.372-.155.434.062-.062.186-.31.248-.434.372-.186.124-.372.31-.496.496-.03.031-.124.062-.186.031-.124-.186.124-.434.031-.65-.062-.156-.217-.28-.279-.404-.217-.34-.527-.682-.898-.899-.124-.061-.31.124-.372-.03 0-.124.124-.186.186-.248.248-.186.526-.31.743-.558.093-.031.217-.031.248.062Zm17.077.929c.155.124.155.341.124.527-.031.217-.217.341-.403.372-.186 0-.434 0-.527-.217a.554.554 0 0 1 .093-.527c.093-.093.186-.217.31-.248.155.031.279.031.403.093Zm-19.091.868a.265.265 0 0 1 0 .217c-.062.062-.124.155-.217.124-.062-.03-.186-.155-.248-.093s-.217.372-.155.403c.062.062.248.155.34.124.31-.031.714-.403 1.055-.279.186 0 .774.124.774.713 0 .186 0 .372-.062.527-.124.248-.34.558-.65.62-.062 0-.124-.031-.186 0-.093.093-.031.248-.155.31-.217.061-.248-.217-.341-.341-.062-.155-.124-.248-.155-.434 0-.031.062-.031.093-.062.372-.155.34.403.899-.031.093-.062.124-.186.124-.31-.093-.124-.031-.403-.403-.31-.372.062-.651.248-.992.31-.248.03-.465-.124-.65-.31-.125-.217-.156-.527-.032-.744.124-.155.403-.713.527-.65.155.03.31.092.434.216Zm-1.86 1.829c.062.124-.062.217-.03.372.061.279.278.526.557.588.434.28.806.59 1.27.837.032.031.032.093.032.124-.217.217-.465.155-.744.155-.465 0-.93.031-1.333.186.124.124.248.28.434.31a.674.674 0 0 0 .62.248c.124 0 .124-.186.248-.155a.149.149 0 0 1 .062.186c-.217.34-.34.713-.527 1.085-.03.062-.093.093-.155.03-.124-.092 0-.247-.03-.371 0-.28-.28-.403-.466-.558-.34-.217-.712-.403-1.115-.403-.155 0-.217.186-.372.155-.093-.062 0-.186.03-.279.125-.248.249-.434.559-.496.433-.124.96-.248 1.456-.248.093 0 .124-.062.186-.124-.186-.186-.403-.31-.62-.434a.845.845 0 0 0-.372-.186c-.093.031-.155.155-.278.093-.062-.03-.124-.062-.124-.155 0-.092.093-.123.093-.185.154-.28.185-.62.464-.806.031-.031.093 0 .155.03Zm-1.828 4.494c.093.124.372.03.34.247-.092.124-.371 0-.495.062a.484.484 0 0 0-.217.496c0 .093.062.217.124.248.124.031.403.155.496 0 0-.093 0-.465.03-.496.125-.03.125.031.249.031s.31 0 .279.062c-.124.248-.124.372-.28.527 0 .031.032.031.063.062.279-.03.558.155.805.186.062-.186.062-.496.093-.682.031-.279-.464-.403-.371-.712a.163.163 0 0 1 .216-.062c.186.093.372.093.496.278.186.248.031.775-.062 1.023-.155.31-.186 1.209-.217 1.27a.198.198 0 0 1-.186 0c-.216-.154-.03-.588-.526-.619-.434-.031-.837-.186-1.271-.31-.248-.03-.186.403-.465.279-.186-.248.248-1.58.341-1.952.031-.062.031-.062.093-.062.186 0 .31.093.465.124Zm-.868 3.904c.372.093.837.031 1.209.093.248 0 .527.062.682-.154.03-.062.062-.155.124-.186.062 0 .154-.031.216.03l.031.063c-.03.371-.062.712.031 1.053 0 .093 0 .186-.093.248-.216.031-.31-.34-.526-.372-.403-.124-.837-.062-1.271-.062-.279-.03-.403.186-.589.372-.03.031-.217 0-.217-.124-.03-.31-.093-.527-.03-.899.03-.123 0-.278.154-.31.155-.03.124.187.28.248Zm2.2 2.263c.093.03.217-.031.248.093-.03.186.062.31.062.465.093.34.403 1.301.403 1.425a.373.373 0 0 1-.155.155c-.31.031-.124-.279-.465-.217-.34.093-1.084.31-1.456.31-.062.031-.124.031-.155.093 0 .093.03.217-.093.248-.124 0-.186-.124-.248-.186-.124-.31-.434-.62-.31-.991.031-.062.093-.062.186-.093.186 0 .155.31.34.278.187-.062.528-.062.745-.093.248-.154.96.031.898-.31-.154-.991-.464-.774-.774-1.115-.093-.093.093-.093.155-.124.248-.062.434.03.62.062Zm25.569.465c.372.248.867.248 1.332.34.186.032.372.187.527.063.062-.093.093-.186.186-.248.093 0 .186.03.186.124-.03.217-.155.403-.186.62-.155.31-.248.62-.279.991-.03.062-.062.155-.155.186-.248.031-.434-.03-.65-.062-.063-.03-.156-.186-.094-.186.527 0 .775-.713.744-.775-.03-.092-.496-.092-.682-.154-.124-.031.093.402-.155.464-.185.031-.093-.03-.278-.03a.373.373 0 0 1-.155-.156c-.031-.093 0-.185.062-.216.03-.031.062-.031.093-.093.03-.093-.093-.124-.155-.155-.217-.031-.558-.31-.682-.124-.062.279-.217.62.186 1.022.03.031 0 .093-.062.093l-.124-.03-.465-.31c-.093-.094-.031-.249 0-.372.093-.341.186-.62.31-.93.062-.124.093-.28.217-.372.186 0 .093.248.279.31Zm-1.116 2.696v.186c.279.31.62.527.992.65.279.218.558.373.867.528.093.062.155.124.093.248-.278.31-.805.186-1.208.186-.031-.031-.248-.062-.28-.062-.061.062.094.279.125.34.155.31.31.496.465.806 0 .062-.031.093-.062.155-.28.031-.496-.186-.744-.31-.155-.062-.248-.186-.372-.217-.279-.093-.65-.464-.93-.279-.093.062-.186 0-.279-.062 0-.216.155-.433.248-.62.124-.061.062-.31.248-.216.186.093-.03.34.186.372.186.093.93.433 1.085.62.062.03-.62-.9-.62-1.116 0-.093 1.27.093 1.27.03-.03-.092-.743-.402-.805-.433-.186 0-.403-.31-.65.124-.032.062-.156 0-.187-.062.031-.093.093-.155.124-.248.124-.217.062-.558.341-.682 0-.062.031 0 .093.062ZM54.545 40.6c.093.247.403.31.59.495.31.217.495.682.898.682.155 0 .341-.093.403.03.062.218-.186.218-.279.31-.155.187-.34.342-.496.528-.03.03-.093.03-.155 0-.062-.093.093-.248.031-.341-.093-.155-.465-.434-.62-.527-.279-.217-.372-.465-.712-.589-.186-.062-.372.217-.496 0 0-.279.279-.403.403-.62.124-.093.186-.248.31-.34.154.061.061.278.123.371Zm-18.843.712a.664.664 0 0 0 .496.558c.031.062-.03.124-.093.155-.124.062-.279.03-.434.062-.123.124-.154.062-.31.124-.061.03-.123 0-.154-.062v-.062c.124-.093.186-.124.217-.28.03-.247-.217-.464-.403-.588a.301.301 0 0 0-.28.031c-.123.093-.061.248 0 .403.094.217.094.403.125.65 0 .31-.062.59-.28.776-.185.092-.371.216-.62.154-.185 0-.34-.185-.464-.31-.124-.216-.279-.402-.372-.62 0-.154.155-.185.248-.247l.341-.093c.186.124-.093.217-.093.34-.031.187.062.342.217.435.124.062.279.03.403-.031.093-.062.03-.186.062-.31-.062-.403-.341-.775-.217-1.24a.609.609 0 0 1 .279-.403c.403-.155.837.031 1.147.28a.732.732 0 0 1 .185.278Zm14.66 2.541c-.031.124-.248.155-.155.28.093.216.062.464.248.65.093.248.185.682.402.868.124.155.28-.031.434 0 .062.03.093.124.093.186-.062.186-.279.124-.403.186-.402.155-.867.34-1.24.496-.092.03-.123.248-.278.155-.155-.155-.155-.403-.31-.59 0-.061-.031-.123.03-.154.094-.031.156.062.218.093.124 0 .124.186.248.124.093-.093.434-.217.434-.217l-.186-.527c-.062-.062-.124-.062-.186-.062-.124.093-.062.248-.186.31-.062 0-.093-.062-.124-.124-.093-.186-.124-.248-.093-.465.124-.124.248.062.403.031.062-.031.03-.124 0-.186-.186-.155-.124-.682-.496-.527-.155.062-.372.124-.434.31-.062.093-.031.279-.186.31-.062 0-.124 0-.124-.062-.03-.124.031-.186.062-.279 0-.093-.093-.279.031-.34.372-.156.775-.218 1.147-.373.124-.062.403-.279.558-.186l.093.093Z" fill="#BD2B30" fill-rule="nonzero"/><path d="M59.35 28.326a.21.21 0 0 0-.187-.124c-.248.093-.465-.03-.713-.03-.093-.032-.991-.062-1.332-.217-.31-.155-.372-.403-.372-.403-.031-.093-.217-.155-.248-.062a.636.636 0 0 0 .062.465c.093.216.124.371.217.588.03.062.093.093.155.062.062 0 .062-.248.03-.31.032-.062.156.031.218.031.124 0 .155.031.248.093.062.155.093.434.155.59 0 .123.062.247.03.371-.03.062-.185.186-.278.155-.124-.03-.155-.217-.28-.217-.092.031-.061.124-.061.186.062.155.03.775.124.93.03.062.093.155.186.124.279-.186 0-.186.248-.403.279-.217 1.27-1.116 1.456-1.209.093-.03.28-.248.341-.34 0-.094.031-.187 0-.28Zm-1.55.806c-.062 0-.062-.062-.093-.093l-.093-.62c.155-.124.743.062.991.062.186 0-.65.527-.805.651Zm-1.922-6.972c-.03-.094-.124-.094-.217-.094-.62.186-1.178.496-1.766.713-.186 0-.403.03-.558-.062-.062 0-.186-.062-.248 0-.031.093 0 .155.062.217.248.155.403.558.65.558.125 0-.03-.186.156-.28.279-.123.526.249.681.466.031.093 0 .186-.03.279-.032.062-.125 0-.218 0-.061 0-.123-.093-.185 0 0 .03-.031.124 0 .155.216.093.34.31.464.495.093.062.155.28.248.217.155-.124.062-.217.062-.34.031-.28.28-.62.403-.992.093-.496.434-.93.496-1.333Zm-1.054 1.115c-.155 0-.31-.217-.403-.341.093-.124.558-.341.651-.403.155-.031-.155.682-.248.744Zm-1.115 20.981c-.124-.465-.28-.96-.341-1.456-.031-.186-.062-.434-.031-.62.062-.124.186-.248.217-.403a.17.17 0 0 0-.155-.093c-.155.155-.341.248-.527.34-.093.156-.186.063-.248.249.031.093.155.093.248.093.093.03.062.124.062.186-.124.248-.403.403-.62.527a.17.17 0 0 1-.155-.093c-.124-.124-.03-.155-.062-.31-.03-.031-.062-.062-.124-.062-.217.186-.496.279-.713.496-.062.061-.155.061-.124.154.031.062.062.155.124.217.062.031.155.031.186 0 .465-.248.744.403 1.116.62.279.062.682.558.868.527a.612.612 0 0 0 .372-.186c.03-.03-.062-.093-.093-.186Zm-.496-.279c-.124-.03-.527-.527-.62-.558-.031-.03-.062 0-.093-.062v-.062c.093-.093.465-.464.558-.185.03.123.186.65.217.774.03.062 0 .093-.062.093Zm-19.06-4.556c-.124-.247-.279-.743-.434-.743-.217 0 0 .34-.186.465a.301.301 0 0 1-.279.03c-.217-.092-.217-.185-.34-.464-.063-.124-.218-.248-.094-.403.093-.093.124-.248.28-.248.061 0 .061.093.092.124.031.062.062.186.186.155.031 0 .093-.031.093-.093-.03-.28-.248-.465-.34-.713-.125-.124-.063-.403-.31-.434-.156.062-.032.248-.094.372-.186.217-.31.465-.527.682-.186.217-.371.496-.588.713l-.217.372c-.031.093-.124.247 0 .278.681.062 1.27.031 1.89.031.248 0 .558-.062.744.155.062.062.093.155.186.186.062.031.124.031.186-.03-.031-.187-.186-.31-.248-.435Zm-1.55-.216c-.186 0-.465 0-.62.03-.03-.03.434-.464.434-.495.124-.124.217.155.217.155s.062.248.155.279c0 0-.124.03-.186.03Z" fill="#BD2B30"/><path d="M55.692 26.343c-.124-.248-.186-.434-.186-.589 0-.155.124-.31.155-.465.062-.186.248-.34.403-.465.155-.124.341-.217.558-.279.186 0 .403-.093.558-.093.155 0 .31.062.434.124.155.062.217.186.34.31.372.496.434 1.054.248 1.147l-.062.031-.216.093c-.093.062-.155.062-.186.093s-.062.031-.093.031h-.062c-.031 0-.031-.031-.031-.031 0-.031.03-.062.093-.155.03-.031.062-.062.062-.093.093-.124.155-.124.186-.217.03-.093 0-.279 0-.34a.505.505 0 0 0-.341-.404c-.186-.062-.403-.03-.651.062-.28.093-.465.155-.62.341a.57.57 0 0 0-.124.62c.031.093.031.124.093.155.031.124.372.558.465.527.093.062-.062.186-.062.186-.124-.031-.775-.248-.96-.589Zm-15.62 20.362c-.062-.031-.093-.062-.124-.093-.03-.031-.03-.062 0-.093.031-.062.217-.062.217-.062.062 0 .124-.124.217-.341.031-.031.155-.434.186-.59 0-.03.062-.278.062-.31.062-.185 0-.309-.03-.402-.032-.093-.125-.186-.28-.248-.186-.062-.248-.03-.372 0-.124.062-.217.093-.248.248 0 .031-.124.217-.155.248l-.31.589c-.092.248-.154.434-.123.465 0 .03.03.03.062.062.062.062.124.155.093.186a.067.067 0 0 1-.062.062h-.093l-.682-.28c-.031-.03-.062-.03-.093-.061s-.031-.062 0-.093c.03-.031.062-.062.124-.062 0 0 .186.03.217.03.03 0 .434-.805.434-.805 0-.031.186-.434.217-.496.092-.217.216-.372.402-.434.186-.062.403-.062.682.062.341.124.558.248.682.434s.155.775.093.93c-.031.062-.062.248-.093.279l-.093.496c0 .03-.03.155-.03.186 0 .03-.032.124-.032.155 0 .03.062.093.062.093.062.061.062.092.062.154a.067.067 0 0 1-.062.062h-.093l-.837-.371Z" fill="#BD2B30" fill-rule="nonzero"/><path d="M61.736 30.775c-.124-.651-.124-1.364-.372-1.984-.186-1.053-.558-2.014-.9-2.975-.185-.372-.309-.744-.557-1.054-.124-.248-.279-.495-.403-.743-.279-.341-.403-.775-.65-1.116-.342-.341-.559-.775-.868-1.147-.28-.403-.682-.744-.992-1.146-.28-.124-.372-.465-.651-.62-.093-.217-.372-.248-.496-.465-.34-.31-.65-.651-1.023-.93-.557-.465-1.24-.589-1.766-1.085l-.465-.217c-.403-.31-.868-.403-1.302-.65a17.53 17.53 0 0 0-1.115-.496c-.31-.093-.59-.248-.9-.28-.092 0-.154-.092-.216-.061-.744 0-1.364-.28-2.046-.372-.62-.031-1.24-.124-1.859-.217-.279.03-.558-.031-.806.03-.496.032-.992.032-1.487.125-.713.124-1.457.186-2.108.496l-2.138.744a1.37 1.37 0 0 1-.496.186c-.434.123-.775.402-1.209.526-.465.28-.96.403-1.363.775-.465.186-.868.465-1.271.806-.465.217-.899.589-1.302.93-.403.496-.93.836-1.332 1.301-.155.217-.341.434-.465.651a7.277 7.277 0 0 0-.59.775c-.247.248-.433.558-.619.837-.217.403-.496.806-.713 1.208-.093.31-.248.59-.372.868-.217.341-.34.744-.496 1.116-.124.403-.31.806-.402 1.24-.031.155-.155.279-.124.433-.124.31-.155.682-.217 1.023-.031.558-.217 1.054-.217 1.612 0 .465-.031.96-.031 1.425.03.775 0 1.581.093 2.356.062.34.03.682.155.991.217.868.403 1.767.743 2.604.155.62.465 1.177.682 1.766.186.31.465.59.558.961.248.372.403.806.713 1.147.03.124.217.186.217.34.186.187.31.435.465.651.217.217.372.465.62.682.062.186.278.31.371.465.186.186.434.31.558.527.341.124.558.465.868.713.744.65 1.55 1.209 2.417 1.642.372.155.744.403 1.116.558.496.248 1.023.434 1.519.682.465.062.837.279 1.301.279.186 0 .31.124.496.124.62.124 1.24.31 1.86.403.991.03 2.045.217 3.037.03 1.364.032 2.634-.185 3.843-.526.558-.217 1.147-.34 1.735-.558.682-.372 1.426-.589 2.077-.96.186-.063.34-.218.496-.249.496-.247.93-.65 1.394-.96.682-.434 1.302-.93 1.922-1.457.527-.589 1.085-1.209 1.487-1.86.496-.62.961-1.27 1.302-1.952.062-.062.093-.155.124-.217.031-.186.124-.31.186-.465.155-.527.496-.96.65-1.487.125-.28.187-.59.28-.899a14.38 14.38 0 0 0 .496-1.643c.186-1.022.403-2.045.496-3.099.216-.775.062-1.456.062-2.138Zm-.465 2.727a19.26 19.26 0 0 1-.465 2.727c-.062.682-.465 1.147-.59 1.798-.154.372-.216.868-.464 1.209-.279.526-.527.991-.775 1.518-.34.651-1.766 2.975-3.16 3.843-.528.372-1.055.744-1.55 1.147l-.651.434c-.341.062-.527.372-.837.527-.217.155-.465.216-.682.31-.682.371-1.395.743-2.138.93-.558.247-1.209.31-1.767.557-.744.124-1.487.217-2.262.31-.775 0-1.55.155-2.294.031-.434-.124-.96-.093-1.425-.093-.217.031-.372-.093-.558-.124-.527-.093-.992-.279-1.55-.31-.62-.124-1.208-.372-1.797-.527-.124-.093-.28-.093-.403-.155-.589-.372-1.27-.558-1.86-.96l-.124-.062c-.464-.372-.96-.651-1.425-.961-.527-.434-1.116-.775-1.643-1.27-.34-.28-.62-.683-.899-.993-.247-.186-.433-.464-.65-.681-.434-.465-.651-1.023-1.054-1.519-.341-.465-.496-.96-.775-1.457-.155-.371-.372-.712-.496-1.115-.217-.59-.34-1.24-.62-1.829-.093-.403-.247-.806-.278-1.24-.093-.65-.248-1.27-.186-1.983-.062-.372-.093-.837-.031-1.209-.062-.155 0-.31.03-.465-.061-.31.094-.62 0-.93 0-.557.187-.991.187-1.58.061-.34.154-.713.185-1.085.093-.216.124-.433.248-.62.031-.371.217-.712.31-1.053.155-.434.341-.837.558-1.209.248-.434.434-.868.62-1.332.34-.465.558-.961.992-1.395.217-.403.527-.775.837-1.116.123-.34.495-.558.743-.837a7.4 7.4 0 0 1 1.705-1.27c.372-.217.713-.527 1.116-.744.062-.093.186-.093.278-.155.62-.403 1.271-.837 1.953-1.116.868-.465 1.797-.712 2.727-1.022a5.21 5.21 0 0 0 .992-.28c.31-.03.558-.123.837-.185.279-.062.62-.062.868-.186.62-.093 1.24.062 1.89.062.248.03.496-.062.744-.031.155 0 .31 0 .465-.031.496 0 .96.093 1.425.155.217.062.465.124.682.186.31 0 .558.186.837.248.31.124.62.124.93.217.743.31 1.518.588 2.262.93.527.402 1.147.557 1.674 1.022a18.7 18.7 0 0 1 1.27.899c.217.124.372.372.558.527.279.279.558.527.806.774.248.217.434.465.682.651.217.248.403.527.62.775.464.62.898 1.209 1.24 1.86.34.402.557.867.774 1.332.248.713.589 1.364.744 2.077.155.62.403 1.177.527 1.797.093.496.155 1.054.186 1.58.062.435.093.93.03 1.364 0 .496 0 .93-.123 1.333Z" fill="#BD2B30"/><path d="M59.814 31.054c-.186-.28-.217.155-.279.248a2.206 2.206 0 0 1-.65.124c-.435-.093-.745.093-1.178 0-.062-.031-.217.062-.248-.062-.062-.093-.124-.186-.248-.186a.067.067 0 0 0-.062.062c.093.34.062.836.093 1.177 0 .217.434.837.589.93.248.155.526.186.836.186.28 0 .527-.217.744-.403l.248-.31c.062-.093.031-.186.093-.279.031-.217.093-.496.093-.774-.031-.217.031-.496-.031-.713Zm-.465 1.518c-.31.434-.899.341-1.332.28-.155-.063-.31-.187-.372-.342-.031-.093-.062-.34 0-.403.217-.124.495-.062.712-.03.217.03.93-.094 1.023 0 0 .061 0 .402-.03.495Z" fill="#BD2B30"/><path d="M0 0h90v90H0z"/></g></svg>