<svg xmlns="http://www.w3.org/2000/svg" viewBox="0 0 90 90"><rect width="90" height="90" fill="#1A1A1A"/><g transform="translate(13 13)"><path fill="gold" d="M0.0383136501,0 L18.7736885,0 L18.7736885,0.0383463152 L18.7736885,18.7896944 C18.7736885,18.7896944 18.7736885,18.8280407 18.7353749,18.8280407 L0.0383136501,18.8280407 C0,18.7896944 0,18.7896944 0,18.7513481 L0.0383136501,0 C0,0 0,0 0.0383136501,0 Z"/><polygon fill="gold" points="22.61 0 41.38 0 41.38 18.79 22.61 18.79"/><polygon fill="gold" points="45.21 0 63.98 0 63.98 18.79 45.21 18.79"/><rect width="18.77" height="18.79" y="22.59" fill="#FC0"/><polygon fill="#FC0" points="22.61 22.59 41.38 22.59 41.38 41.34 22.61 41.34"/><path fill="#FC0" d="M45.3633617,22.5859796 L63.8305411,22.5859796 C63.9071684,22.5859796 63.9837957,22.6626723 63.9837957,22.7393649 L63.9837957,41.2222888 C63.9837957,41.2989814 63.9071684,41.3756741 63.8305411,41.3756741 L45.3633617,41.3756741 C45.2867344,41.3756741 45.2101071,41.2989814 45.2101071,41.2222888 L45.2101071,22.7393649 C45.2101071,22.6243259 45.2867344,22.5859796 45.3633617,22.5859796 Z"/><polygon fill="#FFBF00" points="0 45.21 18.77 45.21 18.77 64 0 64"/><path fill="#FFBF00" d="M22.6433672 45.2103056L41.3021148 45.2103056C41.3404285 45.2103056 41.3404285 45.2486519 41.3404285 45.2486519L41.3404285 63.9233074C41.3404285 63.9616537 41.3021148 63.9616537 41.3021148 63.9616537L22.6433672 63.9616537C22.6050536 63.9616537 22.6050536 63.9233074 22.6050536 63.9233074L22.6050536 45.2486519C22.6050536 45.2103056 22.6433672 45.2103056 22.6433672 45.2103056zM45.2484208 45.2103056L63.9071684 45.2103056C63.945482 45.2103056 63.945482 45.2486519 63.945482 45.2486519L63.945482 63.9233074C63.945482 63.9616537 63.9071684 63.9616537 63.9071684 63.9616537L45.2484208 63.9616537C45.2101071 63.9616537 45.2101071 63.9233074 45.2101071 63.9233074L45.2101071 45.2486519C45.2101071 45.2103056 45.2484208 45.2103056 45.2484208 45.2103056z"/></g></svg>