<svg xmlns="http://www.w3.org/2000/svg" viewBox="0 0 90 90"><path fill="#FFF" d="M0 0h90v90H0z"/><g transform="translate(10 30)"><ellipse fill="#BBD437" cx="67.216" cy="2.769" rx="2.784" ry="2.769"/><path d="M57.27 5.539a11.893 11.893 0 0 0-9.604 4.478 11.43 11.43 0 0 0-2.589-2.397v23.375h5.245V17.81c0-4.207 2.733-7.344 6.978-7.344a6.603 6.603 0 0 1 5.63 2.82V6.967a11.372 11.372 0 0 0-5.66-1.428Z" fill="#BBD437"/><path d="M43.6 17.969v13.026h-5.275V17.81c0-4.207-2.733-7.344-6.978-7.344-4.245 0-6.978 3.137-6.978 7.344V31h-5.183V17.81c0-4.207-2.733-7.344-6.978-7.344a6.522 6.522 0 0 0-5.666 2.775 7.87 7.87 0 0 0-1.318 4.534v13.22H0V7.533A10.818 10.818 0 0 1 2.456 9.93l.082.113a12.077 12.077 0 0 1 9.664-4.565c1.974-.01 3.912.49 5.63 1.448a10.346 10.346 0 0 1 3.938 3.917v.051-.05a10.59 10.59 0 0 1 9.536-5.295C38.57 5.54 43.6 10.94 43.6 17.97Zm20.842-4.524v-6.04c.954.648 5.517 3.469 5.517 8.14v15.43a7.792 7.792 0 0 1-2.933-2.342s0-.04 0 0l-.287-.382a11.846 11.846 0 0 1-1.23-2.178c-.067-.158-.128-.316-.195-.474a4.38 4.38 0 0 1-.17-.475 13.301 13.301 0 0 1-.677-4.259v-7.42h-.025Z" fill="#044D66"/></g></svg>