<svg xmlns="http://www.w3.org/2000/svg" viewBox="0 0 90 90"><path d="m29.434 64.67 1.426-.388 1.408-.376 1.39-.363 1.37-.35 1.35-.336 1.33-.322 1.308-.307c.216-.05.432-.1.646-.148l1.274-.284c.421-.091.839-.18 1.252-.267l1.227-.25c.202-.04.404-.08.604-.118l1.19-.223c.392-.072.78-.14 1.164-.205l1.137-.185c13.297-2.077 20.845.02 17.14 10.894l-.178.51-.014.044c-.896 2.572.288 3.43 2.56 3.274l.331-.029.346-.042.36-.056c.06-.01.122-.02.184-.032l.379-.074.193-.04.599-.142.412-.107.422-.118.65-.196.67-.216.455-.155.463-.163.705-.258.716-.275.97-.387.98-.41.74-.318 1.025-.454.511-.232.637-.293 1.137-.535 2.32-1.115 1.415-.675.614-.304.828-.428 1.011-.545 1.046-.58 2.194-1.245.669-.383V90H0V75.342l1.463-.613 2.11-.872 2.382-.966 2.071-.825 2.193-.857 1.711-.656 1.758-.663 1.193-.442 1.813-.661 1.222-.437 1.843-.645.615-.212 1.232-.417.616-.205 1.227-.402 1.221-.39.608-.19 1.206-.37.598-.178 1.185-.345c.392-.112.781-.221 1.167-.327Z" fill="#77777B"/><path d="M0 0h90v62.837l-1.578.893-2.077 1.15-1.572.85-1.36.72-.704.366-1.076.55-1.086.545-.725.355-.72.346-.711.334-.7.32-.683.303-.664.284c-.544.228-1.064.433-1.549.608l-.565.196c-1.185.393-2.11.569-2.602.412v-.002c-.446-.143-.487-.649-.35-1.391l.055-.272.067-.29.12-.466.373-1.4.094-.378.131-.585.078-.399.068-.404c.614-4.004-.554-8.677-13.114-8.677-2.106 0-4.409.113-6.848.316l-1.231.11-.624.06-1.262.13-.638.07-1.29.151-1.305.164-1.32.175-1.333.186-1.344.198-1.354.207-1.362.217-1.368.226-1.373.234-1.375.242-1.378.249-1.376.255-1.375.26-2.055.402-2.718.549-2.014.42-2.643.567-2.583.57-1.89.426-3.04.704-1.751.414-3.31.8-2.048.506-2.356.593L.32 67.31l-.32.084V0Z" fill="#7FBE42"/><path d="M71.628 71.067c-2.627-.838 8.81-14.262-12.478-14.262-17.552 0-48.738 7.836-59.15 10.589v7.948c6.096-2.572 19.02-7.819 29.434-10.673 23.909-6.552 40.72-8.427 35.052 7.238-.011.03-.018.058-.028.089-2.21 6.346 8.24 2.255 16.439-1.737 3.21-1.563 3.123-1.358 9.103-4.796v-2.626c-1.349.772-15.802 9.051-18.372 8.232v-.002ZM50.454 29.448c-1.275-1.33-2.451-1.694-3.654-1.694-3.577 0-5.956 2.71-5.956 6.12 0 3.656 2.379 6.36 5.956 6.36 1.398 0 2.746-.626 3.9-2.078l2.551 1.793C51.68 42.076 49.33 43 46.777 43c-5.343 0-9.17-3.58-9.17-8.929S41.429 25 46.777 25c2.351 0 4.363.748 6.079 2.71l-2.402 1.743v-.005Zm21.749 0c-1.276-1.33-2.451-1.694-3.655-1.694-3.576 0-5.955 2.71-5.955 6.12 0 3.656 2.379 6.36 5.955 6.36 1.399 0 2.747-.626 3.9-2.078L75 39.95C73.429 42.076 71.078 43 68.526 43c-5.343 0-9.17-3.58-9.17-8.929S63.178 25 68.526 25c2.351 0 4.362.748 6.078 2.71l-2.4 1.743v-.005ZM15 25.795h3.555l4.73 12.942 4.88-12.942h3.337l-7.014 17.132h-2.674z" fill="#FFF"/></svg>