<svg viewBox="0 0 90 90" xmlns="http://www.w3.org/2000/svg"><g fill="none"><path d="M0 21h90v43.72c0 1.812-1.483 3.28-3.313 3.28H3.313C1.483 68 0 66.532 0 64.72V21Z" fill="#00B336"/><path d="M20.688 44.775c-.618-.335-1.381-.077-1.699.566l-4.548 9.682c-.106.21-.2.352-.44.352s-.334-.143-.44-.352l-4.554-9.682a1.24 1.24 0 0 0-1.699-.566 1.334 1.334 0 0 0-.54 1.765l4.449 8.962.507 1.017c.44.89 1.314 1.446 2.282 1.446.964 0 1.838-.555 2.283-1.446l.507-1.017 4.448-8.962c.301-.638.062-1.43-.556-1.765Zm60.409-.143c-.857-.006-1.609.528-1.965 1.254-1.158 2.33-4.56 9.264-4.572 9.286-.027.044-.094.203-.244.203-.14 0-.217-.154-.245-.209-1.13-2.303-3.352-6.845-4.521-9.198-.452-.907-1.203-1.342-2.016-1.342-1.253 0-2.266 1.045-2.266 2.47v9.527c0 .578.334 1.116.852 1.287.84.27 1.559-.451 1.559-1.309L67.5 47.31c0-.094.117-.132.161-.05l4.644 9.286c.428.891 1.18 1.419 2.01 1.419.829 0 1.575-.533 2.01-1.419l4.649-9.28c.044-.088.166-.055.166.049l-.177 9.341c0 .737.556 1.336 1.24 1.309.663-.022 1.17-.649 1.17-1.37v-9.5c0-1.435-1.018-2.458-2.277-2.463ZM63.726 56.03l-5.117-9.974c-.445-.885-1.314-1.44-2.277-1.44-.602 0-1.17.214-1.62.593a2.692 2.692 0 0 0-.663.841l-5.094 9.925-.017.033-.006.016a1.374 1.374 0 0 0 .1 1.402c.006.011.017.022.023.033a.146.146 0 0 0 .028.033 1.217 1.217 0 0 0 1.66.253c.005-.006.01-.006.016-.011.028-.022.055-.039.078-.06a.32.32 0 0 0 .06-.061l.029-.027a1.28 1.28 0 0 0 .234-.325l.189-.396 1.063-2.205a.166.166 0 0 1 .145-.093h4.705c.629 0 1.141-.533 1.141-1.188 0-.654-.512-1.187-1.141-1.187h-3.513c-.078 0-.123-.077-.095-.149l.262-.55 1.92-3.826.006-.017c.005-.005.005-.016.011-.022.034-.066.134-.335.323-.39a.5.5 0 0 1 .284-.005c.195.06.284.296.368.467l4.665 9.567c.228.44.663.692 1.114.692.145 0 .29-.027.428-.077.011-.005.017-.005.028-.01l.1-.05c.011-.006.029-.011.04-.017.005-.005.01-.01.022-.01a.123.123 0 0 0 .027-.017c.017-.011.028-.022.045-.028.011-.01.022-.016.034-.027.016-.017.038-.028.055-.044a.446.446 0 0 0 .061-.055l.017-.017c.412-.384.535-1.033.262-1.577Zm-39.603-3.288h8.613c.162 0 1.498-.11 1.498-1.595 0-3.667-2.868-6.647-6.392-6.647-3.524 0-6.392 2.98-6.392 6.647 0 .083.006.314.006.352-.006 4.184 2.717 6.438 6.325 6.647.172.011.34.017.506.017 1.387 0 2.556-.358 3.825-1.15.129-.076.64-.412 1.159-1.077.412-.528.45-1.314 0-1.72-.646-.59-1.314-.27-1.91.225-.936.786-1.654 1.396-3.519 1.396-1.754 0-3.413-.99-3.808-2.963-.017-.066.022-.132.089-.132Zm-.1-2.452c.239-1.92 1.575-3.624 3.808-3.624 2.227 0 3.641 1.666 3.864 3.624.005.071-.04.137-.106.137h-7.455c-.072 0-.117-.066-.111-.137Zm14.27 2.452h8.613c.161 0 1.498-.11 1.498-1.595 0-3.667-2.868-6.647-6.392-6.647-3.525 0-6.392 2.98-6.392 6.647 0 .083.006.314.006.352-.006 4.184 2.717 6.438 6.325 6.647.172.011.34.017.506.017 1.387 0 2.556-.358 3.825-1.15.128-.076.64-.412 1.158-1.077.412-.528.451-1.314 0-1.72-.646-.59-1.314-.27-1.91.225-.935.786-1.653 1.396-3.518 1.396-1.754 0-3.413-.99-3.808-2.963-.023-.066.022-.132.089-.132Zm-.1-2.452c.239-1.92 1.575-3.624 3.808-3.624 2.227 0 3.641 1.666 3.864 3.624.005.071-.04.137-.106.137h-7.455c-.073 0-.123-.066-.112-.137Z" fill="#FFF"/></g></svg>