<svg viewBox="0 0 90 90" xmlns="http://www.w3.org/2000/svg"><g fill="none"><path fill="#FFF" d="M0 0h90v90H0z"/><g fill="#FF6333"><path d="M56.024 20c-.135.364-1.513 4.455-2.259 6.136h11.747c-4.18 11.387-10.143 21.796-17.801 30.932l-2.62 3.114-2.621-3.114c-7.658-9.136-13.622-19.545-17.801-30.932h11.16c-.746-1.681-2.124-5.772-2.26-6.136H15c6.145 16.727 14.91 32.023 26.16 45.432L45 70l3.84-4.568C60.09 52.022 68.855 36.727 75 20H56.024Z"/><path d="M52.952 30.114c-2.033 5.068-4.676 9.818-7.952 14.09-3.276-4.272-5.919-9.022-7.952-14.09h-6.167c2.892 7.863 7.026 15.068 12.312 21.363L45 53.637l1.807-2.16c5.286-6.318 9.42-13.5 12.312-21.363h-6.167Z"/></g></g></svg>