<svg xmlns="http://www.w3.org/2000/svg" viewBox="0 0 90 90" fill="none" fill-rule="evenodd" xmlns:v="https://vecta.io/nano"><path fill="#fff" opacity="0" d="M0 0h90v90H0z"/><g fill-rule="nonzero"><path fill="#fff" d="M86.237 43.132L77.516 28.41c-.602-1.173-1.804-1.911-3.116-1.911H8.013c-.93-.003-1.824.367-2.483 1.028a3.54 3.54 0 0 0-1.033 2.495v29.47c.011 1.945 1.584 3.515 3.516 3.509h66.384c1.312 0 2.514-.737 3.116-1.911l8.725-14.714a3.57 3.57 0 0 0 0-3.244h0z"/><path d="M89.573 43.226l-9.557-16.132A3.84 3.84 0 0 0 76.602 25H3.853a3.83 3.83 0 0 0-2.721 1.126A3.88 3.88 0 0 0 0 28.86v32.294C.012 63.286 1.736 65.006 3.853 65h72.745a3.84 3.84 0 0 0 3.414-2.094l9.561-16.125a3.91 3.91 0 0 0 0-3.555zM21.91 41.34l-7.376 15.2c-.058.142-.195.234-.347.234s-.289-.092-.347-.234L6.435 41.343c-.039-.075-.033-.166.016-.236s.132-.105.216-.093h2.841c.097 0 .191 0 .232.102l4.449 9.683 4.419-9.683c.046-.083.139-.128.232-.113h2.837a.22.22 0 0 1 .205.094c.046.067.052.154.016.226l.011.015zm15.505 7.057l-.022.664c-.012.133-.127.231-.259.223H25.553a5.4 5.4 0 0 0 1.286 3.736 4.55 4.55 0 0 0 3.56 1.558c1.84 0 3.632-1.204 4.557-2.785.072-.122.227-.162.349-.091l1.915 1.132c.123.072.165.231.094.355-1.714 2.692-4.133 4.039-7.256 4.042-2.129.071-4.172-.85-5.536-2.498-1.372-1.62-2.058-3.794-2.058-6.521a8.38 8.38 0 0 1 .622-3.042 6.96 6.96 0 0 1 3.834-4.075c.991-.418 2.055-.63 3.129-.623 3.281 0 5.491 1.391 6.63 4.174.511 1.182.761 2.462.735 3.751h0zm16.179 8.03c0 .143-.217.325-.375.325h-2.5c-.142 0-.225-.181-.225-.325V47.17c0-1.351-.251-2.332-.72-2.943-.532-.709-1.499-1.064-2.792-1.064-2.582 0-3.924 1.638-3.924 4.906v8.37c0 .14-.022.321-.165.321h-2.477c-.142 0-.176-.181-.176-.321V41.158c0-.143.034-.155.176-.155h2.492c.139 0 .165 0 .165.155v1.992c1.282-1.785 2.942-2.683 5.022-2.683 3.647.004 5.498 2.268 5.498 6.751v9.208zm18.462 0c0 .143-.116.325-.259.325h-2.492c-.168-.025-.301-.156-.33-.325v-2.302c-1.282 2.072-3.107 3.106-5.318 3.106-2.459 0-4.362-.928-5.742-2.777-1.199-1.578-1.84-3.515-1.821-5.502a9.99 9.99 0 0 1 .918-4.306 7.07 7.07 0 0 1 2.927-3.204 7.24 7.24 0 0 1 3.613-.97c1.108.008 2.194.31 3.148.875a5.64 5.64 0 0 1 2.249 2.302V32.962c0-.143.191-.219.33-.219h2.492c.142 0 .259.075.259.219l.026 23.464zm9.613-9.483c-.78.008-1.488-.46-1.793-1.183a1.95 1.95 0 0 1 .404-2.12c.549-.559 1.378-.729 2.1-.431A1.94 1.94 0 0 1 83.576 45c.002 1.07-.856 1.939-1.919 1.943h.011zm-15.333-2.906a4.91 4.91 0 0 0-2.605-.698c-1.999 0-3.408.99-4.228 2.97-.344.838-.519 1.735-.517 2.642-.071 1.713.643 3.365 1.938 4.479a4.06 4.06 0 0 0 2.743.921c2.164 0 3.663-.947 4.497-2.842.362-.832.545-1.733.536-2.642-.012-2.264-.801-3.874-2.365-4.83h0zm-36.076-.947c-1.107-.05-2.193.312-3.051 1.019a5.14 5.14 0 0 0-1.533 2.838h8.766c-.142-1.039-.604-2.007-1.323-2.766-.765-.742-1.798-1.137-2.86-1.091h0z" fill="#37af4a"/></g></svg>