<svg width="90" height="90" viewBox="0 0 90 90" xmlns="http://www.w3.org/2000/svg"><defs><radialGradient cx="34.298%" cy="18.818%" fx="34.298%" fy="18.818%" r="89.045%" id="a"><stop stop-color="#FF6E35" offset="0%"/><stop stop-color="#F34532" offset="23.897%"/><stop stop-color="#842C63" offset="61.258%"/><stop stop-color="#920573" offset="82.255%"/><stop stop-color="#490A68" offset="100%"/></radialGradient><linearGradient x1="0%" y1="-.18%" x2="71.689%" y2="100.18%" id="b"><stop stop-color="#FD8F53" offset="0%"/><stop stop-color="#D04E43" offset="0%"/><stop stop-color="#D70A52" offset="100%"/></linearGradient></defs><g fill="none" fill-rule="evenodd"><rect fill="#FFF" opacity="0" width="90" height="90"/><g fill-rule="nonzero"><path d="M45.002227,90 C20.1761557,90 0,69.8053724 0,45.0010907 C0,20.1950242 20.1757508,0 45.002227,0 C69.8256664,0 90,20.1964124 90,45.0008924 C90,69.8065622 69.8266787,90 45.0020245,90 L45.002227,90 L45.002227,90 Z M45.0021388,86 C67.5967836,86 86,67.6168757 86,45.000896 C86,22.3859118 67.5955614,4 45.0021388,4 C22.4056607,4 4,22.3847172 4,45.000896 C4,67.615681 22.4058644,86 45.0021388,86 Z" fill="url(#a)"/><path d="M58.8398191,5.25157489 C59.1502094,5.25157489 59.3519235,5.57104801 59.2388923,5.86831071 L57.7009956,9.35970968 C57.6309435,9.51858556 57.4712125,9.61855679 57.2979633,9.61195661 L53.4400575,9.61195661 C53.2828829,9.61195661 53.1276877,9.7279664 53.0611755,9.88681058 L52.3536915,11.4839779 C52.322415,11.5533854 52.3279577,11.6344931 52.368538,11.698943 C52.4093163,11.7633929 52.4793917,11.8026578 52.5552077,11.803451 L55.9615827,11.803451 C56.2719729,11.803451 56.4734891,12.149299 56.3626354,12.4221699 L54.8227591,15.938159 C54.7456588,16.0907506 54.5904292,16.1879045 54.4197269,16.1904059 L50.5638006,16.1904059 C50.3907173,16.1822871 50.2305103,16.281768 50.1607684,16.4406697 L38.2728997,43.5024821 C38.2235647,43.6441724 38.0880764,43.7373367 37.9383592,43.7326971 L32.5605704,43.7326971 L21.3619741,43.712093 C21.1889113,43.7174993 21.0300312,43.6167056 20.9609213,43.4576647 L10.7881174,20.3027051 C10.7224577,20.1700508 10.7294863,20.0128967 10.8067249,19.8866563 C10.8835042,19.7609019 11.0200486,19.6842071 11.1671973,19.6841845 L27.3403522,19.6841845 C27.4975269,19.6841845 27.652722,19.7756042 27.7212138,19.9364315 L29.6379925,24.2989946 L40.1896785,0.247884171 C40.2676287,0.0966713215 40.422833,0.00121324998 40.5927108,3.55271368e-15 L56.7436949,3.55271368e-15 C56.8896594,0.000772359286 57.0248938,0.0769450513 57.101396,0.201480254 C57.1785976,0.326413876 57.1865157,0.482283443 57.1225769,0.614554436 L55.2279689,4.9301187 C55.1947128,4.99952627 55.1990678,5.08122889 55.2396481,5.14667031 C55.2800305,5.21211173 55.3510957,5.2517732 55.4275055,5.2517732 L58.8398191,5.2517732 L58.8398191,5.25157489 L58.8398191,5.25157489 Z M31.6636454,9.36803859 C31.5971141,9.52514451 31.4430416,9.62697531 31.2726883,9.6264352 L1.96000804,9.6264352 C1.78996852,9.62592767 1.63642013,9.52444326 1.56905089,9.36803859 L0.0370927311,5.8599818 C-0.021863638,5.72549512 -0.00998399728,5.57041143 0.0687652089,5.446511 C0.147020915,5.32298317 0.282217416,5.24735836 0.428247832,5.24542736 L3.83838392,5.24542736 C3.9955586,5.24542736 4.09631667,5.08281535 4.03396147,4.93606792 L2.13341485,0.616735817 C2.07347669,0.482034746 2.08484684,0.326215591 2.16370166,0.201678561 C2.2420464,0.0775723064 2.37780285,0.00166042143 2.524372,0 L18.6753561,0 C18.8446059,0 18.9978216,0.101731664 19.0663133,0.256411386 L21.1444237,4.9870329 C21.214895,5.1436957 21.3661311,5.24542736 21.5334014,5.24542736 L32.8206806,5.24542736 C33.1271119,5.24542736 33.3345666,5.57104801 33.2076787,5.86216318 L31.6636454,9.36784028 L31.6636454,9.36803859 L31.6636454,9.36803859 Z M28.8016412,15.9240791 C28.7348469,16.0813262 28.5810711,16.1836891 28.4104861,16.1844567 L4.83626493,16.1844567 C4.66698805,16.1825191 4.5149849,16.0801714 4.44926684,15.9238808 L2.91750663,12.4344649 C2.85661457,12.3001567 2.86725293,12.144171 2.94581391,12.0194077 C3.0239454,11.8951022 3.15985665,11.8191785 3.30648425,11.8179274 L29.9404647,11.8179274 C30.250855,11.8179274 30.4583097,12.1433498 30.3314218,12.4344649 L28.7996616,15.9238808 L28.8016412,15.9238808 L28.8016412,15.9240791 Z" transform="translate(15.423 24.087)" fill="url(#b)"/></g></g></svg>