<svg viewBox="0 0 90 90" xmlns="http://www.w3.org/2000/svg"><defs><linearGradient x1="100%" y1="26.642%" x2="25.543%" y2="51.235%" id="a"><stop stop-color="#00D1EC" offset="0%"/><stop stop-color="#2F0889" offset="73.987%"/><stop stop-color="#39007E" offset="100%"/></linearGradient></defs><path d="M.27 13.977c2.75 3.928 8.667 12.72 11.42 16.647 5.565 7.939 11.123 15.878 16.675 23.817A14937.992 14937.992 0 0 1 42.847 75.12c.057.08.12.157.186.229.308.455.71.837 1.18 1.122a3.69 3.69 0 0 0 5.006-1.164c.063-.062.104-.145.166-.208 3.807-5.362 7.62-10.731 11.44-16.107.377-.55.572-1.204.559-1.87a2.977 2.977 0 0 0-.558-1.975c-3.517-4.863-7.034-9.733-10.551-14.61-4.8-6.63-9.594-13.266-14.38-19.91h13.51c4.386 5.55 8.779 11.092 13.179 16.627 1.345 1.704 2.69 3.387 4.034 5.092.064.099.14.19.227.27.043.062.083.104.124.166a3.185 3.185 0 0 0 2.566 1.122c.314 0 .627-.042.93-.124a3.961 3.961 0 0 0 1.863-.998 4 4 0 0 0 .579-.748l.02-.02 13.18-18.519c1.116-1.558 2.214-3.117 3.331-4.676a3.36 3.36 0 0 0 .373-2.972A3.838 3.838 0 0 0 86.148 13H65.046l4.552 7.607h9.269c-3.062 4.302-6.104 8.584-9.166 12.886-.082.104-.144.208-.227.311-3.724-4.697-7.441-9.387-11.151-14.07-1.242-1.558-2.483-3.137-3.724-4.697a3.935 3.935 0 0 0-1.035-1.226 2.592 2.592 0 0 0-.725-.437 3.634 3.634 0 0 0-1.572-.353H28.551a3.829 3.829 0 0 0-3.745 3.263 3.157 3.157 0 0 0 .476 2.535c3.517 4.864 7.034 9.734 10.55 14.61a31296.7 31296.7 0 0 0 15.89 21.989c.392.561.806 1.102 1.2 1.663a5771.9 5771.9 0 0 1-6.764 9.518c-1.676-2.37-3.331-4.76-5.007-7.128-5.566-7.94-11.124-15.879-16.676-23.818-4.034-5.777-11.255-16.397-15.31-22.177H0c.068.178.158.346.27.5Z" fill="url(#a)"/></svg>