<svg viewBox="0 0 90 90" xmlns="http://www.w3.org/2000/svg"><g fill="none"><path fill="#3AB549" d="M0 0h90v90H0z"/><path d="M53.265 18.474h10.82c2.661.015 5.354.957 7.292 2.836 1.548 1.479 2.6 3.438 3.139 5.513.696 2.604.408 5.325.472 7.985-.05 2.515.104 5.038-.086 7.545-.525-3.26-2.138-6.468-4.883-8.372-2.318-1.688-5.223-2.292-8.033-2.338-7.226-.01-14.454.014-21.68-.011 4.275-4.431 8.645-8.768 12.96-13.158Zm8.732 40.91c4.34 4.36 8.633 8.767 12.983 13.11.015-5.915 0-11.828 0-17.742a42.82 42.82 0 0 0-1.575-10.82c-.768-2.983-1.863-6.123-4.271-8.163-1.986-1.683-4.63-2.195-7.156-2.277.012 8.63.018 17.261.02 25.891v.002ZM0 0v18.189c12.503 12.643 31.264 31.61 56.285 56.898 1.494 1.465 2.863 3.156 4.778 4.076 1.854.991 4.051.956 6.069.637 2.961-.684 5.617-2.367 7.842-4.423L0 0Z" fill="#FFF" opacity=".915"/></g></svg>