<svg viewBox="0 0 90 90" xmlns="http://www.w3.org/2000/svg"><g fill="none"><path fill="#FFF" d="M0 0h90v90H0z"/><path d="M68.342 15h-.391c-3.307 0-5.918 1.67-7.31 4.788L48.328 51.545 36.014 19.744l-.087-.176c-.565-1.23-1.696-2.855-3.785-3.777a11.972 11.972 0 0 0-.696-.264c-.13-.044-.218-.088-.348-.088-.783-.263-1.523-.351-2.306-.351H28.4c-.652 0-8.05 1.493-8.05 1.493-2.088.396-3.828 1.582-5.046 3.382-1.175 1.801-1.567 3.822-1.131 6.062.435 2.24 1.653 4.04 3.48 5.183 1.74 1.098 3.742 1.45 5.787 1.054l.522-.088 15.36 37.204a11.18 11.18 0 0 0 3.219 3.821A8.744 8.744 0 0 0 47.893 75h1c2.089 0 3.916-.615 5.483-1.845 1.348-1.054 2.393-2.328 3.176-3.997L75.26 26.596c.479-1.23.74-2.636.74-4.129 0-1.757-.783-3.426-2.35-5.007-1.61-1.625-3.437-2.46-5.308-2.46" fill="#FFA801"/></g></svg>