<svg viewBox="0 0 90 90" xmlns="http://www.w3.org/2000/svg"><g fill="none" fill-rule="evenodd"><path fill="#FFF" d="M0 0h90v90H0z"/><path d="M68.384 17.012c-9.149-.3-15.341 4.855-18.588 15.466 1.67-.714 3.299-1.076 4.886-1.076 3.35 0 4.833 1.884 4.44 5.641-.198 2.278-1.681 5.59-4.44 9.949-2.77 4.358-4.844 6.532-6.224 6.532-1.784 0-3.412-3.344-4.885-10.062-.508-1.978-1.39-7.009-2.676-15.104-1.182-7.505-4.346-11.014-9.48-10.517-2.178.196-5.435 2.173-9.781 5.91A794.927 794.927 0 0 1 12 32.334l3.112 3.996c2.956-2.07 4.688-3.105 5.175-3.105 2.272 0 4.388 3.55 6.359 10.641 1.773 6.501 3.557 12.992 5.331 19.504C34.632 70.459 37.889 74 41.737 74c6.213 0 13.795-5.818 22.778-17.464 8.67-11.149 13.162-19.938 13.453-26.346.394-8.592-2.801-12.98-9.584-13.178Z" fill="#00ADEF" fill-rule="nonzero"/></g></svg>