<svg viewBox="0 0 90 90" xmlns="http://www.w3.org/2000/svg"><defs><linearGradient x1="48.826%" y1="99.35%" x2="51.033%" y2=".726%" id="b"><stop stop-color="#B61620" offset="0%"/><stop stop-color="#B71620" offset=".7%"/><stop stop-color="#CF101A" offset="17.46%"/><stop stop-color="#DE0915" offset="34.02%"/><stop stop-color="#E30613" offset="50%"/><stop stop-color="#DE0915" offset="65.98%"/><stop stop-color="#CF101A" offset="82.54%"/><stop stop-color="#B71620" offset="99.3%"/><stop stop-color="#B61620" offset="100%"/></linearGradient><linearGradient x1="50.09%" y1="51.87%" x2="50.09%" y2="48.12%" id="c"><stop stop-color="#6D100A" offset="0%"/><stop stop-color="#BE1622" offset="50%"/><stop stop-color="#6D100A" offset="100%"/></linearGradient><linearGradient x1="50.007%" y1="99.998%" x2="50.007%" y2="1.608%" id="d"><stop stop-color="#6D100A" offset="0%"/><stop stop-color="#BE1622" offset="50%"/><stop stop-color="#6D100A" offset="100%"/></linearGradient><linearGradient x1="48.454%" y1="99.287%" x2="50.952%" y2=".928%" id="e"><stop stop-color="#B61620" offset="0%"/><stop stop-color="#B71620" offset=".7%"/><stop stop-color="#CF101A" offset="17.46%"/><stop stop-color="#DE0915" offset="34.02%"/><stop stop-color="#E30613" offset="50%"/><stop stop-color="#DE0915" offset="65.98%"/><stop stop-color="#CF101A" offset="82.54%"/><stop stop-color="#B71620" offset="99.3%"/><stop stop-color="#B61620" offset="100%"/></linearGradient><linearGradient x1="49.998%" y1="100.003%" x2="49.998%" y2="1.61%" id="f"><stop stop-color="#6D100A" offset="0%"/><stop stop-color="#BE1622" offset="50%"/><stop stop-color="#6D100A" offset="100%"/></linearGradient><radialGradient cx="26.515%" cy="74.608%" fx="26.515%" fy="74.608%" r="87.097%" gradientTransform="scale(1 .62037) rotate(-6.574 4.24 .974)" id="a"><stop stop-color="#E30613" offset="30%"/><stop stop-color="#B61620" offset="100%"/></radialGradient></defs><g fill="none"><path fill="#FFF" d="M0 0h90v90H0z"/><path d="M48.208 74.041a87.842 87.842 0 0 1-.662-2.538 142.216 142.216 0 0 1-1.174-5.14 84.639 84.639 0 0 1-.454-2.312h2.412c.078.546.163 1.135.262 1.764a125.505 125.505 0 0 0 .667 3.806c.118.629.233 1.22.347 1.766.255-.5.526-1.047.819-1.642a101.319 101.319 0 0 0 1.745-3.806c.285-.654.545-1.284.782-1.888h2.397c-.305.69-.64 1.435-1.004 2.233a89.937 89.937 0 0 1-2.52 5.096c-.477.89-.979 1.776-1.508 2.66h-2.11v.001Zm8.313-9.99h2.253l-1.537 9.99h-2.24zm6.893-.117c.607 0 1.158.065 1.656.194.5.131.927.318 1.286.564.357.246.645.546.858.9.214.356.34.756.382 1.198.062.72-.026 1.33-.26 1.83a2.9 2.9 0 0 1-1.05 1.211c-.464.309-1.022.528-1.675.663-.654.135-1.37.2-2.15.2h-.563l-.516 3.347h-2.24l1.491-9.847a14.462 14.462 0 0 1 1.464-.201 16.09 16.09 0 0 1 1.317-.059Zm-.022 1.89c-.165 0-.302.005-.417.014-.116.01-.23.018-.344.03l-.437 2.939h.566c.403 0 .768-.032 1.097-.093.324-.063.6-.166.825-.311a1.37 1.37 0 0 0 .5-.555c.11-.225.15-.5.122-.828-.04-.433-.221-.74-.55-.922-.332-.183-.783-.273-1.362-.273Zm12.787-1.773-.174 1.167h-3.016l-1.35 8.822h-1.401l1.35-8.822h-3.019l.172-1.167zm1.96 10.177c-.491 0-.92-.07-1.29-.21a2.834 2.834 0 0 1-.944-.576 2.567 2.567 0 0 1-.609-.859 3.233 3.233 0 0 1-.267-1.038 6.1 6.1 0 0 1 .133-1.943c.148-.626.39-1.179.723-1.66.333-.48.757-.861 1.27-1.145.515-.284 1.115-.427 1.798-.427.395 0 .738.053 1.033.152.291.1.536.238.727.412.195.171.345.369.45.598.106.225.17.458.193.7.037.45-.01.835-.145 1.152a2.045 2.045 0 0 1-.582.785 2.769 2.769 0 0 1-.904.482c-.35.116-.72.206-1.103.266-.384.064-.775.108-1.172.138-.398.03-.773.054-1.129.073-.002.077-.002.139.002.187l.012.115c.018.221.062.431.133.627.07.199.184.37.343.52.158.148.367.265.63.354.262.085.602.128 1.014.128.187 0 .373-.015.568-.05a5.218 5.218 0 0 0 1.007-.288 1.24 1.24 0 0 0 .287-.151l.216 1.14c-.182.105-.483.219-.901.338-.418.12-.914.18-1.493.18Zm-1.732-4.123a18.491 18.491 0 0 0 1.523-.109 4.566 4.566 0 0 0 1.172-.273c.326-.129.573-.305.742-.526.17-.22.238-.51.206-.866a.861.861 0 0 0-.075-.273.764.764 0 0 0-.196-.267 1.083 1.083 0 0 0-.35-.202 1.625 1.625 0 0 0-.547-.08c-.34 0-.647.073-.929.218-.28.144-.526.334-.738.568-.21.237-.38.51-.52.823a3.969 3.969 0 0 0-.288.987Zm7.393.633c-.03.212-.06.42-.091.621-.03.203-.036.395-.023.577.03.327.132.587.308.779.176.19.483.31.92.36l-.209 1.094a3.073 3.073 0 0 1-1.019-.178 2.021 2.021 0 0 1-.703-.441 1.872 1.872 0 0 1-.424-.649c-.1-.25-.16-.523-.188-.82a4.533 4.533 0 0 1-.004-.693 7.63 7.63 0 0 1 .095-.75l1.157-7.554 1.381-.23-1.2 7.884Z" fill="#E30613"/><path d="M25.492 50.466C8.012 30.564 27.312.286 16.21.003 6.222-.253-6.324 15.563 3.659 39.158c13.273 31.372 30.577 22.519 33.563 4.818-6.682 12.484-10.08 8.368-11.73 6.49Z" fill="url(#a)" transform="translate(5 15)"/><path d="M47.266 22.794c-.741-9.707 6.622-5.551 15.322 16.379 3.8 9.57 14.866-.774 7.634-10.899-14.436-20.22-25.904-17.969-22.956-5.48Z" fill="url(#b)" transform="translate(5 15)"/><path d="m.465 1.401-.005.001.005.02v-.02Z" fill="url(#c)" transform="translate(51.34 32.853)"/><path d="M.926 4.941c.113 1.35 1.198 4.738-.926 8.805 4.606 5.848 6.75 7.126 8.013.458.373-4.041-.328-7.342-1.31-11.147C2.876-1.688.486-.794.925 4.941Z" fill="url(#d)" transform="translate(51.34 32.853)"/><path d="M38.398 21.12c-9.402-12.21-16.151-5.116-11.882 4.72-2.517-9.105 6.115.225 9.14 6.168 6.202 12.185 16.184 19.906 18.7.04-1.84 9.71-5.535 2.61-15.958-10.928Z" fill="url(#e)" transform="translate(5 15)"/><path d="M37.34 35.048c-.247-.41-.489-.827-.726-1.25l-.006-.01c-.243-.432-.48-.87-.71-1.316a2.002 2.002 0 0 1-.242-.463v-.001c-.084-.164-.172-.33-.262-.499-.037-.066-.075-.131-.111-.2a10.12 10.12 0 0 0-.17-.296c-.047-.086-.097-.17-.146-.255l-.145-.241c-.1-.163-.2-.33-.305-.497-.054-.086-.108-.174-.165-.262l-.147-.226c-.1-.152-.199-.305-.303-.458a.082.082 0 0 0-.016-.023c-3.685-5.456-9.492-10.89-7.37-3.212v-.001l.247.787c1.404 4.77 3.23 13.913-1.883 23.114.201.244.402.486.612.727 1.65 1.878 5.048 5.994 11.73-6.487v-.003c.333-1.863.353-5.795.127-8.913-.002-.005-.007-.01-.01-.015Z" fill="url(#f)" transform="translate(5 15)"/></g></svg>