<svg xmlns="http://www.w3.org/2000/svg" viewBox="0 0 90 90"><path fill="#FFF" d="M0 0h90v90H0z"/><path fill="#5E6185" d="M7.63 19.04c-1.36.78-1.36 2.07 0 2.85l13.4 7.72c1.36.78 3.14.32 3.92-1.05L40.43 1.83c.79-1.35.3-1.83-1.05-1.05L7.63 19.04z"/><path fill="#464C6B" d="M82.39 21.89c1.35-.78 1.35-2.07 0-2.85L50.62.78C49.26 0 48.78.46 49.57 1.83l15.5 26.71a2.9 2.9 0 003.92 1.05l13.4-7.7z"/><path fill="#C1C4E3" d="M46.43 1.01c-.78-1.35-2.08-1.35-2.86 0L27.34 28.98c-.79 1.35-.14 2.47 1.43 2.47h32.44c1.59 0 2.22-1.1 1.43-2.47L46.44 1zM24.91 37.74c-.63-1.44-1.78-1.5-2.58-.15L6.01 65.71c-.79 1.35-.2 2.83 1.32 3.27l32.9 9.47c1.5.44 2.23-.38 1.6-1.83L24.9 37.74zm57.76 31.22c1.51-.44 2.1-1.9 1.32-3.27L67.65 37.6c-.78-1.35-1.95-1.3-2.58.15L48.15 76.6c-.63 1.45.1 2.27 1.6 1.83l32.92-9.47z"/><path fill="#666E9C" d="M43.87 75.5c.63 1.45 1.65 1.45 2.28 0L63.2 36.34c.63-1.45-.16-2.63-1.72-2.63H28.54c-1.58 0-2.35 1.18-1.72 2.63L43.87 75.5z"/><path fill="#5E6185" d="M84.57 62.14c.78 1.35 1.43 1.17 1.43-.38V25.29c0-1.58-1.1-2.2-2.48-1.43l-13.38 7.72a2.87 2.87 0 00-1.06 3.9l15.49 26.66z"/><path fill="#464C6B" d="M6.48 23.86C5.13 23.1 4 23.71 4 25.3v36.47c0 1.57.65 1.75 1.43.38l15.5-26.68a2.85 2.85 0 00-1.05-3.9l-13.4-7.7zm42.42 57.2a4.04 4.04 0 00-2.75 3.64v3.54c0 1.58 1.1 2.2 2.48 1.43L75.93 74c1.35-.78 1.24-1.06-.27-.63L48.9 81.05z"/><path fill="#5E6185" d="M41.37 89.67c1.36.78 2.48.15 2.48-1.43V84.7a4.04 4.04 0 00-2.75-3.65l-26.74-7.68c-1.51-.43-1.64-.15-.27.63l27.28 15.67z"/></svg>