<svg viewBox="0 0 90 90" xmlns="http://www.w3.org/2000/svg"><g fill="none"><path fill="#FFF" d="M0 0h90v90H0z"/><path d="M59.256 17h-9.028c-2.29 0-2.925.638-3.56 2.679L35.222 54.886 23.65 19.68c-.634-2.042-1.27-2.68-3.432-2.68h-9.537c-1.653 0-1.907 1.403-1.526 2.424l18.311 51.025C28.483 72.617 29.12 73 30.9 73h8.139c1.907 0 2.416-.383 3.433-2.551l18.184-51.025c.508-1.02.127-2.424-1.4-2.424" fill="#000"/><path d="M81 45.83V34.603c0-1.914-.89-2.424-2.416-2.424h-9.028c-1.526 0-2.416.51-2.416 2.424v11.225c0 1.914.89 2.424 2.416 2.424h9.028C80.11 48.38 81 47.87 81 45.829" fill="#E74B18"/><path d="M81 70.449V59.223c0-1.913-.89-2.423-2.416-2.423h-9.028c-1.526 0-2.416.51-2.416 2.423V70.45c0 1.913.89 2.423 2.416 2.423h9.028C80.11 73 81 72.49 81 70.45" fill="#000"/></g></svg>