<svg viewBox="0 0 90 90" xmlns="http://www.w3.org/2000/svg"><g fill="none"><path fill="#EDF1FE" d="M0 0h90v90H0z"/><path d="M25.86 43.241h-.087l-.179-1.452h-1.427v9.798h1.872v-6.222c.445-1.194 1.36-1.853 2.648-1.995v-1.613c-1.34-.052-2.316.613-2.827 1.484Zm-8.668-5.235L12.307 48.87l-.086.258h-.08l-.086-.258-4.918-10.864H5l6.312 13.58h1.738l6.279-13.58zm27.443 9.579c0 2.64-1.44 4.415-4.208 4.415-2.768 0-4.221-1.775-4.208-4.415v-5.829h1.925v5.655c0 2.059 1.029 2.866 2.283 2.866s2.25-.807 2.283-2.866v-5.655h1.925v5.829Zm-23.521-5.829h-1.958v9.83h1.958zm8.894 6.236c0 2.317 1.142 3.692 3.53 3.692h.532V50.07c-1.706-.032-2.17-.807-2.17-2.691v-4.041h2.468v-1.581H31.9V38h-1.892v9.992Zm35.161-6.242H58.79v1.55h3.55l-3.796 8.28h6.922v-1.549h-4.141zm7.984 0h-6.378v1.55h3.55l-3.795 8.28h6.942v-1.549H69.33zm-21.105-.387c-3.08 0-5.415 2.317-5.415 5.318 0 2.995 2.336 5.319 5.415 5.319 3.08 0 5.416-2.317 5.416-5.319 0-2.994-2.336-5.318-5.416-5.318Zm0 8.914c-1.97 0-3.411-1.627-3.411-3.596 0-1.962 1.44-3.595 3.411-3.595s3.411 1.627 3.411 3.595c0 1.97-1.44 3.596-3.41 3.596Zm27.536-8.914c-3.08 0-5.415 2.317-5.415 5.318 0 2.995 2.336 5.319 5.415 5.319C82.664 52 85 49.683 85 46.681c0-2.995-2.336-5.318-5.416-5.318Zm0 8.914c-1.97 0-3.41-1.627-3.41-3.596 0-1.962 1.44-3.595 3.41-3.595 1.971 0 3.412 1.627 3.412 3.595 0 1.97-1.44 3.596-3.412 3.596Z" fill="#000"/></g></svg>