<svg viewBox="0 0 90 90" xmlns="http://www.w3.org/2000/svg"><path d="M90 23.787 64.634 66.99 51.359 67s-3.962-10.216-10.546-19.35c-1.233-1.711-3.463-4.779-6.955-8.2a57.597 57.597 0 0 0-16.054-11.091c13.021 1.317 22.96 10.796 25.807 13.716 0 0-12.18-22.84-43.611-13.903 23.645-9.44 39.003-.806 47.534 8.377a54.475 54.475 0 0 1 4.627 5.762l.325.467c2.57 3.734 4.417 7.281 5.544 9.65l16.611-28.641H90ZM57.316 23c4.158 0 7.523 3.48 7.523 7.768 0 4.287-3.365 7.767-7.523 7.767-4.148 0-7.513-3.48-7.513-7.767 0-4.287 3.365-7.768 7.513-7.768Z" fill="#13A5D1"/></svg>