<svg viewBox="0 0 90 90" xmlns="http://www.w3.org/2000/svg"><g fill="none" fill-rule="evenodd"><path d="M45 90c19.719 0 30.682 0 37.84-7.16C90 75.68 90 64.717 90 45c0-19.719 0-30.682-7.16-37.84C75.682 0 64.72 0 45 0 25.281 0 14.32 0 7.16 7.16 0 14.318 0 25.28 0 45c0 19.718 0 30.68 7.16 37.84C14.32 90 25.28 90 45 90Z" fill="#4C70F0"/><path d="M66.225 36.4c-5.504 9.58-11.014 19.151-16.511 28.735-1.021 1.78-2.505 2.857-4.542 3.004-2.282.165-4.074-.798-5.224-2.778-3.483-6.003-6.927-12.03-10.386-18.047-2.104-3.661-4.215-7.318-6.31-10.984-2.112-3.698.27-8.192 4.51-8.41 2.24-.115 3.965.918 5.102 2.865 1.553 2.664 3.077 5.344 4.614 8.015 1.108 1.926 2.194 3.864 3.334 5.769 1.65 2.764 4.076 4.324 7.303 4.517 4.57.273 8.814-3.04 9.36-7.91.042-.364.069-.727.085-.914-.024-1.575-.319-2.903-.943-4.155-1.706-3.424.111-7.26 3.822-8.083 3.02-.67 6.146 1.555 6.547 4.627.175 1.35-.092 2.587-.76 3.75Zm2-15.367c-13.034-13.045-34.166-13.045-47.2 0-13.033 13.045-13.033 34.195 0 47.238 13.034 13.045 34.166 13.045 47.2 0 13.033-13.043 13.033-34.193 0-47.238Z" fill="#FFF"/></g></svg>