<svg width="90" height="90" viewBox="0 0 90 90" xmlns="http://www.w3.org/2000/svg"><g fill="none" fill-rule="evenodd"><rect fill="#212720" width="90" height="90"/><path d="M43.2156803,21.5223472 C46.4708028,24.5045288 49.7155644,27.4981205 52.968885,30.4822019 C55.1295818,32.4639827 57.3076219,34.4273426 59.4572821,36.4205447 C59.8703664,36.8033153 60.2287182,37.2597024 60.539545,37.7288218 C60.9924963,38.4124581 60.9564584,39.2243511 60.9692969,39.9975138 C60.9997038,41.8167738 60.9803335,43.6366559 60.9803335,45.4565158 C60.9803335,49.921061 60.9848382,54.385384 60.975153,58.8503736 C60.9738016,59.418552 60.9192943,59.9878415 60.8535251,60.5533536 C60.7699623,61.276409 60.2809731,61.7861475 59.5415207,61.8972501 C59.0563606,61.9703556 58.5603891,61.995687 58.0686971,61.9963536 L50.0254762,61.9999922 L50.0254762,61.9999922 L41.9828465,61.9994645 C36.6423239,61.9994645 31.3018012,62.0014643 25.9612786,61.995687 C25.4909165,61.9950204 25.0167097,61.9741331 24.5515033,61.9125823 C23.6706381,61.796369 23.1796969,61.2910745 23.0876856,60.4278077 C23.0381409,59.9662876 23.0046822,59.5003235 23.0040388,59.0363592 C22.9988913,52.9423839 22.9988913,46.8486308 23.0027519,40.7547888 C23.0033953,40.2266517 23.0658088,39.697248 23.0535834,39.1697553 C23.0304196,38.1128589 23.5406652,37.3155647 24.2831899,36.6325506 C26.5513089,34.5454002 28.8329354,32.4722265 31.0997638,30.3831873 C33.6439038,28.037679 36.1751827,25.6788606 38.7174082,23.3314635 C39.3865868,22.7138222 40.069257,22.1107841 40.752603,21.5083816 C41.521494,20.8304418 42.4564069,20.8259984 43.2156803,21.5223472 Z M68.1557028,52.3264313 C70.7673238,52.3028776 72.9485171,54.247839 72.9994206,57.2262764 C73.040639,59.6440902 70.8774646,62.093235 68.1331791,61.9254702 C65.4544377,62.1025676 63.1817981,59.6512008 63.2333774,57.1742804 C63.2912632,54.387606 65.3598382,52.3517627 68.1557028,52.3264313 Z M41.4500714,31.9142694 C38.328762,34.801225 35.217746,37.6989797 32.0771339,40.5643591 C31.4665169,41.1216939 31.1866151,41.7037825 31.1969084,42.5397848 C31.2387349,45.9238131 31.2142967,49.3091081 31.2142967,52.6937364 C31.2142967,52.8630567 31.2110758,53.0325992 31.22459,53.2008085 C31.2651101,53.7081028 31.3860848,53.832982 31.8873269,53.8705347 C32.1221813,53.8883111 32.3589728,53.8814227 32.5944579,53.8814227 C35.7466471,53.8827359 38.898859,53.8827359 42.0510482,53.8818672 C45.2675877,53.8818672 48.4841947,53.883867 51.7005765,53.8814227 C52.8504105,53.8807561 52.8510862,53.8756454 52.8517619,52.779952 C52.8517619,49.2048939 52.84523,45.6298358 52.8594422,42.0548221 C52.8614471,41.5952353 52.7249536,41.2702381 52.3776384,40.9534847 C49.0761171,37.9459162 45.7901371,34.9211935 42.4995173,31.9015593 C42.022736,31.4642152 41.9339476,31.4667483 41.4500714,31.9142694 Z" fill="#FFF" fill-rule="nonzero"/></g></svg>