<svg xmlns="http://www.w3.org/2000/svg" viewBox="0 0 90 90"><path fill="#E60012" d="M0 0h90v90H0z"/><path d="M59.755 13.28c-6.08 3.03-10.216 8.599-10.425 15.016 9.039 1.545 15.948 9.176 15.948 18.372 0 10.391-8.687 18.737-19.323 18.737-11.764 0-19.781-10.288-19.574-21.816 0-16.854 14.066-30.495 31.447-30.495.547 0 1.089.019 1.628.046A35.007 35.007 0 0 0 44.926 10C25.622 10 10 25.621 10 44.926 10 64.379 25.621 80 44.927 80 64.232 80 80 64.378 80 44.926c0-14.012-8.308-26.08-20.245-31.647Z" fill="#FFF"/></svg>