<svg xmlns="http://www.w3.org/2000/svg" viewBox="0 0 90 90"><path fill="#D0F246" d="M0 0h90v90H0z"/><path d="m74.462 49.397-2.687-.495c-.058.626-.22 1.167-.489 1.486-.268.32-.753.484-1.233.484a1.563 1.563 0 0 1-1.107-.416c-.298-.275-.447-.688-.446-1.239v-4.063h5.036v-3.283H68.5v-2.984h-3.656v10.271c0 1.462.432 2.634 1.295 3.516.862.882 2.147 1.324 3.855 1.326 1.457 0 2.706-.399 3.58-1.196.35-.321.65-.694.888-1.105a5.92 5.92 0 0 0 .708-2.167l-.708-.135Zm-35.41-6.052a6.654 6.654 0 0 0-2.533-2.507c-1.055-.611-2.283-.915-3.685-.912-1.381 0-2.61.304-3.684.912a6.655 6.655 0 0 0-2.533 2.507c-.614 1.063-.921 2.269-.922 3.617 0 1.348.306 2.555.918 3.62a6.655 6.655 0 0 0 2.533 2.5c1.075.612 2.303.917 3.684.917 1.404 0 2.632-.303 3.686-.911a6.655 6.655 0 0 0 2.536-2.505c.614-1.064.921-2.27.921-3.618 0-1.348-.307-2.555-.921-3.62Zm-3.141 5.654a3.608 3.608 0 0 1-1.263 1.396 3.63 3.63 0 0 1-3.627 0 3.608 3.608 0 0 1-1.263-1.396c-.308-.606-.462-1.314-.461-2.122 0-.808.154-1.516.46-2.122a3.346 3.346 0 0 1 1.264-1.395 3.63 3.63 0 0 1 3.627 0c.547.336.985.82 1.263 1.395.308.605.461 1.313.46 2.122 0 .81-.154 1.517-.46 2.122Zm23.642-.416c-.194.704-.55 1.265-1.066 1.683-.516.418-1.226.627-2.13.627-.592 0-1.18-.116-1.726-.342a3.332 3.332 0 0 1-1.325-1.083c-.326-.495-.508-1.102-.547-1.824h9.298a10.1 10.1 0 0 0 .084-.797c.038-.283.057-.568.058-.854 0-1.253-.27-2.327-.806-3.22a5.292 5.292 0 0 0-2.19-2.108c-.938-.492-2.041-.739-3.31-.739-1.362 0-2.552.314-3.569.94a6.687 6.687 0 0 0-2.389 2.507c-.556 1.044-.835 2.211-.835 3.5 0 1.444.308 2.707.922 3.789a6.405 6.405 0 0 0 2.561 2.478c1.097.573 2.345.86 3.746.86 1.65 0 3.003-.38 4.058-1.14 1.075-.76 1.833-1.785 2.274-3.076l-3.108-1.201Zm-5.648-5.125a3.351 3.351 0 0 1 1.958-.6c.493-.012.984.08 1.439.272.394.143.735.4.978.738.26.327.401.73.404 1.147a.412.412 0 0 1-.03.136h-5.846c.192-.744.521-1.308 1.097-1.69v-.003ZM40.839 53.713 45.139 37h3.885l-4.299 16.713zM13.886 40.21 17.6 50.263l3.91-10.051h3.887l-5.551 13.5h-4.463L10 40.21zM78.417 54a1.56 1.56 0 0 1-1.583-1.563 1.56 1.56 0 0 1 .776-1.351 1.649 1.649 0 0 1 1.617 0c.235.136.43.331.566.565a1.593 1.593 0 0 1 0 1.57 1.553 1.553 0 0 1-1.376.778Zm0-.369a1.17 1.17 0 0 0 .614-.16 1.202 1.202 0 0 0 .434-1.635 1.198 1.198 0 0 0-1.044-.594 1.26 1.26 0 0 0-.615.16 1.216 1.216 0 0 0-.427.43 1.189 1.189 0 0 0 .427 1.635c.185.109.396.165.611.163v.001Zm.012-.435a.79.79 0 0 1-.666-.394.77.77 0 0 1 .002-.768.758.758 0 0 1 .646-.357.783.783 0 0 1 .457.13c.132.097.22.241.245.402l-.318.093a.387.387 0 0 0-.127-.236.378.378 0 0 0-.253-.09.456.456 0 0 0 .018.91.4.4 0 0 0 .31-.114.512.512 0 0 0 .127-.277l.307.111a.798.798 0 0 1-.272.438.743.743 0 0 1-.476.15v.002Z"/></svg>