<svg viewBox="0 0 90 90" xmlns="http://www.w3.org/2000/svg"><g fill="none" fill-rule="evenodd"><path fill="#FFF" d="M0 0h90v90H0z"/><path d="M19.3 23.061c12.07-14.384 33.516-16.26 47.9-4.19 14.385 12.07 16.262 33.515 4.192 47.9-12.07 14.384-33.516 16.26-47.9 4.19C9.106 58.892 7.23 37.447 19.3 23.062Zm2.682 2.25c-10.828 12.904-9.145 32.142 3.759 42.97 12.904 10.827 32.142 9.144 42.97-3.76 10.827-12.904 9.144-32.142-3.76-42.97-8.933-7.495-20.902-8.995-31.015-4.927l9.596 3.84 14.49 35.463-14.14 16.853L23.71 23.416a30.907 30.907 0 0 0-1.73 1.895Zm24.902-3.507 18.326 7.328 5.026 12.24L59.95 53.63 46.884 21.804Z" fill="#009FC9"/></g></svg>