<svg viewBox="0 0 90 90" xmlns="http://www.w3.org/2000/svg" xmlns:xlink="http://www.w3.org/1999/xlink"><defs><path d="M37.5 0S75 14.149 75 42.632v38.32C65.75 80.952 37.5 90 37.5 90S9.24 80.952 0 80.952v-38.32C0 14.367 37.5 0 37.5 0Z" id="a"/><path id="c" d="M0 0h116.38v116.547H0z"/><path d="M38.52 9.382c5.387.239 9.575 6.878 9.313 14.972-.24 7.41-4.199 13.546-8.995 14.61v.01c-.02.004-.04.003-.06.006-.028.007-.056.017-.084.022l.001-.012c-3.234.589-6.165-1.2-7.783-3.713-3.9-6.059-1.88-16.804-6.584-22.693-2.135-2.673-5.078-3.94-7.997-3.39-4.816 1.141-8.652 7.25-8.892 14.666-.268 8.27 4.145 15.026 9.68 15.094l-.005.028c5.485.052 10.141-6.565 10.406-14.792.011-.338.015-.674.01-1.006.574 4.086.963 8.258 2.654 11.392-2.825 7.952-8.442 13.4-14.745 13.337C6.583 47.805-.41 37 .019 23.77.406 11.81 6.652 1.988 14.377.286l-.002-.013c.046-.01.089-.014.134-.023.024-.005.047-.014.07-.019l.003.008c5.135-.97 8.677 1.162 10.902 3.747 9.144 10.615 5.176 20.61 8.542 26.537 1.089 1.918 2.939 3.397 5.314 2.944 2.972-.693 5.494-4.54 5.643-9.148.167-5.127-2.547-9.314-5.98-9.356l-.014-.12c-3.156.089-5.867 3.559-6.407 8.032-.258-2.825-.461-5.988-1.434-9.354 1.914-2.647 4.6-4.28 7.36-4.247l.012.108Z" id="e"/><path id="g" d="M0 0h116.38v116.547H0z"/></defs><g fill="none" fill-rule="evenodd"><g transform="matrix(1 0 0 -1 8 90)"><mask id="b" fill="#fff"><use xlink:href="#a"/></mask><g mask="url(#b)"><g transform="translate(-20.69 -11.655)"><mask id="d" fill="#fff"><use xlink:href="#c"/></mask><g mask="url(#d)" fill="#00A9FF" fill-rule="nonzero"><path d="M17.457 8.417h81.465v96.475H17.457z"/></g></g></g></g><g transform="matrix(1 0 0 -1 21.578 66.043)"><mask id="f" fill="#fff"><use xlink:href="#e"/></mask><g mask="url(#f)"><g transform="translate(-34.267 -35.612)"><mask id="h" fill="#fff"><use xlink:href="#g"/></mask><g mask="url(#h)" fill="#FFF" fill-rule="nonzero"><path d="M31.034 32.374h54.31v54.389h-54.31z"/></g></g></g></g></g></svg>