<svg viewBox="0 0 90 90" xmlns="http://www.w3.org/2000/svg"><path d="M74.758 16H22.487c-4.053 0-6.649 4.32-4.752 7.911l5.228 9.926h-9.478a3.484 3.484 0 0 0-2.984 1.689 3.502 3.502 0 0 0-.1 3.434L27.22 70.87a3.484 3.484 0 0 0 3.08 1.86 3.483 3.483 0 0 0 3.08-1.86l4.568-8.62 5.73 10.876c2.017 3.825 7.48 3.832 9.504.011l26.2-49.427c1.851-3.495-.676-7.71-4.624-7.71Zm-23.48 21.118L39.98 58.436a2.32 2.32 0 0 1-4.1 0L24.695 37.208a2.331 2.331 0 0 1 .06-2.285 2.319 2.319 0 0 1 1.983-1.13h22.548c.792 0 1.526.417 1.934 1.098.408.68.43 1.526.059 2.227Z" fill="#F71963"/></svg>