<svg viewBox="0 0 90 90" xmlns="http://www.w3.org/2000/svg"><g fill="none"><path fill="#FFF" d="M0 0h90v90H0z"/><path d="M45 71.465c-14.465 0-26.358-12-26.358-26.465 0-3 .536-5.892 1.5-8.677l15.43 30c.213.427.428.75.963.75.538 0 .75-.323.965-.75l7.177-15.965c.108-.215.215-.323.323-.323.215 0 .215.215.323.323l7.285 15.964c.215.428.427.75.965.75.535 0 .75-.322.962-.75l15.43-30a25.48 25.48 0 0 1 1.5 8.678c-.108 14.465-12 26.465-26.465 26.465Zm0-33.323c-.215 0-.215-.215-.323-.32l-8.25-17.787a25.292 25.292 0 0 1 17.145 0l-8.25 17.788c-.107.104-.107.32-.322.32Zm-8.677 19.285c-.215 0-.215-.212-.323-.32L22.5 31.176c2.358-3.855 5.785-7.07 9.75-9.32l9.535 20.57c.215.43.43.538.75.538h4.93c.32 0 .535-.108.75-.538l9.427-20.57c3.965 2.25 7.393 5.465 9.75 9.32L54 57.108c-.108.215-.215.32-.322.32-.213 0-.213-.213-.32-.32L48.215 45.75c-.215-.427-.43-.535-.75-.535h-4.93c-.32 0-.535.108-.75.535l-5.142 11.358c-.108.107-.108.32-.32.32ZM45 75c16.608 0 30-13.392 30-30S61.608 15 45 15 15 28.392 15 45s13.392 30 30 30Z" fill="#001E50"/></g></svg>