<svg viewBox="0 0 90 90" xmlns="http://www.w3.org/2000/svg"><g fill="none"><path d="M75.183 30c-.553 0-1.216 0-1.769.111l-3.206 5.667c1.437-.89 3.206-1.333 4.975-1.333 5.75 0 10.504 4.777 10.504 10.555s-4.755 10.555-10.504 10.555c-5.75 0-10.393-4.666-10.503-10.444l-3.317 5.667C63.573 56.222 68.992 60 75.073 60c8.181 0 14.926-6.778 14.926-15 .11-8.222-6.634-15-14.816-15Z" fill="#BF3078"/><path d="m30.073 45.667 2.543-4.445 5.75 9.89 6.633-11.445 6.634 11.444L63.02 31.667c.553-1 1.659-1.667 2.875-1.667h3.206L51.633 60 45 48.555 38.366 60l-8.293-14.333Z" fill="#802050"/><path d="m34.828 30-17.47 30L0 30h3.206c1.216 0 2.322.667 2.875 1.667l11.278 19.555 11.388-19.555c.552-1 1.658-1.667 2.874-1.667h3.207Z" fill="#26134D"/></g></svg>