<svg xmlns="http://www.w3.org/2000/svg" viewBox="0 0 90 90"><rect width="90" height="90" fill="#003C4D"/><path fill="#FFF" d="M4.31066176,12.1689861 L4.31066176,12.5935814 C3.2689951,12.5935814 3.01514356,12.8009539 2.99332928,13.7517641 L2.99172794,13.9000284 L2.99172794,18.0479977 C2.99172794,20.0729906 4.34283088,21.0201647 6.24080882,21.0201647 C7.85964184,21.0201647 9.38809336,20.3472289 9.48501861,18.2317241 L9.48988971,18.0153366 L9.48988971,13.9000284 C9.48988971,12.7753479 9.28386141,12.6069175 8.19613436,12.5943974 L8.04227941,12.5935814 L8.04227941,12.1689861 L11.7095588,12.1689861 L11.6773897,12.5935814 C10.5719418,12.5935814 10.3165164,12.8018976 10.2955799,13.7582584 L10.2941176,13.9000284 L10.2941176,18.2113036 C10.2941176,20.6282306 8.46047794,22 5.69393382,22 C2.91764149,22 1.38155874,20.6793968 1.29101221,18.3062198 L1.28676471,18.0806589 L1.28676471,13.7693837 C1.28676471,12.8720609 1.05578866,12.6196379 0.156197739,12.5955528 L-3.96127575e-13,12.5935814 L-3.96127575e-13,12.1689861 L4.31066176,12.1689861 Z M27.1829044,14.5859131 L27.1829044,14.9125249 C26.25,14.9125249 26.0891544,15.1738143 26.0891544,15.4024425 C26.0891544,15.5144237 26.1364233,15.6983927 26.2309611,15.9543497 L26.2821691,16.0883272 L27.9871324,20.3669412 L29.6599265,16.2842942 C29.8529412,15.7943766 29.9172794,15.5657484 29.9172794,15.4024425 C29.9172794,15.0688319 29.6676405,14.9323549 29.0395807,14.9145602 L28.8878676,14.9125249 L28.8878676,14.5859131 L36.9944853,14.5859131 L37.0909926,16.3169554 L36.7693015,16.3169554 L36.7049632,16.0883272 C36.4922896,15.1937739 36.3370041,15.1149435 35.6971079,15.1089455 L33.5845588,15.1084919 L33.5845588,17.7867083 L35.3538603,17.7867083 C35.9570312,17.7867083 36.107824,17.70059 36.17733,17.0439377 L36.1902574,16.9048566 L36.5119485,16.9048566 L36.5119485,19.2238001 L36.1902574,19.2238001 C36.1299403,18.4583037 35.9848022,18.3243419 35.4632714,18.3105869 L35.3538603,18.3092871 L33.5845588,18.3092871 L33.5845588,20.3996024 C33.5845588,21.0397614 33.6686275,21.1962448 34.1506209,21.214264 L34.2601103,21.2161318 L35.5147059,21.2161318 C36.5870098,21.2161318 36.8423203,21.0680085 37.1143041,20.0946272 L37.1553309,19.9423459 L37.4770221,19.9423459 L37.3161765,21.7387106 L31.171875,21.7387106 L31.171875,21.4120988 C32.0499027,21.4120988 32.3010222,21.296372 32.3275275,20.7381604 L32.3299632,20.6282306 L32.3299632,15.6637319 C32.3299632,15.0431696 32.0726103,14.9125249 31.5579044,14.8798637 C30.9273897,14.9103474 30.745241,15.2822494 30.4360553,16.0221242 L30.3676471,16.1863107 L28.0193015,21.9346776 L27.3115809,21.9346776 L24.8667279,15.7617154 C24.5450368,15.0105084 24.4163603,14.8798637 23.7408088,14.8798637 C23.0747189,14.8798637 22.8360663,15.0245222 22.8102943,15.7222867 L22.8079044,15.8596989 L22.8079044,20.33428 C22.8079044,21.16714 22.9513747,21.4173408 23.6448145,21.4150558 L23.7729779,21.4120988 L23.7729779,21.7387106 L20.5882353,21.7387106 L20.5882353,21.4120988 C21.4359862,21.4428388 21.5143497,21.1263983 21.5206355,20.544467 L21.5211397,20.4322636 L21.5211397,15.7617154 C21.5211397,15.1799382 21.3797715,14.9426344 20.7259436,14.915244 L20.5882353,14.9125249 L20.5882353,14.5859131 L27.1829044,14.5859131 Z M47.7068015,14.3572849 C48.0606618,14.3572849 48.3501838,14.4226072 48.5753676,14.4552684 C48.8005515,14.5205907 48.9935662,14.5532519 49.1865809,14.5532519 C49.3152574,14.5532519 49.3821691,14.5323488 49.4531985,14.4738199 L49.5082721,14.4226072 L49.7977941,14.4226072 L50.0551471,16.2189719 L49.7012868,16.2189719 C49.3474265,15.304459 48.6397059,14.749219 47.8354779,14.749219 C47.0955882,14.749219 46.7095588,15.1738143 46.7095588,15.6963931 C46.7095588,17.2314683 50.2803309,17.721386 50.3125,19.9096847 C50.3125,21.0854871 49.3152574,21.9020165 47.8676471,21.9020165 C47.4540441,21.9020165 47.1586134,21.8540245 46.9205807,21.7991766 L46.8060662,21.7713718 L46.8060662,21.8366941 C44.6443015,21.8994036 44.0538309,21.5407055 43.0992944,20.5872207 L42.9779412,20.4649247 L42.3667279,19.8443624 C41.7876838,19.2564612 41.6268382,19.0931554 41.1443015,18.7338824 C40.8869485,18.7600114 40.5884191,18.7652371 40.3310662,18.7495598 L40.1470588,18.7338824 L40.1470588,20.2689577 C40.1470588,21.2021341 40.2637722,21.424319 41.1641323,21.4151495 L41.3051471,21.4120988 L41.3051471,21.7387106 L37.7987132,21.7387106 L37.7987132,21.4120988 C38.7101716,21.4429455 38.8468903,21.2115955 38.8592681,20.5529621 L38.8602941,20.4322636 L38.8602941,15.7943766 C38.8602941,15.0849033 38.7455179,14.8706903 37.9468666,14.8490786 L37.7987132,14.8472025 L37.7987132,14.5205907 C38.0560662,14.5205907 38.6351103,14.4879296 39.4071691,14.4552684 C39.8825572,14.4298653 40.3190246,14.4242201 40.5954849,14.4229656 L40.7904412,14.4226072 C43.1066176,14.4226072 43.8786765,15.4351037 43.8786765,16.4802613 C43.8786765,17.362113 43.4283088,17.9826754 42.4632353,18.3746095 C42.6321232,18.4889236 43.0226764,18.8532998 43.2469806,19.0738904 L43.3318015,19.1584777 L44.0716912,19.9096847 C44.5783548,20.4240983 45.0111299,20.7884745 45.4562198,21.0465743 L45.6479779,21.1508094 L45.4549632,19.8117012 L45.8088235,19.8117012 C46.0983456,20.88952 46.8060662,21.4774212 47.7711397,21.4774212 C48.6075368,21.4774212 49.1865809,20.9875036 49.1865809,20.3016189 C49.1865809,18.7012212 45.6158088,18.0479977 45.6158088,16.055666 C45.6158088,15.0431696 46.484375,14.3572849 47.7068015,14.3572849 Z M13.3501838,14.5532519 L18.4329044,19.9750071 L18.4329044,15.8596989 C18.4329044,15.0552026 18.3174164,14.8956062 17.4573345,14.8810351 L17.3069853,14.8798637 L17.3069853,14.5532519 L20.0413603,14.5532519 L20.0413603,14.8798637 C19.3147167,14.8798637 19.0725022,14.9955905 19.0465207,15.7444109 L19.0441176,15.8923601 L19.0441176,21.8040329 L18.4329044,21.8040329 L12.8676471,15.8596989 L12.8676471,20.2689577 C12.8676471,21.137745 12.9547449,21.4464747 13.8460466,21.41917 L13.9935662,21.4120988 L13.9935662,21.7387106 L11.2913603,21.7387106 L11.2913603,21.4120988 C12.0785575,21.4428388 12.2388466,21.2131934 12.2549802,20.5597837 L12.2564338,20.4322636 L12.2564338,15.2391366 C12.0082721,15.0431696 11.7837447,14.9431864 11.4613033,14.8980511 L11.2913603,14.8798637 L11.2913603,14.5532519 L13.3501838,14.5532519 Z M55.3630515,14.3572849 C55.4273897,14.4552684 55.4595588,14.4879296 55.5560662,14.5205907 C55.636489,14.5478084 55.7615911,14.5523447 55.9686053,14.5531007 L60.8961397,14.5532519 C61.4269301,14.5532519 61.5522557,14.5258075 61.619014,14.3954463 L61.6360294,14.3572849 L61.9577206,14.3572849 L61.9898897,14.6185743 L61.9898897,14.5532519 L65.3998162,14.5532519 L65.3998162,14.8798637 C64.7886029,14.8798637 64.5955882,15.0105084 64.5955882,15.2064754 C64.5955882,15.3516362 64.671841,15.5226034 64.8921266,15.8570108 L64.9816176,15.9903437 L66.4613971,18.1459813 L67.7481618,16.055666 C68.0055147,15.6310707 68.1341912,15.4024425 68.1341912,15.2391366 C68.1341912,15.0016008 67.9480888,14.8990285 67.5275459,14.8823421 L67.3943015,14.8798637 L67.3943015,14.5532519 L70,14.5532519 L70,14.8798637 C69.2100694,14.9724037 68.9940201,15.1232096 68.3491539,16.1302009 L68.2306985,16.3169554 L66.6865809,18.8318659 L66.6865809,20.4322636 C66.6865809,21.2342769 66.8300512,21.424498 67.6318907,21.4431583 L67.7803309,21.44476 L67.7803309,21.7713718 L64.3382353,21.7713718 L64.3382353,21.44476 C65.1610875,21.44476 65.4064995,21.3568191 65.430053,20.5422087 L65.4319853,20.3996024 L65.4319853,18.9298495 L63.3088235,15.8270378 C62.7961282,15.0309216 62.6227166,14.9237521 62.0464056,14.8865538 L61.9255515,14.8798637 L62.0863971,16.3496166 L61.7647059,16.3496166 C61.6119026,15.2015763 61.401034,15.0852208 60.8011282,15.0764554 L60.703125,15.0758307 L59.0946691,15.0758307 L59.0946691,20.4975859 C59.0946691,21.2441271 59.2113825,21.3981753 60.2506871,21.4111537 L60.4136029,21.4120988 L60.4136029,21.7387106 L56.5211397,21.7387106 L56.5211397,21.4120988 C57.5877999,21.4120988 57.817172,21.2655307 57.8383617,20.6113738 L57.8400735,20.4975859 L57.8400735,15.0758307 L56.2316176,15.0758307 C55.5898437,15.0758307 55.3545267,15.1347842 55.1946944,16.1767859 L55.1700368,16.3496166 L54.8483456,16.3496166 L55.0413603,14.3572849 L55.3630515,14.3572849 Z M54.2371324,14.5532519 L54.2371324,14.8798637 C53.5407656,14.8798637 53.300332,15.0245222 53.2744553,15.7222867 L53.2720588,15.8596989 L53.2720588,20.33428 C53.2720588,21.16714 53.4155291,21.4173408 54.1089689,21.4150558 L54.2371324,21.4120988 L54.2371324,21.7387106 L51.0523897,21.7387106 L51.0523897,21.4120988 C51.9001406,21.4428388 51.9785041,21.1263983 51.9847899,20.544467 L51.9852941,20.4322636 L51.9852941,15.7290542 C51.9852941,15.1472771 51.8439259,14.9099732 51.190098,14.8825828 L51.0523897,14.8798637 L51.0523897,14.5532519 L54.2371324,14.5532519 Z M40.6939338,14.8145413 C40.5598958,14.8145413 40.3364992,14.8145413 40.2099077,14.8334425 L40.1470588,14.8472025 L40.1470588,18.4399318 C40.2113971,18.4399318 40.4365809,18.472593 40.5009191,18.472593 C42.0128676,18.4072707 42.5275735,17.8193695 42.5597426,16.6762283 C42.5597426,15.500426 41.9485294,14.8145413 40.6939338,14.8145413 Z M14.5082721,0 L14.5082721,0.424595285 C13.7362132,0.457256461 13.5110294,0.555239989 13.5110294,0.947174098 C13.5110294,1.21172962 13.7455423,1.79375178 13.9566039,2.24085061 L14.0257353,2.38426583 L16.6636029,8.06731042 L18.2398897,4.73587049 L16.8566176,1.76370349 C16.3038937,0.547816994 16.1615254,0.462789966 15.2823822,0.457572399 L15.1516544,0.457256461 L15.1516544,0 L22.2610294,0 L22.2610294,0.424595285 C21.2525276,0.455623402 21.0569393,0.575081653 20.5710248,1.56705055 L20.4917279,1.73104232 L19.4944853,3.72337404 L21.5533088,8.00198807 L24.1590074,1.66571997 C24.3520221,1.24112468 24.3841912,1.04515763 24.3841912,0.914512922 C24.3841912,0.611230576 24.1345523,0.476919822 23.4549796,0.459279931 L23.2904412,0.457256461 L23.2904412,0.0326611758 L26.5716912,0.0326611758 L26.5716912,0.457256461 C25.7716592,0.457256461 25.5014143,0.517022091 24.8882154,1.89423008 L24.8023897,2.09031525 L21.6176471,9.86367509 L20.6525735,9.86367509 L18.6580882,5.61772224 L16.6636029,9.86367509 L15.7306985,9.86367509 L12.03125,1.76370349 C11.5410539,0.643891752 11.3134629,0.472068786 10.2924989,0.45824395 L10.1332721,0.457256461 L10.1332721,0 L14.5082721,0 Z M40.8869485,2.35160466 C42.6240809,2.35160466 43.8465074,2.64555524 44.5863971,3.42942346 C45.2941176,4.14796933 45.5514706,5.02982107 45.5514706,5.87901164 C45.5514706,7.53021553 44.4264202,9.55188183 41.3190176,9.66292255 L41.0477941,9.66770804 L37.5091912,9.66770804 L37.5091912,9.34109628 C38.4206495,9.34109628 38.5860623,9.19543147 38.6016284,8.51889934 L38.6029412,8.39392218 L38.6029412,3.78869639 C38.6029412,2.98668308 38.4020828,2.79646197 37.6480667,2.77780164 L37.5091912,2.77619994 L37.5091912,2.44958819 C37.8308824,2.44958819 38.7959559,2.41692701 39.2784926,2.38426583 C39.8897059,2.35160466 40.46875,2.35160466 40.8869485,2.35160466 Z M54.6231618,2.41692701 L59.7058824,7.83868219 L59.7058824,3.72337404 C59.7058824,2.91887771 59.5903943,2.75928127 58.7303125,2.74471017 L58.5799632,2.74353877 L58.5799632,2.41692701 L61.3143382,2.41692701 L61.3143382,2.74353877 C60.5876946,2.74353877 60.3454801,2.85926556 60.3194986,3.60808601 L60.3170956,3.75603522 L60.3170956,9.66770804 L59.7058824,9.66770804 L54.140625,3.72337404 L54.140625,8.13263277 C54.140625,9.00142005 54.2277229,9.31014982 55.1190246,9.28284507 L55.2665441,9.27577393 L55.2665441,9.60238569 L52.5643382,9.60238569 L52.5643382,9.27577393 C53.3515355,9.30651386 53.5118245,9.0768685 53.5279582,8.42345884 L53.5294118,8.29593865 L53.5294118,3.1028117 C53.28125,2.90684465 53.0567227,2.80686146 52.7342812,2.76172619 L52.5643382,2.74353877 L52.5643382,2.41692701 L54.6231618,2.41692701 Z M51.3740809,2.44958819 L51.4705882,4.1806305 L51.1488971,4.1806305 L51.0845588,3.95200227 C50.8718852,3.05744896 50.7165997,2.97861859 50.0767035,2.97262063 L47.9641544,2.972167 L47.9641544,5.65038341 L49.7334559,5.65038341 C50.3366268,5.65038341 50.4874196,5.56426508 50.5569256,4.90761278 L50.5698529,4.76853167 L50.8915441,4.76853167 L50.8915441,7.08747515 L50.5698529,7.08747515 C50.5095358,6.32197884 50.3643978,6.18801699 49.842867,6.17426198 L49.7334559,6.17296223 L47.9641544,6.17296223 L47.9641544,8.26327748 C47.9641544,8.90343652 48.048223,9.05991985 48.5302165,9.07793914 L48.6397059,9.07980687 L49.8943015,9.07980687 C50.9972426,9.07980687 51.254012,8.93168363 51.5260653,7.98651625 L51.5670956,7.83868219 L51.8887868,7.83868219 L51.7279412,9.63504686 L45.5836397,9.63504686 L45.5836397,9.3084351 C46.4616674,9.3084351 46.7127869,9.19270831 46.7392922,8.6344967 L46.7417279,8.52456688 L46.7417279,3.56006816 C46.7417279,2.85581156 46.4024443,2.78308941 45.723877,2.77675014 L45.5836397,2.77619994 L45.5836397,2.44958819 L51.3740809,2.44958819 Z M27.9549632,2.25362113 L30.1746324,8.26327748 C30.4762178,9.09001349 30.6081615,9.28521505 31.1801136,9.30638581 L31.3005515,9.3084351 L31.2040441,9.3084351 L31.2040441,9.63504686 L27.9549632,9.63504686 L27.9549632,9.3084351 C28.8556985,9.3084351 29.1130515,9.21045158 29.1130515,8.88383982 C29.1130515,8.77185864 29.089417,8.61188554 29.0016319,8.38335253 L28.9522059,8.26327748 L28.4053309,6.82618574 L25.7996324,6.82618574 L25.2527574,8.36126101 C25.15625,8.58988924 25.1240809,8.72053394 25.1240809,8.85117864 C25.1240809,9.15737717 25.3219964,9.32004513 26.0889188,9.31227056 L26.25,9.3084351 L26.25,9.63504686 L23.4834559,9.63504686 L23.4834559,9.3084351 C24.2100995,9.27769517 24.3668265,9.18909185 24.6509467,8.41633893 L24.7058824,8.26327748 L26.7647059,2.54757171 L26.6681985,2.25362113 L27.9549632,2.25362113 Z M34.9356618,2.41692701 L34.9356618,2.74353877 C33.7688001,2.74353877 33.5985165,2.80305769 33.585447,3.54704418 L33.5845588,3.65805169 L33.5845588,8.52456688 C33.5845588,8.94664977 33.6667899,9.06260661 34.084271,9.07794859 L34.1957721,9.07980687 L35.4923081,9.0794231 C36.2838717,9.0740018 36.4409738,8.99759076 37.1253551,8.04812269 L37.2518382,7.87134337 L37.5413603,7.87134337 L36.6727941,9.60238569 L31.3005515,9.60238569 L31.3005515,9.27577393 L31.2683824,9.27577393 C32.0583129,9.27577393 32.2743623,9.18837504 32.2959297,8.43577351 L32.2977941,8.29593865 L32.2977941,3.72337404 C32.2977941,2.98076204 32.2400501,2.73648178 31.3586941,2.74059598 L31.2040441,2.74353877 L31.2040441,2.41692701 L34.9356618,2.41692701 Z M40.6617647,2.64555524 C40.5009191,2.64555524 40.2283752,2.64555524 39.9744477,2.66445638 L39.8253676,2.67821642 L39.8253676,8.45924453 C39.8253676,9.1777904 39.921875,9.27577393 40.6617647,9.27577393 C42.0450368,9.27577393 42.7527574,8.98182335 43.2674632,8.45924453 C43.9430147,7.74069867 44.1360294,6.79352457 44.1360294,5.97699517 C44.1360294,5.1278046 43.9751838,4.21329168 43.2674632,3.49474581 C42.7205882,2.90684465 41.9806985,2.64555524 40.6617647,2.64555524 Z M27.1185662,3.33143993 L26.0248162,6.23828458 L28.2123162,6.23828458 L27.1185662,3.33143993 Z M19.3979779,0.457256461 L18.8511029,0.457256461 C18.3042279,0.457256461 18.1755515,0.522578813 18.1755515,0.718545868 C18.1755515,0.861438512 18.2248104,1.00433116 18.3448792,1.27850642 L18.4007353,1.40443056 L19.1084559,2.87418347 L19.8805147,1.24112468 C20.0091912,0.979835274 20.0413603,0.816529395 20.0413603,0.718545868 C20.0413603,0.522578813 19.9126838,0.457256461 19.3979779,0.457256461 Z" transform="translate(10.28 33.7)"/></svg>