<svg viewBox="0 0 90 90" xmlns="http://www.w3.org/2000/svg"><g fill="none" fill-rule="evenodd"><path fill="#FFF" fill-rule="nonzero" d="M0 0h90v90H0z"/><path d="M20.749 38.215v6.599c0 1.551-.4 2.777-1.201 3.677-.801.9-1.876 1.35-3.225 1.35a4.2 4.2 0 0 1-1.936-.453 4.224 4.224 0 0 1-1.513-1.304c-.411.55-.939 1-1.543 1.315-.59.298-1.241.45-1.9.443-1.35 0-2.426-.453-3.23-1.359-.803-.906-1.204-2.128-1.201-3.668v-6.6h2v6.962c0 .807.223 1.457.668 1.95.445.494 1.034.74 1.766.74a2.296 2.296 0 0 0 1.773-.746c.458-.497.687-1.145.687-1.944v-6.962h1.989v6.962c0 .807.222 1.457.667 1.95.445.494 1.034.74 1.766.74.667.023 1.31-.25 1.763-.75.452-.495.679-1.143.68-1.943v-6.96h1.99Zm9.777 11.417v-5.691c0-1.195-.332-2.163-.996-2.905-.664-.741-1.525-1.112-2.584-1.111-1.052 0-1.915.367-2.59 1.1-.676.734-1.013 1.678-1.012 2.834 0 1.177.347 2.144 1.04 2.899.695.755 1.58 1.134 2.654 1.136a4.07 4.07 0 0 0 1.423-.257c.5-.192.968-.458 1.39-.79v2.198c-.454.262-.941.46-1.447.589a6.511 6.511 0 0 1-1.595.191c-.54 0-1.076-.085-1.59-.25a5.147 5.147 0 0 1-1.43-.705 5.69 5.69 0 0 1-1.852-2.123 6.224 6.224 0 0 1-.64-2.835c0-1.71.529-3.123 1.587-4.237 1.06-1.114 2.405-1.67 4.038-1.67a5.498 5.498 0 0 1 2.95.827 5.48 5.48 0 0 1 2.06 2.27c.226.448.386.928.475 1.424.112.765.16 1.537.142 2.31v4.795l-2.023.001Zm3.191-16.666h2.013v16.666h-2.013zm3.376 16.666V32.966h2.013v9.392h.891a2.49 2.49 0 0 0 1.402-.361c.362-.241.753-.714 1.172-1.42L44 38.215h2.343l-1.646 2.717a8.011 8.011 0 0 1-.858 1.205 2.959 2.959 0 0 1-.8.679c.922.18 1.603.567 2.041 1.158.44.592.658 1.432.657 2.52v3.138h-2.023v-2.886c0-.815-.178-1.427-.534-1.81-.357-.383-.916-.574-1.685-.574h-2.39v5.27h-2.013Z" fill="#FFF" fill-rule="nonzero"/><path d="M77.35 32H54.628c-2.03 0-3.976.82-5.41 2.281a7.859 7.859 0 0 0-2.24 5.507v7.51a7.857 7.857 0 0 0 2.237 5.512 7.584 7.584 0 0 0 5.413 2.283h5.886L65.905 59l5.39-3.907h6.054c2.03 0 3.976-.82 5.41-2.28A7.859 7.859 0 0 0 85 47.304v-7.517c0-4.3-3.425-7.787-7.65-7.788" fill="#0094D4"/><path d="M52.19 49.388V42.78c0-1.55.4-2.777 1.202-3.677.8-.9 1.879-1.35 3.235-1.35a4.176 4.176 0 0 1 1.922.448c.6.31 1.12.759 1.52 1.31a4.483 4.483 0 0 1 1.534-1.315 4.141 4.141 0 0 1 1.909-.443c1.343 0 2.416.453 3.22 1.358.803.906 1.203 2.129 1.2 3.668v6.609h-1.984v-6.99c0-.8-.225-1.444-.674-1.934a2.485 2.485 0 0 0-3.523 0c-.45.49-.675 1.134-.675 1.933v6.99h-1.989v-6.99c0-.798-.23-1.443-.687-1.933a2.32 2.32 0 0 0-1.773-.732c-.731 0-1.32.244-1.766.732-.446.488-.668 1.133-.667 1.933v6.99H52.19Zm27.598-5.059c-.283 1.63-.931 2.918-1.945 3.865-1.013.946-2.248 1.42-3.704 1.42a5.42 5.42 0 0 1-2.835-.804c-2.47-1.543-3.486-4.677-2.403-7.414a6.07 6.07 0 0 1 1.234-1.925 5.502 5.502 0 0 1 4.025-1.734 5.293 5.293 0 0 1 3.049.907c.894.609 1.62 1.495 2.178 2.658l-7.353 4.146-.847-1.547 5.455-3.098a3.424 3.424 0 0 0-1.132-.862 3.224 3.224 0 0 0-1.37-.29 3.293 3.293 0 0 0-2.545 1.146c-.69.764-1.036 1.708-1.036 2.834 0 1.125.347 2.068 1.041 2.828a3.438 3.438 0 0 0 2.43 1.152c.93.036 1.833-.31 2.509-.96.644-.64 1.045-1.518 1.201-2.636l2.048.314Z" fill="#FFF" fill-rule="nonzero"/><path d="M20.749 38.215v6.599c0 1.551-.4 2.777-1.201 3.677-.801.9-1.876 1.35-3.225 1.35a4.2 4.2 0 0 1-1.936-.453 4.224 4.224 0 0 1-1.513-1.304c-.411.55-.939 1-1.543 1.315-.59.298-1.241.45-1.9.443-1.35 0-2.426-.453-3.23-1.359-.803-.906-1.204-2.128-1.201-3.668v-6.6h2v6.962c0 .807.223 1.457.668 1.95.445.494 1.034.74 1.766.74a2.296 2.296 0 0 0 1.773-.746c.458-.497.687-1.145.687-1.944v-6.962h1.989v6.962c0 .807.222 1.457.667 1.95.445.494 1.034.74 1.766.74.667.023 1.31-.25 1.763-.75.452-.495.679-1.143.68-1.943v-6.96h1.99Zm9.777 11.417v-5.691c0-1.195-.332-2.163-.996-2.905-.664-.741-1.525-1.112-2.584-1.111-1.052 0-1.915.367-2.59 1.1-.676.734-1.013 1.678-1.012 2.834 0 1.177.347 2.144 1.04 2.899.695.755 1.58 1.134 2.654 1.136a4.07 4.07 0 0 0 1.423-.257c.5-.192.968-.458 1.39-.79v2.198c-.454.262-.941.46-1.447.589a6.511 6.511 0 0 1-1.595.191c-.54 0-1.076-.085-1.59-.25a5.147 5.147 0 0 1-1.43-.705 5.69 5.69 0 0 1-1.852-2.123 6.224 6.224 0 0 1-.64-2.835c0-1.71.529-3.123 1.587-4.237 1.06-1.114 2.405-1.67 4.038-1.67a5.498 5.498 0 0 1 2.95.827 5.48 5.48 0 0 1 2.06 2.27c.226.448.386.928.475 1.424.112.765.16 1.537.142 2.31v4.795l-2.023.001Zm3.191-16.666h2.013v16.666h-2.013zm3.376 16.666V32.966h2.013v9.392h.891a2.49 2.49 0 0 0 1.402-.361c.362-.241.753-.714 1.172-1.42L44 38.215h2.343l-1.646 2.717a8.011 8.011 0 0 1-.858 1.205 2.959 2.959 0 0 1-.8.679c.922.18 1.603.567 2.041 1.158.44.592.658 1.432.657 2.52v3.138h-2.023v-2.886c0-.815-.178-1.427-.534-1.81-.357-.383-.916-.574-1.685-.574h-2.39v5.27h-2.013Z" fill="#000" fill-rule="nonzero"/><path d="M77.35 32H54.628c-2.03 0-3.976.82-5.41 2.281a7.859 7.859 0 0 0-2.24 5.507v7.51a7.857 7.857 0 0 0 2.237 5.512 7.584 7.584 0 0 0 5.413 2.283h5.886L65.905 59l5.39-3.907h6.054c2.03 0 3.976-.82 5.41-2.28A7.859 7.859 0 0 0 85 47.304v-7.517c0-4.3-3.425-7.787-7.65-7.788" fill="#0094D4"/><path d="M52.19 49.388V42.78c0-1.55.4-2.777 1.202-3.677.8-.9 1.879-1.35 3.235-1.35a4.176 4.176 0 0 1 1.922.448c.6.31 1.12.759 1.52 1.31a4.483 4.483 0 0 1 1.534-1.315 4.141 4.141 0 0 1 1.909-.443c1.343 0 2.416.453 3.22 1.358.803.906 1.203 2.129 1.2 3.668v6.609h-1.984v-6.99c0-.8-.225-1.444-.674-1.934a2.485 2.485 0 0 0-3.523 0c-.45.49-.675 1.134-.675 1.933v6.99h-1.989v-6.99c0-.798-.23-1.443-.687-1.933a2.32 2.32 0 0 0-1.773-.732c-.731 0-1.32.244-1.766.732-.446.488-.668 1.133-.667 1.933v6.99H52.19Zm27.598-5.059c-.283 1.63-.931 2.918-1.945 3.865-1.013.946-2.248 1.42-3.704 1.42a5.42 5.42 0 0 1-2.835-.804c-2.47-1.543-3.486-4.677-2.403-7.414a6.07 6.07 0 0 1 1.234-1.925 5.502 5.502 0 0 1 4.025-1.734 5.293 5.293 0 0 1 3.049.907c.894.609 1.62 1.495 2.178 2.658l-7.353 4.146-.847-1.547 5.455-3.098a3.424 3.424 0 0 0-1.132-.862 3.224 3.224 0 0 0-1.37-.29 3.293 3.293 0 0 0-2.545 1.146c-.69.764-1.036 1.708-1.036 2.834 0 1.125.347 2.068 1.041 2.828a3.438 3.438 0 0 0 2.43 1.152c.93.036 1.833-.31 2.509-.96.644-.64 1.045-1.518 1.201-2.636l2.048.314Z" fill="#FFF" fill-rule="nonzero"/></g></svg>