<svg xmlns="http://www.w3.org/2000/svg" viewBox="0 0 90 90"><path fill="#FFF" d="M0 0h90v90H0z"/><path fill="#0064FF" d="M58.2 38.17l11.37 15.25a4 4 0 01-.28 5.12l-7.41 7.95a4 4 0 01-6.14-.34l-10.5-14.08 12.96-13.9z"/><path fill="#408AFF" d="M41.57 23.74a4 4 0 016.14.34l10.5 14.09-12.96 13.9L33.88 36.8a4 4 0 01.28-5.12l7.41-7.95zM28.47 37.8l11.37 15.24a4 4 0 01-.28 5.12l-7.41 7.95a4 4 0 01-6.14-.34L15.51 51.7l12.96-13.9z"/><path fill="#7FB1FF" d="M11.84 23.37a4 4 0 016.14.34l10.5 14.08-12.96 13.9L4.15 36.44a4 4 0 01.28-5.12l7.41-7.95z"/><path fill="#0064FF" d="M63.89 32.07l7.41-7.95a4 4 0 016.14.34l8.5 11.4a4 4 0 01-.28 5.13l-7.42 7.95a4 4 0 01-6.13-.34l-8.5-11.41a4 4 0 01.28-5.12z"/></svg>