<svg viewBox="0 0 90 90" xmlns="http://www.w3.org/2000/svg"><g fill="none"><path fill="#FFF" d="M0 0h90v90H0z"/><g fill="#000"><path d="M37.157 28.498c.952-.587 6.084-3.328 14.363.107 8.517 3.533 13.8.465 14.456.047-2.06-3.401-4.508-6.362-7.215-8.353.18-.05.365-.1.56-.158 3.59-1.043 4.502-4.099 4.694-6.716.217-2.968.367-3.013 1.008-5.684.615-2.565-.07-3.077-.704-2.56-.34.279-3.309.968-5.069 2.348-2.842 2.229-4.594 6.467-5.387 8.81-.015.037-.123.363-.158.475-.37.898-1.107.895-1.107.895v.001a9.945 9.945 0 0 0-1.078-.06 9.94 9.94 0 0 0-.964.049h-.018c-.942.14-1.46-1.016-1.569-1.292-1.1-3.178-4.062-9.444-10.719-11.13 0 0-1.208-.93-.84.644.35 1.504 1.075 3.025.914 5.236-.074 1.021-.704 6.257 4.083 8.981.455.26.859.477 1.222.66-2.409 1.938-4.598 4.637-6.472 7.7Zm31.427 47.88c-5.866-3.654-7.84-4.939-7.716-6.337 0 0 0-.227.059-.573.142-.74.593-2.006 2.03-2.727a.846.846 0 0 0 .124-.077c4.57-2.666 7.91-6.959 9.087-12.318-1.186 2.96-9.974 5.26-20.649 5.26-10.67 0-19.46-2.3-20.647-5.26a18.76 18.76 0 0 0 1.111 3.44c.397 2.244.931 7.527-1.593 12.151-2.224 4.074-13.202 9.628-29.494 6.44 0 0-.654-.46-.851-.082-.293.558.904 1.01 2.135 1.336 11.343 3.02 28.464 1.79 33.84-2.662 2.454-2.03 3.4-4.765 3.64-7.708l.002.005s.066-.771 1.025-.192c.275.166 1.266.815 1.424 1.549.139 1.044.148 2.326-.388 3.224-.767 1.285-.776 1.47.234 2.194.62.445 3.151 2.315 6.674 4.443.01.006.014.011.023.016.745.451 1.78 1.556 1.78 1.556 1.587 1.844 5.038 5.557 6.54 4.857.71-.33-.03-1.816-.03-1.816s1.18 1.54 1.813 1.015c.482-.4-.282-1.935-.282-1.935s1.03.898 1.643.566c.75-.407-.111-2.764-6.007-6.367-5.898-3.606-7.497-4.158-7.637-5.767 0 0-.003-.081.002-.22.046-.355.247-1.106 1.104-1.025a24.548 24.548 0 0 0 8.43-.095v.001s.076-.015.098-.018c.17-.022.5-.01.501.402-.054.523-.197 1.049-.504 1.509-.862 1.299-.579 1.477.322 2.312.556.515 3.106 2.77 6.598 4.951.007.006.01.01.019.014.744.45 2.032 1.687 2.032 1.687 1.447 1.477 4.11 3.951 5.56 3.802.98-.1.182-1.798.182-1.798s1.238 1.201 1.847.848c.68-.395-.283-1.65-.283-1.65s.798.424 1.36.283c.566-.142.707-1.584-5.158-5.235Z"/><path d="M62.03 35.097c-.703 0-1.288.213-1.735.633-.453.426-.682.918-.682 1.461v9.62c0 1.29-.228 2.241-.677 2.828-.433.567-1.127.842-2.119.842-1.015 0-1.706-.273-2.115-.836-.427-.587-.643-1.54-.643-2.834v-9.658c0-.657-.298-1.195-.863-1.555-.768-.486-1.532-.662-2.46-.352a3.93 3.93 0 0 0-.795.369 2.31 2.31 0 0 0-.652.59c-.192.259-.29.54-.29.836v9.77c0 1.293-.216 2.247-.643 2.834-.41.563-1.102.836-2.114.836-1.016 0-1.715-.275-2.136-.839-.438-.587-.66-1.54-.66-2.831v-9.62c0-.544-.229-1.035-.683-1.46-.447-.421-1.043-.634-1.772-.634-.75 0-1.368.211-1.838.626-.484.426-.729.92-.729 1.468v9.47c0 1.19.116 2.318.343 3.348.234 1.053.642 1.977 1.213 2.747.577.779 1.36 1.392 2.328 1.828.958.429 2.156.646 3.561.646 1.465 0 2.691-.273 3.645-.811a6.378 6.378 0 0 0 2.01-1.768 6.123 6.123 0 0 0 1.962 1.767c.942.539 2.187.811 3.702.811 1.405 0 2.598-.218 3.545-.647.954-.435 1.73-1.05 2.308-1.826.572-.773.98-1.698 1.212-2.748a15.61 15.61 0 0 0 .343-3.348v-9.469c0-.546-.237-1.038-.706-1.465-.457-.417-1.084-.629-1.86-.629Z"/></g></g></svg>