<svg viewBox="0 0 90 90" xmlns="http://www.w3.org/2000/svg"><g fill="none" fill-rule="evenodd"><path fill="#0F1C20" fill-rule="nonzero" d="M0 0h90v90H0z"/><path d="M51.202 67.448a8.756 8.756 0 0 1-12.382 0L22.546 51.174a8.756 8.756 0 0 1 0-12.383L38.82 22.517a8.756 8.756 0 0 1 12.382 0l16.274 16.274a8.756 8.756 0 0 1 0 12.383L51.202 67.448Zm-11.375 6.545A13.706 13.706 0 0 0 45.001 75c1.782 0 3.53-.333 5.179-1.002a13.697 13.697 0 0 0 4.563-3.016L70.98 54.746c1.31-1.31 2.32-2.85 3.015-4.563A13.714 13.714 0 0 0 75 45.007a13.78 13.78 0 0 0-.993-5.191 13.713 13.713 0 0 0-3.006-4.575L54.764 19.004A13.706 13.706 0 0 0 50.191 16c-1.65-.67-3.399-1-5.181-1s-3.54.331-5.189 1a13.729 13.729 0 0 0-4.573 3.014L19.01 35.25a13.702 13.702 0 0 0-3.009 4.569A13.725 13.725 0 0 0 15 44.998c0 1.782.34 3.527 1.01 5.177a13.697 13.697 0 0 0 3.023 4.561l16.236 16.237a13.687 13.687 0 0 0 4.558 3.02Z" fill="#FFF"/><path d="m42.605 44.983 11.973 11.973.25-.21 9.076-9.076c1.466-1.465 1.487-3.888.021-5.354l-9.327-9.326-11.993 11.993Z" fill="#FFF"/><path d="M39.068 41.445 51.06 29.452l-3.372-3.372c-1.465-1.465-3.9-1.456-5.366.01l-9.305 9.305 6.05 6.05Z" fill="#F0AB2B"/><path d="m47.668 63.906 3.393-3.393-21.582-21.58-3.392 3.393c-1.465 1.465-1.444 3.87.021 5.335l16.236 16.236c1.466 1.465 3.858 1.475 5.324.01" fill="#FFF"/></g></svg>