<svg xmlns="http://www.w3.org/2000/svg" viewBox="0 0 90 90"><path fill="#0070DC" d="M0 0h90v90H0z"/><path d="M45 56.466c2.04 0 3.693 1.08 3.693 2.413 0 .485.431 4.198.877 8.094l.139 1.212c.428 3.767.83 7.411.83 8.194 0 2-2.48 3.621-5.539 3.621-3.06 0-5.54-1.62-5.54-3.62 0-.784.403-4.428.831-8.195l.139-1.212c.446-3.896.877-7.609.877-8.094 0-1.333 1.653-2.413 3.693-2.413Zm9.977-5.733c1.02-1.759 2.787-2.643 3.946-1.977.874.503 14.691 6.32 16.152 7.159 1.74 1 1.91 3.948.38 6.585-1.53 2.637-4.18 3.965-5.92 2.964-1.46-.839-13.43-9.84-14.305-10.341-1.16-.667-1.274-2.632-.253-4.39Zm-23.9-1.977c1.16-.666 2.926.218 3.946 1.977 1.02 1.758.906 3.723-.253 4.39-.874.502-12.845 9.502-14.305 10.341-1.74 1-4.39-.327-5.92-2.964-1.53-2.637-1.36-5.585.38-6.585 1.46-.84 15.278-6.656 16.152-7.159Zm38.458-24.22c1.74-1 4.39.327 5.92 2.964 1.53 2.637 1.36 5.585-.38 6.585-1.46.84-15.278 6.656-16.152 7.159-1.16.666-2.926-.218-3.946-1.977-1.02-1.758-.906-3.723.253-4.39.874-.502 12.845-9.502 14.305-10.341ZM14.545 27.5c1.53-2.637 4.18-3.965 5.92-2.964 1.46.839 13.43 9.84 14.305 10.341 1.16.667 1.274 2.632.253 4.39-1.02 1.759-2.787 2.643-3.946 1.977-.874-.503-14.691-6.32-16.152-7.159-1.74-1-1.91-3.948-.38-6.585ZM45 10c3.06 0 5.54 1.62 5.54 3.62 0 .784-.403 4.428-.831 8.195l-.139 1.212c-.446 3.896-.877 7.609-.877 8.094 0 1.333-1.653 2.413-3.693 2.413s-3.693-1.08-3.693-2.413c0-.485-.431-4.198-.877-8.094l-.139-1.212c-.428-3.767-.83-7.411-.83-8.194 0-2 2.48-3.621 5.539-3.621Z" fill="#FDB931"/></svg>