<svg xmlns="http://www.w3.org/2000/svg" viewBox="0 0 90 90"><defs><linearGradient id="A" x1="42.882%" x2="53.561%" y1="-23.267%" y2="86.232%"><stop offset="0%" stop-color="#022bd1"/><stop offset="12%" stop-color="#023ed1"/><stop offset="38%" stop-color="#016fd0"/><stop offset="73%" stop-color="#01bece"/><stop offset="100%" stop-color="#00ffcd"/></linearGradient><linearGradient id="B" x1="57.109%" x2="46.435%" y1="123.203%" y2="13.813%"><stop offset="0%" stop-color="#022bd1"/><stop offset="12%" stop-color="#023ed1"/><stop offset="38%" stop-color="#016fd0"/><stop offset="73%" stop-color="#01bece"/><stop offset="100%" stop-color="#00ffcd"/></linearGradient></defs><g fill="none" fill-rule="evenodd"><path fill="#fff" opacity="0" d="M0 0h90v90H0z"/><g fill-rule="nonzero" transform="translate(0 1)"><path fill="url(#A)" d="M53.104 80.567c-20.327 0-36.805-16.406-36.805-36.644 0-.717.026-1.433.069-2.15v-.016c0-.169.02-.326.033-.505.029-.449.072-.899.124-1.342a37.43 37.43 0 0 1 .422-2.821c-.177.934-.317 1.874-.422 2.821 1.688-14.068 13.48-24.776 27.705-25.16s26.582 9.673 29.033 23.629C70.34 19.555 53.433 6.088 34.344 7.381S.336 24.295 0 43.34c.005 2.372.198 4.74.579 7.081.02.111.036.225.059.326-.023-.114-.039-.228-.059-.326C4.12 72.085 22.913 87.998 44.957 88c22.731 0 41.607-16.706 44.624-38.51-2.66 17.674-18.056 31.077-36.478 31.077z"/><path fill="url(#B)" d="M36.9 7.433c20.325.002 36.802 16.407 36.802 36.644 0 .717-.022 1.433-.065 2.15v.026l-.029.505c-.033.449-.075.899-.128 1.342-.105.945-.242 1.886-.422 2.821.18-.935.327-1.876.422-2.821-1.678 14.074-13.471 24.792-27.701 25.176s-26.589-9.683-29.03-23.645C19.68 68.446 36.583 81.9 55.664 80.606S89.659 63.698 90 44.66c-.004-2.372-.196-4.74-.576-7.081l-.062-.326.062.326C85.881 15.915 67.088.002 45.043 0 22.312 0 3.399 16.794.383 38.598 3.043 20.928 18.474 7.433 36.9 7.433z"/></g></g></svg>