<svg xmlns="http://www.w3.org/2000/svg" viewBox="0 0 90 90"><path fill="#F4F4F4" d="M43.5.02a44.83 44.83 0 0127.25 8.15 45.24 45.24 0 0118.4 28.46c1.73 8.26.74 16.95-2.27 24.8A45.25 45.25 0 0165.33 85.3c-6.32 3.17-13.4 5.06-20.5 4.63-5.92.34-11.83-1-17.27-3.28-11-4.6-20-13.79-24.35-24.91a44.63 44.63 0 01-1.96-27.09A45.16 45.16 0 0119.83 7.74 44.91 44.91 0 0143.5.02"/><path fill="#F60023" d="M35.17 10.62A35.47 35.47 0 0013.67 29a36.88 36.88 0 00-3.26 21.8c.19.89.1 1.9.67 2.67 3.5-8.02 7.7-16.08 14.44-21.75 6.46-5.23 14.27-9.22 22.64-9.38-1.7-2.06-3.4-4.12-5.14-6.15 6 1.73 12 3.54 17.95 5.48-4.08 4.2-8.16 8.4-12.41 12.42.14-2.58.33-5.17.4-7.76a16.9 16.9 0 00-7.94 3.92c-4.95 4.28-7.86 10.51-9.67 16.77a61.12 61.12 0 00-2.32 19.92A34.41 34.41 0 0042.2 62.4c4.95-2.88 9.13-7.45 10.82-13.1a77.3 77.3 0 00-6.34 1.36c3.38-4.41 6.84-8.76 10.22-13.18 2.9 4.93 5.87 9.82 8.42 14.95-2.26-.9-4.4-2.1-6.7-2.87 2.37 9.67 1.85 20.12-1.92 29.34 10.12-3.6 18.36-12.27 21.6-22.75a36.88 36.88 0 00-2.45-28.01 35.44 35.44 0 00-17.84-16.38 34.76 34.76 0 00-22.85-1.15z"/></svg>