<svg xmlns="http://www.w3.org/2000/svg" viewBox="0 0 90 90"><path fill="#54575A" d="M0 0h90v90H0z"/><path fill="#FFF" d="M63.3 28.06v.5a5.96 5.96 0 013.52 2.41A9.22 9.22 0 0168 36c0 2.3-.35 4.6-1.04 6.8a50.61 50.61 0 01-3.02 7.47l-1.42 3.12-6.94-16.96c-.34-.81-.63-1.64-.86-2.49a9.4 9.4 0 01-.33-1.98 3.2 3.2 0 013.05-3.32v-.5H36.48v.5c.72.13 1.4.37 2.05.7.65.45 1.2 1.03 1.61 1.7A23.02 23.02 0 0142 34.66l3.27 7.85-5.9 11.75-8.81-20.55a7.3 7.3 0 01-.56-1.3 5.18 5.18 0 01-.13-.98c0-.63.22-1.23.63-1.7.51-.55 1.15-.96 1.86-1.2v-.46H11v.5c1.74.53 3.31 1.5 4.57 2.82 1.65 1.91 3 4.07 4.01 6.4L33.1 68h.56l12.19-24.29L56.27 68h.55l12.4-26.9a43.69 43.69 0 014.93-8.65A13.56 13.56 0 0179 28.49V28H63.3v.06z"/></svg>