<svg viewBox="0 0 90 90" xmlns="http://www.w3.org/2000/svg"><defs><linearGradient x1="11.356%" y1="90.605%" x2="50%" y2="24.468%" id="a"><stop stop-color="#7C2DD4" offset="0%"/><stop stop-color="#3A216F" offset="100%"/></linearGradient></defs><g fill="none" fill-rule="evenodd"><path fill="#FFF" d="M0 0h90v90H0z"/><path d="M54.507 36.212H5.502a2.168 2.168 0 0 1-2.118-1.725l-.033-.203L.018 6.746A2.731 2.731 0 0 1 .69 4.618a2.697 2.697 0 0 1 3.632-.368l.19.158 9.907 11.577a2.696 2.696 0 0 0 3.648-.126l.168-.181L28.152.957A2.696 2.696 0 0 1 32.1.77l.168.181 10.103 14.875a2.697 2.697 0 0 0 2.768.78l9.928-12.102a2.699 2.699 0 0 1 1.874-.708l.136.008a2.717 2.717 0 0 1 2.921 2.802l-.016.222-3.324 27.456a2.171 2.171 0 0 1-1.947 1.918l-.204.01H5.502h49.005Z" transform="translate(15 27.059)" fill="url(#a)" fill-rule="nonzero"/></g></svg>