<svg xmlns="http://www.w3.org/2000/svg" viewBox="0 0 90 90" fill-rule="evenodd"><path fill="#000" d="M0 0h90v90H0z"/><path fill="#fff" fill-rule="nonzero" d="M72.143 41.483l2.712-2.721c.098-.099.329-.331-.138-.813-.2-.207-.383-.312-.542-.314-.14 0-.233.074-.305.147l-2.719 2.727-2.714-2.74c-.219-.22-.476-.169-.807.163-.337.34-.392.601-.173.821l2.715 2.74-2.659 2.667-.019.019c-.065.063-.162.158-.164.313s.105.348.315.559c.178.178.346.269.5.269.174 0 .285-.112.348-.175l2.669-2.677 2.729 2.738c.034.034.131.114.285.114h.006c.173-.002.354-.103.54-.298.306-.323.357-.591.152-.799l-2.73-2.739zm-9.799-3.909c-2.01.153-3.585 1.927-3.585 4.038v6.674c0 .387.293.466.733.466s.733-.079.733-.466v-6.69c0-1.315.954-2.444 2.171-2.571a2.42 2.42 0 0 1 1.893.621 2.47 2.47 0 0 1 .807 1.83c0 .2-.098.852-.543 1.456-.337.457-.976 1.001-2.108 1.001h-.021c-.291 0-.539.014-.586.704-.032.465-.029.672.371.728.714.099 1.441-.041 2.162-.417 1.231-.643 2.056-1.86 2.153-3.178a3.92 3.92 0 0 0-1.129-3.064c-.805-.805-1.916-1.218-3.051-1.133zM20.73 41.998c-1.44-.207-2.845.177-3.989 1.06v-3.975h6.714c.233 0 .401-.042.401-.733 0-.674-.271-.701-.45-.701h-7.435c-.432 0-.66.35-.66.739v6.524c0 .342.216.458.618.538.352.07.557.029.711-.142l.016-.025c.708-1.024 2.25-2.016 3.715-1.837 1.749.215 3.157 1.614 3.349 3.327a3.76 3.76 0 0 1-.936 2.959c-.717.805-1.743 1.266-2.815 1.266-1.588 0-2.976-1.024-3.554-2.51-.086-.22-.23-.383-.856-.155-.575.21-.608.452-.529.672.752 2.078 2.737 3.475 4.938 3.475a5.25 5.25 0 0 0 3.914-1.759c1.01-1.133 1.469-2.593 1.3-4.111a5.24 5.24 0 0 0-4.454-4.612zm29.03 8.903a5.9 5.9 0 1 1 0-11.801 5.9 5.9 0 1 1 0 11.801zm0-13.401c-4.123 0-7.476 3.365-7.476 7.5s3.354 7.5 7.476 7.5 7.476-3.364 7.476-7.5-3.354-7.5-7.476-7.5zM33.58 50.9a5.9 5.9 0 1 1 0-11.801 5.9 5.9 0 1 1 0 11.801zM26.103 45c0 4.136 3.354 7.5 7.476 7.5s7.476-3.364 7.476-7.5-3.354-7.5-7.476-7.5-7.476 3.365-7.476 7.5z"/></svg>