<svg xmlns="http://www.w3.org/2000/svg" viewBox="0 0 90 90"><path fill="#FFF" d="M0 0h90v90H0z"/><path d="M71 21.097h-1.459c-.39 0-.778.29-.973.676L49.398 67.55a1.04 1.04 0 0 0 .973 1.45h7.98c3.6 0 6.909-2.125 8.27-5.505l12.65-30.036c2.531-5.892-1.848-12.362-8.27-12.362Zm-6.81 0H50.857c-.39 0-.779.29-.973.676L30.618 67.55A1.04 1.04 0 0 0 31.59 69h13.331c.39 0 .779-.29.973-.676l19.267-45.779a1.04 1.04 0 0 0-.973-1.448Z" fill="#2F9FA0"/><path d="m45.409 24.767-1.265-3.09c-.195-.387-.584-.677-.973-.677H29.839a1.04 1.04 0 0 0-.973 1.449l7.98 19.026c.389.87 1.556.87 1.946 0l6.714-15.936c0-.193 0-.483-.097-.772ZM25.46 21.773c-.194-.387-.583-.676-.973-.676H11.06a1.04 1.04 0 0 0-.973 1.448l17.32 41.336c.39.87 1.557.87 1.947 0l6.714-15.935c.097-.29.097-.58 0-.773l-10.607-25.4Z" fill="#4C9F5A"/></svg>