<svg xmlns="http://www.w3.org/2000/svg" viewBox="0 0 90 90"><path fill="url(#a)" d="M30.55 72.87c-14.2 0-19.04-17.97-20.12-21.46-2.72-8.78-3.55-16.68-3.64-17.51-.5-4.79 3.34-8.12 7.55-8.12 3.2 0 6.9 1.9 7.39 6.54.08.78.73 7.5 3.02 14.83 2.4 7.64 4.94 10.58 6.77 10.58 2.95 0 4.75-7.59 6.35-14.81 1.17-5.32 2.44-10.69 4.95-15.45 4.35-8.3 10.94-10.22 16.63-10.22 12.48 0 18.72 14.46 18.72 18.2 0 6.26-5.1 7.86-7.31 7.86-4.84 0-6.48-3.25-7.87-6.09-1.24-2.56-2.53-4.68-4.21-4.68-.55 0-1.06.28-1.54.76-4.16 4.23-5.56 26.4-13.9 34.87-4.62 4.7-9.64 4.7-12.79 4.7Z"/><path fill="url(#b)" d="M30.55 72.87c-14.2 0-19.04-17.97-20.12-21.46-2.72-8.78-3.55-16.68-3.64-17.51-.5-4.79 3.34-8.12 7.55-8.12 3.2 0 6.9 1.9 7.39 6.54.08.78.73 7.5 3.02 14.83 2.4 7.64 4.94 10.58 6.77 10.58 2.95 0 4.75-7.59 6.35-14.81 1.17-5.32 2.44-10.69 4.95-15.45 4.35-8.3 10.94-10.22 16.63-10.22 12.48 0 18.72 14.46 18.72 18.2 0 6.26-5.1 7.86-7.31 7.86-4.84 0-6.48-3.25-7.87-6.09-1.24-2.56-2.53-4.68-4.21-4.68-.55 0-1.06.28-1.54.76-4.16 4.23-5.56 26.4-13.9 34.87-4.62 4.7-9.64 4.7-12.79 4.7Z"/><path fill="url(#c)" d="M30.55 72.87c-14.2 0-19.04-17.97-20.12-21.46-2.72-8.78-3.55-16.68-3.64-17.51-.5-4.79 3.34-8.12 7.55-8.12 3.2 0 6.9 1.9 7.39 6.54.08.78.73 7.5 3.02 14.83 2.4 7.64 4.94 10.58 6.77 10.58 2.95 0 4.75-7.59 6.35-14.81 1.17-5.32 2.44-10.69 4.95-15.45 4.35-8.3 10.94-10.22 16.63-10.22 12.48 0 18.72 14.46 18.72 18.2 0 6.26-5.1 7.86-7.31 7.86-4.84 0-6.48-3.25-7.87-6.09-1.24-2.56-2.53-4.68-4.21-4.68-.55 0-1.06.28-1.54.76-4.16 4.23-5.56 26.4-13.9 34.87-4.62 4.7-9.64 4.7-12.79 4.7Z"/><path fill="url(#d)" d="M30.55 72.87c-14.2 0-19.04-17.97-20.12-21.46-2.72-8.78-3.55-16.68-3.64-17.51-.5-4.79 3.34-8.12 7.55-8.12 3.2 0 6.9 1.9 7.39 6.54.08.78.73 7.5 3.02 14.83 2.4 7.64 4.94 10.58 6.77 10.58 2.95 0 4.75-7.59 6.35-14.81 1.17-5.32 2.44-10.69 4.95-15.45 4.35-8.3 10.94-10.22 16.63-10.22 12.48 0 18.72 14.46 18.72 18.2 0 6.26-5.1 7.86-7.31 7.86-4.84 0-6.48-3.25-7.87-6.09-1.24-2.56-2.53-4.68-4.21-4.68-.55 0-1.06.28-1.54.76-4.16 4.23-5.56 26.4-13.9 34.87-4.62 4.7-9.64 4.7-12.79 4.7Z"/><path fill="url(#e)" d="M30.55 72.87c-14.2 0-19.04-17.97-20.12-21.46-2.72-8.78-3.55-16.68-3.64-17.51-.5-4.79 3.34-8.12 7.55-8.12 3.2 0 6.9 1.9 7.39 6.54.08.78.73 7.5 3.02 14.83 2.4 7.64 4.94 10.58 6.77 10.58 2.95 0 4.75-7.59 6.35-14.81 1.17-5.32 2.44-10.69 4.95-15.45 4.35-8.3 10.94-10.22 16.63-10.22 12.48 0 18.72 14.46 18.72 18.2 0 6.26-5.1 7.86-7.31 7.86-4.84 0-6.48-3.25-7.87-6.09-1.24-2.56-2.53-4.68-4.21-4.68-.55 0-1.06.28-1.54.76-4.16 4.23-5.56 26.4-13.9 34.87-4.62 4.7-9.64 4.7-12.79 4.7Z"/><path fill="url(#f)" d="M30.55 72.87c-14.2 0-19.04-17.97-20.12-21.46-2.72-8.78-3.55-16.68-3.64-17.51-.5-4.79 3.34-8.12 7.55-8.12 3.2 0 6.9 1.9 7.39 6.54.08.78.73 7.5 3.02 14.83 2.4 7.64 4.94 10.58 6.77 10.58 2.95 0 4.75-7.59 6.35-14.81 1.17-5.32 2.44-10.69 4.95-15.45 4.35-8.3 10.94-10.22 16.63-10.22 12.48 0 18.72 14.46 18.72 18.2 0 6.26-5.1 7.86-7.31 7.86-4.84 0-6.48-3.25-7.87-6.09-1.24-2.56-2.53-4.68-4.21-4.68-.55 0-1.06.28-1.54.76-4.16 4.23-5.56 26.4-13.9 34.87-4.62 4.7-9.64 4.7-12.79 4.7Z"/><path fill="url(#g)" d="M30.55 72.87c-14.2 0-19.04-17.97-20.12-21.46-2.72-8.78-3.55-16.68-3.64-17.51-.5-4.79 3.34-8.12 7.55-8.12 3.2 0 6.9 1.9 7.39 6.54.08.78.73 7.5 3.02 14.83 2.4 7.64 4.94 10.58 6.77 10.58 2.95 0 4.75-7.59 6.35-14.81 1.17-5.32 2.44-10.69 4.95-15.45 4.35-8.3 10.94-10.22 16.63-10.22 12.48 0 18.72 14.46 18.72 18.2 0 6.26-5.1 7.86-7.31 7.86-4.84 0-6.48-3.25-7.87-6.09-1.24-2.56-2.53-4.68-4.21-4.68-.55 0-1.06.28-1.54.76-4.16 4.23-5.56 26.4-13.9 34.87-4.62 4.7-9.64 4.7-12.79 4.7Z"/><path fill="url(#h)" d="M30.55 72.87c-14.2 0-19.04-17.97-20.12-21.46-2.72-8.78-3.55-16.68-3.64-17.51-.5-4.79 3.34-8.12 7.55-8.12 3.2 0 6.9 1.9 7.39 6.54.08.78.73 7.5 3.02 14.83 2.4 7.64 4.94 10.58 6.77 10.58 2.95 0 4.75-7.59 6.35-14.81 1.17-5.32 2.44-10.69 4.95-15.45 4.35-8.3 10.94-10.22 16.63-10.22 12.48 0 18.72 14.46 18.72 18.2 0 6.26-5.1 7.86-7.31 7.86-4.84 0-6.48-3.25-7.87-6.09-1.24-2.56-2.53-4.68-4.21-4.68-.55 0-1.06.28-1.54.76-4.16 4.23-5.56 26.4-13.9 34.87-4.62 4.7-9.64 4.7-12.79 4.7Z"/><path fill="url(#i)" d="M30.55 72.87c-14.2 0-19.04-17.97-20.12-21.46-2.72-8.78-3.55-16.68-3.64-17.51-.5-4.79 3.34-8.12 7.55-8.12 3.2 0 6.9 1.9 7.39 6.54.08.78.73 7.5 3.02 14.83 2.4 7.64 4.94 10.58 6.77 10.58 2.95 0 4.75-7.59 6.35-14.81 1.17-5.32 2.44-10.69 4.95-15.45 4.35-8.3 10.94-10.22 16.63-10.22 12.48 0 18.72 14.46 18.72 18.2 0 6.26-5.1 7.86-7.31 7.86-4.84 0-6.48-3.25-7.87-6.09-1.24-2.56-2.53-4.68-4.21-4.68-.55 0-1.06.28-1.54.76-4.16 4.23-5.56 26.4-13.9 34.87-4.62 4.7-9.64 4.7-12.79 4.7Z"/><path fill="url(#j)" d="M59.45 17.25c-5.69 0-12.27 1.93-16.63 10.22-2.5 4.76-3.78 10.13-4.95 15.45-.39 1.75-.79 3.52-1.21 5.2v24.09a14.95 14.95 0 0 0 6.68-4.04c8.34-8.47 9.74-30.64 13.9-34.87.48-.48.99-.76 1.54-.76 1.68 0 2.97 2.12 4.22 4.68 1.38 2.84 3.02 6.09 7.86 6.09 2.2 0 7.31-1.6 7.31-7.86 0-3.74-6.24-18.2-18.72-18.2Z"/><path fill="url(#k)" d="M30.55 72.87c-14.2 0-19.04-17.97-20.12-21.46-2.72-8.78-3.55-16.68-3.64-17.51-.5-4.79 3.34-8.12 7.55-8.12 3.2 0 6.9 1.9 7.39 6.54.08.78.73 7.5 3.02 14.83 2.4 7.64 4.94 10.58 6.77 10.58 2.95 0 4.75-7.59 6.35-14.81 1.17-5.32 2.44-10.69 4.95-15.45 4.35-8.3 10.94-10.22 16.63-10.22 12.48 0 18.72 14.46 18.72 18.2 0 6.26-5.1 7.86-7.31 7.86-4.84 0-6.48-3.25-7.87-6.09-1.24-2.56-2.53-4.68-4.21-4.68-.55 0-1.06.28-1.54.76-4.16 4.23-5.56 26.4-13.9 34.87-4.62 4.7-9.64 4.7-12.79 4.7Z"/><path fill="url(#l)" d="M30.55 72.87c-14.2 0-19.04-17.97-20.12-21.46-2.72-8.78-3.55-16.68-3.64-17.51-.5-4.79 3.34-8.12 7.55-8.12 3.2 0 6.9 1.9 7.39 6.54.08.78.73 7.5 3.02 14.83 2.4 7.64 4.94 10.58 6.77 10.58 2.95 0 4.75-7.59 6.35-14.81 1.17-5.32 2.44-10.69 4.95-15.45 4.35-8.3 10.94-10.22 16.63-10.22 12.48 0 18.72 14.46 18.72 18.2 0 6.26-5.1 7.86-7.31 7.86-4.84 0-6.48-3.25-7.87-6.09-1.24-2.56-2.53-4.68-4.21-4.68-.55 0-1.06.28-1.54.76-4.16 4.23-5.56 26.4-13.9 34.87-4.62 4.7-9.64 4.7-12.79 4.7Z"/><path fill="url(#m)" d="M30.55 72.87c-14.2 0-19.04-17.97-20.12-21.46-2.72-8.78-3.55-16.68-3.64-17.51-.5-4.79 3.34-8.12 7.55-8.12 3.2 0 6.9 1.9 7.39 6.54.08.78.73 7.5 3.02 14.83 2.4 7.64 4.94 10.58 6.77 10.58 2.95 0 4.75-7.59 6.35-14.81 1.17-5.32 2.44-10.69 4.95-15.45 4.35-8.3 10.94-10.22 16.63-10.22 12.48 0 18.72 14.46 18.72 18.2 0 6.26-5.1 7.86-7.31 7.86-4.84 0-6.48-3.25-7.87-6.09-1.24-2.56-2.53-4.68-4.21-4.68-.55 0-1.06.28-1.54.76-4.16 4.23-5.56 26.4-13.9 34.87-4.62 4.7-9.64 4.7-12.79 4.7Z"/><path fill="url(#n)" d="M30.55 72.87c-14.2 0-19.04-17.97-20.12-21.46-2.72-8.78-3.55-16.68-3.64-17.51-.5-4.79 3.34-8.12 7.55-8.12 3.2 0 6.9 1.9 7.39 6.54.08.78.73 7.5 3.02 14.83 2.4 7.64 4.94 10.58 6.77 10.58 2.95 0 4.75-7.59 6.35-14.81 1.17-5.32 2.44-10.69 4.95-15.45 4.35-8.3 10.94-10.22 16.63-10.22 12.48 0 18.72 14.46 18.72 18.2 0 6.26-5.1 7.86-7.31 7.86-4.84 0-6.48-3.25-7.87-6.09-1.24-2.56-2.53-4.68-4.21-4.68-.55 0-1.06.28-1.54.76-4.16 4.23-5.56 26.4-13.9 34.87-4.62 4.7-9.64 4.7-12.79 4.7Z"/><path fill="url(#o)" d="M30.55 72.87c-14.2 0-19.04-17.97-20.12-21.46-2.72-8.78-3.55-16.68-3.64-17.51-.5-4.79 3.34-8.12 7.55-8.12 3.2 0 6.9 1.9 7.39 6.54.08.78.73 7.5 3.02 14.83 2.4 7.64 4.94 10.58 6.77 10.58 2.95 0 4.75-7.59 6.35-14.81 1.17-5.32 2.44-10.69 4.95-15.45 4.35-8.3 10.94-10.22 16.63-10.22 12.48 0 18.72 14.46 18.72 18.2 0 6.26-5.1 7.86-7.31 7.86-4.84 0-6.48-3.25-7.87-6.09-1.24-2.56-2.53-4.68-4.21-4.68-.55 0-1.06.28-1.54.76-4.16 4.23-5.56 26.4-13.9 34.87-4.62 4.7-9.64 4.7-12.79 4.7Z"/><path fill="#316AFF" d="M75.87 25.78c-.56 0-1.13.05-1.68.16 2.64 3.8 3.96 7.79 3.96 9.51 0 6.26-5.1 7.86-7.32 7.86a7.45 7.45 0 0 1-4.1-1.08l-.02.12c-.31 1.24-.56 2.6-.98 3.92a51.75 51.75 0 0 1-3.1 7.7c-1.27 2.43-2.52 3.85-4.02 3.77-1.7-.08-3.08-2.28-4.8-8.48-.55-2-1.06-4.19-1.54-6.34-1.17-5.34-2.62-10.7-5.09-15.45-4.04-7.75-10.92-10.22-16.42-10.22-5.1 0-8.9 2.41-11.9 5.45-.82.84-1.72 1.98-2.63 3.3 2.6.64 5.08 2.6 5.47 6.32.08.71.62 6.35 2.45 12.88.53-1.64 1.3-4.06 3.07-7.98a14.2 14.2 0 0 1 2.37-3.7c.65-.66 1.23-.93 1.76-.93.57 0 2.51.52 4.4 7.16 2.35 8.23 4.1 21.33 10.75 28.28 2.93 3.07 7.04 5.06 12.73 5.06 4.99 0 9.15-2.2 12.12-5.26 4.88-5.03 7.55-13.35 8.5-16.42 2.72-8.76 3.48-16.68 3.57-17.51.5-4.79-3.53-8.12-7.55-8.12Z"/><path fill="url(#p)" d="M75.87 25.78c-.56 0-1.13.05-1.68.16 2.64 3.8 3.96 7.79 3.96 9.51 0 6.26-5.1 7.86-7.32 7.86a7.45 7.45 0 0 1-4.1-1.08l-.02.12c-.31 1.24-.56 2.6-.98 3.92a51.75 51.75 0 0 1-3.1 7.7c-1.27 2.43-2.52 3.85-4.02 3.77-1.7-.08-3.08-2.28-4.8-8.48-.55-2-1.06-4.19-1.54-6.34-1.17-5.34-2.62-10.7-5.09-15.45-4.04-7.75-10.92-10.22-16.42-10.22-5.1 0-8.9 2.41-11.9 5.45-.82.84-1.72 1.98-2.63 3.3 2.6.64 5.08 2.6 5.47 6.32.08.71.62 6.35 2.45 12.88.53-1.64 1.3-4.06 3.07-7.98a14.2 14.2 0 0 1 2.37-3.7c.65-.66 1.23-.93 1.76-.93.57 0 2.51.52 4.4 7.16 2.35 8.23 4.1 21.33 10.75 28.28 2.93 3.07 7.04 5.06 12.73 5.06 4.99 0 9.15-2.2 12.12-5.26 4.88-5.03 7.55-13.35 8.5-16.42 2.72-8.76 3.48-16.68 3.57-17.51.5-4.79-3.53-8.12-7.55-8.12Z"/><path fill="url(#q)" d="M75.87 25.78c-.56 0-1.13.05-1.68.16 2.64 3.8 3.96 7.79 3.96 9.51 0 6.26-5.1 7.86-7.32 7.86a7.45 7.45 0 0 1-4.1-1.08l-.02.12c-.31 1.24-.56 2.6-.98 3.92a51.75 51.75 0 0 1-3.1 7.7c-1.27 2.43-2.52 3.85-4.02 3.77-1.7-.08-3.08-2.28-4.8-8.48-.55-2-1.06-4.19-1.54-6.34-1.17-5.34-2.62-10.7-5.09-15.45-4.04-7.75-10.92-10.22-16.42-10.22-5.1 0-8.9 2.41-11.9 5.45-.82.84-1.72 1.98-2.63 3.3 2.6.64 5.08 2.6 5.47 6.32.08.71.62 6.35 2.45 12.88.53-1.64 1.3-4.06 3.07-7.98a14.2 14.2 0 0 1 2.37-3.7c.65-.66 1.23-.93 1.76-.93.57 0 2.51.52 4.4 7.16 2.35 8.23 4.1 21.33 10.75 28.28 2.93 3.07 7.04 5.06 12.73 5.06 4.99 0 9.15-2.2 12.12-5.26 4.88-5.03 7.55-13.35 8.5-16.42 2.72-8.76 3.48-16.68 3.57-17.51.5-4.79-3.53-8.12-7.55-8.12Z"/><path fill="url(#r)" d="M75.87 25.78c-.56 0-1.13.05-1.68.16 2.64 3.8 3.96 7.79 3.96 9.51 0 6.26-5.1 7.86-7.32 7.86a7.45 7.45 0 0 1-4.1-1.08l-.02.12c-.31 1.24-.56 2.6-.98 3.92a51.75 51.75 0 0 1-3.1 7.7c-1.27 2.43-2.52 3.85-4.02 3.77-1.7-.08-3.08-2.28-4.8-8.48-.55-2-1.06-4.19-1.54-6.34-1.17-5.34-2.62-10.7-5.09-15.45-4.04-7.75-10.92-10.22-16.42-10.22-5.1 0-8.9 2.41-11.9 5.45-.82.84-1.72 1.98-2.63 3.3 2.6.64 5.08 2.6 5.47 6.32.08.71.62 6.35 2.45 12.88.53-1.64 1.3-4.06 3.07-7.98a14.2 14.2 0 0 1 2.37-3.7c.65-.66 1.23-.93 1.76-.93.57 0 2.51.52 4.4 7.16 2.35 8.23 4.1 21.33 10.75 28.28 2.93 3.07 7.04 5.06 12.73 5.06 4.99 0 9.15-2.2 12.12-5.26 4.88-5.03 7.55-13.35 8.5-16.42 2.72-8.76 3.48-16.68 3.57-17.51.5-4.79-3.53-8.12-7.55-8.12Z"/><path fill="url(#s)" d="M75.87 25.78c-.56 0-1.13.05-1.68.16 2.64 3.8 3.96 7.79 3.96 9.51 0 6.26-5.1 7.86-7.32 7.86a7.45 7.45 0 0 1-4.1-1.08l-.02.12c-.31 1.24-.56 2.6-.98 3.92a51.75 51.75 0 0 1-3.1 7.7c-1.27 2.43-2.52 3.85-4.02 3.77-1.7-.08-3.08-2.28-4.8-8.48-.55-2-1.06-4.19-1.54-6.34-1.17-5.34-2.62-10.7-5.09-15.45-4.04-7.75-10.92-10.22-16.42-10.22-5.1 0-8.9 2.41-11.9 5.45-.82.84-1.72 1.98-2.63 3.3 2.6.64 5.08 2.6 5.47 6.32.08.71.62 6.35 2.45 12.88.53-1.64 1.3-4.06 3.07-7.98a14.2 14.2 0 0 1 2.37-3.7c.65-.66 1.23-.93 1.76-.93.57 0 2.51.52 4.4 7.16 2.35 8.23 4.1 21.33 10.75 28.28 2.93 3.07 7.04 5.06 12.73 5.06 4.99 0 9.15-2.2 12.12-5.26 4.88-5.03 7.55-13.35 8.5-16.42 2.72-8.76 3.48-16.68 3.57-17.51.5-4.79-3.53-8.12-7.55-8.12Z"/><path fill="url(#t)" d="M75.87 25.78c-.56 0-1.13.05-1.68.16 2.64 3.8 3.96 7.79 3.96 9.51 0 6.26-5.1 7.86-7.32 7.86a7.45 7.45 0 0 1-4.1-1.08l-.02.12c-.31 1.24-.56 2.6-.98 3.92a51.75 51.75 0 0 1-3.1 7.7c-1.27 2.43-2.52 3.85-4.02 3.77-1.7-.08-3.08-2.28-4.8-8.48-.55-2-1.06-4.19-1.54-6.34-1.17-5.34-2.62-10.7-5.09-15.45-4.04-7.75-10.92-10.22-16.42-10.22-5.1 0-8.9 2.41-11.9 5.45-.82.84-1.72 1.98-2.63 3.3 2.6.64 5.08 2.6 5.47 6.32.08.71.62 6.35 2.45 12.88.53-1.64 1.3-4.06 3.07-7.98a14.2 14.2 0 0 1 2.37-3.7c.65-.66 1.23-.93 1.76-.93.57 0 2.51.52 4.4 7.16 2.35 8.23 4.1 21.33 10.75 28.28 2.93 3.07 7.04 5.06 12.73 5.06 4.99 0 9.15-2.2 12.12-5.26 4.88-5.03 7.55-13.35 8.5-16.42 2.72-8.76 3.48-16.68 3.57-17.51.5-4.79-3.53-8.12-7.55-8.12Z"/><path fill="url(#u)" d="M75.87 25.78c-.56 0-1.13.05-1.68.16 2.64 3.8 3.96 7.79 3.96 9.51 0 6.26-5.1 7.86-7.32 7.86a7.45 7.45 0 0 1-4.1-1.08l-.02.12c-.31 1.24-.56 2.6-.98 3.92a51.75 51.75 0 0 1-3.1 7.7c-1.27 2.43-2.52 3.85-4.02 3.77-1.7-.08-3.08-2.28-4.8-8.48-.55-2-1.06-4.19-1.54-6.34-1.17-5.34-2.62-10.7-5.09-15.45-4.04-7.75-10.92-10.22-16.42-10.22-5.1 0-8.9 2.41-11.9 5.45-.82.84-1.72 1.98-2.63 3.3 2.6.64 5.08 2.6 5.47 6.32.08.71.62 6.35 2.45 12.88.53-1.64 1.3-4.06 3.07-7.98a14.2 14.2 0 0 1 2.37-3.7c.65-.66 1.23-.93 1.76-.93.57 0 2.51.52 4.4 7.16 2.35 8.23 4.1 21.33 10.75 28.28 2.93 3.07 7.04 5.06 12.73 5.06 4.99 0 9.15-2.2 12.12-5.26 4.88-5.03 7.55-13.35 8.5-16.42 2.72-8.76 3.48-16.68 3.57-17.51.5-4.79-3.53-8.12-7.55-8.12Z"/><path fill="url(#v)" d="M75.87 25.78c-.56 0-1.13.05-1.68.16 2.64 3.8 3.96 7.79 3.96 9.51 0 6.26-5.1 7.86-7.32 7.86a7.45 7.45 0 0 1-4.1-1.08l-.02.12c-.31 1.24-.56 2.6-.98 3.92a51.75 51.75 0 0 1-3.1 7.7c-1.27 2.43-2.52 3.85-4.02 3.77-1.7-.08-3.08-2.28-4.8-8.48-.55-2-1.06-4.19-1.54-6.34-1.17-5.34-2.62-10.7-5.09-15.45-4.04-7.75-10.92-10.22-16.42-10.22-5.1 0-8.9 2.41-11.9 5.45-.82.84-1.72 1.98-2.63 3.3 2.6.64 5.08 2.6 5.47 6.32.08.71.62 6.35 2.45 12.88.53-1.64 1.3-4.06 3.07-7.98a14.2 14.2 0 0 1 2.37-3.7c.65-.66 1.23-.93 1.76-.93.57 0 2.51.52 4.4 7.16 2.35 8.23 4.1 21.33 10.75 28.28 2.93 3.07 7.04 5.06 12.73 5.06 4.99 0 9.15-2.2 12.12-5.26 4.88-5.03 7.55-13.35 8.5-16.42 2.72-8.76 3.48-16.68 3.57-17.51.5-4.79-3.53-8.12-7.55-8.12Z"/><path fill="url(#w)" d="M75.87 25.78c-.56 0-1.13.05-1.68.16 2.64 3.8 3.96 7.79 3.96 9.51 0 6.26-5.1 7.86-7.32 7.86a7.45 7.45 0 0 1-4.1-1.08l-.02.12c-.31 1.24-.56 2.6-.98 3.92a51.75 51.75 0 0 1-3.1 7.7c-1.27 2.43-2.52 3.85-4.02 3.77-1.7-.08-3.08-2.28-4.8-8.48-.55-2-1.06-4.19-1.54-6.34-1.17-5.34-2.62-10.7-5.09-15.45-4.04-7.75-10.92-10.22-16.42-10.22-5.1 0-8.9 2.41-11.9 5.45-.82.84-1.72 1.98-2.63 3.3 2.6.64 5.08 2.6 5.47 6.32.08.71.62 6.35 2.45 12.88.53-1.64 1.3-4.06 3.07-7.98a14.2 14.2 0 0 1 2.37-3.7c.65-.66 1.23-.93 1.76-.93.57 0 2.51.52 4.4 7.16 2.35 8.23 4.1 21.33 10.75 28.28 2.93 3.07 7.04 5.06 12.73 5.06 4.99 0 9.15-2.2 12.12-5.26 4.88-5.03 7.55-13.35 8.5-16.42 2.72-8.76 3.48-16.68 3.57-17.51.5-4.79-3.53-8.12-7.55-8.12Z"/><path fill="url(#x)" d="M75.87 25.78c-.56 0-1.13.05-1.68.16 2.64 3.8 3.96 7.79 3.96 9.51 0 6.26-5.1 7.86-7.32 7.86a7.45 7.45 0 0 1-4.1-1.08l-.02.12c-.31 1.24-.56 2.6-.98 3.92a51.75 51.75 0 0 1-3.1 7.7c-1.27 2.43-2.52 3.85-4.02 3.77-1.7-.08-3.08-2.28-4.8-8.48-.55-2-1.06-4.19-1.54-6.34-1.17-5.34-2.62-10.7-5.09-15.45-4.04-7.75-10.92-10.22-16.42-10.22-5.1 0-8.9 2.41-11.9 5.45-.82.84-1.72 1.98-2.63 3.3 2.6.64 5.08 2.6 5.47 6.32.08.71.62 6.35 2.45 12.88.53-1.64 1.3-4.06 3.07-7.98a14.2 14.2 0 0 1 2.37-3.7c.65-.66 1.23-.93 1.76-.93.57 0 2.51.52 4.4 7.16 2.35 8.23 4.1 21.33 10.75 28.28 2.93 3.07 7.04 5.06 12.73 5.06 4.99 0 9.15-2.2 12.12-5.26 4.88-5.03 7.55-13.35 8.5-16.42 2.72-8.76 3.48-16.68 3.57-17.51.5-4.79-3.53-8.12-7.55-8.12Z"/><path fill="url(#y)" d="M75.87 25.78c-.56 0-1.13.05-1.68.16 2.64 3.8 3.96 7.79 3.96 9.51 0 6.26-5.1 7.86-7.32 7.86a7.45 7.45 0 0 1-4.1-1.08l-.02.12c-.31 1.24-.56 2.6-.98 3.92a51.75 51.75 0 0 1-3.1 7.7c-1.27 2.43-2.52 3.85-4.02 3.77-1.7-.08-3.08-2.28-4.8-8.48-.55-2-1.06-4.19-1.54-6.34-1.17-5.34-2.62-10.7-5.09-15.45-4.04-7.75-10.92-10.22-16.42-10.22-5.1 0-8.9 2.41-11.9 5.45-.82.84-1.72 1.98-2.63 3.3 2.6.64 5.08 2.6 5.47 6.32.08.71.62 6.35 2.45 12.88.53-1.64 1.3-4.06 3.07-7.98a14.2 14.2 0 0 1 2.37-3.7c.65-.66 1.23-.93 1.76-.93.57 0 2.51.52 4.4 7.16 2.35 8.23 4.1 21.33 10.75 28.28 2.93 3.07 7.04 5.06 12.73 5.06 4.99 0 9.15-2.2 12.12-5.26 4.88-5.03 7.55-13.35 8.5-16.42 2.72-8.76 3.48-16.68 3.57-17.51.5-4.79-3.53-8.12-7.55-8.12Z"/><path fill="url(#z)" d="M30.55 72.87c-14.2 0-19.04-17.97-20.12-21.46-2.72-8.78-3.55-16.68-3.64-17.51-.5-4.79 3.34-8.12 7.55-8.12 3.2 0 6.9 1.9 7.39 6.54.08.78.73 7.5 3.02 14.83 2.4 7.64 4.94 10.58 6.77 10.58 2.95 0 4.75-7.59 6.35-14.81 1.17-5.32 2.44-10.69 4.95-15.45 4.35-8.3 10.94-10.22 16.63-10.22 12.48 0 18.72 14.46 18.72 18.2 0 6.26-5.1 7.86-7.31 7.86-4.84 0-6.48-3.25-7.87-6.09-1.24-2.56-2.53-4.68-4.21-4.68-.55 0-1.06.28-1.54.76-4.16 4.23-5.56 26.4-13.9 34.87-4.62 4.7-9.64 4.7-12.79 4.7Z"/><path fill="url(#A)" d="M30.55 72.87c-14.2 0-19.04-17.97-20.12-21.46-2.72-8.78-3.55-16.68-3.64-17.51-.5-4.79 3.34-8.12 7.55-8.12 3.2 0 6.9 1.9 7.39 6.54.08.78.73 7.5 3.02 14.83 2.4 7.64 4.94 10.58 6.77 10.58 2.95 0 4.75-7.59 6.35-14.81 1.17-5.32 2.44-10.69 4.95-15.45 4.35-8.3 10.94-10.22 16.63-10.22 12.48 0 18.72 14.46 18.72 18.2 0 6.26-5.1 7.86-7.31 7.86-4.84 0-6.48-3.25-7.87-6.09-1.24-2.56-2.53-4.68-4.21-4.68-.55 0-1.06.28-1.54.76-4.16 4.23-5.56 26.4-13.9 34.87-4.62 4.7-9.64 4.7-12.79 4.7Z"/><path fill="url(#B)" d="M30.55 72.87c-14.2 0-19.04-17.97-20.12-21.46-2.72-8.78-3.55-16.68-3.64-17.51-.5-4.79 3.34-8.12 7.55-8.12 3.2 0 6.9 1.9 7.39 6.54.08.78.73 7.5 3.02 14.83 2.4 7.64 4.94 10.58 6.77 10.58 2.95 0 4.75-7.59 6.35-14.81 1.17-5.32 2.44-10.69 4.95-15.45 4.35-8.3 10.94-10.22 16.63-10.22 12.48 0 18.72 14.46 18.72 18.2 0 6.26-5.1 7.86-7.31 7.86-4.84 0-6.48-3.25-7.87-6.09-1.24-2.56-2.53-4.68-4.21-4.68-.55 0-1.06.28-1.54.76-4.16 4.23-5.56 26.4-13.9 34.87-4.62 4.7-9.64 4.7-12.79 4.7Z"/><path fill="url(#C)" d="M30.55 72.87c-14.2 0-19.04-17.97-20.12-21.46-2.72-8.78-3.55-16.68-3.64-17.51-.5-4.79 3.34-8.12 7.55-8.12 3.2 0 6.9 1.9 7.39 6.54.08.78.73 7.5 3.02 14.83 2.4 7.64 4.94 10.58 6.77 10.58 2.95 0 4.75-7.59 6.35-14.81 1.17-5.32 2.44-10.69 4.95-15.45 4.35-8.3 10.94-10.22 16.63-10.22 12.48 0 18.72 14.46 18.72 18.2 0 6.26-5.1 7.86-7.31 7.86-4.84 0-6.48-3.25-7.87-6.09-1.24-2.56-2.53-4.68-4.21-4.68-.55 0-1.06.28-1.54.76-4.16 4.23-5.56 26.4-13.9 34.87-4.62 4.7-9.64 4.7-12.79 4.7Z"/><path fill="url(#D)" d="M30.55 72.87c-14.2 0-19.04-17.97-20.12-21.46-2.72-8.78-3.55-16.68-3.64-17.51-.5-4.79 3.34-8.12 7.55-8.12 3.2 0 6.9 1.9 7.39 6.54.08.78.73 7.5 3.02 14.83 2.4 7.64 4.94 10.58 6.77 10.58 2.95 0 4.75-7.59 6.35-14.81 1.17-5.32 2.44-10.69 4.95-15.45 4.35-8.3 10.94-10.22 16.63-10.22 12.48 0 18.72 14.46 18.72 18.2 0 6.26-5.1 7.86-7.31 7.86-4.84 0-6.48-3.25-7.87-6.09-1.24-2.56-2.53-4.68-4.21-4.68-.55 0-1.06.28-1.54.76-4.16 4.23-5.56 26.4-13.9 34.87-4.62 4.7-9.64 4.7-12.79 4.7Z"/><defs><radialGradient id="b" cx="0" cy="0" r="1" gradientTransform="rotate(-120.86 31.28 13.26) scale(32.8722 27.5959)" gradientUnits="userSpaceOnUse"><stop stop-color="#007383"/><stop offset=".41" stop-color="#00717E" stop-opacity=".75"/><stop offset=".87" stop-color="#007281" stop-opacity="0"/></radialGradient><radialGradient id="c" cx="0" cy="0" r="1" gradientTransform="rotate(-126.73 39 5.97) scale(26.8085 17.6146)" gradientUnits="userSpaceOnUse"><stop stop-color="#218970"/><stop offset=".46" stop-color="#267E6A"/><stop offset="1" stop-color="#026C51" stop-opacity="0"/></radialGradient><radialGradient id="d" cx="0" cy="0" r="1" gradientTransform="rotate(-107.47 34.8 11.74) scale(21.8341 11.375)" gradientUnits="userSpaceOnUse"><stop stop-color="#178697"/><stop offset=".41" stop-color="#17838F" stop-opacity=".79"/><stop offset=".87" stop-color="#007281" stop-opacity="0"/></radialGradient><radialGradient id="e" cx="0" cy="0" r="1" gradientTransform="rotate(-120.86 35.6 11.76) scale(55.4471 17.1035)" gradientUnits="userSpaceOnUse"><stop stop-color="#25342F" stop-opacity=".3"/><stop offset="1" stop-color="#25342F" stop-opacity="0"/></radialGradient><radialGradient id="f" cx="0" cy="0" r="1" gradientTransform="matrix(1.78452 20.80651 -11.80127 1.01216 53.65 41.4)" gradientUnits="userSpaceOnUse"><stop stop-color="#056D4F"/><stop offset=".23" stop-color="#056C4E" stop-opacity=".75"/><stop offset=".6" stop-color="#056C4E" stop-opacity=".3"/><stop offset=".87" stop-color="#056C4F" stop-opacity="0"/></radialGradient><radialGradient id="g" cx="0" cy="0" r="1" gradientTransform="matrix(13.34214 20.60598 -10.80785 6.99796 54.58 7.63)" gradientUnits="userSpaceOnUse"><stop stop-color="#22B67B"/><stop offset=".41" stop-color="#24BE82"/><stop offset="1" stop-color="#24BE82" stop-opacity=".07"/></radialGradient><radialGradient id="i" cx="0" cy="0" r="1" gradientTransform="matrix(20.75806 24.43433 -24.37328 20.7062 -4.48 12.54)" gradientUnits="userSpaceOnUse"><stop stop-color="#09F8FF"/><stop offset="1" stop-color="#0BF7F9" stop-opacity="0"/></radialGradient><radialGradient id="j" cx="0" cy="0" r="1" gradientTransform="rotate(48.01 14.64 22) scale(65.027 64.9245)" gradientUnits="userSpaceOnUse"><stop stop-color="#00B8FF"/><stop offset=".75" stop-color="#00B9FC" stop-opacity="0"/></radialGradient><radialGradient id="k" cx="0" cy="0" r="1" gradientTransform="rotate(-107.47 28.9 13.55) scale(31.3437 21.7178)" gradientUnits="userSpaceOnUse"><stop stop-color="#00BCFF" stop-opacity=".76"/><stop offset=".57" stop-color="#00BAFC" stop-opacity="0"/></radialGradient><radialGradient id="l" cx="0" cy="0" r="1" gradientTransform="matrix(-14.11351 -17.09004 11.96482 -9.88093 72.3 33.27)" gradientUnits="userSpaceOnUse"><stop stop-color="#5FEC50"/><stop offset="1" stop-color="#3CC08E" stop-opacity="0"/></radialGradient><radialGradient id="m" cx="0" cy="0" r="1" gradientTransform="rotate(-79.09 63.35 -18.08) scale(6.71023 4.6411)" gradientUnits="userSpaceOnUse"><stop stop-color="#28855B"/><stop offset="1" stop-color="#14795C" stop-opacity="0"/></radialGradient><radialGradient id="n" cx="0" cy="0" r="1" gradientTransform="matrix(1.16148 -5.4085 7.55857 1.6232 68.8 47.05)" gradientUnits="userSpaceOnUse"><stop stop-color="#28855B"/><stop offset="1" stop-color="#14795C" stop-opacity="0"/></radialGradient><radialGradient id="o" cx="0" cy="0" r="1" gradientTransform="matrix(-12.4656 -13.46634 9.46026 -8.75723 75.39 37.09)" gradientUnits="userSpaceOnUse"><stop stop-color="#5FF05B"/><stop offset=".81" stop-color="#5DE955" stop-opacity="0"/></radialGradient><radialGradient id="p" cx="0" cy="0" r="1" gradientTransform="rotate(37.46 -27.65 123.9) scale(16.3195 22.6838)" gradientUnits="userSpaceOnUse"><stop stop-color="#123AA8"/><stop offset=".97" stop-color="#123AA8" stop-opacity="0"/></radialGradient><radialGradient id="q" cx="0" cy="0" r="1" gradientTransform="rotate(8.49 -265.06 464.11) scale(19.2555 28.7417)" gradientUnits="userSpaceOnUse"><stop stop-color="#123AA8"/><stop offset=".59" stop-color="#123AA8" stop-opacity="0"/></radialGradient><radialGradient id="r" cx="0" cy="0" r="1" gradientTransform="matrix(14.94784 6.86358 -12.23024 26.63562 67.15 46.58)" gradientUnits="userSpaceOnUse"><stop stop-color="#123AA8"/><stop offset=".76" stop-color="#123AA8" stop-opacity="0"/></radialGradient><radialGradient id="s" cx="0" cy="0" r="1" gradientTransform="rotate(95.8 11.12 53.24) scale(29.5689 16.2041)" gradientUnits="userSpaceOnUse"><stop stop-color="#123AA8"/><stop offset=".59" stop-color="#123AA8" stop-opacity="0"/><stop offset="1" stop-color="#123AA8" stop-opacity="0"/></radialGradient><radialGradient id="t" cx="0" cy="0" r="1" gradientTransform="matrix(-2.2778 35.51212 -12.67346 -.8129 69.65 34.51)" gradientUnits="userSpaceOnUse"><stop stop-color="#123AA8"/><stop offset=".88" stop-color="#123AA8" stop-opacity="0"/></radialGradient><radialGradient id="u" cx="0" cy="0" r="1" gradientTransform="matrix(1.70157 18.80618 -9.9634 .90148 29.32 41.9)" gradientUnits="userSpaceOnUse"><stop stop-color="#123AA8"/><stop offset=".88" stop-color="#123AA8" stop-opacity="0"/></radialGradient><radialGradient id="v" cx="0" cy="0" r="1" gradientTransform="matrix(.94539 19.68471 -16.25147 .7805 29.3 42.41)" gradientUnits="userSpaceOnUse"><stop stop-color="#123AA8"/><stop offset=".88" stop-color="#123AA8" stop-opacity="0"/></radialGradient><radialGradient id="w" cx="0" cy="0" r="1" gradientTransform="matrix(20.20427 -8.64808 16.90404 39.49243 33.79 60.93)" gradientUnits="userSpaceOnUse"><stop stop-color="#123AA8"/><stop offset=".71" stop-color="#123AA8" stop-opacity="0"/></radialGradient><radialGradient id="x" cx="0" cy="0" r="1" gradientTransform="matrix(-13.64054 -5.09294 8.7205 -23.35632 25.97 37.6)" gradientUnits="userSpaceOnUse"><stop stop-color="#1A3DA0"/><stop offset=".71" stop-color="#123AA8" stop-opacity="0"/></radialGradient><radialGradient id="y" cx="0" cy="0" r="1" gradientTransform="matrix(26.59247 8.00292 -8.07888 26.84489 13.15 42.55)" gradientUnits="userSpaceOnUse"><stop stop-color="#1E3882"/><stop offset=".76" stop-color="#123AA8" stop-opacity="0"/></radialGradient><radialGradient id="A" cx="0" cy="0" r="1" gradientTransform="matrix(20.75806 24.43433 -24.37328 20.7062 -4.49 12.54)" gradientUnits="userSpaceOnUse"><stop stop-color="#09F8FF"/><stop offset="1" stop-color="#0BF7F9" stop-opacity="0"/></radialGradient><radialGradient id="D" cx="0" cy="0" r="1" gradientTransform="rotate(-107.47 28.9 13.55) scale(31.3437 21.7178)" gradientUnits="userSpaceOnUse"><stop stop-color="#00BCFF" stop-opacity=".76"/><stop offset=".57" stop-color="#00BAFC" stop-opacity="0"/></radialGradient><linearGradient id="a" x1="70.4" x2="20.22" y1="33.57" y2="50.02" gradientUnits="userSpaceOnUse"><stop stop-color="#5CEE64"/><stop offset="1" stop-color="#0BF"/></linearGradient><linearGradient id="h" x1="-12.12" x2="23.44" y1="44.57" y2="44.87" gradientUnits="userSpaceOnUse"><stop stop-color="#09F8FF"/><stop offset="1" stop-color="#0BF7F9" stop-opacity="0"/></linearGradient><linearGradient id="z" x1="4.44" x2="31.81" y1="27.19" y2="44.65" gradientUnits="userSpaceOnUse"><stop offset=".23" stop-color="#1DC4FF"/><stop offset="1" stop-color="#1CC1FF" stop-opacity="0"/></linearGradient><linearGradient id="B" x1="5.95" x2="13.63" y1="28.08" y2="35.04" gradientUnits="userSpaceOnUse"><stop stop-color="#26FBFF"/><stop offset=".64" stop-color="#0BF7F9" stop-opacity="0"/></linearGradient><linearGradient id="C" x1="3.91" x2="14.53" y1="33.41" y2="34.16" gradientUnits="userSpaceOnUse"><stop stop-color="#26FBFF"/><stop offset=".64" stop-color="#0BF7F9" stop-opacity="0"/></linearGradient></defs></svg>