<svg xmlns="http://www.w3.org/2000/svg" viewBox="0 0 90 90" fill="none" fill-rule="evenodd"><path fill="#4353ff" d="M0 0h90v90H0z"/><g fill-rule="nonzero"><path fill="#4353ff" d="M0 11.25C0 5.037 5.037 0 11.25 0h67.5C84.963 0 90 5.037 90 11.25v67.5C90 84.963 84.963 90 78.75 90h-67.5C5.037 90 0 84.963 0 78.75v-67.5z"/><path fill="#fff" d="M60.953 37.71l-4.905 15.525c-.135-1.192-3.465-26.91-3.465-26.91-7.785 0-11.925 5.535-14.13 11.385l-6.007 15.548c-.023-1.125-.855-15.413-.855-15.413-.473-7.177-7.02-11.52-12.33-11.52l6.39 38.947c8.145-.022 12.533-5.535 14.828-11.407l5.085-13.23c.045.54 3.51 24.637 3.51 24.637 8.167 0 12.578-5.152 14.94-10.8l11.453-28.147c-8.078 0-12.33 5.512-14.513 11.385z"/></g></svg>