<svg viewBox="0 0 90 90" xmlns="http://www.w3.org/2000/svg"><path d="m76.08 43.598-8.184-14.273a1.882 1.882 0 0 0-2.582-.698 1.912 1.912 0 0 0-.691 2.6l7.092 12.37h-8.77l-7.299-12.731L66.56 11.718l18.278 31.88H76.08ZM66.556 79.29l-4.38-7.638 13.902-24.25h8.76L66.556 79.29Zm-35.962-5.785 28.31.051 4.38 7.637H24.536L5.164 47.403h8.758L28.093 72.04l.163.25c.719.98 1.097 1.085 2.338 1.215Zm-3.537-26.102 7.425 12.95-4.373 7.67-11.822-20.62h8.77Zm2.95-24.25 4.386 7.65-7.336 12.795h-8.77l11.72-20.445Zm22.404 5.746H37.665l-4.384-7.649h23.488L52.41 28.9Zm-4.02 14.699 5.08-8.915 5.11 8.915H48.39Zm7.218 16.6 7.336-12.795h8.77L59.994 67.848l-4.385-7.65Zm-7.336-12.795H58.58l-5.153 8.988-5.154-8.988Zm-10.43 14.699 2.17-3.807 5.055-8.871 11.653 20.325H33.484l4.36-7.647Zm4.02-14.7-5.207 9.135-5.236-9.134h10.442Zm-2.015-14.696H50.24l-5.18 9.09-5.212-9.09Zm1.88 10.892H31.42l5.153-8.99 5.156 8.99ZM26.72 9.807h36.574l-4.354 7.638H31.1l-4.38-7.638Zm63.266 35.466a2.068 2.068 0 0 0-.042-.23c-.004-.019-.01-.038-.013-.056a2.42 2.42 0 0 0-.068-.2l-.006-.016a1.794 1.794 0 0 0-.102-.207c-.003-.004-.004-.011-.008-.016L68.192 6.95a1.826 1.826 0 0 0-.287-.377l-.041-.042a2.55 2.55 0 0 0-.178-.151 2.288 2.288 0 0 0-.178-.12l-.01-.006-.003-.002a1.763 1.763 0 0 0-.2-.099c-.014-.008-.033-.013-.049-.02a1.788 1.788 0 0 0-.223-.073 1.952 1.952 0 0 0-.453-.059L66.556 6h-43.11l-.016.001a1.62 1.62 0 0 0-.231.016l-.017.001a2.484 2.484 0 0 0-.205.042l-.055.015c-.056.017-.11.036-.164.058l-.056.022a1.753 1.753 0 0 0-.201.1c-.004 0-.005.003-.006.003a1.837 1.837 0 0 0-.203.137c-.036.028-.069.06-.104.091-.026.025-.055.047-.081.073-.038.04-.074.082-.11.125-.017.02-.037.04-.053.064-.037.046-.068.097-.1.149-.01.018-.025.035-.036.053l-.006.011c0 .004 0 .006-.003.006L6.618 33.447a1.912 1.912 0 0 0 .691 2.6c.904.526 2.06.214 2.582-.696l13.554-23.643 4.38 7.64-13.903 24.25H1.87a1.23 1.23 0 0 0-.122.006c-.022.002-.046.002-.067.006a1.08 1.08 0 0 0-.111.017 1.2 1.2 0 0 0-.169.037l-.091.025c-.024.008-.049.019-.074.028a1.322 1.322 0 0 0-.104.04l-.062.03c-.035.018-.072.035-.106.055a.163.163 0 0 0-.019.01l-.029.018a2.342 2.342 0 0 0-.152.104l-.052.039c-.055.046-.11.092-.162.146l-.04.043a2.126 2.126 0 0 0-.242.325l-.03.048a2.324 2.324 0 0 0-.097.202l-.01.029a1.84 1.84 0 0 0-.06.184l-.015.057a2.73 2.73 0 0 0-.033.167l-.01.062a2.364 2.364 0 0 0-.013.21v.015l.001.03c.002.063.005.126.012.188l.011.074c.008.051.018.103.03.153l.018.069a1.766 1.766 0 0 0 .18.435l21.556 37.598c.337.589.962.952 1.637.952h43.128a1.773 1.773 0 0 0 .508-.077 1.79 1.79 0 0 0 .163-.055c.018-.008.038-.014.055-.022a1.728 1.728 0 0 0 .39-.227c.016-.011.03-.025.045-.036.047-.038.09-.075.13-.115l.043-.042a2.3 2.3 0 0 0 .136-.155c.003-.006.007-.01.012-.016a1.58 1.58 0 0 0 .127-.192l.012-.015 21.552-37.596c.004-.004.005-.011.008-.016.038-.068.073-.136.102-.209.003-.004.004-.01.006-.014.026-.065.048-.131.068-.2.004-.018.01-.036.013-.057A1.98 1.98 0 0 0 90 45.5c0-.075-.005-.151-.015-.226Z" fill="#72E5F9" fill-rule="evenodd"/></svg>