<svg viewBox="0 0 90 90" xmlns="http://www.w3.org/2000/svg"><path d="M83.59 41.13c-.917-8.892-4.97-16.893-11.043-22.899a38.37 38.37 0 0 0-27.05-11.12h-.01c-10.54 0-20.114 4.255-27.053 11.119C11.498 25.094 7.19 34.566 7.19 44.996v.008c0 10.43 4.308 19.898 11.244 26.764 6.94 6.87 16.513 11.123 27.056 11.123h.005a38.38 38.38 0 0 0 24.9-9.132c2.005-.143 4.415-3.228 12.805-3.646l-.004.005-.01.014a45.245 45.245 0 0 1-8.132 9.013A45.548 45.548 0 0 1 45.495 90h-.005c-12.527 0-23.899-5.054-32.136-13.203C5.109 68.644 0 57.394 0 45.004v-.008c.001-12.394 5.11-23.644 13.357-31.793C21.593 5.054 32.963.001 45.487 0h.01a45.579 45.579 0 0 1 32.131 13.203c6.31 6.24 10.58 14.284 12.266 23.293.607 4.008-1.256 11.22-9.224 16.246-4.558 2.528-7.113 3.409-10.339 3.409-2.553 0-3.999-.55-6.777-2.53a347.85 347.85 0 0 0-7.114 6.048c-5.892 5.167-9.336 7.277-12.223 7.277-2.003 0-4.226-1.538-5.339-3.758-.666-1.208-.89-2.529-.89-4.728 0-1.1.224-3.848.447-6.158l-8.113 7.918c-4.002 3.628-6.448 5.06-9.005 5.06-2.666 0-6.335-2.092-8.338-4.842-1.667-2.087-2.221-3.957-2.669-7.806v-1.429c0-.66.114-1.87.224-3.299.778-4.619 2.335-7.808 5.225-11.217C23.762 27.45 29.32 23.05 32.989 23.05c1.443 0 3.777.55 5.113 1.1 1.002.55 1.445 1.21 1.445 2.199 0 3.96-5.115 9.567-18.896 20.783l-.446 1.76c-.777 2.42-.887 3.189-.887 4.179 0 1.21.663 2.198 1.557 2.198.442 0 1.11-.329 1.886-.878l3.004-1.98c4.778-2.968 16.34-13.855 21.672-20.343 3.667-4.51 5.335-6.049 6.558-6.049.444 0 1.888.44 2.891.77 1.442.55 2.11 1.1 2.11 1.979 0 .44-.668 1.54-2.67 4.949-5.554 9.017-9.775 17.815-9.775 20.343 0 1.321.886 2.42 1.996 2.42 1.666 0 3.666-1.65 10.56-8.358-.221-.99-.332-1.868-.332-2.419 0-5.499 10.334-18.473 14.67-18.473 2.002 0 3.56 2.199 3.56 5.278 0 4.398-.893 6.267-7.451 15.395 1.557 1.649 3.044 2.683 4.891 2.31 4.848-.981 9.102-6.12 9.145-9.083" fill="#224099"/></svg>