<svg xmlns="http://www.w3.org/2000/svg" viewBox="0 0 90 90"><defs><linearGradient x1="14.338%" y1="103.104%" x2="50.217%" y2="25.868%" id="a"><stop stop-color="#0072CE" offset="0%"/><stop stop-color="#2F94E7" offset="100%"/></linearGradient></defs><path fill="#FFF" d="M0 0h90v90H0z"/><path d="M1.17 23.322C.526 22.952 0 22.043 0 21.302V1.87C0 .205 1.184-.478 2.633.355l30.062 17.298c.644.37.644.977 0 1.346L14.347 29.556c-.644.37-1.697.37-2.34 0L1.17 23.322Zm13.176 15.451c-.644.37-1.697.37-2.34 0L1.17 32.538C.526 32.168 0 32.47 0 33.21v21.92c0 1.665 1.184 2.348 2.633 1.515l46.281-26.63c1.448-.834 1.448-2.197 0-3.03l-5.87-3.378c-.644-.37-1.697-.37-2.34 0L14.345 38.773Z" transform="translate(20 17)" fill="url(#a)"/></svg>