<svg viewBox="0 0 90 90" xmlns="http://www.w3.org/2000/svg"><g fill="none"><path d="M83.242 28.962c-.79-.255-1.693-.425-2.54-.425H64.643c-1.919 0-3.443-1.446-3.443-3.375V12.315l-4.572 4.736v8.111c0 4.51 3.5 8.366 8.015 8.366h16.031c1.92 0 3.33 1.39 3.33 3.29v16.137c0 1.928-1.44 3.516-3.33 3.516h-1.327l2.315 2.298c.592.595 1.185 1.276 1.552 2.013C86.516 59.732 89 56.613 89 52.955V36.818c.028-3.63-2.456-6.806-5.758-7.856ZM61.2 77.486V64.64c0-1.928 1.523-3.573 3.443-3.573h12.785l-4.714-4.594h-8.071c-4.488 0-8.016 3.63-8.016 8.167v16.108c0 1.929-1.693 3.659-3.612 3.659H36.956c-1.92 0-3.584-1.759-3.584-3.659v-1.333l-2.258 2.326c-.593.595-1.242 1.134-1.976 1.503C30.182 86.561 33.315 89 36.956 89h16.059c3.64 0 6.745-2.439 7.79-5.757a8.238 8.238 0 0 0 .394-2.496v-3.26Zm-48.629-16.42h12.785c1.92 0 3.444 1.645 3.444 3.573v12.847l4.572-4.736v-8.111c0-4.51-3.528-8.168-8.016-8.168H9.298c-1.92 0-3.33-1.588-3.33-3.516V36.818c0-1.928 1.41-3.29 3.33-3.29h1.326l-2.314-2.41a9.223 9.223 0 0 1-1.553-2.07C3.484 30.125 1 33.188 1 36.847v16.136c0 3.659 2.484 6.721 5.786 7.77.79.256 1.665.341 2.54.341h3.245v-.028Zm16.257-48.751v12.847c0 1.929-1.553 3.375-3.444 3.375H12.571l4.713 5.02h8.072c4.488 0 8.015-3.857 8.015-8.366V9.026c0-1.929 1.694-3.46 3.585-3.46h16.059c1.919 0 3.612 1.531 3.612 3.46v1.333l2.23-2.326c.593-.595 1.242-1.02 1.976-1.39C59.788 3.326 56.683 1 53.043 1H36.984c-3.64 0-6.745 2.325-7.79 5.644a7.509 7.509 0 0 0-.366 2.382v3.29Z" fill="#FF6356"/><path d="m10.624 33.36 9.031 9.076a3.504 3.504 0 0 1 0 4.934l-9.031 9.104h6.632l5.73-5.757a8.196 8.196 0 0 0 2.399-5.814 8.195 8.195 0 0 0-2.4-5.814l-5.729-5.757-4.685-4.68-.93-.935a3.484 3.484 0 0 1-1.017-2.467c0-.936.367-1.787 1.016-2.468l11.346-11.4c1.298-1.305 3.584-1.305 4.882 0l.932.936V9.056c0-.85.14-1.701.366-2.467a8.02 8.02 0 0 0-9.482 1.475L8.31 19.464a8.13 8.13 0 0 0-2.4 5.786c0 1.333.311 2.637.932 3.771a7.828 7.828 0 0 0 1.468 2.014l2.314 2.326Zm68.751 23.083-9.031-9.075c-1.355-1.361-1.355-3.46 0-4.821l9.031-8.99h-6.632l-5.73 5.672c-1.552 1.56-2.398 3.573-2.398 5.757a8.13 8.13 0 0 0 2.398 5.785l5.73 5.729 4.713 4.707.931.936a3.483 3.483 0 0 1 1.016 2.467c0 .936-.367 1.787-1.016 2.468L67.013 78.422c-1.298 1.304-3.584 1.304-4.882 0l-.932-.936v3.29a7.92 7.92 0 0 1-.395 2.467 7.973 7.973 0 0 0 3.754.907 8.01 8.01 0 0 0 5.758-2.41l11.345-11.4a8.13 8.13 0 0 0 2.4-5.786c0-1.333-.311-2.638-.932-3.772a7.836 7.836 0 0 0-1.468-2.014l-2.286-2.325Zm-45.865 23 9.032-9.076c1.355-1.36 3.613-1.36 4.967 0l9.116 9.076v-6.665l-5.785-5.757a8.132 8.132 0 0 0-5.814-2.41c-2.202 0-4.234.85-5.786 2.41l-5.73 5.757-4.712 4.736-.932.936c-1.298 1.304-3.584 1.304-4.882 0l-11.346-11.4a3.484 3.484 0 0 1-1.016-2.468 3.55 3.55 0 0 1 1.016-2.496l.931-.992H9.295c-.846 0-1.693-.085-2.455-.34-1.58 3.09-1.1 7.004 1.468 9.585l11.345 11.43c1.552 1.559 3.585 2.41 5.758 2.41a8.067 8.067 0 0 0 3.753-.908 7.8 7.8 0 0 0 2.004-1.475l2.343-2.353Zm22.976-69.082-9.03 9.075c-1.356 1.361-3.613 1.361-4.968 0l-9.116-9.075v6.664l5.786 5.758a8.133 8.133 0 0 0 5.813 2.41c2.202 0 4.234-.85 5.786-2.41l5.73-5.758L61.2 12.29l.931-.935c1.298-1.305 3.584-1.305 4.883 0l11.345 11.4a3.484 3.484 0 0 1 1.016 2.467c0 .936-.367 1.759-1.016 2.41l-.931.88h3.274c.847 0 1.693.199 2.455.426a8.248 8.248 0 0 0-1.467-9.558L70.344 7.98c-1.552-1.56-3.584-2.382-5.757-2.382-1.327 0-2.625.311-3.754.935a7.797 7.797 0 0 0-2.004 1.475l-2.343 2.354Z" fill="#819EFF"/></g></svg>