<svg viewBox="0 0 90 90" xmlns="http://www.w3.org/2000/svg"><g fill="none"><path fill="#FFF" d="M0 0h90v90H0z"/><path fill="#000" d="M21.533 61.616 12 29.371h8.874l5.62 23.188 6.117-23.188h8.897l6.116 23.188 5.62-23.188h8.874l-9.64 32.245h-9.45L37.065 38.33l-6.08 23.287z"/><path d="M72.23 62c2.851 0 5.162-2.427 5.162-5.42s-2.311-5.42-5.162-5.42c-2.85 0-5.161 2.427-5.161 5.42S69.379 62 72.23 62Zm0-22.16c2.851 0 5.162-2.427 5.162-5.42 0-2.994-2.311-5.42-5.162-5.42-2.85 0-5.161 2.426-5.161 5.42 0 2.993 2.31 5.42 5.161 5.42Z" fill="#EA2C00"/></g></svg>