<svg viewBox="0 0 90 90" xmlns="http://www.w3.org/2000/svg"><g fill="none"><path fill="#FFF" d="M0 0h90v90H0z"/><path d="M80 45.022c0-19.11-15.31-34.693-34.406-35.017C26.5 9.681 10.67 24.735 10.021 43.834 9.372 62.934 24.145 79.027 43.218 80v-7.531a7.997 7.997 0 0 0 4.428-.103v7.579C65.897 78.561 80 63.338 80 45.022ZM45.46 19.838l7.295 6.748-7.305 6.496-7.29-6.268 7.3-6.976Zm-.588 50.012a22.117 22.117 0 0 1-16.078-11.162A27.933 27.933 0 0 1 25.93 46.75a52.609 52.609 0 0 1 1.105-12.158 75.423 75.423 0 0 1 3.712-12.596l15.528 13.855a18.639 18.639 0 0 1 6.355 11.185 23.17 23.17 0 0 1-1.25 11.082 41.736 41.736 0 0 1-6.508 11.73Zm19.802-23.134a28.014 28.014 0 0 1-2.835 11.93 22.62 22.62 0 0 1-15.115 11.278A44.35 44.35 0 0 0 53.17 57.9a23.644 23.644 0 0 0 1.056-11.32 19.67 19.67 0 0 0-6.637-11.457l-1.214-1.083 13.487-12.03a75.416 75.416 0 0 1 3.705 12.567 52.705 52.705 0 0 1 1.111 12.158l-.003-.02Z" fill="#7ABF42"/></g></svg>