<svg viewBox="0 0 90 90" xmlns="http://www.w3.org/2000/svg"><g fill="none"><path fill="#EA4F00" d="M0 0h90v90H0z"/><path d="M40.94 61.25h-4.945l-3.794-16.042c-.46-1.956-.977-4.715-1.15-6.727h-.115c-.23 1.955-.805 4.772-1.264 6.727L26.049 61.25h-5.231l-6.843-28.233h4.773l3.68 16.79c.517 2.415.862 4.198 1.092 6.095h.115c.173-1.897.46-3.565.977-6.037l3.565-16.848h5.635l3.623 16.79c.46 2.242.748 4.025.978 6.21h.114a48.31 48.31 0 0 1 1.035-6.21l3.68-16.79H47.9L40.943 61.25h-.002Zm33.408-7.648c-.977 3.738-3.967 8.338-10.868 8.338-7.934 0-12.42-5.808-12.42-14.892 0-9.085 4.715-14.72 12.248-14.72 7.072 0 11.902 5.29 11.902 13.8 0 1.15-.058 2.013-.115 2.76H56.063c.287 5.463 2.415 9.028 7.416 9.028 3.565 0 5.579-2.127 6.268-5.175l4.6.862h.001Zm-4.14-8.74c-.115-5.462-2.645-8.51-7.015-8.51-2.415 0-4.313 1.094-5.52 3.048-.863 1.38-1.438 3.22-1.553 5.462h14.088Z" fill="#FFF"/></g></svg>