<svg viewBox="0 0 90 90" xmlns="http://www.w3.org/2000/svg"><g fill="none"><path fill="#FFF" d="M0 0h90v90H0z"/><path d="M63.428 32.21C70.392 32.21 75 35.739 75 40.492c0 4.5-3.927 7.414-8.377 7.414-2.409 0-4.19-.46-5.394-1.38-.47-.357-.732-.307-.732.103 0 1.687.627 3.12 1.78 4.244.941.923 2.723 1.535 4.398 1.535 1.728 0 3.246-.358 4.608-1.022 1.362-.665 2.514-.46 3.195.612.786 1.227-.315 2.812-1.257 3.834C71.44 57.67 68.09 59 63.692 59c-8.847 0-14.082-5.879-14.085-13.6 0-8.283 6.021-13.19 13.821-13.19ZM31.492 32c5.133 0 9.792.357 13.248.972 2.512.46 3.244 1.79 3.244 4.04s-.522 5.008-1.674 9.458c-1.048 3.986-2.2 6.95-3.298 9.405-.89 1.994-1.728 2.71-3.56 2.71-1.834 0-2.62-1.023-3.562-2.505l-2.514-3.834c-.576-.87-1.047-1.33-1.884-1.33s-1.308.46-1.881 1.327l-2.514 3.834c-.942 1.482-1.728 2.504-3.562 2.504-1.833 0-2.67-.715-3.56-2.71-1.102-2.45-2.25-5.418-3.3-9.404-1.15-4.45-1.675-7.209-1.675-9.458 0-2.25.732-3.577 3.246-4.037C21.702 32.357 26.36 32 31.492 32Z" fill="#5368FF"/></g></svg>