<svg xmlns="http://www.w3.org/2000/svg" viewBox="0 0 90 90" fill-rule="evenodd"><path fill="#fff" opacity="0" d="M0 0h90v90H0z"/><path fill="#ef4273" fill-rule="nonzero" d="M90 2c-7.813 0-14.113 6.314-14.113 14.146v40.969c0 1.713-.098 3.426-.293 5.237-.195 1.762-.684 3.377-1.465 4.846s-1.953 2.692-3.516 3.671-3.809 1.468-6.641 1.468-5.079-.49-6.641-1.468-2.735-2.203-3.516-3.671-1.27-3.084-1.465-4.846a47.71 47.71 0 0 1-.293-5.237V14.873c-7.813 0-14.113 6.314-14.113 14.146v28.047a48.39 48.39 0 0 1-.293 5.237c-.195 1.762-.684 3.377-1.465 4.846s-1.953 2.692-3.516 3.671-3.809 1.468-6.641 1.468-5.079-.489-6.641-1.468-2.735-2.203-3.516-3.671-1.27-3.084-1.465-4.846-.293-3.524-.293-5.237V27.746C6.3 27.746 0 34.109 0 41.892v15.174c0 4.014.391 7.538 1.172 10.573s1.758 5.629 2.93 7.832c1.221 2.203 2.588 4.014 4.151 5.482s3.174 2.643 4.786 3.573c3.76 2.154 8.106 3.328 12.941 3.475 4.932-.147 9.278-1.322 13.087-3.475 1.611-.93 3.223-2.105 4.737-3.573.391-.392.781-.783 1.172-1.224.391.441.781.832 1.172 1.224 1.563 1.468 3.174 2.643 4.786 3.573 3.76 2.154 8.106 3.328 12.941 3.475 4.932-.147 9.278-1.322 13.087-3.475a24.08 24.08 0 0 0 4.737-3.573c1.563-1.468 2.93-3.279 4.151-5.482s2.197-4.797 2.93-7.832 1.074-6.51 1.074-10.573L90 2z"/></svg>