<svg viewBox="0 0 90 90" xmlns="http://www.w3.org/2000/svg"><g fill="none" fill-rule="evenodd"><path fill="#171733" d="M0 0h90v90H0z"/><g fill-rule="nonzero"><path d="M13.537 37.414C12.64 39.056 12 40.95 12 42.844h13.445l5.506-5.43H13.537Z" fill="#EABC4B"/><path d="M36.585 31.985H23.012c-4.098 0-7.683 2.273-9.604 5.43h17.543l5.634-5.43Z" fill="#24BCFF"/><path d="M75 21H61.427c-6.146 0-11.14 4.924-11.14 10.985H36.714L47.854 21H34.28c-6.147 0-11.14 4.924-11.14 10.985v19.192C23.14 62.162 32.23 71 43.243 71h20.488V31.859L75 21ZM49.39 49.535c-1.792-1.767-1.792-4.798 0-6.565l6.659 6.565c-1.793 1.894-4.738 1.894-6.659 0Z" fill="#FFF"/></g></g></svg>