<svg xmlns="http://www.w3.org/2000/svg" viewBox="0 0 90 90"><path fill="#7ABF42" d="M41 67.08a19.3 19.3 0 01-19.2-19.36 19.3 19.3 0 0119.26-19.3c7.75 0 14.78 4.7 17.7 11.9h12.82a40.56 40.56 0 00-.84-3l7.42-6.75-3.65-6.47-9.89 2.74c-.85-.98-1.76-1.9-2.8-2.81l3-9.42-6.38-3.86-7.55 6.87c-1.3-.46-2.6-.79-3.9-1.05l-2.35-9.62-7.42-.13-2.53 9.82c-1.37.26-2.74.65-4.1 1.1l-6.97-7.25-6.5 3.6 2.73 10.07c-.91.85-1.82 1.7-2.67 2.68l-9.9-2.74-3.9 6.34 7.49 7.33a24.96 24.96 0 00-.98 3.8L.2 44.3 0 51.77l9.96 2.68c.26 1.38.65 2.69 1.1 4l-7.61 6.6 3.51 6.55 10.29-2.82c.78.92 1.62 1.77 2.53 2.55l-2.4 10.34 6.3 3.6 7.5-7.33c1.1.4 2.27.66 3.44.92L37.02 89h7.43l2.47-10.14c1.37-.26 2.67-.66 3.97-1.05l6.83 7.4 6.58-3.67-2.74-9.81a30.5 30.5 0 002.93-2.88l9.57 2.88 3.77-6.41-5.99-5.9H56.55A19.26 19.26 0 0141 67.09z"/><path fill="#D8DADB" d="M63.06 14.67c-6.9 0-12.5 5.63-12.43 12.63 0 6.94 5.6 12.56 12.56 12.5 6.9 0 12.43-5.63 12.43-12.56 0-6.94-5.66-12.57-12.56-12.57zm20.1 16.75c-.19.85-.38 1.77-.7 2.56l4.61 4.58-2.47 4.18-6.18-1.9c-.59.66-1.24 1.31-1.9 1.9l1.7 6.35-4.16 2.42-4.43-4.78c-.84.27-1.7.53-2.6.72l-1.63 6.61H60.6l-1.5-6.6c-.78-.14-1.5-.33-2.28-.6L52 51.64l-4.1-2.29 1.56-6.67a20.81 20.81 0 01-1.7-1.7l-6.63 1.83-2.15-4.12 4.95-4.32a17.2 17.2 0 01-.72-2.62l-6.44-1.7.13-4.84 6.25-1.7c.13-.85.39-1.64.65-2.49l-4.88-4.71 2.53-4.12 6.38 1.7c.52-.59 1.1-1.18 1.7-1.7l-1.7-6.54 4.23-2.3 4.56 4.72c.84-.33 1.75-.53 2.66-.72L60.98 1l4.81.13 1.5 6.28c.84.2 1.69.4 2.54.66l4.88-4.52 4.16 2.49-1.95 6.15c.65.59 1.24 1.18 1.82 1.83l6.38-1.83 2.34 4.25-4.81 4.38c.32.99.58 1.97.78 2.95l6.57 1.7v4.84l-6.57 1.44-.26-.33z"/></svg>