<svg viewBox="0 0 90 90" xmlns="http://www.w3.org/2000/svg"><g fill="#F49600"><path d="M80.405 14.258c-4.557-1.162-4.266 1.647-4.17 7.457.146 13.074-.242 28.812-4.314 34.622-2.812 3.97-10.715 7.022-19.248 8.571-9.648 1.792-19.83 1.889-23.757-.145-5.963-3.1-12.363-12.009-16.63-23.146-.775-2.082-1.842-6.247-4.218-5.52C3.898 37.307.65 41.81.263 45.733-.125 49.558 2.59 55.03 7.438 60.55c4.751 5.375 11.297 11.089 17.454 13.607 12.17 4.939 48.338-.34 56.531-12.348 4.558-6.73 7.66-24.211 8.679-33.508.775-7.506-2.037-12.106-9.697-14.043Z"/><path d="M50.491 53.916c3.927-.58 7.176-7.118 6.69-17.19-.436-9.878-6.254-18.11-15.174-16.27-6.982 1.453-8.582 10.847-6.643 19.418 1.843 7.796 7.758 15.059 15.127 14.042Z"/></g></svg>