<svg xmlns="http://www.w3.org/2000/svg" viewBox="0 0 90 90" fill-rule="evenodd"><path fill="#fff" d="M0 0h90v90H0z"/><path fill="#000" fill-rule="nonzero" d="M78.952 22H64.894l-1.006.172v1.342c0 .158.481.29.614.388.127.107.471.164.613.164l1.274.063c1.445.068 1.884.379 2.447.904.552.544.643 1.467.212 2.765l-12.425 32.22-.474-.14-7.892-17.636.183-.414L54.9 28.636l1.848-3.215c.675-1.057 1.003-1.256 2.843-1.349.376 0 .52-.183.52-.554v-1.334l-.094-.143s-7.725-.026-11.242 0l.002.137v1.335c0 .163-.09.293.035.391.133.107.189.161.332.161l.527.067c1.437.068 2.081.477 2.276.735.344.462.505.954-.328 2.935l-4.975 10.823-4.496-10.039c-1.475-3.208-1.839-4.201.383-4.386l.597-.137c.428 0 .361-.168.361-.487v-1.404l-.045-.115-11.993.002-.051.137v1.407c0 .316.314.397.896.484 2.081.297 2.045.535 4.101 4.988l1.216 2.679L42.3 41.807l1.364 3.295-6.812 14.833-.388-.11-13.628-32.474c-.323-.838-.462-1.466-.462-1.852 0-.827.683-1.275 2.049-1.335l2.079-.074c.425 0 1.12-.177 1.12-.546v-1.335l-.626-.138s-12.949-.016-15.566 0l-.43.139v1.405c0 .252.339.409.928.476 1.608.097 2.689.375 3.195.843s1.052 1.662 1.763 3.519C20.728 38.527 28.9 56.508 32.878 66.75c1.142 2.795 2.586 3.23 4.331-.088 1.797-3.639 5.424-11.715 8.069-17.677l7.469 17.639c1.293 2.917 2.768 3.206 4.266.087l15.352-38.08c.494-1.403 1.185-2.484 2.075-3.269.883-.775 2.198-1.214 4.041-1.299.373 0 .52-.187.52-.549v-1.342L78.952 22z"/></svg>