<svg viewBox="0 0 90 90" xmlns="http://www.w3.org/2000/svg"><g fill="none"><path fill="#FFF" d="M0 0h90v90H0z"/><path d="M36.602 17.492c18.34 9.512 20.94 30.122 9.054 45.229 1.486.7 2.786 1.399 4.504 1.632C62.464 49.013 60.235 25.838 36.788 16l-.186 1.492Z" fill="#1F386A"/><path d="M36.602 17.492c-5.664 6.062-8.914 13.942-9.24 22.241a30.563 30.563 0 0 0-4.039 3.311C21.883 35.35 27.27 22.248 36.741 16l-.139 1.492Z" fill="#CE0F69"/><path d="M50.856 36.516c.465 1.539.743 3.124.743 4.756-18.061-3.357-35.565 8.86-34.869 29.795 7.661 1.959 16.622 1.632 23.819-2.75 1.114.699 3.064 1.258 4.782 1.911-5.85 5.455-19.965 6.668-30.04 1.352-2.88-25.412 16.11-38.514 35.565-35.064" fill="#1F386A"/><path d="M25.737 49.898c1.115-1.352 2.322-2.098 3.668-3.077 6.78 17.905 26.837 26.065 44.295 14.454-2.554-7.786-7.893-14.36-14.95-18.417a27.403 27.403 0 0 0-.79-5.13c7.522 2.658 16.065 12.963 17.04 24.34-19.965 16.04-42.252 6.108-49.263-12.17" fill="#CE0F69"/></g></svg>