<svg xmlns="http://www.w3.org/2000/svg" viewBox="0 0 90 90"><defs><linearGradient id="a" x1="50%" x2="50%" y1="0%" y2="100%"><stop offset="0%" stop-color="#001632"/><stop offset="100%" stop-color="#000E1F"/></linearGradient></defs><path fill="url(#a)" d="M0 0h90v90H0z"/><path fill="#FFF" d="M32.36 75.4c-6.13-2.54-11.6-5.05-12.15-5.6C18.81 68.4 10 47.08 10 45.08c0-2.52 9.22-24.17 10.7-25.14C22.69 18.64 43.63 10 44.79 10c1.76 0 23.7 9.23 24.94 10.5 1.79 1.82 10.71 23.99 10.25 25.47-.53 1.7-7.73 19.2-9 21.9-1.2 2.53-1.26 2.55-16.12 8.57C50 78.4 45.46 80.01 44.77 80c-.69 0-6.28-2.08-12.4-4.6zm24.09-2.74c5.47-2.25 10.46-4.63 11.1-5.29 1.16-1.22 9.47-20.8 9.47-22.33 0-1.43-8.63-21.63-9.66-22.6-1.29-1.23-20.9-9.18-22.63-9.18-1.54 0-21.5 8.28-22.53 9.35-1.18 1.21-9.1 20.7-9.1 22.4-.01 1.96 8.05 21.55 9.35 22.72 1.5 1.34 20.36 8.96 22.28 9 1.01.01 6.02-1.72 11.72-4.07zm-21.92-3.02c-4.95-2.07-9.29-4.07-9.65-4.43-.97-.99-8.34-18.84-8.32-20.16 0-.62 1.8-5.4 3.99-10.63l3.97-9.5 8.4-3.6c13.13-5.63 10.72-5.52 21.77-1 5.24 2.15 9.84 4.2 10.22 4.56.95.9 8.43 18.76 8.43 20.14 0 1.54-7.17 18.76-8.34 20-1.13 1.2-18.74 8.5-20.37 8.43-.61-.02-5.16-1.74-10.1-3.81zm1.04-9.96c.85-.44 3.2-2.64 5.24-4.9 2.03-2.27 3.98-4.05 4.32-3.96.35.08 2.17 1.86 4.05 3.95 4.19 4.66 5.97 5.7 9.7 5.7 2.26 0 2.96-.21 3.41-1.05.6-1.12.82-26.97.24-28.48-.25-.64-1.1-.86-3.27-.86h-2.94V40.9c0 6.01-.23 10.96-.5 11.13-.28.17-2.66-2-5.29-4.85-2.63-2.84-5.16-5.15-5.63-5.13-.46.02-2.8 2.2-5.2 4.87-2.4 2.66-4.66 4.84-5.03 4.85-.5.01-.7-2.65-.82-10.7l-.15-10.72h-6l-.14 14.38c-.08 7.9-.02 14.68.12 15.06.37.96 5.96.88 7.89-.11z"/></svg>