<svg viewBox="0 0 90 90" xmlns="http://www.w3.org/2000/svg"><g fill="none"><path fill="#5F0AFF" d="M0 0h90v90H0z"/><path d="M57.006 18.272c-3.649 3.65-4.99 8.982-3.904 14.52a2.679 2.679 0 0 0 2.112 2.114C60.752 35.993 66.081 34.65 69.73 31c3.648-3.65 4.99-8.981 3.904-14.52a2.678 2.678 0 0 0-2.113-2.114A19.139 19.139 0 0 0 67.834 14c-4.162 0-8 1.444-10.828 4.272Zm1.11 11.617c-.19-3.121.746-5.893 2.679-7.827 1.932-1.933 4.703-2.868 7.824-2.679.19 3.122-.746 5.894-2.678 7.827-1.769 1.77-4.241 2.703-7.04 2.703-.259 0-.52-.007-.784-.024ZM17 45.481C17 61.226 29.66 74 45.287 74c15.628 0 28.287-12.774 28.287-28.52 0-3.156-.508-6.192-1.447-9.03-4.929 3.96-11.448 5.304-18.003 4.017a8.345 8.345 0 0 1-6.581-6.583c-1.154-5.889-.189-11.749 2.886-16.453a28.231 28.231 0 0 0-5.142-.47C29.659 16.961 17 29.735 17 45.481Zm36 7.824a2.677 2.677 0 0 1 3.789-.015 2.68 2.68 0 0 1 .015 3.79 16.178 16.178 0 0 1-11.517 4.807c-4.364 0-8.46-1.74-11.49-4.78a2.681 2.681 0 0 1 .006-3.791 2.677 2.677 0 0 1 3.788.006 10.82 10.82 0 0 0 7.696 3.206c2.933 0 5.677-1.17 7.714-3.223Z" fill="#FFF"/></g></svg>