<svg viewBox="0 0 90 90" xmlns="http://www.w3.org/2000/svg"><g fill="none" fill-rule="evenodd"><path fill="#FFF" d="M0 0h90v90H0z"/><path d="M50.77 30.58c-1.585.826-2.176 2.225-2.176 6.086 0 0 .803-.773 1.994-1.204a8.432 8.432 0 0 0 2.038-1.103c1.339-.978 1.547-2.236 1.547-4.357 0 0-2.185-.059-3.403.577m-9.401.905c-1.293 1.135-1.671 2.946-1.671 2.946l-4.28 16.526-3.56-13.526c-.347-1.438-.972-3.215-1.961-4.417-1.26-1.531-3.82-1.628-4.092-1.628-.273 0-2.834.097-4.095 1.628-.988 1.202-1.612 2.98-1.959 4.417l-3.56 13.526L11.91 34.43s-.377-1.81-1.67-2.946C8.144 29.642 5 30.036 5 30.036l8.196 30.885s2.704.195 4.058-.493c1.776-.902 2.623-1.598 3.699-5.8.958-3.748 3.638-14.753 3.888-15.536.125-.387.281-1.312.964-1.312.696 0 .84.924.962 1.312.245.784 2.93 11.788 3.89 15.535 1.076 4.203 1.92 4.9 3.698 5.801 1.353.688 4.056.493 4.056.493l8.197-30.885s-3.143-.393-5.24 1.448m12.802 3.594s-.512.79-1.683 1.443c-.75.418-1.472.702-2.245 1.072-1.297.62-1.648 1.31-1.648 2.362v20.966s2.069.262 3.422-.426c1.74-.884 2.14-1.737 2.156-5.579V36.197l-.002.001v-1.12ZM74.6 45.553 85 30.138s-4.389-.744-6.562 1.227c-1.39 1.262-2.946 3.531-2.946 3.531l-3.826 5.497c-.186.287-.43.597-.818.597-.387 0-.63-.31-.815-.597l-3.827-5.497s-1.555-2.27-2.946-3.531c-2.173-1.971-6.562-1.227-6.562-1.227l10.399 15.416-10.373 15.368s4.572.576 6.745-1.397c1.39-1.26 2.737-3.313 2.737-3.313l3.826-5.496c.186-.287.429-.597.816-.597.389 0 .632.31.817.597l3.827 5.496s1.424 2.052 2.815 3.313c2.174 1.973 6.665 1.397 6.665 1.397L74.6 45.554Z" fill="#000" fill-rule="nonzero"/></g></svg>