<svg xmlns="http://www.w3.org/2000/svg" viewBox="0 0 90 90"><defs><linearGradient id="a" x1="50%" x2="50%" y1="0%" y2="100%"><stop offset="0%" stop-color="#002452"/><stop offset="100%" stop-color="#00101F"/></linearGradient><linearGradient id="b" x1="50%" x2="50%" y1="0%" y2="100%"><stop offset="0%" stop-color="#FBFBF3"/><stop offset="100%" stop-color="#B6B4B7"/></linearGradient></defs><path fill="url(#a)" d="M0 0h90v90H0z"/><path fill="url(#b)" d="M51.45 0c.76 4.42 1.43 8.84 2.2 13.27l.56 3.38.86 5.27c.1.66.48 1.23.76 1.79.77 1.6 1.63 3.2 2.48 4.9.77 1.5 1.43 2.9 2.2 4.41.85 1.6 1.62 3.3 2.47 4.9.29.66.67 1.31.96 1.88.1.28.1.37-.1.56-.5.54-5.16 6.14-10.27 12.31l-.7.85c-6.32 7.62-13.07 15.8-13.43 16.2-.1.1-.38.28-.57.28H25.05c-.2 0-.39-.1-.58-.19-2.33-3.33-5.79-7.69-9.37-12.03l-.64-.77A643.57 643.57 0 00.07 40.27c-.1-.19-.1-.28 0-.47 1.24-2.35 2.38-4.8 3.62-7.15.86-1.7 1.81-3.48 2.67-5.18.86-1.6 1.62-3.2 2.39-4.8.28-.56.28-1.12.38-1.78.38-2.07.66-4.14 1.05-6.21l.23-1.54.49-3.04.23-1.54c.28-1.79.57-3.48.86-5.17L12.56 0c.57.38 1.05.66 1.52 1.03l1.8 1.26 3.57 2.48 1.78 1.25 6.87 4.8c.66.47 1.24.94 2 1.32.28.19.67.1 1.05.19.19 0 .38.09.57.18h.48l.12-.01.22-.07.13-.01c.86.1 1.53-.38 2.2-.85 3.04-2.16 6.1-4.23 9.24-6.4C46.49 3.4 48.97 1.7 51.45 0zM37.53 23.62c-.1.09-5.62 5.55-5.81 5.83-.57-1.13-4.67-5.55-5.05-5.83-3.91 1.78-20.6 14.1-21.07 15.24-.29.47-.19.66.1.94 1.9 2.16 9.72 10.54 10.1 11 .86-2.82.67-1.88 2-5.92l.29 8.18c.1.29.1.57.28.76 2.58 3 5.25 5.92 7.82 8.84.19.19.38.38.67.47.66.28 1.33.47 2 .66.57.19 1.14.38 1.81.56 0-.47-.1-.84-.1-1.22 0-.1-.62-1.73-1.35-3.4l-.22-.5c-.63-1.43-1.3-2.79-1.67-3.15.1-.1.1-.1.2-.1.76-.28 7.52-.56 8.48-.19.19.1.38.2.67.29-.05.04-.74 1.49-1.48 3.04l-.24.52c-.78 1.65-1.53 3.26-1.53 3.3-.1.47-.1.85-.1 1.32.1 0 .2 0 .3-.1.95-.28 1.9-.56 2.85-.93.48-.2.96-.29 1.24-.57 2.67-2.92 6.77-8.09 9.44-11.1.44-3.3.47-7.26.48-7.98v-.11s0-.57.1-.57c.85 4.14.95 4.7 1.61 6.97.29-.29 2.58-2.73 2.77-3.02 2.1-2.44 4.29-4.89 6.38-7.33.1-.2.2-.29.1-.47-.57-1.32-1.05-2.54-1.62-3.86-.1-.19-.2-.38-.38-.47-.65-.44-5.02-3.12-9.46-5.75l-.76-.45c-3.81-2.24-7.52-4.36-8.85-4.9zm3.53 13.83c1.05.09 2.1.09 3.24.18.57 0 1.14 0 1.81.1l-1.71 1.7-2 1.97c-.3.28-.67.19-.96.19-1.43-.1-2.95-.29-4.38-.38-.29 0-.48-.1-.86-.1.57-.46.95-.84 1.43-1.22.86-.75 1.71-1.4 2.57-2.16.29-.19.48-.28.86-.28zm-17.83 0c.2 0 .48.18.67.28 1.24 1.13 2.48 2.35 3.81 3.48v.1c-.38 0-.85.09-1.23.09-1.53.1-2.96.1-4.48.1-.1 0-.29-.1-.39-.2l-3.05-3.29-.57-.56h5.24zM48.4 7.8c-2.1 3.67-7.91 8.94-9.91 12.51 2.86 1.32 13.82 8.56 16.77 9.88-.1-.47-4.57-8.56-4.67-9.03l-.76-4.61c-.2-.85-.29-1.7-.38-2.54-.2-1.32-.48-2.73-.67-4.05-.1-.66-.28-1.4-.38-2.16zm-32.6 0h-.1c-.76 4.8-3.9 15.15-4.67 20.04 2.86-1.22 11.92-6.87 14.78-8.19-2.1-3.57-8-8.28-10.01-11.85z" transform="translate(13 10)"/></svg>