<svg viewBox="0 0 90 90" xmlns="http://www.w3.org/2000/svg"><g fill="none" fill-rule="evenodd"><path fill="#7F54B3" d="M0 0h90v90H0z"/><path d="M17.956 17.623c-1.738.123-3.042.743-3.91 1.92-.87 1.115-1.18 2.54-.994 4.15 3.662 23.231 7.076 38.904 10.242 47.019 1.242 2.973 2.67 4.398 4.345 4.275 2.608-.187 5.711-3.78 9.374-10.78 1.924-3.964 4.904-9.911 8.938-17.84 3.352 11.707 7.946 20.504 13.719 26.39 1.614 1.672 3.29 2.415 4.903 2.291 1.429-.124 2.546-.867 3.29-2.23.621-1.177.87-2.54.745-4.089-.372-5.637.187-13.504 1.739-23.602 1.613-10.407 3.6-17.903 6.02-22.363.497-.929.683-1.858.622-2.973-.125-1.425-.745-2.602-1.925-3.531-1.179-.93-2.483-1.363-3.91-1.24-1.8.125-3.166.992-4.097 2.726-3.849 7-6.58 18.337-8.194 34.072-2.359-5.947-4.346-12.947-5.897-21.186-.683-3.655-2.359-5.39-5.09-5.204-1.863.124-3.414 1.363-4.656 3.717L29.626 54.977c-2.235-8.982-4.345-19.947-6.27-32.894-.434-3.221-2.234-4.708-5.4-4.46Z" fill="#FFF"/></g></svg>