<svg viewBox="0 0 90 90" xmlns="http://www.w3.org/2000/svg"><g fill="none"><path fill="#539E3F" d="M0 0h90v90H0z"/><path d="m61.294 0 .001.001.022.022c.188.195 1.423 1.73.493 7.524l-.003.036v.043c.007.334.286 1.614 4.085 1.614l-5.433 8.977s.172 1.591 3.648 1.97l-6.148 7.168 4.568 3.43-5.26 6.417s3.392 3.186 4.34 2.992l-6.724 8.26s-.465.985 1.743 1.499c.89-.82 4.403-3.962 7.561-5.357l.01-.01c.081-.086.656-.732-1.193.01 0 0 .108-.122.217-.26l.054-.07c.266-.353.423-.7-1.21.603l.053-.088.046-.075c.296-.491 1.06-1.839-.42-.307l-.098-.375-.27.325-.298-.423.394-.597-.74.375-.396-.375-.001-.003v-.024c.012-.177.34-1.303 5.829-5.626l-.455-.038.222-.428-.804.396.487-.972-1 .517-.686-.2.237-.667-1.055.569s-1.056-.157-.168-.838c0 0 5.76-3.79 6.84-6.4 0 0-1.124.143-1.95.077-.073-.008.068-.138 0-.146-.052-.004-.15.062-.197.058-.182-.014-.285-.09-.397-.156-.112-.065-.397-.033-.397-.149 0 0 5.316-6.087 6.021-6.185l.002.001.013.014c.114.126.814 1.062.283 4.535 0 0-.163 1.023 2.338 1.023l-3.113 5.405s.102.962 2.09 1.191l-3.52 4.318 2.618 2.068-3.015 3.87.039.037c.276.268 1.95 1.868 2.448 1.765l-3.852 4.98-.008.02-.008.036c-.04.207.003.918 2.419 1.014l-1.893 2.815s.35.29 1.11.258c.28-.01 1.267-.365 1.564-.754l.043-.072-.02.045c-.063.147-.167.429-.044.38.237-.091.485-.233.754-.385 0 0-2.647 15.705-.426 19.53l-.51-.301-.443-.506-.08.342-.292-.513-.327.505-.017-.023c-.118-.17-.808-1.259-.432-2.794 0 0-.593.626-.41 1.711l-.57-1.722-.093.87-.842-.958-1.36 2.742-.158-1.471-.003.011c-.062.243-1.13 4.256-3.502 4.256 0 0 2.486-5.29 3.178-12.698 0 0 .196-.772.674-5.722 0 0-3.296 1.914-7.07 3.975-1 8.175-1.846 19.608.55 23.52l-.886-.494-.783-.841-.134.567-.512-.851-.573.837s-1.495-1.892-.779-4.679c0 0-1.037 1.042-.717 2.84l-.994-2.854-.167 1.446-1.464-1.591-2.38 4.55-.27-2.446S49.466 90 45.197 90c0 0 4.338-8.781 5.547-21.075 0 0 .07-.264.226-1.322-.603.22-1.054.335-1.3.31 0 0 1.201-.826 1.187-.975 0 0-.895.175-1.803.928l.976-1.114s-2.155 1.616-2.72 1.526l2.163-1.711s-1.055.323-3.49 1.677l1.532-1.689-1.177.707-.018-.364-.994.662 1.158-1.187c-.021-.033-.071-.41 5.078-3.555.108-.97.227-2.093.358-3.386 0 0-6.899 3.807-14.24 7.574l-.883.451c-.736.376-1.475.75-2.209 1.118l-.878.438c-.353.176-.705.35-1.055.522-.012 2.58.224 4.833.928 5.994l-.532-.302-.466-.506-.084.342-.301-.513-.347.506s-.892-1.146-.462-2.825c0 0-.623.63-.43 1.715l-.597-1.726-.098.87-.877-.961-1.423 2.753-.16-1.478s-1.112 4.28-3.667 4.28c0 0 .933-1.904 1.836-5.028-2.513 1.084-4.42 1.748-5.188 1.676 0 0 2.1-1.373 2.07-1.62 0 0-1.565.287-3.145 1.536l1.707-1.85s-3.764 2.69-4.754 2.541l3.78-2.842s-1.84.535-6.095 2.785l2.672-2.8-2.056 1.165-.027-.601-1.74 1.096 2.028-1.962-.001-.002a.032.032 0 0 1-.006-.013v-.016c.017-.163.645-1.123 9.407-6.183 0 0 .186-.259.939-.897l.21-.175a37.64 37.64 0 0 1 1.971-1.502c.107-.855.245-2.068.418-3.78 0 0-4.787 2.669-9.536 5.1l-.678.346c-3.832 1.945-7.49 3.645-8.414 3.557 0 0 1.26-.83 1.241-.978 0 0-.935.174-1.882.927l1.023-1.117-.045.031c-.32.227-2.258 1.585-2.801 1.505l2.26-1.718s-1.1.324-3.644 1.682l1.598-1.693-1.23.706-.019-.367L5 67.858l1.211-1.186a.018.018 0 0 1-.003-.004c-.003-.025.01-.07.11-.174l.052-.052c.376-.36 1.593-1.267 5.467-3.527 0 0 .386-.542 2.654-2.112 0 0 2.453-1.125 2.271-1.59l-1.289.397 1.108-.995v-.027c-.007-.107-.14-.44-1.73.573 0 0 0-.575.779-1.267 0 0-.957-.123-2.195.496 0 0 .928-1.216 1.056-1.242 0 0-.076-.298-1.78.947l-.463-.477s.259-1.049 1.806-1.765c0 0 6.295-2.684 6.913-4.774 0 0-.102-.149-.954.347 0 0 1.264-1.435-.516-.368 0 0 .09-.12.167-.259l.04-.078c.163-.34.145-.696-1.42.231 0 0 .031-.05.07-.126l.042-.082.041-.092c.135-.316.194-.698-.662-.137l-.135.09c.043-.088.718-1.527-1.06-.199 0 0 4.311-3.953 8.125-5.57 0 0 .827-.797-1.237 0 0 0 1.522-1.641-.979.273 0 0 .25-.38.423-.709l.058-.113c.204-.422.2-.66-.816.349l-.103-.375-.283.324-.31-.42.412-.6-.772.375-.415-.374v-.001c-.01-.091.044-1.098 6.087-5.671l-.476-.038.233-.428-.842.4.51-.979-1.041.517-.718-.2.244-.663-1.102.564s-1.1-.153-.175-.837c0 0 6.017-3.797 7.15-6.418 0 0-1.176.141-2.042.08-.074-.011.072-.138 0-.145-.052-.008-.157.057-.205.054-.189-.01-.299-.09-.415-.157-.117-.062-.415-.033-.415-.15 0 0 1.328-1.457 2.772-2.96l.395-.41c1.39-1.43 2.783-2.783 3.128-2.829l.027.029c.148.169.82 1.149.282 4.532 0 0-.171 1.028 2.44 1.028l-3.248 5.42s.103.962 2.18 1.195l-3.677 4.328 2.735 2.071-3.146 3.881s2.028 1.922 2.592 1.805l-4.018 4.996s-.114.244.151.5c3.041-1.434 9.032-4.544 9.802-7.107-.037-.034-.29-.18-1.595.574 0 0 2.111-2.374-.863-.608 0 0 1.897-2.479-2.028-.171 0 0 1.38-2.265-1.077-.575 0 0 1.293-2.596-1.769-.33 0 0 7.2-6.543 13.583-9.223l.027-.027c.177-.181 1.056-1.173-2.095.027 0 0 2.544-2.715-1.642.455 0 0 .282-.425.544-.88l.082-.144.078-.143c.43-.804.589-1.433-1.26.384l-.172-.618-.478.535-.516-.699.692-.987-1.296.62-.692-.62a.09.09 0 0 1-.002-.014v-.023c.012-.266.506-2.103 10.18-9.348l-.8-.062.39-.71-1.398.66.848-1.617-1.744.855-1.198-.33.408-1.1-1.843.94-.02-.004c-.197-.033-1.724-.33-.27-1.387 0 0 10.055-6.287 11.951-10.62 0 0-1.97.237-3.415.128-.124-.008.12-.226 0-.237-.087-.011-.261.095-.342.087-.317-.018-.498-.145-.691-.255-.2-.105-.7-.058-.7-.247 0 0 2.247-2.443 4.677-4.944l.733-.75c.245-.25.49-.496.731-.74l.48-.479C59.217 1.534 60.828.06 61.295 0Zm-2.322 50.197-.08.034.184.008-3.082 4.352c1.811-.969 4.248-2.48 4.615-3.766-.034-.026-.195-.091-.914.346 0 0 .09-.107.186-.24l.064-.093c.232-.346.391-.746-.742-.035l.009-.011c.077-.111.652-.957-.24-.595Zm-2.277-.254-.028.02c.249.056.53.106.85.149.114-.348.18-.875-.822-.17Z" fill="#FFF"/></g></svg>