<svg xmlns="http://www.w3.org/2000/svg" viewBox="0 0 90 90"><path fill="#FD6400" d="M0 0h90v90H0z"/><path d="M52.843 15.002h13.351c.444 0 .806.358.806.802v8.967C67 32.297 60.867 38.4 53.3 38.4h-9.89c.414-2.62 1.341-4.945 2.783-6.959 4.24-5.908 11.58-7.136 11.895-7.188l.01-.002a.716.716 0 0 0 .614-.763.722.722 0 0 0-.721-.666c-5.49 0-10.48 2.018-14.055 5.686-2.587 2.655-4.216 6.045-4.77 9.769a1.704 1.704 0 0 0-.016.248l-.005 33.99a2.5 2.5 0 0 1-2.5 2.486H25.5a2.5 2.5 0 0 1-2.5-2.487V17.615C23 16.118 24.129 15 25.505 15H36.64c1.376 0 2.505 1.118 2.505 2.615v10.901c.063-7.473 6.17-13.514 13.698-13.514Z" fill="#FFF"/></svg>