<svg xmlns="http://www.w3.org/2000/svg" viewBox="0 0 90 90" fill-rule="evenodd"><path fill="#05a8d9" d="M0 0h90v90H0z"/><path fill="#fff" fill-rule="nonzero" d="M45 75c-16.625 0-30.125-13.25-30-30s12.75-30 30-30 30 13.5 30 30-13.374 30-30 30zm8.874-4.625L45.375 47.5l-8 23.375c5.876 1.376 9.875 1.75 16.5-.5zM20.376 34.25C18.625 38 18.252 41.126 18.001 45c.125 10.249 5.875 19.624 15.125 24.125L20.376 34.25zm48.374-1.875c.251 5.126-.5 7.75-1.375 10.625l-8.75 25.125C69.626 61.5 71.749 51.625 72 45c.124-6.625-2.999-11.875-3.25-12.625zm-24.624 11.5l-4.25-11.625-3.125-.25c-1.249-.875-.5-2.25.375-2.25 5.625.375 8.749.375 14.375 0 1.376 0 1.75 2 .124 2.25l-3 .25L58.374 61l4.624-15.75c.251-6.874-1.625-7.624-4.125-12.625-2-3.875.125-7.625 4.001-7.75-3.127-3-9.5-6.75-17.876-6.875s-17.25 4.125-22.5 12.125l9.251-.25c1.125.5.625 2.125 0 2.25l-3.25.25 9.75 29.25 5.877-17.75z"/></svg>