<svg xmlns="http://www.w3.org/2000/svg" viewBox="0 0 90 90"><path fill="#491DCC" d="M0 0h90v90H0z"/><path fill="#FFF" d="M46.74 16C60.7 16 72 27.4 72 41.48a25.5 25.5 0 01-5.2 15.48c-.75.9-2.12 2.32-4.3 2.32-3.06 0-4.05-2.23-4.98-4.58l-4.6-11.42-4.6 11.42c-.78 1.95-1.63 4.58-5 4.58-3.35 0-4.2-2.63-4.99-4.58L30.6 35.48h6.53l6.21 15.82 4.63-11.53c.73-1.82 1.6-4.58 4.95-4.58 3.34 0 4.22 2.76 4.95 4.58l5.04 12.48c2.03-3.08 3.2-6.79 3.2-10.77a19.44 19.44 0 00-19.35-19.53c-6.1 0-11.84 2.4-16.16 6.75A23 23 0 0023.9 45c0 6.16 2.38 11.95 6.7 16.3a22.62 22.62 0 0024.56 5.14l2.17 5.53a28.46 28.46 0 01-21.78-.25A28.93 28.93 0 0118 45a29.05 29.05 0 0117.55-26.72A28.3 28.3 0 0146.75 16z"/></svg>