<svg viewBox="0 0 90 90" xmlns="http://www.w3.org/2000/svg"><g fill="none"><path fill="#0067AB" d="M0 0h90v90H0z"/><path d="M43.85 15.052c6.127-.376 12.351 1.31 17.457 4.72 4.63 3.06 8.349 7.493 10.506 12.614.336.918.22 2-.355 2.798-.625.911-1.78 1.401-2.868 1.247a2.993 2.993 0 0 1-2.341-1.77 22.56 22.56 0 0 0-4.154-6.446c-3.068-3.347-7.165-5.745-11.599-6.724a24.5 24.5 0 0 0-10.4.09 21.973 21.973 0 0 0-10.96 6.365c-1.584 1.712-2.978 3.62-3.958 5.745-.295.584-.461 1.246-.91 1.738-.83.982-2.317 1.305-3.483.77-1.107-.476-1.85-1.672-1.78-2.877.01-.736.393-1.382.686-2.034a28.549 28.549 0 0 1 10.82-12.03 28.699 28.699 0 0 1 13.34-4.206Z" fill="#F69F1A"/><path d="M19.842 41.264c.305-.425.795-.728 1.329-.712 1.496.001 2.992-.027 4.487.017.793.007 1.48.675 1.56 1.456 1.478 6.105 2.964 12.207 4.452 18.31.46 1.999 1.029 3.976 1.35 6.004.32 1.805.38 3.642.672 5.452.267-1.995.616-3.98 1.058-5.943.362-1.642.836-3.254 1.26-4.88 1.7-6.345 3.403-12.69 5.1-19.037.185-.766.914-1.357 1.703-1.37 1.65-.027 3.3-.012 4.95-.009.333.002.67-.03.998.04a2.08 2.08 0 0 1 1.396 1.15c.117.267.177.553.256.832 1.144 4.17 2.276 8.345 3.412 12.517.375 1.351.718 2.713 1.127 4.054a97.6 97.6 0 0 1 2.157 8.811c.268 1.279.379 2.584.652 3.862a149.59 149.59 0 0 1 2.234-12.593c.41-1.9.917-3.777 1.325-5.677.867-3.882 1.718-7.768 2.598-11.646a1.778 1.778 0 0 1 1.114-1.252c.318-.127.667-.1 1.003-.099 1.312.004 2.625-.025 3.936.016.564 0 1.09.444 1.175 1.003.069.399-.1.776-.196 1.154-2.794 10.324-5.59 20.646-8.373 30.972a1.807 1.807 0 0 1-1.656 1.253c-2.283.085-4.567.002-6.85.038-.658-.025-1.257-.523-1.418-1.16-1.705-6.268-3.38-12.543-5.066-18.815-.387-1.463-.817-2.916-1.119-4.399a46.64 46.64 0 0 1-.865-5.862 63.018 63.018 0 0 1-1.162 6.857c-1.932 7.235-3.876 14.466-5.823 21.697-.096.38-.173.794-.467 1.078-.493.493-1.23.618-1.9.617-2.134-.07-4.271.047-6.405-.051a1.466 1.466 0 0 1-1.162-.652c-.19-.28-.231-.623-.324-.939-2.772-10.108-5.536-20.218-8.303-30.326-.177-.572-.2-1.174-.215-1.768Z" fill="#FFF"/></g></svg>