<svg viewBox="0 0 90 90" xmlns="http://www.w3.org/2000/svg"><g fill="none"><path fill="#6363F1" d="M0 0h90v90H0z"/><g fill="#FFF"><path d="M10 45c0 1.314.349 2.63 1.026 3.762l12.275 21.022c1.26 2.145 3.173 3.9 5.551 4.685 4.51 1.525 9.48-.323 11.856-4.408l2.962-5.077-11.69-19.985 12.343-21.162 2.965-5.075A12 12 0 0 1 50.763 15H31.724c-3.337 0-6.418 1.755-8.074 4.615L11.026 41.239A7.357 7.357 0 0 0 10 45Z"/><path d="M80 45a7.35 7.35 0 0 0-1.026-3.763l-12.437-21.3c-2.392-4.067-7.347-5.91-11.855-4.407-2.377.785-4.293 2.537-5.552 4.685l-2.8 4.775L58.02 45 45.678 66.158l-2.965 5.077A12.23 12.23 0 0 1 39.237 75h19.039c3.337 0 6.418-1.755 8.074-4.615L78.974 48.76A7.342 7.342 0 0 0 80 45Z"/></g></g></svg>