<svg viewBox="0 0 90 90" xmlns="http://www.w3.org/2000/svg"><g fill="none"><path fill="#47BEAA" d="M0 0h90v90H0z"/><g fill="#FFF"><path d="M39.923 15c.354.453.704.913 1.047 1.388C42.913 19.072 49.303 28.33 51.13 45h-4.443a60.175 60.175 0 0 0-1.709-9.651l-1.075-3.58c-2.054-6.092-5.05-11.435-8.726-15.65A30.577 30.577 0 0 1 39.923 15ZM24.44 22.172a31.359 31.359 0 0 1 3.226 3.788c3.826 5.272 6.304 11.882 7.2 19.04h-4.442c-1.12-8.123-4.452-15.139-9.069-19.735a30.688 30.688 0 0 1 3.085-3.093Zm-5.412 6.16a26.128 26.128 0 0 1 1.986 2.414c2.898 3.986 4.84 8.909 5.683 14.254h-4.458c-.886-4.975-2.831-9.354-5.474-12.62a30.33 30.33 0 0 1 2.263-4.049Zm-3.872 8.378c1.55 2.44 2.67 5.26 3.315 8.29H14c0-2.874.404-5.656 1.156-8.29ZM31.4 17.614c1.019 1.096 1.985 2.302 2.918 3.56C38.568 26.9 42.39 36.666 43.154 45h-4.587c-1.163-10.348-5.279-19.328-11.087-25.157a30.707 30.707 0 0 1 3.92-2.23Z" fill-opacity=".499"/><path d="M71.617 30.663c.366.676.708 1.368 1.022 2.075-2.214 2.768-4.489 6.783-5.5 12.262h-2.144c1.034-5.997 3.548-10.776 6.622-14.337Zm3.357 9.43c.281 1.598.431 3.236.431 4.907h-2.32a21.985 21.985 0 0 1 1.89-4.907ZM66.876 24.15c.49.513.96 1.042 1.413 1.587-.233.24-.464.484-.695.736-3.346 3.682-7.219 9.687-8.48 18.526H56.98c1.232-9.105 5.178-16.057 9.896-20.849Zm-13.764-8.322c.74.213 1.466.45 2.18.713a46.386 46.386 0 0 0-7.848 12.05c-1.129 2.702-1.95 4.955-2.466 6.758a54.006 54.006 0 0 0-1.727 8.847l-.084.804h-2.22a67.995 67.995 0 0 1 1.034-6.297 53.675 53.675 0 0 1 1.922-6.935c.504-1.433 1.327-3.378 2.47-5.833 2.975-4.989 5.221-8.358 6.74-10.107Zm7.624 3.359c.61.374 1.204.768 1.783 1.183a36.958 36.958 0 0 0-1.493 1.606l-.463.538c-.154.183-.31.37-.465.562l-.467.587c-.156.2-.312.403-.468.611l-.467.637c-3.265 4.543-6.39 10.934-7.49 19.475L51.13 45h-2.104l1.162-6.592c2.136-8.435 6.167-14.43 9.726-18.347.27-.297.545-.587.822-.874Z"/></g></g></svg>