<svg xmlns="http://www.w3.org/2000/svg" viewBox="0 0 90 90"><defs><linearGradient x1="-22.032%" y1="114.87%" x2="103.303%" y2="5.822%" id="a"><stop stop-color="#5232DB" offset="45%"/><stop stop-color="#755BE2" offset="85%"/></linearGradient><linearGradient x1="7.288%" y1="123.919%" x2="58.178%" y2="41.651%" id="b"><stop stop-color="#5232DB" offset="55%"/><stop stop-color="#755BE2" offset="100%"/></linearGradient></defs><path fill="#FFF" d="M0 0h90v90H0z"/><path d="M30.005 0c-7.68 0-12.123 6.054-12.123 13.803 0 7.75 1.574 13.06 1.905 14.35.788 2.975 3.133 3.898 5.24 3.306.93-.26 1.798-.984 2.264-1.765.595-1.02.749-1.92.272-4.065-.346-1.588-1.51-6.8-1.51-11.826 0-3.174 1.31-5.662 3.94-5.662s3.976 2.475 3.976 5.675c0 18.01-7.596 26.019-15.121 26.019-7.526 0-10.68-5.723-10.68-10.627v-12.37c-.001-2.244-1.83-4.063-4.087-4.065C1.826 12.778 0 14.596 0 16.838v12.37c0 11.055 7.75 18.768 18.86 18.768s23.301-10.508 23.301-34.149c0-7.713-4.464-13.816-12.156-13.816V0Z" fill="url(#a)" transform="translate(15 21)"/><path d="M55.915 0c-2.257.004-4.084 1.822-4.085 4.065v25.201c0 3.568-1.297 6.813-3.464 8.673-1.94 1.672-3.75 1.969-6.872 1.945-2.095-.013-3.82 1.292-4.156 3.411a3.921 3.921 0 0 0 .8 3.035c1.417 1.73 3.56 1.67 5.108 1.67 5.263 0 8.359-2.086 10.467-3.91C57.701 40.654 60 35.237 60 29.254V4.065C59.999 1.822 58.171.004 55.915 0" fill="url(#b)" transform="translate(15 21)"/></svg>