<svg viewBox="0 0 90 90" xmlns="http://www.w3.org/2000/svg"><g fill="none"><path fill="#FFF" d="M0 0h90v90H0z"/><path d="M35.27 75h19.257V60.405l-4.662-4.662h-9.933l-4.662 4.662V75Zm24.933-39.527-4.662 4.662V50.27l4.662 4.662h14.594V35.676H60.203v-.203ZM54.527 15H35.27v14.595l4.662 4.662h9.933l4.662-4.662V15ZM75 75V60.405l-4.662-4.662H55.743V75H75ZM19.662 15 15 19.662v14.595h19.257V15H19.662Zm36.081 0v14.595l4.662 4.662H75V15H55.743ZM45 47.838c-1.419 0-2.635-1.216-2.635-2.635 0-1.42 1.216-2.635 2.635-2.635 1.419 0 2.635 1.216 2.635 2.635 0 1.419-1.216 2.635-2.635 2.635ZM34.257 35.473H15V54.73h14.595l4.662-4.662V35.473Zm0 24.932-4.662-4.662H15V75h14.595l4.662-4.662v-9.933Z" fill="#0ECAD4"/></g></svg>