<svg viewBox="0 0 90 90" xmlns="http://www.w3.org/2000/svg"><g fill="#1C9AE0"><path d="M59.666 23.58c-.218.523-.48.915-.48 1.263 0 1.089 3.14 1.83 6.105 1.873 2.53 0 4.884-.566 5.015-1.83.13-1.219.305-4.92.305-9.71 0-3.615-.349-7.752-.305-11.89.043-5.443-7.457-2.482-7.457-2.482-7.98 8.58-18.445 19.64-22.718 23.865-.392.392-.654.871-.654 1.306 0 1.612 2.53 3.092 4.36 3.092.393 0 .873-.043 1.134-.217 1.57-1.568 3.794-3.746 6.323-6.315-4.404 9.32-12.384 29.047-16.483 36.494-.261.305-.523.436-.785.48-.218.043-.392-.044-.436-.349 0-.13-.043-.174 0-.348.654-3.223 1.483-11.367 5.582-20.033.523-.566.741-1.089.654-1.786-.305-1.829-3.096-4.529-5.32-4.18-.698.13-1.395.522-1.919 1.437-4.186 8.274-8.895 21.644-13.3 29.657-.26.305-.522.435-.784.479-.218.043-.392-.044-.436-.349 0-.13-.044-.174 0-.348.96-4.703 7.195-22.733 10.858-29.7.305-.48.566-1.002.48-1.655-.393-2.57-4.972-3.746-7.152-3.397-1.308.218-3.096.958-3.314 2.656-1.831 14.023-8.808 34.36-7.849 40.37.436 2.875 4.055 6.14 6.846 5.705 1.003-.174 1.962-.827 2.573-2.22 3.183-7.273 5.276-14.59 8.852-21.34-.742 4.965-1.265 9.973-1.003 14.633.436 2.918 3.663 3.44 6.279 3.048 1.613-.261 2.965-.87 3.314-1.48 3.793-8.58 13.256-34.71 23.285-51.737-.436 1.873-.96 3.615-1.57 5.008Z"/><path d="M78.983 38.3c-.436-2.918-5.843-2.439-7.936-2.134-1.264.174-1.657 1.176-1.962 2.003-2.965 8.492-5.887 21.426-8.896 29.004-1.7 4.268-5.494 17.115-9.724 17.768-.697.13-1.264-.61-1.57-2.7-.479-3.092.96-9.624 3.707-16.505 2.616-6.445 5.887-15.504 7.718-18.944.305-.479.567-1.002.48-1.655-.393-2.57-4.753-3.353-6.933-3.005-1.308.218-3.096.958-3.227 2.613-.087 1.35-3.27 10.626-6.366 20.512-1.396 4.485-2.966 12.194-2.093 17.899.872 5.705 4.011 7.272 7.369 6.75 3.445-.523 7.151-3.31 8.982-6.271.393 1.916 1.614 6.184 4.274 4.224.959-.697 1.962-1.655 1.657-2.657-.088-.304-.306-2.046-.35-2.351-1.394-8.84 11.73-38.716 14.303-42.678.393-.61.654-1.22.567-1.873Z"/></g></svg>