<svg viewBox="0 0 90 90" xmlns="http://www.w3.org/2000/svg"><g fill="none"><path fill="#FFF" d="M0 0h90v90H0z"/><g transform="translate(24 25)"><ellipse fill="#F47B20" cx="19.652" cy="19.575" rx="15.775" ry="15.733"/><path d="m35.495 18.822-.018-.209H29.35l-.064.114c-.73 1.288-1.448 2.58-2.165 3.874l-.632 1.134a3287.25 3287.25 0 0 1-3.258-7.899 2772.454 2772.454 0 0 0-3.44-8.332l-.2-.482-.216.475c-.827 1.82-1.649 3.643-2.466 5.468a866.518 866.518 0 0 1-3.458 7.625c-1.628-.014-3.257-.012-4.892-.01-1.494.001-2.991.003-4.492-.008l-.233-.002.004.232c.007.503.08 1.003.15 1.486l.039.268h.196c2.599-.003 5.196-.003 7.792-.002h2.745l.061-.132c.799-1.76 1.594-3.524 2.389-5.288.764-1.698 1.528-3.394 2.3-5.088 1.167 2.81 2.321 5.622 3.48 8.437 1.012 2.46 2.023 4.923 3.043 7.381l.178.429.23-.406c1.046-1.855 2.083-3.718 3.12-5.579l.96-1.721h4.973l.018-.209c.036-.458.03-.954-.018-1.556Z" fill="#FFF"/><path d="M18.197.045c3.163-.204 6.389.276 9.295 1.565 5.946 2.514 10.43 8.148 11.513 14.502.76 4.248.087 8.747-1.95 12.561-2.658 5.094-7.68 8.889-13.326 10.04-3.715.778-7.654.472-11.196-.902a19.641 19.641 0 0 1-8.64-6.547A19.37 19.37 0 0 1 .031 20.569c-.263-4.577 1.172-9.233 3.982-12.862C7.355 3.286 12.655.417 18.197.045ZM15.842 4.48a15.676 15.676 0 0 0-9.963 7.757C4.454 14.84 3.884 17.85 4.024 20.8h.044c.007.513.085 1.023.16 1.532.825 4.9 4.15 9.292 8.657 11.41a15.647 15.647 0 0 0 11.714.74c3.18-1.039 5.98-3.157 7.895-5.89a15.505 15.505 0 0 0 2.792-8.23 9.072 9.072 0 0 0-.016-1.522 15.623 15.623 0 0 0-2.897-8.293 15.702 15.702 0 0 0-8.288-5.898 15.592 15.592 0 0 0-8.243-.17ZM40.73 18.226a11.69 11.69 0 0 1 6.314.027c2.8.82 5.057 3.116 6.023 5.835.955 2.83.534 6.064-1.045 8.593-1.287 2.058-2.91 3.885-4.55 5.67-2.651 2.856-5.312 5.706-7.962 8.566 4.83-.007 9.66-.002 14.49-.004-.002 1.029.002 2.057-.002 3.087-7.157-.007-14.314.005-21.471-.005 4.572-4.944 9.188-9.848 13.742-14.808 1.665-1.97 3.627-3.949 4.083-6.59.42-2.069-.235-4.321-1.788-5.773-2-2.076-5.319-2.514-7.912-1.374.072-1.07.2-2.15.078-3.224Z" fill="#060709"/></g></g></svg>