<svg viewBox="0 0 90 90" xmlns="http://www.w3.org/2000/svg"><g fill="none"><path d="m58.659 76.255-13.153 9.362-13.142-9.362C23.018 69.868 15.01 64.39 10.81 56.071 14.278 71.668 29.527 77.497 45.506 90c15.98-12.501 31.235-18.334 34.703-33.929-4.2 8.32-12.208 13.795-21.55 20.184Z" fill="#5E6A71"/><path d="M9 0v1.636c1.016.35 1.347.672 1.456 2.156v37.691c0 20.965 17.065 26.504 35.06 40.589 18-14.085 35.073-19.624 35.073-40.589V3.37c.135-1.145.5-1.421 1.411-1.734V0H9Z" fill="#981E32"/><g fill="#FFF"><path d="M52.617 61.36s2.92-1.24 4.514-6.063c1.408 2.938 1.037 5.962 1.037 5.962-1.288.287-5.551.102-5.551.102Zm15.665-27.572s1.774 9.687-4.517 10.017c-6.075.32-8.945-8.823-8.945-8.823s1.47 17.865 9.985 16.687c9.597-1.324 3.477-17.88 3.477-17.88Zm-46.27 25.268h.01c7.106-1.619 12.54-9.908 14.142-13.236l1.01-2.11.613 2.26c.03.125.692 2.61.692 5.898 0 .36-.01.737-.028 1.115 2.448.092 4.196-.4 5.287-1.53 1.557-1.622 2.028-4.675 1.442-9.35-.28-2.237-1.11-5.797-1.84-8.935-.376-1.605-.728-3.121-.94-4.193-1.37-6.868.33-11.129 1.993-13.493.265-.375.548-.728.846-1.065-4.907 1.657-9.028 4.23-13.281 8.475l2.989 3.472 1.22-1.142c1.155 4.306.327 8.276.327 8.276a34.393 34.393 0 0 0-3.432-4.34l.817-1.368-2.696-3.133-.316-.347c-3.311 4.554-4.388 8.284-4.388 8.284l2.351 2.14 1.371 1.244.456-1.318c2.53 4.73.224 9.157.224 9.157-.42-1.616-2.082-3.997-2.082-3.997l.657-2.17-3.499-3.17c-3.64 11.372-8.51 15.059-8.51 15.059s5.27-.95 8.2-1.932c.005-.005-.077 5.985-3.635 11.449Z"/><path d="m75.111 18.035-8.405.356c.01.992-.125 1.99-.453 2.936.79 3.434.253 5.296.253 5.296-1.411-3.275-2.491-4.18-2.491-4.18-7.712-3.435-12.047 4.324-11.587 9.326.383 4.108 1.869 9.565 3.034 18.12.981 7.203-2.663 10.312-6.861 11.027-.092.016-.18.033-.272.045-.023 0-.042.009-.064.009-.68.088-1.405.12-2.17.099h-.076c-.083 0-.171-.01-.25-.01a12.998 12.998 0 0 1-.974-.1c-3.258-.445-10.568-1.773-18.113-1.957 4.44-2.595 7.91-7.077 9.848-10.264.113.884.21 1.958.21 3.14 0 .592-.026 1.207-.082 1.844l-.074.862.867.078c3.474.301 5.943-.36 7.538-2.021 1.979-2.054 2.584-5.476 1.92-10.77-.295-2.332-1.13-5.933-1.87-9.115-.372-1.592-.728-3.097-.93-4.143-1.247-6.26.239-10.06 1.704-12.143 1.16-1.638 2.746-2.834 4.492-3.412.033-.002.06-.01.092-.01l2.863-8.813h.9l-1.92 8.469c.448-.085.902-.152 1.363-.222l2.47-7.805h.899l-1.625 7.56c2.565-.332 5.344-.586 8.423-.816.505.209 1.035.78 1.514 1.584l8.09-2.489.295.868-7.724 3.01c.06.155.114.324.178.488l8.447-1.05.143.91-8.205 1.634c.033.156.057.308.078.462l8.54.272-.015.925Zm-24.344 3.78c1.695-1.19 4.579-2.103 7.276-1.897.69.055 1.266-.123.526-.524-2.022-1.062-6.736-.702-8.402.439-2.676 1.824-2.225 5.07-2.16 5.147.532-.932 1.444-2.235 2.76-3.166Z"/></g></g></svg>