<svg viewBox="0 0 90 90" xmlns="http://www.w3.org/2000/svg"><g fill="none"><path fill="#FFF" d="M0 0h90v90H0z"/><path d="m42.61 21.839.123.204-.123.04-.099.034-1.59.452c-1.196.338-2.393.676-3.581 1.036-1.066.325-2.13.666-3.19 1.006-.946.303-1.891.604-2.841.898-1.293.395-2.614.562-3.963.3a52.356 52.356 0 0 1-.648-.132 29.853 29.853 0 0 0-1.255-.242.963.963 0 0 0-.394.054l-.182.045c.024.056.044.118.064.18.042.13.086.264.172.355.436.459.876.922 1.369 1.322.997.807 2.159 1.246 3.446 1.117a10.171 10.171 0 0 0 2.35-.545c1.04-.37 2.066-.764 3.092-1.162.704-.27 1.41-.545 2.117-.809 2.029-.752 4.084-1.423 6.22-1.81l.015-.003c.37-.069.37-.069.586.383l-.032.027a.893.893 0 0 1-.086.074 70.102 70.102 0 0 0-7.36 6.393 2434.546 2434.546 0 0 0-13.558 13.562c-2.149 2.17-4.586 3.875-7.449 4.983l-.49.185c-.586.21-1.162.45-1.725.715-.8.39-.78.853-.042 1.342 1.073.713 2.198.725 3.375.316 1.324-.462 2.51-1.18 3.69-1.922l.352-.222c.861-.543 1.723-1.085 2.614-1.571 1.802-.98 3.692-1.769 5.583-2.558.51-.212 1.019-.424 1.526-.641.022-.01.049-.01.081-.01l.069-.003-.106.165-.069.111-.492.765c-.382.597-.763 1.19-1.132 1.788-2.125 3.454-3.89 7.065-4.783 11.041l-.111.479c-.185.796-.37 1.596-.443 2.402-.172 1.9.576 3.498 1.868 4.867 1.182 1.255 2.62 1.828 4.357 1.65a9.518 9.518 0 0 0 4.057-1.408l.699-.432c.453-.281.906-.562 1.361-.839 3.52-2.106 7.215-3.875 10.954-5.562l.251-.113a242.385 242.385 0 0 0 3.466-1.589c.576-.274 1.113-.622 1.524-1.125.47-.58.46-1.263-.07-1.786a3.609 3.609 0 0 0-.927-.673 277.236 277.236 0 0 0-3.958-1.885l-.803-.377c-.221-.106-.448-.202-.684-.303l-.357-.153c2.397-2.146 4.332-4.578 5.521-7.593l.05.116.312.861c.155.444.313.883.473 1.325 1.641 4.496 3.475 8.917 5.669 13.182 2.32 4.509 4.957 8.823 8.209 12.745a41.485 41.485 0 0 0 6.296 6.176c1.416 1.11 2.964 2.006 4.564 2.822.074.037.158.052.264.072.056.01.123.022.194.039l-.175-.215a12.635 12.635 0 0 0-.317-.377 58.797 58.797 0 0 1-6.105-8.244c-3.397-5.542-6.297-11.339-8.83-17.313a1268.982 1268.982 0 0 1-4.913-11.813c-.945-2.3-1.894-4.6-2.845-6.899l-.254-.619c.043-.01.086-.019.128-.03.076-.02.153-.034.232-.041.278-.02.558-.035.836-.05a38.798 38.798 0 0 0 1.608-.118 5.363 5.363 0 0 0 1.28-.276c.413-.153.475-.536.182-.866a2.6 2.6 0 0 0-.49-.417c-1.083-.735-2.29-.94-3.572-.807-.278.03-.55.074-.824.116l-.367.057-.007-.015-.013-.02a.348.348 0 0 1-.024-.044c-1.28-3.108-2.555-6.216-3.83-9.324a1.636 1.636 0 0 1-.074-.271l-.035-.138.458-.094c.32-.067.625-.128.928-.197.16-.037.323-.072.485-.104.448-.094.894-.185 1.305-.358.433-.182.854-.197 1.29-.214l.098-.003c.162-.007.239.067.308.227.118.284.256.575.455.804a.831.831 0 0 0 1.246.018 1.52 1.52 0 0 0 .344-.563c.308-.937.227-1.847-.26-2.708-.355-.63-.862-.98-1.633-.878-.603.079-1.206.153-1.809.227-.866.106-1.733.212-2.597.338-.453.064-.898.172-1.351.283-.21.05-.421.101-.638.148l-.02-.037-.115-.222c-1.524-3.157-3.35-6.122-5.637-8.796-.48-.565-.77-1.115-.731-1.89.049-.988-.677-1.894-1.576-2.17-.605-.185-1.157-.084-1.58.387-.588.656-.869 1.456-.652 2.302.216.848.527 1.687.908 2.476 1.381 2.871 3.015 5.61 4.647 8.347l.084.136.062.104ZM48.732 37.9c.039-.012.083-.024.128-.042l.526 1.737v.005l.522 1.72c.05.164.104.33.155.492.099.321.202.642.288.962a.86.86 0 0 1-.005.486c-.718 2.082-1.969 3.826-3.495 5.397a22.838 22.838 0 0 1-3.158 2.667c-.143.101-.256.113-.419.054l-.704-.259c-.733-.271-1.464-.543-2.208-.774-1.467-.462-2.872-.264-4.202.5-.787.454-1.545.943-2.141 1.643-1.265 1.485-.714 3.224.249 4.243.59.624 1.393.78 2.23.755.8-.023 1.533-.284 2.235-.642a30.991 30.991 0 0 0 5.686-3.7c.155-.128.266-.15.445-.057l1.404.703c.608.301 1.216.605 1.816.913.323.168.64.375.904.622.48.444.477.979-.042 1.374a8.932 8.932 0 0 1-1.595.984c-.832.387-1.674.755-2.519 1.125a159.8 159.8 0 0 0-1.905.84c-3.475 1.58-6.801 3.442-10.129 5.304l-.227.128c-.743.415-1.513.74-2.375.804-2.388.18-3.754-1.605-3.978-3.29-.103-.777.064-1.52.232-2.26l.044-.197c.625-2.814 1.44-5.572 2.7-8.177a88.381 88.381 0 0 1 2.189-4.168c1.09-1.961 2.742-3.367 4.681-4.463 1.728-.974 3.545-1.76 5.379-2.518l.99-.42c.386-.167.772-.332 1.164-.493l.403-.153c.968-.365 3.4-1.287 4.532-1.773.064-.025.128-.05.197-.072h.003Zm-9.876 13.352c1.223.138 2.378.503 3.527.898h-.002l.02.077-.537.315c-.377.222-.75.444-1.132.656-.845.47-1.694.933-2.548 1.387-.741.392-1.514.7-2.376.698-1.058-.003-1.464-.503-1.112-1.591.113-.35.401-.674.682-.935.332-.308.714-.572 1.088-.834l.15-.103a3.16 3.16 0 0 1 2.24-.568ZM45.11 25.97l.388 1.035c.753 2.076 1.38 4.178 2.01 6.295.226.762.455 1.526.688 2.294-5.907 2.146-11.648 4.669-17.408 7.202-2.067.91-4.142 1.82-6.227 2.716l.061-.084c.027-.04.044-.067.07-.091l2.7-2.802a1161.76 1161.76 0 0 1 7.052-7.306 66.145 66.145 0 0 1 3.724-3.523c1.539-1.35 3.107-2.659 4.677-3.971l1.23-1.029a7.51 7.51 0 0 1 .69-.5c.116-.078.232-.157.347-.237l-.002.001Zm15.016 4.053a1.315 1.315 0 0 1-.391-.136c-.308-.158-.37-.441-.091-.648a2.63 2.63 0 0 1 .854-.412c.746-.222 1.511-.378 2.255-.605a16.79 16.79 0 0 0 1.897-.7c.315-.14.606-.378.857-.627.303-.303.332-.631.091-.986a7.186 7.186 0 0 0-.81-.962 13.197 13.197 0 0 0-5.253-3.251 13.031 13.031 0 0 1-1.368-.568c-.146-.066-.246-.24-.367-.362.162-.06.33-.18.487-.168a22.33 22.33 0 0 1 1.906.207 16.24 16.24 0 0 1 4.465 1.327c1.43.674 2.646 1.64 3.653 2.869.243.296.428.663.57 1.026a1.482 1.482 0 0 1-.32 1.645 6.156 6.156 0 0 1-1.25.972c-1.162.686-2.456.982-3.76 1.219-.752.135-3.043.222-3.425.162v-.002Z" fill="#000"/></g></svg>