<svg viewBox="0 0 90 90" xmlns="http://www.w3.org/2000/svg"><path d="m44.999 29.185 5.256-15.765a5.008 5.008 0 0 1 6.327-3.165 5.007 5.007 0 0 1 3.166 6.325L50.27 45l9.478 28.42a5 5 0 0 1 .255 1.58c0 2.745-2.256 5-5.002 5a5.008 5.008 0 0 1-4.746-3.42L45 60.815 39.743 76.58A5.008 5.008 0 0 1 34.996 80c-2.745 0-5-2.255-5-5a5 5 0 0 1 .254-1.58L39.728 45 30.25 16.58a5.007 5.007 0 0 1 3.166-6.325 5.008 5.008 0 0 1 6.327 3.165l5.256 15.765ZM20.113 25.01c.2.005.4.025.6.05l.12.02.115.02.12.025.12.03a4.92 4.92 0 0 1 2.34 1.31c1.941 1.94 1.941 5.13 0 7.07L12.062 45 23.53 56.465a4.995 4.995 0 0 1 1.525 3.595c0 1.8-.97 3.39-2.416 4.275-.06.035-.12.07-.185.105l-.13.07c-.035.02-.075.035-.11.055l-.1.045c-.28.13-.57.235-.875.31-.065.015-.125.025-.185.04l-.125.025-.115.02-.135.015c-.08.01-.16.02-.24.025l-.13.01-.13.005h-.25a2.18 2.18 0 0 1-.255-.015l-.125-.01-.095-.01a4.586 4.586 0 0 1-.636-.12c-.045-.01-.09-.02-.13-.035l-.12-.035c-.04-.01-.08-.025-.12-.04l-.115-.04-.115-.045c-.04-.015-.08-.03-.115-.045l-.115-.05-.045-.02a4.989 4.989 0 0 1-1.485-1.06l-15.004-15c-1.73-1.73-1.915-4.46-.555-6.405l.06-.09.075-.1.08-.095.06-.075c.04-.05.085-.1.13-.145.045-.055.1-.11.15-.16l15.004-15a4.99 4.99 0 0 1 2.85-1.41l.086-.01.12-.01c.2-.02.4-.025.6-.025Zm49.892 0c.16 0 .32.01.48.025l.12.01.02.005c1.07.13 2.1.6 2.916 1.415l15.004 15c.15.15.29.31.415.475.17.22.32.45.445.69.34.625.53 1.31.58 2.005.005.07.01.135.01.2l.005.045V45c0 .05 0 .1-.005.15v.09l-.005.065a4.977 4.977 0 0 1-1.445 3.23l-15.004 15-.18.18c-.125.115-.25.22-.385.325l-.1.075c-.375.265-.78.485-1.21.64l-.116.04c-.075.025-.15.05-.23.075-.065.015-.13.035-.195.05-.22.055-.445.09-.675.115l-.125.01c-.1.01-.2.015-.305.015h-.205l-.125-.005-.13-.01c-.04 0-.085-.005-.125-.01l-.125-.015-.125-.015-.12-.02-.125-.025a3.234 3.234 0 0 1-.235-.055c-2.156-.56-3.761-2.53-3.761-4.845 0-1.355.55-2.655 1.525-3.595L77.937 45 66.469 33.535c-1.94-1.94-1.94-5.13 0-7.07a4.97 4.97 0 0 1 1.1-.83c.035-.02.07-.035.106-.055l.11-.055c.185-.09.37-.17.565-.235.075-.025.15-.05.23-.075l.115-.03.115-.03.12-.03.235-.045c.04-.005.08-.01.12-.02.195-.025.385-.04.58-.045l.02-.005h.12Z" fill="#FE5000" fill-rule="evenodd"/></svg>