<svg xmlns="http://www.w3.org/2000/svg" viewBox="0 0 90 90"><path fill="#FFF" d="M0 0h90v90H0z"/><path d="M44.9 15C28.355 15.11 15 28.51 15 45c0 16.491 13.355 29.89 29.9 30H75V44.846a29.808 29.808 0 0 0-8.829-21.156A30.01 30.01 0 0 0 44.9 15" fill="#00D7CC"/><path d="M50.734 60.496H44.9a15.2 15.2 0 0 1-13.995-7.732c-6.61-12.773 4.065-25.763 16.881-23.258 6.3 1.273 11.17 6.273 12.258 12.588a15.218 15.218 0 0 1-4.283 13.768l4.65 4.634h-9.677Z" fill="#FFF"/><g transform="translate(40.183 37.546)" fill="#353939"><ellipse cx="2.42" cy="2.412" rx="2.42" ry="2.412"/><ellipse cx="10.084" cy="2.412" rx="2.42" ry="2.412"/></g></svg>