<svg viewBox="0 0 90 90" xmlns="http://www.w3.org/2000/svg"><g fill="none"><path fill="#112941" d="M0 0h90v90H0z"/><g fill="#EBBE5A"><path d="M15.032 21.144c.095.29 16.238 20.87 16.333 20.838.286-.096 3.746-4.543 3.635-4.688-.063-.096-1.841-2.408-3.937-5.153-2.11-2.761-3.84-5.057-3.84-5.105 0-.048 1.634-.096 3.65-.096h3.635l3.413 4.286 3.412 4.302-.523.643C38.46 39.076 15 68.856 15 68.92c0 .048 5.063.08 11.238.08h11.238l2.603-3.275c1.429-1.782 2.572-3.323 2.556-3.403-.064-.193-3.572-4.543-3.667-4.543-.047 0-1.063 1.188-2.27 2.648l-2.19 2.633h-3.65c-2.239 0-3.636-.064-3.604-.144.032-.097 4.65-6.036 10.286-13.196 5.635-7.176 10.428-13.325 10.682-13.646l.429-.594-5.588-7.24L37.46 21H26.222c-6.54 0-11.222.064-11.19.144Z"/><path d="M49.937 24.243c-1.43 1.798-2.588 3.323-2.588 3.387.016.16 3.572 4.591 3.683 4.591.047 0 1.063-1.188 2.27-2.648l2.19-2.633h3.65c2.255 0 3.636.064 3.604.16-.016.08-4.825 6.293-10.683 13.806-5.84 7.513-10.634 13.726-10.634 13.806 0 .065 2.492 3.307 5.555 7.208L52.54 69h11.238c6.54 0 11.222-.064 11.19-.144-.095-.29-16.238-20.87-16.333-20.838-.286.096-3.746 4.543-3.635 4.688.063.08 1.841 2.408 3.937 5.153 2.11 2.761 3.84 5.057 3.84 5.105 0 .048-1.634.096-3.634.096h-3.65l-3.334-4.093c-1.842-2.248-3.35-4.174-3.35-4.27 0-.08 5.89-7.674 13.096-16.84C69.11 28.673 75 21.127 75 21.08c0-.048-5.063-.08-11.238-.08H52.524l-2.587 3.243Z"/></g></g></svg>