<svg xmlns="http://www.w3.org/2000/svg" viewBox="0 0 90 90"><path fill="#3B68FF" d="M0 0h90v90H0z"/><g fill="#FFF"><path d="m50.231 59.881 5.68 9.863 2.73-1.714.969-3.254-6.084-10.589-3.295 5.694Zm-18.352-39-2.674 2.382 7.226 12.477 3.28-5.694-6.604-11.46-1.228 2.295Zm6.17 30.503-7.977 13.872.997 3.704 2.443 1.728 11.56-20.016 3.28-5.708 12.703-22.21-2.124-2.905-.708-1.031-3.107 2.905-17.067 29.66Z"/><path d="m31.633 16-3.295 5.723L18.28 39.241 15 45.05l16.633 28.89 3.28-5.65-13.352-23.24 13.352-23.24h9.552l3.28-5.81H31.634Zm23.454 5.81 13.381 23.24-13.381 23.242H45.52L42.254 74h16.099l3.294-5.708 10.116-17.547L75 45.05l-3.28-5.81-10.116-17.518L58.353 16l-3.266 5.81Z"/></g></svg>