<svg viewBox="0 0 90 90" xmlns="http://www.w3.org/2000/svg"><g fill="none"><path d="M44.993 31.714h-.186c-6.85 0-12.898-5.129-17.342-9.64l-4.443-4.45a4.5 4.5 0 0 1 .123-6.364c1.728-1.668 4.506-1.668 6.234 0l4.443 4.45c3.024 3.027 7.406 6.982 10.985 6.982h.186c3.58 0 8.023-4.017 10.985-6.983l4.443-4.449a4.485 4.485 0 0 1 6.357.124c1.666 1.73 1.666 4.51 0 6.24l-4.443 4.45c-4.444 4.511-10.492 9.64-17.342 9.64Z" fill="#E66DCB"/><path d="M63.569 79.852a4.537 4.537 0 0 1-3.148-1.297l-4.443-4.388c-3.024-3.028-7.406-6.983-10.985-6.983h-.186c-3.58 0-8.023 4.017-10.985 6.983l-4.443 4.45a4.485 4.485 0 0 1-6.357.123 4.5 4.5 0 0 1-.124-6.365l.124-.123 4.443-4.45c4.506-4.51 10.492-9.64 17.404-9.64h.062c6.85 0 12.898 5.13 17.342 9.64l4.443 4.45c1.728 1.73 1.728 4.572 0 6.364a4.65 4.65 0 0 1-3.147 1.236Z" fill="#26E3E4"/><path d="M14.505 68.111c-2.468 0-4.505-2.039-4.505-4.51 0-1.175.494-2.349 1.296-3.152l4.444-4.45c3.024-3.027 7.035-7.477 6.973-11.06v-.063c0-3.645-3.95-8.033-6.973-11.06l-4.444-4.45c-1.666-1.792-1.605-4.635.185-6.303a4.505 4.505 0 0 1 6.233 0l4.444 4.449c4.443 4.45 9.628 10.505 9.566 17.426-.062 6.921-5.123 12.977-9.628 17.426l-4.382 4.45c-.864.865-1.974 1.297-3.209 1.297Z" fill="#5B64EE"/><path d="M75.295 68.111a4.537 4.537 0 0 1-3.148-1.297l-4.443-4.45c-4.505-4.51-9.628-10.567-9.628-17.426 0-6.859 5.123-12.977 9.628-17.488l4.443-4.449c1.605-1.916 4.444-2.101 6.295-.494 1.852 1.606 2.099 4.449.494 6.303-.062.123-.185.185-.247.309l-.247.247L74 33.816c-3.024 3.027-7.036 7.415-6.974 11.06v.062c0 3.584 3.95 8.034 6.974 11.061l4.443 4.45c1.728 1.792 1.728 4.634 0 6.365a4.537 4.537 0 0 1-3.147 1.297Z" fill="#27E7A2"/></g></svg>