<svg width="90" height="90" viewBox="0 0 90 90" xmlns="http://www.w3.org/2000/svg"><g fill="none" fill-rule="evenodd"><rect fill="#FFF" opacity="0" width="90" height="90"/><g transform="translate(0 30)" fill="#028BF4" fill-rule="nonzero"><path d="M8.7,19.9187034 L3.23333333,9.9255912 L9.63333333,9.9255912 L12.5,16.1375258 L17.3333333,9.9255912 L23.8666667,9.9255912 L15.1333333,20.8977583 L20.4333333,30.654547 L14.2,30.654547 L11.3333333,24.6789359 L6.66666667,30.654547 L0,30.654547 L8.7,19.9187034 Z M49.9666667,16.2725679 C50.3,14.3482186 49.2666667,13.9430924 47.1333333,13.9768529 C43.4666667,14.0106134 43.1333333,16.4076099 42.6333333,18.973409 C42.6,18.9396485 49.3,20.087506 49.9666667,16.2725679 M47.5,9.55422554 C51.9,9.52046503 55.8,10.7696041 55.5,15.5298366 C54.9,24.9490201 43.6,23.1259523 42.1666667,22.5520235 C41.6333333,25.7255119 42.4,26.5357642 45.1333333,26.5695247 C47.4,26.6370458 51.1,26.2994406 53.5,25.8943145 L52.8333333,29.7767736 C49.7666667,30.722068 46.4333333,31.1947152 42.1666667,30.9246311 C37.2666667,30.6883075 35.7,26.5357642 37.1,18.9396485 C38.3,12.5926718 40,9.58798606 47.5,9.55422554"/><path d="M38.7333333,10.702083 C39,10.4319989 39.2666667,10.1956753 39.5666667,9.95935171 L31.3666667,9.95935171 L31.6,8.47388908 C32.1,5.16535869 32.3,4.15254326 34.5666667,4.18630377 L38.0333333,4.22006429 L38.5333333,0.9452944 C37.5,0.438886686 35.5666667,0 33.8333333,0 C29.3,0 27.2333333,1.82306777 26.4,7.19098954 L25.9666667,9.95935171 L22.8,14.111895 L25.2666667,14.111895 L22.6,30.654547 L28,30.654547 L30.6666667,14.111895 L36.6333333,14.111895 C37.1333333,12.7952349 37.8,11.6473774 38.7333333,10.702083 Z M72.2,26.4007222 L81.8333333,26.4007222 C82.1666667,26.4007222 83.1666667,26.3669617 83.4,25.0840621 L83.6,24.0374862 C83.7,23.1934733 83.5333333,22.7208261 82.4,22.7208261 L77.8333333,22.7208261 C74.2,22.7208261 72.1666667,20.6951953 72.8,16.7114546 L73.1,14.8546263 C73.6,11.5798564 75.3333333,9.72302811 79.3,9.72302811 C83.2333333,9.72302811 88.5666667,9.82430966 90,10.7696041 L89.4666667,14.2131765 L80.2333333,14.2131765 C78.8333333,14.2131765 78.5333333,14.9221473 78.4333333,15.6648786 L78.2666667,16.6776941 C78,18.1969172 78.9333333,17.9943541 79.6666667,17.9943541 L84.3666667,17.9943541 C88.3,17.9943541 89.6,20.7627163 89.1,23.7674021 L88.7666667,26.1306381 C88.1,30.3844629 85.2666667,30.9583916 82.9,30.9583916 C79,30.9583916 72.9666667,30.789589 71.7,29.8105341 L72.2,26.4007222 Z M71.4333333,14.5507817 C71.7666667,12.4576298 72.5333333,10.8708856 73.7333333,9.79054914 C71.8666667,9.75678863 70.1333333,9.75678863 69.7333333,9.75678863 C67.2,9.75678863 65.0666667,11.1747302 63.4333333,12.5589113 L63,9.95935171 L58.4666667,9.95935171 L55.2333333,30.654547 L60.6333333,30.654547 L62.6666667,17.4204254 C64.3333333,15.4960761 66,15.1247104 68.2333333,15.1247104 C68.6333333,15.1247104 69.8666667,15.1247104 71.3333333,15.1584709 L71.4333333,14.5507817 Z"/></g></g></svg>