<svg viewBox="0 0 90 90" xmlns="http://www.w3.org/2000/svg"><g fill="none"><path fill="#000" d="M0 0h90v90H0z"/><path d="M71.928 31c-7.216 0-13.072 5.82-13.072 12.99s5.856 12.99 13.072 12.99C79.144 56.98 85 51.16 85 43.99S79.144 31 71.928 31Zm0 15.13a2.144 2.144 0 0 1-2.154-2.14c0-1.185.962-2.141 2.154-2.141s2.154.956 2.154 2.14a2.144 2.144 0 0 1-2.154 2.141ZM31.06 38.357l-7.32-7.295c-.084-.083-.23-.083-.335 0l-5.333 5.3-5.333-5.3c-.084-.083-.23-.083-.335 0l-7.341 7.295c-.084.083-.084.229 0 .333l5.333 5.3-5.333 5.3c-.084.083-.084.228 0 .332l7.34 7.295c.085.083.231.083.336 0l5.333-5.3 5.333 5.3c.084.083.23.083.335 0l7.341-7.295c.084-.083.084-.229 0-.333l-5.333-5.3 5.333-5.3c.084-.082.084-.228 0-.332h-.02Zm26.5 6.193H46.787a2.155 2.155 0 0 1-2.07 1.58c-1.004 0-2.134-.956-2.134-2.12 0-1.163.962-2.12 2.134-2.12 1.17 0 1.82.666 2.05 1.56h10.75c.146 0 .25-.125.25-.25-.439-7.337-6.985-13.01-14.64-12.096-5.919.707-10.708 5.507-11.378 11.39-.71 6.359 3.054 12.303 8.596 13.654 3.41.914 6.923.353 8.827-1.143.083-.063.209 0 .209.104v1.662c0 .125.104.229.23.229h7.927c.125 0 .23-.104.23-.229v-11.95a.231.231 0 0 0-.23-.229l.02-.041Z" fill="#FFF"/></g></svg>