<svg xmlns="http://www.w3.org/2000/svg" viewBox="0 0 90 90"><path fill="#000092" d="M0 0h90v90H0z"/><path d="M40.494 20.925c2.43 3.255 4.454 5.91 4.499 5.91.044 0 2.069-2.655 4.498-5.91L53.915 15h9.043c4.978 0 9.027.06 8.997.12-.015.06-4.049 6.765-8.923 14.91-4.888 8.13-8.892 14.865-8.892 14.94 0 .09 3.914 6.69 8.713 14.685 4.783 7.98 8.802 14.7 8.922 14.925L72 75H53.915l-4.424-5.925c-2.43-3.255-4.454-5.91-4.498-5.91-.045 0-2.07 2.655-4.5 5.91L36.07 75H18v-3.075l8.923-13.38C31.826 51.18 35.845 45.09 35.845 45c0-.09-4.019-6.18-8.922-13.545L18 18.075V15h18.07l4.424 5.925Z" fill="#5EA0FF"/></svg>