<svg xmlns="http://www.w3.org/2000/svg" xmlns:xlink="http://www.w3.org/1999/xlink" viewBox="0 0 90 90"><defs><path id="a" d="M0 0h34.2v90H0z"/><path id="c" d="M0 0h34.18v90H0z"/></defs><g transform="translate(11)"><mask id="b" fill="#fff"><use xlink:href="#a"/></mask><path fill="#04A56C" d="M.06 12.04S15.86 0 33.69 0c17.84 0 34.34 12.36 34.34 12.36s-.44 29.79 0 42.15C68.54 67.75 41.28 90.19 33.7 90 27.45 89.8 2.54 71.94.2 54.5c-.32-5-.13-42.46-.13-42.46" mask="url(#b)"/><g transform="translate(33.82)"><mask id="d" fill="#fff"><use xlink:href="#c"/></mask><path fill="#0E8859" d="M34.15 12.04S18.35 0 .5 0s-34.34 12.36-34.34 12.36.45 29.79 0 42.15C-34.33 67.75-7.07 90.19.51 90c6.24-.2 31.15-18.06 33.51-35.5.25-5 .13-42.46.13-42.46" mask="url(#d)"/></g><path fill="#FFFFFE" d="M45.1 37v14.47a5.7 5.7 0 01-5.67 5.72H27.78a5.69 5.69 0 01-5.68-5.66V37h6v14.2h11V37h6zm-5.67-20.16a5.69 5.69 0 015.68 5.66V33h-6V22.84H28.1V33h-6V22.5a5.69 5.69 0 015.46-5.66h.22z"/><path fill="#FFFFFE" d="M27.13 46.46l-2.67 2.53 7.58 7.35 11.08-11.4-3.06-2.86-8.21 8.88-4.72-4.5zM51.21 63.7H17.07a1 1 0 01-1.02-1.02v-25.1a1 1 0 011.02-1.01H51.2a1 1 0 011.02 1.01v25.1a1 1 0 01-1.02 1.02z"/><path fill="#FFFFFE" d="M21.78 59.77h24.59v-19.4H21.78z"/><path fill="#00A66E" d="M37.58 44.8c.51 0 1.02-.24 1.34-.75l.95-1.4c.26-.38 0-.82-.38-.82h-6.62c-1.4 0-2.49.38-3.32 1.14a4.6 4.6 0 00-1.4 3.17l-.38 3.68c-.13 1.4.19 2.4.89 3.16.7.77 1.72 1.15 3.12 1.15h1.53c.32 0 .45-.26.51-.57l.13-1.78c0-.32-.2-.57-.51-.57h-.83c-.57 0-.95-.13-1.15-.38-.19-.25-.31-.63-.25-1.2l.25-3.24c.07-.57.2-.95.45-1.2s.64-.38 1.21-.38h4.46"/><path fill="#00A66E" d="M33.82 46.77c-.32 0-.44.26-.5.57l-.14 1.78c0 .32.2.57.51.57h.83c.58 0 .96.13 1.15.38.19.25.32.63.25 1.2l-.25 3.24c-.06.57-.2.95-.45 1.2s-.63.38-1.2.38h-4.6c-.5 0-1.01.25-1.33.76l-.96 1.27c-.25.38 0 .82.38.82h6.7c1.4 0 2.48-.38 3.3-1.14a4.6 4.6 0 001.4-3.17l.33-3.61c.12-1.4-.2-2.4-.9-3.17-.7-.76-1.72-1.14-3.12-1.14l-1.4.06"/></g></svg>