<svg viewBox="0 0 90 90" xmlns="http://www.w3.org/2000/svg"><g fill="none" fill-rule="evenodd"><path fill="#000" d="M0 0h90v90H0z"/><path d="M61 44.837c-7.732 0-14-6.232-14-13.918C47 23.232 53.268 17 61 17s14 6.232 14 13.919c0 7.686-6.268 13.918-14 13.918ZM29 74c-7.732 0-14-6.232-14-13.92 0-7.686 6.268-13.918 14-13.918s14 6.232 14 13.919-6.268 13.918-14 13.918ZM15.43 17c-.382 0-.574.438-.303.694l27.14 25.698c.27.256.733.075.733-.287V17.407a.418.418 0 0 0-.43-.406H15.43Zm59.14 57c.382 0 .574-.438.304-.694L47.733 47.608c-.27-.256-.733-.074-.733.287v25.699c0 .224.192.406.429.406h27.14Z" fill="#0184FF" fill-rule="nonzero"/></g></svg>