<svg xmlns="http://www.w3.org/2000/svg" viewBox="0 0 90 90"><path fill="#FFF" d="M0 0h90v90H0z"/><path fill="#FFBE40" d="M45.3 85A40 40 0 1185 45a39.9 39.9 0 01-39.7 40zm0-74.06A34.07 34.07 0 1079.12 45 33.98 33.98 0 0045.3 10.94zm1.43 28.57l7.66-9.37a2.3 2.3 0 00-1.74-3.76c-.67 0-1.3.3-1.73.81l-7.13 8.7-7.13-8.7a2.2 2.2 0 00-1.74-.81h-5.88a2.3 2.3 0 00-1.74 3.76L37.9 43.1 24.37 59.67a2.28 2.28 0 103.48 2.95l13-15.9 5.89-7.2zM64.5 26.38c-.67 0-1.3.3-1.73.81L49.8 43.1l-5.88 7.2-7.67 9.38a2.28 2.28 0 003.48 2.95l7.13-8.7 7.12 8.7a2.2 2.2 0 001.74.81h5.87a2.29 2.29 0 001.74-3.76l-10.6-12.94 13.54-16.6a2.32 2.32 0 00-1.78-3.75"/></svg>