<svg xmlns="http://www.w3.org/2000/svg" viewBox="0 0 90 90"><path fill="#F73E4A" d="M0 0h90v90H0z"/><path d="M61.159 64.094a79.324 79.324 0 0 0-1.139-1.036 110.155 110.155 0 0 0-13.335-10.174 136.892 136.892 0 0 1-13.472 7.067L5.148 54.423a131.228 131.228 0 0 0 16.143-5.23 125.446 125.446 0 0 0 10.293-4.634c-2.102-.972-4.24-1.89-6.408-2.751a132.466 132.466 0 0 0-16.14-5.233L37.1 31.051a137.184 137.184 0 0 1 9.265 4.65 108.12 108.12 0 0 0 10.908-8.796l23.684-4.423c-5.926 7.917-13.114 15.17-21.336 21.566C69.478 51.118 78 59.375 84.844 68.516l-23.685-4.422Z" fill="#FFF"/></svg>