<svg viewBox="0 0 90 90" xmlns="http://www.w3.org/2000/svg"><g fill="none"><path fill="#FFF" d="M0 0h90v90H0z"/><path d="M44.283 15.006c-3.094-.186-5.785 3.882-6.094 9.103-.304 5.194 1.942 9.583 4.994 9.77.068.005.142.005.21.005 3 0 5.586-3.994 5.879-9.098.293-5.199-1.937-9.583-4.99-9.78Z" fill="#0098F0"/><path d="M41.471 39.308c-.356-2.224-3.465-3.659-7.915-3.659a21.92 21.92 0 0 0-3.634.315c-5.91 1.003-10.35 4.128-9.89 6.975.357 2.192 3.54 3.664 7.922 3.664a21.92 21.92 0 0 0 3.638-.315c2.827-.48 5.403-1.456 7.262-2.735 1.921-1.328 2.853-2.832 2.617-4.245Z" fill="#77BE00"/><path d="M68.768 31.687c-.618-1.461-2.445-2.293-5-2.293-2.188 0-4.748.603-7.214 1.696-5.528 2.474-9.062 6.767-7.868 9.562.617 1.46 2.44 2.293 4.994 2.293h.005c2.189 0 4.749-.598 7.215-1.696 5.528-2.47 9.062-6.762 7.868-9.562Z" fill="#F5B40A"/><path d="M36.822 49.835a1.911 1.911 0 0 0-.921-.235c-2.361 0-5.235 4.362-6.837 10.383-1.859 6.975-1.414 13.47 1.01 14.782.283.16.597.235.922.235 2.366 0 5.24-4.368 6.837-10.383 1.864-6.975 1.419-13.47-1.01-14.782Zm14.618-2.294c-3.257 0-5.911 3.643-5.911 8.117 0 4.474 2.654 8.1 5.91 8.1 3.272 0 5.927-3.631 5.927-8.1 0-4.469-2.66-8.117-5.927-8.117Z" fill="#0098F0"/></g></svg>