<svg viewBox="0 0 90 90" xmlns="http://www.w3.org/2000/svg"><g fill="none"><path d="M7.038 27.674a2.757 2.757 0 0 1 3.195-2.236l51.093 9.009a2.757 2.757 0 0 1 2.237 3.194l-6.557 37.188a2.757 2.757 0 0 1-3.194 2.236L2.718 68.056A2.757 2.757 0 0 1 .48 64.862l6.557-37.188Z" fill="#FEE5B0"/><path d="M22.13 20.105a2.757 2.757 0 0 1 3.535-1.648l48.753 17.745a2.757 2.757 0 0 1 1.648 3.534L63.15 75.22a2.757 2.757 0 0 1-3.534 1.648L10.864 59.123a2.758 2.758 0 0 1-1.648-3.534L22.13 20.105Z" fill="#FDCA5F"/><path d="M39.563 14.388a2.757 2.757 0 0 1 3.766-1.01L88.261 39.32a2.757 2.757 0 0 1 1.009 3.767L70.389 75.79a2.757 2.757 0 0 1-3.766 1.009L21.69 50.857a2.758 2.758 0 0 1-1.009-3.767l18.88-32.702Z" fill="#FCB41C"/></g></svg>