<svg viewBox="0 0 90 90" xmlns="http://www.w3.org/2000/svg"><g fill="none" fill-rule="evenodd"><path fill="#FFF" d="M0 0h90v90H0z"/><path d="M86.085 6.12a.498.498 0 0 1 .881.446L55.901 86.683a.497.497 0 0 1-.96-.178V58.56c0-2.654.764-5.253 2.202-7.487Zm-82.17 0 28.942 44.952a13.83 13.83 0 0 1 2.203 7.487v27.945a.496.496 0 0 1-.96.178L3.033 6.565a.498.498 0 0 1 .882-.446ZM62.495 2c.773 0 1.53.225 2.177.647a3.953 3.953 0 0 1 1.149 5.485L48.326 34.753a3.985 3.985 0 0 1-6.653 0L24.18 8.133a3.952 3.952 0 0 1-.65-2.171A3.969 3.969 0 0 1 27.507 2Z" fill="#4B5466"/></g></svg>