<svg viewBox="0 0 90 90" xmlns="http://www.w3.org/2000/svg"><defs><linearGradient x1="-3.539%" y1="50%" x2="97.084%" y2="50%" id="a"><stop stop-color="#0065CB" offset="0%"/><stop stop-color="#0F3681" offset="100%"/></linearGradient></defs><g fill="none"><path fill="url(#a)" d="M0 0h90v90H0z"/><path d="M51.307 43.016 29.836 61.892a43.624 43.624 0 0 1-2.221 1.803l-7.18 5.865c3.408 1.27 8.962 2.02 14.956-2.662l19.586-17.39c1.262-.977 3.275-1.943 5.003-1.943.98.009 1.948.205 2.85.578a7.48 7.48 0 0 1 2.406 1.593A7.231 7.231 0 0 1 66.83 52.1c.366.883.55 1.827.54 2.778.01.954-.174 1.9-.541 2.784a7.224 7.224 0 0 1-1.6 2.369 7.474 7.474 0 0 1-2.413 1.592 7.65 7.65 0 0 1-2.857.573c-3.435 0-5.57-1.563-7.051-4.994l-5.896 4.792c1.838 3.397 5.579 7.504 12.947 7.504 8.168 0 14.788-6.55 14.788-14.628s-6.62-14.627-14.788-14.627c-3.116 0-6.15.972-8.653 2.772Zm3.307-18.926L35.047 41.479c-1.258.977-3.275 1.943-4.999 1.943a7.577 7.577 0 0 1-5.257-2.17 7.14 7.14 0 0 1-2.138-5.144 7.141 7.141 0 0 1 2.14-5.138 7.577 7.577 0 0 1 5.255-2.168c3.322 0 5.426 1.468 6.903 4.67l5.844-4.818c-1.904-3.324-5.633-7.166-12.747-7.166-8.171 0-14.791 6.55-14.791 14.628s6.62 14.632 14.791 14.632c3.114 0 6.146-.968 8.65-2.765l21.47-18.876a43.541 43.541 0 0 1 2.222-1.803l7.18-5.865c-3.408-1.278-8.963-2.027-14.956 2.65Z" fill="#FFF"/></g></svg>