<svg xmlns="http://www.w3.org/2000/svg" viewBox="0 0 446.4 446.4"><circle cx="223.2" cy="223.2" r="223.2" fill="#2c5976"/><path d="M72.4 177.6c7.3 0 14.5-.1 21.7.2 5.7 14.8 15.7 27.9 18.2 43.8 2.7-15.8 12.1-29.4 18.3-44.1 6.3 0 12.7 0 19-.1-8.8 17.2-17.7 34.3-26.7 51.3-1.2 2.5-2.7 5-2.6 8-.1 10.4.1 20.9 0 31.4h-17.8c-.3-11.1.5-22.2-.4-33.2-9.3-19.3-19.7-38.3-29.7-57.3zm103.4 25.2c10.9-2.2 23.7-.4 31.1 8.6s8.4 21.1 7.1 32.1c-1 10.1-7 20.1-16.7 23.9-12.2 4.8-28.1 3.1-36.7-7.5-7.9-10.4-8.4-24.6-5.5-36.8 2.4-10 10.6-18.4 20.7-20.3zm3.9 14.1c-6.6 2-8.2 9.6-8.6 15.6-.4 6.8.1 14.8 5 19.9 5.4 5.8 16.2 3.5 18.9-3.8 3-8.2 2.9-17.3-.1-25.5-2.1-5.9-9.5-8.6-15.2-6.2z" fill="#fff"/><path d="M226.4 178.3c12.6-1.4 25.4-2.5 38.2-1 6.5.9 13.5 3 18 8.3 5.5 6 5.6 15.1 3 22.5-2.2 6.1-8.1 9.2-13.1 12.4 5.1 2 10.9 4 14 9 7.4 11.5 3 28.9-9.5 34.8-15.6 7.8-33.8 5-50.5 3.5-.4-29.9-.1-59.7-.1-89.5zm17.5 13.6c-.4 7.9-.4 15.9-.2 23.8 7.3-.1 15.8.6 21.6-4.9 5.7-4.1 5.2-14.3-1.5-17.1-6.2-3-13.2-1.7-19.9-1.8zm-.2 37.9c-.1 8-.1 16 0 24 7.9.4 17 1.8 23.8-3.3 5.8-4.2 5.8-14.5-.6-18-7.2-3.9-15.5-2.5-23.2-2.7zm63.1-52.2c6.1-3 15.8-.3 16.6 7.4.2 10-15.3 12.9-20.3 5.1-2.9-4.1-.8-10.5 3.7-12.5zm32.2 14c5.7-1.5 11.3-3.1 17-4.7 0 5.6.1 11.2.1 16.7 5.3 0 10.6.1 15.8.3-.1 4.6-.1 9.2-.2 13.8-5.2.1-10.4.1-15.6.1.4 11.1-1 22.3.8 33.3 2 6.2 9.7 2.7 14.2 2.1l3 12.9c-8.4 3-17.8 5.8-26.4 2.3-6-2.2-8.2-8.9-8.5-14.7-.8-11.9-.1-23.8-.3-35.8-3 0-5.8 0-8.7.1-.2-4.8-.2-9.4-.2-14.2 3-.1 5.9-.1 8.9-.1-.1-4.1-.1-8.1.1-12.1zm-35 12.1c5.8-.1 11.5-.1 17.2 0v64.5H304v-64.5z" fill="#00a9d2"/></svg>