<svg viewBox="0 0 90 90" xmlns="http://www.w3.org/2000/svg"><g fill="none"><path fill="#FFF" d="M0 0h90v90H0z"/><path d="M48.834 47.416v4.582h-3.656c-4.187 0-6.76-2.573-6.76-6.796v-8.1h-3.442v-4.136h3.731l-.023-4.926 4.793-.04v4.966h5.25v4.137h-5.164v7.417c0 1.838 1.058 2.896 2.932 2.896h2.339Z" fill="#000"/><path d="m36.89 32.966-8.296 18.778c-2.281 5.16-4.286 7.114-8.557 7.114h-2.121V54.23h1.781c2.48 0 3.124-.66 4.293-3.537l.073-.155L16 32.966h5.6l5.077 11.708 4.74-11.708h5.473ZM77 50c0-1.773-1.246-3-3-3-1.755 0-3 1.227-3 3 0 1.772 1.245 3 3 3 1.754 0 3-1.228 3-3" fill="#00C66F"/><path d="M65.902 42.48c0-2.988-2.191-5.215-5.18-5.215-2.99 0-5.188 2.233-5.188 5.216s2.198 5.216 5.188 5.216c2.989 0 5.18-2.227 5.18-5.216Zm-4.76-10.053c5.731 0 9.97 4.287 9.97 10.054 0 5.761-4.239 10.084-9.97 10.084-1.972 0-3.76-.582-5.236-1.603v7.896h-5.145V32.966h3.402l.88 1.73c1.615-1.432 3.725-2.268 6.099-2.268Z" fill="#000"/></g></svg>