<svg xmlns="http://www.w3.org/2000/svg" viewBox="0 0 90 90"><path fill="#FFF" d="M0 0h90v90H0z"/><path d="M40.702 65.177c.797-.486 3.257-1.573 4.077-1.983 2.23-1.072 7.181-3.1 7.388-3.131-1.18.737-1.9 1.573-2 2.774-1.924.562-4.384 1.04-6.307 1.626-.384.13-2.744.638-3.158.714Z" fill="#2B95B4"/><path d="M54.543 35.196c-5.794-.023-12.2.129-17.972.129-.207 0 .207-.053 0 0-1.617-.053-3.234-.099-4.843-.175-.437 0-.843-.023-1.28-.023.95-1.884 2.514-3.23 4.1-4.522 2.897-2.34 6.254-3.685 9.97-3.815 7.051-.25 13.052 1.908 17.229 7.904.1.13.1.304.153.456h-.46c-2.253 0-6.843.053-6.897.053v-.007Z" fill="#FDA13B"/><path d="M46.19 20.452c-3.718-.023-6.768-3.025-6.798-6.71 0-3.71 3.073-6.765 6.874-6.742 3.794.023 6.82 3.048 6.767 6.817-.054 3.709-3.073 6.635-6.844 6.635Z" fill="#373737"/><path d="M40.702 65.223c0 2.569.1 6.202.1 8.77-.023-3.762-.077-7.524-.1-11.263-.023-3.359.92-6.353 3.694-8.443 1.257-.943 2.744-1.604 4.177-2.288.896-.433 1.9-.714 2.843-1.071 2.054-.79 3.073-2.235 3.05-4.446-.053-2.95-.023-5.928 0-8.877 0-.79.054-1.604.077-2.386.054 0 .13.076.176.053.023.304.023.532.054.836-.023 3.306-.077 6.581-.077 9.887 0 3.815.023 7.63.077 11.415 0 .38-.054.715 0 1.072-.897.51-1.694 1.072-2.59 1.573-.207.023-5.15 2.06-7.388 3.124-.843.41-4.1 2.036-4.1 2.036l.007.008Z" fill="#75D03B"/><path d="M36.341 51.24c0-2.44-.023-4.91-.023-7.35v-7.372c-.567-.129-1.126-.228-1.693-.357a55.46 55.46 0 0 1-2.798-.661c-.076-.023-1.356-.251-1.387-.38 1.617.053 4.514.152 6.131.205 0 4.932.023 9.888 0 14.82-.023.357-.153.714-.23 1.094Z" fill="#D1422A"/><path d="M50.16 62.86c0 2.925-.1 5.844.022 8.747.1 2.417-.49 4.575-1.54 6.688-.69 1.345-1.334 2.72-2.054 4.043-.437.79-1.694.912-2.1.152-1.51-2.72-3.15-5.388-3.663-8.542 0-2.569-.13-5.031-.1-7.6v-1.224c.69-.099 9.181-2.34 9.434-2.264Z" fill="#2AAAE0"/><path d="M61.44 35.044h.46c1.234 2.037 2.1 4.172 2.1 6.581v5.951c0 2.136-.567 4.12-1.487 6.027-.873 1.831-2.46 2.926-4.207 3.739-1.08.51-3.027 1.17-4.177 1.528-.054-.38.33-20.368.36-23.674 1.433.304 3.104.509 4.514.327.82-.1 1.617-.327 2.437-.487v.008Z" fill="#FDCE44"/><path d="M54.497 36.237v-1.041c2.253-.023 5.15-.152 7.41-.175-.796.175-2.076.486-2.896.585-1.41.205-3.104.487-4.514.639v-.008Z" fill="#E0AB36"/><path d="M53.263 49.795s.414-.456.536-.66c.13-.229.491-1.095.491-1.095.023 2.234-.176 8.595-.153 10.83-.177-.814-.72-7.676-.874-9.075Z" fill="#68BC31"/><path d="M30.417 35.12c.054.129 1.334.357 1.387.38.92.228 1.87.433 2.798.661.567.13 1.356.25 1.923.38v13.81c0 2.872-2.13 3.989-4 4.042-1.28.053-2.568.023-3.847 0-1.127-.023-1.64-.532-1.663-1.626-.077-4.142.13-8.292 1.103-12.335.514-1.885 1.127-3.739 2.307-5.312h-.008Z" fill="#E64627"/></svg>