<svg viewBox="0 0 90 90" xmlns="http://www.w3.org/2000/svg"><defs><linearGradient x1="10.272%" y1="78.368%" x2="72.924%" y2="41.116%" id="a"><stop stop-color="#905CFB" offset="0%"/><stop stop-color="#6677F8" offset="16.5%"/><stop stop-color="#3596F5" offset="37.8%"/><stop stop-color="#17A9F3" offset="54%"/><stop stop-color="#0CB0F2" offset="63.2%"/></linearGradient><linearGradient x1="65.74%" y1="63.965%" x2="2.01%" y2="12.055%" id="b"><stop stop-color="#905CFB" offset="0%"/><stop stop-color="#A554E6" offset="7.2%"/><stop stop-color="#D641B5" offset="25.2%"/><stop stop-color="#F43597" offset="39%"/><stop stop-color="#FF318C" offset="46.8%"/></linearGradient><linearGradient x1="10.769%" y1="70.571%" x2="159.872%" y2="-16.905%" id="c"><stop stop-color="#905CFB" offset="0%"/><stop stop-color="#6677F8" offset="16.5%"/><stop stop-color="#3596F5" offset="37.8%"/><stop stop-color="#17A9F3" offset="54%"/><stop stop-color="#0CB0F2" offset="63.2%"/></linearGradient></defs><g fill="none"><path d="M86.035 61.047c-.257-.257-16.846-16.203-16.846-16.203S81.79 31.47 85.135 28.126c.674-.675 1.813-2.058 2.572-3.344 4.629-7.844 1.928-17.875-5.916-22.504-5.787-3.344-12.988-2.83-18.132 1.028-.9.643-1.671 1.286-2.443 2.058-.386.514-17.875 16.46-33.05 30.35l28.42 18.003-29.834 33.564c-1.8 1.286-3.6 2.058-5.53 2.444.387 0 1.544.128 1.93 0 5.915-.9 55.553-9.516 57.996-10.03 2.958-.515 5.658-2.316 7.33-5.016 2.83-4.63 1.543-10.417-2.443-13.632Z" fill="url(#a)"/><path d="M59.03 39.186c-.514-3.472-2.314-6.302-4.887-8.36-2.7-2.057-23.532-23.661-25.847-26.105-3.6-3.472-8.745-5.4-14.017-4.5C5.277 1.505-1.024 9.993.391 18.995c.643 4.5 3.215 8.359 6.558 10.802 3.344 2.572 29.577 20.576 31.249 21.862 2.7 2.057 6.3 3.215 9.901 2.572 7.073-1.286 12.089-7.973 10.93-15.046Z" fill="url(#b)"/><path d="M29.582 87.154c.128 0 29.962-33.564 29.962-33.564l-30.09-19.033C18.78 44.331 8.877 53.204 6.563 55.39c-1.415 1.286-2.83 2.958-3.859 4.758a19.797 19.797 0 0 0 7.202 27.135c3.857 2.186 12.602 4.886 19.675-.129Z" fill="url(#c)"/><path fill="#000" d="M73.125 16.875h-56.25v56.25h56.25z"/><path fill="#FFF" d="M45 63.28H22.5v4.22H45zM31.433 45h4.632v-8.872L44.156 22.5h-5.264l-5.113 9.032-5.023-9.032h-5.412l8.09 13.628zm16.38-22.5v4.563h6.197V45h4.48V27.063h6.198V22.5z"/></g></svg>