<svg viewBox="0 0 90 90" xmlns="http://www.w3.org/2000/svg"><g fill="none" fill-rule="evenodd"><path d="M0 .002h89.998V90H0z"/><path d="M20.008 8.137H66.66L15.31 81.861H5.207a1.302 1.302 0 0 1-1.066-1.952l44.268-63.621a.378.378 0 0 0-.234-.587h-18.32a17.067 17.067 0 0 0-6.418 1.278C17.395 19.44 6.35 26.849.428 48.828c0 0-5.054-22.302 19.58-40.69ZM69.983 81.86H23.33L74.67 8.138h10.17a1.303 1.303 0 0 1 1.015 1.94L41.586 73.686a.394.394 0 0 0 .313.616l18.32-.08c2.157 0 4.3-.414 6.304-1.21 6.08-2.461 17.136-9.856 23.061-31.833-.018-.004 5.033 22.301-19.601 40.683Z" fill="#015EAC" fill-rule="nonzero"/></g></svg>