<svg viewBox="0 0 94 94" xmlns="http://www.w3.org/2000/svg"><g fill="#e6201a"><path d="M47 0a47 47 0 1047 47A47 47 0 0047 0zm0 86.44A39.44 39.44 0 1186.44 47 39.44 39.44 0 0147 86.44z"/><path d="M51.9 45.34L57 40.4 54.58 38a10.79 10.79 0 00-15.47.2L27.4 50.47a11.49 11.49 0 008.31 19.43H61a9.44 9.44 0 007.39-4 9.76 9.76 0 001.2-2.64s2.59-6.71-4.25-13.84l-5.52 4.9 1.28 1.56a4 4 0 01.46 4.38 4.48 4.48 0 01-4.06 2.48H36.62s-7.75-.69-2.62-7.94l11.37-11.63a3.28 3.28 0 014.06 0z"/><path d="M42.23 48.52l-5.06 4.94 2.38 2.38A10.8 10.8 0 0055 55.63l11.73-12.24A11.49 11.49 0 0058.42 24H33.14a9.43 9.43 0 00-7.39 4 9.76 9.76 0 00-1.2 2.64S22 37.31 28.8 44.44l5.52-4.9L33 38a4 4 0 01-.46-4.38 4.48 4.48 0 014.06-2.48h20.9s7.75.68 2.67 7.93L48.75 50.69a3.26 3.26 0 01-4 0z"/></g></svg>