<svg xmlns="http://www.w3.org/2000/svg" viewBox="0 0 2500 2500"><linearGradient id="a" gradientUnits="userSpaceOnUse" x1="487.64" y1="1704.59" x2="587.15" y2="1605.08" gradientTransform="matrix(17.8827 0 0 -17.8827 -8356.93 30846.03)"><stop offset="0" stop-color="#c38ae9"/><stop offset="1" stop-color="#7363ff"/></linearGradient><path d="M1250 0C561.5 0 0 561.5 0 1250s561.5 1250 1250 1250 1250-561.5 1250-1250S1938.5 0 1250 0zm0 2321.2c-590.1 0-1071.2-481-1071.2-1071.2S659.9 178.8 1250 178.8s1071.2 481 1071.2 1071.2S1840.1 2321.2 1250 2321.2z" fill="url(#a)"/><linearGradient id="b" gradientUnits="userSpaceOnUse" x1="495.44" y1="1712.4" x2="594.95" y2="1612.89" gradientTransform="matrix(17.8827 0 0 -17.8827 -8356.93 30846.03)"><stop offset="0" stop-color="#c38ae9"/><stop offset="1" stop-color="#7363ff"/></linearGradient><path d="M1588 629.5c-246.8-1.8-493.6-1.8-738.6 0-121.6 1.8-220 103.7-234.3 221.7-25 132.3 35.8 261.1 119.8 357.7 51.9-55.4 103.7-110.9 159.2-164.5-28.6-44.7-75.1-98.4-44.7-153.8 30.4-55.4 100.1-71.5 159.2-73.3 143.1-1.8 286.1 0 429.2 0 59 0 132.3 8.9 169.9 62.6 30.4 48.3 0 105.5-32.2 143.1-62.6 75.1-130.5 144.8-196.7 216.4-41.1 41.1-80.5 91.2-137.7 112.7-57.2 16.1-98.4-39.3-137.7-69.7-50.1 51.9-103.7 100.1-150.2 155.6 68 60.8 139.5 132.3 234.3 141.3 109.1 16.1 207.4-50.1 282.5-121.6 121.6-116.2 246.8-236.1 330.8-384.5 93-166.5-7.2-431.2-212.8-443.7z" fill="url(#b)"/><linearGradient id="c" gradientUnits="userSpaceOnUse" x1="478.34" y1="1695.29" x2="577.85" y2="1595.78" gradientTransform="matrix(17.8827 0 0 -17.8827 -8356.93 30846.03)"><stop offset="0" stop-color="#c38ae9"/><stop offset="1" stop-color="#7363ff"/></linearGradient><path d="M1550.4 1455.7c30.4 44.7 76.9 105.5 39.3 160.9-37.6 53.6-110.9 68-171.7 68-148.4-1.8-296.9 1.8-445.3-1.8-60.8-1.8-139.5-28.6-148.4-100.1 1.8-80.5 69.7-132.3 118-187.8 76.9-78.7 144.8-166.3 232.5-232.5 59-46.5 123.4 10.7 164.5 53.6 55.4-48.3 107.3-98.4 152-157.4-69.7-59-139.5-130.5-236.1-139.5-107.3-16.1-202.1 50.1-277.2 118-116.2 110.9-234.3 223.5-320.1 361.2-85.8 128.8-57.2 320.1 62.6 418.5 50.1 41.1 116.2 55.4 178.8 53.6 227.1-1.8 452.4 1.8 679.5 0 101.9 3.6 200.3-64.4 234.3-160.9 57.2-146.6-1.8-311.2-105.5-420.2-49.9 57.3-103.5 112.7-157.2 166.4z" fill="url(#c)"/></svg>