<svg viewBox="0 0 90 90" xmlns="http://www.w3.org/2000/svg"><defs><linearGradient x1="71.959%" y1="100.61%" x2="27.957%" y2="-.611%" id="a"><stop stop-color="#3E9ED8" offset="10.95%"/><stop stop-color="#CF4E95" offset="89.95%"/></linearGradient></defs><g fill="none"><path fill="#1F2227" d="M0 0h90v90H0z"/><path d="M8.613 59.21c-3.62.059-6.902-2.31-8.09-5.921-1.245-3.553-.113-7.52 2.772-9.77l37.962-30.67c1.697-1.302 2.376-3.67 1.64-5.743-.679-2.131-2.659-3.552-4.808-3.493H8.613c-2.15-.06-4.073 1.362-4.809 3.493-.735 2.072-.056 4.44 1.64 5.803l4.753 3.848c.736.592.849 1.717.283 2.487-.622.77-1.697.888-2.433.296l-4.752-3.85C.41 13.382-.722 9.415.466 5.921c1.245-3.61 4.47-5.98 8.147-5.92H38.09c3.62-.06 6.845 2.368 8.033 5.92 1.245 3.553.113 7.52-2.772 9.77L5.445 46.361c-1.697 1.303-2.376 3.671-1.64 5.743.678 2.132 2.658 3.553 4.808 3.494H38.09c2.15.059 4.073-1.362 4.808-3.494.736-2.072.057-4.44-1.64-5.743l-4.922-3.967c-.736-.592-.905-1.717-.34-2.486v-.06a1.745 1.745 0 0 1 2.49-.414l4.922 3.967c2.885 2.309 4.016 6.335 2.715 9.888-1.188 3.552-4.413 5.92-7.977 5.92H8.613Zm-3.281-25.4c-.51 0-1.019-.238-1.358-.652-.51-.77-.396-1.836.283-2.428l20.536-16.578h-7.92c-.962.118-1.81-.592-1.924-1.599-.113-1.006.566-1.894 1.528-2.013h11.937c.962 0 1.754.592 2.094 1.54a2.223 2.223 0 0 1-.736 2.546L6.294 33.395c-.283.236-.623.355-.962.414Zm12.786 14.8c-.962 0-1.754-.592-2.094-1.54-.339-.947 0-1.953.736-2.545l23.422-18.947c.735-.592 1.867-.474 2.432.296.623.77.51 1.895-.226 2.487-.056.06-.113.06-.113.118L21.738 45.06h7.242c.962-.119 1.81.592 1.924 1.598.113 1.007-.566 1.895-1.528 2.013h-.396l-10.862-.059Z" transform="translate(21.553 15.395)" fill="url(#a)"/></g></svg>