<svg xmlns="http://www.w3.org/2000/svg" viewBox="0 0 90 90"><path fill="#FFF" d="M0 0h90v90H0z"/><path d="m29.952 52.634-12.823 4.6-.195 10.71 19.59-7.036c-3.243-2.514-5.378-5.025-6.58-8.274h.008Z" fill="#FFCE32"/><path d="m29.952 52.634-12.823 4.6-.195 10.71 19.59-7.036c-3.243-2.514-5.378-5.025-6.58-8.274h.008Z" fill="#FAAB3C" opacity=".5"/><path d="m10 49.157 7.129 8.082 12.815-4.605c-1.33-3.614-1.498-7.236-.533-10.446L10 49.158Z" fill="#EC6623"/><path d="m10 49.157 7.129 8.082 12.815-4.605c-1.33-3.614-1.498-7.236-.533-10.446L10 49.158Z" fill="#FAAB3C" opacity=".7"/><path d="M44.093 29.145c-16.18 5.81-26.614 17.797-23.3 26.777l58.594-21.04c-3.31-8.978-19.115-11.55-35.294-5.737Z" fill="#FFCE32"/><path d="M56.083 61.658c16.18-5.81 26.633-17.745 23.296-26.777L20.79 55.922c3.333 9.032 19.119 11.547 35.298 5.736h-.004Z" fill="#EC6623"/><path d="M54.084 56.24c16.18-5.814 27.567-15.219 25.3-21.359l-58.6 21.041c2.268 6.14 17.117 6.13 33.3.315v.004Z" fill="#FAAB3C" opacity=".7"/><path d="M46.092 34.563c-16.18 5.81-27.567 15.22-25.3 21.36L79.388 34.88c-2.263-6.14-17.112-6.129-33.291-.314l-.004-.004Z" fill="#FAAB3C" opacity=".5"/><path d="M64.488 68.51c-1.727 0-4.27-1.533-7.561-4.55-3.897-3.57-8.358-8.8-12.562-14.728-4.208-5.924-7.662-11.848-9.735-16.68-2.255-5.265-2.578-8.506-.956-9.626a2.193 2.193 0 0 1 1.275-.369c1.319 0 3.89.967 8.634 5.563l.105.098-.011.146c-.035.33-.063.663-.09.99l-.054.648-.467-.46c-5.118-5.068-7.37-5.618-8.101-5.618a.868.868 0 0 0-.494.126c-.704.483-.747 2.864 1.439 7.967 2.03 4.746 5.437 10.576 9.59 16.43 4.15 5.853 8.545 11.003 12.368 14.512 4.127 3.783 5.99 4.187 6.596 4.187a.88.88 0 0 0 .506-.13c.739-.51.739-3.06-1.696-8.552l-.113-.255.245-.13.708-.385.292-.165.136.307c1.727 3.889 3.345 8.839 1.225 10.304a2.21 2.21 0 0 1-1.283.37h.004Z" fill="#ED6724"/><path d="m56.476 61.493-.023.303c-.409 4.973-1.486 10.956-4.294 11.196a1.943 1.943 0 0 1-.175.008c-1.906 0-3.714-2.687-5.367-7.987-1.56-5.013-2.773-11.742-3.411-18.951-.642-7.205-.63-14.045.023-19.25.724-5.67 2.085-8.635 4.053-8.8.06-.007.119-.01.179-.012 1.384 0 3.469 1.54 5.6 8.714l-1.392.263c-.712-2.397-1.49-4.345-2.26-5.685-.715-1.241-1.408-1.925-1.952-1.925l-.055.008c-.855.075-2.1 2.114-2.792 7.61-.646 5.115-.653 11.848-.023 18.963.63 7.11 1.824 13.746 3.36 18.668.684 2.2 1.439 4.023 2.178 5.257.68 1.135 1.342 1.76 1.859 1.76h.05c.817-.07 2.361-2.192 3.01-9.653l1.432-.483v-.004Z" fill="#ED6724"/></svg>