<svg viewBox="0 0 90 90" xmlns="http://www.w3.org/2000/svg"><g fill="none"><path fill="#FFF" d="M0 0h90v90H0z"/><path d="M13.144 52.258h1.98c.088 0 .146.03.176.118l.727 1.18a.272.272 0 0 1-.058.325c-.03.03-.087.03-.116.03h-5.62a.228.228 0 0 1-.166-.069.234.234 0 0 1-.067-.168v-1.003c0-.058.029-.118.058-.147l2.883-3.363c.087-.088.058-.236-.03-.324a.22.22 0 0 0-.145-.06H10.35a.228.228 0 0 1-.166-.067.234.234 0 0 1-.067-.168v-1.18c0-.118.087-.236.233-.236h5.357a.23.23 0 0 1 .233.236v.973a.228.228 0 0 1-.058.148l-2.883 3.363c-.087.088-.058.235.03.324.028.059.057.088.115.088" fill="#171E25"/><path d="M20.54 49.928a.231.231 0 0 0 .233-.236v-.03a1.196 1.196 0 0 0-1.252-1.09c-.64 0-1.165.442-1.31 1.061-.03.118.029.236.145.295h2.185Zm2.068 1.18h-4.135c-.117 0-.233.089-.233.207 0 .029 0 .058.03.088.237.596.821.974 1.455.944.524 0 1.02-.207 1.427-.531.087-.089.204-.089.29 0l.816.826a.234.234 0 0 1 0 .324c-.757.679-1.717 1.062-2.737 1.032-1.921 0-3.203-1.091-3.464-2.772-.408-2.625 1.543-4.425 4.105-4.041 1.805.295 2.708 1.681 2.65 3.746 0 .059-.088.147-.204.177Zm3.261-3.127c.375-.47.9-.794 1.485-.914.116-.03.233.059.262.206v1.475a.232.232 0 0 1-.233.236c-1.106-.03-1.805.56-1.922 1.445v3.216a.232.232 0 0 1-.233.236H23.54a.228.228 0 0 1-.165-.068.234.234 0 0 1-.068-.168V47.39c0-.118.088-.236.233-.236h1.69c.116 0 .232.089.232.236v.472c0 .118.117.236.233.236.088-.03.146-.059.175-.118m3.698 2.567c0 1.032.611 1.74 1.485 1.74.873 0 1.485-.708 1.485-1.74 0-1.033-.612-1.74-1.485-1.74-.874 0-1.485.678-1.485 1.74m5.124-.03c0 2.065-1.455 3.422-3.61 3.422s-3.64-1.357-3.64-3.422c0-2.065 1.456-3.421 3.64-3.421s3.61 1.356 3.61 3.421m7.92-.059c0-1.032-.611-1.74-1.484-1.74-.874 0-1.456.737-1.456 1.74 0 1.003.611 1.77 1.455 1.77.845 0 1.485-.737 1.485-1.77m2.155.06c0 2.034-1.194 3.391-3.057 3.391a2.6 2.6 0 0 1-1.66-.59c-.087-.088-.233-.058-.32.03a.227.227 0 0 0-.058.147v.118a.232.232 0 0 1-.233.236h-1.69a.228.228 0 0 1-.165-.068.234.234 0 0 1-.067-.168v-8.79c0-.117.087-.236.233-.236h1.689c.116 0 .233.089.233.236v2.625a.23.23 0 0 0 .232.236.224.224 0 0 0 .146-.058 2.502 2.502 0 0 1 1.601-.59c1.864 0 3.116 1.386 3.116 3.48" fill="#171E25"/><path d="M46.833 50.548c0 1.032.612 1.74 1.485 1.74.874 0 1.485-.708 1.485-1.74 0-1.033-.612-1.74-1.485-1.74-.873 0-1.485.678-1.485 1.74m5.096-.03c0 2.065-1.456 3.422-3.61 3.422-2.068 0-3.64-1.475-3.64-3.422 0-2.065 1.455-3.421 3.64-3.421 2.183 0 3.61 1.356 3.61 3.421m6.93 1.829-1.69 1.239a.235.235 0 0 1-.32-.059c-.028-.03-.028-.089-.028-.118 0-.118-.117-.236-.233-.236a.41.41 0 0 0-.175.059 2.33 2.33 0 0 1-1.777.678c-1.426 0-2.358-1.003-2.358-2.566v-4.012c0-.117.087-.235.204-.235h1.689a.23.23 0 0 1 .233.235v3.392c0 .797.437 1.269 1.106 1.269.815 0 1.282-.678 1.282-1.593v-3.067c0-.118.087-.236.203-.236h1.689a.23.23 0 0 1 .233.235v4.808c.029.09 0 .148-.058.207m7.89-2.714v4.012a.231.231 0 0 1-.233.236h-1.66a.228.228 0 0 1-.165-.069.235.235 0 0 1-.067-.167v-3.422c0-.796-.466-1.268-1.165-1.268-.786 0-1.252.56-1.339 1.356v3.098a.231.231 0 0 1-.233.236c-.058 0-.088-.03-.146-.03l-1.689-1.239c-.058-.03-.087-.118-.087-.176v-4.81c0-.118.087-.236.233-.236h1.689c.116 0 .233.089.233.236v.206a.23.23 0 0 0 .232.236.22.22 0 0 0 .146-.058c.495-.473 1.165-.709 1.834-.709 1.456 0 2.417 1.003 2.417 2.567m6.551-.914-1.164.708c-.087.059-.204.03-.292-.03a1.648 1.648 0 0 0-1.222-.56c-.816 0-1.398.678-1.398 1.681 0 1.003.582 1.71 1.398 1.71.495.03.96-.206 1.252-.59a.224.224 0 0 1 .291-.058l1.165.708a.212.212 0 0 1 .087.295c-.582.855-1.602 1.357-2.882 1.357-2.039 0-3.407-1.357-3.407-3.422 0-2.065 1.397-3.45 3.436-3.45 1.223 0 2.212.47 2.824 1.297.029.147 0 .265-.088.354" fill="#171E25"/><path d="M77.727 49.928a.231.231 0 0 0 .232-.236v-.03a1.196 1.196 0 0 0-1.252-1.09c-.64 0-1.164.442-1.31 1.061-.029.118.03.236.146.295h2.184Zm2.067 1.18h-4.135c-.116 0-.233.089-.233.207 0 .029 0 .058.03.088.237.596.821.974 1.455.944.524 0 1.02-.207 1.427-.531.087-.089.204-.089.291 0l.815.826a.234.234 0 0 1 0 .324c-.757.679-1.717 1.062-2.737 1.032-1.921 0-3.203-1.091-3.464-2.772-.408-2.625 1.543-4.425 4.105-4.041 1.805.295 2.708 1.681 2.65 3.746 0 .059-.088.177-.204.177Z" fill="#171E25"/><path d="M15.037 38.572c6.115-1.592 16.48-2.743 20.324 6.076.058.118.175.177.291.118.058-.03.117-.088.117-.147.291-1.121 1.455-3.127 5.765-4.72.116-.058.233 0 .291.118.058.118 0 .236-.116.295-2.038 1.18-4.892 3.186-5.882 5.604 0 0-.058.296-.204.03 0 0-4.658-9.586-20.498-6.961-.117 0-.204-.118-.204-.236 0-.059.058-.118.116-.177" fill="#FBDD46"/><path d="m52.715 35.357-2.446 2.537a.225.225 0 0 1-.233.058l-3.232-1.356c-.116-.06-.174-.177-.116-.295a.3.3 0 0 1 .174-.148l5.65-1.18c.115-.03.232.03.26.148a.231.231 0 0 1-.057.236m-6.23 5.958-.875-4.306c-.03-.118.058-.236.174-.266h.117l4.193 1.77c.087.03.174.03.233-.059l3.203-3.274a.226.226 0 0 1 .32 0c.03.03.059.059.059.118l.67 3.156-.38-4.247c0-.118-.116-.207-.232-.207h-.03l-8.822 1.829c-.116.03-.203.147-.174.265l1.164 5.782c.029.118.146.206.262.177l8.298-1.711-7.919 1.15c-.116 0-.233-.059-.262-.176" fill="#171E25"/></g></svg>