<svg xmlns="http://www.w3.org/2000/svg" viewBox="0 0 90 90"><rect width="90" height="90" fill="#FFF"/><g transform="translate(2 38)"><polygon fill="#3D4543" points="11.95 13.89 0 13.89 0 12.11 7.34 3.67 8.54 2.52 8.54 2.47 .17 2.47 .17 .23 11.9 .23 11.9 2.01 4.61 10.44 3.41 11.65 3.41 11.7 11.95 11.7"/><polygon fill="#3D4543" points="38.99 13.89 35.91 13.89 33.01 10.1 32.21 8.78 32.16 8.78 31.36 10.1 28.46 13.89 25.44 13.89 30.68 7.06 25.56 .23 28.63 .23 31.59 4.13 32.27 5.28 32.33 5.28 33.01 4.13 35.97 .23 38.99 .23 33.81 7.06"/><polygon fill="#3D4543" points="51.22 2.47 46.5 2.47 46.5 13.89 44.05 13.89 44.05 2.47 39.39 2.47 39.39 .23 51.22 .23"/><path fill="#F32735" d="M13.8305758.229508197L8.7081403 11.3032787 7.68365321 9.29508197C7.34215751 8.60655738 6.71608206 8.03278689 6.26075447 7.86065574L6.26075447 7.80327869C7.51290536 7.2295082 8.65122435 5.96721311 8.65122435 4.41803279 8.65122435 1.54918033 6.31767042.229508197 3.69953673.229508197L0 .229508197 0 2.46721311 3.69953673 2.46721311C5.23626737 2.46721311 6.20383852 3.04098361 6.20383852 4.41803279 6.20383852 5.50819672 5.35009927 6.36885246 3.52878888 6.36885246L0 6.36885246 0 8.60655738 2.39046989 8.60655738C4.04103243 8.60655738 4.89477167 9.12295082 5.46393117 10.3278689L7.28524156 13.942623 10.131039 13.942623 11.6108537 10.6721311 18.156188 10.6721311 19.6360026 13.942623 22.3110523 13.942623 16.1072138.229508197 13.8305758.229508197zM17.4162806 8.43442623L12.5784249 8.43442623 12.7491727 8.20491803 14.9688948 3.2704918 15.0258107 3.2704918 17.2455328 8.20491803 17.4162806 8.43442623zM29.9947055 6.13934426C29.6532098 6.08196721 28.1164792 5.62295082 27.8318994 5.56557377 25.4983455 4.93442623 24.87227 4.47540984 24.87227 3.8442623 24.87227 3.1557377 25.6690933 2.23770492 28.1164792 2.23770492 29.7670417 2.23770492 31.0191926 2.86885246 32.0436797 4.07377049L33.8080741 2.29508197C32.3282594.745901639 30.3931171-2.54805284e-16 28.1164792-2.54805284e-16 24.3031105-2.54805284e-16 22.3679682 1.77868852 22.3679682 3.90163934 22.3679682 6.13934426 24.3600265 7 26.8074123 7.68852459 27.0919921 7.74590164 29.0271343 8.26229508 29.3117141 8.31967213 31.0761085 8.77868852 31.645268 9.46721311 31.645268 10.0983607 31.645268 10.9590164 30.7346128 11.8196721 28.2303111 11.8196721 26.6366645 11.8196721 25.3845136 11.3606557 23.733951 9.86885246L21.9695566 11.5901639C23.733951 13.3114754 26.010589 14 28.287227 14 32.4420913 14 34.0926539 12.0491803 34.0926539 9.92622951 34.0357379 8.26229508 32.783587 6.82786885 29.9947055 6.13934426z" transform="translate(51.9)"/><g fill="#3D4543" transform="translate(13.38 .23)"><rect width="10.19" height="2.24" y="5.74"/><rect width="10.98" height="2.24" y="11.48"/><rect width="10.98" height="2.24"/></g></g></svg>