<svg viewBox="0 0 90 90" xmlns="http://www.w3.org/2000/svg"><path d="M90 19.91v40.38c0 5.053-5.105 9.75-10.72 9.75V29.71c0-5.053 5.105-9.8 10.72-9.8ZM20.981 65.65c1.379 3.113 3.676 4.44 7.913 4.44H69.58c-.204-3.93-2.807-9.903-9.444-10.72H36.5l27.21-26.035c1.174-1.072 3.726-4.798 1.888-8.831-1.48-3.216-3.93-4.595-8.27-4.595H23.432c.153 4.493 2.399 9.853 8.32 10.823H51.1L22.462 57.635c-1.072 1.123-3.012 4.543-1.48 8.014Zm63.097 10.822c1.021 1.072 1.583 2.4 1.583 3.778 0 1.633-.715 2.96-1.583 3.777-1.582 1.583-3.777 3.267-6.585 4.442-2.4.97-5.003 1.531-7.76 1.531H20.267c-5.616 0-10.67-2.246-14.294-5.922C2.246 80.403 0 75.348 0 69.733V20.267C0 14.65 2.246 9.597 5.922 5.973 9.597 2.246 14.652 0 20.267 0h49.517c2.757 0 5.36.562 7.76 1.531 3.267 1.379 5.36 3.012 7.402 5.208.817.867 1.583 2.144 1.583 3.777 0 1.378-.51 2.757-1.583 3.778a5.38 5.38 0 0 1-3.778 1.582 5.38 5.38 0 0 1-3.777-1.582c-1.43-1.43-2.195-2.144-3.829-2.859-1.123-.46-2.4-.766-3.726-.766H20.267a9.537 9.537 0 0 0-6.739 2.808c-1.736 1.736-2.808 4.084-2.808 6.739v49.518c0 2.654 1.072 5.002 2.808 6.738 1.736 1.736 4.084 2.808 6.739 2.808h49.517a9.187 9.187 0 0 0 3.727-.766 10.248 10.248 0 0 0 3.063-2.093 5.38 5.38 0 0 1 3.778-1.583c1.327.051 2.705.562 3.726 1.634Z" fill="#F48C00"/></svg>