<svg xmlns="http://www.w3.org/2000/svg" viewBox="0 0 90 90"><path d="M0 0h90v90H0z"/><path fill="#0074E4" d="M0 0h90v90H0z"/><path fill="#fff" d="M60.7 62.73C39.01 64.03 15.45 71.9 12.96 73l2.9-8.17c7.34-3.4 25.62-10.15 48.1-11.76-.2.8-.86 2.64-1.54 4.53-.73 2.05-1.5 4.17-1.74 5.13Zm-31-32.7C35.91 25.32 44.77 18.58 48.15 17c2.14 1.05 10.06 6.46 12.88 8.45-9.03.21-26.65 4.13-33.99 6.59l2.64-2Zm33.02-3.4S40.85 48.7 37.42 51.85c6.66-2.41 20.28-5.28 28.94-5.8 1-3.08 2.06-5.3 2.06-5.3L80 39.57s-8.8-7.13-17.28-12.95ZM48.4 32.38S23.6 55.34 16.73 62.46l5.69-15.48-.92.13c-3.8.56-5.89.86-11.5 2.06l7.23-7.46c4.81-2.2 18.27-6.3 31.17-9.33Z"/></svg>