<svg xmlns="http://www.w3.org/2000/svg" viewBox="0 0 90 90"><path fill="#0074E4" d="M0 0h90v90H0z"/><path d="M27.054 32.039c7.334-2.454 24.956-6.374 33.985-6.588a321.104 321.104 0 0 0-5.986-4.106l-.71-.475c-2.602-1.732-5.118-3.346-6.188-3.87-3.885 1.812-15.075 10.487-21.101 15.039Zm10.368 19.813c6.655-2.413 20.28-5.284 28.933-5.803 1.004-3.075 2.07-5.305 2.07-5.305L80 39.584s-5.114-4.15-11.303-8.699l-.612-.449a256.06 256.06 0 0 0-1.555-1.127l-.63-.451-.315-.226-.634-.45-.318-.223-.636-.446c-.425-.296-.85-.59-1.274-.881l-.026.026-.076.077c-.81.816-6.286 6.335-11.972 12.03l-.712.713-.355.356-1.773 1.773c-4.693 4.69-9.016 8.979-10.387 10.245Zm-20.696 10.61c.345-.356.734-.752 1.162-1.182l.533-.532c3.307-3.293 8.545-8.286 13.724-13.17l.863-.813c7.893-7.435 15.39-14.38 15.39-14.38-1.586.372-3.182.76-4.769 1.16l-1.188.301c-10.874 2.78-21.139 6.004-25.208 7.865L10 49.175c6.046-1.293 7.994-1.548 12.417-2.2l-5.69 15.487ZM12.972 73c2.486-1.1 26.053-8.97 47.722-10.273.467-1.833 2.84-7.983 3.277-9.653-22.481 1.609-40.762 8.35-48.107 11.76L12.972 73Z" fill="#FFF"/></svg>