<svg viewBox="0 0 90 90" xmlns="http://www.w3.org/2000/svg"><g fill="none"><path fill="#3944EB" d="M0 0h90v90H0z"/><path d="m51.07 41.175 7.578-16.278a2.686 2.686 0 0 0-2.472-3.814H32.422a2.77 2.77 0 0 0-2.472 1.612l-8.625 18.48a2.713 2.713 0 0 0 2.472 3.841H36.48a2.69 2.69 0 0 1 2.714 2.497c.032.452-.052.906-.242 1.318l-7.604 16.277a2.712 2.712 0 0 0 2.472 3.815h23.753a2.744 2.744 0 0 0 2.472-1.612l8.625-18.48a2.69 2.69 0 0 0-.183-2.59 2.687 2.687 0 0 0-2.289-1.225H53.542a2.714 2.714 0 0 1-2.472-3.841Z" fill="#FFF"/></g></svg>