<svg xmlns="http://www.w3.org/2000/svg" viewBox="0 0 90 90"><rect width="90" height="90" fill="#FFF" opacity="0"/><g transform="translate(7)"><path fill="#0B74E7" d="M67.5201005,1.2513369 C60.361809,0.673796791 49.9145729,0 38.5,0 C27.0854271,0 16.5414573,0.673796791 9.4798995,1.2513369 C4.06281407,1.73262032 0,6.16042781 0,11.5508021 L0,53.9037433 C0,74.4064171 38.5,90 38.5,90 C38.5,90 77,74.4064171 77,53.9037433 L77,11.5508021 C77,6.25668449 72.8404523,1.73262032 67.5201005,1.2513369 Z M58.1369347,20.1176471 L51.7525126,27.144385 L51.2688442,37.0588235 L40.4346734,46.973262 L37.5326633,58.6203209 L36.2751256,73.3475936 C36.0816583,73.0588235 33.1796482,67.9572193 33.1796482,67.9572193 L32.2123116,57.9465241 L32.2123116,49.7647059 L34.0502513,38.4064171 L28.2462312,35.6149733 L19.830402,27.144385 L5.99748744,20.2139037 L24.4736181,20.2139037 L39.951005,25.4117647 L43.9170854,18.2887701 L52.6231156,16.3636364 L57.169598,17.5187166 L70.1319095,15.7860963 L58.1369347,20.1176471 Z"/><path fill="#FFF" d="M58.1369347,20.1176471 L51.7525126,27.144385 L51.2688442,37.0588235 L40.4346734,46.973262 L37.5326633,58.6203209 L36.2751256,73.3475936 C36.0816583,73.0588235 33.1796482,67.9572193 33.1796482,67.9572193 L32.2123116,57.9465241 L32.2123116,49.7647059 L34.0502513,38.4064171 L28.2462312,35.6149733 L19.830402,27.144385 L5.99748744,20.2139037 L24.4736181,20.2139037 L39.951005,25.4117647 L43.9170854,18.2887701 L52.6231156,16.3636364 L57.169598,17.5187166 L70.1319095,15.7860963 L58.1369347,20.1176471 Z"/></g></svg>