<svg viewBox="0 0 90 90" xmlns="http://www.w3.org/2000/svg"><g fill="none" fill-rule="evenodd"><path fill="#FFF" fill-rule="nonzero" d="M0 0h90v90H0z"/><path d="m48.372 21.004 19.91 14.814c3.926 2.92 1.86 9.154-3.03 9.154h-7.307c-1.38 0-1.961 1.758-.855 2.581l3.883 2.889c2.664 1.982 1.262 6.214-2.058 6.214H31.884c-3.32 0-4.723-4.232-2.058-6.214l3.882-2.889c1.107-.823.524-2.58-.855-2.58H25.43c-4.891 0-6.956-6.236-3.032-9.155l19.91-14.814a5.08 5.08 0 0 1 6.064 0Zm5.175 45.722-7.122-5.3a1.817 1.817 0 0 0-2.17 0l-7.121 5.3C35.73 67.77 36.469 70 38.218 70h14.244c1.75 0 2.489-2.23 1.085-3.274Z" fill="#000"/></g></svg>