<svg viewBox="0 0 90 90" xmlns="http://www.w3.org/2000/svg"><defs><linearGradient x1="100%" y1="0%" x2="0%" y2="100%" id="a"><stop stop-color="#378DEB" offset="0%"/><stop stop-color="#0B5CFF" offset="39.707%"/><stop stop-color="#0043BE" offset="100%"/></linearGradient></defs><g fill="none" fill-rule="evenodd"><path fill="#2D8CFF" d="M0 0h90v90H0z"/><path d="M19 32.411v18.895c.017 4.272 3.534 7.71 7.823 7.694h27.759c.789 0 1.424-.63 1.424-1.396V38.71c-.018-4.272-3.535-7.71-7.824-7.694H20.424c-.79 0-1.424.63-1.424 1.396Zm38.773 7.37 11.46-8.306c.995-.817 1.767-.613 1.767.868v25.33c0 1.684-.944 1.48-1.767.867l-11.46-8.29V39.782Z" fill="#FFF"/><path fill="url(#a)" d="M0 0h90v90H0z"/><path d="M26.422 52.803h-11.38a2.032 2.032 0 0 1-1.822-1.1 2.093 2.093 0 0 1 .36-2.38l7.898-8.17h-5.652c-1.56 0-2.825-1.304-2.825-2.913h10.49a2.032 2.032 0 0 1 1.822 1.1c.394.79.249 1.752-.36 2.38l-7.926 8.17h6.57c1.56 0 2.825 1.305 2.825 2.913ZM71.497 38a5.44 5.44 0 0 0-4.104 1.908A5.44 5.44 0 0 0 63.29 38c-3.063.083-5.504 2.667-5.503 5.825v8.978c1.56 0 2.826-1.304 2.826-2.912v-6.124c-.022-1.51 1.115-2.769 2.578-2.854a2.646 2.646 0 0 1 1.988.76c.534.522.837 1.247.838 2.007v6.189c0 1.609 1.265 2.913 2.825 2.913v-9.015c-.022-1.497 1.095-2.75 2.543-2.854a2.647 2.647 0 0 1 1.965.773c.526.521.824 1.241.825 1.994v6.189c0 1.609 1.265 2.913 2.826 2.913v-8.957c.001-3.158-2.44-5.742-5.503-5.825Zm-30.806 7.522c-.011 4.14-3.274 7.486-7.29 7.478-4.015-.008-7.265-3.368-7.261-7.507.004-4.14 3.26-7.493 7.276-7.493a7.175 7.175 0 0 1 5.15 2.207 7.627 7.627 0 0 1 2.125 5.315Zm-2.825 0c0-1.856-1.084-3.528-2.747-4.238a4.354 4.354 0 0 0-4.85.994c-1.273 1.312-1.654 3.285-.965 5 .689 1.714 2.312 2.831 4.112 2.831 2.456-.004 4.446-2.055 4.45-4.587Zm18.507 0c-.011 4.14-3.274 7.486-7.29 7.478-4.015-.008-7.265-3.368-7.261-7.507.004-4.14 3.26-7.493 7.275-7.493a7.175 7.175 0 0 1 5.15 2.207 7.627 7.627 0 0 1 2.126 5.315Zm-2.825 0c0-1.856-1.085-3.528-2.747-4.238a4.354 4.354 0 0 0-4.85.994c-1.273 1.312-1.654 3.285-.965 5 .689 1.714 2.312 2.831 4.111 2.831 2.457-.004 4.447-2.055 4.45-4.587Z" fill="#FFF" fill-rule="nonzero"/></g></svg>