<svg viewBox="0 0 90 90" xmlns="http://www.w3.org/2000/svg"><g fill="none"><path fill="#F44238" d="M0 0h90v90H0z"/><path d="M54.7 24.545h10.042c.396 0 .716.323.716.722v9.7a.719.719 0 0 1-.708.729h-2.848a.718.718 0 0 1-.717-.722v-2.995L30.912 61.147h6.226c.396 0 .716.322.716.722v2.863c0 .4-.32.722-.716.722H25.265a.718.718 0 0 1-.716-.722V61.16l33.555-32.31h-3.403a.718.718 0 0 1-.716-.722v-2.86c0-.399.32-.722.716-.722ZM28.819 28.74h19.076a.718.718 0 0 0 .716-.722v-2.75a.719.719 0 0 0-.712-.722H25.265a.718.718 0 0 0-.716.722v9.817c0 .399.32.721.716.721h2.84a.719.719 0 0 0 .713-.721V28.74Zm32.367 32.408H43.93a.718.718 0 0 0-.716.722v2.863c0 .4.32.722.716.722h20.812a.718.718 0 0 0 .716-.722V54.61a.721.721 0 0 0-.716-.722h-2.84a.718.718 0 0 0-.717.722v6.538Z" fill="#FFF"/></g></svg>