<svg viewBox="0 0 90 90" xmlns="http://www.w3.org/2000/svg"><g fill="#236BF5"><path d="M88.827 45.988c1.422 8.796-6.16 13.751-13.83 14.263-4.89 10.243-22.11 17.017-37.032 9.642-6.35.986-9.892-.628-12.585-3.7 5.461-7.081 21.983-19.834 42.175-13.252 10.782 3.508 13.576-4.738 10.858-7.836-10.16-11.639-33.133-1.153-33.945-.282 9.016-13.905 41.273-17.81 44.359 1.165Z"/><path d="M57.904 29.996s-7.353-2.65-17.665 1.857l-1.27-.538c9.981-6.658 18.693-9.475 26.148-8.374-4.508-5.236-26.186-9.09-38.594 3.457C11.183 23.351.44 36.462 1.023 48.434c.584 11.971 13.6 19.5 20.98 17.413a1.83 1.83 0 0 1 .533 0c1.638-7.913 8.318-26.325 35.368-35.85Z"/></g></svg>