<svg xmlns="http://www.w3.org/2000/svg" viewBox="0 0 90 90"><path fill="#103426" d="M0 0h90v90H0z"/><path d="M61.656 69H31.761c-1.56 0-2.88-.94-3.424-2.35-.543-1.41-.063-2.995 1.144-3.935l6.663-5.345H23.657c-1.56 0-2.88-.94-3.424-2.35-.543-1.41-.12-2.938 1.08-3.934L34.218 40.57c1.08-.883 2.64-.708 3.543.295.904 1.059.72 2.588-.303 3.465l-9.954 8.158h14.824l20.168-16.097H28.4c-2.223 0-4.32-.884-5.943-2.406-1.56-1.53-2.4-3.584-2.4-5.759 0-2.174.84-4.23 2.463-5.815A8.406 8.406 0 0 1 28.4 20h29.05c1.56 0 2.88.94 3.423 2.35.543 1.41.063 2.938-1.143 3.935l-6.481 5.232h13.088c1.56 0 2.88.94 3.423 2.35.537 1.41.063 2.995-1.137 3.935L50.192 52.489h11.464c2.223 0 4.32.884 5.88 2.406C69.097 56.425 70 58.48 70 60.71v.12c0 2.173-.84 4.229-2.463 5.814-1.56 1.535-3.664 2.356-5.88 2.356Zm-25.992-4.875h25.992a3.59 3.59 0 0 0 2.4-.94c.657-.645.96-1.466.96-2.35v-.119c0-.883-.36-1.704-.96-2.35-.663-.645-1.503-.94-2.4-.94H44.065l-8.4 6.7ZM28.4 24.875a3.59 3.59 0 0 0-2.4.94c-.663.645-.96 1.466-.96 2.35 0 .883.36 1.704.96 2.35.663.645 1.504.94 2.4.94h16.985l8.224-6.58H28.4Z" fill="#00D2B9"/></svg>