<svg viewBox="0 0 90 90" xmlns="http://www.w3.org/2000/svg"><g fill="none"><path d="M60.299 50.655 49.72 63.28l19.907 23.742a8.09 8.09 0 0 0 7.646 2.858 8.112 8.112 0 0 0 6.25-5.265 8.154 8.154 0 0 0-1.483-8.051l-21.741-25.91ZM82.04 13.402c2.89-3.444 2.45-8.586-.981-11.486a8.104 8.104 0 0 0-11.446.985L49.706 26.642l10.579 12.641L82.04 13.402Zm-55.852-3.367-.086-.114L20.33 2.9a8.086 8.086 0 0 0-11.356-.926c-3.4 2.864-3.87 7.94-1.057 11.384L34.378 44.99 7.916 76.565a8.172 8.172 0 0 0-1.434 8.022 8.13 8.13 0 0 0 6.206 5.257 8.107 8.107 0 0 0 7.641-2.764l5.773-6.892.086-.114L55.536 44.99 26.188 10.035Z" fill="#00B2FF"/><path d="M60.299 50.655 49.72 63.28l19.907 23.742a8.09 8.09 0 0 0 7.646 2.858 8.112 8.112 0 0 0 6.25-5.265 8.154 8.154 0 0 0-1.483-8.051l-21.741-25.91ZM82.04 13.402c2.89-3.444 2.45-8.586-.981-11.486a8.104 8.104 0 0 0-11.446.985L49.706 26.642l10.579 12.641L82.04 13.402Zm-55.852-3.367-.086-.114L20.33 2.9a8.086 8.086 0 0 0-11.356-.926c-3.4 2.864-3.87 7.94-1.057 11.384L34.378 44.99 7.916 76.565a8.172 8.172 0 0 0-1.434 8.022 8.13 8.13 0 0 0 6.206 5.257 8.107 8.107 0 0 0 7.641-2.764l5.773-6.892.086-.114L55.536 44.99 26.188 10.035Z" fill="#64BE00"/></g></svg>