<svg viewBox="0 0 123 30" xmlns="http://www.w3.org/2000/svg"><defs><linearGradient x1="98.971%" y1="97.03%" x2="94.292%" y2="-85.354%" id="a"><stop stop-color="#E3D9FF" offset="0%"/><stop stop-color="#7341FF" offset="100%"/></linearGradient><linearGradient x1="93.05%" y1="121.104%" x2="27.562%" y2="-81.04%" id="b"><stop stop-color="#E3D9FF" offset="0%"/><stop stop-color="#7341FF" offset="100%"/></linearGradient><radialGradient cx="96.121%" cy="50%" fx="96.121%" fy="50%" r="119.092%" gradientTransform="scale(-.8488 -1) rotate(-18.031 -3.237 6.598)" id="c"><stop stop-color="#6D4AFF" offset="0%"/><stop stop-color="#AA8EFF" offset="100%"/></radialGradient></defs><g fill="none" fill-rule="evenodd"><path d="M36.012 17.863v3.22h2.216v-3.08c0-.298.116-.587.325-.798a1.1 1.1 0 0 1 .783-.331h2.273a3.95 3.95 0 0 0 2.825-1.196 4.118 4.118 0 0 0 1.17-2.88c0-1.08-.422-2.118-1.17-2.884a3.959 3.959 0 0 0-2.827-1.193h-5.595v4.024h2.216v-1.897h3.231c.502 0 .983.204 1.337.565.355.362.554.852.554 1.364 0 .513-.2 1.002-.554 1.364a1.87 1.87 0 0 1-1.337.565h-2.347a3.077 3.077 0 0 0-2.19.927 3.212 3.212 0 0 0-.91 2.23Zm9.934 3.22v-4.905c0-2.002 1.145-3.594 3.437-3.594.367-.005.734.035 1.094.123v2.017c-.261-.018-.485-.018-.591-.018-1.214 0-1.736.568-1.736 1.718v4.66h-2.204Zm5.191-4.159c0-2.461 1.822-4.338 4.358-4.338 2.537 0 4.359 1.877 4.359 4.338 0 2.461-1.822 4.355-4.359 4.355-2.536 0-4.358-1.896-4.358-4.355Zm6.545 0c0-1.399-.92-2.391-2.187-2.391-1.268 0-2.186.99-2.186 2.39 0 1.417.92 2.392 2.186 2.392 1.268 0 2.187-.977 2.187-2.391Zm9.22 0c0-2.461 1.822-4.338 4.358-4.338 2.534 0 4.357 1.877 4.357 4.338 0 2.461-1.823 4.355-4.357 4.355-2.536 0-4.358-1.896-4.358-4.355Zm6.543 0c0-1.399-.921-2.391-2.187-2.391-1.266 0-2.187.99-2.187 2.39 0 1.417.921 2.392 2.187 2.392 1.266 0 2.187-.977 2.187-2.391Zm3.317 4.159v-4.727c0-2.195 1.372-3.772 3.82-3.772 2.43 0 3.801 1.575 3.801 3.772v4.727h-2.186v-4.55c0-1.222-.54-1.985-1.616-1.985s-1.615.761-1.615 1.984v4.551h-2.204Zm-10.52-6.533h-2.379v3.1c0 1.08.382 1.574 1.475 1.574.103 0 .365 0 .694-.017v1.823c-.45.123-.849.196-1.285.196-1.84 0-3.09-1.133-3.09-3.275v-3.4h-1.478v-1.789h.37c.145 0 .29-.03.423-.085a1.134 1.134 0 0 0 .685-1.045V9.947h2.204v2.815h2.378v1.788h.003Z" fill="#1B1340" fill-rule="nonzero"/><path d="M88.74 9.04h3.095l2.902 7.224c.259.606.48 1.224.667 1.854h.03c.186-.63.407-1.25.666-1.854l2.902-7.224h3.096v12.047h-2.243v-8.07c-.003-.267.01-.533.037-.797h-.037a5.18 5.18 0 0 1-.279.832l-3.215 7.895h-1.86l-3.225-7.895a6.595 6.595 0 0 1-.296-.832h-.035c.025.264.037.53.035.796v8.074h-2.24V9.04Zm21.03 4.1a3.83 3.83 0 0 1 1.546 1.517c.385.7.58 1.494.564 2.296v4.134h-1.964l-.14-1.24a2.764 2.764 0 0 1-1.083 1.062 3.238 3.238 0 0 1-1.575.37 3.74 3.74 0 0 1-1.984-.546 3.913 3.913 0 0 1-1.427-1.537 4.752 4.752 0 0 1-.522-2.261 4.37 4.37 0 0 1 .567-2.208 4.106 4.106 0 0 1 1.566-1.555 4.401 4.401 0 0 1 2.21-.565 4.616 4.616 0 0 1 2.241.532Zm-.72 5.561c.428-.412.64-.992.64-1.766a2.434 2.434 0 0 0-.612-1.72 2.131 2.131 0 0 0-1.542-.666 2.129 2.129 0 0 0-1.542.666 2.7 2.7 0 0 0 0 3.436 2.03 2.03 0 0 0 1.547.663 2.086 2.086 0 0 0 1.51-.613Zm4.042-7.636a1.314 1.314 0 0 1-.309-.437 1.267 1.267 0 0 1-.104-.525 1.31 1.31 0 0 1 .413-.972 1.39 1.39 0 0 1 .982-.41c.368 0 .72.148.982.41a1.313 1.313 0 0 1 .41.972c.003.18-.032.359-.104.525a1.27 1.27 0 0 1-.306.437 1.41 1.41 0 0 1-1.964 0Zm2.088 10.022h-2.208v-8.302h2.208v8.302Zm3.82 0h-2.21V9.04H119z" fill="#6D4AFF" fill-rule="nonzero"/><path d="M19.133 3.757V20h2.655c1.388 0 2.512-1.157 2.512-2.581V.575c0-.487-.55-.752-.916-.441l-4.25 3.623Z" fill="url(#a)" transform="translate(3 5)"/><path d="m15.431 6.916-4.849 4.4a2.19 2.19 0 0 1-2.907.044L0 4.807V.577C0 .091.551-.177.916.134l9.629 8.21a2.462 2.462 0 0 0 3.213 0l1.673-1.428Z" fill="url(#b)" transform="translate(3 5)"/><path d="m19.133 3.76-3.702 3.156h.003l-4.852 4.4a2.19 2.19 0 0 1-2.907.044L0 4.807v12.612C0 18.843 1.125 20 2.513 20h16.62V3.76Z" fill="url(#c)" fill-rule="nonzero" transform="translate(3 5)"/></g></svg>