<svg viewBox="0 0 123 30" xmlns="http://www.w3.org/2000/svg"><g fill="none"><path d="M110.496 13.446h-3.48v8.012h-2.365v-8.012h-1.66v-1.912h1.66v-1.38c0-1.044.34-1.898 1.019-2.564.68-.666 1.55-1 2.612-1 .251 0 .503.014.753.044.196.024.39.068.578.13v2.018a2.446 2.446 0 0 0-.405-.164 2.114 2.114 0 0 0-.666-.096c-.49 0-.866.153-1.13.458-.264.306-.396.758-.396 1.357v1.197h3.48v-2.23l2.346-.715v2.945h2.366v1.912h-2.365v4.643c0 .612.11 1.043.332 1.294.222.25.571.377 1.048.377.135 0 .297-.032.487-.097a2.3 2.3 0 0 0 .498-.232v1.931c-.149.084-.395.161-.739.232-.335.07-.676.105-1.018.106-.985 0-1.724-.262-2.216-.787-.493-.524-.739-1.314-.739-2.37v-5.097Zm-15.513 3.118c0 1.036.235 1.827.705 2.375.47.547 1.142.82 2.017.82.85 0 1.497-.273 1.94-.82.445-.548.667-1.358.667-2.433 0-1.069-.23-1.875-.69-2.419-.46-.544-1.106-.815-1.936-.815-.856 0-1.52.284-1.993.854-.474.57-.71 1.382-.71 2.438m-2.433.077c0-1.641.463-2.941 1.39-3.9.927-.96 2.214-1.44 3.862-1.44 1.551 0 2.763.463 3.635 1.386.872.924 1.308 2.171 1.308 3.742 0 1.609-.464 2.89-1.39 3.842-.927.953-2.189 1.429-3.785 1.429-1.538 0-2.76-.452-3.664-1.357-.904-.903-1.356-2.138-1.356-3.702m-5.261-2.5c0 .334.106.596.318.786.212.19.682.43 1.41.72.933.373 1.588.793 1.964 1.26.377.466.565 1.031.565 1.694 0 .933-.359 1.683-1.076 2.25-.718.566-1.688.849-2.911.849a7 7 0 0 1-1.366-.15 6.038 6.038 0 0 1-1.27-.381V18.87a5.75 5.75 0 0 0 1.371.705c.49.174.933.26 1.332.26.528 0 .918-.073 1.168-.222.252-.147.377-.395.377-.743 0-.322-.13-.594-.391-.816-.26-.222-.755-.478-1.482-.767-.862-.36-1.474-.766-1.834-1.217-.36-.45-.54-1.023-.54-1.718 0-.895.355-1.63 1.066-2.206.71-.576 1.633-.864 2.766-.864.347 0 .737.038 1.168.115.431.078.792.178 1.081.3v2.22a4.976 4.976 0 0 0-1.08-.53 3.606 3.606 0 0 0-1.227-.223c-.444 0-.79.087-1.038.26a.827.827 0 0 0-.371.715M76.05 16.564c0 1.036.235 1.827.705 2.375.47.547 1.142.82 2.017.82.85 0 1.497-.273 1.94-.82.445-.548.667-1.358.667-2.433 0-1.069-.23-1.875-.69-2.419-.46-.544-1.106-.815-1.936-.815-.856 0-1.52.284-1.994.854-.473.57-.71 1.382-.71 2.438m-2.432.077c0-1.641.463-2.941 1.39-3.9.927-.96 2.214-1.44 3.862-1.44 1.551 0 2.763.463 3.635 1.386.872.924 1.308 2.171 1.308 3.742 0 1.609-.463 2.89-1.39 3.842-.927.953-2.188 1.429-3.785 1.429-1.538 0-2.759-.452-3.664-1.357-.904-.903-1.356-2.138-1.356-3.702m-1.005-5.271c.186 0 .354.013.502.038.148.026.273.058.376.097v2.365a2.04 2.04 0 0 0-.535-.256 2.67 2.67 0 0 0-.855-.12c-.573 0-1.057.24-1.453.724-.396.482-.594 1.226-.594 2.23v5.01h-2.336v-9.924h2.336v1.564h.039c.212-.541.534-.964.965-1.27.432-.305.95-.458 1.555-.458m-8.96 8.39c.348 0 .731-.08 1.15-.242a4.826 4.826 0 0 0 1.158-.637v2.172a4.68 4.68 0 0 1-1.27.483c-.472.11-.993.164-1.559.164-1.46 0-2.649-.462-3.562-1.386-.914-.923-1.371-2.103-1.371-3.538 0-1.596.466-2.91 1.4-3.944.933-1.033 2.255-1.55 3.968-1.55.437 0 .88.057 1.327.17.447.112.803.242 1.067.39v2.24a4.768 4.768 0 0 0-1.106-.613 3.194 3.194 0 0 0-1.153-.217c-.92 0-1.664.3-2.23.898-.567.599-.85 1.406-.85 2.423 0 1.004.272 1.786.816 2.346.544.56 1.282.84 2.216.84m-7.087 1.7H54.23v-9.925h2.336v9.924ZM53.99 8.665c0-.386.14-.71.42-.97.28-.26.614-.391 1-.391.411 0 .753.134 1.023.4.27.268.406.588.406.961 0 .38-.139.699-.416.956a1.433 1.433 0 0 1-1.013.386c-.4 0-.736-.13-1.01-.39a1.265 1.265 0 0 1-.41-.952m-2.01-1.052v13.844h-2.404v-10.85h-.038l-4.297 10.85h-1.593l-4.402-10.85h-.03v10.85h-2.22V7.614h3.447l3.978 10.263h.057l4.2-10.263h3.302Z" fill="#000"/><path fill="#F25022" d="M17.966 13.966H7V3h10.966z"/><path fill="#7FBA00" d="M30.073 13.966H19.107V3h10.966z"/><path fill="#00A4EF" d="M17.966 26.073H7V15.107h10.966z"/><path fill="#FFB900" d="M30.073 26.073H19.107V15.107h10.966z"/></g></svg>