<svg width="120" height="40" viewBox="0 0 120 40" xmlns="http://www.w3.org/2000/svg"><g transform="translate(12 4)" fill="none"><polygon fill="#FFF" points="14.4649123 14.3166316 8.50877193 14.3166316 8.50877193 16 14.4649123 16 14.4649123 22.7376842 5.10526316 22.7376842 1.70175439 19.3692632 1.70175439 1.68421053 8.50877193 1.68421053 8.50877193 7.57894737 14.4649123 7.57894737"/><polygon fill="#FFF" points="39.9912281 22.7376842 19.5701754 22.7376842 16.1666667 19.3692632 16.1666667 7.57894737 22.9736842 7.57894737 22.9736842 16 24.6754386 16 24.6754386 7.57894737 31.4824561 7.57894737 31.4824561 16 33.1842105 16 33.1842105 7.57894737 39.9912281 7.57894737"/><rect fill="#FFF" x="41.693" y="7.579" width="6.807" height="15.158"/><rect fill="#FFF" x="41.693" y="1.684" width="6.807" height="4.211"/><polygon fill="#FFF" points="62.9649123 14.3166316 57.0087719 14.3166316 57.0087719 16 62.9649123 16 62.9649123 22.7376842 53.6052632 22.7376842 50.2017544 19.3692632 50.2017544 1.68421053 57.0087719 1.68421053 57.0087719 7.57894737 62.9649123 7.57894737"/><polygon fill="#FFF" points="78.2807018 14.3166316 71.4736842 14.3166316 71.4736842 16 78.2807018 16 78.2807018 22.7376842 68.0701754 22.7376842 64.6666667 19.3692632 64.6666667 10.9482105 68.0701754 7.57894737 78.2807018 7.57894737"/><polygon fill="#FFF" points="95.2982456 22.7376842 88.4912281 22.7376842 88.4912281 14.3166316 86.7894737 14.3166316 86.7894737 22.7376842 79.9824561 22.7376842 79.9824561 1.68421053 86.7894737 1.68421053 86.7894737 7.57894737 91.8947368 7.57894737 95.2982456 10.9482105"/><path d="M92.745614,5.89473684 L88.4912281,5.89473684 L88.4912281,0 L79.1494474,0 L74.8533684,5.89473684 L67.2192982,5.89473684 L64.6666667,8.42105263 L64.6666667,5.89473684 L58.7105263,5.89473684 L58.7105263,0 L39.9912281,0 L39.9912281,5.89473684 L13.6565789,5.89473684 L9.35964912,0 L0,0 L0,20.2105263 L11.9122807,32 L23.8245614,32 L23.8245614,28.6315789 L27.2280702,32 L50.2017544,32 L50.2017544,28.6315789 L53.6052632,32 L64.6666667,32 L64.6666667,28.6315789 L68.0701754,32 L89.3421053,32 L97,24.4210526 L97,10.1052632 L92.745614,5.89473684 Z M14.4649123,14.3157895 L8.50877193,14.3157895 L8.50877193,16 L14.4649123,16 L14.4649123,22.7368421 L5.10526316,22.7368421 L1.70175439,19.3684211 L1.70175439,1.68421053 L8.50877193,1.68421053 L8.50877193,7.57894737 L14.4649123,7.57894737 L14.4649123,14.3157895 Z M39.9912281,22.7368421 L19.5701754,22.7368421 L16.1666667,19.3684211 L16.1666667,7.57894737 L22.9736842,7.57894737 L22.9736842,16 L24.6754386,16 L24.6754386,7.57894737 L31.4824561,7.57894737 L31.4824561,16 L33.1842105,16 L33.1842105,7.57894737 L39.9912281,7.57894737 L39.9912281,22.7368421 Z M48.5,22.7368421 L41.6929825,22.7368421 L41.6929825,7.57894737 L48.5,7.57894737 L48.5,22.7368421 Z M48.5,5.89473684 L41.6929825,5.89473684 L41.6929825,1.68421053 L48.5,1.68421053 L48.5,5.89473684 Z M62.9649123,14.3157895 L57.0087719,14.3157895 L57.0087719,16 L62.9649123,16 L62.9649123,22.7368421 L53.6052632,22.7368421 L50.2017544,19.3684211 L50.2017544,1.68421053 L57.0087719,1.68421053 L57.0087719,7.57894737 L62.9649123,7.57894737 L62.9649123,14.3157895 Z M78.2807018,14.3157895 L71.4736842,14.3157895 L71.4736842,16 L78.2807018,16 L78.2807018,22.7368421 L68.0701754,22.7368421 L64.6666667,19.3684211 L64.6666667,10.9473684 L68.0701754,7.57894737 L78.2807018,7.57894737 L78.2807018,14.3157895 Z M95.2982456,22.7368421 L88.4912281,22.7368421 L88.4912281,14.3157895 L86.7894737,14.3157895 L86.7894737,22.7368421 L79.9824561,22.7368421 L79.9824561,1.68421053 L86.7894737,1.68421053 L86.7894737,7.57894737 L91.8947368,7.57894737 L95.2982456,10.9473684 L95.2982456,22.7368421 Z" fill="#9146FF"/></g></svg>