<svg xmlns="http://www.w3.org/2000/svg" viewBox="0 0 120 40" xmlns:v="https://vecta.io/nano"><path fill="#2f2d2e" d="M73.185 2h-25.37C45.759 2 45 2.759 45 4.818v24.843l.03.65c.047.449.056.885.473 1.381.041.049.467.366.467.366l.645.3 12.492 5.238c.649.298.92.413 1.391.404h0 .004c.471.009.742-.107 1.391-.404l12.492-5.238c.259-.104.415-.187.645-.3l.467-.366c.418-.496.426-.931.473-1.381.021-.201.03-.417.03-.65V4.818C76 2.759 75.241 2 73.185 2"/><g fill="#fff"><path d="M71.477 26.974l-.006.057-.006.063-.011.057-.017.057-.011.052-.017.057-.023.052-.023.046-.023.052-.029.046-.029.046-.034.046-.029.046-.034.04-.04.04-.034.034-.046.04-.04.034-.046.034-.045.028-.045.034-.052.029-.051.023-.051.029-.057.023-.057.023-.057.017-.057.017-.052.017-.057.012-.051.011-.051.011-.057.012-.057.006-.051.006-.057.006-.063.006-.057.006h-.057-.063-.063-.057l-.057-.006h-.063l-.057-.006-.057-.006-.063-.006-.057-.011-.057-.006-.057-.011-.057-.011-.057-.012-.057-.011-.057-.017-.051-.012-.057-.017-.057-.017-.051-.023-.057-.017-.051-.017-.057-.023-.051-.023-.051-.023-.051-.028-.051-.023-.051-.029-.045-.029-.052-.029-.045-.029-.046-.029-.045-.034-.045-.034-.046-.034-.046-.034-.04-.034-.045-.04.034-.046.04-.04.034-.046.04-.046.034-.04.034-.046.04-.046.034-.04.04-.046.034-.04.04-.046.034-.046.034-.04.04-.046.034-.046.04-.04.034-.046.045.034.051.034.046.034.051.034.046.029.051.034.045.029.052.023.045.029.051.023.052.023.051.023.051.017.051.023.057.017.057.017.051.017.057.012.057.011.057.011.063.006.057.011h.057l.063.006h.057.068l.063-.006.057-.011.051-.012.051-.011.046-.017.04-.023.046-.034.034-.04.023-.046.017-.052.006-.057v-.011l-.006-.069-.023-.057-.029-.04-.04-.034-.046-.034-.045-.023-.051-.023-.057-.023-.068-.029-.04-.012-.045-.011-.052-.017-.051-.011-.057-.017-.057-.011-.063-.017-.057-.011-.063-.017-.057-.011-.057-.017-.057-.012-.057-.017-.052-.017-.057-.012-.051-.017-.051-.017-.052-.017-.063-.023-.057-.023-.057-.023-.057-.023-.051-.029-.057-.029-.046-.029-.051-.029-.045-.034-.046-.029-.04-.034-.04-.04-.04-.04-.034-.04-.034-.04-.029-.04-.028-.046-.029-.052-.023-.04-.017-.046-.017-.052-.017-.046-.011-.057-.011-.052-.006-.057-.006-.057-.006-.063v-.063-.011-.057l.006-.057.006-.052.006-.057.011-.052.011-.052.017-.052.011-.052.023-.052.023-.052.023-.052.028-.052.029-.052.034-.046.034-.046.04-.046.04-.04.04-.046.046-.04.04-.029.046-.034.046-.034.045-.029.052-.029.051-.023.051-.029.052-.023.057-.017.057-.023.052-.017.045-.012.051-.011.051-.011.057-.011.051-.012.057-.006.057-.006.057-.006.057-.006h.057.063.063.063l.063.006.063.006H70l.063.006.057.011.063.006.057.011.052.011.057.011.057.012.051.011.057.017.051.017.051.012.057.023.051.017.051.023.051.023.057.023.051.029.045.023.052.029.051.029.045.029.051.034.046.029.046.034.045.034.045.034-.034.046-.029.046-.034.046-.034.046-.034.052-.029.046-.034.046-.034.046-.029.046-.034.046-.034.046-.029.046-.034.052-.034.046-.034.046-.029.046-.034.046-.046-.034-.051-.029-.046-.029-.046-.034-.051-.023-.046-.029-.051-.023-.045-.023-.052-.023-.045-.023-.051-.017-.046-.023-.063-.017-.057-.017-.057-.017-.057-.012-.057-.011-.057-.012-.057-.006-.057-.006-.051-.006h-.057-.068l-.063.011-.057.012-.051.011-.045.023-.04.023-.051.046-.034.052-.022.052-.006.057v.012l.006.074.028.063.023.034.04.04.052.029.045.029.057.023.063.023.068.023.045.011.045.017.052.011.051.017.057.012.063.017.063.017.063.017.063.011.057.017.063.017.057.011.057.017.057.017.051.017.057.017.051.017.051.017.063.023.057.029.057.023.057.029.052.029.051.029.045.029.046.034.046.029.045.04.046.04.04.046.04.04.034.046.034.052.028.046.029.052.023.046.017.052.017.052.011.052.011.057.011.057.006.057.006.063v.063.011.063l-.006.063zm-3.998 1.146h-.057-.057-.057-.057-.057-.057-.057-.057-.063-.057-.057-.057-.057-.057-.057-.057-.057-.057-.057-.057-.057-.057-.057-.057-.057-.057-.057-.057-.063-.057-.057-.057-.057-.057-.057-.057-.057-.057-.057-.057-.057-.057-.057-.057-.057-.057-.057-.063-.057-.057-.057-.057-.057-.057-.057-.057-.057v-.057-.057-.057-.057-.057-.057-.057-.057-.057-.057-.057-.057-.057-.057-.057-.057-.057-.057-.052-.057-.057-.057-.057-.057-.057-.057-.057-.057-.057-.057-.057-.057-.057-.057-.057-.057-.057-.057-.057-.057-.057-.057-.057-.057-.057-.057-.057-.057-.057-.057-.057-.057-.057-.057-.052-.057-.057-.057-.057-.057-.057-.057-.057-.057-.057-.057-.057-.057-.057-.057-.057-.057-.057h.057.057.057.057.057.057.057.057.057.057.057.057.057.057.051.057.057.057.057.057.057.057.057.057.057.057.057.057.057.057.057.057.057.057.057.057.057.057.057.057.057.057.057.052.057.057.057.057.057.057.057.057.057.057.057.057.057.057v.057.052.057.057.057.052.057.057.052.057.057.052.057.057.057.052.057h-.057-.057-.057-.057-.057-.057-.052-.057H67h-.057-.057-.057-.057-.057-.057-.057-.057-.057-.057-.051-.057-.057-.057-.057-.057-.057-.057-.057-.057-.057-.057-.057-.051-.057-.057-.057-.057-.057-.057v.057.057.057.057.057.052.057.057.057.057.057.057h.057.057.057.057.057.057.057.057.052.057.057.057.057.057.057.057.057.057.057.057.057.057.057.057.057.057.051.057.057H67h.057.057.057.057.057v.057.052.057.057.052.057.057.052.057.057.057.052.057.057.052.057h-.057-.057-.057-.057H67h-.057-.057-.057-.051-.057-.057-.057-.057-.057-.057-.057-.057-.057-.057-.057-.057-.057-.057-.057-.057-.057-.052-.057-.057-.057-.057-.057-.057-.057-.057v.057.063.057.057.063.057.057.063.057.057.063.057h.057.057.057.057.057.057.057.057.057.063.057.057.057.057.057.057.057.057.057.057.057.057.057.057.057.057.057.057.057.063.057.057.057.057.057.057.057.057.057v.057.052.057.057.057.052.057.057.052.057.057.052.057.057.057.052.057h-.057zm-4.165 0h-.057-.057-.063-.057-.057-.057-.057-.057-.063-.057-.057-.057-.057-.057-.063-.057-.057-.057v-.057-.057-.057-.057-.058-.057-.057-.057-.057-.057-.057-.058-.057-.057-.057-.057-.058-.057-.057-.057-.057-.057-.058-.057-.057-.057-.057-.057-.058-.057-.057-.057-.057-.057-.058-.057-.057-.057-.057-.058-.057-.057-.057l-.029.046-.034.052-.029.046-.034.046-.029.052-.034.046-.028.046-.029.052-.034.046-.029.046-.034.046-.028.052-.034.046-.028.046-.029.052-.034.046-.028.046-.034.052-.028.046-.034.046-.028.052-.029.046-.034.046-.028.052-.034.046-.028.046-.034.046-.029.052-.028.046-.034.046-.028.052-.034.046-.029.046-.034.052-.029.046h-.023l-.034-.052-.029-.046-.034-.052-.029-.046-.034-.052-.029-.046-.034-.052-.029-.046-.034-.052-.028-.046-.034-.052-.028-.046-.034-.052-.029-.046-.034-.052-.029-.046-.034-.052-.034-.046-.029-.052-.034-.046-.029-.052-.034-.046-.029-.052-.034-.046-.029-.052-.034-.046-.028-.052-.034-.046-.028-.052-.034-.046-.029-.052-.034-.046-.029-.052-.034-.046v.057.057.057.058.057.057.057.057.058.057.052.057.057.057.058.057.057.057.057.057.058.057.057.057.057.057.058.057.057.057.057.058.052.057.057.057.057.057.058.057.057.057.057h-.057-.057-.057-.057-.057-.057-.057-.057-.057-.057-.057-.057-.057-.057-.057-.057-.057-.057-.057v-.057-.057-.057-.057-.057-.057-.057-.057-.057-.057-.057-.057-.057-.057-.057-.057-.057-.057-.052-.057-.057-.057-.057-.057-.057-.057-.057-.057-.057-.057-.057-.057-.057-.057-.057-.057-.057-.057-.057-.057-.057-.057-.057-.057-.057-.057-.057-.057-.057-.057-.057-.057-.057-.057-.052-.057-.057-.057-.057-.057-.057-.057-.057-.057-.057-.057-.057-.057-.057-.057-.057-.057-.057h.057.057.051.057.057.057.051.057.057.057.051.057.057.057.051.057.057.057.051.057.057l.028.046.029.052.034.046.029.052.029.046.028.052.029.045.034.052.029.046.029.046.028.051.029.046.034.052.029.046.029.051.028.046.034.046.029.051.028.046.029.052.028.046.034.051.029.046.028.052.029.046.028.046.034.052.029.046.028.052.029.046.028.052.034.046.029.051.028.046.029-.046.029-.051.034-.046.029-.052.028-.046.029-.052.034-.046.029-.052.029-.046.028-.046.034-.052.028-.046.029-.051.029-.046.034-.052.029-.046.029-.051.028-.046.029-.046.034-.051.029-.046.029-.052.028-.046.034-.051.028-.046.029-.046.029-.052.034-.045.029-.052.028-.046.029-.052.034-.046.028-.052.029-.046h.057.057.051.057.057.057.052.057.057.057.052.057.057.057.051.057.057.057.052.057.057v.057.057.057.057.057.057.057.057.057.057.057.057.057.057.057.057.057.057.052.057.057.057.057.057.057.057.057.057.057.057.057.057.057.057.057.057.057.057.057.057.057.057.057.057.057.057.057.057.057.057.057.057.057.057.052.057.057.057.057.057.057.057.057.057.057.057.057.057.057.057.057.057.057h-.057zM56.7 26.401l-.017-.052-.023-.057-.023-.052-.017-.052-.023-.052-.023-.057-.017-.052-.023-.052-.022-.052-.017-.052-.023-.057-.017-.052-.023-.052-.023-.052-.017-.052-.023-.058-.023-.052-.017-.052-.023-.052-.023-.057-.017-.052-.023-.052-.023.052-.017.052-.023.057-.023.052-.017.052-.023.052-.023.058-.023.052-.017.052-.023.052-.023.052-.017.057-.023.052-.023.052-.017.052-.023.052-.023.057-.023.052-.017.052-.023.052-.023.057-.017.052-.023.052h.057.057.057.057.057.057.057.057.051.057.057.057.057.057.057.057.057l-.023-.052zm1.79 1.719h-.057-.051-.057-.057-.057-.057-.051-.057-.057-.057-.057-.057-.051-.057-.057-.057-.057-.051-.057-.057l-.023-.052-.017-.052-.023-.052-.023-.057-.017-.051-.023-.052-.023-.052-.017-.052-.023-.052-.023-.052-.017-.052-.023-.057-.023-.052-.017-.052-.023-.052h-.057-.057-.057-.057-.052-.057-.057-.057-.057-.057-.057-.057-.057-.057-.051-.057-.057-.057-.057-.057-.057-.057-.057-.057-.052-.057-.057-.057-.057l-.023.052-.017.052-.023.052-.023.057-.017.052-.023.052-.023.052-.017.052-.023.052-.023.052-.017.051-.023.057-.023.052-.017.052-.023.052h-.057-.057-.057-.057-.057-.063-.057-.057-.057-.057-.057-.057-.057-.057-.057-.063-.057-.057-.057-.057l.023-.052.023-.052.023-.052.023-.057.017-.051.023-.052.023-.052.023-.052.023-.052.023-.057.023-.052.023-.052.017-.052.023-.052.023-.052.023-.057.023-.052.023-.052.023-.052.023-.052.017-.052.023-.057.023-.052.023-.052.023-.052.023-.052.023-.052.023-.057.017-.052.023-.052.023-.052.023-.052.023-.052.023-.057.023-.052.023-.052.017-.052.023-.052.023-.052.023-.057.023-.052.023-.052.023-.052.023-.052.017-.052.023-.051.023-.057.023-.052.023-.052.023-.052.023-.052.023-.052.017-.057.023-.052.023-.052.023-.052.023-.052.023-.052.023-.057.023-.052.017-.052.023-.052.023-.052.023-.052.023-.057.023-.052.023-.052.023-.052.017-.052.023-.052.023-.057.023-.052.023-.052.023-.052.023-.052.023-.052.017-.057.023-.052.023-.052.023-.052h.057.052.057.057.057.051.057.057.057.051.057.057.057.051.057.057.057.051.057l.023.052.023.052.023.052.023.057.017.052.023.052.023.052.023.052.023.052.023.057.023.052.023.052.017.052.023.052.023.052.023.057.023.052.023.052.023.052.023.052.017.052.023.057.023.052.023.052.023.052.023.052.023.052.023.057.017.052.023.052.023.052.023.052.023.052.023.057.023.051.023.052.017.052.023.052.023.052.023.052.023.057.023.052.023.052.023.052.017.052.023.052.023.057.023.052.023.052.023.052.023.052.023.052.017.057.023.052.023.052.023.052.023.052.023.052.023.057.023.052.017.052.023.052.023.052.023.052.023.057.023.052.023.052.023.052.017.052.023.052.023.057.023.052.023.052.023.052.023.052.023.051.017.057.022.052.023.052.023.052h-.057zm-4.994-.533l-.046.034-.04.029-.046.034-.045.029-.045.034-.046.029-.045.029-.052.029-.051.029-.051.029-.051.023-.051.029-.057.023-.051.023-.057.023-.051.023-.051.017-.051.017-.051.017-.057.017-.051.017-.057.011-.051.011-.057.011-.057.011-.057.006-.063.006-.057.006-.063.006-.057.006-.063.006h-.063-.063-.063-.057l-.057-.006-.063-.006-.057-.006-.057-.006-.057-.006-.057-.011-.057-.012-.051-.011-.057-.011-.051-.017-.057-.011-.052-.017-.051-.023-.051-.017-.057-.023-.052-.023-.051-.023-.051-.023-.052-.029-.045-.028-.051-.029-.046-.029-.045-.029-.046-.034-.045-.034-.046-.034-.04-.034-.04-.034-.04-.04-.04-.034-.04-.04-.04-.04-.034-.04-.034-.046-.034-.04-.029-.046-.034-.046-.029-.046-.028-.046-.029-.052-.029-.046-.023-.052-.023-.052-.023-.052-.023-.052-.017-.046-.023-.052-.011-.052-.017-.052-.011-.057-.017-.052-.011-.057-.006-.052-.011-.057-.006-.052-.006-.057-.005-.057-.006-.057v-.063-.057-.011-.057l.006-.063v-.057l.005-.057.006-.063.011-.057.006-.057.011-.052.017-.057.011-.057.017-.052.017-.057.017-.052.023-.057.023-.052.023-.052.023-.052.023-.052.029-.052.029-.046.028-.046.029-.046.029-.046.034-.046.034-.046.034-.046.034-.04.04-.04.034-.04.04-.04.04-.04.04-.034.046-.04.04-.034.045-.034.046-.029.045-.034.046-.029.045-.029.051-.029.052-.029.051-.029.051-.023.051-.023.057-.029.045-.017.057-.017.052-.023.051-.012.051-.017.057-.011.051-.017.057-.011.057-.006.057-.011.057-.006.057-.006.057-.006.057-.006h.063.057.063.063l.063.006.063.006h.057l.057.006.063.012.052.006.057.012.057.011.051.011.051.011.051.012.052.017.051.011.045.017.052.017.051.023.051.023.052.023.051.029.051.023.046.029.051.029.045.029.052.029.045.034.045.029.046.034.045.034.046.04.045.034-.034.046-.04.04-.034.046-.04.046-.034.046-.034.04-.04.046-.034.046-.034.04-.04.046-.034.046-.04.046-.034.04-.034.046-.04.046-.034.046-.04.04-.034.046-.046-.034-.045-.04-.046-.029-.045-.034-.045-.029-.046-.029-.046-.029-.051-.029-.046-.023-.045-.023-.046-.017-.051-.017-.051-.017-.052-.011-.057-.012-.057-.011-.057-.006-.063-.006-.063-.006h-.063-.057l-.057.006-.052.006-.057.011-.051.012-.052.017-.051.017-.051.023-.051.023-.046.029-.045.029-.046.029-.04.034-.04.034-.04.034-.034.04-.04.04-.034.046-.028.04-.029.046-.028.052-.029.046-.023.052-.017.052-.023.052-.017.057-.011.057-.011.052-.011.063-.006.057-.005.057v.063.011.057l.005.057.006.052.006.057.011.052.011.052.011.052.017.052.017.046.023.057.023.052.028.052.029.046.029.046.034.046.034.04.04.04.034.04.04.034.046.034.045.034.045.029.046.029.051.023.051.023.051.023.057.017.057.017.057.012.057.011.057.006.063.006h.063.068l.063-.006.063-.006.057-.006.057-.012.057-.011.057-.017.051-.012.051-.023.046-.023.051-.023.04-.023.046-.029v-.057-.057-.057-.057-.063-.057-.057-.057-.057h-.057-.051-.057-.057-.057-.052-.057-.057-.057-.051-.057-.057-.057-.051-.057v-.057-.052-.057-.057-.057-.052-.057-.057-.057-.052-.057-.057-.057-.052-.057h.057.057.057.057.057.057.057.057.057.057.057.057.057.057.057.057.057.057.057.057.057.057.057.057.057.057.057.057.057.057.057.057.057v.057.057.057.052.057.057.057.057.057.052.057.057.057.057.057.057.052.057.057.057.057.057.057.052.057.057.057.057.057.052.057.057.057l-.04.034zm-1.828-13.07h2.471v-1.913h-2.471V8.7h2.569V6.787H49.57V20.59h4.706v-1.913h-2.608zm17.701.406v3.116c0 .552-.255.808-.784.808h-.392c-.549 0-.804-.256-.804-.808V9.322c0-.552.255-.808.804-.808h.353c.529 0 .784.256.784.808v2.702h2.059v-2.82c0-1.715-.824-2.544-2.529-2.544h-1.02c-1.706 0-2.549.848-2.549 2.563v8.913c0 1.716.843 2.563 2.549 2.563h1.039c1.706 0 2.549-.848 2.549-2.563v-3.214h-2.059zm-7.287 5.664h2.098V6.784h-2.098z"/><path d="M59.045 12.919c0 .552-.255.809-.784.809h-.863V8.641h.863c.529 0 .784.256.784.808v3.471zm-.451-6.132H55.3V20.59h2.098v-5.009h1.196c1.706 0 2.549-.848 2.549-2.563V9.351c0-1.716-.843-2.563-2.549-2.563M54.52 33.077h12.011L60.4 35.1z"/></g></svg>