<svg width="120" height="40" viewBox="0 0 120 40" xmlns="http://www.w3.org/2000/svg"><g transform="translate(0 10)" fill="none"><path d="M9.98,0 L0,5.75 L0,17.25 L9.98,23 L19.96,17.25 L19.96,5.75 L9.98,0 Z M9.98,0 L0,5.75 L0,17.25 L9.98,23 L19.96,17.25 L19.96,5.75 L9.98,0 Z" fill="#FFF"/><path d="M13.92,18.5078125 L12.5,18.5078125 L10.8,16.9505208 L10.8,16.1519097 L12.56,14.4748264 L12.56,11.8194444 L14.86,10.3220486 L17.48,12.2986111 L13.92,18.5078125 Z M8.04,14.3151042 L8.3,11.8194444 L7.44,9.58333333 L12.52,9.58333333 L11.68,11.8194444 L11.92,14.3151042 L9.96,14.3151042 L8.04,14.3151042 Z M9.2,16.9505208 L7.5,18.5277778 L6.06,18.5277778 L2.48,12.2986111 L5.12,10.3420139 L7.44,11.8194444 L7.44,14.4748264 L9.2,16.1519097 L9.2,16.9505208 Z M6.04,4.97135417 L13.9,4.97135417 L14.84,8.96440972 L5.12,8.96440972 L6.04,4.97135417 Z M9.98,0 L0,5.75 L0,17.25 L9.98,23 L19.96,17.25 L19.96,5.75 L9.98,0 Z" fill="#03316C"/><path d="M31.16 16.8307292C28.52 16.8307292 26.58 14.7743056 26.58 12.2387153 26.58 9.703125 28.54 7.58680556 31.18 7.58680556 32.86 7.58680556 33.9 8.20572917 34.72 9.10416667L33.46 10.4618056C32.84 9.80295139 32.18 9.36371528 31.16 9.36371528 29.68 9.36371528 28.6 10.6414931 28.6 12.1987847 28.6 13.7960069 29.7 15.0737847 31.26 15.0737847 32.22 15.0737847 32.92 14.6145833 33.56 13.9756944L34.78 15.1935764C33.9 16.1319444 32.88 16.8307292 31.16 16.8307292M38.64 16.8307292 36.6 16.8307292 36.6 7.60677083 38.64 7.60677083 38.64 9.76302083C39.2 8.4453125 40.22 7.52690972 41.78 7.60677083L41.78 9.76302083 41.66 9.76302083C39.88 9.76302083 38.64 10.9210069 38.64 13.2769097L38.64 16.8307292Z" fill="#002E73"/><polygon fill="#002E73" points="52.44 7.56684028 47.94 19.3064236 45.88 19.3064236 46.86 16.8307292 43 7.56684028 45.18 7.56684028 47.8 14.4149306 50.32 7.56684028"/><path d="M58.44 9.34375C57.06 9.34375 55.86 10.4618056 55.86 12.1987847 55.86 13.9357639 57.08 15.0538194 58.44 15.0538194 59.84 15.0538194 60.98 13.9557292 60.98 12.1987847 60.98 10.4418403 59.82 9.34375 58.44 9.34375M58.9 16.8107639C57.44 16.8107639 56.52 16.0720486 55.9 15.2534722L55.9 19.3064236 53.86 19.3064236 53.86 7.56684028 55.9 7.56684028 55.9 9.22395833C56.56 8.30555556 57.48 7.56684028 58.9 7.56684028 61 7.56684028 63.04 9.22395833 63.04 12.1788194 63.04 15.1336806 61.02 16.8107639 58.9 16.8107639M67.5 9.50347222 67.5 13.8559028C67.5 14.6345486 67.9 14.9539931 68.6 14.9539931L69.4 14.9539931 69.4 16.7708333 68 16.7708333C66.52 16.7708333 65.46 16.1119792 65.46 14.1753472L65.46 9.50347222 64.34 9.50347222 64.34 7.76649306 65.46 7.76649306 65.46 5.33072917 67.5 5.33072917 67.5 7.76649306 69.4 7.76649306 69.4 9.50347222 67.5 9.50347222ZM75.82 9.34375C74.18 9.34375 73.14 10.6215278 73.14 12.1788194 73.14 13.7560764 74.26 15.0538194 75.84 15.0538194 77.48 15.0538194 78.52 13.7760417 78.52 12.21875 78.56 10.6414931 77.42 9.34375 75.82 9.34375M75.82 16.8307292C73.12 16.8307292 71.12 14.7743056 71.12 12.2387153 71.12 9.68315972 73.14 7.58680556 75.86 7.58680556 78.58 7.58680556 80.58 9.64322917 80.58 12.1987847 80.58 14.7144097 78.58 16.8307292 75.82 16.8307292M100.04 9.34375C98.4 9.34375 97.36 10.6215278 97.36 12.1788194 97.36 13.7560764 98.48 15.0538194 100.06 15.0538194 101.7 15.0538194 102.74 13.7760417 102.74 12.21875 102.76 10.6414931 101.64 9.34375 100.04 9.34375M100.04 16.8307292C97.34 16.8307292 95.34 14.7743056 95.34 12.2387153 95.34 9.68315972 97.36 7.58680556 100.08 7.58680556 102.8 7.58680556 104.8 9.64322917 104.8 12.1987847 104.8 14.7144097 102.78 16.8307292 100.04 16.8307292M116.88 7.56684028C118.82 7.56684028 120 8.78472222 120 10.9609375L120 16.8107639 117.96 16.8107639 117.96 11.5798611C117.96 10.1623264 117.3 9.42361111 116.16 9.42361111 115.06 9.42361111 114.26 10.2022569 114.26 11.6197917L114.26 16.8307292 112.22 16.8307292 112.22 11.5798611C112.22 10.2022569 111.54 9.42361111 110.42 9.42361111 109.3 9.42361111 108.52 10.2621528 108.52 11.6397569L108.52 16.8307292 106.48 16.8307292 106.48 7.58680556 108.52 7.58680556 108.52 9.10416667C109.1 8.32552083 109.86 7.58680556 111.22 7.58680556 112.5 7.58680556 113.38 8.20572917 113.86 9.14409722 114.6 8.18576389 115.54 7.56684028 116.88 7.56684028" fill="#002E73"/><polygon fill="#002E73" points="84.32 14.9539931 84.32 15.9921875 84.26 16.0920139 83.36 16.5911458 83.24 16.5911458 82.36 16.0920139 82.3 15.9921875 82.3 14.9539931 82.36 14.8541667 83.24 14.3550347 83.36 14.3550347 84.26 14.8541667"/><path d="M90.5,16.8107639 C87.86,16.7508681 85.96,14.6545139 86,12.1189236 C86.04,9.58333333 88.04,7.50694444 90.7,7.56684028 C92.38,7.60677083 93.42,8.24565972 94.22,9.1640625 L92.94,10.5017361 C92.34,9.84288194 91.68,9.36371528 90.66,9.34375 C89.18,9.32378472 88.08,10.5616319 88.06,12.1388889 C88.02,13.7361111 89.1,15.0338542 90.66,15.0538194 C91.62,15.0737847 92.34,14.6345486 92.98,13.9956597 L94.18,15.2335069 C93.28,16.171875 92.24,16.8506944 90.5,16.8107639" fill="#002E73"/></g></svg>