<svg viewBox="0 0 123 30" xmlns="http://www.w3.org/2000/svg"><g fill="none"><path d="M45.992 6.71h-6.807a.945.945 0 0 0-.934.796L35.498 24.94a.566.566 0 0 0 .561.654h3.25a.945.945 0 0 0 .934-.798l.743-4.702a.944.944 0 0 1 .933-.798h2.155c4.484 0 7.071-2.168 7.747-6.462.305-1.879.013-3.355-.868-4.39-.967-1.134-2.683-1.735-4.961-1.735Zm.785 6.366c-.372 2.44-2.238 2.44-4.043 2.44h-1.027l.72-4.556a.567.567 0 0 1 .561-.478h.47c1.23 0 2.39 0 2.989.7.357.417.466 1.037.33 1.894Zm19.561-.078h-3.26a.568.568 0 0 0-.56.478l-.144.91-.228-.33c-.706-1.022-2.28-1.364-3.85-1.364-3.602 0-6.678 2.725-7.277 6.547-.312 1.907.131 3.73 1.214 5.001.993 1.17 2.415 1.656 4.106 1.656 2.902 0 4.511-1.864 4.511-1.864l-.145.905a.567.567 0 0 0 .559.656H64.2c.467 0 .86-.338.935-.798l1.761-11.143a.565.565 0 0 0-.558-.654Zm-4.543 6.336c-.315 1.86-1.793 3.109-3.678 3.109-.946 0-1.703-.303-2.189-.878-.481-.57-.664-1.383-.511-2.287.293-1.844 1.796-3.134 3.652-3.134.926 0 1.678.307 2.174.887.497.585.694 1.403.552 2.303Zm21.902-6.336h-3.275a.95.95 0 0 0-.784.414l-4.517 6.647-1.915-6.387a.949.949 0 0 0-.908-.674H69.08a.567.567 0 0 0-.539.75l3.608 10.575-3.392 4.782a.566.566 0 0 0 .463.895h3.272c.31 0 .6-.151.777-.406l10.894-15.706a.566.566 0 0 0-.466-.89Z" fill="#253B80"/><path d="M94.541 6.71h-6.807a.945.945 0 0 0-.934.796L84.047 24.94a.566.566 0 0 0 .56.654H88.1a.662.662 0 0 0 .653-.559l.781-4.941a.944.944 0 0 1 .934-.798h2.154c4.484 0 7.07-2.168 7.748-6.462.305-1.879.012-3.355-.87-4.39-.966-1.134-2.68-1.735-4.959-1.735Zm.786 6.366c-.372 2.44-2.238 2.44-4.043 2.44h-1.026l.721-4.556a.565.565 0 0 1 .56-.478h.47c1.229 0 2.39 0 2.988.7.358.417.466 1.037.33 1.894Zm19.559-.078h-3.257a.564.564 0 0 0-.56.478l-.144.91-.229-.33c-.705-1.022-2.278-1.364-3.848-1.364-3.602 0-6.677 2.725-7.277 6.547-.31 1.907.13 3.73 1.214 5.001.995 1.17 2.414 1.656 4.105 1.656 2.902 0 4.512-1.864 4.512-1.864l-.146.905a.567.567 0 0 0 .562.656h2.935c.464 0 .86-.338.933-.798l1.763-11.143a.568.568 0 0 0-.563-.654Zm-4.543 6.336c-.312 1.86-1.792 3.109-3.677 3.109-.945 0-1.703-.303-2.189-.878-.482-.57-.663-1.383-.511-2.287.295-1.844 1.796-3.134 3.652-3.134.926 0 1.678.307 2.174.887.498.585.695 1.403.551 2.303Zm8.387-12.147-2.795 17.753a.566.566 0 0 0 .56.654h2.808a.944.944 0 0 0 .935-.798l2.755-17.433a.567.567 0 0 0-.56-.655h-3.144a.568.568 0 0 0-.56.48Z" fill="#179BD7"/><path d="m7.232 28.982.52-3.302-1.16-.027H1.057L4.904 1.284a.314.314 0 0 1 .313-.266h9.335c3.099 0 5.238.644 6.354 1.916.524.596.857 1.22 1.019 1.905.169.72.172 1.58.006 2.629l-.011.076v.672l.523.296a3.7 3.7 0 0 1 1.06.808c.448.51.737 1.158.86 1.926.126.79.084 1.731-.123 2.796-.238 1.224-.625 2.291-1.146 3.164a6.511 6.511 0 0 1-1.816 1.988c-.693.491-1.516.864-2.447 1.103-.901.234-1.93.352-3.057.352h-.727c-.52 0-1.024.187-1.42.522-.397.342-.66.81-.74 1.32l-.055.298-.92 5.82-.042.214c-.01.068-.03.101-.057.124a.154.154 0 0 1-.096.035H7.232Z" fill="#253B80"/><path d="M22.939 7.622c-.028.178-.06.36-.096.547-1.231 6.313-5.443 8.494-10.822 8.494H9.28a1.33 1.33 0 0 0-1.314 1.125l-1.402 8.884-.397 2.518a.7.7 0 0 0 .691.809h4.858a1.17 1.17 0 0 0 1.155-.984l.047-.247.915-5.797.059-.318c.09-.569.579-.987 1.154-.987h.727c4.706 0 8.39-1.908 9.468-7.431.45-2.308.217-4.234-.974-5.59a4.644 4.644 0 0 0-1.33-1.023Z" fill="#179BD7"/><path d="M21.65 7.109a9.72 9.72 0 0 0-1.196-.266 15.229 15.229 0 0 0-2.415-.176h-7.317a1.163 1.163 0 0 0-1.154.987L8.012 17.5l-.045.287a1.33 1.33 0 0 1 1.315-1.125h2.739c5.38 0 9.591-2.182 10.822-8.494.037-.187.068-.37.096-.547a6.567 6.567 0 0 0-1.013-.427 9.01 9.01 0 0 0-.275-.086Z" fill="#222D65"/><path d="M9.568 7.654a1.162 1.162 0 0 1 1.154-.986h7.317c.867 0 1.676.057 2.415.176a9.72 9.72 0 0 1 1.474.35c.363.122.7.264 1.012.428.366-2.333-.003-3.922-1.266-5.36C20.28.678 17.768 0 14.553 0H5.217C4.56 0 4 .477 3.898 1.126L.01 25.746c-.077.486.3.926.791.926h5.764l1.447-9.17 1.556-9.848Zm36.424-.944h-6.807a.945.945 0 0 0-.934.796L35.498 24.94a.566.566 0 0 0 .561.654h3.25a.945.945 0 0 0 .934-.798l.743-4.702a.944.944 0 0 1 .933-.798h2.155c4.484 0 7.071-2.168 7.747-6.462.305-1.879.013-3.355-.868-4.39-.967-1.134-2.683-1.735-4.961-1.735Zm.785 6.366c-.372 2.44-2.238 2.44-4.043 2.44h-1.027l.72-4.556a.567.567 0 0 1 .561-.478h.47c1.23 0 2.39 0 2.989.7.357.417.466 1.037.33 1.894Zm19.561-.078h-3.26a.568.568 0 0 0-.56.478l-.144.91-.228-.33c-.706-1.022-2.28-1.364-3.85-1.364-3.602 0-6.678 2.725-7.277 6.547-.312 1.907.131 3.73 1.214 5.001.993 1.17 2.415 1.656 4.106 1.656 2.902 0 4.511-1.864 4.511-1.864l-.145.905a.567.567 0 0 0 .559.656H64.2c.467 0 .86-.338.935-.798l1.761-11.143a.565.565 0 0 0-.558-.654Zm-4.543 6.336c-.315 1.86-1.793 3.109-3.678 3.109-.946 0-1.703-.303-2.189-.878-.481-.57-.664-1.383-.511-2.287.293-1.844 1.796-3.134 3.652-3.134.926 0 1.678.307 2.174.887.497.585.694 1.403.552 2.303Zm21.902-6.336h-3.275a.95.95 0 0 0-.784.414l-4.517 6.647-1.915-6.387a.949.949 0 0 0-.908-.674H69.08a.567.567 0 0 0-.539.75l3.608 10.575-3.392 4.782a.566.566 0 0 0 .463.895h3.272c.31 0 .6-.151.777-.406l10.894-15.706a.566.566 0 0 0-.466-.89Z" fill="#253B80"/><path d="M94.541 6.71h-6.807a.945.945 0 0 0-.934.796L84.047 24.94a.566.566 0 0 0 .56.654H88.1a.662.662 0 0 0 .653-.559l.781-4.941a.944.944 0 0 1 .934-.798h2.154c4.484 0 7.07-2.168 7.748-6.462.305-1.879.012-3.355-.87-4.39-.966-1.134-2.68-1.735-4.959-1.735Zm.786 6.366c-.372 2.44-2.238 2.44-4.043 2.44h-1.026l.721-4.556a.565.565 0 0 1 .56-.478h.47c1.229 0 2.39 0 2.988.7.358.417.466 1.037.33 1.894Zm19.559-.078h-3.257a.564.564 0 0 0-.56.478l-.144.91-.229-.33c-.705-1.022-2.278-1.364-3.848-1.364-3.602 0-6.677 2.725-7.277 6.547-.31 1.907.13 3.73 1.214 5.001.995 1.17 2.414 1.656 4.105 1.656 2.902 0 4.512-1.864 4.512-1.864l-.146.905a.567.567 0 0 0 .562.656h2.935c.464 0 .86-.338.933-.798l1.763-11.143a.568.568 0 0 0-.563-.654Zm-4.543 6.336c-.312 1.86-1.792 3.109-3.677 3.109-.945 0-1.703-.303-2.189-.878-.482-.57-.663-1.383-.511-2.287.295-1.844 1.796-3.134 3.652-3.134.926 0 1.678.307 2.174.887.498.585.695 1.403.551 2.303Zm8.387-12.147-2.795 17.753a.566.566 0 0 0 .56.654h2.808a.944.944 0 0 0 .935-.798l2.755-17.433a.567.567 0 0 0-.56-.655h-3.144a.568.568 0 0 0-.56.48Z" fill="#179BD7"/><path d="m7.232 28.982.52-3.302-1.16-.027H1.057L4.904 1.284a.314.314 0 0 1 .313-.266h9.335c3.099 0 5.238.644 6.354 1.916.524.596.857 1.22 1.019 1.905.169.72.172 1.58.006 2.629l-.011.076v.672l.523.296a3.7 3.7 0 0 1 1.06.808c.448.51.737 1.158.86 1.926.126.79.084 1.731-.123 2.796-.238 1.224-.625 2.291-1.146 3.164a6.511 6.511 0 0 1-1.816 1.988c-.693.491-1.516.864-2.447 1.103-.901.234-1.93.352-3.057.352h-.727c-.52 0-1.024.187-1.42.522-.397.342-.66.81-.74 1.32l-.055.298-.92 5.82-.042.214c-.01.068-.03.101-.057.124a.154.154 0 0 1-.096.035H7.232Z" fill="#253B80"/><path d="M22.939 7.622c-.028.178-.06.36-.096.547-1.231 6.313-5.443 8.494-10.822 8.494H9.28a1.33 1.33 0 0 0-1.314 1.125l-1.402 8.884-.397 2.518a.7.7 0 0 0 .691.809h4.858a1.17 1.17 0 0 0 1.155-.984l.047-.247.915-5.797.059-.318c.09-.569.579-.987 1.154-.987h.727c4.706 0 8.39-1.908 9.468-7.431.45-2.308.217-4.234-.974-5.59a4.644 4.644 0 0 0-1.33-1.023Z" fill="#179BD7"/><path d="M21.65 7.109a9.72 9.72 0 0 0-1.196-.266 15.229 15.229 0 0 0-2.415-.176h-7.317a1.163 1.163 0 0 0-1.154.987L8.012 17.5l-.045.287a1.33 1.33 0 0 1 1.315-1.125h2.739c5.38 0 9.591-2.182 10.822-8.494.037-.187.068-.37.096-.547a6.567 6.567 0 0 0-1.013-.427 9.01 9.01 0 0 0-.275-.086Z" fill="#222D65"/><path d="M9.568 7.654a1.162 1.162 0 0 1 1.154-.986h7.317c.867 0 1.676.057 2.415.176a9.72 9.72 0 0 1 1.474.35c.363.122.7.264 1.012.428.366-2.333-.003-3.922-1.266-5.36C20.28.678 17.768 0 14.553 0H5.217C4.56 0 4 .477 3.898 1.126L.01 25.746c-.077.486.3.926.791.926h5.764l1.447-9.17 1.556-9.848Z" fill="#253B80"/></g></svg>