<svg width="120" height="40" viewBox="0 0 120 40" xmlns="http://www.w3.org/2000/svg"><g fill="none" fill-rule="evenodd"><path d="M25.1334552,5.47684297 C25.150518,5.71552791 25.150518,5.95421284 25.150518,6.19509764 C25.150518,13.5349343 19.3719277,22 8.80552509,22 L8.80552509,21.9956003 C5.68417632,22 2.62766606,21.1354546 0,19.5053575 C0.453869592,19.5581541 0.910014219,19.5845525 1.36729636,19.5856524 C3.95401178,19.5878523 6.46678854,18.7486052 8.50180784,17.2032028 C6.04363193,17.1581056 3.88803575,15.6083035 3.13499898,13.3457463 C3.99609994,13.5063361 4.8833638,13.4733382 5.72853951,13.2500523 C3.04854763,12.7264854 1.12045501,10.4496291 1.12045501,7.80539599 C1.12045501,7.78119752 1.12045501,7.75809898 1.12045501,7.73500043 C1.91899248,8.16507329 2.81308145,8.40375822 3.72764574,8.43015655 C1.2034938,6.79895952 0.425431647,3.55196448 1.94970546,1.01332472 C4.86630104,4.48360567 9.16953077,6.5932725 13.7889905,6.81655841 C13.3260207,4.88728019 13.9584806,2.8656078 15.4509039,1.50939341 C17.7646151,-0.593673843 21.4035344,-0.485880647 23.5784684,1.7502782 C24.865001,1.50499368 26.0980703,1.0485225 27.2264879,0.401763323 C26.7976437,1.68758216 25.9001422,2.77981322 24.7011985,3.47386941 C25.8398537,3.3440776 26.9523461,3.04929621 28,2.5994246 C27.2287629,3.71695406 26.2573228,4.69039262 25.1334552,5.47684297 Z" transform="translate(10 9)" fill="#1D9BF0" fill-rule="nonzero"/><path d="M9.60062809,11.4188344 C9.60604071,11.8394527 9.43430324,12.2434498 9.12633857,12.5345582 C8.82866323,12.837162 8.41760659,13.0053429 7.99009775,12.9994431 L4.79984722,12.9994431 C3.52139347,13.0188474 2.29147438,12.5172502 1.40046116,11.6130734 C0.459351261,10.6879064 0,9.57494421 0,8.27142527 L0,1.93518169 C0,1.48870804 0.155918009,1.1140384 0.46962131,0.809331642 C0.78332461,0.504624882 1.16611733,0.353652349 1.61799946,0.353652349 C2.043099,0.347509084 2.45165159,0.515910874 2.74583752,0.818537284 C3.05954082,1.12784686 3.21732611,1.49975481 3.21732611,1.93426113 L3.21732611,4.22922775 L7.74735115,4.22922775 C8.15815309,4.22922775 8.5110693,4.37283576 8.80516615,4.6600518 C9.09926299,4.94726784 9.24584459,5.29155886 9.24584459,5.694766 C9.25115782,6.0846948 9.09227303,6.45934424 8.80703343,6.72948019 C8.5301228,7.00960639 8.14871709,7.16535668 7.75201935,7.16030424 L3.21732611,7.16030424 L3.21732611,8.2705047 C3.21732611,8.70593158 3.37137684,9.0759984 3.68134557,9.38070516 C3.99131431,9.68541192 4.3666379,9.83730502 4.80918363,9.83730502 L7.98356226,9.83730502 C8.42517435,9.83730502 8.80516615,9.99380094 9.11980309,10.3031105 C9.42776776,10.594219 9.59950522,10.998216 9.5940926,11.4188344 L9.60062809,11.4188344 Z M46.8678332,11.4188344 C46.8734891,11.8393148 46.7020984,12.2432913 46.3944774,12.5345582 C46.0970894,12.83702 45.6863776,13.005198 45.2591702,12.9994431 L43.8138943,12.9994431 C42.5351178,13.0191024 41.3048115,12.517485 40.4135746,11.6130734 C39.4949777,10.7394881 38.9845648,9.52965469 39.003777,8.27142527 L39.003777,1.93518169 C39.003777,1.48870804 39.159695,1.1140384 39.4733983,0.809331642 C39.7871016,0.504624882 40.1689607,0.353652349 40.6217765,0.353652349 C41.046876,0.347509084 41.4554286,0.515910874 41.7496145,0.818537284 C42.056205,1.11027871 42.2265557,1.51419382 42.2201695,1.93426113 L42.2201695,4.22922775 L45.0145563,4.22922775 C45.4118996,4.22366802 45.7940785,4.37945829 46.0714377,4.6600518 C46.3655345,4.94726784 46.5121161,5.29155886 46.5121161,5.694766 C46.5174293,6.0846948 46.3585445,6.45934424 46.0733049,6.72948019 C45.7963943,7.00960639 45.4149886,7.16535668 45.0182909,7.16030424 L42.2201695,7.16030424 L42.2201695,8.2705047 C42.2201695,8.70593158 42.3742202,9.0759984 42.6841889,9.38070516 C42.9941577,9.68541192 43.3694813,9.83730502 43.812027,9.83730502 L45.2591702,9.83730502 C45.7007823,9.83730502 46.0807741,9.99380094 46.395411,10.3031105 C46.7030321,10.5943774 46.8744227,10.9983539 46.8687669,11.4188344 L46.8678332,11.4188344 Z M38.4650663,11.4188344 C38.4650663,11.8514995 38.3063473,12.2243281 37.9917104,12.5345582 C37.6940988,12.8372544 37.2829998,13.0054527 36.8554696,12.9994431 L35.4101937,12.9994431 C34.0844238,12.9994431 32.9519175,12.5373199 32.0117412,11.6130734 C31.0924574,10.7398043 30.5813513,9.52993001 30.6000764,8.27142527 L30.6000764,1.93518169 C30.590578,1.51175452 30.7608107,1.10364611 31.0696977,0.809331642 C31.383401,0.505545447 31.7661937,0.353652349 32.2180759,0.353652349 C32.6431754,0.347509084 33.051728,0.515910874 33.3459139,0.818537284 C33.6596172,1.12784686 33.8174025,1.49975481 33.8174025,1.93426113 L33.8174025,4.22922775 L36.6108557,4.22922775 C37.0216576,4.22922775 37.3745738,4.37283576 37.6686707,4.6600518 C37.9552061,4.92938379 38.1146199,5.30448268 38.1084155,5.694766 C38.1137287,6.0846948 37.9548439,6.45934424 37.6696043,6.72948019 C37.3773748,7.00564945 37.0160558,7.16030424 36.6164575,7.16030424 L33.8080661,7.16030424 L33.8080661,8.2705047 C33.8080661,8.70593158 33.9621168,9.0759984 34.2720856,9.38070516 C34.5820543,9.68541192 34.9573779,9.83730502 35.3999236,9.83730502 L36.8470668,9.83730502 C37.2886789,9.83730502 37.6686707,9.99380094 37.9833076,10.3031105 C38.2909287,10.5943774 38.4623194,10.9983539 38.4566635,11.4188344 L38.4650663,11.4188344 Z M25.1158705,8.57613203 C25.1158705,9.79587963 24.6770593,10.8370378 23.7957024,11.7023681 C22.9630419,12.5488753 21.812496,13.0183067 20.6166556,12.9994431 C19.4832157,12.9994431 18.4851537,12.6312174 17.6224696,11.8671491 C16.814148,12.6060292 15.7491308,13.0109786 14.6469565,12.9985226 C13.4510061,13.0165406 12.3004982,12.5472626 11.466976,11.7014476 C10.6073311,10.8843285 10.1296757,9.75241157 10.1477416,8.57521146 L10.1477416,5.48671848 C10.1381519,5.0898718 10.2988494,4.70746013 10.5902873,4.433593 C10.8843842,4.15742374 11.2391676,4.0064512 11.6518369,4.0064512 C12.0500325,3.99974364 12.4336458,4.15410031 12.7133864,4.433593 C13.0084169,4.70976227 13.1559322,5.07798796 13.1559322,5.48763904 L13.1559322,8.57797315 C13.1488816,8.96785012 13.3060745,9.34316236 13.5900751,9.61452847 C13.8683943,9.89205525 14.2492878,10.0459346 14.6450892,10.0407497 C15.0465547,10.0407497 15.3920018,9.89990338 15.672094,9.61452847 C15.9557514,9.34300459 16.1125978,8.96771268 16.1053034,8.57797315 L16.1053034,5.50328864 C16.1053034,5.09824038 16.2546859,4.74658484 16.5487827,4.45016316 C16.831275,4.15976222 17.2237638,3.99862694 17.631806,4.00553064 C18.0322122,4.00023536 18.4171665,4.15772056 18.6961565,4.44095752 C18.9921206,4.73185581 19.1396359,5.07982909 19.1396359,5.48671848 L19.1396359,8.57705259 C19.1243191,8.96557892 19.2725779,9.34306489 19.5492906,9.62008605 C19.8260033,9.8971072 20.2065509,10.0490171 20.6007837,10.0398291 C21.0143866,10.0398291 21.3663691,9.89898282 21.6557978,9.61360791 C21.9397983,9.3422418 22.0969913,8.96692956 22.0899407,8.57705259 L22.0899407,5.48671848 C22.0899407,5.07982909 22.237456,4.73185581 22.5324865,4.44095752 C22.8102317,4.1575923 23.1944058,4.00001159 23.594036,4.00553064 C24.0076389,4.00553064 24.3614887,4.15097979 24.6565192,4.44095752 C24.9515497,4.73093525 25.0981313,5.07890853 25.0981313,5.48579792 L25.0981313,8.5742909 L25.1158705,8.57613203 Z M29.4619683,1.5798439 C29.4678838,2.00064282 29.2964723,2.40500184 28.9886124,2.69648831 C28.6912245,2.99895007 28.2805126,3.16712813 27.8533052,3.16137324 C27.4259455,3.1665091 27.015183,2.99844852 26.7170644,2.69648831 C26.4099756,2.40493579 26.2389675,2.00106429 26.2446422,1.58076446 C26.2446422,1.14625815 26.4033611,0.774350201 26.7170644,0.465040621 C27.014676,0.162344388 27.425775,-0.00585387244 27.8533052,0.000155685872 C28.2805554,-0.00581880481 28.691352,0.162393965 28.9886124,0.465040621 C29.304183,0.774350201 29.4619683,1.14625815 29.4619683,1.58076446 L29.4619683,1.5798439 Z M29.4619683,11.4087082 C29.4670232,11.8296116 29.2957693,12.2339317 28.9886124,12.5262731 C28.691352,12.8289198 28.2805554,12.9971326 27.8533052,12.9911581 C27.4116931,12.9911581 27.0335686,12.8365033 26.7170644,12.5262731 C26.4097815,12.2340902 26.2387854,11.8295809 26.2446422,11.4087082 L26.2446422,5.5815366 C26.2446422,5.14703028 26.4033611,4.77420177 26.7170644,4.46489219 C27.0145165,4.16185746 27.425636,3.99331773 27.8533052,3.99908669 C28.2806945,3.99335271 28.6915117,4.16190701 28.9886124,4.46489219 C29.304183,4.77420177 29.4619683,5.14610972 29.4619683,5.5815366 L29.4619683,11.4087082 Z M66,5.68556035 C66,6.08784692 65.8534184,6.43305851 65.5593216,6.72027454 C65.2832691,7.00108809 64.9018287,7.15699049 64.5052411,7.1510986 L62.309318,7.1510986 C61.8985161,7.1510986 61.5502681,7.29286549 61.2636404,7.57455815 C60.9813053,7.84340172 60.8250529,8.21588958 60.8322983,8.60282839 L60.8322983,11.521017 C60.8322983,11.9242241 60.6866504,12.2703563 60.3934871,12.5584929 C60.1182009,12.8395142 59.737494,12.9960591 59.341274,12.9911581 C58.933273,12.9911581 58.5803568,12.84755 58.2881272,12.5584929 C58.0028378,12.2880096 57.8439681,11.9130625 57.849316,11.5228581 L57.849316,8.60466952 C57.8313751,7.43795725 58.3046169,6.31608467 59.1564131,5.50605033 C59.9828773,4.66682715 61.1240143,4.20117715 62.3102517,4.21910154 L64.5043075,4.21910154 C64.9014963,4.21343523 65.2833654,4.37004114 65.5593216,4.65176673 C65.8462366,4.92038519 66.0054676,5.29551671 65.9981327,5.68556035 L66,5.68556035 Z M51.9048252,12.9902375 C50.6388083,12.9902375 49.4456154,12.5152264 48.5045055,11.5670452 C47.5633956,10.618864 47.2020766,9.58507042 47.2020766,8.2474906 C47.2020766,8.2474906 47.1105798,3.996325 51.9879193,3.996325 C55.8037091,3.996325 56.9642246,6.63834433 56.9642246,7.9437044 C56.9642246,8.98025972 56.4833996,9.34848541 55.388239,9.34848541 L50.5108995,9.34848541 C50.5108995,9.34848541 50.3241714,10.4485597 52.5649093,10.4485597 L55.3471588,10.4485597 C55.8074684,10.4485596 56.2328121,10.6906924 56.462967,11.083749 C56.6931218,11.4768055 56.6931218,11.9610711 56.462967,12.3541276 C56.2328121,12.7471842 55.8074684,12.989317 55.3471588,12.9893169 L51.9113607,12.9893169 L51.9048252,12.9902375 Z M50.543577,7.34257596 L53.7459648,7.34257596 C53.7459648,6.30510008 52.1531737,6.30510008 52.1531737,6.30510008 C52.1531737,6.30510008 50.543577,6.30510008 50.543577,7.34257596 Z" transform="translate(44 14)" fill="#1DA1F2" fill-rule="nonzero"/></g></svg>