<svg xmlns="http://www.w3.org/2000/svg" viewBox="0 0 120 40"  xmlns:v="https://vecta.io/nano"><path fill="#f2f2f2" d="M39.403 30.963H12.28c-1.059 0-1.946-.835-1.946-1.922V10.277a1.95 1.95 0 0 1 1.946-1.946h27.122a1.95 1.95 0 0 1 1.946 1.946v18.739c-.025 1.108-.887 1.946-1.946 1.946h0z"/><path fill="#221f1f" opacity=".1" d="M14.202 30.963l11.602-8.492.074-.492-11.947-8.597-.025 17.16z"/><g fill="#d44c3d"><path d="M12.28 30.963c-1.084 0-1.946-.835-1.946-1.922V10.25c0-1.084.862-1.281 1.946-1.281s1.946.222 1.946 1.281v20.71l-1.946.003z"/><path d="M12.28 9.267c1.38 0 1.65.422 1.65.985v20.439h-1.65a1.65 1.65 0 0 1-1.65-1.65V10.253c-.025-.591.271-.985 1.65-.985zm0-.271c-1.084 0-1.946.222-1.946 1.256v18.764c0 1.108.862 1.946 1.946 1.946h1.946v-20.71c-.025-1.059-.862-1.256-1.946-1.256zm27.122.271c1.256 0 1.65.246 1.65.936v18.863a1.65 1.65 0 0 1-1.65 1.65h-1.65V10.203c-.025-.715.394-.936 1.65-.936h0zm0-.271c-1.084 0-1.946.148-1.946 1.21V30.99h1.946c1.084 0 1.946-.862 1.946-1.946V10.179c-.025-1.059-.887-1.182-1.946-1.182z"/><path d="M39.402 30.963h-1.946v-20.76c0-1.084.862-1.21 1.946-1.21s1.946.148 1.946 1.21v18.863a1.94 1.94 0 0 1-1.946 1.897h0z"/></g><path fill="#221f1f" d="M31.101 30.963L10.507 11.065l1.084.443 14.337 10.322 15.421-11.31v18.543c0 1.059-.862 1.921-1.946 1.921l-8.302-.021z" opacity=".08"/><g fill="#d44c3d"><path d="M25.804 22.496L11.171 11.878c-.862-.641-1.109-1.872-.468-2.734a1.99 1.99 0 0 1 2.759-.419l12.364 8.991 12.44-9.114a1.92 1.92 0 0 1 2.713.444c.641.862.443 2.069-.443 2.71l-14.731 10.74z"/><path d="M39.402 8.528a1.68 1.68 0 0 1 1.355.69 1.68 1.68 0 0 1-.37 2.316L25.804 22.151l-14.46-10.494c-.739-.542-.936-1.601-.422-2.316.295-.443.816-.715 1.38-.715.37 0 .715.098.985.32l12.342 8.967.172.098.172-.098 12.416-9.114c.32-.172.641-.271 1.013-.271h0zm0-.295c-.394 0-.816.098-1.133.37l-12.443 9.114L13.437 8.7c-.32-.246-.739-.369-1.158-.369-.619.025-1.232.295-1.601.816-.619.862-.37 2.069.492 2.71l14.633 10.642 14.734-10.74a1.96 1.96 0 0 0 .443-2.71c-.394-.518-.985-.816-1.576-.816h-.003z"/></g><path fill="#787879" d="M68.67 20.281c0 2.326-.69 4.18-2.07 5.561-1.551 1.645-3.591 2.467-6.119 2.467-2.42 0-4.467-.838-6.142-2.513s-2.513-3.738-2.513-6.189.838-4.514 2.513-6.189 3.723-2.513 6.142-2.513c1.225 0 2.381.217 3.467.651s1.978 1.047 2.672 1.838l-1.535 1.536c-.512-.62-1.175-1.106-1.989-1.454s-1.687-.523-2.618-.523c-1.814 0-3.348.628-4.607 1.885-1.241 1.272-1.861 2.862-1.861 4.77s.62 3.498 1.861 4.77c1.256 1.256 2.792 1.885 4.607 1.885 1.66 0 3.04-.465 4.142-1.396s1.737-2.21 1.908-3.839h-6.05v-2.001h8.074c.076.415.115.835.116 1.256l.003-.001zm4.372 7.652h-2.138V16.536h2.047v1.582h.093c.326-.558.826-1.024 1.501-1.396s1.345-.558 2.012-.558c.838 0 1.574.197 2.21.581a3.43 3.43 0 0 1 1.396 1.605c.946-1.458 2.257-2.187 3.933-2.187 1.318 0 2.334.403 3.048 1.21s1.07 1.954 1.07 3.443v7.117h-2.138v-6.791c0-1.07-.197-1.842-.582-2.315s-1.039-.709-1.954-.709c-.822 0-1.512.349-2.07 1.047s-.838 1.52-.838 2.467v6.302h-2.138v-6.791c0-1.07-.197-1.842-.581-2.315s-1.039-.709-1.954-.709c-.823 0-1.513.349-2.07 1.047s-.838 1.52-.838 2.467v6.302h-.009zm21.894-11.77c1.582 0 2.831.423 3.746 1.268s1.373 2.005 1.373 3.478v7.024h-2.047v-1.582h-.093c-.884 1.303-2.063 1.954-3.537 1.954-1.256 0-2.307-.372-3.153-1.117s-1.268-1.675-1.268-2.792c0-1.182.446-2.117 1.338-2.815s2.083-1.047 3.572-1.047c1.272 0 2.319.233 3.141.698v-.489c0-.744-.295-1.376-.884-1.896a3.03 3.03 0 0 0-2.07-.779c-1.195 0-2.138.504-2.841 1.513l-1.885-1.187c1.039-1.489 2.575-2.234 4.607-2.234l.003.004zm-2.769 8.283c0 .558.236 1.024.71 1.396s1.027.558 1.663.558c.899 0 1.702-.333 2.408-1.001s1.059-1.45 1.059-2.35c-.667-.527-1.598-.791-2.792-.791-.869 0-1.594.209-2.175.628s-.873.939-.873 1.559h0zm13.077-11.843c.007.403-.153.79-.442 1.07-.295.295-.651.442-1.07.442s-.776-.147-1.07-.442-.442-.651-.442-1.07c-.007-.403.153-.79.442-1.07.28-.289.668-.449 1.07-.442.403-.007.79.153 1.07.442a1.46 1.46 0 0 1 .442 1.07h0zm-.442 3.933v11.398h-2.138V16.536h2.138zm4.932-5.256v16.654h-2.138V11.28h2.138z"/></svg>