<svg viewBox="0 0 120 40" xmlns="http://www.w3.org/2000/svg"><defs><radialGradient cx="-16.694%" cy="161.775%" fx="-16.694%" fy="161.775%" r="413.234%" gradientTransform="matrix(.98615 -.16574 .16587 .98534 -.27 -.004)" id="a"><stop stop-color="#FED576" offset="0%"/><stop stop-color="#F47133" offset="26.3%"/><stop stop-color="#BC3081" offset="60.9%"/><stop stop-color="#4C63D2" offset="100%"/></radialGradient><radialGradient cx="-448.523%" cy="733.485%" fx="-448.523%" fy="733.485%" r="1735.21%" gradientTransform="matrix(.98615 -.1645 .16587 .97795 -1.279 -.576)" id="b"><stop stop-color="#FED576" offset="0%"/><stop stop-color="#F47133" offset="26.3%"/><stop stop-color="#BC3081" offset="60.9%"/><stop stop-color="#4C63D2" offset="100%"/></radialGradient><radialGradient cx="15.932%" cy="107.29%" fx="15.932%" fy="107.29%" r="211.359%" id="c"><stop stop-color="#FED576" offset="0%"/><stop stop-color="#F47133" offset="26.3%"/><stop stop-color="#BC3081" offset="60.9%"/><stop stop-color="#4C63D2" offset="100%"/></radialGradient></defs><g fill="none"><path d="M39.99 13.418C41.408 12.042 42.287 12 42.287 12a2.33 2.33 0 0 1 .947.192c.67.23.708.593.708.593V22.87c.087 2.82-.623 3.902-1.471 4.656a1.806 1.806 0 0 1-.92.439.185.185 0 0 1-.156-.032.18.18 0 0 1-.072-.14c.014-.195.057-.387.126-.57.428-1.089.392-2.96.392-2.96l.04-10.855s.034-.2-.137-.118c-1.672 1.422-1.882 3.43-1.936 4.404-.027 1.46.6 2.213.6 2.213.097.09.15.218.143.35a.236.236 0 0 1-.07.19.241.241 0 0 1-.191.068c-.63-.06-1.633-.76-1.99-1.612a3.334 3.334 0 0 1-.3-1.305 6.84 6.84 0 0 1 1.999-4.179h-.008Zm73.003 9.627c0 3.238-1.984 3.187-1.984 3.187-1.888.065-2.37-1.906-2.487-3.911-.091-1.51 0-3.188 0-3.188s0-.077-.066 0c-.632 1.132-1.06 2.854-1.27 4.184-.093.59-.15 1.184-.169 1.78a.295.295 0 0 1-.128.296c-1.025.466-1.684-.195-1.918-.934-.3-.701-.492-4.911-.492-5.13 0-.22-.177-.069-.177-.069-1.42 2.334-1.433 5.793-1.433 6.487s-1.199.48-1.199.48c-1.025-.077-.985-.57-.985-.57l-.048-.837c-.356.651-1.016 1.482-2.034 1.426-1.54-.098-1.837-1.675-1.862-1.942 0 0-.767 1.962-2.874 1.942-1.433-.024-2.008-1.482-2.008-1.482s-.577 1.532-1.983 1.482c-1.407-.05-2.57-1.662-2.481-3.75a13.54 13.54 0 0 1 .426-3.135s.114-.2-.078-.223c-.193-.022-1.409.02-1.409.02s-.688 2.731-3.597 6.127l.02 2.243c0 2.233-.28 5.228-3.339 5.472-2.643-.178-2.493-2.193-2.493-2.193-.063-.593.314-1.685 1.892-3.15l2.206-2.028-.062-.938c-1.01 1.653-2.554 1.56-2.554 1.56s-1.199.24-2.196-1.515c-.3.593-.965 1.629-2.06 1.51-1.541-.17-1.847-1.688-1.871-1.958 0 0-.77 1.98-2.89 1.957-1.436-.024-2.016-1.497-2.016-1.497a4.69 4.69 0 0 1-.362-1.02l-.063.184c-.327.827-1.133 2.265-2.373 2.283-2.277 0-2.373-3.493-2.373-3.493-.665 1.563-1.951 3.535-4.348 3.523-2.398-.012-2.697-.869-2.697-.993a.867.867 0 0 1 .233-.653c.276-.395.506-.558.709-.558.2.056.384.157.536.297a1.87 1.87 0 0 0 1.112.503c.755-.027.921-.626.974-1.236.052-.611-.385-1.264-.989-1.809l-1.066-.963-2.002 3.262c-1.166 1.878-2.323 2.168-2.769 2.11-.607-.084-1.199-.707-1.234-2.53l.137-5.098c0-.163-.15-.083-.15-.083-2.304 2.42-2.995 7.397-2.995 7.494a.412.412 0 0 1-.41.204c-.207 0 .068 0-.756-.04-.823-.04-.767-1.569-.767-1.569l.054-7.414c0-.246.246-.352 1.028-.148.782.205.755.445.755.445l-.027 4.306c2.016-5.886 3.538-4.964 4.46-4.513.92.45.782 1.097.782 1.097l-.138 4.376c-.04 1.142.121 1.59.384 1.633.654.154 2.95-4.23 2.95-4.23-1.017-1.088-.462-2.417.33-2.992a2.555 2.555 0 0 1 1.198-.435s1.028-.053 1.002.804c.027.937-1.028 2.076-1.028 2.076 2.044 1.442 2.995 2.203 3.155 3.319a2 2 0 0 1-.06.88c1.454-1.25 1.565-2.65 1.565-2.65l.024-4.68L60 16.41s-.165 0-.202-.41c-.03-.395.116-.782.398-1.062l2.057.027.08-2.446c.07-.49.385-.558 1.289-.327.903.232.898.436.898.436l-.1 2.462 2.564.136c.304.027.4.1.33.6a.743.743 0 0 1-.371.626l-2.55.054-.177 5.427c0 .841.04 2.83.836 2.804 1.113.053 1.767-2.408 1.767-2.408v-.02a9.835 9.835 0 0 1 .051-1.361c.21-1.978 1.113-4.294 3.147-4.294a2.187 2.187 0 0 1 1.903 1.186l.033-.444s-.044-.537.815-.404 1.153.469 1.133.738l-.069 5.481c.115 1.187.321 1.88.93 1.833.523-.077.898-.786 1.12-1.388-.76-6.263 2.697-7.023 2.697-7.023s1.535-.1 2.233 1.153l.02-.42s-.069-.555.743-.4c.238.035.472.095.698.177.36.134.474.223.474.555l-.07 6.186s1.799-2.396 2.257-4.727a1.479 1.479 0 0 1-.599-1.132c.045-.667.385-1.465 1.377-1.465.991 0 1.072.869.926 1.462 0 0 .832-.1 1.555-.297.722-.196 1.69-.296 1.759.821a1.26 1.26 0 0 1-.135.712s-.573 2.474-.483 3.473c.09 1 .36 2.509 1.151 2.332.791-.178 1.06-1.287 1.06-1.287A8.944 8.944 0 0 1 91.388 21c.21-1.963 1.097-4.261 3.135-4.261a2.178 2.178 0 0 1 1.894 1.187l.024-.445s-.044-.534.813-.4c.857.133 1.15.465 1.126.73l-.069 5.438c.115 1.187.318 1.869.923 1.82.606-.047 1.076-.993 1.382-1.779v-.296l.018-5.774a.39.39 0 0 1 .35-.35l.701.107c.982.145.845.516.845.516v3.263c.729-2.216 1.079-3.06 1.409-3.626.281-.48 1.2-.166 1.2-.166s1 .265 1.011 1.187c-.03 1.506.186 3.959.186 3.959s.039.05.057.033a.097.097 0 0 0 .015-.053c.283-1.67.777-3.298 1.468-4.846.363-.673 1.412-.196 1.412-.196 1.259.427 1.088 1.166 1.088 1.166-.371 6.332.42 6.732.887 6.774.468.042.714-.558.815-.842.101-.283.233-.907.3-1.153a.374.374 0 0 1 .323-.259.354.354 0 0 1 .3.297l-.007.014ZM70.52 18.193c-.44.018-1.477.296-1.663 3.154-.187 2.859.578 3.592 1.222 3.676.644.084 1.798-.942 1.852-3.976.053-3.034-1.412-2.854-1.412-2.854h.001Zm9.037 0c-.45.018-1.577.407-1.832 3.167-.189 2.889.6 3.636 1.241 3.723.642.087 1.798-.952 1.88-4.028.08-3.076-1.29-2.847-1.29-2.847v-.015Zm1.498 8.859c-2.554 2.183-2.775 3.742-2.775 3.742s-.253 1.278.976 1.342c1.478.148 1.727-1.629 1.765-3.183l.048-1.885-.014-.016Zm14.015-8.758c-.44.018-1.477.297-1.663 3.155-.187 2.858.578 3.59 1.222 3.675.644.084 1.798-.942 1.852-3.976.053-3.034-1.412-2.854-1.412-2.854h.001Z" fill="#16375F"/><path d="M13.011 6.364a6.638 6.638 0 0 0-1.972.3l-.61.225-.581.281-.548.334-.512.384-.473.43-.43.474-.384.512-.334.549-.28.581a6.596 6.596 0 0 0-.49 3.263 6.602 6.602 0 0 0 .49 1.907l.28.581.334.549.384.512.43.474.473.43.512.384.548.334.581.28.61.225.636.165a6.587 6.587 0 0 0 2.014.101c.221-.023.44-.056.658-.101l.637-.165.61-.224.58-.281.549-.334.512-.384.473-.43.43-.474.383-.512.334-.549.281-.581.225-.611c.065-.208.12-.42.164-.637l.101-.659a6.662 6.662 0 0 0-.265-2.652l-.225-.61-.28-.582-.335-.549-.383-.513-.43-.473-.473-.43-.512-.384-.548-.334-.581-.28-.61-.225-.637-.165-.658-.101a6.656 6.656 0 0 0-.678-.035Zm0 2.297c.152 0 .3.008.448.023l.433.065.418.107.4.146.382.183.358.217.335.25.308.28.28.31.25.335.218.359.182.381a4.375 4.375 0 0 1 .318 1.255l.023.447a4.467 4.467 0 0 1-.195 1.301l-.146.401-.182.382-.217.359-.25.335-.28.31-.31.28-.334.25-.358.217-.381.183-.4.146-.42.106-.432.066a4.479 4.479 0 0 1-.895 0l-.433-.066a4.352 4.352 0 0 1-.419-.106l-.4-.146-.381-.183-.358-.217-.335-.25-.309-.28-.28-.31-.25-.335-.217-.36-.183-.38-.146-.402-.106-.418-.066-.435a4.493 4.493 0 0 1 .172-1.749l.146-.4.183-.382.217-.36.25-.334.28-.31.309-.28.335-.25.358-.217.38-.183c.132-.055.266-.104.401-.146l.419-.107a4.402 4.402 0 0 1 .88-.088Z" fill="url(#a)" transform="translate(9 7)"/><path d="M19.93 4.471a1.567 1.567 0 0 0-1.136.485 1.593 1.593 0 0 0-.447 1.112 1.61 1.61 0 0 0 .599 1.25 1.584 1.584 0 0 0 1.299.315 1.573 1.573 0 0 0 1.018-.702 1.6 1.6 0 0 0 .18-1.335 1.605 1.605 0 0 0-.795-.95 1.577 1.577 0 0 0-.718-.175Z" fill="url(#b)" transform="translate(9 7)"/><path d="M11.75 0c-.723 0-1.368.002-1.948.01L8.248.052c-.46.02-.867.046-1.232.08a15.096 15.096 0 0 0-.983.125 9.01 9.01 0 0 0-.805.177 6.783 6.783 0 0 0-.7.235 8.72 8.72 0 0 0-1.151.565 5.25 5.25 0 0 0-.855.644c-.14.128-.284.269-.432.426-.187.196-.35.38-.494.559a5.823 5.823 0 0 0-.383.537 5.103 5.103 0 0 0-.31.574 8.059 8.059 0 0 0-.588 1.823 10.51 10.51 0 0 0-.11.7c-.035.28-.062.561-.083.843-.023.309-.043.65-.059 1.028l-.037 1.26-.02 1.534L0 13.018l.017 2.698.053 2.045.041.798.052.662c.016.178.037.356.061.534.023.157.047.295.073.414.053.243.115.483.187.72.069.228.147.453.236.673a6.728 6.728 0 0 0 1.005 1.736 6.311 6.311 0 0 0 .923.932c.173.142.353.275.539.4.172.115.343.221.515.318a6.38 6.38 0 0 0 1.677.657c.21.051.433.096.67.135.235.04.487.073.756.102.27.03.557.053.865.073.309.02.639.036.993.05.547.019 1.376.03 2.332.035l3.094-.006 2.93-.041 1.114-.032.726-.037a12.12 12.12 0 0 0 .888-.106 9.236 9.236 0 0 0 .816-.17 7.245 7.245 0 0 0 .77-.243 8.325 8.325 0 0 0 .752-.321c.192-.093.347-.17.484-.246.128-.07.251-.15.369-.236.116-.086.232-.183.365-.306.133-.123.284-.272.471-.459.165-.164.303-.308.423-.438s.22-.247.308-.36a3.83 3.83 0 0 0 .437-.693c.1-.195.188-.376.268-.55.077-.169.147-.34.21-.514a5.67 5.67 0 0 0 .163-.525c.047-.183.088-.375.123-.587.035-.212.064-.442.09-.7.025-.256.047-.54.066-.86l.051-1.072.044-1.333.031-1.485.012-1.554-.028-3.05-.037-1.366-.05-1.173-.064-.915a6.372 6.372 0 0 0-.074-.59 9.991 9.991 0 0 0-.213-.877 8.516 8.516 0 0 0-.283-.809 6.82 6.82 0 0 0-.355-.74 6.712 6.712 0 0 0-.425-.671 6.265 6.265 0 0 0-1.062-1.137 6.305 6.305 0 0 0-.982-.671 7.126 7.126 0 0 0-.362-.19 11.796 11.796 0 0 0-.576-.264 5.896 5.896 0 0 0-1.157-.36 8.613 8.613 0 0 0-.72-.113 16.648 16.648 0 0 0-.907-.078 37.823 37.823 0 0 0-1.164-.05l-1.49-.034-1.885-.023L11.75.001Zm1.254 2.295 3.482.02 1.314.026c.362.01.638.022.8.035.21.018.411.04.603.067.184.026.368.057.55.095.175.037.342.079.501.126.16.047.313.1.459.158a4.553 4.553 0 0 1 .81.422 4.384 4.384 0 0 1 .703.58c.117.116.225.235.324.357a3.913 3.913 0 0 1 .69 1.268c.055.165.105.34.149.528.046.198.084.398.115.6.033.214.062.441.086.685.024.244.044.504.06.783.014.223.025.517.035.865l.024 1.186.019 2.906-.021 2.903-.026 1.182-.035.86c-.024.403-.05.742-.08 1.037a8.493 8.493 0 0 1-.112.772 5.232 5.232 0 0 1-.168.631 5.332 5.332 0 0 1-.113.3 7.434 7.434 0 0 1-.135.31 4.628 4.628 0 0 1-.282.519 4.023 4.023 0 0 1-.739.864 3.955 3.955 0 0 1-.461.347 4.45 4.45 0 0 1-.525.293 5.238 5.238 0 0 1-.592.239 6.836 6.836 0 0 1-.659.187 8.832 8.832 0 0 1-.729.137c-.094.014-.31.027-.62.039l-1.18.033-3.348.043-3.504.006-1.376-.015-.894-.028-.659-.046a15.465 15.465 0 0 1-.573-.059 9.753 9.753 0 0 1-.5-.073 6.694 6.694 0 0 1-.441-.092 4.425 4.425 0 0 1-1.434-.615 4.463 4.463 0 0 1-.88-.727 3.74 3.74 0 0 1-.494-.677 4.227 4.227 0 0 1-.258-.53 6.478 6.478 0 0 1-.29-.934 9.259 9.259 0 0 1-.133-.727 13.358 13.358 0 0 1-.093-.822 18.927 18.927 0 0 1-.042-.968l-.023-1.496.008-3.813.066-3.643.05-1.284.028-.424c.01-.114.02-.197.03-.248.035-.166.07-.32.105-.464a7.62 7.62 0 0 1 .112-.406c.038-.127.08-.246.123-.358a3.929 3.929 0 0 1 .304-.615 4.456 4.456 0 0 1 .417-.552 6.54 6.54 0 0 1 .61-.6c.113-.096.231-.187.353-.271a3.937 3.937 0 0 1 .774-.411c.14-.056.288-.106.444-.15.165-.047.33-.086.498-.119.176-.034.362-.064.562-.09.2-.027.412-.05.639-.07.158-.013.43-.025.79-.035l1.307-.026 3.476-.021Z" fill="url(#c)" transform="translate(9 7)"/></g></svg>