<svg viewBox="0 0 120 40" xmlns="http://www.w3.org/2000/svg"><g fill="none" fill-rule="evenodd"><path d="m8.276 2.64 20.932-1.554c2.57-.221 3.232-.072 4.848 1.109l6.682 4.728c1.102.813 1.469 1.035 1.469 1.92v25.933c0 1.625-.588 2.586-2.644 2.733l-24.308 1.478c-1.543.074-2.278-.148-3.086-1.183l-4.92-6.427C6.365 30.194 6 29.31 6 28.274V5.224c0-1.33.588-2.438 2.276-2.585Z" fill="#FFF" fill-rule="nonzero"/><path d="M29.208 1.086 8.276 2.64C6.588 2.786 6 3.895 6 5.223v23.05c0 1.036.366 1.921 1.248 3.104l4.92 6.427c.809 1.035 1.544 1.257 3.087 1.183l24.308-1.478c2.055-.147 2.644-1.108 2.644-2.733V8.843c0-.84-.33-1.081-1.303-1.798l-.167-.122-6.68-4.728c-1.617-1.18-2.278-1.33-4.85-1.109ZM15.805 8.42c-1.985.134-2.435.165-3.562-.756l-2.866-2.29c-.291-.297-.145-.667.589-.74l20.122-1.477c1.69-.148 2.57.443 3.23.96l3.452 2.512c.147.075.514.517.073.517L16.063 8.4l-.258.018Zm-2.314 26.135V12.539c0-.96.294-1.404 1.174-1.479l23.867-1.403c.81-.074 1.176.443 1.176 1.403v21.867c0 .962-.148 1.775-1.47 1.849L15.4 36.106c-1.321.073-1.908-.37-1.908-1.552ZM36.037 13.72c.146.665 0 1.33-.662 1.406l-1.1.22v16.253c-.957.517-1.837.812-2.572.812-1.175 0-1.469-.37-2.349-1.477l-7.199-11.377v11.007l2.278.518s0 1.33-1.838 1.33l-5.065.295c-.147-.296 0-1.035.513-1.182l1.323-.368V16.603l-1.836-.15c-.147-.665.22-1.625 1.248-1.7l5.435-.367 7.49 11.524V15.715l-1.909-.22c-.147-.815.44-1.406 1.174-1.479l5.069-.296Z" fill="#000"/><path d="M57.246 27.918v-10.02h.173l7.192 10.02h2.265V13.194h-2.518v10.01h-.173l-7.192-10.01h-2.274v14.723h2.528Zm16.747.225c3.322 0 5.344-2.183 5.344-5.806 0-3.612-2.032-5.806-5.344-5.806-3.301 0-5.343 2.204-5.343 5.806 0 3.623 2.011 5.806 5.343 5.806Zm0-2.123c-1.757 0-2.762-1.346-2.762-3.683 0-2.327 1.005-3.683 2.762-3.683 1.747 0 2.752 1.356 2.752 3.683 0 2.337-.995 3.683-2.752 3.683Zm7.645-11.999v2.806H79.88v2.02h1.757v6.092c0 2.163 1.016 3.03 3.566 3.03.486 0 .954-.05 1.32-.122v-1.98c-.305.03-.498.05-.854.05-1.055 0-1.523-.488-1.523-1.59v-5.48h2.377v-2.02h-2.377V14.02h-2.51v.001Zm6.395 13.897h2.51V16.755h-2.51v11.163Zm1.25-13.009c.832 0 1.503-.675 1.503-1.52 0-.848-.67-1.532-1.503-1.532-.822 0-1.503.684-1.503 1.531 0 .846.68 1.52 1.503 1.52v.001Zm8.143 13.234c3.321 0 5.343-2.183 5.343-5.806 0-3.612-2.032-5.806-5.343-5.806-3.302 0-5.344 2.204-5.344 5.806 0 3.623 2.011 5.806 5.344 5.806Zm0-2.123c-1.758 0-2.764-1.346-2.764-3.683 0-2.327 1.006-3.683 2.764-3.683 1.747 0 2.753 1.356 2.753 3.683 0 2.337-.996 3.683-2.753 3.683Zm6.842 1.898h2.52v-6.5c0-1.642.945-2.683 2.447-2.683 1.534 0 2.244.857 2.244 2.56v6.623H114v-7.224c0-2.664-1.352-4.163-3.83-4.163-1.656 0-2.774.765-3.302 2.01h-.173v-1.786h-2.427v11.163Z" fill="#000" fill-rule="nonzero"/></g></svg>