<svg viewBox="0 0 123 30" xmlns="http://www.w3.org/2000/svg"><g fill="none"><path d="M118.488 20.84v-.316h.204c.108 0 .264.012.264.14 0 .129-.084.176-.216.176h-.252m0 .222h.144l.324.549h.348l-.36-.573a.31.31 0 0 0 .336-.292V20.7c0-.303-.216-.397-.576-.397h-.517v1.309h.3v-.55m1.513-.104c0-.772-.612-1.216-1.296-1.216-.685 0-1.297.444-1.297 1.216 0 .77.612 1.215 1.297 1.215.684 0 1.296-.444 1.296-1.215m-.384 0c.024.49-.372.911-.876.934h-.036a.953.953 0 0 1-.997-.9c-.024-.514.396-.946.925-.97a.953.953 0 0 1 .996.9c-.012.012-.012.024-.012.036ZM72.406 7.973v13.79h3.997V7.973h-3.998Zm-31.45-.023v13.8h4.033V11.035l3.145.012c1.032 0 1.752.245 2.245.76.636.654.888 1.717.888 3.645v6.3h3.913v-7.62c0-5.446-3.565-6.182-7.046-6.182h-7.178Zm37.895.023v13.79h6.482c3.457 0 4.586-.561 5.798-1.811.864-.877 1.417-2.817 1.417-4.932 0-1.94-.469-3.67-1.297-4.745-1.464-1.928-3.601-2.302-6.794-2.302h-5.606Zm3.962 2.992h1.716c2.497 0 4.105 1.087 4.105 3.915 0 2.828-1.608 3.926-4.105 3.926h-1.716v-7.841Zm-16.17-2.992L63.308 18.9 60.114 7.973h-4.322l4.562 13.79h5.761l4.61-13.79h-4.081Zm27.777 13.79h3.997V7.973H94.42v13.79Zm11.212-13.79-5.582 13.778h3.937l.888-2.442h6.602l.84 2.43h4.286l-5.63-13.766h-5.341Zm2.592 2.513 2.425 6.45h-4.921l2.496-6.45Z" fill="#000"/><path d="M15.16 10.264V8.37c.192-.012.384-.024.576-.024 5.33-.163 8.823 4.464 8.823 4.464s-3.77 5.096-7.815 5.096a5.08 5.08 0 0 1-1.572-.246v-5.75c2.076.246 2.497 1.134 3.733 3.156l2.773-2.267s-2.029-2.583-5.438-2.583c-.36-.012-.72.012-1.08.047m0-6.264v2.828l.576-.035c7.406-.245 12.244 5.913 12.244 5.913s-5.546 6.568-11.32 6.568a9.03 9.03 0 0 1-1.488-.129v1.753c.408.047.828.082 1.236.082 5.378 0 9.267-2.676 13.036-5.831.624.49 3.181 1.67 3.71 2.185-3.578 2.921-11.92 5.27-16.65 5.27-.456 0-.888-.023-1.32-.07V25h20.43V4H15.16Zm0 13.661v1.496c-4.97-.865-6.35-5.902-6.35-5.902s2.389-2.57 6.35-2.991V11.9h-.012c-2.077-.246-3.71 1.648-3.71 1.648s.925 3.19 3.722 4.113m-8.823-4.616s2.94-4.23 8.835-4.674V6.828C8.642 7.342 3 12.718 3 12.718s3.193 8.998 12.16 9.816v-1.636c-6.578-.794-8.823-7.853-8.823-7.853Z" fill="#76B900"/></g></svg>