<svg width="120" height="40" viewBox="0 0 120 40" xmlns="http://www.w3.org/2000/svg"><g transform="translate(10 8)" fill="none"><path d="M39.6277151,6.0008645 C39.4031,5.77255215 39.144789,5.58110454 38.861965,5.43341316 C38.7224415,5.35876884 38.5771415,5.29595032 38.4273982,5.24561002 L38.5227837,5.19865924 C38.7060008,5.10287544 38.8747028,4.98089039 39.0235576,4.83645355 C39.2710563,4.57858043 39.4556805,4.26576268 39.5627671,3.92289672 C39.6799254,3.55550927 39.7376158,3.17136171 39.7336908,2.78531693 C39.737912,2.41185535 39.6760003,2.04065844 39.5508439,1.6893187 C39.4382031,1.37487367 39.2570595,1.0901469 39.0208915,0.856255353 C38.5069354,0.349171133 37.6418008,0.00306658296 36.4785864,0.00306658296 L30.3751731,0.00306658296 L30.3751731,10.9805122 L36.9184854,10.9805122 C37.429331,10.9909357 37.9378069,10.9077726 38.419474,10.7349974 C38.8176789,10.5851688 39.1792255,10.3499274 39.4793048,10.045471 C39.7310988,9.78398338 39.9232769,9.4699283 40.0423606,9.12520261 C40.1769223,8.74568189 40.2446846,8.34523917 40.2423888,7.94202184 C40.2456473,7.57089993 40.1957328,7.2012403 40.0940525,6.8446663 C40.0059246,6.53033376 39.8461835,6.2413251 39.6277151,6.0008645 Z M37.2271552,8.5456855 C37.1082937,8.63409785 36.9731395,8.69746379 36.829691,8.73210883 C36.640327,8.77927709 36.4457791,8.80184886 36.2507128,8.79922423 L32.9188112,8.79922423 L32.9188112,6.57636218 L36.2772252,6.57636218 C36.6085566,6.56101188 36.9352963,6.65933031 37.2046419,6.85539727 C37.3223926,6.95380569 37.4108908,7.08336466 37.4602869,7.22966873 C37.5165703,7.39992438 37.543453,7.57869881 37.5397501,7.75822313 C37.5427124,7.91757534 37.5170887,8.07625264 37.464286,8.22638117 C37.4152602,8.35258812 37.333279,8.46297233 37.2271552,8.5456855 Z M36.9462568,2.77727058 C37.0080204,2.93853501 37.0394206,3.11005048 37.0389762,3.28300574 C37.0422347,3.4762831 37.0108345,3.6685481 36.9462568,3.85045708 C36.8960461,3.99053704 36.8149536,4.11717143 36.7091261,4.22070912 C36.6213684,4.30490708 36.5165036,4.36855797 36.4017892,4.40717745 C36.2783361,4.44840655 36.1488843,4.4683537 36.0189142,4.46620151 L32.9188112,4.46620151 L32.9188112,2.17225712 L35.7962986,2.17225712 C35.9822559,2.16854515 36.167917,2.18882975 36.3487644,2.23262348 C36.4848072,2.26498136 36.6114448,2.32931465 36.7183832,2.42043412 C36.8225815,2.52038732 36.9023409,2.64345972 36.9515889,2.7799477 L36.9462568,2.77727058 Z" fill="#000"/><polygon fill="#000" points="42.2694048 10.9794624 42.4112241 10.9794624 44.9058364 10.9794624 44.9058364 0.00203675886 42.2694048 0.00203675886"/><polygon fill="#000" points="46.5047285 2.26513133 49.9400138 2.26513133 49.9400138 10.9794624 52.5763714 10.9794624 52.5763714 2.26513133 56.0235057 2.26513133 56.0235057 0.00203675886 46.5047285 0.00203675886"/><polygon fill="#000" points="56.9681036 2.26513133 60.4020558 2.26513133 60.4020558 10.9794624 63.0384134 10.9794624 63.0384134 2.26513133 66.4868808 2.26513133 66.4868808 0.00203675886 56.9681036 0.00203675886"/><path d="M76.9304826,5.27814787 C77.1889418,4.82606753 77.3370559,4.16873405 77.3370559,3.33969014 C77.3429805,2.94473663 77.3044708,2.55039053 77.2207863,2.16454822 C77.1496916,1.84636123 77.0223134,1.54371952 76.8460576,1.27111851 C76.6061127,0.859254924 76.2476765,0.531544297 75.818886,0.332073579 C75.2797506,0.0957201353 74.6954403,-0.0169732207 74.1089083,0.00206706615 L68.0860691,0.00206706615 L68.0860691,10.9794624 L70.6428894,10.9794624 L70.6428894,6.82085721 L73.1918596,6.82085721 L75.2508683,10.9794624 L78.165014,10.9794624 L75.672253,6.3070682 C75.9381179,6.228067 76.1869497,6.09648332 76.4024557,5.91989858 C76.6187024,5.74331383 76.7979205,5.52520753 76.9304826,5.27814787 Z M74.6495249,4.29483602 C74.6199021,4.35207533 74.5791707,4.40272309 74.530293,4.44374222 C74.4332783,4.51948888 74.3214521,4.57387111 74.2029608,4.60337938 C74.0450711,4.64361863 73.8830343,4.66301086 73.720479,4.66106113 L70.6561456,4.66106113 L70.6561456,2.26516133 L73.5866579,2.26516133 C73.8314165,2.25567519 74.0755826,2.29769918 74.3036784,2.38857868 C74.3851412,2.42472351 74.4599388,2.47411144 74.5258496,2.53480026 C74.587317,2.5932694 74.6384164,2.66230453 74.6754449,2.7387036 C74.6932186,2.78213739 74.70803,2.82701097 74.718398,2.87285191 C74.7620917,3.08864104 74.7835682,3.30852459 74.7813465,3.52884308 C74.7806059,3.66737077 74.7680162,3.805576 74.744318,3.94201898 C74.7272848,4.06317915 74.6954403,4.1816922 74.6495249,4.29483602 Z" fill="#000"/><polygon fill="#000" points="82.3492383 6.64911677 87.9346224 6.64911677 87.9346224 4.33236815 82.3492383 4.33236815 82.3492383 2.30671289 88.1486473 2.30671289 88.1486473 0.00203675886 79.805378 0.00203675886 79.805378 10.9794624 79.9483082 10.9794624 88.2152987 10.9794624 88.2152987 8.68951493 82.3492383 8.68951493"/><polygon fill="#1C6FE8" points="99.9851886 14.3680777 30.4348631 14.3680777 30.4348631 23.9986502 99.9851886 23.9986502"/><path d="M55.5188808,21.8590562 L55.46593,21.3586528 C55.1850316,21.6900304 54.7770512,21.9341955 53.9278388,21.9341955 C53.0998067,21.9341955 52.4373662,21.6363381 52.0505662,21.1426837 C51.7630766,20.7764361 51.5484592,20.0936587 51.5484592,19.1934875 C51.5484592,18.4154738 51.6358466,17.8399311 52.0306448,17.2979836 C52.3711592,16.8311004 53.0123453,16.4326824 54.068251,16.4326824 C55.1916967,16.4326824 55.839548,16.8043292 56.1534759,17.3717731 C56.3205486,17.6709053 56.4082322,18.008732 56.4078619,18.3524078 L55.2844162,18.3524078 C55.2709378,18.1257902 55.1768113,17.9117708 55.01944,17.750094 C54.8962831,17.6359603 54.7519458,17.5478479 54.5947227,17.490931 C54.4374995,17.4340142 54.270723,17.4094927 54.1040206,17.4187164 C53.6350171,17.4187164 53.3011679,17.5407989 53.0746273,17.791638 C52.8480867,18.0424771 52.7275218,18.4891882 52.7275218,19.2203337 C52.7275218,19.9514791 52.8414957,20.336474 53.05478,20.6074103 C53.2296288,20.8247292 53.6165029,21.000504 54.1252009,21.000504 C54.7995645,21.000504 55.2804171,20.6543535 55.3745436,20.2157413 L55.3745436,19.7220119 L53.8483015,19.7220119 L53.8483015,18.7615493 L56.4370404,18.7615493 L56.4370404,20.4128881 C56.4370404,21.0688942 56.4436315,21.8335599 56.4436315,21.853657 L55.5188808,21.8590562 Z" fill="#FFF"/><polygon fill="#FFF" points="57.2092334 21.8589812 57.2092334 16.5131459 58.3723738 16.5131459 58.3723738 20.8649984 61.0127304 20.8649984 61.0127304 21.8589812"/><path d="M65.7636395 17.2912346C66.0709763 17.7044255 66.2113885 18.3201624 66.2113885 19.1532932 66.2113885 20.0251935 66.0444639 20.6289322 65.7437922 21.0809675 65.3767653 21.6363381 64.6746303 21.9341955 63.6386459 21.9341955 62.6026616 21.9341955 61.9282979 21.6497612 61.5467559 21.0943906 61.2194977 20.6409305 61.0658293 20.0050964 61.0658293 19.1666413 61.0658293 18.3738547 61.2062415 17.7581178 61.5202435 17.3395277 61.9177078 16.7841571 62.569484 16.4326824 63.639979 16.4326824 64.6878865 16.4326824 65.3635091 16.7372138 65.7636395 17.2912346ZM64.6878865 20.5873131C64.9422725 20.329725 65.0495812 19.7690302 65.0495812 19.1800644 65.0495812 18.5911736 64.9422725 18.0559002 64.72099 17.819834 64.4997815 17.5836928 64.2202161 17.4066431 63.6386459 17.4066431 63.0570758 17.4066431 62.7960246 17.5689199 62.569484 17.826508 62.3615318 18.0626492 62.2422999 18.6112708 62.2422999 19.1868135 62.2422999 19.7891273 62.374788 20.3431481 62.6396901 20.6141593 62.8543816 20.8314782 63.135206 20.9736579 63.6492361 20.9736579 64.1937037 20.9736579 64.4746021 20.8032822 64.6878865 20.5873131ZM70.1342655 21.8589812 66.933519 21.8589812 66.933519 16.5131459 69.914316 16.5131459C70.482704 16.5131459 70.8960165 16.6821717 71.1371463 16.9156133 71.250972 17.0370959 71.339248 17.1807004 71.3966423 17.3377279 71.4540365 17.4947555 71.4792899 17.6619816 71.4709955 17.8292076 71.489806 18.1855567 71.3699077 18.5351567 71.1371463 18.8030933 70.9945124 18.9364993 70.8193674 19.029111 70.6297073 19.071405 70.9365997 19.1155736 71.2205345 19.2607529 71.437892 19.4845959 71.631255 19.6871419 71.7253816 20.0211441 71.7253816 20.4048642 71.7381935 20.7735865 71.6089639 21.1328601 71.3650199 21.4069459 71.0973776 21.6832814 70.7025794 21.8589812 70.1342655 21.8589812ZM70.0812406 17.595766C69.9342373 17.4886813 69.7542786 17.4382886 69.5738756 17.4535864L68.0635558 17.4535864 68.0635558 18.7467764 69.6851093 18.7467764C69.8310018 18.7545753 69.9739319 18.7034326 70.0825736 18.6045967 70.1474476 18.5352317 70.1975102 18.4531184 70.229651 18.3633562 70.2617917 18.2735941 70.2753442 18.1780577 70.2693456 18.0827464 70.2720116 17.9930592 70.2568299 17.903747 70.2247632 17.8200589 70.1926224 17.7364459 70.1443372 17.6601818 70.0825736 17.595766L70.0812406 17.595766ZM70.5158075 20.3163019C70.5236575 20.2224903 70.5102532 20.1280788 70.4767794 20.0401914 70.4433056 19.9523789 70.3905029 19.8733403 70.3223704 19.8092244 70.1750709 19.700565 69.9957047 19.6456728 69.8136724 19.6536217L68.0635558 19.6536217 68.0635558 20.9119417 69.8004162 20.9119417C69.9874844 20.9231901 70.1732935 20.8733222 70.3302945 20.769762 70.3939836 20.71397 70.4438981 20.64393 70.4760388 20.5652663 70.5082537 20.4865275 70.5218802 20.4012647 70.5158075 20.3163019ZM73.1294295 21.8589812 71.9463679 21.8589812 73.9918982 16.5131459 75.4493413 16.5131459 77.3807496 21.8589812 76.1780628 21.8589812 75.7300176 20.6006612 73.603691 20.6006612 73.1294295 21.8589812ZM74.8213373 17.9887848 74.7006243 17.5488227 74.5680621 17.9955338 73.9667188 19.6334496 75.3819493 19.6334496 74.8213373 17.9887848Z" fill="#FFF"/><polygon fill="#FFF" points="77.8798942 21.8589812 77.8798942 16.5131459 79.0433308 16.5131459 79.0433308 20.8649984 81.6834653 20.8649984 81.6834653 21.8589812"/><path d="M23.6982619,17.0389707 L23.6982619,0.00208252871 L6.87313284,0.00208252871 L6.87313284,5.04205914 L9.94667891,5.04205914 L9.94667891,3.11433987 L20.6233383,3.11433987 L20.6233383,13.9240662 L16.8250994,13.9240662 L16.8250994,6.96307437 L0,6.96307437 L0,24 L16.8250994,24 L16.8250994,18.9613207 L13.751583,18.9613207 L13.751583,20.8863704 L3.07356829,20.8863704 L3.07356829,10.0753167 L6.87445846,10.0753167 L6.87445846,17.0389707 L23.6982619,17.0389707 Z M13.7489169,13.925416 L9.94801194,13.925416 L9.94801194,10.0753167 L13.7489169,10.0753167 L13.7489169,13.925416 Z" fill="#1C6FE8"/><polygon fill="#000" points="96.0379468 5.25535863 94.8893217 3.59727829 92.5046841 0.00208252871 89.4564952 0.00208252871 93.2015611 5.43511542 89.2224748 10.9794624 92.1988284 10.9794624 92.2573335 10.8935997 94.6182728 7.45137452 96.9629196 10.9794624 99.9992594 10.9794624"/><polygon fill="#1C6FE8" points="96.6170731 1.8962666 98.1278373 1.8962666 98.1278373 3.38934053 100 3.38934053 100 0.00208252871 96.6533611 0.00208252871 96.6533611 1.8962666"/></g></svg>