<svg viewBox="0 0 123 30" xmlns="http://www.w3.org/2000/svg"><g fill="#00C205"><path d="M29.724 9.647c-1.161 0-2.389.591-3.156 1.5h-.044V5.44h-2.126v16.602h1.95v-1.16h.044c.746.887 2.105 1.5 3.289 1.5 3.068 0 5.041-2.501 5.041-6.367 0-3.753-2.06-6.368-4.998-6.368Zm-.372 10.734c-1.6 0-2.828-1.137-2.828-2.638v-3.23c0-1.614 1.227-2.842 2.828-2.842 2.082 0 3.244 1.57 3.244 4.344 0 2.797-1.162 4.366-3.244 4.366ZM17.493 9.647c-3.157 0-5.327 2.615-5.327 6.368 0 3.843 2.104 6.368 5.327 6.368 3.178 0 5.26-2.525 5.26-6.368 0-3.753-2.148-6.368-5.26-6.368Zm0 10.734c-1.995 0-3.223-1.683-3.223-4.366 0-2.684 1.228-4.344 3.223-4.344 1.929 0 3.156 1.706 3.156 4.344 0 2.66-1.227 4.366-3.156 4.366Zm-6.313-9.642c0-2.82-2.017-4.617-5.174-4.617H0v15.92h2.192v-6.3h3.135c2.411 0 3.288 1 3.288 3.775v2.525h2.126v-2.525c0-2.54-.745-4.05-2.37-4.671 1.664-.605 2.809-2.029 2.809-4.107Zm-5.35 2.979H2.193V8.19H5.81c2.082 0 3.157.933 3.157 2.775 0 1.774-1.096 2.752-3.135 2.752Zm40.488-4.071c-1.227 0-2.543.614-3.178 1.5h-.044V9.989h-2.083v12.054h2.127v-7.574c0-1.705 1.074-2.774 2.762-2.774 1.666 0 2.455 1 2.455 3.093v7.255h2.148V14.15c0-2.775-1.622-4.503-4.187-4.503Zm34.678 0c-3.156 0-5.326 2.615-5.326 6.368 0 3.843 2.104 6.368 5.326 6.368 3.179 0 5.262-2.525 5.262-6.368 0-3.753-2.149-6.368-5.262-6.368Zm0 10.734c-1.994 0-3.222-1.683-3.222-4.366 0-2.684 1.228-4.344 3.222-4.344 1.93 0 3.157 1.706 3.157 4.344 0 2.66-1.227 4.366-3.157 4.366ZM95.771 5.44v5.708h-.044c-.767-.933-1.972-1.501-3.134-1.501-2.938 0-5.02 2.66-5.02 6.368 0 3.866 1.973 6.368 5.041 6.368 1.185 0 2.544-.614 3.288-1.501h.044v1.16h1.952V5.44H95.77Zm0 12.303c0 1.501-1.228 2.638-2.828 2.638-2.082 0-3.244-1.569-3.244-4.366 0-2.775 1.162-4.344 3.244-4.344 1.6 0 2.828 1.228 2.828 2.843v3.23ZM69.094 9.647c-3.157 0-5.327 2.615-5.327 6.368 0 3.843 2.104 6.368 5.327 6.368 3.178 0 5.26-2.525 5.26-6.368 0-3.753-2.148-6.368-5.26-6.368Zm0 10.734c-1.995 0-3.223-1.683-3.223-4.366 0-2.684 1.228-4.344 3.223-4.344 1.929 0 3.156 1.706 3.156 4.344 0 2.66-1.227 4.366-3.156 4.366ZM38.69 5.44h-2.302v2.342h2.302zm19.4 4.207c-1.294 0-2.609.637-3.223 1.546h-.044V5.44h-2.126v16.602h2.126v-7.574c0-1.637 1.14-2.774 2.763-2.774 1.6 0 2.52 1.091 2.52 2.979v7.369h2.127v-7.915c0-2.752-1.6-4.48-4.143-4.48Zm-19.488.341h-2.126v12.054h2.126zm73.954 12.627-.16.054c-1.03.355-2.554.903-3.922 1.556-.072.036-.12.136-.12.136l-.092.22-.005.012c-.154.362-.364.905-.456 1.128l-.07.175a.072.072 0 0 0 .018.08.06.06 0 0 0 .045.02c.009 0 .02-.002.03-.007l.165-.082c.376-.184.85-.464 1.345-.71l.017-.008c.944-.464 2.01-.99 2.652-1.308 0 0 .103-.057.156-.164l.48-1a.075.075 0 0 0-.009-.08.067.067 0 0 0-.074-.023Zm-3.841-1.551.45-.899.013-.025a61.929 61.929 0 0 1 7.556-11.446l.082-.098a.105.105 0 0 0 .01-.109.094.094 0 0 0-.094-.05l-.123.018a58.67 58.67 0 0 0-5.78 1.13.757.757 0 0 0-.34.214 67.23 67.23 0 0 0-4.036 5.577.506.506 0 0 0-.068.33c.013.102.314 2.501.77 4.343-1.131 3.377-2.142 7.828-2.142 7.828a.102.102 0 0 0 .013.084.088.088 0 0 0 .074.039h.645a.1.1 0 0 0 .092-.064l.044-.125a63.478 63.478 0 0 1 2.236-5.49c.193-.414.598-1.257.598-1.257Z"/><path d="m117.678 9.426-.002-.127a.098.098 0 0 0-.061-.089.092.092 0 0 0-.103.028l-.081.095a60.96 60.96 0 0 0-8.527 13.51l-.053.113a.1.1 0 0 0 .015.109c.018.018.042.03.066.03a.122.122 0 0 0 .038-.008l.112-.047a54.841 54.841 0 0 1 5.819-2.122.448.448 0 0 0 .27-.232c.853-1.724 2.832-5.063 2.832-5.063.05-.075.037-.186.037-.186s-.34-3.992-.362-6.011Z"/><path d="M122.093 3.668c-.484-.437-1.188-.641-2.28-.666-.99-.023-2.168.2-3.502.655-.2.072-.36.188-.502.332a65.88 65.88 0 0 0-3.924 4.17l-.096.11a.1.1 0 0 0-.012.111c.02.037.062.055.102.046l.14-.032a58.14 58.14 0 0 1 6.032-1.012.452.452 0 0 1 .364.123.494.494 0 0 1 .15.366c-.032 2.051.04 4.112.216 6.124l.01.132a.096.096 0 0 0 .072.084c.006.003.013.003.021.005a.1.1 0 0 0 .08-.041l.07-.107a57.914 57.914 0 0 1 3.63-4.803.782.782 0 0 0 .208-.432c.402-2.68-.222-4.662-.78-5.165Z"/></g></svg>