<svg xmlns="http://www.w3.org/2000/svg" viewBox="0 0 120 40"><path fill="#3C5A99" d="M7.96,3.072 C6.758,3.072 6.417,3.605 6.417,4.779 L6.417,6.719 L9.613,6.719 L9.299,9.859 L6.417,9.859 L6.417,19.379 L2.593,19.379 L2.593,9.859 L0,9.859 L0,6.719 L2.58,6.719 L2.58,4.834 C2.58,1.666 3.85,3.55271368e-15 7.414,3.55271368e-15 C8.179,3.55271368e-15 9.094,0.055 9.64,0.137 L9.64,3.087 M9.86,13.439 C9.86,16.976 11.54,19.625 15.036,19.625 C16.948,19.625 18.15,18.669 18.682,17.455 L18.682,19.367 L22.356,19.367 L22.356,6.717 L18.682,6.717 L18.682,8.657 C18.122,7.442 16.962,6.445 15.036,6.445 C11.536,6.445 9.86,9.108 9.86,12.631 M13.698,12.576 C13.698,10.691 14.394,9.436 16.17,9.436 C17.74,9.436 18.533,10.583 18.533,12.386 L18.533,13.656 C18.533,15.459 17.741,16.606 16.17,16.606 C14.395,16.606 13.698,15.363 13.698,13.466 L13.698,12.576 Z M30.332,6.444 C25.85,6.446 23.8,8.862 23.8,12.741 L23.8,13.328 C23.8,17.206 25.848,19.624 30.342,19.624 C31.842,19.624 33.237,19.31 34.016,18.777 L33.169,16.059 C32.3700367,16.4367803 31.4987308,16.6370374 30.615,16.646 C28.539,16.646 27.638,15.444 27.638,13.409 L27.638,12.672 C27.638,10.624 28.538,9.435 30.615,9.435 C31.615,9.435 32.582,9.722 33.169,10.022 L34.016,7.304 C33.238,6.758 31.831,6.444 30.342,6.444 M34.507,13.518 C34.507,17.233 36.31,19.65 41.144,19.65 C42.974,19.65 45.05,19.254 46.06,18.72 L45.364,16.084 C44.244,16.562 42.728,16.849 41.294,16.849 C39.164,16.849 38.399,16.084 38.317,14.349 L46.374,14.349 L46.374,12.329 C46.374,8.829 44.654,6.429 40.72,6.429 C36.54,6.429 34.506,8.792 34.506,12.383 L34.506,13.526 M38.33,11.874 C38.33,10.167 39,9.088 40.73,9.088 C42.41,9.088 42.956,10.181 42.956,11.56 L42.956,11.874 L38.33,11.874 Z M60.577,12.639 C60.577,9.102 58.87,6.453 55.374,6.453 C53.599,6.453 52.37,7.353 51.81,8.473 L51.81,0.02 L47.986,0.36 L47.986,19.36 L51.606,19.36 L51.606,17.448 C52.139,18.663 53.463,19.633 55.376,19.633 C58.876,19.633 60.579,16.97 60.579,13.447 M56.755,13.502 C56.755,15.277 56.059,16.616 54.229,16.616 C52.659,16.616 51.812,15.496 51.812,13.693 L51.812,12.368 C51.812,10.565 52.659,9.445 54.229,9.445 C56.059,9.445 56.755,10.77 56.755,12.559 L56.755,13.502 Z M61.863,13.352 C61.863,16.998 63.939,19.62 68.159,19.62 C72.379,19.62 74.455,16.984 74.455,13.352 L74.455,12.71 C74.455,9.064 72.379,6.442 68.159,6.442 C63.939,6.442 61.863,9.078 61.863,12.71 L61.863,13.352 Z M70.631,13.612 C70.631,15.292 69.935,16.616 68.159,16.616 C66.383,16.616 65.687,15.291 65.687,13.612 L65.687,12.438 C65.687,10.758 66.383,9.434 68.159,9.434 C69.935,9.434 70.631,10.759 70.631,12.438 L70.631,13.612 Z M75.725,13.352 C75.725,16.998 77.801,19.62 82.021,19.62 C86.241,19.62 88.317,16.984 88.317,13.352 L88.317,12.71 C88.317,9.064 86.241,6.442 82.021,6.442 C77.801,6.442 75.725,9.078 75.725,12.71 L75.725,13.352 Z M84.505,13.612 C84.505,15.292 83.809,16.616 82.033,16.616 C80.257,16.616 79.56,15.316 79.56,13.616 L79.56,12.442 C79.56,10.762 80.256,9.438 82.032,9.438 C83.808,9.438 84.504,10.763 84.504,12.442 L84.505,13.612 Z M93.587,0.01 L89.763,0.35 L89.763,19.326 L93.587,19.326 L93.587,13.14 L97.52,19.326 L101.59,19.326 L97.466,12.926 L101.426,6.686 L97.356,6.686 L93.586,12.722" transform="translate(9 10)"/></svg>