<svg width="120" height="40" viewBox="0 0 120 40" xmlns="http://www.w3.org/2000/svg"><g transform="translate(10 12)" fill="none" fill-rule="evenodd"><path d="M98.6990207,13.7136985 L98.6983435,-7.25094233e-15 L94.6098417,-7.25094233e-15 L94.3860136,1.69909428 L95.5048152,2.09751928 L95.5329207,2.10788593 C95.6961357,2.17596028 95.7692777,2.31832897 95.7692777,2.51702313 L95.7692777,5.70545977 L95.7137439,5.66364761 C94.9525254,5.09831951 94.0528112,4.69851229 92.9011635,4.69851229 C90.6432432,4.69851229 88.5888337,6.29290339 88.5888337,10.5090208 C88.5888337,14.5153863 90.1346354,16.0886985 92.5347763,16.0886985 C94.0199651,16.0886985 95.0165247,15.5012549 95.8708638,14.6411683 L96.0134229,14.6622472 L96.2165951,15.8367889 L100,15.8367889 L100,14.1798523 L98.9678852,14.0246981 C98.7579406,13.9911793 98.7108724,13.9466026 98.7007138,13.7627674 L98.6990207,13.7136985 L98.6990207,13.7136985 Z M88.6470764,4.77833552 C88.2464885,4.67639677 87.3315364,4.59657355 86.8662721,4.59657355 C85.5270287,4.59657355 84.60632,5.42936127 83.9158732,6.51855085 L83.790245,6.51855085 L83.5389887,4.81012658 L79.8561541,4.81012658 L79.6286012,6.52269751 L79.637744,6.54377637 L80.7562069,6.94565692 L80.7836352,6.95464135 C80.9708922,7.02340681 81.028119,7.16992216 81.028119,7.39384184 L81.028119,13.6808708 C81.0250714,13.9749382 80.9766487,14.036447 80.6932235,14.077568 L79.7515204,14.205769 L79.7515204,15.9352721 L86.5940213,15.9352721 L86.5940213,14.2271934 L84.4942367,14.0540703 C84.2182611,14.0316092 84.189817,13.9656082 84.1877853,13.6660119 L84.1877853,7.97057326 L84.2463666,7.91977666 C84.5775373,7.63918595 85.1823132,7.22313764 85.6943071,7.22313764 C85.8615856,7.22313764 85.9245689,7.26598647 85.9662192,7.45811509 L86.1754866,8.58980794 L88.6866949,8.67516005 L88.6866949,4.78870217 L88.6470764,4.77833552 L88.6470764,4.77833552 Z M43.1354888,4.75 C44.4269867,4.75 45.6910564,4.98705078 46.4526135,5.20129492 L46.5179672,5.2199549 L46.5792575,4.9030809 L51.8444649,4.9030809 L51.8444649,6.66575731 L50.6792724,6.79326713 L52.3439299,12.7610032 L52.4895366,12.7610032 L54.3417898,5.1791794 L57.4845251,5.1791794 L59.2741335,12.7610032 L59.3990844,12.7610032 L60.9597855,6.79326713 L59.7735985,6.66575731 L60.0441561,4.9030809 L64.41439,4.9030809 L64.41439,6.09179034 C64.3196862,6.2829197 64.2320349,6.47760382 64.1516206,6.67543285 L63.6653618,6.77184272 C63.3853228,6.81296377 63.2590175,6.91248363 63.1757169,7.1657755 L63.1658969,7.19687545 L60.6059272,15.9677543 L57.3179239,15.9677543 L55.694578,8.85312091 L55.5696271,8.85312091 L53.9256254,15.9677543 L50.1798074,15.9677543 L47.5575316,7.17545104 C47.4776172,6.93114361 47.3787401,6.88207479 47.1508486,6.82229376 L47.1203728,6.81434599 L46.9368405,6.7742616 L46.9486922,6.82229376 L46.9486922,8.43258039 L44.7314064,8.28433726 L44.5238321,7.18374436 C44.5035149,7.01442238 44.4618646,6.92976139 44.3172737,6.88760367 L44.2509041,6.86790703 C43.9708651,6.79050269 43.5072939,6.71828168 42.9908979,6.71828168 C41.9547197,6.71828168 41.3743245,7.12016223 41.3743245,7.79745017 C41.3743245,8.53762913 42.2036056,8.78504656 43.2316569,9.02589844 L43.9258286,9.18692711 L44.0219968,9.21042485 C45.5928565,9.59606431 47.2595457,10.2477812 47.2595457,12.6017023 C47.2595457,15.1836898 45.2081838,16.2417794 42.576088,16.2417794 C40.7404272,16.2417794 38.9437078,15.7604212 38.5058717,15.5005638 L38.4730255,15.4798305 L38.4730255,12.4113015 L40.6903114,12.5806235 L40.8978857,13.7869562 L40.9043194,13.8384439 C40.9273456,13.992907 40.9778001,14.0661647 41.146433,14.1041758 L41.1951943,14.1200713 L41.2503894,14.1366579 L41.3123569,14.1535901 L41.3838058,14.171559 C41.6824689,14.2434345 42.1473947,14.316001 42.7423506,14.316001 C43.8401577,14.316001 44.4618646,13.9984359 44.4618646,13.2154081 C44.4618646,12.3826204 43.6600116,12.1234541 42.6278969,11.9337444 L42.1561988,11.84701 L41.9550583,11.8079623 C40.3388235,11.4869417 38.5563261,10.905718 38.5563261,8.45365925 C38.5563261,5.82951404 40.7526175,4.75 43.1354888,4.75 L43.1354888,4.75 Z M24.0244348,4.75 L23.9675466,4.75 C22.0780452,4.75829332 19.5932493,5.18090717 19.5932493,8.00892987 L22.4992889,8.2632584 L22.4996275,8.20969737 C22.5128337,7.07904118 22.9557491,6.87239924 23.7962047,6.84821039 L23.8774736,6.84613706 L24.003779,6.84544595 C25.087364,6.84544595 25.3260914,7.33198749 25.3738368,8.08667976 L25.3779003,8.16166521 L25.3819637,8.27742616 L25.3836568,8.35655827 L25.3846727,8.47646588 L25.3846727,9.68141641 L22.9378022,9.85592172 C20.4130491,10.0394115 19.1604925,11.0145679 19.1604925,13.1096683 C19.1604925,14.4220864 19.572932,16.2417794 22.1694727,16.2417794 C23.8182151,16.2417794 24.8489753,15.6069948 25.6318655,14.823967 L25.7348061,14.8450458 L25.9410259,15.9877964 L29.7335735,15.9877964 L29.7335735,15.5603448 L29.7623563,15.5731304 C30.3647618,15.8409355 31.9958959,16.2417794 33.6632624,16.2417794 C36.2811361,16.2417794 38.3213236,15.1836898 38.3213236,12.6017023 C38.3213236,10.1254547 36.4866787,9.53282773 34.8585922,9.15202604 L34.3682699,9.03799287 C33.3212559,8.79333988 32.4679327,8.55041467 32.4679327,7.79745017 C32.4679327,7.12016223 33.0452803,6.71828168 34.075702,6.71828168 C34.6320552,6.71828168 35.1267794,6.80294267 35.3946281,6.88760367 C35.5385418,6.92976139 35.5801921,7.01442238 35.6005093,7.18374436 L35.8067291,8.28433726 L38.0118246,8.43258039 L38.0118246,5.36370581 L37.9505343,5.33986251 C37.3281502,5.10592172 35.7928456,4.75 34.2196156,4.75 C31.8496119,4.75 29.6651722,5.82951404 29.6651722,8.45365925 C29.6651722,10.7578205 31.2309526,11.4098829 32.7533896,11.7467991 L32.8945943,11.7772079 L33.0395238,11.8069257 L33.2389711,11.8459734 L33.8166574,11.9530954 C34.7932384,12.141423 35.5385418,12.4106104 35.5385418,13.2154081 C35.5385418,13.9984359 34.9205597,14.316001 33.8285091,14.316001 C33.2369394,14.316001 32.7747227,14.2434345 32.477414,14.171559 L32.4063038,14.1535901 L32.3446749,14.1366579 L32.2898184,14.1200713 L32.2413957,14.1041758 C32.0561703,14.062018 32.0141814,13.977357 31.9942028,13.7869562 L31.787983,12.5806235 L29.5825489,12.4113015 L29.5825489,14.2900844 L28.7441249,14.146679 L28.6885912,14.1383857 C28.4928687,14.1072858 28.4363191,14.0665103 28.4204039,13.9079005 L28.4170177,13.8615961 L28.414986,13.8111451 L28.4143087,13.7541285 L28.4143087,8.58082351 L28.4139701,8.49236141 C28.3889122,5.60075658 27.1258584,4.75 24.0244348,4.75 L24.0244348,4.75 Z M14.5285051,0.61266914 C18.3745547,0.61266914 19.5383928,2.68703623 19.5383928,5.12078059 C19.5383928,8.76638659 17.3996668,10.2546923 13.9477712,10.2840645 L13.8427989,10.2847556 L12.3251026,10.2847556 L12.3251026,13.7309763 L12.3267957,13.7845373 L12.329166,13.8339517 C12.3427109,14.0108759 12.3962129,14.0537247 12.6027713,14.0862069 L12.6579664,14.0941547 L15.6303756,14.2634766 L15.6303756,15.9352721 L7.48181609,15.9352721 L7.48181609,15.9304343 L7.47267334,15.9352721 L0.241097672,15.9352721 L0.241097672,14.2707333 L2.01275921,14.1228357 C2.28196237,14.1034847 2.335803,14.0288448 2.34189817,13.7620762 L2.34257541,13.7019497 L2.34257541,6.42490543 C2.34257541,6.12323585 2.12010186,6.17299578 0.571591109,6.70860614 L0,4.98048523 L3.53925964,2.91130147 L5.45314172,2.91130147 L5.45314172,13.7327041 L5.45381896,13.7897206 L5.45551206,13.8405172 C5.46600929,14.0495781 5.51815682,14.1014113 5.75485243,14.1207624 L5.78295792,14.1228357 L7.47233472,14.2707333 L7.48147747,14.2752255 L7.48147747,14.2634766 L8.79092227,14.1152335 C9.06249577,14.0758402 9.11701364,14.0181325 9.12277019,13.7524007 L9.12344743,13.6919286 L9.12344743,2.87743707 C9.12344743,2.57058417 9.08450609,2.48108541 8.81936637,2.45620544 L8.79092227,2.45413211 L7.48147747,2.30588899 L7.48147747,0.61266914 L14.5281664,0.61266914 L14.5285051,0.61266914 L14.5285051,0.61266914 Z M25.32643,11.3269497 L25.32643,13.0682017 L25.282748,13.1006838 C24.8103726,13.4483122 24.1311002,13.8232395 23.4518279,13.8232395 C22.7718783,13.8232395 22.277154,13.5087844 22.277154,12.6694311 C22.277154,11.8304234 22.7099107,11.5156227 23.9252191,11.4319984 L25.32643,11.3269497 L25.32643,11.3269497 Z M93.8005391,7.13363888 C92.3082393,7.13363888 91.713622,8.55974465 91.7010931,10.4101921 L91.7007544,10.4706642 C91.7007544,12.5194602 92.2716683,13.6601375 93.5560552,13.6601375 C94.229571,13.6601375 94.9606523,13.2613669 95.5061697,12.7934854 L95.5539151,12.7520188 L95.5539151,7.76704132 C95.0442915,7.4080096 94.3917702,7.13363888 93.8005391,7.13363888 L93.8005391,7.13363888 Z M12.2820978,2.93687254 L13.4977448,2.93687254 C14.960246,2.93687254 16.1762316,3.29279427 16.1762316,5.30668922 C16.1762316,7.42736069 14.9724363,7.90249891 13.7449376,7.97921213 L13.6311612,7.98508657 L13.5536171,7.98819657 L13.4340842,7.99096101 L13.3528153,7.99165212 L12.2824364,7.99165212 L12.2824364,2.93687254 L12.2820978,2.93687254 L12.2820978,2.93687254 Z" fill="#051627"/><g transform="translate(63.213 1.226)"><path d="M0.300356229,8.8869853 C0.300356229,13.6262731 4.06479839,17.4678088 8.70897615,17.4678088 C13.3528153,17.4678088 17.1172574,13.6262731 17.1172574,8.8869853 C17.1172574,4.14804307 13.3528153,0.306507348 8.70897615,0.306507348 C4.06479839,0.306507348 0.300356229,4.14804307 0.300356229,8.8869853 L0.300356229,8.8869853 Z" fill="#FFF"/><path d="M8.70863753,2.14520588 C12.3572715,2.14520588 15.3151201,5.16362942 15.3151201,8.8869853 C15.3151201,12.6106867 12.3572715,15.6291103 8.70863753,15.6291103 C5.06000352,15.6291103 2.10181636,12.6106867 2.10181636,8.8869853 C2.10181636,5.16362942 5.06000352,2.14520588 8.70863753,2.14520588 Z" fill="#1A8CFF"/><path d="M8.70897615,17.7743162 C3.89921305,17.7743162 4.81208425e-15,13.7955951 4.81208425e-15,8.8869853 C4.81208425e-15,3.97906664 3.89921305,2.45531645e-15 8.70897615,2.45531645e-15 C13.5184006,2.45531645e-15 17.4176137,3.97906664 17.4176137,8.8869853 C17.4176137,13.7955951 13.5184006,17.7743162 8.70897615,17.7743162 Z M8.70863753,0.306507348 C4.06445977,0.306507348 0.300356229,4.14873418 0.300356229,8.8869853 C0.300356229,13.625582 4.06412114,17.4678088 8.70863753,17.4678088 C13.3531539,17.4678088 17.1172574,13.625582 17.1172574,8.8869853 C17.1172574,4.14873418 13.3531539,0.306507348 8.70863753,0.306507348 Z" fill="#000" opacity=".5"/><path d="M16.06618,8.73390441 C16.06618,4.58724356 12.7720814,1.22568384 8.70897615,1.22568384 C4.64553224,1.22568384 1.35143372,4.58724356 1.35143372,8.73390441 C1.35143372,11.0522334 2.38083951,13.1248727 3.99876742,14.5022552 C2.5956638,13.17044 1.79958855,11.3023954 1.80179875,9.3469191 C1.80179875,5.45424123 4.89407956,2.29828677 8.70897615,2.29828677 C12.5235341,2.29828677 15.6158149,5.45424123 15.6158149,9.3469191 C15.6180251,11.3023954 14.8219499,13.17044 13.4188463,14.5022552 C15.0367742,13.1248727 16.06618,11.0522334 16.06618,8.73390441 L16.06618,8.73390441 Z M17.1172574,8.8869853 C17.1172574,8.73286774 17.113194,8.57978685 17.1054057,8.42739706 L17.0993106,8.53210025 C16.8145309,13.0077295 13.1669127,16.5482868 8.70863753,16.5482868 C4.21616167,16.5482868 0.546194585,12.9527863 0.31220794,8.42739706 C0.304419672,8.57978685 0.300356229,8.73286774 0.300356229,8.8869853 C0.300356229,13.6259275 4.06479839,17.4678088 8.70863753,17.4678088 C13.3528153,17.4678088 17.1172574,13.6259275 17.1172574,8.8869853 Z" fill-opacity=".052" fill="#000"/><path d="M8.70863753,2.14520588 C5.05932628,2.14520588 2.10181636,5.16397497 2.10181636,8.8869853 C2.10181636,12.6099956 5.05932628,15.6291103 8.70863753,15.6291103 C12.3579488,15.6291103 15.3151201,12.6099956 15.3151201,8.8869853 C15.3151201,5.16397497 12.3576102,2.14520588 8.70863753,2.14520588 Z M8.70863753,15.3226029 C5.22592748,15.3226029 2.40251121,12.4413648 2.40251121,8.8869853 C2.40251121,5.3329514 5.22592748,2.45171323 8.70863753,2.45171323 C12.1916862,2.45171323 15.0151025,5.3329514 15.0151025,8.8869853 C15.0151025,12.4413648 12.1916862,15.3226029 8.70863753,15.3226029 L8.70863753,15.3226029 Z" fill="#000" opacity=".256"/><path d="M3.45325008,8.92119526 C3.45325008,5.92523279 5.8059841,3.52431616 8.74182232,3.52431616 C11.6214496,3.52431616 13.9636864,5.93663611 13.9636864,8.92119526 C13.9636864,11.8490834 11.6109523,14.25 8.74182232,14.25 C5.81681995,14.25 3.45325008,11.8601411 3.45325008,8.92119526 L3.45325008,8.92119526 Z M13.6636687,8.92119526 C13.6636687,6.09455478 11.445367,3.8307864 8.74182232,3.8307864 C7.41731923,3.82565576 6.14560254,4.36030161 5.20903057,5.31605401 C4.27245861,6.27180642 3.74854227,7.56956712 3.75356993,8.92119526 C3.75356993,11.6797614 5.97224668,13.9434927 8.74182232,13.9434927 C11.445367,13.9434927 13.6636687,11.6797614 13.6636687,8.92119526 Z" fill-opacity=".25" fill="#000"/><path d="M8.74216094,3.83082351 C11.445367,3.83082351 13.6640074,6.09455478 13.6640074,8.92119526 C13.6640074,11.6797614 11.445367,13.9434927 8.74216094,13.9434927 C5.9725853,13.9434927 3.75394493,11.6797614 3.75394493,8.92119526 C3.75394493,6.09455478 5.9725853,3.83082351 8.74216094,3.83082351 L8.74216094,3.83082351 Z" fill="#F7F7F7"/><path d="M10.9608013,8.8869853 C10.9707487,9.71486168 10.5436453,10.484232 9.84268261,10.9011283 C9.14171993,11.3180246 8.2752165,11.3180246 7.57425382,10.9011283 C6.87329114,10.484232 6.44618772,9.71486168 6.45613512,8.8869853 C6.47125566,7.62857277 7.47521734,6.61653585 8.70846822,6.61653585 C9.9417191,6.61653585 10.9456808,7.62857277 10.9608013,8.8869853 L10.9608013,8.8869853 Z" fill-opacity=".05" fill="#000"/><path d="M6.15611751,8.8869853 C6.15611751,7.44839723 7.29891965,6.28219118 8.70863753,6.28219118 C10.1183554,6.28219118 11.2611575,7.44839723 11.2611575,8.8869853 C11.2611575,10.3255734 10.1183554,11.4917794 8.70863753,11.4917794 C7.29891965,11.4917794 6.15611751,10.3255734 6.15611751,8.8869853 Z M10.9608013,8.8869853 C10.9608013,7.61767657 9.95247324,6.58869853 8.70863753,6.58869853 C7.46480182,6.58869853 6.45647374,7.61767657 6.45647374,8.8869853 C6.44235895,9.71758326 6.86850517,10.4913263 7.57113014,10.910839 C8.27375511,11.3303517 9.14351994,11.3303517 9.84614492,10.910839 C10.5487699,10.4913263 10.9749161,9.71758326 10.9608013,8.8869853 L10.9608013,8.8869853 Z" fill="#FFF"/><path d="M10.9608013,8.8869853 C10.9608013,8.06582475 10.5315091,7.30704108 9.83463482,6.89646078 C9.13776051,6.48588048 8.27917593,6.48588048 7.58230162,6.89646078 C6.8854273,7.30704108 6.45613512,8.06582475 6.45613512,8.8869853 C6.45613512,10.1563894 7.46453907,11.1854447 8.70846822,11.1854447 C9.95239736,11.1854447 10.9608013,10.1563894 10.9608013,8.8869853 L10.9608013,8.8869853 Z M6.75682997,8.8869853 C6.75682997,7.78686048 7.63075978,6.8950331 8.70880684,6.8950331 C9.78685389,6.8950331 10.6607837,7.78686048 10.6607837,8.8869853 C10.6607837,9.98711013 9.78685389,10.8789375 8.70880684,10.8789375 C7.63075978,10.8789375 6.75682997,9.98711013 6.75682997,8.8869853 L6.75682997,8.8869853 Z" fill-opacity=".15" fill="#000"/><path d="M7.87122946,4.90342645 L9.54604559,4.90342645 C9.91717347,4.90342645 10.21008,5.23481376 10.21008,5.63462098 L10.21008,9.08809836 C10.21008,9.23841481 10.1569167,9.38354794 10.0604099,9.49274334 L9.81423289,9.77160629 C9.80847634,9.77782628 9.80847634,9.7961407 9.81423289,9.80270624 L10.0604099,10.0812236 C10.1569167,10.190419 10.21008,10.3358977 10.21008,10.4862142 L10.21008,12.1396952 C10.21008,12.5391568 9.91717347,12.8708897 9.54604559,12.8708897 L7.87122946,12.8708897 C7.50010159,12.8708897 7.20718761,12.5391568 7.20718761,12.1396952 L7.20718761,8.68621781 C7.20718761,8.53590135 7.2603584,8.39042267 7.35652657,8.28157282 L7.60270354,8.00270988 C7.60846009,7.99614433 7.60846009,7.97817547 7.60270354,7.97160992 L7.35652657,7.69274698 C7.25963725,7.58122163 7.20646612,7.43714337 7.20718761,7.28810199 L7.20718761,5.63462098 C7.20718761,5.23481376 7.50010159,4.90342645 7.87122946,4.90342645 L7.87122946,4.90342645 Z M9.90973551,5.65811873 C9.90973551,5.41381129 9.73838194,5.21546268 9.52708285,5.21546268 L7.89053082,5.21546268 C7.67889312,5.21546268 7.50753448,5.41381129 7.50753448,5.65811873 L7.50753448,7.29915976 C7.50676927,7.37570786 7.53337746,7.44991818 7.58238633,7.50787502 L7.82145227,7.78466463 C7.92135478,7.9051341 7.92135478,8.08162569 7.82145227,8.20209515 L7.58238633,8.47888477 C7.53345905,8.5368905 7.50686251,8.61106831 7.50753448,8.68760003 L7.50753448,12.1158519 C7.50753448,12.3605049 7.67889312,12.5588535 7.89053082,12.5588535 L9.52708285,12.5588535 C9.73838194,12.5588535 9.90973551,12.3605049 9.90973551,12.1158519 L9.90973551,10.4751564 C9.91037361,10.3985882 9.88392082,10.3243533 9.83522735,10.2660956 L9.59582278,9.98965153 C9.4958692,9.86907052 9.4958692,9.69245647 9.59582278,9.57187545 L9.83522735,9.2954314 C9.88387087,9.23727967 9.91032237,9.16317103 9.90973551,9.08671614 L9.90973551,5.65811873 L9.90973551,5.65811873 Z" fill="#FFF"/><path d="M7.50720408,7.29674087 L7.50720408,5.65328095 C7.50720408,5.40828241 7.67889312,5.20958824 7.8901922,5.20958824 L9.52674423,5.20958824 C9.73838194,5.20958824 9.90974013,5.40828241 9.90974013,5.65328095 L9.90974013,9.08671614 C9.91049497,9.16336648 9.88389328,9.23768151 9.83488873,9.29577695 L9.59548416,9.57325767 C9.49589676,9.6941058 9.49589676,9.87053119 9.59548416,9.99137931 L9.83488873,10.2685145 C9.88297282,10.3238033 9.90974013,10.3991343 9.90974013,10.4775753 L9.90974013,12.1210352 C9.90974013,12.3660338 9.73838194,12.5643824 9.52674423,12.5643824 L7.8901922,12.5643824 C7.67889312,12.5643824 7.50720408,12.3660338 7.50720408,12.1210352 L7.50720408,8.68725447 C7.50665708,8.61064206 7.53323196,8.53640193 7.5820477,8.47819366 L7.82145227,8.20105849 C7.92103967,8.08021037 7.92103967,7.90378498 7.82145227,7.78293685 L7.5820477,7.50580169 C7.53323196,7.44759341 7.50665708,7.37335328 7.50720408,7.29674087 L7.50720408,7.29674087 Z" fill="#0A2D4D"/><path d="M9.90974013,5.65328095 C9.90974013,5.40828241 9.73838194,5.20958824 9.52674423,5.20958824 L7.8901922,5.20958824 C7.67889312,5.20958824 7.50720408,5.40828241 7.50720408,5.65328095 L7.50720408,7.29674087 C7.50720408,7.37518187 7.53430224,7.45016732 7.5820477,7.50580169 L7.82145227,7.78293685 C7.92103967,7.90378498 7.92103967,8.08021037 7.82145227,8.20105849 L7.5820477,8.47819366 C7.53323196,8.53640193 7.50665708,8.61064206 7.50720408,8.68725447 L7.50720408,12.1210352 C7.50720408,12.3660338 7.67889312,12.5643824 7.8901922,12.5643824 L9.52674423,12.5643824 C9.73838194,12.5643824 9.90974013,12.3660338 9.90974013,12.1210352 L9.90974013,10.4775753 C9.91049497,10.400925 9.88389328,10.3266099 9.83488873,10.2685145 L9.59548416,9.99137931 C9.49589676,9.87053119 9.49589676,9.6941058 9.59548416,9.57325767 L9.83488873,9.29577695 C9.88389328,9.23768151 9.91049497,9.16336648 9.90974013,9.08671614 L9.90974013,5.65328095 L9.90974013,5.65328095 Z M7.9335356,5.52231558 L9.48373945,5.52438891 L9.49660702,5.52542558 C9.55654282,5.53337334 9.60970621,5.59730103 9.60970621,5.68299869 L9.60970621,9.08740725 L9.60902897,9.09397279 C9.60846661,9.09711009 9.60719082,9.100069 9.60530415,9.10261167 L9.35438649,9.37767351 L9.33406927,9.40117125 C9.15056927,9.6285799 9.15923528,9.95917894 9.35438649,10.1762513 L9.60530415,10.4513131 L9.60733587,10.4547687 C9.60869035,10.4575331 9.60970621,10.4616798 9.60970621,10.4665175 L9.60970621,12.0954641 L9.60869035,12.113433 C9.60157933,12.1956751 9.54435249,12.2537284 9.48373945,12.2537284 L7.9335356,12.251655 L7.92066803,12.2509639 C7.86073223,12.2426706 7.80790746,12.1790885 7.80790746,12.0933908 L7.80790746,8.68898225 L7.8085847,8.6824167 C7.8089357,8.67911384 7.81023109,8.67598933 7.81230953,8.67343227 L8.06288857,8.39871599 L8.08320579,8.37521825 C8.26670578,8.1478096 8.25803977,7.81721056 8.06288857,7.60013822 L7.81230953,7.32507639 L7.80993918,7.32162084 C7.80862522,7.31784741 7.80793851,7.31387642 7.80790746,7.30987196 L7.80790746,5.68092536 L7.8085847,5.6629565 C7.81603435,5.58036883 7.87292256,5.52231558 7.9335356,5.52231558 L7.9335356,5.52231558 Z" fill-opacity=".4" fill="#000"/></g></g></svg>