<svg xmlns="http://www.w3.org/2000/svg" viewBox="0 0 120 40"><g fill-rule="nonzero"><path fill="#000" d="M25.31 10.336c.767.002 1.525.164 2.225.477a4.95 4.95 0 0 1 2.552 2.661c.266.672.274 1.446.259 2.159l-.047 1.233-.059.957c-.004.073-.029.172-.014.243.034.158.284.263.424.307.365.115.747.032 1.097-.093.209-.074.397-.198.628-.178.166.016.359.09.478.209.124.127.098.252-.009.372-.203.23-.539.362-.822.455-.31.102-.626.193-.916.348s-.548.374-.661.687c-.131.364-.022.734.132 1.072a7.44 7.44 0 0 0 .998 1.597c.741.914 1.712 1.655 2.85 1.991l.509.122c.072.014.121-.003.095.074-.003.009-.01.019-.016.028-.038.064-.1.115-.159.158-.336.246-.776.358-1.172.455l-.566.121c-.19.034-.418.036-.595.112-.293.128-.338.566-.397.836l-.076.316c-.026.093-.017.141-.116.141-.17.003-.341-.043-.507-.073-.391-.072-.787-.11-1.184-.101-.434.01-.879.06-1.282.228-.386.161-.733.403-1.072.644-.603.42-1.207.836-1.921.996-.362.08-.736.089-1.106.078a3.37 3.37 0 0 1-1.147-.241c-.697-.279-1.264-.774-1.892-1.171-.357-.224-.737-.403-1.157-.469a5.18 5.18 0 0 0-1.347-.036l-.519.078c-.168.032-.351.091-.523.084-.081-.003-.082-.028-.103-.103l-.084-.343c-.039-.176-.072-.356-.134-.526-.049-.132-.122-.259-.255-.331-.169-.082-.401-.08-.586-.115-.342-.064-.684-.141-1.017-.246-.286-.091-.629-.2-.845-.422-.021-.021-.04-.044-.056-.069-.005-.009-.012-.017-.015-.026-.023-.072.004-.062.074-.075.331-.061.656-.155.968-.28.572-.229 1.097-.562 1.564-.964.683-.59 1.248-1.323 1.671-2.121.144-.272.299-.571.347-.874.122-.764-.506-1.196-1.14-1.426-.345-.122-.684-.207-.997-.384-.143-.081-.422-.244-.4-.447.017-.155.207-.259.334-.306a.65.65 0 0 1 .274-.048c.112.006.207.066.31.107.371.152.784.259 1.185.198.201-.031.409-.108.554-.255.034-.034.047-.052.056-.095.015-.08-.01-.186-.015-.267l-.04-.64-.039-2.448c.026-.349.072-.702.172-1.037s.271-.651.453-.947c.334-.548.772-1.025 1.289-1.404.759-.552 1.678-.871 2.609-.959.297-.028.595-.028.894-.028m-14.6 19.117c.001 2.545 2.064 4.608 4.609 4.609h19.591c2.545-.001 4.608-2.064 4.609-4.609V9.86c-.001-2.545-2.064-4.608-4.609-4.609H15.315c-2.545.001-4.608 2.064-4.609 4.609v19.59"/><path fill="#fffc00" d="M11.245 9.86a4.07 4.07 0 0 1 4.069-4.069h19.591a4.07 4.07 0 0 1 4.069 4.069v19.59a4.07 4.07 0 0 1-4.069 4.069H15.315a4.07 4.07 0 0 1-4.069-4.069V9.86m14.065.047c-.69.003-1.357.046-2.023.234-1.063.302-2.022.908-2.719 1.77-.431.534-.807 1.169-.969 1.841-.181.75-.178 1.539-.155 2.304l.06 1.212.019.293c.004.066.052.314.013.359-.082.093-.341.086-.447.083-.19-.007-.376-.052-.555-.112-.195-.066-.379-.184-.586-.204a1.15 1.15 0 0 0-.911.341c-.382.405-.14.881.254 1.155.319.222.683.336 1.047.457.302.099.633.214.862.441.336.333.147.772-.029 1.136a6.97 6.97 0 0 1-.474.819c-.599.891-1.397 1.675-2.377 2.136a4.68 4.68 0 0 1-.922.322c-.155.036-.345.039-.479.134a.44.44 0 0 0-.172.453c.086.44.612.666.983.804.328.121.667.207 1.009.28l.627.116c.103.017.149.009.186.109.029.078.047.157.066.236l.138.586c.034.128.081.248.188.333.278.218.716.05 1.026-.005.823-.147 1.721-.141 2.462.284.644.371 1.2.871 1.873 1.194.716.343 1.509.441 2.296.368.737-.069 1.405-.371 2.017-.776.668-.44 1.283-1 2.103-1.121a4.95 4.95 0 0 1 1.347.005c.31.043.631.151.946.124.427-.037.472-.502.546-.838.03-.135.043-.338.124-.453.047-.069.172-.06.263-.075l.343-.062c.598-.116 1.26-.254 1.774-.601.149-.101.291-.228.365-.397.069-.157.072-.34-.033-.481-.109-.149-.27-.166-.438-.198-.626-.129-1.22-.383-1.747-.746-.808-.552-1.464-1.317-1.953-2.16l-.279-.54c-.129-.284-.248-.621-.046-.903.187-.259.526-.39.816-.491.357-.126.719-.224 1.047-.418.24-.142.491-.343.56-.628.172-.748-.888-1.127-1.445-.888-.343.147-.76.345-1.138.211-.024-.009-.067-.017-.086-.034-.03-.031-.015-.081-.011-.129l.052-.836c.047-.802.086-1.609.013-2.409-.033-.356-.086-.713-.196-1.053-.106-.332-.273-.649-.453-.948-.332-.559-.763-1.052-1.272-1.456-.767-.603-1.7-.974-2.672-1.119a5.7 5.7 0 0 0-.851-.066m-6.902-3.371a.46.46 0 1 0 0 .924.46.46 0 1 0 0-.924m1.489 0a.46.46 0 1 0 0 .924.46.46 0 1 0 0-.924m4.467 0a.46.46 0 1 0 0 .924.46.46 0 1 0 0-.924m1.49 0a.46.46 0 1 0 0 .924.46.46 0 1 0 0-.924m5.957 0a.46.46 0 1 0 0 .924.46.46 0 1 0 0-.924M13.94 8.024a.46.46 0 1 0 0 .924.46.46 0 1 0 0-.924m4.467 0a.46.46 0 1 0 0 .924.46.46 0 1 0 0-.924m1.489 0a.46.46 0 1 0 0 .924.46.46 0 1 0 0-.924m4.467 0a.46.46 0 1 0 0 .924.46.46 0 1 0 0-.924m1.49 0a.46.46 0 1 0 0 .924.46.46 0 1 0 0-.924m1.489 0a.46.46 0 1 0 0 .924.46.46 0 1 0 0-.924m4.467 0a.46.46 0 1 0 0 .924.46.46 0 1 0 0-.924m2.978 0a.46.46 0 1 0 0 .924.46.46 0 1 0 0-.924m1.489 0a.46.46 0 1 0 0 .924.46.46 0 1 0 0-.924M13.94 9.514a.46.46 0 1 0 0 .924.46.46 0 1 0 0-.924m1.489 0a.46.46 0 1 0 0 .924.46.46 0 1 0 0-.924m14.891 0a.46.46 0 1 0 0 .924.46.46 0 1 0 0-.924m1.489 0a.46.46 0 1 0 0 .924.46.46 0 1 0 0-.924m-19.357 1.489a.46.46 0 1 0 0 .924.46.46 0 1 0 0-.924m5.957 0a.46.46 0 1 0 0 .924.46.46 0 1 0 0-.924m13.403 0a.46.46 0 1 0 0 .924.46.46 0 1 0 0-.924m2.978 0a.46.46 0 1 0 0 .924.46.46 0 1 0 0-.924m1.489 0a.46.46 0 1 0 0 .924.46.46 0 1 0 0-.924m1.489 0a.46.46 0 1 0 0 .924.46.46 0 1 0 0-.924m-20.848 1.489c-.255 0-.462.207-.462.463s.207.461.462.462a.46.46 0 0 0 .462-.463c0-.256-.207-.461-.462-.462m17.871 0c-.255 0-.462.207-.462.463s.207.461.462.462a.46.46 0 0 0 .462-.463c0-.256-.207-.461-.462-.462M12.453 13.98a.46.46 0 1 0 0 .924.46.46 0 1 0 0-.924m1.489 0a.46.46 0 1 0 0 .924.46.46 0 1 0 0-.924m4.467 0a.46.46 0 1 0 0 .924.46.46 0 1 0 0-.924m13.403 0a.46.46 0 1 0 0 .924.46.46 0 1 0 0-.924m2.978 0a.46.46 0 1 0 0 .924.46.46 0 1 0 0-.924m1.489 0a.46.46 0 1 0 0 .924.46.46 0 1 0 0-.924m-20.848 1.49a.46.46 0 1 0 0 .924.46.46 0 1 0 0-.924m2.978 0a.46.46 0 1 0 0 .924.46.46 0 1 0 0-.924m14.891 0a.46.46 0 1 0 0 .924.46.46 0 1 0 0-.924m1.489 0a.46.46 0 1 0 0 .924.46.46 0 1 0 0-.924m2.978 0a.46.46 0 1 0 0 .924.46.46 0 1 0 0-.924m-25.316 1.49c-.255 0-.462.207-.462.463s.207.461.462.462a.46.46 0 0 0 .462-.463c0-.256-.207-.461-.462-.462m23.826 0c-.255 0-.462.207-.462.463s.207.461.462.462a.46.46 0 0 0 .462-.463c0-.256-.207-.461-.462-.462m1.489 0c-.255 0-.462.207-.462.463s.207.461.462.462a.46.46 0 0 0 .462-.463c0-.256-.207-.461-.462-.462m-25.315 1.489c-.255 0-.462.207-.462.463s.207.461.462.462a.46.46 0 0 0 .462-.463c0-.256-.207-.461-.462-.462m1.489 0c-.255 0-.462.207-.462.463s.207.461.462.462a.46.46 0 0 0 .462-.463c0-.256-.207-.461-.462-.462m1.489 0c-.255 0-.462.207-.462.463s.207.461.462.462a.46.46 0 0 0 .462-.463c0-.256-.207-.461-.462-.462m20.848 0c-.255 0-.462.207-.462.463s.207.461.462.462a.46.46 0 0 0 .462-.463c0-.256-.207-.461-.462-.462m-23.826 1.49a.46.46 0 1 0 0 .924.46.46 0 1 0 0-.924m1.489 0a.46.46 0 1 0 0 .924.46.46 0 1 0 0-.924m22.336 0a.46.46 0 1 0 0 .924.46.46 0 1 0 0-.924m1.489 0a.46.46 0 1 0 0 .924.46.46 0 1 0 0-.924m-4.467 1.489a.46.46 0 1 0 0 .924.46.46 0 1 0 0-.924m4.467 0a.46.46 0 1 0 0 .924.46.46 0 1 0 0-.924M13.94 22.916c-.255 0-.462.207-.462.463s.207.461.462.462a.46.46 0 0 0 .462-.463c0-.256-.207-.461-.462-.462m1.489 0c-.255 0-.462.207-.462.463s.207.461.462.462a.46.46 0 0 0 .462-.463c0-.256-.207-.461-.462-.462m19.359 0c-.255 0-.462.207-.462.463s.207.461.462.462a.46.46 0 0 0 .462-.463c0-.256-.207-.461-.462-.462m2.978 0c-.255 0-.462.207-.462.463s.207.461.462.462a.46.46 0 0 0 .462-.463c0-.256-.207-.461-.462-.462m0 1.489c-.255 0-.462.207-.462.463s.207.461.462.462a.46.46 0 0 0 .462-.463c0-.256-.207-.461-.462-.462m-1.489 1.489c-.255 0-.462.207-.462.463s.207.461.462.462a.46.46 0 0 0 .462-.463c0-.256-.207-.461-.462-.462m1.489 0c-.255 0-.462.207-.462.463s.207.461.462.462a.46.46 0 0 0 .462-.463c0-.256-.207-.461-.462-.462m-25.314 1.491c-.255 0-.462.207-.462.463s.207.461.462.462a.46.46 0 0 0 .462-.463c0-.256-.207-.461-.462-.462m1.489 0c-.255 0-.462.207-.462.463s.207.461.462.462a.46.46 0 0 0 .462-.463c0-.256-.207-.461-.462-.462m20.848 0c-.255 0-.462.207-.462.463s.207.461.462.462a.46.46 0 0 0 .462-.463c0-.256-.207-.461-.462-.462m-17.871 1.489c-.255 0-.462.207-.462.463s.207.461.462.462a.46.46 0 0 0 .462-.463c0-.256-.207-.461-.462-.462m1.489 0c-.255 0-.462.207-.462.463s.207.461.462.462a.46.46 0 0 0 .462-.463c0-.256-.207-.461-.462-.462m1.489 0c-.255 0-.462.207-.462.463s.207.461.462.462a.46.46 0 0 0 .462-.463c0-.256-.207-.461-.462-.462m1.489 0c-.255 0-.462.207-.462.463s.207.461.462.462a.46.46 0 0 0 .462-.463c0-.256-.207-.461-.462-.462m7.446 0c-.255 0-.462.207-.462.463s.207.461.462.462a.46.46 0 0 0 .462-.463c0-.256-.207-.461-.462-.462m2.978 0c-.255 0-.462.207-.462.463s.207.461.462.462a.46.46 0 0 0 .462-.463c0-.256-.207-.461-.462-.462m4.467 0c-.255 0-.462.207-.462.463s.207.461.462.462a.46.46 0 0 0 .462-.463c0-.256-.207-.461-.462-.462m-22.336 1.49c-.255 0-.462.207-.462.463s.207.461.462.462a.46.46 0 0 0 .462-.463c0-.256-.207-.461-.462-.462m4.467 0c-.255 0-.462.207-.462.463s.207.461.462.462a.46.46 0 0 0 .462-.463c0-.256-.207-.461-.462-.462m1.489 0c-.255 0-.462.207-.462.463s.207.461.462.462a.46.46 0 0 0 .462-.463c0-.256-.207-.461-.462-.462m1.489 0c-.255 0-.462.207-.462.463s.207.461.462.462a.46.46 0 0 0 .462-.463c0-.256-.207-.461-.462-.462m1.489 0c-.255 0-.462.207-.462.463s.207.461.462.462a.46.46 0 0 0 .462-.463c0-.256-.207-.461-.462-.462m5.948 0c-.255 0-.462.207-.462.463s.207.461.462.462a.46.46 0 0 0 .462-.463c0-.256-.207-.461-.462-.462m2.978 0c-.255 0-.462.207-.462.463s.207.461.462.462a.46.46 0 0 0 .462-.463c0-.256-.207-.461-.462-.462m2.978 0c-.255 0-.462.207-.462.463s.207.461.462.462a.46.46 0 0 0 .462-.463c0-.256-.207-.461-.462-.462m1.489 0c-.255 0-.462.207-.462.463s.207.461.462.462a.46.46 0 0 0 .462-.463c0-.256-.207-.461-.462-.462m-16.379 1.489a.46.46 0 1 0 0 .924.46.46 0 1 0 0-.924m1.489 0a.46.46 0 1 0 0 .924.46.46 0 1 0 0-.924m2.978 0a.46.46 0 1 0 0 .924.46.46 0 1 0 0-.924m1.49 0a.46.46 0 1 0 0 .924.46.46 0 1 0 0-.924m1.489 0a.46.46 0 1 0 0 .924.46.46 0 1 0 0-.924m1.489 0a.46.46 0 1 0 0 .924.46.46 0 1 0 0-.924m1.489 0a.46.46 0 1 0 0 .924.46.46 0 1 0 0-.924"/></g><path fill="#fff" d="M25.31 10.336c.767.002 1.525.164 2.225.477a4.95 4.95 0 0 1 2.552 2.661c.266.672.274 1.446.259 2.159l-.047 1.233-.059.957c-.004.073-.029.172-.014.243.034.158.284.263.424.307.365.115.747.032 1.097-.093.209-.074.397-.198.628-.178.166.016.359.09.478.209.124.127.098.252-.009.372-.203.23-.539.362-.822.455-.31.102-.626.193-.916.348s-.548.374-.661.687c-.131.364-.022.734.132 1.072a7.44 7.44 0 0 0 .998 1.597c.741.914 1.712 1.655 2.85 1.991l.509.122c.072.014.121-.003.095.074-.003.009-.01.019-.016.028-.038.064-.1.115-.159.158-.336.246-.776.358-1.172.455l-.566.121c-.19.034-.418.036-.595.112-.293.128-.338.566-.397.836l-.076.316c-.026.093-.017.141-.116.141-.17.003-.341-.043-.507-.073-.391-.072-.787-.11-1.184-.101-.434.01-.879.06-1.282.228-.386.161-.733.403-1.072.644-.603.42-1.207.836-1.921.996-.362.08-.736.089-1.106.078a3.37 3.37 0 0 1-1.147-.241c-.697-.279-1.264-.774-1.892-1.171-.357-.224-.737-.403-1.157-.469a5.18 5.18 0 0 0-1.347-.036l-.519.078c-.168.032-.351.091-.523.084-.081-.003-.082-.028-.103-.103l-.084-.343c-.039-.176-.072-.356-.134-.526-.049-.132-.122-.259-.255-.331-.169-.082-.401-.08-.586-.115-.342-.064-.684-.141-1.017-.246-.286-.091-.629-.2-.845-.422-.021-.021-.04-.044-.056-.069-.005-.009-.012-.017-.015-.026-.023-.072.004-.062.074-.075.331-.061.656-.155.968-.28.572-.229 1.097-.562 1.564-.964.683-.59 1.248-1.323 1.671-2.121.144-.272.299-.571.347-.874.122-.764-.506-1.196-1.14-1.426-.345-.122-.684-.207-.997-.384-.143-.081-.422-.244-.4-.447.017-.155.207-.259.334-.306a.65.65 0 0 1 .274-.048c.112.006.207.066.31.107.371.152.784.259 1.185.198.201-.031.409-.108.554-.255.034-.034.047-.052.056-.095.015-.08-.01-.186-.015-.267l-.04-.64-.039-2.448c.026-.349.072-.702.172-1.037s.271-.651.453-.947c.334-.548.772-1.025 1.289-1.404.759-.552 1.678-.871 2.609-.959.297-.028.595-.028.894-.028"/><path fill="#303030" fill-rule="nonzero" d="M42.802 24.397v-2.437a4.67 4.67 0 0 0 1.44.834c.517.184 1.041.278 1.569.278.31 0 .58-.028.81-.084s.424-.133.578-.233.271-.216.347-.35a.88.88 0 0 0 .114-.438.95.95 0 0 0-.183-.571c-.138-.183-.307-.34-.499-.465a5.25 5.25 0 0 0-.75-.411l-.937-.403c-.862-.355-1.489-.79-1.908-1.293s-.629-1.133-.629-1.859c0-.569.115-1.058.343-1.466s.546-.752.933-1.009c.394-.264.849-.459 1.367-.583.539-.127 1.091-.189 1.645-.186a9.82 9.82 0 0 1 1.511.104 5.95 5.95 0 0 1 1.215.316v2.276a4.63 4.63 0 0 0-.597-.345c-.216-.106-.438-.177-.666-.24a5.32 5.32 0 0 0-.681-.141 4.61 4.61 0 0 0-.644-.046c-.279 0-.533.026-.761.08a1.9 1.9 0 0 0-.578.224 1.12 1.12 0 0 0-.366.347.82.82 0 0 0-.129.453c0 .183.048.347.145.491s.233.282.411.411a4.53 4.53 0 0 0 .647.381l.86.384c.405.167.798.362 1.177.583a4.18 4.18 0 0 1 .895.697c.259.259.431.555.572.888s.198.72.198 1.161c0 .609-.116 1.121-.347 1.534a2.81 2.81 0 0 1-.94 1.005 4.08 4.08 0 0 1-1.382.552c-.517.112-1.08.167-1.664.167-.573.002-1.146-.048-1.709-.152-.541-.102-1.009-.254-1.405-.457v.001zm16.541.41h-2.399v-4.333c0-1.209-.431-1.812-1.295-1.812-.399-.009-.779.169-1.028.479-.269.319-.403.726-.403 1.218v4.448H51.81v-7.799h2.407v1.233h.03c.574-.948 1.409-1.424 2.506-1.424 1.726 0 2.59 1.072 2.59 3.214l-.001 4.776zm8.393 0h-2.278v-1.121h-.03c-.523.873-1.297 1.31-2.323 1.31-.757 0-1.352-.216-1.786-.644s-.651-1-.651-1.717c0-1.513.897-2.386 2.688-2.621l2.117-.282c0-.862-.462-1.279-1.386-1.279-.929 0-1.813.276-2.65.83v-1.81c.334-.172.793-.325 1.375-.457s1.11-.198 1.588-.198c2.224 0 3.336 1.109 3.336 3.328v4.661h.001zm-2.261-3.169v-.517l-1.416.183c-.782.102-1.172.454-1.172 1.059 0 .274.086.5.284.674s.448.263.773.263a1.42 1.42 0 0 0 1.103-.468c.284-.313.427-.707.427-1.184l.001-.009zm6.595 2.263h-.031v4.493h-2.4V17.009h2.407v1.172h.031c.603-.909 1.429-1.362 2.505-1.362 1.01 0 1.791.347 2.341 1.04s.828 1.636.828 2.829c0 1.3-.322 2.343-.963 3.129s-1.497 1.181-2.563 1.181c-.948 0-1.655-.366-2.155-1.097v-.001zM72 20.711v.624c0 .538.142.978.427 1.317a1.39 1.39 0 0 0 1.121.51c.548 0 .974-.212 1.276-.636s.453-1.024.453-1.81c0-1.379-.533-2.056-1.599-2.056a1.5 1.5 0 0 0-1.207.559c-.312.373-.468.867-.468 1.481l-.003.01zm13.222 3.815c-.543.315-1.328.472-2.353.472-1.207 0-2.168-.362-2.909-1.089s-1.121-1.664-1.121-2.81c0-1.325.397-2.371 1.192-3.134s1.857-1.147 3.187-1.147c.919 0 1.584.122 1.995.366v2.04a2.74 2.74 0 0 0-1.683-.564c-.69 0-1.237.202-1.641.605s-.605.961-.605 1.672c0 .69.193 1.233.578 1.626s.916.59 1.591.59c.599 0 1.185-.188 1.759-.564l.011 1.936zm9.063.281h-2.399v-4.433c0-1.142-.416-1.714-1.25-1.714-.401-.012-.784.166-1.034.479-.263.319-.397.726-.397 1.219v4.448h-2.407V13.261h2.407v4.914h.03c.589-.899 1.379-1.348 2.399-1.348 1.767 0 2.65 1.066 2.65 3.19v4.791zm8.392 0h-2.278v-1.121h-.03c-.523.873-1.297 1.31-2.323 1.31-.756 0-1.352-.216-1.786-.644s-.651-1-.651-1.717c0-1.513.897-2.386 2.688-2.621l2.117-.282c0-.862-.462-1.279-1.386-1.279-.929 0-1.812.276-2.65.83v-1.81c.345-.172.793-.325 1.375-.457s1.11-.198 1.588-.198c2.224 0 3.336 1.109 3.336 3.328v4.661zm-2.263-3.169v-.517l-1.416.183c-.782.102-1.172.454-1.172 1.059 0 .274.086.5.284.674s.448.263.773.263a1.42 1.42 0 0 0 1.103-.468c.284-.313.427-.707.427-1.184l.001-.009zm8.881 3.078c-.356.188-.891.282-1.607.282-1.696 0-2.543-.881-2.543-2.643v-3.572h-1.266v-1.774h1.265v-1.683l2.399-.685v2.368h1.752v1.774h-1.752v3.153c0 .812.322 1.218.967 1.218a1.63 1.63 0 0 0 .784-.221v1.782.001z"/></svg>