<svg xmlns="http://www.w3.org/2000/svg" viewBox="0 0 90 90"><path fill="#FFF" d="M0 0h90v90H0z"/><path d="M47.71 20c3.598.003 7.198.023 10.787.123 4.514.126 9.013.378 13.472.878a9.604 9.604 0 0 1 5.408 2.457 10.072 10.072 0 0 1 3.03 5.205c1.257 5.48 1.257 11.422 1.257 17.032h.003v.142c-.003 2.823-.004 5.731-.162 8.598-.16 2.907-.478 5.798-1.114 8.569a10.103 10.103 0 0 1-3.032 5.205 9.59 9.59 0 0 1-5.4 2.457c-4.462.5-8.961.751-13.475.877-4.485.126-8.99.126-13.486.123h-2.697c-3.598-.002-7.199-.022-10.787-.123-4.515-.126-9.015-.377-13.477-.877a9.585 9.585 0 0 1-5.401-2.457 10.08 10.08 0 0 1-3.027-5.205c-.638-2.771-.957-5.662-1.116-8.569-.16-2.922-.16-5.802-.16-8.598l.001-1.205c.004-2.42.027-4.896.167-7.4.163-2.908.486-5.799 1.124-8.57a10.055 10.055 0 0 1 3.023-5.203 9.592 9.592 0 0 1 5.404-2.458c4.461-.5 8.962-.752 13.477-.878 4.486-.125 8.99-.125 13.484-.122ZM36.667 35.833v20l.824-.447 8.273-4.496 8.273-4.499.963-.523-.96-.527a29239.642 29239.642 0 0 0-16.547-9.055l-.826-.453Z" fill="red"/><path d="M54.04 45.341a29317.906 29317.906 0 0 0-16.547-9.055l-.826-.453v20l.824-.447 8.273-4.496 8.273-4.499.963-.523-.96-.527Z" fill="#FFF"/></svg>