<svg xmlns="http://www.w3.org/2000/svg" viewBox="0 0 30 30"><path fill="#FFF" d="M0 0h30v30H0z"/><path d="M15.813 7.5c1.08 0 2.16.007 3.236.036a49.82 49.82 0 0 1 4.042.255 2.926 2.926 0 0 1 2.531 2.224c.377 1.591.377 3.316.377 4.945H26V15c0 .82-.001 1.664-.049 2.496-.048.844-.143 1.684-.334 2.488a2.921 2.921 0 0 1-2.53 2.224 50.034 50.034 0 0 1-4.042.255c-.897.024-1.796.033-2.696.035H14.19c-1.08 0-2.16-.006-3.236-.035a50.04 50.04 0 0 1-4.043-.255 2.92 2.92 0 0 1-2.528-2.224c-.192-.804-.287-1.644-.335-2.488a35.555 35.555 0 0 1-.047-1.883v-.963c0-.702.007-1.421.05-2.148.048-.844.145-1.684.337-2.488A2.922 2.922 0 0 1 6.916 7.79a50.031 50.031 0 0 1 4.043-.255c1.346-.037 2.697-.037 4.045-.036h.809Zm-3.038 4.18v6.655l5.725-3.322-5.725-3.333Z" fill="red"/><path fill="#FFF" d="M12.775 11.68v6.655l5.725-3.322z"/></svg>