<svg viewBox="0 0 512 512" xmlns="http://www.w3.org/2000/svg" xmlns:xlink="http://www.w3.org/1999/xlink"><defs><filter x="-6.1%" y="-5.3%" width="112.3%" height="110.5%" filterUnits="objectBoundingBox" id="a"><feGaussianBlur stdDeviation="7" in="SourceGraphic"/></filter><path d="m171.006 398.817-.525-.014a24.248 24.248 0 0 1-10.657-2.917l-1.711-.933c-56.324-30.912-96.191-71.441-119.6-121.588-27.07-57.989-39.87-120.846-38.4-188.573a33.76 33.76 0 0 1 19.51-29.88l4.505-2.091 4.402-2.036 2.166-.999 3.206-1.474 4.193-1.92 4.1-1.87 4.007-1.819 3.915-1.767 2.876-1.292 3.752-1.679 3.66-1.626 2.684-1.187 1.76-.775 3.451-1.512 2.527-1.101 3.29-1.423 2.405-1.033 2.353-1.005 2.302-.976 2.987-1.256 2.894-1.206 2.11-.87 1.378-.565 2.023-.823 1.32-.532 1.296-.52 1.902-.756 1.849-.727 1.797-.698 1.169-.45 1.71-.65 1.111-.417 1.384-.516 2.094-.777 2.116-.777 2.134-.776 1.431-.517 1.438-.515 2.165-.769 2.175-.762 2.182-.755 1.456-.499 1.458-.494 1.457-.488 1.457-.484 1.455-.477 1.453-.47 1.45-.464 1.445-.457 1.44-.448 1.436-.44.715-.217 1.426-.426c.474-.14.946-.28 1.418-.417l1.409-.407 1.4-.396 1.39-.385C154.494 1.877 163.97 0 171.006 0c7.036 0 16.511 1.877 26.898 4.724l1.39.385 1.4.396 1.41.407c.471.137.944.276 1.418.417l1.425.426.716.217 1.435.44 1.44.448 1.446.457 1.45.463 1.453.471 1.455.477 1.457.484 1.457.488 1.457.494 1.457.499 2.181.755 2.175.762 2.166.77 1.438.514 1.431.517 2.134.776 2.116.777 2.094.777 1.384.516 1.11.417 1.71.65 1.17.45 1.797.698 1.85.727 1.9.756 1.297.52 1.32.532 2.023.823 1.377.564 2.11.871 2.895 1.206 2.987 1.256 2.302.976 2.353 1.005 2.406 1.033 3.288 1.423 2.528 1.1 3.45 1.513 1.761.775 2.684 1.187 3.66 1.626 3.752 1.679 2.876 1.292 3.914 1.767 4.008 1.819 4.1 1.87 4.193 1.92 3.206 1.474 2.166.999 4.402 2.036 4.506 2.092a33.76 33.76 0 0 1 19.508 29.879c1.47 67.727-11.329 130.584-38.399 188.573-23.41 50.147-63.276 90.676-119.6 121.588l-1.712.933a24.248 24.248 0 0 1-10.656 2.917l-.525.014Z" id="b"/></defs><g fill="none" fill-rule="evenodd"><path d="M143.578 0h224.844c49.925 0 68.03 5.198 86.281 14.96 18.252 9.76 32.576 24.085 42.338 42.337C506.8 75.548 512 93.653 512 143.577v224.845c0 49.925-5.198 68.03-14.96 86.281-9.76 18.252-24.085 32.576-42.337 42.338C436.452 506.8 418.347 512 368.423 512H143.577c-49.925 0-68.03-5.198-86.281-14.96-18.252-9.76-32.576-24.085-42.338-42.337C5.2 436.452 0 418.347 0 368.423V143.577c0-49.925 5.198-68.03 14.96-86.281 9.76-18.252 24.085-32.576 42.337-42.338C75.548 5.2 93.653 0 143.577 0Z"/><path d="m171.006 404.734-.385-.01a24.248 24.248 0 0 1-10.447-2.734l-.35-.186-1.711-.934c-56.324-30.912-96.191-71.441-119.6-121.588-27.07-57.988-39.87-120.846-38.4-188.573a33.76 33.76 0 0 1 19.16-29.715l.35-.164 4.505-2.092 4.402-2.036 2.166-.999 3.206-1.474 4.193-1.92 4.1-1.87 4.007-1.819 3.915-1.767 2.876-1.292 3.752-1.678 3.66-1.627 2.684-1.187 1.76-.775 3.451-1.512 2.527-1.1 3.29-1.423 2.405-1.034 2.353-1.005 2.302-.976 2.987-1.256 2.894-1.206 2.11-.87 1.378-.565 2.023-.823 1.32-.532 1.296-.52 1.902-.756 1.849-.727 1.797-.698 1.169-.45 1.71-.65 1.111-.417 1.384-.516 2.094-.776 2.116-.778 2.134-.776 1.431-.517 1.438-.515 2.165-.768 2.175-.763 2.182-.755 1.456-.499 1.458-.493 1.457-.49 1.457-.482 1.455-.478 1.453-.47 1.45-.464 1.445-.456 1.44-.449 1.436-.44.715-.216 1.426-.427 1.418-.417 1.409-.407 1.4-.396 1.39-.385 1.11-.302.552-.147 1.098-.29.546-.142 1.086-.277 1.077-.27 1.068-.26 1.059-.251.526-.123 1.043-.237c.346-.078.69-.154 1.033-.229l1.023-.218.507-.105 1.005-.204.498-.097.986-.188c4.577-.85 8.741-1.349 12.303-1.384h.379c3.644 0 7.942.503 12.681 1.384l.987.188.498.097 1.005.204.507.105 1.022.218.516.113 1.038.233c.348.08.698.16 1.049.243l1.059.251 1.068.26 1.077.27 1.086.277 1.094.286.55.146 1.106.297c.185.05.37.1.555.152l1.39.385 1.4.396 1.41.407 1.418.417 1.425.427.716.216 1.435.44 1.44.449 1.446.456 1.45.464 1.453.47 1.455.478 1.457.483 1.457.489 1.457.493 1.457.499 2.181.755 2.175.763 2.166.768 1.438.515 1.431.517 2.134.776 2.116.778 2.094.776 1.384.516 1.11.417 1.71.65 1.17.45 1.797.698 1.85.727 1.9.756 1.297.52 1.32.532 2.023.823 1.377.565 2.11.87 2.895 1.206 2.987 1.256 2.302.976 2.353 1.005 2.406 1.034 3.288 1.422 2.528 1.1 3.45 1.513 1.761.775 2.684 1.187 3.66 1.627 3.752 1.678 2.876 1.292 3.914 1.767 4.008 1.819 4.1 1.87 4.193 1.92 3.206 1.474 2.166.999 4.402 2.036 4.506 2.092a33.76 33.76 0 0 1 19.508 29.88c1.47 67.726-11.329 130.584-38.399 188.572-23.41 50.147-63.276 90.676-119.6 121.588l-1.712.934a24.249 24.249 0 0 1-10.796 2.92l-.385.01Z" fill="#0091FF" opacity=".6" filter="url(#a)" transform="translate(84.994 55.284)"/><g transform="translate(84.994 55.284)"><mask id="c" fill="#fff"><use xlink:href="#b"/></mask><use fill="#0091FF" xlink:href="#b"/><path fill="#D8D8D8" opacity=".439" style="mix-blend-mode:overlay" mask="url(#c)" d="M171.006-41.42H403.55v481.657H171.006z"/></g><path d="M356.862 185.604c3.596 3.596 3.771 9.367.4 13.166l-68.635 77.35-11.258 13.053c-10.386 12.042-28.578 13.372-40.633 2.971a28.862 28.862 0 0 1-3.086-3.1l-44.208-51.731a8.864 8.864 0 0 1 .464-12.027l8.55-8.55a8.863 8.863 0 0 1 11.458-.912l41.833 30.221a7.396 7.396 0 0 0 9.215-.44l76.203-66.995c3.801-3.342 9.549-3.154 13.132.43l6.565 6.564Z" fill="#FFF"/></g></svg>