<svg xmlns="http://www.w3.org/2000/svg" viewBox="0 0 120 40"><g fill="none" transform="translate(5 9)"><path fill="#0061FF" d="M12.7617188,4.13809524 L6.37914063,8.27619048 L12.7617188,12.4142857 L6.37914063,16.552381 L0,12.3815476 L6.38257813,8.24345238 L0,4.13809524 L6.38257813,0 L12.7617188,4.13809524 Z M6.34863281,17.8653968 L12.7312109,13.7273016 L19.1137891,17.8653968 L12.7316406,22 L6.3490625,17.8619048 L6.34863281,17.8653968 Z M12.7617188,12.3815476 L19.1442969,8.24345238 L12.7617188,4.13809524 L19.1142188,0 L25.4967969,4.13809524 L19.1142188,8.27619048 L25.4967969,12.4142857 L19.1142188,16.552381 L12.7655859,12.3793651 L12.7617188,12.3815476 Z"/><path fill="#000" d="M30.4876172,4.13809524 L35.6438672,4.13809524 C38.9369922,4.13809524 41.6530469,6.06964286 41.6530469,10.4840476 L41.6530469,11.415119 C41.6530469,15.8644444 39.1067187,17.8645238 35.7457031,17.8645238 L30.4876172,17.8645238 L30.4876172,4.13809524 Z M33.3733984,6.62619048 L33.3733984,15.3563492 L35.5802734,15.3563492 C37.4476953,15.3563492 38.7041016,14.1149206 38.7041016,11.355754 L38.7041016,10.6311508 C38.7041016,7.87242063 37.3806641,6.63055556 35.4788672,6.63055556 L33.3733984,6.63055556 L33.3733984,6.62619048 Z M43.1853125,6.76412698 L45.4940234,6.76412698 L45.8678516,9.35087302 C46.3091406,7.59174603 47.4297656,6.6606746 49.4664844,6.6606746 L50.1797656,6.6606746 L50.1797656,9.62674603 L48.9916797,9.62674603 C46.6490234,9.62674603 46.0719531,10.4543651 46.0719531,12.8001587 L46.0719531,17.9046825 L43.2201172,17.9046825 L43.2201172,6.765 L43.1857422,6.765 L43.1853125,6.76412698 Z M50.7564062,12.5583333 L50.7564062,12.2527778 C50.7564062,8.52805556 53.0990625,6.49305556 56.2907812,6.49305556 C59.5499609,6.49305556 61.8251562,8.52805556 61.8251562,12.2527778 L61.8251562,12.5583333 C61.8251562,16.2140873 59.6182812,18.1805556 56.2907812,18.1805556 C52.7600391,18.1456349 50.7564062,16.2145238 50.7564062,12.5583333 Z M58.9045703,12.5234127 L58.9045703,12.2475397 C58.9045703,10.1784921 57.8862109,8.93662698 56.2564062,8.93662698 C54.6605469,8.93662698 53.6082422,10.0746032 53.6082422,12.2475397 L53.6082422,12.5234127 C53.6082422,14.5239286 54.6266016,15.6662698 56.2564062,15.6662698 C57.8862109,15.6313492 58.9045703,14.5282937 58.9045703,12.5234127 Z M63.3183203,6.76369048 L65.6944922,6.76369048 L65.9660547,8.86765873 C66.543125,7.45337302 67.7655859,6.48781746 69.5646875,6.48781746 C72.3490625,6.48781746 74.1821094,8.52281746 74.1821094,12.2820238 L74.1821094,12.5875794 C74.1821094,16.2433333 72.1453906,18.174881 69.5646875,18.174881 C67.8330469,18.174881 66.6449609,17.381746 66.0678906,16.1058333 L66.0678906,21.7280556 L63.2835156,21.7280556 L63.3178906,6.75583333 L63.3183203,6.76369048 Z M71.2967578,12.5234127 L71.2967578,12.2820238 C71.2967578,10.0746032 70.1765625,8.97111111 68.6825391,8.97111111 C67.0866797,8.97111111 66.034375,10.2125397 66.034375,12.2820238 L66.034375,12.4889286 C66.034375,14.4549603 67.0527344,15.6963889 68.6485937,15.6963889 C70.2783984,15.6614683 71.2967578,14.5928968 71.2967578,12.5229762 L71.2967578,12.5234127 Z M78.3926172,15.8343254 L78.155,17.8693254 L75.7057813,17.8693254 L75.7057813,3.03503968 L78.4901562,3.03503968 L78.4901562,8.73015873 C79.1011719,7.28095238 80.3236328,6.48825397 82.0548438,6.48825397 C84.6690625,6.5231746 86.604375,8.35083333 86.604375,12.0406349 L86.604375,12.3898413 C86.604375,16.0800794 84.7708984,18.1840476 81.9869531,18.1840476 C80.1534766,18.149127 78.9653906,17.2874603 78.3883203,15.8386905 L78.3926172,15.8343254 Z M83.6889453,12.3859127 L83.6889453,12.1100397 C83.6889453,10.0750397 82.6026953,8.93662698 81.0747266,8.93662698 C79.5128125,8.93662698 78.4265625,10.2125397 78.4265625,12.1440873 L78.4265625,12.3854762 C78.4265625,14.4545238 79.4792969,15.6619048 81.0407812,15.6619048 C82.7045312,15.6619048 83.6889453,14.5924603 83.6889453,12.3854762 L83.6889453,12.3859127 Z M87.8311328,12.5583333 L87.8311328,12.2527778 C87.8311328,8.52805556 90.1737891,6.49305556 93.3655078,6.49305556 C96.6246875,6.49305556 98.8998828,8.52805556 98.8998828,12.2527778 L98.8998828,12.5583333 C98.8998828,16.2140873 96.6590625,18.1805556 93.3655078,18.1805556 C89.8347656,18.1456349 87.8311328,16.2145238 87.8311328,12.5583333 Z M96.0132422,12.5234127 L96.0132422,12.2475397 C96.0132422,10.1784921 94.9948828,8.93662698 93.3650781,8.93662698 C91.7692187,8.93662698 90.7169141,10.0746032 90.7169141,12.2475397 L90.7169141,12.5234127 C90.7169141,14.5239286 91.7352734,15.6662698 93.3650781,15.6662698 C94.9948828,15.6313492 96.0132422,14.5282937 96.0132422,12.5234127 Z M102.633437,12.1096032 L98.7971875,6.76369048 L102.090312,6.76369048 L104.297187,10.1090873 L106.538008,6.76369048 L109.797187,6.76369048 L105.893047,12.075119 L110,17.8653968 L106.774766,17.8653968 L104.262383,14.1751587 L101.813164,17.8653968 L98.4521484,17.8653968 L102.628711,12.1056746 L102.633437,12.1096032 Z"/></g></svg>