<svg viewBox="0 0 123 30" xmlns="http://www.w3.org/2000/svg"><path d="m11.99 15-2.483 2.47L7 15l2.506-2.492L11.99 15Zm6.07-6.037 4.277 4.253 2.507-2.491L18.06 4l-6.783 6.747 2.507 2.491 4.276-4.275Zm8.555 3.545L24.13 15l2.506 2.492L29.142 15l-2.527-2.492Zm-8.555 8.53-4.276-4.276-2.507 2.492L18.06 26l6.784-6.747-2.507-2.491-4.277 4.275Zm0-3.567 2.507-2.493-2.507-2.47L15.554 15l2.506 2.47v.001Zm26.356.257v-.042c0-1.612-.865-2.428-2.269-2.966.864-.472 1.599-1.246 1.599-2.6v-.041c0-1.892-1.534-3.116-3.997-3.116h-5.638v12.053h5.768c2.743.021 4.537-1.096 4.537-3.287v-.001Zm-3.328-5.155c0 .902-.734 1.266-1.922 1.266h-2.462v-2.556h2.635c1.124 0 1.75.45 1.75 1.247v.043Zm.67 4.812c0 .902-.712 1.311-1.88 1.311h-3.174v-2.644h3.088c1.362 0 1.966.495 1.966 1.311v.022Zm8.252 3.652V8.963h-2.678v12.053h2.678v.021Zm14.345 0V8.963h-2.636v7.434l-5.682-7.434h-2.462v12.053h2.636v-7.649l5.876 7.67h2.268Zm14.775 0L73.925 8.9h-2.462l-5.207 12.138H69l1.102-2.707h5.12l1.101 2.707h2.809-.002Zm-4.86-5.049h-3.22l1.62-3.91 1.599 3.91Zm17.585 5.05V8.962h-2.636v7.434l-5.682-7.434h-2.462v12.053h2.636v-7.649l5.876 7.67h2.268Zm13.76-1.956-1.706-1.697c-.951.86-1.794 1.417-3.197 1.417-2.074 0-3.521-1.718-3.521-3.78v-.065c0-2.063 1.468-3.76 3.52-3.76 1.21 0 2.161.516 3.111 1.354l1.706-1.956c-1.122-1.095-2.484-1.869-4.773-1.869-3.715 0-6.33 2.814-6.33 6.23V15c0 3.459 2.657 6.209 6.222 6.209 2.333.022 3.715-.795 4.968-2.127ZM117 21.037v-2.363h-6.59v-2.535h5.725v-2.364h-5.724v-2.449h6.502V8.963h-9.137v12.053H117v.021Z" fill="#F0B900"/></svg>