<svg viewBox="0 0 90 90" xmlns="http://www.w3.org/2000/svg"><defs><linearGradient x1="74.955%" y1="95.836%" x2="19.79%" y2="-4.168%" id="a"><stop stop-color="#1E8E3E" offset="0%"/><stop stop-color="#34A853" offset="100%"/></linearGradient><linearGradient x1="21.293%" y1="100.177%" x2="59.787%" y2=".181%" id="b"><stop stop-color="#FCC934" offset="0%"/><stop stop-color="#FBBC04" offset="100%"/></linearGradient><linearGradient x1="0%" y1="50%" x2="100%" y2="50%" id="c"><stop stop-color="#D93025" offset="0%"/><stop stop-color="#EA4335" offset="100%"/></linearGradient></defs><g fill="none"><path d="M45 67c12.151 0 22.002-9.851 22.002-22.002 0-12.151-9.85-22.001-22.001-22.001-12.151 0-22.001 9.85-22.001 22C23 57.15 32.85 67 45 67Z" fill="#FFF"/><path d="M24.947 55.003 5.897 22.007A43.99 43.99 0 0 0 22.002 82.11 43.992 43.992 0 0 0 44.004 88l19.05-32.997v-.005a21.995 21.995 0 0 1-38.107.005Z" fill="url(#a)" transform="translate(1 1)"/><path d="m63.053 55.002-19.05 32.997a43.99 43.99 0 0 0 43.997-44 43.992 43.992 0 0 0-5.9-22H44l-.006.004a21.997 21.997 0 0 1 19.059 32.999Z" fill="url(#b)" transform="translate(1 1)"/><path d="M45 62.42c9.62 0 17.418-7.798 17.418-17.417 0-9.62-7.798-17.418-17.417-17.418-9.62 0-17.418 7.798-17.418 17.418S35.381 62.42 45.001 62.42Z" fill="#1A73E8"/><path d="M44 22.001h38.101a43.993 43.993 0 0 0-76.204.006l19.05 32.996.005.003A21.998 21.998 0 0 1 44.001 22Z" fill="url(#c)" transform="translate(1 1)"/></g></svg>