<svg viewBox="0 0 90 90" xmlns="http://www.w3.org/2000/svg"><defs><radialGradient cx="93.763%" cy="50.926%" fx="93.763%" fy="50.926%" r="100.37%" gradientTransform="matrix(.86088 .07112 -.03997 .64943 .15 .112)" id="b"><stop stop-opacity="0" offset="0%"/><stop stop-opacity=".53" offset="91.442%"/><stop offset="100%"/></radialGradient><radialGradient cx="50%" cy="56.435%" fx="50%" fy="56.435%" r="60.676%" gradientTransform="matrix(.82861 .45376 -.5549 .6657 .399 -.038)" id="d"><stop stop-opacity="0" offset="0%"/><stop stop-opacity=".5" offset="85.274%"/><stop offset="100%"/><stop offset="100%"/></radialGradient><radialGradient cx="10.102%" cy="27.789%" fx="10.102%" fy="27.789%" r="118.831%" gradientTransform="scale(-.66583 -1) rotate(-87.709 -.315 .132)" id="e"><stop stop-color="#35C1F1" offset="0%"/><stop stop-color="#34C1ED" offset="11%"/><stop stop-color="#2FC2DF" offset="23%"/><stop stop-color="#2BC3D2" offset="31%"/><stop stop-color="#36C752" offset="67%"/></radialGradient><radialGradient cx="93.772%" cy="45.403%" fx="93.772%" fy="45.403%" r="57.096%" gradientTransform="scale(.66583 1) rotate(73.738 1.173 .768)" id="f"><stop stop-color="#66EB6E" offset="0%"/><stop stop-color="#66EB6E" stop-opacity="0" offset="100%"/></radialGradient><linearGradient x1="0%" y1="50.013%" x2="100.026%" y2="50.013%" id="a"><stop stop-color="#0C59A4" offset="0%"/><stop stop-color="#114A8B" offset="100%"/></linearGradient><linearGradient x1="76.664%" y1="24.794%" x2="33.233%" y2="83.151%" id="c"><stop stop-color="#1B9DE2" offset="0%"/><stop stop-color="#1595DF" offset="16%"/><stop stop-color="#0680D7" offset="67%"/><stop stop-color="#0078D4" offset="100%"/></linearGradient></defs><g fill="none"><path d="M79.425 65.485a32.22 32.22 0 0 1-3.623 1.619 35.02 35.02 0 0 1-12.34 2.22c-16.265 0-30.433-11.187-30.433-25.542a10.819 10.819 0 0 1 5.647-9.386c-14.711.618-18.492 15.947-18.492 24.927 0 25.391 23.404 27.965 28.447 27.965 2.719 0 6.82-.79 9.28-1.567l.45-.151a44.113 44.113 0 0 0 22.893-18.147 1.375 1.375 0 0 0-1.829-1.938Z" fill="url(#a)" transform="translate(1 1)"/><path d="M75.802 67.104a35.02 35.02 0 0 1-12.34 2.22c-16.265 0-30.433-11.187-30.433-25.542a10.819 10.819 0 0 1 5.647-9.386c-14.711.618-18.492 15.947-18.492 24.927 0 25.391 23.404 27.965 28.447 27.965 2.719 0 6.82-.79 9.28-1.567l.45-.151a44.113 44.113 0 0 0 22.893-18.147 1.375 1.375 0 0 0-1.829-1.938 32.22 32.22 0 0 1-3.623 1.619Z" fill="url(#b)" opacity=".25" transform="translate(1 1)"/><path d="M36.342 82.972a27.222 27.222 0 0 1-7.816-7.335 27.739 27.739 0 0 1 10.15-41.241c1.073-.506 2.905-1.42 5.342-1.375a11.12 11.12 0 0 1 8.83 4.468 10.956 10.956 0 0 1 2.186 6.413c0-.072 8.408-27.357-27.498-27.357-15.09 0-27.498 14.318-27.498 26.88A44.725 44.725 0 0 0 4.2 62.67c9.473 20.208 32.578 30.122 53.753 23.065a25.972 25.972 0 0 1-21.58-2.75l-.03-.013Z" fill="url(#c)" transform="translate(1 1)"/><path d="M36.306 82.972a27.222 27.222 0 0 1-7.816-7.335 27.739 27.739 0 0 1 10.15-41.241c1.073-.506 2.905-1.42 5.342-1.375a11.12 11.12 0 0 1 8.83 4.468 10.956 10.956 0 0 1 2.186 6.413c0-.072 8.408-27.357-27.498-27.357-15.09 0-27.498 14.318-27.498 26.88A44.725 44.725 0 0 0 4.164 62.67c9.473 20.208 32.578 30.122 53.753 23.065a25.972 25.972 0 0 1-21.58-2.75l-.03-.013Z" fill="url(#d)" opacity=".41" transform="translate(1 1)"/><path d="M52.36 51.16c-.278.361-1.134.86-1.134 1.946 0 .897.584 1.76 1.622 2.485 4.943 3.436 14.262 2.983 14.286 2.983 3.662-.01 7.255-1 10.404-2.87a21.095 21.095 0 0 0 10.46-18.174c.09-7.702-2.75-12.823-3.898-15.091C76.816 8.193 61.094 0 43.997 0 19.937-.002.338 19.319 0 43.373c.165-12.558 12.65-22.7 27.498-22.7 1.203 0 8.064.116 14.437 3.46 5.616 2.95 8.559 6.51 10.604 10.04 2.124 3.666 2.502 8.3 2.502 10.145 0 1.845-.942 4.581-2.68 6.842Z" fill="url(#e)" transform="translate(1 1)"/><path d="M52.36 51.16c-.278.361-1.134.86-1.134 1.946 0 .897.584 1.76 1.622 2.485 4.943 3.436 14.262 2.983 14.286 2.983 3.662-.01 7.255-1 10.404-2.87a21.095 21.095 0 0 0 10.46-18.174c.09-7.702-2.75-12.823-3.898-15.091C76.816 8.193 61.094 0 43.997 0 19.937-.002.338 19.319 0 43.373c.165-12.558 12.65-22.7 27.498-22.7 1.203 0 8.064.116 14.437 3.46 5.616 2.95 8.559 6.51 10.604 10.04 2.124 3.666 2.502 8.3 2.502 10.145 0 1.845-.942 4.581-2.68 6.842Z" fill="url(#f)" transform="translate(1 1)"/></g></svg>