<svg viewBox="0 0 90 90" xmlns="http://www.w3.org/2000/svg"><defs><radialGradient cx="85.925%" cy="-12.929%" fx="85.925%" fy="-12.929%" r="128.164%" gradientTransform="matrix(.81442 0 0 1 .16 0)" id="b"><stop stop-color="#FFBD4F" offset="13%"/><stop stop-color="#FFAC31" offset="19%"/><stop stop-color="#FF9D17" offset="25%"/><stop stop-color="#FF980E" offset="28%"/><stop stop-color="#FF563B" offset="40%"/><stop stop-color="#FF3750" offset="47%"/><stop stop-color="#F5156C" offset="71%"/><stop stop-color="#EB0878" offset="78%"/><stop stop-color="#E50080" offset="86%"/></radialGradient><radialGradient cx="47.785%" cy="39.519%" fx="47.785%" fy="39.519%" r="128.164%" gradientTransform="matrix(.81442 0 0 1 .089 0)" id="c"><stop stop-color="#960E18" offset="30%"/><stop stop-color="#B11927" stop-opacity=".74" offset="35%"/><stop stop-color="#DB293D" stop-opacity=".34" offset="43%"/><stop stop-color="#F5334B" stop-opacity=".09" offset="50%"/><stop stop-color="#FF3750" stop-opacity="0" offset="53%"/></radialGradient><radialGradient cx="50%" cy="-29.999%" fx="50%" fy="-29.999%" r="314.96%" gradientTransform="matrix(1 0 0 .58836 0 -.123)" id="d"><stop stop-color="#FFF44F" offset="13%"/><stop stop-color="#FFDC3E" offset="25%"/><stop stop-color="#FF9D12" offset="51%"/><stop stop-color="#FF980E" offset="53%"/></radialGradient><radialGradient cx="19.463%" cy="110.1%" fx="19.463%" fy="110.1%" r="111.77%" gradientTransform="matrix(1 0 0 .91112 0 .098)" id="e"><stop stop-color="#3A8EE6" offset="35%"/><stop stop-color="#5C79F0" offset="47%"/><stop stop-color="#9059FF" offset="67%"/><stop stop-color="#C139E6" offset="100%"/></radialGradient><radialGradient cx="60.867%" cy="26.008%" fx="60.867%" fy="26.008%" r="103.485%" gradientTransform="scale(1 .91112) rotate(75.317 .592 .273)" id="f"><stop stop-color="#9059FF" stop-opacity="0" offset="0%"/><stop stop-color="#8C4FF3" stop-opacity=".06" offset="28%"/><stop stop-color="#7716A8" stop-opacity=".45" offset="75%"/><stop stop-color="#6E008B" stop-opacity=".6" offset="100%"/></radialGradient><radialGradient cx="208.049%" cy="-103.933%" fx="208.049%" fy="-103.933%" r="293.267%" gradientTransform="matrix(1 0 0 .99526 0 -.005)" id="g"><stop stop-color="#FFE226" offset="0%"/><stop stop-color="#FFDB27" offset="12%"/><stop stop-color="#FFC82A" offset="30%"/><stop stop-color="#FFA930" offset="50%"/><stop stop-color="#FF7E37" offset="73%"/><stop stop-color="#FF7139" offset="79%"/></radialGradient><radialGradient cx="97.177%" cy="-40.87%" fx="97.177%" fy="-40.87%" r="164.679%" gradientTransform="scale(-.84025 -1) rotate(-58.807 .633 1.888)" id="h"><stop stop-color="#FFF44F" offset="0%"/><stop stop-color="#FF980E" offset="46%"/><stop stop-color="#FF5634" offset="62%"/><stop stop-color="#FF3647" offset="72%"/><stop stop-color="#E31587" offset="100%"/></radialGradient><radialGradient cx=".432%" cy="1.757%" fx=".432%" fy="1.757%" r="256.924%" gradientTransform="scale(1 .47298) rotate(84.238 -.007 .027)" id="i"><stop stop-color="#FFF44F" offset="0%"/><stop stop-color="#FFE847" offset="6%"/><stop stop-color="#FFC830" offset="17%"/><stop stop-color="#FF980E" offset="30%"/><stop stop-color="#FF8B16" offset="36%"/><stop stop-color="#FF672A" offset="45%"/><stop stop-color="#FF3647" offset="57%"/><stop stop-color="#E31587" offset="100%"/></radialGradient><radialGradient cx="48.142%" cy="-42.477%" fx="48.142%" fy="-42.477%" r="180.975%" gradientTransform="matrix(.98381 0 0 1 .008 0)" id="j"><stop stop-color="#FFF44F" offset="0%"/><stop stop-color="#FF980E" offset="48%"/><stop stop-color="#FF5634" offset="59%"/><stop stop-color="#FF3647" offset="66%"/><stop stop-color="#E31587" offset="100%"/></radialGradient><radialGradient cx="180.6%" cy="-44.717%" fx="180.6%" fy="-44.717%" r="168.898%" gradientTransform="matrix(.89568 0 0 1 .188 0)" id="k"><stop stop-color="#FFF44F" offset="0%"/><stop stop-color="#FFE141" offset="23%"/><stop stop-color="#FFAF1E" offset="51%"/><stop stop-color="#FF980E" offset="100%"/></radialGradient><linearGradient x1="89.69%" y1="15.492%" x2="6.741%" y2="93.086%" id="a"><stop stop-color="#FFF44F" offset="5%"/><stop stop-color="#FFE847" offset="11%"/><stop stop-color="#FFC830" offset="22%"/><stop stop-color="#FF980E" offset="37%"/><stop stop-color="#FF8B16" offset="40%"/><stop stop-color="#FF672A" offset="46%"/><stop stop-color="#FF3647" offset="53%"/><stop stop-color="#E31587" offset="70%"/></linearGradient><linearGradient x1="76.694%" y1="26.709%" x2="46.345%" y2="56.135%" id="l"><stop stop-color="#FFF44F" stop-opacity=".8" offset="0%"/><stop stop-color="#FFF44F" stop-opacity=".63" offset="27%"/><stop stop-color="#FFF44F" stop-opacity=".22" offset="49%"/><stop stop-color="#FFF44F" stop-opacity="0" offset="100%"/></linearGradient></defs><g fill="none"><path d="M83.863 30.186c-1.892-4.56-5.727-9.482-8.737-11.036 2.45 4.81 3.867 9.633 4.41 13.233 0 0 0 .025.008.072C74.62 20.165 66.268 15.21 59.448 4.42a46.343 46.343 0 0 1-1.028-1.671c-.19-.329-.344-.626-.478-.908a7.939 7.939 0 0 1-.65-1.718.114.114 0 0 0-.099-.118.156.156 0 0 0-.081 0 .085.085 0 0 0-.02.013c-.011 0-.022.013-.033.016l.018-.023C46.136 6.426 42.424 18.293 42.083 24.23a21.792 21.792 0 0 0-11.997 4.625 12.89 12.89 0 0 0-1.127-.853 20.229 20.229 0 0 1-.121-10.657c-4.475 2.041-7.955 5.261-10.485 8.112h-.02c-1.727-2.19-1.606-9.413-1.508-10.92-.02-.095-1.287.658-1.45.773a31.68 31.68 0 0 0-4.258 3.65 38.123 38.123 0 0 0-4.067 4.882 36.822 36.822 0 0 0-5.845 13.211l-.058.289c-.081.383-.377 2.304-.43 2.721v.096A41.605 41.605 0 0 0 0 46.177v.223C0 70.479 19.502 90 43.557 90 65.1 90 82.987 74.343 86.49 53.776c.073-.556.133-1.119.198-1.681.866-7.479-.096-15.338-2.826-21.91ZM33.66 64.316c.203.096.395.203.603.297l.03.018c-.21-.101-.421-.207-.631-.315h-.002Zm45.889-31.84v-.042.047-.006Z" fill="url(#a)" transform="translate(1.5)"/><path d="M83.863 30.186c-1.892-4.56-5.727-9.482-8.737-11.036 2.45 4.81 3.867 9.633 4.41 13.233v.089c4.11 11.154 1.87 22.496-1.356 29.427-4.992 10.722-17.075 21.713-35.992 21.178-20.42-.58-38.424-15.768-41.786-35.643-.612-3.137 0-4.728.308-7.274-.375 1.962-.518 2.53-.705 6.017v.223C.005 70.479 19.507 90 43.562 90c21.544 0 39.431-15.657 42.935-36.224.072-.556.132-1.119.197-1.681.861-7.479-.101-15.338-2.83-21.91Z" fill="url(#b)" transform="translate(1.5)"/><path d="M83.863 30.186c-1.892-4.56-5.727-9.482-8.737-11.036 2.45 4.81 3.867 9.633 4.41 13.233v.089c4.11 11.154 1.87 22.496-1.356 29.427-4.992 10.722-17.075 21.713-35.992 21.178-20.42-.58-38.424-15.768-41.786-35.643-.612-3.137 0-4.728.308-7.274-.375 1.962-.518 2.53-.705 6.017v.223C.005 70.479 19.507 90 43.562 90c21.544 0 39.431-15.657 42.935-36.224.072-.556.132-1.119.197-1.681.861-7.479-.101-15.338-2.83-21.91Z" fill="url(#c)" transform="translate(1.5)"/><path d="M62.696 35.31c.096.066.181.133.272.2a23.672 23.672 0 0 0-4.046-5.283C45.383 16.675 55.374.84 57.057.034l.019-.023C46.134 6.426 42.422 18.293 42.08 24.23c.508-.034 1.013-.078 1.53-.078 8.165 0 15.277 4.496 19.085 11.156Z" fill="url(#d)" transform="translate(1.5)"/><path d="M43.638 38.016c-.07 1.089-3.898 4.826-5.238 4.826-12.386 0-14.396 7.5-14.396 7.5.544 6.317 4.94 11.519 10.26 14.271.243.125.488.238.725.35.426.182.854.363 1.28.525a19.354 19.354 0 0 0 5.667 1.088c21.71 1.02 25.918-25.984 10.25-33.825 4.01-.698 8.175.918 10.5 2.553-3.805-6.66-10.92-11.156-19.084-11.156-.517 0-1.022.043-1.53.078a21.786 21.786 0 0 0-11.986 4.63c.666.564 1.416 1.315 2.995 2.872 2.961 2.924 10.54 5.934 10.557 6.288Z" fill="url(#e)" transform="translate(1.5)"/><path d="M43.638 38.016c-.07 1.089-3.898 4.826-5.238 4.826-12.386 0-14.396 7.5-14.396 7.5.544 6.317 4.94 11.519 10.26 14.271.243.125.488.238.725.35.426.182.854.363 1.28.525a19.354 19.354 0 0 0 5.667 1.088c21.71 1.02 25.918-25.984 10.25-33.825 4.01-.698 8.175.918 10.5 2.553-3.805-6.66-10.92-11.156-19.084-11.156-.517 0-1.022.043-1.53.078a21.786 21.786 0 0 0-11.986 4.63c.666.564 1.416 1.315 2.995 2.872 2.961 2.924 10.54 5.934 10.557 6.288Z" fill="url(#f)" transform="translate(1.5)"/><path d="M28.062 27.406c.353.229.643.421.906.597a20.229 20.229 0 0 1-.121-10.657c-4.475 2.041-7.955 5.261-10.485 8.112.205-.006 6.523-.12 9.7 1.948Z" fill="url(#g)" transform="translate(1.5)"/><path d="M.402 47.434c3.362 19.875 21.365 35.062 41.8 35.643 18.917.535 30.993-10.456 35.992-21.178 3.226-6.932 5.466-18.273 1.356-29.427v-.084c0 .011 0 .026.009.073 1.544 10.1-3.587 19.884-11.609 26.5a1.325 1.325 0 0 0-.023.057c-15.633 12.741-30.59 7.687-33.62 5.624-.21-.102-.422-.207-.632-.316-9.115-4.354-12.88-12.672-12.073-19.8-7.693 0-10.318-6.5-10.318-6.5s6.91-4.93 16.015-.641c8.433 3.973 16.354.644 16.354.642-.017-.354-7.596-3.373-10.552-6.288-1.58-1.557-2.33-2.308-2.995-2.872a12.89 12.89 0 0 0-1.127-.853c-.26-.181-.544-.363-.906-.597-3.177-2.068-9.496-1.954-9.704-1.948h-.02c-1.727-2.19-1.606-9.413-1.508-10.92-.02-.095-1.287.658-1.45.772a31.68 31.68 0 0 0-4.257 3.65 38.123 38.123 0 0 0-4.067 4.883 36.822 36.822 0 0 0-5.845 13.211c-.035.084-1.584 6.856-.82 10.369Z" fill="url(#h)" transform="translate(1.5)"/><path d="M58.922 30.227a23.672 23.672 0 0 1 4.046 5.284c.226.17.444.351.652.544 9.874 9.1 4.709 21.983 4.316 22.908 8.021-6.616 13.153-16.4 11.608-26.5C74.62 20.165 66.268 15.209 59.448 4.42a46.343 46.343 0 0 1-1.028-1.671c-.19-.329-.344-.626-.478-.908a7.939 7.939 0 0 1-.65-1.718.114.114 0 0 0-.099-.118.156.156 0 0 0-.081 0 .085.085 0 0 0-.02.013c-.011 0-.022.013-.033.016-1.685.806-11.676 16.64 1.863 30.193Z" fill="url(#i)" transform="translate(1.5)"/><path d="M63.617 36.046a8.404 8.404 0 0 0-.653-.545 19.089 19.089 0 0 0-.272-.2c-2.325-1.634-6.49-3.252-10.501-2.554 15.667 7.842 11.46 34.845-10.25 33.825a19.354 19.354 0 0 1-5.667-1.088c-.426-.16-.854-.336-1.28-.524a12.747 12.747 0 0 1-.724-.35l.029.018c3.028 2.068 17.986 7.122 33.619-5.625l.023-.056c.388-.909 5.553-13.792-4.324-22.901Z" fill="url(#j)" transform="translate(1.5)"/><path d="M24.004 50.342s2.01-7.5 14.396-7.5c1.34 0 5.167-3.741 5.238-4.826.07-1.085-7.92 3.331-16.354-.642-9.105-4.29-16.014.642-16.014.642s2.624 6.499 10.318 6.499c-.807 7.128 2.958 15.439 12.073 19.8.203.097.395.204.603.298-5.32-2.747-9.71-7.954-10.26-14.27Z" fill="url(#k)" transform="translate(1.5)"/><path d="M83.863 30.186c-1.892-4.56-5.727-9.482-8.737-11.036 2.45 4.81 3.867 9.633 4.41 13.233 0 0 0 .025.008.072C74.62 20.165 66.268 15.21 59.448 4.42a46.343 46.343 0 0 1-1.028-1.671c-.19-.329-.344-.626-.478-.908a7.939 7.939 0 0 1-.65-1.718.114.114 0 0 0-.099-.118.156.156 0 0 0-.081 0 .085.085 0 0 0-.02.013c-.011 0-.022.013-.033.016l.018-.023C46.136 6.426 42.424 18.293 42.083 24.23c.508-.034 1.013-.078 1.53-.078 8.165 0 15.277 4.496 19.085 11.156-2.326-1.633-6.49-3.251-10.502-2.553 15.667 7.842 11.46 34.845-10.249 33.826a19.354 19.354 0 0 1-5.667-1.089c-.426-.16-.854-.336-1.28-.524a12.75 12.75 0 0 1-.725-.35l.029.018c-.21-.102-.422-.207-.633-.316.203.096.396.203.604.297-5.33-2.752-9.722-7.959-10.271-14.276 0 0 2.01-7.5 14.396-7.5 1.34 0 5.167-3.741 5.238-4.826-.016-.354-7.596-3.373-10.552-6.288-1.579-1.557-2.329-2.308-2.994-2.872a12.89 12.89 0 0 0-1.127-.853 20.229 20.229 0 0 1-.122-10.657c-4.475 2.041-7.955 5.261-10.485 8.112h-.02c-1.727-2.19-1.606-9.413-1.508-10.92-.02-.095-1.287.658-1.45.773a31.68 31.68 0 0 0-4.257 3.65 38.123 38.123 0 0 0-4.067 4.882A36.822 36.822 0 0 0 1.21 37.054l-.058.289C1.07 37.726.7 39.674.65 40.092c0 .032 0-.031 0 0A50.638 50.638 0 0 0 0 46.177v.223C0 70.479 19.502 90 43.557 90 65.1 90 82.987 74.343 86.49 53.776c.073-.556.133-1.119.198-1.681.866-7.479-.096-15.338-2.826-21.91Zm-4.32 2.238v.048-.048Z" fill="url(#l)" transform="translate(1.5)"/></g></svg>