<svg viewBox="0 0 90 90" xmlns="http://www.w3.org/2000/svg"><defs><linearGradient x1="50.002%" y1="1.631%" x2="50.002%" y2="98.545%" id="a"><stop stop-color="#FF1B2D" offset="30%"/><stop stop-color="#FA1A2C" offset="43.8%"/><stop stop-color="#ED1528" offset="59.4%"/><stop stop-color="#D60E21" offset="75.8%"/><stop stop-color="#B70519" offset="92.7%"/><stop stop-color="#A70014" offset="100%"/></linearGradient><linearGradient x1="49.996%" y1=".853%" x2="49.996%" y2="99.607%" id="b"><stop stop-color="#9C0000" offset="0%"/><stop stop-color="#FF4B4B" offset="70%"/></linearGradient></defs><g fill="none"><path d="M29.516 68.796c-4.864-5.742-8.015-14.232-8.231-23.76v-2.073c.215-9.527 3.366-18.016 8.23-23.759C35.828 11.006 45.212 5.81 55.689 5.81c6.444 0 12.475 1.968 17.632 5.39C65.578 4.273 55.365.045 44.164.004L43.999 0C19.698 0 0 19.7 0 44.001c0 23.595 18.576 42.852 41.903 43.946A44.47 44.47 0 0 0 44 88c11.265 0 21.538-4.236 29.322-11.197-5.157 3.42-11.185 5.388-17.632 5.388-10.478 0-19.861-5.197-26.173-13.394v-.001Z" fill="url(#a)" transform="translate(1 1)"/><path d="M29.516 19.205c4.036-4.766 9.253-7.64 14.95-7.64 12.807 0 23.191 14.523 23.191 32.436 0 17.914-10.382 32.436-23.192 32.436-5.696 0-10.913-2.874-14.948-7.64 6.312 8.198 15.695 13.394 26.173 13.394 6.447 0 12.475-1.967 17.633-5.387C82.33 68.748 88 57.036 88 44c0-13.033-5.67-24.741-14.674-32.798-5.16-3.423-11.19-5.392-17.637-5.392-10.478 0-19.861 5.199-26.173 13.395Z" fill="url(#b)" transform="translate(1 1)"/></g></svg>