<svg viewBox="0 0 90 90" xmlns="http://www.w3.org/2000/svg"><defs><radialGradient cx="50.225%" cy="42.709%" fx="50.225%" fy="42.709%" r="54.51%" gradientTransform="matrix(.99526 0 0 1 .002 0)" id="b"><stop stop-color="#06C2E7" offset="0%"/><stop stop-color="#0DB8EC" offset="25%"/><stop stop-color="#12AEF1" offset="50%"/><stop stop-color="#1F86F9" offset="75%"/><stop stop-color="#107DDD" offset="100%"/></radialGradient><linearGradient x1="49.998%" y1="99.999%" x2="49.998%" y2="0%" id="a"><stop stop-color="#BDBDBD" offset="0%"/><stop stop-color="#FFF" offset="100%"/></linearGradient></defs><g fill="none"><path d="M87.388 48.378c0 10.774-4.465 21.106-12.414 28.724C67.024 84.72 56.244 89 45.002 89 33.761 89 22.98 84.72 15.03 77.102 7.081 69.484 2.616 59.152 2.616 48.378c0-22.435 18.977-40.622 42.386-40.622 11.242 0 22.023 4.28 29.972 11.898 7.949 7.618 12.414 17.95 12.414 28.724Z" fill="#000" opacity=".53"/><path d="M88 43.791a43.686 43.686 0 0 1-12.887 30.965A44.107 44.107 0 0 1 44 87.582c-24.3 0-44-19.606-44-43.79C0 19.605 19.7 0 44 0a44.107 44.107 0 0 1 31.113 12.826A43.686 43.686 0 0 1 88 43.791h0Z" stroke="#CDCDCD" stroke-width=".5" fill="url(#a)" stroke-linecap="round" stroke-linejoin="round" transform="translate(1 1)"/><path d="M84.552 43.791c0 22.29-18.156 40.36-40.552 40.36S3.448 66.081 3.448 43.791 21.604 3.431 44 3.431s40.552 18.07 40.552 40.36Z" fill="url(#b)" transform="translate(1 1)"/><path d="M45 6.536a.589.589 0 0 0-.591.589v6.787c0 .326.263.588.591.588a.589.589 0 0 0 .591-.588V7.125A.589.589 0 0 0 45 6.536Zm-3.868.243a.588.588 0 0 0-.647.647l.298 2.84a.59.59 0 0 0 .65.524.588.588 0 0 0 .526-.646l-.297-2.84a.589.589 0 0 0-.53-.525Zm7.763.003a.589.589 0 0 0-.53.525l-.3 2.839c-.034.324.2.613.527.647a.59.59 0 0 0 .65-.524l.3-2.84a.588.588 0 0 0-.647-.647Zm-11.736.57a.587.587 0 0 0-.575.71l1.412 6.641a.59.59 0 0 0 .7.454.587.587 0 0 0 .457-.697L37.74 7.82a.59.59 0 0 0-.581-.467Zm15.709.006a.589.589 0 0 0-.582.467l-1.417 6.639a.587.587 0 0 0 .455.698.59.59 0 0 0 .702-.453l1.417-6.64a.587.587 0 0 0-.575-.71ZM33.367 8.417a.586.586 0 0 0-.613.768l.886 2.716a.59.59 0 0 0 1.125-.364l-.887-2.715a.59.59 0 0 0-.511-.405Zm23.271.001a.59.59 0 0 0-.511.405l-.887 2.715a.587.587 0 0 0 .38.742.59.59 0 0 0 .745-.378l.886-2.715a.587.587 0 0 0-.613-.769Zm-27.02 1.365a.592.592 0 0 0-.53.828l2.77 6.202a.59.59 0 0 0 1.08-.478l-2.77-6.202a.59.59 0 0 0-.55-.35Zm30.812.02a.591.591 0 0 0-.551.35l-2.778 6.198a.591.591 0 0 0 1.08.48l2.778-6.199a.586.586 0 0 0-.529-.829Zm-34.293 1.813a.587.587 0 0 0-.337.078.586.586 0 0 0-.216.803l1.434 2.473a.591.591 0 0 0 1.024-.589l-1.434-2.472a.59.59 0 0 0-.471-.293Zm37.726 0a.588.588 0 0 0-.47.293l-1.435 2.472a.591.591 0 0 0 1.024.588l1.435-2.472a.586.586 0 0 0-.217-.804.593.593 0 0 0-.337-.078Zm-41.106 2.097a.595.595 0 0 0-.327.113.585.585 0 0 0-.131.822l4.004 5.493c.192.264.56.323.826.131a.585.585 0 0 0 .131-.822l-4.004-5.493a.59.59 0 0 0-.499-.243Zm44.528.03a.59.59 0 0 0-.499.243l-4.012 5.488a.585.585 0 0 0 .13.822.592.592 0 0 0 .827-.13l4.012-5.488a.586.586 0 0 0-.13-.822.592.592 0 0 0-.328-.113Zm-47.549 2.492a.59.59 0 0 0-.47.982l1.919 2.122c.22.242.592.262.835.043a.585.585 0 0 0 .044-.83l-1.92-2.123a.59.59 0 0 0-.408-.194Zm50.532.004a.593.593 0 0 0-.408.195l-1.92 2.121a.585.585 0 0 0 .044.831.592.592 0 0 0 .835-.043l1.92-2.122a.59.59 0 0 0-.47-.982Zm-53.427 2.764a.592.592 0 0 0-.409.195.584.584 0 0 0 .044.83l5.069 4.542a.592.592 0 0 0 .835-.044.585.585 0 0 0-.044-.831l-5.069-4.541a.591.591 0 0 0-.426-.15v-.001Zm56.337.02a.59.59 0 0 0-.427.15l-5.072 4.538a.585.585 0 0 0-.044.83.592.592 0 0 0 .835.045l5.072-4.537a.585.585 0 0 0 .044-.831.59.59 0 0 0-.408-.195Zm-58.745 3.061a.59.59 0 0 0-.368 1.065l2.32 1.678a.592.592 0 0 0 .826-.13.586.586 0 0 0-.13-.822l-2.32-1.678a.593.593 0 0 0-.328-.113Zm61.15.022a.593.593 0 0 0-.327.112l-2.322 1.677a.586.586 0 0 0-.131.822.59.59 0 0 0 .825.13l2.323-1.676a.585.585 0 0 0 .13-.822.59.59 0 0 0-.498-.243Zm-63.4 3.265a.589.589 0 0 0-.254 1.097l5.906 3.394a.591.591 0 0 0 .807-.215.586.586 0 0 0-.216-.804l-5.906-3.394a.593.593 0 0 0-.337-.078Zm65.634 0a.588.588 0 0 0-.337.078l-5.906 3.394a.586.586 0 0 0-.216.804.591.591 0 0 0 .807.215l5.907-3.394a.586.586 0 0 0 .216-.803.59.59 0 0 0-.47-.294Zm-67.335 3.503a.589.589 0 0 0-.253 1.127l2.62 1.163c.3.132.648 0 .781-.298a.586.586 0 0 0-.3-.777l-2.619-1.163a.592.592 0 0 0-.23-.052Zm69.048.025a.593.593 0 0 0-.23.051l-2.62 1.161a.586.586 0 0 0-.3.777.591.591 0 0 0 .78.298l2.621-1.161a.59.59 0 0 0-.251-1.126ZM8.965 32.536a.589.589 0 0 0-.132 1.146l6.484 2.103a.59.59 0 0 0 .745-.377.587.587 0 0 0-.379-.742L9.2 32.563a.594.594 0 0 0-.234-.027Zm72.078.025a.575.575 0 0 0-.233.027l-6.486 2.099a.587.587 0 0 0-.38.741.59.59 0 0 0 .746.378l6.485-2.098a.587.587 0 0 0-.132-1.147ZM8.021 36.38a.59.59 0 0 0-.127 1.164l2.806.594a.59.59 0 0 0 .701-.454.587.587 0 0 0-.455-.697l-2.806-.594a.583.583 0 0 0-.12-.013Zm73.96.005a.73.73 0 0 0-.12.013l-2.806.593a.587.587 0 0 0-.455.698.59.59 0 0 0 .701.453l2.806-.593a.587.587 0 0 0-.126-1.164ZM7.306 40.246a.588.588 0 0 0-.005 1.171l6.782.714a.59.59 0 1 0 .125-1.17l-6.782-.714a.61.61 0 0 0-.12 0Zm75.395.05a.545.545 0 0 0-.12.001l-6.783.705a.588.588 0 1 0 .122 1.17l6.783-.704a.588.588 0 0 0-.002-1.171ZM7.19 44.205a.589.589 0 1 0 0 1.177h2.869a.589.589 0 1 0 0-1.177H7.19Zm72.75 0a.589.589 0 1 0 0 1.177h2.868a.589.589 0 1 0 0-1.177H79.94ZM14.2 47.412a.542.542 0 0 0-.12 0l-6.783.705a.588.588 0 1 0 .123 1.17l6.782-.704a.588.588 0 0 0-.002-1.171Zm61.597.041a.588.588 0 0 0-.005 1.171l6.782.714a.59.59 0 1 0 .125-1.17l-6.782-.714a.612.612 0 0 0-.12 0Zm-64.978 3.975c-.04 0-.08.005-.12.013l-2.806.593a.587.587 0 0 0-.455.698.59.59 0 0 0 .7.453l2.807-.593a.587.587 0 0 0-.126-1.164Zm68.362.006a.589.589 0 0 0-.127 1.164l2.806.594a.59.59 0 1 0 .246-1.152l-2.806-.593a.583.583 0 0 0-.12-.013Zm-63.637 2.318a.575.575 0 0 0-.234.027l-6.485 2.098a.587.587 0 0 0-.38.742.59.59 0 0 0 .745.377l6.486-2.098a.587.587 0 0 0-.132-1.146Zm58.906.02a.589.589 0 0 0-.133 1.147l6.484 2.102a.59.59 0 0 0 .745-.377.586.586 0 0 0-.378-.742L74.683 53.8a.594.594 0 0 0-.233-.027Zm-61.381 4.575a.592.592 0 0 0-.23.051l-2.62 1.162a.586.586 0 0 0-.3.777c.134.297.482.43.78.298l2.622-1.161a.586.586 0 0 0 .3-.777.59.59 0 0 0-.552-.35Zm63.853.023a.589.589 0 0 0-.253 1.126l2.62 1.163c.3.133.647 0 .78-.298a.586.586 0 0 0-.298-.777l-2.62-1.163a.592.592 0 0 0-.23-.051Zm-58.75 1.275a.588.588 0 0 0-.337.078l-5.906 3.393a.586.586 0 0 0-.217.804.591.591 0 0 0 .808.216l5.906-3.394a.59.59 0 0 0-.254-1.097Zm53.657 0a.589.589 0 0 0-.255 1.097l5.906 3.394a.592.592 0 0 0 .808-.216.586.586 0 0 0-.216-.804l-5.907-3.393a.592.592 0 0 0-.336-.078Zm-55.13 4.98a.594.594 0 0 0-.328.112l-2.321 1.677a.585.585 0 0 0-.132.822c.193.264.56.322.826.13l2.322-1.676a.585.585 0 0 0 .131-.822.591.591 0 0 0-.498-.243Zm56.588.02a.59.59 0 0 0-.368 1.065l2.321 1.678a.592.592 0 0 0 .826-.13.585.585 0 0 0-.13-.822l-2.321-1.678a.593.593 0 0 0-.328-.113Zm-51.33.203a.59.59 0 0 0-.427.15l-5.071 4.538a.585.585 0 0 0-.045.831.592.592 0 0 0 .835.044l5.072-4.537a.59.59 0 0 0-.364-1.026Zm46.072.016a.593.593 0 0 0-.409.195.584.584 0 0 0 .044.83l5.069 4.542a.592.592 0 0 0 .835-.044.585.585 0 0 0-.044-.83l-5.069-4.542a.59.59 0 0 0-.426-.15Zm-41.26 4.31a.59.59 0 0 0-.5.243l-4.011 5.489a.585.585 0 0 0 .13.822.592.592 0 0 0 .826-.13l4.012-5.488a.59.59 0 0 0-.457-.935Zm36.43.026a.593.593 0 0 0-.328.112.585.585 0 0 0-.131.822l4.004 5.493c.193.264.56.323.826.131a.585.585 0 0 0 .131-.821l-4.004-5.494a.59.59 0 0 0-.499-.243Zm-41.61.847a.593.593 0 0 0-.408.195l-1.92 2.121a.588.588 0 0 0 .044.832.592.592 0 0 0 .835-.044l1.92-2.122a.59.59 0 0 0-.47-.982Zm46.818.003a.588.588 0 0 0-.47.982l1.919 2.122a.591.591 0 0 0 .834.044.585.585 0 0 0 .044-.832l-1.919-2.122a.59.59 0 0 0-.408-.194ZM32.37 72.404a.588.588 0 0 0-.551.349L29.04 78.95a.591.591 0 0 0 1.08.48l2.779-6.199a.586.586 0 0 0-.53-.828Zm25.22.017a.586.586 0 0 0-.53.828l2.77 6.202a.591.591 0 0 0 1.081-.478l-2.77-6.203a.59.59 0 0 0-.55-.35Zm-30.103 1.9a.588.588 0 0 0-.47.292l-1.434 2.473a.591.591 0 0 0 1.024.588l1.434-2.472a.586.586 0 0 0-.216-.804.593.593 0 0 0-.338-.078Zm35.024 0a.588.588 0 0 0-.337.077.586.586 0 0 0-.217.804l1.435 2.472a.591.591 0 0 0 1.024-.588l-1.435-2.473a.59.59 0 0 0-.47-.293Zm-23.956.088a.589.589 0 0 0-.581.466l-1.418 6.64a.587.587 0 0 0 .456.697.59.59 0 0 0 .701-.453l1.417-6.64a.587.587 0 0 0-.575-.71Zm12.867.004a.587.587 0 0 0-.575.71l1.412 6.64a.59.59 0 0 0 .7.454.587.587 0 0 0 .457-.698l-1.413-6.64a.59.59 0 0 0-.581-.466Zm-6.423.67a.589.589 0 0 0-.591.588v6.787c0 .326.263.589.591.589a.589.589 0 0 0 .591-.589v-6.787a.589.589 0 0 0-.591-.588Zm-10.853 2.193a.59.59 0 0 0-.512.405l-.886 2.715c-.102.31.068.64.38.742a.59.59 0 0 0 .744-.378l.887-2.715a.587.587 0 0 0-.613-.77Zm21.701.001a.587.587 0 0 0-.613.769l.887 2.715a.59.59 0 0 0 1.124-.364l-.886-2.715a.59.59 0 0 0-.512-.405Zm-14.56 1.513a.589.589 0 0 0-.53.524l-.299 2.84c-.034.323.2.612.526.646a.59.59 0 0 0 .65-.524l.3-2.84a.588.588 0 0 0-.646-.646Zm7.4.002a.588.588 0 0 0-.647.647l.298 2.84a.589.589 0 0 0 .649.524.588.588 0 0 0 .527-.646l-.298-2.84a.589.589 0 0 0-.53-.525Z" fill="#F4F2F3"/><path fill="#000" opacity=".409" d="M72.71 21.254 40.363 39.96 19.91 72.004l29.92-22.056z"/><path fill="#FF5150" d="m49.636 49.623-9.272-9.664 32.89-22.02z"/><path fill="#F1F1F1" d="m49.636 49.623-9.272-9.664-23.619 31.685z"/><path fill="#000" opacity=".243" d="m16.745 71.644 32.89-22.02 23.62-31.685z"/></g></svg>