<svg viewBox="0 0 90 90" xmlns="http://www.w3.org/2000/svg"><defs><linearGradient x1="50%" y1="100%" x2="50%" y2="0%" id="a"><stop stop-color="#420C5D" offset="0%"/><stop stop-color="#951AD1" offset="100%"/></linearGradient><linearGradient x1="50%" y1="100%" x2="50%" y2="0%" id="b"><stop stop-color="#420C5D" offset="0%"/><stop stop-color="#951AD1" offset="100%"/></linearGradient></defs><g fill="none" fill-rule="evenodd"><circle fill="#F2E4FF" fill-rule="nonzero" cx="45" cy="45" r="43.242"/><path d="M45.092 81.816V76.36c17.28-.05 31.271-14.07 31.271-31.362 0-17.291-13.991-31.31-31.27-31.36V8.182C65.383 8.234 81.816 24.695 81.816 45c0 20.304-16.433 36.767-36.725 36.817Zm0-19.094C54.84 62.672 62.727 54.76 62.727 45c0-9.759-7.888-17.671-17.635-17.723v-5.453c12.76.05 23.09 10.405 23.09 23.176 0 12.772-10.33 23.127-23.09 23.177v-5.454Zm0-27.264c5.228.05 9.453 4.3 9.453 9.54 0 5.242-4.225 9.492-9.453 9.542V35.458ZM0 44.998C0 69.854 20.146 90 45 90c24.853 0 45-20.147 45-45.001C90 20.146 69.853 0 45 0 20.146 0 0 20.146 0 44.999Z" fill="url(#a)" fill-rule="nonzero"/><path d="M45 5.098c-22.426 0-40.605 18.1-40.605 40.43 0 22.328 18.18 40.429 40.605 40.429V5.097Z" fill="#000" fill-rule="nonzero"/><path d="M0 0c22.426 0 40.605 18.101 40.605 40.43 0 22.328-18.18 40.43-40.605 40.43V0Z" fill="url(#b)" transform="matrix(-1 0 0 1 45 5.098)"/></g></svg>