<svg viewBox="0 0 90 90" xmlns="http://www.w3.org/2000/svg"><g fill="none"><path fill="#EF3939" d="M0 0h90v90H0z"/><path d="M68.71 21.178a33.75 33.75 0 1 0 0 47.644c13.122-13.17 13.122-34.474 0-47.644Zm-2.026 15.384-16.678 29.11a5.625 5.625 0 0 1-4.584 3.037 5.316 5.316 0 0 1-5.288-2.812c-3.571-6.075-6.975-12.15-10.462-18.085l-6.384-11.25a5.625 5.625 0 0 1 4.556-8.437 5.372 5.372 0 0 1 5.147 2.813c1.575 2.812 3.093 5.4 4.668 8.1 1.125 1.94 2.222 3.909 3.375 5.821a8.803 8.803 0 0 0 7.37 4.557 8.972 8.972 0 0 0 9.45-7.988V40.5a9.422 9.422 0 0 0-.957-4.19A5.625 5.625 0 1 1 67.5 32.877a5.85 5.85 0 0 1-.816 3.684Z" fill="#FFF"/></g></svg>