<svg viewBox="0 0 90 90" xmlns="http://www.w3.org/2000/svg"><g fill="none" fill-rule="evenodd"><path d="M53.438 13.65c-.27.266-.446.616-.528 1.049a2.374 2.374 0 0 0-.527-1.05 5.629 5.629 0 0 1-2.813 1.575c-2.695.441-5.273.092-7.734-1.05a5.716 5.716 0 0 1-1.758-2.273c3.359-2.666 6.992-3.074 10.899-1.224a9.914 9.914 0 0 1 2.46 2.973Z" fill="#84F5FE" opacity=".993"/><path d="M61.875 7.004c4.748-.118 6.564 2.098 5.45 6.646-1.926 2.286-4.21 2.694-6.856 1.224-2.585-3.172-2.116-5.795 1.406-7.87Z" fill="#68E8FE"/><path d="M40.078 11.901a5.72 5.72 0 0 0 1.758 2.273c2.46 1.142 5.039 1.491 7.734 1.05a5.629 5.629 0 0 0 2.813-1.574c.264.306.44.656.527 1.049.082-.433.258-.783.528-1.05.495 4.065-1.145 6.98-4.922 8.744a.79.79 0 0 0-.352-.524l2.813-2.099c-5.204.855-9.833-.37-13.887-3.672-.49.819-.782.819-.88 0a16.496 16.496 0 0 1 3.868-4.197Z" fill="#58EEFE"/><path d="M36.21 16.098c.098.819.39.819.88 0 4.054 3.303 8.683 4.527 13.887 3.672l-2.813 2.099a.79.79 0 0 1 .352.524 130.784 130.784 0 0 0-8.438 4.023 17.972 17.972 0 0 0-4.219 4.197c-.234.233-.468.233-.703 0a5.822 5.822 0 0 1-1.23-3.323c-.676-4.066.086-7.797 2.285-11.192Z" fill="#35E8FF" opacity=".974"/><path d="M62.227 24.492a47.87 47.87 0 0 0-16.172 8.219 21.126 21.126 0 0 0-2.989 3.323c-.073-.545-.25-1.012-.527-1.4a6.996 6.996 0 0 1 .527-2.098c.77-1.302 1.532-2.584 2.286-3.847 5.076-3.478 10.701-4.877 16.875-4.197Z" fill="#ACFDFE" opacity=".986"/><path d="M62.227 24.492c2.745.6 4.737 2.116 5.976 4.547-.278.387-.453.854-.527 1.399a7.116 7.116 0 0 0-.528-1.924c-2.348-.402-4.574-.053-6.68 1.05a38.282 38.282 0 0 0-9.491 8.918c-.352.116-.586.35-.704.7-5.7 3.775-8.277 2.259-7.734-4.547.278.387.454.854.527 1.399a21.126 21.126 0 0 1 2.989-3.323 47.87 47.87 0 0 1 16.172-8.22Z" fill="#BDFEFE" opacity=".997"/><path d="M30.586 28.689a15.627 15.627 0 0 1-.703-.35c-2.245 1.111-4.589 1.46-7.031 1.05a8.678 8.678 0 0 1-.176 2.448c-.074-.545-.25-1.012-.528-1.4.442-4.82 2.902-6.395 7.383-4.721a4.617 4.617 0 0 1 1.055 2.973Z" fill="#34F6FD"/><path d="M14.766 29.738a61.393 61.393 0 0 1-6.68 7.52 13.526 13.526 0 0 1-6.328 3.147 3.96 3.96 0 0 0-.528 1.225c-.146-.44-.44-.673-.878-.7.083-.451-.034-.801-.352-1.05v-4.196c2.867-7.022 7.79-9.004 14.766-5.946Z" fill="#01C3E8"/><path d="M89.648 35.334c-6.327 2.685-11.132.994-14.414-5.071.913-.273.913-.448 0-.525a6.101 6.101 0 0 1 2.461-1.224c5.976-1.053 9.96 1.22 11.953 6.82Z" fill="#6281F0" opacity=".999"/><path d="M68.203 29.039c.317.908.082 1.724-.703 2.448a120.343 120.343 0 0 0-8.086 7.345 29.282 29.282 0 0 1-5.977 1.748 5.39 5.39 0 0 1-2.46-2.098 38.282 38.282 0 0 1 9.492-8.919c2.105-1.102 4.331-1.451 6.68-1.049.263.606.439 1.248.527 1.924.074-.545.25-1.012.527-1.4Z" fill="#AEF0FC"/><path d="M75.234 29.738c.913.077.913.252 0 .525 3.282 6.065 8.087 7.756 14.414 5.071 0 .233.118.35.352.35v3.847a14.727 14.727 0 0 0-5.8.35c-5.657-.478-9.466-3.16-11.427-8.044a5.358 5.358 0 0 1 2.461-2.099Z" fill="#5A7EEF" opacity=".992"/><path d="M14.766 29.738c1.77.945 3.058 2.344 3.867 4.197-.187.453-.655.686-1.406.7a1.72 1.72 0 0 1-.176 1.049 277.84 277.84 0 0 1-6.153 5.77 79.578 79.578 0 0 1-8.437 3.673A45.22 45.22 0 0 1 .35 40.93c.44.027.733.26.88.7a3.96 3.96 0 0 1 .527-1.225c2.4-.494 4.51-1.543 6.328-3.147a61.393 61.393 0 0 0 6.68-7.52Z" fill="#00B4E9" opacity=".995"/><path d="M30.586 28.689c-.64 1.741-1.284 3.49-1.934 5.246a20.83 20.83 0 0 1-.703 4.897c-3.766-1.548-5.7-4.346-5.8-8.394.277.387.453.854.527 1.399a8.678 8.678 0 0 0 .176-2.449c2.442.412 4.786.062 7.03-1.049.241.127.475.244.704.35Z" fill="#07E5FE" opacity=".941"/><path d="M72.773 31.837c1.961 4.885 5.77 7.566 11.426 8.044A14.727 14.727 0 0 1 90 39.53v.35a28.399 28.399 0 0 1-1.758 3.847c-5.196.934-10-.173-14.414-3.323a55.03 55.03 0 0 0-3.867-3.672 25.095 25.095 0 0 1 2.812-4.896Z" fill="#4F7AEE" opacity=".996"/><path d="M18.633 33.935c.8 1.474 1.502 2.99 2.11 4.547-.795.096-.912.446-.352 1.05a38.956 38.956 0 0 0-5.977 4.72A59.63 59.63 0 0 1 6.68 48.1a11.47 11.47 0 0 1-2.813.175 6.667 6.667 0 0 1-1.406-3.148 79.578 79.578 0 0 0 8.437-3.672 277.84 277.84 0 0 0 6.153-5.771c.17-.332.228-.681.176-1.05.75-.013 1.22-.246 1.406-.699Z" fill="#00A7E9" opacity=".99"/><path d="M45.352 28.689c-.754 1.263-1.516 2.545-2.286 3.847a6.996 6.996 0 0 0-.527 2.099c-.543 6.806 2.035 8.322 7.734 4.546a9.095 9.095 0 0 0-1.757 2.449 994.007 994.007 0 0 0-3.164 4.197c-4.455-.059-8.908 0-13.36.174a10.29 10.29 0 0 0-.879 1.574 1.717 1.717 0 0 1-.175-1.049 61.472 61.472 0 0 1 9.492-14.165 24.853 24.853 0 0 1 4.922-3.672Z" fill="#0EF0FE" opacity=".994"/><path d="M69.96 36.733a55.03 55.03 0 0 1 3.868 3.672c4.414 3.15 9.218 4.257 14.414 3.323a82.816 82.816 0 0 1-2.812 6.645c-.295-.12-.412-.352-.352-.7-.028-.5.09-.966.352-1.398-6.712.07-12.279-2.378-16.7-7.345l-.351.7c-.14-.08-.199-.197-.176-.35a37.783 37.783 0 0 1 1.758-4.547Z" fill="#4375ED"/><path d="M50.977 38.482a5.39 5.39 0 0 0 2.46 2.098 177.858 177.858 0 0 1-8.613 16.089 97.714 97.714 0 0 1-4.043 9.968.79.79 0 0 1 .352.524 72.409 72.409 0 0 1-3.164 5.946.857.857 0 0 1-.703-.175 136.412 136.412 0 0 1 3.34-11.716 524.388 524.388 0 0 1 7.91-16.788c.31-.888.31-1.82 0-2.798a9.095 9.095 0 0 1 1.757-2.449c.118-.35.352-.583.704-.7Z" fill="#02D5FC" opacity=".992"/><path d="M59.414 38.832a15.956 15.956 0 0 0-2.46 3.147 1.009 1.009 0 0 0-.88.35A92.856 92.856 0 0 0 45 60.866c-1.29 2.098-2.578 4.197-3.867 6.295a.79.79 0 0 0-.352-.524 97.714 97.714 0 0 0 4.043-9.968 177.858 177.858 0 0 0 8.614-16.089 29.282 29.282 0 0 0 5.976-1.748Z" fill="#04DEFD"/><path d="M85.078 49.674a2.412 2.412 0 0 0-.703 1.05c-6.654.275-12.338-1.94-17.05-6.646-.147.44-.44.672-.88.7a16.49 16.49 0 0 1 1.758-3.498c-.023.153.036.27.176.35l.351-.7c4.421 4.967 9.988 7.415 16.7 7.345-.263.432-.38.899-.352 1.399Z" fill="#3A72EB"/><path d="m20.742 38.482 3.164 6.995a2.416 2.416 0 0 0-1.406.35 139.75 139.75 0 0 0-3.516 2.972c-1.28-.24-2.336.226-3.164 1.4a7.816 7.816 0 0 0-4.57 1.748c-1.875.331-3.75.623-5.625.875a37.783 37.783 0 0 1-1.758-4.547A11.47 11.47 0 0 0 6.68 48.1a59.63 59.63 0 0 0 7.734-3.847 38.956 38.956 0 0 1 5.977-4.722c-.56-.603-.443-.953.351-1.05Z" fill="#009BE9" opacity=".991"/><path d="m23.906 45.477 1.758 4.197c-.883 1.064-2.055 1.589-3.516 1.574-1.207 1.335-2.73 1.918-4.57 1.748-1.603 1.354-3.478 1.937-5.625 1.75-1.564.97-3.205 1.378-4.922 1.223a18.952 18.952 0 0 0-1.406-3.147c1.875-.252 3.75-.544 5.625-.875a7.816 7.816 0 0 1 4.57-1.749c.828-1.173 1.883-1.64 3.164-1.399a139.75 139.75 0 0 1 3.516-2.972 2.413 2.413 0 0 1 1.406-.35Z" fill="#0092E9" opacity=".993"/><path d="M45.352 45.827a196.643 196.643 0 0 0-5.977 9.443 32.08 32.08 0 0 0-12.305-1.4v-1.048l3.867-6.296a1.73 1.73 0 0 0 .176 1.05 10.29 10.29 0 0 1 .88-1.575c4.45-.174 8.904-.233 13.359-.174Z" fill="#03EEFE" opacity=".993"/><path d="M85.078 49.674c-.06.347.057.58.352.7l-2.461 5.595c-6.412-.515-12.096-2.847-17.051-6.995l-.352-1.049c-.175.715-.585 1.182-1.23 1.4.8-1.475 1.503-2.99 2.11-4.548.439-.027.732-.26.878-.7 4.713 4.707 10.397 6.922 17.051 6.646a2.42 2.42 0 0 1 .703-1.05Z" fill="#306DEA" opacity=".995"/><path d="M25.664 49.674a18.952 18.952 0 0 1 1.406 3.148v1.049a14.325 14.325 0 0 0-1.758 2.448c-.165-.417-.516-.65-1.054-.7a5.142 5.142 0 0 0-3.164 1.574l-3.867.35a28.98 28.98 0 0 1-3.868 1.749 62.417 62.417 0 0 1-4.57.175l-1.758-3.498c1.717.155 3.358-.253 4.922-1.224 2.147.188 4.022-.395 5.625-1.749 1.84.17 3.363-.413 4.57-1.748 1.461.015 2.633-.51 3.516-1.574Z" fill="#008CE9" opacity=".997"/><path d="m60.117 47.925 2.813 4.197a19.917 19.917 0 0 0 3.164 6.296 26.577 26.577 0 0 0 4.219 6.995c-3.993.141-7.86.957-11.602 2.448 0-.234-.117-.35-.352-.35a51.118 51.118 0 0 1-4.218-7.87c1.59-4.393 3.582-8.298 5.976-11.716Z" fill="#00CAFD"/><path d="m56.953 41.98.703 1.398a382.859 382.859 0 0 0-6.328 11.717c.358.367.416.775.176 1.224a69.253 69.253 0 0 1-2.813 5.946 8.33 8.33 0 0 0-.879 3.148L45 60.866a92.856 92.856 0 0 1 11.074-18.537c.236-.263.529-.38.88-.35Z" fill="#0192F3"/><path d="M82.969 55.97a80.462 80.462 0 0 1-2.813 5.595c-4.774.022-9.285-1.144-13.535-3.497-.269.024-.445.14-.527.35a19.917 19.917 0 0 1-3.164-6.296 7.884 7.884 0 0 0 1.406-2.798c.645-.217 1.055-.684 1.23-1.399l.352 1.05c4.955 4.147 10.639 6.48 17.05 6.994Z" fill="#2469E9"/><path d="M39.375 55.27a59.14 59.14 0 0 1-3.164 5.246 2.471 2.471 0 0 1-.703 1.05c-4.015-.703-8-1.286-11.953-1.75.575-1.16 1.161-2.325 1.758-3.497.5-.877 1.085-1.694 1.757-2.448a32.08 32.08 0 0 1 12.305 1.399Z" fill="#00E9FE"/><path d="M25.313 56.319a384.381 384.381 0 0 0-1.758 3.498 18.735 18.735 0 0 0-2.461 4.197c-3.666 3.374-7.181 3.258-10.547-.35l-1.758-4.197c1.453 0 2.976-.058 4.57-.175a28.98 28.98 0 0 0 3.868-1.749l3.867-.35a5.142 5.142 0 0 1 3.164-1.573c.538.049.89.282 1.055.699Z" fill="#0086E8" opacity=".997"/><path d="M57.656 43.378a7.884 7.884 0 0 1 1.407 2.798 67.176 67.176 0 0 0-6.329 11.367c.378.46.612.984.703 1.574a317.914 317.914 0 0 1-2.988 7.695 5.16 5.16 0 0 1-1.23 1.049 12.458 12.458 0 0 1-1.407-2.448 8.33 8.33 0 0 1 .88-3.148 69.253 69.253 0 0 0 2.812-5.946c.24-.449.182-.857-.176-1.224a382.859 382.859 0 0 1 6.328-11.717Z" fill="#00A6F7"/><path d="M80.156 61.565c-.073.959-.424 1.775-1.054 2.449-2.586 2.646-5.516 3.113-8.79 1.399a26.577 26.577 0 0 1-4.218-6.995c.082-.21.258-.326.527-.35 4.25 2.353 8.761 3.52 13.535 3.497Z" fill="#1D67E8" opacity=".996"/><path d="M59.063 46.176c.615.406.966.989 1.054 1.75-2.394 3.417-4.386 7.322-5.976 11.716a51.118 51.118 0 0 0 4.218 7.869 8.588 8.588 0 0 0-2.46 1.749l-.352-.7a11.166 11.166 0 0 1-2.813 2.798l-.351.7c.308.92.543 1.852.703 2.798a50.603 50.603 0 0 1-3.867-6.995 5.16 5.16 0 0 0 1.23-1.05c1.035-2.564 2.03-5.13 2.989-7.694a3.21 3.21 0 0 0-.704-1.574 67.176 67.176 0 0 1 6.328-11.367Z" fill="#00B2FA" opacity=".989"/><path d="M23.555 59.817a213.81 213.81 0 0 1 11.953 1.748 42.643 42.643 0 0 1-2.461 4.547 52.79 52.79 0 0 0-11.602-1.574.79.79 0 0 1-.351-.524 18.735 18.735 0 0 1 2.46-4.197Z" fill="#00E3FC"/><path d="M34.453 79.053a5.37 5.37 0 0 1-2.11 2.448c-.754.039-.871-.195-.35-.7-.895-.502-.895-1.027 0-1.573-.735-1.25-.735-2.532 0-3.848-.211-1.958-.211-3.823 0-5.596a1.514 1.514 0 0 0-.704-.524 20.613 20.613 0 0 0 1.758-3.148 42.643 42.643 0 0 0 2.46-4.547c.318-.276.552-.626.704-1.049.902.12 1.546-.346 1.934-1.399a12.803 12.803 0 0 1-1.583 5.071c.161.145.279.32.352.525-.843 1.884-1.195 3.808-1.055 5.77a7.499 7.499 0 0 1-1.054 2.799c.262.9.379 1.773.351 2.623a9.257 9.257 0 0 1-1.054 2.623.79.79 0 0 1 .351.525Z" fill="#00BAF7"/><path d="M48.516 41.63c.31.978.31 1.91 0 2.798a524.388 524.388 0 0 0-7.91 16.788 136.412 136.412 0 0 0-3.34 11.716.86.86 0 0 0 .703.175 74.028 74.028 0 0 1-3.516 5.946.79.79 0 0 0-.351-.525 9.257 9.257 0 0 0 1.054-2.623 8.37 8.37 0 0 0-.351-2.623 7.499 7.499 0 0 0 1.054-2.798c-.14-1.963.212-3.887 1.055-5.771a1.275 1.275 0 0 0-.352-.525 12.803 12.803 0 0 0 1.583-5.071c-.388 1.053-1.032 1.52-1.934 1.399a59.14 59.14 0 0 0 3.164-5.246 196.643 196.643 0 0 1 5.977-9.443 994.015 994.015 0 0 1 3.164-4.197Z" fill="#00C6F9"/><path d="M79.102 64.014a82.415 82.415 0 0 1-2.813 6.645c-.308.046-.542-.07-.703-.35l.703-1.399-.527-.35c-1.229.75-2.517.867-3.867.35-3.786.19-7.477.89-11.075 2.098a21.929 21.929 0 0 1-2.11-3.147 34.429 34.429 0 0 1 11.602-2.448c3.274 1.714 6.204 1.247 8.79-1.4Z" fill="#01C4FD" opacity=".995"/><path d="M10.547 63.664c3.366 3.608 6.881 3.724 10.547.35a.79.79 0 0 0 .351.524 52.79 52.79 0 0 1 11.602 1.574 20.613 20.613 0 0 1-1.758 3.148l-1.406 2.098a80.857 80.857 0 0 0-14.063-1.224 5.505 5.505 0 0 1-1.406-.874c-.25.677-.602.793-1.055.35a69.591 69.591 0 0 1-2.812-5.946Z" fill="#00D9FC"/><path d="M76.29 70.659a40.54 40.54 0 0 1-2.11 4.546c-.432-.528-.432-1.052 0-1.573a24.332 24.332 0 0 1-2.285-1.574c-4.073 3.098-7.764 2.748-11.075-1.05a41.112 41.112 0 0 1 11.075-2.098c1.35.517 2.638.4 3.867-.35l.527.35-.703 1.399c.16.28.395.396.703.35Z" fill="#00BDFC" opacity=".997"/><path d="M29.883 71.358c-3.513 4.57-7.556 5.037-12.13 1.4a5.048 5.048 0 0 1-1.933.874c.522.614.405 1.022-.351 1.224a50.774 50.774 0 0 1-2.11-5.247c.453.444.804.328 1.055-.35.422.361.89.653 1.406.875a80.857 80.857 0 0 1 14.063 1.224Z" fill="#00CFFA" opacity=".987"/><path d="M31.29 69.26c.276.099.51.274.702.524-.21 1.773-.21 3.638 0 5.596-.734 1.316-.734 2.599 0 3.848-.894.546-.894 1.07 0 1.573-.52.505-.403.739.352.7-1.13 1.204-2.536 1.962-4.219 2.273-4.092.776-7.432-.448-10.02-3.672a31.03 31.03 0 0 1-2.636-5.246c.756-.202.873-.61.351-1.224a5.048 5.048 0 0 0 1.934-.875c4.573 3.638 8.616 3.172 12.129-1.399l1.406-2.098Z" fill="#01B2F6" opacity=".996"/><path d="M58.36 67.511c.234 0 .35.116.35.35a21.929 21.929 0 0 0 2.11 3.147c3.31 3.798 7.002 4.148 11.075 1.05a24.332 24.332 0 0 0 2.285 1.574c-.432.52-.432 1.045 0 1.573-.686 2.893-2.209 5.225-4.57 6.995-.053-.8-.522-1.5-1.407-2.098l-1.23-2.448a19.5 19.5 0 0 1-2.813-2.099c-.217-.332-.158-.623.176-.874a42.978 42.978 0 0 1-2.637-.875 299.608 299.608 0 0 1-7.558 3.148l-1.055-2.098a18.469 18.469 0 0 0-.703-2.798l.351-.7a11.166 11.166 0 0 0 2.813-2.798l.351.7a8.588 8.588 0 0 1 2.461-1.749Z" fill="#00A7F9"/><path d="M69.61 82.2c-6.892 3.414-12.049 1.666-15.47-5.246a299.608 299.608 0 0 0 7.56-3.148 42.6 42.6 0 0 0 2.636.875c-.334.251-.393.542-.176.874a19.447 19.447 0 0 0 2.813 2.099l1.23 2.448c.885.599 1.354 1.298 1.406 2.098Z" fill="#009EF7" opacity=".999"/></g></svg>